<svg width="1001" height="171" viewBox="0 0 1001 171" fill="none" xmlns="http://www.w3.org/2000/svg">
<path fill-rule="evenodd" clip-rule="evenodd" d="M139.439 69.8914C139.775 70.6484 139.435 71.5346 138.678 71.871L138.663 71.8777L138.609 71.9018C138.561 71.9238 138.487 71.9575 138.389 72.0029C138.194 72.0936 137.902 72.2309 137.524 72.4142C136.768 72.7809 135.668 73.3315 134.306 74.0614C131.579 75.5216 127.807 77.6962 123.635 80.5473C115.268 86.2647 105.399 94.632 99.0742 105.326C97.9605 107.209 96.3101 110.049 94.711 113.34C95.3635 114.017 95.9748 114.7 96.5417 115.379C98.8574 118.154 100.518 120.977 101.16 123.203C103.41 130.972 102.362 136.567 99.5937 139.507C98.1975 140.99 96.3866 141.744 94.5274 141.631C92.6743 141.518 90.9389 140.555 89.6487 138.921C87.5837 136.326 86.834 133.145 86.8551 129.865C86.8762 126.594 87.6625 123.131 88.7702 119.834C89.4443 117.828 90.2471 115.855 91.0915 113.991C89.5423 112.555 87.7985 111.188 85.9038 110.006C79.2904 105.877 71.0065 104.064 62.5964 109.067C49.5621 118.178 44.529 132.906 42.7995 145.591C41.9366 151.92 41.9062 157.676 42.0926 161.851C42.1857 163.937 42.3327 165.623 42.4557 166.784C42.5172 167.364 42.5727 167.812 42.6123 168.113C42.6322 168.263 42.6481 168.377 42.6588 168.451L42.6709 168.534L42.6737 168.552L42.6743 168.556C42.8012 169.374 42.2409 170.141 41.4225 170.269C40.6484 170.389 39.9207 169.894 39.7362 169.148C39.7339 169.139 39.6656 168.714 39.6381 168.506C39.5953 168.181 39.5367 167.707 39.4724 167.1C39.3437 165.886 39.1917 164.138 39.0956 161.985C38.9035 157.681 38.9337 151.738 39.827 145.186C41.608 132.123 46.8605 116.379 60.9241 106.576L60.9672 106.546L61.0123 106.519C70.693 100.732 80.2371 102.932 87.4924 107.461C89.2789 108.576 90.9368 109.837 92.4388 111.165C93.9613 108.116 95.4712 105.525 96.492 103.799C103.135 92.5659 113.408 83.9022 121.942 78.0704C126.221 75.1468 130.088 72.9171 132.889 71.4168C134.29 70.6664 135.426 70.0976 136.215 69.7151C136.609 69.5237 136.917 69.3789 137.127 69.2812C137.293 69.2043 137.46 69.1174 137.634 69.0644C138.348 68.8476 139.128 69.192 139.439 69.8914ZM93.3559 116.285C92.7229 117.746 92.1281 119.26 91.614 120.79C90.5617 123.922 89.8733 127.049 89.8551 129.884C89.8369 132.711 90.4828 135.152 91.9977 137.055L92.0016 137.06C92.8326 138.113 93.8152 138.582 94.7097 138.637C95.5989 138.691 96.5661 138.346 97.4097 137.45C99.1202 135.634 100.399 131.356 98.2782 124.036L98.2777 124.034C97.7966 122.365 96.4173 119.912 94.2384 117.301C93.956 116.963 93.6617 116.624 93.3559 116.285Z" fill="#181818"/>
<path d="M989.474 0C989.278 0.366465 989.1 0.645676 988.976 0.942337C988.229 2.6176 987.251 4.17071 986.059 5.56677C984.92 6.91047 983.658 8.11457 982.163 9.07435C981.096 9.75493 979.976 10.3308 978.873 10.9416C978.695 11.0463 978.464 11.0463 978.286 11.151C978.161 11.2208 978.019 11.3778 978.001 11.5175C977.983 11.6222 978.161 11.7967 978.286 11.8316C981.594 13.1229 984.28 15.1995 986.468 17.9219C987.606 19.3354 988.478 20.871 989.225 22.5114C989.296 22.651 989.385 22.7731 989.51 23C989.723 22.6161 989.901 22.3194 990.025 22.0053C990.772 20.2951 991.786 18.7246 993.014 17.3111C994.099 16.0372 995.326 14.868 996.767 13.9605C997.852 13.2625 999.008 12.6692 1000.13 12.041C1000.32 11.9363 1000.56 11.9188 1000.75 11.8141C1000.88 11.7443 1001 11.5873 1001 11.4651C1001 11.3778 1000.86 11.2033 1000.75 11.1684C998.688 10.4181 996.873 9.26631 995.219 7.87026C993.654 6.54401 992.302 5.04325 991.27 3.28073C990.719 2.33839 990.239 1.36115 989.741 0.401365C989.67 0.296661 989.598 0.191957 989.474 0Z" fill="#FFB9F8"/>
<path d="M12.4517 101C12.297 100.76 12.1616 100.619 12.1036 100.459C11.3689 98.416 10.6535 96.3729 9.93813 94.3297C9.72544 93.7288 9.51276 93.1079 9.31941 92.4869C9.1454 91.9461 8.87471 91.4854 8.33333 91.2851C7.40526 90.9445 6.49652 90.604 5.56845 90.2435C4.50503 89.8428 3.46094 89.4222 2.41686 89.0216C1.77881 88.7812 1.14076 88.5809 0.502707 88.3205C0.309358 88.2404 0.174014 88.0401 0 87.8798C0.174014 87.7396 0.309358 87.5193 0.502707 87.4592C1.56613 87.0385 2.64888 86.6379 3.7123 86.2373C4.69838 85.8567 5.66512 85.4961 6.6512 85.1156C7.19258 84.9153 7.73395 84.7149 8.29466 84.5146C8.7587 84.3344 9.06806 84.0139 9.24207 83.5331C9.57077 82.5917 9.89946 81.6502 10.2282 80.7288C10.7695 79.2265 11.3109 77.7042 11.8523 76.2018C11.949 75.9214 11.9876 75.621 12.123 75.3405C12.2003 75.1803 12.3743 75 12.5097 75C12.645 75 12.819 75.2003 12.877 75.3606C13.6118 77.4037 14.3271 79.4468 15.0619 81.49C15.2746 82.1109 15.4872 82.7519 15.6999 83.3729C15.8739 83.9337 16.164 84.3344 16.7247 84.5347C18.1168 85.0354 19.5089 85.5562 20.901 86.0971C21.8871 86.4777 22.8732 86.8783 23.8786 87.2589C24.1299 87.359 24.42 87.3991 24.652 87.5193C24.8067 87.5994 25 87.7596 25 87.8998C25 88.02 24.8067 88.2404 24.6713 88.2804C22.2351 89.2419 19.8183 90.1433 17.4014 91.0647C17.3047 91.1048 17.1887 91.1448 17.0727 91.1649C16.2606 91.3451 15.8353 91.8459 15.5839 92.6872C15.2746 93.7689 14.8299 94.8105 14.4625 95.8721C14.1145 96.8736 13.7471 97.8552 13.3991 98.8567C13.2057 99.4176 13.0317 99.9985 12.819 100.559C12.7997 100.68 12.645 100.8 12.4517 101Z" fill="#FFD12D"/>
</svg>
