<svg width="695" height="781" viewBox="0 0 695 781" fill="none" xmlns="http://www.w3.org/2000/svg">
<path d="M683.474 0C683.278 0.366465 683.1 0.645676 682.976 0.942337C682.229 2.6176 681.251 4.17071 680.059 5.56677C678.92 6.91047 677.658 8.11457 676.163 9.07435C675.096 9.75493 673.976 10.3308 672.873 10.9416C672.695 11.0463 672.464 11.0463 672.286 11.151C672.161 11.2208 672.019 11.3778 672.001 11.5175C671.983 11.6222 672.161 11.7967 672.286 11.8316C675.594 13.1229 678.28 15.1995 680.468 17.9219C681.606 19.3354 682.478 20.871 683.225 22.5114C683.296 22.651 683.385 22.7731 683.51 23C683.723 22.6161 683.901 22.3194 684.025 22.0053C684.772 20.2951 685.786 18.7246 687.014 17.3111C688.099 16.0372 689.326 14.868 690.767 13.9605C691.852 13.2625 693.008 12.6692 694.128 12.041C694.324 11.9363 694.555 11.9188 694.751 11.8141C694.875 11.7443 695 11.5873 695 11.4651C695 11.3778 694.858 11.2033 694.751 11.1684C692.688 10.4181 690.873 9.26631 689.219 7.87026C687.654 6.54401 686.302 5.04325 685.27 3.28073C684.719 2.33839 684.239 1.36115 683.741 0.401365C683.67 0.296661 683.598 0.191957 683.474 0Z" fill="#FFB9F8"/>
<path d="M169.474 758C169.278 758.366 169.1 758.646 168.976 758.942C168.229 760.618 167.251 762.171 166.059 763.567C164.92 764.91 163.658 766.115 162.163 767.074C161.096 767.755 159.976 768.331 158.873 768.942C158.695 769.046 158.464 769.046 158.286 769.151C158.161 769.221 158.019 769.378 158.001 769.517C157.983 769.622 158.161 769.797 158.286 769.832C161.594 771.123 164.28 773.2 166.468 775.922C167.606 777.335 168.478 778.871 169.225 780.511C169.296 780.651 169.385 780.773 169.51 781C169.723 780.616 169.901 780.319 170.025 780.005C170.772 778.295 171.786 776.725 173.014 775.311C174.099 774.037 175.326 772.868 176.767 771.961C177.852 771.263 179.008 770.669 180.128 770.041C180.324 769.936 180.555 769.919 180.751 769.814C180.875 769.744 181 769.587 181 769.465C181 769.378 180.858 769.203 180.751 769.168C178.688 768.418 176.873 767.266 175.219 765.87C173.654 764.544 172.302 763.043 171.27 761.281C170.719 760.338 170.239 759.361 169.741 758.401C169.67 758.297 169.598 758.192 169.474 758Z" fill="#FFB9F8"/>
<path d="M12.4517 141C12.297 140.76 12.1616 140.619 12.1036 140.459C11.3689 138.416 10.6535 136.373 9.93813 134.33C9.72544 133.729 9.51276 133.108 9.31941 132.487C9.1454 131.946 8.87471 131.485 8.33333 131.285C7.40526 130.945 6.49652 130.604 5.56845 130.243C4.50503 129.843 3.46094 129.422 2.41686 129.022C1.77881 128.781 1.14076 128.581 0.502707 128.32C0.309358 128.24 0.174014 128.04 0 127.88C0.174014 127.74 0.309358 127.519 0.502707 127.459C1.56613 127.039 2.64888 126.638 3.7123 126.237C4.69838 125.857 5.66512 125.496 6.6512 125.116C7.19258 124.915 7.73395 124.715 8.29466 124.515C8.7587 124.334 9.06806 124.014 9.24207 123.533C9.57077 122.592 9.89946 121.65 10.2282 120.729C10.7695 119.227 11.3109 117.704 11.8523 116.202C11.949 115.921 11.9876 115.621 12.123 115.341C12.2003 115.18 12.3743 115 12.5097 115C12.645 115 12.819 115.2 12.877 115.361C13.6118 117.404 14.3271 119.447 15.0619 121.49C15.2746 122.111 15.4872 122.752 15.6999 123.373C15.8739 123.934 16.164 124.334 16.7247 124.535C18.1168 125.035 19.5089 125.556 20.901 126.097C21.8871 126.478 22.8732 126.878 23.8786 127.259C24.1299 127.359 24.42 127.399 24.652 127.519C24.8067 127.599 25 127.76 25 127.9C25 128.02 24.8067 128.24 24.6713 128.28C22.2351 129.242 19.8183 130.143 17.4014 131.065C17.3047 131.105 17.1887 131.145 17.0727 131.165C16.2606 131.345 15.8353 131.846 15.5839 132.687C15.2746 133.769 14.8299 134.81 14.4625 135.872C14.1145 136.874 13.7471 137.855 13.3991 138.857C13.2057 139.418 13.0317 139.998 12.819 140.559C12.7997 140.68 12.645 140.8 12.4517 141Z" fill="#FFD12D"/>
<circle cx="564" cy="396" r="8" fill="#93E6CF"/>
</svg>
