<svg width="618" height="519" viewBox="0 0 618 519" fill="none" xmlns="http://www.w3.org/2000/svg">
<g clip-path="url(#clip0)">
<path d="M243.541 350.974C243.341 350.974 243.141 350.974 242.941 350.874C242.741 350.774 242.641 350.674 242.441 350.574C242.341 350.474 242.241 350.274 242.141 350.074C242.041 349.874 242.041 349.674 242.041 349.474L244.841 305.774L244.541 306.374L232.641 330.074C226.341 339.174 217.141 343.774 205.341 343.774C198.741 343.774 192.241 341.574 187.041 337.474C181.841 333.374 178.041 327.774 176.341 321.274L158.341 251.474C158.141 250.674 158.241 249.774 158.541 249.074C158.841 248.274 159.441 247.674 160.241 247.274C160.741 246.974 161.241 246.874 161.841 246.774L166.941 246.474L166.541 239.174C166.141 239.074 165.741 238.874 165.241 238.774C163.841 238.274 161.941 237.674 159.741 236.874C155.541 235.374 150.441 233.274 147.341 231.274C147.341 231.274 147.241 231.274 147.241 231.174C146.241 230.474 145.541 229.374 145.241 228.174C144.941 226.974 145.041 225.774 145.541 224.674C145.941 223.574 146.741 222.674 147.641 222.074C148.641 221.474 149.841 221.274 151.041 221.374C151.041 221.374 151.041 221.374 151.141 221.374C153.241 221.874 155.941 222.474 158.541 223.174C157.941 222.774 157.341 222.474 156.741 222.074C151.241 218.674 145.441 215.074 144.141 214.274C144.141 214.274 144.041 214.274 144.041 214.174C142.641 213.174 141.741 211.574 141.441 209.974C141.141 208.274 141.441 206.574 142.441 205.074C142.941 204.174 143.741 203.574 144.741 203.174C145.741 202.774 146.741 202.574 147.841 202.574C148.941 202.674 149.941 202.974 150.841 203.474L161.341 209.674L151.541 200.474C150.041 199.174 148.841 197.674 148.241 196.074C147.641 194.374 147.841 192.574 149.041 191.074C150.241 189.474 151.941 188.574 153.741 188.574C155.541 188.474 157.241 189.174 158.741 190.374L174.441 203.774L165.841 187.174C165.341 186.374 165.041 185.574 164.941 184.674C164.841 183.774 164.941 182.874 165.141 181.974C165.441 181.074 165.841 180.274 166.441 179.574C167.041 178.874 167.741 178.274 168.541 177.874C170.141 177.074 171.941 176.974 173.741 177.374C175.441 177.774 176.941 178.874 178.041 180.274C178.041 180.274 178.141 180.374 178.141 180.474L194.341 210.074C194.841 208.574 195.541 206.674 196.441 204.874C197.441 202.774 198.741 200.574 200.241 199.074C201.841 197.574 203.941 196.374 206.341 197.174C207.841 197.574 208.941 198.474 209.641 199.674C210.341 200.874 210.541 202.274 210.641 203.674C210.641 206.574 209.741 210.074 208.541 213.674C207.341 217.374 205.641 221.274 204.141 224.874V224.974C202.641 228.574 201.241 231.874 200.441 234.474C200.341 234.874 200.241 235.774 200.241 237.074C200.241 238.274 200.341 239.674 200.441 240.974C200.541 242.274 200.741 243.474 200.841 244.474V244.574L205.741 244.274C206.641 244.174 207.541 244.474 208.341 245.074C209.041 245.674 209.541 246.474 209.741 247.374L212.141 261.374L217.741 248.974V248.874C228.941 228.074 237.041 219.674 253.841 211.174C266.541 204.674 276.741 201.474 286.941 200.574C287.141 200.574 287.341 200.574 287.541 200.674C287.741 200.774 287.941 200.874 288.041 200.974C288.041 200.974 288.041 201.074 288.141 201.074C288.441 201.074 288.741 200.974 289.041 200.974L289.141 200.274V200.174C289.141 200.074 289.141 199.874 289.241 199.774L292.341 167.974C288.241 167.574 277.441 165.874 274.841 159.074C274.341 157.974 274.041 156.774 274.141 155.574C274.241 154.374 274.541 153.174 275.241 152.174C276.141 151.074 277.241 150.274 278.541 149.674C279.841 149.074 281.241 148.874 282.641 148.974C282.941 148.974 283.241 148.974 283.541 149.074C282.241 145.774 277.841 133.174 281.241 125.374C282.141 122.874 283.841 120.674 286.141 119.174C288.341 117.674 291.041 116.874 293.741 116.874C293.741 116.874 295.641 111.474 300.941 110.174C306.041 108.874 310.141 113.274 310.141 113.274C311.241 112.074 312.641 111.174 314.141 110.674C315.641 110.074 317.241 109.874 318.841 109.974C323.541 110.274 325.141 115.374 325.141 115.374C325.141 115.374 331.141 114.874 334.841 116.374C291.341 87.0739 244.141 71.8739 203.541 82.6739C127.441 102.874 64.7412 216.874 107.541 324.574C132.641 387.674 189.241 442.374 255.941 456.574L248.641 350.974H243.541Z" fill="#F8FBFF"/>
<path d="M310.741 374.974L307.241 460.574C312.541 460.474 317.641 460.174 322.841 459.774L318.441 374.974H310.741Z" fill="#F8FBFF"/>
<path d="M478.341 218.874C484.941 217.574 487.841 210.774 482.841 207.774C479.941 206.074 474.841 206.774 474.841 206.774C462.341 208.774 461.741 209.274 458.041 210.874C452.241 213.474 452.841 217.674 457.141 220.274C460.141 222.274 471.741 220.174 478.341 218.874Z" fill="white"/>
<path d="M430.341 220.774C430.341 218.774 430.741 215.974 431.541 212.874C406.441 176.174 373.041 142.074 337.041 117.474C337.641 118.174 337.841 118.974 337.741 120.074C337.241 123.874 331.441 127.474 324.341 129.774C328.641 132.174 332.941 134.774 337.041 137.574C339.741 139.374 342.241 141.274 344.741 143.274C345.541 143.974 346.141 144.774 346.441 145.774C346.741 146.774 346.841 147.774 346.641 148.774C346.441 149.774 345.941 150.774 345.241 151.474C344.541 152.274 343.641 152.774 342.741 153.074L330.441 156.974L335.141 199.274C345.241 200.174 355.441 203.374 368.141 209.874C384.841 218.374 392.941 226.874 404.241 247.574V247.674L409.841 260.074L412.241 246.074C412.341 245.174 412.841 244.374 413.641 243.774C414.341 243.174 415.241 242.874 416.241 242.974L420.341 243.174L424.041 243.274C425.241 241.574 427.241 238.474 428.841 233.774C430.141 229.774 430.341 223.774 430.341 220.774Z" fill="#F8FBFF"/>
<path d="M482.841 207.774C479.941 206.074 474.841 206.774 474.841 206.774C462.341 208.774 461.741 209.274 458.041 210.874C452.241 213.474 452.841 217.674 457.141 220.274C460.241 222.174 471.741 220.074 478.441 218.874C484.941 217.674 487.841 210.774 482.841 207.774Z" stroke="#181818" stroke-width="3"/>
<path d="M464.241 274.474C462.741 275.474 460.941 276.074 459.041 275.774C458.441 275.674 457.841 275.574 457.341 275.374L445.841 319.874C444.141 326.274 440.441 331.974 435.141 336.074C429.841 340.174 423.441 342.374 416.741 342.374C405.041 342.374 395.841 337.774 389.541 328.574L376.341 306.874L381.041 347.774C381.041 347.974 381.041 348.174 380.941 348.374C380.841 348.574 380.741 348.774 380.641 348.874C380.541 348.974 380.341 349.174 380.141 349.274C379.941 349.374 379.741 349.374 379.541 349.374H375.141L373.141 449.874C425.341 433.474 463.141 399.574 473.241 358.174C479.441 333.374 475.441 304.274 464.241 274.474Z" fill="#F8FBFF"/>
<path d="M115.949 472.274C115.821 472.122 115.711 471.957 115.62 471.781C114.948 469.906 114.249 468.017 113.632 466.141C113.427 465.58 113.235 465.019 113.057 464.444C113.001 464.202 112.891 463.976 112.734 463.784C112.577 463.592 112.378 463.438 112.152 463.335L109.603 462.377L106.697 461.255C106.108 461.035 105.518 460.844 104.929 460.611C104.754 460.498 104.597 460.359 104.463 460.2C104.627 460.077 104.751 459.872 104.929 459.817L107.889 458.695L110.631 457.654L112.138 457.107C112.342 457.031 112.527 456.91 112.679 456.754C112.831 456.598 112.946 456.41 113.015 456.203C113.317 455.291 113.618 454.428 113.92 453.616C114.427 452.247 114.921 450.878 115.414 449.51C115.482 449.239 115.569 448.974 115.674 448.716C115.674 448.565 115.894 448.401 116.031 448.401C116.168 448.401 116.305 448.579 116.36 448.729C117.045 450.618 117.73 452.494 118.375 454.369C118.58 454.944 118.772 455.533 118.964 456.108C119.017 456.351 119.132 456.577 119.298 456.764C119.463 456.951 119.674 457.092 119.91 457.175C121.198 457.641 122.473 458.12 123.761 458.613C124.666 458.968 125.584 459.338 126.502 459.68C126.735 459.776 126.996 459.817 127.215 459.927C127.434 460.036 127.544 460.146 127.544 460.269C127.522 460.349 127.483 460.422 127.428 460.484C127.373 460.546 127.305 460.594 127.229 460.625C124.995 461.515 122.761 462.336 120.54 463.185C120.44 463.231 120.334 463.263 120.225 463.28C119.888 463.352 119.58 463.52 119.337 463.762C119.094 464.005 118.926 464.313 118.854 464.649C118.58 465.649 118.169 466.607 117.826 467.592L116.839 470.33C116.661 470.85 116.511 471.384 116.305 471.904C116.264 471.973 116.127 472.096 115.949 472.274Z" fill="#0084FF"/>
<path d="M520.105 434.917C524.177 434.917 527.479 431.62 527.479 427.552C527.479 423.485 524.177 420.188 520.105 420.188C516.032 420.188 512.731 423.485 512.731 427.552C512.731 431.62 516.032 434.917 520.105 434.917Z" fill="#FFB9F8"/>
<path d="M552.363 200.145C556.435 200.145 559.737 196.848 559.737 192.781C559.737 188.714 556.435 185.416 552.363 185.416C548.291 185.416 544.989 188.714 544.989 192.781C544.989 196.848 548.291 200.145 552.363 200.145Z" fill="#FFD12D"/>
<path d="M166.201 111.605C166.034 111.388 165.883 111.159 165.749 110.92C164.803 108.306 163.885 105.705 163.008 103.104C162.734 102.337 162.459 101.543 162.199 100.75C162.123 100.412 161.968 100.096 161.746 99.8298C161.525 99.5633 161.243 99.3531 160.924 99.2164C159.732 98.792 158.567 98.354 157.361 97.8475L153.249 96.287C152.427 95.9722 151.604 95.7258 150.782 95.3836C150.536 95.2358 150.318 95.0458 150.138 94.8223C150.357 94.6444 150.535 94.3706 150.782 94.2885C152.152 93.7546 153.523 93.2481 154.894 92.7279L158.69 91.3591L160.815 90.5925C161.099 90.4903 161.356 90.3252 161.568 90.1094C161.779 89.8937 161.939 89.633 162.035 89.3468C162.459 88.1422 162.884 86.9376 163.309 85.7741L165.406 79.9974C165.502 79.6268 165.616 79.2612 165.749 78.9023C165.859 78.697 166.078 78.4643 166.256 78.4643C166.434 78.4643 166.654 78.7244 166.722 78.9297L169.546 86.7323L170.368 89.1415C170.452 89.4837 170.622 89.7988 170.862 90.0574C171.102 90.316 171.403 90.5095 171.739 90.6199C173.548 91.2632 175.343 91.9888 177.139 92.6047L180.976 94.0968C181.305 94.22 181.675 94.2748 181.977 94.4253C182.279 94.5759 182.429 94.7265 182.429 94.9044C182.397 95.0119 182.343 95.1113 182.27 95.1963C182.196 95.2812 182.106 95.3497 182.004 95.3972C178.852 96.6155 175.741 97.7654 172.616 98.9426C172.479 98.9999 172.337 99.0413 172.191 99.0658C171.716 99.1665 171.28 99.4045 170.939 99.75C170.598 100.096 170.366 100.534 170.272 101.01C169.874 102.379 169.299 103.747 168.901 105.116C168.504 106.485 167.969 107.635 167.531 108.922C167.284 109.634 167.065 110.373 166.791 111.085C166.599 111.194 166.448 111.345 166.201 111.605Z" fill="#93E6CF"/>
<path d="M4.12483 275.893C3.99949 275.766 3.92582 275.596 3.91806 275.418C3.90632 275.172 3.37159 250.195 22.8182 243.386C26.8387 241.985 30.9331 242.798 34.6849 245.749C37.7067 248.278 40.1447 251.43 41.831 254.989C43.3335 253.626 45.0418 252.245 46.9598 250.836C51.9661 247.089 57.7481 244.509 63.8828 243.283C64.0619 243.263 64.2421 243.312 64.3861 243.42C64.53 243.529 64.6268 243.688 64.6562 243.866C64.6768 243.959 64.6782 244.055 64.6604 244.149C64.6426 244.243 64.6058 244.332 64.5525 244.41C64.4991 244.489 64.4301 244.557 64.3498 244.608C64.2696 244.659 64.1796 244.694 64.0855 244.709C58.1871 245.927 52.6265 248.416 47.7925 252.003C45.7383 253.572 43.9844 255.032 42.4676 256.377C43.8587 259.556 44.5537 262.547 44.3918 264.426C43.6628 271.653 40.3982 274.494 37.8654 274.689C36.8758 274.776 35.888 274.502 35.0837 273.919C34.2794 273.337 33.7126 272.483 33.4877 271.516C32.1418 267.119 34.62 261.915 40.8289 256.014C39.2174 252.499 36.8515 249.381 33.899 246.881C30.5064 244.209 26.9641 243.487 23.3814 244.741C4.93218 251.181 5.40972 275.146 5.42252 275.415C5.42493 275.556 5.38631 275.695 5.31133 275.815C5.23839 275.933 5.13188 276.027 5.00532 276.085C4.87531 276.144 4.72977 276.16 4.58983 276.131C4.4508 276.114 4.31994 276.056 4.21361 275.965L4.12483 275.893ZM41.398 257.307C34.6629 263.851 33.9615 268.263 34.7721 271.043C34.9064 271.697 35.274 272.279 35.8065 272.682C36.3389 273.084 36.9998 273.28 37.6656 273.232C39.8694 273.011 42.3363 270.114 42.9825 264.165C42.9645 261.791 42.4235 259.449 41.398 257.307Z" fill="#0084FF"/>
<path d="M372.586 480.627H323.902L318.42 374.936H310.744L306.441 480.627H257.606L248.573 349.626C248.533 349.445 248.533 349.258 248.573 349.078C248.629 348.896 248.723 348.728 248.848 348.584C248.973 348.44 249.127 348.324 249.3 348.243C249.466 348.157 249.648 348.106 249.834 348.092C250.02 348.058 250.21 348.058 250.396 348.092C250.574 348.156 250.741 348.249 250.89 348.366C251.027 348.498 251.143 348.65 251.232 348.818C251.317 348.989 251.369 349.175 251.383 349.365L260.21 477.684H303.59L307.893 371.979H321.106L326.589 477.684H369.845L372.408 347.997C372.407 347.807 372.445 347.618 372.521 347.444C372.596 347.27 372.707 347.113 372.847 346.984C372.981 346.85 373.142 346.746 373.319 346.677C373.496 346.609 373.685 346.578 373.875 346.587C374.063 346.587 374.249 346.626 374.421 346.702C374.593 346.777 374.748 346.887 374.875 347.025C375.008 347.16 375.113 347.321 375.184 347.497C375.254 347.673 375.289 347.862 375.287 348.051L372.586 480.627Z" fill="black"/>
<path d="M327.548 374.936H300.78C300.4 374.93 300.037 374.778 299.766 374.512C299.631 374.378 299.524 374.219 299.451 374.044C299.378 373.869 299.341 373.681 299.341 373.492C299.341 373.302 299.378 373.115 299.451 372.939C299.524 372.764 299.631 372.606 299.766 372.472C300.037 372.206 300.4 372.054 300.78 372.048H327.548C327.741 372.038 327.934 372.068 328.114 372.138C328.294 372.208 328.457 372.314 328.593 372.451C328.729 372.588 328.834 372.752 328.902 372.933C328.97 373.113 328.999 373.306 328.987 373.499C328.984 373.876 328.837 374.238 328.576 374.512C328.3 374.779 327.933 374.931 327.548 374.936Z" fill="black"/>
<path d="M409.922 510.455L330.426 510.126V483.789C330.401 482.341 330.95 480.942 331.954 479.898C332.959 478.854 334.336 478.25 335.786 478.218H336.046L352.301 484.337C353.452 484.758 354.695 484.863 355.9 484.642C357.106 484.42 358.229 483.88 359.155 483.077L362.663 480.079C363.034 479.752 363.468 479.505 363.938 479.354C364.413 479.213 364.911 479.166 365.405 479.217C365.887 479.277 366.352 479.43 366.775 479.669C367.216 479.913 367.599 480.249 367.899 480.654L374.039 488.717C380.015 491.236 385.991 491.715 391.323 492.139C398.573 492.728 404.823 493.221 408.181 498.778C409.95 501.694 409.977 505.623 409.881 509.058L409.922 510.455ZM333.346 507.252L407.126 507.566C407.126 505.267 407.03 502.269 405.824 500.27C403.22 495.972 397.916 495.548 391.186 495C385.58 494.562 379.207 494.056 372.683 491.167L372.34 491.03L365.747 482.406C365.682 482.316 365.598 482.241 365.5 482.187C365.408 482.131 365.306 482.094 365.199 482.078C364.996 482.064 364.795 482.128 364.637 482.256L361.128 485.267C359.799 486.409 358.188 487.175 356.462 487.486C354.737 487.796 352.959 487.64 351.315 487.033L335.58 481.106C334.94 481.208 334.358 481.533 333.935 482.023C333.524 482.523 333.309 483.156 333.332 483.803L333.346 507.252Z" fill="#181818"/>
<path d="M369.722 496.697C369.582 496.724 369.437 496.724 369.297 496.697C369.115 496.641 368.947 496.548 368.804 496.424C368.511 496.179 368.324 495.831 368.283 495.452C368.241 495.267 368.241 495.075 368.283 494.891C369.324 491.55 372.203 483.94 376.15 484.556C380.098 485.172 381.454 491.222 381.633 491.893C381.71 492.268 381.635 492.659 381.424 492.98C381.214 493.3 380.884 493.525 380.509 493.604C380.323 493.652 380.129 493.661 379.939 493.629C379.75 493.597 379.569 493.526 379.409 493.421C379.248 493.315 379.112 493.176 379.009 493.015C378.906 492.853 378.838 492.671 378.809 492.481C378.48 490.934 377.288 487.69 375.67 487.389C374.93 487.266 372.614 490.798 371.051 495.753C370.96 496.04 370.783 496.293 370.544 496.478C370.3 496.662 370.001 496.758 369.695 496.752L369.722 496.697Z" fill="#181818"/>
<path d="M380.81 497.957C380.661 497.962 380.512 497.939 380.372 497.888C380.191 497.836 380.023 497.748 379.878 497.628C379.73 497.509 379.609 497.359 379.522 497.19C379.428 497.027 379.372 496.844 379.357 496.656C379.323 496.471 379.323 496.281 379.357 496.095C380.413 492.755 383.291 485.144 387.225 485.76C391.158 486.376 392.543 492.413 392.707 493.097C392.741 493.283 392.741 493.473 392.707 493.659C392.671 493.845 392.596 494.022 392.488 494.179C392.392 494.343 392.255 494.48 392.091 494.576C391.941 494.687 391.767 494.762 391.583 494.795C391.398 494.829 391.207 494.829 391.021 494.795C390.834 494.759 390.657 494.684 390.501 494.576C390.338 494.478 390.198 494.347 390.089 494.192C389.985 494.034 389.911 493.857 389.87 493.672C389.555 492.125 388.362 488.881 386.731 488.58C385.991 488.416 383.689 491.988 382.112 496.944C382.026 497.23 381.848 497.48 381.605 497.656C381.366 497.841 381.072 497.942 380.769 497.943L380.81 497.957Z" fill="#181818"/>
<path d="M401.274 518.38H369.147C368.061 518.389 366.984 518.184 365.978 517.775C364.973 517.366 364.058 516.763 363.287 515.999C362.516 515.236 361.904 514.327 361.487 513.326C361.069 512.325 360.854 511.252 360.854 510.167V509.592H409.593V510.167C409.572 512.339 408.699 514.416 407.161 515.951C405.623 517.487 403.544 518.359 401.37 518.38H401.274Z" fill="#181818"/>
<path d="M352.562 518.161H339.116C338.031 518.17 336.954 517.965 335.948 517.556C334.943 517.147 334.028 516.544 333.257 515.78C332.486 515.016 331.874 514.108 331.457 513.107C331.039 512.106 330.824 511.032 330.824 509.948V509.359H360.854V509.948C360.833 512.132 359.95 514.218 358.398 515.756C356.845 517.294 354.748 518.158 352.562 518.161Z" fill="#181818"/>
<path d="M223.189 510.455V509.086C223.093 505.65 223.189 501.721 224.889 498.806C228.261 493.248 234.483 492.755 241.748 492.166C247.038 491.742 253.014 491.263 259.031 488.744L265.185 480.682C265.479 480.281 265.852 479.945 266.282 479.696C266.704 479.457 267.17 479.304 267.652 479.244C268.145 479.193 268.644 479.24 269.119 479.381C269.598 479.532 270.041 479.779 270.421 480.107L273.916 483.104C274.848 483.92 275.984 484.467 277.203 484.689C278.421 484.911 279.678 484.798 280.838 484.364L297.079 478.245H297.203C298.652 478.277 300.03 478.882 301.034 479.926C302.038 480.97 302.588 482.369 302.562 483.816V510.167L223.189 510.455ZM267.995 482.064H267.913C267.806 482.08 267.703 482.117 267.611 482.174C267.518 482.228 267.438 482.303 267.378 482.393L260.772 491.017L260.429 491.167C253.905 494.042 247.545 494.535 241.926 495C235.21 495.548 229.892 495.958 227.301 500.257C226.081 502.255 225.931 505.253 225.931 507.566L299.711 507.238V483.789C299.737 483.146 299.522 482.516 299.108 482.023C298.699 481.523 298.117 481.195 297.477 481.106L281.742 487.019C280.101 487.63 278.326 487.79 276.602 487.485C274.876 487.171 273.263 486.406 271.929 485.267L268.433 482.256C268.298 482.133 268.123 482.065 267.94 482.064H267.995Z" fill="#181818"/>
<path d="M263.321 496.697C263.014 496.709 262.711 496.616 262.462 496.435C262.214 496.254 262.033 495.994 261.951 495.698C260.415 490.825 258.113 487.334 257.373 487.334C255.742 487.608 254.549 490.88 254.234 492.413C254.155 492.788 253.93 493.117 253.609 493.327C253.288 493.537 252.897 493.612 252.521 493.535C252.15 493.456 251.826 493.235 251.616 492.919C251.509 492.763 251.435 492.586 251.4 492.4C251.364 492.214 251.368 492.023 251.411 491.838C251.548 491.153 252.904 485.199 256.893 484.501C260.881 483.803 263.746 491.496 264.76 494.822C264.795 495.008 264.795 495.198 264.76 495.383C264.745 495.575 264.689 495.762 264.596 495.931C264.513 496.099 264.39 496.244 264.239 496.355C264.094 496.478 263.927 496.571 263.746 496.629C263.6 496.677 263.447 496.7 263.294 496.697H263.321Z" fill="#181818"/>
<path d="M252.247 497.957C251.943 497.961 251.646 497.87 251.397 497.697C251.152 497.527 250.969 497.282 250.876 496.999C249.341 492.139 247.025 488.635 246.285 488.635C244.667 488.909 243.543 492.18 243.16 493.727C243.123 493.913 243.048 494.089 242.939 494.245C242.831 494.4 242.691 494.532 242.529 494.63C242.373 494.738 242.196 494.811 242.009 494.847C241.823 494.882 241.631 494.878 241.446 494.836C241.261 494.801 241.085 494.728 240.93 494.622C240.774 494.516 240.642 494.379 240.542 494.22C240.434 494.064 240.361 493.887 240.325 493.701C240.29 493.514 240.293 493.323 240.336 493.138C240.473 492.454 241.816 486.499 245.819 485.801C249.821 485.103 252.672 492.796 253.686 496.122C253.719 496.308 253.719 496.498 253.686 496.684C253.673 496.876 253.617 497.064 253.521 497.231C253.434 497.4 253.313 497.55 253.165 497.669C253.016 497.783 252.849 497.87 252.672 497.929C252.522 497.957 252.369 497.957 252.219 497.929L252.247 497.957Z" fill="#181818"/>
<path d="M223.478 509.551H272.203V510.167C272.181 512.351 271.299 514.437 269.746 515.975C268.194 517.513 266.097 518.377 263.911 518.38H231.77C229.589 518.38 227.497 517.515 225.955 515.975C224.412 514.434 223.546 512.345 223.546 510.167L223.478 509.551Z" fill="#181818"/>
<path d="M272.203 509.305H302.178V509.893C302.187 510.983 301.979 512.064 301.565 513.073C301.152 514.082 300.542 514.999 299.77 515.77C298.998 516.541 298.08 517.15 297.07 517.563C296.06 517.976 294.977 518.184 293.886 518.175H280.454C279.368 518.175 278.293 517.96 277.291 517.543C276.289 517.126 275.379 516.515 274.614 515.745C273.85 514.975 273.246 514.062 272.836 513.057C272.427 512.053 272.221 510.978 272.23 509.893V509.305H272.203Z" fill="#181818"/>
<path d="M312.06 214.682C299.368 214.682 289.404 208.358 289.335 200.186C289.335 199.803 289.487 199.436 289.756 199.164C290.026 198.893 290.392 198.738 290.775 198.735C290.962 198.732 291.148 198.764 291.323 198.83C291.498 198.902 291.657 199.009 291.789 199.145C291.925 199.277 292.032 199.435 292.104 199.611C292.185 199.782 292.228 199.969 292.227 200.158C292.227 206.619 301.15 211.807 312.06 211.807H312.334C317.386 211.889 322.363 210.587 326.726 208.043C330.33 205.784 332.29 202.869 332.208 199.83C332.21 199.637 332.247 199.447 332.318 199.268C332.392 199.098 332.494 198.941 332.619 198.803C332.757 198.673 332.914 198.567 333.085 198.488C333.441 198.343 333.84 198.343 334.196 198.488C334.366 198.562 334.524 198.664 334.662 198.789C334.791 198.926 334.898 199.084 334.977 199.255C335.046 199.429 335.083 199.615 335.087 199.802C335.087 203.909 332.674 207.632 328.233 210.438C323.418 213.267 317.92 214.725 312.334 214.655L312.06 214.682Z" fill="#181818"/>
<path d="M313.65 145.827C313.313 145.777 313.004 145.613 312.773 145.362C312.545 145.11 312.414 144.785 312.403 144.445L312.334 142.405C312.329 142.214 312.361 142.024 312.429 141.845C312.497 141.667 312.6 141.504 312.732 141.365C312.931 141.158 313.187 141.014 313.468 140.952C313.748 140.889 314.041 140.91 314.31 141.012C314.579 141.114 314.811 141.293 314.979 141.526C315.147 141.759 315.243 142.036 315.254 142.323L315.322 144.363C315.326 144.55 315.294 144.736 315.226 144.91C315.16 145.089 315.058 145.252 314.925 145.389C314.798 145.529 314.644 145.641 314.473 145.718C314.301 145.799 314.114 145.841 313.924 145.841L313.65 145.827Z" fill="#181818"/>
<path d="M319.27 145.964C318.935 145.908 318.627 145.744 318.392 145.499C318.164 145.248 318.037 144.921 318.036 144.582L317.967 142.528C317.959 142.143 318.102 141.77 318.365 141.488C318.498 141.348 318.657 141.237 318.834 141.159C319.01 141.081 319.2 141.04 319.393 141.036C319.772 141.025 320.14 141.162 320.419 141.418C320.698 141.673 320.866 142.028 320.887 142.405L320.956 144.459C320.958 144.65 320.926 144.84 320.86 145.02C320.785 145.19 320.683 145.348 320.558 145.485C320.429 145.621 320.275 145.733 320.106 145.814C319.933 145.892 319.747 145.934 319.557 145.937L319.27 145.964Z" fill="#181818"/>
<path d="M290.678 202.773H290.541C290.35 202.763 290.162 202.714 289.991 202.628C289.819 202.541 289.668 202.42 289.547 202.272C289.425 202.123 289.336 201.951 289.286 201.766C289.235 201.581 289.224 201.388 289.253 201.198L292.474 167.948C288.362 167.538 277.534 165.799 274.985 159.064C274.468 157.982 274.235 156.786 274.307 155.589C274.379 154.392 274.754 153.233 275.396 152.22C276.27 151.136 277.393 150.278 278.669 149.718C279.946 149.158 281.338 148.913 282.729 149.003C285.977 149.003 290.637 151.33 293.488 152.946C293.354 149.172 294.115 145.419 295.709 141.995C298.08 137.108 296.942 128.744 296.928 128.662C296.889 128.407 296.922 128.146 297.024 127.909C297.122 127.673 297.283 127.469 297.49 127.32C297.695 127.166 297.936 127.067 298.189 127.033C298.446 127.007 298.705 127.044 298.943 127.142C300.824 127.954 302.786 128.564 304.796 128.963C306.715 129.278 313.348 127.526 317.131 126.348C317.309 126.29 317.496 126.268 317.683 126.285C317.869 126.301 318.05 126.355 318.214 126.444C324.699 129.806 330.999 133.512 337.088 137.546C339.755 139.313 342.318 141.232 344.763 143.295C345.544 143.963 346.131 144.828 346.463 145.8C346.804 146.767 346.876 147.808 346.668 148.812C346.465 149.83 345.991 150.776 345.297 151.549C344.605 152.309 343.727 152.875 342.748 153.192L330.413 157.121L335.141 199.556C335.182 199.745 335.182 199.941 335.141 200.131C335.089 200.311 335.001 200.479 334.881 200.624C334.758 200.772 334.609 200.897 334.442 200.993C334.274 201.076 334.094 201.132 333.908 201.157C333.722 201.192 333.531 201.192 333.346 201.157C333.159 201.11 332.986 201.021 332.839 200.897C332.688 200.786 332.566 200.641 332.482 200.473C332.39 200.308 332.33 200.127 332.304 199.939L327.452 156.382C327.407 156.057 327.48 155.726 327.658 155.451C327.835 155.172 328.1 154.96 328.411 154.848L341.844 150.605C342.331 150.443 342.766 150.155 343.106 149.77C343.445 149.385 343.676 148.918 343.776 148.415C343.87 147.912 343.832 147.393 343.666 146.909C343.498 146.43 343.204 146.005 342.817 145.677C340.447 143.668 337.962 141.799 335.374 140.078C329.576 136.234 323.588 132.684 317.433 129.442C314.856 130.236 307.249 132.454 304.371 131.974C302.901 131.715 301.457 131.331 300.053 130.825C300.245 133.946 300.259 139.449 298.34 143.432C296.63 147.231 296.036 151.437 296.627 155.56C296.686 155.836 296.659 156.123 296.549 156.383C296.438 156.643 296.25 156.862 296.01 157.011C295.781 157.171 295.508 157.257 295.229 157.258C294.947 157.259 294.671 157.178 294.434 157.025C292.296 155.656 286.046 152.07 282.77 152.07C281.844 151.986 280.911 152.121 280.047 152.463C279.183 152.806 278.411 153.346 277.795 154.041C277.433 154.679 277.236 155.398 277.222 156.132C277.207 156.865 277.376 157.591 277.712 158.243C279.714 163.554 290.254 165.197 294.16 165.389C294.552 165.418 294.92 165.594 295.188 165.882C295.311 166.031 295.404 166.203 295.462 166.388C295.526 166.573 295.549 166.769 295.53 166.963L292.131 201.486C292.088 201.84 291.918 202.166 291.652 202.403C291.381 202.638 291.036 202.769 290.678 202.773Z" fill="#181818"/>
<path d="M283.963 149.893C283.963 149.893 277.425 134.466 281.331 125.349C282.272 122.828 283.97 120.66 286.193 119.14C288.416 117.621 291.055 116.825 293.749 116.862C293.749 116.862 295.668 111.482 300.972 110.155C306.043 108.895 310.155 113.207 310.155 113.207C311.271 112.046 312.629 111.145 314.134 110.567C315.638 109.99 317.251 109.751 318.858 109.867C323.519 110.196 325.15 115.247 325.15 115.247C325.15 115.247 338.527 114.029 337.704 120.298C336.814 127.279 314.87 134.521 304.59 131.796C303.014 131.386 299.327 130.291 299.327 130.291C299.859 132.35 300.003 134.49 299.752 136.601C299.423 140.708 297.696 141.543 297.148 143.719L296.147 146.594C295.843 149.04 295.903 151.517 296.326 153.945L295.202 155.519L283.963 149.893Z" fill="#181818"/>
<path d="M416.131 243.141C415.201 243.085 414.284 243.376 413.557 243.958C412.83 244.54 412.345 245.371 412.197 246.289L409.826 260.279L404.179 247.863V247.768C392.94 227.015 384.84 218.556 368.118 210.041C355.413 203.539 345.174 200.295 334.991 199.433C334.608 199.407 334.23 199.53 333.935 199.775C333.788 199.893 333.667 200.041 333.58 200.208C333.493 200.375 333.441 200.558 333.428 200.747C333.4 200.942 333.415 201.141 333.472 201.329C333.528 201.518 333.625 201.693 333.755 201.841C333.885 201.989 334.046 202.108 334.226 202.188C334.406 202.268 334.601 202.309 334.799 202.307C344.626 203.156 354.508 206.332 366.871 212.628C383.181 220.91 390.638 228.754 401.685 249.109L409.072 265.412L404.111 294.378C404.07 294.567 404.07 294.763 404.111 294.953C404.157 295.139 404.236 295.315 404.344 295.473C404.457 295.629 404.602 295.76 404.769 295.856C404.927 295.955 405.105 296.02 405.289 296.048C405.479 296.088 405.675 296.088 405.865 296.048C406.052 296.005 406.229 295.926 406.386 295.815C406.538 295.702 406.668 295.563 406.77 295.404C406.864 295.237 406.933 295.058 406.975 294.871L411.087 270.108L411.937 265.029L415.076 246.796C415.122 246.579 415.243 246.385 415.418 246.248C415.596 246.114 415.812 246.042 416.035 246.043L419.841 246.274L420.215 243.373L416.131 243.141Z" fill="black"/>
<path d="M460.224 248.329C460.359 248.329 460.492 248.367 460.608 248.438C460.73 248.502 460.838 248.59 460.923 248.698C460.995 248.811 461.046 248.937 461.074 249.068C461.108 249.198 461.108 249.335 461.074 249.465L443.064 319.278C441.561 325.086 438.169 330.231 433.421 333.905C428.672 337.579 422.837 339.575 416.83 339.578C406.071 339.578 397.71 335.348 391.995 327.107L375.451 299.812C375.285 299.529 375.022 299.316 374.711 299.21C374.404 299.108 374.072 299.108 373.765 299.21C373.449 299.313 373.181 299.527 373.012 299.812C372.838 300.085 372.761 300.408 372.792 300.729L378.069 346.573L245.12 348.038L248.135 300.017C248.151 299.829 248.127 299.639 248.066 299.46C248.005 299.281 247.907 299.117 247.779 298.977C247.657 298.834 247.508 298.718 247.34 298.635C247.168 298.552 246.982 298.501 246.792 298.484C246.601 298.473 246.41 298.5 246.229 298.563C246.049 298.626 245.882 298.723 245.74 298.851C245.597 298.978 245.481 299.132 245.398 299.304C245.315 299.476 245.267 299.663 245.257 299.853L242.132 349.42C242.118 349.616 242.146 349.812 242.214 349.995C242.284 350.183 242.391 350.355 242.529 350.502C242.662 350.644 242.823 350.757 243.003 350.833C243.182 350.908 243.376 350.945 243.571 350.94L379.659 349.448C379.862 349.436 380.061 349.39 380.249 349.311C380.431 349.225 380.594 349.104 380.728 348.955C380.858 348.802 380.956 348.626 381.016 348.435C381.079 348.245 381.103 348.045 381.085 347.846L376.37 306.917L389.555 328.613C395.874 337.771 405.043 342.412 416.789 342.412C423.441 342.401 429.9 340.184 435.153 336.108C440.405 332.032 444.152 326.328 445.805 319.894L463.829 250.081C463.945 249.535 463.945 248.971 463.829 248.425C463.717 247.876 463.488 247.357 463.157 246.905C462.83 246.454 462.403 246.084 461.91 245.824C461.424 245.546 460.879 245.387 460.32 245.358L454.841 244.774C454.677 245.828 454.465 246.898 454.341 247.774L460.224 248.329Z" fill="black"/>
<path d="M199.725 244.865L199.725 247.888L206.167 247.412C206.389 247.411 206.606 247.483 206.783 247.617C206.95 247.761 207.069 247.952 207.126 248.164L210.169 266.384L211.019 271.463L215.13 296.226C215.161 296.416 215.231 296.598 215.336 296.76C215.438 296.919 215.568 297.058 215.72 297.17C215.875 297.283 216.053 297.363 216.241 297.403C216.426 297.442 216.617 297.442 216.803 297.403C216.992 297.374 217.173 297.309 217.337 297.211C217.592 297.069 217.795 296.848 217.916 296.582C218.037 296.316 218.069 296.019 218.009 295.733L213.157 266.754L220.544 250.45C231.509 230.095 239.048 222.252 255.358 213.97C267.693 207.673 277.603 204.497 287.43 203.649C287.619 203.636 287.802 203.584 287.97 203.497C288.137 203.41 288.285 203.289 288.403 203.142C288.531 203 288.627 202.833 288.686 202.651C288.745 202.47 288.766 202.278 288.746 202.088C288.736 201.895 288.687 201.706 288.602 201.532C288.518 201.358 288.399 201.203 288.253 201.075C288.108 200.948 287.938 200.85 287.754 200.789C287.571 200.728 287.377 200.704 287.184 200.719C276.973 201.595 266.748 204.826 254.056 211.342C237.321 219.856 229.234 228.316 217.995 249.068V249.164L212.348 261.579L209.977 247.59C209.821 246.672 209.334 245.844 208.606 245.262C207.884 244.681 206.97 244.388 206.043 244.441L199.725 244.865Z" fill="black"/>
<path d="M248.148 300.113C248.184 299.787 248.107 299.459 247.93 299.182C247.753 298.906 247.487 298.698 247.175 298.594C246.87 298.482 246.535 298.482 246.23 298.594C245.919 298.7 245.656 298.913 245.489 299.196L230.207 328.449C224.492 336.662 216.117 340.92 205.372 340.92C199.363 340.923 193.524 338.931 188.775 335.255C184.025 331.58 180.635 326.431 179.138 320.619L161.128 250.806C161.1 250.676 161.1 250.54 161.128 250.409C161.154 250.275 161.211 250.149 161.293 250.04C161.376 249.935 161.478 249.847 161.594 249.78C161.715 249.71 161.852 249.672 161.992 249.67L168.475 249.399C168.352 248.523 168.122 247.43 167.971 246.376L161.855 246.768C161.296 246.8 160.752 246.96 160.265 247.234C159.529 247.641 158.947 248.278 158.608 249.047C158.269 249.815 158.192 250.674 158.387 251.491L176.397 321.304C178.063 327.719 181.809 333.403 187.051 337.467C192.293 341.531 198.736 343.746 205.372 343.767C217.131 343.767 226.301 339.126 232.619 329.968L244.544 306.314L248.148 300.113Z" fill="black"/>
<path fill-rule="evenodd" clip-rule="evenodd" d="M168.931 178.12C170.542 177.365 172.366 177.197 174.088 177.647C175.809 178.096 177.319 179.134 178.354 180.58C178.39 180.629 178.422 180.68 178.451 180.733L194.646 210.285C195.17 208.759 195.882 206.89 196.761 205.058C197.77 202.956 199.055 200.787 200.611 199.257C202.175 197.719 204.269 196.605 206.707 197.326C208.182 197.763 209.289 198.635 210 199.86C210.685 201.041 210.942 202.446 210.96 203.898C210.994 206.776 210.084 210.32 208.851 213.939C207.607 217.591 205.973 221.49 204.451 225.111L204.403 225.227C202.886 228.837 201.5 232.136 200.661 234.747C200.524 235.174 200.442 236.05 200.459 237.309C200.474 238.511 200.574 239.889 200.704 241.209C200.834 242.524 200.99 243.759 201.115 244.666C201.177 245.119 201.231 245.489 201.27 245.745C201.289 245.873 201.304 245.972 201.314 246.039L201.326 246.114L201.33 246.137C201.33 246.137 201.33 246.137 201.33 246.137C201.398 246.562 201.282 246.996 201.011 247.329C200.739 247.663 200.339 247.865 199.91 247.886L168.66 249.397C167.83 249.438 167.124 248.802 167.077 247.973L166.573 239.094C166.223 238.982 165.791 238.842 165.292 238.678C163.889 238.216 161.956 237.56 159.836 236.785C155.643 235.251 150.56 233.193 147.468 231.202C147.436 231.181 147.404 231.159 147.373 231.135C146.388 230.388 145.691 229.325 145.399 228.124C145.113 226.948 145.233 225.711 145.739 224.613C146.143 223.537 146.899 222.629 147.885 222.036C148.893 221.43 150.079 221.191 151.244 221.358C151.28 221.363 151.317 221.37 151.353 221.378C153.435 221.836 156.106 222.508 158.726 223.197C158.147 222.839 157.559 222.474 156.967 222.108C151.483 218.713 145.649 215.09 144.387 214.261C144.355 214.241 144.325 214.219 144.295 214.196C142.941 213.155 142.025 211.645 141.729 209.964C141.432 208.282 141.777 206.55 142.694 205.11L142.695 205.107C143.245 204.248 144.039 203.573 144.976 203.17C145.952 202.727 147.022 202.526 148.093 202.584C149.17 202.643 150.216 202.961 151.143 203.513C151.143 203.513 151.144 203.514 151.145 203.514L161.66 209.738L151.826 200.556C150.297 199.294 149.11 197.802 148.572 196.198C148.008 194.519 148.177 192.739 149.354 191.223L149.356 191.221C150.589 189.639 152.223 188.769 154.024 188.701C155.784 188.635 157.518 189.338 159.024 190.526C159.039 190.538 159.054 190.55 159.069 190.563L174.742 203.947L166.143 187.36C165.683 186.594 165.385 185.742 165.269 184.856C165.15 183.952 165.222 183.032 165.481 182.157C165.74 181.282 166.18 180.471 166.772 179.776C167.364 179.082 168.096 178.519 168.92 178.125L168.931 178.12ZM168.449 227.426L168.034 228.879L167.539 228.739C167.218 228.648 166.754 228.517 166.177 228.356C165.023 228.033 163.421 227.588 161.63 227.102C158.062 226.133 153.772 225.008 150.765 224.344C150.306 224.289 149.841 224.388 149.444 224.627C149.033 224.873 148.721 225.254 148.559 225.705C148.542 225.753 148.522 225.8 148.5 225.846C148.268 226.333 148.21 226.886 148.338 227.411C148.461 227.918 148.751 228.37 149.16 228.695C151.942 230.473 156.693 232.417 160.875 233.946C162.956 234.707 164.857 235.352 166.238 235.807C166.928 236.034 167.487 236.213 167.873 236.335C168.066 236.396 168.216 236.443 168.317 236.475L168.431 236.51L168.459 236.519L168.468 236.522C169.072 236.707 169.498 237.25 169.534 237.881L170.011 246.306L198.101 244.947C197.976 244.028 197.823 242.808 197.695 241.505C197.561 240.144 197.452 238.671 197.435 237.349C197.418 236.084 197.479 234.765 197.782 233.823C198.661 231.085 200.09 227.685 201.573 224.155L201.663 223.941C203.192 220.3 204.784 216.499 205.989 212.964C207.204 209.395 207.964 206.265 207.936 203.934C207.922 202.781 207.715 201.948 207.383 201.376C207.077 200.848 206.614 200.452 205.848 200.225C204.907 199.947 203.908 200.255 202.732 201.412C201.547 202.577 200.444 204.375 199.488 206.366C198.543 208.333 197.795 210.376 197.281 211.937C197.025 212.715 196.829 213.368 196.698 213.824C196.632 214.052 196.583 214.23 196.55 214.35C196.534 214.41 196.522 214.455 196.514 214.485L196.505 214.517L196.503 214.525C196.503 214.525 196.503 214.526 196.503 214.526C196.348 215.126 195.842 215.571 195.226 215.648C194.611 215.725 194.011 215.418 193.713 214.874L175.845 182.271C175.224 181.435 174.334 180.835 173.324 180.571C172.288 180.301 171.19 180.401 170.22 180.854C169.781 181.065 169.39 181.366 169.073 181.737C168.756 182.11 168.52 182.545 168.381 183.014C168.242 183.484 168.203 183.977 168.267 184.462C168.331 184.947 168.496 185.413 168.752 185.831C168.77 185.861 168.788 185.893 168.805 185.925L180.989 209.428C181.322 210.07 181.153 210.858 180.587 211.307C180.02 211.757 179.215 211.742 178.665 211.273L157.128 192.881C156.038 192.028 154.997 191.689 154.139 191.722C153.316 191.753 152.483 192.129 151.742 193.078C151.262 193.697 151.156 194.395 151.439 195.237C151.743 196.142 152.507 197.205 153.782 198.25C153.808 198.271 153.832 198.292 153.856 198.314L173.881 217.013C174.445 217.54 174.521 218.407 174.059 219.024C173.596 219.641 172.742 219.811 172.078 219.418L149.6 206.113L149.596 206.111C149.09 205.809 148.518 205.635 147.929 205.603C147.34 205.571 146.752 205.682 146.216 205.927C146.204 205.932 146.192 205.937 146.18 205.942C145.796 206.106 145.47 206.382 145.245 206.734C144.734 207.537 144.542 208.502 144.707 209.439C144.869 210.36 145.364 211.188 146.097 211.768C147.417 212.629 153.12 216.171 158.559 219.538C161.308 221.239 163.979 222.89 165.963 224.115C166.954 224.728 167.775 225.234 168.347 225.587L169.242 226.139C169.242 226.139 169.243 226.14 168.449 227.426ZM168.449 227.426L169.243 226.14C169.886 226.536 170.137 227.346 169.832 228.036C169.528 228.727 168.76 229.087 168.034 228.879L168.449 227.426Z" fill="black"/>
<path d="M308.341 155.136C309.841 155.274 312.841 155.274 317.129 156.26" stroke="black" stroke-width="3" stroke-linecap="round"/>
<path fill-rule="evenodd" clip-rule="evenodd" d="M419.949 243.371L452.371 244.25L450.755 247.128L422.93 246.359V246.371L422.32 246.342L419.841 246.274L419.949 243.371Z" fill="#181818"/>
<path fill-rule="evenodd" clip-rule="evenodd" d="M466.388 240.798C463.051 239.353 459.959 239.76 457.512 240.732C456.788 241.02 455.575 241.9 454.282 243.135C453.02 244.34 451.869 245.704 451.224 246.782L448.65 245.242C449.48 243.854 450.833 242.281 452.21 240.966C453.556 239.68 455.116 238.457 456.404 237.945C459.405 236.752 463.346 236.212 467.58 238.045L466.388 240.798Z" fill="#181818"/>
<path d="M472.88 113.594C473.41 109.561 477.109 106.721 481.142 107.251C485.176 107.781 488.015 111.481 487.485 115.514L467.248 269.458C466.718 273.491 463.018 276.331 458.985 275.801C454.952 275.271 452.112 271.571 452.642 267.538L472.88 113.594Z" fill="white"/>
<path fill-rule="evenodd" clip-rule="evenodd" d="M464.273 269.067L484.511 115.123C484.825 112.732 483.142 110.54 480.751 110.226C478.361 109.911 476.168 111.594 475.854 113.985L455.617 267.929C455.303 270.32 456.986 272.512 459.376 272.827C461.767 273.141 463.959 271.458 464.273 269.067ZM481.142 107.251C477.109 106.721 473.41 109.561 472.88 113.594L452.642 267.538C452.112 271.571 454.952 275.271 458.985 275.801C463.018 276.331 466.718 273.491 467.248 269.458L487.485 115.514C488.015 111.481 485.176 107.781 481.142 107.251Z" fill="#181818"/>
<path d="M478.328 218.919C484.966 217.668 487.841 210.774 482.841 207.774C479.965 206.048 474.841 206.774 474.841 206.774C462.342 208.774 461.698 209.264 457.995 210.914C452.24 213.478 452.777 217.702 457.048 220.35C460.142 222.268 471.691 220.17 478.328 218.919Z" fill="white"/>
<path fill-rule="evenodd" clip-rule="evenodd" d="M486.145 191.554C483.585 191.56 480.337 192.118 476.723 193.068L475.96 190.167C479.679 189.189 483.209 188.561 486.138 188.554C488.974 188.547 491.709 189.121 493.254 191.077C493.864 191.848 494.231 192.715 494.289 193.652C494.345 194.58 494.091 195.454 493.666 196.24C492.844 197.763 491.285 199.142 489.462 200.374C486.899 202.105 483.475 203.768 479.798 205.275C481.085 205.446 482.461 205.797 483.613 206.488C485.148 207.409 486.165 208.69 486.614 210.17C487.059 211.635 486.909 213.174 486.337 214.571C485.198 217.351 482.364 219.685 478.606 220.393C475.291 221.018 470.69 221.866 466.52 222.315C464.437 222.538 462.417 222.668 460.696 222.611C459.053 222.557 457.396 222.33 456.258 221.625C453.912 220.171 452.188 218.034 452.263 215.556C452.339 213.01 454.273 210.93 457.385 209.544C457.578 209.458 457.764 209.374 457.945 209.293C459.482 208.603 460.658 208.075 462.735 207.525C464.955 206.938 468.214 206.319 474.199 205.358L473.836 204.342C479.231 202.412 484.416 200.163 487.782 197.888C489.486 196.737 490.554 195.69 491.026 194.815C491.249 194.402 491.309 194.084 491.294 193.835C491.28 193.596 491.189 193.302 490.9 192.937C490.264 192.131 488.797 191.547 486.145 191.554ZM475.061 208.258C468.817 209.257 465.605 209.869 463.503 210.425C461.67 210.91 460.694 211.348 459.171 212.031C458.991 212.112 458.803 212.196 458.606 212.284C455.962 213.462 455.287 214.776 455.261 215.646C455.233 216.582 455.913 217.882 457.839 219.075C458.248 219.329 459.195 219.56 460.795 219.613C462.316 219.663 464.179 219.549 466.199 219.332C470.236 218.898 474.728 218.071 478.05 217.445C480.93 216.903 482.852 215.164 483.561 213.434C483.912 212.576 483.958 211.75 483.743 211.04C483.532 210.345 483.034 209.639 482.069 209.06C480.983 208.408 479.316 208.16 477.731 208.126C476.972 208.111 476.293 208.145 475.803 208.183C475.56 208.202 475.366 208.222 475.235 208.237C475.17 208.244 475.121 208.25 475.09 208.254L475.061 208.258ZM450.881 186.857C450.642 185.821 450.116 185.171 449.057 184.85C448.528 184.69 447.885 184.75 447.048 185.215C446.189 185.692 445.227 186.545 444.199 187.779C442.147 190.243 440.075 193.924 438.216 198.079C436.366 202.217 434.764 206.74 433.627 210.83C432.482 214.952 431.841 218.516 431.841 220.774C431.841 223.753 431.685 229.986 430.264 234.248C428.969 238.132 427.41 240.998 426.158 242.908C426.041 243.087 425.926 243.258 425.815 243.42C425.942 243.427 426.072 243.433 426.207 243.44C428.257 243.541 431.117 243.682 434.357 243.838C440.837 244.151 448.833 244.525 454.903 244.775L454.779 247.773C448.698 247.522 440.694 247.147 434.212 246.835C430.971 246.678 428.109 246.538 426.058 246.436C425.033 246.385 424.209 246.344 423.643 246.316L422.766 246.272C422.766 246.272 422.766 246.272 422.841 244.774L422.766 246.272L419.392 246.102L421.777 243.717L421.778 243.716L421.779 243.715L421.78 243.713L421.796 243.696C421.815 243.677 421.845 243.645 421.888 243.598C421.972 243.506 422.102 243.358 422.27 243.156C422.604 242.75 423.087 242.122 423.649 241.264C424.772 239.55 426.212 236.916 427.418 233.3C428.664 229.562 428.841 223.795 428.841 220.774C428.841 218.101 429.571 214.221 430.737 210.026C431.912 205.799 433.563 201.134 435.478 196.854C437.384 192.593 439.588 188.628 441.894 185.859C443.045 184.477 444.283 183.319 445.591 182.592C446.92 181.854 448.41 181.519 449.927 181.979C452.142 182.65 453.354 184.235 453.804 186.181C454.226 188.007 453.986 190.139 453.507 192.199C452.908 194.78 451.853 197.557 450.855 199.98C454.325 198.229 458.472 196.342 462.785 194.618L463.898 197.404C457.992 199.765 452.425 202.428 448.573 204.583L444.798 206.694L446.455 202.699C446.668 202.187 446.9 201.639 447.144 201.065C448.355 198.212 449.847 194.699 450.585 191.521C451.029 189.607 451.148 188.012 450.881 186.857Z" fill="#181818"/>
<path d="M457.093 226.315C456.889 222.913 462.59 221.996 464.383 221.754C467.9 221.281 469.814 221.035 474.627 220.734C484.563 220.113 485.17 230.53 473.033 230.731C465.513 230.855 457.412 231.643 457.093 226.315Z" fill="white"/>
<path fill-rule="evenodd" clip-rule="evenodd" d="M483.606 225.497C483.422 229.286 479.372 232.126 473.058 232.231C472.355 232.242 471.634 232.261 470.906 232.279C467.865 232.356 464.695 232.437 462.139 232.051C460.541 231.809 458.984 231.364 457.776 230.481C456.494 229.545 455.702 228.184 455.596 226.405C455.431 223.655 457.704 222.185 459.406 221.467C461.227 220.7 463.27 220.39 464.183 220.268C467.723 219.791 469.675 219.541 474.533 219.237C477.266 219.066 479.53 219.643 481.141 220.78C482.766 221.927 483.695 223.64 483.606 225.497ZM479.411 223.231C478.493 222.584 476.956 222.091 474.72 222.231C469.954 222.529 468.077 222.771 464.583 223.241C463.702 223.359 461.999 223.63 460.572 224.232C459.027 224.883 458.551 225.573 458.591 226.226C458.644 227.11 458.985 227.649 459.546 228.059C460.182 228.524 461.18 228.872 462.587 229.084C464.855 229.427 467.67 229.357 470.687 229.282C471.45 229.263 472.225 229.244 473.009 229.231C478.831 229.135 480.546 226.666 480.609 225.352C480.643 224.657 480.316 223.87 479.411 223.231Z" fill="#181818"/>
<path d="M457.799 233.621C458.773 231.042 463.377 231.357 464.809 231.492C467.619 231.756 469.145 231.908 472.875 232.528C480.576 233.81 477.583 241.705 468.361 239.723C462.647 238.495 456.275 237.66 457.799 233.621Z" fill="white"/>
<path fill-rule="evenodd" clip-rule="evenodd" d="M478.303 238.019C476.924 240.791 472.975 242.252 468.045 241.193C467.522 241.08 466.98 240.969 466.429 240.856C464.108 240.379 461.64 239.872 459.798 239.118C458.655 238.65 457.503 237.994 456.783 236.98C455.981 235.849 455.868 234.5 456.399 233.091C457.197 230.976 459.371 230.293 460.904 230.053C462.549 229.796 464.213 229.926 464.951 229.995L464.809 231.492L464.951 229.995C467.784 230.261 469.347 230.417 473.122 231.045C475.278 231.404 476.951 232.268 477.917 233.574C478.924 234.934 479.015 236.587 478.303 238.019ZM475.514 235.37C475.163 234.897 474.322 234.293 472.628 234.011C468.944 233.398 467.455 233.25 464.668 232.988C463.973 232.923 462.618 232.827 461.36 233.024C459.99 233.238 459.374 233.687 459.199 234.152C458.968 234.762 459.081 235.032 459.222 235.232C459.447 235.549 459.96 235.936 460.933 236.334C462.49 236.972 464.587 237.404 466.883 237.878C467.47 237.999 468.069 238.123 468.677 238.253C472.969 239.175 475.128 237.68 475.625 236.679C475.851 236.225 475.823 235.788 475.514 235.37Z" fill="#181818"/>
<path d="M366.461 25.2175C367.901 14.2661 377.946 6.55523 388.897 7.99489L595.123 35.1049C606.075 36.5446 613.786 46.5896 612.346 57.5411L600.616 146.773C599.176 157.725 589.131 165.436 578.18 163.996L371.954 136.886C361.002 135.446 353.291 125.401 354.731 114.45L366.461 25.2175Z" fill="white"/>
<path fill-rule="evenodd" clip-rule="evenodd" d="M594.732 38.0794L388.506 10.9693C379.198 9.74559 370.659 16.2998 369.436 25.6086L357.705 114.841C356.482 124.15 363.036 132.688 372.345 133.912L578.571 161.022C587.879 162.245 596.418 155.691 597.641 146.382L609.372 57.1501C610.595 47.8413 604.041 39.3031 594.732 38.0794ZM388.897 7.99489C377.946 6.55523 367.901 14.2661 366.461 25.2175L354.731 114.45C353.291 125.401 361.002 135.446 371.954 136.886L578.18 163.996C589.131 165.436 599.176 157.725 600.616 146.773L612.346 57.5411C613.786 46.5896 606.075 36.5446 595.123 35.1049L388.897 7.99489Z" fill="#181818"/>
<path fill-rule="evenodd" clip-rule="evenodd" d="M413.861 119.953C412.218 119.737 411.061 118.231 411.277 116.588L412.859 104.522L385.651 100.955C384.008 100.74 382.851 99.2331 383.066 97.5903L385.125 81.8911C385.211 81.2285 385.517 80.6138 385.993 80.1446L427.79 38.946C428.448 38.297 429.369 37.9878 430.286 38.108L442.249 39.6766C443.892 39.892 445.049 41.3983 444.834 43.0411L439.221 85.8468L445.905 86.7231C447.548 86.9385 448.705 88.4449 448.49 90.0877L446.417 105.897C446.201 107.539 444.695 108.697 443.052 108.481L436.368 107.605L434.786 119.671C434.571 121.314 433.065 122.471 431.422 122.255L413.861 119.953ZM433.784 104.24L443.442 105.507L445.515 89.6977L435.857 88.4313L441.859 42.6511L429.896 41.0825L388.099 82.2812L386.041 97.9804L416.223 101.938L414.251 116.978L431.812 119.281L433.784 104.24ZM510.436 101.557L510.426 101.571C507.014 106.624 502.707 110.461 497.507 112.998C492.255 115.56 486.568 116.42 480.534 115.629C474.564 114.846 469.303 112.546 464.83 108.726L464.812 108.711C460.442 104.92 457.27 100.102 455.276 94.3404L455.27 94.3239C453.277 88.4535 452.769 82.0745 453.665 75.2438C454.56 68.4175 456.689 62.4168 460.125 57.3252C463.542 52.2042 467.851 48.3256 473.057 45.7849C478.376 43.1657 484.067 42.2561 490.051 43.0407C496.095 43.8332 501.368 46.1737 505.772 50.0804C510.142 53.876 513.303 58.7318 515.283 64.5562C517.29 70.3618 517.801 76.709 516.906 83.5358C516.01 90.3664 513.875 96.3989 510.436 101.557ZM503.792 52.335C507.735 55.7554 510.619 60.1538 512.445 65.5301C514.28 70.8332 514.776 76.7051 513.931 83.1457C513.087 89.5864 511.089 95.1687 507.94 99.8927C504.799 104.543 500.883 108.013 496.192 110.301C491.501 112.59 486.411 113.374 480.924 112.655C475.509 111.945 470.794 109.875 466.778 106.445C462.835 103.024 459.946 98.6624 458.111 93.3593C456.285 87.983 455.795 82.0745 456.639 75.6338C457.484 69.1931 459.476 63.6474 462.617 58.9967C465.766 54.2728 469.687 50.7667 474.378 48.4783C479.152 46.1263 484.247 45.3053 489.661 46.0153C495.149 46.7348 499.859 48.8414 503.792 52.335ZM490.579 67.0384C490.575 67.0328 490.57 67.0272 490.565 67.0215C489.616 65.9004 488.517 65.3066 487.155 65.1281C485.69 64.9361 484.381 65.2366 483.098 66.0869C481.733 66.9919 480.469 68.4006 479.368 70.4741C478.343 72.5507 477.591 75.1475 477.175 78.3263C476.758 81.5052 476.815 84.2081 477.27 86.4787C477.794 88.748 478.644 90.4266 479.717 91.6504C480.734 92.7311 481.935 93.3456 483.43 93.5417C484.834 93.7257 486.066 93.4438 487.256 92.6617C488.627 91.7517 489.897 90.3333 491.001 88.2431C492.085 86.1911 492.87 83.613 493.286 80.4388C493.702 77.2647 493.608 74.5713 493.09 72.3093C492.562 70.0032 491.7 68.3045 490.608 67.0716C490.599 67.0606 490.589 67.0496 490.579 67.0384ZM488.911 95.1642C490.785 93.9211 492.366 92.081 493.654 89.6441C494.941 87.2072 495.81 84.2688 496.261 80.8289C496.712 77.3889 496.63 74.3258 496.014 71.6394C495.399 68.9531 494.346 66.7677 492.855 65.0832C491.437 63.4084 489.667 62.4318 487.545 62.1536C485.35 61.8658 483.315 62.3435 481.44 63.5866C479.565 64.8297 477.984 66.6698 476.697 69.1067C475.484 71.5532 474.651 74.4964 474.2 77.9363C473.749 81.3763 473.795 84.4346 474.337 87.1114C474.952 89.7977 476.005 91.9831 477.496 93.6676C478.997 95.2788 480.845 96.2284 483.04 96.5162C485.162 96.7944 487.119 96.3437 488.911 95.1642ZM544.73 137.112C543.088 136.897 541.931 135.39 542.146 133.747L543.728 121.681L516.52 118.114C514.877 117.899 513.72 116.392 513.936 114.749L515.994 99.0503C516.081 98.3876 516.387 97.7729 516.863 97.3037L558.659 56.1051C559.318 55.4561 560.239 55.1469 561.155 55.2671L573.119 56.8357C574.761 57.0511 575.919 58.5575 575.703 60.2003L570.091 103.006L576.774 103.882C578.417 104.098 579.574 105.604 579.359 107.247L577.286 123.056C577.071 124.699 575.564 125.856 573.922 125.64L567.238 124.764L565.656 136.83C565.44 138.473 563.934 139.63 562.291 139.414L544.73 137.112ZM564.653 121.399L574.312 122.666L576.384 106.857L566.726 105.59L572.729 59.8103L560.765 58.2417L518.968 99.4403L516.91 115.14L547.093 119.097L545.12 134.137L562.681 136.44L564.653 121.399ZM420.381 86.4022L405.455 84.4451L422.929 66.9703L420.381 86.4022ZM418.807 75.3356L411.88 82.2619L417.797 83.0377L418.807 75.3356ZM551.251 103.561L536.324 101.604L553.799 84.1295L551.251 103.561ZM549.676 92.4947L542.75 99.4211L548.666 100.197L549.676 92.4947Z" fill="black"/>
</g>
<defs>
<clipPath id="clip0">
<rect width="617.317" height="518.548" fill="white" transform="translate(0.341339 0.226135)"/>
</clipPath>
</defs>
</svg>
