<svg width="24" height="24" viewBox="0 0 24 24" fill="none" xmlns="http://www.w3.org/2000/svg">
    <g clip-path="url(#clip0)">
        <path d="M0 15.5156V20.7795C0 21.0318 0.135187 21.2647 0.354328 21.3899L4.96875 24V18.3281L0 15.5156Z" fill="white"/>
        <path d="M6.375 18.3281V24L11.2969 21.1875V15.5156L6.375 18.3281Z" fill="white"/>
        <path d="M12.7031 15.5156V21.1875L17.625 24V18.3281L12.7031 15.5156Z" fill="white"/>
        <path d="M19.0312 18.3281V24L23.6457 21.3899C23.8648 21.2647 24 21.0318 24 20.7795V15.5156L19.0312 18.3281Z" fill="white"/>
        <path d="M18.3281 11.2969L12.9022 14.0098L18.3281 17.1106L23.801 14.0098L18.3281 11.2969Z" fill="white"/>
        <path d="M12.3145 0.0741843C12.1165 -0.0247688 11.8835 -0.0247688 11.6855 0.0741843L6.57404 2.71292L12 5.8137L17.426 2.71287L12.3145 0.0741843Z" fill="white"/>
        <path d="M6.375 4.21875V10.076L11.2969 12.537V7.03125L6.375 4.21875Z" fill="white"/>
        <path d="M5.67191 11.2969L0.199066 14.0098L5.67191 17.1106L11.0979 14.0098L5.67191 11.2969Z" fill="white"/>
        <path d="M12.7031 7.03125V12.537L17.625 10.076V4.21875L12.7031 7.03125Z" fill="white"/>
    </g>
    <defs>
        <clipPath id="clip0">
            <rect width="24" height="24" fill="white"/>
        </clipPath>
    </defs>
</svg>
