<svg className="c-c__b-billing__title-icon" width="14" height="12" viewBox="0 0 14 12" fill="none"
  xmlns="http://www.w3.org/2000/svg">
  <path fillRule="evenodd" clipRule="evenodd"
    d="M1 0C0.447715 0 0 0.447715 0 1V3.5C0 3.77614 0.227334 3.99359 0.494941 4.06171C1.36012 4.28197 2 5.06626 2 6C2 6.93374 1.36012 7.71803 0.49494 7.93829C0.227334 8.00641 0 8.22386 0 8.5V11C0 11.5523 0.447716 12 1 12H13C13.5523 12 14 11.5523 14 11V8.5C14 8.22386 13.7727 8.00641 13.5051 7.93829C12.6399 7.71803 12 6.93374 12 6C12 5.06626 12.6399 4.28197 13.5051 4.06171C13.7727 3.99359 14 3.77614 14 3.5V1C14 0.447715 13.5523 0 13 0H1ZM7 8C8.10457 8 9 7.10457 9 6C9 4.89543 8.10457 4 7 4C5.89543 4 5 4.89543 5 6C5 7.10457 5.89543 8 7 8Z"
    fill="#97ADC6" />
</svg>