<svg xmlns="http://www.w3.org/2000/svg" width="62" height="62" viewBox="0 0 62 62">
  <g fill="none" fill-rule="evenodd" stroke="#4E4E4E" stroke-width="2" transform="translate(1 1)">
    <path d="M14.0888285,21.4974041 C8.19501006,20.1569814 3.90002384,16.0132444 3.90002384,11.1101998 C3.90002384,5.12146796 10.3063748,0.267410961 18.2086841,0.267410961 C26.1109933,0.267410961 32.5173443,5.12146796 32.5173443,11.1101998 C32.5173443,16.1259158 28.0245708,20.3455836 21.9219428,21.5849694"/>
    <path d="M32.5171606,10.9299255 C32.5147113,15.9156366 28.0697006,20.1089736 22.0209589,21.3740779 C21.0216123,23.6066869 21.1465306,25.9440069 21.1465306,25.9440069 L21.1465306,35.5425112 C27.6398345,34.6962507 32.5171606,31.1011746 32.5171606,26.7933291 L32.5171606,10.9299255 L32.5171606,10.9299255 Z M13.9882202,21.2852879 C8.1489005,19.9197591 3.90228952,15.8029652 3.90045248,10.9299255 L3.89984014,10.9299255 L3.89984014,26.7933291 C3.89984014,31.0038118 8.56100853,34.5321423 14.8344807,35.480052 C14.8577498,30.5378174 14.8283573,25.8686885 14.6605748,24.2814909 C14.5509651,23.2454035 14.3158247,22.217889 13.9882202,21.2852879 Z"/>
    <path d="M25.0114671,18.1593903 C20.8224165,20.2480983 21.1426728,25.9710726 21.1426728,25.9710726 L21.1426728,50.8586011 C21.1426728,50.8586011 25.3158024,50.890443 25.9263102,52.7599316 C26.901163,55.7438876 25.6789229,57.2000435 24.1376511,58.3102246 C22.4984041,59.490213 14.8600155,60.0333628 14.8373587,57.7119637 C14.816539,55.515483 14.1845992,54.6465658 12.9115344,54.8633359 C11.1957444,55.1554243 12.4461524,58.135094 9.30543607,57.6678749 C6.16471974,57.2000435 5.93141638,54.1040284 7.44390797,52.6429737 C8.95639955,51.1825315 14.656717,50.1893082 14.656717,50.1893082 C14.656717,50.1893082 15.0639263,28.1644915 14.656717,24.3085565 C14.3462582,21.371751 13.0407392,18.482096 11.4112897,17.7264626 C9.22705594,16.4938126 7.85479131,14.7100522 7.85479131,12.7260552 C7.85479131,9.00606071 12.6819051,5.98965037 18.6357333,5.98965037 C24.5901739,5.98965037 29.4166754,9.00606071 29.4166754,12.7260552 C29.4166754,14.9568272 27.682515,16.9334761 25.0114671,18.1593903 Z"/>
    <polygon points="3.9 24.997 .497 24.997 .497 21.585 .497 18.556 3.9 18.556"/>
    <path d="M0.497346422,2.08117617 L0.497346422,20.703193"/>
    <polygon points="32.608 24.997 36.011 24.997 36.011 21.585 36.011 18.556 32.608 18.556"/>
    <path d="M36.0106488 2.08117617L36.0106488 20.703193M30.5978884 56.497929L30.5978884 59.2975693 49.0362018 59.2975693 49.0362018 56.764299C47.4385943 56.1121518 46.3541317 54.3835025 46.3541317 52.2366217 46.3541317 50.1105607 47.4630881 48.1841241 49.0362018 47.5160559 49.0362018 47.5160559 51.9999505 47.5534089 53.1082945 47.5044214 56.5741659 47.3513352 59.7387637 45.7022907 59.7387637 42.2174366L50.4243874 42.2174366 49.8218401 40.8151671 29.2599151 40.8151671C27.9433738 40.8151671 26.8754446 41.8873828 26.8754446 43.2100475L26.8754446 44.7292749C26.8754446 46.0519396 27.9433738 47.1247676 29.2599151 47.1247676L30.5978884 47.1247676C32.270202 47.5050337 33.7612615 49.4902554 33.7612615 51.7957335 33.7612615 54.1716312 32.344908 56.2027788 30.5978884 56.497929zM58.2111472 35.8557868L43.9110598 28.9307798 45.9783357 23.7791232 42.3097782 22.0020987 36.425145 32.5919892C36.0761084 33.2202549 36.3259451 34.0138537 36.9707441 34.3261496L39.7722215 35.6824932C40.4194699 35.9960137 41.1965354 35.6941278 41.4653548 35.0242226L42.6251358 32.1345676 56.7207 38.9609871 58.2111472 35.8557868z"/>
  </g>
</svg>
