<svg width="128" height="128" viewBox="0 0 128 128" fill="none" xmlns="http://www.w3.org/2000/svg">
<path d="M81.2659 7.65228C76.7361 7.65148 72.2928 8.8924 68.4188 11.2401C64.5449 13.5879 61.3887 16.9526 59.2932 20.9686C57.1977 24.9846 56.2432 29.4982 56.5333 34.0187C56.8235 38.5392 58.3473 42.8937 60.939 46.6088L89.4607 35.8123L70.6781 54.8731C72.0652 55.5268 73.5088 56.053 74.9912 56.4453L92.4799 38.7618L85.6903 56.8488C91.7627 55.7209 97.196 52.3683 100.928 47.4467C104.659 42.5251 106.421 36.3885 105.867 30.237C105.314 24.0856 102.486 18.3617 97.9362 14.1849C93.3865 10.008 87.4422 7.67865 81.2659 7.65228Z" fill="#EDF3FF"/>
<path d="M102.831 116.703C102.742 116.595 102.663 116.478 102.595 116.355C102.108 114.964 101.635 113.642 101.204 112.292C101.065 111.903 100.925 111.485 100.8 111.082C100.758 110.905 100.676 110.74 100.56 110.6C100.445 110.46 100.298 110.349 100.132 110.275C99.5202 110.052 98.908 109.83 98.2958 109.579L96.195 108.772C95.7637 108.605 95.3463 108.48 94.915 108.299C94.7877 108.222 94.6747 108.123 94.5811 108.007C94.6924 107.924 94.7897 107.771 94.915 107.729C95.6245 107.451 96.3063 107.2 97.0576 106.936L99.0332 106.198L100.132 105.809C100.279 105.754 100.412 105.667 100.52 105.553C100.628 105.44 100.71 105.304 100.758 105.155L101.426 103.304C101.802 102.317 102.164 101.315 102.525 100.327C102.525 100.132 102.623 99.9375 102.706 99.7567C102.79 99.5758 102.873 99.5341 102.971 99.5341C103.068 99.5341 103.179 99.6593 103.207 99.7706L104.598 103.819C104.738 104.237 104.877 104.654 105.03 105.071C105.067 105.247 105.149 105.411 105.269 105.545C105.388 105.679 105.541 105.78 105.711 105.837L108.494 106.88C109.148 107.131 109.802 107.409 110.484 107.659C110.651 107.729 110.845 107.757 110.998 107.826C111.151 107.896 111.221 107.993 111.221 108.077C111.207 108.133 111.182 108.186 111.146 108.232C111.11 108.277 111.064 108.315 111.012 108.341C109.371 108.967 107.757 109.551 106.143 110.15H105.92C105.674 110.201 105.448 110.323 105.27 110.501C105.092 110.679 104.97 110.905 104.918 111.151C104.71 111.875 104.418 112.543 104.167 113.252C103.917 113.962 103.68 114.56 103.444 115.228C103.318 115.59 103.207 115.979 103.054 116.355C103.054 116.494 102.957 116.578 102.831 116.703Z" fill="#0084FF"/>
<path d="M99.2974 28.9948C99.0122 28.7131 98.6524 28.5189 98.2604 28.4351C97.8685 28.3513 97.4607 28.3814 97.0852 28.5218L29.0087 54.2609C28.5969 54.4187 28.2456 54.7029 28.0054 55.0727C27.7651 55.4425 27.6482 55.879 27.6713 56.3194C27.6945 56.7598 27.8566 57.1815 28.1344 57.5241C28.4122 57.8667 28.7913 58.1124 29.2174 58.2261L48.2365 63.7079V78.3861C48.2365 78.9396 48.4564 79.4704 48.8478 79.8618C49.2392 80.2532 49.77 80.4731 50.3235 80.4731H64.9322L70.3165 98.9913C70.4349 99.4136 70.6849 99.7871 71.0302 100.057C71.3756 100.328 71.7982 100.481 72.2365 100.494H72.3478C72.7765 100.492 73.194 100.357 73.5429 100.108C73.8917 99.8587 74.1547 99.5075 74.2957 99.1027L99.7705 31.207C99.9109 30.8315 99.9409 30.4238 99.8571 30.0318C99.7733 29.6398 99.5791 29.28 99.2974 28.9948ZM36.3548 55.9583L89.4609 35.8679L62.2331 63.4157L36.3548 55.9583ZM52.3548 76.2992V64.9183L61.2174 67.4505L63.7774 76.2992H52.3548ZM72.5704 91.8261L65.1965 66.3653L92.48 38.7618L72.5704 91.8261Z" fill="#181818"/>
<path d="M27.2695 95.2207C26.7098 95.2326 26.1595 95.0753 25.6906 94.7696C25.2216 94.4638 24.8558 94.0237 24.6409 93.5068C24.426 92.9898 24.372 92.4201 24.486 91.872C24.6001 91.3239 24.8767 90.8229 25.2799 90.4346L37.3008 78.1772C37.8193 77.6495 38.5261 77.3494 39.2658 77.3429C40.0055 77.3364 40.7175 77.624 41.2452 78.1424C41.7728 78.6608 42.0729 79.3677 42.0795 80.1074C42.086 80.8471 41.7984 81.5591 41.2799 82.0867L29.2173 94.3859C28.7036 94.9101 28.0035 95.2102 27.2695 95.2207Z" fill="#0084FF"/>
<path d="M28.3269 105.085C27.6258 105.087 26.9501 104.823 26.4348 104.348C26.176 104.089 25.9708 103.783 25.8308 103.445C25.6907 103.107 25.6187 102.745 25.6187 102.379C25.6187 102.013 25.6907 101.651 25.8308 101.314C25.9708 100.976 26.176 100.669 26.4348 100.41L38.4417 88.1531C38.9648 87.6656 39.6555 87.3982 40.3705 87.4064C41.0855 87.4145 41.77 87.6977 42.2818 88.197C42.7936 88.6963 43.0936 89.3735 43.1195 90.088C43.1454 90.8026 42.8952 91.4998 42.4208 92.0348L30.4 104.306C30.1262 104.571 29.8009 104.777 29.4443 104.911C29.0877 105.045 28.7074 105.104 28.3269 105.085Z" fill="#0084FF"/>
<path d="M38.3582 106.184C37.8101 106.185 37.2739 106.023 36.8172 105.72C36.3604 105.417 36.0034 104.986 35.7909 104.481C35.5783 103.975 35.5198 103.418 35.6226 102.88C35.7254 102.341 35.9849 101.845 36.3687 101.454L48.3895 89.1965C48.6403 88.9153 48.9455 88.6879 49.2867 88.5281C49.6279 88.3684 49.998 88.2796 50.3746 88.2671C50.7511 88.2547 51.1263 88.3188 51.4773 88.4557C51.8283 88.5925 52.1479 88.7993 52.4167 89.0633C52.6854 89.3273 52.8978 89.6432 53.0408 89.9918C53.1838 90.3403 53.2546 90.7143 53.2488 91.091C53.243 91.4677 53.1608 91.8393 53.0071 92.1833C52.8534 92.5273 52.6315 92.8365 52.3547 93.0922L40.3478 105.35C40.0884 105.614 39.7789 105.824 39.4372 105.968C39.0956 106.111 38.7287 106.185 38.3582 106.184Z" fill="#0084FF"/>
</svg>
