<svg width="128" height="128" viewBox="0 0 128 128" fill="none" xmlns="http://www.w3.org/2000/svg">
<path d="M38.9563 50.087C38.9544 47.3313 39.4959 44.6022 40.5496 42.0558C41.6034 39.5095 43.1487 37.1958 45.0974 35.2472C47.046 33.2986 49.3596 31.7532 51.906 30.6995C54.4523 29.6458 57.1814 29.1043 59.9372 29.1061H66.6293C65.8895 25.3 64.2677 21.7203 61.8942 18.6542C59.5207 15.5882 56.4615 13.1212 52.9622 11.4513C49.4628 9.78135 45.6207 8.95495 41.7442 9.0384C37.8677 9.12185 34.0648 10.1128 30.6405 11.9318C27.2163 13.7508 24.2661 16.3471 22.0268 19.5125C19.7874 22.6778 18.3212 26.324 17.7458 30.1585C17.1705 33.993 17.502 37.9089 18.7137 41.5921C19.9254 45.2753 21.9837 48.6231 24.7232 51.367C29.2171 55.8609 26.1145 51.0192 33.0711 51.0192C34.1145 50.9635 38.9563 54.094 38.9563 50.087Z" fill="#EDF3FF"/>
<path d="M98.5599 49.3497H91.019C90.81 43.3799 88.2934 37.7239 83.9988 33.572C79.7042 29.42 73.9664 27.096 67.9929 27.0888H59.9373C53.9648 27.0994 48.229 29.4246 43.9351 33.5758C39.6412 37.727 37.1236 43.381 36.9112 49.3497H29.3703C24.7529 49.3571 20.3273 51.1974 17.0662 54.4664C13.8051 57.7353 11.9753 62.1653 11.979 66.7827V68.0349C11.979 68.5884 12.1989 69.1192 12.5903 69.5106C12.9816 69.902 13.5125 70.1219 14.066 70.1219H33.0155L37.2729 76.8836C37.838 77.8973 38.6545 78.7484 39.6438 79.3551C40.6331 79.9619 41.7619 80.3038 42.9216 80.3479H47.7494L49.1407 84.5219C50.2538 87.9445 52.1181 88.4453 53.1338 88.4453H74.8381C75.8538 88.4453 77.7181 87.9445 78.8173 84.5219L80.2086 80.3479H85.106C86.2657 80.3038 87.3945 79.9619 88.3838 79.3551C89.3731 78.7484 90.1896 77.8973 90.7547 76.8836L95.012 70.1219H113.878C114.432 70.1219 114.962 69.902 115.354 69.5106C115.745 69.1192 115.965 68.5884 115.965 68.0349V66.7827C115.967 64.4952 115.518 62.2297 114.644 60.1157C113.771 58.0016 112.489 56.0803 110.873 54.4615C109.257 52.8426 107.338 51.558 105.225 50.681C103.112 49.8039 100.847 49.3515 98.5599 49.3497ZM59.9373 31.2627H67.9929C72.8599 31.269 77.5368 33.1533 81.0489 36.5228C84.5609 39.8923 86.6372 44.4871 86.8451 49.3497H41.0851C41.2755 44.4748 43.3441 39.8625 46.858 36.4783C50.3719 33.0941 55.0587 31.2002 59.9373 31.1932V31.2627ZM74.852 83.2279C74.7452 83.5943 74.5909 83.9451 74.3929 84.2714H53.5234C53.3254 83.9451 53.171 83.5943 53.0642 83.2279L52.1181 80.3201H75.7703L74.852 83.2279ZM87.1929 74.6297C86.9907 75.0357 86.6923 75.3861 86.3237 75.6504C85.9551 75.9147 85.5275 76.0849 85.0781 76.1462H42.9216C42.4722 76.0849 42.0446 75.9147 41.676 75.6504C41.3074 75.3861 41.009 75.0357 40.8068 74.6297L38.0242 70.094H90.0451L87.1929 74.6297ZM16.1668 65.9201C16.3856 62.5648 17.871 59.4179 20.3223 57.1163C22.7736 54.8148 26.0079 53.5306 29.3703 53.5236H98.5599C101.922 53.5306 105.157 54.8148 107.608 57.1163C110.059 59.4179 111.545 62.5648 111.763 65.9201H16.1668Z" fill="#181818"/>
<path d="M68.5213 97.1826C67.9307 97.7745 67.2291 98.2441 66.4568 98.5645C65.6845 98.8849 64.8565 99.0498 64.0204 99.0498C63.1843 99.0498 62.3563 98.8849 61.584 98.5645C60.8117 98.2441 60.1101 97.7745 59.5195 97.1826" fill="white"/>
<path d="M63.9999 101.83C62.7988 101.832 61.609 101.597 60.4988 101.139C59.3886 100.681 58.3799 100.008 57.5303 99.1585C57.2718 98.8999 57.0667 98.593 56.9268 98.2552C56.7869 97.9174 56.7148 97.5554 56.7148 97.1898C56.7148 96.8242 56.7869 96.4621 56.9268 96.1243C57.0667 95.7866 57.2718 95.4796 57.5303 95.2211C57.7888 94.9626 58.0958 94.7575 58.4335 94.6176C58.7713 94.4776 59.1334 94.4056 59.499 94.4056C59.8646 94.4056 60.2267 94.4776 60.5644 94.6176C60.9022 94.7575 61.2092 94.9626 61.4677 95.2211C62.1506 95.871 63.0572 96.2334 63.9999 96.2334C64.9426 96.2334 65.8492 95.871 66.532 95.2211C66.7906 94.9626 67.0975 94.7575 67.4353 94.6176C67.7731 94.4776 68.1351 94.4056 68.5007 94.4056C68.8664 94.4056 69.2284 94.4776 69.5662 94.6176C69.904 94.7575 70.2109 94.9626 70.4694 95.2211C70.728 95.4796 70.9331 95.7866 71.073 96.1243C71.2129 96.4621 71.2849 96.8242 71.2849 97.1898C71.2849 97.5554 71.2129 97.9174 71.073 98.2552C70.9331 98.593 70.728 98.8999 70.4694 99.1585C69.6213 100.009 68.6127 100.684 67.5022 101.142C66.3917 101.601 65.2013 101.834 63.9999 101.83Z" fill="#0084FF"/>
<path d="M63.9996 109.482C61.7013 109.484 59.4253 109.031 57.3026 108.15C55.1799 107.269 53.2524 105.977 51.6309 104.348C51.1088 103.826 50.8154 103.118 50.8154 102.379C50.8154 101.641 51.1088 100.933 51.6309 100.411C52.153 99.8885 52.8612 99.5952 53.5996 99.5952C54.338 99.5952 55.0462 99.8885 55.5683 100.411C57.79 102.637 60.8039 103.892 63.9492 103.9C67.0945 103.907 70.1146 102.668 72.3474 100.452C72.8765 99.9925 73.5596 99.7492 74.2602 99.7711C74.9609 99.7931 75.6274 100.079 76.1266 100.571C76.6258 101.063 76.9208 101.725 76.9527 102.426C76.9846 103.126 76.7511 103.813 76.2987 104.348C74.6874 105.971 72.7715 107.26 70.6609 108.141C68.5503 109.022 66.2866 109.478 63.9996 109.482Z" fill="#0084FF"/>
<path d="M64 117.176C60.6984 117.189 57.4272 116.545 54.377 115.281C51.3267 114.017 48.5583 112.16 46.233 109.816C45.836 109.283 45.6425 108.626 45.6876 107.964C45.7326 107.301 46.0132 106.676 46.4786 106.202C46.9441 105.729 47.5637 105.437 48.2254 105.38C48.8872 105.323 49.5474 105.505 50.0869 105.892C53.7612 109.553 58.7366 111.609 63.9235 111.609C69.1103 111.609 74.0857 109.553 77.76 105.892C78.2884 105.412 78.9815 105.153 79.6956 105.169C80.4097 105.185 81.0902 105.476 81.5962 105.98C82.1022 106.484 82.3949 107.164 82.4137 107.878C82.4326 108.592 82.1761 109.286 81.6974 109.816C79.3794 112.15 76.6221 114.002 73.5846 115.265C70.5472 116.529 67.2896 117.178 64 117.176Z" fill="#0084FF"/>
<path d="M35.1163 62.2887C36.1152 62.2887 36.925 61.4789 36.925 60.48C36.925 59.4811 36.1152 58.6713 35.1163 58.6713C34.1174 58.6713 33.3076 59.4811 33.3076 60.48C33.3076 61.4789 34.1174 62.2887 35.1163 62.2887Z" fill="#181818"/>
<path d="M63.9723 62.2887C64.9712 62.2887 65.781 61.4789 65.781 60.48C65.781 59.4811 64.9712 58.6713 63.9723 58.6713C62.9734 58.6713 62.1636 59.4811 62.1636 60.48C62.1636 61.4789 62.9734 62.2887 63.9723 62.2887Z" fill="#181818"/>
<path d="M92.8277 62.2887C93.8267 62.2887 94.6364 61.4789 94.6364 60.48C94.6364 59.4811 93.8267 58.6713 92.8277 58.6713C91.8288 58.6713 91.019 59.4811 91.019 60.48C91.019 61.4789 91.8288 62.2887 92.8277 62.2887Z" fill="#181818"/>
</svg>
