<svg width="128" height="128" viewBox="0 0 128 128" fill="none" xmlns="http://www.w3.org/2000/svg">
<path d="M100.452 21.3428C97.1924 21.3505 94.0061 22.3124 91.2864 24.1099C88.5668 25.9073 86.4329 28.4616 85.1479 31.4576C87.5342 30.7526 89.9591 30.1859 92.4106 29.7602L99.1862 28.6054C99.9037 28.4839 100.64 28.5442 101.328 28.7808C102.017 29.0173 102.635 29.4226 103.126 29.9595C103.617 30.4964 103.966 31.1478 104.141 31.8543C104.315 32.5608 104.31 33.2997 104.125 34.0036L102.372 40.6402C101.116 45.4109 99.3093 50.0193 96.9879 54.3723C98.1442 54.6247 99.3245 54.7507 100.508 54.748C104.936 54.748 109.183 52.989 112.314 49.8579C115.445 46.7269 117.204 42.4803 117.204 38.0523C117.204 33.6244 115.445 29.3778 112.314 26.2467C109.183 23.1157 104.936 21.3567 100.508 21.3567L100.452 21.3428Z" fill="#EDF3FF"/>
<path d="M25.5029 32.5149C27.6528 33.3613 29.5363 34.7691 30.9568 36.5914C31.6932 37.5343 32.3057 38.5676 32.7794 39.6662C32.7794 39.7636 32.8907 39.8332 32.9742 39.9862C33.1031 39.7754 33.2192 39.557 33.322 39.3323C33.8259 38.1841 34.5014 37.1192 35.3255 36.174C36.0425 35.3041 36.8924 34.5529 37.8437 33.948C38.5672 33.4888 39.3324 33.0853 40.0837 32.668C40.2229 32.5984 40.3759 32.5984 40.5011 32.5288C40.5443 32.5037 40.5816 32.4696 40.6104 32.4288C40.6392 32.3879 40.6589 32.3414 40.6681 32.2923C40.6569 32.2493 40.636 32.2094 40.6071 32.1756C40.5782 32.1419 40.5419 32.1151 40.5011 32.0975C39.1509 31.5779 37.9028 30.8243 36.8142 29.8714C35.7758 29.006 34.8915 27.9711 34.1985 26.8106C33.8368 26.1706 33.5168 25.5167 33.1829 24.8767L33.002 24.6123C32.8768 24.8488 32.7515 25.0436 32.6681 25.2384C32.1708 26.3552 31.5096 27.3916 30.7063 28.3132C29.9626 29.2197 29.0854 30.0079 28.1046 30.6506C27.395 31.0958 26.6437 31.4853 25.9063 31.8888C25.7811 31.8888 25.6281 31.8888 25.5029 32.028C25.4582 32.053 25.4191 32.0869 25.388 32.1275C25.3569 32.1682 25.3344 32.2148 25.322 32.2645C25.3081 32.3619 25.4194 32.4871 25.5029 32.5149Z" fill="#0084FF"/>
<path d="M100.174 102.497C100.021 102.414 99.8262 102.386 99.6592 102.316L97.7114 101.565C96.7792 101.203 95.8609 100.856 94.9288 100.522C94.7603 100.461 94.6095 100.36 94.4905 100.226C94.3714 100.092 94.2877 99.9308 94.247 99.7564C94.1079 99.339 93.9688 98.9078 93.8296 98.5043C93.3427 97.113 92.8696 95.8051 92.4383 94.4417C92.4383 94.3443 92.2853 94.2051 92.1879 94.2051C92.0905 94.2051 91.9792 94.3304 91.9375 94.4278C91.8623 94.6142 91.7973 94.8047 91.7427 94.9982L90.6575 97.9895L89.9896 99.8399C89.9379 99.9878 89.8534 100.122 89.7426 100.233C89.6318 100.344 89.4975 100.428 89.3496 100.48L88.2505 100.883L86.2609 101.565L84.1044 102.372C83.9792 102.372 83.8957 102.553 83.7705 102.65C83.8957 102.748 83.9792 102.887 84.1044 102.943L85.3844 103.402L87.4853 104.223L89.3357 104.918C89.4992 104.99 89.6435 105.099 89.7571 105.237C89.8706 105.375 89.9503 105.537 89.9896 105.711C90.1149 106.129 90.254 106.532 90.3931 106.936C90.8662 108.327 91.3392 109.635 91.7844 110.984C91.8479 111.114 91.9274 111.236 92.0209 111.346C92.1462 111.221 92.2575 111.137 92.2714 111.054C92.4105 110.692 92.5218 110.303 92.6609 109.927L93.3705 107.965C93.6209 107.269 93.927 106.574 94.1357 105.864C94.1811 105.618 94.2995 105.39 94.4757 105.212C94.6518 105.033 94.8775 104.911 95.1236 104.863H95.3462C96.974 104.264 98.5879 103.666 100.216 103.04C100.299 103.04 100.438 102.873 100.438 102.789C100.438 102.706 100.327 102.553 100.174 102.497Z" fill="#0084FF"/>
<path d="M44.0764 75.1303C42.5127 75.0566 40.9499 75.2942 39.4787 75.8292C38.0075 76.3642 36.6572 77.1859 35.506 78.2468C31.4295 81.9755 26.866 96.9181 25.9895 99.8816L24.6816 104.348L29.2173 103.36C32.2364 102.748 47.513 99.5198 51.5895 95.7772C53.3212 94.1875 54.5431 92.1204 55.1009 89.8368C55.6587 87.5531 55.5274 85.1554 54.7236 82.9464C53.9198 80.7373 52.4794 78.816 50.5845 77.4249C48.6895 76.0338 46.4248 75.2353 44.0764 75.1303ZM47.833 91.7007C46.1216 93.2868 39.0538 95.4016 32.7651 96.9042C34.7825 90.7407 37.5651 83.8955 39.2625 82.3233C40.436 81.2621 41.9656 80.681 43.5477 80.6955H43.826C44.6594 80.7312 45.4776 80.931 46.2337 81.2833C46.9898 81.6356 47.669 82.1336 48.2325 82.7488C48.7959 83.3639 49.2325 84.0841 49.5173 84.8682C49.8021 85.6522 49.9294 86.4848 49.8921 87.3181C49.8534 88.144 49.6515 88.954 49.2981 89.7015C48.9447 90.4489 48.4467 91.1189 47.833 91.6729V91.7007Z" fill="#0084FF"/>
<path d="M103.068 29.9549C102.579 29.4137 101.963 29.003 101.275 28.7601C100.588 28.5171 99.8504 28.4496 99.1302 28.5636L92.3545 29.7183C81.0773 31.6791 70.5181 36.5843 61.7458 43.9375C60.6007 44.9169 59.518 45.967 58.5041 47.0818C52.6327 46.372 46.6825 47.4177 41.405 50.087C37.4109 51.9614 33.8448 54.6371 30.9285 57.9479L28.605 60.7305L43.5615 63.7079L42.4902 64.9044L63.4154 87.6523L65.238 86.2609L67.0328 102.651L69.9267 100.577C73.4804 97.961 76.4629 94.647 78.6919 90.8383C82.3093 84.7305 83.8258 77.8714 82.8658 72.1949C83.3111 71.847 83.7424 71.4714 84.1458 71.0957C92.8852 62.8365 99.1487 52.3042 102.233 40.6818L103.986 34.0453C104.189 33.3413 104.212 32.5973 104.051 31.8823C103.891 31.1673 103.552 30.5043 103.068 29.9549ZM36.758 58.0314C38.714 56.365 40.8796 54.9618 43.1998 53.8575C46.8756 52.0389 50.9113 51.0645 55.0119 51.0053L46.8311 60.0349L36.758 58.0314ZM48.1389 64.807L54.0937 58.2401L70.9563 76.3549L63.8606 81.9201L48.1389 64.807ZM75.1302 88.6818C73.8167 90.8919 72.2271 92.9256 70.3998 94.734L69.1337 83.1583L79.0258 75.2696C78.9437 80.0073 77.5989 84.6373 75.1302 88.6818ZM100.021 32.9323L98.2815 39.5827C95.4379 50.4611 89.5779 60.3145 81.3771 68.007C81.0432 68.3131 80.7093 68.6053 80.3476 68.8836L74.2398 73.7392L56.9041 55.1375L60.5911 51.0609C60.8261 50.898 61.0211 50.684 61.1615 50.4349L61.5928 49.9618C62.4935 48.9748 63.4554 48.0454 64.4728 47.1792C72.6399 40.2757 82.5081 35.6875 93.0502 33.8923L99.8258 32.7375C99.8519 32.7251 99.8804 32.7187 99.9093 32.7187C99.9382 32.7187 99.9667 32.7251 99.9928 32.7375C100.022 32.7596 100.042 32.7926 100.047 32.8291C100.052 32.8656 100.043 32.9027 100.021 32.9323Z" fill="#181818"/>
</svg>
