<svg width="92" height="92" viewBox="0 0 92 92" fill="none" xmlns="http://www.w3.org/2000/svg">
<path d="M74.8998 24.9999C74.8998 22.0999 72.5998 19.7999 69.6998 19.7999H15.4998C12.5998 19.7999 10.2998 22.0999 10.2998 24.9999V31.6999H74.8998V24.9999ZM17.4998 27.9999C16.2998 27.9999 15.3998 27.0999 15.3998 25.8999C15.3998 24.6999 16.2998 23.7999 17.4998 23.7999C18.6998 23.7999 19.5998 24.6999 19.5998 25.8999C19.5998 27.0999 18.6998 27.9999 17.4998 27.9999ZM24.6998 27.9999C23.4998 27.9999 22.5998 27.0999 22.5998 25.8999C22.5998 24.6999 23.4998 23.7999 24.6998 23.7999C25.8998 23.7999 26.7998 24.6999 26.7998 25.8999C26.7998 27.0999 25.8998 27.9999 24.6998 27.9999ZM31.8998 27.9999C30.6998 27.9999 29.7998 27.0999 29.7998 25.8999C29.7998 24.6999 30.6998 23.7999 31.8998 23.7999C33.0998 23.7999 33.9998 24.6999 33.9998 25.8999C33.9998 27.0999 33.0998 27.9999 31.8998 27.9999Z" fill="#E8EEFF"/>
<path d="M69.6998 16.8H60.1998H15.4998C10.9998 16.8 7.2998 20.5 7.2998 25V33.2001V74.2C7.2998 78.7 10.9998 82.4001 15.4998 82.4001H69.7998C74.2998 82.4001 77.9998 78.7 77.9998 74.2V33.2001V27.5V25C77.8998 20.5 74.2998 16.8 69.6998 16.8ZM10.2998 25C10.2998 22.1 12.5998 19.8 15.4998 19.8H69.7998C72.6998 19.8 74.9998 22.1 74.9998 25V31.7001H10.2998V25ZM74.8998 74.2C74.8998 77.1 72.5998 79.4001 69.6998 79.4001H15.4998C12.5998 79.4001 10.2998 77.1 10.2998 74.2V34.7001H74.8998V74.2Z" fill="black"/>
<path d="M17.4999 23.7998C16.2999 23.7998 15.3999 24.6998 15.3999 25.8998C15.3999 27.0998 16.2999 27.9998 17.4999 27.9998C18.6999 27.9998 19.5999 27.0998 19.5999 25.8998C19.5999 24.6998 18.6999 23.7998 17.4999 23.7998Z" fill="#0080FF"/>
<path d="M24.6999 27.9998C25.8596 27.9998 26.7998 27.0596 26.7998 25.8998C26.7998 24.74 25.8596 23.7998 24.6999 23.7998C23.5401 23.7998 22.5999 24.74 22.5999 25.8998C22.5999 27.0596 23.5401 27.9998 24.6999 27.9998Z" fill="#0080FF"/>
<path d="M31.9 27.9998C33.0598 27.9998 34 27.0596 34 25.8998C34 24.74 33.0598 23.7998 31.9 23.7998C30.7403 23.7998 29.8 24.74 29.8 25.8998C29.8 27.0596 30.7403 27.9998 31.9 27.9998Z" fill="#0080FF"/>
<path d="M40.4507 66.1451L38.6121 64.501C35.289 61.5459 31.4714 58.219 30.653 57.6328C30.1341 57.3465 29.7387 56.8791 29.5424 56.3199C29.3462 55.7606 29.3627 55.1487 29.5888 54.6008C29.815 54.053 30.2349 53.6076 30.7685 53.3496C31.3021 53.0917 31.912 53.0392 32.4819 53.2023C32.9932 53.3651 33.4754 53.507 39.9647 59.2782L52.6437 44.478C53.0601 43.9915 53.6527 43.6904 54.2911 43.641C54.9295 43.5915 55.5615 43.7976 56.0479 44.214C56.5343 44.6304 56.8354 45.223 56.8849 45.8615C56.9344 46.4999 56.7283 47.1318 56.3119 47.6182L40.4507 66.1451Z" fill="#0084FF"/>
<path d="M86.7999 8C86.6999 7.9 86.4999 7.9 86.3999 7.9C85.8999 7.7 85.3999 7.5 84.9999 7.3C84.2999 7 83.6999 6.80001 82.9999 6.60001C82.6999 6.50001 82.5999 6.3 82.4999 6C82.3999 5.7 82.2999 5.40001 82.1999 5.10001C81.8999 4.10001 81.4999 3.2 81.1999 2.2C81.1999 2.1 81.0999 2 80.9999 2C80.8999 2 80.8999 2.1 80.7999 2.2C80.7999 2.3 80.7999 2.40001 80.6999 2.60001C80.3999 3.30001 80.1999 4 79.8999 4.7C79.6999 5.1 79.5999 5.6 79.3999 6C79.2999 6.2 79.1999 6.4 78.8999 6.5C78.5999 6.6 78.3999 6.7 78.0999 6.8C77.5999 7 77.1999 7.1 76.6999 7.3C76.1999 7.5 75.6999 7.7 75.1999 7.9C75.0999 7.9 74.9999 8.00001 74.9999 8.10001C75.0999 8.20001 75.0999 8.3 75.1999 8.3C75.4999 8.4 75.7999 8.50001 76.0999 8.60001C76.5999 8.80001 77.0999 9 77.5999 9.2C77.9999 9.4 78.4999 9.5 78.8999 9.7C79.1999 9.8 79.2999 10 79.3999 10.3C79.4999 10.6 79.5999 10.9 79.6999 11.2C79.9999 12.2 80.3999 13.1 80.6999 14.1C80.6999 14.2 80.7999 14.2 80.8999 14.4C80.9999 14.3 81.0999 14.2 81.0999 14.2C81.1999 13.9 81.2999 13.7 81.3999 13.4C81.5999 12.9 81.6999 12.5 81.8999 12C82.0999 11.5 82.2999 11 82.3999 10.5C82.4999 10.1 82.6999 9.9 83.0999 9.8C83.1999 9.8 83.1999 9.8 83.2999 9.8C84.4999 9.4 85.5999 8.9 86.7999 8.5C86.8999 8.5 86.9999 8.4 86.9999 8.3C86.9999 8.1 86.8999 8 86.7999 8Z" fill="#0080FF"/>
</svg>
