<svg width="92" height="92" viewBox="0 0 92 92" fill="none" xmlns="http://www.w3.org/2000/svg">
<path d="M29.1701 67.1097H21.0001V51.7297C18.1125 52.5782 15.4867 54.1437 13.3673 56.2805C11.2478 58.4173 9.70381 61.0559 8.87903 63.9503C8.05424 66.8447 7.97553 69.9008 8.65024 72.8338C9.32496 75.7668 10.7311 78.4813 12.7377 80.7244C14.7444 82.9675 17.2861 84.6661 20.1262 85.6621C22.9663 86.658 26.0122 86.9188 28.9803 86.4202C31.9483 85.9216 34.7418 84.6798 37.1006 82.8106C39.4593 80.9413 41.3065 78.5054 42.4701 75.7297H29.1701V67.1097Z" fill="#EDF3FF"/>
<path d="M80.0802 7.05981C79.9802 7.23981 79.9002 7.36981 79.8302 7.50981C79.4726 8.31325 79.0011 9.06094 78.4302 9.72981C77.8917 10.3785 77.2578 10.9416 76.5502 11.3998C76.0402 11.7298 75.5502 11.9998 74.9702 12.2898C74.8802 12.3398 74.7702 12.3398 74.6902 12.3898C74.6223 12.4298 74.5723 12.4942 74.5502 12.5698C74.5502 12.5698 74.6302 12.6998 74.6902 12.7198C76.2332 13.332 77.5836 14.3474 78.6002 15.6598C79.1328 16.3334 79.5765 17.0728 79.9202 17.8598C79.9202 17.9298 79.9902 17.9898 80.0502 18.0998C80.145 17.946 80.2285 17.7856 80.3002 17.6198C80.6641 16.8016 81.1496 16.043 81.7402 15.3698C82.2658 14.7545 82.875 14.216 83.5502 13.7698C84.0702 13.4398 84.6302 13.1598 85.1702 12.8598C85.2602 12.8598 85.3702 12.7998 85.4702 12.7498C85.5046 12.741 85.5351 12.721 85.5569 12.6929C85.5787 12.6649 85.5905 12.6303 85.5905 12.5948C85.5905 12.5593 85.5787 12.5248 85.5569 12.4967C85.5351 12.4686 85.5046 12.4486 85.4702 12.4398C84.499 12.0722 83.6015 11.5337 82.8202 10.8498C82.0679 10.2272 81.4285 9.47958 80.9302 8.63981C80.6702 8.18981 80.4402 7.71981 80.2002 7.25981L80.0802 7.05981Z" fill="#0084FF"/>
<path d="M73.2801 22.2499H66.5601V15.1499C66.5601 14.7521 66.4021 14.3705 66.1208 14.0892C65.8395 13.8079 65.4579 13.6499 65.0601 13.6499H34.6801H34.5901C34.478 13.6553 34.367 13.6755 34.2601 13.7099H34.1101C33.9637 13.7702 33.8285 13.8547 33.7101 13.9599L33.6501 14.0199L20.0001 26.1199C19.8402 26.2595 19.712 26.4316 19.6241 26.6248C19.5361 26.8179 19.4904 27.0277 19.4901 27.2399V67.1099C19.4901 67.5077 19.6481 67.8893 19.9295 68.1706C20.2108 68.4519 20.5923 68.6099 20.9901 68.6099H27.7101V75.7099C27.7101 76.1077 27.8681 76.4893 28.1495 76.7706C28.4308 77.0519 28.8123 77.2099 29.2101 77.2099H73.2801C73.6779 77.2099 74.0595 77.0519 74.3408 76.7706C74.6221 76.4893 74.7801 76.1077 74.7801 75.7099V23.7099C74.7697 23.3191 74.6071 22.9477 74.3269 22.675C74.0467 22.4023 73.6711 22.2498 73.2801 22.2499ZM33.1801 18.4999V25.0999C33.1573 25.3255 33.0473 25.5332 32.8736 25.6789C32.6999 25.8246 32.4762 25.8967 32.2501 25.8799H24.8901L33.1801 18.4999ZM22.4501 65.6099V28.8799H32.2501C33.2722 28.8987 34.26 28.5112 34.9968 27.8026C35.7335 27.0939 36.1591 26.1219 36.1801 25.0999V16.6499H63.5601V65.6499L22.4501 65.6099ZM71.7801 74.2099H30.6701V68.6099H65.0601C65.4579 68.6099 65.8395 68.4519 66.1208 68.1706C66.4021 67.8893 66.5601 67.5077 66.5601 67.1099V25.2499H71.7801V74.2099Z" fill="#181818"/>
<path d="M54.1801 40.3998H31.8301C31.2996 40.3998 30.7909 40.1891 30.4159 39.814C30.0408 39.4389 29.8301 38.9302 29.8301 38.3998C29.8301 37.8693 30.0408 37.3606 30.4159 36.9856C30.7909 36.6105 31.2996 36.3998 31.8301 36.3998H54.1801C54.7105 36.3998 55.2192 36.6105 55.5943 36.9856C55.9694 37.3606 56.1801 37.8693 56.1801 38.3998C56.1801 38.9302 55.9694 39.4389 55.5943 39.814C55.2192 40.1891 54.7105 40.3998 54.1801 40.3998Z" fill="#0084FF"/>
<path d="M54.1801 48.7899H31.8301C31.2996 48.7899 30.7909 48.5792 30.4159 48.2041C30.0408 47.8291 29.8301 47.3204 29.8301 46.7899C29.8301 46.2595 30.0408 45.7508 30.4159 45.3757C30.7909 45.0006 31.2996 44.7899 31.8301 44.7899H54.1801C54.7105 44.7899 55.2192 45.0006 55.5943 45.3757C55.9694 45.7508 56.1801 46.2595 56.1801 46.7899C56.1801 47.3204 55.9694 47.8291 55.5943 48.2041C55.2192 48.5792 54.7105 48.7899 54.1801 48.7899Z" fill="#0084FF"/>
<path d="M54.1801 57.1697H46.0001C45.4697 57.1697 44.961 56.959 44.5859 56.5839C44.2108 56.2088 44.0001 55.7001 44.0001 55.1697C44.0001 54.6392 44.2108 54.1305 44.5859 53.7555C44.961 53.3804 45.4697 53.1697 46.0001 53.1697H54.1601C54.6906 53.1697 55.1993 53.3804 55.5743 53.7555C55.9494 54.1305 56.1601 54.6392 56.1601 55.1697C56.1601 55.7001 55.9494 56.2088 55.5743 56.5839C55.1993 56.959 54.6906 57.1697 54.1601 57.1697H54.1801Z" fill="#0084FF"/>
</svg>
