<svg version="1" xmlns="http://www.w3.org/2000/svg" width="682.667" height="682.667" viewBox="0 0 512.000000 512.000000"><path d="M36 17.2c-7.4 2.9-15 10.5-17.8 18.1L16 41.1v426.8l2.2 5.8c2.9 7.7 10.4 15.2 18.1 18.1l5.8 2.2h426.8l5.8-2.2c7.7-2.9 15.2-10.4 18.1-18.1l2.2-5.8V41.1l-2.2-5.8c-2.9-7.7-10.4-15.2-18.1-18.1l-5.8-2.2-213.7.1H41.5L36 17.2zm146 104c24.2 3.4 45.6 14.7 59.6 31.6 6.5 7.8 15.3 25.3 18.3 36.2 4.4 15.9 5.1 25.4 5.1 65.5 0 50.6-1.7 61.8-12.5 84-9.1 18.7-20.8 30.6-39 39.6-17.8 8.8-41.3 12.8-64 10.9-22.2-1.8-36.9-6.5-52-16.5-18.6-12.3-31.1-31-37.3-56-4.2-16.7-4.7-22.6-4.7-62s.5-45.3 4.7-62c6.2-25 18.7-43.6 37.3-56 21.8-14.5 51.7-20 84.5-15.3zm271.9 4.4c2 2.5 2.1 4 2.1 21.6 0 18.4-.5 22.1-3.4 24-.6.4-14.7.8-31.3.8H391l-.2 104.9c-.3 101.5-.4 105-2.2 107-1.8 2-2.7 2.1-28.3 2.1-25 0-26.4-.1-28.3-2-2-2-2-3.3-2-107V172h-30.9c-30.9 0-31 0-32.5-2.2-1.3-1.9-1.6-5.8-1.6-22.3s.3-20.4 1.6-22.3l1.5-2.2h183.8l2 2.6z"/><path d="M151.7 173c-16.4 2.6-26.7 12.3-31.8 30.2-2.4 8.1-2.4 9.1-2.4 51.3 0 42.4 0 43.1 2.4 51.4 5.9 20.7 18.8 30.4 40.6 30.4 26.8 0 40.4-14.7 43.5-47 1.3-13.9 1.3-55.7 0-69.6-2.4-25.3-12-40.6-28.4-45.2-6.9-1.9-16.9-2.5-23.9-1.5z"/></svg>