<?xml version="1.0" encoding="utf-8"?>
<!-- Generator: Adobe Illustrator 21.0.0, SVG Export Plug-In . SVG Version: 6.00 Build 0)  -->
<svg version="1.1" id="Слой_1" xmlns="http://www.w3.org/2000/svg" xmlns:xlink="http://www.w3.org/1999/xlink" x="0px" y="0px"
	 viewBox="50 50 300 300" style="enable-background:new 50 50 300 300;" xml:space="preserve">
<style type="text/css">
	.st0{fill:#FFFFFF;}
</style>
<symbol  id="header_x5F_postauth_5" viewBox="-646 -37 1292 74">
	<g>

			<image style="overflow:visible;opacity:0.4;" width="1292" height="74" xlink:href="40018CCD.png"  transform="matrix(1 0 0 -1 -646 37)">
		</image>
		<g>
			<rect x="-642.5" y="-33" class="st0" width="1285" height="67"/>
		</g>
	</g>
	<g id="rILGUs_24_">

			<image style="overflow:visible;" width="1425" height="413" id="rILGUs_53_" xlink:href="40018CD4.jpg"  transform="matrix(9.547763e-02 0 0 -9.547763e-02 -595.9024 16.5392)">
		</image>
	</g>
	<text transform="matrix(1 0 0 -1 532.3843 -5.334)" style="fill:#7B858B; font-family:'OpenSans-Semibold'; font-size:12px;">jsmith</text>
	<text transform="matrix(1 0 0 -1 379.0679 -5.2837)" style="fill:#7B858B; font-family:'OpenSans-Semibold'; font-size:12px;">Team Members</text>
	<text transform="matrix(1 0 0 -1 275.8921 -5.2837)" style="fill:#7B858B; font-family:'OpenSans-Semibold'; font-size:12px;">Clients</text>
	<line style="fill:none;stroke:#CCCCCC;stroke-miterlimit:10;" x1="477.9" y1="15" x2="477.9" y2="-17"/>
	<path style="fill:#39BFC2;" d="M579.2-0.1l-1.2,1.2l-2.9-2.9l-2.9,2.9L571-0.1l4.1-4.1L579.2-0.1z"/>
	<g id="Users_3_">
		<g>
			<g>
				<path style="fill:none;stroke:#7B858B;stroke-miterlimit:10;" d="M345.1,6.1c0.1,2.2-1.8,3.9-3.9,3.9s-4-1.7-3.9-3.9
					c0-0.4,0.4-2.6,0.4-2.6c0.3-1.9,1.6-3.5,3.5-3.5c1.9,0,3.1,1.6,3.5,3.5C344.6,3.5,345.1,5.7,345.1,6.1z"/>
				<path style="fill:none;stroke:#7B858B;stroke-miterlimit:10;" d="M350.8-9.9h-19.3l0.3,3.8c0.2,1.4,1.6,2.4,3.1,2.7l6.3,0.8
					l6.3-0.8c1.6-0.3,3-1.2,3.1-2.9L350.8-9.9z"/>
			</g>
			<g>
				<path style="fill:none;stroke:#7B858B;stroke-miterlimit:10;" d="M355.3,3.5c0.1,1.7-1.4,3.1-3.1,3.1c-1.7,0-3.2-1.4-3.1-3.1
					c0-0.3,0.3-2,0.3-2c0.3-1.5,1.2-2.7,2.8-2.7c1.5,0,2.5,1.2,2.8,2.7C354.9,1.5,355.3,3.2,355.3,3.5z"/>
				<path style="fill:none;stroke:#7B858B;stroke-miterlimit:10;" d="M352.2-3.6l5.2-0.6c1.3-0.2,2.4-1,2.5-2.3l0.2-3.4h-6"/>
			</g>
		</g>
	</g>
	<g id="User_Alt_4_">
		<circle style="fill:none;stroke:#7B858B;stroke-miterlimit:10;" cx="507.8" cy="0.1" r="11.9"/>
		<g>
			<path style="fill:none;stroke:#7B858B;stroke-miterlimit:10;" d="M511.4,5.2c0.1,2-1.6,3.6-3.6,3.6s-3.7-1.6-3.6-3.6
				c0-0.4,0.4-2.4,0.4-2.4c0.3-1.8,1.4-3.2,3.2-3.2c1.8,0,2.9,1.5,3.2,3.2C511,2.8,511.4,4.8,511.4,5.2z"/>
			<path style="fill:none;stroke:#7B858B;stroke-miterlimit:10;" d="M499-8v0.3c0,1.6,1.2,2.8,2.8,3.2l6,1.1l6-1.1
				c1.5-0.5,2.8-1.6,2.8-3.2V-8"/>
		</g>
	</g>
	<g>
		<path id="Folder_1_" style="fill:none;stroke:#7B858B;stroke-miterlimit:10;" d="M257.5-11.8h-18.1c-2.7,0-4.8,2.2-4.8,4.8v18.1
			h9.7l2.4-3.6h15.7V-7C262.4-9.7,260.2-11.8,257.5-11.8z"/>
		<g id="User_1_">
			<path style="fill:none;stroke:#7B858B;stroke-miterlimit:10;" d="M251.5,0.5c0.1,1.7-1.4,3.1-3.1,3.1c-1.7,0-3.2-1.4-3.1-3.1
				c0-0.3,0.3-2.1,0.3-2.1c0.3-1.5,1.2-2.7,2.8-2.7s2.5,1.2,2.8,2.7C251.1-1.6,251.4,0.1,251.5,0.5z"/>
			<path style="fill:none;stroke:#7B858B;stroke-miterlimit:10;" d="M255.9-11.6h-15.1l0.4,2.7c0.2,0.9,1,1.4,1.8,1.6l5.4,1l5.4-0.9
				c0.9-0.2,1.7-0.7,1.8-1.6L255.9-11.6z"/>
		</g>
	</g>
</symbol>
<g style="opacity:0.79;">
	<defs>
		<circle id="SVGID_1_" style="opacity:0.79;" cx="200.5" cy="199.8" r="121.5"/>
	</defs>
	<clipPath id="SVGID_2_">
		<use xlink:href="#SVGID_1_"  style="overflow:visible;"/>
	</clipPath>
	<g style="clip-path:url(#SVGID_2_);">
		<text transform="matrix(1 0 0 1 453.4626 208.6821)" style="fill:#676767; font-family:'OpenSans-Light'; font-size:18.6977px;">$0</text>
		<text transform="matrix(1 0 0 1 403.864 208.6821)" style="fill:#676767; font-family:'OpenSans-Light'; font-size:18.6977px;">0</text>

			<text transform="matrix(0.583 0 0 0.583 413.4558 202.4556)" style="fill:#676767; font-family:'OpenSans-Light'; font-size:18.6977px;">%</text>
		<text transform="matrix(1 0 0 1 393.6365 161.5728)" style="fill:#676767; font-family:'OpenSans-Light'; font-size:18.6977px;">$1,120,000</text>
		<g>
			<text transform="matrix(1 0 0 1 326.5486 201.5825)"><tspan x="0" y="0" style="font-family:'OpenSans'; font-size:6.2326px;">$1,120,000</tspan><tspan x="0" y="19.9" style="font-family:'OpenSans'; font-size:6.2326px;">$1,120,000</tspan></text>
		</g>
		<g>
			<text transform="matrix(1 0 0 1 107.8513 201.582)"><tspan x="0" y="0" style="font-family:'OpenSans'; font-size:6.2326px;">United Health Care</tspan><tspan x="0" y="19.9" style="font-family:'OpenSans'; font-size:6.2326px;">Aetna </tspan><tspan x="16.8" y="19.9" style="fill:#989898; font-family:'OpenSans'; font-size:6.2326px;">(Current plan)</tspan></text>
		</g>

			<text transform="matrix(1 0 0 1 411.9822 176.5176)" style="fill:#989898; font-family:'OpenSans-Semibold'; font-size:4.6744px;">UHC TOTAL ANNUAL PREMIUM</text>

			<text transform="matrix(1 0 0 1 452.0212 219.2871)" style="fill:#989898; font-family:'OpenSans-Semibold'; font-size:4.6744px;">DIFFERENCE</text>

			<text transform="matrix(1 0 0 1 403.0525 219.2871)" style="fill:#989898; font-family:'OpenSans-Semibold'; font-size:4.6744px;">DIFFERENCE</text>

			<text transform="matrix(1 0 0 1 326.5486 183.8418)" style="fill:#676767; font-family:'OpenSans-Semibold'; font-size:4.6744px;">Total</text>
		<g>
			<text transform="matrix(1 0 0 1 279.8044 201.5825)"><tspan x="0" y="0" style="font-family:'OpenSans'; font-size:6.2326px;">$224,000</tspan><tspan x="0" y="19.9" style="font-family:'OpenSans'; font-size:6.2326px;">$224,000</tspan></text>
		</g>

			<text transform="matrix(1 0 0 1 279.8044 183.8418)" style="fill:#676767; font-family:'OpenSans-Semibold'; font-size:4.6744px;">Employee</text>
		<g>
			<text transform="matrix(1 0 0 1 235.0076 201.5825)"><tspan x="0" y="0" style="font-family:'OpenSans'; font-size:6.2326px;">$896,000</tspan><tspan x="0" y="19.9" style="font-family:'OpenSans'; font-size:6.2326px;">$896,000</tspan></text>
		</g>

			<text transform="matrix(1 0 0 1 235.0076 183.8418)" style="fill:#676767; font-family:'OpenSans-Semibold'; font-size:4.6744px;">Employer</text>

			<text transform="matrix(1 0 0 1 107.8513 183.8418)" style="fill:#676767; font-family:'OpenSans-Semibold'; font-size:4.6744px;">Carrier</text>
		<text transform="matrix(1 0 0 1 107.8513 154.9282)" style="fill:#686C6B; font-family:'OpenSans-Light'; font-size:14.0233px;">Medical Overview - Option 1</text>
		<line style="fill:none;stroke:#BBBBBC;stroke-width:0.5;stroke-miterlimit:10;" x1="95.3" y1="209.3" x2="360.9" y2="209.3"/>
		<line style="fill:none;stroke:#BBBBBC;stroke-width:0.5;stroke-miterlimit:10;" x1="95.3" y1="230.1" x2="360.9" y2="230.1"/>
		<line style="fill:none;stroke:#BBBBBC;stroke-width:0.5;stroke-miterlimit:10;" x1="95.3" y1="499.6" x2="490.4" y2="499.6"/>
		<line style="fill:none;stroke:#BBBBBC;stroke-width:0.5;stroke-miterlimit:10;" x1="95.3" y1="611.7" x2="490.4" y2="611.7"/>
		<line style="fill:none;stroke:#BBBBBC;stroke-width:0.5;stroke-miterlimit:10;" x1="95.3" y1="278" x2="278.7" y2="278"/>
		<line style="fill:none;stroke:#BBBBBC;stroke-width:0.5;stroke-miterlimit:10;" x1="307.1" y1="278" x2="490.6" y2="278"/>
		<line style="fill:none;stroke:#BBBBBC;stroke-width:0.5;stroke-miterlimit:10;" x1="95.3" y1="189.3" x2="360.9" y2="189.3"/>
		<g>
			<path style="fill:#E8F5F5;stroke:#ABDDE2;stroke-miterlimit:10;" d="M478.1,246c0,0.9-0.7,1.6-1.6,1.6h-90.3
				c-0.9,0-1.6-0.7-1.6-1.6v-14.3c0-0.9,0.7-1.6,1.6-1.6h90.3c0.9,0,1.6,0.7,1.6,1.6V246z"/>
			<polygon style="fill:#058D8D;" points="381.9,229.2 381.9,244.9 392,241 402,244.9 402,229.2 			"/>
			<polygon style="fill:#38BFC3;" points="381.9,228.2 381.9,243.9 392,240 402,243.9 402,228.2 			"/>
			<g>
				<g>

						<text transform="matrix(1 0 0 1 384.4265 237.2485)" class="st0" style="font-family:'OpenSans-Semibold'; font-size:7.2614px;">2YR.</text>
				</g>
			</g>
			<g>
				<text transform="matrix(1 0 0 1 407.0105 237.4141)"><tspan x="0" y="0" style="fill:#058D8D; font-family:'OpenSans-Semibold'; font-size:5.4564px;">Learn more about  </tspan><tspan x="0" y="6.5" style="fill:#058D8D; font-family:'OpenSans-Semibold'; font-size:5.4564px;">our 2 year rate cap</tspan></text>
			</g>
		</g>
		<g>

				<image style="overflow:visible;opacity:0.4;" width="402" height="96" xlink:href="40018CD5.png"  transform="matrix(1 0 0 1 92 289)">
			</image>
			<g>
				<path style="fill:#EAEEF1;" d="M490.4,380.7c0,0.6-0.5,1.2-1.2,1.2H96.4c-0.6,0-1.2-0.5-1.2-1.2v-87.1c0-0.6,0.5-1.2,1.2-1.2
					h392.8c0.6,0,1.2,0.5,1.2,1.2V380.7z"/>

					<path style="fill:none;stroke:#357DC0;stroke-width:0.25;stroke-linecap:round;stroke-linejoin:round;stroke-miterlimit:10;" d="
					M490.4,380.7c0,0.6-0.5,1.2-1.2,1.2H96.4c-0.6,0-1.2-0.5-1.2-1.2v-87.1c0-0.6,0.5-1.2,1.2-1.2h392.8c0.6,0,1.2,0.5,1.2,1.2
					V380.7z"/>
			</g>
		</g>
		<g>
			<text transform="matrix(1 0 0 1 355.7986 359.3115)" style="font-family:'OpenSans'; font-size:6.2326px;">$325,000</text>
		</g>
		<text transform="matrix(1 0 0 1 441.907 344.5503)" style="fill:#676767; font-family:'OpenSans-Light'; font-size:11.6861px;">0</text>

			<text transform="matrix(0.583 0 0 0.583 447.9021 340.6587)" style="fill:#676767; font-family:'OpenSans-Light'; font-size:11.6861px;">%</text>
		<text transform="matrix(1 0 0 1 441.6062 315.5996)" style="fill:#676767; font-family:'OpenSans-Light'; font-size:11.6861px;">$0</text>
		<g>
			<text transform="matrix(1 0 0 1 355.7986 341.6069)" style="font-family:'OpenSans'; font-size:6.2326px;">$325,000</text>
		</g>
		<g>
			<text transform="matrix(1 0 0 1 107.8513 341.8579)"><tspan x="0" y="0" style="fill:#2979B7; font-family:'OpenSans'; font-size:6.2326px;">UHC HMO KB3</tspan><tspan x="0" y="17.6" style="fill:#676767; font-family:'OpenSans'; font-size:6.2326px;">Aetna HMO 20 </tspan></text>
		</g>
		<line style="fill:none;stroke:#BBBBBC;stroke-width:0.5;stroke-miterlimit:10;" x1="401.2" y1="381.9" x2="401.2" y2="292.5"/>

			<text transform="matrix(1 0 0 1 434.4421 352.6079)" style="fill:#989898; font-family:'OpenSans-Semibold'; font-size:4.6744px;">DIFFERENCE</text>

			<text transform="matrix(1 0 0 1 434.4412 324.1172)" style="fill:#989898; font-family:'OpenSans-Semibold'; font-size:4.6744px;">DIFFERENCE</text>
		<line style="fill:none;stroke:#BBBBBC;stroke-width:0.5;stroke-miterlimit:10;" x1="95.3" y1="348.5" x2="401.2" y2="348.5"/>
		<line style="fill:none;stroke:#BBBBBC;stroke-width:0.5;stroke-miterlimit:10;" x1="95.3" y1="366.1" x2="401.2" y2="366.1"/>
		<line style="fill:none;stroke:#BBBBBC;stroke-width:0.5;stroke-miterlimit:10;" x1="95.3" y1="329.5" x2="401.2" y2="329.5"/>

			<text transform="matrix(1 0 0 1 107.8513 324.1172)" style="fill:#676767; font-family:'OpenSans-Semibold'; font-size:4.6744px;">Plan Name</text>
		<text transform="matrix(1 0 0 1 216.532 324.1172)" style="fill:#676767; font-family:'OpenSans-Semibold'; font-size:4.6744px;">Plan Type</text>

			<text transform="matrix(1 0 0 1 355.7986 323.8657)" style="fill:#676767; font-family:'OpenSans-Semibold'; font-size:4.6744px;">Total</text>
		<g>
			<text transform="matrix(1 0 0 1 309.0544 359.563)" style="font-family:'OpenSans'; font-size:6.2326px;">$65,000</text>
		</g>
		<g>
			<text transform="matrix(1 0 0 1 309.0544 341.8579)" style="font-family:'OpenSans'; font-size:6.2326px;">$65,000</text>
		</g>

			<text transform="matrix(1 0 0 1 309.0544 324.1172)" style="fill:#676767; font-family:'OpenSans-Semibold'; font-size:4.6744px;">Employee</text>
		<g>
			<text transform="matrix(1 0 0 1 264.2585 359.563)" style="font-family:'OpenSans'; font-size:6.2326px;">$260,000</text>
		</g>
		<g>
			<text transform="matrix(1 0 0 1 264.2585 341.8579)" style="font-family:'OpenSans'; font-size:6.2326px;">$260,000</text>
		</g>
		<g>
			<text transform="matrix(1 0 0 1 216.532 359.563)" style="font-family:'OpenSans'; font-size:6.2326px;">HMO</text>
		</g>
		<g>
			<text transform="matrix(1 0 0 1 216.532 341.8579)" style="font-family:'OpenSans'; font-size:6.2326px;">HMO</text>
		</g>

			<text transform="matrix(1 0 0 1 264.2585 324.1172)" style="fill:#676767; font-family:'OpenSans-Semibold'; font-size:4.6744px;">Employer</text>
		<g id="rILGUs_17_">

				<image style="overflow:visible;" width="1425" height="413" id="rILGUs_18_" xlink:href="40018CD7.jpg"  transform="matrix(3.732400e-02 0 0 3.732400e-02 107.8506 300.7456)">
			</image>
		</g>
		<g>
			<g>
				<g>
					<path style="fill:#1C649E;" d="M176.8,377.5c0,0.3-0.2,0.6-0.6,0.6h-67.8c-0.3,0-0.6-0.2-0.6-0.6v-6.4c0-0.3,0.2-0.6,0.6-0.6
						h67.8c0.3,0,0.6,0.2,0.6,0.6V377.5z"/>
				</g>
			</g>
			<g>
				<g>
					<path style="fill:#357DC0;" d="M176.8,376.9c0,0.3-0.2,0.6-0.6,0.6h-67.8c-0.3,0-0.6-0.2-0.6-0.6v-6.4c0-0.3,0.2-0.6,0.6-0.6
						h67.8c0.3,0,0.6,0.2,0.6,0.6V376.9z"/>
				</g>
			</g>
			<text transform="matrix(1 0 0 1 123.0349 375.4097)" class="st0" style="font-family:'OpenSans-Semibold'; font-size:3.8953px;">VIEW ALTERNATIVES</text>
		</g>
		<g>
			<g>
				<g>
					<path style="fill:#1C649E;" d="M186.3,546.4c0,0.4-0.3,0.7-0.7,0.7H96c-0.4,0-0.7-0.3-0.7-0.7v-8.5c0-0.4,0.3-0.7,0.7-0.7h89.6
						c0.4,0,0.7,0.3,0.7,0.7V546.4z"/>
				</g>
			</g>
			<g>
				<g>
					<path style="fill:#357DC0;" d="M186.3,545.6c0,0.4-0.3,0.7-0.7,0.7H96c-0.4,0-0.7-0.3-0.7-0.7v-8.5c0-0.4,0.3-0.7,0.7-0.7h89.6
						c0.4,0,0.7,0.3,0.7,0.7V545.6z"/>
				</g>
			</g>
			<text transform="matrix(1 0 0 1 115.322 543.6309)" class="st0" style="font-family:'OpenSans-Semibold'; font-size:5.1443px;">ADD PLAN OPTION</text>
		</g>
		<g>
			<g>

					<image style="overflow:visible;opacity:0.4;" width="402" height="97" xlink:href="40018CD4.png"  transform="matrix(1 0 0 1 92 395)">
				</image>
				<g>
					<path style="fill:#EAEEF1;" d="M490.4,486.8c0,0.6-0.5,1.2-1.2,1.2H96.4c-0.6,0-1.2-0.5-1.2-1.2v-87.1c0-0.6,0.5-1.2,1.2-1.2
						h392.8c0.6,0,1.2,0.5,1.2,1.2V486.8z"/>

						<path style="fill:none;stroke:#357DC0;stroke-width:0.25;stroke-linecap:round;stroke-linejoin:round;stroke-miterlimit:10;" d="
						M490.4,486.8c0,0.6-0.5,1.2-1.2,1.2H96.4c-0.6,0-1.2-0.5-1.2-1.2v-87.1c0-0.6,0.5-1.2,1.2-1.2h392.8c0.6,0,1.2,0.5,1.2,1.2
						V486.8z"/>
				</g>
			</g>
			<g>
				<text transform="matrix(1 0 0 1 355.7986 465.4497)" style="font-family:'OpenSans'; font-size:6.2326px;">$545,000</text>
			</g>
			<text transform="matrix(1 0 0 1 441.907 450.688)" style="fill:#676767; font-family:'OpenSans-Light'; font-size:11.6861px;">0</text>

				<text transform="matrix(0.583 0 0 0.583 447.9021 446.7964)" style="fill:#676767; font-family:'OpenSans-Light'; font-size:11.6861px;">%</text>
			<text transform="matrix(1 0 0 1 441.6062 421.7368)" style="fill:#676767; font-family:'OpenSans-Light'; font-size:11.6861px;">$0</text>
			<g>
				<text transform="matrix(1 0 0 1 355.7986 447.7446)" style="font-family:'OpenSans'; font-size:6.2326px;">$545,000</text>
			</g>
			<g>
				<text transform="matrix(1 0 0 1 107.8513 447.9956)"><tspan x="0" y="0" style="fill:#2979B7; font-family:'OpenSans'; font-size:6.2326px;">UHC PPO PS-4</tspan><tspan x="0" y="17.6" style="fill:#676767; font-family:'OpenSans'; font-size:6.2326px;">Aetna PPO Premium</tspan></text>
			</g>
			<line style="fill:none;stroke:#BBBBBC;stroke-width:0.5;stroke-miterlimit:10;" x1="401.2" y1="488" x2="401.2" y2="398.6"/>

				<text transform="matrix(1 0 0 1 434.4421 458.7466)" style="fill:#989898; font-family:'OpenSans-Semibold'; font-size:4.6744px;">DIFFERENCE</text>

				<text transform="matrix(1 0 0 1 434.4412 430.2554)" style="fill:#989898; font-family:'OpenSans-Semibold'; font-size:4.6744px;">DIFFERENCE</text>
			<line style="fill:none;stroke:#BBBBBC;stroke-width:0.5;stroke-miterlimit:10;" x1="95.3" y1="454.7" x2="401.2" y2="454.7"/>
			<line style="fill:none;stroke:#BBBBBC;stroke-width:0.5;stroke-miterlimit:10;" x1="95.3" y1="472.2" x2="401.2" y2="472.2"/>
			<line style="fill:none;stroke:#BBBBBC;stroke-width:0.5;stroke-miterlimit:10;" x1="95.3" y1="435.7" x2="401.2" y2="435.7"/>

				<text transform="matrix(1 0 0 1 107.8513 430.2554)" style="fill:#676767; font-family:'OpenSans-Semibold'; font-size:4.6744px;">Plan Name</text>

				<text transform="matrix(1 0 0 1 216.532 430.2554)" style="fill:#676767; font-family:'OpenSans-Semibold'; font-size:4.6744px;">Plan Type</text>

				<text transform="matrix(1 0 0 1 355.7986 430.0039)" style="fill:#676767; font-family:'OpenSans-Semibold'; font-size:4.6744px;">Total</text>
			<g>
				<text transform="matrix(1 0 0 1 309.0544 465.7012)" style="font-family:'OpenSans'; font-size:6.2326px;">$109,000</text>
			</g>
			<g>
				<text transform="matrix(1 0 0 1 309.0544 447.9961)" style="font-family:'OpenSans'; font-size:6.2326px;">$109,000</text>
			</g>

				<text transform="matrix(1 0 0 1 309.0544 430.2554)" style="fill:#676767; font-family:'OpenSans-Semibold'; font-size:4.6744px;">Employee</text>
			<g>
				<text transform="matrix(1 0 0 1 264.2585 465.7012)" style="font-family:'OpenSans'; font-size:6.2326px;">$436000</text>
			</g>
			<g>
				<text transform="matrix(1 0 0 1 264.2585 447.9961)" style="font-family:'OpenSans'; font-size:6.2326px;">$436000</text>
			</g>
			<g>
				<text transform="matrix(1 0 0 1 216.532 465.7012)" style="font-family:'OpenSans'; font-size:6.2326px;">PPO</text>
			</g>
			<g>
				<text transform="matrix(1 0 0 1 216.532 447.9961)" style="font-family:'OpenSans'; font-size:6.2326px;">PPO</text>
			</g>

				<text transform="matrix(1 0 0 1 264.2585 430.2554)" style="fill:#676767; font-family:'OpenSans-Semibold'; font-size:4.6744px;">Employer</text>
			<g id="rILGUs_15_">

					<image style="overflow:visible;" width="1425" height="413" id="rILGUs_16_" xlink:href="40018CDC.jpg"  transform="matrix(3.732400e-02 0 0 3.732400e-02 107.8506 406.8831)">
				</image>
			</g>
			<g>
				<g>
					<g>
						<path style="fill:#1C649E;" d="M176.8,483.7c0,0.3-0.2,0.6-0.6,0.6h-67.8c-0.3,0-0.6-0.2-0.6-0.6v-6.4c0-0.3,0.2-0.6,0.6-0.6
							h67.8c0.3,0,0.6,0.2,0.6,0.6V483.7z"/>
					</g>
				</g>
				<g>
					<g>
						<path style="fill:#357DC0;" d="M176.8,483.1c0,0.3-0.2,0.6-0.6,0.6h-67.8c-0.3,0-0.6-0.2-0.6-0.6v-6.4c0-0.3,0.2-0.6,0.6-0.6
							h67.8c0.3,0,0.6,0.2,0.6,0.6V483.1z"/>
					</g>
				</g>

					<text transform="matrix(1 0 0 1 123.0349 481.5469)" class="st0" style="font-family:'OpenSans-Semibold'; font-size:3.8953px;">VIEW ALTERNATIVES</text>
			</g>
		</g>
		<line style="fill:none;stroke:#38BFC3;stroke-miterlimit:10;" x1="95.3" y1="601" x2="490.4" y2="601"/>
		<rect x="114" y="576.1" style="fill:none;" width="357.7" height="31.2"/>
		<text transform="matrix(1 0 0 1 186.0232 581.9116)"><tspan x="0" y="0" style="fill:#676767; font-family:'OpenSans'; font-size:8.1802px;">Want to </tspan><tspan x="28.8" y="0" style="fill:#333333; font-family:'OpenSans-Semibold'; font-size:8.1802px;">save an additional $18,250</tspan><tspan x="119.2" y="0" style="fill:#676767; font-family:'OpenSans'; font-size:8.1802px;"> a year off your medical bill? </tspan><tspan x="30.2" y="11.8" style="fill:#676767; font-family:'OpenSans'; font-size:8.1802px;">Add dental and vision to your medical quote. </tspan></text>
		<g>
			<polygon style="fill:#058D8D;" points="107.9,570.2 107.9,587.3 118.8,583 129.7,587.3 129.7,570.2 			"/>
			<g>
				<polygon style="fill:#38BFC3;" points="107.9,568.6 107.9,585.7 118.8,581.4 129.7,585.7 129.7,568.6 				"/>
				<g>
					<g>
						<text transform="matrix(1 0 0 1 110.6082 578.1001)"><tspan x="0" y="0" class="st0" style="font-family:'OpenSans-Semibold'; font-size:6.5897px;">S</tspan><tspan x="3.6" y="0" class="st0" style="font-family:'OpenSans-Semibold'; font-size:6.5897px;">A</tspan><tspan x="7.4" y="0" class="st0" style="font-family:'OpenSans-Semibold'; font-size:6.5897px;">V</tspan><tspan x="11.6" y="0" class="st0" style="font-family:'OpenSans-Semibold'; font-size:6.5897px;">E</tspan></text>
					</g>
				</g>
			</g>
		</g>
		<line style="fill:none;stroke:#38BFC3;stroke-miterlimit:10;" x1="95.3" y1="568.6" x2="490.4" y2="568.6"/>
		<g>
			<g>
				<g>
					<path style="fill:#1C649E;" d="M490.2,642.6c0,0.8-0.6,1.4-1.4,1.4H371c-0.8,0-1.4-0.6-1.4-1.4v-16.8c0-0.8,0.6-1.4,1.4-1.4
						h117.8c0.8,0,1.4,0.6,1.4,1.4V642.6z"/>
				</g>
			</g>
			<g>
				<g>
					<path style="fill:#357DC0;" d="M490.2,641c0,0.8-0.6,1.4-1.4,1.4H371c-0.8,0-1.4-0.6-1.4-1.4v-16.8c0-0.8,0.6-1.4,1.4-1.4
						h117.8c0.8,0,1.4,0.6,1.4,1.4V641z"/>
				</g>
			</g>
			<text transform="matrix(1 0 0 1 412.6082 634.8516)" class="st0" style="font-family:'OpenSans-Semibold'; font-size:6.7271px;">Add to cart</text>
		</g>
		<rect x="95.3" y="246.5" style="fill:none;stroke:#989898;stroke-width:0.5;stroke-miterlimit:10;" width="110.7" height="17.1"/>
		<text transform="matrix(1 0 0 1 114.863 257.1543)" style="fill:#357DC0; font-family:'OpenSans-Semibold'; font-size:4.6744px;">PLANS</text>

			<text transform="matrix(1 0 0 1 159.2595 257.1543)" style="fill:#989898; font-family:'OpenSans-Semibold'; font-size:4.6744px;">CONTRIBUTION</text>
		<rect x="95.3" y="246.5" style="fill:none;stroke:#357DC0;stroke-miterlimit:10;" width="55.4" height="17.1"/>
		<g>
			<path style="fill:#FFFFFF;stroke:#BDC0C2;stroke-linecap:round;stroke-linejoin:round;stroke-miterlimit:10;" d="M206.1,527.8
				c0,0.6-0.5,1.2-1.2,1.2H96.4c-0.6,0-1.2-0.5-1.2-1.2v-13.6c0-0.6,0.5-1.2,1.2-1.2h108.5c0.6,0,1.2,0.5,1.2,1.2V527.8z"/>
			<text transform="matrix(1 0 0 1 100.1394 522.499)" style="fill:#676767; font-family:'OpenSans'; font-size:5.064px;">HMO</text>

				<line style="fill:none;stroke:#5C6163;stroke-width:0.25;stroke-linecap:round;stroke-linejoin:round;stroke-miterlimit:10;" x1="190.9" y1="513" x2="190.9" y2="529"/>
			<polygon style="fill:#5C6163;" points="200.5,519.4 198.7,522.5 196.9,519.4 			"/>
		</g>

			<text transform="matrix(1 0 0 1 284.7332 279.8076)" style="fill:#989898; font-family:'OpenSans-Semibold'; font-size:5.4535px;">PLANS</text>
		<g>
			<rect x="75.3" y="96.1" style="opacity:0.2;fill:#39BFC2;" width="500.6" height="15.2"/>
			<text transform="matrix(1 0 0 1 106.696 106.2168)"><tspan x="0" y="0" style="fill:#7B858B; font-family:'OpenSans-Semibold'; font-size:5.064px;">Presentation:  </tspan><tspan x="30" y="0" style="fill:#23343D; font-family:'OpenSans-Semibold'; font-size:5.064px;">Baker Industries</tspan></text>

				<use xlink:href="#header_x5F_postauth_5"  width="1292" height="74" id="XMLID_7_" x="-646" y="-37" transform="matrix(0.3895 0 0 -0.3895 325.5512 84.7923)" style="overflow:visible;"/>

				<text transform="matrix(1 0 0 1 292.1794 106.2168)" style="fill:#7B858B; font-family:'OpenSans-Semibold'; font-size:4.6744px;">MEDICAL       DENTAL       VISION                </text>
			<line style="fill:none;stroke:#39BFC2;stroke-width:2;stroke-miterlimit:10;" x1="285.8" y1="111.3" x2="306.5" y2="111.3"/>

				<text transform="matrix(1 0 0 1 503.8005 106.2168)" style="fill:#7B858B; font-family:'OpenSans-Semibold'; font-size:4.6744px;">FINAL SELECTIONS</text>
			<g>
				<path style="fill:none;stroke:#999999;stroke-miterlimit:10;" d="M546.9,103.7l-1.7,3.8h8.6l1.5-3.5c0.1-0.3-0.1-0.5-0.4-0.5
					h-7.6C547.1,103.5,546.9,103.5,546.9,103.7z"/>
				<path style="fill:none;stroke:#999999;stroke-miterlimit:10;" d="M554.5,104v-1.9c0-0.3-0.3,0.4-0.6,0.4h-5.3
					c-0.1,0-0.2-0.5-0.3-0.6l-0.7-1c-0.1-0.1-0.2-0.4-0.3-0.4h-1.6c-0.3,0-1.2,0.3-1.2,0.6v5.9"/>
			</g>
			<g>
				<circle style="fill:#FF5F5D;" cx="555.4" cy="102" r="3.2"/>
				<text transform="matrix(1 0 0 1 554.2556 103.5059)" class="st0" style="font-family:'OpenSans-Bold'; font-size:4.2849px;">2</text>
			</g>
			<text transform="matrix(1 0 0 1 95.3591 123.5894)"><tspan x="0" y="0" style="fill:#357DC0; font-family:'OpenSans-Semibold'; font-size:4.6744px;">MEDICAL OPTIONS</tspan><tspan x="40.3" y="0" style="fill:#7B858B; font-family:'OpenSans-Semibold'; font-size:4.6744px;">  &gt;  </tspan><tspan x="47.1" y="0" style="fill:#357DC0; font-family:'OpenSans-Semibold'; font-size:4.6744px;">OPTION 1</tspan></text>

				<line style="fill:none;stroke:#BEC1C3;stroke-width:0.5;stroke-linecap:round;stroke-linejoin:round;stroke-miterlimit:10;" x1="95.4" y1="131.6" x2="490.5" y2="131.6"/>
		</g>
	</g>
	<use xlink:href="#SVGID_1_"  style="overflow:visible;fill:none;stroke:#AAAAAA;stroke-miterlimit:10;"/>
</g>
</svg>
