<?xml version="1.0" encoding="utf-8"?>
<!-- Generator: Adobe Illustrator 21.0.0, SVG Export Plug-In . SVG Version: 6.00 Build 0)  -->
<svg version="1.1" id="Слой_1" xmlns="http://www.w3.org/2000/svg" xmlns:xlink="http://www.w3.org/1999/xlink" x="0px" y="0px"
	 viewBox="50 50 300 300" style="enable-background:new 50 50 300 300;" xml:space="preserve">
<style type="text/css">
	.st0{fill:#FFFFFF;}
</style>
<symbol  id="header_x5F_postauth_6" viewBox="-646 -37 1292 74">
	<g>

			<image style="overflow:visible;opacity:0.4;" width="1292" height="74" xlink:href="E34BE38B.png"  transform="matrix(1 0 0 -1 -646 37)">
		</image>
		<g>
			<rect x="-642.5" y="-33" class="st0" width="1285" height="67"/>
		</g>
	</g>
	<g id="rILGUs_1_">

			<image style="overflow:visible;" width="1425" height="413" id="rILGUs_2_" xlink:href="E34BE389.jpg"  transform="matrix(9.547763e-02 0 0 -9.547763e-02 -595.9024 16.5392)">
		</image>
	</g>
	<text transform="matrix(1 0 0 -1 532.3843 -5.334)" style="fill:#7B858B; font-family:'OpenSans-Semibold'; font-size:12px;">jsmith</text>
	<text transform="matrix(1 0 0 -1 379.0679 -5.2837)" style="fill:#7B858B; font-family:'OpenSans-Semibold'; font-size:12px;">Team Members</text>
	<text transform="matrix(1 0 0 -1 275.8921 -5.2837)" style="fill:#7B858B; font-family:'OpenSans-Semibold'; font-size:12px;">Clients</text>
	<line style="fill:none;stroke:#CCCCCC;stroke-miterlimit:10;" x1="477.9" y1="15" x2="477.9" y2="-17"/>
	<path style="fill:#39BFC2;" d="M579.2-0.1l-1.2,1.2l-2.9-2.9l-2.9,2.9L571-0.1l4.1-4.1L579.2-0.1z"/>
	<g id="Users_1_">
		<g>
			<g>
				<path style="fill:none;stroke:#7B858B;stroke-miterlimit:10;" d="M345.1,6.1c0.1,2.2-1.8,3.9-3.9,3.9s-4-1.7-3.9-3.9
					c0-0.4,0.4-2.6,0.4-2.6c0.3-1.9,1.6-3.5,3.5-3.5c1.9,0,3.1,1.6,3.5,3.5C344.6,3.5,345.1,5.7,345.1,6.1z"/>
				<path style="fill:none;stroke:#7B858B;stroke-miterlimit:10;" d="M350.8-9.9h-19.3l0.3,3.8c0.2,1.4,1.6,2.4,3.1,2.7l6.3,0.8
					l6.3-0.8c1.6-0.3,3-1.2,3.1-2.9L350.8-9.9z"/>
			</g>
			<g>
				<path style="fill:none;stroke:#7B858B;stroke-miterlimit:10;" d="M355.3,3.5c0.1,1.7-1.4,3.1-3.1,3.1c-1.7,0-3.2-1.4-3.1-3.1
					c0-0.3,0.3-2,0.3-2c0.3-1.5,1.2-2.7,2.8-2.7c1.5,0,2.5,1.2,2.8,2.7C354.9,1.5,355.3,3.2,355.3,3.5z"/>
				<path style="fill:none;stroke:#7B858B;stroke-miterlimit:10;" d="M352.2-3.6l5.2-0.6c1.3-0.2,2.4-1,2.5-2.3l0.2-3.4h-6"/>
			</g>
		</g>
	</g>
	<g id="User_Alt_2_">
		<circle style="fill:none;stroke:#7B858B;stroke-miterlimit:10;" cx="507.8" cy="0.1" r="11.9"/>
		<g>
			<path style="fill:none;stroke:#7B858B;stroke-miterlimit:10;" d="M511.4,5.2c0.1,2-1.6,3.6-3.6,3.6s-3.7-1.6-3.6-3.6
				c0-0.4,0.4-2.4,0.4-2.4c0.3-1.8,1.4-3.2,3.2-3.2c1.8,0,2.9,1.5,3.2,3.2C511,2.8,511.4,4.8,511.4,5.2z"/>
			<path style="fill:none;stroke:#7B858B;stroke-miterlimit:10;" d="M499-8v0.3c0,1.6,1.2,2.8,2.8,3.2l6,1.1l6-1.1
				c1.5-0.5,2.8-1.6,2.8-3.2V-8"/>
		</g>
	</g>
	<g>
		<path id="Folder_2_" style="fill:none;stroke:#7B858B;stroke-miterlimit:10;" d="M257.5-11.8h-18.1c-2.7,0-4.8,2.2-4.8,4.8v18.1
			h9.7l2.4-3.6h15.7V-7C262.4-9.7,260.2-11.8,257.5-11.8z"/>
		<g id="User_2_">
			<path style="fill:none;stroke:#7B858B;stroke-miterlimit:10;" d="M251.5,0.5c0.1,1.7-1.4,3.1-3.1,3.1c-1.7,0-3.2-1.4-3.1-3.1
				c0-0.3,0.3-2.1,0.3-2.1c0.3-1.5,1.2-2.7,2.8-2.7s2.5,1.2,2.8,2.7C251.1-1.6,251.4,0.1,251.5,0.5z"/>
			<path style="fill:none;stroke:#7B858B;stroke-miterlimit:10;" d="M255.9-11.6h-15.1l0.4,2.7c0.2,0.9,1,1.4,1.8,1.6l5.4,1l5.4-0.9
				c0.9-0.2,1.7-0.7,1.8-1.6L255.9-11.6z"/>
		</g>
	</g>
</symbol>
<g style="opacity:0.79;">
	<defs>
		<circle id="SVGID_1_" style="opacity:0.79;" cx="200.5" cy="199.8" r="121.5"/>
	</defs>
	<clipPath id="SVGID_2_">
		<use xlink:href="#SVGID_1_"  style="overflow:visible;"/>
	</clipPath>
	<g style="clip-path:url(#SVGID_2_);">
		<rect x="57.8" y="-277.6" style="fill:#F4F4F4;" width="657.6" height="880.5"/>
		<line style="fill:none;stroke:#39BFC2;stroke-width:2;stroke-miterlimit:10;" x1="334.4" y1="-224.9" x2="379.1" y2="-224.9"/>
		<rect x="57.5" y="-245.9" style="opacity:0.2;fill:#39BFC2;" width="658.5" height="20"/>
		<text transform="matrix(1 0 0 1 81.3697 -232.6055)"><tspan x="0" y="0" style="fill:#7B858B; font-family:'OpenSans-Semibold'; font-size:6.6621px;">Installation:  </tspan><tspan x="35" y="0" style="fill:#23343D; font-family:'OpenSans-Semibold'; font-size:6.6621px;">Baker Industries</tspan></text>

			<use xlink:href="#header_x5F_postauth_6"  width="1292" height="74" id="XMLID_2_" x="-646" y="-37" transform="matrix(0.5125 0 0 -0.5125 386.7517 -260.7914)" style="overflow:visible;"/>

			<text transform="matrix(1 0 0 1 334.4146 -232.6055)" style="fill:#7B858B; font-family:'OpenSans-Semibold'; font-size:6.1497px;">QUESTIONAIRE          TIMELINE</text>
		<g>

				<image style="overflow:visible;opacity:0.45;" width="517" height="762" xlink:href="E34BE38F.png"  transform="matrix(1 0 0 1 78 -209)">
			</image>
			<g>
				<path class="st0" d="M591.2,548.8c0,0.6-0.5,1.1-1,1.1H82.4c-0.6,0-1-0.5-1-1.1v-753.7c0-0.6,0.5-1.1,1-1.1h507.8
					c0.6,0,1,0.5,1,1.1V548.8z"/>
			</g>
		</g>

			<rect x="231.5" y="61.1" style="fill:none;stroke:#A4A4A4;stroke-width:0.25;stroke-miterlimit:10;" width="191.3" height="14.9"/>

			<rect x="231.5" y="85.1" style="fill:none;stroke:#A4A4A4;stroke-width:0.25;stroke-miterlimit:10;" width="191.3" height="14.9"/>

			<rect x="231.5" y="109.4" style="fill:none;stroke:#A4A4A4;stroke-width:0.25;stroke-miterlimit:10;" width="191.3" height="14.9"/>
		<rect x="231.5" y="171.7" style="opacity:0.5;fill:#FCF4A1;stroke:#979937;stroke-miterlimit:10;" width="191.3" height="14.9"/>
		<rect x="231.5" y="196.2" style="opacity:0.5;fill:#FCF4A1;stroke:#979937;stroke-miterlimit:10;" width="191.3" height="14.9"/>
		<rect x="231.5" y="220.8" style="opacity:0.5;fill:#FCF4A1;stroke:#979937;stroke-miterlimit:10;" width="191.3" height="14.9"/>
		<rect x="231.5" y="245.3" style="opacity:0.5;fill:#FCF4A1;stroke:#979937;stroke-miterlimit:10;" width="191.3" height="14.9"/>
		<rect x="231.5" y="269.9" style="opacity:0.5;fill:#FCF4A1;stroke:#979937;stroke-miterlimit:10;" width="191.3" height="14.9"/>
		<rect x="231.5" y="294.4" style="opacity:0.5;fill:#FCF4A1;stroke:#979937;stroke-miterlimit:10;" width="191.3" height="14.9"/>
		<rect x="231.5" y="319" style="opacity:0.5;fill:#FCF4A1;stroke:#979937;stroke-miterlimit:10;" width="191.3" height="14.9"/>
		<rect x="231.5" y="343.6" style="opacity:0.5;fill:#FCF4A1;stroke:#979937;stroke-miterlimit:10;" width="191.3" height="14.9"/>
		<rect x="231.5" y="368.1" style="opacity:0.5;fill:#FCF4A1;stroke:#979937;stroke-miterlimit:10;" width="146.7" height="14.9"/>
		<rect x="231.5" y="392.7" style="opacity:0.5;fill:#FCF4A1;stroke:#979937;stroke-miterlimit:10;" width="191.3" height="14.9"/>
		<rect x="231.5" y="417.2" style="opacity:0.5;fill:#FCF4A1;stroke:#979937;stroke-miterlimit:10;" width="191.3" height="14.9"/>
		<rect x="97" y="-104.9" style="opacity:0.5;fill:#FCF4A1;" width="157.1" height="19.6"/>
		<g>
			<text transform="matrix(1 0 0 1 107.6138 -92.6353)" style="fill:#676767; font-family:'OpenSans-Italic'; font-size:7.1746px;">Please fill out missing info below</text>
		</g>
		<g>
			<g>
				<g>
					<path style="fill:#1C649E;" d="M415.9,531c0,1-0.8,1.9-1.9,1.9H259c-1,0-1.9-0.8-1.9-1.9v-22.1c0-1,0.8-1.9,1.9-1.9h155
						c1,0,1.9,0.8,1.9,1.9V531z"/>
				</g>
			</g>
			<g>
				<g>
					<path style="fill:#357DC0;" d="M415.9,528.9c0,1-0.8,1.9-1.9,1.9H259c-1,0-1.9-0.8-1.9-1.9v-22.1c0-1,0.8-1.9,1.9-1.9h155
						c1,0,1.9,0.8,1.9,1.9V528.9z"/>
				</g>
			</g>
			<text transform="matrix(1 0 0 1 322.0914 520.8286)" class="st0" style="font-family:'OpenSans-Semibold'; font-size:8.8502px;">Submit</text>
		</g>
		<g>

				<text transform="matrix(1 0 0 1 97.3697 473.5737)" style="fill:#676767; font-family:'OpenSans-Semibold'; font-size:5.6372px;">Send to client ABC, Inc</text>
		</g>
		<g>
			<text transform="matrix(1 0 0 1 97.3707 -177.2813)" style="fill:#686C6B; font-family:'OpenSans-Light'; font-size:18.449px;">Installation Questionaire</text>
		</g>
		<rect x="81.6" y="-74.6" style="fill:#EAEAE9;" width="509.9" height="17.4"/>
		<g>
			<text transform="matrix(1 0 0 1 97.3697 -40.108)"><tspan x="0" y="0" style="fill:#676767; font-family:'OpenSans'; font-size:7.1746px;">Effective Date:</tspan><tspan x="0" y="24.6" style="fill:#676767; font-family:'OpenSans'; font-size:7.1746px;">Policy Number:</tspan><tspan x="0" y="49.2" style="fill:#676767; font-family:'OpenSans'; font-size:7.1746px;">Date Questionnaire Completed:</tspan></text>
		</g>
		<g>
			<text transform="matrix(1 0 0 1 97.3707 -150.6382)"><tspan x="0" y="0" style="fill:#676767; font-family:'OpenSans'; font-size:9.2245px;">To: ABC, Inc. </tspan><tspan x="0" y="11.1" style="fill:#676767; font-family:'OpenSans'; font-size:9.2245px;">johns@abcinc.com</tspan></text>
		</g>
		<g>
			<text transform="matrix(1 0 0 1 231.4957 -150.6382)"><tspan x="0" y="0" style="fill:#676767; font-family:'OpenSans'; font-size:9.2245px;">From: Broker </tspan><tspan x="0" y="11.1" style="fill:#676767; font-family:'OpenSans'; font-size:9.2245px;">jimh@broker.com</tspan></text>
		</g>
		<g>
			<text transform="matrix(1 0 0 1 378.2056 -150.6382)"><tspan x="0" y="0" style="fill:#676767; font-family:'OpenSans'; font-size:9.2245px;">Sent: 01.15.2016 </tspan><tspan x="0" y="11.1" style="fill:#676767; font-family:'OpenSans'; font-size:9.2245px;">Complete by: </tspan><tspan x="53.2" y="11.1" style="fill:#0098CC; font-family:'OpenSans-Semibold'; font-size:9.2245px;">01.28.16</tspan></text>
		</g>
		<g>

				<text transform="matrix(1 0 0 1 97.3697 -63.4244)" style="fill:#676767; font-family:'OpenSans-Semibold'; font-size:5.6372px;">Administrative Information</text>
		</g>
		<line style="fill:none;stroke:#A4A4A4;stroke-width:0.25;stroke-miterlimit:10;" x1="81.6" y1="-57.1" x2="591.5" y2="-57.1"/>
		<line style="fill:none;stroke:#A4A4A4;stroke-width:0.25;stroke-miterlimit:10;" x1="81.6" y1="-74.6" x2="591.5" y2="-74.6"/>
		<line style="fill:none;stroke:#A4A4A4;stroke-width:0.25;stroke-miterlimit:10;" x1="81.6" y1="-116.8" x2="591.5" y2="-116.8"/>
		<rect x="81.6" y="35.6" style="fill:#EAEAE9;" width="509.9" height="17.4"/>
		<g>
			<text transform="matrix(1 0 0 1 97.3697 70.0659)"><tspan x="0" y="0" style="fill:#676767; font-family:'OpenSans'; font-size:7.1746px;">Legal Company Name</tspan><tspan x="0" y="24.6" style="fill:#676767; font-family:'OpenSans'; font-size:7.1746px;">Address / P.O. Box</tspan><tspan x="0" y="49.2" style="fill:#676767; font-family:'OpenSans'; font-size:7.1746px;">City, State, Zip</tspan></text>
		</g>
		<g>
			<text transform="matrix(1 0 0 1 97.3697 46.7504)" style="fill:#676767; font-family:'OpenSans-Semibold'; font-size:5.6372px;">Corporate Customer Information</text>
		</g>
		<line style="fill:none;stroke:#A4A4A4;stroke-width:0.25;stroke-miterlimit:10;" x1="81.6" y1="53" x2="591.5" y2="53"/>
		<g>
			<text transform="matrix(1 0 0 1 242.5425 -40.108)"><tspan x="0" y="0" style="fill:#333333; font-family:'OpenSans-Semibold'; font-size:7.1746px;">01.01.2016</tspan><tspan x="0" y="24.6" style="fill:#333333; font-family:'OpenSans-Semibold'; font-size:7.1746px;">3232443432-334</tspan><tspan x="0" y="49.2" style="fill:#333333; font-family:'OpenSans-Semibold'; font-size:7.1746px;">01.28.2016</tspan></text>
		</g>
		<g>
			<text transform="matrix(1 0 0 1 242.5425 70.6635)"><tspan x="0" y="0" style="fill:#333333; font-family:'OpenSans-Semibold'; font-size:7.1746px;">ABC, Inc.</tspan><tspan x="0" y="24.6" style="fill:#333333; font-family:'OpenSans-Semibold'; font-size:7.1746px;">123 Mark lane</tspan><tspan x="0" y="49.2" style="fill:#333333; font-family:'OpenSans-Semibold'; font-size:7.1746px;">San Jose, CA 94920</tspan></text>
		</g>
		<rect x="81.6" y="146.3" style="fill:#EAEAE9;" width="509.9" height="17.4"/>
		<g>
			<text transform="matrix(1 0 0 1 97.3697 180.7285)"><tspan x="0" y="0" style="fill:#676767; font-family:'OpenSans'; font-size:7.1746px;">Day to Day Contact Name</tspan><tspan x="0" y="24.6" style="fill:#676767; font-family:'OpenSans'; font-size:7.1746px;">Title</tspan><tspan x="0" y="49.2" style="fill:#676767; font-family:'OpenSans'; font-size:7.1746px;">Address / P.O. Box</tspan><tspan x="0" y="73.8" style="fill:#676767; font-family:'OpenSans'; font-size:7.1746px;">City, State, Zip</tspan><tspan x="0" y="98.4" style="fill:#676767; font-family:'OpenSans'; font-size:7.1746px;">Office Telephone</tspan><tspan x="0" y="123" style="fill:#676767; font-family:'OpenSans'; font-size:7.1746px;">Fax Number</tspan><tspan x="0" y="147.6" style="fill:#676767; font-family:'OpenSans'; font-size:7.1746px;">E-mail Address</tspan><tspan x="0" y="172.2" style="fill:#676767; font-family:'OpenSans'; font-size:7.1746px;">Type of Business</tspan><tspan x="0" y="196.8" style="fill:#676767; font-family:'OpenSans'; font-size:7.1746px;">Type of Organization</tspan><tspan x="0" y="221.4" style="fill:#676767; font-family:'OpenSans'; font-size:7.1746px;">Company Federal Tax Identification #</tspan><tspan x="0" y="246" style="fill:#676767; font-family:'OpenSans'; font-size:7.1746px;">Situs State</tspan></text>
		</g>
		<g>
			<text transform="matrix(1 0 0 1 97.3697 157.413)" style="fill:#676767; font-family:'OpenSans-Semibold'; font-size:5.6372px;">Corporate Customer Contact Information</text>
		</g>
		<line style="fill:none;stroke:#A4A4A4;stroke-width:0.25;stroke-miterlimit:10;" x1="81.6" y1="163.7" x2="591.5" y2="163.7"/>
		<rect x="81.6" y="461.9" style="fill:#EAEAE9;" width="509.9" height="17.4"/>
		<line style="fill:none;stroke:#A4A4A4;stroke-width:0.25;stroke-miterlimit:10;" x1="81.6" y1="479.3" x2="591.5" y2="479.3"/>
		<line style="fill:none;stroke:#A4A4A4;stroke-width:0.25;stroke-miterlimit:10;" x1="81.6" y1="35.6" x2="591.5" y2="35.6"/>
		<g>
			<text transform="matrix(1 0 0 1 242.5425 181.1938)"><tspan x="0" y="0" style="fill:#989898; font-family:'OpenSans-Italic'; font-size:7.1746px;"> including Contracts, eServices, CMA</tspan><tspan x="0" y="49.2" style="fill:#989898; font-family:'OpenSans-Italic'; font-size:7.1746px;">30 Character limit</tspan><tspan x="0" y="172.2" style="fill:#989898; font-family:'OpenSans-Italic'; font-size:7.1746px;"> Industry or Service</tspan><tspan x="0" y="196.8" style="fill:#676767; font-family:'OpenSans-Italic'; font-size:7.1746px;">Choose</tspan><tspan x="0" y="246" style="fill:#989898; font-family:'OpenSans-Italic'; font-size:7.1746px;">State of Issue</tspan></text>
		</g>

			<rect x="231.5" y="-49.6" style="fill:none;stroke:#A4A4A4;stroke-width:0.25;stroke-miterlimit:10;" width="191.3" height="14.9"/>

			<rect x="231.5" y="-25.5" style="fill:none;stroke:#A4A4A4;stroke-width:0.25;stroke-miterlimit:10;" width="191.3" height="14.9"/>

			<rect x="231.5" y="-0.6" style="fill:none;stroke:#A4A4A4;stroke-width:0.25;stroke-miterlimit:10;" width="191.3" height="14.9"/>
		<polygon style="fill:#676767;" points="371.6,372.4 368.3,378.1 365,372.4 		"/>
		<line style="fill:none;stroke:#A4A4A4;stroke-width:0.25;stroke-miterlimit:10;" x1="357.4" y1="368.1" x2="357.4" y2="382.7"/>
	</g>
	<use xlink:href="#SVGID_1_"  style="overflow:visible;fill:none;stroke:#AAAAAA;stroke-miterlimit:10;"/>
</g>
</svg>
