<?xml version="1.0" encoding="utf-8"?>
<!-- Generator: Adobe Illustrator 21.0.0, SVG Export Plug-In . SVG Version: 6.00 Build 0)  -->
<svg version="1.1" id="Слой_1" xmlns="http://www.w3.org/2000/svg" xmlns:xlink="http://www.w3.org/1999/xlink" x="0px" y="0px"
	 viewBox="50 50 300 300" style="enable-background:new 50 50 300 300;" xml:space="preserve">
<style type="text/css">
	.st0{fill:#FFFFFF;}
</style>
<symbol  id="header_x5F_postauth_6" viewBox="-646 -37 1292 74">
	<g>

			<image style="overflow:visible;opacity:0.4;" width="1292" height="74" xlink:href="DF5D4F55.png"  transform="matrix(1 0 0 -1 -646 37)">
		</image>
		<g>
			<rect x="-642.5" y="-33" class="st0" width="1285" height="67"/>
		</g>
	</g>
	<g id="rILGUs_1_">

			<image style="overflow:visible;" width="1425" height="413" id="rILGUs_2_" xlink:href="DF5D4F57.jpg"  transform="matrix(9.547763e-02 0 0 -9.547763e-02 -595.9024 16.5392)">
		</image>
	</g>
	<text transform="matrix(1 0 0 -1 532.3843 -5.334)" style="fill:#7B858B; font-family:'OpenSans-Semibold'; font-size:12px;">jsmith</text>
	<text transform="matrix(1 0 0 -1 379.0679 -5.2837)" style="fill:#7B858B; font-family:'OpenSans-Semibold'; font-size:12px;">Team Members</text>
	<text transform="matrix(1 0 0 -1 275.8921 -5.2837)" style="fill:#7B858B; font-family:'OpenSans-Semibold'; font-size:12px;">Clients</text>
	<line style="fill:none;stroke:#CCCCCC;stroke-miterlimit:10;" x1="477.9" y1="15" x2="477.9" y2="-17"/>
	<path style="fill:#39BFC2;" d="M579.2-0.1l-1.2,1.2l-2.9-2.9l-2.9,2.9L571-0.1l4.1-4.1L579.2-0.1z"/>
	<g id="Users_1_">
		<g>
			<g>
				<path style="fill:none;stroke:#7B858B;stroke-miterlimit:10;" d="M345.1,6.1c0.1,2.2-1.8,3.9-3.9,3.9s-4-1.7-3.9-3.9
					c0-0.4,0.4-2.6,0.4-2.6c0.3-1.9,1.6-3.5,3.5-3.5c1.9,0,3.1,1.6,3.5,3.5C344.6,3.5,345.1,5.7,345.1,6.1z"/>
				<path style="fill:none;stroke:#7B858B;stroke-miterlimit:10;" d="M350.8-9.9h-19.3l0.3,3.8c0.2,1.4,1.6,2.4,3.1,2.7l6.3,0.8
					l6.3-0.8c1.6-0.3,3-1.2,3.1-2.9L350.8-9.9z"/>
			</g>
			<g>
				<path style="fill:none;stroke:#7B858B;stroke-miterlimit:10;" d="M355.3,3.5c0.1,1.7-1.4,3.1-3.1,3.1c-1.7,0-3.2-1.4-3.1-3.1
					c0-0.3,0.3-2,0.3-2c0.3-1.5,1.2-2.7,2.8-2.7c1.5,0,2.5,1.2,2.8,2.7C354.9,1.5,355.3,3.2,355.3,3.5z"/>
				<path style="fill:none;stroke:#7B858B;stroke-miterlimit:10;" d="M352.2-3.6l5.2-0.6c1.3-0.2,2.4-1,2.5-2.3l0.2-3.4h-6"/>
			</g>
		</g>
	</g>
	<g id="User_Alt_2_">
		<circle style="fill:none;stroke:#7B858B;stroke-miterlimit:10;" cx="507.8" cy="0.1" r="11.9"/>
		<g>
			<path style="fill:none;stroke:#7B858B;stroke-miterlimit:10;" d="M511.4,5.2c0.1,2-1.6,3.6-3.6,3.6s-3.7-1.6-3.6-3.6
				c0-0.4,0.4-2.4,0.4-2.4c0.3-1.8,1.4-3.2,3.2-3.2c1.8,0,2.9,1.5,3.2,3.2C511,2.8,511.4,4.8,511.4,5.2z"/>
			<path style="fill:none;stroke:#7B858B;stroke-miterlimit:10;" d="M499-8v0.3c0,1.6,1.2,2.8,2.8,3.2l6,1.1l6-1.1
				c1.5-0.5,2.8-1.6,2.8-3.2V-8"/>
		</g>
	</g>
	<g>
		<path id="Folder_2_" style="fill:none;stroke:#7B858B;stroke-miterlimit:10;" d="M257.5-11.8h-18.1c-2.7,0-4.8,2.2-4.8,4.8v18.1
			h9.7l2.4-3.6h15.7V-7C262.4-9.7,260.2-11.8,257.5-11.8z"/>
		<g id="User_2_">
			<path style="fill:none;stroke:#7B858B;stroke-miterlimit:10;" d="M251.5,0.5c0.1,1.7-1.4,3.1-3.1,3.1c-1.7,0-3.2-1.4-3.1-3.1
				c0-0.3,0.3-2.1,0.3-2.1c0.3-1.5,1.2-2.7,2.8-2.7s2.5,1.2,2.8,2.7C251.1-1.6,251.4,0.1,251.5,0.5z"/>
			<path style="fill:none;stroke:#7B858B;stroke-miterlimit:10;" d="M255.9-11.6h-15.1l0.4,2.7c0.2,0.9,1,1.4,1.8,1.6l5.4,1l5.4-0.9
				c0.9-0.2,1.7-0.7,1.8-1.6L255.9-11.6z"/>
		</g>
	</g>
</symbol>
<g style="opacity:0.79;">
	<defs>
		<circle id="SVGID_1_" style="opacity:0.79;" cx="200.5" cy="199.8" r="121.5"/>
	</defs>
	<clipPath id="SVGID_2_">
		<use xlink:href="#SVGID_1_"  style="overflow:visible;"/>
	</clipPath>
	<g style="clip-path:url(#SVGID_2_);">
		<rect x="-123.7" y="-66.5" style="fill:#F4F4F4;" width="612" height="546.2"/>
		<line style="fill:none;stroke:#39BFC2;stroke-width:2;stroke-miterlimit:10;" x1="189.4" y1="-17.5" x2="215.9" y2="-17.5"/>
		<rect x="-124" y="-37.1" style="opacity:0.2;fill:#39BFC2;" width="612.8" height="18.6"/>
		<text transform="matrix(1 0 0 1 -101.7747 -24.6652)"><tspan x="0" y="0" style="fill:#7B858B; font-family:'OpenSans-Semibold'; font-size:6.1996px;">Installation:  </tspan><tspan x="32.6" y="0" style="fill:#23343D; font-family:'OpenSans-Semibold'; font-size:6.1996px;">Baker Industries</tspan></text>

			<use xlink:href="#header_x5F_postauth_6"  width="1292" height="74" id="XMLID_5_" x="-646" y="-37" transform="matrix(0.4769 0 0 -0.4769 182.4091 -50.8944)" style="overflow:visible;"/>

			<text transform="matrix(1 0 0 1 133.7058 -24.6652)" style="fill:#7B858B; font-family:'OpenSans-Semibold'; font-size:5.7227px;">QUESTIONAIRE          TIMELINE</text>
		<g>

				<image style="overflow:visible;opacity:0.45;" width="482" height="419" xlink:href="DF5D4F52.png"  transform="matrix(1 0 0 1 -105 -3)">
			</image>
			<g>
				<path class="st0" d="M373.2,411.6c0,0.5-0.4,1-1,1h-472.6c-0.5,0-1-0.4-1-1V1.5c0-0.5,0.4-1,1-1h472.6c0.5,0,1,0.4,1,1V411.6z"
					/>
			</g>
		</g>
		<g>

				<image style="overflow:visible;opacity:0.45;" width="482" height="419" xlink:href="DF5D4F53.png"  transform="matrix(1 0 0 1 -105 -3)">
			</image>
			<g>
				<path class="st0" d="M373.2,411.6c0,0.5-0.4,1-1,1h-472.6c-0.5,0-1-0.4-1-1V1.5c0-0.5,0.4-1,1-1h472.6c0.5,0,1,0.4,1,1V411.6z"
					/>
			</g>
		</g>
		<g>
			<g>
				<path style="opacity:8.000000e-02;fill:#0E493E;" d="M285.1,75.3l-7.4,7.7l0,0.8l0.3,0l8-6.5C285.8,76.7,285.5,76,285.1,75.3z"
					/>
				<path style="fill:#8AC440;" d="M286.3,75l-1.5-1.5c-0.2-0.2-0.5-0.2-0.7,0l-6.3,6.5l-2.7-2.7c-0.2-0.2-0.5-0.2-0.7,0l-1.3,1.3
					c-0.2,0.2-0.2,0.5,0,0.7l4.4,4.3c0.1,0.1,0.3,0.2,0.4,0.1c0.2,0,0.3,0,0.4-0.1l8.1-8C286.5,75.5,286.5,75.2,286.3,75z"/>
				<path style="fill:#7AAC42;" d="M278.2,83.7l8.1-8c0.2-0.2,0.2-0.5,0-0.7l-0.2-0.2l-8.3,8.2l-4.6-4.5l-0.2,0.2
					c-0.2,0.2-0.2,0.5,0,0.7l4.4,4.3c0.1,0.1,0.3,0.2,0.4,0.1C277.9,83.9,278.1,83.8,278.2,83.7z"/>
			</g>
		</g>
		<g>
			<g>
				<path style="opacity:8.000000e-02;fill:#0E493E;" d="M285.1,97.7l-7.4,7.7l0,0.8l0.3,0l8-6.5C285.8,99,285.5,98.3,285.1,97.7z"
					/>
				<path style="fill:#8AC440;" d="M286.3,97.3l-1.5-1.5c-0.2-0.2-0.5-0.2-0.7,0l-6.3,6.5l-2.7-2.7c-0.2-0.2-0.5-0.2-0.7,0L273,101
					c-0.2,0.2-0.2,0.5,0,0.7l4.4,4.3c0.1,0.1,0.3,0.2,0.4,0.1c0.2,0,0.3,0,0.4-0.1l8.1-8C286.5,97.9,286.5,97.5,286.3,97.3z"/>
				<path style="fill:#7AAC42;" d="M278.2,106.1l8.1-8c0.2-0.2,0.2-0.5,0-0.7l-0.2-0.2l-8.3,8.2l-4.6-4.5L273,101
					c-0.2,0.2-0.2,0.5,0,0.7l4.4,4.3c0.1,0.1,0.3,0.2,0.4,0.1C277.9,106.2,278.1,106.2,278.2,106.1z"/>
			</g>
		</g>
		<g>
			<g>
				<path style="opacity:8.000000e-02;fill:#0E493E;" d="M285.1,120.1l-7.4,7.7l0,0.8l0.3,0l8-6.5
					C285.8,121.4,285.5,120.7,285.1,120.1z"/>
				<path style="fill:#8AC440;" d="M286.3,119.7l-1.5-1.5c-0.2-0.2-0.5-0.2-0.7,0l-6.3,6.5l-2.7-2.7c-0.2-0.2-0.5-0.2-0.7,0
					l-1.3,1.3c-0.2,0.2-0.2,0.5,0,0.7l4.4,4.3c0.1,0.1,0.3,0.2,0.4,0.1c0.2,0,0.3,0,0.4-0.1l8.1-8
					C286.5,120.2,286.5,119.9,286.3,119.7z"/>
				<path style="fill:#7AAC42;" d="M278.2,128.4l8.1-8c0.2-0.2,0.2-0.5,0-0.7l-0.2-0.2l-8.3,8.2l-4.6-4.5l-0.2,0.2
					c-0.2,0.2-0.2,0.5,0,0.7l4.4,4.3c0.1,0.1,0.3,0.2,0.4,0.1C277.9,128.6,278.1,128.5,278.2,128.4z"/>
			</g>
		</g>
		<g>
			<g>
				<path style="opacity:8.000000e-02;fill:#0E493E;" d="M285.1,142.4l-7.4,7.7l0,0.8l0.3,0l8-6.5
					C285.8,143.7,285.5,143.1,285.1,142.4z"/>
				<path style="fill:#8AC440;" d="M286.3,142.1l-1.5-1.5c-0.2-0.2-0.5-0.2-0.7,0l-6.3,6.5l-2.7-2.7c-0.2-0.2-0.5-0.2-0.7,0
					l-1.3,1.3c-0.2,0.2-0.2,0.5,0,0.7l4.4,4.3c0.1,0.1,0.3,0.2,0.4,0.1c0.2,0,0.3,0,0.4-0.1l8.1-8
					C286.5,142.6,286.5,142.3,286.3,142.1z"/>
				<path style="fill:#7AAC42;" d="M278.2,150.8l8.1-8c0.2-0.2,0.2-0.5,0-0.7l-0.2-0.2l-8.3,8.2l-4.6-4.5l-0.2,0.2
					c-0.2,0.2-0.2,0.5,0,0.7l4.4,4.3c0.1,0.1,0.3,0.2,0.4,0.1C277.9,151,278.1,150.9,278.2,150.8z"/>
			</g>
		</g>
		<g>
			<g>
				<path style="opacity:8.000000e-02;fill:#0E493E;" d="M285.1,164.8l-7.4,7.7l0,0.8l0.3,0l8-6.5
					C285.8,166.1,285.5,165.4,285.1,164.8z"/>
				<path style="fill:#8AC440;" d="M286.3,164.4l-1.5-1.5c-0.2-0.2-0.5-0.2-0.7,0l-6.3,6.5l-2.7-2.7c-0.2-0.2-0.5-0.2-0.7,0
					l-1.3,1.3c-0.2,0.2-0.2,0.5,0,0.7l4.4,4.3c0.1,0.1,0.3,0.2,0.4,0.1c0.2,0,0.3,0,0.4-0.1l8.1-8
					C286.5,165,286.5,164.6,286.3,164.4z"/>
				<path style="fill:#7AAC42;" d="M278.2,173.2l8.1-8c0.2-0.2,0.2-0.5,0-0.7l-0.2-0.2l-8.3,8.2l-4.6-4.5l-0.2,0.2
					c-0.2,0.2-0.2,0.5,0,0.7l4.4,4.3c0.1,0.1,0.3,0.2,0.4,0.1C277.9,173.3,278.1,173.3,278.2,173.2z"/>
			</g>
		</g>
		<g>
			<g>
				<path style="opacity:8.000000e-02;fill:#0E493E;" d="M285.1,187.1l-7.4,7.7l0,0.8l0.3,0l8-6.5
					C285.8,188.5,285.5,187.8,285.1,187.1z"/>
				<path style="fill:#8AC440;" d="M286.3,186.8l-1.5-1.5c-0.2-0.2-0.5-0.2-0.7,0l-6.3,6.5l-2.7-2.7c-0.2-0.2-0.5-0.2-0.7,0
					l-1.3,1.3c-0.2,0.2-0.2,0.5,0,0.7l4.4,4.3c0.1,0.1,0.3,0.2,0.4,0.1c0.2,0,0.3,0,0.4-0.1l8.1-8
					C286.5,187.3,286.5,187,286.3,186.8z"/>
				<path style="fill:#7AAC42;" d="M278.2,195.5l8.1-8c0.2-0.2,0.2-0.5,0-0.7l-0.2-0.2l-8.3,8.2l-4.6-4.5l-0.2,0.2
					c-0.2,0.2-0.2,0.5,0,0.7l4.4,4.3c0.1,0.1,0.3,0.2,0.4,0.1C277.9,195.7,278.1,195.6,278.2,195.5z"/>
			</g>
		</g>
		<g>
			<g>
				<path style="opacity:8.000000e-02;fill:#0E493E;" d="M285.1,211.4l-7.4,7.7l0,0.8l0.3,0l8-6.5
					C285.8,212.7,285.5,212,285.1,211.4z"/>
				<path style="fill:#8AC440;" d="M286.3,211l-1.5-1.5c-0.2-0.2-0.5-0.2-0.7,0l-6.3,6.5l-2.7-2.7c-0.2-0.2-0.5-0.2-0.7,0l-1.3,1.3
					c-0.2,0.2-0.2,0.5,0,0.7l4.4,4.3c0.1,0.1,0.3,0.2,0.4,0.1c0.2,0,0.3,0,0.4-0.1l8.1-8C286.5,211.6,286.5,211.2,286.3,211z"/>
				<path style="fill:#7AAC42;" d="M278.2,219.8l8.1-8c0.2-0.2,0.2-0.5,0-0.7l-0.2-0.2l-8.3,8.2l-4.6-4.5l-0.2,0.2
					c-0.2,0.2-0.2,0.5,0,0.7l4.4,4.3c0.1,0.1,0.3,0.2,0.4,0.1C277.9,219.9,278.1,219.9,278.2,219.8z"/>
			</g>
		</g>
		<g style="opacity:0.5;">

				<image style="overflow:visible;opacity:0.4;" width="482" height="32" xlink:href="DF5D4F5D.png"  transform="matrix(1 0 0 1 -105 222)">
			</image>
			<g>
				<path style="fill:#EAEDF0;" d="M373.2,249.8c0,0.4-0.5,0.8-1.1,0.8h-472.2c-0.6,0-1.1-0.3-1.1-0.8v-23.1c0-0.4,0.5-0.8,1.1-0.8
					H372c0.6,0,1.1,0.3,1.1,0.8V249.8z"/>
			</g>
		</g>
		<rect x="-101.9" y="49.7" style="opacity:0.6;fill:#E9E8E7;" width="474.5" height="16.2"/>
		<g>
			<text transform="matrix(1 0 0 1 -57.175 81.8143)"><tspan x="0" y="0" style="fill:#676767; font-family:'OpenSans'; font-size:6.6765px;">Confirm Final Notification of Sale</tspan><tspan x="0" y="22.9" style="fill:#676767; font-family:'OpenSans'; font-size:6.6765px;">Complete Group Application</tspan><tspan x="0" y="45.8" style="fill:#676767; font-family:'OpenSans'; font-size:6.6765px;">Determine Open Enrollment Support</tspan><tspan x="0" y="68.7" style="fill:#676767; font-family:'OpenSans'; font-size:6.6765px;">Kick Off Call with UHC Implementation Manager</tspan><tspan x="0" y="91.6" style="fill:#676767; font-family:'OpenSans'; font-size:6.6765px;">Submit group for quality review</tspan><tspan x="0" y="114.5" style="fill:#676767; font-family:'OpenSans'; font-size:6.6765px;">Structure received and sent for approval and sign-off</tspan></text>
		</g>
		<g>
			<text transform="matrix(1 0 0 1 270.9666 240.6146)"><tspan x="0" y="0" style="fill:#676767; font-family:'OpenSansLight-Italic'; font-size:6.6765px;">In progress</tspan><tspan x="0" y="22.9" style="fill:#676767; font-family:'OpenSansLight-Italic'; font-size:6.6765px;">In progress</tspan><tspan x="0" y="45.8" style="fill:#676767; font-family:'OpenSansLight-Italic'; font-size:6.6765px;">In progress</tspan><tspan x="0" y="68.7" style="fill:#676767; font-family:'OpenSansLight-Italic'; font-size:6.6765px;">In progress</tspan><tspan x="0" y="91.6" style="fill:#676767; font-family:'OpenSansLight-Italic'; font-size:6.6765px;">In progress</tspan><tspan x="0" y="114.5" style="fill:#676767; font-family:'OpenSansLight-Italic'; font-size:6.6765px;">In progress</tspan><tspan x="0" y="137.3" style="fill:#676767; font-family:'OpenSansLight-Italic'; font-size:6.6765px;">In progress</tspan></text>
		</g>
		<g>
			<text transform="matrix(1 0 0 1 204.783 81.8143)"><tspan x="0" y="0" style="fill:#676767; font-family:'OpenSans'; font-size:6.6765px;">09-08-15</tspan><tspan x="0" y="22.9" style="fill:#676767; font-family:'OpenSans'; font-size:6.6765px;">09-10-15</tspan><tspan x="0" y="45.8" style="fill:#676767; font-family:'OpenSans'; font-size:6.6765px;">09-11-15</tspan><tspan x="0" y="68.7" style="fill:#676767; font-family:'OpenSans'; font-size:6.6765px;">09-16-15</tspan><tspan x="0" y="91.6" style="fill:#676767; font-family:'OpenSans'; font-size:6.6765px;">09-17-15</tspan><tspan x="0" y="114.5" style="fill:#676767; font-family:'OpenSans'; font-size:6.6765px;">09-18-15</tspan></text>
		</g>
		<g>
			<text transform="matrix(1 0 0 1 131.9246 81.8143)"><tspan x="0" y="0" style="fill:#676767; font-family:'OpenSans'; font-size:6.6765px;">ABC Inc. </tspan><tspan x="0" y="22.9" style="fill:#676767; font-family:'OpenSans'; font-size:6.6765px;">Broker / ABC Inc. </tspan><tspan x="0" y="45.8" style="fill:#676767; font-family:'OpenSans'; font-size:6.6765px;">ABC Inc / UHC</tspan><tspan x="0" y="68.7" style="fill:#676767; font-family:'OpenSans'; font-size:6.6765px;">All Parties</tspan><tspan x="0" y="91.6" style="fill:#676767; font-family:'OpenSans'; font-size:6.6765px;">UHC</tspan><tspan x="0" y="114.5" style="fill:#676767; font-family:'OpenSans'; font-size:6.6765px;">UHC</tspan></text>
		</g>
		<g>
			<text transform="matrix(1 0 0 1 -88.1721 81.8143)"><tspan x="0" y="0" style="fill:#676767; font-family:'OpenSans'; font-size:6.6765px;">1</tspan><tspan x="0" y="22.9" style="fill:#676767; font-family:'OpenSans'; font-size:6.6765px;">2</tspan><tspan x="0" y="45.8" style="fill:#676767; font-family:'OpenSans'; font-size:6.6765px;">3</tspan><tspan x="0" y="68.7" style="fill:#676767; font-family:'OpenSans'; font-size:6.6765px;">4</tspan><tspan x="0" y="91.6" style="fill:#676767; font-family:'OpenSans'; font-size:6.6765px;">5</tspan><tspan x="0" y="114.5" style="fill:#676767; font-family:'OpenSans'; font-size:6.6765px;">6</tspan></text>
		</g>
		<g>
			<text transform="matrix(1 0 0 1 -57.175 217.7235)"><tspan x="0" y="0" style="fill:#676767; font-family:'OpenSans'; font-size:6.6765px;">Sign off structure approval </tspan><tspan x="0" y="22.9" style="fill:#333333; font-family:'OpenSans-Semibold'; font-size:6.6765px;">Customer Service documents loaded</tspan><tspan x="0" y="45.8" style="fill:#333333; font-family:'OpenSans-Semibold'; font-size:6.6765px;">Receive eligibility</tspan><tspan x="0" y="68.7" style="fill:#333333; font-family:'OpenSans-Semibold'; font-size:6.6765px;">Eligibility file load complete</tspan><tspan x="0" y="91.6" style="fill:#333333; font-family:'OpenSans-Semibold'; font-size:6.6765px;">ID Cards Postmarked</tspan><tspan x="0" y="114.5" style="fill:#333333; font-family:'OpenSans-Semibold'; font-size:6.6765px;">Benefit load complete in claim system</tspan><tspan x="0" y="137.3" style="fill:#333333; font-family:'OpenSans-Semibold'; font-size:6.6765px;">Customer Claim Ready</tspan><tspan x="0" y="160.2" style="fill:#333333; font-family:'OpenSans-Semibold'; font-size:6.6765px;">Customer Service Ready</tspan></text>
		</g>
		<g>
			<text transform="matrix(1 0 0 1 204.783 217.7235)"><tspan x="0" y="0" style="fill:#676767; font-family:'OpenSans'; font-size:6.6765px;">09-21-15</tspan><tspan x="0" y="22.9" style="fill:#333333; font-family:'OpenSans-Semibold'; font-size:6.6765px;">09-23-15</tspan><tspan x="0" y="45.8" style="fill:#333333; font-family:'OpenSans-Semibold'; font-size:6.6765px;">10-15-15</tspan><tspan x="0" y="68.7" style="fill:#333333; font-family:'OpenSans-Semibold'; font-size:6.6765px;">10-22-15</tspan><tspan x="0" y="91.6" style="fill:#333333; font-family:'OpenSans-Semibold'; font-size:6.6765px;">10-23-15</tspan><tspan x="0" y="114.5" style="fill:#333333; font-family:'OpenSans-Semibold'; font-size:6.6765px;">10-23-15</tspan><tspan x="0" y="137.3" style="fill:#333333; font-family:'OpenSans-Semibold'; font-size:6.6765px;">10-23-15</tspan><tspan x="0" y="160.2" style="fill:#333333; font-family:'OpenSans-Semibold'; font-size:6.6765px;">10-23-15</tspan></text>
		</g>
		<g>
			<text transform="matrix(1 0 0 1 131.9246 217.7235)"><tspan x="0" y="0" style="fill:#676767; font-family:'OpenSans'; font-size:6.6765px;">ABC Inc</tspan><tspan x="0" y="22.9" style="fill:#333333; font-family:'OpenSans-Semibold'; font-size:6.6765px;">UHC</tspan><tspan x="0" y="45.8" style="fill:#333333; font-family:'OpenSans-Semibold'; font-size:6.6765px;">ABC Inc</tspan><tspan x="0" y="68.7" style="fill:#333333; font-family:'OpenSans-Semibold'; font-size:6.6765px;">UHC</tspan><tspan x="0" y="91.6" style="fill:#333333; font-family:'OpenSans-Semibold'; font-size:6.6765px;">UHC</tspan><tspan x="0" y="114.5" style="fill:#333333; font-family:'OpenSans-Semibold'; font-size:6.6765px;">UHC</tspan><tspan x="0" y="137.3" style="fill:#333333; font-family:'OpenSans-Semibold'; font-size:6.6765px;">UHC</tspan><tspan x="0" y="160.2" style="fill:#333333; font-family:'OpenSans-Semibold'; font-size:6.6765px;">UHC</tspan></text>
		</g>
		<g>
			<text transform="matrix(1 0 0 1 -88.1721 217.7235)"><tspan x="0" y="0" style="fill:#676767; font-family:'OpenSans'; font-size:6.6765px;">7</tspan><tspan x="0" y="22.9" style="fill:#333333; font-family:'OpenSans-Semibold'; font-size:6.6765px;">8</tspan><tspan x="0" y="45.8" style="fill:#333333; font-family:'OpenSans-Semibold'; font-size:6.6765px;">9</tspan><tspan x="0" y="68.7" style="fill:#333333; font-family:'OpenSans-Semibold'; font-size:6.6765px;">10</tspan><tspan x="0" y="91.6" style="fill:#333333; font-family:'OpenSans-Semibold'; font-size:6.6765px;">11</tspan><tspan x="0" y="114.5" style="fill:#333333; font-family:'OpenSans-Semibold'; font-size:6.6765px;">12</tspan><tspan x="0" y="137.3" style="fill:#333333; font-family:'OpenSans-Semibold'; font-size:6.6765px;">13</tspan><tspan x="0" y="160.2" style="fill:#333333; font-family:'OpenSans-Semibold'; font-size:6.6765px;">14</tspan></text>
		</g>
		<g>
			<text transform="matrix(1 0 0 1 -57.175 60.1166)" style="fill:#676767; font-family:'OpenSans-Semibold'; font-size:5.2459px;">Milestone</text>
		</g>
		<g>

				<text transform="matrix(1 0 0 1 270.9656 60.1166)" style="fill:#676767; font-family:'OpenSans-Semibold'; font-size:5.2459px;">Status</text>
		</g>
		<g>
			<text transform="matrix(1 0 0 1 204.783 60.1166)" style="fill:#676767; font-family:'OpenSans-Semibold'; font-size:5.2459px;">Projected</text>
		</g>
		<g>

				<text transform="matrix(1 0 0 1 131.9246 60.1166)" style="fill:#676767; font-family:'OpenSans-Semibold'; font-size:5.2459px;">Assignee</text>
		</g>
		<g>

				<text transform="matrix(1 0 0 1 -88.1721 60.1166)" style="fill:#676767; font-family:'OpenSans-Semibold'; font-size:5.2459px;">REF#</text>
		</g>
		<line style="fill:none;stroke:#A3A3A3;stroke-width:0.25;stroke-miterlimit:10;" x1="-102.9" y1="66" x2="371.6" y2="66"/>
		<line style="fill:none;stroke:#A3A3A3;stroke-width:0.25;stroke-miterlimit:10;" x1="-102.9" y1="90.3" x2="371.6" y2="90.3"/>
		<line style="fill:none;stroke:#A3A3A3;stroke-width:0.25;stroke-miterlimit:10;" x1="-102.9" y1="112.9" x2="371.6" y2="112.9"/>
		<line style="fill:none;stroke:#A3A3A3;stroke-width:0.25;stroke-miterlimit:10;" x1="-102.9" y1="135.5" x2="371.6" y2="135.5"/>
		<line style="fill:none;stroke:#A3A3A3;stroke-width:0.25;stroke-miterlimit:10;" x1="-102.9" y1="158.2" x2="371.6" y2="158.2"/>
		<line style="fill:none;stroke:#A3A3A3;stroke-width:0.25;stroke-miterlimit:10;" x1="-102.9" y1="180.8" x2="371.6" y2="180.8"/>
		<line style="fill:none;stroke:#A3A3A3;stroke-width:0.25;stroke-miterlimit:10;" x1="-102.9" y1="206.1" x2="371.6" y2="206.1"/>
		<line style="fill:none;stroke:#A3A3A3;stroke-width:0.25;stroke-miterlimit:10;" x1="-102.9" y1="271.4" x2="371.6" y2="271.4"/>
		<line style="fill:none;stroke:#A3A3A3;stroke-width:0.25;stroke-miterlimit:10;" x1="-102.9" y1="294" x2="371.6" y2="294"/>
		<line style="fill:none;stroke:#A3A3A3;stroke-width:0.25;stroke-miterlimit:10;" x1="-102.9" y1="316.6" x2="371.6" y2="316.6"/>
		<line style="fill:none;stroke:#A3A3A3;stroke-width:0.25;stroke-miterlimit:10;" x1="-102.9" y1="339.3" x2="371.6" y2="339.3"/>
		<line style="fill:none;stroke:#A3A3A3;stroke-width:0.25;stroke-miterlimit:10;" x1="-102.9" y1="361.9" x2="371.6" y2="361.9"/>
		<line style="fill:none;stroke:#A3A3A3;stroke-width:0.25;stroke-miterlimit:10;" x1="-102.9" y1="384.5" x2="371.6" y2="384.5"/>
		<line style="fill:none;stroke:#A3A3A3;stroke-width:0.25;stroke-miterlimit:10;" x1="-102.9" y1="49.7" x2="371.6" y2="49.7"/>
		<text transform="matrix(1 0 0 1 -88.1721 30.2699)" style="fill:#696C6B; font-family:'OpenSans-Light'; font-size:17.1682px;">Timeline</text>
	</g>
	<use xlink:href="#SVGID_1_"  style="overflow:visible;fill:none;stroke:#AAAAAA;stroke-miterlimit:10;"/>
</g>
</svg>
