<svg xmlns="http://www.w3.org/2000/svg" viewBox="0 0 176.56 51.13"><defs><style>.cls-1{fill:#231f20;}.cls-2{fill:#005cb9;}.cls-3{fill:#007aba;}.cls-4{fill:#fff;}</style></defs><title>Asset 1</title><g id="Layer_2" data-name="Layer 2"><g id="logo"><path class="cls-1" d="M41.41,38.93h5.52a6.23,6.23,0,0,1,3,.58,2.6,2.6,0,0,1,1.37,2.39,2.57,2.57,0,0,1-2,2.52,9,9,0,0,1-1.15.22,10.51,10.51,0,0,1,1.27.2,2.94,2.94,0,0,1,2.42,2.88,3,3,0,0,1-.34,1.44c-.91,1.71-3,1.71-4.82,1.72H41.41v-.44h1.44V39.37H41.41Zm3.94.47v5h1.39c1.32,0,2-.48,2-2.46,0-2.23-.71-2.57-2.1-2.57Zm0,5.5v5.53H47a1.76,1.76,0,0,0,1.69-.81,3.77,3.77,0,0,0,.36-1.91,3.44,3.44,0,0,0-.47-2.15,2,2,0,0,0-1.69-.66Z"/><path class="cls-1" d="M52.81,39l1.49,0a12.49,12.49,0,0,0,1.83-.17V50.44h1.12v.44H52.81v-.44H54V39.49H52.81Z"/><path class="cls-1" d="M62.32,43.8c1,0,2.08,0,3.37,0v6.68h1.12v.44H63.54V49.8a3.27,3.27,0,0,1-2.71,1.29c-2.1,0-2.08-1.34-2.08-2.44v-4.4h-1.1V43.8c1.1,0,2,0,3.25,0V49c0,.54.07,1.28.9,1.28a1.32,1.32,0,0,0,.71-.22,2.44,2.44,0,0,0,1-2.39V44.25H62.32Z"/><path class="cls-1" d="M74.7,48.93a3.43,3.43,0,0,1-3.22,2.15,3.68,3.68,0,0,1-3.87-3.76,3.61,3.61,0,0,1,3.74-3.72,3.42,3.42,0,0,1,2.52,1,3.76,3.76,0,0,1,.91,2.24H69.95c0,.44,0,.88,0,1.34,0,.64.07,2.34,1.76,2.34a3.1,3.1,0,0,0,2.57-1.83Zm-2.15-3.52c-.05-.59-.1-1.42-1.2-1.42s-1.29.82-1.35,1.49l0,.91h2.57Z"/><path class="cls-1" d="M85.27,42l-.54,0c-.17-.81-.63-2.91-3-2.91a2.74,2.74,0,0,0-2.78,2.45,16.08,16.08,0,0,0-.32,3.72c0,3.43.74,5.34,2.84,5.34a3.11,3.11,0,0,0,1.41-.34,4.29,4.29,0,0,0,2-2.77h.53l-.19,3.35h-.41l-.54-.74a3.88,3.88,0,0,1-2.84,1c-3.91,0-5.69-3-5.69-6.07a6.06,6.06,0,0,1,5.85-6.38,4.18,4.18,0,0,1,2.76,1l.34-.73h.44Z"/><path class="cls-1" d="M86.35,43.8a31.48,31.48,0,0,0,3.33-.15l0,1.46a5,5,0,0,1,.53-.76,2,2,0,0,1,1.57-.74A1.38,1.38,0,0,1,93.24,45a1.08,1.08,0,0,1-1.13,1.15,1,1,0,0,1-1.08-1,1,1,0,0,1,.22-.63c0-.07.09-.12.09-.17s-.12-.17-.24-.17-.78.69-.78.69a4,4,0,0,0-.68,2.34v3.22H91v.44H86.35v-.44H87.5V44.25H86.35Z"/><path class="cls-1" d="M101.81,48.76A4.13,4.13,0,0,1,94,47.31a4,4,0,1,1,7.82,1.46ZM99.5,45A1.49,1.49,0,0,0,98,44c-1.66,0-1.69,1.76-1.69,3.25,0,2,.17,2.37.3,2.6a1.54,1.54,0,0,0,1.41.85c1.68,0,1.68-1.86,1.66-3.52S99.6,45.17,99.5,45Z"/><path class="cls-1" d="M108.19,45.68h-.47a1.9,1.9,0,0,0-.71-1.2,2.21,2.21,0,0,0-1.25-.41,1.1,1.1,0,0,0-1.2,1,.92.92,0,0,0,.32.69,3.9,3.9,0,0,0,1.18.46l.51.13c.82.24,2.12.61,2.12,2.17a2.5,2.5,0,0,1-2.61,2.56,3,3,0,0,1-1.49-.41,1.55,1.55,0,0,0-.54-.25c-.3,0-.29.34-.27.46h-.49V48.31h.49a2.7,2.7,0,0,0,.78,1.69,2.31,2.31,0,0,0,1.58.63c.88,0,1.44-.54,1.44-1.08,0-.9-1.22-1-1.91-1.25-1.08-.36-2.28-.74-2.28-2.4a2.15,2.15,0,0,1,2.27-2.28,2.81,2.81,0,0,1,1.34.32.67.67,0,0,0,.39.13c.3,0,.32-.17.36-.54h.47Z"/><path class="cls-1" d="M114.89,45.68h-.47a1.89,1.89,0,0,0-.71-1.2,2.2,2.2,0,0,0-1.25-.41,1.1,1.1,0,0,0-1.2,1,.92.92,0,0,0,.32.69,3.88,3.88,0,0,0,1.19.46l.51.13c.81.24,2.11.61,2.11,2.17a2.5,2.5,0,0,1-2.61,2.56,3,3,0,0,1-1.49-.41,1.55,1.55,0,0,0-.54-.25c-.3,0-.29.34-.27.46H110V48.31h.49a2.69,2.69,0,0,0,.78,1.69,2.33,2.33,0,0,0,1.57.63c.88,0,1.44-.54,1.44-1.08,0-.9-1.22-1-1.91-1.25-1.08-.36-2.29-.74-2.29-2.4a2.15,2.15,0,0,1,2.27-2.28,2.82,2.82,0,0,1,1.34.32.67.67,0,0,0,.39.13c.3,0,.32-.17.35-.54h.47Z"/><path class="cls-2" d="M167.51,50.31a2.06,2.06,0,1,1,2-2.06,2,2,0,0,1-2,2.06m0,.38a2.44,2.44,0,1,0-2.44-2.45,2.44,2.44,0,0,0,2.44,2.45m-.55-2.3h.59l.78,1.24h.4l-.83-1.24c.48,0,.86-.24.86-.78s-.24-.77-1-.77H166.6v2.79H167Zm0-.32v-.91h.76c.34,0,.66,0,.66.44s-.54.46-.93.46Z"/><polygon class="cls-3" points="176.56 14.11 162.45 14.11 162.45 0 140 0 140 14.11 125.88 14.11 125.88 36.62 140 36.62 140 50.74 162.45 50.74 162.45 36.62 176.56 36.62 176.56 14.11"/><path class="cls-4" d="M164.37,20.53c-3.48.05-6.6.59-8.49.7s-3.47,1.18-2.12,3.71,5.88,11,6.06,11.35a14,14,0,0,0,4.55-15.76m-4.08,12.59-4.76-9c-.47-.88,0-.94.52-1s6.89-.53,6.89-.53a12.39,12.39,0,0,1-2.65,10.53M146.47,21.23c-1.86-.11-4.88-.6-8.27-.68a14.1,14.1,0,0,0-.82,4.74,13.9,13.9,0,0,0,5.2,10.85l6-11.21c1.35-2.53-.12-3.59-2.12-3.71m.35,2.89c-.47.88-4.77,9-4.77,9a12.38,12.38,0,0,1-2.64-10.53s6.47.53,6.88.53,1,.12.53,1m3.28-5.37c.56-.56.6-1.41-.16-2.34-1.35-1.65-.18-3.23,1.23-3.17s2.59,1.53,1.24,3.17c-.76.93-.72,1.78-.17,2.34a2.91,2.91,0,0,0,2.11.72h9.58a9.47,9.47,0,0,0-3.06-4.26,17.22,17.22,0,0,0-9.58-3.82,13.85,13.85,0,0,0-9.84,4.08,14.09,14.09,0,0,0-2.79,4H148a2.91,2.91,0,0,0,2.11-.72m4.6-4.87c2.18.47,4,2.15,5.65,3.77h-6.41c0-1.12,1.47-1.29.76-3.77m-7.06,0c-.71,2.47.76,2.64.76,3.76H142a9.92,9.92,0,0,1,5.65-3.76m3.53,12.41c-.58,0-.88.36-1.23.94s-5.35,7.83-6.52,9.53a13.92,13.92,0,0,0,15.6.11s-6.25-9-6.6-9.64-.65-.94-1.24-.94m0,10.94a10.82,10.82,0,0,1-5-1.06s4.59-7.24,5-7.24,5,7.24,5,7.24a10.86,10.86,0,0,1-5,1.06"/><path class="cls-3" d="M84.26,16a7.41,7.41,0,0,0-5-1.68,6.87,6.87,0,0,0-5,2.28,8.77,8.77,0,0,0-2.24,6,8.14,8.14,0,0,0,2.32,5.84,7.51,7.51,0,0,0,5.37,2.22A6.45,6.45,0,0,0,86.22,25l0-.14H85V25a5.12,5.12,0,0,1-5,4.49c-2.31,0-3.64-1.58-3.65-4.34V21.48H86.48v-.12A7.15,7.15,0,0,0,84.26,16Zm-2.13,4.37H76.31V18.7a3.51,3.51,0,0,1,.9-2.55,2.8,2.8,0,0,1,2-.8c1.88,0,2.91,1.2,2.92,3.36Z"/><path class="cls-3" d="M52.45,27.09H51.32l0,.1a2.08,2.08,0,0,1-2.05,1.92c-1.14,0-1.72-.8-1.73-2.37V15.8h3.75V14.73H47.54V10h-.13c-.88.1-2.66.23-3.59.23h-.12v4.49H41.22V15.8h2.49v9.53c0,3.51,1.51,5.29,4.47,5.29a4,4,0,0,0,4.25-3.39Z"/><path class="cls-3" d="M39,29.12V19.43a5.09,5.09,0,0,0-1.41-3.7,5.21,5.21,0,0,0-3.74-1.43,5.81,5.81,0,0,0-4.86,2.41l0-1.86v-.12H22.8V15.8h2.4V29.12H20.92L12.14,3.9l0-.08H11l0,.08L2.42,29.12H0v1.06H7.18V29.12H3.87l2.39-7.2h7.68l2.43,7.2H13v1.06H31.34V29.12H29v-7.4c0-4.41,2.36-6,3.94-6s2.31,1,2.31,2.95V29.12H33v1.06h8.43V29.12H39ZM10,10.56l3.6,10.27h-7Z"/><path class="cls-3" d="M69.08,29.12V19.28c0-2.3-1.4-5-5.33-5a6.73,6.73,0,0,0-5.3,2.24V3.89H52.34V5h2.29V29.12H52.16v1.06h8.66V29.12H58.45V21.63a6.44,6.44,0,0,1,1.63-4.76,3.67,3.67,0,0,1,2.59-1.11c2.1,0,2.54,1.72,2.55,3.17v10.2H62.85v1.06h8.66V29.12H69.08Z"/><path class="cls-3" d="M114.85,29.12H112.5V18.69c0-2.71-1.85-4.38-4.83-4.38a6.08,6.08,0,0,0-5.06,2.34,4.55,4.55,0,0,0-4.4-2.34,6.76,6.76,0,0,0-5,2l0-1.49v-.12H86.95V15.8h2.55V29.12H87v1.06h8.46V29.12H93.28V21.76c.07-2.14.17-3.52.93-4.57A3.53,3.53,0,0,1,97,15.76a1.88,1.88,0,0,1,1.77,1.07A6.64,6.64,0,0,1,99,19.51v9.61H96.79v1.06h8.32V29.12h-2.17V21.76c.07-2.14.17-3.52.94-4.57a3.52,3.52,0,0,1,2.74-1.43,1.87,1.87,0,0,1,1.77,1.07,6.63,6.63,0,0,1,.32,2.68v9.61h-2.24v1.06H115V29.12Z"/><path class="cls-3" d="M119.24,30.25a2.06,2.06,0,1,1,2.05-2.06,2,2,0,0,1-2.05,2.06m0,.38a2.44,2.44,0,1,0-2.44-2.44,2.44,2.44,0,0,0,2.44,2.44m-.55-2.3h.59l.79,1.24h.4l-.83-1.24c.48,0,.86-.24.86-.78s-.24-.77-1-.77h-1.19v2.79h.35Zm0-.32v-.9h.76c.34,0,.66,0,.66.44s-.54.46-.93.46Z"/></g></g></svg>