<svg xmlns="http://www.w3.org/2000/svg" viewBox="0 0 197.99 55.62"><defs><style>.cls-1{fill:#7e7f7f;}.cls-2{fill:#99999a;}.cls-3{fill:#e0e0e0;}.cls-4{fill:none;stroke:#969696;stroke-miterlimit:10;stroke-width:1.23px;}.cls-5{fill:#13b3db;}.cls-6{fill:#fff;}</style></defs><title>Asset 1</title><g id="Layer_2" data-name="Layer 2"><g id="Layer_1-2" data-name="Layer 1"><path class="cls-1" d="M27.7,23.81c0,9.79-7.3,14.45-13.26,14.45-4.54,0-8.28-2.65-8.5-4.92v4.54H0V0H6V13.53c1.19-2.06,3.9-4.11,8.5-4.11C20.4,9.42,27.7,14.18,27.7,23.81Zm-6,0c0-6.06-4.27-9.25-8.17-9.25s-7.9,2.6-7.9,9.25,4.06,9.31,7.9,9.31S21.75,29.92,21.75,23.81Z"/><path class="cls-1" d="M59,23.86a14.73,14.73,0,0,1-.16,2.22H37.33a8.11,8.11,0,0,0,8,7,8.32,8.32,0,0,0,6.28-2.54l5,2.71a15,15,0,0,1-11.31,5A14.18,14.18,0,0,1,31.22,23.86a13.92,13.92,0,1,1,27.81,0ZM37.39,21.54H53a7.94,7.94,0,0,0-7.85-6.93A7.85,7.85,0,0,0,37.39,21.54Z"/><path class="cls-1" d="M88.95,21.81V37.88H83V22.13c0-5.46-2.6-7.52-6.22-7.52-5,0-7.9,5-8.28,7.25v16h-6V9.74h6v6c.27-1.89,3.14-6.28,8.82-6.28C83.54,9.47,88.95,13,88.95,21.81Z"/><path class="cls-2" d="M112.26,9.63v5.52a16.73,16.73,0,0,0-2.38-.11c-5.09,0-9.47,3.63-10.12,9.58V37.88h-6V9.74h6v8.82a9.92,9.92,0,0,1,10.17-9.09A14.67,14.67,0,0,1,112.26,9.63Z"/><path class="cls-2" d="M140.61,23.86a14.73,14.73,0,0,1-.16,2.22H118.92a8.11,8.11,0,0,0,8,7,8.32,8.32,0,0,0,6.28-2.54l5,2.71a15,15,0,0,1-11.31,5A14.18,14.18,0,0,1,112.8,23.86a13.92,13.92,0,1,1,27.81,0ZM119,21.54h15.64a7.94,7.94,0,0,0-7.85-6.93A7.85,7.85,0,0,0,119,21.54Z"/><path class="cls-2" d="M153.76,37.88h-1L139,9.74h6.28l8,18.13,8-18.13h6.28Z"/><circle class="cls-3" cx="179.69" cy="24.01" r="9.89"/><path class="cls-4" d="M196,24.54c.48,2,.36,7.22.36,15.2,0,6.63.08,10.7-.16,13.31"/><path class="cls-5" d="M169.82,14a14,14,0,1,0,19.87,0A14,14,0,0,0,169.82,14ZM186.7,30.87a9.81,9.81,0,1,1,0-13.87A9.81,9.81,0,0,1,186.7,30.87Z"/><path class="cls-5" d="M195.59,21.08h-.12c-1.34-.2-2.38-1.41-3.34-3.57l1,6.49-.93,6.32c1.07-2.05,1.74-3,3.06-3.31h0a3,3,0,0,0,.35-5.92Zm.69,3.8a1.28,1.28,0,1,1,0-1.81,1.28,1.28,0,0,1,0,1.81"/><path class="cls-4" d="M196.17,53.05a13.14,13.14,0,0,1-.29,1.87c-.23.95-1.76-6.88-1.76-15.36s1.44-16.28,1.76-15.36a3.41,3.41,0,0,1,.1.34"/><path class="cls-6" d="M174.64,19.56a13.59,13.59,0,0,1,4.74-4,8.48,8.48,0,0,0-7.41,12A13.06,13.06,0,0,1,174.64,19.56Z"/></g></g></svg>