<svg xmlns="http://www.w3.org/2000/svg" preserveAspectRatio="none" width="1398.22" height="481.06" viewBox="0 0 1398.22 481.06">
  <defs>
    <style>
      .cls-1{isolation:isolate;}.cls-2{fill:none;}.cls-3,.cls-4,.cls-5{fill:#c9c9c9;mix-blend-mode:multiply;}.cls-3{opacity:0.17;}.cls-4{opacity:0.23;}.cls-5{opacity:0.29;}
    </style>
  </defs>
  <title>Asset 1</title>
  <g class="cls-1">
    <g id="Layer_2" data-name="Layer 2">
      <g id="waves">
        <path class="cls-2"
              d="M112.27,137C230.58,220.6,412.78,256.44,597.72,251c86.16-18.61,163.75-48.93,224.5-91.84C993.76,38,1151.87-8.66,1398.22,36.57V0H0V68.12C37.49,87.37,74.56,110.4,112.27,137Z"/>
        <path class="cls-3"
              d="M822.22,159.14C761.48,202,683.88,232.36,597.72,251,767,246,938.62,206.36,1065.59,137c150.25-82,263-82.47,332.63-67.38V36.57C1151.87-8.66,993.76,38,822.22,159.14Z"/>
        <path class="cls-4"
              d="M597.72,251C412.78,256.44,230.58,220.6,112.27,137,74.56,110.4,37.49,87.37,0,68.12v137.5a656.78,656.78,0,0,1,75.51,31.79C243.14,279.55,435.6,286,597.72,251Z"/>
        <path class="cls-3"
              d="M1065.59,137C938.62,206.36,767,246,597.72,251,435.6,286,243.14,279.55,75.51,237.41c40.91,20.22,81.2,44.95,122.26,73.95,96.09,67.87,234.34,104.26,382,112.6,121.18-14.55,232-49.38,313-106.55,154.6-109.19,298.29-157.85,505.5-133.29V69.66C1328.6,54.56,1215.84,55,1065.59,137Z"/>
        <path class="cls-4"
              d="M1065.59,137C938.62,206.36,767,246,597.72,251,435.6,286,243.14,279.55,75.51,237.41c40.91,20.22,81.2,44.95,122.26,73.95,96.09,67.87,234.34,104.26,382,112.6,121.18-14.55,232-49.38,313-106.55,154.6-109.19,298.29-157.85,505.5-133.29V69.66C1328.6,54.56,1215.84,55,1065.59,137Z"/>
        <path class="cls-3"
              d="M892.72,317.41c-80.95,57.17-191.81,92-313,106.55,200.51,11.34,418.33-29.06,571.35-112.6,99.3-54.21,182.22-72.79,247.13-74.8V184.12C1191,159.56,1047.32,208.22,892.72,317.41Z"/>
        <path class="cls-4"
              d="M892.72,317.41c-80.95,57.17-191.81,92-313,106.55,200.51,11.34,418.33-29.06,571.35-112.6,99.3-54.21,182.22-72.79,247.13-74.8V184.12C1191,159.56,1047.32,208.22,892.72,317.41Z"/>
        <path class="cls-5"
              d="M892.72,317.41c-80.95,57.17-191.81,92-313,106.55,200.51,11.34,418.33-29.06,571.35-112.6,99.3-54.21,182.22-72.79,247.13-74.8V184.12C1191,159.56,1047.32,208.22,892.72,317.41Z"/>
        <path class="cls-4" d="M0,205.62v9.79c24.45,8.17,49.68,15.51,75.51,22A656.78,656.78,0,0,0,0,205.62Z"/>
        <path class="cls-4" d="M0,205.62v9.79c24.45,8.17,49.68,15.51,75.51,22A656.78,656.78,0,0,0,0,205.62Z"/>
        <path class="cls-3"
              d="M579.73,424c-147.63-8.35-285.88-44.73-382-112.6-41.06-29-81.34-53.72-122.26-73.95-25.83-6.49-51.06-13.83-75.51-22V346.84C166.39,418.7,386.22,447.19,579.73,424Z"/>
        <path class="cls-4"
              d="M579.73,424c-147.63-8.35-285.88-44.73-382-112.6-41.06-29-81.34-53.72-122.26-73.95-25.83-6.49-51.06-13.83-75.51-22V346.84C166.39,418.7,386.22,447.19,579.73,424Z"/>
        <path class="cls-4"
              d="M579.73,424c-147.63-8.35-285.88-44.73-382-112.6-41.06-29-81.34-53.72-122.26-73.95-25.83-6.49-51.06-13.83-75.51-22V346.84C166.39,418.7,386.22,447.19,579.73,424Z"/>
        <rect class="cls-3" y="473.34"/>
        <rect class="cls-5" y="473.34"/>
        <rect class="cls-4" y="473.34"/>
        <path class="cls-3"
              d="M579.73,424C386.22,447.19,166.39,418.7,0,346.84V473.34H1398.22V236.56c-64.92,2-147.84,20.59-247.13,74.8C998.07,394.9,780.25,435.3,579.73,424Z"/>
        <path class="cls-4"
              d="M579.73,424C386.22,447.19,166.39,418.7,0,346.84V473.34H1398.22V236.56c-64.92,2-147.84,20.59-247.13,74.8C998.07,394.9,780.25,435.3,579.73,424Z"/>
        <path class="cls-5"
              d="M579.73,424C386.22,447.19,166.39,418.7,0,346.84V473.34H1398.22V236.56c-64.92,2-147.84,20.59-247.13,74.8C998.07,394.9,780.25,435.3,579.73,424Z"/>
        <path class="cls-4"
              d="M579.73,424C386.22,447.19,166.39,418.7,0,346.84V473.34H1398.22V236.56c-64.92,2-147.84,20.59-247.13,74.8C998.07,394.9,780.25,435.3,579.73,424Z"/>
      </g>
    </g>
  </g>
</svg>
