<svg xmlns="http://www.w3.org/2000/svg" xmlns:xlink="http://www.w3.org/1999/xlink" viewBox="0 0 206.01 92.26"><defs><style>.cls-1{fill:none;}.cls-2{fill:url(#linear-gradient);}.cls-3{clip-path:url(#clip-path);}.cls-4{fill:url(#linear-gradient-2);}.cls-5{isolation:isolate;}.cls-6{fill:#fff;}.cls-7{fill:url(#linear-gradient-3);}.cls-8{fill:url(#linear-gradient-4);}.cls-9{fill:#2aaae2;}.cls-10{fill:#231f20;}</style><linearGradient id="linear-gradient" x1="104.36" y1="35.7" x2="103.78" y2="65.2" gradientTransform="matrix(1, 0, 0, -1, 0, 73.52)" gradientUnits="userSpaceOnUse"><stop offset="0" stop-color="#4ac6f2"/><stop offset="1" stop-color="#2aaae2"/></linearGradient><clipPath id="clip-path"><rect class="cls-1" x="77.35" width="53.59" height="53.59" rx="11.91" ry="11.91"/></clipPath><linearGradient id="linear-gradient-2" x1="95.26" y1="10.52" x2="89.6" y2="43.57" xlink:href="#linear-gradient"/><linearGradient id="linear-gradient-3" x1="91.97" y1="24.16" x2="95.77" y2="37.47" xlink:href="#linear-gradient"/><linearGradient id="linear-gradient-4" x1="-1224.21" y1="11.97" x2="-1231.52" y2="29.23" gradientTransform="translate(-1126.6 73.52) rotate(180)" xlink:href="#linear-gradient"/></defs><title>Asset 1</title><g id="Layer_2" data-name="Layer 2"><g id="Layer_1-2" data-name="Layer 1"><g id="Layer_2-2" data-name="Layer 2"><g id="Layer_4" data-name="Layer 4"><rect class="cls-2" x="77.35" width="53.59" height="53.59" rx="11.91" ry="11.91"/><g class="cls-3"><path class="cls-4" d="M134.58,30.44c-15.88-8.39-23.67-6.59-32.36,3s-26.37,8.69-36.56,0-15.88-2.1-15.88-2.1V59.6h84.8Z"/><g class="cls-5"><path class="cls-6" d="M118.95,33.65H107.67V44.13h-8V33.65H89.2v-8H99.68V14.38h8V25.65h11.28Z"/></g><path class="cls-7" d="M52.07,30.44c15.88-8.39,23.67-6.59,32.36,3s26.37,8.69,36.56,0,15.88-2.1,15.88-2.1V50.76H52.07Z"/><path class="cls-8" d="M60.55,41.89c15.88-8.39,23.67-6.59,32.36,3s26.37,8.69,36.56,0,15.88-2.13,15.88-2.13V56H60.55Z"/><path class="cls-9" d="M52.07,40.17c15.88-8.39,23.67-6.59,32.36,3s26.37,8.69,36.56,0,15.88-2.1,15.88-2.1V54.25H52.07Z"/></g><path class="cls-10" d="M20.6,73.94l-2.06.72a8.42,8.42,0,0,0-7.39-4.3c-3.9,0-8.91,3.13-8.91,9.89s5,9.94,8.91,9.94a8.42,8.42,0,0,0,7.39-4.3l2.06.72a10.65,10.65,0,0,1-9.45,5.6C6.23,92.21,0,88.27,0,80.21S6.23,68.35,11.16,68.35A10.65,10.65,0,0,1,20.6,73.94Z"/><path class="cls-10" d="M28.26,91.9H26V60.56h2.28Z"/><path class="cls-10" d="M54.36,80.26a5.57,5.57,0,0,1-.09.94H34.35a9.07,9.07,0,0,0,8.91,9,9.25,9.25,0,0,0,7.12-3.13l1.75,1.16a11.37,11.37,0,0,1-8.86,4c-5,0-11.19-3.94-11.19-12s6.16-11.88,11.13-11.88S54.36,72.29,54.36,80.26Zm-20-.94H52.12c-.45-6.18-5.06-9-8.91-9s-8.41,2.82-8.86,9Z"/><path class="cls-10" d="M78.45,73.76V68.62h2.24V91.9H78.45V86.71a9.62,9.62,0,0,1-9,5.51c-5,0-11.1-3.94-11.1-12s6.13-11.91,11.1-11.91A9.69,9.69,0,0,1,78.45,73.76Zm-17.82,6.5c0,6.8,5,9.94,9,9.94s8.91-3.27,8.91-9.94c0-6.85-4.92-9.89-8.91-9.89S60.63,73.5,60.63,80.26Z"/><path class="cls-10" d="M98.55,68.48v2H97c-4.61,0-8.06,3.09-8.91,8.82V91.93H85.83V68.62h2.28v7a8.74,8.74,0,0,1,9-7.21A12,12,0,0,1,98.55,68.48Z"/><path class="cls-10" d="M112.92,91.9h-.45L102.35,68.62h2.33l8,18.89,8-18.89H123Z"/><path class="cls-10" d="M143.32,73.76V68.62h2.24V91.9h-2.24V86.71a9.62,9.62,0,0,1-9,5.51c-5,0-11.1-3.94-11.1-12s6.13-11.91,11.1-11.91A9.69,9.69,0,0,1,143.32,73.76ZM125.5,80.25c0,6.8,5,9.94,9,9.94s8.91-3.27,8.91-9.94c0-6.85-4.92-9.89-8.91-9.89s-9,3.14-9,9.9Z"/><path class="cls-10" d="M153.66,91.9h-2.28V60.56h2.28Z"/><path class="cls-10" d="M179.49,68.62V91.9h-2.24v-6a9.18,9.18,0,0,1-8.73,6.36c-4.52,0-8.6-2.69-8.6-9.76V68.62h2.24V82.5c0,5.51,2.69,7.7,6.63,7.7,4.43,0,7.52-3.94,8.46-7.75V68.62Z"/><path class="cls-10" d="M206,80.26a5.57,5.57,0,0,1-.09.94H186a9.07,9.07,0,0,0,8.91,9A9.25,9.25,0,0,0,202,87.06l1.75,1.16a11.37,11.37,0,0,1-8.86,4c-5,0-11.19-3.94-11.19-12s6.18-11.91,11.15-11.91S206,72.29,206,80.26Zm-20-.94h17.77c-.45-6.18-5.06-9-8.91-9S186.47,73.14,186,79.32Z"/></g></g></g></g></svg>