<svg xmlns="http://www.w3.org/2000/svg" viewBox="0 0 40 40" width="40" height="40"><defs><style>.cls-1{fill:#17618e;}.cls-2{fill:#fff;}</style></defs><title>Asset 3</title><g id="Layer_2" data-name="Layer 2"><g id="Layer_1-2" data-name="Layer 1"><circle class="cls-1" cx="20" cy="20" r="20" transform="translate(-1.51 38.37) rotate(-85.48)"/><path class="cls-2" d="M28.8,14.75A4.37,4.37,0,0,0,24.19,10a7.1,7.1,0,0,0-3.35.78,1.52,1.52,0,0,1-1.8,0A7.13,7.13,0,0,0,15.69,10a4.34,4.34,0,0,0-4.58,4.76A8.16,8.16,0,0,0,13,19.19a3.47,3.47,0,0,1,.7,1.25,9,9,0,0,1-.09,1.86,9.77,9.77,0,0,0,0,3C14,28.53,15.51,30,16.77,30h0c.79,0,1.9-2.19,1.8-4.52A1.56,1.56,0,0,1,19,24.3a1.48,1.48,0,0,1,2,0,1.57,1.57,0,0,1,.42,1.19c-.09,2.32,1,4.52,1.83,4.52,1.25,0,2.77-1.47,3.16-4.71a9.77,9.77,0,0,0,0-3,9,9,0,0,1-.1-1.86A3.44,3.44,0,0,1,27,19.19,8.11,8.11,0,0,0,28.8,14.75Z"/></g></g></svg>
