<?xml version="1.0" encoding="UTF-8"?>
<svg width="18px" height="18px" viewBox="0 0 18 18" version="1.1" xmlns="http://www.w3.org/2000/svg" xmlns:xlink="http://www.w3.org/1999/xlink">
    <!-- Generator: sketchtool 49 (51002) - http://www.bohemiancoding.com/sketch -->
    <title>BCCEAD1C-9713-4767-A302-1FF69C04E9EA</title>
    <desc>Created with sketchtool.</desc>
    <defs></defs>
    <g id="detail-pages" stroke="none" stroke-width="1" fill="none" fill-rule="evenodd">
        <g id="assets" transform="translate(-876.000000, -266.000000)">
            <g id="Group-5" transform="translate(876.000000, 266.000000)">
                <g id="Group-4" fill="#0099CC">
                    <g id="Group-6">
                        <path d="M18,9 C18,13.9699718 13.9705974,18 9,18 C4.02940256,18 0,13.9699718 0,9 C0,4.02940256 4.02940256,0 9,0 C13.9705974,0 18,4.02940256 18,9 Z" id="Stroke-431"></path>
                    </g>
                </g>
                <g id="Group-10" transform="translate(8.411120, 9.189021) rotate(47.000000) translate(-8.411120, -9.189021) translate(6.911120, 3.189021)" fill="#FFFFFF">
                    <g id="Group-8">
                        <polygon id="Rectangle-11" points="0 2.57142857 3 2.57142857 3 10.3361345 1.47436523 12 0 10.3361345"></polygon>
                        <path d="M0.0365797945,0.428571429 C0.124830453,0.178887349 0.362953109,5.14175369e-17 0.642857143,0 L2.35714286,2.22044605e-16 C2.63704689,1.70627068e-16 2.87516955,0.178887349 2.96342021,0.428571429 L3,0.428571429 L3,1.71428571 L0,1.71428571 L0,0.428571429 L0.0365797945,0.428571429 Z" id="Combined-Shape"></path>
                    </g>
                </g>
            </g>
        </g>
    </g>
</svg>