<svg xmlns="http://www.w3.org/2000/svg" viewBox="0 0 101.38 47"><defs><style>.cls-1{fill:none;stroke:#32baec;stroke-miterlimit:10;}</style></defs><title>Asset 1</title><g id="Layer_2" data-name="Layer 2"><g id="modal"><g id="User_Alt" data-name="User Alt"><circle class="cls-1" cx="23.5" cy="23.5" r="23"/><path class="cls-1" d="M30.49,13.54a6.87,6.87,0,0,0-7-7,6.86,6.86,0,0,0-7,7c0,.79.78,4.7.78,4.7.6,3.39,2.78,6.26,6.21,6.26s5.57-2.83,6.21-6.26C29.72,18.24,30.46,14.33,30.49,13.54Z"/><path class="cls-1" d="M6.5,39v-.67c0-3.13,2.32-5.38,5.39-6.15L23.5,30l11.65,2.17c3,.93,5.35,3,5.35,6.15V39"/></g><g id="User_Alt-2" data-name="User Alt"><circle class="cls-1" cx="77.88" cy="23.5" r="23"/><path class="cls-1" d="M84.87,13.54a7,7,0,1,0-14,0c0,.79.78,4.7.78,4.7.6,3.39,2.78,6.26,6.21,6.26s5.57-2.83,6.21-6.26C84.1,18.24,84.84,14.33,84.87,13.54Z"/><path class="cls-1" d="M60.88,39v-.67c0-3.13,2.32-5.38,5.39-6.15L77.88,30l11.65,2.17c3,.93,5.35,3,5.35,6.15V39"/></g></g></g></svg>