<svg xmlns="http://www.w3.org/2000/svg" viewBox="0 0 17 20.08"><defs><style>.cls-1{fill:none;stroke:#357dc0;stroke-linecap:round;stroke-linejoin:round;}</style></defs><title>Asset 1</title><g id="Layer_2" data-name="Layer 2"><g id="auth"><rect class="cls-1" x="0.5" y="7.58" width="16" height="12"/><path class="cls-1" d="M14.18,7.58c0-1,.06-.89.06-1.17A5.89,5.89,0,0,0,8.5.5a6,6,0,0,0-5.74,6c0,.28,0,.08.06,1.08Z"/><path class="cls-1" d="M8.5,17.58H7.3V14.65c0-.28-.53-.81-.53-1.42A1.77,1.77,0,0,1,8.56,11.6"/><path class="cls-1" d="M8.61,17.58h1.2V14.65c0-.28.53-.81.53-1.42A1.77,1.77,0,0,0,8.56,11.6"/></g></g></svg>