<svg xmlns="http://www.w3.org/2000/svg" viewBox="0 0 23 23" width="23" height="23"><defs><style>.cls-1{fill:none;stroke:#676767;stroke-miterlimit:10;}</style></defs><title>manager-client-avatar</title><g id="Layer_2" data-name="Layer 2"><g id="bg"><g id="User_Alt" data-name="User Alt"><circle class="cls-1" cx="11.5" cy="11.5" r="11"/><path class="cls-1" d="M14.84,6.74A3.29,3.29,0,0,0,11.5,3.37,3.28,3.28,0,0,0,8.16,6.74c0,.38.37,2.25.37,2.25.29,1.62,1.33,3,3,3s2.66-1.35,3-3C14.47,9,14.83,7.12,14.84,6.74Z"/><path class="cls-1" d="M3.37,18.91v-.32a3.1,3.1,0,0,1,2.58-2.94l5.55-1,5.57,1a3.2,3.2,0,0,1,2.56,2.94v.33"/></g></g></g></svg>
