<svg xmlns="http://www.w3.org/2000/svg" viewBox="0 0 18.63 8.59" width="19" height="9">
  <defs>
    <style>.cls-1{fill:#e1ebf4;}</style>
  </defs>
  <title>motion-icon</title>
  <g id="Layer_2" data-name="Layer 2">
    <g id="Layer_1-2" data-name="Layer 1">
      <path class="cls-1"
            d="M15.83,7.64H2.22a1.25,1.25,0,0,1-1-.46,18.37,18.37,0,0,0,2.27.14h.56a19.42,19.42,0,0,0,8.14-2c1.79-.9,3.18-1.1,4.14-.59a2.55,2.55,0,0,1,1.19,1.73,1.84,1.84,0,0,1-1.72,1.19M1.6,5.27,3.54,4.2l.37.54A.48.48,0,1,0,4.7,4.2l-.32-.47,1-.53L6,4.12a.48.48,0,1,0,.79-.54l-.58-.84.95-.53L8,3.46a.48.48,0,1,0,.79-.54L8,1.73,9.35,1l1.91,2.09a1.33,1.33,0,0,0,1,.43,1.32,1.32,0,0,0,.51-.1L16.21,2a1.05,1.05,0,0,1,1.46,1V5.4a2.7,2.7,0,0,0-1.08-1.11c-1.1-.6-2.64-.4-4.58.58a18.93,18.93,0,0,1-7.92,2A18,18,0,0,1,1,6.66a1.25,1.25,0,0,1,0-.28,1.26,1.26,0,0,1,.65-1.1m15-4.35h0a2,2,0,0,0-.77.15L12.39,2.5A.38.38,0,0,1,12,2.41L10.05.31A.94.94,0,0,0,8.9.12L1.14,4.44A2.22,2.22,0,0,0,2.22,8.59H15.83a2.81,2.81,0,0,0,2.8-2.8V2.93a2,2,0,0,0-2-2"/>
    </g>
  </g>
</svg>
