<?xml version="1.0" encoding="UTF-8"?>
<svg width="13px" height="16px" viewBox="0 0 13 16" version="1.1" xmlns="http://www.w3.org/2000/svg" xmlns:xlink="http://www.w3.org/1999/xlink">
    <!-- Generator: sketchtool 49 (51002) - http://www.bohemiancoding.com/sketch -->
    <title>032BBC55-2257-4FAE-92B4-8F58AC458EBA</title>
    <desc>Created with sketchtool.</desc>
    <defs></defs>
    <g id="detail-pages" stroke="none" stroke-width="1" fill="none" fill-rule="evenodd">
        <g id="assets" transform="translate(-213.000000, -623.000000)" fill="#6E7880">
            <g id="Group-14" transform="translate(213.000000, 622.000000)">
                <g id="Page-1" transform="translate(0.000000, 1.000000)">
                    <path d="M11.0710996,1.93252174 L11.106679,1.96869565 C13.631107,4.54504348 13.631107,8.72243478 11.106679,11.2987826 L6.50017105,16 L1.89332096,11.2987826 C-0.631106988,8.72243478 -0.631106988,4.54504348 1.89332096,1.96869565 L1.92890038,1.93252174 C4.45332833,-0.644173913 8.54667167,-0.644173913 11.0710996,1.93252174 Z M8,6.5 C8,5.6717 7.32851551,5 6.50015056,5 C5.67178561,5 5,5.6717 5,6.5 C5,7.3283 5.67178561,8 6.50015056,8 C7.32851551,8 8,7.3283 8,6.5 Z" id="Combined-Shape"></path>
                </g>
            </g>
        </g>
    </g>
</svg>