<svg xmlns="http://www.w3.org/2000/svg" preserveAspectRatio="none" width="1285" height="174.94" viewBox="0 0 1285 174.94">
  <defs>
    <style>
      .cls-1{isolation:isolate;}.cls-2{fill:#2c7abf;opacity:0.94;}.cls-3{fill:none;}.cls-4,.cls-5,.cls-6{fill:#c9c9c9;mix-blend-mode:multiply;}.cls-4{opacity:0.17;}.cls-5{opacity:0.23;}.cls-6{opacity:0.29;}
    </style>
  </defs>
  <title>Asset 5</title>
  <g class="cls-1">
    <g id="Layer_2" data-name="Layer 2">
      <g id="Layer_7" data-name="Layer 7">
        <rect class="cls-2" width="1285" height="174.94"/>
      </g>
      <g id="waves">
        <path class="cls-3"
              d="M717.2,80.19C780,71.25,836.65,56.7,881,36.1A790,790,0,0,1,972,0H302.51c20.14,7.53,40.23,16,60.57,25.49C449.39,65.6,582.29,82.81,717.2,80.19Z"/>
        <path class="cls-4"
              d="M881,36.1C836.65,56.7,780,71.25,717.2,80.19c123.5-2.4,248.66-21.42,341.29-54.7A650.63,650.63,0,0,1,1148.54,0H972A790,790,0,0,0,881,36.1Z"/>
        <path class="cls-5"
              d="M221.32,47.77A624.75,624.75,0,0,1,336.21,73.67C458.5,93.91,598.92,97,717.2,80.19,582.29,82.81,449.39,65.6,363.09,25.49,342.74,16,322.66,7.53,302.51,0H0V.12c48.11.39,110.4,9,185.56,36Q202.72,42.27,221.32,47.77Z"/>
        <path class="cls-4"
              d="M221.32,47.77q-18.55-5.51-35.75-11.67C110.4,9.1,48.11.52,0,.12V51C85.76,40.29,156.9,39.51,221.32,47.77Z"/>
        <path class="cls-5"
              d="M221.32,47.77q-18.55-5.51-35.75-11.67C110.4,9.1,48.11.52,0,.12V51C85.76,40.29,156.9,39.51,221.32,47.77Z"/>
        <path class="cls-4"
              d="M717.2,80.19C598.92,97,458.5,93.91,336.21,73.67a793,793,0,0,1,89.24,35.51c70.09,32.58,170.94,50,278.63,54.06,88.4-7,169.26-23.7,228.31-51.15C1041.1,61.55,1142.43,38,1285,47V0H1148.54a650.63,650.63,0,0,0-90.06,25.49C965.87,58.77,840.7,77.79,717.2,80.19Z"/>
        <path class="cls-5"
              d="M717.2,80.19C598.92,97,458.5,93.91,336.21,73.67a793,793,0,0,1,89.24,35.51c70.09,32.58,170.94,50,278.63,54.06,88.4-7,169.26-23.7,228.31-51.15C1041.1,61.55,1142.43,38,1285,47V0H1148.54a650.63,650.63,0,0,0-90.06,25.49C965.87,58.77,840.7,77.79,717.2,80.19Z"/>
        <path class="cls-4"
              d="M932.39,112.08c-59,27.45-139.92,44.17-228.31,51.15,146.26,5.44,305.15-14,416.77-54.06C1185.31,86,1240.3,76.41,1285,73.9V47C1142.43,38,1041.1,61.55,932.39,112.08Z"/>
        <path class="cls-5"
              d="M932.39,112.08c-59,27.45-139.92,44.17-228.31,51.15,146.26,5.44,305.15-14,416.77-54.06C1185.31,86,1240.3,76.41,1285,73.9V47C1142.43,38,1041.1,61.55,932.39,112.08Z"/>
        <path class="cls-6"
              d="M932.39,112.08c-59,27.45-139.92,44.17-228.31,51.15,146.26,5.44,305.15-14,416.77-54.06C1185.31,86,1240.3,76.41,1285,73.9V47C1142.43,38,1041.1,61.55,932.39,112.08Z"/>
        <path class="cls-5" d="M336.21,73.67A624.75,624.75,0,0,0,221.32,47.77C256.6,58.24,295.39,66.91,336.21,73.67Z"/>
        <path class="cls-5" d="M336.21,73.67A624.75,624.75,0,0,0,221.32,47.77C256.6,58.24,295.39,66.91,336.21,73.67Z"/>
        <path class="cls-4"
              d="M237,112.08c124.57,44.76,308,63.72,467.09,51.15-107.69-4-208.53-21.47-278.63-54.06a793,793,0,0,0-89.24-35.51c-40.82-6.76-79.61-15.42-114.89-25.89C156.9,39.51,85.76,40.29,0,51V79C51.14,72.55,131.36,74.13,237,112.08Z"/>
        <path class="cls-5"
              d="M237,112.08c124.57,44.76,308,63.72,467.09,51.15-107.69-4-208.53-21.47-278.63-54.06a793,793,0,0,0-89.24-35.51c-40.82-6.76-79.61-15.42-114.89-25.89C156.9,39.51,85.76,40.29,0,51V79C51.14,72.55,131.36,74.13,237,112.08Z"/>
        <path class="cls-5"
              d="M237,112.08c124.57,44.76,308,63.72,467.09,51.15-107.69-4-208.53-21.47-278.63-54.06a793,793,0,0,0-89.24-35.51c-40.82-6.76-79.61-15.42-114.89-25.89C156.9,39.51,85.76,40.29,0,51V79C51.14,72.55,131.36,74.13,237,112.08Z"/>
        <path class="cls-4"
              d="M704.08,163.23C545,175.8,361.56,156.84,237,112.08,131.36,74.13,51.14,72.55,0,79v96H1285V73.9c-44.7,2.52-99.69,12.12-164.15,35.28C1009.23,149.28,850.34,168.67,704.08,163.23Z"/>
        <path class="cls-5"
              d="M704.08,163.23C545,175.8,361.56,156.84,237,112.08,131.36,74.13,51.14,72.55,0,79v96H1285V73.9c-44.7,2.52-99.69,12.12-164.15,35.28C1009.23,149.28,850.34,168.67,704.08,163.23Z"/>
        <path class="cls-6"
              d="M704.08,163.23C545,175.8,361.56,156.84,237,112.08,131.36,74.13,51.14,72.55,0,79v96H1285V73.9c-44.7,2.52-99.69,12.12-164.15,35.28C1009.23,149.28,850.34,168.67,704.08,163.23Z"/>
        <path class="cls-5"
              d="M704.08,163.23C545,175.8,361.56,156.84,237,112.08,131.36,74.13,51.14,72.55,0,79v96H1285V73.9c-44.7,2.52-99.69,12.12-164.15,35.28C1009.23,149.28,850.34,168.67,704.08,163.23Z"/>
      </g>
    </g>
  </g>
</svg>
