<svg xmlns="http://www.w3.org/2000/svg" viewBox="0 0 441.82 327.96"><defs><style>.cls-1{fill:none;stroke:#17c1e4;stroke-miterlimit:10;}.cls-2{fill:#f4f4f4;}.cls-3{fill:#95d8e9;}.cls-4{opacity:0.38;}</style></defs><title>Asset 1</title><g id="Layer_2" data-name="Layer 2"><g id="Layer_2-2" data-name="Layer 2"><polyline class="cls-1" points="199.58 106.62 199.58 21.28 242.25 21.28 242.25 106.62"/><polyline class="cls-1" points="196.29 116.47 196.29 113.19 242.25 113.19"/><polyline class="cls-1" points="173.32 73.8 173.32 40.98 193.01 40.98"/><polyline class="cls-1" points="268.51 113.19 268.51 40.98 248.81 40.98"/><polyline class="cls-1" points="183.16 73.8 183.16 70.52 189.73 70.52 189.73 80.36"/><rect class="cls-1" x="252.09" y="70.52" width="6.56" height="9.85"/><rect class="cls-1" x="252.09" y="50.82" width="6.56" height="9.85"/><rect class="cls-1" x="183.16" y="50.82" width="6.56" height="9.85"/><rect class="cls-1" x="252.09" y="90.21" width="6.56" height="9.85"/><rect class="cls-1" x="225.84" y="70.52" width="6.56" height="9.85"/><rect class="cls-1" x="225.84" y="50.82" width="6.56" height="9.85"/><rect class="cls-1" x="209.42" y="70.52" width="6.56" height="9.85"/><rect class="cls-1" x="209.42" y="50.82" width="6.56" height="9.85"/><rect class="cls-1" x="225.84" y="31.13" width="6.56" height="9.85"/><rect class="cls-1" x="209.42" y="31.13" width="6.56" height="9.85"/><line class="cls-1" x1="229.12" y1="106.62" x2="229.12" y2="90.21"/><line class="cls-1" x1="212.71" y1="106.62" x2="212.71" y2="90.21"/><path class="cls-1" d="M265.22,109.91a3.27,3.27,0,0,0-1.78.53,4.91,4.91,0,0,0-9.57,0,3.28,3.28,0,1,0-1.78,6h13.13a3.28,3.28,0,0,0,0-6.56Z"/><path class="cls-1" d="M186.45,100.06c0-6.56-1.64-19.69-6.56-19.69s-6.56,13.13-6.56,19.69a6.56,6.56,0,1,0,13.13,0Z"/><line class="cls-1" x1="179.88" y1="106.62" x2="179.88" y2="116.47"/><line class="cls-1" x1="206.14" y1="90.21" x2="235.68" y2="90.21"/><line class="cls-1" x1="220.91" y1="100.06" x2="220.91" y2="100.06"/><polyline class="cls-1" points="81.36 112.98 72.21 87.9 92.11 85.8 105.42 122.28"/><line class="cls-1" x1="123.04" y1="121.02" x2="56.92" y2="145.14"/><polyline class="cls-1" points="113.28 101.33 108.7 88.8 98.34 88.7 90.85 68.18 78.42 76.59 80.5 82.29"/><line class="cls-1" x1="76.39" y1="127.7" x2="78.06" y2="132.26"/><line class="cls-1" x1="94.64" y1="121.05" x2="96.3" y2="125.61"/><line class="cls-1" x1="99.2" y1="119.39" x2="100.86" y2="123.95"/><line class="cls-1" x1="73.9" y1="120.86" x2="74.73" y2="123.14"/><line class="cls-1" x1="71.41" y1="114.02" x2="72.24" y2="116.3"/><line class="cls-1" x1="75.97" y1="112.36" x2="76.8" y2="114.64"/><line class="cls-1" x1="108.32" y1="116.06" x2="109.98" y2="120.62"/><line class="cls-1" x1="103.33" y1="102.38" x2="104.16" y2="104.66"/><line class="cls-1" x1="107.89" y1="100.72" x2="108.72" y2="103"/><line class="cls-1" x1="105.82" y1="109.22" x2="106.65" y2="111.5"/><line class="cls-1" x1="105.39" y1="93.88" x2="106.22" y2="96.16"/><line class="cls-1" x1="100.83" y1="95.54" x2="101.66" y2="97.82"/><line class="cls-1" x1="88.79" y1="76.68" x2="89.62" y2="78.96"/><line class="cls-1" x1="84.23" y1="78.35" x2="85.06" y2="80.63"/><line class="cls-1" x1="73.47" y1="105.52" x2="74.3" y2="107.8"/><line class="cls-1" x1="68.91" y1="107.18" x2="69.74" y2="109.46"/><line class="cls-1" x1="55.23" y1="112.17" x2="56.06" y2="114.45"/><line class="cls-1" x1="64.78" y1="124.19" x2="65.61" y2="126.47"/><line class="cls-1" x1="67.27" y1="131.03" x2="68.94" y2="135.59"/><line class="cls-1" x1="62.71" y1="132.69" x2="64.38" y2="137.25"/><line class="cls-1" x1="62.29" y1="117.35" x2="63.12" y2="119.63"/><line class="cls-1" x1="59.79" y1="110.51" x2="60.62" y2="112.79"/><line class="cls-1" x1="66.42" y1="100.34" x2="67.25" y2="102.62"/><line class="cls-1" x1="70.98" y1="98.68" x2="71.81" y2="100.96"/><line class="cls-1" x1="85.09" y1="109.03" x2="85.92" y2="111.31"/><line class="cls-1" x1="82.59" y1="102.19" x2="83.42" y2="104.47"/><line class="cls-1" x1="80.1" y1="95.35" x2="80.93" y2="97.63"/><line class="cls-1" x1="89.65" y1="107.37" x2="90.48" y2="109.65"/><line class="cls-1" x1="87.15" y1="100.53" x2="87.98" y2="102.81"/><line class="cls-1" x1="84.66" y1="93.69" x2="85.49" y2="95.97"/><line class="cls-1" x1="94.21" y1="105.71" x2="95.04" y2="107.99"/><line class="cls-1" x1="92.14" y1="114.21" x2="92.97" y2="116.49"/><line class="cls-1" x1="96.7" y1="112.55" x2="97.53" y2="114.83"/><line class="cls-1" x1="91.71" y1="98.87" x2="92.54" y2="101.15"/><line class="cls-1" x1="89.22" y1="92.03" x2="90.05" y2="94.31"/><line class="cls-1" x1="68.48" y1="91.84" x2="69.31" y2="94.12"/><line class="cls-1" x1="63.92" y1="93.5" x2="64.75" y2="95.78"/><line class="cls-1" x1="59.36" y1="95.16" x2="60.19" y2="97.45"/><line class="cls-1" x1="61.43" y1="86.66" x2="62.26" y2="88.94"/><line class="cls-1" x1="65.99" y1="85" x2="66.82" y2="87.28"/><line class="cls-1" x1="63.49" y1="78.16" x2="64.32" y2="80.44"/><line class="cls-1" x1="58.93" y1="79.82" x2="59.76" y2="82.1"/><polyline class="cls-1" points="56.46 101.39 53.14 92.27 56.87 88.33 53.13 78.06 58.72 72.15 66.81 73.08 70.55 83.33"/><line class="cls-1" x1="57.89" y1="69.87" x2="58.72" y2="72.15"/><line class="cls-1" x1="90.02" y1="65.9" x2="90.85" y2="68.18"/><circle class="cls-1" cx="54.83" cy="125.24" r="4.85" transform="translate(-39.59 26.37) rotate(-20.04)"/><line class="cls-1" x1="61.48" y1="143.48" x2="56.49" y2="129.8"/><polyline class="cls-1" points="73.5 133.93 62.69 104.28 49.01 109.27 51.5 116.11"/><circle class="cls-1" cx="115.05" cy="109.73" r="3.64" transform="translate(-30.63 46.06) rotate(-20.04)"/><line class="cls-1" x1="119.62" y1="122.27" x2="116.3" y2="113.15"/><circle class="cls-1" cx="84.68" cy="122.1" r="4.85" transform="translate(-36.71 36.4) rotate(-20.04)"/><line class="cls-1" x1="88.84" y1="133.5" x2="86.35" y2="126.66"/><ellipse class="cls-2" cx="220.91" cy="218.77" rx="109" ry="221" transform="translate(-4.95 432.44) rotate(-88.13)"/><path class="cls-3" d="M421.55,177.15c.43.46.35.23.43.29C421.23,176.69,421.55,177.19,421.55,177.15Z"/><polygon class="cls-3" points="413.93 169.98 414.09 170.07 412.87 169.13 413.93 169.98"/><path class="cls-3" d="M406.45,163.68c.63.69,2.76,2.21,4.08,3.36l.2.21c.24.13.46.27.69.41C409.78,166.31,407.59,164.64,406.45,163.68Z"/><path class="cls-3" d="M402.53,160.23c.21.25-.94-.63,1,.74l-.17-.15C403.16,160.7,402.93,160.51,402.53,160.23Z"/><path class="cls-3" d="M403.33,160.82c.82.62-.5-.46,0,0Z"/><path class="cls-3" d="M399.43,158.08l1.14.74c-.21-.2-1.19-.91-.81-.67C398.61,157.37,398.82,157.57,399.43,158.08Z"/><path class="cls-3" d="M398.3,157.45l.59.39A2.69,2.69,0,0,0,398.3,157.45Z"/><path class="cls-3" d="M400.14,158.65l-1.25-.82a1.14,1.14,0,0,0,.57.38C399.33,158.18,399.6,158.31,400.14,158.65Z"/><path class="cls-3" d="M400.82,159.16c.6.47,1.39,1.06.24.32C403.19,161,402.95,160.64,400.82,159.16Z"/><path class="cls-3" d="M405.94,163.53l.78.66.72.51C407.09,164.42,405.93,163.44,405.94,163.53Z"/><path class="cls-3" d="M392.42,153.34c-.09,0,.33.33.39.42l.88.49A13.09,13.09,0,0,1,392.42,153.34Z"/><path class="cls-3" d="M392.82,153.76l-1.31-.73C392.64,153.74,392.87,153.84,392.82,153.76Z"/><path class="cls-3" d="M398,157.48l2.09,1.31c-.83-.52-1.64-1.08-2.49-1.57Z"/><polygon class="cls-3" points="387.53 150.36 388.31 150.71 386.93 150.06 387.53 150.36"/><path class="cls-3" d="M384.23,148.47c.58.25-.69-.54-.09-.25-.91-.5-1.72-.85-2.44-1.18A25.57,25.57,0,0,1,384.23,148.47Z"/><path class="cls-3" d="M380.49,146.48l1.21.56C381.3,146.84,380.9,146.65,380.49,146.48Z"/><path class="cls-3" d="M389.35,151.67a4.86,4.86,0,0,0-1-.7l.45.39Z"/><path class="cls-3" d="M388.86,151.37h0l-1.1-.65Z"/><path class="cls-3" d="M389.47,151.75l-.13-.08A.31.31,0,0,0,389.47,151.75Z"/><path class="cls-3" d="M394.77,155.23c-.76-.44-2.34-1.38-.9-.34C394.44,155.18,393.62,154.57,394.77,155.23Z"/><path class="cls-3" d="M390,152.25l1.34.86s-.23-.23.15,0Z"/><polygon class="cls-3" points="389.35 151.87 390.02 152.25 389.53 151.93 389.35 151.87"/><path class="cls-3" d="M382.84,147.86c-.63-.29-1.29-.64-2-1l2.4,1.34C383.33,148.19,383.7,148.33,382.84,147.86Z"/><path class="cls-3" d="M385.77,149.56l-.14-.07C385.71,149.55,385.77,149.59,385.77,149.56Z"/><polygon class="cls-3" points="373.38 142.97 373.49 143.05 373.52 143.05 373.38 142.97"/><path class="cls-3" d="M383.32,148.25c.59.34,1,.54,1.31.7l-1.43-.79C383.14,148.15,383.13,148.15,383.32,148.25Z"/><path class="cls-3" d="M378.41,145.41l1,.62A8.94,8.94,0,0,0,378.41,145.41Z"/><path class="cls-3" d="M385.45,149.35l.09,0C385.36,149.26,385.38,149.29,385.45,149.35Z"/><path class="cls-3" d="M385.45,149.35c-.31-.16-.57-.28-.82-.4l1,.54Z"/><path class="cls-3" d="M370.8,142.49a13.17,13.17,0,0,1,3.15,1.45c1.39.62.65-.12-.46-.89-.07,0-.07,0-1.52-.58.48.26,3.06,1.67,1.84,1.15a21.87,21.87,0,0,1-2.4-1.27c.72.48-2.47-1-2.14-.62l1.67.73S370.35,142.25,370.8,142.49Z"/><path class="cls-3" d="M376.16,144.41l.58.28c-.65-.35-1.1-.62-1.94-1.13a6.35,6.35,0,0,0-1.28-.52l2.84,1.46Z"/><path class="cls-3" d="M379.32,146c-.49-.16-1.89-.83-1.1-.29a23.93,23.93,0,0,0,2.23,1.05c-2.71-1.44.8.37-1.12-.74l1.47.76-1.37-.8.06,0h0c.11.07.14.1,0,0l-.06,0-.14,0c-.77-.44-.11-.09.14,0h0c-.9-.48-1.83-.92-2.75-1.37C377.31,145,378,145.35,379.32,146Z"/><path class="cls-3" d="M392.36,154.21c-.08-.06-.07-.06-.07-.07C392.12,154,392,154,392.36,154.21Z"/><path class="cls-3" d="M391.33,153.49a8.16,8.16,0,0,1,1,.56c.52.36,0,0,0,.09.39.21,1.34.74.2,0l-.19-.1a23.23,23.23,0,0,1-2.12-1.53A9.12,9.12,0,0,0,391.33,153.49Z"/><path class="cls-3" d="M385.3,149.65c-.75-.41-1.48-.83-2.24-1.22.37.23.73.48,1.09.72l0-.08C385.36,149.81,385.12,149.59,385.3,149.65Z"/><path class="cls-3" d="M373.14,142.79l.35.05c-.46-.18-.93-.34-1.4-.5Z"/><polygon class="cls-3" points="370.14 141.37 370.29 141.33 369.47 141.01 370.14 141.37"/><path class="cls-3" d="M187.4,110.74l-.75.07Z"/><path class="cls-3" d="M192.81,110.47l.13-.05C192.69,110.45,192.59,110.47,192.81,110.47Z"/><path class="cls-3" d="M292.62,116.75a9.81,9.81,0,0,0-2.12-.53l.31.17C291.56,116.52,292.13,116.64,292.62,116.75Z"/><path class="cls-3" d="M237.22,110.47l.32.05.74-.06Z"/><path class="cls-3" d="M236.43,110.87l-1.43-.16Z"/><path class="cls-3" d="M158,113.38l-.85.23C158.45,113.43,157.85,113.45,158,113.38Z"/><path class="cls-3" d="M338.57,128.76c-.88-.34-1.58-.61-2.21-.81A14.07,14.07,0,0,0,338.57,128.76Z"/><path class="cls-3" d="M189.48,109.47c-.46,0-.65.08-.64.1C189.31,109.53,189.58,109.5,189.48,109.47Z"/><path class="cls-3" d="M333.76,127.12l.47.17c.66.19,1.33.39,2.13.65A20.36,20.36,0,0,0,333.76,127.12Z"/><path class="cls-3" d="M56,144.5l-.22.1S55.89,144.58,56,144.5Z"/><path class="cls-3" d="M29,160.35l1-.79C29.88,159.69,29.57,159.93,29,160.35Z"/><path class="cls-3" d="M357.94,135.9c.65.26.11,0,0,0Z"/><path class="cls-3" d="M360.93,137.61a.67.67,0,0,0-.28-.06A1,1,0,0,1,360.93,137.61Z"/><path class="cls-3" d="M326.86,125.71l-.06,0C327,125.78,327,125.76,326.86,125.71Z"/><path class="cls-3" d="M358.9,136.35l-.82-.38Z"/><path class="cls-3" d="M358.79,136.25l.56.25C359.44,136.52,359.37,136.47,358.79,136.25Z"/><path class="cls-3" d="M357,135.53l1,.45-.14-.08Z"/><path class="cls-3" d="M109.09,122.75l-.15,0C108.27,123,108.56,122.92,109.09,122.75Z"/><path class="cls-3" d="M274.39,114.79h.08l-.1,0Z"/><path class="cls-3" d="M271.89,114.5a12.9,12.9,0,0,1,2.48.28l-.78-.43Z"/><path class="cls-3" d="M174.46,111.59l1.77-.07c-2.11.36-3.66.45-2,.43a13.52,13.52,0,0,1,3.54-.49,15.44,15.44,0,0,0,3.54-.38h1.17l-.72.05c2.28,0,1.67-.34,4.59-.45,1,0,1.73,0,1,.06l2.26-.21c.66,0,.5,0-.16.07,1.15-.06,2.3-.17,3.46-.19h0c.49-.06,1.61-.17,2.16-.21.88,0-.44,0-.21.08l1.92-.12c.78.07-.8.19-2.13.2,1.8.3,1.59-.12,5.46,0l-1.81.08c1.17.17,2.58.07,4.63.15-.49-.05-4.1-.22-2-.35a22.94,22.94,0,0,0,2.48-.08,9.85,9.85,0,0,0,2.48,0l-.09.16a20.33,20.33,0,0,0,2.24-.24,7.51,7.51,0,0,1,2.38.28c2.65.07-1.83-.23,1.31-.21,2.2.1,3.75.05,6.38,0,1.54.08-.27.09.28.15l1.37-.11c.33,0,.23,0,.17.06a15.12,15.12,0,0,1,1.91-.17,12.22,12.22,0,0,1,2.32.07,29.48,29.48,0,0,0,3.63.16c.55.07-.27.09-.1.16,3.08,0,2.64,0,5.17-.05l2.14.23c-1.57-.21.45-.24,2.23-.25l-1.35-.21,2.83.08c.34,0,.05.08-.41.12h.52c1,.12.48.18-.25.23l-1-.16c-.7.06-1.36.12-1.22.23h.93c-.18,0-.3,0-.22.05a6.79,6.79,0,0,0,.85,0l.63.22.16-.06c1.23.11,2.45.22,3.68.36,2.64,0,5-.11,9.15.24-1,0-.24.19-.31.34-1.12-.28-3.24-.24-5.4-.43,1.13.1.87.16.58.16,1.29,0,2.58.1,3.87.18-.1.12.81.17,1.81.32-.74-.32,2.89.11,4.47.18.09.09-.3.14-2.21-.06,2.09.38,2.76,0,4.81.37a5.16,5.16,0,0,0-.91-.07,15.35,15.35,0,0,1,3.12.41l-.47-.05c3.1.34,9.42,1.2,9.91,1a1.7,1.7,0,0,1-.63.22c1.87,0,3.74,0,5.61.09-.51.11,1.28.82-1.29.53.73.14,1.63.3,3.19.47-.5-.1-1.21-.45-.52-.36,1.85.49,1.29.29,3.57.84-.74-.17.14-.31,1.32-.1-.19,0,.05.3-.39.25l3,.22c-.74-.08-.17.21.47.4-.3-.1,2.55.43,3.33.57l-1.23-.3c3.3.67,3.34.23,6.63.87-.41,0-1.05.16.61.52a41.88,41.88,0,0,1,6.44.53l.54.2c.75.12,1.49.27,2.24.41-1.42-.13-5.41-.47-7.57-.75a16.43,16.43,0,0,0,2.17.55c.64.21-1-.1-1.58-.21l4.29.95c-.15-.22,3.32.57,3.18.4q-2.34-.47-4.7-.85c-.16-.2,2.81.08,5.84.83.76.24-.64.16-.59.23.41,0,2.91.55,3.18.66l-1.31-.21c1.68.44,2.81.41,4.79,1.09a20.87,20.87,0,0,0,2.18.67c-1.09-.47-1.17-1.1-.38-1.05.24.08,3.63,1.09,4.39,1.42,1.11.46-1.81-.12-.87.27a5.54,5.54,0,0,1,1,.14c.72.24-.34.06,1.25.47.31-.09,3.22.89.79.06,1.56.38,1.64.48,3.46,1-.55-.28,1.73.12,3.29.52-.1,0,.23.17.39.24,3.16.92,4.82,1.56,7.75,2.48.26.12,1.66.62,1,.5a14.23,14.23,0,0,1,1.73.48c1.69.73-2-.66-.74,0,.14-.06,2.36.66,3.66,1a30,30,0,0,0-4.24-1.4c.06-.22,2.36.34,5.44,1.28,2.44.77,1,.49,1.43.6,4.49,1.69,4,1,7.65,2.59,1.43.7,0,.28.26.49-2-.72-3-1.21-4.28-1.69l1.61.65c-.64-.18-2-.63-2.65-.92.6.29,2.51,1,4.67,1.81s4.61,1.78,6.29,2.56c.62.21,1.69.61,1.21.35l-1.09-.43c-1-.51,2.09.71.74.09a52.32,52.32,0,0,1,5.16,2l.32.31a11.68,11.68,0,0,0-1.88-.87c.88.29,3,1.57,4,1.79l-1.37-.73a51.84,51.84,0,0,1,5.08,2.1c-.74-.52-.41-.19-1.61-.93,1,.69-4.59-2.05-2.91-1.05-1.23-.76-2.22-1.11-3.88-2,0,.07.57.34-.94-.31l-.35-.1-.1,0,.08,0c-.07,0-.08,0,0,0a7.45,7.45,0,0,1,.75.39c-.8-.21-3.22-1.22-4.06-1.51s.4.1-.07-.15l-1.27-.4c-.08-.15-2.35-1.12-.18-.34l-1.93-.76a37.1,37.1,0,0,0-3.66-1.45c-.91-.36-2.36-.73-1.53-.52l-3.08-1,0,0c-1.5-.56-3.09-1-4.71-1.56s-3.3-1.1-5-1.73c-1-.3-2.11-.6-3.83-1.18l-.31-.2c-1.34-.36-4-1.27-4.57-1.34-1.35-.71-6.47-1.86-8.81-2.55l-.12.1c-1.62-.42-3.2-.77-5.23-1.23l.1.14c-1.76-.37-4.47-1.15-7.24-1.78a9.4,9.4,0,0,1,1.39.31c-3.25-1-7-1.35-10-2.17-.76-.12-1.3-.23-1.82-.36l.19,0-.31-.06-1-.26.87.23-2.33-.4-.35-.19-.2,0c-.84-.2-.69-.07-.26.1l-1.16-.15c-.65-.33-2.28-.37-3.19-.72-.6,0-4.37-.67-4.87-.54,0,0-.28-.09.19,0a23.63,23.63,0,0,0-2.8-.44l-.39-.21-2.15-.12c-1.27-.29-1.8-.42-.5-.34-3.11-.28-2.51-.33-5.16-.49l.14-.08c-.94-.12-2.46-.19-3-.34-1-.24-3.64-.59-6.65-.92l-9.15-1c1,.39-2.51-.37-2.74-.17-.31-.1-1.06-.19-.18-.18-2.77-.15-4.15-.43-6.08-.39-.31-.09.6-.05.32-.12a8,8,0,0,1-1.17-.07c-.28-.06.41,0,.85,0-2.83-.22-3.13,0-3.35.19a14.6,14.6,0,0,0-3.19-.14c-.5-.09-1.32-.21.44-.13a55.42,55.42,0,0,0-6.15-.26,15.29,15.29,0,0,0-1.65-.06c-2.22-.1-2.42-.13-4.6-.19l.6,0a23.83,23.83,0,0,1-3.58,0l.05,0c-4-.2-1.74,0-5.72-.18l.22.12c-.37.25-3.53-.21-5.84-.15l.83.08a14.6,14.6,0,0,1-2.4-.18c-.88-.1-1.77-.19-2.4-.2-.28,0,.44,0,.82-.07-3.32-.09-.43.17-2.9.25-.46-.08.59-.23-1.08-.21-.83-.05-4.83.37-7.1.25.5.06,1,.11-.15.18-.88,0-2.07,0-3.24,0a21.25,21.25,0,0,0-3.11.22c-.22,0-.31,0-.32,0-1.34.13-4.37.33-5.17.49-1.27-.34-8.34.64-8.34.34l-4.12.41.1,0a35.36,35.36,0,0,0-4.48.58c-.61,0-.17,0-.12-.07a43.74,43.74,0,0,0-7.44.93l-.35-.08c-.86.19-5.57.55-9.31,1.19a1.47,1.47,0,0,1,.41-.11l-6.83,1a23.51,23.51,0,0,0-4.78,1l-2.75.6c3.6-.59-.5.29,1,.1-1.4.27-3.67.51-1.94.18l.28,0c.3-.16-.83,0-2,.23a14.26,14.26,0,0,1-2.38.43L120.22,119l-9.95,2.57.8,0-2.27.59c-.61.12-.84.07.78-.35a11.9,11.9,0,0,0-2.71.88c-3.14.91,1.16-.59.2-.29l-1.3.42.3-.07a26.61,26.61,0,0,1-3,1.1,6.7,6.7,0,0,1-1.14.23l-.15,0-.58.19-2.82.87,1.17-.22c-1.23.46-2.65.83-1.3.57-2,.23-10.41,3.58-11.6,3.91-1.68.74-3.4,1.31-5.46,2.2.52-.19.89-.17-.9.56.52-.58-3.32,1.24-4.85,1.63,1.35-.4-5.05,2.17-2.94,1.53-1.49.61-.15-.1-1.29.35-1.7.89-3.62,1.79-5.64,2.73l-3.1,1.44c-1.06.48-2.12,1-3.15,1.59,0,.07.68-.25-.18.3l-2.31,1a10.36,10.36,0,0,1-2.22,1.32c.23-.08.57-.21,0,.11-4.19,2-8.17,4.65-12.23,7.14-2.06,1.21-4,2.62-6,3.94s-4,2.62-6,3.9c1.09-.68.39-.19-.38.41.52-.37.05.1.19.07L27,161.9c-.47.57-3.36,2.59-3.59,3l1-.78c-1.21,1.16,2.1-1.09,2.06-.75a24.49,24.49,0,0,1,2.83-2.11c1.13-.79,2.36-1.67,3.55-2.63.58-.34-.43.39-.1.23a22.12,22.12,0,0,1,2.79-2l-.15.13c2-1.38,3.44-2.35,4.95-3.35s3.18-1.88,5.52-3.29l-.41.11c1-.6,1.24-.7,1.72-1,1.06-.86-2.81,1.71-1.87.9.73-.3,2.49-1.38,4.2-2.42l1.26-.76,1.17-.61a10.18,10.18,0,0,1,1.54-.69c1.59-.86-.53.13,1.05-.73L55,145l.35-.3a5.78,5.78,0,0,1,1.68-.72c-.26.13-.71.41-1,.56,1.39-.66,3.78-2.09,4.26-2.32l-1.54.79c2.12-1.26,4.61-2.4,7-3.58l7-3.42-.36.09c3.31-1.51,2.71-1.07,6.36-2.67l-.13.07c.71-.36,1.69-.8,2.7-1.22-.9.45,1.79-.62.6,0,1.79-.83,2.25-1,2.54-1.13s.41-.24,1.6-.78l.6-.12A23.1,23.1,0,0,1,89.42,129c-1.51.64,1.24-.31-.44.42,2-.62,3.44-1.21,4.62-1.68.59-.24,1.11-.45,1.61-.62a10.06,10.06,0,0,1,1.46-.34c.88-.41,0-.17-1,.12a14.81,14.81,0,0,1-1.51.5c-.87.23,1.42-.74,2.7-1.08s2.27-.37,5.47-1.38l-.65.22c1.22-.31,2.32-.82,3.83-1.19.78-.41,1.91-.59,2.1-.86l-2.93,1c.83-.29,1.61-.61,2.54-1a30.88,30.88,0,0,1,3.43-1c-.21.1-1,.37-1.58.55.83-.16,1.56-.45,2.42-.62a9.74,9.74,0,0,1-2.1.68l-1.72.47c-.57.18-1.1.38-1.54.55.87-.22,3.36-1.12,2.51-.67,1.23-.61,3.21-.82,5.35-1.6l-.11.15c.34-.11,1-.36,1.69-.52l-1.12.46c1.75-.6,3.46-.8,5.15-1.32-3.57,1-.84.07-2.37.39,4.37-1.33,2.61-.39,7.58-1.55-.67.16-2.55.49-1.51.2s2.22-.42,2.82-.48c3.3-.75-.53,0,.86-.39a18.31,18.31,0,0,0,3.05-.78l0,.12c3.79-.74.94-.49,4.37-1.09-.47.13-.94.29-1.41.45.58-.15,1.18-.28,1.77-.39l-.34.2c1.92-.44,2.53-.52,4.44-.82-.46,0,.21-.26,1.89-.56,1.16-.13-.62.23,1.76-.21a7.87,7.87,0,0,1-2.16.44c-.1.06-.52.17-.62.23,1.25-.14,3.11-.53,4-.68-.33.05-.73.12-.94.14l3.43-.77c.55-.05.13.06-.3.17.7-.13,1.17-.29,2.21-.45-.25.13-.18.21-1.63.52,1.09-.25,2.19-.42,3.29-.6.23,0,1.72-.11,1.29,0,1.84-.19,4.48-.79,6.93-1a9,9,0,0,1,.89-.17l3.37-.38c1.14-.09,2.33-.21,3.69-.4l1.56,0c2.13-.24-2.12,0,1.43-.42,2.51-.29,1,.06,1.84,0a42.76,42.76,0,0,1,5.73-.66C175.78,111.48,175.18,111.51,174.46,111.59Zm26.42-1.33a12.9,12.9,0,0,1-1.91.07A6.6,6.6,0,0,1,200.88,110.26Zm40.22.68a12.54,12.54,0,0,1-1.63-.13C240,110.83,240.5,110.86,241.1,110.94Zm109.63,22.19h-.05C349.63,132.65,350,132.82,350.73,133.13Zm2.2.91c.23.07.22,0,.13,0a11.37,11.37,0,0,1-1.23-.45A5.9,5.9,0,0,0,352.93,134Zm-251.26-9.88.45-.11C101.13,124.4,101.4,124.28,101.67,124.16Z"/><path class="cls-3" d="M236.54,110.83a.46.46,0,0,1-.22-.08C236.12,110.76,236.11,110.78,236.54,110.83Z"/><path class="cls-3" d="M158.11,113.34H158l-.08,0Z"/><path class="cls-3" d="M317.61,123.61c-.47-.14-.72-.24-.89-.31S316.89,123.41,317.61,123.61Z"/><path class="cls-3" d="M364.66,138.73l-1.41-.59c.68.3.91.43,1.24.6C364.48,138.7,364.23,138.54,364.66,138.73Z"/><path class="cls-3" d="M376.28,145.12l.62.3,0-.08C376,144.92,375.42,144.66,376.28,145.12Z"/><path class="cls-3" d="M365.79,139.67a11,11,0,0,0,1.93.93l-.17-.08C367.9,140.52,366.85,140.08,365.79,139.67Z"/><path class="cls-3" d="M367.95,140.71l.89.42C369,141.13,368.48,140.95,367.95,140.71Z"/><path class="cls-3" d="M355.77,135.08c.46.22.34,0,.59.15C356.94,135.32,353.17,134.12,355.77,135.08Z"/><polygon class="cls-3" points="366.44 140.33 366.14 140.06 365.55 139.91 366.44 140.33"/><path class="cls-3" d="M358.75,136.88l1.56.69a1.42,1.42,0,0,1,.44.14C359.78,137.29,358.73,136.83,358.75,136.88Z"/><path class="cls-3" d="M360.75,137.7c.51.21,1,.42,1.27.53C361.75,138.11,361.17,137.85,360.75,137.7Z"/><polygon class="cls-3" points="364.3 139.41 363.85 139.19 362.75 138.69 364.3 139.41"/><path class="cls-3" d="M341.64,130.31l-1.77-.57c-.19,0,.28.17.94.37C341.24,130.23,341.9,130.44,341.64,130.31Z"/><path class="cls-3" d="M346.82,132.53a5.41,5.41,0,0,1-.74-.37l-.11.13Z"/><path class="cls-3" d="M341.71,130.73c-.19,0-2.59-.75-.36,0C341.54,130.75,343.31,131.31,341.71,130.73Z"/><polygon class="cls-3" points="314.94 122.47 315.4 122.58 315.39 122.32 314.94 122.47"/><path class="cls-3" d="M290.71,117.71c2.15.47.54-.06,2.48.39.52,0-1.59-.36-1.06-.32C290.82,117.6,290.14,117.43,290.71,117.71Z"/><path class="cls-3" d="M292.14,117.78l.67.09Z"/><polygon class="cls-3" points="24.83 163.41 23.67 164.23 24.45 163.74 24.83 163.41"/><path class="cls-3" d="M22.78,165.21l-.37.08-.59.63A10.5,10.5,0,0,1,22.78,165.21Z"/><path class="cls-3" d="M204.82,110.51l.11,0a8.34,8.34,0,0,0-1.21,0Z"/><polygon class="cls-3" points="185.63 111 185.96 110.99 185.34 110.87 185.63 111"/><path class="cls-3" d="M169.58,112.36l2.08-.22C170.24,112.31,169.39,112.2,169.58,112.36Z"/><path class="cls-1" d="M373.08,71.34h0a4.3,4.3,0,0,0-2.58-5L338.15,55.85a4.3,4.3,0,0,0-5,2.58L320.82,96.49"/><path class="cls-1" d="M335.69,63.47l36.16,11.68-14.14,43.77a4.3,4.3,0,0,1-5,2.58L320.32,111a4.3,4.3,0,0,1-2.58-5l1.84-5.71L355.75,112"/><circle class="cls-1" cx="338.04" cy="111.51" r="1" transform="translate(128.03 398.91) rotate(-72.1)"/><circle class="cls-1" cx="353.1" cy="64.88"/><line class="cls-1" x1="362.39" y1="78.4" x2="363.68" y2="80.91"/><line class="cls-1" x1="356.68" y1="76.55" x2="361.84" y2="86.62"/><path class="cls-1" d="M288.37,72.86a8.77,8.77,0,0,1-.82-5.36c.9-3.57,1.54-4,4.09-3.31s2,1.6,3.06,1.86,1-.83,3.58-.18,2.93,1.28,2,4.86A8.77,8.77,0,0,1,297,75.05"/><path class="cls-1" d="M297.72,74.53c-.74,1.87-1.73,5.79-3.69,6-2-.52,0-3.26-1.65-5.3-2.43,1-1.93,4.4-4,3.89-1.77-.45-.63-5-.4-7"/><path class="cls-1" d="M298,67.14s1-.18,1.28.32a.82.82,0,0,1,.13.57"/><path class="cls-1" d="M388.37,102.5a1.09,1.09,0,0,1,1.4-.64l1.53.57a1.09,1.09,0,0,1,.64,1.4"/><path class="cls-1" d="M382.88,106.28l-.1.26a.27.27,0,0,0,.16.35l.51.19a.27.27,0,0,0,.35-.16l.1-.26"/><path class="cls-1" d="M392.6,109.9l-.1.26a.27.27,0,0,0,.16.35l.51.19a.27.27,0,0,0,.35-.16l.1-.26"/><path class="cls-1" d="M393,104.21a2.26,2.26,0,0,0-1.28-2.81l-1.53-.57a2.29,2.29,0,0,0-2.81,1.28"/><polygon class="cls-1" points="388.07 111.13 388.64 109.59 387.11 109.02 386.54 110.55 385 109.98 384.43 111.52 385.96 112.09 385.39 113.62 386.93 114.19 387.5 112.66 389.03 113.23 389.61 111.7 388.07 111.13"/><path class="cls-1" d="M393.63,110.28"/><path class="cls-1" d="M382.76,105.07l.5.19.48-1.28a.27.27,0,0,1,.35-.16l.51.19a.27.27,0,0,1,.16.35l-.48,1.28,8.7,3.24.48-1.28a.27.27,0,0,1,.35-.16l.51.19a.27.27,0,0,1,.16.35l-.48,1.28,1.53.57a.53.53,0,0,0,.7-.32l.57-1.53a1.09,1.09,0,0,0-.64-1.4l-12.79-4.77a1.09,1.09,0,0,0-1.4.64l-.57,1.53a.53.53,0,0,0,.32.7l-2.86,7.67a1.09,1.09,0,0,0,.64,1.4l11.77,4.39a1.09,1.09,0,0,0,1.4-.64l2.48-6.65"/><g class="cls-4"><polygon class="cls-1" points="295.29 16.15 295.85 17.43 297.23 17.69 296.18 18.62 296.36 20.01 295.15 19.31 293.88 19.9 294.18 18.53 293.22 17.51 294.62 17.37 295.29 16.15"/><polygon class="cls-1" points="352.81 20.64 353.37 21.93 354.74 22.19 353.7 23.12 353.87 24.51 352.66 23.8 351.39 24.4 351.69 23.03 350.74 22.01 352.13 21.87 352.81 20.64"/><polygon class="cls-1" points="138.1 1.13 138.66 2.41 140.03 2.67 138.99 3.6 139.16 4.99 137.95 4.29 136.69 4.88 136.99 3.52 136.03 2.49 137.42 2.35 138.1 1.13"/><polygon class="cls-1" points="23.59 83.97 24.15 85.25 25.53 85.52 24.48 86.45 24.66 87.84 23.45 87.13 22.18 87.73 22.48 86.36 21.52 85.34 22.92 85.2 23.59 83.97"/><polygon class="cls-1" points="137.97 48.5 138.53 49.78 139.91 50.05 138.86 50.98 139.04 52.37 137.83 51.66 136.56 52.25 136.86 50.89 135.9 49.87 137.3 49.73 137.97 48.5"/><polygon class="cls-1" points="419.36 54.56 419.92 55.84 421.3 56.11 420.25 57.04 420.43 58.43 419.22 57.72 417.95 58.32 418.25 56.95 417.29 55.93 418.68 55.79 419.36 54.56"/><polygon class="cls-1" points="57.12 15.29 57.69 16.57 59.06 16.84 58.02 17.77 58.19 19.16 56.98 18.45 55.71 19.05 56.01 17.68 55.05 16.66 56.45 16.52 57.12 15.29"/></g></g></g></svg>