<svg xmlns="http://www.w3.org/2000/svg" viewBox="0 0 67.03 67.03"><defs><style>.cls-1{fill:none;stroke:#53c4c9;stroke-miterlimit:10;}</style></defs><title>Asset 2</title><g id="Layer_2" data-name="Layer 2"><g id="Layer_2-2" data-name="Layer 2"><path class="cls-1" d="M45.63,27.09c0-4.18-2.72-7.22-6.46-7.22A8.51,8.51,0,0,0,34.72,21c-1.13.6-1.29.6-2.41,0a8.52,8.52,0,0,0-4.45-1.18c-3.74,0-6.46,3-6.46,7.22a12.14,12.14,0,0,0,2.23,6.74,5.16,5.16,0,0,1,.9,1.9,14.39,14.39,0,0,1-.25,2.83,15.6,15.6,0,0,0-.17,4.53c.38,4.91,2.6,7.15,4.5,7.15h0c1.19,0,2.92-3.33,2.82-6.85a2.45,2.45,0,0,1,.63-1.81,2.09,2.09,0,0,1,2.92,0,2.45,2.45,0,0,1,.63,1.81c-.11,3.53,1.59,6.85,2.82,6.85,1.9,0,4.12-2.24,4.5-7.15a15.6,15.6,0,0,0-.17-4.53,14.37,14.37,0,0,1-.25-2.83,5.16,5.16,0,0,1,.9-1.9A12.14,12.14,0,0,0,45.63,27.09Z"/><circle class="cls-1" cx="33.52" cy="33.52" r="33.02"/></g></g></svg>