<svg xmlns="http://www.w3.org/2000/svg" viewBox="0 0 67.03 67.03"><defs><style>.cls-1{fill:none;stroke:#53c4c9;stroke-miterlimit:10;}</style></defs><title>Asset 3</title><g id="Layer_2" data-name="Layer 2"><g id="Layer_2-2" data-name="Layer 2"><circle class="cls-1" cx="33.52" cy="33.52" r="33.02"/><g id="First_Aid" data-name="First Aid"><path class="cls-1" d="M15.29,24.37H52.2a0,0,0,0,1,0,0V42a8,8,0,0,1-8,8H23.29a8,8,0,0,1-8-8V24.37A0,0,0,0,1,15.29,24.37Z"/><path class="cls-1" d="M26.53,24.37l1-4a3.21,3.21,0,0,1,3.11-2.43h6.22A3.21,3.21,0,0,1,40,20.38l1,4"/><polygon class="cls-1" points="40.17 34.8 36.15 34.8 36.15 30.79 31.34 30.79 31.34 34.8 27.33 34.8 27.33 39.61 31.34 39.61 31.34 43.63 36.15 43.63 36.15 39.61 40.17 39.61 40.17 34.8"/></g></g></g></svg>