<?xml version="1.0" standalone="no"?>
<!DOCTYPE svg PUBLIC "-//W3C//DTD SVG 20010904//EN"
 "http://www.w3.org/TR/2001/REC-SVG-20010904/DTD/svg10.dtd">
<svg version="1.0" xmlns="http://www.w3.org/2000/svg"
 width="725.000000pt" height="725.000000pt" viewBox="0 0 725.000000 725.000000"
 preserveAspectRatio="xMidYMid meet">
<metadata>
Created by potrace 1.11, written by Peter Selinger 2001-2013
</metadata>
<g transform="translate(0.000000,725.000000) scale(0.100000,-0.100000)"
fill="#000000" stroke="none">
<path d="M3585 6032 c-2 -2 -26 -6 -52 -8 -101 -8 -203 -33 -280 -69 -28 -14
-57 -25 -62 -25 -6 0 -11 -4 -11 -10 0 -5 -9 -10 -20 -10 -11 0 -20 -4 -20
-10 0 -5 -7 -10 -15 -10 -8 0 -15 -4 -15 -9 0 -5 -10 -13 -22 -17 -13 -4 -34
-15 -47 -25 -13 -10 -27 -16 -32 -13 -5 3 -9 0 -9 -5 0 -6 -7 -11 -15 -11 -8
0 -15 -3 -15 -7 0 -5 -26 -21 -58 -38 -31 -16 -63 -35 -70 -42 -7 -7 -20 -13
-27 -13 -7 0 -20 -7 -28 -15 -8 -8 -21 -16 -28 -17 -7 -2 -21 -11 -31 -21 -11
-10 -26 -16 -34 -13 -8 3 -13 2 -10 -3 5 -8 -43 -39 -96 -63 -16 -7 -28 -16
-28 -20 0 -4 -4 -8 -9 -8 -9 0 -212 -114 -251 -140 -8 -6 -27 -15 -42 -21 -16
-6 -28 -14 -28 -19 0 -4 -8 -10 -17 -14 -10 -3 -25 -10 -33 -16 -53 -35 -125
-70 -136 -66 -8 3 -11 0 -8 -8 3 -8 -6 -18 -23 -25 -35 -14 -143 -78 -164 -97
-8 -8 -21 -14 -27 -14 -7 0 -12 -4 -12 -10 0 -5 -4 -10 -10 -10 -5 0 -20 -10
-33 -22 -13 -13 -32 -30 -43 -39 -24 -20 -114 -118 -114 -125 0 -5 -48 -72
-60 -84 -3 -3 -6 -12 -8 -20 -2 -8 -10 -22 -18 -31 -8 -8 -14 -22 -14 -30 0
-8 -4 -19 -9 -24 -7 -8 -26 -57 -38 -100 -1 -5 -9 -35 -18 -65 -9 -30 -17 -79
-18 -107 -1 -29 -4 -53 -7 -53 -7 0 -2 -1520 5 -1610 3 -41 7 -89 8 -107 1
-17 5 -29 10 -26 4 2 7 -5 7 -15 0 -11 7 -39 16 -63 9 -24 17 -48 18 -54 2
-12 62 -133 79 -159 7 -11 22 -31 35 -45 12 -14 22 -30 22 -34 0 -5 20 -28 45
-51 25 -24 45 -49 45 -55 0 -6 5 -11 11 -11 6 0 31 -18 57 -39 26 -21 79 -58
117 -81 39 -24 72 -45 75 -49 3 -3 11 -7 19 -9 8 -2 26 -11 40 -21 14 -9 73
-44 131 -76 58 -33 107 -62 110 -65 3 -3 30 -18 60 -34 30 -16 57 -32 60 -35
3 -3 23 -15 45 -27 52 -27 89 -48 95 -54 3 -3 26 -16 53 -30 26 -13 47 -29 47
-34 0 -5 3 -7 6 -3 3 3 30 -10 59 -29 30 -19 58 -34 63 -34 4 0 18 -9 30 -20
12 -12 22 -18 22 -15 0 3 20 -8 44 -25 25 -16 49 -30 55 -30 5 0 16 -6 23 -12
13 -13 23 -18 92 -57 17 -10 71 -41 121 -70 49 -28 95 -51 102 -51 7 0 13 -5
13 -11 0 -5 3 -8 8 -6 4 3 18 0 32 -6 29 -12 25 -11 107 -30 34 -8 64 -12 67
-9 3 3 6 1 6 -5 0 -10 256 -10 300 1 14 3 39 8 55 12 43 9 144 43 177 60 15 8
28 11 28 7 0 -5 4 -3 8 3 4 6 27 22 52 34 25 12 48 27 51 32 3 5 15 10 27 11
11 0 19 4 17 7 -2 4 15 17 38 29 58 30 81 44 89 56 4 6 8 6 8 1 0 -5 7 -2 16
5 19 16 36 25 101 59 26 14 50 28 51 33 2 4 10 7 18 7 8 0 14 3 14 8 0 8 55
34 66 32 4 -1 11 5 16 14 5 9 14 16 19 16 6 0 22 9 36 20 14 11 29 18 33 15 4
-3 11 2 14 11 3 8 10 12 16 9 5 -3 10 -1 10 4 0 6 5 11 11 11 5 0 26 11 46 25
20 13 40 22 45 19 4 -3 8 -1 8 4 0 5 17 17 38 28 20 10 39 22 42 25 3 4 23 16
45 28 22 12 56 31 75 42 90 53 118 68 121 66 2 -1 3 0 2 2 -4 6 150 93 165 94
6 0 12 4 12 9 0 5 10 13 23 18 32 14 60 33 74 50 7 8 13 12 13 8 0 -4 40 32
89 80 48 48 88 89 87 92 -2 12 37 59 45 54 5 -3 6 3 2 12 -5 13 -3 15 7 9 9
-5 11 -4 6 4 -4 6 -3 17 2 24 19 23 48 82 62 125 7 23 17 42 22 42 5 0 7 4 4
9 -4 5 -2 21 4 36 5 14 13 40 16 58 9 46 12 62 15 62 1 0 3 87 5 194 1 107 4
206 4 220 1 14 1 31 1 36 -1 6 -2 197 -1 425 2 707 1 793 -5 850 -5 54 -12 95
-15 95 -1 0 -3 7 -5 16 -19 100 -115 308 -152 332 -7 4 -13 12 -13 18 0 9 -28
42 -92 110 -16 16 -28 27 -28 24 0 -3 -15 10 -32 28 -18 18 -40 36 -48 40 -8
4 -35 21 -60 37 -25 16 -54 34 -65 40 -11 5 -38 21 -60 34 -22 14 -62 37 -90
51 -27 15 -57 32 -65 39 -15 11 -27 18 -99 58 -69 38 -106 62 -113 72 -4 6 -8
7 -8 2 0 -5 -9 -1 -20 9 -11 10 -20 14 -20 9 0 -5 -4 -4 -8 2 -4 6 -32 24 -62
40 -30 16 -57 31 -60 34 -3 3 -18 13 -35 22 -16 10 -29 22 -28 27 1 5 -7 7
-17 4 -11 -3 -20 -1 -20 3 0 5 -15 16 -32 23 -18 8 -57 30 -86 48 -28 19 -60
37 -70 40 -9 4 -35 18 -57 32 -22 14 -49 31 -60 37 -92 51 -125 70 -157 91
-21 12 -42 23 -48 23 -5 0 -10 5 -10 11 0 5 -4 8 -9 4 -6 -3 -14 3 -20 12 -6
10 -11 14 -11 9 0 -5 -7 -3 -15 4 -8 7 -15 10 -15 6 0 -3 -16 3 -35 14 -20 11
-44 20 -55 20 -11 0 -20 4 -20 8 0 4 -16 9 -37 10 -20 2 -41 6 -47 10 -11 6
-36 10 -103 15 -18 1 -33 6 -33 11 0 5 -6 3 -13 -3 -8 -6 -16 -8 -20 -5 -7 7
-66 12 -72 6z m600 -1816 c143 -17 251 -43 366 -90 36 -14 68 -26 71 -26 6 0
148 -78 157 -86 6 -5 -45 -87 -110 -175 -59 -80 -260 -288 -344 -357 -166
-135 -397 -269 -578 -336 -96 -36 -276 -84 -340 -91 -17 -1 -54 -6 -80 -10
-128 -18 -326 -8 -482 26 -130 28 -375 128 -375 153 0 7 27 56 59 109 304 498
825 839 1346 883 44 4 81 7 82 8 4 3 192 -3 228 -8z"/>
<path d="M1386 5968 c3 -5 10 -6 15 -3 13 9 11 12 -6 12 -8 0 -12 -4 -9 -9z"/>
<path d="M955 5770 c-3 -5 -1 -10 4 -10 6 0 11 5 11 10 0 6 -2 10 -4 10 -3 0
-8 -4 -11 -10z"/>
<path d="M755 5650 c-3 -5 -1 -10 4 -10 6 0 11 5 11 10 0 6 -2 10 -4 10 -3 0
-8 -4 -11 -10z"/>
<path d="M1755 5170 c3 -5 8 -10 11 -10 2 0 4 5 4 10 0 6 -5 10 -11 10 -5 0
-7 -4 -4 -10z"/>
<path d="M440 4370 c-9 -6 -10 -10 -3 -10 6 0 15 5 18 10 8 12 4 12 -15 0z"/>
<path d="M6395 3290 c-3 -5 -1 -10 4 -10 6 0 11 5 11 10 0 6 -2 10 -4 10 -3 0
-8 -4 -11 -10z"/>
<path d="M5750 2330 c0 -5 5 -10 11 -10 5 0 7 5 4 10 -3 6 -8 10 -11 10 -2 0
-4 -4 -4 -10z"/>
</g>
</svg>
