<svg width="20" height="13" viewBox="0 0 20 13" fill="none" xmlns="http://www.w3.org/2000/svg">
    <path d="M14.8792 4.42415L16.5382 1.4609C16.6318 1.29478 16.5752 1.08376 16.4163 0.987229C16.2573 0.8907 16.0505 0.946821 15.9591 1.11294L14.2783 4.11435C12.9959 3.51048 11.5524 3.17375 10 3.17375C8.44764 3.17375 7.00414 3.51048 5.72175 4.11435L4.04093 1.11294C3.94731 0.946821 3.74265 0.8907 3.58154 0.987229C3.42042 1.08376 3.36599 1.29478 3.45961 1.4609L5.11866 4.42415C2.25778 6.02251 0.320052 9.0082 0 12.5035H20C19.6799 9.0082 17.7422 6.02251 14.8792 4.42415ZM5.40823 9.60759C4.94448 9.60759 4.57 9.21922 4.57 8.74331C4.57 8.26515 4.94666 7.87903 5.40823 7.87903C5.87198 7.87903 6.24646 8.26739 6.24646 8.74331C6.24865 9.21922 5.87198 9.60759 5.40823 9.60759ZM14.5896 9.60759C14.1258 9.60759 13.7514 9.21922 13.7514 8.74331C13.7514 8.26515 14.128 7.87903 14.5896 7.87903C15.0533 7.87903 15.4278 8.26739 15.4278 8.74331C15.43 9.21922 15.0533 9.60759 14.5896 9.60759Z" fill="#32DE84"/>
</svg>
