<svg width="16" height="19" viewBox="0 0 16 19" fill="none" xmlns="http://www.w3.org/2000/svg">
    <path d="M15.1856 14.6278C14.9163 15.25 14.5975 15.8227 14.2282 16.3492C13.7248 17.067 13.3125 17.5638 12.9949 17.8397C12.5024 18.2926 11.9748 18.5246 11.4098 18.5377C11.0042 18.5377 10.515 18.4223 9.94563 18.1882C9.37436 17.9552 8.84937 17.8397 8.36934 17.8397C7.8659 17.8397 7.32596 17.9552 6.74843 18.1882C6.17001 18.4223 5.70405 18.5443 5.34779 18.5564C4.80599 18.5795 4.26594 18.341 3.72688 17.8397C3.38282 17.5396 2.95248 17.0252 2.43694 16.2964C1.88381 15.5182 1.42906 14.6157 1.07281 13.5868C0.691265 12.4755 0.5 11.3994 0.5 10.3575C0.5 9.16412 0.757878 8.1348 1.2744 7.27224C1.68035 6.5794 2.22039 6.03287 2.89631 5.63165C3.57222 5.23044 4.30254 5.02598 5.08904 5.0129C5.51938 5.0129 6.08372 5.14602 6.78503 5.40763C7.48435 5.67013 7.93339 5.80324 8.13026 5.80324C8.27744 5.80324 8.77627 5.64759 9.6219 5.33728C10.4216 5.0495 11.0965 4.93035 11.6494 4.97728C13.1477 5.0982 14.2733 5.68881 15.0218 6.75286C13.6819 7.56475 13.0191 8.70189 13.0322 10.1607C13.0443 11.2969 13.4565 12.2425 14.2667 12.9933C14.6338 13.3417 15.0438 13.611 15.5 13.8023C15.4011 14.0892 15.2966 14.364 15.1856 14.6278ZM11.7495 1.10626C11.7495 1.99686 11.4241 2.82841 10.7755 3.59809C9.99289 4.51308 9.04624 5.04181 8.01968 4.95838C8.0066 4.85153 7.99901 4.73908 7.99901 4.62092C7.99901 3.76594 8.37121 2.85095 9.03217 2.10282C9.36216 1.72402 9.78184 1.40906 10.2908 1.15781C10.7986 0.910312 11.279 0.773439 11.7308 0.75C11.744 0.869059 11.7495 0.988126 11.7495 1.10625V1.10626Z" fill="#B6B6B6"/>
</svg>
