<svg width="22" height="22" viewBox="0 0 22 22" fill="none" xmlns="http://www.w3.org/2000/svg">
<path fill-rule="evenodd" clip-rule="evenodd" d="M1.10043 12.4142C0.319386 11.6332 0.319386 10.3668 1.10043 9.58578L9.58572 1.1005C10.3668 0.319447 11.6331 0.319447 12.4141 1.1005L20.8994 9.58578C21.6805 10.3668 21.6805 11.6332 20.8994 12.4142L12.4141 20.8995C11.6331 21.6805 10.3668 21.6805 9.58572 20.8995L1.10043 12.4142ZM9.99993 5.99999H11.9999V12H9.99993V5.99999ZM10.9999 15.9999C11.8284 15.9999 12.4999 15.3284 12.4999 14.4999C12.4999 13.6715 11.8284 12.9999 10.9999 12.9999C10.1715 12.9999 9.49993 13.6715 9.49993 14.4999C9.49993 15.3284 10.1715 15.9999 10.9999 15.9999Z" fill="#FF0C46"/>
</svg>
