<svg
    width="16"
    height="17"
    viewBox="0 0 16 17"
    fill="none"
    xmlns="http://www.w3.org/2000/svg"
>
    <path
            d="M1.91933 11.854L3.33333 10.4393L3.098 10.2047C3.01267 10.1193 3 10.02 3 9.968C3 9.91667 3.01267 9.81733 3.098 9.73267L8.75533 4.07533C8.84 3.99067 8.93933 3.978 8.99067 3.978C9.04267 3.978 9.142 3.99067 9.22667 4.076L9.462 4.31133L10.8767 2.89667L10.64 2.66133C9.75867 1.77933 8.22133 1.78 7.34 2.66067L1.68333 8.318C1.24267 8.758 1 9.34467 1 9.968C1 10.5913 1.24267 11.1773 1.68333 11.6187L1.91933 11.854Z"
            fill="#97ADC6"
    />
    <path
            d="M14.1753 6.19666L12.7613 7.61066L12.9973 7.84666C13.1267 7.97599 13.1267 8.18732 12.9973 8.31732L7.34067 13.974C7.25601 14.0593 7.15667 14.072 7.10467 14.072C7.05267 14.072 6.95401 14.0593 6.86867 13.9747L6.63267 13.7387L5.21867 15.1533L5.45467 15.3887C5.89534 15.8293 6.48134 16.072 7.10467 16.072C7.72801 16.072 8.31401 15.8293 8.75467 15.3887L14.412 9.73199C15.3213 8.82132 15.3213 7.34199 14.412 6.43266L14.1753 6.19666Z"
            fill="#97ADC6"
    />
    <path
            d="M14.4116 4.07553L12.9976 2.66113L8.28248 7.37494L9.69648 8.78934L14.4116 4.07553Z"
            fill="#97ADC6"
    />
    <path
            d="M7.8118 10.6746L6.3976 9.26044L1.6836 13.9744L3.0978 15.3886L7.8118 10.6746Z"
            fill="#97ADC6"
    />
</svg>