<svg width="583" height="238" viewBox="0 0 583 238" fill="none" xmlns="http://www.w3.org/2000/svg">
<path d="M13.9459 27C13.7726 26.7504 13.621 26.6048 13.5561 26.4384C12.7332 24.3166 11.9319 22.1949 11.1307 20.0732C10.8925 19.4492 10.6543 18.8043 10.4377 18.1595C10.2428 17.5978 9.93968 17.1194 9.33333 16.9114C8.29389 16.5578 7.2761 16.2042 6.23666 15.8297C5.04563 15.4137 3.87626 14.9769 2.70688 14.5609C1.99227 14.3112 1.27765 14.1032 0.563032 13.8328C0.346481 13.7496 0.194896 13.5416 0 13.3752C0.194896 13.2296 0.346481 13.0008 0.563032 12.9384C1.75406 12.5015 2.96674 12.0855 4.15777 11.6695C5.26218 11.2743 6.34493 10.8998 7.44934 10.5046C8.05569 10.2966 8.66203 10.0886 9.29002 9.88059C9.80974 9.69337 10.1562 9.36055 10.3511 8.86132C10.7193 7.88367 11.0874 6.90601 11.4555 5.94915C12.0619 4.38906 12.6682 2.80817 13.2746 1.24807C13.3828 0.956857 13.4261 0.644838 13.5777 0.353621C13.6643 0.187211 13.8592 0 14.0108 0C14.1624 0 14.3573 0.208012 14.4223 0.374422C15.2452 2.49615 16.0464 4.61787 16.8693 6.7396C17.1075 7.38444 17.3457 8.05008 17.5839 8.69491C17.7788 9.27735 18.1036 9.69337 18.7316 9.90139C20.2908 10.4214 21.85 10.9622 23.4091 11.5239C24.5135 11.9191 25.6179 12.3351 26.744 12.7304C27.0255 12.8344 27.3503 12.876 27.6102 13.0008C27.7834 13.084 28 13.2504 28 13.396C28 13.5208 27.7834 13.7496 27.6319 13.7912C24.9033 14.7897 22.1964 15.7257 19.4896 16.6826C19.3813 16.7242 19.2514 16.7658 19.1214 16.7866C18.2119 16.9738 17.7355 17.4938 17.454 18.3675C17.1075 19.4908 16.6094 20.5724 16.198 21.6749C15.8082 22.7149 15.3968 23.7342 15.007 24.7743C14.7904 25.3567 14.5955 25.9599 14.3573 26.5424C14.3357 26.6672 14.1624 26.792 13.9459 27Z" fill="#0084FF"/>
<circle cx="91" cy="229" r="9" fill="#FFD12D"/>
<circle cx="574" cy="59" r="9" fill="#93E6CF"/>
</svg>
