<svg version="1" xmlns="http://www.w3.org/2000/svg" width="1365.333" height="1365.333" viewBox="0 0 1024.000000 1024.000000"><path d="M46.8 1.5c-16.7 4.1-31.5 16-39.4 31.6-7 14-6.4-29-6.2 480.1.3 437.9.4 460.6 2.1 466.2 6.2 20.6 21.5 35.9 42.2 42.3 5.8 1.7 22.2 1.8 466.5 1.8s460.7-.1 466.5-1.8c20.7-6.4 36-21.7 42.2-42.3 1.7-5.6 1.8-28.3 2.1-466.2.2-509.1.8-466.1-6.2-480.1-8-15.9-22.8-27.6-39.9-31.6-9.1-2.1-921-2.1-929.9 0zm354.7 59l2.5 2.4v123.2l-2.5 2.4-2.4 2.5h-119l-2.8-2.4-2.8-2.4V62.8l2.8-2.4 2.8-2.4h119l2.4 2.5zm44.5 65c0 66.8 0 67.5-2 67.5s-2-.7-2-67.5 0-67.5 2-67.5 2 .7 2 67.5zm68.7-64.9c4.7 3.5 6.4 6.8 7.4 14.3 1.2 8.5 0 18.6-2.8 23.4-2.8 4.7-7.3 6.9-14.2 7-13.5.1-19.3-8.9-17.9-28.3 1-13 7.5-19.5 19.1-18.7 3.7.2 6.7 1 8.4 2.3zm22.3 9.9c0 1.4.3 1.4 3 0 4.6-2.4 11.4-2 14.7.9l2.8 2.4V105.5h-8l-.5-13c-.3-7.2-.9-13.6-1.3-14.3-.5-.6-2.1-1.2-3.6-1.2-5.5 0-6 1.3-6.3 15.5l-.3 13h-9l-.3-17c-.1-9.3 0-17.5.2-18.2.8-1.9 8.6-1.7 8.6.2zm48.6.4c4 2.4 6.4 7.7 6.4 14V90h-10c-9 0-10 .2-10 1.8 0 4.4 2.2 5.5 10.8 5.3l8.2-.1v3.4c0 3.3-.3 3.6-3.7 4.3-6.6 1.3-14.7.7-18-1.2-5.1-3-6.7-6.9-6.8-16 0-9.2 1.7-13.5 6.8-16.5 4.2-2.6 12.1-2.6 16.3-.1zm-64.8 46c.4 4.2-.8 5.1-7 5.1H509v37h-10v-36.9l-5.7-.3c-5.5-.3-5.8-.4-6.1-3.1-.7-5.8-.7-5.8 17-5.5l16.3.3.3 3.4zm222.4 1.8c.3 3.3.7 3.8 3.1 4.1 2.4.3 2.7.8 2.7 3.8 0 3.1-.2 3.4-3 3.4h-3v9.8c0 10.5.7 12.2 4.8 12.2 2 0 2.3.4 2 3.2-.3 3.2-.5 3.3-5.4 3.6-3.8.2-5.6-.2-7.5-1.7-2.3-1.8-2.4-2.6-2.7-14.4-.4-12.3-.4-12.5-2.8-13.1-1.9-.5-2.4-1.3-2.4-3.6 0-2.5.4-3 2.4-3s2.5-.6 2.8-3.2c.2-2.5.9-3.4 2.8-3.9 5.2-1.4 5.9-1.1 6.2 2.8zM538.8 126c.3 3.4.1 3.6-4.5 5l-4.8 1.5-.3 13.3-.3 13.3-4.7-.3-4.7-.3-.3-17.8-.2-17.7h5c2.8 0 5 .5 5 1 0 .6 1.2.4 2.8-.4 4.4-2.5 6.7-1.7 7 2.4zm25.5-1.6c3.8 2.5 4.7 6.5 4.7 20.7V158h-4.5c-2.5 0-4.5-.4-4.5-.9 0-.6-1.2-.3-2.7.5-7.9 4.1-16.3-.5-16.3-8.9 0-7.5 5.3-11.7 14.8-11.7 2.7 0 3.2-.4 3.2-2.4 0-3.7-2.2-4.8-9.2-4.4l-6.3.3V127c0-3 .4-3.6 3-4.2 4.9-1.1 14.9-.2 17.8 1.6zm36.7.4c3.5 3.5 4.2 7.9 3.8 22.7l-.3 11-4.7.3-4.8.3v-13.6c0-13.3 0-13.6-2.4-14.6-1.8-.9-3.1-.8-5.2.3l-2.9 1.3-.3 13.3-.3 13.2H575v-36h4.5c2.5 0 4.5.4 4.5 1 0 .5 1.5.3 3.3-.5 5.4-2.4 10.4-1.9 13.7 1.3zm29.9-1.4c.6.4 1.1 2.2 1.1 4v3.3l-6.7-.1c-4.3-.1-6.7.3-7 1.1-.3.7 2.7 3.2 6.5 5.7 3.8 2.4 7.2 5.2 7.6 6.1 1 2.6.7 8.4-.5 10.7-2.1 4-12.3 6-19.9 3.9-2-.6-2.5-1.3-2.5-4v-3.4l7-.1c9.4-.1 9.8-2 1.6-7.1-3.4-2-6.8-4.6-7.6-5.8-3.4-4.9-.6-13.9 4.8-15.1 2.9-.6 14.2 0 15.6.8zm28.7.5c5.6 2.6 7.4 6.6 7.4 17.3 0 12.8-4.1 17.9-14.4 18l-5.5.1-.3 6.1c-.3 5.5-.5 6.1-2.7 6.4-1.2.2-3.4.1-4.7-.2l-2.4-.6v-23c0-16.9.3-23.1 1.2-23.6 4.2-2.6 16.1-2.9 21.4-.5zm34 .1c5.7 2.8 7.4 6.6 7.4 16.7 0 5.7-.5 8.8-1.8 11.2-5 9.3-20.3 9.4-25.6.2-1.6-2.7-2-5.3-2-11.6 0-9.6 2-14 7.4-16.7 4.6-2.4 9.4-2.3 14.6.2zm31.2 2c.3 3.4.1 3.6-4.5 5l-4.8 1.5-.3 13.3-.3 13.3-4.7-.3-4.7-.3-.3-17.8-.2-17.7h5c2.8 0 5 .5 5 1 0 .6 1.2.4 2.8-.4 4.4-2.5 6.7-1.7 7 2.4zm-218 49.2c.7.7 1.2 2.4 1.2 4 0 3-2.3 4.8-6.4 4.8-2.1 0-2.5.5-2.9 3.7-.2 2.1-.4-.1-.5-5l-.2-8.7h3.8c2.1 0 4.3.5 5 1.2zm69.2 7.1v8.3l-3.2.2c-3.7.3-4.8-1-4.8-5.9 0-4.1 2-6.4 5-5.6 1.7.4 2 0 2-2.4 0-1.6.2-2.9.5-2.9s.5 3.7.5 8.3zm13.1-3c2.9-.8 4.9 1.5 4.9 5.7 0 4.3-1.6 6.1-5.4 5.8l-2.6-.2.2-8.6c0-4.7.3-7.1.5-5.4.3 2.6.8 3.1 2.4 2.7zm30.3-3.7c.9.8 1.6 2 1.6 2.7 0 .6-.9.1-2-1.1-4.1-4.4-7-2.1-7 5.5 0 4.2.4 5.4 2 6.3 1.5.8 2.4.6 4-1 2.5-2.5 2.6-4 0-4-1.1 0-2-.5-2-1 0-.6 1.1-1 2.5-1 1.9 0 2.5.5 2.5 2.3 0 5.1-5.6 8.7-8.8 5.5-.7-.7-1.2-3.9-1.2-7.3s.5-6.6 1.2-7.3c1.7-1.7 5.4-1.5 7.2.4zm20 3.6c.8.5.7.8-.1.8-.9 0-1.3 1.5-1.3 4.3 0 2.4.6 4.9 1.3 5.6 1 1.1.9 1.3-.3.9-1-.3-1.7-2.3-2-6-.5-5.9-.1-10.4.8-7.8.3.8 1 1.8 1.6 2.2zm7 0c.8.5.7.8-.1.8-2.1 0-1.7 8.7.5 9.9 1.5.9 1.6 1 0 1.1-1.9 0-2.6-1.9-2.8-7.5-.3-5.9 0-8.3.7-6.5.3.8 1.1 1.8 1.7 2.2zm-128 3c1.9 5.5-2.1 10.6-6.2 7.9-1.8-1.1-2-7.5-.2-9.6 2-2.4 5.3-1.5 6.4 1.7zm4.7 1.3c1.3 5.1 2.4 5.1 3.3 0 1-5.1 2.2-5 3.6.3l1.3 4.7 1.5-5c.8-2.8 1.6-4.6 1.8-4 .6 1.6-2.1 11-3.1 11-.5 0-1.3-1.7-1.8-3.8-1.1-4.6-2.3-4.7-3.1-.2-1 5-2.4 5.2-3.6.3-.6-2.4-1.3-5.1-1.6-6.1-.3-.9-.3-1.7 0-1.7s1.1 2 1.7 4.5zm20.5-3.7c.6.4 1.4 1.7 1.8 2.9.7 2.1.4 2.3-2.9 2.3-3.2 0-3.6.3-3.3 2.2.2 1.8.9 2.3 3 2.3 1.4-.1 2.4.3 2.2.7-1 1.6-5.4.8-6.5-1.3-2.7-5.1 1.5-11.9 5.7-9.1zm12.4.2c0 .5-.6.7-1.3.4-2.1-.8-3.5 1.7-4 6.6-.3 4-.4 3.8-.5-1.5-.2-6-.2-6 2.8-6.2 1.7-.1 3 .2 3 .7zm7.8.2c.7.7 1.2 2 1.2 3 0 1.4-.8 1.8-3.5 1.8-2.3 0-3.5.5-3.5 1.4 0 2.2 2.7 3.8 5.1 3.1 1.4-.5 1.9-.4 1.5.4-.9 1.5-4.9 1.4-6.4-.1s-1.6-6.3-.2-8.9c1.2-2.1 4-2.5 5.8-.7zm68 0c.7.7 1.2 2 1.2 3 0 1.4-.8 1.8-3.5 1.8-2.3 0-3.5.5-3.5 1.4 0 2.2 2.7 3.8 5.1 3.1 1.4-.5 1.9-.4 1.5.4-.9 1.5-4.9 1.4-6.4-.1s-1.6-6.3-.2-8.9c1.2-2.1 4-2.5 5.8-.7zm-32.9 4.8c1.4 4.7 2.6 4.5 3.5-.5.4-1.9 1.1-3.5 1.6-3.5s-.3 3.4-1.7 7.5c-1.6 4.8-3 7.5-4 7.5-1.2 0-1.2-.2.1-1.6 1.9-1.9 2-1-.3-7.7-1.1-3.2-1.6-5.7-1.2-5.7.4 0 1.3 1.8 2 4z"/><path d="M304.5 88.9c-8.5 2.2-15.2 8.8-18 17.6-1.4 4.5-1.6 8.4-1.3 21.2.3 14.9.5 16.1 3 20.9 4.9 9.3 13.8 14.4 25.3 14.4 11.8 0 21.3-5.6 25.6-15.2 2.2-5 2.4-6.4 2.4-22.8-.1-19.3-.6-21.6-6.7-28.5-4.8-5.6-9.9-7.7-19.3-8.1-4.4-.2-9.3 0-11 .5zm15.3 16.4c1.2 1.1 2.6 3.7 3.2 5.6 1.3 4.7 1.3 24.6 0 29.3-1.4 5-5.2 7.8-10.5 7.8-8.7 0-11.5-5.6-11.5-22.7.1-11.7 1.1-16.7 4-19.8 3.6-3.8 10.7-3.9 14.8-.2zM342.4 89.4c-.3.7-.4 3.8-.2 6.7l.3 5.4 8.8.3 8.7.3V161h16v-58.9l8.8-.3 8.7-.3v-13l-25.3-.3c-20.8-.2-25.3 0-25.8 1.2zM500.6 70.3c-4.3 4.3-4.5 19.8-.3 24.4 2.6 2.9 7.6 3 10.8.4 2.1-1.7 2.4-2.9 2.8-10.6.4-9.7-.8-13.7-4.5-15.4-3.8-1.7-6.2-1.3-8.8 1.2zM574.7 78.8c-1 1-1.7 2.9-1.7 4.1 0 2 .4 2.2 5.3 1.9 4.9-.3 5.2-.4 4.9-2.8-.5-4.7-5.5-6.5-8.5-3.2zM552.5 144.6c-.9.9-1.5 2.8-1.3 4.3.3 2.3.7 2.6 4.3 2.6 4 0 4 0 4.3-4.3.3-4.1.2-4.2-2.7-4.2-1.6 0-3.7.7-4.6 1.6zM648 140.4c0 8.8.1 9.4 2.2 9.9 6 1.6 8.8-1.7 8.8-10.1 0-6.5-2-9.2-7.1-9.2H648v9.4zM683 132.9c-1.4 2.7-1.3 13.4.3 15.3 2.2 2.8 4.7 2.9 7.3.3 1.9-1.9 2.4-3.4 2.4-7.7 0-3.2-.6-6.2-1.6-7.6-2-2.8-6.9-3-8.4-.3zM499.7 175.7c-1.1 1-.8 6.1.4 6.8 3.4 2.2 8.4-3 5.9-6-1.3-1.5-5.1-2-6.3-.8zM570.2 181.2c-1.7 1.7-1.5 6.3.3 7.8 3.5 2.9 6.2-4.1 2.9-7.4-1.9-1.9-1.7-1.9-3.2-.4zM588.2 181.2c-1.7 1.7-1.5 6.3.4 7.9 1.4 1.1 1.8 1 3-.6 1.8-2.5 1.8-5-.2-6.9-1.9-1.9-1.7-1.9-3.2-.4zM512.7 181.7c-1.9 1.9 0 8.3 2.5 8.3 1.5 0 2.8-4 2.2-6.5-.6-2.4-3.2-3.4-4.7-1.8zM540.2 181.2c-1.9 1.9-1.4 2.8 1.3 2.8s3.2-1.2 1.2-2.9c-1-.8-1.7-.7-2.5.1zM559.5 181.7c-1.8 1.7-1.8 1.8.9 2.1 3.5.4 4.4-.4 2.4-2.4-1.4-1.4-1.7-1.4-3.3.3zM627.5 181.7c-1.8 1.7-1.8 1.8.9 2.1 3.5.4 4.4-.4 2.4-2.4-1.4-1.4-1.7-1.4-3.3.3z"/></svg>
