<svg width="165" height="137" viewBox="0 0 165 137" fill="none" xmlns="http://www.w3.org/2000/svg">
<path d="M138.474 84C138.278 84.3665 138.1 84.6457 137.976 84.9423C137.229 86.6176 136.251 88.1707 135.059 89.5668C133.92 90.9105 132.658 92.1146 131.163 93.0744C130.096 93.7549 128.976 94.3308 127.873 94.9416C127.695 95.0463 127.464 95.0463 127.286 95.151C127.161 95.2208 127.019 95.3778 127.001 95.5175C126.983 95.6222 127.161 95.7967 127.286 95.8316C130.594 97.1229 133.28 99.1995 135.468 101.922C136.606 103.335 137.478 104.871 138.225 106.511C138.296 106.651 138.385 106.773 138.51 107C138.723 106.616 138.901 106.319 139.025 106.005C139.772 104.295 140.786 102.725 142.014 101.311C143.099 100.037 144.326 98.868 145.767 97.9605C146.852 97.2625 148.008 96.6692 149.128 96.041C149.324 95.9363 149.555 95.9188 149.751 95.8141C149.875 95.7443 150 95.5873 150 95.4651C150 95.3778 149.858 95.2033 149.751 95.1684C147.688 94.4181 145.873 93.2663 144.219 91.8703C142.654 90.544 141.302 89.0432 140.27 87.2807C139.719 86.3384 139.239 85.3612 138.741 84.4014C138.67 84.2967 138.598 84.192 138.474 84Z" fill="#0085FF"/>
<path d="M150.829 2.12109C121.5 7 67.5 34.5 60.0007 65.4483C52.688 95.6267 89 95 86.2363 76.9777C84.9126 68.3465 61.5156 55.5883 37.9281 76.2194C19.8907 91.996 12.2319 117.087 14 135" stroke="#333333" stroke-width="3" stroke-linecap="round" stroke-linejoin="round"/>
</svg>
