<svg width="103" height="51" viewBox="0 0 103 51" version="1.1" xmlns="http://www.w3.org/2000/svg" xmlns:xlink="http://www.w3.org/1999/xlink">
<title>Group 6</title>
<desc>Created using Figma</desc>
<g id="Canvas" transform="translate(6889 1765)">
<g id="Group 6">
<g id="Stroke 2" transform="translate(-6887.53 -1763.56)" fill="#BCBEC0">
<path d="M 23.5813 0L 23.97 -0.314485C 23.8751 -0.431823 23.7322 -0.5 23.5813 -0.5C 23.4303 -0.5 23.2875 -0.431823 23.1926 -0.314485L 23.5813 0ZM 27.8872 5.32231L 27.4985 5.63679C 27.6436 5.81612 27.8925 5.87292 28.101 5.77429L 27.8872 5.32231ZM 34.0764 2.39452L 34.563 2.27989C 34.5284 2.13296 34.4293 2.00953 34.2933 1.94403C 34.1573 1.87854 33.999 1.87799 33.8625 1.94254L 34.0764 2.39452ZM 35.6459 9.05838L 35.1592 9.173C 35.2121 9.39753 35.4117 9.55674 35.6423 9.55836L 35.6459 9.05838ZM 42.4927 9.10648L 42.9809 9.21437C 43.0135 9.06698 42.9777 8.91277 42.8836 8.79475C 42.7895 8.67674 42.6472 8.60755 42.4962 8.60649L 42.4927 9.10648ZM 41.0152 15.7923L 40.527 15.6844C 40.4772 15.9097 40.588 16.1398 40.7952 16.2413L 41.0152 15.7923ZM 47.1636 18.8048L 47.5567 19.1138C 47.65 18.9951 47.6846 18.8406 47.651 18.6935C 47.6174 18.5463 47.5191 18.4222 47.3836 18.3558L 47.1636 18.8048ZM 42.9319 24.1877L 42.5388 23.8787C 42.3962 24.0601 42.3962 24.3154 42.5388 24.4968L 42.9319 24.1877ZM 47.1636 29.5696L 47.3836 30.0186C 47.5192 29.9522 47.6175 29.8281 47.651 29.6809C 47.6846 29.5337 47.6499 29.3793 47.5566 29.2606L 47.1636 29.5696ZM 41.0152 32.5832L 40.7952 32.1342C 40.588 32.2357 40.4772 32.4658 40.527 32.6911L 41.0152 32.5832ZM 42.4927 39.269L 42.4962 39.769C 42.6472 39.7679 42.7895 39.6987 42.8836 39.5807C 42.9777 39.4627 43.0135 39.3085 42.9809 39.1611L 42.4927 39.269ZM 35.6459 39.3171L 35.6423 38.8171C 35.4117 38.8187 35.2121 38.9779 35.1592 39.2025L 35.6459 39.3171ZM 34.0764 45.981L 33.8625 46.4329C 33.999 46.4975 34.1573 46.4969 34.2933 46.4314C 34.4293 46.3659 34.5284 46.2425 34.563 46.0956L 34.0764 45.981ZM 27.8872 43.0532L 28.101 42.6012C 27.8925 42.5026 27.6436 42.5594 27.4985 42.7387L 27.8872 43.0532ZM 23.5813 48.3755L 23.1926 48.69C 23.2875 48.8073 23.4303 48.8755 23.5813 48.8755C 23.7322 48.8755 23.8751 48.8073 23.97 48.69L 23.5813 48.3755ZM 19.2753 43.0532L 19.664 42.7387C 19.5189 42.5593 19.27 42.5025 19.0615 42.6012L 19.2753 43.0532ZM 13.0872 45.981L 12.6006 46.0957C 12.6352 46.2426 12.7343 46.366 12.8703 46.4315C 13.0063 46.4969 13.1646 46.4975 13.3011 46.4329L 13.0872 45.981ZM 11.5167 39.3171L 12.0033 39.2024C 11.9504 38.9779 11.7508 38.8187 11.5202 38.8171L 11.5167 39.3171ZM 4.67087 39.269L 4.18264 39.1612C 4.15009 39.3086 4.18586 39.4628 4.27996 39.5808C 4.37407 39.6987 4.51644 39.7679 4.66736 39.769L 4.67087 39.269ZM 6.14732 32.5832L 6.63555 32.691C 6.68529 32.4658 6.57451 32.2357 6.3674 32.1342L 6.14732 32.5832ZM 0 29.5696L -0.393088 29.2606C -0.486367 29.3793 -0.52105 29.5338 -0.487464 29.6809C -0.453877 29.8281 -0.355614 29.9522 -0.220087 30.0186L 0 29.5696ZM 4.23066 24.1877L 4.62375 24.4967C 4.76628 24.3154 4.7663 24.0601 4.62378 23.8788L 4.23066 24.1877ZM 0 18.8048L -0.220025 18.3558C -0.355565 18.4222 -0.453846 18.5463 -0.487451 18.6935C -0.521055 18.8406 -0.486387 18.9951 -0.393117 19.1138L 0 18.8048ZM 6.14732 15.7923L 6.36734 16.2413C 6.57448 16.1398 6.6853 15.9097 6.63555 15.6845L 6.14732 15.7923ZM 4.67087 9.10648L 4.66736 8.60649C 4.51644 8.60755 4.37407 8.67673 4.27996 8.79473C 4.18586 8.91273 4.15009 9.06692 4.18264 9.2143L 4.67087 9.10648ZM 11.5167 9.05838L 11.5202 9.55836C 11.7508 9.55674 11.9504 9.39757 12.0033 9.17308L 11.5167 9.05838ZM 13.0872 2.39452L 13.3011 1.94255C 13.1646 1.878 13.0063 1.87853 12.8703 1.94401C 12.7343 2.00949 12.6352 2.1329 12.6006 2.27982L 13.0872 2.39452ZM 19.2753 5.32231L 19.0615 5.77427C 19.27 5.87293 19.5189 5.81613 19.664 5.63679L 19.2753 5.32231ZM 23.1926 0.314485L 27.4985 5.63679L 28.2759 5.00782L 23.97 -0.314485L 23.1926 0.314485ZM 28.101 5.77429L 34.2902 2.84649L 33.8625 1.94254L 27.6734 4.87033L 28.101 5.77429ZM 33.5897 2.50914L 35.1592 9.173L 36.1325 8.94375L 34.563 2.27989L 33.5897 2.50914ZM 35.6423 9.55836L 42.4892 9.60646L 42.4962 8.60649L 35.6494 8.55839L 35.6423 9.55836ZM 42.0045 8.99859L 40.527 15.6844L 41.5034 15.9002L 42.9809 9.21437L 42.0045 8.99859ZM 40.7952 16.2413L 46.9436 19.2538L 47.3836 18.3558L 41.2352 15.3433L 40.7952 16.2413ZM 46.7705 18.4958L 42.5388 23.8787L 43.325 24.4967L 47.5567 19.1138L 46.7705 18.4958ZM 42.5388 24.4968L 46.7705 29.8787L 47.5566 29.2606L 43.3249 23.8787L 42.5388 24.4968ZM 46.9435 29.1207L 40.7952 32.1342L 41.2353 33.0322L 47.3836 30.0186L 46.9435 29.1207ZM 40.527 32.6911L 42.0045 39.3769L 42.9809 39.1611L 41.5034 32.4753L 40.527 32.6911ZM 42.4892 38.769L 35.6423 38.8171L 35.6494 39.8171L 42.4962 39.769L 42.4892 38.769ZM 35.1592 39.2025L 33.5897 45.8663L 34.563 46.0956L 36.1325 39.4317L 35.1592 39.2025ZM 34.2902 45.529L 28.101 42.6012L 27.6734 43.5051L 33.8625 46.4329L 34.2902 45.529ZM 27.4985 42.7387L 23.1926 48.061L 23.97 48.69L 28.2759 43.3677L 27.4985 42.7387ZM 23.97 48.061L 19.664 42.7387L 18.8866 43.3677L 23.1926 48.69L 23.97 48.061ZM 19.0615 42.6012L 12.8734 45.529L 13.3011 46.4329L 19.4892 43.5051L 19.0615 42.6012ZM 13.5739 45.8663L 12.0033 39.2024L 11.03 39.4318L 12.6006 46.0957L 13.5739 45.8663ZM 11.5202 38.8171L 4.67439 38.769L 4.66736 39.769L 11.5132 39.8171L 11.5202 38.8171ZM 5.15911 39.3768L 6.63555 32.691L 5.65908 32.4754L 4.18264 39.1612L 5.15911 39.3768ZM 6.3674 32.1342L 0.220087 29.1207L -0.220087 30.0186L 5.92723 33.0321L 6.3674 32.1342ZM 0.393088 29.8786L 4.62375 24.4967L 3.83757 23.8787L -0.393088 29.2606L 0.393088 29.8786ZM 4.62378 23.8788L 0.393117 18.4958L -0.393117 19.1138L 3.83754 24.4967L 4.62378 23.8788ZM 0.220025 19.2538L 6.36734 16.2413L 5.92729 15.3433L -0.220025 18.3558L 0.220025 19.2538ZM 6.63555 15.6845L 5.15911 8.99866L 4.18264 9.2143L 5.65908 15.9001L 6.63555 15.6845ZM 4.67439 9.60646L 11.5202 9.55836L 11.5132 8.55839L 4.66736 8.60649L 4.67439 9.60646ZM 12.0033 9.17308L 13.5739 2.50921L 12.6006 2.27982L 11.03 8.94368L 12.0033 9.17308ZM 12.8734 2.84648L 19.0615 5.77427L 19.4892 4.87034L 13.3011 1.94255L 12.8734 2.84648ZM 19.664 5.63679L 23.97 0.314485L 23.1926 -0.314485L 18.8866 5.00782L 19.664 5.63679Z"/>
</g>
<g id="Stroke 2" transform="translate(-6884.7 -1760.65)" fill="#BCBEC0">
<path id="path1_stroke" d="M 20.7475 0L 21.1362 -0.314485C 21.0413 -0.431823 20.8985 -0.5 20.7475 -0.5C 20.5966 -0.5 20.4537 -0.431823 20.3588 -0.314485L 20.7475 0ZM 24.536 4.68273L 24.1473 4.99722C 24.2924 5.17654 24.5413 5.23335 24.7498 5.13471L 24.536 4.68273ZM 29.9814 2.10677L 30.4681 1.99214C 30.4335 1.84521 30.3344 1.72178 30.1984 1.65629C 30.0624 1.59079 29.9041 1.59024 29.7676 1.65479L 29.9814 2.10677ZM 31.3623 7.96984L 30.8757 8.08447C 30.9285 8.309 31.1282 8.46821 31.3588 8.46983L 31.3623 7.96984ZM 37.3864 8.01216L 37.8746 8.12005C 37.9072 7.97267 37.8714 7.81846 37.7773 7.70044C 37.6832 7.58242 37.5409 7.51323 37.3899 7.51217L 37.3864 8.01216ZM 36.0865 13.8946L 35.5982 13.7867C 35.5485 14.0119 35.6593 14.242 35.8665 14.3436L 36.0865 13.8946ZM 41.496 16.545L 41.8891 16.854C 41.9824 16.7354 42.017 16.5809 41.9834 16.4337C 41.9498 16.2866 41.8515 16.1625 41.716 16.096L 41.496 16.545ZM 37.7728 21.2811L 37.3797 20.9721C 37.2371 21.1535 37.2372 21.4088 37.3797 21.5902L 37.7728 21.2811ZM 41.496 26.0163L 41.716 26.4653C 41.8516 26.3988 41.9499 26.2747 41.9835 26.1275C 42.017 25.9804 41.9823 25.8259 41.889 25.7072L 41.496 26.0163ZM 36.0865 28.6677L 35.8664 28.2187C 35.6593 28.3203 35.5485 28.5503 35.5982 28.7756L 36.0865 28.6677ZM 37.3864 34.5501L 37.3899 35.0501C 37.5409 35.049 37.6832 34.9798 37.7773 34.8618C 37.8714 34.7438 37.9072 34.5896 37.8746 34.4422L 37.3864 34.5501ZM 31.3623 34.5924L 31.3588 34.0924C 31.1282 34.094 30.9285 34.2533 30.8757 34.4778L 31.3623 34.5924ZM 29.9814 40.4555L 29.7676 40.9075C 29.9041 40.972 30.0624 40.9715 30.1984 40.906C 30.3344 40.8405 30.4335 40.717 30.4681 40.5701L 29.9814 40.4555ZM 24.536 37.8795L 24.7498 37.4275C 24.5413 37.3289 24.2924 37.3857 24.1473 37.565L 24.536 37.8795ZM 20.7475 42.5623L 20.3588 42.8767C 20.4537 42.9941 20.5966 43.0623 20.7475 43.0623C 20.8985 43.0623 21.0413 42.9941 21.1362 42.8767L 20.7475 42.5623ZM 16.959 37.8795L 17.3477 37.565C 17.2027 37.3857 16.9537 37.3289 16.7452 37.4276L 16.959 37.8795ZM 11.5146 40.4555L 11.0279 40.5702C 11.0625 40.7171 11.1617 40.8405 11.2976 40.906C 11.4336 40.9715 11.5919 40.972 11.7284 40.9074L 11.5146 40.4555ZM 10.1327 34.5924L 10.6194 34.4777C 10.5665 34.2532 10.3669 34.094 10.1362 34.0924L 10.1327 34.5924ZM 4.10958 34.5501L 3.62134 34.4423C 3.5888 34.5896 3.62456 34.7438 3.71867 34.8618C 3.81277 34.9798 3.95514 35.049 4.10607 35.0501L 4.10958 34.5501ZM 5.4086 28.6677L 5.89684 28.7755C 5.94657 28.5503 5.83579 28.3203 5.62869 28.2187L 5.4086 28.6677ZM 0 26.0163L -0.393088 25.7073C -0.486367 25.826 -0.521051 25.9804 -0.487464 26.1276C -0.453877 26.2747 -0.355614 26.3988 -0.220087 26.4653L 0 26.0163ZM 3.72227 21.2811L 4.11535 21.5901C 4.25789 21.4088 4.2579 21.1535 4.11538 20.9722L 3.72227 21.2811ZM 0 16.545L -0.220025 16.0961C -0.355565 16.1625 -0.453846 16.2866 -0.487451 16.4337C -0.521055 16.5809 -0.486387 16.7353 -0.393117 16.854L 0 16.545ZM 5.4086 13.8946L 5.62863 14.3435C 5.83577 14.242 5.94658 14.012 5.89684 13.7867L 5.4086 13.8946ZM 4.10958 8.01216L 4.10607 7.51217C 3.95514 7.51323 3.81277 7.58241 3.71867 7.70041C 3.62456 7.81841 3.5888 7.9726 3.62134 8.11998L 4.10958 8.01216ZM 10.1327 7.96984L 10.1362 8.46983C 10.3669 8.46821 10.5665 8.30904 10.6194 8.08454L 10.1327 7.96984ZM 11.5146 2.10677L 11.7284 1.6548C 11.5919 1.59025 11.4336 1.59079 11.2976 1.65626C 11.1617 1.72174 11.0625 1.84515 11.0279 1.99207L 11.5146 2.10677ZM 16.959 4.68273L 16.7452 5.1347C 16.9537 5.23335 17.2027 5.17655 17.3477 4.99722L 16.959 4.68273ZM 20.3588 0.314485L 24.1473 4.99722L 24.9248 4.36825L 21.1362 -0.314485L 20.3588 0.314485ZM 24.7498 5.13471L 30.1952 2.55875L 29.7676 1.65479L 24.3222 4.23075L 24.7498 5.13471ZM 29.4948 2.2214L 30.8757 8.08447L 31.849 7.85522L 30.4681 1.99214L 29.4948 2.2214ZM 31.3588 8.46983L 37.3829 8.51215L 37.3899 7.51217L 31.3659 7.46985L 31.3588 8.46983ZM 36.8982 7.90427L 35.5982 13.7867L 36.5747 14.0024L 37.8746 8.12005L 36.8982 7.90427ZM 35.8665 14.3436L 41.276 16.994L 41.716 16.096L 36.3065 13.4456L 35.8665 14.3436ZM 41.1029 16.236L 37.3797 20.9721L 38.1659 21.5901L 41.8891 16.854L 41.1029 16.236ZM 37.3797 21.5902L 41.1029 26.3253L 41.889 25.7072L 38.1659 20.9721L 37.3797 21.5902ZM 41.2759 25.5673L 35.8664 28.2187L 36.3065 29.1167L 41.716 26.4653L 41.2759 25.5673ZM 35.5982 28.7756L 36.8982 34.658L 37.8746 34.4422L 36.5747 28.5598L 35.5982 28.7756ZM 37.3829 34.0501L 31.3588 34.0924L 31.3658 35.0924L 37.3899 35.0501L 37.3829 34.0501ZM 30.8757 34.4778L 29.4948 40.3409L 30.4681 40.5701L 31.849 34.707L 30.8757 34.4778ZM 30.1952 40.0035L 24.7498 37.4275L 24.3222 38.3315L 29.7676 40.9075L 30.1952 40.0035ZM 24.1473 37.565L 20.3588 42.2478L 21.1362 42.8767L 24.9248 38.194L 24.1473 37.565ZM 21.1362 42.2478L 17.3477 37.565L 16.5703 38.194L 20.3588 42.8767L 21.1362 42.2478ZM 16.7452 37.4276L 11.3007 40.0035L 11.7284 40.9074L 17.1729 38.3315L 16.7452 37.4276ZM 12.0012 40.3408L 10.6194 34.4777L 9.64606 34.7071L 11.0279 40.5702L 12.0012 40.3408ZM 10.1362 34.0924L 4.11309 34.0501L 4.10607 35.0501L 10.1292 35.0924L 10.1362 34.0924ZM 4.59782 34.6579L 5.89684 28.7755L 4.92036 28.5599L 3.62134 34.4423L 4.59782 34.6579ZM 5.62869 28.2187L 0.220087 25.5673L -0.220087 26.4653L 5.18851 29.1167L 5.62869 28.2187ZM 0.393088 26.3253L 4.11535 21.5901L 3.32918 20.9721L -0.393088 25.7073L 0.393088 26.3253ZM 4.11538 20.9722L 0.393117 16.2361L -0.393117 16.854L 3.32915 21.5901L 4.11538 20.9722ZM 0.220025 16.994L 5.62863 14.3435L 5.18857 13.4456L -0.220025 16.0961L 0.220025 16.994ZM 5.89684 13.7867L 4.59782 7.90434L 3.62134 8.11998L 4.92036 14.0024L 5.89684 13.7867ZM 4.11309 8.51215L 10.1362 8.46983L 10.1292 7.46985L 4.10607 7.51217L 4.11309 8.51215ZM 10.6194 8.08454L 12.0012 2.22147L 11.0279 1.99207L 9.64606 7.85514L 10.6194 8.08454ZM 11.3007 2.55873L 16.7452 5.1347L 17.1729 4.23077L 11.7284 1.6548L 11.3007 2.55873ZM 17.3477 4.99722L 21.1362 0.314485L 20.3588 -0.314485L 16.5703 4.36825L 17.3477 4.99722Z"/>
</g>
<g id="10 x" transform="translate(-6879 -1752)">
<path id="path2_fill" d="M 6.40723 17L 4.77246 17L 4.77246 6.16309L 1.49414 7.36719L 1.49414 5.89062L 6.15234 4.1416L 6.40723 4.1416L 6.40723 17ZM 16.8953 11.542C 16.8953 13.4463 16.5701 14.8613 15.9197 15.7871C 15.2693 16.7129 14.2527 17.1758 12.8699 17.1758C 11.5047 17.1758 10.4939 16.7246 9.8377 15.8223C 9.18145 14.9141 8.8416 13.5605 8.81816 11.7617L 8.81816 9.59082C 8.81816 7.70996 9.14336 6.3125 9.79375 5.39844C 10.4441 4.48438 11.4637 4.02734 12.8523 4.02734C 14.2293 4.02734 15.243 4.46973 15.8934 5.35449C 16.5438 6.2334 16.8777 7.59277 16.8953 9.43262L 16.8953 11.542ZM 15.2693 9.31836C 15.2693 7.94141 15.076 6.93945 14.6893 6.3125C 14.3025 5.67969 13.6902 5.36328 12.8523 5.36328C 12.0203 5.36328 11.4139 5.67676 11.033 6.30371C 10.6521 6.93066 10.4559 7.89453 10.4441 9.19531L 10.4441 11.7969C 10.4441 13.1797 10.6434 14.2021 11.0418 14.8643C 11.4461 15.5205 12.0555 15.8486 12.8699 15.8486C 13.6727 15.8486 14.2674 15.5381 14.6541 14.917C 15.0467 14.2959 15.2518 13.3174 15.2693 11.9814L 15.2693 9.31836ZM 22.2006 10.9619L 24.31 7.49023L 26.2084 7.49023L 23.0971 12.1924L 26.3051 17L 24.4242 17L 22.227 13.4404L 20.0297 17L 18.14 17L 21.348 12.1924L 18.2367 7.49023L 20.1176 7.49023L 22.2006 10.9619Z"/>
</g>
<g id="Page 1">
<g id="Fill 1" transform="translate(-6837.65 -1752)" fill="#74BBE7">
<path id="path3_fill" fill-rule="evenodd" d="M 0 13.6778C 7.66387 20.9115 14.0958 27.3659 25.4536 27.3659C 36.8115 27.3659 45.1593 19.1949 50.9072 13.8306C 45.0233 7.54613 36.6754 0 25.4536 0C 16.1497 0 8.89583 5.21672 0 13.6778Z"/>
</g>
<g id="Fill 4" transform="translate(-6821.32 -1747.44)" fill="#FFFFFF">
<path id="path4_fill" fill-rule="evenodd" d="M 9.12206 16.723C 4.93014 16.723 1.521 13.3138 1.521 9.12193C 1.521 4.93002 4.93014 1.52087 9.12206 1.52087C 13.314 1.52087 16.7231 4.93002 16.7231 9.12193C 16.7231 13.3138 13.314 16.723 9.12206 16.723ZM 9.12196 0C 4.09235 0 0 4.09235 0 9.12196C 0 14.1516 4.09235 18.2439 9.12196 18.2439C 14.1516 18.2439 18.2439 14.1516 18.2439 9.12196C 18.2439 4.09235 14.1516 0 9.12196 0Z"/>
</g>
<g id="Fill 6" transform="translate(-6817.52 -1743.64)" fill="#FFFFFF">
<path id="path5_fill" fill-rule="evenodd" d="M 5.32143 0C 2.38778 0 0 2.38778 0 5.32143C 0 8.25508 2.38778 10.6429 5.32143 10.6429C 8.25508 10.6429 10.6429 8.25508 10.6429 5.32143C 10.6429 2.38778 8.25508 0 5.32143 0Z"/>
</g>
</g>
</g>
</g>
<defs>
</defs>
</svg>
