<svg xmlns="http://www.w3.org/2000/svg" xmlns:xlink="http://www.w3.org/1999/xlink" viewBox="0 0 69.06 82.94" width="69" height="83"><defs><style>.cls-1{fill:none;}.cls-2{fill:#e5e5e5;}.cls-3{clip-path:url(#clip-path);}.cls-4{fill:#fff;stroke:#22bb8f;stroke-miterlimit:10;stroke-width:1.15px;}.cls-5{fill:#22bb8f;}</style><clipPath id="clip-path"><circle class="cls-1" cx="34.53" cy="34.53" r="34.53"/></clipPath></defs><title>option-overview-3</title><g id="Layer_2" data-name="Layer 2"><g id="Layer_5" data-name="Layer 5"><circle class="cls-2" cx="34.53" cy="34.53" r="34.53"/><g class="cls-3"><g id="Multiple_Files" data-name="Multiple Files"><path class="cls-4" d="M40.6,82.36H13.25V21.58H58.83V64.13A18.23,18.23,0,0,1,40.6,82.36Z"/></g></g><path class="cls-5" d="M40.81,45.63a3.33,3.33,0,0,1-1.2,2.63,6.15,6.15,0,0,1-3.34,1.31v2.72H34.76V49.67a15.45,15.45,0,0,1-2.54-.21,8,8,0,0,1-2-.57V47.07a11.5,11.5,0,0,0,2.24.71,11,11,0,0,0,2.31.28V42.9a8.11,8.11,0,0,1-3.37-1.77,3.6,3.6,0,0,1-1-2.6A3.13,3.13,0,0,1,31.61,36a5.79,5.79,0,0,1,3.15-1.2V32.68h1.51v2.11a11.89,11.89,0,0,1,4.16.87l-.61,1.54a11.9,11.9,0,0,0-3.55-.82v5.09A13.32,13.32,0,0,1,39,42.6a3.88,3.88,0,0,1,1.35,1.28A3.34,3.34,0,0,1,40.81,45.63Zm-8.4-7.12a2,2,0,0,0,.53,1.43,5.05,5.05,0,0,0,1.83,1V36.42a3.36,3.36,0,0,0-1.76.73A1.76,1.76,0,0,0,32.4,38.51Zm6.41,7.28a1.85,1.85,0,0,0-.52-1.37,5.56,5.56,0,0,0-2-1v4.56Q38.81,47.59,38.81,45.78Z"/></g></g></svg>
