<svg xmlns="http://www.w3.org/2000/svg" viewBox="0 0 108.57 77.89" width="109" height="78"><defs><style>.cls-1{fill:#fff;stroke-width:1.15px;}.cls-1,.cls-3{stroke:#22bb8f;stroke-miterlimit:10;}.cls-2{opacity:0.2;}.cls-3{fill:none;stroke-width:0.5px;}.cls-4,.cls-5{fill:#22bb8f;}.cls-5{opacity:0.2;}</style></defs><title>option-overview-4</title><g id="Layer_2" data-name="Layer 2"><g id="Layer_5" data-name="Layer 5"><g id="File"><path class="cls-1" d="M25.52,63.17H5.7V21.74H36.33V52.36A10.81,10.81,0,0,1,25.52,63.17Z"/></g><g id="File-2" data-name="File"><path class="cls-1" d="M66,62.27H46.22V20.84H76.84V51.46A10.81,10.81,0,0,1,66,62.27Z"/></g><g id="File-3" data-name="File" class="cls-2"><path class="cls-1" d="M100.42,57.76H86.53v-29H108V50.19A7.58,7.58,0,0,1,100.42,57.76Z"/></g><polyline id="Chevon_-_Left" data-name="Chevon - Left" class="cls-1" points="58.55 5.21 53.38 10.38 58.55 15.56"/><polyline id="Chevon_-_Left-2" data-name="Chevon - Left" class="cls-1" points="65.12 15.56 70.29 10.38 65.12 5.21"/><rect class="cls-3" x="41.05" y="0.25" width="40.53" height="77.39"/><rect class="cls-3" x="0.25" y="15.56" width="40.53" height="56.45"/><path class="cls-4" d="M27,47.63H25.68l-1.82-4.2h-5.7l-1.83,4.2H15l5.87-13.24h.3Zm-8.44-5.3h4.82L21,36.75Z"/><path class="cls-4" d="M66.32,42.91c0,2.5-1.65,3.82-4.79,3.82H57.2V33.49h4.31c2.67,0,4,1.29,4,3.29a2.63,2.63,0,0,1-2,2.71A3.47,3.47,0,0,1,66.32,42.91ZM61.51,39c1.91,0,2.76-.68,2.76-2.21,0-1.36-.79-2.21-2.76-2.21H58.45V39Zm.08,6.62c2.37,0,3.5-.89,3.5-2.76,0-1.61-1.13-2.78-3.5-2.78H58.45v5.54Z"/><path class="cls-5" d="M101.06,38.65l-.54.64a3.43,3.43,0,0,0-2.41-1,3.9,3.9,0,0,0,0,7.8,3.46,3.46,0,0,0,2.41-1l.56.62a4.39,4.39,0,0,1-3,1.17,4.73,4.73,0,0,1,0-9.47A4.35,4.35,0,0,1,101.06,38.65Z"/></g></g></svg>
