<svg xmlns="http://www.w3.org/2000/svg" viewBox="0 0 63.74 65.06" width="64" height="65"><defs><style>.cls-1{fill:#e5e5e5;}.cls-2{fill:#e6f4ef;}.cls-2,.cls-3{stroke:#22bb8f;stroke-miterlimit:10;stroke-width:0.96px;}.cls-3{fill:#d3eae1;}.cls-4{fill:#22bb8f;}</style></defs><title>option-overview-2</title><g id="Layer_2" data-name="Layer 2"><g id="Layer_5" data-name="Layer 5"><circle class="cls-1" cx="33.43" cy="34.76" r="30.31"/><g id="Pie_Chart_-_Alt" data-name="Pie Chart - Alt"><circle id="Chart" class="cls-2" cx="29.98" cy="29.98" r="29.5"/></g><path class="cls-3" d="M30.77,29l28.15,6.76A29.5,29.5,0,0,0,30.77.5Z"/><path class="cls-4" d="M17,42.69h-7V30.37h7v1.7h-5v3.35h4.64v1.69H12.08V41h5Z"/><path class="cls-4" d="M20.85,37.77v4.92h-2V30.37h3.48a5.72,5.72,0,0,1,3.53.89A3.21,3.21,0,0,1,27,34a3.37,3.37,0,0,1-2.39,3.28l3.48,5.45H25.79l-3-4.92Zm0-1.67h1.4a3.19,3.19,0,0,0,2-.52A1.9,1.9,0,0,0,24.92,34a1.67,1.67,0,0,0-.68-1.5,3.74,3.74,0,0,0-2.06-.46H20.85Z"/><path class="cls-4" d="M44.7,23.67H40.57v-7.3H44.7v1H41.76v2h2.75v1H41.76v2.29H44.7Z"/><path class="cls-4" d="M49.9,23.67H45.76v-7.3H49.9v1H47v2h2.75v1H47v2.29H49.9Z"/></g></g></svg>
