<svg width="32" height="32" viewBox="0 0 32 32" fill="none" xmlns="http://www.w3.org/2000/svg">
<path d="M16 32C24.8366 32 32 24.8366 32 16C32 7.16344 24.8366 0 16 0C7.16344 0 0 7.16344 0 16C0 24.8366 7.16344 32 16 32Z" fill="url(#paint0_linear)"/>
<path d="M6.65905 15.8614L17.4336 11.4221C18.4972 10.9597 22.1041 9.47994 22.1041 9.47994C22.1041 9.47994 23.7689 8.83254 23.6301 10.4048C23.5839 11.0522 23.214 13.3181 22.844 15.769L21.6879 23.0291C21.6879 23.0291 21.5955 24.0926 20.8093 24.2776C20.0232 24.4626 18.7284 23.6302 18.4972 23.4452C18.3122 23.3065 15.029 21.2256 13.8267 20.2083C13.503 19.9308 13.133 19.3759 13.8729 18.7285C15.5377 17.2025 17.5261 15.3065 18.7284 14.1042C19.2833 13.5493 19.8382 12.2545 17.5261 13.8268L11.0059 18.2198C11.0059 18.2198 10.266 18.6822 8.87871 18.2661C7.49142 17.8499 5.87293 17.295 5.87293 17.295C5.87293 17.295 4.7631 16.6013 6.65905 15.8614Z" fill="white"/>
<defs>
<linearGradient id="paint0_linear" x1="20.6898" y1="5.05871" x2="-7.05578" y2="69.7942" gradientUnits="userSpaceOnUse">
<stop stop-color="#37AEE2"/>
<stop offset="1" stop-color="#1E96C8"/>
</linearGradient>
</defs>
</svg>
