<svg width="32" height="32" viewBox="0 0 32 32" fill="none" xmlns="http://www.w3.org/2000/svg">
<path fill-rule="evenodd" clip-rule="evenodd" d="M16 2C8.11268 2 2 7.77752 2 15.5804C2 19.6621 3.67324 23.1889 6.39718 25.6256C6.62535 25.8312 6.76338 26.1157 6.77465 26.4228L6.8507 28.9129C6.87606 29.7073 7.69577 30.2228 8.42253 29.9045L11.2 28.6791C11.4366 28.5749 11.6986 28.5552 11.9465 28.6228C13.2225 28.9749 14.5831 29.1608 16 29.1608C23.8873 29.1608 30 23.3833 30 15.5804C30 7.77752 23.8873 2 16 2Z" fill="url(#paint0_linear)"/>
<path fill-rule="evenodd" clip-rule="evenodd" d="M7.59442 19.5521L11.7071 13.0281C12.3606 11.9915 13.7634 11.7323 14.7437 12.4675L18.0141 14.9211C18.3155 15.1464 18.7268 15.1436 19.0254 14.9183L23.4423 11.5661C24.031 11.1182 24.8029 11.8253 24.4057 12.4506L20.2958 18.9718C19.6423 20.0085 18.2395 20.2676 17.2592 19.5324L13.9888 17.0789C13.6874 16.8535 13.2761 16.8563 12.9775 17.0817L8.5578 20.4366C7.96907 20.8845 7.19724 20.1775 7.59442 19.5521Z" fill="white"/>
<defs>
<linearGradient id="paint0_linear" x1="16" y1="2" x2="16" y2="29.9999" gradientUnits="userSpaceOnUse">
<stop stop-color="#00B2FF"/>
<stop offset="1" stop-color="#006AFF"/>
</linearGradient>
</defs>
</svg>
