<svg width="32" height="32" viewBox="0 0 32 32" fill="none" xmlns="http://www.w3.org/2000/svg">
<circle cx="16" cy="16" r="16" fill="#25D366"/>
<path fill-rule="evenodd" clip-rule="evenodd" d="M23.0859 8.92031C21.206 7.03806 18.7059 6.00095 16.042 6C10.5528 6 6.08547 10.4669 6.08356 15.9575C6.08261 17.7127 6.54147 19.426 7.41288 20.9358L6 26.0965L11.2791 24.7117C12.7335 25.5053 14.3713 25.9231 16.0377 25.9236H16.042C16.0425 25.9236 16.0415 25.9236 16.042 25.9236C21.5302 25.9236 25.9981 21.4562 26 15.9656C26.001 13.3046 24.9662 10.8026 23.0859 8.92031ZM16.042 24.2419H16.0387C14.5537 24.2414 13.0969 23.8422 11.8258 23.0883L11.5236 22.9088L8.39077 23.7305L9.22685 20.676L9.03013 20.3628C8.20169 19.0449 7.76384 17.5217 7.76479 15.958C7.7667 11.3946 11.4796 7.68171 16.0454 7.68171C18.2561 7.68266 20.3341 8.54453 21.897 10.1092C23.4598 11.6735 24.3197 13.7534 24.3188 15.9647C24.3169 20.5285 20.6039 24.2419 16.042 24.2419ZM20.582 18.0427C20.3332 17.9181 19.1099 17.3164 18.8816 17.2333C18.6534 17.1503 18.4877 17.1087 18.322 17.358C18.1563 17.6072 17.6793 18.1678 17.5342 18.3335C17.389 18.4996 17.2439 18.5202 16.9951 18.3955C16.7463 18.2709 15.9446 18.0083 14.9939 17.1608C14.2543 16.5009 13.7549 15.6863 13.6097 15.437C13.4645 15.1878 13.5944 15.0531 13.7186 14.9295C13.8303 14.8177 13.9673 14.6387 14.092 14.4935C14.2166 14.3484 14.2577 14.2443 14.3407 14.0786C14.4238 13.9124 14.3823 13.7673 14.3202 13.6426C14.2581 13.518 13.7606 12.2933 13.5529 11.7953C13.3509 11.3101 13.1456 11.376 12.9933 11.3679C12.8481 11.3607 12.6824 11.3593 12.5163 11.3593C12.3506 11.3593 12.0808 11.4214 11.8526 11.6706C11.6243 11.9199 10.9816 12.522 10.9816 13.7463C10.9816 14.971 11.8731 16.1542 11.9977 16.3204C12.1223 16.4866 13.7525 18.9996 16.2483 20.0777C16.8418 20.3341 17.3054 20.4874 17.6669 20.602C18.2628 20.7916 18.8052 20.7648 19.234 20.7009C19.712 20.6292 20.7061 20.0987 20.9133 19.5176C21.1206 18.9365 21.1206 18.438 21.0585 18.3344C20.9964 18.2299 20.8307 18.1673 20.582 18.0427Z" fill="white"/>
</svg>
