<svg width="32" height="32" viewBox="0 0 32 32" fill="none" xmlns="http://www.w3.org/2000/svg">
<path d="M23.8067 12.4235L26.4611 7.81084C26.6109 7.55225 26.5204 7.22378 26.2661 7.07351C26.0118 6.92326 25.6808 7.01061 25.5345 7.2692L22.8452 11.9413C20.7934 11.0013 18.4838 10.4771 16 10.4771C13.5162 10.4771 11.2066 11.0013 9.1548 11.9413L6.46549 7.2692C6.3157 7.01061 5.98824 6.92326 5.73046 7.07351C5.47267 7.22378 5.38559 7.55225 5.53538 7.81084L8.18985 12.4235C3.61245 14.9115 0.512083 19.5592 0 25H32C31.4879 19.5592 28.3875 14.9115 23.8067 12.4235ZM8.65317 20.4922C7.91117 20.4922 7.312 19.8876 7.312 19.1468C7.312 18.4025 7.91465 17.8015 8.65317 17.8015C9.39517 17.8015 9.99434 18.406 9.99434 19.1468C9.99784 19.8876 9.39517 20.4922 8.65317 20.4922ZM23.3433 20.4922C22.6014 20.4922 22.0022 19.8876 22.0022 19.1468C22.0022 18.4025 22.6048 17.8015 23.3433 17.8015C24.0854 17.8015 24.6845 18.406 24.6845 19.1468C24.688 19.8876 24.0854 20.4922 23.3433 20.4922Z" fill="#32DE84"/>
</svg>
