<svg width="32" height="32" viewBox="0 0 32 32" fill="none" xmlns="http://www.w3.org/2000/svg">
<path d="M23.641 16.8755C23.6803 21.1128 27.3582 22.5229 27.3989 22.5409C27.3678 22.6403 26.8113 24.5503 25.4613 26.5233C24.2942 28.229 23.083 29.9284 21.175 29.9636C19.3001 29.9982 18.6973 28.8518 16.5538 28.8518C14.411 28.8518 13.7412 29.9284 11.9665 29.9982C10.1247 30.0678 8.72226 28.1537 7.54553 26.4542C5.14103 22.9779 3.3035 16.6311 5.77084 12.3469C6.99657 10.2193 9.18703 8.87202 11.5646 8.83747C13.3731 8.80298 15.0802 10.0542 16.1857 10.0542C17.2906 10.0542 19.365 8.54949 21.5458 8.77048C22.4587 8.80848 25.0214 9.13926 26.6669 11.5479C26.5343 11.6301 23.6092 13.333 23.641 16.8755V16.8755ZM20.1174 6.47062C21.0952 5.28704 21.7533 3.6394 21.5738 2C20.1644 2.05665 18.4601 2.93919 17.4492 4.12212C16.5432 5.16965 15.7497 6.8463 15.9638 8.45325C17.5348 8.57479 19.1396 7.65495 20.1174 6.47062" fill="black"/>
</svg>
