<svg width="32" height="32" viewBox="0 0 32 32" fill="none" xmlns="http://www.w3.org/2000/svg">
<path d="M15.4583 26.7679L27.3031 14.9204H18.6904L11.1533 22.4602L15.4583 26.7679Z" fill="#39CEFD"/>
<path d="M4.68994 15.9987L18.6886 2H27.3013L8.99763 20.3063L4.68994 15.9987Z" fill="#39CEFD"/>
<path d="M18.6882 29.9973H27.3008L19.7637 22.4602L15.4561 26.7679L18.6882 29.9973Z" fill="#03569B"/>
<path d="M19.7637 22.4602L15.4561 26.7679L21.8448 24.5547L19.7637 22.4602Z" fill="url(#paint0_linear)"/>
<path d="M11.1533 22.4576L15.461 18.1499L19.7687 22.4576L15.461 26.768L11.1533 22.4576Z" fill="#16B9FD"/>
<path d="M27.3013 14.9204L19.7641 22.4602L27.3013 30H18.6886L15.4565 26.7679L11.1488 22.4602L18.6886 14.9204H27.3013ZM18.6886 2L4.68994 15.9987L8.99763 20.3063L27.3013 2H18.6886Z" fill="url(#paint1_radial)"/>
<defs>
<linearGradient id="paint0_linear" x1="-671.049" y1="-300.689" x2="-670.925" y2="-300.813" gradientUnits="userSpaceOnUse">
<stop stop-color="#1A237E" stop-opacity="0.4"/>
<stop offset="1" stop-color="#1A237E" stop-opacity="0"/>
</linearGradient>
<radialGradient id="paint1_radial" cx="0" cy="0" r="1" gradientUnits="userSpaceOnUse" gradientTransform="translate(-612.901 -249.847) scale(1.32973)">
<stop stop-color="white" stop-opacity="0.1"/>
<stop offset="1" stop-color="white" stop-opacity="0"/>
</radialGradient>
</defs>
</svg>
