<svg width="32" height="32" viewBox="0 0 32 32" fill="none" xmlns="http://www.w3.org/2000/svg">
<path fill-rule="evenodd" clip-rule="evenodd" d="M25.2804 10.7561C25.6264 10.8539 25.9699 10.9604 26.3105 11.0753C29.7666 12.2454 32 14.0783 32 15.9734C32 17.9499 29.6133 19.8824 25.9447 21.0777C25.7509 21.1409 25.5522 21.2016 25.3496 21.2604C25.4219 21.5462 25.4863 21.8269 25.5415 22.1017C26.2658 25.6993 25.7081 28.6564 23.9916 29.6335C22.3297 30.5796 19.6438 29.6502 16.9241 27.3487C16.6285 27.0979 16.34 26.8391 16.0591 26.5725C15.836 26.7846 15.6132 26.987 15.3913 27.1778C12.5835 29.5915 9.70015 30.5929 7.98216 29.6186C6.31882 28.675 5.7961 25.9225 6.4654 22.4558C6.53853 22.0791 6.62236 21.7044 6.71678 21.3323C6.42614 21.2507 6.13762 21.162 5.85148 21.0663C2.32258 19.8802 0 17.9239 0 15.9734C0 14.0851 2.16368 12.2644 5.55152 11.1029C5.93022 10.9731 6.32605 10.8511 6.7359 10.7366C6.6481 10.3911 6.56923 10.0436 6.49939 9.69421C5.79738 6.1663 6.29135 3.34689 7.95907 2.39743C9.69831 1.40731 12.5949 2.47055 15.4846 4.99399C15.6644 5.1513 15.8412 5.31187 16.0149 5.47562C16.2743 5.22936 16.5399 4.98958 16.8116 4.75652C19.569 2.39674 22.2991 1.40953 23.9684 2.35635C25.7095 3.34355 26.2193 6.34248 25.4396 10.0651C25.3908 10.2964 25.3378 10.5267 25.2804 10.7561ZM24.9765 19.967C25.1594 19.9136 25.339 19.8586 25.5139 19.8016C28.6813 18.7694 30.6322 17.19 30.6322 15.9734C30.6322 14.8314 28.826 13.349 25.8647 12.3466C25.5585 12.2429 25.2407 12.1447 24.9135 12.0514C24.5197 13.3042 23.9943 14.6277 23.3561 15.9801C24.0248 17.3652 24.5714 18.7061 24.9765 19.967ZM24.3535 26.5164C24.5656 25.392 24.5199 23.9537 24.1997 22.3628C24.1497 22.1145 24.0916 21.8606 24.0265 21.6015C22.7011 21.9028 21.2395 22.1235 19.6925 22.2585C18.813 23.5106 17.9119 24.6382 17.0102 25.6081C17.2795 25.863 17.5482 26.104 17.8149 26.3296C20.1406 28.2979 22.2973 29.0441 23.3058 28.47C23.7796 28.2002 24.1629 27.5267 24.3535 26.5164ZM8.66434 28.4539C9.13863 28.7228 9.92335 28.7131 10.9086 28.3709C12.005 27.9899 13.2493 27.2328 14.4909 26.1654C14.6987 25.9863 14.902 25.8022 15.1006 25.6133C14.1662 24.6271 13.239 23.5009 12.3537 22.2756C10.803 22.152 9.35205 21.9468 8.04136 21.6617C7.95366 22.0078 7.87573 22.3562 7.80768 22.7066C7.23539 25.6711 7.65487 27.8814 8.66434 28.4539ZM2.5605 17.8442C3.44379 18.588 4.73239 19.2696 6.29277 19.7941C6.55402 19.8815 6.81742 19.9626 7.08273 20.0373C7.48691 18.7413 8.01969 17.3807 8.66179 16.0062C8.0279 14.6518 7.50263 13.3125 7.10213 12.0316C6.7317 12.1346 6.36441 12.2483 6.00075 12.3724C3.10333 13.3659 1.36607 14.8276 1.36607 15.9734C1.36607 16.512 1.76686 17.1757 2.5605 17.8442ZM8.6431 3.56098C7.63802 4.13314 7.23865 6.41326 7.84011 9.43601C7.90513 9.76099 7.97847 10.0842 8.06005 10.4055C9.38448 10.1104 10.8252 9.89005 12.3302 9.75287C13.2078 8.53474 14.1265 7.41703 15.0561 6.43526C14.8956 6.28442 14.7355 6.1386 14.576 5.99932C12.0809 3.8206 9.71375 2.9515 8.6431 3.56098ZM20.6704 11.2142C21.0062 11.7319 21.3306 12.2566 21.6434 12.788C21.9613 13.3278 22.2682 13.8738 22.564 14.4256C22.9687 13.4939 23.3124 12.5849 23.5882 11.7157C22.6696 11.5094 21.6914 11.3409 20.6704 11.2142ZM17.8976 9.63169C17.2764 8.81789 16.6449 8.06774 16.0144 7.396C15.374 8.07554 14.7372 8.82458 14.1155 9.63086C15.3755 9.57286 16.6376 9.57314 17.8976 9.63169ZM9.44609 14.4247C9.73426 13.8753 10.0354 13.3327 10.3493 12.7972C10.6637 12.2612 10.9908 11.7326 11.3303 11.2117C10.3159 11.3363 9.34228 11.5005 8.42925 11.7015C8.7074 12.5831 9.04799 13.4961 9.44609 14.4247ZM8.41042 20.3649C9.32316 20.5603 10.3115 20.7161 11.3595 20.8312C11.0116 20.3004 10.6766 19.7615 10.3549 19.215C10.0395 18.6793 9.73703 18.1363 9.44765 17.5866C9.04105 18.535 8.69295 19.4676 8.41042 20.3649ZM14.1269 22.3798C14.7581 23.1978 15.4043 23.9583 16.0523 24.6459C16.6785 23.9677 17.3077 23.2061 17.9309 22.3733C17.2963 22.4011 16.6515 22.4155 15.9992 22.4155C15.3643 22.4155 14.7396 22.4035 14.1269 22.3798ZM23.6516 20.3067C23.3653 19.4246 23.0047 18.497 22.577 17.5382C22.2803 18.1007 21.9708 18.6567 21.649 19.2057C21.3323 19.7458 21.0048 20.2797 20.6665 20.8071C21.722 20.6826 22.7237 20.5149 23.6516 20.3067ZM18.9296 20.97C19.468 20.1746 19.98 19.3622 20.4647 18.5341C20.9537 17.7013 21.4124 16.8516 21.8399 15.9867C21.408 15.1305 20.9479 14.2883 20.4603 13.4616C19.9755 12.637 19.4613 11.8294 18.9185 11.0405C17.9671 10.9692 16.9901 10.9319 15.9993 10.9319C15.0129 10.9319 14.0371 10.9689 13.0855 11.0397C12.5372 11.8298 12.0196 12.6402 11.5339 13.4689C11.048 14.2976 10.5939 15.1436 10.1727 16.0058C10.595 16.8677 11.0504 17.7135 11.538 18.5414C12.0278 19.3738 12.5495 20.1876 13.1019 20.9812C14.0347 21.0407 15.0034 21.0712 15.9992 21.0712C16.999 21.0712 17.9801 21.0368 18.9296 20.97ZM24.0998 9.79381C24.7731 6.57969 24.3563 4.12882 23.2848 3.52101C22.2787 2.95039 20.0707 3.74873 17.7082 5.77077C17.4574 5.98601 17.212 6.20734 16.9724 6.43457C17.887 7.40366 18.798 8.52332 19.6773 9.75468C21.1867 9.89395 22.6284 10.1182 23.956 10.4194C24.0077 10.2118 24.0557 10.0032 24.0998 9.79381Z" fill="#53C1DE"/>
<path d="M15.9991 13.1632C17.5773 13.1632 18.8566 14.4214 18.8566 15.9734C18.8566 17.5255 17.5773 18.7837 15.9991 18.7837C14.421 18.7837 13.1416 17.5255 13.1416 15.9734C13.1416 14.4214 14.421 13.1632 15.9991 13.1632Z" fill="#53C1DE"/>
</svg>
