<svg width="44" height="32" viewBox="0 0 44 32" fill="none" xmlns="http://www.w3.org/2000/svg">
<path d="M3.0922 14.0534C3.0922 13.5848 3.4833 13.4045 4.13119 13.4045C5.06 13.4045 6.2333 13.681 7.1622 14.1736V11.3498C6.1478 10.9533 5.14559 10.7971 4.13119 10.7971C1.65 10.7971 0 12.0708 0 14.1977C0 17.514 4.64441 16.9854 4.64441 18.4153C4.64441 18.968 4.15559 19.1483 3.4711 19.1483C2.4567 19.1483 1.1611 18.7397 0.134406 18.187V21.0468C1.2711 21.5275 2.42 21.7317 3.4711 21.7317C6.0133 21.7317 7.7611 20.4941 7.7611 18.3432C7.7489 14.7624 3.0922 15.3992 3.0922 14.0534ZM11.3544 8.39388L8.3722 9.01867L8.36 18.6435C8.36 20.422 9.71669 21.7317 11.5256 21.7317C12.5278 21.7317 13.2611 21.5515 13.6644 21.3352V18.8959C13.2734 19.0521 11.3422 19.6048 11.3422 17.8265V13.5607H13.6644V11.0014H11.3422L11.3544 8.39388ZM17.4656 11.8905L17.27 11.0014H14.63V21.5154H17.6856V14.3899C18.4066 13.4647 19.6289 13.6329 20.0078 13.765V11.0014C19.6167 10.8571 18.1867 10.5928 17.4656 11.8905ZM20.7533 11.0014H23.8211V21.5154H20.7533V11.0014ZM20.7533 10.0881L23.8211 9.43925V7L20.7533 7.63687V10.088V10.0881ZM30.2011 10.7971C29.0033 10.7971 28.2333 11.3498 27.8056 11.7344L27.6466 10.9894H24.9578V25L28.0133 24.3632L28.0256 20.9627C28.4656 21.2751 29.1133 21.7197 30.1889 21.7197C32.3767 21.7197 34.3689 19.9894 34.3689 16.1803C34.3567 12.6956 32.34 10.7971 30.2011 10.7971ZM29.4678 19.0761C28.7467 19.0761 28.3188 18.8238 28.0256 18.5114L28.0133 14.0534C28.3311 13.705 28.7711 13.4647 29.4678 13.4647C30.58 13.4647 31.35 14.6903 31.35 16.2644C31.35 17.8745 30.5922 19.0761 29.4678 19.0761ZM44 16.3004C44 13.2243 42.4844 10.7971 39.5878 10.7971C36.6788 10.7971 34.9188 13.2244 34.9188 16.2764C34.9188 19.8932 36.9967 21.7197 39.9788 21.7197C41.4333 21.7197 42.5333 21.3952 43.3644 20.9387V18.5354C42.5334 18.944 41.58 19.1964 40.37 19.1964C39.1844 19.1964 38.1333 18.7878 37.9989 17.3699H43.9756C43.9756 17.2136 44 16.5888 44 16.3004ZM37.9622 15.1589C37.9622 13.8011 38.8056 13.2363 39.5756 13.2363C40.3211 13.2363 41.1156 13.8011 41.1156 15.1589H37.9622Z" fill="#6772E5"/>
</svg>
