<?xml version="1.0" encoding="utf-8"?>
<!-- Generator: Adobe Illustrator 21.0.2, SVG Export Plug-In . SVG Version: 6.00 Build 0)  -->
<svg version="1.1" id="Layer_1" xmlns="http://www.w3.org/2000/svg" xmlns:xlink="http://www.w3.org/1999/xlink" x="0px" y="0px"
	 viewBox="0 0 198 55.6" style="enable-background:new 0 0 198 55.6;" xml:space="preserve">
<style type="text/css">
	.st0{display:none;fill:#F4B5B5;stroke:#000000;stroke-miterlimit:10;}
	.st1{display:none;}
	.st2{display:inline;}
	.st3{fill:#7E7F7F;}
	.st4{fill:#99999A;}
	.st5{fill:#E0E0E0;}
	.st6{fill:none;stroke:#969696;stroke-width:1.23;stroke-miterlimit:10;}
	.st7{fill:#13B3DB;}
	.st8{fill:#FFFFFF;}
	.st9{fill:none;stroke:#959595;stroke-width:1.23;stroke-miterlimit:10;}
	.st10{fill:#FFFFFF;stroke:#959595;stroke-width:1.03;stroke-miterlimit:10;}
	.st11{fill:none;stroke:#959595;stroke-width:1.03;stroke-miterlimit:10;}
	.st12{font-family:'VisbyCF-Bold';}
	.st13{font-size:54.4648px;}
	.st14{letter-spacing:-1;}
	.st15{letter-spacing:-2;}
	.st16{letter-spacing:-3;}
	.st17{letter-spacing:-5;}
</style>
<rect x="-6.2" y="-17.8" class="st0" width="218.3" height="84.3"/>
<title>Asset 1</title>
<g id="Layer_2" class="st1">
	<g id="Layer_1-2" class="st2">
		<path class="st3" d="M27.7,23.8c0,9.8-7.3,14.4-13.3,14.4c-4.5,0-8.3-2.7-8.5-4.9v4.5H0V0h6v13.5c1.2-2.1,3.9-4.1,8.5-4.1
			C20.4,9.4,27.7,14.2,27.7,23.8z M21.7,23.8c0-6.1-4.3-9.3-8.2-9.3s-7.9,2.6-7.9,9.3s4.1,9.3,7.9,9.3S21.8,29.9,21.7,23.8
			L21.7,23.8z"/>
		<path class="st3" d="M59,23.9c0,0.7-0.1,1.5-0.2,2.2H37.3c0.6,4,4,7,8,7c2.4,0.1,4.6-0.8,6.3-2.5l5,2.7c-2.9,3.2-7,5-11.3,5
			c-7.8-0.1-14.1-6.4-14.1-14.3c0,0,0-0.1,0-0.1c-0.4-7.7,5.6-14.2,13.3-14.6C52.2,9,58.7,14.9,59,22.6C59,23,59,23.4,59,23.9
			L59,23.9z M37.4,21.5H53c-0.5-4-3.9-6.9-7.8-6.9C41.2,14.6,37.9,17.6,37.4,21.5z"/>
		<path class="st3" d="M88.9,21.8v16.1H83V22.1c0-5.5-2.6-7.5-6.2-7.5c-5,0-7.9,5-8.3,7.3v16h-6V9.7h6v6c0.3-1.9,3.1-6.3,8.8-6.3
			C83.5,9.5,88.9,13,88.9,21.8z"/>
		<path class="st4" d="M112.3,9.6v5.5c-0.8-0.1-1.6-0.1-2.4-0.1c-5.1,0-9.5,3.6-10.1,9.6v13.3h-6V9.7h6v8.8
			c0.4-5.2,4.9-9.2,10.2-9.1C110.7,9.5,111.5,9.5,112.3,9.6z"/>
		<path class="st4" d="M140.6,23.9c0,0.7-0.1,1.5-0.2,2.2h-21.5c0.6,4,4,7,8,7c2.4,0.1,4.6-0.8,6.3-2.5l5,2.7c-2.9,3.2-7,5-11.3,5
			c-7.8,0-14.1-6.4-14.1-14.3c0,0,0-0.1,0-0.1c-0.4-7.7,5.6-14.2,13.3-14.6s14.2,5.6,14.6,13.3C140.6,23,140.6,23.4,140.6,23.9z
			 M119,21.5h15.6c-0.5-4-3.9-6.9-7.8-6.9C122.8,14.6,119.5,17.6,119,21.5z"/>
		<path class="st4" d="M153.8,37.9h-1L139,9.7h6.3l8,18.1l8-18.1h6.3L153.8,37.9z"/>
		<circle class="st5" cx="179.7" cy="24" r="9.9"/>
		<path class="st6" d="M196,24.5c0.5,2,0.4,7.2,0.4,15.2c0,6.6,0.1,10.7-0.2,13.3"/>
		<path class="st7" d="M169.8,14c-5.4,5.5-5.4,14.4,0.1,19.8c5.5,5.4,14.4,5.4,19.8-0.1c5.4-5.5,5.4-14.3,0-19.7
			C184.2,8.5,175.4,8.5,169.8,14C169.9,14,169.8,14,169.8,14z M186.7,30.9c-3.8,3.8-10,3.8-13.9,0c-3.8-3.8-3.8-10,0-13.9
			c3.8-3.8,10-3.8,13.9,0c0,0,0,0,0,0C190.5,20.8,190.5,27,186.7,30.9z"/>
		<path class="st7" d="M195.6,21.1h-0.1c-1.3-0.2-2.4-1.4-3.3-3.6l1,6.5l-0.9,6.3c1.1-2,1.7-3,3.1-3.3l0,0c1.6-0.2,2.9-1.6,2.7-3.3
			C197.8,22.4,196.9,21.4,195.6,21.1L195.6,21.1z M196.3,24.9c-0.5,0.5-1.3,0.5-1.8,0c-0.5-0.5-0.5-1.3,0-1.8c0.5-0.5,1.3-0.5,1.8,0
			c0,0,0,0,0,0C196.8,23.6,196.8,24.4,196.3,24.9"/>
		<path class="st6" d="M196.2,53c-0.1,0.6-0.1,1.3-0.3,1.9c-0.2,1-1.8-6.9-1.8-15.4s1.4-16.3,1.8-15.4c0,0.1,0.1,0.2,0.1,0.3"/>
		<path class="st8" d="M174.6,19.6c1.3-1.7,2.9-3,4.7-4c-4.7,0.2-8.3,4.1-8.2,8.8c0,1.1,0.3,2.2,0.8,3.2
			C172,24.7,172.9,21.9,174.6,19.6z"/>
	</g>
</g>
<g id="Layer_2_2_">
	<g id="Layer_1-2_1_">
		<path class="st8" d="M27.7,23.8c0,9.8-7.3,14.4-13.3,14.4c-4.5,0-8.3-2.7-8.5-4.9v4.5H0V0h6v13.5c1.2-2.1,3.9-4.1,8.5-4.1
			C20.4,9.4,27.7,14.2,27.7,23.8z M21.7,23.8c0-6.1-4.3-9.3-8.2-9.3s-7.9,2.6-7.9,9.3s4.1,9.3,7.9,9.3S21.8,29.9,21.7,23.8
			L21.7,23.8z"/>
		<path class="st8" d="M59,23.9c0,0.7-0.1,1.5-0.2,2.2H37.3c0.6,4,4,7,8,7c2.4,0.1,4.6-0.8,6.3-2.5l5,2.7c-2.9,3.2-7,5-11.3,5
			c-7.8-0.1-14.1-6.4-14.1-14.3c0,0,0-0.1,0-0.1c-0.4-7.7,5.6-14.2,13.3-14.6C52.2,9,58.7,14.9,59,22.6C59,23,59,23.4,59,23.9
			L59,23.9z M37.4,21.5H53c-0.5-4-3.9-6.9-7.8-6.9C41.2,14.6,37.9,17.6,37.4,21.5z"/>
		<path class="st8" d="M88.9,21.8v16.1H83V22.1c0-5.5-2.6-7.5-6.2-7.5c-5,0-7.9,5-8.3,7.3v16h-6V9.7h6v6c0.3-1.9,3.1-6.3,8.8-6.3
			C83.5,9.5,88.9,13,88.9,21.8z"/>
		<path class="st8" d="M112.3,9.6v5.5c-0.8-0.1-1.6-0.1-2.4-0.1c-5.1,0-9.5,3.6-10.1,9.6v13.3h-6V9.7h6v8.8
			c0.4-5.2,4.9-9.2,10.2-9.1C110.7,9.5,111.5,9.5,112.3,9.6z"/>
		<path class="st8" d="M140.6,23.9c0,0.7-0.1,1.5-0.2,2.2h-21.5c0.6,4,4,7,8,7c2.4,0.1,4.6-0.8,6.3-2.5l5,2.7c-2.9,3.2-7,5-11.3,5
			c-7.8,0-14.1-6.4-14.1-14.3c0,0,0-0.1,0-0.1c-0.4-7.7,5.6-14.2,13.3-14.6s14.2,5.6,14.6,13.3C140.6,23,140.6,23.4,140.6,23.9z
			 M119,21.5h15.6c-0.5-4-3.9-6.9-7.8-6.9C122.8,14.6,119.5,17.6,119,21.5z"/>
		<path class="st8" d="M153.8,37.9h-1L139,9.7h6.3l8,18.1l8-18.1h6.3L153.8,37.9z"/>
		<path class="st6" d="M196,24.5c0.5,2,0.4,7.2,0.4,15.2c0,6.6,0.1,10.7-0.2,13.3"/>
		<path class="st8" d="M169.8,14c-5.4,5.5-5.4,14.4,0.1,19.8c5.5,5.4,14.4,5.4,19.8-0.1c5.4-5.5,5.4-14.3,0-19.7
			C184.2,8.5,175.4,8.5,169.8,14C169.9,14,169.8,14,169.8,14z M186.7,30.9c-3.8,3.8-10,3.8-13.9,0c-3.8-3.8-3.8-10,0-13.9
			c3.8-3.8,10-3.8,13.9,0c0,0,0,0,0,0C190.5,20.8,190.5,27,186.7,30.9z"/>
		<path class="st8" d="M195.6,21.1h-0.1c-1.3-0.2-2.4-1.4-3.3-3.6l1,6.5l-0.9,6.3c1.1-2,1.7-3,3.1-3.3l0,0c1.6-0.2,2.9-1.6,2.7-3.3
			C197.8,22.4,196.9,21.4,195.6,21.1L195.6,21.1z M196.3,24.9c-0.5,0.5-1.3,0.5-1.8,0c-0.5-0.5-0.5-1.3,0-1.8c0.5-0.5,1.3-0.5,1.8,0
			c0,0,0,0,0,0C196.8,23.6,196.8,24.4,196.3,24.9"/>
		<path class="st9" d="M196.2,53c-0.1,0.6-0.1,1.3-0.3,1.9c-0.2,1-1.8-6.9-1.8-15.4s1.4-16.3,1.8-15.4c0,0.1,0.1,0.2,0.1,0.3"/>
		<path class="st8" d="M174.6,19.6c1.3-1.7,2.9-3,4.7-4c-4.7,0.2-8.3,4.1-8.2,8.8c0,1.1,0.3,2.2,0.8,3.2
			C172,24.7,172.9,21.9,174.6,19.6z"/>
	</g>
</g>
<g id="Layer_2_1_" class="st1">
	<g id="hero" class="st2">
		<path class="st8" d="M174.8,19.6c1.2-1.7,2.9-3.1,4.7-4.1c-4.7,0.2-8.3,4.1-8.2,8.8c0,1.1,0.3,2.2,0.8,3.2
			C172.1,24.8,173,21.9,174.8,19.6z"/>
		<path class="st10" d="M195.8,24.7c0.5,2,0.4,7.2,0.4,15.3c0,6.7,0.1,10.8-0.2,13.4"/>
		<path class="st8" d="M169.7,14.1c-5.5,5.5-5.5,14.5,0,20s14.4,5.5,19.8,0c5.5-5.5,5.5-14.5,0-20c0,0,0,0,0,0
			C184,8.6,175.1,8.6,169.7,14.1z M186.5,31.1c-3.8,3.9-10,3.9-13.9,0s-3.8-10.1,0-14c3.8-3.9,10-3.9,13.9,0
			C190.3,21,190.3,27.3,186.5,31.1C186.5,31.1,186.5,31.1,186.5,31.1z"/>
		<path class="st8" d="M195.4,21.3h-0.1c-1.3-0.2-2.4-1.4-3.3-3.6l1,6.5l-0.9,6.4c1.1-2.1,1.7-3,3.1-3.3l0,0
			c1.6-0.1,2.9-1.6,2.7-3.3C197.7,22.6,196.7,21.5,195.4,21.3L195.4,21.3z M196.1,25.1c-0.5,0.5-1.3,0.5-1.8,0
			c-0.5-0.5-0.5-1.3,0-1.8c0.5-0.5,1.3-0.5,1.8,0c0,0,0,0,0,0C196.6,23.7,196.6,24.6,196.1,25.1"/>
		<path class="st11" d="M196,53.5c-0.1,0.6-0.1,1.3-0.3,1.9c-0.2,1-1.8-6.9-1.8-15.5s1.4-16.4,1.8-15.5c0,0.1,0.1,0.2,0.1,0.3"/>
		<text transform="matrix(0.9921 0 0 1 -3.1982 38.1689)" class="st8 st12 st13 st14">b</text>
		<text transform="matrix(0.9921 0 0 1 28.791 38.1689)" class="st8 st12 st13 st15">e</text>
		<text transform="matrix(0.9921 0 0 1 59.27 38.1689)" class="st8 st12 st13 st14">n</text>
		<text transform="matrix(0.9921 0 0 1 90.7666 38.1689)" class="st8 st12 st13 st16">r</text>
		<text transform="matrix(0.9921 0 0 1 110.2715 38.1689)" class="st8 st12 st13 st17">e</text>
		<text transform="matrix(0.9921 0 0 1 137.5049 38.1689)" class="st8 st12 st13 st14">v</text>
	</g>
</g>
</svg>
