<svg xmlns="http://www.w3.org/2000/svg" viewBox="0 0 1342 211" width="1342" height="211" preserveAspectRatio="xMinYMid">
  <defs>
    <style>
      .cls-1,.cls-10,.cls-11,.cls-12,.cls-13,.cls-14,.cls-15,.cls-16,.cls-17,.cls-18,.cls-2,.cls-20,.cls-3,.cls-4,.cls-6,.cls-7,.cls-9{fill:none;}.cls-16,.cls-17,.cls-18,.cls-2,.cls-20,.cls-3,.cls-4,.cls-6,.cls-7{stroke:#547b93;}.cls-10,.cls-11,.cls-12,.cls-13,.cls-14,.cls-15,.cls-16,.cls-17,.cls-18,.cls-2,.cls-20,.cls-3,.cls-4,.cls-6,.cls-7,.cls-9{stroke-miterlimit:10;}.cls-2{stroke-width:0.89px;}.cls-3{stroke-width:0.66px;}.cls-4{stroke-width:0.46px;}.cls-5{opacity:0.55;}.cls-6{stroke-width:0.61px;}.cls-7{stroke-width:0.8px;}.cls-8{opacity:0.33;}.cls-10,.cls-11,.cls-12,.cls-13,.cls-14,.cls-15,.cls-9{stroke:#257cbc;}.cls-10{stroke-width:0.86px;}.cls-11,.cls-14{stroke-width:0.5px;}.cls-12{stroke-width:0.43px;}.cls-13{stroke-width:0.26px;}.cls-14{stroke-dasharray:4;}.cls-15{stroke-width:0.33px;stroke-dasharray:2.62;opacity:0.56;}.cls-16{stroke-width:0.44px;}.cls-17{stroke-width:0.62px;}.cls-18{stroke-width:0.26px;}.cls-19{clip-path:url(#clip-path);}.cls-20{stroke-width:0.41px;}.cls-21{fill:#13b2da;}.cls-22{fill:#293c4c;opacity:0.84;}.cls-23{fill:#fff;}.cls-24{fill:#231f20;}.cls-25{fill:#2b3b4e;}.cls-26{fill:#e6e9ee;}.cls-27{fill:#ced5e0;}.cls-28{fill:#b5b5b5;}.cls-29{fill:#298499;}.cls-30{fill:#334a5e;}
    </style>
    <clipPath id="clip-path">
      <rect class="cls-1" x="647.16" y="152.78" width="80.47" height="58.12"/>
    </clipPath>
  </defs>
  <title>brokers-main</title>
  <g id="Layer_2" data-name="Layer 2">
    <g id="SCENE2">
      <path class="cls-2"
            d="M985.38,170.15H951.12a2.74,2.74,0,0,0-2.74,2.74v12.26a3.1,3.1,0,1,1,6.17.07,3.43,3.43,0,0,1,6.85,0,3.43,3.43,0,0,1,6.85,0,3.43,3.43,0,0,1,6.85,0,3.43,3.43,0,0,1,6.85,0,3.1,3.1,0,1,1,6.17-.07V172.89A2.74,2.74,0,0,0,985.38,170.15Z"/>
      <line class="cls-2" x1="957.98" y1="181.8" x2="957.98" y2="172.89"/>
      <line class="cls-2" x1="951.12" y1="181.8" x2="951.12" y2="172.89"/>
      <line class="cls-2" x1="964.83" y1="181.8" x2="964.83" y2="172.89"/>
      <line class="cls-2" x1="971.68" y1="181.8" x2="971.68" y2="172.89"/>
      <line class="cls-2" x1="978.53" y1="181.8" x2="978.53" y2="172.89"/>
      <line class="cls-2" x1="985.38" y1="181.8" x2="985.38" y2="172.89"/>
      <line class="cls-2" x1="949.75" y1="187.63" x2="949.75" y2="209.9"/>
      <line class="cls-2" x1="986.75" y1="187.63" x2="986.75" y2="209.9"/>
      <polyline class="cls-2" points="982.64 207.15 982.64 190.71 953.87 190.71 953.87 207.15"/>
      <line class="cls-2" x1="978.53" y1="193.45" x2="979.9" y2="194.82"/>
      <line class="cls-2" x1="975.79" y1="194.82" x2="978.53" y2="197.56"/>
      <line class="cls-2" x1="960.72" y1="198.93" x2="960.72" y2="200.3"/>
      <line class="cls-2" x1="973.05" y1="201.67" x2="973.05" y2="209.9"/>
      <line class="cls-2" x1="977.16" y1="201.67" x2="968.94" y2="201.67"/>
      <line class="cls-2" x1="978.53" y1="204.41" x2="978.53" y2="209.9"/>
      <line class="cls-2" x1="979.9" y1="204.41" x2="977.16" y2="204.41"/>
      <line class="cls-2" x1="967.57" y1="204.41" x2="967.57" y2="209.9"/>
      <line class="cls-2" x1="968.94" y1="204.41" x2="966.2" y2="204.41"/>
      <line class="cls-2" x1="963.46" y1="190.71" x2="963.46" y2="207.15"/>
      <line class="cls-2" x1="988.13" y1="209.9" x2="948.38" y2="209.9"/>
      <path class="cls-3"
            d="M1054.43,180.62h-25.24a2,2,0,0,0-2,2v9a2.28,2.28,0,1,1,4.54.05,2.52,2.52,0,0,1,5,0,2.52,2.52,0,1,1,5,0,2.52,2.52,0,0,1,5,0,2.52,2.52,0,0,1,5,0,2.28,2.28,0,1,1,4.54-.05v-9A2,2,0,0,0,1054.43,180.62Z"/>
      <line class="cls-3" x1="1034.24" y1="189.2" x2="1034.24" y2="182.64"/>
      <line class="cls-3" x1="1029.19" y1="189.2" x2="1029.19" y2="182.64"/>
      <line class="cls-3" x1="1039.29" y1="189.2" x2="1039.29" y2="182.64"/>
      <line class="cls-3" x1="1044.34" y1="189.2" x2="1044.34" y2="182.64"/>
      <line class="cls-3" x1="1049.38" y1="189.2" x2="1049.38" y2="182.64"/>
      <line class="cls-3" x1="1054.43" y1="189.2" x2="1054.43" y2="182.64"/>
      <line class="cls-3" x1="1028.18" y1="193.49" x2="1028.18" y2="209.9"/>
      <line class="cls-3" x1="1055.44" y1="193.49" x2="1055.44" y2="209.9"/>
      <polyline class="cls-3" points="1052.41 207.88 1052.41 195.76 1031.21 195.76 1031.21 207.88"/>
      <line class="cls-3" x1="1049.38" y1="197.78" x2="1050.39" y2="198.79"/>
      <line class="cls-3" x1="1047.36" y1="198.79" x2="1049.38" y2="200.81"/>
      <line class="cls-3" x1="1036.26" y1="201.82" x2="1036.26" y2="202.83"/>
      <line class="cls-3" x1="1045.34" y1="203.84" x2="1045.34" y2="209.9"/>
      <line class="cls-3" x1="1048.37" y1="203.84" x2="1042.32" y2="203.84"/>
      <line class="cls-3" x1="1049.38" y1="205.86" x2="1049.38" y2="209.9"/>
      <line class="cls-3" x1="1050.39" y1="205.86" x2="1048.37" y2="205.86"/>
      <line class="cls-3" x1="1041.31" y1="205.86" x2="1041.31" y2="209.9"/>
      <line class="cls-3" x1="1042.32" y1="205.86" x2="1040.3" y2="205.86"/>
      <line class="cls-3" x1="1038.28" y1="195.76" x2="1038.28" y2="207.88"/>
      <line class="cls-3" x1="1056.45" y1="209.9" x2="1027.17" y2="209.9"/>
      <path class="cls-2"
            d="M1118.3,170.15H1084a2.74,2.74,0,0,0-2.74,2.74v12.26a3.1,3.1,0,1,1,6.17.07,3.43,3.43,0,1,1,6.85,0,3.43,3.43,0,0,1,6.85,0,3.43,3.43,0,1,1,6.85,0,3.43,3.43,0,1,1,6.85,0,3.1,3.1,0,1,1,6.17-.07V172.89A2.74,2.74,0,0,0,1118.3,170.15Z"/>
      <line class="cls-2" x1="1090.89" y1="181.8" x2="1090.89" y2="172.89"/>
      <line class="cls-2" x1="1084.04" y1="181.8" x2="1084.04" y2="172.89"/>
      <line class="cls-2" x1="1097.75" y1="181.8" x2="1097.75" y2="172.89"/>
      <line class="cls-2" x1="1104.6" y1="181.8" x2="1104.6" y2="172.89"/>
      <line class="cls-2" x1="1111.45" y1="181.8" x2="1111.45" y2="172.89"/>
      <line class="cls-2" x1="1118.3" y1="181.8" x2="1118.3" y2="172.89"/>
      <line class="cls-2" x1="1082.67" y1="187.63" x2="1082.67" y2="209.9"/>
      <line class="cls-2" x1="1119.67" y1="187.63" x2="1119.67" y2="209.9"/>
      <polyline class="cls-2" points="1115.56 207.15 1115.56 190.71 1086.78 190.71 1086.78 207.15"/>
      <line class="cls-2" x1="1111.45" y1="193.45" x2="1112.82" y2="194.82"/>
      <line class="cls-2" x1="1108.71" y1="194.82" x2="1111.45" y2="197.56"/>
      <line class="cls-2" x1="1093.64" y1="198.93" x2="1093.64" y2="200.3"/>
      <line class="cls-2" x1="1105.97" y1="201.67" x2="1105.97" y2="209.9"/>
      <line class="cls-2" x1="1110.08" y1="201.67" x2="1101.86" y2="201.67"/>
      <line class="cls-2" x1="1111.45" y1="204.41" x2="1111.45" y2="209.9"/>
      <line class="cls-2" x1="1112.82" y1="204.41" x2="1110.08" y2="204.41"/>
      <line class="cls-2" x1="1100.49" y1="204.41" x2="1100.49" y2="209.9"/>
      <line class="cls-2" x1="1101.86" y1="204.41" x2="1099.12" y2="204.41"/>
      <line class="cls-2" x1="1096.38" y1="190.71" x2="1096.38" y2="207.15"/>
      <line class="cls-2" x1="1121.04" y1="209.9" x2="1081.3" y2="209.9"/>
      <path class="cls-4"
            d="M931.89,189.24H914.08a1.42,1.42,0,0,0-1.42,1.42V197a1.61,1.61,0,1,1,3.21,0,1.78,1.78,0,0,1,3.56,0,1.78,1.78,0,1,1,3.56,0,1.78,1.78,0,0,1,3.56,0,1.78,1.78,0,1,1,3.56,0,1.61,1.61,0,1,1,3.21,0v-6.38A1.42,1.42,0,0,0,931.89,189.24Z"/>
      <line class="cls-4" x1="917.64" y1="195.29" x2="917.64" y2="190.66"/>
      <line class="cls-4" x1="914.08" y1="195.29" x2="914.08" y2="190.66"/>
      <line class="cls-4" x1="921.21" y1="195.29" x2="921.21" y2="190.66"/>
      <line class="cls-4" x1="924.77" y1="195.29" x2="924.77" y2="190.66"/>
      <line class="cls-4" x1="928.33" y1="195.29" x2="928.33" y2="190.66"/>
      <line class="cls-4" x1="931.89" y1="195.29" x2="931.89" y2="190.66"/>
      <line class="cls-4" x1="913.37" y1="198.32" x2="913.37" y2="209.9"/>
      <line class="cls-4" x1="932.61" y1="198.32" x2="932.61" y2="209.9"/>
      <polyline class="cls-4" points="930.47 208.47 930.47 199.92 915.51 199.92 915.51 208.47"/>
      <line class="cls-4" x1="928.33" y1="201.35" x2="929.04" y2="202.06"/>
      <line class="cls-4" x1="926.91" y1="202.06" x2="928.33" y2="203.48"/>
      <line class="cls-4" x1="919.07" y1="204.2" x2="919.07" y2="204.91"/>
      <line class="cls-4" x1="925.48" y1="205.62" x2="925.48" y2="209.9"/>
      <line class="cls-4" x1="927.62" y1="205.62" x2="923.34" y2="205.62"/>
      <line class="cls-4" x1="928.33" y1="207.05" x2="928.33" y2="209.9"/>
      <line class="cls-4" x1="929.04" y1="207.05" x2="927.62" y2="207.05"/>
      <line class="cls-4" x1="922.63" y1="207.05" x2="922.63" y2="209.9"/>
      <line class="cls-4" x1="923.34" y1="207.05" x2="921.92" y2="207.05"/>
      <line class="cls-4" x1="920.49" y1="199.92" x2="920.49" y2="208.47"/>
      <line class="cls-4" x1="933.32" y1="209.9" x2="912.66" y2="209.9"/>
      <path class="cls-4"
            d="M906.66,189.24H888.85a1.42,1.42,0,0,0-1.42,1.42V197a1.61,1.61,0,1,1,3.21,0,1.78,1.78,0,1,1,3.56,0,1.78,1.78,0,1,1,3.56,0,1.78,1.78,0,1,1,3.56,0,1.78,1.78,0,1,1,3.56,0,1.61,1.61,0,1,1,3.21,0v-6.38A1.42,1.42,0,0,0,906.66,189.24Z"/>
      <line class="cls-4" x1="892.41" y1="195.29" x2="892.41" y2="190.66"/>
      <line class="cls-4" x1="888.85" y1="195.29" x2="888.85" y2="190.66"/>
      <line class="cls-4" x1="895.97" y1="195.29" x2="895.97" y2="190.66"/>
      <line class="cls-4" x1="899.53" y1="195.29" x2="899.53" y2="190.66"/>
      <line class="cls-4" x1="903.09" y1="195.29" x2="903.09" y2="190.66"/>
      <line class="cls-4" x1="906.66" y1="195.29" x2="906.66" y2="190.66"/>
      <line class="cls-4" x1="888.13" y1="198.32" x2="888.13" y2="209.9"/>
      <line class="cls-4" x1="907.37" y1="198.32" x2="907.37" y2="209.9"/>
      <polyline class="cls-4" points="905.23 208.47 905.23 199.92 890.27 199.92 890.27 208.47"/>
      <line class="cls-4" x1="903.09" y1="201.35" x2="903.81" y2="202.06"/>
      <line class="cls-4" x1="901.67" y1="202.06" x2="903.09" y2="203.48"/>
      <line class="cls-4" x1="893.83" y1="204.2" x2="893.83" y2="204.91"/>
      <line class="cls-4" x1="900.24" y1="205.62" x2="900.24" y2="209.9"/>
      <line class="cls-4" x1="902.38" y1="205.62" x2="898.11" y2="205.62"/>
      <line class="cls-4" x1="903.09" y1="207.05" x2="903.09" y2="209.9"/>
      <line class="cls-4" x1="903.81" y1="207.05" x2="902.38" y2="207.05"/>
      <line class="cls-4" x1="897.39" y1="207.05" x2="897.39" y2="209.9"/>
      <line class="cls-4" x1="898.11" y1="207.05" x2="896.68" y2="207.05"/>
      <line class="cls-4" x1="895.26" y1="199.92" x2="895.26" y2="208.47"/>
      <line class="cls-4" x1="908.08" y1="209.9" x2="887.42" y2="209.9"/>
      <g class="cls-5">
        <polyline class="cls-2" points="35.28 134.59 73.01 134.59 73.01 196.24"/>
        <polyline class="cls-2" points="0.45 210.06 17.86 210.06 17.86 134.59 29.47 134.59"/>
        <polyline class="cls-2" points="67.2 198.45 67.2 140.4 23.67 140.4 23.67 210.06 70.11 210.06"/>
        <line class="cls-2" x1="32.37" y1="140.4" x2="32.37" y2="210.06"/>
        <line class="cls-2" x1="41.08" y1="140.4" x2="41.08" y2="210.06"/>
        <line class="cls-2" x1="49.79" y1="140.4" x2="49.79" y2="210.06"/>
        <line class="cls-2" x1="58.5" y1="140.4" x2="58.5" y2="210.06"/>
        <line class="cls-2" x1="23.67" y1="152.01" x2="67.21" y2="152.01"/>
        <line class="cls-2" x1="23.67" y1="163.62" x2="67.21" y2="163.62"/>
        <line class="cls-2" x1="23.67" y1="175.23" x2="67.21" y2="175.23"/>
        <line class="cls-2" x1="23.67" y1="186.84" x2="67.21" y2="186.84"/>
        <line class="cls-2" x1="23.67" y1="198.45" x2="67.21" y2="198.45"/>
        <polyline class="cls-2"
                  points="61.4 134.59 61.4 128.78 49.79 128.78 49.79 125.88 41.08 125.88 41.08 128.78 29.47 128.78 29.47 134.59"/>
        <path class="cls-2"
              d="M81.72,204.25a2.89,2.89,0,0,0-1.57.47,4.34,4.34,0,0,0-8.46,0,2.9,2.9,0,1,0-1.57,5.34H81.72a2.9,2.9,0,1,0,0-5.81Z"/>
        <path class="cls-2"
              d="M12.06,195.55c0-5.81-1.45-17.42-5.81-17.42S.44,189.74.44,195.55a5.81,5.81,0,0,0,11.61,0Z"/>
        <line class="cls-2" x1="6.25" y1="201.35" x2="6.25" y2="210.06"/>
      </g>
      <g class="cls-5">
        <polyline class="cls-6" points="835.03 158.42 860.85 158.42 860.85 200.6"/>
        <polyline class="cls-6" points="811.2 210.06 823.11 210.06 823.11 158.42 831.06 158.42"/>
        <polyline class="cls-6" points="856.88 202.11 856.88 162.39 827.08 162.39 827.08 210.06 858.86 210.06"/>
        <line class="cls-6" x1="833.04" y1="162.39" x2="833.04" y2="210.06"/>
        <line class="cls-6" x1="839" y1="162.39" x2="839" y2="210.06"/>
        <line class="cls-6" x1="844.96" y1="162.39" x2="844.96" y2="210.06"/>
        <line class="cls-6" x1="850.92" y1="162.39" x2="850.92" y2="210.06"/>
        <line class="cls-6" x1="827.08" y1="170.34" x2="856.88" y2="170.34"/>
        <line class="cls-6" x1="827.08" y1="178.28" x2="856.88" y2="178.28"/>
        <line class="cls-6" x1="827.08" y1="186.22" x2="856.88" y2="186.22"/>
        <line class="cls-6" x1="827.08" y1="194.17" x2="856.88" y2="194.17"/>
        <line class="cls-6" x1="827.08" y1="202.11" x2="856.88" y2="202.11"/>
        <polyline class="cls-6"
                  points="852.9 158.42 852.9 154.45 844.96 154.45 844.96 152.46 839 152.46 839 154.45 831.06 154.45 831.06 158.42"/>
        <path class="cls-6"
              d="M866.81,206.09a2,2,0,0,0-1.08.32,3,3,0,0,0-5.79,0,2,2,0,1,0-1.08,3.65h7.94a2,2,0,1,0,0-4Z"/>
        <path class="cls-6" d="M819.14,200.13c0-4-1-11.92-4-11.92s-4,7.94-4,11.92a4,4,0,0,0,7.94,0Z"/>
        <line class="cls-6" x1="815.17" y1="204.1" x2="815.17" y2="210.06"/>
      </g>
      <g class="cls-5">
        <polyline class="cls-7" points="611.37 142.67 645.11 142.67 645.11 197.79"/>
        <polyline class="cls-7" points="580.23 210.15 595.8 210.15 595.8 142.67 606.18 142.67"/>
        <polyline class="cls-7" points="639.92 199.76 639.92 147.86 600.99 147.86 600.99 210.15 642.52 210.15"/>
        <line class="cls-7" x1="608.78" y1="147.86" x2="608.78" y2="210.15"/>
        <line class="cls-7" x1="616.56" y1="147.86" x2="616.56" y2="210.15"/>
        <line class="cls-7" x1="624.35" y1="147.86" x2="624.35" y2="210.15"/>
        <line class="cls-7" x1="632.14" y1="147.86" x2="632.14" y2="210.15"/>
        <line class="cls-7" x1="600.99" y1="158.24" x2="639.92" y2="158.24"/>
        <line class="cls-7" x1="600.99" y1="168.62" x2="639.92" y2="168.62"/>
        <line class="cls-7" x1="600.99" y1="179" x2="639.92" y2="179"/>
        <line class="cls-7" x1="600.99" y1="189.38" x2="639.92" y2="189.38"/>
        <line class="cls-7" x1="600.99" y1="199.77" x2="639.92" y2="199.77"/>
        <polyline class="cls-7"
                  points="634.73 142.67 634.73 137.48 624.35 137.48 624.35 134.88 616.56 134.88 616.56 137.48 606.18 137.48 606.18 142.67"/>
        <path class="cls-7"
              d="M652.9,205a2.58,2.58,0,0,0-1.41.42,3.88,3.88,0,0,0-7.57,0,2.59,2.59,0,1,0-1.41,4.77H652.9a2.6,2.6,0,1,0,0-5.19Z"/>
        <path class="cls-7"
              d="M590.61,197.17c0-5.19-1.3-15.57-5.19-15.57s-5.19,10.38-5.19,15.57a5.19,5.19,0,1,0,10.38,0Z"/>
        <line class="cls-7" x1="585.42" y1="202.36" x2="585.42" y2="210.15"/>
      </g>
      <g class="cls-8">
        <polygon class="cls-9"
                 points="536.24 21.49 537 23.23 538.86 23.59 537.44 24.85 537.68 26.73 536.04 25.77 534.32 26.58 534.73 24.73 533.43 23.34 535.32 23.16 536.24 21.49"/>
        <polygon class="cls-9"
                 points="614.22 27.59 614.98 29.33 616.84 29.68 615.42 30.95 615.66 32.83 614.02 31.87 612.3 32.68 612.71 30.82 611.41 29.44 613.3 29.25 614.22 27.59"/>
        <polygon class="cls-9"
                 points="323.1 1.13 323.86 2.87 325.73 3.22 324.31 4.49 324.55 6.37 322.91 5.41 321.19 6.22 321.59 4.36 320.3 2.98 322.19 2.79 323.1 1.13"/>
        <polygon class="cls-9"
                 points="167.85 113.45 168.61 115.19 170.47 115.55 169.06 116.81 169.29 118.69 167.66 117.74 165.94 118.54 166.34 116.69 165.04 115.3 166.93 115.12 167.85 113.45"/>
        <polygon class="cls-9"
                 points="322.93 65.36 323.69 67.1 325.56 67.45 324.14 68.72 324.38 70.6 322.74 69.64 321.02 70.45 321.43 68.59 320.13 67.21 322.02 67.02 322.93 65.36"/>
        <polygon class="cls-9"
                 points="704.45 73.58 705.22 75.32 707.08 75.67 705.66 76.94 705.9 78.82 704.26 77.86 702.54 78.67 702.95 76.81 701.65 75.43 703.54 75.24 704.45 73.58"/>
        <polygon class="cls-9"
                 points="213.31 20.33 214.07 22.07 215.94 22.43 214.52 23.69 214.76 25.57 213.12 24.62 211.4 25.42 211.81 23.57 210.51 22.18 212.4 22 213.31 20.33"/>
      </g>
      <g class="cls-8">
        <polygon class="cls-10"
                 points="1194.17 30.63 1194.83 32.13 1196.43 32.44 1195.21 33.53 1195.41 35.15 1194 34.33 1192.52 35.02 1192.87 33.42 1191.75 32.23 1193.38 32.07 1194.17 30.63"/>
        <polygon class="cls-10"
                 points="1261.38 35.89 1262.04 37.38 1263.64 37.69 1262.42 38.78 1262.63 40.4 1261.21 39.58 1259.73 40.27 1260.08 38.68 1258.96 37.48 1260.59 37.32 1261.38 35.89"/>
        <polygon class="cls-10"
                 points="1010.47 13.08 1011.12 14.58 1012.73 14.89 1011.51 15.98 1011.71 17.6 1010.3 16.77 1008.82 17.47 1009.17 15.87 1008.05 14.68 1009.68 14.52 1010.47 13.08"/>
        <polygon class="cls-10"
                 points="876.65 109.89 877.31 111.39 878.92 111.7 877.7 112.79 877.9 114.41 876.49 113.59 875.01 114.28 875.35 112.68 874.24 111.49 875.86 111.33 876.65 109.89"/>
        <polygon class="cls-10"
                 points="1010.32 68.44 1010.98 69.94 1012.59 70.25 1011.36 71.34 1011.57 72.96 1010.15 72.13 1008.67 72.83 1009.02 71.23 1007.9 70.04 1009.53 69.88 1010.32 68.44"/>
        <polygon class="cls-10"
                 points="1339.16 75.53 1339.81 77.03 1341.42 77.33 1340.2 78.42 1340.4 80.04 1338.99 79.22 1337.51 79.91 1337.86 78.31 1336.74 77.12 1338.37 76.96 1339.16 75.53"/>
        <polygon class="cls-10"
                 points="915.84 29.63 916.5 31.13 918.1 31.44 916.88 32.53 917.08 34.15 915.67 33.33 914.19 34.02 914.54 32.42 913.42 31.23 915.05 31.07 915.84 29.63"/>
      </g>
      <line class="cls-11" x1="163.96" y1="98.89" x2="161.16" y2="104.14"/>
      <path class="cls-11"
            d="M160,97.37l-3.78-1.62c-.94-.43-.92-1.27,0-1.75l19.57-10.14-3.55,16.79a1.13,1.13,0,0,1-1.68.85l-5.39-2.11"/>
      <polyline class="cls-11" points="164.66 100.64 161.16 104.14 161.16 97.84"/>
      <line class="cls-11" x1="163.96" y1="98.89" x2="175.84" y2="83.86"/>
      <line class="cls-11" x1="175.84" y1="83.86" x2="161.16" y2="97.84"/>
      <line class="cls-12" x1="728.97" y1="78.92" x2="723.95" y2="78.21"/>
      <path class="cls-12"
            d="M729.05,75.33l.19-3.5c.07-.88.75-1.11,1.4-.51L744.5,84.05,730,86.11a1,1,0,0,1-1.17-1.1l.12-4.94"/>
      <polyline class="cls-12" points="727.77 79.99 723.95 78.21 728.99 76.37"/>
      <line class="cls-12" x1="728.97" y1="78.92" x2="744.5" y2="84.05"/>
      <line class="cls-12" x1="744.5" y1="84.05" x2="728.99" y2="76.37"/>
      <line class="cls-13" x1="959.14" y1="145.28" x2="956.77" y2="147.29"/>
      <path class="cls-13"
            d="M957.53,143.78,956,142.27c-.38-.39-.2-.8.34-.85l11.47-1.17-5,7.48a.59.59,0,0,1-1,.09l-2.22-2.06"/>
      <polyline class="cls-13" points="959.14 146.26 956.77 147.29 957.98 144.23"/>
      <line class="cls-13" x1="959.14" y1="145.28" x2="967.81" y2="140.25"/>
      <line class="cls-13" x1="967.81" y1="140.25" x2="957.98" y2="144.23"/>
      <path class="cls-14"
            d="M156,109.23c-12.91.48-23.54,6.68-27,16-2.35,6.32-2.11,16,3,19,6.9,4.06,21.41-4.81,21-11-.51-7.62-24-15.61-44-11-12.68,2.92-21.37,10.29-26,15"/>
      <path class="cls-15"
            d="M884.52,78.8c-8.45-.31-15.4-4.37-17.66-10.47-1.54-4.14-1.38-10.47,2-12.43,4.52-2.65,14,3.15,13.74,7.2-.33,5-15.69,10.21-28.79,7.2a35.19,35.19,0,0,1-17-9.81"/>
      <path class="cls-15"
            d="M955,150.4c-3,2.66-6.75,3.54-9.53,2.17-1.89-.93-3.91-3.16-3.39-4.94.69-2.4,5.87-3.5,7.11-2,1.52,1.83-2.07,8.67-7.59,11.92a16.76,16.76,0,0,1-9.09,2.18"/>
      <polyline class="cls-2" points="223.1 198.98 223.1 97.99 263.98 97.99 263.98 198.98"/>
      <polyline class="cls-2" points="219.95 208.88 219.95 205.73 263.98 205.73"/>
      <polyline class="cls-2" points="197.94 167.64 197.94 116.86 216.81 116.86"/>
      <polyline class="cls-2" points="289.13 204.43 289.13 116.86 270.26 116.86"/>
      <polyline class="cls-2" points="207.38 168 207.38 164.85 213.66 164.85 213.66 174.29"/>
      <rect class="cls-2" x="273.41" y="164.85" width="6.29" height="9.43"/>
      <rect class="cls-2" x="273.41" y="126.29" width="6.29" height="9.43"/>
      <rect class="cls-2" x="207.38" y="126.29" width="6.29" height="9.43"/>
      <rect class="cls-2" x="207.38" y="144.73" width="6.29" height="9.43"/>
      <rect class="cls-2" x="273.41" y="183.72" width="6.29" height="9.43"/>
      <rect class="cls-2" x="248.25" y="164.85" width="6.29" height="9.43"/>
      <rect class="cls-2" x="273.41" y="144.93" width="6.29" height="9.43"/>
      <rect class="cls-2" x="248.25" y="144.93" width="6.29" height="9.43"/>
      <rect class="cls-2" x="248.25" y="126.29" width="6.29" height="9.43"/>
      <rect class="cls-2" x="232.53" y="145.16" width="6.29" height="9.43"/>
      <rect class="cls-2" x="232.53" y="164.85" width="6.29" height="9.43"/>
      <rect class="cls-2" x="232.53" y="126.29" width="6.29" height="9.43"/>
      <rect class="cls-2" x="248.25" y="107.43" width="6.29" height="9.43"/>
      <rect class="cls-2" x="232.53" y="107.43" width="6.29" height="9.43"/>
      <line class="cls-2" x1="251.4" y1="199.44" x2="251.4" y2="183.72"/>
      <line class="cls-2" x1="235.68" y1="199.44" x2="235.68" y2="183.72"/>
      <path class="cls-2"
            d="M286,202.59a3.13,3.13,0,0,0-1.7.51,4.7,4.7,0,0,0-9.17,0,3.14,3.14,0,1,0-1.7,5.78H286a3.14,3.14,0,1,0,0-6.29Z"/>
      <path class="cls-2"
            d="M210.52,193.15c0-6.29-1.57-18.87-6.29-18.87s-6.29,12.58-6.29,18.87a6.29,6.29,0,0,0,12.58,0Z"/>
      <line class="cls-2" x1="204.23" y1="199.44" x2="204.23" y2="208.88"/>
      <line class="cls-2" x1="229.39" y1="183.72" x2="257.69" y2="183.72"/>
      <line class="cls-2" x1="243.54" y1="173.46" x2="243.54" y2="173.46"/>
      <polyline class="cls-16" points="725.71 203.94 725.71 153.53 746.11 153.53 746.11 203.94"/>
      <polyline class="cls-16" points="724.14 208.88 724.14 207.31 746.11 207.31"/>
      <polyline class="cls-16" points="713.15 188.29 713.15 162.95 722.57 162.95"/>
      <polyline class="cls-16" points="758.67 206.66 758.67 162.95 749.25 162.95"/>
      <polyline class="cls-16" points="717.86 188.47 717.86 186.9 721 186.9 721 191.61"/>
      <rect class="cls-16" x="750.82" y="186.9" width="3.14" height="4.71"/>
      <rect class="cls-16" x="750.82" y="167.66" width="3.14" height="4.71"/>
      <rect class="cls-16" x="717.86" y="167.66" width="3.14" height="4.71"/>
      <rect class="cls-16" x="717.86" y="176.86" width="3.14" height="4.71"/>
      <rect class="cls-16" x="750.82" y="196.32" width="3.14" height="4.71"/>
      <rect class="cls-16" x="738.27" y="186.9" width="3.14" height="4.71"/>
      <rect class="cls-16" x="750.82" y="176.96" width="3.14" height="4.71"/>
      <rect class="cls-16" x="738.27" y="176.96" width="3.14" height="4.71"/>
      <rect class="cls-16" x="738.27" y="167.66" width="3.14" height="4.71"/>
      <rect class="cls-16" x="730.42" y="177.07" width="3.14" height="4.71"/>
      <rect class="cls-16" x="730.42" y="186.9" width="3.14" height="4.71"/>
      <rect class="cls-16" x="730.42" y="167.66" width="3.14" height="4.71"/>
      <rect class="cls-16" x="738.27" y="158.24" width="3.14" height="4.71"/>
      <rect class="cls-16" x="730.42" y="158.24" width="3.14" height="4.71"/>
      <line class="cls-16" x1="739.84" y1="204.17" x2="739.84" y2="196.32"/>
      <line class="cls-16" x1="731.99" y1="204.17" x2="731.99" y2="196.32"/>
      <path class="cls-16"
            d="M757.1,205.74a1.56,1.56,0,0,0-.85.25,2.35,2.35,0,0,0-4.58,0,1.57,1.57,0,1,0-.85,2.89h6.28a1.57,1.57,0,1,0,0-3.14Z"/>
      <path class="cls-16" d="M719.43,201c0-3.14-.78-9.42-3.14-9.42s-3.14,6.28-3.14,9.42a3.14,3.14,0,1,0,6.28,0Z"/>
      <line class="cls-16" x1="716.29" y1="204.17" x2="716.29" y2="208.88"/>
      <line class="cls-16" x1="728.85" y1="196.32" x2="742.97" y2="196.32"/>
      <line class="cls-16" x1="735.91" y1="191.2" x2="735.91" y2="191.2"/>
      <polyline class="cls-17" points="1150.34 201.93 1150.34 131.03 1179.04 131.03 1179.04 201.93"/>
      <polyline class="cls-17" points="1148.13 208.88 1148.13 206.67 1179.04 206.67"/>
      <polyline class="cls-17" points="1132.68 179.93 1132.68 144.28 1145.92 144.28"/>
      <polyline class="cls-17" points="1196.7 205.75 1196.7 144.28 1183.45 144.28"/>
      <polyline class="cls-17" points="1139.3 180.18 1139.3 177.97 1143.71 177.97 1143.71 184.59"/>
      <rect class="cls-17" x="1185.66" y="177.97" width="4.42" height="6.62"/>
      <rect class="cls-17" x="1185.66" y="150.9" width="4.42" height="6.62"/>
      <rect class="cls-17" x="1139.3" y="150.9" width="4.42" height="6.62"/>
      <rect class="cls-17" x="1139.3" y="163.84" width="4.42" height="6.62"/>
      <rect class="cls-17" x="1185.66" y="191.22" width="4.42" height="6.62"/>
      <rect class="cls-17" x="1168" y="177.97" width="4.42" height="6.62"/>
      <rect class="cls-17" x="1185.66" y="163.98" width="4.42" height="6.62"/>
      <rect class="cls-17" x="1168" y="163.98" width="4.42" height="6.62"/>
      <rect class="cls-17" x="1168" y="150.9" width="4.42" height="6.62"/>
      <rect class="cls-17" x="1156.96" y="164.14" width="4.42" height="6.62"/>
      <rect class="cls-17" x="1156.96" y="177.97" width="4.42" height="6.62"/>
      <rect class="cls-17" x="1156.96" y="150.9" width="4.42" height="6.62"/>
      <rect class="cls-17" x="1168" y="137.65" width="4.42" height="6.62"/>
      <rect class="cls-17" x="1156.96" y="137.65" width="4.42" height="6.62"/>
      <line class="cls-17" x1="1170.21" y1="202.25" x2="1170.21" y2="191.22"/>
      <line class="cls-17" x1="1159.17" y1="202.25" x2="1159.17" y2="191.22"/>
      <path class="cls-17"
            d="M1194.49,204.46a2.2,2.2,0,0,0-1.2.36,3.3,3.3,0,0,0-6.44,0,2.21,2.21,0,1,0-1.2,4.06h8.83a2.21,2.21,0,1,0,0-4.42Z"/>
      <path class="cls-17"
            d="M1141.51,197.84c0-4.42-1.1-13.25-4.42-13.25s-4.42,8.83-4.42,13.25a4.42,4.42,0,1,0,8.83,0Z"/>
      <line class="cls-17" x1="1137.09" y1="202.25" x2="1137.09" y2="208.88"/>
      <line class="cls-17" x1="1154.75" y1="191.22" x2="1174.62" y2="191.22"/>
      <line class="cls-17" x1="1164.69" y1="184.01" x2="1164.69" y2="184.01"/>
      <polyline class="cls-18" points="870.04 206.38 870.04 177.06 881.9 177.06 881.9 206.38"/>
      <polyline class="cls-18" points="869.12 209.25 869.12 208.34 881.9 208.34"/>
      <polyline class="cls-18" points="862.73 197.28 862.73 182.53 868.21 182.53"/>
      <polyline class="cls-18" points="889.21 207.96 889.21 182.53 883.73 182.53"/>
      <polyline class="cls-18" points="865.47 197.38 865.47 196.47 867.3 196.47 867.3 199.21"/>
      <rect class="cls-18" x="884.64" y="196.47" width="1.83" height="2.74"/>
      <rect class="cls-18" x="884.64" y="185.27" width="1.83" height="2.74"/>
      <rect class="cls-18" x="865.47" y="185.27" width="1.83" height="2.74"/>
      <rect class="cls-18" x="865.47" y="190.63" width="1.83" height="2.74"/>
      <rect class="cls-18" x="884.64" y="201.95" width="1.83" height="2.74"/>
      <rect class="cls-18" x="877.34" y="196.47" width="1.83" height="2.74"/>
      <rect class="cls-18" x="884.64" y="190.68" width="1.83" height="2.74"/>
      <rect class="cls-18" x="877.34" y="190.68" width="1.83" height="2.74"/>
      <rect class="cls-18" x="877.34" y="185.27" width="1.83" height="2.74"/>
      <rect class="cls-18" x="872.78" y="190.75" width="1.83" height="2.74"/>
      <rect class="cls-18" x="872.78" y="196.47" width="1.83" height="2.74"/>
      <rect class="cls-18" x="872.78" y="185.27" width="1.83" height="2.74"/>
      <rect class="cls-18" x="877.34" y="179.8" width="1.83" height="2.74"/>
      <rect class="cls-18" x="872.78" y="179.8" width="1.83" height="2.74"/>
      <line class="cls-18" x1="878.25" y1="206.51" x2="878.25" y2="201.95"/>
      <line class="cls-18" x1="873.69" y1="206.51" x2="873.69" y2="201.95"/>
      <path class="cls-18"
            d="M888.3,207.42a.91.91,0,0,0-.49.15,1.37,1.37,0,0,0-2.66,0,.91.91,0,1,0-.49,1.68h3.65a.91.91,0,1,0,0-1.83Z"/>
      <path class="cls-18" d="M866.38,204.68c0-1.83-.46-5.48-1.83-5.48s-1.83,3.65-1.83,5.48a1.83,1.83,0,0,0,3.65,0Z"/>
      <line class="cls-18" x1="864.56" y1="206.51" x2="864.56" y2="209.25"/>
      <line class="cls-18" x1="871.86" y1="201.95" x2="880.08" y2="201.95"/>
      <line class="cls-18" x1="875.97" y1="198.97" x2="875.97" y2="198.97"/>
      <g class="cls-19">
        <polyline class="cls-20" points="651.67 204.7 651.67 166.07 670.98 166.07 670.98 204.7"/>
        <polyline class="cls-20" points="650.18 209.16 650.18 207.67 670.98 207.67"/>
        <polyline class="cls-20" points="639.78 189.84 639.78 174.98 648.7 174.98"/>
        <polyline class="cls-20" points="682.87 207.67 682.87 174.98 673.96 174.98"/>
        <polyline class="cls-20" points="644.24 189.84 644.24 188.35 647.21 188.35 647.21 192.81"/>
        <rect class="cls-20" x="675.44" y="188.35" width="2.97" height="4.46"/>
        <rect class="cls-20" x="675.44" y="179.44" width="2.97" height="4.46"/>
        <rect class="cls-20" x="644.24" y="179.44" width="2.97" height="4.46"/>
        <rect class="cls-20" x="675.44" y="197.27" width="2.97" height="4.46"/>
        <rect class="cls-20" x="663.55" y="188.35" width="2.97" height="4.46"/>
        <rect class="cls-20" x="663.55" y="179.44" width="2.97" height="4.46"/>
        <rect class="cls-20" x="656.12" y="188.35" width="2.97" height="4.46"/>
        <rect class="cls-20" x="656.12" y="179.44" width="2.97" height="4.46"/>
        <rect class="cls-20" x="663.55" y="170.52" width="2.97" height="4.46"/>
        <rect class="cls-20" x="656.12" y="170.52" width="2.97" height="4.46"/>
        <line class="cls-20" x1="665.04" y1="204.7" x2="665.04" y2="197.27"/>
        <line class="cls-20" x1="657.61" y1="204.7" x2="657.61" y2="197.27"/>
        <path class="cls-20"
              d="M681.38,206.18a1.48,1.48,0,0,0-.81.24,2.22,2.22,0,0,0-4.33,0,1.48,1.48,0,1,0-.81,2.73h5.94a1.49,1.49,0,1,0,0-3Z"/>
        <path class="cls-20" d="M645.72,201.73c0-3-.74-8.91-3-8.91s-3,5.94-3,8.91a3,3,0,0,0,5.94,0Z"/>
        <line class="cls-20" x1="642.75" y1="204.7" x2="642.75" y2="209.16"/>
        <line class="cls-20" x1="654.64" y1="197.27" x2="668.01" y2="197.27"/>
        <line class="cls-20" x1="661.33" y1="201.73" x2="661.33" y2="201.73"/>
      </g>
    </g>
    <g id="icons">
      <circle class="cls-21" cx="379.9" cy="81.83" r="64"/>
      <circle class="cls-21" cx="1056.57" cy="75.96" r="64"/>
      <circle class="cls-21" cx="537.6" cy="84.87" r="64"/>
      <circle class="cls-21" cx="902.4" cy="75.35" r="64"/>
      <circle class="cls-21" cx="717.05" cy="81.72" r="64"/>
      <rect class="cls-22" x="339.9" y="54.65" width="80" height="64.17" rx="2.83" ry="2.83"/>
      <circle class="cls-23" cx="379.9" cy="86.74" r="17.42"/>
      <polygon class="cls-22"
               points="399.48 54.65 393.48 54.65 393.48 44.99 366.32 44.99 366.32 54.65 360.32 54.65 360.32 38.83 399.48 38.83 399.48 54.65"/>
      <rect class="cls-24" x="403.98" y="118.83" width="4.96"/>
      <rect class="cls-24" x="350.86" y="118.83" width="4.96"/>
      <rect class="cls-25" x="403.98" y="54.65" width="4.96" height="64.17"/>
      <rect class="cls-25" x="350.86" y="54.65" width="4.96" height="64.17"/>
      <polygon class="cls-21"
               points="393.32 84.11 382.52 84.11 382.52 73.32 377.27 73.32 377.27 84.11 366.48 84.11 366.48 89.37 377.27 89.37 377.27 100.16 382.52 100.16 382.52 89.37 393.32 89.37 393.32 84.11"/>
      <rect class="cls-22" x="1038.84" y="35.04" width="35.46" height="81.83" rx="3.54" ry="3.54"
            transform="translate(363.17 -724.85) rotate(45)"/>
      <rect class="cls-26" x="1044.2" y="64.88" width="24.73" height="22.16" rx="1.96" ry="1.96"
            transform="translate(363.17 -724.86) rotate(45)"/>
      <path class="cls-27" d="M1075.5,71.95a2,2,0,1,1,1.42-.59A2,2,0,0,1,1075.5,71.95Z"/>
      <path class="cls-27" d="M1069,65.5a2,2,0,1,1,1.42-.59A2,2,0,0,1,1069,65.5Z"/>
      <path class="cls-27" d="M1062.59,59a2,2,0,1,1,1.42-.59A2,2,0,0,1,1062.59,59Z"/>
      <path class="cls-27" d="M1081.13,66.32a2,2,0,1,1,1.42-.59A2,2,0,0,1,1081.13,66.32Z"/>
      <path class="cls-27" d="M1074.68,59.86a2,2,0,1,1,1.42-.59A2,2,0,0,1,1074.68,59.86Z"/>
      <path class="cls-27" d="M1068.22,53.41a2,2,0,1,1,1.42-.59A2,2,0,0,1,1068.22,53.41Z"/>
      <path class="cls-27" d="M1086.77,60.68a2,2,0,1,1,1.42-.59A2,2,0,0,1,1086.77,60.68Z"/>
      <path class="cls-27" d="M1080.31,54.23a2,2,0,1,1,1.42-.59A2,2,0,0,1,1080.31,54.23Z"/>
      <path class="cls-27" d="M1073.86,47.77a2,2,0,1,1,1.42-.59A2,2,0,0,1,1073.86,47.77Z"/>
      <path class="cls-27" d="M1039.29,108.16a2,2,0,1,1,1.42-.59A2,2,0,0,1,1039.29,108.16Z"/>
      <path class="cls-27" d="M1032.83,101.71a2,2,0,1,1,1.42-.59A2,2,0,0,1,1032.83,101.71Z"/>
      <path class="cls-27" d="M1026.38,95.25a2,2,0,1,1,1.42-.59A2,2,0,0,1,1026.38,95.25Z"/>
      <path class="cls-27" d="M1044.92,102.53a2,2,0,1,1,1.42-.59A2,2,0,0,1,1044.92,102.53Z"/>
      <path class="cls-27" d="M1038.47,96.07a2,2,0,1,1,1.42-.59A2,2,0,0,1,1038.47,96.07Z"/>
      <path class="cls-27" d="M1032,89.62a2,2,0,1,1,1.42-.59A2,2,0,0,1,1032,89.62Z"/>
      <path class="cls-27" d="M1050.56,96.89a2,2,0,1,1,1.42-.59A2,2,0,0,1,1050.56,96.89Z"/>
      <path class="cls-27" d="M1044.1,90.44a2,2,0,1,1,1.42-.59A2,2,0,0,1,1044.1,90.44Z"/>
      <path class="cls-27" d="M1037.65,84a2,2,0,1,1,1.42-.59A2,2,0,0,1,1037.65,84Z"/>
      <path class="cls-23"
            d="M553.6,58.89a17.27,17.27,0,0,0-11,2.62,9.67,9.67,0,0,1-10,0,17.27,17.27,0,0,0-11-2.62c-10.14,1.29-19.21,14.49-12.31,26.27l0,0a31.66,31.66,0,0,1,4,11.21l3.88,25a4.14,4.14,0,0,0,4.14,3.44h0c2.43,0,3.71-1.93,4.18-4.33l.81-5.56c.63-4.3.94-8.64,1.33-13,.5-5.49,3.16-9.87,9.23-10.18,6.69-.34,10.06,4.08,10.67,10,.48,4.63.82,9.28,1.46,13.89l.67,4.84c.52,2.54,1.74,4.33,4.18,4.33h0a4.14,4.14,0,0,0,4.14-3.44l3.88-25.06a31.5,31.5,0,0,1,4-11.18l0,0C572.81,73.38,563.74,60.18,553.6,58.89Z"/>
      <path class="cls-28"
            d="M551.51,68.74c0,7.41-2.82,10-10.94,10,8.12,0,10.94,2.57,10.94,10,0-7.41,2.82-10,10.94-10C554.33,78.72,551.51,76.15,551.51,68.74Z"/>
      <path class="cls-29"
            d="M895.68,118.83a9.23,9.23,0,0,1-9.22-9.22v-2.49a2.5,2.5,0,0,1,5,0v2.49a4.22,4.22,0,0,0,8.44,0V32.37a2.5,2.5,0,1,1,5,0v77.25A9.23,9.23,0,0,1,895.68,118.83Z"/>
      <path class="cls-22"
            d="M872.3,70.42a13.24,13.24,0,0,1,20.07,0,13.24,13.24,0,0,1,20.07,0,13.24,13.24,0,0,1,20.07,0,13.22,13.22,0,0,1,14.2-3.92,46.44,46.44,0,0,0-88.61,0,13.22,13.22,0,0,1,14.2,3.92Z"/>
      <path class="cls-29" d="M873.71,62.41h.47l-.23-.27Z"/>
      <path class="cls-29" d="M892.07,62.41h.47l-.23-.27Z"/>
      <path class="cls-29" d="M910.43,62.41h.47l-.23-.27Z"/>
      <path class="cls-29" d="M928.79,62.41h.47l-.23-.27Z"/>
      <path class="cls-30"
            d="M762.37,66.13a1.58,1.58,0,0,0-1.58-1.48c-11.32-.61-76.16-.61-87.48,0a1.58,1.58,0,0,0-1.58,1.48l-.17,5.65a1.49,1.49,0,0,0,.65,1.3c.91.6,2.4,3.89,2.24,8h0c0,.5-.07,1-.07,1.53,0,10.47,8.49,20.64,19,20.64s21.47-10.16,21.47-20.64c0-.24,0-.47,0-.71a4,4,0,0,1,2-.77,4.06,4.06,0,0,1,2.48.85c0,.21,0,.42,0,.63,0,10.47,11,20.64,21.47,20.64s19-10.16,19-20.64c0-.51,0-1-.07-1.52-.16-4.14,1.33-7.43,2.24-8a1.49,1.49,0,0,0,.65-1.3ZM720.14,77.64a7.5,7.5,0,0,0-3.57-.68,7.67,7.67,0,0,0-2.63.64,19.18,19.18,0,0,0-5.17-7.69h16.55A19.16,19.16,0,0,0,720.14,77.64Z"/>
      <path class="cls-26"
            d="M740.77,98.23c-7.84,0-16.44-8.17-16.44-15.61,0-7.72,9-13.93,16.44-13.93A14,14,0,0,1,754.7,82.62C754.7,90.79,748.06,98.23,740.77,98.23Z"/>
      <path class="cls-26"
            d="M693.33,98.23c7.84,0,16.44-8.17,16.44-15.61,0-7.72-9-13.93-16.44-13.93A14,14,0,0,0,679.4,82.62C679.4,90.79,686,98.23,693.33,98.23Z"/>
    </g>
  </g>
</svg>
