<svg xmlns="http://www.w3.org/2000/svg" xmlns:xlink="http://www.w3.org/1999/xlink" viewBox="0 0 292.44 122.9" width="292" height="123" preserveAspectRatio="xMinYMid"><defs><style>.cls-1,.cls-12,.cls-19,.cls-2,.cls-21,.cls-3,.cls-4,.cls-7{fill:none;}.cls-11,.cls-2,.cls-3,.cls-4,.cls-6,.cls-7{stroke:#4fb8ec;}.cls-2,.cls-3,.cls-4{stroke-linecap:round;stroke-linejoin:round;}.cls-15,.cls-2,.cls-4{stroke-width:1.08px;}.cls-2,.cls-4{stroke-dasharray:4.01;}.cls-2{opacity:0.17;}.cls-3{stroke-dasharray:4;}.cls-5{fill:#dedede;}.cls-11,.cls-6{fill:#d9e7ec;}.cls-11,.cls-12,.cls-15,.cls-16,.cls-19,.cls-21,.cls-6,.cls-7{stroke-miterlimit:10;}.cls-6,.cls-7{stroke-width:1.8px;}.cls-8{fill:#4fb8ec;}.cls-9{fill:#515151;}.cls-10{fill:#868686;}.cls-11,.cls-16{stroke-width:0.72px;}.cls-12{stroke:#939393;stroke-width:0.31px;}.cls-13{fill:#48aed5;}.cls-14,.cls-15,.cls-16{fill:#fff;}.cls-15{stroke:#257cbb;}.cls-16{stroke:#257cbc;}.cls-17{fill:#454f55;}.cls-18{clip-path:url(#clip-path);}.cls-19{stroke:#eee;}.cls-19,.cls-21{stroke-width:0.36px;}.cls-20{fill:#8cbdb6;}.cls-21{stroke:#454f55;}</style><clipPath id="clip-path"><circle class="cls-1" cx="270.24" cy="90.04" r="20.64"/></clipPath></defs><title>carrier-process</title><g id="Layer_2" data-name="Layer 2"><g id="sidebar"><path class="cls-2" d="M140.66,11.57"/><path class="cls-2" d="M151.17,82.11"/><line class="cls-3" x1="214.37" y1="54.69" x2="68.37" y2="54.69"/><line class="cls-4" x1="251.47" y1="91.13" x2="214.3" y2="56.04"/><line class="cls-4" x1="251.47" y1="19.51" x2="214.3" y2="54.59"/><circle class="cls-5" cx="144.31" cy="57.38" r="46.16"/><circle class="cls-6" cx="140.82" cy="54.71" r="45.39"/><path class="cls-7" d="M96.79,65.31a45.47,45.47,0,0,1,21.09-50.25"/><polygon class="cls-8" points="129.64 10.23 116.11 24.05 117.1 15.65 110.3 10.62 129.64 10.23"/><path class="cls-7" d="M184.85,43.5a45.47,45.47,0,0,1-21.09,50.25"/><polygon class="cls-8" points="151.99 98.58 165.53 84.76 164.53 93.16 171.34 98.19 151.99 98.58"/><path class="cls-9" d="M118,54a4.5,4.5,0,0,1-4.39,4.78c-1.5,0-2.74-.88-2.81-1.63v1.5h-2V46.11h2v4.48a3.08,3.08,0,0,1,2.81-1.36A4.52,4.52,0,0,1,118,54Zm-2,0a2.83,2.83,0,0,0-2.71-3.06c-1.27,0-2.62.86-2.62,3.06s1.34,3.08,2.62,3.08A2.84,2.84,0,0,0,116,54Z"/><path class="cls-9" d="M128.36,54a4.84,4.84,0,0,1-.05.73h-7.13a2.68,2.68,0,0,0,2.63,2.31,2.75,2.75,0,0,0,2.08-.84l1.67.9a5,5,0,0,1-3.74,1.67,4.78,4.78,0,0,1,0-9.55A4.64,4.64,0,0,1,128.36,54Zm-7.17-.77h5.18a2.63,2.63,0,0,0-2.6-2.29A2.6,2.6,0,0,0,121.19,53.24Z"/><path class="cls-9" d="M138.27,53.33v5.32h-2V53.43c0-1.81-.86-2.49-2.06-2.49a3.09,3.09,0,0,0-2.74,2.4v5.3h-2V49.33h2v2a2.94,2.94,0,0,1,2.92-2.08C136.47,49.24,138.27,50.42,138.27,53.33Z"/><path class="cls-10" d="M146,49.3v1.83a5.57,5.57,0,0,0-.79,0,3.36,3.36,0,0,0-3.35,3.17v4.39h-2V49.33h2v2.92a3.28,3.28,0,0,1,3.37-3A4.89,4.89,0,0,1,146,49.3Z"/><path class="cls-10" d="M155.38,54a4.84,4.84,0,0,1-.05.73h-7.13a2.68,2.68,0,0,0,2.63,2.31,2.75,2.75,0,0,0,2.08-.84l1.67.9a5,5,0,0,1-3.74,1.67,4.78,4.78,0,0,1,0-9.55A4.64,4.64,0,0,1,155.38,54Zm-7.17-.77h5.18a2.63,2.63,0,0,0-2.6-2.29A2.6,2.6,0,0,0,148.21,53.24Z"/><path class="cls-10" d="M159.73,58.65h-.32l-4.57-9.32h2.08l2.65,6,2.65-6h2.08Z"/><circle class="cls-11" cx="168.32" cy="54.06" r="3.27"/><path class="cls-12" d="M173.71,54.23a37.67,37.67,0,0,1,.12,5c0,2.2,0,3.54-.05,4.41"/><path class="cls-13" d="M165.05,50.74a4.65,4.65,0,1,0,6.58,0A4.65,4.65,0,0,0,165.05,50.74Zm5.59,5.59a3.25,3.25,0,1,1,0-4.6A3.25,3.25,0,0,1,170.64,56.33Z"/><path class="cls-13" d="M173.59,53.08h0c-.44-.07-.79-.47-1.11-1.18l.33,2.15-.31,2.09c.35-.68.58-1,1-1.1h0a1,1,0,0,0,.11-2Zm.23,1.26a.42.42,0,1,1,0-.6.42.42,0,0,1,0,.6"/><path class="cls-12" d="M173.78,63.67a4.35,4.35,0,0,1-.1.62c-.08.31-.58-2.28-.58-5.09s.48-5.39.58-5.09l0,.11"/><path class="cls-14" d="M166.65,52.58a4.5,4.5,0,0,1,1.57-1.34,2.81,2.81,0,0,0-2.46,4A4.32,4.32,0,0,1,166.65,52.58Z"/><circle class="cls-8" cx="68.27" cy="54.6" r="2.98"/><circle class="cls-5" cx="37.4" cy="56.83" r="33.75"/><circle class="cls-15" cx="34.29" cy="54.28" r="33.75"/><polyline class="cls-16" points="30.52 35.88 50.12 35.88 50.12 67.9"/><polyline class="cls-16" points="12.43 75.07 21.47 75.07 21.47 35.88 27.5 35.88"/><polyline class="cls-16" points="47.1 69.04 47.1 38.89 24.49 38.89 24.49 75.07 48.61 75.07"/><line class="cls-16" x1="29.01" y1="38.89" x2="29.01" y2="75.07"/><line class="cls-16" x1="33.53" y1="38.89" x2="33.53" y2="75.07"/><line class="cls-16" x1="38.06" y1="38.89" x2="38.06" y2="75.07"/><line class="cls-16" x1="42.58" y1="38.89" x2="42.58" y2="75.07"/><line class="cls-16" x1="24.49" y1="44.92" x2="47.1" y2="44.92"/><line class="cls-16" x1="24.49" y1="50.95" x2="47.1" y2="50.95"/><line class="cls-16" x1="24.49" y1="56.98" x2="47.1" y2="56.98"/><line class="cls-16" x1="24.49" y1="63.01" x2="47.1" y2="63.01"/><line class="cls-16" x1="24.49" y1="69.04" x2="47.1" y2="69.04"/><polyline class="cls-16" points="44.09 35.88 44.09 32.86 38.06 32.86 38.06 31.35 33.53 31.35 33.53 32.86 27.5 32.86 27.5 35.88"/><path class="cls-16" d="M54.64,72.06a1.5,1.5,0,0,0-.82.24,2.26,2.26,0,0,0-4.4,0,1.51,1.51,0,1,0-.82,2.77h6a1.51,1.51,0,1,0,0-3Z"/><path class="cls-16" d="M18.46,67.54c0-3-.75-9-3-9s-3,6-3,9a3,3,0,1,0,6,0Z"/><line class="cls-16" x1="15.44" y1="70.55" x2="15.44" y2="75.07"/><path class="cls-17" d="M1.9,96.26v5.5H1v-5.5Z"/><path class="cls-17" d="M7.29,99.16v2.6h-.9V99.41a.93.93,0,0,0-1-1,1.17,1.17,0,0,0-1.19,1.14v2.22h-.9V97.58h.9v.8a1.58,1.58,0,0,1,1.54-.83A1.46,1.46,0,0,1,7.29,99.16Z"/><path class="cls-17" d="M9.67,98.26c-.35,0-.61.12-.61.42,0,.77,2.22.35,2.22,1.87,0,.86-.76,1.24-1.6,1.24A2.58,2.58,0,0,1,8,101.21l.32-.64a2.28,2.28,0,0,0,1.4.52c.39,0,.68-.13.68-.45,0-.86-2.2-.38-2.19-1.89,0-.85.74-1.21,1.54-1.21A2.64,2.64,0,0,1,11.2,98l-.33.67A2.46,2.46,0,0,0,9.67,98.26Z"/><path class="cls-17" d="M16,97.58v4.18h-.9v-.82a1.54,1.54,0,0,1-1.49.85A1.45,1.45,0,0,1,12,100.18v-2.6H13v2.35a.92.92,0,0,0,1,1,1.18,1.18,0,0,0,1.15-1.3V97.58Z"/><path class="cls-17" d="M19.66,97.55v.86a1.27,1.27,0,0,0-1.45,1.16v2.18h-.9V97.58h.9v.83A1.52,1.52,0,0,1,19.66,97.55Z"/><path class="cls-17" d="M22.75,101.76v-.51a1.7,1.7,0,0,1-1.38.55,1.32,1.32,0,0,1-1.47-1.3c0-.76.57-1.25,1.58-1.26h1.27v-.13c0-.53-.34-.84-1-.84a2.2,2.2,0,0,0-1.23.42l-.37-.63a3.06,3.06,0,0,1,1.8-.53c1.08,0,1.68.55,1.69,1.47v2.74Zm0-1.47V99.9H21.61c-.59,0-.86.16-.86.56s.31.62.81.62S22.69,100.74,22.74,100.29Z"/><path class="cls-17" d="M28.84,99.16v2.6h-.9V99.41a.93.93,0,0,0-1-1,1.17,1.17,0,0,0-1.19,1.14v2.22h-.9V97.58h.9v.8a1.58,1.58,0,0,1,1.54-.83A1.46,1.46,0,0,1,28.84,99.16Z"/><path class="cls-17" d="M31.8,98.34a1.34,1.34,0,0,0,0,2.67,1.56,1.56,0,0,0,1.23-.5l.5.5a2.13,2.13,0,0,1-1.78.78,2.12,2.12,0,0,1,0-4.24,2.21,2.21,0,0,1,1.73.68l-.5.58A1.58,1.58,0,0,0,31.8,98.34Z"/><path class="cls-17" d="M38,100H34.83a1.27,1.27,0,0,0,1.3,1,1.62,1.62,0,0,0,1.18-.49l.48.51a2.28,2.28,0,0,1-1.73.71,2.12,2.12,0,1,1,0-4.24C37.5,97.55,38.1,98.5,38,100Zm-.79-.66A1.07,1.07,0,0,0,36,98.27a1.18,1.18,0,0,0-1.23,1.08Z"/><path class="cls-17" d="M43.79,97.06a1.94,1.94,0,1,0,0,3.87,2.27,2.27,0,0,0,1.53-.65l.55.61a3.12,3.12,0,0,1-2.13.9,2.78,2.78,0,1,1,0-5.56,3,3,0,0,1,2.09.85l-.54.68A2.15,2.15,0,0,0,43.79,97.06Z"/><path class="cls-17" d="M49.26,101.76v-.51a1.7,1.7,0,0,1-1.38.55,1.32,1.32,0,0,1-1.47-1.3c0-.76.57-1.25,1.58-1.26h1.27v-.13c0-.53-.34-.84-1-.84A2.2,2.2,0,0,0,47,98.7l-.37-.63a3.06,3.06,0,0,1,1.8-.53c1.08,0,1.68.55,1.69,1.47v2.74Zm0-1.47V99.9H48.12c-.59,0-.86.16-.86.56s.31.62.81.62S49.21,100.74,49.26,100.29Z"/><path class="cls-17" d="M53.71,97.55v.86a1.27,1.27,0,0,0-1.45,1.16v2.18h-.9V97.58h.9v.83A1.52,1.52,0,0,1,53.71,97.55Z"/><path class="cls-17" d="M56.8,97.55v.86a1.27,1.27,0,0,0-1.45,1.16v2.18h-.9V97.58h.9v.83A1.52,1.52,0,0,1,56.8,97.55Z"/><path class="cls-17" d="M58.52,96.38a.53.53,0,1,1-.53-.54A.52.52,0,0,1,58.52,96.38Zm-.08,1.19v4.18h-.9V97.58Z"/><path class="cls-17" d="M63.45,100H60.29a1.27,1.27,0,0,0,1.3,1,1.62,1.62,0,0,0,1.18-.49l.48.51a2.28,2.28,0,0,1-1.73.71,2.12,2.12,0,1,1,0-4.24C63,97.55,63.56,98.5,63.45,100Zm-.79-.66a1.07,1.07,0,0,0-1.16-1.08,1.18,1.18,0,0,0-1.23,1.08Z"/><path class="cls-17" d="M66.74,97.55v.86a1.27,1.27,0,0,0-1.45,1.16v2.18h-.9V97.58h.9v.83A1.52,1.52,0,0,1,66.74,97.55Z"/><path class="cls-17" d="M261.24,118.75a1.22,1.22,0,0,1-1,1.23,1.33,1.33,0,0,1,1.18,1.39c0,.94-.76,1.51-2,1.51H257v-5.5h2.39C260.53,117.37,261.24,117.89,261.24,118.75Zm-1,.17c0-.46-.35-.72-.94-.71h-1.41v1.45h1.41C259.93,119.65,260.29,119.38,260.29,118.91Zm.21,2.33c0-.49-.43-.79-1.16-.78h-1.41V122h1.41C260.07,122,260.5,121.76,260.5,121.25Z"/><path class="cls-17" d="M264.84,118.66v.86a1.27,1.27,0,0,0-1.45,1.16v2.18h-.9v-4.18h.9v.83A1.52,1.52,0,0,1,264.84,118.66Z"/><path class="cls-17" d="M269.55,120.77a2.18,2.18,0,1,1-2.18-2.11A2.05,2.05,0,0,1,269.55,120.77Zm-3.46,0a1.28,1.28,0,1,0,1.28-1.36A1.26,1.26,0,0,0,266.1,120.79Z"/><path class="cls-17" d="M272.14,121l-.71.75v1.17h-.9V117h.9v3.52l1.85-1.87h1l-1.55,1.62,1.67,2.56h-1.07Z"/><path class="cls-17" d="M278.65,121.13h-3.16a1.27,1.27,0,0,0,1.3,1,1.62,1.62,0,0,0,1.18-.49l.48.51a2.28,2.28,0,0,1-1.73.71,2.12,2.12,0,1,1,0-4.24C278.16,118.66,278.76,119.62,278.65,121.13Zm-.79-.66a1.07,1.07,0,0,0-1.16-1.08,1.18,1.18,0,0,0-1.23,1.08Z"/><path class="cls-17" d="M281.94,118.66v.86a1.27,1.27,0,0,0-1.45,1.16v2.18h-.9v-4.18h.9v.83A1.52,1.52,0,0,1,281.94,118.66Z"/><path class="cls-17" d="M283.86,119.38c-.35,0-.61.12-.61.42,0,.77,2.22.35,2.22,1.87,0,.86-.76,1.24-1.6,1.24a2.58,2.58,0,0,1-1.68-.58l.32-.64a2.28,2.28,0,0,0,1.4.52c.39,0,.68-.13.68-.45,0-.86-2.2-.38-2.19-1.89,0-.85.74-1.21,1.54-1.21a2.64,2.64,0,0,1,1.46.42l-.33.67A2.46,2.46,0,0,0,283.86,119.38Z"/><circle class="cls-5" cx="271.81" cy="91.92" r="20.64"/><circle class="cls-17" cx="270.55" cy="90.04" r="20.64"/><g class="cls-18"><path class="cls-19" d="M260.4,94.4v-.92c0-2.77-3.5-1.38-3.5-1.38a1.31,1.31,0,0,0-1.29,1.38v.92s-.37.21-.37.46v.92a.42.42,0,0,0,.41.46A2.85,2.85,0,0,0,258.06,99c1.27,0,2.27-1.49,2.27-2.77a.43.43,0,0,0,.43-.46v-.92C260.76,94.61,260.72,94.4,260.4,94.4Z"/><path class="cls-19" d="M253.39,102.29v-.51c0-1.27.89-1.89,2.16-1.89h.69L257,98.8"/><path class="cls-19" d="M263,102.29v-.51c0-1.27-1-1.89-2.32-1.89H260l-.72-1.16"/><polygon class="cls-19" points="258.08 100.86 257.16 101.78 256.24 99.89 258.08 100.86"/><polygon class="cls-19" points="258.08 100.86 259.01 101.78 259.97 99.89 258.08 100.86"/><path class="cls-19" d="M275.15,90.45v-2c0-6.14-7.78-3.07-7.78-3.07a2.9,2.9,0,0,0-2.87,3.07v2s-.82.46-.82,1v2a.93.93,0,0,0,.9,1c0,2.83,2.56,6.14,5.38,6.14s5-3.31,5-6.14a1,1,0,0,0,.95-1v-2C276,90.9,275.87,90.45,275.15,90.45Z"/><path class="cls-19" d="M259.59,107.94v-1.13c0-2.83,2-4.2,4.8-4.2h1.53l1.67-2.41"/><path class="cls-19" d="M280.88,107.94v-1.13c0-2.83-2.32-4.2-5.14-4.2H274.2l-1.61-2.57"/><polygon class="cls-19" points="270.02 104.77 267.98 106.82 265.93 102.62 270.02 104.77"/><polygon class="cls-19" points="270.02 104.77 272.07 106.82 274.2 102.62 270.02 104.77"/><path class="cls-19" d="M285.91,91.75V90.5c0-3.75-4.75-1.88-4.75-1.88a1.77,1.77,0,0,0-1.75,1.88v1.25s-.5.28-.5.63v1.25a.57.57,0,0,0,.55.63C279.46,96,281,98,282.75,98s3.08-2,3.08-3.75a.59.59,0,0,0,.58-.63V92.37C286.41,92,286.35,91.75,285.91,91.75Z"/><path class="cls-19" d="M276.41,102.44v-.69c0-1.73,1.21-2.56,2.93-2.56h.94l1-1.47"/><path class="cls-19" d="M289.41,102.44v-.69c0-1.73-1.42-2.56-3.14-2.56h-.94l-1-1.57"/><polygon class="cls-19" points="282.78 100.5 281.53 101.75 280.28 99.19 282.78 100.5"/><polygon class="cls-19" points="282.78 100.5 284.03 101.75 285.33 99.19 282.78 100.5"/></g><path class="cls-17" d="M255.06,48.87v.83h-3V51.2h2.69V52h-2.69v1.52h3.1v.83h-4v-5.5Z"/><path class="cls-17" d="M263.21,51.77v2.6h-.9V52a.93.93,0,0,0-1-1,1.19,1.19,0,0,0-1.15,1.3v2.07h-.9V52a.92.92,0,0,0-1-1,1.2,1.2,0,0,0-1.16,1.3v2.07h-.9V50.19h.9V51a1.54,1.54,0,0,1,1.52-.84,1.4,1.4,0,0,1,1.45,1,1.54,1.54,0,0,1,1.59-1A1.45,1.45,0,0,1,263.21,51.77Z"/><path class="cls-17" d="M268.82,52.3a1.94,1.94,0,0,1-2,2.11,1.64,1.64,0,0,1-1.48-.75V55.9h-.9V50.19h.9v.72a1.63,1.63,0,0,1,1.46-.75A2,2,0,0,1,268.82,52.3Zm-.91,0a1.28,1.28,0,1,0-1.27,1.37A1.27,1.27,0,0,0,267.91,52.27Z"/><path class="cls-17" d="M270.7,48.54v5.83h-.9V48.54Z"/><path class="cls-17" d="M276,52.28a2.18,2.18,0,1,1-2.18-2.11A2.05,2.05,0,0,1,276,52.28Zm-3.46,0a1.28,1.28,0,1,0,1.28-1.36A1.26,1.26,0,0,0,272.58,52.29Z"/><path class="cls-17" d="M277.11,55.94a1.41,1.41,0,0,1-1-.35l.38-.7a.88.88,0,0,0,.54.2.68.68,0,0,0,.64-.46l.14-.31-1.73-4.12h.93l1.25,3.17,1.16-3.17h.9l-1.9,4.75A1.4,1.4,0,0,1,277.11,55.94Z"/><path class="cls-17" d="M284.52,52.63h-3.16a1.27,1.27,0,0,0,1.3,1,1.62,1.62,0,0,0,1.18-.49l.48.51a2.28,2.28,0,0,1-1.73.71,2.12,2.12,0,1,1,0-4.24C284,50.16,284.63,51.12,284.52,52.63Zm-.79-.66a1.07,1.07,0,0,0-1.16-1.08A1.18,1.18,0,0,0,281.34,52Z"/><path class="cls-17" d="M287.8,50.16V51a1.27,1.27,0,0,0-1.45,1.16v2.18h-.9V50.19h.9V51A1.52,1.52,0,0,1,287.8,50.16Z"/><path class="cls-17" d="M289.73,50.88c-.35,0-.61.12-.61.42,0,.77,2.22.35,2.22,1.87,0,.86-.76,1.24-1.6,1.24a2.58,2.58,0,0,1-1.68-.58l.32-.64a2.28,2.28,0,0,0,1.4.52c.39,0,.68-.13.68-.45,0-.86-2.2-.38-2.19-1.89,0-.85.74-1.21,1.54-1.21a2.64,2.64,0,0,1,1.46.42l-.33.67A2.46,2.46,0,0,0,289.73,50.88Z"/><circle class="cls-5" cx="271.81" cy="21.89" r="20.64"/><circle class="cls-20" cx="270.24" cy="20.64" r="20.64"/><path class="cls-21" d="M275.59,16.67V14.29c0-7.14-8.33-3.57-8.33-3.57a3.57,3.57,0,0,0-3.57,3.57v2.38s-1.19.53-1.19,1.19v2.38a1.31,1.31,0,0,0,1.32,1.19c0,3.29,2.73,7.14,6,7.14s5.85-3.85,5.85-7.14a1.11,1.11,0,0,0,1.09-1.19V17.86C276.79,17.2,276.79,16.67,275.59,16.67Z"/><path class="cls-21" d="M257.73,36.91V35.72c0-3.29,2.33-5.36,5.62-5.36h1.79l1.93-2.63"/><path class="cls-21" d="M282.74,36.91V35.72c0-3.29-2.9-5.36-6.19-5.36h-1.79L273,27.55"/><polyline class="cls-21" points="265.14 30.36 269.9 33.34 274.76 30.36"/><circle class="cls-8" cx="249.52" cy="21.83" r="2.98"/><circle class="cls-8" cx="249.46" cy="90.55" r="2.98"/></g></g></svg>
