<svg xmlns="http://www.w3.org/2000/svg" viewBox="0 0 17 13" preserveAspectRatio="xMinYMid">
  <defs>
    <style>.cls-1{opacity:0.5;}.cls-2{fill:#fff;fill-rule:evenodd;}</style>
  </defs>
  <title>Asset 3</title>
  <g id="Layer_2" data-name="Layer 2">
    <g id="hero">
      <g id="Cloud" class="cls-1">
        <path class="cls-2"
              d="M14.83,5.34c0-.15,0-.3,0-.45A4.83,4.83,0,0,0,10.09,0,4.77,4.77,0,0,0,5.77,2.8,3.37,3.37,0,0,0,5,2.71,3.49,3.49,0,0,0,1.59,6.24a3.6,3.6,0,0,0,.07.69A3.26,3.26,0,0,0,3.19,13H13A4,4,0,0,0,17,9,4.08,4.08,0,0,0,14.83,5.34Z"/>
      </g>
    </g>
  </g>
</svg>
