<svg xmlns="http://www.w3.org/2000/svg" viewBox="0 0 1052.85 210.65"
     width="1053" height="211" preserveAspectRatio="xMinYMid">
  <defs>
    <style>
      .cls-1,.cls-10,.cls-11,.cls-12,.cls-13,.cls-14,.cls-16,.cls-17,.cls-2,.cls-3,.cls-4,.cls-6,.cls-7,.cls-9{fill:none;}.cls-2,.cls-3,.cls-4{stroke:#547b93;}.cls-10,.cls-11,.cls-12,.cls-13,.cls-14,.cls-16,.cls-17,.cls-2,.cls-3,.cls-4,.cls-6,.cls-7,.cls-9{stroke-miterlimit:10;}.cls-2{stroke-width:0.89px;}.cls-3{stroke-width:0.66px;}.cls-4{stroke-width:0.46px;}.cls-5{fill:#ededed;}.cls-10,.cls-11,.cls-12,.cls-13,.cls-14,.cls-16,.cls-17,.cls-6,.cls-7,.cls-9{stroke:#257cbc;}.cls-6{stroke-width:2px;}.cls-7{stroke-width:1.92px;}.cls-8{opacity:0.33;}.cls-10{stroke-width:0.86px;}.cls-11,.cls-16{stroke-width:0.5px;}.cls-12{stroke-width:0.43px;}.cls-13{stroke-width:0.26px;}.cls-14{stroke-width:1.5px;}.cls-15{clip-path:url(#clip-path);}.cls-16{stroke-dasharray:4;}.cls-17{stroke-width:0.33px;stroke-dasharray:2.62;opacity:0.56;}
    </style>
    <clipPath id="clip-path">
      <rect class="cls-1" x="692.91" y="145.9" width="90" height="65"/>
    </clipPath>
  </defs>
  <title>common-main</title>
  <g id="Layer_2" data-name="Layer 2">
    <g id="SCENE1">
      <path class="cls-2"
            d="M859.42,170.15H825.16a2.74,2.74,0,0,0-2.74,2.74v12.26a3.1,3.1,0,1,1,6.17.07,3.43,3.43,0,0,1,6.85,0,3.43,3.43,0,0,1,6.85,0,3.43,3.43,0,0,1,6.85,0,3.43,3.43,0,0,1,6.85,0,3.1,3.1,0,1,1,6.17-.07V172.89A2.74,2.74,0,0,0,859.42,170.15Z"/>
      <line class="cls-2" x1="832.01" y1="181.8" x2="832.01" y2="172.89"/>
      <line class="cls-2" x1="825.16" y1="181.8" x2="825.16" y2="172.89"/>
      <line class="cls-2" x1="838.86" y1="181.8" x2="838.86" y2="172.89"/>
      <line class="cls-2" x1="845.71" y1="181.8" x2="845.71" y2="172.89"/>
      <line class="cls-2" x1="852.57" y1="181.8" x2="852.57" y2="172.89"/>
      <line class="cls-2" x1="859.42" y1="181.8" x2="859.42" y2="172.89"/>
      <line class="cls-2" x1="823.79" y1="187.63" x2="823.79" y2="209.9"/>
      <line class="cls-2" x1="860.79" y1="187.63" x2="860.79" y2="209.9"/>
      <polyline class="cls-2" points="856.68 207.15 856.68 190.71 827.9 190.71 827.9 207.15"/>
      <line class="cls-2" x1="852.57" y1="193.45" x2="853.94" y2="194.82"/>
      <line class="cls-2" x1="849.83" y1="194.82" x2="852.57" y2="197.56"/>
      <line class="cls-2" x1="834.75" y1="198.93" x2="834.75" y2="200.3"/>
      <line class="cls-2" x1="847.08" y1="201.67" x2="847.08" y2="209.9"/>
      <line class="cls-2" x1="851.2" y1="201.67" x2="842.97" y2="201.67"/>
      <line class="cls-2" x1="852.57" y1="204.41" x2="852.57" y2="209.9"/>
      <line class="cls-2" x1="853.94" y1="204.41" x2="851.2" y2="204.41"/>
      <line class="cls-2" x1="841.6" y1="204.41" x2="841.6" y2="209.9"/>
      <line class="cls-2" x1="842.97" y1="204.41" x2="840.23" y2="204.41"/>
      <line class="cls-2" x1="837.49" y1="190.71" x2="837.49" y2="207.15"/>
      <line class="cls-2" x1="862.16" y1="209.9" x2="822.42" y2="209.9"/>
      <path class="cls-3"
            d="M928.46,180.62H903.23a2,2,0,0,0-2,2v9a2.28,2.28,0,1,1,4.54.05,2.52,2.52,0,0,1,5,0,2.52,2.52,0,0,1,5,0,2.52,2.52,0,0,1,5,0,2.52,2.52,0,0,1,5,0,2.28,2.28,0,1,1,4.54-.05v-9A2,2,0,0,0,928.46,180.62Z"/>
      <line class="cls-3" x1="908.27" y1="189.2" x2="908.27" y2="182.64"/>
      <line class="cls-3" x1="903.23" y1="189.2" x2="903.23" y2="182.64"/>
      <line class="cls-3" x1="913.32" y1="189.2" x2="913.32" y2="182.64"/>
      <line class="cls-3" x1="918.37" y1="189.2" x2="918.37" y2="182.64"/>
      <line class="cls-3" x1="923.42" y1="189.2" x2="923.42" y2="182.64"/>
      <line class="cls-3" x1="928.46" y1="189.2" x2="928.46" y2="182.64"/>
      <line class="cls-3" x1="902.22" y1="193.49" x2="902.22" y2="209.9"/>
      <line class="cls-3" x1="929.47" y1="193.49" x2="929.47" y2="209.9"/>
      <polyline class="cls-3" points="926.45 207.88 926.45 195.76 905.25 195.76 905.25 207.88"/>
      <line class="cls-3" x1="923.42" y1="197.78" x2="924.43" y2="198.79"/>
      <line class="cls-3" x1="921.4" y1="198.79" x2="923.42" y2="200.81"/>
      <line class="cls-3" x1="910.29" y1="201.82" x2="910.29" y2="202.83"/>
      <line class="cls-3" x1="919.38" y1="203.84" x2="919.38" y2="209.9"/>
      <line class="cls-3" x1="922.41" y1="203.84" x2="916.35" y2="203.84"/>
      <line class="cls-3" x1="923.42" y1="205.86" x2="923.42" y2="209.9"/>
      <line class="cls-3" x1="924.43" y1="205.86" x2="922.41" y2="205.86"/>
      <line class="cls-3" x1="915.34" y1="205.86" x2="915.34" y2="209.9"/>
      <line class="cls-3" x1="916.35" y1="205.86" x2="914.33" y2="205.86"/>
      <line class="cls-3" x1="912.31" y1="195.76" x2="912.31" y2="207.88"/>
      <line class="cls-3" x1="930.48" y1="209.9" x2="901.21" y2="209.9"/>
      <path class="cls-2"
            d="M992.34,170.15H958.08a2.74,2.74,0,0,0-2.74,2.74v12.26a3.1,3.1,0,1,1,6.17.07,3.43,3.43,0,0,1,6.85,0,3.43,3.43,0,0,1,6.85,0,3.43,3.43,0,0,1,6.85,0,3.43,3.43,0,0,1,6.85,0,3.1,3.1,0,1,1,6.17-.07V172.89A2.74,2.74,0,0,0,992.34,170.15Z"/>
      <line class="cls-2" x1="964.93" y1="181.8" x2="964.93" y2="172.89"/>
      <line class="cls-2" x1="958.08" y1="181.8" x2="958.08" y2="172.89"/>
      <line class="cls-2" x1="971.78" y1="181.8" x2="971.78" y2="172.89"/>
      <line class="cls-2" x1="978.63" y1="181.8" x2="978.63" y2="172.89"/>
      <line class="cls-2" x1="985.48" y1="181.8" x2="985.48" y2="172.89"/>
      <line class="cls-2" x1="992.34" y1="181.8" x2="992.34" y2="172.89"/>
      <line class="cls-2" x1="956.71" y1="187.63" x2="956.71" y2="209.9"/>
      <line class="cls-2" x1="993.71" y1="187.63" x2="993.71" y2="209.9"/>
      <polyline class="cls-2" points="989.6 207.15 989.6 190.71 960.82 190.71 960.82 207.15"/>
      <line class="cls-2" x1="985.48" y1="193.45" x2="986.85" y2="194.82"/>
      <line class="cls-2" x1="982.74" y1="194.82" x2="985.48" y2="197.56"/>
      <line class="cls-2" x1="967.67" y1="198.93" x2="967.67" y2="200.3"/>
      <line class="cls-2" x1="980" y1="201.67" x2="980" y2="209.9"/>
      <line class="cls-2" x1="984.11" y1="201.67" x2="975.89" y2="201.67"/>
      <line class="cls-2" x1="985.48" y1="204.41" x2="985.48" y2="209.9"/>
      <line class="cls-2" x1="986.85" y1="204.41" x2="984.11" y2="204.41"/>
      <line class="cls-2" x1="974.52" y1="204.41" x2="974.52" y2="209.9"/>
      <line class="cls-2" x1="975.89" y1="204.41" x2="973.15" y2="204.41"/>
      <line class="cls-2" x1="970.41" y1="190.71" x2="970.41" y2="207.15"/>
      <line class="cls-2" x1="995.08" y1="209.9" x2="955.34" y2="209.9"/>
      <path class="cls-4"
            d="M805.93,189.24H788.12a1.42,1.42,0,0,0-1.42,1.42V197a1.61,1.61,0,1,1,3.21,0,1.78,1.78,0,1,1,3.56,0,1.78,1.78,0,0,1,3.56,0,1.78,1.78,0,1,1,3.56,0,1.78,1.78,0,0,1,3.56,0,1.61,1.61,0,1,1,3.21,0v-6.38A1.42,1.42,0,0,0,805.93,189.24Z"/>
      <line class="cls-4" x1="791.68" y1="195.29" x2="791.68" y2="190.66"/>
      <line class="cls-4" x1="788.12" y1="195.29" x2="788.12" y2="190.66"/>
      <line class="cls-4" x1="795.24" y1="195.29" x2="795.24" y2="190.66"/>
      <line class="cls-4" x1="798.8" y1="195.29" x2="798.8" y2="190.66"/>
      <line class="cls-4" x1="802.36" y1="195.29" x2="802.36" y2="190.66"/>
      <line class="cls-4" x1="805.93" y1="195.29" x2="805.93" y2="190.66"/>
      <line class="cls-4" x1="787.4" y1="198.32" x2="787.4" y2="209.9"/>
      <line class="cls-4" x1="806.64" y1="198.32" x2="806.64" y2="209.9"/>
      <polyline class="cls-4" points="804.5 208.47 804.5 199.92 789.54 199.92 789.54 208.47"/>
      <line class="cls-4" x1="802.36" y1="201.35" x2="803.08" y2="202.06"/>
      <line class="cls-4" x1="800.94" y1="202.06" x2="802.36" y2="203.48"/>
      <line class="cls-4" x1="793.1" y1="204.2" x2="793.1" y2="204.91"/>
      <line class="cls-4" x1="799.51" y1="205.62" x2="799.51" y2="209.9"/>
      <line class="cls-4" x1="801.65" y1="205.62" x2="797.38" y2="205.62"/>
      <line class="cls-4" x1="802.36" y1="207.05" x2="802.36" y2="209.9"/>
      <line class="cls-4" x1="803.08" y1="207.05" x2="801.65" y2="207.05"/>
      <line class="cls-4" x1="796.67" y1="207.05" x2="796.67" y2="209.9"/>
      <line class="cls-4" x1="797.38" y1="207.05" x2="795.95" y2="207.05"/>
      <line class="cls-4" x1="794.53" y1="199.92" x2="794.53" y2="208.47"/>
      <line class="cls-4" x1="807.35" y1="209.9" x2="786.69" y2="209.9"/>
      <path class="cls-4"
            d="M780.69,189.24H762.88a1.42,1.42,0,0,0-1.42,1.42V197a1.61,1.61,0,1,1,3.21,0,1.78,1.78,0,1,1,3.56,0,1.78,1.78,0,1,1,3.56,0,1.78,1.78,0,1,1,3.56,0,1.78,1.78,0,1,1,3.56,0,1.61,1.61,0,1,1,3.21,0v-6.38A1.42,1.42,0,0,0,780.69,189.24Z"/>
      <line class="cls-4" x1="766.44" y1="195.29" x2="766.44" y2="190.66"/>
      <line class="cls-4" x1="762.88" y1="195.29" x2="762.88" y2="190.66"/>
      <line class="cls-4" x1="770" y1="195.29" x2="770" y2="190.66"/>
      <line class="cls-4" x1="773.57" y1="195.29" x2="773.57" y2="190.66"/>
      <line class="cls-4" x1="777.13" y1="195.29" x2="777.13" y2="190.66"/>
      <line class="cls-4" x1="780.69" y1="195.29" x2="780.69" y2="190.66"/>
      <line class="cls-4" x1="762.17" y1="198.32" x2="762.17" y2="209.9"/>
      <line class="cls-4" x1="781.4" y1="198.32" x2="781.4" y2="209.9"/>
      <polyline class="cls-4" points="779.26 208.47 779.26 199.92 764.3 199.92 764.3 208.47"/>
      <line class="cls-4" x1="777.13" y1="201.35" x2="777.84" y2="202.06"/>
      <line class="cls-4" x1="775.7" y1="202.06" x2="777.13" y2="203.48"/>
      <line class="cls-4" x1="767.87" y1="204.2" x2="767.87" y2="204.91"/>
      <line class="cls-4" x1="774.28" y1="205.62" x2="774.28" y2="209.9"/>
      <line class="cls-4" x1="776.42" y1="205.62" x2="772.14" y2="205.62"/>
      <line class="cls-4" x1="777.13" y1="207.05" x2="777.13" y2="209.9"/>
      <line class="cls-4" x1="777.84" y1="207.05" x2="776.42" y2="207.05"/>
      <line class="cls-4" x1="771.43" y1="207.05" x2="771.43" y2="209.9"/>
      <line class="cls-4" x1="772.14" y1="207.05" x2="770.72" y2="207.05"/>
      <line class="cls-4" x1="769.29" y1="199.92" x2="769.29" y2="208.47"/>
      <line class="cls-4" x1="782.11" y1="209.9" x2="761.45" y2="209.9"/>
      <rect class="cls-5" x="852.56" y="158.69" width="55" height="51.21"/>
      <polyline class="cls-6" points="210.81 39.96 295.61 39.96 295.61 178.5"/>
      <polyline class="cls-6" points="132.53 209.56 171.67 209.56 171.67 39.96 197.76 39.96"/>
      <polyline class="cls-6" points="282.56 183.47 282.56 53 184.72 53 184.72 209.56 289.09 209.56"/>
      <line class="cls-6" x1="204.29" y1="53" x2="204.29" y2="209.56"/>
      <line class="cls-6" x1="223.86" y1="53" x2="223.86" y2="209.56"/>
      <line class="cls-6" x1="243.43" y1="53" x2="243.43" y2="209.56"/>
      <line class="cls-6" x1="263" y1="53" x2="263" y2="209.56"/>
      <line class="cls-6" x1="184.72" y1="79.09" x2="282.56" y2="79.09"/>
      <line class="cls-6" x1="184.72" y1="105.19" x2="282.56" y2="105.19"/>
      <line class="cls-6" x1="184.72" y1="131.28" x2="282.56" y2="131.28"/>
      <line class="cls-6" x1="184.72" y1="157.37" x2="282.56" y2="157.37"/>
      <line class="cls-6" x1="184.72" y1="183.47" x2="282.56" y2="183.47"/>
      <polyline class="cls-6"
                points="269.52 39.96 269.52 26.91 243.43 26.91 243.43 20.39 223.86 20.39 223.86 26.91 197.76 26.91 197.76 39.96"/>
      <path class="cls-6"
            d="M315.18,196.51a6.49,6.49,0,0,0-3.54,1.05,9.76,9.76,0,0,0-19,0,6.52,6.52,0,1,0-3.54,12h26.09a6.52,6.52,0,1,0,0-13Z"/>
      <path class="cls-6" d="M158.62,176.94c0-13-3.26-39.14-13-39.14s-13,26.09-13,39.14a13,13,0,0,0,26.09,0Z"/>
      <line class="cls-6" x1="145.58" y1="189.99" x2="145.58" y2="209.56"/>
      <polyline class="cls-2" points="350.32 134.59 388.06 134.59 388.06 196.24"/>
      <polyline class="cls-2" points="315.49 210.06 332.91 210.06 332.91 134.59 344.52 134.59"/>
      <polyline class="cls-2" points="382.25 198.45 382.25 140.4 338.71 140.4 338.71 210.06 385.15 210.06"/>
      <line class="cls-2" x1="347.42" y1="140.4" x2="347.42" y2="210.06"/>
      <line class="cls-2" x1="356.13" y1="140.4" x2="356.13" y2="210.06"/>
      <line class="cls-2" x1="364.84" y1="140.4" x2="364.84" y2="210.06"/>
      <line class="cls-2" x1="373.54" y1="140.4" x2="373.54" y2="210.06"/>
      <line class="cls-2" x1="338.71" y1="152.01" x2="382.25" y2="152.01"/>
      <line class="cls-2" x1="338.71" y1="163.62" x2="382.25" y2="163.62"/>
      <line class="cls-2" x1="338.71" y1="175.23" x2="382.25" y2="175.23"/>
      <line class="cls-2" x1="338.71" y1="186.84" x2="382.25" y2="186.84"/>
      <line class="cls-2" x1="338.71" y1="198.45" x2="382.25" y2="198.45"/>
      <polyline class="cls-2"
                points="376.45 134.59 376.45 128.78 364.83 128.78 364.83 125.88 356.13 125.88 356.13 128.78 344.52 128.78 344.52 134.59"/>
      <path class="cls-2"
            d="M396.76,204.25a2.89,2.89,0,0,0-1.57.47,4.34,4.34,0,0,0-8.46,0,2.9,2.9,0,1,0-1.57,5.34h11.61a2.9,2.9,0,0,0,0-5.81Z"/>
      <path class="cls-2"
            d="M327.1,195.55c0-5.81-1.45-17.42-5.81-17.42s-5.81,11.61-5.81,17.42a5.81,5.81,0,0,0,11.61,0Z"/>
      <line class="cls-2" x1="321.3" y1="201.35" x2="321.3" y2="210.06"/>
      <polyline class="cls-7" points="511.42 199.52 511.42 117.76 552.3 117.76 552.3 199.52"/>
      <polyline class="cls-7" points="508.27 208.95 508.27 205.81 552.3 205.81"/>
      <polyline class="cls-7" points="486.26 168.07 486.26 136.63 505.13 136.63"/>
      <polyline class="cls-7" points="577.45 205.81 577.45 136.63 558.59 136.63"/>
      <polyline class="cls-7" points="495.7 168.07 495.7 164.93 501.99 164.93 501.99 174.36"/>
      <rect class="cls-7" x="561.73" y="164.93" width="6.29" height="9.43"/>
      <rect class="cls-7" x="561.73" y="146.06" width="6.29" height="9.43"/>
      <rect class="cls-7" x="495.7" y="146.06" width="6.29" height="9.43"/>
      <rect class="cls-7" x="561.73" y="183.79" width="6.29" height="9.43"/>
      <rect class="cls-7" x="536.58" y="164.93" width="6.29" height="9.43"/>
      <rect class="cls-7" x="536.58" y="146.06" width="6.29" height="9.43"/>
      <rect class="cls-7" x="520.85" y="164.93" width="6.29" height="9.43"/>
      <rect class="cls-7" x="520.85" y="146.06" width="6.29" height="9.43"/>
      <rect class="cls-7" x="536.58" y="127.19" width="6.29" height="9.43"/>
      <rect class="cls-7" x="520.85" y="127.19" width="6.29" height="9.43"/>
      <line class="cls-7" x1="539.72" y1="199.52" x2="539.72" y2="183.79"/>
      <line class="cls-7" x1="524" y1="199.52" x2="524" y2="183.79"/>
      <path class="cls-7"
            d="M574.31,202.66a3.13,3.13,0,0,0-1.7.51,4.7,4.7,0,0,0-9.17,0,3.14,3.14,0,1,0-1.7,5.78h12.58a3.14,3.14,0,0,0,0-6.29Z"/>
      <path class="cls-7"
            d="M498.84,193.23c0-6.29-1.57-18.87-6.29-18.87s-6.29,12.58-6.29,18.87a6.29,6.29,0,1,0,12.58,0Z"/>
      <line class="cls-7" x1="492.55" y1="199.52" x2="492.55" y2="208.95"/>
      <line class="cls-7" x1="517.71" y1="183.79" x2="546.01" y2="183.79"/>
      <line class="cls-7" x1="531.86" y1="193.23" x2="531.86" y2="193.23"/>
      <polyline class="cls-7" points="625.61 198.98 625.61 97.99 666.49 97.99 666.49 198.98"/>
      <polyline class="cls-7" points="622.47 208.88 622.47 205.73 666.49 205.73"/>
      <polyline class="cls-7" points="600.46 167.64 600.46 116.86 619.32 116.86"/>
      <polyline class="cls-7" points="691.65 204.43 691.65 116.86 672.78 116.86"/>
      <polyline class="cls-7" points="609.89 168 609.89 164.85 616.18 164.85 616.18 174.29"/>
      <rect class="cls-7" x="675.92" y="164.85" width="6.29" height="9.43"/>
      <rect class="cls-7" x="675.92" y="126.29" width="6.29" height="9.43"/>
      <rect class="cls-7" x="609.89" y="126.29" width="6.29" height="9.43"/>
      <rect class="cls-7" x="609.89" y="144.73" width="6.29" height="9.43"/>
      <rect class="cls-7" x="675.92" y="183.72" width="6.29" height="9.43"/>
      <rect class="cls-7" x="650.77" y="164.85" width="6.29" height="9.43"/>
      <rect class="cls-7" x="675.92" y="144.93" width="6.29" height="9.43"/>
      <rect class="cls-7" x="650.77" y="144.93" width="6.29" height="9.43"/>
      <rect class="cls-7" x="650.77" y="126.29" width="6.29" height="9.43"/>
      <rect class="cls-7" x="635.05" y="145.16" width="6.29" height="9.43"/>
      <rect class="cls-7" x="635.05" y="164.85" width="6.29" height="9.43"/>
      <rect class="cls-7" x="635.05" y="126.29" width="6.29" height="9.43"/>
      <rect class="cls-7" x="650.77" y="107.43" width="6.29" height="9.43"/>
      <rect class="cls-7" x="635.05" y="107.43" width="6.29" height="9.43"/>
      <line class="cls-7" x1="653.91" y1="199.44" x2="653.91" y2="183.72"/>
      <line class="cls-7" x1="638.19" y1="199.44" x2="638.19" y2="183.72"/>
      <path class="cls-7"
            d="M688.5,202.59a3.13,3.13,0,0,0-1.7.51,4.7,4.7,0,0,0-9.17,0,3.14,3.14,0,1,0-1.7,5.78H688.5a3.14,3.14,0,1,0,0-6.29Z"/>
      <path class="cls-7" d="M613,193.15c0-6.29-1.57-18.87-6.29-18.87s-6.29,12.58-6.29,18.87a6.29,6.29,0,0,0,12.58,0Z"/>
      <line class="cls-7" x1="606.74" y1="199.44" x2="606.74" y2="208.88"/>
      <line class="cls-7" x1="631.9" y1="183.72" x2="660.2" y2="183.72"/>
      <line class="cls-7" x1="646.05" y1="173.46" x2="646.05" y2="173.46"/>
      <g class="cls-8">
        <polygon class="cls-9"
                 points="372.25 21.49 373.01 23.23 374.88 23.59 373.46 24.85 373.69 26.73 372.06 25.77 370.34 26.58 370.74 24.73 369.44 23.34 371.33 23.16 372.25 21.49"/>
        <polygon class="cls-9"
                 points="450.23 27.59 450.99 29.33 452.86 29.68 451.44 30.95 451.68 32.83 450.04 31.87 448.32 32.68 448.72 30.82 447.42 29.44 449.31 29.25 450.23 27.59"/>
        <polygon class="cls-9"
                 points="159.11 1.13 159.88 2.87 161.74 3.22 160.32 4.49 160.56 6.37 158.92 5.41 157.2 6.22 157.61 4.36 156.31 2.98 158.2 2.79 159.11 1.13"/>
        <polygon class="cls-9"
                 points="3.86 113.45 4.63 115.19 6.49 115.55 5.07 116.81 5.31 118.69 3.67 117.74 1.95 118.54 2.36 116.69 1.06 115.3 2.95 115.12 3.86 113.45"/>
        <polygon class="cls-9"
                 points="158.95 65.36 159.71 67.1 161.57 67.45 160.16 68.72 160.39 70.6 158.75 69.64 157.04 70.45 157.44 68.59 156.14 67.21 158.03 67.02 158.95 65.36"/>
        <polygon class="cls-9"
                 points="540.47 73.58 541.23 75.32 543.1 75.67 541.68 76.94 541.91 78.82 540.27 77.86 538.56 78.67 538.96 76.81 537.66 75.43 539.55 75.24 540.47 73.58"/>
        <polygon class="cls-9"
                 points="49.33 20.33 50.09 22.07 51.95 22.43 50.54 23.69 50.77 25.57 49.13 24.62 47.41 25.42 47.82 23.57 46.52 22.18 48.41 22 49.33 20.33"/>
      </g>
      <g class="cls-8">
        <polygon class="cls-10"
                 points="904.66 30.63 905.31 32.13 906.92 32.44 905.7 33.53 905.9 35.15 904.49 34.33 903.01 35.02 903.36 33.42 902.24 32.23 903.87 32.07 904.66 30.63"/>
        <polygon class="cls-10"
                 points="971.87 35.89 972.52 37.38 974.13 37.69 972.91 38.78 973.11 40.4 971.7 39.58 970.22 40.27 970.57 38.68 969.45 37.48 971.08 37.32 971.87 35.89"/>
        <polygon class="cls-10"
                 points="720.95 13.08 721.61 14.58 723.22 14.89 722 15.98 722.2 17.6 720.79 16.77 719.31 17.47 719.66 15.87 718.54 14.68 720.16 14.52 720.95 13.08"/>
        <polygon class="cls-10"
                 points="587.14 109.89 587.8 111.39 589.4 111.7 588.18 112.79 588.39 114.41 586.98 113.59 585.49 114.28 585.84 112.68 584.72 111.49 586.35 111.33 587.14 109.89"/>
        <polygon class="cls-10"
                 points="720.81 68.44 721.47 69.94 723.07 70.25 721.85 71.34 722.06 72.96 720.64 72.13 719.16 72.83 719.51 71.23 718.39 70.04 720.02 69.88 720.81 68.44"/>
        <polygon class="cls-10"
                 points="1049.64 75.53 1050.3 77.03 1051.91 77.33 1050.69 78.42 1050.89 80.04 1049.48 79.22 1048 79.91 1048.35 78.31 1047.23 77.12 1048.86 76.96 1049.64 75.53"/>
        <polygon class="cls-10"
                 points="626.33 29.63 626.98 31.13 628.59 31.44 627.37 32.53 627.57 34.15 626.16 33.33 624.68 34.02 625.03 32.42 623.91 31.23 625.54 31.07 626.33 29.63"/>
      </g>
      <line class="cls-11" x1="335.01" y1="98.89" x2="332.22" y2="104.14"/>
      <path class="cls-11"
            d="M331.1,97.37l-3.78-1.62c-.94-.43-.92-1.27,0-1.75L346.9,83.86l-3.55,16.79a1.13,1.13,0,0,1-1.68.85l-5.39-2.11"/>
      <polyline class="cls-11" points="335.71 100.64 332.21 104.14 332.21 97.84"/>
      <line class="cls-11" x1="335.01" y1="98.89" x2="346.9" y2="83.86"/>
      <line class="cls-11" x1="346.9" y1="83.86" x2="332.22" y2="97.84"/>
      <line class="cls-12" x1="603" y1="78.92" x2="597.98" y2="78.21"/>
      <path class="cls-12"
            d="M603.08,75.33l.19-3.5c.07-.88.75-1.11,1.4-.51l13.85,12.74L604,86.11a1,1,0,0,1-1.17-1.1l.12-4.94"/>
      <polyline class="cls-12" points="601.81 79.99 597.98 78.21 603.03 76.37"/>
      <line class="cls-12" x1="603" y1="78.92" x2="618.53" y2="84.05"/>
      <line class="cls-12" x1="618.53" y1="84.05" x2="603.03" y2="76.37"/>
      <line class="cls-13" x1="833.17" y1="145.28" x2="830.8" y2="147.29"/>
      <path class="cls-13"
            d="M831.56,143.78,830,142.27c-.38-.39-.2-.8.34-.85l11.47-1.17-5,7.48a.59.59,0,0,1-1,.09l-2.22-2.06"/>
      <polyline class="cls-13" points="833.17 146.26 830.8 147.29 832.01 144.23"/>
      <line class="cls-13" x1="833.17" y1="145.28" x2="841.84" y2="140.25"/>
      <line class="cls-13" x1="841.84" y1="140.25" x2="832.01" y2="144.23"/>
      <path class="cls-14"
            d="M903.76,154.9H856.35a3.79,3.79,0,0,0-3.79,3.79v17a4.74,4.74,0,0,0,3.79-4.65,4.74,4.74,0,0,0,9.48,0,4.74,4.74,0,1,0,9.48,0,4.74,4.74,0,1,0,9.48,0,4.74,4.74,0,1,0,9.48,0,4.74,4.74,0,1,0,9.48,0,4.74,4.74,0,0,0,3.79,4.65v-17A3.79,3.79,0,0,0,903.76,154.9Z"/>
      <line class="cls-14" x1="865.83" y1="171.02" x2="865.83" y2="158.69"/>
      <line class="cls-14" x1="856.35" y1="171.02" x2="856.35" y2="158.69"/>
      <line class="cls-14" x1="875.32" y1="171.02" x2="875.32" y2="158.69"/>
      <line class="cls-14" x1="884.8" y1="171.02" x2="884.8" y2="158.69"/>
      <line class="cls-14" x1="894.28" y1="171.02" x2="894.28" y2="158.69"/>
      <line class="cls-14" x1="903.76" y1="171.02" x2="903.76" y2="158.69"/>
      <line class="cls-14" x1="854.45" y1="179.08" x2="854.45" y2="209.9"/>
      <line class="cls-14" x1="905.66" y1="179.08" x2="905.66" y2="209.9"/>
      <polyline class="cls-14" points="899.97 206.1 899.97 183.34 860.14 183.34 860.14 206.1"/>
      <line class="cls-14" x1="894.28" y1="187.14" x2="896.18" y2="189.03"/>
      <line class="cls-14" x1="890.49" y1="189.03" x2="894.28" y2="192.83"/>
      <line class="cls-14" x1="869.63" y1="194.72" x2="869.63" y2="196.62"/>
      <line class="cls-14" x1="886.7" y1="198.52" x2="886.7" y2="209.9"/>
      <line class="cls-14" x1="892.39" y1="198.52" x2="881.01" y2="198.52"/>
      <line class="cls-14" x1="894.28" y1="202.31" x2="894.28" y2="209.9"/>
      <line class="cls-14" x1="896.18" y1="202.31" x2="892.39" y2="202.31"/>
      <line class="cls-14" x1="879.11" y1="202.31" x2="879.11" y2="209.9"/>
      <line class="cls-14" x1="881.01" y1="202.31" x2="877.21" y2="202.31"/>
      <line class="cls-14" x1="873.42" y1="183.34" x2="873.42" y2="206.1"/>
      <line class="cls-14" x1="907.56" y1="209.9" x2="852.56" y2="209.9"/>
      <g class="cls-15">
        <polyline class="cls-4" points="697.96 203.96 697.96 160.76 719.56 160.76 719.56 203.96"/>
        <polyline class="cls-4" points="696.29 208.95 696.29 207.29 719.56 207.29"/>
        <polyline class="cls-4" points="684.66 187.35 684.66 170.73 694.63 170.73"/>
        <polyline class="cls-4" points="732.85 207.29 732.85 170.73 722.88 170.73"/>
        <polyline class="cls-4" points="689.65 187.35 689.65 185.69 692.97 185.69 692.97 190.67"/>
        <rect class="cls-4" x="724.54" y="185.69" width="3.32" height="4.99"/>
        <rect class="cls-4" x="724.54" y="175.71" width="3.32" height="4.99"/>
        <rect class="cls-4" x="689.65" y="175.71" width="3.32" height="4.99"/>
        <rect class="cls-4" x="724.54" y="195.66" width="3.32" height="4.99"/>
        <rect class="cls-4" x="711.25" y="185.69" width="3.32" height="4.99"/>
        <rect class="cls-4" x="711.25" y="175.71" width="3.32" height="4.99"/>
        <rect class="cls-4" x="702.94" y="185.69" width="3.32" height="4.99"/>
        <rect class="cls-4" x="702.94" y="175.71" width="3.32" height="4.99"/>
        <rect class="cls-4" x="711.25" y="165.74" width="3.32" height="4.99"/>
        <rect class="cls-4" x="702.94" y="165.74" width="3.32" height="4.99"/>
        <line class="cls-4" x1="712.91" y1="203.96" x2="712.91" y2="195.66"/>
        <line class="cls-4" x1="704.6" y1="203.96" x2="704.6" y2="195.66"/>
        <path class="cls-4"
              d="M731.19,205.63a1.65,1.65,0,0,0-.9.27,2.49,2.49,0,0,0-4.85,0,1.66,1.66,0,1,0-.9,3.06h6.65a1.66,1.66,0,0,0,0-3.32Z"/>
        <path class="cls-4" d="M691.31,200.64c0-3.32-.83-10-3.32-10s-3.32,6.65-3.32,10a3.32,3.32,0,0,0,6.65,0Z"/>
        <line class="cls-4" x1="687.98" y1="203.96" x2="687.98" y2="208.95"/>
        <line class="cls-4" x1="701.28" y1="195.66" x2="716.23" y2="195.66"/>
        <line class="cls-4" x1="708.76" y1="200.64" x2="708.76" y2="200.64"/>
      </g>
      <path class="cls-16"
            d="M327,109.23c-12.91.48-23.54,6.68-27,16-2.35,6.32-2.11,16,3,19,6.9,4.06,21.41-4.81,21-11-.51-7.62-24-15.61-44-11-12.68,2.92-21.37,10.29-26,15"/>
      <path class="cls-17"
            d="M595,78.8c-8.45-.31-15.4-4.37-17.66-10.47-1.54-4.14-1.38-10.47,2-12.43,4.52-2.65,14,3.15,13.74,7.2-.33,5-15.69,10.21-28.79,7.2a35.19,35.19,0,0,1-17-9.81"/>
      <path class="cls-17"
            d="M829,150.4c-3,2.66-6.75,3.54-9.53,2.17-1.89-.93-3.91-3.16-3.39-4.94.69-2.4,5.87-3.5,7.11-2,1.52,1.83-2.07,8.67-7.59,11.92a16.76,16.76,0,0,1-9.09,2.18"/>
    </g>
  </g>
</svg>
