<?xml version="1.0" encoding="utf-8"?>
<!-- Generator: Adobe Illustrator 21.0.2, SVG Export Plug-In . SVG Version: 6.00 Build 0)  -->
<svg version="1.1" id="Layer_1" xmlns="http://www.w3.org/2000/svg" xmlns:xlink="http://www.w3.org/1999/xlink" x="0px" y="0px"
	 viewBox="0 0 990.9 127" width="990" height="127" style="enable-background:new 0 0 990.9 127;" xml:space="preserve" preserveAspectRatio="xMinYMid">
<style type="text/css">
	.st0{fill:none;stroke:#FFFFFF;stroke-width:0.89;stroke-miterlimit:10;}
	.st1{fill:none;stroke:#FFFFFF;stroke-width:0.66;stroke-miterlimit:10;}
	.st2{fill:none;stroke:#FFFFFF;stroke-width:0.46;stroke-miterlimit:10;}
	.st3{opacity:0.55;}
	.st4{fill:none;stroke:#FFFFFF;stroke-width:0.61;stroke-miterlimit:10;}
	.st5{fill:none;stroke:#FFFFFF;stroke-width:0.8;stroke-miterlimit:10;}
	.st6{fill:none;stroke:#FFFFFF;stroke-width:0.5;stroke-miterlimit:10;}
	.st7{fill:none;stroke:#FFFFFF;stroke-width:0.26;stroke-miterlimit:10;}
	.st8{fill:none;stroke:#FFFFFF;stroke-width:0.5;stroke-miterlimit:10;stroke-dasharray:4;}

		.st9{opacity:0.56;fill:none;stroke:#FFFFFF;stroke-width:0.33;stroke-miterlimit:10;stroke-dasharray:2.62;enable-background:new    ;}
	.st10{fill:none;stroke:#FFFFFF;stroke-width:0.44;stroke-miterlimit:10;}
	.st11{fill:none;stroke:#FFFFFF;stroke-width:0.62;stroke-miterlimit:10;}
</style>
<title>Asset 2</title>
<g id="Layer_2">
	<g id="scene3">
		<path class="st0" d="M779.8,86.7h-34.2c-1.5,0-2.7,1.2-2.7,2.7v12.2c-0.1-1.7,1.1-3.2,2.8-3.4s3.2,1.1,3.4,2.8c0,0.2,0,0.4,0,0.6
			c-0.1-1.9,1.3-3.5,3.2-3.6c1.9-0.1,3.5,1.3,3.6,3.2c0,0.1,0,0.2,0,0.4c-0.1-1.9,1.3-3.5,3.2-3.6c1.9-0.1,3.5,1.3,3.6,3.2
			c0,0.1,0,0.2,0,0.4c-0.1-1.9,1.3-3.5,3.2-3.6c1.9-0.1,3.5,1.3,3.6,3.2c0,0.1,0,0.2,0,0.4c-0.1-1.9,1.3-3.5,3.2-3.6
			c1.9-0.1,3.5,1.3,3.6,3.2c0,0.1,0,0.2,0,0.4c-0.2-1.7,1-3.2,2.7-3.4s3.2,1,3.4,2.7c0,0.2,0,0.4,0,0.6V89.4
			C782.6,87.9,781.3,86.7,779.8,86.7z"/>
		<line class="st0" x1="752.5" y1="98.3" x2="752.5" y2="89.4"/>
		<line class="st0" x1="745.6" y1="98.3" x2="745.6" y2="89.4"/>
		<line class="st0" x1="759.3" y1="98.3" x2="759.3" y2="89.4"/>
		<line class="st0" x1="766.1" y1="98.3" x2="766.1" y2="89.4"/>
		<line class="st0" x1="773" y1="98.3" x2="773" y2="89.4"/>
		<line class="st0" x1="779.8" y1="98.3" x2="779.8" y2="89.4"/>
		<line class="st0" x1="744.2" y1="104.1" x2="744.2" y2="126.4"/>
		<line class="st0" x1="781.2" y1="104.1" x2="781.2" y2="126.4"/>
		<polyline class="st0" points="777.1,123.6 777.1,107.2 748.4,107.2 748.4,123.6 		"/>
		<line class="st0" x1="773" y1="109.9" x2="774.4" y2="111.3"/>
		<line class="st0" x1="770.3" y1="111.3" x2="773" y2="114"/>
		<line class="st0" x1="755.2" y1="115.4" x2="755.2" y2="116.8"/>
		<line class="st0" x1="767.5" y1="118.1" x2="767.5" y2="126.4"/>
		<line class="st0" x1="771.6" y1="118.1" x2="763.4" y2="118.1"/>
		<line class="st0" x1="773" y1="120.9" x2="773" y2="126.4"/>
		<line class="st0" x1="774.4" y1="120.9" x2="771.6" y2="120.9"/>
		<line class="st0" x1="762" y1="120.9" x2="762" y2="126.4"/>
		<line class="st0" x1="763.4" y1="120.9" x2="760.7" y2="120.9"/>
		<line class="st0" x1="757.9" y1="107.2" x2="757.9" y2="123.6"/>
		<line class="st0" x1="782.6" y1="126.4" x2="742.9" y2="126.4"/>
		<path class="st1" d="M848.8,97.1h-25.2c-1.1,0-2,0.9-2,2v9c-0.1-1.3,0.8-2.4,2.1-2.5c1.3-0.1,2.4,0.8,2.5,2.1c0,0.1,0,0.3,0,0.4
			c-0.2-1.4,0.8-2.6,2.2-2.8c1.4-0.2,2.6,0.8,2.8,2.2c0,0.2,0,0.4,0,0.6c0.2-1.4,1.4-2.4,2.8-2.2c1.1,0.1,2,1,2.2,2.2
			c0.2-1.4,1.4-2.4,2.8-2.2c1.1,0.1,2,1,2.2,2.2c-0.2-1.4,0.8-2.6,2.2-2.8c1.4-0.2,2.6,0.8,2.8,2.2c0,0.2,0,0.4,0,0.6
			c-0.1-1.3,0.8-2.4,2-2.5s2.4,0.8,2.5,2c0,0.1,0,0.3,0,0.4v-9C850.6,98.1,849.8,97.2,848.8,97.1z"/>
		<line class="st1" x1="828.6" y1="105.7" x2="828.6" y2="99.1"/>
		<line class="st1" x1="823.6" y1="105.7" x2="823.6" y2="99.1"/>
		<line class="st1" x1="833.7" y1="105.7" x2="833.7" y2="99.1"/>
		<line class="st1" x1="838.7" y1="105.7" x2="838.7" y2="99.1"/>
		<line class="st1" x1="843.8" y1="105.7" x2="843.8" y2="99.1"/>
		<line class="st1" x1="848.8" y1="105.7" x2="848.8" y2="99.1"/>
		<line class="st1" x1="822.6" y1="110" x2="822.6" y2="126.4"/>
		<line class="st1" x1="849.8" y1="110" x2="849.8" y2="126.4"/>
		<polyline class="st1" points="846.8,124.3 846.8,112.2 825.6,112.2 825.6,124.3 		"/>
		<line class="st1" x1="843.8" y1="114.2" x2="844.8" y2="115.3"/>
		<line class="st1" x1="841.7" y1="115.3" x2="843.8" y2="117.3"/>
		<line class="st1" x1="830.6" y1="118.3" x2="830.6" y2="119.3"/>
		<line class="st1" x1="839.7" y1="120.3" x2="839.7" y2="126.4"/>
		<line class="st1" x1="842.7" y1="120.3" x2="836.7" y2="120.3"/>
		<line class="st1" x1="843.8" y1="122.3" x2="843.8" y2="126.4"/>
		<line class="st1" x1="844.8" y1="122.3" x2="842.7" y2="122.3"/>
		<line class="st1" x1="835.7" y1="122.3" x2="835.7" y2="126.4"/>
		<line class="st1" x1="836.7" y1="122.3" x2="834.7" y2="122.3"/>
		<line class="st1" x1="832.7" y1="112.2" x2="832.7" y2="124.3"/>
		<line class="st1" x1="850.8" y1="126.4" x2="821.6" y2="126.4"/>
		<path class="st0" d="M912.6,86.7h-34.2c-1.5,0-2.7,1.2-2.7,2.7v12.2c-0.1-1.7,1.1-3.2,2.8-3.4c1.7-0.1,3.2,1.1,3.4,2.8
			c0,0.2,0,0.4,0,0.6c-0.1-1.9,1.3-3.5,3.2-3.6c1.9-0.1,3.5,1.3,3.6,3.2c0,0.1,0,0.2,0,0.4c-0.1-1.9,1.3-3.5,3.2-3.6
			c1.9-0.1,3.5,1.3,3.6,3.2c0,0.1,0,0.2,0,0.4c0.1-1.9,1.7-3.3,3.6-3.2c1.7,0.1,3.1,1.5,3.2,3.2c-0.1-1.9,1.3-3.5,3.2-3.6
			c1.9-0.1,3.5,1.3,3.6,3.2c0,0.1,0,0.2,0,0.4c-0.2-1.7,1-3.2,2.7-3.4c1.7-0.2,3.2,1,3.4,2.7c0,0.2,0,0.4,0,0.6V89.4
			C915.3,87.9,914.1,86.7,912.6,86.7z"/>
		<line class="st0" x1="885.2" y1="98.3" x2="885.2" y2="89.4"/>
		<line class="st0" x1="878.4" y1="98.3" x2="878.4" y2="89.4"/>
		<line class="st0" x1="892.1" y1="98.3" x2="892.1" y2="89.4"/>
		<line class="st0" x1="898.9" y1="98.3" x2="898.9" y2="89.4"/>
		<line class="st0" x1="905.7" y1="98.3" x2="905.7" y2="89.4"/>
		<line class="st0" x1="912.6" y1="98.3" x2="912.6" y2="89.4"/>
		<line class="st0" x1="877" y1="104.1" x2="877" y2="126.4"/>
		<line class="st0" x1="914" y1="104.1" x2="914" y2="126.4"/>
		<polyline class="st0" points="909.9,123.6 909.9,107.2 881.1,107.2 881.1,123.6 		"/>
		<line class="st0" x1="905.7" y1="109.9" x2="907.1" y2="111.3"/>
		<line class="st0" x1="903" y1="111.3" x2="905.7" y2="114"/>
		<line class="st0" x1="888" y1="115.4" x2="888" y2="116.8"/>
		<line class="st0" x1="900.3" y1="118.1" x2="900.3" y2="126.4"/>
		<line class="st0" x1="904.4" y1="118.1" x2="896.2" y2="118.1"/>
		<line class="st0" x1="905.7" y1="120.9" x2="905.7" y2="126.4"/>
		<line class="st0" x1="907.1" y1="120.9" x2="904.4" y2="120.9"/>
		<line class="st0" x1="894.8" y1="120.9" x2="894.8" y2="126.4"/>
		<line class="st0" x1="896.2" y1="120.9" x2="893.4" y2="120.9"/>
		<line class="st0" x1="890.7" y1="107.2" x2="890.7" y2="123.6"/>
		<line class="st0" x1="915.3" y1="126.4" x2="875.6" y2="126.4"/>
		<path class="st2" d="M726.4,105.7h-17.8c-0.8,0-1.4,0.6-1.4,1.4v6.4c-0.1-0.9,0.6-1.7,1.5-1.7c0.9-0.1,1.7,0.6,1.7,1.5
			c0,0.1,0,0.2,0,0.3c0-1,0.8-1.8,1.8-1.8c1,0,1.8,0.8,1.8,1.8c0,0,0,0,0,0c0-1,0.8-1.8,1.8-1.8c1,0,1.8,0.8,1.8,1.8c0,0,0,0,0,0
			c0-1,0.8-1.8,1.8-1.8c1,0,1.8,0.8,1.8,1.8c0-1,0.8-1.8,1.8-1.8c1,0,1.8,0.8,1.8,1.8c0,0,0,0,0,0c-0.1-0.9,0.6-1.7,1.5-1.7
			c0.9-0.1,1.7,0.6,1.7,1.5c0,0.1,0,0.2,0,0.3v-6.4C727.8,106.4,727.2,105.7,726.4,105.7C726.4,105.7,726.4,105.7,726.4,105.7z"/>
		<line class="st2" x1="712.2" y1="111.8" x2="712.2" y2="107.1"/>
		<line class="st2" x1="708.6" y1="111.8" x2="708.6" y2="107.1"/>
		<line class="st2" x1="715.7" y1="111.8" x2="715.7" y2="107.1"/>
		<line class="st2" x1="719.3" y1="111.8" x2="719.3" y2="107.1"/>
		<line class="st2" x1="722.8" y1="111.8" x2="722.8" y2="107.1"/>
		<line class="st2" x1="726.4" y1="111.8" x2="726.4" y2="107.1"/>
		<line class="st2" x1="707.9" y1="114.8" x2="707.9" y2="126.4"/>
		<line class="st2" x1="727.1" y1="114.8" x2="727.1" y2="126.4"/>
		<polyline class="st2" points="725,124.9 725,116.4 710,116.4 710,124.9 		"/>
		<line class="st2" x1="722.8" y1="117.8" x2="723.6" y2="118.5"/>
		<line class="st2" x1="721.4" y1="118.5" x2="722.8" y2="119.9"/>
		<line class="st2" x1="713.6" y1="120.7" x2="713.6" y2="121.4"/>
		<line class="st2" x1="720" y1="122.1" x2="720" y2="126.4"/>
		<line class="st2" x1="722.1" y1="122.1" x2="717.9" y2="122.1"/>
		<line class="st2" x1="722.8" y1="123.5" x2="722.8" y2="126.4"/>
		<line class="st2" x1="723.6" y1="123.5" x2="722.1" y2="123.5"/>
		<line class="st2" x1="717.2" y1="123.5" x2="717.2" y2="126.4"/>
		<line class="st2" x1="717.9" y1="123.5" x2="716.4" y2="123.5"/>
		<line class="st2" x1="715" y1="116.4" x2="715" y2="124.9"/>
		<line class="st2" x1="727.8" y1="126.4" x2="707.2" y2="126.4"/>
		<path class="st2" d="M701.2,105.7h-17.8c-0.8,0-1.4,0.6-1.4,1.4v6.4c-0.1-0.9,0.6-1.7,1.5-1.7c0.9-0.1,1.7,0.6,1.7,1.5
			c0,0.1,0,0.2,0,0.3c0-1,0.8-1.8,1.8-1.8c1,0,1.8,0.8,1.8,1.8c0-1,0.8-1.8,1.8-1.8c1,0,1.8,0.8,1.8,1.8c0,0,0,0,0,0
			c0-1,0.8-1.8,1.8-1.8c1,0,1.8,0.8,1.8,1.8c0-1,0.8-1.8,1.8-1.8c1,0,1.8,0.8,1.8,1.8c0,0,0,0,0,0c-0.1-0.9,0.6-1.7,1.5-1.7
			c0.9-0.1,1.7,0.6,1.7,1.5c0,0.1,0,0.2,0,0.3v-6.4C702.6,106.4,702,105.7,701.2,105.7C701.2,105.7,701.2,105.7,701.2,105.7z"/>
		<line class="st2" x1="687" y1="111.8" x2="687" y2="107.1"/>
		<line class="st2" x1="683.4" y1="111.8" x2="683.4" y2="107.1"/>
		<line class="st2" x1="690.5" y1="111.8" x2="690.5" y2="107.1"/>
		<line class="st2" x1="694.1" y1="111.8" x2="694.1" y2="107.1"/>
		<line class="st2" x1="697.6" y1="111.8" x2="697.6" y2="107.1"/>
		<line class="st2" x1="701.2" y1="111.8" x2="701.2" y2="107.1"/>
		<line class="st2" x1="682.7" y1="114.8" x2="682.7" y2="126.4"/>
		<line class="st2" x1="701.9" y1="114.8" x2="701.9" y2="126.4"/>
		<polyline class="st2" points="699.8,124.9 699.8,116.4 684.8,116.4 684.8,124.9 		"/>
		<line class="st2" x1="697.6" y1="117.8" x2="698.3" y2="118.5"/>
		<line class="st2" x1="696.2" y1="118.5" x2="697.6" y2="119.9"/>
		<line class="st2" x1="688.4" y1="120.7" x2="688.4" y2="121.4"/>
		<line class="st2" x1="694.8" y1="122.1" x2="694.8" y2="126.4"/>
		<line class="st2" x1="696.9" y1="122.1" x2="692.7" y2="122.1"/>
		<line class="st2" x1="697.6" y1="123.5" x2="697.6" y2="126.4"/>
		<line class="st2" x1="698.3" y1="123.5" x2="696.9" y2="123.5"/>
		<line class="st2" x1="691.9" y1="123.5" x2="691.9" y2="126.4"/>
		<line class="st2" x1="692.7" y1="123.5" x2="691.2" y2="123.5"/>
		<line class="st2" x1="689.8" y1="116.4" x2="689.8" y2="124.9"/>
		<line class="st2" x1="702.6" y1="126.4" x2="682" y2="126.4"/>
		<g class="st3">
			<polyline class="st0" points="35.2,51.1 72.9,51.1 72.9,112.7 			"/>
			<polyline class="st0" points="0.4,126.5 17.8,126.5 17.8,51.1 29.4,51.1 			"/>
			<polyline class="st0" points="67.1,114.9 67.1,56.9 23.6,56.9 23.6,126.5 70,126.5 			"/>
			<line class="st0" x1="32.3" y1="56.9" x2="32.3" y2="126.5"/>
			<line class="st0" x1="41" y1="56.9" x2="41" y2="126.5"/>
			<line class="st0" x1="49.7" y1="56.9" x2="49.7" y2="126.5"/>
			<line class="st0" x1="58.4" y1="56.9" x2="58.4" y2="126.5"/>
			<line class="st0" x1="23.6" y1="68.5" x2="67.1" y2="68.5"/>
			<line class="st0" x1="23.6" y1="80.1" x2="67.1" y2="80.1"/>
			<line class="st0" x1="23.6" y1="91.7" x2="67.1" y2="91.7"/>
			<line class="st0" x1="23.6" y1="103.3" x2="67.1" y2="103.3"/>
			<line class="st0" x1="23.6" y1="114.9" x2="67.1" y2="114.9"/>
			<polyline class="st0" points="61.3,51.1 61.3,45.3 49.7,45.3 49.7,42.4 41,42.4 41,45.3 29.4,45.3 29.4,51.1 			"/>
			<path class="st0" d="M81.6,120.7c-0.6,0-1.1,0.2-1.6,0.5c-0.5-2.3-2.9-3.8-5.2-3.3c-1.6,0.4-2.9,1.6-3.3,3.3
				c-1.3-0.9-3.1-0.5-4,0.9c-0.9,1.3-0.5,3.1,0.9,4c0.5,0.3,1,0.5,1.6,0.5h11.6c1.6,0,2.9-1.3,2.9-2.9S83.2,120.7,81.6,120.7z"/>
			<path class="st0" d="M12,112c0-5.8-1.4-17.4-5.8-17.4S0.4,106.2,0.4,112c0.1,3.2,2.8,5.7,6,5.6C9.5,117.4,11.9,115,12,112L12,112
				z"/>
			<line class="st0" x1="6.2" y1="117.8" x2="6.2" y2="126.5"/>
		</g>
		<g class="st3">
			<polyline class="st4" points="629.7,74.9 655.4,74.9 655.4,117.1 			"/>
			<polyline class="st4" points="605.8,126.5 617.7,126.5 617.7,74.9 625.7,74.9 			"/>
			<polyline class="st4" points="651.5,118.6 651.5,78.9 621.7,78.9 621.7,126.5 653.5,126.5 			"/>
			<line class="st4" x1="627.7" y1="78.9" x2="627.7" y2="126.5"/>
			<line class="st4" x1="633.6" y1="78.9" x2="633.6" y2="126.5"/>
			<line class="st4" x1="639.6" y1="78.9" x2="639.6" y2="126.5"/>
			<line class="st4" x1="645.5" y1="78.9" x2="645.5" y2="126.5"/>
			<line class="st4" x1="621.7" y1="86.8" x2="651.5" y2="86.8"/>
			<line class="st4" x1="621.7" y1="94.8" x2="651.5" y2="94.8"/>
			<line class="st4" x1="621.7" y1="102.7" x2="651.5" y2="102.7"/>
			<line class="st4" x1="621.7" y1="110.6" x2="651.5" y2="110.6"/>
			<line class="st4" x1="621.7" y1="118.6" x2="651.5" y2="118.6"/>
			<polyline class="st4" points="647.5,74.9 647.5,71 639.6,71 639.6,69 633.6,69 633.6,71 625.7,71 625.7,74.9 			"/>
			<path class="st4" d="M661.4,122.5c-0.4,0-0.8,0.1-1.1,0.3c-0.4-1.6-2.1-2.5-3.7-2.1c-1,0.3-1.8,1.1-2.1,2.1
				c-0.9-0.6-2.2-0.4-2.8,0.5c-0.6,0.9-0.4,2.2,0.5,2.8c0.3,0.2,0.8,0.4,1.2,0.3h7.9c1.1,0,2-0.9,2-2
				C663.4,123.4,662.5,122.5,661.4,122.5L661.4,122.5z"/>
			<path class="st4" d="M613.8,116.6c0-4-1-11.9-4-11.9s-4,7.9-4,11.9c0.3,2.2,2.3,3.7,4.5,3.5C612.1,119.8,613.5,118.4,613.8,116.6
				L613.8,116.6z"/>
			<line class="st4" x1="609.8" y1="120.6" x2="609.8" y2="126.5"/>
		</g>
		<g class="st3">
			<polyline class="st5" points="406.3,59.2 440,59.2 440,114.3 			"/>
			<polyline class="st5" points="375.2,126.6 390.7,126.6 390.7,59.2 401.1,59.2 			"/>
			<polyline class="st5" points="434.8,116.2 434.8,64.4 395.9,64.4 395.9,126.6 437.4,126.6 			"/>
			<line class="st5" x1="403.7" y1="64.4" x2="403.7" y2="126.6"/>
			<line class="st5" x1="411.4" y1="64.4" x2="411.4" y2="126.6"/>
			<line class="st5" x1="419.2" y1="64.4" x2="419.2" y2="126.6"/>
			<line class="st5" x1="427" y1="64.4" x2="427" y2="126.6"/>
			<line class="st5" x1="395.9" y1="74.8" x2="434.8" y2="74.8"/>
			<line class="st5" x1="395.9" y1="85.1" x2="434.8" y2="85.1"/>
			<line class="st5" x1="395.9" y1="95.5" x2="434.8" y2="95.5"/>
			<line class="st5" x1="395.9" y1="105.9" x2="434.8" y2="105.9"/>
			<line class="st5" x1="395.9" y1="116.2" x2="434.8" y2="116.2"/>
			<polyline class="st5" points="429.6,59.2 429.6,54 419.2,54 419.2,51.4 411.4,51.4 411.4,54 401.1,54 401.1,59.2 			"/>
			<path class="st5" d="M447.7,121.4c-0.5,0-1,0.2-1.4,0.4c-0.5-2.1-2.5-3.4-4.6-2.9c-1.5,0.3-2.6,1.5-2.9,2.9
				c-1.2-0.8-2.8-0.4-3.6,0.8c-0.8,1.2-0.4,2.8,0.8,3.6c0.4,0.3,0.9,0.4,1.4,0.4h10.4c1.4-0.1,2.5-1.3,2.4-2.8
				C450,122.6,449,121.5,447.7,121.4L447.7,121.4z"/>
			<path class="st5" d="M385.5,113.6c0-5.2-1.3-15.6-5.2-15.6s-5.2,10.4-5.2,15.6c0,2.9,2.3,5.2,5.2,5.2S385.5,116.5,385.5,113.6
				L385.5,113.6z"/>
			<line class="st5" x1="380.3" y1="118.8" x2="380.3" y2="126.6"/>
		</g>
		<line class="st6" x1="163.8" y1="15.5" x2="161" y2="20.7"/>
		<path class="st6" d="M159.8,14l-3.8-1.6c-0.9-0.4-0.9-1.3,0-1.7l19.6-10.2l-3.5,16.8c-0.1,0.6-0.6,1.1-1.3,1
			c-0.1,0-0.3-0.1-0.4-0.1L165,16"/>
		<polyline class="st6" points="164.5,17.2 161,20.7 161,14.4 		"/>
		<line class="st6" x1="163.8" y1="15.5" x2="175.6" y2="0.5"/>
		<line class="st6" x1="175.6" y1="0.5" x2="161" y2="14.4"/>
		<line class="st7" x1="753.6" y1="61.8" x2="751.2" y2="63.8"/>
		<path class="st7" d="M752,60.3l-1.5-1.5c-0.4-0.4-0.2-0.8,0.3-0.8l11.5-1.2l-5,7.5c-0.1,0.3-0.5,0.4-0.8,0.3
			c-0.1,0-0.2-0.1-0.2-0.2l-2.2-2.1"/>
		<polyline class="st7" points="753.6,62.8 751.2,63.8 752.5,60.8 		"/>
		<line class="st7" x1="753.6" y1="61.8" x2="762.3" y2="56.8"/>
		<line class="st7" x1="762.3" y1="56.8" x2="752.5" y2="60.8"/>
		<path class="st8" d="M155.8,25.8c-12.9,0.5-23.5,6.7-27,16c-2.3,6.3-2.1,16,3,19c6.9,4.1,21.4-4.8,21-11c-0.5-7.6-24-15.6-43.9-11
			c-12.7,2.9-21.3,10.3-26,15"/>
		<path class="st9" d="M749.5,66.9c-3,2.7-6.7,3.5-9.5,2.2c-1.9-0.9-3.9-3.2-3.4-4.9c0.7-2.4,5.9-3.5,7.1-2
			c1.5,1.8-2.1,8.7-7.6,11.9c-2.8,1.6-5.9,2.3-9.1,2.2"/>
		<polyline class="st0" points="222.8,115.5 222.8,14.6 263.7,14.6 263.7,115.5 		"/>
		<polyline class="st0" points="219.7,125.3 219.7,122.2 263.7,122.2 		"/>
		<polyline class="st0" points="197.7,84.1 197.7,33.4 216.6,33.4 		"/>
		<polyline class="st0" points="288.8,120.9 288.8,33.4 269.9,33.4 		"/>
		<polyline class="st0" points="207.1,84.5 207.1,81.4 213.4,81.4 213.4,90.8 		"/>
		<rect x="273.1" y="81.4" class="st0" width="6.3" height="9.4"/>
		<rect x="273.1" y="42.8" class="st0" width="6.3" height="9.4"/>
		<rect x="207.1" y="42.8" class="st0" width="6.3" height="9.4"/>
		<rect x="207.1" y="61.3" class="st0" width="6.3" height="9.4"/>
		<rect x="273.1" y="100.2" class="st0" width="6.3" height="9.4"/>
		<rect x="248" y="81.4" class="st0" width="6.3" height="9.4"/>
		<rect x="273.1" y="61.5" class="st0" width="6.3" height="9.4"/>
		<rect x="248" y="61.5" class="st0" width="6.3" height="9.4"/>
		<rect x="248" y="42.8" class="st0" width="6.3" height="9.4"/>
		<rect x="232.3" y="61.7" class="st0" width="6.3" height="9.4"/>
		<rect x="232.3" y="81.4" class="st0" width="6.3" height="9.4"/>
		<rect x="232.3" y="42.8" class="st0" width="6.3" height="9.4"/>
		<rect x="248" y="24" class="st0" width="6.3" height="9.4"/>
		<rect x="232.3" y="24" class="st0" width="6.3" height="9.4"/>
		<line class="st0" x1="251.1" y1="115.9" x2="251.1" y2="100.2"/>
		<line class="st0" x1="235.4" y1="115.9" x2="235.4" y2="100.2"/>
		<path class="st0" d="M285.7,119c-0.6,0-1.2,0.2-1.7,0.5c-0.6-2.5-3.1-4.1-5.6-3.5c-1.8,0.4-3.1,1.8-3.5,3.5
			c-1.5-0.9-3.4-0.5-4.3,0.9s-0.5,3.4,0.9,4.3c0.5,0.3,1.1,0.5,1.7,0.5h12.6c1.7,0,3.1-1.4,3.1-3.1C288.8,120.5,287.4,119,285.7,119
			z"/>
		<path class="st0" d="M210.3,109.6c0-6.3-1.6-18.8-6.3-18.8c-4.7,0-6.3,12.6-6.3,18.8c0,3.5,2.8,6.3,6.3,6.3
			C207.5,115.9,210.3,113.1,210.3,109.6L210.3,109.6z"/>
		<line class="st0" x1="204" y1="115.9" x2="204" y2="125.3"/>
		<line class="st0" x1="229.1" y1="100.2" x2="257.4" y2="100.2"/>
		<line class="st0" x1="243.3" y1="90" x2="243.3" y2="90"/>
		<polyline class="st10" points="520.5,120.4 520.5,70 540.8,70 540.8,120.4 		"/>
		<polyline class="st10" points="518.9,125.3 518.9,123.8 540.8,123.8 		"/>
		<polyline class="st10" points="507.9,104.8 507.9,79.5 517.3,79.5 		"/>
		<polyline class="st10" points="553.4,123.1 553.4,79.5 544,79.5 		"/>
		<polyline class="st10" points="512.6,105 512.6,103.4 515.8,103.4 515.8,108.1 		"/>
		<rect x="545.6" y="103.4" class="st10" width="3.1" height="4.7"/>
		<rect x="545.6" y="84.2" class="st10" width="3.1" height="4.7"/>
		<rect x="512.6" y="84.2" class="st10" width="3.1" height="4.7"/>
		<rect x="512.6" y="93.3" class="st10" width="3.1" height="4.7"/>
		<rect x="545.6" y="112.8" class="st10" width="3.1" height="4.7"/>
		<rect x="533" y="103.4" class="st10" width="3.1" height="4.7"/>
		<rect x="545.6" y="93.4" class="st10" width="3.1" height="4.7"/>
		<rect x="533" y="93.4" class="st10" width="3.1" height="4.7"/>
		<rect x="533" y="84.2" class="st10" width="3.1" height="4.7"/>
		<rect x="525.2" y="93.6" class="st10" width="3.1" height="4.7"/>
		<rect x="525.2" y="103.4" class="st10" width="3.1" height="4.7"/>
		<rect x="525.2" y="84.2" class="st10" width="3.1" height="4.7"/>
		<rect x="533" y="74.8" class="st10" width="3.1" height="4.7"/>
		<rect x="525.2" y="74.8" class="st10" width="3.1" height="4.7"/>
		<line class="st10" x1="534.6" y1="120.6" x2="534.6" y2="112.8"/>
		<line class="st10" x1="526.7" y1="120.6" x2="526.7" y2="112.8"/>
		<path class="st10" d="M551.8,122.2c-0.3,0-0.6,0.1-0.8,0.2c-0.3-1.3-1.6-2.1-2.8-1.8c-0.9,0.2-1.6,0.9-1.8,1.8
			c-0.7-0.5-1.7-0.3-2.2,0.5c-0.5,0.7-0.3,1.7,0.5,2.2c0.3,0.2,0.5,0.2,0.8,0.2h6.3c0.9,0,1.6-0.7,1.6-1.6
			C553.4,122.9,552.7,122.2,551.8,122.2L551.8,122.2z"/>
		<path class="st10" d="M514.2,117.5c0-3.1-0.8-9.4-3.1-9.4c-2.4,0-3.1,6.3-3.1,9.4c0,1.7,1.4,3.1,3.1,3.1
			C512.8,120.6,514.2,119.2,514.2,117.5z"/>
		<line class="st10" x1="511.1" y1="120.6" x2="511.1" y2="125.3"/>
		<line class="st10" x1="523.6" y1="112.8" x2="537.7" y2="112.8"/>
		<line class="st10" x1="530.7" y1="107.7" x2="530.7" y2="107.7"/>
		<polyline class="st11" points="944.6,118.4 944.6,47.6 973.3,47.6 973.3,118.4 		"/>
		<polyline class="st11" points="942.4,125.3 942.4,123.1 973.3,123.1 		"/>
		<polyline class="st11" points="926.9,96.4 926.9,60.8 940.2,60.8 		"/>
		<polyline class="st11" points="990.9,122.2 990.9,60.8 977.7,60.8 		"/>
		<polyline class="st11" points="933.6,96.7 933.6,94.5 938,94.5 938,101.1 		"/>
		<rect x="979.9" y="94.5" class="st11" width="4.4" height="6.6"/>
		<rect x="979.9" y="67.4" class="st11" width="4.4" height="6.6"/>
		<rect x="933.6" y="67.4" class="st11" width="4.4" height="6.6"/>
		<rect x="933.6" y="80.3" class="st11" width="4.4" height="6.6"/>
		<rect x="979.9" y="107.7" class="st11" width="4.4" height="6.6"/>
		<rect x="962.2" y="94.5" class="st11" width="4.4" height="6.6"/>
		<rect x="979.9" y="80.5" class="st11" width="4.4" height="6.6"/>
		<rect x="962.2" y="80.5" class="st11" width="4.4" height="6.6"/>
		<rect x="962.2" y="67.4" class="st11" width="4.4" height="6.6"/>
		<rect x="951.2" y="80.7" class="st11" width="4.4" height="6.6"/>
		<rect x="951.2" y="94.5" class="st11" width="4.4" height="6.6"/>
		<rect x="951.2" y="67.4" class="st11" width="4.4" height="6.6"/>
		<rect x="962.2" y="54.2" class="st11" width="4.4" height="6.6"/>
		<rect x="951.2" y="54.2" class="st11" width="4.4" height="6.6"/>
		<line class="st11" x1="964.4" y1="118.7" x2="964.4" y2="107.7"/>
		<line class="st11" x1="953.4" y1="118.7" x2="953.4" y2="107.7"/>
		<path class="st11" d="M988.6,120.9c-0.4,0-0.8,0.1-1.2,0.4c-0.4-1.8-2.2-2.9-3.9-2.5c-1.2,0.3-2.2,1.3-2.5,2.5
			c-1-0.7-2.4-0.4-3.1,0.6c-0.7,1-0.4,2.4,0.6,3.1c0.4,0.2,0.8,0.4,1.2,0.4h8.8c1.2,0,2.2-1,2.2-2.2
			C990.9,121.9,989.9,120.9,988.6,120.9z"/>
		<path class="st11" d="M935.8,114.3c0-4.4-1.1-13.2-4.4-13.2s-4.4,8.8-4.4,13.2c0.1,2.4,2.2,4.3,4.6,4.2
			C933.8,118.4,935.7,116.6,935.8,114.3L935.8,114.3z"/>
		<line class="st11" x1="931.4" y1="118.7" x2="931.4" y2="125.3"/>
		<line class="st11" x1="949" y1="107.7" x2="968.9" y2="107.7"/>
		<line class="st11" x1="958.9" y1="100.5" x2="958.9" y2="100.5"/>
		<polyline class="st7" points="664.6,122.8 664.6,93.5 676.5,93.5 676.5,122.8 		"/>
		<polyline class="st7" points="663.7,125.7 663.7,124.8 676.5,124.8 		"/>
		<polyline class="st7" points="657.3,113.7 657.3,99 662.8,99 		"/>
		<polyline class="st7" points="683.8,124.4 683.8,99 678.3,99 		"/>
		<polyline class="st7" points="660.1,113.8 660.1,112.9 661.9,112.9 661.9,115.7 		"/>
		<rect x="679.2" y="112.9" class="st7" width="1.8" height="2.7"/>
		<rect x="679.2" y="101.8" class="st7" width="1.8" height="2.7"/>
		<rect x="660.1" y="101.8" class="st7" width="1.8" height="2.7"/>
		<rect x="660.1" y="107.1" class="st7" width="1.8" height="2.7"/>
		<rect x="679.2" y="118.4" class="st7" width="1.8" height="2.7"/>
		<rect x="671.9" y="112.9" class="st7" width="1.8" height="2.7"/>
		<rect x="679.2" y="107.2" class="st7" width="1.8" height="2.7"/>
		<rect x="671.9" y="107.2" class="st7" width="1.8" height="2.7"/>
		<rect x="671.9" y="101.8" class="st7" width="1.8" height="2.7"/>
		<rect x="667.4" y="107.2" class="st7" width="1.8" height="2.7"/>
		<rect x="667.4" y="112.9" class="st7" width="1.8" height="2.7"/>
		<rect x="667.4" y="101.8" class="st7" width="1.8" height="2.7"/>
		<rect x="671.9" y="96.3" class="st7" width="1.8" height="2.7"/>
		<rect x="667.4" y="96.3" class="st7" width="1.8" height="2.7"/>
		<line class="st7" x1="672.8" y1="123" x2="672.8" y2="118.4"/>
		<line class="st7" x1="668.3" y1="123" x2="668.3" y2="118.4"/>
		<path class="st7" d="M682.9,123.9c-0.2,0-0.3,0.1-0.5,0.1c-0.2-0.7-0.9-1.2-1.7-1c-0.5,0.1-0.9,0.5-1,1c-0.4-0.3-1-0.1-1.3,0.3
			c-0.3,0.4-0.1,1,0.3,1.3c0.1,0.1,0.3,0.1,0.5,0.1h3.6c0.5,0,0.9-0.4,0.9-0.9S683.4,123.9,682.9,123.9L682.9,123.9z"/>
		<path class="st7" d="M661,121.1c0-1.8-0.5-5.5-1.8-5.5c-1.4,0-1.8,3.6-1.8,5.5c-0.1,1,0.7,1.9,1.7,2c1,0.1,1.9-0.7,2-1.7
			C661,121.3,661,121.2,661,121.1L661,121.1z"/>
		<line class="st7" x1="659.1" y1="123" x2="659.1" y2="125.7"/>
		<line class="st7" x1="666.4" y1="118.4" x2="674.6" y2="118.4"/>
		<line class="st7" x1="670.5" y1="115.4" x2="670.5" y2="115.4"/>
	</g>
</g>
</svg>
