<?xml version="1.0" encoding="UTF-8"?>
<svg width="48px" height="48px" viewBox="0 0 48 48" version="1.1" xmlns="http://www.w3.org/2000/svg" xmlns:xlink="http://www.w3.org/1999/xlink">
    <!-- Generator: sketchtool 51.2 (57519) - http://www.bohemiancoding.com/sketch -->
    <title>A13FA809-F1BD-46A2-9685-9F71BEF8BB76</title>
    <desc>Created with sketchtool.</desc>
    <defs></defs>
    <g id="Page-1" stroke="none" stroke-width="1" fill="none" fill-rule="evenodd">
        <g id="assets_homepage" transform="translate(-114.000000, -102.000000)" stroke="#298499">
            <g id="Group-7" transform="translate(115.000000, 103.000000)">
                <path d="M46,23 C46,35.703 35.702,46 23,46 C10.298,46 0,35.703 0,23 C0,10.297 10.298,0 23,0 C35.702,0 46,10.297 46,23 Z" id="Stroke-1"></path>
                <path d="M29.5,11.915 C27.9,10.978 25.858,10 23.5,10 C20.183,10 17.076,12.837 17.076,15.608 C17.076,18.542 19.184,20.87 23.5,22.745 C28.416,24.864 30,26.696 30,29.882 C30,33.833 26,36 22.5,36 C19.303,36 17.519,34.857 16,33.961" id="Stroke-3"></path>
                <path d="M25,5.5 L21,40.5" id="Stroke-5"></path>
            </g>
        </g>
    </g>
</svg>