<svg xmlns="http://www.w3.org/2000/svg" viewBox="0 0 372.22 171.47"><defs><style>.cls-1{fill:none;stroke:#000;stroke-linecap:round;stroke-linejoin:round;stroke-width:0.75px;}</style></defs><title>Asset 14</title><g id="Layer_2" data-name="Layer 2"><g id="benefits"><polyline class="cls-1" points="277.18 17.08 349.57 17.08 349.57 135.36"/><polyline class="cls-1" points="210.35 161.87 243.76 161.87 243.76 17.08 266.04 17.08"/><polyline class="cls-1" points="338.43 139.59 338.43 28.22 254.9 28.22 254.9 161.87 344 161.87"/><line class="cls-1" x1="271.61" y1="28.22" x2="271.61" y2="161.87"/><line class="cls-1" x1="288.32" y1="28.22" x2="288.32" y2="161.87"/><line class="cls-1" x1="305.02" y1="28.22" x2="305.02" y2="161.87"/><line class="cls-1" x1="321.73" y1="28.22" x2="321.73" y2="161.87"/><line class="cls-1" x1="254.9" y1="50.49" x2="338.43" y2="50.49"/><line class="cls-1" x1="254.9" y1="72.77" x2="338.43" y2="72.77"/><line class="cls-1" x1="254.9" y1="95.04" x2="338.43" y2="95.04"/><line class="cls-1" x1="254.9" y1="117.32" x2="338.43" y2="117.32"/><line class="cls-1" x1="254.9" y1="139.59" x2="338.43" y2="139.59"/><polyline class="cls-1" points="327.3 17.08 327.3 5.94 305.02 5.94 305.02 0.38 288.31 0.38 288.31 5.94 266.04 5.94 266.04 17.08"/><path class="cls-1" d="M366.28,150.73a5.54,5.54,0,0,0-3,.9,8.33,8.33,0,0,0-16.24,0,5.57,5.57,0,1,0-3,10.24h22.28a5.57,5.57,0,1,0,0-11.14Z"/><path class="cls-1" d="M232.63,134c0-11.14-2.78-33.41-11.14-33.41S210.35,122.89,210.35,134a11.14,11.14,0,1,0,22.28,0Z"/><line class="cls-1" x1="221.49" y1="145.16" x2="221.49" y2="161.87"/><path class="cls-1" d="M163.35,113.22h-2.91c-2.42,0-1-2.91-1-2.91a13.15,13.15,0,0,0,1.45-6.3v-2.42c0-6.78,3.88-9.69,9.69-9.69,2.29,0,5.81,0,5.33,1.45,2.91-.48,4.36,3.88,4.36,8.24V104c0,4.36,1.45,6.3,1.45,6.3s1.45,2.91-1,2.91h-2.91"/><path class="cls-1" d="M177,106.73a1.94,1.94,0,0,1-1,3.58H173"/><circle class="cls-1" cx="172.07" cy="110.31" r="0.97"/><path class="cls-1" d="M169.16,109.34h0a1.72,1.72,0,0,1-1.45-1"/><path class="cls-1" d="M172.07,104a1.21,1.21,0,0,1,1.94,0"/><line class="cls-1" x1="173.04" y1="104.49" x2="173.04" y2="103.52"/><path class="cls-1" d="M167.23,104a1.21,1.21,0,0,1,1.94,0"/><line class="cls-1" x1="168.19" y1="104.49" x2="168.19" y2="103.52"/><path class="cls-1" d="M161.41,116.12a6.68,6.68,0,0,0-4.85,3.88"/><path class="cls-1" d="M179.82,116.12a6.68,6.68,0,0,1,4.85,3.88"/><path class="cls-1" d="M177.89,116.12l-1.94-1L173,117.09V119a3.51,3.51,0,0,1-4.85,0v-1.94l-2.91-1.94-1.94,1"/><line class="cls-1" x1="163.35" y1="116.12" x2="166.26" y2="118.06"/><line class="cls-1" x1="177.89" y1="116.12" x2="174.98" y2="118.06"/><path class="cls-1" d="M176,98.19c-3.88,2.91-12.6,2.91-12.6,2.91V103c0,1.94,1.45,5.81,1.94,6.78s2.91,3.88,5.33,3.88,4.85-2.91,5.33-3.88,1.94-4.85,1.94-6.78c0,0-1.94-1.45-1.94-2.91"/><path class="cls-1" d="M188.78,164.79l1.4-7c11.21,0,14,2.2,14.71,4.17l.7,2.8"/><path class="cls-1" d="M165,164.79l.7-2.8c.7-2.1,3.5-4.2,14.71-4.2l1.4,7"/><line class="cls-1" x1="180.38" y1="140.98" x2="183.18" y2="140.98"/><line class="cls-1" x1="181.78" y1="141.68" x2="181.78" y2="140.98"/><line class="cls-1" x1="187.38" y1="140.98" x2="190.19" y2="140.98"/><line class="cls-1" x1="188.78" y1="141.68" x2="188.78" y2="140.98"/><circle class="cls-1" cx="185.28" cy="159.19" r="1.4"/><line class="cls-1" x1="185.28" y1="164.79" x2="185.28" y2="160.59"/><path class="cls-1" d="M194.81,146.19a2.8,2.8,0,0,1-1.87,4.88h-4.2"/><circle class="cls-1" cx="187.38" cy="151.05" r="1.4"/><path class="cls-1" d="M183.18,149.65h0a2.49,2.49,0,0,1-2.1-1.4"/><path class="cls-1" d="M193,136.77s-2.8-2.8-2.8-5.6c-1.43,2.38-9.81,2.8-12.61,2.8a16.48,16.48,0,0,1-1.4,5.6,1.37,1.37,0,0,1-1.4-1.4,1.4,1.4,0,0,0-1.4,1.4v2.8a1.4,1.4,0,0,0,1.4,1.4,56.05,56.05,0,0,0,3.5,7.7c.87,1.3,2.1,3.5,7,3.5s6.14-2.2,7-3.5a56.05,56.05,0,0,0,3.5-7.7,1.4,1.4,0,0,0,1.4-1.4v-2.8a1.4,1.4,0,0,0-1.4-1.4V134s0-7.7-7-7.7c.7-1.4-1-2.1-3.5-2.1-11.91,0-11.91,11.21-11.91,11.21"/><path class="cls-1" d="M15.78,134.67c0,5.6-5.6,8.4-5.6,8.4a1.4,1.4,0,0,0-1.4,1.4v2.8a1.4,1.4,0,0,0,1.4,1.4s1.4,6.3,2.8,8.4a8.48,8.48,0,0,0,7.7,4.2,8.48,8.48,0,0,0,7.7-4.2c1.4-2.1,2.8-8.4,2.8-8.4a1.4,1.4,0,0,0,1.4-1.4v-2.8a1.4,1.4,0,0,0-1.4-1.4v-4.2s0-8.4-10.51-8.4c-11.91,0-11.91,9.81-11.91,9.81"/><path class="cls-1" d="M24.19,134.67c0,5.6,4.9,5.6,4.9,5.6"/><line class="cls-1" x1="14.38" y1="146.58" x2="11.58" y2="144.48"/><line class="cls-1" x1="29.79" y1="144.48" x2="26.99" y2="146.58"/><path class="cls-1" d="M18.59,144.48h-2.8a1.4,1.4,0,0,0-1.4,1.4v.7a2.1,2.1,0,0,0,2.1,2.1h1.4a2.1,2.1,0,0,0,2.1-2.1v-.7A1.4,1.4,0,0,0,18.59,144.48Z"/><path class="cls-1" d="M25.59,144.48h-2.8a1.4,1.4,0,0,0-1.4,1.4v.7a2.1,2.1,0,0,0,2.1,2.1h1.4a2.1,2.1,0,0,0,2.1-2.1v-.7A1.4,1.4,0,0,0,25.59,144.48Z"/><path class="cls-1" d="M24.89,171.09l1.4-7c9.81,0,13.35,2.2,14,4.17l.7,2.8"/><path class="cls-1" d="M.38,171.09l.7-2.8c.7-2.1,2.8-4.2,14-4.2l1.4,7"/><circle class="cls-1" cx="20.69" cy="165.49"/><circle class="cls-1" cx="20.69" cy="168.29"/><circle class="cls-1" cx="20.69" cy="171.09"/><line class="cls-1" x1="21.39" y1="157.09" x2="19.99" y2="157.09"/><path class="cls-1" d="M23.49,155a7,7,0,0,1-2.8-.7,7,7,0,0,1-2.8.7"/><path class="cls-1" d="M112.44,138.87c-5.6,4.2-18.21,4.2-18.21,4.2v2.8c0,2.8,2.1,8.4,2.8,9.81s4.2,5.6,7.7,5.6,7-4.2,7.7-5.6,2.8-7,2.8-9.81c0,0-2.8-2.1-2.8-4.2"/><path class="cls-1" d="M120.84,162.69a38.16,38.16,0,0,1-2.1-11.91v-6.3c0-6.3-2.1-12.61-6.3-11.91.7-2.1-4.39-2.1-7.7-2.1-8.4,0-14,4.2-14,14v6.3a44.41,44.41,0,0,1-2.1,11.91"/><path class="cls-1" d="M102.63,155.68a3.5,3.5,0,0,0,4.2,0"/><path class="cls-1" d="M91.43,165.49c-5.6,1.4-7,5.6-7,5.6"/><path class="cls-1" d="M118,165.49c5.6,1.4,7,5.6,7,5.6"/><path class="cls-1" d="M115.24,165.49l-2.8-1.4-4.2,2.8v2.8a5.08,5.08,0,0,1-7,0v-2.8l-4.2-2.8-2.8,1.4"/><line class="cls-1" x1="94.23" y1="165.49" x2="98.43" y2="168.29"/><line class="cls-1" x1="115.24" y1="165.49" x2="111.04" y2="168.29"/><path class="cls-1" d="M106.84,148a1.75,1.75,0,0,1,2.8,0"/><line class="cls-1" x1="108.24" y1="148.68" x2="108.24" y2="147.28"/><path class="cls-1" d="M99.83,148a1.75,1.75,0,0,1,2.8,0"/><line class="cls-1" x1="101.23" y1="148.68" x2="101.23" y2="147.28"/><line class="cls-1" x1="94.23" y1="152.88" x2="94.23" y2="154.28"/><line class="cls-1" x1="115.24" y1="152.88" x2="115.24" y2="154.28"/><path class="cls-1" d="M71.48,89c-3.28,2.46-10.68,2.46-10.68,2.46v1.64a19.18,19.18,0,0,0,1.64,5.75c.41.82,2.46,3.28,4.52,3.28s4.11-2.46,4.52-3.28a19.18,19.18,0,0,0,1.64-5.75s-1.64-1.23-1.64-2.46"/><path class="cls-1" d="M76.41,102.92a22.37,22.37,0,0,1-1.23-7v-3.7c0-3.7-1.23-7.39-3.7-7C71.89,84,68.9,84,67,84c-4.93,0-8.21,2.46-8.21,8.21v3.7a26,26,0,0,1-1.23,7"/><path class="cls-1" d="M65.73,98.82a2.05,2.05,0,0,0,2.46,0"/><path class="cls-1" d="M59.16,104.57a5.66,5.66,0,0,0-4.11,3.28"/><path class="cls-1" d="M74.76,104.57a5.66,5.66,0,0,1,4.11,3.28"/><path class="cls-1" d="M73.12,104.57l-1.64-.82L69,105.39V107a3,3,0,0,1-4.11,0v-1.64l-2.46-1.64-1.64.82"/><line class="cls-1" x1="60.8" y1="104.57" x2="63.27" y2="106.21"/><line class="cls-1" x1="73.12" y1="104.57" x2="70.66" y2="106.21"/><path class="cls-1" d="M68.19,94.3a1,1,0,0,1,1.64,0"/><line class="cls-1" x1="69.01" y1="94.71" x2="69.01" y2="93.89"/><path class="cls-1" d="M64.09,94.3a1,1,0,0,1,1.64,0"/><line class="cls-1" x1="64.91" y1="94.71" x2="64.91" y2="93.89"/><line class="cls-1" x1="60.8" y1="97.18" x2="60.8" y2="98"/><line class="cls-1" x1="73.12" y1="97.18" x2="73.12" y2="98"/><path class="cls-1" d="M68.31,126.27s-2.8-2.8-2.8-5.6c-1.43,2.38-8.4,4.2-12.61,4.2a10,10,0,0,1-1.4,4.2,1.37,1.37,0,0,1-1.4-1.4,1.4,1.4,0,0,0-1.4,1.4v2.8a1.4,1.4,0,0,0,1.4,1.4s1.4,4.2,2.1,5.6,3.5,5.6,8.4,5.6,7.7-4.2,8.4-5.6,2.1-5.6,2.1-5.6a1.4,1.4,0,0,0,1.4-1.4v-2.8a1.4,1.4,0,0,0-1.4-1.4v-4.2s0-7.7-7-7.7c.7-1.4-1-2.1-3.5-2.1-11.91,0-11.91,11.21-11.91,11.21"/><path class="cls-1" d="M40.3,154.28l.7-2.8c.7-2.1,3.5-4.2,14.71-4.2,0,0,0,4.9,4.9,4.9s4.9-4.87,4.9-4.87c9.81,0,14,2.2,14.71,4.17l.7,2.8"/><line class="cls-1" x1="55.71" y1="145.88" x2="55.71" y2="147.28"/><line class="cls-1" x1="65.51" y1="145.88" x2="65.51" y2="147.28"/><circle class="cls-1" cx="60.61" cy="136.07"/><path class="cls-1" d="M58.51,138.87a3.5,3.5,0,0,0,4.2,0"/><line class="cls-1" x1="55.71" y1="130.47" x2="58.51" y2="130.47"/><line class="cls-1" x1="57.11" y1="131.17" x2="57.11" y2="130.47"/><line class="cls-1" x1="62.71" y1="130.47" x2="65.51" y2="130.47"/><line class="cls-1" x1="64.11" y1="131.17" x2="64.11" y2="130.47"/><path class="cls-1" d="M124.77,99.86S123,98.07,123,96.28c-.91,1.52-5.36,2.68-8,2.68a6.35,6.35,0,0,1-.89,2.68.88.88,0,0,1-.89-.89.89.89,0,0,0-.89.89v1.79a.89.89,0,0,0,.89.89s.89,2.68,1.34,3.57,2.23,3.57,5.36,3.57,4.91-2.68,5.36-3.57,1.34-3.57,1.34-3.57a.89.89,0,0,0,.89-.89v-1.79a.89.89,0,0,0-.89-.89V98.07s0-4.91-4.47-4.91c.45-.89-.61-1.34-2.23-1.34-7.6,0-7.6,7.15-7.6,7.15"/><path class="cls-1" d="M106.9,117.73l.45-1.79c.45-1.34,2.23-2.68,9.38-2.68a3.13,3.13,0,0,0,6.26,0c6.26,0,9,1.4,9.38,2.66l.45,1.79"/><line class="cls-1" x1="116.73" y1="112.37" x2="116.73" y2="113.26"/><line class="cls-1" x1="122.98" y1="112.37" x2="122.98" y2="113.26"/><circle class="cls-1" cx="119.85" cy="106.11"/><path class="cls-1" d="M118.51,107.9a2.23,2.23,0,0,0,2.68,0"/><line class="cls-1" x1="116.73" y1="102.54" x2="118.51" y2="102.54"/><line class="cls-1" x1="117.62" y1="102.98" x2="117.62" y2="102.54"/><line class="cls-1" x1="121.2" y1="102.54" x2="122.98" y2="102.54"/><line class="cls-1" x1="122.09" y1="102.98" x2="122.09" y2="102.54"/><path class="cls-1" d="M34.94,108.74s-1.79-1.79-1.79-3.57c-.91,1.52-5.36,2.68-8,2.68a6.35,6.35,0,0,1-.89,2.68.88.88,0,0,1-.89-.89.89.89,0,0,0-.89.89v1.79a.89.89,0,0,0,.89.89s.89,2.68,1.34,3.57,2.23,3.57,5.36,3.57,4.91-2.68,5.36-3.57,1.34-3.57,1.34-3.57a.89.89,0,0,0,.89-.89v-1.79a.89.89,0,0,0-.89-.89V107s0-4.91-4.47-4.91c.45-.89-.61-1.34-2.23-1.34-7.6,0-7.6,7.15-7.6,7.15"/><path class="cls-1" d="M17.07,126.62l.45-1.79c.45-1.34,2.23-2.68,9.38-2.68a3.13,3.13,0,0,0,6.26,0c6.26,0,9,1.4,9.38,2.66l.45,1.79"/><line class="cls-1" x1="26.9" y1="121.26" x2="26.9" y2="122.15"/><line class="cls-1" x1="33.15" y1="121.26" x2="33.15" y2="122.15"/><circle class="cls-1" cx="30.03" cy="115"/><path class="cls-1" d="M28.69,116.79a2.23,2.23,0,0,0,2.68,0"/><line class="cls-1" x1="26.9" y1="111.43" x2="28.69" y2="111.43"/><line class="cls-1" x1="27.79" y1="111.87" x2="27.79" y2="111.43"/><line class="cls-1" x1="31.37" y1="111.43" x2="33.15" y2="111.43"/><line class="cls-1" x1="32.26" y1="111.87" x2="32.26" y2="111.43"/><path class="cls-1" d="M99.14,107.38s-1.79-1.79-1.79-3.57c-.91,1.52-5.36,2.68-8,2.68a6.35,6.35,0,0,1-.89,2.68.88.88,0,0,1-.89-.89.89.89,0,0,0-.89.89V111a.89.89,0,0,0,.89.89s.89,2.68,1.34,3.57S91.1,119,94.23,119s4.91-2.68,5.36-3.57,1.34-3.57,1.34-3.57a.89.89,0,0,0,.89-.89v-1.79a.89.89,0,0,0-.89-.89v-2.68s0-4.91-4.47-4.91c.45-.89-.61-1.34-2.23-1.34-7.6,0-7.6,7.15-7.6,7.15"/><path class="cls-1" d="M81.27,125.25l.45-1.79c.45-1.34,2.23-2.68,9.38-2.68a3.13,3.13,0,0,0,6.26,0c6.26,0,9,1.4,9.38,2.66l.45,1.79"/><line class="cls-1" x1="91.1" y1="119.89" x2="91.1" y2="120.78"/><line class="cls-1" x1="97.36" y1="119.89" x2="97.36" y2="120.78"/><circle class="cls-1" cx="94.23" cy="113.64"/><path class="cls-1" d="M92.89,115.42a2.23,2.23,0,0,0,2.68,0"/><line class="cls-1" x1="91.1" y1="110.06" x2="92.89" y2="110.06"/><line class="cls-1" x1="92" y1="110.51" x2="92" y2="110.06"/><line class="cls-1" x1="95.57" y1="110.06" x2="97.36" y2="110.06"/><line class="cls-1" x1="96.46" y1="110.51" x2="96.46" y2="110.06"/><path class="cls-1" d="M146.76,120.66q0,8.4,6.3,16.81c-.7,1.4-4.2,7-8.4,7s-7.7-5.6-8.4-7a24.48,24.48,0,0,1-2.1-8.4v-2.8a44.3,44.3,0,0,0,10.51-1.4"/><path class="cls-1" d="M160.57,149.38c2.1.91,3.41,2,3.7,2.87l.7,2.1"/><path class="cls-1" d="M124.35,154.28l.7-2.1c.7-2.1,4.9-4.9,14.71-4.9,0,0,0,4.9,4.9,4.9s4.9-4.87,4.9-4.87"/><line class="cls-1" x1="139.76" y1="145.88" x2="139.76" y2="147.28"/><line class="cls-1" x1="149.56" y1="145.88" x2="149.56" y2="147.28"/><path class="cls-1" d="M142.56,138.87a3.5,3.5,0,0,0,4.2,0"/><circle class="cls-1" cx="144.66" cy="136.07"/><path class="cls-1" d="M139.76,131.17a1.75,1.75,0,0,1,2.8,0"/><line class="cls-1" x1="141.16" y1="131.87" x2="141.16" y2="130.47"/><path class="cls-1" d="M128.55,145.88a44.41,44.41,0,0,0,2.1-11.91v-6.3c0-9.81,5.6-14,14-14s14,7.7,14,14v1.4c0,5.6-6.3,12.61-6.3,16.81a10.72,10.72,0,0,0,2.8,7,10.72,10.72,0,0,0,2.8-7c0-4.2-1.4-5.6-1.4-5.6"/></g></g></svg>