<?xml version="1.0" encoding="UTF-8"?>
<svg width="57px" height="47px" viewBox="0 0 57 47" version="1.1" xmlns="http://www.w3.org/2000/svg" xmlns:xlink="http://www.w3.org/1999/xlink">
    <!-- Generator: sketchtool 51.2 (57519) - http://www.bohemiancoding.com/sketch -->
    <title>5453C519-F070-4967-9F4B-51D7E5B9C1B8</title>
    <desc>Created with sketchtool.</desc>
    <defs>
        <path d="M0.643,0.741 L0.643,27.045 C0.643,32.328 4.925,36.611 10.208,36.611 L46.078,36.611 C51.361,36.611 55.644,32.328 55.644,27.045 L55.644,0.741 L0.643,0.741 Z" id="path-1"></path>
        <path d="M0.643,0.741 L0.643,27.045 C0.643,32.328 4.925,36.611 10.208,36.611 L46.078,36.611 C51.361,36.611 55.644,32.328 55.644,27.045 L55.644,0.741" id="path-3"></path>
        <path d="M0.643,0.741 L0.643,27.045 C0.643,32.328 4.925,36.611 10.208,36.611 L46.078,36.611 C51.361,36.611 55.644,32.328 55.644,27.045 L55.644,0.741" id="path-5"></path>
        <path d="M0.643,0.741 L0.643,27.045 C0.643,32.328 4.925,36.611 10.208,36.611 L46.078,36.611 C51.361,36.611 55.644,32.328 55.644,27.045 L55.644,0.741" id="path-7"></path>
        <path d="M0.643,0.741 L0.643,27.045 C0.643,32.328 4.925,36.611 10.208,36.611 L46.078,36.611 C51.361,36.611 55.644,32.328 55.644,27.045 L55.644,0.741 L0.643,0.741 Z" id="path-9"></path>
        <path d="M0.643,0.741 L0.643,27.045 C0.643,32.328 4.925,36.611 10.208,36.611 L46.078,36.611 C51.361,36.611 55.644,32.328 55.644,27.045 L55.644,0.741" id="path-11"></path>
        <path d="M0.643,0.741 L0.643,27.045 C0.643,32.328 4.925,36.611 10.208,36.611 L46.078,36.611 C51.361,36.611 55.644,32.328 55.644,27.045 L55.644,0.741" id="path-13"></path>
        <path d="M0.643,0.741 L0.643,27.045 C0.643,32.328 4.925,36.611 10.208,36.611 L46.078,36.611 C51.361,36.611 55.644,32.328 55.644,27.045 L55.644,0.741" id="path-15"></path>
        <path d="M0.643,0.741 L0.643,27.045 C0.643,32.328 4.925,36.611 10.208,36.611 L46.078,36.611 C51.361,36.611 55.644,32.328 55.644,27.045 L55.644,0.741 L0.643,0.741 Z" id="path-17"></path>
        <path d="M0.643,0.741 L0.643,27.045 C0.643,32.328 4.925,36.611 10.208,36.611 L46.078,36.611 C51.361,36.611 55.644,32.328 55.644,27.045 L55.644,0.741" id="path-19"></path>
        <path d="M0.643,0.741 L0.643,27.045 C0.643,32.328 4.925,36.611 10.208,36.611 L46.078,36.611 C51.361,36.611 55.644,32.328 55.644,27.045 L55.644,0.741" id="path-21"></path>
        <path d="M0.643,0.741 L0.643,27.045 C0.643,32.328 4.925,36.611 10.208,36.611 L46.078,36.611 C51.361,36.611 55.644,32.328 55.644,27.045 L55.644,0.741" id="path-23"></path>
    </defs>
    <g id="Page-1" stroke="none" stroke-width="1" fill="none" fill-rule="evenodd">
        <g id="assets_homepage" transform="translate(-295.000000, -100.000000)">
            <g id="icon_compare" transform="translate(295.000000, 100.000000)">
                <g id="Group-53">
                    <g id="Group-13" transform="translate(0.000000, 0.170000)" stroke="#298499" stroke-width="1.158">
                        <path d="M46.078,36.6107 L10.208,36.6107 C4.926,36.6107 0.643,32.3277 0.643,27.0457 L0.643,0.7407 L55.643,0.7407 L55.643,27.0457 C55.643,32.3277 51.361,36.6107 46.078,36.6107 Z" id="Stroke-5"></path>
                        <path d="M14.9911,46.1756 L41.2951,46.1756" id="Stroke-7"></path>
                        <path d="M22.1649,36.6107 L19.7739,46.1757" id="Stroke-9"></path>
                        <path d="M34.1214,36.6107 L36.5134,46.1757" id="Stroke-11"></path>
                    </g>
                    <g id="Group-50" transform="translate(0.000000, 0.170000)">
                        <g id="Group-16">
                            <mask id="mask-2" fill="white">
                                <use xlink:href="#path-1"></use>
                            </mask>
                            <g id="Clip-15"></g>
                            <path d="M7.0926,31.7806 L-4.3504,31.7806 L-4.3504,7.8546 L13.3336,7.8546 L13.3336,25.5386 C13.3336,28.9866 10.5396,31.7806 7.0926,31.7806 Z" id="Stroke-14" stroke="#298499" stroke-width="1.158" mask="url(#mask-2)"></path>
                        </g>
                        <g id="Group-19">
                            <mask id="mask-4" fill="white">
                                <use xlink:href="#path-3"></use>
                            </mask>
                            <g id="Clip-18"></g>
                            <path d="M0.3309,15.1365 L8.6529,15.1365" id="Stroke-17" stroke="#298499" stroke-width="1.158" mask="url(#mask-4)"></path>
                        </g>
                        <g id="Group-22">
                            <mask id="mask-6" fill="white">
                                <use xlink:href="#path-5"></use>
                            </mask>
                            <g id="Clip-21"></g>
                            <path d="M0.3309,19.2972 L8.6529,19.2972" id="Stroke-20" stroke="#298499" stroke-width="1.158" mask="url(#mask-6)"></path>
                        </g>
                        <g id="Group-25">
                            <mask id="mask-8" fill="white">
                                <use xlink:href="#path-7"></use>
                            </mask>
                            <g id="Clip-24"></g>
                            <path d="M0.3309,23.4583 L6.5719,23.4583" id="Stroke-23" stroke="#298499" stroke-width="1.158" mask="url(#mask-8)"></path>
                        </g>
                        <g id="Group-28">
                            <mask id="mask-10" fill="white">
                                <use xlink:href="#path-9"></use>
                            </mask>
                            <g id="Clip-27"></g>
                            <path d="M31.784,31.7806 L20.341,31.7806 L20.341,7.8546 L38.026,7.8546 L38.026,25.5386 C38.026,28.9866 35.231,31.7806 31.784,31.7806 Z" id="Stroke-26" stroke="#298499" stroke-width="1.158" mask="url(#mask-10)"></path>
                        </g>
                        <g id="Group-31">
                            <mask id="mask-12" fill="white">
                                <use xlink:href="#path-11"></use>
                            </mask>
                            <g id="Clip-30"></g>
                            <path d="M25.0223,15.1365 L33.3443,15.1365" id="Stroke-29" stroke="#298499" stroke-width="1.158" mask="url(#mask-12)"></path>
                        </g>
                        <g id="Group-34">
                            <mask id="mask-14" fill="white">
                                <use xlink:href="#path-13"></use>
                            </mask>
                            <g id="Clip-33"></g>
                            <path d="M25.0223,19.2972 L33.3443,19.2972" id="Stroke-32" stroke="#298499" stroke-width="1.158" mask="url(#mask-14)"></path>
                        </g>
                        <g id="Group-37">
                            <mask id="mask-16" fill="white">
                                <use xlink:href="#path-15"></use>
                            </mask>
                            <g id="Clip-36"></g>
                            <path d="M25.0223,23.4583 L31.2643,23.4583" id="Stroke-35" stroke="#298499" stroke-width="1.158" mask="url(#mask-16)"></path>
                        </g>
                        <g id="Group-40">
                            <mask id="mask-18" fill="white">
                                <use xlink:href="#path-17"></use>
                            </mask>
                            <g id="Clip-39"></g>
                            <path d="M56.4759,31.7806 L45.0329,31.7806 L45.0329,7.8546 L62.7179,7.8546 L62.7179,25.5386 C62.7179,28.9866 59.9229,31.7806 56.4759,31.7806 Z" id="Stroke-38" stroke="#298499" stroke-width="1.158" mask="url(#mask-18)"></path>
                        </g>
                        <g id="Group-43">
                            <mask id="mask-20" fill="white">
                                <use xlink:href="#path-19"></use>
                            </mask>
                            <g id="Clip-42"></g>
                            <path d="M49.7142,15.1365 L58.0362,15.1365" id="Stroke-41" stroke="#298499" stroke-width="1.158" mask="url(#mask-20)"></path>
                        </g>
                        <g id="Group-46">
                            <mask id="mask-22" fill="white">
                                <use xlink:href="#path-21"></use>
                            </mask>
                            <g id="Clip-45"></g>
                            <path d="M49.7142,19.2972 L58.0362,19.2972" id="Stroke-44" stroke="#298499" stroke-width="1.158" mask="url(#mask-22)"></path>
                        </g>
                        <g id="Group-49">
                            <mask id="mask-24" fill="white">
                                <use xlink:href="#path-23"></use>
                            </mask>
                            <g id="Clip-48"></g>
                            <path d="M49.7142,23.4583 L55.9562,23.4583" id="Stroke-47" stroke="#298499" stroke-width="1.158" mask="url(#mask-24)"></path>
                        </g>
                    </g>
                </g>
            </g>
        </g>
    </g>
</svg>