<svg xmlns="http://www.w3.org/2000/svg" xmlns:xlink="http://www.w3.org/1999/xlink" viewBox="0 0 185.54 72.87"><defs><style>.cls-1,.cls-2,.cls-5{fill:none;}.cls-2,.cls-5{stroke:#298499;stroke-miterlimit:10;}.cls-3{opacity:0.2;}.cls-4{clip-path:url(#clip-path);}.cls-5{stroke-width:0.82px;}.cls-6{clip-path:url(#clip-path-2);}</style><clipPath id="clip-path" transform="translate(-24.56 -22.58)"><path class="cls-1" d="M144.32,79.82H87.58A15.13,15.13,0,0,1,72.45,64.69V23.08h87V64.69A15.13,15.13,0,0,1,144.32,79.82ZM228,0H0V109H228Z"/></clipPath><clipPath id="clip-path-2" transform="translate(-24.56 -22.58)"><path class="cls-1" d="M143.8,79.82H87.06A15.13,15.13,0,0,1,71.93,64.69V23.08h87V64.69A15.13,15.13,0,0,1,143.8,79.82Z"/></clipPath></defs><title>Asset 4</title><g id="Layer_2" data-name="Layer 2"><g id="features"><g id="Computer"><path class="cls-2" d="M143.8,79.82H87.06A15.13,15.13,0,0,1,71.93,64.69V23.08h87V64.69A15.13,15.13,0,0,1,143.8,79.82Z" transform="translate(-24.56 -22.58)"/><line class="cls-2" x1="70.06" y1="72.37" x2="111.67" y2="72.37"/><line class="cls-2" x1="81.41" y1="57.24" x2="77.63" y2="72.37"/><line class="cls-2" x1="100.32" y1="57.24" x2="104.11" y2="72.37"/></g><g class="cls-3"><g class="cls-4"><g id="File"><path class="cls-5" d="M43.59,72.18H25.49V34.33h28v28A9.87,9.87,0,0,1,43.59,72.18Z" transform="translate(-24.56 -22.58)"/><line class="cls-5" x1="8.33" y1="23.27" x2="21.49" y2="23.27"/><line class="cls-5" x1="8.33" y1="29.85" x2="21.49" y2="29.85"/><line class="cls-5" x1="8.33" y1="36.43" x2="18.2" y2="36.43"/></g><g id="File-2" data-name="File"><path class="cls-5" d="M82.65,72.18H64.55V34.33h28v28A9.87,9.87,0,0,1,82.65,72.18Z" transform="translate(-24.56 -22.58)"/><line class="cls-5" x1="47.39" y1="23.27" x2="60.55" y2="23.27"/><line class="cls-5" x1="47.39" y1="29.85" x2="60.55" y2="29.85"/><line class="cls-5" x1="47.39" y1="36.43" x2="57.26" y2="36.43"/></g><g id="File-3" data-name="File"><path class="cls-5" d="M121.71,72.18h-18.1V34.33h28v28A9.87,9.87,0,0,1,121.71,72.18Z" transform="translate(-24.56 -22.58)"/><line class="cls-5" x1="86.45" y1="23.27" x2="99.61" y2="23.27"/><line class="cls-5" x1="86.45" y1="29.85" x2="99.61" y2="29.85"/><line class="cls-5" x1="86.45" y1="36.43" x2="96.32" y2="36.43"/></g><g id="File-4" data-name="File"><path class="cls-5" d="M160.76,72.18h-18.1V34.33h28v28A9.87,9.87,0,0,1,160.76,72.18Z" transform="translate(-24.56 -22.58)"/><line class="cls-5" x1="125.5" y1="23.27" x2="138.67" y2="23.27"/><line class="cls-5" x1="125.5" y1="29.85" x2="138.67" y2="29.85"/><line class="cls-5" x1="125.5" y1="36.43" x2="135.38" y2="36.43"/></g><g id="File-5" data-name="File"><path class="cls-5" d="M199.82,72.18h-18.1V34.33h28v28A9.87,9.87,0,0,1,199.82,72.18Z" transform="translate(-24.56 -22.58)"/><line class="cls-5" x1="164.56" y1="23.27" x2="177.73" y2="23.27"/><line class="cls-5" x1="164.56" y1="29.85" x2="177.73" y2="29.85"/><line class="cls-5" x1="164.56" y1="36.43" x2="174.43" y2="36.43"/></g></g></g><g class="cls-6"><g id="File-6" data-name="File"><path class="cls-5" d="M43.08,72.18H25V34.33h28v28A9.87,9.87,0,0,1,43.08,72.18Z" transform="translate(-24.56 -22.58)"/><line class="cls-5" x1="7.82" y1="23.27" x2="20.98" y2="23.27"/><line class="cls-5" x1="7.82" y1="29.85" x2="20.98" y2="29.85"/><line class="cls-5" x1="7.82" y1="36.43" x2="17.69" y2="36.43"/></g><g id="File-7" data-name="File"><path class="cls-5" d="M82.13,72.18H64V34.33H92v28A9.87,9.87,0,0,1,82.13,72.18Z" transform="translate(-24.56 -22.58)"/><line class="cls-5" x1="46.87" y1="23.27" x2="60.04" y2="23.27"/><line class="cls-5" x1="46.87" y1="29.85" x2="60.04" y2="29.85"/><line class="cls-5" x1="46.87" y1="36.43" x2="56.75" y2="36.43"/></g><g id="File-8" data-name="File"><path class="cls-5" d="M121.19,72.18h-18.1V34.33h28v28A9.87,9.87,0,0,1,121.19,72.18Z" transform="translate(-24.56 -22.58)"/><line class="cls-5" x1="85.93" y1="23.27" x2="99.1" y2="23.27"/><line class="cls-5" x1="85.93" y1="29.85" x2="99.1" y2="29.85"/><line class="cls-5" x1="85.93" y1="36.43" x2="95.8" y2="36.43"/></g><g id="File-9" data-name="File"><path class="cls-5" d="M160.25,72.18h-18.1V34.33h28v28A9.87,9.87,0,0,1,160.25,72.18Z" transform="translate(-24.56 -22.58)"/><line class="cls-5" x1="124.99" y1="23.27" x2="138.15" y2="23.27"/><line class="cls-5" x1="124.99" y1="29.85" x2="138.15" y2="29.85"/><line class="cls-5" x1="124.99" y1="36.43" x2="134.86" y2="36.43"/></g><g id="File-10" data-name="File"><path class="cls-5" d="M199.31,72.18h-18.1V34.33h28v28A9.87,9.87,0,0,1,199.31,72.18Z" transform="translate(-24.56 -22.58)"/><line class="cls-5" x1="164.05" y1="23.27" x2="177.21" y2="23.27"/><line class="cls-5" x1="164.05" y1="29.85" x2="177.21" y2="29.85"/><line class="cls-5" x1="164.05" y1="36.43" x2="173.92" y2="36.43"/></g></g></g></g></svg>