<?xml version="1.0" encoding="UTF-8"?>
<svg width="48px" height="48px" viewBox="0 0 48 48" version="1.1" xmlns="http://www.w3.org/2000/svg" xmlns:xlink="http://www.w3.org/1999/xlink">
    <!-- Generator: sketchtool 51.2 (57519) - http://www.bohemiancoding.com/sketch -->
    <title>CA6E2348-D4B6-44A5-B642-C0E7461B8F11</title>
    <desc>Created with sketchtool.</desc>
    <defs></defs>
    <g id="Page-1" stroke="none" stroke-width="1" fill="none" fill-rule="evenodd">
        <g id="assets_homepage" transform="translate(-295.000000, -198.000000)" stroke="#298499">
            <g id="Group-9" transform="translate(295.000000, 199.000000)">
                <path d="M44,35 L19.245,35 C15.349,35 12.019,32.192 11.36,28.352 L6.5,0 L0,0" id="Stroke-1"></path>
                <path d="M8,8 L47,8 L44.564,19.57 C43.64,23.962 39.902,27.2 35.422,27.489 L11.507,29.032" id="Stroke-3"></path>
                <path d="M19,42.5 C19,44.433 17.433,46 15.5,46 C13.567,46 12,44.433 12,42.5 C12,40.567 13.567,39 15.5,39 C17.433,39 19,40.567 19,42.5 Z" id="Stroke-5"></path>
                <path d="M43,42.5 C43,44.433 41.433,46 39.5,46 C37.567,46 36,44.433 36,42.5 C36,40.567 37.567,39 39.5,39 C41.433,39 43,40.567 43,42.5 Z" id="Stroke-7"></path>
            </g>
        </g>
    </g>
</svg>