<svg xmlns="http://www.w3.org/2000/svg" viewBox="0 0 121.31 75.06"><defs><style>.cls-1,.cls-3{fill:none;stroke:#298499;stroke-miterlimit:10;}.cls-2{fill:#fff;}.cls-3{stroke-width:0.7px;}.cls-4{opacity:0.2;}.cls-5{font-size:14.72px;opacity:0.2;}.cls-5,.cls-6{fill:#298499;font-family:VisbyCF-Medium, Visby CF;}.cls-6{font-size:40px;}</style></defs><title>Asset 6</title><g id="Layer_2" data-name="Layer 2"><g id="features"><g id="Tablet"><rect class="cls-1" x="0.5" y="0.5" width="77.46" height="60.62" rx="6.74" ry="6.74"/><circle class="cls-1" cx="7.24" cy="30.81" r="3.37"/><line class="cls-1" x1="13.97" y1="61.12" x2="13.97" y2="0.5"/></g><circle class="cls-2" cx="92.15" cy="45.96" r="24.68"/><g id="Magic_Wand" data-name="Magic Wand"><g id="Loading"><line class="cls-1" x1="92.6" y1="27.36" x2="92.6" y2="35.36"/><line class="cls-1" x1="81.6" y1="46.36" x2="73.6" y2="46.36"/><line class="cls-1" x1="106.91" y1="32.04" x2="101.26" y2="37.7"/><line class="cls-1" x1="83.94" y1="55.01" x2="78.28" y2="60.67"/><line class="cls-1" x1="83.94" y1="37.7" x2="78.29" y2="32.04"/></g><rect class="cls-1" x="102.04" y="39.8" width="6" height="38" transform="translate(-10.81 91.5) rotate(-45)"/><line class="cls-1" x1="100.6" y1="49.86" x2="96.1" y2="54.36"/></g><g id="File"><path class="cls-3" d="M63.76,46H48.34V13.73H72.18V37.56A8.41,8.41,0,0,1,63.76,46Z"/></g><g id="File-2" data-name="File" class="cls-4"><path class="cls-3" d="M35.6,46H20.18V13.73H44V37.56A8.41,8.41,0,0,1,35.6,46Z"/></g><text class="cls-5" transform="translate(27.39 34.38)">A</text><text class="cls-6" transform="translate(52.2 40.53)">+</text></g></g></svg>