<svg xmlns="http://www.w3.org/2000/svg" viewBox="0 0 171.76 100.07"><defs><style>.cls-1,.cls-2,.cls-4,.cls-5,.cls-6{fill:none;stroke-miterlimit:10;}.cls-1,.cls-2,.cls-4,.cls-5{stroke:#298499;}.cls-1{stroke-width:0.95px;}.cls-2{stroke-width:1.16px;}.cls-3{opacity:0.2;}.cls-4{stroke-width:0.81px;}.cls-5{stroke-width:0.69px;}.cls-6{stroke:#abd0d6;stroke-width:0.58px;}.cls-7{font-size:24.32px;}.cls-7,.cls-8{fill:#298499;font-family:VisbyCF-Medium, Visby CF;}.cls-8{font-size:17.05px;opacity:0.2;}</style></defs><title>Asset 5</title><g id="Layer_2" data-name="Layer 2"><g id="features"><g id="File"><path class="cls-1" d="M32.13,81.18H6.66V27.91H46V67.28A13.89,13.89,0,0,1,32.13,81.18Z"/></g><g id="File-2" data-name="File"><path class="cls-2" d="M84.22,80H58.74V26.75H98.11V66.12A13.89,13.89,0,0,1,84.22,80Z"/></g><g id="File-3" data-name="File" class="cls-3"><path class="cls-4" d="M128.42,74.23H110.57V36.89h27.6v27.6A9.74,9.74,0,0,1,128.42,74.23Z"/></g><polyline id="Chevon_-_Left" data-name="Chevon - Left" class="cls-5" points="74.6 6.67 67.95 13.32 74.6 19.97"/><polyline id="Chevon_-_Left-2" data-name="Chevon - Left" class="cls-5" points="83.04 19.97 89.69 13.32 83.04 6.67"/><rect class="cls-6" x="52.09" y="0.29" width="52.11" height="99.49"/><rect class="cls-6" x="0.29" y="19.97" width="52.11" height="72.57"/><text class="cls-7" transform="translate(17.75 61.2)">A</text><text class="cls-7" transform="translate(71.18 60.04)">B</text><text class="cls-8" transform="translate(118.78 60.23)">C</text><g id="File-4" data-name="File" class="cls-3"><path class="cls-4" d="M161.62,74.23H143.76V36.89h27.6v27.6A9.74,9.74,0,0,1,161.62,74.23Z"/></g><text class="cls-8" transform="translate(151.84 60.23)">D</text></g></g></svg>