<svg xmlns="http://www.w3.org/2000/svg" viewBox="0 0 23.08 23.08" width="23" height="23" preserveAspectRatio="xMinYMid"><defs><style>.cls-1{fill:#fff;}</style></defs><title>Asset 2</title><g id="Layer_2" data-name="Layer 2"><g id="SCENE1"><path class="cls-1" d="M11.54,0A11.54,11.54,0,1,0,23.08,11.54,11.54,11.54,0,0,0,11.54,0Zm5.14,9.9-5.44,5.44a1,1,0,0,1-1.44,0L7.11,12.65a1.29,1.29,0,0,1,0-1.83l0,0A1.29,1.29,0,0,1,9,10.8l1.56,1.56,4.31-4.31a1.29,1.29,0,0,1,1.83,0l0,0A1.29,1.29,0,0,1,16.67,9.9Z"/></g></g></svg>
