<svg fill="#E1E1E1" width="45" height="20" viewBox="0 0 45 20" version="1.1" xmlns="http://www.w3.org/2000/svg" xmlns:xlink="http://www.w3.org/1999/xlink">
<title>Group 7</title>
<desc>Created using Figma</desc>
<g id="Canvas" transform="translate(11699 1615)">
<g id="Group 7">
<g id="Stroke 1" transform="translate(-11698 -1603)">
<path d="M 43.4206 7.29454L 43.4206 7.79454L 43.9206 7.79454L 43.9206 7.29454L 43.4206 7.29454ZM 0 7.29454L -0.5 7.29454L -0.5 7.79454L 0 7.79454L 0 7.29454ZM 42.9206 0L 42.9206 7.29454L 43.9206 7.29454L 43.9206 0L 42.9206 0ZM 43.4206 6.79454L 0 6.79454L 0 7.79454L 43.4206 7.79454L 43.4206 6.79454ZM 0.5 7.29454L 0.5 0L -0.5 0L -0.5 7.29454L 0.5 7.29454Z"/>
</g>
<g id="Group 6">
<g id="Path 2" transform="translate(-11678 -1614)">
<path id="path1_stroke" d="M 2 14.5L 2 0.5L 1 0.5L 1 14.5L 2 14.5Z"/>
</g>
<g id="Path 4" transform="translate(-11682 -1613.45)">
<path id="path2_stroke" d="M 5.4556 0L 5.76961 -0.389092L 5.45204 -0.645387L 5.13732 -0.385613L 5.4556 0ZM 0.318281 4.8886L 5.77388 0.385613L 5.13732 -0.385613L -0.318281 4.11738L 0.318281 4.8886ZM 5.14158 0.389092L 10.7211 4.89208L 11.3492 4.1139L 5.76961 -0.389092L 5.14158 0.389092Z"/>
</g>
</g>
</g>
</g>
</svg>
