<svg width="488" height="347" viewBox="0 0 488 347" fill="none" xmlns="http://www.w3.org/2000/svg">
<path d="M68 86H105C114.941 86 123 94.0589 123 104V127" stroke="black" stroke-width="3" stroke-linecap="round"/>
<path d="M68 274H105C114.941 274 123 265.941 123 256V233" stroke="black" stroke-width="3" stroke-linecap="round"/>
<path d="M176 180H214" stroke="#181818" stroke-width="3" stroke-linecap="round"/>
<path d="M38.4162 87.4227C38.4802 94.3083 44.4567 96.5997 44.5229 96.6289C44.4724 96.7905 43.568 99.8943 41.3742 103.1C39.4778 105.872 37.5095 108.634 34.409 108.691C31.3624 108.747 30.3827 106.884 26.8996 106.884C23.4175 106.884 22.3291 108.634 19.4451 108.747C16.4523 108.86 14.1733 105.75 12.2611 102.988C8.35383 97.3392 5.36783 87.0255 9.37727 80.0636C11.3691 76.6063 14.9286 74.417 18.7921 74.3609C21.731 74.3048 24.5049 76.3381 26.3015 76.3381C28.0969 76.3381 31.4678 73.8929 35.0116 74.252C36.4951 74.3138 40.6594 74.8513 43.3334 78.7653C43.118 78.8989 38.3646 81.6661 38.4162 87.4227V87.4227ZM32.6905 70.5148C34.2794 68.5914 35.3488 65.914 35.0571 63.25C32.7668 63.342 29.9973 64.7762 28.3545 66.6984C26.8823 68.4007 25.5929 71.1252 25.9408 73.7365C28.4936 73.934 31.1015 72.4393 32.6905 70.5148" fill="#181818"/>
<g clip-path="url(#clip0)">
<path d="M22.831 259.889L25.3767 255.475C25.5203 255.227 25.4335 254.913 25.1896 254.769C24.9457 254.625 24.6283 254.709 24.488 254.956L21.9089 259.427C19.9412 258.528 17.7262 258.026 15.3443 258.026C12.9623 258.026 10.7473 258.528 8.7796 259.427L6.20051 254.956C6.05686 254.709 5.74282 254.625 5.4956 254.769C5.24838 254.913 5.16487 255.227 5.30852 255.475L7.8542 259.889C3.4644 262.27 0.491096 266.717 0 271.924H30.6885C30.1974 266.717 27.2241 262.27 22.831 259.889ZM8.29853 267.61C7.58694 267.61 7.01232 267.031 7.01232 266.322C7.01232 265.61 7.59028 265.035 8.29853 265.035C9.01012 265.035 9.58474 265.614 9.58474 266.322C9.58809 267.031 9.01012 267.61 8.29853 267.61ZM22.3867 267.61C21.6751 267.61 21.1004 267.031 21.1004 266.322C21.1004 265.61 21.6784 265.035 22.3867 265.035C23.0982 265.035 23.6729 265.614 23.6729 266.322C23.6762 267.031 23.0982 267.61 22.3867 267.61Z" fill="#181818"/>
</g>
<rect x="230" y="20" width="250" height="327" rx="22" fill="#181818"/>
<rect x="239.5" y="13.5" width="247" height="324" rx="20.5" fill="white" stroke="#181818" stroke-width="3"/>
<path d="M323.625 47.625V55.1172C323.625 56.362 323.234 57.3464 322.453 58.0703C321.677 58.7943 320.615 59.1562 319.266 59.1562C317.938 59.1562 316.883 58.8047 316.102 58.1016C315.32 57.3984 314.922 56.4323 314.906 55.2031V47.625H317.25V55.1328C317.25 55.8776 317.427 56.4219 317.781 56.7656C318.141 57.1042 318.635 57.2734 319.266 57.2734C320.583 57.2734 321.253 56.5807 321.273 55.1953V47.625H323.625ZM329.977 56.6641C329.977 56.388 329.839 56.1719 329.562 56.0156C329.292 55.8542 328.854 55.7109 328.25 55.5859C326.24 55.1641 325.234 54.3099 325.234 53.0234C325.234 52.2734 325.544 51.6484 326.164 51.1484C326.789 50.6432 327.604 50.3906 328.609 50.3906C329.682 50.3906 330.539 50.6432 331.18 51.1484C331.826 51.6536 332.148 52.3099 332.148 53.1172H329.891C329.891 52.7943 329.786 52.5286 329.578 52.3203C329.37 52.1068 329.044 52 328.602 52C328.221 52 327.927 52.0859 327.719 52.2578C327.51 52.4297 327.406 52.6484 327.406 52.9141C327.406 53.1641 327.523 53.3672 327.758 53.5234C327.997 53.6745 328.398 53.8073 328.961 53.9219C329.523 54.0312 329.997 54.1562 330.383 54.2969C331.576 54.7344 332.172 55.4922 332.172 56.5703C332.172 57.3411 331.841 57.9661 331.18 58.4453C330.518 58.9193 329.664 59.1562 328.617 59.1562C327.909 59.1562 327.279 59.0312 326.727 58.7812C326.18 58.526 325.75 58.1797 325.438 57.7422C325.125 57.2995 324.969 56.8229 324.969 56.3125H327.109C327.13 56.7135 327.279 57.0208 327.555 57.2344C327.831 57.4479 328.201 57.5547 328.664 57.5547C329.096 57.5547 329.422 57.474 329.641 57.3125C329.865 57.1458 329.977 56.9297 329.977 56.6641ZM337.523 59.1562C336.284 59.1562 335.273 58.776 334.492 58.0156C333.716 57.2552 333.328 56.2422 333.328 54.9766V54.7578C333.328 53.9089 333.492 53.151 333.82 52.4844C334.148 51.8125 334.612 51.2969 335.211 50.9375C335.815 50.5729 336.503 50.3906 337.273 50.3906C338.43 50.3906 339.339 50.7552 340 51.4844C340.667 52.2135 341 53.2474 341 54.5859V55.5078H335.617C335.69 56.0599 335.909 56.5026 336.273 56.8359C336.643 57.1693 337.109 57.3359 337.672 57.3359C338.542 57.3359 339.221 57.0208 339.711 56.3906L340.82 57.6328C340.482 58.112 340.023 58.487 339.445 58.7578C338.867 59.0234 338.227 59.1562 337.523 59.1562ZM337.266 52.2188C336.818 52.2188 336.453 52.3698 336.172 52.6719C335.896 52.974 335.719 53.4062 335.641 53.9688H338.781V53.7891C338.771 53.2891 338.635 52.9036 338.375 52.6328C338.115 52.3568 337.745 52.2188 337.266 52.2188ZM347.039 52.6641C346.732 52.6224 346.461 52.6016 346.227 52.6016C345.372 52.6016 344.812 52.8906 344.547 53.4688V59H342.289V50.5469H344.422L344.484 51.5547C344.938 50.7786 345.565 50.3906 346.367 50.3906C346.617 50.3906 346.852 50.4245 347.07 50.4922L347.039 52.6641ZM356.461 55.7969H354.953L354.391 59H352.961L353.523 55.7969H351.75V54.4531H353.758L354.148 52.2344H352.336V50.875H354.391L354.961 47.625H356.383L355.812 50.875H357.328L357.898 47.625H359.328L358.758 50.875H360.469V52.2344H358.516L358.125 54.4531H359.875V55.7969H357.891L357.328 59H355.898L356.461 55.7969ZM355.188 54.4531H356.695L357.086 52.2344H355.57L355.188 54.4531ZM368.969 50.6484C368.969 51.2005 368.831 51.6901 368.555 52.1172C368.279 52.5443 367.898 52.8854 367.414 53.1406C367.966 53.4062 368.404 53.7734 368.727 54.2422C369.049 54.7057 369.211 55.2526 369.211 55.8828C369.211 56.8932 368.867 57.6927 368.18 58.2812C367.492 58.8646 366.557 59.1562 365.375 59.1562C364.193 59.1562 363.255 58.862 362.562 58.2734C361.87 57.6849 361.523 56.888 361.523 55.8828C361.523 55.2526 361.685 54.7031 362.008 54.2344C362.331 53.7656 362.766 53.401 363.312 53.1406C362.828 52.8854 362.448 52.5443 362.172 52.1172C361.901 51.6901 361.766 51.2005 361.766 50.6484C361.766 49.6797 362.089 48.9089 362.734 48.3359C363.38 47.7578 364.258 47.4688 365.367 47.4688C366.471 47.4688 367.346 47.7552 367.992 48.3281C368.643 48.8958 368.969 49.6693 368.969 50.6484ZM366.945 55.7188C366.945 55.224 366.802 54.8281 366.516 54.5312C366.229 54.2344 365.844 54.0859 365.359 54.0859C364.88 54.0859 364.497 54.2344 364.211 54.5312C363.924 54.8229 363.781 55.2188 363.781 55.7188C363.781 56.2031 363.922 56.5938 364.203 56.8906C364.484 57.1875 364.875 57.3359 365.375 57.3359C365.865 57.3359 366.247 57.1927 366.523 56.9062C366.805 56.6198 366.945 56.224 366.945 55.7188ZM366.711 50.7578C366.711 50.3151 366.594 49.9609 366.359 49.6953C366.125 49.4245 365.794 49.2891 365.367 49.2891C364.945 49.2891 364.617 49.4193 364.383 49.6797C364.148 49.9401 364.031 50.2995 364.031 50.7578C364.031 51.2109 364.148 51.5755 364.383 51.8516C364.617 52.1276 364.948 52.2656 365.375 52.2656C365.802 52.2656 366.13 52.1276 366.359 51.8516C366.594 51.5755 366.711 51.2109 366.711 50.7578ZM376.227 59H373.969V50.2969L371.273 51.1328V49.2969L375.984 47.6094H376.227V59ZM387.664 48.8906L383.266 59H380.883L385.289 49.4531H379.633V47.625H387.664V48.8906ZM394.602 59H392.344V50.2969L389.648 51.1328V49.2969L394.359 47.6094H394.602V59ZM404.984 54.7188H406.273V56.5391H404.984V59H402.727V56.5391H398.062L397.961 55.1172L402.703 47.625H404.984V54.7188ZM400.211 54.7188H402.727V50.7031L402.578 50.9609L400.211 54.7188Z" fill="#181818"/>
<path d="M367.18 109.859H363.523V120H362.031V109.859H358.383V108.625H367.18V109.859ZM372.133 112.844C371.914 112.807 371.677 112.789 371.422 112.789C370.474 112.789 369.831 113.193 369.492 114V120H368.047V111.547H369.453L369.477 112.523C369.951 111.768 370.622 111.391 371.492 111.391C371.773 111.391 371.987 111.427 372.133 111.5V112.844ZM375.039 120H373.594V111.547H375.039V120ZM373.477 109.305C373.477 109.07 373.547 108.872 373.688 108.711C373.833 108.549 374.047 108.469 374.328 108.469C374.609 108.469 374.823 108.549 374.969 108.711C375.115 108.872 375.188 109.07 375.188 109.305C375.188 109.539 375.115 109.734 374.969 109.891C374.823 110.047 374.609 110.125 374.328 110.125C374.047 110.125 373.833 110.047 373.688 109.891C373.547 109.734 373.477 109.539 373.477 109.305ZM382.578 120C382.495 119.833 382.427 119.536 382.375 119.109C381.703 119.807 380.901 120.156 379.969 120.156C379.135 120.156 378.451 119.922 377.914 119.453C377.383 118.979 377.117 118.38 377.117 117.656C377.117 116.776 377.451 116.094 378.117 115.609C378.789 115.12 379.732 114.875 380.945 114.875H382.352V114.211C382.352 113.706 382.201 113.305 381.898 113.008C381.596 112.706 381.151 112.555 380.562 112.555C380.047 112.555 379.615 112.685 379.266 112.945C378.917 113.206 378.742 113.521 378.742 113.891H377.289C377.289 113.469 377.438 113.062 377.734 112.672C378.036 112.276 378.443 111.964 378.953 111.734C379.469 111.505 380.034 111.391 380.648 111.391C381.622 111.391 382.385 111.635 382.938 112.125C383.49 112.609 383.776 113.279 383.797 114.133V118.023C383.797 118.799 383.896 119.417 384.094 119.875V120H382.578ZM380.18 118.898C380.633 118.898 381.062 118.781 381.469 118.547C381.875 118.312 382.169 118.008 382.352 117.633V115.898H381.219C379.448 115.898 378.562 116.417 378.562 117.453C378.562 117.906 378.714 118.26 379.016 118.516C379.318 118.771 379.706 118.898 380.18 118.898ZM387.633 120H386.188V108H387.633V120ZM402.156 108.625V116.359C402.151 117.432 401.812 118.31 401.141 118.992C400.474 119.674 399.568 120.057 398.422 120.141L398.023 120.156C396.779 120.156 395.786 119.82 395.047 119.148C394.307 118.477 393.932 117.552 393.922 116.375V108.625H395.406V116.328C395.406 117.151 395.633 117.792 396.086 118.25C396.539 118.703 397.185 118.93 398.023 118.93C398.872 118.93 399.521 118.703 399.969 118.25C400.422 117.797 400.648 117.159 400.648 116.336V108.625H402.156ZM409.219 117.758C409.219 117.367 409.07 117.065 408.773 116.852C408.482 116.633 407.969 116.445 407.234 116.289C406.505 116.133 405.924 115.945 405.492 115.727C405.065 115.508 404.747 115.247 404.539 114.945C404.336 114.643 404.234 114.284 404.234 113.867C404.234 113.174 404.526 112.589 405.109 112.109C405.698 111.63 406.448 111.391 407.359 111.391C408.318 111.391 409.094 111.638 409.688 112.133C410.286 112.628 410.586 113.26 410.586 114.031H409.133C409.133 113.635 408.964 113.294 408.625 113.008C408.292 112.721 407.87 112.578 407.359 112.578C406.833 112.578 406.422 112.693 406.125 112.922C405.828 113.151 405.68 113.451 405.68 113.82C405.68 114.169 405.818 114.432 406.094 114.609C406.37 114.786 406.867 114.956 407.586 115.117C408.31 115.279 408.896 115.471 409.344 115.695C409.792 115.919 410.122 116.19 410.336 116.508C410.555 116.82 410.664 117.203 410.664 117.656C410.664 118.411 410.362 119.018 409.758 119.477C409.154 119.93 408.37 120.156 407.406 120.156C406.729 120.156 406.13 120.036 405.609 119.797C405.089 119.557 404.68 119.224 404.383 118.797C404.091 118.365 403.945 117.898 403.945 117.398H405.391C405.417 117.883 405.609 118.268 405.969 118.555C406.333 118.836 406.812 118.977 407.406 118.977C407.953 118.977 408.391 118.867 408.719 118.648C409.052 118.424 409.219 118.128 409.219 117.758ZM416.055 120.156C414.909 120.156 413.977 119.781 413.258 119.031C412.539 118.276 412.18 117.268 412.18 116.008V115.742C412.18 114.904 412.339 114.156 412.656 113.5C412.979 112.839 413.427 112.323 414 111.953C414.578 111.578 415.203 111.391 415.875 111.391C416.974 111.391 417.828 111.753 418.438 112.477C419.047 113.201 419.352 114.237 419.352 115.586V116.188H413.625C413.646 117.021 413.888 117.695 414.352 118.211C414.82 118.721 415.414 118.977 416.133 118.977C416.643 118.977 417.076 118.872 417.43 118.664C417.784 118.456 418.094 118.18 418.359 117.836L419.242 118.523C418.534 119.612 417.471 120.156 416.055 120.156ZM415.875 112.578C415.292 112.578 414.802 112.792 414.406 113.219C414.01 113.641 413.766 114.234 413.672 115H417.906V114.891C417.865 114.156 417.667 113.589 417.312 113.188C416.958 112.781 416.479 112.578 415.875 112.578ZM425.117 112.844C424.898 112.807 424.661 112.789 424.406 112.789C423.458 112.789 422.815 113.193 422.477 114V120H421.031V111.547H422.438L422.461 112.523C422.935 111.768 423.607 111.391 424.477 111.391C424.758 111.391 424.971 111.427 425.117 111.5V112.844Z" fill="#181818"/>
<path d="M360.82 195.547V200H359.32V188.625H363.516C364.76 188.625 365.734 188.943 366.438 189.578C367.146 190.214 367.5 191.055 367.5 192.102C367.5 193.206 367.154 194.057 366.461 194.656C365.773 195.25 364.786 195.547 363.5 195.547H360.82ZM360.82 194.32H363.516C364.318 194.32 364.932 194.133 365.359 193.758C365.786 193.378 366 192.831 366 192.117C366 191.44 365.786 190.898 365.359 190.492C364.932 190.086 364.346 189.875 363.602 189.859H360.82V194.32ZM374.312 200C374.229 199.833 374.161 199.536 374.109 199.109C373.438 199.807 372.635 200.156 371.703 200.156C370.87 200.156 370.185 199.922 369.648 199.453C369.117 198.979 368.852 198.38 368.852 197.656C368.852 196.776 369.185 196.094 369.852 195.609C370.523 195.12 371.466 194.875 372.68 194.875H374.086V194.211C374.086 193.706 373.935 193.305 373.633 193.008C373.331 192.706 372.885 192.555 372.297 192.555C371.781 192.555 371.349 192.685 371 192.945C370.651 193.206 370.477 193.521 370.477 193.891H369.023C369.023 193.469 369.172 193.062 369.469 192.672C369.771 192.276 370.177 191.964 370.688 191.734C371.203 191.505 371.768 191.391 372.383 191.391C373.357 191.391 374.12 191.635 374.672 192.125C375.224 192.609 375.51 193.279 375.531 194.133V198.023C375.531 198.799 375.63 199.417 375.828 199.875V200H374.312ZM371.914 198.898C372.367 198.898 372.797 198.781 373.203 198.547C373.609 198.312 373.904 198.008 374.086 197.633V195.898H372.953C371.182 195.898 370.297 196.417 370.297 197.453C370.297 197.906 370.448 198.26 370.75 198.516C371.052 198.771 371.44 198.898 371.914 198.898ZM380.438 197.883L382.406 191.547H383.953L380.555 201.305C380.029 202.711 379.193 203.414 378.047 203.414L377.773 203.391L377.234 203.289V202.117L377.625 202.148C378.115 202.148 378.495 202.049 378.766 201.852C379.042 201.654 379.268 201.292 379.445 200.766L379.766 199.906L376.75 191.547H378.328L380.438 197.883ZM386.82 200H385.375V191.547H386.82V200ZM385.258 189.305C385.258 189.07 385.328 188.872 385.469 188.711C385.615 188.549 385.828 188.469 386.109 188.469C386.391 188.469 386.604 188.549 386.75 188.711C386.896 188.872 386.969 189.07 386.969 189.305C386.969 189.539 386.896 189.734 386.75 189.891C386.604 190.047 386.391 190.125 386.109 190.125C385.828 190.125 385.615 190.047 385.469 189.891C385.328 189.734 385.258 189.539 385.258 189.305ZM390.508 191.547L390.555 192.609C391.201 191.797 392.044 191.391 393.086 191.391C394.872 191.391 395.773 192.398 395.789 194.414V200H394.344V194.406C394.339 193.797 394.198 193.346 393.922 193.055C393.651 192.763 393.227 192.617 392.648 192.617C392.18 192.617 391.768 192.742 391.414 192.992C391.06 193.242 390.784 193.57 390.586 193.977V200H389.141V191.547H390.508ZM397.625 195.703C397.625 194.385 397.93 193.339 398.539 192.562C399.148 191.781 399.956 191.391 400.961 191.391C401.992 191.391 402.797 191.755 403.375 192.484L403.445 191.547H404.766V199.797C404.766 200.891 404.44 201.753 403.789 202.383C403.143 203.013 402.273 203.328 401.18 203.328C400.57 203.328 399.974 203.198 399.391 202.938C398.807 202.677 398.362 202.32 398.055 201.867L398.805 201C399.424 201.766 400.182 202.148 401.078 202.148C401.781 202.148 402.328 201.951 402.719 201.555C403.115 201.159 403.312 200.602 403.312 199.883V199.156C402.734 199.823 401.945 200.156 400.945 200.156C399.956 200.156 399.154 199.758 398.539 198.961C397.93 198.164 397.625 197.078 397.625 195.703ZM399.078 195.867C399.078 196.82 399.273 197.57 399.664 198.117C400.055 198.659 400.602 198.93 401.305 198.93C402.216 198.93 402.885 198.516 403.312 197.688V193.828C402.87 193.021 402.206 192.617 401.32 192.617C400.617 192.617 400.068 192.891 399.672 193.438C399.276 193.984 399.078 194.794 399.078 195.867ZM419.156 188.625V196.359C419.151 197.432 418.812 198.31 418.141 198.992C417.474 199.674 416.568 200.057 415.422 200.141L415.023 200.156C413.779 200.156 412.786 199.82 412.047 199.148C411.307 198.477 410.932 197.552 410.922 196.375V188.625H412.406V196.328C412.406 197.151 412.633 197.792 413.086 198.25C413.539 198.703 414.185 198.93 415.023 198.93C415.872 198.93 416.521 198.703 416.969 198.25C417.422 197.797 417.648 197.159 417.648 196.336V188.625H419.156ZM426.219 197.758C426.219 197.367 426.07 197.065 425.773 196.852C425.482 196.633 424.969 196.445 424.234 196.289C423.505 196.133 422.924 195.945 422.492 195.727C422.065 195.508 421.747 195.247 421.539 194.945C421.336 194.643 421.234 194.284 421.234 193.867C421.234 193.174 421.526 192.589 422.109 192.109C422.698 191.63 423.448 191.391 424.359 191.391C425.318 191.391 426.094 191.638 426.688 192.133C427.286 192.628 427.586 193.26 427.586 194.031H426.133C426.133 193.635 425.964 193.294 425.625 193.008C425.292 192.721 424.87 192.578 424.359 192.578C423.833 192.578 423.422 192.693 423.125 192.922C422.828 193.151 422.68 193.451 422.68 193.82C422.68 194.169 422.818 194.432 423.094 194.609C423.37 194.786 423.867 194.956 424.586 195.117C425.31 195.279 425.896 195.471 426.344 195.695C426.792 195.919 427.122 196.19 427.336 196.508C427.555 196.82 427.664 197.203 427.664 197.656C427.664 198.411 427.362 199.018 426.758 199.477C426.154 199.93 425.37 200.156 424.406 200.156C423.729 200.156 423.13 200.036 422.609 199.797C422.089 199.557 421.68 199.224 421.383 198.797C421.091 198.365 420.945 197.898 420.945 197.398H422.391C422.417 197.883 422.609 198.268 422.969 198.555C423.333 198.836 423.812 198.977 424.406 198.977C424.953 198.977 425.391 198.867 425.719 198.648C426.052 198.424 426.219 198.128 426.219 197.758ZM433.055 200.156C431.909 200.156 430.977 199.781 430.258 199.031C429.539 198.276 429.18 197.268 429.18 196.008V195.742C429.18 194.904 429.339 194.156 429.656 193.5C429.979 192.839 430.427 192.323 431 191.953C431.578 191.578 432.203 191.391 432.875 191.391C433.974 191.391 434.828 191.753 435.438 192.477C436.047 193.201 436.352 194.237 436.352 195.586V196.188H430.625C430.646 197.021 430.888 197.695 431.352 198.211C431.82 198.721 432.414 198.977 433.133 198.977C433.643 198.977 434.076 198.872 434.43 198.664C434.784 198.456 435.094 198.18 435.359 197.836L436.242 198.523C435.534 199.612 434.471 200.156 433.055 200.156ZM432.875 192.578C432.292 192.578 431.802 192.792 431.406 193.219C431.01 193.641 430.766 194.234 430.672 195H434.906V194.891C434.865 194.156 434.667 193.589 434.312 193.188C433.958 192.781 433.479 192.578 432.875 192.578ZM442.117 192.844C441.898 192.807 441.661 192.789 441.406 192.789C440.458 192.789 439.815 193.193 439.477 194V200H438.031V191.547H439.438L439.461 192.523C439.935 191.768 440.607 191.391 441.477 191.391C441.758 191.391 441.971 191.427 442.117 191.5V192.844Z" fill="#181818"/>
<path d="M362.672 262.93C361.385 262.56 360.448 262.107 359.859 261.57C359.276 261.029 358.984 260.362 358.984 259.57C358.984 258.674 359.341 257.935 360.055 257.352C360.773 256.763 361.706 256.469 362.852 256.469C363.633 256.469 364.328 256.62 364.938 256.922C365.552 257.224 366.026 257.641 366.359 258.172C366.698 258.703 366.867 259.284 366.867 259.914H365.359C365.359 259.227 365.141 258.688 364.703 258.297C364.266 257.901 363.648 257.703 362.852 257.703C362.112 257.703 361.534 257.867 361.117 258.195C360.706 258.518 360.5 258.969 360.5 259.547C360.5 260.01 360.695 260.404 361.086 260.727C361.482 261.044 362.151 261.336 363.094 261.602C364.042 261.867 364.781 262.161 365.312 262.484C365.849 262.802 366.245 263.174 366.5 263.602C366.76 264.029 366.891 264.531 366.891 265.109C366.891 266.031 366.531 266.771 365.812 267.328C365.094 267.88 364.133 268.156 362.93 268.156C362.148 268.156 361.419 268.008 360.742 267.711C360.065 267.409 359.542 266.997 359.172 266.477C358.807 265.956 358.625 265.365 358.625 264.703H360.133C360.133 265.391 360.385 265.935 360.891 266.336C361.401 266.732 362.081 266.93 362.93 266.93C363.721 266.93 364.328 266.768 364.75 266.445C365.172 266.122 365.383 265.682 365.383 265.125C365.383 264.568 365.188 264.138 364.797 263.836C364.406 263.529 363.698 263.227 362.672 262.93ZM373.812 267.164C373.25 267.826 372.424 268.156 371.336 268.156C370.435 268.156 369.747 267.896 369.273 267.375C368.805 266.849 368.568 266.073 368.562 265.047V259.547H370.008V265.008C370.008 266.289 370.529 266.93 371.57 266.93C372.674 266.93 373.409 266.518 373.773 265.695V259.547H375.219V268H373.844L373.812 267.164ZM384.578 263.867C384.578 265.159 384.281 266.198 383.688 266.984C383.094 267.766 382.297 268.156 381.297 268.156C380.229 268.156 379.404 267.779 378.82 267.023L378.75 268H377.422V256H378.867V260.477C379.451 259.753 380.255 259.391 381.281 259.391C382.307 259.391 383.112 259.779 383.695 260.555C384.284 261.331 384.578 262.393 384.578 263.742V263.867ZM383.133 263.703C383.133 262.719 382.943 261.958 382.562 261.422C382.182 260.885 381.635 260.617 380.922 260.617C379.969 260.617 379.284 261.06 378.867 261.945V265.602C379.31 266.487 380 266.93 380.938 266.93C381.63 266.93 382.169 266.661 382.555 266.125C382.94 265.589 383.133 264.781 383.133 263.703ZM391.328 265.758C391.328 265.367 391.18 265.065 390.883 264.852C390.591 264.633 390.078 264.445 389.344 264.289C388.615 264.133 388.034 263.945 387.602 263.727C387.174 263.508 386.857 263.247 386.648 262.945C386.445 262.643 386.344 262.284 386.344 261.867C386.344 261.174 386.635 260.589 387.219 260.109C387.807 259.63 388.557 259.391 389.469 259.391C390.427 259.391 391.203 259.638 391.797 260.133C392.396 260.628 392.695 261.26 392.695 262.031H391.242C391.242 261.635 391.073 261.294 390.734 261.008C390.401 260.721 389.979 260.578 389.469 260.578C388.943 260.578 388.531 260.693 388.234 260.922C387.938 261.151 387.789 261.451 387.789 261.82C387.789 262.169 387.927 262.432 388.203 262.609C388.479 262.786 388.977 262.956 389.695 263.117C390.419 263.279 391.005 263.471 391.453 263.695C391.901 263.919 392.232 264.19 392.445 264.508C392.664 264.82 392.773 265.203 392.773 265.656C392.773 266.411 392.471 267.018 391.867 267.477C391.263 267.93 390.479 268.156 389.516 268.156C388.839 268.156 388.24 268.036 387.719 267.797C387.198 267.557 386.789 267.224 386.492 266.797C386.201 266.365 386.055 265.898 386.055 265.398H387.5C387.526 265.883 387.719 266.268 388.078 266.555C388.443 266.836 388.922 266.977 389.516 266.977C390.062 266.977 390.5 266.867 390.828 266.648C391.161 266.424 391.328 266.128 391.328 265.758ZM398.047 266.977C398.562 266.977 399.013 266.82 399.398 266.508C399.784 266.195 399.997 265.805 400.039 265.336H401.406C401.38 265.82 401.214 266.281 400.906 266.719C400.599 267.156 400.188 267.505 399.672 267.766C399.161 268.026 398.62 268.156 398.047 268.156C396.896 268.156 395.979 267.773 395.297 267.008C394.62 266.237 394.281 265.185 394.281 263.852V263.609C394.281 262.786 394.432 262.055 394.734 261.414C395.036 260.773 395.469 260.276 396.031 259.922C396.599 259.568 397.268 259.391 398.039 259.391C398.987 259.391 399.773 259.674 400.398 260.242C401.029 260.81 401.365 261.547 401.406 262.453H400.039C399.997 261.906 399.789 261.458 399.414 261.109C399.044 260.755 398.586 260.578 398.039 260.578C397.305 260.578 396.734 260.844 396.328 261.375C395.927 261.901 395.727 262.664 395.727 263.664V263.938C395.727 264.911 395.927 265.661 396.328 266.188C396.729 266.714 397.302 266.977 398.047 266.977ZM407.117 260.844C406.898 260.807 406.661 260.789 406.406 260.789C405.458 260.789 404.815 261.193 404.477 262V268H403.031V259.547H404.438L404.461 260.523C404.935 259.768 405.607 259.391 406.477 259.391C406.758 259.391 406.971 259.427 407.117 259.5V260.844ZM410.023 268H408.578V259.547H410.023V268ZM408.461 257.305C408.461 257.07 408.531 256.872 408.672 256.711C408.818 256.549 409.031 256.469 409.312 256.469C409.594 256.469 409.807 256.549 409.953 256.711C410.099 256.872 410.172 257.07 410.172 257.305C410.172 257.539 410.099 257.734 409.953 257.891C409.807 258.047 409.594 258.125 409.312 258.125C409.031 258.125 408.818 258.047 408.672 257.891C408.531 257.734 408.461 257.539 408.461 257.305ZM419.484 263.867C419.484 265.154 419.19 266.19 418.602 266.977C418.013 267.763 417.216 268.156 416.211 268.156C415.185 268.156 414.378 267.831 413.789 267.18V271.25H412.344V259.547H413.664L413.734 260.484C414.323 259.755 415.141 259.391 416.188 259.391C417.203 259.391 418.005 259.773 418.594 260.539C419.188 261.305 419.484 262.37 419.484 263.734V263.867ZM418.039 263.703C418.039 262.75 417.836 261.997 417.43 261.445C417.023 260.893 416.466 260.617 415.758 260.617C414.883 260.617 414.227 261.005 413.789 261.781V265.82C414.221 266.591 414.883 266.977 415.773 266.977C416.466 266.977 417.016 266.703 417.422 266.156C417.833 265.604 418.039 264.786 418.039 263.703ZM423.289 257.5V259.547H424.867V260.664H423.289V265.906C423.289 266.245 423.359 266.5 423.5 266.672C423.641 266.839 423.88 266.922 424.219 266.922C424.385 266.922 424.615 266.891 424.906 266.828V268C424.526 268.104 424.156 268.156 423.797 268.156C423.151 268.156 422.664 267.961 422.336 267.57C422.008 267.18 421.844 266.625 421.844 265.906V260.664H420.305V259.547H421.844V257.5H423.289ZM428.133 268H426.688V259.547H428.133V268ZM426.57 257.305C426.57 257.07 426.641 256.872 426.781 256.711C426.927 256.549 427.141 256.469 427.422 256.469C427.703 256.469 427.917 256.549 428.062 256.711C428.208 256.872 428.281 257.07 428.281 257.305C428.281 257.539 428.208 257.734 428.062 257.891C427.917 258.047 427.703 258.125 427.422 258.125C427.141 258.125 426.927 258.047 426.781 257.891C426.641 257.734 426.57 257.539 426.57 257.305ZM430.07 263.695C430.07 262.867 430.232 262.122 430.555 261.461C430.883 260.799 431.336 260.289 431.914 259.93C432.497 259.57 433.161 259.391 433.906 259.391C435.057 259.391 435.987 259.789 436.695 260.586C437.409 261.383 437.766 262.443 437.766 263.766V263.867C437.766 264.69 437.607 265.43 437.289 266.086C436.977 266.737 436.526 267.245 435.938 267.609C435.354 267.974 434.682 268.156 433.922 268.156C432.776 268.156 431.846 267.758 431.133 266.961C430.424 266.164 430.07 265.109 430.07 263.797V263.695ZM431.523 263.867C431.523 264.805 431.74 265.557 432.172 266.125C432.609 266.693 433.193 266.977 433.922 266.977C434.656 266.977 435.24 266.69 435.672 266.117C436.104 265.539 436.32 264.732 436.32 263.695C436.32 262.768 436.099 262.018 435.656 261.445C435.219 260.867 434.635 260.578 433.906 260.578C433.193 260.578 432.617 260.862 432.18 261.43C431.742 261.997 431.523 262.81 431.523 263.867ZM440.945 259.547L440.992 260.609C441.638 259.797 442.482 259.391 443.523 259.391C445.31 259.391 446.211 260.398 446.227 262.414V268H444.781V262.406C444.776 261.797 444.635 261.346 444.359 261.055C444.089 260.763 443.664 260.617 443.086 260.617C442.617 260.617 442.206 260.742 441.852 260.992C441.497 261.242 441.221 261.57 441.023 261.977V268H439.578V259.547H440.945ZM363.492 288.398H360.82V293H359.312V281.625H363.078C364.359 281.625 365.344 281.917 366.031 282.5C366.724 283.083 367.07 283.932 367.07 285.047C367.07 285.755 366.878 286.372 366.492 286.898C366.112 287.424 365.581 287.818 364.898 288.078L367.57 292.906V293H365.961L363.492 288.398ZM360.82 287.172H363.125C363.87 287.172 364.461 286.979 364.898 286.594C365.341 286.208 365.562 285.693 365.562 285.047C365.562 284.344 365.352 283.805 364.93 283.43C364.513 283.055 363.909 282.865 363.117 282.859H360.82V287.172ZM372.461 293.156C371.315 293.156 370.383 292.781 369.664 292.031C368.945 291.276 368.586 290.268 368.586 289.008V288.742C368.586 287.904 368.745 287.156 369.062 286.5C369.385 285.839 369.833 285.323 370.406 284.953C370.984 284.578 371.609 284.391 372.281 284.391C373.38 284.391 374.234 284.753 374.844 285.477C375.453 286.201 375.758 287.237 375.758 288.586V289.188H370.031C370.052 290.021 370.294 290.695 370.758 291.211C371.227 291.721 371.82 291.977 372.539 291.977C373.049 291.977 373.482 291.872 373.836 291.664C374.19 291.456 374.5 291.18 374.766 290.836L375.648 291.523C374.94 292.612 373.878 293.156 372.461 293.156ZM372.281 285.578C371.698 285.578 371.208 285.792 370.812 286.219C370.417 286.641 370.172 287.234 370.078 288H374.312V287.891C374.271 287.156 374.073 286.589 373.719 286.188C373.365 285.781 372.885 285.578 372.281 285.578ZM378.805 284.547L378.852 285.609C379.497 284.797 380.341 284.391 381.383 284.391C383.169 284.391 384.07 285.398 384.086 287.414V293H382.641V287.406C382.635 286.797 382.495 286.346 382.219 286.055C381.948 285.763 381.523 285.617 380.945 285.617C380.477 285.617 380.065 285.742 379.711 285.992C379.357 286.242 379.081 286.57 378.883 286.977V293H377.438V284.547H378.805ZM389.773 293.156C388.628 293.156 387.695 292.781 386.977 292.031C386.258 291.276 385.898 290.268 385.898 289.008V288.742C385.898 287.904 386.057 287.156 386.375 286.5C386.698 285.839 387.146 285.323 387.719 284.953C388.297 284.578 388.922 284.391 389.594 284.391C390.693 284.391 391.547 284.753 392.156 285.477C392.766 286.201 393.07 287.237 393.07 288.586V289.188H387.344C387.365 290.021 387.607 290.695 388.07 291.211C388.539 291.721 389.133 291.977 389.852 291.977C390.362 291.977 390.794 291.872 391.148 291.664C391.503 291.456 391.812 291.18 392.078 290.836L392.961 291.523C392.253 292.612 391.19 293.156 389.773 293.156ZM389.594 285.578C389.01 285.578 388.521 285.792 388.125 286.219C387.729 286.641 387.484 287.234 387.391 288H391.625V287.891C391.583 287.156 391.385 286.589 391.031 286.188C390.677 285.781 390.198 285.578 389.594 285.578ZM402.234 291.008L403.859 284.547H405.305L402.844 293H401.672L399.617 286.594L397.617 293H396.445L393.992 284.547H395.43L397.094 290.875L399.062 284.547H400.227L402.234 291.008ZM410.289 293.156C409.143 293.156 408.211 292.781 407.492 292.031C406.773 291.276 406.414 290.268 406.414 289.008V288.742C406.414 287.904 406.573 287.156 406.891 286.5C407.214 285.839 407.661 285.323 408.234 284.953C408.812 284.578 409.438 284.391 410.109 284.391C411.208 284.391 412.062 284.753 412.672 285.477C413.281 286.201 413.586 287.237 413.586 288.586V289.188H407.859C407.88 290.021 408.122 290.695 408.586 291.211C409.055 291.721 409.648 291.977 410.367 291.977C410.878 291.977 411.31 291.872 411.664 291.664C412.018 291.456 412.328 291.18 412.594 290.836L413.477 291.523C412.768 292.612 411.706 293.156 410.289 293.156ZM410.109 285.578C409.526 285.578 409.036 285.792 408.641 286.219C408.245 286.641 408 287.234 407.906 288H412.141V287.891C412.099 287.156 411.901 286.589 411.547 286.188C411.193 285.781 410.714 285.578 410.109 285.578ZM414.914 288.703C414.914 287.406 415.221 286.365 415.836 285.578C416.451 284.786 417.255 284.391 418.25 284.391C419.24 284.391 420.023 284.729 420.602 285.406V281H422.047V293H420.719L420.648 292.094C420.07 292.802 419.266 293.156 418.234 293.156C417.255 293.156 416.456 292.755 415.836 291.953C415.221 291.151 414.914 290.104 414.914 288.812V288.703ZM416.359 288.867C416.359 289.826 416.557 290.576 416.953 291.117C417.349 291.659 417.896 291.93 418.594 291.93C419.51 291.93 420.18 291.518 420.602 290.695V286.812C420.169 286.016 419.505 285.617 418.609 285.617C417.901 285.617 417.349 285.891 416.953 286.438C416.557 286.984 416.359 287.794 416.359 288.867Z" fill="#181818"/>
<circle cx="310" cy="115" r="32" fill="#FFD12D"/>
<path fill-rule="evenodd" clip-rule="evenodd" d="M320.69 103.462L323.015 103.042L322.395 105.248L322.392 105.259C321.321 109.242 319.074 112.84 315.948 115.655L315.936 115.667L315.924 115.678C315.756 115.84 315.715 115.876 315.649 115.918L315.61 115.943L310.092 120.265C309.996 120.318 309.91 120.386 309.837 120.465L309.442 120.774L303.658 114.693L308.274 109.782C308.375 109.709 308.462 109.617 308.53 109.509L308.687 109.342L308.693 109.336C309.04 108.953 309.363 108.646 309.715 108.391L309.74 108.373L309.764 108.354C312.888 105.786 316.628 104.107 320.679 103.464L320.69 103.462ZM307.306 107.889C307.673 107.493 308.064 107.12 308.517 106.789C311.912 104.007 315.969 102.188 320.355 101.49L322.922 101.026L322.931 101.025C324.276 100.809 325.379 102.027 325.015 103.315L325.015 103.316L324.322 105.784C323.147 110.146 320.692 114.07 317.3 117.13L317.292 117.137C317.191 117.234 317.081 117.341 316.944 117.448C317.249 119.557 316.705 122.101 315.274 124.401C314.352 125.9 313.131 127.199 311.817 128.063L310.459 128.955L309.784 123.047L309.244 123.469L300.906 114.701L301.155 114.436L295.502 113.346L296.596 112.043C297.619 110.824 299.032 109.816 300.682 109.047C302.916 107.996 305.294 107.601 307.306 107.889ZM305.501 109.812C304.265 109.882 302.891 110.218 301.532 110.858L301.528 110.86C300.755 111.219 300.067 111.628 299.471 112.074L302.776 112.711L305.501 109.812ZM311.631 121.6L312.053 125.289C312.607 124.731 313.127 124.075 313.572 123.352L313.575 123.347C314.505 121.853 314.955 120.298 315.018 118.947L311.631 121.6ZM303.54 121.371C302.586 120.378 300.996 120.324 299.937 121.231C299.744 121.396 299.429 121.853 299.044 122.619C298.682 123.341 298.319 124.209 297.994 125.058C297.778 125.619 297.582 126.165 297.417 126.644C297.937 126.521 298.537 126.374 299.156 126.209C300.062 125.968 300.995 125.693 301.781 125.407C302.602 125.109 303.124 124.846 303.336 124.668C304.385 123.725 304.45 122.319 303.54 121.371ZM294.96 127.707C294.96 127.707 294.96 127.708 295.916 128L294.96 127.707ZM296.115 128.98L296.136 128.976L296.194 128.964C296.244 128.954 296.318 128.938 296.412 128.918C296.599 128.879 296.868 128.821 297.195 128.747C297.848 128.6 298.735 128.391 299.671 128.142C300.603 127.893 301.599 127.601 302.464 127.287C303.283 126.989 304.129 126.622 304.644 126.181L304.652 126.175L304.659 126.168C306.491 124.533 306.744 121.82 304.982 119.986C303.262 118.194 300.465 118.145 298.636 119.713C298.106 120.166 297.639 120.96 297.257 121.722C296.852 122.527 296.463 123.464 296.126 124.342C295.788 125.224 295.497 126.064 295.291 126.682C295.188 126.991 295.106 127.246 295.049 127.424C295.021 127.514 294.999 127.584 294.984 127.632L294.967 127.687L294.96 127.707L294.469 129.313L296.115 128.98ZM295.916 128L296.115 128.98C296.115 128.98 296.115 128.98 295.916 128Z" fill="white"/>
<circle cx="310" cy="195" r="32" fill="#93E6CF"/>
<path fill-rule="evenodd" clip-rule="evenodd" d="M310.494 179.786C311.046 179.786 311.494 180.234 311.494 180.786V184.255C313.093 184.427 314.557 185.005 315.693 185.881C317.064 186.937 318 188.467 318 190.236C318 190.788 317.552 191.236 317 191.236C316.448 191.236 316 190.788 316 190.236C316 189.217 315.464 188.229 314.472 187.465C313.479 186.7 312.071 186.201 310.493 186.201C308.915 186.201 307.507 186.7 306.514 187.465C305.522 188.229 304.986 189.217 304.986 190.236C304.986 192.286 306.811 194.271 310.493 194.271C312.793 194.271 314.666 194.878 315.984 195.974C317.315 197.081 318 198.626 318 200.306C318 202.076 317.064 203.606 315.693 204.662C314.557 205.537 313.093 206.116 311.494 206.288V209.214C311.494 209.766 311.046 210.214 310.494 210.214C309.942 210.214 309.494 209.766 309.494 209.214V206.288C307.894 206.116 306.43 205.537 305.293 204.662C303.923 203.606 302.986 202.076 302.986 200.306C302.986 199.754 303.434 199.306 303.986 199.306C304.539 199.306 304.986 199.754 304.986 200.306C304.986 201.325 305.522 202.313 306.514 203.077C307.507 203.843 308.915 204.341 310.493 204.341C312.071 204.341 313.479 203.843 314.472 203.077C315.464 202.313 316 201.325 316 200.306C316 199.198 315.562 198.225 314.705 197.512C313.834 196.787 312.454 196.271 310.493 196.271C306.12 196.271 302.986 193.763 302.986 190.236C302.986 188.467 303.923 186.937 305.293 185.881C306.43 185.005 307.894 184.426 309.494 184.254V180.786C309.494 180.234 309.942 179.786 310.494 179.786Z" fill="white"/>
<circle cx="310" cy="275" r="32" fill="#0084FF"/>
<path fill-rule="evenodd" clip-rule="evenodd" d="M306.886 260.72C307.063 260.197 306.781 259.629 306.258 259.453L297.728 256.583C297.204 256.407 296.637 256.688 296.461 257.212C296.285 257.735 296.566 258.302 297.09 258.479L303.173 260.526C301.546 261.295 300.069 262.33 298.8 263.574C295.839 266.477 294 270.524 294 275C294 283.837 301.163 291 310 291C318.837 291 326 283.837 326 275C326 270.605 324.226 266.622 321.358 263.731C319.425 261.782 316.992 260.328 314.266 259.575C313.734 259.428 313.183 259.741 313.036 260.273C312.889 260.806 313.202 261.356 313.734 261.503C316.116 262.161 318.245 263.433 319.938 265.14C322.45 267.671 324 271.154 324 275C324 282.732 317.732 289 310 289C302.268 289 296 282.732 296 275C296 271.084 297.607 267.544 300.2 265.002C301.375 263.85 302.751 262.904 304.271 262.222L302.121 268.612C301.944 269.136 302.226 269.703 302.749 269.879C303.273 270.055 303.84 269.774 304.016 269.25L306.886 260.72Z" fill="white"/>
<path fill-rule="evenodd" clip-rule="evenodd" d="M146.087 200.688C140.412 207.018 132.171 211 123 211C113.711 211 105.375 206.914 99.6938 200.441L122.98 178.017L146.087 200.688ZM149.675 195.803L125.795 172.373C124.25 170.857 121.778 170.845 120.219 172.347L96.1572 195.517C93.5134 190.954 92 185.654 92 180C92 162.879 105.879 149 123 149C140.121 149 154 162.879 154 180C154 185.772 152.423 191.175 149.675 195.803ZM160 180C160 200.435 143.435 217 123 217C102.565 217 86 200.435 86 180C86 159.565 102.565 143 123 143C143.435 143 160 159.565 160 180Z" fill="#0085FF"/>
<path d="M145.452 26C145.297 25.7596 145.162 25.6194 145.104 25.4592C144.369 23.416 143.654 21.3729 142.938 19.3297C142.725 18.7288 142.513 18.1079 142.319 17.4869C142.145 16.9461 141.875 16.4854 141.333 16.2851C140.405 15.9445 139.497 15.604 138.568 15.2435C137.505 14.8428 136.461 14.4222 135.417 14.0216C134.779 13.7812 134.141 13.5809 133.503 13.3205C133.309 13.2404 133.174 13.0401 133 12.8798C133.174 12.7396 133.309 12.5193 133.503 12.4592C134.566 12.0385 135.649 11.6379 136.712 11.2373C137.698 10.8567 138.665 10.4961 139.651 10.1156C140.193 9.91525 140.734 9.71495 141.295 9.51464C141.759 9.33436 142.068 9.01387 142.242 8.53313C142.571 7.59168 142.899 6.65023 143.228 5.72881C143.77 4.2265 144.311 2.70416 144.852 1.20185C144.949 0.921418 144.988 0.620955 145.123 0.340524C145.2 0.180277 145.374 0 145.51 0C145.645 0 145.819 0.200308 145.877 0.360555C146.612 2.4037 147.327 4.44684 148.062 6.48998C148.275 7.11094 148.487 7.75193 148.7 8.37288C148.874 8.93374 149.164 9.33436 149.725 9.53467C151.117 10.0354 152.509 10.5562 153.901 11.0971C154.887 11.4777 155.873 11.8783 156.879 12.2589C157.13 12.359 157.42 12.3991 157.652 12.5193C157.807 12.5994 158 12.7596 158 12.8998C158 13.02 157.807 13.2404 157.671 13.2804C155.235 14.2419 152.818 15.1433 150.401 16.0647C150.305 16.1048 150.189 16.1448 150.073 16.1649C149.261 16.3451 148.835 16.8459 148.584 17.6872C148.275 18.7689 147.83 19.8105 147.462 20.8721C147.114 21.8736 146.747 22.8552 146.399 23.8567C146.206 24.4176 146.032 24.9985 145.819 25.5593C145.8 25.6795 145.645 25.7997 145.452 26Z" fill="#FFB9F8"/>
<defs>
<clipPath id="clip0">
<rect width="30.6885" height="30.6222" fill="white" transform="translate(0 248)"/>
</clipPath>
</defs>
</svg>
