<svg width="92" height="92" viewBox="0 0 92 92" fill="none" xmlns="http://www.w3.org/2000/svg">
<path d="M33.63 19.9201C32.9897 18.3332 31.9679 16.9286 30.6553 15.8307C29.3427 14.7327 27.7797 13.9753 26.1046 13.6255C24.4295 13.2757 22.6939 13.3442 21.0516 13.825C19.4093 14.3058 17.9108 15.184 16.6888 16.382C15.4668 17.58 14.559 19.0607 14.0457 20.6932C13.5324 22.3256 13.4295 24.0594 13.746 25.7412C14.0626 27.4229 14.7888 29.0007 15.8605 30.3348C16.9321 31.669 18.3161 32.7183 19.89 33.3901C22.892 27.5317 27.7133 22.8052 33.63 19.9201Z" fill="#EDF3FF"/>
<path d="M22.8799 34.16C23.2418 34.2002 23.6057 34.2203 23.9699 34.22C26.7308 34.22 29.3786 33.1233 31.3309 31.171C33.2831 29.2188 34.3799 26.5709 34.3799 23.81C34.3799 23.51 34.3799 23.22 34.3799 22.92C29.5094 25.4332 25.5038 29.3483 22.8799 34.16Z" fill="#EDF3FF"/>
<path d="M71.8301 22.2297C71.6337 22.2104 71.4354 22.23 71.2467 22.2875C71.0579 22.3449 70.8823 22.439 70.7299 22.5644C70.5776 22.6898 70.4515 22.8441 70.3588 23.0183C70.2662 23.1925 70.2089 23.3833 70.1901 23.5797L69.7901 27.7097C66.0046 23.1632 60.9592 19.8374 55.2886 18.1506C49.6179 16.4638 43.5751 16.4913 37.9201 18.2297C36.4484 18.6809 35.014 19.2459 33.6301 19.9197C27.7133 22.8048 22.892 27.5314 19.8901 33.3897C17.6895 37.6593 16.5506 42.3965 16.5701 47.1997C16.5727 47.5958 16.7319 47.9748 17.0129 48.2539C17.2939 48.5331 17.674 48.6898 18.0701 48.6897C18.2666 48.6897 18.4612 48.6509 18.6426 48.5754C18.824 48.4999 18.9887 48.3892 19.1272 48.2498C19.2657 48.1104 19.3752 47.9449 19.4495 47.763C19.5238 47.5811 19.5614 47.3863 19.5601 47.1897C19.5552 42.6473 20.6935 38.1767 22.8701 34.1897C25.4812 29.3712 29.4764 25.4457 34.3401 22.9197C35.7647 22.1784 37.2543 21.5692 38.7901 21.0997C43.9119 19.5213 49.3877 19.5028 54.5201 21.0468C59.6525 22.5908 64.2092 25.6274 67.6101 29.7697L63.1701 29.3397C62.7722 29.3013 62.3754 29.4224 62.0669 29.6765C61.7584 29.9307 61.5635 30.2969 61.5251 30.6947C61.4866 31.0926 61.6078 31.4894 61.8619 31.7979C62.116 32.1064 62.4822 32.3013 62.8801 32.3397L72.2601 33.2497L73.1801 23.8797C73.2008 23.6826 73.1822 23.4833 73.1254 23.2933C73.0686 23.1034 72.9748 22.9266 72.8492 22.7732C72.7237 22.6197 72.569 22.4927 72.394 22.3994C72.2191 22.3062 72.0274 22.2485 71.8301 22.2297Z" fill="#181818"/>
<path d="M75.2399 44.4701C74.8473 44.4857 74.4765 44.6547 74.2073 44.9408C73.938 45.2269 73.7917 45.6073 73.7999 46.0001C73.7999 46.1401 73.7999 46.2701 73.7999 46.4101C73.9361 52.2884 72.1574 58.0518 68.732 62.831C65.3066 67.6102 60.4203 71.1461 54.8098 72.9057C49.1992 74.6653 43.1687 74.553 37.6276 72.5859C32.0864 70.6188 27.335 66.9034 24.0899 62.0001L23.8799 61.7101L24.7199 61.8101L28.1799 62.1901C28.3757 62.2122 28.5741 62.1953 28.7633 62.1403C28.9526 62.0853 29.1291 61.9933 29.2826 61.8696C29.4361 61.7459 29.5634 61.5929 29.6574 61.4197C29.7513 61.2464 29.81 61.0562 29.8299 60.8601C29.8573 60.6475 29.8333 60.4314 29.7599 60.2301C29.6694 59.9611 29.5034 59.7238 29.2818 59.5465C29.0601 59.3692 28.7922 59.2593 28.5099 59.2301L19.1399 58.2301L18.1399 67.5901C18.1162 67.7859 18.1317 67.9846 18.1855 68.1744C18.2392 68.3642 18.3301 68.5415 18.4529 68.696C18.5757 68.8504 18.728 68.9789 18.9008 69.074C19.0737 69.1691 19.2637 69.229 19.4599 69.2501H19.6299C19.9991 69.2475 20.3546 69.1098 20.6292 68.8628C20.9038 68.6159 21.0783 68.277 21.1199 67.9101L21.5899 63.6701C24.3476 67.816 28.0879 71.2155 32.4777 73.5657C36.8676 75.9159 41.7705 77.1438 46.7499 77.1401C49.7049 77.141 52.6437 76.7029 55.4699 75.84C61.828 73.9015 67.367 69.9155 71.2247 64.5024C75.0825 59.0893 77.0425 52.5527 76.7999 45.9101C76.7792 45.5139 76.6044 45.1416 76.313 44.8726C76.0215 44.6035 75.6364 44.4591 75.2399 44.4701Z" fill="#181818"/>
<path d="M47.1902 38.5899C49.2702 38.5899 51.0902 39.7799 51.0902 41.1399C51.0902 41.6704 51.3009 42.1791 51.676 42.5541C52.051 42.9292 52.5598 43.1399 53.0902 43.1399C53.6206 43.1399 54.1293 42.9292 54.5044 42.5541C54.8795 42.1791 55.0902 41.6704 55.0902 41.1399C55.0902 38.1399 52.5802 35.5499 49.1902 34.8099V36.5899C49.1902 37.1204 48.9795 37.6291 48.6044 38.0042C48.2293 38.3792 47.7206 38.5899 47.1902 38.5899Z" fill="#0084FF"/>
<path d="M45.19 54.9099C45.19 54.3795 45.4007 53.8708 45.7758 53.4957C46.1509 53.1206 46.6596 52.9099 47.19 52.9099C47.7205 52.9099 48.2292 53.1206 48.6042 53.4957C48.9793 53.8708 49.19 54.3795 49.19 54.9099V56.5399C50.3522 56.3308 51.4486 55.8505 52.3903 55.1381C53.3321 54.4257 54.0925 53.5013 54.61 52.4399C54.9256 51.7423 55.0892 50.9856 55.09 50.2199C55.09 47.0699 52.62 43.6799 47.19 43.6799C44.89 43.6799 43.28 42.6799 43.28 41.1399C43.28 39.5999 45.11 38.5899 47.19 38.5899C46.6596 38.5899 46.1509 38.3792 45.7758 38.0042C45.4007 37.6291 45.19 37.1204 45.19 36.5899V34.8099C41.8 35.5499 39.28 38.0999 39.28 41.1399C39.28 44.9299 42.61 47.6799 47.19 47.6799C49.08 47.6799 51.09 48.3499 51.09 50.2199C51.09 51.5799 49.27 52.7599 47.19 52.7599C45.11 52.7599 43.28 51.5799 43.28 50.2199C43.28 49.6895 43.0693 49.1808 42.6942 48.8057C42.3192 48.4306 41.8105 48.2199 41.28 48.2199C40.7496 48.2199 40.2409 48.4306 39.8658 48.8057C39.4907 49.1808 39.28 49.6895 39.28 50.2199C39.3279 51.4789 39.7424 52.6965 40.4725 53.7233C41.2026 54.75 42.2166 55.5413 43.39 55.9999C43.9648 56.2665 44.569 56.4645 45.19 56.5899V54.9099Z" fill="#0084FF"/>
<path d="M47.1899 38.59C47.7204 38.59 48.2291 38.3793 48.6042 38.0042C48.9792 37.6291 49.1899 37.1204 49.1899 36.59V33.26C49.1899 32.7296 48.9792 32.2209 48.6042 31.8458C48.2291 31.4707 47.7204 31.26 47.1899 31.26C46.6595 31.26 46.1508 31.4707 45.7757 31.8458C45.4007 32.2209 45.1899 32.7296 45.1899 33.26V36.59C45.1899 36.8527 45.2417 37.1127 45.3422 37.3554C45.4427 37.598 45.59 37.8185 45.7757 38.0042C45.9614 38.1899 46.1819 38.3373 46.4246 38.4378C46.6672 38.5383 46.9273 38.59 47.1899 38.59Z" fill="#0084FF"/>
<path d="M47.1899 52.9099C46.6595 52.9099 46.1508 53.1206 45.7757 53.4957C45.4007 53.8708 45.1899 54.3795 45.1899 54.9099V58.2399C45.1899 58.7703 45.4007 59.2791 45.7757 59.6541C46.1508 60.0292 46.6595 60.2399 47.1899 60.2399C47.7204 60.2399 48.2291 60.0292 48.6042 59.6541C48.9792 59.2791 49.1899 58.7703 49.1899 58.2399V54.9099C49.1899 54.3795 48.9792 53.8708 48.6042 53.4957C48.2291 53.1206 47.7204 52.9099 47.1899 52.9099Z" fill="#0084FF"/>
<path d="M77.87 77.1799C76.9019 76.8122 76.0077 76.2737 75.23 75.5899C74.4777 74.9673 73.8384 74.2197 73.34 73.3799C73.08 72.9299 72.85 72.4599 72.61 71.9899L72.48 71.7999C72.39 71.9799 72.3 72.1099 72.24 72.2499C71.8827 73.0557 71.4075 73.8039 70.83 74.4699C70.3071 75.1151 69.6902 75.6781 69 76.1399C68.49 76.4699 68 76.7399 67.42 77.0299C67.33 77.0299 67.22 77.0299 67.13 77.1299C67.0976 77.1499 67.0694 77.1761 67.0471 77.207C67.0248 77.2379 67.0088 77.2728 67 77.3099C67 77.3099 67.07 77.4399 67.13 77.4599C68.6578 78.0796 69.9934 79.0942 71 80.3999C71.5291 81.0741 71.9694 81.8135 72.31 82.5999L72.45 82.8399C72.55 82.6499 72.64 82.5099 72.7 82.3599C73.0639 81.5417 73.5494 80.7831 74.14 80.1099C74.6734 79.4834 75.3008 78.9437 76 78.5099C76.52 78.1799 77.07 77.8999 77.61 77.5999C77.71 77.5999 77.82 77.5399 77.91 77.4899C77.9444 77.4811 77.9749 77.4611 77.9967 77.433C78.0185 77.405 78.0303 77.3704 78.0303 77.3349C78.0303 77.2994 78.0185 77.2649 77.9967 77.2368C77.9749 77.2088 77.9444 77.1887 77.91 77.1799H77.87Z" fill="#0084FF"/>
</svg>
