<svg width="92" height="92" viewBox="0 0 92 92" fill="none" xmlns="http://www.w3.org/2000/svg">
<path d="M82.3901 79.33C82.2801 79.27 82.1401 79.25 82.0201 79.2L80.5901 78.64L78.5901 77.89C78.4675 77.8491 78.3578 77.7768 78.2718 77.6803C78.1858 77.5838 78.1266 77.4665 78.1001 77.34L77.8001 76.45C77.4501 75.45 77.1101 74.45 76.8001 73.53C76.8001 73.45 76.6901 73.36 76.6201 73.36C76.5501 73.36 76.4801 73.44 76.4401 73.52C76.3832 73.652 76.3397 73.7893 76.3101 73.93C76.0401 74.64 75.7801 75.36 75.5201 76.08C75.3601 76.51 75.2001 76.96 75.0401 77.41C75.0042 77.517 74.944 77.6142 74.8642 77.6941C74.7843 77.7739 74.6871 77.8341 74.5801 77.87L73.7901 78.15L72.3801 78.68L70.8401 79.26C70.7401 79.26 70.6801 79.39 70.5901 79.45C70.6801 79.53 70.7401 79.63 70.8401 79.66C71.1401 79.79 71.4501 79.89 71.7501 80L73.2601 80.59L74.5901 81.09C74.7094 81.1387 74.8148 81.2163 74.8969 81.3158C74.9789 81.4153 75.035 81.5335 75.0601 81.66C75.1501 81.95 75.2501 82.25 75.3601 82.54C75.7001 83.54 76.0401 84.48 76.3601 85.45C76.4039 85.5422 76.4575 85.6294 76.5201 85.71C76.6101 85.61 76.6901 85.56 76.7001 85.5C76.8001 85.23 76.8901 84.96 76.9801 84.69L77.5001 83.28C77.6701 82.77 77.8901 82.28 78.0401 81.77C78.0754 81.5911 78.1624 81.4266 78.2904 81.2968C78.4184 81.167 78.5817 81.0777 78.7601 81.04C78.813 81.0491 78.8671 81.0491 78.9201 81.04C80.0801 80.6 81.2401 80.18 82.4101 79.73C82.4485 79.7138 82.4827 79.6892 82.5104 79.6581C82.5381 79.6269 82.5585 79.59 82.5701 79.55C82.5601 79.44 82.4701 79.36 82.3901 79.33Z" fill="#0084FF"/>
<path d="M29.57 23.58C31.0907 23.5784 32.5803 24.0102 33.8644 24.8249C35.1484 25.6396 36.1737 26.8035 36.82 28.18C37.6648 25.9018 37.7981 23.4209 37.2023 21.0653C36.6065 18.7097 35.3096 16.5905 33.4833 14.9879C31.6569 13.3854 29.3871 12.375 26.9741 12.0904C24.5611 11.8058 22.1185 12.2605 19.9695 13.3942C17.8204 14.5279 16.0662 16.2873 14.9387 18.4396C13.8113 20.5919 13.3637 23.0358 13.6554 25.448C13.947 27.8602 14.964 30.1271 16.5718 31.9487C18.1797 33.7704 20.3027 35.061 22.66 35.65C21.9445 34.4375 21.5616 33.0578 21.55 31.65C21.5407 30.5918 21.7415 29.5424 22.1406 28.5624C22.5397 27.5824 23.1293 26.6913 23.8753 25.9407C24.6212 25.1901 25.5086 24.595 26.4861 24.1898C27.4636 23.7846 28.5118 23.5773 29.57 23.58Z" fill="#EDF3FF"/>
<path d="M55.4701 65.46H38.3601V68.46H55.4701C55.2835 67.4687 55.2835 66.4513 55.4701 65.46Z" fill="#181818"/>
<path d="M62.6099 58.3101C63.6024 58.1368 64.6174 58.1368 65.6099 58.3101V40.4501H62.6099V58.3101Z" fill="#181818"/>
<path d="M37.25 33.9203H56.09V30.9203H37.56C37.56 31.1503 37.56 31.3703 37.56 31.6103C37.5746 32.3916 37.4701 33.1705 37.25 33.9203Z" fill="#181818"/>
<path d="M31.0698 39.48C30.5763 39.5813 30.0736 39.6316 29.5698 39.63C29.066 39.6306 28.5635 39.5804 28.0698 39.48V58.17H31.0698V39.48Z" fill="#181818"/>
<path d="M56.0898 35.1503C56.0898 36.5542 56.6469 37.9008 57.6386 38.8944C58.6304 39.8881 59.9759 40.4476 61.3798 40.4503H66.8398C68.2447 40.4476 69.5912 39.8884 70.5846 38.895C71.578 37.9016 72.1372 36.5551 72.1399 35.1503V29.6903C72.1372 28.2864 71.5776 26.9408 70.584 25.9491C69.5903 24.9573 68.2438 24.4003 66.8398 24.4003H61.3798C59.9769 24.4003 58.6313 24.9576 57.6392 25.9497C56.6472 26.9417 56.0898 28.2873 56.0898 29.6903V35.1503ZM61.3798 28.4003H66.8398C67.1829 28.4003 67.5121 28.5359 67.7556 28.7775C67.9991 29.0191 68.1372 29.3472 68.1398 29.6903V35.1503C68.1398 35.4951 68.0029 35.8257 67.7591 36.0695C67.5153 36.3133 67.1846 36.4503 66.8398 36.4503H61.3798C61.0368 36.4476 60.7087 36.3095 60.4671 36.066C60.2254 35.8225 60.0898 35.4933 60.0898 35.1503V29.6903C60.0898 29.5209 60.1232 29.3531 60.188 29.1966C60.2529 29.0401 60.3479 28.8979 60.4677 28.7781C60.5875 28.6583 60.7297 28.5633 60.8862 28.4985C61.0427 28.4336 61.2104 28.4003 61.3798 28.4003Z" fill="#0084FF"/>
<path d="M31.0701 39.48C32.5108 39.2085 33.8491 38.5463 34.939 37.5658C36.0289 36.5852 36.8284 35.3241 37.2501 33.92C37.4838 33.1723 37.6018 32.3934 37.6001 31.61C37.6001 31.37 37.6001 31.15 37.6001 30.92C37.5209 29.9695 37.2702 29.0412 36.8601 28.18C36.0954 26.5142 34.7819 25.1615 33.1393 24.3483C31.4967 23.535 29.6247 23.3104 27.8363 23.7121C26.0479 24.1138 24.4518 25.1174 23.3148 26.5551C22.1778 27.9927 21.569 29.7772 21.5901 31.61C21.5997 33.4733 22.2546 35.2757 23.4433 36.7105C24.632 38.1454 26.2812 39.124 28.1101 39.48C28.6038 39.5804 29.1064 39.6307 29.6101 39.63C30.1006 39.6289 30.5897 39.5787 31.0701 39.48ZM25.5501 31.61C25.5501 30.8189 25.7847 30.0455 26.2243 29.3877C26.6638 28.7299 27.2885 28.2173 28.0194 27.9145C28.7503 27.6118 29.5546 27.5325 30.3305 27.6869C31.1064 27.8412 31.8191 28.2222 32.3786 28.7816C32.938 29.341 33.3189 30.0537 33.4733 30.8297C33.6276 31.6056 33.5484 32.4099 33.2457 33.1408C32.9429 33.8717 32.4302 34.4964 31.7724 34.9359C31.1146 35.3754 30.3413 35.61 29.5501 35.61C28.4893 35.61 27.4719 35.1886 26.7217 34.4385C25.9716 33.6883 25.5501 32.6709 25.5501 31.61Z" fill="#0084FF"/>
<path d="M65.61 58.3098C64.6175 58.1365 63.6025 58.1365 62.61 58.3098C60.8301 58.6252 59.1903 59.4804 57.9131 60.7594C56.6358 62.0385 55.7829 63.6795 55.47 65.4598C55.2834 66.4511 55.2834 67.4685 55.47 68.4598C55.7464 70.0417 56.4518 71.5174 57.5094 72.7259C58.567 73.9344 59.9361 74.8294 61.4675 75.3131C62.9988 75.7968 64.6336 75.8508 66.1935 75.4691C67.7534 75.0875 69.1785 74.2848 70.3135 73.1487C71.4485 72.0126 72.2498 70.5866 72.6299 69.0263C73.01 67.4661 72.9544 65.8313 72.4692 64.3005C71.984 62.7696 71.0877 61.4014 69.8782 60.345C68.6686 59.2886 67.1922 58.5846 65.61 58.3098ZM64.11 71.7398C63.1629 71.7398 62.2372 71.4584 61.4503 70.9314C60.6634 70.4043 60.0507 69.6554 59.6902 68.7797C59.3296 67.9039 59.2373 66.9407 59.425 66.0124C59.6127 65.0841 60.0719 64.2325 60.7444 63.5656C61.4169 62.8988 62.2724 62.4467 63.2022 62.2668C64.1321 62.0869 65.0944 62.1873 65.9671 62.5552C66.8398 62.9232 67.5836 63.542 68.1039 64.3334C68.6243 65.1247 68.8979 66.0527 68.89 66.9998C68.8795 68.2606 68.3712 69.4661 67.4759 70.3539C66.5806 71.2417 65.3708 71.7398 64.11 71.7398Z" fill="#0084FF"/>
<path d="M38.36 63.4699C38.3574 62.0651 37.7981 60.7185 36.8047 59.7252C35.8114 58.7318 34.4648 58.1726 33.06 58.1699H26.06C24.6552 58.1726 23.3086 58.7318 22.3153 59.7252C21.3219 60.7185 20.7627 62.0651 20.76 63.4699V70.4699C20.7627 71.8738 21.3222 73.2193 22.3159 74.2111C23.3095 75.2029 24.6561 75.7599 26.06 75.7599H33.06C34.4639 75.7599 35.8105 75.2029 36.8041 74.2111C37.7978 73.2193 38.3574 71.8738 38.36 70.4699V63.4699ZM33.06 71.7399H26.06C25.717 71.7399 25.3878 71.6043 25.1443 71.3627C24.9008 71.1211 24.7626 70.793 24.76 70.4499V63.4499C24.76 63.1051 24.897 62.7745 25.1408 62.5307C25.3846 62.2869 25.7152 62.1499 26.06 62.1499H33.06C33.4048 62.1499 33.7354 62.2869 33.9792 62.5307C34.223 62.7745 34.36 63.1051 34.36 63.4499V70.4499C34.3574 70.793 34.2192 71.1211 33.9757 71.3627C33.7322 71.6043 33.4031 71.7399 33.06 71.7399Z" fill="#0084FF"/>
</svg>
