<svg width="92" height="92" viewBox="0 0 92 92" fill="none" xmlns="http://www.w3.org/2000/svg">
<path d="M80.46 30.86V35.86C82.5645 34.8837 84.3757 33.372 85.7127 31.476C87.0496 29.58 87.8652 27.3663 88.0781 25.0561C88.291 22.746 87.8936 20.4204 86.9256 18.3121C85.9577 16.2037 84.4532 14.3865 82.5625 13.0421C80.6719 11.6976 78.4614 10.8732 76.1521 10.6512C73.8428 10.4291 71.5157 10.8173 69.4036 11.7769C67.2914 12.7364 65.4682 14.2338 64.1163 16.1191C62.7643 18.0044 61.9311 20.2116 61.7 22.52H72.12C74.3311 22.5226 76.4508 23.4021 78.0143 24.9656C79.5778 26.5291 80.4573 28.6489 80.46 30.86Z" fill="#EDF3FF"/>
<path d="M74.89 37.06C75.7527 37.0585 76.6133 36.9748 77.46 36.81V30.81C77.4574 29.3945 76.8939 28.0378 75.8931 27.0369C74.8922 26.0361 73.5355 25.4726 72.12 25.47H61.76C62.1619 28.6694 63.7175 31.6121 66.1349 33.7461C68.5524 35.88 71.6655 37.0583 74.89 37.06Z" fill="#EDF3FF"/>
<path d="M80.46 71.2399V30.8599C80.4574 28.6488 79.5779 26.529 78.0144 24.9655C76.4509 23.4021 74.3311 22.5225 72.12 22.5199H19.88C17.6689 22.5225 15.5492 23.4021 13.9857 24.9655C12.4222 26.529 11.5427 28.6488 11.54 30.8599V71.2399H6.54004V72.7399C6.55051 74.9239 7.42138 77.0158 8.96385 78.562C10.5063 80.1082 12.5961 80.9841 14.78 80.9999H77.22C79.4179 80.9973 81.5249 80.123 83.079 78.5689C84.6331 77.0148 85.5074 74.9077 85.51 72.7099V71.2099L80.46 71.2399ZM14.54 30.8599C14.5427 29.4445 15.1061 28.0877 16.107 27.0869C17.1079 26.086 18.4646 25.5225 19.88 25.5199H72.12C73.5355 25.5225 74.8922 26.086 75.8931 27.0869C76.8939 28.0877 77.4574 29.4445 77.46 30.8599V71.2399H14.54V30.8599ZM77.22 77.9999H14.78C13.6418 78.0018 12.5332 77.6371 11.6183 76.96C10.7034 76.2828 10.0308 75.3291 9.70004 74.2399H82.3C81.9693 75.3291 81.2967 76.2828 80.3818 76.96C79.4669 77.6371 78.3583 78.0018 77.22 77.9999Z" fill="#181818"/>
<path d="M27.31 44.27C27.1242 44.4558 26.9768 44.6764 26.8762 44.9192C26.7756 45.1619 26.7239 45.4222 26.7239 45.685C26.7239 45.9477 26.7756 46.208 26.8762 46.4507C26.9768 46.6935 27.1242 46.9141 27.31 47.1C27.6853 47.4752 28.1943 47.6861 28.725 47.6861C28.9878 47.6861 29.248 47.6343 29.4908 47.5337C29.7336 47.4332 29.9542 47.2858 30.14 47.1C34.349 42.8987 40.053 40.539 46 40.539C51.947 40.539 57.651 42.8987 61.86 47.1C62.2353 47.4752 62.7443 47.6861 63.275 47.6861C63.8057 47.6861 64.3147 47.4752 64.69 47.1C65.0653 46.7247 65.2761 46.2157 65.2761 45.685C65.2761 45.1542 65.0653 44.6452 64.69 44.27C59.7307 39.3175 53.0086 36.5359 46 36.5359C38.9914 36.5359 32.2693 39.3175 27.31 44.27Z" fill="#0084FF"/>
<path d="M32.9999 50.9999C32.6246 51.3752 32.4138 51.8842 32.4138 52.4149C32.4138 52.9456 32.6246 53.4546 32.9999 53.8299C33.3752 54.2052 33.8842 54.416 34.4149 54.416C34.9457 54.416 35.4547 54.2052 35.8299 53.8299C38.5197 51.1491 42.1624 49.6439 45.9599 49.6439C49.7575 49.6439 53.4002 51.1491 56.0899 53.8299C56.4652 54.2158 56.9784 54.4368 57.5166 54.4443C58.0549 54.4518 58.574 54.2452 58.9599 53.8699C59.3458 53.4946 59.5668 52.9814 59.5743 52.4432C59.5818 51.905 59.3752 51.3858 58.9999 50.9999C57.2944 49.2898 55.2682 47.933 53.0374 47.0072C50.8067 46.0814 48.4152 45.6049 45.9999 45.6049C43.5847 45.6049 41.1932 46.0814 38.9624 47.0072C36.7316 47.933 34.7055 49.2898 32.9999 50.9999Z" fill="#0084FF"/>
<path d="M38.8901 57.8501C38.5148 58.2254 38.304 58.7344 38.304 59.2651C38.304 59.7958 38.5148 60.3048 38.8901 60.6801C39.2653 61.0554 39.7743 61.2662 40.3051 61.2662C40.8358 61.2662 41.3448 61.0554 41.7201 60.6801C42.8561 59.5467 44.3953 58.9102 46.0001 58.9102C47.6048 58.9102 49.144 59.5467 50.2801 60.6801C50.6534 61.0557 51.1605 61.2679 51.6901 61.2701C52.0873 61.2724 52.4763 61.1564 52.8073 60.9368C53.1383 60.7172 53.3965 60.404 53.5488 60.0371C53.7011 59.6702 53.7408 59.2662 53.6626 58.8767C53.5845 58.4872 53.3921 58.1298 53.1101 57.8501C51.2199 55.9729 48.664 54.9194 46.0001 54.9194C43.3361 54.9194 40.7803 55.9729 38.8901 57.8501Z" fill="#0084FF"/>
<path d="M22.1201 14.9097C22.4201 15.0297 22.7301 15.1297 23.0301 15.2397L24.5501 15.8297L25.8701 16.3297C25.9895 16.3785 26.0949 16.4561 26.1769 16.5556C26.2589 16.655 26.315 16.7733 26.3401 16.8997C26.4301 17.1997 26.5401 17.4897 26.6401 17.7797C26.9801 18.7797 27.3201 19.7197 27.6401 20.6897C27.6816 20.7832 27.7354 20.8706 27.8001 20.9497C27.9001 20.8597 27.9701 20.7997 27.9801 20.7397C28.0801 20.4797 28.1702 20.1997 28.2601 19.9297L28.7802 18.5197C28.9602 18.0097 29.1701 17.5197 29.3201 17.0097C29.3547 16.8316 29.4417 16.6679 29.57 16.5396C29.6983 16.4113 29.862 16.3243 30.0402 16.2897L30.2002 16.2397C31.3602 15.8097 32.5202 15.3797 33.6902 14.9297C33.7294 14.9149 33.7644 14.8907 33.7923 14.8594C33.8201 14.828 33.84 14.7904 33.8502 14.7497C33.8502 14.6797 33.7602 14.6097 33.6802 14.5697C33.6002 14.5297 33.4302 14.4897 33.3102 14.4397L31.8902 13.8897L29.8902 13.1397C29.7688 13.0938 29.6606 13.0187 29.5751 12.921C29.4896 12.8234 29.4295 12.7061 29.4002 12.5797L29.1002 11.6897C28.7502 10.6897 28.4102 9.74973 28.1002 8.76973C28.1002 8.69973 27.9901 8.59973 27.9302 8.59973C27.8702 8.59973 27.7801 8.68973 27.7401 8.75973C27.6847 8.89225 27.6412 9.02946 27.6102 9.16973L26.8201 11.3197L26.3401 12.6497C26.3064 12.7579 26.247 12.8563 26.1668 12.9364C26.0867 13.0165 25.9883 13.076 25.8801 13.1097L25.0901 13.3997L23.6801 13.9197L22.1401 14.4997C22.0401 14.4997 21.9801 14.6297 21.9001 14.6997C22.0001 14.7697 22.0001 14.8697 22.1201 14.9097Z" fill="#0084FF"/>
</svg>
