<svg width="92" height="92" viewBox="0 0 92 92" fill="none" xmlns="http://www.w3.org/2000/svg">
<path d="M39.54 39.95L32.98 47.34L46.6 61.1L52.11 56.07L39.54 39.95Z" fill="#EDF3FF"/>
<path d="M72.2002 15.3401C69.8571 15.3456 67.567 16.037 65.6122 17.3289C63.6575 18.6208 62.1237 20.4567 61.2002 22.6101C62.9153 22.1034 64.6582 21.6961 66.4202 21.3901L71.2902 20.5601C71.8059 20.4728 72.3353 20.5161 72.8299 20.6862C73.3246 20.8562 73.7687 21.1474 74.1218 21.5333C74.4749 21.9192 74.7256 22.3875 74.8511 22.8952C74.9766 23.403 74.9729 23.9341 74.8402 24.4401L73.5802 29.2101C72.6774 32.6391 71.3786 35.9513 69.7102 39.0801C70.5413 39.2615 71.3896 39.352 72.2402 39.3501C75.4228 39.3501 78.475 38.0858 80.7255 35.8354C82.9759 33.5849 84.2402 30.5327 84.2402 27.3501C84.2402 24.1675 82.9759 21.1152 80.7255 18.8648C78.475 16.6144 75.4228 15.3501 72.2402 15.3501L72.2002 15.3401Z" fill="#EDF3FF"/>
<path d="M18.3301 23.3702C19.8754 23.9785 21.2291 24.9904 22.2501 26.3002C22.7794 26.9778 23.2196 27.7206 23.5601 28.5102C23.5601 28.5802 23.6401 28.6302 23.7001 28.7402C23.7927 28.5887 23.8762 28.4317 23.9501 28.2702C24.3122 27.4449 24.7978 26.6795 25.3901 26.0002C25.9055 25.3749 26.5163 24.835 27.2001 24.4002C27.7201 24.0702 28.2701 23.7802 28.8101 23.4802C28.9101 23.4302 29.0201 23.4302 29.1101 23.3802C29.1411 23.3621 29.1679 23.3376 29.1886 23.3083C29.2093 23.2789 29.2234 23.2455 29.2301 23.2102C29.222 23.1793 29.207 23.1506 29.1863 23.1263C29.1655 23.102 29.1394 23.0829 29.1101 23.0702C28.1396 22.6967 27.2425 22.1551 26.4601 21.4702C25.7138 20.8482 25.0781 20.1043 24.5801 19.2702C24.3201 18.8102 24.0901 18.3402 23.8501 17.8802L23.7201 17.6902C23.6301 17.8602 23.5401 18.0002 23.4801 18.1402C23.1226 18.9429 22.6474 19.6878 22.0701 20.3502C21.5355 21.0018 20.905 21.5683 20.2001 22.0302C19.6901 22.3502 19.1501 22.6302 18.6201 22.9202C18.5301 22.9202 18.4201 22.9202 18.3301 23.0202C18.298 23.0382 18.2699 23.0625 18.2475 23.0918C18.2252 23.121 18.209 23.1545 18.2001 23.1902C18.1901 23.2602 18.2701 23.3502 18.3301 23.3702Z" fill="#0084FF"/>
<path d="M72 73.67C71.89 73.61 71.75 73.59 71.63 73.54L70.23 73C69.56 72.74 68.9 72.49 68.23 72.25C68.1088 72.2065 68.0005 72.1334 67.9149 72.0374C67.8293 71.9413 67.7692 71.8253 67.74 71.7C67.64 71.4 67.54 71.09 67.44 70.8C67.09 69.8 66.75 68.86 66.44 67.88C66.44 67.81 66.33 67.71 66.26 67.71C66.19 67.71 66.11 67.8 66.08 67.87C66.0259 68.004 65.9792 68.1409 65.94 68.28L65.16 70.43L64.68 71.76C64.6427 71.8663 64.5821 71.9628 64.5024 72.0424C64.4228 72.1221 64.3263 72.1827 64.22 72.22L63.43 72.51L62 73L60.45 73.58C60.36 73.58 60.3 73.71 60.21 73.78C60.3 73.85 60.36 73.95 60.45 73.99L61.37 74.32L62.88 74.91L64.21 75.41C64.3274 75.4616 64.4312 75.54 64.5128 75.639C64.5944 75.738 64.6517 75.8548 64.68 75.98C64.77 76.28 64.87 76.57 64.97 76.86C65.31 77.86 65.65 78.8 65.97 79.77C66.0156 79.8634 66.0727 79.9507 66.14 80.03C66.23 79.94 66.31 79.88 66.32 79.82C66.42 79.56 66.5 79.28 66.6 79.01L67.11 77.6C67.29 77.1 67.51 76.6 67.66 76.09C67.6926 75.9126 67.7777 75.7492 67.9043 75.6208C68.0309 75.4924 68.1931 75.4051 68.37 75.37H68.53C69.7 74.94 70.86 74.51 72.03 74.06C72.09 74.06 72.19 73.94 72.19 73.88C72.19 73.82 72.11 73.71 72 73.67Z" fill="#0084FF"/>
<path d="M31.68 53.9999C30.5561 53.947 29.4328 54.1177 28.3754 54.5022C27.318 54.8868 26.3474 55.4774 25.52 56.2399C22.59 58.9199 19.31 69.6599 18.68 71.7899L17.74 74.9999L21 74.2899C23.17 73.8499 34.15 71.5299 37.08 68.8399C38.3247 67.6973 39.2029 66.2115 39.6039 64.5702C40.0048 62.9288 39.9104 61.2055 39.3326 59.6177C38.7549 58.0299 37.7197 56.649 36.3576 55.6491C34.9956 54.6493 33.3679 54.0754 31.68 53.9999ZM34.38 65.9099C33.15 67.0499 28.07 68.5699 23.55 69.6499C25 65.2199 27 60.2999 28.22 59.1699C29.0634 58.4071 30.1629 57.9895 31.3 57.9999H31.5C32.099 58.0256 32.6871 58.1692 33.2305 58.4224C33.774 58.6756 34.2622 59.0335 34.6672 59.4757C35.0721 59.9178 35.3859 60.4355 35.5906 60.999C35.7953 61.5625 35.8868 62.1609 35.86 62.7599C35.8322 63.3535 35.6871 63.9357 35.4331 64.4729C35.179 65.0101 34.8211 65.4917 34.38 65.8899V65.9099Z" fill="#0084FF"/>
<path d="M74.0798 21.5302C73.7285 21.1412 73.2857 20.846 72.7916 20.6714C72.2974 20.4968 71.7675 20.4483 71.2498 20.5302L66.3798 21.3602C58.2743 22.7695 50.6849 26.2951 44.3798 31.5802C43.5567 32.2841 42.7785 33.0389 42.0498 33.8402C37.8297 33.33 33.5531 34.0816 29.7598 36.0002C26.889 37.3474 24.326 39.2706 22.2298 41.6502L20.5598 43.6502L31.3098 45.7902L30.5398 46.6502L45.5798 63.0002L46.8898 62.0002L48.1798 73.7802L50.2598 72.2902C52.814 70.4096 54.9577 68.0277 56.5598 65.2902C59.1598 60.9002 60.2498 55.9702 59.5598 51.8902C59.8798 51.6402 60.1898 51.3702 60.4798 51.1002C66.7612 45.1638 71.2631 37.5938 73.4798 29.2402L74.7398 24.4702C74.886 23.9642 74.9022 23.4294 74.7869 22.9155C74.6715 22.4016 74.4283 21.9251 74.0798 21.5302ZM26.4198 41.7102C27.8257 40.5125 29.3822 39.5039 31.0498 38.7102C33.6918 37.4031 36.5925 36.7027 39.5398 36.6602L33.6598 43.1502L26.4198 41.7102ZM34.5998 46.5802L38.8798 41.8602L50.9998 54.8802L45.8998 58.8802L34.5998 46.5802ZM53.9998 63.7402C53.0558 65.3286 51.9132 66.7904 50.5998 68.0902L49.6898 59.7702L56.7998 54.1002C56.7408 57.5054 55.7742 60.8332 53.9998 63.7402ZM71.8898 23.6702L70.6398 28.4502C68.596 36.269 64.3841 43.3512 58.4898 48.8802C58.2498 49.1002 58.0098 49.3102 57.7498 49.5102L53.3598 53.0002L40.8998 39.6302L43.5498 36.7002C43.7187 36.5831 43.8589 36.4292 43.9598 36.2502L44.2698 35.9102C44.9172 35.2007 45.6085 34.5327 46.3398 33.9102C52.2099 28.9483 59.3027 25.6505 66.8798 24.3602L71.7498 23.5302C71.7686 23.5213 71.789 23.5167 71.8098 23.5167C71.8306 23.5167 71.8511 23.5213 71.8698 23.5302C71.891 23.5461 71.9051 23.5698 71.9088 23.596C71.9126 23.6223 71.9057 23.6489 71.8898 23.6702Z" fill="#181818"/>
</svg>
