<svg width="92" height="92" viewBox="0 0 92 92" fill="none" xmlns="http://www.w3.org/2000/svg">
<path d="M63.6902 12.5801L74.7802 14.6801L77.9902 19.7501L76.7302 39.9501L74.2202 43.1501L67.5002 41.9101L68.7802 19.4701L63.6902 12.5801Z" fill="#EDF3FF"/>
<path d="M63.6902 41.9099L74.7802 44.0099L77.9902 49.0799L76.7302 69.2799L74.2202 72.4799L67.5002 71.2399L68.7802 48.7999L63.6902 41.9099Z" fill="#EDF3FF"/>
<path d="M19.9999 12.58H26.8999C25.9498 10.8415 24.5841 9.36519 22.9246 8.28296C21.265 7.20074 19.3634 6.54624 17.3894 6.37788C15.4153 6.20952 13.4303 6.53255 11.6115 7.31812C9.79269 8.10369 8.19668 9.32736 6.96593 10.8799C5.73518 12.4325 4.90798 14.2656 4.55816 16.2157C4.20835 18.1658 4.34681 20.1721 4.96118 22.0557C5.57555 23.9392 6.64672 25.6413 8.07908 27.0101C9.51143 28.3789 11.2604 29.3717 13.1699 29.9V19.39C13.1712 18.4944 13.3489 17.6078 13.6928 16.7809C14.0368 15.9539 14.5403 15.2028 15.1745 14.5705C15.8087 13.9381 16.5613 13.4368 17.3892 13.0953C18.2172 12.7538 19.1043 12.5787 19.9999 12.58Z" fill="#EDF3FF"/>
<path d="M69.3302 15.5801H72.0002C73.0098 15.5827 73.9774 15.985 74.6913 16.6989C75.4053 17.4129 75.8075 18.3804 75.8102 19.3901V38.1001C75.8075 39.1097 75.4053 40.0773 74.6913 40.7912C73.9774 41.5052 73.0098 41.9074 72.0002 41.9101C73.5471 41.9068 75.048 42.4365 76.2502 43.4101C77.048 42.7738 77.6923 41.9661 78.1355 41.0469C78.5786 40.1277 78.8092 39.1205 78.8102 38.1001V19.3901C78.8102 17.584 78.0927 15.8518 76.8156 14.5747C75.5385 13.2976 73.8063 12.5801 72.0002 12.5801H63.6902C64.8039 12.5808 65.9005 12.8547 66.8838 13.3777C67.8671 13.9007 68.7071 14.657 69.3302 15.5801Z" fill="#181818"/>
<path d="M20.0002 41.9101C18.9905 41.9074 18.023 41.5052 17.309 40.7912C16.5951 40.0773 16.1928 39.1097 16.1902 38.1001V19.3901C16.1928 18.3804 16.5951 17.4129 17.309 16.6989C18.023 15.985 18.9905 15.5827 20.0002 15.5801H63.6902C64.6999 15.5827 65.6674 15.985 66.3814 16.6989C67.0953 17.4129 67.4976 18.3804 67.5002 19.3901V38.1001C67.4976 39.1097 67.0953 40.0773 66.3814 40.7912C65.6674 41.5052 64.6999 41.9074 63.6902 41.9101H69.3302C70.0942 40.7865 70.5019 39.4588 70.5002 38.1001V19.3901C70.4975 17.5848 69.7792 15.8542 68.5027 14.5776C67.2261 13.3011 65.4955 12.5827 63.6902 12.5801H20.0002C18.1949 12.5827 16.4643 13.3011 15.1877 14.5776C13.9112 15.8542 13.1928 17.5848 13.1902 19.3901V38.1001C13.1911 39.1205 13.4217 40.1277 13.8649 41.0469C14.308 41.9661 14.9524 42.7738 15.7502 43.4101C16.9524 42.4365 18.4532 41.9068 20.0002 41.9101Z" fill="#181818"/>
<path d="M29.15 21.2299C28.6671 21.0135 28.1182 20.9972 27.6234 21.1846C27.1286 21.372 26.7282 21.7479 26.51 22.2299L21.59 33.6199C21.3767 34.1016 21.362 34.6481 21.5493 35.1405C21.7365 35.6329 22.1105 36.0316 22.59 36.2499C22.8379 36.3632 23.1074 36.4212 23.38 36.4199C23.7714 36.4204 24.1544 36.3061 24.4815 36.091C24.8086 35.8759 25.0653 35.5695 25.22 35.2099L30.14 23.8599C30.3539 23.3794 30.37 22.834 30.1847 22.3417C29.9994 21.8495 29.6277 21.45 29.15 21.2299Z" fill="#0084FF"/>
<path d="M38.15 21.2301C37.6683 21.0168 37.1218 21.0022 36.6294 21.1894C36.1369 21.3767 35.7383 21.7506 35.52 22.2301L30.59 33.6201C30.3767 34.1018 30.362 34.6483 30.5493 35.1407C30.7365 35.6331 31.1105 36.0318 31.59 36.2501C31.841 36.3645 32.1141 36.4225 32.39 36.4201C32.7797 36.4187 33.1606 36.3034 33.4857 36.0884C33.8108 35.8734 34.066 35.5682 34.22 35.2101L39.15 23.8601C39.3633 23.3784 39.3779 22.832 39.1907 22.3395C39.0034 21.8471 38.6295 21.4484 38.15 21.2301Z" fill="#0084FF"/>
<path d="M57.5201 26.6199C57.0378 26.5959 56.5594 26.7173 56.1469 26.9685C55.7344 27.2196 55.4069 27.5889 55.2068 28.0284C55.0067 28.4679 54.9433 28.9574 55.0248 29.4334C55.1062 29.9094 55.3288 30.3499 55.6636 30.6979C55.9984 31.0459 56.4301 31.2853 56.9026 31.385C57.3751 31.4847 57.8666 31.4402 58.3135 31.2572C58.7604 31.0742 59.142 30.7612 59.4089 30.3587C59.6757 29.9562 59.8155 29.4828 59.8101 28.9999C59.8182 28.3818 59.5823 27.7853 59.1537 27.3398C58.725 26.8943 58.1381 26.6357 57.5201 26.6199Z" fill="#181818"/>
<path d="M78.8302 67.4299V48.7199C78.8249 46.912 78.103 45.1798 76.8227 43.9033C75.5424 42.6267 73.8082 41.9099 72.0002 41.9099H63.6902C64.8039 41.9106 65.9005 42.1845 66.8838 42.7076C67.8671 43.2306 68.7071 43.9868 69.3302 44.9099H72.0002C73.0098 44.9126 73.9774 45.3148 74.6913 46.0288C75.4053 46.7427 75.8075 47.7103 75.8102 48.7199V67.4299C75.8075 68.4396 75.4053 69.4071 74.6913 70.1211C73.9774 70.835 73.0098 71.2373 72.0002 71.2399H69.3302C68.7052 72.1612 67.8648 72.916 66.8819 73.4388C65.8991 73.9616 64.8034 74.2366 63.6902 74.2399H72.0002C72.8958 74.2412 73.7829 74.0661 74.6108 73.7246C75.4388 73.3831 76.1914 72.8818 76.8256 72.2495C77.4598 71.6171 77.9633 70.866 78.3072 70.0391C78.6512 69.2121 78.8289 68.3255 78.8302 67.4299Z" fill="#181818"/>
<path d="M69.3302 71.2399C70.0942 70.1163 70.5019 68.7886 70.5002 67.4299V48.7199C70.4975 46.9146 69.7792 45.184 68.5027 43.9074C67.2261 42.6309 65.4955 41.9126 63.6902 41.9099H20.0002C18.1957 41.9152 16.4666 42.6344 15.1906 43.9103C13.9146 45.1863 13.1955 46.9154 13.1902 48.7199V67.4299C13.1928 69.2352 13.9112 70.9658 15.1877 72.2424C16.4643 73.5189 18.1949 74.2373 20.0002 74.2399H63.6902C64.8034 74.2366 65.8991 73.9616 66.8819 73.4388C67.8648 72.916 68.7052 72.1612 69.3302 71.2399ZM20.0002 71.2399C18.9905 71.2373 18.023 70.835 17.309 70.1211C16.5951 69.4071 16.1928 68.4396 16.1902 67.4299V48.7199C16.1928 47.7102 16.5951 46.7427 17.309 46.0287C18.023 45.3148 18.9905 44.9126 20.0002 44.9099H63.6902C64.6999 44.9126 65.6674 45.3148 66.3814 46.0287C67.0953 46.7427 67.4976 47.7102 67.5002 48.7199V67.4299C67.4976 68.4396 67.0953 69.4071 66.3814 70.1211C65.6674 70.835 64.6999 71.2373 63.6902 71.2399H20.0002Z" fill="#181818"/>
<path d="M29.15 50.56C28.6671 50.3436 28.1182 50.3273 27.6234 50.5147C27.1286 50.7021 26.7282 51.078 26.51 51.56L21.59 63C21.3767 63.4817 21.362 64.0281 21.5493 64.5206C21.7365 65.013 22.1105 65.4117 22.59 65.63C22.839 65.7398 23.1078 65.7977 23.38 65.8C23.7714 65.8005 24.1544 65.6861 24.4815 65.471C24.8086 65.256 25.0653 64.9496 25.22 64.59L30.14 53.24C30.2537 52.9995 30.3183 52.7387 30.33 52.4728C30.3417 52.207 30.3002 51.9416 30.208 51.692C30.1158 51.4424 29.9747 51.2137 29.7931 51.0194C29.6114 50.825 29.3928 50.6688 29.15 50.56Z" fill="#0084FF"/>
<path d="M38.15 50.5602C37.6683 50.3469 37.1218 50.3323 36.6294 50.5195C36.1369 50.7067 35.7383 51.0807 35.52 51.5602L30.59 63.0002C30.3767 63.4819 30.362 64.0283 30.5493 64.5208C30.7365 65.0132 31.1105 65.4119 31.59 65.6302C31.8425 65.74 32.1146 65.7978 32.39 65.8002C32.7797 65.7987 33.1606 65.6835 33.4857 65.4685C33.8108 65.2535 34.066 64.9482 34.22 64.5902L39.15 53.2402C39.2634 52.999 39.3275 52.7377 39.3385 52.4714C39.3495 52.2052 39.3071 51.9394 39.214 51.6897C39.1208 51.4401 38.9787 51.2115 38.796 51.0176C38.6133 50.8236 38.3936 50.6681 38.15 50.5602Z" fill="#0084FF"/>
<path d="M57.52 55.9998C57.039 55.9758 56.5618 56.0965 56.15 56.3464C55.7382 56.5962 55.4107 56.9636 55.2098 57.4014C55.0088 57.8391 54.9436 58.327 55.0226 58.8021C55.1016 59.2772 55.3212 59.7178 55.6529 60.0669C55.9847 60.4161 56.4135 60.6578 56.8839 60.7609C57.3544 60.8641 57.845 60.8239 58.2924 60.6455C58.7398 60.4672 59.1235 60.1589 59.394 59.7604C59.6645 59.3619 59.8094 58.8915 59.81 58.4098C59.818 58.1012 59.7651 57.794 59.6543 57.5058C59.5435 57.2177 59.377 56.9541 59.1644 56.7303C58.9517 56.5065 58.697 56.3268 58.4149 56.2015C58.1327 56.0761 57.8286 56.0076 57.52 55.9998Z" fill="#181818"/>
<path d="M85.3598 81.1001C85.2427 81.0571 85.1223 81.0236 84.9998 81.0001L83.5798 80.4401C82.9132 80.1801 82.2465 79.9301 81.5798 79.6901C81.4601 79.6444 81.353 79.5706 81.2677 79.4749C81.1825 79.3792 81.1214 79.2644 81.0898 79.1401L80.7898 78.2401L79.7898 75.3301C79.7898 75.2501 79.6798 75.1501 79.6198 75.1501C79.5598 75.1501 79.4698 75.2401 79.4298 75.3201C79.373 75.4487 79.3295 75.5827 79.2998 75.7201C79.0398 76.4401 78.7698 77.1601 78.5098 77.8701L77.9998 79.1801C77.9646 79.2886 77.9047 79.3875 77.8249 79.4691C77.7451 79.5506 77.6475 79.6126 77.5398 79.6501L76.7498 79.9301L75.3398 80.4601C74.8298 80.6401 74.3398 80.8301 73.7998 81.0301C73.6998 81.0301 73.6398 81.1601 73.5598 81.2301C73.6247 81.3157 73.7064 81.3872 73.7998 81.4401L74.7098 81.7801L76.2298 82.3601C76.6698 82.5401 77.1098 82.7001 77.5498 82.8601C77.6673 82.9118 77.771 82.9902 77.8526 83.0892C77.9343 83.1882 77.9915 83.305 78.0198 83.4301C78.1098 83.7301 78.2198 84.0201 78.3198 84.3101C78.6598 85.3101 78.9998 86.2501 79.3198 87.2301C79.3641 87.3189 79.4178 87.4027 79.4798 87.4801C79.5798 87.3901 79.6498 87.3301 79.6598 87.2701C79.7598 87.0101 79.8498 86.7301 79.9398 86.4701C80.1098 85.9901 80.2898 85.5301 80.4598 85.0501C80.6298 84.5701 80.8498 84.0501 80.9998 83.5401C81.0344 83.362 81.1214 83.1983 81.2497 83.07C81.378 82.9417 81.5417 82.8547 81.7198 82.8201H81.8798C83.0398 82.3901 84.1998 81.9701 85.3698 81.5101C85.409 81.4953 85.4441 81.4711 85.4719 81.4398C85.4998 81.4084 85.5196 81.3708 85.5298 81.3301C85.5298 81.2201 85.4398 81.1401 85.3598 81.1001Z" fill="#0084FF"/>
</svg>
