<svg width="92" height="92" viewBox="0 0 92 92" fill="none" xmlns="http://www.w3.org/2000/svg">
<path d="M71.0001 4.82007C68.6579 4.81857 66.3778 5.57294 64.4986 6.97102C62.6195 8.36911 61.2417 10.3363 60.5701 12.5801H69.0001C71.1687 12.5827 73.2478 13.4454 74.7813 14.9789C76.3148 16.5123 77.1774 18.5914 77.1801 20.7601V24.7001C79.0963 23.3817 80.5406 21.485 81.3017 19.2871C82.0629 17.0892 82.101 14.7055 81.4106 12.4844C80.7201 10.2633 79.3373 8.32129 77.4642 6.94231C75.5911 5.56333 73.326 4.81968 71.0001 4.82007Z" fill="#0084FF"/>
<path d="M28.2999 45.1401C29.4866 45.1401 30.6467 44.7883 31.6334 44.129C32.62 43.4697 33.3891 42.5326 33.8432 41.4362C34.2973 40.3399 34.4162 39.1335 34.1846 37.9696C33.9531 36.8057 33.3817 35.7366 32.5426 34.8975C31.7035 34.0584 30.6344 33.4869 29.4705 33.2554C28.3066 33.0239 27.1002 33.1427 26.0038 33.5969C24.9075 34.051 23.9704 34.82 23.3111 35.8067C22.6518 36.7934 22.2999 37.9535 22.2999 39.1401C22.2999 40.7314 22.9321 42.2576 24.0573 43.3828C25.1825 44.508 26.7086 45.1401 28.2999 45.1401Z" fill="#0084FF"/>
<path d="M28.3001 46.3899C25.792 46.3925 23.3873 47.3901 21.6138 49.1636C19.8403 50.9371 18.8427 53.3418 18.8401 55.8499V58.8499H37.7701V55.8499C37.7674 53.34 36.7685 50.9339 34.9929 49.1601C33.2172 47.3862 30.81 46.3899 28.3001 46.3899Z" fill="#0084FF"/>
<path d="M64.46 44.5H56.46V36.5C56.46 36.1022 56.3019 35.7206 56.0206 35.4393C55.7393 35.158 55.3578 35 54.96 35C54.5621 35 54.1806 35.158 53.8993 35.4393C53.618 35.7206 53.46 36.1022 53.46 36.5V44.5H45.46C45.0621 44.5 44.6806 44.658 44.3993 44.9393C44.118 45.2206 43.96 45.6022 43.96 46C43.96 46.3978 44.118 46.7794 44.3993 47.0607C44.6806 47.342 45.0621 47.5 45.46 47.5H53.46V55.5C53.46 55.8978 53.618 56.2794 53.8993 56.5607C54.1806 56.842 54.5621 57 54.96 57C55.3578 57 55.7393 56.842 56.0206 56.5607C56.3019 56.2794 56.46 55.8978 56.46 55.5V47.5H64.46C64.8578 47.5 65.2393 47.342 65.5206 47.0607C65.8019 46.7794 65.96 46.3978 65.96 46C65.96 45.6022 65.8019 45.2206 65.5206 44.9393C65.2393 44.658 64.8578 44.5 64.46 44.5Z" fill="#181818"/>
<path d="M68.9999 12.5801H14.6999C12.5295 12.5801 10.4479 13.4416 8.91222 14.9753C7.37658 16.5091 6.51254 18.5897 6.50989 20.7601V70.0001C6.51254 72.1705 7.37658 74.2511 8.91222 75.7848C10.4479 77.3186 12.5295 78.1801 14.6999 78.1801H68.9999C71.1633 78.1695 73.2347 77.3034 74.7617 75.7707C76.2887 74.2381 77.1473 72.1636 77.1499 70.0001V20.7601C77.1473 18.5966 76.2887 16.522 74.7617 14.9894C73.2347 13.4568 71.1633 12.5906 68.9999 12.5801ZM14.6999 75.1401C13.3328 75.1375 12.0218 74.5968 11.0504 73.6348C10.0791 72.6728 9.52566 71.3671 9.50989 70.0001V20.7601C9.51254 19.3853 10.0605 18.0678 11.0335 17.0967C12.0066 16.1255 13.3251 15.5801 14.6999 15.5801H68.9999C69.6801 15.5801 70.3537 15.7141 70.9822 15.9744C71.6106 16.2347 72.1817 16.6163 72.6627 17.0973C73.1437 17.5783 73.5253 18.1493 73.7856 18.7778C74.0459 19.4062 74.1799 20.0798 74.1799 20.7601V70.0001C74.1667 71.3661 73.6155 72.6719 72.6458 73.6342C71.676 74.5964 70.366 75.1375 68.9999 75.1401H14.6999Z" fill="#181818"/>
</svg>
