<svg width="92" height="92" viewBox="0 0 92 92" fill="none" xmlns="http://www.w3.org/2000/svg">
<path d="M51.1302 38.84H51.0102C50.5308 38.6905 50.0126 38.7267 49.5587 38.9416C49.1048 39.1566 48.7484 39.5344 48.5602 40C48.3802 40.5 48.1702 41 47.9502 41.47C47.7352 41.9303 47.7034 42.4552 47.8612 42.9381C48.0191 43.4209 48.3548 43.8257 48.8002 44.07L48.9102 44.13C49.1761 44.255 49.4664 44.3199 49.7602 44.32C50.14 44.3199 50.5118 44.2118 50.8324 44.0081C51.1529 43.8045 51.4088 43.5138 51.5702 43.17C51.8402 42.59 52.0902 41.99 52.3202 41.38C52.4947 40.8852 52.4677 40.3416 52.2451 39.8664C52.0225 39.3913 51.6221 39.0227 51.1302 38.84Z" fill="#0084FF"/>
<path d="M47.5799 45.8998C47.1853 45.5828 46.6853 45.4271 46.1805 45.4643C45.6757 45.5014 45.2038 45.7285 44.8599 46.0998C44.4999 46.4898 44.1199 46.8598 43.7299 47.2198C43.3429 47.5675 43.1065 48.0522 43.0711 48.5713C43.0356 49.0903 43.2038 49.6027 43.5399 49.9998C43.5598 50.0354 43.5833 50.0689 43.6099 50.0998C43.9685 50.4887 44.4666 50.7196 44.9951 50.7421C45.5236 50.7646 46.0395 50.5768 46.4299 50.2198C46.9099 49.7898 47.3699 49.3198 47.7999 48.8498C47.9812 48.6559 48.1222 48.4277 48.2144 48.1788C48.3067 47.9298 48.3485 47.6649 48.3373 47.3996C48.3261 47.1344 48.2622 46.8739 48.1494 46.6336C48.0365 46.3933 47.8769 46.1778 47.6799 45.9998L47.5799 45.8998Z" fill="#0084FF"/>
<path d="M41.7199 51.1701C41.4755 50.7247 41.0708 50.389 40.5879 50.2311C40.105 50.0732 39.5801 50.105 39.1199 50.3201C38.6499 50.5401 38.1199 50.7501 37.6599 50.9301C37.1832 51.1069 36.7918 51.4586 36.5652 51.9137C36.3385 52.3688 36.2937 52.8931 36.4399 53.3801V53.5001C36.5813 53.8848 36.8374 54.2167 37.1737 54.451C37.5099 54.6853 37.91 54.8107 38.3199 54.8101C38.556 54.8107 38.7901 54.7666 39.0099 54.6801C39.6199 54.4601 40.2199 54.2101 40.7999 53.9401C41.0423 53.8321 41.2608 53.677 41.4426 53.4838C41.6245 53.2905 41.7661 53.0631 41.8592 52.8146C41.9522 52.5661 41.9949 52.3015 41.9847 52.0364C41.9746 51.7712 41.9117 51.5107 41.7999 51.2701C41.7707 51.2388 41.744 51.2054 41.7199 51.1701Z" fill="#0084FF"/>
<path d="M53.6602 32.7199C53.4721 28.3381 52.0006 24.1081 49.4286 20.5556C46.8566 17.0031 43.2974 14.2845 39.1933 12.7378C35.0893 11.1911 30.6212 10.8844 26.3442 11.8557C22.0673 12.8271 18.17 15.0337 15.1366 18.2014C12.1033 21.3691 10.0675 25.3583 9.28235 29.6733C8.49717 33.9883 8.99716 38.4389 10.7202 42.4722C12.4432 46.5054 15.3134 49.9435 18.974 52.3592C22.6346 54.7749 26.9243 56.0618 31.3102 56.0599C31.6802 56.0599 32.0402 56.0599 32.4102 56.0599C32.6729 56.0471 32.9306 55.9826 33.1684 55.8701C33.4062 55.7575 33.6194 55.5992 33.7959 55.4041C33.9724 55.2091 34.1087 54.9811 34.1969 54.7333C34.2852 54.4854 34.3237 54.2226 34.3102 53.9599C34.3102 53.9599 34.3102 53.8799 34.3102 53.8399C34.2713 53.4984 34.145 53.1727 33.9436 52.8942C33.7422 52.6157 33.4724 52.3938 33.1602 52.2499C32.8679 52.1191 32.5504 52.0542 32.2302 52.0599H31.3302C27.7175 52.0661 24.1831 51.0075 21.1686 49.0163C18.1541 47.0252 15.7933 44.1898 14.3811 40.8646C12.9689 37.5393 12.568 33.8716 13.2285 30.3198C13.889 26.7679 15.5815 23.4895 18.0946 20.8942C20.6078 18.2988 23.83 16.5016 27.3588 15.7272C30.8875 14.9528 34.5662 15.2355 37.9352 16.5399C41.3042 17.8443 44.2141 20.1127 46.3012 23.0615C48.3883 26.0104 49.5601 29.5089 49.6702 33.1199V33.4399C49.6702 33.4399 49.6702 33.5999 49.6702 33.6799C49.6702 33.7599 49.6702 33.8699 49.6702 33.9599C49.6702 34.0499 49.6702 34.3799 49.6702 34.5799C49.658 34.9007 49.7232 35.2197 49.8602 35.5099C50.0041 35.8221 50.226 36.0919 50.5045 36.2933C50.783 36.4948 51.1087 36.621 51.4502 36.6599H51.5702H51.6702C52.1838 36.6606 52.6779 36.4636 53.0502 36.1099C53.4225 35.7562 53.6445 35.2728 53.6702 34.7599C53.6702 34.3899 53.6702 34.0299 53.6702 33.6599C53.6902 33.5799 53.6702 32.9399 53.6602 32.7199Z" fill="#0084FF"/>
<path d="M55.3398 44.6298C55.3385 46.3707 55.6803 48.0947 56.3456 49.7034C57.0109 51.3122 57.9866 52.774 59.2171 54.0054C60.4477 55.2369 61.9088 56.2138 63.517 56.8803C65.1252 57.5468 66.849 57.8898 68.5898 57.8898C69.1147 57.8867 69.6389 57.8533 70.1599 57.7898V49.5298C70.1599 49.132 70.3179 48.7505 70.5992 48.4692C70.8805 48.1879 71.262 48.0298 71.6599 48.0298C72.0577 48.0298 72.4392 48.1879 72.7205 48.4692C73.0018 48.7505 73.1599 49.132 73.1599 49.5298V57.0598C76.0872 55.9933 78.5447 53.9285 80.0999 51.2288C81.6552 48.5291 82.2085 45.3675 81.6627 42.3C81.1168 39.2326 79.5066 36.4559 77.1155 34.4585C74.7244 32.4611 71.7055 31.371 68.5898 31.3798C66.1841 31.3772 63.8243 32.0381 61.7699 33.2898C59.8095 34.4633 58.1868 36.1247 57.0599 38.1121C55.933 40.0996 55.3404 42.3451 55.3398 44.6298Z" fill="#EDF3FF"/>
<path d="M32.8099 33V21C32.8099 20.6022 32.6519 20.2206 32.3706 19.9393C32.0893 19.658 31.7078 19.5 31.3099 19.5C30.9121 19.5 30.5306 19.658 30.2493 19.9393C29.968 20.2206 29.8099 20.6022 29.8099 21V34.4L31.3099 35.75L36.5999 40.52C36.8722 40.7714 37.2294 40.9107 37.5999 40.91C37.9042 40.9105 38.2013 40.8184 38.452 40.646C38.7027 40.4736 38.895 40.2291 39.0035 39.9449C39.112 39.6607 39.1315 39.3502 39.0594 39.0546C38.9873 38.759 38.8271 38.4924 38.5999 38.29L36.5999 36.48L32.8099 33Z" fill="#0084FF"/>
<path d="M36.2102 74.2401V80.4001C36.2102 80.7979 36.3682 81.1795 36.6495 81.4608C36.9309 81.7421 37.3124 81.9001 37.7102 81.9001C38.108 81.9001 38.4896 81.7421 38.7709 81.4608C39.0522 81.1795 39.2102 80.7979 39.2102 80.4001V74.2401C39.2102 73.8423 39.0522 73.4608 38.7709 73.1795C38.4896 72.8981 38.108 72.7401 37.7102 72.7401C37.3124 72.7401 36.9309 72.8981 36.6495 73.1795C36.3682 73.4608 36.2102 73.8423 36.2102 74.2401Z" fill="#181818"/>
<path d="M47.5298 64.38V80.38C47.5298 80.7778 47.6878 81.1594 47.9691 81.4407C48.2504 81.722 48.632 81.88 49.0298 81.88C49.4276 81.88 49.8091 81.722 50.0904 81.4407C50.3718 81.1594 50.5298 80.7778 50.5298 80.38V64.38C50.5298 63.9822 50.3718 63.6006 50.0904 63.3193C49.8091 63.038 49.4276 62.88 49.0298 62.88C48.632 62.88 48.2504 63.038 47.9691 63.3193C47.6878 63.6006 47.5298 63.9822 47.5298 64.38Z" fill="#181818"/>
<path d="M71.6599 48C71.2621 48 70.8806 48.158 70.5993 48.4393C70.3179 48.7206 70.1599 49.1022 70.1599 49.5V80.4C70.1599 80.7978 70.3179 81.1794 70.5993 81.4607C70.8806 81.742 71.2621 81.9 71.6599 81.9C72.0577 81.9 72.4393 81.742 72.7206 81.4607C73.0019 81.1794 73.1599 80.7978 73.1599 80.4V49.53C73.1639 49.3305 73.1281 49.1322 73.0545 48.9468C72.9809 48.7613 72.871 48.5924 72.7313 48.4499C72.5916 48.3074 72.4249 48.1942 72.241 48.117C72.057 48.0397 71.8594 48 71.6599 48Z" fill="#181818"/>
<path d="M58.8401 71.1798V80.3998C58.8401 80.7976 58.9981 81.1792 59.2794 81.4605C59.5607 81.7418 59.9423 81.8998 60.3401 81.8998C60.7379 81.8998 61.1195 81.7418 61.4008 81.4605C61.6821 81.1792 61.8401 80.7976 61.8401 80.3998V71.1798C61.8401 70.782 61.6821 70.4005 61.4008 70.1191C61.1195 69.8378 60.7379 69.6798 60.3401 69.6798C59.9423 69.6798 59.5607 69.8378 59.2794 70.1191C58.9981 70.4005 58.8401 70.782 58.8401 71.1798Z" fill="#181818"/>
<path d="M22.4801 70.6601C21.7278 70.0375 21.0885 69.2899 20.5901 68.4501C20.3301 68.0001 20.1001 67.5301 19.8601 67.0601L19.7301 66.8701C19.6401 67.0501 19.5501 67.1801 19.4901 67.3201C19.1325 68.1235 18.661 68.8712 18.0901 69.5401C17.549 70.1863 16.9155 70.749 16.2101 71.2101C15.7001 71.5401 15.1601 71.8101 14.6301 72.1001C14.5401 72.1501 14.4301 72.1501 14.3501 72.2001C14.2822 72.2401 14.2322 72.3045 14.2101 72.3801C14.2101 72.4301 14.2901 72.5101 14.3501 72.5301C15.8932 73.1423 17.2435 74.1577 18.2601 75.4701C18.7889 76.1464 19.2322 76.8853 19.5801 77.6701C19.5801 77.7401 19.6501 77.8001 19.7101 77.9101C19.8101 77.7201 19.9001 77.5801 19.9601 77.4301C20.324 76.6119 20.8095 75.8533 21.4001 75.1801C21.923 74.5622 22.5326 74.0232 23.2101 73.5801C23.7301 73.2501 24.2901 72.9701 24.8301 72.6701C24.9201 72.6701 25.0301 72.6101 25.1201 72.5601C25.152 72.5432 25.1796 72.519 25.2004 72.4895C25.2213 72.4599 25.2349 72.4259 25.2401 72.3901C25.2331 72.3601 25.2197 72.3321 25.2007 72.3079C25.1816 72.2837 25.1576 72.264 25.1301 72.2501C24.1589 71.8825 23.2615 71.344 22.4801 70.6601Z" fill="#0084FF"/>
</svg>
