<svg width="92" height="92" viewBox="0 0 92 92" fill="none" xmlns="http://www.w3.org/2000/svg">
<path d="M77.9199 59.12V71.2C77.9172 73.3686 77.0546 75.4477 75.5211 76.9812C73.9876 78.5147 71.9085 79.3773 69.7399 79.38H63.8799C65.0459 81.309 66.6764 82.9154 68.6226 84.0525C70.5687 85.1897 72.7687 85.8214 75.0217 85.8902C77.2747 85.9589 79.509 85.4624 81.5209 84.4459C83.5328 83.4295 85.2581 81.9255 86.5395 80.0711C87.8209 78.2167 88.6176 76.071 88.8569 73.8297C89.0962 71.5883 88.7705 69.3228 87.9095 67.2396C87.0485 65.1565 85.6796 63.3221 83.9277 61.9039C82.1758 60.4856 80.0966 59.5285 77.8799 59.12H77.9199Z" fill="#EDF3FF"/>
<path d="M69.74 16.83H15.46C14.0887 16.8326 12.7742 17.3778 11.8037 18.3465C10.8331 19.3152 10.2853 20.6287 10.28 22V28.7H74.92V22C74.9174 20.6279 74.3705 19.3129 73.3993 18.3436C72.4282 17.3743 71.1121 16.83 69.74 16.83ZM17.26 25C16.8407 25 16.4309 24.8756 16.0822 24.6427C15.7336 24.4097 15.4619 24.0786 15.3014 23.6912C15.1409 23.3039 15.099 22.8776 15.1808 22.4664C15.2626 22.0551 15.4645 21.6774 15.761 21.3809C16.0575 21.0844 16.4352 20.8825 16.8464 20.8007C17.2577 20.7189 17.6839 20.7609 18.0713 20.9213C18.4587 21.0818 18.7898 21.3535 19.0227 21.7021C19.2557 22.0508 19.38 22.4607 19.38 22.88C19.38 23.4422 19.1567 23.9814 18.7591 24.379C18.3615 24.7766 17.8223 25 17.26 25ZM24.46 25C24.0407 25 23.6309 24.8756 23.2822 24.6427C22.9336 24.4097 22.6619 24.0786 22.5014 23.6912C22.3409 23.3039 22.299 22.8776 22.3808 22.4664C22.4626 22.0551 22.6645 21.6774 22.961 21.3809C23.2575 21.0844 23.6352 20.8825 24.0464 20.8007C24.4577 20.7189 24.8839 20.7609 25.2713 20.9213C25.6587 21.0818 25.9898 21.3535 26.2227 21.7021C26.4557 22.0508 26.58 22.4607 26.58 22.88C26.58 23.4422 26.3567 23.9814 25.9591 24.379C25.5615 24.7766 25.0223 25 24.46 25ZM31.66 25C31.2407 25 30.8309 24.8756 30.4822 24.6427C30.1336 24.4097 29.8619 24.0786 29.7014 23.6912C29.5409 23.3039 29.499 22.8776 29.5808 22.4664C29.6626 22.0551 29.8645 21.6774 30.161 21.3809C30.4575 21.0844 30.8352 20.8825 31.2464 20.8007C31.6577 20.7189 32.0839 20.7609 32.4713 20.9213C32.8587 21.0818 33.1898 21.3535 33.4227 21.7021C33.6557 22.0508 33.78 22.4607 33.78 22.88C33.78 23.4422 33.5567 23.9814 33.1591 24.379C32.7615 24.7766 32.2223 25 31.66 25Z" fill="#EDF3FF"/>
<path d="M17.26 20.75C16.8407 20.75 16.4308 20.8743 16.0822 21.1073C15.7336 21.3402 15.4618 21.6713 15.3014 22.0587C15.1409 22.4461 15.099 22.8724 15.1808 23.2836C15.2626 23.6948 15.4645 24.0726 15.7609 24.3691C16.0574 24.6656 16.4352 24.8675 16.8464 24.9493C17.2577 25.0311 17.6839 24.9891 18.0713 24.8286C18.4587 24.6682 18.7898 24.3964 19.0227 24.0478C19.2557 23.6992 19.38 23.2893 19.38 22.87C19.38 22.3077 19.1567 21.7685 18.7591 21.3709C18.3615 20.9734 17.8223 20.75 17.26 20.75Z" fill="#0084FF"/>
<path d="M24.4598 20.75C24.0405 20.75 23.6307 20.8743 23.282 21.1073C22.9334 21.3402 22.6617 21.6713 22.5012 22.0587C22.3408 22.4461 22.2988 22.8724 22.3806 23.2836C22.4624 23.6948 22.6643 24.0726 22.9608 24.3691C23.2573 24.6656 23.635 24.8675 24.0463 24.9493C24.4575 25.0311 24.8838 24.9891 25.2711 24.8286C25.6585 24.6682 25.9896 24.3964 26.2226 24.0478C26.4555 23.6992 26.5798 23.2893 26.5798 22.87C26.5798 22.3077 26.3565 21.7685 25.9589 21.3709C25.5613 20.9734 25.0221 20.75 24.4598 20.75Z" fill="#0084FF"/>
<path d="M31.66 20.75C31.2407 20.75 30.8309 20.8743 30.4822 21.1073C30.1336 21.3402 29.8619 21.6713 29.7014 22.0587C29.541 22.4461 29.499 22.8724 29.5808 23.2836C29.6626 23.6948 29.8645 24.0726 30.161 24.3691C30.4575 24.6656 30.8352 24.8675 31.2465 24.9493C31.6577 25.0311 32.084 24.9891 32.4713 24.8286C32.8587 24.6682 33.1898 24.3964 33.4228 24.0478C33.6557 23.6992 33.78 23.2893 33.78 22.87C33.78 22.3077 33.5567 21.7685 33.1591 21.3709C32.7615 20.9734 32.2223 20.75 31.66 20.75Z" fill="#0084FF"/>
<path d="M25.6101 53.28C26.7968 53.28 27.9568 52.9282 28.9435 52.2689C29.9302 51.6096 30.6993 50.6725 31.1534 49.5761C31.6075 48.4798 31.7263 47.2734 31.4948 46.1095C31.2633 44.9456 30.6919 43.8765 29.8527 43.0374C29.0136 42.1983 27.9445 41.6268 26.7806 41.3953C25.6168 41.1638 24.4104 41.2826 23.314 41.7368C22.2176 42.1909 21.2806 42.9599 20.6213 43.9466C19.962 44.9333 19.6101 46.0933 19.6101 47.28C19.6101 48.8713 20.2422 50.3975 21.3675 51.5227C22.4927 52.6479 24.0188 53.28 25.6101 53.28Z" fill="#0084FF"/>
<path d="M35.08 64.0001C35.0001 61.543 33.9679 59.2134 32.2016 57.5035C30.4353 55.7937 28.0733 54.8378 25.615 54.8378C23.1567 54.8378 20.7947 55.7937 19.0284 57.5035C17.2621 59.2134 16.2299 61.543 16.15 64.0001V67.0001H35.08V64.0001Z" fill="#0084FF"/>
<path d="M48.1299 56.13H67.0499C67.4477 56.13 67.8292 55.972 68.1105 55.6907C68.3918 55.4094 68.5499 55.0278 68.5499 54.63C68.5499 54.2322 68.3918 53.8506 68.1105 53.5693C67.8292 53.288 67.4477 53.13 67.0499 53.13H48.1299C47.7321 53.13 47.3505 53.288 47.0692 53.5693C46.7879 53.8506 46.6299 54.2322 46.6299 54.63C46.6299 55.0278 46.7879 55.4094 47.0692 55.6907C47.3505 55.972 47.7321 56.13 48.1299 56.13Z" fill="#181818"/>
<path d="M48.1299 66.35H67.0499C67.4477 66.35 67.8292 66.1919 68.1105 65.9106C68.3918 65.6293 68.5499 65.2478 68.5499 64.85C68.5499 64.4522 68.3918 64.0706 68.1105 63.7893C67.8292 63.508 67.4477 63.35 67.0499 63.35H48.1299C47.7321 63.35 47.3505 63.508 47.0692 63.7893C46.7879 64.0706 46.6299 64.4522 46.6299 64.85C46.6299 65.2478 46.7879 65.6293 47.0692 65.9106C47.3505 66.1919 47.7321 66.35 48.1299 66.35Z" fill="#181818"/>
<path d="M69.7399 13.83H15.4599C13.293 13.8326 11.2154 14.6939 9.68222 16.2252C8.14903 17.7565 7.2852 19.833 7.27991 22V71.2C7.28255 73.3686 8.14522 75.4477 9.6787 76.9812C11.2122 78.5146 13.2912 79.3773 15.4599 79.38H69.7399C71.9086 79.3773 73.9876 78.5146 75.5211 76.9812C77.0546 75.4477 77.9173 73.3686 77.9199 71.2V22C77.9146 19.833 77.0508 17.7565 75.5176 16.2252C73.9844 14.6939 71.9068 13.8326 69.7399 13.83ZM10.2799 22C10.2825 20.6269 10.8291 19.3109 11.8 18.3401C12.7709 17.3692 14.0869 16.8226 15.4599 16.82H69.7399C70.4202 16.82 71.0937 16.9539 71.7222 17.2143C72.3507 17.4746 72.9217 17.8561 73.4027 18.3371C73.8837 18.8182 74.2653 19.3892 74.5256 20.0177C74.7859 20.6461 74.9199 21.3197 74.9199 22V28.7H10.2799V22ZM74.9199 71.2C74.9199 72.5738 74.3742 73.8913 73.4027 74.8628C72.4313 75.8342 71.1137 76.38 69.7399 76.38H15.4599C14.0869 76.3773 12.7709 75.8307 11.8 74.8598C10.8291 73.889 10.2825 72.573 10.2799 71.2V31.7H74.9199V71.2Z" fill="#181818"/>
<path d="M88.7599 11.2901C88.6499 11.2301 88.5099 11.2101 88.3899 11.1601L86.9999 10.6101C86.3333 10.3501 85.6666 10.1001 84.9999 9.86007C84.8794 9.81268 84.7721 9.7371 84.6868 9.63967C84.6016 9.54223 84.5409 9.42578 84.5099 9.30007L84.2099 8.41007C83.8599 7.41007 83.5199 6.47007 83.2099 5.49007C83.2099 5.42007 83.0999 5.32007 83.0399 5.32007C82.9799 5.32007 82.8899 5.41007 82.8499 5.48007C82.8099 5.55007 82.7699 5.76007 82.7199 5.89007L81.8399 8.00007L81.3599 9.33007C81.3264 9.43676 81.2682 9.53404 81.19 9.61398C81.1118 9.69391 81.0159 9.75425 80.9099 9.79007L80.1199 10.0801L78.6999 10.6001L77.1599 11.1801C77.0699 11.1801 76.9999 11.3101 76.9199 11.3801C76.99 11.4607 77.0707 11.5314 77.1599 11.5901C77.4599 11.7101 77.7699 11.8101 78.0799 11.9201L79.5899 12.5101L80.9099 13.0101C81.0274 13.0617 81.1311 13.1401 81.2128 13.2391C81.2944 13.3381 81.3516 13.4549 81.3799 13.5801L81.6799 14.4601C82.0199 15.4601 82.3599 16.4001 82.6799 17.3701C82.7253 17.4614 82.7788 17.5484 82.8399 17.6301C82.9399 17.5401 83.0099 17.4801 83.0199 17.4201C83.1199 17.1601 83.2099 16.8801 83.2999 16.6101L83.8199 15.2001C83.9999 14.7001 84.2099 14.2001 84.3599 13.6901C84.3945 13.512 84.4815 13.3482 84.6098 13.2199C84.7381 13.0916 84.9018 13.0046 85.0799 12.9701H85.2399C86.3999 12.5401 87.5599 12.1101 88.7299 11.6601C88.7691 11.6452 88.8042 11.6211 88.832 11.5897C88.8599 11.5584 88.8797 11.5208 88.8899 11.4801C88.9199 11.4001 88.8299 11.3301 88.7599 11.2901Z" fill="#0084FF"/>
</svg>
