<svg width="92" height="92" viewBox="0 0 92 92" fill="none" xmlns="http://www.w3.org/2000/svg">
<path d="M70.36 81.76C80.2348 81.76 88.24 73.7549 88.24 63.88C88.24 54.0051 80.2348 46 70.36 46C60.4851 46 52.48 54.0051 52.48 63.88C52.48 73.7549 60.4851 81.76 70.36 81.76Z" fill="#EDF3FF"/>
<path d="M11.18 21.61C11.08 21.79 11 21.92 10.94 22.06C10.579 22.8638 10.1041 23.6115 9.53002 24.28C8.99539 24.9464 8.36129 25.5266 7.65002 26C7.14002 26.33 6.60002 26.6 6.07002 26.89C5.99002 26.94 5.88002 26.94 5.79002 26.99C5.72218 27.03 5.67213 27.0944 5.65002 27.17C5.65002 27.22 5.73002 27.3 5.79002 27.32C7.32541 27.9217 8.67435 28.9187 9.70002 30.21C10.2232 30.8864 10.6599 31.6254 11 32.41C11 32.48 11.08 32.54 11.13 32.65C11.2248 32.4962 11.3084 32.3358 11.38 32.17C11.7452 31.3531 12.2343 30.5976 12.83 29.93C13.3466 29.3068 13.9533 28.7642 14.63 28.32C15.15 27.99 15.71 27.71 16.25 27.41C16.34 27.36 16.45 27.35 16.55 27.3C16.5844 27.2912 16.6149 27.2712 16.6367 27.2431C16.6585 27.215 16.6703 27.1805 16.6703 27.145C16.6703 27.1095 16.6585 27.0749 16.6367 27.0469C16.6149 27.0188 16.5844 26.9988 16.55 26.99C14.6606 26.2516 13.0633 24.9176 12 23.19C11.74 22.74 11.51 22.27 11.28 21.81C11.2425 21.7455 11.2091 21.6787 11.18 21.61Z" fill="#0084FF"/>
<path d="M61.1901 85.2601H30.8101C29.2513 85.2896 27.7443 84.6998 26.6196 83.6201C25.4949 82.5404 24.8442 81.0588 24.8101 79.5001V12.5001C24.8442 10.9414 25.4949 9.45976 26.6196 8.38004C27.7443 7.30033 29.2513 6.71058 30.8101 6.74007H61.1901C62.7489 6.71058 64.2558 7.30033 65.3805 8.38004C66.5052 9.45976 67.1559 10.9414 67.1901 12.5001V79.5001C67.1559 81.0588 66.5052 82.5404 65.3805 83.6201C64.2558 84.6998 62.7489 85.2896 61.1901 85.2601Z" fill="white"/>
<path d="M61.19 5.24001H30.81C28.8508 5.20789 26.9587 5.95419 25.549 7.3152C24.1392 8.67622 23.3268 10.5408 23.29 12.5V79.5C23.3268 81.4592 24.1392 83.3238 25.549 84.6848C26.9587 86.0458 28.8508 86.7921 30.81 86.76H61.19C63.1493 86.7921 65.0413 86.0458 66.4511 84.6848C67.8608 83.3238 68.6732 81.4592 68.71 79.5V12.5C68.6732 10.5408 67.8608 8.67622 66.4511 7.3152C65.0413 5.95419 63.1493 5.20789 61.19 5.24001ZM37 8.24001H55V9.00001C55 10.06 54.46 10.64 54.28 10.64H37.75C37.57 10.64 37.03 10.06 37.03 9.00001L37 8.24001ZM65.71 79.5C65.6734 80.6636 65.1772 81.7653 64.33 82.5637C63.4828 83.3622 62.3537 83.7923 61.19 83.76H30.81C29.6463 83.7923 28.5172 83.3622 27.67 82.5637C26.8229 81.7653 26.3266 80.6636 26.29 79.5V12.5C26.3292 11.3373 26.8263 10.2372 27.6729 9.4393C28.5195 8.64139 29.6471 8.21033 30.81 8.24001H34V9.00001C34 11.6 35.63 13.64 37.72 13.64H54.22C56.31 13.64 57.94 11.64 57.94 9.00001V8.24001H61.16C62.323 8.21033 63.4506 8.64139 64.2972 9.4393C65.1438 10.2372 65.6408 11.3373 65.68 12.5L65.71 79.5Z" fill="#181818"/>
<path d="M57.9938 69H34.0062C32.3459 69 31 70.3416 31 71.9966V75.0034C31 76.6584 32.3459 78 34.0062 78H57.9938C59.6541 78 61 76.6584 61 75.0034V71.9966C61 70.3416 59.6541 69 57.9938 69Z" fill="#0084FF"/>
<path d="M40.5571 29H33.4429C32.0937 29 31 30.0612 31 31.3702V38.6297C31 39.9388 32.0937 41 33.4429 41H40.5571C41.9063 41 43 39.9388 43 38.6297V31.3702C43 30.0612 41.9063 29 40.5571 29Z" fill="#0084FF"/>
<path d="M40.5571 44H33.4429C32.0937 44 31 45.0612 31 46.3702V53.6298C31 54.9388 32.0937 56 33.4429 56H40.5571C41.9063 56 43 54.9388 43 53.6298V46.3702C43 45.0612 41.9063 44 40.5571 44Z" fill="#0084FF"/>
<path d="M59.5945 32H51.4055C51.0327 32 50.6752 31.842 50.4116 31.5607C50.1481 31.2794 50 30.8978 50 30.5C50 30.1022 50.1481 29.7206 50.4116 29.4393C50.6752 29.158 51.0327 29 51.4055 29H59.5945C59.9673 29 60.3248 29.158 60.5884 29.4393C60.8519 29.7206 61 30.1022 61 30.5C61 30.8978 60.8519 31.2794 60.5884 31.5607C60.3248 31.842 59.9673 32 59.5945 32Z" fill="#181818"/>
<path d="M59.5945 38H51.4055C51.0327 38 50.6752 37.842 50.4116 37.5607C50.1481 37.2794 50 36.8978 50 36.5C50 36.1022 50.1481 35.7206 50.4116 35.4393C50.6752 35.158 51.0327 35 51.4055 35H59.5945C59.9673 35 60.3248 35.158 60.5884 35.4393C60.8519 35.7206 61 36.1022 61 36.5C61 36.8978 60.8519 37.2794 60.5884 37.5607C60.3248 37.842 59.9673 38 59.5945 38Z" fill="#181818"/>
<path d="M59.5945 44H51.4055C51.0327 44 50.6752 43.842 50.4116 43.5607C50.1481 43.2794 50 42.8978 50 42.5C50 42.1022 50.1481 41.7206 50.4116 41.4393C50.6752 41.158 51.0327 41 51.4055 41H59.5945C59.9673 41 60.3248 41.158 60.5884 41.4393C60.8519 41.7206 61 42.1022 61 42.5C61 42.8978 60.8519 43.2794 60.5884 43.5607C60.3248 43.842 59.9673 44 59.5945 44Z" fill="#181818"/>
<path d="M59.5945 50H51.4055C51.2209 50 51.0381 49.9612 50.8676 49.8858C50.6971 49.8104 50.5422 49.6999 50.4116 49.5607C50.2811 49.4214 50.1776 49.256 50.107 49.074C50.0364 48.892 50 48.697 50 48.5C50 48.303 50.0364 48.108 50.107 47.926C50.1776 47.744 50.2811 47.5786 50.4116 47.4393C50.5422 47.3001 50.6971 47.1896 50.8676 47.1142C51.0381 47.0388 51.2209 47 51.4055 47H59.5945C59.9673 47 60.3248 47.158 60.5884 47.4393C60.8519 47.7206 61 48.1022 61 48.5C61 48.8978 60.8519 49.2794 60.5884 49.5607C60.3248 49.842 59.9673 50 59.5945 50Z" fill="#181818"/>
<path d="M59.5945 56H51.4055C51.0327 56 50.6752 55.842 50.4116 55.5607C50.1481 55.2794 50 54.8978 50 54.5C50 54.1022 50.1481 53.7206 50.4116 53.4393C50.6752 53.158 51.0327 53 51.4055 53H59.5945C59.9673 53 60.3248 53.158 60.5884 53.4393C60.8519 53.7206 61 54.1022 61 54.5C61 54.8978 60.8519 55.2794 60.5884 55.5607C60.3248 55.842 59.9673 56 59.5945 56Z" fill="#181818"/>
</svg>
