<svg width="484" height="448" viewBox="0 0 584 548" fill="none" xmlns="http://www.w3.org/2000/svg">
    <path d="M534.854 451.095C552.238 427.665 574.424 390.057 581.661 340.43C601.886 200.868 484.598 98.5085 473.64 89.2584C473.64 89.2584 337.548 -35.99 149.78 41.0496C-43.9411 120.587 28.366 309.371 73.0084 347.79C116.366 385.196 117.448 472.296 198.886 522.733C225.537 534.548 267.338 548.525 319.15 547.985C437.723 546.702 516.253 470.203 534.854 451.095Z" fill="#F8FBFF"/>
    <path d="M12.4517 53C12.297 52.7596 12.1616 52.6194 12.1036 52.4592C11.3689 50.416 10.6535 48.3729 9.93813 46.3297C9.72544 45.7288 9.51276 45.1079 9.31941 44.4869C9.1454 43.9461 8.87471 43.4854 8.33333 43.2851C7.40526 42.9445 6.49652 42.604 5.56845 42.2435C4.50503 41.8428 3.46094 41.4222 2.41686 41.0216C1.77881 40.7812 1.14076 40.5809 0.502707 40.3205C0.309358 40.2404 0.174014 40.0401 0 39.8798C0.174014 39.7396 0.309358 39.5193 0.502707 39.4592C1.56613 39.0385 2.64888 38.6379 3.7123 38.2373C4.69838 37.8567 5.66512 37.4961 6.6512 37.1156C7.19258 36.9153 7.73395 36.7149 8.29466 36.5146C8.7587 36.3344 9.06806 36.0139 9.24207 35.5331C9.57077 34.5917 9.89946 33.6502 10.2282 32.7288C10.7695 31.2265 11.3109 29.7042 11.8523 28.2018C11.949 27.9214 11.9876 27.621 12.123 27.3405C12.2003 27.1803 12.3743 27 12.5097 27C12.645 27 12.819 27.2003 12.877 27.3606C13.6118 29.4037 14.3271 31.4468 15.0619 33.49C15.2746 34.1109 15.4872 34.7519 15.6999 35.3729C15.8739 35.9337 16.164 36.3344 16.7247 36.5347C18.1168 37.0354 19.5089 37.5562 20.901 38.0971C21.8871 38.4777 22.8732 38.8783 23.8786 39.2589C24.1299 39.359 24.42 39.3991 24.652 39.5193C24.8067 39.5994 25 39.7596 25 39.8998C25 40.02 24.8067 40.2404 24.6713 40.2804C22.2351 41.2419 19.8183 42.1433 17.4014 43.0647C17.3047 43.1048 17.1887 43.1448 17.0727 43.1649C16.2606 43.3451 15.8353 43.8459 15.5839 44.6872C15.2746 45.7689 14.8299 46.8105 14.4625 47.8721C14.1145 48.8736 13.7471 49.8552 13.3991 50.8567C13.2057 51.4176 13.0317 51.9985 12.819 52.5593C12.7997 52.6795 12.645 52.7997 12.4517 53Z" fill="#FFB9F8"/>
    <path d="M100 509C100 512.866 96.4183 516 92 516C87.5817 516 84 512.866 84 509C84 505.134 87.5817 502 92 502C96.4183 502 100 505.134 100 509Z" fill="#93E6CF"/>
    <path d="M542 7.5C542 11.6421 538.642 15 534.5 15C530.358 15 527 11.6421 527 7.5C527 3.35786 530.358 0 534.5 0C538.642 0 542 3.35786 542 7.5Z" fill="#FFD12D"/>
    <path d="M384.434 164.436H351.391H195.912C180.26 164.436 167.391 177.305 167.391 192.957V221.479V364.088C167.391 379.74 180.26 392.609 195.912 392.609H384.782C400.434 392.609 413.304 379.74 413.304 364.088V221.479V201.653V192.957C412.956 177.305 400.434 164.436 384.434 164.436ZM177.825 192.957C177.825 182.87 185.825 174.87 195.912 174.87H384.782C394.869 174.87 402.869 182.87 402.869 192.957V216.262H177.825V192.957Z" fill="white"/>
    <path d="M402.521 192.956C402.521 182.869 394.521 174.869 384.434 174.869H195.912C185.825 174.869 177.825 182.869 177.825 192.956V216.26H402.521V192.956ZM202.869 203.391C198.695 203.391 195.564 200.26 195.564 196.087C195.564 191.913 198.695 188.782 202.869 188.782C207.043 188.782 210.173 191.913 210.173 196.087C210.173 200.26 207.043 203.391 202.869 203.391ZM227.912 203.391C223.738 203.391 220.608 200.26 220.608 196.087C220.608 191.913 223.738 188.782 227.912 188.782C232.086 188.782 235.217 191.913 235.217 196.087C235.217 200.26 232.086 203.391 227.912 203.391ZM252.956 203.391C248.782 203.391 245.651 200.26 245.651 196.087C245.651 191.913 248.782 188.782 252.956 188.782C257.13 188.782 260.26 191.913 260.26 196.087C260.26 200.26 257.13 203.391 252.956 203.391Z" fill="#F8FBFF"/>
    <path d="M384.434 164.436H351.391H195.912C180.26 164.436 167.391 177.305 167.391 192.957V221.479V364.088C167.391 379.74 180.26 392.609 195.912 392.609H384.782C400.434 392.609 413.304 379.74 413.304 364.088V221.479V201.653V192.957C412.956 177.305 400.434 164.436 384.434 164.436ZM177.825 192.957C177.825 182.87 185.825 174.87 195.912 174.87H384.782C394.869 174.87 402.869 182.87 402.869 192.957V216.262H177.825V192.957ZM402.521 364.088C402.521 374.175 394.521 382.175 384.434 382.175H195.912C185.825 382.175 177.825 374.175 177.825 364.088V226.696H402.521V364.088Z" fill="black"/>
    <path d="M202.869 188.781C198.695 188.781 195.564 191.912 195.564 196.086C195.564 200.259 198.695 203.39 202.869 203.39C207.043 203.39 210.173 200.259 210.173 196.086C210.173 191.912 207.043 188.781 202.869 188.781Z" fill="#0080FF"/>
    <path d="M227.913 203.39C231.947 203.39 235.217 200.12 235.217 196.086C235.217 192.052 231.947 188.781 227.913 188.781C223.879 188.781 220.608 192.052 220.608 196.086C220.608 200.12 223.879 203.39 227.913 203.39Z" fill="#0080FF"/>
    <path d="M252.957 203.39C256.991 203.39 260.261 200.12 260.261 196.086C260.261 192.052 256.991 188.781 252.957 188.781C248.923 188.781 245.652 192.052 245.652 196.086C245.652 200.12 248.923 203.39 252.957 203.39Z" fill="#0080FF"/>
    <path d="M282.698 336.07L276.303 330.351C264.744 320.073 251.466 308.501 248.619 306.462C246.814 305.466 245.439 303.84 244.756 301.895C244.074 299.95 244.131 297.821 244.918 295.916C245.704 294.01 247.165 292.461 249.021 291.564C250.877 290.667 252.998 290.484 254.98 291.052C256.759 291.618 258.436 292.111 281.007 312.185L325.109 260.706C326.557 259.014 328.618 257.967 330.839 257.795C333.059 257.622 335.257 258.339 336.949 259.788C338.641 261.236 339.688 263.298 339.861 265.518C340.033 267.739 339.316 269.937 337.867 271.629L282.698 336.07Z" fill="#0084FF"/>
    <path d="M443.913 133.827C443.565 133.479 442.869 133.479 442.521 133.479C440.782 132.783 439.043 132.087 437.652 131.392C435.217 130.348 433.13 129.653 430.695 128.957C429.652 128.609 429.304 127.914 428.956 126.87C428.608 125.827 428.26 124.783 427.913 123.74C426.869 120.261 425.478 117.131 424.434 113.653C424.434 113.305 424.087 112.957 423.739 112.957C423.391 112.957 423.391 113.305 423.043 113.653C423.043 114.001 423.043 114.348 422.695 115.044C421.652 117.479 420.956 119.914 419.913 122.348C419.217 123.74 418.869 125.479 418.173 126.87C417.826 127.566 417.478 128.261 416.434 128.609C415.391 128.957 414.695 129.305 413.652 129.653C411.913 130.348 410.521 130.696 408.782 131.392C407.043 132.087 405.304 132.783 403.565 133.479C403.217 133.479 402.869 133.827 402.869 134.174C403.217 134.522 403.217 134.87 403.565 134.87C404.608 135.218 405.652 135.566 406.695 135.914C408.434 136.609 410.173 137.305 411.913 138.001C413.304 138.696 415.043 139.044 416.434 139.74C417.478 140.087 417.826 140.783 418.173 141.827C418.521 142.87 418.869 143.914 419.217 144.957C420.26 148.435 421.652 151.566 422.695 155.044C422.695 155.392 423.043 155.392 423.391 156.087C423.739 155.74 424.087 155.392 424.087 155.392C424.434 154.348 424.782 153.653 425.13 152.609C425.826 150.87 426.174 149.479 426.869 147.74C427.565 146.001 428.26 144.261 428.608 142.522C428.956 141.131 429.652 140.435 431.043 140.087C431.391 140.087 431.391 140.087 431.739 140.087C435.913 138.696 439.739 136.957 443.913 135.566C444.26 135.566 444.608 135.218 444.608 134.87C444.608 134.174 444.26 133.827 443.913 133.827Z" fill="#0080FF"/>
</svg>
