<svg width="608" height="490" viewBox="0 0 608 490" fill="none" xmlns="http://www.w3.org/2000/svg">
    <ellipse cx="304.5" cy="245" rx="245.5" ry="245" fill="#F8FBFF"/>
    <path d="M393.999 123.758H205.13C197.581 123.758 190.34 126.754 184.999 132.089C179.657 137.424 176.652 144.661 176.643 152.21V323.48C176.652 331.029 179.657 338.266 184.999 343.6C190.34 348.935 197.581 351.932 205.13 351.932H393.999C401.524 351.895 408.729 348.882 414.041 343.551C419.352 338.221 422.338 331.005 422.347 323.48V152.21C422.338 144.685 419.352 137.469 414.041 132.138C408.729 126.807 401.524 123.795 393.999 123.758Z" fill="white"/>
    <path d="M400.957 96.7656C392.81 96.7604 384.879 99.3843 378.343 104.247C371.807 109.11 367.015 115.952 364.679 123.757H394C401.544 123.766 408.775 126.767 414.109 132.101C419.443 137.434 422.443 144.666 422.453 152.209V165.913C429.118 161.328 434.141 154.73 436.789 147.086C439.436 139.441 439.569 131.15 437.167 123.424C434.766 115.699 429.956 108.944 423.441 104.147C416.926 99.3509 409.047 96.7643 400.957 96.7656Z" fill="#0084FF"/>
    <path d="M393.999 123.758H205.13C197.581 123.758 190.34 126.754 184.999 132.089C179.657 137.424 176.652 144.661 176.643 152.21V323.48C176.652 331.029 179.657 338.266 184.999 343.6C190.34 348.935 197.581 351.932 205.13 351.932H393.999C401.524 351.895 408.729 348.882 414.041 343.551C419.352 338.221 422.338 331.005 422.347 323.48V152.21C422.338 144.685 419.352 137.469 414.041 132.138C408.729 126.807 401.524 123.795 393.999 123.758ZM205.13 341.358C200.375 341.349 195.815 339.468 192.436 336.122C189.057 332.776 187.132 328.234 187.078 323.48V152.21C187.087 147.428 188.993 142.846 192.377 139.468C195.762 136.09 200.348 134.193 205.13 134.193H393.999C396.365 134.193 398.708 134.659 400.894 135.564C403.08 136.47 405.066 137.797 406.74 139.47C408.413 141.143 409.74 143.129 410.645 145.315C411.551 147.501 412.017 149.844 412.017 152.21V323.48C411.971 328.231 410.054 332.773 406.681 336.12C403.308 339.467 398.751 341.349 393.999 341.358H205.13Z" fill="#181818"/>
    <path d="M322.223 301.582C326.705 301.582 329.869 298.242 329.869 293.408V273.633H341.471C345.689 273.633 348.854 270.908 348.854 266.689C348.854 262.471 345.689 259.746 341.471 259.746H329.869V184.072C329.869 175.898 325.387 171.592 316.949 171.592C310.006 171.592 305.875 174.668 298.756 184.951C280.914 210.527 263.424 236.367 254.283 252.715C251.383 257.9 250.504 260.625 250.504 264.668C250.504 270.117 254.02 273.633 259.645 273.633H314.576V293.408C314.576 298.242 317.74 301.582 322.223 301.582ZM314.576 259.746H266.324V259.395C276.607 241.377 290.846 220.459 314.312 186.885H314.576V259.746Z" fill="#0084FF"/>
    <path d="M536.555 433.935C536.371 433.639 536.209 433.466 536.14 433.268C535.262 430.747 534.407 428.226 533.553 425.705C533.298 424.964 533.044 424.198 532.813 423.432C532.605 422.764 532.282 422.196 531.635 421.949C530.527 421.529 529.441 421.108 528.332 420.664C527.062 420.169 525.814 419.65 524.567 419.156C523.805 418.859 523.042 418.612 522.28 418.291C522.049 418.192 521.887 417.945 521.679 417.747C521.887 417.574 522.049 417.302 522.28 417.228C523.55 416.709 524.844 416.215 526.115 415.721C527.293 415.251 528.448 414.806 529.626 414.337C530.272 414.089 530.919 413.842 531.589 413.595C532.143 413.373 532.513 412.977 532.721 412.384C533.114 411.222 533.506 410.061 533.899 408.924C534.546 407.07 535.193 405.192 535.839 403.338C535.955 402.992 536.001 402.622 536.163 402.276C536.255 402.078 536.463 401.855 536.625 401.855C536.786 401.855 536.994 402.103 537.064 402.3C537.941 404.821 538.796 407.342 539.674 409.863C539.928 410.629 540.182 411.42 540.436 412.186C540.644 412.878 540.991 413.373 541.66 413.62C543.324 414.238 544.987 414.88 546.65 415.548C547.828 416.017 549.006 416.511 550.207 416.981C550.508 417.105 550.854 417.154 551.131 417.302C551.316 417.401 551.547 417.599 551.547 417.772C551.547 417.92 551.316 418.192 551.154 418.241C548.244 419.428 545.356 420.54 542.469 421.677C542.353 421.726 542.215 421.776 542.076 421.8C541.106 422.023 540.598 422.641 540.298 423.679C539.928 425.013 539.397 426.299 538.958 427.608C538.542 428.844 538.103 430.055 537.687 431.291C537.456 431.983 537.248 432.7 536.994 433.392C536.971 433.54 536.786 433.688 536.555 433.935Z" fill="#FFB9F8"/>
    <ellipse cx="45.4" cy="382.858" rx="9.07941" ry="8.575" fill="#FFD12D"/>
    <path fill-rule="evenodd" clip-rule="evenodd" d="M153.344 58.2641C153.856 59.1588 153.546 60.2988 152.651 60.8106L152.634 60.8207L152.571 60.8573C152.513 60.8906 152.426 60.9416 152.311 61.0101C152.08 61.1471 151.736 61.3538 151.291 61.6284C150.402 62.1776 149.11 62.9978 147.515 64.0729C144.325 66.2241 139.929 69.3914 135.124 73.4464C125.487 81.5784 114.325 93.1797 107.843 107.215C106.702 109.686 105.017 113.41 103.452 117.685C104.345 118.441 105.188 119.209 105.975 119.978C109.191 123.121 111.603 126.407 112.678 129.081C116.443 138.415 115.851 145.473 112.794 149.461C111.252 151.472 109.106 152.635 106.79 152.729C104.482 152.823 102.212 151.849 100.409 149.989C97.5261 147.037 96.1971 143.193 95.8099 139.131C95.4237 135.079 95.9607 130.694 96.9164 126.473C97.498 123.904 98.2433 121.361 99.0536 118.947C96.9549 117.365 94.624 115.893 92.1295 114.667C83.4227 110.391 72.9398 109.19 63.1595 116.443C48.1729 129.363 43.7986 148.229 43.2563 164.15C42.9858 172.093 43.6736 179.222 44.4304 184.367C44.8085 186.937 45.203 189.006 45.5015 190.427C45.6508 191.137 45.7759 191.686 45.863 192.053C45.9065 192.236 45.9405 192.375 45.9631 192.466L45.9884 192.566L45.9943 192.589L45.9954 192.593C46.2557 193.59 45.6588 194.61 44.6617 194.871C43.7187 195.118 42.7555 194.597 42.4331 193.696C42.4291 193.685 42.291 193.168 42.2308 192.914C42.1368 192.517 42.0046 191.938 41.8484 191.194C41.5362 189.708 41.1277 187.564 40.7373 184.91C39.9571 179.606 39.2456 172.246 39.5257 164.023C40.0841 147.628 44.602 127.477 60.7755 113.569L60.8251 113.527L60.8775 113.488C72.1318 105.105 84.2233 106.625 93.7753 111.317C96.1274 112.472 98.3385 113.824 100.365 115.278C101.866 111.312 103.408 107.915 104.454 105.65C111.262 90.9075 122.887 78.8882 132.716 70.5937C137.644 66.4355 142.15 63.188 145.429 60.9779C147.068 59.8723 148.402 59.0252 149.33 58.4522C149.795 58.1657 150.157 57.9476 150.406 57.8C150.601 57.6839 150.796 57.5555 151.006 57.4678C151.863 57.1095 152.872 57.4375 153.344 58.2641ZM102.146 121.501C101.546 123.389 101.001 125.338 100.557 127.297C99.6492 131.307 99.1912 135.265 99.5259 138.777C99.8596 142.278 100.967 145.219 103.082 147.383L103.087 147.389C104.249 148.588 105.524 149.045 106.638 148.999C107.746 148.954 108.9 148.406 109.831 147.191C111.72 144.727 112.763 139.27 109.216 130.475L109.215 130.473C108.409 128.468 106.392 125.605 103.366 122.648C102.974 122.265 102.567 121.882 102.146 121.501Z" fill="#181818"/>
</svg>
