<svg width="1008" height="476" viewBox="0 0 1008 476" fill="none" xmlns="http://www.w3.org/2000/svg">
<style></style>
<g clip-path="url(#clip0)">
    <rect width="1008" height="476" rx="12" fill="white"/>
    <rect width="1008" height="476" rx="12" fill="#EDF3F8"/>
    <rect x="12" y="12" width="984" height="452" rx="12" fill="white"/>
    <rect x="44" y="133" width="939" height="301" fill="white"/>
    <rect x="51.8662" y="135.753" width="0.983246" height="298.247" fill="#EDF3FF"/>
    <rect x="103.979" y="135.753" width="0.983246" height="298.247" fill="#EDF3FF"/>
    <rect x="156.09" y="135.753" width="0.983246" height="298.247" fill="#EDF3FF"/>
    <rect x="208.203" y="135.753" width="0.983246" height="298.247" fill="#EDF3FF"/>
    <rect x="260.314" y="135.753" width="0.983246" height="298.247" fill="#EDF3FF"/>
    <rect x="312.426" y="135.753" width="0.983246" height="298.247" fill="#EDF3FF"/>
    <rect x="364.539" y="135.753" width="0.983246" height="298.247" fill="#EDF3FF"/>
    <rect x="416.65" y="135.753" width="0.983246" height="298.247" fill="#EDF3FF"/>
    <rect x="468.763" y="135.753" width="0.983246" height="298.247" fill="#EDF3FF"/>
    <rect x="520.875" y="135.753" width="0.983246" height="298.247" fill="#EDF3FF"/>
    <rect x="572.987" y="135.753" width="0.983246" height="298.247" fill="#EDF3FF"/>
    <rect x="625.099" y="135.753" width="0.983246" height="298.247" fill="#EDF3FF"/>
    <rect x="677.211" y="135.753" width="0.983246" height="298.247" fill="#EDF3FF"/>
    <rect x="729.323" y="135.753" width="0.983246" height="298.247" fill="#EDF3FF"/>
    <rect x="781.435" y="135.753" width="0.983246" height="298.247" fill="#EDF3FF"/>
    <rect x="833.547" y="135.753" width="0.983246" height="298.247" fill="#EDF3FF"/>
    <rect x="885.659" y="135.753" width="0.983246" height="298.247" fill="#EDF3FF"/>
    <rect x="937.771" y="135.753" width="0.983246" height="298.247" fill="#EDF3FF"/>
    <rect x="44" y="135.753" width="939" height="0.917683" fill="#EDF3FF"/>
    <rect x="44" y="193.567" width="939" height="0.917683" fill="#EDF3FF"/>
    <rect x="44" y="251.381" width="939" height="0.917683" fill="#EDF3FF"/>
    <rect x="44" y="309.195" width="939" height="0.917683" fill="#EDF3FF"/>
    <rect x="44" y="367.009" width="939" height="0.917683" fill="#EDF3FF"/>
    <rect x="44" y="424.823" width="939" height="0.917683" fill="#EDF3FF"/>
    <path id="cl1" d="M51.8662 290.87C118.376 290.87 118.376 320.179 184.885 320.179C251.395 320.179 251.395 296.365 317.905 296.365C384.414 296.365 382.628 247.821 449.137 247.821C515.647 247.821 517.433 188.286 583.943 188.286C650.452 188.286 647.154 165.87 713.664 165.87C780.174 165.87 783.472 243.242 849.981 243.242C916.491 243.242 916.491 278.047 983 278.047" stroke="#1788FB" stroke-width="2"/>
    <path id="cl2" d="M51.8662 159.869C118.376 159.869 118.376 200.96 184.885 200.96C251.395 200.96 251.395 350.184 317.905 350.184C384.414 350.184 384.414 322.069 450.924 322.069C517.433 322.069 517.433 251.953 583.943 251.953C650.452 251.953 650.452 261.515 716.962 261.515C783.472 261.515 783.472 339.371 849.981 339.371C916.491 339.371 916.491 226.912 983 226.912" stroke="#FC174B" stroke-width="2"/>
    <path id="cl3" d="M51.8662 358.214C118.376 358.214 118.376 395.619 184.885 395.619C251.395 395.619 251.395 371.416 317.905 371.416C384.414 371.416 384.414 351.613 450.924 351.613C517.433 351.613 517.433 219.593 583.943 219.593C650.452 219.593 650.452 307.606 716.962 307.606C783.472 307.606 783.472 197.589 849.981 197.589C916.491 197.589 916.491 236.789 983 236.789" stroke="#F49130" stroke-width="2"/>
    <path d="M45.0488 441.968C45.0488 443.026 44.8682 443.812 44.5068 444.326C44.1455 444.84 43.5807 445.098 42.8125 445.098C42.054 445.098 41.4925 444.847 41.1279 444.346C40.7633 443.841 40.5745 443.089 40.5615 442.09V440.884C40.5615 439.839 40.7422 439.062 41.1035 438.555C41.4648 438.047 42.0312 437.793 42.8027 437.793C43.5677 437.793 44.1309 438.039 44.4922 438.53C44.8535 439.019 45.0391 439.774 45.0488 440.796V441.968ZM44.1455 440.732C44.1455 439.967 44.0381 439.411 43.8232 439.062C43.6084 438.711 43.2682 438.535 42.8027 438.535C42.3405 438.535 42.0036 438.709 41.792 439.058C41.5804 439.406 41.4714 439.941 41.4648 440.664V442.109C41.4648 442.878 41.5755 443.446 41.7969 443.813C42.0215 444.178 42.36 444.36 42.8125 444.36C43.2585 444.36 43.5889 444.188 43.8037 443.843C44.0218 443.498 44.1357 442.954 44.1455 442.212V440.732ZM49.1748 445H48.2666V438.979L46.4453 439.648V438.828L49.0332 437.856H49.1748V445ZM52.0947 445.61H51.3184L54.2871 437.891H55.0586L52.0947 445.61ZM60.4004 441.968C60.4004 443.026 60.2197 443.812 59.8584 444.326C59.4971 444.84 58.9323 445.098 58.1641 445.098C57.4056 445.098 56.8441 444.847 56.4795 444.346C56.1149 443.841 55.9261 443.089 55.9131 442.09V440.884C55.9131 439.839 56.0938 439.062 56.4551 438.555C56.8164 438.047 57.3828 437.793 58.1543 437.793C58.9193 437.793 59.4824 438.039 59.8438 438.53C60.2051 439.019 60.3906 439.774 60.4004 440.796V441.968ZM59.4971 440.732C59.4971 439.967 59.3896 439.411 59.1748 439.062C58.96 438.711 58.6198 438.535 58.1543 438.535C57.6921 438.535 57.3551 438.709 57.1436 439.058C56.932 439.406 56.8229 439.941 56.8164 440.664V442.109C56.8164 442.878 56.9271 443.446 57.1484 443.813C57.373 444.178 57.7116 444.36 58.1641 444.36C58.61 444.36 58.9404 444.188 59.1553 443.843C59.3734 443.498 59.4873 442.954 59.4971 442.212V440.732ZM65.8691 439.746C65.8691 440.101 65.7747 440.417 65.5859 440.693C65.4004 440.97 65.1481 441.187 64.8291 441.343C65.2002 441.502 65.4932 441.735 65.708 442.041C65.9261 442.347 66.0352 442.694 66.0352 443.081C66.0352 443.696 65.8268 444.186 65.4102 444.551C64.9967 444.915 64.4515 445.098 63.7744 445.098C63.0908 445.098 62.5423 444.915 62.1289 444.551C61.7188 444.183 61.5137 443.693 61.5137 443.081C61.5137 442.697 61.6178 442.35 61.8262 442.041C62.0378 441.732 62.3291 441.497 62.7002 441.338C62.3844 441.182 62.1354 440.965 61.9531 440.688C61.7708 440.412 61.6797 440.098 61.6797 439.746C61.6797 439.147 61.8717 438.672 62.2559 438.32C62.64 437.969 63.1462 437.793 63.7744 437.793C64.3994 437.793 64.904 437.969 65.2881 438.32C65.6755 438.672 65.8691 439.147 65.8691 439.746ZM65.1318 443.062C65.1318 442.664 65.0049 442.34 64.751 442.09C64.5003 441.839 64.1715 441.714 63.7646 441.714C63.3577 441.714 63.0306 441.838 62.7832 442.085C62.5391 442.332 62.417 442.658 62.417 443.062C62.417 443.465 62.5358 443.783 62.7734 444.014C63.0143 444.245 63.348 444.36 63.7744 444.36C64.1976 444.36 64.5296 444.245 64.7705 444.014C65.0114 443.779 65.1318 443.462 65.1318 443.062ZM63.7744 438.535C63.4196 438.535 63.1315 438.646 62.9102 438.867C62.6921 439.085 62.583 439.383 62.583 439.761C62.583 440.122 62.6904 440.415 62.9053 440.64C63.1234 440.861 63.4131 440.972 63.7744 440.972C64.1357 440.972 64.4238 440.861 64.6387 440.64C64.8568 440.415 64.9658 440.122 64.9658 439.761C64.9658 439.399 64.8535 439.105 64.6289 438.877C64.4043 438.649 64.1195 438.535 63.7744 438.535Z" fill="#97ADC6"/>
    <path d="M97.0488 441.968C97.0488 443.026 96.8682 443.812 96.5068 444.326C96.1455 444.84 95.5807 445.098 94.8125 445.098C94.054 445.098 93.4925 444.847 93.1279 444.346C92.7633 443.841 92.5745 443.089 92.5615 442.09V440.884C92.5615 439.839 92.7422 439.062 93.1035 438.555C93.4648 438.047 94.0312 437.793 94.8027 437.793C95.5677 437.793 96.1309 438.039 96.4922 438.53C96.8535 439.019 97.0391 439.774 97.0488 440.796V441.968ZM96.1455 440.732C96.1455 439.967 96.0381 439.411 95.8232 439.062C95.6084 438.711 95.2682 438.535 94.8027 438.535C94.3405 438.535 94.0036 438.709 93.792 439.058C93.5804 439.406 93.4714 439.941 93.4648 440.664V442.109C93.4648 442.878 93.5755 443.446 93.7969 443.813C94.0215 444.178 94.36 444.36 94.8125 444.36C95.2585 444.36 95.5889 444.188 95.8037 443.843C96.0218 443.498 96.1357 442.954 96.1455 442.212V440.732ZM102.518 439.746C102.518 440.101 102.423 440.417 102.234 440.693C102.049 440.97 101.797 441.187 101.478 441.343C101.849 441.502 102.142 441.735 102.356 442.041C102.575 442.347 102.684 442.694 102.684 443.081C102.684 443.696 102.475 444.186 102.059 444.551C101.645 444.915 101.1 445.098 100.423 445.098C99.7393 445.098 99.1908 444.915 98.7773 444.551C98.3672 444.183 98.1621 443.693 98.1621 443.081C98.1621 442.697 98.2663 442.35 98.4746 442.041C98.6862 441.732 98.9775 441.497 99.3486 441.338C99.0329 441.182 98.7839 440.965 98.6016 440.688C98.4193 440.412 98.3281 440.098 98.3281 439.746C98.3281 439.147 98.5202 438.672 98.9043 438.32C99.2884 437.969 99.7946 437.793 100.423 437.793C101.048 437.793 101.552 437.969 101.937 438.32C102.324 438.672 102.518 439.147 102.518 439.746ZM101.78 443.062C101.78 442.664 101.653 442.34 101.399 442.09C101.149 441.839 100.82 441.714 100.413 441.714C100.006 441.714 99.679 441.838 99.4316 442.085C99.1875 442.332 99.0654 442.658 99.0654 443.062C99.0654 443.465 99.1842 443.783 99.4219 444.014C99.6628 444.245 99.9964 444.36 100.423 444.36C100.846 444.36 101.178 444.245 101.419 444.014C101.66 443.779 101.78 443.462 101.78 443.062ZM100.423 438.535C100.068 438.535 99.7799 438.646 99.5586 438.867C99.3405 439.085 99.2314 439.383 99.2314 439.761C99.2314 440.122 99.3389 440.415 99.5537 440.64C99.7718 440.861 100.062 440.972 100.423 440.972C100.784 440.972 101.072 440.861 101.287 440.64C101.505 440.415 101.614 440.122 101.614 439.761C101.614 439.399 101.502 439.105 101.277 438.877C101.053 438.649 100.768 438.535 100.423 438.535ZM104.095 445.61H103.318L106.287 437.891H107.059L104.095 445.61ZM112.4 441.968C112.4 443.026 112.22 443.812 111.858 444.326C111.497 444.84 110.932 445.098 110.164 445.098C109.406 445.098 108.844 444.847 108.479 444.346C108.115 443.841 107.926 443.089 107.913 442.09V440.884C107.913 439.839 108.094 439.062 108.455 438.555C108.816 438.047 109.383 437.793 110.154 437.793C110.919 437.793 111.482 438.039 111.844 438.53C112.205 439.019 112.391 439.774 112.4 440.796V441.968ZM111.497 440.732C111.497 439.967 111.39 439.411 111.175 439.062C110.96 438.711 110.62 438.535 110.154 438.535C109.692 438.535 109.355 438.709 109.144 439.058C108.932 439.406 108.823 439.941 108.816 440.664V442.109C108.816 442.878 108.927 443.446 109.148 443.813C109.373 444.178 109.712 444.36 110.164 444.36C110.61 444.36 110.94 444.188 111.155 443.843C111.373 443.498 111.487 442.954 111.497 442.212V440.732ZM117.869 439.746C117.869 440.101 117.775 440.417 117.586 440.693C117.4 440.97 117.148 441.187 116.829 441.343C117.2 441.502 117.493 441.735 117.708 442.041C117.926 442.347 118.035 442.694 118.035 443.081C118.035 443.696 117.827 444.186 117.41 444.551C116.997 444.915 116.451 445.098 115.774 445.098C115.091 445.098 114.542 444.915 114.129 444.551C113.719 444.183 113.514 443.693 113.514 443.081C113.514 442.697 113.618 442.35 113.826 442.041C114.038 441.732 114.329 441.497 114.7 441.338C114.384 441.182 114.135 440.965 113.953 440.688C113.771 440.412 113.68 440.098 113.68 439.746C113.68 439.147 113.872 438.672 114.256 438.32C114.64 437.969 115.146 437.793 115.774 437.793C116.399 437.793 116.904 437.969 117.288 438.32C117.675 438.672 117.869 439.147 117.869 439.746ZM117.132 443.062C117.132 442.664 117.005 442.34 116.751 442.09C116.5 441.839 116.172 441.714 115.765 441.714C115.358 441.714 115.031 441.838 114.783 442.085C114.539 442.332 114.417 442.658 114.417 443.062C114.417 443.465 114.536 443.783 114.773 444.014C115.014 444.245 115.348 444.36 115.774 444.36C116.198 444.36 116.53 444.245 116.771 444.014C117.011 443.779 117.132 443.462 117.132 443.062ZM115.774 438.535C115.42 438.535 115.132 438.646 114.91 438.867C114.692 439.085 114.583 439.383 114.583 439.761C114.583 440.122 114.69 440.415 114.905 440.64C115.123 440.861 115.413 440.972 115.774 440.972C116.136 440.972 116.424 440.861 116.639 440.64C116.857 440.415 116.966 440.122 116.966 439.761C116.966 439.399 116.854 439.105 116.629 438.877C116.404 438.649 116.119 438.535 115.774 438.535Z" fill="#97ADC6"/>
    <path d="M147.56 445H146.651V438.979L144.83 439.648V438.828L147.418 437.856H147.56V445ZM150.621 441.436L150.982 437.891H154.625V438.726H151.749L151.534 440.664C151.882 440.459 152.278 440.356 152.721 440.356C153.368 440.356 153.883 440.571 154.264 441.001C154.645 441.427 154.835 442.005 154.835 442.734C154.835 443.467 154.636 444.045 154.239 444.468C153.845 444.888 153.294 445.098 152.584 445.098C151.956 445.098 151.443 444.924 151.046 444.575C150.649 444.227 150.423 443.745 150.367 443.13H151.222C151.277 443.537 151.422 443.844 151.656 444.053C151.891 444.258 152.2 444.36 152.584 444.36C153.004 444.36 153.333 444.217 153.57 443.931C153.811 443.644 153.932 443.249 153.932 442.744C153.932 442.269 153.801 441.888 153.541 441.602C153.284 441.312 152.94 441.167 152.511 441.167C152.117 441.167 151.808 441.253 151.583 441.426L151.344 441.621L150.621 441.436ZM156.095 445.61H155.318L158.287 437.891H159.059L156.095 445.61ZM164.4 441.968C164.4 443.026 164.22 443.812 163.858 444.326C163.497 444.84 162.932 445.098 162.164 445.098C161.406 445.098 160.844 444.847 160.479 444.346C160.115 443.841 159.926 443.089 159.913 442.09V440.884C159.913 439.839 160.094 439.062 160.455 438.555C160.816 438.047 161.383 437.793 162.154 437.793C162.919 437.793 163.482 438.039 163.844 438.53C164.205 439.019 164.391 439.774 164.4 440.796V441.968ZM163.497 440.732C163.497 439.967 163.39 439.411 163.175 439.062C162.96 438.711 162.62 438.535 162.154 438.535C161.692 438.535 161.355 438.709 161.144 439.058C160.932 439.406 160.823 439.941 160.816 440.664V442.109C160.816 442.878 160.927 443.446 161.148 443.813C161.373 444.178 161.712 444.36 162.164 444.36C162.61 444.36 162.94 444.188 163.155 443.843C163.373 443.498 163.487 442.954 163.497 442.212V440.732ZM169.869 439.746C169.869 440.101 169.775 440.417 169.586 440.693C169.4 440.97 169.148 441.187 168.829 441.343C169.2 441.502 169.493 441.735 169.708 442.041C169.926 442.347 170.035 442.694 170.035 443.081C170.035 443.696 169.827 444.186 169.41 444.551C168.997 444.915 168.451 445.098 167.774 445.098C167.091 445.098 166.542 444.915 166.129 444.551C165.719 444.183 165.514 443.693 165.514 443.081C165.514 442.697 165.618 442.35 165.826 442.041C166.038 441.732 166.329 441.497 166.7 441.338C166.384 441.182 166.135 440.965 165.953 440.688C165.771 440.412 165.68 440.098 165.68 439.746C165.68 439.147 165.872 438.672 166.256 438.32C166.64 437.969 167.146 437.793 167.774 437.793C168.399 437.793 168.904 437.969 169.288 438.32C169.675 438.672 169.869 439.147 169.869 439.746ZM169.132 443.062C169.132 442.664 169.005 442.34 168.751 442.09C168.5 441.839 168.172 441.714 167.765 441.714C167.358 441.714 167.031 441.838 166.783 442.085C166.539 442.332 166.417 442.658 166.417 443.062C166.417 443.465 166.536 443.783 166.773 444.014C167.014 444.245 167.348 444.36 167.774 444.36C168.198 444.36 168.53 444.245 168.771 444.014C169.011 443.779 169.132 443.462 169.132 443.062ZM167.774 438.535C167.42 438.535 167.132 438.646 166.91 438.867C166.692 439.085 166.583 439.383 166.583 439.761C166.583 440.122 166.69 440.415 166.905 440.64C167.123 440.861 167.413 440.972 167.774 440.972C168.136 440.972 168.424 440.861 168.639 440.64C168.857 440.415 168.966 440.122 168.966 439.761C168.966 439.399 168.854 439.105 168.629 438.877C168.404 438.649 168.119 438.535 167.774 438.535Z" fill="#97ADC6"/>
    <path d="M201.249 445H196.591V444.351L199.052 441.616C199.416 441.203 199.667 440.868 199.804 440.61C199.944 440.35 200.014 440.081 200.014 439.805C200.014 439.434 199.901 439.129 199.677 438.892C199.452 438.654 199.153 438.535 198.778 438.535C198.329 438.535 197.979 438.664 197.729 438.921C197.481 439.175 197.357 439.53 197.357 439.985H196.454C196.454 439.331 196.664 438.802 197.084 438.398C197.507 437.995 198.072 437.793 198.778 437.793C199.439 437.793 199.962 437.967 200.346 438.315C200.73 438.66 200.922 439.121 200.922 439.697C200.922 440.397 200.476 441.23 199.584 442.197L197.68 444.263H201.249V445ZM206.864 445H202.206V444.351L204.667 441.616C205.032 441.203 205.282 440.868 205.419 440.61C205.559 440.35 205.629 440.081 205.629 439.805C205.629 439.434 205.517 439.129 205.292 438.892C205.067 438.654 204.768 438.535 204.394 438.535C203.944 438.535 203.594 438.664 203.344 438.921C203.096 439.175 202.973 439.53 202.973 439.985H202.069C202.069 439.331 202.279 438.802 202.699 438.398C203.122 437.995 203.687 437.793 204.394 437.793C205.054 437.793 205.577 437.967 205.961 438.315C206.345 438.66 206.537 439.121 206.537 439.697C206.537 440.397 206.091 441.23 205.199 442.197L203.295 444.263H206.864V445ZM208.095 445.61H207.318L210.287 437.891H211.059L208.095 445.61ZM216.4 441.968C216.4 443.026 216.22 443.812 215.858 444.326C215.497 444.84 214.932 445.098 214.164 445.098C213.406 445.098 212.844 444.847 212.479 444.346C212.115 443.841 211.926 443.089 211.913 442.09V440.884C211.913 439.839 212.094 439.062 212.455 438.555C212.816 438.047 213.383 437.793 214.154 437.793C214.919 437.793 215.482 438.039 215.844 438.53C216.205 439.019 216.391 439.774 216.4 440.796V441.968ZM215.497 440.732C215.497 439.967 215.39 439.411 215.175 439.062C214.96 438.711 214.62 438.535 214.154 438.535C213.692 438.535 213.355 438.709 213.144 439.058C212.932 439.406 212.823 439.941 212.816 440.664V442.109C212.816 442.878 212.927 443.446 213.148 443.813C213.373 444.178 213.712 444.36 214.164 444.36C214.61 444.36 214.94 444.188 215.155 443.843C215.373 443.498 215.487 442.954 215.497 442.212V440.732ZM221.869 439.746C221.869 440.101 221.775 440.417 221.586 440.693C221.4 440.97 221.148 441.187 220.829 441.343C221.2 441.502 221.493 441.735 221.708 442.041C221.926 442.347 222.035 442.694 222.035 443.081C222.035 443.696 221.827 444.186 221.41 444.551C220.997 444.915 220.451 445.098 219.774 445.098C219.091 445.098 218.542 444.915 218.129 444.551C217.719 444.183 217.514 443.693 217.514 443.081C217.514 442.697 217.618 442.35 217.826 442.041C218.038 441.732 218.329 441.497 218.7 441.338C218.384 441.182 218.135 440.965 217.953 440.688C217.771 440.412 217.68 440.098 217.68 439.746C217.68 439.147 217.872 438.672 218.256 438.32C218.64 437.969 219.146 437.793 219.774 437.793C220.399 437.793 220.904 437.969 221.288 438.32C221.675 438.672 221.869 439.147 221.869 439.746ZM221.132 443.062C221.132 442.664 221.005 442.34 220.751 442.09C220.5 441.839 220.172 441.714 219.765 441.714C219.358 441.714 219.031 441.838 218.783 442.085C218.539 442.332 218.417 442.658 218.417 443.062C218.417 443.465 218.536 443.783 218.773 444.014C219.014 444.245 219.348 444.36 219.774 444.36C220.198 444.36 220.53 444.245 220.771 444.014C221.011 443.779 221.132 443.462 221.132 443.062ZM219.774 438.535C219.42 438.535 219.132 438.646 218.91 438.867C218.692 439.085 218.583 439.383 218.583 439.761C218.583 440.122 218.69 440.415 218.905 440.64C219.123 440.861 219.413 440.972 219.774 440.972C220.136 440.972 220.424 440.861 220.639 440.64C220.857 440.415 220.966 440.122 220.966 439.761C220.966 439.399 220.854 439.105 220.629 438.877C220.404 438.649 220.119 438.535 219.774 438.535Z" fill="#97ADC6"/>
    <path d="M253.249 445H248.591V444.351L251.052 441.616C251.416 441.203 251.667 440.868 251.804 440.61C251.944 440.35 252.014 440.081 252.014 439.805C252.014 439.434 251.901 439.129 251.677 438.892C251.452 438.654 251.153 438.535 250.778 438.535C250.329 438.535 249.979 438.664 249.729 438.921C249.481 439.175 249.357 439.53 249.357 439.985H248.454C248.454 439.331 248.664 438.802 249.084 438.398C249.507 437.995 250.072 437.793 250.778 437.793C251.439 437.793 251.962 437.967 252.346 438.315C252.73 438.66 252.922 439.121 252.922 439.697C252.922 440.397 252.476 441.23 251.584 442.197L249.68 444.263H253.249V445ZM257.668 441.875C257.479 442.1 257.253 442.28 256.989 442.417C256.729 442.554 256.442 442.622 256.13 442.622C255.72 442.622 255.362 442.521 255.056 442.319C254.753 442.118 254.519 441.834 254.353 441.47C254.187 441.102 254.104 440.697 254.104 440.254C254.104 439.779 254.193 439.351 254.372 438.97C254.554 438.589 254.812 438.298 255.144 438.096C255.476 437.894 255.863 437.793 256.306 437.793C257.009 437.793 257.562 438.057 257.966 438.584C258.373 439.108 258.576 439.824 258.576 440.732V440.996C258.576 442.38 258.303 443.39 257.756 444.028C257.209 444.663 256.384 444.989 255.28 445.005H255.104V444.243H255.295C256.04 444.23 256.613 444.036 257.014 443.662C257.414 443.285 257.632 442.689 257.668 441.875ZM256.276 441.875C256.579 441.875 256.857 441.782 257.111 441.597C257.368 441.411 257.556 441.182 257.673 440.908V440.547C257.673 439.954 257.544 439.473 257.287 439.102C257.03 438.73 256.704 438.545 256.311 438.545C255.913 438.545 255.594 438.698 255.354 439.004C255.113 439.307 254.992 439.707 254.992 440.205C254.992 440.69 255.108 441.09 255.339 441.406C255.573 441.719 255.886 441.875 256.276 441.875ZM260.095 445.61H259.318L262.287 437.891H263.059L260.095 445.61ZM268.4 441.968C268.4 443.026 268.22 443.812 267.858 444.326C267.497 444.84 266.932 445.098 266.164 445.098C265.406 445.098 264.844 444.847 264.479 444.346C264.115 443.841 263.926 443.089 263.913 442.09V440.884C263.913 439.839 264.094 439.062 264.455 438.555C264.816 438.047 265.383 437.793 266.154 437.793C266.919 437.793 267.482 438.039 267.844 438.53C268.205 439.019 268.391 439.774 268.4 440.796V441.968ZM267.497 440.732C267.497 439.967 267.39 439.411 267.175 439.062C266.96 438.711 266.62 438.535 266.154 438.535C265.692 438.535 265.355 438.709 265.144 439.058C264.932 439.406 264.823 439.941 264.816 440.664V442.109C264.816 442.878 264.927 443.446 265.148 443.813C265.373 444.178 265.712 444.36 266.164 444.36C266.61 444.36 266.94 444.188 267.155 443.843C267.373 443.498 267.487 442.954 267.497 442.212V440.732ZM273.869 439.746C273.869 440.101 273.775 440.417 273.586 440.693C273.4 440.97 273.148 441.187 272.829 441.343C273.2 441.502 273.493 441.735 273.708 442.041C273.926 442.347 274.035 442.694 274.035 443.081C274.035 443.696 273.827 444.186 273.41 444.551C272.997 444.915 272.451 445.098 271.774 445.098C271.091 445.098 270.542 444.915 270.129 444.551C269.719 444.183 269.514 443.693 269.514 443.081C269.514 442.697 269.618 442.35 269.826 442.041C270.038 441.732 270.329 441.497 270.7 441.338C270.384 441.182 270.135 440.965 269.953 440.688C269.771 440.412 269.68 440.098 269.68 439.746C269.68 439.147 269.872 438.672 270.256 438.32C270.64 437.969 271.146 437.793 271.774 437.793C272.399 437.793 272.904 437.969 273.288 438.32C273.675 438.672 273.869 439.147 273.869 439.746ZM273.132 443.062C273.132 442.664 273.005 442.34 272.751 442.09C272.5 441.839 272.172 441.714 271.765 441.714C271.358 441.714 271.031 441.838 270.783 442.085C270.539 442.332 270.417 442.658 270.417 443.062C270.417 443.465 270.536 443.783 270.773 444.014C271.014 444.245 271.348 444.36 271.774 444.36C272.198 444.36 272.53 444.245 272.771 444.014C273.011 443.779 273.132 443.462 273.132 443.062ZM271.774 438.535C271.42 438.535 271.132 438.646 270.91 438.867C270.692 439.085 270.583 439.383 270.583 439.761C270.583 440.122 270.69 440.415 270.905 440.64C271.123 440.861 271.413 440.972 271.774 440.972C272.136 440.972 272.424 440.861 272.639 440.64C272.857 440.415 272.966 440.122 272.966 439.761C272.966 439.399 272.854 439.105 272.629 438.877C272.404 438.649 272.119 438.535 271.774 438.535Z" fill="#97ADC6"/>
    <path d="M305.049 441.968C305.049 443.026 304.868 443.812 304.507 444.326C304.146 444.84 303.581 445.098 302.812 445.098C302.054 445.098 301.493 444.847 301.128 444.346C300.763 443.841 300.575 443.089 300.562 442.09V440.884C300.562 439.839 300.742 439.062 301.104 438.555C301.465 438.047 302.031 437.793 302.803 437.793C303.568 437.793 304.131 438.039 304.492 438.53C304.854 439.019 305.039 439.774 305.049 440.796V441.968ZM304.146 440.732C304.146 439.967 304.038 439.411 303.823 439.062C303.608 438.711 303.268 438.535 302.803 438.535C302.34 438.535 302.004 438.709 301.792 439.058C301.58 439.406 301.471 439.941 301.465 440.664V442.109C301.465 442.878 301.576 443.446 301.797 443.813C302.021 444.178 302.36 444.36 302.812 444.36C303.258 444.36 303.589 444.188 303.804 443.843C304.022 443.498 304.136 442.954 304.146 442.212V440.732ZM306.621 441.436L306.982 437.891H310.625V438.726H307.749L307.534 440.664C307.882 440.459 308.278 440.356 308.721 440.356C309.368 440.356 309.883 440.571 310.264 441.001C310.645 441.427 310.835 442.005 310.835 442.734C310.835 443.467 310.636 444.045 310.239 444.468C309.845 444.888 309.294 445.098 308.584 445.098C307.956 445.098 307.443 444.924 307.046 444.575C306.649 444.227 306.423 443.745 306.367 443.13H307.222C307.277 443.537 307.422 443.844 307.656 444.053C307.891 444.258 308.2 444.36 308.584 444.36C309.004 444.36 309.333 444.217 309.57 443.931C309.811 443.644 309.932 443.249 309.932 442.744C309.932 442.269 309.801 441.888 309.541 441.602C309.284 441.312 308.94 441.167 308.511 441.167C308.117 441.167 307.808 441.253 307.583 441.426L307.344 441.621L306.621 441.436ZM312.095 445.61H311.318L314.287 437.891H315.059L312.095 445.61ZM320.4 441.968C320.4 443.026 320.22 443.812 319.858 444.326C319.497 444.84 318.932 445.098 318.164 445.098C317.406 445.098 316.844 444.847 316.479 444.346C316.115 443.841 315.926 443.089 315.913 442.09V440.884C315.913 439.839 316.094 439.062 316.455 438.555C316.816 438.047 317.383 437.793 318.154 437.793C318.919 437.793 319.482 438.039 319.844 438.53C320.205 439.019 320.391 439.774 320.4 440.796V441.968ZM319.497 440.732C319.497 439.967 319.39 439.411 319.175 439.062C318.96 438.711 318.62 438.535 318.154 438.535C317.692 438.535 317.355 438.709 317.144 439.058C316.932 439.406 316.823 439.941 316.816 440.664V442.109C316.816 442.878 316.927 443.446 317.148 443.813C317.373 444.178 317.712 444.36 318.164 444.36C318.61 444.36 318.94 444.188 319.155 443.843C319.373 443.498 319.487 442.954 319.497 442.212V440.732ZM325.02 441.875C324.831 442.1 324.604 442.28 324.341 442.417C324.08 442.554 323.794 442.622 323.481 442.622C323.071 442.622 322.713 442.521 322.407 442.319C322.104 442.118 321.87 441.834 321.704 441.47C321.538 441.102 321.455 440.697 321.455 440.254C321.455 439.779 321.545 439.351 321.724 438.97C321.906 438.589 322.163 438.298 322.495 438.096C322.827 437.894 323.215 437.793 323.657 437.793C324.36 437.793 324.914 438.057 325.317 438.584C325.724 439.108 325.928 439.824 325.928 440.732V440.996C325.928 442.38 325.654 443.39 325.107 444.028C324.561 444.663 323.735 444.989 322.632 445.005H322.456V444.243H322.646C323.392 444.23 323.965 444.036 324.365 443.662C324.766 443.285 324.984 442.689 325.02 441.875ZM323.628 441.875C323.931 441.875 324.209 441.782 324.463 441.597C324.72 441.411 324.907 441.182 325.024 440.908V440.547C325.024 439.954 324.896 439.473 324.639 439.102C324.382 438.73 324.056 438.545 323.662 438.545C323.265 438.545 322.946 438.698 322.705 439.004C322.464 439.307 322.344 439.707 322.344 440.205C322.344 440.69 322.459 441.09 322.69 441.406C322.925 441.719 323.237 441.875 323.628 441.875Z" fill="#97ADC6"/>
    <path d="M355.56 445H354.651V438.979L352.83 439.648V438.828L355.418 437.856H355.56V445ZM362.864 445H358.206V444.351L360.667 441.616C361.032 441.203 361.282 440.868 361.419 440.61C361.559 440.35 361.629 440.081 361.629 439.805C361.629 439.434 361.517 439.129 361.292 438.892C361.067 438.654 360.768 438.535 360.394 438.535C359.944 438.535 359.594 438.664 359.344 438.921C359.096 439.175 358.973 439.53 358.973 439.985H358.069C358.069 439.331 358.279 438.802 358.699 438.398C359.122 437.995 359.687 437.793 360.394 437.793C361.054 437.793 361.577 437.967 361.961 438.315C362.345 438.66 362.537 439.121 362.537 439.697C362.537 440.397 362.091 441.23 361.199 442.197L359.295 444.263H362.864V445ZM364.095 445.61H363.318L366.287 437.891H367.059L364.095 445.61ZM372.4 441.968C372.4 443.026 372.22 443.812 371.858 444.326C371.497 444.84 370.932 445.098 370.164 445.098C369.406 445.098 368.844 444.847 368.479 444.346C368.115 443.841 367.926 443.089 367.913 442.09V440.884C367.913 439.839 368.094 439.062 368.455 438.555C368.816 438.047 369.383 437.793 370.154 437.793C370.919 437.793 371.482 438.039 371.844 438.53C372.205 439.019 372.391 439.774 372.4 440.796V441.968ZM371.497 440.732C371.497 439.967 371.39 439.411 371.175 439.062C370.96 438.711 370.62 438.535 370.154 438.535C369.692 438.535 369.355 438.709 369.144 439.058C368.932 439.406 368.823 439.941 368.816 440.664V442.109C368.816 442.878 368.927 443.446 369.148 443.813C369.373 444.178 369.712 444.36 370.164 444.36C370.61 444.36 370.94 444.188 371.155 443.843C371.373 443.498 371.487 442.954 371.497 442.212V440.732ZM377.02 441.875C376.831 442.1 376.604 442.28 376.341 442.417C376.08 442.554 375.794 442.622 375.481 442.622C375.071 442.622 374.713 442.521 374.407 442.319C374.104 442.118 373.87 441.834 373.704 441.47C373.538 441.102 373.455 440.697 373.455 440.254C373.455 439.779 373.545 439.351 373.724 438.97C373.906 438.589 374.163 438.298 374.495 438.096C374.827 437.894 375.215 437.793 375.657 437.793C376.36 437.793 376.914 438.057 377.317 438.584C377.724 439.108 377.928 439.824 377.928 440.732V440.996C377.928 442.38 377.654 443.39 377.107 444.028C376.561 444.663 375.735 444.989 374.632 445.005H374.456V444.243H374.646C375.392 444.23 375.965 444.036 376.365 443.662C376.766 443.285 376.984 442.689 377.02 441.875ZM375.628 441.875C375.931 441.875 376.209 441.782 376.463 441.597C376.72 441.411 376.907 441.182 377.024 440.908V440.547C377.024 439.954 376.896 439.473 376.639 439.102C376.382 438.73 376.056 438.545 375.662 438.545C375.265 438.545 374.946 438.698 374.705 439.004C374.464 439.307 374.344 439.707 374.344 440.205C374.344 440.69 374.459 441.09 374.69 441.406C374.925 441.719 375.237 441.875 375.628 441.875Z" fill="#97ADC6"/>
    <path d="M407.56 445H406.651V438.979L404.83 439.648V438.828L407.418 437.856H407.56V445ZM413.668 441.875C413.479 442.1 413.253 442.28 412.989 442.417C412.729 442.554 412.442 442.622 412.13 442.622C411.72 442.622 411.362 442.521 411.056 442.319C410.753 442.118 410.519 441.834 410.353 441.47C410.187 441.102 410.104 440.697 410.104 440.254C410.104 439.779 410.193 439.351 410.372 438.97C410.554 438.589 410.812 438.298 411.144 438.096C411.476 437.894 411.863 437.793 412.306 437.793C413.009 437.793 413.562 438.057 413.966 438.584C414.373 439.108 414.576 439.824 414.576 440.732V440.996C414.576 442.38 414.303 443.39 413.756 444.028C413.209 444.663 412.384 444.989 411.28 445.005H411.104V444.243H411.295C412.04 444.23 412.613 444.036 413.014 443.662C413.414 443.285 413.632 442.689 413.668 441.875ZM412.276 441.875C412.579 441.875 412.857 441.782 413.111 441.597C413.368 441.411 413.556 441.182 413.673 440.908V440.547C413.673 439.954 413.544 439.473 413.287 439.102C413.03 438.73 412.704 438.545 412.311 438.545C411.913 438.545 411.594 438.698 411.354 439.004C411.113 439.307 410.992 439.707 410.992 440.205C410.992 440.69 411.108 441.09 411.339 441.406C411.573 441.719 411.886 441.875 412.276 441.875ZM416.095 445.61H415.318L418.287 437.891H419.059L416.095 445.61ZM424.4 441.968C424.4 443.026 424.22 443.812 423.858 444.326C423.497 444.84 422.932 445.098 422.164 445.098C421.406 445.098 420.844 444.847 420.479 444.346C420.115 443.841 419.926 443.089 419.913 442.09V440.884C419.913 439.839 420.094 439.062 420.455 438.555C420.816 438.047 421.383 437.793 422.154 437.793C422.919 437.793 423.482 438.039 423.844 438.53C424.205 439.019 424.391 439.774 424.4 440.796V441.968ZM423.497 440.732C423.497 439.967 423.39 439.411 423.175 439.062C422.96 438.711 422.62 438.535 422.154 438.535C421.692 438.535 421.355 438.709 421.144 439.058C420.932 439.406 420.823 439.941 420.816 440.664V442.109C420.816 442.878 420.927 443.446 421.148 443.813C421.373 444.178 421.712 444.36 422.164 444.36C422.61 444.36 422.94 444.188 423.155 443.843C423.373 443.498 423.487 442.954 423.497 442.212V440.732ZM429.02 441.875C428.831 442.1 428.604 442.28 428.341 442.417C428.08 442.554 427.794 442.622 427.481 442.622C427.071 442.622 426.713 442.521 426.407 442.319C426.104 442.118 425.87 441.834 425.704 441.47C425.538 441.102 425.455 440.697 425.455 440.254C425.455 439.779 425.545 439.351 425.724 438.97C425.906 438.589 426.163 438.298 426.495 438.096C426.827 437.894 427.215 437.793 427.657 437.793C428.36 437.793 428.914 438.057 429.317 438.584C429.724 439.108 429.928 439.824 429.928 440.732V440.996C429.928 442.38 429.654 443.39 429.107 444.028C428.561 444.663 427.735 444.989 426.632 445.005H426.456V444.243H426.646C427.392 444.23 427.965 444.036 428.365 443.662C428.766 443.285 428.984 442.689 429.02 441.875ZM427.628 441.875C427.931 441.875 428.209 441.782 428.463 441.597C428.72 441.411 428.907 441.182 429.024 440.908V440.547C429.024 439.954 428.896 439.473 428.639 439.102C428.382 438.73 428.056 438.545 427.662 438.545C427.265 438.545 426.946 438.698 426.705 439.004C426.464 439.307 426.344 439.707 426.344 440.205C426.344 440.69 426.459 441.09 426.69 441.406C426.925 441.719 427.237 441.875 427.628 441.875Z" fill="#97ADC6"/>
    <path d="M461.249 445H456.591V444.351L459.052 441.616C459.416 441.203 459.667 440.868 459.804 440.61C459.944 440.35 460.014 440.081 460.014 439.805C460.014 439.434 459.901 439.129 459.677 438.892C459.452 438.654 459.153 438.535 458.778 438.535C458.329 438.535 457.979 438.664 457.729 438.921C457.481 439.175 457.357 439.53 457.357 439.985H456.454C456.454 439.331 456.664 438.802 457.084 438.398C457.507 437.995 458.072 437.793 458.778 437.793C459.439 437.793 459.962 437.967 460.346 438.315C460.73 438.66 460.922 439.121 460.922 439.697C460.922 440.397 460.476 441.23 459.584 442.197L457.68 444.263H461.249V445ZM465.751 437.886V438.652H465.585C464.882 438.665 464.322 438.874 463.905 439.277C463.489 439.681 463.248 440.249 463.183 440.981C463.557 440.552 464.068 440.337 464.716 440.337C465.334 440.337 465.827 440.555 466.195 440.991C466.566 441.427 466.752 441.991 466.752 442.681C466.752 443.413 466.552 443.999 466.151 444.438C465.754 444.878 465.22 445.098 464.55 445.098C463.869 445.098 463.318 444.837 462.895 444.316C462.471 443.792 462.26 443.118 462.26 442.295V441.948C462.26 440.64 462.538 439.64 463.095 438.95C463.655 438.257 464.486 437.902 465.59 437.886H465.751ZM464.564 441.089C464.255 441.089 463.97 441.182 463.71 441.367C463.45 441.553 463.269 441.785 463.168 442.065V442.397C463.168 442.983 463.3 443.455 463.563 443.813C463.827 444.172 464.156 444.351 464.55 444.351C464.957 444.351 465.276 444.201 465.507 443.901C465.741 443.602 465.858 443.21 465.858 442.725C465.858 442.236 465.74 441.842 465.502 441.543C465.268 441.24 464.955 441.089 464.564 441.089ZM468.095 445.61H467.318L470.287 437.891H471.059L468.095 445.61ZM476.4 441.968C476.4 443.026 476.22 443.812 475.858 444.326C475.497 444.84 474.932 445.098 474.164 445.098C473.406 445.098 472.844 444.847 472.479 444.346C472.115 443.841 471.926 443.089 471.913 442.09V440.884C471.913 439.839 472.094 439.062 472.455 438.555C472.816 438.047 473.383 437.793 474.154 437.793C474.919 437.793 475.482 438.039 475.844 438.53C476.205 439.019 476.391 439.774 476.4 440.796V441.968ZM475.497 440.732C475.497 439.967 475.39 439.411 475.175 439.062C474.96 438.711 474.62 438.535 474.154 438.535C473.692 438.535 473.355 438.709 473.144 439.058C472.932 439.406 472.823 439.941 472.816 440.664V442.109C472.816 442.878 472.927 443.446 473.148 443.813C473.373 444.178 473.712 444.36 474.164 444.36C474.61 444.36 474.94 444.188 475.155 443.843C475.373 443.498 475.487 442.954 475.497 442.212V440.732ZM481.02 441.875C480.831 442.1 480.604 442.28 480.341 442.417C480.08 442.554 479.794 442.622 479.481 442.622C479.071 442.622 478.713 442.521 478.407 442.319C478.104 442.118 477.87 441.834 477.704 441.47C477.538 441.102 477.455 440.697 477.455 440.254C477.455 439.779 477.545 439.351 477.724 438.97C477.906 438.589 478.163 438.298 478.495 438.096C478.827 437.894 479.215 437.793 479.657 437.793C480.36 437.793 480.914 438.057 481.317 438.584C481.724 439.108 481.928 439.824 481.928 440.732V440.996C481.928 442.38 481.654 443.39 481.107 444.028C480.561 444.663 479.735 444.989 478.632 445.005H478.456V444.243H478.646C479.392 444.23 479.965 444.036 480.365 443.662C480.766 443.285 480.984 442.689 481.02 441.875ZM479.628 441.875C479.931 441.875 480.209 441.782 480.463 441.597C480.72 441.411 480.907 441.182 481.024 440.908V440.547C481.024 439.954 480.896 439.473 480.639 439.102C480.382 438.73 480.056 438.545 479.662 438.545C479.265 438.545 478.946 438.698 478.705 439.004C478.464 439.307 478.344 439.707 478.344 440.205C478.344 440.69 478.459 441.09 478.69 441.406C478.925 441.719 479.237 441.875 479.628 441.875Z" fill="#97ADC6"/>
    <path d="M513.049 441.968C513.049 443.026 512.868 443.812 512.507 444.326C512.146 444.84 511.581 445.098 510.812 445.098C510.054 445.098 509.493 444.847 509.128 444.346C508.763 443.841 508.575 443.089 508.562 442.09V440.884C508.562 439.839 508.742 439.062 509.104 438.555C509.465 438.047 510.031 437.793 510.803 437.793C511.568 437.793 512.131 438.039 512.492 438.53C512.854 439.019 513.039 439.774 513.049 440.796V441.968ZM512.146 440.732C512.146 439.967 512.038 439.411 511.823 439.062C511.608 438.711 511.268 438.535 510.803 438.535C510.34 438.535 510.004 438.709 509.792 439.058C509.58 439.406 509.471 439.941 509.465 440.664V442.109C509.465 442.878 509.576 443.446 509.797 443.813C510.021 444.178 510.36 444.36 510.812 444.36C511.258 444.36 511.589 444.188 511.804 443.843C512.022 443.498 512.136 442.954 512.146 442.212V440.732ZM515.52 441.006H516.198C516.625 440.999 516.96 440.887 517.204 440.669C517.448 440.451 517.57 440.156 517.57 439.785C517.57 438.952 517.155 438.535 516.325 438.535C515.935 438.535 515.622 438.647 515.388 438.872C515.157 439.093 515.041 439.388 515.041 439.756H514.138C514.138 439.193 514.343 438.726 514.753 438.354C515.166 437.98 515.69 437.793 516.325 437.793C516.996 437.793 517.521 437.97 517.902 438.325C518.283 438.68 518.474 439.173 518.474 439.805C518.474 440.114 518.373 440.413 518.171 440.703C517.972 440.993 517.701 441.209 517.355 441.353C517.746 441.476 518.047 441.681 518.259 441.968C518.474 442.254 518.581 442.604 518.581 443.018C518.581 443.656 518.373 444.162 517.956 444.536C517.539 444.91 516.997 445.098 516.33 445.098C515.663 445.098 515.119 444.917 514.699 444.556C514.283 444.194 514.074 443.717 514.074 443.125H514.982C514.982 443.499 515.104 443.799 515.349 444.023C515.593 444.248 515.92 444.36 516.33 444.36C516.766 444.36 517.1 444.246 517.331 444.019C517.562 443.791 517.678 443.464 517.678 443.037C517.678 442.624 517.551 442.306 517.297 442.085C517.043 441.864 516.677 441.75 516.198 441.743H515.52V441.006ZM520.095 445.61H519.318L522.287 437.891H523.059L520.095 445.61ZM526.911 445H526.003V438.979L524.182 439.648V438.828L526.77 437.856H526.911V445ZM534.016 441.968C534.016 443.026 533.835 443.812 533.474 444.326C533.112 444.84 532.548 445.098 531.779 445.098C531.021 445.098 530.459 444.847 530.095 444.346C529.73 443.841 529.541 443.089 529.528 442.09V440.884C529.528 439.839 529.709 439.062 530.07 438.555C530.432 438.047 530.998 437.793 531.77 437.793C532.535 437.793 533.098 438.039 533.459 438.53C533.82 439.019 534.006 439.774 534.016 440.796V441.968ZM533.112 440.732C533.112 439.967 533.005 439.411 532.79 439.062C532.575 438.711 532.235 438.535 531.77 438.535C531.307 438.535 530.97 438.709 530.759 439.058C530.547 439.406 530.438 439.941 530.432 440.664V442.109C530.432 442.878 530.542 443.446 530.764 443.813C530.988 444.178 531.327 444.36 531.779 444.36C532.225 444.36 532.556 444.188 532.771 443.843C532.989 443.498 533.103 442.954 533.112 442.212V440.732Z" fill="#97ADC6"/>
    <path d="M563.56 445H562.651V438.979L560.83 439.648V438.828L563.418 437.856H563.56V445ZM570.664 441.968C570.664 443.026 570.483 443.812 570.122 444.326C569.761 444.84 569.196 445.098 568.428 445.098C567.669 445.098 567.108 444.847 566.743 444.346C566.379 443.841 566.19 443.089 566.177 442.09V440.884C566.177 439.839 566.357 439.062 566.719 438.555C567.08 438.047 567.646 437.793 568.418 437.793C569.183 437.793 569.746 438.039 570.107 438.53C570.469 439.019 570.654 439.774 570.664 440.796V441.968ZM569.761 440.732C569.761 439.967 569.653 439.411 569.438 439.062C569.224 438.711 568.883 438.535 568.418 438.535C567.956 438.535 567.619 438.709 567.407 439.058C567.196 439.406 567.087 439.941 567.08 440.664V442.109C567.08 442.878 567.191 443.446 567.412 443.813C567.637 444.178 567.975 444.36 568.428 444.36C568.874 444.36 569.204 444.188 569.419 443.843C569.637 443.498 569.751 442.954 569.761 442.212V440.732ZM572.095 445.61H571.318L574.287 437.891H575.059L572.095 445.61ZM578.911 445H578.003V438.979L576.182 439.648V438.828L578.77 437.856H578.911V445ZM586.016 441.968C586.016 443.026 585.835 443.812 585.474 444.326C585.112 444.84 584.548 445.098 583.779 445.098C583.021 445.098 582.459 444.847 582.095 444.346C581.73 443.841 581.541 443.089 581.528 442.09V440.884C581.528 439.839 581.709 439.062 582.07 438.555C582.432 438.047 582.998 437.793 583.77 437.793C584.535 437.793 585.098 438.039 585.459 438.53C585.82 439.019 586.006 439.774 586.016 440.796V441.968ZM585.112 440.732C585.112 439.967 585.005 439.411 584.79 439.062C584.575 438.711 584.235 438.535 583.77 438.535C583.307 438.535 582.97 438.709 582.759 439.058C582.547 439.406 582.438 439.941 582.432 440.664V442.109C582.432 442.878 582.542 443.446 582.764 443.813C582.988 444.178 583.327 444.36 583.779 444.36C584.225 444.36 584.556 444.188 584.771 443.843C584.989 443.498 585.103 442.954 585.112 442.212V440.732Z" fill="#97ADC6"/>
    <path d="M615.56 445H614.651V438.979L612.83 439.648V438.828L615.418 437.856H615.56V445ZM622.796 438.398L619.852 445H618.904L621.839 438.633H617.991V437.891H622.796V438.398ZM624.095 445.61H623.318L626.287 437.891H627.059L624.095 445.61ZM630.911 445H630.003V438.979L628.182 439.648V438.828L630.77 437.856H630.911V445ZM638.016 441.968C638.016 443.026 637.835 443.812 637.474 444.326C637.112 444.84 636.548 445.098 635.779 445.098C635.021 445.098 634.459 444.847 634.095 444.346C633.73 443.841 633.541 443.089 633.528 442.09V440.884C633.528 439.839 633.709 439.062 634.07 438.555C634.432 438.047 634.998 437.793 635.77 437.793C636.535 437.793 637.098 438.039 637.459 438.53C637.82 439.019 638.006 439.774 638.016 440.796V441.968ZM637.112 440.732C637.112 439.967 637.005 439.411 636.79 439.062C636.575 438.711 636.235 438.535 635.77 438.535C635.307 438.535 634.97 438.709 634.759 439.058C634.547 439.406 634.438 439.941 634.432 440.664V442.109C634.432 442.878 634.542 443.446 634.764 443.813C634.988 444.178 635.327 444.36 635.779 444.36C636.225 444.36 636.556 444.188 636.771 443.843C636.989 443.498 637.103 442.954 637.112 442.212V440.732Z" fill="#97ADC6"/>
    <path d="M669.249 445H664.591V444.351L667.052 441.616C667.416 441.203 667.667 440.868 667.804 440.61C667.944 440.35 668.014 440.081 668.014 439.805C668.014 439.434 667.901 439.129 667.677 438.892C667.452 438.654 667.153 438.535 666.778 438.535C666.329 438.535 665.979 438.664 665.729 438.921C665.481 439.175 665.357 439.53 665.357 439.985H664.454C664.454 439.331 664.664 438.802 665.084 438.398C665.507 437.995 666.072 437.793 666.778 437.793C667.439 437.793 667.962 437.967 668.346 438.315C668.73 438.66 668.922 439.121 668.922 439.697C668.922 440.397 668.476 441.23 667.584 442.197L665.68 444.263H669.249V445ZM674.02 442.612H675.006V443.35H674.02V445H673.111V443.35H669.874V442.817L673.058 437.891H674.02V442.612ZM670.899 442.612H673.111V439.126L673.004 439.321L670.899 442.612ZM676.095 445.61H675.318L678.287 437.891H679.059L676.095 445.61ZM682.911 445H682.003V438.979L680.182 439.648V438.828L682.77 437.856H682.911V445ZM690.016 441.968C690.016 443.026 689.835 443.812 689.474 444.326C689.112 444.84 688.548 445.098 687.779 445.098C687.021 445.098 686.459 444.847 686.095 444.346C685.73 443.841 685.541 443.089 685.528 442.09V440.884C685.528 439.839 685.709 439.062 686.07 438.555C686.432 438.047 686.998 437.793 687.77 437.793C688.535 437.793 689.098 438.039 689.459 438.53C689.82 439.019 690.006 439.774 690.016 440.796V441.968ZM689.112 440.732C689.112 439.967 689.005 439.411 688.79 439.062C688.575 438.711 688.235 438.535 687.77 438.535C687.307 438.535 686.97 438.709 686.759 439.058C686.547 439.406 686.438 439.941 686.432 440.664V442.109C686.432 442.878 686.542 443.446 686.764 443.813C686.988 444.178 687.327 444.36 687.779 444.36C688.225 444.36 688.556 444.188 688.771 443.843C688.989 443.498 689.103 442.954 689.112 442.212V440.732Z" fill="#97ADC6"/>
    <path d="M717.904 441.006H718.583C719.009 440.999 719.345 440.887 719.589 440.669C719.833 440.451 719.955 440.156 719.955 439.785C719.955 438.952 719.54 438.535 718.71 438.535C718.319 438.535 718.007 438.647 717.772 438.872C717.541 439.093 717.426 439.388 717.426 439.756H716.522C716.522 439.193 716.728 438.726 717.138 438.354C717.551 437.98 718.075 437.793 718.71 437.793C719.381 437.793 719.906 437.97 720.287 438.325C720.668 438.68 720.858 439.173 720.858 439.805C720.858 440.114 720.757 440.413 720.556 440.703C720.357 440.993 720.085 441.209 719.74 441.353C720.131 441.476 720.432 441.681 720.644 441.968C720.858 442.254 720.966 442.604 720.966 443.018C720.966 443.656 720.757 444.162 720.341 444.536C719.924 444.91 719.382 445.098 718.715 445.098C718.048 445.098 717.504 444.917 717.084 444.556C716.667 444.194 716.459 443.717 716.459 443.125H717.367C717.367 443.499 717.489 443.799 717.733 444.023C717.978 444.248 718.305 444.36 718.715 444.36C719.151 444.36 719.485 444.246 719.716 444.019C719.947 443.791 720.062 443.464 720.062 443.037C720.062 442.624 719.936 442.306 719.682 442.085C719.428 441.864 719.062 441.75 718.583 441.743H717.904V441.006ZM725.175 445H724.267V438.979L722.445 439.648V438.828L725.033 437.856H725.175V445ZM728.095 445.61H727.318L730.287 437.891H731.059L728.095 445.61ZM734.911 445H734.003V438.979L732.182 439.648V438.828L734.77 437.856H734.911V445ZM742.016 441.968C742.016 443.026 741.835 443.812 741.474 444.326C741.112 444.84 740.548 445.098 739.779 445.098C739.021 445.098 738.459 444.847 738.095 444.346C737.73 443.841 737.541 443.089 737.528 442.09V440.884C737.528 439.839 737.709 439.062 738.07 438.555C738.432 438.047 738.998 437.793 739.77 437.793C740.535 437.793 741.098 438.039 741.459 438.53C741.82 439.019 742.006 439.774 742.016 440.796V441.968ZM741.112 440.732C741.112 439.967 741.005 439.411 740.79 439.062C740.575 438.711 740.235 438.535 739.77 438.535C739.307 438.535 738.97 438.709 738.759 439.058C738.547 439.406 738.438 439.941 738.432 440.664V442.109C738.432 442.878 738.542 443.446 738.764 443.813C738.988 444.178 739.327 444.36 739.779 444.36C740.225 444.36 740.556 444.188 740.771 443.843C740.989 443.498 741.103 442.954 741.112 442.212V440.732Z" fill="#97ADC6"/>
    <path d="M773.049 441.968C773.049 443.026 772.868 443.812 772.507 444.326C772.146 444.84 771.581 445.098 770.812 445.098C770.054 445.098 769.493 444.847 769.128 444.346C768.763 443.841 768.575 443.089 768.562 442.09V440.884C768.562 439.839 768.742 439.062 769.104 438.555C769.465 438.047 770.031 437.793 770.803 437.793C771.568 437.793 772.131 438.039 772.492 438.53C772.854 439.019 773.039 439.774 773.049 440.796V441.968ZM772.146 440.732C772.146 439.967 772.038 439.411 771.823 439.062C771.608 438.711 771.268 438.535 770.803 438.535C770.34 438.535 770.004 438.709 769.792 439.058C769.58 439.406 769.471 439.941 769.465 440.664V442.109C769.465 442.878 769.576 443.446 769.797 443.813C770.021 444.178 770.36 444.36 770.812 444.36C771.258 444.36 771.589 444.188 771.804 443.843C772.022 443.498 772.136 442.954 772.146 442.212V440.732ZM778.796 438.398L775.852 445H774.904L777.839 438.633H773.991V437.891H778.796V438.398ZM780.095 445.61H779.318L782.287 437.891H783.059L780.095 445.61ZM786.911 445H786.003V438.979L784.182 439.648V438.828L786.77 437.856H786.911V445ZM792.526 445H791.618V438.979L789.797 439.648V438.828L792.385 437.856H792.526V445Z" fill="#97ADC6"/>
    <path d="M823.56 445H822.651V438.979L820.83 439.648V438.828L823.418 437.856H823.56V445ZM830.02 442.612H831.006V443.35H830.02V445H829.111V443.35H825.874V442.817L829.058 437.891H830.02V442.612ZM826.899 442.612H829.111V439.126L829.004 439.321L826.899 442.612ZM832.095 445.61H831.318L834.287 437.891H835.059L832.095 445.61ZM838.911 445H838.003V438.979L836.182 439.648V438.828L838.77 437.856H838.911V445ZM844.526 445H843.618V438.979L841.797 439.648V438.828L844.385 437.856H844.526V445Z" fill="#97ADC6"/>
    <path d="M877.249 445H872.591V444.351L875.052 441.616C875.416 441.203 875.667 440.868 875.804 440.61C875.944 440.35 876.014 440.081 876.014 439.805C876.014 439.434 875.901 439.129 875.677 438.892C875.452 438.654 875.153 438.535 874.778 438.535C874.329 438.535 873.979 438.664 873.729 438.921C873.481 439.175 873.357 439.53 873.357 439.985H872.454C872.454 439.331 872.664 438.802 873.084 438.398C873.507 437.995 874.072 437.793 874.778 437.793C875.439 437.793 875.962 437.967 876.346 438.315C876.73 438.66 876.922 439.121 876.922 439.697C876.922 440.397 876.476 441.23 875.584 442.197L873.68 444.263H877.249V445ZM881.175 445H880.267V438.979L878.445 439.648V438.828L881.033 437.856H881.175V445ZM884.095 445.61H883.318L886.287 437.891H887.059L884.095 445.61ZM890.911 445H890.003V438.979L888.182 439.648V438.828L890.77 437.856H890.911V445ZM896.526 445H895.618V438.979L893.797 439.648V438.828L896.385 437.856H896.526V445Z" fill="#97ADC6"/>
    <path d="M929.249 445H924.591V444.351L927.052 441.616C927.416 441.203 927.667 440.868 927.804 440.61C927.944 440.35 928.014 440.081 928.014 439.805C928.014 439.434 927.901 439.129 927.677 438.892C927.452 438.654 927.153 438.535 926.778 438.535C926.329 438.535 925.979 438.664 925.729 438.921C925.481 439.175 925.357 439.53 925.357 439.985H924.454C924.454 439.331 924.664 438.802 925.084 438.398C925.507 437.995 926.072 437.793 926.778 437.793C927.439 437.793 927.962 437.967 928.346 438.315C928.73 438.66 928.922 439.121 928.922 439.697C928.922 440.397 928.476 441.23 927.584 442.197L925.68 444.263H929.249V445ZM934.518 439.746C934.518 440.101 934.423 440.417 934.234 440.693C934.049 440.97 933.797 441.187 933.478 441.343C933.849 441.502 934.142 441.735 934.356 442.041C934.575 442.347 934.684 442.694 934.684 443.081C934.684 443.696 934.475 444.186 934.059 444.551C933.645 444.915 933.1 445.098 932.423 445.098C931.739 445.098 931.191 444.915 930.777 444.551C930.367 444.183 930.162 443.693 930.162 443.081C930.162 442.697 930.266 442.35 930.475 442.041C930.686 441.732 930.978 441.497 931.349 441.338C931.033 441.182 930.784 440.965 930.602 440.688C930.419 440.412 930.328 440.098 930.328 439.746C930.328 439.147 930.52 438.672 930.904 438.32C931.288 437.969 931.795 437.793 932.423 437.793C933.048 437.793 933.552 437.969 933.937 438.32C934.324 438.672 934.518 439.147 934.518 439.746ZM933.78 443.062C933.78 442.664 933.653 442.34 933.399 442.09C933.149 441.839 932.82 441.714 932.413 441.714C932.006 441.714 931.679 441.838 931.432 442.085C931.188 442.332 931.065 442.658 931.065 443.062C931.065 443.465 931.184 443.783 931.422 444.014C931.663 444.245 931.996 444.36 932.423 444.36C932.846 444.36 933.178 444.245 933.419 444.014C933.66 443.779 933.78 443.462 933.78 443.062ZM932.423 438.535C932.068 438.535 931.78 438.646 931.559 438.867C931.34 439.085 931.231 439.383 931.231 439.761C931.231 440.122 931.339 440.415 931.554 440.64C931.772 440.861 932.062 440.972 932.423 440.972C932.784 440.972 933.072 440.861 933.287 440.64C933.505 440.415 933.614 440.122 933.614 439.761C933.614 439.399 933.502 439.105 933.277 438.877C933.053 438.649 932.768 438.535 932.423 438.535ZM936.095 445.61H935.318L938.287 437.891H939.059L936.095 445.61ZM942.911 445H942.003V438.979L940.182 439.648V438.828L942.77 437.856H942.911V445ZM948.526 445H947.618V438.979L945.797 439.648V438.828L948.385 437.856H948.526V445Z" fill="#97ADC6"/>
    <path d="M30.249 144H25.5908V143.351L28.0518 140.616C28.4163 140.203 28.667 139.868 28.8037 139.61C28.9437 139.35 29.0137 139.081 29.0137 138.805C29.0137 138.434 28.9014 138.129 28.6768 137.892C28.4521 137.654 28.1527 137.535 27.7783 137.535C27.3291 137.535 26.9792 137.664 26.7285 137.921C26.4811 138.175 26.3574 138.53 26.3574 138.985H25.4541C25.4541 138.331 25.6641 137.802 26.084 137.398C26.5072 136.995 27.0719 136.793 27.7783 136.793C28.4391 136.793 28.9616 136.967 29.3457 137.315C29.7298 137.66 29.9219 138.121 29.9219 138.697C29.9219 139.397 29.4759 140.23 28.584 141.197L26.6797 143.263H30.249V144ZM31.6211 140.436L31.9824 136.891H35.625V137.726H32.749L32.5342 139.664C32.8825 139.459 33.278 139.356 33.7207 139.356C34.3685 139.356 34.8828 139.571 35.2637 140.001C35.6445 140.427 35.835 141.005 35.835 141.734C35.835 142.467 35.6364 143.045 35.2393 143.468C34.8454 143.888 34.2936 144.098 33.584 144.098C32.9557 144.098 32.443 143.924 32.0459 143.575C31.6488 143.227 31.4225 142.745 31.3672 142.13H32.2217C32.277 142.537 32.4219 142.844 32.6562 143.053C32.8906 143.258 33.1999 143.36 33.584 143.36C34.0039 143.36 34.3327 143.217 34.5703 142.931C34.8112 142.644 34.9316 142.249 34.9316 141.744C34.9316 141.269 34.8014 140.888 34.541 140.602C34.2839 140.312 33.9404 140.167 33.5107 140.167C33.1169 140.167 32.8076 140.253 32.583 140.426L32.3438 140.621L31.6211 140.436ZM41.2793 140.968C41.2793 142.026 41.0986 142.812 40.7373 143.326C40.376 143.84 39.8112 144.098 39.043 144.098C38.2845 144.098 37.723 143.847 37.3584 143.346C36.9938 142.841 36.805 142.089 36.792 141.09V139.884C36.792 138.839 36.9727 138.062 37.334 137.555C37.6953 137.047 38.2617 136.793 39.0332 136.793C39.7982 136.793 40.3613 137.039 40.7227 137.53C41.084 138.019 41.2695 138.774 41.2793 139.796V140.968ZM40.376 139.732C40.376 138.967 40.2686 138.411 40.0537 138.062C39.8389 137.711 39.4987 137.535 39.0332 137.535C38.571 137.535 38.234 137.709 38.0225 138.058C37.8109 138.406 37.7018 138.941 37.6953 139.664V141.109C37.6953 141.878 37.806 142.446 38.0273 142.813C38.252 143.178 38.5905 143.36 39.043 143.36C39.4889 143.36 39.8193 143.188 40.0342 142.843C40.2523 142.498 40.3662 141.954 40.376 141.212V139.732Z" fill="#97ADC6"/>
    <path d="M30.249 200H25.5908V199.351L28.0518 196.616C28.4163 196.203 28.667 195.868 28.8037 195.61C28.9437 195.35 29.0137 195.081 29.0137 194.805C29.0137 194.434 28.9014 194.129 28.6768 193.892C28.4521 193.654 28.1527 193.535 27.7783 193.535C27.3291 193.535 26.9792 193.664 26.7285 193.921C26.4811 194.175 26.3574 194.53 26.3574 194.985H25.4541C25.4541 194.331 25.6641 193.802 26.084 193.398C26.5072 192.995 27.0719 192.793 27.7783 192.793C28.4391 192.793 28.9616 192.967 29.3457 193.315C29.7298 193.66 29.9219 194.121 29.9219 194.697C29.9219 195.397 29.4759 196.23 28.584 197.197L26.6797 199.263H30.249V200ZM35.6641 196.968C35.6641 198.026 35.4834 198.812 35.1221 199.326C34.7607 199.84 34.196 200.098 33.4277 200.098C32.6693 200.098 32.1077 199.847 31.7432 199.346C31.3786 198.841 31.1898 198.089 31.1768 197.09V195.884C31.1768 194.839 31.3574 194.062 31.7188 193.555C32.0801 193.047 32.6465 192.793 33.418 192.793C34.1829 192.793 34.7461 193.039 35.1074 193.53C35.4688 194.019 35.6543 194.774 35.6641 195.796V196.968ZM34.7607 195.732C34.7607 194.967 34.6533 194.411 34.4385 194.062C34.2236 193.711 33.8835 193.535 33.418 193.535C32.9557 193.535 32.6188 193.709 32.4072 194.058C32.1956 194.406 32.0866 194.941 32.0801 195.664V197.109C32.0801 197.878 32.1908 198.446 32.4121 198.813C32.6367 199.178 32.9753 199.36 33.4277 199.36C33.8737 199.36 34.2041 199.188 34.4189 198.843C34.637 198.498 34.751 197.954 34.7607 197.212V195.732ZM41.2793 196.968C41.2793 198.026 41.0986 198.812 40.7373 199.326C40.376 199.84 39.8112 200.098 39.043 200.098C38.2845 200.098 37.723 199.847 37.3584 199.346C36.9938 198.841 36.805 198.089 36.792 197.09V195.884C36.792 194.839 36.9727 194.062 37.334 193.555C37.6953 193.047 38.2617 192.793 39.0332 192.793C39.7982 192.793 40.3613 193.039 40.7227 193.53C41.084 194.019 41.2695 194.774 41.2793 195.796V196.968ZM40.376 195.732C40.376 194.967 40.2686 194.411 40.0537 194.062C39.8389 193.711 39.4987 193.535 39.0332 193.535C38.571 193.535 38.234 193.709 38.0225 194.058C37.8109 194.406 37.7018 194.941 37.6953 195.664V197.109C37.6953 197.878 37.806 198.446 38.0273 198.813C38.252 199.178 38.5905 199.36 39.043 199.36C39.4889 199.36 39.8193 199.188 40.0342 198.843C40.2523 198.498 40.3662 197.954 40.376 197.212V195.732Z" fill="#97ADC6"/>
    <path d="M28.5596 256H27.6514V249.979L25.8301 250.648V249.828L28.418 248.856H28.5596V256ZM31.6211 252.436L31.9824 248.891H35.625V249.726H32.749L32.5342 251.664C32.8825 251.459 33.278 251.356 33.7207 251.356C34.3685 251.356 34.8828 251.571 35.2637 252.001C35.6445 252.427 35.835 253.005 35.835 253.734C35.835 254.467 35.6364 255.045 35.2393 255.468C34.8454 255.888 34.2936 256.098 33.584 256.098C32.9557 256.098 32.443 255.924 32.0459 255.575C31.6488 255.227 31.4225 254.745 31.3672 254.13H32.2217C32.277 254.537 32.4219 254.844 32.6562 255.053C32.8906 255.258 33.1999 255.36 33.584 255.36C34.0039 255.36 34.3327 255.217 34.5703 254.931C34.8112 254.644 34.9316 254.249 34.9316 253.744C34.9316 253.269 34.8014 252.888 34.541 252.602C34.2839 252.312 33.9404 252.167 33.5107 252.167C33.1169 252.167 32.8076 252.253 32.583 252.426L32.3438 252.621L31.6211 252.436ZM41.2793 252.968C41.2793 254.026 41.0986 254.812 40.7373 255.326C40.376 255.84 39.8112 256.098 39.043 256.098C38.2845 256.098 37.723 255.847 37.3584 255.346C36.9938 254.841 36.805 254.089 36.792 253.09V251.884C36.792 250.839 36.9727 250.062 37.334 249.555C37.6953 249.047 38.2617 248.793 39.0332 248.793C39.7982 248.793 40.3613 249.039 40.7227 249.53C41.084 250.019 41.2695 250.774 41.2793 251.796V252.968ZM40.376 251.732C40.376 250.967 40.2686 250.411 40.0537 250.062C39.8389 249.711 39.4987 249.535 39.0332 249.535C38.571 249.535 38.234 249.709 38.0225 250.058C37.8109 250.406 37.7018 250.941 37.6953 251.664V253.109C37.6953 253.878 37.806 254.446 38.0273 254.813C38.252 255.178 38.5905 255.36 39.043 255.36C39.4889 255.36 39.8193 255.188 40.0342 254.843C40.2523 254.498 40.3662 253.954 40.376 253.212V251.732Z" fill="#97ADC6"/>
    <path d="M28.5596 312H27.6514V305.979L25.8301 306.648V305.828L28.418 304.856H28.5596V312ZM35.6641 308.968C35.6641 310.026 35.4834 310.812 35.1221 311.326C34.7607 311.84 34.196 312.098 33.4277 312.098C32.6693 312.098 32.1077 311.847 31.7432 311.346C31.3786 310.841 31.1898 310.089 31.1768 309.09V307.884C31.1768 306.839 31.3574 306.062 31.7188 305.555C32.0801 305.047 32.6465 304.793 33.418 304.793C34.1829 304.793 34.7461 305.039 35.1074 305.53C35.4688 306.019 35.6543 306.774 35.6641 307.796V308.968ZM34.7607 307.732C34.7607 306.967 34.6533 306.411 34.4385 306.062C34.2236 305.711 33.8835 305.535 33.418 305.535C32.9557 305.535 32.6188 305.709 32.4072 306.058C32.1956 306.406 32.0866 306.941 32.0801 307.664V309.109C32.0801 309.878 32.1908 310.446 32.4121 310.813C32.6367 311.178 32.9753 311.36 33.4277 311.36C33.8737 311.36 34.2041 311.188 34.4189 310.843C34.637 310.498 34.751 309.954 34.7607 309.212V307.732ZM41.2793 308.968C41.2793 310.026 41.0986 310.812 40.7373 311.326C40.376 311.84 39.8112 312.098 39.043 312.098C38.2845 312.098 37.723 311.847 37.3584 311.346C36.9938 310.841 36.805 310.089 36.792 309.09V307.884C36.792 306.839 36.9727 306.062 37.334 305.555C37.6953 305.047 38.2617 304.793 39.0332 304.793C39.7982 304.793 40.3613 305.039 40.7227 305.53C41.084 306.019 41.2695 306.774 41.2793 307.796V308.968ZM40.376 307.732C40.376 306.967 40.2686 306.411 40.0537 306.062C39.8389 305.711 39.4987 305.535 39.0332 305.535C38.571 305.535 38.234 305.709 38.0225 306.058C37.8109 306.406 37.7018 306.941 37.6953 307.664V309.109C37.6953 309.878 37.806 310.446 38.0273 310.813C38.252 311.178 38.5905 311.36 39.043 311.36C39.4889 311.36 39.8193 311.188 40.0342 310.843C40.2523 310.498 40.3662 309.954 40.376 309.212V307.732Z" fill="#97ADC6"/>
    <path d="M31.0059 364.436L31.3672 360.891H35.0098V361.726H32.1338L31.9189 363.664C32.2673 363.459 32.6628 363.356 33.1055 363.356C33.7533 363.356 34.2676 363.571 34.6484 364.001C35.0293 364.427 35.2197 365.005 35.2197 365.734C35.2197 366.467 35.0212 367.045 34.624 367.468C34.2301 367.888 33.6784 368.098 32.9688 368.098C32.3405 368.098 31.8278 367.924 31.4307 367.575C31.0335 367.227 30.8073 366.745 30.752 366.13H31.6064C31.6618 366.537 31.8066 366.844 32.041 367.053C32.2754 367.258 32.5846 367.36 32.9688 367.36C33.3887 367.36 33.7174 367.217 33.9551 366.931C34.196 366.644 34.3164 366.249 34.3164 365.744C34.3164 365.269 34.1862 364.888 33.9258 364.602C33.6686 364.312 33.3252 364.167 32.8955 364.167C32.5016 364.167 32.1924 364.253 31.9678 364.426L31.7285 364.621L31.0059 364.436ZM40.6641 364.968C40.6641 366.026 40.4834 366.812 40.1221 367.326C39.7607 367.84 39.196 368.098 38.4277 368.098C37.6693 368.098 37.1077 367.847 36.7432 367.346C36.3786 366.841 36.1898 366.089 36.1768 365.09V363.884C36.1768 362.839 36.3574 362.062 36.7188 361.555C37.0801 361.047 37.6465 360.793 38.418 360.793C39.1829 360.793 39.7461 361.039 40.1074 361.53C40.4688 362.019 40.6543 362.774 40.6641 363.796V364.968ZM39.7607 363.732C39.7607 362.967 39.6533 362.411 39.4385 362.062C39.2236 361.711 38.8835 361.535 38.418 361.535C37.9557 361.535 37.6188 361.709 37.4072 362.058C37.1956 362.406 37.0866 362.941 37.0801 363.664V365.109C37.0801 365.878 37.1908 366.446 37.4121 366.813C37.6367 367.178 37.9753 367.36 38.4277 367.36C38.8737 367.36 39.2041 367.188 39.4189 366.843C39.637 366.498 39.751 365.954 39.7607 365.212V363.732Z" fill="#97ADC6"/>
    <path d="M41.0488 420.968C41.0488 422.026 40.8682 422.812 40.5068 423.326C40.1455 423.84 39.5807 424.098 38.8125 424.098C38.054 424.098 37.4925 423.847 37.1279 423.346C36.7633 422.841 36.5745 422.089 36.5615 421.09V419.884C36.5615 418.839 36.7422 418.062 37.1035 417.555C37.4648 417.047 38.0312 416.793 38.8027 416.793C39.5677 416.793 40.1309 417.039 40.4922 417.53C40.8535 418.019 41.0391 418.774 41.0488 419.796V420.968ZM40.1455 419.732C40.1455 418.967 40.0381 418.411 39.8232 418.062C39.6084 417.711 39.2682 417.535 38.8027 417.535C38.3405 417.535 38.0036 417.709 37.792 418.058C37.5804 418.406 37.4714 418.941 37.4648 419.664V421.109C37.4648 421.878 37.5755 422.446 37.7969 422.813C38.0215 423.178 38.36 423.36 38.8125 423.36C39.2585 423.36 39.5889 423.188 39.8037 422.843C40.0218 422.498 40.1357 421.954 40.1455 421.212V419.732Z" fill="#97ADC6"/>
    <path d="M28.7959 33.8804C27.7507 33.5799 26.9889 33.2118 26.5107 32.7759C26.0368 32.3358 25.7998 31.7941 25.7998 31.1509C25.7998 30.423 26.0897 29.8221 26.6694 29.3481C27.2534 28.87 28.0109 28.6309 28.9419 28.6309C29.5767 28.6309 30.1416 28.7536 30.6367 28.999C31.1361 29.2445 31.5212 29.583 31.792 30.0146C32.0671 30.4463 32.2046 30.9181 32.2046 31.4302H30.9795C30.9795 30.8716 30.8018 30.4336 30.4463 30.1162C30.0908 29.7946 29.5894 29.6338 28.9419 29.6338C28.341 29.6338 27.8713 29.7671 27.5327 30.0337C27.1984 30.2961 27.0312 30.6621 27.0312 31.1318C27.0312 31.5085 27.1899 31.828 27.5073 32.0903C27.8289 32.3485 28.3727 32.5854 29.1387 32.8013C29.9089 33.0171 30.5098 33.2562 30.9414 33.5186C31.3773 33.7767 31.6989 34.0793 31.9062 34.4263C32.1178 34.7733 32.2236 35.1816 32.2236 35.6514C32.2236 36.4004 31.9316 37.0013 31.3477 37.4541C30.7637 37.9027 29.9829 38.127 29.0054 38.127C28.3706 38.127 27.7782 38.0063 27.228 37.7651C26.6779 37.5197 26.2526 37.1854 25.9521 36.7622C25.6559 36.339 25.5078 35.8587 25.5078 35.3213H26.7329C26.7329 35.8799 26.9382 36.3221 27.3486 36.6479C27.7633 36.9696 28.3156 37.1304 29.0054 37.1304C29.6486 37.1304 30.1416 36.9992 30.4844 36.7368C30.8271 36.4744 30.9985 36.1169 30.9985 35.6641C30.9985 35.2113 30.8398 34.8621 30.5225 34.6167C30.2051 34.367 29.6296 34.1216 28.7959 33.8804ZM36.4575 38.127C35.5265 38.127 34.769 37.8223 34.1851 37.2129C33.6011 36.5993 33.3091 35.7804 33.3091 34.7563V34.5405C33.3091 33.8592 33.4382 33.252 33.6963 32.7188C33.9587 32.1813 34.3226 31.7624 34.7881 31.4619C35.2578 31.1572 35.7656 31.0049 36.3115 31.0049C37.2044 31.0049 37.8984 31.299 38.3936 31.8872C38.8887 32.4754 39.1362 33.3175 39.1362 34.4136V34.9023H34.4834C34.5003 35.5794 34.6971 36.1274 35.0737 36.5464C35.4546 36.9611 35.937 37.1685 36.521 37.1685C36.9357 37.1685 37.2869 37.0838 37.5747 36.9146C37.8625 36.7453 38.1143 36.521 38.3301 36.2417L39.0474 36.8003C38.4718 37.6847 37.6086 38.127 36.4575 38.127ZM36.3115 31.9697C35.8376 31.9697 35.4398 32.1432 35.1182 32.4902C34.7965 32.833 34.5977 33.3154 34.5215 33.9375H37.9619V33.8486C37.9281 33.252 37.7673 32.7907 37.4795 32.4648C37.1917 32.1348 36.8024 31.9697 36.3115 31.9697ZM40.2217 34.5088C40.2217 33.4382 40.4692 32.5876 40.9644 31.957C41.4595 31.3223 42.1154 31.0049 42.9321 31.0049C43.77 31.0049 44.4238 31.3011 44.8936 31.8936L44.9507 31.1318H46.0234V37.835C46.0234 38.7236 45.759 39.424 45.23 39.936C44.7052 40.4481 43.9985 40.7041 43.1099 40.7041C42.6147 40.7041 42.1302 40.5983 41.6562 40.3867C41.1823 40.1751 40.8205 39.8853 40.5708 39.5171L41.1802 38.8125C41.6838 39.4346 42.2995 39.7456 43.0273 39.7456C43.5986 39.7456 44.043 39.5848 44.3604 39.2632C44.682 38.9416 44.8428 38.4888 44.8428 37.9048V37.3145C44.373 37.8561 43.7319 38.127 42.9194 38.127C42.1154 38.127 41.4637 37.8032 40.9644 37.1558C40.4692 36.5083 40.2217 35.626 40.2217 34.5088ZM41.4023 34.6421C41.4023 35.4165 41.561 36.0259 41.8784 36.4702C42.1958 36.9103 42.6401 37.1304 43.2114 37.1304C43.952 37.1304 44.4958 36.7939 44.8428 36.1211V32.9854C44.4831 32.3294 43.9435 32.0015 43.2241 32.0015C42.6528 32.0015 42.2064 32.2236 41.8848 32.668C41.5632 33.1123 41.4023 33.7703 41.4023 34.6421ZM48.9053 31.1318L48.937 31.8936C49.4406 31.3011 50.1198 31.0049 50.9746 31.0049C51.9352 31.0049 52.589 31.373 52.936 32.1094C53.1646 31.7793 53.4608 31.5127 53.8247 31.3096C54.1929 31.1064 54.6266 31.0049 55.126 31.0049C56.6325 31.0049 57.3984 31.8026 57.4238 33.3979V38H56.2495V33.4678C56.2495 32.9769 56.1374 32.6108 55.9131 32.3696C55.6888 32.1242 55.3122 32.0015 54.7832 32.0015C54.3473 32.0015 53.9855 32.1326 53.6978 32.395C53.41 32.6532 53.2428 33.0023 53.1963 33.4424V38H52.0156V33.4995C52.0156 32.5008 51.5269 32.0015 50.5493 32.0015C49.7791 32.0015 49.2523 32.3294 48.9688 32.9854V38H47.7944V31.1318H48.9053ZM62.0513 38.127C61.1203 38.127 60.3628 37.8223 59.7788 37.2129C59.1948 36.5993 58.9028 35.7804 58.9028 34.7563V34.5405C58.9028 33.8592 59.0319 33.252 59.29 32.7188C59.5524 32.1813 59.9163 31.7624 60.3818 31.4619C60.8516 31.1572 61.3594 31.0049 61.9053 31.0049C62.7982 31.0049 63.4922 31.299 63.9873 31.8872C64.4824 32.4754 64.73 33.3175 64.73 34.4136V34.9023H60.0771C60.0941 35.5794 60.2909 36.1274 60.6675 36.5464C61.0483 36.9611 61.5308 37.1685 62.1147 37.1685C62.5295 37.1685 62.8807 37.0838 63.1685 36.9146C63.4562 36.7453 63.708 36.521 63.9238 36.2417L64.6411 36.8003C64.0656 37.6847 63.2023 38.127 62.0513 38.127ZM61.9053 31.9697C61.4313 31.9697 61.0335 32.1432 60.7119 32.4902C60.3903 32.833 60.1914 33.3154 60.1152 33.9375H63.5557V33.8486C63.5218 33.252 63.361 32.7907 63.0732 32.4648C62.7855 32.1348 62.3962 31.9697 61.9053 31.9697ZM67.2056 31.1318L67.2437 31.9951C67.7684 31.335 68.4539 31.0049 69.3003 31.0049C70.7518 31.0049 71.4839 31.8237 71.4966 33.4614V38H70.3223V33.4551C70.318 32.96 70.2038 32.5939 69.9795 32.3569C69.7594 32.12 69.4146 32.0015 68.9448 32.0015C68.564 32.0015 68.2297 32.103 67.9419 32.3062C67.6541 32.5093 67.4299 32.7759 67.269 33.106V38H66.0947V31.1318H67.2056ZM74.8608 29.4688V31.1318H76.1431V32.0396H74.8608V36.2988C74.8608 36.5739 74.918 36.7812 75.0322 36.9209C75.1465 37.0563 75.3411 37.124 75.6162 37.124C75.7516 37.124 75.9378 37.0986 76.1748 37.0479V38C75.8659 38.0846 75.5654 38.127 75.2734 38.127C74.7487 38.127 74.353 37.9683 74.0864 37.6509C73.8198 37.3335 73.6865 36.8828 73.6865 36.2988V32.0396H72.436V31.1318H73.6865V29.4688H74.8608ZM86.5596 34.6421C86.5596 35.6916 86.3184 36.5358 85.8359 37.1748C85.3535 37.8096 84.7061 38.127 83.8936 38.127C83.026 38.127 82.3553 37.8201 81.8813 37.2065L81.8242 38H80.7451V28.25H81.9194V31.8872C82.3934 31.299 83.0472 31.0049 83.8809 31.0049C84.7145 31.0049 85.3683 31.3201 85.8423 31.9507C86.3205 32.5812 86.5596 33.4445 86.5596 34.5405V34.6421ZM85.3853 34.5088C85.3853 33.709 85.2308 33.0911 84.9219 32.6553C84.613 32.2194 84.1686 32.0015 83.5889 32.0015C82.8145 32.0015 82.258 32.3612 81.9194 33.0806V36.0513C82.2791 36.7707 82.8398 37.1304 83.6016 37.1304C84.1644 37.1304 84.6024 36.9124 84.9155 36.4766C85.2287 36.0407 85.3853 35.3848 85.3853 34.5088ZM90.2158 36.2798L91.8154 31.1318H93.0723L90.311 39.0601C89.8836 40.2026 89.2044 40.7739 88.2734 40.7739L88.0513 40.7549L87.6133 40.6724V39.7202L87.9307 39.7456C88.3285 39.7456 88.6374 39.6652 88.8574 39.5044C89.0817 39.3436 89.2658 39.0495 89.4097 38.6221L89.6699 37.9238L87.2197 31.1318H88.502L90.2158 36.2798Z" fill="#181818"/>
    <path d="M283.132 36.3813L285.773 28.7578H287.106L283.678 38H282.599L279.178 28.7578H280.504L283.132 36.3813ZM289.442 38H288.268V31.1318H289.442V38ZM288.172 29.3101C288.172 29.1196 288.229 28.9588 288.344 28.8276C288.462 28.6965 288.636 28.6309 288.864 28.6309C289.093 28.6309 289.266 28.6965 289.385 28.8276C289.503 28.9588 289.562 29.1196 289.562 29.3101C289.562 29.5005 289.503 29.6592 289.385 29.7861C289.266 29.9131 289.093 29.9766 288.864 29.9766C288.636 29.9766 288.462 29.9131 288.344 29.7861C288.229 29.6592 288.172 29.5005 288.172 29.3101ZM294.177 38.127C293.246 38.127 292.489 37.8223 291.905 37.2129C291.321 36.5993 291.029 35.7804 291.029 34.7563V34.5405C291.029 33.8592 291.158 33.252 291.416 32.7188C291.678 32.1813 292.042 31.7624 292.508 31.4619C292.978 31.1572 293.485 31.0049 294.031 31.0049C294.924 31.0049 295.618 31.299 296.113 31.8872C296.608 32.4754 296.856 33.3175 296.856 34.4136V34.9023H292.203C292.22 35.5794 292.417 36.1274 292.793 36.5464C293.174 36.9611 293.657 37.1685 294.241 37.1685C294.655 37.1685 295.007 37.0838 295.294 36.9146C295.582 36.7453 295.834 36.521 296.05 36.2417L296.767 36.8003C296.192 37.6847 295.328 38.127 294.177 38.127ZM294.031 31.9697C293.557 31.9697 293.16 32.1432 292.838 32.4902C292.516 32.833 292.317 33.3154 292.241 33.9375H295.682V33.8486C295.648 33.252 295.487 32.7907 295.199 32.4648C294.911 32.1348 294.522 31.9697 294.031 31.9697ZM304.302 36.3813L305.622 31.1318H306.796L304.797 38H303.845L302.175 32.7949L300.55 38H299.598L297.605 31.1318H298.773L300.125 36.2734L301.725 31.1318H302.67L304.302 36.3813ZM317.035 34.6421C317.035 35.6916 316.794 36.5358 316.312 37.1748C315.829 37.8096 315.182 38.127 314.369 38.127C313.502 38.127 312.831 37.8201 312.357 37.2065L312.3 38H311.221V28.25H312.395V31.8872C312.869 31.299 313.523 31.0049 314.356 31.0049C315.19 31.0049 315.844 31.3201 316.318 31.9507C316.796 32.5812 317.035 33.4445 317.035 34.5405V34.6421ZM315.861 34.5088C315.861 33.709 315.706 33.0911 315.397 32.6553C315.089 32.2194 314.644 32.0015 314.064 32.0015C313.29 32.0015 312.734 32.3612 312.395 33.0806V36.0513C312.755 36.7707 313.315 37.1304 314.077 37.1304C314.64 37.1304 315.078 36.9124 315.391 36.4766C315.704 36.0407 315.861 35.3848 315.861 34.5088ZM320.691 36.2798L322.291 31.1318H323.548L320.787 39.0601C320.359 40.2026 319.68 40.7739 318.749 40.7739L318.527 40.7549L318.089 40.6724V39.7202L318.406 39.7456C318.804 39.7456 319.113 39.6652 319.333 39.5044C319.557 39.3436 319.741 39.0495 319.885 38.6221L320.146 37.9238L317.695 31.1318H318.978L320.691 36.2798Z" fill="#181818"/>
    <rect x="25" y="45" width="222" height="29" rx="8" fill="#EDF3F8"/>
    <path d="M35.7959 59.8804C34.7507 59.5799 33.9889 59.2118 33.5107 58.7759C33.0368 58.3358 32.7998 57.7941 32.7998 57.1509C32.7998 56.423 33.0897 55.8221 33.6694 55.3481C34.2534 54.87 35.0109 54.6309 35.9419 54.6309C36.5767 54.6309 37.1416 54.7536 37.6367 54.999C38.1361 55.2445 38.5212 55.583 38.792 56.0146C39.0671 56.4463 39.2046 56.9181 39.2046 57.4302H37.9795C37.9795 56.8716 37.8018 56.4336 37.4463 56.1162C37.0908 55.7946 36.5894 55.6338 35.9419 55.6338C35.341 55.6338 34.8713 55.7671 34.5327 56.0337C34.1984 56.2961 34.0312 56.6621 34.0312 57.1318C34.0312 57.5085 34.1899 57.828 34.5073 58.0903C34.8289 58.3485 35.3727 58.5854 36.1387 58.8013C36.9089 59.0171 37.5098 59.2562 37.9414 59.5186C38.3773 59.7767 38.6989 60.0793 38.9062 60.4263C39.1178 60.7733 39.2236 61.1816 39.2236 61.6514C39.2236 62.4004 38.9316 63.0013 38.3477 63.4541C37.7637 63.9027 36.9829 64.127 36.0054 64.127C35.3706 64.127 34.7782 64.0063 34.228 63.7651C33.6779 63.5197 33.2526 63.1854 32.9521 62.7622C32.6559 62.339 32.5078 61.8587 32.5078 61.3213H33.7329C33.7329 61.8799 33.9382 62.3221 34.3486 62.6479C34.7633 62.9696 35.3156 63.1304 36.0054 63.1304C36.6486 63.1304 37.1416 62.9992 37.4844 62.7368C37.8271 62.4744 37.9985 62.1169 37.9985 61.6641C37.9985 61.2113 37.8398 60.8621 37.5225 60.6167C37.2051 60.367 36.6296 60.1216 35.7959 59.8804ZM44.8477 63.3208C44.3906 63.8582 43.7199 64.127 42.8354 64.127C42.1034 64.127 41.5448 63.9154 41.1597 63.4922C40.7788 63.0648 40.5863 62.4342 40.582 61.6006V57.1318H41.7563V61.5688C41.7563 62.6099 42.1795 63.1304 43.0259 63.1304C43.923 63.1304 44.5197 62.7961 44.8159 62.1274V57.1318H45.9902V64H44.873L44.8477 63.3208ZM53.5947 60.6421C53.5947 61.6916 53.3535 62.5358 52.8711 63.1748C52.3887 63.8096 51.7412 64.127 50.9287 64.127C50.0612 64.127 49.3905 63.8201 48.9165 63.2065L48.8594 64H47.7803V54.25H48.9546V57.8872C49.4285 57.299 50.0824 57.0049 50.916 57.0049C51.7497 57.0049 52.4035 57.3201 52.8774 57.9507C53.3556 58.5812 53.5947 59.4445 53.5947 60.5405V60.6421ZM52.4204 60.5088C52.4204 59.709 52.266 59.0911 51.957 58.6553C51.6481 58.2194 51.2038 58.0015 50.624 58.0015C49.8496 58.0015 49.2931 58.3612 48.9546 59.0806V62.0513C49.3143 62.7707 49.875 63.1304 50.6367 63.1304C51.1995 63.1304 51.6375 62.9124 51.9507 62.4766C52.2638 62.0407 52.4204 61.3848 52.4204 60.5088ZM59.0791 62.1782C59.0791 61.8608 58.9585 61.6154 58.7173 61.4419C58.4803 61.2642 58.0635 61.1118 57.4668 60.9849C56.8743 60.8579 56.4025 60.7056 56.0513 60.5278C55.7043 60.3501 55.4461 60.1385 55.2769 59.8931C55.1118 59.6476 55.0293 59.3556 55.0293 59.0171C55.0293 58.4543 55.2663 57.9782 55.7402 57.5889C56.2184 57.1995 56.8278 57.0049 57.5684 57.0049C58.347 57.0049 58.9775 57.2059 59.46 57.6079C59.9466 58.0099 60.1899 58.5241 60.1899 59.1504H59.0093C59.0093 58.8288 58.8717 58.5516 58.5967 58.3188C58.3258 58.0861 57.9831 57.9697 57.5684 57.9697C57.141 57.9697 56.8066 58.0628 56.5654 58.249C56.3242 58.4352 56.2036 58.6785 56.2036 58.979C56.2036 59.2625 56.3158 59.4762 56.54 59.6201C56.7643 59.764 57.1685 59.9015 57.7524 60.0327C58.3407 60.1639 58.8167 60.3205 59.1807 60.5024C59.5446 60.6844 59.8133 60.9045 59.9868 61.1626C60.1646 61.4165 60.2534 61.7275 60.2534 62.0957C60.2534 62.7093 60.008 63.2023 59.5171 63.5747C59.0262 63.9429 58.3893 64.127 57.6064 64.127C57.0563 64.127 56.5697 64.0296 56.1465 63.835C55.7233 63.6403 55.3911 63.3695 55.1499 63.0225C54.9129 62.6712 54.7944 62.2925 54.7944 61.8862H55.9688C55.9899 62.2798 56.1465 62.5929 56.4385 62.8257C56.7347 63.0542 57.124 63.1685 57.6064 63.1685C58.0508 63.1685 58.4062 63.0796 58.6729 62.9019C58.9437 62.7199 59.0791 62.4787 59.0791 62.1782ZM64.5381 63.1685C64.957 63.1685 65.3231 63.0415 65.6362 62.7876C65.9494 62.5337 66.1229 62.2163 66.1567 61.8354H67.2676C67.2464 62.229 67.111 62.6035 66.8613 62.959C66.6117 63.3145 66.2773 63.598 65.8584 63.8096C65.4437 64.0212 65.0036 64.127 64.5381 64.127C63.6029 64.127 62.8581 63.8159 62.3037 63.1938C61.7536 62.5675 61.4785 61.7127 61.4785 60.6294V60.4326C61.4785 59.764 61.6012 59.1694 61.8467 58.6489C62.0921 58.1284 62.4434 57.7243 62.9004 57.4365C63.3617 57.1488 63.9054 57.0049 64.5317 57.0049C65.3019 57.0049 65.9409 57.2355 66.4487 57.6968C66.9608 58.158 67.2337 58.7568 67.2676 59.4932H66.1567C66.1229 59.0488 65.9536 58.6849 65.6489 58.4014C65.3485 58.1136 64.9761 57.9697 64.5317 57.9697C63.9351 57.9697 63.4717 58.1855 63.1416 58.6172C62.8158 59.0446 62.6528 59.6646 62.6528 60.4771V60.6992C62.6528 61.4906 62.8158 62.0999 63.1416 62.5273C63.4674 62.9548 63.9329 63.1685 64.5381 63.1685ZM71.9077 58.1855C71.73 58.1559 71.5374 58.1411 71.3301 58.1411C70.5599 58.1411 70.0373 58.4691 69.7622 59.125V64H68.5879V57.1318H69.7305L69.7495 57.9253C70.1346 57.3117 70.6805 57.0049 71.3872 57.0049C71.6157 57.0049 71.7892 57.0345 71.9077 57.0938V58.1855ZM74.269 64H73.0947V57.1318H74.269V64ZM72.9995 55.3101C72.9995 55.1196 73.0566 54.9588 73.1709 54.8276C73.2894 54.6965 73.4629 54.6309 73.6914 54.6309C73.9199 54.6309 74.0934 54.6965 74.2119 54.8276C74.3304 54.9588 74.3896 55.1196 74.3896 55.3101C74.3896 55.5005 74.3304 55.6592 74.2119 55.7861C74.0934 55.9131 73.9199 55.9766 73.6914 55.9766C73.4629 55.9766 73.2894 55.9131 73.1709 55.7861C73.0566 55.6592 72.9995 55.5005 72.9995 55.3101ZM81.9561 60.6421C81.9561 61.6873 81.717 62.5295 81.2388 63.1685C80.7606 63.8075 80.1131 64.127 79.2964 64.127C78.4627 64.127 77.8068 63.8625 77.3286 63.3335V66.6406H76.1543V57.1318H77.2271L77.2842 57.8936C77.7624 57.3011 78.4268 57.0049 79.2773 57.0049C80.1025 57.0049 80.7542 57.3159 81.2324 57.938C81.7148 58.5601 81.9561 59.4255 81.9561 60.5342V60.6421ZM80.7817 60.5088C80.7817 59.7344 80.6167 59.1229 80.2866 58.6743C79.9565 58.2257 79.5037 58.0015 78.9282 58.0015C78.2173 58.0015 77.6841 58.3167 77.3286 58.9473V62.229C77.6799 62.8553 78.2173 63.1685 78.9409 63.1685C79.5037 63.1685 79.9502 62.9463 80.2803 62.502C80.6146 62.0534 80.7817 61.389 80.7817 60.5088ZM85.0474 55.4688V57.1318H86.3296V58.0396H85.0474V62.2988C85.0474 62.5739 85.1045 62.7812 85.2188 62.9209C85.333 63.0563 85.5277 63.124 85.8027 63.124C85.9382 63.124 86.1243 63.0986 86.3613 63.0479V64C86.0524 64.0846 85.752 64.127 85.46 64.127C84.9352 64.127 84.5396 63.9683 84.2729 63.6509C84.0063 63.3335 83.873 62.8828 83.873 62.2988V58.0396H82.6226V57.1318H83.873V55.4688H85.0474ZM88.9829 64H87.8086V57.1318H88.9829V64ZM87.7134 55.3101C87.7134 55.1196 87.7705 54.9588 87.8848 54.8276C88.0033 54.6965 88.1768 54.6309 88.4053 54.6309C88.6338 54.6309 88.8073 54.6965 88.9258 54.8276C89.0443 54.9588 89.1035 55.1196 89.1035 55.3101C89.1035 55.5005 89.0443 55.6592 88.9258 55.7861C88.8073 55.9131 88.6338 55.9766 88.4053 55.9766C88.1768 55.9766 88.0033 55.9131 87.8848 55.7861C87.7705 55.6592 87.7134 55.5005 87.7134 55.3101ZM90.5571 60.5024C90.5571 59.8296 90.6883 59.2244 90.9507 58.687C91.2173 58.1496 91.5854 57.7349 92.0552 57.4429C92.5291 57.1509 93.0687 57.0049 93.6738 57.0049C94.609 57.0049 95.3644 57.3286 95.9399 57.9761C96.5197 58.6235 96.8096 59.4847 96.8096 60.5596V60.6421C96.8096 61.3107 96.6805 61.9116 96.4224 62.4448C96.1685 62.9738 95.8024 63.3864 95.3242 63.6826C94.8503 63.9788 94.3044 64.127 93.6865 64.127C92.7555 64.127 92.0002 63.8032 91.4204 63.1558C90.8449 62.5083 90.5571 61.6514 90.5571 60.585V60.5024ZM91.7378 60.6421C91.7378 61.4038 91.9134 62.0153 92.2646 62.4766C92.6201 62.9378 93.0941 63.1685 93.6865 63.1685C94.2832 63.1685 94.7572 62.9357 95.1084 62.4702C95.4596 62.0005 95.6353 61.3446 95.6353 60.5024C95.6353 59.7492 95.4554 59.1398 95.0957 58.6743C94.7402 58.2046 94.2663 57.9697 93.6738 57.9697C93.0941 57.9697 92.6265 58.2004 92.271 58.6616C91.9155 59.1229 91.7378 59.783 91.7378 60.6421ZM99.3931 57.1318L99.4312 57.9951C99.9559 57.335 100.641 57.0049 101.488 57.0049C102.939 57.0049 103.671 57.8237 103.684 59.4614V64H102.51V59.4551C102.506 58.96 102.391 58.5939 102.167 58.3569C101.947 58.12 101.602 58.0015 101.132 58.0015C100.751 58.0015 100.417 58.103 100.129 58.3062C99.8416 58.5093 99.6174 58.7759 99.4565 59.106V64H98.2822V57.1318H99.3931ZM114.481 60.6421C114.481 61.6873 114.242 62.5295 113.764 63.1685C113.286 63.8075 112.639 64.127 111.822 64.127C110.988 64.127 110.332 63.8625 109.854 63.3335V66.6406H108.68V57.1318H109.752L109.81 57.8936C110.288 57.3011 110.952 57.0049 111.803 57.0049C112.628 57.0049 113.28 57.3159 113.758 57.938C114.24 58.5601 114.481 59.4255 114.481 60.5342V60.6421ZM113.307 60.5088C113.307 59.7344 113.142 59.1229 112.812 58.6743C112.482 58.2257 112.029 58.0015 111.454 58.0015C110.743 58.0015 110.209 58.3167 109.854 58.9473V62.229C110.205 62.8553 110.743 63.1685 111.466 63.1685C112.029 63.1685 112.476 62.9463 112.806 62.502C113.14 62.0534 113.307 61.389 113.307 60.5088ZM119.299 58.1855C119.122 58.1559 118.929 58.1411 118.722 58.1411C117.951 58.1411 117.429 58.4691 117.154 59.125V64H115.979V57.1318H117.122L117.141 57.9253C117.526 57.3117 118.072 57.0049 118.779 57.0049C119.007 57.0049 119.181 57.0345 119.299 57.0938V58.1855ZM119.947 60.5024C119.947 59.8296 120.078 59.2244 120.34 58.687C120.607 58.1496 120.975 57.7349 121.445 57.4429C121.919 57.1509 122.458 57.0049 123.063 57.0049C123.999 57.0049 124.754 57.3286 125.33 57.9761C125.909 58.6235 126.199 59.4847 126.199 60.5596V60.6421C126.199 61.3107 126.07 61.9116 125.812 62.4448C125.558 62.9738 125.192 63.3864 124.714 63.6826C124.24 63.9788 123.694 64.127 123.076 64.127C122.145 64.127 121.39 63.8032 120.81 63.1558C120.235 62.5083 119.947 61.6514 119.947 60.585V60.5024ZM121.127 60.6421C121.127 61.4038 121.303 62.0153 121.654 62.4766C122.01 62.9378 122.484 63.1685 123.076 63.1685C123.673 63.1685 124.147 62.9357 124.498 62.4702C124.849 62.0005 125.025 61.3446 125.025 60.5024C125.025 59.7492 124.845 59.1398 124.485 58.6743C124.13 58.2046 123.656 57.9697 123.063 57.9697C122.484 57.9697 122.016 58.2004 121.661 58.6616C121.305 59.1229 121.127 59.783 121.127 60.6421ZM127.386 60.5088C127.386 59.4551 127.636 58.6087 128.135 57.9697C128.635 57.3265 129.288 57.0049 130.097 57.0049C130.901 57.0049 131.538 57.2799 132.007 57.8301V54.25H133.182V64H132.103L132.045 63.2637C131.576 63.8392 130.922 64.127 130.084 64.127C129.288 64.127 128.639 63.8011 128.135 63.1494C127.636 62.4977 127.386 61.6471 127.386 60.5977V60.5088ZM128.561 60.6421C128.561 61.4207 128.721 62.0301 129.043 62.4702C129.365 62.9103 129.809 63.1304 130.376 63.1304C131.121 63.1304 131.665 62.7961 132.007 62.1274V58.9727C131.656 58.3252 131.117 58.0015 130.389 58.0015C129.813 58.0015 129.365 58.2236 129.043 58.668C128.721 59.1123 128.561 59.7703 128.561 60.6421ZM139.25 63.3208C138.793 63.8582 138.122 64.127 137.238 64.127C136.506 64.127 135.947 63.9154 135.562 63.4922C135.181 63.0648 134.989 62.4342 134.984 61.6006V57.1318H136.159V61.5688C136.159 62.6099 136.582 63.1304 137.428 63.1304C138.325 63.1304 138.922 62.7961 139.218 62.1274V57.1318H140.393V64H139.275L139.25 63.3208ZM144.938 63.1685C145.356 63.1685 145.722 63.0415 146.036 62.7876C146.349 62.5337 146.522 62.2163 146.556 61.8354H147.667C147.646 62.229 147.51 62.6035 147.261 62.959C147.011 63.3145 146.677 63.598 146.258 63.8096C145.843 64.0212 145.403 64.127 144.938 64.127C144.002 64.127 143.257 63.8159 142.703 63.1938C142.153 62.5675 141.878 61.7127 141.878 60.6294V60.4326C141.878 59.764 142.001 59.1694 142.246 58.6489C142.492 58.1284 142.843 57.7243 143.3 57.4365C143.761 57.1488 144.305 57.0049 144.931 57.0049C145.701 57.0049 146.34 57.2355 146.848 57.6968C147.36 58.158 147.633 58.7568 147.667 59.4932H146.556C146.522 59.0488 146.353 58.6849 146.048 58.4014C145.748 58.1136 145.375 57.9697 144.931 57.9697C144.334 57.9697 143.871 58.1855 143.541 58.6172C143.215 59.0446 143.052 59.6646 143.052 60.4771V60.6992C143.052 61.4906 143.215 62.0999 143.541 62.5273C143.867 62.9548 144.332 63.1685 144.938 63.1685ZM150.581 55.4688V57.1318H151.863V58.0396H150.581V62.2988C150.581 62.5739 150.638 62.7812 150.752 62.9209C150.866 63.0563 151.061 63.124 151.336 63.124C151.471 63.124 151.658 63.0986 151.895 63.0479V64C151.586 64.0846 151.285 64.127 150.993 64.127C150.468 64.127 150.073 63.9683 149.806 63.6509C149.54 63.3335 149.406 62.8828 149.406 62.2988V58.0396H148.156V57.1318H149.406V55.4688H150.581ZM157.741 64H156.566V57.1318H157.741V64ZM156.471 55.3101C156.471 55.1196 156.528 54.9588 156.643 54.8276C156.761 54.6965 156.935 54.6309 157.163 54.6309C157.392 54.6309 157.565 54.6965 157.684 54.8276C157.802 54.9588 157.861 55.1196 157.861 55.3101C157.861 55.5005 157.802 55.6592 157.684 55.7861C157.565 55.9131 157.392 55.9766 157.163 55.9766C156.935 55.9766 156.761 55.9131 156.643 55.7861C156.528 55.6592 156.471 55.5005 156.471 55.3101ZM159.34 60.5088C159.34 59.4551 159.59 58.6087 160.089 57.9697C160.589 57.3265 161.243 57.0049 162.051 57.0049C162.855 57.0049 163.492 57.2799 163.961 57.8301V54.25H165.136V64H164.057L164 63.2637C163.53 63.8392 162.876 64.127 162.038 64.127C161.243 64.127 160.593 63.8011 160.089 63.1494C159.59 62.4977 159.34 61.6471 159.34 60.5977V60.5088ZM160.515 60.6421C160.515 61.4207 160.675 62.0301 160.997 62.4702C161.319 62.9103 161.763 63.1304 162.33 63.1304C163.075 63.1304 163.619 62.7961 163.961 62.1274V58.9727C163.61 58.3252 163.071 58.0015 162.343 58.0015C161.767 58.0015 161.319 58.2236 160.997 58.668C160.675 59.1123 160.515 59.7703 160.515 60.6421Z" fill="#181818"/>
    <g clip-path="url(#clip1)">
        <path d="M232.667 58.9451H237.333C237.521 58.9451 237.695 58.8405 237.783 58.6737C237.871 58.5065 237.859 58.3048 237.752 58.1487L235.391 54.6981C235.306 54.5746 235.166 54.5007 235.017 54.5C234.867 54.4996 234.727 54.5727 234.641 54.6958L232.249 58.1464C232.141 58.3019 232.128 58.5045 232.216 58.6723C232.304 58.8399 232.478 58.9451 232.667 58.9451Z" fill="#1788FC"/>
        <path d="M237.333 60.0549H232.667C232.478 60.0549 232.304 60.1602 232.216 60.3276C232.128 60.4955 232.141 60.6981 232.249 60.8535L234.641 64.3042C234.727 64.4273 234.867 64.5003 235.017 64.5C235.166 64.4994 235.306 64.4253 235.391 64.3019L237.752 60.8513C237.859 60.6952 237.871 60.4935 237.783 60.3263C237.695 60.1595 237.521 60.0549 237.333 60.0549Z" fill="#1788FC"/>
    </g>
    <rect x="279" y="45" width="222" height="29" rx="8" fill="#EDF3F8"/>
    <path d="M287.073 64V54.7578H289.682C290.486 54.7578 291.197 54.9355 291.814 55.291C292.432 55.6465 292.908 56.1522 293.243 56.8081C293.581 57.464 293.753 58.2173 293.757 59.0679V59.6582C293.757 60.5299 293.588 61.2938 293.249 61.9497C292.915 62.6056 292.434 63.1092 291.808 63.4604C291.186 63.8117 290.46 63.9915 289.631 64H287.073ZM288.292 55.7607V63.0034H289.574C290.513 63.0034 291.243 62.7114 291.764 62.1274C292.288 61.5435 292.551 60.7119 292.551 59.6328V59.0933C292.551 58.0438 292.303 57.2292 291.808 56.6494C291.317 56.0654 290.619 55.7692 289.713 55.7607H288.292ZM299.66 64C299.592 63.8646 299.537 63.6234 299.495 63.2764C298.949 63.8434 298.298 64.127 297.54 64.127C296.863 64.127 296.306 63.9365 295.871 63.5557C295.439 63.1706 295.223 62.6839 295.223 62.0957C295.223 61.3805 295.494 60.8262 296.036 60.4326C296.582 60.0348 297.347 59.8359 298.333 59.8359H299.476V59.2964C299.476 58.8859 299.353 58.5601 299.108 58.3188C298.862 58.0734 298.501 57.9507 298.022 57.9507C297.604 57.9507 297.252 58.0565 296.969 58.2681C296.685 58.4797 296.543 58.7357 296.543 59.0361H295.363C295.363 58.6934 295.483 58.3633 295.725 58.0459C295.97 57.7243 296.3 57.4704 296.715 57.2842C297.134 57.098 297.593 57.0049 298.092 57.0049C298.884 57.0049 299.504 57.2038 299.952 57.6016C300.401 57.9951 300.633 58.5389 300.65 59.2329V62.394C300.65 63.0246 300.731 63.526 300.892 63.8984V64H299.66ZM297.711 63.105C298.08 63.105 298.429 63.0098 298.759 62.8193C299.089 62.6289 299.328 62.3813 299.476 62.0767V60.6675H298.556C297.117 60.6675 296.397 61.0885 296.397 61.9307C296.397 62.2988 296.52 62.5866 296.766 62.7939C297.011 63.0013 297.326 63.105 297.711 63.105ZM304.637 62.2798L306.236 57.1318H307.493L304.732 65.0601C304.305 66.2026 303.625 66.7739 302.694 66.7739L302.472 66.7549L302.034 66.6724V65.7202L302.352 65.7456C302.749 65.7456 303.058 65.6652 303.278 65.5044C303.503 65.3436 303.687 65.0495 303.831 64.6221L304.091 63.9238L301.641 57.1318H302.923L304.637 62.2798Z" fill="#181818"/>
    <g clip-path="url(#clip2)">
        <path d="M486.667 58.9451H491.333C491.521 58.9451 491.695 58.8405 491.783 58.6737C491.871 58.5065 491.859 58.3048 491.752 58.1487L489.391 54.6981C489.306 54.5746 489.166 54.5007 489.017 54.5C488.867 54.4996 488.727 54.5727 488.641 54.6958L486.249 58.1464C486.141 58.3019 486.128 58.5045 486.216 58.6723C486.304 58.8399 486.478 58.9451 486.667 58.9451Z" fill="#1788FC"/>
        <path d="M491.333 60.0549H486.667C486.478 60.0549 486.304 60.1602 486.216 60.3276C486.128 60.4955 486.141 60.6981 486.249 60.8535L488.641 64.3042C488.727 64.4273 488.867 64.5003 489.017 64.5C489.166 64.4994 489.306 64.4253 489.391 64.3019L491.752 60.8513C491.859 60.6952 491.871 60.4935 491.783 60.3263C491.695 60.1595 491.521 60.0549 491.333 60.0549Z" fill="#1788FC"/>
    </g>
    <rect x="25" y="86" width="73" height="29" rx="14.5" fill="#1788FC"/>
    <path d="M41.9936 100.467L43.7338 98.7267C44.0077 98.4528 44.0079 98.0065 43.7338 97.7323C43.4596 97.4582 43.0133 97.4584 42.7394 97.7323L40.9992 99.4725L39.2591 97.7323C38.985 97.4582 38.5387 97.4584 38.2647 97.7323C37.9906 98.0065 37.9906 98.4526 38.2647 98.7267L40.0049 100.467L38.2316 102.24C37.9575 102.514 37.9575 102.96 38.2316 103.235C38.5057 103.509 38.9518 103.509 39.226 103.235L40.9992 101.461L42.7725 103.235C43.0467 103.509 43.4928 103.509 43.7669 103.235C44.0409 102.961 44.041 102.514 43.7669 102.24L41.9936 100.467Z" fill="white"/>
    <path d="M54.0659 102.086L54.2437 103.305L54.5039 102.207L56.332 95.7578H57.3604L59.144 102.207L59.3979 103.324L59.5947 102.08L61.0293 95.7578H62.2544L60.0137 105H58.9028L56.9985 98.2651L56.8525 97.5605L56.7065 98.2651L54.7324 105H53.6216L51.3872 95.7578H52.606L54.0659 102.086ZM64.603 98.9634C65.1235 98.3244 65.8006 98.0049 66.6343 98.0049C68.0858 98.0049 68.8179 98.8237 68.8306 100.461V105H67.6562V100.455C67.652 99.96 67.5378 99.5939 67.3135 99.3569C67.0934 99.12 66.7485 99.0015 66.2788 99.0015C65.8979 99.0015 65.5636 99.103 65.2759 99.3062C64.9881 99.5093 64.7638 99.7759 64.603 100.106V105H63.4287V95.25H64.603V98.9634ZM73.439 105.127C72.508 105.127 71.7505 104.822 71.1665 104.213C70.5825 103.599 70.2905 102.78 70.2905 101.756V101.541C70.2905 100.859 70.4196 100.252 70.6777 99.7188C70.9401 99.1813 71.304 98.7624 71.7695 98.4619C72.2393 98.1572 72.7471 98.0049 73.293 98.0049C74.1859 98.0049 74.8799 98.299 75.375 98.8872C75.8701 99.4754 76.1177 100.318 76.1177 101.414V101.902H71.4648C71.4818 102.579 71.6785 103.127 72.0552 103.546C72.436 103.961 72.9185 104.168 73.5024 104.168C73.9172 104.168 74.2684 104.084 74.5562 103.915C74.8439 103.745 75.0957 103.521 75.3115 103.242L76.0288 103.8C75.4533 104.685 74.59 105.127 73.439 105.127ZM73.293 98.9697C72.819 98.9697 72.4212 99.1432 72.0996 99.4902C71.778 99.833 71.5791 100.315 71.5029 100.938H74.9434V100.849C74.9095 100.252 74.7487 99.7907 74.4609 99.4648C74.1732 99.1348 73.7839 98.9697 73.293 98.9697ZM80.8022 99.1855C80.6245 99.1559 80.432 99.1411 80.2246 99.1411C79.4544 99.1411 78.9318 99.4691 78.6567 100.125V105H77.4824V98.1318H78.625L78.644 98.9253C79.0291 98.3117 79.575 98.0049 80.2817 98.0049C80.5103 98.0049 80.6838 98.0345 80.8022 98.0938V99.1855ZM84.6108 105.127C83.6799 105.127 82.9224 104.822 82.3384 104.213C81.7544 103.599 81.4624 102.78 81.4624 101.756V101.541C81.4624 100.859 81.5915 100.252 81.8496 99.7188C82.112 99.1813 82.4759 98.7624 82.9414 98.4619C83.4111 98.1572 83.9189 98.0049 84.4648 98.0049C85.3577 98.0049 86.0518 98.299 86.5469 98.8872C87.042 99.4754 87.2896 100.318 87.2896 101.414V101.902H82.6367C82.6536 102.579 82.8504 103.127 83.2271 103.546C83.6079 103.961 84.0903 104.168 84.6743 104.168C85.089 104.168 85.4403 104.084 85.728 103.915C86.0158 103.745 86.2676 103.521 86.4834 103.242L87.2007 103.8C86.6252 104.685 85.7619 105.127 84.6108 105.127ZM84.4648 98.9697C83.9909 98.9697 83.5931 99.1432 83.2715 99.4902C82.9499 99.833 82.751 100.315 82.6748 100.938H86.1152V100.849C86.0814 100.252 85.9206 99.7907 85.6328 99.4648C85.3451 99.1348 84.9557 98.9697 84.4648 98.9697Z" fill="white"/>
    <rect x="114" y="86" width="157" height="29" rx="14.5" fill="#1788FC"/>
    <g clip-path="url(#clip3)">
        <path d="M125.774 96.2408C123.444 98.5711 123.41 102.396 125.741 104.726C128.071 107.056 131.929 107.056 134.259 104.726C136.589 102.396 136.556 98.5711 134.226 96.2408C131.896 93.9105 128.104 93.9105 125.774 96.2408ZM132.734 98.7267L130.994 100.467L132.768 102.24C133.042 102.514 133.042 102.961 132.768 103.235C132.493 103.509 132.047 103.509 131.773 103.235L130 101.461L128.227 103.235C127.953 103.509 127.506 103.509 127.232 103.235C126.958 102.96 126.958 102.514 127.232 102.24L129.006 100.467L127.265 98.7267C126.991 98.4526 126.991 98.0065 127.265 97.7323C127.539 97.4584 127.986 97.4582 128.26 97.7323L130 99.4725L131.74 97.7323C132.014 97.4584 132.46 97.4582 132.734 97.7323C133.009 98.0065 133.008 98.4528 132.734 98.7267Z" fill="white"/>
    </g>
    <path d="M149.871 102.067C149.757 103.045 149.395 103.8 148.786 104.333C148.181 104.862 147.374 105.127 146.367 105.127C145.275 105.127 144.399 104.736 143.739 103.953C143.083 103.17 142.755 102.122 142.755 100.811V99.9219C142.755 99.0628 142.908 98.3075 143.212 97.6558C143.521 97.0041 143.957 96.5047 144.52 96.1577C145.083 95.8065 145.735 95.6309 146.475 95.6309C147.457 95.6309 148.244 95.9059 148.836 96.4561C149.429 97.002 149.774 97.7594 149.871 98.7285H148.646C148.54 97.9922 148.31 97.459 147.954 97.1289C147.603 96.7988 147.11 96.6338 146.475 96.6338C145.696 96.6338 145.085 96.9215 144.641 97.4971C144.201 98.0726 143.98 98.8914 143.98 99.9536V100.849C143.98 101.852 144.19 102.649 144.609 103.242C145.028 103.834 145.614 104.13 146.367 104.13C147.044 104.13 147.563 103.978 147.922 103.673C148.286 103.364 148.528 102.829 148.646 102.067H149.871ZM152.531 98.9634C153.051 98.3244 153.728 98.0049 154.562 98.0049C156.014 98.0049 156.746 98.8237 156.758 100.461V105H155.584V100.455C155.58 99.96 155.465 99.5939 155.241 99.3569C155.021 99.12 154.676 99.0015 154.207 99.0015C153.826 99.0015 153.491 99.103 153.204 99.3062C152.916 99.5093 152.692 99.7759 152.531 100.106V105H151.356V95.25H152.531V98.9634ZM162.757 105C162.689 104.865 162.634 104.623 162.592 104.276C162.046 104.843 161.394 105.127 160.637 105.127C159.96 105.127 159.403 104.937 158.967 104.556C158.536 104.171 158.32 103.684 158.32 103.096C158.32 102.381 158.591 101.826 159.132 101.433C159.678 101.035 160.444 100.836 161.43 100.836H162.573V100.296C162.573 99.8859 162.45 99.5601 162.205 99.3188C161.959 99.0734 161.597 98.9507 161.119 98.9507C160.7 98.9507 160.349 99.0565 160.065 99.2681C159.782 99.4797 159.64 99.7357 159.64 100.036H158.459C158.459 99.6934 158.58 99.3633 158.821 99.0459C159.067 98.7243 159.397 98.4704 159.812 98.2842C160.23 98.098 160.69 98.0049 161.189 98.0049C161.98 98.0049 162.6 98.2038 163.049 98.6016C163.497 98.9951 163.73 99.5389 163.747 100.233V103.394C163.747 104.025 163.827 104.526 163.988 104.898V105H162.757ZM160.808 104.105C161.176 104.105 161.525 104.01 161.855 103.819C162.186 103.629 162.425 103.381 162.573 103.077V101.667H161.652C160.214 101.667 159.494 102.089 159.494 102.931C159.494 103.299 159.617 103.587 159.862 103.794C160.108 104.001 160.423 104.105 160.808 104.105ZM166.699 98.1318L166.737 98.9951C167.262 98.335 167.947 98.0049 168.793 98.0049C170.245 98.0049 170.977 98.8237 170.99 100.461V105H169.815V100.455C169.811 99.96 169.697 99.5939 169.473 99.3569C169.253 99.12 168.908 99.0015 168.438 99.0015C168.057 99.0015 167.723 99.103 167.435 99.3062C167.147 99.5093 166.923 99.7759 166.762 100.106V105H165.588V98.1318H166.699ZM173.872 98.1318L173.91 98.9951C174.434 98.335 175.12 98.0049 175.966 98.0049C177.418 98.0049 178.15 98.8237 178.163 100.461V105H176.988V100.455C176.984 99.96 176.87 99.5939 176.646 99.3569C176.425 99.12 176.081 99.0015 175.611 99.0015C175.23 99.0015 174.896 99.103 174.608 99.3062C174.32 99.5093 174.096 99.7759 173.935 100.106V105H172.761V98.1318H173.872ZM182.784 105.127C181.853 105.127 181.095 104.822 180.511 104.213C179.927 103.599 179.635 102.78 179.635 101.756V101.541C179.635 100.859 179.764 100.252 180.022 99.7188C180.285 99.1813 180.649 98.7624 181.114 98.4619C181.584 98.1572 182.092 98.0049 182.638 98.0049C183.531 98.0049 184.225 98.299 184.72 98.8872C185.215 99.4754 185.462 100.318 185.462 101.414V101.902H180.81C180.826 102.579 181.023 103.127 181.4 103.546C181.781 103.961 182.263 104.168 182.847 104.168C183.262 104.168 183.613 104.084 183.901 103.915C184.189 103.745 184.44 103.521 184.656 103.242L185.374 103.8C184.798 104.685 183.935 105.127 182.784 105.127ZM182.638 98.9697C182.164 98.9697 181.766 99.1432 181.444 99.4902C181.123 99.833 180.924 100.315 180.848 100.938H184.288V100.849C184.254 100.252 184.093 99.7907 183.806 99.4648C183.518 99.1348 183.129 98.9697 182.638 98.9697ZM188.103 105H186.929V95.25H188.103V105ZM195.358 99.833H190.064V98.811H195.358V99.833ZM195.358 102.467H190.064V101.452H195.358V102.467ZM203.693 96.7607H200.722V105H199.51V96.7607H196.545V95.7578H203.693V96.7607ZM206.156 105H204.981V98.1318H206.156V105ZM204.886 96.3101C204.886 96.1196 204.943 95.9588 205.058 95.8276C205.176 95.6965 205.35 95.6309 205.578 95.6309C205.807 95.6309 205.98 95.6965 206.099 95.8276C206.217 95.9588 206.276 96.1196 206.276 96.3101C206.276 96.5005 206.217 96.6592 206.099 96.7861C205.98 96.9131 205.807 96.9766 205.578 96.9766C205.35 96.9766 205.176 96.9131 205.058 96.7861C204.943 96.6592 204.886 96.5005 204.886 96.3101ZM209.958 101.82L209.222 102.588V105H208.047V95.25H209.222V101.147L209.85 100.392L211.989 98.1318H213.417L210.745 101.001L213.729 105H212.351L209.958 101.82ZM221.2 96.7607H218.229V105H217.017V96.7607H214.052V95.7578H221.2V96.7607ZM221.441 101.502C221.441 100.83 221.572 100.224 221.834 99.687C222.101 99.1496 222.469 98.7349 222.939 98.4429C223.413 98.1509 223.952 98.0049 224.558 98.0049C225.493 98.0049 226.248 98.3286 226.824 98.9761C227.403 99.6235 227.693 100.485 227.693 101.56V101.642C227.693 102.311 227.564 102.912 227.306 103.445C227.052 103.974 226.686 104.386 226.208 104.683C225.734 104.979 225.188 105.127 224.57 105.127C223.639 105.127 222.884 104.803 222.304 104.156C221.729 103.508 221.441 102.651 221.441 101.585V101.502ZM222.622 101.642C222.622 102.404 222.797 103.015 223.148 103.477C223.504 103.938 223.978 104.168 224.57 104.168C225.167 104.168 225.641 103.936 225.992 103.47C226.343 103 226.519 102.345 226.519 101.502C226.519 100.749 226.339 100.14 225.979 99.6743C225.624 99.2046 225.15 98.9697 224.558 98.9697C223.978 98.9697 223.51 99.2004 223.155 99.6616C222.799 100.123 222.622 100.783 222.622 101.642ZM231.083 101.82L230.347 102.588V105H229.172V95.25H230.347V101.147L230.975 100.392L233.114 98.1318H234.542L231.87 101.001L234.854 105H233.476L231.083 101.82ZM244.267 102.588H240.395L239.525 105H238.269L241.798 95.7578H242.864L246.4 105H245.149L244.267 102.588ZM240.763 101.585H243.905L242.331 97.2622L240.763 101.585ZM247.174 101.509C247.174 100.455 247.424 99.6087 247.923 98.9697C248.423 98.3265 249.076 98.0049 249.885 98.0049C250.689 98.0049 251.326 98.2799 251.795 98.8301V95.25H252.97V105H251.891L251.833 104.264C251.364 104.839 250.71 105.127 249.872 105.127C249.076 105.127 248.427 104.801 247.923 104.149C247.424 103.498 247.174 102.647 247.174 101.598V101.509ZM248.349 101.642C248.349 102.421 248.509 103.03 248.831 103.47C249.153 103.91 249.597 104.13 250.164 104.13C250.909 104.13 251.453 103.796 251.795 103.127V99.9727C251.444 99.3252 250.905 99.0015 250.177 99.0015C249.601 99.0015 249.153 99.2236 248.831 99.668C248.509 100.112 248.349 100.77 248.349 101.642ZM258.797 103.178C258.797 102.861 258.676 102.615 258.435 102.442C258.198 102.264 257.781 102.112 257.185 101.985C256.592 101.858 256.12 101.706 255.769 101.528C255.422 101.35 255.164 101.139 254.995 100.893C254.83 100.648 254.747 100.356 254.747 100.017C254.747 99.4543 254.984 98.9782 255.458 98.5889C255.936 98.1995 256.546 98.0049 257.286 98.0049C258.065 98.0049 258.695 98.2059 259.178 98.6079C259.664 99.0099 259.908 99.5241 259.908 100.15H258.727C258.727 99.8288 258.59 99.5516 258.314 99.3188C258.044 99.0861 257.701 98.9697 257.286 98.9697C256.859 98.9697 256.524 99.0628 256.283 99.249C256.042 99.4352 255.921 99.6785 255.921 99.979C255.921 100.263 256.034 100.476 256.258 100.62C256.482 100.764 256.886 100.902 257.47 101.033C258.058 101.164 258.535 101.32 258.898 101.502C259.262 101.684 259.531 101.904 259.705 102.163C259.882 102.417 259.971 102.728 259.971 103.096C259.971 103.709 259.726 104.202 259.235 104.575C258.744 104.943 258.107 105.127 257.324 105.127C256.774 105.127 256.287 105.03 255.864 104.835C255.441 104.64 255.109 104.369 254.868 104.022C254.631 103.671 254.512 103.292 254.512 102.886H255.687C255.708 103.28 255.864 103.593 256.156 103.826C256.452 104.054 256.842 104.168 257.324 104.168C257.769 104.168 258.124 104.08 258.391 103.902C258.661 103.72 258.797 103.479 258.797 103.178Z" fill="white"/>
</g>
<defs>
    <clipPath id="clip0">
        <rect width="1008" height="476" rx="12" fill="white"/>
    </clipPath>
    <clipPath id="clip1">
        <rect width="10" height="10" fill="white" transform="translate(230 54.5)"/>
    </clipPath>
    <clipPath id="clip2">
        <rect width="10" height="10" fill="white" transform="translate(484 54.5)"/>
    </clipPath>
    <clipPath id="clip3">
        <rect width="12" height="12" fill="white" transform="translate(124 106.5) rotate(-90)"/>
    </clipPath>
</defs>
</svg>
