<svg width="488" height="360" viewBox="0 0 488 360" fill="none" xmlns="http://www.w3.org/2000/svg">
<style></style>
<g clip-path="url(#clip0)">
    <path d="M290.2 56H81.03C72.0895 55.9973 63.5136 59.5444 57.187 65.8616C50.8604 72.1788 47.3006 80.7494 47.29 89.69V379.82H56.82V87.69C56.8227 84.776 57.3992 81.891 58.5168 79.1998C59.6344 76.5086 61.2711 74.0638 63.3335 72.0052C65.3959 69.9465 67.8435 68.3142 70.5368 67.2015C73.23 66.0887 76.116 65.5174 79.03 65.52H111.03C111.95 65.5226 112.831 65.8891 113.481 66.5393C114.131 67.1894 114.497 68.0705 114.5 68.99V80.89C114.505 85.2025 116.222 89.3368 119.272 92.3852C122.322 95.4337 126.458 97.1474 130.77 97.15H239.61C243.923 97.1474 248.058 95.4337 251.108 92.3852C254.159 89.3368 255.875 85.2025 255.88 80.89V68.99C255.88 68.0714 256.244 67.1903 256.893 66.5399C257.541 65.8894 258.421 65.5226 259.34 65.52H292.2C298.077 65.5279 303.712 67.8662 307.868 72.0222C312.024 76.1782 314.362 81.8126 314.37 87.69V379.82H323.89V89.69C323.882 80.7573 320.33 72.1927 314.014 65.8763C307.697 59.56 299.133 56.0079 290.2 56ZM212.38 81.38H158.8C156.896 81.3098 155.094 80.5042 153.772 79.1325C152.45 77.7608 151.711 75.93 151.711 74.025C151.711 72.12 152.45 70.2892 153.772 68.9175C155.094 67.5458 156.896 66.7402 158.8 66.67H212.38C213.369 66.6335 214.355 66.7968 215.279 67.15C216.203 67.5032 217.046 68.0391 217.759 68.7257C218.471 69.4122 219.038 70.2354 219.425 71.1459C219.812 72.0564 220.011 73.0356 220.011 74.025C220.011 75.0144 219.812 75.9936 219.425 76.9041C219.038 77.8146 218.471 78.6378 217.759 79.3243C217.046 80.0109 216.203 80.5468 215.279 80.9C214.355 81.2532 213.369 81.4165 212.38 81.38Z" fill="white"/>
    <path d="M47.29 89.69C47.3006 80.7494 50.8604 72.1788 57.187 65.8616C63.5136 59.5444 72.0895 55.9973 81.03 56H290.2C299.133 56.0079 307.697 59.56 314.014 65.8763C320.33 72.1927 323.882 80.7573 323.89 89.69V379.82H326.89V89.69C326.879 79.9625 323.01 70.6364 316.132 63.7579C309.254 56.8795 299.928 53.0106 290.2 53H81.03C71.2938 52.9973 61.9549 56.8604 55.0657 63.7403C48.1765 70.6201 44.3006 79.9538 44.29 89.69V379.82H47.29V89.69Z" fill="#181818"/>
    <path d="M292.2 68.52H259.34C259.217 68.5226 259.1 68.5733 259.014 68.6611C258.928 68.749 258.88 68.8671 258.88 68.99V80.89C258.875 85.9982 256.842 90.8955 253.229 94.5066C249.616 98.1176 244.718 100.147 239.61 100.15H130.8C125.692 100.147 120.793 98.1176 117.18 94.5066C113.567 90.8955 111.535 85.9982 111.53 80.89V68.99C111.53 68.8653 111.48 68.7458 111.392 68.6577C111.304 68.5695 111.184 68.52 111.06 68.52H79.0298C76.5098 68.5174 74.0138 69.0111 71.6846 69.9731C69.3554 70.9351 67.2384 72.3464 65.4546 74.1265C63.6708 75.9066 62.255 78.0206 61.2882 80.3478C60.3214 82.6751 59.8224 85.1699 59.8198 87.69V379.82H311.37V87.69C311.365 82.6074 309.343 77.7345 305.749 74.1406C302.155 70.5467 297.282 68.5253 292.2 68.52Z" fill="#F8FBFF"/>
    <path d="M292.2 65.52H259.34C258.421 65.5226 257.541 65.8894 256.893 66.5399C256.244 67.1903 255.88 68.0714 255.88 68.99V80.89C255.875 85.2025 254.158 89.3368 251.108 92.3852C248.058 95.4337 243.922 97.1474 239.61 97.15H130.8C126.487 97.1474 122.352 95.4337 119.302 92.3852C116.251 89.3368 114.535 85.2025 114.53 80.89V68.99C114.529 68.5322 114.437 68.0791 114.26 67.6567C114.083 67.2343 113.825 66.851 113.5 66.5286C113.175 66.2063 112.789 65.9513 112.365 65.7782C111.942 65.6051 111.488 65.5174 111.03 65.52H79.0298C76.1158 65.5174 73.2298 66.0887 70.5366 67.2015C67.8433 68.3142 65.3957 69.9465 63.3333 72.0052C61.2709 74.0638 59.6342 76.5086 58.5166 79.1998C57.399 81.891 56.8224 84.776 56.8198 87.69V379.82H59.8198V87.69C59.8224 85.1699 60.3214 82.6751 61.2882 80.3478C62.255 78.0206 63.6708 75.9066 65.4546 74.1265C67.2384 72.3464 69.3554 70.9351 71.6846 69.9731C74.0138 69.0111 76.5098 68.5174 79.0298 68.52H111.03C111.154 68.52 111.274 68.5695 111.362 68.6577C111.45 68.7458 111.5 68.8653 111.5 68.99V80.89C111.505 85.9982 113.537 90.8955 117.15 94.5066C120.763 98.1176 125.662 100.147 130.77 100.15H239.61C244.718 100.147 249.616 98.1176 253.229 94.5066C256.842 90.8955 258.875 85.9982 258.88 80.89V68.99C258.88 68.8671 258.928 68.749 259.014 68.6611C259.1 68.5733 259.217 68.5226 259.34 68.52H292.2C297.282 68.5253 302.155 70.5467 305.749 74.1406C309.343 77.7345 311.365 82.6074 311.37 87.69V379.82H314.37V87.69C314.362 81.8126 312.024 76.1782 307.868 72.0222C303.712 67.8662 298.077 65.5279 292.2 65.52Z" fill="#181818"/>
    <path d="M212.38 69.67H158.8C157.681 69.7236 156.626 70.2059 155.853 71.0167C155.08 71.8276 154.649 72.9048 154.649 74.025C154.649 75.1452 155.08 76.2224 155.853 77.0333C156.626 77.8441 157.681 78.3264 158.8 78.38H212.38C212.97 78.4083 213.559 78.3166 214.112 78.1104C214.665 77.9043 215.17 77.5881 215.597 77.1809C216.024 76.7737 216.364 76.2841 216.597 75.7416C216.829 75.1991 216.949 74.6151 216.949 74.025C216.949 73.4349 216.829 72.8509 216.597 72.3084C216.364 71.7659 216.024 71.2763 215.597 70.8691C215.17 70.4619 214.665 70.1457 214.112 69.9396C213.559 69.7335 212.97 69.6417 212.38 69.67Z" fill="#EDF3FF"/>
    <path d="M212.38 66.67H158.8C156.896 66.7402 155.094 67.5458 153.772 68.9175C152.45 70.2892 151.711 72.12 151.711 74.025C151.711 75.93 152.45 77.7608 153.772 79.1325C155.094 80.5042 156.896 81.3098 158.8 81.38H212.38C213.369 81.4165 214.355 81.2532 215.279 80.9C216.203 80.5468 217.047 80.0109 217.759 79.3243C218.471 78.6378 219.038 77.8146 219.425 76.9041C219.812 75.9936 220.011 75.0144 220.011 74.025C220.011 73.0356 219.812 72.0564 219.425 71.1459C219.038 70.2354 218.471 69.4122 217.759 68.7257C217.047 68.0391 216.203 67.5032 215.279 67.15C214.355 66.7968 213.369 66.6335 212.38 66.67ZM212.38 78.38H158.8C157.681 78.3264 156.626 77.8441 155.853 77.0333C155.08 76.2224 154.649 75.1452 154.649 74.025C154.649 72.9048 155.08 71.8276 155.853 71.0167C156.626 70.2059 157.681 69.7236 158.8 69.67H212.38C212.97 69.6417 213.559 69.7335 214.112 69.9396C214.665 70.1457 215.17 70.4619 215.597 70.8691C216.024 71.2763 216.364 71.7659 216.597 72.3084C216.829 72.8509 216.949 73.4349 216.949 74.025C216.949 74.6151 216.829 75.1991 216.597 75.7416C216.364 76.2841 216.024 76.7737 215.597 77.1809C215.17 77.5881 214.665 77.9043 214.112 78.1104C213.559 78.3166 212.97 78.4083 212.38 78.38Z" fill="#181818"/>
</g>
<rect x="141" y="290" width="97" height="34" rx="12" fill="#97ADC6"/>
<path d="M159.178 306.928C159.178 307.768 159.029 308.504 158.732 309.137C158.436 309.77 158.01 310.258 157.455 310.602C156.904 310.945 156.271 311.117 155.557 311.117C154.85 311.117 154.219 310.947 153.664 310.607C153.109 310.268 152.68 309.783 152.375 309.154C152.07 308.521 151.916 307.795 151.912 306.975V306.553C151.912 305.713 152.062 304.975 152.363 304.338C152.668 303.697 153.096 303.207 153.646 302.867C154.201 302.523 154.834 302.352 155.545 302.352C156.256 302.352 156.887 302.523 157.438 302.867C157.992 303.207 158.42 303.697 158.721 304.338C159.025 304.975 159.178 305.711 159.178 306.547V306.928ZM157.396 306.541C157.396 305.646 157.236 304.967 156.916 304.502C156.596 304.037 156.139 303.805 155.545 303.805C154.955 303.805 154.5 304.035 154.18 304.496C153.859 304.953 153.697 305.625 153.693 306.512V306.928C153.693 307.799 153.854 308.475 154.174 308.955C154.494 309.436 154.955 309.676 155.557 309.676C156.146 309.676 156.6 309.445 156.916 308.984C157.232 308.52 157.393 307.844 157.396 306.957V306.541ZM166.051 307.889C166.051 308.865 165.828 309.648 165.383 310.238C164.941 310.824 164.344 311.117 163.59 311.117C162.949 311.117 162.432 310.895 162.037 310.449V313.438H160.344V304.66H161.914L161.973 305.281C162.383 304.789 162.918 304.543 163.578 304.543C164.359 304.543 164.967 304.832 165.4 305.41C165.834 305.988 166.051 306.785 166.051 307.801V307.889ZM164.357 307.766C164.357 307.176 164.252 306.721 164.041 306.4C163.834 306.08 163.531 305.92 163.133 305.92C162.602 305.92 162.236 306.123 162.037 306.529V309.125C162.244 309.543 162.613 309.752 163.145 309.752C163.953 309.752 164.357 309.09 164.357 307.766ZM170.023 311.117C169.094 311.117 168.336 310.832 167.75 310.262C167.168 309.691 166.877 308.932 166.877 307.982V307.818C166.877 307.182 167 306.613 167.246 306.113C167.492 305.609 167.84 305.223 168.289 304.953C168.742 304.68 169.258 304.543 169.836 304.543C170.703 304.543 171.385 304.816 171.881 305.363C172.381 305.91 172.631 306.686 172.631 307.689V308.381H168.594C168.648 308.795 168.812 309.127 169.086 309.377C169.363 309.627 169.713 309.752 170.135 309.752C170.787 309.752 171.297 309.516 171.664 309.043L172.496 309.975C172.242 310.334 171.898 310.615 171.465 310.818C171.031 311.018 170.551 311.117 170.023 311.117ZM169.83 305.914C169.494 305.914 169.221 306.027 169.01 306.254C168.803 306.48 168.67 306.805 168.611 307.227H170.967V307.092C170.959 306.717 170.857 306.428 170.662 306.225C170.467 306.018 170.189 305.914 169.83 305.914ZM175.156 304.66L175.209 305.393C175.662 304.826 176.27 304.543 177.031 304.543C177.703 304.543 178.203 304.74 178.531 305.135C178.859 305.529 179.027 306.119 179.035 306.904V311H177.342V306.945C177.342 306.586 177.264 306.326 177.107 306.166C176.951 306.002 176.691 305.92 176.328 305.92C175.852 305.92 175.494 306.123 175.256 306.529V311H173.562V304.66H175.156ZM187.848 308.762C187.848 308.43 187.73 308.176 187.496 308C187.262 307.82 186.84 307.633 186.23 307.438C185.621 307.238 185.139 307.043 184.783 306.852C183.814 306.328 183.33 305.623 183.33 304.736C183.33 304.275 183.459 303.865 183.717 303.506C183.979 303.143 184.352 302.859 184.836 302.656C185.324 302.453 185.871 302.352 186.477 302.352C187.086 302.352 187.629 302.463 188.105 302.686C188.582 302.904 188.951 303.215 189.213 303.617C189.479 304.02 189.611 304.477 189.611 304.988H187.854C187.854 304.598 187.73 304.295 187.484 304.08C187.238 303.861 186.893 303.752 186.447 303.752C186.018 303.752 185.684 303.844 185.445 304.027C185.207 304.207 185.088 304.445 185.088 304.742C185.088 305.02 185.227 305.252 185.504 305.439C185.785 305.627 186.197 305.803 186.74 305.967C187.74 306.268 188.469 306.641 188.926 307.086C189.383 307.531 189.611 308.086 189.611 308.75C189.611 309.488 189.332 310.068 188.773 310.49C188.215 310.908 187.463 311.117 186.518 311.117C185.861 311.117 185.264 310.998 184.725 310.76C184.186 310.518 183.773 310.188 183.488 309.77C183.207 309.352 183.066 308.867 183.066 308.316H184.83C184.83 309.258 185.393 309.729 186.518 309.729C186.936 309.729 187.262 309.645 187.496 309.477C187.73 309.305 187.848 309.066 187.848 308.762ZM193.613 311.117C192.684 311.117 191.926 310.832 191.34 310.262C190.758 309.691 190.467 308.932 190.467 307.982V307.818C190.467 307.182 190.59 306.613 190.836 306.113C191.082 305.609 191.43 305.223 191.879 304.953C192.332 304.68 192.848 304.543 193.426 304.543C194.293 304.543 194.975 304.816 195.471 305.363C195.971 305.91 196.221 306.686 196.221 307.689V308.381H192.184C192.238 308.795 192.402 309.127 192.676 309.377C192.953 309.627 193.303 309.752 193.725 309.752C194.377 309.752 194.887 309.516 195.254 309.043L196.086 309.975C195.832 310.334 195.488 310.615 195.055 310.818C194.621 311.018 194.141 311.117 193.613 311.117ZM193.42 305.914C193.084 305.914 192.811 306.027 192.6 306.254C192.393 306.48 192.26 306.805 192.201 307.227H194.557V307.092C194.549 306.717 194.447 306.428 194.252 306.225C194.057 306.018 193.779 305.914 193.42 305.914ZM199.215 303.102V304.66H200.299V305.902H199.215V309.066C199.215 309.301 199.26 309.469 199.35 309.57C199.439 309.672 199.611 309.723 199.865 309.723C200.053 309.723 200.219 309.709 200.363 309.682V310.965C200.031 311.066 199.689 311.117 199.338 311.117C198.15 311.117 197.545 310.518 197.521 309.318V305.902H196.596V304.66H197.521V303.102H199.215ZM203.27 303.102V304.66H204.354V305.902H203.27V309.066C203.27 309.301 203.314 309.469 203.404 309.57C203.494 309.672 203.666 309.723 203.92 309.723C204.107 309.723 204.273 309.709 204.418 309.682V310.965C204.086 311.066 203.744 311.117 203.393 311.117C202.205 311.117 201.6 310.518 201.576 309.318V305.902H200.65V304.66H201.576V303.102H203.27ZM207.084 311H205.385V304.66H207.084V311ZM205.285 303.02C205.285 302.766 205.369 302.557 205.537 302.393C205.709 302.229 205.941 302.146 206.234 302.146C206.523 302.146 206.754 302.229 206.926 302.393C207.098 302.557 207.184 302.766 207.184 303.02C207.184 303.277 207.096 303.488 206.92 303.652C206.748 303.816 206.52 303.898 206.234 303.898C205.949 303.898 205.719 303.816 205.543 303.652C205.371 303.488 205.285 303.277 205.285 303.02ZM210.043 304.66L210.096 305.393C210.549 304.826 211.156 304.543 211.918 304.543C212.59 304.543 213.09 304.74 213.418 305.135C213.746 305.529 213.914 306.119 213.922 306.904V311H212.229V306.945C212.229 306.586 212.15 306.326 211.994 306.166C211.838 306.002 211.578 305.92 211.215 305.92C210.738 305.92 210.381 306.123 210.143 306.529V311H208.449V304.66H210.043ZM214.965 307.783C214.965 306.811 215.195 306.027 215.656 305.434C216.121 304.84 216.746 304.543 217.531 304.543C218.227 304.543 218.768 304.781 219.154 305.258L219.225 304.66H220.76V310.789C220.76 311.344 220.633 311.826 220.379 312.236C220.129 312.646 219.775 312.959 219.318 313.174C218.861 313.389 218.326 313.496 217.713 313.496C217.248 313.496 216.795 313.402 216.354 313.215C215.912 313.031 215.578 312.793 215.352 312.5L216.102 311.469C216.523 311.941 217.035 312.178 217.637 312.178C218.086 312.178 218.436 312.057 218.686 311.814C218.936 311.576 219.061 311.236 219.061 310.795V310.455C218.67 310.896 218.156 311.117 217.52 311.117C216.758 311.117 216.141 310.82 215.668 310.227C215.199 309.629 214.965 308.838 214.965 307.854V307.783ZM216.658 307.906C216.658 308.48 216.773 308.932 217.004 309.26C217.234 309.584 217.551 309.746 217.953 309.746C218.469 309.746 218.838 309.553 219.061 309.166V306.5C218.834 306.113 218.469 305.92 217.965 305.92C217.559 305.92 217.238 306.086 217.004 306.418C216.773 306.75 216.658 307.246 216.658 307.906ZM225.5 309.248C225.5 309.041 225.396 308.879 225.189 308.762C224.986 308.641 224.658 308.533 224.205 308.439C222.697 308.123 221.943 307.482 221.943 306.518C221.943 305.955 222.176 305.486 222.641 305.111C223.109 304.732 223.721 304.543 224.475 304.543C225.279 304.543 225.922 304.732 226.402 305.111C226.887 305.49 227.129 305.982 227.129 306.588H225.436C225.436 306.346 225.357 306.146 225.201 305.99C225.045 305.83 224.801 305.75 224.469 305.75C224.184 305.75 223.963 305.814 223.807 305.943C223.65 306.072 223.572 306.236 223.572 306.436C223.572 306.623 223.66 306.775 223.836 306.893C224.016 307.006 224.316 307.105 224.738 307.191C225.16 307.273 225.516 307.367 225.805 307.473C226.699 307.801 227.146 308.369 227.146 309.178C227.146 309.756 226.898 310.225 226.402 310.584C225.906 310.939 225.266 311.117 224.48 311.117C223.949 311.117 223.477 311.023 223.062 310.836C222.652 310.645 222.33 310.385 222.096 310.057C221.861 309.725 221.744 309.367 221.744 308.984H223.35C223.365 309.285 223.477 309.516 223.684 309.676C223.891 309.836 224.168 309.916 224.516 309.916C224.84 309.916 225.084 309.855 225.248 309.734C225.416 309.609 225.5 309.447 225.5 309.248Z" fill="white"/>
<path d="M182.575 183.969L181.913 182.313C181.333 180.88 176.404 168.232 180.637 163.37C182.211 161.572 184.696 161.092 188.025 161.937C191.016 162.699 192.805 164.198 193.351 166.393C194.892 172.589 185.027 181.741 183.892 182.768L182.575 183.969ZM185.118 164.024C184.638 163.989 184.155 164.059 183.705 164.229C183.254 164.399 182.846 164.666 182.509 165.01C180.339 167.495 181.83 174.684 183.561 179.654C186.742 176.473 191.844 170.485 190.941 166.998C190.626 165.747 189.475 164.877 187.412 164.355C186.658 164.152 185.882 164.04 185.101 164.024H185.118Z" fill="#181818"/>
<path d="M168.163 187.2C165.852 187.2 163.74 186.744 162.307 185.494C160.509 183.928 160.029 181.443 160.874 178.113C161.636 175.123 163.135 173.334 165.322 172.787C171.526 171.247 180.678 181.07 181.706 182.238L182.898 183.564L181.242 184.226C180.239 184.632 173.655 187.2 168.163 187.2ZM166.771 175.098C166.492 175.098 166.214 175.132 165.943 175.198C164.684 175.513 163.823 176.664 163.301 178.726C162.704 181.07 162.92 182.719 163.955 183.622C166.44 185.8 173.63 184.301 178.599 182.57C175.642 179.637 170.325 175.098 166.771 175.098Z" fill="#181818"/>
<path d="M163.708 205.303L210.266 205.214L210.313 230.062C210.315 230.807 210.02 231.522 209.495 232.049C208.969 232.577 208.256 232.874 207.511 232.876L166.585 232.954C165.84 232.956 165.126 232.661 164.598 232.136C164.07 231.61 163.773 230.896 163.772 230.152L163.724 205.303L163.708 205.303Z" fill="white"/>
<rect x="191.025" y="206.095" width="26.5291" height="7" transform="rotate(90.7786 191.025 206.095)" fill="#181818"/>
<path d="M166.365 234.205C165.834 234.206 165.307 234.103 164.816 233.9C164.325 233.697 163.878 233.4 163.502 233.024C163.126 232.649 162.827 232.203 162.624 231.712C162.42 231.221 162.315 230.695 162.315 230.163L162.265 204.064L211.309 203.973L211.358 230.072C211.358 231.146 210.933 232.176 210.175 232.936C209.418 233.697 208.39 234.126 207.316 234.131L166.374 234.205H166.365ZM164.759 206.549V230.155C164.759 230.361 164.799 230.566 164.878 230.756C164.958 230.947 165.074 231.119 165.22 231.265C165.366 231.41 165.54 231.526 165.731 231.604C165.922 231.682 166.126 231.722 166.332 231.721L207.267 231.646C207.473 231.646 207.677 231.605 207.868 231.526C208.058 231.447 208.231 231.331 208.376 231.185C208.522 231.038 208.637 230.865 208.715 230.674C208.793 230.483 208.833 230.278 208.832 230.072L208.791 206.466L164.759 206.549Z" fill="#181818"/>
<path d="M206.594 177.139L162.726 200.248L160.576 196.166C160.229 195.507 160.158 194.737 160.378 194.026C160.599 193.315 161.093 192.72 161.752 192.373L200.643 171.885C201.302 171.538 202.072 171.467 202.783 171.688C203.494 171.908 204.089 172.402 204.436 173.061L206.586 177.143L206.594 177.139Z" fill="white"/>
<rect x="184.924" y="181" width="6.44567" height="7" transform="rotate(62.6325 184.924 181)" fill="#181818"/>
<path d="M162.199 201.927L159.474 196.742C158.971 195.795 158.864 194.688 159.174 193.663C159.484 192.637 160.188 191.776 161.131 191.267L200.06 170.783C200.529 170.532 201.042 170.376 201.57 170.323C202.099 170.27 202.633 170.322 203.141 170.476C203.65 170.63 204.123 170.883 204.534 171.22C204.945 171.557 205.285 171.971 205.535 172.44L208.261 177.616L162.199 201.927ZM201.957 172.796C201.703 172.797 201.453 172.86 201.228 172.978L162.299 193.47C161.93 193.664 161.653 193.996 161.529 194.393C161.405 194.791 161.443 195.221 161.636 195.59L163.21 198.564L204.939 176.614L203.374 173.632C203.184 173.257 202.853 172.971 202.454 172.837C202.29 172.809 202.122 172.809 201.957 172.837V172.796Z" fill="#181818"/>
<path d="M212.725 182.271C212.609 182.495 212.502 182.669 212.427 182.843C211.977 183.859 211.382 184.804 210.663 185.651C209.987 186.477 209.191 187.197 208.302 187.788C207.656 188.202 206.969 188.55 206.306 188.923C206.198 188.989 206.058 188.989 205.95 189.055C205.906 189.078 205.868 189.109 205.838 189.148C205.808 189.187 205.787 189.231 205.776 189.279C205.776 189.337 205.875 189.444 205.95 189.469C207.905 190.233 209.621 191.506 210.92 193.155C211.588 194.008 212.145 194.944 212.576 195.938C212.618 196.021 212.676 196.096 212.75 196.228C212.864 196.033 212.966 195.831 213.057 195.624C213.515 194.588 214.127 193.628 214.871 192.774C215.521 191.986 216.286 191.299 217.14 190.737C217.803 190.314 218.498 189.908 219.178 189.569C219.302 189.502 219.443 189.494 219.559 189.428C219.598 189.407 219.631 189.378 219.657 189.342C219.683 189.306 219.7 189.264 219.708 189.221C219.699 189.181 219.681 189.143 219.655 189.112C219.629 189.08 219.596 189.055 219.559 189.039C218.329 188.577 217.19 187.901 216.196 187.042C215.243 186.258 214.43 185.317 213.794 184.259C213.462 183.688 213.164 183.1 212.866 182.52C212.841 182.454 212.8 182.387 212.725 182.271Z" fill="#181818"/>
<path d="M194.726 200.626C194.673 200.559 194.626 200.487 194.585 200.411C194.295 199.583 194.006 198.804 193.757 198.001C193.666 197.761 193.583 197.52 193.509 197.272C193.482 197.168 193.432 197.072 193.364 196.99C193.295 196.909 193.208 196.844 193.111 196.8L192.009 196.394L190.75 195.913L189.988 195.64C189.914 195.591 189.848 195.533 189.79 195.466C189.856 195.408 189.914 195.325 189.988 195.3L191.272 194.812L192.44 194.373L193.094 194.133C193.182 194.1 193.261 194.048 193.325 193.98C193.39 193.913 193.438 193.832 193.467 193.743L193.865 192.642C194.072 192.045 194.287 191.449 194.503 190.853C194.503 190.745 194.561 190.629 194.61 190.513C194.66 190.397 194.71 190.38 194.768 190.38C194.826 190.38 194.892 190.455 194.908 190.521C195.207 191.35 195.496 192.128 195.786 192.94L196.043 193.677C196.065 193.782 196.114 193.879 196.185 193.959C196.257 194.039 196.347 194.099 196.449 194.133L198.106 194.746L199.298 195.201C199.398 195.243 199.514 195.259 199.605 195.309C199.696 195.358 199.746 195.4 199.746 195.458C199.736 195.491 199.719 195.522 199.696 195.547C199.673 195.573 199.645 195.594 199.613 195.607C198.644 195.988 197.683 196.344 196.722 196.709L196.59 196.75C196.442 196.779 196.307 196.851 196.2 196.957C196.094 197.063 196.022 197.199 195.993 197.346C195.869 197.777 195.695 198.175 195.554 198.605C195.414 199.036 195.265 199.384 195.132 199.782C195.049 200.005 194.983 200.229 194.9 200.452C194.867 200.502 194.809 200.544 194.726 200.626Z" fill="#181818"/>
<path d="M354.25 351.32H19.5C19.1022 351.32 18.7206 351.162 18.4393 350.881C18.158 350.599 18 350.218 18 349.82C18 349.422 18.158 349.041 18.4393 348.759C18.7206 348.478 19.1022 348.32 19.5 348.32H354.25C354.648 348.32 355.029 348.478 355.311 348.759C355.592 349.041 355.75 349.422 355.75 349.82C355.75 350.218 355.592 350.599 355.311 350.881C355.029 351.162 354.648 351.32 354.25 351.32Z" fill="#181818"/>

<g id="sl1">
    <rect x="212" y="38.4492" width="237" height="115" rx="22" fill="#0084FF"/>
    <rect x="221.5" y="31.5" width="235" height="112" rx="20.5" fill="white" stroke="#0084FF" stroke-width="3"/>
    <path d="M251.867 58.6562H247.758L246.977 61H244.484L248.719 49.625H250.891L255.148 61H252.656L251.867 58.6562ZM248.391 56.7578H251.234L249.805 52.5L248.391 56.7578ZM259.719 56.7109C259.719 55.4141 260.026 54.3698 260.641 53.5781C261.26 52.7865 262.094 52.3906 263.141 52.3906C264.068 52.3906 264.789 52.7083 265.305 53.3438L265.398 52.5469H267.445V60.7188C267.445 61.4583 267.276 62.1016 266.938 62.6484C266.604 63.1953 266.133 63.612 265.523 63.8984C264.914 64.1849 264.201 64.3281 263.383 64.3281C262.763 64.3281 262.159 64.2031 261.57 63.9531C260.982 63.7083 260.536 63.3906 260.234 63L261.234 61.625C261.797 62.2552 262.479 62.5703 263.281 62.5703C263.88 62.5703 264.346 62.4089 264.68 62.0859C265.013 61.7682 265.18 61.3151 265.18 60.7266V60.2734C264.659 60.862 263.974 61.1562 263.125 61.1562C262.109 61.1562 261.286 60.7604 260.656 59.9688C260.031 59.1719 259.719 58.1172 259.719 56.8047V56.7109ZM261.977 56.875C261.977 57.6406 262.13 58.2422 262.438 58.6797C262.745 59.112 263.167 59.3281 263.703 59.3281C264.391 59.3281 264.883 59.0703 265.18 58.5547V55C264.878 54.4844 264.391 54.2266 263.719 54.2266C263.177 54.2266 262.75 54.4479 262.438 54.8906C262.13 55.3333 261.977 55.9948 261.977 56.875ZM271.57 61H269.305V52.5469H271.57V61ZM269.172 50.3594C269.172 50.0208 269.284 49.7422 269.508 49.5234C269.737 49.3047 270.047 49.1953 270.438 49.1953C270.823 49.1953 271.13 49.3047 271.359 49.5234C271.589 49.7422 271.703 50.0208 271.703 50.3594C271.703 50.7031 271.586 50.9844 271.352 51.2031C271.122 51.4219 270.818 51.5312 270.438 51.5312C270.057 51.5312 269.75 51.4219 269.516 51.2031C269.286 50.9844 269.172 50.7031 269.172 50.3594ZM274.055 61V54.2031H272.797V52.5469H274.055V51.8281C274.055 50.8802 274.326 50.1458 274.867 49.625C275.414 49.099 276.177 48.8359 277.156 48.8359C277.469 48.8359 277.852 48.888 278.305 48.9922L278.281 50.7422C278.094 50.6953 277.865 50.6719 277.594 50.6719C276.745 50.6719 276.32 51.0703 276.32 51.8672V52.5469H278V54.2031H276.32V61H274.055ZM281.875 50.4688V52.5469H283.32V54.2031H281.875V58.4219C281.875 58.7344 281.935 58.9583 282.055 59.0938C282.174 59.2292 282.404 59.2969 282.742 59.2969C282.992 59.2969 283.214 59.2786 283.406 59.2422V60.9531C282.964 61.0885 282.508 61.1562 282.039 61.1562C280.456 61.1562 279.648 60.3568 279.617 58.7578V54.2031H278.383V52.5469H279.617V50.4688H281.875ZM289.18 61V54.2031H287.922V52.5469H289.18V51.8281C289.18 50.8802 289.451 50.1458 289.992 49.625C290.539 49.099 291.302 48.8359 292.281 48.8359C292.594 48.8359 292.977 48.888 293.43 48.9922L293.406 50.7422C293.219 50.6953 292.99 50.6719 292.719 50.6719C291.87 50.6719 291.445 51.0703 291.445 51.8672V52.5469H293.125V54.2031H291.445V61H289.18ZM293.945 56.6953C293.945 55.8568 294.107 55.1094 294.43 54.4531C294.753 53.7969 295.216 53.2891 295.82 52.9297C296.43 52.5703 297.135 52.3906 297.938 52.3906C299.078 52.3906 300.008 52.7396 300.727 53.4375C301.451 54.1354 301.854 55.0833 301.938 56.2812L301.953 56.8594C301.953 58.1562 301.591 59.1979 300.867 59.9844C300.143 60.7656 299.172 61.1562 297.953 61.1562C296.734 61.1562 295.76 60.7656 295.031 59.9844C294.307 59.2031 293.945 58.1406 293.945 56.7969V56.6953ZM296.203 56.8594C296.203 57.6615 296.354 58.276 296.656 58.7031C296.958 59.125 297.391 59.3359 297.953 59.3359C298.5 59.3359 298.927 59.1276 299.234 58.7109C299.542 58.2891 299.695 57.6172 299.695 56.6953C299.695 55.9089 299.542 55.2995 299.234 54.8672C298.927 54.4349 298.495 54.2188 297.938 54.2188C297.385 54.2188 296.958 54.4349 296.656 54.8672C296.354 55.2943 296.203 55.9583 296.203 56.8594ZM308.094 54.6641C307.786 54.6224 307.516 54.6016 307.281 54.6016C306.427 54.6016 305.867 54.8906 305.602 55.4688V61H303.344V52.5469H305.477L305.539 53.5547C305.992 52.7786 306.62 52.3906 307.422 52.3906C307.672 52.3906 307.906 52.4245 308.125 52.4922L308.094 54.6641ZM316.328 57.8047L317.891 52.5469H320.312L316.914 62.3125L316.727 62.7578C316.221 63.862 315.388 64.4141 314.227 64.4141C313.898 64.4141 313.565 64.3646 313.227 64.2656V62.5547L313.57 62.5625C313.997 62.5625 314.315 62.4974 314.523 62.3672C314.737 62.237 314.904 62.0208 315.023 61.7188L315.289 61.0234L312.328 52.5469H314.758L316.328 57.8047ZM320.727 56.6953C320.727 55.8568 320.888 55.1094 321.211 54.4531C321.534 53.7969 321.997 53.2891 322.602 52.9297C323.211 52.5703 323.917 52.3906 324.719 52.3906C325.859 52.3906 326.789 52.7396 327.508 53.4375C328.232 54.1354 328.635 55.0833 328.719 56.2812L328.734 56.8594C328.734 58.1562 328.372 59.1979 327.648 59.9844C326.924 60.7656 325.953 61.1562 324.734 61.1562C323.516 61.1562 322.542 60.7656 321.812 59.9844C321.089 59.2031 320.727 58.1406 320.727 56.7969V56.6953ZM322.984 56.8594C322.984 57.6615 323.135 58.276 323.438 58.7031C323.74 59.125 324.172 59.3359 324.734 59.3359C325.281 59.3359 325.708 59.1276 326.016 58.7109C326.323 58.2891 326.477 57.6172 326.477 56.6953C326.477 55.9089 326.323 55.2995 326.016 54.8672C325.708 54.4349 325.276 54.2188 324.719 54.2188C324.167 54.2188 323.74 54.4349 323.438 54.8672C323.135 55.2943 322.984 55.9583 322.984 56.8594ZM335.188 60.1406C334.63 60.8177 333.859 61.1562 332.875 61.1562C331.969 61.1562 331.276 60.8958 330.797 60.375C330.323 59.8542 330.081 59.0911 330.07 58.0859V52.5469H332.328V58.0078C332.328 58.888 332.729 59.3281 333.531 59.3281C334.297 59.3281 334.823 59.0625 335.109 58.5312V52.5469H337.375V61H335.25L335.188 60.1406ZM341.375 57.5078H339.5L339.234 49.625H341.641L341.375 57.5078ZM340.438 58.7422C340.818 58.7422 341.122 58.8542 341.352 59.0781C341.586 59.3021 341.703 59.5885 341.703 59.9375C341.703 60.2812 341.586 60.5651 341.352 60.7891C341.122 61.013 340.818 61.125 340.438 61.125C340.062 61.125 339.758 61.013 339.523 60.7891C339.294 60.5651 339.18 60.2812 339.18 59.9375C339.18 59.5938 339.294 59.3099 339.523 59.0859C339.758 58.8568 340.062 58.7422 340.438 58.7422Z" fill="#0084FF"/>
    <rect x="243" y="96" width="179" height="10" rx="4" fill="#0084FF"/>
    <rect x="243" y="114" width="142" height="10" rx="4" fill="#0084FF"/>
    <path d="M439.01 17.019C438.393 17.0174 437.799 16.7878 437.341 16.3743C436.883 15.9608 436.594 15.3926 436.53 14.779L435.26 2.77901C435.19 2.11597 435.386 1.45217 435.805 0.933631C436.224 0.415093 436.832 0.0842962 437.495 0.0140139C438.158 -0.0562685 438.822 0.139723 439.34 0.558867C439.859 0.978011 440.19 1.58597 440.26 2.24901L441.53 14.249C441.565 14.5748 441.535 14.9042 441.442 15.2183C441.349 15.5325 441.195 15.8252 440.989 16.0797C440.782 16.3343 440.528 16.5456 440.24 16.7016C439.952 16.8577 439.636 16.9553 439.31 16.989L439.01 17.019Z" fill="#0084FF"/>
    <path d="M471.78 41.649C471.117 41.706 470.458 41.4973 469.949 41.0688C469.44 40.6403 469.122 40.027 469.065 39.364C469.008 38.701 469.217 38.0424 469.645 37.5333C470.074 37.0241 470.687 36.706 471.35 36.649L483.25 34.519C483.577 34.4511 483.915 34.4494 484.242 34.5141C484.57 34.5789 484.882 34.7086 485.158 34.8958C485.435 35.083 485.672 35.3237 485.854 35.6038C486.036 35.8839 486.16 36.1977 486.219 36.5266C486.278 36.8555 486.27 37.1929 486.196 37.5188C486.123 37.8447 485.984 38.1525 485.789 38.424C485.595 38.6955 485.348 38.9252 485.062 39.0995C484.777 39.2739 484.46 39.3893 484.13 39.439L472.22 41.609C472.075 41.6376 471.928 41.651 471.78 41.649Z" fill="#0084FF"/>
    <path d="M453.06 21.5193C452.685 21.5189 452.316 21.4334 451.98 21.2693C451.384 20.9818 450.926 20.4706 450.705 19.847C450.484 19.2234 450.518 18.5378 450.8 17.9393L456.54 5.93928C456.84 5.36708 457.351 4.93347 457.964 4.72942C458.577 4.52538 459.246 4.56676 459.829 4.84488C460.412 5.123 460.865 5.61624 461.093 6.22113C461.321 6.82602 461.305 7.49556 461.05 8.08928L455.31 20.0893C455.109 20.5164 454.791 20.8776 454.392 21.1308C453.994 21.384 453.532 21.5187 453.06 21.5193Z" fill="#0084FF"/>
    <path d="M464.59 30.1893C464.082 30.1895 463.587 30.0353 463.17 29.7474C462.752 29.4594 462.432 29.0513 462.252 28.5771C462.072 28.1029 462.04 27.5852 462.161 27.0926C462.282 26.6001 462.55 26.156 462.93 25.8193L472.86 16.9793C473.105 16.7607 473.39 16.5924 473.7 16.4841C474.01 16.3758 474.338 16.3297 474.666 16.3482C474.994 16.3668 475.315 16.4498 475.61 16.5924C475.906 16.735 476.171 16.9344 476.39 17.1793C476.608 17.4242 476.777 17.7098 476.885 18.0198C476.993 18.3297 477.039 18.658 477.021 18.9857C477.002 19.3135 476.919 19.6345 476.777 19.9302C476.634 20.2259 476.435 20.4907 476.19 20.7093L466.26 29.5493C465.802 29.9629 465.207 30.1911 464.59 30.1893Z" fill="#0084FF"/>
    <rect x="220" y="78" width="236" height="3" fill="#0084FF"/>
</g>

<path d="M129.602 252.523H126.117V262H123.773V252.523H120.336V250.625H129.602V252.523ZM134.383 262C134.279 261.797 134.203 261.544 134.156 261.242C133.609 261.852 132.898 262.156 132.023 262.156C131.195 262.156 130.508 261.917 129.961 261.438C129.419 260.958 129.148 260.354 129.148 259.625C129.148 258.729 129.479 258.042 130.141 257.562C130.807 257.083 131.768 256.841 133.023 256.836H134.062V256.352C134.062 255.961 133.961 255.648 133.758 255.414C133.56 255.18 133.245 255.062 132.812 255.062C132.432 255.062 132.133 255.154 131.914 255.336C131.701 255.518 131.594 255.768 131.594 256.086H129.336C129.336 255.596 129.487 255.143 129.789 254.727C130.091 254.31 130.518 253.984 131.07 253.75C131.622 253.51 132.242 253.391 132.93 253.391C133.971 253.391 134.797 253.654 135.406 254.18C136.021 254.701 136.328 255.435 136.328 256.383V260.047C136.333 260.849 136.445 261.456 136.664 261.867V262H134.383ZM132.516 260.43C132.849 260.43 133.156 260.357 133.438 260.211C133.719 260.06 133.927 259.859 134.062 259.609V258.156H133.219C132.089 258.156 131.487 258.547 131.414 259.328L131.406 259.461C131.406 259.742 131.505 259.974 131.703 260.156C131.901 260.339 132.172 260.43 132.516 260.43ZM141.133 258.609L140.32 259.422V262H138.062V250H140.32V256.648L140.758 256.086L142.922 253.547H145.633L142.578 257.07L145.898 262H143.305L141.133 258.609ZM150.344 262.156C149.104 262.156 148.094 261.776 147.312 261.016C146.536 260.255 146.148 259.242 146.148 257.977V257.758C146.148 256.909 146.312 256.151 146.641 255.484C146.969 254.812 147.432 254.297 148.031 253.938C148.635 253.573 149.323 253.391 150.094 253.391C151.25 253.391 152.159 253.755 152.82 254.484C153.487 255.214 153.82 256.247 153.82 257.586V258.508H148.438C148.51 259.06 148.729 259.503 149.094 259.836C149.464 260.169 149.93 260.336 150.492 260.336C151.362 260.336 152.042 260.021 152.531 259.391L153.641 260.633C153.302 261.112 152.844 261.487 152.266 261.758C151.688 262.023 151.047 262.156 150.344 262.156ZM150.086 255.219C149.638 255.219 149.273 255.37 148.992 255.672C148.716 255.974 148.539 256.406 148.461 256.969H151.602V256.789C151.591 256.289 151.456 255.904 151.195 255.633C150.935 255.357 150.565 255.219 150.086 255.219ZM164.281 257.453C163.693 258.031 163.005 258.32 162.219 258.32C161.214 258.32 160.409 257.977 159.805 257.289C159.201 256.596 158.898 255.664 158.898 254.492C158.898 253.747 159.06 253.065 159.383 252.445C159.711 251.82 160.167 251.336 160.75 250.992C161.333 250.643 161.99 250.469 162.719 250.469C163.469 250.469 164.135 250.656 164.719 251.031C165.302 251.406 165.755 251.945 166.078 252.648C166.401 253.352 166.565 254.156 166.57 255.062V255.898C166.57 257.794 166.099 259.284 165.156 260.367C164.214 261.451 162.878 262.029 161.148 262.102L160.594 262.109V260.227L161.094 260.219C163.057 260.13 164.12 259.208 164.281 257.453ZM162.773 256.594C163.138 256.594 163.451 256.5 163.711 256.312C163.977 256.125 164.177 255.898 164.312 255.633V254.703C164.312 253.938 164.167 253.344 163.875 252.922C163.583 252.5 163.193 252.289 162.703 252.289C162.25 252.289 161.878 252.497 161.586 252.914C161.294 253.326 161.148 253.844 161.148 254.469C161.148 255.089 161.289 255.599 161.57 256C161.857 256.396 162.258 256.594 162.773 256.594ZM175.844 257.297C175.844 258.87 175.518 260.073 174.867 260.906C174.216 261.74 173.263 262.156 172.008 262.156C170.768 262.156 169.82 261.747 169.164 260.93C168.508 260.112 168.172 258.94 168.156 257.414V255.32C168.156 253.732 168.484 252.526 169.141 251.703C169.802 250.88 170.753 250.469 171.992 250.469C173.232 250.469 174.18 250.878 174.836 251.695C175.492 252.508 175.828 253.677 175.844 255.203V257.297ZM173.586 255C173.586 254.057 173.456 253.372 173.195 252.945C172.94 252.513 172.539 252.297 171.992 252.297C171.461 252.297 171.068 252.503 170.812 252.914C170.562 253.32 170.43 253.958 170.414 254.828V257.594C170.414 258.521 170.539 259.211 170.789 259.664C171.044 260.112 171.451 260.336 172.008 260.336C172.56 260.336 172.958 260.12 173.203 259.688C173.448 259.255 173.576 258.594 173.586 257.703V255ZM177.344 252.812C177.344 252.115 177.57 251.549 178.023 251.117C178.477 250.68 179.07 250.461 179.805 250.461C180.549 250.461 181.148 250.677 181.602 251.109C182.055 251.536 182.281 252.117 182.281 252.852V253.414C182.281 254.117 182.055 254.682 181.602 255.109C181.148 255.536 180.555 255.75 179.82 255.75C179.081 255.75 178.482 255.536 178.023 255.109C177.57 254.677 177.344 254.096 177.344 253.367V252.812ZM178.844 253.414C178.844 253.727 178.932 253.979 179.109 254.172C179.292 254.359 179.529 254.453 179.82 254.453C180.112 254.453 180.344 254.357 180.516 254.164C180.688 253.971 180.773 253.714 180.773 253.391V252.812C180.773 252.5 180.688 252.247 180.516 252.055C180.344 251.862 180.107 251.766 179.805 251.766C179.518 251.766 179.286 251.862 179.109 252.055C178.932 252.242 178.844 252.505 178.844 252.844V253.414ZM182.781 259.211C182.781 258.508 183.01 257.943 183.469 257.516C183.927 257.083 184.521 256.867 185.25 256.867C185.99 256.867 186.586 257.081 187.039 257.508C187.497 257.93 187.727 258.513 187.727 259.258V259.82C187.727 260.518 187.503 261.083 187.055 261.516C186.607 261.943 186.01 262.156 185.266 262.156C184.516 262.156 183.914 261.94 183.461 261.508C183.008 261.076 182.781 260.503 182.781 259.789V259.211ZM184.281 259.82C184.281 260.107 184.375 260.352 184.562 260.555C184.75 260.758 184.984 260.859 185.266 260.859C185.901 260.859 186.219 260.508 186.219 259.805V259.211C186.219 258.898 186.13 258.648 185.953 258.461C185.776 258.268 185.542 258.172 185.25 258.172C184.958 258.172 184.724 258.268 184.547 258.461C184.37 258.648 184.281 258.906 184.281 259.234V259.82ZM180.266 261.148L179.164 260.555L184.719 251.664L185.82 252.258L180.266 261.148ZM192.914 257.711C192.914 256.393 193.208 255.344 193.797 254.562C194.391 253.781 195.201 253.391 196.227 253.391C197.049 253.391 197.729 253.698 198.266 254.312V250H200.531V262H198.492L198.383 261.102C197.82 261.805 197.096 262.156 196.211 262.156C195.216 262.156 194.417 261.766 193.812 260.984C193.214 260.198 192.914 259.107 192.914 257.711ZM195.172 257.875C195.172 258.667 195.31 259.273 195.586 259.695C195.862 260.117 196.263 260.328 196.789 260.328C197.487 260.328 197.979 260.034 198.266 259.445V256.109C197.984 255.521 197.497 255.227 196.805 255.227C195.716 255.227 195.172 256.109 195.172 257.875ZM204.664 262H202.398V253.547H204.664V262ZM202.266 251.359C202.266 251.021 202.378 250.742 202.602 250.523C202.831 250.305 203.141 250.195 203.531 250.195C203.917 250.195 204.224 250.305 204.453 250.523C204.682 250.742 204.797 251.021 204.797 251.359C204.797 251.703 204.68 251.984 204.445 252.203C204.216 252.422 203.911 252.531 203.531 252.531C203.151 252.531 202.844 252.422 202.609 252.203C202.38 251.984 202.266 251.703 202.266 251.359ZM211.109 259.664C211.109 259.388 210.971 259.172 210.695 259.016C210.424 258.854 209.987 258.711 209.383 258.586C207.372 258.164 206.367 257.31 206.367 256.023C206.367 255.273 206.677 254.648 207.297 254.148C207.922 253.643 208.737 253.391 209.742 253.391C210.815 253.391 211.672 253.643 212.312 254.148C212.958 254.654 213.281 255.31 213.281 256.117H211.023C211.023 255.794 210.919 255.529 210.711 255.32C210.503 255.107 210.177 255 209.734 255C209.354 255 209.06 255.086 208.852 255.258C208.643 255.43 208.539 255.648 208.539 255.914C208.539 256.164 208.656 256.367 208.891 256.523C209.13 256.674 209.531 256.807 210.094 256.922C210.656 257.031 211.13 257.156 211.516 257.297C212.708 257.734 213.305 258.492 213.305 259.57C213.305 260.341 212.974 260.966 212.312 261.445C211.651 261.919 210.797 262.156 209.75 262.156C209.042 262.156 208.411 262.031 207.859 261.781C207.312 261.526 206.883 261.18 206.57 260.742C206.258 260.299 206.102 259.823 206.102 259.312H208.242C208.263 259.714 208.411 260.021 208.688 260.234C208.964 260.448 209.333 260.555 209.797 260.555C210.229 260.555 210.555 260.474 210.773 260.312C210.997 260.146 211.109 259.93 211.109 259.664ZM218.281 260.336C218.698 260.336 219.036 260.221 219.297 259.992C219.557 259.763 219.693 259.458 219.703 259.078H221.82C221.815 259.651 221.659 260.177 221.352 260.656C221.044 261.13 220.622 261.5 220.086 261.766C219.555 262.026 218.966 262.156 218.32 262.156C217.112 262.156 216.159 261.773 215.461 261.008C214.763 260.237 214.414 259.174 214.414 257.82V257.672C214.414 256.37 214.76 255.331 215.453 254.555C216.146 253.779 217.096 253.391 218.305 253.391C219.362 253.391 220.208 253.693 220.844 254.297C221.484 254.896 221.81 255.695 221.82 256.695H219.703C219.693 256.258 219.557 255.904 219.297 255.633C219.036 255.357 218.693 255.219 218.266 255.219C217.74 255.219 217.341 255.411 217.07 255.797C216.805 256.177 216.672 256.797 216.672 257.656V257.891C216.672 258.76 216.805 259.385 217.07 259.766C217.336 260.146 217.74 260.336 218.281 260.336ZM222.758 257.695C222.758 256.857 222.919 256.109 223.242 255.453C223.565 254.797 224.029 254.289 224.633 253.93C225.242 253.57 225.948 253.391 226.75 253.391C227.891 253.391 228.82 253.74 229.539 254.438C230.263 255.135 230.667 256.083 230.75 257.281L230.766 257.859C230.766 259.156 230.404 260.198 229.68 260.984C228.956 261.766 227.984 262.156 226.766 262.156C225.547 262.156 224.573 261.766 223.844 260.984C223.12 260.203 222.758 259.141 222.758 257.797V257.695ZM225.016 257.859C225.016 258.661 225.167 259.276 225.469 259.703C225.771 260.125 226.203 260.336 226.766 260.336C227.312 260.336 227.74 260.128 228.047 259.711C228.354 259.289 228.508 258.617 228.508 257.695C228.508 256.909 228.354 256.299 228.047 255.867C227.74 255.435 227.307 255.219 226.75 255.219C226.198 255.219 225.771 255.435 225.469 255.867C225.167 256.294 225.016 256.958 225.016 257.859ZM237.219 261.141C236.661 261.818 235.891 262.156 234.906 262.156C234 262.156 233.307 261.896 232.828 261.375C232.354 260.854 232.112 260.091 232.102 259.086V253.547H234.359V259.008C234.359 259.888 234.76 260.328 235.562 260.328C236.328 260.328 236.854 260.062 237.141 259.531V253.547H239.406V262H237.281L237.219 261.141ZM243.188 253.547L243.258 254.523C243.862 253.768 244.672 253.391 245.688 253.391C246.583 253.391 247.25 253.654 247.688 254.18C248.125 254.706 248.349 255.492 248.359 256.539V262H246.102V256.594C246.102 256.115 245.997 255.768 245.789 255.555C245.581 255.336 245.234 255.227 244.75 255.227C244.115 255.227 243.638 255.497 243.32 256.039V262H241.062V253.547H243.188ZM252.781 251.469V253.547H254.227V255.203H252.781V259.422C252.781 259.734 252.841 259.958 252.961 260.094C253.081 260.229 253.31 260.297 253.648 260.297C253.898 260.297 254.12 260.279 254.312 260.242V261.953C253.87 262.089 253.414 262.156 252.945 262.156C251.362 262.156 250.555 261.357 250.523 259.758V255.203H249.289V253.547H250.523V251.469H252.781ZM257.781 258.508H255.906L255.641 250.625H258.047L257.781 258.508ZM256.844 259.742C257.224 259.742 257.529 259.854 257.758 260.078C257.992 260.302 258.109 260.589 258.109 260.938C258.109 261.281 257.992 261.565 257.758 261.789C257.529 262.013 257.224 262.125 256.844 262.125C256.469 262.125 256.164 262.013 255.93 261.789C255.701 261.565 255.586 261.281 255.586 260.938C255.586 260.594 255.701 260.31 255.93 260.086C256.164 259.857 256.469 259.742 256.844 259.742Z" fill="#181818"/>
<circle cx="10" cy="145" r="8" fill="#FFB9F8"/>
<path d="M378.452 264C378.297 263.76 378.162 263.619 378.104 263.459C377.369 261.416 376.654 259.373 375.938 257.33C375.725 256.729 375.513 256.108 375.319 255.487C375.145 254.946 374.875 254.485 374.333 254.285C373.405 253.945 372.497 253.604 371.568 253.243C370.505 252.843 369.461 252.422 368.417 252.022C367.779 251.781 367.141 251.581 366.503 251.32C366.309 251.24 366.174 251.04 366 250.88C366.174 250.74 366.309 250.519 366.503 250.459C367.566 250.039 368.649 249.638 369.712 249.237C370.698 248.857 371.665 248.496 372.651 248.116C373.193 247.915 373.734 247.715 374.295 247.515C374.759 247.334 375.068 247.014 375.242 246.533C375.571 245.592 375.899 244.65 376.228 243.729C376.77 242.227 377.311 240.704 377.852 239.202C377.949 238.921 377.988 238.621 378.123 238.341C378.2 238.18 378.374 238 378.51 238C378.645 238 378.819 238.2 378.877 238.361C379.612 240.404 380.327 242.447 381.062 244.49C381.275 245.111 381.487 245.752 381.7 246.373C381.874 246.934 382.164 247.334 382.725 247.535C384.117 248.035 385.509 248.556 386.901 249.097C387.887 249.478 388.873 249.878 389.879 250.259C390.13 250.359 390.42 250.399 390.652 250.519C390.807 250.599 391 250.76 391 250.9C391 251.02 390.807 251.24 390.671 251.28C388.235 252.242 385.818 253.143 383.401 254.065C383.305 254.105 383.189 254.145 383.073 254.165C382.261 254.345 381.835 254.846 381.584 255.687C381.275 256.769 380.83 257.81 380.462 258.872C380.114 259.874 379.747 260.855 379.399 261.857C379.206 262.418 379.032 262.998 378.819 263.559C378.8 263.68 378.645 263.8 378.452 264Z" fill="#93E6CF"/>
<defs>
    <clipPath id="clip0">
        <rect width="283" height="296" fill="white" transform="translate(44 53)"/>
    </clipPath>
</defs>
</svg>
