<svg width="488" height="360" viewBox="0 0 488 360" fill="none" xmlns="http://www.w3.org/2000/svg">
<style></style>
<rect width="488" height="360" fill="white"/>
<path d="M85.7901 276.63C78.9101 264.63 72.6401 252.27 70.3901 238.63C69.3541 232.776 68.7492 226.853 68.5801 220.91C68.5801 164.7 83.0001 125.83 98.7301 100.12C113.38 76.18 129.2 63.65 135.73 59.12C137.797 57.7 139.797 56.1967 141.73 54.61C158.07 41.2 240.19 -19 349 25.79C474.82 77.62 431.43 200.69 402.45 225.79C378.21 246.79 370.77 291.79 336.4 324.87C327.091 333.749 316.013 340.564 303.89 344.87C293.58 348.717 282.953 351.651 272.13 353.64C262.284 355.212 252.339 356.084 242.37 356.25C234.17 356.48 224.3 355.31 216.32 354.25C169.18 347.9 131.38 327.92 103.24 298.12C96.9401 291.42 91.2501 286.19 85.7901 276.63Z" fill="#F8FBFF"/>
<path d="M120.33 103.93C120.148 103.929 119.97 103.877 119.815 103.782C119.66 103.687 119.534 103.552 119.45 103.39C118.375 101.262 117.437 99.0673 116.64 96.82C116.591 96.6956 116.567 96.5626 116.571 96.429C116.574 96.2953 116.604 96.1636 116.659 96.0418C116.714 95.9199 116.793 95.8104 116.891 95.7195C116.989 95.6287 117.105 95.5585 117.23 95.513C117.356 95.4675 117.49 95.4477 117.623 95.4548C117.757 95.4618 117.887 95.4956 118.008 95.554C118.128 95.6125 118.235 95.6944 118.323 95.7951C118.411 95.8957 118.478 96.013 118.52 96.14C119.29 98.2999 120.192 100.41 121.22 102.46C121.301 102.613 121.342 102.784 121.337 102.958C121.332 103.131 121.283 103.3 121.193 103.448C121.103 103.596 120.976 103.718 120.825 103.803C120.674 103.887 120.503 103.931 120.33 103.93ZM115.5 90.79C115.273 90.7972 115.05 90.7268 114.868 90.5905C114.687 90.4541 114.557 90.26 114.5 90.04C113.901 87.7339 113.427 85.3972 113.08 83.04C113.06 82.9092 113.067 82.7758 113.099 82.6475C113.131 82.5192 113.188 82.3986 113.267 82.2925C113.346 82.1865 113.445 82.0972 113.559 82.0299C113.673 81.9625 113.799 81.9183 113.93 81.9C114.193 81.8629 114.459 81.9316 114.671 82.091C114.883 82.2504 115.023 82.4874 115.06 82.75C115.402 85.0217 115.859 87.2746 116.43 89.5C116.463 89.6274 116.471 89.76 116.452 89.8903C116.434 90.0207 116.39 90.1461 116.323 90.2594C116.256 90.3728 116.168 90.4718 116.063 90.5508C115.957 90.6299 115.838 90.6873 115.71 90.72C115.643 90.751 115.572 90.7745 115.5 90.79ZM162.65 80.08H162.08C161.815 80.0548 161.57 79.9253 161.401 79.7199C161.231 79.5145 161.15 79.2502 161.175 78.985C161.2 78.7198 161.33 78.4754 161.535 78.3057C161.74 78.136 162.005 78.0548 162.27 78.08C164.11 78.25 165.81 77.15 166.81 75.08C166.868 74.9618 166.948 74.8561 167.047 74.7691C167.146 74.682 167.26 74.6152 167.385 74.5724C167.509 74.5297 167.641 74.5119 167.772 74.5201C167.903 74.5283 168.032 74.5622 168.15 74.62C168.268 74.6778 168.374 74.7582 168.461 74.8569C168.548 74.9555 168.615 75.0703 168.658 75.1947C168.7 75.3191 168.718 75.4508 168.71 75.5821C168.702 75.7134 168.668 75.8418 168.61 75.96C168.111 77.1422 167.285 78.1577 166.23 78.8874C165.174 79.6171 163.932 80.0308 162.65 80.08ZM113.52 77C113.255 77 113 76.8946 112.813 76.7071C112.625 76.5195 112.52 76.2652 112.52 76C112.52 75.63 112.52 75.26 112.52 74.89C112.521 72.8843 112.645 70.8806 112.89 68.89C112.904 68.7583 112.943 68.6307 113.007 68.5145C113.07 68.3984 113.156 68.2959 113.259 68.2131C113.362 68.1303 113.481 68.0689 113.608 68.0323C113.735 67.9957 113.869 67.9847 114 68C114.131 68.016 114.257 68.0578 114.372 68.1228C114.486 68.1879 114.587 68.275 114.668 68.3791C114.749 68.4832 114.808 68.6022 114.843 68.7293C114.878 68.8565 114.887 68.9893 114.87 69.12C114.627 71.0337 114.507 72.9609 114.51 74.89C114.51 75.25 114.51 75.6 114.51 75.96C114.51 76.2252 114.405 76.4795 114.217 76.6671C114.03 76.8546 113.775 76.96 113.51 76.96L113.52 77ZM156.85 76C156.673 75.9997 156.499 75.9523 156.346 75.8627C156.193 75.7731 156.067 75.6444 155.98 75.49C154.775 73.2815 154.097 70.824 154 68.31C153.985 68.0448 154.077 67.7846 154.254 67.5868C154.431 67.3889 154.68 67.2696 154.945 67.255C155.21 67.2404 155.47 67.3317 155.668 67.509C155.866 67.6862 155.985 67.9347 156 68.2C156.071 70.3862 156.65 72.5259 157.69 74.45C157.756 74.5647 157.798 74.6913 157.815 74.8225C157.831 74.9537 157.821 75.0869 157.786 75.2143C157.751 75.3417 157.69 75.4608 157.609 75.5648C157.527 75.6687 157.425 75.7555 157.31 75.82C157.174 75.9175 157.016 75.9794 156.85 76ZM168.77 69.75C168.517 69.7506 168.272 69.6549 168.087 69.4822C167.901 69.3096 167.788 69.0729 167.77 68.82C167.58 66.575 167.102 64.3637 166.35 62.24C166.297 62.1135 166.271 61.9775 166.273 61.8405C166.276 61.7035 166.306 61.5684 166.362 61.4435C166.419 61.3187 166.5 61.2068 166.602 61.1148C166.703 61.0228 166.823 60.9527 166.953 60.9087C167.082 60.8648 167.22 60.848 167.356 60.8594C167.493 60.8707 167.626 60.91 167.746 60.9749C167.867 61.0397 167.973 61.1286 168.058 61.2361C168.143 61.3437 168.205 61.4675 168.24 61.6C169.049 63.8819 169.563 66.2578 169.77 68.67C169.78 68.8014 169.763 68.9333 169.721 69.0583C169.68 69.1833 169.614 69.2988 169.527 69.3982C169.441 69.4977 169.336 69.579 169.218 69.6377C169.1 69.6963 168.971 69.7311 168.84 69.74L168.77 69.75ZM115.32 63.19C115.224 63.2051 115.126 63.2051 115.03 63.19C114.777 63.1136 114.565 62.9404 114.439 62.7081C114.314 62.4758 114.285 62.2032 114.36 61.95C115.06 59.656 115.974 57.4329 117.09 55.31C117.149 55.1906 117.232 55.0842 117.333 54.9971C117.434 54.91 117.551 54.844 117.678 54.8029C117.804 54.7618 117.938 54.7465 118.071 54.7578C118.204 54.7692 118.333 54.807 118.451 54.869C118.569 54.931 118.673 55.0159 118.758 55.1189C118.843 55.2218 118.906 55.3406 118.944 55.4684C118.982 55.5961 118.994 55.7302 118.98 55.8627C118.966 55.9952 118.925 56.1235 118.86 56.24C117.8 58.2489 116.936 60.3553 116.28 62.53C116.201 62.7171 116.067 62.8758 115.895 62.9847C115.724 63.0937 115.523 63.1479 115.32 63.14V63.19ZM155.53 62.34H155.35C155.221 62.317 155.097 62.2688 154.986 62.1981C154.876 62.1274 154.78 62.0356 154.705 61.9278C154.629 61.8201 154.576 61.6986 154.548 61.5703C154.52 61.442 154.517 61.3093 154.54 61.18C154.973 58.8401 155.561 56.5317 156.3 54.27C156.33 54.1347 156.388 54.0071 156.47 53.8954C156.552 53.7837 156.657 53.6902 156.777 53.621C156.897 53.5518 157.03 53.5083 157.168 53.4933C157.306 53.4783 157.445 53.4921 157.577 53.5338C157.709 53.5756 157.831 53.6443 157.936 53.7357C158.04 53.8272 158.124 53.9393 158.182 54.0649C158.241 54.1906 158.273 54.327 158.276 54.4656C158.279 54.6042 158.253 54.7419 158.2 54.87C157.494 57.0514 156.93 59.276 156.51 61.53C156.456 61.7484 156.33 61.9423 156.152 62.0802C155.974 62.2181 155.755 62.292 155.53 62.29V62.34ZM163.72 56.96C163.578 56.9598 163.438 56.9294 163.308 56.8708C163.179 56.8121 163.064 56.7266 162.97 56.62C161.466 54.9014 159.82 53.3125 158.05 51.87C157.848 51.7007 157.722 51.4588 157.697 51.1967C157.673 50.9346 157.753 50.6735 157.92 50.47C158.088 50.2669 158.329 50.1383 158.591 50.1121C158.853 50.0859 159.115 50.1642 159.32 50.33C161.176 51.8504 162.902 53.5228 164.48 55.33C164.654 55.5303 164.741 55.7913 164.722 56.0557C164.703 56.3201 164.58 56.5662 164.38 56.74C164.187 56.8722 163.953 56.9323 163.72 56.91V56.96ZM121.79 50.87C121.564 50.8687 121.346 50.7911 121.17 50.65C120.964 50.485 120.832 50.2452 120.802 49.9829C120.772 49.7207 120.847 49.4572 121.01 49.25C121.886 48.153 122.817 47.1016 123.8 46.1C124.512 45.3694 125.285 44.7003 126.11 44.1C126.324 43.9626 126.583 43.9121 126.833 43.9587C127.083 44.0052 127.306 44.1454 127.456 44.3506C127.607 44.5558 127.673 44.8107 127.642 45.0632C127.612 45.3158 127.485 45.5471 127.29 45.71C126.551 46.2517 125.859 46.8538 125.22 47.51C124.286 48.4614 123.405 49.4629 122.58 50.51C122.479 50.6164 122.356 50.6994 122.22 50.7529C122.083 50.8065 121.936 50.8294 121.79 50.82V50.87ZM159.69 48.99C159.556 48.9875 159.424 48.9604 159.3 48.91C159.056 48.8064 158.863 48.6102 158.764 48.3646C158.665 48.119 158.667 47.844 158.77 47.6C159.62 45.6 160.58 43.45 161.7 41.17C161.818 40.9327 162.026 40.752 162.277 40.6676C162.528 40.5833 162.803 40.6021 163.04 40.72C163.264 40.836 163.436 41.0323 163.521 41.2697C163.606 41.5071 163.599 41.7679 163.5 42C162.4 44.24 161.45 46.31 160.61 48.31C160.537 48.4945 160.41 48.6529 160.246 48.7651C160.082 48.8773 159.889 48.9382 159.69 48.94V48.99ZM153 48C152.816 47.9987 152.636 47.9468 152.48 47.85C150.536 46.6617 148.499 45.6317 146.39 44.77C146.143 44.6718 145.946 44.4797 145.841 44.236C145.736 43.9922 145.732 43.7166 145.83 43.47C145.928 43.2233 146.12 43.0258 146.364 42.9207C146.608 42.8157 146.883 42.8118 147.13 42.91C149.349 43.8109 151.49 44.8947 153.53 46.15C153.755 46.2885 153.916 46.5103 153.977 46.767C154.039 47.0236 153.997 47.2943 153.86 47.52C153.77 47.6674 153.644 47.7891 153.493 47.8732C153.343 47.9573 153.173 48.001 153 48ZM133.07 43.06C132.805 43.0865 132.54 43.0066 132.334 42.8378C132.127 42.669 131.997 42.4252 131.97 42.16C131.944 41.8948 132.023 41.6299 132.192 41.4236C132.361 41.2173 132.605 41.0865 132.87 41.06C135.282 40.5962 137.756 40.559 140.18 40.95C140.441 40.994 140.674 41.1399 140.828 41.3555C140.981 41.571 141.043 41.8388 141 42.1C140.98 42.2301 140.935 42.355 140.868 42.4677C140.8 42.5803 140.71 42.6785 140.604 42.7565C140.498 42.8345 140.378 42.8909 140.25 42.9224C140.123 42.9539 139.99 42.9598 139.86 42.94C137.668 42.5835 135.431 42.614 133.25 43.03C133.185 43.0461 133.117 43.0528 133.05 43.05L133.07 43.06ZM166 36.43C165.813 36.4306 165.629 36.3786 165.47 36.28C165.359 36.2097 165.263 36.1183 165.187 36.0109C165.112 35.9036 165.058 35.7823 165.029 35.6542C165 35.526 164.997 35.3935 165.02 35.2641C165.042 35.1347 165.09 35.0109 165.16 34.9C166.425 32.894 167.797 30.9579 169.27 29.1C169.436 28.8918 169.677 28.758 169.942 28.728C170.206 28.6979 170.472 28.7742 170.68 28.94C170.888 29.1057 171.022 29.3474 171.052 29.6118C171.082 29.8763 171.006 30.1418 170.84 30.35C169.403 32.1475 168.068 34.0238 166.84 35.97C166.75 36.1108 166.625 36.2267 166.479 36.3071C166.332 36.3874 166.167 36.4297 166 36.43ZM174.68 25.43C174.483 25.4292 174.291 25.3704 174.128 25.2611C173.965 25.1518 173.837 24.9968 173.761 24.8154C173.686 24.634 173.665 24.4343 173.702 24.2412C173.739 24.0482 173.832 23.8704 173.97 23.73C175.618 22.0584 177.357 20.4793 179.18 19C179.282 18.9169 179.4 18.8549 179.526 18.8174C179.653 18.78 179.785 18.7679 179.916 18.7819C180.047 18.7958 180.174 18.8355 180.29 18.8987C180.405 18.9618 180.507 19.0472 180.59 19.15C180.755 19.356 180.831 19.6186 180.803 19.8808C180.775 20.143 180.645 20.3835 180.44 20.55C178.665 22.0082 176.972 23.5639 175.37 25.21C175.273 25.2985 175.159 25.367 175.036 25.4116C174.912 25.4562 174.781 25.476 174.65 25.47L174.68 25.43Z" fill="#0084FF"/>

<g id="ihl2">
    <path d="M272.31 71.63L276.88 74.42L280.12 69.74L284.8 72.51L287.8 67.88L292.58 70.62L295.58 66L300.37 68.74L303.31 64.13L308.31 66.81L311.25 62.21L322.9 110.25L328.9 115.16L320.74 117.16L291.74 124.16C290.898 124.357 290.026 124.387 289.173 124.247C288.319 124.107 287.502 123.8 286.767 123.344C286.033 122.888 285.395 122.292 284.891 121.589C284.387 120.887 284.027 120.092 283.83 119.25L272.31 71.63Z" fill="white"/>
    <path d="M290.2 125.83C288.389 125.825 286.632 125.212 285.211 124.09C283.789 122.967 282.785 121.4 282.36 119.64L270 68.4601L276.45 72.4001L279.68 67.7401L284.33 70.4901L287.33 65.8701L292.1 68.6101L295.1 63.9901L299.87 66.7201L302.8 62.1501L307.8 64.8301L311.88 58.4301L324.2 109.43L332.2 115.93L292.12 125.62C291.49 125.765 290.846 125.835 290.2 125.83ZM274.61 74.8301L285.27 118.96C285.588 120.271 286.413 121.403 287.564 122.106C288.715 122.809 290.099 123.026 291.41 122.71L325.62 114.44L321.55 111.12L310.65 66.0201L308.86 68.8201L303.86 66.1401L300.86 70.7801L296.07 68.0301L293.07 72.6601L288.29 69.9101L285.29 74.5601L280.58 71.7701L277.33 76.4701L274.61 74.8301Z" fill="#181818"/>
    <path d="M287.5 100.86C287.102 100.906 286.702 100.793 286.388 100.544C286.074 100.296 285.871 99.9329 285.825 99.5351C285.778 99.1372 285.892 98.7373 286.14 98.4231C286.389 98.109 286.752 97.9065 287.15 97.8601L310.09 92.3201C310.477 92.2272 310.885 92.292 311.225 92.5002C311.564 92.7084 311.807 93.0428 311.9 93.4301C311.993 93.8173 311.928 94.2255 311.72 94.5649C311.512 94.9044 311.177 95.1472 310.79 95.2401L287.85 100.78C287.737 100.821 287.619 100.848 287.5 100.86Z" fill="#181818"/>
    <path d="M289.25 108.12C288.852 108.166 288.452 108.053 288.138 107.804C287.824 107.556 287.621 107.193 287.575 106.795C287.528 106.397 287.642 105.997 287.89 105.683C288.139 105.369 288.502 105.166 288.9 105.12L311.84 99.58C312.035 99.5207 312.24 99.5019 312.443 99.5246C312.646 99.5473 312.842 99.6112 313.019 99.7123C313.196 99.8133 313.351 99.9495 313.474 100.112C313.596 100.275 313.685 100.462 313.733 100.66C313.781 100.858 313.789 101.064 313.755 101.265C313.721 101.466 313.646 101.658 313.536 101.83C313.425 102.001 313.28 102.148 313.111 102.261C312.941 102.375 312.75 102.453 312.55 102.49L289.55 108.04C289.452 108.074 289.352 108.101 289.25 108.12Z" fill="#181818"/>
    <path d="M291 115.37C290.602 115.416 290.202 115.303 289.888 115.054C289.574 114.806 289.371 114.443 289.325 114.045C289.278 113.647 289.392 113.247 289.64 112.933C289.889 112.619 290.252 112.416 290.65 112.37L313.6 106.82C313.987 106.727 314.395 106.792 314.735 107C315.074 107.208 315.317 107.543 315.41 107.93C315.503 108.317 315.438 108.725 315.23 109.065C315.022 109.404 314.687 109.647 314.3 109.74L291.36 115.28C291.244 115.325 291.123 115.355 291 115.37Z" fill="#181818"/>
    <path d="M317.874 89.4469L326.991 87.2428L332.504 110.046C332.631 110.571 332.653 111.115 332.569 111.648C332.486 112.182 332.298 112.693 332.017 113.154C331.735 113.614 331.366 114.015 330.93 114.333C330.494 114.651 329.999 114.88 329.475 115.007L328.337 115.282C327.278 115.538 326.16 115.362 325.23 114.794C324.299 114.226 323.633 113.312 323.377 112.252L317.864 89.4492L317.874 89.4469Z" fill="white"/>
    <path d="M327.38 116.91C326.122 116.909 324.901 116.486 323.913 115.708C322.924 114.93 322.226 113.842 321.93 112.62L316.07 88.36L328.07 85.45L333.94 109.71C334.286 111.157 334.045 112.681 333.269 113.95C332.493 115.22 331.246 116.129 329.8 116.48L328.67 116.76C328.247 116.857 327.814 116.907 327.38 116.91ZM319.69 90.57L324.85 111.92C324.93 112.252 325.074 112.566 325.276 112.842C325.477 113.119 325.73 113.353 326.022 113.531C326.314 113.709 326.637 113.829 326.975 113.882C327.313 113.935 327.658 113.92 327.99 113.84L329.13 113.57C329.802 113.405 330.381 112.981 330.74 112.39C330.927 112.096 331.051 111.767 331.105 111.422C331.158 111.078 331.139 110.727 331.05 110.39L325.89 89.04L319.69 90.57Z" fill="#181818"/>
    <path d="M309.45 80.56C316.784 80.56 322.73 74.6143 322.73 67.28C322.73 59.9457 316.784 54 309.45 54C302.116 54 296.17 59.9457 296.17 67.28C296.17 74.6143 302.116 80.56 309.45 80.56Z" fill="#181818"/>
    <path d="M309.37 74.75L308.08 73.92C305.75 72.43 303.08 70.76 302.52 70.48C302.173 70.3549 301.885 70.1065 301.709 69.7822C301.534 69.4579 301.484 69.0804 301.57 68.7218C301.655 68.3633 301.869 68.0486 302.172 67.838C302.475 67.6274 302.844 67.5356 303.21 67.58C303.54 67.63 303.85 67.67 308.4 70.58L314.74 60.25C314.948 59.9105 315.283 59.6676 315.67 59.5748C316.057 59.482 316.465 59.5468 316.805 59.755C317.144 59.9632 317.387 60.2977 317.48 60.685C317.573 61.0722 317.508 61.4805 317.3 61.82L309.37 74.75Z" fill="white"/>
</g>

<path d="M440 151.33C439.735 151.33 439.481 151.225 439.293 151.037C439.105 150.85 439 150.595 439 150.33C439 149.18 438.89 148.04 438.76 146.92C438.746 146.789 438.758 146.657 438.795 146.531C438.833 146.405 438.894 146.288 438.977 146.186C439.06 146.083 439.162 145.999 439.277 145.936C439.393 145.873 439.519 145.834 439.65 145.82C439.912 145.792 440.175 145.869 440.381 146.033C440.587 146.198 440.72 146.438 440.75 146.7C440.88 147.87 440.97 149.07 441 150.28C441 150.545 440.895 150.8 440.707 150.987C440.52 151.175 440.265 151.28 440 151.28V151.33Z" fill="#0084FF"/>
<path d="M438.35 141C438.13 141.01 437.912 140.947 437.731 140.82C437.55 140.694 437.416 140.511 437.35 140.3C436.673 138.138 435.765 136.056 434.64 134.09C434.521 133.861 434.494 133.596 434.566 133.348C434.638 133.1 434.802 132.89 435.026 132.761C435.249 132.632 435.514 132.594 435.764 132.655C436.015 132.717 436.232 132.872 436.37 133.09C437.568 135.179 438.533 137.392 439.25 139.69C439.329 139.942 439.304 140.215 439.183 140.449C439.061 140.683 438.851 140.86 438.6 140.94C438.52 140.971 438.436 140.991 438.35 141ZM407.6 136.67C407.358 136.672 407.117 136.649 406.88 136.6C406.749 136.574 406.624 136.522 406.513 136.447C406.401 136.373 406.306 136.277 406.232 136.166C406.157 136.054 406.106 135.929 406.08 135.798C406.054 135.667 406.054 135.531 406.08 135.4C406.106 135.269 406.158 135.144 406.233 135.033C406.307 134.921 406.403 134.826 406.514 134.751C406.626 134.677 406.751 134.626 406.882 134.6C407.014 134.574 407.149 134.574 407.28 134.6C407.386 134.61 407.494 134.61 407.6 134.6C408.6 134.6 410.18 133.75 411.81 131.35C411.969 131.161 412.192 131.038 412.436 131.003C412.681 130.969 412.929 131.026 413.134 131.164C413.339 131.301 413.485 131.51 413.545 131.749C413.606 131.989 413.575 132.242 413.46 132.46C411.69 135.16 409.55 136.67 407.6 136.67ZM404.52 130.67C404.255 130.67 404.001 130.565 403.813 130.377C403.625 130.19 403.52 129.935 403.52 129.67C403.52 129.11 403.6 128.51 403.69 127.9C403.917 125.942 404.698 124.09 405.94 122.56C406.111 122.357 406.356 122.23 406.62 122.208C406.885 122.185 407.147 122.269 407.35 122.44C407.553 122.611 407.68 122.856 407.702 123.12C407.725 123.385 407.641 123.647 407.47 123.85C406.473 125.091 405.849 126.589 405.67 128.17C405.593 128.7 405.543 129.234 405.52 129.77C405.502 130.023 405.389 130.26 405.204 130.432C405.018 130.605 404.774 130.701 404.52 130.7V130.67ZM431.4 129C431.263 129 431.127 128.971 431.002 128.916C430.876 128.861 430.763 128.781 430.67 128.68C429.135 127.031 427.398 125.583 425.5 124.37C425.389 124.299 425.293 124.207 425.218 124.099C425.142 123.991 425.089 123.869 425.061 123.741C425.032 123.612 425.03 123.479 425.053 123.349C425.076 123.22 425.124 123.096 425.195 122.985C425.266 122.874 425.358 122.778 425.466 122.703C425.574 122.627 425.696 122.574 425.824 122.546C425.953 122.517 426.086 122.515 426.216 122.538C426.345 122.561 426.469 122.609 426.58 122.68C428.612 123.991 430.476 125.546 432.13 127.31C432.224 127.403 432.298 127.514 432.349 127.635C432.4 127.757 432.426 127.888 432.426 128.02C432.426 128.152 432.4 128.283 432.349 128.405C432.298 128.526 432.224 128.637 432.13 128.73C432.033 128.821 431.918 128.893 431.792 128.939C431.667 128.985 431.534 129.006 431.4 129ZM415.47 126.63C415.38 126.64 415.29 126.64 415.2 126.63C415.073 126.594 414.954 126.534 414.851 126.452C414.747 126.37 414.661 126.269 414.597 126.154C414.533 126.038 414.492 125.912 414.477 125.78C414.462 125.649 414.474 125.517 414.51 125.39C414.923 123.933 415.234 122.45 415.44 120.95C415.214 120.925 414.986 120.925 414.76 120.95C414.141 120.947 413.523 120.99 412.91 121.08C412.779 121.099 412.645 121.092 412.516 121.059C412.388 121.027 412.267 120.969 412.161 120.89C411.946 120.729 411.804 120.49 411.765 120.225C411.746 120.094 411.753 119.96 411.786 119.831C411.818 119.703 411.876 119.582 411.955 119.475C412.035 119.369 412.134 119.279 412.248 119.212C412.362 119.144 412.489 119.099 412.62 119.08C413.329 118.979 414.044 118.929 414.76 118.93C415.06 118.93 415.36 118.93 415.66 118.93V118.67C415.671 118.539 415.707 118.411 415.767 118.293C415.827 118.176 415.909 118.072 416.01 117.986C416.11 117.901 416.226 117.836 416.351 117.795C416.477 117.755 416.609 117.739 416.74 117.75C416.871 117.76 416.999 117.797 417.117 117.857C417.234 117.917 417.338 117.999 417.424 118.099C417.509 118.2 417.574 118.316 417.615 118.441C417.655 118.567 417.671 118.699 417.66 118.83V119.15C418.442 119.282 419.216 119.456 419.98 119.67C420.107 119.706 420.225 119.767 420.328 119.849C420.432 119.931 420.518 120.032 420.582 120.147C420.646 120.262 420.687 120.389 420.702 120.52C420.717 120.651 420.706 120.783 420.67 120.91C420.634 121.037 420.573 121.155 420.491 121.258C420.41 121.362 420.308 121.448 420.193 121.512C420.078 121.576 419.951 121.617 419.82 121.632C419.689 121.647 419.557 121.636 419.43 121.6C418.772 121.411 418.105 121.257 417.43 121.14C417.206 122.751 416.872 124.345 416.43 125.91C416.366 126.114 416.238 126.292 416.065 126.418C415.893 126.544 415.684 126.611 415.47 126.61V126.63ZM416.73 112.75C416.475 112.75 416.229 112.653 416.043 112.479C415.857 112.304 415.745 112.065 415.73 111.81C415.58 109.519 415.3 107.239 414.89 104.98C414.867 104.851 414.87 104.718 414.898 104.59C414.926 104.461 414.979 104.34 415.055 104.232C415.13 104.124 415.226 104.033 415.336 103.962C415.447 103.891 415.571 103.843 415.7 103.82C415.829 103.797 415.962 103.8 416.09 103.828C416.219 103.856 416.34 103.909 416.448 103.985C416.556 104.06 416.647 104.156 416.718 104.266C416.789 104.377 416.837 104.501 416.86 104.63C417.285 106.965 417.576 109.322 417.73 111.69C417.738 111.821 417.72 111.953 417.677 112.077C417.635 112.202 417.568 112.317 417.48 112.415C417.393 112.514 417.287 112.594 417.169 112.651C417.05 112.709 416.921 112.742 416.79 112.75H416.73ZM414.29 99C414.067 99.0089 413.847 98.9428 413.666 98.8123C413.485 98.6818 413.352 98.4944 413.29 98.28C412.659 96.0728 411.904 93.9027 411.03 91.78C410.98 91.6579 410.954 91.5271 410.954 91.395C410.954 91.2629 410.981 91.1321 411.032 91.0103C411.083 90.8885 411.158 90.778 411.252 90.6853C411.346 90.5926 411.458 90.5194 411.58 90.47C411.825 90.371 412.1 90.3734 412.344 90.4765C412.587 90.5795 412.78 90.775 412.88 91.02C413.788 93.2098 414.57 95.4502 415.22 97.73C415.291 97.9846 415.258 98.2568 415.129 98.4873C415 98.7178 414.784 98.8877 414.53 98.96C414.452 98.9846 414.372 98.9981 414.29 99ZM408.94 86.11C408.763 86.1097 408.589 86.0623 408.436 85.9727C408.283 85.8831 408.157 85.7544 408.07 85.6C406.95 83.6005 405.701 81.6764 404.33 79.84C404.172 79.6265 404.106 79.359 404.145 79.0965C404.185 78.8339 404.327 78.5978 404.54 78.44C404.754 78.2822 405.021 78.2156 405.284 78.255C405.546 78.2944 405.782 78.4365 405.94 78.65C407.353 80.5676 408.646 82.5715 409.81 84.65C409.876 84.7647 409.918 84.8913 409.935 85.0225C409.951 85.1537 409.941 85.2869 409.906 85.4143C409.871 85.5417 409.81 85.6608 409.729 85.7648C409.647 85.8687 409.545 85.9555 409.43 86.02C409.274 86.0806 409.106 86.1012 408.94 86.08V86.11ZM400.61 74.91C400.475 74.9095 400.342 74.8817 400.218 74.8285C400.095 74.7752 399.983 74.6975 399.89 74.6C398.294 72.9504 396.601 71.3976 394.82 69.95C394.629 69.7784 394.512 69.5401 394.492 69.2842C394.472 69.0284 394.551 68.7747 394.713 68.5756C394.875 68.3765 395.107 68.2472 395.361 68.2145C395.616 68.1818 395.873 68.2482 396.08 68.4C397.928 69.8928 399.682 71.4993 401.33 73.21C401.424 73.3029 401.498 73.4135 401.549 73.5354C401.6 73.6573 401.626 73.788 401.626 73.92C401.626 74.052 401.6 74.1827 401.549 74.3045C401.498 74.4264 401.424 74.537 401.33 74.63C401.132 74.8051 400.874 74.8949 400.61 74.88V74.91ZM389.77 66.1C389.578 66.0995 389.391 66.0439 389.23 65.94C387.291 64.7092 385.288 63.581 383.23 62.56C383.108 62.5041 382.999 62.4243 382.909 62.3254C382.819 62.2265 382.749 62.1104 382.705 61.9842C382.66 61.8579 382.641 61.7239 382.649 61.5903C382.658 61.4566 382.692 61.3259 382.752 61.206C382.812 61.0861 382.895 60.9794 382.996 60.8922C383.098 60.805 383.216 60.7392 383.344 60.6985C383.471 60.6578 383.606 60.6432 383.739 60.6555C383.873 60.6677 384.002 60.7067 384.12 60.77C386.246 61.8202 388.316 62.9818 390.32 64.25C390.506 64.3651 390.649 64.538 390.727 64.7421C390.805 64.9462 390.815 65.1704 390.753 65.3803C390.692 65.5901 390.564 65.7741 390.388 65.9041C390.212 66.0341 389.999 66.1029 389.78 66.1H389.77ZM377.24 59.88C377.121 59.881 377.002 59.8607 376.89 59.82C374.75 59.01 372.53 58.3 370.31 57.69C370.054 57.6197 369.837 57.4506 369.705 57.2199C369.574 56.9893 369.54 56.7159 369.61 56.46C369.68 56.204 369.849 55.9865 370.08 55.8552C370.311 55.724 370.584 55.6897 370.84 55.76C373.12 56.38 375.39 57.12 377.59 57.95C377.714 57.9956 377.827 58.0652 377.924 58.1549C378.021 58.2445 378.099 58.3524 378.153 58.4722C378.208 58.5921 378.239 58.7217 378.243 58.8534C378.248 58.9852 378.226 59.1166 378.18 59.24C378.102 59.4239 377.971 59.5803 377.804 59.689C377.636 59.7977 377.44 59.8538 377.24 59.85V59.88Z" fill="#0084FF"/>
<path d="M363.65 56.17H363.49C361.39 55.82 360.12 55.72 360.11 55.72C359.979 55.7101 359.851 55.6745 359.733 55.6151C359.616 55.5558 359.511 55.4739 359.425 55.374C359.251 55.1724 359.165 54.9102 359.185 54.645C359.205 54.3798 359.329 54.1333 359.531 53.9598C359.733 53.7864 359.995 53.7001 360.26 53.72C360.31 53.72 361.61 53.82 363.81 54.19C364.075 54.2112 364.321 54.3369 364.494 54.5394C364.666 54.742 364.751 55.0048 364.73 55.27C364.709 55.5352 364.583 55.7811 364.381 55.9536C364.178 56.1262 363.915 56.2112 363.65 56.19V56.17Z" fill="#0084FF"/>
<path d="M137.49 326.27L137.7 326.4L138.02 321.18L137.49 326.27Z" fill="white"/>
<path d="M143.14 284.9C143.161 284.945 143.178 284.992 143.19 285.04C143.178 284.992 143.161 284.945 143.14 284.9Z" fill="#181818"/>
<path d="M143 284.65L143.08 284.78L143 284.65Z" fill="#181818"/>
<path d="M142.58 284.25L142.71 284.34L142.58 284.25Z" fill="#181818"/>
<path d="M142.81 284.44L142.91 284.54L142.81 284.44Z" fill="#181818"/>
<path d="M240.42 356.25C251.525 356.255 262.61 355.298 273.55 353.39L273.88 337.65L160.8 339C185.789 350.415 212.948 356.299 240.42 356.25Z" fill="white"/>
<path d="M411.09 178.91L390.43 187.4L411.1 176.69L411.39 172.19L409.07 168.73L405.07 168.76L381.85 179.15L396.98 171.26L397.89 162.15L393.07 160.19L366.83 175.44L364.78 159.66L358.9 156.25L353.54 161.25L350.65 185.45L338.63 204.59L369.34 228.17L389.02 202.04L406.02 192.8L415.82 186.75L416.62 181.2L411.09 178.91Z" fill="white"/>
<path d="M312 248.26C311.897 248.436 311.76 248.59 311.596 248.711C311.432 248.832 311.245 248.918 311.046 248.965C310.847 249.011 310.641 249.017 310.44 248.981C310.24 248.945 310.048 248.868 309.878 248.756C309.708 248.644 309.562 248.498 309.45 248.327C309.339 248.157 309.263 247.965 309.227 247.764C309.192 247.564 309.198 247.358 309.245 247.159C309.292 246.961 309.378 246.774 309.5 246.61L317 237C313.91 232.59 302.73 216.7 286.78 203.72C279.267 197.084 270.748 191.683 261.54 187.72C257.75 186.33 254.18 185.15 250.94 184.17C245.571 182.815 240.093 181.932 234.57 181.53C233.62 189.53 223.52 195.72 210.74 195.82H210.43C198.73 195.82 189.26 190.7 187.07 183.64C186.99 183.38 186.92 183.12 186.86 182.86C185.86 182.97 184.52 183.14 183.41 183.28C181.54 183.51 179.78 183.72 179.05 183.79C167.186 184.822 155.706 188.51 145.46 194.58C129.29 204.19 116.21 221.06 109.56 240.85L94.0601 288.27C104.469 300.6 116.385 311.572 129.53 320.93L140.35 285.1C140.406 284.912 140.499 284.737 140.623 284.585C140.747 284.433 140.899 284.307 141.072 284.214C141.245 284.121 141.435 284.063 141.63 284.043C141.825 284.024 142.022 284.043 142.21 284.1L142.39 284.17H142.47L142.59 284.24L142.72 284.33L142.82 284.43L142.92 284.53L143.01 284.64L143.09 284.77L143.15 284.89C143.171 284.935 143.188 284.982 143.2 285.03C143.203 285.077 143.203 285.123 143.2 285.17V285.31C143.205 285.37 143.205 285.43 143.2 285.49C143.2 285.49 143.2 285.56 143.2 285.59L140.52 328.2C145.05 330.97 149.72 333.56 154.52 335.95L279.74 334.57L274.19 270.74C271.643 268.009 269.246 265.141 267.01 262.15C266.779 261.825 266.687 261.422 266.754 261.029C266.82 260.636 267.04 260.286 267.365 260.055C267.69 259.824 268.093 259.732 268.486 259.799C268.879 259.865 269.229 260.085 269.46 260.41C269.62 260.64 286.14 283.62 313.96 297.31C316.35 298.548 318.99 299.227 321.68 299.294C324.371 299.362 327.041 298.817 329.49 297.7C351.92 288.18 369.19 239.61 371.82 231.89L338.49 207.82L312 248.26Z" fill="white"/>
<path d="M143.26 285.5C143.265 285.44 143.265 285.38 143.26 285.32V285.18C143.263 285.133 143.263 285.087 143.26 285.04C143.248 284.992 143.231 284.945 143.21 284.9L143.15 284.78L143.07 284.65L142.98 284.54L142.88 284.44L142.78 284.34L142.65 284.25L142.53 284.18H142.45L142.27 284.11C142.082 284.053 141.885 284.034 141.69 284.053C141.495 284.073 141.305 284.131 141.132 284.224C140.96 284.316 140.807 284.443 140.683 284.595C140.559 284.747 140.466 284.922 140.41 285.11L129.59 320.94C130.45 321.55 131.32 322.14 132.19 322.73L139.53 298.39L138 321.18L137.68 326.4L140.57 328.21L143.25 285.6C143.25 285.6 143.26 285.53 143.26 285.5Z" fill="#181818"/>
<path d="M186.58 180.59L186.48 181.59C186.46 181.788 186.48 181.989 186.538 182.179C186.597 182.37 186.692 182.547 186.82 182.7C186.67 182.006 186.59 181.3 186.58 180.59Z" fill="#181818"/>
<path d="M209.35 121.74C209.411 122.089 209.593 122.405 209.863 122.634C210.134 122.862 210.476 122.988 210.83 122.99H211.08C211.274 122.957 211.46 122.887 211.628 122.782C211.795 122.677 211.939 122.541 212.054 122.38C212.168 122.219 212.249 122.038 212.293 121.846C212.337 121.653 212.343 121.454 212.31 121.26L211.95 119.14C211.884 118.742 211.662 118.387 211.334 118.153C211.006 117.918 210.598 117.824 210.2 117.89C209.802 117.956 209.447 118.178 209.213 118.506C208.978 118.834 208.884 119.242 208.95 119.64L209.35 121.74Z" fill="#181818"/>
<path d="M215.3 120.27C215.359 120.62 215.54 120.937 215.811 121.166C216.082 121.395 216.425 121.52 216.78 121.52H217.03C217.225 121.487 217.411 121.417 217.578 121.312C217.745 121.207 217.889 121.071 218.004 120.91C218.118 120.749 218.199 120.568 218.243 120.375C218.287 120.183 218.293 119.984 218.26 119.79L217.9 117.67C217.867 117.473 217.796 117.284 217.69 117.115C217.585 116.946 217.446 116.799 217.284 116.683C217.121 116.566 216.938 116.484 216.743 116.438C216.549 116.393 216.347 116.387 216.15 116.42C215.953 116.453 215.765 116.524 215.595 116.63C215.426 116.736 215.279 116.874 215.163 117.036C215.047 117.199 214.964 117.382 214.919 117.577C214.874 117.771 214.867 117.973 214.9 118.17L215.3 120.27Z" fill="#181818"/>
<path d="M216.67 137.72C215.259 137.79 213.861 137.42 212.67 136.66C211.523 135.808 210.563 134.729 209.85 133.49C209.668 133.141 209.357 132.877 208.983 132.756C208.609 132.634 208.202 132.664 207.85 132.84C207.503 133.023 207.241 133.335 207.12 133.708C206.998 134.082 207.027 134.488 207.2 134.84C208.138 136.522 209.436 137.977 211 139.1C212.622 140.179 214.531 140.747 216.48 140.73H216.92C217.318 140.701 217.688 140.515 217.948 140.213C218.209 139.911 218.339 139.518 218.31 139.12C218.281 138.722 218.095 138.352 217.793 138.092C217.491 137.831 217.098 137.701 216.7 137.73L216.67 137.72Z" fill="#181818"/>
<path d="M242.81 123C240.323 120.895 237.719 118.932 235.01 117.12C228.72 112.89 222.26 109.24 218.58 107.25C214.556 108.149 210.43 108.512 206.31 108.33C204.995 108.602 203.648 108.679 202.31 108.56C200.779 108.289 199.273 107.888 197.81 107.36C198.07 110.69 198.14 116.57 195.93 120.67C193.29 125.58 195.6 134.08 195.62 134.16L196.67 137.95L193.37 135.82C190.71 134.12 183.07 129.69 179.63 129.69C177.24 129.69 175.29 130.47 174.39 131.77C173.64 132.86 173.62 134.35 174.31 136.2C176.42 141.78 187.48 143.53 191.57 143.73L193.14 143.81L189.6 180.56C189.6 187.42 199.13 192.92 210.72 192.83C222.31 192.74 231.72 187.09 231.66 180.24L224.15 180.3L231.68 179.99C231.68 179.99 231.68 179.93 231.68 179.89L226.46 133L241.75 128.15C242.276 127.998 242.751 127.705 243.123 127.302C243.494 126.899 243.748 126.403 243.857 125.866C243.967 125.329 243.927 124.773 243.742 124.257C243.558 123.741 243.235 123.286 242.81 122.94V123ZM216.17 116.45C216.364 116.417 216.563 116.423 216.756 116.467C216.948 116.511 217.129 116.592 217.29 116.706C217.451 116.821 217.587 116.965 217.692 117.132C217.797 117.3 217.867 117.486 217.9 117.68L218.26 119.8C218.317 120.192 218.217 120.591 217.981 120.91C217.745 121.229 217.392 121.441 217 121.5H216.75C216.395 121.5 216.052 121.375 215.781 121.146C215.51 120.917 215.329 120.6 215.27 120.25L214.91 118.13C214.88 117.935 214.889 117.736 214.936 117.544C214.984 117.353 215.068 117.172 215.185 117.014C215.302 116.855 215.45 116.721 215.619 116.619C215.788 116.517 215.975 116.449 216.17 116.42V116.45ZM210.22 117.92C210.414 117.887 210.613 117.893 210.806 117.937C210.998 117.981 211.179 118.062 211.34 118.176C211.501 118.291 211.637 118.435 211.742 118.602C211.847 118.77 211.917 118.956 211.95 119.15L212.31 121.27C212.343 121.464 212.337 121.663 212.293 121.856C212.249 122.048 212.168 122.229 212.054 122.39C211.939 122.551 211.795 122.687 211.628 122.792C211.461 122.897 211.275 122.967 211.08 123H210.83C210.476 122.998 210.134 122.872 209.863 122.644C209.593 122.415 209.411 122.099 209.35 121.75L208.99 119.63C208.923 119.236 209.015 118.832 209.246 118.506C209.476 118.18 209.827 117.958 210.22 117.89V117.92ZM207.87 132.92C208.222 132.744 208.629 132.714 209.003 132.836C209.377 132.957 209.689 133.221 209.87 133.57C210.583 134.809 211.543 135.888 212.69 136.74C213.881 137.5 215.279 137.87 216.69 137.8C217.088 137.771 217.481 137.901 217.783 138.162C218.085 138.422 218.271 138.792 218.3 139.19C218.329 139.588 218.199 139.981 217.939 140.283C217.678 140.585 217.308 140.771 216.91 140.8H216.47C214.518 140.794 212.612 140.202 211 139.1C209.456 137.977 208.176 136.53 207.25 134.86C207.069 134.509 207.032 134.101 207.148 133.723C207.264 133.346 207.523 133.029 207.87 132.84V132.92Z" fill="white"/>
<path d="M418.71 182.92C418.6 181.367 417.89 179.919 416.731 178.879C415.573 177.84 414.055 177.292 412.5 177.35C412.75 177.035 412.974 176.701 413.17 176.35C413.651 175.355 413.886 174.259 413.857 173.154C413.827 172.05 413.533 170.968 413 170C412.23 168.67 410.62 167.05 407.3 166.9C405.66 166.81 402.4 167.9 398.65 169.42C399.343 168.461 399.845 167.378 400.13 166.23C400.341 165.374 400.36 164.483 400.188 163.618C400.015 162.754 399.654 161.939 399.13 161.23C394.76 155.23 382.58 163.17 381.27 164.06L367.75 172.26C367.56 169.95 367.39 167.26 367.26 164.26C366.95 157.26 363.63 155.36 361.67 154.84C360.027 154.492 358.316 154.655 356.768 155.307C355.22 155.96 353.908 157.07 353.01 158.49C350.92 161.77 349.53 180.29 349.21 184.92L333.8 209.46C333.743 209.562 333.696 209.669 333.66 209.78L318.12 233.43C293.86 201.67 271.12 181.43 234.57 178.43L229.75 135.06L242.69 130.96C243.726 130.646 244.658 130.057 245.386 129.256C246.115 128.455 246.613 127.473 246.828 126.412C247.043 125.351 246.968 124.251 246.609 123.23C246.25 122.208 245.622 121.303 244.79 120.61C242.211 118.433 239.514 116.399 236.71 114.52C231.71 111.17 226.65 108.18 222.88 106.07C230.46 103.85 236.88 100.25 237.39 96.45C238.25 89.85 224.19 91.14 224.19 91.14C224.19 91.14 222.48 85.83 217.59 85.48C215.901 85.3556 214.206 85.6068 212.625 86.2154C211.045 86.824 209.619 87.775 208.45 89C208.45 89 204.14 84.45 198.81 85.79C193.2 87.19 191.22 92.79 191.22 92.79C191.22 92.79 182.3 92.11 178.22 101.71C174.7 109.93 179.22 123.01 180.59 126.59C180.295 126.551 179.998 126.531 179.7 126.53C176.28 126.53 173.47 127.77 172 129.91C171.08 131.24 170.26 133.58 171.59 137.1C174.26 144.19 185.7 146.01 189.94 146.44L186.73 179.71L183.11 180.15C181.35 180.37 179.54 180.59 178.86 180.65C166.504 181.752 154.556 185.632 143.91 192C127.14 202 113.58 219.42 106.7 239.9L91.78 285.53C92.53 286.44 93.28 287.35 94.05 288.25L109.55 240.83C116.2 221.04 129.28 204.17 145.45 194.56C155.684 188.496 167.15 184.808 179 183.77C179.73 183.7 181.49 183.49 183.36 183.26C184.47 183.12 185.82 182.95 186.81 182.84C186.87 183.1 186.94 183.36 187.02 183.62C189.21 190.68 198.68 195.8 210.38 195.8H210.69C223.47 195.7 233.57 189.53 234.52 181.51C240.043 181.912 245.521 182.795 250.89 184.15C254.503 185.082 258.045 186.268 261.49 187.7C270.697 191.663 279.217 197.064 286.73 203.7C295.89 211.56 305.6 222.07 316.3 236.14L315.16 238L309.47 246.66C309.348 246.824 309.262 247.011 309.215 247.209C309.168 247.408 309.162 247.614 309.197 247.814C309.232 248.015 309.308 248.207 309.42 248.377C309.532 248.548 309.678 248.694 309.848 248.806C310.018 248.918 310.21 248.995 310.41 249.031C310.611 249.067 310.817 249.061 311.016 249.015C311.214 248.968 311.402 248.882 311.566 248.761C311.73 248.64 311.867 248.486 311.97 248.31L338.53 207.88L371.86 231.95C369.23 239.67 351.96 288.24 329.53 297.76C327.081 298.877 324.411 299.422 321.72 299.354C319.03 299.287 316.39 298.608 314 297.37C286.18 283.68 269.66 260.7 269.5 260.47C269.269 260.145 268.919 259.925 268.526 259.859C268.133 259.792 267.73 259.884 267.405 260.115C267.08 260.346 266.86 260.696 266.794 261.089C266.727 261.482 266.819 261.885 267.05 262.21C269.286 265.201 271.683 268.069 274.23 270.8L279.78 334.63L154.56 336C154.603 336.029 154.651 336.053 154.7 336.07C156.7 337.083 158.733 338.06 160.8 339L273.88 337.69L273.55 353.43L276.55 352.87L276.87 337.65L283.03 337.58L277.54 274.27C287.75 284.726 299.621 293.421 312.67 300C315.598 301.48 318.829 302.264 322.11 302.29C325.068 302.268 327.99 301.645 330.7 300.46C341.48 295.88 352.23 282.9 362.7 261.86C367.485 252.115 371.627 242.066 375.1 231.78L375.43 230.78L371.43 227.9C374.67 223.37 386.01 207.55 387.23 205.73C388.32 204.11 393.44 200.41 404.28 195.34C414.57 190.47 419.37 187.39 418.71 182.92ZM186.48 181.61L186.58 180.61C186.588 181.326 186.669 182.04 186.82 182.74C186.69 182.584 186.593 182.404 186.534 182.21C186.476 182.016 186.457 181.812 186.48 181.61ZM231.66 180C231.655 180.083 231.655 180.167 231.66 180.25C231.71 187.1 222.32 192.75 210.72 192.84C199.12 192.93 189.65 187.43 189.6 180.57L193.14 143.82L191.57 143.74C187.48 143.54 176.42 141.79 174.31 136.21C173.62 134.36 173.64 132.87 174.39 131.78C175.29 130.48 177.24 129.71 179.63 129.7C183.07 129.7 190.71 134.13 193.37 135.83L196.67 137.96L195.62 134.17C195.62 134.09 193.29 125.59 195.93 120.68C198.14 116.58 198.07 110.68 197.81 107.37C199.273 107.898 200.778 108.299 202.31 108.57C203.647 108.689 204.995 108.612 206.31 108.34C210.43 108.522 214.556 108.159 218.58 107.26C222.26 109.26 228.72 112.9 235.01 117.13C237.718 118.942 240.323 120.905 242.81 123.01C243.235 123.356 243.557 123.811 243.742 124.327C243.927 124.843 243.967 125.399 243.857 125.936C243.748 126.473 243.494 126.969 243.123 127.372C242.751 127.775 242.276 128.068 241.75 128.22L226.46 133L231.68 179.83C231.68 179.83 231.67 179.93 231.66 180ZM403 192.59C393.19 197.18 386.54 201.35 384.74 204.03C383.55 205.79 372.21 221.63 369 226.11L366.91 224.6L340 205.21L352.1 185.93V185.55C352.23 183.55 352.41 181.32 352.61 179.05C353.34 170.73 354.46 161.72 355.46 160.15C356.02 159.271 356.828 158.577 357.782 158.155C358.735 157.733 359.792 157.603 360.82 157.78C362.82 158.32 364.02 160.68 364.18 164.44C364.65 175.26 365.64 181.79 365.68 182.06L365.81 182.87L366.56 183.21C370.621 185.351 373.836 188.806 375.68 193.01C375.752 193.201 375.862 193.375 376.003 193.522C376.145 193.669 376.315 193.786 376.503 193.865C376.691 193.944 376.894 193.984 377.098 193.982C377.302 193.98 377.503 193.937 377.69 193.854C377.877 193.772 378.045 193.652 378.183 193.502C378.322 193.353 378.429 193.177 378.497 192.984C378.566 192.792 378.594 192.588 378.581 192.384C378.568 192.181 378.513 191.982 378.42 191.8C376.397 187.165 372.932 183.308 368.54 180.8C368.42 179.87 368.19 178.08 367.96 175.58L382.8 166.58C386.4 164.16 394.51 160.09 396.62 162.99C396.904 163.349 397.102 163.768 397.199 164.215C397.296 164.662 397.29 165.126 397.18 165.57C396.44 168.88 391.28 172.47 389.01 173.78C384.11 176.17 379.94 178.38 378.96 178.9C378.772 178.984 378.604 179.106 378.466 179.258C378.327 179.41 378.221 179.589 378.155 179.784C378.088 179.978 378.063 180.184 378.079 180.389C378.096 180.594 378.154 180.794 378.251 180.975C378.348 181.157 378.481 181.316 378.642 181.444C378.803 181.572 378.989 181.665 379.188 181.718C379.387 181.771 379.594 181.782 379.797 181.752C380.001 181.721 380.196 181.649 380.37 181.54C389 176.96 403.9 169.77 407.13 169.88C407.761 169.843 408.391 169.972 408.957 170.252C409.523 170.533 410.007 170.956 410.36 171.48C410.634 172.004 410.785 172.583 410.803 173.174C410.82 173.764 410.703 174.351 410.46 174.89C409.56 176.6 406.84 178.17 400.68 181.25C400.578 181.304 400.48 181.368 400.39 181.44C394.85 183.82 388.85 186.53 386.95 187.44C386.759 187.512 386.584 187.623 386.437 187.766C386.29 187.908 386.173 188.079 386.095 188.269C386.017 188.458 385.978 188.661 385.981 188.866C385.984 189.071 386.029 189.272 386.113 189.459C386.197 189.646 386.319 189.813 386.47 189.951C386.621 190.089 386.799 190.195 386.993 190.261C387.187 190.328 387.392 190.354 387.596 190.339C387.8 190.323 387.999 190.265 388.18 190.17C398.26 185.61 409.76 180.64 411.18 180.41C415.18 179.91 415.52 182.51 415.64 183.36C416.07 185.58 412.61 188.08 403 192.59Z" fill="#181818"/>

<g id="ihl1">
    <path d="M100.83 196.72L49.7501 207.49L40.7501 215.49C40.4552 215.755 40.0959 215.937 39.7083 216.019C39.3206 216.101 38.9181 216.08 38.5413 215.957C38.1644 215.835 37.8265 215.615 37.5612 215.321C37.296 215.027 37.1128 214.668 37.0301 214.28L22.2601 144C20.7901 137.07 24.8401 130.35 31.2601 129L84.1501 117.85C90.6101 116.49 97.0301 121 98.4901 127.93L109.84 181.71C111.34 188.63 107.29 195.35 100.83 196.72Z" fill="white"/>
    <path d="M39.3101 217.6C38.9061 217.596 38.505 217.532 38.1201 217.41C37.4917 217.206 36.9284 216.84 36.4876 216.348C36.0467 215.857 35.7439 215.257 35.6101 214.61L20.7901 144.32C19.1601 136.59 23.7301 129.06 30.9901 127.53L83.8801 116.37C85.641 116.005 87.4585 116.01 89.2177 116.383C90.9768 116.757 92.6393 117.491 94.1001 118.54C97.1482 120.708 99.2576 123.954 100 127.62L111.34 181.39C112.139 185.041 111.521 188.858 109.61 192.07C108.701 193.621 107.478 194.966 106.019 196.018C104.561 197.07 102.899 197.807 101.14 198.18L50.4501 208.88L41.8001 216.63C41.1183 217.25 40.2314 217.595 39.3101 217.6ZM86.5201 119.09C85.8474 119.09 85.1768 119.164 84.5201 119.31L31.6101 130.46C25.9701 131.65 22.4301 137.59 23.7201 143.7L38.5501 214C38.5746 214.131 38.6354 214.254 38.7255 214.352C38.8156 214.451 38.9314 214.523 39.0601 214.56C39.1857 214.603 39.3203 214.611 39.4503 214.585C39.5803 214.559 39.701 214.498 39.8001 214.41L49.0501 206.12L100.52 195.26C101.875 194.967 103.155 194.395 104.277 193.58C105.4 192.766 106.341 191.727 107.04 190.53C108.56 187.97 109.05 184.928 108.41 182.02L97.0701 128.23C96.4792 125.31 94.7986 122.725 92.3701 121C90.6644 119.774 88.6206 119.107 86.5201 119.09Z" fill="#181818"/>
    <path d="M55.3601 196.41C54.2377 196.405 53.1507 196.017 52.2795 195.309C51.4082 194.602 50.8051 193.618 50.5701 192.52L45.8601 170.16L89.5501 160.94L94.2701 183.3C94.4035 183.929 94.4114 184.578 94.2936 185.21C94.1757 185.843 93.9343 186.445 93.5832 186.984C93.2321 187.523 92.7781 187.987 92.2474 188.35C91.7166 188.713 91.1195 188.968 90.4901 189.1L56.3701 196.3C56.038 196.371 55.6996 196.408 55.3601 196.41ZM49.3601 172.47L53.4601 191.9C53.5112 192.143 53.6098 192.374 53.75 192.578C53.8903 192.783 54.0696 192.959 54.2776 193.094C54.4856 193.23 54.7183 193.323 54.9624 193.369C55.2065 193.414 55.4572 193.411 55.7001 193.36L89.8201 186.17C90.3121 186.064 90.743 185.77 91.0201 185.35C91.1557 185.141 91.2484 184.906 91.2931 184.661C91.3377 184.416 91.3333 184.164 91.2801 183.92L87.1801 164.49L49.3601 172.47Z" fill="#181818"/>
    <path d="M45.8101 169.14L42.8101 165.48C41.9843 164.479 41.5889 163.192 41.7108 161.901C41.8326 160.609 42.4617 159.418 43.4601 158.59L70.3401 136.37C71.3419 135.545 72.6299 135.152 73.9216 135.275C75.2132 135.399 76.4031 136.03 77.2301 137.03L80.2301 140.68L45.8101 169.14ZM73.4301 138.25C72.9922 138.249 72.5678 138.401 72.2301 138.68L45.3501 160.9C45.1578 161.057 44.9994 161.252 44.8842 161.472C44.7691 161.691 44.6996 161.932 44.6801 162.18C44.6544 162.428 44.6784 162.679 44.7505 162.917C44.8226 163.156 44.9414 163.378 45.1001 163.57L46.2101 164.91L76.0001 140.28L74.8801 138.94C74.7039 138.726 74.4826 138.553 74.232 138.433C73.9814 138.314 73.7076 138.251 73.4301 138.25Z" fill="#181818"/>
    <path d="M60.8522 146.147L54.7788 151.167L59.0095 156.285L65.0829 151.264L60.8522 146.147Z" fill="#181818"/>
    <path d="M72.1988 166.18L64.6626 167.795L69.8601 192.05L77.3963 190.435L72.1988 166.18Z" fill="#181818"/>
    <path d="M58.77 149.57L57.57 147.78C56.85 146.7 50.57 137.09 53.34 132.21C54.4 130.33 56.46 129.44 59.49 129.57C62.89 129.72 64.33 131.26 64.94 132.57C67.35 137.57 60.79 146.82 60.03 147.86L58.77 149.57ZM58.91 132.57C57.37 132.57 56.37 132.95 55.91 133.69C54.8 135.69 56.71 140.48 58.83 144.19C61.09 140.59 63.18 135.89 62.2 133.85C62.06 133.56 61.64 132.68 59.32 132.58L58.91 132.57Z" fill="#181818"/>
    <path d="M44.0001 155.85C42.9571 155.885 41.9231 155.647 41.0001 155.16C39.1001 154.1 38.2201 152 38.3501 149C38.4901 145.61 40.0401 144.16 41.3501 143.55C46.3501 141.14 55.6001 147.7 56.6401 148.46L58.3801 149.72L56.5901 150.92C55.6601 151.52 49.0001 155.85 44.0001 155.85ZM43.9001 146C43.4569 145.987 43.0163 146.072 42.6101 146.25C42.3201 146.39 41.4401 146.81 41.3401 149.13C41.2701 150.93 41.6401 152.13 42.4601 152.54C44.4601 153.65 49.2401 151.74 52.9501 149.62C50.0001 147.76 46.2601 146 43.9001 146Z" fill="#181818"/>
    <path d="M85.0001 141.43C84.9201 141.7 84.8401 141.9 84.8001 142.11C84.5488 143.305 84.1243 144.457 83.5401 145.53C82.9961 146.566 82.3019 147.517 81.4801 148.35C80.8801 148.94 80.2301 149.47 79.5901 150.02C79.4901 150.11 79.3401 150.14 79.2401 150.24C79.1613 150.309 79.1114 150.406 79.1001 150.51C79.1001 150.58 79.2501 150.67 79.3301 150.68C81.6021 151.063 83.7315 152.043 85.5001 153.52C86.4187 154.286 87.2353 155.166 87.9301 156.14C88.0001 156.22 88.0701 156.28 88.1801 156.42C88.2623 156.185 88.3291 155.944 88.3801 155.7C88.6362 154.484 89.0744 153.315 89.6801 152.23C90.21 151.236 90.884 150.326 91.6801 149.53C92.2901 148.92 92.9601 148.38 93.6101 147.81C93.7201 147.72 93.8701 147.68 93.9801 147.58C94.0173 147.548 94.0472 147.508 94.0679 147.463C94.0886 147.418 94.0996 147.369 94.1001 147.32C94.0785 147.28 94.0486 147.245 94.0124 147.217C93.9762 147.19 93.9345 147.17 93.8901 147.16C92.4658 146.938 91.0915 146.468 89.8301 145.77C88.6308 145.143 87.5484 144.314 86.6301 143.32C86.1401 142.78 85.6901 142.21 85.2401 141.66L85.0001 141.43Z" fill="#181818"/>
    <path d="M73.91 163.08C73.82 162.99 73.75 162.95 73.71 162.88C73.21 162.09 72.71 161.29 72.24 160.49C72.09 160.25 71.95 160.01 71.81 159.76C71.7607 159.653 71.6871 159.56 71.5951 159.487C71.503 159.414 71.3951 159.364 71.28 159.34L70 159.15L68.55 158.92C68.25 158.92 67.96 158.85 67.66 158.79C67.5671 158.763 67.4815 158.715 67.41 158.65C67.47 158.58 67.51 158.47 67.59 158.43L68.85 157.62L70.01 156.88L70.66 156.48C70.7473 156.428 70.8227 156.359 70.8813 156.276C70.9399 156.194 70.9803 156.099 71 156C71 155.57 71.11 155.14 71.17 154.72C71.27 154.04 71.36 153.35 71.46 152.66C71.4452 152.53 71.4452 152.4 71.46 152.27C71.4683 152.233 71.4841 152.197 71.5064 152.167C71.5288 152.136 71.5572 152.11 71.59 152.09C71.65 152.09 71.74 152.15 71.78 152.21C72.28 153.01 72.78 153.81 73.26 154.61C73.41 154.85 73.56 155.11 73.7 155.35C73.753 155.456 73.8307 155.547 73.9264 155.617C74.0221 155.686 74.1331 155.732 74.25 155.75C74.89 155.83 75.53 155.93 76.17 156.03L77.55 156.26C77.67 156.26 77.8 156.26 77.91 156.26C78.02 156.26 78.08 156.33 78.09 156.39C78.0881 156.428 78.0772 156.465 78.058 156.498C78.0389 156.531 78.0122 156.559 77.98 156.58L75.12 158.41L74.99 158.48C74.8386 158.546 74.7101 158.655 74.6211 158.794C74.532 158.933 74.4864 159.095 74.49 159.26C74.49 159.75 74.35 160.26 74.29 160.71C74.23 161.16 74.16 161.61 74.1 162.07C74.1 162.32 74.05 162.59 74.01 162.84C74 162.91 74 163 73.91 163.08Z" fill="#181818"/>
</g>

<g id="ihl3">
    <path d="M398.58 278.46H337.89C330.694 278.46 324.86 284.294 324.86 291.49V325.19C324.86 332.386 330.694 338.22 337.89 338.22H398.58C405.776 338.22 411.61 332.386 411.61 325.19V291.49C411.61 284.294 405.776 278.46 398.58 278.46Z" fill="#181818"/>
    <path d="M403 273.8H342.31C335.114 273.8 329.28 279.634 329.28 286.83V320.53C329.28 327.726 335.114 333.56 342.31 333.56H403C410.196 333.56 416.03 327.726 416.03 320.53V286.83C416.03 279.634 410.196 273.8 403 273.8Z" fill="white"/>
    <path d="M403 335.06H342.31C338.459 335.057 334.766 333.527 332.042 330.805C329.318 328.083 327.785 324.391 327.78 320.54V286.83C327.785 282.978 329.318 279.285 332.042 276.562C334.765 273.838 338.458 272.305 342.31 272.3H403C406.852 272.305 410.545 273.838 413.268 276.562C415.992 279.285 417.525 282.978 417.53 286.83V320.54C417.525 324.391 415.992 328.083 413.268 330.805C410.544 333.527 406.851 335.057 403 335.06ZM342.31 275.3C339.253 275.303 336.322 276.518 334.16 278.68C331.998 280.842 330.783 283.773 330.78 286.83V320.54C330.785 323.595 332.002 326.524 334.164 328.684C336.325 330.843 339.255 332.057 342.31 332.06H403C406.055 332.057 408.985 330.843 411.147 328.684C413.308 326.524 414.525 323.595 414.53 320.54V286.83C414.527 283.773 413.312 280.842 411.15 278.68C408.988 276.518 406.057 275.303 403 275.3H342.31Z" fill="#181818"/>
    <path d="M351.68 323.79H349.23C348.056 323.787 346.931 323.32 346.1 322.49C345.27 321.659 344.803 320.534 344.8 319.36V288.16C344.803 286.986 345.27 285.861 346.1 285.03C346.931 284.2 348.056 283.733 349.23 283.73H351.68C352.856 283.73 353.984 284.196 354.816 285.027C355.648 285.857 356.117 286.984 356.12 288.16V319.36C356.117 320.536 355.648 321.663 354.816 322.493C353.984 323.324 352.856 323.79 351.68 323.79ZM349.23 286.73C348.851 286.73 348.487 286.881 348.219 287.149C347.951 287.417 347.8 287.781 347.8 288.16V319.36C347.8 319.739 347.951 320.103 348.219 320.371C348.487 320.639 348.851 320.79 349.23 320.79H351.68C352.06 320.79 352.425 320.64 352.695 320.372C352.965 320.104 353.117 319.74 353.12 319.36V288.16C353.117 287.78 352.965 287.416 352.695 287.148C352.425 286.88 352.06 286.73 351.68 286.73H349.23Z" fill="#181818"/>
    <path d="M366.48 323.79H364C362.826 323.787 361.701 323.32 360.87 322.49C360.04 321.659 359.573 320.534 359.57 319.36V295.53C359.57 294.354 360.036 293.226 360.867 292.394C361.697 291.562 362.824 291.093 364 291.09H366.45C367.628 291.09 368.757 291.558 369.59 292.39C370.422 293.223 370.89 294.352 370.89 295.53V319.36C370.887 320.531 370.423 321.653 369.597 322.483C368.771 323.312 367.651 323.782 366.48 323.79ZM364 294.09C363.811 294.09 363.625 294.127 363.451 294.2C363.276 294.272 363.118 294.378 362.985 294.512C362.852 294.646 362.747 294.805 362.676 294.98C362.605 295.154 362.569 295.341 362.57 295.53V319.36C362.57 319.739 362.721 320.103 362.989 320.371C363.257 320.639 363.621 320.79 364 320.79H366.45C366.83 320.79 367.195 320.64 367.465 320.372C367.735 320.104 367.887 319.74 367.89 319.36V295.53C367.89 295.148 367.738 294.782 367.468 294.512C367.198 294.242 366.832 294.09 366.45 294.09H364Z" fill="#181818"/>
    <path d="M381.28 323.79H378.83C377.656 323.787 376.531 323.32 375.7 322.49C374.87 321.659 374.403 320.534 374.4 319.36V312.54C374.403 311.366 374.87 310.241 375.7 309.41C376.531 308.58 377.656 308.113 378.83 308.11H381.28C382.456 308.11 383.584 308.576 384.416 309.407C385.248 310.237 385.717 311.364 385.72 312.54V319.36C385.717 320.536 385.248 321.663 384.416 322.493C383.584 323.324 382.456 323.79 381.28 323.79ZM378.83 311.11C378.451 311.11 378.087 311.261 377.819 311.529C377.551 311.797 377.4 312.161 377.4 312.54V319.36C377.4 319.739 377.551 320.103 377.819 320.371C378.087 320.639 378.451 320.79 378.83 320.79H381.28C381.66 320.79 382.025 320.64 382.295 320.372C382.565 320.104 382.717 319.74 382.72 319.36V312.54C382.717 312.16 382.565 311.796 382.295 311.528C382.025 311.26 381.66 311.11 381.28 311.11H378.83Z" fill="#181818"/>
    <path d="M396.08 323.79H393.63C392.456 323.787 391.331 323.32 390.5 322.49C389.67 321.659 389.203 320.534 389.2 319.36V302.79C389.203 301.616 389.67 300.491 390.5 299.66C391.331 298.83 392.456 298.363 393.63 298.36H396.08C397.256 298.36 398.384 298.826 399.216 299.657C400.048 300.487 400.517 301.614 400.52 302.79V319.36C400.517 320.536 400.048 321.663 399.216 322.493C398.384 323.324 397.256 323.79 396.08 323.79ZM393.63 301.36C393.251 301.36 392.887 301.511 392.619 301.779C392.351 302.047 392.2 302.411 392.2 302.79V319.36C392.2 319.739 392.351 320.103 392.619 320.371C392.887 320.639 393.251 320.79 393.63 320.79H396.08C396.46 320.79 396.825 320.64 397.095 320.372C397.365 320.104 397.517 319.74 397.52 319.36V302.79C397.517 302.41 397.365 302.046 397.095 301.778C396.825 301.51 396.46 301.36 396.08 301.36H393.63Z" fill="#181818"/>
</g>

<path d="M457 259C457 263.418 453.418 267 449 267C444.582 267 441 263.418 441 259C441 254.582 444.582 251 449 251C453.418 251 457 254.582 457 259Z" fill="#FFD12D"/>
<path d="M46.4517 336C46.297 335.76 46.1616 335.619 46.1036 335.459C45.3689 333.416 44.6535 331.373 43.9381 329.33C43.7254 328.729 43.5128 328.108 43.3194 327.487C43.1454 326.946 42.8747 326.485 42.3333 326.285C41.4053 325.945 40.4965 325.604 39.5684 325.243C38.505 324.843 37.4609 324.422 36.4169 324.022C35.7788 323.781 35.1408 323.581 34.5027 323.32C34.3094 323.24 34.174 323.04 34 322.88C34.174 322.74 34.3094 322.519 34.5027 322.459C35.5661 322.039 36.6489 321.638 37.7123 321.237C38.6984 320.857 39.6651 320.496 40.6512 320.116C41.1926 319.915 41.734 319.715 42.2947 319.515C42.7587 319.334 43.0681 319.014 43.2421 318.533C43.5708 317.592 43.8995 316.65 44.2282 315.729C44.7695 314.227 45.3109 312.704 45.8523 311.202C45.949 310.921 45.9876 310.621 46.123 310.341C46.2003 310.18 46.3743 310 46.5097 310C46.645 310 46.819 310.2 46.877 310.361C47.6118 312.404 48.3271 314.447 49.0619 316.49C49.2746 317.111 49.4872 317.752 49.6999 318.373C49.8739 318.934 50.164 319.334 50.7247 319.535C52.1168 320.035 53.5089 320.556 54.901 321.097C55.8871 321.478 56.8732 321.878 57.8786 322.259C58.1299 322.359 58.42 322.399 58.652 322.519C58.8067 322.599 59 322.76 59 322.9C59 323.02 58.8067 323.24 58.6713 323.28C56.2351 324.242 53.8183 325.143 51.4014 326.065C51.3047 326.105 51.1887 326.145 51.0727 326.165C50.2606 326.345 49.8353 326.846 49.5839 327.687C49.2746 328.769 48.8299 329.81 48.4625 330.872C48.1145 331.874 47.7471 332.855 47.3991 333.857C47.2057 334.418 47.0317 334.998 46.819 335.559C46.7997 335.68 46.645 335.8 46.4517 336Z" fill="#FFB9F8"/>
</svg>
