<svg xmlns="http://www.w3.org/2000/svg" viewBox="0 0 23.69 23.69"><defs><style>.cls-1{fill:#fff;}</style></defs><title>Asset 1</title><g id="Layer_2" data-name="Layer 2"><g id="Layer_1-2" data-name="Layer 1"><path class="cls-1" d="M11.85,0A11.85,11.85,0,1,0,23.69,11.85,11.85,11.85,0,0,0,11.85,0Zm2.66,16.78A9.8,9.8,0,0,1,11,18.86c-.89.22-1.6.15-1.68-.87s1.12-5.41,1.2-5.87-.79,0-1.5.39a.42.42,0,0,1-.57-.19.41.41,0,0,1,.12-.5,13,13,0,0,1,4.06-2.14c.75-.2,1.18,0,1.2,1a56.75,56.75,0,0,1-1.3,5.64c-.14.82.79.31,1.47-.12a.39.39,0,0,1,.53.1A.4.4,0,0,1,14.51,16.78Zm-1.68-9a1.31,1.31,0,0,1-1.42-1.37,1.89,1.89,0,0,1,1.91-1.85A1.41,1.41,0,0,1,14.76,6,1.93,1.93,0,0,1,12.83,7.78Z"/></g></g></svg>