<svg xmlns="http://www.w3.org/2000/svg" viewBox="0 0 365.24 105.83" width="365" height="106">
  <defs>
    <style>.cls-1{fill:#010101;}.cls-2{fill:#1d7abf;}.cls-3{fill:#fff;}</style>
  </defs>
  <title>anthem_logo</title>
  <g id="Layer_2" data-name="Layer 2">
    <g id="Layer_1-2" data-name="Layer 1">
      <path class="cls-1"
            d="M85.57,80.61H97.05a12.54,12.54,0,0,1,6.3,1.13,5.46,5.46,0,0,1,2.93,5,5.11,5.11,0,0,1-4.05,5.18,8.1,8.1,0,0,1-2.48.45,11.3,11.3,0,0,1,2.7.45c2.48.68,5,2.48,5,5.85a6.93,6.93,0,0,1-.68,2.93c-1.8,3.6-6.3,3.6-9.91,3.6h-11v-.9h2.93V81.51H85.79v-.9Zm8.11.9V91.87H96.6c2.7,0,4.28-.9,4.28-5.18,0-4.73-1.58-5.4-4.28-5.4H93.67Zm0,11.48v11.48h3.6a4.36,4.36,0,0,0,3.6-1.58,7.71,7.71,0,0,0,.68-4.05,8.93,8.93,0,0,0-.9-4.5A4.11,4.11,0,0,0,97.05,93Z"/>
      <path class="cls-1" d="M109.21,80.84h3.15a19.83,19.83,0,0,0,3.83-.45v24.09h2.25v.9h-9.23v-.9h2.48V81.74h-2.48Z"/>
      <path class="cls-1"
            d="M128.8,90.75h7v13.74H138v.9h-6.76v-2.25c-1.35,1.35-2.7,2.7-5.63,2.7-4.28,0-4.28-2.7-4.28-5v-9h-2.25V91h6.76v10.81c0,1.13.23,2.7,1.8,2.7a5.73,5.73,0,0,0,1.58-.45c2-1.35,2-3.38,2-5V91.87H128.8Z"/>
      <path class="cls-1"
            d="M154.47,101.33c-.9,1.58-2.48,4.5-6.76,4.5A7.75,7.75,0,0,1,139.61,98a7.46,7.46,0,0,1,7.66-7.66,6.52,6.52,0,0,1,5.18,2.25,8.28,8.28,0,0,1,1.8,4.73h-9.91V100c0,1.35.23,4.73,3.6,4.73,2.93,0,4.5-2.48,5.4-3.83ZM150,93.9c0-1.13-.23-2.93-2.48-2.93-2.48,0-2.7,1.58-2.7,3.15v1.8h5.4v-2Z"/>
      <path class="cls-1"
            d="M176.31,86.92h-1.13c-.45-1.58-1.35-6.08-6.3-6.08-4.5,0-5.4,3.83-5.85,5.18a29.39,29.39,0,0,0-.68,7.66c0,7.21,1.58,11,5.85,11a6.23,6.23,0,0,0,2.93-.68c2.93-1.35,3.6-4.05,4.28-5.63h1.13l-.45,7h-.9l-1.13-1.58c-.68.68-2.25,2-5.85,2-8.11,0-11.71-6.3-11.71-12.61,0-7.88,5.85-13.29,12.16-13.29a8.35,8.35,0,0,1,5.63,2l.68-1.58h.9Z"/>
      <path class="cls-1"
            d="M178.57,90.75c2.25,0,4.73,0,7-.23v2.93a9.53,9.53,0,0,1,1.13-1.58,4.3,4.3,0,0,1,3.15-1.58A2.89,2.89,0,0,1,193,93.22a2.27,2.27,0,0,1-2.25,2.48,2.23,2.23,0,0,1-2.25-2,1.9,1.9,0,0,1,.45-1.35c0-.23.23-.23.23-.45a.48.48,0,0,0-.45-.45c-.45,0-1.58,1.35-1.58,1.35a8,8,0,0,0-1.35,4.73v6.76h2.93v.9H179v-.9h2.48V91.42H179v-.68Z"/>
      <path class="cls-1"
            d="M210.54,100.88c-.45,1.35-2.48,4.73-7.66,4.73-5.63,0-8.56-3.83-8.56-7.88,0-5.4,4.73-7.66,8.33-7.66,3.15,0,7.88,1.8,8.11,7.43a4.26,4.26,0,0,1-.23,3.38M205.81,93a2.91,2.91,0,0,0-2.93-2c-3.38,0-3.6,3.6-3.6,6.76,0,4.05.45,5,.68,5.4a3.13,3.13,0,0,0,2.93,1.8c3.38,0,3.38-3.83,3.38-7.21,0-3.83-.23-4.28-.45-4.73"/>
      <path class="cls-1"
            d="M223.83,94.57h-.9a3.41,3.41,0,0,0-1.58-2.48,5.52,5.52,0,0,0-2.7-.9c-1.58,0-2.48.9-2.48,2a1.6,1.6,0,0,0,.68,1.35,9.75,9.75,0,0,0,2.48.9l1.13.23c1.58.45,4.28,1.35,4.28,4.5a5.3,5.3,0,0,1-5.4,5.4,5.74,5.74,0,0,1-3.15-.9,3.8,3.8,0,0,0-1.13-.45.54.54,0,0,0-.45.9h-1.13v-5.4h1.13a6.37,6.37,0,0,0,1.58,3.6,4.45,4.45,0,0,0,3.15,1.35c1.8,0,2.93-1.13,2.93-2.25,0-1.8-2.48-2.25-4.05-2.7-2.25-.68-4.73-1.58-4.73-5a4.47,4.47,0,0,1,4.73-4.73,6.66,6.66,0,0,1,2.7.68,1.35,1.35,0,0,0,.9.23c.68,0,.68-.45.68-1.13h.9v4.73Z"/>
      <path class="cls-1"
            d="M237.79,94.57h-1.13a3.41,3.41,0,0,0-1.58-2.48,5.52,5.52,0,0,0-2.7-.9c-1.58,0-2.48.9-2.48,2a1.6,1.6,0,0,0,.68,1.35,9.75,9.75,0,0,0,2.48.9l1.13.23c1.58.45,4.28,1.35,4.28,4.5a5.3,5.3,0,0,1-5.4,5.4,5.74,5.74,0,0,1-3.15-.9,3.8,3.8,0,0,0-1.13-.45.54.54,0,0,0-.45.9H227.2v-5.4h1.13a6.37,6.37,0,0,0,1.58,3.6,4.45,4.45,0,0,0,3.15,1.35c1.8,0,2.93-1.13,2.93-2.25,0-1.8-2.48-2.25-4.05-2.7-2.25-.68-4.73-1.58-4.73-5a4.47,4.47,0,0,1,4.73-4.73,6.66,6.66,0,0,1,2.7.68,1.35,1.35,0,0,0,.9.23c.68,0,.68-.45.68-1.13h.9v4.73Z"/>
      <path class="cls-2"
            d="M346.55,104a4.28,4.28,0,1,1,4.28-4.28,4.14,4.14,0,0,1-4.28,4.28m0,.9a5,5,0,1,0-5-5,5,5,0,0,0,5,5m-1.13-4.73h1.13l1.58,2.48h.9l-1.8-2.48a1.6,1.6,0,0,0,1.8-1.58c0-1.13-.45-1.58-2-1.58h-2.25v5.85h.68Zm0-.68v-1.8H347c.68,0,1.35,0,1.35.9,0,1.13-1.13.9-2,.9Z"/>
      <polygon class="cls-2"
               points="365.24 29.27 336.19 29.27 336.19 0 289.58 0 289.58 29.27 260.53 29.27 260.53 75.89 289.58 75.89 289.58 104.93 336.19 104.93 336.19 75.89 365.24 75.89 365.24 29.27"/>
      <path class="cls-3"
            d="M340,42.56c-7.21,0-13.74,1.13-17.56,1.35-4.05.23-7.21,2.48-4.5,7.66,2.93,5.18,12.16,22.74,12.61,23.42a28.6,28.6,0,0,0,11-22.74A23.07,23.07,0,0,0,340,42.56m-8.33,25.9s-8.78-16.89-9.91-18.69c-.9-1.8,0-2,1.13-2,.9,0,14.19-1.13,14.19-1.13a25.48,25.48,0,0,1-5.4,21.84m-28.6-24.54c-3.83-.23-10.13-1.35-17.11-1.35a28.66,28.66,0,0,0-1.8,9.91A29.32,29.32,0,0,0,295,75c1.8-3.38,9.91-18.46,12.38-23.19,2.93-5.4-.23-7.66-4.28-7.88m.68,6.08c-.9,1.8-9.91,18.69-9.91,18.69a25.69,25.69,0,0,1-5.4-21.84S301.74,48,302.64,48c1.13,0,2,.23,1.13,2m6.76-11.26c1.13-1.13,1.35-2.93-.45-5-2.7-3.38-.45-6.76,2.48-6.53S318,30.4,315,33.78c-1.58,2-1.58,3.6-.45,5a6.17,6.17,0,0,0,4.28,1.58h19.82c-2-4.5-2.7-5.63-6.3-8.78-4.73-4.05-13.51-7.88-19.82-7.88a27.88,27.88,0,0,0-20.27,8.56,30.93,30.93,0,0,0-5.85,8.33h19.37c2.25-.23,3.83-.68,4.73-1.8m9.68-9.91c4.5.9,8.33,4.5,11.71,7.88H318.63c0-2.48,2.93-2.93,1.58-7.88m-14.64,0c-1.35,5.18,1.58,5.4,1.58,7.88H293.86a19.64,19.64,0,0,1,11.71-7.88m7.21,25.67c-1.13,0-1.8.68-2.48,2-.68,1.13-11,16.21-13.51,19.82a29.27,29.27,0,0,0,16.21,5,29.63,29.63,0,0,0,16-4.73s-12.84-18.69-13.74-20c-.68-1.35-1.35-2-2.48-2m0,22.52c-4.05,0-7.66-.68-10.36-2.25,0,0,9.46-15.09,10.36-15.09s10.36,15.09,10.36,15.09c-2.7,1.58-6.3,2.25-10.36,2.25"/>
      <path class="cls-2"
            d="M174.29,33.1c-2.48-2.25-6.08-3.38-10.36-3.38a14.79,14.79,0,0,0-10.36,4.73,18.38,18.38,0,0,0-4.73,12.38A17.81,17.81,0,0,0,153.57,59a15.69,15.69,0,0,0,11,4.5A13.51,13.51,0,0,0,178.12,52v-.23h-2.25V52c-.68,4.5-4.5,9.23-10.36,9.23-4.73,0-7.43-3.38-7.66-9V44.59h20.94v-.23c0-5-1.58-8.78-4.5-11.26m-4.28,9H157.85V38.73a7.2,7.2,0,0,1,1.8-5.18A5.43,5.43,0,0,1,163.7,32c3.83,0,6.08,2.48,6.08,7v3.15Z"/>
      <path class="cls-2"
            d="M108.54,56.07h-2.48v.23c-.23,1.58-1.13,4.05-4.28,4.05-2.48,0-3.6-1.58-3.6-5V32.65h7.88V30.4H98.4V20.72h-.23c-1.8.23-5.4.45-7.43.45H90.3V30.4H85.12v2.25H90.3V52.47c0,7.21,3.15,11,9.23,11,7,0,8.56-5.4,8.78-7Z"/>
      <path class="cls-2"
            d="M80.61,60.35v-20c0-3.15-.9-5.85-2.93-7.66A11.12,11.12,0,0,0,70,29.72a12.38,12.38,0,0,0-10.13,5V30.62H47.29v2H52V60.12H43.23L25,8.11V7.88H22.74v.23L5,60.35H0v2H14.86v-2H8.11l5-14.86H29l5,14.86H27v2H64.85V60.12h-5V44.81c0-9.23,5-12.38,8.11-12.38s4.73,2,4.73,6.08V60.12h-4.5v2.25H85.57V60.12h-5ZM20.49,21.84,27.92,43H13.74Z"/>
      <path class="cls-2"
            d="M142.76,60.35V40.08c0-4.73-2.93-10.36-11-10.36a14.41,14.41,0,0,0-11,4.73V8.11H108.31v2.25H113v50h-5.18V62.6h17.79V60.35h-5V44.81c0-5.4,1.8-8.33,3.38-9.91a7.32,7.32,0,0,1,5.4-2.25c4.28,0,5.18,3.6,5.18,6.53V60.35h-5V62.6h17.79V60.35h-4.73Z"/>
      <path class="cls-2"
            d="M237.56,60.35h-5V38.73c0-5.63-3.83-9-9.91-9a12.74,12.74,0,0,0-10.58,5c-1.58-3.15-4.73-5-9-5A14.08,14.08,0,0,0,192.75,34V30.62H179.92v2h5.18V60.12h-5.18v2.25h17.34V60.12h-4.5V44.81c.23-4.5.45-7.21,2-9.46a7.38,7.38,0,0,1,5.63-2.93,3.56,3.56,0,0,1,3.6,2.25c.68,1.35.68,3.38.68,5.63V60.12H200v2.25h17.11V60.12h-4.5V44.81c.23-4.5.45-7.21,2-9.46a7.38,7.38,0,0,1,5.63-2.93,3.56,3.56,0,0,1,3.6,2.25c.68,1.35.68,3.38.68,5.63V60.12H220v2.25h17.56V60.12h0Z"/>
      <path class="cls-2"
            d="M246.79,62.6a4.28,4.28,0,1,1,4.28-4.28,4.42,4.42,0,0,1-4.28,4.28m0,.9a5,5,0,1,0-5-5,4.85,4.85,0,0,0,5,5m-1.13-5h1.13L248.37,61h.9l-1.8-2.48a1.6,1.6,0,0,0,1.8-1.58c0-1.13-.45-1.58-2-1.58h-2.48v5.85h.68v-2.7Zm0-.68v-1.8h1.58c.68,0,1.35,0,1.35.9,0,1.13-1.13.9-2,.9Z"/>
    </g>
  </g>
</svg>
