<svg xmlns="http://www.w3.org/2000/svg" viewBox="0 0 201.54 27.12"><defs><style>.cls-1{isolation:isolate;}.cls-2{mix-blend-mode:multiply;}.cls-3,.cls-4{fill:#017eac;}.cls-3{fill-rule:evenodd;}.cls-5{fill:#010101;}.cls-6{fill:#1d7abf;}.cls-7{fill:#fff;}</style></defs><title>anthem-kaiser</title><g class="cls-1"><g id="Layer_2" data-name="Layer 2"><g id="Layer_1-2" data-name="Layer 1"><g class="cls-2"><path class="cls-3" d="M123.71,7.72a3.08,3.08,0,0,0-1-.62L122,19.28l3-8.39a3.17,3.17,0,0,0-1.35-3.16Z"/><path class="cls-3" d="M118.73,7l1.76,12.13L122.25,7a5.47,5.47,0,0,0-3.52,0Z"/><path class="cls-3" d="M117.28,7.72a3.17,3.17,0,0,0-1.4,3.11l3,8.39L118.32,7.1a2.65,2.65,0,0,0-1,.62Z"/><path class="cls-3" d="M111.17,8.86c2,3.52,4.09,7.36,6.06,10.73-.67-3-1.4-7.88-2.44-9.28-1.19-1.66-3.63-1.45-3.63-1.45Z"/><path class="cls-3" d="M107.59,10.62l8.24,9.59-5.08-11.3a4,4,0,0,0-3.16,1.71Z"/><path class="cls-3" d="M124.85,13.21,123.5,19.8c1.76-3.06,3.52-6.06,5.23-9.17-1.66.16-3.32.78-3.89,2.59Z"/><path class="cls-3" d="M129.2,10.62l-4.35,9.74L132.51,12a4.62,4.62,0,0,0-3.32-1.4Z"/><path class="cls-3" d="M106.5,15c2.69,2.07,5.39,4.2,8.08,6.27L107.33,11a7.2,7.2,0,0,0-.83,4Z"/><path class="cls-3" d="M133.45,13.21a3.4,3.4,0,0,0-.62-.88l-6.63,9c2.64-2,5.18-3.94,7.67-6a3.83,3.83,0,0,0-.41-2.18Z"/><path class="cls-3" d="M106.55,19.17l7,3.21c-2.33-2.33-4.66-4.56-7-6.84v3.63Z"/><path class="cls-3" d="M133.86,19.38V16.06l-6.63,6.48c2.28-1,4.35-2.07,6.63-3.16Z"/><path class="cls-3" d="M106.5,22.39c2.12.47,4.46,1,6.37,1.45l-6.37-4.2v2.75Z"/><path class="cls-3" d="M133.86,22.54V20c-2,1.3-4,2.59-5.86,3.89l5.86-1.35Z"/><polygon class="cls-3" points="106.5 25.55 112.72 25.55 106.5 22.9 106.5 25.55 106.5 25.55"/><path class="cls-3" d="M133.86,25.55V23.11c-2,.88-3.78,1.61-5.7,2.44Z"/><circle class="cls-4" cx="131.74" cy="7.41"/><path class="cls-3" d="M131.74,7.41a2.65,2.65,0,1,0-5.29,0c-.05,3.42,5.44,3.58,5.29,0Z"/><path class="cls-3" d="M114.07,5.49c.16-3.73-5.6-3.58-5.39,0-.21,3.73,5.75,3.78,5.39,0Z"/><path class="cls-3" d="M120.49,6.22a2.84,2.84,0,0,0,3.06-3,3,3,0,1,0-6.06,0,2.82,2.82,0,0,0,3,3Z"/><polygon class="cls-3" points="151.69 14.82 152.88 14.82 152.88 7.93 151.69 7.93 151.69 14.82 151.69 14.82"/><path class="cls-3" d="M149.41,12.85l.67,2h1.24l-2.38-6.89h-1.5l-2,5.86-2-2.49,2.64-3.37h-1.4l-2.44,3.26V7.93h-1.19v6.89h1.19V11.45l2.54,3.37h1.4l.67-2ZM148.11,9h0l1,2.85h-1.92L148.11,9Z"/><path class="cls-3" d="M160.34,23.63l-1.19-5H157v6.94h1.19V19.64l1.5,5.91H161l1.5-5.91v5.91h1.14V18.6h-2l-1.24,5Z"/><path class="cls-3" d="M166.61,18.6l-2.38,6.94h1.19l.62-2h2.54l.67,2h1.24l-2.38-6.94Zm-.26,4,.93-2.9h0l1,2.9Z"/><path class="cls-3" d="M175.37,23.94l-2.75-5.34H171v6.94h1.14V20.31l2.75,5.23h1.61V18.6h-1.14v5.34Z"/><path class="cls-3" d="M198.07,24.51h-2.85V22.59h2.07v-1h-2.07V19.64h2.59v-1H194v6.94h4v-1Z"/><path class="cls-3" d="M187.13,18.6h-.21V24l-2.75-5.39h-1.61v5.91h-3.63V22.59h2.12v-1h-2.12V19.64h2.59v-1h-3.78v6.94h6V20.26l2.75,5.29h1.61V19.64h2.12v5.91h1.19V19.64h2.07l-.05-1Z"/><path class="cls-3" d="M155.32,22.08a2.05,2.05,0,0,0,.67-1.5,1.93,1.93,0,0,0-.67-1.45,2.87,2.87,0,0,0-2-.52h-2v3h0v3h-3.68V22.59h2.12v-1h-2.12V19.64h2.59v-1h-3.78v6.94h6.06v-3h.57c.57.88,1.76,3,1.76,3h1.4l-1.87-3.06a1.73,1.73,0,0,0,.93-.41Zm-2.8-.47v-2h1c.93,0,1.3.36,1.3.93s-.36,1-1.3,1Z"/><path class="cls-3" d="M165,11.92h.62c.52.83,1.71,2.9,1.71,2.9h1.4l-1.87-3a2,2,0,0,0,.93-.47,1.93,1.93,0,0,0,.67-1.45,1.71,1.71,0,0,0-.67-1.45,2.81,2.81,0,0,0-2-.52h-2v2.9h0v3h-3.68v-2h2.12v-1h-2.12v-2h2.64v-1h-3.78v6.89h6v-2.9Zm0-1.09V8.91h1c.88,0,1.24.36,1.24,1s-.36,1-1.24,1h-1v-.05Z"/><path class="cls-3" d="M145.06,19.12a2.81,2.81,0,0,0-2-.52h-2v6.94h1.19V22.7h.83a2.81,2.81,0,0,0,2-.52,2.17,2.17,0,0,0,.67-1.55,2,2,0,0,0-.67-1.5Zm-1.81,2.54h-1v-2h1c.93,0,1.3.41,1.3,1s-.41,1-1.3,1Z"/><path class="cls-3" d="M158.17,12.85c0-1-.62-1.61-1.81-2.07-.93-.31-1.4-.57-1.4-1.14,0-.41.41-.88,1.3-.88a3.28,3.28,0,0,1,1.45.36v-1a3.36,3.36,0,0,0-1.45-.31c-1.5,0-2.49.83-2.49,1.92s.78,1.61,1.92,2c.88.31,1.3.62,1.3,1.19s-.52,1-1.35,1a3.58,3.58,0,0,1-1.87-.52v1.09a4.07,4.07,0,0,0,1.81.41c1.76,0,2.59-1,2.59-2.07Z"/><path class="cls-3" d="M198.9,24.1a1.19,1.19,0,1,1,1.19,1.19,1.17,1.17,0,0,1-1.19-1.19Zm1.19,1.45a1.45,1.45,0,1,0-1.45-1.45,1.45,1.45,0,0,0,1.45,1.45Zm-.31-1.35h.31l.41.73h.31l-.52-.73c.26-.05.47-.16.47-.47s-.21-.47-.62-.47h-.62v1.66h.26V24.2Zm0-.21v-.52h.36c.16,0,.36.05.36.26s-.21.26-.41.26Z"/></g><path class="cls-5" d="M21.41,20.81h2.87a3.14,3.14,0,0,1,1.58.28,1.36,1.36,0,0,1,.73,1.24,1.28,1.28,0,0,1-1,1.3,2,2,0,0,1-.62.11,2.83,2.83,0,0,1,.68.11,1.52,1.52,0,0,1,1.24,1.46,1.73,1.73,0,0,1-.17.73c-.45.9-1.58.9-2.48.9H21.46v-.23h.73V21h-.73v-.23Zm2,.23v2.59h.73c.68,0,1.07-.23,1.07-1.3S24.84,21,24.17,21h-.73Zm0,2.87v2.87h.9a1.09,1.09,0,0,0,.9-.39,1.93,1.93,0,0,0,.17-1,2.23,2.23,0,0,0-.23-1.13,1,1,0,0,0-.9-.34Z"/><path class="cls-5" d="M27.32,20.86h.79a5,5,0,0,0,1-.11v6h.56V27H27.32v-.23h.62V21.09h-.62Z"/><path class="cls-5" d="M32.22,23.34H34v3.44h.56V27H32.84v-.56a1.78,1.78,0,0,1-1.41.68c-1.07,0-1.07-.68-1.07-1.24V23.62H29.8V23.4h1.69v2.7c0,.28.06.68.45.68a1.43,1.43,0,0,0,.39-.11,1.3,1.3,0,0,0,.51-1.24v-1.8h-.62Z"/><path class="cls-5" d="M38.64,26A1.83,1.83,0,0,1,37,27.12a1.94,1.94,0,0,1-2-2,1.87,1.87,0,0,1,1.92-1.92,1.63,1.63,0,0,1,1.3.56A2.07,2.07,0,0,1,38.59,25H36.11v.68c0,.34.06,1.18.9,1.18a1.7,1.7,0,0,0,1.35-1Zm-1.13-1.86c0-.28-.06-.73-.62-.73s-.68.39-.68.79v.45h1.35v-.51Z"/><path class="cls-5" d="M44.11,22.38h-.28c-.11-.39-.34-1.52-1.58-1.52a1.51,1.51,0,0,0-1.46,1.3,7.35,7.35,0,0,0-.17,1.92c0,1.8.39,2.76,1.46,2.76a1.56,1.56,0,0,0,.73-.17,2.22,2.22,0,0,0,1.07-1.41h.28L44.05,27h-.23l-.28-.39a1.91,1.91,0,0,1-1.46.51A2.89,2.89,0,0,1,39.15,24a3.17,3.17,0,0,1,3-3.32,2.09,2.09,0,0,1,1.41.51l.17-.39H44Z"/><path class="cls-5" d="M44.67,23.34c.56,0,1.18,0,1.75-.06V24a2.38,2.38,0,0,1,.28-.39,1.08,1.08,0,0,1,.79-.39.72.72,0,0,1,.79.73.57.57,0,0,1-.56.62.56.56,0,0,1-.56-.51.48.48,0,0,1,.11-.34c0-.06.06-.06.06-.11a.12.12,0,0,0-.11-.11c-.11,0-.39.34-.39.34A2,2,0,0,0,46.47,25v1.69h.73v.23H44.78v-.23h.62V23.51h-.62v-.17Z"/><path class="cls-5" d="M52.67,25.88a1.91,1.91,0,0,1-1.92,1.18,2,2,0,1,1-.06-3.89,1.92,1.92,0,0,1,2,1.86,1.07,1.07,0,0,1-.06.84m-1.18-2a.73.73,0,0,0-.73-.51c-.84,0-.9.9-.9,1.69A2.86,2.86,0,0,0,50,26.44a.78.78,0,0,0,.73.45c.84,0,.84-1,.84-1.8s-.06-1.07-.11-1.18"/><path class="cls-5" d="M56,24.3h-.23a.85.85,0,0,0-.39-.62,1.38,1.38,0,0,0-.68-.23c-.39,0-.62.23-.62.51a.4.4,0,0,0,.17.34,2.44,2.44,0,0,0,.62.23l.28.06c.39.11,1.07.34,1.07,1.13a1.33,1.33,0,0,1-1.35,1.35,1.44,1.44,0,0,1-.79-.23,1,1,0,0,0-.28-.11.14.14,0,0,0-.11.23H53.4V25.59h.28a1.59,1.59,0,0,0,.39.9,1.11,1.11,0,0,0,.79.34c.45,0,.73-.28.73-.56,0-.45-.62-.56-1-.68-.56-.17-1.18-.39-1.18-1.24a1.12,1.12,0,0,1,1.18-1.18,1.67,1.67,0,0,1,.68.17.34.34,0,0,0,.23.06c.17,0,.17-.11.17-.28h.23V24.3Z"/><path class="cls-5" d="M59.49,24.3h-.28a.85.85,0,0,0-.39-.62,1.38,1.38,0,0,0-.68-.23c-.39,0-.62.23-.62.51a.4.4,0,0,0,.17.34,2.44,2.44,0,0,0,.62.23l.28.06c.39.11,1.07.34,1.07,1.13a1.33,1.33,0,0,1-1.35,1.35,1.44,1.44,0,0,1-.79-.23,1,1,0,0,0-.28-.11.14.14,0,0,0-.11.23h-.28V25.59h.28a1.59,1.59,0,0,0,.39.9,1.11,1.11,0,0,0,.79.34c.45,0,.73-.28.73-.56,0-.45-.62-.56-1-.68-.56-.17-1.18-.39-1.18-1.24A1.12,1.12,0,0,1,58,23.17a1.67,1.67,0,0,1,.68.17.34.34,0,0,0,.23.06c.17,0,.17-.11.17-.28h.23V24.3Z"/><path class="cls-6" d="M86.7,26.66a1.07,1.07,0,1,1,1.07-1.07,1,1,0,0,1-1.07,1.07m0,.23a1.24,1.24,0,1,0-1.24-1.24,1.25,1.25,0,0,0,1.24,1.24m-.28-1.18h.28l.39.62h.23l-.45-.62a.4.4,0,0,0,.45-.39c0-.28-.11-.39-.51-.39h-.56v1.46h.17Zm0-.17v-.45h.39c.17,0,.34,0,.34.23s-.28.23-.51.23Z"/><polygon class="cls-6" points="91.37 7.96 84.1 7.96 84.1 0.64 72.44 0.64 72.44 7.96 65.18 7.96 65.18 19.62 72.44 19.62 72.44 26.89 84.1 26.89 84.1 19.62 91.37 19.62 91.37 7.96"/><path class="cls-7" d="M85.06,11.29c-1.8,0-3.44.28-4.39.34s-1.8.62-1.13,1.92,3,5.69,3.15,5.86a7.16,7.16,0,0,0,2.76-5.69,5.77,5.77,0,0,0-.39-2.42M83,17.76s-2.2-4.22-2.48-4.68,0-.51.28-.51,3.55-.28,3.55-.28A6.37,6.37,0,0,1,83,17.76m-7.15-6.14c-1-.06-2.53-.34-4.28-.34a7.17,7.17,0,0,0-.45,2.48,7.34,7.34,0,0,0,2.7,5.63c.45-.84,2.48-4.62,3.1-5.8.73-1.35-.06-1.92-1.07-2M76,13.14c-.23.45-2.48,4.68-2.48,4.68a6.43,6.43,0,0,1-1.35-5.46s3.32.28,3.55.28.51.06.28.51m1.69-2.82C78,10,78,9.6,77.57,9.09c-.68-.84-.11-1.69.62-1.63a.92.92,0,0,1,.62,1.63c-.39.51-.39.9-.11,1.24a1.54,1.54,0,0,0,1.07.39h5a4.81,4.81,0,0,0-1.58-2.2,8.92,8.92,0,0,0-5-2,7,7,0,0,0-5.07,2.14,7.74,7.74,0,0,0-1.46,2.08H76.5a1.65,1.65,0,0,0,1.18-.45M80.1,7.85a6.31,6.31,0,0,1,2.93,2H79.71c0-.62.73-.73.39-2m-3.66,0c-.34,1.3.39,1.35.39,2H73.51a4.91,4.91,0,0,1,2.93-2m1.8,6.42c-.28,0-.45.17-.62.51s-2.76,4.06-3.38,5A7.32,7.32,0,0,0,78.3,21a7.41,7.41,0,0,0,4-1.18l-3.44-5c-.17-.34-.34-.51-.62-.51m0,5.63a5.19,5.19,0,0,1-2.59-.56,37.63,37.63,0,0,1,2.59-3.77,37.63,37.63,0,0,1,2.59,3.77,5.19,5.19,0,0,1-2.59.56"/><path class="cls-6" d="M43.6,8.92A3.78,3.78,0,0,0,41,8.08a3.7,3.7,0,0,0-2.59,1.18,4.6,4.6,0,0,0-1.18,3.1,4.45,4.45,0,0,0,1.18,3,3.92,3.92,0,0,0,2.76,1.13,3.38,3.38,0,0,0,3.38-2.87V13.6H44v.06A2.67,2.67,0,0,1,41.4,16c-1.18,0-1.86-.84-1.92-2.25V11.79h5.24v-.06A3.52,3.52,0,0,0,43.6,8.92m-1.07,2.25h-3v-.84A1.8,1.8,0,0,1,39.94,9a1.36,1.36,0,0,1,1-.39c1,0,1.52.62,1.52,1.75v.79Z"/><path class="cls-6" d="M27.15,14.67h-.62v.06a1.05,1.05,0,0,1-1.07,1c-.62,0-.9-.39-.9-1.24V8.81h2V8.24H24.62V5.82h-.06c-.45.06-1.35.11-1.86.11h-.11V8.24h-1.3v.56h1.3v5c0,1.8.79,2.76,2.31,2.76a2.06,2.06,0,0,0,2.2-1.75Z"/><path class="cls-6" d="M20.17,15.74v-5a2.46,2.46,0,0,0-.73-1.92,2.78,2.78,0,0,0-1.92-.73A3.1,3.1,0,0,0,15,9.31v-1H11.83v.51H13v6.87h-2.2l-4.56-13V2.61H5.69v.06L1.24,15.74H0v.51H3.72v-.51H2L3.27,12h4l1.24,3.72H6.76v.51h9.46v-.56H15V11.85c0-2.31,1.24-3.1,2-3.1s1.18.51,1.18,1.52v5.41H17.07v.56h4.34v-.56H20.17ZM5.13,6.1,7,11.4H3.44Z"/><path class="cls-6" d="M35.71,15.74V10.67A2.52,2.52,0,0,0,33,8.08a3.6,3.6,0,0,0-2.76,1.18V2.67H27.1v.56h1.18V15.74H27v.56h4.45v-.56H30.19V11.85A3.32,3.32,0,0,1,31,9.37a1.83,1.83,0,0,1,1.35-.56c1.07,0,1.3.9,1.3,1.63v5.3H32.45v.56H36.9v-.56H35.71Z"/><path class="cls-6" d="M59.43,15.74H58.19V10.33a2.2,2.2,0,0,0-2.48-2.25,3.19,3.19,0,0,0-2.65,1.24,2.35,2.35,0,0,0-2.25-1.24,3.52,3.52,0,0,0-2.59,1.07V8.3H45v.51h1.3v6.87H45v.56h4.34v-.56H48.22V11.85a4.34,4.34,0,0,1,.51-2.37,1.85,1.85,0,0,1,1.41-.73.89.89,0,0,1,.9.56,3.44,3.44,0,0,1,.17,1.41v5H50v.56H54.3v-.56H53.18V11.85a4.34,4.34,0,0,1,.51-2.37,1.85,1.85,0,0,1,1.41-.73.89.89,0,0,1,.9.56,3.44,3.44,0,0,1,.17,1.41v5H55v.56h4.39v-.56h0Z"/><path class="cls-6" d="M61.74,16.3a1.07,1.07,0,1,1,1.07-1.07,1.11,1.11,0,0,1-1.07,1.07m0,.23a1.24,1.24,0,1,0-1.24-1.24,1.21,1.21,0,0,0,1.24,1.24m-.28-1.24h.28l.39.62h.23l-.45-.62a.4.4,0,0,0,.45-.39c0-.28-.11-.39-.51-.39h-.62V16h.17v-.68Zm0-.17v-.45h.39c.17,0,.34,0,.34.23s-.28.23-.51.23Z"/></g></g></g></svg>