<svg xmlns="http://www.w3.org/2000/svg" viewBox="0 0 240.13 55.06" width="240" height="55"><defs><style>.cls-1,.cls-2,.cls-3{fill:none;stroke-miterlimit:10;}.cls-1{stroke:#6e7881;stroke-width:0.78px;}.cls-2{stroke:#474351;}.cls-2,.cls-3{stroke-width:1.57px;}.cls-3{stroke:#0478c2;}</style></defs><title>broker-access</title><g id="Layer_2" data-name="Layer 2"><g id="clientheader"><polyline id="Chevron_-_Right" data-name="Chevron - Right" class="cls-1" points="140.14 40.19 152.66 27.66 140.14 15.14"/><polyline id="Chevron_-_Right-2" data-name="Chevron - Right" class="cls-1" points="115.87 40.19 128.4 27.66 115.87 15.14"/><polyline id="Chevron_-_Right-3" data-name="Chevron - Right" class="cls-1" points="91.6 40.19 104.13 27.66 91.6 15.14"/><g id="Window"><path class="cls-2" d="M54.28,54.28H12A11.26,11.26,0,0,1,.78,43V.78H65.54V43A11.26,11.26,0,0,1,54.28,54.28Z"/><line class="cls-2" x1="0.78" y1="14.86" x2="65.54" y2="14.86"/><circle class="cls-2" cx="7.82" cy="7.82" r="2.82"/><circle class="cls-2" cx="16.27" cy="7.82" r="2.82"/><circle class="cls-2" cx="24.72" cy="7.82" r="2.82"/></g><g id="Window-2" data-name="Window"><path class="cls-3" d="M228.08,54.28H185.85A11.26,11.26,0,0,1,174.59,43V.78h64.76V43A11.26,11.26,0,0,1,228.08,54.28Z"/><line class="cls-3" x1="174.59" y1="14.86" x2="239.35" y2="14.86"/><circle class="cls-3" cx="181.63" cy="7.82" r="2.82"/><circle class="cls-3" cx="190.07" cy="7.82" r="2.82"/><circle class="cls-3" cx="198.52" cy="7.82" r="2.82"/></g></g></g></svg>
