<svg xmlns="http://www.w3.org/2000/svg" viewBox="0 0 24.29 18.69" width="24" height="18"><defs><style>.cls-1{fill:#0f493e;opacity:0.08;}.cls-2{fill:#8ac340;}.cls-3{fill:#7aaa41;}</style></defs><title>Asset 2</title><g id="Layer_2" data-name="Layer 2"><g id="Layer_1-2" data-name="Layer 1"><path class="cls-1" d="M21.87,3.52,8.65,17.22l0,1.47h.6L23.6,7.15A14.88,14.88,0,0,0,21.87,3.52Z"/><path class="cls-2" d="M24,2.88,21.38.27a.93.93,0,0,0-1.31,0L8.78,11.91,3.92,7.09a.93.93,0,0,0-1.31,0L.27,9.41a.91.91,0,0,0,0,1.29l7.81,7.73a.92.92,0,0,0,.76.26.92.92,0,0,0,.76-.26L24,4.17A.91.91,0,0,0,24,2.88Z"/><path class="cls-3" d="M9.61,18.43,24,4.17a.91.91,0,0,0,0-1.29l-.41-.41L8.81,17l-8.18-8-.36.35a.91.91,0,0,0,0,1.29l7.81,7.73a.92.92,0,0,0,.76.26A.92.92,0,0,0,9.61,18.43Z"/></g></g></svg>
