<svg xmlns="http://www.w3.org/2000/svg" xmlns:xlink="http://www.w3.org/1999/xlink" viewBox="0 0 572.8 93.32" width="573" height="93"><defs><style>.cls-1{fill:none;}.cls-2{fill:url(#New_Gradient_Swatch_6);}.cls-3{clip-path:url(#clip-path);}.cls-4{fill:url(#New_Gradient_Swatch_6-2);}.cls-5{fill:#fff;}.cls-6{fill:url(#linear-gradient);}.cls-7{fill:url(#linear-gradient-2);}.cls-8{fill:#2aaae2;}.cls-9{fill:#3d3d3d;}.cls-10{fill:#020202;}.cls-11{fill:#1f7bbf;}</style><linearGradient id="New_Gradient_Swatch_6" x1="471.12" y1="38.93" x2="470.53" y2="9.44" gradientUnits="userSpaceOnUse"><stop offset="0" stop-color="#4ac6f2"/><stop offset="1" stop-color="#2aaae2"/></linearGradient><clipPath id="clip-path"><rect class="cls-1" x="444.11" y="1.11" width="53.59" height="53.59" rx="11.91" ry="11.91"/></clipPath><linearGradient id="New_Gradient_Swatch_6-2" x1="462.02" y1="64.12" x2="456.36" y2="31.07" xlink:href="#New_Gradient_Swatch_6"/><linearGradient id="linear-gradient" x1="458.73" y1="50.47" x2="462.53" y2="37.16" xlink:href="#New_Gradient_Swatch_6"/><linearGradient id="linear-gradient-2" x1="50.55" y1="62.66" x2="43.24" y2="45.41" gradientTransform="matrix(-1, 0, 0, 1, 514.92, 0)" xlink:href="#New_Gradient_Swatch_6"/></defs><title>clear_value_logo</title><g id="Layer_2" data-name="Layer 2"><g id="Layer_1-2" data-name="Layer 1"><rect class="cls-2" x="444.11" y="1.11" width="53.59" height="53.59" rx="11.91" ry="11.91"/><g class="cls-3"><path class="cls-4" d="M501.34,31.56c-15.88-8.39-23.67-6.59-32.36,3s-26.37,8.69-36.56,0-15.88-2.1-15.88-2.1V60.72h84.8Z"/><path class="cls-5" d="M485.71,33.69h-12V45.24H467.5V33.69H456V27.48H467.5v-12h6.22v12h12Z"/><path class="cls-6" d="M418.83,31.56c15.88-8.39,23.67-6.59,32.36,3s26.37,8.69,36.56,0,15.88-2.1,15.88-2.1V51.9h-84.8Z"/><path class="cls-7" d="M427.31,43c15.88-8.39,23.67-6.59,32.36,3s26.37,8.69,36.56,0,15.88-2.1,15.88-2.1V57.09h-84.8Z"/><path class="cls-8" d="M418.83,41.28c15.88-8.39,23.67-6.59,32.36,3s26.37,8.69,36.56,0,15.88-2.1,15.88-2.1V55.36h-84.8Z"/></g><path class="cls-9" d="M387.36,75.06l-2.06.72a8.42,8.42,0,0,0-7.39-4.3c-3.89,0-8.91,3.13-8.91,9.89s5,9.94,8.91,9.94A8.42,8.42,0,0,0,385.3,87l2.06.72a10.65,10.65,0,0,1-9.45,5.6c-4.92,0-11.15-3.94-11.15-12S373,69.46,377.92,69.46A10.65,10.65,0,0,1,387.36,75.06Z"/><path class="cls-9" d="M395,93h-2.28V61.67H395Z"/><path class="cls-9" d="M421.12,81.37a5.58,5.58,0,0,1-.09.94H401.11a9.07,9.07,0,0,0,8.91,9,9.24,9.24,0,0,0,7.12-3.13l1.75,1.16a11.37,11.37,0,0,1-8.86,4c-5,0-11.19-3.94-11.19-12S405,69.46,410,69.46,421.12,73.4,421.12,81.37Zm-20-.94h17.77c-.45-6.18-5.06-9-8.91-9S401.56,74.25,401.11,80.43Z"/><path class="cls-9" d="M445.21,74.88V69.73h2.24V93h-2.24V87.82a9.62,9.62,0,0,1-9,5.51c-5,0-11.1-3.94-11.1-12s6.13-11.91,11.1-11.91A9.69,9.69,0,0,1,445.21,74.88Zm-17.82,6.49c0,6.8,5,9.94,9,9.94s8.91-3.27,8.91-9.94c0-6.85-4.92-9.89-8.91-9.89S427.39,74.61,427.39,81.37Z"/><path class="cls-9" d="M465.31,69.6v2c-.54,0-.94,0-1.52,0-4.61,0-8.06,3.09-8.91,8.82V93h-2.28V69.73h2.28v7a8.74,8.74,0,0,1,9-7.21C464.37,69.51,464.77,69.55,465.31,69.6Z"/><path class="cls-9" d="M479.68,93h-.45L469.11,69.73h2.33l8,18.89,8-18.89h2.33Z"/><path class="cls-9" d="M510.08,74.88V69.73h2.24V93h-2.24V87.82a9.62,9.62,0,0,1-9,5.51c-5,0-11.1-3.94-11.1-12s6.13-11.91,11.1-11.91A9.69,9.69,0,0,1,510.08,74.88Zm-17.82,6.49c0,6.8,5,9.94,9,9.94s8.91-3.27,8.91-9.94c0-6.85-4.92-9.89-8.91-9.89S492.26,74.61,492.26,81.37Z"/><path class="cls-9" d="M520.42,93h-2.28V61.67h2.28Z"/><path class="cls-9" d="M546.25,69.73V93H544V87a9.18,9.18,0,0,1-8.73,6.36c-4.52,0-8.6-2.69-8.6-9.76V69.73h2.24V83.61c0,5.51,2.69,7.7,6.63,7.7,4.43,0,7.52-3.94,8.46-7.75V69.73Z"/><path class="cls-9" d="M572.8,81.37a5.58,5.58,0,0,1-.09.94H552.78a9.07,9.07,0,0,0,8.91,9,9.24,9.24,0,0,0,7.12-3.13l1.75,1.16a11.37,11.37,0,0,1-8.86,4c-5,0-11.19-3.94-11.19-12s6.18-11.91,11.15-11.91S572.8,73.4,572.8,81.37Zm-20-.94h17.77c-.45-6.18-5.06-9-8.91-9S553.23,74.25,552.78,80.43Z"/><path class="cls-10" d="M74.84,70.5h10a11,11,0,0,1,5.51,1A4.77,4.77,0,0,1,93,75.82a4.47,4.47,0,0,1-3.54,4.53,7.08,7.08,0,0,1-2.17.39,9.88,9.88,0,0,1,2.36.39c2.17.59,4.33,2.17,4.33,5.12a6.06,6.06,0,0,1-.59,2.56C91.77,92,87.83,92,84.68,92H75v-.79h2.56V71.29H75V70.5Zm7.09.79v9.06h2.56c2.36,0,3.74-.79,3.74-4.53,0-4.14-1.38-4.73-3.74-4.73H81.93Zm0,10v10h3.15A3.81,3.81,0,0,0,88.23,90a6.75,6.75,0,0,0,.59-3.54A7.81,7.81,0,0,0,88,82.52a3.59,3.59,0,0,0-3.15-1.18Z"/><path class="cls-10" d="M95.51,70.7h2.76a17.34,17.34,0,0,0,3.35-.39V91.38h2v.79H95.51v-.79h2.17V71.49H95.51Z"/><path class="cls-10" d="M112.65,79.37h6.11v12h2v.79h-5.91v-2a6.24,6.24,0,0,1-4.92,2.36c-3.74,0-3.74-2.36-3.74-4.33V80.35h-2v-.79h5.91V89c0,1,.2,2.36,1.58,2.36A5,5,0,0,0,113,91c1.77-1.18,1.77-3,1.77-4.33v-6.3h-2.17Z"/><path class="cls-10" d="M135.1,88.62c-.79,1.38-2.17,3.94-5.91,3.94a6.78,6.78,0,0,1-7.09-6.89,6.52,6.52,0,0,1,6.7-6.7,5.7,5.7,0,0,1,4.53,2,7.24,7.24,0,0,1,1.58,4.14h-8.67v2.36c0,1.18.2,4.14,3.15,4.14,2.56,0,3.94-2.17,4.73-3.35Zm-3.94-6.5c0-1-.2-2.56-2.17-2.56-2.17,0-2.36,1.38-2.36,2.76v1.58h4.73V82.12Z"/><path class="cls-10" d="M154.2,76h-1c-.39-1.38-1.18-5.32-5.51-5.32-3.94,0-4.73,3.35-5.12,4.53a25.7,25.7,0,0,0-.59,6.7c0,6.3,1.38,9.65,5.12,9.65a5.45,5.45,0,0,0,2.56-.59c2.56-1.18,3.15-3.54,3.74-4.92h1L154,92.17h-.79l-1-1.38c-.59.59-2,1.77-5.12,1.77-7.09,0-10.24-5.51-10.24-11,0-6.89,5.12-11.62,10.63-11.62a7.3,7.3,0,0,1,4.92,1.77l.59-1.38h.79Z"/><path class="cls-10" d="M156.17,79.37c2,0,4.14,0,6.11-.2v2.56a8.34,8.34,0,0,1,1-1.38A3.76,3.76,0,0,1,166,79a2.53,2.53,0,0,1,2.76,2.56,2,2,0,0,1-2,2.17,2,2,0,0,1-2-1.77,1.66,1.66,0,0,1,.39-1.18c0-.2.2-.2.2-.39A.42.42,0,0,0,165,80c-.39,0-1.38,1.18-1.38,1.18a7,7,0,0,0-1.18,4.14v5.91H165V92h-8.47v-.79h2.17V80h-2.17v-.59Z"/><path class="cls-10" d="M184.14,88.23c-.39,1.18-2.17,4.14-6.7,4.14-4.92,0-7.48-3.35-7.48-6.89,0-4.73,4.14-6.7,7.29-6.7,2.76,0,6.89,1.58,7.09,6.5a3.72,3.72,0,0,1-.2,3M180,81.33a2.54,2.54,0,0,0-2.56-1.77c-3,0-3.15,3.15-3.15,5.91,0,3.54.39,4.33.59,4.73a2.74,2.74,0,0,0,2.56,1.58c3,0,3-3.35,3-6.3,0-3.35-.2-3.74-.39-4.14"/><path class="cls-10" d="M195.75,82.71H195a3,3,0,0,0-1.38-2.17,4.83,4.83,0,0,0-2.36-.79c-1.38,0-2.17.79-2.17,1.77a1.4,1.4,0,0,0,.59,1.18,8.53,8.53,0,0,0,2.17.79l1,.2c1.38.39,3.74,1.18,3.74,3.94a4.63,4.63,0,0,1-4.73,4.73,5,5,0,0,1-2.76-.79,3.33,3.33,0,0,0-1-.39.47.47,0,0,0-.39.79h-1V87.24h1a5.57,5.57,0,0,0,1.38,3.15,3.89,3.89,0,0,0,2.76,1.18c1.58,0,2.56-1,2.56-2,0-1.58-2.17-2-3.54-2.36-2-.59-4.14-1.38-4.14-4.33a3.91,3.91,0,0,1,4.14-4.14,5.83,5.83,0,0,1,2.36.59,1.18,1.18,0,0,0,.79.2c.59,0,.59-.39.59-1h.79v4.14Z"/><path class="cls-10" d="M208,82.71h-1a3,3,0,0,0-1.38-2.17,4.83,4.83,0,0,0-2.36-.79c-1.38,0-2.17.79-2.17,1.77a1.4,1.4,0,0,0,.59,1.18,8.53,8.53,0,0,0,2.17.79l1,.2c1.38.39,3.74,1.18,3.74,3.94a4.63,4.63,0,0,1-4.73,4.73,5,5,0,0,1-2.76-.79,3.33,3.33,0,0,0-1-.39.47.47,0,0,0-.39.79h-1V87.24h1a5.57,5.57,0,0,0,1.38,3.15,3.89,3.89,0,0,0,2.76,1.18c1.58,0,2.56-1,2.56-2,0-1.58-2.17-2-3.54-2.36-2-.59-4.14-1.38-4.14-4.33a3.91,3.91,0,0,1,4.14-4.14,5.83,5.83,0,0,1,2.36.59,1.18,1.18,0,0,0,.79.2c.59,0,.59-.39.59-1h.79v4.14Z"/><path class="cls-11" d="M303.08,91a3.74,3.74,0,1,1,3.74-3.74A3.62,3.62,0,0,1,303.08,91m0,.79a4.33,4.33,0,1,0-4.33-4.33,4.37,4.37,0,0,0,4.33,4.33m-1-4.14h1l1.38,2.17h.79l-1.58-2.17a1.4,1.4,0,0,0,1.58-1.38c0-1-.39-1.38-1.77-1.38h-2V90h.59Zm0-.59V85.47h1.38c.59,0,1.18,0,1.18.79,0,1-1,.79-1.77.79Z"/><polygon class="cls-11" points="319.43 25.6 294.03 25.6 294.03 0 253.26 0 253.26 25.6 227.85 25.6 227.85 66.37 253.26 66.37 253.26 91.77 294.03 91.77 294.03 66.37 319.43 66.37 319.43 25.6"/><path class="cls-5" d="M297.37,37.22c-6.3,0-12,1-15.36,1.18-3.54.2-6.3,2.17-3.94,6.7,2.56,4.53,10.63,19.89,11,20.48a25,25,0,0,0,9.65-19.89,20.18,20.18,0,0,0-1.38-8.47m-7.29,22.65s-7.68-14.77-8.67-16.35c-.79-1.58,0-1.77,1-1.77.79,0,12.41-1,12.41-1a22.28,22.28,0,0,1-4.73,19.1m-25-21.47c-3.35-.2-8.86-1.18-15-1.18a25.07,25.07,0,0,0-1.58,8.67A25.64,25.64,0,0,0,258,65.58c1.58-3,8.67-16.15,10.83-20.28,2.56-4.73-.2-6.7-3.74-6.89m.59,5.32C264.88,45.3,257,60.07,257,60.07A22.46,22.46,0,0,1,252.28,41s11.62,1,12.41,1c1,0,1.77.2,1,1.77m5.91-9.85c1-1,1.18-2.56-.39-4.33-2.36-3-.39-5.91,2.17-5.71s4.73,2.76,2.17,5.71c-1.38,1.77-1.38,3.15-.39,4.33a5.39,5.39,0,0,0,3.74,1.38h17.33c-1.77-3.94-2.36-4.92-5.51-7.68-4.14-3.54-11.82-6.89-17.33-6.89a24.38,24.38,0,0,0-17.72,7.48,27,27,0,0,0-5.12,7.29h16.94c2-.2,3.35-.59,4.14-1.58M280,25.21c3.94.79,7.29,3.94,10.24,6.89H278.66c0-2.17,2.56-2.56,1.38-6.89m-12.8,0c-1.18,4.53,1.38,4.73,1.38,6.89H257a17.18,17.18,0,0,1,10.24-6.89m6.3,22.45c-1,0-1.58.59-2.17,1.77-.59,1-9.65,14.18-11.82,17.33a25.6,25.6,0,0,0,14.18,4.33,25.91,25.91,0,0,0,14-4.14s-11.23-16.35-12-17.53c-.59-1.18-1.18-1.77-2.17-1.77m0,19.69a18.14,18.14,0,0,1-9.06-2s8.27-13.19,9.06-13.19,9.06,13.19,9.06,13.19a18.14,18.14,0,0,1-9.06,2"/><path class="cls-11" d="M152.43,28.95c-2.17-2-5.32-3-9.06-3a12.94,12.94,0,0,0-9.06,4.14A16.07,16.07,0,0,0,130.17,41a15.57,15.57,0,0,0,4.14,10.63A13.72,13.72,0,0,0,144,55.54a11.82,11.82,0,0,0,11.82-10v-.2h-2v.2a9.35,9.35,0,0,1-9.06,8.07c-4.14,0-6.5-3-6.7-7.88V39h18.32v-.2c0-4.33-1.38-7.68-3.94-9.85m-3.74,7.88H138.05v-3a6.3,6.3,0,0,1,1.58-4.53A4.75,4.75,0,0,1,143.17,28c3.35,0,5.32,2.17,5.32,6.11v2.76Z"/><path class="cls-11" d="M94.92,49H92.76v.2c-.2,1.38-1,3.54-3.74,3.54-2.17,0-3.15-1.38-3.15-4.33V28.56h6.89v-2h-6.7V18.12h-.2c-1.58.2-4.73.39-6.5.39H79v8.07H74.44v2H79V45.89c0,6.3,2.76,9.65,8.07,9.65,6.11,0,7.48-4.73,7.68-6.11Z"/><path class="cls-11" d="M70.5,52.78V35.25a8.62,8.62,0,0,0-2.56-6.7A9.72,9.72,0,0,0,61.25,26a10.83,10.83,0,0,0-8.86,4.33V26.78h-11v1.77h4.14v24H37.81l-16-45.49v-.2h-2v.2L4.33,52.78H0v1.77H13V52.78H7.09l4.33-13h14l4.33,13H23.63v1.77H56.72v-2H52.38V39.19c0-8.07,4.33-10.83,7.09-10.83s4.14,1.77,4.14,5.32V52.58H59.67v2H74.84v-2H70.5ZM17.92,19.1l6.5,18.51H12Z"/><path class="cls-11" d="M124.86,52.78V35.05c0-4.14-2.56-9.06-9.65-9.06a12.6,12.6,0,0,0-9.65,4.14v-23H94.73v2h4.14V52.78H94.33v2h15.56v-2h-4.33V39.19c0-4.73,1.58-7.29,3-8.67a6.4,6.4,0,0,1,4.73-2c3.74,0,4.53,3.15,4.53,5.71V52.78h-4.33v2H129v-2h-4.14Z"/><path class="cls-11" d="M207.77,52.78h-4.33V33.87c0-4.92-3.35-7.88-8.67-7.88a11.14,11.14,0,0,0-9.26,4.33c-1.38-2.76-4.14-4.33-7.88-4.33a12.31,12.31,0,0,0-9.06,3.74v-3H157.35v1.77h4.53v24h-4.53v2h15.16v-2h-3.94V39.19c.2-3.94.39-6.3,1.77-8.27a6.45,6.45,0,0,1,4.92-2.56,3.11,3.11,0,0,1,3.15,2c.59,1.18.59,3,.59,4.92V52.58h-4.14v2h15v-2h-3.94V39.19c.2-3.94.39-6.3,1.77-8.27a6.45,6.45,0,0,1,4.92-2.56,3.11,3.11,0,0,1,3.15,2c.59,1.18.59,3,.59,4.92V52.58h-3.94v2h15.36v-2h0Z"/><path class="cls-11" d="M215.84,54.75A3.74,3.74,0,1,1,219.58,51a3.87,3.87,0,0,1-3.74,3.74m0,.79a4.33,4.33,0,1,0-4.33-4.33,4.24,4.24,0,0,0,4.33,4.33m-1-4.33h1l1.38,2.17H218l-1.58-2.17A1.4,1.4,0,0,0,218,49.82c0-1-.39-1.38-1.77-1.38h-2.17v5.12h.59V51.2Zm0-.59V49h1.38c.59,0,1.18,0,1.18.79,0,1-1,.79-1.77.79Z"/></g></g></svg>
