<svg xmlns="http://www.w3.org/2000/svg" viewBox="0 0 27.53 27.53"><defs><style>.cls-1{fill:#999;}.cls-2{fill:#fff;}</style></defs><title>Ресурс 2</title><g id="Слой_2" data-name="Слой 2"><g id="results"><circle class="cls-1" cx="13.76" cy="13.76" r="13.76" transform="translate(-1.04 26.4) rotate(-85.48)"/><path class="cls-2" d="M19.82,10.15a3,3,0,0,0-3.17-3.27,4.88,4.88,0,0,0-2.3.53,1,1,0,0,1-1.24,0,4.9,4.9,0,0,0-2.31-.53,3,3,0,0,0-3.15,3.27,5.61,5.61,0,0,0,1.27,3.06,2.39,2.39,0,0,1,.48.86,6.16,6.16,0,0,1-.06,1.28,6.73,6.73,0,0,0,0,2.05c.28,2.23,1.33,3.24,2.19,3.24h0c.54,0,1.31-1.51,1.24-3.11a1.07,1.07,0,0,1,.29-.82,1,1,0,0,1,1.38,0,1.08,1.08,0,0,1,.29.82c-.06,1.6.7,3.11,1.26,3.11.86,0,1.91-1,2.17-3.24a6.72,6.72,0,0,0,0-2.05,6.16,6.16,0,0,1-.07-1.28,2.37,2.37,0,0,1,.47-.86A5.58,5.58,0,0,0,19.82,10.15Z"/></g></g></svg>