<svg xmlns="http://www.w3.org/2000/svg" width="24" height="24" viewBox="0 0 24 24">
    <g fill="none" fill-rule="evenodd">
        <g fill="#FFF">
            <path d="M13.368 12.415l-1.31-3.494a18.35 18.35 0 0 1-.526-1.626 14.685 14.685 0 0 1-.485 1.626l-1.328 3.494h3.649zm1.812 4.766l-1.404-3.586H9.257L7.87 17.18H6.543L11 5.86h1.103l4.434 11.32H15.18z"/>
            <path d="M9.862 12.317h3.364l-1.26-3.36c-.138-.36-.28-.79-.428-1.284a16.2 16.2 0 0 1-.399 1.282l-1.277 3.362zm3.647.196H9.577l1.378-3.626c.208-.585.37-1.128.482-1.615l.086-.374.103.37c.179.638.355 1.181.521 1.618l1.362 3.627zm1.737 4.57h1.148L12.036 5.957h-.969l-4.38 11.126h1.115l1.389-3.586h4.651l.026.061 1.378 3.525zm1.434.196h-1.567l-.025-.063-1.379-3.523H9.325l-1.388 3.586H6.4l4.534-11.517h1.235l.025.062L16.68 17.28z"/>
            <path d="M1.272 22.402h17.99a3.144 3.144 0 0 0 3.14-3.14V1.272h-18a3.134 3.134 0 0 0-3.13 3.13v18zm17.99 1.174H.098V4.402A4.308 4.308 0 0 1 4.402.098h19.174v19.164a4.318 4.318 0 0 1-4.314 4.314z"/>
        </g>
    </g>
</svg>
