<?xml version="1.0" encoding="utf-8"?>
<!-- Generator: Adobe Illustrator 22.0.1, SVG Export Plug-In . SVG Version: 6.00 Build 0)  -->
<svg version="1.1" id="Layer_1" xmlns="http://www.w3.org/2000/svg" xmlns:xlink="http://www.w3.org/1999/xlink" x="0px" y="0px"
	 viewBox="0 0 30.7 29" style="enable-background:new 0 0 30.7 29;" xml:space="preserve" width="31" height="29">
<style type="text/css">
	.st0{fill:none;stroke:#FFFFFF;stroke-width:1.4;stroke-miterlimit:10;}
</style>
<g id="Gift_2_">
	<g>
		<rect x="1.6" y="7.5" class="st0" width="28" height="4.9"/>
		<path class="st0" d="M27.2,12.4l-0.9,11.3c-0.2,2.5-2.3,4.5-4.9,4.5H9.8c-2.5,0-4.7-2-4.9-4.5L4.1,12.4"/>
		<line class="st0" x1="15.6" y1="7.5" x2="15.6" y2="28.2"/>
	</g>
	<path class="st0" d="M9.5,7.5c-1.7,0-3-1.4-3-3s1.4-3,3-3s2.7,0.6,3.8,2.3c0.4,0.6,2.3,3.8,2.3,3.8"/>
	<path class="st0" d="M21.7,7.5c1.7,0,3-1.4,3-3s-1.4-3-3-3S19,2,17.9,3.7c-0.4,0.6-2.3,3.8-2.3,3.8"/>
</g>
</svg>
