<svg xmlns="http://www.w3.org/2000/svg" viewBox="0 0 34.31 24.19" width="34" height="24"><defs><style>.cls-1{fill:none;stroke:#fff;stroke-miterlimit:10;}</style></defs><title>icon-menu3</title><g id="Layer_2" data-name="Layer 2"><g id="chrome"><g id="Users"><path class="cls-1" d="M16.39,5A4.46,4.46,0,0,0,11.82.5,4.45,4.45,0,0,0,7.25,5c0,.51.51,3,.51,3,.39,2.18,1.82,4,4.06,4s3.64-1.82,4.06-4C15.88,8.06,16.37,5.54,16.39,5Z"/><path class="cls-1" d="M23.09,23.69H.55l.38-4.38c.21-1.67,1.87-2.81,3.59-3.14l7.3-1,7.37,1c1.91.34,3.52,1.4,3.64,3.32Z"/><path class="cls-1" d="M28.29,8A3.66,3.66,0,0,0,21,8c0,.4.41,2.39.41,2.39.32,1.72,1.46,3.18,3.25,3.18s2.91-1.44,3.25-3.18C27.88,10.43,28.27,8.45,28.29,8Z"/><path class="cls-1" d="M24.63,16.36l6,.72c1.46.26,2.8,1.11,2.92,2.67l.21,3.93h-7"/></g></g></g></svg>
