<svg version="1.1" id="Layer_1" xmlns="http://www.w3.org/2000/svg" xmlns:xlink="http://www.w3.org/1999/xlink" x="0px" y="0px"
	 viewBox="0 0 19 22.7" width="19" height="23" xml:space="preserve">
<style type="text/css">
	.st0{fill:#0099CD;}
	.st1{fill:#FFFFFF;}
</style>
<g>
	<path class="st0" d="M15.8,3.6L15.8,3.6C12.3,0,6.6,0,3.1,3.5l0,0c-3.5,3.5-3.5,9.2,0,12.7l6.4,6.4l6.4-6.4
		C19.3,12.8,19.3,7.1,15.8,3.6z"/>
	<g>
		<g>
			<path class="st1" d="M7.3,6.1C7.8,6,8.6,5.9,9.4,5.9c1.2,0,2,0.2,2.5,0.7c0.4,0.4,0.7,1,0.7,1.7c0,1.2-0.7,1.9-1.7,2.2v0
				c0.7,0.2,1.1,0.9,1.3,1.8c0.3,1.2,0.5,2.1,0.7,2.4h-1.2c-0.1-0.2-0.3-1-0.6-2.1c-0.3-1.2-0.7-1.7-1.8-1.7H8.4v3.8H7.3V6.1z
				 M8.4,10.1h1.2c1.2,0,2-0.7,2-1.7c0-1.1-0.8-1.6-2-1.6C9,6.8,8.6,6.8,8.4,6.9V10.1z"/>
		</g>
	</g>
</g>
</svg>
