<svg xmlns="http://www.w3.org/2000/svg" viewBox="0 0 16.7 16.7"><defs><style>.cls-1{fill:none;stroke:#999;stroke-miterlimit:10;stroke-width:0.7px;}</style></defs><title>Ресурс 1</title><g id="Слой_2" data-name="Слой 2"><g id="card"><g id="Settings"><circle class="cls-1" cx="8.35" cy="8.35" r="2.43"/><path class="cls-1" d="M16.35,9.5V7.11L15,7A1.48,1.48,0,0,1,13.7,6.1v0a1.48,1.48,0,0,1,.25-1.54l.91-1.05L13.16,1.81l-1.05.91A1.48,1.48,0,0,1,10.57,3h0a1.45,1.45,0,0,1-.91-1.24L9.54.35H7.16l-.1,1.37A1.46,1.46,0,0,1,6.14,3h0a1.48,1.48,0,0,1-1.54-.25L3.53,1.81,1.85,3.49l.91,1.06A1.48,1.48,0,0,1,3,6.08v0A1.48,1.48,0,0,1,1.74,7l-1.39.1V9.5l1.39.1A1.48,1.48,0,0,1,3,10.51v0a1.48,1.48,0,0,1-.25,1.54l-.91,1.06,1.68,1.69,1.06-.91a1.48,1.48,0,0,1,1.54-.25h0a1.51,1.51,0,0,1,.91,1.28l.1,1.41H9.54l.1-1.41a1.49,1.49,0,0,1,.91-1.27h0a1.48,1.48,0,0,1,1.54.24l1.05.91,1.69-1.69-.91-1.05a1.48,1.48,0,0,1-.25-1.54v0A1.48,1.48,0,0,1,15,9.6Z"/></g></g></g></svg>