<svg xmlns="http://www.w3.org/2000/svg" viewBox="0 0 270.28 33.33"><defs><style>.cls-1{isolation:isolate;}.cls-2{mix-blend-mode:multiply;}.cls-3,.cls-4{fill:#017eac;}.cls-3{fill-rule:evenodd;}.cls-5{fill:#2a2f72;}.cls-6{fill:#778692;}</style></defs><title>uhc-kaiser</title><g class="cls-1"><g id="Layer_2" data-name="Layer 2"><g id="Layer_1-2" data-name="Layer 1"><g class="cls-2"><path class="cls-3" d="M192.45,11.29a3.08,3.08,0,0,0-1-.62l-.62,12.18,3-8.39a3.17,3.17,0,0,0-1.35-3.16Z"/><path class="cls-3" d="M187.47,10.56l1.76,12.13L191,10.56a5.47,5.47,0,0,0-3.52,0Z"/><path class="cls-3" d="M186,11.29a3.17,3.17,0,0,0-1.4,3.11l3,8.39-.57-12.13a2.65,2.65,0,0,0-1,.62Z"/><path class="cls-3" d="M179.91,12.43c2,3.52,4.09,7.36,6.06,10.73-.67-3-1.4-7.88-2.44-9.28-1.19-1.66-3.63-1.45-3.63-1.45Z"/><path class="cls-3" d="M176.33,14.19l8.24,9.59-5.08-11.3a4,4,0,0,0-3.16,1.71Z"/><path class="cls-3" d="M193.59,16.78l-1.35,6.58c1.76-3.06,3.52-6.06,5.23-9.17-1.66.16-3.32.78-3.89,2.59Z"/><path class="cls-3" d="M197.94,14.19l-4.35,9.74,7.67-8.34a4.62,4.62,0,0,0-3.32-1.4Z"/><path class="cls-3" d="M175.24,18.54c2.69,2.07,5.39,4.2,8.08,6.27l-7.25-10.26a7.2,7.2,0,0,0-.83,4Z"/><path class="cls-3" d="M202.19,16.78a3.4,3.4,0,0,0-.62-.88l-6.63,9c2.64-2,5.18-3.94,7.67-6a3.83,3.83,0,0,0-.41-2.18Z"/><path class="cls-3" d="M175.3,22.74l7,3.21c-2.33-2.33-4.66-4.56-7-6.84v3.63Z"/><path class="cls-3" d="M202.61,22.95V19.63L196,26.11c2.28-1,4.35-2.07,6.63-3.16Z"/><path class="cls-3" d="M175.24,26c2.12.47,4.46,1,6.37,1.45l-6.37-4.2V26Z"/><path class="cls-3" d="M202.61,26.11V23.57c-2,1.3-4,2.59-5.86,3.89l5.86-1.35Z"/><polygon class="cls-3" points="175.25 29.11 181.46 29.11 175.25 26.47 175.25 29.11 175.25 29.11"/><path class="cls-3" d="M202.61,29.11V26.68c-2,.88-3.78,1.61-5.7,2.44Z"/><circle class="cls-4" cx="200.48" cy="10.98"/><path class="cls-3" d="M200.48,11a2.65,2.65,0,1,0-5.29,0c-.05,3.42,5.44,3.58,5.29,0Z"/><path class="cls-3" d="M182.81,9.06c.16-3.73-5.6-3.58-5.39,0-.21,3.73,5.75,3.78,5.39,0Z"/><path class="cls-3" d="M189.24,9.78a2.84,2.84,0,0,0,3.06-3,3,3,0,1,0-6.06,0,2.82,2.82,0,0,0,3,3Z"/><polygon class="cls-3" points="220.43 18.39 221.62 18.39 221.62 11.49 220.43 11.49 220.43 18.39 220.43 18.39"/><path class="cls-3" d="M218.15,16.42l.67,2h1.24l-2.38-6.89h-1.5l-2,5.86-2-2.49,2.64-3.37h-1.4L211,14.76V11.49h-1.19v6.89H211V15l2.54,3.37h1.4l.67-2Zm-1.3-3.83h0l1,2.85h-1.92l.93-2.85Z"/><path class="cls-3" d="M229.09,27.2l-1.19-5h-2.12v6.94H227V23.21l1.5,5.91h1.24l1.5-5.91v5.91h1.14V22.17h-2l-1.24,5Z"/><path class="cls-3" d="M235.36,22.17,233,29.11h1.19l.62-2h2.54l.67,2h1.24l-2.38-6.94Zm-.26,4,.93-2.9h0l1,2.9Z"/><path class="cls-3" d="M244.11,27.51l-2.75-5.34h-1.61v6.94h1.14V23.88l2.75,5.23h1.61V22.17h-1.14v5.34Z"/><path class="cls-3" d="M266.81,28.08H264V26.16H266v-1H264V23.21h2.59v-1h-3.78v6.94h4v-1Z"/><path class="cls-3" d="M255.88,22.17h-.21v5.39l-2.75-5.39h-1.61v5.91h-3.63V26.16h2.12v-1h-2.12V23.21h2.59v-1H246.5v6.94h6V23.83l2.75,5.29h1.61V23.21h2.12v5.91h1.19V23.21h2.07l-.05-1Z"/><path class="cls-3" d="M224.06,25.64a2.05,2.05,0,0,0,.67-1.5,1.93,1.93,0,0,0-.67-1.45,2.87,2.87,0,0,0-2-.52h-2v3h0v3h-3.68V26.16h2.12v-1h-2.12V23.21H219v-1H215.2v6.94h6.06v-3h.57c.57.88,1.76,3,1.76,3H225l-1.87-3.06a1.73,1.73,0,0,0,.93-.41Zm-2.8-.47v-2h1c.93,0,1.3.36,1.3.93s-.36,1-1.3,1Z"/><path class="cls-3" d="M233.7,15.48h.62c.52.83,1.71,2.9,1.71,2.9h1.4l-1.87-3a2,2,0,0,0,.93-.47,1.93,1.93,0,0,0,.67-1.45A1.71,1.71,0,0,0,236.5,12a2.81,2.81,0,0,0-2-.52h-2v2.9h0v3h-3.68v-2H231v-1h-2.12v-2h2.64v-1h-3.78v6.89h6v-2.9Zm0-1.09V12.48h1c.88,0,1.24.36,1.24,1s-.36,1-1.24,1h-1V14.4Z"/><path class="cls-3" d="M213.8,22.69a2.81,2.81,0,0,0-2-.52h-2v6.94H211V26.26h.83a2.81,2.81,0,0,0,2-.52,2.17,2.17,0,0,0,.67-1.55,2,2,0,0,0-.67-1.5ZM212,25.23h-1v-2h1c.93,0,1.3.41,1.3,1s-.41,1-1.3,1Z"/><path class="cls-3" d="M226.91,16.42c0-1-.62-1.61-1.81-2.07-.93-.31-1.4-.57-1.4-1.14,0-.41.41-.88,1.3-.88a3.28,3.28,0,0,1,1.45.36v-1a3.36,3.36,0,0,0-1.45-.31c-1.5,0-2.49.83-2.49,1.92s.78,1.61,1.92,2c.88.31,1.3.62,1.3,1.19s-.52,1-1.35,1A3.58,3.58,0,0,1,222.5,17v1.09a4.07,4.07,0,0,0,1.81.41c1.76,0,2.59-1,2.59-2.07Z"/><path class="cls-3" d="M267.64,27.66a1.19,1.19,0,1,1,1.19,1.19,1.17,1.17,0,0,1-1.19-1.19Zm1.19,1.45a1.45,1.45,0,1,0-1.45-1.45,1.45,1.45,0,0,0,1.45,1.45Zm-.31-1.35h.31l.41.73h.31l-.52-.73c.26-.05.47-.16.47-.47s-.21-.47-.62-.47h-.62v1.66h.26v-.73Zm0-.21V27h.36c.16,0,.36.05.36.26s-.21.26-.41.26Z"/></g><path class="cls-5" d="M21.93,13.94h5.33v.72c-1.44.09-1.57.35-1.57,1.51v9.56c0,2.06,1.17,3.13,2.82,3.13a2.87,2.87,0,0,0,3-3.17v-9.3c0-1.15-.35-1.64-1.71-1.73v-.72h4.26v.72c-1.35.09-1.71.57-1.71,1.73v8.81c0,2.75-1.21,4.37-4.3,4.37s-4.57-1.69-4.57-4.46V16.17c0-1.15-.13-1.42-1.58-1.51Z"/><path class="cls-5" d="M33.77,29.21v-.71c1.07,0,1.42-.44,1.42-1.12V20.44c0-1-.27-1.11-1.46-1.16v-.69L37,18.44v2.15h0a3.31,3.31,0,0,1,3-2.27c1.84,0,2.71,1.2,2.71,3.15v5.9c0,.75.31,1.06,1.37,1.11v.71H40.79V21.3c0-1.46-.56-2-1.31-2-1.18,0-2.38,1.55-2.38,3.73v4.31c0,.67.35,1.06,1.42,1.11v.71Z"/><path class="cls-5" d="M44.57,29.21v-.71c1.06,0,1.42-.44,1.42-1.12V20.32c0-1-.27-1.11-1.42-1.16v-.72l3.33-.12v9.06c0,.67.36,1.07,1.42,1.12v.71Zm3.33-14.06c0,.84-.47,1.42-1.14,1.42s-1.13-.58-1.13-1.42.47-1.42,1.13-1.42,1.14.57,1.14,1.42"/><path class="cls-5" d="M52.76,14.5v4.09h2.68v.84H52.76v7.83c0,1,.33,1.38.94,1.38S55,28.17,55,25.81v-.62h.72v1c0,2.25-.82,3.24-2.5,3.24-1.47,0-2.36-.92-2.36-2.71V19.42H49.47v-.66c1.6-.66,2.44-1.42,2.58-4.26Z"/><path class="cls-5" d="M58.66,23c0-2.84.84-4,2.11-4s1.84,1.11,1.84,4Zm6.13.84c0-3.19-1.56-5.5-4-5.5s-4.28,2.31-4.28,5.57c0,2.78,1.82,5.58,4.57,5.58,2.48,0,3.57-1.93,3.78-3.91l-.71-.13c-.22,1.52-.91,3.21-2.84,3.21-1.48,0-2.62-1.69-2.62-4.81Z"/><path class="cls-5" d="M68.08,24c0-3.42.8-4.8,2-4.8s2.17,1.64,2.17,4.8c0,3.82-1.18,4.8-2.35,4.8s-1.84-1.38-1.84-4.8m2.75-9.32c1.15,0,1.44.2,1.44,1.15v4l0,0A2.48,2.48,0,0,0,70,18.32c-2.33,0-4.08,2.39-4.08,5.62,0,3.49,1.85,5.53,3.84,5.53a2.71,2.71,0,0,0,2.57-1.83h0v1.57l3.11-.14v-.7c-.88,0-1.29-.33-1.29-1.54v-13l-3.35.14Z"/><path class="cls-5" d="M76,29.21v-.71c1.33-.09,1.56-.36,1.56-1.52V16.16c0-1.15-.22-1.42-1.56-1.5v-.72h5.37v.72c-1.37.09-1.64.35-1.64,1.5v4.6h4.79v-4.6c0-1.15-.27-1.42-1.65-1.5v-.72h5.37v.72c-1.33.09-1.55.35-1.55,1.5V27c0,1.16.22,1.43,1.55,1.52v.71H82.9v-.71c1.37-.09,1.65-.36,1.65-1.52V21.6H79.75V27c0,1.16.27,1.43,1.64,1.52v.71Z"/><path class="cls-5" d="M90.77,23c0-2.84.84-4,2.11-4s1.84,1.11,1.84,4Zm6.13.84c0-3.19-1.55-5.5-4-5.5s-4.29,2.31-4.29,5.57c0,2.78,1.82,5.58,4.57,5.58,2.48,0,3.57-1.93,3.77-3.91l-.71-.13c-.22,1.52-.91,3.21-2.84,3.21-1.49,0-2.62-1.69-2.62-4.81Z"/><path class="cls-5" d="M102.61,24.79c0,2.51-1,3.84-2.16,3.84-.69,0-1.22-.58-1.22-1.76,0-1.89,1.6-2.73,3.38-3.35Zm3,1.35c0,1.6-.22,2.09-.64,2.09s-.46-.29-.46-.93V21.12c0-1.66-1-2.8-3.44-2.8-1.93,0-3.35,1.2-3.35,2.71,0,.89.45,1.34,1.07,1.34a1.16,1.16,0,0,0,1.11-1.29c0-.65-.22-1.18-.93-1.24a2.32,2.32,0,0,1,1.89-.8c1.17,0,1.75.56,1.75,1.82v1.82c-1.91.71-5.41,1.76-5.41,4.29a2.44,2.44,0,0,0,2.7,2.51,2.79,2.79,0,0,0,2.76-1.73h0c.13,1.2.73,1.73,1.8,1.73,1.37,0,1.84-1,1.84-3.33Z"/><path class="cls-5" d="M106,29.21v-.71c1.06,0,1.42-.44,1.42-1.11V15.83c0-.76-.38-1.15-1.47-1.2v-.71l3.38-.13V27.38c0,.67.36,1.06,1.42,1.11v.71Z"/><path class="cls-5" d="M114,14.5v4.09h2.68v.84H114v7.83c0,1,.34,1.38.93,1.38s1.3-.47,1.3-2.83v-.62H117v1c0,2.25-.82,3.24-2.5,3.24-1.47,0-2.36-.92-2.36-2.71V19.42h-1.37v-.66c1.6-.66,2.44-1.42,2.58-4.26Z"/><path class="cls-5" d="M116.88,29.21v-.71c1.07,0,1.42-.44,1.42-1.11V15.79c0-1-.27-1.11-1.47-1.15v-.7l3.38-.14v6.53h0a3,3,0,0,1,2.78-2c1.71,0,2.78,1.2,2.78,3.15v5.9c0,.67.38,1.06,1.38,1.11v.71H123.9v-7.8c0-1.55-.56-2.06-1.36-2.06-1.11,0-2.33,1.46-2.33,3.6v4.44c0,.67.35,1.06,1.42,1.11v.71Z"/><path class="cls-5" d="M135.44,25.52c-.2,2.1-1.17,4-3.62,4-2.25,0-4.34-2-4.34-5.3,0-2.78,1.92-5.91,4.61-5.91a2.82,2.82,0,0,1,3.08,2.9c0,1.06-.33,1.64-1.13,1.64-.62,0-1-.54-1-1.33,0-1,.33-1.33.91-1.33a1,1,0,0,1,.33.09l0,0A1.92,1.92,0,0,0,132.43,19c-1.66,0-2.77,1.67-2.77,4.83,0,3.76,1.16,4.83,2.46,4.83,1.8,0,2.38-1.65,2.62-3.22Z"/><path class="cls-5" d="M141.63,24.78c0,2.53-1,3.87-2.17,3.87-.7,0-1.23-.58-1.23-1.76,0-1.9,1.61-2.75,3.4-3.38Zm3,1.39c0,1.62-.22,2.11-.64,2.11s-.47-.29-.47-.94V21.1c0-1.68-1-2.81-3.47-2.81-1.95,0-3.36,1.19-3.36,2.72,0,.9.44,1.35,1.06,1.35a1.15,1.15,0,0,0,1.1-1.3c0-.65-.22-1.19-.93-1.26a2.33,2.33,0,0,1,1.9-.81c1.19,0,1.78.56,1.78,1.84v1.84c-1.92.7-5.44,1.76-5.44,4.31a2.46,2.46,0,0,0,2.72,2.52,2.81,2.81,0,0,0,2.77-1.75h0c.13,1.21.73,1.75,1.81,1.75,1.37,0,1.82-1,1.82-3.36Z"/><path class="cls-5" d="M145.63,29.22v-.69c.94,0,1.29-.45,1.29-1.12V21.33c0-1.52-.27-2-1.38-2.05v-.72l3.07-.13V21h0c.29-1.16,1.08-2.71,2.4-2.71a1.73,1.73,0,0,1,1.62,1.93c0,1-.47,1.45-1,1.45s-1-.31-1-1.32a1,1,0,0,1,1-1.1A.66.66,0,0,0,151,19c-1.5,0-2.18,3.29-2.18,5.23v3.18c0,.67.35,1.08,1.85,1.12v.69Z"/><path class="cls-5" d="M154.85,23c0-2.88.84-4,2.12-4s1.85,1.13,1.85,4Zm6.14.85c0-3.24-1.55-5.56-4-5.56s-4.28,2.32-4.28,5.63c0,2.77,1.81,5.58,4.57,5.58,2.5,0,3.57-1.94,3.77-3.91l-.69-.14c-.22,1.51-.92,3.2-2.85,3.2-1.5,0-2.63-1.68-2.63-4.79Z"/><path class="cls-5" d="M161.79,15.91a1.41,1.41,0,1,1-1.42,1.41,1.41,1.41,0,0,1,1.42-1.41m0-.25a1.66,1.66,0,1,0,1.66,1.66,1.66,1.66,0,0,0-1.66-1.66m-.31,1.77h.31a.25.25,0,0,1,.29.22,2,2,0,0,0,.08.64h.3a2.76,2.76,0,0,1-.08-.5c0-.38-.09-.46-.33-.49h0a.47.47,0,0,0,.41-.45.47.47,0,0,0-.53-.47h-.76v1.91h.31Zm0-.85h.4a.26.26,0,0,1,.28.29.27.27,0,0,1-.28.31h-.4Z"/><path class="cls-5" d="M2.6,29.21h.66l.07,0h0l.07,0h0l.08,0,0,0,.08,0,0,0,.08,0,0,0,.08,0,0,0L4,28.75l0,0,.09-.06,0,0,.09-.07,0,0,.09-.07,0,0,.09-.08,0,0,.08-.08,0-.05.08-.09,0-.06.08-.1,0-.06.08-.1,0-.07.07-.11.05-.08.07-.12,0-.09.07-.12,0-.1.07-.13.05-.11.06-.13.05-.13.06-.13,0-.13.06-.14,0-.13c0-.05,0-.1.06-.16L6,25.7l0-.12.1-.32a33.55,33.55,0,0,0,.55-7V4.61L0,8.18V22.29C0,27.67,1,29,2.16,29.17h0Z"/><path class="cls-6" d="M4.27,30.65c2.64-.35,4.16-3.28,4.53-4.71a26.75,26.75,0,0,0,.69-7.24V3.1L6.67,4.61l1.48.33V17.45a33.53,33.53,0,0,1-.6,7.93c-.74,2.65-2.08,3.72-3,4.06l-2.39-.27h0a2.06,2.06,0,0,0,1.53,1.44Z"/><path class="cls-6" d="M3.67,30.62A2.24,2.24,0,0,0,5.17,32l.61.06c2.75,0,4.55-2.71,5.2-4.12.93-2.09,1.39-5,1.39-9.31v-17L9.49,3.1,11,3.44V17.94c0,3.63-.15,6.7-1,9a6.07,6.07,0,0,1-3.85,3.93l-1.86-.22Z"/><path class="cls-6" d="M12.36,1.56l1.55.34v16c0,4.92-.5,8.29-1.6,10.55a6.51,6.51,0,0,1-4.39,3.78L5.78,32,5.17,32a2.83,2.83,0,0,0,2.38,1.37A5.7,5.7,0,0,0,11,32.12c3.25-2.25,4.28-7.27,4.28-14V0Z"/></g></g></g></svg>