<svg xmlns="http://www.w3.org/2000/svg" viewBox="0 0 86.4 17.62" width="86" height="17">
  <defs>
    <style>.cls-1{fill:#2a2f72;}.cls-2{fill:#778692;}</style>
  </defs>
  <title>uhc_logo</title>
  <g id="Layer_2" data-name="Layer 2">
    <g id="图层_1" data-name="图层 1">
      <path class="cls-1"
            d="M11.59,7.37h2.82v.38c-.76,0-.83.19-.83.8V13.6a1.45,1.45,0,0,0,1.49,1.65,1.52,1.52,0,0,0,1.61-1.68V8.66c0-.61-.19-.87-.91-.91V7.37H18v.38c-.71,0-.9.3-.9.91v4.66a2,2,0,0,1-2.27,2.31,2.14,2.14,0,0,1-2.42-2.36V8.55c0-.61-.07-.75-.84-.8Z"/>
      <path class="cls-1"
            d="M17.85,15.44v-.38c.56,0,.75-.23.75-.59V10.8c0-.51-.14-.59-.77-.61V9.82l1.71-.08v1.14h0a1.75,1.75,0,0,1,1.57-1.2c1,0,1.43.63,1.43,1.67v3.12c0,.4.16.56.73.59v.38H21.56V11.26c0-.77-.29-1-.69-1-.62,0-1.26.82-1.26,2v2.28c0,.35.19.56.75.59v.38Z"/>
      <path class="cls-1"
            d="M23.56,15.44v-.38c.56,0,.75-.23.75-.59V10.74c0-.5-.14-.59-.75-.61V9.75l1.76-.06v4.79c0,.36.19.57.75.59v.38ZM25.32,8c0,.45-.25.75-.6.75s-.6-.3-.6-.75.25-.75.6-.75.6.3.6.75"/>
      <path class="cls-1"
            d="M27.89,7.66V9.82H29.3v.44H27.89v4.14c0,.52.18.73.5.73s.68-.25.68-1.5v-.33h.38v.55c0,1.19-.44,1.71-1.32,1.71s-1.25-.49-1.25-1.43V10.27h-.73V9.92c.85-.35,1.29-.75,1.36-2.25Z"/>
      <path class="cls-1"
            d="M31,12.15c0-1.5.45-2.09,1.11-2.09s1,.59,1,2.09Zm3.24.44c0-1.69-.82-2.91-2.12-2.91s-2.26,1.22-2.26,2.94c0,1.47,1,2.95,2.42,2.95a2,2,0,0,0,2-2.07l-.38-.07c-.12.8-.48,1.7-1.5,1.7-.78,0-1.38-.89-1.38-2.54Z"/>
      <path class="cls-1"
            d="M36,12.66c0-1.81.42-2.54,1.07-2.54s1.15.87,1.15,2.54c0,2-.62,2.54-1.24,2.54s-1-.73-1-2.54m1.45-4.93c.61,0,.76.1.76.61v2.11h0A1.31,1.31,0,0,0,37,9.68c-1.23,0-2.16,1.26-2.16,3s1,2.93,2,2.93a1.43,1.43,0,0,0,1.36-1h0v.83l1.64-.07V15c-.47,0-.68-.18-.68-.81V7.3l-1.77.07Z"/>
      <path class="cls-1"
            d="M40.18,15.44v-.38c.71,0,.82-.19.82-.8V8.54c0-.61-.12-.75-.82-.79V7.37H43v.38c-.72,0-.87.19-.87.79V11h2.53V8.54c0-.61-.14-.75-.87-.79V7.37h2.84v.38c-.7,0-.82.19-.82.79v5.72c0,.61.12.75.82.8v.38H43.82v-.38c.73,0,.87-.19.87-.8V11.42H42.16v2.84c0,.61.14.75.87.8v.38Z"/>
      <path class="cls-1"
            d="M48,12.15c0-1.5.44-2.09,1.12-2.09s1,.59,1,2.09Zm3.24.44c0-1.69-.82-2.91-2.12-2.91s-2.27,1.22-2.27,2.94c0,1.47,1,2.95,2.42,2.95a2,2,0,0,0,2-2.07l-.38-.07c-.12.8-.48,1.7-1.5,1.7-.79,0-1.38-.89-1.38-2.54Z"/>
      <path class="cls-1"
            d="M54.24,13.11c0,1.33-.54,2-1.14,2-.36,0-.64-.3-.64-.93,0-1,.84-1.44,1.78-1.77Zm1.59.71c0,.85-.12,1.1-.34,1.1s-.25-.15-.25-.49V11.17c0-.88-.51-1.48-1.82-1.48a1.6,1.6,0,0,0-1.77,1.43c0,.47.24.71.57.71a.61.61,0,0,0,.59-.68c0-.34-.12-.62-.49-.66a1.23,1.23,0,0,1,1-.42c.62,0,.93.29.93,1v1c-1,.38-2.86.93-2.86,2.27a1.29,1.29,0,0,0,1.43,1.32,1.47,1.47,0,0,0,1.46-.91h0c.07.63.39.91,1,.91.73,0,1-.52,1-1.76Z"/>
      <path class="cls-1"
            d="M56.06,15.44v-.38c.56,0,.75-.23.75-.59V8.37c0-.4-.2-.61-.78-.63V7.36l1.78-.07v7.18c0,.35.19.56.75.59v.38Z"/>
      <path class="cls-1"
            d="M60.27,7.66V9.82h1.42v.44H60.27v4.14c0,.52.18.73.49.73s.69-.25.69-1.5v-.33h.38v.55c0,1.19-.44,1.71-1.32,1.71s-1.25-.49-1.25-1.43V10.27h-.73V9.92c.84-.35,1.29-.75,1.36-2.25Z"/>
      <path class="cls-1"
            d="M61.78,15.44v-.38c.56,0,.75-.23.75-.59V8.35c0-.5-.14-.59-.78-.61V7.37l1.79-.07v3.45h0A1.61,1.61,0,0,1,65,9.69c.91,0,1.47.63,1.47,1.67v3.12c0,.35.2.56.73.59v.38H65.5V11.32c0-.82-.29-1.09-.72-1.09-.59,0-1.23.77-1.23,1.9v2.35c0,.35.19.56.75.59v.38Z"/>
      <path class="cls-1"
            d="M71.6,13.49c-.11,1.11-.62,2.1-1.92,2.1a2.52,2.52,0,0,1-2.29-2.8c0-1.47,1-3.12,2.44-3.12a1.49,1.49,0,0,1,1.63,1.54c0,.56-.17.87-.6.87s-.55-.28-.55-.7.18-.7.48-.7a.54.54,0,0,1,.18,0l0,0A1,1,0,0,0,70,10c-.88,0-1.47.88-1.47,2.55,0,2,.61,2.55,1.3,2.55,1,0,1.26-.87,1.39-1.7Z"/>
      <path class="cls-1"
            d="M74.87,13.1c0,1.34-.54,2-1.14,2-.37,0-.65-.3-.65-.93,0-1,.85-1.45,1.8-1.79Zm1.6.73c0,.85-.11,1.12-.34,1.12s-.25-.16-.25-.5v-3.3c0-.89-.5-1.48-1.83-1.48a1.6,1.6,0,0,0-1.78,1.44c0,.48.23.71.56.71a.61.61,0,0,0,.58-.69c0-.34-.12-.63-.49-.66a1.23,1.23,0,0,1,1-.43c.63,0,.94.29.94,1v1c-1,.37-2.88.93-2.88,2.28a1.3,1.3,0,0,0,1.44,1.33,1.49,1.49,0,0,0,1.47-.92h0c.07.64.39.92,1,.92.72,0,1-.53,1-1.77Z"/>
      <path class="cls-1"
            d="M77,15.45v-.37c.5,0,.68-.24.68-.59V11.28c0-.8-.14-1.06-.73-1.09V9.81l1.62-.07V11.1h0c.15-.61.57-1.43,1.27-1.43a.91.91,0,0,1,.86,1c0,.51-.25.77-.55.77s-.53-.16-.53-.7a.53.53,0,0,1,.5-.58.35.35,0,0,0-.3-.14c-.79,0-1.15,1.74-1.15,2.77v1.68c0,.35.19.57,1,.59v.37Z"/>
      <path class="cls-1"
            d="M81.86,12.16c0-1.52.45-2.12,1.12-2.12s1,.6,1,2.12Zm3.24.45c0-1.71-.82-2.94-2.13-2.94s-2.26,1.23-2.26,3c0,1.47,1,2.95,2.42,2.95a2,2,0,0,0,2-2.07l-.37-.07c-.12.8-.48,1.69-1.51,1.69-.79,0-1.39-.89-1.39-2.53Z"/>
      <path class="cls-1"
            d="M85.52,8.41a.75.75,0,1,1-.75.75.74.74,0,0,1,.75-.75m0-.13a.88.88,0,1,0,.88.87.88.88,0,0,0-.87-.87m-.17.93h.16a.13.13,0,0,1,.15.11,1.08,1.08,0,0,0,0,.34h.16a1.46,1.46,0,0,1,0-.26c0-.2,0-.24-.18-.26h0a.25.25,0,0,0,.22-.24.25.25,0,0,0-.28-.25h-.4v1h.16Zm0-.45h.21a.14.14,0,0,1,.15.15.15.15,0,0,1-.15.16h-.21Z"/>
      <path class="cls-1"
            d="M1.37,15.44h.46l0,0h0l0,0H2l0,0H2l0,0h0l0,0h0l0,0h0l0,0,0,0,0,0,0,0,0,0,0,0,0,0,0,0,0,0,0,0,0-.05,0,0,0-.05,0,0,0-.06,0,0,0-.06,0,0,0-.06,0-.05,0-.07,0-.06,0-.07L3,14,3,14l0-.07,0-.08,0-.07,0-.08,0-.1,0-.06.05-.17a17.73,17.73,0,0,0,.29-3.68V2.44L0,4.33v7.46c0,2.84.51,3.52,1.14,3.63h0Z"/>
      <path class="cls-2"
            d="M2.26,16.2a3.36,3.36,0,0,0,2.39-2.49A14.14,14.14,0,0,0,5,9.88V1.64l-1.49.8.78.17V9.22A17.72,17.72,0,0,1,4,13.41a2.93,2.93,0,0,1-1.59,2.15l-1.26-.14h0a1.09,1.09,0,0,0,.81.76Z"/>
      <path class="cls-2"
            d="M1.94,16.19a1.19,1.19,0,0,0,.79.71l.32,0c1.45,0,2.41-1.43,2.75-2.18a12.37,12.37,0,0,0,.73-4.92v-9L5,1.64l.8.18V9.49a14.08,14.08,0,0,1-.54,4.76,3.21,3.21,0,0,1-2,2.08l-1-.12Z"/>
      <path class="cls-2"
            d="M6.53.83,7.35,1V9.49a13.27,13.27,0,0,1-.85,5.58,3.44,3.44,0,0,1-2.32,2l-1.13-.14-.32,0A1.5,1.5,0,0,0,4,17.62,3,3,0,0,0,5.81,17c1.72-1.19,2.26-3.84,2.26-7.42V0Z"/>
    </g>
  </g>
</svg>
