<svg viewBox="0 0 80 80" fill="none" xmlns="http://www.w3.org/2000/svg">
<path d="M62.1423 0H17.8577C8.00625 0 0 8.00625 0 17.8577V62.1423C0 71.9937 8.00625 80 17.8577 80H62.1423C71.9937 80 80 71.9937 80 62.1423V17.8577C80 8.00625 72.025 0 62.1423 0Z" fill="white"/>
<path d="M23.018 38.1861H27.4902V20.7349H33.1196V16.5754H23.018V38.1861Z" fill="#990032"/>
<path d="M7.19312 16.5754V38.1861H11.5715V32.6818H17.2009L20.4847 29.5543V19.7029L17.3573 16.5754H7.19312ZM16.0438 28.5223H11.5715V20.7349H16.0438V28.5223Z" fill="#990032"/>
<path d="M38.9367 20.7349H45.2228V16.5754H37.6232L34.4957 19.7029V35.0586L37.6232 38.1861H45.2854V34.0266H38.9367V20.7349Z" fill="#990032"/>
<path d="M11.6654 49.4137V45.9735H19.7342V41.814H7.19312V63.4246H17.4511L20.5786 60.2972V52.5411L17.2948 49.4137H11.6654ZM16.1376 59.2651H11.6654V53.5732H16.1376V59.2651Z" fill="#4B4B4D"/>
<path d="M26.4582 41.814L21.9859 63.4246H26.3644L27.3651 58.2643H33.0258L34.0266 63.4246H38.4988L34.0266 41.814H26.4582ZM28.1783 54.2299L29.8045 46.0047H30.6489L32.2752 54.2299H28.1783Z" fill="#4B4B4D"/>
<path d="M50.3831 50.6646H44.9414V41.814H40.5004V63.4246H44.9414V54.8241H50.3831V63.4246H54.8241V41.814H50.3831V50.6646Z" fill="#4B4B4D"/>
<path d="M68.835 52.3847L72.6505 41.814H68.0844L65.0196 50.3519H62.5489V41.814H58.1079V63.4246H62.5489V54.5427H64.957L68.0844 63.4246H72.8069L68.835 52.3847Z" fill="#4B4B4D"/>
</svg>
