<svg width="20" height="20" viewBox="0 0 20 20" fill="none" xmlns="http://www.w3.org/2000/svg">
<path d="M18.7339 15.7348L4.30452 1.30547C3.67522 0.67617 2.65496 0.67617 2.02664 1.30547L1.26617 2.06477C0.636864 2.69427 0.636864 3.71453 1.26617 4.34285L15.6955 18.7722C16.325 19.4015 17.3453 19.4015 17.9736 18.7722L18.7329 18.0129C19.3634 17.3846 19.3634 16.3641 18.7339 15.7348Z" fill="#F70A0A"/>
<path d="M15.6955 1.30533L1.26617 15.7347C0.636864 16.364 0.636864 17.3844 1.26617 18.0127L2.02546 18.772C2.65496 19.4013 3.67522 19.4013 4.30353 18.772L18.7338 4.34368C19.3633 3.71438 19.3633 2.69412 18.7338 2.0658L17.9745 1.30651C17.3452 0.676023 16.325 0.676023 15.6955 1.30533Z" fill="#F70A0A"/>
</svg>
