<svg xmlns="http://www.w3.org/2000/svg" xmlns:xlink="http://www.w3.org/1999/xlink" width="41" height="47" viewBox="0 0 41 47">
  <defs>
    <polygon id="page-5-a" points=".583 .822 31.595 .822 31.595 47 .583 47"/>
  </defs>
  <g fill="none" fill-rule="evenodd" transform="translate(0 -1)">
    <path fill="#E1E1E1" d="M37.0274,3.1052 C35.7074,2.4662 36.8674,1.0702 35.2904,1.0102 C35.4654,4.7602 33.0474,11.5572 32.7414,16.8032 C31.5814,36.7322 24.3054,44.2382 21.3684,46.4802 L21.6404,46.3262 C28.3814,42.5022 33.7394,36.5622 36.5674,29.3472 C38.7204,23.8532 40.2694,16.7982 40.2744,8.0672 C40.2754,5.9182 38.9624,4.0402 37.0274,3.1052"/>
    <path fill="#A5A5A5" d="M7.5332,16.6891 C7.2192,11.2801 4.5792,4.5311 4.6392,1.0431 C3.1712,1.2521 4.4752,2.5141 3.2372,3.1091 C1.2952,4.0431 -0.0018,5.9291 0.0002,8.0851 C0.0062,16.1001 1.2482,22.6181 3.0522,27.8101 C5.7752,35.6481 11.3302,42.1841 18.5492,46.2781 L19.8182,46.9981 C17.9962,45.8911 8.8462,39.2471 7.5332,16.6891"/>
    <g transform="translate(4 .178)">
      <mask id="page-5-b" fill="#fff">
        <use xlink:href="#page-5-a"/>
      </mask>
      <path fill="#CECECE" d="M31.4151,16.625 C31.7851,11.379 31.5031,4.582 31.2901,0.832 C31.2481,0.831 31.2071,0.821 31.1661,0.821 C31.1661,0.821 26.5191,2.406 16.1471,2.406 C6.1071,2.406 1.1291,0.821 1.1291,0.821 C0.9651,0.821 0.8031,0.846 0.6401,0.864 C0.5661,4.353 0.4991,11.102 0.8801,16.511 C2.4721,39.068 13.5541,45.713 15.7611,46.819 L16.1471,47 L17.6391,46.302 C21.1961,44.06 30.0091,36.554 31.4151,16.625" mask="url(#page-5-b)"/>
    </g>
    <path fill="#FFF" d="M32.4493,18.2126 C32.7483,13.9826 32.5053,4.5476 32.4713,4.5476 C32.4713,4.5476 28.5013,5.6466 20.1363,5.6466 C12.0393,5.6466 7.7143,4.5316 7.5833,4.5476 C7.5243,7.3596 7.5143,13.7576 7.8223,18.1206 C9.1063,36.3146 18.0443,42.3906 19.8243,43.2816 L20.1363,43.4286 L21.3393,42.8646 C24.2083,41.0566 31.3153,34.2866 32.4493,18.2126"/>
    <path fill="#FF2929" d="M11.834,13.2106 C12.095,14.5916 14.052,19.7256 14.052,19.7256 C14.647,20.7356 14.873,19.6076 14.873,19.6076 C15.704,15.0436 12.375,12.9406 12.375,12.9406 C11.554,12.6066 11.834,13.2106 11.834,13.2106 M28.968,9.9936 C28.968,9.9936 30.565,10.7966 29.139,11.1926 C29.139,11.1926 23.797,12.5996 20.296,16.9666 C20.296,16.9666 14.989,23.1366 13.545,29.2716 C13.545,29.2716 12.787,29.3796 12.878,28.2066 C12.968,27.0336 13.771,21.8286 19.655,14.7366 C19.655,14.7366 25.314,7.8726 28.968,9.9936"/>
  </g>
</svg>
