<svg xmlns="http://www.w3.org/2000/svg" xmlns:xlink="http://www.w3.org/1999/xlink" width="67" height="33" viewBox="0 0 67 33">
  <defs>
    <polygon id="page-7-a" points=".215 .792 34.411 .792 34.411 18.789 .215 18.789"/>
    <polygon id="page-7-c" points="18.055 .792 .639 .792 .639 25.471 18.055 25.471 18.055 .792"/>
  </defs>
  <g fill="none" fill-rule="evenodd" transform="translate(1 -1)">
    <path fill="#E1E1E1" d="M17.5299,14.6213 L0.0929,16.9623"/>
    <path stroke="#FF2929" stroke-linecap="round" stroke-linejoin="round" stroke-width="2.184" d="M17.5299,14.6213 L0.0929,16.9623"/>
    <g transform="translate(6 21.208)">
      <path fill="#E1E1E1" d="M12.4244,0.0793 L0.5624,1.6723"/>
      <path stroke="#FF2929" stroke-linecap="round" stroke-linejoin="round" stroke-width="2.184" d="M12.4244,0.0793 L0.5624,1.6723"/>
    </g>
    <path fill="#E1E1E1" d="M12.0113,28.9349 L19.3193,27.9529 L12.0113,28.9349 Z"/>
    <g transform="translate(12 .208)">
      <path stroke="#FF2929" stroke-linecap="round" stroke-linejoin="round" stroke-width="2.184" d="M7.3189,27.7453 L0.0109,28.7263"/>
      <g transform="translate(13)">
        <mask id="page-7-b" fill="#fff">
          <use xlink:href="#page-7-a"/>
        </mask>
        <path fill="#CECECE" d="M34.0972,0.8019 L0.2152,5.3509 L15.5222,16.8139 L17.4322,18.2429 C18.6252,19.1379 20.3162,18.9099 21.2322,17.7339 L22.6392,15.9239 L34.4112,0.7919 C34.3072,0.7929 34.2032,0.7879 34.0972,0.8019" mask="url(#page-7-b)"/>
      </g>
      <g transform="translate(35)">
        <mask id="page-7-d" fill="#fff">
          <use xlink:href="#page-7-c"/>
        </mask>
        <path fill="#E1E1E1" d="M15.0455,3.0529 C14.8675,1.7289 13.7155,0.7759 12.4115,0.7919 L0.6395,15.9239 L18.0555,25.4709 L15.0455,3.0529 Z" mask="url(#page-7-d)"/>
      </g>
      <path fill="#E1E1E1" d="M13.2154,5.3507 L13.1454,5.3607 C11.7154,5.5517 10.7024,6.8787 10.8954,8.3087 L13.9034,30.7267 L28.5224,16.8137 L13.2154,5.3507 Z"/>
      <path fill="#A5A5A5" d="M40.0553,10.4709 L22.6393,0.9239 L21.2323,2.7339 C20.3163,3.9099 18.6253,4.1379 17.4323,3.2429 L15.5223,1.8139 L0.9043,15.7269 C1.0963,17.1569 2.4223,18.1679 3.8523,17.9769 L37.8043,13.4189 C39.2343,13.2269 40.2463,11.9009 40.0553,10.4709" transform="translate(13 15)"/>
      <path fill="#FFF" d="M48.4732,13.2638 L32.0822,15.4638 C31.0362,15.6048 30.0672,14.8648 29.9262,13.8188 L28.8752,5.9928 C28.7362,4.9478 29.4762,3.9778 30.5212,3.8368 L46.9122,1.6368 C47.9572,1.4958 48.9282,2.2378 49.0682,3.2828 L50.1192,11.1078 C50.2592,12.1538 49.5182,13.1228 48.4732,13.2638"/>
      <path fill="#FF2929" d="M32.4976,7.5412 L32.7036,9.0722 L33.9856,8.9002 C34.2396,8.8662 34.4276,8.8102 34.5456,8.7302 C34.7576,8.5922 34.8416,8.3632 34.7986,8.0432 C34.7526,7.6982 34.6106,7.4802 34.3776,7.3912 C34.2456,7.3412 34.0576,7.3312 33.8126,7.3642 L32.4976,7.5412 Z M34.8466,6.3672 C35.0686,6.4292 35.2646,6.5372 35.4336,6.6942 C35.5736,6.8222 35.6906,6.9692 35.7856,7.1362 C35.8786,7.3012 35.9406,7.4962 35.9716,7.7202 C36.0076,7.9912 35.9756,8.2662 35.8746,8.5462 C35.7706,8.8262 35.5706,9.0422 35.2706,9.1922 C35.5486,9.2622 35.7536,9.3872 35.8906,9.5672 C36.0256,9.7482 36.1216,10.0372 36.1756,10.4372 L36.2266,10.8202 C36.2616,11.0802 36.2946,11.2572 36.3286,11.3472 C36.3796,11.4882 36.4686,11.5862 36.5926,11.6422 L36.6106,11.7842 L35.2966,11.9612 C35.2436,11.8392 35.2036,11.7402 35.1776,11.6652 C35.1256,11.5102 35.0866,11.3482 35.0616,11.1812 L34.9816,10.6512 C34.9286,10.2902 34.8346,10.0562 34.6966,9.9492 C34.5606,9.8452 34.3246,9.8152 33.9936,9.8592 L32.8296,10.0162 L33.1306,12.2522 L31.9666,12.4082 L31.2016,6.7072 L33.9276,6.3412 C34.3176,6.2962 34.6256,6.3062 34.8466,6.3672 L34.8466,6.3672 Z"/>
      <polygon fill="#FF2929" points="36.896 5.95 40.961 5.404 41.096 6.406 38.214 6.794 38.39 8.104 40.917 7.764 41.049 8.755 38.523 9.095 38.843 11.484 37.66 11.643"/>
      <path fill="#FF2929" d="M45.2838,9.7023 C45.3508,9.6763 45.4348,9.6313 45.5388,9.5703 L44.8878,9.0983 L45.4138,8.3773 L46.0668,8.8463 C46.1318,8.6473 46.1738,8.4763 46.1898,8.3333 C46.2198,8.1163 46.2148,7.8683 46.1778,7.5903 C46.0918,6.9503 45.8928,6.4733 45.5858,6.1603 C45.2768,5.8463 44.8708,5.7223 44.3688,5.7893 C43.8958,5.8523 43.5428,6.0703 43.3058,6.4443 C43.0698,6.8173 42.9978,7.3383 43.0878,8.0043 C43.1928,8.7873 43.4688,9.3183 43.9168,9.6033 C44.2058,9.7873 44.5328,9.8543 44.8958,9.8063 C45.0328,9.7873 45.1618,9.7533 45.2838,9.7023 M47.3428,8.6453 C47.2858,8.9873 47.1758,9.2773 47.0088,9.5203 L47.7468,10.0503 L47.2118,10.7803 L46.4388,10.2233 C46.2478,10.3773 46.0798,10.4913 45.9338,10.5643 C45.6898,10.6833 45.3888,10.7663 45.0338,10.8143 C44.2908,10.9143 43.6468,10.7753 43.1008,10.3963 C42.4418,9.9433 42.0418,9.1983 41.9018,8.1633 C41.7628,7.1223 41.9608,6.2943 42.4918,5.6793 C42.9258,5.1773 43.5088,4.8763 44.2408,4.7783 C44.9778,4.6793 45.6288,4.8283 46.1898,5.2223 C46.8388,5.6793 47.2278,6.3873 47.3568,7.3463 C47.4258,7.8533 47.4208,8.2873 47.3428,8.6453"/>
    </g>
  </g>
</svg>
