<svg xmlns="http://www.w3.org/2000/svg" xmlns:xlink="http://www.w3.org/1999/xlink" width="63" height="47" viewBox="0 0 63 47">
  <defs>
    <polygon id="page-3-a" points="28.434 27 0 27 0 .532 28.434 .532"/>
  </defs>
  <g fill="none" fill-rule="evenodd" transform="translate(0 1)">
    <g transform="translate(0 19.086)">
      <mask id="page-3-b" fill="#fff">
        <use xlink:href="#page-3-a"/>
      </mask>
      <path fill="#E1E1E1" d="M8.8396,26.3765 L0.3916,16.2465 C-0.3194,15.3945 -0.0344,13.9725 1.0266,13.0875 L15.7236,0.8305 C16.4466,0.2275 22.2096,0.6695 25.7936,1.0115 C27.4816,1.1725 28.5706,2.4835 28.4196,4.1745 C28.0996,7.7475 27.4816,13.4595 26.7586,14.0635 L12.0616,26.3195 C11.0006,27.2035 9.5506,27.2305 8.8396,26.3765" mask="url(#page-3-b)"/>
    </g>
    <path fill="#FFF" d="M24.4304,26.5565 C24.4304,28.4525 22.8944,29.9875 20.9994,29.9875 C19.1054,29.9875 17.5694,28.4525 17.5694,26.5565 C17.5694,24.6615 19.1054,23.1255 20.9994,23.1255 C22.8944,23.1255 24.4304,24.6615 24.4304,26.5565"/>
    <path fill="#A5A5A5" d="M58.5554,13.6209 C58.5294,13.4159 58.5024,13.2119 58.4754,12.9969 C59.6594,12.8279 60.5574,12.2369 61.1904,11.2309 C61.0494,12.3489 60.0364,13.2589 58.5554,13.6209 M54.8374,16.3199 C53.4934,16.8489 52.1084,17.0209 50.6984,16.6589 C49.5694,16.3689 48.9434,15.5939 48.8134,14.4429 C48.6794,13.2529 49.1174,12.4029 50.3924,11.6979 C51.6054,11.1939 53.1024,10.9569 54.6434,11.3829 C55.8114,11.7069 56.4224,12.5919 56.4694,13.8669 C56.5094,14.9749 55.9054,15.8989 54.8374,16.3199 M50.0084,26.3919 C50.2364,27.6589 49.7204,28.5779 48.5414,29.1999 C47.5164,29.7409 46.4274,29.6079 45.5504,28.7479 C45.0614,28.2669 43.7384,26.4189 43.5404,25.0399 C43.3104,23.8019 43.7914,22.9169 44.8914,22.3089 C45.9524,21.7209 46.9804,21.7949 47.9024,22.6209 C49.0264,23.6289 49.7414,24.9039 50.0084,26.3919 M61.8074,9.6119 C61.2174,9.3789 60.6664,9.5449 60.2154,10.0989 C60.1074,10.2319 60.0004,10.3729 59.9204,10.5239 C59.6994,10.9439 59.3484,11.2139 58.9294,11.4029 C58.3864,11.6489 58.0344,11.5659 57.6934,11.0899 C57.0984,10.2589 56.3034,9.7009 55.3354,9.4189 C53.2854,8.8209 51.2734,9.0069 49.3594,9.9099 C47.6584,10.7119 46.7424,12.0909 46.7024,14.0029 C46.6984,14.2419 46.7144,14.4819 46.7214,14.7649 C46.2514,14.6929 45.8144,14.7809 45.4624,14.3229 C44.2874,12.7919 43.0084,11.3529 41.5604,10.0659 C38.6144,7.4479 35.4734,5.0809 32.2794,2.7779 C31.2434,2.0309 30.1624,1.6129 28.8794,1.9539 C28.7584,2.0209 28.6374,2.0889 28.5164,2.1569 C28.2294,2.5799 28.6164,3.3449 28.6164,3.3449 L43.8964,16.7449 L24.3524,12.0879 C24.3524,12.0879 23.8694,12.1349 23.6644,12.2359 C23.3704,12.3809 23.3724,12.6969 23.3664,12.9849 C23.5344,13.2879 23.7034,13.5909 23.8734,13.8929 C24.5624,14.7749 25.5004,15.2739 26.5394,15.6069 C29.9324,16.6919 33.3254,17.7769 36.7954,18.5859 C37.7944,18.8179 38.8144,19.0029 39.8344,19.0879 C40.8314,19.1719 41.8424,19.0979 42.8464,19.1049 C42.9664,19.1059 43.1404,19.1549 43.1964,19.2419 C43.4314,19.6089 43.6324,19.9989 43.8524,20.3919 C43.7154,20.4879 43.6354,20.5509 43.5494,20.6039 C42.0974,21.5189 41.3514,22.8509 41.4124,24.5509 C41.5024,27.0579 42.5854,29.1379 44.5374,30.6759 C46.8954,32.5319 50.4044,31.6419 51.7204,28.9379 C52.3004,27.7479 52.2144,26.5169 51.8684,25.2859 C51.4414,23.7779 50.6664,22.4389 49.8184,21.1379 C49.4094,20.5099 48.9984,19.8839 48.5884,19.2569 C48.6224,19.2319 48.6404,19.2079 48.6594,19.2079 C49.0054,19.2049 49.3514,19.2069 49.6984,19.2029 C51.7494,19.1809 53.7874,19.0619 55.7054,18.2309 C56.8344,17.7419 57.7664,17.0049 58.2044,15.8229 C58.3944,15.3119 58.6904,15.0649 59.1794,14.9269 C60.1404,14.6519 60.9884,14.1749 61.6684,13.4259 C62.2834,12.7509 62.6204,11.9589 62.6754,11.0499 C62.7154,10.3759 62.3854,9.8409 61.8074,9.6119"/>
    <path stroke="#FF2929" stroke-linecap="round" stroke-linejoin="round" stroke-width="2.184" d="M30.4587 11.1336C30.4587 11.1336 33.7497 5.3136 39.0837 5.2026 44.4167 5.0926 47.5837.0926 47.5837.0926M26.2087 18.2176L22.4167 24.3426"/>
  </g>
</svg>
