<svg xmlns="http://www.w3.org/2000/svg" xmlns:xlink="http://www.w3.org/1999/xlink" width="46" height="39" viewBox="0 0 46 39">
  <defs>
    <polygon id="page-4-a" points="0 38.442 45.55 38.442 45.55 0 0 0"/>
  </defs>
  <g fill="none" fill-rule="evenodd">
    <path fill="#A5A5A5" d="M29.8981,8.63 L29.8981,6.278 C29.8981,4.511 28.4521,3.065 26.6841,3.065 L18.8651,3.065 C17.0971,3.065 15.6511,4.511 15.6511,6.278 L15.6511,8.63 C15.6511,10.919 17.5241,12.792 19.8131,12.792 L25.7361,12.792 C28.0251,12.792 29.8981,10.919 29.8981,8.63 Z M27.1691,-7.10542736e-15 C30.5651,-7.10542736e-15 33.3441,2.779 33.3441,6.176 L33.3441,8.258 C33.3441,11.654 30.5651,14.434 27.1691,14.434 L18.3801,14.434 C14.9841,14.434 12.2061,11.654 12.2061,8.258 L12.2061,6.176 C12.2061,2.779 14.9841,-7.10542736e-15 18.3801,-7.10542736e-15 L27.1691,-7.10542736e-15 Z"/>
    <path fill="#E1E1E1" d="M42.526,38.4415 L3.024,38.4415 C1.361,38.4415 0,37.0815 0,35.4185 L0,9.3355 C0,7.6715 1.361,6.3115 3.024,6.3115 L42.526,6.3115 C44.189,6.3115 45.549,7.6715 45.549,9.3355 L45.549,35.4185 C45.549,37.0815 44.189,38.4415 42.526,38.4415"/>
    <mask id="page-4-b" fill="#fff">
      <use xlink:href="#page-4-a"/>
    </mask>
    <polygon fill="#CECECE" points="3.22 38.442 5.664 38.442 5.664 6.312 3.22 6.312" mask="url(#page-4-b)"/>
    <polygon fill="#CECECE" points="39.887 38.442 42.331 38.442 42.331 6.312 39.887 6.312" mask="url(#page-4-b)"/>
    <path fill="#FFF" d="M35.653,32.5822 L9.896,32.5822 C9.379,32.5822 8.954,32.1582 8.954,31.6402 L8.954,13.2542 C8.954,12.7352 9.379,12.3112 9.896,12.3112 L35.653,12.3112 C36.172,12.3112 36.596,12.7352 36.596,13.2542 L36.596,31.6402 C36.596,32.1582 36.172,32.5822 35.653,32.5822" mask="url(#page-4-b)"/>
    <path fill="#FF2929" d="M23.9655,25.799 C23.8805,25.861 23.7685,25.914 23.6305,25.957 L23.6305,23.458 C23.7825,23.534 23.9065,23.609 23.9945,23.682 C24.2745,23.921 24.4125,24.246 24.4125,24.657 C24.4125,25.198 24.2645,25.578 23.9655,25.799 M21.6795,20.719 C21.3785,20.485 21.2275,20.166 21.2275,19.765 C21.2275,19.397 21.3275,19.107 21.5285,18.893 C21.6305,18.785 21.7625,18.704 21.9195,18.649 L21.9195,20.86 C21.8305,20.814 21.7425,20.768 21.6795,20.719 M25.4365,22.319 C25.1055,22.064 24.4945,21.774 23.6305,21.453 L23.6305,18.661 C23.8485,18.755 24.0195,18.898 24.1285,19.105 C24.2025,19.245 24.2605,19.444 24.3005,19.701 C24.3315,19.896 24.5045,20.037 24.7005,20.037 L25.7885,20.037 C26.0265,20.037 26.2255,19.833 26.1955,19.598 C26.0825,18.675 25.6765,17.991 24.9785,17.548 C24.6325,17.297 24.1805,17.128 23.6305,17.035 L23.6305,16.497 C23.6305,16.105 23.3095,15.783 22.9165,15.783 L22.6335,15.783 C22.2405,15.783 21.9195,16.105 21.9195,16.497 L21.9195,17.021 C21.6915,17.054 21.4905,17.091 21.3425,17.139 C20.9265,17.268 20.5485,17.502 20.2085,17.842 C19.9455,18.105 19.7405,18.418 19.5955,18.781 C19.4485,19.146 19.3765,19.55 19.3765,19.994 C19.3765,20.669 19.5645,21.245 19.9395,21.724 C20.3155,22.201 20.9595,22.574 21.8735,22.843 L21.9195,22.857 L21.9195,25.915 C21.6655,25.803 21.4725,25.653 21.3575,25.454 C21.2615,25.29 21.1825,24.998 21.1205,24.58 C21.0915,24.384 20.9175,24.241 20.7185,24.241 L19.5595,24.241 C19.3295,24.241 19.1355,24.434 19.1505,24.663 C19.2185,25.768 19.6165,26.565 20.3455,27.054 C20.7155,27.298 21.2445,27.476 21.9195,27.592 L21.9195,28.607 C21.9195,28.999 22.2405,29.32 22.6335,29.32 L22.9165,29.32 C23.3095,29.32 23.6305,28.999 23.6305,28.607 L23.6305,27.588 C24.1695,27.495 24.6545,27.327 25.0725,27.069 C25.9575,26.524 26.4005,25.648 26.4005,24.443 C26.4005,23.529 26.0785,22.821 25.4365,22.319" mask="url(#page-4-b)"/>
  </g>
</svg>
