<svg xmlns="http://www.w3.org/2000/svg" xmlns:xlink="http://www.w3.org/1999/xlink" width="70" height="55" viewBox="0 0 70 55">
  <defs>
    <polygon id="page-8-a" points="0 29.269 0 .27 25.14 .27 25.14 29.269"/>
  </defs>
  <g fill="none" fill-rule="evenodd" transform="translate(0 1)">
    <g transform="translate(0 16.97)">
      <mask id="page-8-b" fill="#fff">
        <use xlink:href="#page-8-a"/>
      </mask>
      <path fill="#E1E1E1" d="M16.2554,18.481 C16.4614,19.016 16.8614,19.326 17.3064,19.544 C18.1454,19.956 19.0034,20.33 19.8644,20.691 C20.7944,21.082 21.7164,21.479 22.5574,22.048 C24.0924,23.087 24.9324,24.523 25.0724,26.371 C25.0904,26.603 25.1154,26.835 25.1404,27.092 C16.3164,30.008 7.9844,29.981 -0.0006,27.092 C0.0334,25.436 0.4424,23.931 1.7014,22.749 C2.5694,21.932 3.6034,21.397 4.6844,20.933 C5.7384,20.481 6.8004,20.04 7.8374,19.548 C8.4514,19.256 8.7504,18.887 8.8764,18.471 C8.3024,18.357 7.7234,18.267 7.1584,18.122 C6.6494,17.99 6.1464,17.821 5.6554,17.627 C4.8044,17.291 4.3364,16.671 4.3854,15.702 C4.8234,15.737 4.9014,15.376 4.9444,15.067 C5.0574,14.262 5.1494,13.453 5.1994,12.642 C5.3004,11.047 5.3224,9.446 5.4604,7.854 C5.5844,6.418 5.9264,5.025 6.6334,3.745 C7.6274,1.945 9.1674,0.902 11.1514,0.466 C12.1174,0.254 13.0834,0.161 14.0474,0.465 C14.2794,0.538 14.5254,0.605 14.7254,0.735 C15.0214,0.927 15.3354,0.968 15.6724,1.001 C17.4594,1.172 18.6034,2.188 19.2784,3.796 C19.8034,5.043 19.9974,6.366 20.0524,7.7 C20.1324,9.653 20.1354,11.61 20.1934,13.564 C20.2094,14.081 20.2954,14.596 20.3804,15.107 C20.4124,15.3 20.5054,15.499 20.6184,15.661 C20.9364,16.115 20.9424,16.525 20.5864,16.96 C20.1804,17.453 19.6164,17.711 19.0274,17.87 C18.1754,18.098 17.3034,18.254 16.4404,18.441 C16.3924,18.452 16.3444,18.461 16.2554,18.481" mask="url(#page-8-b)"/>
    </g>
    <path fill="#CECECE" d="M44.2418,32.3266 C44.2858,30.9156 44.5558,29.5976 45.4718,28.4896 C46.2148,27.5916 47.1628,26.9626 48.2118,26.4906 C49.2778,26.0126 50.3648,25.5786 51.4418,25.1246 C51.5358,25.0856 51.6298,25.0446 51.7178,24.9946 C53.2658,24.1076 53.1448,23.9796 53.1928,22.5886 C53.2148,21.9696 53.0708,21.4646 52.7218,20.9276 C52.3258,20.3176 52.1298,19.5786 51.8408,18.8976 C51.7958,18.7936 51.7228,18.6976 51.6528,18.6066 C51.4258,18.3136 51.1358,18.0536 50.9738,17.7276 C50.6838,17.1376 50.5608,16.4956 50.6688,15.8296 C50.6828,15.7396 50.6848,15.6316 50.7358,15.5656 C51.1688,15.0166 50.9328,14.4396 50.8308,13.8626 C50.5768,12.4376 50.4828,11.0096 50.8618,9.5916 C51.3248,7.8606 52.4048,6.6856 54.1068,6.1126 C55.4238,5.6706 56.7718,5.5526 58.1408,5.8186 C58.8038,5.9476 59.3978,6.2186 59.8808,6.7106 C59.9518,6.7836 60.0588,6.8406 60.1588,6.8646 C61.8808,7.2916 62.7758,8.5986 63.0258,10.2476 C63.2558,11.7666 63.0188,13.2486 62.6458,14.7196 C62.6178,14.8296 62.5828,14.9846 62.6358,15.0616 C63.0278,15.6396 63.0278,16.2666 62.8988,16.9126 C62.7628,17.5956 62.5288,18.2236 61.9158,18.6406 C61.8378,18.6946 61.7888,18.8176 61.7628,18.9186 C61.5178,19.8526 61.1648,20.7336 60.5428,21.4886 C60.4948,21.5456 60.4618,21.6346 60.4628,21.7076 C60.4648,22.2776 60.4838,22.8476 60.4818,23.4186 C60.4798,23.8736 60.7018,24.2136 61.0578,24.4336 C61.6088,24.7756 62.1778,25.0976 62.7638,25.3706 C63.9058,25.9026 65.0958,26.3376 66.2098,26.9216 C67.6378,27.6716 68.7008,28.7936 69.1058,30.4086 C69.2618,31.0266 69.3168,31.6686 69.4228,32.3266 C60.7908,35.1396 52.4278,35.0666 44.2418,32.3266"/>
    <path stroke="#FF2929" stroke-linecap="round" stroke-linejoin="round" stroke-width="2.184" d="M20.6734 5.9584C27.9564.7554 37.6434-.2626 45.8564 3.2924M50.5611 47.8041C43.8061 52.6241 34.9511 53.8921 27.1161 51.1491"/>
    <polyline stroke="#FF2929" stroke-linecap="round" stroke-linejoin="round" stroke-width="2.184" points="25.628 8.425 19.238 6.637 20.674 .092"/>
    <polyline stroke="#FF2929" stroke-linecap="round" stroke-linejoin="round" stroke-width="2.184" points="45.856 45.131 52.401 46.216 51.684 52.878"/>
  </g>
</svg>
