<svg xmlns="http://www.w3.org/2000/svg" width="62" height="48" viewBox="0 0 62 48">
  <g fill="none" fill-rule="evenodd" transform="translate(0 1)">
    <path fill="#CECECE" d="M23.6047,28.5331 L48.4907,15.4191 L48.4907,32.1951 C48.4907,33.5411 47.7357,34.7721 46.5367,35.3821 L23.6047,47.0341 L0.0007,33.9201 L23.6047,28.5331 Z"/>
    <path fill="#A5A5A5" d="M23.6047,28.5331 L0.0007,15.8871 L0.0007,32.9191 C0.0007,33.8231 0.4977,34.6551 1.2947,35.0821 L23.6047,47.0341 L23.6047,28.5331 Z"/>
    <path fill="#E1E1E1" d="M22.1066 3.1659L.0006 15.8869 23.6046 28.5329 48.4906 15.4189 25.1346 3.1099C24.1826 2.6079 23.0396 2.6289 22.1066 3.1659M19.6398 30.5135L4.2288 22.4215C3.7828 22.1885 3.2478 22.5115 3.2478 23.0145L3.2478 32.0635C3.2478 32.3125 3.3858 32.5405 3.6068 32.6565L19.0178 40.7465C19.4628 40.9815 19.9978 40.6585 19.9978 40.1545L19.9978 31.1055C19.9978 30.8575 19.8608 30.6285 19.6398 30.5135"/>
    <path fill="#FFF" d="M26.8313 31.7459L26.8313 39.8959C26.8313 40.5199 27.4913 40.9249 28.0473 40.6409L45.2933 31.8169C45.5723 31.6749 45.7483 31.3879 45.7483 31.0729L45.7483 23.2499C45.7483 22.6309 45.0993 22.2269 44.5433 22.5009L27.2983 30.9969C27.0123 31.1379 26.8313 31.4279 26.8313 31.7459M23.5793 7.3719L9.9563 15.2109C9.5773 15.4299 9.5863 15.9779 9.9713 16.1849L23.5843 23.4779C23.7473 23.5649 23.9433 23.5659 24.1063 23.4799L38.4693 15.9109C38.8653 15.7019 38.8653 15.1349 38.4693 14.9259L24.1163 7.3619C23.9473 7.2729 23.7443 7.2769 23.5793 7.3719"/>
    <path fill="#FF2929" d="M60.5061,12.3875 C60.5061,19.2295 54.9601,24.7765 48.1181,24.7765 C41.2771,24.7765 35.7311,19.2295 35.7311,12.3875 C35.7311,5.5465 41.2771,-0.0005 48.1181,-0.0005 C54.9601,-0.0005 60.5061,5.5465 60.5061,12.3875"/>
    <path stroke="#FFF" stroke-linecap="round" stroke-linejoin="round" stroke-width="2" d="M60.5061,12.3875 C60.5061,19.2295 54.9601,24.7765 48.1181,24.7765 C41.2771,24.7765 35.7311,19.2295 35.7311,12.3875 C35.7311,5.5465 41.2771,-0.0005 48.1181,-0.0005 C54.9601,-0.0005 60.5061,5.5465 60.5061,12.3875 Z"/>
    <polyline stroke="#FFF" stroke-linecap="round" stroke-linejoin="round" stroke-width="1.22" points="48.118 8.457 48.118 12.388 53.753 15.124"/>
    <path stroke="#FFF" stroke-linecap="round" stroke-linejoin="round" stroke-width=".75" d="M48.1184 3.1258L48.1184 4.4378M48.1184 20.3758L48.1184 21.6878M57.3996 12.4071L56.0876 12.4071M40.1496 12.4071L38.8376 12.4071M41.5559 5.8446L42.4839 6.7726M53.7531 18.0418L54.6811 18.9698M54.6809 5.8446L53.7529 6.7726M42.4836 18.0418L41.5556 18.9698"/>
  </g>
</svg>
