<svg xmlns="http://www.w3.org/2000/svg" xmlns:xlink="http://www.w3.org/1999/xlink" width="38" height="48" viewBox="0 0 38 48">
  <defs>
    <polygon id="page-9-a" points="23.537 24 .027 24 .027 .313 23.537 .313 23.537 24"/>
    <polygon id="page-9-c" points="19.903 .715 .498 .715 .498 13.186 19.903 13.186 19.903 .715"/>
  </defs>
  <g fill="none" fill-rule="evenodd" transform="translate(0 -1)">
    <path fill="#A5A5A5" d="M14.6342,44.6906 L16.4152,39.1906 L16.0932,37.4406 L17.0022,31.9406 L16.6762,30.5656 L17.2592,29.5236 L16.4152,25.8156 L15.8522,24.7206 C14.2092,25.2316 13.6012,27.5046 13.4212,28.8796 C13.2602,30.1036 13.1992,29.2416 12.5892,30.0316 C12.5612,30.0676 11.7572,31.0546 11.6132,31.1476 C11.2022,31.4166 11.1392,31.4276 10.6662,31.8286 C10.0872,32.3206 10.2172,32.3606 10.0822,33.4206 C10.0732,33.4866 9.8222,34.7146 9.8222,34.7126 C9.7262,34.8856 9.2772,34.9566 9.2262,35.0706 C8.6262,36.4336 8.5232,37.4196 7.2372,38.4176 C6.7822,38.7686 4.0492,40.5386 3.8272,40.7516 C3.4442,41.1216 -0.1208,42.4706 0.0032,43.2776 C0.0952,43.8746 1.9282,44.7806 2.3772,45.0336 C5.8212,46.9796 9.9452,47.8166 14.0272,48.1266 L14.2592,47.5236 L14.6342,44.6906 Z"/>
    <g transform="translate(14 24.285)">
      <mask id="page-9-b" fill="#fff">
        <use xlink:href="#page-9-a"/>
      </mask>
      <path fill="#CECECE" d="M23.4653,18.7481 C23.4293,18.6661 21.8673,17.6141 21.7603,17.5361 C21.2893,17.1921 20.6093,16.6441 20.0513,16.4141 C19.5473,16.2081 17.6833,16.2011 17.0783,15.9131 C16.4863,15.6311 15.9113,14.9361 15.4353,14.3971 C14.7103,13.5781 14.0593,13.5201 13.2303,12.9271 C12.2023,12.1911 12.6533,10.8871 12.2533,9.8721 C11.4583,7.8591 10.6113,5.8081 8.7733,4.3841 C7.1933,3.1591 4.4553,-0.2039 1.9903,0.3811 C1.9413,0.3931 1.9013,0.4211 1.8523,0.4361 L2.4153,1.5301 L3.2593,5.2381 L2.6763,6.2801 L3.0023,7.6551 L2.0933,13.1551 L2.4153,14.9051 L0.6343,20.4051 L0.2593,23.2381 L0.0273,23.8411 C1.4973,23.9521 2.9643,24.0001 4.3903,24.0001 C9.9493,24.0001 16.7073,23.6471 21.6113,20.9161 C22.3603,20.4991 23.8833,19.6811 23.4653,18.7481" mask="url(#page-9-b)"/>
    </g>
    <path fill="#E1E1E1" d="M16.6743,25.5705 C16.6743,25.5705 16.5483,25.9015 16.0863,25.9015 C15.5563,25.9015 15.4983,25.5705 15.4983,25.5705 L15.4983,1.6645 L16.6743,1.6645 L16.6743,25.5705 Z"/>
    <g transform="translate(15 .285)">
      <mask id="page-9-d" fill="#fff">
        <use xlink:href="#page-9-c"/>
      </mask>
      <path fill="#FF2929" d="M0.4985,1.379 C0.4985,0.992 0.7935,0.692 1.1385,0.716 C2.9155,0.842 4.2505,1.532 10.5785,1 C13.5125,0.754 16.2625,0.537 19.1925,0.956 C19.5735,1.01 19.9035,1.353 19.9025,1.788 C19.8945,5.271 19.8995,8.587 19.8975,12.069 C19.8965,12.632 19.7415,12.775 19.2515,12.704 C17.1025,12.385 13.0655,12.378 10.2005,12.831 C5.3835,13.593 1.6375,12.907 1.1695,12.811 C0.7795,12.731 0.4985,12.352 0.4985,11.909 L0.4985,1.379 Z" mask="url(#page-9-d)"/>
    </g>
    <polygon fill="#FFF" points="28.716 4.962 26.547 5.171 26.547 2.712 23.19 3.034 23.19 5.494 21.021 5.702 21.021 9.509 23.19 9.3 23.19 11.76 26.547 11.437 26.547 8.978 28.716 8.769"/>
  </g>
</svg>
