<svg xmlns="http://www.w3.org/2000/svg" width="43" height="43" viewBox="0 0 43 43">
  <g fill="none" fill-rule="evenodd" transform="translate(0 -1)">
    <path fill="#E1E1E1" d="M39.9863,43.4276 L2.4413,43.4276 C1.0923,43.4276 0.0003,42.3346 0.0003,40.9866 L0.0003,3.4416 C0.0003,2.0926 1.0923,0.9996 2.4413,0.9996 L39.9863,0.9996 C41.3353,0.9996 42.4273,2.0926 42.4273,3.4416 L42.4273,40.9866 C42.4273,42.3346 41.3353,43.4276 39.9863,43.4276"/>
    <polyline stroke="#CECECE" stroke-width="5" points="18.359 8.067 35.442 8.003 35.442 1"/>
    <polyline stroke="#CECECE" stroke-width="5" points="25.442 23.478 25.442 29.144 7.476 29.144 7.476 43.427"/>
    <polyline stroke="#FFF" stroke-width="5" points="9.226 .572 9.226 7.67 .476 7.67 .476 21.795 9.226 21.795 9.226 16.926 28.061 16.926 28.061 35.76 14.268 35.76 14.268 43" transform="translate(7 .428)"/>
    <polyline stroke="#FF2929" stroke-width="1.5" points="9.226 .572 9.226 7.67 .476 7.67 .476 21.795 9.226 21.795 9.226 16.926 28.061 16.926 28.061 35.76 14.268 35.76 14.268 43" transform="translate(7 .428)"/>
  </g>
</svg>
