<?xml version="1.0" standalone="no"?>
<svg version="1.0" xmlns="http://www.w3.org/2000/svg"
 width="140.000000pt" height="140.000000pt" viewBox="0 0 140.000000 140.000000"
 preserveAspectRatio="xMidYMid meet">

<g transform="translate(0.000000,140.000000) scale(0.100000,-0.100000)"
fill="#66636c" stroke="none">
<path d="M330 1394 c-14 -2 -59 -9 -100 -15 -92 -14 -169 -42 -204 -74 l-26
-24 0 -464 0 -463 28 -27 c48 -46 172 -79 350 -92 l92 -8 0 -57 c0 -53 3 -61
30 -84 38 -31 105 -52 235 -72 186 -29 521 0 604 52 59 38 61 42 61 254 0 155
-3 200 -14 216 -36 50 -242 104 -400 104 l-56 0 1 321 c0 239 -3 325 -13 336
-22 27 -103 61 -184 78 -75 16 -349 29 -404 19z m343 -69 c104 -16 197 -49
197 -71 0 -18 -40 -38 -125 -60 -58 -16 -106 -19 -275 -19 -213 0 -267 7 -362
47 -27 11 -48 24 -48 29 0 5 15 18 32 29 87 53 379 76 581 45z m-562 -169
c154 -64 570 -59 742 9 16 7 18 2 15 -46 -3 -51 -5 -55 -38 -71 -73 -36 -178
-51 -360 -51 -184 0 -298 16 -369 50 -34 17 -36 21 -39 71 -3 57 -1 59 49 38z
m99 -201 c170 -35 442 -26 585 19 l75 24 0 -54 c0 -62 -8 -69 -125 -100 -58
-16 -106 -19 -280 -19 -216 0 -282 9 -372 52 -31 14 -33 18 -33 69 l0 53 43
-15 c23 -8 71 -21 107 -29z m-40 -168 c66 -18 102 -21 295 -21 195 0 229 2
295 21 41 12 83 25 93 28 16 7 18 2 15 -46 -3 -51 -5 -55 -38 -71 -73 -36
-178 -51 -360 -51 -184 0 -298 16 -369 50 -34 17 -36 21 -39 72 -3 48 -1 53
15 46 10 -3 52 -16 93 -28z m40 -182 c36 -8 122 -17 192 -21 l126 -7 -29 -24
c-20 -17 -29 -34 -29 -54 l0 -29 -77 0 c-99 1 -214 21 -281 50 l-52 22 0 54 0
53 43 -15 c23 -8 71 -21 107 -29z m945 -40 c96 -17 188 -51 182 -69 -6 -22
-93 -56 -181 -71 -114 -19 -328 -19 -441 0 -95 17 -185 50 -185 69 0 25 115
66 225 79 84 11 320 6 400 -8z m-1058 -106 c53 -20 168 -40 268 -47 l100 -7 1
-59 1 -59 -94 7 c-111 8 -218 29 -270 53 -36 17 -38 21 -41 71 -2 28 -1 52 2
52 3 0 17 -5 33 -11z m1243 -95 l0 -55 -42 -19 c-83 -36 -194 -52 -363 -52
-171 0 -280 16 -360 51 -45 20 -45 20 -45 72 0 49 1 51 23 44 113 -35 185 -46
327 -51 204 -8 321 9 458 65 1 1 2 -24 2 -55z m-649 -169 c167 -31 478 -16
609 30 l40 14 0 -53 c0 -52 -1 -53 -37 -69 -89 -40 -172 -51 -368 -51 -198 0
-270 9 -357 46 l-48 20 0 54 0 53 40 -14 c23 -8 77 -21 121 -30z"/>
</g>
</svg>
