<?xml version="1.0" standalone="no"?>
<svg version="1.0" xmlns="http://www.w3.org/2000/svg"
 width="140.000000pt" height="140.000000pt" viewBox="0 0 140.000000 140.000000"
 preserveAspectRatio="xMidYMid meet">

<g transform="translate(0.000000,140.000000) scale(0.100000,-0.100000)"
fill="#66636c" stroke="none">
<path d="M29 1371 l-29 -29 0 -292 0 -292 29 -29 c20 -19 40 -29 60 -29 l31 0
0 -84 c0 -118 10 -119 124 -6 l92 90 61 0 c47 0 62 4 67 16 12 31 -13 44 -82
44 l-66 0 -68 -67 -68 -67 0 50 c0 65 -14 82 -70 86 l-45 3 0 285 0 285 372 3
c205 1 374 1 375 0 1 -2 5 -131 8 -288 5 -268 6 -285 24 -288 10 -2 22 2 27
10 13 20 11 529 -2 567 -21 60 -29 61 -439 61 l-372 0 -29 -29z"/>
<path d="M350 1267 c-49 -24 -60 -67 -60 -229 0 -133 2 -148 18 -157 31 -17
42 6 42 91 l0 78 60 0 60 0 0 -84 c0 -90 13 -112 46 -79 13 14 15 39 12 170
l-3 155 -37 34 c-41 37 -91 45 -138 21z m100 -62 c6 -8 14 -32 17 -55 l6 -40
-62 0 -61 0 0 37 c0 20 7 45 17 55 19 22 66 24 83 3z"/>
<path d="M594 813 c-12 -2 -32 -15 -45 -29 l-24 -26 0 -264 0 -264 28 -27 27
-28 248 -3 247 -3 87 -86 c107 -107 118 -106 118 6 l0 79 36 7 c20 3 47 18 60
32 l24 26 0 259 c0 167 -4 267 -11 280 -21 39 -67 48 -252 48 -182 0 -215 -7
-202 -43 6 -15 29 -17 203 -19 l197 -3 3 -254 c2 -197 -1 -256 -10 -263 -7 -4
-32 -8 -54 -8 -48 0 -54 -9 -54 -78 l0 -46 -63 62 -63 62 -246 0 c-234 0 -248
1 -258 19 -16 30 -14 486 3 499 7 6 33 12 57 14 34 2 46 7 48 22 6 32 -34 43
-104 29z"/>
<path d="M997 694 c-4 -4 -7 -18 -7 -30 0 -22 -4 -23 -82 -26 -81 -3 -83 -4
-83 -28 0 -22 5 -25 41 -28 39 -3 42 -5 53 -45 7 -23 23 -58 36 -79 l24 -36
-32 -15 c-18 -8 -43 -18 -57 -22 -41 -12 -51 -24 -39 -47 13 -25 47 -20 120
17 l49 24 48 -23 c72 -36 108 -41 121 -18 13 24 5 32 -61 56 -26 10 -50 21
-53 26 -3 4 9 34 25 65 17 31 30 66 30 76 0 15 7 19 40 19 27 0 42 5 48 18 18
35 4 42 -83 42 l-84 0 -3 28 c-3 26 -34 43 -51 26z m73 -126 c0 -22 -42 -98
-51 -92 -11 7 -49 79 -49 94 0 5 22 10 50 10 32 0 50 -4 50 -12z"/>
</g>
</svg>
