<?xml version="1.0" standalone="no"?>
<svg version="1.0" xmlns="http://www.w3.org/2000/svg"
 width="140.000000pt" height="140.000000pt" viewBox="0 0 140.000000 140.000000"
 preserveAspectRatio="xMidYMid meet">

<g transform="translate(0.000000,140.000000) scale(0.100000,-0.100000)"
fill="#66636c" stroke="none">
<path d="M615 1393 c-349 -48 -607 -344 -606 -693 1 -277 146 -507 396 -630
79 -39 220 -75 267 -68 38 5 32 31 -25 114 -47 68 -127 213 -127 229 0 3 47 5
104 5 87 0 105 3 110 16 14 36 -12 44 -130 44 l-113 0 -16 52 c-21 74 -35 154
-35 199 l0 39 161 0 160 0 -3 28 -3 27 -163 3 c-162 2 -162 3 -158 25 3 12 7
47 10 78 3 31 15 86 26 123 l21 66 213 0 c194 0 215 -2 221 -17 4 -10 17 -54
29 -98 18 -68 24 -80 44 -83 33 -5 34 14 9 111 l-24 87 132 0 131 0 24 -42
c13 -24 36 -81 50 -128 19 -60 32 -86 45 -88 28 -6 34 16 19 82 -21 91 -85
212 -149 284 -163 179 -392 266 -620 235z m159 -98 c35 -42 116 -168 116 -180
0 -3 -84 -5 -186 -5 l-186 0 31 53 c16 28 51 80 78 114 41 53 53 63 79 63 25
0 39 -9 68 -45z m-238 -44 c-29 -44 -59 -93 -66 -110 l-12 -31 -121 0 -121 0
52 53 c29 29 76 67 105 85 49 29 177 81 204 82 7 0 -12 -36 -41 -79z m415 38
c63 -24 144 -77 204 -133 l50 -45 -125 0 -125 0 -19 41 c-11 23 -39 70 -63
106 -23 35 -43 66 -43 68 0 4 72 -17 121 -37z m-526 -256 c-19 -47 -36 -125
-42 -195 l-6 -78 -153 0 c-150 0 -154 1 -154 21 0 56 56 211 92 257 8 8 48 12
140 12 120 0 130 -1 123 -17z m-42 -405 c6 -65 19 -126 41 -195 l7 -23 -149 0
-149 0 -17 38 c-26 59 -46 143 -46 200 l0 52 154 0 153 0 6 -72z m107 -356
c19 -42 52 -103 73 -135 21 -33 35 -62 32 -65 -10 -11 -98 18 -181 58 -81 40
-174 117 -223 188 l-22 32 143 0 143 -1 35 -77z"/>
<path d="M998 787 c-112 -32 -196 -135 -206 -253 -6 -82 16 -150 82 -252 59
-93 184 -242 202 -242 16 0 122 114 178 193 137 192 151 349 40 467 -24 25
-62 56 -86 67 -56 28 -149 37 -210 20z m178 -71 c125 -58 168 -200 101 -332
-29 -56 -109 -171 -160 -229 l-35 -40 -22 20 c-43 39 -143 181 -177 250 -57
120 -41 223 48 298 72 62 158 74 245 33z"/>
<path d="M1007 600 c-31 -25 -51 -80 -42 -119 9 -41 56 -82 101 -88 53 -7 104
28 123 83 12 36 12 44 -4 77 -10 21 -30 44 -46 52 -40 21 -101 19 -132 -5z
m118 -64 c21 -32 5 -73 -31 -82 -33 -8 -56 5 -68 39 -20 57 66 94 99 43z"/>
</g>
</svg>
