<svg width="92" height="92" viewBox="0 0 92 92" fill="none" xmlns="http://www.w3.org/2000/svg">
<path d="M71.3802 7.05982C68.6515 7.05793 66.0152 8.04784 63.9621 9.84521C61.909 11.6426 60.5792 14.1249 60.2202 16.8298H69.7402C71.9071 16.8325 73.9847 17.6937 75.5179 19.2251C77.0511 20.7564 77.9149 22.8329 77.9202 24.9998V27.4798C79.86 26.0931 81.3095 24.1263 82.0598 21.8629C82.8101 19.5994 82.8225 17.1563 82.0952 14.8854C81.3679 12.6145 79.9384 10.6331 78.0128 9.22671C76.0871 7.82034 73.7647 7.0616 71.3802 7.05982Z" fill="#0080FF"/>
<path d="M74.92 25.0001C74.92 23.6262 74.3743 22.3087 73.4029 21.3373C72.4314 20.3658 71.1139 19.8201 69.74 19.8201H15.46C14.087 19.8227 12.771 20.3693 11.8001 21.3402C10.8293 22.311 10.2827 23.6271 10.28 25.0001V31.7101H74.92V25.0001ZM17.5 28.0001C17.0803 28.002 16.6695 27.8794 16.3195 27.6477C15.9696 27.4159 15.6963 27.0855 15.5343 26.6983C15.3723 26.3111 15.3289 25.8845 15.4096 25.4726C15.4902 25.0607 15.6913 24.6821 15.9874 24.3846C16.2835 24.0871 16.6612 23.8842 17.0727 23.8016C17.4843 23.719 17.911 23.7603 18.299 23.9205C18.687 24.0807 19.0186 24.3524 19.252 24.7012C19.4854 25.0501 19.61 25.4603 19.61 25.8801C19.61 26.4406 19.3881 26.9783 18.9926 27.3756C18.5972 27.7729 18.0606 27.9974 17.5 28.0001ZM24.7 28.0001C24.2803 28.002 23.8695 27.8794 23.5195 27.6477C23.1696 27.4159 22.8963 27.0855 22.7343 26.6983C22.5723 26.3111 22.5289 25.8845 22.6096 25.4726C22.6902 25.0607 22.8913 24.6821 23.1874 24.3846C23.4835 24.0871 23.8612 23.8842 24.2727 23.8016C24.6843 23.719 25.111 23.7603 25.499 23.9205C25.887 24.0807 26.2186 24.3524 26.452 24.7012C26.6854 25.0501 26.81 25.4603 26.81 25.8801C26.81 26.4406 26.5881 26.9783 26.1926 27.3756C25.7972 27.7729 25.2606 27.9974 24.7 28.0001ZM31.9 28.0001C31.4795 28.004 31.0673 27.8828 30.7158 27.6519C30.3643 27.4209 30.0895 27.0906 29.9262 26.703C29.763 26.3154 29.7188 25.888 29.7991 25.4752C29.8794 25.0624 30.0808 24.6828 30.3774 24.3847C30.6741 24.0866 31.0528 23.8835 31.4652 23.8012C31.8776 23.7188 32.3052 23.7611 32.6936 23.9225C33.082 24.0839 33.4136 24.3571 33.6462 24.7075C33.8788 25.0579 34.002 25.4695 34 25.8901C33.9974 26.4471 33.7757 26.9808 33.3827 27.3757C32.9897 27.7705 32.4571 27.9948 31.9 28.0001Z" fill="#EDF3FF"/>
<path d="M50.11 65.38C50.2976 65.5965 50.5295 65.7701 50.79 65.8891C51.0505 66.0082 51.3336 66.0699 51.62 66.07C52.1014 66.0697 52.5665 65.8957 52.93 65.58L62.58 57.2C62.7928 57.0124 62.9633 56.7815 63.08 56.5229C63.1968 56.2643 63.2571 55.9838 63.2571 55.7C63.2571 55.4163 63.1968 55.1358 63.08 54.8772C62.9633 54.6185 62.7928 54.3877 62.58 54.2L52.93 45.81C52.5259 45.5181 52.0273 45.3875 51.532 45.4441C51.0366 45.5006 50.5802 45.7401 50.2523 46.1156C49.9243 46.4911 49.7485 46.9755 49.7591 47.474C49.7698 47.9724 49.9663 48.4489 50.31 48.81L58.22 55.69L50.31 62.56C49.9098 62.9076 49.6639 63.3999 49.6264 63.9287C49.5889 64.4574 49.7628 64.9795 50.11 65.38Z" fill="#0082FF"/>
<path d="M30.9199 65.5801C31.2834 65.8958 31.7485 66.0697 32.2299 66.0701C32.6373 66.0698 33.0349 65.9451 33.3695 65.7126C33.7041 65.4802 33.9597 65.1511 34.1022 64.7694C34.2447 64.3877 34.2671 63.9716 34.1667 63.5768C34.0662 63.182 33.8475 62.8272 33.5399 62.5601L25.6299 55.6901L33.5399 48.8101C33.7654 48.6472 33.9544 48.439 34.0948 48.1989C34.2353 47.9588 34.3241 47.6921 34.3557 47.4157C34.3872 47.1393 34.3608 46.8594 34.278 46.5938C34.1952 46.3283 34.058 46.0829 33.875 45.8734C33.692 45.6639 33.4673 45.4948 33.2153 45.3771C32.9633 45.2593 32.6895 45.1954 32.4114 45.1894C32.1333 45.1835 31.857 45.2356 31.6002 45.3425C31.3434 45.4493 31.1117 45.6086 30.9199 45.8101L21.2699 54.2001C21.0571 54.3878 20.8866 54.6186 20.7699 54.8772C20.6532 55.1358 20.5928 55.4163 20.5928 55.7001C20.5928 55.9838 20.6532 56.2643 20.7699 56.523C20.8866 56.7816 21.0571 57.0124 21.2699 57.2001L30.9199 65.5801Z" fill="#0082FF"/>
<path d="M38.7302 72.1101C38.8664 72.1249 39.0039 72.1249 39.1402 72.1101C39.6067 72.12 40.0619 71.9664 40.4272 71.6761C40.7924 71.3857 41.0446 70.9768 41.1402 70.5201L47.1402 41.7801C47.2466 41.2617 47.1433 40.7222 46.8527 40.2798C46.5622 39.8375 46.1082 39.5283 45.5902 39.4201C45.3314 39.3677 45.0648 39.3671 44.8058 39.4184C44.5468 39.4696 44.3004 39.5716 44.081 39.7184C43.8616 39.8653 43.6735 40.0542 43.5275 40.2742C43.3814 40.4941 43.2804 40.7409 43.2302 41.0001L37.2302 69.7401C37.1194 70.2529 37.2145 70.7888 37.4951 71.2321C37.7757 71.6754 38.2193 71.9907 38.7302 72.1101Z" fill="#0082FF"/>
<path d="M69.7399 16.8298H15.4599C13.293 16.8325 11.2154 17.6938 9.68222 19.2251C8.14903 20.7564 7.2852 22.8329 7.27991 24.9998V74.1998C7.28255 76.3685 8.14522 78.4476 9.6787 79.981C11.2122 81.5145 13.2912 82.3772 15.4599 82.3798H69.7399C71.9086 82.3772 73.9876 81.5145 75.5211 79.981C77.0546 78.4476 77.9173 76.3685 77.9199 74.1998V24.9998C77.9146 22.8329 77.0508 20.7564 75.5176 19.2251C73.9844 17.6938 71.9068 16.8325 69.7399 16.8298ZM10.2799 24.9998C10.2825 23.6268 10.8291 22.3108 11.8 21.3399C12.7709 20.3691 14.0869 19.8225 15.4599 19.8198H69.7399C70.4202 19.8198 71.0937 19.9538 71.7222 20.2141C72.3507 20.4745 72.9217 20.856 73.4027 21.337C73.8837 21.818 74.2653 22.3891 74.5256 23.0175C74.7859 23.646 74.9199 24.3196 74.9199 24.9998V31.7098H10.2799V24.9998ZM74.9199 74.1998C74.9199 75.5736 74.3742 76.8912 73.4027 77.8626C72.4313 78.8341 71.1137 79.3798 69.7399 79.3798H15.4599C14.0869 79.3772 12.7709 78.8306 11.8 77.8597C10.8291 76.8889 10.2825 75.5728 10.2799 74.1998V34.7198H74.9199V74.1998Z" fill="black"/>
<path d="M17.5 23.77C17.0803 23.7681 16.6694 23.8907 16.3195 24.1225C15.9695 24.3542 15.6962 24.6846 15.5343 25.0718C15.3723 25.459 15.3289 25.8856 15.4095 26.2975C15.4902 26.7094 15.6913 27.088 15.9874 27.3855C16.2835 27.683 16.6612 27.8859 17.0727 27.9685C17.4842 28.0512 17.911 28.0098 18.299 27.8496C18.6869 27.6894 19.0186 27.4177 19.252 27.0689C19.4854 26.72 19.61 26.3098 19.61 25.89C19.61 25.3295 19.388 24.7918 18.9926 24.3945C18.5972 23.9972 18.0605 23.7727 17.5 23.77Z" fill="#0080FF"/>
<path d="M24.7 28.01C25.8708 28.01 26.82 27.0609 26.82 25.89C26.82 24.7192 25.8708 23.77 24.7 23.77C23.5291 23.77 22.58 24.7192 22.58 25.89C22.58 27.0609 23.5291 28.01 24.7 28.01Z" fill="#0080FF"/>
<path d="M31.9 28.01C33.0709 28.01 34.02 27.0609 34.02 25.89C34.02 24.7192 33.0709 23.77 31.9 23.77C30.7292 23.77 29.78 24.7192 29.78 25.89C29.78 27.0609 30.7292 28.01 31.9 28.01Z" fill="#0080FF"/>
</svg>
