<svg width="92" height="92" viewBox="0 0 92 92" fill="none" xmlns="http://www.w3.org/2000/svg">
<path d="M30.25 56.5201C30.61 56.5201 30.96 56.5801 31.33 56.5801C33.2584 56.5812 35.1636 56.1602 36.9119 55.3465C38.6602 54.5328 40.2092 53.3462 41.45 51.8701L38.66 49.0901L30.25 56.5201Z" fill="#EDF3FF"/>
<path d="M18.0699 43.3198C18.0602 45.8302 18.7649 48.2916 20.1018 50.4165C21.4387 52.5414 23.3526 54.242 25.6199 55.3198L37.4199 44.8898C37.8022 44.553 38.2986 44.3748 38.8078 44.3915C39.317 44.4082 39.8006 44.6186 40.1599 44.9798L43.5899 48.4098C44.2404 46.8226 44.5799 45.1251 44.5899 43.4098C44.4951 39.9574 43.057 36.6782 40.5815 34.2698C38.1061 31.8614 34.7886 30.5139 31.3349 30.5139C27.8812 30.5139 24.5638 31.8614 22.0883 34.2698C19.6129 36.6782 18.1748 39.9574 18.0799 43.4098L18.0699 43.3198Z" fill="#EDF3FF"/>
<path d="M84.34 65.1002C83.3684 64.729 82.4709 64.1871 81.69 63.5002C80.9381 62.8772 80.2988 62.1296 79.8 61.2902C79.54 60.8402 79.31 60.3702 79.07 59.9102L79 59.7202C78.9107 59.8651 78.8305 60.0154 78.76 60.1702C78.3987 60.9709 77.9238 61.7152 77.35 62.3802C76.8118 63.032 76.178 63.5985 75.47 64.0602C74.96 64.3802 74.47 64.6602 73.89 64.9502C73.81 64.9502 73.7 64.9502 73.61 65.0502C73.5428 65.0863 73.4925 65.1473 73.47 65.2202C73.47 65.2202 73.55 65.3602 73.61 65.3802C75.1524 65.9888 76.5028 67.0008 77.52 68.3102C78.0524 68.9876 78.496 69.7303 78.84 70.5202C78.84 70.5902 78.91 70.6402 78.97 70.7502C79.0665 70.6009 79.1501 70.4437 79.22 70.2802C79.5657 69.4523 80.038 68.6831 80.62 68.0002C81.1342 67.3776 81.7413 66.8379 82.42 66.4002C82.94 66.0702 83.5 65.7802 84.04 65.4802C84.13 65.4302 84.24 65.4302 84.34 65.3802C84.371 65.3622 84.3978 65.3376 84.4185 65.3083C84.4392 65.279 84.4533 65.2455 84.46 65.2102C84.4483 65.1848 84.4317 65.162 84.4111 65.1431C84.3905 65.1242 84.3663 65.1096 84.34 65.1002Z" fill="#0080FF"/>
<path d="M78.94 79.3798H18.57C16.755 79.3798 15.0142 78.6595 13.7298 77.377C12.4455 76.0946 11.7226 74.3548 11.72 72.5398V18.3298C11.72 17.932 11.5619 17.5505 11.2806 17.2692C10.9993 16.9879 10.6178 16.8298 10.22 16.8298C9.82215 16.8298 9.44061 16.9879 9.15931 17.2692C8.87801 17.5505 8.71997 17.932 8.71997 18.3298V72.5398C8.72262 75.1505 9.76156 77.6533 11.6085 79.4984C13.4554 81.3434 15.9593 82.3798 18.57 82.3798H78.94C79.3378 82.3798 79.7193 82.2218 80.0006 81.9405C80.2819 81.6592 80.44 81.2776 80.44 80.8798C80.44 80.482 80.2819 80.1005 80.0006 79.8192C79.7193 79.5379 79.3378 79.3798 78.94 79.3798Z" fill="black"/>
<path d="M27.17 16.0802L28.68 16.6602C29.12 16.8402 29.56 17.0002 30 17.1602C30.1187 17.2128 30.2231 17.2928 30.3048 17.3936C30.3865 17.4944 30.4432 17.6132 30.47 17.7402L30.77 18.6102C31.11 19.6102 31.45 20.5502 31.77 21.5302C31.8181 21.6168 31.8715 21.7003 31.93 21.7802C32.03 21.6902 32.1 21.6302 32.11 21.5802C32.21 21.3102 32.3 21.0302 32.39 20.7702C32.56 20.2902 32.74 19.8302 32.91 19.3502C33.08 18.8702 33.3 18.3502 33.45 17.8402C33.4858 17.6626 33.5732 17.4996 33.7013 17.3715C33.8294 17.2434 33.9924 17.156 34.17 17.1202L34.33 17.0702C35.49 16.6402 36.65 16.2202 37.82 15.7602C37.8602 15.7469 37.8961 15.7233 37.9242 15.6917C37.9523 15.6601 37.9716 15.6216 37.98 15.5802C37.98 15.5202 37.89 15.4402 37.82 15.4002C37.75 15.3602 37.57 15.3302 37.45 15.2802C36.96 15.1002 36.45 14.9002 36.02 14.7202C35.3533 14.4602 34.6867 14.2102 34.02 13.9702C33.9002 13.9245 33.7932 13.8507 33.7079 13.7549C33.6227 13.6592 33.5616 13.5444 33.53 13.4202L33.23 12.5202L32.23 9.61019C32.23 9.53019 32.12 9.44019 32.06 9.44019C32 9.44019 31.91 9.52019 31.87 9.60019C31.83 9.68019 31.79 9.87019 31.74 10.0102L30.95 12.1502L30.47 13.4802C30.4399 13.5986 30.3814 13.7078 30.2995 13.7985C30.2176 13.8891 30.1148 13.9583 30 14.0002L29.21 14.2802L27.79 14.8102C27.28 15.0002 26.79 15.1802 26.25 15.3802C26.16 15.3802 26.09 15.5102 26.01 15.5802C26.0773 15.6635 26.1585 15.7345 26.25 15.7902C26.55 15.8702 26.86 16.0002 27.17 16.0802Z" fill="#0080FF"/>
<path d="M72.6598 25.1304H56.4598C55.9293 25.1304 55.4206 25.3411 55.0456 25.7162C54.6705 26.0912 54.4598 26.5999 54.4598 27.1304C54.4598 27.6608 54.6705 28.1695 55.0456 28.5446C55.4206 28.9197 55.9293 29.1304 56.4598 29.1304H67.5298L46.4398 51.2104L43.5898 48.3604L40.1598 44.9304C39.8004 44.5692 39.3168 44.3588 38.8076 44.3421C38.2984 44.3253 37.802 44.5036 37.4198 44.8404L25.6198 55.2704L19.8798 60.3504C19.482 60.7018 19.24 61.1968 19.2072 61.7266C19.1744 62.2564 19.3534 62.7775 19.7048 63.1754C20.0562 63.5732 20.5512 63.8151 21.081 63.8479C21.6108 63.8808 22.132 63.7018 22.5298 63.3504L30.2498 56.5204L38.6598 49.0904L41.4498 51.8704L45.0598 55.4904C45.4469 55.8623 45.9629 56.0701 46.4998 56.0704C46.7658 56.0667 47.0284 56.0099 47.2723 55.9035C47.5161 55.797 47.7362 55.643 47.9198 55.4504L70.6598 31.6404V43.3204C70.6598 43.8508 70.8705 44.3595 71.2456 44.7346C71.6206 45.1097 72.1293 45.3204 72.6598 45.3204C73.1902 45.3204 73.6989 45.1097 74.074 44.7346C74.4491 44.3595 74.6598 43.8508 74.6598 43.3204V27.1304C74.6598 26.5999 74.4491 26.0912 74.074 25.7162C73.6989 25.3411 73.1902 25.1304 72.6598 25.1304Z" fill="#0082FF"/>
</svg>
