<svg width="92" height="92" viewBox="0 0 92 92" fill="none" xmlns="http://www.w3.org/2000/svg">
<path d="M31.0598 61.6899C30.5294 61.6899 30.0207 61.9007 29.6456 62.2757C29.2705 62.6508 29.0598 63.1595 29.0598 63.6899V71.69C29.0598 72.2204 29.2705 72.7291 29.6456 73.1042C30.0207 73.4792 30.5294 73.69 31.0598 73.69C31.5903 73.69 32.099 73.4792 32.474 73.1042C32.8491 72.7291 33.0598 72.2204 33.0598 71.69V63.6899C33.0598 63.4273 33.0081 63.1672 32.9076 62.9246C32.8071 62.6819 32.6597 62.4614 32.474 62.2757C32.2883 62.09 32.0678 61.9427 31.8252 61.8422C31.5825 61.7417 31.3225 61.6899 31.0598 61.6899Z" fill="#0082FF"/>
<path d="M42.3701 48.8999C41.8397 48.8999 41.331 49.1106 40.9559 49.4857C40.5808 49.8608 40.3701 50.3695 40.3701 50.8999V71.6899C40.3701 72.2203 40.5808 72.729 40.9559 73.1041C41.331 73.4792 41.8397 73.6899 42.3701 73.6899C42.9006 73.6899 43.4093 73.4792 43.7843 73.1041C44.1594 72.729 44.3701 72.2203 44.3701 71.6899V50.8999C44.3701 50.3695 44.1594 49.8608 43.7843 49.4857C43.4093 49.1106 42.9006 48.8999 42.3701 48.8999Z" fill="#0082FF"/>
<path d="M65 73.6902C65.5304 73.6902 66.0391 73.4795 66.4142 73.1044C66.7893 72.7293 67 72.2206 67 71.6902V31.6902C67 31.1598 66.7893 30.651 66.4142 30.276C66.0391 29.9009 65.5304 29.6902 65 29.6902C64.4696 29.6902 63.9609 29.9009 63.5858 30.276C63.2107 30.651 63 31.1598 63 31.6902V71.6902C63 72.2206 63.2107 72.7293 63.5858 73.1044C63.9609 73.4795 64.4696 73.6902 65 73.6902Z" fill="#0082FF"/>
<path d="M51.6899 59.72V71.72C51.6899 72.2504 51.9007 72.7591 52.2757 73.1342C52.6508 73.5093 53.1595 73.72 53.6899 73.72C54.2204 73.72 54.7291 73.5093 55.1042 73.1342C55.4792 72.7591 55.6899 72.2504 55.6899 71.72V59.72C55.6899 59.1895 55.4792 58.6808 55.1042 58.3058C54.7291 57.9307 54.2204 57.72 53.6899 57.72C53.1595 57.72 52.6508 57.9307 52.2757 58.3058C51.9007 58.6808 51.6899 59.1895 51.6899 59.72Z" fill="#0082FF"/>
<path d="M30.0001 32.24C31.5944 34.0332 33.6846 35.3132 36.0065 35.9183C38.3284 36.5234 40.7775 36.4262 43.0442 35.6392C45.3108 34.8521 47.2931 33.4106 48.7404 31.4968C50.1876 29.583 51.0348 27.2829 51.1747 24.8876C51.3146 22.4923 50.741 20.1093 49.5264 18.04C48.3118 15.9707 46.5108 14.3082 44.3512 13.2626C42.1916 12.217 39.7704 11.8354 37.3939 12.166C35.0174 12.4966 32.7923 13.5246 31.0001 15.12C29.7956 16.1689 28.8126 17.4478 28.1088 18.8816C27.4049 20.3154 26.9944 21.8753 26.9013 23.4698C26.8081 25.0643 27.0343 26.6614 27.5664 28.1674C28.0985 29.6733 28.9259 31.058 30.0001 32.24Z" fill="#EDF3FF"/>
<path d="M75.1699 16.83H52.2699C51.7409 15.8893 51.1177 15.0048 50.4099 14.19C47.7485 11.1889 44.0061 9.36492 40.0026 9.11751C35.999 8.8701 32.0606 10.2195 29.0499 12.87C27.7658 14.0088 26.6898 15.3623 25.8699 16.87H20.8699C18.7133 16.8779 16.6469 17.736 15.1191 19.2581C13.5914 20.7802 12.7257 22.8435 12.7099 25V41.6L7.5799 46.14C7.17875 46.491 6.8518 46.9186 6.61825 47.3977C6.3847 47.8769 6.24926 48.3978 6.2199 48.93C6.15046 50.0038 6.51013 51.0613 7.2199 51.87L7.6699 52.38C8.38307 53.185 9.38648 53.6741 10.4599 53.74H10.7199C11.4211 53.7391 12.1102 53.5565 12.7199 53.21V74.21C12.7225 76.3787 13.5852 78.4578 15.1187 79.9912C16.6522 81.5247 18.7312 82.3874 20.8999 82.39H75.1699C77.3385 82.3874 79.4176 81.5247 80.9511 79.9912C82.4846 78.4578 83.3472 76.3787 83.3499 74.21V25C83.3446 22.8331 82.4808 20.7566 80.9476 19.2253C79.4144 17.694 77.3368 16.8327 75.1699 16.83ZM30.9999 15.12C32.7921 13.5247 35.0172 12.4967 37.3937 12.166C39.7702 11.8354 42.1914 12.217 44.351 13.2626C46.5106 14.3082 48.3116 15.9708 49.5262 18.0401C50.7408 20.1093 51.3144 22.4923 51.1745 24.8877C51.0346 27.283 50.1874 29.583 48.7402 31.4968C47.2929 33.4106 45.3106 34.8522 43.0439 35.6392C40.7773 36.4263 38.3281 36.5234 36.0063 35.9183C33.6844 35.3133 31.5942 34.0332 29.9999 32.24C28.9357 31.053 28.117 29.6672 27.591 28.1623C27.065 26.6574 26.842 25.0633 26.935 23.4718C27.0279 21.8803 27.435 20.323 28.1326 18.8896C28.8303 17.4562 29.8048 16.175 30.9999 15.12ZM15.7099 25C15.7099 24.86 15.7099 24.72 15.7099 24.58C15.8111 23.3424 16.3552 22.1827 17.2424 21.3139C18.1296 20.4451 19.3004 19.9253 20.5399 19.85C20.6432 19.8447 20.7466 19.8447 20.8499 19.85H24.5999C23.9253 22.0732 23.771 24.4218 24.149 26.7141C24.527 29.0065 25.4272 31.1811 26.7799 33.07L22.1899 37.1C21.455 36.6325 20.5876 36.4176 19.7195 36.488C18.8513 36.5584 18.0298 36.9102 17.3799 37.49L15.7099 39V25ZM11.4199 50.48C11.3158 50.5737 11.1941 50.6457 11.0619 50.6921C10.9298 50.7384 10.7897 50.7581 10.6499 50.75C10.3692 50.7288 10.1076 50.5998 9.9199 50.39L9.4699 49.88C9.37804 49.7751 9.30778 49.6531 9.26317 49.5209C9.21855 49.3888 9.20045 49.2492 9.2099 49.11C9.21674 48.9716 9.25227 48.8362 9.31425 48.7122C9.37622 48.5883 9.46328 48.4785 9.5699 48.39L19.3599 39.74C19.553 39.5685 19.8016 39.4726 20.0599 39.47H20.1299C20.2675 39.4756 20.4025 39.5096 20.5264 39.5698C20.6503 39.6301 20.7605 39.7152 20.8499 39.82L21.2999 40.33C21.3992 40.43 21.4763 40.5499 21.5261 40.6817C21.5759 40.8136 21.5972 40.9545 21.5887 41.0952C21.5802 41.2359 21.5421 41.3732 21.4768 41.4981C21.4115 41.623 21.3206 41.7327 21.2099 41.82L11.4199 50.48ZM80.3499 25.17V74.17C80.3473 75.543 79.8007 76.8591 78.8298 77.8299C77.8589 78.8008 76.5429 79.3474 75.1699 79.35H20.8899C20.7866 79.3554 20.6832 79.3554 20.5799 79.35C19.3404 79.2747 18.1696 78.755 17.2824 77.8862C16.3952 77.0173 15.8511 75.8577 15.7499 74.62C15.7499 74.48 15.7499 74.35 15.7499 74.2V50.69L23.2399 44.08C23.8998 43.5087 24.3548 42.7372 24.5353 41.8832C24.7159 41.0292 24.6121 40.1396 24.2399 39.35L28.8299 35.3C31.3857 37.6814 34.6925 39.0961 38.1799 39.3H39.1799C43.0036 39.2703 46.6743 37.7949 49.4549 35.1701C52.2355 32.5453 53.92 28.9656 54.1699 25.15C54.2748 23.3534 54.0616 21.5524 53.5399 19.83H75.1699C76.5412 19.8327 77.8557 20.3779 78.8263 21.3466C79.7969 22.3153 80.3446 23.6288 80.3499 25V25.17Z" fill="black"/>
</svg>
