<svg width="92" height="92" viewBox="0 0 92 92" fill="none" xmlns="http://www.w3.org/2000/svg">
<path d="M70.88 7.87007C67.3964 7.86993 63.9889 8.88972 61.0781 10.8036C58.1673 12.7175 55.8806 15.4417 54.5 18.6401H58.06C58.9267 18.6401 59.785 18.8108 60.5857 19.1425C61.3865 19.4741 62.114 19.9603 62.7269 20.5732C63.3398 21.186 63.8259 21.9136 64.1576 22.7144C64.4893 23.5151 64.66 24.3733 64.66 25.2401V33.1801H75.34L79.13 34.4901L81.3 40.1501C84.3592 37.9468 86.6407 34.8301 87.8166 31.2481C88.9925 27.6662 89.002 23.8036 87.8439 20.2159C86.6858 16.6282 84.4197 13.5002 81.3715 11.2818C78.3232 9.06341 74.65 7.8689 70.88 7.87007Z" fill="#EDF3FF"/>
<path d="M19.8701 73.7101C19.7801 73.8901 19.6901 74.0201 19.6301 74.1601C19.2702 74.9623 18.7989 75.7097 18.2301 76.3801C17.6891 77.0263 17.0556 77.589 16.3501 78.0501C15.8401 78.3801 15.3001 78.6501 14.7701 78.9401C14.6801 78.9401 14.5701 78.9401 14.4901 79.0401C14.4554 79.0586 14.4251 79.0842 14.4009 79.1152C14.3768 79.1462 14.3595 79.182 14.3501 79.2201C14.3501 79.2201 14.4301 79.3501 14.4901 79.3701C16.0325 79.9787 17.3829 80.9907 18.4001 82.3001C18.9269 82.9814 19.37 83.7233 19.7201 84.5101C19.7201 84.5801 19.7901 84.6401 19.8501 84.7501C19.9501 84.5601 20.0401 84.4201 20.1001 84.2701C20.4623 83.4448 20.9478 82.6794 21.5401 82.0001C22.063 81.3822 22.6726 80.8432 23.3501 80.4001C23.8701 80.0701 24.4301 79.7901 24.9701 79.4901C25.0601 79.4401 25.1701 79.4301 25.2701 79.3801C25.3291 79.3396 25.3717 79.2793 25.3901 79.2101C25.3808 79.1798 25.3654 79.1516 25.3447 79.1276C25.3241 79.1035 25.2987 79.0839 25.2701 79.0701C24.299 78.7025 23.4015 78.164 22.6201 77.4801C21.8678 76.8575 21.2285 76.1099 20.7301 75.2701C20.4701 74.8201 20.2401 74.3501 20.0001 73.8801L19.8701 73.7101Z" fill="#0084FF"/>
<path d="M74.0002 30.8101H64.6602V33.8101H74.0002C75.352 33.8127 76.6477 34.3509 77.6036 35.3068C78.5594 36.2626 79.0976 37.5583 79.1002 38.9101V74.6501L71.6602 69.7901C71.4144 69.6358 71.1305 69.5528 70.8402 69.5501H34.1402C33.4683 69.5541 32.8023 69.4255 32.1801 69.1717C31.558 68.9179 30.992 68.5439 30.5146 68.0711C30.0372 67.5983 29.6577 67.036 29.3978 66.4164C29.138 65.7968 29.0029 65.132 29.0002 64.4601V57.3801H26.0002V64.4601C26.0029 66.6066 26.8575 68.6643 28.3762 70.1812C29.895 71.6981 31.9537 72.5501 34.1002 72.5501H70.4302L79.8102 78.6801C80.0539 78.8404 80.3386 78.9272 80.6302 78.9301C81.0281 78.9301 81.4096 78.7721 81.6909 78.4908C81.9722 78.2095 82.1302 77.8279 82.1302 77.4301V38.9101C82.1302 37.8439 81.9198 36.7881 81.5108 35.8034C81.1019 34.8187 80.5026 33.9244 79.7472 33.1719C78.9919 32.4194 78.0954 31.8233 77.1092 31.418C76.123 31.0127 75.0665 30.8061 74.0002 30.8101Z" fill="#181818"/>
<path d="M11.5702 65.2601C11.1724 65.2601 10.7908 65.1021 10.5095 64.8208C10.2282 64.5395 10.0702 64.1579 10.0702 63.7601V25.2401C10.0702 23.0918 10.9236 21.0316 12.4426 19.5125C13.9617 17.9935 16.0219 17.1401 18.1702 17.1401H58.0602C59.1239 17.1401 60.1772 17.3496 61.1599 17.7567C62.1427 18.1637 63.0356 18.7604 63.7878 19.5125C64.5399 20.2647 65.1366 21.1576 65.5436 22.1404C65.9507 23.1231 66.1602 24.1764 66.1602 25.2401V50.7901C66.1575 52.9366 65.303 54.9943 63.7842 56.5112C62.2655 58.0281 60.2067 58.8801 58.0602 58.8801H21.7702L12.3902 65.0001C12.1476 65.1639 11.8629 65.2542 11.5702 65.2601ZM18.1702 20.1401C16.8184 20.1427 15.5227 20.6809 14.5669 21.6368C13.611 22.5926 13.0728 23.8883 13.0702 25.2401V61.0001L20.5102 56.1401C20.7561 55.9858 21.0399 55.9028 21.3302 55.9001H58.0602C59.4103 55.8975 60.7044 55.3607 61.66 54.407C62.6156 53.4533 63.1549 52.1601 63.1602 50.8101V25.2401C63.1575 23.8883 62.6194 22.5926 61.6635 21.6368C60.7076 20.6809 59.412 20.1427 58.0602 20.1401H18.1702Z" fill="#181818"/>
<path d="M49.2901 35.18H26.9401C26.4096 35.18 25.9009 34.9693 25.5259 34.5942C25.1508 34.2191 24.9401 33.7104 24.9401 33.18C24.9401 32.6495 25.1508 32.1408 25.5259 31.7657C25.9009 31.3907 26.4096 31.18 26.9401 31.18H49.2901C49.8205 31.18 50.3292 31.3907 50.7043 31.7657C51.0793 32.1408 51.2901 32.6495 51.2901 33.18C51.2901 33.7104 51.0793 34.2191 50.7043 34.5942C50.3292 34.9693 49.8205 35.18 49.2901 35.18Z" fill="#0084FF"/>
<path d="M49.2901 45.6401H26.9401C26.4096 45.6401 25.9009 45.4294 25.5259 45.0543C25.1508 44.6792 24.9401 44.1705 24.9401 43.6401C24.9401 43.1096 25.1508 42.6009 25.5259 42.2259C25.9009 41.8508 26.4096 41.6401 26.9401 41.6401H49.2901C49.8205 41.6401 50.3292 41.8508 50.7043 42.2259C51.0793 42.6009 51.2901 43.1096 51.2901 43.6401C51.2901 44.1705 51.0793 44.6792 50.7043 45.0543C50.3292 45.4294 49.8205 45.6401 49.2901 45.6401Z" fill="#0084FF"/>
</svg>
