<svg width="92" height="92" viewBox="0 0 92 92" fill="none" xmlns="http://www.w3.org/2000/svg">
<path d="M81.0902 74.35C81.0002 74.53 80.9102 74.66 80.8502 74.81C80.4889 75.6045 80.0139 76.3422 79.4402 77C78.9029 77.6489 78.2728 78.215 77.5702 78.68C77.0502 79 76.5702 79.28 75.9902 79.57C75.9002 79.57 75.7902 79.57 75.7002 79.67C75.6673 79.6869 75.6386 79.7109 75.6161 79.7403C75.5936 79.7697 75.5779 79.8038 75.5702 79.84C75.5702 79.84 75.6402 79.98 75.7002 79.99C77.2524 80.6248 78.6061 81.6642 79.6202 83C80.1495 83.6776 80.5898 84.4203 80.9302 85.21C80.9807 85.2842 81.0275 85.361 81.0702 85.44C81.1631 85.2851 81.2466 85.1248 81.3202 84.96C81.6842 84.1448 82.1697 83.3895 82.7602 82.72C83.2756 82.0947 83.8864 81.5547 84.5702 81.12C85.0902 80.78 85.6402 80.5 86.1802 80.2C86.2802 80.15 86.3902 80.14 86.4802 80.09C86.511 80.074 86.5377 80.0514 86.5585 80.0237C86.5793 79.996 86.5935 79.9639 86.6002 79.93C86.5928 79.8975 86.5782 79.8671 86.5574 79.8412C86.5366 79.8152 86.5102 79.7943 86.4802 79.78C85.5102 79.41 84.6131 78.8718 83.8302 78.19C83.0972 77.5452 82.4784 76.7811 82.0002 75.93C81.7402 75.48 81.5102 75.01 81.2702 74.55L81.0902 74.35Z" fill="#0084FF"/>
<path d="M24.1501 23H40.5001C39.6209 20.0989 38.0166 17.4699 35.8388 15.3614C33.661 13.2528 30.9815 11.7343 28.0536 10.9493C25.1256 10.1644 22.0459 10.1389 19.1054 10.8752C16.1648 11.6115 13.4606 13.0854 11.2481 15.1576C9.03561 17.2298 7.38797 19.8318 6.46085 22.7179C5.53372 25.604 5.35772 28.6788 5.94948 31.6518C6.54123 34.6248 7.8812 37.3979 9.84277 39.709C11.8044 42.0201 14.3228 43.7929 17.1601 44.86V30C17.1601 28.1452 17.8962 26.3662 19.2068 25.0538C20.5174 23.7413 22.2953 23.0026 24.1501 23Z" fill="#EDF3FF"/>
<path d="M72.0002 21.5299H24.1502C21.9027 21.5325 19.7478 22.4251 18.1568 24.0124C16.5658 25.5997 15.6681 27.7525 15.6602 29.9999V64.4999C15.6588 65.6157 15.8775 66.7207 16.3036 67.7519C16.7296 68.7832 17.3548 69.7203 18.1433 70.5097C18.9318 71.2991 19.8682 71.9254 20.8989 72.3527C21.9296 72.78 23.0344 72.9999 24.1502 72.9999H72.0002C73.1138 72.9999 74.2165 72.7806 75.2453 72.3544C76.2742 71.9282 77.209 71.3036 77.9964 70.5162C78.7839 69.7287 79.4085 68.7939 79.8347 67.765C80.2608 66.7362 80.4802 65.6335 80.4802 64.5199V29.9999C80.4749 27.7534 79.5794 25.6006 77.99 24.013C76.4005 22.4254 74.2467 21.5325 72.0002 21.5299ZM24.1202 24.5299H72.0002C72.7211 24.5273 73.4355 24.6667 74.1026 24.9401C74.7697 25.2136 75.3764 25.6158 75.8881 26.1237C76.3997 26.6317 76.8063 27.2354 77.0846 27.9005C77.3629 28.5656 77.5075 29.2789 77.5102 29.9999V30.8999L50.5102 45.6499C49.7718 46.0561 48.9428 46.269 48.1002 46.269C47.2575 46.269 46.4285 46.0561 45.6902 45.6499L18.6902 30.8999V29.9999C18.6954 28.5525 19.272 27.1657 20.2946 26.1413C21.3171 25.1169 22.7028 24.5378 24.1502 24.5299H24.1202ZM72.0002 69.9999H24.1502C23.4297 70.0012 22.716 69.8604 22.05 69.5856C21.384 69.3108 20.7787 68.9074 20.2688 68.3984C19.7588 67.8894 19.3543 67.2848 19.0783 66.6193C18.8022 65.9538 18.6602 65.2404 18.6602 64.5199V34.3299L44.2402 48.3299C45.42 48.9776 46.7442 49.3172 48.0902 49.3172C49.4361 49.3172 50.7603 48.9776 51.9402 48.3299L77.5102 34.3299V64.5199C77.5102 65.2421 77.3674 65.9571 77.0902 66.624C76.8129 67.2908 76.4066 67.8962 75.8945 68.4055C75.3825 68.9148 74.7748 69.3178 74.1065 69.5914C73.4381 69.865 72.7223 70.0039 72.0002 69.9999Z" fill="#181818"/>
</svg>
