<svg fill="#BCBEC0" width="24" height="24" viewBox="0 -2 24 22" xmlns="http://www.w3.org/2000/svg"><path d="M17.01 3.235h-.5v.5h.5v-.5zm-9.924 0v.5h.5v-.5h-.5zm14.637-.5H17.01v1h4.713v-1zm-4.212.5v-.86h-1v.86h1zm0-.86c0-.822-.664-1.485-1.484-1.485v1c.268 0 .485.217.485.484h1zM16.027.89H8.07v1h7.956v-1zM8.07.89c-.818 0-1.484.663-1.484 1.484h1c0-.267.217-.484.485-.484v-1zM6.587 2.374v.86h1v-.86h-1zm.5.36h-4.71v1h4.71v-1zm-4.71 0C1.555 2.735.89 3.4.89 4.22h1c0-.268.217-.485.485-.485v-1zM.89 4.22V15.37h1V4.22h-1zm0 11.152c0 .82.665 1.484 1.485 1.484v-1c-.268 0-.485-.217-.485-.484h-1zm1.485 1.484h19.348v-1H2.375v1zm19.348 0c.82 0 1.483-.665 1.483-1.484h-1c0 .268-.216.484-.483.484v1zm1.483-1.484V4.22h-1V15.37h1zm0-11.153c0-.82-.663-1.485-1.483-1.485v1c.267 0 .483.217.483.484h1zM17.25 9.375c0 2.71-2.197 4.905-4.906 4.905v1c3.26 0 5.905-2.644 5.905-5.905h-1zm-4.906 4.905c-2.71 0-4.904-2.196-4.904-4.905h-1c0 3.26 2.643 5.905 5.904 5.905v-1zM7.44 9.375c0-2.71 2.195-4.905 4.904-4.905v-1c-3.26 0-5.904 2.644-5.904 5.905h1zm4.904-4.905c2.71 0 4.905 2.196 4.905 4.905h1c0-3.26-2.645-5.905-5.906-5.905v1z"/></svg>