<svg width="48" height="48" viewBox="0 0 48 48" fill="none" xmlns="http://www.w3.org/2000/svg">
<path d="M22.9996 4.85237L7.87692 7.87691L4.85237 22.9996C4.80394 23.2418 4.81604 23.4921 4.8876 23.7285C4.95916 23.9648 5.08797 24.1798 5.26258 24.3545L24.8475 43.9394C24.9868 44.0786 25.1521 44.1891 25.3341 44.2645C25.5161 44.3399 25.7112 44.3787 25.9081 44.3787C26.1051 44.3787 26.3002 44.3399 26.4822 44.2645C26.6642 44.1891 26.8295 44.0786 26.9688 43.9394L43.9394 26.9688C44.0787 26.8295 44.1891 26.6641 44.2645 26.4822C44.3399 26.3002 44.3787 26.1051 44.3787 25.9081C44.3787 25.7112 44.3399 25.5161 44.2645 25.3341C44.1891 25.1521 44.0787 24.9868 43.9394 24.8475L24.3545 5.26258C24.1799 5.08797 23.9648 4.95916 23.7285 4.8876C23.4921 4.81604 23.2418 4.80394 22.9996 4.85237V4.85237Z" stroke="#222222" stroke-width="2" stroke-linecap="round" stroke-linejoin="round"/>
<path d="M15.75 18C16.9926 18 18 16.9926 18 15.75C18 14.5074 16.9926 13.5 15.75 13.5C14.5074 13.5 13.5 14.5074 13.5 15.75C13.5 16.9926 14.5074 18 15.75 18Z" fill="#222222"/>
</svg>
