<svg xmlns="http://www.w3.org/2000/svg" width="504" height="301" fill="none" viewBox="0 0 504 301">
    <path fill="#52AEA2" d="M85.239 237.563c-.24-1.434-.717-2.749-1.434-3.824-.837-2.869-2.271-5.26-4.303-7.65-1.076-1.195-2.51-2.39-3.705-3.585-.718-2.271-2.152-4.542-4.781-6.574-4.423-3.466-11.474 2.27-9.562 7.41 0 .12.12.24.12.359 0 .837 0 1.673.358 2.63.24.716.478 1.434.598 2.031-.24.837-.598 1.674-.717 2.152-1.435 2.988-3.228 5.737-4.662 8.725-2.51 5.14-4.661 11.474-1.076 16.613.718 1.076 1.674 1.913 2.75 2.63.956 3.346 11.713 8.605 15.537 10.279 6.096 2.63 4.9-1.793 9.204-6.933 5.617-6.932 2.629-16.135 1.673-24.263z" opacity=".15"/>
    <path fill="#52AEA2" d="M86.912 238.639c-3.346-7.77-13.984-19.602-21.155-24.263-4.064-2.63-3.586 6.932-.359 10.279 9.801 9.92 8.726 23.426 8.845 36.334-3.705-.12-6.215 5.379-2.27 7.77 1.792 1.075 3.465 1.673 5.497 2.15 1.554.36 3.347-.238 4.303-1.314 1.076-.359 1.912-1.315 2.151-2.63 2.39-10.159 7.53-17.928 2.988-28.326zM19.98 214.854c-1.195-.717-2.63-.956-4.064-.717-1.195-1.434-2.749-3.227-2.868-4.422-.598-8.367-13.626-8.367-13.028 0 .12 1.434.359 2.63.837 3.825a6.5 6.5 0 0 0 0 2.151c1.314 8.008 0 16.375 2.749 24.143 2.51 7.41 8.964 13.745 16.972 15.18 9.322 1.793 12.55-9.92 12.789-17.092.358-9.084-5.499-18.884-13.387-23.068z" opacity=".15"/>
    <path fill="#52AEA2" d="M30.737 224.176c-.598-.597-1.315-.956-2.032-1.076-4.9-6.095-14.104-7.649-16.852-15.179-1.793-5.02-9.801-2.868-8.008 2.152 2.749 7.53 7.41 9.92 13.864 13.984 2.51 1.553 4.422 4.063 5.618 6.812-.24 3.825-.478 7.65-.598 11.474l-.12.12c-2.39 1.434-3.346 5.378-.12 7.171l1.435.717c1.793 1.554 4.781 1.435 6.215-.956.359-.717.717-1.434 1.076-2.27 6.454-5.14 5.618-17.331-.478-22.949z" opacity=".15"/>
    <path stroke="#66636C" stroke-dasharray="6 6" stroke-linecap="round" stroke-linejoin="round" stroke-miterlimit="10" stroke-width="1.99876" d="M64.083 214.854s36.574 19.363 15.777 54.382c-.478 1.674-3.824 10.757 4.184 17.69"/>
    <path stroke="#66636C" stroke-linecap="round" stroke-linejoin="round" stroke-miterlimit="10" stroke-width="1.99876" d="M74.243 268.878c-13.625-4.781-20.438-14.94-15.418-27.37 6.215-15.18 5.259-26.654 5.259-26.654M80.936 248.559c.956 5.498 1.076 11.952-.717 19.123M73.406 231.109c.598.598 2.152 1.912 4.064 6.096M26.315 252.981c-7.291-.956-12.67-3.346-16.375-6.454-16.374-13.984-4.303-43.984-4.303-43.984s2.032 9.8 19.841 18.048c15.896 7.29 6.454 27.37 6.454 27.37M11.494 236.368c2.51 6.454 6.932 12.31 15.777 16.614M7.31 216.647c.479 2.39.718 4.78 1.196 7.29M99.701 286.328c-36.215 6.574-65.259-18.167-72.31-32.749M118.825 279.993c-2.151 1.076-4.303 1.912-6.454 2.749"/>
    <path fill="#BD86C1" d="M470.1 210.073c-.12-1.554 6.334.597 7.05-.598 1.196-2.032.36-8.486 1.674-10.757 1.195-2.032 6.693-2.39 6.574-4.78-.12-1.435-1.434-1.435-1.434-2.51.12-2.87 3.944-9.802 6.215-11.833 4.422-3.945 3.824-9.562-2.271-9.204-5.857.24-11.116 3.586-16.255 6.215-2.51 1.315-5.26 2.271-7.77 3.706-.836.478-1.553.956-2.27 1.553l-1.434-.358c-5.14-.956-8.725 3.227-8.964 7.171-4.184 1.554-9.084 2.152-11.474 6.454-2.39 4.423-.479 6.574 2.988 9.801 0 .837 1.434 3.466 1.673 4.422 1.554 5.857 5.617 8.606 10.996 8.486 4.542 6.216 7.29 8.128 13.745 1.674 2.988-2.869 1.195-5.498.956-9.442z" opacity=".15"/>
    <path fill="#BD86C1" d="M470.458 216.647c.598-1.076.598-2.39.24-3.586 2.629-2.39 5.856-4.302 7.649-7.53 1.314-2.39.956-5.617 2.15-8.007.838-.837 1.674-1.554 2.391-2.39 1.435-1.435 1.435-3.587.478-5.14.837-1.554 1.793-3.108 2.869-4.542 1.076-1.315 2.27-2.51 3.347-3.705 3.824-3.825-1.674-9.443-5.737-5.976a36.92 36.92 0 0 0-4.184 4.541c-4.542 5.498-8.366 11.594-12.55 17.45-1.912 1.196-4.183 2.152-6.693 2.87-1.793.477-2.749 1.672-2.988 3.107-.239-.12-.478-.24-.836-.24-.718-.119-1.315-.238-2.032-.238-2.39-3.467-8.845-1.554-7.53 3.107.12.478.358 1.076.478 1.554-.12.956-.12 1.912.359 2.749 2.749 4.422 6.215 6.693 10.517 7.65.478 2.27 2.63 3.944 5.02 3.346 3.586-.837 5.498-2.032 7.052-5.02z" opacity=".15"/>
    <path fill="#BD86C1" d="M466.514 216.288c.837-1.195.597-2.271.837-3.586v-.12c.119-.119.239-.239.239-.358 1.314-1.793-1.674-3.705-3.108-1.793-1.315 1.793-2.869 5.379-5.618 5.618-1.553.12-2.749 2.39-.956 3.346 2.152 1.076 4.064.956 5.976-.478 1.076-.956 2.032-1.793 2.63-2.63z" opacity=".15"/>
    <path fill="#BD86C1" d="M465.199 209.475c.836-1.075-.359-2.629-1.435-2.749-.956-.12-1.673.12-2.51.598-1.314.598-2.39 1.076-3.824 1.434-1.315.359-1.913.598-3.108-.12-.836-.597-1.673-1.194-2.63-1.672-1.314-.598-2.51.358-2.629 1.314-1.075.478-1.673 1.793-.717 2.869 1.315 1.434 2.032 3.107 3.944 3.824 1.674.718 3.466.837 5.14.359 3.107-.837 5.737-3.347 7.769-5.857z" opacity=".15"/>
    <path fill="#BD86C1" d="M474.402 201.467c0-.12-.12-.239-.12-.478l.36-1.075c.477-2.271-2.989-3.227-3.467-.957-.478 2.39-3.227 3.945-4.78 5.618-1.316 1.554-1.555 4.183 1.075 4.422 3.107.359 7.769-4.302 6.932-7.53z" opacity=".15"/>
    <path fill="#BD86C1" d="M468.785 201.706c-.239-.12-.358-.358-.597-.478 1.554-.478 2.51-2.151 3.107-3.824.837-2.152-2.63-3.108-3.466-.957-.12.359-.239.718-.478.957-.239.358-.239.478-.358.12-.12 0-.478-.479-.598-.599-.598-.717-1.195-1.434-1.793-2.031-1.315-1.315-2.868-2.152-4.78-1.435-.837.359-1.196 1.674-.718 2.39 1.076 1.555 2.63 2.63 3.705 4.304 1.076 1.792 2.271 3.346 3.945 4.541 2.031 1.315 3.824-1.673 2.031-2.988zM483.008 190.232c-.12-.239-.359-.358-.718-.478-.12-1.673-2.868-2.27-3.466-.358-.478 1.554-1.673 2.51-2.749 3.825-.956 1.195-.478 2.868 1.196 3.107 1.434.12 3.107-.837 4.302-1.554 1.674-1.075 2.869-2.749 1.435-4.542zM485.996 183.18c.12-.716.12-1.314-.239-1.912-.478-.836-1.315-1.195-2.27-1.195-.957-.12-1.794.837-1.794 1.793 0 .478.12.837.359 1.076-.717.478-.956 1.553-.478 2.27.478.837 1.554 1.076 2.39.718.956-.598 1.793-1.674 2.032-2.75zM490.418 177.802c.478-.717 1.076-1.793.956-2.75-.12-.955-.717-1.792-1.792-1.792-.598 0-1.315.359-1.554.956a.913.913 0 0 0-.598.24c-1.076.597-2.39.716-3.466 1.314-2.032 1.076-.359 4.303 1.673 3.108.478.717 1.315 1.195 2.271.956 1.195-.24 1.913-1.196 2.51-2.032z" opacity=".15"/>
    <path fill="#BD86C1" d="M477.868 189.276c.359-1.434-1.554-2.988-2.988-1.673-.717.717-1.434 1.075-2.27 1.553-.12-.12-.12-.239-.24-.239-.597-.717-1.195-1.434-2.032-1.792-.836-.359-1.673-.359-2.27.478-.479.717-.598 1.673.119 2.27.837.718 1.434 1.674 2.151 2.272.24.358.478.597.717.956.957.836 2.032 1.314 3.228 1.075 2.151-.597 4.063-2.749 3.585-4.9zM445.598 201.945v-.836c1.075-.598 1.912-1.674 2.868-2.39.837-.598 1.195-1.435.717-2.391-.358-.717-1.673-1.315-2.39-.717-.837.597-1.554 1.314-2.271 1.912v-.359c-.12-1.434-2.032-1.673-2.988-.836-1.673 1.554-1.195 3.705.359 4.78.119.24.239.598.239.718-.359 2.39 3.227 2.39 3.466.12zM461.255 186.408c-1.314-1.195-2.868-1.315-4.302-.717-.598-.837-1.793-1.195-2.63-.359-.836.837-.956 1.674-.836 2.51-.24.24-.598.478-.837.837-1.554 1.673.837 4.183 2.51 2.63l.12-.12c.597.478 1.314.597 2.031.239 1.076-.598 1.913-1.793 3.108-2.032 1.315-.24 1.912-2.151.836-2.988z" opacity=".15"/>
    <path fill="#BD86C1" d="M457.072 190.352c-.478-.478-1.195-.717-1.912-.478-.598 0-1.315.239-1.673.836-.478.837-.24 1.913.597 2.39.956.598 2.032.479 2.869-.358.717-.597.836-1.673.12-2.39zM469.143 179.595c-.12.12-.359.12-.478.24-.12-.12-.24-.24-.478-.36-.717-.477-2.032-.238-2.39.598-.598 1.195-.957 2.51-1.554 3.705-.359.837-.359 1.674.478 2.271.597.478 1.793.598 2.27-.12 1.076-1.314 2.272-2.51 3.825-3.226 2.032-1.076.359-4.184-1.673-3.108zM477.988 178.758c-.24-.478-.478-.836-.837-1.195-.717-.598-1.793-.717-2.51 0-.239.24-.358.478-.478.837 0 .12-.12.12-.12.239-.597.956-.119 1.912.598 2.39.837.598 1.793.598 2.63.24.836-.479 1.075-1.674.717-2.51z" opacity=".15"/>
    <path fill="#BD86C1" d="M475.358 180.312c-.239-.956-1.195-1.434-2.15-1.315-.599.12-1.196.24-1.794.598-.836.358-1.195 1.553-.717 2.39.478.837 1.554 1.195 2.39.717.24-.12.479-.12.957-.239.956-.12 1.554-1.195 1.314-2.151z" opacity=".15"/>
    <path stroke="#66636C" stroke-linecap="round" stroke-linejoin="round" stroke-miterlimit="10" stroke-width="1.99876" d="M442.728 204.575c-2.869-2.39-3.108-6.693-.717-9.442 2.39-2.869 6.693-3.108 9.442-.717M469.621 209.953c2.869 2.39 3.108 6.693.717 9.442-2.39 2.869-6.693 3.108-9.442.717"/>
    <path stroke="#66636C" stroke-linecap="round" stroke-linejoin="round" stroke-miterlimit="10" stroke-width="1.9987" d="M463.719 213.635c3.55-4.172 3.046-10.433-1.127-13.983-4.173-3.55-10.433-3.046-13.984 1.127-3.55 4.172-3.045 10.433 1.127 13.983 4.173 3.55 10.434 3.046 13.984-1.127z"/>
    <path stroke="#66636C" stroke-linecap="round" stroke-linejoin="round" stroke-miterlimit="10" stroke-width="1.99876" d="M452.29 189.515c-.956-2.63.478-5.618 3.108-6.574 2.63-.956 5.617.478 6.573 3.108M474.402 208.28c2.749.478 5.498-1.314 5.976-4.183.478-2.749-1.315-5.498-4.183-5.976M458.864 192.264c2.749-3.227 7.53-3.586 10.757-.837 3.227 2.75 3.586 7.53.837 10.757M463.883 181.865c-.717-1.912.359-4.063 2.271-4.78 1.913-.718 4.064.358 4.781 2.27M480.019 195.61c2.032.359 3.944-.956 4.303-3.107.358-2.032-.956-3.944-3.108-4.303M484.322 184.854c1.912-.717 2.988-2.869 2.39-4.781-.717-1.912-2.868-2.988-4.78-2.39l-.718-.598c.359-2.032-1.075-3.944-3.107-4.303s-3.944 1.076-4.303 3.108M468.665 184.017c2.032-2.39 5.498-2.63 7.888-.598 2.39 2.032 2.63 5.498.598 7.889M482.529 170.87c1.434-1.673 4.064-1.913 5.737-.478 1.673 1.434 1.912 4.064.478 5.737M449.78 214.854l-16.852 19.602"/>
    <path fill="#52AEA2" d="M440.099 296.01c-1.196-3.586-4.662-5.499-8.606-6.574-2.63-1.554-5.857-2.39-9.323-2.75-7.29-.836-14.94-1.314-22.35-.836 1.315-1.673 2.39-3.466 3.346-5.498a23.34 23.34 0 0 0 2.032-2.749c.478-.598 1.076-1.315 1.674-2.032.478-.478.956-.837 1.434-1.195 2.39-1.674 7.65-7.41 8.964-9.92 4.303-7.77 9.203-7.889 7.41-16.973-.597-3.107-4.183-3.944-6.334-1.792-.837.836-1.554 1.792-2.271 2.868a33.832 33.832 0 0 0-5.737 6.574c-4.303.358-7.052 5.617-8.606 9.203-.597 1.434-1.195 3.108-1.793 4.78-2.63 2.152-4.661 4.662-6.334 7.411-4.303 3.586-8.486 7.291-10.996 12.789-.12.359-.24.717-.359.956-.837 1.793-.239 4.184 1.793 4.9 6.454 2.391 14.223.598 21.394-.238 10.518 2.51 20.558 6.215 31.674 5.856 2.63 0 3.585-2.749 2.988-4.78z" opacity=".15"/>
    <path fill="#52AEA2" d="M396.473 250.113c-1.195-4.064-2.749-7.41-5.498-10.638-2.27-6.813-4.78-15.299-12.071-18.048-5.02-1.912-8.247 5.737-3.347 7.65.359.12.598.239.837.478-.359.717-.478 1.434-.24 2.39 1.077 3.944 3.108 4.9 3.825 8.845.479 2.988 2.75 3.825 4.064 6.693.956 2.032 2.51 8.367 4.303 7.889 1.434 6.454 1.195 11.593 2.988 18.047.956 3.466 6.454 3.227 7.65.12 3.107-7.65-.359-16.016-2.51-23.426zM412.609 201.706c-3.466 6.096-7.291 13.387-8.845 20.32-.836 3.465-.956 6.931-1.434 10.517-.478 3.347-1.554 6.335-1.434 9.681-1.076 2.271-2.271 4.303-2.032 7.291.239 4.542 7.29 3.586 7.052-.956-.12-1.076.597-2.39 1.314-3.825.359-.358.478-.836.717-1.315.479-.836.837-1.673.957-2.39.836-3.825 1.314-7.65 2.151-11.474l.359-1.793c.478-1.554 1.075-3.107 1.673-4.542 1.793-4.661 4.183-9.083 4.303-14.103v-.717c.717-1.315 1.434-2.63 2.151-3.825 1.793-4.064-4.78-6.813-6.932-2.869zM404.243 213.898c-.12-.478-.24-.956-.359-1.554 0-3.825-.717-7.29-1.315-10.996-.717-4.9-.956-9.8-1.792-14.582-1.196-7.171-3.347-13.984-8.606-19.123-1.912-1.912-5.498-.12-5.737 2.27-.837 7.292 2.032 15.778 3.586 22.83 1.673 7.649 5.378 14.462 7.17 22.111.957 4.303 8.128 3.466 7.053-.956zM444.402 157.125c-3.347.717-6.096 2.032-8.606 3.585-.837-.956-2.151-1.314-3.705-.717-3.944 1.674-8.128 5.26-11.355 9.084-2.868 1.195-5.617 2.27-8.247 3.825-3.944 2.39.359 8.008 4.303 5.737.359-.24.837-.478 1.195-.717 1.076.836 2.51 1.314 3.825.836 2.988-.956 5.379-2.63 8.008-4.303 3.108-1.912 5.976-2.39 9.442-3.227 5.26-1.434 8.486-4.542 9.084-10.04.239-2.151-1.673-4.541-3.944-4.063z" opacity=".15"/>
    <path fill="#52AEA2" d="M422.888 125.69c-.358-.956-.956-1.434-1.673-1.792 0-1.315 0-2.63-.12-4.064-.478-4.542-7.53-3.586-7.052.956.718 8.008-1.792 16.733-2.868 24.621-.956 8.008-2.271 16.016-1.195 24.144.478 3.227 5.617 4.422 6.812.956 2.989-8.725 2.989-17.57 4.542-26.534 1.076-6.095 3.945-12.31 1.554-18.287z" opacity=".15"/>
    <path fill="#52AEA2" d="M447.629 113.5c.12-2.391-2.271-5.14-4.9-3.825-6.814 3.466-12.67 9.442-16.375 16.135-2.152 3.944-2.988 8.247-4.423 12.31-1.553 4.543-3.466 8.726-4.183 13.507-.717 4.542 6.335 5.498 7.052.956 0-.12 0-.239.12-.358.717-.36 1.434-.837 1.912-1.793 1.554-3.347 4.422-5.976 6.215-9.203 2.032-3.467 4.183-6.574 6.574-9.801 4.302-5.379 7.769-10.877 8.008-17.929zM443.805 163.938c-3.944.358-15.299 8.725-19.243 8.486-3.586-.24-7.052-1.076-9.8 1.554-3.347 3.227-6.694 2.988-2.391 4.302-2.869-.956 6.932 0 7.41 0 1.315.12 4.9-2.39 6.096-2.39 3.346.12 5.259-2.27 8.605-2.63 4.662-.478 13.865-9.8 9.323-9.322z" opacity=".15"/>
    <path fill="#52AEA2" d="M437.828 119.356c-2.988 4.781-6.693 8.964-9.323 13.984-.956 1.793-1.912 3.466-2.868 5.26-1.195 0-2.39.597-3.108 2.031-1.553 3.108-2.51 6.335-2.868 9.8-.478 3.945 5.14 5.618 6.812 1.913 2.152-4.78 5.26-9.323 7.65-14.103 2.51-5.26 6.335-9.562 9.442-14.343 2.271-3.944-3.227-8.367-5.737-4.542zM416.314 214.257c.12-1.913-2.63-2.869-3.347-.957-1.195 2.869-1.673 5.737-2.27 8.725-.957 4.303-2.391 6.694-5.38 9.801-.358.359-.716.717-.955 1.076-.957-.478-2.39-.12-2.63 1.315-.478 3.824.12 7.65-.239 11.593 0 .598.12.956.359 1.315v.598c.12 1.314 1.912 2.032 2.868 1.195 3.347-3.108 4.542-8.008 6.096-12.191 2.63-7.291 5.02-14.582 5.498-22.47zM400.298 219.157c-.239-1.195-.478-2.27-.597-3.466.12-.239.239-.478.239-.717 1.076-8.964 1.912-17.33-.359-26.175-.358-1.315-1.673-2.032-2.868-1.196-3.347 2.39-2.39 8.486-2.271 11.952.358 6.574.956 13.626 2.27 20.08.598 2.271 4.064 1.793 3.586-.478zM395.876 246.766c-.12-.836-.718-1.195-1.315-1.434-.12-.239-.12-.478-.24-.836-.597-2.152-3.943-.837-3.346 1.314 1.913 6.813-2.51 18.526 2.869 24.502-.12.837-.359 1.554-.478 2.39-.359 2.272 3.227 2.75 3.466.479.12-1.076.358-2.152.597-3.108 5.26-6.095-.12-16.494-1.553-23.307zM414.76 258.718c-2.151 2.63-4.183 5.378-6.693 7.888-2.271 2.271-5.26 3.586-7.53 5.857-.359.359-.717.837-1.076 1.315-.478-.12-1.076.12-1.434.717-2.75 4.183-7.052 5.976-8.845 10.876l-2.868 1.076c-2.032.717-.956 3.466.956 3.466a9.32 9.32 0 0 0 2.63-.358c.597.239 1.314.239 1.792-.12.24-.239.478-.359.717-.598 3.467-1.434 5.976-4.183 7.65-7.768 2.27-1.435 4.78-2.39 6.813-4.064 4.9-4.303 7.768-10.638 10.876-16.255 1.076-2.032-1.793-3.466-2.988-2.032z" opacity=".15"/>
    <path fill="#52AEA2" d="M436.753 295.053c-1.913.12-3.945.359-5.857.479-2.27-.36-4.661-.957-6.813-1.315-4.661-.598-9.203-.956-13.745-1.793-6.932-1.195-13.745-2.39-20.797-2.271-2.63-.359-5.259-.837-7.888-1.195-2.271-.24-2.749 3.227-.478 3.466l2.51.359c.239.597.836 1.075 1.793 1.075 1.314-.12 2.51-.239 3.824-.239 7.172 1.076 14.343 2.39 21.395 3.466 4.422.717 8.725 1.674 13.147 2.032 2.63.24 5.14 0 7.77-.239 2.031.24 3.943.12 6.095-.717 1.912-.359.956-3.227-.956-3.108z" opacity=".15"/>
    <path stroke="#66636C" stroke-linecap="round" stroke-linejoin="round" stroke-miterlimit="10" stroke-width="1.99876" d="M394.442 277.483c.717-16.613-16.614-37.53-18.167-50.318-1.674-13.148 14.223-.12 20.199 21.992 0 0 3.107 10.04 2.63 19.72M411.055 178.758s15.657-2.27 24.143-6.932c8.486-4.542 14.224-10.518 12.79-13.147-1.435-2.63-9.204-.24-17.69 4.422-3.944 2.151-16.016 9.203-18.765 12.908M379.263 292.424c8.367 3.227 18.526-.598 29.88 2.749 24.263 7.171 29.522 4.422 29.761 2.032.359-4.064-16.972-21.156-59.88-5.26"/>
    <path stroke="#66636C" stroke-linecap="round" stroke-linejoin="round" stroke-miterlimit="10" stroke-width="1.99876" d="M396.832 274.735c8.367-15.777 22.829-33.108 26.534-30.24 3.227 2.51 0 12.192-6.334 20.559-3.825 5.139-10.996 16.972-27.61 23.784M401.493 238.639c.359-17.45 11.116-44.104 15.896-38.845 5.02 5.259-4.66 25.578-14.342 51.634M400.298 221.428s-6.693-22.949-11.713-39.443c-3.467-11.235-1.196-24.143 6.454-10.996 7.53 12.79 6.693 41.594 6.693 41.594"/>
    <path stroke="#66636C" stroke-linecap="round" stroke-linejoin="round" stroke-miterlimit="10" stroke-width="1.99876" d="M411.653 177.204s.12-25.339.837-35.378c.597-7.77 3.227-25.1 6.454-24.98 4.78.12 4.9 11.235 1.793 32.031-1.315 8.726-7.53 24.741-7.53 24.741-29.403 56.056 9.323 87.251-32.032 117.49"/>
    <path stroke="#66636C" stroke-linecap="round" stroke-linejoin="round" stroke-miterlimit="10" stroke-width="1.99876" d="M421.335 148.4s6.813-20.797 11.833-27.968c5.02-7.171 10.398-11.833 14.103-9.562 5.737 3.347-28.207 48.885-28.207 48.885"/>
    <path fill="#66636C" d="M406.752 166.686c.24 0 .24-.239 0-.239-.239-.12-.239.24 0 .24zM411.772 155.57c.24 0 .24-.358 0-.358-.239 0-.239.359 0 .359z"/>
    <path fill="#BD86C1" d="M473.447 272.225c.239-1.554 6.095 1.912 7.051.956 1.674-1.793 2.152-8.128 4.064-10.04 1.673-1.673 7.052-.837 7.41-3.227.24-1.434-1.075-1.673-.836-2.75.717-2.868 5.976-8.605 8.725-10.159 5.259-2.868 5.856-8.486-.24-9.561-5.856-1.076-11.593 1.075-17.21 2.51-2.75.717-5.618 1.075-8.367 1.912-.836.24-1.673.598-2.63 1.076-.477-.24-.836-.478-1.314-.598-4.78-2.151-9.203 1.195-10.398 5.02-4.423.478-9.323.12-12.55 3.825-3.227 3.824-1.913 6.334.717 10.16-.24.836.717 3.704.717 4.66.12 6.096 3.586 9.682 8.845 10.638 3.107 7.052 5.378 9.562 13.028 4.661 3.466-2.27 2.39-5.259 2.988-9.083z" opacity=".15"/>
    <path fill="#BD86C1" d="M472.251 278.678c.837-.956 1.076-2.27 1.076-3.466 3.107-1.793 6.693-2.988 9.203-5.617 1.793-2.032 2.151-5.26 3.825-7.291l2.868-1.793c1.793-1.076 2.152-3.227 1.673-4.9 1.196-1.315 2.39-2.63 3.825-3.825 1.315-.956 2.75-2.032 4.183-2.869 4.542-2.868.478-9.681-4.302-7.171-1.913.956-3.467 2.27-5.02 3.586-5.618 4.422-10.638 9.561-16.136 14.223a26.364 26.364 0 0 1-7.052 1.314c-1.792 0-2.988 1.076-3.585 2.39-.24-.119-.478-.358-.717-.477-.598-.24-1.315-.478-1.913-.598-1.553-3.944-8.366-3.466-8.008 1.434 0 .598.12 1.076.24 1.554-.36.837-.479 1.913-.24 2.75 1.674 4.9 4.662 8.007 8.486 9.8-.12 2.271 1.674 4.422 4.184 4.422 3.227-.239 5.259-.956 7.41-3.466z" opacity=".15"/>
    <path fill="#BD86C1" d="M468.546 277.364c1.075-.956 1.075-2.032 1.673-3.227v-.12l.359-.358c1.673-1.554-.837-3.944-2.63-2.51-1.673 1.554-4.064 4.542-6.693 4.183-1.554-.239-3.108 1.793-1.673 2.988 1.792 1.554 3.824 1.793 5.976.837 1.075-.478 2.151-1.076 2.988-1.793z" opacity=".15"/>
    <path fill="#BD86C1" d="M468.665 270.432c1.075-.957.239-2.63-.837-2.989a4.482 4.482 0 0 0-2.51 0c-1.434.359-2.63.598-4.064.598-1.314 0-2.032.12-2.988-.837-.717-.717-1.314-1.553-2.151-2.27-1.076-.957-2.51-.24-2.869.717-1.075.239-2.031 1.434-1.314 2.63.956 1.672 1.314 3.465 2.988 4.66 1.434 1.076 3.227 1.554 5.02 1.435 3.227 0 6.334-1.913 8.725-3.944z" opacity=".15"/>
    <path fill="#BD86C1" d="M479.422 264.695c0-.12 0-.359-.12-.478.24-.24.36-.598.598-.957.956-2.031-2.151-3.824-3.107-1.673-.956 2.151-3.945 3.108-5.857 4.422-1.673 1.196-2.51 3.706 0 4.542 3.108.956 8.725-2.51 8.486-5.856z" opacity=".15"/>
    <path fill="#BD86C1" d="M473.925 263.618c-.12-.239-.359-.358-.478-.597 1.553-.12 2.988-1.554 3.824-2.988 1.195-1.913-1.912-3.586-3.107-1.674-.24.359-.359.598-.717.837-.24.359-.36.359-.36 0-.119-.12-.358-.598-.358-.717a15.312 15.312 0 0 0-1.314-2.39c-1.076-1.554-2.39-2.75-4.303-2.391-.837.12-1.554 1.315-1.195 2.151.717 1.793 2.032 3.108 2.63 5.02.716 2.032 1.433 3.706 2.868 5.379 1.553 1.673 4.063-.956 2.51-2.63zM490.418 255.611a1.44 1.44 0 0 0-.597-.597c.239-1.674-2.271-2.869-3.347-1.076-.836 1.434-2.151 2.151-3.466 3.108-1.195.956-1.076 2.749.478 3.227 1.315.478 3.227-.12 4.542-.598 1.793-.598 3.347-2.032 2.39-4.064zM494.84 249.396c.24-.598.36-1.315.12-2.032-.239-.956-1.076-1.434-1.912-1.673-.956-.24-1.913.358-2.152 1.314-.12.479 0 .837.12 1.196-.837.358-1.195 1.314-.956 2.151.239.956 1.195 1.434 2.151 1.195 1.076-.358 2.151-1.195 2.63-2.151zM500.34 245.093c.597-.598 1.434-1.554 1.553-2.51.12-.956-.239-1.912-1.315-2.152-.597-.12-1.314.12-1.793.598h-.717c-1.195.359-2.39.24-3.585.598-2.152.717-1.196 4.063.956 3.466.358.836 1.076 1.434 2.032 1.434 1.195 0 2.151-.717 2.868-1.434z" opacity=".15"/>
    <path fill="#BD86C1" d="M485.518 253.58c.597-1.316-.837-3.347-2.51-2.272-.837.478-1.673.837-2.51 1.076 0-.12-.12-.24-.12-.359-.358-.836-.836-1.673-1.553-2.27-.718-.598-1.554-.718-2.271-.12-.598.598-.957 1.554-.478 2.27.597.957 1.075 1.913 1.673 2.63.12.359.239.717.478 1.076.717 1.076 1.673 1.673 2.988 1.673 2.032.12 4.422-1.434 4.303-3.705zM451.215 258.838c.12-.24.12-.479.12-.837 1.194-.359 2.27-1.195 3.346-1.673.836-.359 1.554-1.196 1.195-2.152-.239-.836-1.315-1.554-2.151-1.195-.957.359-1.793.956-2.63 1.315v-.359c.12-1.434-1.673-2.151-2.749-1.554-1.912 1.076-2.032 3.347-.717 4.781.12.359.12.598.12.837-.598 2.151 2.868 2.988 3.466.837zM469.98 247.124c-1.076-1.434-2.51-1.912-4.064-1.673-.359-.956-1.434-1.554-2.51-.837-1.076.718-1.315 1.435-1.434 2.271-.359.24-.717.359-.956.598-1.913 1.195-.12 4.303 1.792 3.108l.12-.12c.478.598 1.076.837 1.912.717 1.195-.239 2.271-1.315 3.466-1.315 1.554 0 2.51-1.673 1.674-2.749z" opacity=".15"/>
    <path fill="#BD86C1" d="M465.08 249.994a1.778 1.778 0 0 0-1.793-.837c-.598-.12-1.315 0-1.793.478-.717.717-.598 1.913.12 2.51.836.717 1.912.956 2.868.359.837-.598 1.076-1.674.597-2.51zM479.184 242.105c-.12 0-.359.12-.478.12-.12-.12-.24-.36-.359-.479-.597-.598-1.912-.717-2.51.12-.836 1.075-1.434 2.27-2.27 3.346-.598.717-.718 1.554-.12 2.271.478.598 1.554.956 2.27.478 1.316-1.075 2.75-1.912 4.423-2.39 2.271-.478 1.315-3.944-.956-3.466zM488.027 243.3c-.119-.478-.358-.956-.597-1.434-.598-.717-1.554-1.195-2.39-.597-.24.12-.479.358-.598.717-.12 0-.12.12-.24.12-.716.716-.597 1.792.12 2.51.717.836 1.554.955 2.51.836.837-.12 1.315-1.315 1.195-2.151z" opacity=".15"/>
    <path fill="#BD86C1" d="M485.16 244.256c0-.956-.837-1.673-1.793-1.793-.598 0-1.195 0-1.793.12-.956.239-1.434 1.314-1.195 2.15.239.957 1.195 1.435 2.151 1.196h.956c.837.24 1.674-.717 1.674-1.673z" opacity=".15"/>
    <path stroke="#66636C" stroke-linecap="round" stroke-linejoin="round" stroke-miterlimit="10" stroke-width="1.99876" d="M445.717 261.707c-2.271-2.988-1.674-7.172 1.314-9.442 2.988-2.271 7.172-1.674 9.443 1.314M470.816 272.703c2.27 2.988 1.673 7.171-1.315 9.442s-7.171 1.674-9.442-1.315"/>
    <path stroke="#66636C" stroke-linecap="round" stroke-linejoin="round" stroke-miterlimit="10" stroke-width="1.99872" d="M464.21 275.163c4.383-3.288 5.27-9.506 1.983-13.888-3.288-4.383-9.506-5.27-13.889-1.982-4.382 3.288-5.27 9.506-1.982 13.888 3.288 4.383 9.506 5.27 13.889 1.982z"/>
    <path stroke="#66636C" stroke-linecap="round" stroke-linejoin="round" stroke-miterlimit="10" stroke-width="1.99876" d="M458.386 249.037c-.359-2.868 1.673-5.378 4.542-5.737 2.868-.359 5.378 1.673 5.737 4.542M475.717 272.224c2.63 1.076 5.618-.12 6.693-2.749 1.076-2.63-.12-5.617-2.749-6.693M464.243 253.22c3.347-2.51 8.127-1.792 10.637 1.554 2.51 3.347 1.793 8.128-1.553 10.638M471.295 244.136a3.763 3.763 0 0 1 3.347-4.183 3.763 3.763 0 0 1 4.183 3.347M484.083 261.11c1.912.836 4.064-.12 4.9-2.033.837-1.912-.12-4.063-2.031-4.9M490.657 251.547c2.032-.24 3.586-2.032 3.347-4.183-.24-2.032-2.032-3.586-4.184-3.347l-.478-.717c.837-1.913-.12-4.064-2.032-4.9-1.912-.837-4.063.119-4.9 2.031M475.597 247.245c2.51-1.793 5.976-1.315 7.769 1.075 1.793 2.51 1.315 5.976-1.076 7.77M491.972 237.563c1.793-1.315 4.422-.956 5.737.837 1.315 1.792.956 4.422-.837 5.737M128.745 274.136l117.848-77.928c2.032-1.315 4.662-1.315 6.574 0l127.41 84.98M310.538 40.232l-57.37-38.247c-2.033-1.314-4.662-1.314-6.574 0l-58.088 38.247M395.04 158.2V96.648l-33.824-21.873M123.128 290.87h249.8M137.35 74.177l-33.944 22.47v46.613M104.004 97.842l138.048 99.8M395.04 97.842l-138.048 99.8M142.012 120.79V44.057h214.423v77.928"/>
    <path fill="#BD86C1" d="M131.853 245.093c-.479-1.434 6.215-1.315 6.573-2.63.598-2.27-2.151-8.127-1.434-10.757.598-2.27 5.737-4.183 4.9-6.454-.478-1.315-1.792-.956-2.031-2.032-.718-2.749.956-10.518 2.629-13.028 3.108-5.02.956-10.278-4.9-8.127-5.618 1.912-9.562 6.574-13.745 10.637-2.032 2.032-4.423 3.706-6.335 5.857l-1.793 2.151c-.478 0-.956 0-1.434.12-5.26.478-7.41 5.498-6.574 9.442-3.586 2.63-8.127 4.662-9.084 9.442-.956 4.9 1.435 6.455 5.618 8.486.239.837 2.39 2.869 2.869 3.706 3.107 5.14 7.888 6.693 12.908 4.9 6.095 4.661 9.323 5.737 13.625-2.39 1.913-3.586-.478-5.618-1.792-9.323z" opacity=".15"/>
    <path fill="#BD86C1" d="M134.004 251.308c.24-1.195-.12-2.51-.837-3.466 1.793-3.107 4.423-5.856 5.26-9.442.597-2.75-.718-5.737-.24-8.247.598-.956 1.076-2.032 1.674-2.988.956-1.793.358-3.825-.957-5.02a36.22 36.22 0 0 1 1.435-5.14c.717-1.553 1.434-3.107 2.151-4.541 2.51-4.662-4.303-8.606-7.171-4.064-1.195 1.793-2.032 3.705-2.63 5.617-2.749 6.574-4.661 13.506-7.051 20.32-1.554 1.672-3.347 3.226-5.498 4.54-1.554.957-2.152 2.391-1.913 3.826h-.836c-.718.12-1.315.239-1.913.358-3.227-2.63-8.964 1.076-6.215 5.14.359.478.598.836.956 1.314.12.957.478 1.913 1.195 2.51 3.945 3.466 7.889 4.662 12.192 4.423 1.075 2.032 3.585 3.107 5.737 1.792 2.51-2.031 3.944-3.705 4.661-6.932z" opacity=".15"/>
    <path fill="#BD86C1" d="M130.06 252.025c.359-1.315 0-2.271-.12-3.586v-.12c0-.119.12-.358.12-.478.717-2.151-2.63-2.988-3.466-.836-.717 2.151-1.315 5.976-3.825 6.932-1.434.598-1.912 3.108 0 3.466 2.271.478 4.184-.239 5.498-2.151.837-1.076 1.435-2.152 1.793-3.227z" opacity=".15"/>
    <path fill="#BD86C1" d="M126.833 245.93c.478-1.315-1.076-2.39-2.152-2.152a5.953 5.953 0 0 0-2.27 1.196c-1.076.956-2.032 1.792-3.228 2.51-1.075.717-1.673 1.075-2.988.717-.956-.24-1.912-.717-2.988-.837-1.434-.239-2.27.956-2.151 2.032-.837.717-1.076 2.27.12 2.988 1.673.956 2.868 2.39 4.9 2.63 1.793.239 3.585-.24 5.02-1.196 2.868-1.793 4.542-4.9 5.737-7.888z" opacity=".15"/>
    <path fill="#BD86C1" d="M133.407 235.65c-.12-.12-.24-.239-.24-.358v-1.076c-.239-2.27-3.705-2.27-3.585 0 .239 2.39-2.032 4.662-2.988 6.693-.837 1.793-.359 4.423 2.27 3.945 3.108-.598 6.216-6.455 4.543-9.204z" opacity=".15"/>
    <path fill="#BD86C1" d="M128.028 237.443c-.24-.12-.478-.239-.717-.239 1.314-.956 1.792-2.869 1.912-4.542.12-2.27-3.466-2.27-3.586 0 0 .359 0 .717-.12 1.076-.119.478-.119.478-.238.239-.12 0-.598-.359-.717-.478-.717-.598-1.554-1.076-2.39-1.434-1.674-.837-3.347-1.196-4.901 0-.717.597-.717 1.912 0 2.51 1.434 1.195 3.346 1.792 4.78 2.988 1.555 1.434 3.108 2.63 5.14 3.227 2.152.836 2.988-2.63.837-3.347zM138.427 222.384c-.24-.12-.478-.239-.717-.239-.598-1.554-3.467-1.315-3.467.717 0 1.673-.836 2.988-1.553 4.422-.598 1.435.478 2.869 2.032 2.63 1.434-.24 2.749-1.673 3.585-2.75 1.434-1.553 2.032-3.465.12-4.78zM139.263 214.734c0-.717-.359-1.315-.837-1.793-.717-.717-1.673-.717-2.51-.478-.956.239-1.434 1.315-1.195 2.151.12.478.358.717.717.957-.478.717-.478 1.673.12 2.27.717.718 1.792.598 2.51 0 .836-.717 1.314-2.031 1.195-3.107zM142.012 208.4c.24-.837.478-2.032.24-2.988-.36-.837-1.196-1.554-2.152-1.195-.598.12-1.076.717-1.315 1.314-.239.12-.359.24-.598.359-.836.837-2.031 1.315-2.868 2.27-1.554 1.674.956 4.184 2.51 2.51.717.598 1.673.718 2.51.24.956-.478 1.434-1.554 1.673-2.51z" opacity=".15"/>
    <path fill="#BD86C1" d="M133.286 222.981c-.12-1.554-2.39-2.39-3.346-.717-.478.837-1.076 1.434-1.673 2.151-.12-.12-.24-.12-.24-.239-.717-.597-1.553-1.075-2.51-1.195-.836-.12-1.673.24-2.031 1.076-.359.836 0 1.793.717 2.151.956.478 1.793 1.195 2.749 1.554.358.239.597.478.956.597 1.076.598 2.27.718 3.466.12 1.673-.956 2.988-3.586 1.912-5.498zM105.916 244.257c0-.24-.119-.478-.239-.717.837-.957 1.315-2.152 2.032-3.108.598-.717.717-1.793 0-2.51-.597-.598-1.912-.717-2.51 0-.597.837-1.075 1.673-1.673 2.51 0-.12-.12-.239-.12-.359-.597-1.314-2.51-1.075-3.107 0-1.076 1.913-.12 3.945 1.673 4.423.24.239.359.478.478.597.478 2.39 3.945 1.435 3.466-.836zM116.553 224.894c-1.673-.718-3.107-.36-4.302.478-.837-.598-2.032-.718-2.63.478-.597 1.075-.478 1.912-.12 2.749-.238.358-.358.717-.597.956-1.076 2.032 2.032 3.825 3.108 1.793l.12-.12c.716.24 1.433.24 2.031-.358.837-.837 1.315-2.271 2.39-2.869 1.196-.598 1.196-2.51 0-3.107z" opacity=".15"/>
    <path fill="#BD86C1" d="M113.685 229.914c-.598-.36-1.434-.24-1.913.119-.597.12-1.195.598-1.314 1.315-.24.956.358 1.912 1.314 2.151 1.076.24 2.152-.12 2.63-1.076.358-.956.12-2.031-.717-2.51zM122.052 216.05l-.359.358a.913.913 0 0 0-.598-.24c-.836-.238-2.032.36-2.151 1.316-.24 1.314-.24 2.629-.359 3.944-.12.836.24 1.793 1.076 2.032.717.239 1.912.12 2.152-.718.717-1.553 1.434-2.988 2.748-4.183 1.793-1.434-.717-3.944-2.51-2.51zM130.299 212.822c-.359-.358-.717-.717-1.195-.956-.837-.359-1.913-.24-2.39.717-.12.24-.24.598-.24.837 0 .12-.12.12-.12.239-.238 1.075.36 1.793 1.315 2.151.957.359 1.913.12 2.63-.478.837-.598.598-1.912 0-2.51z" opacity=".15"/>
    <path fill="#BD86C1" d="M128.267 215.093c-.478-.836-1.554-1.075-2.39-.597-.598.239-1.076.597-1.554 1.075-.717.598-.717 1.913 0 2.51.717.717 1.793.598 2.51 0 .12-.12.478-.239.836-.478.837-.597 1.076-1.793.598-2.51z" opacity=".15"/>
    <path stroke="#66636C" stroke-linecap="round" stroke-linejoin="round" stroke-miterlimit="10" stroke-width="1.99876" d="M104.004 247.722c-3.346-1.554-4.9-5.498-3.466-8.845 1.554-3.346 5.498-4.9 8.845-3.466M131.254 244.973c3.347 1.554 4.9 5.498 3.467 8.845-1.554 3.346-5.498 4.9-8.845 3.466"/>
    <path stroke="#66636C" stroke-linecap="round" stroke-linejoin="round" stroke-miterlimit="10" stroke-width="1.9988" d="M126.66 250.33c2.21-5.013-.062-10.869-5.075-13.08-5.013-2.21-10.87.062-13.08 5.075-2.21 5.013.06 10.87 5.074 13.08 5.013 2.21 10.87-.061 13.08-5.074z"/>
    <path stroke="#66636C" stroke-linecap="round" stroke-linejoin="round" stroke-miterlimit="10" stroke-width="1.99876" d="M108.785 230.392a5.06 5.06 0 0 1 1.195-7.171 5.06 5.06 0 0 1 7.171 1.195M135.318 242.105c2.869-.359 4.781-2.869 4.542-5.737-.239-2.869-2.868-4.78-5.737-4.542M115.956 231.228c1.673-3.825 6.215-5.618 10.04-3.944 3.825 1.673 5.617 6.215 3.944 10.04M117.749 219.874c-1.195-1.674-.837-4.064.836-5.26 1.674-1.194 4.064-.836 5.26.837M137.112 228.48c2.032-.24 3.585-2.152 3.346-4.184-.239-2.032-2.151-3.586-4.183-3.347M138.188 216.766c1.673-1.195 2.032-3.586.837-5.259-1.196-1.673-3.586-2.032-5.26-.837l-.836-.358c-.239-2.032-2.151-3.586-4.183-3.227-2.032.239-3.586 2.151-3.227 4.183M122.889 220.472c1.195-2.869 4.542-4.064 7.41-2.869 2.869 1.195 4.064 4.542 2.869 7.41M132.57 203.978c.956-2.032 3.347-2.988 5.378-2.032 2.032.956 2.989 3.346 2.032 5.378M113.566 255.491l-5.498 12.67"/>
    <path fill="#BD86C1" d="M106.992 193.938c-1.076-1.076 5.14-3.706 4.9-5.02-.478-2.39-5.258-6.574-5.737-9.203-.358-2.271 3.467-6.216 1.793-7.889-.956-.956-2.032-.12-2.749-.956-1.793-2.271-3.466-9.92-2.988-13.028.837-5.857-3.346-9.681-7.769-5.498-4.302 4.064-6.095 9.92-8.247 15.299-1.075 2.63-2.51 5.14-3.466 7.888-.239.837-.478 1.793-.717 2.63-.478.239-.956.478-1.315.717-4.542 2.63-4.542 8.127-2.032 11.354-2.15 3.945-5.498 7.53-4.422 12.43 1.076 4.901 3.944 5.26 8.606 5.499.597.717 3.346 1.673 4.183 2.151 5.02 3.466 9.92 2.869 13.865-.837 7.41 1.674 10.876 1.315 11.474-7.768.478-4.064-2.63-4.9-5.379-7.77z" opacity=".15"/>
    <path fill="#BD86C1" d="M111.534 198.718c-.24-1.195-1.076-2.27-2.151-2.868.478-3.586 1.553-7.171.836-10.757-.597-2.75-2.988-4.9-3.585-7.41.12-1.076.239-2.271.239-3.467.12-2.031-1.315-3.585-2.988-4.183-.359-1.793-.718-3.585-.837-5.259 0-1.673 0-3.346.12-5.02.358-5.378-7.53-6.095-8.248-.717-.358 2.152-.358 4.183-.12 6.215.12 7.172 1.316 14.223 1.913 21.395-.717 2.151-1.673 4.303-3.227 6.454-1.076 1.554-.956 3.107-.239 4.303l-.717.358c-.598.359-1.195.717-1.673 1.195-4.064-1.075-7.65 4.662-3.586 7.291.478.24.956.598 1.434.837.478.837 1.195 1.554 2.152 1.793 5.02 1.554 9.203.956 12.908-1.076 1.793 1.434 4.542 1.315 5.976-.717 1.912-2.988 2.51-5.14 1.793-8.367z" opacity=".15"/>
    <path fill="#BD86C1" d="M108.307 200.99c-.12-1.435-.956-2.033-1.674-3.228 0 0 0-.12-.119-.12v-.477c-.24-2.271-3.705-1.674-3.466.597.239 2.271 1.315 5.976-.598 7.889-1.075 1.195-.478 3.585 1.434 3.107 2.271-.597 3.706-2.032 4.184-4.303.239-1.075.358-2.39.239-3.466z" opacity=".15"/>
    <path fill="#BD86C1" d="M102.809 196.806c-.12-1.434-1.913-1.793-2.869-1.075-.717.597-1.195 1.195-1.553 2.031-.598 1.315-1.076 2.39-1.913 3.586-.717 1.076-1.076 1.673-2.51 1.912-1.075.12-2.032.12-3.107.359-1.435.359-1.674 1.793-1.076 2.749-.478.956-.12 2.51 1.315 2.63 1.912.239 3.585.956 5.498.358 1.673-.478 3.107-1.673 4.183-3.108 1.912-2.749 2.27-6.215 2.032-9.442z" opacity=".15"/>
    <path fill="#BD86C1" d="M104.601 184.734c-.12-.12-.239-.12-.358-.239-.12-.359-.24-.717-.478-.956-1.076-2.032-4.303-.478-3.228 1.554 1.196 2.031.12 5.02.12 7.29 0 2.032 1.554 4.184 3.705 2.63 2.51-1.912 2.988-8.486.24-10.279z" opacity=".15"/>
    <path fill="#BD86C1" d="M100.419 188.559H99.7c.837-1.315.478-3.347-.12-4.9-.836-2.152-4.063-.598-3.226 1.553l.358 1.076c.12.478.12.478-.12.24-.119.119-.716-.12-.836-.12-.836-.24-1.793-.359-2.749-.359-1.912-.12-3.585.24-4.542 2.032-.358.837.12 2.032 1.076 2.27 1.912.479 3.705.24 5.618.838 2.031.597 3.944 1.075 5.976.836 2.151-.239 1.553-3.705-.717-3.466zM103.765 170.512c-.239 0-.598 0-.837.119-1.195-1.195-3.705.24-2.868 2.032.717 1.554.478 2.988.478 4.661 0 1.554 1.554 2.51 2.868 1.554 1.196-.837 1.793-2.63 2.271-3.944.478-1.913.24-3.944-1.912-4.422zM101.255 163.22c-.358-.597-.837-1.075-1.434-1.314-.956-.358-1.793 0-2.51.598-.837.597-.837 1.792-.24 2.51.24.358.598.478 1.077.597-.24.837.358 1.793 1.075 2.032.956.359 1.913-.12 2.271-1.076.478-.956.359-2.39-.239-3.346zM101.255 156.288c-.12-.837-.359-2.152-1.076-2.75-.717-.716-1.673-.836-2.51-.238-.478.358-.717 1.075-.597 1.792-.12.12-.24.359-.359.598-.478 1.195-1.315 2.032-1.673 3.227-.717 2.152 2.51 3.466 3.346 1.315.837.239 1.793 0 2.39-.717.598-1.076.598-2.152.479-3.227z" opacity=".15"/>
    <path fill="#BD86C1" d="M99.223 173.141c-.717-1.315-3.227-1.195-3.346.717-.12.956-.359 1.793-.598 2.63-.12 0-.239-.12-.358-.12a5.359 5.359 0 0 0-2.75 0c-.836.24-1.553.837-1.434 1.793 0 .837.718 1.673 1.554 1.673 1.076.12 2.152.24 3.108.24.358.119.717.238 1.075.238 1.315.12 2.39-.358 3.108-1.314 1.315-1.554 1.434-4.542-.359-5.857zM83.088 203.858a1.44 1.44 0 0 0-.598-.598c.359-1.195.359-2.51.598-3.705.239-.956-.12-1.912-1.076-2.271-.836-.359-2.032.12-2.27 1.076-.24.956-.36 1.912-.479 2.988-.12-.12-.239-.12-.239-.24-1.075-.955-2.63 0-2.749 1.315-.239 2.152 1.554 3.586 3.466 3.347.24.12.598.24.717.359 1.196 1.912 3.945-.359 2.63-2.271zM84.761 181.866c-1.793 0-2.988.956-3.705 2.27-.956-.238-2.151.24-2.151 1.435-.12 1.195.358 1.913 1.075 2.51 0 .359-.12.717-.12 1.195-.119 2.271 3.467 2.63 3.587.359v-.24c.717 0 1.434-.358 1.673-1.075.478-1.076.239-2.63.956-3.585.837-1.076.12-2.869-1.315-2.869z" opacity=".15"/>
    <path fill="#BD86C1" d="M84.163 187.603c-.717-.12-1.314.358-1.673.836-.478.359-.837 1.076-.717 1.674.12.956 1.076 1.673 2.032 1.434 1.076-.24 1.912-.956 1.912-2.152.12-.836-.478-1.792-1.554-1.792zM86.195 171.587c-.12.12-.12.359-.12.478h-.597c-.837.12-1.673 1.195-1.434 2.032.358 1.315.956 2.51 1.314 3.825.24.836.837 1.554 1.793 1.434.837 0 1.674-.717 1.674-1.554 0-1.673 0-3.346.717-5.02.956-2.031-2.39-3.346-3.347-1.195zM92.41 165.133a3.182 3.182 0 0 0-1.434-.359c-.956 0-1.793.598-1.912 1.554 0 .239 0 .597.12.956v.239c.238 1.076 1.075 1.554 2.031 1.434 1.076-.12 1.673-.717 2.151-1.554.598-.836-.119-1.912-.956-2.27z" opacity=".15"/>
    <path fill="#BD86C1" d="M91.454 168.002c-.836-.598-1.912-.359-2.51.358-.358.478-.717.956-.956 1.554-.358.837.12 1.912 1.076 2.271.956.359 1.912-.12 2.27-1.076.12-.239.24-.478.479-.717.717-.597.358-1.793-.359-2.39z" opacity=".15"/>
    <path stroke="#66636C" stroke-linecap="round" stroke-linejoin="round" stroke-miterlimit="10" stroke-width="1.99876" d="M82.131 210.073c-3.705 0-6.693-2.988-6.812-6.693 0-3.705 2.988-6.693 6.693-6.813M105.917 196.448c3.705 0 6.693 2.988 6.813 6.693 0 3.705-2.988 6.693-6.693 6.813"/>
    <path stroke="#66636C" stroke-linecap="round" stroke-linejoin="round" stroke-miterlimit="10" stroke-width="1.99884" d="M94.177 213.188c5.48-.05 9.88-4.531 9.83-10.01-.049-5.48-4.53-9.88-10.01-9.83-5.478.049-9.88 4.53-9.83 10.01.05 5.478 4.532 9.88 10.01 9.83z"/>
    <path stroke="#66636C" stroke-linecap="round" stroke-linejoin="round" stroke-miterlimit="10" stroke-width="1.99876" d="M79.502 192.384c-2.51-1.435-3.347-4.542-1.913-7.052 1.435-2.51 4.542-3.347 7.052-1.913M108.426 192.144c2.39-1.434 3.227-4.66 1.793-7.051-1.434-2.39-4.662-3.227-7.052-1.793M86.315 190.232c0-4.183 3.347-7.649 7.53-7.649s7.65 3.347 7.65 7.53M83.207 179.117a3.873 3.873 0 0 1-1.434-5.14 3.873 3.873 0 0 1 5.14-1.434M104.363 178.878c1.793-1.076 2.39-3.347 1.314-5.14-1.075-1.792-3.346-2.39-5.139-1.314M100.658 167.882c1.075-1.793.478-4.064-1.315-5.14-1.793-1.075-4.064-.477-5.14 1.315h-.836c-1.076-1.792-3.347-2.39-5.14-1.314-1.792 1.075-2.39 3.346-1.314 5.14M88.227 177.444c0-3.108 2.39-5.618 5.498-5.618s5.618 2.39 5.618 5.498M90.14 158.559a4.03 4.03 0 0 1 4.063-4.064 4.03 4.03 0 0 1 4.064 4.064"/>
    <path fill="#66636C" d="M351.055 129.754c-4.063 5.14-89.282 63.466-91.792 65.02-4.661.36-9.083 1.673-13.148 4.303-.239.12-.477.359-.836.478-11.235-9.682-98.367-69.681-104.223-73.745 1.195-32.27 0-53.785 0-53.785s-35.26 21.036-37.052 27.61c-.837 2.988-.956 23.665.598 26.414-4.064 9.442-5.02 21.036-2.51 30.956 1.553 5.737 4.78 10.399 8.486 14.821 2.032 2.39 4.661 4.78 6.215 7.291-1.673 2.868-2.75 6.215-2.988 9.92-.478 5.976 5.856 12.43 11.833 11.833 4.66-.478 8.486-1.554 12.55-3.586.597.239 1.195.359 1.673.597 6.932 15.419 10.04 32.63.717 47.929-7.65 12.67-22.71 39.92.956 46.135 9.323 2.39 20.2 1.435 29.641 1.435 12.79 0 25.578-.478 38.247-.717 25.34-.598 51.036-.956 76.255 2.39 27.849 3.705 55.339 2.869 82.829-3.228.717-.118 1.315-.357 2.031-.716 6.336.716 13.028-3.108 12.91-11.355-.24-12.67 2.27-25.936-5.02-37.171-1.674-2.51-3.706-4.9-5.977-6.933 1.195-3.107 2.868-5.975 4.661-8.486 4.543-6.215 14.582-11.354 14.582-19.72 0-7.889-16.136-52.112-8.247-51.395 14.343 1.195 6.813-41.355 9.562-47.809 6.812-15.538-35.856-33.466-35.856-33.466s-4.423 52.948-6.097 54.98zM286.992 24.934c-.12 0-.12 0 0 0-.478-.359-.837-.717-1.315-1.076-1.314-1.076-2.749-2.151-4.063-3.227-2.63-2.152-5.379-4.183-8.008-6.215-4.781-3.586-14.223-11.355-20.08-12.79-14.82-3.585-65.737 38.248-65.737 38.248s30.717 10.04 44.223 3.107c.478-.239 1.315-.717 1.315-.717s61.554.837 77.57 1.196c5.139.12-14.463-4.662-13.148-9.562 1.434-5.498-6.574-5.737-10.757-8.964z" opacity=".05"/>
    <path fill="#66636C" d="M392.051 103.22c-4.183-3.944-124.422 84.861-127.53 90.24-2.63 4.541-1.434 12.31 3.825 14.581 19.482 8.486 37.41 19.721 54.263 32.51 25.219 19.243 64.661 43.147 64.661 43.147s-51.155-59.043-83.665-89.64c-4.303-3.945 91.554-87.969 88.446-90.837zM105.2 103.22c-3.227 1.673 90.358 90.956 82.47 98.008-29.283 25.816-65.498 76.374-57.37 69.323 5.378-4.662 47.927-25.459 52.589-31.076 3.585-4.423 11.115-11.952 15.538-15.538 12.908-10.278 40.637-22.709 40.637-22.709S117.391 96.886 105.2 103.22z" opacity=".05"/>
    <path fill="#66636C" d="M225.916 189.276c-7.889-5.976-84.263-66.932-84.263-66.932s79.84 73.147 84.263 75.299c-20.08 13.864-76.494 59.76-76.494 59.76s43.984-25.099 53.665-31.075c11.594-7.29 24.383-13.745 34.183-23.546 5.379-5.378-5.976-9.442-11.354-13.506zM344.243 136.687c-12.072 3.227-43.028 29.88-43.028 29.88l-28.685 22.71s-18.885 3.704-17.45 8.844c1.673 6.095 98.725 61.673 98.725 61.673s-80.558-58.327-71.713-66.932c7.41-7.171 22.23-18.048 31.075-23.905 17.929-11.952 44.343-35.856 31.076-32.27zM360.977 269.355c-9.562 2.51-26.295-3.107-30.717-5.02-4.423-1.912-9.084-2.51-13.626-2.868-20.318-1.912-41.236 2.988-61.195 6.693-20.916 3.825-42.43 9.442-63.586 7.53-21.394-2.032-41.354-12.908-62.868-5.856-11.833 3.824-6.813 29.282 5.02 25.338 20.199-6.574 231.035 1.076 241.434-1.673 11.952-3.227-2.51-27.37-14.462-24.144z" opacity=".05"/>
    <path fill="#66636C" d="M141.175 282.025c9.562 1.315 26.295-1.553 30.717-2.63 4.422-.955 9.084-1.314 13.626-1.553 20.318-.956 41.234 1.554 61.195 3.466 20.916 2.032 42.43 4.9 63.585 3.825 21.395-1.076 41.355-6.693 62.869-2.988 11.833 2.032 6.813 15.06-5.02 13.028-20.2-3.347-231.036.597-241.434-.837-12.072-1.554 2.51-13.984 14.462-12.31z" opacity=".05"/>
    <path fill="#5395AA" d="M355.358 125.93l-107.57 71.713-104.342-71.713V43.818h211.912v82.112z" opacity=".05"/>
    <path stroke="#66636C" stroke-linecap="round" stroke-linejoin="round" stroke-miterlimit="10" stroke-width="1.99876" d="M252.33 141.826s21.753-9.442 32.39-21.275c11.236-12.55 8.606-29.88-2.031-37.29-5.737-4.064-18.048-7.411-30.359 4.063h.12c-12.31-11.474-24.502-8.127-30.359-4.064-10.637 7.41-13.267 24.741-2.031 37.291 10.637 11.833 32.39 21.275 32.27 21.275z"/>
    <path fill="#F16EA3" d="M279.821 83.14c-8.008-4.541-17.45-1.194-24.86 2.87-.479.238-.957.597-1.554.836-.717-1.195-1.913-2.39-3.586-3.227-8.486-4.303-18.765-5.737-27.37-.717-8.487 5.02-12.909 16.255-9.801 25.697 1.553 5.02 5.02 8.725 8.964 11.952-.478 3.705.717 7.769 4.422 9.442 4.303 1.913 8.606 3.347 13.028 3.945 3.944 2.868 8.247 5.378 13.028 6.573 8.606 2.152 16.374-1.673 22.829-7.171 6.932-5.976 15.537-15.18 17.45-24.263 1.912-9.442-4.183-21.275-12.55-25.936z" opacity=".15"/>
    <path fill="#F16EA3" d="M290.458 92.822c-5.02-7.769-9.92-12.55-18.406-14.104-7.77-1.434-13.626 4.9-18.646 9.323-8.844-1.793-15.896-11.593-25.219-8.844-16.016 4.66-20.08 30.836-13.506 36.454 2.988 2.51 5.618 4.661 7.53 8.247 2.27 4.183 25.936 16.733 30 16.852 8.964.12 49.602-30.12 38.247-47.928zm-5.379 13.028c-.956 7.29-33.944 29.88-32.27 30.598-2.869-.957-22.71-16.136-28.686-26.893-2.988-5.498-.12-14.462 4.781-16.016 7.41-2.27 21.275 3.825 21.275 3.825s6.813 4.183 10.04.478c1.315-1.554 3.227-4.661 5.14-5.379 2.27-.956 6.095.718 8.246 1.196 6.933 1.793 12.55 3.824 11.474 12.19z" opacity=".15"/>
    <path fill="#5395AA" d="M297.031 95.332c-2.27-10.876-10.876-18.287-22.111-17.57-5.26.359-5.379 8.606 0 8.247 10.518-.597 15.657 8.965 14.103 18.526-1.315 8.486-7.65 18.048-12.789 24.98-4.661 6.335-20.557 12.192-23.187 12.072-6.215-.12-28.566-16.016-34.661-18.287-5.02-1.912 12.31 14.104 17.21 15.897 8.846 3.346 12.67 12.55 23.427 11.354 12.191-1.315 25.936-12.789 31.912-22.59 6.216-10.159 8.606-19.96 6.096-32.629z" opacity=".05"/>
</svg>
