<svg xmlns="http://www.w3.org/2000/svg" width="50" height="50" viewBox="0 0 50 50">
  <g fill="none" fill-rule="evenodd">
    <polygon fill="#FFF" points="0 50 50 50 50 0 0 0"/>
    <polygon fill="#FF2929" points="26.731 18.129 33.119 10.779 39.506 18.129"/>
    <polygon fill="#FFF" points="22.411 18.129 28.798 10.779 35.185 18.129"/>
    <polygon fill="#FF2929" points="20.315 18.129 26.702 10.779 33.089 18.129"/>
    <g transform="translate(2 10)">
      <path fill="#CECECE" d="M12.873 4.4541C12.883 4.4531 12.803 4.1661 12.873 4.4541M23.6191 29.9531C23.6191 31.3361 22.4981 32.4571 21.1151 32.4571 19.7321 32.4571 18.6111 31.3361 18.6111 29.9531 18.6111 28.5701 19.7321 27.4491 21.1151 27.4491 22.4981 27.4491 23.6191 28.5701 23.6191 29.9531M36.8311 29.9531C36.8311 31.3361 35.7101 32.4571 34.3271 32.4571 32.9441 32.4571 31.8231 31.3361 31.8231 29.9531 31.8231 28.5701 32.9441 27.4491 34.3271 27.4491 35.7101 27.4491 36.8311 28.5701 36.8311 29.9531"/>
      <path fill="#E1E1E1" d="M41.7666,7.875 L14.0676,7.875 L12.9116,3.842 C12.2526,1.807 10.6846,0.542 8.8176,0.542 L1.9376,0.542 C1.9126,0.542 1.8926,0.554 1.8696,0.556 C1.1056,0.627 0.5066,1.261 0.5066,2.042 C0.5066,2.87 1.1776,3.542 2.0066,3.542 C2.8346,3.542 3.5066,2.87 3.5066,2.042 L8.8176,2.042 C10.0296,2.042 11.0266,2.887 11.4766,4.279 L16.7796,22.775 C17.4146,24.573 18.9886,25.735 20.7876,25.735 L36.6666,25.735 C37.0806,25.735 37.4166,25.399 37.4166,24.985 C37.4166,24.571 37.0806,24.235 36.6666,24.235 L20.7876,24.235 C19.6156,24.235 18.6206,23.484 18.2066,22.318 L17.9006,21.25 L36.5146,21.25 C36.9316,21.25 37.3046,20.991 37.4516,20.601 L42.7036,9.226 C42.9486,8.571 42.4646,7.875 41.7666,7.875"/>
    </g>
  </g>
</svg>
