<svg xmlns="http://www.w3.org/2000/svg" viewBox="0 0 23.69 23.69"><defs><style>.cls-1{fill:#fff;}</style></defs><title>Asset 3</title><g id="Layer_2" data-name="Layer 2"><g id="Layer_1-2" data-name="Layer 1"><path class="cls-1" d="M11.85,0A11.85,11.85,0,1,0,23.69,11.85,11.85,11.85,0,0,0,11.85,0Zm1.64,11.93,2.31,2.31a1.09,1.09,0,0,1,0,1.54l0,0a1.09,1.09,0,0,1-1.54,0l-2.31-2.31a.12.12,0,0,0-.17,0L9.45,15.79a1.09,1.09,0,0,1-1.54,0l0,0a1.09,1.09,0,0,1,0-1.54l2.31-2.31a.12.12,0,0,0,0-.17L7.9,9.45a1.09,1.09,0,0,1,0-1.54l0,0a1.09,1.09,0,0,1,1.54,0l2.31,2.31a.12.12,0,0,0,.17,0L14.24,7.9a1.09,1.09,0,0,1,1.54,0l0,0a1.09,1.09,0,0,1,0,1.54l-2.31,2.31A.12.12,0,0,0,13.49,11.93Z"/></g></g></svg>