<svg width="107" height="97" viewBox="0 0 107 97" fill="none" xmlns="http://www.w3.org/2000/svg">
    <path d="M87 12C92 21.674 106 15 106 15C106 15 103.569 11.4693 98 7C91.6168 1.87745 86 9 86 9C86 9 83 9 82 9M82 9C80.1221 18.4997 73.8147 21.769 73.8147 21.769C80.8436 28.1265 85.8092 36.8005 87.353 46.819C85.1338 48.0906 73.8147 53 73.8147 53L87.8132 55.1715C86.9226 75.1502 71.8106 92.3885 50.9613 95.5088C40.377 97.0945 30.1119 94.7634 21.6652 89.6336C20.9601 89.2024 28 77 28 77L16.8333 86.2429C8.85426 79.7831 3.17616 70.5172 1.49871 59.6729C-0.512749 46.6364 3.68088 34.0894 11.9048 24.9258L23.7435 33.1831L15.141 21.674C21.2719 16.1568 29.0653 12.2985 37.8979 10.9758C47.4876 9.54357 56.8175 11.312 64.7743 15.4699C70.8457 12.2181 77.3988 11.0039 78 1L82 9ZM20.6706 77.7149C15.5195 72.7824 11.9048 66.2202 10.7395 58.6935C9.28475 49.2815 11.9494 40.1837 17.4048 33.1831M78.4091 57.4005C76.7316 72.1397 65.2196 84.5259 49.6178 86.8643C42.188 87.975 34.9438 86.6377 28.7536 83.4663M23.7435 26.9428C28.1598 23.6106 33.4668 21.3014 39.3527 20.4172C56.8917 17.7939 73.3322 28.8062 77.5778 45.4015M31.1733 67.0607C28.3008 64.3131 26.2894 60.652 25.6362 56.4576C24.8272 51.2108 26.3117 46.1394 29.3548 42.2445M63.3566 55.7417C62.4214 63.9553 56.0011 70.8609 47.3095 72.1617C43.1678 72.7828 39.1301 72.0374 35.6787 70.269M32.8878 38.7661C35.3446 36.91 38.3061 35.6239 41.5868 35.127C51.362 33.6655 60.5286 39.8038 62.889 49.0551M42.9748 63.3852C41.4013 63.1587 39.8574 62.5595 38.4917 61.5657C36.2056 59.9069 34.8473 57.4808 34.4985 54.9159M53.1583 48.8288C55.0139 52.0953 54.8803 56.2678 52.4754 59.4758C51.1691 61.2223 49.3877 62.428 47.4356 63.0346M35.0997 50.0196C35.4114 49.245 35.8271 48.4924 36.3541 47.7909C39.4343 43.6694 45.1718 42.5952 49.5436 45.1675" stroke="#66636C" stroke-width="2" stroke-miterlimit="10" stroke-linecap="round" stroke-linejoin="round" />
</svg>
