<svg width="90" height="84" viewBox="0 0 90 84" fill="none" xmlns="http://www.w3.org/2000/svg">
<path d="M12.2912 45.1008H4M86 45.1008H78M76 14L70 20M20 20L14.0126 13.9393M44.9241 1L45 9M30 73H89V83H1V73H18M22 73H26M79 73V63H11V73M21 63V42.1914C21 28.6396 31.4811 17 44.9241 17C58.3672 17 69 28.6396 69 42.1914V63M52.9746 27.338C57.9873 30.4006 61 35.9132 61 42.1914V56M44.0126 24.8114C45.2278 24.8114 46.367 24.9645 47.5063 25.1942" stroke="#66636C" stroke-width="2" stroke-miterlimit="10"/>
</svg>
