<svg width="83" height="90" viewBox="0 0 83 90" fill="none" xmlns="http://www.w3.org/2000/svg">
    <path d="M50.2747 82.4803L38.6906 88L7.82382 73.0795C3.63419 71.0119 1 66.8585 1 62.3183V51.5631C4.24257 48.903 6.29975 44.9431 6.29975 40.5117C6.29975 36.0863 4.24257 32.1204 1 29.4603V11C1 11 18.162 1 38 1C57.838 1 77 11 77 11V29M65 60C63.1498 61.2212 61.5453 63.1407 60.9809 65.4138C60.4227 67.6568 60.7864 69.9118 61.8338 71.798M65 60C61.3435 58.5974 58.4658 55.6985 57.4121 52.1981M65 60C67.1136 58.6035 69.6236 58.0804 72.3142 58.6971C73.255 58.9147 74.1204 59.2597 74.9107 59.7071M61.8338 71.798C58.8547 74.7966 54.3515 76.2294 49.8608 75.1956C43.1185 73.6419 38.9603 67.1187 40.5721 60.6257C42.184 54.1327 48.9514 50.1245 55.6874 51.6722C56.2832 51.8112 56.8602 51.9865 57.4121 52.1981M61.8338 71.798C63.0569 74.0047 65.2144 75.7158 67.9426 76.3385C72.9978 77.4993 78.0717 74.4946 79.2822 69.6279C80.2606 65.662 78.3791 61.6779 74.9107 59.7071M57.4121 52.1981C56.8163 50.2454 56.7286 48.1293 57.2554 46.0134C58.8673 39.5143 65.6346 35.5061 72.3707 37.0598C79.1067 38.6135 83.2649 45.1367 81.653 51.6297C80.7436 55.2994 78.1846 58.1836 74.9107 59.7071M72 72C72 72 72.4634 70.0267 74 69.936M46 67C46 67 49 67 49 69.936M45.7276 44.3327C45.7276 44.3327 40.616 31.1049 24.8485 39.4418C33.2717 54.048 45.7276 44.3327 45.7276 44.3327ZM56.1578 19.7393C56.1578 19.7393 42.6293 25.1501 51.8552 40.0344C66.6883 31.3831 56.1578 19.7393 56.1578 19.7393ZM72.98 41.1968C74.9121 42.1081 75.9613 43.8655 75.3234 45.1221C74.6855 46.3786 72.6022 46.6586 70.6701 45.7473C68.738 44.836 67.6888 43.0786 68.3267 41.822C68.9646 40.5654 71.0479 40.2855 72.98 41.1968Z" stroke="#66636C" stroke-width="2" stroke-miterlimit="10" />
</svg>