<svg width="99" height="87" viewBox="0 0 99 87" fill="none" xmlns="http://www.w3.org/2000/svg">
<path d="M62 9.50722L41 30.9253L67 64.9707L97 34.9306L62 9.50722ZM62 9.50722L67 4.89058C72 -0.116043 82 -0.115989 85.7297 3.88934L97 14.9527L85.7297 26.2504M71 22.9146L88 35.932M63.4452 16.5584L68 19.9106M76.5329 6.50525C78.8303 6.15618 81.2596 7.15063 83 8.89596L89 14.904L81 22.6321M67 13.1391L72 7.89463M1 77.988L1 66.9733C1 55.1051 10.8159 46.9466 22.6505 46.9466M1 87V81.9933M5 77.988V66.9733C5 57.4787 13.1828 50.5924 22.6505 50.5924M5 87V81.9933M9 77.988V66.9733C9 60.1316 15.8282 54.9573 22.6505 54.9573M9 87V81.9933M49.752 42.3855L29 48.9493C28.1646 46.0172 25.9935 43.4998 23 42.9413V58.9627C25.8542 58.474 28.0254 55.6076 29 52.9547L62.2485 58.9627L49.752 42.3855Z" stroke="#66636C" stroke-width="2" stroke-miterlimit="10"/>
</svg>
