<svg width="67" height="99" viewBox="0 0 67 99" fill="none" xmlns="http://www.w3.org/2000/svg">
<path d="M2.00007 88C1.8054 86.5984 1.65469 85.2669 1.54482 84M20.9999 25C3.7375 20.3726 13.1738 1 13.1738 1M20.9999 25C20.9999 58.3053 1.81809 53.64 1.32446 78M20.9999 25C20.9999 25 28.4533 19.7827 44.0034 19M52 19C50.6192 18.9342 49.286 18.9031 48 18.9022M65.5962 12.5745C65.5962 12.5745 62.998 17.6323 59 19C47.3893 51.1525 69.7928 68.3424 59.2961 90M61.6754 70.608C59.738 70.9953 57.8492 71.2924 56 71.5025M47.9225 79.1533C47.9225 79.1533 35.2521 82.7281 31 87C30.6385 86.048 30.2117 84.9917 29.7632 84M39 56V58M52 71.8258C36.8671 72.5407 24.1028 67.2614 8.4988 58C15.5561 61.9463 22.9949 71.1399 27.7765 80M54 98C55.139 96.6444 56.1359 95.3124 57.0044 94L54 98Z" stroke="#66636C" stroke-width="2" stroke-miterlimit="10"/>
</svg>
