<svg width="74" height="90" viewBox="0 0 74 90" fill="none" xmlns="http://www.w3.org/2000/svg">
<path d="M27 89L23 70.9953H51L47 89M47 89H56M47 89H36M43 75.9966L42.3333 78.9974M41 84.9989L41.6667 81.9982M32 89H18M34 7.97866C30 9.97919 27.6475 9.14982 25.093 7.97866C23.0754 7.06023 21.9925 6.96592 19 6.94743C29.4311 -4.05536 31.5129 3.24808 39 4.97786C39 4.97786 40 14.9805 33.9158 16.8072M33.9158 16.8072C35.1226 18.3587 34.8116 20.5648 33.219 21.7406C33.219 21.7466 33.2128 21.7466 33.2128 21.7466C32.9142 21.9648 32.7711 22.3406 32.8955 22.686C33.9406 25.6497 33.8847 28.9163 32.8271 31.9951L32.796 32.0194C32.2548 33.583 31.4087 35.2376 30.401 36.4982C29.3932 37.7648 26.0713 40.8497 24.0433 41.7709C22.0153 42.6982 19.4274 43.4982 17.0821 43.6194L17.051 43.6436C13.7228 43.8012 10.4756 42.9709 7.83169 41.1891C7.52686 40.983 7.11629 41.0073 6.81769 41.2315C6.81769 41.2376 6.81147 41.2376 6.81147 41.2376C5.21893 42.4133 2.95453 42.1103 1.74769 40.5588C1.74769 40.5527 1.74147 40.5527 1.74147 40.5467C1.74147 40.5406 1.73524 40.5406 1.73524 40.5345C0.528397 38.983 0.839441 36.777 2.43198 35.6012C2.43198 35.5951 2.4382 35.5951 2.4382 35.5951C2.7368 35.3769 2.87988 35.0012 2.75546 34.6557C1.71036 31.6921 1.76635 28.4254 2.82389 25.3466L2.855 25.3224C3.91877 22.2618 5.97165 19.3951 8.92034 17.2193C11.869 15.0436 15.2594 13.8921 18.5689 13.7224L18.6 13.6981C21.9282 13.5406 25.1755 14.3709 27.8193 16.1527C28.1241 16.3587 28.5347 16.3345 28.8333 16.1103C28.8333 16.1042 28.8395 16.1042 28.8395 16.1042C30.4321 14.9284 32.6965 15.2315 33.9033 16.783C33.9033 16.789 33.9095 16.789 33.9095 16.7951C33.9095 16.8012 33.9158 16.8012 33.9158 16.8072ZM25.093 20.9816C21.2244 18.3126 15.5972 18.4914 11.2658 21.7706C11.0184 21.9579 10.7796 22.1519 10.5496 22.3522M6.82329 27.873C7.16528 26.8508 7.65163 25.8576 8.27589 24.9258M41.0174 18.2222C39.8296 19.7883 40.0646 22.2069 41.6136 23.4393C41.6136 23.4393 41.6152 23.4453 41.621 23.4438C41.9151 23.6739 42.0448 24.0638 41.9245 24.4113C40.886 27.4237 40.9236 30.7721 41.9374 33.9429L41.9688 33.9666C42.9895 37.1162 44.9804 40.0898 47.8473 42.3721C50.7141 44.6543 54.0172 45.8933 57.2518 46.1277L57.2833 46.1514C60.5338 46.3751 63.7068 45.5836 66.3018 43.8081C66.6037 43.5986 67.004 43.6394 67.2923 43.8711C67.2923 43.8711 67.2939 43.8771 67.2997 43.8755C68.8487 45.108 71.0622 44.8371 72.25 43.271C72.2559 43.2694 72.2543 43.2634 72.2601 43.2619C72.266 43.2603 72.2644 43.2543 72.2702 43.2527C73.458 41.6866 73.165 39.4231 71.616 38.1907C71.616 38.1907 71.6143 38.1847 71.6085 38.1862C71.3144 37.9561 71.1847 37.5662 71.305 37.2187C72.3436 34.2063 72.3059 30.8579 71.2922 27.6871L71.2607 27.6634C70.5365 25.4317 69.0932 23.1415 67.6717 21.4245C66.2561 19.706 62.4136 17.2989 60.9281 16.6543C60.391 16.4197 59.8093 16.2192 59.2071 16.0532M32.5123 58.9838C31.2636 58.7947 30.0481 58.5011 28.8743 58.1121M24.7816 56.2788C21.6846 54.4987 19.0355 51.9948 17.051 48.9894M37 70.9953V58.9921C43.2994 58.9921 49.7844 55.8211 54.3661 50.8148M59 22.9826C59 22.9826 56.8089 21.4701 55 14.9805C53.0483 7.97866 45 8.97893 45 8.97893C44.2838 11.4064 44.09 14.5426 45 16.8072C47.1299 23.8745 59 22.9826 59 22.9826Z" stroke="#66636C" stroke-width="2" stroke-miterlimit="10"/>
</svg>
