<svg width="100" height="90" viewBox="0 0 100 90" fill="none" xmlns="http://www.w3.org/2000/svg">
<path d="M20.9573 51.1412L20.2502 51.8483H20.2502L20.9573 51.1412ZM29.2079 43.021L29.9151 42.3139H29.915L29.2079 43.021ZM36.7494 26.2506L36.0423 26.9577L36.7494 26.2506ZM45 18L44.2929 18.7071L45 18ZM75.6434 74.3761L75.0702 73.5566L75.0696 73.5571L75.6434 74.3761ZM80.7503 67.3473L79.7935 67.0563L79.7934 67.0568L80.7503 67.3473ZM82.8575 63.2082L82.0592 62.606L82.0586 62.6068L82.8575 63.2082ZM85.5414 54.9439L84.5415 54.9615L84.5416 54.9623L85.5414 54.9439ZM86.269 50.3587L85.3241 50.0314L85.3234 50.0332L86.269 50.3587ZM86.269 41.6688L85.3234 41.9942L85.3241 41.996L86.269 41.6688ZM85.5414 37.0836L84.5416 37.0651L84.5415 37.0659L85.5414 37.0836ZM82.8575 28.8192L83.6559 28.217L83.6549 28.2157L82.8575 28.8192ZM80.7503 24.6802L81.7074 24.3904L81.705 24.3828L80.7503 24.6802ZM80.2972 23.4447L79.5616 22.7673L79.125 23.2414L79.3765 23.8348L80.2972 23.4447ZM80.0982 13.3545L80.8062 12.6482L80.8053 12.6474L80.0982 13.3545ZM70.7974 12.517L70.0951 13.2289L70.6855 13.8114L71.3671 13.3389L70.7974 12.517ZM65.3335 9.24974L65.6258 8.29341L65.6245 8.29301L65.3335 9.24974ZM61.1945 7.14247L60.5923 7.9408L60.5931 7.94141L61.1945 7.14247ZM52.9302 4.45862L52.9478 5.45846L52.9486 5.45845L52.9302 4.45862ZM48.345 3.73102L48.0177 4.67596L48.0195 4.67658L48.345 3.73102ZM39.655 3.73102L39.9805 4.67659L39.9823 4.67596L39.655 3.73102ZM35.0698 4.45862L35.0514 5.45845L35.0522 5.45846L35.0698 4.45862ZM26.8055 7.14247L26.2033 6.34413L26.202 6.34512L26.8055 7.14247ZM22.6665 9.24974L22.3767 8.29264L22.3738 8.29351L22.6665 9.24974ZM15.6376 14.3566L16.4573 14.9295L16.4574 14.9293L15.6376 14.3566ZM12.3566 17.6376L11.7837 16.818L11.7835 16.8182L12.3566 17.6376ZM7.24974 24.6665L8.20647 24.9574L8.20661 24.957L7.24974 24.6665ZM5.14247 28.8055L5.94081 29.4077L5.94142 29.4069L5.14247 28.8055ZM2.45862 37.0698L3.45846 37.0522L3.45845 37.0514L2.45862 37.0698ZM1.73102 41.655L2.67596 41.9823L2.67658 41.9805L1.73102 41.655ZM1.73102 50.345L2.67659 50.0195L2.67596 50.0177L1.73102 50.345ZM2.45862 54.9302L3.45845 54.9486L3.45846 54.9478L2.45862 54.9302ZM5.14247 63.1945L4.34413 63.7967L4.34512 63.798L5.14247 63.1945ZM7.24974 67.3335L6.29264 67.6233L6.29352 67.6262L7.24974 67.3335ZM12.3566 74.3624L12.9295 73.5427L12.9293 73.5426L12.3566 74.3624ZM15.6376 77.6434L14.818 78.2163L14.8182 78.2165L15.6376 77.6434ZM22.6665 82.7503L22.9574 81.7935L22.957 81.7934L22.6665 82.7503ZM26.8055 84.8575L27.4077 84.0592L27.4069 84.0586L26.8055 84.8575ZM35.0698 87.5414L35.0522 86.5415L35.0514 86.5415L35.0698 87.5414ZM39.655 88.269L39.9823 87.324L39.9805 87.3234L39.655 88.269ZM48.345 88.269L48.0195 87.3234L48.0177 87.324L48.345 88.269ZM52.9302 87.5414L52.9486 86.5415L52.9478 86.5415L52.9302 87.5414ZM61.1945 84.8575L61.7967 85.6559L61.798 85.6549L61.1945 84.8575ZM65.3335 82.7503L65.6233 83.7074L65.6262 83.7065L65.3335 82.7503ZM72.3624 77.6434L71.545 77.0672L71.5426 77.0707L72.3624 77.6434ZM97 35.6661L96.6749 36.6118L99.4022 37.5493L97.8407 35.1247L97 35.6661ZM96.3186 22.9905L97.3038 23.1617L97.3038 23.1616L96.3186 22.9905ZM89.883 11.4005L88.9605 11.7865L89.1468 12.2317L89.6112 12.3629L89.883 11.4005ZM83.0689 1L83.5436 0.119843L82.1732 1.44473L83.0689 1ZM28.5008 50.4341C26.6208 52.3141 23.4857 52.2553 21.6644 50.4341L20.2502 51.8483C22.8357 54.4338 27.2373 54.526 29.9151 51.8483L28.5008 50.4341ZM21.6644 50.4341C19.8369 48.6066 19.7838 45.6087 21.6644 43.7281L20.2502 42.3139C17.5731 44.9911 17.6573 49.2554 20.2502 51.8483L21.6644 50.4341ZM21.6644 43.7281C23.5444 41.8481 26.6796 41.9069 28.5008 43.7281L29.915 42.3139C27.3296 39.7284 22.928 39.6361 20.2502 42.3139L21.6644 43.7281ZM28.5008 43.7281C29.2535 44.4808 29.6869 45.435 29.7999 46.4349L31.7872 46.2103C31.6256 44.7804 31.0019 43.4008 29.9151 42.3139L28.5008 43.7281ZM44.1625 25.4131C42.2529 27.3226 39.2485 27.3355 37.4565 25.5435L36.0423 26.9577C38.657 29.5725 42.9285 29.4755 45.5767 26.8273L44.1625 25.4131ZM37.4565 25.5435C35.6584 23.7454 35.6766 20.7479 37.5869 18.8375L36.1727 17.4233C33.5253 20.0707 33.4199 24.3353 36.0423 26.9577L37.4565 25.5435ZM37.5869 18.8375C39.4964 16.928 42.5009 16.9151 44.2929 18.7071L45.7071 17.2929C43.0924 14.6782 38.8209 14.7751 36.1727 17.4233L37.5869 18.8375ZM44.2929 18.7071C45.1162 19.5305 45.5575 20.6029 45.6144 21.7164L47.6118 21.6145C47.5313 20.0372 46.9018 18.4876 45.7071 17.2929L44.2929 18.7071ZM76.2165 75.1955C78.8426 73.3588 80.7768 70.7019 81.7071 67.6378L79.7934 67.0568C78.994 69.6898 77.3314 71.9751 75.0702 73.5566L76.2165 75.1955ZM81.707 67.6383C82.1257 66.2617 82.7858 64.9663 83.6565 63.8096L82.0586 62.6068C81.0485 63.9487 80.2809 65.4538 79.7935 67.0563L81.707 67.6383ZM83.6559 63.8104C85.5818 61.2572 86.6003 58.1284 86.5412 54.9255L84.5416 54.9623C84.5923 57.7174 83.7163 60.4093 82.0592 62.606L83.6559 63.8104ZM86.5412 54.9263C86.5158 53.4856 86.7443 52.0504 87.2145 50.6841L85.3234 50.0332C84.7778 51.6186 84.512 53.2859 84.5415 54.9615L86.5412 54.9263ZM87.2139 50.686C88.262 47.6597 88.262 44.3678 87.2139 41.3415L85.3241 41.996C86.2253 44.5983 86.2253 47.4291 85.3241 50.0314L87.2139 50.686ZM87.2145 41.3433C86.7443 39.9771 86.5158 38.5419 86.5412 37.1012L84.5415 37.0659C84.512 38.7415 84.7778 40.4089 85.3234 41.9942L87.2145 41.3433ZM86.5412 37.102C86.6003 33.899 85.5818 30.7702 83.6559 28.217L82.0592 29.4214C83.7163 31.6182 84.5923 34.3101 84.5416 37.0651L86.5412 37.102ZM83.6549 28.2157C82.7858 27.0675 82.1261 25.7734 81.7074 24.3904L79.7932 24.9699C80.2805 26.5797 81.0485 28.0861 82.0602 29.4227L83.6549 28.2157ZM81.705 24.3828C81.5648 23.9325 81.4024 23.4897 81.218 23.0545L79.3765 23.8348C79.5353 24.2095 79.6749 24.5904 79.7955 24.9776L81.705 24.3828ZM81.0329 24.1221C84.0291 20.8684 83.9603 15.8102 80.8062 12.6482L79.3902 14.0607C81.7822 16.4587 81.837 20.2963 79.5616 22.7673L81.0329 24.1221ZM80.8053 12.6474C77.9235 9.76558 73.4585 9.45544 70.2276 11.6952L71.3671 13.3389C73.8197 11.6387 77.2072 11.8777 79.3911 14.0616L80.8053 12.6474ZM71.4996 11.8051C69.8634 10.191 67.8496 8.97311 65.6258 8.29341L65.0413 10.2061C66.9496 10.7894 68.6837 11.8366 70.0951 13.2289L71.4996 11.8051ZM65.6245 8.29301C64.248 7.87433 62.9526 7.21421 61.7959 6.34352L60.5931 7.94141C61.935 8.95148 63.4401 9.71909 65.0426 10.2065L65.6245 8.29301ZM61.7967 6.34413C59.2435 4.41816 56.1147 3.39974 52.9117 3.45879L52.9486 5.45845C55.7037 5.40766 58.3956 6.28373 60.5923 7.9408L61.7967 6.34413ZM52.9125 3.45877C51.4718 3.48416 50.0366 3.2557 48.6704 2.78546L48.0195 4.67658C49.6049 5.22223 51.2722 5.48799 52.9478 5.45846L52.9125 3.45877ZM48.6722 2.78609C45.646 1.73797 42.354 1.73797 39.3278 2.78609L39.9823 4.67596C42.5846 3.77468 45.4154 3.77468 48.0177 4.67596L48.6722 2.78609ZM39.3296 2.78546C37.9634 3.2557 36.5282 3.48416 35.0875 3.45877L35.0522 5.45846C36.7278 5.48799 38.3952 5.22223 39.9805 4.67658L39.3296 2.78546ZM35.0883 3.45879C31.8853 3.39974 28.7565 4.41816 26.2033 6.34413L27.4077 7.9408C29.6044 6.28373 32.2964 5.40766 35.0514 5.45845L35.0883 3.45879ZM26.202 6.34512C25.0538 7.2142 23.7597 7.87393 22.3767 8.29264L22.9562 10.2068C24.5659 9.71949 26.0724 8.95149 27.409 7.93982L26.202 6.34512ZM22.3738 8.29351C19.3127 9.2303 16.6487 11.1631 14.8179 13.7839L16.4574 14.9293C18.0311 12.6766 20.323 11.0127 22.9591 10.206L22.3738 8.29351ZM14.818 13.7837C13.9928 14.9644 12.9644 15.9928 11.7837 16.818L12.9295 18.4573C14.3023 17.4978 15.4978 16.3023 16.4573 14.9295L14.818 13.7837ZM11.7835 16.8182C9.1574 18.655 7.22319 21.3118 6.29287 24.3759L8.20661 24.957C9.00604 22.3239 10.6686 20.0386 12.9298 18.4571L11.7835 16.8182ZM6.29302 24.3755C5.87433 25.752 5.21421 27.0474 4.34353 28.2041L5.94142 29.4069C6.95149 28.0651 7.71909 26.5599 8.20647 24.9574L6.29302 24.3755ZM4.34414 28.2033C2.41816 30.7565 1.39975 33.8853 1.45879 37.0883L3.45845 37.0514C3.40766 34.2963 4.28374 31.6044 5.94081 29.4077L4.34414 28.2033ZM1.45877 37.0875C1.48416 38.5282 1.2557 39.9634 0.785464 41.3296L2.67658 41.9805C3.22223 40.3951 3.48799 38.7278 3.45846 37.0522L1.45877 37.0875ZM0.786093 41.3278C-0.262031 44.354 -0.262031 47.646 0.786093 50.6722L2.67596 50.0177C1.77468 47.4154 1.77468 44.5846 2.67596 41.9823L0.786093 41.3278ZM0.785464 50.6704C1.2557 52.0366 1.48416 53.4718 1.45877 54.9125L3.45846 54.9478C3.48799 53.2722 3.22223 51.6048 2.67658 50.0195L0.785464 50.6704ZM1.45879 54.9117C1.39975 58.1147 2.41816 61.2435 4.34414 63.7967L5.94081 62.5923C4.28374 60.3956 3.40766 57.7037 3.45845 54.9486L1.45879 54.9117ZM4.34512 63.798C5.2142 64.9462 5.87393 66.2403 6.29264 67.6233L8.20684 67.0438C7.71949 65.4341 6.95149 63.9276 5.93982 62.591L4.34512 63.798ZM6.29352 67.6262C7.2303 70.6873 9.16311 73.3513 11.7839 75.1821L12.9293 73.5426C10.6766 71.9689 9.01266 69.677 8.20597 67.0409L6.29352 67.6262ZM11.7837 75.182C12.9644 76.0072 13.9928 77.0356 14.818 78.2163L16.4573 77.0705C15.4978 75.6977 14.3023 74.5022 12.9295 73.5427L11.7837 75.182ZM14.8182 78.2165C16.655 80.8426 19.3118 82.7768 22.3759 83.7071L22.957 81.7934C20.3239 80.994 18.0386 79.3314 16.4571 77.0702L14.8182 78.2165ZM22.3755 83.707C23.752 84.1257 25.0474 84.7858 26.2041 85.6565L27.4069 84.0586C26.0651 83.0485 24.5599 82.2809 22.9574 81.7935L22.3755 83.707ZM26.2033 85.6559C28.7565 87.5819 31.8853 88.6003 35.0883 88.5412L35.0514 86.5415C32.2964 86.5923 29.6044 85.7163 27.4077 84.0592L26.2033 85.6559ZM35.0875 88.5412C36.5282 88.5158 37.9634 88.7443 39.3296 89.2145L39.9805 87.3234C38.3952 86.7778 36.7278 86.512 35.0522 86.5415L35.0875 88.5412ZM39.3278 89.2139C42.354 90.262 45.646 90.262 48.6722 89.2139L48.0177 87.324C45.4154 88.2253 42.5846 88.2253 39.9823 87.324L39.3278 89.2139ZM48.6704 89.2145C50.0366 88.7443 51.4718 88.5158 52.9125 88.5412L52.9478 86.5415C51.2722 86.512 49.6049 86.7778 48.0195 87.3234L48.6704 89.2145ZM52.9117 88.5412C56.1147 88.6003 59.2435 87.5819 61.7967 85.6559L60.5923 84.0592C58.3956 85.7163 55.7037 86.5923 52.9486 86.5415L52.9117 88.5412ZM61.798 85.6549C62.9462 84.7858 64.2403 84.1261 65.6233 83.7074L65.0438 81.7932C63.4341 82.2805 61.9276 83.0485 60.591 84.0602L61.798 85.6549ZM65.6262 83.7065C68.6873 82.7697 71.3513 80.8369 73.1821 78.2161L71.5426 77.0707C69.9689 79.3234 67.677 80.9874 65.0409 81.794L65.6262 83.7065ZM73.1797 78.2195C73.9985 77.0579 75.0281 76.0281 76.2171 75.1951L75.0696 73.5571C73.6916 74.5225 72.4971 75.7166 71.545 77.0672L73.1797 78.2195ZM48 38C48 39.1046 47.1046 40 46 40V42C48.2091 42 50 40.2091 50 38H48ZM46 40C44.8954 40 44 39.1046 44 38H42C42 40.2091 43.7909 42 46 42V40ZM44 38C44 36.8954 44.8954 36 46 36V34C43.7909 34 42 35.7909 42 38H44ZM46 36C47.1046 36 48 36.8954 48 38H50C50 35.7909 48.2091 34 46 34V36ZM28 30C28 31.1046 27.1046 32 26 32V34C28.2091 34 30 32.2091 30 30H28ZM26 32C24.8954 32 24 31.1046 24 30H22C22 32.2091 23.7909 34 26 34V32ZM24 30C24 28.8954 24.8954 28 26 28V26C23.7909 26 22 27.7909 22 30H24ZM26 28C27.1046 28 28 28.8954 28 30H30C30 27.7909 28.2091 26 26 26V28ZM88.1296 14.5077C85.9247 18.4058 85.2926 21.7903 85.6793 24.6894C86.0655 27.584 87.4522 29.882 89.0859 31.639C90.7145 33.3905 92.6096 34.6287 94.0804 35.4257C94.8191 35.8259 95.4591 36.1194 95.9176 36.3139C96.1471 36.4113 96.3317 36.4842 96.4613 36.5335C96.526 36.5581 96.5771 36.5769 96.6131 36.5899C96.6311 36.5964 96.6454 36.6015 96.6557 36.6051C96.6609 36.607 96.6651 36.6084 96.6683 36.6096C96.6699 36.6101 96.6713 36.6106 96.6724 36.611C96.6729 36.6111 96.6736 36.6114 96.6739 36.6115C96.6744 36.6117 96.6749 36.6118 97 35.6661C97.3251 34.7205 97.3254 34.7206 97.3258 34.7207C97.3258 34.7207 97.3261 34.7208 97.3261 34.7208C97.3262 34.7208 97.3261 34.7208 97.3257 34.7207C97.3249 34.7204 97.3232 34.7198 97.3204 34.7188C97.315 34.7169 97.3058 34.7136 97.2929 34.709C97.267 34.6996 97.2265 34.6848 97.1726 34.6642C97.0648 34.6232 96.9036 34.5597 96.6989 34.4728C96.289 34.2989 95.7075 34.0325 95.0333 33.6672C93.6784 32.9331 91.9826 31.8172 90.5506 30.2771C89.1238 28.7426 87.9802 26.8116 87.6618 24.425C87.344 22.043 87.833 19.0942 89.8704 15.4923L88.1296 14.5077ZM97 35.6661C97.8407 35.1247 97.8411 35.1253 97.8415 35.1259C97.8416 35.1261 97.842 35.1266 97.8422 35.127C97.8427 35.1277 97.8431 35.1284 97.8435 35.129C97.8443 35.1302 97.8449 35.1312 97.8454 35.132C97.8464 35.1336 97.8468 35.1344 97.8468 35.1343C97.8467 35.134 97.8444 35.1304 97.8403 35.1233C97.8321 35.109 97.8162 35.0808 97.7941 35.0381C97.75 34.9526 97.6811 34.809 97.5993 34.603C97.4358 34.1914 97.2197 33.5282 97.0469 32.5799C96.7014 30.6842 96.5265 27.6348 97.3038 23.1617L95.3334 22.8193C94.5208 27.495 94.6865 30.7835 95.0793 32.9384C95.2755 34.0154 95.5279 34.8057 95.7406 35.3413C95.8468 35.6089 95.943 35.8122 96.0169 35.9554C96.0539 36.027 96.0852 36.0835 96.1095 36.1253C96.1216 36.1463 96.1319 36.1636 96.1403 36.1772C96.1445 36.1841 96.1482 36.19 96.1513 36.1951C96.1529 36.1976 96.1544 36.1999 96.1557 36.202C96.1564 36.2031 96.157 36.204 96.1576 36.205C96.1579 36.2054 96.1583 36.2061 96.1585 36.2063C96.1589 36.207 96.1593 36.2076 97 35.6661ZM97.3038 23.1616C98.1736 18.153 96.4332 14.9268 94.3988 12.98C93.4011 12.0252 92.3531 11.3955 91.5573 11.0042C91.158 10.8078 90.818 10.6694 90.5733 10.5788C90.4508 10.5334 90.3517 10.4998 90.2806 10.4768C90.2451 10.4653 90.2164 10.4565 90.1953 10.4501C90.1847 10.4469 90.176 10.4443 90.1693 10.4423C90.1659 10.4414 90.163 10.4405 90.1606 10.4398C90.1594 10.4395 90.1583 10.4392 90.1574 10.4389C90.1569 10.4388 90.1563 10.4386 90.1561 10.4385C90.1555 10.4384 90.1549 10.4382 89.883 11.4005C89.6112 12.3629 89.6107 12.3627 89.6102 12.3626C89.6101 12.3626 89.6096 12.3624 89.6094 12.3624C89.6089 12.3622 89.6086 12.3621 89.6084 12.3621C89.6079 12.3619 89.6079 12.3619 89.6084 12.3621C89.6094 12.3624 89.6122 12.3632 89.6168 12.3646C89.6261 12.3674 89.6425 12.3724 89.6655 12.3799C89.7116 12.3948 89.784 12.4192 89.8785 12.4542C90.0679 12.5244 90.3443 12.6364 90.6748 12.7989C91.3384 13.1253 92.2026 13.6466 93.016 14.4249C94.6037 15.9444 96.0811 18.5132 95.3333 22.8194L97.3038 23.1616ZM89.883 11.4005C90.8055 11.0145 90.8055 11.0144 90.8054 11.0142C90.8054 11.0141 90.8053 11.0139 90.8052 11.0137C90.805 11.0133 90.8048 11.0128 90.8045 11.0121C90.8039 11.0107 90.8031 11.0089 90.8021 11.0065C90.8001 11.0017 90.7972 10.9949 90.7935 10.986C90.786 10.9683 90.7751 10.9426 90.7608 10.9092C90.7323 10.8426 90.6906 10.7458 90.6365 10.6225C90.5284 10.3759 90.3711 10.0234 90.1725 9.5956C89.7759 8.74113 89.2122 7.58098 88.5456 6.3632C87.8809 5.14891 87.1032 3.85781 86.2765 2.75039C85.4685 1.66805 84.538 0.65616 83.5436 0.119843L82.5942 1.88016C83.1897 2.20133 83.906 2.91825 84.6738 3.94679C85.4229 4.95025 86.15 6.1521 86.7913 7.32357C87.4307 8.49155 87.9743 9.60997 88.3584 10.4376C88.5503 10.8509 88.7017 11.1903 88.8048 11.4255C88.8563 11.543 88.8957 11.6344 88.922 11.6959C88.9352 11.7266 88.945 11.7499 88.9515 11.7651C88.9547 11.7728 88.9571 11.7784 88.9586 11.782C88.9594 11.7838 88.9599 11.7851 88.9602 11.7858C88.9604 11.7862 88.9605 11.7864 88.9605 11.7866C88.9606 11.7866 88.9606 11.7866 88.9606 11.7866C88.9606 11.7866 88.9605 11.7865 89.883 11.4005ZM82.1732 1.44473C82.8037 2.71448 83.1536 5.0934 82.6153 7.8164C82.0836 10.5057 80.7012 13.4389 77.9936 15.8386L79.3202 17.3353C82.3943 14.6108 83.9715 11.2685 84.5773 8.20427C85.1764 5.17378 84.8415 2.32131 83.9646 0.555273L82.1732 1.44473Z" fill="#66636C"/>
</svg>
