<svg width="86" height="89" viewBox="0 0 86 89" fill="none" xmlns="http://www.w3.org/2000/svg">
<path d="M43 41V36M43 41L38 39.7142M43 41L48.0001 39.7142M43 41L46 45.4774M43 41L40 45.4774M68.2381 78.6673L48.2178 48.7875M83.8103 30.5055L77.9986 32M43 12V32M43 1V8M2.19048 30.5055L25 36.3712M73 9L75.9734 9.63309M73 9L74.4673 6.68422M73 9L71.1993 7.20068M73 9L70.6769 10.4717M73 9L73.628 11.9711M19 13L21.9734 13.6331M19 13L20.4673 10.6787M19 13L17.1937 11.2007M19 13L16.6769 14.4661M19 13L19.628 15.9711M7.02657 51.0422L10 51.6697M7.02657 51.0422L8.49383 48.7209M7.02657 51.0422L5.22589 49.2373M7.02657 51.0422L4.70344 52.5083M7.02657 51.0422L7.6546 54.0133M45 85L47.9734 85.6331M45 85L46.4728 82.6842M45 85L43.1992 83.2007M45 85L42.6824 86.4716M45 85L45.6336 87.9711M77 57L79.9734 57.6331M77 57L78.4673 54.6842M77 57L75.1937 55.2007M77 57L74.6769 58.4717M77 57L77.628 59.9711M50.6587 17.6104L45.501 2.78266C44.6729 0.40578 41.3104 0.40578 40.4879 2.78266L32.2234 26.5348C31.8566 27.5844 30.8784 28.2952 29.7724 28.3174L4.60656 28.8284C2.08887 28.8783 1.04955 32.0771 3.05593 33.5932L23.1141 48.7875C23.9978 49.4594 24.3702 50.609 24.0534 51.6697L16.7671 75.7439C16.039 78.1486 18.7568 80.1256 20.8243 78.6873L41.4827 64.3205C42.3942 63.6874 43.6058 63.6874 44.5173 64.3205L65.1757 78.6873C67.2432 80.1256 69.961 78.1486 69.2329 75.7439L61.9466 51.6697C61.6243 50.609 61.9966 49.4594 62.8859 48.7875L82.9441 33.5932C84.9505 32.0716 83.9111 28.8783 81.3934 28.8284L56.2276 28.3174C55.1161 28.2952 54.1379 27.5844 53.7766 26.5348M53.7655 26.5348L52.6094 23.2083M33 38.4284L29 37.3998M74.2238 32.9707L52 38.6856M37.7822 48.7875L28 63.3872M23.5692 70L26 66.3721" stroke="#66636C" stroke-width="2" stroke-miterlimit="10"/>
</svg>
