<svg width="78" height="90" viewBox="0 0 78 90" fill="none" xmlns="http://www.w3.org/2000/svg">
<path d="M45.6144 26.0003C46.5504 27.3622 47.112 29.0336 47.112 30.8289M38.3761 22.224C39.5617 22.224 40.7473 22.4716 41.7457 22.905M39 50V62M39 0V12M58 31H70M8 31H20M24.96 45L16 54M62 10L53 17M53 45L62 54M16 8L24.96 17M53 79H1L1 73H53M63 79H77V73H63M63 85L58 88L53 85V69H63V85ZM53 31C53 38.732 46.732 45 39 45C31.268 45 25 38.732 25 31C25 23.268 31.268 17 39 17C46.732 17 53 23.268 53 31Z" stroke="#66636C" stroke-width="2" stroke-miterlimit="10"/>
</svg>
