<svg width="94" height="91" viewBox="0 0 94 91" fill="none" xmlns="http://www.w3.org/2000/svg">
<path d="M59 5.99982V1.00049L35 1.00055V5.99989M47.8183 82.5251L47 82.9999L46.1816 82.5251M53 77.9999V78.9999L50 81.303M47 69.9999V53.9999M53 73.9999V71.1549L51.3322 69.9999M41 77.9999V78.7262L44 81.1815M41 73.9999V71.1549L42.6679 69.9999M55.5948 47.2159C63.2631 43.8719 69 36.906 69 27.9999C69 26.343 70.3431 24.9999 72 24.9999C73.6568 24.9999 75 26.343 75 27.9999C75 40.7045 65.773 52.0696 54 54.9999M51.0304 48.6268C49.7253 48.871 48.3728 48.9999 47 48.9999C36 48.9999 25 37.9999 25 27.9999C25 26.343 23.6568 24.9999 22 24.9999C20.3431 24.9999 19 26.343 19 27.9999C19 37.9999 24.6697 46.1432 32 50.9999M40 54.9999C38.5258 54.6675 37.0922 54.2131 35.7195 53.6433M55.676 19.7247C53.2483 20.464 50.3338 20.9999 47 20.9999C36.4104 20.9999 30.1418 15.5734 30.1418 15.5734M63.9529 15.5734C63.9529 15.5734 62.756 16.5909 60.5448 17.7508M53.5661 14.3012C51.6592 14.7218 49.4615 14.9999 47 14.9999C37.6817 14.9999 32.1637 10.9301 32.1637 10.9301M61.9174 10.9301C61.9174 10.9301 60.5177 11.9475 57.9548 12.965M60.6732 24.4766C57.4679 25.8807 53.0319 26.9999 47 26.9999C31.2034 26.9999 25.7733 19.369 25.5502 19.0434M67.9562 18.9077C67.875 19.0433 67.0298 20.4 64.9876 21.9668M79.9731 28.9999H81.9715C89.9324 29 94.593 36.5676 92.4997 44.2783L88.4617 61.3305C88.4617 61.3305 84.4236 64.4849 75.9678 66.66M14.027 28.9999H12.0286C4.06766 29 -0.593051 36.4443 1.50029 44.155L5.53836 61.3305C5.53836 61.3305 15.7674 65.9288 30 68.9999M64 68.9999C64 68.9999 69.157 68.5262 69.869 68.1782M34.8167 68.8777V80.8777L47 89L58.8167 80.8777V68.8777L46.8167 60.8777L34.8167 68.8777Z" stroke="#66636C" stroke-width="2" stroke-miterlimit="10"/>
</svg>
