<svg width="56" height="89" viewBox="0 0 56 89" fill="none" xmlns="http://www.w3.org/2000/svg">
<path d="M44 36H36M46 30H38M52 46H44M54 40H46M12 39.9766H4M14 11L9 5.99999M43.6971 12.5023L47.9395 8.39294M56 22H48M8 29.8205H0M10.1213 24H2M29 4C33.4242 4 39.4242 11.5464 41 20M29 4C45.4243 4 53 15 53 28.0007C53 35.1628 49.3636 44.6031 45 52M29 4C12.5757 4 5 15 5 28.0007C5 35 8.63636 44.6031 13 52M29 4C24.5758 4 18.5152 11.5464 17 20M29 5.99999V0M24 82H55V52H3V82H12M51 82V88H7V82M45 65V77M45 57V61M35 52C38 45 41 32 41 24M23 52C22.3813 50.5564 21.7626 48.8575 21.1702 47M17 24C17 29.2226 18.2785 36.576 20.0009 43M16 82H20" stroke="#66636C" stroke-width="2"/>
</svg>
