<svg width="114" height="89" viewBox="0 0 114 89" fill="none" xmlns="http://www.w3.org/2000/svg">
<path d="M57 20V54M57 20C61.4183 20 65 16.4183 65 12M57 20C52.5817 20 49 16.4183 49 12M49 12C36.115 12 32.1357 27.0805 25 20M49 12C49 7.58171 52.5817 3.99999 57 3.99999M57 3.99999L57 0M57 3.99999C61.4183 3.99999 65 7.58171 65 12M53 76V54H61V76M58 82H81V88H33V82H46M50 82H54M73 82V76H41V82M25 20C25 22.2091 23.2091 24 21 24C18.7909 24 17 22.2091 17 20C17 17.7909 18.7909 16 21 16C23.2091 16 25 17.7909 25 20ZM37 66C32 71 26 72 21 72C16 72 10 71 5 66M19 24L7 60M23 24L35 60M21.823 66H41V60H1V66H10M14 66H18M109 66C104 71 98 72 93 72C88 72 82 71 77 66M91 24L79 60M95 24L107 60M93.823 66H113V60H73V66H82M86 66H90M65 12C77.885 12 81.8643 27.0805 89 20M89 20C89 22.2091 90.7909 24 93 24C95.2091 24 97 22.2091 97 20C97 17.7909 95.2091 16 93 16C90.7909 16 89 17.7909 89 20Z" stroke="#66636C" stroke-width="2"/>
</svg>
