<svg width="16" height="16" viewBox="0 0 16 16" fill="none" xmlns="http://www.w3.org/2000/svg">
<path fill-rule="evenodd" clip-rule="evenodd" d="M8.66663 8.04662C8.66663 7.83129 8.73463 7.58462 8.85663 7.33062C9.77597 7.92729 11.0173 7.81395 11.8106 6.99795C12.7146 6.07129 13.402 2.00195 13.402 2.00195C13.402 2.00195 9.5413 2.60729 8.45063 3.72729C7.78397 4.41195 7.62397 5.39795 7.95663 6.23195C7.53663 6.84595 7.3333 7.49662 7.3333 8.04662V9.99995H8.66663V8.04662ZM6.06665 7.13134C6.65131 6.45801 6.57931 5.43867 5.90598 4.85401C5.23331 4.27001 2.41064 3.95801 2.41064 3.95801C2.41064 3.95801 2.97798 6.58601 3.78998 7.29201C4.46331 7.87601 5.48265 7.80401 6.06665 7.13134ZM3.74879 11H12.2509C12.4861 11 12.7079 11.0846 12.8487 11.2274C12.9903 11.3703 13.0361 11.556 12.9709 11.7286L11.9002 14.5857C11.8088 14.8309 11.5151 15 11.1802 15H4.81867C4.48452 15 4.19083 14.8309 4.09943 14.5857L3.0288 11.7286C2.96437 11.556 3.00932 11.3703 3.15092 11.2274C3.29252 11.0846 3.51354 11 3.74879 11Z" fill="#97ADC6"/>
</svg>
