<svg xmlns="http://www.w3.org/2000/svg" width="26" height="26" fill="none" viewBox="0 0 26 26">
    <path fill="#DADADA" d="M16.775 17.351a.765.765 0 1 0 .922-1.22l-.922 1.22zm-3.693-3.746h-.765c0 .24.113.466.304.61l.46-.61zm.764-8.698a.765.765 0 0 0-1.529 0h1.53zM.587 16.877a.765.765 0 0 0 1.46-.457l-1.46.456zm7.397 6.454a.765.765 0 0 0-.667 1.377l.667-1.377zm-3.33-.355a.765.765 0 1 0 .984-1.171l-.983 1.17zm-1.507-4.092a.765.765 0 0 0-1.311.787l1.31-.787zm14.55-2.753l-4.154-3.136-.921 1.22 4.154 3.136.922-1.22zm-3.85-2.526V4.907h-1.529v8.698h1.53zm-11.8 2.815A11.45 11.45 0 0 1 1.53 13H0c0 1.346.203 2.65.587 3.876l1.46-.456zM1.53 13c0-6.34 5.121-11.47 11.437-11.47V0C5.802 0 0 5.82 0 13h1.53zM12.966 1.53c6.315 0 11.436 5.13 11.436 11.47h1.53c0-7.18-5.803-13-12.966-13v1.53zM24.402 13c0 6.34-5.121 11.47-11.436 11.47V26c7.163 0 12.965-5.82 12.965-13h-1.53zM12.966 24.47c-1.788 0-3.475-.408-4.983-1.139l-.667 1.377A12.917 12.917 0 0 0 12.966 26v-1.53zm-7.329-2.665a11.645 11.645 0 0 1-2.491-2.92l-1.311.786a13.172 13.172 0 0 0 2.819 3.305l.983-1.171z"/>
</svg>
