<svg xmlns="http://www.w3.org/2000/svg" width="61" height="16" fill="none" viewBox="0 0 61 16">
    <g fill="#fff" fill-opacity=".2" clip-path="url(#a)">
        <path d="M40.517 0h-4.672a.648.648 0 0 0-.64.547l-1.888 11.977a.389.389 0 0 0 .384.45h2.396a.455.455 0 0 0 .449-.385l.536-3.396a.648.648 0 0 1 .64-.546H39.2c3.076 0 4.851-1.489 5.316-4.44.208-1.29.008-2.304-.597-3.014C43.257.413 42.08 0 40.517 0zm.54 4.374c-.256 1.678-1.536 1.678-2.775 1.678h-.705l.494-3.131a.39.39 0 0 1 .384-.328h.324c.844 0 1.64 0 2.05.48.245.286.321.713.228 1.301zM7.204 0H2.533a.648.648 0 0 0-.64.547L.004 12.524a.389.389 0 0 0 .384.45h2.23c.32 0 .59-.233.64-.548l.51-3.23a.648.648 0 0 1 .64-.547h1.478c3.077 0 4.852-1.489 5.316-4.44.208-1.29.009-2.304-.597-3.013C9.945.412 8.766 0 7.204 0zm.538 4.374c-.256 1.678-1.536 1.678-2.775 1.678h-.705l.495-3.131a.39.39 0 0 1 .384-.328h.323c.844 0 1.64 0 2.05.48.248.286.322.713.228 1.301zM21.165 4.32h-2.238a.388.388 0 0 0-.383.328l-.098.625-.156-.226c-.484-.703-1.565-.937-2.643-.937-2.472 0-4.583 1.872-4.993 4.498-.215 1.31.09 2.562.833 3.436.684.803 1.656 1.137 2.817 1.137 1.992 0 3.096-1.28 3.096-1.28l-.1.623a.39.39 0 0 0 .384.451h2.014c.319 0 .59-.232.64-.546l1.209-7.658a.388.388 0 0 0-.382-.45zm-3.118 4.355c-.217 1.278-1.23 2.135-2.524 2.135-.649 0-1.167-.208-1.501-.603-.33-.393-.456-.95-.352-1.571.202-1.267 1.233-2.153 2.506-2.153.636 0 1.15.21 1.49.61.346.401.48.963.38 1.582zM54.48 4.32h-2.237a.388.388 0 0 0-.384.328l-.098.625-.156-.226c-.484-.703-1.565-.937-2.643-.937-2.471 0-4.583 1.872-4.993 4.498-.215 1.31.09 2.562.834 3.436.683.803 1.655 1.137 2.816 1.137 1.992 0 3.096-1.28 3.096-1.28l-.1.623a.39.39 0 0 0 .384.451h2.014c.319 0 .59-.232.64-.546l1.209-7.658a.388.388 0 0 0-.382-.45zm-3.118 4.355c-.217 1.278-1.23 2.135-2.524 2.135-.648 0-1.167-.208-1.501-.603-.33-.393-.456-.95-.352-1.571.202-1.267 1.233-2.153 2.506-2.153.636 0 1.15.21 1.491.61.343.401.477.963.38 1.582zM33.077 4.32h-2.248a.645.645 0 0 0-.536.284l-3.1 4.568-1.316-4.39a.647.647 0 0 0-.622-.462h-2.209a.389.389 0 0 0-.369.514l2.476 7.267-2.328 3.285a.39.39 0 0 0 .316.614h2.246a.649.649 0 0 0 .534-.28l7.477-10.79a.39.39 0 0 0-.321-.61zM57.116.33l-1.918 12.196a.389.389 0 0 0 .384.45h1.929c.319 0 .59-.233.64-.547L60.04.45A.388.388 0 0 0 59.657 0H57.5a.386.386 0 0 0-.384.33z"/>
    </g>
    <defs>
        <clipPath id="a">
            <path fill="#fff" d="M0 0h60.046v16H0z"/>
        </clipPath>
    </defs>
</svg>
