<svg xmlns="http://www.w3.org/2000/svg" width="47" height="22" fill="none" viewBox="0 0 47 22">
    <g fill="#fff" fill-opacity=".2" clip-path="url(#a)">
        <path d="M12.04 9.112c-.02-2.17 1.83-3.213 1.914-3.264-1.04-1.475-2.66-1.677-3.238-1.7-1.379-.136-2.691.785-3.39.785-.699 0-1.778-.766-2.922-.745-1.503.021-2.888.846-3.663 2.15-1.56 2.624-.399 6.51 1.122 8.64.744 1.041 1.63 2.214 2.795 2.171 1.122-.043 1.546-.702 2.901-.702 1.356 0 1.737.702 2.922.681 1.207-.022 1.973-1.063 2.71-2.107.854-1.209 1.206-2.378 1.226-2.44-.026-.01-2.351-.874-2.376-3.47zM9.813 2.738c.617-.725 1.034-1.734.92-2.738-.891.035-1.969.575-2.608 1.3-.573.641-1.074 1.668-.939 2.653.994.074 2.008-.49 2.627-1.215zM36.313 14.272V9.898a7.91 7.91 0 0 0-.154-1.539 3.748 3.748 0 0 0-.58-1.4 3.186 3.186 0 0 0-1.173-1.018c-.498-.262-1.141-.393-1.931-.393a6.368 6.368 0 0 0-1.682.22 5.309 5.309 0 0 0-1.563.727l.355.81a4.962 4.962 0 0 1 1.315-.613c.482-.146.967-.22 1.457-.22.647 0 1.16.117 1.54.348.379.231.662.517.852.856.188.333.312.697.368 1.076.055.377.083.713.083 1.007v.3c-2.275-.03-3.977.309-5.107 1.019-1.129.71-1.693 1.72-1.693 3.031.002.38.07.755.201 1.11.132.367.337.701.604.984a3 3 0 0 0 1.03.694c.42.178.905.267 1.458.267.412.003.823-.051 1.22-.162a4.123 4.123 0 0 0 1.765-1.018 3.92 3.92 0 0 0 .544-.648h.048l.166 1.574h1.042a8.487 8.487 0 0 1-.142-1.296 37.547 37.547 0 0 1-.023-1.342zm-1.113-.904c0 .14-.04.363-.12.672a3.298 3.298 0 0 1-.415.81 3.184 3.184 0 0 1-.675.706 3.238 3.238 0 0 1-.947.497 3.791 3.791 0 0 1-1.232.185 2.385 2.385 0 0 1-1.539-.555c-.459-.37-.688-.95-.688-1.735 0-.664.183-1.196.546-1.597.362-.402.82-.706 1.373-.914a6.983 6.983 0 0 1 1.812-.405c.626-.06 1.255-.084 1.884-.07v2.406zM45.81 5.8l-2.7 7.174c-.174.448-.332.885-.474 1.308-.142.425-.268.807-.38 1.146h-.047c-.11-.355-.237-.745-.379-1.169-.139-.416-.29-.829-.45-1.238l-2.89-7.22h-1.185l4.1 10.298c.094.216.141.378.141.485 0 .078-.047.24-.142.487a7.67 7.67 0 0 1-.912 1.654c-.34.456-.652.822-.936 1.1a5.164 5.164 0 0 1-1.019.787c-.306.18-.623.341-.948.485l.38.903c.127-.046.375-.158.746-.335.371-.178.778-.46 1.22-.845a6.27 6.27 0 0 0 1.03-1.134c.336-.477.641-.976.913-1.493.326-.618.622-1.251.888-1.897.323-.779.635-1.562.937-2.349l3.292-8.146H45.81zM26.247 2.493c-.442-.417-1.006-.737-1.694-.96-.687-.224-1.504-.336-2.451-.336-.61-.003-1.219.028-1.825.092-.507.056-1.013.125-1.516.209v15.411h1.114v-6.664c.504.108 1.128.161 1.87.161.822 0 1.58-.1 2.275-.3a5.076 5.076 0 0 0 1.8-.914 4.38 4.38 0 0 0 1.197-1.516c.292-.602.437-1.304.437-2.106 0-.663-.105-1.25-.318-1.759a3.951 3.951 0 0 0-.89-1.318zm-1.102 6.016c-.782.648-1.883.972-3.305.972-.378 0-.733-.015-1.065-.046a4.933 4.933 0 0 1-.9-.162h-.001V2.307c.22-.046.513-.089.876-.127.364-.039.798-.058 1.303-.058a6.39 6.39 0 0 1 1.73.22c.522.146.972.362 1.35.648.38.286.682.664.877 1.099.205.447.308.972.308 1.574 0 1.25-.392 2.198-1.173 2.846z"/>
    </g>
    <defs>
        <clipPath id="a">
            <path fill="#fff" d="M0 0h46.995v22H0z"/>
        </clipPath>
    </defs>
</svg>
