<svg xmlns="http://www.w3.org/2000/svg" width="29" height="22" fill="none" viewBox="0 0 29 22">
    <g clip-path="url(#a)">
        <path fill="#fff" fill-opacity=".2" d="M5.137 21.879v-1.457c0-.55-.349-.918-.91-.923-.296-.005-.602.087-.815.413-.16-.258-.412-.413-.766-.413-.247 0-.49.073-.678.345v-.287h-.504v2.322h.509v-1.287c0-.403.222-.617.567-.617.334 0 .504.218.504.612v1.292h.509v-1.287c0-.403.232-.617.567-.617.344 0 .508.218.508.612v1.292h.51zm7.53-2.322h-.825v-.704h-.508v.704h-.47v.462h.47v1.058c0 .54.208.86.804.86.218 0 .47-.068.63-.18l-.145-.432a.928.928 0 0 1-.446.131c-.252 0-.335-.155-.335-.389v-1.049h.824v-.46zm4.298-.058c-.29 0-.48.136-.61.34v-.282h-.5v2.322h.505v-1.302c0-.384.164-.597.494-.597a.82.82 0 0 1 .315.058l.155-.476a1.076 1.076 0 0 0-.359-.063zm-6.499.243c-.242-.16-.577-.243-.945-.243-.586 0-.964.282-.964.743 0 .379.28.612.8.685l.237.034c.276.039.407.111.407.242 0 .18-.184.282-.528.282-.35 0-.601-.111-.771-.243l-.238.394c.277.204.626.3 1.004.3.669 0 1.056-.315 1.056-.757 0-.408-.305-.621-.81-.694l-.237-.034c-.218-.03-.392-.073-.392-.229 0-.17.165-.271.44-.271.297 0 .582.111.723.199l.218-.408zm13.5-.243c-.29 0-.48.136-.61.34v-.282h-.5v2.322h.504v-1.302c0-.384.165-.597.495-.597a.82.82 0 0 1 .315.058l.155-.476a1.075 1.075 0 0 0-.359-.063zm-6.492 1.219c0 .704.49 1.219 1.236 1.219.35 0 .582-.078.834-.277l-.243-.408a1.017 1.017 0 0 1-.605.209c-.403-.005-.698-.296-.698-.743s.295-.738.698-.743c.218 0 .416.073.605.209l.243-.408c-.252-.2-.485-.277-.834-.277-.746 0-1.236.515-1.236 1.219zm4.72 0v-1.16h-.503v.28c-.16-.208-.402-.34-.732-.34-.65 0-1.158.51-1.158 1.22 0 .709.509 1.219 1.158 1.219.33 0 .572-.131.732-.34v.282h.504v-1.161zm-1.875 0c0-.408.267-.743.703-.743.417 0 .698.32.698.743 0 .422-.281.743-.698.743-.436 0-.703-.335-.703-.743zm-6.082-1.22c-.679 0-1.154.496-1.154 1.22 0 .738.495 1.219 1.188 1.219.349 0 .668-.088.95-.326l-.248-.373a1.102 1.102 0 0 1-.673.242c-.325 0-.62-.15-.693-.568h1.72c.005-.063.01-.126.01-.194-.005-.724-.45-1.22-1.1-1.22zm-.01.453c.325 0 .533.203.586.563h-1.202c.054-.335.257-.563.616-.563zm12.642.767v-2.093h-.504v1.214c-.16-.209-.402-.34-.732-.34-.649 0-1.158.51-1.158 1.219 0 .709.509 1.219 1.158 1.219.33 0 .572-.131.732-.34v.282h.504v-1.161zm-1.875 0c0-.408.266-.743.702-.743.417 0 .698.32.698.743 0 .422-.28.743-.698.743-.436 0-.702-.335-.702-.743zm-17.019 0v-1.16h-.504v.28c-.16-.208-.402-.34-.732-.34-.65 0-1.158.51-1.158 1.22 0 .709.509 1.219 1.158 1.219.33 0 .572-.131.732-.34v.282h.504v-1.161zm-1.876 0c0-.408.267-.743.703-.743.417 0 .698.32.698.743 0 .422-.281.743-.698.743-.436 0-.703-.335-.703-.743zm21.611.823a.237.237 0 0 1 .167.066.246.246 0 0 1 .051.073.22.22 0 0 1-.05.252.223.223 0 0 1-.076.049.232.232 0 0 1-.184 0 .269.269 0 0 1-.075-.049.221.221 0 0 1 0-.325.223.223 0 0 1 .075-.049.279.279 0 0 1 .092-.017zm0 .41a.174.174 0 0 0 .126-.053.19.19 0 0 0 .054-.129.19.19 0 0 0-.11-.168.173.173 0 0 0-.14 0 .188.188 0 0 0-.058.04.188.188 0 0 0-.054.128.188.188 0 0 0 .053.129.189.189 0 0 0 .13.053zm.015-.286c.026 0 .048.007.063.02.014.012.021.029.021.05a.059.059 0 0 1-.017.044.082.082 0 0 1-.05.022l.07.08h-.056l-.065-.08h-.022v.08h-.046v-.214h.102v-.002zm-.054.039v.058h.054a.051.051 0 0 0 .029-.007c.007-.005.01-.012.01-.022 0-.01-.003-.017-.01-.022a.052.052 0 0 0-.03-.007h-.053zm-.273-7.547v-.282h.113v-.058h-.288v.058h.114v.282h.06zm.56 0v-.34h-.088l-.102.233-.102-.233h-.087v.34h.063v-.255l.095.22h.065l.095-.22v.257h.06v-.002zm-14.615 1.69c.067.058.14.116.21.175a8.674 8.674 0 0 1-4.83 1.461C3.907 17.483 0 13.57 0 8.742 0 3.914 3.906 0 8.724 0c1.786 0 3.446.54 4.83 1.462-.07.058-.144.114-.212.175a9.43 9.43 0 0 0-3.235 7.105 9.438 9.438 0 0 0 3.236 7.105zM19.506 0c-1.786 0-3.446.54-4.83 1.462.071.058.144.114.212.175a9.424 9.424 0 0 1 .002 14.21c-.068.058-.14.116-.21.175a8.674 8.674 0 0 0 4.829 1.461c4.817 0 8.724-3.914 8.724-8.741C28.23 3.912 24.324 0 19.507 0zm-5.391 1.872a8.724 8.724 0 0 0-3.332 6.87 8.724 8.724 0 0 0 3.002 6.595c.107.095.218.184.33.274.111-.09.223-.18.33-.274a8.724 8.724 0 0 0 3.002-6.595 8.724 8.724 0 0 0-3.332-6.87z"/>
    </g>
    <defs>
        <clipPath id="a">
            <path fill="#fff" d="M0 0h28.234v22H0z"/>
        </clipPath>
    </defs>
</svg>
