<svg xmlns="http://www.w3.org/2000/svg" width="26" height="22" fill="none" viewBox="0 0 26 22">
    <g fill="#fff" fill-opacity=".2" clip-path="url(#a)">
        <path d="M6.848 12.383H2.805v6.714h4.043v-6.714zM7.154 9.027a2.289 2.289 0 1 1-4.578 0 2.289 2.289 0 0 1 4.578 0z"/>
        <path d="M14.506 0H0v22h14.506v-.004c3.169-.043 5.68-.83 7.46-2.346 2.167-1.843 3.266-4.753 3.266-8.65 0-1.862-.29-3.533-.86-4.965-.544-1.37-1.35-2.535-2.393-3.463C20.14.938 17.56.055 14.506.005V0zm-.274 1.461c2.811 0 5.155.762 6.776 2.203C22.841 5.294 23.77 7.761 23.77 11c0 6.419-3.12 9.539-9.538 9.539H1.46V1.46h12.771z"/>
        <path d="M17.53 9.535l-.375-1.008-.367 1.008h.742zM9.608 10.368a.612.612 0 0 0 .268-.135c.068-.061.126-.169.172-.32.049-.16.074-.385.074-.668 0-.281-.025-.498-.073-.645a.773.773 0 0 0-.192-.326.638.638 0 0 0-.309-.153c-.069-.016-.23-.034-.611-.034h-.233V10.4h.463c.205 0 .354-.011.441-.033z"/>
        <path d="M19.639 11.257V7.262h.979V10.4h1.812c-.37-5.616-4.713-7.161-8.804-7.161H8.704v3.991h.524c.331 0 .578.025.756.077.24.071.45.199.622.38.169.179.3.4.387.657.087.254.13.568.13.936 0 .324-.04.609-.122.846a1.79 1.79 0 0 1-.435.715c-.144.141-.34.252-.582.33-.18.056-.42.085-.714.085h-.566v7.848h4.922c4.263 0 8.8-1.28 8.829-7.848h-2.816zm-4.746 0h-3.107V7.23h3.034v.855h-2.056v.637h1.913v.856h-1.913v.822h2.13v.856zm3.296 0l-.333-.867h-1.38l-.316.867h-1.043L16.68 7.23h.962l1.61 4.026H18.19z"/>
    </g>
    <defs>
        <clipPath id="a">
            <path fill="#fff" d="M0 0h25.232v22H0z"/>
        </clipPath>
    </defs>
</svg>
