<svg xmlns="http://www.w3.org/2000/svg" width="53" height="16" fill="none" viewBox="0 0 53 16">
    <g fill="#fff" fill-opacity=".2" clip-path="url(#a)">
        <path d="M18.378 15.766L21.02.27h4.224l-2.642 15.496h-4.224zM37.92.65C37.081.335 35.772 0 34.133 0c-4.173 0-7.112 2.102-7.139 5.115-.024 2.226 2.099 3.47 3.702 4.209 1.644.76 2.197 1.244 2.188 1.924-.012 1.039-1.312 1.513-2.526 1.513-1.693 0-2.589-.234-3.975-.813l-.544-.246-.593 3.47c.985.433 2.811.807 4.705.828 4.44 0 7.323-2.078 7.356-5.293.014-1.763-1.11-3.105-3.548-4.209-1.475-.715-2.38-1.196-2.371-1.92 0-.645.765-1.333 2.419-1.333a7.8 7.8 0 0 1 3.161.593l.38.178.57-3.366zM48.751.285h-3.265c-1.012 0-1.77.276-2.212 1.285l-6.272 14.201h4.435s.724-1.908.89-2.327l5.409.006c.128.543.514 2.321.514 2.321h3.918L48.75.285zm-5.207 9.986c.35-.894 1.684-4.331 1.684-4.331-.024.041.347-.897.56-1.478l.286 1.335.976 4.474h-3.506zM14.836.282L10.701 10.85l-.44-2.146c-.768-2.476-3.167-5.16-5.85-6.501l3.782 13.55 4.467-.005L19.31.282h-4.474z"/>
        <path d="M6.866.27H.053L0 .594C5.299 1.876 8.804 4.975 10.259 8.7L8.781 1.579C8.522.597 7.783.306 6.866.27z"/>
    </g>
    <defs>
        <clipPath id="a">
            <path fill="#fff" d="M0 0h52.168v16H0z"/>
        </clipPath>
    </defs>
</svg>
