<svg xmlns="http://www.w3.org/2000/svg" width="61" height="22" fill="none" viewBox="0 0 61 22">
    <g fill="#fff" fill-opacity=".2" clip-path="url(#a)">
        <path d="M5.412 5.412L4.258 2.597l-1.15 2.815h2.304zm25.438-1.12c-.232.14-.507.145-.835.145h-2.05V2.87h2.078c.294 0 .6.013.8.127.22.103.354.322.354.624 0 .309-.13.556-.347.67zm14.62 1.12l-1.167-2.815-1.16 2.815h2.326zM18.214 8.458h-1.729L16.48 2.93l-2.446 5.53h-1.482L10.1 2.924v5.533H6.668L6.02 6.883H2.508l-.656 1.575H.02l3.021-7.06h2.506l2.87 6.683V1.4h2.752l2.208 4.788 2.029-4.788h2.808l.002 7.06zm6.893 0h-5.635v-7.06h5.635v1.47H21.16V4.14h3.854v1.447h-3.854v1.41h3.95v1.46zM33.056 3.3c0 1.126-.752 1.707-1.188 1.882.368.14.685.39.834.594.239.351.279.664.279 1.294v1.386H31.28l-.006-.89c0-.426.04-1.035-.267-1.375-.246-.25-.621-.302-1.23-.302h-1.812v2.567H26.28V1.399h3.881c.862 0 1.497.023 2.044.338.53.315.852.775.852 1.563zm2.699 5.158h-1.722v-7.06h1.722v7.06zm19.971 0h-2.39l-3.198-5.297v5.297h-3.436l-.656-1.575h-3.504l-.637 1.575h-1.973c-.82 0-1.859-.18-2.446-.781-.594-.6-.9-1.412-.9-2.695 0-1.048.184-2.004.908-2.76.545-.564 1.399-.823 2.561-.823h1.633V2.91H40.09c-.615 0-.962.092-1.298.417-.288.299-.486.858-.486 1.6 0 .755.152 1.3.465 1.658.26.279.732.364 1.175.364h.758l2.378-5.55h2.527l2.857 6.676V1.399h2.57L54 6.314V1.4h1.728v7.06h-.002zM0 9.844h2.883l.649-1.567h1.454l.65 1.567h5.67V8.645l.507 1.203h2.945l.506-1.222v1.216H29.36l-.007-2.574h.273c.191.006.247.024.247.34v2.234h7.29v-.598c.587.315 1.502.598 2.705.598h3.068l.656-1.567h1.453l.643 1.567h5.91v-1.49l.894 1.49h4.737V0h-4.688v1.162L51.886 0h-4.81v1.162L46.475 0h-6.495c-1.088 0-2.044.151-2.815.575V0H32.68v.575C32.187.138 31.519 0 30.773 0H14.396l-1.099 2.542L12.17 0h-5.16v1.162L6.441 0H2.044L0 4.68v5.164zM60.025 15.051h-3.076c-.307 0-.511.01-.684.128-.179.115-.247.283-.247.509 0 .266.151.447.368.526.18.061.369.08.65.08l.913.026c.922.023 1.54.181 1.914.569.068.053.108.114.157.174l.005-2.012zm0 4.654c-.409.598-1.21.903-2.289.903H54.48v-1.514h3.244c.322 0 .547-.043.684-.175a.622.622 0 0 0 .2-.46.58.58 0 0 0-.207-.466c-.121-.108-.3-.157-.594-.157-1.584-.053-3.56.049-3.56-2.184 0-1.024.65-2.102 2.421-2.102h3.362v-1.405h-3.123c-.943 0-1.627.226-2.112.577v-.577h-4.618c-.738 0-1.605.183-2.016.577v-.577h-8.247v.577c-.656-.472-1.765-.577-2.276-.577h-5.44v.577c-.519-.502-1.673-.577-2.377-.577H23.73l-1.392 1.508-1.305-1.508h-9.097v9.85h8.922l1.435-1.53 1.352 1.53 5.501.005v-2.318h.54c.731.01 1.591-.02 2.351-.347v2.659h4.537v-2.568h.22c.278 0 .306.01.306.292v2.276h13.782c.875 0 1.79-.224 2.297-.63v.63h4.37c.91 0 1.8-.128 2.475-.454v-1.835zm-6.732-2.82c.328.34.505.768.505 1.496 0 1.518-.95 2.227-2.65 2.227h-3.286v-1.514h3.272c.32 0 .548-.043.69-.175a.63.63 0 0 0 .2-.46.599.599 0 0 0-.206-.466c-.13-.108-.307-.157-.6-.157-1.578-.053-3.554.049-3.554-2.184 0-1.024.643-2.102 2.412-2.102h3.383v1.503h-3.095c-.307 0-.507.011-.677.128-.185.115-.254.283-.254.509 0 .266.158.447.369.526.179.061.368.08.655.08l.91.026c.917.017 1.545.175 1.926.562zm-15.221-.437c-.226.134-.505.145-.833.145h-2.05v-1.584h2.078c.3 0 .6.006.804.127.22.115.35.333.35.635s-.132.545-.35.677zm1.017.879c.375.138.684.387.826.592.239.345.273.666.279 1.288v1.398h-1.695v-.883c0-.424.04-1.054-.272-1.382-.247-.253-.622-.313-1.237-.313h-1.803v2.58h-1.695v-7.059h3.896c.854 0 1.475.038 2.031.335.532.32.867.762.867 1.566 0 1.127-.752 1.701-1.197 1.878zm2.131-3.779h5.631v1.46H42.9v1.284h3.853v1.442H42.9v1.405l3.951.006v1.465h-5.63v-7.062zM29.84 16.805h-2.18V15.01h2.2c.608 0 1.032.249 1.032.866 0 .609-.405.93-1.052.93zm-3.862 3.16l-2.59-2.876 2.59-2.785v5.66zm-6.689-.828h-4.147v-1.405h3.704V16.29h-3.704V15.01h4.23l1.846 2.056-1.929 2.072zM32.7 15.873c0 1.96-1.462 2.365-2.938 2.365h-2.105v2.37h-3.279L22.3 18.27l-2.158 2.338h-6.683v-7.06h6.787l2.076 2.314 2.146-2.314h5.39c1.34 0 2.842.37 2.842 2.325z"/>
    </g>
    <defs>
        <clipPath id="a">
            <path fill="#fff" d="M0 0h60.029v22H0z"/>
        </clipPath>
    </defs>
</svg>
