<svg xmlns="http://www.w3.org/2000/svg"  width="26" height="26" fill="none" viewBox="0 0 26 26">
<path stroke="#fff" stroke-width="1.5" d="M18.6,25H7.4C3.9,25,1,22.1,1,18.6V7.4C1,3.9,3.9,1,7.4,1h11.2C22.1,1,25,3.9,25,7.4v11.2
	C25,22.1,22.1,25,18.6,25z"/>
<path fill="#fff" fill-rule="evenodd" d="M19.7,6.2L4.6,12c-1,0.4-1,1-0.3,1.3l3.7,1.2l1.4,4.4c0.2,0.5,0.1,0.7,0.6,0.7
	c0.4,0,0.6-0.2,0.8-0.4c0.2-0.2,0.9-0.9,1.9-1.8l3.9,2.9c0.7,0.4,1.3,0.2,1.4-0.7l2.6-12.1C21.1,6.4,20.4,5.9,19.7,6.2z M8.8,14.2
	l8.5-5.4c0.4-0.3,0.9-0.1,0.5,0.2l-7.3,6.6l-0.3,3L8.8,14.2z"/>
</svg>
