<svg xmlns="http://www.w3.org/2000/svg" width="43" height="24" fill="none" viewBox="0 0 43 24">
    <g stroke="#fff" stroke-linecap="round" stroke-linejoin="round" stroke-miterlimit="10" clip-path="url(#a)">
        <path d="M40.47 19.92h.906c.4 0 .72-.316.72-.71v-6.147c0-.25-.082-.494-.231-.697l-4.14-6.153a1.205 1.205 0 0 0-.971-.483h-7.19M8.274 15.583v3.58c0 .375.31.673.691.673h1.162M29.075 7.512V1.305a.713.713 0 0 0-.72-.71H8.958c-.399 0-.72.316-.72.71V4.11M29.075 12.283v-2.109M21.611 19.92h7.464v-5.248M34.639 23.41a3.31 3.31 0 0 0 3.318-3.3c0-1.822-1.486-3.3-3.318-3.3a3.309 3.309 0 0 0-3.318 3.3c0 1.823 1.485 3.3 3.318 3.3zM15.887 23.315c1.859 0 3.366-1.456 3.366-3.253 0-1.796-1.507-3.252-3.366-3.252-1.859 0-3.366 1.456-3.366 3.253 0 1.796 1.507 3.252 3.366 3.252zM41.603 12.873h-3.819M2.145 4.11h2.478M8.238 7.827H.596M8.238 11.55H5.301"/>
    </g>
    <defs>
        <clipPath id="a">
            <path fill="#fff" d="M0 0h42.687v24H0z"/>
        </clipPath>
    </defs>
</svg>
