<svg xmlns="http://www.w3.org/2000/svg" width="26" height="26" fill="none" viewBox="0 0 26 26">
    <path stroke="#fff" stroke-width="1.5" d="M18.706 25.226H7.294a6.523 6.523 0 0 1-6.52-6.522V7.296A6.523 6.523 0 0 1 7.294.774h11.412a6.523 6.523 0 0 1 6.52 6.522v11.408a6.523 6.523 0 0 1-6.52 6.522z" clip-rule="evenodd"/>
    <path fill="#fff" fill-rule="evenodd" d="M20.134 3.83h-2.077C15.055 3.83 13 5.645 13 8.72v2.446h-2.243c-.434 0-.814.583-.814.815v2.645c0 .232.581.82.814.82H13v9.373c0 .407.685.713.917.713h2.017c.233 0 .734-.482.734-.713v-9.374h3.466c.53-.04.813-.588.813-.819v-2.645c0-.611-.283-.815-.813-.815h-3.466v-1.63c0-.951.39-1.63 1.632-1.63h1.834c.49 0 .813-.286.813-.815V4.645c0-.231-.283-.815-.813-.815z" clip-rule="evenodd"/>
</svg>
