<svg width="80" height="24" viewBox="0 0 80 24" fill="none" xmlns="http://www.w3.org/2000/svg">
<path fill-rule="evenodd" clip-rule="evenodd" d="M73.7274 20.6184C74.9474 20.5184 76.3174 20.4284 77.4074 20.2583C78.2674 20.1282 78.9374 19.9181 79.2174 19.658C80.1074 18.8376 80.0074 16.2764 79.9874 14.9658C79.9874 14.6457 79.1674 14.6457 79.1574 14.3155C79.0374 12.2946 78.9874 11.5843 78.7674 9.51333C78.6774 8.65293 77.9574 7.95261 76.8274 7.59244C73.5574 6.57197 65.7274 5.63154 62.0174 5.47146L60.8374 5.43144L59.6874 5.18133C58.9174 5.30138 58.9874 5.16132 58.8174 5.97169C58.6674 6.67201 58.3074 7.54242 57.3774 7.59244C54.1674 7.74251 50.9474 7.77252 47.8774 7.88257C47.5574 7.89258 47.1474 7.70249 47.1574 7.33232L47.1774 5.93167C47.1774 5.7616 47.0674 5.64154 46.9074 5.63154L45.8374 5.53149C45.6774 5.51148 45.5474 5.67155 45.5174 5.83163L45.2974 7.04219C45.1474 7.87257 44.9974 8.10268 44.1674 8.14269L30.8674 8.70295C30.7074 8.71296 31.1174 7.96261 31.1474 7.34232C31.2074 6.30184 28.2574 6.11176 27.0674 6.19179C28.7274 4.86118 32.4974 2.81024 35.8074 1.2095C36.1874 1.01941 36.4174 1.00941 36.1674 0.619225L35.9174 0.229046C35.7374 -0.0610881 35.4974 -0.0410789 35.1974 0.0989856C30.3774 2.36003 27.0374 3.94076 22.4074 6.66201C16.8774 7.24228 10.7274 8.36279 5.12743 9.75344C3.31743 10.2036 2.43743 9.99355 1.87743 11.074C1.27743 12.2446 0.987429 13.3451 0.707429 14.0054C0.267429 14.0454 0.247429 14.1755 0.107429 14.4356C-0.0225709 14.6757 -0.00257088 15.6361 0.00742912 16.0063C0.0174291 16.5566 0.0574291 17.397 0.107429 17.9372C0.207429 19.0677 0.397429 19.698 0.967429 20.1282C1.29743 20.3683 1.82743 20.5284 2.28743 20.5384L4.04743 20.5984C5.19743 20.4384 5.40743 20.5584 5.28743 19.0577C5.25743 18.7176 5.24743 18.3674 5.24743 18.0072C5.24743 13.6852 8.75743 10.1836 13.0874 10.1836C17.4174 10.1836 20.9274 13.6852 20.9274 18.0072C20.9274 18.6175 20.8974 19.2078 20.8074 19.7781C20.4974 21.859 20.8074 21.5089 22.4274 21.5089H55.5174C56.5974 21.2888 56.9874 21.2888 56.8074 19.7781C56.7374 19.2078 56.7174 18.6175 56.7174 18.0072C56.7174 13.6852 60.2274 10.1836 64.5574 10.1836C68.8874 10.1836 72.3974 13.6852 72.3974 18.0072C72.3974 18.2974 72.4074 18.5875 72.4074 18.8776C72.4374 20.3483 72.5074 20.7185 73.7274 20.6184ZM64.5774 11.9745C67.9074 11.9745 70.6074 14.6657 70.6074 17.9872C70.6074 21.3088 67.9074 24 64.5774 24C61.2474 24 58.5474 21.3088 58.5474 17.9872C58.5374 14.6657 61.2374 11.9745 64.5774 11.9745ZM13.0874 11.9745C16.4174 11.9745 19.1174 14.6657 19.1174 17.9872C19.1174 21.3088 16.4174 24 13.0874 24C9.75743 24 7.05743 21.3088 7.05743 17.9872C7.04743 14.6657 9.74743 11.9745 13.0874 11.9745Z" fill="#8C9091"/>
</svg>
