<svg width="80" height="27" viewBox="0 0 80 27" fill="none" xmlns="http://www.w3.org/2000/svg">
<path fill-rule="evenodd" clip-rule="evenodd" d="M74.1 23.5836C75.22 23.4937 76.43 23.4037 77.41 23.2537C78.27 23.1238 78.94 22.9138 79.22 22.6639C80.11 21.8441 80 19.2948 79.99 17.9852C79.99 17.6653 79.17 17.6653 79.16 17.3354C79.04 15.316 78.9 13.5765 78.68 11.507C78.59 10.6473 77.87 9.94748 76.74 9.59758C73.31 8.53787 68.26 7.85806 66.63 7.3782C65.43 7.0283 64.89 6.61841 64.29 6.24852C61.97 4.82892 59.1 3.25936 57.48 2.54956C55.98 1.88974 54.79 1.02999 52.75 1.02999C47.34 1.02999 41.13 0.66009 36.1 2.24964C31.28 3.76922 26.89 6.51844 22.32 8.66784C16.79 9.24767 10.65 10.3674 5.03999 11.747C3.22999 12.1968 2.43999 13.0266 1.87999 14.0963C1.26999 15.266 0.989993 16.3557 0.709993 17.0255C0.269993 17.0655 0.249993 17.1954 0.109993 17.4554C-0.0200074 17.6953 -7.39936e-06 18.655 0.0099926 19.0249C0.0199926 19.5748 0.0599926 20.4045 0.109993 20.9444C0.209993 22.0641 0.399993 22.6939 0.969993 23.1238C1.29999 23.3637 1.82999 23.5536 2.28999 23.5736L3.82999 23.6236C5.53999 23.4037 5.38999 23.7036 5.26999 21.8241C5.24999 21.5442 5.24999 21.2743 5.24999 21.0044C5.24999 16.7056 8.75999 13.2166 13.09 13.2166C17.42 13.2166 20.93 16.7056 20.93 21.0044C20.93 21.7342 20.88 22.434 20.75 23.1038C20.43 24.7933 20.25 24.4434 21.99 24.5634L55.48 24.5234C57.16 24.3134 57 24.5934 56.8 22.6439C56.74 22.114 56.73 21.5642 56.73 20.9944C56.73 16.6956 60.24 13.2066 64.57 13.2066C68.9 13.2066 72.41 16.6956 72.41 20.9944C72.41 21.3943 72.42 21.7941 72.42 22.174C72.42 23.8436 72.68 23.7036 74.1 23.5836ZM48.74 9.09772C49.16 5.66868 49.35 4.39904 49.52 3.43931C49.59 3.01943 49.67 2.79949 50.19 2.78949L51.38 2.7595C52.24 2.7395 56.4 5.47873 58.06 7.18825C59.02 8.17797 59.41 9.57758 57.29 9.66755L49.84 10.0075C48.65 10.0674 48.61 10.1674 48.74 9.09772ZM30.78 10.7073C30.62 10.7173 31.03 9.96747 31.06 9.35764C31.12 8.31793 29.21 8.23796 28.02 8.31793C30.32 6.61841 33.73 4.80892 36.79 3.75922C37.87 3.39932 40.78 2.95944 42.8 2.89946L47.04 2.7595C47.51 2.7495 47.49 2.94945 47.43 3.33934C47.22 4.73894 46.82 7.27823 46.5 9.02773C46.34 9.88749 46.16 10.0674 45.27 10.1074L30.78 10.7073ZM64.58 15.0061C67.91 15.0061 70.61 17.6853 70.61 21.0044C70.61 24.3134 67.91 26.9927 64.58 26.9927C61.25 26.9927 58.55 24.3134 58.55 21.0044C58.54 17.6853 61.24 15.0061 64.58 15.0061ZM13.09 15.0061C16.42 15.0061 19.12 17.6853 19.12 21.0044C19.12 24.3134 16.42 26.9927 13.09 26.9927C9.75999 26.9927 7.05999 24.3134 7.05999 21.0044C7.04999 17.6853 9.74999 15.0061 13.09 15.0061Z" fill="#8C9091"/>
</svg>
