<svg width="80" height="30" viewBox="0 0 80 30" fill="none" xmlns="http://www.w3.org/2000/svg">
<path fill-rule="evenodd" clip-rule="evenodd" d="M79.5786 23.3554C79.9785 22.0454 80.0085 19.4554 79.9985 17.9054C79.9985 17.2354 79.8585 16.7954 79.2086 16.6554C78.8186 16.5754 78.4187 16.4854 78.4087 16.3154C78.2887 14.2554 78.1487 12.7354 77.9287 10.6154C77.7988 9.30542 75.539 8.14542 74.1791 6.90542C72.9693 5.79542 70.4796 3.91542 69.4197 3.03542C68.5298 2.29542 69.8596 1.46542 69.0297 1.11542C67.7098 0.505422 65.2301 0.255422 62.5604 0.165422C56.0211 -0.0445777 47.1421 -0.124578 40.7528 0.355422C38.483 0.525422 36.2133 0.835422 34.4735 1.39542C29.654 2.95542 25.5344 6.78542 20.9649 8.98542C15.4355 9.58542 9.87613 10.0954 4.27674 11.5054C2.46694 11.9654 2.06698 12.6854 1.51704 13.7754C0.907106 14.9654 1.14708 16.0854 0.86711 16.7654C0.427158 16.8054 0.40716 16.6854 0.267175 16.9554C0.117192 17.2354 0.197183 17.6054 0.167186 18.0554C0.0172026 20.1354 -0.432749 23.2254 1.26707 24.5154C1.34706 24.5754 1.43705 24.6054 1.53704 24.6554H4.11676C5.39662 24.6554 5.31663 24.4054 5.45661 23.0354C5.86657 19.0254 9.19621 15.8954 13.2458 15.8954C17.1653 15.9154 20.415 18.9554 20.9949 22.6854C21.2549 24.3854 20.8549 24.6954 22.5648 24.6954H56.1111C57.311 24.6954 57.231 24.5754 57.311 23.3554C57.5709 19.1954 60.9706 15.8954 65.1301 15.8954C69.2497 15.8954 72.5693 19.1354 72.9393 23.2254C73.0693 24.6754 72.9193 24.6854 74.2591 24.6854H77.5188C78.5287 24.6854 79.2486 24.4554 79.5786 23.3554ZM65.1301 17.7454C68.4598 17.7454 71.1595 20.4854 71.1595 23.8754C71.1595 27.2654 68.4598 29.9954 65.1301 29.9954C61.8005 29.9954 59.1008 27.2554 59.1008 23.8654C59.1008 20.4754 61.8005 17.7454 65.1301 17.7454ZM13.2458 17.7454C16.5754 17.7454 19.2751 20.4854 19.2751 23.8754C19.2751 27.2654 16.5754 29.9954 13.2458 29.9954C9.91613 29.9954 7.21642 27.2554 7.21642 23.8654C7.21642 20.4754 9.91613 17.7454 13.2458 17.7454ZM29.434 10.3054C29.474 10.1454 29.684 9.54542 29.714 8.92542C29.774 7.86542 27.8642 7.78542 26.6843 7.86542C28.9841 6.12542 32.1337 4.01542 35.1834 2.93542C36.2533 2.56542 39.4329 2.36542 41.4527 2.32542C42.3226 2.30542 43.1825 2.28542 44.0524 2.26542C44.5224 2.25542 44.5824 2.48542 44.4424 2.85542C43.9824 4.11542 43.7924 6.83542 43.5125 8.66542C43.3825 9.54542 43.1725 9.75542 42.2826 9.76542C38.783 9.78542 29.384 10.4754 29.434 10.3054ZM57.481 9.21542C57.431 7.24542 57.051 5.33542 56.4811 3.45542C53.1914 1.99542 50.7317 2.29542 47.2821 2.25542C47.0221 2.25542 46.7021 2.40542 46.6421 2.56542C46.2722 3.54542 46.1822 4.87542 45.7022 8.88542C45.5723 9.98542 45.6423 9.68542 46.8421 9.67542C49.7918 9.63542 54.1313 9.40542 57.481 9.21542ZM58.0309 3.82542C58.5908 5.55542 58.9208 7.34542 59.1208 9.16542C60.3007 9.10542 59.9507 9.04542 61.0106 9.01542C62.5504 8.96542 62.5004 8.33542 61.5305 6.98542C61.1906 6.52542 59.7707 4.65542 58.0309 3.82542ZM65.7001 3.09542C66.37 3.13542 67.0399 3.18542 67.7098 3.22542C69.6896 4.87542 71.6694 6.33542 73.6492 7.93542C74.6991 8.78542 73.6792 8.69542 72.8493 8.54542C69.7396 7.96542 67.6099 5.51542 65.7001 3.09542Z" fill="#8C9091"/>
</svg>
