<svg width="80" height="24" viewBox="0 0 80 24" fill="none" xmlns="http://www.w3.org/2000/svg">
<path d="M19.41 17.3333C19.41 18.5933 19.01 19.7433 18.34 20.6833C18.18 20.9133 18 21.1333 17.8 21.3333C16.79 22.3633 15.41 23.0033 13.88 23.0033C12.5 23.0033 11.23 22.4833 10.27 21.6133C10.01 21.3933 9.78 21.1433 9.58 20.8833C8.82 19.9133 8.36 18.6833 8.36 17.3333C8.36 14.2033 10.83 11.6633 13.88 11.6633C16.93 11.6633 19.4 14.2033 19.41 17.3333ZM62.86 11.6633C59.81 11.6633 57.34 14.2033 57.34 17.3333C57.34 18.3333 57.59 19.2633 58.03 20.0833C58.31 20.6033 58.66 21.0633 59.08 21.4633C60.07 22.4233 61.4 23.0033 62.86 23.0033C64.74 23.0033 66.4 22.0433 67.4 20.5733C67.62 20.2533 67.8 19.9033 67.95 19.5433C68.23 18.8633 68.38 18.1233 68.38 17.3333C68.38 14.2033 65.91 11.6633 62.86 11.6633ZM79.29 14.9633L79.83 16.4833L78.91 17.8933L69.67 19.4033C69.69 16.9133 69.1 10.2333 62.21 10.6333C57.57 10.8933 55.53 15.4833 56.33 20.1633L20.73 20.6333C20.88 18.3533 20.88 10.1233 13.22 10.6333C8.34 10.9633 6.33 16.0033 7.5 20.9333L5.7 20.9733L2.27 20.7633L0 20.0533L0.29 19.5433L0.33 19.4833V16.7533V15.3833L0.32 15.2133L0.23 12.7033C0.23 12.7033 0.23 12.6833 0.23 12.6533C0.23 12.5033 0.27 12.0333 0.86 11.5933C1.56 11.0633 7.75 7.56327 23.73 6.69327C23.73 6.69327 35.73 1.59327 38.33 0.943273C40.94 0.293273 49.09 -1.00673 59.95 1.37327C64.25 2.32327 76.13 5.67327 76.13 5.67327H77.47C77.47 5.67327 77.29 6.56327 77.9 7.31327L77.93 7.37327L78.93 9.58327L79.29 10.3733L80 11.5633L79.29 14.9633ZM28.51 6.19327C26.9 6.85327 25.78 7.33327 25.78 7.33327L27.97 7.19327L28.47 6.76327L28.51 6.19327ZM51.54 5.68327L50.97 2.24327C45.21 1.47327 40.91 2.11327 39.03 2.43327C37.43 2.70327 33.5 4.19327 30.33 5.46327C30.56 5.44327 30.84 5.56327 30.87 5.77327C30.9 5.98327 30.91 6.53327 30.91 6.53327C30.91 6.53327 30.53 6.87327 30.14 7.05327L51.54 5.68327ZM58.46 5.24327C58.46 5.09327 57.97 3.77327 57.28 3.57327C55.15 2.95327 53.14 2.54327 51.27 2.28327L51.94 5.65327L58.46 5.24327Z" fill="#8C9091"/>
</svg>
