<svg width="80" height="26" viewBox="0 0 80 26" fill="none" xmlns="http://www.w3.org/2000/svg">
<path d="M21.8032 8.01C21.8032 8.01 31.3732 2.72 34.6132 1.6L35.4832 1.26L28.1032 4.84L23.4732 7.32L21.8032 8.01ZM67.1232 14.32C63.8532 14.32 61.2032 16.93 61.2032 20.16C61.2032 23.38 63.8532 26 67.1232 26C70.3932 26 73.0432 23.39 73.0432 20.16C73.0331 16.93 70.3832 14.32 67.1232 14.32ZM14.3432 14.32C11.0732 14.32 8.42315 16.93 8.42315 20.16C8.42315 23.38 11.0732 26 14.3432 26C17.6132 26 20.2632 23.39 20.2632 20.16C20.2632 16.93 17.6132 14.32 14.3432 14.32ZM79.5832 19.14H79.3732C79.5532 18.73 79.2431 18.43 79.2431 18.43C79.9531 17.02 79.9032 16.09 79.9931 14.78C80.0831 13.46 78.5631 13.33 78.5631 13.33C78.5631 13.09 78.2332 11.72 78.1932 11.57C78.2032 11.18 78.0332 10.78 77.8032 10.22C77.4832 9.43 77.4832 8.68 77.2932 7.92C77.2232 7.63 77.0132 7.5 76.7831 7.45C76.2232 7.06 72.3531 6.71 71.4632 6.61C70.4632 6.5 67.6132 4.82 63.8531 3C60.0932 1.18 55.3432 0 46.2831 0C37.2231 0 34.7432 1.59 34.7432 1.59H35.8232C28.6632 4.87 24.6032 7.62 24.6032 7.62C24.2932 7.71 23.7032 7.72 23.1232 7.7C23.1632 7.44 23.6132 7.23 23.6932 7.14C23.7832 7.03 22.3232 7.23 21.9132 7.37C21.7432 7.43 21.5432 7.52 21.3632 7.6C10.6032 8.68 6.73315 9.8 6.73315 9.8C6.73315 9.8 4.34315 10.17 3.00315 11.31C1.93315 12.22 1.36315 13.81 1.21315 14.58C1.16315 14.58 1.13315 14.58 1.13315 14.58C0.143151 15.02 -0.0268493 15.8 0.00315067 16.32C0.0431507 16.84 0.433151 19.32 0.453151 19.66C0.473151 19.99 -0.0568493 19.96 0.113151 20.57C0.283151 21.18 1.76315 21.9 1.76315 21.9L4.20315 22.13C4.16315 21.94 5.31315 21.86 7.01315 21.86C6.90315 21.35 6.84315 20.82 6.84315 20.28C6.84315 16.17 10.2232 12.84 14.3832 12.84C18.5532 12.84 21.9232 16.17 21.9232 20.28C21.9232 21.07 21.7931 21.82 21.5632 22.54C28.0131 22.37 52.0331 22.31 56.4431 22.31C56.4431 22.31 57.7732 22.21 59.7332 22.07C59.5932 21.5 59.5032 20.91 59.5032 20.29C59.5032 16.18 62.8832 12.85 67.0432 12.85C71.2132 12.85 74.5832 16.18 74.5832 20.29C74.5832 20.53 74.5732 20.76 74.5432 20.99C75.5532 20.92 76.1931 20.88 76.2731 20.88C76.6631 20.89 76.9032 20.68 77.0132 20.54H79.1932C79.1932 20.54 79.8332 20.64 79.8932 19.88C79.9931 19.12 79.5832 19.14 79.5832 19.14ZM26.4532 8.84L26.0932 8.88H25.7932H25.0332C31.8132 3.54 36.6231 1.76 36.6231 1.76C38.5532 1.1 41.8232 0.86 44.0232 0.78C44.9032 0.72 45.7931 0.7 46.6731 0.73C54.2831 0.58 59.2432 3.33 59.2432 3.33C61.8332 4.64 62.8731 7.09 62.8932 7.43L26.4532 8.84Z" fill="#8C9091"/>
</svg>
