<svg width="81" height="29" viewBox="0 0 81 29" fill="none" xmlns="http://www.w3.org/2000/svg">
<path fill-rule="evenodd" clip-rule="evenodd" d="M77.3655 24.3038C78.2855 24.1438 79.0055 23.9438 79.3055 23.6638C80.2555 22.7738 79.9655 20.0038 79.9555 18.5838C79.9555 18.2338 79.0855 18.2338 79.0655 17.8738C78.9355 15.6838 78.0055 11.6638 77.7655 9.41376C77.6755 8.60376 77.3555 7.52376 75.9155 6.62376C74.2455 5.58376 69.4555 2.73376 67.6355 1.96376C66.4355 1.45376 66.7255 1.33376 65.4355 1.14376C59.0355 0.213762 45.0355 -0.876238 38.7655 1.13376C33.6055 2.78376 29.1155 5.18376 24.4555 8.10376C16.2155 9.53376 9.49547 10.7538 5.48547 11.8338C3.55547 12.3538 2.72547 13.2838 2.13547 14.4438C1.48547 15.7138 1.17547 16.4538 0.875472 17.1738C0.165472 17.2338 -0.0145285 17.8938 0.00547153 18.7938C0.0254715 20.2038 -0.104528 21.2038 0.285472 22.5938C0.575472 23.6238 1.48547 24.2138 2.56547 24.2538L4.57547 24.3238C5.54547 24.1338 5.84547 24.1938 5.76547 22.8738C5.73547 22.4238 5.72547 21.9638 5.72547 21.4838C5.72547 16.8138 9.48547 13.0238 14.1155 13.0238C18.7455 13.0238 22.5055 16.8138 22.5055 21.4838C22.5055 22.1338 22.5055 22.7738 22.4655 23.3838C22.3255 25.4638 21.6755 25.2538 23.6655 25.3538L57.3955 25.3138C58.8355 25.1338 59.2255 25.3138 59.0255 23.3338C58.9655 22.7338 58.9555 22.1138 58.9555 21.4738C58.9555 16.8038 62.7155 13.0138 67.3455 13.0138C71.9855 13.0138 75.7355 16.8038 75.7355 21.4738C75.7355 21.8938 75.7355 22.3038 75.7255 22.7038C75.6855 24.3238 75.3255 24.6538 77.3655 24.3038ZM50.4855 8.81376C51.0055 4.54376 51.0655 3.31376 51.4655 2.27376C51.5255 2.10376 51.9055 1.75376 52.1855 1.77376C55.2355 1.92376 58.6255 1.86376 61.5755 2.55376C62.6255 2.85376 64.7655 5.31376 65.3055 6.05376C65.5155 6.34376 67.0555 8.14376 66.8055 8.51376C66.6355 8.77376 66.4155 8.93376 66.0055 8.95376C61.4155 9.10376 56.2955 9.59376 51.7055 9.65376C50.4255 9.66376 50.3455 9.98376 50.4855 8.81376ZM33.0655 10.3138C33.1055 10.1438 33.3255 9.51376 33.3655 8.84376C33.4355 7.71376 30.9755 7.63376 29.7055 7.71376C32.1655 5.86376 36.2355 3.90376 39.5055 2.76376C42.2055 1.85376 45.8355 1.83376 48.7255 1.77376C49.2255 1.76376 49.2055 1.98376 49.1455 2.40376C48.9455 3.74376 48.4555 6.63376 48.1555 8.58376C48.0055 9.51376 47.7855 9.73376 46.8355 9.74376C43.0855 9.77376 33.0155 10.5038 33.0655 10.3138ZM67.3555 14.9838C70.9255 14.9838 73.8155 17.8938 73.8155 21.4938C73.8155 25.0938 70.9255 28.0038 67.3555 28.0038C63.7855 28.0038 60.8955 25.0938 60.8955 21.4938C60.8955 17.8938 63.7855 14.9838 67.3555 14.9838ZM14.1255 14.9838C17.6955 14.9838 20.5855 17.8938 20.5855 21.4938C20.5855 25.0938 17.6955 28.0038 14.1255 28.0038C10.5555 28.0038 7.66547 25.0938 7.66547 21.4938C7.67547 17.8938 10.5655 14.9838 14.1255 14.9838Z" fill="#8C9091"/>
</svg>
