<svg width="80" height="30" viewBox="0 0 80 30" fill="none" xmlns="http://www.w3.org/2000/svg">
<path d="M15.4412 18.0561C18.8013 18.0561 21.5212 20.7261 21.5212 24.0261C21.5212 27.3261 18.8013 29.9961 15.4412 29.9961C12.0813 29.9961 9.36125 27.3261 9.36125 24.0261C9.36125 20.7261 12.0813 18.0561 15.4412 18.0561ZM69.2513 18.0561C72.6113 18.0561 75.3313 20.7261 75.3313 24.0261C75.3313 27.3261 72.6113 29.9961 69.2513 29.9961C65.8913 29.9961 63.1712 27.3261 63.1712 24.0261C63.1712 20.7261 65.8913 18.0561 69.2513 18.0561ZM79.8613 18.4561C79.5213 17.7561 78.6813 17.4361 78.6012 16.6961C78.5312 15.9461 78.4512 14.4261 78.3512 13.8961C78.3412 13.8661 78.3312 13.8261 78.3112 13.7661C78.2712 13.4661 78.1312 12.5061 77.9912 12.2661C77.8213 11.9761 77.4013 10.9461 76.7213 10.3461C76.6813 10.3161 76.6413 10.2861 76.6012 10.2561C76.3913 9.93613 75.5212 8.67613 74.3812 8.06613C74.3112 8.02613 74.3413 8.06613 74.3713 8.14613C74.3113 8.11613 74.2513 8.09613 74.1913 8.06613C74.1913 8.06613 74.1712 8.04613 74.1312 8.00613C73.9012 7.59613 72.0013 5.89613 70.3412 4.58613C69.9412 4.26613 69.5513 3.96613 69.1813 3.70613C68.6613 3.32613 68.2313 3.05613 68.0013 2.99613C67.9912 2.99613 67.9913 2.98613 67.9813 2.98613C67.9813 2.98613 67.7312 2.69613 67.4912 2.67613C67.7113 2.43613 68.2812 2.23613 68.2812 1.85613C68.2812 1.64613 67.5512 1.49613 66.7812 1.39613C66.5713 1.36613 66.3613 1.34613 66.1712 1.32613C65.7412 1.28613 65.3613 1.25613 65.2012 1.24613C64.9412 1.23613 61.8613 0.856127 58.3013 0.536127C57.6813 0.476127 57.0713 0.416127 56.5013 0.366127C52.9813 0.0561272 49.2613 -0.263873 43.1113 0.346127C38.3013 0.806127 36.5913 1.84613 36.3113 2.03613C36.2413 2.07613 36.1813 2.10613 36.1113 2.14613C36.1113 2.15613 36.1213 2.15613 36.1213 2.16613C36.1012 2.17613 36.1213 2.18613 36.1413 2.19613L36.1012 2.20613L36.1513 2.22613C36.1513 2.22613 36.1413 2.23613 36.1213 2.23613L36.0713 2.20613L34.3713 3.06613C34.3913 3.06613 34.4212 3.06613 34.4613 3.08613C31.5013 4.60613 25.4512 7.72613 23.0612 9.15613H23.0312C22.9813 9.16613 22.9312 9.17613 22.8912 9.18613C22.5512 9.23613 21.9512 9.31613 21.1512 9.43613C21.2212 9.41613 21.2712 9.40613 21.2712 9.40613C19.1712 9.72613 17.2913 10.0561 15.6112 10.3761C10.5413 11.3461 4.52125 12.8561 3.05125 14.7661C0.52125 18.0561 0.52125 18.7561 0.32125 19.5961C0.12125 20.4461 0.15125 22.1861 0.17125 22.2561C0.20125 22.3261 0.44125 22.3561 0.44125 22.3561L0.34125 23.3961C0.34125 23.3961 0.00125 23.5861 0.00125 23.8561C0.00125 24.1261 -0.01875 24.4561 0.10125 24.6561C0.22125 24.8461 1.41125 25.7161 2.93125 26.1061C3.61125 26.2761 4.31125 26.3761 5.01125 26.4561C5.69125 26.5361 6.39125 26.6661 7.07125 26.6961C7.35125 26.7061 7.64125 26.7061 7.92125 26.7061C8.05125 26.7061 8.20125 26.5561 8.20125 26.4261C8.20125 26.4161 8.21125 26.4061 8.21125 26.3961C7.94125 25.6361 7.78125 24.8161 7.78125 23.9561C7.78125 19.8561 11.1613 16.5261 15.3413 16.5261C19.5212 16.5261 22.9012 19.8561 22.9012 23.9561C22.9012 24.3661 22.8612 24.7761 22.8112 25.1761C22.7712 25.5361 22.6212 25.9961 22.7412 26.3461C22.7512 26.3661 22.7512 26.3861 22.7712 26.4061C22.7913 26.4261 22.8112 26.4361 22.8312 26.4461C23.1912 26.5961 23.7412 26.5161 24.1312 26.5061C25.8912 26.4861 27.6612 26.4561 29.4212 26.4361C30.9912 26.4161 32.5713 26.3861 34.1413 26.3661L36.8813 26.3261L39.7113 26.2861C40.6613 26.2761 41.6113 26.2561 42.5613 26.2461C43.4913 26.2361 44.4313 26.2161 45.3613 26.2061C46.2613 26.1961 47.1512 26.1761 48.0513 26.1661C48.8913 26.1561 49.7213 26.1461 50.5613 26.1261L52.8213 26.0961C55.1712 26.0661 57.5112 26.0661 59.8512 26.0761C60.1613 26.0761 60.4712 26.0761 60.7812 26.0761C61.0713 26.0761 61.3812 26.1161 61.6712 26.0561C61.6912 26.0561 61.7713 26.0461 61.8313 25.9761C61.8913 25.9161 61.9012 25.7161 61.8713 25.6261C61.7412 25.0861 61.6613 24.5161 61.6613 23.9361C61.6613 19.8361 65.0413 16.5061 69.2213 16.5061C73.4013 16.5061 76.7812 19.8361 76.7812 23.9361C76.7812 24.0461 76.7713 24.1461 76.7613 24.2561C76.7913 24.4061 76.8312 24.5461 76.8812 24.6861C76.9212 24.7661 76.9613 24.8361 77.0013 24.9061C77.0312 24.9361 77.0612 24.9661 77.0912 24.9961C77.1413 25.0261 77.1813 25.0561 77.2313 25.0761C77.2513 25.0861 77.2813 25.0861 77.3013 25.0961C77.4713 25.1161 77.7113 25.1461 77.9013 25.1461C78.2213 25.1461 78.3913 24.0061 79.1813 23.7461C79.9313 22.6161 80.1813 19.5961 79.8613 18.4561ZM46.5213 10.0261C45.8013 10.0661 45.3512 10.0961 45.2513 10.1061C44.5112 10.1561 25.5612 11.3361 25.5612 11.3361L29.9112 7.97613C35.6712 3.43613 40.9412 2.64613 40.9412 2.64613C42.3312 2.23613 44.9013 2.09613 47.6113 2.07613C47.5813 2.45613 46.6213 9.34613 46.5213 10.0261ZM49.4613 9.83613C49.5812 9.00613 49.8013 2.57613 49.8213 2.08613C53.6313 2.15613 57.1812 2.39613 57.6712 2.41613C58.0013 2.43613 58.7413 2.49613 59.6113 2.56613C60.1513 3.42613 63.4013 8.27613 63.8213 8.91613C59.6912 9.19613 53.5413 9.58613 49.4613 9.83613ZM69.2012 7.99613C69.2012 7.99613 68.7612 8.43613 68.1712 8.57613C68.0512 8.60613 67.0413 8.68613 65.5113 8.79613L61.2713 2.72613C62.3513 2.84613 63.3613 2.97613 63.8313 3.12613C64.9513 3.47613 65.3013 3.88613 66.8613 4.99613C69.4912 6.73613 69.3012 7.51613 69.2012 7.99613Z" fill="#8C9091"/>
</svg>
