<svg width="81" height="30" viewBox="0 0 81 30" fill="none" xmlns="http://www.w3.org/2000/svg">
<path fill-rule="evenodd" clip-rule="evenodd" d="M63.464 19.36C66.304 19.36 68.614 21.74 68.614 24.68C68.614 27.62 66.304 30 63.464 30C60.624 30 58.314 27.62 58.314 24.68C58.314 21.74 60.624 19.36 63.464 19.36ZM13.674 19.36C16.514 19.36 18.824 21.74 18.824 24.68C18.824 27.62 16.514 30 13.674 30C10.834 30 8.52404 27.62 8.52404 24.68C8.52404 21.74 10.834 19.36 13.674 19.36ZM79.834 17.75C79.824 17.42 79.724 17.14 79.474 16.9C78.634 16.13 78.914 14.76 78.984 13.74C79.084 12.34 78.754 11 78.274 9.7C78.094 9.23 77.814 9.03 77.344 9C77.054 9 76.764 8.92 76.454 8.87C76.544 8.68 76.594 8.57 76.644 8.46C76.294 8.09 75.704 7.97 75.034 8.13C75.384 8.27 75.784 8.37 76.024 8.75C75.664 8.78 75.314 8.76 74.984 8.71C74.504 8.63 74.004 8.6 73.564 8.41C70.154 6.98 66.724 5.53 63.224 4.24C63.084 4.19 62.984 4.02 62.864 3.91C62.884 3.88 62.904 3.85 62.924 3.82C62.854 3.93 59.884 2.95 59.554 2.87C58.414 2.59 57.274 2.37 56.114 2.19C53.614 1.81 51.084 1.57 48.564 1.59C46.774 1.6 44.994 1.61 43.214 1.67C41.054 1.74 38.904 1.94 36.754 2.19C36.564 2.21 36.364 2.24 36.174 2.27C36.154 2.23 36.134 2.19 36.114 2.15C36.974 1.46 37.824 0.78 38.684 0.09C38.664 0.06 38.644 0.03 38.624 0C38.564 0.03 38.494 0.06 38.444 0.1C37.844 0.56 37.244 1 36.654 1.47C35.934 2.05 35.144 2.46 34.284 2.75C33.864 2.89 33.474 3.09 32.994 3.3C32.914 3.33 30.264 4.8 29.344 5.3C26.854 6.63 21.174 10.47 20.204 11.13C20.184 11.13 20.154 11.14 20.134 11.14C20.144 10.86 20.294 10.39 19.864 10.31C19.644 10.27 19.364 10.55 19.124 10.69C19.074 10.72 19.044 10.79 19.034 10.85C18.954 11.14 18.764 11.19 18.494 11.17C18.024 11.15 17.544 11.13 17.074 11.19C16.544 11.26 16.024 11.43 15.494 11.53C13.914 11.84 12.324 12.11 10.754 12.45C9.39404 12.75 8.03404 13.09 6.68404 13.47C5.22404 13.89 3.76404 14.33 2.43404 15.09C2.10404 15.28 1.72404 15.57 1.59404 15.91C1.38404 16.43 1.36404 17.03 1.26404 17.59C1.24404 17.68 1.18404 17.76 1.13404 17.84C1.07404 17.94 1.00404 18.03 0.92404 18.14C1.47404 18.39 1.48404 18.43 1.06404 18.84C0.974041 18.93 0.88404 19.01 0.77404 19.07C0.15404 19.4 -0.00595956 19.94 0.0840404 20.61C0.11404 20.8 0.11404 20.99 0.16404 21.18C0.27404 21.57 0.40404 21.95 0.73404 22.22C0.83404 22.3 0.96404 22.43 0.95404 22.53C0.94404 22.63 0.80404 22.78 0.69404 22.8C0.42404 22.85 0.34404 23.01 0.36404 23.26C0.37404 23.43 0.37404 23.59 0.41404 23.75C0.47404 24.03 0.46404 24.23 0.15404 24.35C-0.10596 24.45 0.0140404 24.64 0.14404 24.77C0.21404 24.84 0.34404 24.86 0.45404 24.88C1.06404 25.01 1.65404 25.14 2.14404 25.6C2.32404 25.77 2.63404 25.83 2.89404 25.87C3.78404 25.99 4.67404 26.1 5.57404 26.15C6.19404 26.19 6.86404 26.52 7.43404 25.96C6.99404 22.85 7.92404 20.31 10.624 18.7C12.904 17.35 15.284 17.44 17.444 18.99C19.534 20.49 20.484 22.47 20.284 24.8C20.194 25.84 19.674 26.7 21.694 26.79C23.004 26.85 24.314 26.85 25.624 26.83C33.894 26.73 42.154 26.62 50.414 26.44C51.984 26.41 53.544 26.41 55.114 26.4C55.884 26.4 56.294 26.45 56.564 26.16C56.884 25.81 56.774 25.29 56.774 25.01C56.694 21.42 59.344 18.43 62.764 18.13C66.004 17.84 69.284 20.28 69.764 23.91C69.834 24.44 69.644 25.54 70.964 25.25C73.304 24.73 75.654 24.31 78.014 23.89C78.694 23.77 79.124 23.39 79.474 22.8C79.904 22.07 80.014 21.22 80.004 20.35C79.984 19.48 79.854 18.57 79.834 17.75ZM41.574 11.32C40.874 11.37 40.184 11.42 39.494 11.47C36.254 11.67 29.424 12.09 29.424 12.09C29.424 12.09 28.304 11.29 28.244 11.15C28.244 11.15 28.354 10.08 28.224 9.76C28.124 9.53 27.954 9.48 27.474 9.13C27.574 9.04 27.624 8.99 27.684 8.94C29.434 7.73 31.144 6.47 32.934 5.33C34.474 4.35 36.174 3.75 37.994 3.58C39.584 3.43 41.174 3.31 42.764 3.18C42.834 3.17 42.904 3.19 43.024 3.19C42.534 5.91 42.054 8.6 41.574 11.32ZM58.314 10.33C53.684 10.56 49.154 10.78 44.554 11C44.774 8.34 44.994 5.7 45.214 2.97C45.904 2.97 46.574 2.95 47.234 2.97C49.894 3.06 52.554 3.22 55.194 3.66C55.364 3.69 55.564 3.82 55.654 3.97C56.504 5.38 57.344 6.8 58.174 8.22C58.254 8.36 58.304 8.55 58.314 8.72C58.324 9.24 58.314 9.76 58.314 10.33ZM65.824 8.54C65.644 8.72 65.334 8.8 65.094 8.87C64.304 9.11 63.454 9.19 62.634 9.12C62.324 9.09 62.014 9.03 61.784 8.79L60.234 6.34C60.074 6.06 59.844 5.83 59.734 5.52C59.654 5.28 59.864 5.3 60.024 5.34C60.284 5.41 60.544 5.53 60.794 5.63C61.464 5.9 62.134 6.18 62.804 6.47C63.574 6.81 64.344 7.14 65.094 7.55C65.354 7.69 65.874 7.84 65.954 8.17C65.974 8.31 65.914 8.45 65.824 8.54Z" fill="#8C9091"/>
</svg>
