<svg width="80" height="20" viewBox="0 0 80 20" fill="none" xmlns="http://www.w3.org/2000/svg">
<path fill-rule="evenodd" clip-rule="evenodd" d="M75.3314 17.3887C76.2114 17.3187 77.1714 17.2487 77.9514 17.1386C78.6314 17.0386 79.1614 16.8785 79.3814 16.6784C80.0814 16.0481 80.0014 14.0872 79.9914 13.0767C79.9914 12.8366 79.3414 12.8266 79.3314 12.5764C79.2414 11.0257 79.0614 8.48448 78.8814 6.89371C78.8014 6.17337 78.3514 5.87322 77.6414 5.8232L69.3714 5.28294C68.9514 5.25293 67.8914 5.15288 67.6614 5.01281C67.3614 4.82272 67.0314 4.59261 66.7214 4.30247L62.5514 0.330564C62.1214 -0.0896372 61.5814 0.0104108 61.0014 0.0104108C57.0814 0.0104108 36.7914 -0.0396131 30.3914 0.660723C29.8114 0.720752 29.5414 0.80079 29.2414 0.950862L20.1414 5.46303C19.8214 5.6231 19.4914 5.75317 19.1614 5.88323C14.7814 6.33344 6.64142 7.04379 2.22142 7.88419C1.07142 8.1143 0.881422 8.1143 0.781422 9.32488C0.701422 10.3254 0.601422 11.3959 0.571422 12.2963C0.221422 12.3263 0.211422 12.4264 0.0914222 12.6265C-0.0185778 12.8065 0.00142222 13.5469 0.00142222 13.827C0.0114222 14.2572 0.0414222 14.8875 0.0814222 15.3077C0.161422 16.1682 0.311422 16.6584 0.761422 16.9886C1.02142 17.1786 1.44142 17.3187 1.80142 17.3287L3.70142 17.3988C5.05142 17.2287 4.93142 17.4588 4.84142 16.0081C4.83142 15.798 4.82142 15.5879 4.82142 15.3778C4.82142 12.0662 7.60142 9.3749 11.0214 9.3749C14.4514 9.3749 17.2214 12.0562 17.2214 15.3778C17.2214 15.9381 17.1814 16.4783 17.0814 16.9986C16.8214 18.2992 16.6914 18.0291 18.0614 18.1191L60.5914 18.0991C61.9214 17.939 61.7914 18.1491 61.6314 16.6484C61.5914 16.2382 61.5714 15.818 61.5714 15.3778C61.5714 12.0662 64.3514 9.3749 67.7714 9.3749C71.1914 9.3749 73.9714 12.0562 73.9714 15.3778C73.9714 15.6879 73.9814 15.9881 73.9814 16.2882C74.0014 17.5888 74.2114 17.4788 75.3314 17.3887ZM25.8714 7.22387C29.2814 7.18385 30.6314 7.13383 34.0414 7.09381C35.1414 7.0838 35.0014 7.2939 35.1214 6.28342C35.2814 4.94278 35.4514 3.61214 35.6114 2.2715C35.7114 1.42109 35.8214 1.57116 34.9114 1.61118C33.0114 1.69122 31.5614 1.71123 30.7414 1.81127C30.0814 1.89131 29.7914 1.98136 29.6614 2.04138L23.1214 5.63311C24.0614 5.57308 26.1014 5.6131 26.0614 6.41348C26.0614 6.69362 25.9414 7.01377 25.8714 7.22387ZM37.4414 7.04378C40.0514 7.00377 42.6614 6.97375 45.2814 6.93373C46.2114 6.92373 46.1014 7.10381 46.1914 6.2434C46.3314 4.87274 46.4614 3.50209 46.6014 2.13143C46.7114 1.21099 46.8014 1.39107 45.7914 1.39107C43.9614 1.39107 41.9614 1.40108 39.9914 1.4411C39.3214 1.4511 38.6514 1.47111 38.0014 1.49112C37.1714 1.51113 37.3514 1.43109 37.2514 2.26149C37.0914 3.56211 36.9314 4.86274 36.7714 6.16336C36.6414 7.16384 36.4514 7.06379 37.4414 7.04378ZM48.4114 6.90372C50.7714 6.8737 53.3314 6.84369 55.6914 6.82368C56.3014 6.81367 56.3814 6.84369 56.4414 6.17337L56.8114 1.79127C56.8414 1.49112 56.8714 1.34105 56.5014 1.35105C54.1514 1.35105 51.7614 1.31103 49.4714 1.42109C48.1814 1.48112 48.3314 1.17097 48.1914 2.35153C48.0714 3.59213 47.9414 4.83272 47.8214 6.07332C47.7314 6.97375 47.5314 6.91372 48.4114 6.90372ZM58.6714 6.77365C60.2614 6.75365 59.3014 6.74364 60.8914 6.72363C61.2714 6.70362 61.6614 6.68361 62.0414 6.67361C63.7214 6.59357 62.7014 5.74316 62.1014 4.86274L60.1814 2.02138C59.9314 1.64119 59.6314 1.34105 59.4014 1.34105C59.0914 1.35105 59.0914 1.35105 58.7814 1.36106C58.3714 1.37106 58.3914 1.55115 58.3614 1.8713L58.0014 6.21339C57.9414 6.94374 57.9114 6.78366 58.6714 6.77365ZM67.8014 10.7756C70.4314 10.7756 72.5714 12.8466 72.5714 15.3878C72.5714 17.939 70.4314 20 67.8014 20C65.1714 20 63.0314 17.929 63.0314 15.3878C63.0314 12.8466 65.1714 10.7756 67.8014 10.7756ZM11.0414 10.7656C13.6714 10.7656 15.8114 12.8366 15.8114 15.3778C15.8114 17.919 13.6714 19.99 11.0414 19.99C8.41142 19.99 6.27142 17.919 6.27142 15.3778C6.27142 12.8366 8.40142 10.7656 11.0414 10.7656Z" fill="#8C9091"/>
</svg>
