<svg width="81" height="30" viewBox="0 0 81 30" fill="none" xmlns="http://www.w3.org/2000/svg">
<path fill-rule="evenodd" clip-rule="evenodd" d="M64.4971 18.3954C67.7971 18.3954 70.4771 20.9954 70.4771 24.1954C70.4771 27.3954 67.7971 29.9954 64.4971 29.9954C61.1971 29.9954 58.5171 27.3954 58.5171 24.1954C58.5171 20.9954 61.1971 18.3954 64.4971 18.3954ZM73.0471 26.7154C74.4071 26.6054 76.1271 26.4754 77.4371 26.2254C78.2871 26.0654 78.9571 25.8654 79.2371 25.5854C80.1171 24.6954 80.0171 21.9354 79.9971 20.5254C79.9971 20.1854 79.1871 20.1754 79.1671 19.8254C79.0471 17.6454 78.8671 15.3954 78.3071 13.2254C77.8771 11.5554 77.0271 10.4154 76.3671 9.10536C75.7871 7.94536 74.3871 4.19536 72.3771 2.05536C72.0771 1.73536 72.0571 1.29536 72.0671 0.93536C72.0971 -0.0146399 71.9471 0.11536 71.0371 0.0453601C70.0071 -0.0446399 68.2671 0.0253601 65.9371 0.0353601L38.4771 0.18536C37.1871 0.19536 35.9671 0.30536 34.8471 0.38536C28.7071 0.81536 21.3271 5.85536 16.0771 8.91536C13.1471 9.91536 8.63706 11.5654 4.70706 12.9654C3.12706 13.5254 2.62706 14.2554 2.14706 15.2454C1.83706 15.8854 1.60706 16.6954 1.33706 17.7654C1.16706 18.4554 0.907064 19.0854 0.737064 19.4954C0.297064 19.5354 0.277064 19.4154 0.137064 19.6954C-0.0129358 19.9854 0.0770642 20.3754 0.0370642 20.8554C-0.0329358 21.9454 -0.0229358 23.3754 0.237064 24.3554C0.477064 25.2954 0.707064 25.7454 1.12706 26.0854C1.45706 26.3454 1.83706 26.5554 2.29706 26.5654L4.17706 26.6354C5.44706 26.5054 5.50706 26.7254 5.29706 25.2454C5.24706 24.9054 5.21706 24.5554 5.21706 24.1954C5.21706 20.0354 8.69706 16.6554 12.9971 16.6554C17.2871 16.6554 20.7771 20.0354 20.7771 24.1954C20.7771 24.9354 20.6671 25.6454 20.4671 26.3254C20.0371 27.7554 20.2471 27.5254 21.4571 27.6454L55.6471 27.6054C56.8971 27.4854 57.4471 27.7954 56.9871 26.1554C56.8071 25.5354 56.7171 24.8754 56.7171 24.1954C56.7171 20.0354 60.1971 16.6554 64.4971 16.6554C68.7871 16.6554 72.2771 20.0354 72.2771 24.1954C72.2771 24.6554 72.2371 25.1054 72.1571 25.5454C71.9971 26.3554 72.2271 26.7854 73.0471 26.7154ZM41.3071 9.67536C41.7871 5.42536 41.8971 3.51536 42.2671 2.47536C42.3271 2.30536 42.6471 2.15536 42.9071 2.14536L53.5271 2.07536C54.2071 2.07536 54.6171 2.09536 54.6371 2.97536L54.8271 8.99536C54.8471 9.74536 54.9471 10.1354 54.0571 10.1654C49.8071 10.3154 46.6871 10.4554 42.4371 10.5054C41.2471 10.5254 41.1771 10.8354 41.3071 9.67536ZM24.0271 11.1154C24.0671 10.9454 24.2671 10.3154 24.3071 9.64536C24.3671 8.51536 22.4771 8.43536 21.2971 8.51536C24.9571 5.56536 31.2371 2.19536 35.9271 2.18536L39.6471 2.17536C40.1171 2.16536 40.1371 2.38536 40.0371 2.80536C39.7171 4.19536 39.4171 7.48536 39.1471 9.42536C39.0171 10.3554 38.8071 10.5854 37.9271 10.5854C34.4471 10.6254 23.9871 11.2954 24.0271 11.1154ZM56.7671 9.25536C56.6771 7.29536 56.5771 5.32536 56.4871 3.36536C56.4771 3.05536 56.5571 2.79536 56.6171 2.56536C56.6571 2.39536 56.9571 2.24536 57.2171 2.23536C59.5871 2.20536 58.6471 2.20536 61.0171 2.17536C61.6571 2.16536 65.7471 2.95536 67.0571 4.07536C68.8171 5.57536 70.6371 7.50536 71.0471 8.28536C71.3971 8.95536 71.2471 9.42536 70.3571 9.45536C66.1271 9.60536 62.2271 10.0354 57.9871 10.0854C56.7971 10.1054 56.8171 10.4254 56.7671 9.25536ZM13.0071 18.3954C16.3071 18.3954 18.9871 20.9954 18.9871 24.1954C18.9871 27.3954 16.3071 29.9954 13.0071 29.9954C9.70706 29.9954 7.02706 27.3954 7.02706 24.1954C7.02706 20.9954 9.70706 18.3954 13.0071 18.3954Z" fill="#8C9091"/>
</svg>
