<svg width="81" height="30" viewBox="0 0 81 30" fill="none" xmlns="http://www.w3.org/2000/svg">
<path fill-rule="evenodd" clip-rule="evenodd" d="M79.8525 22.64C80.1025 21.64 79.9525 20.05 79.9925 19.03C80.0425 17.77 79.5025 18.18 79.0125 17.84C78.9125 16.06 79.0025 13.06 78.8125 11.23C78.5825 9.09 77.9725 8.82 75.5925 8.83L47.5125 8.88C46.8125 8.88 46.5425 8.76 46.4025 8.66C45.9025 8.32 45.5925 4.25 45.0625 1.88C44.7725 0.62 44.7825 0 43.3825 0H30.8125C28.9425 0 27.0725 0.9 25.5025 2.17L18.3325 8C12.9425 8.47 7.3525 9.38 3.0125 10.51C1.6525 10.86 1.0925 11.49 1.1025 13.01L1.1325 18.08C0.9325 18.1 0.6825 18.14 0.4825 18.2C0.0625 18.34 0.0425 18.49 0.0125 18.9C-0.0075 19.23 0.0025 19.64 0.0025 19.84C0.0225 20.65 0.1025 22.97 0.6925 23.41C0.9825 23.63 1.4425 23.8 1.8525 23.8L3.1525 23.83C4.1225 23.64 4.3125 23.32 4.4825 22.23C5.1125 18.34 8.4225 15.52 12.4125 15.54C16.5625 15.54 19.9625 18.69 20.4025 22.72C20.5325 23.87 21.1425 23.89 21.9925 23.9L54.3425 23.97C55.0225 23.97 55.1625 23.59 55.2125 22.95C55.5425 18.81 59.0025 15.54 63.2225 15.54C67.4025 15.54 70.8425 18.74 71.2225 22.82C71.3225 23.9 71.3025 24 72.2725 24.01L74.8825 24C75.9925 24.01 79.5525 23.84 79.8525 22.64ZM38.9825 8.13C39.3525 5.1 39.5225 2.91 39.6625 2.06C39.7225 1.69 39.7925 1.45 40.2525 1.46H42.1625C42.3125 1.46 42.4025 1.81 42.4325 2.36L42.7325 7.84C42.8025 9.17 42.6625 9.02 41.9825 9.02H39.9525C38.9025 9.02 38.8725 9.08 38.9825 8.13ZM24.6025 9.02C24.1825 9.02 24.8225 8.76 24.8525 8.22C24.9025 7.3 23.2325 7.23 22.1825 7.3L26.5325 3.38C27.1425 2.83 27.5425 2.58 28.3125 2.23C29.4025 1.73 30.3025 1.46 31.2825 1.46H37.5125C37.9225 1.45 37.9125 1.63 37.8625 1.97C37.6825 3.21 37.3325 6.52 37.0525 8.06C36.9125 8.82 36.7525 9.01 35.9725 9.01H24.6025V9.02ZM12.4125 17.16C15.9525 17.16 18.8225 20.03 18.8225 23.58C18.8225 27.13 15.9525 30 12.4125 30C8.8725 30 6.0025 27.13 6.0025 23.58C6.0025 20.03 8.8725 17.16 12.4125 17.16ZM63.2225 17.16C66.7625 17.16 69.6325 20.03 69.6325 23.58C69.6325 27.13 66.7625 30 63.2225 30C59.6825 30 56.8125 27.13 56.8125 23.58C56.8125 20.03 59.6825 17.16 63.2225 17.16Z" fill="#8C9091"/>
</svg>
