<svg width="80" height="26" viewBox="0 0 80 26" fill="none" xmlns="http://www.w3.org/2000/svg">
<path fill-rule="evenodd" clip-rule="evenodd" d="M75.3171 22.159C75.9071 22.089 76.4971 22.0189 77.0671 21.9189C78.0071 21.7589 78.7571 21.5488 79.0671 21.2687C79.7771 20.6186 79.9471 19.6783 79.9571 18.2779C79.9671 17.1176 80.2471 16.1274 79.2371 15.7273C78.8471 15.5672 78.4271 15.4172 78.4171 15.2271C78.2871 13.0265 78.2471 13.2466 78.0071 10.996C77.9071 10.0657 77.1171 9.29554 75.8671 8.91544C70.3871 7.24499 65.7771 6.83488 59.8571 6.59482C58.6871 6.54481 58.4571 7.44505 57.2771 7.92517C56.0771 8.41531 55.8471 8.30528 55.8571 7.6451C55.8671 7.13496 55.8771 6.63483 55.8871 6.1347C55.8871 5.95465 55.7671 5.82461 55.5871 5.80461C55.1971 5.7746 54.7971 5.73459 54.4071 5.70458C54.2271 5.68458 54.0871 5.85462 54.0571 6.03467C53.9771 6.47479 53.8971 6.91491 53.8071 7.35502C53.6371 8.25526 53.4771 8.61536 52.5671 8.72539C48.3871 9.21552 42.8871 9.75566 38.6871 9.55561C37.4571 9.49559 37.6871 9.67564 37.9771 8.66537C38.0671 8.35529 38.1671 7.98519 38.1871 7.68511C38.2571 6.55481 36.1471 6.46479 34.8371 6.55481C36.7271 5.17444 40.7171 2.74379 43.8571 1.2934C44.2871 1.09335 44.5371 1.08335 44.2571 0.653234C44.1671 0.513197 44.0771 0.373159 43.9771 0.233122C43.7771 -0.0769606 43.5271 -0.0269473 43.1871 0.0930847C38.0371 1.95358 33.3471 4.67431 29.0471 6.97492C22.9371 7.33502 11.6371 7.67511 5.44712 9.70565C3.48712 10.3458 2.69712 11.6962 2.07712 12.8565C1.40712 14.1268 1.08712 14.4269 0.777119 15.1471C0.287119 15.1871 0.267119 15.3272 0.117119 15.6172C-0.0228811 15.8773 -0.00288114 16.9176 0.00711886 17.3177C0.0171189 17.9178 0.0671189 18.8281 0.117119 19.4082C0.227119 20.6286 0.437119 21.3188 1.07712 21.7789C1.43712 22.0489 2.01712 22.289 2.53712 22.299L4.54712 22.359C5.78712 22.179 5.99712 22.339 5.84712 20.7886C5.80712 20.3485 5.78712 19.9084 5.78712 19.4583C5.78712 14.767 9.66712 10.966 14.4471 10.966C19.2271 10.966 23.1071 14.767 23.1071 19.4583C23.1071 20.3685 23.0371 21.2387 22.8471 22.0589C22.5171 23.4793 22.7271 23.2293 23.9371 23.2993H54.9271C56.0271 23.0892 56.7071 22.7091 56.5471 21.2687C56.4871 20.6886 56.4671 20.0784 56.4671 19.4583C56.4671 14.767 60.3471 10.966 65.1271 10.966C69.9071 10.966 73.7871 14.767 73.7871 19.4583C73.7871 19.9484 73.8071 20.4285 73.7971 20.8986C73.7971 22.239 73.8271 22.329 75.3171 22.159ZM14.4571 12.9365C18.1371 12.9365 21.1171 15.8573 21.1171 19.4683C21.1171 23.0792 18.1371 26 14.4571 26C10.7771 26 7.79712 23.0792 7.79712 19.4683C7.79712 15.8573 10.7771 12.9365 14.4571 12.9365ZM65.1471 12.9365C68.8271 12.9365 71.8071 15.8573 71.8071 19.4683C71.8071 23.0792 68.8271 26 65.1471 26C61.4671 26 58.4871 23.0792 58.4871 19.4683C58.4871 15.8573 61.4671 12.9365 65.1471 12.9365Z" fill="#8C9091"/>
</svg>
