<svg width="81" height="26" viewBox="0 0 81 26" fill="none" xmlns="http://www.w3.org/2000/svg">
<path fill-rule="evenodd" clip-rule="evenodd" d="M64.49 13.3989C67.79 13.3989 70.47 16.0007 70.47 19.2028C70.47 22.4149 67.79 25.0067 64.49 25.0067C61.19 25.0067 58.51 22.4049 58.51 19.2028C58.51 16.0007 61.19 13.3989 64.49 13.3989ZM58.93 3.10207L58.53 8.16544C59.7 8.1054 60.83 8.05536 61.88 8.01534C62.26 8.00533 62.47 7.85523 62.63 7.62508C62.86 7.29486 63.22 6.53435 63.35 6.1641C63.45 5.88392 63.43 5.75383 63.18 5.43362C62.85 4.99333 60.66 3.88259 58.93 3.10207ZM57.64 8.21547L58.13 2.75183C57.6 2.53169 57.18 2.36157 56.96 2.30153C55.61 1.91127 54.2 1.67111 52.83 1.66111L48.26 1.61107C48 1.61107 47.68 1.75117 47.62 1.90127C47.25 2.83189 47.17 4.09273 46.69 7.89526C46.56 8.93595 46.63 8.65576 47.82 8.64576C50.75 8.60573 54.32 8.38558 57.64 8.21547ZM73.75 21.7745C74.96 21.6844 76.34 21.5744 77.43 21.3942C78.28 21.2542 78.95 21.064 79.23 20.8239C80.11 20.0333 80.01 17.5617 79.99 16.2908C79.99 15.9806 79.18 15.9806 79.16 15.6604C79.04 13.7091 78.9 11.5477 78.68 9.53635C78.42 7.12474 73.33 7.03469 70.21 6.07405C67.99 5.39359 66.16 3.93262 63.32 2.71181C60.18 1.36091 57.44 0.130087 54.15 0.130087C48.79 0.130087 40.82 -0.490326 35.83 1.0507C31.05 2.52168 26.7 5.19346 22.16 7.26484C16.67 7.82521 10.58 8.90593 5.02999 10.2468C3.22999 10.6771 2.44999 11.4877 1.89999 12.5283C1.29999 13.6591 1.00999 14.7198 0.739994 15.3602C0.299994 15.4003 0.279994 15.2902 0.139994 15.5403C-0.0100061 15.8005 0.0799939 16.1508 0.0399939 16.581C-0.0300061 17.5517 -0.0200061 18.8425 0.239994 19.7131C0.479994 20.5537 0.709994 20.954 1.12999 21.2642C1.45999 21.5043 1.83999 21.6844 2.29999 21.6944L4.33999 21.7545C5.55999 21.5343 5.32999 21.3842 5.24999 19.8832C5.23999 19.6631 5.22999 19.4329 5.22999 19.2028C5.22999 15.03 8.70999 11.6478 13.01 11.6478C17.3 11.6478 20.79 15.03 20.79 19.2028C20.79 19.6231 20.78 20.0433 20.75 20.4436C20.57 22.9753 20.32 22.535 22.69 22.6551L55.32 22.6251C57.06 22.3949 56.96 22.6051 56.78 20.4836C56.74 20.0634 56.73 19.6431 56.73 19.2028C56.73 15.03 60.21 11.6478 64.51 11.6478C68.8 11.6478 72.29 15.03 72.29 19.2028C72.29 19.563 72.28 19.9133 72.25 20.2635C72.09 22.0047 72.59 21.8646 73.75 21.7745ZM30.54 9.23615C30.58 9.08605 30.78 8.51567 30.82 7.92528C30.88 6.91461 28.99 6.84456 27.81 6.9146C30.09 5.26351 33.48 3.51234 36.51 2.49166C37.58 2.14143 40.47 1.70113 42.47 1.66111L45.05 1.61107C45.52 1.60107 45.58 1.81121 45.44 2.17145C44.98 3.36224 44.8 5.94396 44.52 7.68512C44.39 8.52568 44.18 8.71581 43.3 8.72581C39.83 8.74582 30.5 9.39626 30.54 9.23615ZM13 13.3989C16.3 13.3989 18.98 16.0007 18.98 19.2028C18.98 22.4149 16.3 25.0067 13 25.0067C9.69999 25.0067 7.01999 22.4049 7.01999 19.2028C7.01999 16.0007 9.69999 13.3989 13 13.3989Z" fill="#8C9091"/>
</svg>
