<svg width="80" height="27" viewBox="0 0 80 27" fill="none" xmlns="http://www.w3.org/2000/svg">
<path fill-rule="evenodd" clip-rule="evenodd" d="M64.4871 13.9725C67.7871 13.9725 70.4671 16.6625 70.4671 19.9825C70.4671 23.3025 67.7871 25.9925 64.4871 25.9925C61.1871 25.9925 58.5071 23.3025 58.5071 19.9825C58.5071 16.6625 61.1871 13.9725 64.4871 13.9725ZM61.1371 7.74251C61.3271 8.75251 61.2471 8.59251 62.3371 8.55251L74.5771 8.33251C75.9071 7.68251 73.7471 2.39251 73.6771 2.06251C73.6071 1.77251 73.1671 1.71251 72.4571 1.71251L61.2171 1.72251C60.0971 1.72251 60.1171 2.15251 60.2671 2.97251L61.1371 7.74251ZM59.2271 7.48251L58.5471 3.60251C58.3871 2.71251 58.4671 1.59251 57.5371 1.60251L48.2571 1.76251C47.6171 1.75251 47.6771 1.70251 47.5071 2.47251C47.3171 3.29251 47.0871 5.02251 46.6871 8.27251C46.5571 9.35251 46.6271 9.06251 47.8171 9.04251L58.0771 8.80251C59.5571 8.77251 59.4871 8.95251 59.2271 7.48251ZM73.7471 22.6525C74.9571 22.5625 76.3371 22.4425 77.4271 22.2525C78.2771 22.1025 78.9471 21.9125 79.2271 21.6525C80.1071 20.8325 80.0071 18.2725 79.9871 16.9625C79.9871 16.6425 79.1771 16.6425 79.1571 16.3125C79.0571 14.5225 78.9271 12.5625 78.7571 10.6925C78.7371 10.4525 78.7071 10.2025 78.6871 9.96251L75.5771 0.902509C75.3971 0.382509 75.1671 0.252509 74.6571 0.0825091C74.4671 0.0225091 73.7771 0.0525091 71.9571 0.0425091C62.6171 0.0125091 52.2871 -0.107491 42.9471 0.262509C40.3471 0.362509 37.8271 0.552509 35.8271 1.18251C31.0471 2.71251 26.6971 5.47251 22.1571 7.62251C16.6671 8.20251 10.5771 9.32251 5.02706 10.7125C3.22706 11.1625 2.44706 12.0025 1.89706 13.0725C1.29706 14.2425 1.00706 15.3425 0.737064 16.0125C0.297064 16.0525 0.277064 15.9325 0.137064 16.1925C-0.0129358 16.4625 0.0770642 16.8225 0.0370642 17.2725C-0.0329358 18.2825 -0.0229358 19.6125 0.237064 20.5125C0.477064 21.3825 0.707064 21.8025 1.12706 22.1225C1.45706 22.3625 1.83706 22.5525 2.29706 22.5725L4.33706 22.6425C5.54706 22.4125 5.32706 22.2625 5.24706 20.7025C5.23706 20.4725 5.22706 20.2325 5.22706 19.9925C5.22706 15.6725 8.70706 12.1725 13.0071 12.1725C17.2971 12.1725 20.7871 15.6725 20.7871 19.9925C20.7871 20.4325 20.7771 20.8625 20.7471 21.2825C20.5671 23.9025 20.3171 23.4525 22.6871 23.5725L55.3171 23.5325C57.0571 23.2925 56.9571 23.5125 56.7771 21.3125C56.7371 20.8825 56.7271 20.4425 56.7271 19.9925C56.7271 15.6725 60.2071 12.1725 64.5071 12.1725C68.8071 12.1725 72.2871 15.6725 72.2871 19.9925C72.2871 20.3625 72.2771 20.7325 72.2471 21.0925C72.0871 22.8825 72.5871 22.7425 73.7471 22.6525ZM30.5371 9.66251C30.5771 9.50251 30.7771 8.92251 30.8171 8.30251C30.8771 7.26251 28.9871 7.18251 27.8071 7.26251C30.0871 5.55251 33.4771 3.74251 36.5071 2.68251C37.5771 2.32251 40.4671 1.86251 42.4671 1.82251L45.0471 1.77251C45.4071 1.77251 45.5171 2.02251 45.4371 2.35251C45.2471 3.17251 44.7971 6.26251 44.5171 8.06251C44.3871 8.93251 44.1771 9.13251 43.2971 9.14251C39.8271 9.16251 30.4971 9.83251 30.5371 9.66251ZM12.9971 13.9725C16.2971 13.9725 18.9771 16.6625 18.9771 19.9825C18.9771 23.3125 16.2971 26.0025 12.9971 26.0025C9.69706 26.0025 7.01706 23.3125 7.01706 19.9925C7.01706 16.6625 9.69706 13.9725 12.9971 13.9725Z" fill="#8C9091"/>
</svg>
