<svg width="81" height="33" viewBox="0 0 81 33" fill="none" xmlns="http://www.w3.org/2000/svg">
<path d="M13.7225 18.3931C10.0325 18.3931 7.04252 21.4131 7.04252 25.1431C7.04252 28.8731 10.0325 31.8931 13.7225 31.8931C17.4125 31.8931 20.4025 28.8731 20.4025 25.1431C20.4025 21.4131 17.4125 18.3931 13.7225 18.3931ZM66.2225 18.5031C62.5325 18.5031 59.5425 21.5231 59.5425 25.2531C59.5425 28.9831 62.5325 32.0031 66.2225 32.0031C69.9125 32.0031 72.9025 28.9831 72.9025 25.2531C72.9025 21.5331 69.9125 18.5031 66.2225 18.5031ZM79.5025 18.8331L79.7125 17.4831V13.9331L78.9725 13.3431L78.8325 10.5831C78.5025 9.18307 76.6125 8.25307 76.6125 8.25307L70.7425 2.75307C71.9925 2.03307 72.3025 1.90307 72.3025 1.90307L72.0425 1.52307C68.5225 0.793072 65.2625 1.14307 65.2625 1.14307C54.8325 -0.116928 40.5125 0.003072 40.5125 0.003072C36.3225 0.003072 34.0525 1.03307 34.0525 1.03307L20.6925 9.35307C11.3825 9.91307 4.37252 11.8831 4.37252 11.8831C3.43252 12.3031 2.68252 13.3331 2.68252 13.3331L1.23252 15.8531L0.442518 16.9231C0.122518 17.5431 0.0325176 18.5331 0.00251764 19.2531C-0.0174824 19.7831 0.0825177 20.3131 0.272518 20.8031L2.13252 25.4331C2.39252 25.4831 2.64252 25.5331 2.90252 25.5731C3.36252 25.6531 3.81252 25.7431 4.27252 25.8231C4.39252 25.8431 4.51252 25.8731 4.64252 25.8931C4.76252 25.9131 4.87252 25.9431 4.99252 25.9131C5.10252 25.8931 5.21252 25.8631 5.31252 25.8231C5.30252 25.8231 5.30252 25.8331 5.29252 25.8331C5.35252 25.8231 5.42252 25.7531 5.46252 25.7131C5.58252 25.5831 5.50252 25.2831 5.50252 25.1231C5.50252 20.5531 9.17252 16.8431 13.7025 16.8431C18.2325 16.8431 21.9025 20.5531 21.9025 25.1231C21.9025 25.3631 21.8725 25.5531 21.9425 25.7831C21.9425 25.7731 21.9425 25.7831 21.9625 25.8331C21.9925 25.9331 22.0625 26.0331 22.1425 26.1031C22.1525 26.1131 22.1525 26.1131 22.1625 26.1231C22.2025 26.1631 22.2625 26.1931 22.3125 26.2131C22.3225 26.2131 22.3325 26.2231 22.3425 26.2231H57.7225C57.7925 26.2231 57.8725 26.1831 57.9325 26.1431C58.0125 26.0931 58.0525 25.9731 58.0625 25.8931C58.0625 25.7931 58.0325 25.6931 58.0325 25.5831C58.0225 25.4331 58.0225 25.2831 58.0225 25.1331C58.0225 20.5631 61.6925 16.8531 66.2225 16.8531C70.7525 16.8531 74.4225 20.5631 74.4225 25.1331C74.4225 25.3931 74.4025 25.6431 74.3825 25.8931V25.9031C74.3825 25.9131 74.3925 25.9231 74.3925 25.9331C74.4425 26.0531 74.5025 26.1931 74.6425 26.2131C74.7425 26.2331 74.8525 26.2131 74.9525 26.2131L77.0025 25.7931L77.4825 25.5631C78.9325 24.3331 79.7125 21.2331 79.7125 21.2331L80.0025 19.2631L79.5025 18.8331ZM47.9625 6.95307L24.9825 8.11307C32.2425 2.64307 36.6025 1.30307 36.6025 1.30307C39.6225 1.17307 49.1425 1.30307 49.1425 1.30307L47.9625 6.95307ZM49.6725 7.02307L50.1125 1.43307C55.8225 1.52307 66.4425 2.62307 66.4425 2.62307L70.5525 6.47307L49.6725 7.02307Z" fill="#8C9091"/>
</svg>
