<svg width="80" height="30" viewBox="0 0 80 30" fill="none" xmlns="http://www.w3.org/2000/svg">
<path fill-rule="evenodd" clip-rule="evenodd" d="M77.9131 24.481C77.9731 24.461 78.0331 24.451 78.0831 24.441C79.1331 24.271 79.6031 24.381 79.7731 23.0712C79.9731 21.5015 79.9031 19.0419 79.9831 18.0721C80.0431 17.4022 79.9331 16.7823 79.2031 16.6323C78.7931 16.5524 78.3631 16.4624 78.3531 16.2924C78.2131 13.9428 77.8431 12.0431 77.3031 10.3034C76.3931 7.40395 75.4631 4.96438 73.7231 1.69495C72.7831 -0.0747424 73.1331 0.0152418 70.7431 0.0152418C62.1331 0.0152418 53.0531 -0.054746 44.3131 0.105226C38.4431 0.215207 32.7431 0.245202 30.3131 0.99507C27.1631 2.68478 24.2031 6.82405 21.9831 8.52375C16.2931 9.10365 10.0431 9.52358 4.28306 10.9033C2.25306 11.3933 1.58306 11.4532 1.20306 13.4929C0.973056 14.6927 0.933056 16.0124 0.783056 16.7223C0.623056 16.7323 0.523056 16.7323 0.443056 16.7323C0.143056 16.7223 0.073056 17.0623 0.063056 17.4022C0.023056 18.642 -0.086944 21.2915 0.133056 22.8113C0.313056 24.081 1.07306 24.481 2.22306 24.481H4.31306C5.95306 24.481 5.66306 24.341 5.77306 22.8213C6.09306 18.562 9.77306 15.1926 14.2631 15.1926C18.7531 15.1926 22.4231 18.542 22.7531 22.8013C22.8831 24.451 22.5331 24.471 24.2731 24.471H57.8131C59.8031 24.471 59.4131 24.361 59.6331 22.4913C60.1131 18.382 63.7131 15.1926 68.0931 15.1926C72.5531 15.1926 76.2031 18.502 76.5731 22.7213C76.6531 23.6711 76.3931 24.481 77.3831 24.481H77.9131ZM14.2531 16.8623C18.0031 16.8623 21.0431 19.8018 21.0431 23.4311C21.0431 27.0605 18.0031 30 14.2531 30C10.5031 30 7.46306 27.0605 7.46306 23.4311C7.46306 19.8018 10.5031 16.8623 14.2531 16.8623ZM68.0831 16.8623C71.8331 16.8623 74.8731 19.8018 74.8731 23.4311C74.8731 27.0605 71.8331 30 68.0831 30C64.3331 30 61.2931 27.0605 61.2931 23.4311C61.2931 19.8018 64.3331 16.8623 68.0831 16.8623ZM28.7031 9.63356C28.7431 9.47359 29.0231 8.99367 29.0631 8.37378C29.1231 7.33396 27.1631 7.25398 25.9431 7.33396C27.6931 5.01437 29.1731 3.82458 30.8431 2.50481C31.9531 2.14487 38.3731 1.9449 40.4431 1.90491C41.3331 1.88491 42.2231 1.86492 43.1131 1.85492C43.5931 1.84492 43.6631 2.06488 43.5131 2.43482C43.2731 3.7146 42.8431 6.33414 42.5631 8.12382C42.4231 8.98367 42.2131 9.48359 41.3031 9.47359C37.7031 9.66355 28.6631 9.92351 28.7031 9.63356ZM58.9231 8.2438C58.7631 6.72407 57.9431 4.40447 57.4431 2.85475C57.2531 2.27485 57.0431 1.70495 56.3631 1.72494C52.9231 1.81493 49.8331 1.75494 46.4531 1.85492C46.1831 1.85492 45.8531 2.00489 45.7931 2.15487C45.4131 3.1147 45.3231 4.41447 44.8231 8.34379C44.6831 9.4236 44.7531 9.57357 45.9931 9.55357C48.7031 9.55357 53.8331 9.57357 57.5431 9.47359C58.6531 9.44359 59.0631 9.55357 58.9231 8.2438ZM63.6431 8.36378C63.0631 7.15399 62.1431 5.05436 61.2831 3.16469C60.7831 2.07488 60.7631 1.72494 62.0731 1.70495C64.6631 1.66495 69.5831 1.72494 71.4731 1.75494C71.6431 1.75494 72.1331 1.9949 72.2231 2.15487C72.7431 3.1147 73.2531 4.08453 74.7231 8.01384C75.1231 9.09365 74.9231 9.48359 74.1431 9.46359C72.3631 9.43359 67.9231 9.47359 65.2931 9.46359C64.4531 9.47359 63.9631 9.03366 63.6431 8.36378Z" fill="#8C9091"/>
</svg>
