<svg width="81" height="27" viewBox="0 0 81 27" fill="none" xmlns="http://www.w3.org/2000/svg">
<path d="M65.0426 15.5C68.2526 15.5 70.8526 18.07 70.8526 21.25C70.8526 24.43 68.2526 27 65.0426 27C61.8326 27 59.2326 24.43 59.2326 21.25C59.2326 18.07 61.8326 15.5 65.0426 15.5ZM15.1826 15.5C18.3926 15.5 20.9926 18.07 20.9926 21.25C20.9926 24.43 18.3926 27 15.1826 27C11.9726 27 9.3726 24.43 9.3726 21.25C9.3726 18.07 11.9726 15.5 15.1826 15.5ZM79.6926 15.59C79.1426 14.49 78.8926 13.4 78.9126 12.18C78.9326 11.21 78.8526 10.21 78.6426 9.26C78.5426 8.79 78.1326 8.17 77.7126 8.01C76.5126 7.56 75.2426 7.3 73.9926 6.97C72.4126 6.55 70.7226 6.35 69.2626 5.69C65.0826 3.8 60.9126 1.9 56.3926 1C54.1926 0.56 52.0626 0.23 49.5926 0C49.4726 2.3 49.3526 4.46 49.2326 6.7C48.8026 6.68 48.4426 6.67 48.0726 6.65C48.0726 6.01 48.1426 5.47 48.0526 4.97C47.9826 4.59 47.6726 3.95 47.4926 3.95C46.8826 3.97 46.0926 3.89 45.8726 4.77C45.7126 5.45 45.5326 6.12 45.3526 6.83C40.9626 7.07 36.5826 7.3 32.5426 7.52C31.5926 6.69 30.8326 6.02 29.9326 5.24C30.5826 4.8 31.3126 4.32 32.0426 3.83C33.1826 3.06 34.3426 2.31 35.4526 1.49C35.6826 1.32 35.9026 0.81 35.8026 0.64C35.6426 0.36 35.2126 0.07 34.8926 0.07C34.2326 0.08 33.5626 0.28 32.9026 0.39L21.7226 6.63C21.1626 6.75 20.6126 6.95 20.0626 6.94C15.9726 6.91 11.9526 7.29 8.1126 8.8C5.9126 9.67 3.6926 10.52 1.5426 11.51C0.542598 11.97 -0.187402 12.78 0.0425982 14.1C0.162598 14.78 0.122598 15.91 0.212598 16.6C0.322598 17.48 0.722598 19.91 0.652598 20.71C0.612598 21.23 0.642598 21.75 0.642598 22.46C2.5526 22.68 5.1726 22.92 7.4326 23.15C7.5726 23.16 7.7326 23.11 7.8326 23.01C7.9526 22.88 7.9926 22.72 7.9926 22.57C7.9926 22.36 7.9426 22.15 7.9126 21.94C7.8826 21.67 7.8626 21.39 7.8626 21.12C7.8626 17.13 11.1326 13.89 15.1626 13.89C19.1926 13.89 22.4626 17.13 22.4626 21.12C22.4626 21.43 22.4426 21.74 22.4026 22.05C22.3826 22.21 22.3526 22.37 22.3226 22.52C22.2926 22.67 22.2326 22.82 22.2426 22.97C22.2526 23.13 22.3426 23.23 22.4926 23.29C22.5326 23.31 22.5726 23.31 22.6126 23.33C23.1026 23.33 23.5526 23.33 23.7226 23.33C34.6926 23.33 45.6626 23.31 56.6426 23.34C57.1126 23.34 57.4526 23.32 57.8226 23.04C57.8026 23.06 57.7726 23.08 57.7526 23.1C57.9026 22.97 57.9926 22.84 57.9526 22.63C57.9226 22.46 57.8826 22.3 57.8626 22.13C57.8126 21.8 57.7926 21.46 57.7926 21.13C57.7926 17.14 61.0626 13.9 65.0926 13.9C69.1226 13.9 72.3926 17.14 72.3926 21.13C72.3926 21.4 72.3726 21.67 72.3426 21.93C72.2926 22.39 72.9426 22.35 73.2326 22.38C73.2426 22.38 73.2526 22.38 73.2626 22.38C74.2326 22.38 75.2426 22.38 76.0126 22.34C76.5926 22.31 77.2126 22.15 77.7226 21.88C79.4426 20.92 80.5826 17.37 79.6926 15.59ZM24.1326 6.83C23.4226 7.25 22.3826 7.15 22.0026 6.81C22.0026 6.81 29.8426 2.31 32.6126 0.76C32.6126 0.76 32.8626 0.65 33.0626 0.61C33.4226 0.55 33.9526 0.54 34.4826 0.65C34.2326 0.85 34.0126 0.99 33.9026 1.06C31.3026 2.59 28.6926 4.12 26.0926 5.66C25.4426 6.04 24.7926 6.45 24.1326 6.83ZM51.2326 6.64V1.23C56.9426 1.64 62.1626 3.2 66.7726 6.64H51.2326Z" fill="#8C9091"/>
</svg>
