<svg width="80" height="33" viewBox="0 0 80 33" fill="none" xmlns="http://www.w3.org/2000/svg">
<path fill-rule="evenodd" clip-rule="evenodd" d="M72.9599 29.7793C74.3102 29.6593 76.1605 29.5293 77.5308 29.2692C78.351 29.1092 78.9911 28.9091 79.2612 28.6291C80.1013 27.7489 80.0013 25.0083 79.9913 23.598C79.9913 23.2579 79.1811 23.2579 79.1911 22.8978C79.1711 15.5762 79.0711 10.6652 78.681 1.59324C78.591 0.653035 77.8109 0.142925 76.9407 0.0629082C75.9605 -0.0271112 75.0003 0.00289527 72.7599 0.0128974L27.5908 0.232945C24.4202 0.252949 22.2097 0.332966 19.5292 2.25338C16.7787 4.2238 14.7683 8.35469 13.578 10.6852C10.9675 11.6054 6.96669 12.7956 3.30596 14.1159C2.39578 14.446 1.58561 14.636 1.43558 15.7363C1.30556 16.6465 1.30556 18.1268 1.30556 19.227C1.30556 20.7274 1.39558 21.7876 1.22554 22.2777C1.09552 22.6478 0.305358 22.3577 0.125322 22.7478C-0.014706 23.0379 0.06531 23.4279 0.035304 23.908C-0.03471 24.9883 -0.014706 26.4086 0.225342 27.3788C0.455388 28.309 0.675432 28.7591 1.08551 29.0992C1.39558 29.3592 1.76565 29.5593 2.21574 29.5793L4.54621 29.6593C5.57641 29.5793 5.23634 29.4092 5.08631 28.1189C5.05631 27.8289 5.0363 27.5288 5.0363 27.2188C5.0363 23.0779 8.38698 19.7271 12.5178 19.7271C16.6486 19.7271 19.9993 23.0879 19.9993 27.2188C19.9993 27.8889 19.9093 28.549 19.7392 29.1692C19.3792 30.5095 19.3392 30.6495 20.8495 30.6495L56.9867 30.6095C57.5668 30.6095 57.8969 30.5995 58.0169 30.4294C58.1369 30.2594 58.0569 29.8393 57.8669 29.1192C57.7068 28.509 57.6268 27.8789 57.6268 27.2188C57.6268 23.0779 60.9775 19.7271 65.1083 19.7271C69.2392 19.7271 72.5898 23.0879 72.5898 27.2188C72.5898 27.8389 72.5098 28.439 72.3698 29.0191C72.2197 29.5693 72.4098 29.8293 72.9599 29.7793ZM18.629 12.3155C18.669 12.1455 18.8591 11.5154 18.8991 10.8552C18.9591 9.73499 17.2087 10.3551 16.0685 10.4351C17.0087 8.55474 18.319 5.91417 19.9493 4.2038C21.5196 2.56345 23.26 2.27338 25.5004 2.26338L29.1511 2.24338C29.6012 2.23338 29.7613 2.46342 29.7012 2.87351C29.5012 4.25381 29.3012 7.9446 28.8811 9.86502C28.681 10.7852 28.1209 11.0053 27.2908 11.1653C23.9601 11.7954 18.589 12.4956 18.629 12.3155ZM12.4878 21.4775C15.6684 21.4775 18.2389 24.0581 18.2389 27.2388C18.2389 30.4194 15.6584 33 12.4878 33C9.30716 33 6.73664 30.4194 6.73664 27.2388C6.73664 24.0581 9.31716 21.4775 12.4878 21.4775ZM65.0483 21.4775C68.229 21.4775 70.7995 24.0581 70.7995 27.2388C70.7995 30.4194 68.219 33 65.0483 33C61.8677 33 59.2972 30.4194 59.2972 27.2388C59.2972 24.0581 61.8677 21.4775 65.0483 21.4775Z" fill="#8C9091"/>
</svg>
