<svg width="16" height="17" viewBox="0 0 16 17" version="1.1" xmlns="http://www.w3.org/2000/svg" xmlns:xlink="http://www.w3.org/1999/xlink">
<title>Page 1</title>
<desc>Created using Figma</desc>
<g id="Canvas" transform="translate(12845 -5471)">
<g id="Page 1">
<g id="Stroke 1">
<g transform="translate(-12843.8 5474.35)" fill="#E1E1E1">
  <path id="path0_stroke" d="M 11.3333 12.1582L 2.66667 12.1582L 2.66667 13.1582L 11.3333 13.1582L 11.3333 12.1582ZM 2.66667 12.1582C 1.45807 12.1582 0.5 11.2091 0.5 10.0909L -0.5 10.0909C -0.5 11.7968 0.941925 13.1582 2.66667 13.1582L 2.66667 12.1582ZM 0.5 10.0909L 0.5 2.56729L -0.5 2.56729L -0.5 10.0909L 0.5 10.0909ZM 0.5 2.56729C 0.5 1.44915 1.45807 0.5 2.66667 0.5L 2.66667 -0.5C 0.941925 -0.5 -0.5 0.86141 -0.5 2.56729L 0.5 2.56729ZM 2.66667 0.5L 11.3333 0.5L 11.3333 -0.5L 2.66667 -0.5L 2.66667 0.5ZM 11.3333 0.5C 12.5419 0.5 13.5 1.44915 13.5 2.56729L 14.5 2.56729C 14.5 0.86141 13.0581 -0.5 11.3333 -0.5L 11.3333 0.5ZM 13.5 2.56729L 13.5 10.0909L 14.5 10.0909L 14.5 2.56729L 13.5 2.56729ZM 13.5 10.0909C 13.5 11.2091 12.5419 12.1582 11.3333 12.1582L 11.3333 13.1582C 13.0581 13.1582 14.5 11.7968 14.5 10.0909L 13.5 10.0909Z"/>
</g>
</g>
<g id="Stroke 3">
<g transform="translate(-12844 5476.51)" fill="#E1E1E1">
  <path id="path1_stroke" d="M 0.5 0.5C 0.223858 0.5 0 0.723858 0 1C 0 1.27614 0.223858 1.5 0.5 1.5L 0.5 0.5ZM 13.5 1.5C 13.7761 1.5 14 1.27614 14 1C 14 0.723858 13.7761 0.5 13.5 0.5L 13.5 1.5ZM 0.5 1.5L 13.5 1.5L 13.5 0.5L 0.5 0.5L 0.5 1.5Z"/>
</g>
</g>
<g id="Stroke 7">
<g transform="translate(-12841.3 5472.41)" fill="#FFFFFF">
  <path id="path2_fill" fill-rule="evenodd" d="M 0.84157 3.52512C 0.378739 3.52512 0 3.11053 0 2.60388L 0 0.921477C 0 0.414593 0.378739 0 0.84157 0C 1.3044 0 1.68314 0.414593 1.68314 0.921477L 1.68314 2.60388C 1.68314 3.11053 1.3044 3.52512 0.84157 3.52512Z"/>
</g>
<g transform="translate(-12841.3 5472.41)" fill="#E1E1E1">
  <path id="path3_stroke" d="M 0.84157 3.02512C 0.696485 3.02512 0.5 2.87791 0.5 2.60388L -0.5 2.60388C -0.5 3.34314 0.0609934 4.02512 0.84157 4.02512L 0.84157 3.02512ZM 0.5 2.60388L 0.5 0.921477L -0.5 0.921477L -0.5 2.60388L 0.5 2.60388ZM 0.5 0.921477C 0.5 0.64712 0.696566 0.5 0.84157 0.5L 0.84157 -0.5C 0.0609128 -0.5 -0.5 0.182065 -0.5 0.921477L 0.5 0.921477ZM 0.84157 0.5C 0.986574 0.5 1.18314 0.64712 1.18314 0.921477L 2.18314 0.921477C 2.18314 0.182065 1.62223 -0.5 0.84157 -0.5L 0.84157 0.5ZM 1.18314 0.921477L 1.18314 2.60388L 2.18314 2.60388L 2.18314 0.921477L 1.18314 0.921477ZM 1.18314 2.60388C 1.18314 2.87791 0.986655 3.02512 0.84157 3.02512L 0.84157 4.02512C 1.62215 4.02512 2.18314 3.34314 2.18314 2.60388L 1.18314 2.60388Z"/>
</g>
</g>
<g id="Stroke 11">
<g transform="translate(-12834.2 5472.41)" fill="#FFFFFF">
  <path id="path4_fill" fill-rule="evenodd" d="M 0.807581 3.52512C 0.363443 3.52512 0 3.11053 0 2.60388L 0 0.921477C 0 0.414593 0.363443 0 0.807581 0C 1.25172 0 1.61516 0.414593 1.61516 0.921477L 1.61516 2.60388C 1.61516 3.11053 1.25172 3.52512 0.807581 3.52512Z"/>
</g>
<g transform="translate(-12834.2 5472.41)" fill="#E1E1E1">
  <path id="path5_stroke" d="M 0.807581 3.02512C 0.699403 3.02512 0.5 2.89826 0.5 2.60388L -0.5 2.60388C -0.5 3.32279 0.0274831 4.02512 0.807581 4.02512L 0.807581 3.02512ZM 0.5 2.60388L 0.5 0.921477L -0.5 0.921477L -0.5 2.60388L 0.5 2.60388ZM 0.5 0.921477C 0.5 0.626766 0.699481 0.5 0.807581 0.5L 0.807581 -0.5C 0.0274047 -0.5 -0.5 0.202419 -0.5 0.921477L 0.5 0.921477ZM 0.807581 0.5C 0.915681 0.5 1.11516 0.626766 1.11516 0.921477L 2.11516 0.921477C 2.11516 0.202419 1.58776 -0.5 0.807581 -0.5L 0.807581 0.5ZM 1.11516 0.921477L 1.11516 2.60388L 2.11516 2.60388L 2.11516 0.921477L 1.11516 0.921477ZM 1.11516 2.60388C 1.11516 2.89826 0.915759 3.02512 0.807581 3.02512L 0.807581 4.02512C 1.58768 4.02512 2.11516 3.32279 2.11516 2.60388L 1.11516 2.60388Z"/>
</g>
</g>
</g>
</g>
</svg>
