<svg xmlns="http://www.w3.org/2000/svg" xmlns:xlink="http://www.w3.org/1999/xlink" width="16" height="16" viewBox="0 0 16 16">
    <defs>
        <path id="a" d="M0 .034h15.967V16H0z"/>
    </defs>
    <g fill="none" fill-rule="evenodd">
        <g transform="translate(0 -.034)">
            <mask id="b" fill="#fff">
                <use xlink:href="#a"/>
            </mask>
            <path fill="#AAAFB2" d="M8.038 9.988c2.261 0 4.095 1.5 4.374 3.571a7.11 7.11 0 0 1-4.429 1.558 7.115 7.115 0 0 1-4.453-1.576c.216-2.059 2.11-3.553 4.508-3.553m0-.883c-2.57 0-4.72 1.522-5.27 3.716A7.063 7.063 0 0 1 .881 8.017c0-3.916 3.186-7.1 7.101-7.1s7.101 3.184 7.101 7.1a7.055 7.055 0 0 1-1.924 4.848c-.58-2.254-2.624-3.76-5.122-3.76M7.983.033C3.581.033 0 3.615 0 8.017S3.581 16 7.983 16c4.402 0 7.984-3.58 7.984-7.983 0-4.402-3.582-7.984-7.984-7.984" mask="url(#b)"/>
        </g>
        <path fill="#AAAFB2" d="M9.732 4.59c-.005.142-.137.885-.23 1.369-.067.363-.375 1.547-1.458 1.547-.873 0-1.326-.8-1.46-1.547-.084-.451-.221-1.222-.23-1.373a1.524 1.524 0 0 1 .424-1.138 1.752 1.752 0 0 1 1.266-.542c.472 0 .928.193 1.25.529.3.316.457.726.438 1.156M8.045 2.06h-.01c-.74.003-1.431.288-1.898.782a2.393 2.393 0 0 0-.664 1.793c.015.266.22 1.359.243 1.482.245 1.38 1.16 2.272 2.328 2.272 1.172 0 2.063-.868 2.327-2.266.038-.204.232-1.233.244-1.493a2.44 2.44 0 0 0-.683-1.805c-.466-.486-1.153-.765-1.887-.765"/>
    </g>
</svg>
