<?xml version="1.0" encoding="UTF-8"?>
<svg width="18px" height="18px" viewBox="0 0 18 18" version="1.1" xmlns="http://www.w3.org/2000/svg" xmlns:xlink="http://www.w3.org/1999/xlink">
    <!-- Generator: sketchtool 50.2 (55047) - http://www.bohemiancoding.com/sketch -->
    <title>1CE6891E-9F66-43E8-94C8-5D538DE59F14</title>
    <desc>Created with sketchtool.</desc>
    <defs>
        <polygon id="path-1" points="0.000145299462 0.3587 14.506 0.3587 14.506 14 0.000145299462 14"></polygon>
    </defs>
    <g id="Nav" stroke="none" stroke-width="1" fill="none" fill-rule="evenodd">
        <g id="Nav_Assets" transform="translate(-30.000000, -60.000000)">
            <g id="Medical" transform="translate(30.000000, 60.000000)"></g>
            <g id="clientsetup" transform="translate(30.000000, 60.000000)"></g>
            <g id="download" transform="translate(30.000000, 60.000000)">
                <g id="Page-1" transform="translate(2.000000, 1.000000)">
                    <path d="M4.3862,7.2966 C4.1642,7.0676 3.8322,7.0926 3.6542,7.3416 C3.5252,7.5226 3.5522,7.7656 3.7272,7.9536 C4.3902,8.6676 5.0542,9.3796 5.7182,10.0916 C6.0852,10.4856 6.4532,10.8796 6.8192,11.2746 C6.9332,11.3976 7.0642,11.4676 7.2362,11.4526 C7.3832,11.4406 7.4862,11.3546 7.5812,11.2526 C8.3182,10.4616 9.0562,9.6706 9.7932,8.8796 C10.0842,8.5676 10.3762,8.2556 10.6662,7.9426 C10.8352,7.7586 10.8582,7.5246 10.7292,7.3396 C10.5442,7.0746 10.2102,7.0606 9.9732,7.3136 C9.2402,8.0976 8.5092,8.8826 7.7782,9.6686 C7.7512,9.6976 7.7362,9.7376 7.7152,9.7726 C7.7002,9.7626 7.6852,9.7536 7.6702,9.7436 L7.6702,9.6006 L7.6702,0.6246 C7.6702,0.5666 7.6702,0.5076 7.6672,0.4506 C7.6552,0.2136 7.4932,0.0446 7.2442,0.0046 C7.0432,-0.0274 6.8122,0.1066 6.7452,0.3096 C6.7162,0.3976 6.7132,0.4966 6.7132,0.5906 C6.7122,3.5946 6.7122,6.5996 6.7122,9.6036 L6.7122,9.7716 C6.6662,9.7286 6.6412,9.7076 6.6202,9.6836 C6.1612,9.1936 5.7032,8.7036 5.2442,8.2126 C4.9592,7.9066 4.6772,7.5976 4.3862,7.2966" id="Fill-1" fill="#21BDC3"></path>
                    <path d="M0.8354,5.008 C0.8354,4.928 0.8354,4.61 0.8354,5.008" id="Fill-3" fill="#21BDC3"></path>
                    <g id="Group-7" transform="translate(0.000000, 1.581500)">
                        <mask id="mask-2" fill="white">
                            <use xlink:href="#path-1"></use>
                        </mask>
                        <g id="Clip-6"></g>
                        <path d="M14.2983,1.7527 C13.8523,0.8347 13.1123,0.3667 12.1003,0.3637 C10.9813,0.3607 10.8083,0.3597 9.6423,0.3597 L9.6423,0.3627 L8.8243,0.3627 C8.7813,0.3627 8.7373,0.3617 8.6943,0.3647 C8.4463,0.3797 8.2653,0.6157 8.3153,0.8587 C8.3613,1.0807 8.5233,1.1987 8.7873,1.1987 C9.7723,1.1997 9.0563,1.1997 10.0423,1.1997 L10.0453,1.1967 C10.8613,1.1967 11.1323,1.1967 12.1403,1.1987 C12.9053,1.1987 13.5113,1.6987 13.6483,2.4427 C13.6693,2.5557 13.6703,2.6707 13.6703,2.7797 L13.6703,3.1287 C13.6703,6.2697 13.6703,8.4387 13.6743,11.5797 C13.6753,12.4557 13.0923,12.9857 12.5143,13.1227 C12.4103,13.1477 12.2983,13.1607 12.1883,13.1607 C10.0023,13.1617 7.8153,13.1617 5.6293,13.1617 L3.9583,13.1617 L2.3133,13.1617 C1.5463,13.1617 0.8863,12.5407 0.8413,11.7767 C0.8373,11.6937 0.8353,11.6107 0.8353,11.5277 L0.8353,3.8877 C0.8353,3.6757 0.8353,3.5287 0.8353,3.4267 C0.8353,3.4877 0.8343,3.4117 0.8333,2.7857 C0.8333,2.3497 0.9493,2.0037 1.1903,1.7307 C1.5013,1.3767 1.9013,1.1967 2.3793,1.1967 L2.3813,1.1967 C3.4083,1.1987 3.4633,1.1997 4.4893,1.1977 L4.6583,1.1977 L4.6583,1.1957 L5.5483,1.1957 C5.5913,1.1957 5.6343,1.1967 5.6783,1.1937 C5.9263,1.1787 6.1073,0.9427 6.0573,0.6997 C6.0113,0.4777 5.8503,0.3587 5.5863,0.3587 C4.6003,0.3587 5.3163,0.3587 4.3313,0.3587 L4.3273,0.3607 C3.5773,0.3617 3.3873,0.3637 2.4123,0.3657 C2.1253,0.3667 1.8553,0.4057 1.6313,0.4807 C0.6263,0.8127 0.0023,1.6807 0.0013,2.7477 C-0.0007,7.3207 0.0003,7.0297 0.0013,11.6047 C0.0013,11.9917 0.0693,12.3187 0.2073,12.6067 C0.6523,13.5237 1.3883,13.9917 2.3943,13.9947 C4.7903,14.0027 7.2253,13.9997 9.5803,13.9987 L12.1173,13.9977 C12.7273,13.9977 13.2593,13.8027 13.6993,13.4177 C14.2343,12.9477 14.5063,12.3287 14.5063,11.5767 L14.5063,2.8007 C14.5063,2.3767 14.4403,2.0447 14.2983,1.7527" id="Fill-5" fill="#21BDC3" mask="url(#mask-2)"></path>
                    </g>
                </g>
            </g>
        </g>
    </g>
</svg>
