<?xml version="1.0" encoding="UTF-8"?>
<svg width="20px" height="20px" viewBox="0 0 20 20" version="1.1" xmlns="http://www.w3.org/2000/svg" xmlns:xlink="http://www.w3.org/1999/xlink">
    <!-- Generator: sketchtool 49 (51002) - http://www.bohemiancoding.com/sketch -->
    <title>27041B48-523A-4EF6-A1FB-55A738B2B714</title>
    <desc>Created with sketchtool.</desc>
    <defs></defs>
    <g id="Page-1" stroke="none" stroke-width="1" fill="none" fill-rule="evenodd">
        <g id="Assets" transform="translate(-55.000000, -6.000000)" fill="#AAAFB2">
            <g id="Vision" transform="translate(55.000000, 6.000000)">
                <path d="M18.4486957,10.1573967 C16.5003727,12.3423424 14.7259627,14.564462 11.7674534,15.2409293 C8.46906832,15.9956576 6.00795031,14.4715272 3.42459627,12.3912554 C2.61813665,11.7416902 1.9463354,10.9312011 1.2084472,10.1979946 C1.03204969,10.0223967 1.03354037,9.87957065 1.19552795,9.6809837 C3.10658385,7.3507663 4.92968944,5.17853804 7.97118012,4.59940761 C8.25192547,4.54560326 8.53714286,4.50940761 8.82186335,4.48446196 C9.14782609,4.45609239 9.4752795,4.44924457 9.77291925,4.43457065 C12.9530435,4.46489674 15.0340373,6.24582065 17.237764,8.38429891 C17.6640994,8.79810326 18.0352795,9.26669022 18.4387578,9.7034837 C18.5828571,9.86049457 18.5947826,9.99304891 18.4486957,10.1573967 M19.4544099,9.57679891 C18.3875776,8.19794022 17.2631056,7.03136413 15.9418634,5.87799457 C13.4310559,3.68669022 10.0104348,2.83511413 6.69465839,4.03397283 C3.93937888,5.03033152 2.07254658,7.30136413 0.129192547,9.6247337 C-0.0596273292,9.85022283 -0.0337888199,10.0659293 0.156521739,10.274788 C0.800993789,10.9845163 1.39826087,11.7451141 2.10136646,12.3941902 C4.40496894,14.5219076 6.5957764,16.2539185 9.79975155,16.2847337 C9.79826087,16.2764185 9.79627329,16.2681033 9.79975155,16.2847337 C10.8347826,16.2925598 11.4996273,16.3067446 12.4904348,16.038212 C15.5125466,15.2203859 17.6392547,12.6377772 19.5045963,10.2283207 C19.6879503,9.99060326 19.6218634,9.79397283 19.4544099,9.57679891" id="Fill-4"></path>
                <path d="M9.82270807,13.1513641 C8.0338882,13.1611467 6.55214907,11.7235924 6.54221118,9.96908152 C6.5317764,8.16859239 8.01053416,6.70853804 9.8386087,6.71440761 C11.597118,6.71929891 13.056,8.15440761 13.0788571,9.90207065 C13.1017143,11.6741902 11.6314037,13.1415815 9.82270807,13.1513641 M9.83115528,5.87065761 C7.53202484,5.86527717 5.68556522,7.67408152 5.68357764,9.933375 C5.68208696,12.172125 7.51960248,13.9951141 9.78693168,14.0029402 C12.0761242,14.0117446 13.9355031,12.1887554 13.936,9.93630978 C13.9364969,7.69658152 12.0984845,5.87603804 9.83115528,5.87065761" id="Fill-7"></path>
                <path d="M9.8192795,8.508 C9.03219876,8.508 8.39418634,9.13604348 8.39418634,9.91033696 C8.39418634,10.6851196 9.03219876,11.313163 9.8192795,11.313163 C10.6063602,11.313163 11.2443727,10.6851196 11.2443727,9.91033696 C11.2443727,9.13604348 10.6063602,8.508 9.8192795,8.508" id="Fill-9"></path>
            </g>
        </g>
    </g>
</svg>