<?xml version="1.0" encoding="UTF-8"?>
<svg width="20px" height="20px" viewBox="0 0 20 20" version="1.1" xmlns="http://www.w3.org/2000/svg" xmlns:xlink="http://www.w3.org/1999/xlink">
    <!-- Generator: sketchtool 49 (51002) - http://www.bohemiancoding.com/sketch -->
    <title>7C3FE278-402C-4B2B-9B75-4A3967E9DDED</title>
    <desc>Created with sketchtool.</desc>
    <defs></defs>
    <g id="Page-1" stroke="none" stroke-width="1" fill="none" fill-rule="evenodd">
        <g id="Assets" transform="translate(-80.000000, -36.000000)" fill="#21BDC3">
            <g id="LifeInsurance" transform="translate(80.000000, 36.000000)">
                <path d="M7.90755556,9.96911111 C8.38644444,9.35911111 8.99977778,9.02911111 9.77088889,9.02577778 C10.5486667,9.02244444 11.1564444,9.37244444 11.6431111,9.97911111 C12.1175556,9.34688889 12.7397778,9.03133333 13.5086667,9.02688889 C14.2808889,9.02355556 14.8875556,9.37355556 15.3675556,9.95244444 C16.2642222,8.94911111 17.2975556,8.74466667 18.4864444,9.36466667 C17.8186667,5.87911111 14.5386667,2.37466667 9.82533333,2.34244444 C5.20977778,2.31133333 1.772,5.70466667 1.05977778,9.36688889 C2.252,8.74466667 3.292,8.94466667 4.18311111,9.95577778 C4.652,9.33911111 5.27977778,9.02355556 6.04422222,9.02022222 C6.812,9.01688889 7.42977778,9.35133333 7.90755556,9.96911111 M10.2386667,9.97022222 C10.2486667,10.0202222 10.2675556,10.0691111 10.2675556,10.118 C10.2686667,12.5802222 10.2664444,15.0413333 10.2697778,17.5035556 C10.2708889,18.1146667 10.0931111,18.6557778 9.67866667,19.108 C9.06755556,19.7735556 8.10866667,20.0046667 7.262,19.698 C6.41088889,19.3902222 5.832,18.608 5.78422222,17.6991111 C5.76866667,17.4068889 5.92088889,17.2046667 6.16755556,17.188 C6.43088889,17.1691111 6.60311111,17.3435556 6.62422222,17.6468889 C6.682,18.4635556 7.38311111,19.0524444 8.18422222,18.9568889 C8.91422222,18.8702222 9.42866667,18.2835556 9.42755556,17.5302222 C9.42422222,15.8435556 9.41755556,14.1568889 9.412,12.4691111 C9.40866667,11.6624444 9.40533333,10.8557778 9.40311111,10.0491111 C9.40311111,10.008 9.40977778,9.968 9.41422222,9.91022222 C9.04311111,9.998 8.76977778,10.1868889 8.56422222,10.478 C8.39755556,10.7135556 8.31644444,10.978 8.30088889,11.2657778 C8.29422222,11.4057778 8.24644444,11.5324444 8.12311111,11.6157778 C7.85088889,11.7991111 7.49866667,11.6357778 7.46755556,11.3024444 C7.442,11.0235556 7.39311111,10.758 7.23866667,10.5168889 C6.66866667,9.63022222 5.32644444,9.648 4.78533333,10.5513333 C4.64755556,10.7791111 4.59088889,11.0235556 4.57088889,11.2857778 C4.54755556,11.5935556 4.25977778,11.7713333 3.98755556,11.6568889 C3.81311111,11.5846667 3.73866667,11.4424444 3.72755556,11.2602222 C3.70977778,10.958 3.61311111,10.6857778 3.42533333,10.4457778 C2.81644444,9.66466667 1.64311111,9.70355556 1.08866667,10.5235556 C0.934222222,10.7502222 0.858666667,11.0024444 0.836444444,11.2735556 C0.814222222,11.5568889 0.637555556,11.718 0.380888889,11.7024444 C0.148666667,11.6868889 -0.00244444444,11.4968889 -0.000222222222,11.228 C0.0208888889,9.32688889 0.543111111,7.57577778 1.57088889,5.97577778 C2.20977778,4.98133333 3.00644444,4.13355556 3.95755556,3.43355556 C5.52866667,2.278 7.28866667,1.64355556 9.23533333,1.53022222 C9.26311111,1.52911111 9.28977778,1.52577778 9.332,1.52133333 C9.33422222,1.47355556 9.33755556,1.42577778 9.33755556,1.378 C9.33755556,0.733555556 9.33755556,1.06022222 9.33755556,0.416888889 C9.33755556,0.173555556 9.50755556,-0.000888888889 9.74088889,0.000222222222 C9.97977778,0.00133333333 10.1508889,0.171333333 10.1508889,0.412444444 C10.1508889,1.10133333 10.1508889,0.820222222 10.1508889,1.52022222 C10.3953333,1.54244444 10.6386667,1.55911111 10.8797778,1.588 C12.632,1.79466667 14.2186667,2.42466667 15.6253333,3.49133333 C17.6108889,4.998 18.8342222,6.98911111 19.3386667,9.42466667 C19.4631111,10.0302222 19.5197778,10.6435556 19.5164444,11.2624444 C19.5153333,11.518 19.3542222,11.6991111 19.1208889,11.7091111 C18.8775556,11.7202222 18.6964444,11.5591111 18.682,11.2935556 C18.6408889,10.5657778 18.1375556,10.0335556 17.4908889,9.91133333 C16.672,9.75688889 15.8997778,10.3335556 15.7975556,11.1691111 C15.7875556,11.2546667 15.7808889,11.3424444 15.7542222,11.4224444 C15.6964444,11.6046667 15.5208889,11.7124444 15.332,11.6968889 C15.1475556,11.6813333 14.9875556,11.5391111 14.9564444,11.358 C14.9442222,11.2868889 14.942,11.2135556 14.9353333,11.1413333 C14.8408889,10.1546667 13.722,9.55244444 12.8486667,10.0191111 C12.3508889,10.2857778 12.0575556,10.6802222 12.0531111,11.2657778 C12.052,11.5102222 11.8753333,11.6891111 11.6531111,11.6957778 C11.4186667,11.7035556 11.2364444,11.5424444 11.2175556,11.288 C11.192,10.958 11.102,10.6568889 10.8942222,10.3946667 C10.7308889,10.1913333 10.522,10.058 10.2386667,9.97022222" id="Fill-1"></path>
                <path d="M13.8844444,4.66577778 C14.8788889,5.64577778 15.3077778,6.72244444 15.3433333,7.96577778 C15.3511111,8.21577778 15.2544444,8.35355556 15.0266667,8.42577778 C14.8677778,8.47577778 14.6622222,8.40133333 14.5733333,8.23688889 C14.5277778,8.15466667 14.5122222,8.048 14.5088889,7.95244444 C14.4833333,7.35355556 14.3488889,6.78577778 14.0577778,6.26244444 C13.5533333,5.35466667 12.8288889,4.71911111 11.8044444,4.45688889 C11.6855556,4.42577778 11.5588889,4.38133333 11.4644444,4.30577778 C11.3211111,4.19355556 11.2955556,3.968 11.3755556,3.82022222 C11.4722222,3.64244444 11.6255556,3.56244444 11.83,3.60133333 C12.3211111,3.69133333 12.78,3.87355556 13.1944444,4.148 C13.4733333,4.33244444 13.73,4.54911111 13.8844444,4.66577778" id="Fill-4"></path>
            </g>
        </g>
    </g>
</svg>