<?xml version="1.0" encoding="UTF-8"?>
<svg width="20px" height="20px" viewBox="0 0 20 20" version="1.1" xmlns="http://www.w3.org/2000/svg" xmlns:xlink="http://www.w3.org/1999/xlink">
    <!-- Generator: sketchtool 49 (51002) - http://www.bohemiancoding.com/sketch -->
    <title>72B551BC-71D3-44EE-BD89-B5AE6C1C9B60</title>
    <desc>Created with sketchtool.</desc>
    <defs>
        <polygon id="path-1" points="0 0.186 12.626894 0.186 12.626894 18.9999 0 18.9999"></polygon>
    </defs>
    <g id="Page-1" stroke="none" stroke-width="1" fill="none" fill-rule="evenodd">
        <g id="Assets" transform="translate(-184.000000, -36.000000)">
            <g id="NetworkTools" transform="translate(184.000000, 36.000000)">
                <g id="Page-1" transform="translate(4.000000, 0.000000)">
                    <g id="Group-3" transform="translate(0.000000, 0.814500)">
                        <mask id="mask-2" fill="white">
                            <use xlink:href="#path-1"></use>
                        </mask>
                        <g id="Clip-2"></g>
                        <path d="M11.1511,8.9399 C10.8411,9.5349 10.5061,10.1309 10.1821,10.7079 C10.0541,10.9349 9.9261,11.1619 9.8001,11.3889 L6.3091,17.6699 L5.5761,16.3499 C4.4711,14.3629 3.3671,12.3759 2.2651,10.3869 L2.0861,10.0649 C1.8481,9.6399 1.6021,9.2009 1.3861,8.7579 C0.9521,7.8639 0.7901,6.9089 0.9031,5.9179 C1.0441,4.6899 1.5411,3.6219 2.3811,2.7459 C3.1481,1.9459 4.0581,1.4279 5.0871,1.2059 C5.5281,1.1099 5.9591,1.0629 6.3771,1.0629 C7.6661,1.0629 8.8441,1.5149 9.8901,2.4159 C10.8511,3.2429 11.4521,4.3099 11.6751,5.5859 C11.8801,6.7509 11.7031,7.8789 11.1511,8.9399 M12.4591,5.0819 C12.1701,3.8339 11.5451,2.7569 10.6011,1.8819 C9.4031,0.7719 7.9621,0.2169 6.1931,0.1859 L6.1781,0.1859 C6.1221,0.1909 6.0561,0.1959 5.9831,0.2019 C5.7901,0.2159 5.5501,0.2339 5.3111,0.2729 C4.1281,0.4649 3.0821,0.9509 2.2031,1.7179 C0.8441,2.9029 0.1061,4.4219 0.0081,6.2329 C-0.0449,7.2329 0.1511,8.1979 0.5891,9.0999 C0.8091,9.5539 1.0591,10.0019 1.3001,10.4349 L1.4571,10.7189 C1.8381,11.4089 2.2221,12.0979 2.6061,12.7869 L5.9051,18.7329 C6.0021,18.9099 6.1381,18.9999 6.3081,18.9999 C6.3171,18.9999 6.3251,18.9999 6.3331,18.9999 C6.5471,18.9889 6.6531,18.8459 6.7211,18.7229 C7.1511,17.9439 7.5841,17.1669 8.0171,16.3889 L8.5431,15.4419 C9.3551,13.9819 10.1661,12.5229 10.9761,11.0629 L11.2391,10.5919 C11.4741,10.1759 11.7161,9.7459 11.9371,9.3119 C12.6231,7.9649 12.7981,6.5419 12.4591,5.0819" id="Fill-1" fill="#21BDC3" mask="url(#mask-2)"></path>
                    </g>
                    <path d="M6.3757,9.5694 L6.3747,9.5694 C5.7227,9.5694 5.1087,9.3144 4.6467,8.8504 C4.1877,8.3884 3.9367,7.7774 3.9397,7.1304 C3.9467,5.7904 5.0397,4.6994 6.3747,4.6984 L6.3767,4.6984 C7.0287,4.6984 7.6417,4.9534 8.1027,5.4164 C8.5627,5.8784 8.8137,6.4894 8.8107,7.1374 C8.8037,8.4774 7.7117,9.5684 6.3757,9.5694 M6.3767,3.8044 L6.3737,3.8044 C4.5437,3.8044 3.0517,5.2944 3.0457,7.1264 C3.0427,8.0114 3.3887,8.8474 4.0187,9.4804 C4.6487,10.1124 5.4857,10.4624 6.3737,10.4634 L6.3757,10.4634 C8.2067,10.4634 9.6997,8.9734 9.7047,7.1404 C9.7067,6.2554 9.3607,5.4194 8.7317,4.7874 C8.1017,4.1544 7.2647,3.8054 6.3767,3.8044" id="Fill-4" fill="#21BDC3"></path>
                    <path d="M6.4148,5.126 C6.0578,5.146 5.7538,5.227 5.4888,5.373 C4.8088,5.747 4.4308,6.338 4.3658,7.131 L4.3658,7.136 C4.3598,7.272 4.3728,7.467 4.5498,7.596 C4.6338,7.657 4.7258,7.689 4.8188,7.689 C4.8868,7.689 4.9548,7.672 5.0218,7.639 C5.1818,7.562 5.2718,7.423 5.2748,7.248 C5.2808,6.975 5.3518,6.748 5.4928,6.553 C5.7268,6.228 6.0398,6.059 6.4478,6.038 C6.7488,6.022 6.9378,5.835 6.9288,5.563 C6.9248,5.446 6.8718,5.332 6.7818,5.25 C6.6858,5.162 6.5548,5.12 6.4148,5.126" id="Fill-6" fill="#21BDC3"></path>
                </g>
            </g>
        </g>
    </g>
</svg>