<?xml version="1.0" encoding="UTF-8"?>
<svg width="20px" height="20px" viewBox="0 0 20 20" version="1.1" xmlns="http://www.w3.org/2000/svg" xmlns:xlink="http://www.w3.org/1999/xlink">
    <!-- Generator: sketchtool 49 (51002) - http://www.bohemiancoding.com/sketch -->
    <title>521EA390-7EDD-460D-9343-9B4C267F5F19</title>
    <desc>Created with sketchtool.</desc>
    <defs>
        <polygon id="path-1" points="0 22.5254682 9.21777273 22.5254682 9.21777273 1.04555909 0 1.04555909"></polygon>
    </defs>
    <g id="Page-1" stroke="none" stroke-width="1" fill="none" fill-rule="evenodd">
        <g id="Assets" transform="translate(-105.000000, -36.000000)">
            <g id="LongTerm" transform="translate(103.000000, 33.000000)">
                <g id="Page-1" transform="translate(11.755691, 13.120495) rotate(38.000000) translate(-11.755691, -13.120495) translate(6.755691, 1.620495)">
                    <g id="Group-3" transform="translate(0.000000, 0.570923)"></g>
                    <path d="M0.878913636,5.41430455 C0.878913636,5.03585 0.886231818,4.66680455 0.990777273,4.31239545 C1.43300455,2.82366818 2.89141364,1.82525909 4.62164091,1.82525909 L4.62895909,1.82525909 C5.53223182,1.82735 6.34036818,2.09812273 7.03141364,2.62921364 C7.87823182,3.28157727 8.31627727,4.11062273 8.33300455,5.09335 C8.34659545,5.94330455 8.34450455,6.79325909 8.34136818,7.64216818 L8.33927727,8.57366818 C8.33823182,11.6086227 8.33718636,14.6446227 8.33300455,17.6785318 L8.33405,17.8970318 C8.33509545,18.2085773 8.33718636,18.5305773 8.30059545,18.8400318 C8.21382273,19.5634864 7.86359545,20.2085318 7.25932273,20.7573955 C5.95459545,21.9084409 3.94627727,22.0757136 2.48055,21.1504864 C1.41941364,20.4793045 0.878913636,19.54885 0.876822727,18.3852591 C0.871595455,16.4605773 0.873686364,14.5358955 0.875777273,12.6112136 L0.878913636,8.84862273 C0.881004545,7.70385 0.883095455,6.55907727 0.878913636,5.41430455 Z M-0.000313636364,18.3737591 C-0.00135909091,19.39935 0.361413636,20.3026227 1.07859545,21.0574409 C1.87000455,21.8906682 2.87677727,22.3736682 4.06859545,22.4949409 C5.45068636,22.6350318 6.66236818,22.2910773 7.68586818,21.4714409 C8.61005,20.7312591 9.12023182,19.7966227 9.20073182,18.6926227 C9.22164091,18.3978045 9.21850455,18.0988045 9.21432273,17.8092136 L9.21118636,17.4767591 L9.21536818,8.26839545 C9.21850455,7.19889545 9.22059545,6.12835 9.20595909,5.05885 C9.19341364,4.00294091 8.73550455,3.05157727 7.84686818,2.23089545 L7.74650455,2.15144091 C7.66286818,2.08557727 7.56877727,2.01030455 7.46945909,1.94025909 C6.62055,1.34539545 5.67127727,1.04535 4.64045909,1.04535 C4.46795909,1.04535 4.29232273,1.05371364 4.11564091,1.07044091 C2.85168636,1.19066818 1.80309545,1.70503182 1.00123182,2.59680455 C0.336322727,3.33594091 -0.000313636364,4.21516818 0.00282272727,5.20939545 C0.00700454545,7.02639545 0.00595909091,8.84548636 0.00386818182,10.6635318 L-0.000313636364,18.3737591 Z" id="Fill-1" fill="#21BDC3"></path>
                    <path d="M4.26022727,5.96923182 C4.45154545,6.16055 4.75159091,6.16264091 4.945,5.97236818 C5.03909091,5.88036818 5.09240909,5.75073182 5.09345455,5.61795909 C5.09345455,5.48414091 5.04327273,5.35973182 4.95022727,5.26668636 C4.85509091,5.17259545 4.73172727,5.12450455 4.60627273,5.12450455 C4.48186364,5.12450455 4.3585,5.17155 4.26336364,5.26564091 C4.16927273,5.35868636 4.117,5.48309545 4.11595455,5.61586818 C4.11490909,5.74864091 4.16613636,5.87409545 4.26022727,5.96923182 Z" id="Fill-4" fill="#21BDC3"></path>
                    <path d="M2.45828182,5.96557273 C2.55341818,5.86939091 2.60464545,5.74289091 2.6036,5.60907273 C2.60255455,5.47734545 2.55028182,5.35398182 2.45619091,5.26198182 C2.3621,5.16998182 2.23873636,5.12398182 2.11537273,5.12398182 C1.98991818,5.12398182 1.86446364,5.17207273 1.76932727,5.26825455 C1.67837273,5.35816364 1.62714545,5.48675455 1.62819091,5.61952727 C1.62819091,5.7523 1.68150909,5.88089091 1.77350909,5.97289091 C1.96587273,6.16211818 2.26591818,6.15898182 2.45828182,5.96557273" id="Fill-6" fill="#21BDC3"></path>
                    <path d="M5.84220909,7.62314091 C5.97393636,7.62314091 6.09834545,7.56982273 6.19348182,7.47259545 C6.38584545,7.27918636 6.38689091,6.97600455 6.19766364,6.78259545 C6.10357273,6.68641364 5.97916364,6.63414091 5.84743636,6.63414091 C5.71675455,6.63414091 5.59443636,6.68641364 5.50139091,6.78050455 C5.3153,6.97077727 5.31425455,7.28232273 5.49720909,7.47468636 C5.58816364,7.56982273 5.71048182,7.62314091 5.83907273,7.62314091 L5.84220909,7.62314091 Z" id="Fill-8" fill="#21BDC3"></path>
                    <path d="M5.84074545,4.60418182 L5.84388182,4.60418182 C5.97560909,4.60418182 6.10001818,4.55086364 6.19410909,4.45468182 C6.38542727,4.26022727 6.38751818,3.95704545 6.19829091,3.76363636 C6.1042,3.66745455 5.98083636,3.61518182 5.84806364,3.61518182 C5.71633636,3.61518182 5.59401818,3.66745455 5.50201818,3.76154545 C5.31592727,3.95181818 5.31383636,4.26336364 5.49783636,4.45572727 C5.58879091,4.55086364 5.71006364,4.60418182 5.84074545,4.60418182" id="Fill-10" fill="#21BDC3"></path>
                    <path d="M3.69777273,4.46022273 C3.795,4.36299545 3.85040909,4.23858636 3.85040909,4.10999545 C3.85145455,3.98245 3.80022727,3.85908636 3.70613636,3.76290455 C3.61309091,3.66776818 3.48972727,3.61549545 3.36009091,3.61549545 L3.35904545,3.61549545 C3.22940909,3.61549545 3.10604545,3.66672273 3.013,3.76185909 C2.91995455,3.85699545 2.86872727,3.98349545 2.86977273,4.11835909 C2.87186364,4.25008636 2.92309091,4.37345 3.01613636,4.46440455 C3.20954545,4.65572273 3.50227273,4.65363182 3.69777273,4.46022273" id="Fill-12" fill="#21BDC3"></path>
                    <path d="M7.09142273,6.11162273 C7.21583182,6.10535 7.34233182,6.06144091 7.43642273,5.96630455 C7.62669545,5.77394091 7.63192273,5.47180455 7.44687727,5.27735 C7.35592273,5.18116818 7.23465,5.12680455 7.10292273,5.12471364 C7.10083182,5.12471364 7.09769545,5.12471364 7.09560455,5.12471364 C6.96596818,5.12471364 6.84574091,5.17489545 6.75269545,5.26794091 C6.56033182,5.45925909 6.55615,5.76348636 6.74328636,5.95794091 C6.83737727,6.05516818 6.96074091,6.11057727 7.09142273,6.11162273" id="Fill-14" fill="#21BDC3"></path>
                    <path d="M3.3557,7.62209545 C3.48638182,7.62209545 3.61288182,7.56668636 3.70697273,7.46841364 C3.89829091,7.27082273 3.89724545,6.97495909 3.70383636,6.77945909 C3.61079091,6.68536818 3.48742727,6.63518636 3.35779091,6.63518636 L3.35256364,6.63518636 C3.22188182,6.63623182 3.09956364,6.68955 3.00860909,6.78468636 C2.82565455,6.97809545 2.8267,7.28859545 3.01279091,7.47782273 C3.10479091,7.57086818 3.22501818,7.62209545 3.35360909,7.62209545 L3.3557,7.62209545 Z" id="Fill-16" fill="#21BDC3"></path>
                    <mask id="mask-2" fill="white">
                        <use xlink:href="#path-1"></use>
                    </mask>
                    <g id="Clip-19"></g>
                    <path d="M2.41813636,13.6192409 L6.77872727,13.6192409 L6.77872727,10.0218318 L2.41813636,10.0218318 L2.41813636,13.6192409 Z M1.67795455,9.88278636 L1.67795455,13.7572409 C1.67795455,14.0447409 1.94036364,14.2778773 2.26236364,14.2778773 L6.93345455,14.2778773 C7.25545455,14.2778773 7.51786364,14.0447409 7.51786364,13.7572409 L7.51786364,9.88278636 C7.51786364,9.59528636 7.25545455,9.36215 6.93345455,9.36215 L2.26236364,9.36215 C1.94036364,9.36215 1.67795455,9.59528636 1.67795455,9.88278636 Z" id="Fill-18" fill="#21BDC3" mask="url(#mask-2)"></path>
                    <path d="M4.21684091,18.3840045 C4.40711364,18.5753227 4.70820455,18.5774136 4.90161364,18.3871409 C4.99570455,18.2951409 5.04902273,18.1655045 5.04902273,18.0327318 C5.05006818,17.8989136 4.99988636,17.7745045 4.90684091,17.6814591 C4.81170455,17.5873682 4.68729545,17.5392773 4.56288636,17.5392773 C4.43847727,17.5392773 4.31406818,17.5863227 4.21997727,17.6804136 C4.12588636,17.7734591 4.07361364,17.8978682 4.07256818,18.0306409 C4.07152273,18.1634136 4.12275,18.2888682 4.21684091,18.3840045 Z" id="Fill-20" fill="#21BDC3" mask="url(#mask-2)"></path>
                    <path d="M2.41489545,18.3803455 C2.50898636,18.2841636 2.56125909,18.1576636 2.56021364,18.0238455 C2.55916818,17.8921182 2.50689545,17.7687545 2.41280455,17.6767545 C2.31871364,17.5847545 2.19535,17.5387545 2.07198636,17.5387545 C1.94653182,17.5387545 1.82107727,17.5868455 1.72594091,17.6830273 C1.63498636,17.7729364 1.58375909,17.9015273 1.58480455,18.0343 C1.58480455,18.1670727 1.63707727,18.2956636 1.73012273,18.3876636 C1.92248636,18.5768909 2.22253182,18.5737545 2.41489545,18.3803455" id="Fill-21" fill="#21BDC3" mask="url(#mask-2)"></path>
                    <path d="M5.79882273,20.0379136 C5.92950455,20.0379136 6.05495909,19.9845955 6.15009545,19.8873682 C6.34245909,19.6939591 6.34350455,19.3907773 6.15427727,19.1973682 C6.06018636,19.1011864 5.93577727,19.0489136 5.80405,19.0489136 L5.80300455,19.0489136 C5.67336818,19.0489136 5.55000455,19.1011864 5.45800455,19.1952773 C5.27191364,19.38555 5.27086818,19.6970955 5.45382273,19.8894591 C5.54477727,19.9845955 5.66709545,20.0379136 5.79568636,20.0379136 L5.79882273,20.0379136 Z" id="Fill-22" fill="#21BDC3" mask="url(#mask-2)"></path>
                    <path d="M5.79735909,17.0189545 L5.80049545,17.0189545 C5.93117727,17.0189545 6.05663182,16.9656364 6.15072273,16.8694545 C6.34204091,16.675 6.34413182,16.3718182 6.15490455,16.1784091 C6.06081364,16.0822273 5.93745,16.0299545 5.80467727,16.0299545 L5.80363182,16.0299545 C5.67295,16.0299545 5.54958636,16.0822273 5.45758636,16.1763182 C5.27149545,16.3665909 5.27045,16.6781364 5.45445,16.8705 C5.54540455,16.9656364 5.66667727,17.0189545 5.79735909,17.0189545" id="Fill-23" fill="#21BDC3" mask="url(#mask-2)"></path>
                    <path d="M3.65386364,16.8749955 C3.75213636,16.7777682 3.8065,16.6533591 3.8065,16.5247682 C3.80754545,16.3972227 3.75736364,16.2738591 3.66222727,16.1776773 C3.56918182,16.0825409 3.44686364,16.0302682 3.31618182,16.0302682 L3.31513636,16.0302682 C3.1855,16.0302682 3.06318182,16.0814955 2.96909091,16.1766318 C2.87604545,16.2717682 2.82586364,16.3982682 2.82690909,16.5331318 C2.82795455,16.6648591 2.88022727,16.7882227 2.97327273,16.8791773 C3.16563636,17.0704955 3.45836364,17.0684045 3.65386364,16.8749955" id="Fill-24" fill="#21BDC3" mask="url(#mask-2)"></path>
                    <path d="M7.04751364,18.5263955 C7.17296818,18.5201227 7.29842273,18.4762136 7.39251364,18.3810773 C7.58278636,18.1887136 7.58801364,17.8865773 7.40296818,17.6921227 C7.31305909,17.5959409 7.19074091,17.5415773 7.06005909,17.5394864 C7.05692273,17.5394864 7.05483182,17.5394864 7.05169545,17.5394864 C6.92310455,17.5394864 6.80183182,17.5896682 6.70878636,17.6827136 C6.51642273,17.8740318 6.51224091,18.1782591 6.69937727,18.3727136 C6.79346818,18.4699409 6.91787727,18.52535 7.04751364,18.5263955" id="Fill-25" fill="#21BDC3" mask="url(#mask-2)"></path>
                    <path d="M3.31231364,20.0368682 C3.44299545,20.0368682 3.56845,19.9814591 3.66358636,19.8831864 C3.85490455,19.6855955 3.85385909,19.3897318 3.66045,19.1942318 C3.56740455,19.1001409 3.44404091,19.0499591 3.31440455,19.0499591 L3.30917727,19.0499591 C3.17849545,19.0510045 3.05617727,19.1043227 2.96522273,19.1994591 C2.78122273,19.3928682 2.78331364,19.7033682 2.96940455,19.8925955 C3.06140455,19.9856409 3.18163182,20.0368682 3.31022273,20.0368682 L3.31231364,20.0368682 Z" id="Fill-26" fill="#21BDC3" mask="url(#mask-2)"></path>
                </g>
            </g>
        </g>
    </g>
</svg>