<?xml version="1.0" encoding="UTF-8"?>
<svg width="20px" height="20px" viewBox="0 0 20 20" version="1.1" xmlns="http://www.w3.org/2000/svg" xmlns:xlink="http://www.w3.org/1999/xlink">
    <!-- Generator: sketchtool 49 (51002) - http://www.bohemiancoding.com/sketch -->
    <title>1B8E0DFA-8E50-4762-9734-92D4AF302533</title>
    <desc>Created with sketchtool.</desc>
    <defs>
        <polygon id="path-1" points="0 0.6384 13.35656 0.6384 13.35656 9.6489125 0 9.6489125"></polygon>
        <polygon id="path-3" points="0.333293333 0.48982 13.6892 0.48982 13.6892 9.5 0.333293333 9.5"></polygon>
    </defs>
    <g id="Page-1" stroke="none" stroke-width="1" fill="none" fill-rule="evenodd">
        <g id="Assets" transform="translate(-131.000000, -36.000000)">
            <g id="ComparePlans" transform="translate(131.000000, 36.000000)">
                <g id="Group" transform="translate(3.000000, 0.000000)">
                    <g id="Page-1">
                        <g id="Group-3">
                            <mask id="mask-2" fill="white">
                                <use xlink:href="#path-1"></use>
                            </mask>
                            <g id="Clip-2"></g>
                            <path d="M0.06776,4.91245 C0.02016,5.0065 -0.000373333333,5.08155 -0.000373333333,5.1566 C-0.000373333333,5.3067 0.06776,5.4473 0.189093333,5.5537 L3.48189333,9.5171 C3.65269333,9.6881 4.01296,9.70235 4.20989333,9.50285 C4.30789333,9.40215 4.36296,9.2682 4.36296,9.1257 C4.36296,8.98225 4.30789333,8.8483 4.20989333,8.74855 L1.67122667,5.68955 L12.8320267,5.68955 C13.12136,5.68955 13.35656,5.45015 13.35656,5.1566 C13.35656,4.8621 13.12136,4.6227 12.8320267,4.6227 L1.65816,4.6227 L4.19682667,1.56275 C4.30789333,1.44875 4.36296,1.31385 4.36296,1.17135 C4.36296,1.02885 4.30789333,0.8949 4.20989333,0.7942 C4.11189333,0.69445 3.97936,0.6384 3.83936,0.6384 C3.69936,0.6384 3.56776,0.69445 3.46882667,0.7942 L0.125626667,4.79275 C0.12936,4.79655 0.10136,4.8412 0.06776,4.91245" id="Fill-1" fill="#21BDC3" mask="url(#mask-2)"></path>
                        </g>
                        <g id="Group-6" transform="translate(0.000000, 9.500000)">
                            <mask id="mask-4" fill="white">
                                <use xlink:href="#path-3"></use>
                            </mask>
                            <g id="Clip-5"></g>
                            <path d="M13.62116,5.226045 C13.66876,5.131995 13.6892933,5.056945 13.6892933,4.982845 C13.6892933,4.832745 13.62116,4.691195 13.4998267,4.584795 L10.2070267,0.622345 C10.0362267,0.450395 9.67596,0.436145 9.47902667,0.636595 C9.38102667,0.736345 9.32596,0.870295 9.32596,1.012795 C9.32596,1.156245 9.38102667,1.290195 9.47902667,1.389945 L12.0176933,4.448945 L0.856893333,4.448945 C0.56756,4.448945 0.333293333,4.688345 0.333293333,4.982845 C0.333293333,5.276395 0.56756,5.515795 0.856893333,5.515795 L12.03076,5.515795 L9.49209333,8.575745 C9.38102667,8.689745 9.32596,8.824645 9.32596,8.967145 C9.32596,9.109645 9.38102667,9.243595 9.47902667,9.344295 C9.57702667,9.444045 9.70956,9.500095 9.84956,9.500095 C9.98956,9.500095 10.12116,9.444045 10.2200933,9.344295 L13.5632933,5.346695 C13.55956,5.341945 13.58756,5.297295 13.62116,5.226045" id="Fill-4" fill="#21BDC3" mask="url(#mask-4)"></path>
                        </g>
                    </g>
                </g>
            </g>
        </g>
    </g>
</svg>