<?xml version="1.0" encoding="UTF-8"?>
<svg width="20px" height="20px" viewBox="0 0 20 20" version="1.1" xmlns="http://www.w3.org/2000/svg" xmlns:xlink="http://www.w3.org/1999/xlink">
    <!-- Generator: sketchtool 49 (51002) - http://www.bohemiancoding.com/sketch -->
    <title>1DC3DF41-A9B4-460C-9E6C-973EF61AB7D2</title>
    <desc>Created with sketchtool.</desc>
    <defs>
        <polygon id="path-1" points="1.31064711e-05 0.171833202 15.7183992 0.171833202 15.7183992 18.8827166 1.31064711e-05 18.8827166"></polygon>
    </defs>
    <g id="Page-1" stroke="none" stroke-width="1" fill="none" fill-rule="evenodd">
        <g id="Assets" transform="translate(-30.000000, -36.000000)">
            <g id="Dental" transform="translate(32.000000, 36.000000)">
                <g id="dental_icon">
                    <g id="Page-1">
                        <g id="Group-3" transform="translate(0.000000, 0.300330)">
                            <mask id="mask-2" fill="white">
                                <use xlink:href="#path-1"></use>
                            </mask>
                            <g id="Clip-2"></g>
                        </g>
                    </g>
                </g>
            </g>
            <g id="Dental" transform="translate(30.000000, 36.000000)">
                <g id="Group-2" transform="translate(13.000000, 4.000000)"></g>
                <path d="M4.61891765,14.2005507 C4.61891765,15.4892998 4.61750588,16.4881983 4.61938824,17.4870968 C4.62032941,18.0228954 4.79303529,18.2768686 5.21232941,18.3741149 C5.62268235,18.4690008 5.86409412,18.3330448 6.10597647,17.8605035 C6.88574118,16.336664 7.66550588,14.8128245 8.44150588,13.2870968 C8.73656471,12.7069237 9.20103529,12.3793076 9.84997647,12.381668 C10.4984471,12.3840283 10.9633882,12.7144768 11.2523294,13.2970102 C11.3671529,13.5287962 11.4890353,13.7568057 11.6066824,13.9871755 C12.2791529,15.3028324 12.9478588,16.6208497 13.6264471,17.9336743 C13.8292706,18.3264359 14.1130353,18.4628639 14.4617412,18.3741149 C14.8024471,18.2877262 15.0132706,18.0063729 15.0353882,17.604642 C15.0415059,17.4941778 15.0372706,17.3832415 15.0377412,17.2718332 C15.0424471,15.6809599 15.0175059,14.0896145 15.0589176,12.4996853 C15.1200941,10.1209284 15.5977412,7.83186467 16.6283294,5.67073171 C17.0852706,4.71243116 17.0320941,3.74752164 16.4848,2.83973249 C15.2937412,0.864594807 12.5408,0.841463415 11.2942118,2.79252557 C11.0259765,3.21172305 10.7172706,3.5624705 10.2217412,3.69323367 C9.4448,3.89858379 8.73091765,3.56294256 8.35303529,2.81424076 C8.03209412,2.17883556 7.62597647,1.60385523 6.90785882,1.42446892 C5.59962353,1.0963808 4.39115294,1.32722266 3.4768,2.38040913 C2.58597647,3.40574351 2.54456471,4.57081039 3.07115294,5.80479937 C3.41797647,6.61817467 3.7408,7.44854445 3.98644706,8.29685287 C4.57185882,10.3182533 4.65844706,12.4000787 4.61891765,14.2005507 M3.83444706,14.6735641 C3.85938824,12.8707317 3.86785882,11.0631786 3.42174118,9.30377655 C3.15303529,8.24586939 2.85044706,7.17946499 2.41232941,6.18434304 C1.30409412,3.6667978 2.49656471,1.08882769 5.18974118,0.592210858 C6.84950588,0.285837923 8.09609412,0.45483871 9.10315294,2.41864673 C9.43115294,3.05782848 10.1186824,3.11872541 10.5539765,2.53855232 C10.7238588,2.31243116 10.8678588,2.06412274 11.0556235,1.854524 C12.3304471,0.431707317 14.3798588,0.156490952 15.9840941,1.18276947 C17.5417412,2.17930763 18.1643294,4.20873328 17.3784471,5.93697876 C16.3502118,8.1981904 15.8768,10.5675059 15.8612706,13.0392604 C15.8518588,14.5560189 15.8678588,16.0737215 15.8504471,17.5904799 C15.8372706,18.7243902 14.8236235,19.4537372 13.8010353,19.0878836 C13.3299765,18.9188828 13.0513882,18.5549174 12.8353882,18.1220299 C12.0711529,16.5906373 11.2984471,15.0630212 10.5351529,13.5306845 C10.3906824,13.240834 10.1803294,13.0482297 9.85515294,13.043037 C9.52997647,13.0387884 9.30127059,13.2162864 9.16621176,13.5127459 C9.14032941,13.5689221 9.11115294,13.6232101 9.08338824,13.6779701 C8.30974118,15.1914241 7.54221176,16.7081825 6.75962353,18.2164437 C6.35256471,19.0014949 5.59727059,19.2894571 4.80291765,18.9944138 C4.18974118,18.7664044 3.84621176,18.2622345 3.83727059,17.522502 C3.82550588,16.5726987 3.83444706,15.6233674 3.83444706,14.6735641" id="Fill-1" fill="#21BDC3"></path>
                <path d="M13.0405647,12.1195279 C13.1539765,9.80969315 13.5855059,7.56972463 14.4880941,5.43219512 C14.5120941,5.37554681 14.5379765,5.31937057 14.5605647,5.2622502 C14.6593882,5.01488592 14.8217412,4.84777341 15.0970353,4.97003934 C15.3535059,5.08380803 15.3925647,5.3174823 15.2989176,5.56673485 C15.1304471,6.01614477 14.9370353,6.45705744 14.7822118,6.91118804 C14.1120941,8.87830055 13.8264471,10.9096145 13.7991529,12.9829426 C13.7953882,13.2751534 13.8433882,13.6159874 13.4179765,13.660834 C13.1313882,13.6910464 13.0123294,13.4724784 13.0165647,12.9701967 C13.0184471,12.7728718 13.0236235,12.5755468 13.0288,12.3782219 C13.0306824,12.2918332 13.0363294,12.2059166 13.0405647,12.1195279" id="Fill-4" fill="#21BDC3"></path>
            </g>
        </g>
    </g>
</svg>