<?xml version="1.0" encoding="UTF-8"?>
<svg width="20px" height="20px" viewBox="0 0 20 20" version="1.1" xmlns="http://www.w3.org/2000/svg" xmlns:xlink="http://www.w3.org/1999/xlink">
    <!-- Generator: sketchtool 49 (51002) - http://www.bohemiancoding.com/sketch -->
    <title>8D995A7D-B812-4EE0-944E-75D9F2B59AE9</title>
    <desc>Created with sketchtool.</desc>
    <defs>
        <polygon id="path-1" points="0 0 16.6666667 0 16.6666667 20 0 20"></polygon>
    </defs>
    <g id="Page-1" stroke="none" stroke-width="1" fill="none" fill-rule="evenodd">
        <g id="Assets" transform="translate(-5.000000, -36.000000)">
            <g id="Medical" transform="translate(5.000000, 36.000000)">
                <g id="medical-icon" transform="translate(2.000000, 0.000000)">
                    <g id="Page-1">
                        <g id="Group-5">
                            <g id="Group-3">
                                <mask id="mask-2" fill="white">
                                    <use xlink:href="#path-1"></use>
                                </mask>
                                <g id="Clip-2"></g>
                                <path d="M14.6010163,19.2308861 L2.06712232,19.2308861 C1.3386189,19.2308861 0.746679164,18.6197468 0.745205455,17.9058228 L1.74143265,7.00202532 C1.74143265,6.25164557 2.33386362,5.64101266 3.06236704,5.64101266 L3.89648627,5.64101266 L3.89648627,6.78177215 L3.49563745,6.78177215 C3.24903683,6.78177215 3.04762996,6.98886076 3.04762996,7.2435443 C3.04762996,7.49772152 3.24903683,7.70481013 3.49563745,7.70481013 L5.08724304,7.70481013 C5.33433489,7.70481013 5.53525054,7.49772152 5.53525054,7.2435443 C5.53525054,6.98886076 5.33433489,6.78177215 5.08724304,6.78177215 L4.64316543,6.78177215 L4.64316543,5.64101266 L11.9085502,5.64101266 L11.9085502,6.78177215 L11.4566128,6.78177215 C11.2095209,6.78177215 11.0086053,6.98886076 11.0086053,7.2435443 C11.0086053,7.49772152 11.2095209,7.70481013 11.4566128,7.70481013 L13.0482184,7.70481013 C13.294819,7.70481013 13.4962259,7.49772152 13.4962259,7.2435443 C13.4962259,6.98886076 13.294819,6.78177215 13.0482184,6.78177215 L12.6547381,6.78177215 L12.6547381,5.64101266 L13.6057716,5.64101266 C14.334275,5.64101266 14.926706,6.25164557 14.9281797,7.03797468 L15.9214595,17.8698734 C15.9214595,18.6197468 15.3290285,19.2308861 14.6010163,19.2308861 Z M4.64316543,4.51341772 C4.64316543,2.44860759 6.27259621,0.769113924 8.27585781,0.769113924 C10.2786282,0.769113924 11.9085502,2.44860759 11.9085502,4.51341772 L11.9085502,4.87139241 L4.64316543,4.87139241 L4.64316543,4.51341772 Z M15.6728939,7.00202532 C15.6728939,5.82734177 14.745931,4.87139241 13.6057716,4.87139241 L12.6547381,4.87139241 L12.6547381,4.51341772 C12.6547381,2.0243038 10.6902842,0 8.27585781,0 C5.8609402,0 3.89648627,2.0243038 3.89648627,4.51341772 L3.89648627,4.87139241 L3.06236704,4.87139241 C1.92220761,4.87139241 0.995244727,5.82734177 0.996718436,6.96607595 L0,17.8698734 C0,19.0440506 0.927454119,20 2.06712232,20 L14.6010163,20 C15.7406845,20 16.6681386,19.0440506 16.6666649,17.8334177 L15.6728939,7.00202532 Z" id="Fill-1" fill="#21BDC3" mask="url(#mask-2)"></path>
                            </g>
                            <path d="M8.19304153,15.8191318 C6.57077091,15.8191318 5.25112851,14.4829938 5.25112851,12.8404448 C5.25112851,11.1983601 6.57077091,9.86222216 8.19304153,9.86222216 C9.81485361,9.86222216 11.134496,11.1983601 11.134496,12.8404448 C11.134496,14.4829938 9.81485361,15.8191318 8.19304153,15.8191318 M8.19304153,9.14772727 C6.18148099,9.14772727 4.54545455,10.804204 4.54545455,12.8404448 C4.54545455,14.8771499 6.18148099,16.5340909 8.19304153,16.5340909 C10.2041435,16.5340909 11.8406285,14.8771499 11.8406285,12.8404448 C11.8406285,10.804204 10.2041435,9.14772727 8.19304153,9.14772727" id="Fill-4" fill="#21BDC3"></path>
                            <path d="M9.7641374,12.4431818 L8.58603095,12.4431818 L8.58603095,11.2497818 C8.58603095,11.0307373 8.40978898,10.8522727 8.19304153,10.8522727 C7.97672498,10.8522727 7.8000521,11.0307373 7.8000521,11.2497818 L7.8000521,12.4431818 L6.62194565,12.4431818 C6.40562911,12.4431818 6.22895623,12.6216464 6.22895623,12.8406909 C6.22895623,13.0601718 6.40562911,13.2386364 6.62194565,13.2386364 L7.8000521,13.2386364 L7.8000521,14.4320364 C7.8000521,14.6510809 7.97672498,14.8295455 8.19304153,14.8295455 C8.40978898,14.8295455 8.58603095,14.6510809 8.58603095,14.4320364 L8.58603095,13.2386364 L9.7641374,13.2386364 C9.98045395,13.2386364 10.1571268,13.0601718 10.1571268,12.8406909 C10.1571268,12.6216464 9.98045395,12.4431818 9.7641374,12.4431818" id="Fill-6" fill="#21BDC3"></path>
                        </g>
                    </g>
                </g>
            </g>
        </g>
    </g>
</svg>