<?xml version="1.0" encoding="UTF-8"?>
<svg width="20px" height="20px" viewBox="0 0 20 20" version="1.1" xmlns="http://www.w3.org/2000/svg" xmlns:xlink="http://www.w3.org/1999/xlink">
    <!-- Generator: sketchtool 49 (51002) - http://www.bohemiancoding.com/sketch -->
    <title>D84847B6-A5A5-4B45-A01E-1CAF07529DA7</title>
    <desc>Created with sketchtool.</desc>
    <defs></defs>
    <g id="Page-1" stroke="none" stroke-width="1" fill="none" fill-rule="evenodd">
        <g id="Assets" transform="translate(-209.000000, -6.000000)" fill="#AAAFB2">
            <g id="Disclosures" transform="translate(209.000000, 6.000000)">
                <path d="M2.64779,10.2285 L12.00329,10.2285 C12.36079,10.2285 12.65119,9.9645 12.65119,9.6395 L12.65119,9.4605 C12.65119,9.1355 12.36079,8.8715 12.00329,8.8715 L2.64779,8.8715 C2.29029,8.8715 1.99989,9.1355 1.99989,9.4605 L1.99989,9.6395 C1.99989,9.9645 2.29029,10.2285 2.64779,10.2285" id="Fill-1"></path>
                <path d="M17.04064,4.1001 L2.62784,4.1001 C2.28224,4.1001 1.99957333,4.3641 1.99957333,4.6891 L1.99957333,4.8681 C1.99957333,5.1921 2.28224,5.4561 2.62784,5.4561 L17.04064,5.4561 C17.3873067,5.4561 17.6689067,5.1921 17.6689067,4.8681 L17.6689067,4.6891 C17.6689067,4.3641 17.3873067,4.1001 17.04064,4.1001" id="Fill-4"></path>
                <path d="M17.04064,13.6431 L2.62784,13.6431 C2.28224,13.6431 1.99957333,13.9071 1.99957333,14.2321 L1.99957333,14.4111 C1.99957333,14.7361 2.28224,15.0001 2.62784,15.0001 L17.04064,15.0001 C17.3873067,15.0001 17.6689067,14.7361 17.6689067,14.4111 L17.6689067,14.2321 C17.6689067,13.9071 17.3873067,13.6431 17.04064,13.6431" id="Fill-7"></path>
            </g>
        </g>
    </g>
</svg>