<svg xmlns="http://www.w3.org/2000/svg" xmlns:xlink="http://www.w3.org/1999/xlink" width="17" height="16" viewBox="0 0 17 16">
    <defs>
        <path id="a" d="M.039.176h14.846V11H.04z"/>
        <path id="c" d="M0 .037h14.848v10.056H0z"/>
    </defs>
    <g fill="none" fill-rule="evenodd">
        <g transform="translate(1.978 4.964)">
            <mask id="b" fill="#fff">
                <use xlink:href="#a"/>
            </mask>
            <path fill="#21BDC3" d="M11.926 1.792l-.906.908c-.102.103-.199.21-.304.306-.194.18-.428.18-.609.008a.495.495 0 0 1 .032-.722c.64-.648 1.28-1.296 1.922-1.943.228-.23.5-.23.731 0l1.89 1.878c.045.046.091.093.126.147.128.205.093.475-.074.611a.474.474 0 0 1-.644-.028c-.356-.354-.706-.713-1.06-1.07-.035-.036-.071-.07-.133-.127v.188c0 2.865.002 4.175 0 7.04 0 .841-.378 1.454-1.123 1.829-.27.136-.563.181-.86.181-3.477.003-5.415.003-8.89 0-.969 0-1.719-.592-1.935-1.523a2.016 2.016 0 0 1-.047-.43C.036 8.628.04 7.435.04 7.02c.001-.306.183-.505.455-.506.27-.002.458.2.46.503.003.397 0 1.57.001 1.968 0 .65.432 1.087 1.08 1.087 2.88.002 4.99.002 7.87.002.558 0 .35 0 .908-.002.683 0 1.112-.43 1.112-1.114V1.792z" mask="url(#b)"/>
        </g>
        <g transform="translate(0 -.036)">
            <mask id="d" fill="#fff">
                <use xlink:href="#c"/>
            </mask>
            <path fill="#21BDC3" d="M2.973 8.457c.39-.4.777-.8 1.169-1.196.142-.143.313-.162.499-.09a.419.419 0 0 1 .278.384.49.49 0 0 1-.146.394c-.657.664-1.314 1.328-1.974 1.988-.196.196-.356.203-.58.046a1.03 1.03 0 0 1-.138-.116C1.443 9.224.807 8.577.168 7.936c-.119-.12-.19-.256-.162-.426.026-.177.105-.32.286-.38a.483.483 0 0 1 .523.13c.303.3.602.608.9.913.083.083.159.17.238.255l.037-.012V8.26 2.014c0-.75.326-1.32.953-1.71.318-.198.673-.267 1.046-.267h8.875c1.144.003 1.977.842 1.983 1.997.002.402.001.803 0 1.205 0 .302-.185.506-.456.507-.272.002-.458-.2-.459-.502-.002-.397 0-.794 0-1.191-.002-.654-.432-1.09-1.08-1.09C9.396.962 7.476.966 4.02.96c-.683-.001-1.095.529-1.092 1.096.013 2.855.006 3.379.006 6.234v.149l.039.018" mask="url(#d)"/>
        </g>
        <path fill="#21BDC3" d="M7.945 4.942c0-.17-.004-.375.001-.579a.905.905 0 0 1 .04-.274c.07-.203.268-.307.49-.277.198.026.356.18.374.391.015.195.009.392.012.588v.191c.057.003.1.008.145.008.24.001.48-.003.721.002a.45.45 0 0 1 .45.442.464.464 0 0 1-.415.478c-.05.006-.101.004-.152.004h-1.65c-.442.001-.755.313-.757.751-.002.487.297.806.76.81.288.001.574.008.86-.002 1.036-.036 1.726.863 1.693 1.78-.026.753-.511 1.391-1.222 1.588-.123.035-.253.04-.404.062v.48c0 .08.001.16-.004.238-.018.261-.184.435-.426.45a.464.464 0 0 1-.5-.407c-.024-.208-.012-.42-.016-.63v-.147h-.448c-.157 0-.315.003-.472-.004a.442.442 0 0 1-.42-.407.445.445 0 0 1 .327-.489.889.889 0 0 1 .219-.025h1.72c.368-.003.656-.256.723-.629.068-.388-.137-.778-.48-.895a.982.982 0 0 0-.287-.036c-.346-.007-.694.006-1.04-.015-.78-.048-1.409-.68-1.488-1.48-.076-.773.286-1.478.934-1.766.216-.096.457-.13.712-.2"/>
    </g>
</svg>
