<?xml version="1.0" encoding="UTF-8"?>
<svg width="19px" height="16px" viewBox="0 0 19 16" version="1.1" xmlns="http://www.w3.org/2000/svg" xmlns:xlink="http://www.w3.org/1999/xlink">
    <!-- Generator: sketchtool 50.2 (55047) - http://www.bohemiancoding.com/sketch -->
    <title>F0C81E73-769F-4864-8BBF-1E4FD60C1B90</title>
    <desc>Created with sketchtool.</desc>
    <defs></defs>
    <g id="Nav" stroke="none" stroke-width="1" fill="none" fill-rule="evenodd">
        <g id="Nav_Assets" transform="translate(-130.000000, -61.000000)" stroke="#21BDC3">
            <g id="icon_addteam-copy" transform="translate(131.000000, 62.000000)">
                <path d="M11.7,3.6 L18,3.6" id="Stroke-1"></path>
                <path d="M14.4,7.2 L14.4,0.9" id="Stroke-3"></path>
                <path d="M9.89747527,2.81747368 C9.96443474,1.23650526 8.69004472,0 7.20073638,0 C5.71142804,0 4.41867817,1.24711579 4.5039975,2.81747368 C4.52091737,3.13313684 4.80351515,4.69591579 4.80351515,4.69591579 C5.03679333,6.05254737 5.87702675,7.2 7.20073638,7.2 C8.52480601,7.2 9.34811957,6.06997895 9.59759761,4.69591579 C9.59759761,4.69591579 9.88415537,3.13351579 9.89747527,2.81747368 Z" id="Stroke-5"></path>
                <path d="M14.4,14.4 L0,14.4 L0.243618547,11.6141933 C0.376926617,10.5538395 1.43988306,9.82584124 2.53870016,9.61307161 L7.19980511,9 L11.9111929,9.62782571 C13.1316244,9.84370147 14.1598896,10.516566 14.2390169,11.7419327 L14.4,14.4 Z" id="Stroke-7"></path>
            </g>
        </g>
    </g>
</svg>