<?xml version="1.0" encoding="UTF-8"?>
<svg width="18px" height="18px" viewBox="0 0 18 18" version="1.1" xmlns="http://www.w3.org/2000/svg" xmlns:xlink="http://www.w3.org/1999/xlink">
    <!-- Generator: sketchtool 50.2 (55047) - http://www.bohemiancoding.com/sketch -->
    <title>6EDCA3BC-624F-461D-A710-58F84EEA19E9</title>
    <desc>Created with sketchtool.</desc>
    <defs>
        <polygon id="path-1" points="0.0392620702 0.176499185 15.051 0.176499185 15.051 11 0.0392620702 11"></polygon>
        <polygon id="path-3" points="0 0.0366 15.0138547 0.0366 15.0138547 10.0927223 0 10.0927223"></polygon>
    </defs>
    <g id="Nav" stroke="none" stroke-width="1" fill="none" fill-rule="evenodd">
        <g id="Nav_Assets" transform="translate(-101.000000, -60.000000)">
            <g id="Rates" transform="translate(101.000000, 60.000000)">
                <g id="Page-1">
                    <g id="Group-3" transform="translate(2.000000, 5.963700)">
                        <mask id="mask-2" fill="white">
                            <use xlink:href="#path-1"></use>
                        </mask>
                        <g id="Clip-2"></g>
                        <path d="M12.0589,1.7925 C11.7389,2.1095 11.4409,2.4055 11.1429,2.7005 C11.0399,2.8025 10.9419,2.9095 10.8349,3.0065 C10.6389,3.1865 10.4029,3.1865 10.2199,3.0135 C10.0499,2.8535 10.0289,2.5605 10.1759,2.3735 C10.1999,2.3445 10.2259,2.3175 10.2519,2.2915 C10.8999,1.6435 11.5469,0.9955 12.1949,0.3485 C12.4259,0.1185 12.7009,0.1195 12.9349,0.3495 C13.5719,0.9745 14.2089,1.6005 14.8449,2.2265 C14.8909,2.2725 14.9379,2.3195 14.9729,2.3745 C15.1029,2.5795 15.0669,2.8495 14.8979,2.9855 C14.7009,3.1435 14.4319,3.1355 14.2469,2.9565 C13.8869,2.6025 13.5329,2.2435 13.1749,1.8875 C13.1399,1.8515 13.1029,1.8175 13.0409,1.7595 L13.0409,1.9485 C13.0409,4.8135 13.0429,6.1235 13.0409,8.9875 C13.0399,9.8295 12.6589,10.4415 11.9049,10.8165 C11.6319,10.9525 11.3359,10.9985 11.0349,10.9985 C7.5199,11.0005 5.5599,11.0005 2.0459,10.9985 C1.0669,10.9985 0.3089,10.4055 0.0899,9.4745 C0.0569,9.3355 0.0449,9.1885 0.0429,9.0445 C0.0369,8.6285 0.0399,7.4365 0.0409,7.0205 C0.0419,6.7155 0.2259,6.5155 0.5009,6.5145 C0.7739,6.5125 0.9639,6.7145 0.9659,7.0175 C0.9689,7.4145 0.9659,8.5885 0.9669,8.9855 C0.9669,9.6365 1.4039,10.0735 2.0589,10.0735 C4.9699,10.0745 7.1039,10.0745 10.0159,10.0745 C10.5809,10.0745 10.3699,10.0745 10.9349,10.0735 C11.6249,10.0735 12.0589,9.6435 12.0589,8.9585 C12.0589,6.1115 12.0589,4.8205 12.0589,1.9745 L12.0589,1.7925 Z" id="Fill-1" fill="#21BDC3" mask="url(#mask-2)"></path>
                    </g>
                    <g id="Group-6" transform="translate(0.000000, 0.963700)">
                        <mask id="mask-4" fill="white">
                            <use xlink:href="#path-3"></use>
                        </mask>
                        <g id="Clip-5"></g>
                        <path d="M3.0057,8.4566 C3.3997,8.0576 3.7917,7.6566 4.1877,7.2606 C4.3317,7.1176 4.5047,7.0986 4.6927,7.1706 C4.8697,7.2396 4.9587,7.3726 4.9737,7.5546 C4.9857,7.7056 4.9337,7.8406 4.8257,7.9486 C4.1617,8.6126 3.4977,9.2766 2.8297,9.9366 C2.6317,10.1326 2.4707,10.1396 2.2437,9.9826 C2.1937,9.9476 2.1467,9.9096 2.1037,9.8666 C1.4587,9.2236 0.8157,8.5776 0.1697,7.9356 C0.0497,7.8156 -0.0213,7.6796 0.0057,7.5096 C0.0327,7.3326 0.1127,7.1906 0.2957,7.1306 C0.4987,7.0636 0.6767,7.1166 0.8237,7.2606 C1.1307,7.5606 1.4327,7.8676 1.7347,8.1726 C1.8177,8.2556 1.8947,8.3426 1.9747,8.4276 C1.9867,8.4236 1.9997,8.4196 2.0117,8.4156 L2.0117,8.2606 C2.0117,5.4016 2.0117,4.8726 2.0127,2.0136 C2.0127,1.2636 2.3417,0.6946 2.9757,0.3046 C3.2977,0.1056 3.6567,0.0366 4.0337,0.0366 C6.8327,0.0376 8.8547,0.0376 11.6527,0.0376 C12.3627,0.0376 12.2967,0.0366 13.0067,0.0376 C14.1637,0.0396 15.0067,0.8786 15.0127,2.0336 C15.0147,2.4356 15.0137,2.8366 15.0127,3.2386 C15.0117,3.5406 14.8257,3.7446 14.5517,3.7456 C14.2767,3.7476 14.0887,3.5456 14.0877,3.2436 C14.0857,2.8466 14.0877,2.4496 14.0867,2.0526 C14.0857,1.3986 13.6507,0.9626 12.9957,0.9626 C9.5007,0.9616 7.5597,0.9656 4.0647,0.9596 C3.3737,0.9586 2.9577,1.4886 2.9607,2.0556 C2.9737,4.9106 2.9667,5.4346 2.9667,8.2896 L2.9667,8.4386 C2.9797,8.4446 2.9927,8.4506 3.0057,8.4566" id="Fill-4" fill="#21BDC3" mask="url(#mask-4)"></path>
                    </g>
                    <path d="M8.0335,5.9423 C8.0335,5.7723 8.0295,5.5673 8.0345,5.3633 C8.0375,5.2713 8.0435,5.1743 8.0745,5.0893 C8.1465,4.8863 8.3455,4.7823 8.5705,4.8123 C8.7705,4.8383 8.9305,4.9923 8.9485,5.2033 C8.9635,5.3983 8.9575,5.5953 8.9605,5.7913 C8.9605,5.8513 8.9605,5.9113 8.9605,5.9823 C9.0185,5.9853 9.0625,5.9903 9.1075,5.9903 C9.3505,5.9913 9.5935,5.9873 9.8365,5.9923 C10.0925,5.9983 10.2765,6.1813 10.2905,6.4343 C10.3045,6.6713 10.1195,6.8833 9.8715,6.9123 C9.8215,6.9183 9.7695,6.9163 9.7185,6.9163 C9.1615,6.9163 8.6055,6.9153 8.0495,6.9163 C7.6025,6.9173 7.2865,7.2293 7.2845,7.6673 C7.2825,8.1543 7.5845,8.4733 8.0535,8.4763 C8.3435,8.4783 8.6335,8.4853 8.9225,8.4753 C9.9695,8.4393 10.6675,9.3383 10.6345,10.2543 C10.6075,11.0083 10.1175,11.6463 9.3985,11.8433 C9.2745,11.8783 9.1425,11.8833 8.9905,11.9053 C8.9905,12.0623 8.9905,12.2233 8.9905,12.3853 C8.9895,12.4643 8.9915,12.5443 8.9865,12.6233 C8.9675,12.8843 8.7995,13.0583 8.5555,13.0723 C8.3045,13.0863 8.0805,12.9203 8.0505,12.6663 C8.0255,12.4583 8.0375,12.2463 8.0335,12.0363 C8.0335,11.9953 8.0335,11.9533 8.0335,11.8893 L7.5805,11.8893 C7.4215,11.8883 7.2625,11.8923 7.1035,11.8853 C6.8775,11.8763 6.7005,11.7023 6.6785,11.4783 C6.6555,11.2483 6.7895,11.0453 7.0095,10.9893 C7.0805,10.9713 7.1565,10.9643 7.2305,10.9643 C7.8095,10.9633 8.3895,10.9653 8.9695,10.9633 C9.3415,10.9613 9.6335,10.7083 9.7005,10.3353 C9.7695,9.9473 9.5625,9.5573 9.2155,9.4403 C9.1245,9.4103 9.0225,9.4063 8.9255,9.4043 C8.5755,9.3973 8.2235,9.4103 7.8745,9.3893 C7.0845,9.3413 6.4495,8.7093 6.3695,7.9093 C6.2925,7.1363 6.6585,6.4313 7.3135,6.1433 C7.5315,6.0473 7.7755,6.0123 8.0335,5.9423" id="Fill-7" fill="#21BDC3"></path>
                </g>
            </g>
        </g>
    </g>
</svg>