<?xml version="1.0" encoding="UTF-8"?>
<svg width="18px" height="18px" viewBox="0 0 18 18" version="1.1" xmlns="http://www.w3.org/2000/svg" xmlns:xlink="http://www.w3.org/1999/xlink">
    <!-- Generator: sketchtool 50.2 (55047) - http://www.bohemiancoding.com/sketch -->
    <title>D5FF94AE-82BA-4528-ADC4-F55C3AA20443</title>
    <desc>Created with sketchtool.</desc>
    <defs>
        <polygon id="path-1" points="4.85351375e-05 0.0109 14.1739286 0.0109 14.1739286 15.9999497 4.85351375e-05 15.9999497"></polygon>
        <polygon id="path-3" points="0 0.189945862 5.82512857 0.189945862 5.82512857 3.98095238 0 3.98095238"></polygon>
    </defs>
    <g id="Nav" stroke="none" stroke-width="1" fill="none" fill-rule="evenodd">
        <g id="Nav_Assets" transform="translate(-76.000000, -60.000000)">
            <g id="clientinfo" transform="translate(76.000000, 60.000000)">
                <g id="Group-8" transform="translate(2.000000, 0.000000)">
                    <g id="Page-1">
                        <g id="Group-3" transform="translate(0.000000, 0.989600)">
                            <mask id="mask-2" fill="white">
                                <use xlink:href="#path-1"></use>
                            </mask>
                            <g id="Clip-2"></g>
                            <path d="M12.2284286,15.1999 C12.1266429,15.2219 12.0162857,15.2339 11.9102143,15.2339 C9.77271429,15.2359 7.63628571,15.2359 5.49985714,15.2359 L3.86807143,15.2359 L2.25985714,15.2359 C1.51092857,15.2359 0.867,14.6689 0.822,13.9719 C0.817714286,13.8969 0.816642857,13.8219 0.816642857,13.7459 L0.815571429,6.7779 C0.816642857,5.2599 0.816642857,3.7419 0.8145,2.2239 C0.8145,1.8259 0.928071429,1.5109 1.16271429,1.2609 C1.467,0.9379 1.85807143,0.7749 2.32414286,0.7749 L2.32628571,0.7749 C3.33128571,0.7769 4.33521429,0.7769 5.33807143,0.7749 L7.99307143,0.7749 C9.282,0.7739 10.5730714,0.7739 11.862,0.7759 C12.6098571,0.7769 13.2023571,1.2329 13.3352143,1.9109 C13.3566429,2.0129 13.3577143,2.1179 13.3577143,2.2179 L13.3577143,6.0849 C13.3577143,8.9499 13.3577143,10.9279 13.362,13.7929 C13.3630714,14.5909 12.7930714,15.0749 12.2284286,15.1999 M11.8234286,0.0149 C10.4905714,0.0119 9.12985714,0.0109 7.72521429,0.0109 C6.01092857,0.0109 4.23128571,0.0119 2.35735714,0.0169 C2.07664286,0.0169 1.81307143,0.0539 1.59342857,0.1209 C0.612,0.4239 0.00128571429,1.2159 0.00128571429,2.1879 C-0.000857142857,6.3599 0.000214285714,9.6429 0.00128571429,13.8159 C0.00128571429,14.1679 0.0666428571,14.4669 0.202714286,14.7289 C0.637714286,15.5659 1.35664286,15.9919 2.33914286,15.9949 C4.68021429,16.0019 7.06092857,15.9999 9.36128571,15.9989 L11.8405714,15.9979 C12.4362857,15.9979 12.957,15.8199 13.3855714,15.4689 C13.9084286,15.0409 14.1741429,14.4759 14.1741429,13.7899 L14.1741429,2.2369 C14.1741429,1.8509 14.1098571,1.5469 13.9716429,1.2819 C13.5345,0.4439 12.8123571,0.0169 11.8234286,0.0149" id="Fill-1" fill="#21BDC3" mask="url(#mask-2)"></path>
                        </g>
                        <path d="M10.6457423,14.0841 L3.46546375,14.0841 C3.26974731,14.0841 3.11120605,13.9381 3.11120605,13.7601 L3.11120605,13.7041 C3.11120605,13.5261 3.26974731,13.3801 3.46546375,13.3801 L10.6457423,13.3801 C10.8403654,13.3801 11,13.5261 11,13.7041 L11,13.7601 C11,13.9381 10.8403654,14.0841 10.6457423,14.0841" id="Fill-8" fill="#21BDC3"></path>
                    </g>
                    <g id="Page-1" transform="translate(4.000000, 4.000000)">
                        <g id="Group-3" transform="translate(0.000000, 4.020812)">
                            <mask id="mask-4" fill="white">
                                <use xlink:href="#path-3"></use>
                            </mask>
                            <g id="Clip-2"></g>
                            <path d="M0.799574286,2.4289781 C1.01653619,1.59994476 1.78486,0.967968571 2.70246952,0.89034 C3.28766952,0.840578095 3.81713619,0.982897143 4.27295524,1.33421619 C4.81635524,1.75221619 5.08805524,2.30059238 5.09303143,2.96441619 C5.09402667,3.08981619 5.09402667,3.21422095 5.09402667,3.33962095 L0.729907619,3.33962095 C0.728912381,3.21123524 0.725926667,3.08384476 0.732893333,2.95545905 C0.740855238,2.7793019 0.754788571,2.59916381 0.799574286,2.4289781 M5.82154571,3.6362019 C5.82353619,3.41525905 5.82950762,3.19431619 5.81955524,2.97337333 C5.8105981,2.78129238 5.79766,2.58722095 5.75884571,2.39912095 C5.50207429,1.16403048 4.37646,0.248411429 3.0468219,0.192678095 C2.37205048,0.165806667 1.7559981,0.336987619 1.2076219,0.713187619 C0.622421905,1.11526381 0.246221905,1.65269238 0.0760361905,2.31751143 C0.00437904762,2.60115429 -0.00457809524,2.88977333 0.00139333333,3.13360667 L0.00139333333,3.5993781 C0.00139333333,3.60136857 0.00139333333,3.60335905 0.00139333333,3.60534952 C0.0073647619,3.64615429 0.0073647619,3.68894952 0.018312381,3.72776381 C0.0332409524,3.77852095 0.0621028571,3.82032095 0.0959409524,3.85814 C0.152669524,3.92979714 0.242240952,3.98154952 0.34773619,3.98154952 L5.49908857,3.98154952 C5.67126476,3.98154952 5.81159333,3.85614952 5.81159333,3.70288286 L5.81159333,3.68496857 C5.81358381,3.66904476 5.82055048,3.65312095 5.82154571,3.6362019" id="Fill-1" fill="#21BDC3" mask="url(#mask-4)"></path>
                        </g>
                        <path d="M2.26327095,0.905517381 C2.46331381,0.704479286 2.75093762,0.589031667 3.05149952,0.589031667 C3.34907571,0.589031667 3.63371381,0.701493571 3.83176619,0.898550714 C4.0069281,1.07172214 4.09649952,1.29465548 4.0855519,1.52754119 C4.08157095,1.60218405 4.0069281,1.99729357 3.94124238,2.32074595 C3.89944238,2.52476976 3.71134238,3.19058405 3.05149952,3.19058405 C2.52103762,3.19058405 2.24535667,2.74372214 2.16374714,2.32174119 C2.09706619,1.9953031 2.02242333,1.59720786 2.01744714,1.52356024 C2.00450905,1.29764119 2.09109476,1.07769357 2.26327095,0.905517381 M3.05149952,3.80464595 C3.80788048,3.80464595 4.40601857,3.26821262 4.57620429,2.43818405 C4.61103762,2.26899357 4.72549,1.70668405 4.73245667,1.55441262 C4.75236143,1.15333167 4.59809952,0.770165 4.30052333,0.474579286 C3.65759952,-0.161377857 2.43246143,-0.157396905 1.79252333,0.484531667 C1.49594238,0.781112619 1.3476519,1.16228881 1.37153762,1.55938881 C1.38049476,1.70867452 1.49295667,2.26899357 1.52679476,2.43519833 C1.68802333,3.26721738 2.28616143,3.80464595 3.05149952,3.80464595" id="Fill-4" fill="#21BDC3"></path>
                    </g>
                </g>
            </g>
        </g>
    </g>
</svg>