<svg xmlns="http://www.w3.org/2000/svg" xmlns:xlink="http://www.w3.org/1999/xlink" width="15" height="16" viewBox="0 0 15 16">
    <defs>
        <path id="a" d="M0 .359h14.426V14H0z"/>
    </defs>
    <g fill="none" fill-rule="evenodd">
        <path fill="#21BDC3" d="M4.362 7.297c-.22-.23-.551-.204-.728.045-.128.18-.101.424.073.612.659.714 1.32 1.426 1.98 2.138l1.095 1.183c.113.123.243.193.414.178.146-.012.249-.098.343-.2l2.2-2.373c.29-.312.58-.624.868-.937.168-.184.191-.418.063-.603-.184-.265-.516-.28-.752-.026-.729.784-1.456 1.569-2.183 2.355-.027.029-.042.069-.062.104l-.045-.03V.626c0-.058 0-.117-.003-.174-.012-.237-.173-.406-.42-.446a.47.47 0 0 0-.497.305.914.914 0 0 0-.032.28V9.773c-.047-.043-.071-.064-.092-.088L5.215 8.213c-.283-.306-.564-.615-.853-.916M.83 5.008c0-.08 0-.398 0 0"/>
        <g transform="translate(0 1.581)">
            <mask id="b" fill="#fff">
                <use xlink:href="#a"/>
            </mask>
            <path fill="#21BDC3" d="M14.22 1.753C13.775.835 13.04.367 12.032.363 10.921.362 10.75.36 9.59.36v.003h-.813c-.043 0-.087-.001-.13.002a.414.414 0 0 0-.377.494c.046.222.207.34.47.34h1.248l.003-.002c.811 0 1.08 0 2.083.002.761 0 1.364.5 1.5 1.244.02.113.022.228.022.337v.349c0 3.14 0 5.31.004 8.45 0 .877-.579 1.407-1.154 1.544a1.396 1.396 0 0 1-.324.038H2.301c-.763 0-1.42-.62-1.464-1.384a5.2 5.2 0 0 1-.006-.25v-7.64-.46l-.002-.641c0-.436.115-.782.355-1.055.309-.354.707-.534 1.182-.534h.002c1.021.002 1.076.003 2.096 0h.169v-.001h.885c.042 0 .085 0 .129-.002A.414.414 0 0 0 6.024.7C5.978.478 5.818.359 5.555.359H4.307L4.303.36C3.558.36 3.37.364 2.4.366c-.285 0-.554.04-.777.115-1 .332-1.62 1.2-1.62 2.267C-.002 7.32 0 7.03.001 11.605c0 .387.067.714.204 1.002.443.917 1.175 1.385 2.175 1.388 2.383.008 4.804.005 7.146.004l2.523-.001c.607 0 1.136-.195 1.574-.58.532-.47.802-1.09.802-1.841V2.8c0-.424-.065-.756-.207-1.048" mask="url(#b)"/>
        </g>
    </g>
</svg>
