<?xml version="1.0" encoding="UTF-8"?>
<svg width="18px" height="18px" viewBox="0 0 18 18" version="1.1" xmlns="http://www.w3.org/2000/svg" xmlns:xlink="http://www.w3.org/1999/xlink">
    <!-- Generator: sketchtool 50.2 (55047) - http://www.bohemiancoding.com/sketch -->
    <title>5ACE4DFB-0405-4921-9B4F-83B363444B73</title>
    <desc>Created with sketchtool.</desc>
    <defs>
        <polygon id="path-1" points="0.000482142857 0.797 14.36325 0.797 14.36325 17 0.000482142857 17"></polygon>
    </defs>
    <g id="Nav" stroke="none" stroke-width="1" fill="none" fill-rule="evenodd">
        <g id="Nav_Assets" transform="translate(-55.000000, -116.000000)">
            <g id="setup" transform="translate(55.000000, 116.000000)">
                <g id="Page-1" transform="translate(2.000000, 0.000000)">
                    <g id="Group-3" transform="translate(0.000000, 0.203100)">
                        <mask id="mask-2" fill="white">
                            <use xlink:href="#path-1"></use>
                        </mask>
                        <g id="Clip-2"></g>
                        <path d="M12.3918214,16.189 C12.2878929,16.212 12.1764643,16.224 12.0693214,16.224 C9.90396429,16.225 7.73860714,16.225 5.57325,16.225 L3.92003571,16.225 L2.29039286,16.225 C1.53182143,16.225 0.87825,15.651 0.83325,14.945 C0.828964286,14.869 0.827892857,14.793 0.827892857,14.715 L0.826821429,7.654 C0.827892857,6.116 0.827892857,4.578 0.82575,3.04 C0.824678571,2.637 0.940392857,2.317 1.17932143,2.064 C1.48682143,1.737 1.88217857,1.571 2.35575,1.571 L2.35789286,1.571 C3.37467857,1.573 4.39253571,1.574 5.40932143,1.572 L8.09967857,1.571 C9.40467857,1.57 10.7139643,1.571 12.0211071,1.573 C12.7786071,1.573 13.3786071,2.035 13.5136071,2.723 C13.5350357,2.827 13.5361071,2.933 13.5361071,3.034 L13.5361071,6.953 C13.5361071,9.856 13.5350357,11.86 13.5403929,14.763 C13.5403929,15.572 12.9639643,16.063 12.3918214,16.189 M14.1575357,2.085 C13.7161071,1.236 12.98325,0.804 11.9814643,0.801 C10.6303929,0.798 9.25146429,0.797 7.82860714,0.797 C6.09182143,0.797 4.28860714,0.799 2.38896429,0.803 C2.10396429,0.804 1.83717857,0.84 1.61432143,0.909 C0.620035714,1.216 0.00182142857,2.019 0.00182142857,3.004 C-0.000321428571,7.231 0.00075,10.559 0.00075,14.786 C0.00075,15.144 0.06825,15.446 0.205392857,15.712 C0.64575,16.56 1.37432143,16.992 2.36967857,16.995 C4.74289286,17.002 7.15467857,17 9.48717857,16.999 L11.9986071,16.998 C12.6028929,16.998 13.1289643,16.817 13.5639643,16.461 C14.0943214,16.028 14.36325,15.456 14.36325,14.76 L14.36325,3.053 C14.36325,2.662 14.2978929,2.354 14.1575357,2.085" id="Fill-1" fill="#AAAFB2" mask="url(#mask-2)"></path>
                    </g>
                    <path d="M11.5558589,13.1201 L2.74801644,13.1201 C2.7045457,13.1201 2.64547006,13.1221 2.58639443,13.1341 C2.40136509,13.1731 2.26983821,13.3191 2.27541139,13.4821 C2.27986992,13.6441 2.38687484,13.7701 2.5596432,13.8181 C2.62763591,13.8371 2.69228472,13.8401 2.75470425,13.8361 L11.5569735,13.8371 L11.5892979,13.8371 C11.6115906,13.8371 11.6338833,13.8371 11.656176,13.8351 C11.8813321,13.8161 12.0418395,13.6541 12.0273493,13.4581 C12.0184322,13.2951 11.8891346,13.1201 11.5558589,13.1201" id="Fill-4" fill="#AAAFB2"></path>
                    <path d="M11.6887233,10.7984 C11.6396794,10.7924 11.5895208,10.7914 11.5204135,10.7914 L2.76161499,10.7914 C2.72706131,10.7904 2.69250764,10.7904 2.65906861,10.7934 C2.43725633,10.8104 2.26783187,10.9704 2.27451968,11.1604 C2.28232212,11.3514 2.45286121,11.4964 2.6813613,11.5044 L11.5505086,11.5054 C11.5605403,11.5054 11.570572,11.5054 11.5794891,11.5054 C11.6051257,11.5054 11.6307623,11.5054 11.6575135,11.5034 C11.860377,11.4884 12.0153112,11.3484 12.0286868,11.1714 C12.0398332,10.9844 11.89716,10.8274 11.6887233,10.7984" id="Fill-6" fill="#AAAFB2"></path>
                    <path d="M9.84478332,4.5161 L11.5769254,4.5161 C11.6192816,4.5161 11.6694401,4.5141 11.7207133,4.5041 C11.9001695,4.4681 12.0238939,4.3331 12.0283525,4.1691 C12.0316964,4.0691 11.9949134,3.9781 11.9224622,3.9121 C11.8455524,3.8391 11.7318597,3.8001 11.6036767,3.7991 L11.1399887,3.7991 L9.80688574,3.8001 C9.68204667,3.8001 9.57169785,3.8411 9.4959027,3.9141 C9.42122218,3.9851 9.38555387,4.0811 9.39335632,4.1851 C9.4056173,4.3451 9.53045637,4.5151 9.84478332,4.5161" id="Fill-8" fill="#AAAFB2"></path>
                    <path d="M9.83040453,6.8444 L11.2459904,6.8454 L11.3842051,6.8454 C11.4678027,6.8454 11.5514003,6.8444 11.6338833,6.8434 C11.7576077,6.8404 11.8646126,6.7964 11.9381785,6.7184 C12.0106298,6.6414 12.0418395,6.5404 12.0240054,6.4324 C11.9939102,6.2434 11.8311736,6.1314 11.5904125,6.1314 L9.81925819,6.1314 C9.8003094,6.1314 9.77690207,6.1314 9.75460938,6.1324 C9.54951662,6.1494 9.39681168,6.2944 9.39235314,6.4784 C9.39012388,6.5794 9.42690682,6.6684 9.49712879,6.7334 C9.55286052,6.7834 9.65429227,6.8444 9.83040453,6.8444 Z" id="Fill-10" fill="#AAAFB2"></path>
                    <path d="M11.6538352,8.4634 C11.6259694,8.4624 11.5958742,8.4624 11.5479449,8.4624 L9.84478332,8.4624 C9.81022965,8.4624 9.76564426,8.4624 9.72440278,8.4674 C9.53602954,8.4904 9.39670022,8.6344 9.39224168,8.8074 C9.38778314,8.9904 9.5248832,9.1414 9.71882961,9.1684 C9.75784182,9.1734 9.80354184,9.1764 9.86261747,9.1744 L11.30384,9.1744 C11.4175327,9.1744 11.5301108,9.1744 11.6426889,9.1724 C11.7530377,9.1704 11.8533548,9.1314 11.9246914,9.0634 C11.9937988,8.9974 12.0305817,8.9074 12.0283525,8.8114 C12.0250085,8.6224 11.8678451,8.4754 11.6538352,8.4634" id="Fill-12" fill="#AAAFB2"></path>
                    <path d="M6.0081,6.77 C5.8421,6.89 5.7841,7.071 5.8471,7.267 L6.1981,8.346 L5.2781,7.678 C5.1171,7.562 4.9221,7.562 4.7601,7.678 L3.8401,8.346 L4.1921,7.264 C4.2531,7.074 4.1941,6.891 4.0321,6.773 L3.1101,6.103 L4.2531,6.103 C4.4511,6.103 4.6061,5.991 4.6671,5.802 L5.0191,4.718 L5.3701,5.8 C5.4321,5.99 5.5881,6.103 5.7881,6.103 L6.9261,6.103 L6.0081,6.77 Z M3.6011,7.184 L3.1261,8.646 C3.0791,8.791 3.1061,8.933 3.2021,9.046 C3.2851,9.144 3.3991,9.198 3.5221,9.198 C3.6151,9.198 3.7071,9.167 3.7871,9.109 L5.0191,8.213 L6.2491,9.107 C6.3881,9.21 6.6021,9.216 6.7481,9.122 C6.9101,9.017 6.9721,8.829 6.9081,8.633 L6.4371,7.182 L7.6731,6.283 C7.6951,6.267 7.7281,6.243 7.7571,6.207 C7.8641,6.078 7.8861,5.917 7.8171,5.764 C7.7461,5.607 7.6061,5.517 7.4351,5.517 L5.8951,5.516 L5.4351,4.099 C5.4241,4.062 5.4091,4.017 5.3821,3.971 C5.2931,3.818 5.1391,3.745 4.9621,3.768 C4.7951,3.789 4.6691,3.896 4.6151,4.062 L4.1431,5.516 L2.6021,5.516 C2.4801,5.516 2.3641,5.57 2.2841,5.664 C2.2031,5.758 2.1681,5.881 2.1871,6.001 C2.2041,6.116 2.2691,6.217 2.3721,6.292 L3.6011,7.184 Z" id="Fill-14" fill="#AAAFB2"></path>
                </g>
            </g>
        </g>
    </g>
</svg>
