<svg width="27" height="29" viewBox="0 0 27 29" fill="none" xmlns="http://www.w3.org/2000/svg">
<path d="M13.4478 29C13.2807 28.7319 13.1346 28.5755 13.0719 28.3968C12.2784 26.1179 11.5058 23.839 10.7332 21.5601C10.5035 20.8898 10.2738 20.1972 10.065 19.5046C9.87703 18.9014 9.58469 18.3875 9 18.1641C7.99768 17.7843 7.01624 17.4045 6.01392 17.0023C4.86543 16.5555 3.73782 16.0863 2.61021 15.6394C1.92111 15.3713 1.23202 15.1479 0.542923 14.8575C0.334107 14.7681 0.187935 14.5447 0 14.3659C0.187935 14.2096 0.334107 13.9638 0.542923 13.8968C1.69142 13.4276 2.86079 12.9807 4.00928 12.5339C5.07425 12.1094 6.11833 11.7072 7.1833 11.2827C7.76798 11.0593 8.35267 10.8359 8.95824 10.6125C9.4594 10.4114 9.7935 10.0539 9.98144 9.51772C10.3364 8.46764 10.6914 7.41756 11.0464 6.38983C11.6311 4.71418 12.2158 3.01618 12.8005 1.34052C12.9049 1.02773 12.9466 0.692604 13.0928 0.379815C13.1763 0.201079 13.3643 0 13.5104 0C13.6566 0 13.8445 0.223421 13.9072 0.402157C14.7007 2.68105 15.4733 4.95994 16.2668 7.23883C16.4965 7.93143 16.7262 8.64638 16.9559 9.33898C17.1439 9.96456 17.4571 10.4114 18.0626 10.6348C19.5661 11.1934 21.0696 11.7743 22.5731 12.3775C23.6381 12.802 24.703 13.2488 25.7889 13.6733C26.0603 13.7851 26.3736 13.8297 26.6241 13.9638C26.7912 14.0532 27 14.2319 27 14.3883C27 14.5223 26.7912 14.7681 26.645 14.8128C24.0139 15.8852 21.4037 16.8906 18.7935 17.9183C18.6891 17.963 18.5638 18.0077 18.4385 18.03C17.5615 18.2311 17.1021 18.7897 16.8306 19.728C16.4965 20.9345 16.0162 22.0963 15.6195 23.2804C15.2436 24.3975 14.8469 25.4923 14.471 26.6094C14.2622 27.235 14.0742 27.8829 13.8445 28.5085C13.8237 28.6425 13.6566 28.7766 13.4478 29Z" fill="#0084FF"/>
</svg>
