<?xml version="1.0" encoding="utf-8"?>
<!-- Generator: Adobe Illustrator 21.0.2, SVG Export Plug-In . SVG Version: 6.00 Build 0)  -->
<!DOCTYPE svg PUBLIC "-//W3C//DTD SVG 1.1//EN" "http://www.w3.org/Graphics/SVG/1.1/DTD/svg11.dtd">
<svg version="1.1" id="Layer_1" xmlns="http://www.w3.org/2000/svg" xmlns:xlink="http://www.w3.org/1999/xlink" x="0px" y="0px"
	 viewBox="0 0 25 25" enable-background="new 0 0 25 25" xml:space="preserve">
<path fill-rule="evenodd" clip-rule="evenodd" d="M9.455349,24.9869995
	c-0.0029984-3.5550003-0.0019989-7.1110001-0.0029984-10.6659946c0-0.1950006-0.0009995-0.1950006-0.2000008-0.1960001
	c-1.1139984,0-2.2290001-0.0030003-3.3429985,0.0039997c-0.1540031,0.0010004-0.1879997-0.0459995-0.1870003-0.1919994
	c0.0049973-1.3270006,0.0029984-2.6550007,0.0029984-3.9820004c0-0.1949997,0-0.1960001,0.1900024-0.1960001
	c1.1139984,0,2.2279968-0.0019999,3.3429985,0.0030003C9.4033508,9.7630043,9.4563484,9.727005,9.455349,9.5720043
	c0-1.0489988,0.012001-2.099,0.012001-3.1479998C9.4663506,5.8870039,9.5273514,5.359004,9.6493492,4.8380041
	c0.2410011-1.0329988,0.7080002-1.9409997,1.5019989-2.6579988c0.9990005-0.8999996,2.2050018-1.2740002,3.5200005-1.3269997
	c0.6030006-0.0250015,1.2080002,0.0009995,1.8110008,0.0259991c0.5870018,0.0240002,1.1730003,0.0809994,1.7600021,0.1110001
	c0.1429977,0.007,0.1699982,0.0639992,0.1689987,0.191c-0.0029984,1.1930008-0.0040016,2.387001,0.0009995,3.5799997
	c0.0009995,0.1459999-0.0499992,0.184-0.1889992,0.184c-0.7470016-0.0049992-1.4960022-0.007-2.243,0.0009995
	c-0.2210007,0.0020008-0.4449997,0.0220013-0.6619987,0.0620003c-0.5720024,0.1040001-1.0240021,0.3810005-1.2090034,0.9640007
	c-0.0709991,0.2229996-0.118,0.4639988-0.1219978,0.6970005c-0.0149994,0.9699993-0.007,1.9419994-0.0149994,2.9119987
	c-0.0009995,0.1470003,0.0489998,0.1810007,0.1889992,0.1810007c1.2919998-0.0040007,2.5849991-0.0030003,3.8769989-0.0030003
	h0.1959991c0,0.0489998,0.0030022,0.0780001-0.0009995,0.1050005c-0.0579987,0.4709997-0.118,0.9399996-0.1779976,1.4109993
	c-0.1110001,0.8860006-0.2229996,1.7720003-0.3320007,2.6590004c-0.0180016,0.1350002-0.0620003,0.1969995-0.2210007,0.1960001
	c-1.1139984-0.0089998-2.2280006-0.0019999-3.3419991-0.007c-0.1410027-0.0010004-0.1879997,0.0349998-0.1879997,0.1809998
	c0.0039978,3.5659943,0.0039978,7.1309948,0,10.6959953L9.455349,24.9869995z" transform="scale(0.88)"/>
</svg>
