<?xml version="1.0" encoding="utf-8"?>
<!-- Generator: Adobe Illustrator 21.0.2, SVG Export Plug-In . SVG Version: 6.00 Build 0)  -->
<!DOCTYPE svg PUBLIC "-//W3C//DTD SVG 1.1//EN" "http://www.w3.org/Graphics/SVG/1.1/DTD/svg11.dtd">
<svg version="1.1" id="Layer_1" xmlns="http://www.w3.org/2000/svg" xmlns:xlink="http://www.w3.org/1999/xlink" x="0px" y="0px"
	 viewBox="0 0 25 25" enable-background="new 0 0 25 25" xml:space="preserve">
<path fill-rule="evenodd" clip-rule="evenodd" d="M7.6002522,21.9770126c-1.2110004-0.0049992-2.421-0.0030003-3.6320002-0.0030003
	H3.812252V21.794014V9.4940186c0-0.1890011,0.0009999-0.1890011,0.1919999-0.1890011c1.1890001,0,2.3779998,0,3.566,0
	c0.1890001,0,0.1900001,0.0010014,0.1900001,0.1880016c0,4.1039991-0.0009999,8.2079983,0.0019999,12.312994
	C7.7622519,21.9290123,7.7392521,21.978014,7.6002522,21.9770126z M5.7882519,7.6160178
	c-1.2950001,0.007-2.2969999-1.0340004-2.2879999-2.3040009c-0.0190001-1.243,1.0390003-2.296999,2.2899997-2.2889996
	c1.2680006,0.0080013,2.3079996,1.0179996,2.3000002,2.2980003C8.083252,6.614017,7.096252,7.6090178,5.7882519,7.6160178z
	 M22.4992504,21.9740124h-0.1639996h-3.6310005c-0.1780014,0-0.1780014,0-0.1780014-0.177
	c-0.0019989-2.2639999,0.0030022-4.5289936-0.0079994-6.7939939c-0.0019989-0.5089998-0.0750008-1.0159998-0.2840004-1.4899998
	c-0.2709999-0.6170006-0.7509995-0.9460001-1.4189987-1.0200005c-0.3880005-0.0439997-0.7680016-0.0139999-1.1400003,0.0930004
	c-0.6459999,0.184-1.0500002,0.625-1.2729998,1.243c-0.151,0.4169998-0.2330008,0.8509998-0.2350006,1.2929993
	c-0.0120001,2.2209997-0.0179996,4.4409952-0.026,6.6619959c0,0.1899986,0,0.1899986-0.1859999,0.1899986
	c-1.197998,0-2.3949976-0.0019989-3.5929976,0.0030003c-0.1280003,0-0.1700001-0.0289993-0.1700001-0.1639996
	c0.0039997-4.1129951,0.0029993-8.2259951,0.0029993-12.338995c0-0.1639996,0.0060005-0.1690006,0.1690006-0.1690006
	c1.1499996,0,2.2989998,0,3.4489975,0c0.1690006,0,0.1720009,0.0030003,0.1720009,0.177c0,0.4730015,0,0.9460011,0,1.4190006
	c0,0.0450001,0.0039997,0.0909996,0.007,0.1359997c0.0109997,0.0030003,0.0219994,0.0060005,0.033,0.0100002
	c0.0309992-0.052,0.0609999-0.105999,0.0939999-0.1569996c0.5539999-0.8579998,1.3329992-1.4120007,2.3079996-1.6970005
	c0.387001-0.112999,0.7810001-0.1709995,1.1850014-0.1819992c0.7609978-0.0200005,1.5049992,0.0579987,2.2259979,0.3149986
	c0.8060017,0.2870007,1.4240017,0.7990017,1.8590012,1.5340004c0.3479996,0.5890007,0.5349998,1.2340002,0.6399994,1.9020004
	c0.0650005,0.4119997,0.1240005,0.8310003,0.1289997,1.2469997c0.0230007,1.7820005,0.0249996,3.5650005,0.0330009,5.3459949
	c0.0019989,0.816,0,1.632,0,2.448V21.9740124z"/>
</svg>
