<?xml version="1.0" encoding="utf-8"?>
<!-- Generator: Adobe Illustrator 21.0.2, SVG Export Plug-In . SVG Version: 6.00 Build 0)  -->
<!DOCTYPE svg PUBLIC "-//W3C//DTD SVG 1.1//EN" "http://www.w3.org/Graphics/SVG/1.1/DTD/svg11.dtd">
<svg version="1.1" id="Layer_1" xmlns="http://www.w3.org/2000/svg" xmlns:xlink="http://www.w3.org/1999/xlink" x="0px" y="0px"
	 viewBox="0 0 25 25" enable-background="new 0 0 25 25" xml:space="preserve">
<path fill-rule="evenodd" clip-rule="evenodd" d="M23.3670502,7.0425797
	c-0.5189972,0.7900009-1.1480026,1.4640007-1.8960037,2.0240002c-0.1329956,0.1000004-0.1899948,0.2010002-0.1839981,0.3719997
	c0.0579987,1.6149998-0.2340012,3.1730003-0.8050003,4.6790009c-0.4700012,1.2419996-1.1199951,2.3859997-1.9550018,3.4249992
	c-1.0069962,1.2539978-2.211998,2.2689972-3.6329956,3.0219994c-1.2070007,0.6409988-2.4920044,1.0439987-3.8450012,1.2399979
	C9.848053,21.979578,8.647049,21.9855785,7.4460526,21.8265781c-0.7490005-0.0990009-1.4920044-0.2509995-2.1970062-0.5259991
	c-0.659996-0.257-1.3049927-0.5530014-1.9499969-0.8470001c-0.2299957-0.1060009-0.4400024-0.2560005-0.6610031-0.4029999
	c2.2950058,0.1969986,4.3680038-0.3690014,6.2380066-1.7830009c-1.9560013-0.1730003-3.2649994-1.145998-3.9880066-2.9869986
	c0.6530075,0.1070004,1.2540054,0.0880003,1.8550034-0.0749998c-0.9690018-0.2559996-1.7829971-0.7459993-2.4059982-1.533
	c-0.6200027-0.783-0.9319992-1.6739998-0.9280014-2.6820002c0.3150024,0.118,0.6080017,0.2509995,0.9150009,0.3360004
	c0.3010025,0.0839996,0.6169968,0.1200008,0.9319992,0.1590004C3.3790512,9.9015808,2.9690475,8.0145798,3.9920502,5.7645798
	c2.3359985,2.7420006,5.2529984,4.2399998,8.8359985,4.4890003c-0.0179977-0.1359997-0.0319977-0.2479992-0.0469971-0.3600006
	c-0.1880035-1.4669991,0.2350006-2.7290001,1.3119965-3.7419987c1.0709991-1.0060005,2.3600006-1.335001,3.7910004-1.0640011
	c0.8190002,0.1550007,1.5340042,0.5430012,2.1220016,1.1429996c0.0830002,0.0840015,0.1579971,0.1070004,0.2779999,0.0799999
	c0.8460007-0.1879997,1.6460037-0.4919987,2.4020004-0.914999c0.0329971-0.019001,0.0680008-0.0349998,0.1399994-0.0710011
	c-0.1449966,0.507-0.3860016,0.9220009-0.6819992,1.3050003c-0.3000031,0.3880005-0.663002,0.7119999-1.0690002,0.9969997
	C21.8740463,7.5665798,22.6260529,7.3315792,23.3670502,7.0425797"/>
</svg>
