<svg xmlns="http://www.w3.org/2000/svg" width="62" height="62" viewBox="0 0 62 62">
  <g fill="none" fill-rule="evenodd" stroke="#4E4E4E" stroke-width="2" transform="translate(1 1)">
    <polygon points=".025 59.656 59.267 59.656 59.267 53.673 .025 53.673"/>
    <path d="M9.67088343,0.413638892 L7.10026008,0.413638892 C4.21550387,0.413638892 1.87695919,2.75218357 1.87695919,5.63693978 L1.87695919,53.6723253 L14.893572,53.6723253 L14.893572,5.63693978 C14.893572,2.75218357 12.5550273,0.413638892 9.67088343,0.413638892 Z"/>
    <polygon points="23.919 53.672 31.382 53.672 31.382 24.15 23.919 24.15"/>
    <polygon points="31.382 53.672 43.184 53.672 43.184 42.15 31.382 42.15"/>
    <polygon points="43.184 53.672 57.069 53.672 57.069 36.611 43.184 36.611"/>
    <path d="M50.9239995,21.7105614 L48.9816419,21.7105614 C46.8023068,21.7105614 45.0350798,23.477176 45.0350798,25.6565111 L45.0350798,36.611359 L54.8705615,36.611359 L54.8705615,25.6565111 C54.8705615,23.477176 53.1039469,21.7105614 50.9239995,21.7105614 Z"/>
    <path d="M48.9694562 21.7763272C48.9694562 18.3171916 46.5084426 15.5126525 43.4730496 15.5126525 40.4376565 15.5126525 37.9772552 18.3171916 37.9772552 21.7763272L37.9772552 53.6721416M29.0733336 24.1497755L26.1695947 24.1497755C24.255405 24.1497755 22.7043357 22.5980939 22.7043357 20.6845165L22.7043357 18.9785239C22.7043357 17.0643342 24.255405 15.5126525 26.1695947 15.5126525L29.0733336 15.5126525C30.9875234 15.5126525 32.539205 17.0643342 32.539205 18.9785239L32.539205 20.6845165C32.539205 22.5980939 30.9875234 24.1497755 29.0733336 24.1497755zM.0255347769 16.7322596L16.2820637 16.7322596M.0255347769 27.0428596L16.2820637 27.0428596"/>
    <polyline points="14.894 41.26 20.274 41.26 20.274 26.326 23.919 26.326"/>
    <path d="M31.3818734 28.2047838L29.125383 28.2047838M31.3818734 33.792981L28.3446434 33.792981M54.8704391 29.1609602L51.9489422 29.1609602M29.1256279 15.5123464L29.1256279 11.0948912"/>
  </g>
</svg>