<svg xmlns="http://www.w3.org/2000/svg" width="62" height="62" viewBox="0 0 62 62">
  <g fill="none" fill-rule="evenodd" stroke="#4E4E4E" stroke-width="2" transform="translate(1 1)">
    <path d="M39.6278918,59.308469 L4.58033888,59.308469 C2.27853489,59.308469 0.395574722,57.4255089 0.395574722,55.1237049 L0.395574722,53.0637771 C0.395574722,50.7619731 2.27853489,48.8790129 4.58033888,48.8790129 L39.6278918,48.8790129 C41.9296958,48.8790129 43.812656,50.7619731 43.812656,53.0637771 L43.812656,55.1237049 C43.812656,57.4255089 41.9296958,59.308469 39.6278918,59.308469 Z"/>
    <path d="M7.70195005 54.0936797C7.70195005 55.5584084 6.57401098 56.7457449 5.18276367 56.7457449 3.790904 56.7457449 2.66296494 55.5584084 2.66296494 54.0936797 2.66296494 52.6295634 3.790904 51.4422269 5.18276367 51.4422269 6.57401098 51.4422269 7.70195005 52.6295634 7.70195005 54.0936797zM40.9596192 54.0936797C40.9596192 55.5584084 39.8316801 56.7457449 38.4404328 56.7457449 37.0485732 56.7457449 35.9206341 55.5584084 35.9206341 54.0936797 35.9206341 52.6295634 37.0485732 51.4422269 38.4404328 51.4422269 39.8316801 51.4422269 40.9596192 52.6295634 40.9596192 54.0936797zM35.2466874 23.709071L18.5351863 23.709071 18.5351863 30.6916384 6.2840045 30.6916384C3.21738189 30.6916384.731874469 33.1771458.731874469 36.2437684L.731874469 45.716742 18.5351863 45.716742 23.4480284 45.716742 39.7841622 45.716742 39.7841622 35.9939318 35.2466874 23.709071zM11.1171193 45.716987L11.1171193 48.8791354M31.4398625 45.716987L31.4398625 49.1344831M4.30086473 33.7406867L7.15622839 33.7406867"/>
    <polygon points="34.407 34.713 22.65 34.713 22.65 25.919 30.824 25.919"/>
    <path d="M45.1757967,4.18635626 C45.1757967,6.23648655 43.5965595,7.89839025 41.6486908,7.89839025 C39.7008221,7.89839025 38.1215849,6.23648655 38.1215849,4.18635626 C38.1215849,2.13622597 39.7008221,0.474322259 41.6486908,0.474322259 C43.5965595,0.474322259 45.1757967,2.13622597 45.1757967,4.18635626 Z"/>
    <path d="M54.5744316,24.5926233 L45.2845491,4.03069822 C45.206169,1.98607903 43.6110108,0.352343181 41.6490582,0.352343181 C40.2449516,0.352343181 39.0282226,1.18941848 38.4201642,2.41410802 L38.3264755,2.23162928 L27.0170799,7.00424442 L20.4668279,23.7090098 L29.3397036,23.7090098 L32.503689,11.9538272 L40.266996,7.73354704 C40.5051982,7.83642096 40.7574842,7.91112703 41.0177307,7.95950226 L49.8287596,27.3242933 C49.7950807,27.5282041 49.7742609,27.7370137 49.7742609,27.9513343 C49.7742609,29.9628869 51.3234932,31.593561 53.2346212,31.593561 C55.1463616,31.593561 56.6955939,29.9628869 56.6955939,27.9513343 C56.6955939,26.4400674 55.8205532,25.1437336 54.5744316,24.5926233 Z"/>
    <path d="M56.6952265,27.951518 C56.6952265,29.9630706 55.1459942,31.5937447 53.2348662,31.5937447 C51.3237382,31.5937447 49.7738935,29.9630706 49.7738935,27.951518 C49.7738935,25.9399655 51.3237382,24.3092913 53.2348662,24.3092913 C55.1459942,24.3092913 56.6952265,25.9399655 56.6952265,27.951518 Z"/>
    <path d="M55.7803222,30.6681856 C57.9027091,31.8971616 59.3521292,34.3691974 59.3521292,37.21905 C59.3521292,40.7486052 57.0864536,43.8709512 54.114132,44.5971921 L42.4918283,44.5971921 L42.4918283,42.6529974 L44.5964573,42.6529974 L48.291958,38.9403511 L51.526363,30.9498642"/>
  </g>
</svg>