<svg xmlns="http://www.w3.org/2000/svg" width="62" height="67" viewBox="0 0 62 67">
  <g fill="none" fill-rule="evenodd" stroke="#4E4E4E" stroke-width="2" transform="translate(1 1)">
    <path d="M24.5746203,42.0791079 C26.6461827,43.313595 29.0502482,44.0196285 31.6135235,44.0196285 C39.3982625,44.0196285 45.7005149,37.5042801 45.7011272,29.4556205 C45.7017396,21.4106349 39.4000996,14.9056964 31.6037259,14.9044717 C28.9651323,14.9038594 26.4992199,15.6496953 24.3903045,16.9497032 M21.1363044,10.5396782 C22.7130922,9.56115124 24.4007144,8.83001159 26.1961093,8.39218508 C26.6596543,8.27951364 26.8690762,8.05110904 26.9456193,7.53612709 C27.3044533,5.12777511 27.7128873,2.72677126 28.1041756,0.323930383 L35.1142985,0.323930383 C35.5049745,2.72738361 35.9134084,5.12777511 36.2728548,7.53612709 C36.3493979,8.04988435 36.5575951,8.27828895 37.0235895,8.39157273 C38.8471522,8.83613504 40.5543694,9.59115614 42.1581004,10.5788683 C42.6057244,10.8544234 42.9125092,10.8476876 43.33319,10.528656 C45.0569405,9.2212999 46.8168194,7.96538077 48.5411823,6.65802469 C48.9300212,6.36226216 49.1363814,6.34450416 49.4933784,6.72844434 C50.8405369,8.17725206 52.2177003,9.59789193 53.6193575,10.9897516 C53.987989,11.3565461 53.9732927,11.5745408 53.6867154,11.976239 C52.4503913,13.70795 51.2661165,15.4788511 50.0291801,17.2099498 C49.6776942,17.7016626 49.5882918,18.0715189 49.9250815,18.6452859 C50.8803393,20.2679996 51.5857605,22.0137945 52.003992,23.8704238 C52.112377,24.3505021 52.3352705,24.5635981 52.8331068,24.6432029 C55.1649157,25.0130592 57.4893764,25.4361894 59.8162865,25.8397246 L59.8162865,33.0813139 C57.4930505,33.4842367 55.1722638,33.9049176 52.844129,34.2772232 C52.3573149,34.3556033 52.1154387,34.5448179 52.0052167,35.0359184 C51.5784123,36.9476587 50.8338011,38.7314191 49.8571112,40.4067944 C49.597477,40.8507443 49.6372794,41.1452822 49.9226321,41.5469803 C51.2005956,43.3497233 52.4375321,45.1830836 53.7130462,46.9876636 C53.9739051,47.3569075 53.9849273,47.5718405 53.64875,47.9080178 C52.2538286,49.3023268 50.8742159,50.7156186 49.526445,52.1589152 C49.1584258,52.5538776 48.9287965,52.5655121 48.5099527,52.2464805 C46.7904886,50.9385121 45.0330591,49.6832053 43.3117579,48.3782986 C42.921082,48.0825361 42.6363417,48.0427336 42.2077003,48.3091036 C40.5849867,49.3164108 38.8581744,50.0867405 37.0076685,50.5276287 C36.532489,50.6409125 36.3487856,50.8919739 36.2728548,51.3953213 C35.9127961,53.8006115 35.5049745,56.1973289 35.1142985,58.5971081 L28.1041756,58.5971081 C27.7134996,56.1973289 27.305678,53.7999992 26.9456193,51.3953213 C26.8703009,50.8907492 26.6841481,50.6427495 26.2101932,50.5294658 C24.3596873,50.0873528 22.6328751,49.3170231 21.0119984,48.3078789"/>
    <polygon points="7.973 3.203 21.268 3.203 15.834 21.234 29.476 21.234 7.049 59.565 14.216 30.548 .575 30.548"/>
  </g>
</svg>