<svg xmlns="http://www.w3.org/2000/svg" width="62" height="67" viewBox="0 0 62 67">
  <g fill="none" fill-rule="evenodd" stroke="#4E4E4E" stroke-width="2" transform="translate(1 1)">
    <path d="M44.5200979,50.3227382 L44.5200979,38.2105586 C44.5200979,35.9234509 42.9151422,34.0692709 40.9360439,34.0692709 C38.9569456,34.0692709 37.3526023,35.9234509 37.3526023,38.2105586 L37.3526023,50.3227382"/>
    <path d="M57.1846737,55.5426099 C56.5398746,47.4523108 51.3588255,40.8647058 44.5691467,39.1011528 L44.5691467,36.9089586 C44.5691467,35.309514 43.2722005,34.0131801 41.6733683,34.0131801 L40.2478297,34.0131801 C38.6483851,34.0131801 37.3520512,35.309514 37.3520512,36.9089586 L37.3520512,39.0913553 C30.5372663,40.8365379 25.3311111,47.4363899 24.6869244,55.548121 C23.489178,55.5928222 22.528409,56.7219859 22.528409,58.1169073 C22.528409,59.5399966 23.6912518,60.8002021 24.9226771,60.8002021 C29.2488929,63.4253241 34.8316402,65.0137465 40.9361052,65.0137465 C47.0411825,65.0137465 52.6239298,63.4253241 56.9501456,60.8002021 C58.1809586,60.8002021 59.3927889,59.5399966 59.3927889,58.1169073 C59.3927889,56.7023909 58.4063015,55.5560815 57.1846737,55.5426099 Z"/>
    <path d="M32.6556118 56.8552322C34.1527947 58.4112002 37.2928987 59.485253 40.9363501 59.485253 44.5798015 59.485253 47.7199055 58.4112002 49.2170884 56.8552322M4.08170654 46.3957099L4.08170654 12.7736956C4.08170654 10.3004351 5.81647927 8.29500596 7.95723659 8.29500596L14.8081499 8.29500596M21.9033887 60.8001409L16.6666163 60.8001409M28.2349724 8.29518967L34.5941729 8.29518967C36.7343178 8.29518967 38.4690906 10.3000064 38.4690906 12.7738793L38.4690906 30.7517094"/>
    <polygon points="14.671 6.637 28.099 6.637 28.099 .581 14.671 .581"/>
    <path d="M15.7733889,55.9836206 C15.7733889,60.378419 12.276288,63.9416533 7.96231905,63.9416533 C3.64835014,63.9416533 0.151249158,60.378419 0.151249158,55.9836206 C0.151249158,51.5882099 3.64835014,48.025588 7.96231905,48.025588 C12.276288,48.025588 15.7733889,51.5882099 15.7733889,55.9836206 Z"/>
    <polyline points="8.449 18.956 11.041 21.51 14.671 16.306"/>
    <polyline points="8.449 28.56 11.041 31.114 14.671 25.91"/>
    <polyline points="8.449 38.676 11.041 41.231 14.671 36.027"/>
    <path d="M21.3846102 19.5233883L30.6089719 19.5233883M21.3846102 28.5121197L29.2177245 28.5121197M21.3846102 38.6289738L27.5797023 38.6289738"/>
    <polyline points="12.077 56.741 7.437 56.741 7.437 51.821"/>
  </g>
</svg>