<svg xmlns="http://www.w3.org/2000/svg" width="63" height="63" viewBox="0 0 63 63">
  <g fill="none" fill-rule="evenodd" stroke="#4E4E4E" stroke-width="2" transform="translate(1 2)">
    <path d="M23.6842098,31.2987782 L46.9453506,31.2987782 C51.1037839,31.2987782 54.4753542,27.9278203 54.4753542,23.7693869 L54.4753542,20.0634764 C54.4753542,15.9050431 51.1037839,12.5340851 46.9453506,12.5340851 L23.6842098,12.5340851 L23.6842098,31.2987782 Z"/>
    <polygon points="7.806 43.182 .513 32.413 .648 11.126 8.077 .609 15.37 11.378 15.234 32.665"/>
    <polygon points="22.977 45.016 32.965 38.783 49.685 38.93 59.438 45.312 49.45 51.545 32.73 51.396"/>
    <polygon points="15.37 32.86 23.684 32.86 23.684 11.378 15.37 11.378"/>
    <polyline points="23.684 11.207 16.766 .34 8.076 .34"/>
    <polyline stroke-linecap="round" points="23.684 33.026 16.136 43.387 7.941 43.364"/>
    <polygon points="32.73 59.475 49.627 59.475 49.627 51.397 32.73 51.397"/>
    <polyline points="22.686 45.013 22.686 52.549 32.73 59.581"/>
    <polyline points="59.755 45.306 59.755 53.359 49.656 59.537"/>
    <path d="M50.1911453 45.0965592C50.1911453 47.1503636 46.1692648 48.815329 41.2080475 48.815329 36.2462178 48.815329 32.2243374 47.1503636 32.2243374 45.0965592 32.2243374 43.0427549 36.2462178 41.3777895 41.2080475 41.3777895 46.1692648 41.3777895 50.1911453 43.0427549 50.1911453 45.0965592zM26.2029675 12.5340851L31.7440754 31.2987782M35.4733775 12.7367712L41.0144853 31.5014644M44.6501599 12.5340851L50.1912677 31.2987782"/>
  </g>
</svg>