<svg xmlns="http://www.w3.org/2000/svg" width="62" height="59" viewBox="0 0 62 59">
  <g fill="none" fill-rule="evenodd" stroke="#4E4E4E" stroke-width="2" transform="translate(1 1)">
    <path d="M17.9937511 43.061394L8.49383431 43.061394 6.87479474 43.061394C3.07825716 43.061394 0 40.0887523 0 36.4216615L0 6.63973256C0 2.97264174 3.07825716 0 6.87479474 0L7.88577595 0 52.3677248 0C56.1642623 0 59.2419071 2.97264174 59.2419071 6.63973256L59.2419071 36.4216615C59.2419071 40.0887523 56.1642623 43.061394 52.3677248 43.061394L47.1585078 43.061394M6 0L6 43.061394M52 0L52 42.9814574M3 18L3 24.2494866M56 21L56 24.2224436"/>
    <path d="M30.5497216 42.1883128L30.5497216 22.2742485C30.5497216 21.0183294 29.5313923 20 28.2748608 20 27.0183294 20 26 21.0183294 26 22.2742485L26 42.1883128M36.6354089 42.5555992L36.6354089 34.6281838C36.6354089 33.1769266 35.3733663 32 33.8173983 32 32.2608179 32 31 33.1769266 31 34.6281838L31 42.5555992"/>
    <path d="M41.4719129 42.5091429L41.4719129 36.6281838C41.4719129 35.1769266 40.2472233 34 38.7359564 34 37.2246895 34 36 35.1769266 36 36.6281838L36 42.5091429M47.674599 42.6041383L47.674599 38.982119C47.674599 37.3355239 46.4045959 36 44.8376057 36 43.2706154 36 42 37.3355239 42 38.982119L42 42.6041383M25.7638784 33.3755823C20.7199945 32.0899356 17 27.6523449 17 22.3759752 17 16.0931817 22.2735132 11 28.7778393 11 35.2827778 11 40.5550663 16.0931817 40.5550663 22.3759752 40.5550663 26.3106315 38.487178 29.7789911 35.3440123 31.8212598"/>
    <path d="M26.0555594 28.4398934C23.6625161 27.3180056 22 24.8743887 22 22.0471871 22 18.1613809 25.1413287 15 29.0021624 15 32.8642209 15 36.0055496 18.1613809 36.0055496 22.0471871 36.0055496 25.4184015 33.6418988 28.2439377 30.4944467 28.9339459M26.1475204 41L26.1475204 43.0060415C24.3104861 41.2124836 18.5354625 41.8621814 18.0480361 43.5712357L18.0094584 43.8002526C17.8710685 45.8791631 19.2727256 46.4265994 20.809711 46.6011176 22.5303998 46.7964556 25.7494963 47.7370172 26.1475204 51.0124493L26.1475204 56.8333987 47.4785504 56.8333987 47.4785504 41"/>
  </g>
</svg>
