<svg xmlns="http://www.w3.org/2000/svg" width="62" height="53" viewBox="0 0 62 53">
  <g fill="none" fill-rule="evenodd" stroke="#4E4E4E" stroke-width="2" transform="translate(1 1)">
    <path d="M56.6049056,45.242481 L56.8259621,45.242481 C58.2692587,45.242481 59.4388372,44.2541565 59.4388372,43.0355905 L59.4388372,26.5359606 C59.4388372,25.3167822 58.2692587,24.3290701 56.8259621,24.3290701 L51.8396386,24.3290701 L51.8396386,0.117570196 L33.013711,0.117570196 L19.5415137,45.242481 L22.3123738,45.242481"/>
    <polyline points="33.971 45.242 41.649 45.242 45.317 45.242"/>
    <polyline points="14.821 46.11 16.046 41.968 27.141 4.457"/>
    <path d="M.197419954 36.6224424L16.0461273 41.9675999M22.4146966 44.2591165C22.4146966 41.0002177 25.0434927 38.35795 28.287083 38.35795 31.5300609 38.35795 34.1594693 41.0002177 34.1594693 44.2591165 34.1594693 47.5180154 31.5300609 50.1596707 28.287083 50.1596707 25.0434927 50.1596707 22.4146966 47.5180154 22.4146966 44.2591165zM45.1025602 44.2591165C45.1025602 41.0002177 47.7313563 38.35795 50.9749466 38.35795 54.2179245 38.35795 56.8473329 41.0002177 56.8473329 44.2591165 56.8473329 47.5180154 54.2179245 50.1596707 50.9749466 50.1596707 47.7313563 50.1596707 45.1025602 47.5180154 45.1025602 44.2591165zM51.8395162 24.3288864L47.8709097 24.3288864C46.6284622 24.3288864 45.6217674 25.1794333 45.6217674 26.2283798L45.6217674 31.6592656C45.6217674 32.9782562 44.3554384 34.0480226 42.7939592 34.0480226L34.481379 34.0480226 22.883569 34.0480226"/>
    <path d="M45.6215837 27.8866095L40.4172655 27.8866095C38.7523 27.8866095 37.2453195 28.718786 36.5766391 30.0071594L34.4818076 34.0480226M29.2999624 34.0480838L30.1658179 29.295676C30.3219659 28.4408427 29.8602579 27.5896835 28.9925654 27.1304249L25.5003631 25.2835931"/>
    <polyline points="28.287 21.031 30.747 22.517 32.884 23.808"/>
    <path d="M28.2869605,26.7570171 L30.7473618,22.5171419"/>
    <polygon points="14.67 37.826 4.91 34.883 9.079 20.919 18.84 23.862"/>
    <polygon points="18.911 11.139 22.33 12.17 18.839 23.861 15.42 22.831"/>
    <polygon points="14.449 14.203 17.703 15.184 15.42 22.831 12.167 21.85"/>
  </g>
</svg>