<svg xmlns="http://www.w3.org/2000/svg" width="62" height="62" viewBox="0 0 62 62">
  <g fill="none" fill-rule="evenodd" stroke="#4E4E4E" stroke-width="2" transform="translate(1 1)">
    <path d="M44.7862229 8.13046892C40.6712661 8.12985658 37.3505204 11.5002022 37.3450093 15.682517 37.3388858 19.8464614 40.6767772 23.2284416 44.7911217 23.2284416 48.9036292 23.2290539 52.2323353 19.8501355 52.2323353 15.6757812 52.2329477 11.5044886 48.9042415 8.13108127 44.7862229 8.13046892zM42.9369417.569235698L46.6397905.569235698C46.8467631 1.81596965 47.0623084 3.06086657 47.2521353 4.30943756 47.2925501 4.57580753 47.4027721 4.69399007 47.6489347 4.75338751 48.612153 4.98362915 49.5135245 5.37491746 50.3610097 5.88745003 50.5973748 6.03012636 50.7596462 6.02645229 50.9819273 5.8611192 51.892484 5.18325354 52.8226357 4.53233105 53.73258 3.85446539 53.9383279 3.70076685 54.0479376 3.69158168 54.2359274 3.89059373 54.947472 4.64194077 55.6749376 5.37859152 56.4152625 6.10054601 56.6106004 6.29037289 56.6020276 6.40365667 56.4507784 6.61246624 55.7980189 7.51016367 55.1722026 8.42806848 54.519443 9.32576591 54.3332902 9.58111368 54.2861397 9.7727776 54.464332 10.0703772 54.9682918 10.9117389 55.3412097 11.8173968 55.5622662 12.7800028 55.6192143 13.0286147 55.7367844 13.1394491 56.0000927 13.1804762 57.2321304 13.3727525 58.4598816 13.5913596 59.6888576 13.8013938L59.6888576 17.556292C58.4617187 17.7651015 57.2358044 17.9830963 56.0056038 18.1765972 55.748419 18.217012 55.6210513 18.3149871 55.5628785 18.5697226 55.3369233 19.5611087 54.943798 20.4863617 54.4282037 21.3546666 54.2910384 21.5855206 54.3118582 21.7379944 54.462495 21.9461916 55.1379113 22.8812421 55.7912831 23.8322135 56.4648624 24.7678763 56.60264 24.9589279 56.6087634 25.070987 56.4311834 25.2448929 55.6939203 25.9680721 54.96523 26.7004364 54.2536854 27.4493341 54.0589598 27.6538572 53.9377155 27.660593 53.7160467 27.4952599 52.8085518 26.8161696 51.8796247 26.1658594 50.9702928 25.4886061 50.7639326 25.3355199 50.6139081 25.3147002 50.3867282 25.4530901 49.5300579 25.9754202 48.6176641 26.374669 47.6403619 26.6030736 47.3893005 26.6618587 47.2925501 26.7922881 47.2521353 27.053147 47.0616961 28.3004933 46.8467631 29.5435532 46.6397905 30.7878378L42.9369417 30.7878378C42.7305815 29.5435532 42.5156485 28.299881 42.3252093 27.053147 42.2854069 26.7916758 42.1868194 26.6630834 41.9369827 26.6042983 40.9590681 26.374669 40.0466744 25.9760326 39.1906164 25.4524778 38.9622118 25.3128632 38.8127997 25.3385817 38.6082765 25.4904432 37.6860853 26.1750446 36.7485855 26.8369893 35.8257819 27.5197537 35.635955 27.660593 35.5263453 27.6618177 35.3548888 27.4824007 34.6427318 26.7347277 33.920165 25.9956276 33.1810648 25.2748978 32.977154 25.0758858 32.9759293 24.9546415 33.1382007 24.7311356 33.8062688 23.8101691 34.4480062 22.8683829 35.1142373 21.9461916 35.2654864 21.7373821 35.2869185 21.5867452 35.1491409 21.3558913 34.6323219 20.4875864 34.2404213 19.5611087 34.0138537 18.5709473 33.955681 18.3143748 33.8270886 18.2176243 33.5711285 18.1772096 32.3415402 17.9830963 31.1156259 17.7651015 29.888487 17.556292L29.888487 13.8013938C31.117463 13.5919719 32.3452142 13.3733648 33.5766396 13.1810886 33.8393355 13.1400615 33.9581303 13.0292271 34.0156908 12.7800028 34.2361349 11.8173968 34.6121146 10.9141882 35.1117879 10.0697648 35.2697728 9.80217014 35.2709975 9.61724202 35.0842324 9.36189426 34.4198383 8.45439931 33.7878985 7.52241057 33.1259538 6.61246624 32.9747046 6.40304433 32.9679689 6.28976054 33.1620821 6.10054601 33.902407 5.37797918 34.6286479 4.64071608 35.3420295 3.89120608 35.5269576 3.69648044 35.6371797 3.69770513 35.8453769 3.85385305 36.742462 4.52498291 37.6628162 5.1648832 38.5580643 5.83846245 38.8091256 6.02706464 38.9916044 6.02828933 39.2561373 5.86663031 40.0895385 5.35960884 40.9811125 4.97995508 41.9290222 4.75338751 42.1739601 4.69521476 42.2847945 4.57641988 42.3252093 4.30943756 42.5150362 3.06025422 42.7305815 1.81535731 42.9369417.569235698zM16.2733072 31.1220555C11.2147271 32.9780725 8.6110371 38.6202173 10.4394986 43.7645257 12.2599996 48.885565 17.8470333 51.5376302 22.9056134 49.6810008 27.9611318 47.8255962 30.5709452 42.1699799 28.739422 37.0379184 26.9091235 31.9095309 21.3361738 29.2648139 16.2733072 31.1220555zM10.6819871 22.6612879C12.1993775 22.1040541 13.7167678 21.5474327 15.2341581 20.990199 16.0351051 22.4292092 16.8464619 23.8627083 17.6284262 25.3121284 17.794984 25.6213625 17.9823615 25.7168883 18.3105783 25.6783105 19.5958899 25.5270614 20.8763028 25.6011551 22.1426318 25.8485424 22.4959548 25.9177373 22.6937421 25.8405819 22.8945912 25.5362465 23.7163579 24.291962 24.5736406 23.0721712 25.3954073 21.8272743 25.5809477 21.546208 25.7113772 21.4855859 26.0297964 21.6454079 27.2342786 22.2479551 28.45162 22.8253963 29.6787589 23.3783436 30.002077 23.5240816 30.0418794 23.666758 29.9475783 23.9913007 29.5391443 25.3898961 29.1729621 26.8013508 28.7633035 28.1999463 28.6475703 28.5967457 28.6732888 28.8539305 29.0229377 29.1392832 30.0118745 29.9469659 30.8673201 30.8912016 31.5617191 31.9750518 31.7411361 32.2555057 31.9346371 32.3381723 32.2757131 32.270202 33.8745453 31.950558 35.4801133 31.6658177 37.0832319 31.3682181 37.6325051 32.9070405 38.1817784 34.445863 38.7310517 35.9846854 37.3140859 36.7960422 35.9026312 37.6165842 34.4758678 38.4095707 34.1770436 38.5749037 34.0631475 38.7530961 34.1035622 39.0929474 34.2615472 40.4131627 34.1837794 41.7284793 33.930881 43.0290996 33.8635231 43.3738497 33.9559871 43.552042 34.232767 43.7406442 35.4727651 44.5850677 36.6937806 45.4588836 37.9331664 46.3051441 38.1860648 46.4784377 38.2424005 46.6125412 38.1009489 46.907079 37.5118732 48.1287068 36.9374938 49.3582951 36.3912823 50.6001303 36.2418702 50.9393693 36.0955198 51.0012162 35.7507697 50.8977299 34.3368656 50.4739873 32.9094899 50.0931089 31.4943612 49.6712033 31.1734925 49.5756775 30.9793792 49.6185417 30.7613845 49.8904228 29.9371684 50.919162 28.9910957 51.8217582 27.8894875 52.544325 27.6071966 52.7298655 27.5447374 52.9337763 27.6102583 53.2724029 27.9231665 54.8914425 28.2042327 56.5166055 28.4963212 58.1405438 26.9789308 58.6971652 25.4615405 59.254399 23.9441501 59.8110204 23.1444279 58.3738472 22.3342957 56.9427975 21.5529438 55.4958268 21.3888354 55.1921038 21.2118678 55.07882 20.8781399 55.1192347 19.5762949 55.2784444 18.2793487 55.1994519 16.9964864 54.9422671 16.654798 54.8736845 16.4821168 54.9728843 16.2971887 55.2521136 15.4643998 56.5092574 14.6022183 57.7468062 13.7669801 59.0027253 13.5949112 59.2611348 13.4620324 59.3125717 13.1723933 59.1686707 11.9679111 58.5716346 10.7554685 57.9886823 9.53077894 57.435735 9.19276463 57.2832612 9.13826594 57.1350737 9.23930283 56.7872619 9.65692197 55.3531504 10.0322893 53.9061798 10.4468467 52.471456 10.5405355 52.1463009 10.5007331 51.9521876 10.2300767 51.7299064 9.2141967 50.8958929 8.32568443 49.9338992 7.61230278 48.8188194 7.427987 48.5291803 7.22713792 48.4685582 6.89524705 48.5340791 5.29825189 48.8506613 3.69574563 49.136014 2.0950764 49.4330012 1.54580314 47.8941788.996529879 46.3553564.44725662 44.816534 1.8666718 44.0051772 3.27996353 43.1821858 4.70978857 42.3891993 5.01351157 42.2208045 5.11209908 42.03159 5.07290901 41.6984744 4.9222722 40.4156121 4.98718075 39.1358116 5.23089397 37.8713196 5.30804941 37.4714585 5.22844459 37.2436662 4.8867562 37.0146493 3.67125184 36.199006 2.48514002 35.3380493 1.27269737 34.5168949.994692845 34.3289051.936520092 34.1923522 1.09205566 33.8720959 1.68541775 32.6498557 2.25428604 31.4153687 2.80233461 30.1723088 2.94439859 29.8489908 3.08033913 29.8018402 3.40488186 29.899203 4.80286497 30.3192715 6.21431967 30.6909648 7.61107809 31.1147074 8.0023664 31.2335023 8.22648458 31.1526728 8.48183235 30.8348658 9.28339166 29.8355192 10.212931 28.966602 11.2796356 28.2599561 11.5545784 28.0774773 11.6384696 27.881527 11.5711117 27.5355522 11.2557542 25.9146756 10.9753003 24.2864509 10.6819871 22.6612879z"/>
  </g>
</svg>