<svg xmlns="http://www.w3.org/2000/svg" width="63" height="62" viewBox="0 0 63 62">
  <g fill="none" fill-rule="evenodd" stroke="#4E4E4E" stroke-width="2" transform="translate(2 1)">
    <polyline points="7.112 15.17 6.509 6.859 9.649 3.445 15.204 4.336 15.204 11.163"/>
    <polyline points="53.37 15.764 55.061 10.42 52.042 4.335 45.882 2.258 43.587 3.445 42.863 7.007 38.032 9.308"/>
    <path d="M32.596398,3.44486797 C32.71703,2.70270611 25.8330501,0.357425642 25.8330501,0.357425642 L17.4990377,1.36718217 L15.2045819,4.33521727"/>
    <polyline points="29.728 11.014 29.728 6.413 36.945 1.396 43.331 4.706"/>
    <polyline points="21.968 3.445 24.987 6.117 24.987 10.124"/>
    <path d="M.84717899 19.7569366L8.32023457 19.7569366M58.6088039 19.7569366L50.8338623 19.7569366"/>
    <polyline points=".107 44.239 .107 49.359 5.5 49.359"/>
    <polyline points="53.956 49.359 59.349 49.359 59.349 44.239"/>
    <path d="M25.6536943,51.684348 C25.6536943,56.0558773 22.2270129,59.5995165 17.9993846,59.5995165 C13.7723687,59.5995165 10.345075,56.0558773 10.345075,51.684348 C10.345075,47.3128187 13.7723687,43.7691795 17.9993846,43.7691795 C22.2270129,43.7691795 25.6536943,47.3128187 25.6536943,51.684348 Z"/>
    <path d="M17.9996908 55.775852C15.8179064 55.775852 14.0433313 53.9394301 14.0433313 51.6835519 14.0433313 49.4288985 15.8179064 47.5918642 17.9996908 47.5918642 20.1814752 47.5918642 21.9560504 49.4288985 21.9560504 51.6835519 21.9560504 53.9394301 20.1814752 55.775852 17.9996908 55.775852zM48.6548947 51.684348C48.6548947 56.0558773 45.227601 59.5995165 41.0005851 59.5995165 36.7729568 59.5995165 33.3462755 56.0558773 33.3462755 51.684348 33.3462755 47.3128187 36.7729568 43.7691795 41.0005851 43.7691795 45.227601 43.7691795 48.6548947 47.3128187 48.6548947 51.684348z"/>
    <path d="M41.0008913,55.775852 C38.8191068,55.775852 37.0439193,53.9394301 37.0439193,51.6835519 C37.0439193,49.4288985 38.8191068,47.5918642 41.0008913,47.5918642 C43.1826757,47.5918642 44.9572508,49.4288985 44.9572508,51.6835519 C44.9572508,53.9394301 43.1826757,55.775852 41.0008913,55.775852 Z"/>
    <polyline points="48.657 51.545 53.551 51.545 59.349 15.763 .107 15.763 5.905 51.545 10.345 51.545"/>
    <path d="M25.6536943,51.5450396 L33.3478063,51.5450396"/>
  </g>
</svg>