<svg xmlns="http://www.w3.org/2000/svg" width="59" height="62" viewBox="0 0 59 62">
  <g fill="none" fill-rule="evenodd" stroke="#4E4E4E" stroke-width="2" transform="translate(1 1)">
    <path d="M14.2963521 44.685431L13.8101504 40.8662366C13.8370935 40.724785 13.8511775 40.5802716 13.8389306 40.4296348L13.5027533 36.2669151 3.40028927 36.2669151 3.40028927 38.9606197 3.40028927 40.3861583 3.40028927 48.1200728.288965497 55.5361803C-.206421422 56.7161687.249775432 58.1374209 1.30178375 58.6928176 2.35440441 59.2482143 3.62012105 58.7369064 4.11612031 57.556918L7.21091078 50.1781636C7.46748324 49.8799517 7.62914226 49.4978485 7.62914226 49.0765553L7.62914226 42.0964373 9.70131696 42.1472619 10.1550644 45.7123332 10.1550644 57.9482064C10.1550644 58.8820321 10.9186584 59.6456261 11.8518718 59.6456261L12.6871101 59.6456261C13.6203235 59.6456261 14.3839174 58.8820321 14.3839174 57.9482064L14.3839174 45.1967389C14.3839174 45.0179342 14.3484014 44.8483147 14.2963521 44.685431zM23.3983673 23.1397741L15.1574313 22.4894639 6.36048636 17.2159507C5.46278893 16.6776997 4.33607455 17.0610275 3.8566086 18.0683347 3.37714264 19.0750295 3.71883102 20.3395214 4.61652846 20.8777725L13.7637346 26.3619322C14.048475 26.5327764 14.7606319 26.6209541 14.8181923 26.6252405L23.1387331 27.2816741C24.1540007 27.3618912 25.0431253 26.4948111 25.1141573 25.3564621 25.1858016 24.2175009 24.4136349 23.2199912 23.3983673 23.1397741zM14.3791411 9.5767048C14.3791411 13.3983485 11.6180786 16.4962007 8.2116046 16.4962007 4.80513065 16.4962007 2.04406808 13.3983485 2.04406808 9.5767048"/>
    <path d="M8.25722429.689316508C3.96958621.689316508.493304947 4.58872801.493304947 9.39992087L16.0211436 9.39992087C16.0211436 4.58872801 12.5448624.689316508 8.25722429.689316508zM24.4010818 21.0436567C25.4187988 21.0436567 26.2515877 20.1098309 26.2515877 18.9684202 26.2515877 17.8257849 25.4187988 16.8919591 24.4010818 16.8919591L5.61005785 16.8919591C4.38965472 16.8919591 3.40010557 18.0021402 3.40010557 19.3719554L3.40010557 36.26716 13.5325745 36.26716 13.5325745 26.2228687 13.7634285 26.361871C14.0487811 26.5327152 14.7603257 26.6208928 14.8184985 26.6251793L23.1390392 27.2816128C24.1536945 27.36183 25.0428191 26.4953622 25.1144635 25.3564009 25.1861078 24.2174396 24.4133287 23.21993 23.3986734 23.1397128L15.1577375 22.490015 13.5325745 21.5157745 13.5325745 21.0436567 24.4010818 21.0436567zM9.41669911 9.39967593L19.6961308 9.39967593M7.00859207.804743497L7.00859207 4.38389868M9.41669911.804743497L9.41669911 4.38389868"/>
    <polyline points="40.64 50.774 34.414 50.774 31.242 49.002 21.021 58.918 56.5 58.918 56.5 3.399 53.093 5.112 50.273 13.037 52.035 16.496"/>
    <polyline points="45.927 39.26 42.285 39.26 38.76 32.922 33.239 32.263 31.242 49.002"/>
    <polyline points="50.273 13.037 45.457 13.037 44.165 20.463 48.981 27.287 49.569 32.263 42.402 27.287 38.761 32.923"/>
    <path d="M41.9322676 22.1297726L41.9322676 24.3556458M39.3480502 26.5794371L38.5844563 28.5732317M22.6497145 22.8885902L29.3842823 5.72211694M19.6958858 30.4185326L21.0216123 27.0390018M32.1446101 3.70199154C32.1446101 5.04792535 31.1679202 6.13973607 29.9628257 6.13973607 28.7577312 6.13973607 27.7810412 5.04792535 27.7810412 3.70199154 27.7810412 2.35544539 28.7577312 1.26424701 29.9628257 1.26424701 31.1679202 1.26424701 32.1446101 2.35544539 32.1446101 3.70199154z"/>
    <path d="M30.7940837 5.77526847C34.2348489 7.66006567 36.7546477 10.3629555 37.7227648 13.0364528 38.8409063 9.49097653 36.234767 5.04229178 31.9036524 2.42513023M29.4868501 1.32260347C24.0106508-.674865171 18.4315776.660658773 17.0911549 4.58946282 19.6795362 3.07635889 23.8036783 2.96307511 28.0606991 4.53251476"/>
  </g>
</svg>