<svg xmlns="http://www.w3.org/2000/svg" width="65" height="62" viewBox="0 0 65 62">
  <g fill="none" fill-rule="evenodd" stroke="#4E4E4E" stroke-width="2" transform="translate(1 1)">
    <path d="M58.8324322,13.7578561 C60.9976833,14.9500914 62.4795577,17.3682409 62.4795577,20.1556343 L62.4795577,46.4215509 C62.4795577,50.3919944 59.4747819,53.6110908 55.7676466,53.6110908 L14.4239648,53.6110908 C10.7174419,53.6110908 7.71266609,50.3919944 7.71266609,46.4215509 L7.71266609,20.1556343 C7.71266609,16.1851908 10.7174419,12.9660943 14.4239648,12.9660943 L32.2321754,12.9660943"/>
    <path d="M56.8070406 28.8792816L34.3248024 28.8792816C33.2678953 28.8792816 32.411225 28.0226113 32.411225 26.9657042L32.411225 2.22636312C32.411225 1.16945604 33.2678953.312785709 34.3248024.312785709L56.8070406.312785709C57.8645601.312785709 58.720618 1.16945604 58.720618 2.22636312L58.720618 26.9657042C58.720618 28.0226113 57.8645601 28.8792816 56.8070406 28.8792816zM1.75883788 45.9424523L4.58787072 45.9424523 4.58787072 22.936047 1.75883788 22.936047C.850118245 22.936047.112855141 23.6726977.112855141 24.5814173L.112855141 44.2964696C.112855141 45.2058016.850118245 45.9424523 1.75883788 45.9424523z"/>
    <polygon points="11.747 59.554 19.622 59.554 19.622 53.611 11.747 53.611"/>
    <polygon points="47.266 59.554 55.142 59.554 55.142 53.611 47.266 53.611"/>
    <polygon points="44.582 4.627 51.382 4.627 46.997 12.199 53.083 12.199 40.107 24.47 44.223 14.595 38.765 14.595"/>
    <path d="M10.1360817 18.8138644L20.6959673 18.8138644M10.1360817 25.04435L20.6959673 25.04435M10.1360817 37.0269574L20.6959673 37.0269574M10.1360817 43.2580553L20.6959673 43.2580553M10.1360817 48.5305275L20.6959673 48.5305275"/>
  </g>
</svg>