<svg xmlns="http://www.w3.org/2000/svg" width="62" height="62" viewBox="0 0 62 62">
  <g fill="none" fill-rule="evenodd" stroke="#4E4E4E" stroke-width="2" transform="translate(1 1)">
    <path d="M26.8948559 5.04272042L26.884446 5.04884387C26.2163779 2.50332666 23.5624757.599546765 20.3844063.599546765 16.7023772.599546765 13.7178088 3.15241211 13.7178088 6.30170127 13.7178088 8.82088765 15.6307738 10.9542968 18.281002 11.7087056 26.0418596 15.6209763 27.0510038 23.7614877 27.0510038 23.7614877 30.4072655 15.5664776 26.8948559 5.04272042 26.8948559 5.04272042zM57.0516111 10.3289704C54.5820247 8.34374861 50.8938721 8.16494393 48.2001675 9.72581075L48.1977181 9.7141762C48.1977181 9.7141762 36.4805009 15.6980093 32.0887642 24.1636757 32.0887642 24.1636757 39.8251281 18.4676447 49.1982895 20.2752865 51.9011793 21.3450528 55.2109028 20.8815078 57.3626823 18.9238415 60.0521005 16.4769118 59.9124859 12.6289373 57.0516111 10.3289704zM19.7063569 22.8174358C13.5388204 19.7502008 4.58266579 20.4286788 4.58266579 20.4286788L4.58633986 20.4354146C2.44374551 20.4923627.556498927 21.8064546.135205725 23.6820666-.352833057 25.8546658 1.31090768 27.954396 3.85152614 28.3714028 5.88451077 28.7051307 7.859935 27.8588703 8.81947926 26.3953663 13.0048558 22.3336834 19.7063569 22.8174358 19.7063569 22.8174358z"/>
    <polygon points="17.637 37.748 36.7 37.748 36.7 28.444 17.637 28.444"/>
    <polygon points="17.637 59.841 36.7 59.841 36.7 46.707 17.637 46.707"/>
    <polygon points="12.175 46.707 42.162 46.707 42.162 37.748 12.175 37.748"/>
    <path d="M12.1749449 46.7066586L1.09027986 59.8414539M17.6376114 49.0621652L8.59082972 59.8418826M36.6998428 49.0621652L46.4024457 59.8418826M42.1625093 46.7066586L54.944594 59.8414539M22.7291969 4.85969057C22.7291969 5.58531912 21.860892 6.17378244 20.789901 6.17378244 19.71891 6.17378244 18.8512175 5.58531912 18.8512175 4.85969057 18.8512175 4.13344967 19.71891 3.54559869 20.789901 3.54559869 21.860892 3.54559869 22.7291969 4.13344967 22.7291969 4.85969057zM6.55919224 22.4927093C6.55919224 22.9966691 5.94133637 23.4057154 5.17896713 23.4057154 4.41659789 23.4057154 3.79874202 22.9966691 3.79874202 22.4927093 3.79874202 21.9881372 4.41659789 21.5797033 5.17896713 21.5797033 5.94133637 21.5797033 6.55919224 21.9881372 6.55919224 22.4927093zM54.4234274 11.7796763C54.4234274 12.4440704 53.5998237 12.9829338 52.5839437 12.9829338 51.5680637 12.9829338 50.74446 12.4440704 50.74446 11.7796763 50.74446 11.1158946 51.5680637 10.5770312 52.5839437 10.5770312 53.5998237 10.5770312 54.4234274 11.1158946 54.4234274 11.7796763z"/>
  </g>
</svg>