<svg xmlns="http://www.w3.org/2000/svg" width="62" height="62" viewBox="0 0 62 62">
  <g fill="none" fill-rule="evenodd" stroke="#4E4E4E" stroke-width="2" transform="translate(1 1)">
    <polygon points="59.567 36.935 57.797 22.215 50.953 5.339 41.512 .194 38.68 1.989 40.803 15.632 40.82 15.787 .991 37.602 3.854 42.978 42.752 21.673 58.092 38.431"/>
    <path d="M18.3812428 59.4349182L1.62381586 59.4349182 1.62381586 55.3064898C1.62381586 53.8852376 2.77624872 52.7334171 4.19688859 52.7334171L15.8081701 52.7334171C17.2294223 52.7334171 18.3812428 53.8852376 18.3812428 55.3064898L18.3812428 59.4349182zM.325400011 59.4349182L53.3128177 59.4349182M3.85360811 42.9781525L3.85360811 52.7334171"/>
    <polyline points="25.02 31.191 25.02 35.41 31.569 35.41 31.569 27.57"/>
    <path d="M15.7261159 52.7332333L25.0196725 35.4093875M31.5693734 35.4093875L43.5180569 59.1959201M18.3812428 58.2981614L36.9481486 46.1173992M19.275205 46.1176442L32.9157971 38.0904166M19.1084023 46.4279805L42.7504215 59.4347957M36.9483323 46.1176442L23.5814583 38.0904166"/>
    <polyline points="42.751 9.199 44.138 11.174 47.943 9.199 46.793 7.225"/>
    <polyline points="51.041 26.164 55.289 29.009 54.67 24.458"/>
  </g>
</svg>