<svg xmlns="http://www.w3.org/2000/svg" width="62" height="61" viewBox="0 0 62 61">
  <g fill="none" fill-rule="evenodd" stroke="#4E4E4E" stroke-width="2" transform="translate(1 1)">
    <path d="M47.1174807 30.8347434C54.2794651 32.5015458 59.6387066 39.2514222 59.6387066 47.3245757L59.6387066 59.3945035M36.5844158 30.4394748L42.8897299 30.4394748M17.18913 30.4394748L23.8226609 30.4394748M.396860646 59.3942585L.396860646 47.3243308C.396860646 39.3497648 5.62689733 32.6660216 12.65784 30.89757M47.3668275 41.5232826C49.1267064 42.7804264 50.284038 44.9089368 50.284038 47.3240246L50.284038 59.3945647M36.3266799 40.3290878L42.9491886 40.3290878M17.1364684 40.3290878L24.0326952 40.3290878M9.75128429 59.3942585L9.75128429 47.3249431C9.75128429 44.9300627 10.8896332 42.8162486 12.6250183 41.5548183"/>
    <polygon points="12.543 46.219 17.012 46.219 17.012 27.229 12.543 27.229"/>
    <polygon points="42.794 46.219 47.263 46.219 47.263 27.229 42.794 27.229"/>
    <path d="M31.4075919,45.3103288 L28.9465783,45.3103288 C26.1849034,45.3103288 23.9461709,43.0722087 23.9461709,40.3105338 L23.9461709,26.5933986 L36.4079993,26.5933986 L36.4079993,40.3105338 C36.4079993,43.0722087 34.1692668,45.3103288 31.4075919,45.3103288 Z"/>
    <polygon points="21.111 26.593 39.244 26.593 39.244 19.687 21.111 19.687"/>
    <path d="M42.4605987 6.96701386L17.8933265 6.96701386C16.3832843 6.96701386 15.1592071 5.74293666 15.1592071 4.23228211L15.1592071 2.88696065C15.1592071 1.37630611 16.3832843.15222891 17.8933265.15222891L42.4605987.15222891C43.9706409.15222891 45.1953305 1.37630611 45.1953305 2.88696065L45.1953305 4.23228211C45.1953305 5.74293666 43.9706409 6.96701386 42.4605987 6.96701386zM30.1769014 6.96701386L30.1769014 19.6872518M27.9197986 18.1848026C26.5279389 18.1848026 25.3987751 16.1505933 25.3987751 13.6418168 25.3987751 11.1324279 26.5279389 9.0982186 27.9197986 9.0982186M32.3066977 18.1848026C33.6991697 18.1848026 34.8277212 16.1505933 34.8277212 13.6418168 34.8277212 11.1324279 33.6991697 9.0982186 32.3066977 9.0982186"/>
  </g>
</svg>