<svg xmlns="http://www.w3.org/2000/svg" width="65" height="39" viewBox="0 0 65 39">
  <g fill="none" fill-rule="evenodd" stroke="#4E4E4E" stroke-width="2" transform="translate(1 1)">
    <path d="M62.7618486,18.4338433 C62.7618486,28.342194 56.2777298,36.373708 48.2792824,36.373708 C40.2802227,36.373708 33.7961039,28.342194 33.7961039,18.4338433 C33.7961039,8.52549253 40.2802227,0.493978526 48.2792824,0.493978526 C56.2777298,0.493978526 62.7618486,8.52549253 62.7618486,18.4338433 Z"/>
    <path d="M48.2790987 32.2809793C42.5414282 32.2809793 37.873524 26.0693539 37.873524 18.434027 37.873524 10.7980877 42.5414282 4.58646233 48.2790987 4.58646233 54.0167692 4.58646233 58.6846734 10.7980877 58.6846734 18.434027 58.6846734 26.0693539 54.0167692 32.2809793 48.2790987 32.2809793zM16.69607 27.8390915C15.1021366 28.8978356 12.8131918 29.2830005 10.8016393 29.2830005 5.06396878 29.2830005.396064597 24.8692194.396064597 18.746384.396064597 12.624161 5.06396878 8.20976757 10.8016393 8.20976757 12.9877101 8.20976757 15.0194701 8.93294674 16.69607 10.1674338"/>
    <path d="M37.8841788 31.2063754L14.0658043 26.7662635C10.0892374 25.5581073 7.22836261 22.8148027 7.22836261 18.9306998 7.22836261 14.2046229 11.4657884 10.894287 16.7931879 10.6211813L37.1867181 6.89873742M41.6903915 11.4550111L41.6903915 12.5578441M41.6903915 16.0679268L41.6903915 17.1707597M41.6903915 20.2293606L41.6903915 21.3321935M41.6903915 24.2906148L41.6903915 25.3934477M46.5849857 11.5874613L46.5849857 12.6902943M46.5849857 16.2000708L46.5849857 17.3029037M46.5849857 20.3615046L46.5849857 21.4643375M46.5849857 24.4227588L46.5849857 25.5255917M51.0292616 11.5874613L51.0292616 12.6902943M46.6806339 7.37575399L46.6806339 8.47858692M51.1255222 7.37575399L51.1255222 8.47858692M51.0292616 16.2000708L51.0292616 17.3029037M51.0292616 20.3615046L51.0292616 21.4643375M51.0292616 24.4227588L51.0292616 25.5255917M55.511809 11.2863714L55.511809 12.3898167M55.511809 15.899287L55.511809 17.00212M55.511809 20.0607208L55.511809 21.1635538M55.511809 24.1219751L55.511809 25.224808M46.6806339 28.6721254L46.6806339 29.7749583M51.1255222 28.6721254L51.1255222 29.7749583"/>
    <path d="M22.4607449,19.8693631 C22.4607449,22.9935461 20.5612515,25.5255917 18.2184204,25.5255917 C15.8762016,25.5255917 13.9773205,22.9935461 13.9773205,19.8693631 C13.9773205,16.7451801 15.8762016,14.2125221 18.2184204,14.2125221 C20.5612515,14.2125221 22.4607449,16.7451801 22.4607449,19.8693631 Z"/>
    <path d="M18.2185428 24.1614101C17.423107 24.1614101 15.9008179 22.4897088 15.9008179 19.8694856 15.9008179 17.24865 17.423107 15.5769487 18.2185428 15.5769487 19.0139787 15.5769487 20.5362678 17.24865 20.5362678 19.8694856 20.5362678 22.4897088 19.0139787 24.1614101 18.2185428 24.1614101zM22.2418317 17.7551203L30.6719821 17.7551203M22.3375412 21.4645212L30.878526 21.4645212"/>
  </g>
</svg>