<svg xmlns="http://www.w3.org/2000/svg" width="62" height="57" viewBox="0 0 62 57">
  <g fill="none" fill-rule="evenodd" stroke="#4E4E4E" stroke-width="2" transform="translate(1 1)">
    <path d="M47.6314217,22.4251677 C48.2333566,24.5910312 48.5560623,26.8769142 48.5560623,29.2381156 C48.5560623,42.9564755 37.671634,54.118296 24.2943501,54.118296 C10.9164539,54.118296 0.0320256315,42.9564755 0.0320256315,29.2381156 C0.0320256315,15.5197557 10.9164539,4.35793526 24.2943501,4.35793526"/>
    <path d="M36.8029617,29.2381156 C36.8029617,36.3223323 31.2024564,42.0661262 24.2933704,42.0661262 C17.3848967,42.0661262 11.7843914,36.3223323 11.7843914,29.2381156 C11.7843914,22.1532866 17.3848967,16.410105 24.2933704,16.410105 C31.2024564,16.410105 36.8029617,22.1532866 36.8029617,29.2381156 Z"/>
    <path d="M24.2941664 32.5079142C22.5361246 32.5079142 21.1050749 31.0407362 21.1050749 29.2379932 21.1050749 27.4352502 22.5361246 25.9674597 24.2941664 25.9674597 26.0515959 25.9674597 27.4826456 27.4352502 27.4826456 29.2379932 27.4826456 31.0407362 26.0515959 32.5079142 24.2941664 32.5079142zM5.86160908 13.2154411C4.51322589 12.6465728 3.56102978 11.2853304 3.56102978 9.6999698 3.56102978 7.60575069 5.22354583 5.90098285 7.26571564 5.90098285 8.944765 5.90098285 10.3672419 7.05341571 10.820377 8.62775411M10.8489123 49.8287596C10.4312932 51.4569844 8.98248544 52.6620789 7.2654707 52.6620789 5.22330089 52.6620789 3.56139718 50.957311 3.56139718 48.8630919 3.56139718 47.2685461 4.52461551 45.8999556 5.88647028 45.3378231M42.7003929 45.2283971C44.2183956 45.7029643 45.3267396 47.153609 45.3267396 48.8632756 45.3267396 50.9568824 43.6636113 52.6622626 41.6214414 52.6622626 39.8046145 52.6622626 38.2890612 51.3132671 37.976153 49.540529"/>
    <polyline points="23.175 4.358 53.674 4.358 53.674 22.64 34.85 22.64"/>
    <path d="M58.074778 25.8169454L54.8734396 25.8169454C54.2108825 25.8169454 53.6738562 25.279919 53.6738562 24.6179743L53.6738562 1.48236422C53.6738562.820419523 54.2108825.28339316 54.8734396.28339316L58.074778.28339316C58.7367227.28339316 59.2737491.820419523 59.2737491 1.48236422L59.2737491 24.6179743C59.2737491 25.279919 58.7367227 25.8169454 58.074778 25.8169454zM23.1125247 26.1775552C23.1125247 26.1775552 23.5044254 19.5623947 19.8836307 17.2073167M21.0440853 29.191455C21.0440853 29.191455 15.1790471 26.4089603 11.7211362 29.0095886M22.3016578 31.8393562C22.3016578 31.8393562 16.6356316 35.0266107 16.6227724 39.4238585M25.4578664 32.0605964C25.4578664 32.0605964 25.2943704 38.6855544 28.9941575 40.908366M27.2704069 29.5089557C27.2704069 29.5089557 32.897243 32.7684669 36.5480426 30.4636012M26.2089685 26.8856095C26.2089685 26.8856095 32.0299179 24.005752 32.266283 19.61524"/>
  </g>
</svg>