<svg xmlns="http://www.w3.org/2000/svg" width="63" height="62" viewBox="0 0 63 62">
  <g fill="none" fill-rule="evenodd" stroke="#4E4E4E" stroke-width="2" transform="translate(1 1)">
    <path d="M28.2737951,35.3854448 L25.7184804,13.051394 L19.307843,9.15504419 L19.2147665,9.08829861 L10.0920542,9.15504419 C9.59421786,9.15504419 8.72958705,9.77167538 8.61507857,9.91251467 L1.26632898,19.0217555 C0.70603352,19.7161544 0.775840824,20.7773479 1.42063987,21.3798952 C2.0666636,21.9824424 3.05253868,21.907124 3.61344649,21.2127251 L10.2751452,12.840135 L17.3918162,12.8131918 L8.1258151,30.4499459 C8.1147929,30.469541 8.10438303,30.4885236 8.09519786,30.5081187 L8.01130663,30.666716 L8.02722759,30.6759011 C7.98191408,30.7799998 7.93231415,30.879812 7.89924754,30.9906464 L0.715831036,55.0796773 C0.283515629,56.5309344 1.03302563,58.0991493 2.38202116,58.5645314 C3.73101669,59.0299134 5.18839724,58.2234553 5.62132499,56.7728106 L12.3963075,34.0505332 L16.9196983,42.4145504 L17.0219599,56.9926423 C17.0329821,58.5167685 18.2001113,59.7543173 19.6164647,59.7426827 C21.0334305,59.7316605 22.183414,58.475129 22.1723918,56.9516152 L22.0676808,41.9479437 C22.1160561,41.3931593 22.0156315,40.8187799 21.7370147,40.3025733 L16.4935064,30.6067062 L22.3634434,19.3909994 L24.5060377,35.9745204 C24.6572869,37.0938867 25.6229546,37.8691152 26.6633283,37.7068438 C27.7037021,37.5439601 28.4244319,36.504811 28.2737951,35.3854448 Z"/>
    <path d="M30.8888134 6.28412697C30.8888134 9.47750495 28.4822985 12.0664986 25.513651 12.0664986 22.5450036 12.0664986 20.1378763 9.47750495 20.1378763 6.28412697 20.1378763 3.09013665 22.5450036.50114296 25.513651.50114296 28.4822985.50114296 30.8888134 3.09013665 30.8888134 6.28412697zM50.1818989 33.2135191C49.8004081 32.2055996 48.8898514 31.5467166 47.8782578 31.5467166 46.8305359 31.5467166 45.8960978 32.2527502 45.5391008 33.3121066L38.6183802 53.8648465 36.9509654 49.3898309C36.571924 48.3745633 35.5137922 47.6899618 34.3221693 47.6899618 33.129934 47.6899618 32.0718023 48.3745633 31.6933732 49.3898309L28.2244401 58.6962467 59.8355142 58.6962467 50.1818989 33.2135191zM5.13745015 19.2970657L42.4169998 42.583925"/>
  </g>
</svg>