<svg xmlns="http://www.w3.org/2000/svg" width="62" height="62" viewBox="0 0 62 62">
  <g fill="none" fill-rule="evenodd" stroke="#4E4E4E" stroke-width="2" transform="translate(1 1)">
    <path d="M54.8199206,17.9919753 C53.250481,17.9919753 51.8727052,18.9827491 51.4471256,20.4162482 L51.2670963,21.0236942 L35.6204627,21.0236942 L35.262241,24.0554132 L33.2317057,24.0554132 L32.7001905,21.0236942 L29.9734192,17.9925876 L19.7239925,15.8757117 L8.91059616,15.8757117 C4.28004501,15.8757117 0.52575922,19.438946 0.52575922,23.8337444 L19.5237557,23.8337444 L19.5237557,28.3185575 L48.771179,28.3185575 C54.7807306,28.3185575 59.6519332,23.6947421 59.6519332,17.9919753 L54.8199206,17.9919753 Z"/>
    <path d="M31.8181078,9.0232676 L32.8162298,7.76000034 L51.3831356,7.76000034 L51.563165,8.36744635 C51.9875199,9.8015578 53.365908,10.7917193 54.9353476,10.7917193 L59.7679725,10.7917193 C59.7679725,5.08895245 54.8961575,0.465749432 48.8872183,0.465749432 L31.8181078,0.465749432 L19.6397951,0.465749432 L19.6397951,5.20223623 L2.37044784,5.20223623 L2.37044784,9.94545882 C2.37044784,11.7212587 3.8100704,13.1602689 5.58525788,13.1602689 L19.6397951,13.1602689 L19.6397951,15.8760179 L9.02663549,15.8760179 C4.39608434,15.8760179 0.641798554,19.4386398 0.641798554,23.8340506 L19.6397951,23.8340506 L19.6397951,28.3182513 L19.6397951,59.7076566 L31.8181078,59.7076566 L31.8181078,28.3182513 L48.8872183,28.3182513 C54.8961575,28.3182513 59.7679725,23.6950483 59.7679725,17.9916691 L54.9353476,17.9916691 C53.365908,17.9916691 51.9875199,18.9830553 51.563165,20.4165544 L51.3831356,21.0240004 L35.7352773,21.0240004 L35.377668,24.0557194 L33.3477451,24.0557194 L32.8162298,21.0240004 L31.8181078,19.9144317 L31.8181078,13.1602689 L31.8181078,9.0232676 Z"/>
  </g>
</svg>