<svg xmlns="http://www.w3.org/2000/svg" width="62" height="63" viewBox="0 0 62 63">
  <g fill="none" fill-rule="evenodd" stroke="#4E4E4E" stroke-width="2" transform="translate(1 2)">
    <path d="M26.383548 59.5545704C26.383548 59.5545704 26.2176026 53.4415325 26.383548 52.200922 26.5501058 50.9609239 28.1428145 48.0204443 26.7485055 43.4168363 25.2482608 38.4666412 21.0947262 37.3564601 20.0519031 35.4563543 18.3802019 32.4099391 16.2192372 26.6851278 11.9701768 28.3684636 11.9701768 28.3684636 10.9708301 29.7860417 13.9700948 33.6842285 16.9693595 37.5824153 16.3857949 39.0006058 16.3857949 39.7972664 16.3857949 39.7972664 13.2199725 33.5072609 10.1374289 32.532408 7.05488533 31.5575551 5.55525299 23.8499715 5.4719741 22.1666357 5.38869521 20.4833 2.05570263 17.8257237.639961519 18.8887542-.776391934 19.9517847 1.63930818 25.6220973 1.63930818 25.6220973 1.63930818 25.6220973 2.55843768 32.2911442 2.80582497 33.0639233 4.13889954 37.2284801 16.4696862 46.0878842 15.8861216 52.3778897 15.302557 58.6685075 15.3864483 59.5545704 15.3864483 59.5545704L26.383548 59.5545704zM33.2467082 59.5545704C33.2467082 59.5545704 33.413266 53.4415325 33.2467082 52.200922 33.0807628 50.9609239 31.488054 48.0204443 32.8823631 43.4168363 34.3819954 38.4666412 38.5361423 37.3564601 39.5789655 35.4563543 41.2506667 32.4099391 43.4116314 26.6851278 47.6600794 28.3684636 47.6600794 28.3684636 48.6600384 29.7860417 45.6607737 33.6842285 42.661509 37.5824153 43.2444613 39.0006058 43.2444613 39.7972664 43.2444613 39.7972664 46.4102837 33.5072609 49.4928273 32.532408 52.5753709 31.5575551 54.0756156 23.8499715 54.1582821 22.1666357 54.2421733 20.4833 57.5745536 17.8257237 58.990907 18.8887542 60.4072605 19.9517847 57.990948 25.6220973 57.990948 25.6220973 57.990948 25.6220973 57.0724309 32.2911442 56.8250436 33.0639233 55.491969 37.2284801 43.1611824 46.0878842 43.7447469 52.3778897 44.3276992 58.6685075 44.2444203 59.5545704 44.2444203 59.5545704L33.2467082 59.5545704zM36.5859467 16.0816433L36.5859467 16.0816433 28.9389852.312540771 21.2914114 16.0816433C20.4408645 17.5439226 19.9405788 19.2609373 19.9405788 21.1065445 19.9405788 26.3910798 23.969195 30.6750439 28.9389852 30.6750439 33.908163 30.6750439 37.9367793 26.3910798 37.9367793 21.1065445 37.9367793 19.2609373 37.4371059 17.5439226 36.5859467 16.0816433z"/>
  </g>
</svg>