<svg width="810" height="248" viewBox="0 0 810 248" fill="none" xmlns="http://www.w3.org/2000/svg">
<rect x="0.5" y="0.5" width="809" height="247" rx="11.5" fill="white"/>
<rect width="810" height="36" fill="#EDF3F8"/>
<path d="M18.6309 22H16.873V13.4688H18.6309V22ZM27.2031 22H25.4453L22.0234 16.3867V22H20.2656V13.4688H22.0234L25.4512 19.0938V13.4688H27.2031V22ZM34.9844 14.8926H32.3711V22H30.6133V14.8926H28.0352V13.4688H34.9844V14.8926ZM41.125 18.3027H37.75V20.5879H41.7109V22H35.9922V13.4688H41.6992V14.8926H37.75V16.9258H41.125V18.3027ZM49.4922 20.9219C49.1758 21.3008 48.7285 21.5957 48.1504 21.8066C47.5723 22.0137 46.9316 22.1172 46.2285 22.1172C45.4902 22.1172 44.8418 21.957 44.2832 21.6367C43.7285 21.3125 43.2988 20.8438 42.9941 20.2305C42.6934 19.6172 42.5391 18.8965 42.5312 18.0684V17.4883C42.5312 16.6367 42.6738 15.9004 42.959 15.2793C43.248 14.6543 43.6621 14.1777 44.2012 13.8496C44.7441 13.5176 45.3789 13.3516 46.1055 13.3516C47.1172 13.3516 47.9082 13.5938 48.4785 14.0781C49.0488 14.5586 49.3867 15.2598 49.4922 16.1816H47.7812C47.7031 15.6934 47.5293 15.3359 47.2598 15.1094C46.9941 14.8828 46.627 14.7695 46.1582 14.7695C45.5605 14.7695 45.1055 14.9941 44.793 15.4434C44.4805 15.8926 44.3223 16.5605 44.3184 17.4473V17.9922C44.3184 18.8867 44.4883 19.5625 44.8281 20.0195C45.168 20.4766 45.666 20.7051 46.3223 20.7051C46.9824 20.7051 47.4531 20.5645 47.7344 20.2832V18.8125H46.1348V17.5176H49.4922V20.9219ZM54.0801 18.877H52.6797V22H50.9219V13.4688H54.0918C55.0996 13.4688 55.877 13.6934 56.4238 14.1426C56.9707 14.5918 57.2441 15.2266 57.2441 16.0469C57.2441 16.6289 57.1172 17.1152 56.8633 17.5059C56.6133 17.8926 56.2324 18.2012 55.7207 18.4316L57.5664 21.918V22H55.6797L54.0801 18.877ZM52.6797 17.4531H54.0977C54.5391 17.4531 54.8809 17.3418 55.123 17.1191C55.3652 16.8926 55.4863 16.582 55.4863 16.1875C55.4863 15.7852 55.3711 15.4688 55.1406 15.2383C54.9141 15.0078 54.5645 14.8926 54.0918 14.8926H52.6797V17.4531ZM63.4023 20.2422H60.3203L59.7344 22H57.8652L61.041 13.4688H62.6699L65.8633 22H63.9941L63.4023 20.2422ZM60.7949 18.8184H62.9277L61.8555 15.625L60.7949 18.8184ZM72.3789 14.8926H69.7656V22H68.0078V14.8926H65.4297V13.4688H72.3789V14.8926ZM75.2559 22H73.498V13.4688H75.2559V22ZM83.8984 17.9277C83.8984 18.7676 83.75 19.5039 83.4531 20.1367C83.1562 20.7695 82.7305 21.2578 82.1758 21.6016C81.625 21.9453 80.9922 22.1172 80.2773 22.1172C79.5703 22.1172 78.9395 21.9473 78.3848 21.6074C77.8301 21.2676 77.4004 20.7832 77.0957 20.1543C76.791 19.5215 76.6367 18.7949 76.6328 17.9746V17.5527C76.6328 16.7129 76.7832 15.9746 77.084 15.3379C77.3887 14.6973 77.8164 14.207 78.3672 13.8672C78.9219 13.5234 79.5547 13.3516 80.2656 13.3516C80.9766 13.3516 81.6074 13.5234 82.1582 13.8672C82.7129 14.207 83.1406 14.6973 83.4414 15.3379C83.7461 15.9746 83.8984 16.7109 83.8984 17.5469V17.9277ZM82.1172 17.541C82.1172 16.6465 81.957 15.9668 81.6367 15.502C81.3164 15.0371 80.8594 14.8047 80.2656 14.8047C79.6758 14.8047 79.2207 15.0352 78.9004 15.4961C78.5801 15.9531 78.418 16.625 78.4141 17.5117V17.9277C78.4141 18.7988 78.5742 19.4746 78.8945 19.9551C79.2148 20.4355 79.6758 20.6758 80.2773 20.6758C80.8672 20.6758 81.3203 20.4453 81.6367 19.9844C81.9531 19.5195 82.1133 18.8438 82.1172 17.957V17.541ZM92.1133 22H90.3555L86.9336 16.3867V22H85.1758V13.4688H86.9336L90.3613 19.0938V13.4688H92.1133V22Z" fill="black"/>
<path d="M226.895 18.3027H223.52V20.5879H227.48V22H221.762V13.4688H227.469V14.8926H223.52V16.9258H226.895V18.3027ZM231.664 19.8848L233.598 13.4688H235.555L232.584 22H230.75L227.791 13.4688H229.742L231.664 19.8848ZM241.496 18.3027H238.121V20.5879H242.082V22H236.363V13.4688H242.07V14.8926H238.121V16.9258H241.496V18.3027ZM250.051 22H248.293L244.871 16.3867V22H243.113V13.4688H244.871L248.299 19.0938V13.4688H250.051V22ZM257.832 14.8926H255.219V22H253.461V14.8926H250.883V13.4688H257.832V14.8926ZM263.17 19.7617C263.17 19.4297 263.053 19.1758 262.818 19C262.584 18.8203 262.162 18.6328 261.553 18.4375C260.943 18.2383 260.461 18.043 260.105 17.8516C259.137 17.3281 258.652 16.623 258.652 15.7363C258.652 15.2754 258.781 14.8652 259.039 14.5059C259.301 14.1426 259.674 13.8594 260.158 13.6562C260.646 13.4531 261.193 13.3516 261.799 13.3516C262.408 13.3516 262.951 13.4629 263.428 13.6855C263.904 13.9043 264.273 14.2148 264.535 14.6172C264.801 15.0195 264.934 15.4766 264.934 15.9883H263.176C263.176 15.5977 263.053 15.2949 262.807 15.0801C262.561 14.8613 262.215 14.752 261.77 14.752C261.34 14.752 261.006 14.8438 260.768 15.0273C260.529 15.207 260.41 15.4453 260.41 15.7422C260.41 16.0195 260.549 16.252 260.826 16.4395C261.107 16.627 261.52 16.8027 262.062 16.9668C263.062 17.2676 263.791 17.6406 264.248 18.0859C264.705 18.5312 264.934 19.0859 264.934 19.75C264.934 20.4883 264.654 21.0684 264.096 21.4902C263.537 21.9082 262.785 22.1172 261.84 22.1172C261.184 22.1172 260.586 21.998 260.047 21.7598C259.508 21.5176 259.096 21.1875 258.811 20.7695C258.529 20.3516 258.389 19.8672 258.389 19.3164H260.152C260.152 20.2578 260.715 20.7285 261.84 20.7285C262.258 20.7285 262.584 20.6445 262.818 20.4766C263.053 20.3047 263.17 20.0664 263.17 19.7617Z" fill="black"/>
<path d="M399.895 18.3027H396.52V20.5879H400.48V22H394.762V13.4688H400.469V14.8926H396.52V16.9258H399.895V18.3027ZM408.449 22H406.691L403.27 16.3867V22H401.512V13.4688H403.27L406.697 19.0938V13.4688H408.449V22ZM414.906 20.2422H411.824L411.238 22H409.369L412.545 13.4688H414.174L417.367 22H415.498L414.906 20.2422ZM412.299 18.8184H414.432L413.359 15.625L412.299 18.8184ZM418.164 22V13.4688H421.152C422.188 13.4688 422.973 13.668 423.508 14.0664C424.043 14.4609 424.311 15.041 424.311 15.8066C424.311 16.2246 424.203 16.5938 423.988 16.9141C423.773 17.2305 423.475 17.4629 423.092 17.6113C423.529 17.7207 423.873 17.9414 424.123 18.2734C424.377 18.6055 424.504 19.0117 424.504 19.4922C424.504 20.3125 424.242 20.9336 423.719 21.3555C423.195 21.7773 422.449 21.9922 421.48 22H418.164ZM419.922 18.2852V20.5879H421.428C421.842 20.5879 422.164 20.4902 422.395 20.2949C422.629 20.0957 422.746 19.8223 422.746 19.4746C422.746 18.6934 422.342 18.2969 421.533 18.2852H419.922ZM419.922 17.043H421.223C422.109 17.0273 422.553 16.6738 422.553 15.9824C422.553 15.5957 422.439 15.3184 422.213 15.1504C421.99 14.9785 421.637 14.8926 421.152 14.8926H419.922V17.043ZM427.586 20.5879H431.318V22H425.828V13.4688H427.586V20.5879ZM437.465 18.3027H434.09V20.5879H438.051V22H432.332V13.4688H438.039V14.8926H434.09V16.9258H437.465V18.3027ZM439.082 22V13.4688H441.707C442.457 13.4688 443.127 13.6387 443.717 13.9785C444.311 14.3145 444.773 14.7949 445.105 15.4199C445.438 16.041 445.604 16.748 445.604 17.541V17.9336C445.604 18.7266 445.439 19.4316 445.111 20.0488C444.787 20.666 444.328 21.1445 443.734 21.4844C443.141 21.8242 442.471 21.9961 441.725 22H439.082ZM440.84 14.8926V20.5879H441.689C442.377 20.5879 442.902 20.3633 443.266 19.9141C443.629 19.4648 443.814 18.8223 443.822 17.9863V17.5352C443.822 16.668 443.643 16.0117 443.283 15.5664C442.924 15.1172 442.398 14.8926 441.707 14.8926H440.84Z" fill="black"/>
<path d="M580.578 20.2422H577.496L576.91 22H575.041L578.217 13.4688H579.846L583.039 22H581.17L580.578 20.2422ZM577.971 18.8184H580.104L579.031 15.625L577.971 18.8184ZM583.836 22V13.4688H586.461C587.211 13.4688 587.881 13.6387 588.471 13.9785C589.064 14.3145 589.527 14.7949 589.859 15.4199C590.191 16.041 590.357 16.748 590.357 17.541V17.9336C590.357 18.7266 590.193 19.4316 589.865 20.0488C589.541 20.666 589.082 21.1445 588.488 21.4844C587.895 21.8242 587.225 21.9961 586.479 22H583.836ZM585.594 14.8926V20.5879H586.443C587.131 20.5879 587.656 20.3633 588.02 19.9141C588.383 19.4648 588.568 18.8223 588.576 17.9863V17.5352C588.576 16.668 588.396 16.0117 588.037 15.5664C587.678 15.1172 587.152 14.8926 586.461 14.8926H585.594ZM591.641 22V13.4688H594.266C595.016 13.4688 595.686 13.6387 596.275 13.9785C596.869 14.3145 597.332 14.7949 597.664 15.4199C597.996 16.041 598.162 16.748 598.162 17.541V17.9336C598.162 18.7266 597.998 19.4316 597.67 20.0488C597.346 20.666 596.887 21.1445 596.293 21.4844C595.699 21.8242 595.029 21.9961 594.283 22H591.641ZM593.398 14.8926V20.5879H594.248C594.936 20.5879 595.461 20.3633 595.824 19.9141C596.188 19.4648 596.373 18.8223 596.381 17.9863V17.5352C596.381 16.668 596.201 16.0117 595.842 15.5664C595.482 15.1172 594.957 14.8926 594.266 14.8926H593.398ZM604.578 18.3027H601.203V20.5879H605.164V22H599.445V13.4688H605.152V14.8926H601.203V16.9258H604.578V18.3027ZM606.195 22V13.4688H608.82C609.57 13.4688 610.24 13.6387 610.83 13.9785C611.424 14.3145 611.887 14.7949 612.219 15.4199C612.551 16.041 612.717 16.748 612.717 17.541V17.9336C612.717 18.7266 612.553 19.4316 612.225 20.0488C611.9 20.666 611.441 21.1445 610.848 21.4844C610.254 21.8242 609.584 21.9961 608.838 22H606.195ZM607.953 14.8926V20.5879H608.803C609.49 20.5879 610.016 20.3633 610.379 19.9141C610.742 19.4648 610.928 18.8223 610.936 17.9863V17.5352C610.936 16.668 610.756 16.0117 610.396 15.5664C610.037 15.1172 609.512 14.8926 608.82 14.8926H607.953Z" fill="black"/>
<path d="M748.578 20.2422H745.496L744.91 22H743.041L746.217 13.4688H747.846L751.039 22H749.17L748.578 20.2422ZM745.971 18.8184H748.104L747.031 15.625L745.971 18.8184ZM758.404 19.1582C758.338 20.0762 757.998 20.7988 757.385 21.3262C756.775 21.8535 755.971 22.1172 754.971 22.1172C753.877 22.1172 753.016 21.75 752.387 21.0156C751.762 20.2773 751.449 19.2656 751.449 17.9805V17.459C751.449 16.6387 751.594 15.916 751.883 15.291C752.172 14.666 752.584 14.1875 753.119 13.8555C753.658 13.5195 754.283 13.3516 754.994 13.3516C755.979 13.3516 756.771 13.6152 757.373 14.1426C757.975 14.6699 758.322 15.4102 758.416 16.3633H756.658C756.615 15.8125 756.461 15.4141 756.195 15.168C755.934 14.918 755.533 14.793 754.994 14.793C754.408 14.793 753.969 15.0039 753.676 15.4258C753.387 15.8438 753.238 16.4941 753.23 17.377V18.0215C753.23 18.9434 753.369 19.6172 753.646 20.043C753.928 20.4688 754.369 20.6816 754.971 20.6816C755.514 20.6816 755.918 20.5586 756.184 20.3125C756.453 20.0625 756.607 19.6777 756.646 19.1582H758.404ZM765.805 14.8926H763.191V22H761.434V14.8926H758.855V13.4688H765.805V14.8926ZM768.682 22H766.924V13.4688H768.682V22ZM777.324 17.9277C777.324 18.7676 777.176 19.5039 776.879 20.1367C776.582 20.7695 776.156 21.2578 775.602 21.6016C775.051 21.9453 774.418 22.1172 773.703 22.1172C772.996 22.1172 772.365 21.9473 771.811 21.6074C771.256 21.2676 770.826 20.7832 770.521 20.1543C770.217 19.5215 770.062 18.7949 770.059 17.9746V17.5527C770.059 16.7129 770.209 15.9746 770.51 15.3379C770.814 14.6973 771.242 14.207 771.793 13.8672C772.348 13.5234 772.98 13.3516 773.691 13.3516C774.402 13.3516 775.033 13.5234 775.584 13.8672C776.139 14.207 776.566 14.6973 776.867 15.3379C777.172 15.9746 777.324 16.7109 777.324 17.5469V17.9277ZM775.543 17.541C775.543 16.6465 775.383 15.9668 775.062 15.502C774.742 15.0371 774.285 14.8047 773.691 14.8047C773.102 14.8047 772.646 15.0352 772.326 15.4961C772.006 15.9531 771.844 16.625 771.84 17.5117V17.9277C771.84 18.7988 772 19.4746 772.32 19.9551C772.641 20.4355 773.102 20.6758 773.703 20.6758C774.293 20.6758 774.746 20.4453 775.062 19.9844C775.379 19.5195 775.539 18.8438 775.543 17.957V17.541ZM785.539 22H783.781L780.359 16.3867V22H778.602V13.4688H780.359L783.787 19.0938V13.4688H785.539V22ZM791.498 19.7617C791.498 19.4297 791.381 19.1758 791.146 19C790.912 18.8203 790.49 18.6328 789.881 18.4375C789.271 18.2383 788.789 18.043 788.434 17.8516C787.465 17.3281 786.98 16.623 786.98 15.7363C786.98 15.2754 787.109 14.8652 787.367 14.5059C787.629 14.1426 788.002 13.8594 788.486 13.6562C788.975 13.4531 789.521 13.3516 790.127 13.3516C790.736 13.3516 791.279 13.4629 791.756 13.6855C792.232 13.9043 792.602 14.2148 792.863 14.6172C793.129 15.0195 793.262 15.4766 793.262 15.9883H791.504C791.504 15.5977 791.381 15.2949 791.135 15.0801C790.889 14.8613 790.543 14.752 790.098 14.752C789.668 14.752 789.334 14.8438 789.096 15.0273C788.857 15.207 788.738 15.4453 788.738 15.7422C788.738 16.0195 788.877 16.252 789.154 16.4395C789.436 16.627 789.848 16.8027 790.391 16.9668C791.391 17.2676 792.119 17.6406 792.576 18.0859C793.033 18.5312 793.262 19.0859 793.262 19.75C793.262 20.4883 792.982 21.0684 792.424 21.4902C791.865 21.9082 791.113 22.1172 790.168 22.1172C789.512 22.1172 788.914 21.998 788.375 21.7598C787.836 21.5176 787.424 21.1875 787.139 20.7695C786.857 20.3516 786.717 19.8672 786.717 19.3164H788.48C788.48 20.2578 789.043 20.7285 790.168 20.7285C790.586 20.7285 790.912 20.6445 791.146 20.4766C791.381 20.3047 791.498 20.0664 791.498 19.7617Z" fill="black"/>
<rect x="16" y="88" width="778" height="1" fill="#EDF3F8"/>
<rect x="16" y="141" width="778" height="1" fill="#EDF3F8"/>
<rect x="16" y="194" width="778" height="1" fill="#EDF3F8"/>
<path d="M16 62C16 56.4772 20.4772 52 26 52V52C31.5228 52 36 56.4772 36 62V62C36 67.5228 31.5228 72 26 72V72C20.4772 72 16 67.5228 16 62V62Z" fill="#007FD2"/>
<path fill-rule="evenodd" clip-rule="evenodd" d="M31.4265 66.3135C31.0952 67.2218 30.6193 67.8835 30.1314 68.1121C29.6013 68.3587 29.0952 68.2023 28.6495 67.6549C28.2037 67.1015 27.5712 65.4532 26.9989 63.3418L26.7038 62.2711H24.499H22.2942L21.8425 63.7268C21.475 64.9239 21.3666 65.2006 21.2401 65.2908C21.0473 65.4352 20.8003 65.3871 20.6618 65.1765C20.5714 65.0442 20.5835 64.9479 20.7943 63.817C20.8625 63.4569 20.9273 63.1107 20.9752 62.8541C21.0162 62.6349 21.045 62.481 21.0533 62.4395L21.0774 62.2711H20.0835C19.1016 62.2711 19.0835 62.2711 18.9028 62.1147C18.5413 61.8139 18.6076 61.2484 19.0413 61.0439C19.2221 60.9597 19.3907 60.9476 20.3244 60.9837L21.3967 61.0258L21.5413 60.4604C21.8003 59.4137 22.3906 57.7414 22.746 57.0075C23.1557 56.1894 23.5593 55.654 23.9749 55.3713C24.8303 54.7998 25.517 55.2149 26.27 56.7549C26.7218 57.6812 26.9809 58.3911 27.4206 59.925L27.7399 61.0379L28.3965 61.08C28.7519 61.1041 29.8482 61.1522 30.8241 61.1883C31.8 61.2244 32.7216 61.2785 32.8722 61.3086C33.3361 61.3928 33.5108 61.8199 33.2036 62.1207L33.059 62.2711H30.5832C28.3603 62.2711 28.1134 62.2831 28.1134 62.3673C28.1134 62.4214 28.2097 62.8546 28.3242 63.3298C28.9266 65.8322 29.4326 66.9691 29.9386 66.9631C30.4747 66.9571 30.6795 66.6082 31.4626 64.4246C31.8903 63.2215 31.9385 63.1132 32.053 63.1132C32.2819 63.1132 32.2759 63.2636 31.9446 64.5329C31.7638 65.2247 31.5289 66.0247 31.4265 66.3135ZM22.5834 61.0078L23.7641 61.0258C24.4147 61.0318 25.27 61.0439 25.6616 61.0559C26.1616 61.0619 26.3664 61.0499 26.3664 60.9958C26.3664 60.9597 26.2158 60.4062 26.0351 59.7626C25.3845 57.5068 24.9207 56.3759 24.6436 56.3759C24.1978 56.3759 23.3303 58.2166 22.728 60.4483L22.5834 61.0078Z" fill="white"/>
<path d="M50.583 64.6826H46.7275L45.9209 67H44.123L47.8828 57.0469H49.4346L53.2012 67H51.3965L50.583 64.6826ZM47.2129 63.2881H50.0977L48.6553 59.1592L47.2129 63.2881ZM55.4092 59.6035L55.457 60.376C55.9766 59.7699 56.6875 59.4668 57.5898 59.4668C58.5788 59.4668 59.2555 59.8451 59.6201 60.6016C60.1579 59.8451 60.9144 59.4668 61.8896 59.4668C62.7054 59.4668 63.3115 59.6924 63.708 60.1436C64.109 60.5947 64.3141 61.2601 64.3232 62.1396V67H62.6621V62.1875C62.6621 61.7181 62.5596 61.374 62.3545 61.1553C62.1494 60.9365 61.8099 60.8271 61.3359 60.8271C60.9577 60.8271 60.6478 60.9297 60.4062 61.1348C60.1693 61.3353 60.0029 61.5996 59.9072 61.9277L59.9141 67H58.2529V62.1328C58.2301 61.2624 57.7858 60.8271 56.9199 60.8271C56.2546 60.8271 55.7829 61.0983 55.5049 61.6406V67H53.8438V59.6035H55.4092ZM72.5059 63.377C72.5059 64.5208 72.2461 65.4346 71.7266 66.1182C71.207 66.7972 70.5098 67.1367 69.6348 67.1367C68.8236 67.1367 68.1742 66.8701 67.6865 66.3369V69.8438H66.0254V59.6035H67.5566L67.625 60.3555C68.1126 59.763 68.7757 59.4668 69.6143 59.4668C70.5166 59.4668 71.223 59.804 71.7334 60.4785C72.2484 61.1484 72.5059 62.0804 72.5059 63.2744V63.377ZM70.8516 63.2334C70.8516 62.4951 70.7035 61.9095 70.4072 61.4766C70.1156 61.0436 69.6963 60.8271 69.1494 60.8271C68.4704 60.8271 67.9827 61.1074 67.6865 61.668V64.9492C67.9873 65.5234 68.4795 65.8105 69.1631 65.8105C69.6917 65.8105 70.1042 65.5986 70.4004 65.1748C70.7012 64.7464 70.8516 64.0993 70.8516 63.2334ZM75.6846 67H74.0234V56.5H75.6846V67ZM79.2666 67H77.6055V59.6035H79.2666V67ZM77.5029 57.6826C77.5029 57.4274 77.5827 57.2155 77.7422 57.0469C77.9062 56.8783 78.1387 56.7939 78.4395 56.7939C78.7402 56.7939 78.9727 56.8783 79.1367 57.0469C79.3008 57.2155 79.3828 57.4274 79.3828 57.6826C79.3828 57.9333 79.3008 58.1429 79.1367 58.3115C78.9727 58.4756 78.7402 58.5576 78.4395 58.5576C78.1387 58.5576 77.9062 58.4756 77.7422 58.3115C77.5827 58.1429 77.5029 57.9333 77.5029 57.6826ZM83.1631 57.8057V59.6035H84.4688V60.834H83.1631V64.9629C83.1631 65.2454 83.2178 65.4505 83.3271 65.5781C83.4411 65.7012 83.6416 65.7627 83.9287 65.7627C84.1201 65.7627 84.3138 65.7399 84.5098 65.6943V66.9795C84.1315 67.0843 83.7669 67.1367 83.416 67.1367C82.14 67.1367 81.502 66.4326 81.502 65.0244V60.834H80.2852V59.6035H81.502V57.8057H83.1631ZM90.2246 66.2754C89.737 66.8496 89.0443 67.1367 88.1465 67.1367C87.3444 67.1367 86.736 66.902 86.3213 66.4326C85.9111 65.9632 85.7061 65.2842 85.7061 64.3955V59.6035H87.3672V64.375C87.3672 65.3138 87.7568 65.7832 88.5361 65.7832C89.3428 65.7832 89.8874 65.4938 90.1699 64.915V59.6035H91.8311V67H90.2656L90.2246 66.2754ZM93.2119 63.2471C93.2119 62.1077 93.4762 61.194 94.0049 60.5059C94.5335 59.8132 95.2422 59.4668 96.1309 59.4668C96.9147 59.4668 97.5482 59.7402 98.0312 60.2871V56.5H99.6924V67H98.1885L98.1064 66.2344C97.6097 66.8359 96.9466 67.1367 96.1172 67.1367C95.2513 67.1367 94.5495 66.7881 94.0117 66.0908C93.4785 65.3936 93.2119 64.4456 93.2119 63.2471ZM94.873 63.3906C94.873 64.1426 95.0166 64.7305 95.3037 65.1543C95.5954 65.5736 96.0078 65.7832 96.541 65.7832C97.2201 65.7832 97.7168 65.4801 98.0312 64.874V61.7158C97.7259 61.1234 97.2337 60.8271 96.5547 60.8271C96.0169 60.8271 95.6022 61.0413 95.3105 61.4697C95.0189 61.8936 94.873 62.5339 94.873 63.3906ZM104.683 67.1367C103.63 67.1367 102.775 66.8063 102.119 66.1455C101.467 65.4801 101.142 64.596 101.142 63.4932V63.2881C101.142 62.5498 101.283 61.8913 101.565 61.3125C101.853 60.7292 102.254 60.2757 102.769 59.9521C103.284 59.6286 103.858 59.4668 104.491 59.4668C105.498 59.4668 106.275 59.7881 106.822 60.4307C107.374 61.0732 107.649 61.9824 107.649 63.1582V63.8281H102.816C102.867 64.4388 103.069 64.9219 103.425 65.2773C103.785 65.6328 104.236 65.8105 104.778 65.8105C105.539 65.8105 106.159 65.5029 106.638 64.8877L107.533 65.7422C107.237 66.1842 106.84 66.5283 106.344 66.7744C105.852 67.016 105.298 67.1367 104.683 67.1367ZM104.484 60.7998C104.029 60.7998 103.66 60.9593 103.377 61.2783C103.099 61.5973 102.921 62.0417 102.844 62.6113H106.009V62.4883C105.972 61.9323 105.824 61.513 105.564 61.2305C105.305 60.9434 104.945 60.7998 104.484 60.7998Z" fill="black"/>
<path d="M228.349 67H221.827V66.0908L225.272 62.2627C225.783 61.6839 226.134 61.2145 226.325 60.8545C226.521 60.4899 226.619 60.1139 226.619 59.7266C226.619 59.207 226.462 58.7809 226.147 58.4482C225.833 58.1156 225.414 57.9492 224.89 57.9492C224.261 57.9492 223.771 58.1292 223.42 58.4893C223.074 58.8447 222.9 59.3415 222.9 59.9795H221.636C221.636 59.0635 221.93 58.3229 222.518 57.7578C223.11 57.1927 223.901 56.9102 224.89 56.9102C225.815 56.9102 226.546 57.154 227.084 57.6416C227.622 58.1247 227.891 58.7695 227.891 59.5762C227.891 60.556 227.266 61.7227 226.018 63.0762L223.352 65.9678H228.349V67ZM231.527 61.4082H232.478C233.075 61.3991 233.544 61.2419 233.886 60.9365C234.228 60.6312 234.398 60.2188 234.398 59.6992C234.398 58.5326 233.817 57.9492 232.655 57.9492C232.108 57.9492 231.671 58.1064 231.343 58.4209C231.019 58.7308 230.857 59.1432 230.857 59.6582H229.593C229.593 58.8698 229.88 58.2158 230.454 57.6963C231.033 57.1722 231.767 56.9102 232.655 56.9102C233.594 56.9102 234.33 57.1585 234.863 57.6553C235.396 58.152 235.663 58.8424 235.663 59.7266C235.663 60.1595 235.522 60.5788 235.239 60.9844C234.961 61.39 234.581 61.693 234.098 61.8936C234.645 62.0667 235.066 62.3538 235.362 62.7549C235.663 63.1559 235.813 63.6458 235.813 64.2246C235.813 65.1178 235.522 65.8265 234.938 66.3506C234.355 66.8747 233.596 67.1367 232.662 67.1367C231.728 67.1367 230.967 66.8838 230.379 66.3779C229.796 65.8721 229.504 65.2044 229.504 64.375H230.775C230.775 64.8991 230.946 65.3184 231.288 65.6328C231.63 65.9473 232.088 66.1045 232.662 66.1045C233.273 66.1045 233.74 65.945 234.063 65.626C234.387 65.307 234.549 64.849 234.549 64.252C234.549 63.6732 234.371 63.2288 234.016 62.9189C233.66 62.609 233.147 62.4495 232.478 62.4404H231.527V61.4082ZM244.222 67.1367C243.219 67.1367 242.403 66.8086 241.774 66.1523C241.146 65.4915 240.831 64.6097 240.831 63.5068V63.2744C240.831 62.5407 240.97 61.8867 241.248 61.3125C241.531 60.7337 241.923 60.2826 242.424 59.959C242.93 59.6309 243.477 59.4668 244.064 59.4668C245.026 59.4668 245.773 59.7835 246.307 60.417C246.84 61.0505 247.106 61.9574 247.106 63.1377V63.6641H242.096C242.114 64.3932 242.326 64.9834 242.731 65.4346C243.142 65.8812 243.661 66.1045 244.29 66.1045C244.737 66.1045 245.115 66.0133 245.425 65.8311C245.735 65.6488 246.006 65.4072 246.238 65.1064L247.011 65.708C246.391 66.6605 245.461 67.1367 244.222 67.1367ZM244.064 60.5059C243.554 60.5059 243.126 60.6927 242.779 61.0664C242.433 61.4355 242.219 61.9551 242.137 62.625H245.842V62.5293C245.805 61.8867 245.632 61.39 245.322 61.0391C245.012 60.6836 244.593 60.5059 244.064 60.5059ZM250.921 65.2842L252.753 59.6035H254.045L251.393 67H250.429L247.749 59.6035H249.041L250.921 65.2842ZM258.235 67.1367C257.233 67.1367 256.417 66.8086 255.788 66.1523C255.159 65.4915 254.845 64.6097 254.845 63.5068V63.2744C254.845 62.5407 254.984 61.8867 255.262 61.3125C255.544 60.7337 255.936 60.2826 256.438 59.959C256.943 59.6309 257.49 59.4668 258.078 59.4668C259.04 59.4668 259.787 59.7835 260.32 60.417C260.854 61.0505 261.12 61.9574 261.12 63.1377V63.6641H256.109C256.128 64.3932 256.34 64.9834 256.745 65.4346C257.155 65.8812 257.675 66.1045 258.304 66.1045C258.75 66.1045 259.129 66.0133 259.438 65.8311C259.748 65.6488 260.02 65.4072 260.252 65.1064L261.024 65.708C260.405 66.6605 259.475 67.1367 258.235 67.1367ZM258.078 60.5059C257.568 60.5059 257.139 60.6927 256.793 61.0664C256.447 61.4355 256.232 61.9551 256.15 62.625H259.855V62.5293C259.819 61.8867 259.646 61.39 259.336 61.0391C259.026 60.6836 258.607 60.5059 258.078 60.5059ZM263.786 59.6035L263.827 60.5332C264.392 59.8223 265.131 59.4668 266.042 59.4668C267.605 59.4668 268.394 60.3486 268.407 62.1123V67H267.143V62.1055C267.138 61.5723 267.015 61.1781 266.773 60.9229C266.536 60.6676 266.165 60.54 265.659 60.54C265.249 60.54 264.889 60.6494 264.579 60.8682C264.269 61.0869 264.028 61.374 263.854 61.7295V67H262.59V59.6035H263.786ZM272.03 57.8125V59.6035H273.411V60.5811H272.03V65.168C272.03 65.4642 272.092 65.6875 272.215 65.8379C272.338 65.9837 272.548 66.0566 272.844 66.0566C272.99 66.0566 273.19 66.0293 273.445 65.9746V67C273.113 67.0911 272.789 67.1367 272.475 67.1367C271.91 67.1367 271.483 66.9658 271.196 66.624C270.909 66.2822 270.766 65.7969 270.766 65.168V60.5811H269.419V59.6035H270.766V57.8125H272.03ZM274.847 62.96C274.847 61.93 274.983 60.9411 275.257 59.9932C275.535 59.0452 275.947 58.1839 276.494 57.4092C277.041 56.6344 277.608 56.0876 278.196 55.7686L278.456 56.6025C277.791 57.113 277.244 57.8923 276.815 58.9404C276.392 59.9886 276.159 61.1621 276.118 62.4609L276.111 63.042C276.111 64.8011 276.433 66.3278 277.075 67.6221C277.463 68.3968 277.923 69.0029 278.456 69.4404L278.196 70.2129C277.59 69.8757 277.011 69.3105 276.46 68.5176C275.384 66.9681 274.847 65.1156 274.847 62.96ZM283.986 65.0381C283.986 64.6963 283.856 64.432 283.597 64.2451C283.341 64.0537 282.893 63.8896 282.25 63.7529C281.612 63.6162 281.104 63.4521 280.726 63.2607C280.352 63.0693 280.074 62.8415 279.892 62.5771C279.714 62.3128 279.625 61.9984 279.625 61.6338C279.625 61.0277 279.88 60.515 280.391 60.0957C280.906 59.6764 281.562 59.4668 282.359 59.4668C283.198 59.4668 283.877 59.6833 284.396 60.1162C284.921 60.5492 285.183 61.1029 285.183 61.7773H283.911C283.911 61.431 283.763 61.1325 283.467 60.8818C283.175 60.6312 282.806 60.5059 282.359 60.5059C281.899 60.5059 281.539 60.6061 281.279 60.8066C281.02 61.0072 280.89 61.2692 280.89 61.5928C280.89 61.8981 281.01 62.1283 281.252 62.2832C281.493 62.4382 281.929 62.5863 282.558 62.7275C283.191 62.8688 283.704 63.0374 284.096 63.2334C284.488 63.4294 284.777 63.6663 284.964 63.9443C285.155 64.2178 285.251 64.5527 285.251 64.9492C285.251 65.61 284.987 66.141 284.458 66.542C283.929 66.9385 283.243 67.1367 282.4 67.1367C281.808 67.1367 281.284 67.0319 280.828 66.8223C280.372 66.6126 280.015 66.321 279.755 65.9473C279.5 65.569 279.372 65.1611 279.372 64.7236H280.637C280.66 65.1475 280.828 65.4847 281.143 65.7354C281.462 65.9814 281.881 66.1045 282.4 66.1045C282.879 66.1045 283.262 66.0088 283.549 65.8174C283.84 65.6214 283.986 65.3617 283.986 65.0381ZM289.817 63.0283C289.817 64.0446 289.683 65.0199 289.414 65.9541C289.15 66.8838 288.742 67.7428 288.19 68.5312C287.644 69.3197 287.069 69.8802 286.468 70.2129L286.201 69.4404C286.903 68.9027 287.466 68.0687 287.89 66.9385C288.318 65.8037 288.537 64.5459 288.546 63.165V62.9463C288.546 61.9893 288.446 61.1006 288.245 60.2803C288.045 59.4554 287.764 58.7171 287.404 58.0654C287.049 57.4137 286.648 56.9056 286.201 56.541L286.468 55.7686C287.069 56.1012 287.641 56.6572 288.184 57.4365C288.73 58.2158 289.138 59.0749 289.407 60.0137C289.681 60.9525 289.817 61.9574 289.817 63.0283Z" fill="#1788FC"/>
<path d="M580.325 57.0469H581.645V64.0947C581.645 65.0472 581.357 65.7923 580.783 66.3301C580.214 66.8678 579.452 67.1367 578.5 67.1367C577.511 67.1367 576.741 66.8838 576.189 66.3779C575.638 65.8721 575.362 65.1634 575.362 64.252H576.675C576.675 64.8216 576.83 65.266 577.14 65.585C577.454 65.904 577.908 66.0635 578.5 66.0635C579.042 66.0635 579.48 65.8926 579.812 65.5508C580.15 65.209 580.321 64.7305 580.325 64.1152V57.0469ZM588.248 66.2686C587.756 66.8473 587.034 67.1367 586.081 67.1367C585.293 67.1367 584.691 66.9089 584.276 66.4531C583.866 65.9928 583.659 65.3138 583.654 64.416V59.6035H584.919V64.3818C584.919 65.5029 585.375 66.0635 586.286 66.0635C587.252 66.0635 587.895 65.7035 588.214 64.9834V59.6035H589.479V67H588.275L588.248 66.2686ZM592.78 67H591.516V56.5H592.78V67ZM602.31 67H601.038V58.5713L598.488 59.5078V58.3594L602.111 56.999H602.31V67ZM612.051 59.6445C612.051 60.1413 611.919 60.5833 611.654 60.9707C611.395 61.3581 611.041 61.6611 610.595 61.8799C611.114 62.1032 611.524 62.429 611.825 62.8574C612.131 63.2858 612.283 63.7712 612.283 64.3135C612.283 65.1748 611.992 65.8607 611.408 66.3711C610.829 66.8815 610.066 67.1367 609.118 67.1367C608.161 67.1367 607.393 66.8815 606.814 66.3711C606.24 65.8561 605.953 65.1702 605.953 64.3135C605.953 63.7757 606.099 63.2904 606.391 62.8574C606.687 62.4245 607.095 62.0964 607.614 61.873C607.172 61.6543 606.824 61.3512 606.568 60.9639C606.313 60.5765 606.186 60.1367 606.186 59.6445C606.186 58.806 606.454 58.1406 606.992 57.6484C607.53 57.1562 608.239 56.9102 609.118 56.9102C609.993 56.9102 610.7 57.1562 611.237 57.6484C611.78 58.1406 612.051 58.806 612.051 59.6445ZM611.019 64.2861C611.019 63.7301 610.841 63.2767 610.485 62.9258C610.134 62.5749 609.674 62.3994 609.104 62.3994C608.535 62.3994 608.077 62.5726 607.73 62.9189C607.389 63.2653 607.218 63.721 607.218 64.2861C607.218 64.8512 607.384 65.2956 607.717 65.6191C608.054 65.9427 608.521 66.1045 609.118 66.1045C609.711 66.1045 610.175 65.9427 610.513 65.6191C610.85 65.291 611.019 64.8467 611.019 64.2861ZM609.118 57.9492C608.621 57.9492 608.218 58.1042 607.908 58.4141C607.603 58.7194 607.45 59.1364 607.45 59.665C607.45 60.1709 607.601 60.5811 607.901 60.8955C608.207 61.2054 608.612 61.3604 609.118 61.3604C609.624 61.3604 610.027 61.2054 610.328 60.8955C610.633 60.5811 610.786 60.1709 610.786 59.665C610.786 59.1592 610.629 58.7467 610.314 58.4277C610 58.1087 609.601 57.9492 609.118 57.9492ZM613.965 68.9824L613.247 68.4902C613.675 67.8932 613.899 67.278 613.917 66.6445V65.5029H615.154V66.4941C615.154 66.9544 615.04 67.4147 614.812 67.875C614.589 68.3353 614.307 68.7044 613.965 68.9824ZM626.618 67H620.097V66.0908L623.542 62.2627C624.052 61.6839 624.403 61.2145 624.595 60.8545C624.791 60.4899 624.889 60.1139 624.889 59.7266C624.889 59.207 624.731 58.7809 624.417 58.4482C624.103 58.1156 623.683 57.9492 623.159 57.9492C622.53 57.9492 622.04 58.1292 621.689 58.4893C621.343 58.8447 621.17 59.3415 621.17 59.9795H619.905C619.905 59.0635 620.199 58.3229 620.787 57.7578C621.38 57.1927 622.17 56.9102 623.159 56.9102C624.084 56.9102 624.816 57.154 625.354 57.6416C625.891 58.1247 626.16 58.7695 626.16 59.5762C626.16 60.556 625.536 61.7227 624.287 63.0762L621.621 65.9678H626.618V67ZM634.199 62.7549C634.199 64.236 633.946 65.3366 633.44 66.0566C632.935 66.7767 632.144 67.1367 631.068 67.1367C630.007 67.1367 629.22 66.7858 628.71 66.084C628.2 65.3776 627.935 64.3249 627.917 62.9258V61.2373C627.917 59.7744 628.17 58.6875 628.676 57.9766C629.182 57.2656 629.975 56.9102 631.055 56.9102C632.126 56.9102 632.914 57.2542 633.42 57.9424C633.926 58.626 634.186 59.6833 634.199 61.1143V62.7549ZM632.935 61.0254C632.935 59.9544 632.784 59.1751 632.483 58.6875C632.183 58.1953 631.706 57.9492 631.055 57.9492C630.408 57.9492 629.936 58.193 629.64 58.6807C629.343 59.1683 629.191 59.918 629.182 60.9297V62.9531C629.182 64.0286 629.337 64.8239 629.646 65.3389C629.961 65.8493 630.435 66.1045 631.068 66.1045C631.693 66.1045 632.155 65.863 632.456 65.3799C632.761 64.8968 632.921 64.1357 632.935 63.0967V61.0254ZM639.976 67H638.704V58.5713L636.154 59.5078V58.3594L639.777 56.999H639.976V67ZM648.527 62.625C648.263 62.9395 647.946 63.1924 647.577 63.3838C647.213 63.5752 646.812 63.6709 646.374 63.6709C645.8 63.6709 645.299 63.5296 644.87 63.2471C644.446 62.9645 644.118 62.568 643.886 62.0576C643.653 61.5426 643.537 60.9753 643.537 60.3555C643.537 59.6901 643.662 59.0908 643.913 58.5576C644.168 58.0244 644.528 57.6165 644.993 57.334C645.458 57.0514 646 56.9102 646.62 56.9102C647.604 56.9102 648.379 57.2793 648.944 58.0176C649.514 58.7513 649.799 59.7539 649.799 61.0254V61.3945C649.799 63.3314 649.416 64.7464 648.65 65.6396C647.885 66.5283 646.729 66.984 645.185 67.0068H644.938V65.9404H645.205C646.249 65.9222 647.051 65.651 647.611 65.127C648.172 64.5983 648.477 63.7643 648.527 62.625ZM646.579 62.625C647.003 62.625 647.393 62.4951 647.748 62.2354C648.108 61.9756 648.37 61.6543 648.534 61.2715V60.7656C648.534 59.9362 648.354 59.2617 647.994 58.7422C647.634 58.2227 647.178 57.9629 646.627 57.9629C646.071 57.9629 645.624 58.1771 645.287 58.6055C644.95 59.0293 644.781 59.5898 644.781 60.2871C644.781 60.9661 644.943 61.5267 645.267 61.9688C645.595 62.4062 646.032 62.625 646.579 62.625Z" fill="#181818"/>
<rect x="394" y="51" width="34" height="22" rx="11" fill="#2DBE5A"/>
<circle cx="417" cy="62" r="9" fill="white"/>
<circle cx="762" cy="62" r="2" fill="#1788FC"/>
<circle cx="769" cy="62" r="2" fill="#1788FC"/>
<circle cx="776" cy="62" r="2" fill="#1788FC"/>
<circle cx="26" cy="115" r="10" fill="#E7F0F8"/>
<path d="M20.7699 112.685L22.4139 115.817C22.5262 116.03 22.8029 116.203 23.0314 116.203L26.3851 116.196C26.6141 116.195 26.7085 116.022 26.5964 115.808L24.9522 112.676C24.8401 112.463 24.5635 112.29 24.3347 112.291L20.981 112.297C20.9759 112.297 20.9709 112.298 20.9657 112.298C20.7481 112.306 20.6602 112.476 20.7699 112.685Z" fill="#75B82C"/>
<path d="M27.1402 116.334L28.1358 118.192C28.2035 118.319 28.3692 118.42 28.5056 118.419L30.5037 118.398C30.6402 118.396 30.6952 118.292 30.6276 118.165L29.6323 116.308C29.5645 116.181 29.3986 116.08 29.2626 116.081L27.2643 116.102C27.262 116.102 27.2598 116.102 27.2574 116.102C27.1261 116.107 27.0736 116.209 27.1402 116.334Z" fill="#75B82C"/>
<path d="M27.1516 109.28L25.1537 111.845C25.0171 112.02 24.999 112.334 25.113 112.547L26.7834 115.665C26.8972 115.877 27.1003 115.908 27.2367 115.733L29.2348 113.168C29.3711 112.993 29.3894 112.679 29.2752 112.466L27.605 109.349C27.5388 109.226 27.4431 109.164 27.3476 109.167C27.2783 109.17 27.209 109.207 27.1516 109.28Z" fill="#3D90D5"/>
<path d="M26.6835 116.365L25.4927 117.893C25.4112 117.998 25.4007 118.185 25.4685 118.311L26.4638 120.169C26.5319 120.296 26.6527 120.314 26.7341 120.21L27.9246 118.682C28.0057 118.577 28.0166 118.39 27.9489 118.264L26.9535 116.406C26.9143 116.333 26.8571 116.295 26.8 116.297C26.7589 116.299 26.7174 116.321 26.6835 116.365Z" fill="#3D90D5"/>
<path d="M50.583 117.683H46.7275L45.9209 120H44.123L47.8828 110.047H49.4346L53.2012 120H51.3965L50.583 117.683ZM47.2129 116.288H50.0977L48.6553 112.159L47.2129 116.288ZM60.3242 116.377C60.3242 117.521 60.0645 118.435 59.5449 119.118C59.0254 119.797 58.3281 120.137 57.4531 120.137C56.6419 120.137 55.9925 119.87 55.5049 119.337V122.844H53.8438V112.604H55.375L55.4434 113.355C55.931 112.763 56.5941 112.467 57.4326 112.467C58.335 112.467 59.0413 112.804 59.5518 113.479C60.0667 114.148 60.3242 115.08 60.3242 116.274V116.377ZM58.6699 116.233C58.6699 115.495 58.5218 114.91 58.2256 114.477C57.9339 114.044 57.5146 113.827 56.9678 113.827C56.2887 113.827 55.8011 114.107 55.5049 114.668V117.949C55.8057 118.523 56.2979 118.811 56.9814 118.811C57.5101 118.811 57.9225 118.599 58.2188 118.175C58.5195 117.746 58.6699 117.099 58.6699 116.233ZM68.2129 116.377C68.2129 117.521 67.9531 118.435 67.4336 119.118C66.9141 119.797 66.2168 120.137 65.3418 120.137C64.5306 120.137 63.8812 119.87 63.3936 119.337V122.844H61.7324V112.604H63.2637L63.332 113.355C63.8197 112.763 64.4827 112.467 65.3213 112.467C66.2236 112.467 66.93 112.804 67.4404 113.479C67.9554 114.148 68.2129 115.08 68.2129 116.274V116.377ZM66.5586 116.233C66.5586 115.495 66.4105 114.91 66.1143 114.477C65.8226 114.044 65.4033 113.827 64.8564 113.827C64.1774 113.827 63.6898 114.107 63.3936 114.668V117.949C63.6943 118.523 64.1865 118.811 64.8701 118.811C65.3988 118.811 65.8112 118.599 66.1074 118.175C66.4082 117.746 66.5586 117.099 66.5586 116.233ZM73.7705 117.99C73.7705 117.694 73.6475 117.468 73.4014 117.313C73.1598 117.159 72.7565 117.022 72.1914 116.903C71.6263 116.785 71.1546 116.634 70.7764 116.452C69.9469 116.051 69.5322 115.47 69.5322 114.709C69.5322 114.071 69.8011 113.538 70.3389 113.109C70.8766 112.681 71.5602 112.467 72.3896 112.467C73.2738 112.467 73.987 112.686 74.5293 113.123C75.0762 113.561 75.3496 114.128 75.3496 114.825H73.6885C73.6885 114.506 73.57 114.242 73.333 114.032C73.096 113.818 72.7816 113.711 72.3896 113.711C72.0251 113.711 71.7266 113.795 71.4941 113.964C71.2663 114.132 71.1523 114.358 71.1523 114.641C71.1523 114.896 71.2594 115.094 71.4736 115.235C71.6878 115.377 72.1208 115.52 72.7725 115.666C73.4242 115.807 73.9346 115.978 74.3037 116.179C74.6774 116.375 74.9531 116.612 75.1309 116.89C75.3132 117.168 75.4043 117.505 75.4043 117.901C75.4043 118.567 75.1286 119.107 74.5771 119.521C74.0257 119.932 73.3034 120.137 72.4102 120.137C71.804 120.137 71.264 120.027 70.79 119.809C70.3161 119.59 69.9469 119.289 69.6826 118.906C69.4183 118.523 69.2861 118.111 69.2861 117.669H70.8994C70.9222 118.061 71.0703 118.364 71.3438 118.578C71.6172 118.788 71.9795 118.893 72.4307 118.893C72.8682 118.893 73.2008 118.811 73.4287 118.646C73.6566 118.478 73.7705 118.259 73.7705 117.99ZM82.7529 115.782H78.7471V120H77.0176V110.047H83.3408V111.441H78.7471V114.401H82.7529V115.782ZM86.3213 120H84.6602V109.5H86.3213V120ZM90.7236 117.621L92.2275 112.604H93.998L91.0586 121.121C90.6074 122.365 89.8418 122.987 88.7617 122.987C88.5202 122.987 88.2536 122.946 87.9619 122.864V121.579L88.2764 121.6C88.6956 121.6 89.0101 121.522 89.2197 121.367C89.4339 121.217 89.6025 120.962 89.7256 120.602L89.9648 119.966L87.3672 112.604H89.1582L90.7236 117.621ZM98.1201 120.137C97.0674 120.137 96.2129 119.806 95.5566 119.146C94.9049 118.48 94.5791 117.596 94.5791 116.493V116.288C94.5791 115.55 94.7204 114.891 95.0029 114.312C95.29 113.729 95.6911 113.276 96.2061 112.952C96.721 112.629 97.2952 112.467 97.9287 112.467C98.9359 112.467 99.7129 112.788 100.26 113.431C100.811 114.073 101.087 114.982 101.087 116.158V116.828H96.2539C96.304 117.439 96.5068 117.922 96.8623 118.277C97.2223 118.633 97.6735 118.811 98.2158 118.811C98.9769 118.811 99.5967 118.503 100.075 117.888L100.971 118.742C100.674 119.184 100.278 119.528 99.7812 119.774C99.2891 120.016 98.7354 120.137 98.1201 120.137ZM97.9219 113.8C97.4661 113.8 97.097 113.959 96.8145 114.278C96.5365 114.597 96.3587 115.042 96.2812 115.611H99.4463V115.488C99.4098 114.932 99.2617 114.513 99.002 114.23C98.7422 113.943 98.3822 113.8 97.9219 113.8ZM106.255 114.121C106.036 114.085 105.811 114.066 105.578 114.066C104.817 114.066 104.304 114.358 104.04 114.941V120H102.379V112.604H103.965L104.006 113.431C104.407 112.788 104.963 112.467 105.674 112.467C105.911 112.467 106.107 112.499 106.262 112.562L106.255 114.121Z" fill="black"/>
<path d="M228.349 120H221.827V119.091L225.272 115.263C225.783 114.684 226.134 114.215 226.325 113.854C226.521 113.49 226.619 113.114 226.619 112.727C226.619 112.207 226.462 111.781 226.147 111.448C225.833 111.116 225.414 110.949 224.89 110.949C224.261 110.949 223.771 111.129 223.42 111.489C223.074 111.845 222.9 112.341 222.9 112.979H221.636C221.636 112.063 221.93 111.323 222.518 110.758C223.11 110.193 223.901 109.91 224.89 109.91C225.815 109.91 226.546 110.154 227.084 110.642C227.622 111.125 227.891 111.77 227.891 112.576C227.891 113.556 227.266 114.723 226.018 116.076L223.352 118.968H228.349V120ZM231.527 114.408H232.478C233.075 114.399 233.544 114.242 233.886 113.937C234.228 113.631 234.398 113.219 234.398 112.699C234.398 111.533 233.817 110.949 232.655 110.949C232.108 110.949 231.671 111.106 231.343 111.421C231.019 111.731 230.857 112.143 230.857 112.658H229.593C229.593 111.87 229.88 111.216 230.454 110.696C231.033 110.172 231.767 109.91 232.655 109.91C233.594 109.91 234.33 110.159 234.863 110.655C235.396 111.152 235.663 111.842 235.663 112.727C235.663 113.16 235.522 113.579 235.239 113.984C234.961 114.39 234.581 114.693 234.098 114.894C234.645 115.067 235.066 115.354 235.362 115.755C235.663 116.156 235.813 116.646 235.813 117.225C235.813 118.118 235.522 118.826 234.938 119.351C234.355 119.875 233.596 120.137 232.662 120.137C231.728 120.137 230.967 119.884 230.379 119.378C229.796 118.872 229.504 118.204 229.504 117.375H230.775C230.775 117.899 230.946 118.318 231.288 118.633C231.63 118.947 232.088 119.104 232.662 119.104C233.273 119.104 233.74 118.945 234.063 118.626C234.387 118.307 234.549 117.849 234.549 117.252C234.549 116.673 234.371 116.229 234.016 115.919C233.66 115.609 233.147 115.45 232.478 115.44H231.527V114.408ZM244.222 120.137C243.219 120.137 242.403 119.809 241.774 119.152C241.146 118.492 240.831 117.61 240.831 116.507V116.274C240.831 115.541 240.97 114.887 241.248 114.312C241.531 113.734 241.923 113.283 242.424 112.959C242.93 112.631 243.477 112.467 244.064 112.467C245.026 112.467 245.773 112.784 246.307 113.417C246.84 114.05 247.106 114.957 247.106 116.138V116.664H242.096C242.114 117.393 242.326 117.983 242.731 118.435C243.142 118.881 243.661 119.104 244.29 119.104C244.737 119.104 245.115 119.013 245.425 118.831C245.735 118.649 246.006 118.407 246.238 118.106L247.011 118.708C246.391 119.66 245.461 120.137 244.222 120.137ZM244.064 113.506C243.554 113.506 243.126 113.693 242.779 114.066C242.433 114.436 242.219 114.955 242.137 115.625H245.842V115.529C245.805 114.887 245.632 114.39 245.322 114.039C245.012 113.684 244.593 113.506 244.064 113.506ZM250.921 118.284L252.753 112.604H254.045L251.393 120H250.429L247.749 112.604H249.041L250.921 118.284ZM258.235 120.137C257.233 120.137 256.417 119.809 255.788 119.152C255.159 118.492 254.845 117.61 254.845 116.507V116.274C254.845 115.541 254.984 114.887 255.262 114.312C255.544 113.734 255.936 113.283 256.438 112.959C256.943 112.631 257.49 112.467 258.078 112.467C259.04 112.467 259.787 112.784 260.32 113.417C260.854 114.05 261.12 114.957 261.12 116.138V116.664H256.109C256.128 117.393 256.34 117.983 256.745 118.435C257.155 118.881 257.675 119.104 258.304 119.104C258.75 119.104 259.129 119.013 259.438 118.831C259.748 118.649 260.02 118.407 260.252 118.106L261.024 118.708C260.405 119.66 259.475 120.137 258.235 120.137ZM258.078 113.506C257.568 113.506 257.139 113.693 256.793 114.066C256.447 114.436 256.232 114.955 256.15 115.625H259.855V115.529C259.819 114.887 259.646 114.39 259.336 114.039C259.026 113.684 258.607 113.506 258.078 113.506ZM263.786 112.604L263.827 113.533C264.392 112.822 265.131 112.467 266.042 112.467C267.605 112.467 268.394 113.349 268.407 115.112V120H267.143V115.105C267.138 114.572 267.015 114.178 266.773 113.923C266.536 113.668 266.165 113.54 265.659 113.54C265.249 113.54 264.889 113.649 264.579 113.868C264.269 114.087 264.028 114.374 263.854 114.729V120H262.59V112.604H263.786ZM272.03 110.812V112.604H273.411V113.581H272.03V118.168C272.03 118.464 272.092 118.688 272.215 118.838C272.338 118.984 272.548 119.057 272.844 119.057C272.99 119.057 273.19 119.029 273.445 118.975V120C273.113 120.091 272.789 120.137 272.475 120.137C271.91 120.137 271.483 119.966 271.196 119.624C270.909 119.282 270.766 118.797 270.766 118.168V113.581H269.419V112.604H270.766V110.812H272.03ZM274.847 115.96C274.847 114.93 274.983 113.941 275.257 112.993C275.535 112.045 275.947 111.184 276.494 110.409C277.041 109.634 277.608 109.088 278.196 108.769L278.456 109.603C277.791 110.113 277.244 110.892 276.815 111.94C276.392 112.989 276.159 114.162 276.118 115.461L276.111 116.042C276.111 117.801 276.433 119.328 277.075 120.622C277.463 121.397 277.923 122.003 278.456 122.44L278.196 123.213C277.59 122.876 277.011 122.311 276.46 121.518C275.384 119.968 274.847 118.116 274.847 115.96ZM283.986 118.038C283.986 117.696 283.856 117.432 283.597 117.245C283.341 117.054 282.893 116.89 282.25 116.753C281.612 116.616 281.104 116.452 280.726 116.261C280.352 116.069 280.074 115.841 279.892 115.577C279.714 115.313 279.625 114.998 279.625 114.634C279.625 114.028 279.88 113.515 280.391 113.096C280.906 112.676 281.562 112.467 282.359 112.467C283.198 112.467 283.877 112.683 284.396 113.116C284.921 113.549 285.183 114.103 285.183 114.777H283.911C283.911 114.431 283.763 114.132 283.467 113.882C283.175 113.631 282.806 113.506 282.359 113.506C281.899 113.506 281.539 113.606 281.279 113.807C281.02 114.007 280.89 114.269 280.89 114.593C280.89 114.898 281.01 115.128 281.252 115.283C281.493 115.438 281.929 115.586 282.558 115.728C283.191 115.869 283.704 116.037 284.096 116.233C284.488 116.429 284.777 116.666 284.964 116.944C285.155 117.218 285.251 117.553 285.251 117.949C285.251 118.61 284.987 119.141 284.458 119.542C283.929 119.938 283.243 120.137 282.4 120.137C281.808 120.137 281.284 120.032 280.828 119.822C280.372 119.613 280.015 119.321 279.755 118.947C279.5 118.569 279.372 118.161 279.372 117.724H280.637C280.66 118.147 280.828 118.485 281.143 118.735C281.462 118.981 281.881 119.104 282.4 119.104C282.879 119.104 283.262 119.009 283.549 118.817C283.84 118.621 283.986 118.362 283.986 118.038ZM289.817 116.028C289.817 117.045 289.683 118.02 289.414 118.954C289.15 119.884 288.742 120.743 288.19 121.531C287.644 122.32 287.069 122.88 286.468 123.213L286.201 122.44C286.903 121.903 287.466 121.069 287.89 119.938C288.318 118.804 288.537 117.546 288.546 116.165V115.946C288.546 114.989 288.446 114.101 288.245 113.28C288.045 112.455 287.764 111.717 287.404 111.065C287.049 110.414 286.648 109.906 286.201 109.541L286.468 108.769C287.069 109.101 287.641 109.657 288.184 110.437C288.73 111.216 289.138 112.075 289.407 113.014C289.681 113.952 289.817 114.957 289.817 116.028Z" fill="#1788FC"/>
<path d="M583.812 115.345C583.812 116.32 583.647 117.172 583.319 117.901C582.991 118.626 582.526 119.18 581.925 119.562C581.323 119.945 580.621 120.137 579.819 120.137C579.035 120.137 578.34 119.945 577.734 119.562C577.128 119.175 576.657 118.626 576.319 117.915C575.987 117.2 575.816 116.372 575.807 115.434V114.716C575.807 113.759 575.973 112.913 576.306 112.18C576.638 111.446 577.108 110.885 577.714 110.498C578.325 110.106 579.022 109.91 579.806 109.91C580.603 109.91 581.305 110.104 581.911 110.491C582.522 110.874 582.991 111.432 583.319 112.166C583.647 112.895 583.812 113.745 583.812 114.716V115.345ZM582.506 114.702C582.506 113.522 582.269 112.617 581.795 111.988C581.321 111.355 580.658 111.038 579.806 111.038C578.976 111.038 578.322 111.355 577.844 111.988C577.37 112.617 577.126 113.492 577.112 114.613V115.345C577.112 116.489 577.352 117.389 577.83 118.045C578.313 118.697 578.976 119.022 579.819 119.022C580.667 119.022 581.323 118.715 581.788 118.1C582.253 117.48 582.492 116.593 582.506 115.44V114.702ZM588.549 119.104C589 119.104 589.394 118.968 589.731 118.694C590.069 118.421 590.256 118.079 590.292 117.669H591.488C591.465 118.093 591.32 118.496 591.051 118.879C590.782 119.262 590.422 119.567 589.971 119.795C589.524 120.023 589.05 120.137 588.549 120.137C587.542 120.137 586.74 119.802 586.143 119.132C585.55 118.457 585.254 117.537 585.254 116.37V116.158C585.254 115.438 585.386 114.798 585.65 114.237C585.915 113.677 586.293 113.242 586.785 112.932C587.282 112.622 587.868 112.467 588.542 112.467C589.371 112.467 590.06 112.715 590.606 113.212C591.158 113.709 591.452 114.354 591.488 115.146H590.292C590.256 114.668 590.073 114.276 589.745 113.971C589.422 113.661 589.021 113.506 588.542 113.506C587.899 113.506 587.4 113.738 587.045 114.203C586.694 114.663 586.519 115.331 586.519 116.206V116.445C586.519 117.298 586.694 117.954 587.045 118.414C587.396 118.874 587.897 119.104 588.549 119.104ZM594.626 110.812V112.604H596.007V113.581H594.626V118.168C594.626 118.464 594.688 118.688 594.811 118.838C594.934 118.984 595.143 119.057 595.439 119.057C595.585 119.057 595.786 119.029 596.041 118.975V120C595.708 120.091 595.385 120.137 595.07 120.137C594.505 120.137 594.079 119.966 593.792 119.624C593.505 119.282 593.361 118.797 593.361 118.168V113.581H592.015V112.604H593.361V110.812H594.626ZM607.074 115.755C607.074 117.236 606.821 118.337 606.315 119.057C605.81 119.777 605.019 120.137 603.943 120.137C602.882 120.137 602.095 119.786 601.585 119.084C601.075 118.378 600.81 117.325 600.792 115.926V114.237C600.792 112.774 601.045 111.688 601.551 110.977C602.057 110.266 602.85 109.91 603.93 109.91C605.001 109.91 605.789 110.254 606.295 110.942C606.801 111.626 607.061 112.683 607.074 114.114V115.755ZM605.81 114.025C605.81 112.954 605.659 112.175 605.358 111.688C605.058 111.195 604.581 110.949 603.93 110.949C603.283 110.949 602.811 111.193 602.515 111.681C602.218 112.168 602.066 112.918 602.057 113.93V115.953C602.057 117.029 602.212 117.824 602.521 118.339C602.836 118.849 603.31 119.104 603.943 119.104C604.568 119.104 605.03 118.863 605.331 118.38C605.636 117.897 605.796 117.136 605.81 116.097V114.025ZM614.033 116.657H615.414V117.689H614.033V120H612.762V117.689H608.229V116.944L612.687 110.047H614.033V116.657ZM609.665 116.657H612.762V111.776L612.611 112.05L609.665 116.657ZM616.645 121.982L615.927 121.49C616.355 120.893 616.578 120.278 616.597 119.645V118.503H617.834V119.494C617.834 119.954 617.72 120.415 617.492 120.875C617.269 121.335 616.986 121.704 616.645 121.982ZM629.298 120H622.776V119.091L626.222 115.263C626.732 114.684 627.083 114.215 627.274 113.854C627.47 113.49 627.568 113.114 627.568 112.727C627.568 112.207 627.411 111.781 627.097 111.448C626.782 111.116 626.363 110.949 625.839 110.949C625.21 110.949 624.72 111.129 624.369 111.489C624.023 111.845 623.85 112.341 623.85 112.979H622.585C622.585 112.063 622.879 111.323 623.467 110.758C624.059 110.193 624.85 109.91 625.839 109.91C626.764 109.91 627.495 110.154 628.033 110.642C628.571 111.125 628.84 111.77 628.84 112.576C628.84 113.556 628.215 114.723 626.967 116.076L624.301 118.968H629.298V120ZM636.879 115.755C636.879 117.236 636.626 118.337 636.12 119.057C635.614 119.777 634.824 120.137 633.748 120.137C632.686 120.137 631.9 119.786 631.39 119.084C630.879 118.378 630.615 117.325 630.597 115.926V114.237C630.597 112.774 630.85 111.688 631.355 110.977C631.861 110.266 632.654 109.91 633.734 109.91C634.805 109.91 635.594 110.254 636.1 110.942C636.605 111.626 636.865 112.683 636.879 114.114V115.755ZM635.614 114.025C635.614 112.954 635.464 112.175 635.163 111.688C634.862 111.195 634.386 110.949 633.734 110.949C633.087 110.949 632.616 111.193 632.319 111.681C632.023 112.168 631.87 112.918 631.861 113.93V115.953C631.861 117.029 632.016 117.824 632.326 118.339C632.641 118.849 633.115 119.104 633.748 119.104C634.372 119.104 634.835 118.863 635.136 118.38C635.441 117.897 635.601 117.136 635.614 116.097V114.025ZM642.655 120H641.384V111.571L638.834 112.508V111.359L642.457 109.999H642.655V120ZM651.207 115.625C650.943 115.939 650.626 116.192 650.257 116.384C649.892 116.575 649.491 116.671 649.054 116.671C648.479 116.671 647.978 116.53 647.55 116.247C647.126 115.965 646.798 115.568 646.565 115.058C646.333 114.543 646.217 113.975 646.217 113.355C646.217 112.69 646.342 112.091 646.593 111.558C646.848 111.024 647.208 110.617 647.673 110.334C648.138 110.051 648.68 109.91 649.3 109.91C650.284 109.91 651.059 110.279 651.624 111.018C652.194 111.751 652.479 112.754 652.479 114.025V114.395C652.479 116.331 652.096 117.746 651.33 118.64C650.564 119.528 649.409 119.984 647.864 120.007H647.618V118.94H647.885C648.928 118.922 649.73 118.651 650.291 118.127C650.852 117.598 651.157 116.764 651.207 115.625ZM649.259 115.625C649.683 115.625 650.072 115.495 650.428 115.235C650.788 114.976 651.05 114.654 651.214 114.271V113.766C651.214 112.936 651.034 112.262 650.674 111.742C650.314 111.223 649.858 110.963 649.307 110.963C648.751 110.963 648.304 111.177 647.967 111.605C647.63 112.029 647.461 112.59 647.461 113.287C647.461 113.966 647.623 114.527 647.946 114.969C648.274 115.406 648.712 115.625 649.259 115.625Z" fill="#181818"/>
<rect x="394" y="104" width="34" height="22" rx="11" fill="#97ADC6"/>
<circle cx="405" cy="115" r="9" fill="white"/>
<circle cx="762" cy="115" r="2" fill="#1788FC"/>
<circle cx="769" cy="115" r="2" fill="#1788FC"/>
<circle cx="776" cy="115" r="2" fill="#1788FC"/>
<circle cx="26" cy="168" r="10" fill="#333E48"/>
<mask id="mask0" mask-type="alpha" maskUnits="userSpaceOnUse" x="17" y="159" width="18" height="18">
<circle cx="26.0003" cy="168" r="7.53333" fill="#E7F0F8" stroke="white" stroke-width="1.6"/>
</mask>
<g mask="url(#mask0)">
<circle cx="26" cy="168" r="10" fill="white"/>
<path d="M36 168C36 162.484 31.5139 158 26.0003 158C20.4867 158 16 162.484 16 168C16 173.21 20.0057 177.502 25.0993 177.958H25.1238C25.2074 177.966 25.2912 177.972 25.3751 177.977L25.4236 177.98C25.4995 177.985 25.5767 177.988 25.6549 177.99H25.7159C25.8105 177.99 25.9051 177.995 26.0009 177.995C26.0966 177.995 26.1815 177.995 26.2715 177.991H26.3097C26.3891 177.989 26.4682 177.985 26.5468 177.981H26.5628C26.7402 177.971 26.9165 177.957 27.0916 177.937C32.0935 177.395 36 173.145 36 168ZM27.0574 176.986L26.9611 174.22L29.3763 172.738C29.9414 173.126 30.6762 173.163 31.2777 172.835C31.8792 172.507 32.2455 171.869 32.2257 171.184C32.187 170.224 31.4182 169.456 30.459 169.417C29.9156 169.398 29.3922 169.623 29.0336 170.032C28.675 170.441 28.5191 170.989 28.6092 171.526L26.9047 172.58L26.781 169.095L29.158 167.641C29.993 168.265 31.1557 168.197 31.9127 167.481C32.6698 166.765 32.8017 165.608 32.2253 164.739C31.649 163.871 30.5314 163.543 29.5774 163.963C28.6234 164.383 28.1097 165.428 28.3602 166.439L26.724 167.455L26.6272 164.674C27.4056 164.373 27.9059 163.61 27.8712 162.776C27.8307 161.803 27.0787 161.01 26.1099 160.918C25.1411 160.825 24.2528 161.462 24.0292 162.409C23.8057 163.357 24.3156 164.323 25.2235 164.674L25.0469 170.436L23.266 169.301C23.3848 168.816 23.3281 168.304 23.1059 167.856C22.7497 167.115 22.0316 166.59 21.2127 166.539C20.1999 166.472 19.2676 167.09 18.9339 168.049C18.6002 169.007 18.9472 170.071 19.7821 170.648C20.617 171.225 21.7344 171.174 22.5132 170.523L24.9956 172.094L24.8463 176.975C20.4012 176.408 16.9489 172.599 16.9489 168C16.9523 163.011 21.011 158.951 26.0003 158.951C30.9896 158.951 35.0483 163.01 35.0483 167.999C35.0483 172.631 31.5498 176.46 27.0574 176.986Z" fill="#333E48"/>
<path d="M25.9432 161.685C26.5934 161.685 27.1204 162.212 27.121 162.863C27.121 163.513 26.5937 164.04 25.9432 164.04C25.2927 164.04 24.7653 163.513 24.7653 162.863C24.7653 162.212 25.2927 161.685 25.9432 161.685ZM30.3835 170.172C30.9734 170.172 31.4524 170.649 31.4545 171.239C31.4557 171.671 31.1961 172.062 30.7968 172.228C30.3975 172.395 29.9373 172.304 29.6307 171.999C29.3242 171.694 29.2317 171.234 29.3965 170.834C29.5614 170.434 29.9509 170.173 30.3835 170.172ZM31.0426 167.07C30.4178 167.374 29.6651 167.114 29.3602 166.49C29.1372 166.032 29.2118 165.485 29.5493 165.104C29.8867 164.723 30.4206 164.583 30.9018 164.749C31.3831 164.915 31.7169 165.354 31.7478 165.862C31.7786 166.37 31.5003 166.847 31.0426 167.07ZM21.0281 167.42C21.7775 167.421 22.3849 168.028 22.3855 168.777C22.3852 169.527 21.7777 170.134 21.0285 170.134C20.2793 170.133 19.672 169.526 19.6719 168.777C19.6718 168.028 20.2789 167.42 21.0281 167.42Z" fill="#009BDE"/>
</g>
<path d="M45.0117 173V163.047H48.4229C49.5485 163.047 50.4053 163.272 50.9932 163.724C51.5811 164.175 51.875 164.847 51.875 165.74C51.875 166.196 51.752 166.606 51.5059 166.971C51.2598 167.335 50.8997 167.618 50.4258 167.818C50.9635 167.964 51.3783 168.24 51.6699 168.646C51.9661 169.047 52.1143 169.53 52.1143 170.095C52.1143 171.029 51.8135 171.747 51.2119 172.248C50.6149 172.749 49.7581 173 48.6416 173H45.0117ZM46.7412 168.509V171.619H48.6621C49.2044 171.619 49.6283 171.485 49.9336 171.216C50.2389 170.947 50.3916 170.573 50.3916 170.095C50.3916 169.06 49.863 168.532 48.8057 168.509H46.7412ZM46.7412 167.237H48.4365C48.9743 167.237 49.3936 167.117 49.6943 166.875C49.9997 166.629 50.1523 166.283 50.1523 165.836C50.1523 165.344 50.0111 164.988 49.7285 164.77C49.4505 164.551 49.0153 164.441 48.4229 164.441H46.7412V167.237ZM57.5557 167.121C57.3369 167.085 57.1113 167.066 56.8789 167.066C56.1178 167.066 55.6051 167.358 55.3408 167.941V173H53.6797V165.604H55.2656L55.3066 166.431C55.7077 165.788 56.2637 165.467 56.9746 165.467C57.2116 165.467 57.4076 165.499 57.5625 165.562L57.5557 167.121ZM62.8193 173C62.7464 172.859 62.6826 172.629 62.6279 172.31C62.0993 172.861 61.4521 173.137 60.6865 173.137C59.9437 173.137 59.3376 172.925 58.8682 172.501C58.3988 172.077 58.1641 171.553 58.1641 170.929C58.1641 170.14 58.4557 169.536 59.0391 169.117C59.627 168.693 60.4655 168.481 61.5547 168.481H62.5732V167.996C62.5732 167.613 62.4661 167.308 62.252 167.08C62.0378 166.848 61.7119 166.731 61.2744 166.731C60.8962 166.731 60.5863 166.827 60.3447 167.019C60.1032 167.205 59.9824 167.445 59.9824 167.736H58.3213C58.3213 167.331 58.4557 166.952 58.7246 166.602C58.9935 166.246 59.3581 165.968 59.8184 165.768C60.2832 165.567 60.8005 165.467 61.3701 165.467C62.236 165.467 62.9264 165.686 63.4414 166.123C63.9564 166.556 64.2207 167.167 64.2344 167.955V171.291C64.2344 171.956 64.3278 172.487 64.5146 172.884V173H62.8193ZM60.9941 171.804C61.3223 171.804 61.6299 171.724 61.917 171.564C62.2087 171.405 62.4274 171.191 62.5732 170.922V169.527H61.6777C61.0625 169.527 60.5999 169.634 60.29 169.849C59.9801 170.063 59.8252 170.366 59.8252 170.758C59.8252 171.077 59.93 171.332 60.1396 171.523C60.3538 171.71 60.6387 171.804 60.9941 171.804ZM67.5156 165.604L67.5635 166.458C68.1104 165.797 68.8281 165.467 69.7168 165.467C71.2572 165.467 72.041 166.349 72.0684 168.112V173H70.4072V168.208C70.4072 167.739 70.3047 167.392 70.0996 167.169C69.8991 166.941 69.5687 166.827 69.1084 166.827C68.4385 166.827 67.9395 167.13 67.6113 167.736V173H65.9502V165.604H67.5156ZM76.8057 171.811C77.2204 171.811 77.5645 171.69 77.8379 171.448C78.1113 171.207 78.2572 170.908 78.2754 170.553H79.8408C79.8226 171.013 79.679 171.444 79.4102 171.845C79.1413 172.241 78.7767 172.556 78.3164 172.788C77.8561 173.021 77.3594 173.137 76.8262 173.137C75.7917 173.137 74.9714 172.802 74.3652 172.132C73.7591 171.462 73.4561 170.537 73.4561 169.356V169.186C73.4561 168.06 73.7568 167.16 74.3584 166.485C74.96 165.806 75.7803 165.467 76.8193 165.467C77.6989 165.467 78.4144 165.724 78.9658 166.239C79.5218 166.75 79.8135 167.422 79.8408 168.256H78.2754C78.2572 167.832 78.1113 167.483 77.8379 167.21C77.569 166.937 77.2249 166.8 76.8057 166.8C76.2679 166.8 75.8532 166.996 75.5615 167.388C75.2699 167.775 75.1217 168.365 75.1172 169.158V169.425C75.1172 170.227 75.2607 170.826 75.5479 171.223C75.8395 171.615 76.2588 171.811 76.8057 171.811ZM82.7324 166.41C83.2747 165.781 83.9606 165.467 84.79 165.467C86.3669 165.467 87.1667 166.367 87.1895 168.167V173H85.5283V168.229C85.5283 167.718 85.4167 167.358 85.1934 167.148C84.9746 166.934 84.651 166.827 84.2227 166.827C83.5573 166.827 83.0605 167.123 82.7324 167.716V173H81.0713V162.5H82.7324V166.41Z" fill="black"/>
<path d="M225.983 173H224.712V164.571L222.162 165.508V164.359L225.785 162.999H225.983V173ZM233.845 173H232.573V164.571L230.023 165.508V164.359L233.646 162.999H233.845V173ZM244.222 173.137C243.219 173.137 242.403 172.809 241.774 172.152C241.146 171.492 240.831 170.61 240.831 169.507V169.274C240.831 168.541 240.97 167.887 241.248 167.312C241.531 166.734 241.923 166.283 242.424 165.959C242.93 165.631 243.477 165.467 244.064 165.467C245.026 165.467 245.773 165.784 246.307 166.417C246.84 167.05 247.106 167.957 247.106 169.138V169.664H242.096C242.114 170.393 242.326 170.983 242.731 171.435C243.142 171.881 243.661 172.104 244.29 172.104C244.737 172.104 245.115 172.013 245.425 171.831C245.735 171.649 246.006 171.407 246.238 171.106L247.011 171.708C246.391 172.66 245.461 173.137 244.222 173.137ZM244.064 166.506C243.554 166.506 243.126 166.693 242.779 167.066C242.433 167.436 242.219 167.955 242.137 168.625H245.842V168.529C245.805 167.887 245.632 167.39 245.322 167.039C245.012 166.684 244.593 166.506 244.064 166.506ZM250.921 171.284L252.753 165.604H254.045L251.393 173H250.429L247.749 165.604H249.041L250.921 171.284ZM258.235 173.137C257.233 173.137 256.417 172.809 255.788 172.152C255.159 171.492 254.845 170.61 254.845 169.507V169.274C254.845 168.541 254.984 167.887 255.262 167.312C255.544 166.734 255.936 166.283 256.438 165.959C256.943 165.631 257.49 165.467 258.078 165.467C259.04 165.467 259.787 165.784 260.32 166.417C260.854 167.05 261.12 167.957 261.12 169.138V169.664H256.109C256.128 170.393 256.34 170.983 256.745 171.435C257.155 171.881 257.675 172.104 258.304 172.104C258.75 172.104 259.129 172.013 259.438 171.831C259.748 171.649 260.02 171.407 260.252 171.106L261.024 171.708C260.405 172.66 259.475 173.137 258.235 173.137ZM258.078 166.506C257.568 166.506 257.139 166.693 256.793 167.066C256.447 167.436 256.232 167.955 256.15 168.625H259.855V168.529C259.819 167.887 259.646 167.39 259.336 167.039C259.026 166.684 258.607 166.506 258.078 166.506ZM263.786 165.604L263.827 166.533C264.392 165.822 265.131 165.467 266.042 165.467C267.605 165.467 268.394 166.349 268.407 168.112V173H267.143V168.105C267.138 167.572 267.015 167.178 266.773 166.923C266.536 166.668 266.165 166.54 265.659 166.54C265.249 166.54 264.889 166.649 264.579 166.868C264.269 167.087 264.028 167.374 263.854 167.729V173H262.59V165.604H263.786ZM272.03 163.812V165.604H273.411V166.581H272.03V171.168C272.03 171.464 272.092 171.688 272.215 171.838C272.338 171.984 272.548 172.057 272.844 172.057C272.99 172.057 273.19 172.029 273.445 171.975V173C273.113 173.091 272.789 173.137 272.475 173.137C271.91 173.137 271.483 172.966 271.196 172.624C270.909 172.282 270.766 171.797 270.766 171.168V166.581H269.419V165.604H270.766V163.812H272.03ZM274.847 168.96C274.847 167.93 274.983 166.941 275.257 165.993C275.535 165.045 275.947 164.184 276.494 163.409C277.041 162.634 277.608 162.088 278.196 161.769L278.456 162.603C277.791 163.113 277.244 163.892 276.815 164.94C276.392 165.989 276.159 167.162 276.118 168.461L276.111 169.042C276.111 170.801 276.433 172.328 277.075 173.622C277.463 174.397 277.923 175.003 278.456 175.44L278.196 176.213C277.59 175.876 277.011 175.311 276.46 174.518C275.384 172.968 274.847 171.116 274.847 168.96ZM283.986 171.038C283.986 170.696 283.856 170.432 283.597 170.245C283.341 170.054 282.893 169.89 282.25 169.753C281.612 169.616 281.104 169.452 280.726 169.261C280.352 169.069 280.074 168.841 279.892 168.577C279.714 168.313 279.625 167.998 279.625 167.634C279.625 167.028 279.88 166.515 280.391 166.096C280.906 165.676 281.562 165.467 282.359 165.467C283.198 165.467 283.877 165.683 284.396 166.116C284.921 166.549 285.183 167.103 285.183 167.777H283.911C283.911 167.431 283.763 167.132 283.467 166.882C283.175 166.631 282.806 166.506 282.359 166.506C281.899 166.506 281.539 166.606 281.279 166.807C281.02 167.007 280.89 167.269 280.89 167.593C280.89 167.898 281.01 168.128 281.252 168.283C281.493 168.438 281.929 168.586 282.558 168.728C283.191 168.869 283.704 169.037 284.096 169.233C284.488 169.429 284.777 169.666 284.964 169.944C285.155 170.218 285.251 170.553 285.251 170.949C285.251 171.61 284.987 172.141 284.458 172.542C283.929 172.938 283.243 173.137 282.4 173.137C281.808 173.137 281.284 173.032 280.828 172.822C280.372 172.613 280.015 172.321 279.755 171.947C279.5 171.569 279.372 171.161 279.372 170.724H280.637C280.66 171.147 280.828 171.485 281.143 171.735C281.462 171.981 281.881 172.104 282.4 172.104C282.879 172.104 283.262 172.009 283.549 171.817C283.84 171.621 283.986 171.362 283.986 171.038ZM289.817 169.028C289.817 170.045 289.683 171.02 289.414 171.954C289.15 172.884 288.742 173.743 288.19 174.531C287.644 175.32 287.069 175.88 286.468 176.213L286.201 175.44C286.903 174.903 287.466 174.069 287.89 172.938C288.318 171.804 288.537 170.546 288.546 169.165V168.946C288.546 167.989 288.446 167.101 288.245 166.28C288.045 165.455 287.764 164.717 287.404 164.065C287.049 163.414 286.648 162.906 286.201 162.541L286.468 161.769C287.069 162.101 287.641 162.657 288.184 163.437C288.73 164.216 289.138 165.075 289.407 166.014C289.681 166.952 289.817 167.957 289.817 169.028Z" fill="#1788FC"/>
<path d="M583.812 168.345C583.812 169.32 583.647 170.172 583.319 170.901C582.991 171.626 582.526 172.18 581.925 172.562C581.323 172.945 580.621 173.137 579.819 173.137C579.035 173.137 578.34 172.945 577.734 172.562C577.128 172.175 576.657 171.626 576.319 170.915C575.987 170.2 575.816 169.372 575.807 168.434V167.716C575.807 166.759 575.973 165.913 576.306 165.18C576.638 164.446 577.108 163.885 577.714 163.498C578.325 163.106 579.022 162.91 579.806 162.91C580.603 162.91 581.305 163.104 581.911 163.491C582.522 163.874 582.991 164.432 583.319 165.166C583.647 165.895 583.812 166.745 583.812 167.716V168.345ZM582.506 167.702C582.506 166.522 582.269 165.617 581.795 164.988C581.321 164.355 580.658 164.038 579.806 164.038C578.976 164.038 578.322 164.355 577.844 164.988C577.37 165.617 577.126 166.492 577.112 167.613V168.345C577.112 169.489 577.352 170.389 577.83 171.045C578.313 171.697 578.976 172.022 579.819 172.022C580.667 172.022 581.323 171.715 581.788 171.1C582.253 170.48 582.492 169.593 582.506 168.44V167.702ZM588.549 172.104C589 172.104 589.394 171.968 589.731 171.694C590.069 171.421 590.256 171.079 590.292 170.669H591.488C591.465 171.093 591.32 171.496 591.051 171.879C590.782 172.262 590.422 172.567 589.971 172.795C589.524 173.023 589.05 173.137 588.549 173.137C587.542 173.137 586.74 172.802 586.143 172.132C585.55 171.457 585.254 170.537 585.254 169.37V169.158C585.254 168.438 585.386 167.798 585.65 167.237C585.915 166.677 586.293 166.242 586.785 165.932C587.282 165.622 587.868 165.467 588.542 165.467C589.371 165.467 590.06 165.715 590.606 166.212C591.158 166.709 591.452 167.354 591.488 168.146H590.292C590.256 167.668 590.073 167.276 589.745 166.971C589.422 166.661 589.021 166.506 588.542 166.506C587.899 166.506 587.4 166.738 587.045 167.203C586.694 167.663 586.519 168.331 586.519 169.206V169.445C586.519 170.298 586.694 170.954 587.045 171.414C587.396 171.874 587.897 172.104 588.549 172.104ZM594.626 163.812V165.604H596.007V166.581H594.626V171.168C594.626 171.464 594.688 171.688 594.811 171.838C594.934 171.984 595.143 172.057 595.439 172.057C595.585 172.057 595.786 172.029 596.041 171.975V173C595.708 173.091 595.385 173.137 595.07 173.137C594.505 173.137 594.079 172.966 593.792 172.624C593.505 172.282 593.361 171.797 593.361 171.168V166.581H592.015V165.604H593.361V163.812H594.626ZM604.989 173H603.718V164.571L601.168 165.508V164.359L604.791 162.999H604.989V173ZM615.12 163.758L610.998 173H609.672L613.78 164.086H608.394V163.047H615.12V163.758ZM616.645 174.982L615.927 174.49C616.355 173.893 616.578 173.278 616.597 172.645V171.503H617.834V172.494C617.834 172.954 617.72 173.415 617.492 173.875C617.269 174.335 616.986 174.704 616.645 174.982ZM629.298 173H622.776V172.091L626.222 168.263C626.732 167.684 627.083 167.215 627.274 166.854C627.47 166.49 627.568 166.114 627.568 165.727C627.568 165.207 627.411 164.781 627.097 164.448C626.782 164.116 626.363 163.949 625.839 163.949C625.21 163.949 624.72 164.129 624.369 164.489C624.023 164.845 623.85 165.341 623.85 165.979H622.585C622.585 165.063 622.879 164.323 623.467 163.758C624.059 163.193 624.85 162.91 625.839 162.91C626.764 162.91 627.495 163.154 628.033 163.642C628.571 164.125 628.84 164.77 628.84 165.576C628.84 166.556 628.215 167.723 626.967 169.076L624.301 171.968H629.298V173ZM636.879 168.755C636.879 170.236 636.626 171.337 636.12 172.057C635.614 172.777 634.824 173.137 633.748 173.137C632.686 173.137 631.9 172.786 631.39 172.084C630.879 171.378 630.615 170.325 630.597 168.926V167.237C630.597 165.774 630.85 164.688 631.355 163.977C631.861 163.266 632.654 162.91 633.734 162.91C634.805 162.91 635.594 163.254 636.1 163.942C636.605 164.626 636.865 165.683 636.879 167.114V168.755ZM635.614 167.025C635.614 165.954 635.464 165.175 635.163 164.688C634.862 164.195 634.386 163.949 633.734 163.949C633.087 163.949 632.616 164.193 632.319 164.681C632.023 165.168 631.87 165.918 631.861 166.93V168.953C631.861 170.029 632.016 170.824 632.326 171.339C632.641 171.849 633.115 172.104 633.748 172.104C634.372 172.104 634.835 171.863 635.136 171.38C635.441 170.897 635.601 170.136 635.614 169.097V167.025ZM642.655 173H641.384V164.571L638.834 165.508V164.359L642.457 162.999H642.655V173ZM651.207 168.625C650.943 168.939 650.626 169.192 650.257 169.384C649.892 169.575 649.491 169.671 649.054 169.671C648.479 169.671 647.978 169.53 647.55 169.247C647.126 168.965 646.798 168.568 646.565 168.058C646.333 167.543 646.217 166.975 646.217 166.355C646.217 165.69 646.342 165.091 646.593 164.558C646.848 164.024 647.208 163.617 647.673 163.334C648.138 163.051 648.68 162.91 649.3 162.91C650.284 162.91 651.059 163.279 651.624 164.018C652.194 164.751 652.479 165.754 652.479 167.025V167.395C652.479 169.331 652.096 170.746 651.33 171.64C650.564 172.528 649.409 172.984 647.864 173.007H647.618V171.94H647.885C648.928 171.922 649.73 171.651 650.291 171.127C650.852 170.598 651.157 169.764 651.207 168.625ZM649.259 168.625C649.683 168.625 650.072 168.495 650.428 168.235C650.788 167.976 651.05 167.654 651.214 167.271V166.766C651.214 165.936 651.034 165.262 650.674 164.742C650.314 164.223 649.858 163.963 649.307 163.963C648.751 163.963 648.304 164.177 647.967 164.605C647.63 165.029 647.461 165.59 647.461 166.287C647.461 166.966 647.623 167.527 647.946 167.969C648.274 168.406 648.712 168.625 649.259 168.625Z" fill="#181818"/>
<rect x="394" y="157" width="34" height="22" rx="11" fill="#2DBE5A"/>
<circle cx="417" cy="168" r="9" fill="white"/>
<circle cx="762" cy="168" r="2" fill="#1788FC"/>
<circle cx="769" cy="168" r="2" fill="#1788FC"/>
<circle cx="776" cy="168" r="2" fill="#1788FC"/>
<circle cx="26" cy="221" r="10" fill="#4A154B"/>
<path d="M22.1343 222.759C22.1343 223.53 21.5046 224.16 20.7337 224.16C19.9628 224.16 19.333 223.53 19.333 222.759C19.333 221.988 19.9628 221.358 20.7337 221.358H22.1343V222.759Z" fill="#E01E5A"/>
<path d="M22.8398 222.759C22.8398 221.988 23.4696 221.358 24.2405 221.358C25.0114 221.358 25.6411 221.988 25.6411 222.759V226.266C25.6411 227.037 25.0114 227.667 24.2405 227.667C23.4696 227.667 22.8398 227.037 22.8398 226.266V222.759Z" fill="#E01E5A"/>
<path d="M24.2405 217.135C23.4696 217.135 22.8398 216.505 22.8398 215.734C22.8398 214.963 23.4696 214.333 24.2405 214.333C25.0114 214.333 25.6411 214.963 25.6411 215.734V217.135H24.2405Z" fill="#36C5F0"/>
<path d="M24.2407 217.84C25.0116 217.84 25.6414 218.47 25.6414 219.241C25.6414 220.012 25.0116 220.642 24.2407 220.642H20.7337C19.9628 220.642 19.333 220.012 19.333 219.241C19.333 218.47 19.9628 217.84 20.7337 217.84H24.2407Z" fill="#36C5F0"/>
<path d="M29.8652 219.241C29.8652 218.47 30.495 217.84 31.2659 217.84C32.0368 217.84 32.6665 218.47 32.6665 219.241C32.6665 220.012 32.0368 220.642 31.2659 220.642H29.8652V219.241Z" fill="#2EB67D"/>
<path d="M29.1597 219.241C29.1597 220.012 28.53 220.642 27.759 220.642C26.9881 220.642 26.3584 220.012 26.3584 219.241V215.734C26.3584 214.963 26.9881 214.333 27.759 214.333C28.53 214.333 29.1597 214.963 29.1597 215.734V219.241Z" fill="#2EB67D"/>
<path d="M27.759 224.865C28.53 224.865 29.1597 225.495 29.1597 226.266C29.1597 227.037 28.53 227.667 27.759 227.667C26.9881 227.667 26.3584 227.037 26.3584 226.266V224.865H27.759Z" fill="#ECB22E"/>
<path d="M27.759 224.16C26.9881 224.16 26.3584 223.53 26.3584 222.759C26.3584 221.988 26.9881 221.358 27.759 221.358H31.2661C32.037 221.358 32.6668 221.988 32.6668 222.759C32.6668 223.53 32.037 224.16 31.2661 224.16H27.759Z" fill="#ECB22E"/>
<path d="M50.2139 223.437C50.2139 222.999 50.0589 222.662 49.749 222.425C49.4437 222.188 48.89 221.949 48.0879 221.707C47.2858 221.465 46.6478 221.197 46.1738 220.9C45.2669 220.331 44.8135 219.588 44.8135 218.672C44.8135 217.87 45.1393 217.209 45.791 216.689C46.4473 216.17 47.2972 215.91 48.3408 215.91C49.0335 215.91 49.651 216.038 50.1934 216.293C50.7357 216.548 51.1618 216.913 51.4717 217.387C51.7816 217.856 51.9365 218.378 51.9365 218.952H50.2139C50.2139 218.433 50.0498 218.027 49.7217 217.735C49.3981 217.439 48.9333 217.291 48.3271 217.291C47.762 217.291 47.3223 217.412 47.0078 217.653C46.6979 217.895 46.543 218.232 46.543 218.665C46.543 219.03 46.7116 219.335 47.0488 219.581C47.3861 219.823 47.9421 220.06 48.7168 220.292C49.4915 220.52 50.1136 220.782 50.583 221.078C51.0524 221.37 51.3965 221.707 51.6152 222.09C51.834 222.468 51.9434 222.912 51.9434 223.423C51.9434 224.252 51.6243 224.913 50.9863 225.405C50.3529 225.893 49.4915 226.137 48.4023 226.137C47.6823 226.137 47.0192 226.005 46.4131 225.74C45.8115 225.471 45.3421 225.102 45.0049 224.633C44.6722 224.163 44.5059 223.617 44.5059 222.992H46.2354C46.2354 223.557 46.4222 223.995 46.7959 224.305C47.1696 224.615 47.7051 224.77 48.4023 224.77C49.0039 224.77 49.4551 224.649 49.7559 224.407C50.0612 224.161 50.2139 223.838 50.2139 223.437ZM55.0674 226H53.4062V215.5H55.0674V226ZM61.3018 226C61.2288 225.859 61.165 225.629 61.1104 225.31C60.5817 225.861 59.9346 226.137 59.1689 226.137C58.4261 226.137 57.82 225.925 57.3506 225.501C56.8812 225.077 56.6465 224.553 56.6465 223.929C56.6465 223.14 56.9382 222.536 57.5215 222.117C58.1094 221.693 58.9479 221.481 60.0371 221.481H61.0557V220.996C61.0557 220.613 60.9486 220.308 60.7344 220.08C60.5202 219.848 60.1943 219.731 59.7568 219.731C59.3786 219.731 59.0687 219.827 58.8271 220.019C58.5856 220.205 58.4648 220.445 58.4648 220.736H56.8037C56.8037 220.331 56.9382 219.952 57.207 219.602C57.4759 219.246 57.8405 218.968 58.3008 218.768C58.7656 218.567 59.2829 218.467 59.8525 218.467C60.7184 218.467 61.4089 218.686 61.9238 219.123C62.4388 219.556 62.7031 220.167 62.7168 220.955V224.291C62.7168 224.956 62.8102 225.487 62.9971 225.884V226H61.3018ZM59.4766 224.804C59.8047 224.804 60.1123 224.724 60.3994 224.564C60.6911 224.405 60.9098 224.191 61.0557 223.922V222.527H60.1602C59.5449 222.527 59.0824 222.634 58.7725 222.849C58.4626 223.063 58.3076 223.366 58.3076 223.758C58.3076 224.077 58.4124 224.332 58.6221 224.523C58.8363 224.71 59.1211 224.804 59.4766 224.804ZM67.4951 224.811C67.9098 224.811 68.2539 224.69 68.5273 224.448C68.8008 224.207 68.9466 223.908 68.9648 223.553H70.5303C70.512 224.013 70.3685 224.444 70.0996 224.845C69.8307 225.241 69.4661 225.556 69.0059 225.788C68.5456 226.021 68.0488 226.137 67.5156 226.137C66.4811 226.137 65.6608 225.802 65.0547 225.132C64.4486 224.462 64.1455 223.537 64.1455 222.356V222.186C64.1455 221.06 64.4463 220.16 65.0479 219.485C65.6494 218.806 66.4697 218.467 67.5088 218.467C68.3883 218.467 69.1038 218.724 69.6553 219.239C70.2113 219.75 70.5029 220.422 70.5303 221.256H68.9648C68.9466 220.832 68.8008 220.483 68.5273 220.21C68.2585 219.937 67.9144 219.8 67.4951 219.8C66.9574 219.8 66.5426 219.996 66.251 220.388C65.9593 220.775 65.8112 221.365 65.8066 222.158V222.425C65.8066 223.227 65.9502 223.826 66.2373 224.223C66.529 224.615 66.9482 224.811 67.4951 224.811ZM74.1875 222.828L73.4492 223.587V226H71.7881V215.5H73.4492V221.557L73.9688 220.907L76.0127 218.604H78.0088L75.2607 221.687L78.3027 226H76.3818L74.1875 222.828ZM84.127 218.604L84.1748 219.458C84.7217 218.797 85.4395 218.467 86.3281 218.467C87.8685 218.467 88.6523 219.349 88.6797 221.112V226H87.0186V221.208C87.0186 220.739 86.916 220.392 86.7109 220.169C86.5104 219.941 86.18 219.827 85.7197 219.827C85.0498 219.827 84.5508 220.13 84.2227 220.736V226H82.5615V218.604H84.127ZM90.0674 222.233C90.0674 221.509 90.2109 220.857 90.498 220.278C90.7852 219.695 91.1885 219.248 91.708 218.938C92.2275 218.624 92.8245 218.467 93.499 218.467C94.4971 218.467 95.306 218.788 95.9258 219.431C96.5501 220.073 96.8874 220.925 96.9375 221.987L96.9443 222.377C96.9443 223.106 96.8031 223.758 96.5205 224.332C96.2425 224.906 95.8415 225.351 95.3174 225.665C94.7979 225.979 94.1963 226.137 93.5127 226.137C92.4691 226.137 91.6328 225.79 91.0039 225.098C90.3796 224.4 90.0674 223.473 90.0674 222.315V222.233ZM91.7285 222.377C91.7285 223.138 91.8857 223.735 92.2002 224.168C92.5146 224.596 92.9521 224.811 93.5127 224.811C94.0732 224.811 94.5085 224.592 94.8184 224.154C95.1328 223.717 95.29 223.076 95.29 222.233C95.29 221.486 95.1283 220.894 94.8047 220.456C94.4857 220.019 94.0505 219.8 93.499 219.8C92.9567 219.8 92.526 220.016 92.207 220.449C91.888 220.878 91.7285 221.52 91.7285 222.377ZM100.431 216.806V218.604H101.736V219.834H100.431V223.963C100.431 224.245 100.485 224.451 100.595 224.578C100.709 224.701 100.909 224.763 101.196 224.763C101.388 224.763 101.581 224.74 101.777 224.694V225.979C101.399 226.084 101.035 226.137 100.684 226.137C99.4076 226.137 98.7695 225.433 98.7695 224.024V219.834H97.5527V218.604H98.7695V216.806H100.431ZM104.778 226H103.117V218.604H104.778V226ZM103.015 216.683C103.015 216.427 103.094 216.215 103.254 216.047C103.418 215.878 103.65 215.794 103.951 215.794C104.252 215.794 104.484 215.878 104.648 216.047C104.812 216.215 104.895 216.427 104.895 216.683C104.895 216.933 104.812 217.143 104.648 217.312C104.484 217.476 104.252 217.558 103.951 217.558C103.65 217.558 103.418 217.476 103.254 217.312C103.094 217.143 103.015 216.933 103.015 216.683ZM107.034 226V219.834H105.906V218.604H107.034V218.098C107.039 217.519 107.162 217.022 107.403 216.607C107.645 216.193 107.987 215.881 108.429 215.671C108.871 215.461 109.402 215.356 110.021 215.356C110.386 215.356 110.735 215.395 111.067 215.473C111.405 215.55 111.753 215.648 112.113 215.767L111.86 217.141C111.231 216.922 110.657 216.812 110.138 216.812C109.632 216.812 109.265 216.924 109.037 217.147C108.809 217.366 108.695 217.697 108.695 218.139V218.604H110.151V219.834H108.695V226H107.034ZM112.899 226H111.238V218.604H112.899V226ZM117.78 224.811C118.195 224.811 118.539 224.69 118.812 224.448C119.086 224.207 119.232 223.908 119.25 223.553H120.815C120.797 224.013 120.654 224.444 120.385 224.845C120.116 225.241 119.751 225.556 119.291 225.788C118.831 226.021 118.334 226.137 117.801 226.137C116.766 226.137 115.946 225.802 115.34 225.132C114.734 224.462 114.431 223.537 114.431 222.356V222.186C114.431 221.06 114.731 220.16 115.333 219.485C115.935 218.806 116.755 218.467 117.794 218.467C118.674 218.467 119.389 218.724 119.94 219.239C120.496 219.75 120.788 220.422 120.815 221.256H119.25C119.232 220.832 119.086 220.483 118.812 220.21C118.544 219.937 118.2 219.8 117.78 219.8C117.243 219.8 116.828 219.996 116.536 220.388C116.244 220.775 116.096 221.365 116.092 222.158V222.425C116.092 223.227 116.235 223.826 116.522 224.223C116.814 224.615 117.233 224.811 117.78 224.811ZM126.489 226C126.416 225.859 126.353 225.629 126.298 225.31C125.769 225.861 125.122 226.137 124.356 226.137C123.614 226.137 123.007 225.925 122.538 225.501C122.069 225.077 121.834 224.553 121.834 223.929C121.834 223.14 122.126 222.536 122.709 222.117C123.297 221.693 124.135 221.481 125.225 221.481H126.243V220.996C126.243 220.613 126.136 220.308 125.922 220.08C125.708 219.848 125.382 219.731 124.944 219.731C124.566 219.731 124.256 219.827 124.015 220.019C123.773 220.205 123.652 220.445 123.652 220.736H121.991C121.991 220.331 122.126 219.952 122.395 219.602C122.663 219.246 123.028 218.968 123.488 218.768C123.953 218.567 124.47 218.467 125.04 218.467C125.906 218.467 126.596 218.686 127.111 219.123C127.626 219.556 127.891 220.167 127.904 220.955V224.291C127.904 224.956 127.998 225.487 128.185 225.884V226H126.489ZM124.664 224.804C124.992 224.804 125.3 224.724 125.587 224.564C125.879 224.405 126.097 224.191 126.243 223.922V222.527H125.348C124.732 222.527 124.27 222.634 123.96 222.849C123.65 223.063 123.495 223.366 123.495 223.758C123.495 224.077 123.6 224.332 123.81 224.523C124.024 224.71 124.309 224.804 124.664 224.804ZM131.726 216.806V218.604H133.031V219.834H131.726V223.963C131.726 224.245 131.78 224.451 131.89 224.578C132.004 224.701 132.204 224.763 132.491 224.763C132.683 224.763 132.876 224.74 133.072 224.694V225.979C132.694 226.084 132.329 226.137 131.979 226.137C130.702 226.137 130.064 225.433 130.064 224.024V219.834H128.848V218.604H130.064V216.806H131.726ZM136.073 226H134.412V218.604H136.073V226ZM134.31 216.683C134.31 216.427 134.389 216.215 134.549 216.047C134.713 215.878 134.945 215.794 135.246 215.794C135.547 215.794 135.779 215.878 135.943 216.047C136.107 216.215 136.189 216.427 136.189 216.683C136.189 216.933 136.107 217.143 135.943 217.312C135.779 217.476 135.547 217.558 135.246 217.558C134.945 217.558 134.713 217.476 134.549 217.312C134.389 217.143 134.31 216.933 134.31 216.683ZM137.577 222.233C137.577 221.509 137.721 220.857 138.008 220.278C138.295 219.695 138.698 219.248 139.218 218.938C139.737 218.624 140.334 218.467 141.009 218.467C142.007 218.467 142.816 218.788 143.436 219.431C144.06 220.073 144.397 220.925 144.447 221.987L144.454 222.377C144.454 223.106 144.313 223.758 144.03 224.332C143.752 224.906 143.351 225.351 142.827 225.665C142.308 225.979 141.706 226.137 141.022 226.137C139.979 226.137 139.143 225.79 138.514 225.098C137.889 224.4 137.577 223.473 137.577 222.315V222.233ZM139.238 222.377C139.238 223.138 139.396 223.735 139.71 224.168C140.024 224.596 140.462 224.811 141.022 224.811C141.583 224.811 142.018 224.592 142.328 224.154C142.643 223.717 142.8 223.076 142.8 222.233C142.8 221.486 142.638 220.894 142.314 220.456C141.995 220.019 141.56 219.8 141.009 219.8C140.466 219.8 140.036 220.016 139.717 220.449C139.398 220.878 139.238 221.52 139.238 222.377ZM147.4 218.604L147.448 219.458C147.995 218.797 148.713 218.467 149.602 218.467C151.142 218.467 151.926 219.349 151.953 221.112V226H150.292V221.208C150.292 220.739 150.189 220.392 149.984 220.169C149.784 219.941 149.453 219.827 148.993 219.827C148.323 219.827 147.824 220.13 147.496 220.736V226H145.835V218.604H147.4ZM157.798 223.99C157.798 223.694 157.675 223.468 157.429 223.313C157.187 223.159 156.784 223.022 156.219 222.903C155.654 222.785 155.182 222.634 154.804 222.452C153.974 222.051 153.56 221.47 153.56 220.709C153.56 220.071 153.828 219.538 154.366 219.109C154.904 218.681 155.588 218.467 156.417 218.467C157.301 218.467 158.014 218.686 158.557 219.123C159.104 219.561 159.377 220.128 159.377 220.825H157.716C157.716 220.506 157.597 220.242 157.36 220.032C157.123 219.818 156.809 219.711 156.417 219.711C156.052 219.711 155.754 219.795 155.521 219.964C155.294 220.132 155.18 220.358 155.18 220.641C155.18 220.896 155.287 221.094 155.501 221.235C155.715 221.377 156.148 221.52 156.8 221.666C157.451 221.807 157.962 221.978 158.331 222.179C158.705 222.375 158.98 222.612 159.158 222.89C159.34 223.168 159.432 223.505 159.432 223.901C159.432 224.567 159.156 225.107 158.604 225.521C158.053 225.932 157.331 226.137 156.438 226.137C155.831 226.137 155.291 226.027 154.817 225.809C154.343 225.59 153.974 225.289 153.71 224.906C153.446 224.523 153.313 224.111 153.313 223.669H154.927C154.95 224.061 155.098 224.364 155.371 224.578C155.645 224.788 156.007 224.893 156.458 224.893C156.896 224.893 157.228 224.811 157.456 224.646C157.684 224.478 157.798 224.259 157.798 223.99Z" fill="black"/>
<path d="M225.983 226H224.712V217.571L222.162 218.508V217.359L225.785 215.999H225.983V226ZM233.845 226H232.573V217.571L230.023 218.508V217.359L233.646 215.999H233.845V226ZM244.222 226.137C243.219 226.137 242.403 225.809 241.774 225.152C241.146 224.492 240.831 223.61 240.831 222.507V222.274C240.831 221.541 240.97 220.887 241.248 220.312C241.531 219.734 241.923 219.283 242.424 218.959C242.93 218.631 243.477 218.467 244.064 218.467C245.026 218.467 245.773 218.784 246.307 219.417C246.84 220.05 247.106 220.957 247.106 222.138V222.664H242.096C242.114 223.393 242.326 223.983 242.731 224.435C243.142 224.881 243.661 225.104 244.29 225.104C244.737 225.104 245.115 225.013 245.425 224.831C245.735 224.649 246.006 224.407 246.238 224.106L247.011 224.708C246.391 225.66 245.461 226.137 244.222 226.137ZM244.064 219.506C243.554 219.506 243.126 219.693 242.779 220.066C242.433 220.436 242.219 220.955 242.137 221.625H245.842V221.529C245.805 220.887 245.632 220.39 245.322 220.039C245.012 219.684 244.593 219.506 244.064 219.506ZM250.921 224.284L252.753 218.604H254.045L251.393 226H250.429L247.749 218.604H249.041L250.921 224.284ZM258.235 226.137C257.233 226.137 256.417 225.809 255.788 225.152C255.159 224.492 254.845 223.61 254.845 222.507V222.274C254.845 221.541 254.984 220.887 255.262 220.312C255.544 219.734 255.936 219.283 256.438 218.959C256.943 218.631 257.49 218.467 258.078 218.467C259.04 218.467 259.787 218.784 260.32 219.417C260.854 220.05 261.12 220.957 261.12 222.138V222.664H256.109C256.128 223.393 256.34 223.983 256.745 224.435C257.155 224.881 257.675 225.104 258.304 225.104C258.75 225.104 259.129 225.013 259.438 224.831C259.748 224.649 260.02 224.407 260.252 224.106L261.024 224.708C260.405 225.66 259.475 226.137 258.235 226.137ZM258.078 219.506C257.568 219.506 257.139 219.693 256.793 220.066C256.447 220.436 256.232 220.955 256.15 221.625H259.855V221.529C259.819 220.887 259.646 220.39 259.336 220.039C259.026 219.684 258.607 219.506 258.078 219.506ZM263.786 218.604L263.827 219.533C264.392 218.822 265.131 218.467 266.042 218.467C267.605 218.467 268.394 219.349 268.407 221.112V226H267.143V221.105C267.138 220.572 267.015 220.178 266.773 219.923C266.536 219.668 266.165 219.54 265.659 219.54C265.249 219.54 264.889 219.649 264.579 219.868C264.269 220.087 264.028 220.374 263.854 220.729V226H262.59V218.604H263.786ZM272.03 216.812V218.604H273.411V219.581H272.03V224.168C272.03 224.464 272.092 224.688 272.215 224.838C272.338 224.984 272.548 225.057 272.844 225.057C272.99 225.057 273.19 225.029 273.445 224.975V226C273.113 226.091 272.789 226.137 272.475 226.137C271.91 226.137 271.483 225.966 271.196 225.624C270.909 225.282 270.766 224.797 270.766 224.168V219.581H269.419V218.604H270.766V216.812H272.03ZM274.847 221.96C274.847 220.93 274.983 219.941 275.257 218.993C275.535 218.045 275.947 217.184 276.494 216.409C277.041 215.634 277.608 215.088 278.196 214.769L278.456 215.603C277.791 216.113 277.244 216.892 276.815 217.94C276.392 218.989 276.159 220.162 276.118 221.461L276.111 222.042C276.111 223.801 276.433 225.328 277.075 226.622C277.463 227.397 277.923 228.003 278.456 228.44L278.196 229.213C277.59 228.876 277.011 228.311 276.46 227.518C275.384 225.968 274.847 224.116 274.847 221.96ZM283.986 224.038C283.986 223.696 283.856 223.432 283.597 223.245C283.341 223.054 282.893 222.89 282.25 222.753C281.612 222.616 281.104 222.452 280.726 222.261C280.352 222.069 280.074 221.841 279.892 221.577C279.714 221.313 279.625 220.998 279.625 220.634C279.625 220.028 279.88 219.515 280.391 219.096C280.906 218.676 281.562 218.467 282.359 218.467C283.198 218.467 283.877 218.683 284.396 219.116C284.921 219.549 285.183 220.103 285.183 220.777H283.911C283.911 220.431 283.763 220.132 283.467 219.882C283.175 219.631 282.806 219.506 282.359 219.506C281.899 219.506 281.539 219.606 281.279 219.807C281.02 220.007 280.89 220.269 280.89 220.593C280.89 220.898 281.01 221.128 281.252 221.283C281.493 221.438 281.929 221.586 282.558 221.728C283.191 221.869 283.704 222.037 284.096 222.233C284.488 222.429 284.777 222.666 284.964 222.944C285.155 223.218 285.251 223.553 285.251 223.949C285.251 224.61 284.987 225.141 284.458 225.542C283.929 225.938 283.243 226.137 282.4 226.137C281.808 226.137 281.284 226.032 280.828 225.822C280.372 225.613 280.015 225.321 279.755 224.947C279.5 224.569 279.372 224.161 279.372 223.724H280.637C280.66 224.147 280.828 224.485 281.143 224.735C281.462 224.981 281.881 225.104 282.4 225.104C282.879 225.104 283.262 225.009 283.549 224.817C283.84 224.621 283.986 224.362 283.986 224.038ZM289.817 222.028C289.817 223.045 289.683 224.02 289.414 224.954C289.15 225.884 288.742 226.743 288.19 227.531C287.644 228.32 287.069 228.88 286.468 229.213L286.201 228.44C286.903 227.903 287.466 227.069 287.89 225.938C288.318 224.804 288.537 223.546 288.546 222.165V221.946C288.546 220.989 288.446 220.101 288.245 219.28C288.045 218.455 287.764 217.717 287.404 217.065C287.049 216.414 286.648 215.906 286.201 215.541L286.468 214.769C287.069 215.101 287.641 215.657 288.184 216.437C288.73 217.216 289.138 218.075 289.407 219.014C289.681 219.952 289.817 220.957 289.817 222.028Z" fill="#1788FC"/>
<path d="M580.325 216.047H581.645V223.095C581.645 224.047 581.357 224.792 580.783 225.33C580.214 225.868 579.452 226.137 578.5 226.137C577.511 226.137 576.741 225.884 576.189 225.378C575.638 224.872 575.362 224.163 575.362 223.252H576.675C576.675 223.822 576.83 224.266 577.14 224.585C577.454 224.904 577.908 225.063 578.5 225.063C579.042 225.063 579.48 224.893 579.812 224.551C580.15 224.209 580.321 223.73 580.325 223.115V216.047ZM588.248 225.269C587.756 225.847 587.034 226.137 586.081 226.137C585.293 226.137 584.691 225.909 584.276 225.453C583.866 224.993 583.659 224.314 583.654 223.416V218.604H584.919V223.382C584.919 224.503 585.375 225.063 586.286 225.063C587.252 225.063 587.895 224.703 588.214 223.983V218.604H589.479V226H588.275L588.248 225.269ZM592.78 226H591.516V215.5H592.78V226ZM602.31 226H601.038V217.571L598.488 218.508V217.359L602.111 215.999H602.31V226ZM612.051 218.645C612.051 219.141 611.919 219.583 611.654 219.971C611.395 220.358 611.041 220.661 610.595 220.88C611.114 221.103 611.524 221.429 611.825 221.857C612.131 222.286 612.283 222.771 612.283 223.313C612.283 224.175 611.992 224.861 611.408 225.371C610.829 225.882 610.066 226.137 609.118 226.137C608.161 226.137 607.393 225.882 606.814 225.371C606.24 224.856 605.953 224.17 605.953 223.313C605.953 222.776 606.099 222.29 606.391 221.857C606.687 221.424 607.095 221.096 607.614 220.873C607.172 220.654 606.824 220.351 606.568 219.964C606.313 219.576 606.186 219.137 606.186 218.645C606.186 217.806 606.454 217.141 606.992 216.648C607.53 216.156 608.239 215.91 609.118 215.91C609.993 215.91 610.7 216.156 611.237 216.648C611.78 217.141 612.051 217.806 612.051 218.645ZM611.019 223.286C611.019 222.73 610.841 222.277 610.485 221.926C610.134 221.575 609.674 221.399 609.104 221.399C608.535 221.399 608.077 221.573 607.73 221.919C607.389 222.265 607.218 222.721 607.218 223.286C607.218 223.851 607.384 224.296 607.717 224.619C608.054 224.943 608.521 225.104 609.118 225.104C609.711 225.104 610.175 224.943 610.513 224.619C610.85 224.291 611.019 223.847 611.019 223.286ZM609.118 216.949C608.621 216.949 608.218 217.104 607.908 217.414C607.603 217.719 607.45 218.136 607.45 218.665C607.45 219.171 607.601 219.581 607.901 219.896C608.207 220.205 608.612 220.36 609.118 220.36C609.624 220.36 610.027 220.205 610.328 219.896C610.633 219.581 610.786 219.171 610.786 218.665C610.786 218.159 610.629 217.747 610.314 217.428C610 217.109 609.601 216.949 609.118 216.949ZM613.965 227.982L613.247 227.49C613.675 226.893 613.899 226.278 613.917 225.645V224.503H615.154V225.494C615.154 225.954 615.04 226.415 614.812 226.875C614.589 227.335 614.307 227.704 613.965 227.982ZM626.618 226H620.097V225.091L623.542 221.263C624.052 220.684 624.403 220.215 624.595 219.854C624.791 219.49 624.889 219.114 624.889 218.727C624.889 218.207 624.731 217.781 624.417 217.448C624.103 217.116 623.683 216.949 623.159 216.949C622.53 216.949 622.04 217.129 621.689 217.489C621.343 217.845 621.17 218.341 621.17 218.979H619.905C619.905 218.063 620.199 217.323 620.787 216.758C621.38 216.193 622.17 215.91 623.159 215.91C624.084 215.91 624.816 216.154 625.354 216.642C625.891 217.125 626.16 217.77 626.16 218.576C626.16 219.556 625.536 220.723 624.287 222.076L621.621 224.968H626.618V226ZM634.199 221.755C634.199 223.236 633.946 224.337 633.44 225.057C632.935 225.777 632.144 226.137 631.068 226.137C630.007 226.137 629.22 225.786 628.71 225.084C628.2 224.378 627.935 223.325 627.917 221.926V220.237C627.917 218.774 628.17 217.688 628.676 216.977C629.182 216.266 629.975 215.91 631.055 215.91C632.126 215.91 632.914 216.254 633.42 216.942C633.926 217.626 634.186 218.683 634.199 220.114V221.755ZM632.935 220.025C632.935 218.954 632.784 218.175 632.483 217.688C632.183 217.195 631.706 216.949 631.055 216.949C630.408 216.949 629.936 217.193 629.64 217.681C629.343 218.168 629.191 218.918 629.182 219.93V221.953C629.182 223.029 629.337 223.824 629.646 224.339C629.961 224.849 630.435 225.104 631.068 225.104C631.693 225.104 632.155 224.863 632.456 224.38C632.761 223.897 632.921 223.136 632.935 222.097V220.025ZM639.976 226H638.704V217.571L636.154 218.508V217.359L639.777 215.999H639.976V226ZM648.527 221.625C648.263 221.939 647.946 222.192 647.577 222.384C647.213 222.575 646.812 222.671 646.374 222.671C645.8 222.671 645.299 222.53 644.87 222.247C644.446 221.965 644.118 221.568 643.886 221.058C643.653 220.543 643.537 219.975 643.537 219.355C643.537 218.69 643.662 218.091 643.913 217.558C644.168 217.024 644.528 216.617 644.993 216.334C645.458 216.051 646 215.91 646.62 215.91C647.604 215.91 648.379 216.279 648.944 217.018C649.514 217.751 649.799 218.754 649.799 220.025V220.395C649.799 222.331 649.416 223.746 648.65 224.64C647.885 225.528 646.729 225.984 645.185 226.007H644.938V224.94H645.205C646.249 224.922 647.051 224.651 647.611 224.127C648.172 223.598 648.477 222.764 648.527 221.625ZM646.579 221.625C647.003 221.625 647.393 221.495 647.748 221.235C648.108 220.976 648.37 220.654 648.534 220.271V219.766C648.534 218.936 648.354 218.262 647.994 217.742C647.634 217.223 647.178 216.963 646.627 216.963C646.071 216.963 645.624 217.177 645.287 217.605C644.95 218.029 644.781 218.59 644.781 219.287C644.781 219.966 644.943 220.527 645.267 220.969C645.595 221.406 646.032 221.625 646.579 221.625Z" fill="#181818"/>
<rect x="394" y="210" width="34" height="22" rx="11" fill="#2DBE5A"/>
<circle cx="417" cy="221" r="9" fill="white"/>
<circle cx="762" cy="221" r="2" fill="#1788FC"/>
<circle cx="769" cy="221" r="2" fill="#1788FC"/>
<circle cx="776" cy="221" r="2" fill="#1788FC"/>
<rect x="0.5" y="0.5" width="809" height="247" rx="11.5" stroke="#EDF3F8"/>
</svg>
