<svg width="288" height="153" viewBox="0 0 288 153" fill="none" xmlns="http://www.w3.org/2000/svg">
<g clip-path="url(#clip0)">
<rect x="0.305085" y="0.305085" width="287.39" height="152.39" rx="7.01695" fill="white"/>
<rect width="494.237" height="21.9661" fill="#EDF3F8"/>
<path d="M11.368 13.7119H10.2954V8.50634H11.368V13.7119ZM16.5985 13.7119H15.5259L13.438 10.2868V13.7119H12.3654V8.50634H13.438L15.5295 11.9385V8.50634H16.5985V13.7119ZM21.3464 9.37512H19.7518V13.7119H18.6793V9.37512H17.1062V8.50634H21.3464V9.37512ZM25.0932 11.4559H23.0339V12.8502H25.4507V13.7119H21.9613V8.50634H25.4436V9.37512H23.0339V10.6157H25.0932V11.4559ZM30.1986 13.054C30.0055 13.2852 29.7326 13.4652 29.3799 13.5939C29.0271 13.7202 28.6362 13.7834 28.2072 13.7834C27.7567 13.7834 27.3611 13.6856 27.0202 13.4902C26.6818 13.2924 26.4196 13.0063 26.2337 12.6321C26.0502 12.2579 25.956 11.8182 25.9513 11.3129V10.9589C25.9513 10.4393 26.0383 9.99006 26.2122 9.61109C26.3886 9.22973 26.6413 8.93895 26.9702 8.73873C27.3015 8.53614 27.6888 8.43484 28.1321 8.43484C28.7495 8.43484 29.2321 8.58262 29.5801 8.87817C29.9281 9.17133 30.1343 9.59917 30.1986 10.1617H29.1546C29.107 9.86373 29.0009 9.64565 28.8365 9.5074C28.6744 9.36916 28.4503 9.30004 28.1643 9.30004C27.7996 9.30004 27.522 9.43709 27.3313 9.71119C27.1406 9.98529 27.0441 10.3929 27.0417 10.9339V11.2664C27.0417 11.8122 27.1454 12.2246 27.3527 12.5034C27.5601 12.7823 27.864 12.9217 28.2644 12.9217C28.6672 12.9217 28.9544 12.8359 29.126 12.6643V11.7669H28.15V10.9768H30.1986V13.054ZM32.998 11.8063H32.1435V13.7119H31.071V8.50634H33.0051C33.6201 8.50634 34.0944 8.64339 34.4281 8.91749C34.7618 9.19159 34.9286 9.57891 34.9286 10.0794C34.9286 10.4346 34.8511 10.7313 34.6962 10.9697C34.5437 11.2056 34.3113 11.3939 33.9991 11.5345L35.1252 13.6618V13.7119H33.974L32.998 11.8063ZM32.1435 10.9375H33.0087C33.2781 10.9375 33.4866 10.8696 33.6344 10.7337C33.7822 10.5955 33.856 10.406 33.856 10.1652C33.856 9.91974 33.7857 9.72668 33.6451 9.58606C33.5069 9.44543 33.2935 9.37512 33.0051 9.37512H32.1435V10.9375ZM38.6862 12.6393H36.8056L36.4481 13.7119H35.3076L37.2453 8.50634H38.2393L40.1877 13.7119H39.0473L38.6862 12.6393ZM37.0952 11.7705H38.3966L37.7423 9.82202L37.0952 11.7705ZM44.1634 9.37512H42.5688V13.7119H41.4963V9.37512H39.9232V8.50634H44.1634V9.37512ZM45.9188 13.7119H44.8462V8.50634H45.9188V13.7119ZM51.1922 11.2271C51.1922 11.7395 51.1017 12.1888 50.9205 12.5749C50.7394 12.9611 50.4796 13.259 50.1411 13.4687C49.8051 13.6785 49.4189 13.7834 48.9828 13.7834C48.5514 13.7834 48.1664 13.6797 47.828 13.4723C47.4895 13.265 47.2273 12.9694 47.0414 12.5857C46.8555 12.1995 46.7614 11.7562 46.759 11.2557V10.9983C46.759 10.4858 46.8508 10.0353 47.0343 9.64684C47.2202 9.25595 47.4812 8.95682 47.8172 8.74946C48.1557 8.53971 48.5418 8.43484 48.9756 8.43484C49.4094 8.43484 49.7943 8.53971 50.1304 8.74946C50.4689 8.95682 50.7299 9.25595 50.9134 9.64684C51.0993 10.0353 51.1922 10.4846 51.1922 10.9947V11.2271ZM50.1054 10.9911C50.1054 10.4453 50.0077 10.0306 49.8122 9.74694C49.6168 9.46331 49.3379 9.32149 48.9756 9.32149C48.6157 9.32149 48.338 9.46212 48.1426 9.74337C47.9471 10.0222 47.8482 10.4322 47.8459 10.9732V11.2271C47.8459 11.7586 47.9436 12.1709 48.139 12.4641C48.3345 12.7573 48.6157 12.9039 48.9828 12.9039C49.3427 12.9039 49.6192 12.7632 49.8122 12.482C50.0053 12.1983 50.103 11.786 50.1054 11.245V10.9911ZM56.2047 13.7119H55.1321L53.0442 10.2868V13.7119H51.9716V8.50634H53.0442L55.1357 11.9385V8.50634H56.2047V13.7119Z" fill="black"/>
<path d="M138.444 11.4559H136.385V12.8502H138.802V13.7119H135.312V8.50634H138.795V9.37512H136.385V10.6157H138.444V11.4559ZM141.355 12.4212L142.534 8.50634H143.728L141.916 13.7119H140.797L138.991 8.50634H140.182L141.355 12.4212ZM147.354 11.4559H145.294V12.8502H147.711V13.7119H144.222V8.50634H147.704V9.37512H145.294V10.6157H147.354V11.4559ZM152.574 13.7119H151.501L149.413 10.2868V13.7119H148.341V8.50634H149.413L151.505 11.9385V8.50634H152.574V13.7119ZM157.321 9.37512H155.727V13.7119H154.654V9.37512H153.081V8.50634H157.321V9.37512ZM160.578 12.3461C160.578 12.1435 160.507 11.9886 160.364 11.8813C160.221 11.7717 159.964 11.6573 159.592 11.5381C159.22 11.4166 158.926 11.2974 158.709 11.1806C158.118 10.8612 157.822 10.431 157.822 9.88995C157.822 9.6087 157.901 9.35844 158.058 9.13916C158.218 8.91749 158.445 8.74469 158.741 8.62075C159.039 8.49681 159.372 8.43484 159.742 8.43484C160.114 8.43484 160.445 8.50277 160.736 8.63863C161.027 8.7721 161.252 8.96159 161.411 9.20709C161.574 9.45258 161.655 9.73145 161.655 10.0437H160.582C160.582 9.80534 160.507 9.62062 160.357 9.48953C160.207 9.35605 159.996 9.28932 159.724 9.28932C159.462 9.28932 159.258 9.34533 159.113 9.45735C158.967 9.56699 158.895 9.71238 158.895 9.89353C158.895 10.0628 158.979 10.2046 159.148 10.319C159.32 10.4334 159.571 10.5406 159.903 10.6407C160.513 10.8243 160.957 11.0519 161.236 11.3236C161.515 11.5953 161.655 11.9338 161.655 12.339C161.655 12.7894 161.484 13.1434 161.143 13.4008C160.803 13.6558 160.344 13.7834 159.767 13.7834C159.366 13.7834 159.002 13.7107 158.673 13.5653C158.344 13.4175 158.092 13.2161 157.918 12.9611C157.747 12.706 157.661 12.4105 157.661 12.0744H158.737C158.737 12.6488 159.08 12.936 159.767 12.936C160.022 12.936 160.221 12.8848 160.364 12.7823C160.507 12.6774 160.578 12.532 160.578 12.3461Z" fill="black"/>
<path d="M244.004 11.4559H241.945V12.8502H244.361V13.7119H240.872V8.50634H244.354V9.37512H241.945V10.6157H244.004V11.4559ZM249.224 13.7119H248.151L246.063 10.2868V13.7119H244.991V8.50634H246.063L248.155 11.9385V8.50634H249.224V13.7119ZM253.164 12.6393H251.283L250.926 13.7119H249.785L251.723 8.50634H252.717L254.665 13.7119H253.525L253.164 12.6393ZM251.573 11.7705H252.874L252.22 9.82202L251.573 11.7705ZM255.151 13.7119V8.50634H256.975C257.606 8.50634 258.085 8.6279 258.412 8.87102C258.739 9.11175 258.902 9.46569 258.902 9.93285C258.902 10.1879 258.836 10.4131 258.705 10.6086C258.574 10.8016 258.392 10.9434 258.158 11.034C258.425 11.1008 258.635 11.2354 258.787 11.438C258.942 11.6406 259.02 11.8885 259.02 12.1817C259.02 12.6822 258.86 13.0612 258.541 13.3186C258.221 13.576 257.766 13.7071 257.175 13.7119H255.151ZM256.224 11.4452V12.8502H257.143C257.395 12.8502 257.592 12.7906 257.733 12.6715C257.876 12.5499 257.947 12.3831 257.947 12.1709C257.947 11.6942 257.701 11.4523 257.207 11.4452H256.224ZM256.224 10.6872H257.018C257.559 10.6777 257.829 10.462 257.829 10.0401C257.829 9.80415 257.76 9.63492 257.622 9.53243C257.486 9.42756 257.27 9.37512 256.975 9.37512H256.224V10.6872ZM260.9 12.8502H263.178V13.7119H259.828V8.50634H260.9V12.8502ZM266.928 11.4559H264.869V12.8502H267.286V13.7119H263.796V8.50634H267.279V9.37512H264.869V10.6157H266.928V11.4559ZM267.915 13.7119V8.50634H269.517C269.974 8.50634 270.383 8.61003 270.743 8.81739C271.105 9.02237 271.388 9.31553 271.59 9.69689C271.793 10.0759 271.894 10.5073 271.894 10.9911V11.2307C271.894 11.7145 271.794 12.1447 271.594 12.5213C271.396 12.8979 271.116 13.1899 270.754 13.3972C270.391 13.6046 269.983 13.7095 269.527 13.7119H267.915ZM268.987 9.37512V12.8502H269.506C269.925 12.8502 270.246 12.7132 270.468 12.4391C270.689 12.165 270.802 11.7729 270.807 11.2628V10.9875C270.807 10.4584 270.698 10.058 270.478 9.78627C270.259 9.51217 269.938 9.37512 269.517 9.37512H268.987Z" fill="black"/>
<rect x="9.7627" y="53.6949" width="474.712" height="0.610169" fill="#EDF3F8"/>
<rect x="9.7627" y="86.0339" width="474.712" height="0.610169" fill="#EDF3F8"/>
<rect x="9.7627" y="118.373" width="474.712" height="0.610169" fill="#EDF3F8"/>
<path d="M9.7627 37.8305C9.7627 34.4606 12.4945 31.7288 15.8644 31.7288V31.7288C19.2343 31.7288 21.9661 34.4606 21.9661 37.8305V37.8305C21.9661 41.2004 19.2343 43.9322 15.8644 43.9322V43.9322C12.4945 43.9322 9.7627 41.2004 9.7627 37.8305V37.8305Z" fill="#007FD2"/>
<path fill-rule="evenodd" clip-rule="evenodd" d="M19.1759 40.4625C18.9737 41.0167 18.6833 41.4205 18.3856 41.56C18.0622 41.7104 17.7534 41.615 17.4814 41.281C17.2094 40.9433 16.8235 39.9376 16.4743 38.6493L16.2942 37.9959H14.9489H13.6037L13.328 38.8842C13.1038 39.6146 13.0376 39.7835 12.9604 39.8385C12.8428 39.9266 12.6921 39.8972 12.6076 39.7688C12.5524 39.688 12.5598 39.6293 12.6884 38.9392C12.7301 38.7195 12.7696 38.5082 12.7988 38.3516C12.8238 38.2179 12.8414 38.1241 12.8465 38.0987L12.8612 37.9959H12.2547H12.2547C11.6556 37.9959 11.6446 37.9959 11.5343 37.9005C11.3137 37.717 11.3542 37.372 11.6188 37.2472C11.7291 37.1958 11.832 37.1884 12.4017 37.2105L13.056 37.2361L13.1442 36.8911C13.3023 36.2525 13.6625 35.2321 13.8793 34.7843C14.1293 34.2851 14.3755 33.9584 14.6291 33.7859C15.1511 33.4372 15.5701 33.6905 16.0296 34.6301C16.3052 35.1954 16.4633 35.6285 16.7316 36.5645L16.9264 37.2435L17.327 37.2692C17.5439 37.2839 18.2129 37.3132 18.8083 37.3353C19.4038 37.3573 19.9661 37.3903 20.058 37.4087C20.341 37.46 20.4476 37.7207 20.2602 37.9042L20.172 37.9959H18.6613C17.305 37.9959 17.1543 38.0033 17.1543 38.0547C17.1543 38.0877 17.2131 38.352 17.2829 38.6419C17.6505 40.1689 17.9592 40.8626 18.268 40.8589C18.5951 40.8552 18.7201 40.6423 19.1979 39.31C19.4589 38.5759 19.4883 38.5098 19.5581 38.5098C19.6978 38.5098 19.6941 38.6016 19.492 39.376C19.3817 39.7981 19.2384 40.2863 19.1759 40.4625ZM13.7798 37.2252L14.5003 37.2362C14.8972 37.2398 15.4192 37.2472 15.6581 37.2545C15.9632 37.2582 16.0881 37.2509 16.0881 37.2178C16.0881 37.1958 15.9962 36.8581 15.886 36.4654C15.489 35.0889 15.206 34.3989 15.0369 34.3989C14.7649 34.3989 14.2356 35.5221 13.8681 36.8838L13.7798 37.2252Z" fill="white"/>
<path d="M30.8644 39.5352H28.5119L28.0197 40.9492H26.9227L29.2168 34.8761H30.1637L32.4619 40.9492H31.3608L30.8644 39.5352ZM28.8081 38.6843H30.5683L29.6882 36.165L28.8081 38.6843ZM33.8092 36.4361L33.8384 36.9074C34.1554 36.5376 34.5892 36.3527 35.1398 36.3527C35.7432 36.3527 36.1561 36.5835 36.3786 37.0451C36.7067 36.5835 37.1683 36.3527 37.7634 36.3527C38.2611 36.3527 38.631 36.4903 38.8729 36.7656C39.1176 37.0409 39.2427 37.4469 39.2483 37.9836V40.9492H38.2347V38.0128C38.2347 37.7264 38.1721 37.5164 38.047 37.3829C37.9219 37.2495 37.7147 37.1827 37.4255 37.1827C37.1947 37.1827 37.0056 37.2453 36.8582 37.3704C36.7137 37.4928 36.6122 37.6541 36.5538 37.8543L36.5579 40.9492H35.5444V37.9794C35.5305 37.4483 35.2593 37.1827 34.731 37.1827C34.325 37.1827 34.0372 37.3482 33.8676 37.6791V40.9492H32.854V36.4361H33.8092ZM44.2411 38.7385C44.2411 39.4365 44.0826 39.994 43.7656 40.4111C43.4486 40.8255 43.0231 41.0326 42.4892 41.0326C41.9942 41.0326 41.598 40.87 41.3004 40.5446V42.6844H40.2869V36.4361H41.2212L41.2629 36.8949C41.5604 36.5334 41.965 36.3527 42.4767 36.3527C43.0273 36.3527 43.4583 36.5585 43.7697 36.97C44.084 37.3788 44.2411 37.9474 44.2411 38.676V38.7385ZM43.2317 38.651C43.2317 38.2005 43.1413 37.8432 42.9605 37.579C42.7826 37.3148 42.5267 37.1827 42.1931 37.1827C41.7787 37.1827 41.4812 37.3537 41.3004 37.6958V39.6979C41.484 40.0483 41.7843 40.2235 42.2014 40.2235C42.524 40.2235 42.7756 40.0941 42.9564 39.8355C43.1399 39.5742 43.2317 39.1793 43.2317 38.651ZM46.1806 40.9492H45.167V34.5424H46.1806V40.9492ZM48.3663 40.9492H47.3527V36.4361H48.3663V40.9492ZM47.2901 35.264C47.2901 35.1083 47.3388 34.979 47.4361 34.8761C47.5362 34.7732 47.678 34.7218 47.8616 34.7218C48.0451 34.7218 48.1869 34.7732 48.287 34.8761C48.3871 34.979 48.4372 35.1083 48.4372 35.264C48.4372 35.417 48.3871 35.5449 48.287 35.6478C48.1869 35.7479 48.0451 35.7979 47.8616 35.7979C47.678 35.7979 47.5362 35.7479 47.4361 35.6478C47.3388 35.5449 47.2901 35.417 47.2901 35.264ZM50.7438 35.3391V36.4361H51.5405V37.1869H50.7438V39.7062C50.7438 39.8786 50.7771 40.0038 50.8439 40.0816C50.9134 40.1567 51.0358 40.1943 51.2109 40.1943C51.3277 40.1943 51.4459 40.1803 51.5655 40.1525V40.9367C51.3347 41.0007 51.1122 41.0326 50.8981 41.0326C50.1195 41.0326 49.7302 40.603 49.7302 39.7438V37.1869H48.9878V36.4361H49.7302V35.3391H50.7438ZM55.0525 40.5071C54.755 40.8575 54.3323 41.0326 53.7845 41.0326C53.2951 41.0326 52.9239 40.8894 52.6708 40.603C52.4205 40.3166 52.2954 39.9023 52.2954 39.36V36.4361H53.309V39.3475C53.309 39.9204 53.5467 40.2068 54.0222 40.2068C54.5144 40.2068 54.8467 40.0302 55.0191 39.677V36.4361H56.0327V40.9492H55.0775L55.0525 40.5071ZM56.8753 38.6593C56.8753 37.9641 57.0365 37.4066 57.3591 36.9867C57.6817 36.564 58.1141 36.3527 58.6563 36.3527C59.1346 36.3527 59.5211 36.5195 59.8159 36.8532V34.5424H60.8294V40.9492H59.9118L59.8618 40.4821C59.5587 40.8491 59.1541 41.0326 58.648 41.0326C58.1196 41.0326 57.6914 40.8199 57.3633 40.3945C57.0379 39.969 56.8753 39.3906 56.8753 38.6593ZM57.8888 38.7469C57.8888 39.2057 57.9764 39.5644 58.1516 39.823C58.3296 40.0789 58.5812 40.2068 58.9066 40.2068C59.3209 40.2068 59.624 40.0218 59.8159 39.652V37.725C59.6296 37.3635 59.3292 37.1827 58.9149 37.1827C58.5868 37.1827 58.3338 37.3134 58.1558 37.5748C57.9778 37.8334 57.8888 38.2241 57.8888 38.7469ZM63.8743 41.0326C63.232 41.0326 62.7106 40.831 62.3102 40.4278C61.9125 40.0218 61.7137 39.4824 61.7137 38.8095V38.6843C61.7137 38.2338 61.7999 37.832 61.9723 37.4789C62.1475 37.1229 62.3922 36.8463 62.7064 36.6488C63.0207 36.4514 63.371 36.3527 63.7575 36.3527C64.3721 36.3527 64.8462 36.5487 65.1799 36.9408C65.5164 37.3329 65.6846 37.8876 65.6846 38.6051V39.0138H62.7356C62.7662 39.3865 62.89 39.6812 63.1069 39.8981C63.3265 40.115 63.6018 40.2235 63.9327 40.2235C64.3971 40.2235 64.7753 40.0358 65.0673 39.6604L65.6137 40.1817C65.4329 40.4515 65.191 40.6614 64.8879 40.8116C64.5876 40.959 64.2497 41.0326 63.8743 41.0326ZM63.7534 37.166C63.4753 37.166 63.2501 37.2634 63.0777 37.458C62.908 37.6527 62.7996 37.9238 62.7523 38.2714H64.6835V38.1963C64.6613 37.8571 64.5709 37.6012 64.4124 37.4288C64.2539 37.2536 64.0342 37.166 63.7534 37.166Z" fill="black"/>
<path d="M139.332 40.9492H135.352V40.3944L137.455 38.0586C137.766 37.7054 137.98 37.419 138.097 37.1994C138.216 36.9769 138.276 36.7475 138.276 36.5111C138.276 36.1941 138.18 35.9341 137.988 35.7311C137.797 35.5281 137.541 35.4266 137.221 35.4266C136.837 35.4266 136.538 35.5365 136.324 35.7562C136.113 35.9731 136.007 36.2762 136.007 36.6655H135.236C135.236 36.1065 135.415 35.6547 135.774 35.3099C136.135 34.965 136.618 34.7926 137.221 34.7926C137.785 34.7926 138.232 34.9414 138.56 35.2389C138.888 35.5337 139.052 35.9272 139.052 36.4194C139.052 37.0172 138.671 37.7291 137.909 38.555L136.283 40.3193H139.332V40.9492ZM141.271 37.5372H141.851C142.215 37.5317 142.502 37.4357 142.71 37.2494C142.919 37.0631 143.023 36.8114 143.023 36.4944C143.023 35.7826 142.668 35.4266 141.959 35.4266C141.626 35.4266 141.359 35.5226 141.159 35.7145C140.961 35.9035 140.862 36.1552 140.862 36.4694H140.091C140.091 35.9884 140.266 35.5893 140.616 35.2723C140.969 34.9525 141.417 34.7926 141.959 34.7926C142.532 34.7926 142.981 34.9442 143.307 35.2473C143.632 35.5504 143.795 35.9717 143.795 36.5111C143.795 36.7753 143.708 37.0311 143.536 37.2786C143.366 37.5261 143.134 37.711 142.839 37.8334C143.173 37.939 143.43 38.1142 143.611 38.3589C143.795 38.6036 143.886 38.9025 143.886 39.2557C143.886 39.8007 143.708 40.2331 143.352 40.5529C142.997 40.8727 142.534 41.0326 141.964 41.0326C141.393 41.0326 140.929 40.8782 140.57 40.5696C140.214 40.2609 140.036 39.8536 140.036 39.3475H140.812C140.812 39.6672 140.917 39.9231 141.125 40.1149C141.334 40.3068 141.613 40.4027 141.964 40.4027C142.336 40.4027 142.621 40.3054 142.819 40.1108C143.016 39.9161 143.115 39.6367 143.115 39.2724C143.115 38.9192 143.006 38.6481 142.789 38.459C142.572 38.2699 142.26 38.1726 141.851 38.167H141.271V37.5372ZM149.017 41.0326C148.405 41.0326 147.907 40.8324 147.524 40.4319C147.14 40.0287 146.948 39.4907 146.948 38.8177V38.6759C146.948 38.2282 147.033 37.8292 147.202 37.4788C147.375 37.1257 147.614 36.8504 147.92 36.6529C148.228 36.4527 148.562 36.3526 148.921 36.3526C149.508 36.3526 149.964 36.5459 150.289 36.9324C150.614 37.3189 150.777 37.8723 150.777 38.5925V38.9137H147.72C147.731 39.3586 147.86 39.7187 148.108 39.994C148.358 40.2665 148.675 40.4027 149.059 40.4027C149.331 40.4027 149.562 40.3471 149.751 40.2359C149.94 40.1247 150.105 39.9773 150.247 39.7938L150.719 40.1608C150.34 40.742 149.773 41.0326 149.017 41.0326ZM148.921 36.9866C148.609 36.9866 148.348 37.1006 148.137 37.3287C147.925 37.5539 147.795 37.8709 147.745 38.2797H150.005V38.2213C149.983 37.8292 149.877 37.5261 149.688 37.312C149.499 37.0951 149.243 36.9866 148.921 36.9866ZM153.104 39.9022L154.222 36.436H155.011L153.392 40.9492H152.804L151.169 36.436H151.957L153.104 39.9022ZM157.568 41.0326C156.956 41.0326 156.458 40.8324 156.074 40.4319C155.691 40.0287 155.499 39.4907 155.499 38.8177V38.6759C155.499 38.2282 155.583 37.8292 155.753 37.4788C155.926 37.1257 156.165 36.8504 156.471 36.6529C156.779 36.4527 157.113 36.3526 157.472 36.3526C158.058 36.3526 158.514 36.5459 158.84 36.9324C159.165 37.3189 159.328 37.8723 159.328 38.5925V38.9137H156.27C156.281 39.3586 156.411 39.7187 156.658 39.994C156.909 40.2665 157.226 40.4027 157.609 40.4027C157.882 40.4027 158.113 40.3471 158.302 40.2359C158.491 40.1247 158.656 39.9773 158.798 39.7938L159.269 40.1608C158.891 40.742 158.324 41.0326 157.568 41.0326ZM157.472 36.9866C157.16 36.9866 156.899 37.1006 156.687 37.3287C156.476 37.5539 156.345 37.8709 156.295 38.2797H158.556V38.2213C158.534 37.8292 158.428 37.5261 158.239 37.312C158.05 37.0951 157.794 36.9866 157.472 36.9866ZM160.954 36.436L160.979 37.0033C161.324 36.5695 161.775 36.3526 162.331 36.3526C163.285 36.3526 163.766 36.8907 163.774 37.9668V40.9492H163.002V37.9627C163 37.6373 162.925 37.3968 162.777 37.2411C162.633 37.0853 162.406 37.0075 162.097 37.0075C161.847 37.0075 161.627 37.0742 161.438 37.2077C161.249 37.3412 161.102 37.5164 160.996 37.7333V40.9492H160.225V36.436H160.954ZM165.985 35.3432V36.436H166.827V37.0325H165.985V39.8313C165.985 40.0121 166.022 40.1483 166.097 40.2401C166.172 40.3291 166.3 40.3735 166.481 40.3735C166.57 40.3735 166.692 40.3569 166.848 40.3235V40.9492C166.645 41.0048 166.448 41.0326 166.256 41.0326C165.911 41.0326 165.651 40.9283 165.476 40.7197C165.301 40.5112 165.213 40.215 165.213 39.8313V37.0325H164.391V36.436H165.213V35.3432H165.985ZM167.703 38.484C167.703 37.8556 167.787 37.2522 167.954 36.6738C168.123 36.0954 168.375 35.5699 168.708 35.0971C169.042 34.6244 169.388 34.2907 169.747 34.0961L169.906 34.6049C169.5 34.9164 169.166 35.3919 168.905 36.0315C168.646 36.671 168.504 37.3871 168.479 38.1796L168.475 38.5341C168.475 39.6075 168.671 40.539 169.063 41.3287C169.299 41.8014 169.58 42.1713 169.906 42.4382L169.747 42.9096C169.377 42.7038 169.024 42.359 168.688 41.8751C168.031 40.9297 167.703 39.7993 167.703 38.484ZM173.28 39.7521C173.28 39.5435 173.201 39.3822 173.042 39.2682C172.887 39.1514 172.613 39.0513 172.221 38.9679C171.831 38.8845 171.521 38.7844 171.29 38.6676C171.062 38.5508 170.893 38.4118 170.782 38.2505C170.673 38.0892 170.619 37.8973 170.619 37.6749C170.619 37.305 170.775 36.9922 171.086 36.7364C171.4 36.4805 171.801 36.3526 172.287 36.3526C172.799 36.3526 173.213 36.4847 173.53 36.7489C173.85 37.013 174.01 37.3509 174.01 37.7625H173.234C173.234 37.5511 173.144 37.369 172.963 37.216C172.785 37.0631 172.56 36.9866 172.287 36.9866C172.006 36.9866 171.787 37.0478 171.628 37.1702C171.47 37.2925 171.39 37.4524 171.39 37.6498C171.39 37.8361 171.464 37.9766 171.612 38.0711C171.759 38.1657 172.024 38.256 172.408 38.3422C172.795 38.4284 173.108 38.5313 173.347 38.6509C173.586 38.7705 173.762 38.9151 173.876 39.0847C173.993 39.2515 174.052 39.4559 174.052 39.6978C174.052 40.101 173.89 40.425 173.568 40.6697C173.245 40.9116 172.827 41.0326 172.312 41.0326C171.951 41.0326 171.631 40.9686 171.353 40.8407C171.075 40.7128 170.857 40.5348 170.698 40.3068C170.542 40.076 170.465 39.8271 170.465 39.5602H171.236C171.25 39.8188 171.353 40.0246 171.545 40.1775C171.739 40.3277 171.995 40.4027 172.312 40.4027C172.604 40.4027 172.838 40.3444 173.013 40.2276C173.191 40.108 173.28 39.9495 173.28 39.7521ZM176.838 38.5258C176.838 39.1459 176.756 39.7409 176.592 40.311C176.431 40.8782 176.182 41.4024 175.845 41.8835C175.512 42.3645 175.161 42.7066 174.794 42.9096L174.631 42.4382C175.06 42.1101 175.403 41.6012 175.662 40.9116C175.923 40.2192 176.057 39.4517 176.062 38.6092V38.4757C176.062 37.8918 176.001 37.3495 175.879 36.849C175.756 36.3457 175.585 35.8952 175.366 35.4976C175.149 35.0999 174.904 34.7899 174.631 34.5674L174.794 34.0961C175.161 34.2991 175.51 34.6383 175.841 35.1138C176.175 35.5893 176.424 36.1135 176.588 36.6863C176.755 37.2591 176.838 37.8723 176.838 38.5258Z" fill="#1788FC"/>
<rect x="240.407" y="31.1187" width="20.7458" height="13.4237" rx="6.71186" fill="#2DBE5A"/>
<circle cx="254.441" cy="37.8305" r="5.49153" fill="white"/>
<g clip-path="url(#clip1)">
<circle cx="15.8644" cy="70.1695" r="6.10169" fill="#E7F0F8"/>
<path d="M12.6734 68.7571L13.6765 70.6679C13.745 70.7981 13.9138 70.9037 14.0533 70.9034L16.0996 70.8991C16.2393 70.8988 16.2969 70.7928 16.2285 70.6624L15.2253 68.7517C15.1569 68.6213 14.9881 68.5159 14.8485 68.5162L12.8022 68.5205C12.799 68.5205 12.796 68.5206 12.7928 68.5206C12.6601 68.5256 12.6064 68.6296 12.6734 68.7571Z" fill="#75B82C"/>
<path d="M16.5606 70.9835L17.1681 72.117C17.2094 72.1943 17.3105 72.2564 17.3937 72.2554L18.6129 72.2425C18.6962 72.2417 18.7298 72.1783 18.6885 72.1009L18.0812 70.9675C18.0398 70.8901 17.9386 70.8282 17.8556 70.8291L16.6363 70.8419C16.6349 70.8419 16.6336 70.8419 16.6321 70.8419C16.552 70.8449 16.5199 70.9073 16.5606 70.9835Z" fill="#75B82C"/>
<path d="M16.5669 66.6796L15.3479 68.2444C15.2645 68.3513 15.2535 68.5428 15.3231 68.6728L16.3423 70.575C16.4117 70.7047 16.5357 70.7234 16.6189 70.6168L17.8381 69.0517C17.9212 68.945 17.9324 68.7532 17.8627 68.6234L16.8436 66.7212C16.8032 66.6461 16.7448 66.6082 16.6866 66.6103C16.6443 66.612 16.602 66.6347 16.5669 66.6796Z" fill="#3D90D5"/>
<path d="M16.2813 71.0025L15.5547 71.9349C15.505 71.9985 15.4986 72.1128 15.5399 72.19L16.1472 73.3235C16.1888 73.4009 16.2625 73.412 16.3122 73.3483L17.0386 72.416C17.0881 72.3523 17.0947 72.2379 17.0534 72.1608L16.446 71.0273C16.4221 70.9825 16.3872 70.9599 16.3524 70.9611C16.3273 70.9619 16.302 70.9756 16.2813 71.0025Z" fill="#3D90D5"/>
</g>
<path d="M30.8644 71.8742H28.5119L28.0197 73.2882H26.9227L29.2168 67.2151H30.1637L32.4619 73.2882H31.3608L30.8644 71.8742ZM28.8081 71.0233H30.5683L29.6882 68.504L28.8081 71.0233ZM36.8082 71.0775C36.8082 71.7755 36.6497 72.333 36.3327 72.7501C36.0157 73.1645 35.5902 73.3716 35.0563 73.3716C34.5614 73.3716 34.1651 73.209 33.8676 72.8836V75.0234H32.854V68.7751H33.7883L33.83 69.2339C34.1276 68.8724 34.5322 68.6917 35.0438 68.6917C35.5944 68.6917 36.0254 68.8975 36.3369 69.309C36.6511 69.7178 36.8082 70.2864 36.8082 71.015V71.0775ZM35.7988 70.9899C35.7988 70.5395 35.7084 70.1821 35.5277 69.918C35.3497 69.6538 35.0939 69.5217 34.7602 69.5217C34.3459 69.5217 34.0483 69.6927 33.8676 70.0348V72.0369C34.0511 72.3873 34.3514 72.5624 34.7685 72.5624C35.0911 72.5624 35.3428 72.4331 35.5235 72.1745C35.707 71.9131 35.7988 71.5183 35.7988 70.9899ZM41.6216 71.0775C41.6216 71.7755 41.4631 72.333 41.1461 72.7501C40.8291 73.1645 40.4037 73.3716 39.8698 73.3716C39.3748 73.3716 38.9785 73.209 38.681 72.8836V75.0234H37.6674V68.7751H38.6018L38.6435 69.2339C38.941 68.8724 39.3456 68.6917 39.8573 68.6917C40.4078 68.6917 40.8389 68.8975 41.1503 69.309C41.4645 69.7178 41.6216 70.2864 41.6216 71.015V71.0775ZM40.6122 70.9899C40.6122 70.5395 40.5218 70.1821 40.3411 69.918C40.1631 69.6538 39.9073 69.5217 39.5736 69.5217C39.1593 69.5217 38.8618 69.6927 38.681 70.0348V72.0369C38.8645 72.3873 39.1649 72.5624 39.582 72.5624C39.9045 72.5624 40.1562 72.4331 40.3369 72.1745C40.5205 71.9131 40.6122 71.5183 40.6122 70.9899ZM45.0127 72.0619C45.0127 71.8812 44.9376 71.7435 44.7875 71.649C44.6401 71.5544 44.394 71.471 44.0492 71.3987C43.7044 71.3264 43.4166 71.2346 43.1858 71.1234C42.6797 70.8787 42.4266 70.5242 42.4266 70.0598C42.4266 69.6705 42.5907 69.3451 42.9188 69.0838C43.247 68.8224 43.6641 68.6917 44.1702 68.6917C44.7096 68.6917 45.1448 68.8252 45.4757 69.0921C45.8094 69.3591 45.9762 69.7052 45.9762 70.1307H44.9627C44.9627 69.936 44.8904 69.7748 44.7458 69.6469C44.6012 69.5162 44.4093 69.4508 44.1702 69.4508C43.9477 69.4508 43.7656 69.5023 43.6237 69.6051C43.4847 69.708 43.4152 69.8457 43.4152 70.0181C43.4152 70.1738 43.4805 70.2948 43.6112 70.381C43.7419 70.4672 44.0061 70.5548 44.4037 70.6437C44.8014 70.7299 45.1128 70.8342 45.3381 70.9566C45.5661 71.0761 45.7343 71.2207 45.8428 71.3904C45.954 71.56 46.0096 71.7658 46.0096 72.0077C46.0096 72.4137 45.8414 72.7432 45.5049 72.9962C45.1684 73.2465 44.7277 73.3716 44.1827 73.3716C43.8128 73.3716 43.4833 73.3049 43.1941 73.1714C42.9049 73.0379 42.6797 72.8544 42.5184 72.6208C42.3571 72.3873 42.2765 72.1356 42.2765 71.8659H43.2609C43.2748 72.105 43.3651 72.2899 43.532 72.4206C43.6988 72.5485 43.9199 72.6125 44.1952 72.6125C44.4621 72.6125 44.6651 72.5624 44.8042 72.4623C44.9432 72.3594 45.0127 72.226 45.0127 72.0619ZM50.4935 70.7147H48.0493V73.2882H46.994V67.2151H50.8522V68.066H48.0493V69.8721H50.4935V70.7147ZM52.6708 73.2882H51.6572V66.8814H52.6708V73.2882ZM55.357 71.8367L56.2746 68.7751H57.3549L55.5614 73.9723C55.2861 74.7314 54.8189 75.111 54.1599 75.111C54.0125 75.111 53.8498 75.0859 53.6719 75.0359V74.2517L53.8637 74.2642C54.1196 74.2642 54.3114 74.217 54.4394 74.1224C54.57 74.0307 54.6729 73.8749 54.748 73.6553L54.894 73.2674L53.309 68.7751H54.4018L55.357 71.8367ZM59.8701 73.3716C59.2278 73.3716 58.7064 73.17 58.3059 72.7668C57.9083 72.3608 57.7095 71.8214 57.7095 71.1484V71.0233C57.7095 70.5728 57.7957 70.171 57.9681 69.8179C58.1433 69.4619 58.388 69.1853 58.7022 68.9878C59.0164 68.7904 59.3668 68.6917 59.7533 68.6917C60.3678 68.6917 60.842 68.8877 61.1756 69.2798C61.5121 69.6719 61.6803 70.2266 61.6803 70.9441V71.3528H58.7314C58.762 71.7254 58.8857 72.0202 59.1026 72.2371C59.3223 72.454 59.5976 72.5624 59.9285 72.5624C60.3929 72.5624 60.7711 72.3747 61.063 71.9993L61.6094 72.5207C61.4287 72.7905 61.1868 73.0004 60.8837 73.1506C60.5834 73.2979 60.2455 73.3716 59.8701 73.3716ZM59.7491 69.505C59.4711 69.505 59.2458 69.6024 59.0734 69.797C58.9038 69.9917 58.7954 70.2628 58.7481 70.6104H60.6793V70.5353C60.657 70.196 60.5667 69.9402 60.4082 69.7678C60.2497 69.5926 60.03 69.505 59.7491 69.505ZM64.8337 69.7011C64.7002 69.6788 64.5626 69.6677 64.4207 69.6677C63.9564 69.6677 63.6435 69.8457 63.4823 70.2016V73.2882H62.4687V68.7751H63.4364L63.4614 69.2798C63.7061 68.8877 64.0454 68.6917 64.4791 68.6917C64.6237 68.6917 64.7433 68.7111 64.8379 68.7501L64.8337 69.7011Z" fill="black"/>
<path d="M139.332 73.2881H135.352V72.7334L137.455 70.3976C137.766 70.0444 137.98 69.758 138.097 69.5383C138.216 69.3159 138.276 69.0865 138.276 68.8501C138.276 68.5331 138.18 68.2731 137.988 68.0701C137.797 67.8671 137.541 67.7656 137.221 67.7656C136.837 67.7656 136.538 67.8755 136.324 68.0952C136.113 68.312 136.007 68.6151 136.007 69.0044H135.236C135.236 68.4455 135.415 67.9937 135.774 67.6488C136.135 67.304 136.618 67.1316 137.221 67.1316C137.785 67.1316 138.232 67.2804 138.56 67.5779C138.888 67.8727 139.052 68.2662 139.052 68.7584C139.052 69.3562 138.671 70.0681 137.909 70.8939L136.283 72.6583H139.332V73.2881ZM141.271 69.8762H141.851C142.215 69.8706 142.502 69.7747 142.71 69.5884C142.919 69.4021 143.023 69.1504 143.023 68.8334C143.023 68.1216 142.668 67.7656 141.959 67.7656C141.626 67.7656 141.359 67.8616 141.159 68.0534C140.961 68.2425 140.862 68.4942 140.862 68.8084H140.091C140.091 68.3273 140.266 67.9283 140.616 67.6113C140.969 67.2915 141.417 67.1316 141.959 67.1316C142.532 67.1316 142.981 67.2832 143.307 67.5863C143.632 67.8894 143.795 68.3107 143.795 68.8501C143.795 69.1143 143.708 69.3701 143.536 69.6176C143.366 69.8651 143.134 70.05 142.839 70.1723C143.173 70.278 143.43 70.4532 143.611 70.6979C143.795 70.9426 143.886 71.2415 143.886 71.5947C143.886 72.1397 143.708 72.5721 143.352 72.8919C142.997 73.2117 142.534 73.3716 141.964 73.3716C141.393 73.3716 140.929 73.2172 140.57 72.9086C140.214 72.5999 140.036 72.1925 140.036 71.6865H140.812C140.812 72.0062 140.917 72.2621 141.125 72.4539C141.334 72.6458 141.613 72.7417 141.964 72.7417C142.336 72.7417 142.621 72.6444 142.819 72.4498C143.016 72.2551 143.115 71.9756 143.115 71.6114C143.115 71.2582 143.006 70.9871 142.789 70.798C142.572 70.6089 142.26 70.5116 141.851 70.506H141.271V69.8762ZM149.017 73.3716C148.405 73.3716 147.907 73.1714 147.524 72.7709C147.14 72.3677 146.948 71.8297 146.948 71.1567V71.0149C146.948 70.5672 147.033 70.1682 147.202 69.8178C147.375 69.4647 147.614 69.1894 147.92 68.9919C148.228 68.7917 148.562 68.6916 148.921 68.6916C149.508 68.6916 149.964 68.8849 150.289 69.2714C150.614 69.6579 150.777 70.2113 150.777 70.9315V71.2527H147.72C147.731 71.6976 147.86 72.0577 148.108 72.333C148.358 72.6055 148.675 72.7417 149.059 72.7417C149.331 72.7417 149.562 72.6861 149.751 72.5749C149.94 72.4637 150.105 72.3163 150.247 72.1328L150.719 72.4998C150.34 73.081 149.773 73.3716 149.017 73.3716ZM148.921 69.3256C148.609 69.3256 148.348 69.4396 148.137 69.6676C147.925 69.8929 147.795 70.2099 147.745 70.6187H150.005V70.5603C149.983 70.1682 149.877 69.8651 149.688 69.651C149.499 69.4341 149.243 69.3256 148.921 69.3256ZM153.104 72.2412L154.222 68.775H155.011L153.392 73.2881H152.804L151.169 68.775H151.957L153.104 72.2412ZM157.568 73.3716C156.956 73.3716 156.458 73.1714 156.074 72.7709C155.691 72.3677 155.499 71.8297 155.499 71.1567V71.0149C155.499 70.5672 155.583 70.1682 155.753 69.8178C155.926 69.4647 156.165 69.1894 156.471 68.9919C156.779 68.7917 157.113 68.6916 157.472 68.6916C158.058 68.6916 158.514 68.8849 158.84 69.2714C159.165 69.6579 159.328 70.2113 159.328 70.9315V71.2527H156.27C156.281 71.6976 156.411 72.0577 156.658 72.333C156.909 72.6055 157.226 72.7417 157.609 72.7417C157.882 72.7417 158.113 72.6861 158.302 72.5749C158.491 72.4637 158.656 72.3163 158.798 72.1328L159.269 72.4998C158.891 73.081 158.324 73.3716 157.568 73.3716ZM157.472 69.3256C157.16 69.3256 156.899 69.4396 156.687 69.6676C156.476 69.8929 156.345 70.2099 156.295 70.6187H158.556V70.5603C158.534 70.1682 158.428 69.8651 158.239 69.651C158.05 69.4341 157.794 69.3256 157.472 69.3256ZM160.954 68.775L160.979 69.3423C161.324 68.9085 161.775 68.6916 162.331 68.6916C163.285 68.6916 163.766 69.2297 163.774 70.3058V73.2881H163.002V70.3017C163 69.9763 162.925 69.7358 162.777 69.5801C162.633 69.4243 162.406 69.3465 162.097 69.3465C161.847 69.3465 161.627 69.4132 161.438 69.5467C161.249 69.6802 161.102 69.8553 160.996 70.0722V73.2881H160.225V68.775H160.954ZM165.985 67.6822V68.775H166.827V69.3715H165.985V72.1703C165.985 72.351 166.022 72.4873 166.097 72.5791C166.172 72.668 166.3 72.7125 166.481 72.7125C166.57 72.7125 166.692 72.6959 166.848 72.6625V73.2881C166.645 73.3438 166.448 73.3716 166.256 73.3716C165.911 73.3716 165.651 73.2673 165.476 73.0587C165.301 72.8502 165.213 72.554 165.213 72.1703V69.3715H164.391V68.775H165.213V67.6822H165.985ZM167.703 70.823C167.703 70.1946 167.787 69.5912 167.954 69.0128C168.123 68.4344 168.375 67.9088 168.708 67.4361C169.042 66.9634 169.388 66.6297 169.747 66.4351L169.906 66.9439C169.5 67.2554 169.166 67.7309 168.905 68.3704C168.646 69.01 168.504 69.726 168.479 70.5185L168.475 70.8731C168.475 71.9464 168.671 72.878 169.063 73.6677C169.299 74.1404 169.58 74.5103 169.906 74.7772L169.747 75.2486C169.377 75.0428 169.024 74.698 168.688 74.2141C168.031 73.2687 167.703 72.1383 167.703 70.823ZM173.28 72.091C173.28 71.8825 173.201 71.7212 173.042 71.6072C172.887 71.4904 172.613 71.3903 172.221 71.3069C171.831 71.2235 171.521 71.1234 171.29 71.0066C171.062 70.8898 170.893 70.7507 170.782 70.5895C170.673 70.4282 170.619 70.2363 170.619 70.0138C170.619 69.644 170.775 69.3312 171.086 69.0754C171.4 68.8195 171.801 68.6916 172.287 68.6916C172.799 68.6916 173.213 68.8237 173.53 69.0879C173.85 69.352 174.01 69.6899 174.01 70.1014H173.234C173.234 69.8901 173.144 69.708 172.963 69.555C172.785 69.4021 172.56 69.3256 172.287 69.3256C172.006 69.3256 171.787 69.3868 171.628 69.5091C171.47 69.6315 171.39 69.7914 171.39 69.9888C171.39 70.1751 171.464 70.3156 171.612 70.4101C171.759 70.5046 172.024 70.595 172.408 70.6812C172.795 70.7674 173.108 70.8703 173.347 70.9899C173.586 71.1095 173.762 71.2541 173.876 71.4237C173.993 71.5905 174.052 71.7949 174.052 72.0368C174.052 72.44 173.89 72.764 173.568 73.0087C173.245 73.2506 172.827 73.3716 172.312 73.3716C171.951 73.3716 171.631 73.3076 171.353 73.1797C171.075 73.0518 170.857 72.8738 170.698 72.6458C170.542 72.415 170.465 72.1661 170.465 71.8992H171.236C171.25 72.1578 171.353 72.3636 171.545 72.5165C171.739 72.6667 171.995 72.7417 172.312 72.7417C172.604 72.7417 172.838 72.6833 173.013 72.5666C173.191 72.447 173.28 72.2885 173.28 72.091ZM176.838 70.8647C176.838 71.4848 176.756 72.0799 176.592 72.65C176.431 73.2172 176.182 73.7414 175.845 74.2225C175.512 74.7035 175.161 75.0456 174.794 75.2486L174.631 74.7772C175.06 74.4491 175.403 73.9402 175.662 73.2506C175.923 72.5582 176.057 71.7907 176.062 70.9482V70.8147C176.062 70.2307 176.001 69.6885 175.879 69.188C175.756 68.6847 175.585 68.2342 175.366 67.8365C175.149 67.4389 174.904 67.1289 174.631 66.9064L174.794 66.4351C175.161 66.6381 175.51 66.9773 175.841 67.4528C176.175 67.9283 176.424 68.4525 176.588 69.0253C176.755 69.5981 176.838 70.2113 176.838 70.8647Z" fill="#1788FC"/>
<rect x="240.407" y="63.4576" width="20.7458" height="13.4237" rx="6.71186" fill="#97ADC6"/>
<circle cx="247.118" cy="70.1695" r="5.49153" fill="white"/>
<g clip-path="url(#clip2)">
<circle cx="15.8644" cy="102.508" r="6.10169" fill="#333E48"/>
<mask id="mask0" mask-type="alpha" maskUnits="userSpaceOnUse" x="10" y="97" width="11" height="11">
<circle cx="15.865" cy="102.509" r="4.59661" fill="#E7F0F8" stroke="white" stroke-width="0.976271"/>
</mask>
<g mask="url(#mask0)">
<circle cx="15.8644" cy="102.508" r="6.10169" fill="white"/>
<path d="M21.9661 102.508C21.9661 99.143 19.2288 96.4068 15.8646 96.4068C12.5003 96.4068 9.7627 99.143 9.7627 102.508C9.7627 105.688 12.2069 108.306 15.3148 108.585H15.3298C15.3808 108.589 15.4319 108.593 15.4831 108.596L15.5127 108.598C15.559 108.601 15.6061 108.603 15.6538 108.604H15.691C15.7488 108.604 15.8065 108.607 15.8649 108.607C15.9233 108.607 15.9751 108.607 16.0301 108.605H16.0534C16.1018 108.603 16.15 108.601 16.198 108.599H16.2078C16.316 108.593 16.4236 108.584 16.5305 108.572C19.5824 108.241 21.9661 105.648 21.9661 102.508ZM16.5096 107.991L16.4508 106.304L17.9245 105.4C18.2693 105.636 18.7177 105.659 19.0847 105.459C19.4517 105.258 19.6752 104.869 19.6631 104.451C19.6395 103.866 19.1704 103.397 18.5852 103.373C18.2536 103.361 17.9342 103.499 17.7154 103.748C17.4966 103.998 17.4015 104.332 17.4564 104.66L16.4164 105.303L16.3409 103.177L17.7913 102.29C18.3008 102.67 19.0102 102.629 19.4722 102.192C19.9341 101.755 20.0146 101.049 19.6629 100.519C19.3112 99.9891 18.6293 99.7892 18.0472 100.045C17.4651 100.301 17.1517 100.939 17.3045 101.556L16.3062 102.176L16.2471 100.479C16.722 100.295 17.0273 99.8296 17.0061 99.3207C16.9814 98.7274 16.5226 98.2434 15.9314 98.1871C15.3403 98.1307 14.7983 98.5193 14.6619 99.0973C14.5255 99.6752 14.8366 100.265 15.3906 100.479L15.2828 103.995L14.1962 103.303C14.2687 103.006 14.2341 102.694 14.0985 102.421C13.8811 101.969 13.443 101.648 12.9433 101.617C12.3254 101.576 11.7565 101.953 11.5529 102.538C11.3493 103.123 11.561 103.772 12.0704 104.124C12.5798 104.476 13.2616 104.445 13.7368 104.048L15.2515 105.006L15.1604 107.985C12.4482 107.639 10.3417 105.315 10.3417 102.508C10.3437 99.4643 12.8202 96.9872 15.8646 96.9872C18.9089 96.9872 21.3854 99.4636 21.3854 102.508C21.3854 105.334 19.2507 107.671 16.5096 107.991Z" fill="#333E48"/>
<path d="M15.8295 98.6551C16.2262 98.6555 16.5478 98.977 16.5482 99.3738C16.5482 99.7707 16.2264 100.092 15.8295 100.092C15.4326 100.092 15.1108 99.7707 15.1108 99.3738C15.1108 98.9769 15.4326 98.6551 15.8295 98.6551ZM18.5388 103.834C18.8988 103.834 19.191 104.125 19.1924 104.485C19.1931 104.749 19.0346 104.987 18.791 105.089C18.5474 105.19 18.2666 105.135 18.0795 104.949C17.8925 104.762 17.8361 104.482 17.9366 104.238C18.0372 103.994 18.2749 103.834 18.5388 103.834ZM18.941 101.941C18.5598 102.126 18.1005 101.968 17.9145 101.587C17.7784 101.308 17.8239 100.974 18.0298 100.742C18.2357 100.509 18.5614 100.423 18.8551 100.525C19.1487 100.626 19.3525 100.894 19.3713 101.204C19.3901 101.514 19.2203 101.805 18.941 101.941ZM12.8305 102.155C13.2877 102.155 13.6583 102.526 13.6587 102.983C13.6585 103.44 13.2878 103.81 12.8307 103.81C12.3736 103.81 12.003 103.44 12.0029 102.983C12.0029 102.525 12.3733 102.155 12.8305 102.155Z" fill="#009BDE"/>
</g>
</g>
<path d="M27.465 105.627V99.5541H29.5463C30.2332 99.5541 30.756 99.6917 31.1147 99.967C31.4734 100.242 31.6527 100.652 31.6527 101.198C31.6527 101.476 31.5777 101.726 31.4275 101.948C31.2773 102.171 31.0577 102.343 30.7685 102.466C31.0966 102.555 31.3496 102.723 31.5276 102.97C31.7084 103.215 31.7987 103.51 31.7987 103.854C31.7987 104.425 31.6152 104.862 31.2481 105.168C30.8839 105.474 30.3611 105.627 29.6798 105.627H27.465ZM28.5203 102.887V104.785H29.6923C30.0232 104.785 30.2818 104.703 30.4682 104.539C30.6545 104.374 30.7476 104.146 30.7476 103.854C30.7476 103.223 30.4251 102.901 29.7799 102.887H28.5203ZM28.5203 102.111H29.5547C29.8828 102.111 30.1386 102.037 30.3222 101.89C30.5085 101.74 30.6016 101.528 30.6016 101.256C30.6016 100.956 30.5154 100.739 30.343 100.605C30.1734 100.472 29.9078 100.405 29.5463 100.405H28.5203V102.111ZM35.1189 102.04C34.9854 102.018 34.8478 102.007 34.706 102.007C34.2416 102.007 33.9288 102.185 33.7675 102.541V105.627H32.7539V101.114H33.7216L33.7466 101.619C33.9913 101.227 34.3306 101.031 34.7644 101.031C34.909 101.031 35.0285 101.05 35.1231 101.089L35.1189 102.04ZM38.3306 105.627C38.2861 105.541 38.2472 105.401 38.2139 105.206C37.8913 105.542 37.4964 105.711 37.0293 105.711C36.576 105.711 36.2062 105.581 35.9198 105.323C35.6333 105.064 35.4901 104.744 35.4901 104.363C35.4901 103.882 35.6681 103.514 36.024 103.258C36.3827 102.999 36.8944 102.87 37.559 102.87H38.1805V102.574C38.1805 102.34 38.1151 102.154 37.9844 102.015C37.8537 101.873 37.6549 101.802 37.388 101.802C37.1572 101.802 36.9681 101.861 36.8207 101.978C36.6733 102.092 36.5996 102.237 36.5996 102.415H35.5861C35.5861 102.168 35.6681 101.937 35.8322 101.723C35.9962 101.506 36.2187 101.337 36.4995 101.214C36.7832 101.092 37.0988 101.031 37.4464 101.031C37.9747 101.031 38.396 101.164 38.7102 101.431C39.0244 101.695 39.1857 102.068 39.1941 102.549V104.584C39.1941 104.99 39.2511 105.314 39.3651 105.556V105.627H38.3306ZM37.217 104.897C37.4172 104.897 37.6049 104.849 37.7801 104.751C37.958 104.654 38.0915 104.523 38.1805 104.359V103.508H37.6341C37.2587 103.508 36.9764 103.574 36.7873 103.704C36.5983 103.835 36.5037 104.02 36.5037 104.259C36.5037 104.454 36.5677 104.609 36.6956 104.726C36.8263 104.84 37.0001 104.897 37.217 104.897ZM41.1962 101.114L41.2254 101.635C41.5591 101.232 41.997 101.031 42.5393 101.031C43.4791 101.031 43.9574 101.569 43.9741 102.645V105.627H42.9605V102.703C42.9605 102.417 42.898 102.206 42.7728 102.069C42.6505 101.93 42.4489 101.861 42.168 101.861C41.7593 101.861 41.4548 102.046 41.2546 102.415V105.627H40.241V101.114H41.1962ZM46.8647 104.901C47.1177 104.901 47.3277 104.828 47.4945 104.68C47.6613 104.533 47.7503 104.351 47.7615 104.134H48.7166C48.7055 104.415 48.6179 104.678 48.4539 104.922C48.2898 105.164 48.0673 105.356 47.7865 105.498C47.5056 105.64 47.2025 105.711 46.8772 105.711C46.246 105.711 45.7454 105.506 45.3756 105.097C45.0058 104.689 44.8208 104.124 44.8208 103.404V103.3C44.8208 102.613 45.0044 102.064 45.3714 101.652C45.7385 101.238 46.239 101.031 46.873 101.031C47.4097 101.031 47.8463 101.188 48.1827 101.502C48.522 101.813 48.6999 102.224 48.7166 102.732H47.7615C47.7503 102.474 47.6613 102.261 47.4945 102.094C47.3304 101.927 47.1205 101.844 46.8647 101.844C46.5365 101.844 46.2835 101.964 46.1055 102.203C45.9276 102.439 45.8372 102.799 45.8344 103.283V103.446C45.8344 103.935 45.922 104.301 46.0972 104.543C46.2752 104.782 46.531 104.901 46.8647 104.901ZM50.481 101.606C50.8119 101.223 51.2304 101.031 51.7365 101.031C52.6986 101.031 53.1866 101.58 53.2005 102.678V105.627H52.187V102.716C52.187 102.404 52.1188 102.185 51.9826 102.057C51.8491 101.926 51.6517 101.861 51.3903 101.861C50.9843 101.861 50.6812 102.041 50.481 102.403V105.627H49.4674V99.2204H50.481V101.606Z" fill="black"/>
<path d="M137.888 105.627H137.113V100.484L135.557 101.056V100.355L137.767 99.5248H137.888V105.627ZM142.685 105.627H141.909V100.484L140.353 101.056V100.355L142.564 99.5248H142.685V105.627ZM149.017 105.711C148.405 105.711 147.907 105.51 147.524 105.11C147.14 104.707 146.948 104.169 146.948 103.496V103.354C146.948 102.906 147.033 102.507 147.202 102.157C147.375 101.804 147.614 101.528 147.92 101.331C148.228 101.131 148.562 101.031 148.921 101.031C149.508 101.031 149.964 101.224 150.289 101.61C150.614 101.997 150.777 102.55 150.777 103.27V103.592H147.72C147.731 104.037 147.86 104.397 148.108 104.672C148.358 104.944 148.675 105.081 149.059 105.081C149.331 105.081 149.562 105.025 149.751 104.914C149.94 104.803 150.105 104.655 150.247 104.472L150.719 104.839C150.34 105.42 149.773 105.711 149.017 105.711ZM148.921 101.665C148.609 101.665 148.348 101.779 148.137 102.007C147.925 102.232 147.795 102.549 147.745 102.958H150.005V102.899C149.983 102.507 149.877 102.204 149.688 101.99C149.499 101.773 149.243 101.665 148.921 101.665ZM153.104 104.58L154.222 101.114H155.011L153.392 105.627H152.804L151.169 101.114H151.957L153.104 104.58ZM157.568 105.711C156.956 105.711 156.458 105.51 156.074 105.11C155.691 104.707 155.499 104.169 155.499 103.496V103.354C155.499 102.906 155.583 102.507 155.753 102.157C155.926 101.804 156.165 101.528 156.471 101.331C156.779 101.131 157.113 101.031 157.472 101.031C158.058 101.031 158.514 101.224 158.84 101.61C159.165 101.997 159.328 102.55 159.328 103.27V103.592H156.27C156.281 104.037 156.411 104.397 156.658 104.672C156.909 104.944 157.226 105.081 157.609 105.081C157.882 105.081 158.113 105.025 158.302 104.914C158.491 104.803 158.656 104.655 158.798 104.472L159.269 104.839C158.891 105.42 158.324 105.711 157.568 105.711ZM157.472 101.665C157.16 101.665 156.899 101.779 156.687 102.007C156.476 102.232 156.345 102.549 156.295 102.958H158.556V102.899C158.534 102.507 158.428 102.204 158.239 101.99C158.05 101.773 157.794 101.665 157.472 101.665ZM160.954 101.114L160.979 101.681C161.324 101.248 161.775 101.031 162.331 101.031C163.285 101.031 163.766 101.569 163.774 102.645V105.627H163.002V102.641C163 102.315 162.925 102.075 162.777 101.919C162.633 101.763 162.406 101.685 162.097 101.685C161.847 101.685 161.627 101.752 161.438 101.886C161.249 102.019 161.102 102.194 160.996 102.411V105.627H160.225V101.114H160.954ZM165.985 100.021V101.114H166.827V101.71H165.985V104.509C165.985 104.69 166.022 104.826 166.097 104.918C166.172 105.007 166.3 105.052 166.481 105.052C166.57 105.052 166.692 105.035 166.848 105.001V105.627C166.645 105.683 166.448 105.711 166.256 105.711C165.911 105.711 165.651 105.606 165.476 105.398C165.301 105.189 165.213 104.893 165.213 104.509V101.71H164.391V101.114H165.213V100.021H165.985ZM167.703 103.162C167.703 102.534 167.787 101.93 167.954 101.352C168.123 100.773 168.375 100.248 168.708 99.7751C169.042 99.3024 169.388 98.9687 169.747 98.7741L169.906 99.2829C169.5 99.5944 169.166 100.07 168.905 100.709C168.646 101.349 168.504 102.065 168.479 102.858L168.475 103.212C168.475 104.285 168.671 105.217 169.063 106.007C169.299 106.479 169.58 106.849 169.906 107.116L169.747 107.588C169.377 107.382 169.024 107.037 168.688 106.553C168.031 105.608 167.703 104.477 167.703 103.162ZM173.28 104.43C173.28 104.221 173.201 104.06 173.042 103.946C172.887 103.829 172.613 103.729 172.221 103.646C171.831 103.562 171.521 103.462 171.29 103.346C171.062 103.229 170.893 103.09 170.782 102.928C170.673 102.767 170.619 102.575 170.619 102.353C170.619 101.983 170.775 101.67 171.086 101.414C171.4 101.159 171.801 101.031 172.287 101.031C172.799 101.031 173.213 101.163 173.53 101.427C173.85 101.691 174.01 102.029 174.01 102.44H173.234C173.234 102.229 173.144 102.047 172.963 101.894C172.785 101.741 172.56 101.665 172.287 101.665C172.006 101.665 171.787 101.726 171.628 101.848C171.47 101.97 171.39 102.13 171.39 102.328C171.39 102.514 171.464 102.655 171.612 102.749C171.759 102.844 172.024 102.934 172.408 103.02C172.795 103.106 173.108 103.209 173.347 103.329C173.586 103.448 173.762 103.593 173.876 103.763C173.993 103.93 174.052 104.134 174.052 104.376C174.052 104.779 173.89 105.103 173.568 105.348C173.245 105.59 172.827 105.711 172.312 105.711C171.951 105.711 171.631 105.647 171.353 105.519C171.075 105.391 170.857 105.213 170.698 104.985C170.542 104.754 170.465 104.505 170.465 104.238H171.236C171.25 104.497 171.353 104.703 171.545 104.855C171.739 105.006 171.995 105.081 172.312 105.081C172.604 105.081 172.838 105.022 173.013 104.906C173.191 104.786 173.28 104.627 173.28 104.43ZM176.838 103.204C176.838 103.824 176.756 104.419 176.592 104.989C176.431 105.556 176.182 106.08 175.845 106.561C175.512 107.043 175.161 107.385 174.794 107.588L174.631 107.116C175.06 106.788 175.403 106.279 175.662 105.59C175.923 104.897 176.057 104.13 176.062 103.287V103.154C176.062 102.57 176.001 102.027 175.879 101.527C175.756 101.024 175.585 100.573 175.366 100.176C175.149 99.7779 174.904 99.4678 174.631 99.2454L174.794 98.7741C175.161 98.977 175.51 99.3163 175.841 99.7918C176.175 100.267 176.424 100.791 176.588 101.364C176.755 101.937 176.838 102.55 176.838 103.204Z" fill="#1788FC"/>
<rect x="240.407" y="95.7966" width="20.7458" height="13.4237" rx="6.71186" fill="#2DBE5A"/>
<circle cx="254.441" cy="102.508" r="5.49153" fill="white"/>
<g clip-path="url(#clip3)">
<circle cx="15.8644" cy="134.847" r="6.10169" fill="#4A154B"/>
<path d="M13.5052 135.921C13.5052 136.391 13.1209 136.775 12.6505 136.775C12.1802 136.775 11.7959 136.391 11.7959 135.921C11.7959 135.45 12.1802 135.066 12.6505 135.066H13.5052V135.921Z" fill="#E01E5A"/>
<path d="M13.9355 135.921C13.9355 135.45 14.3198 135.066 14.7902 135.066C15.2606 135.066 15.6448 135.45 15.6448 135.921V138.061C15.6448 138.531 15.2606 138.915 14.7902 138.915C14.3198 138.915 13.9355 138.531 13.9355 138.061V135.921Z" fill="#E01E5A"/>
<path d="M14.7902 132.489C14.3198 132.489 13.9355 132.105 13.9355 131.634C13.9355 131.164 14.3198 130.78 14.7902 130.78C15.2606 130.78 15.6448 131.164 15.6448 131.634V132.489H14.7902Z" fill="#36C5F0"/>
<path d="M14.7904 132.92C15.2608 132.92 15.6451 133.304 15.6451 133.774C15.6451 134.245 15.2608 134.629 14.7904 134.629H12.6505C12.1802 134.629 11.7959 134.245 11.7959 133.774C11.7959 133.304 12.1802 132.92 12.6505 132.92H14.7904Z" fill="#36C5F0"/>
<path d="M18.2227 133.774C18.2227 133.304 18.6069 132.92 19.0773 132.92C19.5477 132.92 19.9319 133.304 19.9319 133.774C19.9319 134.245 19.5477 134.629 19.0773 134.629H18.2227V133.774Z" fill="#2EB67D"/>
<path d="M17.7923 133.774C17.7923 134.245 17.408 134.629 16.9376 134.629C16.4673 134.629 16.083 134.245 16.083 133.774V131.634C16.083 131.164 16.4673 130.78 16.9376 130.78C17.408 130.78 17.7923 131.164 17.7923 131.634V133.774Z" fill="#2EB67D"/>
<path d="M16.9376 137.206C17.408 137.206 17.7923 137.59 17.7923 138.061C17.7923 138.531 17.408 138.915 16.9376 138.915C16.4673 138.915 16.083 138.531 16.083 138.061V137.206H16.9376Z" fill="#ECB22E"/>
<path d="M16.9376 136.775C16.4673 136.775 16.083 136.391 16.083 135.921C16.083 135.45 16.4673 135.066 16.9376 135.066H19.0775C19.5479 135.066 19.9322 135.45 19.9322 135.921C19.9322 136.391 19.5479 136.775 19.0775 136.775H16.9376Z" fill="#ECB22E"/>
</g>
<path d="M30.6392 136.402C30.6392 136.135 30.5446 135.929 30.3555 135.785C30.1692 135.64 29.8314 135.494 29.342 135.347C28.8526 135.199 28.4633 135.035 28.1741 134.855C27.6207 134.507 27.344 134.054 27.344 133.495C27.344 133.005 27.5428 132.602 27.9405 132.285C28.3409 131.968 28.8595 131.81 29.4963 131.81C29.919 131.81 30.2957 131.888 30.6267 132.043C30.9576 132.199 31.2176 132.421 31.4066 132.711C31.5957 132.997 31.6903 133.315 31.6903 133.666H30.6392C30.6392 133.349 30.5391 133.101 30.3389 132.923C30.1414 132.743 29.8578 132.652 29.488 132.652C29.1431 132.652 28.8748 132.726 28.6829 132.873C28.4938 133.021 28.3993 133.226 28.3993 133.491C28.3993 133.713 28.5022 133.899 28.708 134.05C28.9137 134.197 29.253 134.342 29.7257 134.483C30.1984 134.622 30.578 134.782 30.8644 134.963C31.1508 135.141 31.3608 135.347 31.4942 135.58C31.6277 135.811 31.6945 136.082 31.6945 136.394C31.6945 136.9 31.4998 137.303 31.1105 137.603C30.724 137.901 30.1984 138.05 29.5338 138.05C29.0945 138.05 28.6899 137.969 28.32 137.808C27.953 137.644 27.6666 137.418 27.4608 137.132C27.2578 136.846 27.1563 136.512 27.1563 136.131H28.2116C28.2116 136.476 28.3256 136.743 28.5536 136.932C28.7816 137.121 29.1084 137.215 29.5338 137.215C29.9009 137.215 30.1762 137.142 30.3597 136.994C30.546 136.844 30.6392 136.647 30.6392 136.402ZM33.6006 137.966H32.5871V131.559H33.6006V137.966ZM37.4047 137.966C37.3602 137.88 37.3212 137.74 37.2879 137.545C36.9653 137.881 36.5704 138.05 36.1033 138.05C35.65 138.05 35.2802 137.92 34.9938 137.662C34.7074 137.403 34.5642 137.083 34.5642 136.702C34.5642 136.221 34.7421 135.853 35.0981 135.597C35.4568 135.338 35.9684 135.209 36.633 135.209H37.2545V134.913C37.2545 134.679 37.1892 134.493 37.0585 134.354C36.9278 134.212 36.7289 134.141 36.462 134.141C36.2312 134.141 36.0421 134.2 35.8947 134.316C35.7474 134.431 35.6737 134.576 35.6737 134.754H34.6601C34.6601 134.507 34.7421 134.276 34.9062 134.062C35.0702 133.845 35.2927 133.676 35.5736 133.553C35.8572 133.431 36.1728 133.37 36.5204 133.37C37.0487 133.37 37.47 133.503 37.7842 133.77C38.0985 134.034 38.2597 134.407 38.2681 134.888V136.923C38.2681 137.329 38.3251 137.653 38.4391 137.895V137.966H37.4047ZM36.291 137.236C36.4912 137.236 36.6789 137.188 36.8541 137.09C37.032 136.993 37.1655 136.862 37.2545 136.698V135.847H36.7081C36.3327 135.847 36.0505 135.913 35.8614 136.043C35.6723 136.174 35.5777 136.359 35.5777 136.598C35.5777 136.793 35.6417 136.948 35.7696 137.065C35.9003 137.179 36.0741 137.236 36.291 137.236ZM41.1837 137.24C41.4367 137.24 41.6466 137.167 41.8135 137.019C41.9803 136.872 42.0693 136.69 42.0804 136.473H43.0356C43.0245 136.754 42.9369 137.017 42.7728 137.261C42.6088 137.503 42.3863 137.695 42.1055 137.837C41.8246 137.979 41.5215 138.05 41.1962 138.05C40.5649 138.05 40.0644 137.845 39.6946 137.436C39.3247 137.028 39.1398 136.463 39.1398 135.743V135.639C39.1398 134.952 39.3234 134.403 39.6904 133.991C40.0575 133.577 40.558 133.37 41.192 133.37C41.7287 133.37 42.1653 133.527 42.5017 133.841C42.841 134.152 43.0189 134.563 43.0356 135.071H42.0804C42.0693 134.813 41.9803 134.6 41.8135 134.433C41.6494 134.266 41.4395 134.183 41.1837 134.183C40.8555 134.183 40.6025 134.303 40.4245 134.542C40.2466 134.778 40.1562 135.138 40.1534 135.622V135.785C40.1534 136.274 40.241 136.64 40.4162 136.882C40.5941 137.121 40.85 137.24 41.1837 137.24ZM45.2671 136.031L44.8167 136.494V137.966H43.8031V131.559H44.8167V135.255L45.1337 134.859L46.3808 133.453H47.5988L45.922 135.334L47.7781 137.966H46.6061L45.2671 136.031ZM51.3319 133.453L51.3611 133.974C51.6948 133.571 52.1327 133.37 52.675 133.37C53.6149 133.37 54.0932 133.908 54.1098 134.984V137.966H53.0963V135.042C53.0963 134.756 53.0337 134.545 52.9086 134.408C52.7862 134.269 52.5846 134.2 52.3038 134.2C51.895 134.2 51.5905 134.385 51.3903 134.754V137.966H50.3767V133.453H51.3319ZM54.9566 135.668C54.9566 135.226 55.0442 134.828 55.2193 134.475C55.3945 134.119 55.6406 133.847 55.9576 133.657C56.2746 133.466 56.6389 133.37 57.0505 133.37C57.6594 133.37 58.153 133.566 58.5312 133.958C58.9121 134.35 59.1179 134.87 59.1485 135.518L59.1527 135.756C59.1527 136.2 59.0665 136.598 58.8941 136.948C58.7244 137.299 58.4797 137.57 58.16 137.762C57.843 137.954 57.4759 138.05 57.0588 138.05C56.422 138.05 55.9117 137.838 55.528 137.416C55.147 136.99 54.9566 136.424 54.9566 135.718V135.668ZM55.9701 135.756C55.9701 136.22 56.0661 136.584 56.2579 136.848C56.4498 137.11 56.7168 137.24 57.0588 137.24C57.4008 137.24 57.6664 137.107 57.8555 136.84C58.0473 136.573 58.1433 136.182 58.1433 135.668C58.1433 135.212 58.0446 134.85 57.8471 134.583C57.6525 134.316 57.3869 134.183 57.0505 134.183C56.7195 134.183 56.4568 134.315 56.2621 134.579C56.0675 134.841 55.9701 135.233 55.9701 135.756ZM61.2799 132.356V133.453H62.0766V134.204H61.2799V136.723C61.2799 136.896 61.3133 137.021 61.38 137.099C61.4495 137.174 61.5719 137.211 61.7471 137.211C61.8639 137.211 61.9821 137.197 62.1016 137.17V137.954C61.8708 138.018 61.6484 138.05 61.4343 138.05C60.6557 138.05 60.2664 137.62 60.2664 136.761V134.204H59.5239V133.453H60.2664V132.356H61.2799ZM63.9327 137.966H62.9192V133.453H63.9327V137.966ZM62.8566 132.281C62.8566 132.125 62.9053 131.996 63.0026 131.893C63.1027 131.79 63.2445 131.739 63.428 131.739C63.6116 131.739 63.7534 131.79 63.8535 131.893C63.9536 131.996 64.0036 132.125 64.0036 132.281C64.0036 132.434 63.9536 132.562 63.8535 132.665C63.7534 132.765 63.6116 132.815 63.428 132.815C63.2445 132.815 63.1027 132.765 63.0026 132.665C62.9053 132.562 62.8566 132.434 62.8566 132.281ZM65.3092 137.966V134.204H64.621V133.453H65.3092V133.144C65.312 132.791 65.387 132.488 65.5344 132.235C65.6818 131.982 65.8904 131.792 66.1601 131.664C66.4298 131.536 66.7538 131.472 67.132 131.472C67.3544 131.472 67.5671 131.495 67.7701 131.543C67.9759 131.59 68.1886 131.65 68.4083 131.722L68.254 132.56C67.8702 132.427 67.5199 132.36 67.2029 132.36C66.8942 132.36 66.6704 132.428 66.5313 132.565C66.3923 132.698 66.3228 132.9 66.3228 133.169V133.453H67.2112V134.204H66.3228V137.966H65.3092ZM68.888 137.966H67.8744V133.453H68.888V137.966ZM71.8661 137.24C72.1192 137.24 72.3291 137.167 72.496 137.019C72.6628 136.872 72.7518 136.69 72.7629 136.473H73.7181C73.707 136.754 73.6194 137.017 73.4553 137.261C73.2912 137.503 73.0688 137.695 72.7879 137.837C72.5071 137.979 72.204 138.05 71.8786 138.05C71.2474 138.05 70.7469 137.845 70.3771 137.436C70.0072 137.028 69.8223 136.463 69.8223 135.743V135.639C69.8223 134.952 70.0058 134.403 70.3729 133.991C70.7399 133.577 71.2405 133.37 71.8745 133.37C72.4111 133.37 72.8477 133.527 73.1842 133.841C73.5234 134.152 73.7014 134.563 73.7181 135.071H72.7629C72.7518 134.813 72.6628 134.6 72.496 134.433C72.3319 134.266 72.122 134.183 71.8661 134.183C71.538 134.183 71.285 134.303 71.107 134.542C70.929 134.778 70.8387 135.138 70.8359 135.622V135.785C70.8359 136.274 70.9235 136.64 71.0986 136.882C71.2766 137.121 71.5324 137.24 71.8661 137.24ZM77.1801 137.966C77.1356 137.88 77.0967 137.74 77.0633 137.545C76.7407 137.881 76.3459 138.05 75.8787 138.05C75.4254 138.05 75.0556 137.92 74.7692 137.662C74.4828 137.403 74.3396 137.083 74.3396 136.702C74.3396 136.221 74.5175 135.853 74.8735 135.597C75.2322 135.338 75.7438 135.209 76.4084 135.209H77.0299V134.913C77.0299 134.679 76.9646 134.493 76.8339 134.354C76.7032 134.212 76.5044 134.141 76.2374 134.141C76.0066 134.141 75.8175 134.2 75.6702 134.316C75.5228 134.431 75.4491 134.576 75.4491 134.754H74.4355C74.4355 134.507 74.5175 134.276 74.6816 134.062C74.8457 133.845 75.0681 133.676 75.349 133.553C75.6326 133.431 75.9482 133.37 76.2958 133.37C76.8242 133.37 77.2454 133.503 77.5597 133.77C77.8739 134.034 78.0352 134.407 78.0435 134.888V136.923C78.0435 137.329 78.1005 137.653 78.2145 137.895V137.966H77.1801ZM76.0664 137.236C76.2666 137.236 76.4543 137.188 76.6295 137.09C76.8075 136.993 76.9409 136.862 77.0299 136.698V135.847H76.4835C76.1081 135.847 75.8259 135.913 75.6368 136.043C75.4477 136.174 75.3531 136.359 75.3531 136.598C75.3531 136.793 75.4171 136.948 75.545 137.065C75.6757 137.179 75.8495 137.236 76.0664 137.236ZM80.3751 132.356V133.453H81.1718V134.204H80.3751V136.723C80.3751 136.896 80.4085 137.021 80.4752 137.099C80.5448 137.174 80.6671 137.211 80.8423 137.211C80.9591 137.211 81.0773 137.197 81.1968 137.17V137.954C80.966 138.018 80.7436 138.05 80.5295 138.05C79.7509 138.05 79.3616 137.62 79.3616 136.761V134.204H78.6191V133.453H79.3616V132.356H80.3751ZM83.0279 137.966H82.0144V133.453H83.0279V137.966ZM81.9518 132.281C81.9518 132.125 82.0005 131.996 82.0978 131.893C82.1979 131.79 82.3397 131.739 82.5232 131.739C82.7068 131.739 82.8486 131.79 82.9487 131.893C83.0488 131.996 83.0988 132.125 83.0988 132.281C83.0988 132.434 83.0488 132.562 82.9487 132.665C82.8486 132.765 82.7068 132.815 82.5232 132.815C82.3397 132.815 82.1979 132.765 82.0978 132.665C82.0005 132.562 81.9518 132.434 81.9518 132.281ZM83.9456 135.668C83.9456 135.226 84.0332 134.828 84.2084 134.475C84.3835 134.119 84.6296 133.847 84.9466 133.657C85.2636 133.466 85.6279 133.37 86.0395 133.37C86.6484 133.37 87.142 133.566 87.5202 133.958C87.9012 134.35 88.1069 134.87 88.1375 135.518L88.1417 135.756C88.1417 136.2 88.0555 136.598 87.8831 136.948C87.7135 137.299 87.4688 137.57 87.149 137.762C86.832 137.954 86.4649 138.05 86.0478 138.05C85.411 138.05 84.9008 137.838 84.517 137.416C84.1361 136.99 83.9456 136.424 83.9456 135.718V135.668ZM84.9592 135.756C84.9592 136.22 85.0551 136.584 85.247 136.848C85.4388 137.11 85.7058 137.24 86.0478 137.24C86.3898 137.24 86.6554 137.107 86.8445 136.84C87.0363 136.573 87.1323 136.182 87.1323 135.668C87.1323 135.212 87.0336 134.85 86.8361 134.583C86.6415 134.316 86.3759 134.183 86.0395 134.183C85.7086 134.183 85.4458 134.315 85.2511 134.579C85.0565 134.841 84.9592 135.233 84.9592 135.756ZM89.9394 133.453L89.9686 133.974C90.3023 133.571 90.7403 133.37 91.2825 133.37C92.2224 133.37 92.7007 133.908 92.7174 134.984V137.966H91.7038V135.042C91.7038 134.756 91.6412 134.545 91.5161 134.408C91.3937 134.269 91.1921 134.2 90.9113 134.2C90.5025 134.2 90.198 134.385 89.9978 134.754V137.966H88.9842V133.453H89.9394ZM96.2836 136.74C96.2836 136.559 96.2086 136.421 96.0584 136.327C95.911 136.232 95.6649 136.149 95.3201 136.077C94.9753 136.004 94.6875 135.913 94.4567 135.801C93.9506 135.557 93.6976 135.202 93.6976 134.738C93.6976 134.348 93.8616 134.023 94.1898 133.762C94.5179 133.5 94.935 133.37 95.4411 133.37C95.9805 133.37 96.4157 133.503 96.7466 133.77C97.0803 134.037 97.2472 134.383 97.2472 134.809H96.2336C96.2336 134.614 96.1613 134.453 96.0167 134.325C95.8721 134.194 95.6802 134.129 95.4411 134.129C95.2186 134.129 95.0365 134.18 94.8947 134.283C94.7556 134.386 94.6861 134.524 94.6861 134.696C94.6861 134.852 94.7515 134.973 94.8822 135.059C95.0128 135.145 95.277 135.233 95.6747 135.322C96.0723 135.408 96.3837 135.512 96.609 135.635C96.837 135.754 97.0052 135.899 97.1137 136.068C97.2249 136.238 97.2805 136.444 97.2805 136.686C97.2805 137.092 97.1123 137.421 96.7758 137.674C96.4394 137.924 95.9986 138.05 95.4536 138.05C95.0838 138.05 94.7542 137.983 94.465 137.849C94.1758 137.716 93.9506 137.532 93.7893 137.299C93.628 137.065 93.5474 136.814 93.5474 136.544H94.5318C94.5457 136.783 94.6361 136.968 94.8029 137.099C94.9697 137.227 95.1908 137.29 95.4661 137.29C95.7331 137.29 95.936 137.24 96.0751 137.14C96.2141 137.037 96.2836 136.904 96.2836 136.74Z" fill="black"/>
<path d="M137.888 137.966H137.113V132.823L135.557 133.395V132.694L137.767 131.864H137.888V137.966ZM142.685 137.966H141.909V132.823L140.353 133.395V132.694L142.564 131.864H142.685V137.966ZM149.017 138.05C148.405 138.05 147.907 137.849 147.524 137.449C147.14 137.046 146.948 136.508 146.948 135.835V135.693C146.948 135.245 147.033 134.846 147.202 134.496C147.375 134.143 147.614 133.867 147.92 133.67C148.228 133.47 148.562 133.37 148.921 133.37C149.508 133.37 149.964 133.563 150.289 133.949C150.614 134.336 150.777 134.889 150.777 135.609V135.931H147.72C147.731 136.376 147.86 136.736 148.108 137.011C148.358 137.283 148.675 137.42 149.059 137.42C149.331 137.42 149.562 137.364 149.751 137.253C149.94 137.142 150.105 136.994 150.247 136.811L150.719 137.178C150.34 137.759 149.773 138.05 149.017 138.05ZM148.921 134.004C148.609 134.004 148.348 134.118 148.137 134.346C147.925 134.571 147.795 134.888 147.745 135.297H150.005V135.238C149.983 134.846 149.877 134.543 149.688 134.329C149.499 134.112 149.243 134.004 148.921 134.004ZM153.104 136.919L154.222 133.453H155.011L153.392 137.966H152.804L151.169 133.453H151.957L153.104 136.919ZM157.568 138.05C156.956 138.05 156.458 137.849 156.074 137.449C155.691 137.046 155.499 136.508 155.499 135.835V135.693C155.499 135.245 155.583 134.846 155.753 134.496C155.926 134.143 156.165 133.867 156.471 133.67C156.779 133.47 157.113 133.37 157.472 133.37C158.058 133.37 158.514 133.563 158.84 133.949C159.165 134.336 159.328 134.889 159.328 135.609V135.931H156.27C156.281 136.376 156.411 136.736 156.658 137.011C156.909 137.283 157.226 137.42 157.609 137.42C157.882 137.42 158.113 137.364 158.302 137.253C158.491 137.142 158.656 136.994 158.798 136.811L159.269 137.178C158.891 137.759 158.324 138.05 157.568 138.05ZM157.472 134.004C157.16 134.004 156.899 134.118 156.687 134.346C156.476 134.571 156.345 134.888 156.295 135.297H158.556V135.238C158.534 134.846 158.428 134.543 158.239 134.329C158.05 134.112 157.794 134.004 157.472 134.004ZM160.954 133.453L160.979 134.02C161.324 133.586 161.775 133.37 162.331 133.37C163.285 133.37 163.766 133.908 163.774 134.984V137.966H163.002V134.98C163 134.654 162.925 134.414 162.777 134.258C162.633 134.102 162.406 134.024 162.097 134.024C161.847 134.024 161.627 134.091 161.438 134.225C161.249 134.358 161.102 134.533 160.996 134.75V137.966H160.225V133.453H160.954ZM165.985 132.36V133.453H166.827V134.049H165.985V136.848C165.985 137.029 166.022 137.165 166.097 137.257C166.172 137.346 166.3 137.391 166.481 137.391C166.57 137.391 166.692 137.374 166.848 137.34V137.966C166.645 138.022 166.448 138.05 166.256 138.05C165.911 138.05 165.651 137.945 165.476 137.737C165.301 137.528 165.213 137.232 165.213 136.848V134.049H164.391V133.453H165.213V132.36H165.985ZM167.703 135.501C167.703 134.873 167.787 134.269 167.954 133.691C168.123 133.112 168.375 132.587 168.708 132.114C169.042 131.641 169.388 131.308 169.747 131.113L169.906 131.622C169.5 131.933 169.166 132.409 168.905 133.048C168.646 133.688 168.504 134.404 168.479 135.197L168.475 135.551C168.475 136.624 168.671 137.556 169.063 138.346C169.299 138.818 169.58 139.188 169.906 139.455L169.747 139.927C169.377 139.721 169.024 139.376 168.688 138.892C168.031 137.947 167.703 136.816 167.703 135.501ZM173.28 136.769C173.28 136.56 173.201 136.399 173.042 136.285C172.887 136.168 172.613 136.068 172.221 135.985C171.831 135.901 171.521 135.801 171.29 135.685C171.062 135.568 170.893 135.429 170.782 135.267C170.673 135.106 170.619 134.914 170.619 134.692C170.619 134.322 170.775 134.009 171.086 133.753C171.4 133.498 171.801 133.37 172.287 133.37C172.799 133.37 173.213 133.502 173.53 133.766C173.85 134.03 174.01 134.368 174.01 134.779H173.234C173.234 134.568 173.144 134.386 172.963 134.233C172.785 134.08 172.56 134.004 172.287 134.004C172.006 134.004 171.787 134.065 171.628 134.187C171.47 134.309 171.39 134.469 171.39 134.667C171.39 134.853 171.464 134.994 171.612 135.088C171.759 135.183 172.024 135.273 172.408 135.359C172.795 135.445 173.108 135.548 173.347 135.668C173.586 135.787 173.762 135.932 173.876 136.102C173.993 136.268 174.052 136.473 174.052 136.715C174.052 137.118 173.89 137.442 173.568 137.687C173.245 137.929 172.827 138.05 172.312 138.05C171.951 138.05 171.631 137.986 171.353 137.858C171.075 137.73 170.857 137.552 170.698 137.324C170.542 137.093 170.465 136.844 170.465 136.577H171.236C171.25 136.836 171.353 137.042 171.545 137.194C171.739 137.345 171.995 137.42 172.312 137.42C172.604 137.42 172.838 137.361 173.013 137.245C173.191 137.125 173.28 136.966 173.28 136.769ZM176.838 135.543C176.838 136.163 176.756 136.758 176.592 137.328C176.431 137.895 176.182 138.419 175.845 138.9C175.512 139.382 175.161 139.724 174.794 139.927L174.631 139.455C175.06 139.127 175.403 138.618 175.662 137.929C175.923 137.236 176.057 136.469 176.062 135.626V135.493C176.062 134.909 176.001 134.366 175.879 133.866C175.756 133.363 175.585 132.912 175.366 132.515C175.149 132.117 174.904 131.807 174.631 131.584L174.794 131.113C175.161 131.316 175.51 131.655 175.841 132.131C176.175 132.606 176.424 133.13 176.588 133.703C176.755 134.276 176.838 134.889 176.838 135.543Z" fill="#1788FC"/>
<rect x="240.407" y="128.136" width="20.7458" height="13.4237" rx="6.71186" fill="#2DBE5A"/>
<circle cx="254.441" cy="134.847" r="5.49153" fill="white"/>
</g>
<rect x="0.305085" y="0.305085" width="287.39" height="152.39" rx="7.01695" stroke="#EDF3F8" stroke-width="0.610169"/>

</svg>
