<svg width="48" height="49" viewBox="0 0 48 49" fill="none" xmlns="http://www.w3.org/2000/svg">
<path d="M37.242 4.1836C35.8184 4.18261 34.4429 4.69909 33.3717 5.63684C32.3006 6.5746 31.6067 7.86971 31.4194 9.28099H36.3864C37.517 9.28236 38.6009 9.73173 39.4008 10.5307C40.2008 11.3296 40.6514 12.413 40.6542 13.5436V14.8375C41.6663 14.114 42.4225 13.0878 42.814 11.9069C43.2055 10.726 43.2119 9.45131 42.8325 8.26649C42.453 7.08167 41.7072 6.04791 40.7025 5.31415C39.6978 4.58039 38.4861 4.18453 37.242 4.1836Z" fill="#0080FF"/>
<path d="M39.0885 13.5434C39.0885 12.8267 38.8038 12.1392 38.2969 11.6324C37.7901 11.1256 37.1027 10.8408 36.3859 10.8408H8.06589C7.34954 10.8422 6.66292 11.1274 6.15638 11.6339C5.64984 12.1405 5.36466 12.8271 5.36328 13.5434V17.0443H39.0885V13.5434ZM9.13024 15.1086C8.91126 15.1097 8.69689 15.0457 8.51431 14.9248C8.33173 14.8039 8.18915 14.6315 8.10463 14.4295C8.02012 14.2275 7.99747 14.0049 8.03955 13.79C8.08164 13.5751 8.18657 13.3775 8.34105 13.2223C8.49553 13.0671 8.69261 12.9612 8.90731 12.9181C9.12201 12.875 9.34467 12.8966 9.54709 12.9802C9.7495 13.0637 9.92256 13.2055 10.0443 13.3875C10.1661 13.5695 10.2311 13.7836 10.2311 14.0026C10.2311 14.295 10.1153 14.5756 9.90899 14.7828C9.70268 14.9901 9.42269 15.1073 9.13024 15.1086ZM12.8868 15.1086C12.6678 15.1097 12.4534 15.0457 12.2708 14.9248C12.0883 14.8039 11.9457 14.6315 11.8612 14.4295C11.7766 14.2275 11.754 14.0049 11.7961 13.79C11.8382 13.5751 11.9431 13.3775 12.0976 13.2223C12.2521 13.0671 12.4491 12.9612 12.6638 12.9181C12.8785 12.875 13.1012 12.8966 13.3036 12.9802C13.506 13.0637 13.6791 13.2055 13.8009 13.3875C13.9226 13.5695 13.9876 13.7836 13.9876 14.0026C13.9876 14.295 13.8718 14.5756 13.6655 14.7828C13.4592 14.9901 13.1792 15.1073 12.8868 15.1086ZM16.6433 15.1086C16.4239 15.1107 16.2088 15.0475 16.0254 14.927C15.842 14.8065 15.6986 14.6341 15.6135 14.4319C15.5283 14.2297 15.5052 14.0067 15.5471 13.7913C15.5891 13.5759 15.6941 13.3779 15.8489 13.2223C16.0037 13.0668 16.2012 12.9608 16.4164 12.9179C16.6316 12.875 16.8547 12.897 17.0573 12.9812C17.2599 13.0654 17.4329 13.208 17.5543 13.3908C17.6757 13.5736 17.74 13.7884 17.7389 14.0078C17.7376 14.2984 17.6219 14.5769 17.4168 14.7829C17.2118 14.9889 16.9339 15.1059 16.6433 15.1086Z" fill="#EDF3FF"/>
<path d="M26.1446 34.6112C26.2425 34.7242 26.3635 34.8147 26.4994 34.8768C26.6353 34.939 26.783 34.9712 26.9324 34.9712C27.1836 34.9711 27.4263 34.8803 27.6159 34.7156L32.6507 30.3434C32.7617 30.2455 32.8506 30.1251 32.9116 29.9901C32.9725 29.8552 33.004 29.7089 33.004 29.5608C33.004 29.4128 32.9725 29.2664 32.9116 29.1315C32.8506 28.9966 32.7617 28.8761 32.6507 28.7782L27.6159 24.4008C27.4051 24.2485 27.1449 24.1804 26.8865 24.2099C26.6281 24.2393 26.3899 24.3643 26.2188 24.5602C26.0477 24.7561 25.956 25.0089 25.9615 25.269C25.9671 25.529 26.0696 25.7776 26.249 25.966L30.3759 29.5556L26.249 33.1399C26.0401 33.3213 25.9118 33.5781 25.8923 33.854C25.8727 34.1299 25.9635 34.4022 26.1446 34.6112Z" fill="#0082FF"/>
<path d="M16.1322 34.7155C16.3218 34.8802 16.5645 34.971 16.8157 34.9712C17.0282 34.971 17.2357 34.9059 17.4103 34.7847C17.5848 34.6634 17.7182 34.4917 17.7925 34.2925C17.8669 34.0934 17.8786 33.8763 17.8262 33.6703C17.7737 33.4643 17.6596 33.2792 17.4992 33.1399L13.3722 29.5555L17.4992 25.9659C17.6168 25.8809 17.7154 25.7723 17.7887 25.6471C17.862 25.5218 17.9083 25.3826 17.9248 25.2384C17.9412 25.0942 17.9274 24.9482 17.8842 24.8096C17.8411 24.6711 17.7694 24.5431 17.674 24.4337C17.5785 24.3244 17.4613 24.2362 17.3298 24.1748C17.1983 24.1133 17.0555 24.08 16.9104 24.0769C16.7653 24.0738 16.6211 24.101 16.4871 24.1567C16.3532 24.2125 16.2323 24.2956 16.1322 24.4007L11.0974 28.7781C10.9864 28.876 10.8975 28.9965 10.8366 29.1314C10.7756 29.2663 10.7441 29.4127 10.7441 29.5607C10.7441 29.7088 10.7756 29.8551 10.8366 29.99C10.8975 30.125 10.9864 30.2454 11.0974 30.3433L16.1322 34.7155Z" fill="#0082FF"/>
<path d="M20.207 38.1228C20.2781 38.1305 20.3498 38.1305 20.4209 38.1228C20.6643 38.1279 20.9019 38.0478 21.0924 37.8963C21.283 37.7448 21.4146 37.5315 21.4644 37.2932L24.5949 22.2984C24.6504 22.0279 24.5965 21.7465 24.4449 21.5157C24.2933 21.2849 24.0564 21.1236 23.7862 21.0671C23.6511 21.0398 23.512 21.0395 23.3769 21.0662C23.2418 21.0929 23.1133 21.1461 22.9988 21.2228C22.8843 21.2994 22.7862 21.398 22.71 21.5127C22.6338 21.6275 22.5811 21.7562 22.5549 21.8914L19.4244 36.8862C19.3666 37.1538 19.4162 37.4334 19.5626 37.6647C19.709 37.896 19.9405 38.0605 20.207 38.1228Z" fill="#0082FF"/>
<path d="M36.3862 9.28076H8.06617C6.93559 9.28214 5.85165 9.73151 5.05172 10.5305C4.2518 11.3294 3.8011 12.4128 3.79834 13.5434V39.2129C3.79972 40.3444 4.24981 41.4291 5.04988 42.2292C5.84996 43.0293 6.93469 43.4794 8.06617 43.4808H36.3862C37.5176 43.4794 38.6024 43.0293 39.4025 42.2292C40.2025 41.4291 40.6526 40.3444 40.654 39.2129V13.5434C40.6512 12.4128 40.2005 11.3294 39.4006 10.5305C38.6007 9.73151 37.5167 9.28214 36.3862 9.28076ZM5.36356 13.5434C5.36494 12.827 5.65012 12.1404 6.15666 11.6339C6.66319 11.1273 7.34981 10.8421 8.06617 10.8408H36.3862C36.7411 10.8408 37.0925 10.9107 37.4204 11.0465C37.7483 11.1823 38.0462 11.3814 38.2972 11.6323C38.5482 11.8833 38.7472 12.1812 38.8831 12.5091C39.0189 12.837 39.0888 13.1885 39.0888 13.5434V17.0442H5.36356V13.5434ZM39.0888 39.2129C39.0888 39.9297 38.804 40.6171 38.2972 41.124C37.7904 41.6308 37.1029 41.9155 36.3862 41.9155H8.06617C7.34981 41.9142 6.66319 41.629 6.15666 41.1224C5.65012 40.6159 5.36494 39.9293 5.36356 39.2129V18.6147H39.0888V39.2129Z" fill="black"/>
<path d="M9.13035 12.9019C8.91136 12.9008 8.697 12.9648 8.51442 13.0857C8.33184 13.2066 8.18926 13.379 8.10474 13.581C8.02023 13.7831 7.99758 14.0056 8.03966 14.2205C8.08175 14.4354 8.18668 14.633 8.34116 14.7882C8.49564 14.9434 8.69272 15.0493 8.90742 15.0924C9.12212 15.1355 9.34478 15.1139 9.5472 15.0303C9.74961 14.9468 9.92267 14.805 10.0444 14.623C10.1662 14.441 10.2312 14.2269 10.2312 14.008C10.2312 13.7155 10.1154 13.435 9.9091 13.2277C9.70279 13.0204 9.42279 12.9032 9.13035 12.9019Z" fill="#0080FF"/>
<path d="M12.8868 15.114C13.4977 15.114 13.9929 14.6188 13.9929 14.0079C13.9929 13.3971 13.4977 12.9019 12.8868 12.9019C12.276 12.9019 11.7808 13.3971 11.7808 14.0079C11.7808 14.6188 12.276 15.114 12.8868 15.114Z" fill="#0080FF"/>
<path d="M16.6437 15.114C17.2546 15.114 17.7498 14.6188 17.7498 14.0079C17.7498 13.3971 17.2546 12.9019 16.6437 12.9019C16.0328 12.9019 15.5376 13.3971 15.5376 14.0079C15.5376 14.6188 16.0328 15.114 16.6437 15.114Z" fill="#0080FF"/>
</svg>
