<svg width="48" height="48" viewBox="0 0 48 48" fill="none" xmlns="http://www.w3.org/2000/svg">
<path d="M15.2191 35.0139H10.9565V26.9895C9.44997 27.4322 8.07998 28.249 6.9742 29.3638C5.86842 30.4787 5.06284 31.8553 4.63251 33.3654C4.20219 34.8756 4.16113 36.47 4.51315 38.0003C4.86517 39.5306 5.59883 40.9469 6.64576 42.1172C7.69269 43.2875 9.01882 44.1737 10.5006 44.6933C11.9824 45.2129 13.5716 45.349 15.1201 45.0889C16.6687 44.8287 18.1262 44.1809 19.3568 43.2056C20.5875 42.2303 21.5512 40.9594 22.1583 39.5112H15.2191V35.0139Z" fill="#EDF3FF"/>
<path d="M41.7807 3.68335C41.7285 3.77726 41.6868 3.84509 41.6503 3.91813C41.4637 4.33731 41.2177 4.72741 40.9199 5.07639C40.6389 5.41484 40.3082 5.70863 39.939 5.9477C39.6729 6.11987 39.4172 6.26074 39.1146 6.41205C39.0677 6.43813 39.0103 6.43813 38.9686 6.46422C38.9332 6.48511 38.907 6.51868 38.8955 6.55813C38.8955 6.55813 38.9372 6.62596 38.9686 6.63639C39.7736 6.95581 40.4782 7.48556 41.0085 8.17031C41.2864 8.52176 41.5179 8.90754 41.6972 9.31813C41.6972 9.35465 41.7338 9.38596 41.7651 9.44335C41.8145 9.36312 41.8581 9.27943 41.8955 9.19292C42.0854 8.766 42.3387 8.37023 42.6468 8.019C42.921 7.69799 43.2389 7.41699 43.5912 7.18422C43.8625 7.01205 44.1546 6.86596 44.4364 6.70944C44.4833 6.70944 44.5407 6.67813 44.5929 6.65205C44.6109 6.64745 44.6268 6.637 44.6381 6.62236C44.6495 6.60772 44.6557 6.58971 44.6557 6.57118C44.6557 6.55264 44.6495 6.53463 44.6381 6.51999C44.6268 6.50535 44.6109 6.4949 44.5929 6.49031C44.0862 6.29851 43.618 6.01756 43.2103 5.66074C42.8178 5.33589 42.4842 4.94583 42.2242 4.5077C42.0885 4.27292 41.9685 4.0277 41.8433 3.7877L41.7807 3.68335Z" fill="#0084FF"/>
<path d="M38.2333 11.6085H34.7272V7.90419C34.7272 7.69663 34.6448 7.49757 34.498 7.3508C34.3512 7.20404 34.1522 7.12158 33.9446 7.12158H18.0942H18.0472C17.9887 7.12442 17.9308 7.13495 17.875 7.15289H17.7968C17.7204 7.18434 17.6498 7.22843 17.5881 7.28332L17.5568 7.31463L10.435 13.6277C10.3516 13.7005 10.2847 13.7903 10.2388 13.8911C10.193 13.9919 10.1691 14.1013 10.1689 14.212V35.0138C10.1689 35.2213 10.2514 35.4204 10.3982 35.5671C10.5449 35.7139 10.744 35.7964 10.9516 35.7964H14.4576V39.5007C14.4576 39.7083 14.5401 39.9073 14.6869 40.0541C14.8336 40.2009 15.0327 40.2833 15.2402 40.2833H38.2333C38.4409 40.2833 38.6399 40.2009 38.7867 40.0541C38.9334 39.9073 39.0159 39.7083 39.0159 39.5007V12.3703C39.0105 12.1664 38.9256 11.9726 38.7794 11.8303C38.6332 11.688 38.4373 11.6085 38.2333 11.6085ZM17.3116 9.65202V13.0955C17.2996 13.2132 17.2423 13.3216 17.1516 13.3976C17.061 13.4736 16.9443 13.5112 16.8263 13.5025H12.9863L17.3116 9.65202ZM11.7133 34.2311V15.0677H16.8263C17.3596 15.0775 17.875 14.8753 18.2594 14.5056C18.6438 14.1358 18.8658 13.6287 18.8768 13.0955V8.6868H33.162V34.252L11.7133 34.2311ZM37.4507 38.7181H16.002V35.7964H33.9446C34.1522 35.7964 34.3512 35.7139 34.498 35.5671C34.6448 35.4204 34.7272 35.2213 34.7272 35.0138V13.1738H37.4507V38.7181Z" fill="#181818"/>
<path d="M28.2678 21.0782H16.607C16.3302 21.0782 16.0648 20.9682 15.8691 20.7725C15.6734 20.5768 15.5635 20.3114 15.5635 20.0347C15.5635 19.7579 15.6734 19.4925 15.8691 19.2968C16.0648 19.1011 16.3302 18.9912 16.607 18.9912H28.2678C28.5446 18.9912 28.81 19.1011 29.0057 19.2968C29.2014 19.4925 29.3113 19.7579 29.3113 20.0347C29.3113 20.3114 29.2014 20.5768 29.0057 20.7725C28.81 20.9682 28.5446 21.0782 28.2678 21.0782Z" fill="#0084FF"/>
<path d="M28.2678 25.4556H16.607C16.3302 25.4556 16.0648 25.3457 15.8691 25.15C15.6734 24.9543 15.5635 24.6889 15.5635 24.4121C15.5635 24.1354 15.6734 23.87 15.8691 23.6743C16.0648 23.4786 16.3302 23.3687 16.607 23.3687H28.2678C28.5446 23.3687 28.81 23.4786 29.0057 23.6743C29.2014 23.87 29.3113 24.1354 29.3113 24.4121C29.3113 24.6889 29.2014 24.9543 29.0057 25.15C28.81 25.3457 28.5446 25.4556 28.2678 25.4556Z" fill="#0084FF"/>
<path d="M28.2678 29.8277H24C23.7233 29.8277 23.4579 29.7177 23.2622 29.5221C23.0665 29.3264 22.9565 29.0609 22.9565 28.7842C22.9565 28.5075 23.0665 28.242 23.2622 28.0464C23.4579 27.8507 23.7233 27.7407 24 27.7407H28.2574C28.5342 27.7407 28.7996 27.8507 28.9953 28.0464C29.191 28.242 29.3009 28.5075 29.3009 28.7842C29.3009 29.0609 29.191 29.3264 28.9953 29.5221C28.7996 29.7177 28.5342 29.8277 28.2574 29.8277H28.2678Z" fill="#0084FF"/>
</svg>
