<svg width="48" height="49" viewBox="0 0 48 49" fill="none" xmlns="http://www.w3.org/2000/svg">
<path d="M15.7827 29.9888C15.9705 29.9888 16.1531 30.0201 16.3462 30.0201C17.3523 30.0207 18.3463 29.8011 19.2585 29.3765C20.1707 28.952 20.9788 28.3329 21.6262 27.5627L20.1705 26.1123L15.7827 29.9888Z" fill="#EDF3FF"/>
<path d="M9.42779 23.1017C9.42271 24.4115 9.7904 25.6957 10.4879 26.8044C11.1854 27.913 12.184 28.8003 13.3669 29.3626L19.5234 23.9209C19.7229 23.7451 19.9819 23.6522 20.2475 23.6609C20.5132 23.6696 20.7655 23.7794 20.953 23.9678L22.7426 25.7574C23.082 24.9293 23.2591 24.0437 23.2643 23.1487C23.2148 21.3474 22.4645 19.6366 21.173 18.38C19.8814 17.1235 18.1506 16.4204 16.3487 16.4204C14.5467 16.4204 12.8159 17.1235 11.5243 18.38C10.2328 19.6366 9.48248 21.3474 9.433 23.1487L9.42779 23.1017Z" fill="#EDF3FF"/>
<path d="M44.0033 34.4652C43.4964 34.2715 43.0282 33.9888 42.6207 33.6304C42.2285 33.3053 41.8949 32.9153 41.6346 32.4773C41.499 32.2426 41.379 31.9973 41.2538 31.7573L41.2172 31.6582C41.1707 31.7338 41.1288 31.8122 41.092 31.893C40.9036 32.3107 40.6558 32.6991 40.3564 33.046C40.0756 33.3861 39.7449 33.6816 39.3755 33.9225C39.1094 34.0895 38.8538 34.2356 38.5512 34.3869C38.5094 34.3869 38.452 34.3869 38.4051 34.4391C38.37 34.4579 38.3438 34.4897 38.332 34.5278C38.332 34.5278 38.3738 34.6008 38.4051 34.6112C39.2098 34.9288 39.9144 35.4567 40.4451 36.1399C40.7229 36.4933 40.9543 36.8808 41.1338 37.293C41.1338 37.3295 41.1703 37.3556 41.2016 37.413C41.252 37.3351 41.2956 37.2531 41.332 37.1678C41.5124 36.7358 41.7588 36.3345 42.0625 35.9782C42.3308 35.6534 42.6475 35.3718 43.0016 35.1434C43.2729 34.9712 43.5651 34.8199 43.8468 34.6634C43.8938 34.6373 43.9512 34.6373 44.0033 34.6112C44.0195 34.6018 44.0335 34.589 44.0443 34.5737C44.0551 34.5584 44.0625 34.541 44.0659 34.5226C44.0599 34.5093 44.0512 34.4974 44.0404 34.4875C44.0297 34.4777 44.0171 34.4701 44.0033 34.4652Z" fill="#0080FF"/>
<path d="M41.1863 41.9155H9.68893C8.74198 41.9155 7.83373 41.5397 7.16364 40.8706C6.49355 40.2015 6.1164 39.2938 6.11502 38.3468V10.0634C6.11502 9.85581 6.03257 9.65675 5.8858 9.50998C5.73903 9.36322 5.53997 9.28076 5.33241 9.28076C5.12485 9.28076 4.92579 9.36322 4.77903 9.50998C4.63226 9.65675 4.5498 9.85581 4.5498 10.0634V38.3468C4.55119 39.7089 5.09324 41.0147 6.05686 41.9774C7.02049 42.94 8.32686 43.4808 9.68893 43.4808H41.1863C41.3939 43.4808 41.5929 43.3983 41.7397 43.2515C41.8865 43.1048 41.9689 42.9057 41.9689 42.6982C41.9689 42.4906 41.8865 42.2915 41.7397 42.1448C41.5929 41.998 41.3939 41.9155 41.1863 41.9155Z" fill="black"/>
<path d="M14.1755 8.88964L14.9634 9.19225C15.1929 9.28616 15.4225 9.36964 15.6521 9.45312C15.714 9.48056 15.7685 9.52229 15.8111 9.5749C15.8537 9.62751 15.8833 9.68948 15.8973 9.75573L16.0538 10.2096C16.2312 10.7314 16.4086 11.2218 16.5755 11.7331C16.6006 11.7783 16.6285 11.8219 16.659 11.8636C16.7112 11.8166 16.7477 11.7853 16.7529 11.7592C16.8051 11.6183 16.8521 11.4723 16.899 11.3366C16.9877 11.0862 17.0816 10.8462 17.1703 10.5957C17.259 10.3453 17.3738 10.074 17.4521 9.8079C17.4707 9.71526 17.5163 9.6302 17.5832 9.56337C17.65 9.49654 17.7351 9.45093 17.8277 9.43225L17.9112 9.40616C18.5164 9.18182 19.1216 8.96269 19.7321 8.72269C19.753 8.71577 19.7718 8.70345 19.7864 8.68696C19.8011 8.67047 19.8111 8.65039 19.8155 8.62877C19.8155 8.59747 19.7686 8.55573 19.7321 8.53486C19.6955 8.51399 19.6016 8.49834 19.539 8.47225C19.2834 8.37834 19.0173 8.27399 18.7929 8.18008C18.4451 8.04442 18.0973 7.91399 17.7494 7.78877C17.687 7.76492 17.6311 7.72641 17.5866 7.67647C17.5421 7.62653 17.5103 7.56663 17.4938 7.50182L17.3373 7.03225L16.8155 5.51399C16.8155 5.47225 16.7581 5.42529 16.7268 5.42529C16.6955 5.42529 16.6486 5.46703 16.6277 5.50877C16.6068 5.55051 16.586 5.64964 16.5599 5.72268L16.1477 6.83921L15.8973 7.53312C15.8816 7.59489 15.851 7.6519 15.8083 7.69918C15.7656 7.74646 15.7119 7.78259 15.6521 7.80442L15.2399 7.95051L14.499 8.22703C14.2329 8.32616 13.9773 8.42008 13.6955 8.52442C13.6486 8.52442 13.6121 8.59225 13.5703 8.62877C13.6054 8.67223 13.6478 8.7093 13.6955 8.73834C13.8521 8.78008 14.0138 8.8479 14.1755 8.88964Z" fill="#0080FF"/>
<path d="M37.9093 13.6113H29.4572C29.1804 13.6113 28.915 13.7213 28.7193 13.917C28.5236 14.1126 28.4137 14.3781 28.4137 14.6548C28.4137 14.9316 28.5236 15.197 28.7193 15.3927C28.915 15.5883 29.1804 15.6983 29.4572 15.6983H35.2328L24.2293 27.2183L22.7424 25.7313L20.9528 23.9418C20.7653 23.7533 20.513 23.6435 20.2473 23.6348C19.9817 23.6261 19.7227 23.7191 19.5233 23.8948L13.3667 29.3365L10.372 31.987C10.1644 32.1703 10.0382 32.4286 10.021 32.705C10.0039 32.9814 10.0973 33.2533 10.2806 33.4609C10.464 33.6685 10.7223 33.7947 10.9987 33.8118C11.2751 33.8289 11.547 33.7355 11.7546 33.5522L15.7824 29.9887L20.1702 26.1122L21.6259 27.5626L23.5093 29.4513C23.7113 29.6454 23.9805 29.7538 24.2606 29.7539C24.3994 29.752 24.5365 29.7224 24.6637 29.6669C24.7909 29.6113 24.9057 29.5309 25.0015 29.4305L36.8659 17.0079V23.1018C36.8659 23.3785 36.9758 23.6439 37.1715 23.8396C37.3672 24.0353 37.6326 24.1452 37.9093 24.1452C38.1861 24.1452 38.4515 24.0353 38.6472 23.8396C38.8429 23.6439 38.9528 23.3785 38.9528 23.1018V14.6548C38.9528 14.3781 38.8429 14.1126 38.6472 13.917C38.4515 13.7213 38.1861 13.6113 37.9093 13.6113Z" fill="#0082FF"/>
</svg>
