<svg width="48" height="49" viewBox="0 0 48 49" fill="none" xmlns="http://www.w3.org/2000/svg">
<path d="M42.9861 41.8894C42.9287 41.8581 42.8557 41.8477 42.7931 41.8216L42.047 41.5294L41.0035 41.1381C40.9395 41.1168 40.8823 41.0791 40.8374 41.0287C40.7926 40.9784 40.7617 40.9172 40.7479 40.8512L40.5913 40.3868C40.4087 39.8651 40.2313 39.3434 40.0696 38.8634C40.0696 38.8216 40.0122 38.7747 39.9757 38.7747C39.9392 38.7747 39.9026 38.8164 39.8818 38.8581C39.8521 38.927 39.8294 38.9987 39.8139 39.072C39.6731 39.4425 39.5374 39.8181 39.4018 40.1938C39.3183 40.4181 39.2348 40.6529 39.1513 40.8877C39.1326 40.9435 39.1012 40.9943 39.0595 41.0359C39.0179 41.0776 38.9672 41.109 38.9113 41.1277L38.4992 41.2738L37.7635 41.5503L36.96 41.8529C36.9079 41.8529 36.8765 41.9207 36.8296 41.952C36.8765 41.9938 36.9079 42.046 36.96 42.0616C37.1165 42.1294 37.2783 42.1816 37.4348 42.239L38.2226 42.5468L38.9165 42.8077C38.9788 42.8331 39.0338 42.8736 39.0766 42.9255C39.1194 42.9774 39.1487 43.0391 39.1618 43.1051C39.2087 43.2564 39.2609 43.4129 39.3183 43.5642C39.4957 44.086 39.6731 44.5764 39.84 45.0825C39.8629 45.1306 39.8908 45.1761 39.9235 45.2181C39.9705 45.166 40.0122 45.1399 40.0174 45.1086C40.0696 44.9677 40.1165 44.8268 40.1635 44.686L40.4348 43.9503C40.5235 43.6842 40.6383 43.4286 40.7165 43.1625C40.7349 43.0692 40.7804 42.9833 40.8471 42.9156C40.9139 42.8479 40.9991 42.8013 41.0922 42.7816C41.1198 42.7864 41.1481 42.7864 41.1757 42.7816C41.7809 42.552 42.3861 42.3329 42.9965 42.0981C43.0166 42.0897 43.0345 42.0769 43.0489 42.0606C43.0633 42.0444 43.074 42.0251 43.08 42.0042C43.0748 41.9468 43.0279 41.9051 42.9861 41.8894Z" fill="#0080FF"/>
<path d="M15.4276 12.8025C16.2211 12.8017 16.9983 13.027 17.6682 13.4521C18.3381 13.8772 18.8731 14.4844 19.2103 15.2025C19.651 14.0139 19.7206 12.7195 19.4097 11.4905C19.0988 10.2615 18.4222 9.15586 17.4694 8.31975C16.5165 7.48363 15.3323 6.95647 14.0733 6.80799C12.8143 6.65951 11.5399 6.89671 10.4187 7.48821C9.29744 8.07971 8.38217 8.99765 7.79394 10.1206C7.2057 11.2436 6.97222 12.5186 7.12436 13.7772C7.27651 15.0357 7.80711 16.2184 8.646 17.1688C9.48489 18.1193 10.5925 18.7927 11.8224 19.0999C11.4491 18.4674 11.2493 17.7475 11.2433 17.013C11.2385 16.4609 11.3432 15.9134 11.5515 15.4021C11.7597 14.8907 12.0673 14.4258 12.4565 14.0342C12.8457 13.6426 13.3087 13.3321 13.8187 13.1207C14.3287 12.9093 14.8756 12.8011 15.4276 12.8025Z" fill="#EDF3FF"/>
<path d="M28.9411 34.6531H20.0142V36.2183H28.9411C28.8438 35.7011 28.8438 35.1703 28.9411 34.6531Z" fill="black"/>
<path d="M32.666 30.9228C33.1838 30.8323 33.7134 30.8323 34.2312 30.9228V21.6045H32.666V30.9228Z" fill="black"/>
<path d="M19.4346 18.1975H29.2641V16.6323H19.5963C19.5963 16.7523 19.5963 16.8671 19.5963 16.9923C19.6039 17.3999 19.5494 17.8063 19.4346 18.1975Z" fill="black"/>
<path d="M16.2102 21.0984C15.9527 21.1513 15.6905 21.1775 15.4276 21.1767C15.1648 21.177 14.9026 21.1508 14.645 21.0984V30.8497H16.2102V21.0984Z" fill="black"/>
<path d="M29.2642 18.8392C29.2642 19.5716 29.5548 20.2742 30.0722 20.7926C30.5897 21.3111 31.2917 21.603 32.0242 21.6044H34.8729C35.6058 21.603 36.3084 21.3112 36.8266 20.7929C37.3449 20.2747 37.6367 19.5721 37.6381 18.8392V15.9905C37.6367 15.258 37.3448 14.556 36.8263 14.0385C36.3079 13.5211 35.6053 13.2305 34.8729 13.2305H32.0242C31.2922 13.2305 30.5901 13.5213 30.0725 14.0389C29.5549 14.5565 29.2642 15.2585 29.2642 15.9905V18.8392ZM32.0242 15.3174H34.8729C35.0518 15.3174 35.2236 15.3882 35.3506 15.5142C35.4777 15.6403 35.5497 15.8115 35.5511 15.9905V18.8392C35.5511 19.0191 35.4797 19.1916 35.3525 19.3188C35.2253 19.446 35.0527 19.5174 34.8729 19.5174H32.0242C31.8452 19.5161 31.674 19.444 31.5479 19.3169C31.4219 19.1899 31.3511 19.0182 31.3511 18.8392V15.9905C31.3511 15.9021 31.3685 15.8146 31.4023 15.7329C31.4362 15.6512 31.4857 15.5771 31.5482 15.5146C31.6107 15.4521 31.6849 15.4025 31.7666 15.3687C31.8483 15.3348 31.9358 15.3174 32.0242 15.3174Z" fill="#0082FF"/>
<path d="M16.2105 21.0983C16.9622 20.9566 17.6604 20.6111 18.2291 20.0995C18.7977 19.5879 19.2148 18.9299 19.4349 18.1974C19.5568 17.8073 19.6184 17.4009 19.6175 16.9922C19.6175 16.8669 19.6175 16.7522 19.6175 16.6322C19.5761 16.1362 19.4453 15.6519 19.2314 15.2026C18.8324 14.3335 18.1471 13.6277 17.2901 13.2034C16.4331 12.7791 15.4564 12.6619 14.5233 12.8715C13.5903 13.0811 12.7575 13.6047 12.1642 14.3548C11.571 15.1049 11.2534 16.0359 11.2644 16.9922C11.2694 17.9643 11.6111 18.9047 12.2313 19.6533C12.8515 20.4019 13.7119 20.9125 14.6662 21.0983C14.9237 21.1506 15.1859 21.1769 15.4488 21.1765C15.7047 21.1759 15.9599 21.1497 16.2105 21.0983ZM13.3305 16.9922C13.3305 16.5794 13.4529 16.1759 13.6822 15.8327C13.9116 15.4895 14.2375 15.222 14.6188 15.0641C15.0002 14.9061 15.4198 14.8648 15.8246 14.9453C16.2295 15.0258 16.6013 15.2246 16.8932 15.5165C17.1851 15.8083 17.3838 16.1802 17.4643 16.585C17.5449 16.9899 17.5035 17.4095 17.3456 17.7908C17.1876 18.1722 16.9201 18.4981 16.5769 18.7274C16.2337 18.9567 15.8302 19.0791 15.4175 19.0791C14.864 19.0791 14.3332 18.8592 13.9418 18.4679C13.5504 18.0765 13.3305 17.5457 13.3305 16.9922Z" fill="#0082FF"/>
<path d="M34.2311 30.9226C33.7133 30.8321 33.1837 30.8321 32.6659 30.9226C31.7373 31.0871 30.8817 31.5333 30.2153 32.2006C29.5489 32.868 29.1039 33.7241 28.9407 34.653C28.8433 35.1702 28.8433 35.701 28.9407 36.2182C29.0849 37.0436 29.4529 37.8135 30.0047 38.444C30.5565 39.0745 31.2708 39.5415 32.0698 39.7938C32.8687 40.0462 33.7217 40.0744 34.5355 39.8752C35.3494 39.6761 36.093 39.2573 36.6851 38.6646C37.2773 38.0718 37.6953 37.3279 37.8937 36.5138C38.092 35.6997 38.063 34.8468 37.8098 34.0481C37.5567 33.2494 37.0891 32.5356 36.458 31.9844C35.8269 31.4332 35.0566 31.0659 34.2311 30.9226ZM33.4485 37.9295C32.9544 37.9295 32.4714 37.7827 32.0608 37.5077C31.6503 37.2327 31.3306 36.842 31.1425 36.3851C30.9544 35.9282 30.9062 35.4257 31.0041 34.9413C31.1021 34.457 31.3417 34.0127 31.6926 33.6647C32.0434 33.3168 32.4897 33.0809 32.9749 32.9871C33.46 32.8932 33.9621 32.9456 34.4174 33.1376C34.8728 33.3295 35.2608 33.6524 35.5323 34.0653C35.8038 34.4781 35.9466 34.9623 35.9424 35.4565C35.9369 36.1143 35.6717 36.7433 35.2046 37.2065C34.7375 37.6696 34.1063 37.9295 33.4485 37.9295Z" fill="#0082FF"/>
<path d="M20.0137 33.6148C20.0123 32.8819 19.7205 32.1793 19.2022 31.661C18.6839 31.1428 17.9814 30.851 17.2484 30.8496H13.5963C12.8633 30.851 12.1608 31.1428 11.6425 31.661C11.1242 32.1793 10.8324 32.8819 10.8311 33.6148V37.267C10.8324 37.9995 11.1244 38.7015 11.6428 39.2189C12.1612 39.7364 12.8638 40.027 13.5963 40.027H17.2484C17.9809 40.027 18.6835 39.7364 19.2019 39.2189C19.7203 38.7015 20.0123 37.9995 20.0137 37.267V33.6148ZM17.2484 37.9296H13.5963C13.4173 37.9296 13.2456 37.8589 13.1185 37.7328C12.9915 37.6067 12.9194 37.4355 12.918 37.2566V33.6044C12.918 33.4245 12.9895 33.252 13.1167 33.1248C13.2439 32.9976 13.4164 32.9261 13.5963 32.9261H17.2484C17.4283 32.9261 17.6008 32.9976 17.728 33.1248C17.8552 33.252 17.9267 33.4245 17.9267 33.6044V37.2566C17.9253 37.4355 17.8533 37.6067 17.7262 37.7328C17.5992 37.8589 17.4274 37.9296 17.2484 37.9296Z" fill="#0082FF"/>
</svg>
