<svg width="48" height="48" viewBox="0 0 48 48" fill="none" xmlns="http://www.w3.org/2000/svg">
<path d="M32.8855 21.4434C37.833 21.4434 41.8438 17.4326 41.8438 12.4851C41.8438 7.53761 37.833 3.52686 32.8855 3.52686C27.938 3.52686 23.9272 7.53761 23.9272 12.4851C23.9272 17.4326 27.938 21.4434 32.8855 21.4434Z" fill="#EDF3FF"/>
<path d="M38.5254 39.052C38.4788 39.1276 38.4369 39.206 38.4001 39.2868C38.2105 39.7039 37.9628 40.0921 37.6645 40.4398C37.3823 40.7786 37.0518 41.0739 36.6836 41.3164C36.4175 41.4833 36.1619 41.6294 35.8593 41.7807C35.8175 41.7807 35.7601 41.7807 35.7132 41.8329C35.6781 41.8517 35.6519 41.8835 35.6401 41.9216C35.6401 41.9477 35.6819 41.9946 35.7132 41.9998C36.5173 42.321 37.2214 42.8505 37.7532 43.5337C38.031 43.8871 38.2624 44.2746 38.4419 44.6868L38.5097 44.8068C38.5601 44.7289 38.6037 44.6469 38.6401 44.5616C38.8299 44.1334 39.0852 43.7374 39.3967 43.3877C39.665 43.0628 39.9817 42.7812 40.3358 42.5529C40.6071 42.3755 40.8993 42.2294 41.181 42.0729C41.2321 42.0524 41.2844 42.0349 41.3375 42.0207C41.3537 42.0113 41.3677 41.9985 41.3785 41.9832C41.3893 41.9679 41.3967 41.9504 41.4001 41.932C41.3959 41.9159 41.3881 41.9009 41.3773 41.8882C41.3664 41.8756 41.3528 41.8656 41.3375 41.859C40.3547 41.4685 39.524 40.7713 38.9688 39.8711C38.8332 39.652 38.7132 39.3911 38.6088 39.1303L38.5254 39.052Z" fill="#0084FF"/>
<path d="M8.08708 12.4904C8.05199 12.449 8.02219 12.4034 7.99838 12.3547C7.81577 11.833 7.63838 11.3425 7.47664 10.8364C7.42447 10.6851 7.37229 10.5338 7.32534 10.3773C7.31138 10.3117 7.2818 10.2504 7.23911 10.1986C7.19643 10.1468 7.14189 10.1061 7.08012 10.0799L6.38621 9.81905L5.59838 9.51122L5.11838 9.33905C5.07184 9.30841 5.02971 9.27155 4.99316 9.22949C5.04012 9.19296 5.07143 9.14079 5.11838 9.12514L5.92708 8.82253L6.66273 8.55122L7.0749 8.39992C7.13036 8.3805 7.18073 8.34884 7.22228 8.30729C7.26383 8.26575 7.29549 8.21538 7.3149 8.15992L7.56534 7.46601L7.97229 6.34427C7.99276 6.27169 8.01714 6.20029 8.04534 6.13035C8.04534 6.09383 8.10795 6.04688 8.13925 6.04688C8.17056 6.04688 8.21751 6.09905 8.23316 6.13557C8.41577 6.65731 8.59316 7.17905 8.7549 7.65905L8.91143 8.1234C8.92588 8.18973 8.95691 8.25132 9.00161 8.30242C9.04632 8.35351 9.10325 8.39244 9.16708 8.41557C9.51664 8.54079 9.86099 8.67122 10.2106 8.80688L10.9566 9.09383C11.0193 9.11992 11.0923 9.13035 11.1497 9.16166C11.2071 9.19296 11.2384 9.21905 11.2384 9.25557C11.2384 9.29209 11.1862 9.33905 11.1549 9.34948C10.5445 9.58427 9.93403 9.80861 9.32882 10.033L9.24534 10.0591C9.15211 10.0764 9.06633 10.1216 8.99928 10.1886C8.93223 10.2557 8.88705 10.3415 8.86969 10.4347C8.79142 10.7008 8.67664 10.9564 8.58273 11.2225L8.34795 11.9582C8.29577 12.0991 8.25403 12.2451 8.20186 12.3808C8.17577 12.4121 8.13403 12.4434 8.08708 12.4904Z" fill="#0084FF"/>
<path d="M38.7289 25.3197L34.5915 27.3232C34.2644 27.48 34.0064 27.7518 33.8669 28.0867C33.7273 28.4216 33.716 28.7961 33.835 29.1388L35.3428 33.4693L33.4698 35.3423L29.1393 33.8345C28.7959 33.7152 28.4205 33.7264 28.0848 33.8659C27.749 34.0054 27.4763 34.2635 27.3184 34.591L25.3202 38.7284H22.6593L20.6611 34.591C20.5032 34.2635 20.2305 34.0054 19.8947 33.8659C19.559 33.7264 19.1836 33.7152 18.8402 33.8345L14.5097 35.3423L12.6367 33.4693L14.1445 29.1388C14.2663 28.7969 14.2569 28.4219 14.1181 28.0865C13.9793 27.7511 13.721 27.4791 13.3932 27.3232L9.27148 25.3197V22.6588L13.388 20.6762C13.7159 20.5203 13.9746 20.2486 14.1143 19.9134C14.2539 19.5782 14.2647 19.2032 14.1445 18.8606L12.6367 14.5093L14.5097 12.6362L18.8611 14.144C19.2045 14.2633 19.5798 14.2521 19.9156 14.1126C20.2513 13.9731 20.5241 13.7151 20.6819 13.3875L22.6593 9.271H25.3254L27.3237 13.3927C27.4814 13.7189 27.7536 13.9757 28.0884 14.1143C28.4232 14.2528 28.7972 14.2634 29.1393 14.144L33.4698 12.6362L35.3428 14.5093L33.835 18.8397C33.7169 19.1832 33.7286 19.5581 33.868 19.8936C34.0074 20.229 34.2647 20.5018 34.5915 20.6606L38.7289 22.6588V25.3197Z" fill="white"/>
<path d="M25.3203 39.5112H22.6594C22.5129 39.5109 22.3693 39.4697 22.2449 39.3923C22.1205 39.3149 22.0201 39.2043 21.9551 39.073L19.9568 34.9565C19.8838 34.8015 19.7558 34.6793 19.5975 34.6137C19.4393 34.5481 19.2624 34.5438 19.1012 34.6017L14.7707 36.1095C14.631 36.157 14.4808 36.1646 14.337 36.1314C14.1933 36.0983 14.0616 36.0256 13.9568 35.9217L12.0838 34.0486C11.9812 33.9441 11.9097 33.8131 11.8775 33.6702C11.8452 33.5274 11.8534 33.3784 11.9012 33.2399L13.409 28.9095C13.4712 28.7436 13.468 28.5603 13.4002 28.3966C13.3324 28.2329 13.205 28.1011 13.0438 28.0278L8.91682 26.0243C8.78432 25.9608 8.6727 25.8607 8.59507 25.736C8.51744 25.6112 8.47702 25.4669 8.47856 25.3199V22.6591C8.47874 22.5118 8.52045 22.3676 8.5989 22.243C8.67734 22.1185 8.78935 22.0185 8.92204 21.9547L13.0438 19.9721C13.1989 19.8991 13.3215 19.7713 13.3879 19.6133C13.4544 19.4554 13.46 19.2784 13.4038 19.1165L11.8959 14.7704C11.8478 14.6311 11.8393 14.4812 11.8716 14.3375C11.9039 14.1937 11.9755 14.0618 12.0786 13.9565L13.9516 12.0834C14.057 11.9805 14.1887 11.9085 14.3322 11.8754C14.4758 11.8423 14.6257 11.8493 14.7655 11.8956L19.1116 13.4034C19.2748 13.4627 19.4543 13.4585 19.6147 13.3919C19.775 13.3252 19.9045 13.2009 19.9777 13.0434L21.9551 8.92689C22.0189 8.7942 22.1188 8.6822 22.2434 8.60375C22.368 8.52531 22.5122 8.4836 22.6594 8.48341H25.3255C25.4723 8.4825 25.6164 8.52318 25.741 8.60074C25.8657 8.6783 25.9658 8.78957 26.0299 8.92167L28.0281 13.0434C28.101 13.197 28.2285 13.3179 28.3858 13.3826C28.543 13.4472 28.7187 13.4509 28.8786 13.393L33.2142 11.8904C33.3525 11.8414 33.5018 11.8326 33.6449 11.8649C33.788 11.8972 33.9191 11.9693 34.0229 12.073L35.896 13.946C35.9994 14.05 36.0718 14.1807 36.105 14.3236C36.1382 14.4665 36.1309 14.6158 36.0838 14.7547L34.5759 19.0904C34.5181 19.2561 34.5252 19.4377 34.5959 19.5984C34.6666 19.7591 34.7955 19.8871 34.9568 19.9565L39.0994 21.9547C39.2311 22.0193 39.3421 22.1195 39.4196 22.244C39.497 22.3686 39.538 22.5124 39.5377 22.6591V25.3199C39.538 25.4666 39.497 25.6104 39.4196 25.735C39.3421 25.8595 39.2311 25.9597 39.0994 26.0243L34.9568 28.0278C34.8027 28.1017 34.6812 28.2298 34.6158 28.3877C34.5503 28.5456 34.5454 28.7221 34.602 28.8834L36.1099 33.2139C36.1569 33.3528 36.1643 33.5021 36.1311 33.6449C36.0979 33.7878 36.0255 33.9186 35.922 34.0225L34.0229 35.8956C33.919 35.9991 33.7882 36.0715 33.6453 36.1047C33.5024 36.1379 33.3531 36.1305 33.2142 36.0834L28.8838 34.5756C28.7218 34.5187 28.5445 34.5234 28.3857 34.5888C28.2269 34.6543 28.0978 34.7758 28.0229 34.9304L26.0246 39.073C25.9601 39.2047 25.8599 39.3156 25.7353 39.3931C25.6108 39.4706 25.467 39.5115 25.3203 39.5112ZM23.1499 37.946H24.8299L26.609 34.2469C26.8508 33.7463 27.2687 33.3524 27.7827 33.1406C28.2967 32.9289 28.8708 32.9141 29.3951 33.0991L33.2612 34.4347L34.4351 33.2608L33.089 29.3947C32.9063 28.8685 32.924 28.2935 33.1386 27.7795C33.3532 27.2655 33.7498 26.8486 34.2525 26.6086L37.9464 24.8243V23.1495L34.2473 21.3912C33.7477 21.1496 33.3542 20.7328 33.1417 20.2202C32.9291 19.7075 32.9122 19.1347 33.0942 18.6104L34.4351 14.7182L33.2612 13.5652L29.3951 14.9112C28.8677 15.0944 28.2912 15.0758 27.7767 14.859C27.2623 14.6423 26.8463 14.2427 26.609 13.7373L24.8351 10.0538H23.1551L21.3864 13.706C21.1464 14.2085 20.7293 14.6047 20.215 14.8185C19.7008 15.0322 19.1258 15.0485 18.6003 14.8643L14.7186 13.5652L13.5655 14.7182L14.9116 18.6052C15.0928 19.1338 15.0721 19.7109 14.8535 20.2252C14.6348 20.7396 14.2337 21.1549 13.7273 21.3912L10.0751 23.1599V24.8347L13.7377 26.6086C14.2371 26.8503 14.6301 27.2674 14.8418 27.7802C15.0535 28.2931 15.0691 28.8659 14.8855 29.3895L13.5655 33.2608L14.7186 34.4347L18.5846 33.0886C19.1128 32.8985 19.6928 32.9117 20.2117 33.1258C20.7307 33.34 21.1513 33.7396 21.3916 34.2469L23.1499 37.946Z" fill="#181818"/>
<path d="M24 29.2696C26.9103 29.2696 29.2696 26.9103 29.2696 24C29.2696 21.0897 26.9103 18.7305 24 18.7305C21.0897 18.7305 18.7305 21.0897 18.7305 24C18.7305 26.9103 21.0897 29.2696 24 29.2696Z" fill="white"/>
<path d="M24.0001 30.3131C22.7515 30.3131 21.5309 29.9428 20.4927 29.2492C19.4545 28.5555 18.6454 27.5695 18.1676 26.416C17.6897 25.2624 17.5647 23.9931 17.8083 22.7684C18.0519 21.5438 18.6532 20.419 19.5361 19.5361C20.419 18.6532 21.5438 18.0519 22.7684 17.8083C23.9931 17.5647 25.2624 17.6897 26.416 18.1676C27.5695 18.6454 28.5555 19.4545 29.2492 20.4927C29.9429 21.5309 30.3131 22.7515 30.3131 24.0001C30.3103 25.6735 29.6443 27.2777 28.461 28.461C27.2777 29.6443 25.6735 30.3103 24.0001 30.3131ZM24.0001 19.774C23.1642 19.774 22.3471 20.0218 21.6522 20.4862C20.9572 20.9506 20.4155 21.6106 20.0957 22.3828C19.7758 23.155 19.6921 24.0047 19.8552 24.8245C20.0182 25.6443 20.4207 26.3973 21.0118 26.9884C21.6028 27.5794 22.3558 27.9819 23.1756 28.1449C23.9954 28.308 24.8451 28.2243 25.6173 27.9045C26.3895 27.5846 27.0496 27.0429 27.5139 26.3479C27.9783 25.653 28.2261 24.8359 28.2261 24.0001C28.2234 22.8801 27.7773 21.8068 26.9853 21.0148C26.1934 20.2229 25.12 19.7767 24.0001 19.774Z" fill="#0084FF"/>
</svg>
