<svg width="48" height="49" viewBox="0 0 48 49" fill="none" xmlns="http://www.w3.org/2000/svg">
<path d="M16.2051 32.686C15.9284 32.686 15.6629 32.796 15.4672 32.9917C15.2716 33.1874 15.1616 33.4528 15.1616 33.7295V37.9034C15.1616 38.1802 15.2716 38.4456 15.4672 38.6413C15.6629 38.837 15.9284 38.9469 16.2051 38.9469C16.4818 38.9469 16.7473 38.837 16.943 38.6413C17.1386 38.4456 17.2486 38.1802 17.2486 37.9034V33.7295C17.2486 33.5925 17.2216 33.4568 17.1692 33.3302C17.1167 33.2036 17.0398 33.0886 16.943 32.9917C16.8461 32.8948 16.731 32.8179 16.6044 32.7655C16.4778 32.713 16.3421 32.686 16.2051 32.686Z" fill="#0082FF"/>
<path d="M22.106 26.0129C21.8292 26.0129 21.5638 26.1229 21.3681 26.3186C21.1724 26.5143 21.0625 26.7797 21.0625 27.0564V37.9034C21.0625 38.1801 21.1724 38.4455 21.3681 38.6412C21.5638 38.8369 21.8292 38.9469 22.106 38.9469C22.3827 38.9469 22.6481 38.8369 22.8438 38.6412C23.0395 38.4455 23.1495 38.1801 23.1495 37.9034V27.0564C23.1495 26.7797 23.0395 26.5143 22.8438 26.3186C22.6481 26.1229 22.3827 26.0129 22.106 26.0129Z" fill="#0082FF"/>
<path d="M33.9131 38.9472C34.1899 38.9472 34.4553 38.8373 34.651 38.6416C34.8466 38.4459 34.9566 38.1805 34.9566 37.9038V17.0342C34.9566 16.7575 34.8466 16.492 34.651 16.2964C34.4553 16.1007 34.1899 15.9907 33.9131 15.9907C33.6364 15.9907 33.3709 16.1007 33.1753 16.2964C32.9796 16.492 32.8696 16.7575 32.8696 17.0342V37.9038C32.8696 38.1805 32.9796 38.4459 33.1753 38.6416C33.3709 38.8373 33.6364 38.9472 33.9131 38.9472Z" fill="#0082FF"/>
<path d="M26.9688 31.6582V37.9191C26.9688 38.1958 27.0787 38.4613 27.2744 38.6569C27.4701 38.8526 27.7355 38.9626 28.0122 38.9626C28.289 38.9626 28.5544 38.8526 28.7501 38.6569C28.9458 38.4613 29.0557 38.1958 29.0557 37.9191V31.6582C29.0557 31.3815 28.9458 31.1161 28.7501 30.9204C28.5544 30.7247 28.289 30.6147 28.0122 30.6147C27.7355 30.6147 27.4701 30.7247 27.2744 30.9204C27.0787 31.1161 26.9688 31.3815 26.9688 31.6582Z" fill="#0082FF"/>
<path d="M15.6523 17.3209C16.4841 18.2564 17.5747 18.9243 18.7861 19.24C19.9975 19.5557 21.2753 19.505 22.4579 19.0944C23.6405 18.6837 24.6748 17.9316 25.4299 16.9331C26.185 15.9346 26.6269 14.7346 26.6999 13.4848C26.7729 12.2351 26.4737 10.9918 25.84 9.91219C25.2063 8.83256 24.2666 7.96513 23.1399 7.41961C22.0131 6.87409 20.7499 6.67499 19.51 6.84748C18.2701 7.01998 17.1091 7.55633 16.1741 8.38869C15.5456 8.93597 15.0328 9.6032 14.6656 10.3513C14.2983 11.0993 14.0841 11.9132 14.0356 12.7451C13.987 13.577 14.1049 14.4103 14.3826 15.196C14.6602 15.9817 15.0919 16.7041 15.6523 17.3209Z" fill="#EDF3FF"/>
<path d="M39.2191 9.28069H27.2712C26.9952 8.78989 26.6701 8.3284 26.3008 7.9033C24.9122 6.33751 22.9597 5.38586 20.8709 5.25677C18.7821 5.12769 16.7272 5.8317 15.1564 7.21461C14.4865 7.80873 13.9251 8.51492 13.4973 9.30156H10.8886C9.76345 9.30565 8.68531 9.75337 7.88823 10.5475C7.09115 11.3417 6.63946 12.4182 6.63123 13.5433V22.2042L3.95471 24.5729C3.74541 24.756 3.57483 24.9791 3.45298 25.2291C3.33113 25.479 3.26046 25.7509 3.24514 26.0285C3.20891 26.5888 3.39657 27.1405 3.76688 27.5624L4.00166 27.8285C4.37375 28.2485 4.89727 28.5037 5.45732 28.5381H5.59297C5.95884 28.5376 6.31834 28.4423 6.63645 28.2616V39.2181C6.63783 40.3496 7.08791 41.4343 7.88799 42.2344C8.68806 43.0344 9.7728 43.4845 10.9043 43.4859H39.2191C40.3505 43.4845 41.4353 43.0344 42.2353 42.2344C43.0354 41.4343 43.4855 40.3496 43.4869 39.2181V13.5433C43.4841 12.4127 43.0334 11.3293 42.2335 10.5304C41.4336 9.73144 40.3496 9.28207 39.2191 9.28069ZM16.1738 8.38852C17.1089 7.55616 18.2698 7.01981 19.5097 6.84731C20.7496 6.67481 22.0129 6.87391 23.1396 7.41944C24.2664 7.96496 25.206 8.83239 25.8397 9.91201C26.4734 10.9916 26.7727 12.2349 26.6997 13.4847C26.6267 14.7344 26.1847 15.9344 25.4296 16.9329C24.6745 17.9314 23.6403 18.6836 22.4577 19.0942C21.2751 19.5048 19.9973 19.5555 18.7859 19.2398C17.5745 18.9241 16.4839 18.2563 15.6521 17.3207C15.0969 16.7014 14.6697 15.9783 14.3953 15.1932C14.1208 14.408 14.0045 13.5763 14.053 12.746C14.1015 11.9156 14.3139 11.1031 14.6779 10.3553C15.0419 9.60739 15.5503 8.93896 16.1738 8.38852ZM8.19645 13.5433C8.19645 13.4703 8.19645 13.3972 8.19645 13.3242C8.24924 12.6784 8.53314 12.0734 8.99603 11.6201C9.45892 11.1668 10.0698 10.8956 10.7164 10.8563C10.7703 10.8536 10.8243 10.8536 10.8782 10.8563H12.8347C12.4827 12.0163 12.4022 13.2416 12.5995 14.4376C12.7967 15.6336 13.2663 16.7682 13.9721 17.7537L11.5773 19.8563C11.1939 19.6124 10.7413 19.5003 10.2884 19.537C9.83544 19.5737 9.40686 19.7573 9.06775 20.0598L8.19645 20.8477V13.5433ZM5.95819 26.8372C5.90385 26.8861 5.84037 26.9237 5.77141 26.9479C5.70246 26.972 5.6294 26.9823 5.55645 26.9781C5.41 26.967 5.27352 26.8997 5.17558 26.7903L4.94079 26.5242C4.89287 26.4694 4.85621 26.4058 4.83294 26.3368C4.80966 26.2679 4.80021 26.195 4.80514 26.1224C4.80871 26.0502 4.82725 25.9795 4.85959 25.9149C4.89192 25.8502 4.93734 25.793 4.99297 25.7468L10.1008 21.2337C10.2015 21.1442 10.3313 21.0942 10.466 21.0929H10.5025C10.5743 21.0958 10.6448 21.1135 10.7094 21.1449C10.7741 21.1764 10.8315 21.2208 10.8782 21.2755L11.113 21.5416C11.1648 21.5937 11.205 21.6563 11.231 21.7251C11.257 21.7939 11.2681 21.8674 11.2637 21.9408C11.2592 22.0142 11.2393 22.0858 11.2053 22.151C11.1712 22.2162 11.1237 22.2734 11.066 22.319L5.95819 26.8372ZM41.9217 13.632V39.1972C41.9203 39.9136 41.6351 40.6002 41.1286 41.1067C40.622 41.6133 39.9354 41.8984 39.2191 41.8998H10.8991C10.8452 41.9026 10.7912 41.9026 10.7373 41.8998C10.0906 41.8605 9.47979 41.5894 9.0169 41.1361C8.55401 40.6828 8.27011 40.0777 8.21732 39.432C8.21732 39.359 8.21732 39.2911 8.21732 39.2129V26.9468L12.1251 23.4981C12.4695 23.2 12.7068 22.7975 12.801 22.3519C12.8952 21.9063 12.8411 21.4422 12.6469 21.0303L15.0417 18.9172C16.3751 20.1597 18.1004 20.8978 19.9199 21.0042H20.4417C22.4366 20.9887 24.3518 20.2189 25.8026 18.8494C27.2533 17.48 28.1321 15.6123 28.2625 13.6216C28.3173 12.6842 28.206 11.7446 27.9338 10.8459H39.2191C39.9345 10.8473 40.6203 11.1317 41.1267 11.6372C41.6331 12.1426 41.9189 12.8279 41.9217 13.5433V13.632Z" fill="black"/>
</svg>
