<svg width="48" height="48" viewBox="0 0 48 48" fill="none" xmlns="http://www.w3.org/2000/svg">
<path d="M20.6296 20.8433L17.207 24.6989L24.3131 31.878L27.1879 29.2537L20.6296 20.8433Z" fill="#EDF3FF"/>
<path d="M37.6698 8.00342C36.4473 8.00632 35.2525 8.36704 34.2326 9.04107C33.2127 9.71511 32.4125 10.673 31.9307 11.7965C32.8255 11.5321 33.7348 11.3196 34.6541 11.1599L37.195 10.7269C37.4641 10.6814 37.7403 10.704 37.9983 10.7927C38.2564 10.8814 38.4882 11.0333 38.6724 11.2347C38.8566 11.436 38.9874 11.6803 39.0529 11.9452C39.1184 12.2102 39.1164 12.4873 39.0472 12.7512L38.3898 15.2399C37.9188 17.029 37.2412 18.7571 36.3707 20.3895C36.8043 20.4841 37.2469 20.5314 37.6907 20.5304C39.3511 20.5304 40.9436 19.8707 42.1178 18.6966C43.2919 17.5225 43.9515 15.93 43.9515 14.2695C43.9515 12.609 43.2919 11.0165 42.1178 9.8424C40.9436 8.66826 39.3511 8.00864 37.6907 8.00864L37.6698 8.00342Z" fill="#EDF3FF"/>
<path d="M9.56339 12.193C10.3696 12.5104 11.0759 13.0383 11.6086 13.7217C11.8848 14.0752 12.1145 14.4627 12.2921 14.8747C12.2921 14.9112 12.3338 14.9373 12.3651 14.9947C12.4135 14.9157 12.457 14.8338 12.4956 14.7495C12.6845 14.3189 12.9378 13.9196 13.2469 13.5651C13.5158 13.2389 13.8345 12.9572 14.1912 12.7304C14.4625 12.5582 14.7495 12.4069 15.0312 12.2504C15.0834 12.2243 15.1408 12.2243 15.1877 12.1982C15.2039 12.1888 15.2179 12.176 15.2287 12.1607C15.2395 12.1454 15.2469 12.1279 15.2503 12.1095C15.2462 12.0934 15.2383 12.0784 15.2275 12.0657C15.2166 12.0531 15.203 12.0431 15.1877 12.0364C14.6814 11.8416 14.2134 11.559 13.8051 11.2017C13.4158 10.8771 13.0841 10.489 12.8243 10.0538C12.6886 9.81384 12.5686 9.56862 12.4434 9.32862L12.3756 9.22949C12.3286 9.31819 12.2816 9.39123 12.2503 9.46427C12.0639 9.88308 11.8159 10.2717 11.5147 10.6173C11.2358 10.9573 10.9068 11.2528 10.539 11.4938C10.273 11.6608 9.99121 11.8069 9.71469 11.9582C9.66774 11.9582 9.61034 11.9582 9.56339 12.0104C9.54663 12.0197 9.53198 12.0324 9.52031 12.0477C9.50865 12.063 9.50023 12.0804 9.49556 12.0991C9.49034 12.1356 9.53208 12.1825 9.56339 12.193Z" fill="#0084FF"/>
<path d="M37.5654 38.4367C37.508 38.4054 37.4349 38.395 37.3723 38.3689L36.6419 38.0871C36.2923 37.9515 35.948 37.8211 35.5984 37.6958C35.5352 37.6732 35.4787 37.635 35.434 37.5849C35.3894 37.5348 35.358 37.4743 35.3428 37.4089C35.2906 37.2524 35.2384 37.0906 35.1862 36.9393C35.0036 36.4176 34.8262 35.9271 34.6645 35.4158C34.6645 35.3793 34.6071 35.3271 34.5706 35.3271C34.5341 35.3271 34.4923 35.3741 34.4767 35.4106C34.4485 35.4806 34.4241 35.552 34.4036 35.6245L33.9967 36.7463L33.7462 37.4402C33.7268 37.4956 33.6952 37.546 33.6536 37.5876C33.6121 37.6291 33.5617 37.6608 33.5062 37.6802L33.0941 37.8315L32.348 38.0871L31.5393 38.3898C31.4923 38.3898 31.461 38.4576 31.4141 38.4941C31.461 38.5306 31.4923 38.5828 31.5393 38.6037L32.0193 38.7758L32.8071 39.0837L33.501 39.3445C33.5623 39.3715 33.6164 39.4124 33.659 39.4641C33.7016 39.5157 33.7315 39.5766 33.7462 39.6419C33.7932 39.7985 33.8454 39.9498 33.8975 40.1011C34.0749 40.6228 34.2523 41.1132 34.4193 41.6193C34.4431 41.6681 34.4729 41.7136 34.508 41.755C34.5549 41.708 34.5967 41.6767 34.6019 41.6454C34.6541 41.5098 34.6958 41.3637 34.748 41.2228L35.0141 40.4871C35.108 40.2263 35.2228 39.9654 35.301 39.6993C35.318 39.6068 35.3624 39.5215 35.4285 39.4546C35.4945 39.3876 35.5792 39.342 35.6715 39.3237H35.7549C36.3654 39.0993 36.9706 38.875 37.581 38.6402C37.6123 38.6402 37.6645 38.5776 37.6645 38.5463C37.6645 38.515 37.6228 38.4576 37.5654 38.4367Z" fill="#0084FF"/>
<path d="M16.5289 28.1739C15.9425 28.1462 15.3565 28.2353 14.8048 28.4359C14.2531 28.6366 13.7467 28.9447 13.315 29.3426C11.7863 30.7408 10.075 36.3443 9.74629 37.4556L9.25586 39.1304L10.9567 38.7599C12.0889 38.5304 17.8176 37.3199 19.3463 35.9165C19.9957 35.3203 20.4539 34.5451 20.6631 33.6888C20.8723 32.8324 20.823 31.9333 20.5216 31.1049C20.2202 30.2765 19.68 29.556 18.9694 29.0343C18.2588 28.5127 17.4096 28.2132 16.5289 28.1739ZM17.9376 34.3878C17.2959 34.9826 14.6454 35.7756 12.2872 36.3391C13.0437 34.0278 14.0872 31.4608 14.7237 30.8712C15.1637 30.4733 15.7374 30.2554 16.3306 30.2608H16.435C16.7475 30.2742 17.0543 30.3491 17.3379 30.4812C17.6214 30.6134 17.8761 30.8001 18.0874 31.0308C18.2987 31.2615 18.4624 31.5315 18.5692 31.8256C18.676 32.1196 18.7238 32.4318 18.7098 32.7443C18.6953 33.054 18.6196 33.3578 18.487 33.638C18.3545 33.9183 18.1678 34.1696 17.9376 34.3773V34.3878Z" fill="#0084FF"/>
<path d="M38.6505 11.2329C38.4672 11.0299 38.2362 10.8759 37.9784 10.7848C37.7206 10.6937 37.4441 10.6684 37.174 10.7111L34.6331 11.1442C30.4042 11.8795 26.4445 13.7189 23.1549 16.4763C22.7254 16.8436 22.3194 17.2374 21.9392 17.6555C19.7374 17.3893 17.5061 17.7814 15.5271 18.7824C14.0293 19.4853 12.692 20.4887 11.5984 21.7302L10.7271 22.7737L16.3357 23.8902L15.934 24.3389L23.781 32.8694L24.4644 32.3476L25.1375 38.4937L26.2227 37.7163C27.5553 36.7351 28.6738 35.4924 29.5097 34.0642C30.8662 31.7737 31.4349 29.2015 31.0749 27.0729C31.2418 26.9424 31.4036 26.8015 31.5549 26.6607C34.8321 23.5635 37.181 19.6139 38.3375 15.2555L38.9949 12.7668C39.0712 12.5028 39.0796 12.2238 39.0194 11.9556C38.9592 11.6875 38.8323 11.4389 38.6505 11.2329ZM13.7844 21.7615C14.5179 21.1367 15.33 20.6105 16.2001 20.1963C17.5785 19.5144 19.0919 19.149 20.6297 19.1268L17.5618 22.5129L13.7844 21.7615ZM18.0523 24.3024L20.2853 21.8398L26.6088 28.6329L23.9479 30.7198L18.0523 24.3024ZM28.174 33.2555C27.6815 34.0842 27.0854 34.8469 26.4001 35.525L25.9253 31.1842L29.6349 28.2259C29.6041 30.0025 29.0998 31.7388 28.174 33.2555ZM37.5079 12.3494L36.8557 14.8433C35.7894 18.9227 33.5919 22.6177 30.5166 25.5024C30.3914 25.6172 30.2662 25.7268 30.1305 25.8311L27.8401 27.652L21.3392 20.6763L22.7218 19.1476C22.81 19.0865 22.8831 19.0063 22.9357 18.9129L23.0975 18.7355C23.4352 18.3653 23.7959 18.0168 24.1775 17.692C27.2401 15.1032 30.9407 13.3826 34.894 12.7094L37.4349 12.2763C37.4447 12.2717 37.4553 12.2693 37.4662 12.2693C37.477 12.2693 37.4877 12.2717 37.4975 12.2763C37.5086 12.2846 37.5159 12.297 37.5178 12.3107C37.5198 12.3244 37.5162 12.3383 37.5079 12.3494Z" fill="#181818"/>
</svg>
