<svg width="48" height="48" viewBox="0 0 48 48" fill="none" xmlns="http://www.w3.org/2000/svg">
<path d="M43.0487 46.4349C43.0179 46.3916 42.99 46.3462 42.9652 46.2993C42.7826 45.7775 42.6052 45.2871 42.4434 44.7758L42.2869 44.3219C42.2738 44.2559 42.2445 44.1942 42.2018 44.1423C42.159 44.0904 42.104 44.0499 42.0417 44.0245L41.353 43.7636L40.5652 43.4558C40.4034 43.3932 40.2417 43.3462 40.0852 43.2784C40.0382 43.2784 40.0017 43.2106 39.96 43.1688C40.0017 43.1375 40.0382 43.0801 40.0852 43.0645L40.873 42.7827L41.6139 42.5062L42.0261 42.3601C42.0804 42.3397 42.1295 42.3077 42.1701 42.2662C42.2107 42.2247 42.2416 42.1749 42.2608 42.1201C42.3443 41.8853 42.4278 41.6506 42.5113 41.4262C42.6469 41.0506 42.7878 40.6749 42.9234 40.3045C42.9234 40.2314 42.96 40.1584 42.9913 40.0906C43.0226 40.0227 43.0539 40.0071 43.0904 40.0071C43.1269 40.0071 43.1687 40.054 43.1791 40.0958C43.3617 40.6175 43.5391 41.1079 43.7008 41.6193L43.8574 42.0836C43.873 42.1488 43.9046 42.2091 43.9492 42.2592C43.9938 42.3092 44.0501 42.3475 44.113 42.3706C44.4608 42.4958 44.8087 42.6262 45.1565 42.7619C45.4017 42.861 45.6469 42.9601 45.9026 43.054C45.9652 43.054 46.033 43.0906 46.0956 43.1219C46.1582 43.1532 46.1791 43.1793 46.1791 43.2158C46.173 43.2367 46.1624 43.2559 46.148 43.2722C46.1335 43.2884 46.1156 43.3012 46.0956 43.3097C45.4852 43.5445 44.88 43.7636 44.2747 43.9932H44.1913C44.1032 44.0121 44.0223 44.0554 43.9577 44.1181C43.8932 44.1809 43.8475 44.2605 43.8261 44.3479C43.7478 44.6193 43.6382 44.8697 43.5443 45.1358C43.4504 45.4019 43.3617 45.6575 43.273 45.8766C43.2261 46.0175 43.1791 46.1584 43.1269 46.2993C43.1374 46.3462 43.1008 46.3775 43.0487 46.4349Z" fill="#0084FF"/>
<path d="M36.0733 6.30273H7.75328C5.82845 6.30273 4.26807 7.86312 4.26807 9.78795V35.4575C4.26807 37.3823 5.82845 38.9427 7.75328 38.9427H36.0733C37.9981 38.9427 39.5585 37.3823 39.5585 35.4575V9.78795C39.5585 7.86312 37.9981 6.30273 36.0733 6.30273Z" fill="white"/>
<path d="M36.0732 39.7252H7.75318C6.62531 39.7239 5.54371 39.2767 4.74423 38.4811C3.94475 37.6855 3.49224 36.6061 3.48535 35.4783V9.78785C3.48673 8.65637 3.93682 7.57164 4.73689 6.77156C5.53697 5.97149 6.6217 5.5214 7.75318 5.52002H36.0732C37.2047 5.5214 38.2894 5.97149 39.0895 6.77156C39.8895 7.57164 40.3396 8.65637 40.341 9.78785V35.4783C40.3341 36.6061 39.8816 37.6855 39.0821 38.4811C38.2826 39.2767 37.2011 39.7239 36.0732 39.7252ZM7.75318 7.08524C7.0364 7.08524 6.34898 7.36998 5.84214 7.87681C5.33531 8.38365 5.05057 9.07107 5.05057 9.78785V35.4783C5.05195 36.1946 5.33713 36.8813 5.84367 37.3878C6.35021 37.8943 7.03683 38.1795 7.75318 38.1809H36.0732C36.7895 38.1795 37.4762 37.8943 37.9827 37.3878C38.4892 36.8813 38.7744 36.1946 38.7758 35.4783V9.78785C38.7744 9.07149 38.4892 8.38487 37.9827 7.87834C37.4762 7.3718 36.7895 7.08662 36.0732 7.08524H7.75318Z" fill="#181818"/>
<path d="M8.07666 21.9652H13.4401L15.6627 27.3339L20.5149 14.9583L25.5706 30.9548L29.3636 22.2H35.7497" fill="white"/>
<path d="M25.5654 31.9983H25.5132C25.3 31.9877 25.0951 31.912 24.9262 31.7814C24.7574 31.6508 24.6326 31.4716 24.5689 31.2678L20.3949 18.0835L16.6332 27.7148C16.5561 27.9116 16.421 28.0803 16.2458 28.1986C16.0707 28.3169 15.8637 28.3793 15.6523 28.3774C15.446 28.3778 15.2442 28.3171 15.0724 28.2029C14.9006 28.0886 14.7665 27.926 14.6871 27.7356L12.741 23.0087H8.07668C7.79993 23.0087 7.53452 22.8988 7.33883 22.7031C7.14314 22.5074 7.0332 22.242 7.0332 21.9652C7.0332 21.6885 7.14314 21.423 7.33883 21.2274C7.53452 21.0317 7.79993 20.9217 8.07668 20.9217H13.4402C13.6456 20.9223 13.8462 20.9835 14.017 21.0977C14.1878 21.2119 14.3211 21.3739 14.4002 21.5635L15.6523 24.5217L19.5602 14.5565C19.6388 14.3555 19.7779 14.1838 19.9583 14.0651C20.1386 13.9464 20.3513 13.8866 20.5671 13.8939C20.7831 13.9013 20.9914 13.9755 21.1634 14.1063C21.3353 14.2372 21.4624 14.4182 21.5271 14.6243L25.7219 27.9756L28.4089 21.7826C28.49 21.5968 28.6235 21.4386 28.793 21.3274C28.9626 21.2162 29.1609 21.1568 29.3636 21.1565H35.7497C36.0265 21.1565 36.2919 21.2665 36.4876 21.4621C36.6833 21.6578 36.7932 21.9232 36.7932 22.2C36.7932 22.4767 36.6833 22.7422 36.4876 22.9378C36.2919 23.1335 36.0265 23.2435 35.7497 23.2435H30.0471L26.5254 31.3722C26.4439 31.5588 26.3096 31.7176 26.139 31.8288C25.9684 31.9401 25.769 31.999 25.5654 31.9983Z" fill="#0084FF"/>
</svg>
