<svg width="64" height="64" viewBox="0 0 64 64" fill="none" xmlns="http://www.w3.org/2000/svg">
<circle cx="32" cy="32" r="32" fill="#31B7C1"/>
<path fill-rule="evenodd" clip-rule="evenodd" d="M30.3527 28.8313L45.6853 39.2007L35.7478 17.0376H35.5643L30.3527 28.8313ZM26.8459 27.0942L28.637 22.8966C30.0398 19.6599 31.4531 16.4225 32.845 13.1855C32.9487 12.8223 33.3016 12.5891 33.6761 12.6355C35.014 12.6355 36.3521 12.6355 37.69 12.6355C38.0877 12.5872 38.4619 12.8339 38.5745 13.2179C41.4523 19.6922 44.3548 26.1843 47.2826 32.694C48.8579 36.2122 50.4333 39.7254 52.0089 43.2366C52.2244 43.5449 52.1575 43.9694 51.8578 44.1965C50.8435 45.1568 49.8722 46.1714 48.8256 47.2181L46.0632 45.06C40.3007 40.5783 34.2878 36.4286 28.0543 32.6293C25.2715 30.9224 22.2841 29.5736 19.1631 28.6155C18.5346 28.4296 17.8866 28.3173 17.2319 28.2809C16.647 28.1662 16.0796 28.5471 15.9648 29.1319C15.9267 29.3273 15.9428 29.5296 16.0124 29.7165C16.1458 30.424 16.3558 31.115 16.6382 31.7771C17.8698 34.4156 19.4286 36.8877 21.2781 39.136L23.8246 33.6116C24.407 34.9174 24.9036 36.1255 25.4757 37.2909C25.8798 37.996 25.8798 38.8622 25.4757 39.5676C24.99 40.5169 24.5908 41.5205 24.1699 42.5132C24.0765 42.8569 23.7468 43.0815 23.393 43.0424C22.0549 43.0424 20.717 43.0424 19.3789 43.0424C19.131 43.0452 18.8911 42.953 18.7098 42.783C16.4782 40.0768 14.59 37.105 13.0883 33.9354C12.4088 32.4849 12.041 30.9075 12.0093 29.3062C11.8429 26.5579 13.9362 24.1957 16.684 24.029C16.8882 24.0171 17.0927 24.0171 17.2966 24.0296C19.6414 24.1551 21.9361 24.757 24.0404 25.7994C24.925 26.166 25.8316 26.6085 26.8459 27.0942Z" fill="white"/>
</svg>
