<svg width="64" height="64" viewBox="0 0 64 64" fill="none" xmlns="http://www.w3.org/2000/svg">
<path d="M0 32C0 14.3269 14.3269 0 32 0C49.6731 0 64 14.3269 64 32C64 49.6731 49.6731 64 32 64C14.3269 64 0 49.6731 0 32Z" fill="#007FD2"/>
<path fill-rule="evenodd" clip-rule="evenodd" d="M49.3662 45.8033C48.306 48.71 46.7831 50.8274 45.2217 51.5589C43.5254 52.3481 41.9062 51.8476 40.4797 50.0959C39.0532 48.325 37.0292 43.0506 35.1979 36.294L34.2534 32.8676H27.1982H20.143L18.6972 37.526C17.5214 41.3566 17.1744 42.2421 16.7696 42.5309C16.1527 42.9928 15.3624 42.8388 14.919 42.1651C14.6299 41.7416 14.6684 41.4336 15.3431 37.8147C15.5615 36.6622 15.7686 35.5544 15.9222 34.7332C16.0533 34.0319 16.1454 33.5396 16.172 33.4066L16.2491 32.8676H13.0685C9.9264 32.8676 9.86857 32.8676 9.29028 32.3671C8.13368 31.4046 8.34573 29.5952 9.73364 28.9407C10.3119 28.6712 10.8517 28.6327 13.8395 28.7482L17.2708 28.8829L17.7334 27.0735C18.5623 23.724 20.4514 18.3727 21.5887 16.0242C22.8995 13.4063 24.191 11.6931 25.5211 10.7883C28.2584 8.95964 30.4559 10.2879 32.8655 15.2157C34.3112 18.1802 35.1401 20.4516 36.5473 25.3603L37.5689 28.9214L39.6701 29.0562C40.8074 29.1332 44.3157 29.2872 47.4385 29.4027C50.5613 29.5182 53.5106 29.6914 53.9925 29.7876C55.4768 30.0571 56.0359 31.4239 55.0528 32.3863L54.5901 32.8676H46.6675C39.5544 32.8676 38.7641 32.9061 38.7641 33.1756C38.7641 33.3488 39.0725 34.7348 39.4388 36.2555C41.3664 44.2633 42.9856 47.9015 44.6049 47.8822C46.3205 47.863 46.9759 46.7465 49.4818 39.7589C50.8505 35.909 51.0047 35.5625 51.3709 35.5625C52.1034 35.5625 52.0842 36.0438 51.024 40.1054C50.4457 42.3191 49.6939 44.8793 49.3662 45.8033ZM21.0683 28.8254L24.8465 28.8831C26.9284 28.9024 29.6656 28.9409 30.9186 28.9794C32.5186 28.9986 33.174 28.9601 33.174 28.7869C33.174 28.6714 32.6921 26.9004 32.1138 24.8407C30.0319 17.6221 28.5476 14.0032 27.6609 14.0032C26.2344 14.0032 23.4586 19.8936 21.5309 27.0352L21.0683 28.8254Z" fill="white"/>
</svg>
