<svg width="64" height="64" viewBox="0 0 64 64" fill="none" xmlns="http://www.w3.org/2000/svg">
<path d="M32 64C49.6731 64 64 49.6731 64 32C64 14.3269 49.6731 0 32 0C14.3269 0 0 14.3269 0 32C0 49.6731 14.3269 64 32 64Z" fill="black"/>
<path d="M42.188 33.1673C42.2405 38.817 47.1443 40.6971 47.1987 40.7211C47.1572 40.8537 46.4151 43.4004 44.6151 46.0309C43.0591 48.3052 41.4441 50.5711 38.9001 50.6181C36.4003 50.6641 35.5965 49.1357 32.7385 49.1357C29.8814 49.1357 28.9883 50.5711 26.622 50.6641C24.1664 50.757 22.2964 48.2048 20.7275 45.9389C17.5215 41.3038 15.0714 32.8414 18.3612 27.1291C19.9955 24.2923 22.9161 22.4959 26.0862 22.4499C28.4976 22.4039 30.7736 24.0722 32.2477 24.0722C33.7209 24.0722 36.4868 22.0659 39.3945 22.3606C40.6117 22.4112 44.0286 22.8523 46.2227 26.0638C46.0459 26.1734 42.1457 28.4439 42.188 33.1673V33.1673ZM37.49 19.2941C38.7937 17.716 39.6712 15.5191 39.4318 13.3333C37.5526 13.4088 35.2802 14.5855 33.9323 16.1627C32.7243 17.5595 31.6664 19.795 31.9518 21.9376C34.0464 22.0996 36.1862 20.8732 37.49 19.2941" fill="white"/>
</svg>
