<svg width="64" height="64" viewBox="0 0 64 64" fill="none" xmlns="http://www.w3.org/2000/svg">
<mask id="mask0" mask-type="alpha" maskUnits="userSpaceOnUse" x="0" y="0" width="64" height="64">
<circle cx="32" cy="32" r="32" fill="black"/>
</mask>
<g mask="url(#mask0)">
<circle cx="32" cy="32" r="32" fill="#41AAFC"/>
<path d="M64 32C64 27.7977 63.1723 23.6365 61.5641 19.7541C59.956 15.8717 57.5989 12.3441 54.6274 9.37258C51.6559 6.40111 48.1283 4.044 44.2459 2.43585C40.3634 0.827704 36.2023 -1.83688e-07 32 0C27.7977 1.83688e-07 23.6365 0.827705 19.7541 2.43586C15.8717 4.04401 12.3441 6.40111 9.37258 9.37258C6.40111 12.3441 4.044 15.8717 2.43585 19.7541C0.827704 23.6366 -3.67377e-07 27.7977 0 32L32 32H64Z" fill="#FECB2F"/>
<path d="M0 63.9999L32 10.6666L64 63.9999H0Z" fill="#FC0F1C"/>
<path d="M64 64H0L19.2 32H44.8L64 64Z" fill="#4747B5"/>
</g>
</svg>
