<svg width="64" height="64" viewBox="0 0 64 64" fill="none" xmlns="http://www.w3.org/2000/svg">
<circle cx="32" cy="32" r="32" fill="#E7F0F8"/>
<path d="M15.2624 24.5928L20.5232 34.614C20.8824 35.2967 21.7677 35.8509 22.4991 35.8491L33.231 35.8264C33.9636 35.8249 34.2659 35.2694 33.907 34.5855L28.6458 24.5648C28.2869 23.8808 27.4017 23.3281 26.6696 23.3297L15.9379 23.352C15.9213 23.352 15.9053 23.3526 15.8888 23.3526C15.1925 23.3789 14.9111 23.9241 15.2624 24.5928Z" fill="#75B82C"/>
<path d="M35.6472 36.2691L38.833 42.2137C39.0498 42.6191 39.5798 42.9446 40.0162 42.9397L46.4104 42.8721C46.8471 42.8677 47.0232 42.5352 46.8066 42.1294L43.6218 36.1854C43.4047 35.7796 42.874 35.4549 42.4386 35.4595L36.0443 35.5267C36.0368 35.5267 36.0297 35.5267 36.0222 35.5267C35.6019 35.5423 35.4339 35.8696 35.6472 36.2691Z" fill="#75B82C"/>
<path d="M35.6846 13.6976L29.2912 21.904C28.8542 22.4646 28.7963 23.4693 29.1612 24.1509L34.5063 34.1267C34.8707 34.8071 35.5206 34.9052 35.9569 34.346L42.351 26.138C42.7871 25.5784 42.8456 24.5726 42.48 23.8916L37.1356 13.9155C36.9237 13.5218 36.6174 13.3233 36.3119 13.3339C36.0902 13.343 35.8684 13.4619 35.6846 13.6976Z" fill="#3D90D5"/>
<path d="M34.1872 36.3687L30.3766 41.2586C30.1158 41.5925 30.0821 42.1917 30.2991 42.5968L33.4841 48.5411C33.702 48.9469 34.0888 49.0052 34.3491 48.6714L38.1586 43.782C38.4183 43.4475 38.4531 42.8479 38.2363 42.4434L35.0511 36.4988C34.9257 36.2641 34.7426 36.1456 34.5601 36.1516C34.4286 36.1562 34.2958 36.2275 34.1872 36.3687Z" fill="#3D90D5"/>
</svg>
