<svg width="64" height="64" viewBox="0 0 64 64" fill="none" xmlns="http://www.w3.org/2000/svg">
<circle cx="32" cy="32" r="32" fill="#333E48"/>
<mask id="mask0" mask-type="alpha" maskUnits="userSpaceOnUse" x="5" y="5" width="54" height="54">
<path d="M57.8666 32.0002C57.8666 46.286 46.2857 57.8669 31.9999 57.8669C17.7142 57.8669 6.13325 46.286 6.13325 32.0002C6.13325 17.7145 17.7142 6.13356 31.9999 6.13356C46.2857 6.13356 57.8666 17.7145 57.8666 32.0002Z" fill="#E7F0F8" stroke="white" stroke-width="1.6"/>
</mask>
<g mask="url(#mask0)">
<circle cx="32" cy="32" r="32" fill="white"/>
<path d="M64 31.9991C64 14.3501 49.6445 0 32.0009 0C14.3574 0 0 14.3501 0 31.9991C0 48.6725 12.8182 62.4062 29.1178 63.8669H29.1962C29.4636 63.89 29.7317 63.91 30.0004 63.9271L30.1554 63.9362C30.3986 63.9508 30.6454 63.9617 30.8958 63.969H31.0909C31.3936 63.969 31.6964 63.9836 32.0027 63.9836C32.3091 63.9836 32.5808 63.9836 32.869 63.9708H32.9911C33.2452 63.9635 33.4981 63.9532 33.7498 63.9398H33.8008C34.3686 63.9082 34.9327 63.8614 35.4931 63.7994C51.4991 62.0633 64 48.4646 64 31.9991ZM35.3837 60.754L35.0755 51.9039L42.804 47.1625C44.6126 48.4021 46.964 48.5215 48.8887 47.4713C50.8135 46.4212 51.9857 44.3794 51.9222 42.1877C51.7983 39.1182 49.3383 36.6583 46.2689 36.5344C44.5299 36.4721 42.855 37.1949 41.7075 38.5029C40.5599 39.811 40.0612 41.5658 40.3495 43.2818L34.895 46.6555L34.4993 35.5041L42.1056 30.852C44.7777 32.8475 48.4981 32.631 50.9207 30.3391C53.3433 28.0471 53.7655 24.3444 51.9211 21.5659C50.0766 18.7874 46.5005 17.7389 43.4477 19.0816C40.395 20.4243 38.751 23.7688 39.5525 27.006L34.3169 30.2557L34.0069 21.3564C36.4979 20.3932 38.0989 17.9504 37.9879 15.282C37.8582 12.1704 35.4518 9.63205 32.3516 9.33654C29.2514 9.04103 26.4088 11.0791 25.6936 14.1101C24.9784 17.1411 26.61 20.2349 29.5153 21.3564L28.95 39.7951L23.2512 36.1642C23.6314 34.6105 23.4499 32.9724 22.7387 31.5395C21.599 29.1688 19.3012 27.4874 16.6807 27.3233C13.4398 27.1118 10.4562 29.0892 9.38841 32.1565C8.32061 35.2237 9.43117 38.6264 12.1028 40.4732C14.7744 42.32 18.35 42.1567 20.8422 40.0741L28.7859 45.1L28.3081 60.7193C14.0838 58.9048 3.03633 46.7175 3.03633 31.9991C3.04727 16.0351 16.0351 3.04362 32.0009 3.04362C47.9667 3.04362 60.9546 16.0315 60.9546 31.9973C60.9546 46.8197 49.7593 59.0726 35.3837 60.754Z" fill="#333E48"/>
<path d="M31.8182 11.791C33.899 11.793 35.5853 13.4793 35.5873 15.5601C35.5873 17.6417 33.8998 19.3292 31.8182 19.3292C29.7366 19.3292 28.0491 17.6417 28.0491 15.5601C28.0491 13.4785 29.7366 11.791 31.8182 11.791ZM46.0273 38.951C47.9148 38.95 49.4475 40.4762 49.4545 42.3637C49.4582 43.7481 48.6274 44.9982 47.3498 45.531C46.0721 46.0638 44.5992 45.7743 43.6183 44.7976C42.6374 43.8208 42.3416 42.3492 42.869 41.0692C43.3963 39.7893 44.6429 38.9532 46.0273 38.951ZM48.1364 29.0237C46.1369 29.9953 43.7284 29.1648 42.7527 27.1674C42.0391 25.703 42.2779 23.953 43.3577 22.7334C44.4376 21.5138 46.1458 21.0648 47.6858 21.5958C49.2258 22.1268 50.2942 23.5332 50.3928 25.1592C50.4915 26.7852 49.6009 28.3105 48.1364 29.0237ZM16.09 30.1437C18.4881 30.1457 20.4316 32.0893 20.4336 34.4874C20.4326 36.8848 18.4887 38.8277 16.0912 38.8274C13.6938 38.827 11.7503 36.8836 11.75 34.4862C11.7497 32.0887 13.6926 30.1447 16.09 30.1437Z" fill="#009BDE"/>
</g>
</svg>
