<svg width="92" height="92" viewBox="0 0 92 92" fill="none" xmlns="http://www.w3.org/2000/svg">
<circle cx="46" cy="46" r="46" fill="#EDF3F8"/>
<path d="M21.1101 67.1721L29.603 12.8271C29.7068 12.1606 30.2252 11.6352 30.8902 11.5222C31.5552 11.4093 32.2179 11.7343 32.5359 12.3291L41.319 28.711L44.8199 22.0453C45.091 21.5299 45.6255 21.2072 46.208 21.2072C46.7904 21.2072 47.3248 21.5299 47.596 22.0453L71.2984 67.172H21.1101V67.1721Z" fill="#FFA000"/>
<path d="M50.4525 46.0024L41.3166 28.703L21.1118 67.1719L50.4525 46.0024Z" fill="#F57C00"/>
<path d="M71.3005 67.172L64.7956 26.919C64.6973 26.341 64.2848 25.8661 63.7261 25.6871C63.1674 25.5081 62.556 25.6571 62.1411 26.0716L21.1118 67.1714L43.8144 79.9029C45.24 80.6989 46.9762 80.6989 48.4019 79.9029L71.3005 67.1714V67.172Z" fill="#FFCA28"/>
<path d="M64.7947 26.9189C64.6964 26.3408 64.2838 25.866 63.7252 25.687C63.1665 25.508 62.5551 25.657 62.1402 26.0714L53.9968 34.2354L47.5933 22.0447C47.3221 21.5293 46.7876 21.2066 46.2052 21.2066C45.6228 21.2066 45.0883 21.5293 44.8171 22.0447L41.3162 28.7104L32.5327 12.3288C32.2142 11.7338 31.5507 11.4093 30.8849 11.5232C30.2191 11.637 29.7025 12.1637 29.5998 12.8307L21.1109 67.1718H21.0835L21.1109 67.2032L21.3344 67.3129L62.1283 26.4719C62.543 26.0552 63.156 25.9054 63.7161 26.0839C64.2763 26.2623 64.6895 26.739 64.7868 27.3188L71.2368 67.2109L71.2996 67.1717L64.7947 26.9188L64.7947 26.9189ZM21.1854 67.0973L29.6038 13.215C29.7063 12.548 30.2241 12.0213 30.8894 11.9075C31.5546 11.7937 32.2181 12.1181 32.5372 12.7132L41.3198 29.095L44.8207 22.4293C45.0918 21.9139 45.6263 21.5912 46.2087 21.5912C46.7911 21.5912 47.3256 21.9139 47.5968 22.4293L53.8704 34.3609L21.185 67.0973H21.1854Z" fill="white" fill-opacity="0.2"/>
<path opacity="0.2" d="M48.4019 79.5192C46.9763 80.3152 45.2401 80.3152 43.8144 79.5192L21.1667 66.8231L21.1118 67.1721L43.8144 79.8997C45.24 80.6957 46.9762 80.6957 48.4019 79.8997L71.3005 67.1721L71.2417 66.8114L48.4019 79.5193V79.5192Z" fill="#A52714"/>
</svg>
