<svg width="64" height="64" viewBox="0 0 64 64" fill="none" xmlns="http://www.w3.org/2000/svg">
<circle cx="32" cy="32" r="32" fill="#4284FB"/>
<path d="M24.9334 31.9999C24.9334 34.7245 22.7247 36.9333 20.0001 36.9333C17.2755 36.9333 15.0667 34.7245 15.0667 31.9999C15.0667 29.2753 17.2755 27.0666 20.0001 27.0666C22.7247 27.0666 24.9334 29.2753 24.9334 31.9999Z" fill="white" stroke="white" stroke-width="0.8"/>
<path d="M36.9334 31.9999C36.9334 33.62 35.6201 34.9333 34.0001 34.9333C32.38 34.9333 31.0667 33.62 31.0667 31.9999C31.0667 30.3799 32.38 29.0666 34.0001 29.0666C35.6201 29.0666 36.9334 30.3799 36.9334 31.9999Z" fill="white" stroke="white" stroke-width="0.8"/>
<path d="M46.2667 32C46.2667 32.8837 45.5504 33.6 44.6667 33.6C43.7831 33.6 43.0667 32.8837 43.0667 32C43.0667 31.1163 43.7831 30.4 44.6667 30.4C45.5504 30.4 46.2667 31.1163 46.2667 32Z" fill="white" stroke="white" stroke-width="0.8"/>
</svg>
