<svg width="64" height="64" viewBox="0 0 64 64" fill="none" xmlns="http://www.w3.org/2000/svg">
<g clip-path="url(#clip0)">
<circle cx="32" cy="34.1333" r="32" fill="white"/>
<path fill-rule="evenodd" clip-rule="evenodd" d="M38.0541 51.6378C45.0959 49.1444 50.1622 42.4564 50.1622 34.5882C50.1622 24.5976 42.0151 16.4705 32 16.4705C21.9849 16.4705 13.8379 24.5976 13.8379 34.5882C13.8379 43.0896 19.7466 50.2176 27.6756 52.1589V53.936C18.7728 51.9656 12.1081 44.0629 12.1081 34.5882C12.1081 23.6296 21.0145 14.745 32 14.745C42.9856 14.745 51.8919 23.6296 51.8919 34.5882C51.8919 43.4382 46.0765 50.9216 38.0541 53.4771V51.6378ZM32.0001 25.0981C26.7537 25.0981 22.4865 29.3548 22.4865 34.5882C22.4865 38.2635 24.6055 41.4333 27.6758 43.0069V44.9257C23.6161 43.2364 20.7568 39.2506 20.7568 34.5882C20.7568 28.3937 25.7904 23.3726 32.0001 23.3726C38.2097 23.3726 43.2433 28.3937 43.2433 34.5882C43.2433 38.5535 41.1677 42.0217 38.0541 44.0146V41.8681C40.1575 40.1271 41.5136 37.5215 41.5136 34.5882C41.5136 29.3548 37.2464 25.0981 32.0001 25.0981ZM0 34.5882C0 45.7969 5.80151 55.6375 14.5626 61.3333C15.0919 60.9882 15.6351 60.6638 16.1834 60.3498C16.576 60.1271 16.9721 59.9149 17.3751 59.7079C17.856 59.4611 18.3439 59.2264 18.8385 59.0039C19.3315 58.7813 19.8297 58.5742 20.3364 58.3758C20.7481 58.2153 21.1632 58.0653 21.5836 57.9202C22.1699 57.7184 22.7649 57.5338 23.3686 57.3646C23.8218 57.2387 24.2785 57.1196 24.7404 57.0126C25.2074 56.904 25.6761 56.8022 26.1519 56.7142C26.6569 56.6209 27.1636 56.533 27.6756 56.4622C28.2499 56.4035 28.8225 56.3346 29.4054 56.288V54.2433V52.4988V45.4915V43.7109V37.1764H27.6756V33.7255H29.4054H34.5946H36.3244V43.0311V44.9411V52.1658V53.9464V56.4604C41.1121 57.1282 45.5628 58.814 49.4339 61.3315C58.1986 55.6375 64 45.7969 64 34.5882C64 16.9589 49.6726 2.66663 32 2.66663C14.3273 2.66663 0 16.9589 0 34.5882Z" fill="#E54B4D"/>
</g>
<defs>
<clipPath id="clip0">
<rect width="64" height="64" fill="white"/>
</clipPath>
</defs>
</svg>
