<svg width="64" height="64" viewBox="0 0 64 64" fill="none" xmlns="http://www.w3.org/2000/svg">
<circle cx="32" cy="32" r="32" fill="white"/>
<path fill-rule="evenodd" clip-rule="evenodd" d="M8.4201 25.9547C8.69829 26.0236 8.99357 25.9869 9.24404 25.8521C9.49452 25.7173 9.68074 25.4949 9.76369 25.2317C11.5305 19.9223 15.3077 15.4367 20.3536 12.6555C25.3995 9.87433 31.3497 8.99852 37.0358 10.2C37.3107 10.2548 37.5971 10.2063 37.8357 10.0646C38.0742 9.92287 38.2467 9.6988 38.3174 9.43877L39.2826 5.99173C39.3207 5.85306 39.329 5.70845 39.3071 5.56661C39.2851 5.42478 39.2334 5.28866 39.155 5.16647C39.0766 5.04427 38.9732 4.93854 38.8509 4.85564C38.7287 4.77274 38.5902 4.71439 38.4437 4.6841C31.2589 3.13382 23.7273 4.23204 17.3512 7.75973C10.975 11.2874 6.22286 16.9853 4.04245 23.717C4.00082 23.852 3.98796 23.9937 4.00464 24.1335C4.02131 24.2733 4.06718 24.4085 4.13952 24.5311C4.21185 24.6536 4.30919 24.761 4.42573 24.8469C4.54228 24.9327 4.67567 24.9953 4.81798 25.0309L8.4201 25.9547ZM26.5752 22.0684H58.5677C59.1769 22.0684 59.6707 22.5409 59.6707 23.1238V26.6894C59.6707 27.2724 59.1769 27.7449 58.5677 27.7449H26.5752C25.966 27.7449 25.4722 27.2724 25.4722 26.6894V23.1238C25.4722 22.5409 25.966 22.0684 26.5752 22.0684ZM5.41508 36.2548H37.4075C38.0167 36.2548 38.5106 36.7274 38.5106 37.3103V40.8759C38.5106 41.4588 38.0167 41.9314 37.4075 41.9314H5.41508C4.80588 41.9314 4.31203 41.4588 4.31203 40.8759V37.3103C4.31203 36.7274 4.80588 36.2548 5.41508 36.2548ZM54.753 38.1482C55.0034 38.0134 55.2987 37.9766 55.5768 38.0455L59.1795 38.9694C59.3218 39.0049 59.4552 39.0675 59.5717 39.1534C59.6883 39.2392 59.7856 39.3466 59.858 39.4692C59.9303 39.5917 59.9762 39.7269 59.9929 39.8667C60.0095 40.0066 59.9967 40.1482 59.955 40.2832C57.7746 47.0149 53.0225 52.7128 46.6463 56.2405C40.2702 59.7682 32.7386 60.8664 25.5538 59.3161C25.4073 59.2859 25.2688 59.2275 25.1465 59.1446C25.0243 59.0617 24.9208 58.956 24.8424 58.8338C24.7641 58.7116 24.7123 58.5755 24.6904 58.4336C24.6685 58.2918 24.6768 58.1472 24.7149 58.0085L25.6798 54.5615C25.7505 54.3015 25.923 54.0775 26.1615 53.9358C26.4 53.7941 26.6863 53.7456 26.9611 53.8002C32.6473 55.0018 38.5976 54.1261 43.6436 51.3449C48.6895 48.5637 52.4667 44.078 54.2335 38.7685C54.3164 38.5053 54.5026 38.283 54.753 38.1482ZM48.901 15.8359C50.6974 15.8359 52.1536 14.4424 52.1536 12.7235C52.1536 11.0046 50.6974 9.61117 48.901 9.61117C47.1047 9.61117 45.6484 11.0046 45.6484 12.7235C45.6484 14.4424 47.1047 15.8359 48.901 15.8359ZM18.3455 51.2768C18.3455 52.9957 16.8893 54.3892 15.0929 54.3892C13.2966 54.3892 11.8403 52.9957 11.8403 51.2768C11.8403 49.5579 13.2966 48.1645 15.0929 48.1645C16.8893 48.1645 18.3455 49.5579 18.3455 51.2768Z" fill="#52BD94"/>
</svg>
