<svg width="64" height="64" viewBox="0 0 64 64" fill="none" xmlns="http://www.w3.org/2000/svg">
<circle cx="32" cy="32" r="32" fill="#4A154B"/>
<path d="M19.6309 37.6286C19.6309 40.0955 17.6157 42.1107 15.1488 42.1107C12.6819 42.1107 10.6667 40.0955 10.6667 37.6286C10.6667 35.1617 12.6819 33.1465 15.1488 33.1465H19.6309V37.6286Z" fill="#E01E5A"/>
<path d="M21.8892 37.6286C21.8892 35.1617 23.9044 33.1465 26.3712 33.1465C28.8381 33.1465 30.8533 35.1617 30.8533 37.6286V48.8512C30.8533 51.3181 28.8381 53.3333 26.3712 53.3333C23.9044 53.3333 21.8892 51.3181 21.8892 48.8512V37.6286Z" fill="#E01E5A"/>
<path d="M26.3712 19.6307C23.9044 19.6307 21.8892 17.6155 21.8892 15.1487C21.8892 12.6818 23.9044 10.6666 26.3712 10.6666C28.8381 10.6666 30.8533 12.6818 30.8533 15.1487V19.6307H26.3712Z" fill="#36C5F0"/>
<path d="M26.3714 21.8892C28.8383 21.8892 30.8535 23.9044 30.8535 26.3713C30.8535 28.8382 28.8383 30.8534 26.3714 30.8534H15.1488C12.6819 30.8534 10.6667 28.8382 10.6667 26.3713C10.6667 23.9044 12.6819 21.8892 15.1488 21.8892H26.3714Z" fill="#36C5F0"/>
<path d="M44.3691 26.3713C44.3691 23.9044 46.3843 21.8892 48.8512 21.8892C51.3181 21.8892 53.3333 23.9044 53.3333 26.3713C53.3333 28.8382 51.3181 30.8534 48.8512 30.8534H44.3691V26.3713Z" fill="#2EB67D"/>
<path d="M42.1109 26.3712C42.1109 28.8381 40.0957 30.8533 37.6288 30.8533C35.1619 30.8533 33.1467 28.8381 33.1467 26.3712V15.1487C33.1467 12.6818 35.1619 10.6666 37.6288 10.6666C40.0957 10.6666 42.1109 12.6818 42.1109 15.1487V26.3712Z" fill="#2EB67D"/>
<path d="M37.6288 44.3691C40.0957 44.3691 42.1109 46.3843 42.1109 48.8512C42.1109 51.3181 40.0957 53.3333 37.6288 53.3333C35.1619 53.3333 33.1467 51.3181 33.1467 48.8512V44.3691H37.6288Z" fill="#ECB22E"/>
<path d="M37.6288 42.1107C35.1619 42.1107 33.1467 40.0955 33.1467 37.6286C33.1467 35.1617 35.1619 33.1465 37.6288 33.1465H48.8514C51.3183 33.1465 53.3335 35.1617 53.3335 37.6286C53.3335 40.0955 51.3183 42.1107 48.8514 42.1107H37.6288Z" fill="#ECB22E"/>
</svg>
