<svg width="64" height="64" viewBox="0 0 64 64" fill="none" xmlns="http://www.w3.org/2000/svg">
<g clip-path="url(#clip0)">
<path d="M64 32.1907C63.9779 49.9775 49.8015 64.018 31.8821 64C14.0729 63.9842 -0.0330078 49.811 5.80133e-05 31.9589C0.028715 14.2553 14.5005 -0.142934 32.118 0.00107088C49.9051 0.149576 64.0242 14.4061 64 32.1907Z" fill="white"/>
<path fill-rule="evenodd" clip-rule="evenodd" d="M32 64C49.6731 64 64 49.6731 64 32C64 14.3269 49.6731 0 32 0C14.3269 0 0 14.3269 0 32C0 49.6731 14.3269 64 32 64ZM32 60C47.464 60 60 47.464 60 32C60 16.536 47.464 4 32 4C16.536 4 4 16.536 4 32C4 47.464 16.536 60 32 60Z" fill="#5A95C9"/>
<path d="M47.9499 52.3771C45.2032 54.3743 42.4279 54.458 39.5313 53.3338C35.8191 51.8921 33.0636 49.4629 31.6484 45.7485C30.8544 43.6427 30.112 41.5178 29.422 39.3756C26.7084 31.043 17.4346 27.6108 9.72141 32.1144C8.66992 32.7272 7.66031 33.4039 6.58236 34.0807C5.9475 31.4244 6.73006 29.2972 9.15709 27.2559C13.7312 23.4093 19.0151 23.5283 24.4687 24.7694C25.6723 25.0427 26.8473 25.4836 28.0619 25.6291C36.9698 26.7114 43.9577 19.9616 43.292 10.9699C43.2347 10.2138 43.1509 9.45992 43.0738 8.64209C45.999 9.4996 47.7691 12.0809 48.0226 15.5683C48.4414 21.2666 45.6242 25.5211 41.6453 29.2355C39.0001 31.7044 37.0029 34.4819 36.8883 38.1919C36.7053 44.0864 39.56 48.2461 44.7425 50.9993C45.7168 51.5152 46.7771 51.8767 47.9499 52.3771Z" fill="#5A95C9"/>
</g>
<defs>
<clipPath id="clip0">
<rect width="64" height="64" fill="white"/>
</clipPath>
</defs>
</svg>
