<svg width="64" height="64" viewBox="0 0 64 64" fill="none" xmlns="http://www.w3.org/2000/svg">
<g clip-path="url(#clip0)">
<path d="M64 32.1907C63.9779 49.9775 49.8015 64.018 31.8821 64C14.0729 63.9842 -0.0330078 49.811 5.80133e-05 31.9589C0.028715 14.2553 14.5005 -0.142934 32.118 0.00107088C49.9051 0.149576 64.0242 14.4061 64 32.1907Z" fill="white"/>
<path fill-rule="evenodd" clip-rule="evenodd" d="M30.37 26.2909C28.2069 29.9271 26.1345 33.4484 24.019 36.9431C23.4757 37.8403 23.2069 38.5709 23.641 39.7115C24.8392 42.862 23.1489 45.9279 19.9717 46.7602C16.9756 47.5453 14.0564 45.5761 13.462 42.3683C12.9352 39.529 15.1386 36.7456 18.2689 36.3019C18.5313 36.2644 18.7989 36.26 19.2398 36.2269C20.7738 33.6548 22.3452 31.0201 24.0017 28.242C21.0067 25.264 19.2241 21.7826 19.6187 17.469C19.8976 14.4196 21.0966 11.7846 23.2883 9.62473C27.4859 5.4888 33.8897 4.81896 38.8321 7.99365C43.579 11.043 45.753 16.9829 43.8998 22.0668C42.5025 21.6879 41.0955 21.3058 39.5487 20.8863C40.1306 18.0598 39.7002 15.5215 37.7939 13.3471C36.5344 11.9115 34.9182 11.1591 33.0804 10.8818C29.3963 10.3252 25.779 12.6922 24.7058 16.3082C23.4874 20.4123 25.3313 23.7647 30.37 26.2909Z" fill="#C73A63"/>
<path fill-rule="evenodd" clip-rule="evenodd" d="M36.5472 21.9909C38.0711 24.6791 39.6183 27.408 41.1518 30.112C48.903 27.7139 54.7469 32.0046 56.8435 36.5984C59.3758 42.1473 57.6448 48.7196 52.6713 52.143C47.5665 55.6574 41.1107 55.0569 36.5879 50.5425C37.7406 49.5777 38.8989 48.6084 40.1366 47.573C44.6038 50.4663 48.5108 50.3301 51.4114 46.9039C53.8849 43.9811 53.8313 39.6231 51.2861 36.7616C48.3488 33.4596 44.4144 33.3588 39.6586 36.5287C37.6858 33.0287 35.6787 29.5566 33.7683 26.0313C33.1242 24.8431 32.4129 24.1539 30.9612 23.9024C28.5365 23.4821 26.9711 21.4 26.8772 19.0673C26.7849 16.7603 28.144 14.675 30.2683 13.8625C32.3726 13.0576 34.842 13.7073 36.2574 15.4964C37.4141 16.9582 37.7817 18.6034 37.1731 20.4061C37.0038 20.9087 36.7846 21.3952 36.5472 21.9909Z" fill="#4B4B4B"/>
<path fill-rule="evenodd" clip-rule="evenodd" d="M40.1894 43.9672C37.1244 43.9672 34.048 43.9672 30.8584 43.9672C29.9641 47.6457 28.0324 50.6156 24.7037 52.5042C22.1162 53.9721 19.3273 54.4698 16.3589 53.9906C10.8938 53.1092 6.42497 48.1894 6.03161 42.6493C5.58625 36.3736 9.89992 30.7953 15.6496 29.5422C16.0466 30.9839 16.4476 32.4392 16.8446 33.8773C11.5693 36.5687 9.74354 39.9598 11.2198 44.2001C12.5196 47.9318 16.2114 49.9772 20.22 49.1861C24.3136 48.3784 26.3775 44.9764 26.1256 39.5165C30.0064 39.5165 33.8904 39.4762 37.7717 39.5362C39.2871 39.56 40.4571 39.4028 41.5989 38.0668C43.4786 35.8682 46.9382 36.0665 48.9627 38.143C51.0314 40.2649 50.9323 43.6794 48.743 45.7119C46.6307 47.6731 43.2936 47.5683 41.3175 45.4552C40.9113 45.0195 40.5913 44.5024 40.1894 43.9672Z" fill="#4A4A4A"/>
</g>
<defs>
<clipPath id="clip0">
<rect width="64" height="64" fill="white"/>
</clipPath>
</defs>
</svg>
