<svg width="488" height="360" viewBox="0 0 488 360" fill="none" xmlns="http://www.w3.org/2000/svg">
<path d="M170.33 41.39H223.91C224.499 41.4183 225.088 41.3266 225.641 41.1204C226.194 40.9143 226.7 40.5981 227.127 40.1909C227.554 39.7837 227.894 39.2941 228.127 38.7516C228.359 38.2091 228.479 37.6251 228.479 37.035C228.479 36.4449 228.359 35.8609 228.127 35.3184C227.894 34.7759 227.554 34.2863 227.127 33.8791C226.7 33.4719 226.194 33.1557 225.641 32.9496C225.088 32.7435 224.499 32.6517 223.91 32.68H170.33C169.211 32.7336 168.156 33.2159 167.383 34.0267C166.61 34.8376 166.179 35.9148 166.179 37.035C166.179 38.1552 166.61 39.2324 167.383 40.0433C168.156 40.8541 169.211 41.3364 170.33 41.39Z" fill="#EDF3FF"/>
<path d="M170.33 44.39H223.91C224.899 44.4265 225.885 44.2632 226.809 43.91C227.733 43.5568 228.576 43.0209 229.289 42.3343C230.001 41.6478 230.568 40.8246 230.955 39.9141C231.342 39.0036 231.541 38.0244 231.541 37.035C231.541 36.0456 231.342 35.0664 230.955 34.1559C230.568 33.2454 230.001 32.4222 229.289 31.7357C228.576 31.0491 227.733 30.5132 226.809 30.16C225.885 29.8068 224.899 29.6435 223.91 29.68H170.33C168.426 29.7502 166.624 30.5558 165.302 31.9275C163.98 33.2992 163.241 35.13 163.241 37.035C163.241 38.94 163.98 40.7708 165.302 42.1425C166.624 43.5142 168.426 44.3198 170.33 44.39ZM170.33 32.68H223.91C224.499 32.6517 225.088 32.7435 225.641 32.9496C226.194 33.1557 226.7 33.4719 227.127 33.8791C227.554 34.2863 227.894 34.7759 228.127 35.3184C228.359 35.8609 228.479 36.4449 228.479 37.035C228.479 37.6251 228.359 38.2091 228.127 38.7516C227.894 39.2941 227.554 39.7837 227.127 40.1909C226.7 40.5981 226.194 40.9143 225.641 41.1204C225.088 41.3266 224.499 41.4183 223.91 41.39H170.33C169.211 41.3364 168.156 40.8541 167.383 40.0433C166.61 39.2324 166.179 38.1552 166.179 37.035C166.179 35.9148 166.61 34.8376 167.383 34.0267C168.156 33.2159 169.211 32.7336 170.33 32.68Z" fill="#181818"/>
<path d="M58.8301 52.69C58.838 43.759 62.3887 35.196 68.7029 28.8799C75.0171 22.5638 83.5791 19.0106 92.5101 19H301.73C310.663 19.0079 319.227 22.56 325.544 28.8763C331.86 35.1927 335.412 43.7573 335.42 52.69V342.82H338.42V52.69C338.409 42.9625 334.541 33.6364 327.662 26.7579C320.784 19.8795 311.458 16.0106 301.73 16H92.5101C82.7835 16.0106 73.4584 19.8799 66.5816 26.7586C59.7047 33.6373 55.838 42.9634 55.8301 52.69V342.82H58.8301V52.69Z" fill="#181818"/>
<path d="M303.38 31.52H270.53C270.405 31.52 270.286 31.5695 270.198 31.6577C270.11 31.7458 270.06 31.8653 270.06 31.99V43.91C270.055 49.0226 268.02 53.9239 264.403 57.5372C260.786 61.1504 255.883 63.18 250.77 63.18H141.98C136.871 63.1747 131.973 61.1428 128.36 57.5301C124.747 53.9174 122.715 49.0191 122.71 43.91V31.99C122.71 31.8671 122.662 31.749 122.576 31.6611C122.49 31.5733 122.373 31.5226 122.25 31.52H90.17C85.0874 31.5253 80.2145 33.5467 76.6206 37.1406C73.0267 40.7345 71.0053 45.6074 71 50.69V342.82H322.55V50.69C322.545 45.6074 320.523 40.7345 316.929 37.1406C313.335 33.5467 308.463 31.5253 303.38 31.52Z" fill="#F8FBFF"/>
<path d="M239.461 272.18H155.271C147.124 272.18 140.521 278.784 140.521 286.93V296.08C140.521 304.226 147.124 310.83 155.271 310.83H239.461C247.607 310.83 254.211 304.226 254.211 296.08V286.93C254.211 278.784 247.607 272.18 239.461 272.18Z" fill="#EDF3FF"/>
<path d="M282.66 129.55H112.07C109.27 129.55 107 131.82 107 134.62V138.83C107 141.63 109.27 143.9 112.07 143.9H282.66C285.46 143.9 287.73 141.63 287.73 138.83V134.62C287.73 131.82 285.46 129.55 282.66 129.55Z" fill="#EDF3FF"/>
<path d="M282.66 155H112.07C109.27 155 107 157.27 107 160.07V164.28C107 167.08 109.27 169.35 112.07 169.35H282.66C285.46 169.35 287.73 167.08 287.73 164.28V160.07C287.73 157.27 285.46 155 282.66 155Z" fill="#EDF3FF"/>
<path d="M282.66 180.44H112.07C109.27 180.44 107 182.71 107 185.51V189.72C107 192.52 109.27 194.79 112.07 194.79H282.66C285.46 194.79 287.73 192.52 287.73 189.72V185.51C287.73 182.71 285.46 180.44 282.66 180.44Z" fill="#EDF3FF"/>
<path d="M282.66 205.89H112.07C109.27 205.89 107 208.16 107 210.96V215.17C107 217.97 109.27 220.24 112.07 220.24H282.66C285.46 220.24 287.73 217.97 287.73 215.17V210.96C287.73 208.16 285.46 205.89 282.66 205.89Z" fill="#EDF3FF"/>
<path d="M282.66 231.33H112.07C109.27 231.33 107 233.6 107 236.4V240.61C107 243.41 109.27 245.68 112.07 245.68H282.66C285.46 245.68 287.73 243.41 287.73 240.61V236.4C287.73 233.6 285.46 231.33 282.66 231.33Z" fill="#EDF3FF"/>
<path d="M303.73 28.52H270.88C269.961 28.5226 269.08 28.8891 268.429 29.5393C267.779 30.1894 267.413 31.0705 267.41 31.99V43.91C267.405 48.2269 265.686 52.3652 262.632 55.4158C259.577 58.4665 255.437 60.18 251.12 60.18H142.33C138.017 60.1747 133.881 58.4589 130.831 55.4088C127.781 52.3587 126.065 48.2235 126.06 43.91V31.99C126.06 31.0714 125.696 30.1903 125.047 29.5399C124.399 28.8894 123.519 28.5226 122.6 28.52H90.5201C84.6419 28.5253 79.0059 30.8628 74.8494 35.0193C70.6929 39.1758 68.3554 44.8118 68.3501 50.69V342.82H71.3501V50.69C71.3554 45.6074 73.3768 40.7345 76.9707 37.1406C80.5646 33.5467 85.4375 31.5253 90.5201 31.52H122.6C122.723 31.5226 122.84 31.5733 122.926 31.6611C123.012 31.749 123.06 31.8671 123.06 31.99V43.91C123.065 49.0191 125.097 53.9174 128.71 57.5301C132.323 61.1428 137.221 63.1747 142.33 63.18H251.12C256.229 63.1747 261.127 61.1428 264.74 57.5301C268.353 53.9174 270.385 49.0191 270.39 43.91V31.99C270.39 31.8654 270.44 31.7458 270.528 31.6577C270.616 31.5695 270.735 31.52 270.86 31.52H303.71C308.793 31.5253 313.666 33.5467 317.259 37.1406C320.853 40.7345 322.875 45.6074 322.88 50.69V342.82H325.88V50.69C325.872 44.816 323.537 39.1847 319.385 35.0293C315.233 30.8739 309.604 28.5332 303.73 28.52Z" fill="#181818"/>
<path d="M412.64 91.7202H194C179.254 91.7202 167.3 103.674 167.3 118.42V201.1C167.3 215.846 179.254 227.8 194 227.8H412.64C427.386 227.8 439.34 215.846 439.34 201.1V118.42C439.34 103.674 427.386 91.7202 412.64 91.7202Z" fill="white"/>
<path d="M389.12 344.32H17.5C17.1022 344.32 16.7206 344.162 16.4393 343.881C16.158 343.599 16 343.218 16 342.82C16 342.422 16.158 342.041 16.4393 341.759C16.7206 341.478 17.1022 341.32 17.5 341.32H389.12C389.518 341.32 389.899 341.478 390.181 341.759C390.462 342.041 390.62 342.422 390.62 342.82C390.62 343.218 390.462 343.599 390.181 343.881C389.899 344.162 389.518 344.32 389.12 344.32Z" fill="#181818"/>
<circle cx="8" cy="276" r="8" fill="#FFD12D"/>
<path d="M372.452 26C372.297 25.7596 372.162 25.6194 372.104 25.4592C371.369 23.416 370.654 21.3729 369.938 19.3297C369.725 18.7288 369.513 18.1079 369.319 17.4869C369.145 16.9461 368.875 16.4854 368.333 16.2851C367.405 15.9445 366.497 15.604 365.568 15.2435C364.505 14.8428 363.461 14.4222 362.417 14.0216C361.779 13.7812 361.141 13.5809 360.503 13.3205C360.309 13.2404 360.174 13.0401 360 12.8798C360.174 12.7396 360.309 12.5193 360.503 12.4592C361.566 12.0385 362.649 11.6379 363.712 11.2373C364.698 10.8567 365.665 10.4961 366.651 10.1156C367.193 9.91525 367.734 9.71495 368.295 9.51464C368.759 9.33436 369.068 9.01387 369.242 8.53313C369.571 7.59168 369.899 6.65023 370.228 5.72881C370.77 4.2265 371.311 2.70416 371.852 1.20185C371.949 0.921418 371.988 0.620955 372.123 0.340524C372.2 0.180277 372.374 0 372.51 0C372.645 0 372.819 0.200308 372.877 0.360555C373.612 2.4037 374.327 4.44684 375.062 6.48998C375.275 7.11094 375.487 7.75193 375.7 8.37288C375.874 8.93374 376.164 9.33436 376.725 9.53467C378.117 10.0354 379.509 10.5562 380.901 11.0971C381.887 11.4777 382.873 11.8783 383.879 12.2589C384.13 12.359 384.42 12.3991 384.652 12.5193C384.807 12.5994 385 12.7596 385 12.8998C385 13.02 384.807 13.2404 384.671 13.2804C382.235 14.2419 379.818 15.1433 377.401 16.0647C377.305 16.1048 377.189 16.1448 377.073 16.1649C376.261 16.3451 375.835 16.8459 375.584 17.6872C375.275 18.7689 374.83 19.8105 374.462 20.8721C374.114 21.8737 373.747 22.8552 373.399 23.8567C373.206 24.4176 373.032 24.9985 372.819 25.5593C372.8 25.6795 372.645 25.7997 372.452 26Z" fill="#93E6CF"/>
<rect x="157" y="97" width="277" height="136" rx="22" fill="#0084FF"/>
<rect x="166.5" y="90.5" width="274" height="133" rx="20.5" fill="white" stroke="#0084FF" stroke-width="3"/>
<path d="M198.648 108.625V116.117C198.648 117.362 198.258 118.346 197.477 119.07C196.701 119.794 195.638 120.156 194.289 120.156C192.961 120.156 191.906 119.805 191.125 119.102C190.344 118.398 189.945 117.432 189.93 116.203V108.625H192.273V116.133C192.273 116.878 192.451 117.422 192.805 117.766C193.164 118.104 193.659 118.273 194.289 118.273C195.607 118.273 196.276 117.581 196.297 116.195V108.625H198.648ZM208.031 115.852C208.031 117.154 207.734 118.198 207.141 118.984C206.552 119.766 205.755 120.156 204.75 120.156C203.896 120.156 203.206 119.859 202.68 119.266V123.25H200.422V111.547H202.516L202.594 112.375C203.141 111.719 203.854 111.391 204.734 111.391C205.776 111.391 206.586 111.776 207.164 112.547C207.742 113.318 208.031 114.38 208.031 115.734V115.852ZM205.773 115.688C205.773 114.901 205.633 114.294 205.352 113.867C205.076 113.44 204.672 113.227 204.141 113.227C203.432 113.227 202.945 113.497 202.68 114.039V117.5C202.956 118.057 203.448 118.336 204.156 118.336C205.234 118.336 205.773 117.453 205.773 115.688ZM209.086 115.711C209.086 114.393 209.38 113.344 209.969 112.562C210.562 111.781 211.372 111.391 212.398 111.391C213.221 111.391 213.901 111.698 214.438 112.312V108H216.703V120H214.664L214.555 119.102C213.992 119.805 213.268 120.156 212.383 120.156C211.388 120.156 210.589 119.766 209.984 118.984C209.385 118.198 209.086 117.107 209.086 115.711ZM211.344 115.875C211.344 116.667 211.482 117.273 211.758 117.695C212.034 118.117 212.435 118.328 212.961 118.328C213.659 118.328 214.151 118.034 214.438 117.445V114.109C214.156 113.521 213.669 113.227 212.977 113.227C211.888 113.227 211.344 114.109 211.344 115.875ZM223.352 120C223.247 119.797 223.172 119.544 223.125 119.242C222.578 119.852 221.867 120.156 220.992 120.156C220.164 120.156 219.477 119.917 218.93 119.438C218.388 118.958 218.117 118.354 218.117 117.625C218.117 116.729 218.448 116.042 219.109 115.562C219.776 115.083 220.737 114.841 221.992 114.836H223.031V114.352C223.031 113.961 222.93 113.648 222.727 113.414C222.529 113.18 222.214 113.062 221.781 113.062C221.401 113.062 221.102 113.154 220.883 113.336C220.669 113.518 220.562 113.768 220.562 114.086H218.305C218.305 113.596 218.456 113.143 218.758 112.727C219.06 112.31 219.487 111.984 220.039 111.75C220.591 111.51 221.211 111.391 221.898 111.391C222.94 111.391 223.766 111.654 224.375 112.18C224.99 112.701 225.297 113.435 225.297 114.383V118.047C225.302 118.849 225.414 119.456 225.633 119.867V120H223.352ZM221.484 118.43C221.818 118.43 222.125 118.357 222.406 118.211C222.688 118.06 222.896 117.859 223.031 117.609V116.156H222.188C221.057 116.156 220.456 116.547 220.383 117.328L220.375 117.461C220.375 117.742 220.474 117.974 220.672 118.156C220.87 118.339 221.141 118.43 221.484 118.43ZM229.734 109.469V111.547H231.18V113.203H229.734V117.422C229.734 117.734 229.794 117.958 229.914 118.094C230.034 118.229 230.263 118.297 230.602 118.297C230.852 118.297 231.073 118.279 231.266 118.242V119.953C230.823 120.089 230.367 120.156 229.898 120.156C228.315 120.156 227.508 119.357 227.477 117.758V113.203H226.242V111.547H227.477V109.469H229.734ZM236.328 120.156C235.089 120.156 234.078 119.776 233.297 119.016C232.521 118.255 232.133 117.242 232.133 115.977V115.758C232.133 114.909 232.297 114.151 232.625 113.484C232.953 112.812 233.417 112.297 234.016 111.938C234.62 111.573 235.307 111.391 236.078 111.391C237.234 111.391 238.143 111.755 238.805 112.484C239.471 113.214 239.805 114.247 239.805 115.586V116.508H234.422C234.495 117.06 234.714 117.503 235.078 117.836C235.448 118.169 235.914 118.336 236.477 118.336C237.346 118.336 238.026 118.021 238.516 117.391L239.625 118.633C239.286 119.112 238.828 119.487 238.25 119.758C237.672 120.023 237.031 120.156 236.328 120.156ZM236.07 113.219C235.622 113.219 235.258 113.37 234.977 113.672C234.701 113.974 234.523 114.406 234.445 114.969H237.586V114.789C237.576 114.289 237.44 113.904 237.18 113.633C236.919 113.357 236.549 113.219 236.07 113.219ZM252.688 115.852C252.688 117.154 252.391 118.198 251.797 118.984C251.208 119.766 250.411 120.156 249.406 120.156C248.552 120.156 247.862 119.859 247.336 119.266V123.25H245.078V111.547H247.172L247.25 112.375C247.797 111.719 248.51 111.391 249.391 111.391C250.432 111.391 251.242 111.776 251.82 112.547C252.398 113.318 252.688 114.38 252.688 115.734V115.852ZM250.43 115.688C250.43 114.901 250.289 114.294 250.008 113.867C249.732 113.44 249.328 113.227 248.797 113.227C248.089 113.227 247.602 113.497 247.336 114.039V117.5C247.612 118.057 248.104 118.336 248.812 118.336C249.891 118.336 250.43 117.453 250.43 115.688ZM258.992 120C258.888 119.797 258.812 119.544 258.766 119.242C258.219 119.852 257.508 120.156 256.633 120.156C255.805 120.156 255.117 119.917 254.57 119.438C254.029 118.958 253.758 118.354 253.758 117.625C253.758 116.729 254.089 116.042 254.75 115.562C255.417 115.083 256.378 114.841 257.633 114.836H258.672V114.352C258.672 113.961 258.57 113.648 258.367 113.414C258.169 113.18 257.854 113.062 257.422 113.062C257.042 113.062 256.742 113.154 256.523 113.336C256.31 113.518 256.203 113.768 256.203 114.086H253.945C253.945 113.596 254.096 113.143 254.398 112.727C254.701 112.31 255.128 111.984 255.68 111.75C256.232 111.51 256.852 111.391 257.539 111.391C258.581 111.391 259.406 111.654 260.016 112.18C260.63 112.701 260.938 113.435 260.938 114.383V118.047C260.943 118.849 261.055 119.456 261.273 119.867V120H258.992ZM257.125 118.43C257.458 118.43 257.766 118.357 258.047 118.211C258.328 118.06 258.536 117.859 258.672 117.609V116.156H257.828C256.698 116.156 256.096 116.547 256.023 117.328L256.016 117.461C256.016 117.742 256.115 117.974 256.312 118.156C256.51 118.339 256.781 118.43 257.125 118.43ZM265.703 116.805L267.266 111.547H269.688L266.289 121.312L266.102 121.758C265.596 122.862 264.763 123.414 263.602 123.414C263.273 123.414 262.94 123.365 262.602 123.266V121.555L262.945 121.562C263.372 121.562 263.69 121.497 263.898 121.367C264.112 121.237 264.279 121.021 264.398 120.719L264.664 120.023L261.703 111.547H264.133L265.703 116.805ZM272.695 111.547L272.766 112.492C273.365 111.758 274.174 111.391 275.195 111.391C276.284 111.391 277.031 111.82 277.438 112.68C278.031 111.82 278.878 111.391 279.977 111.391C280.893 111.391 281.576 111.659 282.023 112.195C282.471 112.727 282.695 113.529 282.695 114.602V120H280.43V114.609C280.43 114.13 280.336 113.781 280.148 113.562C279.961 113.339 279.63 113.227 279.156 113.227C278.479 113.227 278.01 113.549 277.75 114.195L277.758 120H275.5V114.617C275.5 114.128 275.404 113.773 275.211 113.555C275.018 113.336 274.69 113.227 274.227 113.227C273.586 113.227 273.122 113.492 272.836 114.023V120H270.578V111.547H272.695ZM288.328 120.156C287.089 120.156 286.078 119.776 285.297 119.016C284.521 118.255 284.133 117.242 284.133 115.977V115.758C284.133 114.909 284.297 114.151 284.625 113.484C284.953 112.812 285.417 112.297 286.016 111.938C286.62 111.573 287.307 111.391 288.078 111.391C289.234 111.391 290.143 111.755 290.805 112.484C291.471 113.214 291.805 114.247 291.805 115.586V116.508H286.422C286.495 117.06 286.714 117.503 287.078 117.836C287.448 118.169 287.914 118.336 288.477 118.336C289.346 118.336 290.026 118.021 290.516 117.391L291.625 118.633C291.286 119.112 290.828 119.487 290.25 119.758C289.672 120.023 289.031 120.156 288.328 120.156ZM288.07 113.219C287.622 113.219 287.258 113.37 286.977 113.672C286.701 113.974 286.523 114.406 286.445 114.969H289.586V114.789C289.576 114.289 289.44 113.904 289.18 113.633C288.919 113.357 288.549 113.219 288.07 113.219ZM295.172 111.547L295.242 112.523C295.846 111.768 296.656 111.391 297.672 111.391C298.568 111.391 299.234 111.654 299.672 112.18C300.109 112.706 300.333 113.492 300.344 114.539V120H298.086V114.594C298.086 114.115 297.982 113.768 297.773 113.555C297.565 113.336 297.219 113.227 296.734 113.227C296.099 113.227 295.622 113.497 295.305 114.039V120H293.047V111.547H295.172ZM304.766 109.469V111.547H306.211V113.203H304.766V117.422C304.766 117.734 304.826 117.958 304.945 118.094C305.065 118.229 305.294 118.297 305.633 118.297C305.883 118.297 306.104 118.279 306.297 118.242V119.953C305.854 120.089 305.398 120.156 304.93 120.156C303.346 120.156 302.539 119.357 302.508 117.758V113.203H301.273V111.547H302.508V109.469H304.766ZM311.102 115.711C311.102 114.393 311.396 113.344 311.984 112.562C312.578 111.781 313.388 111.391 314.414 111.391C315.237 111.391 315.917 111.698 316.453 112.312V108H318.719V120H316.68L316.57 119.102C316.008 119.805 315.284 120.156 314.398 120.156C313.404 120.156 312.604 119.766 312 118.984C311.401 118.198 311.102 117.107 311.102 115.711ZM313.359 115.875C313.359 116.667 313.497 117.273 313.773 117.695C314.049 118.117 314.451 118.328 314.977 118.328C315.674 118.328 316.167 118.034 316.453 117.445V114.109C316.172 113.521 315.685 113.227 314.992 113.227C313.904 113.227 313.359 114.109 313.359 115.875ZM324.359 120.156C323.12 120.156 322.109 119.776 321.328 119.016C320.552 118.255 320.164 117.242 320.164 115.977V115.758C320.164 114.909 320.328 114.151 320.656 113.484C320.984 112.812 321.448 112.297 322.047 111.938C322.651 111.573 323.339 111.391 324.109 111.391C325.266 111.391 326.174 111.755 326.836 112.484C327.503 113.214 327.836 114.247 327.836 115.586V116.508H322.453C322.526 117.06 322.745 117.503 323.109 117.836C323.479 118.169 323.945 118.336 324.508 118.336C325.378 118.336 326.057 118.021 326.547 117.391L327.656 118.633C327.318 119.112 326.859 119.487 326.281 119.758C325.703 120.023 325.062 120.156 324.359 120.156ZM324.102 113.219C323.654 113.219 323.289 113.37 323.008 113.672C322.732 113.974 322.555 114.406 322.477 114.969H325.617V114.789C325.607 114.289 325.471 113.904 325.211 113.633C324.951 113.357 324.581 113.219 324.102 113.219ZM331.828 109.469V111.547H333.273V113.203H331.828V117.422C331.828 117.734 331.888 117.958 332.008 118.094C332.128 118.229 332.357 118.297 332.695 118.297C332.945 118.297 333.167 118.279 333.359 118.242V119.953C332.917 120.089 332.461 120.156 331.992 120.156C330.409 120.156 329.602 119.357 329.57 117.758V113.203H328.336V111.547H329.57V109.469H331.828ZM339.43 120C339.326 119.797 339.25 119.544 339.203 119.242C338.656 119.852 337.945 120.156 337.07 120.156C336.242 120.156 335.555 119.917 335.008 119.438C334.466 118.958 334.195 118.354 334.195 117.625C334.195 116.729 334.526 116.042 335.188 115.562C335.854 115.083 336.815 114.841 338.07 114.836H339.109V114.352C339.109 113.961 339.008 113.648 338.805 113.414C338.607 113.18 338.292 113.062 337.859 113.062C337.479 113.062 337.18 113.154 336.961 113.336C336.747 113.518 336.641 113.768 336.641 114.086H334.383C334.383 113.596 334.534 113.143 334.836 112.727C335.138 112.31 335.565 111.984 336.117 111.75C336.669 111.51 337.289 111.391 337.977 111.391C339.018 111.391 339.844 111.654 340.453 112.18C341.068 112.701 341.375 113.435 341.375 114.383V118.047C341.38 118.849 341.492 119.456 341.711 119.867V120H339.43ZM337.562 118.43C337.896 118.43 338.203 118.357 338.484 118.211C338.766 118.06 338.974 117.859 339.109 117.609V116.156H338.266C337.135 116.156 336.534 116.547 336.461 117.328L336.453 117.461C336.453 117.742 336.552 117.974 336.75 118.156C336.948 118.339 337.219 118.43 337.562 118.43ZM345.492 120H343.227V111.547H345.492V120ZM343.094 109.359C343.094 109.021 343.206 108.742 343.43 108.523C343.659 108.305 343.969 108.195 344.359 108.195C344.745 108.195 345.052 108.305 345.281 108.523C345.51 108.742 345.625 109.021 345.625 109.359C345.625 109.703 345.508 109.984 345.273 110.203C345.044 110.422 344.74 110.531 344.359 110.531C343.979 110.531 343.672 110.422 343.438 110.203C343.208 109.984 343.094 109.703 343.094 109.359ZM349.742 120H347.477V108H349.742V120ZM356.188 117.664C356.188 117.388 356.049 117.172 355.773 117.016C355.503 116.854 355.065 116.711 354.461 116.586C352.451 116.164 351.445 115.31 351.445 114.023C351.445 113.273 351.755 112.648 352.375 112.148C353 111.643 353.815 111.391 354.82 111.391C355.893 111.391 356.75 111.643 357.391 112.148C358.036 112.654 358.359 113.31 358.359 114.117H356.102C356.102 113.794 355.997 113.529 355.789 113.32C355.581 113.107 355.255 113 354.812 113C354.432 113 354.138 113.086 353.93 113.258C353.721 113.43 353.617 113.648 353.617 113.914C353.617 114.164 353.734 114.367 353.969 114.523C354.208 114.674 354.609 114.807 355.172 114.922C355.734 115.031 356.208 115.156 356.594 115.297C357.786 115.734 358.383 116.492 358.383 117.57C358.383 118.341 358.052 118.966 357.391 119.445C356.729 119.919 355.875 120.156 354.828 120.156C354.12 120.156 353.49 120.031 352.938 119.781C352.391 119.526 351.961 119.18 351.648 118.742C351.336 118.299 351.18 117.823 351.18 117.312H353.32C353.341 117.714 353.49 118.021 353.766 118.234C354.042 118.448 354.411 118.555 354.875 118.555C355.307 118.555 355.633 118.474 355.852 118.312C356.076 118.146 356.188 117.93 356.188 117.664Z" fill="#0084FF"/>
<rect x="189" y="160" width="180" height="10" rx="4" fill="#0084FF"/>
<rect x="189" y="180" width="215" height="10" rx="4" fill="#0084FF"/>
<path d="M424.01 75.5698C423.393 75.5682 422.799 75.3386 422.341 74.9251C421.883 74.5116 421.594 73.9434 421.53 73.3298L420.26 61.3298C420.19 60.6668 420.386 60.0029 420.805 59.4844C421.224 58.9659 421.832 58.6351 422.495 58.5648C423.158 58.4945 423.822 58.6905 424.34 59.1096C424.859 59.5288 425.19 60.1368 425.26 60.7998L426.53 72.7998C426.565 73.1256 426.535 73.4549 426.442 73.7691C426.349 74.0832 426.195 74.376 425.989 74.6305C425.782 74.885 425.528 75.0964 425.24 75.2524C424.952 75.4084 424.636 75.5061 424.31 75.5398L424.01 75.5698Z" fill="#0084FF"/>
<path d="M456.78 100.2C456.117 100.257 455.458 100.048 454.949 99.6196C454.44 99.1911 454.122 98.5778 454.065 97.9148C454.008 97.2517 454.217 96.5932 454.645 96.084C455.074 95.5749 455.687 95.2568 456.35 95.1998L468.25 93.0698C468.577 93.0019 468.915 93.0002 469.242 93.0649C469.57 93.1296 469.882 93.2594 470.158 93.4466C470.435 93.6337 470.672 93.8745 470.854 94.1546C471.036 94.4347 471.16 94.7485 471.219 95.0774C471.278 95.4063 471.27 95.7437 471.196 96.0696C471.123 96.3955 470.984 96.7033 470.789 96.9748C470.595 97.2463 470.348 97.476 470.062 97.6503C469.777 97.8247 469.46 97.9401 469.13 97.9898L457.22 100.16C457.075 100.188 456.928 100.202 456.78 100.2Z" fill="#0084FF"/>
<path d="M438.06 80.0701C437.685 80.0696 437.316 79.9841 436.98 79.8201C436.384 79.5325 435.926 79.0214 435.705 78.3978C435.484 77.7742 435.518 77.0886 435.8 76.4901L441.54 64.4901C441.84 63.9179 442.351 63.4842 442.964 63.2802C443.577 63.0762 444.246 63.1175 444.829 63.3957C445.412 63.6738 445.865 64.167 446.093 64.7719C446.321 65.3768 446.305 66.0463 446.05 66.6401L440.31 78.6401C440.109 79.0672 439.791 79.4284 439.392 79.6815C438.994 79.9347 438.532 80.0695 438.06 80.0701Z" fill="#0084FF"/>
<path d="M449.59 88.7401C449.082 88.7403 448.587 88.5861 448.17 88.2982C447.752 88.0102 447.432 87.602 447.252 87.1279C447.072 86.6537 447.04 86.136 447.161 85.6434C447.282 85.1508 447.55 84.7068 447.93 84.3701L457.86 75.5301C458.105 75.3115 458.39 75.1432 458.7 75.0349C459.01 74.9266 459.338 74.8805 459.666 74.899C459.994 74.9176 460.315 75.0005 460.61 75.1431C460.906 75.2857 461.171 75.4852 461.39 75.7301C461.608 75.975 461.777 76.2606 461.885 76.5706C461.993 76.8805 462.039 77.2087 462.021 77.5365C462.002 77.8643 461.919 78.1852 461.777 78.481C461.634 78.7767 461.435 79.0415 461.19 79.2601L451.26 88.1001C450.802 88.5137 450.207 88.7419 449.59 88.7401Z" fill="#0084FF"/>
<rect x="165" y="137" width="277" height="3" fill="#0084FF"/>
</svg>
