<svg width="488" height="360" viewBox="0 0 488 360" fill="none" xmlns="http://www.w3.org/2000/svg">
<path d="M349.61 19H140.39C131.458 19.0079 122.893 22.56 116.577 28.8763C110.26 35.1927 106.708 43.7573 106.7 52.69V342.82H116.22V50.69C116.228 44.8126 118.566 39.1782 122.722 35.0222C126.878 30.8662 132.513 28.5279 138.39 28.52H170.47C171.389 28.5226 172.269 28.8894 172.917 29.5399C173.566 30.1903 173.93 31.0714 173.93 31.99V43.91C173.935 48.2234 175.651 52.3587 178.701 55.4088C181.751 58.4589 185.887 60.1747 190.2 60.18H299.02C303.333 60.1747 307.467 58.4585 310.515 55.4082C313.564 52.3578 315.278 48.2225 315.28 43.91V31.99C315.283 31.0705 315.649 30.1894 316.299 29.5393C316.95 28.8891 317.831 28.5226 318.75 28.52H351.6C357.478 28.5253 363.114 30.8628 367.271 35.0193C371.427 39.1758 373.765 44.8118 373.77 50.69V342.82H383.29V52.69C383.282 43.759 379.732 35.196 373.417 28.8799C367.103 22.5638 358.541 19.0106 349.61 19ZM271.79 44.39H218.21C217.222 44.4265 216.236 44.2632 215.311 43.91C214.387 43.5568 213.544 43.0209 212.831 42.3343C212.119 41.6478 211.552 40.8246 211.165 39.9141C210.778 39.0036 210.579 38.0244 210.579 37.035C210.579 36.0456 210.778 35.0664 211.165 34.1559C211.552 33.2454 212.119 32.4222 212.831 31.7357C213.544 31.0491 214.387 30.5132 215.311 30.16C216.236 29.8068 217.222 29.6435 218.21 29.68H271.79C273.694 29.7502 275.496 30.5558 276.818 31.9275C278.14 33.2992 278.879 35.13 278.879 37.035C278.879 38.94 278.14 40.7708 276.818 42.1425C275.496 43.5142 273.694 44.3198 271.79 44.39Z" fill="white"/>
<path d="M106.7 52.69C106.708 43.7573 110.26 35.1927 116.577 28.8763C122.893 22.56 131.458 19.0079 140.39 19H349.61C358.541 19.0106 367.103 22.5638 373.417 28.8799C379.732 35.196 383.282 43.759 383.29 52.69V342.82H386.29V52.69C386.282 42.9634 382.416 33.6373 375.539 26.7586C368.662 19.8799 359.337 16.0106 349.61 16H140.39C130.663 16.0106 121.337 19.8795 114.458 26.7579C107.58 33.6364 103.711 42.9625 103.7 52.69V342.82H106.7V52.69Z" fill="#181818"/>
<path d="M351.38 31.52H318.53C318.405 31.52 318.286 31.5695 318.198 31.6577C318.11 31.7458 318.06 31.8653 318.06 31.99V43.91C318.055 49.0174 316.024 53.9142 312.414 57.5266C308.803 61.139 303.907 63.1721 298.8 63.18H189.98C184.872 63.1721 179.975 61.1393 176.363 57.5272C172.751 53.9151 170.718 49.0183 170.71 43.91V31.99C170.71 31.8671 170.662 31.749 170.576 31.6611C170.49 31.5733 170.373 31.5226 170.25 31.52H138.17C133.087 31.5253 128.215 33.5467 124.621 37.1406C121.027 40.7345 119.005 45.6074 119 50.69V342.82H370.55V50.69C370.545 45.6074 368.523 40.7345 364.929 37.1406C361.335 33.5467 356.463 31.5253 351.38 31.52Z" fill="#F8FBFF"/>
<path d="M160.882 225.704C160.882 225.165 160.691 224.711 160.311 224.342C159.936 223.973 159.3 223.639 158.403 223.34C157.155 222.959 156.244 222.464 155.67 221.854C155.102 221.239 154.817 220.46 154.817 219.517C154.817 218.556 155.096 217.768 155.652 217.152C156.215 216.537 156.985 216.171 157.964 216.054V214.129H159.273V216.062C160.258 216.197 161.022 216.61 161.567 217.302C162.118 217.993 162.394 218.939 162.394 220.141H160.776C160.776 219.314 160.58 218.658 160.188 218.172C159.795 217.686 159.265 217.442 158.597 217.442C157.899 217.442 157.366 217.624 156.997 217.987C156.628 218.345 156.443 218.846 156.443 219.49C156.443 220.088 156.637 220.565 157.023 220.923C157.416 221.274 158.058 221.597 158.948 221.89C159.845 222.177 160.542 222.496 161.04 222.848C161.544 223.193 161.913 223.598 162.147 224.061C162.388 224.523 162.508 225.065 162.508 225.687C162.508 226.677 162.209 227.474 161.611 228.077C161.02 228.681 160.188 229.038 159.115 229.149V230.828H157.814V229.149C156.725 229.05 155.869 228.663 155.248 227.989C154.633 227.31 154.325 226.39 154.325 225.229H155.951C155.951 226.044 156.165 226.671 156.593 227.11C157.021 227.55 157.627 227.77 158.412 227.77C159.18 227.77 159.783 227.585 160.223 227.216C160.662 226.847 160.882 226.343 160.882 225.704ZM169.873 229H168.238V218.163L164.96 219.367V217.891L169.618 216.142H169.873V229ZM181.501 224.702H183.276V226.029H181.501V229H179.866V226.029H174.039V225.071L179.77 216.203H181.501V224.702ZM175.885 224.702H179.866V218.427L179.673 218.778L175.885 224.702ZM184.946 228.147C184.946 227.866 185.028 227.632 185.192 227.444C185.362 227.257 185.614 227.163 185.948 227.163C186.282 227.163 186.534 227.257 186.704 227.444C186.88 227.632 186.968 227.866 186.968 228.147C186.968 228.417 186.88 228.643 186.704 228.824C186.534 229.006 186.282 229.097 185.948 229.097C185.614 229.097 185.362 229.006 185.192 228.824C185.028 228.643 184.946 228.417 184.946 228.147ZM195.722 223.375C195.382 223.779 194.975 224.104 194.5 224.351C194.031 224.597 193.516 224.72 192.953 224.72C192.215 224.72 191.57 224.538 191.02 224.175C190.475 223.812 190.053 223.302 189.754 222.646C189.455 221.983 189.306 221.254 189.306 220.457C189.306 219.602 189.467 218.831 189.789 218.146C190.117 217.46 190.58 216.936 191.178 216.572C191.775 216.209 192.473 216.027 193.27 216.027C194.535 216.027 195.531 216.502 196.258 217.451C196.99 218.395 197.356 219.684 197.356 221.318V221.793C197.356 224.283 196.864 226.103 195.88 227.251C194.896 228.394 193.41 228.979 191.424 229.009H191.107V227.638H191.45C192.792 227.614 193.823 227.266 194.544 226.592C195.265 225.912 195.657 224.84 195.722 223.375ZM193.217 223.375C193.762 223.375 194.263 223.208 194.72 222.874C195.183 222.54 195.52 222.127 195.73 221.635V220.984C195.73 219.918 195.499 219.051 195.036 218.383C194.573 217.715 193.987 217.381 193.278 217.381C192.563 217.381 191.989 217.656 191.556 218.207C191.122 218.752 190.905 219.473 190.905 220.369C190.905 221.242 191.113 221.963 191.529 222.531C191.951 223.094 192.514 223.375 193.217 223.375ZM205.829 223.375C205.489 223.779 205.082 224.104 204.607 224.351C204.139 224.597 203.623 224.72 203.061 224.72C202.322 224.72 201.678 224.538 201.127 224.175C200.582 223.812 200.16 223.302 199.861 222.646C199.562 221.983 199.413 221.254 199.413 220.457C199.413 219.602 199.574 218.831 199.896 218.146C200.225 217.46 200.688 216.936 201.285 216.572C201.883 216.209 202.58 216.027 203.377 216.027C204.643 216.027 205.639 216.502 206.365 217.451C207.098 218.395 207.464 219.684 207.464 221.318V221.793C207.464 224.283 206.972 226.103 205.987 227.251C205.003 228.394 203.518 228.979 201.531 229.009H201.215V227.638H201.558C202.899 227.614 203.931 227.266 204.651 226.592C205.372 225.912 205.765 224.84 205.829 223.375ZM203.324 223.375C203.869 223.375 204.37 223.208 204.827 222.874C205.29 222.54 205.627 222.127 205.838 221.635V220.984C205.838 219.918 205.606 219.051 205.144 218.383C204.681 217.715 204.095 217.381 203.386 217.381C202.671 217.381 202.097 217.656 201.663 218.207C201.229 218.752 201.013 219.473 201.013 220.369C201.013 221.242 201.221 221.963 201.637 222.531C202.059 223.094 202.621 223.375 203.324 223.375Z" fill="#181818"/>
<path d="M287.882 225.704C287.882 225.165 287.691 224.711 287.311 224.342C286.936 223.973 286.3 223.639 285.403 223.34C284.155 222.959 283.244 222.464 282.67 221.854C282.102 221.239 281.817 220.46 281.817 219.517C281.817 218.556 282.096 217.768 282.652 217.152C283.215 216.537 283.985 216.171 284.964 216.054V214.129H286.273V216.062C287.258 216.197 288.022 216.61 288.567 217.302C289.118 217.993 289.394 218.939 289.394 220.141H287.776C287.776 219.314 287.58 218.658 287.188 218.172C286.795 217.686 286.265 217.442 285.597 217.442C284.899 217.442 284.366 217.624 283.997 217.987C283.628 218.345 283.443 218.846 283.443 219.49C283.443 220.088 283.637 220.565 284.023 220.923C284.416 221.274 285.058 221.597 285.948 221.89C286.845 222.177 287.542 222.496 288.04 222.848C288.544 223.193 288.913 223.598 289.147 224.061C289.388 224.523 289.508 225.065 289.508 225.687C289.508 226.677 289.209 227.474 288.611 228.077C288.02 228.681 287.188 229.038 286.115 229.149V230.828H284.814V229.149C283.725 229.05 282.869 228.663 282.248 227.989C281.633 227.31 281.325 226.39 281.325 225.229H282.951C282.951 226.044 283.165 226.671 283.593 227.11C284.021 227.55 284.627 227.77 285.412 227.77C286.18 227.77 286.783 227.585 287.223 227.216C287.662 226.847 287.882 226.343 287.882 225.704ZM296.873 229H295.238V218.163L291.96 219.367V217.891L296.618 216.142H296.873V229ZM307.868 223.375C307.528 223.779 307.121 224.104 306.646 224.351C306.178 224.597 305.662 224.72 305.1 224.72C304.361 224.72 303.717 224.538 303.166 224.175C302.621 223.812 302.199 223.302 301.9 222.646C301.602 221.983 301.452 221.254 301.452 220.457C301.452 219.602 301.613 218.831 301.936 218.146C302.264 217.46 302.727 216.936 303.324 216.572C303.922 216.209 304.619 216.027 305.416 216.027C306.682 216.027 307.678 216.502 308.404 217.451C309.137 218.395 309.503 219.684 309.503 221.318V221.793C309.503 224.283 309.011 226.103 308.026 227.251C307.042 228.394 305.557 228.979 303.57 229.009H303.254V227.638H303.597C304.938 227.614 305.97 227.266 306.69 226.592C307.411 225.912 307.804 224.84 307.868 223.375ZM305.363 223.375C305.908 223.375 306.409 223.208 306.866 222.874C307.329 222.54 307.666 222.127 307.877 221.635V220.984C307.877 219.918 307.646 219.051 307.183 218.383C306.72 217.715 306.134 217.381 305.425 217.381C304.71 217.381 304.136 217.656 303.702 218.207C303.269 218.752 303.052 219.473 303.052 220.369C303.052 221.242 303.26 221.963 303.676 222.531C304.098 223.094 304.66 223.375 305.363 223.375ZM311.946 228.147C311.946 227.866 312.028 227.632 312.192 227.444C312.362 227.257 312.614 227.163 312.948 227.163C313.282 227.163 313.534 227.257 313.704 227.444C313.88 227.632 313.968 227.866 313.968 228.147C313.968 228.417 313.88 228.643 313.704 228.824C313.534 229.006 313.282 229.097 312.948 229.097C312.614 229.097 312.362 229.006 312.192 228.824C312.028 228.643 311.946 228.417 311.946 228.147ZM322.722 223.375C322.382 223.779 321.975 224.104 321.5 224.351C321.031 224.597 320.516 224.72 319.953 224.72C319.215 224.72 318.57 224.538 318.02 224.175C317.475 223.812 317.053 223.302 316.754 222.646C316.455 221.983 316.306 221.254 316.306 220.457C316.306 219.602 316.467 218.831 316.789 218.146C317.117 217.46 317.58 216.936 318.178 216.572C318.775 216.209 319.473 216.027 320.27 216.027C321.535 216.027 322.531 216.502 323.258 217.451C323.99 218.395 324.356 219.684 324.356 221.318V221.793C324.356 224.283 323.864 226.103 322.88 227.251C321.896 228.394 320.41 228.979 318.424 229.009H318.107V227.638H318.45C319.792 227.614 320.823 227.266 321.544 226.592C322.265 225.912 322.657 224.84 322.722 223.375ZM320.217 223.375C320.762 223.375 321.263 223.208 321.72 222.874C322.183 222.54 322.52 222.127 322.73 221.635V220.984C322.73 219.918 322.499 219.051 322.036 218.383C321.573 217.715 320.987 217.381 320.278 217.381C319.563 217.381 318.989 217.656 318.556 218.207C318.122 218.752 317.905 219.473 317.905 220.369C317.905 221.242 318.113 221.963 318.529 222.531C318.951 223.094 319.514 223.375 320.217 223.375ZM332.829 223.375C332.489 223.779 332.082 224.104 331.607 224.351C331.139 224.597 330.623 224.72 330.061 224.72C329.322 224.72 328.678 224.538 328.127 224.175C327.582 223.812 327.16 223.302 326.861 222.646C326.562 221.983 326.413 221.254 326.413 220.457C326.413 219.602 326.574 218.831 326.896 218.146C327.225 217.46 327.688 216.936 328.285 216.572C328.883 216.209 329.58 216.027 330.377 216.027C331.643 216.027 332.639 216.502 333.365 217.451C334.098 218.395 334.464 219.684 334.464 221.318V221.793C334.464 224.283 333.972 226.103 332.987 227.251C332.003 228.394 330.518 228.979 328.531 229.009H328.215V227.638H328.558C329.899 227.614 330.931 227.266 331.651 226.592C332.372 225.912 332.765 224.84 332.829 223.375ZM330.324 223.375C330.869 223.375 331.37 223.208 331.827 222.874C332.29 222.54 332.627 222.127 332.838 221.635V220.984C332.838 219.918 332.606 219.051 332.144 218.383C331.681 217.715 331.095 217.381 330.386 217.381C329.671 217.381 329.097 217.656 328.663 218.207C328.229 218.752 328.013 219.473 328.013 220.369C328.013 221.242 328.221 221.963 328.637 222.531C329.059 223.094 329.621 223.375 330.324 223.375Z" fill="#181818"/>
<path d="M191.75 104.625V112.117C191.75 113.362 191.359 114.346 190.578 115.07C189.802 115.794 188.74 116.156 187.391 116.156C186.062 116.156 185.008 115.805 184.227 115.102C183.445 114.398 183.047 113.432 183.031 112.203V104.625H185.375V112.133C185.375 112.878 185.552 113.422 185.906 113.766C186.266 114.104 186.76 114.273 187.391 114.273C188.708 114.273 189.378 113.581 189.398 112.195V104.625H191.75ZM195.602 107.547L195.672 108.523C196.276 107.768 197.086 107.391 198.102 107.391C198.997 107.391 199.664 107.654 200.102 108.18C200.539 108.706 200.763 109.492 200.773 110.539V116H198.516V110.594C198.516 110.115 198.411 109.768 198.203 109.555C197.995 109.336 197.648 109.227 197.164 109.227C196.529 109.227 196.052 109.497 195.734 110.039V116H193.477V107.547H195.602ZM204.875 116H202.609V104H204.875V116ZM209.125 116H206.859V107.547H209.125V116ZM206.727 105.359C206.727 105.021 206.839 104.742 207.062 104.523C207.292 104.305 207.602 104.195 207.992 104.195C208.378 104.195 208.685 104.305 208.914 104.523C209.143 104.742 209.258 105.021 209.258 105.359C209.258 105.703 209.141 105.984 208.906 106.203C208.677 106.422 208.372 106.531 207.992 106.531C207.612 106.531 207.305 106.422 207.07 106.203C206.841 105.984 206.727 105.703 206.727 105.359ZM213.109 107.547L213.18 108.492C213.779 107.758 214.589 107.391 215.609 107.391C216.698 107.391 217.445 107.82 217.852 108.68C218.445 107.82 219.292 107.391 220.391 107.391C221.307 107.391 221.99 107.659 222.438 108.195C222.885 108.727 223.109 109.529 223.109 110.602V116H220.844V110.609C220.844 110.13 220.75 109.781 220.562 109.562C220.375 109.339 220.044 109.227 219.57 109.227C218.893 109.227 218.424 109.549 218.164 110.195L218.172 116H215.914V110.617C215.914 110.128 215.818 109.773 215.625 109.555C215.432 109.336 215.104 109.227 214.641 109.227C214 109.227 213.536 109.492 213.25 110.023V116H210.992V107.547H213.109ZM227.234 116H224.969V107.547H227.234V116ZM224.836 105.359C224.836 105.021 224.948 104.742 225.172 104.523C225.401 104.305 225.711 104.195 226.102 104.195C226.487 104.195 226.794 104.305 227.023 104.523C227.253 104.742 227.367 105.021 227.367 105.359C227.367 105.703 227.25 105.984 227.016 106.203C226.786 106.422 226.482 106.531 226.102 106.531C225.721 106.531 225.414 106.422 225.18 106.203C224.951 105.984 224.836 105.703 224.836 105.359ZM231.805 105.469V107.547H233.25V109.203H231.805V113.422C231.805 113.734 231.865 113.958 231.984 114.094C232.104 114.229 232.333 114.297 232.672 114.297C232.922 114.297 233.143 114.279 233.336 114.242V115.953C232.893 116.089 232.438 116.156 231.969 116.156C230.385 116.156 229.578 115.357 229.547 113.758V109.203H228.312V107.547H229.547V105.469H231.805ZM238.398 116.156C237.159 116.156 236.148 115.776 235.367 115.016C234.591 114.255 234.203 113.242 234.203 111.977V111.758C234.203 110.909 234.367 110.151 234.695 109.484C235.023 108.812 235.487 108.297 236.086 107.938C236.69 107.573 237.378 107.391 238.148 107.391C239.305 107.391 240.214 107.755 240.875 108.484C241.542 109.214 241.875 110.247 241.875 111.586V112.508H236.492C236.565 113.06 236.784 113.503 237.148 113.836C237.518 114.169 237.984 114.336 238.547 114.336C239.417 114.336 240.096 114.021 240.586 113.391L241.695 114.633C241.357 115.112 240.898 115.487 240.32 115.758C239.742 116.023 239.102 116.156 238.398 116.156ZM238.141 109.219C237.693 109.219 237.328 109.37 237.047 109.672C236.771 109.974 236.594 110.406 236.516 110.969H239.656V110.789C239.646 110.289 239.51 109.904 239.25 109.633C238.99 109.357 238.62 109.219 238.141 109.219ZM242.812 111.711C242.812 110.393 243.107 109.344 243.695 108.562C244.289 107.781 245.099 107.391 246.125 107.391C246.948 107.391 247.628 107.698 248.164 108.312V104H250.43V116H248.391L248.281 115.102C247.719 115.805 246.995 116.156 246.109 116.156C245.115 116.156 244.315 115.766 243.711 114.984C243.112 114.198 242.812 113.107 242.812 111.711ZM245.07 111.875C245.07 112.667 245.208 113.273 245.484 113.695C245.76 114.117 246.161 114.328 246.688 114.328C247.385 114.328 247.878 114.034 248.164 113.445V110.109C247.883 109.521 247.396 109.227 246.703 109.227C245.615 109.227 245.07 110.109 245.07 111.875ZM262.734 113.656H258.625L257.844 116H255.352L259.586 104.625H261.758L266.016 116H263.523L262.734 113.656ZM259.258 111.758H262.102L260.672 107.5L259.258 111.758ZM270.445 114.336C270.862 114.336 271.201 114.221 271.461 113.992C271.721 113.763 271.857 113.458 271.867 113.078H273.984C273.979 113.651 273.823 114.177 273.516 114.656C273.208 115.13 272.786 115.5 272.25 115.766C271.719 116.026 271.13 116.156 270.484 116.156C269.276 116.156 268.323 115.773 267.625 115.008C266.927 114.237 266.578 113.174 266.578 111.82V111.672C266.578 110.37 266.924 109.331 267.617 108.555C268.31 107.779 269.26 107.391 270.469 107.391C271.526 107.391 272.372 107.693 273.008 108.297C273.648 108.896 273.974 109.695 273.984 110.695H271.867C271.857 110.258 271.721 109.904 271.461 109.633C271.201 109.357 270.857 109.219 270.43 109.219C269.904 109.219 269.505 109.411 269.234 109.797C268.969 110.177 268.836 110.797 268.836 111.656V111.891C268.836 112.76 268.969 113.385 269.234 113.766C269.5 114.146 269.904 114.336 270.445 114.336ZM278.789 114.336C279.206 114.336 279.544 114.221 279.805 113.992C280.065 113.763 280.201 113.458 280.211 113.078H282.328C282.323 113.651 282.167 114.177 281.859 114.656C281.552 115.13 281.13 115.5 280.594 115.766C280.062 116.026 279.474 116.156 278.828 116.156C277.62 116.156 276.667 115.773 275.969 115.008C275.271 114.237 274.922 113.174 274.922 111.82V111.672C274.922 110.37 275.268 109.331 275.961 108.555C276.654 107.779 277.604 107.391 278.812 107.391C279.87 107.391 280.716 107.693 281.352 108.297C281.992 108.896 282.318 109.695 282.328 110.695H280.211C280.201 110.258 280.065 109.904 279.805 109.633C279.544 109.357 279.201 109.219 278.773 109.219C278.247 109.219 277.849 109.411 277.578 109.797C277.312 110.177 277.18 110.797 277.18 111.656V111.891C277.18 112.76 277.312 113.385 277.578 113.766C277.844 114.146 278.247 114.336 278.789 114.336ZM287.508 116.156C286.268 116.156 285.258 115.776 284.477 115.016C283.701 114.255 283.312 113.242 283.312 111.977V111.758C283.312 110.909 283.477 110.151 283.805 109.484C284.133 108.812 284.596 108.297 285.195 107.938C285.799 107.573 286.487 107.391 287.258 107.391C288.414 107.391 289.323 107.755 289.984 108.484C290.651 109.214 290.984 110.247 290.984 111.586V112.508H285.602C285.674 113.06 285.893 113.503 286.258 113.836C286.628 114.169 287.094 114.336 287.656 114.336C288.526 114.336 289.206 114.021 289.695 113.391L290.805 114.633C290.466 115.112 290.008 115.487 289.43 115.758C288.852 116.023 288.211 116.156 287.508 116.156ZM287.25 109.219C286.802 109.219 286.438 109.37 286.156 109.672C285.88 109.974 285.703 110.406 285.625 110.969H288.766V110.789C288.755 110.289 288.62 109.904 288.359 109.633C288.099 109.357 287.729 109.219 287.25 109.219ZM296.852 113.664C296.852 113.388 296.714 113.172 296.438 113.016C296.167 112.854 295.729 112.711 295.125 112.586C293.115 112.164 292.109 111.31 292.109 110.023C292.109 109.273 292.419 108.648 293.039 108.148C293.664 107.643 294.479 107.391 295.484 107.391C296.557 107.391 297.414 107.643 298.055 108.148C298.701 108.654 299.023 109.31 299.023 110.117H296.766C296.766 109.794 296.661 109.529 296.453 109.32C296.245 109.107 295.919 109 295.477 109C295.096 109 294.802 109.086 294.594 109.258C294.385 109.43 294.281 109.648 294.281 109.914C294.281 110.164 294.398 110.367 294.633 110.523C294.872 110.674 295.273 110.807 295.836 110.922C296.398 111.031 296.872 111.156 297.258 111.297C298.451 111.734 299.047 112.492 299.047 113.57C299.047 114.341 298.716 114.966 298.055 115.445C297.393 115.919 296.539 116.156 295.492 116.156C294.784 116.156 294.154 116.031 293.602 115.781C293.055 115.526 292.625 115.18 292.312 114.742C292 114.299 291.844 113.823 291.844 113.312H293.984C294.005 113.714 294.154 114.021 294.43 114.234C294.706 114.448 295.076 114.555 295.539 114.555C295.971 114.555 296.297 114.474 296.516 114.312C296.74 114.146 296.852 113.93 296.852 113.664ZM305.086 113.664C305.086 113.388 304.948 113.172 304.672 113.016C304.401 112.854 303.964 112.711 303.359 112.586C301.349 112.164 300.344 111.31 300.344 110.023C300.344 109.273 300.654 108.648 301.273 108.148C301.898 107.643 302.714 107.391 303.719 107.391C304.792 107.391 305.648 107.643 306.289 108.148C306.935 108.654 307.258 109.31 307.258 110.117H305C305 109.794 304.896 109.529 304.688 109.32C304.479 109.107 304.154 109 303.711 109C303.331 109 303.036 109.086 302.828 109.258C302.62 109.43 302.516 109.648 302.516 109.914C302.516 110.164 302.633 110.367 302.867 110.523C303.107 110.674 303.508 110.807 304.07 110.922C304.633 111.031 305.107 111.156 305.492 111.297C306.685 111.734 307.281 112.492 307.281 113.57C307.281 114.341 306.951 114.966 306.289 115.445C305.628 115.919 304.773 116.156 303.727 116.156C303.018 116.156 302.388 116.031 301.836 115.781C301.289 115.526 300.859 115.18 300.547 114.742C300.234 114.299 300.078 113.823 300.078 113.312H302.219C302.24 113.714 302.388 114.021 302.664 114.234C302.94 114.448 303.31 114.555 303.773 114.555C304.206 114.555 304.531 114.474 304.75 114.312C304.974 114.146 305.086 113.93 305.086 113.664Z" fill="#181818"/>
<path d="M351.6 28.52H318.75C317.831 28.5226 316.95 28.8891 316.299 29.5393C315.649 30.1894 315.283 31.0705 315.28 31.99V43.91C315.278 48.2225 313.564 52.3578 310.515 55.4082C307.467 58.4585 303.333 60.1747 299.02 60.18H190.2C185.887 60.1747 181.752 58.4589 178.701 55.4088C175.651 52.3587 173.936 48.2234 173.93 43.91V31.99C173.93 31.0714 173.566 30.1903 172.917 29.5399C172.269 28.8894 171.389 28.5226 170.47 28.52H138.39C132.513 28.5279 126.878 30.8662 122.722 35.0222C118.566 39.1782 116.228 44.8126 116.22 50.69V342.82H119.22V50.69C119.226 45.6074 121.247 40.7345 124.841 37.1406C128.435 33.5467 133.308 31.5253 138.39 31.52H170.47C170.593 31.5226 170.71 31.5733 170.796 31.6611C170.882 31.749 170.93 31.8671 170.93 31.99V43.91C170.938 49.0183 172.971 53.9151 176.583 57.5272C180.195 61.1393 185.092 63.1721 190.2 63.18H299.02C304.128 63.1721 309.023 61.139 312.634 57.5266C316.244 53.9142 318.275 49.0174 318.28 43.91V31.99C318.28 31.8653 318.33 31.7458 318.418 31.6577C318.506 31.5695 318.626 31.52 318.75 31.52H351.6C356.683 31.5253 361.556 33.5467 365.15 37.1406C368.744 40.7345 370.765 45.6074 370.77 50.69V342.82H373.77V50.69C373.765 44.8118 371.427 39.1758 367.271 35.0193C363.114 30.8628 357.478 28.5253 351.6 28.52Z" fill="#181818"/>
<path d="M213.85 37.03C213.853 38.1855 214.313 39.293 215.13 40.1101C215.947 40.9272 217.055 41.3874 218.21 41.39H271.79C272.909 41.3364 273.964 40.8541 274.737 40.0433C275.51 39.2324 275.941 38.1552 275.941 37.035C275.941 35.9148 275.51 34.8376 274.737 34.0267C273.964 33.2159 272.909 32.7336 271.79 32.68H218.21C217.055 32.68 215.948 33.138 215.131 33.9535C214.313 34.769 213.853 35.8754 213.85 37.03Z" fill="#EDF3FF"/>
<path d="M218.21 44.39H271.79C273.694 44.3198 275.496 43.5142 276.818 42.1425C278.14 40.7708 278.879 38.94 278.879 37.035C278.879 35.13 278.14 33.2992 276.818 31.9275C275.496 30.5558 273.694 29.7502 271.79 29.68H218.21C217.221 29.6435 216.235 29.8068 215.311 30.16C214.387 30.5132 213.543 31.0491 212.831 31.7357C212.119 32.4222 211.552 33.2454 211.165 34.1559C210.778 35.0664 210.579 36.0456 210.579 37.035C210.579 38.0244 210.778 39.0036 211.165 39.9141C211.552 40.8246 212.119 41.6478 212.831 42.3343C213.543 43.0209 214.387 43.5568 215.311 43.91C216.235 44.2632 217.221 44.4265 218.21 44.39ZM271.79 32.68C272.909 32.7336 273.964 33.2159 274.737 34.0267C275.51 34.8376 275.941 35.9148 275.941 37.035C275.941 38.1552 275.51 39.2324 274.737 40.0433C273.964 40.8541 272.909 41.3364 271.79 41.39H218.21C217.62 41.4183 217.031 41.3265 216.478 41.1204C215.925 40.9143 215.42 40.5981 214.993 40.1909C214.566 39.7837 214.226 39.2941 213.993 38.7516C213.761 38.2091 213.641 37.6251 213.641 37.035C213.641 36.4449 213.761 35.8609 213.993 35.3184C214.226 34.7759 214.566 34.2863 214.993 33.8791C215.42 33.4719 215.925 33.1557 216.478 32.9496C217.031 32.7434 217.62 32.6517 218.21 32.68H271.79Z" fill="#181818"/>
<path d="M329.951 140H160.05C157.261 140 155 142.215 155 144.946V149.054C155 151.785 157.261 154 160.05 154H329.951C332.739 154 335 151.785 335 149.054V144.946C335 142.215 332.739 140 329.951 140Z" fill="#EDF3FF"/>
<path d="M329.951 164H160.05C157.261 164 155 166.215 155 168.946V173.054C155 175.785 157.261 178 160.05 178H329.951C332.739 178 335 175.785 335 173.054V168.946C335 166.215 332.739 164 329.951 164Z" fill="#EDF3FF"/>
<path d="M322.87 266.23H288.33C284.364 266.23 281.15 269.445 281.15 273.41V307.95C281.15 311.915 284.364 315.13 288.33 315.13H322.87C326.835 315.13 330.05 311.915 330.05 307.95V273.41C330.05 269.445 326.835 266.23 322.87 266.23Z" fill="#0084FF"/>
<path d="M330.3 258.99H295.76C291.795 258.99 288.58 262.205 288.58 266.17V300.71C288.58 304.675 291.795 307.89 295.76 307.89H330.3C334.265 307.89 337.48 304.675 337.48 300.71V266.17C337.48 262.205 334.265 258.99 330.3 258.99Z" fill="white"/>
<path d="M295.78 309.9C293.344 309.9 291.008 308.933 289.285 307.212C287.562 305.491 286.592 303.156 286.59 300.72V266.19C286.589 264.984 286.825 263.79 287.285 262.676C287.745 261.562 288.42 260.549 289.272 259.696C290.123 258.842 291.134 258.165 292.248 257.703C293.361 257.24 294.554 257.001 295.76 257H330.3C331.505 256.999 332.698 257.235 333.812 257.695C334.926 258.155 335.938 258.831 336.79 259.682C337.643 260.534 338.319 261.545 338.781 262.658C339.242 263.772 339.48 264.965 339.48 266.17V300.71C339.477 303.144 338.509 305.477 336.788 307.198C335.067 308.919 332.734 309.887 330.3 309.89H295.77L295.78 309.9ZM330.31 261.01H295.76C295.078 261.009 294.403 261.142 293.774 261.403C293.144 261.663 292.572 262.045 292.091 262.528C291.609 263.01 291.228 263.583 290.969 264.213C290.709 264.843 290.577 265.519 290.58 266.2V300.72C290.582 302.093 291.129 303.409 292.1 304.38C293.071 305.351 294.387 305.897 295.76 305.9H330.29C331.664 305.9 332.981 305.354 333.953 304.383C334.924 303.411 335.47 302.094 335.47 300.72V266.19C335.471 265.509 335.338 264.835 335.078 264.206C334.818 263.577 334.437 263.006 333.956 262.524C333.474 262.043 332.903 261.661 332.274 261.402C331.645 261.142 330.97 261.009 330.29 261.01H330.31Z" fill="#0084FF"/>
<path d="M314.24 295.82C312.85 295.85 311.474 295.53 310.24 294.89C309.06 294.231 308.092 293.25 307.45 292.06L307.12 295.53H305.02V266.64H307.75V277.91C308.421 276.856 309.364 276.003 310.48 275.44C311.659 274.865 312.959 274.581 314.27 274.61C315.39 274.595 316.501 274.802 317.54 275.22C318.521 275.633 319.396 276.262 320.1 277.06C320.851 277.939 321.419 278.959 321.77 280.06C322.192 281.423 322.395 282.844 322.37 284.27V286.09C322.391 287.502 322.192 288.909 321.78 290.26C321.428 291.379 320.861 292.419 320.11 293.32C319.412 294.127 318.535 294.761 317.55 295.17C316.503 295.612 315.376 295.833 314.24 295.82ZM313.62 293.26C314.42 293.293 315.217 293.153 315.958 292.85C316.698 292.546 317.364 292.085 317.91 291.5C318.983 290.333 319.52 288.537 319.52 286.11V284.3C319.52 281.9 318.977 280.11 317.89 278.93C317.34 278.372 316.685 277.929 315.962 277.626C315.239 277.324 314.464 277.168 313.68 277.168C312.897 277.168 312.121 277.324 311.398 277.626C310.675 277.929 310.02 278.372 309.47 278.93C308.27 280.336 307.645 282.143 307.72 283.99V286.14C307.59 288.054 308.186 289.947 309.39 291.44C309.924 292.027 310.578 292.491 311.308 292.8C312.039 293.109 312.827 293.255 313.62 293.23V293.26Z" fill="#181818"/>
<path d="M181.69 316.05C196.663 316.05 208.8 303.912 208.8 288.94C208.8 273.968 196.663 261.83 181.69 261.83C166.718 261.83 154.58 273.968 154.58 288.94C154.58 303.912 166.718 316.05 181.69 316.05Z" fill="#0084FF"/>
<path d="M187.92 310.25C202.08 310.25 213.56 298.771 213.56 284.61C213.56 270.449 202.08 258.97 187.92 258.97C173.759 258.97 162.28 270.449 162.28 284.61C162.28 298.771 173.759 310.25 187.92 310.25Z" fill="white"/>
<path d="M187.93 312.28C182.463 312.28 177.119 310.659 172.574 307.622C168.029 304.585 164.486 300.268 162.394 295.217C160.302 290.167 159.755 284.609 160.821 279.248C161.888 273.886 164.52 268.961 168.386 265.096C172.251 261.23 177.176 258.598 182.538 257.531C187.899 256.465 193.457 257.012 198.507 259.104C203.558 261.196 207.875 264.739 210.912 269.284C213.949 273.829 215.57 279.173 215.57 284.64C215.562 291.968 212.647 298.994 207.466 304.176C202.284 309.357 195.258 312.272 187.93 312.28ZM187.93 261C183.254 261 178.684 262.386 174.796 264.984C170.909 267.582 167.879 271.274 166.09 275.593C164.3 279.913 163.832 284.666 164.744 289.252C165.656 293.838 167.908 298.05 171.214 301.356C174.52 304.662 178.732 306.914 183.318 307.826C187.904 308.738 192.657 308.27 196.977 306.481C201.296 304.691 204.988 301.661 207.586 297.774C210.184 293.886 211.57 289.316 211.57 284.64C211.57 278.368 209.08 272.352 204.648 267.913C200.215 263.475 194.203 260.978 187.93 260.97V261Z" fill="#0084FF"/>
<path d="M185.65 295.28C183.919 295.395 182.213 294.824 180.9 293.69C180.335 293.113 179.896 292.425 179.612 291.669C179.328 290.913 179.205 290.106 179.25 289.3C179.238 288.374 179.4 287.455 179.73 286.59C180.046 285.795 180.575 285.103 181.26 284.59C182.054 283.98 182.962 283.535 183.93 283.28C185.237 282.953 186.582 282.802 187.93 282.83H192.64V280.97C192.69 280.377 192.618 279.78 192.429 279.216C192.24 278.652 191.937 278.133 191.54 277.69C190.52 276.88 189.225 276.5 187.93 276.63C186.729 276.544 185.534 276.857 184.53 277.52C184.156 277.81 183.848 278.176 183.624 278.592C183.4 279.009 183.266 279.468 183.23 279.94H180.3C180.34 279.125 180.533 278.324 180.87 277.58C181.205 276.86 181.701 276.227 182.32 275.73C183.014 275.171 183.813 274.757 184.67 274.51C185.728 274.201 186.827 274.052 187.93 274.07C189.947 273.922 191.942 274.576 193.48 275.89C194.13 276.559 194.632 277.357 194.956 278.232C195.28 279.106 195.417 280.039 195.36 280.97V294.97H193.26L192.84 291.09C192.153 292.381 191.113 293.45 189.84 294.17C188.567 294.908 187.121 295.291 185.65 295.28ZM185.86 292.72C187.652 292.73 189.377 292.041 190.67 290.8C191.284 290.217 191.773 289.517 192.11 288.74C192.459 287.953 192.636 287.101 192.63 286.24V285.28H187.93C185.81 285.28 184.31 285.65 183.41 286.4C182.979 286.746 182.633 287.186 182.401 287.688C182.168 288.189 182.055 288.738 182.07 289.29C182.052 289.752 182.131 290.213 182.304 290.642C182.476 291.071 182.737 291.459 183.07 291.78C183.846 292.435 184.846 292.765 185.86 292.7V292.72Z" fill="#181818"/>
<path d="M245 342.82C244.624 342.839 244.255 342.709 243.975 342.458C243.694 342.207 243.523 341.856 243.5 341.48V194.74C243.543 194.372 243.719 194.033 243.995 193.786C244.272 193.54 244.63 193.403 245 193.403C245.37 193.403 245.728 193.54 246.005 193.786C246.281 194.033 246.457 194.372 246.5 194.74V341.48C246.477 341.856 246.306 342.207 246.025 342.458C245.745 342.709 245.376 342.839 245 342.82Z" fill="#181818"/>
<path d="M430.08 344.32H58.5C58.1022 344.32 57.7206 344.162 57.4393 343.881C57.158 343.599 57 343.218 57 342.82C57 342.422 57.158 342.041 57.4393 341.759C57.7206 341.478 58.1022 341.32 58.5 341.32H430.08C430.478 341.32 430.859 341.478 431.141 341.759C431.422 342.041 431.58 342.422 431.58 342.82C431.58 343.218 431.422 343.599 431.141 343.881C430.859 344.162 430.478 344.32 430.08 344.32Z" fill="#181818"/>
<path d="M432.452 107C432.297 106.76 432.162 106.619 432.104 106.459C431.369 104.416 430.654 102.373 429.938 100.33C429.725 99.7288 429.513 99.1079 429.319 98.4869C429.145 97.9461 428.875 97.4854 428.333 97.2851C427.405 96.9445 426.497 96.604 425.568 96.2435C424.505 95.8428 423.461 95.4222 422.417 95.0216C421.779 94.7812 421.141 94.5809 420.503 94.3205C420.309 94.2404 420.174 94.0401 420 93.8798C420.174 93.7396 420.309 93.5193 420.503 93.4592C421.566 93.0385 422.649 92.6379 423.712 92.2373C424.698 91.8567 425.665 91.4961 426.651 91.1156C427.193 90.9153 427.734 90.7149 428.295 90.5146C428.759 90.3344 429.068 90.0139 429.242 89.5331C429.571 88.5917 429.899 87.6502 430.228 86.7288C430.77 85.2265 431.311 83.7042 431.852 82.2018C431.949 81.9214 431.988 81.621 432.123 81.3405C432.2 81.1803 432.374 81 432.51 81C432.645 81 432.819 81.2003 432.877 81.3606C433.612 83.4037 434.327 85.4468 435.062 87.49C435.275 88.1109 435.487 88.7519 435.7 89.3729C435.874 89.9337 436.164 90.3344 436.725 90.5347C438.117 91.0354 439.509 91.5562 440.901 92.0971C441.887 92.4777 442.873 92.8783 443.879 93.2589C444.13 93.359 444.42 93.3991 444.652 93.5193C444.807 93.5994 445 93.7596 445 93.8998C445 94.02 444.807 94.2404 444.671 94.2804C442.235 95.2419 439.818 96.1433 437.401 97.0647C437.305 97.1048 437.189 97.1448 437.073 97.1649C436.261 97.3451 435.835 97.8459 435.584 98.6872C435.275 99.7689 434.83 100.81 434.462 101.872C434.114 102.874 433.747 103.855 433.399 104.857C433.206 105.418 433.032 105.998 432.819 106.559C432.8 106.68 432.645 106.8 432.452 107Z" fill="#93E6CF"/>
<circle cx="39" cy="246" r="8" fill="#FFD12D"/>
</svg>
