<?xml version="1.0" standalone="no"?>
<!DOCTYPE svg PUBLIC "-//W3C//DTD SVG 20010904//EN"
 "http://www.w3.org/TR/2001/REC-SVG-20010904/DTD/svg10.dtd">
<svg version="1.0" xmlns="http://www.w3.org/2000/svg"
 width="104.000000pt" height="104.000000pt" viewBox="0 0 104.000000 104.000000"
 preserveAspectRatio="xMidYMid meet">
<metadata>
Created by potrace 1.11, written by Peter Selinger 2001-2013
</metadata>
<g transform="translate(0.000000,104.000000) scale(0.100000,-0.100000)"
fill="#000000" stroke="none">
<path d="M390 1024 c-134 -36 -270 -145 -330 -263 -150 -299 3 -649 325 -743
64 -19 195 -20 262 -2 171 45 307 173 370 348 8 23 17 75 20 116 17 241 -123
450 -361 537 -58 21 -218 25 -286 7z m280 -134 c87 -35 169 -113 212 -205 30
-64 33 -78 32 -165 0 -72 -5 -105 -20 -137 l-19 -42 -161 159 c-140 139 -165
160 -193 160 -26 0 -49 -17 -138 -102 -192 -185 -216 -207 -224 -203 -20 13
-37 98 -35 177 2 77 6 93 39 161 94 191 309 274 507 197z m-5 -509 c74 -74
134 -139 132 -145 -8 -24 -116 -87 -177 -102 -121 -30 -265 2 -358 81 l-33 28
143 138 c79 76 146 137 150 136 4 -1 68 -62 143 -136z"/>
</g>
</svg>
