<svg width="56" height="56" viewBox="0 0 56 56" fill="none" xmlns="http://www.w3.org/2000/svg">
<g clip-path="url(#clip0)">
<path d="M47.775 10.8516H45.675V10.5536C45.675 8.78805 44.2385 7.35156 42.4729 7.35156C40.7073 7.35156 39.2709 8.78805 39.2709 10.5536V10.8516H33.3375V10.5536C33.3375 8.78805 31.901 7.35156 30.1354 7.35156C28.3698 7.35156 26.9334 8.78805 26.9334 10.5536V10.8516H21V10.5536C21 8.78805 19.5635 7.35156 17.7979 7.35156C16.0323 7.35156 14.5959 8.78805 14.5959 10.5536V10.8516H12.8702C11.4228 10.8516 10.2452 12.0291 10.2452 13.4766V35.6909C10.2452 36.1741 10.6369 36.5659 11.1202 36.5659C11.6034 36.5659 11.9952 36.1741 11.9952 35.6909V20.2141H41.8541C42.3374 20.2141 42.7291 19.8223 42.7291 19.3391C42.7291 18.8558 42.3374 18.4641 41.8541 18.4641H11.9952V13.4766C11.9952 12.9941 12.3877 12.6016 12.8702 12.6016H17.325H19.25V13.4195C19.25 14.2201 18.5986 14.8716 17.7979 14.8716C17.3147 14.8716 16.9229 15.2633 16.9229 15.7466C16.9229 16.2298 17.3147 16.6216 17.7979 16.6216C19.5635 16.6216 21 15.1851 21 13.4195V12.6016H31.5875V13.4195C31.5875 14.2201 30.9361 14.8716 30.1354 14.8716C29.6521 14.8716 29.2604 15.2633 29.2604 15.7466C29.2604 16.2298 29.6521 16.6216 30.1354 16.6216C31.901 16.6216 33.3375 15.1851 33.3375 13.4195V12.6016H43.925V13.4195C43.925 14.2201 43.2736 14.8716 42.4729 14.8716C41.9897 14.8716 41.5979 15.2633 41.5979 15.7466C41.5979 16.2298 41.9897 16.6216 42.4729 16.6216C44.2385 16.6216 45.675 15.1851 45.675 13.4195V12.6016H47.775C48.2575 12.6016 48.65 12.9941 48.65 13.4766V43.0571C48.65 45.174 46.9278 46.8961 44.8109 46.8961C42.694 46.8961 40.9719 45.174 40.9719 43.0571C40.9719 42.5738 40.5801 42.1821 40.0969 42.1821H6.47498C5.99171 42.1821 5.59998 42.5738 5.59998 43.0571C5.59998 46.1389 8.1072 48.6461 11.189 48.6461H44.6239C44.6418 48.6461 44.6595 48.6456 44.6769 48.6446C44.7215 48.6456 44.7661 48.6461 44.8109 48.6461C47.8927 48.6461 50.4 46.1389 50.4 43.0571V13.4766C50.4 12.0291 49.2224 10.8516 47.775 10.8516ZM19.25 10.8516H17.325H16.3459V10.5536C16.3459 9.753 16.9973 9.10156 17.7979 9.10156C18.5985 9.10156 19.25 9.75291 19.25 10.5536V10.8516ZM31.5875 10.8516H28.6834V10.5536C28.6834 9.753 29.3348 9.10156 30.1354 9.10156C30.936 9.10156 31.5875 9.75291 31.5875 10.5536V10.8516ZM43.925 10.8516H41.0209V10.5536C41.0209 9.753 41.6723 9.10156 42.4729 9.10156C43.2735 9.10156 43.925 9.75291 43.925 10.5536V10.8516ZM11.189 46.8961C9.37306 46.8961 7.84759 45.6288 7.45051 43.9321H39.2902C39.4698 45.07 39.9941 46.0949 40.7525 46.8961H11.189Z" fill="#B5B5D0"/>
<path d="M28.5997 29.2818C28.4369 29.119 28.2112 29.0254 27.9802 29.0254C27.75 29.0254 27.5243 29.119 27.3615 29.2818C27.1988 29.4445 27.1052 29.6703 27.1052 29.9004C27.1052 30.1305 27.1988 30.3563 27.3615 30.519C27.5252 30.6818 27.75 30.7754 27.9802 30.7754C28.2112 30.7754 28.436 30.6818 28.5997 30.519C28.7624 30.3563 28.856 30.1305 28.856 29.9004C28.856 29.6703 28.7624 29.4445 28.5997 29.2818Z" fill="#61AD15"/>
<path d="M33.2835 29.2818C33.1208 29.119 32.895 29.0254 32.6649 29.0254C32.4348 29.0254 32.209 29.119 32.0463 29.2818C31.8835 29.4445 31.7899 29.6703 31.7899 29.9004C31.7899 30.1305 31.8835 30.3563 32.0463 30.519C32.209 30.6818 32.4348 30.7754 32.6649 30.7754C32.8959 30.7754 33.1208 30.6818 33.2835 30.519C33.4472 30.3563 33.5399 30.1305 33.5399 29.9004C33.5399 29.6703 33.4472 29.4445 33.2835 29.2818Z" fill="#61AD15"/>
<path d="M32.5366 32.975C32.1856 32.7427 31.6162 32.7427 31.2651 32.975C30.7881 33.2906 30.0118 33.2905 29.5349 32.975C29.1838 32.7427 28.6145 32.7427 28.2633 32.975C27.9122 33.2073 27.9122 33.5839 28.2633 33.8162C28.8524 34.2059 29.6262 34.4008 30.3999 34.4008C31.1738 34.4008 31.9475 34.2059 32.5366 33.8162C32.8877 33.5839 32.8878 33.2073 32.5366 32.975Z" fill="#61AD15"/>
<path d="M30.3226 23.3242C25.9804 23.3242 22.4476 26.8569 22.4476 31.1992C22.4476 35.5415 25.9804 39.0742 30.3226 39.0742C34.6649 39.0742 38.1976 35.5414 38.1976 31.1992C38.1976 26.8569 34.6649 23.3242 30.3226 23.3242ZM30.3226 37.3242C26.9453 37.3242 24.1976 34.5765 24.1976 31.1992C24.1976 27.8219 26.9453 25.0742 30.3226 25.0742C33.7 25.0742 36.4476 27.8219 36.4476 31.1992C36.4476 34.5765 33.7 37.3242 30.3226 37.3242Z" fill="#61AD15"/>
</g>
<defs>
<clipPath id="clip0">
<rect width="44.8" height="44.8" fill="white" transform="translate(5.59998 5.59961)"/>
</clipPath>
</defs>
</svg>
