<svg width="56" height="56" viewBox="0 0 56 56" fill="none" xmlns="http://www.w3.org/2000/svg">
<g clip-path="url(#clip0)">
<path fill-rule="evenodd" clip-rule="evenodd" d="M50.338 12.3711C50.2264 12.0542 49.9432 11.8292 49.6093 11.7921L44.7366 11.2507L44.1952 6.378C44.158 6.04332 43.9321 5.75973 43.6142 5.6486C43.2964 5.53757 42.943 5.61868 42.7053 5.85729L35.7651 12.8229C32.7235 11.0719 29.2754 10.1496 25.738 10.1496C14.6157 10.1496 5.61304 19.1508 5.61304 30.2746C5.61304 41.3969 14.6143 50.3996 25.738 50.3996C36.8604 50.3996 45.863 41.3984 45.863 30.2746C45.863 26.7372 44.9408 23.2892 43.1898 20.2475L50.1277 13.2842C50.124 13.2879 50.1216 13.2903 50.1329 13.279C50.3698 13.0408 50.4496 12.688 50.338 12.3711ZM42.6471 8.39654L42.6575 8.38604L43.0281 11.7222L37.2987 17.4597L36.9295 14.1336L42.6471 8.39654ZM30.6459 24.1217L31.8894 22.8764L34.368 20.3944C31.9739 18.2962 28.942 17.1496 25.738 17.1496C18.5009 17.1496 12.613 23.0375 12.613 30.2746C12.613 37.5117 18.5009 43.3996 25.738 43.3996C32.3237 43.3996 37.9203 38.4782 38.7565 31.952C39.229 28.1689 38.0847 24.4552 35.6057 21.6312L33.1276 24.1129L31.8841 25.3582L31.85 25.3924L29.3862 27.8597C29.8589 28.5695 30.1131 29.4025 30.1131 30.2747C30.1131 32.6871 28.1505 34.6497 25.7381 34.6497C23.3257 34.6497 21.3631 32.6871 21.3631 30.2747C21.3631 27.8623 23.3257 25.8997 25.7381 25.8997C26.6078 25.8997 27.4389 26.1527 28.1478 26.6233L30.6459 24.1217ZM25.1197 30.8938C25.4599 31.2335 26.0139 31.2365 26.3571 30.8929L28.1061 29.1414C28.2741 29.4907 28.363 29.8758 28.363 30.2746C28.363 31.722 27.1855 32.8996 25.738 32.8996C24.2906 32.8996 23.113 31.722 23.113 30.2746C23.113 28.8272 24.2906 27.6496 25.738 27.6496C26.1354 27.6496 26.5193 27.7379 26.8678 27.9049L25.1188 29.6563C24.7774 29.9983 24.7777 30.5522 25.1197 30.8938ZM44.113 30.2746C44.113 40.4066 35.87 48.6496 25.738 48.6496C15.6061 48.6496 7.36304 40.4066 7.36304 30.2746C7.36304 20.1426 15.606 11.8996 25.738 11.8996C29.0928 11.8996 32.3591 12.8074 35.2123 14.5279L35.7141 19.0464L35.6068 19.1538C32.8802 16.7271 29.409 15.3996 25.738 15.3996C17.536 15.3996 10.863 22.0725 10.863 30.2746C10.863 38.4767 17.536 45.1496 25.738 45.1496C33.2017 45.1496 39.5446 39.5715 40.4925 32.1715C41.0328 27.8453 39.7082 23.6001 36.8452 20.3896L36.9394 20.2954L41.4845 20.8001C43.2051 23.6534 44.113 26.9197 44.113 30.2746ZM41.8792 19.0832L38.5223 18.7103L40.4485 16.7818C40.4476 16.7826 40.8549 16.3748 44.266 12.9591L47.6122 13.3308C47.5941 13.349 47.6012 13.3419 47.6074 13.3357C47.6447 13.2983 47.6478 13.2952 41.8792 19.0832Z" fill="#838BA4"/>
<path fill-rule="evenodd" clip-rule="evenodd" d="M31.8841 25.358C33.0037 26.751 33.6131 28.4666 33.6131 30.2745C33.6131 34.6168 30.0804 38.1495 25.7381 38.1495C21.3959 38.1495 17.8631 34.6168 17.8631 30.2745C17.8631 29.522 17.9544 28.9752 18.0915 28.3858C18.201 27.9151 17.9081 27.4448 17.4374 27.3354C16.967 27.2259 16.4966 27.5188 16.387 27.9894C16.1925 28.8258 16.1131 29.4879 16.1131 30.2745C16.1131 35.5817 20.4309 39.8995 25.7381 39.8995C31.0454 39.8995 35.3631 35.5817 35.3631 30.2745C35.3631 27.9982 34.5748 25.8413 33.1276 24.1127L31.8841 25.358ZM31.8894 22.8762L30.6459 24.1215C29.2545 23.0064 27.5419 22.3994 25.738 22.3994C24.3344 22.3994 23.0783 22.7382 21.7851 23.4657C21.3638 23.7026 20.8303 23.5532 20.5934 23.1321C20.3564 22.7108 20.5059 22.1773 20.927 21.9404C22.4714 21.0717 24.0451 20.6494 25.738 20.6494C28.0094 20.6494 30.1626 21.4347 31.8894 22.8762Z" fill="#61AD15"/>
</g>
<defs>
<clipPath id="clip0">
<rect width="44.8" height="44.8" fill="white" transform="translate(5.60001 5.59961)"/>
</clipPath>
</defs>
</svg>
