<svg width="32" height="32" viewBox="0 0 32 32" fill="none" xmlns="http://www.w3.org/2000/svg">
<g clip-path="url(#clip0)">
<path d="M28.3351 31.5413H3.74792V10.6763L15.9552 1.76562L28.3351 10.6763V31.5413Z" fill="#E4EEF9"/>
<path d="M15.9552 1.76562L3.74792 10.6763V14.1609L11.4457 8.542C14.1249 6.58643 17.7675 6.61158 20.4193 8.60376C24.3632 11.5664 26.6835 16.2117 26.6835 21.1445V31.5413H28.3353V10.6763L15.9552 1.76562Z" fill="#D5E0F2"/>
<path d="M31.5087 12.059C31.5471 12.0075 31.5361 11.9345 31.4843 11.8964L16.1628 0.571167C16.0905 0.517944 15.9921 0.517944 15.9201 0.571167L0.598312 11.8964C0.546554 11.9345 0.535567 12.0075 0.573897 12.059L0.801925 12.3673C1.26018 12.9874 2.13469 13.1185 2.75481 12.66L16.0412 2.83899L29.3278 12.6603C29.9482 13.1185 30.8225 12.9874 31.281 12.3673L31.5087 12.059Z" fill="#86BE26"/>
<path d="M31.4844 11.8964L16.1628 0.571167C16.0906 0.517944 15.9922 0.517944 15.9202 0.571167L15.4138 0.945435L29.5161 11.3693C29.9551 11.6937 30.0088 12.34 29.615 12.7179C29.583 12.7487 29.5545 12.7714 29.5308 12.7833C30.127 13.0844 30.8706 12.9225 31.281 12.3673L31.5088 12.059C31.5471 12.0075 31.5361 11.9345 31.4844 11.8964Z" fill="#77B33B"/>
<path d="M16.0413 2.84035C15.7002 2.53713 15.1934 2.51442 14.8267 2.78615L1.49953 12.6614C1.43483 12.7095 1.36647 12.7495 1.29689 12.7847C1.75246 13.0137 2.31667 12.9854 2.7549 12.6614L16.0413 2.84035Z" fill="#77B33B"/>
<path d="M15.5061 29.6406H7.4082C7.24609 29.6406 7.1145 29.7722 7.1145 29.9343V31.542H15.7998V29.9343C15.7998 29.7722 15.6682 29.6406 15.5061 29.6406Z" fill="#91A0B5"/>
<path d="M14.2397 17.1562H8.67456C8.31738 17.1562 8.02783 17.4458 8.02783 17.803V29.6367H14.8862V17.8027C14.8862 17.4458 14.5969 17.1562 14.2397 17.1562Z" fill="#86BE26"/>
<path d="M14.2397 17.1562H12.1389C12.4961 17.1562 12.7854 17.4458 12.7854 17.803V29.6367H14.8862V17.8027C14.8862 17.4458 14.5969 17.1562 14.2397 17.1562Z" fill="#77B33B"/>
<path d="M24.2908 17.6841V25.6404H19.0864V17.6841C19.0864 17.3926 19.3225 17.1562 19.614 17.1562H23.763C24.0545 17.1562 24.2908 17.3926 24.2908 17.6841Z" fill="#CCEAF5"/>
<path d="M16.0412 8.4375C14.9443 8.4375 14.0549 9.32691 14.0549 10.4241C14.0549 11.5212 14.9443 12.4107 16.0412 12.4107C17.1384 12.4107 18.0278 11.5212 18.0278 10.4241C18.0278 9.32691 17.1384 8.4375 16.0412 8.4375Z" fill="#CCEAF5"/>
<path d="M23.5899 23.7412C23.2301 23.7412 22.8936 23.8413 22.6068 24.0151C22.3197 23.8413 21.9832 23.7412 21.6234 23.7412C21.2635 23.7412 20.9271 23.8413 20.6402 24.0151C20.3534 23.8413 20.0169 23.7412 19.6571 23.7412C18.8299 23.7412 18.1263 24.2693 17.8646 25.0066C17.7545 25.3169 17.9879 25.6426 18.317 25.6426H24.93C25.2591 25.6426 25.4925 25.3169 25.3824 25.0066C25.1207 24.2693 24.4171 23.7412 23.5899 23.7412Z" fill="#A0E557"/>
<path d="M19.6567 24.3665C19.9165 24.3665 20.164 24.4185 20.3896 24.5127C20.5498 24.5798 20.7304 24.5798 20.8906 24.5127C21.1162 24.4185 21.3637 24.3665 21.6235 24.3665C21.8833 24.3665 22.1308 24.4185 22.3562 24.5127C22.5163 24.5798 22.697 24.5798 22.8572 24.5127C23.0827 24.4185 23.3303 24.3665 23.5901 24.3665C24.3498 24.3665 25.0044 24.8125 25.3088 25.4568C25.4033 25.335 25.4397 25.1694 25.3823 25.0076C25.1208 24.2703 24.4172 23.7422 23.5901 23.7422C23.2302 23.7422 22.8938 23.842 22.6069 24.0159C22.3198 23.842 21.9834 23.7422 21.6235 23.7422C21.2636 23.7422 20.9272 23.842 20.6404 24.0159C20.3535 23.842 20.0171 23.7422 19.6572 23.7422C18.83 23.7422 18.1264 24.2703 17.8647 25.0076C17.8073 25.1694 17.844 25.335 17.9382 25.4568C18.2424 24.8125 18.8969 24.3665 19.6567 24.3665Z" fill="#87D654"/>
<path d="M1.60474 31.542C1.60474 30.4919 2.45606 29.6406 3.5061 29.6406C4.55615 29.6406 5.40723 30.4919 5.40723 31.542H1.60474Z" fill="#A0E557"/>
<path d="M3.5061 29.6406C3.28345 29.6406 3.07007 29.6792 2.87183 29.7495C3.60986 30.0105 4.13892 30.7144 4.13892 31.542H5.40723C5.40723 30.4919 4.55591 29.6406 3.5061 29.6406Z" fill="#87D654"/>
<path d="M26.77 28.1406C25.7124 28.1406 24.7676 28.6233 24.1438 29.3806C23.811 29.7847 23.2627 29.9568 22.7747 29.7681C22.562 29.6858 22.3311 29.6406 22.0896 29.6406C21.0396 29.6406 20.1882 30.4919 20.1882 31.542H30.1717C30.1717 29.6633 28.6487 28.1406 26.77 28.1406Z" fill="#A0E557"/>
<path d="M26.77 28.1406C26.3572 28.1406 25.9619 28.2151 25.5957 28.3499C26.8943 28.8286 27.8203 30.0771 27.8203 31.542H30.1714C30.1716 29.6633 28.6487 28.1406 26.77 28.1406Z" fill="#87D654"/>
<path d="M24.2908 16.6914H19.0864C18.8274 16.6914 18.6176 16.9014 18.6176 17.1602V23.5152C18.0717 23.7822 17.6345 24.2547 17.4228 24.8516C17.3205 25.1394 17.3652 25.4607 17.542 25.711C17.7194 25.9624 18.0092 26.1128 18.3169 26.1128H19.0815C19.083 26.1128 19.0847 26.1131 19.0864 26.1131H24.2908C24.2922 26.1131 24.2939 26.1128 24.2954 26.1128H24.9297C25.2375 26.1128 25.5271 25.9624 25.7048 25.711C25.8816 25.4607 25.926 25.1394 25.8237 24.8516C25.6291 24.303 25.2441 23.8596 24.7593 23.584V20.6094C24.7593 20.6089 24.7593 20.6082 24.7593 20.6077C24.7593 20.6069 24.7593 20.6065 24.7593 20.6057V17.1602C24.7593 16.9014 24.5495 16.6914 24.2908 16.6914ZM23.822 20.1389H22.1574V17.6287H23.822V20.1389ZM21.2202 17.6287V20.1389H19.5549V17.6287H21.2202ZM19.5549 21.0762H21.2202V23.3091C21.02 23.3435 20.8247 23.4031 20.6399 23.4873C20.3327 23.3474 19.9975 23.2742 19.6567 23.2742C19.6228 23.2742 19.5888 23.2749 19.5549 23.2764V21.0762ZM24.9299 25.1753H18.3169C18.3076 25.1753 18.3054 25.1665 18.3061 25.1648C18.5085 24.5945 19.0512 24.2114 19.6567 24.2114C19.9187 24.2114 20.1748 24.2827 20.3974 24.4175C20.5466 24.5078 20.7336 24.5078 20.8828 24.4175C21.1054 24.2827 21.3615 24.2114 21.6233 24.2114C21.8852 24.2114 22.1413 24.2827 22.364 24.4175C22.5132 24.5078 22.7002 24.5078 22.8493 24.4175C23.072 24.2827 23.3279 24.2114 23.5898 24.2114C24.1955 24.2114 24.7383 24.5945 24.9411 25.1665C24.9411 25.1665 24.9389 25.1753 24.9299 25.1753ZM23.5898 23.2742C23.249 23.2742 22.9138 23.3474 22.6067 23.4873C22.4624 23.4216 22.3117 23.3711 22.1574 23.3357V21.0762H23.822V23.2861C23.7453 23.2786 23.6679 23.2742 23.5898 23.2742Z" fill="black"/>
<path d="M16.0413 7.59766C14.4827 7.59766 13.2148 8.86572 13.2148 10.4243C13.2148 11.9829 14.4829 13.251 16.0413 13.251C17.6001 13.251 18.8679 11.9829 18.8679 10.4243C18.8679 8.86572 17.6001 7.59766 16.0413 7.59766ZM16.0413 12.3137C14.9995 12.3137 14.1521 11.4661 14.1521 10.4243C14.1521 9.38257 14.9995 8.53491 16.0413 8.53491C17.0833 8.53491 17.9307 9.38257 17.9307 10.4243C17.9307 11.4661 17.0833 12.3137 16.0413 12.3137Z" fill="black"/>
<path d="M31.5271 31.0715H30.6108C30.4663 29.8804 29.7793 28.8545 28.804 28.2495V12.8567L29.0493 13.0381C29.8762 13.6494 31.0464 13.4739 31.6577 12.647L31.8857 12.3384C32.0774 12.0791 32.0222 11.7122 31.7629 11.5205L24.7773 6.35669C24.5691 6.20288 24.2756 6.24683 24.1218 6.45508C23.968 6.66309 24.012 6.95654 24.2202 7.11035L30.9226 12.0647L30.904 12.0898C30.6001 12.5012 30.0178 12.5886 29.6064 12.2844L16.3198 2.46313C16.1543 2.34082 15.9282 2.34082 15.7627 2.46313L2.47632 12.2844C2.2771 12.4316 2.03223 12.4927 1.78711 12.4558C1.54224 12.4192 1.32593 12.2891 1.17871 12.0898L1.16016 12.0649L16.0415 1.06494L22.1326 5.56738C22.3406 5.72119 22.634 5.67725 22.7881 5.46924C22.9419 5.26099 22.8977 4.96753 22.6897 4.81372L16.4416 0.195068C16.2024 0.0183105 15.8809 0.0183105 15.6418 0.195068L0.31958 11.5205C0.0605469 11.7122 0.00537109 12.0791 0.197021 12.3386L0.425049 12.647C0.721191 13.0476 1.15552 13.3088 1.64819 13.3828C1.74194 13.3967 1.83569 13.4038 1.92871 13.4038C2.32471 13.4038 2.70898 13.2778 3.03345 13.0381L3.27881 12.8567V21.5964C3.27881 21.8552 3.48877 22.0649 3.74756 22.0649C4.00635 22.0649 4.21606 21.8552 4.21606 21.5964V12.1638L15.772 3.62183L16.0625 3.43848L27.8667 12.1641V27.8293C27.5188 27.7263 27.1511 27.6702 26.7703 27.6702C25.6099 27.6702 24.5205 28.1843 23.782 29.0811C23.5681 29.3408 23.2312 29.4404 22.9436 29.3291C22.6711 29.2239 22.3838 29.1704 22.0896 29.1704C20.9434 29.1704 19.9849 29.9885 19.7666 31.0713H16.2683V29.9329C16.2683 29.5125 15.9263 29.1704 15.5061 29.1704H15.355V17.1584C15.355 16.8997 15.1453 16.6899 14.8865 16.6899H8.02783C7.76904 16.6899 7.55933 16.8997 7.55933 17.1584V29.1704H7.4082C6.98804 29.1704 6.646 29.5125 6.646 29.9329V31.0713H5.8291C5.65796 30.2222 5.03149 29.5359 4.21631 29.2793V23.7412C4.21631 23.4824 4.00635 23.2725 3.74756 23.2725C3.48877 23.2725 3.27905 23.4824 3.27905 23.7412V29.1816C2.23486 29.2812 1.38647 30.061 1.18286 31.0718H0.468506C0.209717 31.0718 0 31.2815 0 31.5403C0 31.7991 0.209717 32.009 0.468506 32.009H31.5271C31.7859 32.009 31.9956 31.7991 31.9956 31.5403C31.9956 31.2815 31.7859 31.0715 31.5271 31.0715ZM8.49658 17.627H14.4177V29.1704H8.49658V17.627ZM7.58325 30.1077H15.3311V31.0713H7.58325V30.1077ZM3.50586 30.1077C4.13184 30.1077 4.66504 30.511 4.85986 31.0713H3.74756C3.74536 31.0713 3.74341 31.0715 3.74145 31.0715H2.1521C2.34668 30.511 2.88013 30.1077 3.50586 30.1077ZM28.3413 31.0715C28.3394 31.0715 28.3374 31.0713 28.3352 31.0713H20.7358C20.9304 30.511 21.4639 30.1077 22.0896 30.1077C22.2676 30.1077 22.4414 30.1399 22.6055 30.2031C23.2705 30.4604 24.0342 30.249 24.5054 29.677C25.0652 28.9973 25.8909 28.6074 26.77 28.6074C28.2278 28.6074 29.4404 29.6765 29.6655 31.0715H28.3413Z" fill="black"/>
</g>
<defs>
<clipPath id="clip0">
<rect width="32" height="32" fill="white"/>
</clipPath>
</defs>
</svg>
