<svg width="56" height="56" viewBox="0 0 56 56" fill="none" xmlns="http://www.w3.org/2000/svg">
<g clip-path="url(#clip0)">
<path d="M50.1439 23.4803C49.9798 23.316 49.7571 23.2238 49.5251 23.2238H44.6901C44.2069 23.2238 43.8152 23.6155 43.8152 24.0987C43.8152 24.5819 44.2069 24.9736 44.6901 24.9736H48.6497L48.6463 31.048H46.1237C45.7113 31.048 45.3549 31.3359 45.2683 31.739C44.8205 33.8236 44.0054 35.7902 42.8461 37.5841C42.6223 37.9304 42.6707 38.3861 42.9623 38.6777L44.7411 40.4565L40.4442 44.7501L38.667 42.9729C38.3754 42.6812 37.9198 42.6329 37.5735 42.8567C35.7795 44.0161 33.813 44.831 31.7284 45.2788C31.3252 45.3654 31.0373 45.7217 31.0373 46.1342V48.6474H24.963V46.1342C24.963 45.7218 24.6749 45.3654 24.2719 45.2788C22.1873 44.831 20.2208 44.016 18.4267 42.8567C18.0803 42.6329 17.6248 42.6812 17.3331 42.9729L15.5559 44.7501L11.2591 40.4566L13.0378 38.6778C13.3295 38.3861 13.3779 37.9305 13.154 37.5842C11.9947 35.7902 11.1797 33.8236 10.7319 31.739C10.6452 31.3358 10.2889 31.048 9.87647 31.048H7.34982V24.9735L10.7319 24.9735C11.215 24.9735 11.6068 24.5817 11.6068 24.0985C11.6068 23.6154 11.215 23.2236 10.7319 23.2236L6.47491 23.2237C5.99174 23.2237 5.6 23.6155 5.6 24.0986V31.9228C5.6 32.406 5.99174 32.7977 6.47491 32.7977H9.18269C9.64049 34.6055 10.354 36.3267 11.3099 37.9309L9.40275 39.838C9.23869 40.0022 9.14646 40.2248 9.14646 40.4568C9.14646 40.689 9.23877 40.9115 9.40301 41.0755L14.9376 46.6061C15.2793 46.9475 15.8331 46.9474 16.1748 46.6059L18.0799 44.7008C19.684 45.6567 21.4052 46.37 23.213 46.828V49.5224C23.213 50.0055 23.6048 50.3973 24.088 50.3973H31.9121C32.3954 50.3973 32.787 50.0055 32.787 49.5224V46.828C34.5949 46.3702 36.3161 45.6568 37.9201 44.7008L39.8252 46.6059C40.1669 46.9475 40.7206 46.9476 41.0623 46.6061L46.597 41.0755C46.7611 40.9115 46.8534 40.6889 46.8535 40.4568C46.8536 40.2247 46.7614 40.0022 46.5972 39.838L44.6901 37.931C45.6461 36.3269 46.3594 34.6056 46.8173 32.7978H49.5208C50.0038 32.7978 50.3954 32.4063 50.3957 31.9233L50.4001 24.0992C50.4001 23.8671 50.308 23.6444 50.1439 23.4803Z" fill="#838BA4"/>
<path d="M38.5172 37.2798C38.1755 36.9381 37.6216 36.9381 37.2798 37.2798C32.1629 42.3968 23.8369 42.3967 18.7201 37.2798C18.3786 36.938 17.8246 36.938 17.4828 37.2797C17.1411 37.6214 17.1411 38.1753 17.4828 38.5171C20.3828 41.417 24.1907 42.8665 28 42.8665C31.8083 42.8665 35.618 41.4163 38.5171 38.5171C38.8589 38.1754 38.8589 37.6215 38.5172 37.2798Z" fill="#61AD15"/>
<path fill-rule="evenodd" clip-rule="evenodd" d="M28.7757 33.5996H36.0243C36.4526 33.5996 36.8 33.2461 36.8 32.8099V24.1256C36.8 22.7295 35.6843 21.5937 34.3129 21.5937H30.8873L30.714 20.8936C32.3144 20.0202 33.3982 18.4419 33.6578 16.6198C34.0282 16.5783 34.3229 16.2711 34.3464 15.8841L34.6472 10.9451C34.6482 10.9288 34.6487 10.9126 34.6487 10.8962V10.61C34.6487 10.5532 34.6477 10.4958 34.6459 10.4378C34.6015 9.05555 34.0096 7.78727 32.9793 6.86671C31.942 5.93998 30.5592 5.48669 29.1857 5.62362C29.1789 5.62425 29.1723 5.62504 29.1657 5.62591L29.1629 5.62626C29.05 5.6404 25.8282 6.04394 23.8239 6.15802C23.3122 6.18716 22.3683 6.44737 21.7948 7.86285C21.5129 8.55843 21.3513 9.48002 21.3513 10.3913V11.4624C21.3513 11.4808 21.3519 11.4992 21.3531 11.5176L21.6539 15.8904C21.6804 16.2748 21.974 16.5785 22.3421 16.6198C22.6017 18.4418 23.6855 20.0201 25.2859 20.8936L25.1126 21.5937H21.687C20.3156 21.5937 19.2 22.7296 19.2 24.1256V32.8097C19.2 33.2459 19.5473 33.5995 19.9757 33.5995H27.2243L28.7757 33.5996ZM23.2593 14.3479C23.5533 13.7043 23.6485 12.7583 23.6485 12.1458V11.5155C23.6485 11.2705 23.7602 11.0395 23.9507 10.89C24.1414 10.7404 24.3893 10.6895 24.6218 10.7518L25.3907 10.958C27.1016 11.4169 28.9135 11.4301 30.6306 10.9963L31.5061 10.7751C31.6067 10.7497 31.7078 10.7455 31.8047 10.7599C31.836 10.7646 31.8668 10.7718 31.897 10.7803C31.937 10.7914 31.9761 10.8051 32.0135 10.8224C32.0414 10.8353 32.0682 10.8505 32.0943 10.8666C32.1154 10.8796 32.1358 10.8936 32.1556 10.9086C32.2856 11.0069 32.3867 11.1468 32.4364 11.3163C32.548 11.6982 32.5917 12.1812 32.6381 12.6925L32.6382 12.6938L32.6387 12.6994C32.6942 13.3123 32.7548 13.8011 32.8432 14.1707L32.8498 14.1974C32.8591 14.2351 32.8688 14.271 32.8787 14.306L32.8865 14.3321L33.0973 10.872V10.6103C33.0973 10.5705 33.0966 10.5303 33.0953 10.4897C33.065 9.54849 32.6604 8.68352 31.9559 8.05404C31.242 7.41627 30.2907 7.1037 29.346 7.19475C29.1017 7.22547 25.9547 7.61867 23.9105 7.73507C23.288 7.77053 22.9026 9.14155 22.9026 10.3915V11.4349L23.1206 14.6035C23.1452 14.5657 23.1687 14.5257 23.1912 14.4843L23.1969 14.4734C23.2184 14.4332 23.2392 14.3919 23.2589 14.3487L23.2593 14.3479ZM23.8474 16.126C23.8801 16.0993 23.9123 16.0716 23.944 16.0428L23.9447 16.0421C23.9721 16.0172 23.9992 15.9918 24.0258 15.9654C24.0352 15.9562 24.0444 15.9467 24.0536 15.9373L24.0576 15.9332L24.0611 15.9297C24.0783 15.912 24.0955 15.8943 24.1124 15.876C24.135 15.8515 24.1569 15.8263 24.1786 15.8009L24.1878 15.7904C24.192 15.7857 24.1962 15.7809 24.2003 15.776C24.2631 15.7008 24.3219 15.622 24.3773 15.5404L24.3844 15.5298L24.3904 15.5206L24.3981 15.5089C24.4173 15.4799 24.436 15.4508 24.4542 15.4212C24.4651 15.4036 24.4759 15.386 24.4865 15.3681C24.4978 15.3489 24.5089 15.3295 24.5199 15.31C24.9137 14.6185 25.1492 13.6769 25.1925 12.5363L25.1995 12.5379L25.2062 12.5394C27.1057 13.0116 29.1053 13.0088 31.0041 12.5291L31.0631 12.5142C31.0733 12.6172 31.0829 12.7242 31.0928 12.8328L31.0929 12.8339L31.0933 12.8388C31.099 12.9025 31.1049 12.9671 31.111 13.0321L31.1139 13.0629C31.1203 13.1315 31.1269 13.2005 31.1339 13.2702L31.1347 13.2776C31.141 13.34 31.1477 13.4028 31.1547 13.4657L31.1599 13.5115C31.1672 13.5752 31.1748 13.6391 31.1831 13.7032L31.1865 13.7282L31.1899 13.7531C31.1962 13.8003 31.2029 13.8475 31.2099 13.8947C31.2135 13.9195 31.2172 13.9442 31.2211 13.9689C31.2297 14.0236 31.2387 14.0783 31.2484 14.1328C31.2529 14.159 31.2579 14.1849 31.2629 14.2108L31.2669 14.2319C31.2718 14.2573 31.2768 14.2826 31.282 14.308C31.3085 14.4392 31.339 14.5688 31.3741 14.6961L31.3744 14.6974C31.4931 15.1282 31.6668 15.5285 31.9304 15.855C31.9408 15.868 31.9513 15.8808 31.9619 15.8934C31.9852 15.9211 32.0087 15.9485 32.0334 15.9749C32.0722 16.0171 32.1119 16.0569 32.1521 16.0941L32.1547 16.0967C32.0341 17.7161 31.0274 19.1154 29.5213 19.7174C29.1579 19.8626 28.9573 20.26 29.0526 20.6454L29.4301 22.1706L28.9024 22.5418L27.9998 23.1767L27.0975 22.542L26.5695 22.1706L26.947 20.6454C27.0424 20.2601 26.8417 19.8626 26.4783 19.7174C24.9815 19.1193 23.9779 17.7332 23.8474 16.126ZM26.7602 29.2191L28 30.5114L29.2398 29.2191L28.7197 24.5906L28.4409 24.7866C28.1757 24.9733 27.8243 24.9733 27.559 24.7866L27.2803 24.5906L26.7602 29.2191ZM20.7513 32.0201V24.1256C20.7513 23.6004 21.1711 23.1731 21.6869 23.1731H25.2651L25.8331 23.5726L25.1768 29.4126C25.1503 29.6486 25.2295 29.8843 25.3925 30.0542L27.2787 32.0201H20.7513ZM34.313 23.1731H30.7348L30.1667 23.5726L30.823 29.4126C30.8496 29.6485 30.7703 29.8842 30.6073 30.0541L28.7211 32.02H35.2486V24.1256C35.2486 23.6004 34.8289 23.1731 34.313 23.1731Z" fill="#838BA4"/>
</g>
<defs>
<clipPath id="clip0">
<rect width="44.8" height="44.8" fill="white" transform="translate(5.6 5.59961)"/>
</clipPath>
</defs>
</svg>
