<svg width="56" height="56" viewBox="0 0 56 56" fill="none" xmlns="http://www.w3.org/2000/svg">
<path d="M41.3551 4.20215H14.633C13.8483 4.20295 13.0959 4.51021 12.541 5.05654C11.986 5.60286 11.6738 6.34363 11.6729 7.1163V48.0269C11.6738 48.7996 11.986 49.5403 12.541 50.0866C13.0959 50.633 13.8483 50.9402 14.633 50.941H41.3551C42.1398 50.9402 42.8922 50.633 43.4472 50.0866C44.0021 49.5403 44.3143 48.7996 44.3152 48.0269V7.1163C44.3143 6.34363 44.0021 5.60286 43.4472 5.05654C42.8922 4.51021 42.1398 4.20295 41.3551 4.20215ZM42.784 48.0265C42.7835 48.3994 42.6328 48.7569 42.3649 49.0206C42.097 49.2843 41.7339 49.4326 41.3551 49.4329H14.633C14.2543 49.4326 13.8911 49.2843 13.6232 49.0206C13.3553 48.7569 13.2046 48.3994 13.2042 48.0265V7.1163C13.2046 6.74335 13.3553 6.38581 13.6232 6.12214C13.8911 5.85846 14.2543 5.71018 14.633 5.70984H41.3551C41.7339 5.71018 42.097 5.85846 42.3649 6.12214C42.6328 6.38581 42.7835 6.74335 42.784 7.1163V48.0265ZM22.1865 19.4014H18.1505C17.9475 19.4014 17.7527 19.4808 17.6092 19.6222C17.4656 19.7636 17.3849 19.9553 17.3849 20.1553V24.1287C17.3849 24.3286 17.4656 24.5203 17.6092 24.6617C17.7527 24.8031 17.9475 24.8825 18.1505 24.8825H22.1856C22.3887 24.8825 22.5834 24.8031 22.727 24.6617C22.8706 24.5203 22.9512 24.3286 22.9512 24.1287V20.1553C22.9512 19.9553 22.8706 19.7636 22.727 19.6222C22.5834 19.4808 22.3887 19.4014 22.1856 19.4014H22.1865ZM21.4209 23.3748H18.9162V20.9091H21.42L21.4209 23.3748ZM25.9774 24.8825H30.0125C30.2155 24.8825 30.4103 24.8031 30.5539 24.6617C30.6974 24.5203 30.7781 24.3286 30.7781 24.1287V20.1553C30.7781 19.9553 30.6974 19.7636 30.5539 19.6222C30.4103 19.4808 30.2155 19.4014 30.0125 19.4014H25.9765C25.7735 19.4014 25.5787 19.4808 25.4352 19.6222C25.2916 19.7636 25.2109 19.9553 25.2109 20.1553V24.1287C25.2109 24.3286 25.2916 24.5203 25.4352 24.6617C25.5787 24.8031 25.7744 24.8825 25.9774 24.8825ZM26.743 20.9091H29.2468V23.3748H26.7422L26.743 20.9091ZM37.8385 19.4014H33.8025C33.5995 19.4014 33.4047 19.4808 33.2612 19.6222C33.1176 19.7636 33.0369 19.9553 33.0369 20.1553V24.1287C33.0369 24.3286 33.1176 24.5203 33.2612 24.6617C33.4047 24.8031 33.5995 24.8825 33.8025 24.8825H37.838C38.0411 24.8825 38.2358 24.8031 38.3794 24.6617C38.523 24.5203 38.6037 24.3286 38.6037 24.1287V20.1553C38.6037 19.9553 38.523 19.7636 38.3794 19.6222C38.2358 19.4808 38.0415 19.4014 37.8385 19.4014ZM37.0728 23.3748H34.5682V20.9091H37.0724L37.0728 23.3748ZM25.2109 30.9292C25.2109 31.1292 25.2916 31.3209 25.4352 31.4623C25.5787 31.6036 25.7735 31.6831 25.9765 31.6831H30.0125C30.2155 31.6831 30.4103 31.6036 30.5539 31.4623C30.6974 31.3209 30.7781 31.1292 30.7781 30.9292V26.958C30.7781 26.758 30.6974 26.5663 30.5539 26.4249C30.4103 26.2835 30.2155 26.2041 30.0125 26.2041H25.9765C25.7735 26.2041 25.5787 26.2835 25.4352 26.4249C25.2916 26.5663 25.2109 26.758 25.2109 26.958V30.9292ZM26.7422 27.7097H29.246V30.1754H26.7422V27.7097ZM37.8376 26.202H33.8025C33.5995 26.202 33.4047 26.2814 33.2612 26.4228C33.1176 26.5641 33.0369 26.7559 33.0369 26.9558V30.9292C33.0369 31.1292 33.1176 31.3209 33.2612 31.4623C33.4047 31.6036 33.5995 31.6831 33.8025 31.6831H37.838C38.0411 31.6831 38.2358 31.6036 38.3794 31.4623C38.523 31.3209 38.6037 31.1292 38.6037 30.9292V26.958C38.6037 26.758 38.523 26.5663 38.3794 26.4249C38.2358 26.2835 38.0411 26.2041 37.838 26.2041L37.8376 26.202ZM37.072 30.1754H34.5682V27.7118H37.0724L37.072 30.1754ZM22.1856 33.0068H18.1505C17.9475 33.0068 17.7527 33.0863 17.6092 33.2276C17.4656 33.369 17.3849 33.5607 17.3849 33.7607V37.7354C17.3849 37.9353 17.4656 38.1271 17.6092 38.2684C17.7527 38.4098 17.9475 38.4892 18.1505 38.4892H22.1856C22.3887 38.4892 22.5834 38.4098 22.727 38.2684C22.8706 38.1271 22.9512 37.9353 22.9512 37.7354V33.7607C22.9512 33.5607 22.8706 33.369 22.727 33.2276C22.5834 33.0863 22.3887 33.0068 22.1856 33.0068ZM21.42 36.9802H18.9162V34.5145H21.42V36.9802ZM25.2109 37.7341C25.2109 37.934 25.2916 38.1258 25.4352 38.2671C25.5787 38.4085 25.7735 38.4879 25.9765 38.4879H30.0125C30.2155 38.4879 30.4103 38.4085 30.5539 38.2671C30.6974 38.1258 30.7781 37.934 30.7781 37.7341V33.7607C30.7781 33.5607 30.6974 33.369 30.5539 33.2276C30.4103 33.0863 30.2155 33.0068 30.0125 33.0068H25.9765C25.7735 33.0068 25.5787 33.0863 25.4352 33.2276C25.2916 33.369 25.2109 33.5607 25.2109 33.7607V37.7341ZM26.7422 34.5145H29.246V36.9802H26.7422V34.5145ZM37.8376 33.0068H33.8025C33.5995 33.0068 33.4047 33.0863 33.2612 33.2276C33.1176 33.369 33.0369 33.5607 33.0369 33.7607V37.7354C33.0369 37.9353 33.1176 38.1271 33.2612 38.2684C33.4047 38.4098 33.5995 38.4892 33.8025 38.4892H37.838C38.0411 38.4892 38.2358 38.4098 38.3794 38.2684C38.523 38.1271 38.6037 37.9353 38.6037 37.7354V33.7607C38.6037 33.5607 38.523 33.369 38.3794 33.2276C38.2358 33.0863 38.0407 33.0068 37.8376 33.0068ZM37.072 36.9802H34.5682V34.5145H37.0724L37.072 36.9802ZM22.1856 39.8095H18.1505C17.9475 39.8095 17.7527 39.889 17.6092 40.0303C17.4656 40.1717 17.3849 40.3634 17.3849 40.5634V44.5368C17.3849 44.7367 17.4656 44.9285 17.6092 45.0698C17.7527 45.2112 17.9475 45.2906 18.1505 45.2906H22.1856C22.3887 45.2906 22.5834 45.2112 22.727 45.0698C22.8706 44.9285 22.9512 44.7367 22.9512 44.5368V40.5634C22.9512 40.3634 22.8706 40.1717 22.727 40.0303C22.5834 39.889 22.3887 39.8095 22.1856 39.8095ZM21.42 43.7829H18.9162V41.3172H21.42V43.7829Z" fill="#B5B5D0"/>
<path d="M22.9513 30.9291V26.9578C22.9513 26.7579 22.8706 26.5661 22.727 26.4247C22.5834 26.2834 22.3887 26.2039 22.1856 26.2039C21.9826 26.2039 21.7878 26.2834 21.6443 26.4247C21.5007 26.5661 21.42 26.7579 21.42 26.9578V30.1774H18.9162V26.9578C18.9162 26.7579 18.8355 26.5661 18.692 26.4247C18.5484 26.2834 18.3536 26.2039 18.1506 26.2039C17.9475 26.2039 17.7528 26.2834 17.6092 26.4247C17.4656 26.5661 17.3849 26.7579 17.3849 26.9578V30.9291C17.3849 31.129 17.4656 31.3207 17.6092 31.4621C17.7528 31.6035 17.9475 31.6829 18.1506 31.6829H22.1856C22.3887 31.6829 22.5834 31.6035 22.727 31.4621C22.8706 31.3207 22.9513 31.129 22.9513 30.9291Z" fill="#61AD15"/>
<path d="M40.4994 8.33051V15.2896C40.4994 15.4895 40.4187 15.6813 40.2751 15.8226C40.1316 15.964 39.9368 16.0434 39.7338 16.0434H16.2549C16.0518 16.0434 15.8571 15.964 15.7135 15.8226C15.5699 15.6813 15.4893 15.4895 15.4893 15.2896V8.33051C15.4893 8.13057 15.5699 7.93883 15.7135 7.79746C15.8571 7.65608 16.0518 7.57666 16.2549 7.57666H20.1688C20.3718 7.57666 20.5666 7.65608 20.7101 7.79746C20.8537 7.93883 20.9344 8.13057 20.9344 8.33051C20.9344 8.53044 20.8537 8.72218 20.7101 8.86356C20.5666 9.00493 20.3718 9.08435 20.1688 9.08435H17.0188V14.5357H38.9681V9.08435H26.9553C26.7522 9.08435 26.5575 9.00493 26.4139 8.86356C26.2703 8.72218 26.1896 8.53044 26.1896 8.33051C26.1896 8.13057 26.2703 7.93883 26.4139 7.79746C26.5575 7.65608 26.7522 7.57666 26.9553 7.57666H39.7338C39.9368 7.57666 40.1316 7.65608 40.2751 7.79746C40.4187 7.93883 40.4994 8.13057 40.4994 8.33051Z" fill="#61AD15"/>
<path d="M26.7422 41.3171V43.7828H37.8381C38.0411 43.7828 38.2359 43.8622 38.3794 44.0036C38.523 44.145 38.6037 44.3367 38.6037 44.5367C38.6037 44.7366 38.523 44.9283 38.3794 45.0697C38.2359 45.2111 38.0411 45.2905 37.8381 45.2905H25.9766C25.7735 45.2905 25.5788 45.2111 25.4352 45.0697C25.2916 44.9283 25.2109 44.7366 25.2109 44.5367V40.5632C25.2109 40.3633 25.2916 40.1716 25.4352 40.0302C25.5788 39.8888 25.7735 39.8094 25.9766 39.8094H37.8381C38.0411 39.8094 38.2359 39.8888 38.3794 40.0302C38.523 40.1716 38.6037 40.3633 38.6037 40.5632C38.6037 40.7632 38.523 40.9549 38.3794 41.0963C38.2359 41.2377 38.0411 41.3171 37.8381 41.3171H26.7422Z" fill="#61AD15"/>
</svg>
