<svg width="56" height="56" viewBox="0 0 56 56" fill="none" xmlns="http://www.w3.org/2000/svg">
<g clip-path="url(#clip0)">
<path d="M45.5 10.8496C43.0876 10.8496 41.125 8.88698 41.125 6.47461C41.125 5.99143 40.7332 5.59961 40.25 5.59961H15.75C15.2668 5.59961 14.875 5.99143 14.875 6.47461C14.875 8.88698 12.9124 10.8496 10.5 10.8496C10.0168 10.8496 9.625 11.2414 9.625 11.7246V26.0037C9.625 37.1317 16.8783 47.103 27.7487 50.3628C27.8307 50.3873 27.9153 50.3996 28 50.3996C28.0847 50.3996 28.1695 50.3873 28.2514 50.3627C38.8863 47.1725 46.375 37.3751 46.375 26.0037V11.7246C46.375 11.2414 45.9832 10.8496 45.5 10.8496ZM44.625 26.0037C44.625 36.4554 37.9557 45.5068 28 48.6096C18.1237 45.5315 11.375 36.3982 11.375 26.0037V12.5373C14.0535 12.1525 16.1779 10.0281 16.5627 7.34961H39.4373C39.8221 10.0281 41.9465 12.1525 44.625 12.5373V26.0037Z" fill="#838BA4"/>
<path d="M42.351 13.6925C40.5263 12.8933 39.0813 11.4483 38.2821 9.62356C38.1426 9.30523 37.8282 9.09961 37.4806 9.09961H31.4982C31.0151 9.09961 30.6232 9.49143 30.6232 9.97461C30.6232 10.4578 31.0151 10.8496 31.4982 10.8496H36.9274C37.8518 12.6592 39.3154 14.1227 41.125 15.0472V26.0037C41.125 34.5667 35.9845 41.9552 28 44.9128C20.0155 41.9552 14.875 34.5667 14.875 26.0037V15.0472C16.6846 14.1227 18.1481 12.6592 19.0726 10.8496H24.5017C24.9849 10.8496 25.3767 10.4578 25.3767 9.97461C25.3767 9.49143 24.9849 9.09961 24.5017 9.09961H18.5194C18.1718 9.09961 17.8573 9.30532 17.7179 9.62356C16.9187 11.4483 15.4737 12.8933 13.6489 13.6925C13.3307 13.832 13.125 14.1465 13.125 14.494V26.0037C13.125 35.3849 18.9272 43.5609 27.7081 46.6683C27.8025 46.7017 27.9012 46.7184 28 46.7184C28.0988 46.7184 28.1975 46.7017 28.2919 46.6683C37.0654 43.5635 42.875 35.3925 42.875 26.0037V14.494C42.875 14.1464 42.6693 13.832 42.351 13.6925Z" fill="#838BA4"/>
<path d="M28 18.375C23.6577 18.375 20.125 21.9077 20.125 26.25C20.125 30.5923 23.6577 34.125 28 34.125C32.3423 34.125 35.875 30.5923 35.875 26.25C35.875 21.9077 32.3423 18.375 28 18.375ZM28 32.375C24.6227 32.375 21.875 29.6273 21.875 26.25C21.875 22.8727 24.6227 20.125 28 20.125C31.3773 20.125 34.125 22.8727 34.125 26.25C34.125 29.6273 31.3773 32.375 28 32.375Z" fill="#61AD15"/>
<path d="M27.0971 22.8365C27.0979 22.3532 27.49 21.962 27.9732 21.9625C28.4565 21.9631 28.8478 22.3553 28.8472 22.8385L28.8472 27.271C28.8472 27.7557 28.4543 28.1486 27.9697 28.1486C27.4846 28.1486 27.0915 27.7551 27.0921 27.27L27.0971 22.8365Z" fill="#61AD15"/>
<path d="M28.0473 28.662L27.8941 28.662C27.4534 28.662 27.0958 29.0183 27.0941 29.4589C27.0924 29.9019 27.4511 30.2619 27.8941 30.2619L28.0473 30.2619C28.4891 30.2619 28.8472 29.9038 28.8472 29.462C28.8472 29.0202 28.4891 28.662 28.0473 28.662Z" fill="#61AD15"/>
</g>
<defs>
<clipPath id="clip0">
<rect width="44.8" height="44.8" fill="white" transform="translate(5.59998 5.59961)"/>
</clipPath>
</defs>
</svg>
