<svg width="56" height="56" viewBox="0 0 56 56" fill="none" xmlns="http://www.w3.org/2000/svg">
<g clip-path="url(#clip0)">
<path d="M50.1412 36.7374L48.0054 34.6191C47.6622 34.2786 47.1081 34.281 46.7678 34.6241C46.4273 34.9673 46.4296 35.5215 46.7728 35.8618L48.9085 37.9802C49.0792 38.1495 49.302 38.234 49.5248 38.234C49.7499 38.234 49.9751 38.1477 50.1461 37.9751C50.4867 37.632 50.4844 37.0778 50.1412 36.7374Z" fill="#61AD15"/>
<path d="M38.3677 36.4889L46.8577 27.999C48.1435 26.7131 48.1435 24.6208 46.8576 23.3349C46.4042 22.8815 45.8504 22.5887 45.2671 22.4551C45.4671 22.0251 45.573 21.5532 45.573 21.0649C45.573 20.1839 45.2299 19.3558 44.6071 18.7329C44.1186 18.2443 43.5035 17.9288 42.836 17.8151C43.2118 16.6701 42.9462 15.3588 42.0373 14.45C41.5376 13.9504 40.9161 13.6459 40.2674 13.5346C40.3761 13.2048 40.4334 12.8565 40.4334 12.4992C40.4334 11.6182 40.0903 10.79 39.4675 10.1672C38.8446 9.54438 38.0164 9.2013 37.1356 9.2013C36.5762 9.2013 36.0383 9.34007 35.5605 9.60065L35.476 9.50991C34.3786 8.33058 32.8252 7.6543 31.2144 7.6543H24.3422C23.8589 7.6543 23.467 8.04621 23.467 8.52947V9.67712C23.467 10.1364 23.5447 10.5835 23.6933 11.004C23.2974 10.8396 22.8691 10.7532 22.4276 10.7532C21.5466 10.7532 20.7185 11.0963 20.0955 11.7191C19.1862 12.6284 18.9209 13.9407 19.2975 15.0861C18.6484 15.1971 18.026 15.5018 17.5258 16.0019C16.903 16.6248 16.5599 17.453 16.5599 18.3338C16.5599 18.6905 16.6171 19.0382 16.7253 19.3673C16.0586 19.4813 15.4441 19.7967 14.9561 20.2848C13.9518 21.2891 13.7319 22.7853 14.2964 24.005C13.6987 24.1416 13.1497 24.4426 12.7054 24.8868C11.4196 26.1726 11.4196 28.2649 12.7054 29.5508L14.4514 31.2967L5.85588 39.892C5.5141 40.2338 5.5141 40.7879 5.85588 41.1298C6.02677 41.3006 6.25077 41.3862 6.47468 41.3862C6.69859 41.3862 6.92259 41.3007 7.09348 41.1298L15.7719 32.4514C16.2632 32.7317 16.8208 32.8817 17.4019 32.8817C18.2827 32.8817 19.1109 32.5386 19.7338 31.9157C20.4105 31.239 20.7306 30.3389 20.695 29.4506C20.7394 29.4525 20.7837 29.4538 20.8281 29.4538C21.6725 29.4537 22.5173 29.1322 23.1601 28.4894C23.7829 27.8665 24.126 27.0383 24.126 26.1575C24.126 26.1129 24.1245 26.0687 24.1227 26.0244C24.1666 26.0261 24.2104 26.0275 24.2543 26.0275C25.0988 26.0275 25.9434 25.7061 26.5863 25.0632C27.2091 24.4403 27.5522 23.6121 27.5522 22.7312C27.5522 22.6867 27.5507 22.6424 27.549 22.5982C27.5928 22.5999 27.6366 22.6013 27.6806 22.6013C28.5251 22.6013 29.3697 22.2798 30.0125 21.637C31.2207 20.4288 31.2934 18.5088 30.2313 17.2145L36.0408 11.4051C36.3331 11.1126 36.7216 10.9517 37.135 10.9517C37.5485 10.9517 37.9371 11.1126 38.2294 11.4051C38.5217 11.6974 38.6826 12.0859 38.6826 12.4993C38.6826 12.9127 38.5217 13.3014 38.2293 13.5936L37.3728 14.4502L34.2649 17.558C33.9232 17.8998 33.9232 18.4539 34.2649 18.7958C34.4358 18.9666 34.6598 19.0521 34.8837 19.0521C35.1077 19.0521 35.3317 18.9666 35.5025 18.7958L38.6104 15.6879C39.2137 15.0845 40.1955 15.0844 40.799 15.6878C41.4024 16.2913 41.4024 17.2731 40.799 17.8766L39.9424 18.7332L37.6912 20.9844C37.3494 21.3262 37.3494 21.8803 37.6912 22.2222C37.8621 22.393 38.0861 22.4785 38.31 22.4785C38.5339 22.4785 38.7579 22.3931 38.9288 22.2222L41.18 19.971C41.4723 19.6785 41.8609 19.5176 42.2743 19.5176C42.6877 19.5176 43.0763 19.6785 43.3686 19.971C43.661 20.2633 43.8219 20.6518 43.8219 21.0652C43.8219 21.4786 43.661 21.8673 43.3685 22.1595L42.1928 23.3353L41.1173 24.4107C40.7756 24.7525 40.7756 25.3066 41.1173 25.6485C41.2882 25.8193 41.5122 25.9049 41.7361 25.9049C41.96 25.9049 42.184 25.8194 42.3549 25.6485L43.4312 24.5722C44.0347 23.9698 45.0159 23.9699 45.619 24.573C46.2225 25.1764 46.2225 26.1583 45.619 26.7618L37.1291 35.2516C34.9972 37.3836 32.1639 38.6177 29.151 38.7271C28.9295 38.7352 28.7192 38.827 28.5627 38.9841L20.7199 46.856C20.3788 47.1983 20.3797 47.7525 20.7222 48.0936C20.8929 48.2637 21.1164 48.3489 21.3399 48.3489C21.5643 48.3489 21.7889 48.263 21.9598 48.0914L27.7284 42.3015C29.1937 43.2415 30.9169 43.6885 32.6691 43.5726L37.1839 48.0875C37.3548 48.2583 37.5788 48.3439 37.8027 48.3439C38.0267 48.3439 38.2507 48.2584 38.4215 48.0875C38.7633 47.7457 38.7633 47.1916 38.4215 46.8497L33.6213 42.049C33.4396 41.8673 33.187 41.7745 32.9309 41.7955L32.6535 41.8182C31.3727 41.9232 30.1068 41.6427 29.0015 41.0233L29.5639 40.4588C32.8903 40.2536 36.0046 38.8521 38.3677 36.4889ZM18.4962 30.6781C18.2039 30.9705 17.8152 31.1314 17.4019 31.1314C16.9885 31.1314 16.5999 30.9705 16.3077 30.6781L13.9429 28.3134C13.3395 27.71 13.3395 26.7282 13.9429 26.1247C14.2352 25.8322 14.6239 25.6713 15.0373 25.6713C15.4506 25.6713 15.8393 25.8322 16.1315 26.1247L18.4963 28.4894C19.0996 29.0928 19.0996 30.0746 18.4962 30.6781ZM21.9226 27.2517C21.3191 27.8551 20.3371 27.8551 19.7339 27.2517L17.3691 24.8869L16.1933 23.7111C15.5899 23.1077 15.5899 22.1258 16.1933 21.5224C16.4856 21.23 16.8743 21.0691 17.2876 21.0691C17.701 21.0691 18.0896 21.23 18.3819 21.5224L21.9224 25.0629C21.9224 25.0629 21.9224 25.0629 21.9225 25.0629C22.2149 25.3554 22.3758 25.744 22.3758 26.1573C22.3758 26.5707 22.2149 26.9593 21.9226 27.2517ZM25.3489 23.8253C24.7454 24.4287 23.7635 24.4287 23.1601 23.8253L18.763 19.4282C18.4707 19.1359 18.3098 18.7474 18.3098 18.3339C18.3098 17.9206 18.4707 17.5319 18.7631 17.2397C19.0648 16.938 19.4612 16.7871 19.8574 16.7871C20.2534 16.7871 20.6493 16.9378 20.9509 17.239L22.955 19.2431L25.3487 21.6367H25.3488C25.641 21.929 25.8019 22.3175 25.8019 22.731C25.8021 23.1444 25.6412 23.5331 25.3489 23.8253ZM28.7752 20.399C28.1718 21.0024 27.19 21.0024 26.5866 20.399L22.1894 16.0019C22.189 16.0014 22.1885 16.001 22.1879 16.0005L21.3328 15.1453C20.7294 14.5419 20.7294 13.5601 21.3328 12.9566C21.6345 12.6548 22.0309 12.504 22.4272 12.504C22.8234 12.504 23.2198 12.6548 23.5214 12.9566L28.775 18.2102C29.0674 18.5025 29.2284 18.8911 29.2284 19.3045C29.2284 19.718 29.0676 20.1068 28.7752 20.399ZM29.0053 15.9652L26.6015 13.5614C26.8741 13.6196 27.1543 13.6505 27.4396 13.6504C27.446 13.6504 27.4525 13.6504 27.4589 13.6504L29.8606 13.6391C30.3439 13.6368 30.734 13.2432 30.7317 12.7598C30.7294 12.2779 30.338 11.8888 29.8566 11.8888C29.8552 11.8888 29.8538 11.8888 29.8524 11.8888L27.4507 11.9001C27.447 11.9001 27.4435 11.9001 27.4399 11.9001C26.8481 11.9001 26.2915 11.6704 25.8719 11.2527C25.4496 10.8324 25.2171 10.2729 25.2171 9.67703V9.40456H31.2142C32.3407 9.40456 33.427 9.8775 34.1946 10.7023L34.2302 10.7405L29.0053 15.9652Z" fill="#B5B5D0"/>
</g>
<defs>
<clipPath id="clip0">
<rect width="44.8" height="44.8" fill="white" transform="translate(5.59998 5.59961)"/>
</clipPath>
</defs>
</svg>
