<svg width="32" height="32" viewBox="0 0 32 32" fill="none" xmlns="http://www.w3.org/2000/svg">
<path d="M7.45369 24.4648C7.6903 24.7788 7.82814 25.1641 7.82814 25.572V29.8159H5.37129V26.7211C5.37129 26.348 5.54093 25.995 5.83232 25.7619L7.45369 24.4648Z" fill="#C7CFE2"/>
<path d="M24.6369 23.0875L19.4979 21.2188L15.8127 22.4471L12.1275 21.2188L6.98853 23.0875C6.01759 23.4405 5.37129 24.3633 5.37129 25.3963V29.8175H26.2541V25.3963C26.2541 24.3633 25.6078 23.4405 24.6369 23.0875Z" fill="#86BE26"/>
<path d="M25.5932 23.7246C26.0079 24.1698 26.2543 24.7626 26.2543 25.3985V29.8198H22.569V27.7664C22.569 27.1148 22.8279 26.4899 23.2886 26.0292L25.5932 23.7246Z" fill="#7AAD23"/>
<path d="M22.569 8.55437V3.40905C22.569 2.73065 22.019 2.18066 21.3406 2.18066H13.9701C11.2565 2.18066 9.05652 4.3806 9.05652 7.09428V8.55437C9.05652 9.21453 9.16294 9.87033 9.37174 10.4966L9.57616 11.11C9.63876 11.2978 9.67071 11.4946 9.67071 11.6927V12.0079H21.9548V11.6927C21.9548 11.4946 21.9868 11.2978 22.0494 11.11L22.2538 10.4966C22.4626 9.8704 22.569 9.21453 22.569 8.55437Z" fill="#5A4146"/>
<path d="M12.1276 4.6759C12.1276 6.05392 13.2447 7.17113 14.6228 7.17113H14.9683L15.1351 12.008H21.9549V11.6928C21.9549 11.4947 21.9869 11.298 22.0494 11.1101L22.2539 10.4967C22.4627 9.8704 22.5691 9.21461 22.5691 8.55444V3.40905C22.5691 2.73057 22.0191 2.18066 21.3407 2.18066H14.6229C13.2447 2.18066 12.1276 3.2978 12.1276 4.6759Z" fill="#694B4B"/>
<path d="M19.4976 16.9209H12.1275V22.4483H19.4976V16.9209Z" fill="#E6AF78"/>
<path d="M12.1276 19.7006C13.2308 20.2761 14.4825 20.6061 15.8129 20.6061C17.1433 20.6061 18.3949 20.2761 19.4981 19.7006V16.9209H12.1276V19.7006Z" fill="#D29B6E"/>
<path d="M15.8128 22.4483L13.8539 24.4072C13.5906 24.6704 13.1554 24.6408 12.9303 24.3442L10.8992 21.6679L11.4304 20.5483C11.5872 20.2179 11.9961 20.0969 12.3075 20.2887L15.8128 22.4483Z" fill="#7AAD23"/>
<path d="M15.8129 22.4493L17.7717 24.4082C18.035 24.6714 18.4702 24.6418 18.6953 24.3452L20.7265 21.6689L20.1952 20.5493C20.0384 20.2189 19.6295 20.0978 19.3181 20.2897L15.8129 22.4493Z" fill="#7AAD23"/>
<path d="M15.8127 18.765C12.4205 18.765 9.67067 16.0151 9.67067 12.623V12.0088L10.6928 11.3274C11.2054 10.9857 11.5133 10.4103 11.5133 9.79421V7.70936C11.5133 7.70936 16.427 5.8667 20.1122 8.93782C20.1122 8.93782 20.1122 9.35601 20.1122 9.7939C20.1122 10.41 20.42 10.9856 20.9327 11.3274L21.9547 12.0088V12.623C21.9547 16.0151 19.2048 18.765 15.8127 18.765Z" fill="#F0C087"/>
<path d="M6.03238 23.7246C5.61763 24.1698 5.37129 24.7626 5.37129 25.3985V29.8198H9.05652V27.7664C9.05652 27.1148 8.7977 26.4899 8.33698 26.0292L6.03238 23.7246Z" fill="#7AAD23"/>
<path d="M14.4363 9.18373C15.7719 9.01624 18.1097 8.92008 20.1121 9.79194C20.1121 9.54569 20.1121 8.93586 20.1121 8.93586C16.4269 5.86475 11.5133 7.7074 11.5133 7.7074V9.79225C11.5133 10.4084 11.2054 10.9836 10.6927 11.3254L9.6707 12.0068V12.621C9.6707 15.7614 12.029 18.3467 15.0705 18.7139H15.0706C14.0107 17.6102 13.3559 16.1146 13.3559 14.4637V10.4038C13.3559 9.78137 13.8187 9.26119 14.4363 9.18373Z" fill="#E6AF78"/>
<path fill-rule="evenodd" clip-rule="evenodd" d="M24.6584 22.4836L21.3085 21.2655C21.3205 21.1074 21.2672 20.9467 21.1519 20.8255L20.0814 19.7009V17.813C20.1946 17.7197 20.3061 17.6239 20.4143 17.5226C21.7647 16.2569 22.5392 14.4698 22.5392 12.6196V11.1119C22.947 10.2245 23.1536 9.28552 23.1536 8.31849V2.17427C23.1536 1.8569 22.8963 1.59961 22.5789 1.59961H13.9768C10.9495 1.59961 8.48669 4.06251 8.48669 7.08972V8.31864C8.48669 9.28567 8.69334 10.2247 9.10111 11.112V12.4093C9.10111 14.5574 10.0563 16.4927 11.5589 17.7686V19.701L10.4884 20.8256C10.3731 20.9467 10.3198 21.1075 10.3318 21.2656L6.79613 22.5512C6.53991 22.6444 6.30185 22.7705 6.0857 22.9234C5.77399 23.1105 5.40681 23.5835 5.26218 23.7967C4.96734 24.2684 4.8 24.8216 4.8 25.4011V29.824C4.8 30.1414 5.0573 30.3987 5.37466 30.3987C5.69202 30.3987 5.94932 30.1414 5.94932 29.824V25.4011C5.94932 24.6122 6.44743 23.901 7.18889 23.6314L10.9166 22.2759L12.4684 24.6037C12.6668 24.9013 12.9847 25.0922 13.3406 25.1274C13.3803 25.1313 13.4198 25.1332 13.4592 25.1332C13.7731 25.1332 14.0739 25.0096 14.2987 24.7849L15.2454 23.8382V29.8241C15.2454 30.1415 15.5027 30.3988 15.8201 30.3988C16.1374 30.3988 16.3947 30.1415 16.3947 29.8241V23.8382L17.3415 24.7849C17.5662 25.0097 17.8669 25.1333 18.181 25.1333C18.2203 25.1333 18.2598 25.1314 18.2994 25.1275C18.6554 25.0922 18.9733 24.9014 19.1717 24.6038L20.7236 22.276L24.4513 23.6315C25.1926 23.9012 25.6908 24.6124 25.6908 25.4013V29.8242C25.6908 30.1416 25.9481 30.3988 26.2655 30.3988C26.5828 30.3988 26.8401 30.1416 26.8401 29.8242V25.4013C26.8401 24.6022 26.5227 23.8529 25.9902 23.2987C25.7684 23.0324 25.0099 22.6444 24.6584 22.4836ZM10.2504 10.9834V12.4092C10.2504 15.455 12.5336 17.9886 15.4483 18.1774C16.8096 18.2656 18.113 17.8729 19.1772 17.0649C19.1805 17.0625 19.1837 17.06 19.1871 17.0577C19.3393 16.9416 19.4865 16.817 19.6283 16.6842C20.7643 15.6194 21.3899 14.1759 21.3899 12.6197V10.9834C21.3899 10.8969 21.4094 10.8115 21.447 10.7336C21.8168 9.96783 22.0043 9.15534 22.0043 8.31864V2.74892H13.9768C11.5833 2.74892 9.636 4.69616 9.636 7.08972V8.31864C9.636 9.15534 9.82349 9.96783 10.1933 10.7336C10.2309 10.8115 10.2504 10.8969 10.2504 10.9834ZM15.826 19.3389C15.6759 19.3389 15.5254 19.334 15.3739 19.3242C14.415 19.2622 13.5134 18.9899 12.7082 18.5546V19.6273L15.8201 21.7545L18.9321 19.6273V18.5776C17.9824 19.0762 16.9249 19.3389 15.826 19.3389ZM13.486 23.9721L14.924 22.5341L12.2128 20.6809L11.6376 21.2852L13.4248 23.966C13.428 23.9707 13.4353 23.9817 13.454 23.9835C13.4728 23.9855 13.4821 23.9761 13.486 23.9721ZM18.1863 23.9836C18.205 23.9818 18.2123 23.9708 18.2155 23.9661L20.0027 21.2853L19.4275 20.6809L16.7163 22.5343L18.1542 23.9722C18.1583 23.9761 18.1675 23.986 18.1863 23.9836Z" fill="black"/>
<path d="M12.0936 8.22463C12.0936 8.20509 12.1064 8.18839 12.1236 8.18578C12.8643 8.07414 14.3341 7.9019 15.857 8.00342C17.649 8.12272 18.9469 8.57256 19.7148 9.34045C19.9392 9.56487 20.3031 9.56487 20.5274 9.34045C20.7518 9.11603 20.7518 8.75216 20.5274 8.52782C18.354 6.3544 13.8066 6.76991 11.9522 7.04942C11.3681 7.13746 10.9443 7.63174 10.9443 8.2247V9.54855C10.9443 9.86592 11.2016 10.1232 11.5189 10.1232C11.8363 10.1232 12.0936 9.86592 12.0936 9.54855V8.22463Z" fill="black"/>
<path d="M9.06124 26.793C8.74388 26.793 8.48659 27.0503 8.48659 27.3676V29.8254C8.48659 30.1428 8.74388 30.4 9.06124 30.4C9.37861 30.4 9.6359 30.1428 9.6359 29.8254V27.3676C9.6359 27.0503 9.37861 26.793 9.06124 26.793Z" fill="black"/>
<path d="M22.5788 26.793C22.2615 26.793 22.0042 27.0503 22.0042 27.3676V29.8254C22.0042 30.1428 22.2615 30.4 22.5788 30.4C22.8962 30.4 23.1535 30.1428 23.1535 29.8254V27.3676C23.1535 27.0503 22.8962 26.793 22.5788 26.793Z" fill="black"/>
</svg>
