<svg width="56" height="56" viewBox="0 0 56 56" fill="none" xmlns="http://www.w3.org/2000/svg">
<g clip-path="url(#clip0)">
<path d="M32.3358 41.5366H28.9409C28.4578 41.5366 28.066 41.9282 28.066 42.4115C28.066 42.8948 28.4578 43.2864 28.9409 43.2864H32.3358C32.8598 43.2864 33.2861 43.7126 33.2861 44.2366C33.2861 44.7605 32.8599 45.1867 32.3358 45.1867H23.197C21.8233 45.1867 20.5314 44.5811 19.6529 43.5249L17.4674 40.898C16.2948 39.4884 14.5881 38.6628 12.762 38.6106V33.4423H15.9833C17.572 33.4423 19.0762 34.0499 20.219 35.1531L24.936 39.7061C25.2694 40.028 25.285 40.567 24.9706 40.9076C24.6502 41.2546 24.1063 41.2773 23.7581 40.9581L20.0549 37.5635C19.6989 37.237 19.1453 37.261 18.8189 37.6172C18.4923 37.9734 18.5164 38.5269 18.8726 38.8533L22.5758 42.248C23.0753 42.7058 23.7073 42.9319 24.3377 42.9319C25.0416 42.9319 25.7434 42.65 26.2564 42.0943C27.2107 41.0605 27.1636 39.4244 26.1513 38.4472L21.4343 33.8942C19.9635 32.4744 18.0277 31.6925 15.9833 31.6925H12.592C12.2629 30.9134 11.4908 30.3652 10.5933 30.3652H6.47492C5.99174 30.3652 5.60001 30.7569 5.60001 31.2401V37.6379C5.60001 38.121 5.99174 38.5128 6.47492 38.5128C6.95809 38.5128 7.34983 38.1211 7.34983 37.6379V32.115H10.5934C10.8244 32.115 11.0122 32.3029 11.0122 32.5338V39.5463C11.0122 39.7772 10.8244 39.9652 10.5934 39.9652H9.68467C9.2015 39.9652 8.80976 40.3568 8.80976 40.8401C8.80976 41.3233 9.2015 41.715 9.68467 41.715H10.5933C11.5029 41.715 12.283 41.1519 12.6045 40.3561C13.9685 40.3638 15.2494 40.9679 16.1223 42.0172L18.3078 44.6441C19.5198 46.101 21.3019 46.9366 23.197 46.9366H32.3358C33.8246 46.9366 35.0358 45.7254 35.0358 44.2366C35.0358 42.7478 33.8246 41.5366 32.3358 41.5366Z" fill="#B5B5D0"/>
<path d="M49.5251 17.1445C49.042 17.1445 48.6502 17.5362 48.6502 18.0194V23.8841H45.4067C45.1757 23.8841 44.9878 23.6961 44.9878 23.4652V16.4527C44.9878 16.2218 45.1757 16.0339 45.4067 16.0339H46.2512C46.7343 16.0339 47.1261 15.6422 47.1261 15.159C47.1261 14.6758 46.7343 14.2841 46.2512 14.2841H45.4067C44.497 14.2841 43.717 14.8472 43.3954 15.643C42.0315 15.6352 40.7506 15.0312 39.8777 13.9819L37.6922 11.3551C36.4802 9.89812 34.6981 9.0625 32.8029 9.0625H23.6642C22.1755 9.0625 20.9642 10.2737 20.9642 11.7624C20.9642 13.2511 22.1755 14.4623 23.6642 14.4623H27.4011C27.8843 14.4623 28.276 14.0706 28.276 13.5874C28.276 13.1041 27.8843 12.7125 27.4011 12.7125H23.6642C23.1402 12.7125 22.7139 12.2863 22.7139 11.7623C22.7139 11.2384 23.1402 10.8121 23.6642 10.8121H32.8029C34.1768 10.8121 35.4686 11.4178 36.3471 12.4739L38.5326 15.1008C39.7052 16.5104 41.412 17.336 43.2381 17.3883V22.5566H40.0167C38.428 22.5566 36.9238 21.949 35.781 20.8458L31.0641 16.2928C30.7306 15.9709 30.715 15.432 31.0294 15.0913C31.3498 14.7442 31.8937 14.7216 32.2419 15.0408L35.9452 18.4354C36.3014 18.7619 36.8547 18.7379 37.1813 18.3817C37.5078 18.0255 37.4837 17.472 37.1275 17.1456L33.4242 13.751C32.3672 12.7821 30.7162 12.8512 29.7436 13.9047C28.7893 14.9386 28.8365 16.5746 29.8488 17.5517L34.5657 22.1048C36.0365 23.5246 37.9723 24.3065 40.0167 24.3065H43.408C43.7372 25.0856 44.5092 25.6337 45.4068 25.6337H49.5252C50.0084 25.6337 50.4001 25.2421 50.4001 24.7588V18.0192C50.4 17.5362 50.0083 17.1445 49.5251 17.1445Z" fill="#B5B5D0"/>
<path d="M31.0037 23.2852C29.8649 23.2852 28.8098 23.7548 28.0579 24.5473C27.3059 23.7548 26.2508 23.2852 25.112 23.2852C22.8718 23.2852 21.0492 25.1077 21.0492 27.3479C21.0492 28.5568 21.5824 29.6944 22.5118 30.4693C22.5174 30.4741 22.5232 30.4787 22.5289 30.4833L27.5148 34.4306C27.6738 34.5566 27.8658 34.6195 28.0578 34.6195C28.2506 34.6195 28.4435 34.556 28.6029 34.429L33.8 30.2893C33.8254 30.2691 33.8497 30.2474 33.8727 30.2245C34.6426 29.4567 35.0665 28.4351 35.0665 27.3479C35.0665 25.1077 33.244 23.2852 31.0037 23.2852ZM32.6687 28.9537L28.0563 32.6276L23.6244 29.1189C23.0998 28.6776 22.799 28.0328 22.799 27.3481C22.799 26.0726 23.8366 25.035 25.112 25.035C26.051 25.035 26.89 25.5958 27.2496 26.4636C27.3852 26.7904 27.7041 27.0035 28.0579 27.0035C28.4116 27.0035 28.7306 26.7905 28.8661 26.4636C29.2257 25.5958 30.0648 25.035 31.0037 25.035C32.2791 25.035 33.3168 26.0726 33.3168 27.348C33.3168 27.952 33.0869 28.5204 32.6687 28.9537Z" fill="#61AD15"/>
</g>
<defs>
<clipPath id="clip0">
<rect width="44.8" height="44.8" fill="white" transform="translate(5.60001 5.59961)"/>
</clipPath>
</defs>
</svg>
