<svg width="56" height="56" viewBox="0 0 56 56" fill="none" xmlns="http://www.w3.org/2000/svg">
<g clip-path="url(#clip0)">
<path d="M49.5233 18.7549H44.7692L43.183 16.753C42.8234 16.2991 42.2635 16.0428 41.6852 16.0677C41.1065 16.0923 40.5706 16.3952 40.251 16.8778L39.0079 18.7549H35.6863C34.2395 16.2632 31.7273 14.6113 28.876 14.6113C26.0241 14.6113 23.5115 16.2639 22.065 18.7563H6.47671C5.99238 18.7563 5.6 19.149 5.6 19.6333V37.8962C5.6 38.3806 5.99238 38.7733 6.47671 38.7733H11.2308L12.817 40.7752C13.1605 41.2089 13.6873 41.4622 14.2386 41.4622C14.2639 41.4622 14.2895 41.4615 14.3148 41.4605C14.8935 41.4359 15.4294 41.1331 15.749 40.6501L16.9921 38.7733H18.185C18.5852 40.2693 19.952 41.3744 21.5729 41.3744H25.5452C26.0295 41.3744 26.4219 40.9816 26.4219 40.4977C26.4219 40.0133 26.0295 39.6209 25.5452 39.6209H21.5725C20.6056 39.6209 19.8191 38.8341 19.8191 37.8672V26.3015C19.8191 25.3345 20.6056 24.548 21.5725 24.548H36.0168C36.9838 24.548 37.7703 25.3345 37.7703 26.3015V37.8672C37.7703 38.8341 36.9838 39.6209 36.0168 39.6209H32.5134C32.0291 39.6209 31.6364 40.0133 31.6364 40.4977C31.6364 40.9816 32.0291 41.3744 32.5134 41.3744H36.0168C37.638 41.3744 39.0052 40.2687 39.4051 38.7716H49.5233C50.0076 38.7716 50.4 38.3792 50.4 37.8949V19.6316C50.4 19.1477 50.0076 18.7549 49.5233 18.7549ZM28.876 16.3651C32.1234 16.3651 34.8079 19.1777 35.1863 22.7943H33.6803C33.3259 20.0062 31.3062 17.8628 28.876 17.8628C26.4455 17.8628 24.4262 20.0062 24.0714 22.7943H22.5658C22.9438 19.1777 25.6286 16.3651 28.876 16.3651ZM31.9084 22.7943H25.8436C26.1516 20.9787 27.394 19.6166 28.876 19.6166C30.3581 19.6166 31.6005 20.9787 31.9084 22.7943ZM18.0653 26.3015V37.0195H16.5211C16.2268 37.0195 15.9523 37.1668 15.79 37.4123L14.2871 39.6821C14.2816 39.6903 14.2704 39.7071 14.2403 39.7084C14.2105 39.7108 14.1976 39.6937 14.1914 39.6862L12.3423 37.3518C12.1758 37.1419 11.9226 37.0195 11.6549 37.0195H7.35376V20.5101H21.2745C21.0239 21.2593 20.8599 22.055 20.7956 22.8821C19.2346 23.2369 18.0653 24.6349 18.0653 26.3015ZM48.6462 37.0182H39.524V26.3015C39.524 24.6943 38.4368 23.3371 36.9595 22.9242C36.8977 22.0813 36.7322 21.2709 36.4772 20.5083H39.4789C39.7732 20.5083 40.0477 20.361 40.21 20.1156L41.7132 17.8461C41.7187 17.8379 41.7296 17.8208 41.7597 17.8198C41.7898 17.8184 41.8024 17.8341 41.8086 17.842L43.6581 20.1761C43.8242 20.3863 44.0774 20.5083 44.3451 20.5083H48.6462V37.0182Z" fill="#838BA4"/>
<path d="M16.0296 29.3574H8.92223C8.43824 29.3574 8.04552 29.7501 8.04552 30.2341C8.04552 30.7185 8.43824 31.1112 8.92223 31.1112H16.0296C16.5135 31.1112 16.9063 30.7185 16.9063 30.2341C16.9063 29.7501 16.5135 29.3574 16.0296 29.3574Z" fill="#838BA4"/>
<path d="M8.92223 27.9979H13.6571C14.1415 27.9979 14.5338 27.6052 14.5338 27.1212C14.5338 26.6369 14.1415 26.2441 13.6571 26.2441H8.92223C8.43824 26.2441 8.04552 26.6369 8.04552 27.1212C8.04552 27.6052 8.43824 27.9979 8.92223 27.9979Z" fill="#838BA4"/>
<path d="M13.6571 32.4492H8.92223C8.43824 32.4492 8.04552 32.8416 8.04552 33.3259C8.04552 33.8099 8.43824 34.2026 8.92223 34.2026H13.6571C14.1415 34.2026 14.5338 33.8099 14.5338 33.3259C14.5338 32.8416 14.1415 32.4492 13.6571 32.4492Z" fill="#838BA4"/>
<path d="M8.34373 22.6522C8.48182 22.9933 8.80994 23.2008 9.15687 23.2008C9.26624 23.2008 9.37767 23.1799 9.48533 23.1365C9.93411 22.955 10.1512 22.444 9.96966 21.9949L9.95975 21.9707C9.77825 21.5215 9.26727 21.3045 8.81815 21.486C8.36903 21.6675 8.15233 22.1788 8.33382 22.6276L8.34373 22.6522Z" fill="#838BA4"/>
<path d="M10.4864 22.6522C10.6245 22.9933 10.953 23.2008 11.2999 23.2008C11.4093 23.2008 11.5204 23.1799 11.628 23.1365C12.0771 22.955 12.2938 22.444 12.1123 21.9949L12.1024 21.9707C11.9209 21.5215 11.41 21.3045 10.9608 21.486C10.5121 21.6675 10.295 22.1788 10.4765 22.6276L10.4864 22.6522Z" fill="#838BA4"/>
<path d="M12.6301 22.6522C12.7679 22.9933 13.0964 23.2008 13.4433 23.2008C13.5527 23.2008 13.6637 23.1799 13.7714 23.1365C14.2205 22.955 14.4372 22.444 14.2557 21.9949L14.2458 21.9707C14.0643 21.5215 13.5533 21.3045 13.1046 21.486C12.6554 21.6675 12.4387 22.1788 12.6202 22.6276L12.6301 22.6522Z" fill="#838BA4"/>
<path d="M47.2172 26.4785H41.0183C40.534 26.4785 40.1413 26.8709 40.1413 27.3552C40.1413 27.8392 40.534 28.2319 41.0183 28.2319H47.2172C47.7015 28.2319 48.0942 27.8392 48.0942 27.3552C48.0942 26.8709 47.7015 26.4785 47.2172 26.4785Z" fill="#838BA4"/>
<path d="M47.2172 29.5918H42.4826C41.9983 29.5918 41.6059 29.9845 41.6059 30.4688C41.6059 30.9528 41.9983 31.3456 42.4826 31.3456H47.2172C47.7015 31.3456 48.0942 30.9528 48.0942 30.4688C48.0942 29.9845 47.7015 29.5918 47.2172 29.5918Z" fill="#838BA4"/>
<path d="M43.2411 24.2654C43.2411 24.7497 43.6335 25.1424 44.1178 25.1424H47.2172C47.7015 25.1424 48.0942 24.7497 48.0942 24.2654C48.0942 23.7814 47.7015 23.3887 47.2172 23.3887H44.1178C43.6335 23.3887 43.2411 23.7814 43.2411 24.2654Z" fill="#838BA4"/>
<path d="M47.7959 34.9368C47.6144 34.488 47.1034 34.2713 46.6543 34.4528C46.2055 34.6343 45.9888 35.1457 46.1703 35.5944L46.1802 35.619C46.3183 35.9605 46.6468 36.1676 46.9934 36.1676C47.1031 36.1676 47.2142 36.1468 47.3218 36.1034C47.7709 35.9215 47.9876 35.4106 47.8058 34.9618L47.7959 34.9368Z" fill="#838BA4"/>
<path d="M45.6535 34.9382C45.4724 34.4891 44.9617 34.2713 44.5126 34.4525C44.0635 34.6333 43.8457 35.1443 44.0269 35.5934L44.0368 35.618C44.1742 35.9598 44.503 36.1676 44.8503 36.1676C44.9593 36.1676 45.0701 36.1468 45.1777 36.1037C45.6269 35.9229 45.8442 35.4119 45.6634 34.9628L45.6535 34.9382Z" fill="#838BA4"/>
<path d="M43.5099 34.9382C43.3291 34.4891 42.8181 34.2713 42.369 34.4525C41.9199 34.6333 41.7025 35.1443 41.8833 35.5934L41.8932 35.618C42.031 35.9598 42.3598 36.1676 42.7067 36.1676C42.8157 36.1676 42.9268 36.1468 43.0341 36.1037C43.4833 35.9229 43.7006 35.4119 43.5198 34.9628L43.5099 34.9382Z" fill="#838BA4"/>
<path d="M28.9824 27.2441C27.2792 27.2441 25.8932 28.6298 25.8932 30.333C25.8932 31.7319 26.828 32.9156 28.1057 33.2946V35.6988C28.1057 36.1828 28.498 36.5755 28.9824 36.5755C29.4667 36.5755 29.8591 36.1828 29.8591 35.6988V33.2946C31.1367 32.9156 32.0712 31.7319 32.0712 30.333C32.0712 28.6298 30.6855 27.2441 28.9824 27.2441ZM28.9824 31.6684C28.2461 31.6684 27.647 31.0695 27.647 30.333C27.647 29.5967 28.2461 28.9976 28.9824 28.9976C29.7186 28.9976 30.3178 29.5967 30.3178 30.333C30.3178 31.0695 29.7186 31.6684 28.9824 31.6684Z" fill="#838BA4"/>
<path d="M29.7897 40.1565C29.6075 39.708 29.0962 39.492 28.6474 39.6738C28.1989 39.856 27.9826 40.3673 28.1648 40.8161L28.175 40.8407C28.3131 41.1812 28.6412 41.3879 28.9875 41.3879C29.0975 41.3879 29.2089 41.3671 29.317 41.3233C29.7657 41.1412 29.9817 40.6298 29.7996 40.1811L29.7897 40.1565Z" fill="#838BA4"/>
<path d="M22.5999 31.6645C22.4177 31.2157 21.9064 30.9997 21.4576 31.1818C21.0088 31.3637 20.7928 31.8753 20.975 32.3238L20.9849 32.3484C21.1233 32.6892 21.4514 32.8956 21.7977 32.8956C21.9074 32.8956 22.0192 32.8748 22.1272 32.831C22.5759 32.6488 22.792 32.1375 22.6098 31.6891L22.5999 31.6645Z" fill="#838BA4"/>
<path d="M22.9855 27.2241H24.4761C24.96 27.2241 25.3528 26.8314 25.3528 26.3474C25.3528 25.8631 24.96 25.4707 24.4761 25.4707H22.9855C21.8411 25.4707 20.9101 26.4014 20.9101 27.5454V28.51C20.9101 28.9943 21.3028 29.387 21.7871 29.387C22.2711 29.387 22.6639 28.9943 22.6639 28.51V27.5454C22.6639 27.3684 22.8081 27.2241 22.9855 27.2241Z" fill="#838BA4"/>
</g>
<defs>
<clipPath id="clip0">
<rect width="44.8" height="44.8" fill="white" transform="translate(5.6 5.59961)"/>
</clipPath>
</defs>
</svg>
