<svg width="56" height="56" viewBox="0 0 56 56" fill="none" xmlns="http://www.w3.org/2000/svg">
<g clip-path="url(#clip0)">
<path fill-rule="evenodd" clip-rule="evenodd" d="M42.7036 14.3629C42.7033 14.3534 42.7029 14.3438 42.7023 14.3342C42.6995 14.2963 42.6958 14.259 42.6882 14.2221C42.6882 14.2221 42.6882 14.2221 42.6882 14.2218C42.6807 14.1848 42.6701 14.1483 42.6582 14.1127C42.6551 14.1038 42.652 14.095 42.6486 14.0861C42.636 14.0522 42.6216 14.0191 42.6052 13.9869C42.6042 13.9852 42.6035 13.9835 42.6025 13.9818C42.5847 13.9483 42.5642 13.9165 42.542 13.8854C42.5365 13.8776 42.5307 13.8701 42.5249 13.8622C42.5013 13.8314 42.4767 13.8017 42.449 13.774L34.5309 5.85596C34.5033 5.82827 34.4735 5.80366 34.4428 5.78008C34.4349 5.77427 34.427 5.76811 34.4192 5.76265C34.3881 5.74043 34.3566 5.71992 34.3235 5.70249C34.3211 5.70112 34.3187 5.70044 34.3166 5.69907C34.2852 5.68267 34.2524 5.66865 34.2192 5.65601C34.21 5.65259 34.2011 5.64951 34.1915 5.64644C34.156 5.63447 34.1201 5.62388 34.0828 5.61636C34.0825 5.61636 34.0822 5.61636 34.0822 5.61636C34.0456 5.60918 34.0083 5.60508 33.9707 5.60234C33.9612 5.602 33.9516 5.60132 33.942 5.60098C33.9321 5.60063 33.9222 5.59961 33.9123 5.59961H14.0878C13.6045 5.59961 13.2128 5.99131 13.2128 6.47461V43.9266C13.2128 44.4099 13.6045 44.8016 14.0878 44.8016H27.2613V49.5245C27.2613 49.8427 27.4342 50.136 27.7128 50.2901C27.9917 50.4443 28.3318 50.4351 28.6015 50.2659L31.934 48.1751L35.2665 50.2659C35.4083 50.3547 35.57 50.3995 35.7317 50.3995C35.8773 50.3995 36.0232 50.3633 36.1552 50.2905C36.4337 50.1363 36.6067 49.8431 36.6067 49.5245V44.8016H41.83C42.3133 44.8016 42.705 44.4099 42.705 43.9266V14.3927C42.705 14.3827 42.704 14.3728 42.7036 14.3629ZM34.7873 8.58725L39.7177 13.5177H34.7873V8.58725ZM26.8296 32.6258C26.7681 32.4586 26.6679 32.1855 26.6655 32.0738C26.7339 31.989 26.9711 31.839 27.1164 31.7474C27.4281 31.5505 27.7815 31.327 28.0378 30.9776C28.2966 30.6246 28.4018 30.2168 28.4948 29.8572C28.5355 29.7 28.6011 29.446 28.6572 29.35C28.6879 29.3435 28.7525 29.3343 28.8739 29.3343C28.9713 29.3343 29.0803 29.3397 29.1958 29.3456C29.3285 29.3521 29.4652 29.3589 29.608 29.3589C29.9232 29.3589 30.1775 29.3233 30.4082 29.2464C30.8112 29.1125 31.1335 28.853 31.4179 28.624C31.5751 28.4976 31.8383 28.2856 31.9299 28.2727C32.03 28.2856 32.2929 28.4976 32.4501 28.624C32.7345 28.853 33.0571 29.1125 33.4601 29.2464C33.6908 29.3233 33.9448 29.3589 34.2602 29.3589C34.4028 29.3589 34.5398 29.3521 34.6721 29.3456C34.7876 29.3397 34.8967 29.3343 34.9944 29.3343C35.1158 29.3343 35.18 29.3432 35.2111 29.35C35.2672 29.446 35.3328 29.7 35.3731 29.8572C35.4661 30.2168 35.5717 30.6246 35.8304 30.9776C36.0865 31.327 36.4399 31.5501 36.7519 31.7474C36.8969 31.8393 37.1341 31.989 37.2024 32.0738C37.2 32.1855 37.0999 32.4586 37.0387 32.6258C36.9085 32.9802 36.7612 33.3822 36.7612 33.8275C36.7612 34.2729 36.9085 34.6748 37.0384 35.0296C37.0999 35.1968 37.2 35.4699 37.2024 35.5816C37.1341 35.6664 36.8969 35.8161 36.7519 35.908C36.4399 36.1049 36.0865 36.3285 35.8304 36.6778C35.5717 37.0308 35.4661 37.4386 35.3731 37.7982C35.3328 37.9551 35.2668 38.2094 35.2111 38.3054C35.18 38.3119 35.1158 38.3211 34.9944 38.3211C34.8967 38.3211 34.7876 38.3157 34.6721 38.3098C34.5398 38.3034 34.4028 38.2965 34.2602 38.2965C33.9448 38.2965 33.6908 38.3321 33.4601 38.409C33.0571 38.543 32.7345 38.8027 32.4501 39.0314C32.2952 39.1565 32.0369 39.3639 31.934 39.3824C31.8311 39.3639 31.573 39.1565 31.4182 39.0314C31.1335 38.8027 30.8112 38.543 30.4082 38.409C30.1775 38.3321 29.9232 38.2965 29.608 38.2965C29.4655 38.2965 29.3285 38.3034 29.1958 38.3098C29.0807 38.3157 28.9716 38.3211 28.8739 38.3211C28.7525 38.3211 28.6883 38.3119 28.6572 38.3054C28.6011 38.2094 28.5355 37.9554 28.4948 37.7982C28.4022 37.4386 28.2966 37.0308 28.0378 36.6778C27.7818 36.3285 27.4284 36.1049 27.1164 35.908C26.9714 35.8164 26.7342 35.6664 26.6659 35.5816C26.6683 35.4702 26.7684 35.1968 26.8296 35.0296C26.9598 34.6752 27.1071 34.2732 27.1071 33.8279C27.1071 33.3822 26.9595 32.9802 26.8296 32.6258ZM34.8567 47.9427L32.3992 46.4008C32.1148 46.2228 31.7532 46.2228 31.4688 46.4008L29.0113 47.9427V40.0684C29.1042 40.0657 29.1955 40.0622 29.284 40.0578C29.3999 40.0516 29.5093 40.0462 29.608 40.0462C29.7632 40.0462 29.8295 40.0605 29.8552 40.0691C29.9594 40.1039 30.1597 40.2653 30.3207 40.3948C30.7291 40.7236 31.2374 41.1327 31.934 41.1327C32.6306 41.1327 33.1388 40.7236 33.5473 40.3948C33.7082 40.2653 33.9085 40.1039 34.0124 40.0694C34.0384 40.0609 34.1047 40.0465 34.2599 40.0465C34.3587 40.0465 34.468 40.052 34.5839 40.0578C34.6724 40.0622 34.7637 40.066 34.8563 40.0684V47.9427H34.8567ZM36.6067 43.0516V39.3633C36.8668 39.0098 36.9755 38.5915 37.0674 38.236C37.1156 38.0494 37.1816 37.7941 37.2417 37.7124C37.3015 37.6304 37.524 37.4899 37.6864 37.3873C38.1171 37.1153 38.653 36.7766 38.8659 36.136C39.0765 35.504 38.8574 34.9069 38.6814 34.427C38.6014 34.2093 38.5108 33.9622 38.5108 33.8275C38.5108 33.6929 38.6014 33.4461 38.6814 33.2284C38.8574 32.7485 39.0765 32.151 38.8659 31.519C38.653 30.8789 38.1171 30.5401 37.6864 30.2681C37.524 30.1655 37.3015 30.0247 37.2417 29.9434C37.1816 29.8613 37.1156 29.606 37.0674 29.4194C36.9416 28.9323 36.7851 28.326 36.2491 27.9329C35.8226 27.6205 35.3287 27.5843 34.9941 27.5843C34.8526 27.5843 34.7159 27.5911 34.5839 27.598C34.468 27.6038 34.3587 27.6092 34.2602 27.6092C34.1047 27.6092 34.0384 27.5949 34.0128 27.5863C33.9089 27.5518 33.7086 27.3905 33.5476 27.2606C33.1388 26.9321 32.6306 26.523 31.934 26.523C31.2377 26.523 30.7291 26.9321 30.3207 27.2606C30.1597 27.3901 29.9594 27.5518 29.8555 27.5863C29.8299 27.5949 29.7632 27.6092 29.608 27.6092C29.5096 27.6092 29.3999 27.6038 29.284 27.5976C29.1521 27.5911 29.0157 27.5843 28.8739 27.5843C28.5396 27.5843 28.0457 27.6205 27.6195 27.9329C27.0832 28.326 26.9263 28.9323 26.8005 29.4194C26.7523 29.606 26.6864 29.8613 26.6266 29.943C26.5664 30.0247 26.3439 30.1655 26.1815 30.2681C25.7509 30.5401 25.2153 30.8789 25.002 31.519C24.7915 32.1514 25.0105 32.7485 25.1866 33.2284C25.2666 33.4461 25.3571 33.6929 25.3571 33.8275C25.3571 33.9622 25.2666 34.2093 25.1866 34.427C25.0105 34.9069 24.7915 35.504 25.002 36.1364C25.2153 36.7766 25.7512 37.1153 26.1815 37.3873C26.3442 37.4899 26.5664 37.6307 26.6266 37.7124C26.6864 37.7941 26.7523 38.0494 26.8005 38.236C26.8925 38.5915 27.0015 39.0102 27.2616 39.3633V43.0516H14.9628V7.34961H33.0373V14.3927C33.0373 14.876 33.429 15.2677 33.9123 15.2677H40.955V43.0516H36.6067Z" fill="#B5B5D0"/>
<path fill-rule="evenodd" clip-rule="evenodd" d="M18.3633 15.2676H29.6364C30.1194 15.2676 30.5114 14.8759 30.5114 14.3926C30.5114 13.9093 30.1194 13.5176 29.6364 13.5176H18.3633C17.88 13.5176 17.4883 13.9093 17.4883 14.3926C17.4883 14.8759 17.8803 15.2676 18.3633 15.2676Z" fill="#61AD15"/>
<path fill-rule="evenodd" clip-rule="evenodd" d="M37.6523 17.9336H18.3633C17.88 17.9336 17.4883 18.3253 17.4883 18.8086C17.4883 19.2919 17.88 19.6836 18.3633 19.6836H37.6523C38.1356 19.6836 38.5273 19.2919 38.5273 18.8086C38.5273 18.3253 38.1356 17.9336 37.6523 17.9336Z" fill="#61AD15"/>
<path fill-rule="evenodd" clip-rule="evenodd" d="M34.1523 22.3516H18.3633C17.88 22.3516 17.4883 22.7436 17.4883 23.2266C17.4883 23.7099 17.88 24.1016 18.3633 24.1016H34.1523C34.6356 24.1016 35.0273 23.7099 35.0273 23.2266C35.0273 22.7436 34.6356 22.3516 34.1523 22.3516Z" fill="#61AD15"/>
</g>
<defs>
<clipPath id="clip0">
<rect width="44.8" height="44.8" fill="white" transform="translate(5.6 5.59961)"/>
</clipPath>
</defs>
</svg>
