<svg width="56" height="56" viewBox="0 0 56 56" fill="none" xmlns="http://www.w3.org/2000/svg">
<g clip-path="url(#clip0)">
<path d="M39.4964 40.8483C39.3336 40.6855 39.1079 40.5918 38.8777 40.5918C38.6476 40.5918 38.4219 40.6854 38.2591 40.8483C38.0964 41.0109 38.0027 41.2367 38.0027 41.4668C38.0027 41.697 38.0964 41.9227 38.2591 42.0854C38.4219 42.2483 38.6476 42.3418 38.8777 42.3418C39.1079 42.3418 39.3336 42.2483 39.4964 42.0854C39.6591 41.9227 39.7527 41.697 39.7527 41.4668C39.7527 41.2367 39.6591 41.0109 39.4964 40.8483Z" fill="#838BA4"/>
<path d="M36.7605 12.6724C36.5978 12.5096 36.372 12.416 36.1419 12.416C35.9118 12.416 35.686 12.5096 35.5233 12.6724C35.3605 12.8351 35.2669 13.0609 35.2669 13.291C35.2669 13.522 35.3605 13.7469 35.5233 13.9096C35.686 14.0733 35.9118 14.166 36.1419 14.166C36.372 14.166 36.5978 14.0732 36.7605 13.9096C36.9233 13.7469 37.0169 13.5219 37.0169 13.291C37.0169 13.0609 36.9233 12.8351 36.7605 12.6724Z" fill="#838BA4"/>
<path d="M45.6069 30.102L41.0714 28.1733C42.0463 26.0125 42.5677 23.6459 42.5677 21.2144V20.4691C42.5675 20.4691 42.5673 20.4691 42.5672 20.469C42.5672 20.2804 42.5069 20.0916 42.3848 19.9338L39.0215 15.5846C38.7258 15.2023 38.1763 15.1321 37.794 15.4278C37.4117 15.7233 37.3416 16.2729 37.6371 16.6551L38.8937 18.28C35.4194 16.9776 31.7107 16.2985 28 16.2985C24.2893 16.2985 20.5807 16.9776 17.1063 18.28L24.0613 9.28657C25.0113 8.05807 26.4469 7.35343 28 7.35343C29.553 7.35343 30.9886 8.05807 31.9386 9.28657L32.9828 10.6369C33.2785 11.0193 33.8282 11.0894 34.2103 10.7938C34.5926 10.4982 34.6628 9.94859 34.3672 9.56639L33.323 8.21609C32.0391 6.55578 30.0988 5.60352 28 5.60352C25.9011 5.60352 23.9609 6.55578 22.677 8.21609L13.6152 19.9338C13.4931 20.0917 13.4328 20.2806 13.4328 20.4692C13.4326 20.4692 13.4325 20.4691 13.4323 20.4691V21.2144C13.4323 23.6459 13.9536 26.0125 14.9285 28.1733L10.3931 30.102C7.4814 31.3402 5.59998 34.1848 5.59998 37.3489V49.5191C5.59998 50.0022 5.99171 50.3941 6.47498 50.3941H49.525C50.0082 50.3941 50.4 50.0022 50.4 49.5191V37.3489C50.4 34.1848 48.5185 31.3402 45.6069 30.102ZM15.1822 21.0108C23.2483 17.0745 32.7517 17.0745 40.8177 21.0108V21.2144C40.8177 23.674 40.223 26.0596 39.1199 28.1895C39.1143 28.1996 39.1093 28.2102 39.1041 28.2205C38.2622 29.8369 37.1266 31.3045 35.734 32.5441H33.3314C34.6874 31.119 35.6917 29.3841 36.2483 27.4792C36.6267 27.3827 36.9069 27.0407 36.9069 26.6323V21.1982C36.9069 20.715 36.5151 20.3232 36.0319 20.3232H19.9791C19.4958 20.3232 19.1041 20.715 19.1041 21.1982V26.6323C19.1041 27.0355 19.3773 27.3741 19.7484 27.4755C20.3028 29.3819 21.3043 31.1171 22.6592 32.5441H20.2659C18.8731 31.3045 17.7375 29.8366 16.8956 28.2202C16.8905 28.21 16.8855 28.1996 16.88 28.1897C15.7768 26.0598 15.1822 23.6741 15.1822 21.2144V21.0108ZM26.7035 27.5074C26.997 27.5074 27.2708 27.3603 27.4329 27.1157L28.0201 26.2295L28.6417 27.1296C28.8051 27.3661 29.0742 27.5073 29.3617 27.5073H34.4023C33.7026 29.5129 32.4157 31.2707 30.7018 32.5441H25.2851C23.5733 31.2681 22.293 29.5118 21.5965 27.5074H26.7035ZM20.8541 25.7575V22.0734H35.1569V25.7574H29.8208L28.7459 24.201C28.5826 23.9645 28.3134 23.8233 28.0259 23.8233H27.985C27.6915 23.8233 27.4177 23.9704 27.2556 24.215L26.2335 25.7575H20.8541ZM12.075 36.9191V48.6441H7.34998V37.3489C7.34998 34.8879 8.81333 32.6755 11.0779 31.7124L15.7325 29.733C16.3154 30.7328 17.0021 31.6754 17.786 32.5441H16.45C14.0376 32.5441 12.075 34.5067 12.075 36.9191ZM42.175 48.6441H39.753V44.6482C39.753 44.165 39.3612 43.7732 38.878 43.7732C38.3947 43.7732 38.003 44.165 38.003 44.6482V48.6441H13.825V36.9191C13.825 35.4716 15.0026 34.2941 16.45 34.2941H39.55C40.9974 34.2941 42.175 35.4716 42.175 36.9191V48.6441ZM48.65 48.6441H43.925V36.9191C43.925 34.5067 41.9623 32.5441 39.55 32.5441H38.2139C38.9978 31.6754 39.6845 30.7328 40.2674 29.733L44.922 31.7124C47.1866 32.6755 48.65 34.8879 48.65 37.3489V48.6441Z" fill="#838BA4"/>
<path d="M28.0121 36.4531C25.4326 36.4531 23.3341 38.5516 23.3341 41.1311V42.4465C23.3341 43.6582 24.2889 44.651 25.4856 44.7122C25.6304 45.4789 26.3052 46.0605 27.1133 46.0605H28.968C29.7774 46.0605 30.453 45.477 30.5964 44.7085C31.7659 44.6191 32.6902 43.6386 32.6902 42.4465V41.1311C32.6901 38.5517 30.5916 36.4531 28.0121 36.4531ZM30.4215 42.9651H29.7493C29.266 42.9651 28.8743 43.357 28.8743 43.8401V44.3105H27.2068V43.8401C27.2068 43.357 26.815 42.9651 26.3318 42.9651H25.6026C25.3167 42.9651 25.084 42.7325 25.084 42.4465V41.1311C25.084 39.5167 26.3976 38.2031 28.012 38.2031C29.6265 38.2031 30.9401 39.5167 30.9401 41.1311V42.4465H30.9401C30.9401 42.7325 30.7075 42.9651 30.4215 42.9651Z" fill="#838BA4"/>
<path d="M27.5224 40.4713C27.3596 40.3086 27.1339 40.2148 26.9037 40.2148C26.6736 40.2148 26.4479 40.3085 26.2851 40.4713C26.1224 40.634 26.0287 40.8597 26.0287 41.0898C26.0287 41.3209 26.1224 41.5457 26.2851 41.7085C26.4479 41.8721 26.6736 41.9648 26.9037 41.9648C27.1339 41.9648 27.3596 41.8721 27.5224 41.7085C27.6851 41.5457 27.7787 41.3208 27.7787 41.0898C27.7787 40.8597 27.6851 40.634 27.5224 40.4713Z" fill="#838BA4"/>
<path d="M29.7387 40.4713C29.5759 40.3086 29.3511 40.2148 29.1201 40.2148C28.8899 40.2148 28.6642 40.3085 28.5014 40.4713C28.3387 40.634 28.2451 40.8597 28.2451 41.0898C28.2451 41.3209 28.3387 41.5457 28.5014 41.7085C28.6642 41.8721 28.8899 41.9648 29.1201 41.9648C29.3511 41.9648 29.5759 41.8721 29.7387 41.7085C29.9023 41.5457 29.9951 41.3208 29.9951 41.0898C29.9951 40.8597 29.9023 40.634 29.7387 40.4713Z" fill="#838BA4"/>
</g>
<defs>
<clipPath id="clip0">
<rect width="44.8" height="44.8" fill="white" transform="translate(5.59998 5.59961)"/>
</clipPath>
</defs>
</svg>
