<svg width="56" height="56" viewBox="0 0 56 56" fill="none" xmlns="http://www.w3.org/2000/svg">
<g clip-path="url(#clip0)">
<path d="M18.192 9.54819H23.2143C23.6997 9.54819 24.0931 9.15478 24.0931 8.66977C24.0931 8.18442 23.6997 7.79102 23.2143 7.79102H18.192C17.7069 7.79102 17.3135 8.18442 17.3135 8.66977C17.3135 9.15478 17.7069 9.54819 18.192 9.54819Z" fill="#838BA4"/>
<path d="M21.5124 46.6452C21.3306 46.1954 20.8186 45.9783 20.3688 46.1598C19.9186 46.3416 19.7016 46.8537 19.8834 47.3038L19.8934 47.3284C20.0314 47.6702 20.3606 47.878 20.7082 47.878C20.8179 47.878 20.929 47.8572 21.037 47.8138C21.4868 47.6319 21.7042 47.1199 21.5224 46.6698L21.5124 46.6452Z" fill="#838BA4"/>
<path d="M28.3966 44.2351C28.2144 43.7853 27.7024 43.568 27.2526 43.7498C26.8028 43.932 26.5858 44.444 26.7676 44.8938L26.7775 44.9187C26.9159 45.2605 27.2447 45.468 27.5924 45.468C27.7021 45.468 27.8135 45.4472 27.9215 45.4037C28.3713 45.2216 28.5884 44.7096 28.4065 44.2598L28.3966 44.2351Z" fill="#838BA4"/>
<path d="M44.678 20.2421C44.2377 20.0381 43.7155 20.2295 43.5114 20.6697C43.3074 21.11 43.4988 21.6322 43.939 21.8363C46.2154 22.8914 47.6861 25.1941 47.6861 27.7019C47.6861 31.2647 44.7877 34.1635 41.2248 34.1635C38.9225 34.1635 36.8987 32.9519 35.754 31.1338C35.713 30.9975 35.6395 30.8751 35.5424 30.7756C35.0458 29.861 34.7635 28.8141 34.7635 27.7019C34.7635 25.3267 36.0623 23.1481 38.1531 22.0157C38.5796 21.7847 38.7382 21.2515 38.5072 20.8249C38.2761 20.3983 37.7429 20.2397 37.3164 20.4708C36.3446 20.9972 35.5082 21.7016 34.837 22.5308V9.02607C34.837 7.08809 33.2606 5.51172 31.3229 5.51172H10.1643C8.22636 5.51172 6.64999 7.08809 6.64999 9.02607V46.7974C6.64999 48.7354 8.22636 50.3117 10.1643 50.3117H31.3226C33.2603 50.3117 34.8366 48.7354 34.8366 46.7974V32.8664C36.3446 34.7282 38.648 35.9204 41.2248 35.9204C45.7563 35.9204 49.4433 32.2337 49.4433 27.7019C49.4433 24.5122 47.5727 21.584 44.678 20.2421ZM23.704 25.4528H33.3201C33.115 26.1744 33.0063 26.9297 33.0063 27.7019C33.0063 28.6876 33.181 29.633 33.5002 30.5094H32.6002L30.5194 28.7901C30.1943 28.5215 29.7247 28.5215 29.4 28.7901L27.3191 30.5094H25.6269L23.8844 29.0697C23.8841 29.0694 23.8834 29.069 23.8831 29.0684L23.546 28.7898C23.2213 28.5215 22.7514 28.5215 22.4267 28.7898L20.3458 30.5094H19.2158V25.4528H23.704ZM30.3225 23.6957H24.2037V21.7054C24.2037 21.22 23.8102 20.8266 23.3249 20.8266H18.3374C17.8524 20.8266 17.459 21.22 17.459 21.7054V33.9424C17.459 34.4277 17.8524 34.8211 18.3374 34.8211H23.3249C23.8102 34.8211 24.2037 34.4277 24.2037 33.9424V31.6127L24.7512 32.0652C24.9084 32.1951 25.1063 32.2666 25.3107 32.2666H27.6353C27.8397 32.2666 28.0376 32.1951 28.1948 32.0652L29.9595 30.6068L30.3222 30.9065V41.0805H11.0838V14.3543H30.3225V23.6957ZM19.2162 23.6957V22.5838H22.4465V23.6957H19.2162ZM19.2162 32.2666H20.662C20.8664 32.2666 21.0643 32.1951 21.2218 32.0652L22.4465 31.0532V33.064H19.2162V32.2666ZM31.2433 7.2689C32.2561 7.2689 33.0798 8.09263 33.0798 9.10537V10.0573H8.40717V9.10537C8.40717 8.09263 9.2309 7.2689 10.2436 7.2689H31.2433ZM10.2436 48.5545C9.2309 48.5545 8.40717 47.7308 8.40717 46.7184V45.4541H24.0779C24.5629 45.4541 24.9563 45.0607 24.9563 44.5757C24.9563 44.0903 24.5629 43.6969 24.0779 43.6969H8.40717V11.8141H33.0798V23.6957H32.0793V13.4759C32.0793 12.9906 31.6859 12.5972 31.2009 12.5972H10.2054C9.72001 12.5972 9.32661 12.9906 9.32661 13.4759V41.9592C9.32661 42.4442 9.72001 42.8377 10.2054 42.8377H31.2009C31.6863 42.8377 32.0793 42.4442 32.0793 41.9592V32.2416C32.146 32.2577 32.2147 32.2666 32.2841 32.2666H33.0798V43.6969H31.1062C30.6209 43.6969 30.2275 44.0903 30.2275 44.5753C30.2275 45.0607 30.6209 45.4541 31.1062 45.4541H33.0798V46.7181C33.0798 47.7308 32.2561 48.5545 31.2433 48.5545H10.2436Z" fill="#838BA4"/>
<path d="M40.6239 27.7018C40.6239 29.2843 41.9115 30.5718 43.494 30.5718C45.0765 30.5718 46.3641 29.2843 46.3641 27.7018C46.3641 26.1192 45.0765 24.832 43.494 24.832C41.9115 24.832 40.6239 26.1192 40.6239 27.7018ZM43.494 26.5892C44.1075 26.5892 44.6069 27.0882 44.6069 27.7018C44.6069 28.3156 44.1079 28.8146 43.494 28.8146C42.8805 28.8146 42.3811 28.3156 42.3811 27.7018C42.3811 27.0882 42.8805 26.5892 43.494 26.5892Z" fill="#838BA4"/>
<path d="M40.1411 20.6813C40.2792 21.0235 40.6084 21.2313 40.9563 21.2313C41.0657 21.2313 41.1768 21.2108 41.2848 21.1674C41.7346 20.9859 41.9523 20.4739 41.7708 20.0241L41.7609 19.9991C41.5791 19.5493 41.0674 19.3319 40.6172 19.5131C40.1674 19.6946 39.9497 20.2066 40.1312 20.6567L40.1411 20.6813Z" fill="#838BA4"/>
</g>
<defs>
<clipPath id="clip0">
<rect width="44.8" height="44.8" fill="white" transform="translate(5.60001 5.59961)"/>
</clipPath>
</defs>
</svg>
