<svg width="64" height="64" viewBox="0 0 64 64" fill="none" xmlns="http://www.w3.org/2000/svg">
<path d="M59.1185 22.1253V14.5188C59.1185 14.2867 59.0263 14.0642 58.8622 13.9001C58.6982 13.736 58.4756 13.6438 58.2435 13.6438H51.2435V12.6438C51.2435 11.9476 50.967 11.2799 50.4747 10.7876C49.9824 10.2954 49.3147 10.0188 48.6185 10.0188C47.9223 10.0188 47.2547 10.2954 46.7624 10.7876C46.2701 11.2799 45.9935 11.9476 45.9935 12.6438V16.3938C45.9935 17.09 46.2701 17.7577 46.7624 18.25C47.2547 18.7422 47.9223 19.0188 48.6185 19.0188C49.3147 19.0188 49.9824 18.7422 50.4747 18.25C50.967 17.7577 51.2435 17.09 51.2435 16.3938V15.3938H57.3685V21.2498H6.61853V15.3938H10.2435C10.4756 15.3938 10.6982 15.3016 10.8622 15.1375C11.0263 14.9734 11.1185 14.7509 11.1185 14.5188C11.1185 14.2867 11.0263 14.0642 10.8622 13.9001C10.6982 13.736 10.4756 13.6438 10.2435 13.6438H5.74353C5.51147 13.6438 5.28891 13.736 5.12481 13.9001C4.96072 14.0642 4.86853 14.2867 4.86853 14.5188V53.1118C4.86853 53.3439 4.96072 53.5664 5.12481 53.7305C5.28891 53.8946 5.51147 53.9868 5.74353 53.9868H58.2435C58.4756 53.9868 58.6982 53.8946 58.8622 53.7305C59.0263 53.5664 59.1185 53.3439 59.1185 53.1118V26.0393C59.1185 25.8072 59.0263 25.5847 58.8622 25.4206C58.6982 25.2565 58.4756 25.1643 58.2435 25.1643C58.0115 25.1643 57.7889 25.2565 57.6248 25.4206C57.4607 25.5847 57.3685 25.8072 57.3685 26.0393V52.2368H6.61853V22.9998H58.2435C58.4755 22.9998 58.698 22.9077 58.8621 22.7437C59.0262 22.5797 59.1184 22.3573 59.1185 22.1253ZM49.4935 16.3938C49.4935 16.6259 49.4013 16.8484 49.2372 17.0125C49.0732 17.1766 48.8506 17.2688 48.6185 17.2688C48.3865 17.2688 48.1639 17.1766 47.9998 17.0125C47.8357 16.8484 47.7435 16.6259 47.7435 16.3938V12.6438C47.7435 12.4117 47.8357 12.1892 47.9998 12.0251C48.1639 11.861 48.3865 11.7688 48.6185 11.7688C48.8506 11.7688 49.0732 11.861 49.2372 12.0251C49.4013 12.1892 49.4935 12.4117 49.4935 12.6438V16.3938ZM15.3685 19.0188C16.0645 19.018 16.7317 18.7412 17.2238 18.2491C17.7159 17.757 17.9927 17.0897 17.9935 16.3938V15.3938H40.3375C40.5696 15.3938 40.7922 15.3016 40.9562 15.1375C41.1203 14.9734 41.2125 14.7509 41.2125 14.5188C41.2125 14.2867 41.1203 14.0642 40.9562 13.9001C40.7922 13.736 40.5696 13.6438 40.3375 13.6438H17.9935V12.6438C17.9935 11.9476 17.717 11.2799 17.2247 10.7876C16.7324 10.2954 16.0647 10.0188 15.3685 10.0188C14.6723 10.0188 14.0047 10.2954 13.5124 10.7876C13.0201 11.2799 12.7435 11.9476 12.7435 12.6438V16.3938C12.7443 17.0897 13.0211 17.757 13.5133 18.2491C14.0054 18.7412 14.6726 19.018 15.3685 19.0188ZM14.4935 12.6438C14.4935 12.4117 14.5857 12.1892 14.7498 12.0251C14.9139 11.861 15.1365 11.7688 15.3685 11.7688C15.6006 11.7688 15.8232 11.861 15.9872 12.0251C16.1513 12.1892 16.2435 12.4117 16.2435 12.6438V16.3938C16.2435 16.6259 16.1513 16.8484 15.9872 17.0125C15.8232 17.1766 15.6006 17.2688 15.3685 17.2688C15.1365 17.2688 14.9139 17.1766 14.7498 17.0125C14.5857 16.8484 14.4935 16.6259 14.4935 16.3938V12.6438ZM19.205 27.0083C19.205 26.7762 19.1128 26.5537 18.9487 26.3896C18.7847 26.2255 18.5621 26.1333 18.33 26.1333H13.642C13.41 26.1333 13.1874 26.2255 13.0233 26.3896C12.8592 26.5537 12.767 26.7762 12.767 27.0083V31.6958C12.767 31.9279 12.8592 32.1504 13.0233 32.3145C13.1874 32.4786 13.41 32.5708 13.642 32.5708H18.33C18.5621 32.5708 18.7847 32.4786 18.9487 32.3145C19.1128 32.1504 19.205 31.9279 19.205 31.6958V27.0083ZM17.455 30.8208H14.517V27.8833H17.455V30.8208ZM40.55 31.6958C40.55 31.9279 40.4578 32.1504 40.2938 32.3145C40.1297 32.4786 39.9071 32.5708 39.675 32.5708C39.443 32.5708 39.2204 32.4786 39.0563 32.3145C38.8922 32.1504 38.8 31.9279 38.8 31.6958V27.8833H35.86V31.6958C35.86 31.9279 35.7678 32.1504 35.6037 32.3145C35.4397 32.4786 35.2171 32.5708 34.985 32.5708C34.753 32.5708 34.5304 32.4786 34.3663 32.3145C34.2022 32.1504 34.11 31.9279 34.11 31.6958V27.0083C34.11 26.7762 34.2022 26.5537 34.3663 26.3896C34.5304 26.2255 34.753 26.1333 34.985 26.1333H39.673C39.9051 26.1333 40.1277 26.2255 40.2917 26.3896C40.4558 26.5537 40.548 26.7762 40.548 27.0083L40.55 31.6958ZM51.2215 27.0083C51.2215 26.7762 51.1293 26.5537 50.9652 26.3896C50.8012 26.2255 50.5786 26.1333 50.3465 26.1333H45.6565C45.4245 26.1333 45.2019 26.2255 45.0378 26.3896C44.8737 26.5537 44.7815 26.7762 44.7815 27.0083V31.6958C44.7815 31.9279 44.8737 32.1504 45.0378 32.3145C45.2019 32.4786 45.4245 32.5708 45.6565 32.5708H50.3445C50.5766 32.5708 50.7992 32.4786 50.9632 32.3145C51.1273 32.1504 51.2195 31.9279 51.2195 31.6958L51.2215 27.0083ZM49.4715 30.8208H46.5315V27.8833H49.4695L49.4715 30.8208ZM19.205 35.1453C19.205 34.9132 19.1128 34.6907 18.9487 34.5266C18.7847 34.3625 18.5621 34.2703 18.33 34.2703H13.642C13.41 34.2703 13.1874 34.3625 13.0233 34.5266C12.8592 34.6907 12.767 34.9132 12.767 35.1453V39.8328C12.767 40.0649 12.8592 40.2874 13.0233 40.4515C13.1874 40.6156 13.41 40.7078 13.642 40.7078H18.33C18.5621 40.7078 18.7847 40.6156 18.9487 40.4515C19.1128 40.2874 19.205 40.0649 19.205 39.8328V35.1453ZM17.455 38.9578H14.517V36.0203H17.455V38.9578ZM29.8765 35.1453C29.8765 35.0303 29.8538 34.9164 29.8098 34.8101C29.7657 34.7038 29.7011 34.6073 29.6197 34.526C29.5383 34.4448 29.4417 34.3804 29.3353 34.3365C29.229 34.2926 29.1151 34.2701 29 34.2703H24.3135C24.0815 34.2703 23.8589 34.3625 23.6948 34.5266C23.5307 34.6907 23.4385 34.9132 23.4385 35.1453V39.8328C23.4385 40.0649 23.5307 40.2874 23.6948 40.4515C23.8589 40.6156 24.0815 40.7078 24.3135 40.7078H29C29.2321 40.7078 29.4547 40.6156 29.6187 40.4515C29.7828 40.2874 29.875 40.0649 29.875 39.8328L29.8765 35.1453ZM28.1265 38.9578H25.1885V36.0203H28.1265V38.9578ZM40.55 35.1453C40.55 34.9132 40.4578 34.6907 40.2938 34.5266C40.1297 34.3625 39.9071 34.2703 39.675 34.2703H34.985C34.753 34.2703 34.5304 34.3625 34.3663 34.5266C34.2022 34.6907 34.11 34.9132 34.11 35.1453V39.8328C34.11 40.0649 34.2022 40.2874 34.3663 40.4515C34.5304 40.6156 34.753 40.7078 34.985 40.7078H39.673C39.9051 40.7078 40.1277 40.6156 40.2917 40.4515C40.4558 40.2874 40.548 40.0649 40.548 39.8328L40.55 35.1453ZM38.8 38.9578H35.86V36.0203H38.8V38.9578ZM51.2215 35.1453C51.2215 34.9132 51.1293 34.6907 50.9652 34.5266C50.8012 34.3625 50.5786 34.2703 50.3465 34.2703H45.6565C45.4245 34.2703 45.2019 34.3625 45.0378 34.5266C44.8737 34.6907 44.7815 34.9132 44.7815 35.1453V39.8328C44.7815 40.0649 44.8737 40.2874 45.0378 40.4515C45.2019 40.6156 45.4245 40.7078 45.6565 40.7078H50.3445C50.5766 40.7078 50.7992 40.6156 50.9632 40.4515C51.1273 40.2874 51.2195 40.0649 51.2195 39.8328L51.2215 35.1453ZM49.4715 38.9578H46.5315V36.0203H49.4695L49.4715 38.9578ZM14.5215 44.1578V47.0953H18.33C18.5621 47.0953 18.7847 47.1875 18.9487 47.3516C19.1128 47.5157 19.205 47.7382 19.205 47.9703C19.205 48.2024 19.1128 48.4249 18.9487 48.589C18.7847 48.7531 18.5621 48.8453 18.33 48.8453H13.642C13.41 48.8453 13.1874 48.7531 13.0233 48.589C12.8592 48.4249 12.767 48.2024 12.767 47.9703V43.2818C12.767 43.0497 12.8592 42.8272 13.0233 42.6631C13.1874 42.499 13.41 42.4068 13.642 42.4068H18.33C18.5621 42.4068 18.7847 42.499 18.9487 42.6631C19.1128 42.8272 19.205 43.0497 19.205 43.2818C19.205 43.5139 19.1128 43.7364 18.9487 43.9005C18.7847 44.0646 18.5621 44.1568 18.33 44.1568L14.5215 44.1578ZM29 42.4068H24.3135C24.0815 42.4068 23.8589 42.499 23.6948 42.6631C23.5307 42.8272 23.4385 43.0497 23.4385 43.2818V47.9693C23.4385 48.2014 23.5307 48.4239 23.6948 48.588C23.8589 48.7521 24.0815 48.8443 24.3135 48.8443H29C29.2321 48.8443 29.4547 48.7521 29.6187 48.588C29.7828 48.4239 29.875 48.2014 29.875 47.9693V43.2818C29.875 43.0497 29.7828 42.8272 29.6187 42.6631C29.4547 42.499 29.2321 42.4068 29 42.4068ZM28.125 47.0943H25.1885V44.1568H28.1265L28.125 47.0943Z" fill="#B5B5D0"/>
<path fill-rule="evenodd" clip-rule="evenodd" d="M29.8765 27.0083C29.8765 26.8933 29.8538 26.7794 29.8097 26.6731C29.7657 26.5669 29.7011 26.4703 29.6197 26.3891C29.5383 26.3078 29.4416 26.2434 29.3353 26.1995C29.229 26.1556 29.115 26.1331 29 26.1333H24.3135C24.0814 26.1333 23.8589 26.2255 23.6948 26.3896C23.5307 26.5537 23.4385 26.7762 23.4385 27.0083V31.6958C23.4385 31.9279 23.5307 32.1504 23.6948 32.3145C23.8589 32.4786 24.0814 32.5708 24.3135 32.5708H29C29.232 32.5708 29.4546 32.4786 29.6187 32.3145C29.7828 32.1504 29.875 31.9279 29.875 31.6958L29.8765 27.0083ZM25.1885 30.8208H28.1265V27.8833H25.1885V30.8208Z" fill="#61AD15"/>
<path fill-rule="evenodd" clip-rule="evenodd" d="M39.6715 42.4068H34.985C34.7529 42.4068 34.5304 42.499 34.3663 42.6631C34.2022 42.8272 34.11 43.0497 34.11 43.2818V47.9693C34.11 48.2014 34.2022 48.4239 34.3663 48.588C34.5304 48.7521 34.7529 48.8443 34.985 48.8443H39.673C39.905 48.8443 40.1276 48.7521 40.2917 48.588C40.4558 48.4239 40.548 48.2014 40.548 47.9693V43.2818C40.548 43.0497 40.4558 42.8272 40.2917 42.6631C40.1276 42.499 39.905 42.4068 39.673 42.4068H39.6715ZM35.86 47.0943H38.8V44.1568H35.86V47.0943Z" fill="#61AD15"/>
<path fill-rule="evenodd" clip-rule="evenodd" d="M50.3445 42.4068H45.6565C45.4244 42.4068 45.2019 42.499 45.0378 42.6631C44.8737 42.8272 44.7815 43.0497 44.7815 43.2818V47.9693C44.7815 48.2014 44.8737 48.4239 45.0378 48.588C45.2019 48.7521 45.4244 48.8443 45.6565 48.8443H50.3445C50.5765 48.8443 50.7991 48.7521 50.9632 48.588C51.1273 48.4239 51.2195 48.2014 51.2195 47.9693V43.2818C51.2195 43.0497 51.1273 42.8272 50.9632 42.6631C50.7991 42.499 50.5765 42.4068 50.3445 42.4068ZM46.5315 47.0943H49.4715L49.4695 44.1568H46.5315V47.0943Z" fill="#61AD15"/>
</svg>
