<svg width="56" height="56" viewBox="0 0 56 56" fill="none" xmlns="http://www.w3.org/2000/svg">
<g clip-path="url(#clip0)">
<path fill-rule="evenodd" clip-rule="evenodd" d="M28.1248 25.5996C26.7887 25.5996 25.6558 26.5045 25.2813 27.7462H16.2436C15.8691 26.5045 14.7362 25.5996 13.4001 25.5996C11.7597 25.5996 10.4251 26.9638 10.4251 28.6406C10.4251 29.1541 10.5508 29.638 10.7715 30.0626L8.34087 32.5471C8.34087 32.5471 7.57392 33.1996 8.34087 33.8121C9.10781 34.4246 9.57838 33.8121 9.57838 33.8121L12.009 31.3275C12.4244 31.5532 12.8978 31.6815 13.4001 31.6815C14.7362 31.6815 15.8691 30.7766 16.2436 29.5349H25.2813C25.6558 30.7766 26.7887 31.6815 28.1248 31.6815C29.7652 31.6815 31.0998 30.3174 31.0998 28.6405C31.0998 26.9637 29.7652 25.5996 28.1248 25.5996ZM12.1751 28.6406C12.1751 29.3311 12.7246 29.8928 13.4001 29.8928C14.0756 29.8928 14.6251 29.3311 14.6251 28.6406C14.6251 27.9501 14.0756 27.3884 13.4001 27.3884C12.7246 27.3884 12.1751 27.9501 12.1751 28.6406ZM26.8998 28.6406C26.8998 29.3311 27.4493 29.8928 28.1248 29.8928C28.8003 29.8928 29.3498 29.3311 29.3498 28.6406C29.3498 27.9501 28.8003 27.3884 28.1248 27.3884C27.4493 27.3884 26.8998 27.9501 26.8998 28.6406Z" fill="#838BA4"/>
<path d="M43.6123 8.91571L40.5001 9.33588C40.0213 9.40052 39.6865 9.84986 39.7526 10.3393C39.8187 10.8288 40.2606 11.1733 40.7394 11.1086L41.7728 10.9691L33.7761 22.287C33.7761 22.287 33.3902 22.7525 33.9851 23.375C34.58 23.9975 35.1716 23.375 35.1716 23.375L43.1558 12.074L43.2943 13.1003C43.3604 13.5898 43.8023 13.9343 44.2811 13.8696C44.76 13.805 45.0947 13.3556 45.0286 12.8662L44.5991 9.68501C44.533 9.19547 44.0912 8.85106 43.6123 8.91571Z" fill="#61AD15"/>
<path d="M13.3 35C9.05421 35 5.59998 38.4542 5.59998 42.7C5.59998 46.9458 9.05421 50.4 13.3 50.4C17.5457 50.4 21 46.9458 21 42.7C21 38.4542 17.5457 35 13.3 35ZM13.3 48.65C10.0192 48.65 7.34998 45.9808 7.34998 42.7C7.34998 39.4192 10.0192 36.75 13.3 36.75C16.5808 36.75 19.25 39.4192 19.25 42.7C19.25 45.9808 16.5808 48.65 13.3 48.65Z" fill="#838BA4"/>
<path d="M13.3006 41.8797C12.8964 41.8797 12.5549 41.6068 12.5549 41.2836C12.5547 40.9606 12.8962 40.6877 13.3005 40.6877C13.7047 40.6877 14.0462 40.9606 14.0462 41.2836C14.0462 41.7668 14.438 42.1586 14.9212 42.1586C15.4044 42.1586 15.7962 41.7668 15.7962 41.2836C15.7962 40.2784 15.1198 39.419 14.1725 39.0858C14.1421 38.6301 13.7638 38.2695 13.3005 38.2695C12.8371 38.2695 12.4588 38.6301 12.4284 39.0858C11.4811 39.419 10.8047 40.2784 10.8047 41.2836C10.8047 42.5772 11.9243 43.6297 13.3005 43.6297C13.7047 43.6297 14.0462 43.9026 14.0462 44.2257C14.0462 44.5487 13.7047 44.8216 13.3005 44.8216C12.8962 44.8216 12.5547 44.5487 12.5547 44.2257C12.5547 43.7425 12.1629 43.3507 11.6797 43.3507C11.1965 43.3507 10.8047 43.7425 10.8047 44.2257C10.8047 45.233 11.4839 46.094 12.4343 46.4257C12.4918 46.8533 12.8572 47.1834 13.3005 47.1834C13.7439 47.1834 14.1093 46.8533 14.1668 46.4257C15.1172 46.094 15.7964 45.233 15.7964 44.2257C15.7964 42.9321 14.6767 41.8797 13.3006 41.8797Z" fill="#61AD15"/>
<path d="M19.2 46.4992H18.91L18.705 46.7042L17.105 48.3042L15.91 49.4992H17.6H30.2933C31.0957 49.4992 31.9 48.9074 31.9 47.9992C31.9 47.091 31.0957 46.4992 30.2933 46.4992H19.2Z" stroke="#838BA4" stroke-width="1.4" stroke-linecap="round"/>
<path d="M20.8 43.3H20.1V44V45.6V46.3H20.8H30.5067C31.3669 46.3 31.9 45.531 31.9 44.8C31.9 44.069 31.3669 43.3 30.5067 43.3H20.8Z" stroke="#838BA4" stroke-width="1.4" stroke-linecap="round"/>
<path d="M20.8 40.0998H20.1V40.7998V42.3998V43.0998H20.8H30.5067C31.3669 43.0998 31.9 42.3308 31.9 41.5998C31.9 40.8688 31.3669 40.0998 30.5067 40.0998H20.8Z" stroke="#838BA4" stroke-width="1.4" stroke-linecap="round"/>
</g>
<defs>
<clipPath id="clip0">
<rect width="44.8" height="44.8" fill="white" transform="translate(5.59998 5.59961)"/>
</clipPath>
</defs>
</svg>
