<svg width="56" height="56" viewBox="0 0 56 56" fill="none" xmlns="http://www.w3.org/2000/svg">
<g clip-path="url(#clip0)">
<path d="M28.9477 16.0273C30.7712 16.7325 32.0666 17.8778 32.8531 19.6589L28.9477 16.0273Z" fill="#838BA4"/>
<path d="M28.629 16.8504C30.2898 17.4927 31.375 18.4982 32.0446 20.0148C32.1905 20.345 32.5138 20.5419 32.8532 20.5419C32.9725 20.5419 33.0935 20.5176 33.2094 20.4663C33.6561 20.2691 33.8581 19.7475 33.6609 19.3011C32.8016 17.3543 31.364 16.0134 29.2661 15.2023C28.8112 15.0263 28.2995 15.2525 28.1235 15.7078C27.9474 16.1631 28.174 16.6744 28.629 16.8504Z" fill="#838BA4"/>
<path d="M26.4777 26.4075C28.2356 26.4075 29.666 24.9774 29.666 23.2195C29.666 21.4613 28.2356 20.0312 26.4777 20.0312C24.7198 20.0312 23.2894 21.4613 23.2894 23.2195C23.2894 24.9774 24.7198 26.4075 26.4777 26.4075ZM26.4777 21.7983C27.2611 21.7983 27.8989 22.4358 27.8989 23.2195C27.8989 24.0029 27.2611 24.6404 26.4777 24.6404C25.694 24.6404 25.0565 24.0029 25.0565 23.2195C25.0565 22.4358 25.694 21.7983 26.4777 21.7983Z" fill="#838BA4"/>
<path d="M42.4967 18.4641C42.8261 18.4641 43.144 18.4139 43.4434 18.3209L44.0857 19.1846C45.3055 20.8252 45.9775 22.8548 45.9775 24.8995V30.0753C45.9775 30.5634 46.3733 30.9588 46.8611 30.9588C47.3488 30.9588 47.7446 30.5634 47.7446 30.0753V24.8995C47.7446 22.4778 46.9489 20.0736 45.5038 18.1305L44.9197 17.3447C45.3965 16.7876 45.6849 16.065 45.6849 15.2762C45.6849 13.518 44.2549 12.0879 42.4967 12.0879C40.7388 12.0879 39.3087 13.518 39.3087 15.2762C39.3087 17.034 40.7388 18.4641 42.4967 18.4641ZM42.4967 13.855C43.2804 13.855 43.9178 14.4924 43.9178 15.2762C43.9178 16.0596 43.2804 16.6974 42.4967 16.6974C41.7133 16.6974 41.0755 16.0596 41.0755 15.2762C41.0755 14.4924 41.7133 13.855 42.4967 13.855Z" fill="#838BA4"/>
<path d="M46.8616 36.1416C46.3735 36.1416 45.9781 36.537 45.9781 37.0251V42.5656C45.9781 43.8108 44.965 44.8239 43.7198 44.8239H39.8175V41.8988C39.8175 41.4107 39.4221 41.0152 38.9343 41.0152H35.2361V31.1756C37.1484 29.0725 38.3153 26.28 38.3153 23.2203C38.3153 16.693 33.0052 11.3828 26.4782 11.3828C19.9513 11.3828 14.6411 16.693 14.6411 23.2203C14.6411 26.117 15.6874 28.7734 17.4216 30.8331V49.5161C17.4216 50.0042 17.8174 50.3996 18.3052 50.3996H38.9343C39.4221 50.3996 39.8175 50.0042 39.8175 49.5161V46.591H43.7198C45.9395 46.591 47.7452 44.7853 47.7452 42.5656V37.0251C47.7452 36.537 47.3494 36.1416 46.8616 36.1416ZM26.4782 13.1499C32.0307 13.1499 36.5482 17.6674 36.5482 23.2203C36.5482 28.7728 32.0307 33.2903 26.4782 33.2903C20.9254 33.2903 16.4082 28.7728 16.4082 23.2203C16.4082 17.6674 20.9254 13.1499 26.4782 13.1499ZM19.1887 32.54C21.1995 34.1164 23.7309 35.0574 26.4782 35.0574C29.0913 35.0574 31.5088 34.2056 33.469 32.766V48.6325H19.1887V32.54ZM38.0508 48.6325H35.2361V42.7823H38.0508V48.6325Z" fill="#838BA4"/>
<path d="M21.3201 38.6558H22.8886C23.3764 38.6558 23.7722 38.26 23.7722 37.7722C23.7722 37.2841 23.3764 36.8887 22.8886 36.8887H21.3201C20.8324 36.8887 20.4366 37.2841 20.4366 37.7722C20.4366 38.26 20.8324 38.6558 21.3201 38.6558Z" fill="#838BA4"/>
<path d="M25.6939 38.6558H27.262C27.7498 38.6558 28.1456 38.26 28.1456 37.7722C28.1456 37.2841 27.7498 36.8887 27.262 36.8887H25.6939C25.2058 36.8887 24.8103 37.2841 24.8103 37.7722C24.8103 38.26 25.2058 38.6558 25.6939 38.6558Z" fill="#838BA4"/>
<path d="M31.6353 36.8887H30.0671C29.5794 36.8887 29.1836 37.2841 29.1836 37.7722C29.1836 38.26 29.5794 38.6558 30.0671 38.6558H31.6353C32.1234 38.6558 32.5188 38.26 32.5188 37.7722C32.5188 37.2841 32.1234 36.8887 31.6353 36.8887Z" fill="#838BA4"/>
<path d="M21.3201 42.4097H27.2619C27.7497 42.4097 28.1455 42.0142 28.1455 41.5261C28.1455 41.038 27.7497 40.6426 27.2619 40.6426H21.3201C20.8324 40.6426 20.4366 41.038 20.4366 41.5261C20.4366 42.0142 20.8324 42.4097 21.3201 42.4097Z" fill="#838BA4"/>
<path d="M30.0671 44.375H21.3201C20.8324 44.375 20.4366 44.7705 20.4366 45.2585C20.4366 45.7463 20.8324 46.1421 21.3201 46.1421H30.0671C30.5548 46.1421 30.9506 45.7463 30.9506 45.2585C30.9506 44.7705 30.5551 44.375 30.0671 44.375Z" fill="#838BA4"/>
<path d="M17.6624 9.11161C17.8237 9.40214 18.1248 9.56586 18.4352 9.56586C18.5804 9.56586 18.7278 9.52963 18.8638 9.45409C19.2904 9.21688 19.4435 8.67889 19.2063 8.25233L17.9826 6.05355C17.7454 5.62733 17.2075 5.47386 16.7809 5.71141C16.3547 5.94862 16.2012 6.48661 16.4384 6.91317L17.6624 9.11161Z" fill="#838BA4"/>
<path d="M13.8813 12.8641L11.6015 11.5482C11.1787 11.3042 10.6387 11.4491 10.3947 11.8716C10.1506 12.294 10.2955 12.8344 10.718 13.0784L12.9978 14.3947C13.1369 14.475 13.289 14.513 13.4387 14.513C13.7439 14.513 14.0409 14.3547 14.2047 14.0714C14.4487 13.6486 14.3038 13.1082 13.8813 12.8641Z" fill="#838BA4"/>
<path d="M11.9534 18.3923L9.32091 18.2802C8.83249 18.2583 8.4213 18.6381 8.40045 19.1255C8.37995 19.6129 8.75832 20.0251 9.24572 20.0456L11.8782 20.1577C11.8909 20.1584 11.9039 20.1584 11.9165 20.1584C12.3872 20.1584 12.7785 19.7872 12.7984 19.3124C12.8192 18.825 12.4408 18.4132 11.9534 18.3923Z" fill="#838BA4"/>
<path d="M33.1748 22.9791L33.1854 23.0051C33.3245 23.3486 33.655 23.5567 34.0043 23.5567C34.1147 23.5567 34.2272 23.5359 34.3359 23.4918C34.7881 23.3086 35.0061 22.7935 34.8229 22.3413L34.8123 22.3153C34.6291 21.8631 34.1141 21.6454 33.6619 21.8286C33.2097 22.0118 32.9916 22.5269 33.1748 22.9791Z" fill="#838BA4"/>
<path d="M47.676 33.2201C47.4942 32.7675 46.9791 32.5481 46.5266 32.7299C46.074 32.9121 45.8546 33.4265 46.0364 33.8794L46.0467 33.905C46.1855 34.2499 46.5167 34.4594 46.867 34.4594C46.9767 34.4594 47.0882 34.4389 47.1962 34.3952C47.649 34.2133 47.8685 33.6986 47.6863 33.246L47.676 33.2201Z" fill="#838BA4"/>
</g>
<defs>
<clipPath id="clip0">
<rect width="44.8" height="44.8" fill="white" transform="translate(5.59998 5.59961)"/>
</clipPath>
</defs>
</svg>
