<svg width="636" height="416" viewBox="0 0 636 416" fill="none" xmlns="http://www.w3.org/2000/svg">
<path d="M418.905 338.017C539.685 272.751 563.52 164.057 515.319 91.1814C456.962 2.95038 279.736 71.9115 164.62 52.6687C-23.7218 21.1855 -47.2791 255.699 77.6928 349.011C177.67 423.66 337.109 382.217 418.905 338.017Z" fill="#F2F5FD"/>
<path d="M353.681 323.276C341.751 335.115 302.44 332.332 276.39 323.812C255.527 316.989 238.74 303.11 235.338 292.026C234.492 289.271 234.474 286.688 235.426 284.429C237.625 279.212 251.696 240.515 260.832 197.413C267.589 165.534 271.646 131.246 266.204 106.309C257.518 109.547 276.02 71.0896 315.409 93.7181C336.168 104.502 379.84 121.829 425.466 127.078C443.088 129.105 461.002 129.331 478 126.682C539.007 117.175 576.222 115.878 587.203 116.418C594.764 116.959 609.13 121.388 606.106 134.785C601.965 128.631 588.607 122.824 568.301 148.829C563.98 157.058 557.931 176.574 568.301 188.803C578.503 200.835 531.483 203.989 505.518 204.087C512.698 205.621 487.098 238.739 478 248.183C471.457 254.975 478.226 255.584 484.185 254.842C485.177 254.699 486.121 254.546 487.013 254.384C487.01 254.391 487.007 254.398 487.004 254.405C483.722 261.646 468.349 280.99 433.002 300.63C388.775 325.204 380.812 312.735 369.712 308.055C360.831 304.311 353.697 309.183 351.24 312.088C356.03 311.871 363.226 313.804 353.681 323.276Z" fill="#61AD15"/>
<path d="M351.24 312.088C356.03 311.871 363.226 313.804 353.681 323.276C341.751 335.115 302.44 332.332 276.39 323.812C255.527 316.989 238.74 303.11 235.338 292.026C234.492 289.271 234.474 286.688 235.426 284.429C237.625 279.212 251.696 240.515 260.832 197.413C267.589 165.534 271.646 131.246 266.204 106.309C257.518 109.547 276.02 71.0896 315.409 93.7181M351.24 312.088C353.697 309.183 360.831 304.311 369.712 308.055C380.812 312.735 388.775 325.204 433.002 300.63M351.24 312.088C341.87 305.076 321.934 283.1 317.143 251.294M433.002 300.63C468.384 280.971 483.752 261.608 487.013 254.384M433.002 300.63C422.517 305.713 398.263 312.666 385.121 299.808M433.002 300.63C430.251 301.688 423.105 303.307 416.536 301.32M487.013 254.384C480.831 255.616 470.374 256.099 478 248.183C487.532 238.288 515.181 202.404 504.259 204.09M487.013 254.384C472.032 257.097 442.433 257.463 415.805 245.135M487.013 254.384C486.022 256.61 478.967 261.274 458.678 262.124M504.259 204.09C489.7 206.338 458.554 198.213 425.466 181.336C397.687 167.167 368.539 146.829 346.69 121.281C335.155 107.794 324.701 99.0563 315.409 93.7181M504.259 204.09C529.927 204.09 578.67 201.032 568.301 188.803M386.813 224.045C395.301 233.463 405.323 240.283 415.805 245.135M415.805 245.135C402.454 240.422 373.45 227.633 364.237 214.178M315.409 93.7181C336.168 104.502 379.84 121.829 425.466 127.078M410.722 265.756C386.283 267.32 331.15 250.166 306.13 169.034M606.106 134.785C609.13 121.388 594.764 116.959 587.203 116.418C576.222 115.878 539.007 117.175 478 126.682C461.002 129.331 443.088 129.105 425.466 127.078M606.106 134.785C601.965 128.631 588.607 122.824 568.301 148.829C563.98 157.058 557.931 176.574 568.301 188.803M606.106 134.785C602.325 127.042 586.231 114.582 552.099 126.682M568.301 188.803C559.876 193.103 536.524 200.844 510.513 197.413M425.466 127.078C450.755 131.988 506.409 140.079 526.715 133.164" stroke="#181A20" stroke-width="0.7" stroke-linecap="round" stroke-linejoin="round"/>
<path opacity="0.1" d="M401.959 207.71C362.21 192.585 299.346 173.138 309.3 122.609C305.844 92.3583 341.704 109.284 360.067 121.528L506.966 204.176L503.726 212.279L498.865 220.922L489.144 234.967L479.963 245.23L475.102 251.172L476.182 254.414C476.542 254.954 475.858 256.79 470.241 259.815C463.22 263.597 434.057 256.034 425.955 256.034C417.854 256.034 377.349 235.507 363.847 226.324C353.046 218.977 328.51 182.862 401.959 207.71Z" fill="black"/>
<path d="M265.82 378.253C268.753 374.369 276.516 365.268 280.032 361.203C280.726 361.174 281.157 361.388 281.406 361.733C287.656 368.993 285.04 375.685 282.951 378.123C282.813 378.31 282.665 378.512 282.507 378.729L282.216 386.969L281.137 387.602L278.905 387.107L278.783 384.183C277.232 386.604 275.79 389.1 275.19 390.789C274.003 394.13 271.613 397.795 270.567 399.21C268.944 400.062 263.727 402.2 255.839 403.941C245.98 406.117 247.414 400.768 248.419 398.375C249.185 396.552 254.55 391.196 257.51 388.388C257.644 388.233 257.79 388.098 257.935 387.986C259.341 386.36 262.887 382.137 265.82 378.253Z" fill="#21242F"/>
<path d="M257.935 387.986C259.341 386.36 262.887 382.137 265.82 378.253C268.753 374.369 276.516 365.268 280.032 361.203C280.726 361.174 281.157 361.388 281.406 361.733M257.935 387.986C256.864 388.814 255.735 390.899 259.787 392.61C263.839 394.321 266.626 393.107 267.513 392.286C269.831 390.426 274.824 384.693 276.256 376.64L281.283 364.676C281.627 363.856 281.949 362.484 281.406 361.733M257.935 387.986C255.098 390.651 249.224 396.461 248.419 398.375C247.414 400.768 245.98 406.117 255.839 403.941C263.727 402.2 268.944 400.062 270.567 399.21C271.613 397.795 274.003 394.13 275.19 390.789C275.79 389.1 277.232 386.604 278.783 384.183M281.406 361.733C287.656 368.993 285.04 375.685 282.951 378.123C282.813 378.31 282.665 378.512 282.507 378.729M282.507 378.729L282.216 386.969L281.137 387.602L278.905 387.107L278.783 384.183M282.507 378.729C281.486 380.136 280.096 382.133 278.783 384.183" stroke="#181A20" stroke-width="0.7"/>
<path d="M300.28 384.252C302.786 380.08 309.545 370.21 312.612 365.796C313.299 365.694 313.75 365.861 314.034 366.178C321.016 372.737 319.122 379.668 317.302 382.313C317.184 382.513 317.058 382.731 316.924 382.963L317.505 391.187L316.499 391.93L314.227 391.675L313.796 388.78C312.51 391.351 311.339 393.985 310.921 395.728C310.093 399.176 308.104 403.073 307.213 404.591C305.69 405.609 300.727 408.286 293.067 410.851C283.493 414.056 284.354 408.585 285.102 406.1C285.671 404.206 290.44 398.313 293.087 395.208C293.204 395.04 293.335 394.89 293.467 394.764C294.693 392.998 297.773 388.424 300.28 384.252Z" fill="#21242F"/>
<path d="M293.467 394.764C294.693 392.998 297.773 388.424 300.28 384.252C302.786 380.08 309.545 370.21 312.612 365.796C313.299 365.694 313.75 365.861 314.034 366.178M293.467 394.764C292.49 395.701 291.587 397.893 295.797 399.166C300.007 400.439 302.65 398.938 303.445 398.028C305.554 395.933 309.913 389.705 310.487 381.546L314.223 369.118C314.479 368.266 314.654 366.868 314.034 366.178M293.467 394.764C290.928 397.714 285.699 404.111 285.102 406.1C284.354 408.585 283.493 414.056 293.067 410.851C300.727 408.286 305.69 405.609 307.213 404.591C308.104 403.073 310.093 399.176 310.921 395.728C311.339 393.985 312.51 391.351 313.796 388.78M314.034 366.178C321.016 372.737 319.122 379.668 317.302 382.313C317.184 382.513 317.058 382.731 316.924 382.963M316.924 382.963L317.505 391.187L316.499 391.93L314.227 391.675L313.796 388.78M316.924 382.963C316.058 384.47 314.886 386.602 313.796 388.78" stroke="#181A20" stroke-width="0.7"/>
<path d="M276.849 281.583C275.523 278.212 277.213 268.749 277.213 268.749C277.213 268.749 285.387 207.244 284.576 220.389C282.732 247.502 286.81 271.62 287.251 279.442C287.276 280.575 287.485 282.09 287.866 283.695C289.708 293.271 295.163 313.556 298.911 355.16C299.895 366.075 300.14 364.692 298.762 374.176C297.506 382.817 294.122 391.422 292.621 395.497C290.561 397.99 298.144 399.408 303 399.086C307.048 398.818 309.138 389.388 311.512 381.466C312.949 376.669 316.021 372.851 315.355 369.87C314.689 366.889 314.017 369.013 312.595 363.366C310.817 356.307 311.537 346.6 313.51 332.442C315.482 318.284 315.388 297.313 312.595 289.564C311.367 286.156 313.51 272.786 313.51 272.786C313.51 272.786 318.455 206.777 319.211 198.201C319.221 198.345 319.23 198.49 319.238 198.635C319.344 196.92 319.325 196.914 319.211 198.201C317.767 175.681 308.263 161.388 303.662 157.037C287.943 168.67 267.298 165.694 258.94 162.751C259.409 173.936 258.4 191.186 257.357 206.519C255.513 233.633 252.911 264.958 252.588 272.786C252.489 275.182 253.529 282.296 254.309 284.563C256 287.563 263.393 316.321 264.249 348.504C264.54 359.46 265.477 358.037 264.099 367.521C262.844 376.161 259.459 384.766 257.958 388.841C255.898 391.334 260.89 394.252 265.746 393.931C269.794 393.663 274.476 382.733 276.849 374.81C278.286 370.013 281.358 366.196 280.692 363.215C280.026 360.233 279.355 362.357 277.932 356.71C276.155 349.652 276.706 340.284 278.847 325.786C280.988 311.288 279.7 288.83 276.849 281.583Z" fill="#F1CACB"/>
<path d="M287.251 279.442C287.651 286.551 294.476 305.93 298.911 355.16C299.895 366.075 300.14 364.692 298.762 374.176C297.506 382.817 294.122 391.422 292.621 395.497C290.561 397.99 298.144 399.408 303 399.086C307.048 398.818 309.138 389.388 311.512 381.466C312.949 376.669 316.021 372.851 315.355 369.87C314.689 366.889 314.017 369.013 312.595 363.366C310.817 356.307 311.537 346.6 313.51 332.442C315.482 318.284 315.388 297.313 312.595 289.564C311.367 286.156 313.51 272.786 313.51 272.786C313.51 272.786 320.05 185.489 319.238 198.635C317.889 175.865 308.292 161.415 303.662 157.037C287.943 168.67 267.298 165.694 258.94 162.751C259.409 173.936 258.4 191.186 257.357 206.519C255.513 233.633 252.911 264.958 252.588 272.786C252.489 275.182 253.529 282.296 254.309 284.563M287.251 279.442C286.81 271.62 282.732 247.502 284.576 220.389C285.387 207.244 277.213 268.749 277.213 268.749C277.213 268.749 275.523 278.212 276.849 281.583C279.7 288.83 280.988 311.288 278.847 325.786C276.706 340.284 276.155 349.652 277.932 356.71C279.355 362.357 280.026 360.233 280.692 363.215C281.358 366.196 278.286 370.013 276.849 374.81C274.476 382.733 269.794 393.663 265.746 393.931C260.89 394.252 255.898 391.334 257.958 388.841C259.459 384.766 262.844 376.161 264.099 367.521C265.477 358.037 264.54 359.46 264.249 348.504C263.393 316.321 256 287.563 254.309 284.563M287.251 279.442C287.334 283.16 289.4 290.993 293 292.58M254.309 284.563C255.531 286.684 257.052 287.563 259.5 287.563" stroke="#181A20" stroke-width="0.7"/>
<path d="M314.209 172.612C320.761 185.562 322.639 201.713 321.242 211.39C321.242 211.39 320.405 230.811 318.858 242.819C317.605 252.54 313.961 285.973 314.209 288.001C303.258 291.663 293.296 293.476 284.403 293.028L284.263 293.028C265.734 292.991 258.521 292.977 254.514 286.501L254.504 286.447C254.338 285.757 252.058 280.417 252 272.001C252.463 257.081 255.117 232.708 254.514 214.185C254.444 194.953 256.78 178.756 259.489 171.899C270.87 179.597 300.894 175.174 314.209 172.612Z" fill="#21242F"/>
<path d="M254.514 286.501C258.531 292.993 265.771 292.991 284.403 293.028C293.296 293.476 303.258 291.663 314.209 288.001C313.961 285.973 317.605 252.54 318.858 242.819C320.405 230.811 321.242 211.39 321.242 211.39C322.639 201.713 320.761 185.562 314.209 172.612C300.894 175.174 270.87 179.597 259.489 171.899C256.78 178.756 254.444 194.953 254.514 214.185C255.117 232.708 252.463 257.081 252 272.001M254.514 286.501C254.498 286.122 252.06 280.707 252 272.001M254.514 286.501L252 272.001" stroke="#181A20" stroke-width="0.7"/>
<path d="M239.103 128.727C241.392 119.941 267.731 110.255 267.731 110.255C267.731 110.255 271.163 108.089 272.312 106.083C275.564 100.405 272.817 92.1108 268.812 88.5944C264.806 85.0779 254.976 86.7316 254.976 86.7316C254.976 86.7316 239.365 101.332 223.421 113.909C212.332 121.307 220.086 137.5 225.348 144.672C228.439 151.071 229.185 153.518 231.76 154.02L237.106 159.076L238.701 160.585C239.36 161.105 240.545 161.634 241.573 161.12L242.895 160.476L243.031 159.094C244.279 155.174 247.192 152.64 251.197 152.437L245.138 140.333C245.161 139.261 244.925 137.73 244.203 136.246C244.502 135.574 243.869 133.258 238.948 129.37C238.993 129.164 239.045 128.95 239.103 128.727Z" fill="#21242F"/>
<path d="M238.948 129.37C236.048 128.33 233.543 126.711 229.635 127.995M238.948 129.37C234.79 128.79 229.75 128.583 225.765 131.837M238.948 129.37C238.993 129.164 239.045 128.95 239.103 128.727M238.948 129.37C243.869 133.258 244.502 135.574 244.203 136.246M239.103 128.727C241.392 119.941 267.731 110.255 267.731 110.255C267.731 110.255 271.163 108.089 272.312 106.083C275.564 100.405 272.817 92.1108 268.812 88.5944C264.806 85.0779 254.976 86.7316 254.976 86.7316M239.103 128.727C239.549 125.581 237.087 119.095 236.795 115.243L239.647 124.668M245.138 140.333C245.161 139.261 244.925 137.73 244.203 136.246M245.138 140.333C243.566 138.208 238.853 135.378 232.568 141.056C226.284 146.733 228.367 151.076 230.193 152.538L231.76 154.02M245.138 140.333L251.197 152.437C247.192 152.64 244.279 155.174 243.031 159.094M237.07 131.585C241.003 131.952 243.135 134.049 244.203 136.246M243.031 159.094C242.674 160.218 242.148 160.832 241.573 161.12M243.031 159.094L242.895 160.476L241.573 161.12M254.976 86.7316C254.976 86.7316 239.365 101.332 223.421 113.909C212.332 121.307 220.086 137.5 225.348 144.672M254.976 86.7316C254.383 90.7639 252.629 98.9725 250.366 99.5482M241.573 161.12C240.545 161.634 239.36 161.105 238.701 160.585L237.106 159.076L231.76 154.02M231.76 154.02C229.185 153.518 228.439 151.071 225.348 144.672M223.481 139.223C223.943 141.288 224.587 143.096 225.348 144.672M241.249 158.014L240.359 156.682L238.972 157.703L239.863 159.035L241.249 158.014Z" stroke="#181A20" stroke-width="0.7"/>
<path d="M254.445 139.711C248.938 133.822 248.74 130.977 249.659 125.029C250.739 118.039 253.708 113.295 254.114 110.81C254.622 107.703 251.629 106.105 255.393 86.7114C257.928 85.0511 259.773 84.9312 265.954 84.8037C269.308 84.7345 270.786 84.2107 271.331 83.7148C271.413 83.4869 271.496 83.2751 271.579 83.0796C277.559 74.9165 288.362 74.1576 297.172 76.1198C304.22 77.6896 305.808 84.8747 305.721 88.271L319.955 92.3029C317.712 93.9326 313.21 103.729 311.407 113.218C310.768 116.577 310.566 119.629 310.221 125.029C309.841 130.96 308.788 146.278 311.572 157.292C313.815 166.166 312.847 170.255 310.99 171.544C308.252 173.499 302.475 175.689 299.172 176.613C296.51 177.357 293.736 177.814 290.963 178.058C289.586 178.179 288.208 178.248 286.846 178.274C281.073 178.385 275.556 177.723 271.354 176.996C267.733 176.369 265.089 175.694 264.1 175.423C260.467 174.426 258.26 168.576 259.236 166.411C260.017 164.68 260.431 159.24 260.54 156.737C260.803 153.516 259.952 145.601 254.445 139.711Z" fill="#21242F"/>
<path d="M305.721 88.271L319.955 92.3029C317.712 93.9326 313.21 103.729 311.407 113.218M305.721 88.271C305.808 84.8747 304.22 77.6896 297.172 76.1198C288.362 74.1576 277.559 74.9165 271.579 83.0796M305.721 88.271C305.331 89.1366 293.14 101.111 289.334 106.906C288.223 105.26 289.075 102.439 287.622 100.329M271.579 83.0796C271.765 83.6118 270.899 84.7017 265.954 84.8037C259.773 84.9312 257.928 85.0511 255.393 86.7114C251.629 106.105 254.622 107.703 254.114 110.81C253.708 113.295 250.739 118.039 249.659 125.029C248.74 130.977 248.938 133.822 254.445 139.711C259.952 145.601 260.803 153.516 260.54 156.737C260.431 159.24 260.017 164.68 259.236 166.411C258.26 168.576 260.467 174.426 264.1 175.423C265.089 175.694 267.733 176.369 271.354 176.996M271.579 83.0796C270.119 86.5043 268.827 94.941 268.292 106.529L269.42 99.7397C270.057 97.7613 270.803 95.4136 273.382 99.6482L275.966 105.363C275.202 109.131 273.68 114.437 270.089 119.227C265.964 124.732 265.398 130.992 266.035 136.792M269.685 172.092C273.585 159.756 269.637 149.726 267.403 142.681M271.354 176.996C272.985 173.529 275.873 164.032 274.38 153.772M271.354 176.996C275.556 177.723 281.073 178.385 286.846 178.274M299.172 176.613C302.475 175.689 308.252 173.499 310.99 171.544C312.847 170.255 313.815 166.166 311.572 157.292C308.788 146.278 309.841 130.96 310.221 125.029C310.566 119.629 310.768 116.577 311.407 113.218M299.172 176.613C302.391 174.837 308.681 169.465 308.087 162.188M299.172 176.613C296.51 177.357 293.736 177.814 290.963 178.058M300.343 79.2704C302.086 80.3064 301.832 85.2427 286.865 96.6999M286.865 96.6999C286.187 97.0712 281.505 98.6818 280.44 105.564C282.29 103.957 287.233 101.241 287.622 100.329M286.865 96.6999C287.068 96.9019 286.275 98.3725 287.622 100.329M266.484 139.463C266.398 139.096 266.325 138.74 266.265 138.395C266.168 137.835 266.091 137.302 266.035 136.792M266.484 139.463L268.867 139.414M266.484 139.463C266.717 140.454 267.037 141.527 267.403 142.681M267.403 142.681L264.84 143.249M266.035 136.792C264.905 137.173 262.229 137.728 260.559 136.905M286.846 178.274L282.615 173.969M286.846 178.274C288.208 178.248 289.586 178.179 290.963 178.058M290.963 178.058C288.33 175.799 282.511 169.791 280.3 163.833M287.297 155.113C288.34 155.628 286.4 160.491 302.381 160.698M311.407 113.218C306.746 124.835 301.492 120.712 301.012 124.474M292.246 146.971C295.563 146.903 298.061 143.764 299.802 140.038" stroke="#181A20" stroke-width="0.7"/>
<path d="M261.145 165.521C261.94 166.397 262.696 167.609 263.501 168.72C265.048 170.857 267.173 172.902 267.173 172.902C267.45 174.03 266 176.514 264.761 175.081C264.552 176.436 263.101 178.117 261.635 177.219C261.893 178.053 260.145 179.497 258.847 178.218L257.868 177.245C257.643 177.711 256.111 178.887 255.378 178.362C254.228 177.407 251.917 176.48 251.084 175.949C250.153 175.355 247.633 173.083 242.359 161.079C241.025 159.242 238.745 156.24 236.459 153.517C234.838 146.552 240.456 145.899 243.468 146.443C243.891 147.619 246.449 150.088 249.119 152.408C252.161 155.05 255.349 157.498 255.692 157.616L260.486 159.512L259.651 162.757C260.941 164.099 260.213 163.836 261.145 165.521Z" fill="#F1CACB"/>
<path d="M257.63 160.862C258.46 161.586 259.111 162.196 259.651 162.757M261.145 165.521C261.94 166.397 262.696 167.609 263.501 168.72C265.048 170.857 267.173 172.902 267.173 172.902C267.45 174.03 266 176.514 264.761 175.081M261.145 165.521C260.785 165.123 261.506 165.918 261.145 165.521ZM261.145 165.521C260.213 163.836 260.941 164.099 259.651 162.757M259.968 169.867L264.761 175.081M255.058 170.724C256.121 172.478 259.71 174.717 261.635 177.219M251.736 173.258L257.868 177.245M264.761 175.081C264.552 176.436 263.101 178.117 261.635 177.219M261.635 177.219C261.893 178.053 260.145 179.497 258.847 178.218L257.868 177.245M257.868 177.245C257.643 177.711 256.111 178.887 255.378 178.362C254.228 177.407 251.917 176.48 251.084 175.949C250.153 175.355 247.633 173.083 242.359 161.079C241.025 159.242 238.745 156.24 236.459 153.517C234.838 146.552 240.456 145.899 243.468 146.443C243.891 147.619 246.449 150.088 249.119 152.408C252.161 155.05 255.349 157.498 255.692 157.616L260.486 159.512L259.651 162.757" stroke="#181A20" stroke-width="0.7" stroke-linecap="round" stroke-linejoin="round"/>
<path d="M244.89 139.767C243.319 137.642 238.605 134.812 232.321 140.489C226.037 146.167 228.12 150.51 229.946 151.971L231.513 153.454L236.859 158.51L238.454 160.019C239.113 160.538 240.298 161.068 241.326 160.553L242.648 159.91L242.784 158.527C244.031 154.607 246.945 152.074 250.95 151.87L244.89 139.767Z" fill="#21242F"/>
<path d="M242.784 158.527C244.031 154.607 246.945 152.074 250.95 151.87L244.89 139.767C243.319 137.642 238.605 134.812 232.321 140.489C226.037 146.167 228.12 150.51 229.946 151.971L231.513 153.454L236.859 158.51L238.454 160.019C239.113 160.538 240.298 161.068 241.326 160.553M242.784 158.527C242.427 159.652 241.901 160.266 241.326 160.553M242.784 158.527L242.648 159.91L241.326 160.553M241.002 157.448L240.112 156.116L238.725 157.136L239.615 158.468L241.002 157.448Z" stroke="#181A20" stroke-width="0.7"/>
<path d="M329.027 158.267L341.124 150.024C345.301 147.828 353.42 154.339 350.25 161.096C346.536 162.729 338.226 166.235 334.703 167.199C331.179 168.162 328.742 170.062 327.964 170.892C319.318 181.274 316.154 182.756 315.053 183.057C314.068 183.327 310.558 184.698 309.136 185.292C308.254 185.587 307.842 184.582 307.747 184.043L306.492 184.71C304.831 185.583 303.175 183.078 303.666 182.322C301.943 182.76 301.262 181.112 301.429 179.686C299.785 180.731 299.833 177.965 300.426 176.92C300.426 176.92 301.516 174.794 303.666 173.138C304.784 172.277 305.45 171.065 306.492 170.437C307.218 169.717 307.771 169.12 308.35 168.576C309.897 166.545 306.281 167.794 305.603 168.136C305.022 168.43 303.844 169.994 302.579 170.939C301.621 171.655 300.991 170.142 301.287 169.778C301.584 169.413 304.824 165.475 306.366 164.495C308.123 163.379 309.705 164.291 315.543 163.188C321.38 162.085 326.965 159.448 329.027 158.267Z" fill="#F1CACB"/>
<path d="M312.691 165.834C309.177 167.406 308.487 168.457 306.492 170.437M306.492 170.437C305.45 171.065 304.784 172.277 303.666 173.138C301.516 174.794 300.426 176.92 300.426 176.92C299.833 177.965 299.785 180.731 301.429 179.686M306.492 170.437C306.966 170.152 306.019 170.722 306.492 170.437ZM306.492 170.437C311.63 165.951 306.431 167.719 305.603 168.136C305.022 168.43 303.844 169.994 302.579 170.939C301.621 171.655 300.991 170.142 301.287 169.778C301.584 169.413 304.824 165.475 306.366 164.495C308.123 163.379 309.705 164.291 315.543 163.188C321.38 162.085 326.965 159.448 329.027 158.267L341.124 150.024C345.301 147.828 353.42 154.339 350.25 161.096C346.536 162.729 338.226 166.235 334.703 167.199C331.179 168.162 328.742 170.062 327.964 170.892M306.492 175.3L301.429 179.686M310.765 177.446C309.208 178.871 306.297 180.42 303.666 182.322M313.393 181.044L307.747 184.043M327.964 170.892C319.318 181.274 316.154 182.756 315.053 183.057C314.068 183.327 310.558 184.698 309.136 185.292C308.254 185.587 307.842 184.582 307.747 184.043M327.964 170.892C328.311 170.382 329.01 168.929 329.027 167.199M301.429 179.686C301.262 181.112 301.943 182.76 303.666 182.322M303.666 182.322C303.175 183.078 304.831 185.583 306.492 184.71L307.747 184.043" stroke="#181A20" stroke-width="0.7" stroke-linecap="round" stroke-linejoin="round"/>
<path d="M348.83 134.768C347.316 125.782 311.091 115.638 311.091 115.638C311.091 115.638 308.502 112.139 308.377 109.139C308.098 102.49 309.089 95.1785 313.382 92.0976C317.675 89.0168 330.848 97.5878 330.848 97.5878C330.848 97.5878 355.217 107.778 369.994 121.967C380.389 130.493 371.262 145.801 365.399 152.389C361.767 158.434 356.547 160.484 353.939 160.714L348.178 165.187L346.459 166.522C345.758 166.97 344.532 167.373 343.554 166.753L342.294 165.975L342.278 164.584C341.378 160.551 337.534 154.344 333.566 153.722L341.814 145.688C341.884 144.618 342.252 143.12 343.099 141.717C342.861 141.017 343.692 138.779 348.929 135.424C348.902 135.214 348.869 134.995 348.83 134.768Z" fill="#21242F"/>
<path d="M348.929 135.424C351.906 134.692 358.804 133.651 362.584 135.338M348.929 135.424C353.118 135.281 362.418 135.911 366.102 139.568M348.929 135.424C348.902 135.214 348.869 134.995 348.83 134.768M348.929 135.424C343.692 138.779 342.861 141.017 343.099 141.717M348.83 134.768C347.316 125.782 311.091 115.638 311.091 115.638C311.091 115.638 308.502 112.139 308.377 109.139C308.098 102.49 309.089 95.1785 313.382 92.0976C317.675 89.0168 330.848 97.5878 330.848 97.5878M348.83 134.768C348.66 131.589 351.676 125.39 352.301 121.587L348.642 130.67M341.814 145.688C341.884 144.618 342.252 143.12 343.099 141.717M341.814 145.688C343.563 143.738 348.501 141.414 354.263 147.724C360.024 154.034 357.574 158.139 355.628 159.403L353.939 160.714M341.814 145.688L333.566 153.722C337.534 154.344 341.378 160.551 342.278 164.584M350.605 137.825C346.658 137.779 344.353 139.643 343.099 141.717M342.278 164.584C342.537 165.741 343.007 166.407 343.554 166.753M342.278 164.584L342.294 165.975L343.554 166.753M330.848 97.5878C330.848 97.5878 355.217 107.778 369.994 121.967C380.389 130.493 371.262 145.801 365.399 152.389M330.848 97.5878C330.722 98.5247 330.843 101.104 332.334 103.927C332.938 104.704 334.276 106.612 334.793 108.033M343.554 166.753C344.532 167.373 345.758 166.97 346.459 166.522L348.178 165.187L353.939 160.714M353.939 160.714C356.547 160.484 361.767 158.434 365.399 152.389M367.732 147.16C367.093 149.167 366.294 150.899 365.399 152.389M345.942 164.237V164.237C346.218 163.898 346.181 163.392 345.859 163.103L345.736 162.992C345.412 162.701 344.922 162.742 344.644 163.084V163.084C344.369 163.423 344.406 163.93 344.727 164.218L344.85 164.329C345.174 164.62 345.664 164.579 345.942 164.237Z" stroke="#181A20" stroke-width="0.7"/>
<path d="M254.063 87.4145C255.754 86.4786 260.017 96.2572 261 102.524C262.611 102.276 262.687 103.146 264 103.524C265.641 103.996 267.732 101.521 268 95.0222C268.215 89.8228 270.888 84.7275 271.712 82.8908C269.571 83.4132 267.942 83.229 267.395 83.0717C255.343 79.2513 251.95 88.5844 254.063 87.4145Z" fill="#86BE26" stroke="#181A20" stroke-width="0.7" stroke-linecap="round" stroke-linejoin="round"/>
<path d="M293.599 102.926C295.307 101.476 302.362 91.4826 306.382 86.3383C308.257 83.939 321.281 88.5919 318.033 92.7156C319.328 92.1112 320.624 90.1666 330.129 97.5131C334.45 98.2333 346.548 101.078 358.213 111.018C365.126 111.018 386.477 118.94 396.558 122.362C410.78 125.963 447.757 131.761 481.889 126.143C512.493 121.821 577.374 113.935 592.064 116.96C606.754 119.985 607.906 129.384 606.646 133.705C601.785 128.484 587.419 123.982 568.841 147.75C564.16 156.933 557.607 178.217 568.841 189.885C570.641 192.766 568.841 199.176 547.238 201.769C544.907 202.048 542.383 202.388 539.677 202.747C511.029 206.541 461.947 212.39 405.199 170.438C384.448 158.229 376.112 151.366 368.986 142.346C368.832 142.167 368.691 141.986 368.565 141.808C363.253 134.977 358.498 126.849 349.572 114.259C339.91 100.629 313.698 99.8138 306.98 104.479C306.778 104.643 306.579 104.802 306.382 104.956C294.687 114.094 291.923 104.349 293.599 102.926Z" fill="#61AD15"/>
<path d="M318.033 92.7156C321.281 88.5919 308.257 83.939 306.382 86.3383C302.362 91.4826 295.307 101.476 293.599 102.926C291.923 104.349 294.687 114.094 306.382 104.956M318.033 92.7156C313.425 98.5677 309.571 102.464 306.382 104.956M318.033 92.7156C319.328 92.1112 320.624 90.1666 330.129 97.5131C334.45 98.2333 346.548 101.078 358.213 111.018M306.382 104.956C311.958 99.774 339.592 100.182 349.572 114.259C358.498 126.849 363.253 134.977 368.565 141.808M396.558 122.362C386.477 118.94 365.126 111.018 358.213 111.018M396.558 122.362C410.78 125.963 447.757 131.761 481.889 126.143C512.493 121.821 577.374 113.935 592.064 116.96C606.754 119.985 607.906 129.384 606.646 133.705M396.558 122.362C403.039 135.686 425.506 163.307 463.527 167.197M358.213 111.018C361.273 111.558 367.718 113.394 369.015 116.42M606.646 133.705C601.785 128.484 587.419 123.982 568.841 147.75C564.16 156.933 557.607 178.217 568.841 189.885C570.641 192.766 568.841 199.176 547.238 201.769C544.907 202.048 542.383 202.388 539.677 202.747M606.646 133.705C604.125 126.683 587.851 116.42 542.917 131.545M539.677 202.747C511.029 206.541 461.947 212.39 405.199 170.438C384.037 157.987 375.787 151.097 368.565 141.808M539.677 202.747C512.853 202.421 452.617 195.502 426.262 170.438M368.565 141.808C369.975 143.789 373.227 146.238 374.955 140.188" stroke="#181A20" stroke-width="0.7" stroke-linecap="round" stroke-linejoin="round"/>
<ellipse rx="4.58321" ry="5.93813" transform="matrix(0.883349 0.468716 -0.430924 0.902388 297.725 104.528)" fill="#A9B0C8" stroke="#181A20" stroke-width="0.7" stroke-linecap="round" stroke-linejoin="round"/>
<ellipse rx="3.29858" ry="5.46869" transform="matrix(0.958509 0.285061 -0.284952 0.958542 263.72 99.2038)" fill="#A9B0C8" stroke="#181A20" stroke-width="0.7" stroke-linecap="round" stroke-linejoin="round"/>
<path d="M279.244 73.1133C279.912 75.154 281.804 81.6843 275.238 89.1423C274.034 90.5099 274.234 92.4532 274.031 93.9287C273.114 100.608 275.835 104.756 276.017 105.394C275.535 106.693 275.349 109.112 275.794 108.399C276.24 107.687 279.244 106.099 280.691 105.394C279.949 104.095 280.246 100.407 287.368 96.0436C294.491 91.6802 298.497 86.1368 299.61 83.9106C299.165 83.5544 293.044 73.2257 294.602 67.9942C296.16 62.7627 279.244 73.1133 279.244 73.1133Z" fill="#F1CACB"/>
<path d="M291.486 78.011C290.707 80.8681 288.526 87.0941 286.033 89.1423M274.031 93.9287C273.114 100.608 275.835 104.756 276.017 105.394C275.535 106.693 275.349 109.112 275.794 108.399C276.24 107.687 279.244 106.099 280.691 105.394C279.949 104.095 280.246 100.407 287.368 96.0436C294.491 91.6802 298.497 86.1368 299.61 83.9106C299.165 83.5544 293.044 73.2257 294.602 67.9942C296.16 62.7627 279.244 73.1133 279.244 73.1133C279.912 75.154 281.804 81.6843 275.238 89.1423C274.034 90.5099 274.234 92.4532 274.031 93.9287ZM274.031 93.9287C274.545 95.0418 276.151 97.3126 278.465 97.4907" stroke="#181A20" stroke-width="0.7" stroke-linecap="round" stroke-linejoin="round"/>
<path d="M271.365 73.5006C271.365 73.5006 272.661 78.2194 281.504 74.48C286.903 72.1971 290.414 70.0203 292.423 68.2849C293.705 67.1776 294.375 66.25 294.535 65.5893C295.596 67.0265 296.941 66.7488 297.88 65.9928C298.748 65.2948 301.696 63.1411 302.801 59.7315C303.685 57.0038 301.902 55.4639 300.899 55.0349C299.897 54.6059 298.262 55.7951 298.262 55.7951L298.554 46.973C293.448 31.1072 273.277 32.4199 270.009 36.1362C267.863 38.5756 265.883 44.2426 266.526 49.6569C266.766 51.6733 267.15 51.3691 266.641 54.5733C266.131 57.7775 266.41 62.3512 266.639 64.0733C266.868 65.7954 271.365 73.5006 271.365 73.5006Z" fill="#F1CACB"/>
<path d="M298.855 57.0012C299.741 56.8074 300.921 56.8748 301.44 57.7614C301.89 58.5289 301.792 59.6098 300.298 61.772M298.172 59.8966C297.726 60.4991 297.058 61.6962 297.959 61.6648M294.535 65.5893C295.596 67.0265 296.941 66.7488 297.88 65.9928C298.748 65.2948 301.696 63.1411 302.801 59.7315C303.685 57.0038 301.902 55.4639 300.899 55.0349C299.897 54.6059 298.262 55.7951 298.262 55.7951L298.554 46.973C293.448 31.1072 273.277 32.4199 270.009 36.1362C267.863 38.5756 265.883 44.2426 266.526 49.6569C266.766 51.6733 267.15 51.3691 266.641 54.5733C266.131 57.7775 266.41 62.3512 266.639 64.0733C266.868 65.7954 271.365 73.5006 271.365 73.5006C271.365 73.5006 272.661 78.2194 281.504 74.48C286.903 72.1971 290.414 70.0203 292.423 68.2849C293.705 67.1776 294.375 66.25 294.535 65.5893Z" stroke="#181A20" stroke-width="0.7" stroke-linecap="round" stroke-linejoin="round"/>
<path d="M270.849 68.7269C271.218 69.4956 272.394 69.9676 273.211 70.0189C274.138 69.9771 275.193 70.0602 275.813 69.3252C276.613 69.2011 277.719 68.5487 276.925 68.4529C276.131 68.3572 275.758 68.0919 275.624 68.0664C274.928 67.115 274.224 67.4876 273.014 67.4771C272.316 67.471 271.329 66.9737 271.028 67.2374C270.728 67.5012 269.975 67.6149 269.975 67.6149L270.849 68.7269Z" fill="#21242F" stroke="#181A20" stroke-width="0.7" stroke-linecap="round" stroke-linejoin="round"/>
<path d="M267.36 51.6822C267.46 51.6908 267.56 51.7073 267.658 51.7308C268.818 52.0066 269.847 53.2401 270.242 53.8698C269.754 52.9545 268.389 51.1142 266.832 51.0759C266.382 51.0854 265.787 51.1436 265.647 51.3948C265.7 51.4016 266.073 51.9205 266.253 52.179C266.328 51.8714 266.617 51.6181 267.36 51.6822Z" fill="#21242F"/>
<path d="M270.242 53.8698C269.847 53.2401 268.818 52.0066 267.658 51.7308C267.56 51.7073 267.46 51.6908 267.36 51.6822C266.617 51.6181 266.328 51.8714 266.253 52.179C266.073 51.9205 265.7 51.4016 265.647 51.3948C265.787 51.1436 266.382 51.0854 266.832 51.0759C268.389 51.1142 269.754 52.9545 270.242 53.8698Z" fill="#21242F"/>
<path d="M282.507 52.3467L286.296 53.2373L284.651 53.9662C281.421 52.0383 279.414 52.7412 278.694 53.4269C278.803 53.3112 278.922 53.185 279.052 53.0473C280.049 51.9907 281.771 52.14 282.507 52.3467Z" fill="#21242F"/>
<path d="M273.006 53.8618C273.268 54.6135 273.363 55.9152 272.569 57.4826C271.577 59.442 270.061 60.6228 271.535 62.3137M272.786 61.2816C272.931 61.0308 273.188 60.6734 273.623 61.0525C274.059 61.4316 274.19 61.5292 274.292 61.6096M277.647 54.5499C277.691 54.5002 277.937 54.2317 278.575 53.5529M278.459 54.5195C279.394 55.2132 281.536 56.1479 283.192 54.8726L284.793 54.4579L283.941 54.2811L284.651 53.9662M269.728 54.2076L267.897 54.3091C267.539 54.3079 266.774 54.1513 266.584 53.5346M266.253 52.179C266.328 51.8714 266.617 51.6181 267.36 51.6822C267.46 51.6908 267.56 51.7073 267.658 51.7308C268.818 52.0066 269.847 53.2401 270.242 53.8698C269.754 52.9545 268.389 51.1142 266.832 51.0759C266.382 51.0854 265.787 51.1436 265.647 51.3948C265.7 51.4016 266.073 51.9205 266.253 52.179ZM266.253 52.179C266.199 52.4006 266.257 52.6504 266.338 52.8298M278.575 53.5529C278.61 53.5114 278.65 53.4692 278.694 53.4269M278.575 53.5529C278.614 53.5124 278.653 53.4704 278.694 53.4269M284.651 53.9662L286.296 53.2373L282.507 52.3467C281.771 52.14 280.049 51.9907 279.052 53.0473C278.922 53.185 278.803 53.3112 278.694 53.4269M284.651 53.9662C281.421 52.0383 279.414 52.7412 278.694 53.4269" stroke="#181A20" stroke-width="0.7" stroke-linecap="round" stroke-linejoin="round"/>
<path d="M264.43 45.9676C261.239 30.2363 273.626 23.363 280.35 23.3588C285.35 18.166 295.257 20.4207 299.586 22.1971C299.618 17.0403 303.455 15.3381 305.369 15.1316C308.387 14.4596 311.06 14.5571 313.38 15.2238C317.552 16.4228 320.583 19.4628 322.431 23.1794C324.404 27.1463 325.029 31.8841 324.254 35.9771C324.048 37.0646 323.732 38.0403 323.33 38.914C320.922 44.1418 315.431 45.7191 312.03 45.7564C311.882 47.4645 310.418 52.4361 309.704 54.7084C308.835 56.7892 306.312 61.6411 303.177 64.4021C300.042 67.1631 296.658 70.5915 294.887 76.8808C293.927 76.9328 294.111 75.1052 293.913 71.0453C293.716 66.9854 294.452 66.0651 294.845 66.1125C295.445 67.0818 296.618 66.588 297.165 66.3923C300.877 63.583 304.63 59.3323 302.104 56.1125C301.229 54.9979 297.498 54.8264 295.972 58.6243C291.232 54.7318 288.886 48.1858 287.919 41.8621C287.85 42.457 287.64 42.9517 287.189 43.4136C286.741 43.8725 286.176 44.1622 285.653 44.486C284.732 45.0567 283.707 45.4286 282.618 45.6414C275.65 47.0039 265.707 47.2202 264.43 45.9676Z" fill="#21242F"/>
<path d="M280.35 23.3588C273.626 23.363 261.239 30.2363 264.43 45.9676C265.707 47.2202 275.65 47.0039 282.618 45.6414M280.35 23.3588C285.35 18.166 295.257 20.4207 299.586 22.1971M280.35 23.3588C285.692 23.7824 287.589 25.3661 287.87 26.1049M287.87 26.1049C287.51 28.4335 287.258 31.6528 287.346 35.2179M287.87 26.1049C287.22 28.9747 287.232 32.1994 287.346 35.2179M297.165 66.3923C300.877 63.583 304.63 59.3323 302.104 56.1125C301.229 54.9979 297.498 54.8264 295.972 58.6243C291.197 54.7029 288.852 48.0885 287.897 41.7213M297.165 66.3923C295.679 69.1408 294.324 73.8265 294.887 76.8808M297.165 66.3923C296.618 66.588 295.445 67.0818 294.845 66.1125M294.887 76.8808C296.658 70.5915 300.042 67.1631 303.177 64.4021C306.312 61.6411 308.835 56.7892 309.704 54.7084C310.418 52.4361 311.882 47.4645 312.03 45.7564M294.887 76.8808C293.927 76.9328 294.111 75.1052 293.913 71.0453C293.716 66.9854 294.452 66.0651 294.845 66.1125M312.03 45.7564C313.113 43.0332 313.072 38.776 311.477 34.5044M312.03 45.7564C314.5 43.4284 315.541 40.6146 315.579 37.744M312.03 45.7564C315.431 45.7191 320.922 44.1418 323.33 38.914M324.254 35.9771C324.048 37.0646 323.732 38.0403 323.33 38.914M324.254 35.9771C321.804 38.748 317.39 37.1831 315.489 36.0543M324.254 35.9771C325.029 31.8841 324.404 27.1463 322.431 23.1794M299.586 22.1971C299.618 17.0403 303.455 15.3381 305.369 15.1316C308.387 14.4596 311.06 14.5571 313.38 15.2238M299.586 22.1971C304.63 24.3295 308.042 27.8208 310.128 31.5801M299.586 22.1971C302.393 20.9822 305.754 22.0283 308.67 24.3226M310.128 31.5801C308.079 30.6734 303.45 29.1196 301.328 30.1576M310.128 31.5801C310.663 32.5434 311.111 33.5243 311.477 34.5044M311.477 34.5044C310.237 33.9177 307.474 32.7911 306.345 32.9782M287.346 35.2179C287.525 39.974 288.689 41.8755 287.189 43.4136C286.741 43.8725 286.176 44.1622 285.653 44.486M287.346 35.2179C289.081 38.1537 293.783 44.2552 298.711 45.1749M287.346 35.2179C287.397 37.3037 287.566 39.5079 287.897 41.7213M287.897 41.7213C288.343 43.0299 289.851 45.7622 292.315 46.222M285.653 44.486C284.67 42.5857 282.36 39.7453 283.596 33.8228M285.653 44.486C284.732 45.0567 283.707 45.4286 282.618 45.6414M282.618 45.6414C281.801 44.1949 279.655 43.3396 280.23 41.7261M315.579 37.744C316.995 38.793 320.526 40.4957 323.33 38.914M315.579 37.744C315.587 37.1818 315.556 36.6176 315.489 36.0543M315.489 36.0543C315.226 33.8175 314.405 31.597 313.228 29.5946M313.228 29.5946C313.195 27.4512 314.989 23.1675 322.431 23.1794M313.228 29.5946C312.015 27.5327 310.423 25.702 308.67 24.3226M322.431 23.1794C320.583 19.4628 317.552 16.4228 313.38 15.2238M308.67 24.3226C307.712 21.8722 307.313 16.6218 313.38 15.2238M294.845 66.1125C294.752 65.9518 294.566 65.6304 294.566 65.6304C294.367 66.3538 293.582 67.8438 292.921 68.1228" stroke="#181A20" stroke-width="0.7" stroke-linecap="round" stroke-linejoin="round"/>
<ellipse rx="0.536247" ry="0.965245" transform="matrix(0.997613 0.0690582 -0.0690794 0.997611 267.788 52.7461)" fill="#21242F" stroke="#181A20" stroke-width="0.7" stroke-linecap="round" stroke-linejoin="round"/>
<ellipse rx="0.615966" ry="1.10874" transform="matrix(0.997613 0.0690582 -0.0690794 0.997611 279.869 53.6799)" fill="#21242F" stroke="#181A20" stroke-width="0.7" stroke-linecap="round" stroke-linejoin="round"/>
<path opacity="0.3" d="M279.659 60.5709C277.341 56.331 279.542 51.7687 280.931 50.0176L278.921 49.7751L276.667 50.4243L275.135 51.8513L274.998 52.986L275.044 55.9849L276.138 58.1891L277.703 59.8745L279.659 60.5709Z" fill="white"/>
<path opacity="0.07" d="M266.716 58.7869C265.232 55.1426 266.84 51.1123 267.83 49.5527L266.463 49.3878L264.862 49.1948L263.687 50.6145L263.71 52.2794L263.672 54.8939L264.368 56.7911L265.397 58.2248L266.716 58.7869Z" fill="white"/>
<path d="M271.585 52.6215C272.232 52.2872 273.729 51.8906 274.544 52.9783M271.585 52.6215C270.91 51.4452 268.978 49.0896 266.66 49.0777C264.343 49.0659 263.587 49.5993 263.463 50.6298C263.083 53.7766 264.219 59.1537 267.855 58.5902C271.145 58.0805 271.57 53.9785 271.585 52.6215ZM274.544 52.9783C275.251 51.6395 277.447 49.1234 280.571 49.77C283.695 50.4166 285.048 52.3713 285.334 53.2677C284.915 55.9906 283.146 60.9022 279.549 60.5583C275.052 60.1284 274.277 55.1948 274.544 52.9783Z" stroke="#21242F" stroke-width="0.7"/>
<g opacity="0.2">
<path d="M274.544 52.9783C273.729 51.8906 272.232 52.2872 271.585 52.6215C271.57 53.9785 271.145 58.0805 267.855 58.5902C264.219 59.1537 263.083 53.7766 263.463 50.6298C263.587 49.5993 264.343 49.0659 266.66 49.0777C268.978 49.0896 270.91 51.4452 271.585 52.6215C272.232 52.2872 273.729 51.8906 274.544 52.9783C275.251 51.6395 277.447 49.1234 280.571 49.77C283.695 50.4166 285.459 52.4602 285.334 53.2677C284.915 55.9906 283.146 60.9022 279.549 60.5583C275.052 60.1284 274.277 55.1948 274.544 52.9783Z" fill="white"/>
<path d="M271.585 52.6215C272.232 52.2872 273.729 51.8906 274.544 52.9783M271.585 52.6215C270.91 51.4452 268.978 49.0896 266.66 49.0777C264.343 49.0659 263.587 49.5993 263.463 50.6298C263.083 53.7766 264.219 59.1537 267.855 58.5902C271.145 58.0805 271.57 53.9785 271.585 52.6215ZM274.544 52.9783C275.251 51.6395 277.447 49.1234 280.571 49.77C283.695 50.4166 285.459 52.4602 285.334 53.2677C284.915 55.9906 283.146 60.9022 279.549 60.5583C275.052 60.1284 274.277 55.1948 274.544 52.9783Z" stroke="#21242F" stroke-width="0.7"/>
</g>
<path d="M106.623 364.164L105.097 374.848L104.334 380.191C108.149 381.463 116.543 383.244 119.595 380.191C121.375 375.612 125.089 366.148 125.699 364.927C126.309 363.706 113.236 363.909 106.623 364.164Z" fill="#13151B" stroke="#181A20" stroke-width="0.7"/>
<path d="M122.647 389.919V393.736L114.971 396.227L111.806 395.262C109.878 397.127 107.405 399.029 104.849 399.873C99.3279 401.696 85.5252 405.037 77.3276 403.024C73.5374 402.093 73.0791 401.328 74.6877 399.873C76.4235 398.302 80.5658 395.927 85.5252 391.669C88.2778 389.306 91.0331 387.715 92.8884 386.104C94.5179 384.689 95.3216 384.212 96.7032 382.554C98.9926 380.762 103.794 377.15 104.849 377.709C108.05 379.406 115.903 379.972 121.299 377.081C120.866 376.748 120.3 375.981 121.5 375.581C122.7 375.181 122.764 375.858 122.647 376.246V389.919Z" fill="#21242F"/>
<path d="M122.647 389.919V393.736L114.971 396.227M122.647 389.919V376.246M122.647 389.919L114.971 391.669M114.971 396.227V391.669M114.971 396.227L111.806 395.262M114.971 391.669C114.325 392.565 113.21 393.904 111.806 395.262M114.971 391.669L111.201 392.209C107.206 396.301 94.3111 403.561 74.6877 399.873M122.647 376.246C122.764 375.858 122.7 375.181 121.5 375.581C120.3 375.981 120.866 376.748 121.299 377.081M122.647 376.246C122.219 376.552 121.768 376.83 121.299 377.081M96.7032 382.554C98.9926 380.762 103.794 377.15 104.849 377.709C108.05 379.406 115.903 379.972 121.299 377.081M96.7032 382.554C98.7456 385.128 101.904 385.835 104.849 384.377M96.7032 382.554C95.3216 384.212 94.5179 384.689 92.8884 386.104M92.8884 386.104C91.0331 387.715 88.2778 389.306 85.5252 391.669C80.5658 395.927 76.4235 398.302 74.6877 399.873M92.8884 386.104C94.1153 386.932 94.4144 389.919 100.519 389.157M111.806 395.262C109.878 397.127 107.405 399.029 104.849 399.873C99.3279 401.696 85.5252 405.037 77.3276 403.024C73.5374 402.093 73.0791 401.328 74.6877 399.873" stroke="#181A20" stroke-width="0.7"/>
<path d="M207.364 364.164L208.89 374.848L209.653 380.191C205.838 381.463 197.444 383.244 194.392 380.191C192.612 375.612 188.898 366.148 188.288 364.927C187.677 363.706 200.751 363.909 207.364 364.164Z" fill="#13151B" stroke="#181A20" stroke-width="0.7"/>
<path d="M191.34 389.92V393.737L199.016 396.227L202.181 395.263C204.109 397.128 206.582 399.03 209.138 399.874C214.659 401.697 228.462 405.038 236.659 403.024C240.449 402.093 240.908 401.329 239.299 399.874C237.563 398.303 233.421 395.928 228.462 391.67C225.709 389.307 222.954 387.716 221.098 386.105C219.469 384.69 218.665 384.213 217.284 382.555C214.994 380.762 210.193 377.15 209.138 377.71C206.056 379.343 198.661 379.929 193.3 377.39L192.5 375.582C191.7 375.582 191.393 376.025 191.34 376.247V389.92Z" fill="#21242F"/>
<path d="M191.34 389.92V393.737L199.016 396.227M191.34 389.92V376.247M191.34 389.92L199.016 391.67M199.016 396.227V391.67M199.016 396.227L202.181 395.263M199.016 391.67C199.662 392.566 200.777 393.905 202.181 395.263M199.016 391.67L202.786 392.21C206.78 396.301 219.676 403.562 239.299 399.874M191.34 376.247C191.393 376.025 191.7 375.582 192.5 375.582L193.3 377.39M191.34 376.247C191.95 376.683 192.608 377.063 193.3 377.39M217.284 382.555C214.994 380.762 210.193 377.15 209.138 377.71C206.056 379.343 198.661 379.929 193.3 377.39M217.284 382.555C215.241 385.129 212.082 385.836 209.138 384.378M217.284 382.555C218.665 384.213 219.469 384.69 221.098 386.105M221.098 386.105C222.954 387.716 225.709 389.307 228.462 391.67C233.421 395.928 237.563 398.303 239.299 399.874M221.098 386.105C219.872 386.933 219.572 389.92 213.468 389.157M202.181 395.263C204.109 397.128 206.582 399.03 209.138 399.874C214.659 401.697 228.462 405.038 236.659 403.024C240.449 402.093 240.908 401.329 239.299 399.874" stroke="#181A20" stroke-width="0.7"/>
<path d="M174.497 50.0841C171.991 56.7371 172.083 67.8503 172.442 72.5752C174.318 75.5614 176.689 82.8567 171.16 88.148C164.248 94.762 139.631 92.3405 138.413 85.6538C137.439 80.3045 142.014 76.4258 143.736 74.5L146.636 71C147.767 69.7876 146.515 66.2019 146.636 64.6685C144.304 63.8065 144.967 62.4157 143.736 60.2148C142.814 58.5684 142.232 57.0648 141.951 55.0177C141.454 51.4116 140.463 47.735 140.46 44.212C140.523 43.2322 140.666 42.4304 140.817 41.704L141.306 38.2707C141.255 36.1002 140.483 32.9013 140.483 32.9013C141.046 19.8147 143.989 14.7136 145.391 13.7989C168.935 -1.56814 176.529 21.9998 177.802 35.4105C179.246 34.9833 181.161 36.6934 181.486 37.7676C182.756 45.7937 177.134 50.0643 174.497 50.0841Z" fill="#F1CACB"/>
<path d="M168.537 52.7447C166.893 55.1978 167.372 57.552 165.57 59.3927C160.757 64.3068 152.395 65.5965 147.714 64.9296C147.3 64.8707 146.944 64.7824 146.636 64.6685M174.497 50.0841C171.991 56.7371 172.083 67.8503 172.442 72.5752C174.318 75.5614 176.689 82.8567 171.16 88.148C164.248 94.762 139.631 92.3405 138.413 85.6538C137.439 80.3045 142.014 76.4258 143.736 74.5L146.636 71C147.767 69.7876 146.515 66.2019 146.636 64.6685M174.497 50.0841L173.712 50.0125M174.497 50.0841C177.134 50.0643 182.756 45.7937 181.486 37.7676C181.161 36.6934 179.246 34.9833 177.802 35.4105M174.005 39.2121C175.773 36.4307 176.724 35.7297 177.802 35.4105M177.802 35.4105C176.529 21.9998 168.935 -1.56814 145.391 13.7989C143.989 14.7136 141.046 19.8147 140.483 32.9013C140.483 32.9013 141.255 36.1002 141.306 38.2707M141.306 38.2707C141.353 40.2711 140.628 41.6182 140.46 44.212M141.306 38.2707L140.46 44.212M140.46 44.212C140.463 47.735 141.454 51.4116 141.951 55.0177C142.232 57.0648 142.814 58.5684 143.736 60.2148C144.967 62.4157 144.304 63.8065 146.636 64.6685" stroke="#181A20" stroke-width="0.7" stroke-linecap="round" stroke-linejoin="round"/>
<path d="M148.108 61.0479C148.928 60.6999 149.673 61.1887 150.025 62.0861" stroke="#181A20" stroke-width="0.7" stroke-linecap="round" stroke-linejoin="round"/>
<path d="M154.547 55.1551C152.851 56.4285 152.426 55.863 150.941 55.6514C149.456 55.4398 148.891 55.8643 147.901 55.7233" stroke="#181A20" stroke-width="0.7" stroke-linecap="round" stroke-linejoin="round"/>
<path d="M176.388 40.0204C177.89 37.9469 181.861 39.7194 176.795 45.6362" stroke="#181A20" stroke-width="0.7" stroke-linecap="round" stroke-linejoin="round"/>
<path d="M150.57 40.601C150.854 42.1568 150.44 44.5462 148.585 46.1961C147.074 47.5403 147.267 49.4515 148.823 49.6879M150.306 48.8618C150.914 48.4056 150.914 48.4056 151.37 49.0133" stroke="#181A20" stroke-width="0.7" stroke-linecap="round" stroke-linejoin="round"/>
<path d="M164.044 25.7673C147.18 27.02 142.84 25.4118 142.779 24.4511C141.768 25.8481 140.584 29.2858 140.517 33.1385C140.215 29.877 138.79 22.6168 139.658 21.2921C135.063 16.8604 136.125 11.8044 139.711 9.48819C142.894 6.58391 153.35 1.36331 161.556 4.70354C163.787 5.02151 170.529 6.95421 171.439 8.82068L169.42 8.53307C171.649 8.9864 174.382 9.78278 175.3 10.9991L180.531 16.2599L176.093 14.7157C178.383 15.5827 182.277 19.2412 181.067 27.7349C180.688 30.3947 180.67 35.3628 177.802 35.4112C174.935 35.4596 173.43 40.8356 172.942 42.8603L171.095 40.5121C171.387 38.4596 171.171 34.1261 167.964 33.2123C164.757 32.2985 163.646 28.5662 164.044 25.7673Z" fill="#21242F"/>
<path d="M142.779 24.4511C142.84 25.4118 147.18 27.02 164.044 25.7673M142.779 24.4511C141.768 25.8481 140.584 29.2858 140.517 33.1385C140.215 29.877 138.79 22.6168 139.658 21.2921M142.779 24.4511C141.621 23.6059 140.463 22.0693 139.658 21.2921M164.044 25.7673C163.646 28.5662 164.757 32.2985 167.964 33.2123C171.171 34.1261 171.387 38.4596 171.095 40.5121L172.942 42.8603C173.43 40.8356 174.935 35.4596 177.802 35.4112C180.67 35.3628 180.688 30.3947 181.067 27.7349C182.315 18.9684 178.128 15.3527 175.878 14.6407L180.531 16.2599L175.3 10.9991C173.464 8.56651 164.369 7.81354 166.558 8.12531C168.308 8.37473 170.541 8.69281 171.439 8.82068C170.529 6.95421 163.787 5.02151 161.556 4.70354C153.35 1.36331 142.894 6.58391 139.711 9.48819M164.044 25.7673C164.826 25.7782 166.88 22.6145 166.476 19.6853C165.943 15.81 162.788 11.3183 157.129 12.9259M139.658 21.2921C135.063 16.8604 136.125 11.8044 139.711 9.48819M139.711 9.48819C139.307 9.76769 140.187 13.7693 144.143 14.8757" stroke="#181A20" stroke-width="0.7" stroke-linecap="round" stroke-linejoin="round"/>
<path d="M156.141 37.9527C155.226 38.431 155.472 39.918 156.603 40.148C159.253 40.2066 157.82 37.9049 156.836 37.9206C156.57 37.9248 156.338 37.9367 156.141 37.9527Z" fill="#21242F"/>
<path d="M156.603 40.148C158.629 40.3506 160.64 39.3524 161.14 39.0153C160.209 38.6499 158.09 37.919 157.056 37.9189C156.98 37.9189 156.907 37.9194 156.836 37.9206M156.603 40.148C155.472 39.918 155.226 38.431 156.141 37.9527M156.603 40.148C159.253 40.2066 157.82 37.9049 156.836 37.9206M154.73 38.7615C154.441 38.4917 154.989 38.1996 155.299 38.0872C155.4 38.0507 155.676 37.9903 156.141 37.9527M156.141 37.9527C156.338 37.9367 156.57 37.9248 156.836 37.9206" stroke="black" stroke-width="0.7" stroke-linecap="round" stroke-linejoin="round"/>
<path d="M144.543 39.8535C144.297 39.8299 144.07 39.7866 143.861 39.7286C143.172 38.4565 144.165 37.8139 144.748 37.6516C145.99 37.9246 146.559 39.9592 144.543 39.8535Z" fill="#21242F"/>
<path d="M144.748 37.6516C143.72 37.5486 142.551 37.9177 141.588 38.1817C141.955 38.4838 142.588 39.3766 143.861 39.7286M144.748 37.6516C144.823 37.6592 144.896 37.6671 144.966 37.6752C145.459 37.707 146.535 37.8737 146.892 38.2862M144.748 37.6516C144.165 37.8139 143.172 38.4565 143.861 39.7286M144.748 37.6516C145.99 37.9246 146.559 39.9592 144.543 39.8535M144.963 39.8737C144.817 39.8734 144.677 39.8664 144.543 39.8535M143.861 39.7286C144.07 39.7866 144.297 39.8299 144.543 39.8535M143.856 39.7532C144.112 39.8108 144.34 39.8429 144.543 39.8535" stroke="black" stroke-width="0.7" stroke-linecap="round" stroke-linejoin="round"/>
<g opacity="0.2">
<path d="M140.186 41.4141L139.736 35.9401C142.265 34.1861 146.107 35.6364 147.666 36.0652C149.226 36.494 149.487 38.0646 149.134 39.6339C148.851 40.8894 148.695 43.8501 146.59 44.2025C145.385 44.4081 144.758 44.4497 142.83 44.143C140.901 43.8364 140.176 42.1046 140.186 41.4141Z" fill="white"/>
<path d="M139.736 35.9401L140.186 41.4141C140.176 42.1046 140.901 43.8364 142.83 44.143C144.758 44.4497 145.385 44.4081 146.59 44.2025C148.695 43.8501 148.851 40.8894 149.134 39.6339C149.487 38.0646 149.226 36.494 147.666 36.0652C146.107 35.6364 142.265 34.1861 139.736 35.9401Z" fill="white"/>
<path d="M162.498 36.6441L162.777 42.0094C162.815 42.6988 162.412 44.1733 160.497 44.5557C158.583 44.938 155.289 44.1573 154.078 43.9994C152.016 42.8971 151.649 39.9936 151.723 38.6796C151.691 37.5788 152.098 36.6233 153.236 36.2616C154.777 35.7717 159.903 34.9911 162.498 36.6441Z" fill="white"/>
<path d="M151.723 38.6796C151.691 37.5788 152.098 36.6233 153.236 36.2616C154.777 35.7717 159.903 34.9911 162.498 36.6441L162.777 42.0094C162.815 42.6988 162.412 44.1733 160.497 44.5557C158.583 44.938 155.289 44.1573 154.078 43.9994C152.016 42.8971 151.649 39.9936 151.723 38.6796ZM151.723 38.6796C151.254 38.3715 150.113 37.9285 149.301 38.621M139.736 35.9401L140.186 41.4141C140.176 42.1046 140.901 43.8364 142.83 44.143C144.758 44.4497 145.385 44.4081 146.59 44.2025C148.695 43.8501 148.851 40.8894 149.134 39.6339C149.487 38.0646 149.226 36.494 147.666 36.0652C146.107 35.6364 142.265 34.1861 139.736 35.9401Z" stroke="#21242F" stroke-width="0.7"/>
</g>
<path opacity="0.15" d="M143.349 44.0282C141.572 40.6822 143.104 36.9238 144.091 35.4629L142.612 35.3347L140.88 35.1846L139.686 36.5194L139.792 38.0597L139.88 40.4799L140.723 42.2232L141.901 43.5316L143.349 44.0282Z" fill="white"/>
<path opacity="0.15" d="M156.287 44.0692C154.51 40.7232 156.042 36.9648 157.03 35.5039L155.504 35.911L153.726 36.2963L152.027 37.2278L151.841 39.3691L152.726 41.5916L153.568 43.3348L154.808 43.941L156.287 44.0692Z" fill="white"/>
<path d="M151.798 38.4901C151.766 37.3894 152.173 36.4338 153.31 36.0722C154.852 35.5822 159.978 34.8016 162.573 36.4547L162.852 41.8199C162.89 42.5094 162.487 43.9839 160.572 44.3662C158.657 44.7486 155.364 43.9679 154.152 43.8099C152.091 42.7076 151.724 39.8041 151.798 38.4901ZM151.798 38.4901C151.329 38.182 150.188 37.739 149.376 38.4315M139.811 35.7507L140.261 41.2247C140.25 41.9151 140.976 43.6469 142.905 43.9536C144.833 44.2602 145.46 44.2187 146.665 44.0131C148.77 43.6607 148.926 40.6999 149.209 39.4445C149.562 37.8752 149.301 36.3046 147.741 35.8757C146.182 35.4469 142.34 33.9967 139.811 35.7507Z" stroke="#181A20" stroke-width="0.7"/>
<path d="M141.634 77.7738L138.905 80.1774C137.692 81.9801 135.266 85.8259 135.266 86.7874C135.266 87.7488 133.244 98.8055 132.234 104.214L134.053 143.273L133.447 167.309C130.616 176.923 124.956 204.383 124.956 204.863C134.174 211.594 168.823 210.872 184.995 209.671L167.408 198.556L168.317 167.309L169.429 143.273L183.327 81.4588L177.768 74.2305M149.972 167.309C149.972 171.348 149.744 180.503 149.387 188.216" stroke="#181A20" stroke-width="0.7"/>
<path d="M135.696 145.533C132.096 133.13 132.863 100.69 133.696 86.0204L141.196 83.0197L143.696 82.0195C145.059 83.1784 146.51 84.0247 148 84.6172C152.031 86.2196 156.355 85.9656 160.043 85.0202C162.994 84.2637 165.537 83.0645 167.196 82.0195L169.504 84.02L174.696 88.5209C175.03 95.189 175.496 111.026 174.696 121.028C173.896 131.03 158.03 159.869 150.196 173.039C146.863 169.038 139.296 157.935 135.696 145.533Z" fill="white"/>
<path d="M141.196 83.0197L143.696 82.0195C145.059 83.1784 146.51 84.0247 148 84.6172M141.196 83.0197L133.696 86.0204C132.863 100.69 132.096 133.13 135.696 145.533C139.296 157.935 146.863 169.038 150.196 173.039C158.03 159.869 173.896 131.03 174.696 121.028C175.496 111.026 175.03 95.189 174.696 88.5209L169.504 84.02M141.196 83.0197C143.735 87.354 152.95 93.622 169.504 84.02M169.504 84.02L167.196 82.0195C165.537 83.0645 162.994 84.2637 160.043 85.0202M148 84.6172C147.667 84.9182 147 85.6203 147 86.0204M148 84.6172C152.031 86.2196 156.355 85.9656 160.043 85.0202M160.043 85.0202C160.362 85.1869 161.1 85.9203 161.5 87.5207M145.5 87.0206C144.833 88.1875 143.4 90.9214 143 92.5217" stroke="#181A20" stroke-width="0.7" stroke-linecap="round" stroke-linejoin="round"/>
<path fill-rule="evenodd" clip-rule="evenodd" d="M160.209 112.104C159.82 110.966 159.203 109.864 158.349 108.826C155.815 105.75 151.663 104.441 147.455 105.207C145.273 105.604 143.077 106.56 141.084 108.116C140.107 108.878 139.213 109.739 138.414 110.687C136.451 113.023 135.222 115.748 135 118.409V109.571C135 107.048 136.343 104.716 138.525 103.449L145.091 99.6388L145.846 99.2012L145.853 99.1969L147.948 97.9797C150.144 96.7047 152.855 96.7047 155.052 97.9797L156.47 98.8032L157.24 99.2498C158.088 99.7967 158.843 100.476 159.476 101.261L159.489 101.277C162.157 104.582 162.273 108.545 160.209 112.104Z" fill="url(#paint0_linear)" stroke="#B4D57C" stroke-width="0.5"/>
<path fill-rule="evenodd" clip-rule="evenodd" d="M167.978 112.055V120.603C167.978 123.126 166.635 125.458 164.453 126.725L158.344 130.271L157.159 130.959L155.028 132.194C152.832 133.469 150.12 133.469 147.924 132.194L146.289 131.245L146.279 131.24L145.861 130.997C145.859 130.996 145.857 130.995 145.855 130.993C144.978 130.453 144.193 129.778 143.527 128.992C143.476 128.932 143.426 128.871 143.377 128.81C140.916 125.757 140.943 121.678 142.753 118.101C143.125 119.293 143.747 120.392 144.577 121.325C147.356 124.475 151.627 125.588 155.928 124.576C157.942 124.1 159.963 123.162 161.84 121.747C162.872 120.977 163.825 120.107 164.687 119.151C166.656 116.94 167.79 114.505 167.978 112.055Z" fill="url(#paint1_linear)" stroke="#B4D57C" stroke-width="0.5"/>
<path fill-rule="evenodd" clip-rule="evenodd" d="M168 109.57V112.025C167.812 114.474 166.677 116.909 164.709 119.116C163.848 120.074 162.895 120.944 161.863 121.714C159.986 123.13 157.965 124.07 155.951 124.544C151.65 125.556 147.379 124.443 144.603 121.293C143.773 120.36 143.151 119.26 142.778 118.068L142.786 118.054C146.576 120.29 151.781 119.846 156.122 116.575C157.904 115.233 159.277 113.711 160.207 112.108L160.211 112.11C160.211 112.108 160.211 112.106 160.211 112.104C162.275 108.545 162.16 104.582 159.492 101.273L159.479 101.257C158.846 100.472 158.091 99.793 157.243 99.2461L162.239 102.146L163.539 102.901L164.478 103.446C166.659 104.713 168.001 107.046 168 109.57Z" fill="url(#paint2_linear)" stroke="#B4D57C" stroke-width="0.5"/>
<path fill-rule="evenodd" clip-rule="evenodd" d="M160.21 112.126C160.21 112.128 160.21 112.129 160.21 112.13C156.432 109.739 151.062 109.919 146.8 113.249C145.07 114.601 143.703 116.275 142.789 118.077L142.774 118.068C142.777 118.076 142.779 118.083 142.781 118.091C140.971 121.668 140.944 125.747 143.405 128.8C143.454 128.861 143.504 128.922 143.555 128.983C144.221 129.768 145.007 130.443 145.884 130.984L140.461 127.838L139.283 127.156L138.525 126.715C136.343 125.449 135 123.117 135 120.594V118.432C135.222 115.77 136.451 113.046 138.414 110.71C139.213 109.762 140.107 108.9 141.084 108.138C143.077 106.582 145.273 105.627 147.455 105.23C151.662 104.464 155.815 105.772 158.349 108.848C159.205 109.886 159.821 110.991 160.21 112.126Z" fill="url(#paint3_linear)" stroke="#B4D57C" stroke-width="0.5"/>
<path d="M171 80.5188C169.942 82.0955 168.78 87.9452 169.5 91.021C166.416 90.8909 163.113 86.8262 162.377 85.4541C162.285 87.6594 162.753 92.2803 164.922 96.4567C165.016 96.6367 165.112 96.8159 165.212 96.994C165.179 96.9518 165.149 96.9102 165.122 96.8694C168.08 103.456 166.011 127.157 157 139.531C162.141 138.866 175.065 125.032 192.084 111.876C209.103 98.7204 197.232 88.6191 189.169 85.213C183.615 83.8821 180.225 77.5621 178.5 74.9855C176.353 72.4564 173.923 70.0934 173.592 67.5819C173.593 67.6384 173.593 67.6954 173.592 67.7528C173.588 68.6635 173.518 69.6895 173.35 70.7995C173.155 72.0965 172.826 73.5084 172.313 74.9855C171.78 76.5231 171.989 78.8956 171 80.5188Z" fill="#3E4253"/>
<path d="M142.62 84.6211C143.532 83.7099 143.884 82.6012 144.281 81.2055C143.166 79.2385 142.783 77.5204 142.809 76.0933C142.772 76.2979 142.733 76.4992 142.691 76.6974C141.809 80.9037 139.849 83.725 136.81 87.0236C139.949 86.3818 141.621 85.6202 142.62 84.6211Z" fill="#3E4253"/>
<path d="M144.281 81.2055C143.884 82.6012 143.532 83.7099 142.62 84.6211C141.621 85.6202 139.949 86.3818 136.81 87.0236C139.849 83.725 141.809 80.9037 142.691 76.6974C141.972 77.5835 139.847 79.4959 137.103 80.057C134.359 80.618 126.682 85.2572 123.187 87.5067C117.23 91.0221 113.192 100.82 128.469 116.527C131.347 119.485 134.91 122.653 139.274 126.029C138.433 122.405 138.459 116.927 138.397 111.876C138.271 101.443 136.804 97.4703 138.397 95.1257C138.717 94.6554 139.017 94.3194 139.274 94.1065C140.844 90.472 144.044 82.8035 144.281 81.2055Z" fill="#3E4253"/>
<path d="M192.084 111.876C175.065 125.032 162.141 138.866 157 139.531C154.575 144.097 150.293 154.404 149.863 163.551C150.007 165.127 150.061 166.637 150 168.037C149.827 166.597 149.791 165.09 149.863 163.551C149.062 154.773 145.478 143.978 143.5 139.031C142.432 137.43 140.519 131.393 139.274 126.029C134.91 122.653 131.347 119.485 128.469 116.527C128.979 123.361 129.9 137.231 129.5 138.031C129.1 138.831 130.333 160.036 131 170.538L127.5 206.045L137.103 213.047L188 213.047L192.084 111.876Z" fill="#3E4253"/>
<path d="M169.5 91.021C168.78 87.9452 169.942 82.0955 171 80.5188C171.989 78.8956 171.78 76.5231 172.313 74.9855C172.826 73.5084 173.155 72.0965 173.35 70.7995C173.518 69.6895 173.588 68.6635 173.592 67.7528C173.559 68.1675 173.304 68.7764 172.89 69.5165C170.378 74.0035 162.022 83.3144 161.828 83.4258C161.83 83.9703 161.979 84.712 162.377 85.4541C163.113 86.8262 166.416 90.8909 169.5 91.021Z" fill="#3E4253"/>
<path d="M173.592 67.7528C173.593 67.6954 173.593 67.6384 173.592 67.5819C173.562 67.2265 173.913 66.116 172.313 66.5161L172.89 69.5165C173.304 68.7764 173.559 68.1675 173.592 67.7528Z" fill="#3E4253"/>
<path d="M144.281 81.2055C143.884 82.6012 143.532 83.7099 142.62 84.6211C141.621 85.6202 139.949 86.3818 136.81 87.0236C139.849 83.725 141.809 80.9037 142.691 76.6974M144.281 81.2055C143.166 79.2385 142.783 77.5204 142.809 76.0933M144.281 81.2055C144.044 82.8035 140.844 90.472 139.274 94.1065M139.274 94.1065C138.967 94.4704 138.675 94.8096 138.397 95.1257M139.274 94.1065C139.017 94.3194 138.717 94.6554 138.397 95.1257M162.377 85.4541C161.979 84.712 161.83 83.9703 161.828 83.4258C162.022 83.3144 170.378 74.0035 172.89 69.5165M162.377 85.4541C163.113 86.8262 166.416 90.8909 169.5 91.021C168.78 87.9452 169.942 82.0955 171 80.5188C171.989 78.8956 171.78 76.5231 172.313 74.9855M162.377 85.4541C162.285 87.6594 162.753 92.2803 164.922 96.4567M171 104.024C170.92 104.232 171.516 104.687 167.295 99.9405C166.48 99.0235 165.791 98.0265 165.212 96.994M164.922 96.4567C164.954 96.5752 165.019 96.7167 165.122 96.8694M164.922 96.4567C164.992 96.5906 165.058 96.7282 165.122 96.8694M164.922 96.4567C165.016 96.6367 165.112 96.8159 165.212 96.994M157 139.531C162.141 138.866 175.065 125.032 192.084 111.876M157 139.531C166.011 127.157 168.08 103.456 165.122 96.8694M157 139.531C154.575 144.097 150.293 154.404 149.863 163.551M169.267 98.5433C166.927 98.4446 165.725 97.6493 165.212 96.994M183.451 79.6848C180.628 79.0339 180.003 76.7564 178.5 74.9855M178.5 74.9855C180.225 77.5621 183.615 83.8821 189.169 85.213C197.232 88.6191 209.103 98.7204 192.084 111.876M178.5 74.9855C176.353 72.4564 173.923 70.0934 173.592 67.5819M172.313 74.9855C172.826 73.5084 173.155 72.0965 173.35 70.7995C173.518 69.6895 173.588 68.6635 173.592 67.7528M172.313 74.9855C171.826 76.8343 171.428 81.0843 173.735 83.2933M142.691 76.6974C141.972 77.5835 139.847 79.4959 137.103 80.057C134.359 80.618 126.682 85.2572 123.187 87.5067C117.23 91.0221 113.192 100.82 128.469 116.527M142.691 76.6974C142.733 76.4992 142.772 76.2979 142.809 76.0933M192.084 111.876L188 213.047L137.103 213.047L127.5 206.045L131 170.538C130.333 160.036 129.1 138.831 129.5 138.031C129.9 137.231 128.979 123.361 128.469 116.527M139.274 126.029C138.433 122.405 138.459 116.927 138.397 111.876C138.271 101.443 136.804 97.4703 138.397 95.1257M139.274 126.029C140.519 131.393 142.432 137.43 143.5 139.031C145.478 143.978 149.062 154.773 149.863 163.551M139.274 126.029C134.91 122.653 131.347 119.485 128.469 116.527M142.809 76.0933C142.907 75.5487 142.988 74.9809 143.052 74.3862C142.91 74.8968 142.82 75.467 142.809 76.0933ZM138.397 95.1257C137.432 95.7579 135.6 98.1225 136 102.523M165.122 96.8694C165.149 96.9102 165.179 96.9518 165.212 96.994M173.592 67.5819C173.597 67.6345 173.597 67.6915 173.592 67.7528M173.592 67.5819C173.593 67.6384 173.593 67.6954 173.592 67.7528M173.592 67.5819C173.562 67.2265 173.913 66.116 172.313 66.5161L172.89 69.5165M149.863 163.551C150.007 165.127 150.061 166.637 150 168.037C149.827 166.597 149.791 165.09 149.863 163.551ZM173.592 67.7528C173.559 68.1675 173.304 68.7764 172.89 69.5165" stroke="#181A20" stroke-width="0.7" stroke-linecap="round" stroke-linejoin="round"/>
<path d="M102.309 370.56C106.873 349.839 112.806 307.337 112.198 306.124C112.055 305.84 111.966 304.731 111.93 303.092C111.775 295.981 112.625 278.882 114.48 275.802C116.762 272.011 121.326 237.285 120.565 234.252C120.473 233.884 120.482 232.978 120.565 231.67C121.171 222.212 129.047 192.685 127.71 192.019C126.189 191.261 154.036 203.93 193.592 191.043C196.128 204.436 201.047 233.495 200.439 242.592C199.678 253.962 208.372 297.295 206.85 309.424C207.611 317.51 207.285 335.082 207.285 338.721C209.821 348.323 212.379 369.186 212.379 372.825C212.379 377.373 192.071 376.624 189.028 374.35C185.985 372.076 182.467 341.753 183.228 338.721C183.228 338.461 181.346 330.26 180.64 323.655C176.504 303.011 168.234 265.914 161.687 242.592C158.546 252.922 149.614 285.677 143.386 299.577C138.315 322.985 129.846 370.256 127.412 372.076C121.833 373.086 112.958 379.656 102.309 370.56Z" fill="#21242F"/>
<path d="M200.439 242.592C201.047 233.495 196.128 204.436 193.592 191.043C154.036 203.93 126.189 191.261 127.71 192.019C129.047 192.685 121.171 222.212 120.565 231.67M200.439 242.592C199.678 253.962 208.372 297.295 206.85 309.424C207.611 317.51 207.285 335.082 207.285 338.721M200.439 242.592C199.148 244.519 196.567 249.08 196.567 251.897M207.285 338.721C209.821 348.323 212.379 369.186 212.379 372.825C212.379 377.373 192.071 376.624 189.028 374.35C185.985 372.076 182.467 341.753 183.228 338.721M207.285 338.721C206.271 334.931 203.481 326.289 200.439 322.044M183.228 338.721C183.757 336.611 170.985 275.712 161.687 242.592M183.228 338.721C183.228 338.341 179.207 320.997 180.715 316.468M157.84 228.946C158.994 233.022 160.296 237.639 161.687 242.592M157.84 228.946C155.05 229.854 148.255 231.67 143.386 231.67M157.84 228.946C157.2 228.372 156.398 227.596 155.557 226.697M161.687 242.592C158.546 252.922 149.614 285.677 143.386 299.577M138.061 309.915C139.731 307.28 141.54 303.697 143.386 299.577M143.386 299.577C138.315 322.985 129.846 370.256 127.412 372.076C121.833 373.086 112.958 379.656 102.309 370.56C106.873 349.839 112.806 307.337 112.198 306.124C112.055 305.84 111.966 304.731 111.93 303.092M150.233 203.172C150.233 206.457 150.233 213.937 150.233 217.575C150.233 220.296 153.067 224.033 155.557 226.697M150.233 203.172C147.19 203.172 139.735 202.566 134.258 200.14M150.233 203.172C156.065 203.172 168.794 203.172 173.054 203.172M173.054 207.721C175.082 212.774 181.573 223.792 191.31 227.43M132.737 207.721C132.483 211.053 129.694 220.508 120.565 231.67M120.565 231.67C120.482 232.978 120.473 233.884 120.565 234.252C121.326 237.285 116.762 272.011 114.48 275.802C112.625 278.882 111.775 295.981 111.93 303.092M155.557 226.697C153.275 226.183 148.103 224.55 145.668 222.124M155.557 226.697C151.247 223.404 142.169 215.605 140.343 210.753M111.93 303.092C112.273 305.114 114.175 310.066 119.044 313.705M123.608 319.011C124.622 325.329 126.347 339.782 125.13 347.06M115.24 327.35C114.48 332.404 112.958 343.573 112.958 347.818" stroke="#181A20" stroke-width="0.7"/>
<path opacity="0.2" d="M184 244.555H197H197.5C197.833 246.555 198.4 251.256 198 254.057C197.6 256.857 199.5 267.226 200.5 272.06L207 303.067V312.569L207.5 338.074L209 346.076C205.667 340.908 199.4 328.172 201 318.57C203 306.568 195.5 297.566 195.5 282.063C195.5 269.66 187.833 251.89 184 244.555Z" fill="black"/>
<path opacity="0.1" d="M157.825 206.32C155.825 202.486 152.425 191.217 154.825 176.814C157.825 158.81 162.825 145.808 165.825 139.306C168.825 132.805 169.325 111.8 169.325 108.8C169.325 105.799 173.825 89.7958 176.825 86.295C179.236 83.4825 178.741 76.9423 177.935 73.7015C177.29 72.3547 176.779 71.1979 177.325 72.018C177.522 72.313 177.738 72.9084 177.935 73.7015C178.234 74.3257 178.562 74.9908 178.825 75.5188L181.325 79.7933L178.825 88.7951L176.325 98.7972L172.325 113.8L170.325 125.303L165.825 141.806L163.325 165.811L162.325 189.816V205.32L163.825 217.322L167.325 225.324L169.825 230.825C171.825 234.326 174.625 240.827 169.825 238.827C163.825 236.326 156.825 233.826 155.825 230.325C154.825 226.824 153.825 217.822 154.325 214.822C154.825 211.821 158.515 207.821 157.825 206.32Z" fill="black"/>
<path d="M115.627 241.722C115.544 241.016 115.512 240.219 115.691 239.136C116.543 227.557 124.103 200.869 125.161 197.669C126.369 194.009 129.909 171.05 129.405 169.9C129.398 169.889 129.391 169.878 129.385 169.867C126.423 153.411 117.481 113.701 119.694 86.5202C122.709 85.0934 127.524 82.3711 131.194 80.519C138.951 76.6049 142.184 76.3699 143 74.5177L142.421 78.4873C140.994 84.2495 131.767 96.8569 133.725 117.601C135.786 139.438 135.165 155.592 134.166 163.095C133.979 164.502 133.126 165.906 133.725 166.8C137.448 172.356 133.863 204.412 126.401 221.578L124.011 238.259C120.222 241.152 116.503 241.821 115.838 243.328C115.723 242.9 115.654 242.36 115.627 241.722Z" fill="#21242F"/>
<path d="M177.142 72.2798C175.758 70.6925 174.454 69.6748 174.231 69.2266C174.584 69.2266 175.607 69.8722 177.142 72.2798C177.699 72.919 178.269 73.6504 178.787 74.4743C180.133 75.5119 182.689 76.6745 185.854 77.8517C193.234 80.5963 204.297 82.5138 210.694 84.0197C208.119 84.3131 210.365 89.583 208.694 104.417C208.017 110.436 207.465 114.872 207.194 120.527C204.328 129.556 201.25 133.606 198.694 144.032C196.254 162.068 195.194 184.541 196.268 193.938C200.426 202.581 202.385 228.305 204.832 243.328C204.517 243.805 201.915 244.577 194.433 244.675C192.228 244.705 189.599 244.675 186.48 244.563C169.351 243.946 175.641 245.454 165.853 227.55C156.065 209.646 164.458 158.13 163.846 153.19C163.234 148.251 174.857 98.2435 179.751 85.8959C181.673 81.0476 180.526 77.2404 178.787 74.4743C178.37 74.1525 178.069 73.8427 177.902 73.5482C177.636 73.0791 177.383 72.6578 177.142 72.2798Z" fill="#21242F"/>
<path d="M115.838 243.328C115.635 241.064 114.59 239.5 118.505 231.598C119.395 229.802 124.743 225.392 126.401 221.578M115.838 243.328C114.003 236.537 123.937 201.373 125.161 197.669C126.384 193.964 129.996 170.485 129.385 169.867M115.838 243.328C116.503 241.821 120.222 241.152 124.011 238.259L126.401 221.578M131.194 80.519C138.951 76.6049 142.184 76.3699 143 74.5177L142.421 78.4873C140.994 84.2495 131.767 96.8569 133.725 117.601C135.786 139.438 135.165 155.592 134.166 163.095M131.194 80.519C127.524 82.3711 122.709 85.0934 119.694 86.5202M131.194 80.519L123.776 88.9828L128.67 92.6871L120.937 98.4212M129.385 169.867C126.423 153.411 117.481 113.701 119.694 86.5202M129.385 169.867C130.264 171.258 132.023 175.039 132.023 179.04M119.694 86.5202C119.912 89.1448 120.385 94.4724 120.937 98.4212M134.166 163.095C133.979 164.502 133.126 165.906 133.725 166.8C137.448 172.356 133.863 204.412 126.401 221.578M134.166 163.095C133.203 158.568 127.763 146.055 127.035 131.502C126.479 120.381 122.454 109.276 120.937 98.4212M163.846 153.19C163.234 148.251 174.857 98.2435 179.751 85.8959C183.666 76.0178 174.843 70.4613 174.231 69.2266C174.639 69.2266 175.944 70.0909 177.902 73.5482C178.606 74.7921 181.707 76.3093 185.854 77.8517M163.846 153.19C164.458 158.13 156.065 209.646 165.853 227.55C175.641 245.454 169.351 243.946 186.48 244.563C189.599 244.675 192.228 244.705 194.433 244.675M163.846 153.19C164.661 150.309 167.639 143.189 173.022 137.756C176.004 134.747 182.109 124.706 188.036 114.295M185.854 77.8517C193.234 80.5963 204.297 82.5138 210.694 84.0197C208.119 84.3131 210.365 89.583 208.694 104.417C208.017 110.436 207.465 114.872 207.194 120.527C204.328 129.556 201.25 133.606 198.694 144.032C196.254 162.068 195.194 184.541 196.268 193.938C200.426 202.581 202.385 228.305 204.832 243.328C204.517 243.805 201.915 244.577 194.433 244.675M185.854 77.8517L190.137 85.8959H194.419C194.139 86.742 197.841 96.7101 191.986 107.266M191.986 107.266L196.866 104.417L196.254 111.209L188.036 114.295M191.986 107.266C190.704 109.577 189.375 111.946 188.036 114.295M186.466 129.113C185.447 153.19 183.407 201.593 183.407 202.581M191.986 202.581C191.578 214.592 191.496 239.826 194.433 244.675M165.853 159.982H169.745V160.415H165.853V159.982ZM132.023 162.382V163.221C132.023 163.689 131.644 164.068 131.176 164.068V164.068C130.708 164.068 130.329 163.689 130.329 163.221V162.382C130.329 161.914 130.708 161.535 131.176 161.535V161.535C131.644 161.535 132.023 161.914 132.023 162.382Z" stroke="#181A20" stroke-width="0.7"/>
<path d="M144.5 81.0198C143.7 85.0206 137.167 88.1879 135 88.5214C136 87.5211 142 75.0185 142.5 74.0183C142.846 73.3268 145.582 71.4516 146.641 70.7401C146.757 70.6509 146.876 70.5706 147 70.5C146.932 70.5453 146.807 70.6283 146.641 70.7401C144.127 72.673 143.385 78.7889 144.5 81.0198Z" fill="#3E4253" stroke="#181A20" stroke-width="0.7"/>
<path d="M172.19 124.657C173.064 125.741 178.697 134.965 180.862 135.363C181.964 135.208 192.337 139.634 197.252 142.927C199.828 153.25 192.273 154.173 188.173 153.343L176.671 146.525L171.361 143.756C163.505 141.116 159.274 139.086 158.141 138.401C155.976 138.003 156.515 135.578 157.513 135.437C157.513 135.437 155.883 135.262 155.843 133.563C155.811 132.162 157.028 131.99 157.028 131.99C157.028 131.99 155.799 131.373 156.048 130.019C156.297 128.665 157.934 128.435 157.934 128.435C157.934 128.435 156.757 128.124 156.942 126.378C157.084 125.04 158.139 124.892 158.139 124.892C158.139 124.892 160.988 124.579 162.415 124.73C164.18 124.916 168.249 126.618 168.249 126.618C166.938 125.631 164.616 124.682 163.203 122.631C161.79 120.58 162.305 118.552 164.379 119.5L166.679 121.371C170.463 123.3 171.526 123.833 172.19 124.657Z" fill="#F1CACB"/>
<path d="M157.934 128.435L161.533 128.457M157.934 128.435C157.934 128.435 156.757 128.124 156.942 126.378C157.084 125.04 158.139 124.892 158.139 124.892C158.139 124.892 160.988 124.579 162.415 124.73C164.18 124.916 168.249 126.618 168.249 126.618C166.938 125.631 164.616 124.682 163.203 122.631C161.79 120.58 162.305 118.552 164.379 119.5L166.679 121.371C170.463 123.3 171.526 123.833 172.19 124.657C173.064 125.741 178.697 134.965 180.862 135.363C181.964 135.208 192.337 139.634 197.252 142.927C199.828 153.25 192.273 154.173 188.173 153.343L176.671 146.525L171.361 143.756C163.505 141.116 159.274 139.086 158.141 138.401C155.976 138.003 156.515 135.578 157.513 135.437M157.934 128.435C157.934 128.435 156.297 128.665 156.048 130.019C155.799 131.373 157.028 131.99 157.028 131.99M157.028 131.99L159.938 132.108M157.028 131.99C157.028 131.99 155.811 132.162 155.843 133.563C155.883 135.262 157.513 135.437 157.513 135.437M157.513 135.437L159.733 135.652" stroke="#181A20" stroke-width="0.7"/>
<path d="M127.526 110.162C126.731 111.323 121.785 121.057 119.636 121.629C118.513 121.559 108.415 126.835 103.725 130.539C101.944 141.14 109.626 141.473 113.69 140.314L124.737 132.54L129.866 129.333C137.571 126.054 141.672 123.676 142.76 122.897C144.909 122.325 144.175 119.925 143.159 119.862C143.159 119.862 144.786 119.557 144.692 117.843C144.615 116.429 143.375 116.352 143.375 116.352C143.375 116.352 144.565 115.633 144.207 114.289C143.849 112.946 142.183 112.843 142.183 112.843C142.183 112.843 143.344 112.437 143.02 110.693C142.771 109.356 141.697 109.29 141.697 109.29C141.697 109.29 138.803 109.2 137.377 109.464C135.614 109.791 131.65 111.826 131.65 111.826C132.892 110.728 135.157 109.589 136.418 107.412C137.68 105.235 137.002 103.233 134.987 104.351L132.818 106.417C129.159 108.659 128.13 109.279 127.526 110.162Z" fill="#F1CACB"/>
<path d="M142.183 112.843L138.559 113.148M142.183 112.843C142.183 112.843 143.344 112.437 143.02 110.693C142.771 109.356 141.697 109.29 141.697 109.29C141.697 109.29 138.803 109.2 137.377 109.464C135.614 109.791 131.65 111.826 131.65 111.826C132.892 110.728 135.157 109.589 136.418 107.412C137.68 105.235 137.002 103.233 134.987 104.351L132.818 106.417C129.159 108.659 128.13 109.279 127.526 110.162C126.731 111.323 121.785 121.057 119.636 121.629C118.513 121.559 108.415 126.835 103.725 130.539C101.944 141.14 109.626 141.473 113.69 140.314L124.737 132.54L129.866 129.333C137.571 126.054 141.672 123.676 142.76 122.897C144.909 122.325 144.175 119.925 143.159 119.862M142.183 112.843C142.183 112.843 143.849 112.946 144.207 114.289C144.565 115.633 143.375 116.352 143.375 116.352M143.375 116.352L140.454 116.701M143.375 116.352C143.375 116.352 144.615 116.429 144.692 117.843C144.786 119.557 143.159 119.862 143.159 119.862M143.159 119.862L140.939 120.254" stroke="#181A20" stroke-width="0.7"/>
<path d="M176.19 148.142L187.669 151.075C185.519 148.895 186.045 139.11 187.852 134.815L178.924 132.534C175.012 139.144 175.471 145.694 176.19 148.142Z" fill="#3E4253" stroke="#181A20" stroke-width="0.7"/>
<path d="M127.803 132.67L118.11 137.809C119.57 135.379 116.967 126.686 114.406 123.214L121.945 119.217C126.905 124.315 127.917 130.31 127.803 132.67Z" fill="#3E4253" stroke="#181A20" stroke-width="0.7"/>
<path d="M184.59 155.013C182.294 151.111 182.517 133.762 188.254 134.588C190.509 134.913 195.269 136.264 199.971 137.273C206.159 138.602 213.756 140.49 220.897 142.85C219.913 141.002 215.613 136.972 213.789 133.424C206.694 128.028 206.254 124.449 205.694 119.527C203.323 117.943 206.767 86.2169 210.235 83.7713C218.235 85.8222 219.668 88.5934 229.589 108.454C229.966 109.171 230.301 109.846 230.578 110.435C231.394 112.066 232.263 113.805 233.194 115.657C240.079 129.357 246.158 139.237 247.982 145.785C250.114 153.436 250.514 156.528 250.258 157.055C253.467 166.126 248.135 177.845 207.293 162.554C206.407 162.222 205.504 161.878 204.584 161.52C199.12 159.397 191.311 158.119 184.59 155.013Z" fill="#21242F"/>
<path d="M250.258 157.055C249.6 155.341 247.943 151.693 246.584 150.812M250.258 157.055C250.514 156.528 250.114 153.436 247.982 145.785M250.258 157.055C253.467 166.126 248.135 177.845 207.293 162.554M235.25 151.18C233.75 149.653 224.808 144.143 220.897 142.85M220.897 142.85L232.035 145.717M220.897 142.85C221.092 143.775 221.757 146.094 222.859 147.967M220.897 142.85C213.756 140.49 206.159 138.602 199.971 137.273C195.269 136.264 190.509 134.913 188.254 134.588C182.517 133.762 182.294 151.111 184.59 155.013C191.311 158.119 199.12 159.397 204.584 161.52M220.897 142.85C219.913 141.002 215.613 136.972 213.789 133.424M247.982 145.785C246.158 139.237 240.079 129.357 233.194 115.657C232.263 113.805 231.394 112.066 230.578 110.435M247.982 145.785C245.647 141.906 239.985 133.89 236.02 132.862M247.982 145.785C246.439 142.479 242.9 135.51 241.093 134.079M204.584 161.52C203.823 160.226 195.651 153.478 195.053 150.678M204.584 161.52C205.504 161.878 206.407 162.222 207.293 162.554M207.293 162.554C205.458 161.816 201.829 159.692 201.985 157.104M205.694 119.527C203.323 117.943 206.767 86.2169 210.235 83.7713C218.493 85.8885 219.754 88.7734 230.578 110.435M205.694 119.527C206.254 124.449 206.694 128.028 213.789 133.424M205.694 119.527C205.789 118.019 211.061 112.419 211.885 110.435C212.708 108.451 206.476 116.365 205.694 119.527ZM205.694 119.527C206.423 118.479 213.138 114.568 214.658 115.657M213.789 133.424C213.168 131.231 215.203 127.012 217.77 124.424M213.789 133.424C212.545 130.673 212.923 124.764 213.841 119.884M230.578 110.435C228.784 106.631 224.594 99.2224 222.194 100.023" stroke="#181A20" stroke-width="0.7"/>
<path d="M108.345 148.158C113.578 145.408 119.818 140.932 125.309 136.728C125.497 136.011 125.522 134.6 124.119 134.692L122.14 135.661C120.063 132.654 120.489 124.795 121.59 119.323C121.664 118.952 121.399 118.817 120.902 118.849C120.337 118.885 118.295 119.877 117.097 120.372L116.794 120.493L116.794 120.493C118.394 118.564 120.365 115.085 120.199 112.026C119.795 108.825 119.358 91.7765 119.694 86.5197C101.126 99.0665 84.0663 125.914 78.8563 145.793C82.3008 155.792 98.7186 155.039 105.749 149.502C106.599 149.069 107.464 148.621 108.345 148.158Z" fill="#21242F"/>
<path d="M119.694 86.5197C118.316 91.7881 115.694 99.0229 116.694 106.024M119.694 86.5197C101.126 99.0665 84.0663 125.914 78.8563 145.793C82.3008 155.792 98.7186 155.039 105.749 149.502M119.694 86.5197C119.358 91.7765 119.795 108.825 120.199 112.026C120.365 115.085 118.394 118.564 116.794 120.493M125.309 136.728C119.818 140.932 113.578 145.408 108.345 148.158M125.309 136.728C125.497 136.011 125.522 134.6 124.119 134.692L122.14 135.661M125.309 136.728C123.896 137.169 122.866 136.711 122.14 135.661M88.4365 136.673C88.9324 135.555 93.3148 132.742 97.087 130.477M108.345 148.158C108.958 146.775 116.369 139.084 116.643 136.212M108.345 148.158C107.464 148.621 106.599 149.069 105.749 149.502M105.749 149.502C107.503 148.554 110.896 146.013 110.438 143.439M112.187 122.338C112.554 120.071 110.716 115.983 107.839 113.684M112.187 122.338C112.628 119.615 112.741 113.471 111.252 108.689M112.187 122.338L120.902 118.849M122.14 135.661C120.063 132.654 120.489 124.795 121.59 119.323C121.664 118.952 121.399 118.817 120.902 118.849M97.087 130.477C100.068 128.688 102.667 127.24 102.667 127.24L109.918 123.497C109.918 123.497 113.345 121.816 116.794 120.493M97.087 130.477C94.6763 132.336 90.3593 136.761 92.3766 139.589M120.902 118.849C120.286 118.888 117.912 120.064 116.794 120.493" stroke="#181A20" stroke-width="0.7" stroke-linecap="round" stroke-linejoin="round"/>
<path opacity="0.1" d="M152.355 79.6407C151.634 85.5985 145.045 81.7787 144.053 81.6586C136.519 81.4867 142.592 72.9179 143.148 72.4815L145.931 70.2994C146.376 69.9503 147.058 67.9171 147.344 66.9442L144.668 64.0851L143.479 61.4224L141.1 56.1135L139.608 39.3092L139.877 28.7629C140.217 25.9495 141.74 20.854 141.379 20.513C133.95 13.3598 140.879 12.2314 141.543 10.8294C142.072 9.71122 152.329 8.0681 157.729 7.3383C157.85 7.32097 157.97 7.30494 158.088 7.29017C157.971 7.30573 157.851 7.32178 157.729 7.3383C153.64 7.9223 147.811 9.96799 154.765 13.9406C163.716 19.0537 150.405 24.9993 147.623 27.1814C145.397 28.9271 144.912 37.0964 144.948 40.9628C145.249 44.0218 145.581 50.7115 144.499 52.9986C143.416 55.2856 146.887 61.0118 148.757 63.589C149.625 63.3581 150.905 64.1512 149.089 69.1704C146.819 75.4445 153.076 73.6829 152.355 79.6407Z" fill="black"/>
<path opacity="0.2" d="M146.014 286.124C150.76 274.022 157.899 254.51 162 243.115L157 228.612C152.333 226.445 143.603 222.611 146.014 224.611C149.028 227.112 146.014 231.613 148.5 232.613C150.986 233.613 151.5 235.113 153.5 243.115C155.5 251.117 136 289.625 137.5 296.626C138.7 302.227 137 326.632 136 338.135L146.014 286.124Z" fill="black"/>
<path opacity="0.2" d="M81 400.587L80 403.087C80.6667 403.421 81 403.888 77 403.087C73 402.287 74 400.42 75 399.587L79.5 396.086L91 387.584L96 383.083L103 378.582C103.667 378.082 105 376.482 105 374.081C105 371.681 103 370.747 102 370.581L106.5 349.576L107 363.079L105 372.581L107 374.081V378.582C107.833 378.582 108.2 379.482 103 383.083C96.5 387.584 106 389.585 95.5 395.586C87.1 400.387 82.3334 400.92 81 400.587Z" fill="black"/>
<path opacity="0.21" d="M213 387.584C207.4 380.783 196.667 377.749 192 377.082L191.5 376.582V394.086L199 396.086L202 395.086L203 396.586C207.8 401.787 222.333 403.421 229 403.588C229.667 402.921 229.9 401.187 225.5 399.587C220 397.586 220 396.086 213 387.584Z" fill="black"/>
<path opacity="0.1" d="M107 117.527C111.8 110.726 117.667 110.359 120 111.026C118.5 110.359 114.9 108.926 112.5 108.526C109.5 108.025 107 103.024 108.5 108.025C110 113.026 103.5 115.027 100.5 111.526C98.1 108.726 103.167 101.691 106 98.5234C99.5 101.524 78 137.532 79 146.033C79.8 152.835 89.6667 153.868 94.5 153.535C98.6667 151.535 104.5 147.634 94.5 148.034C82 148.534 88 138.032 88 136.531C88 135.331 91.6667 133.031 93.5 132.03L97.5 124.029C98 123.029 101 126.029 107 117.527Z" fill="black"/>
<defs>
<linearGradient id="paint0_linear" x1="135" y1="118.408" x2="161.637" y2="118.408" gradientUnits="userSpaceOnUse">
<stop offset="0.33" stop-color="#86BE26"/>
<stop offset="0.67" stop-color="#9CC950"/>
<stop offset="1" stop-color="#B4D57C"/>
</linearGradient>
<linearGradient id="paint1_linear" x1="141.458" y1="133.149" x2="167.978" y2="133.149" gradientUnits="userSpaceOnUse">
<stop offset="0.23" stop-color="#86BE26"/>
<stop offset="0.27" stop-color="#8AC02E"/>
<stop offset="0.48" stop-color="#9CC950"/>
<stop offset="0.67" stop-color="#A9D068"/>
<stop offset="0.85" stop-color="#B1D477"/>
<stop offset="1" stop-color="#B4D57C"/>
</linearGradient>
<linearGradient id="paint2_linear" x1="153.896" y1="131.542" x2="173.636" y2="115.845" gradientUnits="userSpaceOnUse">
<stop offset="0.33" stop-color="#B4D57C"/>
<stop offset="1" stop-color="#C4E58B"/>
</linearGradient>
<linearGradient id="paint3_linear" x1="145.302" y1="134.689" x2="165.623" y2="119.12" gradientUnits="userSpaceOnUse">
<stop stop-color="#B4D57C"/>
<stop offset="0.19" stop-color="#B1D376"/>
<stop offset="0.43" stop-color="#A8CF65"/>
<stop offset="0.72" stop-color="#99C749"/>
<stop offset="1" stop-color="#86BE26"/>
</linearGradient>
</defs>
</svg>
