<svg width="56" height="56" viewBox="0 0 56 56" fill="none" xmlns="http://www.w3.org/2000/svg">
<g clip-path="url(#clip0)">
<path d="M50.4 10.9271C50.4 9.16984 49.069 7.74023 47.4329 7.74023H8.56703C6.93103 7.74015 5.60001 9.16984 5.60001 10.9271V39.7441C5.60001 41.5014 6.93103 42.9309 8.56712 42.9309H24.7723L23.5892 46.4803H21.3006C20.8106 46.4803 20.4132 46.8776 20.4132 47.3676C20.4132 47.8576 20.8106 48.255 21.3006 48.255H24.2288H31.7713H34.6995C35.1895 48.255 35.5869 47.8576 35.5869 47.3676C35.5869 46.8776 35.1895 46.4803 34.6995 46.4803H32.4109L31.2278 42.9309H47.433C49.069 42.9309 50.4001 41.5014 50.4001 39.7441V10.9271H50.4ZM7.3747 10.9271C7.3747 10.1484 7.9096 9.51493 8.56712 9.51493H47.433C48.0904 9.51493 48.6254 10.1484 48.6254 10.9271V32.1423H7.3747V10.9271ZM30.5401 46.4803H25.4598L26.643 42.9309H29.3569L30.5401 46.4803ZM48.6253 39.744C48.6253 40.5226 48.0904 41.1561 47.4329 41.1561H29.9965H26.0034H8.56703C7.9096 41.1561 7.37461 40.5226 7.37461 39.744V33.9169H48.6252V39.744H48.6253Z" fill="#B5B5D0"/>
<path d="M28 39.198C28.8823 39.198 29.6 38.4803 29.6 37.598C29.6 36.7158 28.8823 35.998 28 35.998C27.1177 35.998 26.4 36.7158 26.4 37.598C26.4 38.4803 27.1177 39.198 28 39.198Z" fill="#61AD15"/>
</g>
<defs>
<clipPath id="clip0">
<rect width="44.8" height="44.8" fill="white" transform="translate(5.60001 5.59961)"/>
</clipPath>
</defs>
</svg>
