<svg width="64" height="64" viewBox="0 0 64 64" fill="none" xmlns="http://www.w3.org/2000/svg">
<mask id="path-1-inside-1" fill="white">
<path d="M51.6875 21.9585C51.4554 21.9585 51.2329 22.0507 51.0688 22.2148C50.9047 22.3789 50.8125 22.6014 50.8125 22.8335V55.375H8.625V13.542C8.625 10.831 10.2795 8.625 12.3125 8.625C14.327 8.625 15.967 10.7915 15.997 13.4685H10.959C10.7269 13.4685 10.5044 13.5607 10.3403 13.7248C10.1762 13.8889 10.084 14.1114 10.084 14.3435C10.084 16.751 11.239 18.9505 13.026 19.9475C13.156 20.0203 13.3025 20.0585 13.4515 20.0585C13.6598 20.022 13.8618 19.956 14.0515 19.8625C15.9775 19.0705 17.3515 17.0425 17.676 14.636C17.7286 14.5061 17.7431 14.3639 17.718 14.226C17.737 14 17.75 13.7725 17.75 13.542C17.7762 11.741 17.1438 9.99247 15.9715 8.625H25.479C25.7111 8.625 25.9336 8.53281 26.0977 8.36872C26.2618 8.20462 26.354 7.98206 26.354 7.75C26.354 7.51794 26.2618 7.29538 26.0977 7.13128C25.9336 6.96719 25.7111 6.875 25.479 6.875H12.3125C9.3125 6.875 6.875 9.8655 6.875 13.542V56.25C6.875 56.4821 6.96719 56.7046 7.13128 56.8687C7.29538 57.0328 7.51794 57.125 7.75 57.125H51.6875C51.9196 57.125 52.1421 57.0328 52.3062 56.8687C52.4703 56.7046 52.5625 56.4821 52.5625 56.25V22.8335C52.5625 22.6014 52.4703 22.3789 52.3062 22.2148C52.1421 22.0507 51.9196 21.9585 51.6875 21.9585ZM13.5175 18.1825C12.6175 17.439 12.0383 16.3776 11.9 15.2185H15.7715C15.6272 15.844 15.3516 16.4317 14.963 16.9427C14.5744 17.4537 14.0817 17.8763 13.5175 18.1825ZM57.125 13.542C57.125 17.2185 54.6855 20.209 51.6875 20.209H18.5C18.2679 20.209 18.0454 20.1168 17.8813 19.9527C17.7172 19.7886 17.625 19.5661 17.625 19.334C17.625 19.1019 17.7172 18.8794 17.8813 18.7153C18.0454 18.5512 18.2679 18.459 18.5 18.459H51.6875C53.7205 18.459 55.375 16.253 55.375 13.542C55.375 10.831 53.7205 8.625 51.6875 8.625H32.2185C31.9864 8.625 31.7639 8.53281 31.5998 8.36872C31.4357 8.20462 31.3435 7.98206 31.3435 7.75C31.3435 7.51794 31.4357 7.29538 31.5998 7.13128C31.7639 6.96719 31.9864 6.875 32.2185 6.875H51.6875C54.6855 6.875 57.125 9.8655 57.125 13.542ZM18.6165 46.4555C18.8486 46.4555 19.0711 46.5477 19.2352 46.7118C19.3993 46.8759 19.4915 47.0984 19.4915 47.3305C19.4915 47.5626 19.3993 47.7851 19.2352 47.9492C19.0711 48.1133 18.8486 48.2055 18.6165 48.2055H16.1165C15.8844 48.2055 15.6619 48.1133 15.4978 47.9492C15.3337 47.7851 15.2415 47.5626 15.2415 47.3305C15.2415 47.0984 15.3337 46.8759 15.4978 46.7118C15.6619 46.5477 15.8844 46.4555 16.1165 46.4555H18.6165ZM30.758 46.4555C30.9901 46.4555 31.2126 46.5477 31.3767 46.7118C31.5408 46.8759 31.633 47.0984 31.633 47.3305C31.633 47.5626 31.5408 47.7851 31.3767 47.9492C31.2126 48.1133 30.9901 48.2055 30.758 48.2055H23.1855C22.9534 48.2055 22.7309 48.1133 22.5668 47.9492C22.4027 47.7851 22.3105 47.5626 22.3105 47.3305C22.3105 47.0984 22.4027 46.8759 22.5668 46.7118C22.7309 46.5477 22.9534 46.4555 23.1855 46.4555H30.758ZM35.329 46.4555H39.9C40.1321 46.4555 40.3546 46.5477 40.5187 46.7118C40.6828 46.8759 40.775 47.0984 40.775 47.3305C40.775 47.5626 40.6828 47.7851 40.5187 47.9492C40.3546 48.1133 40.1321 48.2055 39.9 48.2055H35.327C35.0949 48.2055 34.8724 48.1133 34.7083 47.9492C34.5442 47.7851 34.452 47.5626 34.452 47.3305C34.452 47.0984 34.5442 46.8759 34.7083 46.7118C34.8724 46.5477 35.0949 46.4555 35.327 46.4555H35.329ZM43.5955 47.3305C43.5955 47.0984 43.6877 46.8759 43.8518 46.7118C44.0159 46.5477 44.2384 46.4555 44.4705 46.4555H46.9705C47.2026 46.4555 47.4251 46.5477 47.5892 46.7118C47.7533 46.8759 47.8455 47.0984 47.8455 47.3305C47.8455 47.5626 47.7533 47.7851 47.5892 47.9492C47.4251 48.1133 47.2026 48.2055 46.9705 48.2055H44.4705C44.3554 48.2058 44.2414 48.1833 44.135 48.1395C44.0286 48.0956 43.9319 48.0312 43.8505 47.9499C43.769 47.8687 43.7044 47.7721 43.6603 47.6658C43.6162 47.5595 43.5935 47.4456 43.5935 47.3305H43.5955ZM43.679 26.6305V29.1305C43.679 29.3626 43.5868 29.5851 43.4227 29.7492C43.2586 29.9133 43.0361 30.0055 42.804 30.0055C42.5719 30.0055 42.3494 29.9133 42.1853 29.7492C42.0212 29.5851 41.929 29.3626 41.929 29.1305V26.6305C41.929 26.3984 42.0212 26.1759 42.1853 26.0118C42.3494 25.8477 42.5719 25.7555 42.804 25.7555C43.0361 25.7555 43.2586 25.8477 43.4227 26.0118C43.5868 26.1759 43.679 26.3984 43.679 26.6305ZM41.929 40.8505C41.929 40.6184 42.0212 40.3959 42.1853 40.2318C42.3494 40.0677 42.5719 39.9755 42.804 39.9755C43.0361 39.9755 43.2586 40.0677 43.4227 40.2318C43.5868 40.3959 43.679 40.6184 43.679 40.8505V44.757C43.679 44.9891 43.5868 45.2116 43.4227 45.3757C43.2586 45.5398 43.0361 45.632 42.804 45.632C42.5719 45.632 42.3494 45.5398 42.1853 45.3757C42.0212 45.2116 41.929 44.9891 41.929 44.757V40.8505ZM41.929 33.037C41.929 32.8049 42.0212 32.5824 42.1853 32.4183C42.3494 32.2542 42.5719 32.162 42.804 32.162C43.0361 32.162 43.2586 32.2542 43.4227 32.4183C43.5868 32.5824 43.679 32.8049 43.679 33.037V36.9435C43.679 37.1756 43.5868 37.3981 43.4227 37.5622C43.2586 37.7263 43.0361 37.8185 42.804 37.8185C42.5719 37.8185 42.3494 37.7263 42.1853 37.5622C42.0212 37.3981 41.929 37.1756 41.929 36.9435V33.037ZM41.929 48.6635C41.929 48.4314 42.0212 48.2089 42.1853 48.0448C42.3494 47.8807 42.5719 47.7885 42.804 47.7885C43.0361 47.7885 43.2586 47.8807 43.4227 48.0448C43.5868 48.2089 43.679 48.4314 43.679 48.6635V51.1635C43.679 51.3956 43.5868 51.6181 43.4227 51.7822C43.2586 51.9463 43.0361 52.0385 42.804 52.0385C42.5719 52.0385 42.3494 51.9463 42.1853 51.7822C42.0212 51.6181 41.929 51.3956 41.929 51.1635V48.6635Z"/>
</mask>
<path d="M51.6875 21.9585C51.4554 21.9585 51.2329 22.0507 51.0688 22.2148C50.9047 22.3789 50.8125 22.6014 50.8125 22.8335V55.375H8.625V13.542C8.625 10.831 10.2795 8.625 12.3125 8.625C14.327 8.625 15.967 10.7915 15.997 13.4685H10.959C10.7269 13.4685 10.5044 13.5607 10.3403 13.7248C10.1762 13.8889 10.084 14.1114 10.084 14.3435C10.084 16.751 11.239 18.9505 13.026 19.9475C13.156 20.0203 13.3025 20.0585 13.4515 20.0585C13.6598 20.022 13.8618 19.956 14.0515 19.8625C15.9775 19.0705 17.3515 17.0425 17.676 14.636C17.7286 14.5061 17.7431 14.3639 17.718 14.226C17.737 14 17.75 13.7725 17.75 13.542C17.7762 11.741 17.1438 9.99247 15.9715 8.625H25.479C25.7111 8.625 25.9336 8.53281 26.0977 8.36872C26.2618 8.20462 26.354 7.98206 26.354 7.75C26.354 7.51794 26.2618 7.29538 26.0977 7.13128C25.9336 6.96719 25.7111 6.875 25.479 6.875H12.3125C9.3125 6.875 6.875 9.8655 6.875 13.542V56.25C6.875 56.4821 6.96719 56.7046 7.13128 56.8687C7.29538 57.0328 7.51794 57.125 7.75 57.125H51.6875C51.9196 57.125 52.1421 57.0328 52.3062 56.8687C52.4703 56.7046 52.5625 56.4821 52.5625 56.25V22.8335C52.5625 22.6014 52.4703 22.3789 52.3062 22.2148C52.1421 22.0507 51.9196 21.9585 51.6875 21.9585ZM13.5175 18.1825C12.6175 17.439 12.0383 16.3776 11.9 15.2185H15.7715C15.6272 15.844 15.3516 16.4317 14.963 16.9427C14.5744 17.4537 14.0817 17.8763 13.5175 18.1825ZM57.125 13.542C57.125 17.2185 54.6855 20.209 51.6875 20.209H18.5C18.2679 20.209 18.0454 20.1168 17.8813 19.9527C17.7172 19.7886 17.625 19.5661 17.625 19.334C17.625 19.1019 17.7172 18.8794 17.8813 18.7153C18.0454 18.5512 18.2679 18.459 18.5 18.459H51.6875C53.7205 18.459 55.375 16.253 55.375 13.542C55.375 10.831 53.7205 8.625 51.6875 8.625H32.2185C31.9864 8.625 31.7639 8.53281 31.5998 8.36872C31.4357 8.20462 31.3435 7.98206 31.3435 7.75C31.3435 7.51794 31.4357 7.29538 31.5998 7.13128C31.7639 6.96719 31.9864 6.875 32.2185 6.875H51.6875C54.6855 6.875 57.125 9.8655 57.125 13.542ZM18.6165 46.4555C18.8486 46.4555 19.0711 46.5477 19.2352 46.7118C19.3993 46.8759 19.4915 47.0984 19.4915 47.3305C19.4915 47.5626 19.3993 47.7851 19.2352 47.9492C19.0711 48.1133 18.8486 48.2055 18.6165 48.2055H16.1165C15.8844 48.2055 15.6619 48.1133 15.4978 47.9492C15.3337 47.7851 15.2415 47.5626 15.2415 47.3305C15.2415 47.0984 15.3337 46.8759 15.4978 46.7118C15.6619 46.5477 15.8844 46.4555 16.1165 46.4555H18.6165ZM30.758 46.4555C30.9901 46.4555 31.2126 46.5477 31.3767 46.7118C31.5408 46.8759 31.633 47.0984 31.633 47.3305C31.633 47.5626 31.5408 47.7851 31.3767 47.9492C31.2126 48.1133 30.9901 48.2055 30.758 48.2055H23.1855C22.9534 48.2055 22.7309 48.1133 22.5668 47.9492C22.4027 47.7851 22.3105 47.5626 22.3105 47.3305C22.3105 47.0984 22.4027 46.8759 22.5668 46.7118C22.7309 46.5477 22.9534 46.4555 23.1855 46.4555H30.758ZM35.329 46.4555H39.9C40.1321 46.4555 40.3546 46.5477 40.5187 46.7118C40.6828 46.8759 40.775 47.0984 40.775 47.3305C40.775 47.5626 40.6828 47.7851 40.5187 47.9492C40.3546 48.1133 40.1321 48.2055 39.9 48.2055H35.327C35.0949 48.2055 34.8724 48.1133 34.7083 47.9492C34.5442 47.7851 34.452 47.5626 34.452 47.3305C34.452 47.0984 34.5442 46.8759 34.7083 46.7118C34.8724 46.5477 35.0949 46.4555 35.327 46.4555H35.329ZM43.5955 47.3305C43.5955 47.0984 43.6877 46.8759 43.8518 46.7118C44.0159 46.5477 44.2384 46.4555 44.4705 46.4555H46.9705C47.2026 46.4555 47.4251 46.5477 47.5892 46.7118C47.7533 46.8759 47.8455 47.0984 47.8455 47.3305C47.8455 47.5626 47.7533 47.7851 47.5892 47.9492C47.4251 48.1133 47.2026 48.2055 46.9705 48.2055H44.4705C44.3554 48.2058 44.2414 48.1833 44.135 48.1395C44.0286 48.0956 43.9319 48.0312 43.8505 47.9499C43.769 47.8687 43.7044 47.7721 43.6603 47.6658C43.6162 47.5595 43.5935 47.4456 43.5935 47.3305H43.5955ZM43.679 26.6305V29.1305C43.679 29.3626 43.5868 29.5851 43.4227 29.7492C43.2586 29.9133 43.0361 30.0055 42.804 30.0055C42.5719 30.0055 42.3494 29.9133 42.1853 29.7492C42.0212 29.5851 41.929 29.3626 41.929 29.1305V26.6305C41.929 26.3984 42.0212 26.1759 42.1853 26.0118C42.3494 25.8477 42.5719 25.7555 42.804 25.7555C43.0361 25.7555 43.2586 25.8477 43.4227 26.0118C43.5868 26.1759 43.679 26.3984 43.679 26.6305ZM41.929 40.8505C41.929 40.6184 42.0212 40.3959 42.1853 40.2318C42.3494 40.0677 42.5719 39.9755 42.804 39.9755C43.0361 39.9755 43.2586 40.0677 43.4227 40.2318C43.5868 40.3959 43.679 40.6184 43.679 40.8505V44.757C43.679 44.9891 43.5868 45.2116 43.4227 45.3757C43.2586 45.5398 43.0361 45.632 42.804 45.632C42.5719 45.632 42.3494 45.5398 42.1853 45.3757C42.0212 45.2116 41.929 44.9891 41.929 44.757V40.8505ZM41.929 33.037C41.929 32.8049 42.0212 32.5824 42.1853 32.4183C42.3494 32.2542 42.5719 32.162 42.804 32.162C43.0361 32.162 43.2586 32.2542 43.4227 32.4183C43.5868 32.5824 43.679 32.8049 43.679 33.037V36.9435C43.679 37.1756 43.5868 37.3981 43.4227 37.5622C43.2586 37.7263 43.0361 37.8185 42.804 37.8185C42.5719 37.8185 42.3494 37.7263 42.1853 37.5622C42.0212 37.3981 41.929 37.1756 41.929 36.9435V33.037ZM41.929 48.6635C41.929 48.4314 42.0212 48.2089 42.1853 48.0448C42.3494 47.8807 42.5719 47.7885 42.804 47.7885C43.0361 47.7885 43.2586 47.8807 43.4227 48.0448C43.5868 48.2089 43.679 48.4314 43.679 48.6635V51.1635C43.679 51.3956 43.5868 51.6181 43.4227 51.7822C43.2586 51.9463 43.0361 52.0385 42.804 52.0385C42.5719 52.0385 42.3494 51.9463 42.1853 51.7822C42.0212 51.6181 41.929 51.3956 41.929 51.1635V48.6635Z" fill="#B5B5D0" stroke="#B5B5D0" stroke-width="8" mask="url(#path-1-inside-1)"/>
<path d="M16 36.0571L24.3023 29.6571L28.6977 32.4L36 26M16.5 43L25.7791 37.9714L33.1047 40.2571L38.5 36" stroke="#61AD15" stroke-width="1.6" stroke-linecap="round" stroke-linejoin="round"/>
</svg>
