<svg width="56" height="56" viewBox="0 0 56 56" fill="none" xmlns="http://www.w3.org/2000/svg">
<g clip-path="url(#clip0)">
<path d="M34.4583 39.5596H31.3884C30.9354 39.5596 30.5681 39.9269 30.5681 40.3799C30.5681 40.833 30.9354 41.2002 31.3884 41.2002H34.4583C34.9113 41.2002 35.2786 40.833 35.2786 40.3799C35.2786 39.9269 34.9113 39.5596 34.4583 39.5596Z" fill="#61AD15"/>
<path d="M52.5273 30.7775L48.0603 29.0545L45.7828 26.7769C45.6365 26.6307 45.4481 26.5515 45.2556 26.5392V24.7269C46.329 23.5824 47.0931 22.1331 47.4014 20.5003C47.5928 20.509 47.7861 20.4935 47.9767 20.4546C49.0682 20.2311 49.8604 19.2184 49.8604 18.0468V17.4486C49.8604 16.7708 49.5855 16.1487 49.138 15.7039C49.8624 11.7642 49.2657 8.55357 47.4048 6.40467C45.6048 4.32621 42.7048 3.33275 39.0188 3.53214C35.6133 3.71622 33.4148 5.28313 32.7183 5.85637C32.337 5.90165 31.6876 6.03553 31.0302 6.42993C30.1191 6.97659 29.0331 8.12492 29.0331 10.491C29.0331 12.5552 29.363 14.2785 29.6019 15.2562C28.8012 15.6462 28.2656 16.4915 28.2656 17.4578V18.0467C28.2656 19.2183 29.0578 20.231 30.1493 20.4545C30.3399 20.4935 30.5333 20.5088 30.7246 20.5002C31.0329 22.133 31.7972 23.5823 32.8705 24.7268V26.539C32.678 26.5514 32.4894 26.6306 32.3433 26.7768L30.0657 29.0544L25.5987 30.7773C25.2123 30.9263 24.8432 31.1196 24.5017 31.3516C24.127 31.6062 24.0296 32.1163 24.2842 32.491C24.4429 32.7247 24.7009 32.8504 24.9634 32.8504C25.1221 32.8504 25.2824 32.8044 25.4236 32.7086C25.6617 32.5468 25.9193 32.4121 26.1891 32.3079L30.3348 30.7089L33.5045 35.4635C33.8974 36.053 34.5272 36.4311 35.2321 36.5008C35.3105 36.5086 35.3889 36.5124 35.4668 36.5124C35.8749 36.5124 36.2708 36.4051 36.6213 36.2068L35.9411 51.6362C35.921 52.0888 36.2718 52.472 36.7245 52.4919C36.7368 52.4924 36.749 52.4926 36.7613 52.4926C37.1977 52.4926 37.5608 52.1486 37.5802 51.7084L38.2115 37.3867H39.9145L40.5458 51.7084C40.5651 52.1488 40.9283 52.4926 41.3647 52.4926C41.3769 52.4926 41.3892 52.4924 41.4014 52.4919C41.854 52.472 42.2048 52.0888 42.1849 51.6362L41.5047 36.2068C41.8551 36.4051 42.2509 36.5124 42.6591 36.5124C42.737 36.5124 42.8154 36.5086 42.8938 36.5008C43.5988 36.4311 44.2284 36.053 44.6214 35.4635L47.7911 30.7089L51.9368 32.3079C52.5182 32.5322 53.0187 32.8899 53.4123 33.3363L50.576 36.1725C49.5513 37.1972 48.987 38.5596 48.987 40.0086V51.6724C48.987 52.1255 49.3543 52.4927 49.8074 52.4927C50.2604 52.4927 50.6277 52.1255 50.6277 51.6724V40.0086C50.6277 38.9979 51.0213 38.0474 51.7361 37.3326L54.2252 34.8435C54.3252 35.2102 54.3719 35.5958 54.3562 35.99L53.7208 51.6392C53.7024 52.0919 54.0545 52.4737 54.5071 52.4922C54.5185 52.4926 54.5297 52.4928 54.541 52.4928C54.9786 52.4928 55.3422 52.1471 55.36 51.7059L55.9956 36.0562C56.0887 33.7349 54.6949 31.6135 52.5273 30.7775ZM32.3305 20.162C32.1858 19.3744 31.4564 18.8019 30.6693 18.8602C30.607 18.8647 30.5429 18.8603 30.4784 18.8472C30.1523 18.7805 29.9063 18.4363 29.9063 18.0468V17.4577C29.9063 17.0772 30.1606 16.7344 30.4851 16.6774C30.759 16.6293 31.0212 16.7298 31.1872 16.9463C31.3378 17.1426 31.5387 17.283 31.7681 17.3522C32.1041 17.4537 32.4745 17.3941 32.7593 17.193C33.2723 16.8309 33.7249 16.3885 34.1045 15.8779C34.3749 15.5143 34.2992 15.0005 33.9358 14.7302C33.5721 14.4598 33.0584 14.5354 32.788 14.899C32.5987 15.1536 32.3847 15.3847 32.1492 15.5893C31.8891 15.3668 31.5853 15.206 31.2597 15.1142C31.0489 14.3068 30.6738 12.5771 30.6738 10.4908C30.6738 9.23443 31.0611 8.35166 31.8248 7.86713C32.4208 7.48902 33.0511 7.47381 33.0511 7.47381C33.2608 7.47381 33.4649 7.39123 33.6172 7.24719C33.6372 7.22837 35.6537 5.35696 39.1072 5.17026C42.2683 4.99963 44.7087 5.79763 46.1644 7.47852C47.6315 9.17274 48.1201 11.7738 47.5901 15.0294C47.3704 15.0216 47.1298 15.0382 46.8904 15.0781L46.1198 13.2273C45.9625 12.8497 45.5506 12.6458 45.1548 12.749C45.0786 12.7689 37.5032 14.6893 34.3268 10.7347C34.0432 10.3816 33.5269 10.3251 33.1735 10.6088C32.8204 10.8926 32.7639 11.4088 33.0478 11.7621C36.2914 15.8005 42.7275 14.922 44.8699 14.4935L45.4659 15.9247C45.7222 16.5399 46.3778 16.8759 47.024 16.7236C47.2892 16.6611 47.5426 16.6597 47.6378 16.6785C47.9695 16.7446 48.2197 17.0754 48.2197 17.4484V18.0467C48.2197 18.4363 47.9737 18.7804 47.6475 18.8471C47.5831 18.8603 47.5187 18.8647 47.4567 18.8601C46.6696 18.8028 45.9403 19.3742 45.7955 20.162C45.1987 23.4109 42.3673 25.769 39.063 25.769C35.7586 25.769 32.9272 23.4109 32.3305 20.162ZM35.9695 34.6626C35.7615 34.8706 35.5196 34.8808 35.3939 34.8683C35.2682 34.8559 35.0329 34.7984 34.8697 34.5536L31.6765 29.7639L32.9607 28.4797L37.8629 32.7692L35.9695 34.6626ZM38.2838 35.7462L38.3334 34.6187L39.0629 33.8893L39.7923 34.6187L39.8419 35.7462H38.2838ZM39.063 31.6391L34.5111 27.6562V26.0862C35.8345 26.9279 37.4003 27.4097 39.063 27.4097C40.7256 27.4097 42.2915 26.9279 43.615 26.0862V27.6562L39.063 31.6391ZM43.2564 34.5536C43.0931 34.7985 42.8579 34.8559 42.7323 34.8683C42.6064 34.8808 42.3646 34.8706 42.1565 34.6625L40.2631 32.7691L45.1653 28.4796L46.4495 29.7638L43.2564 34.5536Z" fill="#B5B5D0"/>
<path d="M26.0147 35.0768L22.0092 33.3284L19.8196 31.1388C19.6729 30.992 19.4844 30.9133 19.2924 30.901V29.6105C21.1637 28.3808 22.5331 26.4251 22.9731 24.0946C23.1886 24.1042 23.4061 24.0836 23.6205 24.0329C24.6702 23.7845 25.432 22.7786 25.432 21.6411V21.043C25.432 20.212 25.0196 19.4644 24.3808 19.0258C24.5687 18.2814 24.6645 17.5198 24.6645 16.7532C24.6645 13.3547 22.8274 10.3613 20.0584 8.64258C20.0288 5.80615 17.6078 3.50708 14.6347 3.50708C11.6615 3.50708 9.24048 5.80615 9.21094 8.64258C6.442 10.3613 4.60493 13.3548 4.60493 16.7532C4.60493 17.5175 4.70008 18.2769 4.8869 19.0193C4.24836 19.4557 3.83744 20.2067 3.83744 21.052V21.6411C3.83744 22.7786 4.59924 23.7845 5.64891 24.0329C5.86329 24.0837 6.08073 24.1042 6.29631 24.0946C6.73632 26.4251 8.10582 28.3808 9.97712 29.6105V30.901C9.78517 30.9133 9.5966 30.992 9.44993 31.1388L7.26034 33.3284L3.25491 35.0768C1.21691 35.9664 -0.0890298 38.0568 0.00514248 40.2786L0.489566 51.7075C0.508269 52.1483 0.871505 52.4932 1.30857 52.4932C1.32027 52.4932 1.33209 52.493 1.3439 52.4924C1.7966 52.4733 2.14792 52.0908 2.12878 51.6381L1.64424 40.209C1.61307 39.4726 1.80448 38.758 2.16432 38.143L4.31738 40.7267C4.9978 41.5432 5.37241 42.5781 5.37241 43.6408V51.6729C5.37241 52.1259 5.7397 52.4932 6.19273 52.4932C6.64576 52.4932 7.01304 52.1259 7.01304 51.6729V43.6408C7.01304 42.195 6.50325 40.7872 5.57771 39.6764L3.28881 36.9297C3.48339 36.7956 3.69022 36.6768 3.91127 36.5804L7.40209 35.0565L9.86895 39.0607C10.1125 39.4561 10.5152 39.7241 10.974 39.7963C11.0564 39.8093 11.1391 39.8157 11.2215 39.8157C11.5965 39.8157 11.9618 39.6828 12.2515 39.4356L13.8147 38.1018V51.6727C13.8147 52.1258 14.1819 52.4931 14.635 52.4931C15.088 52.4931 15.4553 52.1258 15.4553 51.6727V38.102L17.0184 39.4358C17.308 39.683 17.6733 39.8159 18.0484 39.8159C18.1306 39.8159 18.2134 39.8094 18.2959 39.7965C18.7546 39.7244 19.1573 39.4563 19.4009 39.0609L21.8678 35.0566L25.3586 36.5805C25.5795 36.6769 25.7865 36.7957 25.981 36.9298L23.6921 39.6766C22.7666 40.7872 22.2568 42.1951 22.2568 43.6409V51.673C22.2568 52.126 22.6241 52.4933 23.0771 52.4933C23.5302 52.4933 23.8974 52.126 23.8974 51.673V43.6409C23.8974 42.5782 24.2722 41.5433 24.9525 40.7268L27.1055 38.1431C27.4654 38.7581 27.6568 39.4727 27.6256 40.2091L27.1412 51.6382C27.122 52.0908 27.4734 52.4733 27.9261 52.4925C27.9379 52.4931 27.9496 52.4933 27.9614 52.4933C28.3985 52.4933 28.7617 52.1485 28.7804 51.7076L29.2648 40.2787C29.3589 38.0569 28.0528 35.9664 26.0147 35.0768ZM14.6349 5.14771C16.3801 5.14771 17.8525 6.26104 18.2879 7.76955C17.1554 7.34211 15.9232 7.10706 14.6349 7.10706C13.3465 7.10706 12.1143 7.34211 10.9818 7.76955C11.4173 6.26104 12.8896 5.14771 14.6349 5.14771ZM7.90227 23.7565C7.75767 22.9687 7.02715 22.3964 6.24118 22.4546C6.17151 22.4595 6.09954 22.4536 6.02692 22.4364C5.7141 22.3623 5.47818 22.0204 5.47818 21.6411V21.052C5.47818 20.6715 5.73248 20.3287 6.05699 20.2717C6.33087 20.2236 6.59304 20.3242 6.75886 20.5404C6.90947 20.7369 7.11039 20.8773 7.33997 20.9467C7.67586 21.0482 8.04653 20.9886 8.33113 20.7874C8.83633 20.4309 9.28302 19.9962 9.65884 19.4957C9.93085 19.1334 9.85768 18.6192 9.49543 18.3472C9.13307 18.0752 8.61889 18.1484 8.34688 18.5107C8.16083 18.7584 7.95138 18.9836 7.72103 19.1836C7.37005 18.8835 6.93965 18.6956 6.48312 18.6386C6.32595 18.0208 6.24556 17.3889 6.24556 16.7533C6.24556 12.3391 10.0089 8.7478 14.6349 8.7478C19.2607 8.7478 23.0241 12.339 23.0241 16.7533C23.0241 17.3877 22.9441 18.0182 22.7875 18.635C22.5716 18.6522 22.3522 18.6875 22.1491 18.7402L21.5324 18.2332C21.2226 17.9783 20.8325 17.8508 20.4378 17.8743C19.232 17.9455 13.0569 18.1086 9.88874 14.317C9.59824 13.9694 9.08101 13.923 8.7333 14.2135C8.3856 14.504 8.33933 15.0214 8.62983 15.369C10.1924 17.2389 12.4841 18.5034 15.4413 19.1273C17.7055 19.605 19.7182 19.5586 20.5068 19.5136L21.4689 20.3047C21.7337 20.5225 22.105 20.5532 22.4015 20.3806C22.5406 20.3049 23.0066 20.2324 23.2099 20.273C23.5416 20.339 23.7917 20.6699 23.7917 21.043V21.6411C23.7917 22.0205 23.5557 22.3624 23.2429 22.4364C23.1704 22.4535 23.0983 22.4598 23.0287 22.4545C22.2431 22.3974 21.5122 22.9687 21.3675 23.7564C20.7707 27.0054 17.9393 29.3635 14.635 29.3635C11.3305 29.3635 8.49902 27.0054 7.90227 23.7565ZM11.2334 38.1477L8.76611 34.1428L10.0301 32.8789L13.427 36.2759L11.2334 38.1477ZM14.6349 35.1634L11.6179 32.1464V30.4493C12.5597 30.8078 13.5774 31.0042 14.6349 31.0042C15.6923 31.0042 16.7101 30.8078 17.6519 30.4494V32.1464L14.6349 35.1634ZM18.0363 38.1477L15.8427 36.2759L19.2397 32.8789L20.5036 34.1428L18.0363 38.1477Z" fill="#B5B5D0"/>
<path d="M11.5647 43.1777H9.26233C8.8093 43.1777 8.44202 43.545 8.44202 43.998C8.44202 44.4511 8.8093 44.8184 9.26233 44.8184H11.5647C12.0177 44.8184 12.385 44.4511 12.385 43.998C12.385 43.545 12.0177 43.1777 11.5647 43.1777Z" fill="#61AD15"/>
<path d="M23 52V43.5C23 42.8333 23.3 41.2 24.5 40C25.7 38.8 26.6667 37.5 27 37C27.5 37.1667 28.5 38 28.5 40C28.5 42 28.1667 48.8333 28 52" stroke="#61AD15" stroke-width="1.6" stroke-linecap="round" stroke-linejoin="round"/>
<path d="M50 51.5V39.5C50 38.8333 50.3 37.7 51.5 36.5C52.7 35.3 54.1667 34 54.5 33.5C55 33.6667 55 37.5 55 39.5C55 41.5 54.6667 48.3333 54.5 51.5" stroke="#61AD15" stroke-width="1.6" stroke-linecap="round" stroke-linejoin="round"/>
</g>
<defs>
<clipPath id="clip0">
<rect width="56" height="56" fill="white"/>
</clipPath>
</defs>
</svg>
