<svg width="128" height="50" viewBox="0 0 128 50" fill="none" xmlns="http://www.w3.org/2000/svg">
<path d="M64.8279 21.3867H61V19.1989H71.4241V21.3867H67.5962V30.8011H64.8279V21.3867Z" fill="white"/>
<path d="M80.5569 28.3149H75.0031L73.9436 30.8011H71.1069L76.4385 19.1989H79.1727L84.5215 30.8011H81.6164L80.5569 28.3149ZM79.6854 26.2762L77.7885 21.8343L75.8917 26.2762H79.6854Z" fill="white"/>
<path d="M93.0473 30.8011L90.1594 26.7735L87.3226 30.8011H84.1441L88.5701 24.9006L84.3663 19.1989H87.5106L90.2619 22.9613L92.9619 19.1989H95.9524L91.7828 24.8011L96.2429 30.8011H93.0473Z" fill="white"/>
<path d="M105.726 24.8177H108.255V29.5249C107.605 30 106.853 30.3646 105.999 30.6188C105.144 30.8729 104.284 31 103.419 31C102.177 31 101.06 30.7459 100.069 30.2376C99.078 29.7182 98.2976 29.0055 97.728 28.0994C97.1698 27.1823 96.8907 26.1492 96.8907 25C96.8907 23.8508 97.1698 22.8232 97.728 21.9171C98.2976 21 99.0837 20.2873 100.086 19.779C101.089 19.2597 102.217 19 103.47 19C104.518 19 105.469 19.1713 106.324 19.5138C107.178 19.8564 107.896 20.3536 108.477 21.0055L106.7 22.5967C105.845 21.7238 104.814 21.2873 103.607 21.2873C102.843 21.2873 102.165 21.442 101.573 21.7514C100.981 22.0608 100.519 22.4972 100.189 23.0608C99.8584 23.6243 99.6932 24.2707 99.6932 25C99.6932 25.7182 99.8584 26.3591 100.189 26.9227C100.519 27.4862 100.975 27.9282 101.556 28.2486C102.148 28.558 102.82 28.7127 103.572 28.7127C104.37 28.7127 105.088 28.547 105.726 28.2155V24.8177Z" fill="white"/>
<path d="M111.192 19.1989H113.961V30.8011H111.192V19.1989Z" fill="white"/>
<path d="M125.249 24.8177H127.778V29.5249C127.128 30 126.377 30.3646 125.522 30.6188C124.668 30.8729 123.808 31 122.942 31C121.7 31 120.584 30.7459 119.592 30.2376C118.601 29.7182 117.821 29.0055 117.251 28.0994C116.693 27.1823 116.414 26.1492 116.414 25C116.414 23.8508 116.693 22.8232 117.251 21.9171C117.821 21 118.607 20.2873 119.609 19.779C120.612 19.2597 121.74 19 122.993 19C124.041 19 124.992 19.1713 125.847 19.5138C126.701 19.8564 127.419 20.3536 128 21.0055L126.223 22.5967C125.368 21.7238 124.337 21.2873 123.13 21.2873C122.366 21.2873 121.689 21.442 121.096 21.7514C120.504 22.0608 120.042 22.4972 119.712 23.0608C119.382 23.6243 119.216 24.2707 119.216 25C119.216 25.7182 119.382 26.3591 119.712 26.9227C120.042 27.4862 120.498 27.9282 121.079 28.2486C121.671 28.558 122.344 28.7127 123.096 28.7127C123.893 28.7127 124.611 28.547 125.249 28.2155V24.8177Z" fill="white"/>
<path fill-rule="evenodd" clip-rule="evenodd" d="M34.5012 21.0372C33.9844 19.5253 33.1652 18.0606 32.0295 16.6817C28.662 12.5947 23.1448 10.8558 17.5523 11.874C14.6524 12.4014 11.7335 13.6706 9.08595 15.738C7.78749 16.7503 6.59828 17.8954 5.53767 19.1548C2.92814 22.2586 1.29464 25.8786 1 29.415V17.6717C1.00019 14.3195 2.78464 11.2207 5.68393 9.53798L14.4105 4.47503L15.4132 3.89349L15.4231 3.88787L18.207 2.27054C21.126 0.576488 24.729 0.576488 27.648 2.27054L29.5332 3.3647L30.5564 3.95819C31.683 4.68481 32.6862 5.5869 33.528 6.6303L33.5449 6.65139C37.0904 11.0435 37.2444 16.3083 34.5012 21.0372Z" fill="url(#paint0_linear)" stroke="#B4D57C" stroke-width="0.5"/>
<path fill-rule="evenodd" clip-rule="evenodd" d="M44.8263 20.9707V32.3286C44.8261 35.6808 43.0417 38.7796 40.1424 40.4624L32.0234 45.1737L30.4489 46.0879L27.6165 47.7298C24.6975 49.4238 21.0945 49.4238 18.1755 47.7298L16.0034 46.469L15.99 46.4619L15.4338 46.1385C15.4309 46.1376 15.4283 46.1362 15.426 46.1343C14.261 45.4166 13.2168 44.5193 12.332 43.4755C12.264 43.3953 12.1975 43.3147 12.1323 43.2336C8.86178 39.1769 8.89764 33.7575 11.3032 29.0039C11.7981 30.5878 12.6246 32.0481 13.7278 33.2877C17.4203 37.4731 23.0971 38.9519 28.8119 37.6074C31.4889 36.9745 34.1751 35.7285 36.6693 33.8482C38.0406 32.8252 39.3079 31.6699 40.4532 30.399C43.069 27.4611 44.5767 24.2258 44.8263 20.9707Z" fill="url(#paint1_linear)" stroke="#B4D57C" stroke-width="0.5"/>
<path fill-rule="evenodd" clip-rule="evenodd" d="M44.8557 17.6702V20.9316C44.606 24.1866 43.0977 27.422 40.4826 30.3543C39.3379 31.6261 38.071 32.7823 36.7001 33.8062C34.2059 35.6866 31.5197 36.9361 28.8427 37.5655C23.1265 38.91 17.4511 37.4312 13.7614 33.2458C12.6583 32.0062 11.8317 30.5459 11.3369 28.962L11.3467 28.943C16.3843 31.914 23.3009 31.324 29.0705 26.9783C31.4382 25.1943 33.2629 23.1726 34.4991 21.042L34.5048 21.0455C34.5045 21.0427 34.5045 21.0399 34.5048 21.0371C37.2472 16.3081 37.0939 11.0434 33.5484 6.64633L33.5316 6.62524C32.6897 5.58184 31.6865 4.67975 30.5599 3.95312L37.1994 7.80589L38.9271 8.80934L40.1746 9.53292C43.0739 11.217 44.8573 14.3173 44.8557 17.6702Z" fill="url(#paint2_linear)" stroke="#B4D57C" stroke-width="0.5"/>
<path fill-rule="evenodd" clip-rule="evenodd" d="M34.5034 21.066C34.5036 21.0677 34.5036 21.0693 34.5034 21.071C29.4826 17.894 22.346 18.1338 16.6818 22.5582C14.3831 24.3534 12.566 26.5776 11.3509 28.972L11.3319 28.9607C11.3354 28.9713 11.3383 28.9811 11.3411 28.991C8.93477 33.7445 8.89961 39.164 12.1701 43.2207C12.2348 43.3013 12.3014 43.3819 12.3698 43.4626C13.2546 44.5063 14.2989 45.4036 15.4639 46.1213L8.2576 41.9423L6.6923 41.0352L5.68393 40.4501C2.78464 38.7673 1.00019 35.6686 1 32.3163V29.4438C1.29464 25.9075 2.92814 22.2875 5.53767 19.1836C6.59828 17.9243 7.78749 16.7791 9.08595 15.7668C11.7335 13.6995 14.6524 12.4302 17.5523 11.9028C23.1427 10.8846 28.6627 12.6236 32.0295 16.7105C33.168 18.0895 33.9865 19.5577 34.5034 21.066Z" fill="url(#paint3_linear)" stroke="#B4D57C" stroke-width="0.5"/>
<defs>
<linearGradient id="paint0_linear" x1="1" y1="29.4132" x2="36.3999" y2="29.4132" gradientUnits="userSpaceOnUse">
<stop offset="0.33" stop-color="#86BE26"/>
<stop offset="0.67" stop-color="#9CC950"/>
<stop offset="1" stop-color="#B4D57C"/>
</linearGradient>
<linearGradient id="paint1_linear" x1="9.58255" y1="48.9985" x2="44.8263" y2="48.9985" gradientUnits="userSpaceOnUse">
<stop offset="0.23" stop-color="#86BE26"/>
<stop offset="0.27" stop-color="#8AC02E"/>
<stop offset="0.48" stop-color="#9CC950"/>
<stop offset="0.67" stop-color="#A9D068"/>
<stop offset="0.85" stop-color="#B1D477"/>
<stop offset="1" stop-color="#B4D57C"/>
</linearGradient>
<linearGradient id="paint2_linear" x1="26.1115" y1="46.8647" x2="52.3409" y2="26.0024" gradientUnits="userSpaceOnUse">
<stop offset="0.33" stop-color="#B4D57C"/>
<stop offset="1" stop-color="#C4E58B"/>
</linearGradient>
<linearGradient id="paint3_linear" x1="14.6913" y1="51.0452" x2="41.692" y2="30.3526" gradientUnits="userSpaceOnUse">
<stop stop-color="#B4D57C"/>
<stop offset="0.19" stop-color="#B1D376"/>
<stop offset="0.43" stop-color="#A8CF65"/>
<stop offset="0.72" stop-color="#99C749"/>
<stop offset="1" stop-color="#86BE26"/>
</linearGradient>
</defs>
</svg>
