<svg width="663" height="725" viewBox="0 0 663 725" fill="none" xmlns="http://www.w3.org/2000/svg">
<g opacity="0.120233">
<path fill-rule="evenodd" clip-rule="evenodd" d="M505.936 302.668C498.146 279.906 485.799 257.854 468.682 237.093C417.926 175.563 334.77 149.382 250.479 164.712C206.771 172.652 162.776 191.761 122.873 222.886C103.302 238.127 85.3781 255.367 69.3925 274.327C30.0612 321.057 5.44079 375.558 1 428.799V252C1.00283 201.53 27.8984 154.877 71.597 129.543L203.125 53.3179L218.239 44.5627L218.387 44.478L260.347 20.1284C304.342 -5.37615 358.647 -5.37615 402.643 20.1284L431.057 36.6014L446.478 45.5367C463.459 56.4762 478.58 70.0576 491.268 85.7663L491.522 86.0839C544.96 152.209 547.281 231.472 505.936 302.668Z" fill="url(#paint0_linear)" stroke="#B4D57C" stroke-width="0.75"/>
<path fill-rule="evenodd" clip-rule="evenodd" d="M661.558 301.664V472.661C661.555 523.131 634.66 569.784 590.961 595.118L468.59 666.05L444.86 679.812L402.169 704.533C358.173 730.037 303.869 730.037 259.873 704.533L227.134 685.55L226.933 685.445L218.549 680.575C218.507 680.562 218.467 680.54 218.433 680.511C200.874 669.706 185.135 656.197 171.799 640.483C170.775 639.276 169.771 638.062 168.789 636.841C119.495 575.766 120.036 494.174 156.294 422.607C163.752 446.453 176.21 468.439 192.837 487.102C248.49 550.114 334.052 572.378 420.187 552.136C460.536 542.608 501.022 523.848 538.615 495.539C559.283 480.138 578.385 462.745 595.646 443.611C635.073 399.38 657.796 350.67 661.558 301.664Z" fill="url(#paint1_linear)" stroke="#B4D57C" stroke-width="0.75"/>
<path fill-rule="evenodd" clip-rule="evenodd" d="M662 251.98V301.082C658.237 350.088 635.504 398.797 596.088 442.944C578.835 462.092 559.74 479.499 539.078 494.915C501.485 523.224 460.998 542.036 420.65 551.511C334.494 571.753 248.953 549.489 193.343 486.477C176.715 467.815 164.257 445.829 156.799 421.982L156.947 421.697C232.875 466.426 337.123 457.543 424.084 392.117C459.769 365.259 487.272 334.822 505.904 302.744L505.989 302.797C505.985 302.755 505.985 302.712 505.989 302.67C547.324 231.474 545.013 152.211 491.575 86.0117L491.321 85.6941C478.633 69.9853 463.512 56.404 446.531 45.4644L546.603 103.469L572.644 118.577L591.445 129.47C635.144 154.825 662.025 201.501 662 251.98Z" fill="url(#paint2_linear)" stroke="#B4D57C" stroke-width="0.75"/>
<path fill-rule="evenodd" clip-rule="evenodd" d="M505.968 303.102C505.972 303.126 505.972 303.151 505.968 303.176C430.294 255.345 322.73 258.955 237.358 325.567C202.712 352.595 175.325 386.081 157.011 422.129L156.725 421.959C156.778 422.118 156.82 422.266 156.862 422.414C120.594 493.981 120.064 575.573 169.358 636.648C170.333 637.862 171.336 639.076 172.368 640.29C185.704 656.004 201.442 669.514 219.002 680.318L110.388 617.401L86.7953 603.744L71.597 594.936C27.8984 569.601 1.00283 522.949 1 472.479V429.232C5.44079 375.991 30.0612 321.491 69.3925 274.761C85.3781 255.801 103.302 238.561 122.873 223.32C162.776 192.195 206.771 173.086 250.479 165.146C334.738 149.816 417.936 175.997 468.682 237.527C485.841 258.288 498.178 280.393 505.968 303.102Z" fill="url(#paint3_linear)" stroke="#B4D57C" stroke-width="0.75"/>
</g>
<path fill-rule="evenodd" clip-rule="evenodd" d="M447.849 323.583C442.656 308.392 434.424 293.674 423.013 279.818C389.176 238.753 333.738 221.279 277.544 231.51C248.406 236.81 219.076 249.563 192.473 270.336C179.426 280.508 167.477 292.015 156.82 304.669C130.599 335.857 114.185 372.231 111.225 407.764V289.767C111.227 256.083 129.157 224.947 158.29 208.038L245.975 157.165L256.051 151.322L256.15 151.265L284.123 135.014C313.453 117.992 349.656 117.992 378.987 135.014L397.93 146.008L408.211 151.972C419.531 159.273 429.612 168.337 438.07 178.821L438.24 179.033C473.865 223.166 475.412 276.067 447.849 323.583Z" fill="url(#paint4_linear)" stroke="#B4D57C" stroke-width="0.5"/>
<path fill-rule="evenodd" clip-rule="evenodd" d="M551.597 322.913V437.039C551.595 470.722 533.665 501.859 504.533 518.768L422.952 566.108L407.132 575.293L378.671 591.792C349.341 608.814 313.138 608.814 283.807 591.792L261.981 579.123L261.847 579.052L256.258 575.802C256.229 575.793 256.203 575.779 256.18 575.76C244.474 568.548 233.982 559.532 225.091 549.044C224.408 548.239 223.739 547.428 223.084 546.614C190.222 505.851 190.582 451.396 214.754 403.632C219.726 419.547 228.032 434.221 239.117 446.676C276.219 488.731 333.26 503.59 390.683 490.081C417.582 483.722 444.573 471.201 469.635 452.308C483.413 442.029 496.148 430.421 507.656 417.65C533.94 388.13 549.089 355.621 551.597 322.913Z" fill="url(#paint5_linear)" stroke="#B4D57C" stroke-width="0.5"/>
<path fill-rule="evenodd" clip-rule="evenodd" d="M551.892 289.754V322.525C549.383 355.232 534.227 387.741 507.95 417.205C496.448 429.985 483.718 441.602 469.944 451.891C444.882 470.784 417.891 483.34 390.991 489.664C333.554 503.174 276.527 488.314 239.453 446.259C228.368 433.804 220.063 419.13 215.091 403.215L215.19 403.024C265.808 432.877 335.307 426.949 393.281 383.283C417.071 365.357 435.406 345.043 447.828 323.634L447.884 323.669C447.881 323.641 447.881 323.613 447.884 323.585C475.441 276.068 473.9 223.167 438.275 178.985L438.106 178.773C429.647 168.289 419.567 159.225 408.246 151.923L474.96 190.636L492.321 200.719L504.855 207.99C533.988 224.912 551.908 256.063 551.892 289.754Z" fill="url(#paint6_linear)" stroke="#B4D57C" stroke-width="0.5"/>
<path fill-rule="evenodd" clip-rule="evenodd" d="M447.87 323.873C447.873 323.889 447.873 323.906 447.87 323.922C397.421 291.999 325.711 294.409 268.797 338.866C245.699 356.905 227.442 379.254 215.232 403.313L215.041 403.199C215.077 403.305 215.105 403.404 215.133 403.503C190.954 451.267 190.601 505.723 223.464 546.485C224.114 547.295 224.783 548.105 225.47 548.915C234.361 559.403 244.853 568.42 256.559 575.631L184.15 533.639L168.422 524.525L158.29 518.646C129.157 501.737 111.227 470.601 111.225 436.917V408.054C114.185 372.52 130.599 336.146 156.82 304.958C167.477 292.304 179.426 280.798 192.473 270.626C219.076 249.853 248.406 237.099 277.544 231.8C333.717 221.569 389.183 239.042 423.013 280.108C434.453 293.964 442.677 308.717 447.87 323.873Z" fill="url(#paint7_linear)" stroke="#B4D57C" stroke-width="0.5"/>
<defs>
<linearGradient id="paint0_linear" x1="1" y1="428.772" x2="534.552" y2="428.772" gradientUnits="userSpaceOnUse">
<stop offset="0.33" stop-color="#86BE26"/>
<stop offset="0.67" stop-color="#9CC950"/>
<stop offset="1" stop-color="#B4D57C"/>
</linearGradient>
<linearGradient id="paint1_linear" x1="130.359" y1="723.634" x2="661.558" y2="723.634" gradientUnits="userSpaceOnUse">
<stop offset="0.23" stop-color="#86BE26"/>
<stop offset="0.27" stop-color="#8AC02E"/>
<stop offset="0.48" stop-color="#9CC950"/>
<stop offset="0.67" stop-color="#A9D068"/>
<stop offset="0.85" stop-color="#B1D477"/>
<stop offset="1" stop-color="#B4D57C"/>
</linearGradient>
<linearGradient id="paint2_linear" x1="379.484" y1="691.515" x2="774.478" y2="376.996" gradientUnits="userSpaceOnUse">
<stop offset="0.33" stop-color="#B4D57C"/>
<stop offset="1" stop-color="#C4E58B"/>
</linearGradient>
<linearGradient id="paint3_linear" x1="207.357" y1="754.45" x2="613.981" y2="442.477" gradientUnits="userSpaceOnUse">
<stop stop-color="#B4D57C"/>
<stop offset="0.19" stop-color="#B1D376"/>
<stop offset="0.43" stop-color="#A8CF65"/>
<stop offset="0.72" stop-color="#99C749"/>
<stop offset="1" stop-color="#86BE26"/>
</linearGradient>
<linearGradient id="paint4_linear" x1="111.225" y1="407.746" x2="466.926" y2="407.746" gradientUnits="userSpaceOnUse">
<stop offset="0.33" stop-color="#86BE26"/>
<stop offset="0.67" stop-color="#9CC950"/>
<stop offset="1" stop-color="#B4D57C"/>
</linearGradient>
<linearGradient id="paint5_linear" x1="197.464" y1="604.54" x2="551.597" y2="604.54" gradientUnits="userSpaceOnUse">
<stop offset="0.23" stop-color="#86BE26"/>
<stop offset="0.27" stop-color="#8AC02E"/>
<stop offset="0.48" stop-color="#9CC950"/>
<stop offset="0.67" stop-color="#A9D068"/>
<stop offset="0.85" stop-color="#B1D477"/>
<stop offset="1" stop-color="#B4D57C"/>
</linearGradient>
<linearGradient id="paint6_linear" x1="363.548" y1="583.103" x2="627.104" y2="373.477" gradientUnits="userSpaceOnUse">
<stop offset="0.33" stop-color="#B4D57C"/>
<stop offset="1" stop-color="#C4E58B"/>
</linearGradient>
<linearGradient id="paint7_linear" x1="248.796" y1="625.107" x2="520.102" y2="417.185" gradientUnits="userSpaceOnUse">
<stop stop-color="#B4D57C"/>
<stop offset="0.19" stop-color="#B1D376"/>
<stop offset="0.43" stop-color="#A8CF65"/>
<stop offset="0.72" stop-color="#99C749"/>
<stop offset="1" stop-color="#86BE26"/>
</linearGradient>
</defs>
</svg>
