<svg width="123" height="58" viewBox="0 0 123 58" fill="none" xmlns="http://www.w3.org/2000/svg">
<g clip-path="url(#clip0)">
<path fill-rule="evenodd" clip-rule="evenodd" d="M24.9035 32.2909L26.2175 33.2359L20.3576 20.3178L17.2567 27.2378L17.7311 27.5496C19.857 28.8024 22.2714 30.3981 24.9035 32.2909ZM30.1044 35.8246L28.0708 37.8329C26.8906 36.9071 23.6668 34.4248 20.1041 32.048C19.136 31.4024 18.1916 30.7994 17.3119 30.2628C16.0877 29.4405 14.8411 28.7498 13.625 28.2162C11.412 27.1405 9.39315 26.578 9.04857 27.003C8.6833 27.4536 8.93689 28.7022 10.5432 31.1423C10.8188 31.5604 11.1262 31.9961 11.4587 32.4373L11.9563 33.0812L13.444 29.8609L14.7071 32.6987L13.5035 35.4042H10.557C10.0054 34.7083 9.22792 33.6871 8.50526 32.5897C6.54026 29.602 6.02323 27.3718 6.92787 25.7677C7.22712 25.2392 7.97311 24.3501 9.62079 24.3501C10.9045 24.3501 12.5949 24.8743 14.7885 25.95L15.1965 26.1501L18.8739 17.8018H21.9363L30.1044 35.8246ZM19.1869 45.0906C28.1644 45.0906 35.4666 37.8725 35.4666 29C35.4666 20.1274 28.1644 12.9093 19.1869 12.9093C10.2108 12.9093 2.90722 20.1274 2.90722 29C2.90722 37.8725 10.2108 45.0906 19.1869 45.0906ZM19.1869 10.5454C29.4908 10.5454 37.8741 18.8243 37.8741 29C37.8741 39.1756 29.4908 47.4545 19.1869 47.4545C8.88302 47.4545 0.499756 39.1756 0.499756 29C0.499756 18.8243 8.88302 10.5454 19.1869 10.5454ZM48.8305 35.823C50.3787 35.823 51.9396 34.7719 51.9396 32.4217H51.94V29.7282C51.7347 29.8233 51.4738 29.905 51.1431 29.9787L47.94 30.7017C46.4273 31.0599 45.7227 31.8264 45.7227 33.1146C45.7227 34.4177 46.9112 35.823 48.8305 35.823ZM54.3885 26.4852V32.5132C54.3885 35.7441 52.1022 38.0019 48.8299 38.0023C45.7139 38.0023 43.2732 35.8548 43.2732 33.1152C43.2732 30.7351 44.6134 29.277 47.3711 28.6587L51.1256 27.8146C51.6125 27.7085 51.9393 27.4892 51.9393 27.2699V26.517C51.9393 24.7549 50.6323 23.4765 48.8302 23.4765C47.0876 23.4765 45.7224 24.7591 45.7224 26.3957V26.5469C45.7224 27.1895 45.2645 27.5736 44.4981 27.5736C43.7318 27.5736 43.2739 27.1895 43.2739 26.5469V26.3357C43.2739 23.5115 45.7145 21.2988 48.8305 21.2988C52.0513 21.2988 54.3885 23.48 54.3885 26.4852ZM64.1961 35.86C66.1223 35.86 67.3659 34.5257 67.3659 32.4587V26.9141C67.3659 24.8474 66.1223 23.5128 64.1961 23.5128C62.2698 23.5128 61.0262 24.847 61.0262 26.9141V32.4587C61.0262 34.5254 62.2698 35.86 64.1961 35.86ZM69.8148 17.4206V32.6098C69.8148 36.3394 66.9011 38.0386 64.1964 38.0389C61.4897 38.0389 58.5777 36.3394 58.5777 32.6098V26.7629C58.5777 23.1994 61.2666 21.3355 63.9221 21.3355C65.2456 21.3355 66.5086 21.8094 67.3663 22.6019V17.4206C67.3663 16.7767 67.8242 16.3913 68.5905 16.3913C69.3569 16.3913 69.8148 16.7767 69.8148 17.4206ZM71.9076 41.8444C73.6121 41.1706 74.6268 39.5895 74.6268 37.6097H74.6271V22.2405C74.6271 21.5966 75.0834 21.2112 75.85 21.2112C76.6164 21.2112 77.0743 21.5966 77.0743 22.2405V37.7294C77.0743 40.7729 75.5064 43.1339 72.8812 44.0477C72.7307 44.1048 72.5612 44.1363 72.3957 44.1363C71.8911 44.1363 71.4966 43.8531 71.3146 43.3587C71.0059 42.5594 71.4181 42.0514 71.9076 41.8444ZM77.1942 17.6763V18.8814C77.1942 19.6236 76.6785 20.1206 75.9105 20.1206C75.1412 20.1206 74.6241 19.6236 74.6241 18.8814V17.6763C74.6241 16.9353 75.1412 16.4371 75.9105 16.4371C76.6785 16.4371 77.1942 16.9357 77.1942 17.6763ZM92.7913 22.3116V32.6546C92.7913 36.3842 89.878 38.0837 87.1732 38.0837C84.4665 38.0837 81.5545 36.3842 81.5545 32.6546V22.3116C81.5545 21.6689 82.0124 21.2836 82.7788 21.2836C83.5451 21.2836 84.003 21.6689 84.003 22.3116V32.505C84.003 34.5705 85.2467 35.9063 87.1729 35.9063C89.0991 35.9063 90.3428 34.5708 90.3428 32.505V22.3116C90.3428 21.6689 90.8004 21.2836 91.567 21.2836C92.3334 21.2836 92.7913 21.6689 92.7913 22.3116ZM102.196 23.4349C100.582 23.4349 99.454 24.3501 99.454 25.6613C99.454 26.9806 100.46 27.8438 102.622 28.3781C106.192 29.2591 107.785 30.8289 107.785 33.4666C107.785 36.1545 105.649 37.9614 102.471 37.9614C99.4057 37.9614 97.0051 35.9462 97.0051 33.3767V33.2554C97.0051 32.6115 97.4627 32.2274 98.2294 32.2274C98.9957 32.2274 99.4536 32.6115 99.4536 33.2554V33.3767C99.4536 34.6811 100.835 35.7827 102.47 35.7827C104.238 35.7827 105.335 34.8949 105.335 33.4666C105.335 31.9932 104.288 31.1095 101.831 30.509C98.5835 29.7084 97.0048 28.1315 97.0048 25.6914C97.0048 23.1644 99.2372 21.2579 102.196 21.2579C105.227 21.2579 107.601 23.2458 107.601 25.7826V25.9922C107.601 26.6361 107.143 27.0215 106.377 27.0215C105.61 27.0215 105.153 26.6361 105.153 25.9922V25.9023C105.153 24.4957 103.881 23.4349 102.196 23.4349ZM115.773 23.9102V33.5152C115.773 34.6931 116.398 35.9524 118.151 35.9527C118.77 35.9527 119.353 35.7581 119.793 35.4055C119.997 35.2543 120.202 35.1807 120.413 35.1807C120.646 35.1807 120.991 35.2747 121.312 35.724C121.704 36.2713 121.598 36.8883 121.045 37.298C120.268 37.8277 119.217 38.1301 118.151 38.1301C115.309 38.1301 113.325 36.281 113.325 33.6352V23.9102H111.163C110.569 23.9102 110.213 23.5031 110.213 22.8222C110.213 22.14 110.569 21.7341 111.163 21.7341H113.325V17.4489C113.325 16.8049 113.782 16.4209 114.549 16.4209C115.316 16.4209 115.773 16.8049 115.773 17.4489V21.7341H120.224C120.685 21.7341 121.176 22.0203 121.176 22.8222C121.176 23.5031 120.82 23.9102 120.224 23.9102H115.773Z" fill="#97ADC6"/>
</g>
<defs>
<clipPath id="clip0">
<rect width="122" height="58" fill="white" transform="translate(0.499756)"/>
</clipPath>
</defs>
</svg>
