<svg width="180" height="58" viewBox="0 0 180 58" fill="none" xmlns="http://www.w3.org/2000/svg">
<path fill-rule="evenodd" clip-rule="evenodd" d="M18.642 10.5454C8.34758 10.5454 -0.000244141 18.8092 -0.000244141 29C-0.000244141 39.1907 8.34758 47.4545 18.642 47.4545C28.9364 47.4545 37.2842 39.1907 37.2842 29C37.2842 18.8092 28.9364 10.5454 18.642 10.5454ZM32.0509 29.3335C32.0285 29.3557 32.006 29.3705 31.9835 29.3854C31.9824 29.3865 31.9812 29.3875 31.98 29.3884L31.9772 29.3902L31.9723 29.3928L31.9723 29.3928C31.9705 29.3936 31.9688 29.3945 31.967 29.3956C31.965 29.3968 31.9631 29.3982 31.9611 29.4002C31.9461 29.4076 31.9311 29.415 31.9162 29.4298C31.9012 29.4372 31.8862 29.4446 31.8787 29.4521C31.744 29.5262 31.5867 29.5632 31.422 29.5632H22.595C22.6217 29.6775 22.6507 29.7976 22.6811 29.9235L22.6813 29.9246L22.6817 29.926L22.6821 29.9278L22.6826 29.93L22.6826 29.93L22.6827 29.93C22.7287 30.1206 22.7779 30.3245 22.8271 30.5415L22.8417 30.6036C23.339 32.7171 24.6075 38.1086 25.9641 38.1086H25.9941H26.009H26.0315C27.0941 38.1086 27.6331 36.6047 28.8123 33.3141L28.8391 33.2393L28.854 33.2023C28.9929 32.8215 29.1432 32.4031 29.3023 31.9604L29.3028 31.959L29.4979 31.4161L29.5578 31.253C29.6177 31.09 29.7749 30.9788 29.9546 30.9788C30.1942 30.9788 30.3814 31.1715 30.3814 31.4013C30.3814 31.4457 30.3739 31.4827 30.3664 31.5198L30.3664 31.5199L30.314 31.6829C30.2104 32.0085 30.1069 32.4273 29.9872 32.9114L29.9871 32.9117L29.9871 32.9118L29.9871 32.9118L29.9871 32.9119L29.9871 32.912C29.9597 33.0228 29.9315 33.1369 29.9022 33.2541C29.1909 36.1743 28.1128 40.5767 25.3577 40.5767H25.3352C23.5549 40.5619 22.4921 37.7504 22.0347 36.5406L22.0335 36.5374C21.18 34.2843 20.5362 31.8904 19.9148 29.5632H11.784L10.0995 34.9069L10.077 34.8847C9.91982 35.1218 9.6503 35.2775 9.35082 35.2775C8.87915 35.2775 8.49732 34.8995 8.48983 34.4326V34.4029L8.59465 33.7952C8.82674 32.4241 9.10376 30.9936 9.42569 29.5558H5.98923L5.97426 29.541C5.35285 29.4521 4.87369 28.911 4.87369 28.2736C4.87369 27.6511 5.31541 27.1249 5.92933 27.0137C5.98923 27.0063 6.10153 26.9989 6.33363 26.9989H6.49834C7.58393 27.0211 8.7369 27.0359 10.0097 27.0507C11.799 19.8468 13.8804 16.1855 16.1788 16.1781C18.6495 16.1781 20.4838 21.7441 21.9512 27.1916L21.9587 27.2138C24.9759 27.2731 28.1877 27.362 31.3097 27.5844L31.437 27.5992C31.4835 27.5992 31.5241 27.605 31.5693 27.6115L31.5693 27.6115L31.5867 27.614H31.6017H31.6167H31.6242C32.0809 27.7029 32.4178 28.0958 32.4178 28.5701C32.4103 28.8814 32.268 29.1556 32.0509 29.3335ZM16.4344 18.8536C16.3296 18.7202 16.2098 18.6461 16.0826 18.6461C15.9777 18.6461 15.8729 18.6906 15.813 18.735C14.8173 19.5058 13.4622 22.7743 12.3466 27.0877L13.3349 27.1026L13.8182 27.1081H13.8183H13.8184H13.8185H13.8185H13.8185H13.8185C15.6129 27.1285 17.4525 27.1495 19.2794 27.1767C18.7554 25.2052 18.2612 23.508 17.8045 22.1443C17.1382 20.1432 16.6965 19.2538 16.4344 18.8536ZM46.1559 37.234L47.6308 33.6172H56.2182L57.6931 37.234H61.9606L53.8225 18.357H50.0341L41.866 37.234H46.1559ZM49.1057 30.0004L51.8983 23.13L54.7358 30.0004H49.1057ZM86.1571 29.971V37.2268H82.2789V30.2971C82.2789 28.1997 81.2457 27.0657 79.4339 27.0657C78.6254 27.0657 77.7344 27.4215 76.9258 28.5258L76.9411 28.6606C76.9892 29.0841 77.0381 29.5147 77.0381 29.9636V37.2194H73.16V30.2897C73.16 28.1923 72.1268 27.0583 70.285 27.0583C69.5288 27.0583 68.6978 27.503 67.9117 28.548V37.212H64.0335V24.0122H67.9117V24.8126C68.7502 24.0418 69.6411 23.5972 71.1984 23.5972C72.8979 23.5972 74.4028 24.2568 75.4659 25.4723C76.8884 24.1752 78.2286 23.5972 80.3174 23.5972C83.5966 23.5972 86.1571 26.1096 86.1571 29.971ZM96.5658 37.5083C100.242 37.5083 103.199 34.4771 103.199 30.6379C103.199 26.7469 100.242 23.7379 96.5658 23.7304C95.061 23.7304 93.8107 24.1232 92.7775 24.7829V24.0121H88.8993V43.6006H92.7775V36.4559C93.8032 37.123 95.061 37.5083 96.5658 37.5083ZM95.922 26.9692C97.9285 26.9692 99.3809 28.6813 99.3809 30.6379C99.3809 32.5723 97.9285 34.2547 95.922 34.2621C94.7765 34.2621 93.631 33.8767 92.77 32.7428V28.5182C93.6385 27.3546 94.7765 26.9692 95.922 26.9692ZM109.249 37.2341H105.37V17.6381H109.249V37.2341ZM115.074 17.09C113.763 17.09 112.73 18.0535 112.73 19.3505C112.73 20.6179 113.763 21.5591 115.074 21.5591C116.354 21.5591 117.387 20.6179 117.387 19.3505C117.387 18.0535 116.354 17.09 115.074 17.09ZM117.028 37.2344V24.0123H113.149V37.2344H117.028ZM131.101 37.0415C129.484 37.538 128.757 37.6492 127.507 37.6492C124.273 37.6492 122.154 35.3887 122.154 31.9646V27.2435H119.339V24.0121H122.154V19.291H126.002V24.0121H130.824V27.2435H126.002V31.935C126.002 33.4247 126.923 34.1139 128.346 34.1139C129.072 34.1139 129.85 33.9509 130.607 33.7582L131.101 37.0415ZM142.782 37.234H146.66H146.668V24.0119H142.79V32.5129C141.899 33.5875 140.836 34.1656 139.862 34.1656C138.051 34.1656 136.987 33.0317 136.987 30.9342V24.0045H133.109V31.29C133.109 35.1291 135.453 37.6416 138.964 37.6416C140.469 37.6416 141.697 37.145 142.782 36.2927V37.234ZM163.108 37.2341H159.237V36.4633C158.204 37.1229 156.953 37.5157 155.449 37.5157C151.765 37.5157 148.785 34.5066 148.785 30.6156C148.785 26.7765 151.765 23.7452 155.449 23.7452C156.953 23.7452 158.211 24.1306 159.237 24.7976V17.6381H163.115V37.2341H163.108ZM159.237 32.7353V28.5108C158.376 27.3768 157.23 26.9914 156.085 26.9914C154.049 26.9914 152.626 28.6738 152.626 30.6082C152.626 32.5648 154.049 34.2769 156.085 34.2769C157.23 34.2769 158.368 33.8915 159.237 32.7353ZM168.994 31.6015H178.839C178.892 31.2161 178.921 30.9122 178.921 30.3489C178.921 26.2652 176.076 23.5897 172.258 23.5897C168.051 23.5897 165.176 26.5468 165.176 30.6306C165.176 34.5809 168.081 37.6418 172.37 37.6418C175.522 37.6418 178.031 35.9075 178.757 33.3654H174.714C174.295 34.025 173.538 34.3585 172.453 34.3585C170.334 34.3585 169.301 33.1504 168.994 31.6015ZM175.073 29.341H169.024C169.383 27.8513 170.416 26.7692 172.288 26.7766C173.845 26.7766 174.849 27.6882 175.073 29.341Z" fill="#97ADC6"/>
</svg>
