<svg width="202" height="58" viewBox="0 0 202 58" fill="none" xmlns="http://www.w3.org/2000/svg">
<g clip-path="url(#clip0)">
<path fill-rule="evenodd" clip-rule="evenodd" d="M111.885 22.5903L118.055 35.9531L120.529 36.0134L126.821 22.892V39.06H129.509V18.9706H126.058L119.429 33.0573L113.107 18.9404H109.35V39.0299H111.885V22.5903ZM58.6765 33.3011H66.8319L68.7868 39.0625H71.6274L64.9076 18.973H60.9368L54.2476 39.0625H56.7522L58.6765 33.3011ZM59.4401 30.9784L62.7389 21.0544L66.0683 30.9784H59.4401ZM78.7126 38.5475C79.5984 39.0904 80.6064 39.3619 81.6449 39.3317C82.5002 39.3317 83.3554 39.1809 84.1496 38.8491C84.9437 38.5475 85.6768 38.0648 86.2571 37.4616C86.868 36.7979 87.3873 35.9835 87.6927 35.1087C88.0898 34.053 88.2731 32.9067 88.2425 31.7605C88.2731 30.6444 88.0898 29.4982 87.7233 28.4424C87.3873 27.5677 86.9291 26.7834 86.2877 26.0896C85.7073 25.4561 85.0048 24.9735 84.2107 24.6719C83.4165 24.3702 82.5918 24.2194 81.7365 24.2194C80.6675 24.1591 79.5679 24.4607 78.6515 25.064C77.7963 25.6673 77.1243 26.4516 76.6661 27.3565L76.4523 24.4909H74.2226V44.0072H76.7272V36.3756C77.1854 37.2504 77.8879 38.0045 78.7126 38.5475ZM84.455 35.8025C83.6609 36.6773 82.4696 37.1599 81.2784 37.1297C80.6369 37.1599 80.0261 37.0393 79.4763 36.8281C78.9265 36.617 78.4377 36.2851 78.0407 35.8327C77.5825 35.3501 77.277 34.7769 77.0632 34.1435C76.5745 32.6051 76.5745 30.9461 77.0632 29.4077C77.277 28.7742 77.613 28.2011 78.0407 27.7185C78.4377 27.2962 78.9265 26.9342 79.4763 26.7231C80.0566 26.5119 80.6675 26.3912 81.2784 26.3912C82.5002 26.3309 83.6609 26.8437 84.455 27.7486C85.2797 28.6536 85.6768 30.011 85.6768 31.7605C85.6768 33.5704 85.2492 34.8976 84.455 35.8025ZM98.7522 39.3317C97.7137 39.3619 96.7057 39.0904 95.8199 38.5475C94.9952 38.0045 94.2927 37.2504 93.8345 36.3756V44.0072H91.3299V24.4909H93.5596L93.7735 27.3565C94.2316 26.4516 94.9036 25.6673 95.7588 25.064C96.6752 24.4607 97.7748 24.1591 98.8438 24.2194C99.6991 24.2194 100.524 24.3702 101.318 24.6719C102.112 24.9735 102.815 25.4561 103.395 26.0896C104.036 26.7834 104.495 27.5677 104.831 28.4424C105.197 29.4982 105.38 30.6444 105.35 31.7605C105.38 32.9067 105.197 34.053 104.8 35.1087C104.495 35.9835 103.975 36.7979 103.364 37.4616C102.784 38.0648 102.051 38.5475 101.257 38.8491C100.463 39.1809 99.6075 39.3317 98.7522 39.3317ZM98.3857 37.1297C99.5769 37.1599 100.768 36.6773 101.562 35.8025C102.356 34.8976 102.784 33.5704 102.784 31.7605C102.784 30.011 102.387 28.6536 101.562 27.7486C100.768 26.8437 99.6075 26.3309 98.3857 26.3912C97.7748 26.3912 97.1639 26.5119 96.5836 26.7231C96.0338 26.9342 95.545 27.2962 95.148 27.7185C94.7203 28.2011 94.3843 28.7742 94.1705 29.4077C93.6818 30.9461 93.6818 32.6051 94.1705 34.1435C94.3843 34.7769 94.6898 35.3501 95.148 35.8327C95.545 36.2851 96.0338 36.617 96.5836 36.8281C97.1639 37.0393 97.7748 37.1599 98.3857 37.1297ZM145.759 37.8238C145.514 38.0047 145.24 38.1556 144.965 38.3064C144.598 38.4874 144.232 38.6684 143.835 38.789C143.346 38.97 142.857 39.0907 142.338 39.1812C141.727 39.3018 141.086 39.332 140.475 39.332C138.001 39.332 136.107 38.6684 134.824 37.3411C133.541 36.0139 132.9 34.1437 132.9 31.7607C132.869 30.6748 133.052 29.6191 133.419 28.5935C133.724 27.7187 134.244 26.9043 134.885 26.2105C135.526 25.577 136.259 25.0642 137.115 24.7324C138.001 24.3705 138.947 24.1895 139.925 24.2196C140.902 24.2196 141.849 24.4006 142.735 24.7626C143.56 25.0944 144.262 25.6374 144.781 26.3311C145.362 27.0853 145.728 27.9902 145.881 28.8951C146.095 30.0715 146.064 31.2781 145.881 32.4545H135.465C135.557 34.0231 136.046 35.1995 136.901 35.9837C137.787 36.768 139.008 37.1601 140.597 37.1601C141.513 37.1903 142.399 37.0093 143.254 36.6775C143.896 36.406 144.507 36.0742 145.087 35.6821L145.759 37.8238ZM139.864 26.3915C138.825 26.3613 137.848 26.7233 137.054 27.3869C136.29 28.0505 135.771 29.0459 135.587 30.3732H143.529C143.59 29.7699 143.499 29.1968 143.315 28.6236C143.163 28.1712 142.918 27.7489 142.582 27.3869C142.246 27.0551 141.849 26.8138 141.391 26.663C140.902 26.4518 140.383 26.3915 139.864 26.3915ZM153.701 39.3318C154.282 39.3318 154.831 39.2715 155.381 39.1508C155.839 39.0603 156.298 38.8793 156.725 38.6682L156.298 36.5567C155.962 36.7377 155.595 36.8885 155.229 36.979C154.831 37.0695 154.465 37.1298 154.068 37.1298C153.579 37.16 153.09 37.0091 152.693 36.7075C152.357 36.3455 152.205 35.8327 152.235 35.3501V26.5723H156.511V24.4608H152.235V21.4142H149.7V24.4909H147.928V26.6024H149.7V35.6819C149.7 36.1344 149.761 36.5868 149.914 37.0393C150.067 37.4616 150.311 37.8839 150.616 38.2157C150.952 38.5777 151.38 38.8492 151.869 39.0301C152.449 39.2413 153.06 39.362 153.701 39.3318ZM164.055 27.7484C163.2 28.2009 162.528 28.8947 162.131 29.7996V39.06H159.626V24.4907H161.856L162.07 27.6579H162.131C162.558 26.7832 163.169 25.9989 163.933 25.3956C164.788 24.732 165.827 24.3097 166.926 24.189V26.934C165.949 27.0245 164.971 27.296 164.055 27.7484ZM169.919 21.8967C170.255 22.1984 170.682 22.3794 171.14 22.3492C171.568 22.3794 171.996 22.1984 172.301 21.8967C172.576 21.5649 172.729 21.1728 172.729 20.7505C172.729 20.3282 172.576 19.9059 172.301 19.6042C172.026 19.2724 171.599 19.0914 171.14 19.1216C170.682 19.0914 170.224 19.2724 169.919 19.6042C169.613 19.9059 169.461 20.3282 169.461 20.7505C169.43 21.1728 169.613 21.5951 169.919 21.8967ZM172.362 39.0602V24.4909H169.858V39.0602H172.362ZM182.748 39.3315C181.74 39.3315 180.732 39.1807 179.755 38.8187C178.869 38.4869 178.075 38.0043 177.403 37.3407C176.731 36.677 176.211 35.8626 175.875 34.9878C175.142 32.9367 175.142 30.6743 175.875 28.6232C176.211 27.7182 176.731 26.9038 177.433 26.21C178.105 25.5464 178.899 25.0336 179.785 24.7018C180.732 24.3398 181.709 24.1588 182.717 24.189C183.542 24.189 184.397 24.2795 185.192 24.4605C185.894 24.6113 186.535 24.913 187.116 25.3051L186.505 27.4468C185.986 27.1753 185.436 26.934 184.886 26.7228C184.214 26.4815 183.481 26.3608 182.748 26.391C181.282 26.391 180.091 26.8435 179.205 27.7484C178.319 28.6533 177.891 30.0107 177.891 31.8206C177.891 33.54 178.319 34.837 179.205 35.7721C180.091 36.7072 181.251 37.1597 182.717 37.1597C183.389 37.1597 184.031 37.0692 184.672 36.8882C185.253 36.7072 185.833 36.4659 186.352 36.1643L186.963 38.1853C186.413 38.5774 185.802 38.8489 185.13 39.06C184.397 39.241 183.573 39.3617 182.748 39.3315ZM197.868 37.6125C198.143 37.3109 198.418 36.979 198.631 36.6472V36.7076C198.631 36.9942 198.654 37.3483 198.68 37.7505C198.684 37.814 198.688 37.8786 198.692 37.9443C198.714 38.289 198.752 38.5722 198.782 38.8048C198.795 38.8979 198.806 38.9828 198.815 39.0604H201.106C201.075 38.9397 201.044 38.7889 201.044 38.5778C201.044 38.4757 201.037 38.3807 201.03 38.2825C201.022 38.1776 201.014 38.069 201.014 37.9443C201.014 37.8196 201.006 37.703 200.998 37.5903C200.99 37.4848 200.983 37.3827 200.983 37.2807V36.7076V28.895C200.983 27.3265 200.495 26.1199 199.487 25.3658C198.479 24.6117 197.043 24.2195 195.149 24.2195C194.08 24.1894 193.011 24.3402 192.003 24.6418C191.24 24.853 190.537 25.1546 189.865 25.5468L190.476 27.5979C191.087 27.236 191.759 26.9645 192.431 26.7533C193.256 26.512 194.111 26.3914 194.997 26.3914C196.249 26.3914 197.135 26.6025 197.685 27.0248C198.234 27.4773 198.509 28.1711 198.509 29.1966V30.2826H196.341C191.606 30.2826 189.224 31.8511 189.224 35.0184C189.224 36.4059 189.621 37.4617 190.445 38.2158C191.27 38.9699 192.339 39.3319 193.653 39.3319C194.264 39.3319 194.844 39.2414 195.424 39.0906C195.913 38.9699 196.402 38.7587 196.829 38.4873C197.196 38.246 197.562 37.9443 197.868 37.6125ZM195.669 36.9187C195.18 37.0695 194.691 37.1299 194.202 37.1299C193.347 37.1299 192.706 36.9489 192.37 36.4964C191.942 36.0741 191.728 35.501 191.759 34.8977C191.728 34.1134 192.125 33.3593 192.828 32.937C193.561 32.4846 194.813 32.2432 196.585 32.2432H198.509V34.6866C198.295 34.9881 198.051 35.2595 197.807 35.5309L197.807 35.5312C197.501 35.8328 197.196 36.0741 196.86 36.3154C196.493 36.5869 196.096 36.7679 195.669 36.9187Z" fill="#97ADC6"/>
<path d="M20.037 9.22729C8.97985 9.22729 -0.000244141 18.0654 -0.000244141 29.0151H12.1259L20.037 16.1349L27.948 29.0151H40.0742C40.0437 18.0956 31.0941 9.22729 20.037 9.22729Z" fill="#97ADC6" fill-opacity="0.2"/>
<path d="M-0.000244141 29.0149C-0.000244141 33.5697 1.58807 37.9737 4.4898 41.4728L12.1259 29.0149H-0.000244141Z" fill="#97ADC6"/>
<path d="M35.5546 41.4728C38.4563 37.9435 40.0446 33.5395 40.0446 29.0149H27.9185L35.5546 41.4728Z" fill="#97ADC6"/>
<path d="M20.036 16.1348L12.125 29.0149H27.9165L20.036 16.1348Z" fill="#97ADC6"/>
<path d="M12.1252 29.0149L4.48901 41.4728C8.27654 46.0879 13.9884 48.7725 20.0362 48.7725C26.0535 48.7725 31.7653 46.0879 35.5834 41.4728L27.9472 29.0149H12.1252Z" fill="#97ADC6" fill-opacity="0.2"/>
</g>
<defs>
<clipPath id="clip0">
<rect width="202" height="58" fill="white" transform="translate(-0.000244141)"/>
</clipPath>
</defs>
</svg>
