<svg width="148" height="58" viewBox="0 0 148 58" fill="none" xmlns="http://www.w3.org/2000/svg">
<g clip-path="url(#clip0)">
<path fill-rule="evenodd" clip-rule="evenodd" d="M17.5432 18.0769L25.2282 8.34089C25.4491 8.06124 25.7157 7.92012 25.9822 7.90942C26.3494 7.89677 26.7176 8.13229 26.9724 8.59944L33.3964 20.435C33.8358 21.2429 33.7655 22.4363 33.2413 23.1002L25.5554 32.838C25.0311 33.5015 24.2498 33.3851 23.8119 32.5779L17.3869 20.7426C16.9484 19.934 17.018 18.742 17.5432 18.0769ZM0.681643 21.2668L7.00516 33.1559C7.43692 33.9659 8.50115 34.6234 9.38027 34.6212L22.2802 34.5943C23.1608 34.5926 23.5242 33.9335 23.0928 33.1221L16.7687 21.2336C16.3373 20.422 15.2733 19.7664 14.3933 19.7683L1.49359 19.7948C1.48369 19.7948 1.47396 19.7949 1.46423 19.7951L1.46406 19.7951C1.45427 19.7952 1.44448 19.7954 1.43453 19.7954C0.597676 19.8266 0.259365 20.4735 0.681643 21.2668ZM25.1848 35.1194L29.0142 42.172C29.2747 42.6531 29.9118 43.0392 30.4364 43.0334L38.1223 42.9531C38.6472 42.9479 38.8589 42.5535 38.5986 42.072L34.7704 35.0201C34.5095 34.5386 33.8715 34.1534 33.3482 34.1588L25.6621 34.2386H25.6356C25.1304 34.2571 24.9284 34.6455 25.1848 35.1194ZM23.4299 35.2376L18.8496 41.039C18.536 41.4351 18.4956 42.1459 18.7563 42.6266L22.5849 49.679C22.8468 50.1604 23.3117 50.2296 23.6246 49.8335L28.2036 44.0327C28.5159 43.6359 28.5576 42.9245 28.2971 42.4446L24.4684 35.3919C24.3176 35.1134 24.0975 34.9728 23.8783 34.9799C23.7201 34.9854 23.5605 35.07 23.4299 35.2376ZM110.019 37.3032H107.453V18.2366H110.019V37.3032ZM61.4818 24.2604C57.8022 24.2604 54.8191 27.2054 54.8191 30.838H54.8145V42.9819H57.3809V30.838H57.3933C57.3933 28.5911 59.2389 26.7696 61.5137 26.7696C63.7901 26.7696 65.635 28.5911 65.635 30.838C65.635 33.0842 63.7901 34.9057 61.5137 34.9057C60.2302 34.9057 59.0831 34.3253 58.3278 33.4166V36.6318C59.2668 37.1309 60.3419 37.4153 61.4818 37.4153C65.1637 37.4153 68.1475 34.4697 68.1475 30.838C68.1475 27.2054 65.1637 24.2604 61.4818 24.2604ZM69.2803 30.838C69.2803 27.2054 72.2627 24.2604 75.9436 24.2604C79.6235 24.2604 82.6073 27.2054 82.6073 30.838C82.6073 34.4697 79.6235 37.4153 75.9436 37.4153C74.8041 37.4153 73.727 37.1309 72.7886 36.6318V33.4166C73.5443 34.3253 74.6907 34.9057 75.9745 34.9057C78.252 34.9057 80.0968 33.0842 80.0968 30.838C80.0968 28.5911 78.252 26.7696 75.9745 26.7696C73.6991 26.7696 71.8548 28.5911 71.8548 30.838H71.8414V42.9819H69.2757V30.838H69.2803ZM46.5816 18.2366C42.9008 18.2366 39.918 21.1821 39.918 24.8143V37.3032H42.4843V24.8143H42.4883C42.4883 22.5824 44.3203 20.7731 46.5826 20.7731C48.8436 20.7731 50.6757 22.5824 50.6757 24.8143H50.6793V26.2441H44.0863V28.7764H50.6793V37.3032H53.247V24.8143C53.247 21.1821 50.2629 18.2366 46.5816 18.2366ZM102.982 20.7716C100.719 20.7716 98.885 22.5819 98.885 24.8143V26.5032H105.977V29.0363H98.885V37.3032H96.3184V24.8143C96.3184 21.1821 99.3021 18.2371 102.982 18.2366H106.213V20.7703H102.982V20.7716ZM120.763 24.3434V32.3052H120.762C120.729 33.9071 119.408 35.1964 117.774 35.1964C116.144 35.1964 114.821 33.9071 114.79 32.3052H114.787V24.3434H112.221V32.3132H112.225C112.256 34.874 114.066 37.0082 116.493 37.576V42.9819H119.058V37.576C121.484 37.0082 123.296 34.874 123.326 32.3132H123.328V24.3434H120.763ZM133.271 34.3396C134.267 33.7731 134.928 32.8541 135.189 31.8349H137.808C137.513 33.7385 136.377 35.4977 134.554 36.536C131.366 38.3519 127.292 37.2735 125.452 34.1281C123.612 30.9824 124.703 26.9597 127.89 25.1435C131.077 23.3268 135.154 24.4046 136.995 27.5504C137.214 27.9259 137.389 28.3132 137.527 28.7086L132.135 31.7814L129.467 33.3021L128.184 31.1075L133.947 27.8237C132.665 26.6935 130.745 26.4433 129.175 27.3381C127.216 28.4553 126.543 30.9264 127.675 32.8617C128.806 34.795 131.312 35.4579 133.271 34.3396ZM145.851 24.2607C144.304 24.2607 142.885 24.7819 141.756 25.6533V24.3206H139.188V37.3032H141.756V30.8383H141.756C141.756 28.605 143.59 26.7949 145.851 26.7949V26.7934H146.372V24.2607H145.851ZM85.9621 28.3438L92.3451 31.2816C93.9484 32.019 94.6413 33.8984 93.8932 35.4792C93.3505 36.6283 92.1982 37.2995 90.9936 37.3013V37.3032H83.5312V34.7715H90.9932V34.7683C91.2315 34.7696 91.4619 34.6372 91.5684 34.4096C91.7163 34.097 91.5799 33.726 91.2624 33.5806C91.2608 33.5792 91.2601 33.5792 91.2601 33.5792L91.2608 33.5777L84.8771 30.639C83.285 29.8969 82.5958 28.0243 83.3415 26.4475C83.8845 25.2985 85.0372 24.6274 86.2425 24.6261V24.6229H93.5254V27.1558H86.2425V27.161C86.0052 27.1619 85.7771 27.2925 85.6706 27.5191C85.5256 27.8269 85.6564 28.1906 85.9641 28.3415L85.9621 28.3438Z" fill="#97ADC6"/>
</g>
<defs>
<clipPath id="clip0">
<rect width="147" height="58" fill="white" transform="translate(0.499756)"/>
</clipPath>
</defs>
</svg>
