<svg width="97" height="58" viewBox="0 0 97 58" fill="none" xmlns="http://www.w3.org/2000/svg">
<g clip-path="url(#clip0)">
<path fill-rule="evenodd" clip-rule="evenodd" d="M89.9439 22.3104C92.0468 22.3104 93.6299 22.8117 94.6929 23.8143C95.7567 24.8169 96.2883 26.4219 96.2876 28.6293V37.261V39.658C96.2876 39.6884 96.2815 39.7185 96.2697 39.7466C96.258 39.7747 96.2407 39.8002 96.219 39.8216C96.1972 39.8431 96.1714 39.8602 96.143 39.8718C96.1145 39.8834 96.0841 39.8894 96.0533 39.8894H93.8592C93.8285 39.8894 93.798 39.8834 93.7696 39.8718C93.7411 39.8602 93.7153 39.8431 93.6936 39.8216C93.6718 39.8002 93.6545 39.7747 93.6428 39.7466C93.631 39.7185 93.6249 39.6884 93.6249 39.658V37.261V28.7242C93.6242 27.3193 93.2999 26.2694 92.6519 25.5746C92.0039 24.8798 90.9908 24.5324 89.6125 24.5324H89.5703C89.5107 24.5329 89.4528 24.5358 89.3956 24.5387C89.3343 24.5418 89.2737 24.5449 89.2125 24.5449C87.5926 24.6439 86.3874 25.3245 85.6022 26.227C84.7516 27.2033 84.3263 28.8149 84.3263 31.0619V39.6549C84.3263 39.7163 84.3016 39.7751 84.2576 39.8185C84.2137 39.8619 84.1541 39.8863 84.092 39.8863H81.8979C81.8358 39.8863 81.7762 39.8619 81.7322 39.8185C81.6883 39.7751 81.6636 39.7163 81.6636 39.6549V26.4365L81.7449 23.831L81.8969 18.9326L78.9746 17.1066C78.4903 17.506 77.878 17.7222 77.2472 17.7167C76.6163 17.7112 76.008 17.4843 75.531 17.0765C75.0539 16.6688 74.7393 16.1068 74.6432 15.491C74.5472 14.8753 74.6761 14.2458 75.0068 13.7153C75.3375 13.1847 75.8485 12.7876 76.4485 12.5949C77.0484 12.4022 77.6982 12.4265 78.2817 12.6634C78.8652 12.9003 79.3443 13.3345 79.6335 13.8883C79.9226 14.442 80.0029 15.0793 79.86 15.6861L81.9559 17.0055L82.167 10.3072C81.6679 10.1169 81.2519 9.76007 80.9912 9.29864C80.7304 8.83721 80.6414 8.30024 80.7394 7.78078C80.8375 7.26132 81.1164 6.7921 81.528 6.45442C81.9396 6.11674 82.4578 5.93188 82.9928 5.93188C83.5279 5.93188 84.0461 6.11674 84.4577 6.45442C84.8692 6.7921 85.1482 7.26132 85.2462 7.78078C85.3443 8.30024 85.2552 8.83721 84.9945 9.29864C84.7337 9.76007 84.3178 10.1169 83.8186 10.3072L83.9326 13.5381L85.8618 12.3594C85.7194 11.7895 85.7854 11.1883 86.0481 10.6618C86.3108 10.1353 86.7534 9.71734 87.2977 9.48161C87.8419 9.24588 88.4531 9.20754 89.0232 9.37335C89.5933 9.53915 90.0858 9.89846 90.4139 10.3879C90.742 10.8773 90.8845 11.4654 90.8163 12.0485C90.7481 12.6316 90.4736 13.1721 90.0413 13.5748C89.6089 13.9776 89.0464 14.2166 88.453 14.2497C87.8596 14.2828 87.2735 14.108 86.7979 13.7559L84.0002 15.4464L84.1426 19.4954L86.1478 18.2698C86.0652 17.7807 86.1565 17.2785 86.4062 16.8483C86.6559 16.4182 87.0486 16.0866 87.5176 15.9098C87.9866 15.733 88.5032 15.7218 88.9796 15.8783C89.456 16.0347 89.8629 16.3491 90.1313 16.7681C90.3998 17.1871 90.5132 17.6849 90.4523 18.1771C90.3914 18.6692 90.16 19.1254 89.7973 19.4682C89.4346 19.8111 88.963 20.0195 88.4625 20.058C87.9619 20.0966 87.4633 19.963 87.0512 19.6799L84.2081 21.4016L84.3305 24.7565C84.8655 23.7695 86.7778 22.3104 89.9439 22.3104ZM88.9357 16.9224C88.7274 16.785 88.4826 16.7116 88.2321 16.7116C87.8962 16.7116 87.5741 16.8434 87.3366 17.078C87.0991 17.3125 86.9657 17.6306 86.9657 17.9623C86.9657 18.2097 87.04 18.4515 87.1791 18.6571C87.3183 18.8628 87.5161 19.0231 87.7475 19.1178C87.9789 19.2124 88.2335 19.2372 88.4792 19.1889C88.7248 19.1407 88.9505 19.0216 89.1276 18.8466C89.3047 18.6717 89.4253 18.4489 89.4742 18.2063C89.523 17.9637 89.498 17.7122 89.4021 17.4837C89.3063 17.2552 89.144 17.0598 88.9357 16.9224ZM88.5562 10.3237C88.265 10.2844 87.9686 10.3313 87.7044 10.4584H87.7097C87.5339 10.5424 87.3765 10.6599 87.2466 10.804C87.1168 10.9481 87.0169 11.1161 86.9528 11.2984C86.8887 11.4806 86.8616 11.6736 86.8731 11.8662C86.8845 12.0588 86.9343 12.2473 87.0195 12.4209C87.1483 12.6817 87.3525 12.899 87.6064 13.0452C87.8602 13.1914 88.1522 13.26 88.4455 13.2424C88.7389 13.2247 89.0203 13.1215 89.2542 12.9459C89.4882 12.7703 89.6642 12.5302 89.7599 12.2558C89.8557 11.9814 89.8669 11.6852 89.7922 11.4045C89.7175 11.1239 89.5602 10.8714 89.3402 10.679C89.1202 10.4866 88.8473 10.363 88.5562 10.3237ZM76.3854 16.4033C76.6489 16.5772 76.9586 16.67 77.2755 16.67C77.7002 16.6694 78.1073 16.5025 78.4077 16.206C78.708 15.9094 78.8769 15.5073 78.8775 15.0879C78.8775 14.775 78.7835 14.4691 78.6075 14.2089C78.4315 13.9488 78.1813 13.746 77.8885 13.6262C77.5958 13.5065 77.2737 13.4752 76.9629 13.5362C76.6522 13.5972 76.3667 13.7479 76.1427 13.9692C75.9186 14.1904 75.7661 14.4723 75.7042 14.7792C75.6424 15.0861 75.6742 15.4042 75.7954 15.6933C75.9167 15.9824 76.122 16.2295 76.3854 16.4033ZM81.8363 7.42916C81.6836 7.65519 81.6022 7.92088 81.6024 8.1926H81.6013C81.6019 8.55683 81.7488 8.90594 82.0098 9.1633C82.2708 9.42065 82.6245 9.56519 82.9934 9.56519C83.2685 9.56519 83.5375 9.4846 83.7662 9.33362C83.995 9.18264 84.1733 8.96804 84.2785 8.71698C84.3838 8.46592 84.4113 8.18968 84.3575 7.92319C84.3037 7.6567 84.1712 7.41195 83.9765 7.21988C83.7819 7.02782 83.534 6.89707 83.2641 6.84419C82.9942 6.7913 82.7145 6.81865 82.4603 6.92278C82.2062 7.02691 81.989 7.20313 81.8363 7.42916ZM3.14552 24.8065C4.38028 23.0847 6.20603 22.3396 8.63334 22.3396C10.9298 22.341 12.7133 23.116 13.984 24.6647C15.2546 26.2135 15.8899 28.4052 15.8899 31.2401C15.8899 34.077 15.2493 36.2802 13.9681 37.8498C12.6869 39.4193 10.9087 40.2041 8.63334 40.2041C7.56103 40.2163 6.49837 40.0031 5.51583 39.5788C4.56668 39.1584 3.74787 38.4962 3.14341 37.6601V39.6549C3.14341 39.7162 3.11872 39.7751 3.07479 39.8185C3.03085 39.8619 2.97126 39.8863 2.90912 39.8863H0.734044C0.671907 39.8863 0.612315 39.8619 0.568378 39.8185C0.52444 39.7751 0.499756 39.7162 0.499756 39.6549V13.5297C0.499756 13.4684 0.52444 13.4095 0.568378 13.3661C0.612315 13.3227 0.671907 13.2984 0.734044 13.2984H2.90912C2.94006 13.2981 2.97076 13.3039 2.99943 13.3154C3.02809 13.3269 3.05417 13.3439 3.07615 13.3654C3.09813 13.3869 3.11558 13.4125 3.12748 13.4407C3.13939 13.4689 3.14552 13.4992 3.14552 13.5297V24.8065ZM8.56263 37.5559C10.1625 37.5559 11.3547 37.0094 12.1392 35.9165V35.9175C12.9237 34.8267 13.317 33.2581 13.3191 31.2119C13.3191 29.1171 12.9269 27.5558 12.1424 26.5282C11.3579 25.5006 10.1446 24.9868 8.50247 24.9868C6.72315 24.9868 5.44125 25.4641 4.65678 26.4188C3.8723 27.3735 3.48006 28.9812 3.48006 31.2421C3.47936 33.5058 3.8818 35.124 4.68738 36.0968C5.49297 37.0695 6.78471 37.5559 8.56263 37.5559ZM50.6059 24.7553C51.141 23.7683 53.0533 22.3092 56.2193 22.3092C58.3251 22.3085 59.9095 22.8098 60.9726 23.8131C62.0357 24.8164 62.5672 26.4204 62.5672 28.625V39.6548C62.5672 39.7161 62.5425 39.775 62.4986 39.8184C62.4547 39.8617 62.3951 39.8861 62.3329 39.8861H60.1536C60.0915 39.8861 60.0319 39.8617 59.988 39.8184C59.944 39.775 59.9194 39.7161 59.9194 39.6548V28.723C59.9194 27.3181 59.595 26.2682 58.9463 25.5734C58.2976 24.8786 57.2824 24.5312 55.9006 24.5312C54.0717 24.5312 52.7324 25.2503 51.8818 26.2269C51.0312 27.2031 50.6059 28.8147 50.6059 31.0617V39.6548C50.6059 39.7161 50.5812 39.775 50.5373 39.8184C50.4934 39.8617 50.4338 39.8861 50.3716 39.8861H48.1923C48.1302 39.8861 48.0706 39.8617 48.0267 39.8184C47.9827 39.775 47.958 39.7161 47.958 39.6548V22.8605C47.958 22.7992 47.9827 22.7403 48.0267 22.6969C48.0706 22.6536 48.1302 22.6292 48.1923 22.6292H50.3716C50.4338 22.6292 50.4934 22.6536 50.5373 22.6969C50.5812 22.7403 50.6059 22.7992 50.6059 22.8605V24.7553ZM78.2288 23.1128C77.6563 22.8751 77.0608 22.6956 76.4515 22.5771C75.6245 22.4 74.7808 22.3103 73.9345 22.3092C71.3313 22.3092 69.3262 23.0968 67.919 24.6719C66.5119 26.247 65.8083 28.4781 65.8083 31.365C65.8083 34.179 66.5021 36.3551 67.8895 37.8934C69.2769 39.4317 71.2357 40.2009 73.7657 40.2009C75.4761 40.2009 76.905 39.923 78.0525 39.3671C78.0916 39.3477 78.1245 39.3179 78.1474 39.2811C78.1704 39.2443 78.1824 39.2019 78.1823 39.1587V37.3275C78.182 37.2903 78.1726 37.2537 78.1549 37.2208C78.1372 37.1879 78.1117 37.1598 78.0807 37.1387C78.0496 37.1176 78.0138 37.1043 77.9764 37.0997C77.939 37.0952 77.901 37.0997 77.8657 37.1128C76.5405 37.6312 75.1298 37.9039 73.7045 37.9174C72.0032 37.9174 70.7196 37.3504 69.8535 36.2165C68.9874 35.0826 68.5501 33.455 68.5417 31.3337C68.5417 26.8613 70.3171 24.625 73.868 24.625C74.486 24.6354 75.101 24.7119 75.7022 24.8533C76.2759 24.9782 76.8401 25.1423 77.3908 25.3441C77.4197 25.3551 77.4505 25.3603 77.4814 25.3593C77.5123 25.3583 77.5427 25.3513 77.5708 25.3386C77.5989 25.3259 77.6242 25.3077 77.6451 25.2852C77.666 25.2627 77.6822 25.2364 77.6926 25.2076L78.3533 23.4046C78.3737 23.3494 78.3722 23.2886 78.3491 23.2345C78.326 23.1803 78.283 23.1369 78.2288 23.1128ZM38.4445 21.8787C40.5285 21.8787 42.0728 22.3356 43.0775 23.2492C44.0822 24.1622 44.5846 25.7433 44.5846 27.7589V39.6495C44.5846 39.7109 44.5599 39.7697 44.5159 39.8131C44.472 39.8565 44.4124 39.8809 44.3503 39.8809H42.2396C42.1774 39.8809 42.1178 39.8565 42.0739 39.8131C42.03 39.7697 42.0053 39.7109 42.0053 39.6495V38.378C41.3144 39.0286 40.4923 39.5279 39.5928 39.8433C38.9218 40.0782 38.215 40.1973 37.5032 40.1956C36.1535 40.1947 34.8376 39.7783 33.7387 39.0044C32.2824 37.9715 31.3832 36.6396 31.2059 34.8355C31.1133 33.9039 31.223 32.9636 31.5276 32.0772C31.8323 31.1908 32.3249 30.3788 32.9725 29.6953C33.8061 28.8308 34.8267 28.1635 35.9581 27.7433C37.2034 27.2659 38.4308 27.194 39.4672 27.1857L41.9135 27.1669C41.8744 26.3592 41.524 25.4441 41.122 25.0043C40.5317 24.3589 39.5882 24.0361 38.2915 24.0361C36.8942 24.0361 35.3214 24.4415 33.573 25.2524C33.5443 25.2658 33.5132 25.2733 33.4815 25.2744C33.4497 25.2755 33.4181 25.2703 33.3885 25.259C33.3589 25.2477 33.3319 25.2305 33.3092 25.2086C33.2865 25.1867 33.2686 25.1605 33.2564 25.1315L32.6148 23.5536C32.5927 23.5005 32.5912 23.4412 32.6107 23.3871C32.6302 23.3331 32.6692 23.288 32.7203 23.2607C33.5593 22.8344 34.4444 22.503 35.3587 22.2727C36.3662 22.0125 37.4032 21.8801 38.4445 21.8787ZM38.6408 37.8392C40.9151 37.0388 42.0454 34.577 42.0538 32.3342C42.0538 32.3342 42.0633 29.5202 42.0612 29.5067L39.4323 29.5004C38.5015 29.5077 37.5834 29.5692 36.7074 29.9048C35.8994 30.2034 35.1692 30.6767 34.5703 31.2899C32.9514 32.995 32.9968 35.8881 34.9872 37.3076C35.5098 37.6763 36.1137 37.9168 36.749 38.0092C37.3843 38.1016 38.0328 38.0433 38.6408 37.8392ZM29.0232 22.6252C28.3978 22.5379 27.7668 22.4961 27.1352 22.5001C24.0366 22.6102 21.8489 24.5713 21.8415 24.7836V23.0139C21.8415 22.9525 21.8169 22.8935 21.773 22.85C21.7291 22.8064 21.6695 22.7818 21.6073 22.7815H19.429C19.3669 22.7815 19.3073 22.8059 19.2634 22.8493C19.2194 22.8927 19.1947 22.9515 19.1947 23.0129V39.8134C19.1947 39.8747 19.2194 39.9336 19.2634 39.977C19.3073 40.0204 19.3669 40.0447 19.429 40.0447H21.6083C21.6705 40.0447 21.73 40.0204 21.774 39.977C21.8179 39.9336 21.8426 39.8747 21.8426 39.8134V30.7815C21.8426 29.0911 22.3449 27.6789 23.3496 26.5449C24.3543 25.411 25.5638 24.8441 26.9779 24.8441C27.5392 24.8519 28.0984 24.914 28.6475 25.0296C28.6787 25.036 28.711 25.0361 28.7423 25.0299C28.7736 25.0236 28.8033 25.0112 28.8295 24.9932C28.8558 24.9753 28.8781 24.9522 28.8951 24.9255C28.912 24.8988 28.9233 24.869 28.9282 24.8378L29.2237 22.8857C29.2279 22.8556 29.226 22.825 29.2182 22.7956C29.2103 22.7662 29.1967 22.7386 29.1781 22.7144C29.1595 22.6902 29.1362 22.6699 29.1096 22.6546C29.0831 22.6393 29.0537 22.6293 29.0232 22.6252Z" fill="#97ADC6"/>
</g>
<defs>
<clipPath id="clip0">
<rect width="96" height="58" fill="white" transform="translate(0.499756)"/>
</clipPath>
</defs>
</svg>
