<svg width="171" height="58" viewBox="0 0 171 58" fill="none" xmlns="http://www.w3.org/2000/svg">
<g clip-path="url(#clip0)">
<path fill-rule="evenodd" clip-rule="evenodd" d="M39.3392 29.1525C39.3392 23.6363 43.0199 19.7727 48.2711 19.7727H48.6569C51.9518 19.7727 54.5001 21.4249 55.8514 23.8143C55.9414 23.9669 55.9157 24.0939 55.7613 24.1703L53.4963 25.2759C53.3417 25.3521 53.1485 25.3521 53.0457 25.1616C52.0933 23.5348 50.6648 22.6705 48.5541 22.6705H48.1679C44.8605 22.6705 42.5823 25.2633 42.5823 29.0255C42.5823 32.8003 44.8218 35.3295 48.1679 35.3295H48.5541C50.7164 35.3295 51.9774 34.6049 52.9428 33.4992C53.0714 33.3593 53.2131 33.334 53.3675 33.4102L55.6969 34.5287C55.787 34.5795 55.8256 34.643 55.8256 34.7067C55.8256 34.7702 55.7998 34.8211 55.7485 34.8972C54.3199 36.9563 51.7459 38.2273 48.6057 38.2273H48.2195C42.8786 38.2273 39.3392 34.6049 39.3392 29.1525ZM13.9873 22.6956V20.357C13.9873 20.2045 13.8844 20.1028 13.7299 20.1028H0.757008C0.6026 20.1028 0.499756 20.2045 0.499756 20.357V37.6423C0.499756 37.7949 0.6026 37.8965 0.757008 37.8965H3.3053C3.45985 37.8965 3.5627 37.7949 3.5627 37.6423V30.5756H11.954C12.1084 30.5756 12.2114 30.4741 12.2114 30.3216V27.9828C12.2114 27.8303 12.1084 27.7288 11.954 27.7288H3.5627V22.9498H13.7299C13.8844 22.9498 13.9873 22.8481 13.9873 22.6956ZM26.2909 22.8989C27.3593 25.2375 28.4018 27.8049 29.3411 30.3722H22.623C23.5626 27.8049 24.6179 25.2375 25.6862 22.8989H26.2909ZM31.9281 37.8965H34.7338C34.914 37.8965 35.0169 37.7949 34.9654 37.6169C33.3309 31.9484 30.8985 25.6824 28.376 20.4333C28.2601 20.1918 28.1185 20.1028 27.874 20.1028H24.219C23.9745 20.1028 23.8329 20.1918 23.717 20.4333C21.2203 25.695 18.7492 31.9484 17.1276 37.6169C17.076 37.7949 17.1792 37.8965 17.3594 37.8965H20.0619C20.2163 37.8965 20.3195 37.8201 20.358 37.6676C20.7184 36.206 21.1688 34.6681 21.6835 33.1175H30.2936C30.8086 34.6681 31.2587 36.206 31.6322 37.6676C31.6707 37.8201 31.7737 37.8965 31.9281 37.8965ZM76.3537 37.6423V35.3037C76.3537 35.1512 76.2505 35.0495 76.0961 35.0495H65.3883V30.3977H73.9082C74.0626 30.3977 74.1657 30.296 74.1657 30.1435V27.8303C74.1657 27.6779 74.0626 27.576 73.9082 27.576H65.3883V22.9498H75.8645C76.0191 22.9498 76.1219 22.8481 76.1219 22.6956V20.357C76.1219 20.2045 76.0191 20.1028 75.8645 20.1028H62.5826C62.4282 20.1028 62.3254 20.2045 62.3254 20.357V37.6423C62.3254 37.7949 62.4282 37.8965 62.5826 37.8965H76.0961C76.2505 37.8965 76.3537 37.7949 76.3537 37.6423ZM96.4818 32.7489C96.4818 31.0968 95.3749 30.3468 92.9425 30.3468H86.8806V35.1257H92.9425C95.4136 35.1257 96.4818 34.414 96.4818 32.7489ZM92.0802 22.8736H86.8806V27.6524H92.0802C94.4096 27.6524 95.4779 26.9024 95.4779 25.263C95.4779 23.6233 94.4096 22.8736 92.0802 22.8736ZM99.6221 33.016C99.6221 36.1298 97.2024 37.8965 92.9294 37.8965H84.0749C83.9205 37.8965 83.8177 37.7949 83.8177 37.6423V20.357C83.8177 20.2045 83.9205 20.1028 84.0749 20.1028H92.1445C96.3015 20.1028 98.5664 21.7297 98.5664 24.7037C98.5664 26.661 97.5628 27.9448 95.5293 28.542C98.3864 29.1393 99.6221 30.8298 99.6221 33.016ZM120.689 29C120.689 32.8256 118.358 35.3295 114.665 35.3295H114.279C110.585 35.3295 108.256 32.8256 108.256 29C108.256 25.1742 110.585 22.6705 114.279 22.6705H114.665C118.358 22.6705 120.689 25.1742 120.689 29ZM114.279 19.7727C108.616 19.7727 105.013 23.6363 105.013 29C105.013 34.3635 108.616 38.2273 114.279 38.2273H114.665C120.327 38.2273 123.931 34.3635 123.931 29C123.931 23.6363 120.327 19.7727 114.665 19.7727H114.279ZM138.809 35.3295C142.504 35.3295 144.832 32.8256 144.832 29C144.832 25.1742 142.504 22.6705 138.809 22.6705H138.424C134.729 22.6705 132.4 25.1742 132.4 29C132.4 32.8256 134.729 35.3295 138.424 35.3295H138.809ZM129.156 29C129.156 23.6363 132.76 19.7727 138.424 19.7727H138.809C144.473 19.7727 148.076 23.6363 148.076 29C148.076 34.3635 144.473 38.2273 138.809 38.2273H138.424C132.76 38.2273 129.156 34.3635 129.156 29ZM166.955 37.8965H170.275C170.482 37.8965 170.559 37.7439 170.417 37.5787C167.663 34.3758 164.639 31.4016 161.447 28.7327C163.981 26.5975 166.724 23.8394 169.49 20.4713C169.554 20.3951 169.581 20.3315 169.581 20.2808C169.581 20.1791 169.503 20.1028 169.349 20.1028H166.208C166.054 20.1028 165.95 20.1281 165.823 20.2934C163.93 22.7211 161.614 25.1358 159.104 27.3729H157.585V20.357C157.585 20.2045 157.482 20.1028 157.328 20.1028H154.779C154.625 20.1028 154.523 20.2045 154.523 20.357V37.6423C154.523 37.7949 154.625 37.8965 154.779 37.8965H157.328C157.482 37.8965 157.585 37.7949 157.585 37.6423V30.296H159.079C161.422 32.2789 164.175 34.9733 166.504 37.6804C166.646 37.8456 166.737 37.8965 166.955 37.8965Z" fill="#97ADC6"/>
</g>
<defs>
<clipPath id="clip0">
<rect width="170" height="58" fill="white" transform="translate(0.499756)"/>
</clipPath>
</defs>
</svg>
