<svg width="115" height="58" viewBox="0 0 115 58" fill="none" xmlns="http://www.w3.org/2000/svg">
<g clip-path="url(#clip0)">
<path fill-rule="evenodd" clip-rule="evenodd" d="M20.6622 29.868C20.6622 30.6971 21.3078 31.3665 22.1796 31.3665V31.3662C23.0836 31.3662 23.6967 30.6969 23.6967 29.8675V23.2683C23.6967 19.5381 21.8242 16.8916 17.9177 16.8916C15.6256 16.8916 13.7853 17.8163 12.5263 19.7292C11.6546 18.0394 9.91116 16.8916 7.58669 16.8916C5.68182 16.8916 3.90626 17.88 3.03453 19.5698V18.5495C3.03453 17.7206 2.55029 17.0193 1.51714 17.0193C0.580983 17.0193 -0.000244141 17.6569 -0.000244141 18.5495V29.868C-0.000244141 30.6971 0.645638 31.3665 1.51737 31.3665C2.42142 31.3665 3.03475 30.6971 3.03475 29.868V23.5234C3.03475 21.419 4.32607 19.6017 6.77962 19.6017C9.16896 19.6017 10.3312 21.2915 10.3312 23.4913V29.868C10.3312 30.6971 10.9445 31.3665 11.8486 31.3665C12.7847 31.3665 13.366 30.6971 13.366 29.868V23.5234C13.366 21.419 14.8187 19.6017 17.2078 19.6017C19.5969 19.6017 20.6622 21.2915 20.6622 23.4913V29.868ZM29.7342 13.0976C29.7342 12.1411 28.9271 11.3441 27.9586 11.3441C26.9899 11.3441 26.1828 12.1411 26.1828 13.0976C26.1828 14.054 26.9901 14.851 27.9586 14.851C28.9271 14.851 29.7342 14.054 29.7342 13.0976ZM26.4412 29.868C26.4412 30.6973 27.0546 31.3667 27.9586 31.3667V31.3665C28.8625 31.3665 29.4756 30.6971 29.476 29.868V18.5176C29.476 17.6886 28.8303 17.0191 27.9586 17.0191C27.0869 17.0191 26.4412 17.6886 26.4412 18.5176V29.868ZM41.8726 17.4656L38.0308 22.1841L34.1889 17.4658C33.9305 17.1789 33.6077 17.0193 33.1881 17.0193C32.3487 17.0193 31.7998 17.5614 31.7998 18.3265C31.7998 18.6134 31.8966 18.9 32.155 19.1873L36.3843 24.1608L32.0903 29.1663C31.8645 29.4214 31.7351 29.6764 31.7351 30.0591C31.7351 30.792 32.3808 31.3662 33.0911 31.3662C33.5433 31.3662 33.8982 31.2062 34.1566 30.8876L38.0308 26.1376L41.9049 30.8876C42.1631 31.2068 42.5183 31.3662 42.9702 31.3662C43.6805 31.3662 44.3262 30.7929 44.3262 30.0591C44.3262 29.6764 44.1971 29.4214 43.9712 29.1663L39.6772 24.1611L43.9066 19.1873C44.1647 18.9002 44.2617 18.6134 44.2617 18.3265C44.2617 17.5611 43.7128 17.0191 42.8737 17.0191C42.4538 17.0191 42.1308 17.1785 41.8726 17.4656ZM49.621 28.7526C50.6541 30.3788 52.4297 31.4942 54.5927 31.4942C58.3055 31.4942 61.3403 28.5927 61.3403 24.1932C61.3403 19.9524 58.3055 16.892 54.5927 16.892C52.4297 16.892 50.4927 17.9762 49.5242 19.6341V18.5495C49.5242 17.7206 48.9753 17.0191 48.0389 17.0191C47.1028 17.0191 46.5862 17.6886 46.5862 18.5176V35.8305C46.5862 36.6594 47.1995 37.3285 48.1036 37.3285C49.0076 37.3285 49.621 36.6596 49.621 35.8305V28.7526ZM49.6212 24.193C49.6212 21.6421 51.3644 19.3787 53.9796 19.3787C56.5944 19.3787 58.3055 21.3237 58.3055 24.193C58.3055 27.0627 56.5948 29.0073 53.9798 29.0073C51.3647 29.0073 49.6212 26.7441 49.6212 24.193ZM75.8362 31.3665C76.7725 31.3665 77.3535 30.6971 77.3535 29.868H77.3544V24.1928C77.3544 19.8886 74.6102 16.8918 69.961 16.8918C65.4093 16.8918 62.5032 20.2076 62.5032 24.1928C62.5032 28.2424 65.1177 31.4942 69.6384 31.4942C71.7364 31.4942 73.4475 30.5056 74.3515 29.1665V29.868C74.3515 30.6971 74.9321 31.3665 75.8362 31.3665ZM65.537 24.1928C65.537 21.5789 67.3452 19.4423 69.928 19.4423C72.5109 19.4423 74.3185 21.2596 74.3185 24.1928C74.3185 26.6796 72.6074 28.9434 69.928 28.9434C67.0544 28.9434 65.537 26.9348 65.537 24.1928ZM93.2696 23.5556C93.2696 19.8254 90.3965 16.892 86.4904 16.892C82.5835 16.892 79.7424 19.8252 79.7424 23.5554V29.8682C79.7422 30.065 79.7812 30.26 79.8574 30.4419C79.9336 30.6239 80.0453 30.7892 80.1863 30.9284C80.3272 31.0676 80.4946 31.1779 80.6788 31.2531C80.863 31.3284 81.0605 31.3669 81.2598 31.3667C81.4592 31.367 81.6566 31.3284 81.8409 31.2532C82.0251 31.178 82.1925 31.0676 82.3334 30.9284C82.4744 30.7892 82.5862 30.6239 82.6623 30.442C82.7384 30.26 82.7775 30.065 82.7772 29.8682V23.2046C82.7772 21.1955 84.3595 19.6339 86.4904 19.6339C88.6207 19.6339 90.2348 21.196 90.2348 23.2046V29.8682C90.2346 30.065 90.2736 30.26 90.3498 30.4419C90.426 30.6239 90.5377 30.7892 90.6787 30.9284C90.8196 31.0676 90.987 31.1779 91.1712 31.2531C91.3555 31.3284 91.5529 31.3669 91.7522 31.3667C91.9516 31.367 92.149 31.3284 92.3333 31.2532C92.5175 31.178 92.6849 31.0676 92.8258 30.9284C92.9668 30.7892 93.0786 30.6239 93.1547 30.442C93.2309 30.26 93.2699 30.065 93.2696 29.8682V23.5556ZM107.895 25.245C108.766 25.245 109.057 24.735 109.057 24.2249C109.057 20.1438 106.41 16.892 102.341 16.8909C98.1767 16.8909 95.1094 20.0152 95.1094 24.1919C95.1094 28.1772 97.6601 31.4935 102.471 31.4935C104.795 31.4935 106.991 30.5685 108.218 29.1656C108.443 28.9106 108.605 28.6235 108.605 28.3052C108.605 27.5403 108.023 27.0616 107.346 27.0616C106.958 27.0616 106.603 27.2853 106.345 27.5403C105.28 28.5284 104.279 29.1024 102.6 29.1024C99.9204 29.1024 98.403 27.4449 98.2418 25.245H107.895ZM98.3062 22.8224C98.5967 20.845 100.114 19.2833 102.342 19.2833H102.342C104.537 19.2833 105.99 20.9089 106.248 22.8224H98.3062ZM111.091 29.868C111.091 30.6971 111.704 31.3665 112.608 31.3665C113.512 31.3665 114.125 30.6971 114.125 29.868V11.1213C114.125 10.2919 113.512 9.6228 112.608 9.6228C111.704 9.6228 111.091 10.2919 111.091 11.1213V29.868ZM10.1841 41.6249C10.1841 44.329 7.96439 46.5211 5.2262 46.5211C2.48802 46.5211 0.268279 44.329 0.268279 41.6249C0.268279 38.9208 2.48802 36.7287 5.2262 36.7287C7.96439 36.7287 10.1841 38.9208 10.1841 41.6249ZM26.6311 41.6785C26.6311 43.5911 25.0611 45.1416 23.1244 45.1416C21.1876 45.1416 19.6176 43.5911 19.6176 41.6785C19.6176 39.7658 21.1876 38.2154 23.1244 38.2154C25.0611 38.2154 26.6311 39.7658 26.6311 41.6785ZM37.8764 43.2506C38.7556 43.2506 39.4684 42.5467 39.4684 41.6783C39.4684 40.81 38.7556 40.1061 37.8764 40.1061C36.9971 40.1061 36.2843 40.81 36.2843 41.6783C36.2843 42.5467 36.9971 43.2506 37.8764 43.2506Z" fill="#97ADC6"/>
</g>
<defs>
<clipPath id="clip0">
<rect width="115" height="58" fill="white" transform="translate(-0.000244141)"/>
</clipPath>
</defs>
</svg>
