<svg width="162" height="58" viewBox="0 0 162 58" fill="none" xmlns="http://www.w3.org/2000/svg">
<path fill-rule="evenodd" clip-rule="evenodd" d="M33.1348 27.9791C33.1348 32.9916 29.8804 37.2523 25.357 38.8407V40.0125C30.5103 38.3845 34.246 33.6171 34.246 27.9791C34.246 20.9978 28.5248 15.3378 21.468 15.3378C14.4112 15.3378 8.69002 20.9978 8.69002 27.9791C8.69002 34.015 12.9712 39.0495 18.6901 40.3049V39.1727C13.5968 37.936 9.80115 33.395 9.80115 27.9791C9.80115 21.6144 15.0346 16.437 21.468 16.437C27.9014 16.437 33.1348 21.6144 33.1348 27.9791ZM15.3568 27.9791C15.3568 24.6451 18.0979 21.9333 21.4681 21.9333C24.8381 21.9333 27.5792 24.6451 27.5792 27.9791C27.5792 29.8478 26.7081 31.5077 25.357 32.6169V33.9843C27.357 32.7147 28.6904 30.5052 28.6904 27.9791C28.6904 24.0328 25.4569 20.8341 21.4681 20.8341C17.4791 20.8341 14.2457 24.0328 14.2457 27.9791C14.2457 30.9493 16.0824 33.4885 18.6902 34.5647V33.3423C16.718 32.3398 15.3568 30.3205 15.3568 27.9791ZM10.2667 45.0174C4.63883 41.3888 0.912109 35.1197 0.912109 27.9791C0.912109 16.7481 10.1156 7.64307 21.468 7.64307C32.8203 7.64307 42.0238 16.7481 42.0238 27.9791C42.0238 35.1197 38.2972 41.3888 32.667 45.0163C30.1803 43.4124 27.3214 42.3385 24.2458 41.9131V40.3115V39.1771V34.5745V33.3577V27.4295H23.1347H19.8013H18.6901V29.628H19.8013V33.7908V34.9252V39.3893V40.5006V41.8032C19.5424 41.8237 19.2866 41.8511 19.0314 41.8784C18.9176 41.8905 18.8039 41.9027 18.6901 41.9142C18.3612 41.9593 18.0357 42.0153 17.7113 42.0747C17.4057 42.1308 17.1046 42.1956 16.8046 42.2649C16.5079 42.333 16.2146 42.4088 15.9234 42.4891C15.5356 42.5968 15.1534 42.7145 14.7768 42.843C14.5067 42.9354 14.2401 43.031 13.9756 43.1333C13.6501 43.2597 13.3301 43.3916 13.0134 43.5334C12.6957 43.6752 12.3823 43.8247 12.0734 43.9819C11.8145 44.1138 11.56 44.249 11.3079 44.3908C10.9556 44.5908 10.6067 44.7975 10.2667 45.0174ZM59.5592 35.0459C54.8427 35.0459 51.6344 31.5024 51.6344 26.7859C51.6344 22.0692 54.8427 18.5258 59.5592 18.5258C64.2759 18.5258 67.508 22.0692 67.508 26.7859C67.508 31.5024 64.2759 35.0459 59.5592 35.0459ZM59.5593 33.274C63.1267 33.274 65.4491 30.4968 65.4491 26.7858C65.4491 23.0508 63.1267 20.2974 59.5593 20.2974C55.9679 20.2974 53.6934 23.0508 53.6934 26.7858C53.6934 30.4968 55.9679 33.274 59.5593 33.274ZM79.5814 34.7586V26.6423C79.5814 24.1284 78.3125 22.9073 75.9183 22.9073C74.1704 22.9073 72.5903 23.8889 71.7762 24.8705V23.1946H69.9806V34.7586H71.7762V26.3071C72.4706 25.3733 73.7874 24.5114 75.2 24.5114C76.7562 24.5114 77.8097 25.1339 77.8097 27.193V34.7586H79.5814ZM87.8959 35.046C84.4482 35.046 81.9821 32.5799 81.9821 28.9647C81.9821 25.6128 84.3763 22.9073 87.6803 22.9073C91.1759 22.9073 93.2349 25.6367 93.2349 29.1083V29.5632H83.8975C84.0412 31.742 85.5495 33.5615 88.0395 33.5615C89.3803 33.5615 90.6971 33.0348 91.6308 32.0771L92.4927 33.2503C91.3195 34.3995 89.7633 35.046 87.8959 35.046ZM91.4633 28.2223C91.4392 26.5225 90.2901 24.3916 87.6564 24.3916C85.1903 24.3916 83.9693 26.4745 83.8736 28.2223H91.4633ZM103.53 35.0459C107.816 35.0459 109.707 32.7474 109.707 30.0898C109.707 26.6175 106.53 25.8062 103.892 25.1326C102.019 24.6544 100.418 24.2455 100.418 23.0029C100.418 21.8298 101.472 21.0157 103.099 21.0157C104.775 21.0157 106.475 21.5904 107.744 22.8593L109.324 20.7764C107.864 19.3398 105.828 18.5258 103.363 18.5258C99.843 18.5258 97.5445 20.5609 97.5445 23.2185C97.5445 26.559 100.557 27.3216 103.151 27.9782C105.112 28.4745 106.834 28.9102 106.834 30.3532C106.834 31.4306 105.948 32.5559 103.65 32.5559C101.423 32.5559 99.6757 31.5024 98.5984 30.3292L97.0175 32.508C98.4545 33.9924 100.585 35.0459 103.53 35.0459ZM113.466 21.782C114.328 21.782 115.023 21.0877 115.023 20.2257C115.023 19.3638 114.328 18.6695 113.466 18.6695C112.604 18.6695 111.91 19.3638 111.91 20.2257C111.91 21.0877 112.604 21.782 113.466 21.782ZM114.711 34.7585V23.1945H112.197V34.7585H114.711ZM122.683 39.4513C120.72 39.4513 119.26 39.0203 117.824 37.7275L118.996 35.9079C119.954 36.9853 121.152 37.3923 122.683 37.3923C124.336 37.3923 126.108 36.6261 126.108 34.1601V32.8433C125.222 34.0165 123.905 34.7826 122.396 34.7826C119.451 34.7826 117.272 32.6518 117.272 28.8449C117.272 25.0861 119.404 22.9073 122.396 22.9073C123.857 22.9073 125.173 23.5537 126.108 24.7988V23.1946H128.621V34.1601C128.621 38.326 125.509 39.4513 122.683 39.4513ZM123.138 32.532C124.312 32.532 125.533 31.8377 126.108 30.9996V26.6662C125.533 25.8281 124.312 25.1338 123.138 25.1338C121.128 25.1338 119.859 26.6182 119.859 28.8449C119.859 31.0715 121.128 32.532 123.138 32.532ZM142.221 34.7586V26.6183C142.221 24.2481 140.975 22.9073 138.485 22.9073C136.666 22.9073 135.158 23.841 134.392 24.7508V23.1946H131.877V34.7586H134.392V26.6662C134.99 25.9001 136.091 25.1339 137.36 25.1339C138.773 25.1339 139.706 25.7085 139.706 27.5281V34.7586H142.221ZM155.078 34.7586H152.563V33.4897C151.702 34.4952 150.337 35.046 148.804 35.046C146.937 35.046 144.806 33.7531 144.806 31.2152C144.806 28.5337 146.913 27.4323 148.804 27.4323C150.385 27.4323 151.702 27.9351 152.563 28.9168V27.193C152.563 25.8522 151.438 25.0381 149.858 25.0381C148.565 25.0381 147.416 25.517 146.435 26.5226L145.381 24.7748C146.722 23.4819 148.398 22.9073 150.241 22.9073C152.827 22.9073 155.078 23.9847 155.078 27.0733V34.7586ZM149.811 33.322C150.888 33.322 151.965 32.915 152.563 32.1249V30.3531C151.965 29.5631 150.888 29.156 149.811 29.156C148.398 29.156 147.32 29.994 147.32 31.239C147.32 32.508 148.398 33.322 149.811 33.322ZM160.847 34.7585V18.7891H158.334V34.7585H160.847Z" fill="#97ADC6"/>
</svg>
