<svg width="146" height="58" viewBox="0 0 146 58" fill="none" xmlns="http://www.w3.org/2000/svg">
<g clip-path="url(#clip0)">
<path fill-rule="evenodd" clip-rule="evenodd" d="M22.489 38.7481C23.0806 37.9297 23.5912 37.0394 24.0225 36.0723C24.2004 35.6622 24.3676 35.235 24.5261 34.7891C23.7954 34.4917 23.1387 34.0731 22.5506 33.5315C21.253 32.3644 20.5927 30.8946 20.5734 29.1283C20.5522 26.8607 21.6139 25.093 23.7602 23.831C22.5612 22.177 20.7582 21.2589 18.3584 21.0709C17.4728 20.998 16.3917 21.1832 15.1108 21.6305C13.7563 22.1129 12.9573 22.3548 12.7216 22.3548C12.4062 22.3548 11.687 22.1479 10.5668 21.7399C9.44352 21.3332 8.53958 21.1263 7.85028 21.1263C6.5905 21.1466 5.4207 21.4644 4.33805 22.0881C3.25541 22.7118 2.39038 23.5614 1.74016 24.6383C0.912813 25.9792 0.499756 27.5792 0.499756 29.4343C0.499756 31.0538 0.806116 32.7267 1.41725 34.4542C1.98789 36.0535 2.71629 37.4564 3.60226 38.6661C4.42803 39.799 5.11734 40.5987 5.66843 41.0651C6.53187 41.8443 7.3969 42.2151 8.26474 42.1792C8.83538 42.1604 9.58173 41.9707 10.5082 41.6068C11.4333 41.2445 12.2981 41.0651 13.1045 41.0651C13.8734 41.0651 14.7143 41.2445 15.6293 41.6068C16.5414 41.9707 17.3249 42.1502 17.9746 42.1502C18.8796 42.1297 19.7247 41.7691 20.5135 41.0651C21.0223 40.6362 21.6826 39.8639 22.489 38.7481ZM16.9587 18.927C17.9975 17.7306 18.5186 16.438 18.5186 15.0535V15.0535C18.5186 14.8699 18.5098 14.6848 18.4887 14.4998C17.7651 14.5362 16.9956 14.749 16.1822 15.1337C15.367 15.5242 14.6948 16.0138 14.1662 16.6027C13.1075 17.7656 12.5113 19.1879 12.5113 20.517C12.5113 20.7006 12.5235 20.8754 12.5444 21.0415C14.1888 21.1712 15.7051 20.3493 16.9587 18.927ZM44.4738 33.2198C44.4738 36.2003 42.1248 38.0949 38.2247 38.0949C34.5573 38.0949 32.1419 36.3665 31.9535 33.4968L31.9424 33.3306H34.6792L34.7013 33.4635C34.9118 34.8375 36.319 35.6906 38.3244 35.6906C40.341 35.6906 41.6041 34.7931 41.6041 33.4192V33.4081C41.6041 32.2115 40.7731 31.5689 38.7122 31.1368L36.9949 30.7822C33.8482 30.1285 32.297 28.666 32.297 26.2838V26.2727C32.3081 23.4584 34.7789 21.5527 38.2247 21.5527C41.7149 21.5527 43.9973 23.392 44.1635 26.1287L44.1746 26.317H41.4379L41.4157 26.1841C41.2274 24.788 39.9975 23.957 38.2026 23.957C36.3301 23.9681 35.1667 24.8434 35.1667 26.1176V26.1287C35.1667 27.2588 36.042 27.9236 37.9699 28.3225L39.6983 28.6771C43.0223 29.364 44.4738 30.7157 44.4738 33.2087V33.2198ZM56.6616 34.4275C56.296 36.2335 54.5675 38.0506 51.4984 38.0506C47.975 38.0506 45.8477 35.7128 45.8477 31.9788V31.9678C45.8477 28.2671 48.0082 25.8295 51.3654 25.8295C54.7226 25.8295 56.8056 28.1895 56.8056 31.7351V32.6215H48.5844C48.6287 34.6823 49.7588 35.9011 51.5538 35.9011C52.9277 35.9011 53.8252 35.1698 54.0911 34.3832L54.1132 34.3056H56.6948L56.6616 34.4275ZM54.1243 30.7822C53.9249 28.9208 52.8612 27.9901 51.3987 27.9901C49.9361 27.9901 48.8392 28.9762 48.6176 30.7822H54.1243ZM65.592 36.0119C64.9161 37.2418 63.6087 38.0174 62.0575 38.0174C59.7086 38.0174 58.1241 36.5659 58.1241 34.4718V34.4497C58.1241 32.3666 59.7418 31.1146 62.5893 30.9373L65.6584 30.749V29.9402C65.6584 28.7546 64.8829 28.0344 63.4868 28.0344C62.1794 28.0344 61.3816 28.6438 61.2043 29.508L61.1822 29.6078H58.6227L58.6338 29.4748C58.8 27.3918 60.606 25.8295 63.5865 25.8295C66.5227 25.8295 68.4173 27.3807 68.4173 29.7407V37.8179H65.6584V36.0119H65.592ZM60.8719 34.3499V34.361C60.8719 35.325 61.6697 35.9122 62.8774 35.9122C64.4618 35.9122 65.6584 34.8596 65.6584 33.4635V32.5772L62.9771 32.7434C61.6143 32.832 60.8719 33.4192 60.8719 34.3499ZM73.4033 37.8179H70.6444V26.0733H73.3257V28.0344H73.3811C73.7357 26.6605 74.7661 25.8295 76.1511 25.8295C76.4945 25.8295 76.8159 25.8849 77.0264 25.9403V28.4333C76.7937 28.3447 76.3727 28.2782 75.9073 28.2782C74.345 28.2782 73.4033 29.2864 73.4033 30.9373V37.8179ZM88.35 33.7405C88.1395 36.1892 86.1562 38.0506 83.1868 38.0506C79.6966 38.0506 77.5139 35.7017 77.5139 31.9345V31.9234C77.5139 28.1785 79.7299 25.8295 83.1535 25.8295C86.2448 25.8295 88.1727 27.7907 88.3389 30.1396L88.35 30.2282H85.7462L85.7241 30.1285C85.4914 28.9873 84.6493 28.0677 83.1868 28.0677C81.4472 28.0677 80.3282 29.5413 80.3282 31.9456V31.9567C80.3282 34.4053 81.4583 35.8236 83.1979 35.8236C84.5939 35.8236 85.4803 34.9926 85.7351 33.7627L85.7573 33.663H88.3611L88.35 33.7405ZM92.8484 37.8179H90.0895V21.8297H92.8484V28.0455H92.9149C93.5243 26.6384 94.7763 25.8295 96.538 25.8295C99.0642 25.8295 100.682 27.6688 100.682 30.5052V37.8179H97.923V31.0481C97.923 29.2421 97.0144 28.1563 95.43 28.1563C93.8678 28.1563 92.8484 29.3418 92.8484 31.0481V37.8179ZM109.612 37.8179H106.621L112.294 21.8297H115.518L121.191 37.8179H118.199L116.858 33.6851H110.953L109.612 37.8179ZM113.933 24.6772H113.878L111.673 31.4803H116.138L113.933 24.6772ZM130.276 35.8236C129.611 37.2085 128.315 38.0506 126.62 38.0506C123.65 38.0506 121.767 35.7238 121.767 31.9456V31.9345C121.767 28.1452 123.661 25.8295 126.609 25.8295C128.271 25.8295 129.611 26.6827 130.276 28.0898H130.343V21.8297H133.102V37.8179H130.343V35.8236H130.276ZM124.581 31.9456C124.581 34.2835 125.678 35.7238 127.451 35.7238C129.157 35.7238 130.343 34.2502 130.343 31.9456V31.9345C130.343 29.641 129.146 28.1563 127.451 28.1563C125.689 28.1563 124.581 29.5967 124.581 31.9345V31.9456ZM144.935 34.3499C144.935 36.5659 142.885 38.0506 140.004 38.0506C136.924 38.0506 135.162 36.5881 134.919 34.4053L134.908 34.3056H137.622L137.644 34.4053C137.855 35.4136 138.619 36.0119 140.015 36.0119C141.356 36.0119 142.165 35.469 142.165 34.6048V34.5937C142.165 33.8846 141.755 33.4857 140.536 33.2087L138.586 32.7766C136.337 32.278 135.207 31.1811 135.207 29.4416V29.4305C135.207 27.281 137.079 25.8295 139.916 25.8295C142.841 25.8295 144.547 27.4361 144.647 29.4637L144.658 29.5856H142.087L142.076 29.497C141.954 28.5552 141.201 27.8682 139.916 27.8682C138.697 27.8682 137.932 28.4333 137.932 29.2975V29.3086C137.932 29.9845 138.387 30.4277 139.605 30.7047L141.567 31.1368C143.993 31.6797 144.935 32.6326 144.935 34.3389V34.3499Z" fill="#97ADC6"/>
</g>
<defs>
<clipPath id="clip0">
<rect width="145" height="58" fill="white" transform="translate(0.499756)"/>
</clipPath>
</defs>
</svg>
