<svg width="158" height="58" viewBox="0 0 158 58" fill="none" xmlns="http://www.w3.org/2000/svg">
<g clip-path="url(#clip0)">
<path d="M30.3738 23.3899H12.863C12.5296 23.3899 12.2593 23.6568 12.2593 23.9861V26.0003C12.2593 26.3296 12.5296 26.5965 12.863 26.5965H30.3738C30.7072 26.5965 30.9775 26.3296 30.9775 26.0003V23.9861C30.9775 23.6568 30.7072 23.3899 30.3738 23.3899Z" fill="#97ADC6"/>
<path d="M18.7908 31.4036H1.28002C0.946576 31.4036 0.67627 31.6705 0.67627 31.9998V34.014C0.67627 34.3432 0.946576 34.6102 1.28002 34.6102H18.7908C19.1242 34.6102 19.3945 34.3432 19.3945 34.014V31.9998C19.3945 31.6705 19.1242 31.4036 18.7908 31.4036Z" fill="#97ADC6"/>
<path fill-rule="evenodd" clip-rule="evenodd" d="M2.92552 25.585C3.07779 25.6239 3.23941 25.6031 3.3765 25.527C3.51359 25.4509 3.61552 25.3253 3.66092 25.1766C4.62797 22.1774 6.69537 19.6435 9.45721 18.0724C12.2191 16.5014 15.4758 16.0067 18.5881 16.6854C18.7386 16.7163 18.8953 16.6889 19.0259 16.6089C19.1564 16.5288 19.2508 16.4022 19.2895 16.2553L19.8178 14.3082C19.8387 14.2298 19.8432 14.1481 19.8312 14.068C19.8192 13.9879 19.7909 13.911 19.748 13.842C19.7051 13.773 19.6485 13.7132 19.5816 13.6664C19.5147 13.6196 19.4388 13.5866 19.3587 13.5695C15.4261 12.6938 11.3038 13.3141 7.81386 15.3069C4.32393 17.2996 1.72288 20.5183 0.529454 24.321C0.506669 24.3972 0.49963 24.4772 0.508757 24.5562C0.517883 24.6352 0.542988 24.7116 0.582581 24.7808C0.622175 24.85 0.675449 24.9107 0.739241 24.9592C0.803033 25.0077 0.876043 25.043 0.953935 25.0631L2.92552 25.585Z" fill="#97ADC6"/>
<path fill-rule="evenodd" clip-rule="evenodd" d="M28.7359 32.4149C28.5837 32.376 28.4221 32.3968 28.285 32.4729C28.1479 32.5491 28.046 32.6746 28.0006 32.8233C27.0336 35.8226 24.9662 38.3565 22.2043 39.9276C19.4425 41.4986 16.1856 41.9934 13.0734 41.3146C12.9229 41.2837 12.7662 41.3111 12.6357 41.3912C12.5051 41.4712 12.4108 41.5977 12.3721 41.7446L11.8439 43.6918C11.8231 43.7701 11.8185 43.8518 11.8305 43.9319C11.8425 44.012 11.8708 44.0889 11.9137 44.158C11.9566 44.227 12.0132 44.2867 12.0802 44.3335C12.1471 44.3804 12.2229 44.4133 12.3031 44.4304C16.2356 45.3062 20.3579 44.6858 23.8479 42.6931C27.3378 40.7003 29.9389 37.4816 31.1323 33.679C31.1551 33.6027 31.1621 33.5227 31.153 33.4437C31.1439 33.3647 31.1188 33.2884 31.0792 33.2191C31.0396 33.1499 30.9863 33.0892 30.9225 33.0407C30.8587 32.9922 30.7857 32.9569 30.7078 32.9368L28.7359 32.4149Z" fill="#97ADC6"/>
<path d="M25.083 19.8688C26.0662 19.8688 26.8633 19.0817 26.8633 18.1107C26.8633 17.1397 26.0662 16.3525 25.083 16.3525C24.0998 16.3525 23.3027 17.1397 23.3027 18.1107C23.3027 19.0817 24.0998 19.8688 25.083 19.8688Z" fill="#97ADC6"/>
<path d="M6.57838 41.6474C7.56161 41.6474 8.35867 40.8602 8.35867 39.8892C8.35867 38.9182 7.56161 38.1311 6.57838 38.1311C5.59516 38.1311 4.7981 38.9182 4.7981 39.8892C4.7981 40.8602 5.59516 41.6474 6.57838 41.6474Z" fill="#97ADC6"/>
<path fill-rule="evenodd" clip-rule="evenodd" d="M74.5852 23.4581C75.2343 22.754 76.0274 22.1941 76.9122 21.8157C77.7969 21.4372 78.753 21.2488 79.7171 21.263C81.5891 21.263 83.0489 21.8334 83.9718 22.9285V22.0218C83.978 21.8963 84.031 21.7775 84.1205 21.6882C84.2101 21.5989 84.3298 21.5455 84.4569 21.5381H86.927C87.0531 21.5467 87.1716 21.6007 87.2601 21.6899C87.3485 21.7791 87.4007 21.8973 87.4067 22.022V35.565C87.4867 37.4746 86.8925 39.3525 85.7255 40.8773C84.3949 42.4764 82.3731 43.2866 79.7171 43.2866C76.0242 43.2866 73.1101 40.9793 72.6304 37.6839C72.6186 37.5652 72.6494 37.4462 72.7172 37.3476C72.7851 37.249 72.8858 37.1769 73.0019 37.144L75.4156 36.5837C75.4281 36.581 75.441 36.5786 75.4535 36.5767C75.5807 36.5583 75.7101 36.5906 75.8133 36.6664C75.9165 36.7422 75.9849 36.8553 76.0037 36.981C76.11 37.873 76.5496 38.6937 77.2364 39.2825C77.9232 39.8713 78.8079 40.1857 79.7171 40.1642C82.6002 40.1642 83.9408 38.7025 83.9408 35.6464V34.4597C83.4124 35.045 82.7601 35.5085 82.0303 35.8175C81.3004 36.1264 80.5107 36.2732 79.7171 36.2474C75.6116 36.2474 72.6356 33.0998 72.6356 28.7705C72.598 26.8225 73.2926 24.9299 74.5852 23.4581ZM122.479 21.0745L122.607 21.0754C127.021 21.1356 129.755 24.1693 129.755 29.0249C129.755 29.2819 129.741 29.5386 129.714 29.7941C129.702 29.9107 129.648 30.0191 129.56 30.0982C129.472 30.1772 129.358 30.2213 129.239 30.2218H118.749C118.78 31.2676 119.226 32.2593 119.992 32.9827C120.757 33.706 121.78 34.1029 122.839 34.0877C123.669 34.139 124.492 33.9111 125.174 33.4412C125.856 32.9713 126.356 32.2872 126.594 31.5003C126.638 31.3853 126.725 31.2916 126.837 31.2384C126.95 31.1853 127.078 31.177 127.197 31.2151L129.291 31.9436C129.351 31.9628 129.407 31.9946 129.454 32.0368C129.501 32.0789 129.539 32.1305 129.564 32.1881C129.593 32.2436 129.61 32.3042 129.614 32.3663C129.619 32.4283 129.611 32.4907 129.591 32.5497C129.117 33.9348 128.205 35.1328 126.989 35.9673C125.774 36.8018 124.319 37.2285 122.839 37.1846C121.853 37.1944 120.875 37.0108 119.961 36.6445C119.048 36.2781 118.217 35.7364 117.517 35.0505C116.753 34.2568 116.157 33.3204 115.765 32.2961C115.372 31.2719 115.191 30.1806 115.232 29.0862C115.232 24.0693 118.92 21.0745 122.483 21.0745H122.479ZM63.1251 21.0745C67.6174 21.0745 70.4078 24.1203 70.4078 29.0251C70.4075 29.282 70.3937 29.5387 70.3664 29.7942C70.356 29.9113 70.3015 30.0203 70.2136 30.0995C70.1257 30.1787 70.0109 30.2225 69.8918 30.222H59.4014C59.4324 31.2704 59.881 32.2644 60.6496 32.9882C61.4183 33.712 62.445 34.1071 63.5068 34.0879C64.3369 34.1403 65.1603 33.9128 65.8424 33.4428C66.5244 32.9727 67.0247 32.2879 67.2612 31.5005C67.3044 31.3847 67.3916 31.2901 67.5042 31.2368C67.6169 31.1836 67.7462 31.1758 67.8646 31.2153L69.9588 31.9436C70.0192 31.9629 70.0749 31.9947 70.122 32.0368C70.1691 32.079 70.2066 32.1306 70.2321 32.1881C70.2564 32.2454 70.2689 32.3068 70.2689 32.3689C70.2689 32.431 70.2564 32.4924 70.2321 32.5497C69.7587 33.934 68.8476 35.1316 67.633 35.966C66.4185 36.8004 64.9647 37.2276 63.4858 37.1846C62.4981 37.1956 61.518 37.0126 60.6025 36.6463C59.6871 36.2799 58.8545 35.7375 58.1532 35.0505C57.3902 34.2561 56.7952 33.3195 56.4029 32.2955C56.0106 31.2714 55.8288 30.1804 55.8682 29.0862C55.8682 24.0693 59.5559 21.0745 63.1199 21.0745H63.1251ZM47.235 21.0693C49.2515 21.0693 50.8812 21.5532 52.0883 22.5057C52.9042 23.1479 53.509 24.0147 53.8262 24.9963L53.827 25.0003C53.8373 25.0418 53.8391 25.085 53.8324 25.1273C53.8257 25.1696 53.8106 25.2102 53.7881 25.2467C53.7655 25.2832 53.7358 25.315 53.7008 25.3402C53.6658 25.3654 53.6261 25.3835 53.5839 25.3935L51.0824 26.2085C50.9715 26.2519 50.848 26.2519 50.7371 26.2085C50.6902 26.187 50.6485 26.1559 50.6147 26.1173C50.5809 26.0786 50.5558 26.0334 50.5411 25.9844C50.3294 25.1849 49.6025 23.8401 47.235 23.8401C45.5847 23.8401 44.5942 24.7773 44.5942 25.6839C44.5942 26.285 44.9089 27.0591 46.3994 27.3392L49.1537 27.8487C52.2274 28.4599 53.986 30.1203 53.986 32.4327L53.976 32.392C53.976 34.6942 51.7377 37.144 47.5803 37.144C42.7584 37.144 40.8655 34.4496 40.5149 32.8605C40.5034 32.7774 40.5233 32.693 40.5708 32.6235C40.6183 32.5539 40.6902 32.5041 40.7725 32.4836L43.3513 31.6891C43.3974 31.6817 43.4444 31.6817 43.4906 31.6891C43.5643 31.6878 43.6371 31.7053 43.7019 31.74C43.7487 31.7621 43.7901 31.7941 43.8231 31.8337C43.856 31.8733 43.8798 31.9195 43.8927 31.9691C44.2179 33.4972 45.6158 34.4089 47.627 34.4089C49.4991 34.4089 50.3503 33.4412 50.3503 32.5651C50.3503 31.689 49.592 31.0422 48.2871 30.7824L45.3939 30.227C42.6963 29.7228 41.0151 28.0674 41.0151 25.9129C41.0151 23.29 43.8672 21.0693 47.2349 21.0693H47.235ZM153.506 16.8267C153.637 16.8346 153.76 16.8917 153.85 16.9864C153.941 17.0811 153.991 17.2062 153.991 17.3361V21.5178H156.703C156.833 21.5269 156.955 21.5845 157.044 21.6791C157.134 21.7736 157.183 21.8981 157.183 22.0273V24.248C157.184 24.3751 157.134 24.4974 157.044 24.5881C156.954 24.6788 156.831 24.7305 156.703 24.7318H153.991V32.1626C153.991 33.3951 154.485 33.9045 155.759 33.9045C156.049 33.8996 156.339 33.8757 156.626 33.8332C156.695 33.8215 156.766 33.8251 156.834 33.8436C156.902 33.8621 156.964 33.8951 157.018 33.9402C157.069 33.9872 157.11 34.0439 157.138 34.1069C157.167 34.1699 157.182 34.2379 157.183 34.3069V36.4002C157.184 36.5041 157.151 36.6054 157.088 36.689C157.026 36.7725 156.938 36.8338 156.837 36.8637C156.216 37.0353 155.574 37.1176 154.929 37.1081C152.211 37.1081 150.525 35.3814 150.525 32.5954V24.7621H148.178C148.051 24.7547 147.931 24.7012 147.842 24.6119C147.752 24.5225 147.699 24.4037 147.693 24.2781V22.0473C147.693 21.9173 147.743 21.7921 147.833 21.6974C147.923 21.6026 148.046 21.5456 148.178 21.5378H148.786C149.524 21.5378 150.767 21.2831 150.767 19.5463V17.3359C150.767 17.2059 150.817 17.0807 150.907 16.986C150.997 16.8913 151.12 16.8342 151.252 16.8264L153.506 16.8267ZM102.585 23.565C103.116 22.764 103.849 22.1132 104.711 21.6765C105.574 21.2398 106.537 21.0323 107.505 21.0744H107.5C110.182 21.0744 112.89 22.9385 112.89 27.0131V36.4461C112.884 36.5716 112.831 36.6905 112.741 36.7798C112.652 36.8691 112.532 36.9226 112.405 36.93H109.935C109.808 36.9224 109.688 36.8689 109.598 36.7796C109.509 36.6903 109.456 36.5716 109.45 36.4461V27.3189C109.45 26.1627 109.083 24.217 106.608 24.217C104.798 24.217 103.513 25.6228 103.513 27.6601V36.4461C103.507 36.5717 103.454 36.6906 103.365 36.7799C103.275 36.8692 103.155 36.9227 103.028 36.93H100.528C100.401 36.9227 100.281 36.8692 100.191 36.7799C100.102 36.6905 100.049 36.5716 100.043 36.4461V27.3189C100.043 26.1627 99.6768 24.217 97.2006 24.217C95.3181 24.217 94.0499 25.6126 94.0499 27.6907V36.4461C94.0435 36.5716 93.9905 36.6904 93.901 36.7796C93.8116 36.8689 93.6918 36.9225 93.5649 36.93H91.0944C90.9683 36.9215 90.8498 36.8675 90.7614 36.7782C90.673 36.689 90.6209 36.5708 90.615 36.4461V21.9913C90.6209 21.8666 90.673 21.7484 90.7614 21.6591C90.8498 21.5699 90.9683 21.5159 91.0944 21.5074H93.4719C93.599 21.5147 93.7188 21.5682 93.8083 21.6575C93.8978 21.7469 93.9508 21.8657 93.9569 21.9913V22.8622C94.4857 22.2897 95.1314 21.8344 95.8514 21.5262C96.5714 21.2181 97.3494 21.0641 98.134 21.0745C99.0356 21.0483 99.9272 21.2666 100.712 21.7057C101.497 22.1448 102.145 22.7878 102.585 23.565H102.585ZM140.251 21.0744C141.041 21.041 141.829 21.1855 142.554 21.497C143.28 21.8085 143.924 22.2787 144.439 22.8723C145.398 24.1209 145.887 25.6609 145.82 27.227V36.4461C145.814 36.5707 145.762 36.6888 145.674 36.778C145.585 36.8672 145.467 36.9213 145.341 36.93H142.84C142.713 36.9225 142.593 36.869 142.503 36.7797C142.414 36.6904 142.361 36.5716 142.354 36.4461V27.7212C142.354 25.4393 141.266 24.2781 139.203 24.2781C138.754 24.264 138.307 24.3543 137.9 24.5418C137.492 24.7294 137.135 25.0089 136.857 25.3579C136.3 26.1501 136.018 27.0989 136.053 28.0625V36.4461C136.046 36.5716 135.993 36.6903 135.904 36.7796C135.814 36.8689 135.695 36.9224 135.568 36.93H133.071C132.944 36.9226 132.825 36.8691 132.735 36.7797C132.646 36.6904 132.593 36.5716 132.587 36.4461V21.981C132.593 21.8555 132.646 21.7367 132.735 21.6474C132.825 21.5581 132.944 21.5046 133.071 21.4972H135.511C135.637 21.5058 135.756 21.5599 135.844 21.6491C135.932 21.7383 135.985 21.8564 135.991 21.981V22.9997C136.507 22.3818 137.159 21.8875 137.897 21.5541C138.635 21.2207 139.439 21.0567 140.251 21.0746V21.0744ZM80.1448 24.3086C77.7105 24.3086 76.1633 26.02 76.1633 28.7703C76.1633 31.5207 77.69 33.2269 80.1448 33.2269C82.4865 33.2269 84.0647 31.4342 84.0647 28.7703C84.0648 26.1015 82.4865 24.3087 80.1449 24.3087L80.1448 24.3086ZM63.151 24.1711C62.2531 24.1567 61.382 24.4733 60.7077 25.0591C60.0334 25.6449 59.6044 26.4578 59.5044 27.3391H66.8435C66.6633 25.3834 65.2554 24.1712 63.1512 24.1712L63.151 24.1711ZM122.519 24.1711C121.621 24.1567 120.75 24.4733 120.076 25.0591C119.401 25.6448 118.972 26.4578 118.872 27.3391H126.212C126.032 25.3834 124.623 24.1712 122.519 24.1712L122.519 24.1711Z" fill="#97ADC6"/>
</g>
<defs>
<clipPath id="clip0">
<rect width="157" height="58" fill="white" transform="translate(0.499756)"/>
</clipPath>
</defs>
</svg>
