<svg width="134" height="58" viewBox="0 0 134 58" fill="none" xmlns="http://www.w3.org/2000/svg">
<g clip-path="url(#clip0)">
<path fill-rule="evenodd" clip-rule="evenodd" d="M9.81794 15.3269C9.81794 17.2423 11.3997 18.7903 13.3569 18.7903H16.8958V15.3269C16.8958 13.4116 15.314 11.8635 13.3569 11.8635C11.3997 11.8635 9.81794 13.4116 9.81794 15.3269ZM16.8958 24.0116C16.8958 22.0962 15.314 20.5482 13.3569 20.5482H4.48276C2.52563 20.5482 0.943848 22.0962 0.943848 24.0116C0.943848 25.9269 2.52563 27.475 4.48276 27.475H13.3569C15.314 27.475 16.8958 25.9269 16.8958 24.0116ZM43.5192 37.8127L45.1814 34.0345C46.9777 35.3464 49.3637 36.0285 51.723 36.0285C53.4657 36.0285 54.5649 35.3726 54.5649 34.3756C54.5545 33.2992 52.99 32.9656 51.0712 32.5564C48.0323 31.9084 44.1047 31.0709 44.0554 26.7929C44.0286 23.2508 47.2458 20.522 51.8035 20.522C54.5113 20.522 57.2191 21.178 59.1494 22.6735L57.5944 26.5305C55.8249 25.4285 53.6265 24.6414 51.5354 24.6414C50.1144 24.6414 49.1761 25.2973 49.1761 26.1369C49.1865 27.2022 50.7906 27.6237 52.7487 28.1382C55.8064 28.9416 59.7274 29.9718 59.7928 34.0345C59.7928 37.6553 56.6561 40.2003 52.152 40.2003C48.8544 40.2003 45.8248 39.4394 43.5192 37.8127ZM107.3 32.6701C106.469 34.0869 104.914 35.0577 103.118 35.0577C100.464 35.0577 98.3187 32.9587 98.3187 30.3612C98.3187 27.7637 100.464 25.6646 103.118 25.6646C104.914 25.6646 106.469 26.6354 107.3 28.0523L111.885 25.5597C110.169 22.5686 106.871 20.522 103.118 20.522C97.568 20.522 93.064 24.93 93.064 30.3612C93.064 35.7924 97.568 40.2003 103.118 40.2003C106.898 40.2003 110.169 38.18 111.885 35.1627L107.3 32.6701ZM62.0985 12.3621H67.8358V39.833H62.0985V12.3621ZM114.137 12.3621V39.833H119.874V31.5944L126.684 39.833H134.03L125.37 30.0463L133.386 20.9156H126.362L119.874 28.4983V12.3621H114.137ZM84.8869 32.7226C84.0558 34.0607 82.34 35.0577 80.4097 35.0577C77.7555 35.0577 75.6107 32.9587 75.6107 30.3612C75.6107 27.7637 77.7555 25.6646 80.4097 25.6646C82.34 25.6646 84.0558 26.7141 84.8869 28.0785V32.7226ZM84.8869 20.9156V23.1458C83.9486 21.5978 81.6161 20.522 79.1764 20.522C74.1361 20.522 70.1683 24.8775 70.1683 30.3349C70.1683 35.7924 74.1361 40.2003 79.1764 40.2003C81.6161 40.2003 83.9486 39.1246 84.8869 37.5766V39.8068H90.6243V20.9156H84.8869ZM8.04775 32.6962C8.04775 34.6116 6.46596 36.1596 4.50883 36.1596C2.55171 36.1596 0.969918 34.6116 0.969918 32.6962C0.969918 30.7809 2.55171 29.2328 4.50883 29.2328H8.04775V32.6962ZM9.8172 32.6962C9.8172 30.7809 11.399 29.2328 13.3561 29.2328C15.3132 29.2328 16.895 30.7809 16.895 32.6962V41.3547C16.895 43.27 15.3132 44.818 13.3561 44.818C11.399 44.818 9.8172 43.27 9.8172 41.3547V32.6962ZM27.5398 24.0116C27.5398 22.0962 29.1215 20.5482 31.0787 20.5482C33.0358 20.5482 34.6176 22.0962 34.6176 24.0116C34.6176 25.9269 33.0358 27.475 31.0787 27.475H27.5398V24.0116ZM25.7703 24.0116C25.7703 25.9269 24.1885 27.475 22.2314 27.475C20.2743 27.475 18.6925 25.9269 18.6925 24.0116V15.3269C18.6925 13.4116 20.2743 11.8635 22.2314 11.8635C24.1885 11.8635 25.7703 13.4116 25.7703 15.3269V24.0116ZM25.7703 41.3547C25.7703 39.4393 24.1885 37.8913 22.2314 37.8913H18.6925V41.3547C18.6925 43.27 20.2743 44.818 22.2314 44.818C24.1885 44.818 25.7703 43.27 25.7703 41.3547ZM18.6925 32.6962C18.6925 34.6116 20.2743 36.1596 22.2314 36.1596H31.1055C33.0626 36.1596 34.6444 34.6116 34.6444 32.6962C34.6444 30.7809 33.0626 29.2328 31.1055 29.2328H22.2314C20.2743 29.2328 18.6925 30.7809 18.6925 32.6962Z" fill="#97ADC6"/>
</g>
<defs>
<clipPath id="clip0">
<rect width="134" height="58" fill="white" transform="translate(-0.000244141)"/>
</clipPath>
</defs>
</svg>
