<svg width="119" height="58" viewBox="0 0 119 58" fill="none" xmlns="http://www.w3.org/2000/svg">
<g clip-path="url(#clip0)">
<g clip-path="url(#clip1)">
<path d="M13.6176 33.712L13.0435 41.7869C13.8649 41.7869 14.2206 41.434 14.6472 41.0103L18.4981 37.3301L26.4775 43.1736C27.9409 43.9892 28.9719 43.5597 29.3667 41.8274L34.6043 17.2847L34.6058 17.2833C35.07 15.12 33.8235 14.274 32.3976 14.8047L1.61093 26.5916C-0.490203 27.4072 -0.458389 28.5785 1.25375 29.1092L9.12468 31.5574L27.4073 20.1176C28.2677 19.5478 29.05 19.8631 28.4065 20.4328L13.6176 33.712Z" fill="#97ADC6"/>
<path d="M46.946 35.6116V24.2468H51.0095V22.2244H40.489V24.2468H44.5525V35.6116H46.946ZM54.9246 27.1321C56.2976 27.1321 57.2439 28.0969 57.2903 29.5627H52.4846C52.5867 28.1155 53.5701 27.1321 54.9246 27.1321ZM57.2996 32.5964C57.0305 33.4314 56.1677 33.9602 55.0544 33.9602C53.5051 33.9602 52.4661 32.8748 52.4661 31.2419V31.1028H59.5632V30.342C59.5632 27.2712 57.7634 25.3323 54.9246 25.3323C52.0208 25.3323 50.156 27.3918 50.156 30.5833C50.156 33.7747 52.0115 35.76 55.0081 35.76C57.3738 35.76 59.1736 34.4705 59.4705 32.5964H57.2996ZM61.196 35.6116H63.5061V21.6028H61.196V35.6116ZM69.8982 27.1321C71.2712 27.1321 72.2175 28.0969 72.2639 29.5627H67.4583C67.5603 28.1155 68.5437 27.1321 69.8982 27.1321ZM72.2732 32.5964C72.0042 33.4314 71.1414 33.9602 70.0281 33.9602C68.4788 33.9602 67.4397 32.8748 67.4397 31.2419V31.1028H74.5369V30.342C74.5369 27.2712 72.7371 25.3323 69.8982 25.3323C66.9944 25.3323 65.1296 27.3918 65.1296 30.5833C65.1296 33.7747 66.9851 35.76 69.9817 35.76C72.3474 35.76 74.1472 34.4705 74.4441 32.5964H72.2732ZM80.5393 33.7097C79.0178 33.7097 78.0344 32.4851 78.0344 30.5183C78.0344 28.5422 79.0178 27.2805 80.5393 27.2805C82.0793 27.2805 83.0906 28.5701 83.0906 30.5183C83.0906 32.4666 82.0793 33.7097 80.5393 33.7097ZM80.5393 39.4338C83.4709 39.4338 85.4006 37.8567 85.4006 35.4446V25.4714H83.137V27.1785H83.0906C82.5061 26.0559 81.3464 25.3601 79.8992 25.3601C77.3201 25.3601 75.6687 27.364 75.6687 30.509C75.6687 33.6077 77.3479 35.5745 79.8528 35.5745C81.3093 35.5745 82.4968 34.8972 83.0349 33.8118H83.0906V35.5095C83.0906 36.8269 82.1721 37.7083 80.6135 37.7083C79.4724 37.7083 78.5818 37.1794 78.322 36.3816H76.0212C76.2625 38.1536 78.0623 39.4338 80.5393 39.4338ZM87.3767 35.6116H89.6868V29.7297C89.6868 28.301 90.5032 27.4197 91.8577 27.4197C92.2566 27.4197 92.6184 27.4753 92.8132 27.5496V25.4529C92.637 25.3972 92.3772 25.3601 92.071 25.3601C90.8743 25.3601 89.9651 26.0466 89.6404 27.2341H89.594V25.4714H87.3767V35.6116ZM97.4983 33.9509C96.4221 33.9509 95.717 33.4314 95.717 32.615C95.717 31.7893 96.385 31.3069 97.6467 31.2234L99.9661 31.075V31.845C99.9661 33.0789 98.8992 33.9509 97.4983 33.9509ZM96.821 35.7229C98.1663 35.7229 99.4187 35.0642 99.9753 33.9788H100.031V35.6116H102.248V28.6628C102.248 26.6497 100.606 25.3323 98.0735 25.3323C95.6892 25.3323 93.9636 26.6589 93.908 28.5144H96.0417C96.1995 27.698 96.9509 27.1506 97.9993 27.1506C99.2424 27.1506 99.9661 27.7351 99.9661 28.8113V29.5535L97.3313 29.7112C94.78 29.8689 93.3977 30.8987 93.3977 32.7078C93.3977 34.5076 94.8264 35.7229 96.821 35.7229ZM104.187 35.6116H106.497V29.4514C106.497 28.199 107.323 27.2991 108.492 27.2991C109.615 27.2991 110.32 28.0042 110.32 29.1453V35.6116H112.565V29.3958C112.565 28.1619 113.372 27.2991 114.531 27.2991C115.719 27.2991 116.387 28.0134 116.387 29.2751V35.6116H118.697V28.7092C118.697 26.6868 117.38 25.3508 115.385 25.3508C113.928 25.3508 112.713 26.1208 112.221 27.364H112.175C111.795 26.0745 110.765 25.3508 109.336 25.3508C108 25.3508 106.896 26.0745 106.451 27.2527H106.405V25.4714H104.187V35.6116Z" fill="#97ADC6"/>
</g>
</g>
<defs>
<clipPath id="clip0">
<rect width="119" height="58" fill="white" transform="translate(-0.000244141)"/>
</clipPath>
<clipPath id="clip1">
<rect width="120.044" height="28.9214" fill="white" transform="translate(-0.000244141 14.6509)"/>
</clipPath>
</defs>
</svg>
