<svg width="139" height="58" viewBox="0 0 139 58" fill="none" xmlns="http://www.w3.org/2000/svg">
<g clip-path="url(#clip0)">
<path fill-rule="evenodd" clip-rule="evenodd" d="M46.2433 22.544H51.4715V22.5429V20.3627H46.2433V15.3123H43.5504V20.3627H39.708V22.5429H43.5493V33.7169C43.5493 34.7112 43.7011 35.515 44.0059 36.1272C44.3084 36.7393 44.6988 37.224 45.1737 37.5814C45.63 37.93 46.1566 38.1779 46.7182 38.3085C47.2729 38.4359 47.8003 38.5002 48.3026 38.5002C48.8671 38.5036 49.4308 38.4587 49.9875 38.366C50.5012 38.2758 50.9966 38.1428 51.4715 37.9636L51.3528 35.7067C50.9829 35.8848 50.5937 36.0257 50.185 36.1272C49.7752 36.2297 49.3859 36.2805 49.0161 36.2805C48.6199 36.2805 48.2489 36.2354 47.9065 36.1452C47.564 36.0573 47.2672 35.8915 47.0161 35.6492C46.7638 35.4068 46.5732 35.0686 46.4419 34.6357C46.3095 34.2017 46.2433 33.6538 46.2433 32.9898V22.544ZM72.5442 29.3553V28.7804C72.5442 27.5561 72.3513 26.4074 71.9688 25.3364C71.6049 24.2972 71.0326 23.341 70.2862 22.5249C69.5454 21.7211 68.6219 21.0842 67.5134 20.6107C66.4039 20.1395 65.1231 19.9027 63.671 19.9027C62.3503 19.9027 61.122 20.1395 59.9873 20.6107C58.8751 21.0673 57.8656 21.737 57.0171 22.5812C56.1628 23.4367 55.4896 24.4514 55.0365 25.5664C54.5605 26.714 54.323 27.9642 54.323 29.3159C54.323 30.6687 54.5673 31.9177 55.0559 33.0665C55.5208 34.1796 56.2 35.193 57.0559 36.0505C57.9194 36.9047 58.9508 37.5753 60.0866 38.0211C61.2601 38.4923 62.5352 38.729 63.9085 38.729C65.388 38.7398 66.853 38.4401 68.2064 37.8497C69.5397 37.2635 70.7611 36.294 71.8707 34.9412L69.8502 33.4103C69.3216 34.2276 68.5488 34.948 67.5329 35.5725C66.5157 36.1971 65.308 36.5093 63.9085 36.5093C62.9975 36.5176 62.0944 36.3423 61.2544 35.9941C60.4359 35.6492 59.7236 35.1836 59.1163 34.5963C58.5079 34.01 58.0319 33.3213 57.6894 32.5299C57.347 31.7407 57.1609 30.8986 57.1358 30.0047H72.5042C72.5305 29.7758 72.5442 29.5582 72.5442 29.3553ZM68.1276 23.7492C69.1709 24.8584 69.7303 26.2552 69.8102 27.9383H69.8091H57.1757C57.228 27.1742 57.4296 26.4273 57.7693 25.7389C58.4741 24.3048 59.6856 23.1749 61.1757 22.5621C61.9416 22.2442 62.7727 22.0841 63.671 22.0841C65.598 22.0841 67.0842 22.6387 68.1276 23.7492ZM80.9013 23.4234C80.8945 22.4013 80.8415 21.3801 80.7427 20.3627H78.1685C78.2255 21.0504 78.2651 21.7394 78.2872 22.4291C78.3135 23.1945 78.326 23.819 78.326 24.3027V38.2702H81.0201V29.087C81.0201 27.8876 81.1787 26.8482 81.4949 25.9677C81.8123 25.0884 82.2346 24.3613 82.762 23.7875C83.2906 23.2125 83.8922 22.7864 84.5657 22.5057C85.2392 22.225 85.9321 22.0841 86.6455 22.0841C87.6215 22.0841 88.4332 22.2374 89.0804 22.5429C89.7016 22.8278 90.235 23.2705 90.6261 23.8258C91.0073 24.3737 91.279 25.0298 91.4377 25.7964C91.5952 26.5607 91.6751 27.4163 91.6751 28.3599V38.2702H94.3691V27.2878C94.3691 25.0692 93.7812 23.2836 92.6055 21.9319C91.4308 20.5791 89.6683 19.9027 87.3179 19.9027C85.9995 19.9025 84.7034 20.2388 83.5554 20.879C82.3671 21.5295 81.5086 22.3783 80.9812 23.4234H80.9013ZM97.9524 45.1773C97.6488 45.139 97.3657 45.0815 97.1008 45.0048L96.7058 47.1862C97.0675 47.2917 97.4388 47.3623 97.8143 47.397C98.2104 47.4353 98.5528 47.4545 98.8439 47.4545C99.8999 47.4545 100.765 47.2944 101.439 46.9754C102.112 46.6564 102.646 46.2359 103.043 45.7128C103.444 45.1775 103.728 44.5649 103.875 43.9147C104.032 43.2383 104.112 42.5428 104.112 41.8292V20.3627H101.418V41.4075C101.418 41.9689 101.385 42.4853 101.32 42.9576C101.254 43.43 101.128 43.8313 100.943 44.1627C100.758 44.4941 100.493 44.7557 100.151 44.9473C99.8085 45.139 99.3588 45.2337 98.804 45.2337C98.5403 45.2337 98.2561 45.2156 97.9524 45.1773ZM104.073 14.7948C104.468 14.451 104.667 14.0102 104.667 13.4747H104.666C104.666 12.9393 104.468 12.4985 104.072 12.1546C103.676 11.8108 103.241 11.6383 102.765 11.6383C102.29 11.6383 101.854 11.8108 101.458 12.1546C101.062 12.4985 100.864 12.9393 100.864 13.4747C100.858 13.7245 100.908 13.9726 101.01 14.201C101.113 14.4293 101.266 14.6322 101.458 14.7948C101.854 15.1398 102.29 15.3111 102.765 15.3111C103.24 15.3111 103.676 15.1398 104.073 14.7948ZM113.975 14.7948C114.371 14.451 114.569 14.0102 114.569 13.4747C114.569 12.9393 114.371 12.4985 113.975 12.1546C113.579 11.8108 113.143 11.6383 112.668 11.6383C112.192 11.6383 111.757 11.8108 111.361 12.1546C110.965 12.4985 110.767 12.9393 110.767 13.4747C110.761 13.7245 110.81 13.9726 110.913 14.201C111.016 14.4294 111.169 14.6322 111.361 14.7948C111.757 15.1398 112.192 15.3111 112.668 15.3111C113.143 15.3111 113.579 15.1398 113.975 14.7948ZM111.32 38.2702H114.014V20.3627H111.32V38.2702ZM123.759 23.4234C123.752 22.4013 123.699 21.3801 123.6 20.3627H121.025C121.082 21.0504 121.122 21.7394 121.144 22.4291C121.17 23.1945 121.184 23.819 121.184 24.3027V38.2702H123.878V29.087C123.878 27.8876 124.036 26.8482 124.353 25.9677C124.67 25.0884 125.091 24.3613 125.62 23.7875C126.148 23.2125 126.749 22.7864 127.422 22.5057C128.096 22.225 128.79 22.0841 129.502 22.0841C130.479 22.0841 131.291 22.2374 131.938 22.5429C132.559 22.8278 133.093 23.2705 133.484 23.8258C133.865 24.3737 134.137 25.0298 134.294 25.7964C134.453 26.5607 134.532 27.4163 134.532 28.3599V38.2702H137.226V27.2878C137.226 25.0692 136.639 23.2836 135.463 21.9319C134.287 20.5791 132.525 19.9027 130.176 19.9027C128.857 19.9023 127.56 20.2386 126.412 20.879C125.224 21.5295 124.365 22.3783 123.838 23.4234H123.759ZM17.0098 42.6104C26.2893 42.6194 33.6305 35.5849 33.6419 26.6734C33.6545 17.7631 26.3429 10.6203 17.1319 10.5459C8.00879 10.4738 0.514626 17.6875 0.499786 26.5573C0.482663 35.5015 7.78733 42.6025 17.0098 42.6104ZM32.1282 26.6317C32.0917 34.6289 25.343 41.1065 17.0531 41.1032C8.7816 41.1009 2.01003 34.5692 2.01003 26.5945C2.01117 18.6886 8.91288 12.0351 17.0897 12.0543C25.2916 12.0735 32.1659 18.7371 32.1282 26.6317ZM20.9719 37.8203C22.4719 38.3953 23.909 38.3524 25.3314 37.3311C25.1296 37.246 24.9343 37.1688 24.7448 37.094C24.3641 36.9436 24.0074 36.8026 23.6705 36.6265C20.9867 35.2185 19.5084 33.0912 19.6032 30.0767C19.6625 28.1795 20.6968 26.759 22.0666 25.4964C24.1271 23.5969 25.586 21.4211 25.3691 18.507C25.2378 16.7236 24.3211 15.4035 22.8063 14.965C22.8194 15.1018 22.8328 15.2352 22.8461 15.3663C22.8732 15.6357 22.8994 15.8953 22.9193 16.1554C23.2641 20.7538 19.6454 24.2056 15.0325 23.6521C14.6326 23.6048 14.241 23.4964 13.8486 23.3878C13.6238 23.3256 13.3988 23.2634 13.1718 23.2125C10.3476 22.5778 7.61139 22.5169 5.24271 24.4841C3.98589 25.528 3.58064 26.6159 3.9094 27.9743C4.09109 27.8616 4.26902 27.749 4.44518 27.6375C4.81024 27.4064 5.16766 27.1801 5.53495 26.9687C9.52917 24.6656 14.3316 26.4208 15.7368 30.6821C16.0942 31.7776 16.4786 32.8643 16.8898 33.9412C17.6226 35.8407 19.0495 37.083 20.9719 37.8203Z" fill="#97ADC6"/>
</g>
<defs>
<clipPath id="clip0">
<rect width="138" height="58" fill="white" transform="translate(0.499756)"/>
</clipPath>
</defs>
</svg>
