<svg xmlns="http://www.w3.org/2000/svg" width="100" height="100" fill="none" viewBox="0 0 100 100">
    <path fill="#52AEA2" fill-rule="evenodd" d="M50 100c27.614 0 50-22.386 50-50S77.614 0 50 0 0 22.386 0 50s22.386 50 50 50z" clip-rule="evenodd"/>
    <path stroke="#fff" stroke-linecap="round" stroke-linejoin="round" stroke-miterlimit="10" stroke-width="2" d="M65.567 41.193H47.76M41.567 41.193h-7.14M42.92 58.067h-8.827M70.567 51.86H60.76M55.587 51.86h-26.16M52.28 58.067h-3.66M80.333 40.987v28.68a2.666 2.666 0 0 1-2.666 2.666M53.613 72.333h-31.28a2.666 2.666 0 0 1-2.666-2.666V31a2.666 2.666 0 0 1 2.666-2.667H77.667A2.666 2.666 0 0 1 80.333 31v4.327"/>
    <path stroke="#fff" stroke-linecap="round" stroke-linejoin="round" stroke-miterlimit="10" stroke-width="2" d="M65.3 72.453a7.667 7.667 0 1 0 0-15.333 7.667 7.667 0 0 0 0 15.333zM70.967 74.347v7.4l-5.247-2-6.087 2v-7.4"/>
</svg>
