<svg width="280" height="239" viewBox="0 0 280 239" fill="none" xmlns="http://www.w3.org/2000/svg">
<circle cx="189" cy="184" r="8" fill="#FFD12D"/>
<path d="M32.4517 63C32.297 62.7596 32.1616 62.6194 32.1036 62.4592C31.3689 60.416 30.6535 58.3729 29.9381 56.3297C29.7254 55.7288 29.5128 55.1079 29.3194 54.4869C29.1454 53.9461 28.8747 53.4854 28.3333 53.2851C27.4053 52.9445 26.4965 52.604 25.5684 52.2435C24.505 51.8428 23.4609 51.4222 22.4169 51.0216C21.7788 50.7812 21.1408 50.5809 20.5027 50.3205C20.3094 50.2404 20.174 50.0401 20 49.8798C20.174 49.7396 20.3094 49.5193 20.5027 49.4592C21.5661 49.0385 22.6489 48.6379 23.7123 48.2373C24.6984 47.8567 25.6651 47.4961 26.6512 47.1156C27.1926 46.9153 27.734 46.7149 28.2947 46.5146C28.7587 46.3344 29.0681 46.0139 29.2421 45.5331C29.5708 44.5917 29.8995 43.6502 30.2282 42.7288C30.7695 41.2265 31.3109 39.7042 31.8523 38.2018C31.949 37.9214 31.9876 37.621 32.123 37.3405C32.2003 37.1803 32.3743 37 32.5097 37C32.645 37 32.819 37.2003 32.877 37.3606C33.6118 39.4037 34.3271 41.4468 35.0619 43.49C35.2746 44.1109 35.4872 44.7519 35.6999 45.3729C35.8739 45.9337 36.164 46.3344 36.7247 46.5347C38.1168 47.0354 39.5089 47.5562 40.901 48.0971C41.8871 48.4777 42.8732 48.8783 43.8786 49.2589C44.1299 49.359 44.42 49.3991 44.652 49.5193C44.8067 49.5994 45 49.7596 45 49.8998C45 50.02 44.8067 50.2404 44.6713 50.2804C42.2351 51.2419 39.8183 52.1433 37.4014 53.0647C37.3047 53.1048 37.1887 53.1448 37.0727 53.1649C36.2606 53.3451 35.8353 53.8459 35.5839 54.6872C35.2746 55.7689 34.8299 56.8105 34.4625 57.8721C34.1145 58.8737 33.7471 59.8552 33.3991 60.8567C33.2057 61.4176 33.0317 61.9985 32.819 62.5593C32.7997 62.6795 32.645 62.7997 32.4517 63Z" fill="#93E6CF"/>
<path d="M69.526 90.5135C69.526 90.5135 76.5 77.5 97.2578 67.4491C127 55.5 134.182 62.8942 157.736 50.8141C174.141 42.4225 181.505 29.8723 181.505 29.8723C181.505 29.8723 188.414 44.391 189.672 56.6778C191.251 71.9786 185.216 81.1333 185.216 81.1333C185.216 81.1333 191.209 86.1481 199.737 89.0697C212.29 93.3946 222.66 92.1995 222.66 92.1995C222.66 92.1995 218.048 113.377 195.579 123.624C173.111 133.871 166.5 128.566 141.495 135.917C114 144 108.449 159.835 108.449 159.835" fill="white"/>
<path d="M69.526 90.5135C69.526 90.5135 76.5 77.5 97.2578 67.4491C127 55.5 134.182 62.8942 157.736 50.8141C174.141 42.4225 181.505 29.8723 181.505 29.8723C181.505 29.8723 188.414 44.391 189.672 56.6778C191.251 71.9786 185.216 81.1333 185.216 81.1333C185.216 81.1333 191.209 86.1481 199.737 89.0697C212.29 93.3946 222.66 92.1995 222.66 92.1995C222.66 92.1995 218.048 113.377 195.579 123.624C173.111 133.871 166.5 128.566 141.495 135.917C114 144 108.449 159.835 108.449 159.835" stroke="#181818" stroke-width="3" stroke-miterlimit="10"/>
<path d="M134.654 217.875L132.499 219.049C129.276 220.845 125.233 219.756 123.435 216.574L51.4178 89.5205C49.6362 86.4091 50.7555 82.4014 53.979 80.6056L56.1335 79.4322C59.3569 77.6364 63.3997 78.7249 65.1977 81.9074L137.287 208.944C138.996 212.072 137.805 216.096 134.654 217.875Z" fill="white" stroke="#181818" stroke-width="3" stroke-miterlimit="10"/>
<path d="M249.452 93C249.297 92.7596 249.162 92.6194 249.104 92.4592C248.369 90.416 247.654 88.3729 246.938 86.3297C246.725 85.7288 246.513 85.1079 246.319 84.4869C246.145 83.9461 245.875 83.4854 245.333 83.2851C244.405 82.9445 243.497 82.604 242.568 82.2435C241.505 81.8428 240.461 81.4222 239.417 81.0216C238.779 80.7812 238.141 80.5809 237.503 80.3205C237.309 80.2404 237.174 80.0401 237 79.8798C237.174 79.7396 237.309 79.5193 237.503 79.4592C238.566 79.0385 239.649 78.6379 240.712 78.2373C241.698 77.8567 242.665 77.4961 243.651 77.1156C244.193 76.9153 244.734 76.7149 245.295 76.5146C245.759 76.3344 246.068 76.0139 246.242 75.5331C246.571 74.5917 246.899 73.6502 247.228 72.7288C247.77 71.2265 248.311 69.7042 248.852 68.2018C248.949 67.9214 248.988 67.621 249.123 67.3405C249.2 67.1803 249.374 67 249.51 67C249.645 67 249.819 67.2003 249.877 67.3606C250.612 69.4037 251.327 71.4468 252.062 73.49C252.275 74.1109 252.487 74.7519 252.7 75.3729C252.874 75.9337 253.164 76.3344 253.725 76.5347C255.117 77.0354 256.509 77.5562 257.901 78.0971C258.887 78.4777 259.873 78.8783 260.879 79.2589C261.13 79.359 261.42 79.3991 261.652 79.5193C261.807 79.5994 262 79.7596 262 79.8998C262 80.02 261.807 80.2404 261.671 80.2804C259.235 81.2419 256.818 82.1433 254.401 83.0647C254.305 83.1048 254.189 83.1448 254.073 83.1649C253.261 83.3451 252.835 83.8459 252.584 84.6872C252.275 85.7689 251.83 86.8105 251.462 87.8721C251.114 88.8737 250.747 89.8552 250.399 90.8567C250.206 91.4176 250.032 91.9985 249.819 92.5593C249.8 92.6795 249.645 92.7997 249.452 93Z" fill="#FFB9F8"/>
<path fill-rule="evenodd" clip-rule="evenodd" d="M154.04 99.0876C152.949 103.478 150.078 107.408 145.778 109.714C141.421 112.05 136.488 112.242 132.189 110.656L137.477 94.2597L154.04 99.0876ZM154.52 95.6702L137.151 90.6069C136.09 90.2978 134.976 90.8885 134.637 91.9398L129.092 109.131C126.738 107.652 124.725 105.559 123.318 102.934C118.988 94.8595 122.023 84.8037 130.098 80.4737C138.172 76.1437 148.228 79.1792 152.558 87.2537C153.996 89.9348 154.621 92.8343 154.52 95.6702ZM155.568 85.6396C160.789 95.3764 157.129 107.502 147.392 112.724C137.655 117.945 125.529 114.285 120.308 104.548C115.086 94.8112 118.747 82.6852 128.484 77.4638C138.22 72.2424 150.346 75.9028 155.568 85.6396Z" fill="#0085FF"/>
</svg>
