<svg width="1183" height="619" viewBox="0 0 1183 619" fill="none" xmlns="http://www.w3.org/2000/svg">
<path d="M1170.45 619C1170.3 618.76 1170.16 618.619 1170.1 618.459C1169.37 616.416 1168.65 614.373 1167.94 612.33C1167.73 611.729 1167.51 611.108 1167.32 610.487C1167.15 609.946 1166.87 609.485 1166.33 609.285C1165.41 608.945 1164.5 608.604 1163.57 608.243C1162.51 607.843 1161.46 607.422 1160.42 607.022C1159.78 606.781 1159.14 606.581 1158.5 606.32C1158.31 606.24 1158.17 606.04 1158 605.88C1158.17 605.74 1158.31 605.519 1158.5 605.459C1159.57 605.039 1160.65 604.638 1161.71 604.237C1162.7 603.857 1163.67 603.496 1164.65 603.116C1165.19 602.915 1165.73 602.715 1166.29 602.515C1166.76 602.334 1167.07 602.014 1167.24 601.533C1167.57 600.592 1167.9 599.65 1168.23 598.729C1168.77 597.227 1169.31 595.704 1169.85 594.202C1169.95 593.921 1169.99 593.621 1170.12 593.341C1170.2 593.18 1170.37 593 1170.51 593C1170.65 593 1170.82 593.2 1170.88 593.361C1171.61 595.404 1172.33 597.447 1173.06 599.49C1173.27 600.111 1173.49 600.752 1173.7 601.373C1173.87 601.934 1174.16 602.334 1174.72 602.535C1176.12 603.035 1177.51 603.556 1178.9 604.097C1179.89 604.478 1180.87 604.878 1181.88 605.259C1182.13 605.359 1182.42 605.399 1182.65 605.519C1182.81 605.599 1183 605.76 1183 605.9C1183 606.02 1182.81 606.24 1182.67 606.28C1180.24 607.242 1177.82 608.143 1175.4 609.065C1175.3 609.105 1175.19 609.145 1175.07 609.165C1174.26 609.345 1173.84 609.846 1173.58 610.687C1173.27 611.769 1172.83 612.81 1172.46 613.872C1172.11 614.874 1171.75 615.855 1171.4 616.857C1171.21 617.418 1171.03 617.998 1170.82 618.559C1170.8 618.68 1170.65 618.8 1170.45 619Z" fill="#FFB9F8"/>
<circle cx="8" cy="492" r="8" fill="#FFD12D"/>
<path d="M700.502 604.629C720.153 593.446 736.526 571.191 728.118 560.162C719.034 548.246 706.542 559.49 710.211 567.414C713.881 575.338 737.023 586.115 758.336 563.142C774.634 545.574 771.863 524.632 768.241 507" stroke="#333333" stroke-width="3" stroke-linecap="round" stroke-linejoin="round"/>
<path d="M851.452 26C851.297 25.7596 851.162 25.6194 851.104 25.4592C850.369 23.416 849.654 21.3729 848.938 19.3297C848.725 18.7288 848.513 18.1079 848.319 17.4869C848.145 16.9461 847.875 16.4854 847.333 16.2851C846.405 15.9445 845.497 15.604 844.568 15.2435C843.505 14.8428 842.461 14.4222 841.417 14.0216C840.779 13.7812 840.141 13.5809 839.503 13.3205C839.309 13.2404 839.174 13.0401 839 12.8798C839.174 12.7396 839.309 12.5193 839.503 12.4592C840.566 12.0385 841.649 11.6379 842.712 11.2373C843.698 10.8567 844.665 10.4961 845.651 10.1156C846.193 9.91525 846.734 9.71495 847.295 9.51464C847.759 9.33436 848.068 9.01387 848.242 8.53313C848.571 7.59168 848.899 6.65023 849.228 5.72881C849.77 4.2265 850.311 2.70416 850.852 1.20185C850.949 0.921418 850.988 0.620955 851.123 0.340524C851.2 0.180277 851.374 0 851.51 0C851.645 0 851.819 0.200308 851.877 0.360555C852.612 2.4037 853.327 4.44684 854.062 6.48998C854.275 7.11094 854.487 7.75193 854.7 8.37288C854.874 8.93374 855.164 9.33436 855.725 9.53467C857.117 10.0354 858.509 10.5562 859.901 11.0971C860.887 11.4777 861.873 11.8783 862.879 12.2589C863.13 12.359 863.42 12.3991 863.652 12.5193C863.807 12.5994 864 12.7596 864 12.8998C864 13.02 863.807 13.2404 863.671 13.2804C861.235 14.2419 858.818 15.1433 856.401 16.0647C856.305 16.1048 856.189 16.1448 856.073 16.1649C855.261 16.3451 854.835 16.8459 854.584 17.6872C854.275 18.7689 853.83 19.8105 853.462 20.8721C853.114 21.8737 852.747 22.8552 852.399 23.8567C852.206 24.4176 852.032 24.9985 851.819 25.5593C851.8 25.6795 851.645 25.7997 851.452 26Z" fill="#93E6CF"/>
</svg>
