<svg width="236" height="245" viewBox="0 0 236 245" fill="none" xmlns="http://www.w3.org/2000/svg">
<path d="M196.258 2.23975H39.3437C32.6367 2.23776 26.2033 4.88593 21.4572 9.60231C16.7112 14.3187 14.0407 20.7174 14.0328 27.3923V244H21.182V25.8991C21.1839 23.7235 21.6165 21.5697 22.4548 19.5604C23.2932 17.5512 24.521 15.726 26.0682 14.189C27.6154 12.652 29.4515 11.4334 31.4719 10.6026C33.4923 9.77188 35.6574 9.3453 37.8434 9.34727H61.8491C62.5388 9.34924 63.1998 9.62281 63.6876 10.1082C64.1753 10.5936 64.4502 11.2514 64.4522 11.9379V20.8223C64.4562 24.042 65.7436 27.1286 68.0319 29.4045C70.3202 31.6805 73.4224 32.9599 76.6576 32.9619H158.307C161.542 32.9599 164.644 31.6805 166.932 29.4045C169.221 27.1286 170.508 24.042 170.512 20.8223V11.9379C170.512 11.2521 170.785 10.5943 171.272 10.1087C171.759 9.62306 172.419 9.34924 173.108 9.34727H197.759C202.168 9.35319 206.395 11.0989 209.512 14.2017C212.63 17.3045 214.384 21.5111 214.39 25.8991V244H221.532V27.3923C221.526 20.7233 218.861 14.329 214.123 9.61331C209.384 4.89758 202.959 2.24568 196.258 2.23975ZM137.88 21.1882H97.685C96.2569 21.1357 94.9048 20.5343 93.9131 19.5102C92.9213 18.4861 92.3672 17.1193 92.3672 15.697C92.3672 14.2747 92.9213 12.9079 93.9131 11.8838C94.9048 10.8597 96.2569 10.2583 97.685 10.2058H137.88C138.621 10.1786 139.361 10.3005 140.054 10.5642C140.747 10.8279 141.38 11.228 141.915 11.7406C142.449 12.2532 142.874 12.8677 143.164 13.5475C143.455 14.2273 143.604 14.9584 143.604 15.697C143.604 16.4356 143.455 17.1667 143.164 17.8465C142.874 18.5263 142.449 19.1408 141.915 19.6534C141.38 20.166 140.747 20.5661 140.054 20.8298C139.361 21.0935 138.621 21.2154 137.88 21.1882Z" fill="white"/>
<path d="M14.2505 27.3923C14.2585 20.7174 16.9289 14.3187 21.675 9.60233C26.4211 4.88595 32.8545 2.23778 39.5615 2.23977H196.476C203.177 2.2457 209.602 4.89759 214.34 9.61333C219.079 14.3291 221.743 20.7233 221.749 27.3923V244H224V27.3923C223.992 20.1299 221.09 13.1671 215.93 8.03176C210.77 2.89641 203.773 0.00790576 196.476 1.02223e-06H39.5615C32.2576 -0.00198231 25.2518 2.88216 20.0836 8.01857C14.9155 13.155 12.008 20.1234 12 27.3923V244H14.2505V27.3923Z" fill="#181818"/>
<path d="M198.326 11.587H173.675C173.583 11.589 173.495 11.6268 173.431 11.6924C173.366 11.758 173.33 11.8462 173.33 11.9379V20.8223C173.326 24.636 171.802 28.2923 169.091 30.9883C166.381 33.6843 162.706 35.1997 158.874 35.2016H77.2476C73.4155 35.1997 69.7409 33.6843 67.0305 30.9883C64.3202 28.2923 62.7956 24.636 62.7916 20.8223V11.9379C62.7916 11.8449 62.7545 11.7556 62.6884 11.6898C62.6223 11.624 62.5326 11.587 62.4391 11.587H38.4109C36.5204 11.5851 34.648 11.9537 32.9007 12.6719C31.1533 13.3901 29.5652 14.4438 28.2271 15.7728C26.8889 17.1018 25.8268 18.6801 25.1016 20.4176C24.3763 22.155 24.002 24.0177 24 25.8991V244H212.707V25.8991C212.703 22.1045 211.187 18.4665 208.491 15.7833C205.794 13.1001 202.139 11.591 198.326 11.587Z" fill="#F8FBFF"/>
<circle cx="118" cy="113" r="40" fill="#97ADC6"/>
<path d="M106.279 117.33H98.062L96.2166 122.448H93.5496L101.039 102.836H103.302L110.804 122.448H108.151L106.279 117.33ZM98.8432 115.202H105.511L102.17 106.029L98.8432 115.202ZM125.365 115.323C125.365 117.541 124.858 119.328 123.843 120.684C122.828 122.04 121.455 122.718 119.721 122.718C117.952 122.718 116.561 122.156 115.546 121.034V128.052H113.054V107.874H115.33L115.452 109.49C116.466 108.233 117.876 107.605 119.681 107.605C121.432 107.605 122.815 108.265 123.83 109.585C124.853 110.905 125.365 112.741 125.365 115.094V115.323ZM122.873 115.04C122.873 113.397 122.523 112.099 121.823 111.147C121.122 110.195 120.161 109.719 118.94 109.719C117.432 109.719 116.3 110.388 115.546 111.726V118.69C116.291 120.019 117.432 120.684 118.967 120.684C120.161 120.684 121.109 120.212 121.809 119.269C122.519 118.318 122.873 116.908 122.873 115.04ZM140.856 115.323C140.856 117.541 140.348 119.328 139.334 120.684C138.319 122.04 136.945 122.718 135.212 122.718C133.443 122.718 132.051 122.156 131.036 121.034V128.052H128.544V107.874H130.821L130.942 109.49C131.957 108.233 133.366 107.605 135.171 107.605C136.922 107.605 138.305 108.265 139.32 109.585C140.344 110.905 140.856 112.741 140.856 115.094V115.323ZM138.364 115.04C138.364 113.397 138.013 112.099 137.313 111.147C136.613 110.195 135.652 109.719 134.431 109.719C132.922 109.719 131.79 110.388 131.036 111.726V118.69C131.781 120.019 132.922 120.684 134.457 120.684C135.652 120.684 136.599 120.212 137.3 119.269C138.009 118.318 138.364 116.908 138.364 115.04Z" fill="white"/>
<rect x="56" y="185" width="125" height="30" rx="8" fill="#0084FF"/>
<path d="M71.8008 201.158C71.7344 202.076 71.3945 202.799 70.7812 203.326C70.1719 203.854 69.3672 204.117 68.3672 204.117C67.2734 204.117 66.4121 203.75 65.7832 203.016C65.1582 202.277 64.8457 201.266 64.8457 199.98V199.459C64.8457 198.639 64.9902 197.916 65.2793 197.291C65.5684 196.666 65.9805 196.188 66.5156 195.855C67.0547 195.52 67.6797 195.352 68.3906 195.352C69.375 195.352 70.168 195.615 70.7695 196.143C71.3711 196.67 71.7188 197.41 71.8125 198.363H70.0547C70.0117 197.812 69.8574 197.414 69.5918 197.168C69.3301 196.918 68.9297 196.793 68.3906 196.793C67.8047 196.793 67.3652 197.004 67.0723 197.426C66.7832 197.844 66.6348 198.494 66.627 199.377V200.021C66.627 200.943 66.7656 201.617 67.043 202.043C67.3242 202.469 67.7656 202.682 68.3672 202.682C68.9102 202.682 69.3145 202.559 69.5801 202.312C69.8496 202.062 70.0039 201.678 70.043 201.158H71.8008ZM76.5176 204C76.4395 203.848 76.3828 203.658 76.3477 203.432C75.9375 203.889 75.4043 204.117 74.748 204.117C74.127 204.117 73.6113 203.938 73.2012 203.578C72.7949 203.219 72.5918 202.766 72.5918 202.219C72.5918 201.547 72.8398 201.031 73.3359 200.672C73.8359 200.312 74.5566 200.131 75.498 200.127H76.2773V199.764C76.2773 199.471 76.2012 199.236 76.0488 199.061C75.9004 198.885 75.6641 198.797 75.3398 198.797C75.0547 198.797 74.8301 198.865 74.666 199.002C74.5059 199.139 74.4258 199.326 74.4258 199.564H72.7324C72.7324 199.197 72.8457 198.857 73.0723 198.545C73.2988 198.232 73.6191 197.988 74.0332 197.812C74.4473 197.633 74.9121 197.543 75.4277 197.543C76.209 197.543 76.8281 197.74 77.2852 198.135C77.7461 198.525 77.9766 199.076 77.9766 199.787V202.535C77.9805 203.137 78.0645 203.592 78.2285 203.9V204H76.5176ZM75.1172 202.822C75.3672 202.822 75.5977 202.768 75.8086 202.658C76.0195 202.545 76.1758 202.395 76.2773 202.207V201.117H75.6445C74.7969 201.117 74.3457 201.41 74.291 201.996L74.2852 202.096C74.2852 202.307 74.3594 202.48 74.5078 202.617C74.6562 202.754 74.8594 202.822 75.1172 202.822ZM80.8359 197.66L80.8887 198.393C81.3418 197.826 81.9492 197.543 82.7109 197.543C83.3828 197.543 83.8828 197.74 84.2109 198.135C84.5391 198.529 84.707 199.119 84.7148 199.904V204H83.0215V199.945C83.0215 199.586 82.9434 199.326 82.7871 199.166C82.6309 199.002 82.3711 198.92 82.0078 198.92C81.5312 198.92 81.1738 199.123 80.9355 199.529V204H79.2422V197.66H80.8359ZM88.6406 202.752C88.9531 202.752 89.207 202.666 89.4023 202.494C89.5977 202.322 89.6992 202.094 89.707 201.809H91.2949C91.291 202.238 91.1738 202.633 90.9434 202.992C90.7129 203.348 90.3965 203.625 89.9941 203.824C89.5957 204.02 89.1543 204.117 88.6699 204.117C87.7637 204.117 87.0488 203.83 86.5254 203.256C86.002 202.678 85.7402 201.881 85.7402 200.865V200.754C85.7402 199.777 86 198.998 86.5195 198.416C87.0391 197.834 87.752 197.543 88.6582 197.543C89.4512 197.543 90.0859 197.77 90.5625 198.223C91.043 198.672 91.2871 199.271 91.2949 200.021H89.707C89.6992 199.693 89.5977 199.428 89.4023 199.225C89.207 199.018 88.9492 198.914 88.6289 198.914C88.2344 198.914 87.9355 199.059 87.7324 199.348C87.5332 199.633 87.4336 200.098 87.4336 200.742V200.918C87.4336 201.57 87.5332 202.039 87.7324 202.324C87.9316 202.609 88.2344 202.752 88.6406 202.752ZM95.1797 204.117C94.25 204.117 93.4922 203.832 92.9062 203.262C92.3242 202.691 92.0332 201.932 92.0332 200.982V200.818C92.0332 200.182 92.1562 199.613 92.4023 199.113C92.6484 198.609 92.9961 198.223 93.4453 197.953C93.8984 197.68 94.4141 197.543 94.9922 197.543C95.8594 197.543 96.541 197.816 97.0371 198.363C97.5371 198.91 97.7871 199.686 97.7871 200.689V201.381H93.75C93.8047 201.795 93.9688 202.127 94.2422 202.377C94.5195 202.627 94.8691 202.752 95.291 202.752C95.9434 202.752 96.4531 202.516 96.8203 202.043L97.6523 202.975C97.3984 203.334 97.0547 203.615 96.6211 203.818C96.1875 204.018 95.707 204.117 95.1797 204.117ZM94.9863 198.914C94.6504 198.914 94.377 199.027 94.166 199.254C93.959 199.48 93.8262 199.805 93.7676 200.227H96.123V200.092C96.1152 199.717 96.0137 199.428 95.8184 199.225C95.623 199.018 95.3457 198.914 94.9863 198.914ZM100.541 204H98.8418V195H100.541V204ZM109.465 201.762C109.465 201.43 109.348 201.176 109.113 201C108.879 200.82 108.457 200.633 107.848 200.438C107.238 200.238 106.756 200.043 106.4 199.852C105.432 199.328 104.947 198.623 104.947 197.736C104.947 197.275 105.076 196.865 105.334 196.506C105.596 196.143 105.969 195.859 106.453 195.656C106.941 195.453 107.488 195.352 108.094 195.352C108.703 195.352 109.246 195.463 109.723 195.686C110.199 195.904 110.568 196.215 110.83 196.617C111.096 197.02 111.229 197.477 111.229 197.988H109.471C109.471 197.598 109.348 197.295 109.102 197.08C108.855 196.861 108.51 196.752 108.064 196.752C107.635 196.752 107.301 196.844 107.062 197.027C106.824 197.207 106.705 197.445 106.705 197.742C106.705 198.02 106.844 198.252 107.121 198.439C107.402 198.627 107.814 198.803 108.357 198.967C109.357 199.268 110.086 199.641 110.543 200.086C111 200.531 111.229 201.086 111.229 201.75C111.229 202.488 110.949 203.068 110.391 203.49C109.832 203.908 109.08 204.117 108.135 204.117C107.479 204.117 106.881 203.998 106.342 203.76C105.803 203.518 105.391 203.188 105.105 202.77C104.824 202.352 104.684 201.867 104.684 201.316H106.447C106.447 202.258 107.01 202.729 108.135 202.729C108.553 202.729 108.879 202.645 109.113 202.477C109.348 202.305 109.465 202.066 109.465 201.762ZM116.109 203.355C115.691 203.863 115.113 204.117 114.375 204.117C113.695 204.117 113.176 203.922 112.816 203.531C112.461 203.141 112.279 202.568 112.271 201.814V197.66H113.965V201.756C113.965 202.416 114.266 202.746 114.867 202.746C115.441 202.746 115.836 202.547 116.051 202.148V197.66H117.75V204H116.156L116.109 203.355ZM124.74 200.889C124.74 201.904 124.523 202.697 124.09 203.268C123.656 203.834 123.051 204.117 122.273 204.117C121.586 204.117 121.037 203.854 120.627 203.326L120.551 204H119.027V195H120.721V198.229C121.111 197.771 121.625 197.543 122.262 197.543C123.035 197.543 123.641 197.828 124.078 198.398C124.52 198.965 124.74 199.764 124.74 200.795V200.889ZM123.047 200.766C123.047 200.125 122.945 199.658 122.742 199.365C122.539 199.068 122.236 198.92 121.834 198.92C121.295 198.92 120.924 199.141 120.721 199.582V202.084C120.928 202.529 121.303 202.752 121.846 202.752C122.393 202.752 122.752 202.482 122.924 201.943C123.006 201.686 123.047 201.293 123.047 200.766ZM129.223 202.248C129.223 202.041 129.119 201.879 128.912 201.762C128.709 201.641 128.381 201.533 127.928 201.439C126.42 201.123 125.666 200.482 125.666 199.518C125.666 198.955 125.898 198.486 126.363 198.111C126.832 197.732 127.443 197.543 128.197 197.543C129.002 197.543 129.645 197.732 130.125 198.111C130.609 198.49 130.852 198.982 130.852 199.588H129.158C129.158 199.346 129.08 199.146 128.924 198.99C128.768 198.83 128.523 198.75 128.191 198.75C127.906 198.75 127.686 198.814 127.529 198.943C127.373 199.072 127.295 199.236 127.295 199.436C127.295 199.623 127.383 199.775 127.559 199.893C127.738 200.006 128.039 200.105 128.461 200.191C128.883 200.273 129.238 200.367 129.527 200.473C130.422 200.801 130.869 201.369 130.869 202.178C130.869 202.756 130.621 203.225 130.125 203.584C129.629 203.939 128.988 204.117 128.203 204.117C127.672 204.117 127.199 204.023 126.785 203.836C126.375 203.645 126.053 203.385 125.818 203.057C125.584 202.725 125.467 202.367 125.467 201.984H127.072C127.088 202.285 127.199 202.516 127.406 202.676C127.613 202.836 127.891 202.916 128.238 202.916C128.562 202.916 128.807 202.855 128.971 202.734C129.139 202.609 129.223 202.447 129.223 202.248ZM134.602 202.752C134.914 202.752 135.168 202.666 135.363 202.494C135.559 202.322 135.66 202.094 135.668 201.809H137.256C137.252 202.238 137.135 202.633 136.904 202.992C136.674 203.348 136.357 203.625 135.955 203.824C135.557 204.02 135.115 204.117 134.631 204.117C133.725 204.117 133.01 203.83 132.486 203.256C131.963 202.678 131.701 201.881 131.701 200.865V200.754C131.701 199.777 131.961 198.998 132.48 198.416C133 197.834 133.713 197.543 134.619 197.543C135.412 197.543 136.047 197.77 136.523 198.223C137.004 198.672 137.248 199.271 137.256 200.021H135.668C135.66 199.693 135.559 199.428 135.363 199.225C135.168 199.018 134.91 198.914 134.59 198.914C134.195 198.914 133.896 199.059 133.693 199.348C133.494 199.633 133.395 200.098 133.395 200.742V200.918C133.395 201.57 133.494 202.039 133.693 202.324C133.893 202.609 134.195 202.752 134.602 202.752ZM141.785 199.248C141.555 199.217 141.352 199.201 141.176 199.201C140.535 199.201 140.115 199.418 139.916 199.852V204H138.223V197.66H139.822L139.869 198.416C140.209 197.834 140.68 197.543 141.281 197.543C141.469 197.543 141.645 197.568 141.809 197.619L141.785 199.248ZM144.393 204H142.693V197.66H144.393V204ZM142.594 196.02C142.594 195.766 142.678 195.557 142.846 195.393C143.018 195.229 143.25 195.146 143.543 195.146C143.832 195.146 144.062 195.229 144.234 195.393C144.406 195.557 144.492 195.766 144.492 196.02C144.492 196.277 144.404 196.488 144.229 196.652C144.057 196.816 143.828 196.898 143.543 196.898C143.258 196.898 143.027 196.816 142.852 196.652C142.68 196.488 142.594 196.277 142.594 196.02ZM151.5 200.889C151.5 201.865 151.277 202.648 150.832 203.238C150.391 203.824 149.793 204.117 149.039 204.117C148.398 204.117 147.881 203.895 147.486 203.449V206.438H145.793V197.66H147.363L147.422 198.281C147.832 197.789 148.367 197.543 149.027 197.543C149.809 197.543 150.416 197.832 150.85 198.41C151.283 198.988 151.5 199.785 151.5 200.801V200.889ZM149.807 200.766C149.807 200.176 149.701 199.721 149.49 199.4C149.283 199.08 148.98 198.92 148.582 198.92C148.051 198.92 147.686 199.123 147.486 199.529V202.125C147.693 202.543 148.062 202.752 148.594 202.752C149.402 202.752 149.807 202.09 149.807 200.766ZM154.582 196.102V197.66H155.666V198.902H154.582V202.066C154.582 202.301 154.627 202.469 154.717 202.57C154.807 202.672 154.979 202.723 155.232 202.723C155.42 202.723 155.586 202.709 155.73 202.682V203.965C155.398 204.066 155.057 204.117 154.705 204.117C153.518 204.117 152.912 203.518 152.889 202.318V198.902H151.963V197.66H152.889V196.102H154.582ZM158.396 204H156.697V197.66H158.396V204ZM156.598 196.02C156.598 195.766 156.682 195.557 156.85 195.393C157.021 195.229 157.254 195.146 157.547 195.146C157.836 195.146 158.066 195.229 158.238 195.393C158.41 195.557 158.496 195.766 158.496 196.02C158.496 196.277 158.408 196.488 158.232 196.652C158.061 196.816 157.832 196.898 157.547 196.898C157.262 196.898 157.031 196.816 156.855 196.652C156.684 196.488 156.598 196.277 156.598 196.02ZM159.533 200.771C159.533 200.143 159.654 199.582 159.896 199.09C160.139 198.598 160.486 198.217 160.939 197.947C161.396 197.678 161.926 197.543 162.527 197.543C163.383 197.543 164.08 197.805 164.619 198.328C165.162 198.852 165.465 199.562 165.527 200.461L165.539 200.895C165.539 201.867 165.268 202.648 164.725 203.238C164.182 203.824 163.453 204.117 162.539 204.117C161.625 204.117 160.895 203.824 160.348 203.238C159.805 202.652 159.533 201.855 159.533 200.848V200.771ZM161.227 200.895C161.227 201.496 161.34 201.957 161.566 202.277C161.793 202.594 162.117 202.752 162.539 202.752C162.949 202.752 163.27 202.596 163.5 202.283C163.73 201.967 163.846 201.463 163.846 200.771C163.846 200.182 163.73 199.725 163.5 199.4C163.27 199.076 162.945 198.914 162.527 198.914C162.113 198.914 161.793 199.076 161.566 199.4C161.34 199.721 161.227 200.219 161.227 200.895ZM168.141 197.66L168.193 198.393C168.646 197.826 169.254 197.543 170.016 197.543C170.688 197.543 171.188 197.74 171.516 198.135C171.844 198.529 172.012 199.119 172.02 199.904V204H170.326V199.945C170.326 199.586 170.248 199.326 170.092 199.166C169.936 199.002 169.676 198.92 169.312 198.92C168.836 198.92 168.479 199.123 168.24 199.529V204H166.547V197.66H168.141Z" fill="white"/>
<path d="M198.111 9.34721H173.46C172.771 9.34919 172.111 9.623 171.624 10.1086C171.137 10.5943 170.864 11.2521 170.864 11.9379V20.8223C170.86 24.042 169.573 27.1285 167.285 29.4045C164.996 31.6804 161.894 32.9598 158.659 32.9618H77.0321C73.7969 32.9598 70.6947 31.6804 68.4064 29.4045C66.1181 27.1285 64.8307 24.042 64.8267 20.8223V11.9379C64.8257 11.596 64.757 11.2578 64.6244 10.9424C64.4918 10.6271 64.298 10.3409 64.0541 10.1003C63.8102 9.85959 63.521 9.66919 63.203 9.53997C62.885 9.41075 62.5446 9.34525 62.2011 9.34721H38.1954C36.0094 9.34525 33.8444 9.77182 31.824 10.6026C29.8036 11.4333 27.9674 12.652 26.4202 14.189C24.8731 15.7259 23.6452 17.5511 22.8069 19.5604C21.9685 21.5696 21.536 23.7235 21.534 25.8991V244H23.7845V25.8991C23.7865 24.0176 24.1608 22.155 24.8861 20.4175C25.6114 18.68 26.6734 17.1017 28.0116 15.7727C29.3498 14.4437 30.9379 13.39 32.6852 12.6718C34.4326 11.9537 36.3049 11.585 38.1954 11.587H62.2011C62.2946 11.587 62.3843 11.6239 62.4504 11.6898C62.5165 11.7556 62.5537 11.8448 62.5537 11.9379V20.8223C62.5576 24.636 64.0822 28.2922 66.7926 30.9882C69.5029 33.6842 73.1776 35.1996 77.0096 35.2016H158.659C162.491 35.1996 166.166 33.6842 168.876 30.9882C171.586 28.2922 173.111 24.636 173.115 20.8223V11.9379C173.115 11.8461 173.151 11.7579 173.215 11.6924C173.28 11.6268 173.368 11.5889 173.46 11.587H198.111C201.923 11.5909 205.579 13.1001 208.275 15.7833C210.971 18.4664 212.488 22.1045 212.492 25.8991V244H214.742V25.8991C214.736 21.5111 212.982 17.3045 209.864 14.2017C206.747 11.0989 202.52 9.35314 198.111 9.34721Z" fill="#181818"/>
<path d="M138.097 12.4456H97.9029C97.0635 12.4857 96.2718 12.8457 95.692 13.4511C95.1121 14.0564 94.7887 14.8607 94.7887 15.697C94.7887 16.5334 95.1121 17.3376 95.692 17.943C96.2718 18.5483 97.0635 18.9084 97.9029 18.9484H138.097C138.54 18.9695 138.981 18.901 139.396 18.7472C139.811 18.5933 140.19 18.3572 140.511 18.0532C140.831 17.7492 141.086 17.3836 141.261 16.9786C141.435 16.5736 141.525 16.1376 141.525 15.697C141.525 15.2564 141.435 14.8204 141.261 14.4154C141.086 14.0104 140.831 13.6448 140.511 13.3408C140.19 13.0368 139.811 12.8008 139.396 12.6469C138.981 12.493 138.54 12.4245 138.097 12.4456Z" fill="#EDF3FF"/>
<path d="M138.097 10.2059H97.9028C96.4746 10.2583 95.1226 10.8598 94.1308 11.8838C93.1391 12.9079 92.585 14.2748 92.585 15.697C92.585 17.1193 93.1391 18.4862 94.1308 19.5102C95.1226 20.5343 96.4746 21.1358 97.9028 21.1882H138.097C138.839 21.2154 139.579 21.0935 140.272 20.8298C140.965 20.5661 141.598 20.166 142.132 19.6535C142.667 19.1409 143.092 18.5263 143.382 17.8465C143.672 17.1667 143.822 16.4357 143.822 15.697C143.822 14.9584 143.672 14.2273 143.382 13.5475C143.092 12.8678 142.667 12.2532 142.132 11.7406C141.598 11.228 140.965 10.8279 140.272 10.5642C139.579 10.3005 138.839 10.1787 138.097 10.2059ZM138.097 18.9484H97.9028C97.0634 18.9084 96.2717 18.5483 95.6919 17.943C95.1121 17.3376 94.7886 16.5334 94.7886 15.697C94.7886 14.8607 95.1121 14.0565 95.6919 13.4511C96.2717 12.8457 97.0634 12.4857 97.9028 12.4456H138.097C138.539 12.4246 138.981 12.493 139.396 12.6469C139.811 12.8008 140.19 13.0369 140.511 13.3409C140.831 13.6449 141.086 14.0104 141.26 14.4154C141.435 14.8204 141.525 15.2564 141.525 15.697C141.525 16.1376 141.435 16.5736 141.26 16.9786C141.086 17.3836 140.831 17.7492 140.511 18.0532C140.19 18.3572 139.811 18.5933 139.396 18.7472C138.981 18.9011 138.539 18.9695 138.097 18.9484Z" fill="#181818"/>
<rect y="243" width="236" height="2" rx="1" fill="#181818"/>
</svg>
