<svg width="281" height="246" viewBox="0 0 281 246" fill="none" xmlns="http://www.w3.org/2000/svg">
<path d="M196.258 2.23975H39.3437C32.6367 2.23776 26.2033 4.88593 21.4572 9.60231C16.7112 14.3187 14.0407 20.7174 14.0328 27.3923V244H21.182V25.8991C21.1839 23.7235 21.6165 21.5697 22.4548 19.5604C23.2932 17.5512 24.521 15.726 26.0682 14.189C27.6154 12.652 29.4515 11.4334 31.4719 10.6026C33.4923 9.77188 35.6574 9.3453 37.8434 9.34727H61.8491C62.5388 9.34924 63.1998 9.62281 63.6876 10.1082C64.1753 10.5936 64.4502 11.2514 64.4522 11.9379V20.8223C64.4562 24.042 65.7436 27.1286 68.0319 29.4045C70.3202 31.6805 73.4224 32.9599 76.6576 32.9619H158.307C161.542 32.9599 164.644 31.6805 166.932 29.4045C169.221 27.1286 170.508 24.042 170.512 20.8223V11.9379C170.512 11.2521 170.785 10.5943 171.272 10.1087C171.759 9.62306 172.419 9.34924 173.108 9.34727H197.759C202.168 9.35319 206.395 11.0989 209.512 14.2017C212.63 17.3045 214.384 21.5111 214.39 25.8991V244H221.532V27.3923C221.526 20.7233 218.861 14.329 214.123 9.61331C209.384 4.89758 202.959 2.24568 196.258 2.23975ZM137.88 21.1882H97.685C96.2569 21.1357 94.9048 20.5343 93.9131 19.5102C92.9213 18.4861 92.3672 17.1193 92.3672 15.697C92.3672 14.2747 92.9213 12.9079 93.9131 11.8838C94.9048 10.8597 96.2569 10.2583 97.685 10.2058H137.88C138.621 10.1786 139.361 10.3005 140.054 10.5642C140.747 10.8279 141.38 11.228 141.915 11.7406C142.449 12.2532 142.874 12.8677 143.164 13.5475C143.455 14.2273 143.604 14.9584 143.604 15.697C143.604 16.4356 143.455 17.1667 143.164 17.8465C142.874 18.5263 142.449 19.1408 141.915 19.6534C141.38 20.166 140.747 20.5661 140.054 20.8298C139.361 21.0935 138.621 21.2154 137.88 21.1882Z" fill="white"/>
<path d="M14.2505 27.3923C14.2585 20.7174 16.9289 14.3187 21.675 9.60233C26.4211 4.88595 32.8545 2.23778 39.5615 2.23977H196.476C203.177 2.2457 209.602 4.89759 214.34 9.61333C219.079 14.3291 221.743 20.7233 221.749 27.3923V244H224V27.3923C223.992 20.1299 221.09 13.1671 215.93 8.03176C210.77 2.89641 203.773 0.00790576 196.476 1.02223e-06H39.5615C32.2576 -0.00198231 25.2518 2.88216 20.0836 8.01857C14.9155 13.155 12.008 20.1234 12 27.3923V244H14.2505V27.3923Z" fill="#181818"/>
<path d="M198.326 11.587H173.675C173.583 11.589 173.495 11.6268 173.431 11.6924C173.366 11.758 173.33 11.8462 173.33 11.9379V20.8223C173.326 24.636 171.802 28.2923 169.091 30.9883C166.381 33.6843 162.706 35.1997 158.874 35.2016H77.2476C73.4155 35.1997 69.7409 33.6843 67.0305 30.9883C64.3202 28.2923 62.7956 24.636 62.7916 20.8223V11.9379C62.7916 11.8449 62.7545 11.7556 62.6884 11.6898C62.6223 11.624 62.5326 11.587 62.4391 11.587H38.4109C36.5204 11.5851 34.648 11.9537 32.9007 12.6719C31.1533 13.3901 29.5652 14.4438 28.2271 15.7728C26.8889 17.1018 25.8268 18.6801 25.1016 20.4176C24.3763 22.155 24.002 24.0177 24 25.8991V244H212.707V25.8991C212.703 22.1045 211.187 18.4665 208.491 15.7833C205.794 13.1001 202.139 11.591 198.326 11.587Z" fill="#F8FBFF"/>
<path d="M198.111 9.34721H173.46C172.771 9.34919 172.111 9.623 171.624 10.1086C171.137 10.5943 170.864 11.2521 170.864 11.9379V20.8223C170.86 24.042 169.573 27.1285 167.285 29.4045C164.996 31.6804 161.894 32.9598 158.659 32.9618H77.0321C73.7969 32.9598 70.6947 31.6804 68.4064 29.4045C66.1181 27.1285 64.8307 24.042 64.8267 20.8223V11.9379C64.8257 11.596 64.757 11.2578 64.6244 10.9424C64.4918 10.6271 64.298 10.3409 64.0541 10.1003C63.8102 9.85959 63.521 9.66919 63.203 9.53997C62.885 9.41075 62.5446 9.34525 62.2011 9.34721H38.1954C36.0094 9.34525 33.8444 9.77182 31.824 10.6026C29.8036 11.4333 27.9674 12.652 26.4202 14.189C24.8731 15.7259 23.6452 17.5511 22.8069 19.5604C21.9685 21.5696 21.536 23.7235 21.534 25.8991V244H23.7845V25.8991C23.7865 24.0176 24.1608 22.155 24.8861 20.4175C25.6114 18.68 26.6734 17.1017 28.0116 15.7727C29.3498 14.4437 30.9379 13.39 32.6852 12.6718C34.4326 11.9537 36.3049 11.585 38.1954 11.587H62.2011C62.2946 11.587 62.3843 11.6239 62.4504 11.6898C62.5165 11.7556 62.5537 11.8448 62.5537 11.9379V20.8223C62.5576 24.636 64.0822 28.2922 66.7926 30.9882C69.5029 33.6842 73.1776 35.1996 77.0096 35.2016H158.659C162.491 35.1996 166.166 33.6842 168.876 30.9882C171.586 28.2922 173.111 24.636 173.115 20.8223V11.9379C173.115 11.8461 173.151 11.7579 173.215 11.6924C173.28 11.6268 173.368 11.5889 173.46 11.587H198.111C201.923 11.5909 205.579 13.1001 208.275 15.7833C210.971 18.4664 212.488 22.1045 212.492 25.8991V244H214.742V25.8991C214.736 21.5111 212.982 17.3045 209.864 14.2017C206.747 11.0989 202.52 9.35314 198.111 9.34721Z" fill="#181818"/>
<path d="M138.097 12.4456H97.9029C97.0635 12.4857 96.2718 12.8457 95.692 13.4511C95.1121 14.0564 94.7887 14.8607 94.7887 15.697C94.7887 16.5334 95.1121 17.3376 95.692 17.943C96.2718 18.5483 97.0635 18.9084 97.9029 18.9484H138.097C138.54 18.9695 138.981 18.901 139.396 18.7472C139.811 18.5933 140.19 18.3572 140.511 18.0532C140.831 17.7492 141.086 17.3836 141.261 16.9786C141.435 16.5736 141.525 16.1376 141.525 15.697C141.525 15.2564 141.435 14.8204 141.261 14.4154C141.086 14.0104 140.831 13.6448 140.511 13.3408C140.19 13.0368 139.811 12.8008 139.396 12.6469C138.981 12.493 138.54 12.4245 138.097 12.4456Z" fill="#EDF3FF"/>
<path d="M138.097 10.2059H97.9028C96.4746 10.2583 95.1226 10.8598 94.1308 11.8838C93.1391 12.9079 92.585 14.2748 92.585 15.697C92.585 17.1193 93.1391 18.4862 94.1308 19.5102C95.1226 20.5343 96.4746 21.1358 97.9028 21.1882H138.097C138.839 21.2154 139.579 21.0935 140.272 20.8298C140.965 20.5661 141.598 20.166 142.132 19.6535C142.667 19.1409 143.092 18.5263 143.382 17.8465C143.672 17.1667 143.822 16.4357 143.822 15.697C143.822 14.9584 143.672 14.2273 143.382 13.5475C143.092 12.8678 142.667 12.2532 142.132 11.7406C141.598 11.228 140.965 10.8279 140.272 10.5642C139.579 10.3005 138.839 10.1787 138.097 10.2059ZM138.097 18.9484H97.9028C97.0634 18.9084 96.2717 18.5483 95.6919 17.943C95.1121 17.3376 94.7886 16.5334 94.7886 15.697C94.7886 14.8607 95.1121 14.0565 95.6919 13.4511C96.2717 12.8457 97.0634 12.4857 97.9028 12.4456H138.097C138.539 12.4246 138.981 12.493 139.396 12.6469C139.811 12.8008 140.19 13.0369 140.511 13.3409C140.831 13.6449 141.086 14.0104 141.26 14.4154C141.435 14.8204 141.525 15.2564 141.525 15.697C141.525 16.1376 141.435 16.5736 141.26 16.9786C141.086 17.3836 140.831 17.7492 140.511 18.0532C140.19 18.3572 139.811 18.5933 139.396 18.7472C138.981 18.9011 138.539 18.9695 138.097 18.9484Z" fill="#181818"/>
<rect x="54" y="89.8239" width="196.162" height="95.184" rx="18.2091" fill="#0084FF"/>
<rect x="61.8631" y="84.0722" width="194.507" height="92.701" rx="16.9676" fill="white" stroke="#0084FF" stroke-width="2.48306"/>
<path d="M82.2155 105.817V109.074H80.3112V99.8314H83.9166C84.6106 99.8314 85.22 99.9584 85.7448 100.212C86.2737 100.466 86.68 100.828 86.9635 101.298C87.247 101.763 87.3888 102.294 87.3888 102.891C87.3888 103.797 87.0778 104.512 86.4557 105.037C85.8378 105.557 84.9809 105.817 83.8849 105.817H82.2155ZM82.2155 104.275H83.9166C84.4202 104.275 84.8032 104.156 85.0656 103.919C85.3322 103.682 85.4655 103.344 85.4655 102.904C85.4655 102.451 85.3322 102.085 85.0656 101.806C84.799 101.526 84.4308 101.382 83.9611 101.374H82.2155V104.275ZM90.5182 109.074H88.6774V99.3236H90.5182V109.074ZM95.1964 109.201C94.1892 109.201 93.3683 108.892 92.7335 108.274C92.103 107.656 91.7877 106.833 91.7877 105.805V105.627C91.7877 104.937 91.921 104.321 92.1876 103.78C92.4542 103.234 92.8309 102.815 93.3175 102.523C93.8084 102.227 94.367 102.079 94.9933 102.079C95.9327 102.079 96.6712 102.375 97.2086 102.967C97.7503 103.56 98.0211 104.4 98.0211 105.487V106.236H93.6476C93.7068 106.685 93.8846 107.044 94.1808 107.315C94.4812 107.586 94.86 107.722 95.317 107.722C96.0237 107.722 96.576 107.466 96.9738 106.954L97.8751 107.963C97.6001 108.352 97.2277 108.657 96.7579 108.877C96.2882 109.093 95.7677 109.201 95.1964 109.201ZM94.9869 103.564C94.623 103.564 94.3268 103.687 94.0983 103.932C93.874 104.177 93.7301 104.529 93.6666 104.986H96.2184V104.84C96.2099 104.433 96.0999 104.12 95.8883 103.9C95.6767 103.676 95.3763 103.564 94.9869 103.564ZM103.048 109.074C102.964 108.909 102.902 108.703 102.864 108.458C102.42 108.953 101.842 109.201 101.131 109.201C100.459 109.201 99.9 109.006 99.4557 108.617C99.0156 108.227 98.7955 107.736 98.7955 107.144C98.7955 106.416 99.0642 105.857 99.6017 105.468C100.143 105.079 100.924 104.882 101.944 104.878H102.788V104.484C102.788 104.167 102.706 103.913 102.541 103.723C102.38 103.532 102.124 103.437 101.773 103.437C101.464 103.437 101.22 103.511 101.043 103.659C100.869 103.807 100.782 104.01 100.782 104.268H98.9479C98.9479 103.871 99.0706 103.502 99.316 103.164C99.5615 102.825 99.9085 102.561 100.357 102.37C100.806 102.176 101.309 102.079 101.868 102.079C102.714 102.079 103.385 102.292 103.88 102.72C104.379 103.143 104.629 103.739 104.629 104.51V107.487C104.633 108.138 104.724 108.631 104.902 108.966V109.074H103.048ZM101.531 107.798C101.802 107.798 102.052 107.738 102.28 107.62C102.509 107.497 102.678 107.334 102.788 107.131V105.951H102.103C101.184 105.951 100.696 106.268 100.636 106.903L100.63 107.011C100.63 107.239 100.71 107.427 100.871 107.576C101.032 107.724 101.252 107.798 101.531 107.798ZM109.758 107.176C109.758 106.951 109.646 106.776 109.422 106.649C109.201 106.518 108.846 106.401 108.355 106.3C106.722 105.957 105.905 105.263 105.905 104.218C105.905 103.608 106.157 103.1 106.66 102.694C107.168 102.284 107.83 102.079 108.647 102.079C109.519 102.079 110.215 102.284 110.735 102.694C111.26 103.105 111.523 103.638 111.523 104.294H109.688C109.688 104.031 109.603 103.816 109.434 103.646C109.265 103.473 109 103.386 108.641 103.386C108.332 103.386 108.093 103.456 107.923 103.596C107.754 103.735 107.67 103.913 107.67 104.129C107.67 104.332 107.765 104.497 107.955 104.624C108.15 104.747 108.476 104.855 108.933 104.948C109.39 105.037 109.775 105.138 110.088 105.252C111.057 105.608 111.542 106.224 111.542 107.1C111.542 107.726 111.273 108.234 110.735 108.623C110.198 109.008 109.504 109.201 108.653 109.201C108.078 109.201 107.566 109.099 107.117 108.896C106.673 108.689 106.324 108.407 106.07 108.052C105.816 107.692 105.689 107.305 105.689 106.89H107.428C107.445 107.216 107.566 107.466 107.79 107.639C108.014 107.813 108.315 107.899 108.692 107.899C109.043 107.899 109.307 107.834 109.485 107.703C109.667 107.567 109.758 107.391 109.758 107.176ZM115.89 109.201C114.883 109.201 114.062 108.892 113.427 108.274C112.796 107.656 112.481 106.833 112.481 105.805V105.627C112.481 104.937 112.614 104.321 112.881 103.78C113.148 103.234 113.524 102.815 114.011 102.523C114.502 102.227 115.06 102.079 115.687 102.079C116.626 102.079 117.365 102.375 117.902 102.967C118.444 103.56 118.714 104.4 118.714 105.487V106.236H114.341C114.4 106.685 114.578 107.044 114.874 107.315C115.175 107.586 115.553 107.722 116.01 107.722C116.717 107.722 117.269 107.466 117.667 106.954L118.568 107.963C118.293 108.352 117.921 108.657 117.451 108.877C116.982 109.093 116.461 109.201 115.89 109.201ZM115.68 103.564C115.316 103.564 115.02 103.687 114.792 103.932C114.567 104.177 114.423 104.529 114.36 104.986H116.912V104.84C116.903 104.433 116.793 104.12 116.582 103.9C116.37 103.676 116.07 103.564 115.68 103.564ZM126.979 109.074C126.894 108.909 126.833 108.703 126.795 108.458C126.351 108.953 125.773 109.201 125.062 109.201C124.389 109.201 123.831 109.006 123.386 108.617C122.946 108.227 122.726 107.736 122.726 107.144C122.726 106.416 122.995 105.857 123.532 105.468C124.074 105.079 124.855 104.882 125.875 104.878H126.719V104.484C126.719 104.167 126.636 103.913 126.471 103.723C126.311 103.532 126.054 103.437 125.703 103.437C125.394 103.437 125.151 103.511 124.973 103.659C124.8 103.807 124.713 104.01 124.713 104.268H122.879C122.879 103.871 123.001 103.502 123.247 103.164C123.492 102.825 123.839 102.561 124.288 102.37C124.736 102.176 125.24 102.079 125.798 102.079C126.645 102.079 127.316 102.292 127.811 102.72C128.31 103.143 128.56 103.739 128.56 104.51V107.487C128.564 108.138 128.655 108.631 128.833 108.966V109.074H126.979ZM125.462 107.798C125.733 107.798 125.983 107.738 126.211 107.62C126.44 107.497 126.609 107.334 126.719 107.131V105.951H126.033C125.115 105.951 124.626 106.268 124.567 106.903L124.561 107.011C124.561 107.239 124.641 107.427 124.802 107.576C124.963 107.724 125.183 107.798 125.462 107.798ZM131.657 102.205L131.714 102.999C132.205 102.385 132.863 102.079 133.689 102.079C134.416 102.079 134.958 102.292 135.314 102.72C135.669 103.147 135.851 103.786 135.859 104.637V109.074H134.025V104.681C134.025 104.292 133.94 104.01 133.771 103.837C133.602 103.659 133.32 103.57 132.927 103.57C132.411 103.57 132.023 103.79 131.765 104.23V109.074H129.931V102.205H131.657ZM140.976 107.176C140.976 106.951 140.864 106.776 140.639 106.649C140.419 106.518 140.064 106.401 139.573 106.3C137.939 105.957 137.123 105.263 137.123 104.218C137.123 103.608 137.374 103.1 137.878 102.694C138.386 102.284 139.048 102.079 139.865 102.079C140.737 102.079 141.433 102.284 141.953 102.694C142.478 103.105 142.74 103.638 142.74 104.294H140.906C140.906 104.031 140.821 103.816 140.652 103.646C140.483 103.473 140.218 103.386 139.859 103.386C139.55 103.386 139.311 103.456 139.141 103.596C138.972 103.735 138.887 103.913 138.887 104.129C138.887 104.332 138.983 104.497 139.173 104.624C139.368 104.747 139.693 104.855 140.151 104.948C140.608 105.037 140.993 105.138 141.306 105.252C142.275 105.608 142.759 106.224 142.759 107.1C142.759 107.726 142.491 108.234 141.953 108.623C141.416 109.008 140.722 109.201 139.871 109.201C139.296 109.201 138.784 109.099 138.335 108.896C137.891 108.689 137.542 108.407 137.288 108.052C137.034 107.692 136.907 107.305 136.907 106.89H138.646C138.663 107.216 138.784 107.466 139.008 107.639C139.232 107.813 139.533 107.899 139.909 107.899C140.261 107.899 140.525 107.834 140.703 107.703C140.885 107.567 140.976 107.391 140.976 107.176ZM149.92 106.579L150.821 102.205H152.592L150.84 109.074H149.304L148.003 104.751L146.701 109.074H145.172L143.42 102.205H145.191L146.086 106.573L147.342 102.205H148.669L149.92 106.579ZM156.667 109.201C155.66 109.201 154.839 108.892 154.204 108.274C153.574 107.656 153.258 106.833 153.258 105.805V105.627C153.258 104.937 153.392 104.321 153.658 103.78C153.925 103.234 154.302 102.815 154.788 102.523C155.279 102.227 155.838 102.079 156.464 102.079C157.403 102.079 158.142 102.375 158.679 102.967C159.221 103.56 159.492 104.4 159.492 105.487V106.236H155.118C155.178 106.685 155.355 107.044 155.651 107.315C155.952 107.586 156.331 107.722 156.788 107.722C157.494 107.722 158.047 107.466 158.444 106.954L159.346 107.963C159.071 108.352 158.698 108.657 158.229 108.877C157.759 109.093 157.238 109.201 156.667 109.201ZM156.458 103.564C156.094 103.564 155.797 103.687 155.569 103.932C155.345 104.177 155.201 104.529 155.137 104.986H157.689V104.84C157.681 104.433 157.571 104.12 157.359 103.9C157.147 103.676 156.847 103.564 156.458 103.564ZM164.399 103.926C164.149 103.892 163.929 103.875 163.738 103.875C163.044 103.875 162.589 104.11 162.374 104.579V109.074H160.539V102.205H162.272L162.323 103.024C162.691 102.394 163.201 102.079 163.853 102.079C164.056 102.079 164.246 102.106 164.424 102.161L164.399 103.926ZM172.505 109.074C172.42 108.909 172.359 108.703 172.32 108.458C171.876 108.953 171.298 109.201 170.588 109.201C169.915 109.201 169.356 109.006 168.912 108.617C168.472 108.227 168.252 107.736 168.252 107.144C168.252 106.416 168.52 105.857 169.058 105.468C169.599 105.079 170.38 104.882 171.4 104.878H172.244V104.484C172.244 104.167 172.162 103.913 171.997 103.723C171.836 103.532 171.58 103.437 171.229 103.437C170.92 103.437 170.676 103.511 170.499 103.659C170.325 103.807 170.238 104.01 170.238 104.268H168.404C168.404 103.871 168.527 103.502 168.772 103.164C169.018 102.825 169.365 102.561 169.813 102.37C170.262 102.176 170.765 102.079 171.324 102.079C172.17 102.079 172.841 102.292 173.336 102.72C173.835 103.143 174.085 103.739 174.085 104.51V107.487C174.089 108.138 174.18 108.631 174.358 108.966V109.074H172.505ZM170.987 107.798C171.258 107.798 171.508 107.738 171.736 107.62C171.965 107.497 172.134 107.334 172.244 107.131V105.951H171.559C170.64 105.951 170.152 106.268 170.092 106.903L170.086 107.011C170.086 107.239 170.166 107.427 170.327 107.576C170.488 107.724 170.708 107.798 170.987 107.798ZM178.446 105.576C178.446 104.497 178.685 103.644 179.163 103.018C179.646 102.392 180.306 102.079 181.144 102.079C181.88 102.079 182.466 102.36 182.902 102.923L183.023 102.205H184.635V111.714H182.794V108.483C182.371 108.961 181.817 109.201 181.131 109.201C180.314 109.201 179.663 108.883 179.176 108.248C178.689 107.614 178.446 106.723 178.446 105.576ZM180.28 105.709C180.28 106.365 180.395 106.865 180.623 107.207C180.856 107.55 181.182 107.722 181.601 107.722C182.164 107.722 182.561 107.497 182.794 107.049V104.211C182.566 103.78 182.172 103.564 181.613 103.564C181.19 103.564 180.862 103.735 180.63 104.078C180.397 104.421 180.28 104.965 180.28 105.709ZM190.195 108.375C189.743 108.926 189.116 109.201 188.317 109.201C187.58 109.201 187.017 108.989 186.628 108.566C186.243 108.143 186.046 107.523 186.038 106.706V102.205H187.872V106.642C187.872 107.358 188.198 107.715 188.85 107.715C189.472 107.715 189.899 107.499 190.132 107.068V102.205H191.973V109.074H190.246L190.195 108.375ZM196.518 109.201C195.511 109.201 194.69 108.892 194.055 108.274C193.424 107.656 193.109 106.833 193.109 105.805V105.627C193.109 104.937 193.242 104.321 193.509 103.78C193.776 103.234 194.152 102.815 194.639 102.523C195.13 102.227 195.688 102.079 196.315 102.079C197.254 102.079 197.992 102.375 198.53 102.967C199.072 103.56 199.342 104.4 199.342 105.487V106.236H194.969C195.028 106.685 195.206 107.044 195.502 107.315C195.803 107.586 196.181 107.722 196.638 107.722C197.345 107.722 197.897 107.466 198.295 106.954L199.196 107.963C198.921 108.352 198.549 108.657 198.079 108.877C197.609 109.093 197.089 109.201 196.518 109.201ZM196.308 103.564C195.944 103.564 195.648 103.687 195.42 103.932C195.195 104.177 195.051 104.529 194.988 104.986H197.54V104.84C197.531 104.433 197.421 104.12 197.21 103.9C196.998 103.676 196.698 103.564 196.308 103.564ZM204.109 107.176C204.109 106.951 203.997 106.776 203.773 106.649C203.553 106.518 203.198 106.401 202.707 106.3C201.073 105.957 200.256 105.263 200.256 104.218C200.256 103.608 200.508 103.1 201.012 102.694C201.52 102.284 202.182 102.079 202.999 102.079C203.87 102.079 204.567 102.284 205.087 102.694C205.612 103.105 205.874 103.638 205.874 104.294H204.04C204.04 104.031 203.955 103.816 203.786 103.646C203.616 103.473 203.352 103.386 202.992 103.386C202.683 103.386 202.444 103.456 202.275 103.596C202.106 103.735 202.021 103.913 202.021 104.129C202.021 104.332 202.116 104.497 202.307 104.624C202.501 104.747 202.827 104.855 203.284 104.948C203.741 105.037 204.126 105.138 204.44 105.252C205.409 105.608 205.893 106.224 205.893 107.1C205.893 107.726 205.624 108.234 205.087 108.623C204.55 109.008 203.856 109.201 203.005 109.201C202.429 109.201 201.917 109.099 201.469 108.896C201.025 108.689 200.675 108.407 200.422 108.052C200.168 107.692 200.041 107.305 200.041 106.89H201.78C201.797 107.216 201.917 107.466 202.142 107.639C202.366 107.813 202.666 107.899 203.043 107.899C203.394 107.899 203.659 107.834 203.837 107.703C204.019 107.567 204.109 107.391 204.109 107.176ZM209.276 100.517V102.205H210.451V103.551H209.276V106.979C209.276 107.233 209.325 107.415 209.422 107.525C209.52 107.635 209.706 107.69 209.981 107.69C210.184 107.69 210.364 107.675 210.521 107.645V109.036C210.161 109.146 209.791 109.201 209.41 109.201C208.123 109.201 207.467 108.551 207.442 107.252V103.551H206.439V102.205H207.442V100.517H209.276ZM213.409 109.074H211.568V102.205H213.409V109.074ZM211.46 100.428C211.46 100.153 211.551 99.9267 211.733 99.7489C211.919 99.5712 212.171 99.4823 212.488 99.4823C212.802 99.4823 213.051 99.5712 213.237 99.7489C213.424 99.9267 213.517 100.153 213.517 100.428C213.517 100.707 213.422 100.936 213.231 101.114C213.045 101.291 212.797 101.38 212.488 101.38C212.179 101.38 211.93 101.291 211.739 101.114C211.553 100.936 211.46 100.707 211.46 100.428ZM214.64 105.576C214.64 104.895 214.771 104.287 215.034 103.754C215.296 103.221 215.673 102.808 216.164 102.516C216.659 102.225 217.232 102.079 217.884 102.079C218.811 102.079 219.566 102.362 220.15 102.929C220.738 103.496 221.066 104.266 221.134 105.24L221.147 105.709C221.147 106.763 220.852 107.609 220.264 108.248C219.676 108.883 218.887 109.201 217.897 109.201C216.906 109.201 216.115 108.883 215.523 108.248C214.934 107.614 214.64 106.75 214.64 105.659V105.576ZM216.475 105.709C216.475 106.361 216.597 106.86 216.843 107.207C217.088 107.55 217.44 107.722 217.897 107.722C218.341 107.722 218.688 107.552 218.938 107.214C219.187 106.871 219.312 106.325 219.312 105.576C219.312 104.937 219.187 104.442 218.938 104.091C218.688 103.739 218.337 103.564 217.884 103.564C217.435 103.564 217.088 103.739 216.843 104.091C216.597 104.438 216.475 104.977 216.475 105.709ZM223.965 102.205L224.022 102.999C224.513 102.385 225.171 102.079 225.996 102.079C226.724 102.079 227.266 102.292 227.621 102.72C227.977 103.147 228.159 103.786 228.167 104.637V109.074H226.333V104.681C226.333 104.292 226.248 104.01 226.079 103.837C225.909 103.659 225.628 103.57 225.234 103.57C224.718 103.57 224.331 103.79 224.073 104.23V109.074H222.238V102.205H223.965Z" fill="#0084FF"/>
<rect x="79.6583" y="137.458" width="148.156" height="8.27687" rx="3.31075" fill="#0084FF"/>
<rect x="79.6583" y="152.356" width="117.532" height="8.27687" rx="3.31075" fill="#0084FF"/>
<path d="M241.893 72.0864C241.383 72.0851 240.891 71.895 240.512 71.5528C240.133 71.2105 239.894 70.7402 239.841 70.2324L238.789 60.3002C238.731 59.7514 238.893 59.2019 239.24 58.7728C239.587 58.3436 240.091 58.0698 240.639 58.0116C241.188 57.9534 241.738 58.1156 242.167 58.4626C242.596 58.8095 242.87 59.3127 242.928 59.8615L243.979 69.7937C244.008 70.0634 243.983 70.336 243.906 70.596C243.829 70.856 243.702 71.0983 243.531 71.309C243.36 71.5197 243.15 71.6946 242.911 71.8237C242.673 71.9529 242.411 72.0337 242.142 72.0616L241.893 72.0864Z" fill="#0084FF"/>
<path d="M269.017 92.4724C268.468 92.5195 267.923 92.3468 267.501 91.9921C267.08 91.6374 266.817 91.1299 266.769 90.5811C266.722 90.0323 266.895 89.4872 267.25 89.0658C267.604 88.6444 268.112 88.3811 268.661 88.3339L278.51 86.5709C278.781 86.5147 279.06 86.5134 279.332 86.5669C279.603 86.6205 279.861 86.7279 280.09 86.8828C280.319 87.0377 280.515 87.237 280.665 87.4688C280.816 87.7007 280.919 87.9604 280.968 88.2326C281.016 88.5049 281.01 88.7841 280.949 89.0538C280.888 89.3236 280.773 89.5783 280.612 89.8031C280.451 90.0278 280.246 90.2179 280.01 90.3622C279.774 90.5065 279.512 90.602 279.238 90.6432L269.381 92.4392C269.261 92.4629 269.139 92.474 269.017 92.4724Z" fill="#0084FF"/>
<path d="M253.522 75.8113C253.212 75.8109 252.907 75.7401 252.628 75.6043C252.135 75.3664 251.756 74.9433 251.573 74.4272C251.39 73.911 251.418 73.3435 251.651 72.8481L256.402 62.9159C256.651 62.4423 257.074 62.0834 257.581 61.9145C258.089 61.7456 258.642 61.7799 259.125 62.0101C259.608 62.2403 259.983 62.6485 260.171 63.1492C260.359 63.6498 260.347 64.204 260.135 64.6954L255.384 74.6277C255.218 74.9812 254.955 75.2801 254.625 75.4897C254.295 75.6992 253.913 75.8108 253.522 75.8113Z" fill="#0084FF"/>
<path d="M263.065 82.9873C262.645 82.9875 262.235 82.8599 261.89 82.6215C261.544 82.3832 261.279 82.0454 261.13 81.6529C260.981 81.2604 260.955 80.8319 261.055 80.4242C261.155 80.0165 261.377 79.649 261.691 79.3703L269.91 72.0536C270.113 71.8726 270.349 71.7333 270.606 71.6437C270.862 71.5541 271.134 71.5159 271.405 71.5312C271.677 71.5466 271.942 71.6153 272.187 71.7333C272.432 71.8513 272.651 72.0164 272.832 72.2191C273.013 72.4218 273.152 72.6582 273.242 72.9147C273.331 73.1713 273.37 73.443 273.354 73.7143C273.339 73.9856 273.27 74.2512 273.152 74.496C273.034 74.7408 272.869 74.9599 272.666 75.1409L264.447 82.4576C264.069 82.7999 263.576 82.9888 263.065 82.9873Z" fill="#0084FF"/>
<rect x="60.6215" y="122.56" width="195.334" height="2.48306" fill="#0084FF"/>
<rect y="244" width="236" height="2" rx="1" fill="#181818"/>
</svg>
