<svg width="236" height="246" viewBox="0 0 236 246" fill="none" xmlns="http://www.w3.org/2000/svg">
<path d="M196.258 2.23975H39.3437C32.6367 2.23776 26.2033 4.88593 21.4572 9.60231C16.7111 14.3187 14.0407 20.7174 14.0327 27.3923V244H21.1819V25.8991C21.1839 23.7235 21.6164 21.5697 22.4548 19.5604C23.2932 17.5512 24.521 15.726 26.0681 14.189C27.6153 12.652 29.4515 11.4334 31.4719 10.6026C33.4923 9.77188 35.6573 9.3453 37.8433 9.34727H61.849C62.5388 9.34924 63.1997 9.62281 63.6875 10.1082C64.1752 10.5936 64.4501 11.2514 64.4521 11.9379V20.8223C64.4561 24.042 65.7435 27.1286 68.0318 29.4045C70.3201 31.6805 73.4223 32.9599 76.6575 32.9619H158.307C161.542 32.9599 164.644 31.6805 166.932 29.4045C169.221 27.1286 170.508 24.042 170.512 20.8223V11.9379C170.512 11.2521 170.785 10.5943 171.272 10.1087C171.758 9.62306 172.419 9.34924 173.108 9.34727H197.759C202.168 9.35319 206.394 11.0989 209.512 14.2017C212.63 17.3045 214.384 21.5111 214.39 25.8991V244H221.532V27.3923C221.526 20.7233 218.861 14.329 214.123 9.61331C209.384 4.89758 202.959 2.24568 196.258 2.23975ZM137.879 21.1882H97.685C96.2568 21.1357 94.9047 20.5343 93.913 19.5102C92.9213 18.4861 92.3671 17.1193 92.3671 15.697C92.3671 14.2747 92.9213 12.9079 93.913 11.8838C94.9047 10.8597 96.2568 10.2583 97.685 10.2058H137.879C138.621 10.1786 139.361 10.3005 140.054 10.5642C140.747 10.8279 141.38 11.228 141.914 11.7406C142.449 12.2532 142.874 12.8677 143.164 13.5475C143.455 14.2273 143.604 14.9584 143.604 15.697C143.604 16.4356 143.455 17.1667 143.164 17.8465C142.874 18.5263 142.449 19.1408 141.914 19.6534C141.38 20.166 140.747 20.5661 140.054 20.8298C139.361 21.0935 138.621 21.2154 137.879 21.1882Z" fill="white"/>
<path d="M14.2505 27.3923C14.2585 20.7174 16.9289 14.3187 21.675 9.60233C26.4211 4.88595 32.8545 2.23778 39.5615 2.23977H196.476C203.177 2.2457 209.602 4.89759 214.34 9.61333C219.079 14.3291 221.743 20.7233 221.749 27.3923V244H224V27.3923C223.992 20.1299 221.09 13.1671 215.93 8.03176C210.77 2.89641 203.773 0.00790576 196.476 1.02223e-06H39.5615C32.2576 -0.00198231 25.2518 2.88216 20.0836 8.01857C14.9155 13.155 12.008 20.1234 12 27.3923V244H14.2505V27.3923Z" fill="#181818"/>
<path d="M197.975 11.587H173.324C173.232 11.589 173.145 11.6268 173.08 11.6924C173.015 11.758 172.979 11.8462 172.979 11.9379V20.8223C172.975 24.636 171.451 28.2923 168.741 30.9883C166.03 33.6843 162.356 35.1997 158.523 35.2016H76.8967C73.0647 35.1997 69.3901 33.6843 66.6797 30.9883C63.9693 28.2923 62.4448 24.636 62.4408 20.8223V11.9379C62.4408 11.8449 62.4037 11.7556 62.3376 11.6898C62.2714 11.624 62.1817 11.587 62.0882 11.587H38.0601C36.1696 11.5851 34.2972 11.9537 32.5499 12.6719C30.8025 13.3901 29.2144 14.4438 27.8762 15.7728C26.5381 17.1018 25.476 18.6801 24.7507 20.4176C24.0255 22.155 23.6511 24.0177 23.6492 25.8991V244H212.356V25.8991C212.352 22.1045 210.836 18.4665 208.14 15.7833C205.444 13.1001 201.788 11.591 197.975 11.587Z" fill="#F8FBFF"/>
<path d="M198.111 9.34721H173.46C172.771 9.34919 172.111 9.623 171.624 10.1086C171.137 10.5943 170.864 11.2521 170.864 11.9379V20.8223C170.86 24.042 169.573 27.1285 167.284 29.4045C164.996 31.6804 161.894 32.9598 158.659 32.9618H77.032C73.7969 32.9598 70.6947 31.6804 68.4064 29.4045C66.1181 27.1285 64.8306 24.042 64.8266 20.8223V11.9379C64.8257 11.596 64.7569 11.2578 64.6243 10.9424C64.4918 10.6271 64.298 10.3409 64.0541 10.1003C63.8102 9.85959 63.5209 9.66919 63.2029 9.53997C62.885 9.41075 62.5445 9.34525 62.201 9.34721H38.1954C36.0093 9.34525 33.8443 9.77182 31.8239 10.6026C29.8035 11.4333 27.9673 12.652 26.4202 14.189C24.873 15.7259 23.6452 17.5511 22.8068 19.5604C21.9684 21.5696 21.5359 23.7235 21.5339 25.8991V244H23.7845V25.8991C23.7864 24.0176 24.1607 22.155 24.886 20.4175C25.6113 18.68 26.6734 17.1017 28.0115 15.7727C29.3497 14.4437 30.9378 13.39 32.6851 12.6718C34.4325 11.9537 36.3049 11.585 38.1954 11.587H62.201C62.2945 11.587 62.3842 11.6239 62.4503 11.6898C62.5165 11.7556 62.5536 11.8448 62.5536 11.9379V20.8223C62.5576 24.636 64.0821 28.2922 66.7925 30.9882C69.5029 33.6842 73.1775 35.1996 77.0095 35.2016H158.659C162.491 35.1996 166.165 33.6842 168.876 30.9882C171.586 28.2922 173.111 24.636 173.115 20.8223V11.9379C173.115 11.8461 173.151 11.7579 173.215 11.6924C173.28 11.6268 173.368 11.5889 173.46 11.587H198.111C201.923 11.5909 205.579 13.1001 208.275 15.7833C210.971 18.4664 212.488 22.1045 212.491 25.8991V244H214.742V25.8991C214.736 21.5111 212.982 17.3045 209.864 14.2017C206.747 11.0989 202.52 9.35314 198.111 9.34721Z" fill="#181818"/>
<path d="M138.097 12.4456H97.9029C97.0635 12.4857 96.2718 12.8457 95.692 13.4511C95.1121 14.0564 94.7887 14.8607 94.7887 15.697C94.7887 16.5334 95.1121 17.3376 95.692 17.943C96.2718 18.5483 97.0635 18.9084 97.9029 18.9484H138.097C138.54 18.9695 138.981 18.901 139.396 18.7472C139.811 18.5933 140.19 18.3572 140.511 18.0532C140.831 17.7492 141.086 17.3836 141.261 16.9786C141.435 16.5736 141.525 16.1376 141.525 15.697C141.525 15.2564 141.435 14.8204 141.261 14.4154C141.086 14.0104 140.831 13.6448 140.511 13.3408C140.19 13.0368 139.811 12.8008 139.396 12.6469C138.981 12.493 138.54 12.4245 138.097 12.4456Z" fill="#EDF3FF"/>
<path d="M138.097 10.2059H97.9028C96.4746 10.2583 95.1226 10.8598 94.1308 11.8838C93.1391 12.9079 92.585 14.2748 92.585 15.697C92.585 17.1193 93.1391 18.4862 94.1308 19.5102C95.1226 20.5343 96.4746 21.1358 97.9028 21.1882H138.097C138.839 21.2154 139.579 21.0935 140.272 20.8298C140.965 20.5661 141.598 20.166 142.132 19.6535C142.667 19.1409 143.092 18.5263 143.382 17.8465C143.672 17.1667 143.822 16.4357 143.822 15.697C143.822 14.9584 143.672 14.2273 143.382 13.5475C143.092 12.8678 142.667 12.2532 142.132 11.7406C141.598 11.228 140.965 10.8279 140.272 10.5642C139.579 10.3005 138.839 10.1787 138.097 10.2059ZM138.097 18.9484H97.9028C97.0634 18.9084 96.2717 18.5483 95.6919 17.943C95.1121 17.3376 94.7886 16.5334 94.7886 15.697C94.7886 14.8607 95.1121 14.0565 95.6919 13.4511C96.2717 12.8457 97.0634 12.4857 97.9028 12.4456H138.097C138.539 12.4246 138.981 12.493 139.396 12.6469C139.811 12.8008 140.19 13.0369 140.511 13.3409C140.831 13.6449 141.086 14.0104 141.26 14.4154C141.435 14.8204 141.525 15.2564 141.525 15.697C141.525 16.1376 141.435 16.5736 141.26 16.9786C141.086 17.3836 140.831 17.7492 140.511 18.0532C140.19 18.3572 139.811 18.5933 139.396 18.7472C138.981 18.9011 138.539 18.9695 138.097 18.9484Z" fill="#181818"/>
<rect x="55" y="186.467" width="123" height="30" rx="8" fill="#0084FF"/>
<path d="M66.959 200.78L68.7344 196.936H70.6562L67.8555 202.374V205.467H66.0684V202.374L63.2676 196.936H65.1953L66.959 200.78ZM73.8555 205.584C72.9258 205.584 72.168 205.299 71.582 204.729C71 204.159 70.709 203.399 70.709 202.45V202.286C70.709 201.649 70.832 201.081 71.0781 200.581C71.3242 200.077 71.6719 199.69 72.1211 199.42C72.5742 199.147 73.0898 199.01 73.668 199.01C74.5352 199.01 75.2168 199.284 75.7129 199.831C76.2129 200.377 76.4629 201.153 76.4629 202.157V202.848H72.4258C72.4805 203.262 72.6445 203.594 72.918 203.844C73.1953 204.094 73.5449 204.219 73.9668 204.219C74.6191 204.219 75.1289 203.983 75.4961 203.51L76.3281 204.442C76.0742 204.801 75.7305 205.082 75.2969 205.286C74.8633 205.485 74.3828 205.584 73.8555 205.584ZM73.6621 200.381C73.3262 200.381 73.0527 200.495 72.8418 200.721C72.6348 200.948 72.502 201.272 72.4434 201.694H74.7988V201.559C74.791 201.184 74.6895 200.895 74.4941 200.692C74.2988 200.485 74.0215 200.381 73.6621 200.381ZM80.8633 203.715C80.8633 203.508 80.7598 203.346 80.5527 203.229C80.3496 203.108 80.0215 203 79.5684 202.907C78.0605 202.59 77.3066 201.95 77.3066 200.985C77.3066 200.422 77.5391 199.954 78.0039 199.579C78.4727 199.2 79.084 199.01 79.8379 199.01C80.6426 199.01 81.2852 199.2 81.7656 199.579C82.25 199.957 82.4922 200.45 82.4922 201.055H80.7988C80.7988 200.813 80.7207 200.614 80.5645 200.457C80.4082 200.297 80.1641 200.217 79.832 200.217C79.5469 200.217 79.3262 200.282 79.1699 200.411C79.0137 200.54 78.9355 200.704 78.9355 200.903C78.9355 201.09 79.0234 201.243 79.1992 201.36C79.3789 201.473 79.6797 201.573 80.1016 201.659C80.5234 201.741 80.8789 201.834 81.168 201.94C82.0625 202.268 82.5098 202.836 82.5098 203.645C82.5098 204.223 82.2617 204.692 81.7656 205.051C81.2695 205.407 80.6289 205.584 79.8438 205.584C79.3125 205.584 78.8398 205.491 78.4258 205.303C78.0156 205.112 77.6934 204.852 77.459 204.524C77.2246 204.192 77.1074 203.834 77.1074 203.452H78.7129C78.7285 203.752 78.8398 203.983 79.0469 204.143C79.2539 204.303 79.5312 204.383 79.8789 204.383C80.2031 204.383 80.4473 204.323 80.6113 204.202C80.7793 204.077 80.8633 203.915 80.8633 203.715ZM85.3281 202.848H83.9219L83.7227 196.936H85.5273L85.3281 202.848ZM84.625 203.774C84.9102 203.774 85.1387 203.858 85.3105 204.026C85.4863 204.194 85.5742 204.409 85.5742 204.67C85.5742 204.928 85.4863 205.141 85.3105 205.309C85.1387 205.477 84.9102 205.561 84.625 205.561C84.3438 205.561 84.1152 205.477 83.9395 205.309C83.7676 205.141 83.6816 204.928 83.6816 204.67C83.6816 204.413 83.7676 204.2 83.9395 204.032C84.1152 203.86 84.3438 203.774 84.625 203.774ZM95.1074 201.77H91.7324V204.055H95.6934V205.467H89.9746V196.936H95.6816V198.36H91.7324V200.393H95.1074V201.77ZM99.0273 201.02L100.094 199.127H101.904L100.1 202.233L101.98 205.467H100.164L99.0332 203.475L97.9082 205.467H96.0859L97.9668 202.233L96.168 199.127H97.9844L99.0273 201.02ZM104.746 197.569V199.127H105.83V200.37H104.746V203.534C104.746 203.768 104.791 203.936 104.881 204.038C104.971 204.139 105.143 204.19 105.396 204.19C105.584 204.19 105.75 204.176 105.895 204.149V205.432C105.562 205.534 105.221 205.584 104.869 205.584C103.682 205.584 103.076 204.985 103.053 203.786V200.37H102.127V199.127H103.053V197.569H104.746ZM109.691 205.584C108.762 205.584 108.004 205.299 107.418 204.729C106.836 204.159 106.545 203.399 106.545 202.45V202.286C106.545 201.649 106.668 201.081 106.914 200.581C107.16 200.077 107.508 199.69 107.957 199.42C108.41 199.147 108.926 199.01 109.504 199.01C110.371 199.01 111.053 199.284 111.549 199.831C112.049 200.377 112.299 201.153 112.299 202.157V202.848H108.262C108.316 203.262 108.48 203.594 108.754 203.844C109.031 204.094 109.381 204.219 109.803 204.219C110.455 204.219 110.965 203.983 111.332 203.51L112.164 204.442C111.91 204.801 111.566 205.082 111.133 205.286C110.699 205.485 110.219 205.584 109.691 205.584ZM109.498 200.381C109.162 200.381 108.889 200.495 108.678 200.721C108.471 200.948 108.338 201.272 108.279 201.694H110.635V201.559C110.627 201.184 110.525 200.895 110.33 200.692C110.135 200.485 109.857 200.381 109.498 200.381ZM114.824 199.127L114.877 199.86C115.33 199.293 115.938 199.01 116.699 199.01C117.371 199.01 117.871 199.207 118.199 199.602C118.527 199.997 118.695 200.586 118.703 201.372V205.467H117.01V201.413C117.01 201.053 116.932 200.793 116.775 200.633C116.619 200.469 116.359 200.387 115.996 200.387C115.52 200.387 115.162 200.59 114.924 200.997V205.467H113.23V199.127H114.824ZM119.729 202.25C119.729 201.262 119.949 200.475 120.391 199.889C120.836 199.303 121.443 199.01 122.213 199.01C122.83 199.01 123.34 199.241 123.742 199.702V196.467H125.441V205.467H123.912L123.83 204.793C123.408 205.321 122.865 205.584 122.201 205.584C121.455 205.584 120.855 205.291 120.402 204.706C119.953 204.116 119.729 203.297 119.729 202.25ZM121.422 202.374C121.422 202.967 121.525 203.422 121.732 203.739C121.939 204.055 122.24 204.213 122.635 204.213C123.158 204.213 123.527 203.993 123.742 203.551V201.049C123.531 200.608 123.166 200.387 122.646 200.387C121.83 200.387 121.422 201.049 121.422 202.374ZM131.33 199.127L131.383 199.836C131.832 199.286 132.439 199.01 133.205 199.01C134.021 199.01 134.582 199.332 134.887 199.977C135.332 199.332 135.967 199.01 136.791 199.01C137.479 199.01 137.99 199.211 138.326 199.614C138.662 200.012 138.83 200.614 138.83 201.418V205.467H137.131V201.424C137.131 201.065 137.061 200.803 136.92 200.639C136.779 200.471 136.531 200.387 136.176 200.387C135.668 200.387 135.316 200.629 135.121 201.114L135.127 205.467H133.434V201.43C133.434 201.063 133.361 200.797 133.217 200.633C133.072 200.469 132.826 200.387 132.479 200.387C131.998 200.387 131.65 200.586 131.436 200.985V205.467H129.742V199.127H131.33ZM142.504 203.071L143.676 199.127H145.492L142.943 206.452L142.803 206.786C142.424 207.614 141.799 208.028 140.928 208.028C140.682 208.028 140.432 207.991 140.178 207.916V206.633L140.436 206.639C140.756 206.639 140.994 206.59 141.15 206.493C141.311 206.395 141.436 206.233 141.525 206.006L141.725 205.485L139.504 199.127H141.326L142.504 203.071ZM151.176 197.569V199.127H152.26V200.37H151.176V203.534C151.176 203.768 151.221 203.936 151.311 204.038C151.4 204.139 151.572 204.19 151.826 204.19C152.014 204.19 152.18 204.176 152.324 204.149V205.432C151.992 205.534 151.65 205.584 151.299 205.584C150.111 205.584 149.506 204.985 149.482 203.786V200.37H148.557V199.127H149.482V197.569H151.176ZM156.766 200.715C156.535 200.684 156.332 200.668 156.156 200.668C155.516 200.668 155.096 200.885 154.896 201.319V205.467H153.203V199.127H154.803L154.85 199.883C155.189 199.301 155.66 199.01 156.262 199.01C156.449 199.01 156.625 199.036 156.789 199.086L156.766 200.715ZM159.373 205.467H157.674V199.127H159.373V205.467ZM157.574 197.487C157.574 197.233 157.658 197.024 157.826 196.86C157.998 196.696 158.23 196.614 158.523 196.614C158.812 196.614 159.043 196.696 159.215 196.86C159.387 197.024 159.473 197.233 159.473 197.487C159.473 197.745 159.385 197.956 159.209 198.12C159.037 198.284 158.809 198.366 158.523 198.366C158.238 198.366 158.008 198.284 157.832 198.12C157.66 197.956 157.574 197.745 157.574 197.487ZM164.447 205.467C164.369 205.315 164.312 205.125 164.277 204.899C163.867 205.356 163.334 205.584 162.678 205.584C162.057 205.584 161.541 205.405 161.131 205.045C160.725 204.686 160.521 204.233 160.521 203.686C160.521 203.014 160.77 202.499 161.266 202.139C161.766 201.78 162.486 201.598 163.428 201.594H164.207V201.231C164.207 200.938 164.131 200.704 163.979 200.528C163.83 200.352 163.594 200.264 163.27 200.264C162.984 200.264 162.76 200.332 162.596 200.469C162.436 200.606 162.355 200.793 162.355 201.032H160.662C160.662 200.665 160.775 200.325 161.002 200.012C161.229 199.7 161.549 199.456 161.963 199.28C162.377 199.1 162.842 199.01 163.357 199.01C164.139 199.01 164.758 199.207 165.215 199.602C165.676 199.993 165.906 200.543 165.906 201.254V204.002C165.91 204.604 165.994 205.059 166.158 205.368V205.467H164.447ZM163.047 204.29C163.297 204.29 163.527 204.235 163.738 204.125C163.949 204.012 164.105 203.862 164.207 203.674V202.584H163.574C162.727 202.584 162.275 202.877 162.221 203.463L162.215 203.563C162.215 203.774 162.289 203.948 162.438 204.084C162.586 204.221 162.789 204.29 163.047 204.29ZM168.994 205.467H167.295V196.467H168.994V205.467Z" fill="white"/>
<path d="M112.26 81.8417L111.665 80.3526C111.144 79.0644 106.713 67.6948 110.518 63.3242C111.933 61.7085 114.167 61.2766 117.16 62.0361C119.848 62.7211 121.456 64.0688 121.947 66.0419C123.332 71.6113 114.464 79.8388 113.444 80.7621L112.26 81.8417ZM114.546 63.9124C114.114 63.8807 113.681 63.9436 113.276 64.0966C112.871 64.2496 112.504 64.4891 112.201 64.7985C110.25 67.0322 111.59 73.495 113.147 77.9625C116.006 75.1033 120.592 69.7201 119.781 66.5854C119.498 65.4611 118.463 64.6793 116.609 64.2102C115.931 64.027 115.233 63.927 114.531 63.9124H114.546Z" fill="#181818"/>
<path d="M99.3049 84.7455C97.2275 84.7455 95.3289 84.336 94.0407 83.2117C92.425 81.8044 91.9932 79.5707 92.7526 76.5775C93.4376 73.8896 94.7853 72.2814 96.751 71.7899C102.328 70.405 110.555 79.2357 111.479 80.2855L112.551 81.4768L111.062 82.0725C110.161 82.4373 104.241 84.7455 99.3049 84.7455ZM98.054 73.8673C97.8031 73.867 97.5531 73.897 97.3094 73.9566C96.1777 74.2396 95.4033 75.2745 94.9342 77.1285C94.3981 79.2357 94.5917 80.7174 95.5224 81.5289C97.7562 83.4872 104.219 82.1395 108.686 80.5833C106.028 77.9476 101.248 73.8673 98.054 73.8673Z" fill="#181818"/>
<path d="M95.2998 101.019L137.152 100.938L137.195 123.276C137.196 123.945 136.932 124.588 136.459 125.062C135.987 125.536 135.345 125.803 134.676 125.805L97.8865 125.875C97.2171 125.876 96.5746 125.612 96.1003 125.139C95.626 124.667 95.3589 124.025 95.3576 123.356L95.3147 101.019L95.2998 101.019Z" fill="white"/>
<rect x="119.856" y="101.731" width="23.8477" height="6.29246" transform="rotate(90.7786 119.856 101.731)" fill="#181818"/>
<path d="M97.6893 127C97.2115 127.001 96.7382 126.908 96.2965 126.726C95.8548 126.543 95.4534 126.276 95.1152 125.938C94.777 125.601 94.5087 125.2 94.3256 124.759C94.1426 124.317 94.0483 123.844 94.0483 123.366L94.0037 99.905L138.09 99.8231L138.134 123.285C138.134 124.25 137.752 125.175 137.071 125.859C136.39 126.543 135.466 126.929 134.501 126.933L97.6967 127H97.6893ZM96.2448 102.139V123.359C96.2448 123.544 96.2815 123.728 96.3526 123.899C96.4238 124.07 96.5282 124.226 96.6596 124.357C96.7911 124.487 96.9471 124.591 97.1187 124.661C97.2903 124.732 97.4741 124.767 97.6595 124.766L134.456 124.699C134.642 124.699 134.825 124.663 134.996 124.591C135.168 124.52 135.323 124.416 135.454 124.284C135.585 124.153 135.688 123.997 135.758 123.825C135.829 123.654 135.864 123.47 135.863 123.285L135.826 102.064L96.2448 102.139Z" fill="#181818"/>
<path d="M133.851 75.7015L94.4181 96.4746L92.4852 92.8053C92.1732 92.2131 92.1092 91.5211 92.3074 90.8817C92.5056 90.2423 92.9497 89.7078 93.5419 89.3957L128.502 70.979C129.094 70.6669 129.786 70.603 130.426 70.8012C131.065 70.9994 131.6 71.4434 131.912 72.0357L133.845 75.705L133.851 75.7015Z" fill="white"/>
<rect x="114.372" y="79.1724" width="5.79417" height="6.29246" transform="rotate(62.6325 114.372 79.1724)" fill="#181818"/>
<path d="M93.9439 97.984L91.4943 93.323C91.0425 92.4722 90.9455 91.4773 91.2245 90.5553C91.5034 89.6333 92.1357 88.859 92.9834 88.4014L127.978 69.9881C128.399 69.7624 128.86 69.6219 129.336 69.5746C129.811 69.5273 130.291 69.5741 130.748 69.7124C131.205 69.8508 131.63 70.0778 132 70.3806C132.369 70.6835 132.675 71.0561 132.9 71.4773L135.35 76.1309L93.9439 97.984ZM129.683 71.7974C129.455 71.7986 129.23 71.8548 129.028 71.9613L94.0333 90.382C93.702 90.5562 93.4533 90.8547 93.3417 91.212C93.23 91.5692 93.2645 91.9562 93.4376 92.2881L94.8523 94.9611L132.364 75.2299L130.957 72.5495C130.786 72.2117 130.489 71.9548 130.13 71.8347C129.982 71.8093 129.831 71.8093 129.683 71.8347V71.7974Z" fill="#181818"/>
<path d="M139.363 80.3153C139.259 80.5163 139.162 80.6727 139.095 80.829C138.69 81.742 138.156 82.5921 137.509 83.3531C136.901 84.0956 136.186 84.743 135.387 85.2741C134.806 85.6464 134.188 85.9591 133.593 86.2942C133.496 86.3538 133.369 86.3538 133.272 86.4133C133.233 86.4336 133.199 86.4621 133.172 86.4968C133.145 86.5315 133.126 86.5716 133.116 86.6144C133.116 86.6665 133.205 86.7633 133.272 86.7856C135.03 87.4722 136.573 88.6161 137.74 90.099C138.341 90.866 138.841 91.7067 139.229 92.6007C139.266 92.6752 139.318 92.7422 139.385 92.8613C139.487 92.6855 139.579 92.504 139.661 92.3178C140.073 91.3872 140.623 90.5238 141.291 89.7565C141.876 89.0476 142.564 88.4302 143.332 87.9248C143.927 87.5451 144.553 87.1802 145.163 86.875C145.275 86.8154 145.402 86.808 145.506 86.7484C145.541 86.7296 145.571 86.7031 145.594 86.6709C145.618 86.6386 145.633 86.6014 145.64 86.5622C145.632 86.5262 145.616 86.4926 145.593 86.4641C145.569 86.4356 145.54 86.4131 145.506 86.3984C144.4 85.9834 143.377 85.3759 142.483 84.604C141.626 83.8989 140.896 83.0528 140.324 82.1023C140.026 81.5885 139.758 81.0599 139.49 80.5387C139.467 80.4791 139.43 80.4195 139.363 80.3153Z" fill="#181818"/>
<path d="M123.183 96.815C123.136 96.7541 123.093 96.6894 123.057 96.6214C122.796 95.8769 122.535 95.177 122.312 94.4547C122.23 94.2388 122.156 94.0229 122.089 93.7995C122.065 93.7065 122.02 93.62 121.958 93.5466C121.897 93.4731 121.819 93.4145 121.731 93.3751L120.741 93.0103L119.609 92.5784L118.924 92.3327C118.858 92.289 118.798 92.2364 118.746 92.1763C118.805 92.1242 118.857 92.0498 118.924 92.0274L120.078 91.5881L121.128 91.1935L121.716 90.9776C121.795 90.9482 121.866 90.9014 121.924 90.8408C121.982 90.7802 122.026 90.7074 122.051 90.6276L122.409 89.6374C122.595 89.1013 122.789 88.5652 122.982 88.0291C122.982 87.9323 123.034 87.828 123.079 87.7238C123.124 87.6196 123.168 87.6047 123.22 87.6047C123.273 87.6047 123.332 87.6717 123.347 87.7313C123.615 88.4758 123.876 89.1757 124.136 89.9054L124.367 90.5681C124.387 90.6622 124.431 90.7496 124.495 90.8214C124.559 90.8933 124.641 90.9471 124.732 90.9776L126.221 91.5286L127.293 91.9381C127.383 91.9753 127.487 91.9902 127.569 92.0349C127.651 92.0796 127.695 92.1168 127.695 92.1689C127.687 92.1987 127.672 92.2262 127.651 92.2494C127.63 92.2726 127.605 92.2909 127.576 92.3029C126.705 92.6454 125.841 92.9656 124.978 93.2932L124.859 93.3304C124.726 93.3562 124.604 93.421 124.508 93.5165C124.413 93.612 124.348 93.7339 124.322 93.8665C124.211 94.2537 124.054 94.6111 123.928 94.9983C123.801 95.3854 123.667 95.6982 123.548 96.0556C123.474 96.2566 123.414 96.4576 123.34 96.6587C123.31 96.7033 123.258 96.7406 123.183 96.815Z" fill="#181818"/>
<path d="M56.2344 155.186L57.7656 147.092H60.1016L57.5781 158.467H55.2188L53.3672 150.858L51.5156 158.467H49.1562L46.6328 147.092H48.9688L50.5078 155.17L52.3828 147.092H54.3672L56.2344 155.186ZM64.8672 158.623C63.6276 158.623 62.6172 158.243 61.8359 157.483C61.0599 156.722 60.6719 155.709 60.6719 154.444V154.225C60.6719 153.376 60.8359 152.618 61.1641 151.952C61.4922 151.28 61.9557 150.764 62.5547 150.405C63.1589 150.04 63.8464 149.858 64.6172 149.858C65.7734 149.858 66.6823 150.222 67.3438 150.952C68.0104 151.681 68.3438 152.715 68.3438 154.053V154.975H62.9609C63.0339 155.527 63.2526 155.97 63.6172 156.303C63.987 156.637 64.4531 156.803 65.0156 156.803C65.8854 156.803 66.5651 156.488 67.0547 155.858L68.1641 157.1C67.8255 157.579 67.3672 157.954 66.7891 158.225C66.2109 158.491 65.5703 158.623 64.8672 158.623ZM64.6094 151.686C64.1615 151.686 63.7969 151.837 63.5156 152.139C63.2396 152.441 63.0625 152.873 62.9844 153.436H66.125V153.256C66.1146 152.756 65.9792 152.371 65.7188 152.1C65.4583 151.824 65.0885 151.686 64.6094 151.686ZM77.5078 158.623C76.2682 158.623 75.2578 158.243 74.4766 157.483C73.7005 156.722 73.3125 155.709 73.3125 154.444V154.225C73.3125 153.376 73.4766 152.618 73.8047 151.952C74.1328 151.28 74.5964 150.764 75.1953 150.405C75.7995 150.04 76.487 149.858 77.2578 149.858C78.4141 149.858 79.3229 150.222 79.9844 150.952C80.651 151.681 80.9844 152.715 80.9844 154.053V154.975H75.6016C75.6745 155.527 75.8932 155.97 76.2578 156.303C76.6276 156.637 77.0938 156.803 77.6562 156.803C78.526 156.803 79.2057 156.488 79.6953 155.858L80.8047 157.1C80.4661 157.579 80.0078 157.954 79.4297 158.225C78.8516 158.491 78.2109 158.623 77.5078 158.623ZM77.25 151.686C76.8021 151.686 76.4375 151.837 76.1562 152.139C75.8802 152.441 75.7031 152.873 75.625 153.436H78.7656V153.256C78.7552 152.756 78.6198 152.371 78.3594 152.1C78.099 151.824 77.7292 151.686 77.25 151.686ZM85.4922 152.538L86.9141 150.014H89.3281L86.9219 154.155L89.4297 158.467H87.0078L85.5 155.811L84 158.467H81.5703L84.0781 154.155L81.6797 150.014H84.1016L85.4922 152.538ZM93.1172 147.936V150.014H94.5625V151.67H93.1172V155.889C93.1172 156.202 93.1771 156.426 93.2969 156.561C93.4167 156.696 93.6458 156.764 93.9844 156.764C94.2344 156.764 94.4557 156.746 94.6484 156.709V158.42C94.2057 158.556 93.75 158.623 93.2812 158.623C91.6979 158.623 90.8906 157.824 90.8594 156.225V151.67H89.625V150.014H90.8594V147.936H93.1172ZM99.7109 158.623C98.4714 158.623 97.4609 158.243 96.6797 157.483C95.9036 156.722 95.5156 155.709 95.5156 154.444V154.225C95.5156 153.376 95.6797 152.618 96.0078 151.952C96.3359 151.28 96.7995 150.764 97.3984 150.405C98.0026 150.04 98.6901 149.858 99.4609 149.858C100.617 149.858 101.526 150.222 102.188 150.952C102.854 151.681 103.188 152.715 103.188 154.053V154.975H97.8047C97.8776 155.527 98.0964 155.97 98.4609 156.303C98.8307 156.637 99.2969 156.803 99.8594 156.803C100.729 156.803 101.409 156.488 101.898 155.858L103.008 157.1C102.669 157.579 102.211 157.954 101.633 158.225C101.055 158.491 100.414 158.623 99.7109 158.623ZM99.4531 151.686C99.0052 151.686 98.6406 151.837 98.3594 152.139C98.0833 152.441 97.9062 152.873 97.8281 153.436H100.969V153.256C100.958 152.756 100.823 152.371 100.562 152.1C100.302 151.824 99.9323 151.686 99.4531 151.686ZM106.555 150.014L106.625 150.991C107.229 150.235 108.039 149.858 109.055 149.858C109.951 149.858 110.617 150.121 111.055 150.647C111.492 151.173 111.716 151.959 111.727 153.006V158.467H109.469V153.061C109.469 152.582 109.365 152.235 109.156 152.022C108.948 151.803 108.602 151.694 108.117 151.694C107.482 151.694 107.005 151.965 106.688 152.506V158.467H104.43V150.014H106.555ZM113.094 154.178C113.094 152.86 113.388 151.811 113.977 151.03C114.57 150.248 115.38 149.858 116.406 149.858C117.229 149.858 117.909 150.165 118.445 150.78V146.467H120.711V158.467H118.672L118.562 157.569C118 158.272 117.276 158.623 116.391 158.623C115.396 158.623 114.596 158.233 113.992 157.452C113.393 156.665 113.094 155.574 113.094 154.178ZM115.352 154.342C115.352 155.134 115.49 155.741 115.766 156.163C116.042 156.584 116.443 156.795 116.969 156.795C117.667 156.795 118.159 156.501 118.445 155.913V152.577C118.164 151.988 117.677 151.694 116.984 151.694C115.896 151.694 115.352 152.577 115.352 154.342ZM129.602 155.272L131.164 150.014H133.586L130.188 159.78L130 160.225C129.495 161.329 128.661 161.881 127.5 161.881C127.172 161.881 126.839 161.832 126.5 161.733V160.022L126.844 160.03C127.271 160.03 127.589 159.965 127.797 159.834C128.01 159.704 128.177 159.488 128.297 159.186L128.562 158.491L125.602 150.014H128.031L129.602 155.272ZM134 154.163C134 153.324 134.161 152.577 134.484 151.92C134.807 151.264 135.271 150.756 135.875 150.397C136.484 150.038 137.19 149.858 137.992 149.858C139.133 149.858 140.062 150.207 140.781 150.905C141.505 151.603 141.909 152.551 141.992 153.748L142.008 154.327C142.008 155.623 141.646 156.665 140.922 157.452C140.198 158.233 139.227 158.623 138.008 158.623C136.789 158.623 135.815 158.233 135.086 157.452C134.362 156.67 134 155.608 134 154.264V154.163ZM136.258 154.327C136.258 155.129 136.409 155.743 136.711 156.17C137.013 156.592 137.445 156.803 138.008 156.803C138.555 156.803 138.982 156.595 139.289 156.178C139.596 155.756 139.75 155.084 139.75 154.163C139.75 153.376 139.596 152.767 139.289 152.334C138.982 151.902 138.549 151.686 137.992 151.686C137.44 151.686 137.013 151.902 136.711 152.334C136.409 152.762 136.258 153.426 136.258 154.327ZM148.461 157.608C147.904 158.285 147.133 158.623 146.148 158.623C145.242 158.623 144.549 158.363 144.07 157.842C143.596 157.321 143.354 156.558 143.344 155.553V150.014H145.602V155.475C145.602 156.355 146.003 156.795 146.805 156.795C147.57 156.795 148.096 156.53 148.383 155.998V150.014H150.648V158.467H148.523L148.461 157.608ZM157.102 152.131C156.794 152.09 156.523 152.069 156.289 152.069C155.435 152.069 154.875 152.358 154.609 152.936V158.467H152.352V150.014H154.484L154.547 151.022C155 150.246 155.628 149.858 156.43 149.858C156.68 149.858 156.914 149.892 157.133 149.959L157.102 152.131ZM164.883 147.936V150.014H166.328V151.67H164.883V155.889C164.883 156.202 164.943 156.426 165.062 156.561C165.182 156.696 165.411 156.764 165.75 156.764C166 156.764 166.221 156.746 166.414 156.709V158.42C165.971 158.556 165.516 158.623 165.047 158.623C163.464 158.623 162.656 157.824 162.625 156.225V151.67H161.391V150.014H162.625V147.936H164.883ZM172.336 152.131C172.029 152.09 171.758 152.069 171.523 152.069C170.669 152.069 170.109 152.358 169.844 152.936V158.467H167.586V150.014H169.719L169.781 151.022C170.234 150.246 170.862 149.858 171.664 149.858C171.914 149.858 172.148 149.892 172.367 149.959L172.336 152.131ZM175.812 158.467H173.547V150.014H175.812V158.467ZM173.414 147.827C173.414 147.488 173.526 147.209 173.75 146.991C173.979 146.772 174.289 146.663 174.68 146.663C175.065 146.663 175.372 146.772 175.602 146.991C175.831 147.209 175.945 147.488 175.945 147.827C175.945 148.17 175.828 148.452 175.594 148.67C175.365 148.889 175.06 148.998 174.68 148.998C174.299 148.998 173.992 148.889 173.758 148.67C173.529 148.452 173.414 148.17 173.414 147.827ZM182.578 158.467C182.474 158.264 182.398 158.012 182.352 157.709C181.805 158.319 181.094 158.623 180.219 158.623C179.391 158.623 178.703 158.384 178.156 157.905C177.615 157.426 177.344 156.821 177.344 156.092C177.344 155.196 177.674 154.509 178.336 154.03C179.003 153.551 179.964 153.308 181.219 153.303H182.258V152.819C182.258 152.428 182.156 152.116 181.953 151.881C181.755 151.647 181.44 151.53 181.008 151.53C180.628 151.53 180.328 151.621 180.109 151.803C179.896 151.985 179.789 152.235 179.789 152.553H177.531C177.531 152.064 177.682 151.61 177.984 151.194C178.286 150.777 178.714 150.452 179.266 150.217C179.818 149.978 180.438 149.858 181.125 149.858C182.167 149.858 182.992 150.121 183.602 150.647C184.216 151.168 184.523 151.902 184.523 152.85V156.514C184.529 157.316 184.641 157.923 184.859 158.334V158.467H182.578ZM180.711 156.897C181.044 156.897 181.352 156.824 181.633 156.678C181.914 156.527 182.122 156.327 182.258 156.077V154.623H181.414C180.284 154.623 179.682 155.014 179.609 155.795L179.602 155.928C179.602 156.209 179.701 156.441 179.898 156.623C180.096 156.806 180.367 156.897 180.711 156.897ZM188.641 158.467H186.375V146.467H188.641V158.467Z" fill="#181818"/>
<rect y="244" width="236" height="2" rx="1" fill="#181818"/>
</svg>
