<svg width="236" height="245" viewBox="0 0 236 245" fill="none" xmlns="http://www.w3.org/2000/svg">
<path d="M196.258 2.23975H39.3438C32.6368 2.23776 26.2034 4.88593 21.4573 9.60231C16.7112 14.3187 14.0408 20.7174 14.0328 27.3923V244H21.182V25.8991C21.184 23.7235 21.6165 21.5697 22.4549 19.5604C23.2933 17.5512 24.5211 15.726 26.0683 14.189C27.6154 12.652 29.4516 11.4334 31.472 10.6026C33.4924 9.77188 35.6574 9.3453 37.8435 9.34727H61.8491C62.5389 9.34924 63.1999 9.62281 63.6876 10.1082C64.1754 10.5936 64.4503 11.2514 64.4522 11.9379V20.8223C64.4562 24.042 65.7436 27.1286 68.0319 29.4045C70.3203 31.6805 73.4225 32.9599 76.6576 32.9619H158.307C161.542 32.9599 164.644 31.6805 166.933 29.4045C169.221 27.1286 170.508 24.042 170.512 20.8223V11.9379C170.512 11.2521 170.785 10.5943 171.272 10.1087C171.759 9.62306 172.419 9.34924 173.108 9.34727H197.759C202.168 9.35319 206.395 11.0989 209.512 14.2017C212.63 17.3045 214.384 21.5111 214.39 25.8991V244H221.532V27.3923C221.526 20.7233 218.861 14.329 214.123 9.61331C209.384 4.89758 202.959 2.24568 196.258 2.23975ZM137.88 21.1882H97.6851C96.2569 21.1357 94.9049 20.5343 93.9131 19.5102C92.9214 18.4861 92.3673 17.1193 92.3673 15.697C92.3673 14.2747 92.9214 12.9079 93.9131 11.8838C94.9049 10.8597 96.2569 10.2583 97.6851 10.2058H137.88C138.621 10.1786 139.361 10.3005 140.054 10.5642C140.747 10.8279 141.38 11.228 141.915 11.7406C142.449 12.2532 142.874 12.8677 143.164 13.5475C143.455 14.2273 143.604 14.9584 143.604 15.697C143.604 16.4356 143.455 17.1667 143.164 17.8465C142.874 18.5263 142.449 19.1408 141.915 19.6534C141.38 20.166 140.747 20.5661 140.054 20.8298C139.361 21.0935 138.621 21.2154 137.88 21.1882Z" fill="white"/>
<path d="M14.2505 27.3923C14.2585 20.7174 16.9289 14.3187 21.675 9.60233C26.4211 4.88595 32.8545 2.23778 39.5615 2.23977H196.476C203.177 2.2457 209.602 4.89759 214.34 9.61333C219.079 14.3291 221.743 20.7233 221.749 27.3923V244H224V27.3923C223.992 20.1299 221.09 13.1671 215.93 8.03176C210.77 2.89641 203.773 0.00790576 196.476 1.02223e-06H39.5615C32.2576 -0.00198231 25.2518 2.88216 20.0836 8.01857C14.9155 13.155 12.008 20.1234 12 27.3923V244H14.2505V27.3923Z" fill="#181818"/>
<path d="M198.326 11.587H173.675C173.583 11.589 173.495 11.6268 173.431 11.6924C173.366 11.758 173.33 11.8462 173.33 11.9379V20.8223C173.326 24.636 171.802 28.2923 169.091 30.9883C166.381 33.6843 162.706 35.1997 158.874 35.2016H77.2476C73.4155 35.1997 69.7409 33.6843 67.0305 30.9883C64.3202 28.2923 62.7956 24.636 62.7916 20.8223V11.9379C62.7916 11.8449 62.7545 11.7556 62.6884 11.6898C62.6223 11.624 62.5326 11.587 62.4391 11.587H38.4109C36.5204 11.5851 34.648 11.9537 32.9007 12.6719C31.1533 13.3901 29.5652 14.4438 28.2271 15.7728C26.8889 17.1018 25.8268 18.6801 25.1016 20.4176C24.3763 22.155 24.002 24.0177 24 25.8991V244H212.707V25.8991C212.703 22.1045 211.187 18.4665 208.491 15.7833C205.794 13.1001 202.139 11.591 198.326 11.587Z" fill="#F8FBFF"/>
<path d="M59.2969 67.7188L60.8281 59.625H63.1641L60.6406 71H58.2812L56.4297 63.3906L54.5781 71H52.2188L49.6953 59.625H52.0312L53.5703 67.7031L55.4453 59.625H57.4297L59.2969 67.7188ZM66.4922 63.4688C67.0911 62.75 67.8438 62.3906 68.75 62.3906C70.5833 62.3906 71.513 63.4557 71.5391 65.5859V71H69.2812V65.6484C69.2812 65.1641 69.1771 64.8073 68.9688 64.5781C68.7604 64.3438 68.4141 64.2266 67.9297 64.2266C67.2682 64.2266 66.7891 64.4818 66.4922 64.9922V71H64.2344V59H66.4922V63.4688ZM76.3984 67.8047L77.9609 62.5469H80.3828L76.9844 72.3125L76.7969 72.7578C76.2917 73.862 75.4583 74.4141 74.2969 74.4141C73.9688 74.4141 73.6354 74.3646 73.2969 74.2656V72.5547L73.6406 72.5625C74.0677 72.5625 74.3854 72.4974 74.5938 72.3672C74.8073 72.237 74.974 72.0208 75.0938 71.7188L75.3594 71.0234L72.3984 62.5469H74.8281L76.3984 67.8047ZM84.9062 66.7109C84.9062 65.3932 85.2005 64.3438 85.7891 63.5625C86.3828 62.7812 87.1927 62.3906 88.2188 62.3906C89.0417 62.3906 89.7214 62.6979 90.2578 63.3125V59H92.5234V71H90.4844L90.375 70.1016C89.8125 70.8047 89.0885 71.1562 88.2031 71.1562C87.2083 71.1562 86.4089 70.7656 85.8047 69.9844C85.2057 69.1979 84.9062 68.1068 84.9062 66.7109ZM87.1641 66.875C87.1641 67.6667 87.3021 68.2734 87.5781 68.6953C87.8542 69.1172 88.2552 69.3281 88.7812 69.3281C89.4792 69.3281 89.9714 69.0339 90.2578 68.4453V65.1094C89.9766 64.5208 89.4896 64.2266 88.7969 64.2266C87.7083 64.2266 87.1641 65.1094 87.1641 66.875ZM96.6562 71H94.3906V62.5469H96.6562V71ZM94.2578 60.3594C94.2578 60.0208 94.3698 59.7422 94.5938 59.5234C94.8229 59.3047 95.1328 59.1953 95.5234 59.1953C95.9089 59.1953 96.2161 59.3047 96.4453 59.5234C96.6745 59.7422 96.7891 60.0208 96.7891 60.3594C96.7891 60.7031 96.6719 60.9844 96.4375 61.2031C96.2083 61.4219 95.9036 61.5312 95.5234 61.5312C95.1432 61.5312 94.8359 61.4219 94.6016 61.2031C94.3724 60.9844 94.2578 60.7031 94.2578 60.3594ZM98.1719 66.7109C98.1719 65.3932 98.4661 64.3438 99.0547 63.5625C99.6484 62.7812 100.458 62.3906 101.484 62.3906C102.307 62.3906 102.987 62.6979 103.523 63.3125V59H105.789V71H103.75L103.641 70.1016C103.078 70.8047 102.354 71.1562 101.469 71.1562C100.474 71.1562 99.6745 70.7656 99.0703 69.9844C98.4714 69.1979 98.1719 68.1068 98.1719 66.7109ZM100.43 66.875C100.43 67.6667 100.568 68.2734 100.844 68.6953C101.12 69.1172 101.521 69.3281 102.047 69.3281C102.745 69.3281 103.237 69.0339 103.523 68.4453V65.1094C103.242 64.5208 102.755 64.2266 102.062 64.2266C100.974 64.2266 100.43 65.1094 100.43 66.875ZM114.68 67.8047L116.242 62.5469H118.664L115.266 72.3125L115.078 72.7578C114.573 73.862 113.74 74.4141 112.578 74.4141C112.25 74.4141 111.917 74.3646 111.578 74.2656V72.5547L111.922 72.5625C112.349 72.5625 112.667 72.4974 112.875 72.3672C113.089 72.237 113.255 72.0208 113.375 71.7188L113.641 71.0234L110.68 62.5469H113.109L114.68 67.8047ZM119.078 66.6953C119.078 65.8568 119.24 65.1094 119.562 64.4531C119.885 63.7969 120.349 63.2891 120.953 62.9297C121.562 62.5703 122.268 62.3906 123.07 62.3906C124.211 62.3906 125.141 62.7396 125.859 63.4375C126.583 64.1354 126.987 65.0833 127.07 66.2812L127.086 66.8594C127.086 68.1562 126.724 69.1979 126 69.9844C125.276 70.7656 124.305 71.1562 123.086 71.1562C121.867 71.1562 120.893 70.7656 120.164 69.9844C119.44 69.2031 119.078 68.1406 119.078 66.7969V66.6953ZM121.336 66.8594C121.336 67.6615 121.487 68.276 121.789 68.7031C122.091 69.125 122.523 69.3359 123.086 69.3359C123.633 69.3359 124.06 69.1276 124.367 68.7109C124.674 68.2891 124.828 67.6172 124.828 66.6953C124.828 65.9089 124.674 65.2995 124.367 64.8672C124.06 64.4349 123.628 64.2188 123.07 64.2188C122.518 64.2188 122.091 64.4349 121.789 64.8672C121.487 65.2943 121.336 65.9583 121.336 66.8594ZM133.539 70.1406C132.982 70.8177 132.211 71.1562 131.227 71.1562C130.32 71.1562 129.628 70.8958 129.148 70.375C128.674 69.8542 128.432 69.0911 128.422 68.0859V62.5469H130.68V68.0078C130.68 68.888 131.081 69.3281 131.883 69.3281C132.648 69.3281 133.174 69.0625 133.461 68.5312V62.5469H135.727V71H133.602L133.539 70.1406ZM144.93 69.3359C145.346 69.3359 145.685 69.2214 145.945 68.9922C146.206 68.763 146.341 68.4583 146.352 68.0781H148.469C148.464 68.651 148.307 69.1771 148 69.6562C147.693 70.1302 147.271 70.5 146.734 70.7656C146.203 71.026 145.615 71.1562 144.969 71.1562C143.76 71.1562 142.807 70.7734 142.109 70.0078C141.411 69.237 141.062 68.1745 141.062 66.8203V66.6719C141.062 65.3698 141.409 64.3307 142.102 63.5547C142.794 62.7786 143.745 62.3906 144.953 62.3906C146.01 62.3906 146.857 62.6927 147.492 63.2969C148.133 63.8958 148.458 64.6953 148.469 65.6953H146.352C146.341 65.2578 146.206 64.9036 145.945 64.6328C145.685 64.3568 145.341 64.2188 144.914 64.2188C144.388 64.2188 143.99 64.4115 143.719 64.7969C143.453 65.1771 143.32 65.7969 143.32 66.6562V66.8906C143.32 67.7604 143.453 68.3854 143.719 68.7656C143.984 69.1458 144.388 69.3359 144.93 69.3359ZM154.656 71C154.552 70.7969 154.477 70.5443 154.43 70.2422C153.883 70.8516 153.172 71.1562 152.297 71.1562C151.469 71.1562 150.781 70.9167 150.234 70.4375C149.693 69.9583 149.422 69.3542 149.422 68.625C149.422 67.7292 149.753 67.0417 150.414 66.5625C151.081 66.0833 152.042 65.8411 153.297 65.8359H154.336V65.3516C154.336 64.9609 154.234 64.6484 154.031 64.4141C153.833 64.1797 153.518 64.0625 153.086 64.0625C152.706 64.0625 152.406 64.1536 152.188 64.3359C151.974 64.5182 151.867 64.7682 151.867 65.0859H149.609C149.609 64.5964 149.76 64.1432 150.062 63.7266C150.365 63.3099 150.792 62.9844 151.344 62.75C151.896 62.5104 152.516 62.3906 153.203 62.3906C154.245 62.3906 155.07 62.6536 155.68 63.1797C156.294 63.7005 156.602 64.4349 156.602 65.3828V69.0469C156.607 69.849 156.719 70.4557 156.938 70.8672V71H154.656ZM152.789 69.4297C153.122 69.4297 153.43 69.3568 153.711 69.2109C153.992 69.0599 154.201 68.8594 154.336 68.6094V67.1562H153.492C152.362 67.1562 151.76 67.5469 151.688 68.3281L151.68 68.4609C151.68 68.7422 151.779 68.974 151.977 69.1562C152.174 69.3385 152.445 69.4297 152.789 69.4297ZM160.414 62.5469L160.484 63.5234C161.089 62.7682 161.898 62.3906 162.914 62.3906C163.81 62.3906 164.477 62.6536 164.914 63.1797C165.352 63.7057 165.576 64.4922 165.586 65.5391V71H163.328V65.5938C163.328 65.1146 163.224 64.7682 163.016 64.5547C162.807 64.3359 162.461 64.2266 161.977 64.2266C161.341 64.2266 160.865 64.4974 160.547 65.0391V71H158.289V62.5469H160.414ZM171.883 68.6641C171.883 68.388 171.745 68.1719 171.469 68.0156C171.198 67.8542 170.76 67.7109 170.156 67.5859C168.146 67.1641 167.141 66.3099 167.141 65.0234C167.141 64.2734 167.451 63.6484 168.07 63.1484C168.695 62.6432 169.51 62.3906 170.516 62.3906C171.589 62.3906 172.445 62.6432 173.086 63.1484C173.732 63.6536 174.055 64.3099 174.055 65.1172H171.797C171.797 64.7943 171.693 64.5286 171.484 64.3203C171.276 64.1068 170.951 64 170.508 64C170.128 64 169.833 64.0859 169.625 64.2578C169.417 64.4297 169.312 64.6484 169.312 64.9141C169.312 65.1641 169.43 65.3672 169.664 65.5234C169.904 65.6745 170.305 65.8073 170.867 65.9219C171.43 66.0312 171.904 66.1562 172.289 66.2969C173.482 66.7344 174.078 67.4922 174.078 68.5703C174.078 69.3411 173.747 69.9661 173.086 70.4453C172.424 70.9193 171.57 71.1562 170.523 71.1562C169.815 71.1562 169.185 71.0312 168.633 70.7812C168.086 70.526 167.656 70.1797 167.344 69.7422C167.031 69.2995 166.875 68.8229 166.875 68.3125H169.016C169.036 68.7135 169.185 69.0208 169.461 69.2344C169.737 69.4479 170.107 69.5547 170.57 69.5547C171.003 69.5547 171.328 69.474 171.547 69.3125C171.771 69.1458 171.883 68.9297 171.883 68.6641ZM179.43 71.1562C178.19 71.1562 177.18 70.776 176.398 70.0156C175.622 69.2552 175.234 68.2422 175.234 66.9766V66.7578C175.234 65.9089 175.398 65.151 175.727 64.4844C176.055 63.8125 176.518 63.2969 177.117 62.9375C177.721 62.5729 178.409 62.3906 179.18 62.3906C180.336 62.3906 181.245 62.7552 181.906 63.4844C182.573 64.2135 182.906 65.2474 182.906 66.5859V67.5078H177.523C177.596 68.0599 177.815 68.5026 178.18 68.8359C178.549 69.1693 179.016 69.3359 179.578 69.3359C180.448 69.3359 181.128 69.0208 181.617 68.3906L182.727 69.6328C182.388 70.112 181.93 70.487 181.352 70.7578C180.773 71.0234 180.133 71.1562 179.43 71.1562ZM179.172 64.2188C178.724 64.2188 178.359 64.3698 178.078 64.6719C177.802 64.974 177.625 65.4062 177.547 65.9688H180.688V65.7891C180.677 65.2891 180.542 64.9036 180.281 64.6328C180.021 64.3568 179.651 64.2188 179.172 64.2188ZM186.578 71H184.312V59H186.578V71ZM69.2188 90C69.1146 89.7969 69.0391 89.5443 68.9922 89.2422C68.4453 89.8516 67.7344 90.1562 66.8594 90.1562C66.0312 90.1562 65.3438 89.9167 64.7969 89.4375C64.2552 88.9583 63.9844 88.3542 63.9844 87.625C63.9844 86.7292 64.3151 86.0417 64.9766 85.5625C65.6432 85.0833 66.6042 84.8411 67.8594 84.8359H68.8984V84.3516C68.8984 83.9609 68.7969 83.6484 68.5938 83.4141C68.3958 83.1797 68.0807 83.0625 67.6484 83.0625C67.2682 83.0625 66.9688 83.1536 66.75 83.3359C66.5365 83.5182 66.4297 83.7682 66.4297 84.0859H64.1719C64.1719 83.5964 64.3229 83.1432 64.625 82.7266C64.9271 82.3099 65.3542 81.9844 65.9062 81.75C66.4583 81.5104 67.0781 81.3906 67.7656 81.3906C68.8073 81.3906 69.6328 81.6536 70.2422 82.1797C70.8568 82.7005 71.1641 83.4349 71.1641 84.3828V88.0469C71.1693 88.849 71.2812 89.4557 71.5 89.8672V90H69.2188ZM67.3516 88.4297C67.6849 88.4297 67.9922 88.3568 68.2734 88.2109C68.5547 88.0599 68.763 87.8594 68.8984 87.6094V86.1562H68.0547C66.9245 86.1562 66.3229 86.5469 66.25 87.3281L66.2422 87.4609C66.2422 87.7422 66.3411 87.974 66.5391 88.1562C66.737 88.3385 67.0078 88.4297 67.3516 88.4297ZM81.4609 87.6641C81.4609 87.388 81.3229 87.1719 81.0469 87.0156C80.776 86.8542 80.3385 86.7109 79.7344 86.5859C77.724 86.1641 76.7188 85.3099 76.7188 84.0234C76.7188 83.2734 77.0286 82.6484 77.6484 82.1484C78.2734 81.6432 79.0885 81.3906 80.0938 81.3906C81.1667 81.3906 82.0234 81.6432 82.6641 82.1484C83.3099 82.6536 83.6328 83.3099 83.6328 84.1172H81.375C81.375 83.7943 81.2708 83.5286 81.0625 83.3203C80.8542 83.1068 80.5286 83 80.0859 83C79.7057 83 79.4115 83.0859 79.2031 83.2578C78.9948 83.4297 78.8906 83.6484 78.8906 83.9141C78.8906 84.1641 79.0078 84.3672 79.2422 84.5234C79.4818 84.6745 79.8828 84.8073 80.4453 84.9219C81.0078 85.0312 81.4818 85.1562 81.8672 85.2969C83.0599 85.7344 83.6562 86.4922 83.6562 87.5703C83.6562 88.3411 83.3255 88.9661 82.6641 89.4453C82.0026 89.9193 81.1484 90.1562 80.1016 90.1562C79.3932 90.1562 78.763 90.0312 78.2109 89.7812C77.6641 89.526 77.2344 89.1797 76.9219 88.7422C76.6094 88.2995 76.4531 87.8229 76.4531 87.3125H78.5938C78.6146 87.7135 78.763 88.0208 79.0391 88.2344C79.3151 88.4479 79.6849 88.5547 80.1484 88.5547C80.5807 88.5547 80.9062 88.474 81.125 88.3125C81.349 88.1458 81.4609 87.9297 81.4609 87.6641ZM90.1797 89.1406C89.6224 89.8177 88.8516 90.1562 87.8672 90.1562C86.9609 90.1562 86.2682 89.8958 85.7891 89.375C85.3151 88.8542 85.0729 88.0911 85.0625 87.0859V81.5469H87.3203V87.0078C87.3203 87.888 87.7214 88.3281 88.5234 88.3281C89.2891 88.3281 89.8151 88.0625 90.1016 87.5312V81.5469H92.3672V90H90.2422L90.1797 89.1406ZM101.688 85.8516C101.688 87.2057 101.398 88.263 100.82 89.0234C100.242 89.7786 99.4349 90.1562 98.3984 90.1562C97.4818 90.1562 96.75 89.8047 96.2031 89.1016L96.1016 90H94.0703V78H96.3281V82.3047C96.849 81.6953 97.5339 81.3906 98.3828 81.3906C99.4141 81.3906 100.221 81.7708 100.805 82.5312C101.393 83.2865 101.688 84.3516 101.688 85.7266V85.8516ZM99.4297 85.6875C99.4297 84.8333 99.2943 84.2109 99.0234 83.8203C98.7526 83.4245 98.349 83.2266 97.8125 83.2266C97.0938 83.2266 96.599 83.5208 96.3281 84.1094V87.4453C96.6042 88.0391 97.1042 88.3359 97.8281 88.3359C98.5573 88.3359 99.0365 87.9766 99.2656 87.2578C99.375 86.9141 99.4297 86.3906 99.4297 85.6875ZM107.664 87.6641C107.664 87.388 107.526 87.1719 107.25 87.0156C106.979 86.8542 106.542 86.7109 105.938 86.5859C103.927 86.1641 102.922 85.3099 102.922 84.0234C102.922 83.2734 103.232 82.6484 103.852 82.1484C104.477 81.6432 105.292 81.3906 106.297 81.3906C107.37 81.3906 108.227 81.6432 108.867 82.1484C109.513 82.6536 109.836 83.3099 109.836 84.1172H107.578C107.578 83.7943 107.474 83.5286 107.266 83.3203C107.057 83.1068 106.732 83 106.289 83C105.909 83 105.615 83.0859 105.406 83.2578C105.198 83.4297 105.094 83.6484 105.094 83.9141C105.094 84.1641 105.211 84.3672 105.445 84.5234C105.685 84.6745 106.086 84.8073 106.648 84.9219C107.211 85.0312 107.685 85.1562 108.07 85.2969C109.263 85.7344 109.859 86.4922 109.859 87.5703C109.859 88.3411 109.529 88.9661 108.867 89.4453C108.206 89.9193 107.352 90.1562 106.305 90.1562C105.596 90.1562 104.966 90.0312 104.414 89.7812C103.867 89.526 103.438 89.1797 103.125 88.7422C102.812 88.2995 102.656 87.8229 102.656 87.3125H104.797C104.818 87.7135 104.966 88.0208 105.242 88.2344C105.518 88.4479 105.888 88.5547 106.352 88.5547C106.784 88.5547 107.109 88.474 107.328 88.3125C107.552 88.1458 107.664 87.9297 107.664 87.6641ZM114.836 88.3359C115.253 88.3359 115.591 88.2214 115.852 87.9922C116.112 87.763 116.247 87.4583 116.258 87.0781H118.375C118.37 87.651 118.214 88.1771 117.906 88.6562C117.599 89.1302 117.177 89.5 116.641 89.7656C116.109 90.026 115.521 90.1562 114.875 90.1562C113.667 90.1562 112.714 89.7734 112.016 89.0078C111.318 88.237 110.969 87.1745 110.969 85.8203V85.6719C110.969 84.3698 111.315 83.3307 112.008 82.5547C112.701 81.7786 113.651 81.3906 114.859 81.3906C115.917 81.3906 116.763 81.6927 117.398 82.2969C118.039 82.8958 118.365 83.6953 118.375 84.6953H116.258C116.247 84.2578 116.112 83.9036 115.852 83.6328C115.591 83.3568 115.247 83.2188 114.82 83.2188C114.294 83.2188 113.896 83.4115 113.625 83.7969C113.359 84.1771 113.227 84.7969 113.227 85.6562V85.8906C113.227 86.7604 113.359 87.3854 113.625 87.7656C113.891 88.1458 114.294 88.3359 114.836 88.3359ZM124.414 83.6641C124.107 83.6224 123.836 83.6016 123.602 83.6016C122.747 83.6016 122.188 83.8906 121.922 84.4688V90H119.664V81.5469H121.797L121.859 82.5547C122.312 81.7786 122.94 81.3906 123.742 81.3906C123.992 81.3906 124.227 81.4245 124.445 81.4922L124.414 83.6641ZM127.891 90H125.625V81.5469H127.891V90ZM125.492 79.3594C125.492 79.0208 125.604 78.7422 125.828 78.5234C126.057 78.3047 126.367 78.1953 126.758 78.1953C127.143 78.1953 127.451 78.3047 127.68 78.5234C127.909 78.7422 128.023 79.0208 128.023 79.3594C128.023 79.7031 127.906 79.9844 127.672 80.2031C127.443 80.4219 127.138 80.5312 126.758 80.5312C126.378 80.5312 126.07 80.4219 125.836 80.2031C125.607 79.9844 125.492 79.7031 125.492 79.3594ZM137.367 85.8516C137.367 87.1536 137.07 88.1979 136.477 88.9844C135.888 89.7656 135.091 90.1562 134.086 90.1562C133.232 90.1562 132.542 89.8594 132.016 89.2656V93.25H129.758V81.5469H131.852L131.93 82.375C132.477 81.7188 133.19 81.3906 134.07 81.3906C135.112 81.3906 135.922 81.776 136.5 82.5469C137.078 83.3177 137.367 84.3802 137.367 85.7344V85.8516ZM135.109 85.6875C135.109 84.901 134.969 84.2943 134.688 83.8672C134.411 83.4401 134.008 83.2266 133.477 83.2266C132.768 83.2266 132.281 83.4974 132.016 84.0391V87.5C132.292 88.0573 132.784 88.3359 133.492 88.3359C134.57 88.3359 135.109 87.4531 135.109 85.6875ZM141.477 79.4688V81.5469H142.922V83.2031H141.477V87.4219C141.477 87.7344 141.536 87.9583 141.656 88.0938C141.776 88.2292 142.005 88.2969 142.344 88.2969C142.594 88.2969 142.815 88.2786 143.008 88.2422V89.9531C142.565 90.0885 142.109 90.1562 141.641 90.1562C140.057 90.1562 139.25 89.3568 139.219 87.7578V83.2031H137.984V81.5469H139.219V79.4688H141.477ZM146.562 90H144.297V81.5469H146.562V90ZM144.164 79.3594C144.164 79.0208 144.276 78.7422 144.5 78.5234C144.729 78.3047 145.039 78.1953 145.43 78.1953C145.815 78.1953 146.122 78.3047 146.352 78.5234C146.581 78.7422 146.695 79.0208 146.695 79.3594C146.695 79.7031 146.578 79.9844 146.344 80.2031C146.115 80.4219 145.81 80.5312 145.43 80.5312C145.049 80.5312 144.742 80.4219 144.508 80.2031C144.279 79.9844 144.164 79.7031 144.164 79.3594ZM148.078 85.6953C148.078 84.8568 148.24 84.1094 148.562 83.4531C148.885 82.7969 149.349 82.2891 149.953 81.9297C150.562 81.5703 151.268 81.3906 152.07 81.3906C153.211 81.3906 154.141 81.7396 154.859 82.4375C155.583 83.1354 155.987 84.0833 156.07 85.2812L156.086 85.8594C156.086 87.1562 155.724 88.1979 155 88.9844C154.276 89.7656 153.305 90.1562 152.086 90.1562C150.867 90.1562 149.893 89.7656 149.164 88.9844C148.44 88.2031 148.078 87.1406 148.078 85.7969V85.6953ZM150.336 85.8594C150.336 86.6615 150.487 87.276 150.789 87.7031C151.091 88.125 151.523 88.3359 152.086 88.3359C152.633 88.3359 153.06 88.1276 153.367 87.7109C153.674 87.2891 153.828 86.6172 153.828 85.6953C153.828 84.9089 153.674 84.2995 153.367 83.8672C153.06 83.4349 152.628 83.2188 152.07 83.2188C151.518 83.2188 151.091 83.4349 150.789 83.8672C150.487 84.2943 150.336 84.9583 150.336 85.8594ZM159.555 81.5469L159.625 82.5234C160.229 81.7682 161.039 81.3906 162.055 81.3906C162.951 81.3906 163.617 81.6536 164.055 82.1797C164.492 82.7057 164.716 83.4922 164.727 84.5391V90H162.469V84.5938C162.469 84.1146 162.365 83.7682 162.156 83.5547C161.948 83.3359 161.602 83.2266 161.117 83.2266C160.482 83.2266 160.005 83.4974 159.688 84.0391V90H157.43V81.5469H159.555ZM168.289 86.5078C168.289 85.7786 168.378 85.1979 168.555 84.7656C168.732 84.3333 169.055 83.9089 169.523 83.4922C169.997 83.0703 170.312 82.7292 170.469 82.4688C170.625 82.2031 170.703 81.9245 170.703 81.6328C170.703 80.7526 170.297 80.3125 169.484 80.3125C169.099 80.3125 168.789 80.4323 168.555 80.6719C168.326 80.9062 168.206 81.2318 168.195 81.6484H165.93C165.94 80.6536 166.26 79.875 166.891 79.3125C167.526 78.75 168.391 78.4688 169.484 78.4688C170.589 78.4688 171.445 78.737 172.055 79.2734C172.664 79.8047 172.969 80.5573 172.969 81.5312C172.969 81.974 172.87 82.3932 172.672 82.7891C172.474 83.1797 172.128 83.6146 171.633 84.0938L171 84.6953C170.604 85.0755 170.378 85.5208 170.32 86.0312L170.289 86.5078H168.289ZM168.062 88.9062C168.062 88.5573 168.18 88.2708 168.414 88.0469C168.654 87.8177 168.958 87.7031 169.328 87.7031C169.698 87.7031 170 87.8177 170.234 88.0469C170.474 88.2708 170.594 88.5573 170.594 88.9062C170.594 89.25 170.477 89.5339 170.242 89.7578C170.013 89.9818 169.708 90.0938 169.328 90.0938C168.948 90.0938 168.641 89.9818 168.406 89.7578C168.177 89.5339 168.062 89.25 168.062 88.9062Z" fill="#181818"/>
<rect x="45" y="115" width="147" height="30" rx="8" fill="#0084FF"/>
<path d="M87.0879 126.893H84.4746V134H82.7168V126.893H80.1387V125.469H87.0879V126.893ZM86.502 130.771C86.502 130.143 86.623 129.582 86.8652 129.09C87.1074 128.598 87.4551 128.217 87.9082 127.947C88.3652 127.678 88.8945 127.543 89.4961 127.543C90.3516 127.543 91.0488 127.805 91.5879 128.328C92.1309 128.852 92.4336 129.562 92.4961 130.461L92.5078 130.895C92.5078 131.867 92.2363 132.648 91.6934 133.238C91.1504 133.824 90.4219 134.117 89.5078 134.117C88.5938 134.117 87.8633 133.824 87.3164 133.238C86.7734 132.652 86.502 131.855 86.502 130.848V130.771ZM88.1953 130.895C88.1953 131.496 88.3086 131.957 88.5352 132.277C88.7617 132.594 89.0859 132.752 89.5078 132.752C89.918 132.752 90.2383 132.596 90.4688 132.283C90.6992 131.967 90.8145 131.463 90.8145 130.771C90.8145 130.182 90.6992 129.725 90.4688 129.4C90.2383 129.076 89.9141 128.914 89.4961 128.914C89.082 128.914 88.7617 129.076 88.5352 129.4C88.3086 129.721 88.1953 130.219 88.1953 130.895ZM93.2871 130.771C93.2871 130.143 93.4082 129.582 93.6504 129.09C93.8926 128.598 94.2402 128.217 94.6934 127.947C95.1504 127.678 95.6797 127.543 96.2812 127.543C97.1367 127.543 97.834 127.805 98.373 128.328C98.916 128.852 99.2188 129.562 99.2812 130.461L99.293 130.895C99.293 131.867 99.0215 132.648 98.4785 133.238C97.9355 133.824 97.207 134.117 96.293 134.117C95.3789 134.117 94.6484 133.824 94.1016 133.238C93.5586 132.652 93.2871 131.855 93.2871 130.848V130.771ZM94.9805 130.895C94.9805 131.496 95.0938 131.957 95.3203 132.277C95.5469 132.594 95.8711 132.752 96.293 132.752C96.7031 132.752 97.0234 132.596 97.2539 132.283C97.4844 131.967 97.5996 131.463 97.5996 130.771C97.5996 130.182 97.4844 129.725 97.2539 129.4C97.0234 129.076 96.6992 128.914 96.2812 128.914C95.8672 128.914 95.5469 129.076 95.3203 129.4C95.0938 129.721 94.9805 130.219 94.9805 130.895ZM106.242 134.117C105.312 134.117 104.555 133.832 103.969 133.262C103.387 132.691 103.096 131.932 103.096 130.982V130.818C103.096 130.182 103.219 129.613 103.465 129.113C103.711 128.609 104.059 128.223 104.508 127.953C104.961 127.68 105.477 127.543 106.055 127.543C106.922 127.543 107.604 127.816 108.1 128.363C108.6 128.91 108.85 129.686 108.85 130.689V131.381H104.812C104.867 131.795 105.031 132.127 105.305 132.377C105.582 132.627 105.932 132.752 106.354 132.752C107.006 132.752 107.516 132.516 107.883 132.043L108.715 132.975C108.461 133.334 108.117 133.615 107.684 133.818C107.25 134.018 106.77 134.117 106.242 134.117ZM106.049 128.914C105.713 128.914 105.439 129.027 105.229 129.254C105.021 129.48 104.889 129.805 104.83 130.227H107.186V130.092C107.178 129.717 107.076 129.428 106.881 129.225C106.686 129.018 106.408 128.914 106.049 128.914ZM112.23 129.553L113.297 127.66H115.107L113.303 130.766L115.184 134H113.367L112.236 132.008L111.111 134H109.289L111.17 130.766L109.371 127.66H111.188L112.23 129.553ZM121.629 130.889C121.629 131.865 121.406 132.648 120.961 133.238C120.52 133.824 119.922 134.117 119.168 134.117C118.527 134.117 118.01 133.895 117.615 133.449V136.438H115.922V127.66H117.492L117.551 128.281C117.961 127.789 118.496 127.543 119.156 127.543C119.938 127.543 120.545 127.832 120.979 128.41C121.412 128.988 121.629 129.785 121.629 130.801V130.889ZM119.936 130.766C119.936 130.176 119.83 129.721 119.619 129.4C119.412 129.08 119.109 128.92 118.711 128.92C118.18 128.92 117.814 129.123 117.615 129.529V132.125C117.822 132.543 118.191 132.752 118.723 132.752C119.531 132.752 119.936 132.09 119.936 130.766ZM125.602 134.117C124.672 134.117 123.914 133.832 123.328 133.262C122.746 132.691 122.455 131.932 122.455 130.982V130.818C122.455 130.182 122.578 129.613 122.824 129.113C123.07 128.609 123.418 128.223 123.867 127.953C124.32 127.68 124.836 127.543 125.414 127.543C126.281 127.543 126.963 127.816 127.459 128.363C127.959 128.91 128.209 129.686 128.209 130.689V131.381H124.172C124.227 131.795 124.391 132.127 124.664 132.377C124.941 132.627 125.291 132.752 125.713 132.752C126.365 132.752 126.875 132.516 127.242 132.043L128.074 132.975C127.82 133.334 127.477 133.615 127.043 133.818C126.609 134.018 126.129 134.117 125.602 134.117ZM125.408 128.914C125.072 128.914 124.799 129.027 124.588 129.254C124.381 129.48 124.248 129.805 124.189 130.227H126.545V130.092C126.537 129.717 126.436 129.428 126.24 129.225C126.045 129.018 125.768 128.914 125.408 128.914ZM130.734 127.66L130.787 128.393C131.24 127.826 131.848 127.543 132.609 127.543C133.281 127.543 133.781 127.74 134.109 128.135C134.438 128.529 134.605 129.119 134.613 129.904V134H132.92V129.945C132.92 129.586 132.842 129.326 132.686 129.166C132.529 129.002 132.27 128.92 131.906 128.92C131.43 128.92 131.072 129.123 130.834 129.529V134H129.141V127.66H130.734ZM139.336 132.248C139.336 132.041 139.232 131.879 139.025 131.762C138.822 131.641 138.494 131.533 138.041 131.439C136.533 131.123 135.779 130.482 135.779 129.518C135.779 128.955 136.012 128.486 136.477 128.111C136.945 127.732 137.557 127.543 138.311 127.543C139.115 127.543 139.758 127.732 140.238 128.111C140.723 128.49 140.965 128.982 140.965 129.588H139.271C139.271 129.346 139.193 129.146 139.037 128.99C138.881 128.83 138.637 128.75 138.305 128.75C138.02 128.75 137.799 128.814 137.643 128.943C137.486 129.072 137.408 129.236 137.408 129.436C137.408 129.623 137.496 129.775 137.672 129.893C137.852 130.006 138.152 130.105 138.574 130.191C138.996 130.273 139.352 130.367 139.641 130.473C140.535 130.801 140.982 131.369 140.982 132.178C140.982 132.756 140.734 133.225 140.238 133.584C139.742 133.939 139.102 134.117 138.316 134.117C137.785 134.117 137.312 134.023 136.898 133.836C136.488 133.645 136.166 133.385 135.932 133.057C135.697 132.725 135.58 132.367 135.58 131.984H137.186C137.201 132.285 137.312 132.516 137.52 132.676C137.727 132.836 138.004 132.916 138.352 132.916C138.676 132.916 138.92 132.855 139.084 132.734C139.252 132.609 139.336 132.447 139.336 132.248ZM143.865 134H142.166V127.66H143.865V134ZM142.066 126.02C142.066 125.766 142.15 125.557 142.318 125.393C142.49 125.229 142.723 125.146 143.016 125.146C143.305 125.146 143.535 125.229 143.707 125.393C143.879 125.557 143.965 125.766 143.965 126.02C143.965 126.277 143.877 126.488 143.701 126.652C143.529 126.816 143.301 126.898 143.016 126.898C142.73 126.898 142.5 126.816 142.324 126.652C142.152 126.488 142.066 126.277 142.066 126.02ZM147.639 131.932L148.816 127.66H150.586L148.447 134H146.83L144.691 127.66H146.461L147.639 131.932ZM154.172 134.117C153.242 134.117 152.484 133.832 151.898 133.262C151.316 132.691 151.025 131.932 151.025 130.982V130.818C151.025 130.182 151.148 129.613 151.395 129.113C151.641 128.609 151.988 128.223 152.438 127.953C152.891 127.68 153.406 127.543 153.984 127.543C154.852 127.543 155.533 127.816 156.029 128.363C156.529 128.91 156.779 129.686 156.779 130.689V131.381H152.742C152.797 131.795 152.961 132.127 153.234 132.377C153.512 132.627 153.861 132.752 154.283 132.752C154.936 132.752 155.445 132.516 155.812 132.043L156.645 132.975C156.391 133.334 156.047 133.615 155.613 133.818C155.18 134.018 154.699 134.117 154.172 134.117ZM153.979 128.914C153.643 128.914 153.369 129.027 153.158 129.254C152.951 129.48 152.818 129.805 152.76 130.227H155.115V130.092C155.107 129.717 155.006 129.428 154.811 129.225C154.615 129.018 154.338 128.914 153.979 128.914Z" fill="white"/>
<path d="M64.7227 168.514H61.3477V172H59.5898V163.469H65.1445V164.893H61.3477V167.096H64.7227V168.514ZM69.4629 167.248C69.2324 167.217 69.0293 167.201 68.8535 167.201C68.2129 167.201 67.793 167.418 67.5938 167.852V172H65.9004V165.66H67.5L67.5469 166.416C67.8867 165.834 68.3574 165.543 68.959 165.543C69.1465 165.543 69.3223 165.568 69.4863 165.619L69.4629 167.248ZM73.084 172.117C72.1543 172.117 71.3965 171.832 70.8105 171.262C70.2285 170.691 69.9375 169.932 69.9375 168.982V168.818C69.9375 168.182 70.0605 167.613 70.3066 167.113C70.5527 166.609 70.9004 166.223 71.3496 165.953C71.8027 165.68 72.3184 165.543 72.8965 165.543C73.7637 165.543 74.4453 165.816 74.9414 166.363C75.4414 166.91 75.6914 167.686 75.6914 168.689V169.381H71.6543C71.709 169.795 71.873 170.127 72.1465 170.377C72.4238 170.627 72.7734 170.752 73.1953 170.752C73.8477 170.752 74.3574 170.516 74.7246 170.043L75.5566 170.975C75.3027 171.334 74.959 171.615 74.5254 171.818C74.0918 172.018 73.6113 172.117 73.084 172.117ZM72.8906 166.914C72.5547 166.914 72.2812 167.027 72.0703 167.254C71.8633 167.48 71.7305 167.805 71.6719 168.227H74.0273V168.092C74.0195 167.717 73.918 167.428 73.7227 167.225C73.5273 167.018 73.25 166.914 72.8906 166.914ZM79.5762 172.117C78.6465 172.117 77.8887 171.832 77.3027 171.262C76.7207 170.691 76.4297 169.932 76.4297 168.982V168.818C76.4297 168.182 76.5527 167.613 76.7988 167.113C77.0449 166.609 77.3926 166.223 77.8418 165.953C78.2949 165.68 78.8105 165.543 79.3887 165.543C80.2559 165.543 80.9375 165.816 81.4336 166.363C81.9336 166.91 82.1836 167.686 82.1836 168.689V169.381H78.1465C78.2012 169.795 78.3652 170.127 78.6387 170.377C78.916 170.627 79.2656 170.752 79.6875 170.752C80.3398 170.752 80.8496 170.516 81.2168 170.043L82.0488 170.975C81.7949 171.334 81.4512 171.615 81.0176 171.818C80.584 172.018 80.1035 172.117 79.5762 172.117ZM79.3828 166.914C79.0469 166.914 78.7734 167.027 78.5625 167.254C78.3555 167.48 78.2227 167.805 78.1641 168.227H80.5195V168.092C80.5117 167.717 80.4102 167.428 80.2148 167.225C80.0195 167.018 79.7422 166.914 79.3828 166.914ZM91.8457 168.889C91.8457 169.865 91.623 170.648 91.1777 171.238C90.7363 171.824 90.1387 172.117 89.3848 172.117C88.7441 172.117 88.2266 171.895 87.832 171.449V174.438H86.1387V165.66H87.709L87.7676 166.281C88.1777 165.789 88.7129 165.543 89.373 165.543C90.1543 165.543 90.7617 165.832 91.1953 166.41C91.6289 166.988 91.8457 167.785 91.8457 168.801V168.889ZM90.1523 168.766C90.1523 168.176 90.0469 167.721 89.8359 167.4C89.6289 167.08 89.3262 166.92 88.9277 166.92C88.3965 166.92 88.0312 167.123 87.832 167.529V170.125C88.0391 170.543 88.4082 170.752 88.9395 170.752C89.748 170.752 90.1523 170.09 90.1523 168.766ZM94.6875 172H92.9883V163H94.6875V172ZM99.7617 172C99.6836 171.848 99.627 171.658 99.5918 171.432C99.1816 171.889 98.6484 172.117 97.9922 172.117C97.3711 172.117 96.8555 171.938 96.4453 171.578C96.0391 171.219 95.8359 170.766 95.8359 170.219C95.8359 169.547 96.084 169.031 96.5801 168.672C97.0801 168.312 97.8008 168.131 98.7422 168.127H99.5215V167.764C99.5215 167.471 99.4453 167.236 99.293 167.061C99.1445 166.885 98.9082 166.797 98.584 166.797C98.2988 166.797 98.0742 166.865 97.9102 167.002C97.75 167.139 97.6699 167.326 97.6699 167.564H95.9766C95.9766 167.197 96.0898 166.857 96.3164 166.545C96.543 166.232 96.8633 165.988 97.2773 165.812C97.6914 165.633 98.1562 165.543 98.6719 165.543C99.4531 165.543 100.072 165.74 100.529 166.135C100.99 166.525 101.221 167.076 101.221 167.787V170.535C101.225 171.137 101.309 171.592 101.473 171.9V172H99.7617ZM98.3613 170.822C98.6113 170.822 98.8418 170.768 99.0527 170.658C99.2637 170.545 99.4199 170.395 99.5215 170.207V169.117H98.8887C98.041 169.117 97.5898 169.41 97.5352 169.996L97.5293 170.096C97.5293 170.307 97.6035 170.48 97.752 170.617C97.9004 170.754 98.1035 170.822 98.3613 170.822ZM104.08 165.66L104.133 166.393C104.586 165.826 105.193 165.543 105.955 165.543C106.627 165.543 107.127 165.74 107.455 166.135C107.783 166.529 107.951 167.119 107.959 167.904V172H106.266V167.945C106.266 167.586 106.188 167.326 106.031 167.166C105.875 167.002 105.615 166.92 105.252 166.92C104.775 166.92 104.418 167.123 104.18 167.529V172H102.486V165.66H104.08ZM114.023 172H112.324V165.66H114.023V172ZM112.225 164.02C112.225 163.766 112.309 163.557 112.477 163.393C112.648 163.229 112.881 163.146 113.174 163.146C113.463 163.146 113.693 163.229 113.865 163.393C114.037 163.557 114.123 163.766 114.123 164.02C114.123 164.277 114.035 164.488 113.859 164.652C113.688 164.816 113.459 164.898 113.174 164.898C112.889 164.898 112.658 164.816 112.482 164.652C112.311 164.488 112.225 164.277 112.225 164.02ZM118.857 170.248C118.857 170.041 118.754 169.879 118.547 169.762C118.344 169.641 118.016 169.533 117.562 169.439C116.055 169.123 115.301 168.482 115.301 167.518C115.301 166.955 115.533 166.486 115.998 166.111C116.467 165.732 117.078 165.543 117.832 165.543C118.637 165.543 119.279 165.732 119.76 166.111C120.244 166.49 120.486 166.982 120.486 167.588H118.793C118.793 167.346 118.715 167.146 118.559 166.99C118.402 166.83 118.158 166.75 117.826 166.75C117.541 166.75 117.32 166.814 117.164 166.943C117.008 167.072 116.93 167.236 116.93 167.436C116.93 167.623 117.018 167.775 117.193 167.893C117.373 168.006 117.674 168.105 118.096 168.191C118.518 168.273 118.873 168.367 119.162 168.473C120.057 168.801 120.504 169.369 120.504 170.178C120.504 170.756 120.256 171.225 119.76 171.584C119.264 171.939 118.623 172.117 117.838 172.117C117.307 172.117 116.834 172.023 116.42 171.836C116.01 171.645 115.688 171.385 115.453 171.057C115.219 170.725 115.102 170.367 115.102 169.984H116.707C116.723 170.285 116.834 170.516 117.041 170.676C117.248 170.836 117.525 170.916 117.873 170.916C118.197 170.916 118.441 170.855 118.605 170.734C118.773 170.609 118.857 170.447 118.857 170.248ZM131.707 167.928C131.707 168.768 131.559 169.504 131.262 170.137C130.965 170.77 130.539 171.258 129.984 171.602C129.434 171.945 128.801 172.117 128.086 172.117C127.379 172.117 126.748 171.947 126.193 171.607C125.639 171.268 125.209 170.783 124.904 170.154C124.6 169.521 124.445 168.795 124.441 167.975V167.553C124.441 166.713 124.592 165.975 124.893 165.338C125.197 164.697 125.625 164.207 126.176 163.867C126.73 163.523 127.363 163.352 128.074 163.352C128.785 163.352 129.416 163.523 129.967 163.867C130.521 164.207 130.949 164.697 131.25 165.338C131.555 165.975 131.707 166.711 131.707 167.547V167.928ZM129.926 167.541C129.926 166.646 129.766 165.967 129.445 165.502C129.125 165.037 128.668 164.805 128.074 164.805C127.484 164.805 127.029 165.035 126.709 165.496C126.389 165.953 126.227 166.625 126.223 167.512V167.928C126.223 168.799 126.383 169.475 126.703 169.955C127.023 170.436 127.484 170.676 128.086 170.676C128.676 170.676 129.129 170.445 129.445 169.984C129.762 169.52 129.922 168.844 129.926 167.957V167.541ZM135.656 168.578L134.742 169.562V172H132.984V163.469H134.742V167.336L135.516 166.275L137.689 163.469H139.852L136.822 167.26L139.939 172H137.848L135.656 168.578ZM143.941 172V166.902H142.998V165.66H143.941V165.121C143.941 164.41 144.145 163.859 144.551 163.469C144.961 163.074 145.533 162.877 146.268 162.877C146.502 162.877 146.789 162.916 147.129 162.994L147.111 164.307C146.971 164.271 146.799 164.254 146.596 164.254C145.959 164.254 145.641 164.553 145.641 165.15V165.66H146.9V166.902H145.641V172H143.941ZM147.516 168.771C147.516 168.143 147.637 167.582 147.879 167.09C148.121 166.598 148.469 166.217 148.922 165.947C149.379 165.678 149.908 165.543 150.51 165.543C151.365 165.543 152.062 165.805 152.602 166.328C153.145 166.852 153.447 167.562 153.51 168.461L153.521 168.895C153.521 169.867 153.25 170.648 152.707 171.238C152.164 171.824 151.436 172.117 150.521 172.117C149.607 172.117 148.877 171.824 148.33 171.238C147.787 170.652 147.516 169.855 147.516 168.848V168.771ZM149.209 168.895C149.209 169.496 149.322 169.957 149.549 170.277C149.775 170.594 150.1 170.752 150.521 170.752C150.932 170.752 151.252 170.596 151.482 170.283C151.713 169.967 151.828 169.463 151.828 168.771C151.828 168.182 151.713 167.725 151.482 167.4C151.252 167.076 150.928 166.914 150.51 166.914C150.096 166.914 149.775 167.076 149.549 167.4C149.322 167.721 149.209 168.219 149.209 168.895ZM158.127 167.248C157.896 167.217 157.693 167.201 157.518 167.201C156.877 167.201 156.457 167.418 156.258 167.852V172H154.564V165.66H156.164L156.211 166.416C156.551 165.834 157.021 165.543 157.623 165.543C157.811 165.543 157.986 165.568 158.15 165.619L158.127 167.248ZM163.523 165.66L163.576 166.369C164.025 165.818 164.633 165.543 165.398 165.543C166.215 165.543 166.775 165.865 167.08 166.51C167.525 165.865 168.16 165.543 168.984 165.543C169.672 165.543 170.184 165.744 170.52 166.146C170.855 166.545 171.023 167.146 171.023 167.951V172H169.324V167.957C169.324 167.598 169.254 167.336 169.113 167.172C168.973 167.004 168.725 166.92 168.369 166.92C167.861 166.92 167.51 167.162 167.314 167.646L167.32 172H165.627V167.963C165.627 167.596 165.555 167.33 165.41 167.166C165.266 167.002 165.02 166.92 164.672 166.92C164.191 166.92 163.844 167.119 163.629 167.518V172H161.936V165.66H163.523ZM175.248 172.117C174.318 172.117 173.561 171.832 172.975 171.262C172.393 170.691 172.102 169.932 172.102 168.982V168.818C172.102 168.182 172.225 167.613 172.471 167.113C172.717 166.609 173.064 166.223 173.514 165.953C173.967 165.68 174.482 165.543 175.061 165.543C175.928 165.543 176.609 165.816 177.105 166.363C177.605 166.91 177.855 167.686 177.855 168.689V169.381H173.818C173.873 169.795 174.037 170.127 174.311 170.377C174.588 170.627 174.938 170.752 175.359 170.752C176.012 170.752 176.521 170.516 176.889 170.043L177.721 170.975C177.467 171.334 177.123 171.615 176.689 171.818C176.256 172.018 175.775 172.117 175.248 172.117ZM175.055 166.914C174.719 166.914 174.445 167.027 174.234 167.254C174.027 167.48 173.895 167.805 173.836 168.227H176.191V168.092C176.184 167.717 176.082 167.428 175.887 167.225C175.691 167.018 175.414 166.914 175.055 166.914Z" fill="#97ADC6"/>
<rect x="46" y="154" width="145" height="28" rx="7" stroke="#97ADC6" stroke-width="2"/>
<path d="M72.0234 210H70.2656V201.469H72.0234V210ZM76.2715 206.783C76.2715 205.795 76.4922 205.008 76.9336 204.422C77.3789 203.836 77.9863 203.543 78.7559 203.543C79.373 203.543 79.8828 203.773 80.2852 204.234V201H81.9844V210H80.4551L80.373 209.326C79.9512 209.854 79.4082 210.117 78.7441 210.117C77.998 210.117 77.3984 209.824 76.9453 209.238C76.4961 208.648 76.2715 207.83 76.2715 206.783ZM77.9648 206.906C77.9648 207.5 78.0684 207.955 78.2754 208.271C78.4824 208.588 78.7832 208.746 79.1777 208.746C79.7012 208.746 80.0703 208.525 80.2852 208.084V205.582C80.0742 205.141 79.709 204.92 79.1895 204.92C78.373 204.92 77.9648 205.582 77.9648 206.906ZM83.0332 206.771C83.0332 206.143 83.1543 205.582 83.3965 205.09C83.6387 204.598 83.9863 204.217 84.4395 203.947C84.8965 203.678 85.4258 203.543 86.0273 203.543C86.8828 203.543 87.5801 203.805 88.1191 204.328C88.6621 204.852 88.9648 205.562 89.0273 206.461L89.0391 206.895C89.0391 207.867 88.7676 208.648 88.2246 209.238C87.6816 209.824 86.9531 210.117 86.0391 210.117C85.125 210.117 84.3945 209.824 83.8477 209.238C83.3047 208.652 83.0332 207.855 83.0332 206.848V206.771ZM84.7266 206.895C84.7266 207.496 84.8398 207.957 85.0664 208.277C85.293 208.594 85.6172 208.752 86.0391 208.752C86.4492 208.752 86.7695 208.596 87 208.283C87.2305 207.967 87.3457 207.463 87.3457 206.771C87.3457 206.182 87.2305 205.725 87 205.4C86.7695 205.076 86.4453 204.914 86.0273 204.914C85.6133 204.914 85.293 205.076 85.0664 205.4C84.8398 205.721 84.7266 206.219 84.7266 206.895ZM91.6406 203.66L91.6934 204.393C92.1465 203.826 92.7539 203.543 93.5156 203.543C94.1875 203.543 94.6875 203.74 95.0156 204.135C95.3438 204.529 95.5117 205.119 95.5195 205.904V210H93.8262V205.945C93.8262 205.586 93.748 205.326 93.5918 205.166C93.4355 205.002 93.1758 204.92 92.8125 204.92C92.3359 204.92 91.9785 205.123 91.7402 205.529V210H90.0469V203.66H91.6406ZM96.5918 204.088L95.7949 203.625C96.1309 203.098 96.3047 202.553 96.3164 201.99V201H97.6641V201.908C97.6641 202.26 97.5664 202.641 97.3711 203.051C97.1758 203.461 96.916 203.807 96.5918 204.088ZM100.887 202.102V203.66H101.971V204.902H100.887V208.066C100.887 208.301 100.932 208.469 101.021 208.57C101.111 208.672 101.283 208.723 101.537 208.723C101.725 208.723 101.891 208.709 102.035 208.682V209.965C101.703 210.066 101.361 210.117 101.01 210.117C99.8223 210.117 99.2168 209.518 99.1934 208.318V204.902H98.2676V203.66H99.1934V202.102H100.887ZM107.689 210H105.99V201H107.689V210ZM110.877 210H109.178V203.66H110.877V210ZM109.078 202.02C109.078 201.766 109.162 201.557 109.33 201.393C109.502 201.229 109.734 201.146 110.027 201.146C110.316 201.146 110.547 201.229 110.719 201.393C110.891 201.557 110.977 201.766 110.977 202.02C110.977 202.277 110.889 202.488 110.713 202.652C110.541 202.816 110.312 202.898 110.027 202.898C109.742 202.898 109.512 202.816 109.336 202.652C109.164 202.488 109.078 202.277 109.078 202.02ZM114.58 207.457L113.971 208.066V210H112.277V201H113.971V205.986L114.299 205.564L115.922 203.66H117.955L115.664 206.303L118.154 210H116.209L114.58 207.457ZM121.488 210.117C120.559 210.117 119.801 209.832 119.215 209.262C118.633 208.691 118.342 207.932 118.342 206.982V206.818C118.342 206.182 118.465 205.613 118.711 205.113C118.957 204.609 119.305 204.223 119.754 203.953C120.207 203.68 120.723 203.543 121.301 203.543C122.168 203.543 122.85 203.816 123.346 204.363C123.846 204.91 124.096 205.686 124.096 206.689V207.381H120.059C120.113 207.795 120.277 208.127 120.551 208.377C120.828 208.627 121.178 208.752 121.6 208.752C122.252 208.752 122.762 208.516 123.129 208.043L123.961 208.975C123.707 209.334 123.363 209.615 122.93 209.818C122.496 210.018 122.016 210.117 121.488 210.117ZM121.295 204.914C120.959 204.914 120.686 205.027 120.475 205.254C120.268 205.48 120.135 205.805 120.076 206.227H122.432V206.092C122.424 205.717 122.322 205.428 122.127 205.225C121.932 205.018 121.654 204.914 121.295 204.914ZM130.078 202.102V203.66H131.162V204.902H130.078V208.066C130.078 208.301 130.123 208.469 130.213 208.57C130.303 208.672 130.475 208.723 130.729 208.723C130.916 208.723 131.082 208.709 131.227 208.682V209.965C130.895 210.066 130.553 210.117 130.201 210.117C129.014 210.117 128.408 209.518 128.385 208.318V204.902H127.459V203.66H128.385V202.102H130.078ZM133.758 204.352C134.207 203.812 134.771 203.543 135.451 203.543C136.826 203.543 137.523 204.342 137.543 205.939V210H135.85V205.986C135.85 205.623 135.771 205.355 135.615 205.184C135.459 205.008 135.199 204.92 134.836 204.92C134.34 204.92 133.98 205.111 133.758 205.494V210H132.064V201H133.758V204.352ZM141.738 210.117C140.809 210.117 140.051 209.832 139.465 209.262C138.883 208.691 138.592 207.932 138.592 206.982V206.818C138.592 206.182 138.715 205.613 138.961 205.113C139.207 204.609 139.555 204.223 140.004 203.953C140.457 203.68 140.973 203.543 141.551 203.543C142.418 203.543 143.1 203.816 143.596 204.363C144.096 204.91 144.346 205.686 144.346 206.689V207.381H140.309C140.363 207.795 140.527 208.127 140.801 208.377C141.078 208.627 141.428 208.752 141.85 208.752C142.502 208.752 143.012 208.516 143.379 208.043L144.211 208.975C143.957 209.334 143.613 209.615 143.18 209.818C142.746 210.018 142.266 210.117 141.738 210.117ZM141.545 204.914C141.209 204.914 140.936 205.027 140.725 205.254C140.518 205.48 140.385 205.805 140.326 206.227H142.682V206.092C142.674 205.717 142.572 205.428 142.377 205.225C142.182 205.018 141.904 204.914 141.545 204.914ZM151.975 210C151.896 209.848 151.84 209.658 151.805 209.432C151.395 209.889 150.861 210.117 150.205 210.117C149.584 210.117 149.068 209.938 148.658 209.578C148.252 209.219 148.049 208.766 148.049 208.219C148.049 207.547 148.297 207.031 148.793 206.672C149.293 206.312 150.014 206.131 150.955 206.127H151.734V205.764C151.734 205.471 151.658 205.236 151.506 205.061C151.357 204.885 151.121 204.797 150.797 204.797C150.512 204.797 150.287 204.865 150.123 205.002C149.963 205.139 149.883 205.326 149.883 205.564H148.189C148.189 205.197 148.303 204.857 148.529 204.545C148.756 204.232 149.076 203.988 149.49 203.812C149.904 203.633 150.369 203.543 150.885 203.543C151.666 203.543 152.285 203.74 152.742 204.135C153.203 204.525 153.434 205.076 153.434 205.787V208.535C153.438 209.137 153.521 209.592 153.686 209.9V210H151.975ZM150.574 208.822C150.824 208.822 151.055 208.768 151.266 208.658C151.477 208.545 151.633 208.395 151.734 208.207V207.117H151.102C150.254 207.117 149.803 207.41 149.748 207.996L149.742 208.096C149.742 208.307 149.816 208.48 149.965 208.617C150.113 208.754 150.316 208.822 150.574 208.822ZM160.441 206.889C160.441 207.865 160.219 208.648 159.773 209.238C159.332 209.824 158.734 210.117 157.98 210.117C157.34 210.117 156.822 209.895 156.428 209.449V212.438H154.734V203.66H156.305L156.363 204.281C156.773 203.789 157.309 203.543 157.969 203.543C158.75 203.543 159.357 203.832 159.791 204.41C160.225 204.988 160.441 205.785 160.441 206.801V206.889ZM158.748 206.766C158.748 206.176 158.643 205.721 158.432 205.4C158.225 205.08 157.922 204.92 157.523 204.92C156.992 204.92 156.627 205.123 156.428 205.529V208.125C156.635 208.543 157.004 208.752 157.535 208.752C158.344 208.752 158.748 208.09 158.748 206.766ZM167.203 206.889C167.203 207.865 166.98 208.648 166.535 209.238C166.094 209.824 165.496 210.117 164.742 210.117C164.102 210.117 163.584 209.895 163.189 209.449V212.438H161.496V203.66H163.066L163.125 204.281C163.535 203.789 164.07 203.543 164.73 203.543C165.512 203.543 166.119 203.832 166.553 204.41C166.986 204.988 167.203 205.785 167.203 206.801V206.889ZM165.51 206.766C165.51 206.176 165.404 205.721 165.193 205.4C164.986 205.08 164.684 204.92 164.285 204.92C163.754 204.92 163.389 205.123 163.189 205.529V208.125C163.396 208.543 163.766 208.752 164.297 208.752C165.105 208.752 165.51 208.09 165.51 206.766Z" fill="#97ADC6"/>
<rect x="46" y="192" width="145" height="28" rx="7" stroke="#97ADC6" stroke-width="2"/>
<path d="M198.111 9.34721H173.46C172.771 9.34919 172.111 9.623 171.624 10.1086C171.137 10.5943 170.864 11.2521 170.864 11.9379V20.8223C170.86 24.042 169.573 27.1285 167.284 29.4045C164.996 31.6804 161.894 32.9598 158.659 32.9618H77.032C73.7969 32.9598 70.6947 31.6804 68.4064 29.4045C66.1181 27.1285 64.8306 24.042 64.8266 20.8223V11.9379C64.8257 11.596 64.7569 11.2578 64.6243 10.9424C64.4918 10.6271 64.298 10.3409 64.0541 10.1003C63.8102 9.85959 63.5209 9.66919 63.2029 9.53997C62.885 9.41075 62.5445 9.34525 62.201 9.34721H38.1954C36.0093 9.34525 33.8443 9.77182 31.8239 10.6026C29.8035 11.4333 27.9673 12.652 26.4202 14.189C24.873 15.7259 23.6452 17.5511 22.8068 19.5604C21.9684 21.5696 21.5359 23.7235 21.5339 25.8991V244H23.7845V25.8991C23.7864 24.0176 24.1607 22.155 24.886 20.4175C25.6113 18.68 26.6734 17.1017 28.0115 15.7727C29.3497 14.4437 30.9378 13.39 32.6851 12.6718C34.4325 11.9537 36.3049 11.585 38.1954 11.587H62.201C62.2945 11.587 62.3842 11.6239 62.4503 11.6898C62.5165 11.7556 62.5536 11.8448 62.5536 11.9379V20.8223C62.5576 24.636 64.0821 28.2922 66.7925 30.9882C69.5029 33.6842 73.1775 35.1996 77.0095 35.2016H158.659C162.491 35.1996 166.165 33.6842 168.876 30.9882C171.586 28.2922 173.111 24.636 173.115 20.8223V11.9379C173.115 11.8461 173.151 11.7579 173.215 11.6924C173.28 11.6268 173.368 11.5889 173.46 11.587H198.111C201.923 11.5909 205.579 13.1001 208.275 15.7833C210.971 18.4664 212.488 22.1045 212.491 25.8991V244H214.742V25.8991C214.736 21.5111 212.982 17.3045 209.864 14.2017C206.747 11.0989 202.52 9.35314 198.111 9.34721Z" fill="#181818"/>
<path d="M138.097 12.4456H97.9029C97.0635 12.4857 96.2718 12.8457 95.692 13.4511C95.1121 14.0564 94.7887 14.8607 94.7887 15.697C94.7887 16.5334 95.1121 17.3376 95.692 17.943C96.2718 18.5483 97.0635 18.9084 97.9029 18.9484H138.097C138.54 18.9695 138.981 18.901 139.396 18.7472C139.811 18.5933 140.19 18.3572 140.511 18.0532C140.831 17.7492 141.086 17.3836 141.261 16.9786C141.435 16.5736 141.525 16.1376 141.525 15.697C141.525 15.2564 141.435 14.8204 141.261 14.4154C141.086 14.0104 140.831 13.6448 140.511 13.3408C140.19 13.0368 139.811 12.8008 139.396 12.6469C138.981 12.493 138.54 12.4245 138.097 12.4456Z" fill="#EDF3FF"/>
<path d="M138.097 10.2059H97.9028C96.4746 10.2583 95.1226 10.8598 94.1308 11.8838C93.1391 12.9079 92.585 14.2748 92.585 15.697C92.585 17.1193 93.1391 18.4862 94.1308 19.5102C95.1226 20.5343 96.4746 21.1358 97.9028 21.1882H138.097C138.839 21.2154 139.579 21.0935 140.272 20.8298C140.965 20.5661 141.598 20.166 142.132 19.6535C142.667 19.1409 143.092 18.5263 143.382 17.8465C143.672 17.1667 143.822 16.4357 143.822 15.697C143.822 14.9584 143.672 14.2273 143.382 13.5475C143.092 12.8678 142.667 12.2532 142.132 11.7406C141.598 11.228 140.965 10.8279 140.272 10.5642C139.579 10.3005 138.839 10.1787 138.097 10.2059ZM138.097 18.9484H97.9028C97.0634 18.9084 96.2717 18.5483 95.6919 17.943C95.1121 17.3376 94.7886 16.5334 94.7886 15.697C94.7886 14.8607 95.1121 14.0565 95.6919 13.4511C96.2717 12.8457 97.0634 12.4857 97.9028 12.4456H138.097C138.539 12.4246 138.981 12.493 139.396 12.6469C139.811 12.8008 140.19 13.0369 140.511 13.3409C140.831 13.6449 141.086 14.0104 141.26 14.4154C141.435 14.8204 141.525 15.2564 141.525 15.697C141.525 16.1376 141.435 16.5736 141.26 16.9786C141.086 17.3836 140.831 17.7492 140.511 18.0532C140.19 18.3572 139.811 18.5933 139.396 18.7472C138.981 18.9011 138.539 18.9695 138.097 18.9484Z" fill="#181818"/>
<rect y="243" width="236" height="2" rx="1" fill="#181818"/>
</svg>
