<svg xmlns="http://www.w3.org/2000/svg" viewBox="0 0 23.69 20.86"><defs><style>.cls-1{fill:#fff;}</style></defs><title>Asset 2</title><g id="Layer_2" data-name="Layer 2"><g id="Layer_1-2" data-name="Layer 1"><path class="cls-1" d="M23.52,18.93,13,.64a1.29,1.29,0,0,0-2.23,0L.17,18.93a1.29,1.29,0,0,0,1.12,1.93H22.4A1.29,1.29,0,0,0,23.52,18.93ZM11.79,6.63a1.21,1.21,0,0,1,1.27,1.3l-.55,5.92a.64.64,0,0,1-.64.58.65.65,0,0,1-.65-.58L10.66,8A1.21,1.21,0,0,1,11.79,6.63Zm.06,11a1.21,1.21,0,1,1,1.21-1.21A1.21,1.21,0,0,1,11.84,17.59Z"/></g></g></svg>