<svg xmlns="http://www.w3.org/2000/svg" viewBox="0 0 28.78 23.95" width="29" height="24"><defs><style>.cls-1{fill:none;stroke:#7b838a;stroke-miterlimit:10;}</style></defs><title>clients_icon</title><g id="Слой_2" data-name="Слой 2"><g id="Layer_11" data-name="Layer 11"><path id="Folder" class="cls-1" d="M23.45,23.45H5.33A4.83,4.83,0,0,1,.5,18.62V.5h9.66l2.42,3.62h15.7v14.5A4.83,4.83,0,0,1,23.45,23.45Z"/><path class="cls-1" d="M17.37,11.13A3,3,0,0,0,14.24,8a3,3,0,0,0-3.12,3.09c0,.35.35,2.06.35,2.06a3,3,0,0,0,2.78,2.75c1.53,0,2.49-1.24,2.78-2.75C17,13.19,17.35,11.48,17.37,11.13Z"/><path class="cls-1" d="M21.81,23.45H6.67L7,20.75a2.17,2.17,0,0,1,1.83-1.62l5.38-1,5.38.95a2.17,2.17,0,0,1,1.83,1.62Z"/></g></g></svg>
