<svg xmlns="http://www.w3.org/2000/svg" viewBox="0 0 420.1 97.21" width="420" height="97"><defs><style>.cls-1{fill:#ffd452;}.cls-2{fill:#71cce0;}.cls-3{fill:#f58e6f;}.cls-4{fill:#74c044;}</style></defs><title>rfp-submitted-bg</title><g id="Layer_2" data-name="Layer 2"><g id="Layer_1-2" data-name="Layer 1"><path class="cls-1" d="M159.41,63.4a6.19,6.19,0,1,1-6.19-6.18A6.19,6.19,0,0,1,159.41,63.4Z"/><path class="cls-1" d="M420.1,8.2A3.09,3.09,0,1,1,417,5.11,3.09,3.09,0,0,1,420.1,8.2Z"/><path class="cls-1" d="M307.3,91a6.18,6.18,0,1,1-6.18-6.19A6.18,6.18,0,0,1,307.3,91Z"/><path class="cls-2" d="M4.2,40.31a2.1,2.1,0,1,1-2.1-2.09A2.1,2.1,0,0,1,4.2,40.31Z"/><path class="cls-2" d="M90.2,8.2a2.1,2.1,0,1,1-2.1-2.1A2.1,2.1,0,0,1,90.2,8.2Z"/><path class="cls-2" d="M191.69,4.2a4.2,4.2,0,1,1-4.2-4.2A4.2,4.2,0,0,1,191.69,4.2Z"/><path class="cls-2" d="M342.87,70.63a2.1,2.1,0,1,1-2.1-2.1A2.1,2.1,0,0,1,342.87,70.63Z"/><circle class="cls-3" cx="108.99" cy="72.72" r="2.74"/><circle class="cls-4" cx="125.44" cy="42.41" r="2.85"/><circle class="cls-4" cx="370.91" cy="53.46" r="1.43"/><circle class="cls-4" cx="90.2" cy="54.89" r="1.43"/><path class="cls-3" d="M306.61,33.44a2.75,2.75,0,1,1-2.74-2.74A2.75,2.75,0,0,1,306.61,33.44Z"/></g></g></svg>
