<svg xmlns="http://www.w3.org/2000/svg" xmlns:xlink="http://www.w3.org/1999/xlink" viewBox="0 0 116.92 120.3" width="117" height="120"><defs><style>.cls-1,.cls-6,.cls-7{fill:none;}.cls-2{clip-path:url(#clip-path);}.cls-3{fill:#f0f3f6;stroke:#d1d2d8;stroke-width:1.41px;}.cls-3,.cls-6,.cls-7{stroke-miterlimit:10;}.cls-4{fill:#a8abb4;}.cls-5{fill:#3a444d;}.cls-6{stroke:#e0e4e4;stroke-width:4px;}.cls-7{stroke:#30b5d6;stroke-width:2px;}.cls-8{fill:#30b5d6;}</style><clipPath id="clip-path"><circle class="cls-1" cx="58.46" cy="58.46" r="56.46"/></clipPath></defs><title>rfp-submitted-info</title><g id="Layer_2" data-name="Layer 2"><g id="Layer_1-2" data-name="Layer 1"><g class="cls-2"><rect class="cls-3" x="22.49" y="35.7" width="73.32" height="83.89"/></g><rect class="cls-4" x="30.59" y="46.12" width="23.72" height="1.74" rx="0.87" ry="0.87"/><rect class="cls-4" x="30.59" y="55.95" width="23.72" height="1.74" rx="0.87" ry="0.87"/><rect class="cls-4" x="62.41" y="46.12" width="23.72" height="1.74" rx="0.87" ry="0.87"/><rect class="cls-4" x="62.41" y="55.95" width="23.72" height="1.74" rx="0.87" ry="0.87"/><rect class="cls-4" x="30.59" y="65.79" width="23.72" height="1.74" rx="0.87" ry="0.87"/><rect class="cls-4" x="30.59" y="75.62" width="23.72" height="1.74" rx="0.87" ry="0.87"/><rect class="cls-4" x="30.59" y="85.46" width="23.72" height="1.74" rx="0.87" ry="0.87"/><rect class="cls-4" x="30.59" y="95.29" width="23.72" height="1.74" rx="0.87" ry="0.87"/><rect class="cls-4" x="62.41" y="65.79" width="9.84" height="1.74" rx="0.87" ry="0.87"/><rect class="cls-5" x="62.41" y="75.62" width="9.84" height="1.74" rx="0.87" ry="0.87"/><rect class="cls-4" x="62.41" y="85.46" width="9.84" height="1.74" rx="0.87" ry="0.87"/><rect class="cls-4" x="62.41" y="95.29" width="9.84" height="1.74" rx="0.87" ry="0.87"/><rect class="cls-4" x="75.72" y="65.79" width="9.84" height="1.74" rx="0.87" ry="0.87"/><rect class="cls-4" x="75.72" y="75.62" width="9.84" height="1.74" rx="0.87" ry="0.87"/><rect class="cls-4" x="75.72" y="85.46" width="9.84" height="1.74" rx="0.87" ry="0.87"/><rect class="cls-4" x="75.72" y="95.29" width="9.84" height="1.74" rx="0.87" ry="0.87"/><rect class="cls-5" x="30.59" y="46.12" width="23.72" height="1.74" rx="0.87" ry="0.87"/><circle class="cls-6" cx="58.46" cy="58.46" r="56.46"/><circle class="cls-7" cx="67.47" cy="75.87" r="13.16"/><rect class="cls-8" x="73.22" y="88.2" width="22.67" height="7.66" rx="3.83" ry="3.83" transform="translate(89.84 -32.83) rotate(45)"/></g></g></svg>
