<svg xmlns="http://www.w3.org/2000/svg" width="18" height="13" viewBox="0 0 18 13">
    <g fill="none" fill-rule="evenodd">
        <path fill="#3A444D" d="M17.102 7.018l-.403.459c-1.687 1.925-3.28 3.742-5.856 4.336a6.99 6.99 0 0 1-1.577.184c-2.48 0-4.446-1.4-6.26-2.873-.513-.417-.97-.905-1.412-1.378-.22-.234-.435-.465-.654-.685-.201-.201-.215-.4-.019-.624C2.746 4.344 4.508 2.349 7.274 1.64c.241-.062.502-.122.797-.147.212-.019.389-.02.595-.029h.293c2.994.03 4.947 1.726 7.014 3.75.253.247.487.518.714.78.144.166.272.314.404.459.175.192.178.376.011.565M14.625 3.02C12.978 1.57 10.98.813 8.957.813c-.943 0-1.891.164-2.812.5C3.66 2.22 1.975 4.25.191 6.401l-.096.116c-.133.161-.126.306.022.471.168.186.332.377.496.567l.06.069c.39.456.796.926 1.243 1.344 2.028 1.889 4.094 3.586 7.077 3.615h.09c.952.01 1.541.003 2.379-.227 2.697-.736 4.593-2.976 6.456-5.404.121-.158.11-.28-.046-.483a23.779 23.779 0 0 0-3.247-3.449"/>
        <path fill="#5578BF" d="M11.23 8.907a3.123 3.123 0 0 1-2.216.933c-1.725 0-3.123-1.375-3.133-3.066-.005-.84.32-1.628.915-2.22a3.127 3.127 0 0 1 2.222-.916 3.125 3.125 0 0 1 3.106 3.071 3.054 3.054 0 0 1-.894 2.198M9.02 3.02h-.008a3.747 3.747 0 0 0-2.657 1.085 3.68 3.68 0 0 0-1.097 2.634c-.003 2.048 1.668 3.718 3.723 3.725a3.748 3.748 0 0 0 2.661-1.084 3.687 3.687 0 0 0 1.104-2.638A3.734 3.734 0 0 0 9.02 3.02"/>
        <path fill="#3A444D" d="M9.01 5.34c-.766 0-1.387.618-1.387 1.378 0 .76.621 1.378 1.387 1.378s1.388-.618 1.388-1.378c0-.76-.622-1.378-1.388-1.378"/>
    </g>
</svg>
