<svg xmlns="http://www.w3.org/2000/svg" width="15" height="18" viewBox="0 0 15 18">
    <g fill="none" fill-rule="evenodd">
        <path fill="#3A444D" d="M4.09 5.01v-.3a3.189 3.189 0 0 1 3.186-3.186A3.189 3.189 0 0 1 10.46 4.71v.3h-6.37zm-.667 1.627h-.346a.4.4 0 0 0 0 .799h1.398a.4.4 0 0 0 0-.799H4.09v-.96h6.37v.96h-.39a.4.4 0 0 0 0 .799h1.397a.4.4 0 0 0 0-.799h-.34v-.96h.83c.647 0 1.154.523 1.156 1.195l.872 9.21a1.16 1.16 0 0 1-1.154 1.165H1.822c-.625 0-1.154-.512-1.156-1.113l.876-9.314a1.152 1.152 0 0 1 1.155-1.144h.726v.961zm10.357.189a1.824 1.824 0 0 0-1.822-1.817h-.83v-.3A3.856 3.856 0 0 0 7.276.857 3.857 3.857 0 0 0 3.423 4.71v.3h-.727a1.82 1.82 0 0 0-1.287.53 1.748 1.748 0 0 0-.533 1.25L0 16.103c0 .999.817 1.812 1.822 1.812h11.01c.484 0 .938-.189 1.28-.531.35-.349.54-.82.54-1.331l-.872-9.226z"/>
        <path fill="#3A444D" d="M7.282 9.09a2.766 2.766 0 0 1 2.762 2.763 2.766 2.766 0 0 1-2.762 2.763 2.766 2.766 0 0 1-2.763-2.763 2.766 2.766 0 0 1 2.763-2.762m0 6.201a3.443 3.443 0 0 0 3.438-3.439 3.443 3.443 0 0 0-3.438-3.438 3.443 3.443 0 0 0-3.44 3.438 3.443 3.443 0 0 0 3.44 3.44"/>
        <path fill="#09C" d="M8.845 11.499H7.618v-1.228a.346.346 0 0 0-.691 0v1.228H5.699a.345.345 0 0 0 0 .69h1.228v1.228a.346.346 0 1 0 .69 0V12.19h1.228a.346.346 0 0 0 0-.69"/>
    </g>
</svg>
