<svg xmlns="http://www.w3.org/2000/svg" xmlns:xlink="http://www.w3.org/1999/xlink" width="1280" height="241" viewBox="0 0 1280 241">
    <defs>
        <path id="a" d="M.589.412h10.5v240H.588z"/>
        <path id="c" d="M.589.412h20.509v240H.589z"/>
        <path id="e" d="M.589.412h30.518v240H.589z"/>
        <path id="g" d="M.589.412h40.527v240H.59z"/>
        <path id="i" d="M.589.412h50.537v240H.589z"/>
        <path id="k" d="M.589.412h60.546v240H.589z"/>
        <path id="m" d="M.589.412h70.555v240H.589z"/>
        <path id="o" d="M.589.412h80.564v240H.59z"/>
        <path id="q" d="M.589.412h90.574v240H.589z"/>
        <path id="s" d="M.589.412h100.583v240H.589z"/>
        <path id="u" d="M.589.412h110.592v240H.59z"/>
        <path id="w" d="M.589.412H121.19v240H.59z"/>
        <path id="y" d="M.589.412h130.61v240H.59z"/>
        <path id="A" d="M.589.412h140.62v240H.589z"/>
        <path id="C" d="M.589.412h150.63v240H.588z"/>
        <path id="E" d="M.589.412h160.639v240H.589z"/>
        <path id="G" d="M.589.412h170.648v240H.59z"/>
        <path id="I" d="M.589.412h180.657v240H.59z"/>
        <path id="K" d="M.589.412h190.667v240H.589z"/>
        <path id="M" d="M.589.412h200.676v240H.589z"/>
        <path id="O" d="M.589.412h210.685v240H.59z"/>
        <path id="Q" d="M.589.412h220.694v240H.59z"/>
        <path id="S" d="M.589.412h230.704v240H.589z"/>
        <path id="U" d="M.589.412h240.713v240H.589z"/>
        <path id="W" d="M.589.412h250.722v240H.59z"/>
        <path id="Y" d="M.589.412h260.732v240H.589z"/>
        <path id="aa" d="M.589.412h270.74v240H.59z"/>
        <path id="ac" d="M.589.412h280.75v240H.59z"/>
        <path id="ae" d="M.589.412h290.76v240H.588z"/>
        <path id="ag" d="M.589.412h300.769v240H.589z"/>
        <path id="ai" d="M.589.412h310.778v240H.589z"/>
        <path id="ak" d="M.376.412h316v240h-316z"/>
        <path id="am" d="M.386.412h316v240h-316z"/>
        <path id="ao" d="M.395.412h316v240h-316z"/>
        <path id="aq" d="M.404.412h316v240h-316z"/>
        <path id="as" d="M.413.412h316v240h-316z"/>
        <path id="au" d="M.423.412h316v240h-316z"/>
        <path id="aw" d="M.432.412h316v240h-316z"/>
        <path id="ay" d="M.441.412h316v240h-316z"/>
        <path id="aA" d="M.45.412h316v240H.45z"/>
        <path id="aC" d="M.46.412h316v240H.46z"/>
        <path id="aE" d="M.469.412h316v240h-316z"/>
        <path id="aG" d="M.478.412h316v240h-316z"/>
        <path id="aI" d="M.487.412h316v240h-316z"/>
        <path id="aK" d="M.497.412h316v240h-316z"/>
        <path id="aM" d="M.506.412h316v240h-316z"/>
        <path id="aO" d="M.516.412h316v240h-316z"/>
        <path id="aQ" d="M.525.412h316v240h-316z"/>
        <path id="aS" d="M.534.412h316v240h-316z"/>
        <path id="aU" d="M.543.412h316v240h-316z"/>
        <path id="aW" d="M.553.412h316v240h-316z"/>
        <path id="aY" d="M.562.412h316v240h-316z"/>
        <path id="ba" d="M.571.412h316v240h-316z"/>
        <path id="bc" d="M.58.412h316v240H.58z"/>
        <path id="be" d="M.59.412h316v240H.59z"/>
        <path id="bg" d="M.6.412h316v240H.6z"/>
        <path id="bi" d="M.608.412h316v240h-316z"/>
        <path id="bk" d="M.618.412h316v240h-316z"/>
        <path id="bm" d="M.627.412h316v240h-316z"/>
        <path id="bo" d="M.636.412h316v240h-316z"/>
        <path id="bq" d="M.645.412h316v240h-316z"/>
        <path id="bs" d="M.655.412h316v240h-316z"/>
        <path id="bu" d="M.664.412h316v240h-316z"/>
        <path id="bw" d="M.673.412h316v240h-316z"/>
        <path id="by" d="M.683.412h316v240h-316z"/>
        <path id="bA" d="M.692.412h316v240h-316z"/>
        <path id="bC" d="M.701.412h316v240h-316z"/>
        <path id="bE" d="M.71.412h316v240H.71z"/>
        <path id="bG" d="M.72.412h316v240H.72z"/>
        <path id="bI" d="M.729.412h316v240h-316z"/>
        <path id="bK" d="M.738.412h316v240h-316z"/>
        <path id="bM" d="M.748.412h316v240h-316z"/>
        <path id="bO" d="M.757.412h316v240h-316z"/>
        <path id="bQ" d="M.766.412h316v240h-316z"/>
        <path id="bS" d="M.775.412h316v240h-316z"/>
        <path id="bU" d="M.785.412h316v240h-316z"/>
        <path id="bW" d="M.794.412h316v240h-316z"/>
        <path id="bY" d="M.803.412h316v240h-316z"/>
        <path id="ca" d="M.813.412h316v240h-316z"/>
        <path id="cc" d="M.822.412h316v240h-316z"/>
        <path id="ce" d="M.831.412h316v240h-316z"/>
        <path id="cg" d="M.84.412h316v240H.84z"/>
        <path id="ci" d="M.85.412h316v240H.85z"/>
        <path id="ck" d="M.859.412h316v240h-316z"/>
        <path id="cm" d="M.868.412h316v240h-316z"/>
        <path id="co" d="M.877.412h316v240h-316z"/>
        <path id="cq" d="M.887.412h316v240h-316z"/>
        <path id="cs" d="M.896.412h316v240h-316z"/>
        <path id="cu" d="M.906.412h316v240h-316z"/>
        <path id="cw" d="M.915.412h316v240h-316z"/>
        <path id="cy" d="M.924.412h316v240h-316z"/>
        <path id="cA" d="M.934.412h316v240h-316z"/>
        <path id="cC" d="M.943.412h316v240h-316z"/>
        <path id="cE" d="M.952.412h316v240h-316z"/>
        <path id="cG" d="M.961.412h316v240h-316z"/>
        <path id="cI" d="M.97.412h316v240H.97z"/>
        <path id="cK" d="M.98.412h316v240H.98z"/>
        <path id="cM" d="M.99.412h316v240H.99z"/>
        <path id="cO" d="M.999.412h316v240h-316z"/>
        <path id="cQ" d="M.008.412h316v240h-316z"/>
        <path id="cS" d="M.017.412h316v240h-316z"/>
        <path id="cU" d="M.026.412h316v240h-316z"/>
        <path id="cW" d="M.036.412h316v240h-316z"/>
        <path id="cY" d="M.045.412h316v240h-316z"/>
        <path id="da" d="M.054.412h316v240h-316z"/>
        <path id="dc" d="M.064.412h316v240h-316z"/>
        <path id="de" d="M.073.412h316v240h-316z"/>
        <path id="dg" d="M.082.412h316v240h-316z"/>
        <path id="di" d="M.091.412h316v240h-316z"/>
        <path id="dk" d="M.1.412h316v240H.1z"/>
        <path id="dm" d="M.11.412h316v240H.11z"/>
        <path id="do" d="M.12.412h316v240H.12z"/>
        <path id="dq" d="M.128.412h316v240h-316z"/>
        <path id="ds" d="M.138.412h316v240h-316z"/>
        <path id="du" d="M.147.412h316v240h-316z"/>
        <path id="dw" d="M.156.412h316v240h-316z"/>
        <path id="dy" d="M.166.412h316v240h-316z"/>
        <path id="dA" d="M.175.412h316v240h-316z"/>
        <path id="dC" d="M.184.412h316v240h-316z"/>
        <path id="dE" d="M.193.412h316v240h-316z"/>
        <path id="dG" d="M.203.412h316v240h-316z"/>
        <path id="dI" d="M.212.412h316v240h-316z"/>
        <path id="dK" d="M.221.412h316v240h-316z"/>
        <path id="dM" d="M.23.412h316v240H.23z"/>
        <path id="dO" d="M.24.412h316v240H.24z"/>
        <path id="dQ" d="M.249.412h316v240h-316z"/>
        <path id="dS" d="M.258.412h316v240h-316z"/>
        <path id="dU" d="M.268.412h313.321v240H.268z"/>
        <path id="dW" d="M.277.412h303.312v240H.277z"/>
        <path id="dY" d="M.286.412H293.59v240H.286z"/>
        <path id="ea" d="M.295.412H283.59v240H.295z"/>
        <path id="ec" d="M.305.412h273.284v240H.305z"/>
        <path id="ee" d="M.314.412h263.275v240H.314z"/>
        <path id="eg" d="M.323.412H253.59v240H.323z"/>
        <path id="ei" d="M.333.412h243.256v240H.333z"/>
        <path id="ek" d="M.342.412h233.247v240H.342z"/>
        <path id="em" d="M.351.412H223.59v240H.351z"/>
        <path id="eo" d="M.36.412H213.59v240H.36z"/>
        <path id="eq" d="M.37.412h203.219v240H.369z"/>
        <path id="es" d="M.379.412h193.21v240H.379z"/>
        <path id="eu" d="M.388.412H183.59v240H.389z"/>
        <path id="ew" d="M.398.412h173.191v240H.398z"/>
        <path id="ey" d="M.407.412h163.182v240H.407z"/>
        <path id="eA" d="M.416.412h153.173v240H.416z"/>
        <path id="eC" d="M.425.412H143.59v240H.425z"/>
        <path id="eE" d="M.435.412h133.154v240H.435z"/>
        <path id="eG" d="M.444.412H123.59v240H.444z"/>
        <path id="eI" d="M.454.412h113.135v240H.454z"/>
        <path id="eK" d="M.463.412h103.126v240H.463z"/>
        <path id="eM" d="M.472.412H93.59v240H.472z"/>
        <path id="eO" d="M.481.412H83.59v240H.481z"/>
        <path id="eQ" d="M.49.412H73.59v240H.491z"/>
        <path id="eS" d="M.5.412h63.089v240H.5z"/>
        <path id="eU" d="M.51.412h53.079v240H.509z"/>
        <path id="eW" d="M.519.412h43.07v240H.519z"/>
        <path id="eY" d="M.528.412h33.061v240H.528z"/>
        <path id="fa" d="M.537.412H23.59v240H.537z"/>
        <path id="fc" d="M.546.412H13.59v240H.546z"/>
        <path id="fe" d="M.556.412h3.033v240H.556z"/>
    </defs>
    <g fill="none" fill-rule="evenodd">
        <g>
            <mask id="b" fill="#fff">
                <use xlink:href="#a"/>
            </mask>
            <path stroke="#A0A0A0" stroke-width=".25" d="M11.088-43.088l-316 316" mask="url(#b)"/>
        </g>
        <g>
            <mask id="d" fill="#fff">
                <use xlink:href="#c"/>
            </mask>
            <path stroke="#A0A0A0" stroke-width=".25" d="M21.098-43.088l-316 316" mask="url(#d)"/>
        </g>
        <g>
            <mask id="f" fill="#fff">
                <use xlink:href="#e"/>
            </mask>
            <path stroke="#A0A0A0" stroke-width=".25" d="M31.107-43.088l-316 316" mask="url(#f)"/>
        </g>
        <g>
            <mask id="h" fill="#fff">
                <use xlink:href="#g"/>
            </mask>
            <path stroke="#A0A0A0" stroke-width=".25" d="M41.116-43.088l-316 316" mask="url(#h)"/>
        </g>
        <g>
            <mask id="j" fill="#fff">
                <use xlink:href="#i"/>
            </mask>
            <path stroke="#A0A0A0" stroke-width=".25" d="M51.126-43.088l-316 316" mask="url(#j)"/>
        </g>
        <g>
            <mask id="l" fill="#fff">
                <use xlink:href="#k"/>
            </mask>
            <path stroke="#A0A0A0" stroke-width=".25" d="M61.135-43.088l-316 316" mask="url(#l)"/>
        </g>
        <g>
            <mask id="n" fill="#fff">
                <use xlink:href="#m"/>
            </mask>
            <path stroke="#A0A0A0" stroke-width=".25" d="M71.144-43.088l-316 316" mask="url(#n)"/>
        </g>
        <g>
            <mask id="p" fill="#fff">
                <use xlink:href="#o"/>
            </mask>
            <path stroke="#A0A0A0" stroke-width=".25" d="M81.153-43.088l-316 316" mask="url(#p)"/>
        </g>
        <g>
            <mask id="r" fill="#fff">
                <use xlink:href="#q"/>
            </mask>
            <path stroke="#A0A0A0" stroke-width=".25" d="M91.163-43.088l-316 316" mask="url(#r)"/>
        </g>
        <g>
            <mask id="t" fill="#fff">
                <use xlink:href="#s"/>
            </mask>
            <path stroke="#A0A0A0" stroke-width=".25" d="M101.172-43.088l-316 316" mask="url(#t)"/>
        </g>
        <g>
            <mask id="v" fill="#fff">
                <use xlink:href="#u"/>
            </mask>
            <path stroke="#A0A0A0" stroke-width=".25" d="M111.181-43.088l-316 316" mask="url(#v)"/>
        </g>
        <g>
            <mask id="x" fill="#fff">
                <use xlink:href="#w"/>
            </mask>
            <path stroke="#A0A0A0" stroke-width=".25" d="M121.19-43.088l-316 316" mask="url(#x)"/>
        </g>
        <g>
            <mask id="z" fill="#fff">
                <use xlink:href="#y"/>
            </mask>
            <path stroke="#A0A0A0" stroke-width=".25" d="M131.2-43.088l-316 316" mask="url(#z)"/>
        </g>
        <g>
            <mask id="B" fill="#fff">
                <use xlink:href="#A"/>
            </mask>
            <path stroke="#A0A0A0" stroke-width=".25" d="M141.209-43.088l-316 316" mask="url(#B)"/>
        </g>
        <g>
            <mask id="D" fill="#fff">
                <use xlink:href="#C"/>
            </mask>
            <path stroke="#A0A0A0" stroke-width=".25" d="M151.218-43.088l-316 316" mask="url(#D)"/>
        </g>
        <g>
            <mask id="F" fill="#fff">
                <use xlink:href="#E"/>
            </mask>
            <path stroke="#A0A0A0" stroke-width=".25" d="M161.228-43.088l-316 316" mask="url(#F)"/>
        </g>
        <g>
            <mask id="H" fill="#fff">
                <use xlink:href="#G"/>
            </mask>
            <path stroke="#A0A0A0" stroke-width=".25" d="M171.237-43.088l-316 316" mask="url(#H)"/>
        </g>
        <g>
            <mask id="J" fill="#fff">
                <use xlink:href="#I"/>
            </mask>
            <path stroke="#A0A0A0" stroke-width=".25" d="M181.246-43.088l-316 316" mask="url(#J)"/>
        </g>
        <g>
            <mask id="L" fill="#fff">
                <use xlink:href="#K"/>
            </mask>
            <path stroke="#A0A0A0" stroke-width=".25" d="M191.256-43.088l-316 316" mask="url(#L)"/>
        </g>
        <g>
            <mask id="N" fill="#fff">
                <use xlink:href="#M"/>
            </mask>
            <path stroke="#A0A0A0" stroke-width=".25" d="M201.265-43.088l-316 316" mask="url(#N)"/>
        </g>
        <g>
            <mask id="P" fill="#fff">
                <use xlink:href="#O"/>
            </mask>
            <path stroke="#A0A0A0" stroke-width=".25" d="M211.274-43.088l-316 316" mask="url(#P)"/>
        </g>
        <g>
            <mask id="R" fill="#fff">
                <use xlink:href="#Q"/>
            </mask>
            <path stroke="#A0A0A0" stroke-width=".25" d="M221.283-43.088l-316 316" mask="url(#R)"/>
        </g>
        <g>
            <mask id="T" fill="#fff">
                <use xlink:href="#S"/>
            </mask>
            <path stroke="#A0A0A0" stroke-width=".25" d="M231.293-43.088l-316 316" mask="url(#T)"/>
        </g>
        <g>
            <mask id="V" fill="#fff">
                <use xlink:href="#U"/>
            </mask>
            <path stroke="#A0A0A0" stroke-width=".25" d="M241.302-43.088l-316 316" mask="url(#V)"/>
        </g>
        <g>
            <mask id="X" fill="#fff">
                <use xlink:href="#W"/>
            </mask>
            <path stroke="#A0A0A0" stroke-width=".25" d="M251.311-43.088l-316 316" mask="url(#X)"/>
        </g>
        <g>
            <mask id="Z" fill="#fff">
                <use xlink:href="#Y"/>
            </mask>
            <path stroke="#A0A0A0" stroke-width=".25" d="M261.32-43.088l-316 316" mask="url(#Z)"/>
        </g>
        <g>
            <mask id="ab" fill="#fff">
                <use xlink:href="#aa"/>
            </mask>
            <path stroke="#A0A0A0" stroke-width=".25" d="M271.33-43.088l-316 316" mask="url(#ab)"/>
        </g>
        <g>
            <mask id="ad" fill="#fff">
                <use xlink:href="#ac"/>
            </mask>
            <path stroke="#A0A0A0" stroke-width=".25" d="M281.34-43.088l-316 316" mask="url(#ad)"/>
        </g>
        <g>
            <mask id="af" fill="#fff">
                <use xlink:href="#ae"/>
            </mask>
            <path stroke="#A0A0A0" stroke-width=".25" d="M291.348-43.088l-316 316" mask="url(#af)"/>
        </g>
        <g>
            <mask id="ah" fill="#fff">
                <use xlink:href="#ag"/>
            </mask>
            <path stroke="#A0A0A0" stroke-width=".25" d="M301.358-43.088l-316 316" mask="url(#ah)"/>
        </g>
        <g>
            <mask id="aj" fill="#fff">
                <use xlink:href="#ai"/>
            </mask>
            <path stroke="#A0A0A0" stroke-width=".25" d="M311.367-43.088l-316 316" mask="url(#aj)"/>
        </g>
        <g transform="translate(5)">
            <mask id="al" fill="#fff">
                <use xlink:href="#ak"/>
            </mask>
            <path stroke="#A0A0A0" stroke-width=".25" d="M316.376-43.088l-316 316" mask="url(#al)"/>
        </g>
        <g transform="translate(15)">
            <mask id="an" fill="#fff">
                <use xlink:href="#am"/>
            </mask>
            <path stroke="#A0A0A0" stroke-width=".25" d="M316.385-43.088l-316 316" mask="url(#an)"/>
        </g>
        <g transform="translate(25)">
            <mask id="ap" fill="#fff">
                <use xlink:href="#ao"/>
            </mask>
            <path stroke="#A0A0A0" stroke-width=".25" d="M316.395-43.088l-316 316" mask="url(#ap)"/>
        </g>
        <g transform="translate(35)">
            <mask id="ar" fill="#fff">
                <use xlink:href="#aq"/>
            </mask>
            <path stroke="#A0A0A0" stroke-width=".25" d="M316.404-43.088l-316 316" mask="url(#ar)"/>
        </g>
        <g transform="translate(45)">
            <mask id="at" fill="#fff">
                <use xlink:href="#as"/>
            </mask>
            <path stroke="#A0A0A0" stroke-width=".25" d="M316.413-43.088l-316 316" mask="url(#at)"/>
        </g>
        <g transform="translate(55)">
            <mask id="av" fill="#fff">
                <use xlink:href="#au"/>
            </mask>
            <path stroke="#A0A0A0" stroke-width=".25" d="M316.423-43.088l-316 316" mask="url(#av)"/>
        </g>
        <g transform="translate(65)">
            <mask id="ax" fill="#fff">
                <use xlink:href="#aw"/>
            </mask>
            <path stroke="#A0A0A0" stroke-width=".25" d="M316.432-43.088l-316 316" mask="url(#ax)"/>
        </g>
        <g transform="translate(75)">
            <mask id="az" fill="#fff">
                <use xlink:href="#ay"/>
            </mask>
            <path stroke="#A0A0A0" stroke-width=".25" d="M316.441-43.088l-316 316" mask="url(#az)"/>
        </g>
        <g transform="translate(85)">
            <mask id="aB" fill="#fff">
                <use xlink:href="#aA"/>
            </mask>
            <path stroke="#A0A0A0" stroke-width=".25" d="M316.45-43.088l-316 316" mask="url(#aB)"/>
        </g>
        <g transform="translate(95)">
            <mask id="aD" fill="#fff">
                <use xlink:href="#aC"/>
            </mask>
            <path stroke="#A0A0A0" stroke-width=".25" d="M316.46-43.088l-316 316" mask="url(#aD)"/>
        </g>
        <g transform="translate(105)">
            <mask id="aF" fill="#fff">
                <use xlink:href="#aE"/>
            </mask>
            <path stroke="#A0A0A0" stroke-width=".25" d="M316.469-43.088l-316 316" mask="url(#aF)"/>
        </g>
        <g transform="translate(115)">
            <mask id="aH" fill="#fff">
                <use xlink:href="#aG"/>
            </mask>
            <path stroke="#A0A0A0" stroke-width=".25" d="M316.478-43.088l-316 316" mask="url(#aH)"/>
        </g>
        <g transform="translate(125)">
            <mask id="aJ" fill="#fff">
                <use xlink:href="#aI"/>
            </mask>
            <path stroke="#A0A0A0" stroke-width=".25" d="M316.488-43.088l-316 316" mask="url(#aJ)"/>
        </g>
        <g transform="translate(135)">
            <mask id="aL" fill="#fff">
                <use xlink:href="#aK"/>
            </mask>
            <path stroke="#A0A0A0" stroke-width=".25" d="M316.497-43.088l-316 316" mask="url(#aL)"/>
        </g>
        <g transform="translate(145)">
            <mask id="aN" fill="#fff">
                <use xlink:href="#aM"/>
            </mask>
            <path stroke="#A0A0A0" stroke-width=".25" d="M316.506-43.088l-316 316" mask="url(#aN)"/>
        </g>
        <g transform="translate(155)">
            <mask id="aP" fill="#fff">
                <use xlink:href="#aO"/>
            </mask>
            <path stroke="#A0A0A0" stroke-width=".25" d="M316.516-43.088l-316 316" mask="url(#aP)"/>
        </g>
        <g transform="translate(165)">
            <mask id="aR" fill="#fff">
                <use xlink:href="#aQ"/>
            </mask>
            <path stroke="#A0A0A0" stroke-width=".25" d="M316.525-43.088l-316 316" mask="url(#aR)"/>
        </g>
        <g transform="translate(175)">
            <mask id="aT" fill="#fff">
                <use xlink:href="#aS"/>
            </mask>
            <path stroke="#A0A0A0" stroke-width=".25" d="M316.534-43.088l-316 316" mask="url(#aT)"/>
        </g>
        <g transform="translate(185)">
            <mask id="aV" fill="#fff">
                <use xlink:href="#aU"/>
            </mask>
            <path stroke="#A0A0A0" stroke-width=".25" d="M316.543-43.088l-316 316" mask="url(#aV)"/>
        </g>
        <g transform="translate(195)">
            <mask id="aX" fill="#fff">
                <use xlink:href="#aW"/>
            </mask>
            <path stroke="#A0A0A0" stroke-width=".25" d="M316.553-43.088l-316 316" mask="url(#aX)"/>
        </g>
        <g transform="translate(205)">
            <mask id="aZ" fill="#fff">
                <use xlink:href="#aY"/>
            </mask>
            <path stroke="#A0A0A0" stroke-width=".25" d="M316.562-43.088l-316 316" mask="url(#aZ)"/>
        </g>
        <g transform="translate(215)">
            <mask id="bb" fill="#fff">
                <use xlink:href="#ba"/>
            </mask>
            <path stroke="#A0A0A0" stroke-width=".25" d="M316.571-43.088l-316 316" mask="url(#bb)"/>
        </g>
        <g transform="translate(225)">
            <mask id="bd" fill="#fff">
                <use xlink:href="#bc"/>
            </mask>
            <path stroke="#A0A0A0" stroke-width=".25" d="M316.58-43.088l-316 316" mask="url(#bd)"/>
        </g>
        <g transform="translate(235)">
            <mask id="bf" fill="#fff">
                <use xlink:href="#be"/>
            </mask>
            <path stroke="#A0A0A0" stroke-width=".25" d="M316.59-43.088l-316 316" mask="url(#bf)"/>
        </g>
        <g transform="translate(245)">
            <mask id="bh" fill="#fff">
                <use xlink:href="#bg"/>
            </mask>
            <path stroke="#A0A0A0" stroke-width=".25" d="M316.6-43.088l-316 316" mask="url(#bh)"/>
        </g>
        <g transform="translate(255)">
            <mask id="bj" fill="#fff">
                <use xlink:href="#bi"/>
            </mask>
            <path stroke="#A0A0A0" stroke-width=".25" d="M316.608-43.088l-316 316" mask="url(#bj)"/>
        </g>
        <g transform="translate(265)">
            <mask id="bl" fill="#fff">
                <use xlink:href="#bk"/>
            </mask>
            <path stroke="#A0A0A0" stroke-width=".25" d="M316.618-43.088l-316 316" mask="url(#bl)"/>
        </g>
        <g transform="translate(275)">
            <mask id="bn" fill="#fff">
                <use xlink:href="#bm"/>
            </mask>
            <path stroke="#A0A0A0" stroke-width=".25" d="M316.627-43.088l-316 316" mask="url(#bn)"/>
        </g>
        <g transform="translate(285)">
            <mask id="bp" fill="#fff">
                <use xlink:href="#bo"/>
            </mask>
            <path stroke="#A0A0A0" stroke-width=".25" d="M316.636-43.088l-316 316" mask="url(#bp)"/>
        </g>
        <g transform="translate(295)">
            <mask id="br" fill="#fff">
                <use xlink:href="#bq"/>
            </mask>
            <path stroke="#A0A0A0" stroke-width=".25" d="M316.646-43.088l-316 316" mask="url(#br)"/>
        </g>
        <g transform="translate(305)">
            <mask id="bt" fill="#fff">
                <use xlink:href="#bs"/>
            </mask>
            <path stroke="#A0A0A0" stroke-width=".25" d="M316.655-43.088l-316 316" mask="url(#bt)"/>
        </g>
        <g transform="translate(315)">
            <mask id="bv" fill="#fff">
                <use xlink:href="#bu"/>
            </mask>
            <path stroke="#A0A0A0" stroke-width=".25" d="M316.664-43.088l-316 316" mask="url(#bv)"/>
        </g>
        <g transform="translate(325)">
            <mask id="bx" fill="#fff">
                <use xlink:href="#bw"/>
            </mask>
            <path stroke="#A0A0A0" stroke-width=".25" d="M316.673-43.088l-316 316" mask="url(#bx)"/>
        </g>
        <g transform="translate(335)">
            <mask id="bz" fill="#fff">
                <use xlink:href="#by"/>
            </mask>
            <path stroke="#A0A0A0" stroke-width=".25" d="M316.683-43.088l-316 316" mask="url(#bz)"/>
        </g>
        <g transform="translate(345)">
            <mask id="bB" fill="#fff">
                <use xlink:href="#bA"/>
            </mask>
            <path stroke="#A0A0A0" stroke-width=".25" d="M316.692-43.088l-316 316" mask="url(#bB)"/>
        </g>
        <g transform="translate(355)">
            <mask id="bD" fill="#fff">
                <use xlink:href="#bC"/>
            </mask>
            <path stroke="#A0A0A0" stroke-width=".25" d="M316.701-43.088l-316 316" mask="url(#bD)"/>
        </g>
        <g transform="translate(365)">
            <mask id="bF" fill="#fff">
                <use xlink:href="#bE"/>
            </mask>
            <path stroke="#A0A0A0" stroke-width=".25" d="M316.71-43.088l-316 316" mask="url(#bF)"/>
        </g>
        <g transform="translate(375)">
            <mask id="bH" fill="#fff">
                <use xlink:href="#bG"/>
            </mask>
            <path stroke="#A0A0A0" stroke-width=".25" d="M316.72-43.088l-316 316" mask="url(#bH)"/>
        </g>
        <g transform="translate(385)">
            <mask id="bJ" fill="#fff">
                <use xlink:href="#bI"/>
            </mask>
            <path stroke="#A0A0A0" stroke-width=".25" d="M316.729-43.088l-316 316" mask="url(#bJ)"/>
        </g>
        <g transform="translate(395)">
            <mask id="bL" fill="#fff">
                <use xlink:href="#bK"/>
            </mask>
            <path stroke="#A0A0A0" stroke-width=".25" d="M316.738-43.088l-316 316" mask="url(#bL)"/>
        </g>
        <g transform="translate(405)">
            <mask id="bN" fill="#fff">
                <use xlink:href="#bM"/>
            </mask>
            <path stroke="#A0A0A0" stroke-width=".25" d="M316.748-43.088l-316 316" mask="url(#bN)"/>
        </g>
        <g transform="translate(415)">
            <mask id="bP" fill="#fff">
                <use xlink:href="#bO"/>
            </mask>
            <path stroke="#A0A0A0" stroke-width=".25" d="M316.757-43.088l-316 316" mask="url(#bP)"/>
        </g>
        <g transform="translate(425)">
            <mask id="bR" fill="#fff">
                <use xlink:href="#bQ"/>
            </mask>
            <path stroke="#A0A0A0" stroke-width=".25" d="M316.766-43.088l-316 316" mask="url(#bR)"/>
        </g>
        <g transform="translate(435)">
            <mask id="bT" fill="#fff">
                <use xlink:href="#bS"/>
            </mask>
            <path stroke="#A0A0A0" stroke-width=".25" d="M316.775-43.088l-316 316" mask="url(#bT)"/>
        </g>
        <g transform="translate(445)">
            <mask id="bV" fill="#fff">
                <use xlink:href="#bU"/>
            </mask>
            <path stroke="#A0A0A0" stroke-width=".25" d="M316.785-43.088l-316 316" mask="url(#bV)"/>
        </g>
        <g transform="translate(455)">
            <mask id="bX" fill="#fff">
                <use xlink:href="#bW"/>
            </mask>
            <path stroke="#A0A0A0" stroke-width=".25" d="M316.794-43.088l-316 316" mask="url(#bX)"/>
        </g>
        <g transform="translate(465)">
            <mask id="bZ" fill="#fff">
                <use xlink:href="#bY"/>
            </mask>
            <path stroke="#A0A0A0" stroke-width=".25" d="M316.803-43.088l-316 316" mask="url(#bZ)"/>
        </g>
        <g transform="translate(475)">
            <mask id="cb" fill="#fff">
                <use xlink:href="#ca"/>
            </mask>
            <path stroke="#A0A0A0" stroke-width=".25" d="M316.813-43.088l-316 316" mask="url(#cb)"/>
        </g>
        <g transform="translate(485)">
            <mask id="cd" fill="#fff">
                <use xlink:href="#cc"/>
            </mask>
            <path stroke="#A0A0A0" stroke-width=".25" d="M316.822-43.088l-316 316" mask="url(#cd)"/>
        </g>
        <g transform="translate(495)">
            <mask id="cf" fill="#fff">
                <use xlink:href="#ce"/>
            </mask>
            <path stroke="#A0A0A0" stroke-width=".25" d="M316.831-43.088l-316 316" mask="url(#cf)"/>
        </g>
        <g transform="translate(505)">
            <mask id="ch" fill="#fff">
                <use xlink:href="#cg"/>
            </mask>
            <path stroke="#A0A0A0" stroke-width=".25" d="M316.84-43.088l-316 316" mask="url(#ch)"/>
        </g>
        <g transform="translate(515)">
            <mask id="cj" fill="#fff">
                <use xlink:href="#ci"/>
            </mask>
            <path stroke="#A0A0A0" stroke-width=".25" d="M316.85-43.088l-316 316" mask="url(#cj)"/>
        </g>
        <g transform="translate(525)">
            <mask id="cl" fill="#fff">
                <use xlink:href="#ck"/>
            </mask>
            <path stroke="#A0A0A0" stroke-width=".25" d="M316.859-43.088l-316 316" mask="url(#cl)"/>
        </g>
        <g transform="translate(535)">
            <mask id="cn" fill="#fff">
                <use xlink:href="#cm"/>
            </mask>
            <path stroke="#A0A0A0" stroke-width=".25" d="M316.868-43.088l-316 316" mask="url(#cn)"/>
        </g>
        <g transform="translate(545)">
            <mask id="cp" fill="#fff">
                <use xlink:href="#co"/>
            </mask>
            <path stroke="#A0A0A0" stroke-width=".25" d="M316.877-43.088l-316 316" mask="url(#cp)"/>
        </g>
        <g transform="translate(555)">
            <mask id="cr" fill="#fff">
                <use xlink:href="#cq"/>
            </mask>
            <path stroke="#A0A0A0" stroke-width=".25" d="M316.887-43.088l-316 316" mask="url(#cr)"/>
        </g>
        <g transform="translate(565)">
            <mask id="ct" fill="#fff">
                <use xlink:href="#cs"/>
            </mask>
            <path stroke="#A0A0A0" stroke-width=".25" d="M316.897-43.088l-316 316" mask="url(#ct)"/>
        </g>
        <g transform="translate(575)">
            <mask id="cv" fill="#fff">
                <use xlink:href="#cu"/>
            </mask>
            <path stroke="#A0A0A0" stroke-width=".25" d="M316.906-43.088l-316 316" mask="url(#cv)"/>
        </g>
        <g transform="translate(585)">
            <mask id="cx" fill="#fff">
                <use xlink:href="#cw"/>
            </mask>
            <path stroke="#A0A0A0" stroke-width=".25" d="M316.915-43.088l-316 316" mask="url(#cx)"/>
        </g>
        <g transform="translate(595)">
            <mask id="cz" fill="#fff">
                <use xlink:href="#cy"/>
            </mask>
            <path stroke="#A0A0A0" stroke-width=".25" d="M316.924-43.088l-316 316" mask="url(#cz)"/>
        </g>
        <g transform="translate(605)">
            <mask id="cB" fill="#fff">
                <use xlink:href="#cA"/>
            </mask>
            <path stroke="#A0A0A0" stroke-width=".25" d="M316.934-43.088l-316 316" mask="url(#cB)"/>
        </g>
        <g transform="translate(615)">
            <mask id="cD" fill="#fff">
                <use xlink:href="#cC"/>
            </mask>
            <path stroke="#A0A0A0" stroke-width=".25" d="M316.943-43.088l-316 316" mask="url(#cD)"/>
        </g>
        <g transform="translate(625)">
            <mask id="cF" fill="#fff">
                <use xlink:href="#cE"/>
            </mask>
            <path stroke="#A0A0A0" stroke-width=".25" d="M316.952-43.088l-316 316" mask="url(#cF)"/>
        </g>
        <g transform="translate(635)">
            <mask id="cH" fill="#fff">
                <use xlink:href="#cG"/>
            </mask>
            <path stroke="#A0A0A0" stroke-width=".25" d="M316.961-43.088l-316 316" mask="url(#cH)"/>
        </g>
        <g transform="translate(645)">
            <mask id="cJ" fill="#fff">
                <use xlink:href="#cI"/>
            </mask>
            <path stroke="#A0A0A0" stroke-width=".25" d="M316.97-43.088l-316 316" mask="url(#cJ)"/>
        </g>
        <g transform="translate(655)">
            <mask id="cL" fill="#fff">
                <use xlink:href="#cK"/>
            </mask>
            <path stroke="#A0A0A0" stroke-width=".25" d="M316.98-43.088l-316 316" mask="url(#cL)"/>
        </g>
        <g transform="translate(665)">
            <mask id="cN" fill="#fff">
                <use xlink:href="#cM"/>
            </mask>
            <path stroke="#A0A0A0" stroke-width=".25" d="M316.99-43.088l-316 316" mask="url(#cN)"/>
        </g>
        <g transform="translate(675)">
            <mask id="cP" fill="#fff">
                <use xlink:href="#cO"/>
            </mask>
            <path stroke="#A0A0A0" stroke-width=".25" d="M316.998-43.088l-316 316" mask="url(#cP)"/>
        </g>
        <g transform="translate(686)">
            <mask id="cR" fill="#fff">
                <use xlink:href="#cQ"/>
            </mask>
            <path stroke="#A0A0A0" stroke-width=".25" d="M316.008-43.088l-316 316" mask="url(#cR)"/>
        </g>
        <g transform="translate(696)">
            <mask id="cT" fill="#fff">
                <use xlink:href="#cS"/>
            </mask>
            <path stroke="#A0A0A0" stroke-width=".25" d="M316.017-43.088l-316 316" mask="url(#cT)"/>
        </g>
        <g transform="translate(706)">
            <mask id="cV" fill="#fff">
                <use xlink:href="#cU"/>
            </mask>
            <path stroke="#A0A0A0" stroke-width=".25" d="M316.026-43.088l-316 316" mask="url(#cV)"/>
        </g>
        <g transform="translate(716)">
            <mask id="cX" fill="#fff">
                <use xlink:href="#cW"/>
            </mask>
            <path stroke="#A0A0A0" stroke-width=".25" d="M316.036-43.088l-316 316" mask="url(#cX)"/>
        </g>
        <g transform="translate(726)">
            <mask id="cZ" fill="#fff">
                <use xlink:href="#cY"/>
            </mask>
            <path stroke="#A0A0A0" stroke-width=".25" d="M316.045-43.088l-316 316" mask="url(#cZ)"/>
        </g>
        <g transform="translate(736)">
            <mask id="db" fill="#fff">
                <use xlink:href="#da"/>
            </mask>
            <path stroke="#A0A0A0" stroke-width=".25" d="M316.054-43.088l-316 316" mask="url(#db)"/>
        </g>
        <g transform="translate(746)">
            <mask id="dd" fill="#fff">
                <use xlink:href="#dc"/>
            </mask>
            <path stroke="#A0A0A0" stroke-width=".25" d="M316.063-43.088l-316 316" mask="url(#dd)"/>
        </g>
        <g transform="translate(756)">
            <mask id="df" fill="#fff">
                <use xlink:href="#de"/>
            </mask>
            <path stroke="#A0A0A0" stroke-width=".25" d="M316.073-43.088l-316 316" mask="url(#df)"/>
        </g>
        <g transform="translate(766)">
            <mask id="dh" fill="#fff">
                <use xlink:href="#dg"/>
            </mask>
            <path stroke="#A0A0A0" stroke-width=".25" d="M316.082-43.088l-316 316" mask="url(#dh)"/>
        </g>
        <g transform="translate(776)">
            <mask id="dj" fill="#fff">
                <use xlink:href="#di"/>
            </mask>
            <path stroke="#A0A0A0" stroke-width=".25" d="M316.091-43.088l-316 316" mask="url(#dj)"/>
        </g>
        <g transform="translate(786)">
            <mask id="dl" fill="#fff">
                <use xlink:href="#dk"/>
            </mask>
            <path stroke="#A0A0A0" stroke-width=".25" d="M316.1-43.088l-316 316" mask="url(#dl)"/>
        </g>
        <g transform="translate(796)">
            <mask id="dn" fill="#fff">
                <use xlink:href="#dm"/>
            </mask>
            <path stroke="#A0A0A0" stroke-width=".25" d="M316.11-43.088l-316 316" mask="url(#dn)"/>
        </g>
        <g transform="translate(806)">
            <mask id="dp" fill="#fff">
                <use xlink:href="#do"/>
            </mask>
            <path stroke="#A0A0A0" stroke-width=".25" d="M316.12-43.088l-316 316" mask="url(#dp)"/>
        </g>
        <g transform="translate(816)">
            <mask id="dr" fill="#fff">
                <use xlink:href="#dq"/>
            </mask>
            <path stroke="#A0A0A0" stroke-width=".25" d="M316.128-43.088l-316 316" mask="url(#dr)"/>
        </g>
        <g transform="translate(826)">
            <mask id="dt" fill="#fff">
                <use xlink:href="#ds"/>
            </mask>
            <path stroke="#A0A0A0" stroke-width=".25" d="M316.138-43.088l-316 316" mask="url(#dt)"/>
        </g>
        <g transform="translate(836)">
            <mask id="dv" fill="#fff">
                <use xlink:href="#du"/>
            </mask>
            <path stroke="#A0A0A0" stroke-width=".25" d="M316.147-43.088l-316 316" mask="url(#dv)"/>
        </g>
        <g transform="translate(846)">
            <mask id="dx" fill="#fff">
                <use xlink:href="#dw"/>
            </mask>
            <path stroke="#A0A0A0" stroke-width=".25" d="M316.156-43.088l-316 316" mask="url(#dx)"/>
        </g>
        <g transform="translate(856)">
            <mask id="dz" fill="#fff">
                <use xlink:href="#dy"/>
            </mask>
            <path stroke="#A0A0A0" stroke-width=".25" d="M316.166-43.088l-316 316" mask="url(#dz)"/>
        </g>
        <g transform="translate(866)">
            <mask id="dB" fill="#fff">
                <use xlink:href="#dA"/>
            </mask>
            <path stroke="#A0A0A0" stroke-width=".25" d="M316.175-43.088l-316 316" mask="url(#dB)"/>
        </g>
        <g transform="translate(876)">
            <mask id="dD" fill="#fff">
                <use xlink:href="#dC"/>
            </mask>
            <path stroke="#A0A0A0" stroke-width=".25" d="M316.184-43.088l-316 316" mask="url(#dD)"/>
        </g>
        <g transform="translate(886)">
            <mask id="dF" fill="#fff">
                <use xlink:href="#dE"/>
            </mask>
            <path stroke="#A0A0A0" stroke-width=".25" d="M316.193-43.088l-316 316" mask="url(#dF)"/>
        </g>
        <g transform="translate(896)">
            <mask id="dH" fill="#fff">
                <use xlink:href="#dG"/>
            </mask>
            <path stroke="#A0A0A0" stroke-width=".25" d="M316.203-43.088l-316 316" mask="url(#dH)"/>
        </g>
        <g transform="translate(906)">
            <mask id="dJ" fill="#fff">
                <use xlink:href="#dI"/>
            </mask>
            <path stroke="#A0A0A0" stroke-width=".25" d="M316.212-43.088l-316 316" mask="url(#dJ)"/>
        </g>
        <g transform="translate(916)">
            <mask id="dL" fill="#fff">
                <use xlink:href="#dK"/>
            </mask>
            <path stroke="#A0A0A0" stroke-width=".25" d="M316.221-43.088l-316 316" mask="url(#dL)"/>
        </g>
        <g transform="translate(926)">
            <mask id="dN" fill="#fff">
                <use xlink:href="#dM"/>
            </mask>
            <path stroke="#A0A0A0" stroke-width=".25" d="M316.23-43.088l-316 316" mask="url(#dN)"/>
        </g>
        <g transform="translate(936)">
            <mask id="dP" fill="#fff">
                <use xlink:href="#dO"/>
            </mask>
            <path stroke="#A0A0A0" stroke-width=".25" d="M316.24-43.088l-316 316" mask="url(#dP)"/>
        </g>
        <g transform="translate(946)">
            <mask id="dR" fill="#fff">
                <use xlink:href="#dQ"/>
            </mask>
            <path stroke="#A0A0A0" stroke-width=".25" d="M316.249-43.088l-316 316" mask="url(#dR)"/>
        </g>
        <g transform="translate(956)">
            <mask id="dT" fill="#fff">
                <use xlink:href="#dS"/>
            </mask>
            <path stroke="#A0A0A0" stroke-width=".25" d="M316.258-43.088l-316 316" mask="url(#dT)"/>
        </g>
        <g transform="translate(966)">
            <mask id="dV" fill="#fff">
                <use xlink:href="#dU"/>
            </mask>
            <path stroke="#A0A0A0" stroke-width=".25" d="M316.268-43.088l-316 316" mask="url(#dV)"/>
        </g>
        <g transform="translate(976)">
            <mask id="dX" fill="#fff">
                <use xlink:href="#dW"/>
            </mask>
            <path stroke="#A0A0A0" stroke-width=".25" d="M316.277-43.088l-316 316" mask="url(#dX)"/>
        </g>
        <g transform="translate(986)">
            <mask id="dZ" fill="#fff">
                <use xlink:href="#dY"/>
            </mask>
            <path stroke="#A0A0A0" stroke-width=".25" d="M316.286-43.088l-316 316" mask="url(#dZ)"/>
        </g>
        <g transform="translate(996)">
            <mask id="eb" fill="#fff">
                <use xlink:href="#ea"/>
            </mask>
            <path stroke="#A0A0A0" stroke-width=".25" d="M316.295-43.088l-316 316" mask="url(#eb)"/>
        </g>
        <g transform="translate(1006)">
            <mask id="ed" fill="#fff">
                <use xlink:href="#ec"/>
            </mask>
            <path stroke="#A0A0A0" stroke-width=".25" d="M316.305-43.088l-316 316" mask="url(#ed)"/>
        </g>
        <g transform="translate(1016)">
            <mask id="ef" fill="#fff">
                <use xlink:href="#ee"/>
            </mask>
            <path stroke="#A0A0A0" stroke-width=".25" d="M316.314-43.088l-316 316" mask="url(#ef)"/>
        </g>
        <g transform="translate(1026)">
            <mask id="eh" fill="#fff">
                <use xlink:href="#eg"/>
            </mask>
            <path stroke="#A0A0A0" stroke-width=".25" d="M316.323-43.088l-316 316" mask="url(#eh)"/>
        </g>
        <g transform="translate(1036)">
            <mask id="ej" fill="#fff">
                <use xlink:href="#ei"/>
            </mask>
            <path stroke="#A0A0A0" stroke-width=".25" d="M316.332-43.088l-316 316" mask="url(#ej)"/>
        </g>
        <g transform="translate(1046)">
            <mask id="el" fill="#fff">
                <use xlink:href="#ek"/>
            </mask>
            <path stroke="#A0A0A0" stroke-width=".25" d="M316.342-43.088l-316 316" mask="url(#el)"/>
        </g>
        <g transform="translate(1056)">
            <mask id="en" fill="#fff">
                <use xlink:href="#em"/>
            </mask>
            <path stroke="#A0A0A0" stroke-width=".25" d="M316.351-43.088l-316 316" mask="url(#en)"/>
        </g>
        <g transform="translate(1066)">
            <mask id="ep" fill="#fff">
                <use xlink:href="#eo"/>
            </mask>
            <path stroke="#A0A0A0" stroke-width=".25" d="M316.36-43.088l-316 316" mask="url(#ep)"/>
        </g>
        <g transform="translate(1076)">
            <mask id="er" fill="#fff">
                <use xlink:href="#eq"/>
            </mask>
            <path stroke="#A0A0A0" stroke-width=".25" d="M316.37-43.088l-316 316" mask="url(#er)"/>
        </g>
        <g transform="translate(1086)">
            <mask id="et" fill="#fff">
                <use xlink:href="#es"/>
            </mask>
            <path stroke="#A0A0A0" stroke-width=".25" d="M316.379-43.088l-316 316" mask="url(#et)"/>
        </g>
        <g transform="translate(1096)">
            <mask id="ev" fill="#fff">
                <use xlink:href="#eu"/>
            </mask>
            <path stroke="#A0A0A0" stroke-width=".25" d="M316.388-43.088l-316 316" mask="url(#ev)"/>
        </g>
        <g transform="translate(1106)">
            <mask id="ex" fill="#fff">
                <use xlink:href="#ew"/>
            </mask>
            <path stroke="#A0A0A0" stroke-width=".25" d="M316.397-43.088l-316 316" mask="url(#ex)"/>
        </g>
        <g transform="translate(1116)">
            <mask id="ez" fill="#fff">
                <use xlink:href="#ey"/>
            </mask>
            <path stroke="#A0A0A0" stroke-width=".25" d="M316.407-43.088l-316 316" mask="url(#ez)"/>
        </g>
        <g transform="translate(1126)">
            <mask id="eB" fill="#fff">
                <use xlink:href="#eA"/>
            </mask>
            <path stroke="#A0A0A0" stroke-width=".25" d="M316.416-43.088l-316 316" mask="url(#eB)"/>
        </g>
        <g transform="translate(1136)">
            <mask id="eD" fill="#fff">
                <use xlink:href="#eC"/>
            </mask>
            <path stroke="#A0A0A0" stroke-width=".25" d="M316.425-43.088l-316 316" mask="url(#eD)"/>
        </g>
        <g transform="translate(1146)">
            <mask id="eF" fill="#fff">
                <use xlink:href="#eE"/>
            </mask>
            <path stroke="#A0A0A0" stroke-width=".25" d="M316.435-43.088l-316 316" mask="url(#eF)"/>
        </g>
        <g transform="translate(1156)">
            <mask id="eH" fill="#fff">
                <use xlink:href="#eG"/>
            </mask>
            <path stroke="#A0A0A0" stroke-width=".25" d="M316.444-43.088l-316 316" mask="url(#eH)"/>
        </g>
        <g transform="translate(1166)">
            <mask id="eJ" fill="#fff">
                <use xlink:href="#eI"/>
            </mask>
            <path stroke="#A0A0A0" stroke-width=".25" d="M316.454-43.088l-316 316" mask="url(#eJ)"/>
        </g>
        <g transform="translate(1176)">
            <mask id="eL" fill="#fff">
                <use xlink:href="#eK"/>
            </mask>
            <path stroke="#A0A0A0" stroke-width=".25" d="M316.463-43.088l-316 316" mask="url(#eL)"/>
        </g>
        <g transform="translate(1186)">
            <mask id="eN" fill="#fff">
                <use xlink:href="#eM"/>
            </mask>
            <path stroke="#A0A0A0" stroke-width=".25" d="M316.472-43.088l-316 316" mask="url(#eN)"/>
        </g>
        <g transform="translate(1196)">
            <mask id="eP" fill="#fff">
                <use xlink:href="#eO"/>
            </mask>
            <path stroke="#A0A0A0" stroke-width=".25" d="M316.481-43.088l-316 316" mask="url(#eP)"/>
        </g>
        <g transform="translate(1206)">
            <mask id="eR" fill="#fff">
                <use xlink:href="#eQ"/>
            </mask>
            <path stroke="#A0A0A0" stroke-width=".25" d="M316.49-43.088l-316 316" mask="url(#eR)"/>
        </g>
        <g transform="translate(1216)">
            <mask id="eT" fill="#fff">
                <use xlink:href="#eS"/>
            </mask>
            <path stroke="#A0A0A0" stroke-width=".25" d="M316.5-43.088l-316 316" mask="url(#eT)"/>
        </g>
        <g transform="translate(1226)">
            <mask id="eV" fill="#fff">
                <use xlink:href="#eU"/>
            </mask>
            <path stroke="#A0A0A0" stroke-width=".25" d="M316.51-43.088l-316 316" mask="url(#eV)"/>
        </g>
        <g transform="translate(1236)">
            <mask id="eX" fill="#fff">
                <use xlink:href="#eW"/>
            </mask>
            <path stroke="#A0A0A0" stroke-width=".25" d="M316.519-43.088l-316 316" mask="url(#eX)"/>
        </g>
        <g transform="translate(1246)">
            <mask id="eZ" fill="#fff">
                <use xlink:href="#eY"/>
            </mask>
            <path stroke="#A0A0A0" stroke-width=".25" d="M316.528-43.088l-316 316" mask="url(#eZ)"/>
        </g>
        <g transform="translate(1256)">
            <mask id="fb" fill="#fff">
                <use xlink:href="#fa"/>
            </mask>
            <path stroke="#A0A0A0" stroke-width=".25" d="M316.537-43.088l-316 316" mask="url(#fb)"/>
        </g>
        <g transform="translate(1266)">
            <mask id="fd" fill="#fff">
                <use xlink:href="#fc"/>
            </mask>
            <path stroke="#A0A0A0" stroke-width=".25" d="M316.546-43.088l-316 316" mask="url(#fd)"/>
        </g>
        <g transform="translate(1276)">
            <mask id="ff" fill="#fff">
                <use xlink:href="#fe"/>
            </mask>
            <path stroke="#A0A0A0" stroke-width=".25" d="M316.556-43.088l-316 316" mask="url(#ff)"/>
        </g>
    </g>
</svg>
