<svg xmlns="http://www.w3.org/2000/svg" width="15" height="18" viewBox="0 0 15 18">
    <g fill="none" fill-rule="evenodd">
        <path fill="#3A444D" d="M12.391 14.818c.001.374.002.747 0 1.122l.001.134c0 .06 0 .121-.003.181-.02.381-.228.66-.557.742-.341.09-.619-.055-.809-.425-.462-.89-.919-1.784-1.376-2.677l-.662-1.29c-.073-.14-.147-.28-.217-.423-.279-.56-.734-.857-1.318-.858-.593 0-1.038.286-1.326.85-.737 1.444-1.477 2.887-2.218 4.33-.195.377-.413.596-.866.493-.407-.094-.573-.34-.574-.854-.002-.5-.002-1-.001-1.542v-1.568c.031-1.405.003-3.512-.599-5.588a12.46 12.46 0 0 0-.411-1.127c-.151-.38-.308-.772-.457-1.225-.472-1.435-.356-2.41.386-3.263C1.995 1.131 2.792.765 3.662.765c.323 0 .656.051.993.154.75.23 1.133.828 1.385 1.325.354.7 1.028 1.016 1.758.824.496-.13.788-.5 1.01-.846C9.362 1.36 10.287.843 11.28.843h.042c.997.014 1.91.546 2.441 1.423.529.875.575 1.781.138 2.696-.94 1.963-1.428 4.076-1.49 6.46a108.456 108.456 0 0 0-.021 3.115l.001.281zm.876-14.1c-1.53-.977-3.448-.715-4.662.634a3.857 3.857 0 0 0-.303.403l-.013.018a5.1 5.1 0 0 1-.16.225c-.204.27-.466.411-.744.382-.257-.022-.491-.2-.659-.5C5.648-.04 4.269-.125 2.936.073 1.927.223 1.008.917.414 1.983c-.546.978-.552 2.236-.016 3.453.432.98.728 2.044.96 2.956.406 1.6.419 3.183.392 5.088l-.002.803c-.002.604-.003 1.25.005 1.894.008.695.314 1.16.908 1.38.754.28 1.459 0 1.84-.73a466.026 466.026 0 0 0 1.604-3.12l.633-1.236.047-.095c.136-.298.363-.455.656-.455.296.003.515.157.672.47.376.75.754 1.501 1.132 2.25.351.698.703 1.397 1.053 2.096.165.331.418.732.909.908.163.058.332.087.499.087.287 0 .565-.084.798-.247.394-.273.623-.728.629-1.245.009-.768.009-1.549.009-2.305v-.14c-.001-.62-.002-1.242.002-1.863.015-2.4.5-4.666 1.441-6.73A3.576 3.576 0 0 0 13.267.717z"/>
        <path fill="#21BDC3" d="M10.763 12.48a.263.263 0 0 1-.178-.06c-.097-.09-.143-.279-.141-.58 0-.143.005-.286.009-.433l.003-.127c0-.055.004-.11.008-.166l.004-.08c.114-2.346.563-4.415 1.372-6.325l.07-.164c.06-.152.14-.248.232-.286a.322.322 0 0 1 .257.02c.215.094.28.288.185.545l-.017.041c-.041.108-.084.217-.127.325l-.07.175c-.095.24-.193.486-.276.732-.603 1.763-.91 3.645-.936 5.756v.082c0 .306-.022.51-.35.542a.367.367 0 0 1-.045.003z"/>
    </g>
</svg>
