<svg xmlns="http://www.w3.org/2000/svg" viewBox="0 0 47.19 47.13"><defs><style>.cls-1{fill:none;stroke:#6e7880;stroke-miterlimit:10;}</style></defs><title>step3_iocn</title><g id="Слой_2" data-name="Слой 2"><g id="Layer_11" data-name="Layer 11"><g id="Wranch"><path class="cls-1" d="M42.16,16.78l4.4-7.61-2-2L39.26,12.5,35,8.25l5.33-5.32L38,.63,30.59,5.26a6,6,0,0,0-2.83,5.29L27.86,14,2,39.79a4,4,0,0,0,0,5.67H2a4,4,0,0,0,5.68,0L33.54,19.63l3.12.14A6,6,0,0,0,42.16,16.78Z"/><path class="cls-1" d="M38.85,45.31,29,35.54l6.39-6.38,9.88,9.78a4.5,4.5,0,0,1,0,6.38h0A4.52,4.52,0,0,1,38.85,45.31Z"/><polygon class="cls-1" points="22.58 19.24 19.03 22.78 8.73 12.51 3.05 11.09 0.57 2.94 2.7 0.81 11.22 2.94 12.28 8.96 22.58 19.24"/><polygon class="cls-1" points="30.39 34.12 24.71 28.45 28.61 24.55 34.29 30.22 30.39 34.12"/></g></g></g></svg>