<svg xmlns="http://www.w3.org/2000/svg" viewBox="0 0 24.79 24.79"><defs><style>.cls-1{fill:none;stroke:#7b858b;stroke-miterlimit:10;}</style></defs><title>Asset 1</title><g id="Layer_2" data-name="Layer 2"><g id="base"><g id="User_Alt" data-name="User Alt"><circle class="cls-1" cx="12.39" cy="12.39" r="11.89"/><path class="cls-1" d="M16,7.25A3.55,3.55,0,0,0,12.4,3.6,3.55,3.55,0,0,0,8.78,7.25c0,.41.4,2.43.4,2.43.31,1.75,1.44,3.24,3.21,3.24s2.88-1.46,3.21-3.24C15.61,9.67,16,7.65,16,7.25Z"/><path class="cls-1" d="M3.6,20.41v-.35a3.36,3.36,0,0,1,2.79-3.18l6-1.13,6,1.12a3.46,3.46,0,0,1,2.77,3.18v.35"/></g></g></g></svg>
