<svg xmlns="http://www.w3.org/2000/svg" xmlns:xlink="http://www.w3.org/1999/xlink" width="406" height="301" viewBox="0 0 406 301">
    <desc>
        Created using Figma
    </desc>
    <use fill="#BD86C1" opacity=".15" transform="matrix(.99803 0 0 .99803 341.847 173.833)" xlink:href="#a"/>
    <use fill="#BD86C1" opacity=".15" transform="matrix(.99803 0 0 .99803 349.781 178.075)" xlink:href="#b"/>
    <use fill="#BD86C1" opacity=".15" transform="matrix(.99803 0 0 .99803 359.771 212.467)" xlink:href="#c"/>
    <use fill="#BD86C1" opacity=".15" transform="matrix(.99803 0 0 .99803 350.78 209.573)" xlink:href="#d"/>
    <use fill="#BD86C1" opacity=".15" transform="matrix(.99803 0 0 .99803 368.055 200.68)" xlink:href="#e"/>
    <use fill="#BD86C1" opacity=".15" transform="matrix(.99803 0 0 .99803 361.618 196.289)" xlink:href="#f"/>
    <use fill="#BD86C1" opacity=".15" transform="matrix(.99803 0 0 .99803 378.165 191.379)" xlink:href="#g"/>
    <use fill="#BD86C1" opacity=".15" transform="matrix(.99803 0 0 .99803 383.694 183.364)" xlink:href="#h"/>
    <use fill="#BD86C1" opacity=".15" transform="matrix(.99803 0 0 .99803 385.38 176.678)" xlink:href="#i"/>
    <use fill="#BD86C1" opacity=".15" transform="matrix(.99803 0 0 .99803 370.27 190.091)" xlink:href="#j"/>
    <use fill="#BD86C1" opacity=".15" transform="matrix(.99803 0 0 .99803 343.513 198.425)" xlink:href="#k"/>
    <use fill="#BD86C1" opacity=".15" transform="matrix(.99803 0 0 .99803 355.1 188.085)" xlink:href="#l"/>
    <use fill="#BD86C1" opacity=".15" transform="matrix(.99803 0 0 .99803 356.178 192.926)" xlink:href="#m"/>
    <use fill="#BD86C1" opacity=".15" transform="matrix(.99803 0 0 .99803 366.658 182.546)" xlink:href="#n"/>
    <use fill="#BD86C1" opacity=".15" transform="matrix(.99803 0 0 .99803 376.259 180.42)" xlink:href="#o"/>
    <use fill="#BD86C1" opacity=".15" transform="matrix(.99803 0 0 .99803 373.145 182.297)" xlink:href="#p"/>
    <use fill="#66636C" transform="matrix(.99803 0 0 .99803 343.414 196)" xlink:href="#q"/>
    <use fill="#66636C" transform="matrix(.99803 0 0 .99803 363.714 212.777)" xlink:href="#r"/>
    <use fill="#66636C" transform="rotate(-49.607 401.236 -267.919) scale(.998)" xlink:href="#s"/>
    <use fill="#66636C" transform="matrix(.99803 0 0 .99803 354.831 185.91)" xlink:href="#t"/>
    <use fill="#66636C" transform="matrix(.99803 0 0 .99803 376.878 201.13)" xlink:href="#u"/>
    <use fill="#66636C" transform="matrix(.99803 0 0 .99803 361.708 192.736)" xlink:href="#v"/>
    <use fill="#66636C" transform="matrix(.99803 0 0 .99803 366.308 180.22)" xlink:href="#w"/>
    <use fill="#66636C" transform="matrix(.99803 0 0 .99803 382.407 191.369)" xlink:href="#x"/>
    <use fill="#66636C" transform="matrix(.99803 0 0 .99803 376.409 176.149)" xlink:href="#y"/>
    <use fill="#66636C" transform="matrix(.99803 0 0 .99803 371.359 185.32)" xlink:href="#z"/>
    <use fill="#66636C" transform="matrix(.99803 0 0 .99803 384.992 172.925)" xlink:href="#A"/>
    <g transform="matrix(.99803 0 0 .99803 -7392.43 -1509.03)">
        <use fill="#66636C" transform="translate(7743.74 1730.03)" xlink:href="#B"/>
    </g>
    <g transform="matrix(.99803 0 0 .99803 -7392.43 -1509.03)">
        <use fill="#66636C" transform="translate(7646.18 1597.71)" xlink:href="#C"/>
    </g>
    <g transform="matrix(.99803 0 0 .99803 -7392.43 -1509.03)">
        <use fill="#66636C" transform="translate(7573.6 1597.71)" xlink:href="#D"/>
    </g>
    <g transform="matrix(.99803 0 0 .99803 -7392.43 -1509.03)">
        <use fill="#66636C" transform="translate(7580.91 1513)" xlink:href="#E"/>
    </g>
    <g transform="matrix(.99803 0 0 .99803 -7392.43 -1509.03)">
        <use fill="#66636C" transform="translate(7580.91 1584.05)" xlink:href="#F"/>
    </g>
    <g opacity=".05" transform="matrix(.99803 0 0 .99803 -7392.43 -1509.03)">
        <use fill="#52AFA3" transform="translate(7501.05 1579.55)" xlink:href="#G"/>
    </g>
    <g transform="matrix(.99803 0 0 .99803 -7392.43 -1509.03)">
        <use fill="#66636C" transform="translate(7659.38 1581.22)" xlink:href="#H"/>
    </g>
    <g transform="matrix(.99803 0 0 .99803 -7392.43 -1509.03)">
        <use fill="#66636C" transform="translate(7598.11 1581.22)" xlink:href="#I"/>
    </g>
    <g transform="matrix(.99803 0 0 .99803 -7392.43 -1509.03)">
        <use fill="#66636C" transform="translate(7502.07 1658.04)" xlink:href="#J"/>
    </g>
    <g>
        <use fill="#52AEA2" opacity=".15" transform="matrix(.99803 0 0 .99803 289.39 244.993)" xlink:href="#K"/>
        <use fill="#52AEA2" opacity=".15" transform="matrix(.99803 0 0 .99803 280.887 221.998)" xlink:href="#L"/>
        <use fill="#52AEA2" opacity=".15" transform="matrix(.99803 0 0 .99803 306.057 201.02)" xlink:href="#M"/>
        <use fill="#52AEA2" opacity=".15" transform="matrix(.99803 0 0 .99803 293.712 168.594)" xlink:href="#N"/>
        <use fill="#52AEA2" opacity=".15" transform="matrix(.99803 0 0 .99803 317.964 158.973)" xlink:href="#O"/>
        <use fill="#52AEA2" opacity=".15" transform="matrix(.99803 0 0 .99803 316.626 119.43)" xlink:href="#P"/>
        <use fill="#52AEA2" opacity=".15" transform="matrix(.99803 0 0 .99803 324.74 112.135)" xlink:href="#Q"/>
        <use fill="#52AEA2" opacity=".15" transform="matrix(.99803 0 0 .99803 317.375 165.72)" xlink:href="#R"/>
        <use fill="#52AEA2" opacity=".15" transform="matrix(.99803 0 0 .99803 326.527 120.439)" xlink:href="#S"/>
        <use fill="#52AEA2" opacity=".15" transform="matrix(.99803 0 0 .99803 308.682 213.276)" xlink:href="#T"/>
        <use fill="#52AEA2" opacity=".15" transform="matrix(.99803 0 0 .99803 301.646 188.784)" xlink:href="#U"/>
        <use fill="#52AEA2" opacity=".15" transform="matrix(.99803 0 0 .99803 298.263 243.915)" xlink:href="#V"/>
        <use fill="#52AEA2" opacity=".15" transform="matrix(.99803 0 0 .99803 292.664 258.466)" xlink:href="#W"/>
        <use fill="#52AEA2" opacity=".15" transform="matrix(.99803 0 0 .99803 287.224 288.727)" xlink:href="#X"/>
        <use fill="#66636C" transform="matrix(.99803 0 0 .99803 283.741 222.767)" xlink:href="#Y"/>
        <use fill="#66636C" transform="matrix(.99803 0 0 .99803 318.084 159.492)" xlink:href="#Z"/>
        <use fill="#66636C" transform="matrix(.99803 0 0 .99803 286.576 285.144)" xlink:href="#aa"/>
        <use fill="#66636C" transform="matrix(.99803 0 0 .99803 296.805 244.684)" xlink:href="#ab"/>
        <use fill="#66636C" transform="matrix(.99803 0 0 .99803 308.792 200.351)" xlink:href="#ac"/>
        <use fill="#66636C" transform="matrix(.99803 0 0 .99803 294.54 167.216)" xlink:href="#ad"/>
        <use fill="#66636C" transform="matrix(.99803 0 0 .99803 288.801 119.41)" xlink:href="#ae"/>
        <use fill="#66636C" transform="matrix(.99803 0 0 .99803 325.968 112.963)" xlink:href="#af"/>
        <use fill="#66636C" transform="matrix(.99803 0 0 .99803 313.762 168.184)" xlink:href="#ag"/>
        <use fill="#66636C" transform="matrix(.99803 0 0 .99803 318.612 157.156)" xlink:href="#ah"/>
    </g>
    <g>
        <use fill="#66636C" transform="matrix(.99803 0 0 .99803 20.17 75.896)" xlink:href="#ai"/>
        <use fill="#66636C" transform="matrix(.99803 0 0 .99803 126.361 23.859)" xlink:href="#aj"/>
        <use fill="#66636C" transform="matrix(.99803 0 0 .99803 118.138 51.075)" xlink:href="#ak"/>
        <use fill="#66636C" transform="matrix(.99803 0 0 .99803 53.216 115.997)" xlink:href="#al"/>
        <use fill="#66636C" transform="matrix(.99803 0 0 .99803 92.318 91.426)" xlink:href="#am"/>
        <use fill="#66636C" transform="matrix(.99803 0 0 .99803 46.848 106.296)" xlink:href="#an"/>
        <use fill="#66636C" transform="matrix(.99803 0 0 .99803 95.063 64.14)" xlink:href="#ao"/>
        <use fill="#52AEA2" opacity=".15" transform="matrix(.99803 0 0 .99803 126.73 25.206)" xlink:href="#ap"/>
        <use fill="#52AEA2" opacity=".15" transform="matrix(.99803 0 0 .99803 119.874 48.54)" xlink:href="#aq"/>
        <use fill="#52AEA2" opacity=".15" transform="matrix(.99803 0 0 .99803 93.835 65.207)" xlink:href="#ar"/>
        <use fill="#52AEA2" opacity=".15" transform="matrix(.99803 0 0 .99803 91.68 95.358)" xlink:href="#as"/>
        <use fill="#52AEA2" opacity=".15" transform="matrix(.99803 0 0 .99803 46.868 105.089)" xlink:href="#at"/>
        <use fill="#52AEA2" opacity=".15" transform="matrix(.99803 0 0 .99803 21.278 113.622)" xlink:href="#au"/>
        <use fill="#52AEA2" opacity=".15" transform="matrix(.99803 0 0 .99803 97.548 92.753)" xlink:href="#av"/>
        <g opacity=".15" transform="matrix(.99803 0 0 .99803 -7392.43 -1509.03)">
            <use fill="#52AEA2" transform="translate(7530.62 1568.54)" xlink:href="#aw"/>
        </g>
        <g opacity=".15" transform="matrix(.99803 0 0 .99803 -7392.43 -1509.03)">
            <use fill="#52AEA2" transform="translate(7535.31 1577.77)" xlink:href="#ax"/>
        </g>
        <g opacity=".15" transform="matrix(.99803 0 0 .99803 -7392.43 -1509.03)">
            <use fill="#52AEA2" transform="translate(7538.48 1538.12)" xlink:href="#ay"/>
        </g>
        <g opacity=".15" transform="matrix(.99803 0 0 .99803 -7392.43 -1509.03)">
            <use fill="#52AEA2" transform="translate(7467.41 1621.63)" xlink:href="#az"/>
        </g>
        <g opacity=".15" transform="matrix(.99803 0 0 .99803 -7392.43 -1509.03)">
            <use fill="#52AEA2" transform="translate(7460.58 1630.45)" xlink:href="#aA"/>
        </g>
        <g opacity=".15" transform="matrix(.99803 0 0 .99803 -7392.43 -1509.03)">
            <use fill="#52AEA2" transform="translate(7468.6 1629.42)" xlink:href="#aB"/>
        </g>
    </g>
    <g>
        <use fill="#BD86C1" opacity=".15" transform="matrix(.99803 0 0 .99803 348.194 239.534)" xlink:href="#aC"/>
        <use fill="#BD86C1" opacity=".15" transform="matrix(.99803 0 0 .99803 355 243.516)" xlink:href="#aD"/>
        <use fill="#BD86C1" opacity=".15" transform="matrix(.99803 0 0 .99803 361.737 272.549)" xlink:href="#aE"/>
        <use fill="#BD86C1" opacity=".15" transform="matrix(.99803 0 0 .99803 354.532 266.42)" xlink:href="#aF"/>
        <use fill="#BD86C1" opacity=".15" transform="matrix(.99803 0 0 .99803 372.027 262.618)" xlink:href="#aG"/>
        <use fill="#BD86C1" opacity=".15" transform="matrix(.99803 0 0 .99803 368.554 255.752)" xlink:href="#aH"/>
        <use fill="#BD86C1" opacity=".15" transform="matrix(.99803 0 0 .99803 384.553 255.173)" xlink:href="#aI"/>
        <use fill="#BD86C1" opacity=".15" transform="matrix(.99803 0 0 .99803 392.217 247.887)" xlink:href="#aJ"/>
        <use fill="#BD86C1" opacity=".15" transform="matrix(.99803 0 0 .99803 395.441 242.728)" xlink:href="#aK"/>
        <use fill="#BD86C1" opacity=".15" transform="matrix(.99803 0 0 .99803 378.425 251.43)" xlink:href="#aL"/>
        <use fill="#BD86C1" opacity=".15" transform="matrix(.99803 0 0 .99803 349.801 254.315)" xlink:href="#aM"/>
        <use fill="#BD86C1" opacity=".15" transform="matrix(.99803 0 0 .99803 363.025 246.57)" xlink:href="#aN"/>
        <use fill="#BD86C1" opacity=".15" transform="matrix(.99803 0 0 .99803 363.704 251.3)" xlink:href="#aO"/>
        <use fill="#BD86C1" opacity=".15" transform="matrix(.99803 0 0 .99803 375.55 243.586)" xlink:href="#aP"/>
        <use fill="#BD86C1" opacity=".15" transform="matrix(.99803 0 0 .99803 386.05 243.316)" xlink:href="#aQ"/>
        <use fill="#BD86C1" opacity=".15" transform="matrix(.99803 0 0 .99803 382.696 244.763)" xlink:href="#aR"/>
        <g>
            <use fill="#66636C" transform="matrix(.99803 0 0 .99803 347.306 253.047)" xlink:href="#aS"/>
            <use fill="#66636C" transform="matrix(.99803 0 0 .99803 362.765 274.515)" xlink:href="#aT"/>
            <use fill="#66636C" transform="matrix(.79833 -.59892 .59892 .79833 347.336 267.19)" xlink:href="#aU"/>
            <use fill="#66636C" transform="matrix(.99803 0 0 .99803 361.079 245.542)" xlink:href="#aV"/>
            <use fill="#66636C" transform="matrix(.99803 0 0 .99803 378.295 264.754)" xlink:href="#aW"/>
            <use fill="#66636C" transform="matrix(.99803 0 0 .99803 366.887 253.866)" xlink:href="#aX"/>
            <use fill="#66636C" transform="matrix(.99803 0 0 .99803 373.913 242.268)" xlink:href="#aY"/>
            <use fill="#66636C" transform="matrix(.99803 0 0 .99803 386.409 256.28)" xlink:href="#aZ"/>
            <use fill="#66636C" transform="matrix(.99803 0 0 .99803 384.882 240.462)" xlink:href="#ba"/>
            <use fill="#66636C" transform="matrix(.99803 0 0 .99803 378.055 248.396)" xlink:href="#bb"/>
            <use fill="#66636C" transform="matrix(.99803 0 0 .99803 394.283 239.165)" xlink:href="#bc"/>
        </g>
    </g>
    <g>
        <use fill="#BD86C1" opacity=".15" transform="matrix(.99803 0 0 .99803 50.77 182.386)" xlink:href="#bd"/>
        <use fill="#BD86C1" opacity=".15" transform="matrix(.99803 0 0 .99803 51.12 183.993)" xlink:href="#be"/>
        <use fill="#BD86C1" opacity=".15" transform="matrix(.99803 0 0 .99803 59.912 184.872)" xlink:href="#bf"/>
        <use fill="#BD86C1" opacity=".15" transform="matrix(.99803 0 0 .99803 63.685 186.668)" xlink:href="#bg"/>
        <use fill="#BD86C1" opacity=".15" transform="matrix(.99803 0 0 .99803 57.627 197.596)" xlink:href="#bh"/>
        <use fill="#BD86C1" opacity=".15" transform="matrix(.99803 0 0 .99803 61.978 201.419)" xlink:href="#bi"/>
        <use fill="#BD86C1" opacity=".15" transform="matrix(.99803 0 0 .99803 53.196 212.687)" xlink:href="#bj"/>
        <use fill="#BD86C1" opacity=".15" transform="matrix(.99803 0 0 .99803 54.423 224.274)" xlink:href="#bk"/>
        <use fill="#BD86C1" opacity=".15" transform="matrix(.99803 0 0 .99803 52.168 231.42)" xlink:href="#bl"/>
        <use fill="#BD86C1" opacity=".15" transform="matrix(.99803 0 0 .99803 59.044 213.385)" xlink:href="#bm"/>
        <use fill="#BD86C1" opacity=".15" transform="matrix(.99803 0 0 .99803 82.538 193.674)" xlink:href="#bn"/>
        <use fill="#BD86C1" opacity=".15" transform="matrix(.99803 0 0 .99803 74.753 208.196)" xlink:href="#bo"/>
        <use fill="#BD86C1" opacity=".15" transform="matrix(.99803 0 0 .99803 77.168 207.227)" xlink:href="#bp"/>
        <use fill="#BD86C1" opacity=".15" transform="matrix(.99803 0 0 .99803 67.986 217.647)" xlink:href="#bq"/>
        <use fill="#BD86C1" opacity=".15" transform="matrix(.99803 0 0 .99803 62.787 225.87)" xlink:href="#br"/>
        <use fill="#BD86C1" opacity=".15" transform="matrix(.99803 0 0 .99803 64.873 223.096)" xlink:href="#bs"/>
        <g>
            <use fill="#66636C" transform="matrix(.99803 0 0 .99803 81.85 192.546)" xlink:href="#bt"/>
            <use fill="#66636C" transform="matrix(.99803 0 0 .99803 54.972 184.842)" xlink:href="#bu"/>
            <use fill="#66636C" transform="rotate(-71.639 169.685 58.85) scale(.99804)" xlink:href="#bv"/>
            <use fill="#66636C" transform="matrix(.99803 0 0 .99803 75.142 209.832)" xlink:href="#bw"/>
            <use fill="#66636C" transform="matrix(.99803 0 0 .99803 51.748 200.9)" xlink:href="#bx"/>
            <use fill="#66636C" transform="matrix(.99803 0 0 .99803 61.08 204.892)" xlink:href="#by"/>
            <use fill="#66636C" transform="matrix(.99803 0 0 .99803 69.613 221.01)" xlink:href="#bz"/>
            <use fill="#66636C" transform="matrix(.99803 0 0 .99803 52.347 214.543)" xlink:href="#bA"/>
            <use fill="#66636C" transform="matrix(.99803 0 0 .99803 53.984 225.94)" xlink:href="#bB"/>
            <use fill="#66636C" transform="matrix(.99803 0 0 .99803 59.234 217.597)" xlink:href="#bC"/>
            <use fill="#66636C" transform="matrix(.99803 0 0 .99803 54.244 235.592)" xlink:href="#bD"/>
            <g transform="matrix(.99803 0 0 .99803 -7392.43 -1509.03)">
                <use fill="#66636C" transform="translate(7483 1674.06)" xlink:href="#bE"/>
            </g>
        </g>
    </g>
    <g>
        <use fill="#BD86C1" opacity=".15" transform="matrix(.99803 0 0 .99803 0 151.148)" xlink:href="#bF"/>
        <use fill="#BD86C1" opacity=".15" transform="matrix(.99803 0 0 .99803 1.817 152.855)" xlink:href="#bG"/>
        <use fill="#BD86C1" opacity=".15" transform="matrix(.99803 0 0 .99803 19.662 154.292)" xlink:href="#bH"/>
        <use fill="#BD86C1" opacity=".15" transform="matrix(.99803 0 0 .99803 22.506 157.965)" xlink:href="#bI"/>
        <use fill="#BD86C1" opacity=".15" transform="matrix(.99803 0 0 .99803 14.642 165.969)" xlink:href="#bJ"/>
        <use fill="#BD86C1" opacity=".15" transform="matrix(.99803 0 0 .99803 18.304 169.96)" xlink:href="#bK"/>
        <use fill="#BD86C1" opacity=".15" transform="matrix(.99803 0 0 .99803 7.136 179.612)" xlink:href="#bL"/>
        <use fill="#BD86C1" opacity=".15" transform="matrix(.99803 0 0 .99803 6.118 190.54)" xlink:href="#bM"/>
        <use fill="#BD86C1" opacity=".15" transform="matrix(.99803 0 0 .99803 1.817 197.227)" xlink:href="#bN"/>
        <use fill="#BD86C1" opacity=".15" transform="matrix(.99803 0 0 .99803 12.955 181.398)" xlink:href="#bO"/>
        <use fill="#BD86C1" opacity=".15" transform="matrix(.99803 0 0 .99803 39.772 167.995)" xlink:href="#bP"/>
        <use fill="#BD86C1" opacity=".15" transform="matrix(.99803 0 0 .99803 29.003 180.9)" xlink:href="#bQ"/>
        <use fill="#BD86C1" opacity=".15" transform="matrix(.99803 0 0 .99803 32.556 179.552)" xlink:href="#bR"/>
        <use fill="#BD86C1" opacity=".15" transform="matrix(.99803 0 0 .99803 20.1 187.736)" xlink:href="#bS"/>
        <use fill="#BD86C1" opacity=".15" transform="matrix(.99803 0 0 .99803 14.153 194.133)" xlink:href="#bT"/>
        <use fill="#BD86C1" opacity=".15" transform="matrix(.99803 0 0 .99803 16.688 191.948)" xlink:href="#bU"/>
        <g>
            <use fill="#66636C" transform="matrix(.99803 0 0 .99803 39.752 165.27)" xlink:href="#bV"/>
            <use fill="#66636C" transform="matrix(.99803 0 0 .99803 16.937 151.607)" xlink:href="#bW"/>
            <use fill="#66636C" transform="scale(.998) rotate(-57.621 162.673 65.727)" xlink:href="#bX"/>
            <use fill="#66636C" transform="matrix(.99803 0 0 .99803 30.69 181.378)" xlink:href="#bY"/>
            <use fill="#66636C" transform="matrix(.99803 0 0 .99803 10.47 166.089)" xlink:href="#bZ"/>
            <use fill="#66636C" transform="matrix(.99803 0 0 .99803 19.053 171.498)" xlink:href="#ca"/>
            <use fill="#66636C" transform="matrix(.99803 0 0 .99803 22.935 190.31)" xlink:href="#cb"/>
            <use fill="#66636C" transform="matrix(.99803 0 0 .99803 7.995 179.143)" xlink:href="#cc"/>
            <use fill="#66636C" transform="matrix(.99803 0 0 .99803 7.136 190.31)" xlink:href="#cd"/>
            <use fill="#66636C" transform="matrix(.99803 0 0 .99803 14.522 183.145)" xlink:href="#ce"/>
            <use fill="#66636C" transform="matrix(.99803 0 0 .99803 5.39 199.373)" xlink:href="#cf"/>
        </g>
    </g>
    <g>
        <use fill="#66636C" transform="matrix(.99803 0 0 .99803 152.05 160.919)" xlink:href="#cg"/>
        <use fill="#66636C" transform="matrix(.99803 0 0 .99803 141.82 163.154)" xlink:href="#ch"/>
        <use fill="#66636C" transform="matrix(.99803 0 0 .99803 147.929 167.616)" xlink:href="#ci"/>
        <use fill="#66636C" transform="matrix(.99803 0 0 .99803 230.127 160.919)" xlink:href="#cj"/>
        <use fill="#66636C" transform="matrix(.99803 0 0 .99803 269.639 163.154)" xlink:href="#ck"/>
        <use fill="#66636C" transform="matrix(.99803 0 0 .99803 265.048 167.616)" xlink:href="#cl"/>
    </g>
    <g transform="matrix(.99803 0 0 .99803 -7392.43 -1509.03)">
        <use fill="#66636C" transform="translate(7592.1 1723.31)" xlink:href="#cm"/>
    </g>
    <g opacity=".05" transform="matrix(.99803 0 0 .99803 -7392.43 -1509.03)">
        <use fill="#5395AA" transform="translate(7640.57 1667.94)" xlink:href="#cn"/>
    </g>
    <g opacity=".05" transform="matrix(.99803 0 0 .99803 -7392.43 -1509.03)">
        <use fill="#5395AA" transform="translate(7559.66 1666.77)" xlink:href="#co"/>
    </g>
    <g opacity=".05" transform="matrix(.99803 0 0 .99803 -7392.43 -1509.03)">
        <use fill="#5395AA" transform="translate(7501.16 1581.48)" xlink:href="#cp"/>
    </g>
    <g opacity=".05" transform="matrix(.99803 0 0 .99803 -7392.43 -1509.03)">
        <use fill="#5395AA" transform="translate(7567.48 1594.97)" xlink:href="#cq"/>
    </g>
    <g opacity=".05" transform="matrix(.99803 0 0 .99803 -7392.43 -1509.03)">
        <use fill="#5395AA" transform="translate(7638.62 1596.92)" xlink:href="#cr"/>
    </g>
    <g opacity=".05" transform="matrix(.99803 0 0 .99803 -7392.43 -1509.03)">
        <use fill="#5395AA" transform="translate(7506.73 1580.48)" xlink:href="#cs"/>
    </g>
    <defs>
        <path id="a" d="M30.976 39.133c-.117-1.532 6.245.59 6.952-.589 1.178-2.003.353-8.365 1.65-10.604 1.178-2.003 6.597-2.356 6.48-4.713-.118-1.414-1.414-1.414-1.414-2.474.118-2.828 3.888-9.662 6.127-11.665C55.13 5.2 54.54-.337 48.53.016 42.76.252 37.575 3.551 32.509 6.143c-2.474 1.296-5.184 2.239-7.658 3.652a15.01 15.01 0 0 0-2.24 1.532l-1.413-.353c-5.066-.943-8.601 3.18-8.837 7.069-4.123 1.532-8.954 2.12-11.31 6.362-2.357 4.36-.472 6.48 2.945 9.662 0 .825 1.414 3.417 1.65 4.36 1.531 5.773 5.537 8.483 10.84 8.365 4.476 6.126 7.186 8.012 13.549 1.65 2.828-2.829 1.06-5.42.942-9.309z"/>
        <path id="b" d="M23.266 41.364c.589-1.06.589-2.356.235-3.534 2.592-2.357 5.773-4.242 7.54-7.423 1.297-2.357.943-5.538 2.122-7.894.824-.825 1.65-1.532 2.356-2.357 1.414-1.413 1.414-3.534.471-5.066.825-1.532 1.768-3.063 2.828-4.477 1.06-1.296 2.239-2.475 3.3-3.653 3.77-3.77-1.65-9.308-5.656-5.89a36.393 36.393 0 0 0-4.124 4.476c-4.477 5.42-8.248 11.43-12.371 17.202-1.886 1.179-4.124 2.121-6.598 2.828-1.768.471-2.71 1.65-2.946 3.064-.236-.118-.471-.236-.825-.236-.707-.118-1.296-.236-2.003-.236-2.356-3.417-8.719-1.531-7.423 3.064.118.471.354 1.06.472 1.531-.118.943-.118 1.886.353 2.71 2.71 4.36 6.127 6.598 10.369 7.54.47 2.24 2.592 3.89 4.948 3.3 3.652-.825 5.42-2.003 6.952-4.949z"/>
        <path id="c" d="M9.368 6.557c.825-1.178.589-2.238.825-3.535v-.117c.117-.118.235-.236.235-.354C11.724.784 8.778-1.1 7.365.784 6.069 2.55 4.537 6.086 1.827 6.322.295 6.439-.883 8.678.885 9.62c2.12 1.06 4.006.942 5.89-.472 1.061-.824 2.004-1.767 2.593-2.592z"/>
        <path id="d" d="M17.085 2.74c.825-1.06-.353-2.592-1.414-2.71-.942-.118-1.65.118-2.474.59-1.296.588-2.356 1.06-3.77 1.413-1.296.353-1.885.59-3.064-.118C5.54 1.326 4.713.737 3.771.265 2.475-.322 1.297.62 1.18 1.563.12 2.033-.47 3.329.472 4.389 1.768 5.803 2.475 7.453 4.36 8.16c1.65.708 3.417.826 5.067.354 3.181-.824 5.655-3.299 7.658-5.773z"/>
        <path id="e" d="M8.839 3.754c0-.118-.118-.235-.118-.471l.353-1.06C9.546-.016 6.13-.96 5.657 1.28c-.47 2.356-3.18 3.888-4.712 5.538-1.297 1.531-1.532 4.123 1.06 4.36 3.063.353 7.658-4.242 6.834-7.424z"/>
        <path id="f" d="M9.755 8.39c-.236-.118-.354-.354-.59-.472 1.532-.471 2.475-2.12 3.064-3.77.825-2.121-2.592-3.064-3.417-.943-.118.354-.236.707-.471.943-.236.353-.236.471-.354.118-.117 0-.47-.472-.589-.59C6.81 2.97 6.22 2.263 5.631 1.673 4.335.377 2.803-.447.918.26.093.613-.26 1.91.211 2.616c1.06 1.532 2.592 2.592 3.653 4.242 1.06 1.767 2.238 3.299 3.888 4.477 2.003 1.296 3.888-1.65 2.003-2.946z"/>
        <path id="g" d="M7.314 1.997c-.118-.236-.353-.354-.707-.472C6.49-.125 3.78-.713 3.19 1.172 2.72 2.704 1.54 3.646.48 4.942-.462 6.12.01 7.77 1.66 8.006c1.413.117 3.063-.825 4.241-1.532 1.532-1.06 2.71-2.71 1.414-4.477z"/>
        <path id="h" d="M4.605 3.073c.117-.707.117-1.296-.236-1.885C3.898.363 3.073.01 2.13.01 1.188-.108.363.835.363 1.777c0 .472.118.825.353 1.06-.706.472-.942 1.532-.47 2.24.47.824 1.53 1.06 2.356.706.942-.589 1.767-1.65 2.003-2.71z"/>
        <path id="i" d="M7.271 4.477c.472-.707 1.06-1.767.943-2.71C8.096.825 7.507 0 6.447 0c-.59 0-1.296.353-1.532.943a.9.9 0 0 0-.59.235c-1.06.59-2.356.707-3.416 1.296-2.003 1.06-.354 4.242 1.65 3.064.47.707 1.295 1.178 2.238.942C5.975 6.245 6.8 5.302 7.271 4.477z"/>
        <path id="j" d="M10.044 2.345C10.398.931 8.513-.6 7.1.695c-.707.708-1.414 1.061-2.239 1.532-.118-.117-.118-.235-.235-.235C4.035 1.285 3.446.578 2.622.224 1.797-.129.972-.129.382.696c-.47.707-.588 1.65.119 2.238.825.707 1.414 1.65 2.12 2.239.236.353.472.589.707.942.943.825 2.003 1.297 3.182 1.06 2.12-.588 4.123-2.709 3.534-4.83z"/>
        <path id="k" d="M5.042 6.486V5.66c1.06-.59 1.885-1.65 2.828-2.356.824-.59 1.178-1.414.707-2.357C8.223.241 6.927-.348 6.22.241c-.825.59-1.532 1.296-2.238 1.885v-.353C3.864.359 1.979.123 1.036.948c-1.65 1.532-1.178 3.653.353 4.713.118.236.236.59.236.707-.353 2.356 3.181 2.356 3.417.118z"/>
        <path id="l" d="M8.979 1.53C7.683.352 6.151.234 4.737.823 4.148-.002 2.97-.355 2.145.469c-.824.825-.942 1.65-.824 2.475-.236.235-.59.471-.825.824-1.532 1.65.825 4.124 2.474 2.593l.118-.118c.589.471 1.296.589 2.003.235 1.06-.589 1.885-1.767 3.063-2.003 1.178-.235 1.768-2.12.825-2.945z"/>
        <path id="m" d="M3.775.564C3.304.092 2.597-.143 1.89.092 1.3.092.594.328.24.917c-.471.825-.235 1.885.59 2.357.942.589 2.002.47 2.827-.354.707-.589.707-1.65.118-2.356z"/>
        <path id="n" d="M5.055.358c-.118.118-.353.118-.471.236C4.466.476 4.348.358 4.113.24 3.406-.23 2.11.005 1.756.83 1.166 2.007.813 3.303.224 4.481c-.353.825-.353 1.65.472 2.238.589.472 1.767.59 2.238-.117 1.06-1.296 2.239-2.475 3.77-3.182C8.826 2.48 7.059-.702 5.056.358z"/>
        <path id="o" d="M4.155 1.665C3.919 1.194 3.684.84 3.33.487c-.707-.59-1.767-.707-2.474 0C.62.723.502.958.385 1.312c0 .118-.118.118-.118.235-.59.943-.118 1.886.589 2.357.825.589 1.767.589 2.592.236.943-.472 1.06-1.65.707-2.475z"/>
        <path id="p" d="M4.806 1.314C4.571.37 3.628-.1 2.686.018 2.095.136 1.506.253.917.607.093.96-.26 2.139.211 2.963c.471.825 1.532 1.179 2.357.707.235-.118.47-.118.942-.235.825-.118 1.414-1.179 1.296-2.121z"/>
        <path id="q" d="M1.673 12.39a1 1 0 0 0 1.28-1.537l-1.28 1.537zM1.607 2.314l.754.656.014-.016-.768-.64zm8.651.047A1 1 0 1 0 11.572.852l-1.313 1.51zm-7.304 8.492C.572 8.87.359 5.273 2.36 2.97L.852 1.657c-2.71 3.118-2.453 8.005.821 10.733l1.28-1.537zm-.58-7.9C4.36.574 7.957.36 10.259 2.362L11.572.852C8.453-1.858 3.567-1.6.838 1.673l1.537 1.28z"/>
        <path id="r" d="M9.241-.768A1 1 0 1 0 7.961.768L9.24-.768zm.067 10.076l-.755-.656-.013.016.768.64zM.656 9.26a1 1 0 0 0-1.312 1.51L.656 9.26zM7.961.768c2.381 1.985 2.595 5.581.592 7.884l1.51 1.312c2.71-3.117 2.452-8.004-.822-10.732L7.961.768zm.579 7.9c-1.985 2.381-5.581 2.594-7.884.592l-1.312 1.51c3.117 2.71 8.004 2.452 10.732-.822L8.54 8.668z"/>
        <path id="s" d="M18.558 9.78a8.78 8.78 0 0 1-8.779 8.778v2c5.954 0 10.78-4.825 10.78-10.779h-2zM9.78 18.557A8.78 8.78 0 0 1 1 9.78h-2c0 5.954 4.826 10.78 10.78 10.78v-2zM1 9.78A8.78 8.78 0 0 1 9.78 1v-2C3.825-1-1 3.826-1 9.78h2zM9.78 1a8.78 8.78 0 0 1 8.778 8.78h2C20.558 3.825 15.733-1 9.78-1v2z"/>
        <path id="t" d="M-.647 7.115a1 1 0 0 0 1.88-.684l-1.88.684zm9.544-3.417a1 1 0 1 0 1.88-.683l-1.88.683zM1.233 6.431c-.75-2.06.38-4.44 2.465-5.198l-.683-1.88C-.085.48-1.783 3.992-.647 7.115l1.88-.684zm2.465-5.198c2.061-.75 4.44.38 5.199 2.465l1.88-.683c-1.128-3.1-4.64-4.798-7.762-3.662l.683 1.88z"/>
        <path id="u" d="M.171 9.03A1 1 0 1 0-.17 11L.17 9.03zm5.72-3.139l-.985-.171-.001.007.986.164zM1.931-.986A1 1 0 0 0 1.604.986l.329-1.972zM-.17 11c3.226.561 6.481-1.54 7.049-4.944l-1.973-.33C4.53 7.978 2.365 9.412.17 9.03L-.17 11zm7.047-4.938c.561-3.226-1.54-6.48-4.944-7.048L1.602.986c2.251.375 3.685 2.54 3.304 4.734l1.97.342z"/>
        <path id="v" d="M-.761 1.995A1 1 0 1 0 .76 3.292L-.76 1.995zm11.429 9.78a1 1 0 0 0 1.522 1.296l-1.522-1.297zM.76 3.291C3.11.536 7.191.225 9.956 2.58l1.296-1.522C7.655-2.007 2.311-1.611-.76 1.995L.76 3.292zm9.195-.712c2.756 2.348 3.067 6.43.712 9.194l1.522 1.297c3.064-3.597 2.668-8.942-.938-12.013L9.957 2.58z"/>
        <path id="w" d="M-.716 5.284a1 1 0 0 0 1.873-.702l-1.873.702zM6.235 2.81a1 1 0 1 0 1.873-.702l-1.873.702zM1.157 4.582C.659 3.254 1.4 1.685 2.81 1.157L2.108-.716c-2.361.885-3.74 3.558-2.824 6l1.873-.702zM2.81 1.157C4.138.659 5.707 1.4 6.235 2.81l1.873-.702c-.885-2.361-3.558-3.74-6-2.824l.702 1.873z"/>
        <path id="x" d="M.174 6.32a1 1 0 0 0-.348 1.97l.348-1.97zm4.068-2.078l-.985-.174-.002.01.987.164zm-2.9-5.228A1 1 0 1 0 1.015.986l.329-1.972zM-.173 8.29c2.556.45 4.958-1.22 5.402-3.884l-1.973-.329C2.992 5.655 1.624 6.577.174 6.32l-.348 1.97zm5.4-3.875C5.677 1.86 4.006-.542 1.343-.986L1.013.986c1.579.263 2.5 1.632 2.244 3.082l1.97.347z"/>
        <path id="y" d="M10.017 11.018a1 1 0 1 0 .703 1.873l-.703-1.873zm2.708-3.777l.954-.298a.985.985 0 0 0-.018-.053l-.936.351zM8.012 4.885l-.64.768a1 1 0 0 0 .938.186l-.298-.954zm-.707-.59l-.985-.173a1 1 0 0 0 .345.942l.64-.768zm-8.29-1.351a1 1 0 0 0 1.97.347l-1.97-.347zM10.72 12.89c2.367-.888 3.713-3.54 2.96-5.948l-1.909.597c.426 1.363-.349 2.952-1.753 3.478l.703 1.873zm2.942-6c-.887-2.367-3.54-3.713-5.947-2.96l.596 1.908c1.363-.425 2.952.35 3.479 1.754l1.872-.703zM8.652 4.116l-.707-.59-1.28 1.537.707.59 1.28-1.537zm-.362.353c.456-2.585-1.366-4.958-3.875-5.4l-.347 1.97c1.497.263 2.503 1.66 2.252 3.082l1.97.348zM4.415-.93C1.831-1.388-.542.434-.985 2.943l1.97.347C1.249 1.794 2.646.788 4.068 1.04l.347-1.97z"/>
        <path id="z" d="M-.762 1.296A1 1 0 1 0 .762 2.592L-.762 1.296zm8.538.059l-.647.762.647-.762zm-.173 7.128A1 1 0 0 0 9.127 9.78L7.603 8.483zM.762 2.592C2.398.666 5.182.462 7.129 2.117L8.424.593C5.657-1.76 1.608-1.491-.762 1.296L.762 2.592zm6.367-.475c1.925 1.636 2.129 4.42.474 6.366L9.127 9.78c2.352-2.767 2.085-6.816-.703-9.186L7.129 2.117z"/>
        <path id="A" d="M-.76.749A1 1 0 0 0 .76 2.05L-.76.75zm6.128 5.184a1 1 0 0 0 1.518 1.302L5.368 5.933zM.759 2.05C1.824.808 3.787.644 5.005 1.688L6.306.169C4.225-1.615 1.003-1.307-.759.75L.759 2.05zm4.246-.362c1.242 1.065 1.406 3.027.363 4.245l1.518 1.302C8.67 5.153 8.363 1.932 6.306.169L5.005 1.688z"/>
        <path id="B" d="M17.371.652a1 1 0 0 0-1.516-1.304L17.37.652zM-.759 18.67a1 1 0 1 0 1.517 1.304L-.758 18.67zM15.856-.652L-.758 18.671l1.516 1.304L17.371.652 15.855-.652z"/>
        <path id="C" d="M12.782-.292a1 1 0 0 0-1.292 1.527l1.292-1.527zM3.537.806A1 1 0 1 0 2.354-.806L3.537.806zm7.953.429c1.304 1.103 2.12 2.825 2.12 4.656h2c0-2.41-1.069-4.694-2.828-6.183L11.49 1.235zm2.12 4.656c0 3.454-2.851 6.305-6.305 6.305v2c4.558 0 8.305-3.747 8.305-8.305h-2zm-6.305 6.305C3.851 12.196 1 9.345 1 5.891h-2c0 4.558 3.747 8.305 8.305 8.305v-2zM1 5.891C1 3.854 2.026 1.914 3.537.806L2.354-.806C.33.678-1 3.216-1 5.89h2z"/>
        <path id="D" d="M12.113-.824A1 1 0 1 0 10.98.824l1.133-1.648zM2.858 1.5A1 1 0 0 0 1.384.15L2.858 1.5zM10.98.824c1.602 1.102 2.63 3.026 2.63 5.185h2c0-2.79-1.329-5.343-3.497-6.833L10.98.824zm2.63 5.185c0 3.454-2.851 6.305-6.305 6.305v2c4.558 0 8.305-3.747 8.305-8.305h-2zm-6.305 6.305C3.851 12.314 1 9.463 1 6.009h-2c0 4.558 3.747 8.305 8.305 8.305v-2zM1 6.009C.976 4.223 1.656 2.794 2.858 1.5L1.384.15C-.006 1.683-.976 3.789-1 6.009h2z"/>
        <path id="E" d="M-1 47.483a1 1 0 1 0 2 0h-2zm72.579 42.062a1 1 0 1 0 2 0h-2zM1 47.482V30.635h-2v16.849h2zm0-16.848C1 14.22 14.22 1 30.634 1v-2C13.115-1-1 13.115-1 30.634h2zM30.634 1h11.31v-2h-11.31v2zm11.31 0C58.36 1 71.58 14.22 71.58 30.634h2C73.579 13.115 59.464-1 41.945-1v2zM71.58 30.634v58.911h2V30.634h-2z"/>
        <path id="F" d="M-1 18.498a1 1 0 1 0 2 0h-2zM1 0a1 1 0 1 0-2 0h2zm0 18.498V0h-2v18.498h2z"/>
        <path id="G" d="M198.977 91.918c2.945-3.417 14.138 4.712 15.906.589 3.063-7.188 5.655-22.976-1.178-35.347-3.889-6.952-3.299-15.317-3.653-23.329-.236-6.598.589-13.55-.707-20.148C205.693-4.933 184.367.487 170.699 1.548c-9.779.824-19.676-.707-29.573-.472-9.544.354-19.205 1.179-28.749 1.414-9.543.236-19.087-.353-28.63-.353-7.895 0-16.967-1.296-24.743.353-3.889.825-7.305 2.71-10.015 5.538-1.179 1.178-2.121 2.592-3.064 3.888-.353.471-1.767 1.885-1.06 1.414-2.474 1.296-5.773 1.414-8.366 2.592-4.006 1.767-7.069 4.595-9.661 8.13-2.356 3.299-3.888 6.834-5.773 10.368-1.886 3.535-4.006 6.834-5.774 10.486-2.945 6.363-3.417 12.254-2.945 18.734-1.414 1.885-2.71 3.888-3.653 5.891-5.066 10.958-3.299 23.447-3.417 35.111-.117 13.079-1.06 26.157-2.356 39.235-.707 6.363-1.885 12.843-1.532 19.205.118 3.064 1.06 6.245 2.592 8.837-.353 1.178-.589 2.474-.942 3.653-3.181 13.549-6.834 34.168 6.009 44.183 5.302 4.124 11.664 5.066 18.262 5.42 7.07.353 14.257.707 21.326 1.06 18.97.943 38.057.118 57.026 0 14.375-.118 28.631 1.061 43.006 1.178 19.205.118 43.594.118 52.666-19.676 2.828-6.009-.825-10.957-3.181-17.32-2.356-6.362-3.063-11.075-7.894-15.67-4.949-4.713-2.592-12.843-2.003-19.794.118-2.003.353-5.891 2.238-7.07 2.239-1.531 7.541-.942 10.251-1.414 5.538-1.178 7.894-7.069 6.952-12.017-.707-3.653-2.71-6.952-5.185-9.78-2.12-2.356-5.302-4.241-7.069-6.833-1.532-2.239-1.649-5.185-1.885-7.895-.354-3.534-.471-7.894 1.178-11.193 1.178-1.885 2.592-5.066 4.242-6.833zm-38.293-70.694c-.235.825-2.003 4.36-2.12 5.302-.59 6.716-8.601 6.48-11.783 2.946-.942-1.06-.235-7.895-1.178-8.955l3.299-2.828c5.067-.117 6.834-2.003 11.782 3.535zM84.1 16.864c6.951 5.42 2.003 12.136-2.121 13.55-.236.118-8.837 1.178-8.837-1.296 0-2.356 0-4.83-.118-7.187 2.003-3.063 7.305-8.13 11.076-5.066z"/>
        <path id="H" d="M0-1a1 1 0 1 0 0 2v-2zm53.02 12.075l-.998.057v.004l.998-.06zm1.358 38.59a1 1 0 1 0 1.997-.123l-1.996.122zM0 1h41.238v-2H0v2zm41.238 0c5.721 0 10.46 4.424 10.784 10.132l1.997-.113C53.635 4.237 48.005-1 41.238-1v2zm10.784 10.136l2.357 38.528 1.996-.122-2.357-38.528-1.996.122z"/>
        <path id="I" d="M0-1a1 1 0 1 0 0 2v-2zm49.486 2a1 1 0 0 0 0-2v2zM0 1h49.486v-2H0v2z"/>
        <path id="J" d="M185.587 149.456a1 1 0 1 0 0-2v2zM.017 126.541l-1-.047v.008l1 .039zM7.025.047a1 1 0 1 0-1.998-.094l1.998.094zm178.562 147.409H21.107v2h164.48v-2zm-164.48 0c-11.448 0-20.54-9.541-20.091-20.875l-1.998-.079c-.494 12.465 9.501 22.954 22.089 22.954v-2zM1.016 126.589L7.025.047 5.027-.047l-6.01 126.541 1.999.095z"/>
        <path id="K" d="M57.387 50.784c-1.178-3.535-4.595-5.42-8.483-6.48-2.592-1.532-5.774-2.357-9.19-2.71-7.188-.825-14.728-1.296-22.033-.825 1.296-1.65 2.356-3.417 3.299-5.42a23.005 23.005 0 0 0 2.003-2.71c.471-.589 1.06-1.296 1.65-2.003.47-.471.942-.825 1.413-1.178 2.357-1.65 7.54-7.305 8.837-9.78 4.241-7.658 9.072-7.776 7.305-16.73-.59-3.063-4.124-3.888-6.245-1.767-.825.824-1.532 1.767-2.238 2.827a33.352 33.352 0 0 0-5.656 6.48c-4.241.354-6.951 5.538-8.483 9.073-.59 1.414-1.178 3.063-1.767 4.713-2.592 2.12-4.595 4.595-6.245 7.305-4.242 3.535-8.365 7.187-10.84 12.607-.118.353-.235.707-.353.942-.825 1.768-.236 4.124 1.767 4.831 6.363 2.356 14.021.59 21.09-.236 10.369 2.475 20.266 6.127 31.223 5.774 2.592 0 3.535-2.71 2.946-4.713z"/>
        <path id="L" d="M23.015 28.577c-1.179-4.006-2.71-7.305-5.42-10.486C15.356 11.375 12.882 3.01 5.695.3c-4.949-1.885-8.13 5.656-3.3 7.54.354.118.59.236.825.472-.353.707-.47 1.414-.235 2.356 1.06 3.889 3.063 4.831 3.77 8.72.471 2.945 2.71 3.77 4.006 6.597.943 2.003 2.474 8.248 4.242 7.777 1.413 6.362 1.178 11.428 2.945 17.79.943 3.418 6.363 3.182 7.54.119 2.946-7.541-.353-15.789-2.473-23.094z"/>
        <path id="M" d="M13.58 1.886c-3.417 6.01-7.187 13.196-8.719 20.03-.825 3.417-.942 6.834-1.414 10.368-.471 3.3-1.531 6.245-1.414 9.544C.973 44.067-.205 46.07.03 49.015c.236 4.477 7.188 3.535 6.952-.943-.118-1.06.59-2.356 1.296-3.77.353-.353.471-.825.707-1.296.471-.825.825-1.65.943-2.356.824-3.77 1.295-7.54 2.12-11.311l.354-1.768c.471-1.531 1.06-3.063 1.65-4.477 1.767-4.595 4.123-8.954 4.24-13.903v-.707c.708-1.296 1.415-2.592 2.122-3.77C22.18.708 15.819-2.002 13.58 1.886z"/>
        <path id="N" d="M17.703 46.39c-.117-.47-.235-.942-.353-1.53 0-3.771-.707-7.188-1.296-10.84-.707-4.831-.943-9.662-1.767-14.375-1.179-7.07-3.3-13.785-8.484-18.852C3.918-1.092.383.676.148 3.033c-.825 7.186 2.003 15.552 3.534 22.503 1.65 7.54 5.302 14.257 7.07 21.797 1.06 4.242 8.012 3.417 6.951-.942z"/>
        <path id="O" d="M32.999.06c-3.3.708-6.01 2.004-8.484 3.535-.824-.942-2.12-1.296-3.652-.706-3.888 1.65-8.012 5.184-11.193 8.954-2.828 1.178-5.538 2.239-8.13 3.77-3.888 2.357.354 7.895 4.242 5.656.353-.236.825-.471 1.178-.707 1.06.825 2.474 1.296 3.77.825 2.946-.943 5.302-2.592 7.894-4.242 3.064-1.885 5.892-2.356 9.308-3.181 5.185-1.414 8.366-4.477 8.955-9.897C37.24 1.946 35.355-.41 32.999.06z"/>
        <path id="P" d="M13.122 8.697c-.354-.943-.943-1.414-1.65-1.767 0-1.296 0-2.593-.117-4.006-.472-4.478-7.423-3.535-6.952.942.707 7.894-1.767 16.495-2.828 24.272-.942 7.894-2.238 15.788-1.178 23.8.471 3.181 5.538 4.36 6.716.942 2.946-8.6 2.945-17.32 4.477-26.156 1.178-5.891 3.888-12.136 1.532-18.027z"/>
        <path id="Q" d="M29.506 4.106c.118-2.356-2.239-5.066-4.83-3.77-6.717 3.417-12.49 9.308-16.142 15.906-2.121 3.888-2.946 8.13-4.36 12.136C2.642 32.855.757 36.978.05 41.692c-.707 4.477 6.245 5.42 6.952.942 0-.118 0-.235.118-.353.707-.354 1.414-.825 1.885-1.768 1.532-3.299 4.36-5.89 6.127-9.072 2.003-3.417 4.124-6.48 6.48-9.661 4.124-5.42 7.54-10.84 7.894-17.674z"/>
        <path id="R" d="M32.995.018c-3.888.353-15.081 8.6-18.97 8.365-3.534-.236-6.95-1.06-9.66 1.532-3.3 3.18-6.599 2.945-2.357 4.241-2.828-.942 6.833 0 7.305 0 1.296.118 4.83-2.356 6.009-2.356 3.299.118 5.184-2.239 8.483-2.592 4.595-.472 13.667-9.662 9.19-9.19z"/>
        <path id="S" d="M17.937 1.445c-2.945 4.713-6.598 8.837-9.19 13.785-.942 1.768-1.885 3.417-2.828 5.185-1.178 0-2.356.589-3.063 2.003C1.324 25.48.382 28.662.028 32.079c-.47 3.888 5.067 5.538 6.716 1.885 2.121-4.713 5.184-9.19 7.54-13.903 2.475-5.184 6.245-9.426 9.309-14.138 2.238-3.889-3.181-8.248-5.656-4.478z"/>
        <path id="T" d="M14.61 1.97c.118-1.885-2.592-2.828-3.299-.942-1.178 2.827-1.65 5.655-2.239 8.6-.942 4.242-2.356 6.599-5.302 9.662-.353.354-.707.707-.942 1.06-.943-.47-2.357-.117-2.592 1.296-.472 3.77.117 7.541-.236 11.43 0 .588.118.942.353 1.295v.59c.118 1.296 1.886 2.002 2.828 1.178 3.3-3.064 4.477-7.894 6.01-12.018 2.591-7.187 4.948-14.375 5.419-22.15z"/>
        <path id="U" d="M5.987 31.46c-.236-1.179-.471-2.24-.59-3.418.119-.235.237-.47.237-.706 1.06-8.837 1.885-17.085-.354-25.804C4.927.236 3.63-.47 2.452.354-.847 2.711.096 8.72.214 12.136c.353 6.48.942 13.432 2.238 19.795.472 2.12 4.006 1.65 3.535-.472z"/>
        <path id="V" d="M4.9 3.322c-.117-.825-.706-1.179-1.295-1.414-.118-.236-.118-.472-.236-.825C2.78-1.037-.519.258.07 2.379c1.885 6.716-2.474 18.262 2.828 24.154-.118.824-.354 1.531-.471 2.356-.354 2.239 3.18 2.71 3.416.471.118-1.06.354-2.12.59-3.063 5.302-6.009 0-16.26-1.532-22.975z"/>
        <path id="W" d="M29.12.644C27 3.236 24.998 5.946 22.524 8.42c-2.239 2.239-5.184 3.535-7.423 5.774-.353.353-.707.824-1.06 1.296-.472-.118-1.06.117-1.414.707-2.71 4.123-6.952 5.89-8.72 10.722l-2.827 1.06c-2.003.707-.942 3.417.943 3.417a9.19 9.19 0 0 0 2.592-.354c.589.236 1.296.236 1.767-.118.236-.235.471-.353.707-.589 3.417-1.414 5.891-4.123 7.54-7.658 2.24-1.414 4.714-2.357 6.717-4.006 4.83-4.242 7.658-10.486 10.721-16.024 1.06-2.12-1.649-3.535-2.945-2.003z"/>
        <path id="X" d="M56.25 6.02c-1.886.118-3.889.354-5.774.472-2.239-.354-4.595-.943-6.716-1.296-4.595-.59-9.072-.943-13.55-1.767-6.833-1.179-13.55-2.357-20.5-2.24C7.116.837 4.524.366 1.932.013c-2.239-.236-2.71 3.18-.471 3.417l2.474.353c.236.59.825 1.06 1.767 1.06 1.296-.117 2.475-.235 3.77-.235 7.07 1.06 14.14 2.356 21.091 3.417 4.36.707 8.601 1.65 12.96 2.003 2.593.235 5.067 0 7.659-.236 2.003.236 3.888.118 6.009-.707 1.885-.354.942-3.181-.943-3.063z"/>
        <path id="Y" d="M17.03 54.749a1 1 0 1 0 1.999.086l-1.998-.086zM.12 5.189l.994-.12-.001-.006-.992.126zm19.913 21.68l-.965.26a.817.817 0 0 0 .01.035l.955-.296zm1.593 19.39a1 1 0 0 0 1.998.1l-1.998-.1zm-2.597 8.576c.366-8.486-3.862-17.96-8.22-26.704-2.192-4.4-4.44-8.656-6.234-12.591-1.792-3.928-3.1-7.435-3.461-10.472l-1.986.241c.404 3.267 1.806 7.066 3.627 11.06 1.818 3.989 4.083 8.275 6.265 12.654 4.39 8.811 8.352 17.834 8.01 25.726l1.999.086zM1.113 5.063c-.198-1.557-.117-2.6.097-3.242.198-.594.466-.75.703-.799.329-.069.903.008 1.759.465.87.462 1.812 1.185 2.88 2.225 4.298 4.169 9.608 12.66 12.516 23.417l1.93-.522c-2.984-11.04-8.454-19.869-13.052-24.33C6.79 1.159 5.626.267 4.614-.277c-1.027-.548-2.11-.868-3.11-.659C.41-.707-.322.09-.688 1.19c-.351 1.052-.398 2.442-.184 4.126l1.984-.252zm18.92 21.805l-.955.296.001.005.006.019.024.08a51.55 51.55 0 0 1 .427 1.548 70.78 70.78 0 0 1 .988 4.383c.702 3.639 1.337 8.38 1.102 13.06l1.998.1c.236-4.864-.424-9.843-1.136-13.539a73.664 73.664 0 0 0-1.016-4.508 54.48 54.48 0 0 0-.447-1.616l-.026-.09-.008-.024-.002-.007v-.002l-.956.295z"/>
        <path id="Z" d="M-.144 19.878a1 1 0 0 0 .288 1.979l-.288-1.98zM23.8 14.034l-.472-.882-.01.005.482.877zm-4.83-8.601l.478.877h.003l-.482-.877zM-.333 17.562a1 1 0 1 0 1.606 1.191l-1.606-1.191zM0 20.867l.144.99h.003l.01-.002a5.388 5.388 0 0 0 .169-.025l.512-.08a128.762 128.762 0 0 0 8.15-1.602c4.93-1.14 11.01-2.892 15.294-5.238l-.963-1.753c-4.083 2.25-9.902 3.915-14.781 5.042A125.824 125.824 0 0 1 .52 19.775a69.285 69.285 0 0 1-.623.097l-.032.004-.008.001h-.001l.143.99zm24.272-5.952c4.245-2.275 7.875-4.96 10.217-7.373 1.185-1.225 2.117-2.48 2.627-3.556.515-1.1.748-2.33.17-3.392l-1.757.958c.128.234.184.713-.224 1.586-.415.897-1.154 1.882-2.252 3.013-2.224 2.3-5.605 4.799-9.725 7.001l.944 1.763zM37.285.595c-.594-1.09-1.766-1.497-2.954-1.578-1.154-.074-2.668.141-4.294.575-3.208.86-7.325 2.645-11.549 4.964l.963 1.753c4.141-2.276 8.036-3.968 11.103-4.785 1.51-.406 2.698-.582 3.64-.512.907.062 1.223.333 1.335.54l1.756-.958zm-18.794 3.96a167.707 167.707 0 0 0-9.756 5.826c-1.91 1.237-3.807 2.538-5.387 3.753-1.565 1.205-2.914 2.395-3.68 3.428l1.606 1.191c.59-.793 1.745-1.842 3.294-3.034 1.536-1.182 3.365-2.436 5.254-3.659a164.6 164.6 0 0 1 9.626-5.75l-.957-1.755z"/>
        <path id="aa" d="M.596 6.089a1 1 0 1 0-.72 1.866l.72-1.866zM29.69 9.732l.284-.96h-.001l-.283.96zm29.338 2.003l.995.099.001-.012-.996-.087zM-.347 5.613a1 1 0 0 0 .694 1.875l-.694-1.875zm.223 2.342c4.346 1.676 9.127 1.508 14.01 1.377 4.931-.132 10.077-.259 15.523 1.359l.565-1.919C24.227 7.091 18.768 7.2 13.832 7.332 8.847 7.468 4.497 7.594.596 6.09l-.72 1.866zm29.532 2.736c11.987 3.543 19.382 4.668 23.853 4.576 2.232-.045 3.828-.395 4.918-.974 1.125-.599 1.746-1.472 1.845-2.459l-1.99-.199c-.02.191-.134.54-.794.892-.697.37-1.936.698-4.02.74-4.158.086-11.315-.968-23.245-4.494l-.567 1.918zm30.617 1.131c.073-.83-.295-1.762-.852-2.639-.558-.875-1.459-1.912-2.619-2.911C54.27 4.318 50.66 2.222 45.787.803 36.019-2.024 20.95-2.277-.347 5.613l.694 1.875C21.348-.292 35.97.044 45.231 2.724c4.642 1.336 7.88 3.224 10.021 5.066 1.053.9 1.76 1.713 2.233 2.465.475.75.563 1.22.548 1.392l1.992.175z"/>
        <path id="ab" d="M6.422 29.65a1 1 0 1 0 1.766.937l-1.766-.937zM33.462.31l.613-.79-.001-.001-.612.79zm-6.245 20.265l-.797-.604-.005.007.802.597zM-.379 43.096a1 1 0 1 0 .758 1.85l-.758-1.85zm8.567-12.51c4.096-7.725 9.658-15.792 14.676-21.612 2.5-2.901 4.799-5.179 6.72-6.58.939-.689 1.678-1.106 2.33-1.296.6-.18.839-.073.935.002L34.074-.48c-.817-.633-1.823-.61-2.734-.336-.858.263-1.897.839-2.937 1.597-2.037 1.493-4.502 3.928-7.054 6.888-5.086 5.904-10.775 14.155-14.927 21.982l1.766.937zM32.848 1.1c.464.36.813 1.07.859 2.298.053 1.267-.215 2.78-.787 4.579-1.147 3.64-3.424 7.937-6.5 11.995l1.594 1.207c3.169-4.19 5.604-8.788 6.813-12.6.608-1.926.928-3.779.878-5.256-.057-1.515-.503-2.926-1.63-3.802l-1.227 1.579zm-6.433 18.879C22.617 25.083 15.727 36.546-.38 43.096l.758 1.85c16.648-6.88 23.897-18.746 27.64-23.774l-1.604-1.194z"/>
        <path id="ac" d="M-1 38.937a1 1 0 0 0 2 .041l-2-.04zM15.67.665l-.74.673a.817.817 0 0 0 .017.018l.723-.69zM.594 51.217a1 1 0 0 0 1.875.696l-1.875-.696zM1 38.978C1.168 30.49 3.866 19.8 7.127 11.794c1.63-4.005 3.362-7.228 4.926-9.113.794-.957 1.452-1.453 1.932-1.619.355-.122.62-.083.946.276l1.48-1.345c-.853-.937-1.95-1.21-3.079-.821-1.004.346-1.95 1.186-2.818 2.232-1.76 2.121-3.585 5.57-5.24 9.636C1.966 19.176-.814 30.223-1 38.937l2 .041zM14.947 1.356c.906.949 1.293 2.76.95 5.723-.336 2.934-1.338 6.626-2.81 11.031C10.14 26.942 5.373 38.355.594 51.218l1.875.696c4.765-12.824 9.543-24.268 12.515-33.17 1.489-4.46 2.541-8.353 2.9-11.435.354-3.053.078-5.69-1.49-7.333l-1.447 1.38z"/>
        <path id="ad" d="M12.145 55.468a1 1 0 0 0 1.92-.56l-1.92.56zM1.558 16.309l.957-.292-.001-.004-.956.295zm6.363-10.84l-.865.502.003.005.862-.508zm5.598 40.973a1 1 0 1 0 2 .058l-2-.058zm-.414 8.747l.96-.28-.002-.004-.003-.012-.014-.049-.057-.193-.218-.746a4469.047 4469.047 0 0 0-3.625-12.342 3332.08 3332.08 0 0 0-7.631-25.546L.6 16.598a3328.07 3328.07 0 0 1 7.627 25.53 5465.528 5465.528 0 0 1 3.624 12.337l.217.746.057.192.014.05.004.011v.004l.96-.28zM2.514 16.012A34.202 34.202 0 0 1 1.049 8.06c-.15-2.494.052-4.558.52-5.842.237-.647.497-.977.697-1.116.139-.097.311-.155.647-.029.391.147.955.535 1.683 1.351.74.828 1.54 1.965 2.46 3.547l1.729-1.005C7.82 3.307 6.9 2.007 6.089 1.092 5.264.167 4.442-.49 3.616-.8c-.88-.33-1.757-.256-2.497.262C.441-.063-.008.705-.309 1.531c-.607 1.661-.795 4.045-.639 6.647.158 2.604.68 5.594 1.55 8.424l1.912-.59zM7.059 5.975c3.584 6.087 5.226 16.127 5.948 24.804a161.571 161.571 0 0 1 .533 14.436 92.46 92.46 0 0 1-.02 1.207v.018l.999.03 1 .028v-.001a.08.08 0 0 1 0-.005v-.016a18.643 18.643 0 0 0 .007-.308c.004-.213.01-.53.014-.933A164.498 164.498 0 0 0 15 30.613C14.278 21.941 12.62 11.48 8.782 4.96L7.06 5.975z"/>
        <path id="ae" d="M29.045 59.496a1 1 0 0 0 2 .01l-2-.01zm1.824-34.87l-.997-.077v.005l.997.072zM37.233 0L37.195 1h.012l.025-1zm1.767 31.576l.99.149v-.001l-.99-.148zm-7.423 24.39l.886.464a.989.989 0 0 0 .047-.103l-.933-.362zM-.59 170.978a1 1 0 1 0 1.18 1.614l-1.18-1.614zM30.045 59.501l1 .004V59.5v-.013-.054l.001-.21.005-.81c.005-.701.012-1.714.023-2.962.022-2.495.059-5.923.118-9.662.118-7.477.323-16.168.675-21.093l-1.995-.143c-.355 4.973-.562 13.72-.68 21.205a1430.515 1430.515 0 0 0-.14 12.643l-.006.81v.212l-.001.054v.017l1 .006zm1.822-34.799c.292-3.804 1.078-9.923 2.19-15.095.553-2.581 1.169-4.86 1.847-6.506.33-.807.625-1.37.946-1.766.311-.389.428-.332.345-.335L37.269-1c-.879-.032-1.539.533-1.98 1.085-.432.547-.866 1.359-1.236 2.256-.721 1.763-1.386 4.212-1.952 6.845-1.127 5.255-1.932 11.507-2.229 15.362l1.995.153zM37.207 1c.677.017 1.288.377 1.811 1.518.545 1.187.899 3.052 1.015 5.671.235 5.248-.495 13.017-2.023 23.24l1.978.296c1.536-10.278 2.279-18.239 2.043-23.624-.12-2.698-.487-4.875-1.195-6.417-.728-1.587-1.9-2.641-3.58-2.683l-.05 2zm.803 30.428c-.634 4.229-2.467 10.241-4.156 15.25a246.598 246.598 0 0 1-3.142 8.75c-.022.059-.04.103-.05.133l-.014.033a.264.264 0 0 1-.004.01l.933.362a290.208 290.208 0 0 0 .932.361l.001-.002.004-.01.013-.034.052-.136.198-.52a249.928 249.928 0 0 0 2.972-8.309c1.699-5.036 3.578-11.218 4.24-15.59l-1.979-.298zm-7.32 24.074c-14.588 27.907-12.305 49.672-11.482 67.963.411 9.141.467 17.325-2.102 25.107-2.53 7.707-7.643 15.056-17.696 22.407l1.18 1.614c10.33-7.554 15.734-15.227 18.416-23.397 2.645-8.095 2.613-16.641 2.2-25.821-.827-18.352-3.14-39.592 11.256-66.944l-1.771-.93z"/>
        <path id="af" d="M1.288 37.256a1 1 0 1 0 1.9.622l-1.9-.622zM27.806.57l-.522.852a.915.915 0 0 0 .018.012l.504-.864zM-.802 48.163a1 1 0 0 0 1.604 1.195l-1.604-1.195zm3.04-10.596a688.386 688.386 0 0 0 .951.31l.001-.002.004-.01.014-.044a77.852 77.852 0 0 1 .277-.83A276.534 276.534 0 0 1 7.15 26.79c2.304-6.028 5.18-12.803 7.572-16.22l-1.638-1.147C10.527 13.076 7.57 20.086 5.28 26.076A279.396 279.396 0 0 0 1.293 37.24l-.003.012-.001.003.95.312zM14.723 10.57c2.442-3.49 4.892-6.286 7.208-7.97C24.242.914 26 .638 27.284 1.424l1.045-1.705C25.96-1.734 23.24-.832 20.75.986c-2.486 1.822-5.16 4.858-7.667 8.437l1.638 1.147zm12.58-9.135s.091.033.132.348c.043.335.004.85-.17 1.57-.353 1.468-1.155 3.386-2.31 5.691-2.322 4.634-5.944 10.504-9.765 16.309-3.822 5.805-7.816 11.504-10.862 15.76a574.594 574.594 0 0 1-5.034 6.922l-.071.096-.018.024-.004.006-.001.001.801.598.802.597.001-.001.005-.007.019-.024a78.69 78.69 0 0 0 .351-.475 579.24 579.24 0 0 0 4.775-6.573c3.052-4.264 7.069-9.995 10.906-15.824 3.837-5.83 7.52-11.801 9.882-16.513 1.186-2.367 2.07-4.497 2.466-6.116.2-.823.299-1.611.21-2.296-.09-.705-.4-1.409-1.107-1.82l-1.008 1.727z"/>
        <path id="ag" d="M.088.26c.236 0 .236-.236 0-.236-.117-.118-.117.236 0 .236z"/>
        <path id="ah" d="M.177.353C.412.353.412 0 .177 0-.06 0-.06.353.177.353z"/>
        <path id="ai" d="M63.088 40.47a1 1 0 0 0 0-2v2zM39.64 51.843l.3.954-.3-.954zm35.465-19.44l.617.786-.617-.787zM112.785.893a1 1 0 1 0-.895-1.788l.895 1.788zM63.088 38.471c-7.117 0-23.813 2.256-38.251 5.338-7.232 1.544-13.968 3.315-18.658 5.117-2.34.9-4.27 1.844-5.515 2.829-.62.49-1.15 1.052-1.437 1.697-.31.695-.315 1.446.059 2.155l1.77-.932c-.07-.13-.08-.236-.002-.41.1-.224.348-.544.85-.941 1-.79 2.697-1.648 4.994-2.532 4.585-1.765 11.17-3.493 18.357-5.027 14.398-3.074 30.93-5.294 37.833-5.294v-2zM-.714 55.606c2.09 3.97 6.708 4.92 13.222 4.18 6.558-.748 15.635-3.275 27.433-6.991l-.6-1.908c-11.767 3.707-20.657 6.188-27.06 6.912-6.446.732-9.78-.379-11.226-3.125l-1.77.932zm40.656-2.811c10.98-3.461 26.402-12.247 35.781-19.608l-1.235-1.574c-9.237 7.25-24.448 15.902-35.148 19.274l.602 1.908zm35.782-19.609C81.06 28.981 85.41 23.33 90.87 17.55c5.465-5.79 12.017-11.717 21.915-16.656l-.895-1.788c-10.131 5.076-16.953 11.225-22.474 17.07-5.528 5.856-9.778 11.398-14.929 15.44l1.237 1.571z"/>
        <path id="aj" d="M54.723 45.076l-.325.945a1 1 0 0 0 1.125-1.546l-.8.6zM29.038 16.09l-.7.714.002.002.698-.716zm-15.317 3.653l-.7.714.005.005.695-.72zm41.002 25.332l.8-.602h-.001l-.002-.003a.738.738 0 0 0-.006-.008l-.025-.033a56.371 56.371 0 0 0-.478-.625c-.332-.432-.826-1.068-1.462-1.873a282.635 282.635 0 0 0-5.424-6.646c-4.604-5.474-11.058-12.756-18.389-19.91l-1.396 1.431c7.28 7.103 13.667 14.312 18.254 19.766a279.885 279.885 0 0 1 5.386 6.599 189.047 189.047 0 0 1 1.82 2.34l.094.124.023.031a.511.511 0 0 0 .005.008l.002.001.8-.6zM29.738 15.377C25.3 11.032 20.12 7.141 15.4 4.275 10.696 1.422 6.278-.527 3.309-.924 1.898-1.112.37-1.008-.471.083c-.852 1.106-.578 2.666.13 4.254 1.475 3.304 5.619 8.525 13.362 16.12l1.4-1.427C6.671 11.427 2.788 6.44 1.486 3.522.806 2 1.006 1.444 1.113 1.304c.119-.153.587-.425 1.93-.245 2.54.34 6.663 2.102 11.32 4.926C19 8.797 23.997 12.55 28.337 16.805l1.4-1.428zm-16.712 5.085c9.095 8.79 19.466 15.203 27.495 19.374 4.026 2.09 7.5 3.64 9.947 4.657 1.228.51 2.212.893 2.88 1.145a55.773 55.773 0 0 0 .977.358l.053.018.015.005.004.002.326-.945.325-.946-.002-.001c-.003 0-.006-.002-.011-.004a90.117 90.117 0 0 1-3.8-1.479 127.972 127.972 0 0 1-9.792-4.585C33.48 33.926 23.35 27.673 14.416 19.025l-1.39 1.438z"/>
        <path id="ak" d="M56.83 14.98l-.034 1a1 1 0 0 0 .436-1.915l-.402.915zM9.819.017l.022 1h.002l-.024-1zm2.827 10.015l-.282.96.01.002.272-.962zm44.586 4.033C34.186 3.955 24.91-1.306 9.795-.983l.048 2C24.419.633 33.287 5.74 56.428 15.897l.804-1.832zM9.797-.983C5.742-.894 2.91-.467 1.202.265.35.629-.376 1.133-.748 1.859c-.408.792-.282 1.615.1 2.318.699 1.282 2.413 2.495 4.561 3.59 2.192 1.116 5.114 2.24 8.45 3.224l.566-1.918c-3.26-.96-6.01-2.016-8.107-3.087C2.68 4.894 1.486 3.913 1.109 3.22c-.155-.284-.108-.392-.08-.448.064-.122.289-.382.96-.67 1.335-.571 3.836-.998 7.852-1.086l-.044-2zm2.576 11.977c8.832 2.506 16.701 4.042 44.423 4.986l.068-1.999C29.209 13.04 21.525 11.512 12.92 9.07l-.546 1.924z"/>
        <path id="al" d="M22.975 6.18a1 1 0 1 0-1.298-1.521l1.298 1.522zM.294 28.867l.915-.402-.004-.009-.911.412zM32.726.517a1 1 0 0 0-1.712-1.034L32.726.517zM21.677 4.659c-3.97 3.388-10.161 7.752-15.048 12.042-2.448 2.151-4.623 4.347-5.992 6.369-1.357 2.012-2.158 4.206-1.255 6.208l1.823-.823c-.452-1.002-.177-2.387 1.09-4.267 1.257-1.87 3.257-3.879 5.654-5.984 4.805-4.222 10.985-8.577 15.026-12.023l-1.298-1.522zM-.622 29.269c.57 1.297 1.444 2.206 2.631 2.59 1.152.372 2.418.192 3.675-.29 2.495-.953 5.418-3.267 8.455-6.311 6.09-6.109 13.084-15.63 18.587-24.741L31.014-.517C25.56 8.517 18.71 17.847 12.723 23.845c-3.002 3.01-5.675 5.062-7.753 5.857-1.03.393-1.794.432-2.345.254-.515-.167-1.014-.58-1.416-1.492l-1.83.805z"/>
        <path id="am" d="M20.315.65a1 1 0 1 0-1.52-1.3l1.52 1.3zM7.537 45.126l-.853-.521-.004.005.857.516zm4.37-35.505a1 1 0 1 0-1.671-1.098l1.672 1.098zM18.796-.65c-5.47 6.391-6.864 15.326-7.746 23.727-.443 4.227-.757 8.36-1.362 12.088-.602 3.72-1.449 6.916-3.003 9.44l1.706 1.043c1.686-2.779 2.65-6.343 3.271-10.163.617-3.813.937-8.001 1.377-12.2.886-8.446 2.26-16.773 7.277-22.635l-1.52-1.3zM6.68 44.61c-.779 1.294-1.514 2.027-2.118 2.369-.561.318-.98.292-1.33.11-.408-.213-.89-.729-1.31-1.71-.436-1.01-.727-2.289-.855-3.954-.523-6.67 1.911-18.205 10.84-31.804l-1.671-1.098C1.139 22.378-1.494 34.348-.927 41.581c.145 1.81.511 3.407 1.01 4.584.516 1.206 1.249 2.189 2.226 2.698 1.036.54 2.177.458 3.24-.144 1.02-.579 1.974-1.632 2.845-3.077L6.68 44.61z"/>
        <path id="an" d="M42.141 6.216a1 1 0 0 0 .463-1.946l-.463 1.946zM13.506.176l.113-.993h-.005l-.108.993zM5.494 7.364l-.338.94.008.003.33-.943zm36.132.273a1 1 0 1 0-.392-1.961l.392 1.961zm.747-2.394l.23-.973h-.002l-.008-.003-.033-.007a59.624 59.624 0 0 0-.61-.142 210.18 210.18 0 0 0-1.835-.412 297.743 297.743 0 0 0-6.549-1.36C28.152 1.286 20.896.012 13.62-.816l-.226 1.987c7.216.82 14.393 2.08 19.788 3.14 2.695.528 4.934 1.004 6.505 1.35a206.994 206.994 0 0 1 2.453.555h.002l.232-.972zM13.614-.817c-2.508-.27-5.108-.225-7.322.064C4.08-.462 2.088.085.766.881.109 1.277-.491 1.8-.797 2.489c-.334.756-.247 1.555.193 2.281.41.678 1.117 1.285 2.038 1.844.908.55 2.164 1.13 3.722 1.69l.676-1.882c-1.476-.529-2.55-1.024-3.36-1.517-.796-.484-1.194-.887-1.365-1.17-.143-.236-.114-.347-.075-.436.069-.155.275-.409.766-.705.976-.588 2.65-1.087 4.754-1.364a28.983 28.983 0 0 1 6.846-.06l.216-1.988zm-8.45 9.124c6.118 2.142 15.302 1.937 22.808 1.245A151.555 151.555 0 0 0 40.548 7.84a87.287 87.287 0 0 0 1.073-.202h.004l-.195-.981-.196-.981h-.003l-.013.003a23.198 23.198 0 0 1-.25.049 132.101 132.101 0 0 1-3.653.632c-2.44.386-5.794.857-9.526 1.2-7.516.693-16.3.842-21.964-1.14l-.661 1.887z"/>
        <path id="ao" d="M61.024 2.335a1 1 0 0 0-.776-1.843l.776 1.843zm-43.982 20.17l.474.88.002-.002-.476-.879zM.075 23.681l.97.243.003-.011-.973-.232zM53.741.985a1 1 0 0 0-.349-1.97l.349 1.97zm6.895.429l-.389-.922-.004.002-.011.005-.047.02a185.419 185.419 0 0 0-.89.38c-.618.266-1.53.66-2.692 1.172a543.585 543.585 0 0 0-9.701 4.386c-8.079 3.744-19.005 9.03-30.337 15.168l.953 1.758c11.29-6.116 22.161-11.374 30.225-15.112a540.848 540.848 0 0 1 9.665-4.37 360.542 360.542 0 0 1 3.557-1.54l.045-.02.01-.004.004-.001-.388-.922zm-44.068 20.21c-3.739 2.018-8.052 3.315-11.37 3.61-1.659.15-2.89.025-3.597-.283-.336-.147-.477-.3-.537-.41-.052-.096-.105-.273-.019-.616l-1.94-.485c-.18.717-.14 1.427.202 2.056.335.616.89 1.024 1.496 1.288 1.177.513 2.819.601 4.576.442 3.517-.323 8.216-1.736 12.137-3.841l-.948-1.761zm-15.52 2.29c.777-3.263 4.204-6.417 9.367-9.324 5.114-2.881 11.594-5.339 18.031-7.362 6.436-2.023 12.75-3.581 17.478-4.64 2.36-.528 4.313-.928 5.683-1.198a156.017 156.017 0 0 1 2.132-.405h.002L53.567 0l-.175-.985h-.002l-.008.002-.028.005a54.06 54.06 0 0 0-.532.098c-.369.068-.912.172-1.602.308A232.16 232.16 0 0 0 45.487.637C40.738 1.7 34.342 3.279 27.847 5.32 21.353 7.362 14.68 9.897 9.434 12.847 4.236 15.774.093 19.291-.898 23.451l1.946.463z"/>
        <path id="ap" d="M48.695 40.54c-1.178.236-9.662-4.477-10.25-4.948-6.834-3.064-10.369-7.305-16.85-11.782C14.292 18.86 7.222 13.088 1.449 6.607-.908 4.015-.437-.226 3.216.01c7.069.59 12.842 4.478 18.851 9.073 7.776 5.89 10.015 9.897 17.791 15.788 1.06.471 8.601 10.84 9.662 11.31 5.42 2.593 4.006 5.539-.825 4.36z"/>
        <path id="aq" d="M47.667 17.278c-6.245 1.06-12.372-2.12-18.38-3.416A1055.388 1055.388 0 0 0 2.659 8.912c-3.417-.59-3.417-5.656-.707-7.07C5.015.313 8.314.43 11.495 1.138c.825-.943 2.121-1.532 3.653-.825 1.296.589 3.417 2.003 5.184 2.71.707.118 1.532.235 2.239.471.942-.118 1.767.118 2.474.471 3.299.707 6.598 1.532 9.897 2.946.353.118.59.236.825.471.353.118.707.118 1.06.236 3.064.825 6.01 2.71 9.308 2.12 4.713-.824 6.363 6.599 1.532 7.541z"/>
        <path id="ar" d="M23.573 20.142A72.436 72.436 0 0 1 9.2 25.327c-3.181.824-5.774.117-8.13-2.357-1.06-1.178-1.532-3.299-.471-4.595 4.36-5.42 10.486-7.54 16.966-9.661 8.012-2.592 18.263-7.305 26.746-7.541 1.532 0 20.03-2.474 15.552-.236-10.25 5.067-20.854 11.43-36.289 19.205z"/>
        <path id="as" d="M7.109 43.533c-1.414.707-3.535 2.12-4.242.59-5.773-12.254-2.592-30.517 7.423-39 .118-.118.236-.236.471-.354.354-.942.707-2.003 1.06-2.945 1.415-3.653 7.541-1.296 6.245 2.474-1.767 4.83-3.417 9.897-4.123 15.081-.472 3.3-2.593 5.656-2.357 9.073.354 5.655 1.06 12.253-4.477 15.081z"/>
        <path id="at" d="M36.693 10.808c-6.952.825-13.667 1.768-20.737 1.532-4.595-.118-10.015 0-14.139-2.474-2.12-1.296-2.474-4.36-.589-6.01C8.062-2.387 20.551.205 28.445 2.915c.707.236 1.179.59 1.532.943 1.65-.236 3.3-.354 4.949-.59 4.948-.47 6.715 7.07 1.767 7.541z"/>
        <path id="au" d="M28.637 19.344c-4.713.472-8.836 1.414-13.431 2.592-2.592.707-5.42 1.179-8.012.354-.825.118-1.65.353-2.592.471-4.831.707-6.598-6.716-1.65-7.423.825-.117 1.532-.235 2.357-.47 6.715-5.42 14.02-6.01 22.386-6.835 2.356-.942 4.713-1.767 7.07-2.71 4.359-1.65 8.718-1.767 13.195-2.945 2.946-.825 5.42-2.592 8.601-2.357 3.77.354 4.949 5.185 1.65 7.188-9.426 5.655-18.498 11.075-29.574 12.135z"/>
        <path id="av" d="M.176 35.658c.825-2.357 1.06-5.538 1.178-8.837-.707-.825-.942-2.003-.235-3.3.117-.353.353-.588.471-.942.471-6.598 1.414-15.788 7.07-18.027 2.356-.942 3.652-6.244 3.298-4.006-.707 4.596-1.65 19.323-3.888 23.447 0 .354 0 .59-.118.825-.353 4.006-.353 8.247-1.65 12.018-1.177 4.006-7.422 2.71-6.126-1.178z"/>
        <path id="aw" d="M38.034 9.267c-2.239-1.178-4.713-1.414-7.187-1.414-.707.471-1.65.59-2.71.236-.236-.118-.354-.118-.59-.118h-2.12c-6.834-.118-8.837-4.124-15.67-3.417-4.124.471-12.725-3.3-8.72-3.77 5.067-.707 13.079.235 17.792 0 .117-1.885 3.299.117 5.773.942 5.538 1.768 6.951 1.06 12.371 3.181 1.06.472 9.073 2.475 9.308 3.3 1.414 2.356-5.302 2.71-8.247 1.06z"/>
        <path id="ax" d="M13.788 5.334c-1.296-.235-2.357-.589-4.006-.353-2.12.471-4.595 1.65-6.834 2.474-3.77 1.414-4.006-2.474-.235-3.888 3.534-1.296 7.54-2.238 10.84-3.063 7.186-1.768 5.066 1.767 7.304.707 3.653-1.65 5.538 1.531 1.768 3.299-3.535 1.531-6.01 1.414-8.837.824z"/>
        <path id="ay" d="M43.25 37.92C32.173 29.906 10.73 11.644.95 2.1-3.054-1.787 6.607.334 11.202 3.515 26.99 14.59 30.171 23.31 40.657 30.968c4.36 3.18 7.07 10.25 2.592 6.951z"/>
        <path id="az" d="M19.474 6.369C14.17 6.604 8.987 7.9 3.804 8.96c-4.007.825-5.42-5.42-1.415-6.245C8.163 1.538 13.818.242 19.71.006c4.006-.235 3.77 6.127-.235 6.363z"/>
        <path id="aA" d="M2.038 28.998C-.436 28.41-.436 25.7.86 24.168c0-.236 0-.472.118-.707C3.923 12.15 14.998 7.2 23.482.603c2.003-1.532 6.009 0 4.83 2.946-2.827 6.833-8.13 12.489-13.431 17.555-3.064 2.71-8.366 8.955-12.843 7.894z"/>
        <path id="aB" d="M2.613 22.137c2.474-3.77 5.537-7.187 8.247-10.84-.942.59-1.767 1.297-2.71 2.004-1.767 1.531-3.534 3.063-5.184 4.595-1.65 1.531-4.124-1.06-2.356-2.592 1.767-1.65 3.652-3.3 5.537-4.831C10.036 7.174 13.924 3.757 17.812.458c1.178-1.06 2.71-.118 2.945 1.178 1.06.236 1.885 1.414 1.06 2.592-2.71 4.006-6.48 7.07-9.307 11.076-2.357 3.181-4.124 6.598-7.187 9.19-1.414 1.06-3.77-.59-2.71-2.357z"/>
        <path id="aC" d="M27.796 34.573c.235-1.532 6.009 1.885 6.951.943 1.65-1.768 2.121-8.012 4.006-9.898 1.65-1.65 6.952-.824 7.305-3.18.236-1.415-1.06-1.65-.825-2.71.707-2.828 5.892-8.484 8.602-10.016 5.184-2.827 5.773-8.365-.236-9.425-5.773-1.06-11.429 1.06-16.967 2.474-2.71.707-5.537 1.06-8.247 1.885-.825.236-1.65.59-2.592 1.06-.472-.235-.825-.47-1.296-.589-4.713-2.12-9.073 1.179-10.25 4.949-4.36.471-9.191.118-12.372 3.77-3.181 3.77-1.885 6.245.707 10.015-.236.825.707 3.653.707 4.595.117 6.01 3.534 9.544 8.718 10.486 3.064 6.952 5.303 9.426 12.843 4.596 3.417-2.24 2.357-5.185 2.946-8.955z"/>
        <path id="aD" d="M19.917 36.944c.824-.942 1.06-2.238 1.06-3.416 3.064-1.768 6.598-2.946 9.072-5.538 1.768-2.003 2.121-5.184 3.77-7.187l2.829-1.768c1.767-1.06 2.12-3.18 1.65-4.83 1.177-1.296 2.355-2.592 3.77-3.77 1.296-.943 2.71-2.004 4.123-2.828 4.477-2.828.471-9.544-4.241-7.07-1.886.943-3.417 2.239-4.949 3.535-5.538 4.36-10.486 9.426-15.906 14.02a25.99 25.99 0 0 1-6.951 1.297c-1.768 0-2.946 1.06-3.535 2.356-.236-.117-.472-.353-.707-.471-.59-.236-1.296-.471-1.885-.59C6.485 16.798-.231 17.269.123 22.1c0 .589.117 1.06.235 1.532-.353.824-.471 1.885-.235 2.71 1.65 4.83 4.595 7.893 8.365 9.66-.118 2.24 1.65 4.36 4.124 4.36 3.063-.235 5.066-.942 7.305-3.417z"/>
        <path id="aE" d="M9.396 6.562c1.06-.943 1.06-2.003 1.65-3.182v-.117l.353-.354c1.65-1.532-.825-3.888-2.592-2.474-1.65 1.531-4.006 4.477-6.598 4.124C.677 4.323-.854 6.326.559 7.504c1.768 1.532 3.77 1.767 5.892.825 1.06-.354 2.238-1.06 2.945-1.767z"/>
        <path id="aF" d="M16.858 5.865c1.06-.943.236-2.592-.825-2.946-.824-.235-1.65-.235-2.592 0-1.414.354-2.592.59-4.006.59-1.296 0-2.003.117-2.945-.825-.707-.707-1.296-1.532-2.121-2.239-1.06-.942-2.474-.236-2.828.707C.481 1.388-.462 2.566.245 3.744c.943 1.65 1.296 3.417 2.946 4.595C4.605 9.4 6.37 9.871 8.139 9.753c3.181 0 6.245-1.885 8.72-3.888z"/>
        <path id="aG" d="M9.927 4.025c0-.118 0-.354-.118-.472.236-.235.354-.589.59-.942C11.34.608 8.276-1.16 7.334.96c-.943 2.121-3.888 3.064-5.773 4.36-1.65 1.178-2.475 3.652 0 4.477 2.945.943 8.483-2.474 8.365-5.773z"/>
        <path id="aH" d="M7.987 9.842c-.117-.235-.353-.353-.47-.589 1.53-.118 2.945-1.531 3.77-2.945 1.178-1.885-1.886-3.535-3.064-1.65-.236.354-.353.59-.707.825-.236.353-.353.353-.353 0-.118-.118-.354-.59-.354-.707A15.094 15.094 0 0 0 5.513 2.42C4.453.888 3.157-.29 1.272.063.447.181-.26 1.36.093 2.183.8 3.952 2.096 5.248 2.685 7.134c.707 2.002 1.414 3.652 2.828 5.301 1.532 1.65 3.888-.942 2.474-2.592z"/>
        <path id="aI" d="M8.098 2.529a1.42 1.42 0 0 0-.59-.59C7.744.29 5.27-.887 4.21.88 3.385 2.293 2.09 3 .793 3.943c-1.179.942-1.06 2.71.47 3.18 1.297.472 3.182-.117 4.478-.588 1.885-.59 3.3-2.003 2.357-4.006z"/>
        <path id="aJ" d="M4.785 3.704c.235-.589.353-1.296.117-2.003C4.667.76 3.842.288 3.017.052 2.075-.184 1.132.405.897 1.348c-.118.471 0 .825.117 1.178C.19 2.88-.164 3.822.072 4.647c.235.943 1.178 1.414 2.12 1.178 1.06-.353 2.121-1.178 2.593-2.12z"/>
        <path id="aK" d="M6.969 4.625c.589-.589 1.414-1.532 1.531-2.474C8.618 1.208 8.265.266 7.204.03c-.589-.118-1.296.118-1.767.59H4.73c-1.178.353-2.356.235-3.535.588-2.12.707-1.178 4.006.943 3.417.353.825 1.06 1.414 2.003 1.414 1.178 0 2.12-.707 2.828-1.414z"/>
        <path id="aL" d="M9.526 4.275c.59-1.296-.824-3.299-2.474-2.238-.825.471-1.65.825-2.474 1.06 0-.118-.118-.235-.118-.353-.353-.825-.825-1.65-1.532-2.239C2.221-.084 1.397-.202.69.387.1.977-.253 1.92.218 2.626c.59.943 1.06 1.885 1.65 2.592.118.354.236.707.471 1.06.707 1.06 1.65 1.65 2.946 1.65 1.885.118 4.241-1.414 4.241-3.653z"/>
        <path id="aM" d="M4.394 6.57c.118-.235.118-.47.118-.824 1.178-.353 2.239-1.178 3.3-1.65.824-.353 1.53-1.178 1.177-2.12C8.754 1.15 7.693.444 6.87.797c-.943.354-1.768.943-2.593 1.297V1.74C4.394.326 2.627-.38 1.566.208-.318 1.268-.435 3.508.86 4.921a2.3 2.3 0 0 1 .117.825c-.706 2.12 2.71 2.946 3.417.825z"/>
        <path id="aN" d="M9.643 2.786C8.583 1.372 7.168.901 5.637 1.136 5.283.195 4.223-.394 3.162.313c-1.06.707-1.296 1.414-1.413 2.239-.354.235-.707.353-.943.589C-1.079 4.318.688 7.38 2.573 6.203l.118-.118c.471.59 1.06.825 1.885.707 1.178-.235 2.239-1.296 3.417-1.296 1.414 0 2.357-1.65 1.65-2.71z"/>
        <path id="aO" d="M4.01.867A1.753 1.753 0 0 0 2.242.042C1.653-.075.946.042.475.514c-.707.707-.59 1.885.118 2.474.825.707 1.885.943 2.828.354.824-.59 1.178-1.65.589-2.475z"/>
        <path id="aP" d="M6.043.825c-.118 0-.354.118-.471.118C5.454.825 5.336.589 5.218.47c-.59-.589-1.885-.707-2.474.118C1.919 1.65 1.33 2.828.505 3.89c-.589.706-.707 1.53-.118 2.238.472.589 1.532.942 2.239.471 1.296-1.06 2.71-1.885 4.36-2.356C9.223 3.77 8.28.353 6.042.825z"/>
        <path id="aQ" d="M4.245 2.27c-.118-.471-.353-.943-.589-1.414C3.067.149 2.124-.322 1.3.266a1.207 1.207 0 0 0-.59.708c-.117 0-.117.118-.235.118-.707.707-.59 1.767.118 2.474.707.825 1.531.942 2.474.825.943-.118 1.296-1.296 1.178-2.121z"/>
        <path id="aR" d="M4.773 1.767C4.773.825 3.948.117 3.006 0c-.59 0-1.179 0-1.768.118C.296.353-.176 1.414.06 2.238c.236.943 1.178 1.414 2.12 1.179h.943c.825.236 1.65-.707 1.65-1.65z"/>
        <path id="aS" d="M.564 11.273a1 1 0 1 0 1.592-1.21l-1.592 1.21zM2.656 1.36L2.051.564l.605.796zm8.512 1.901a1 1 0 0 0 1.592-1.21l-1.592 1.21zm-9.012 6.802C.256 7.563.75 4.065 3.261 2.156L2.051.564C-1.33 3.132-2.013 7.882.564 11.273l1.592-1.21zm1.105-7.907C5.761.256 9.26.75 11.168 3.261l1.592-1.21C10.192-1.33 5.442-2.013 2.05.564l1.211 1.592z"/>
        <path id="aT" d="M11.4-.605A1 1 0 0 0 9.808.605L11.4-.605zM.796 7.407a1 1 0 0 0-1.592 1.21l1.592-1.21zM9.808.605c1.9 2.5 1.407 5.998-1.105 7.907l1.21 1.592c3.38-2.568 4.064-7.318 1.487-10.71L9.808.606zM8.703 8.512c-2.5 1.9-5.998 1.407-7.907-1.105l-1.592 1.21c2.568 3.38 7.318 4.064 10.71 1.487L8.702 8.512z"/>
        <path id="aU" d="M18.558 9.78a8.78 8.78 0 0 1-8.779 8.778v2c5.954 0 10.78-4.825 10.78-10.779h-2zM9.78 18.557A8.78 8.78 0 0 1 1 9.78h-2c0 5.954 4.826 10.78 10.78 10.78v-2zM1 9.78A8.78 8.78 0 0 1 9.78 1v-2C3.825-1-1 3.826-1 9.78h2zM9.78 1a8.78 8.78 0 0 1 8.778 8.78h2C20.558 3.825 15.733-1 9.78-1v2z"/>
        <path id="aV" d="M-.952 5.82a1 1 0 0 0 1.985-.248l-1.985.248zM9.181 4.642a1 1 0 0 0 1.985-.248l-1.985.248zm-8.148.93C.75 3.314 2.34 1.32 4.642 1.032L4.394-.951C1.04-.532-1.376 2.422-.952 5.82l1.985-.248zm3.609-4.54C6.899.752 8.893 2.34 9.18 4.643l1.985-.248c-.42-3.354-3.374-5.77-6.772-5.346l.248 1.985z"/>
        <path id="aW" d="M.379 8.382a1 1 0 0 0-.758 1.851l.758-1.85zM4.267-.926A1 1 0 1 0 3.509.926l.758-1.852zM-.38 10.234c3.086 1.262 6.626-.136 7.903-3.257l-1.851-.758C4.828 8.283 2.477 9.241.379 8.382l-.758 1.851zm7.903-3.257C8.786 3.89 7.388.35 4.267-.926L3.509.926c2.064.844 3.022 3.195 2.164 5.293l1.85.758z"/>
        <path id="aX" d="M-.6.68a1 1 0 0 0 1.2 1.6L-.6.68zm8.954 12.018a1 1 0 0 0 1.2 1.6l-1.2-1.6zM.6 2.28C3.45.142 7.538.748 9.686 3.612l1.6-1.2C8.486-1.323 3.147-2.131-.6.68l1.2 1.6zm9.086 1.332c2.138 2.85 1.532 6.938-1.332 9.086l1.2 1.6c3.735-2.8 4.543-8.139 1.732-11.886l-1.6 1.2z"/>
        <path id="aY" d="M-.968 4.266a1 1 0 1 0 1.987-.233l-1.987.233zM3.325.026l.11.994.006-.001-.116-.993zm3.13 3.41a1 1 0 0 0 1.987-.222l-1.987.221zm-5.436.597a2.71 2.71 0 0 1 2.416-3.014l-.22-1.987A4.71 4.71 0 0 0-.969 4.266l1.987-.233zM3.44 1.019a2.71 2.71 0 0 1 3.014 2.416l1.987-.22A4.71 4.71 0 0 0 3.208-.969L3.44 1.02z"/>
        <path id="aZ" d="M.4 5.918A1 1 0 0 0-.4 7.75l.8-1.832zM3.23-.916A1 1 0 1 0 2.427.916l.802-1.832zM-.401 7.75c2.439 1.067 5.123-.176 6.148-2.518L3.915 4.43C3.29 5.858 1.733 6.5.4 5.918L-.401 7.75zm6.148-2.518C6.814 2.793 5.57.109 3.229-.916L2.427.916c1.428.625 2.07 2.182 1.488 3.514l1.832.802z"/>
        <path id="ba" d="M8.013 12.267a1 1 0 0 0 .234 1.987l-.234-1.987zm-.708-6.43l-.832.555a1 1 0 0 0 .942.44l-.11-.994zm-.471-.706l-.916-.401a1 1 0 0 0 .084.956l.832-.555zm-7.75-3.229a1 1 0 1 0 1.832.802l-1.832-.802zm9.163 12.352c2.52-.297 4.475-2.532 4.176-5.228l-1.988.221c.172 1.546-.936 2.846-2.422 3.02l.234 1.987zm4.176-5.228c-.297-2.67-2.559-4.479-5.228-4.182l.22 1.988c1.572-.175 2.845.843 3.02 2.415l1.988-.22zM8.137 5.283l-.471-.707-1.664 1.11.47.706 1.665-1.109zm-.387.249C8.817 3.093 7.574.409 5.232-.616L4.43 1.216c1.428.625 2.07 2.182 1.488 3.514l1.832.802zM5.232-.616C2.793-1.683.109-.44-.916 1.902l1.832.802C1.541 1.276 3.098.634 4.43 1.216l.802-1.832z"/>
        <path id="bb" d="M-.581.256A1 1 0 1 0 .58 1.883L-.58.256zm6.58 8.732a1 1 0 1 0 1.2 1.6l-1.2-1.6zM.58 1.883C2.638.413 5.435.832 6.858 2.73l1.6-1.2C6.348-1.285 2.31-1.81-.582.256L.582 1.883zm6.277.847c1.443 1.923 1.046 4.829-.86 6.258l1.2 1.6c2.807-2.105 3.352-6.269 1.26-9.058l-1.6 1.2z"/>
        <path id="bc" d="M-.591-.028A1 1 0 0 0 .59 1.585L-.59-.028zm4.83 6.48a1 1 0 1 0 1.183 1.613L4.24 6.453zM.591 1.585c1.339-.981 3.3-.696 4.258.61l1.613-1.183C4.827-1.217 1.605-1.638-.591-.028L.59 1.585zm4.258.61c.982 1.338.696 3.3-.61 4.257l1.183 1.613c2.23-1.634 2.65-4.857 1.04-7.053L4.849 2.195z"/>
        <path id="bd" d="M8.16 15.37c.59 1.413-6.008 1.884-6.244 3.18-.353 2.357 2.828 7.777 2.474 10.487-.353 2.238-5.302 4.712-4.241 6.715.589 1.179 1.767.707 2.238 1.768.943 2.71 0 10.368-1.296 13.078-2.592 5.302 0 10.133 5.538 7.54 5.302-2.474 8.837-7.422 12.49-11.664 1.884-2.12 4.005-4.006 5.655-6.244.589-.707 1.06-1.532 1.531-2.239.471-.118.943-.118 1.414-.236 5.066-.942 6.834-6.126 5.538-9.897 3.299-2.945 7.54-5.302 8.012-10.132.471-4.949-2.003-6.127-6.245-7.777-.353-.824-2.592-2.592-3.181-3.416C28.308 1.702 23.477.759 18.647 2.88 12.284-1.126 8.867-1.833 5.45 6.533c-1.532 3.534 1.06 5.301 2.71 8.836z"/>
        <path id="be" d="M5.217 7.868c-.117 1.178.354 2.474 1.06 3.417-1.53 3.18-3.77 6.127-4.24 9.779-.354 2.71 1.177 5.538.942 8.012-.472 1.06-.943 2.003-1.296 3.063-.825 1.886 0 3.77 1.414 4.831-.236 1.767-.472 3.535-.943 5.184-.471 1.532-1.06 3.181-1.767 4.713-2.121 4.83 5.066 8.012 7.422 3.3.943-1.886 1.65-3.771 2.121-5.656 2.121-6.716 3.3-13.668 5.067-20.62 1.296-1.884 2.945-3.534 5.066-5.066 1.414-1.06 1.885-2.592 1.532-3.888h.824c.707-.118 1.296-.353 1.886-.589 3.416 2.357 8.718-1.885 5.655-5.655-.353-.472-.707-.825-1.06-1.179-.236-.942-.707-1.767-1.414-2.356-4.124-3.063-8.248-3.888-12.372-3.181C13.936.092 11.226-.733 9.341.799 6.75 2.8 5.453 4.569 5.217 7.868z"/>
        <path id="bf" d="M.064 5.927C-.17 7.34.3 8.165.536 9.46v.118c0 .118-.118.354-.118.471-.59 2.239 2.945 2.71 3.417.59.589-2.121.706-5.892 3.063-7.188C8.312 2.745 8.43.272 6.544.035 4.188-.2 2.54.742 1.36 2.745.89 3.688.3 4.748.064 5.927z"/>
        <path id="bg" d="M.049 9.78c-.354 1.295 1.296 2.238 2.356 1.884.825-.235 1.532-.707 2.121-1.413.943-1.06 1.767-1.886 2.946-2.71 1.06-.825 1.531-1.179 2.945-.943 1.06.236 2.003.471 2.946.59 1.414.117 2.12-1.179 2.003-2.24.707-.824.824-2.238-.472-2.827C13.127 1.296 11.831.118 9.828 0c-1.767 0-3.417.59-4.83 1.65C2.404 3.535.872 6.716.047 9.78z"/>
        <path id="bh" d="M.705 9.55l.354.353c0 .353 0 .707.118 1.06.353 2.239 3.888 1.885 3.534-.353C4.24 8.253 6.243 5.897 6.95 3.776c.707-1.885-.118-4.36-2.592-3.652C1.294.948-1.298 6.957.705 9.549z"/>
        <path id="bi" d="M1.413 3.485c.236.118.471.118.707.235C.942 4.78.588 6.666.706 8.316c.118 2.238 3.535 1.885 3.535-.354v-1.06c0-.472.118-.472.236-.236.117 0 .589.354.706.354.825.47 1.65.942 2.475 1.178 1.767.707 3.417.942 4.83-.472.59-.589.472-2.003-.235-2.474-1.532-1.06-3.417-1.414-4.949-2.474C5.654 1.6 4.005.539 2.002.068c-2.238-.59-2.827 2.828-.589 3.417z"/>
        <path id="bj" d="M1.37 7.869c.236.118.471.235.825.118.707 1.531 3.417.942 3.299-1.06-.118-1.65.589-2.946 1.06-4.478C7.026 1.035 5.847-.38 4.316.092c-1.296.354-2.592 1.886-3.3 2.946-1.178 1.767-1.649 3.77.354 4.83z"/>
        <path id="bk" d="M.023 3.794c.117.707.47 1.296.942 1.65.707.589 1.65.589 2.474.235.943-.235 1.296-1.414 1.06-2.238a1.423 1.423 0 0 0-.824-.825c.471-.707.236-1.768-.353-2.239C2.615-.212 1.554-.094.847.613c-.589.825-.942 2.12-.824 3.181z"/>
        <path id="bl" d="M.164 3.237c-.118.825-.353 2.12.118 2.946.471.824 1.296 1.413 2.239 1.06a2.03 2.03 0 0 0 1.178-1.414.92.92 0 0 0 .471-.471c.825-.943 1.885-1.532 2.592-2.475C8.176 1.116 5.466-1.122 4.052.645c-.707-.471-1.65-.59-2.474 0C.753 1.116.4 2.177.164 3.237z"/>
        <path id="bm" d="M.582 6.102c.236 1.414 2.592 2.12 3.3.471.353-.825.824-1.532 1.413-2.239.118.118.236.118.236.236.825.471 1.65.825 2.592.943.825 0 1.65-.354 1.885-1.296.236-.825-.118-1.768-.943-2.121-.942-.354-1.885-.943-2.827-1.178-.354-.236-.59-.472-.943-.59-1.178-.47-2.356-.47-3.417.236C.347 1.624-.714 4.334.582 6.102z"/>
        <path id="bn" d="M1.783 2.409l.354.707c-.707.942-1.06 2.238-1.768 3.18-.471.826-.589 1.768.236 2.475.707.59 2.003.59 2.474-.236.59-.824.943-1.767 1.414-2.592.118.118.118.236.236.354.707 1.178 2.474.825 3.063-.354.943-2.003-.236-3.888-2.12-4.241-.236-.236-.472-.354-.472-.59C4.493-1.007 1.194.17 1.783 2.41z"/>
        <path id="bo" d="M.982 7.883c1.65.589 3.063.118 4.241-.943.825.59 2.003.472 2.475-.707.471-1.06.235-2.003-.236-2.71.118-.353.354-.707.471-1.06.825-2.12-2.356-3.535-3.18-1.414 0 .118 0 .118-.119.236-.707-.236-1.414-.118-1.885.471-.825.943-1.06 2.356-2.12 2.946-.943.824-.825 2.71.353 3.18z"/>
        <path id="bp" d="M1.033 3.67c.589.236 1.413.118 1.885-.235.589-.236 1.06-.707 1.178-1.414.118-.943-.471-1.885-1.414-2.003C1.622-.1.562.37.208 1.314c-.471.942-.118 2.003.825 2.356z"/>
        <path id="bq" d="M3.164 7.494l.353-.353c.118.118.354.118.59.236.824.117 2.002-.472 2.002-1.414.118-1.296 0-2.592 0-4.006 0-.825-.353-1.65-1.296-1.885-.706-.236-1.767.117-2.12.942-.472 1.65-1.179 3.064-2.239 4.36-1.532 1.65 1.178 3.77 2.71 2.12z"/>
        <path id="br" d="M.603 3.254c.354.353.825.589 1.296.825.943.353 1.886 0 2.357-.825.118-.236.118-.59.118-.943 0-.118 0-.117.117-.235C4.61 1.016 3.902.308 3.078.073 2.135-.163 1.192.19.486.897c-.825.59-.472 1.768.117 2.357z"/>
        <path id="bs" d="M.276 3.676c.589.825 1.65.943 2.474.354.471-.354.943-.707 1.414-1.179.589-.706.471-1.885-.236-2.474-.707-.589-1.885-.471-2.474.236-.118.118-.471.353-.707.589-.825.471-.943 1.767-.471 2.474z"/>
        <path id="bt" d="M4.45-.945a1 1 0 0 0-.652 1.89l.652-1.89zm3.915 9.31l.946.326a.964.964 0 0 0 .01-.03l-.956-.296zM.296 11.652a1 1 0 1 0-.592 1.91l.592-1.91zM3.798.945C6.702 1.947 8.31 5.165 7.41 8.07l1.91.593C10.54 4.732 8.38.41 4.45-.945L3.798.945zM7.42 8.04C6.419 10.943 3.2 12.553.296 11.652l-.592 1.91c3.93 1.22 8.252-.94 9.607-4.87L7.42 8.038z"/>
        <path id="bu" d="M4.21 13.848a1 1 0 1 0 .653-1.891l-.652 1.89zM8.365 1.25a1 1 0 0 0 .593-1.91l-.593 1.91zM4.863 11.957C1.959 10.955.349 7.737 1.25 4.833L-.66 4.24c-1.22 3.93.94 8.252 4.87 9.608l.653-1.891zM1.25 4.833C2.135 1.981 5.437.342 8.364 1.25l.593-1.91C5.05-1.872.576.26-.66 4.24l1.91.593z"/>
        <path id="bv" d="M18.558 9.78a8.78 8.78 0 0 1-8.779 8.778v2c5.954 0 10.78-4.825 10.78-10.779h-2zM9.78 18.557A8.78 8.78 0 0 1 1 9.78h-2c0 5.954 4.826 10.78 10.78 10.78v-2zM1 9.78A8.78 8.78 0 0 1 9.78 1v-2C3.825-1-1 3.826-1 9.78h2zM9.78 1a8.78 8.78 0 0 1 8.778 8.78h2C20.558 3.825 15.733-1 9.78-1v2z"/>
        <path id="bw" d="M8.406-.664A1 1 0 1 0 6.91.664L8.406-.664zM.747 6.052A1 1 0 0 0-.747 7.38L.747 6.052zM6.911.664C8.418 2.36 8.244 4.91 6.523 6.44l1.329 1.495c2.52-2.24 2.818-6.053.554-8.6L6.91.666zM6.523 6.44C4.828 7.946 2.277 7.773.747 6.052L-.747 7.38c2.24 2.52 6.052 2.818 8.599.555L6.522 6.44z"/>
        <path id="bx" d="M4.214.977a1 1 0 1 0-.425-1.954L4.214.977zm2.12 9.897A1 1 0 0 0 5.91 8.92l.425 1.954zM3.79-.977C.547-.272-1.57 2.964-.864 6.22l1.955-.424C.62 3.634 2.036 1.45 4.214.977L3.789-.977zM-.864 6.22c.705 3.242 3.942 5.361 7.199 4.653L5.91 8.92c-2.163.47-4.346-.946-4.82-3.123l-1.954.424z"/>
        <path id="by" d="M15.632 5.147a1 1 0 1 0-1.898-.633l1.898.633zM5.139 9.544l.333-.943a1.082 1.082 0 0 0-.017-.006l-.316.949zM1.37.333A1 1 0 0 0-.517-.333L1.37.333zm12.365 4.181c-1.127 3.38-4.805 5.307-8.262 4.087l-.666 1.886c4.555 1.607 9.36-.944 10.826-5.34l-1.898-.633zm-8.279 4.08C2.075 7.469.15 3.79 1.37.334L-.517-.333c-1.607 4.555.943 9.36 5.34 10.825l.632-1.897z"/>
        <path id="bz" d="M6.301-.646A1 1 0 0 0 4.774.646L6.301-.646zM.763 4.184A1 1 0 1 0-.763 5.478L.763 4.185zM4.774.647c.965 1.14.845 2.86-.236 3.775L5.83 5.948c1.983-1.678 2.098-4.67.471-6.594L4.774.646zM4.538 4.42c-1.14.965-2.86.844-3.775-.236L-.763 5.477c1.677 1.982 4.67 2.098 6.593.47L4.538 4.422z"/>
        <path id="bA" d="M3.154.973a1 1 0 1 0-.458-1.946L3.154.973zm1.531 7.188a1 1 0 0 0-.458-1.947l.458 1.947zM2.695-.973C.21-.388-1.486 1.995-.875 4.588L1.07 4.13C.738 2.718 1.634 1.331 3.154.973L2.696-.973zM-.875 4.588c.584 2.486 2.968 4.183 5.561 3.573l-.458-1.947C2.815 6.546 1.428 5.65 1.07 4.13l-1.946.458z"/>
        <path id="bB" d="M1.938.763A1 1 0 1 0 .646-.763L1.938.763zm4.185 4.775l.275-.962a1 1 0 0 0-.953.227l.678.735zm.825.235l.973-.229a1 1 0 0 0-.698-.732l-.275.961zm8.16-1.76a1 1 0 0 0-1.946.458l1.946-.458zM.646-.763C-1.296.88-1.617 3.889.204 5.862l1.47-1.356C.667 3.416.817 1.712 1.938.763L.646-.763zM.204 5.862c1.737 1.883 4.607 2.248 6.597.41l-1.356-1.47c-1.073.991-2.68.885-3.771-.296L.204 5.862zm5.644.637l.825.236.55-1.923-.825-.236-.55 1.923zm.126-.497c.585 2.486 2.969 4.183 5.562 3.572l-.458-1.946c-1.412.332-2.8-.564-3.157-2.084l-1.947.458zm5.562 3.572c2.486-.584 4.183-2.968 3.572-5.561l-1.946.458c.332 1.412-.564 2.799-2.084 3.157l.458 1.946z"/>
        <path id="bC" d="M11.701 3.733a1 1 0 0 0-1.897-.632l1.897.632zM1.215.316A1 1 0 1 0-.682-.316l1.897.632zm8.589 2.785c-.774 2.32-3.4 3.664-5.687 2.902L3.485 7.9c3.368 1.123 7.104-.832 8.216-4.167l-1.897-.632zM4.117 6.003C1.797 5.229.453 2.603 1.215.316L-.682-.316C-1.805 3.052.15 6.789 3.485 7.9l.632-1.897z"/>
        <path id="bD" d="M8.813 2.79a1 1 0 1 0-1.898-.632l1.898.633zM1.154.317A1 1 0 1 0-.743-.316l1.897.632zm5.761 1.842c-.54 1.62-2.227 2.484-3.801 1.96L2.48 6.015c2.668.89 5.458-.603 6.332-3.224l-1.898-.633zm-3.801 1.96C1.494 3.578.63 1.89 1.154.316L-.743-.316C-1.633 2.35-.14 5.14 2.48 6.015l.633-1.897z"/>
        <path id="bE" d="M-.95 23.839a1 1 0 0 0 1.9.63l-1.9-.63zM8.962.315a1 1 0 1 0-1.898-.63l1.898.63zM.95 24.468L8.961.316l-1.898-.63L-.95 23.84l1.898.63z"/>
        <path id="bF" d="M17.793 14.149c.236 1.532-6.244.353-6.833 1.532-.943 2.12.824 8.247-.236 10.721-.943 2.121-6.245 3.3-5.773 5.538.353 1.296 1.531 1.178 1.65 2.239.353 2.827-2.475 10.015-4.478 12.371-3.77 4.477-2.474 9.78 3.535 8.719 5.773-1.06 10.368-5.066 14.963-8.248 2.357-1.65 4.83-2.945 7.07-4.712.706-.59 1.413-1.179 2.002-1.886.472.118.943.118 1.414.118 5.184.236 8.012-4.241 7.777-8.247 3.888-2.003 8.6-3.3 10.25-7.895 1.65-4.595-.471-6.48-4.242-9.072-.117-.825-1.885-3.181-2.238-4.006-2.239-5.538-6.716-7.658-11.9-6.716-5.302-5.42-8.248-6.951-13.668.354-2.12 3.063 0 5.42.707 9.19z"/>
        <path id="bG" d="M14.79 6.07a5.19 5.19 0 0 0 .236 3.536c-2.239 2.71-5.184 5.066-6.48 8.483-.943 2.592-.118 5.655-.943 8.012A23.011 23.011 0 0 0 5.6 28.81c-1.178 1.65-.824 3.652.236 5.066-.59 1.65-1.296 3.299-2.12 4.83-.943 1.415-1.768 2.828-2.829 4.124-3.18 4.242 2.946 9.073 6.48 5.067 1.415-1.532 2.475-3.3 3.417-5.067 3.653-6.008 6.48-12.489 9.898-18.733 1.767-1.414 3.77-2.71 6.126-3.653 1.65-.707 2.357-2.003 2.475-3.417.235.118.589.118.824.118.707 0 1.414 0 2.003-.118 2.828 3.064 8.837.236 6.834-4.123l-.707-1.414c0-.943-.236-1.885-.825-2.592-3.299-4.006-7.069-5.774-11.31-6.01C25.395.77 23.038-.644 20.799.299c-3.18 1.296-4.83 2.71-6.008 5.773z"/>
        <path id="bH" d="M.803 4.521C.213 5.817.449 6.76.449 8.056v.118c-.118.118-.118.235-.236.471-1.06 2.003 2.121 3.3 3.182 1.414 1.06-2.003 2.12-5.656 4.713-6.245 1.531-.353 2.356-2.71.47-3.416C6.34-.427 4.456.044 2.807 1.694 2.099 2.636 1.274 3.579.803 4.52z"/>
        <path id="bI" d="M.19 7.32c-.707 1.178.707 2.474 1.768 2.474.942-.117 1.65-.353 2.356-.824A20.96 20.96 0 0 1 7.85 6.967c1.178-.472 1.885-.825 3.063-.236.943.471 1.768.943 2.71 1.296 1.296.471 2.357-.59 2.474-1.65.943-.589 1.414-2.003.236-2.945C14.8 2.254 13.858.722 11.972.25 10.323-.221 8.439.015 6.907.604 3.961 1.782 1.84 4.492.19 7.32z"/>
        <path id="bJ" d="M.293 8.37c.117.117.117.235.235.353-.118.353-.118.707-.235 1.06-.118 2.239 3.299 2.71 3.417.471.117-2.356 2.592-4.241 3.888-6.126 1.178-1.65.942-4.242-1.65-4.124C2.885.122-1.122 5.306.293 8.369z"/>
        <path id="bK" d="M2.047 3.432c.236.118.472.236.59.353C1.223 4.492.398 6.26.045 7.91c-.472 2.239 2.945 2.71 3.416.471 0-.353.118-.706.354-1.06.118-.471.235-.471.235-.118.118 0 .472.472.59.59.589.588 1.296 1.295 2.003 1.767 1.531 1.06 3.18 1.767 4.83.707.707-.472.943-1.768.354-2.475C10.53 6.377 8.88 5.553 7.585 4.14 6.29 2.607 4.993 1.193 3.108.25 1.34-.928.045 2.37 2.048 3.43z"/>
        <path id="bL" d="M.868 6.84c.235.235.471.353.707.353.353 1.65 3.181 1.767 3.417-.236.235-1.649 1.296-2.71 2.12-4.123.825-1.296 0-2.946-1.531-2.828-1.414.118-2.946 1.178-3.888 2.12C.16 3.542-.782 5.309.868 6.84z"/>
        <path id="bM" d="M0 3.196c0 .707.118 1.296.59 1.885.588.707 1.53.943 2.356.943.942 0 1.65-1.06 1.531-2.003 0-.472-.235-.825-.589-1.06.59-.59.707-1.65.118-2.24-.59-.824-1.65-.942-2.474-.353C.707.958.118 2.136 0 3.196z"/>
        <path id="bN" d="M.653 2.38c-.354.824-.825 2.003-.59 2.827.236.943.943 1.65 2.003 1.532A2.03 2.03 0 0 0 3.48 5.561c.236 0 .354-.118.59-.236.942-.707 2.12-1.06 3.18-1.767C9.019 2.144 7.016-.684 5.13.73 4.54.141 3.598-.212 2.773.141 1.713.377 1.123 1.437.653 2.38z"/>
        <path id="bO" d="M.217 5.28C.1 6.814 2.22 7.99 3.398 6.578c.59-.707 1.179-1.296 2.003-1.885.118.118.118.236.236.236a6.908 6.908 0 0 0 2.239 1.531c.824.236 1.767.118 2.12-.707.472-.707.354-1.767-.353-2.238-.825-.59-1.65-1.414-2.474-1.886-.236-.235-.472-.589-.825-.824-.943-.707-2.12-1.06-3.299-.59C1.042.923-.608 3.16.217 5.282z"/>
        <path id="bP" d="M3.044 1.866c0 .236.118.59.118.825-.943.707-1.65 1.885-2.475 2.71-.707.707-.942 1.65-.353 2.474.471.707 1.767 1.06 2.474.354.707-.707 1.296-1.414 2.003-2.24 0 .119.118.237.118.354.353 1.296 2.239 1.414 3.063.472 1.414-1.65.707-3.77-1.06-4.595-.236-.236-.354-.472-.354-.707-.117-2.239-3.534-1.885-3.534.353z"/>
        <path id="bQ" d="M.632 6.371c1.532.943 2.945.825 4.241.118.707.707 1.886.942 2.593-.118.707-.943.707-1.767.47-2.592.237-.354.472-.59.708-.943C9.94 1.07 7.23-1.17 5.934.716l-.118.117C5.227.48 4.52.363 3.813.833c-.942.707-1.65 2.003-2.71 2.357C-.075 3.66-.429 5.546.632 6.37z"/>
        <path id="bR" d="M.613 3.247c.471.353 1.296.471 1.885.235.59 0 1.178-.471 1.532-1.06.353-.825 0-1.885-.943-2.239C2.145-.17.967-.052.377.89c-.589.707-.471 1.768.236 2.357z"/>
        <path id="bS" d="M2.833 7.184l.354-.354c.118.118.353.236.471.354.825.353 2.003 0 2.239-.943.353-1.296.589-2.592.942-3.888.236-.825.118-1.767-.707-2.12-.707-.354-1.767-.354-2.238.353C2.95 2 2.009 3.296.594 4.356c-1.649 1.296.472 4.124 2.24 2.828z"/>
        <path id="bT" d="M.318 2.774c.236.472.59.825 1.06 1.06.826.472 1.886.472 2.475-.235.236-.236.236-.471.354-.825 0-.118.117-.118.117-.235A1.742 1.742 0 0 0 3.382.3C2.439-.171 1.614-.053.672.418-.153.77-.153 2.068.318 2.774z"/>
        <path id="bU" d="M.134 3.078c.354.943 1.414 1.296 2.24.943.588-.236 1.177-.472 1.649-.825.824-.471.942-1.767.353-2.474-.59-.825-1.65-.943-2.474-.354-.236.118-.471.236-.825.354-.943.353-1.296 1.531-.943 2.356z"/>
        <path id="bV" d="M7.734-.837A1 1 0 1 0 6.64.837L7.734-.837zM9.19 9.19l.837.547.01-.014-.847-.533zM.533 10.347a1 1 0 1 0-1.066 1.692l1.066-1.692zM6.64.837c2.614 1.71 3.412 5.108 1.704 7.82l1.692 1.066c2.299-3.65 1.211-8.263-2.302-10.56L6.64.837zm1.713 7.806c-1.709 2.614-5.108 3.412-7.82 1.704l-1.066 1.692c3.65 2.299 8.263 1.211 10.56-2.302L8.353 8.643z"/>
        <path id="bW" d="M2.512 13.116a1 1 0 1 0 1.095-1.674l-1.095 1.674zM9.714 1.932A1 1 0 0 0 10.78.24L9.713 1.932zm-6.107 9.51C.993 9.732.195 6.334 1.903 3.622L.21 2.556C-2.088 6.206-1 10.82 2.512 13.116l1.095-1.674zm-1.704-7.82C3.599.928 6.98.21 9.713 1.932L10.78.24C7.15-2.045 2.52-1.112.21 2.556l1.693 1.066z"/>
        <path id="bX" d="M18.558 9.78a8.78 8.78 0 0 1-8.779 8.778v2c5.954 0 10.78-4.825 10.78-10.779h-2zM9.78 18.557A8.78 8.78 0 0 1 1 9.78h-2c0 5.954 4.826 10.78 10.78 10.78v-2zM1 9.78A8.78 8.78 0 0 1 9.78 1v-2C3.825-1-1 3.826-1 9.78h2zM9.78 1a8.78 8.78 0 0 1 8.778 8.78h2C20.558 3.825 15.733-1 9.78-1v2z"/>
        <path id="bY" d="M9.958-.464a1 1 0 1 0-1.771.928l1.771-.928zM.894 4.148a1 1 0 0 0-1.788.894l1.788-.894zM8.187.464c1.037 1.98.289 4.43-1.8 5.475l.894 1.79c3.095-1.548 4.232-5.225 2.677-8.193L8.187.464zm-1.8 5.475c-2.11 1.055-4.45.295-5.493-1.791l-1.788.894C.655 8.141 4.207 9.265 7.28 7.728L6.386 5.94z"/>
        <path id="bZ" d="M5.143 1.004a1 1 0 1 0 .083-1.999l-.083 1.999zM4.83 11.019a1 1 0 0 0 0-2v2zM5.226-.995C1.852-1.135-1 1.535-1 4.835h2C1 2.715 2.86.91 5.143 1.004l.083-1.999zM-1 4.835c0 3.169 2.48 6.184 5.83 6.184v-2C2.763 9.02 1 7.086 1 4.835h-2z"/>
        <path id="ca" d="M14.743 8.547a1 1 0 0 0-1.69-1.07l1.69 1.07zM2.02.535a1 1 0 0 0-1.69-1.07l1.69 1.07zm11.035 6.942c-1.947 3.074-5.926 3.986-8.989 2.047l-1.07 1.69c4.007 2.537 9.218 1.328 11.748-2.667l-1.69-1.07zM4.065 9.524C.991 7.577.08 3.597 2.02.535L.329-.535c-2.538 4.007-1.33 9.218 2.666 11.748l1.07-1.69z"/>
        <path id="cb" d="M7.48-.47a1 1 0 1 0-1.764.94L7.48-.47zM4.95 4.948L4.5 4.054a.992.992 0 0 0-.023.012l.47.883zM.894 2.852a1 1 0 1 0-1.788.894l1.788-.894zM5.716.47c.67 1.257.181 2.885-1.215 3.583l.895 1.789C7.77 4.656 8.696 1.807 7.48-.471L5.716.471zM4.478 4.066c-1.257.67-2.886.182-3.584-1.214l-1.788.894c1.187 2.374 4.036 3.3 6.313 2.085l-.941-1.765z"/>
        <path id="cc" d="M3.835 1.004a1 1 0 0 0 .118-1.996l-.118 1.996zm-.353 7.423a1 1 0 0 0 .117-1.997l-.117 1.997zm.47-9.42C1.37-1.143-.843.958-.991 3.483l1.996.117C1.091 2.12 2.412.921 3.835 1.004l.118-1.996zM-.991 3.483C-1.144 6.065.957 8.278 3.482 8.427l.117-1.997C2.12 6.343.921 5.022 1.004 3.6l-1.996-.118z"/>
        <path id="cd" d="M2.514.882a1 1 0 1 0-.94-1.764l.94 1.764zm2.829 5.716l.555-.832a1 1 0 0 0-1.026-.05l.47.882zm.707.471l.998.06a1 1 0 0 0-.443-.892l-.555.832zm3.652 3.77l.059-.998a1 1 0 0 0-.059-.001v1zm4.77-3.652a1 1 0 1 0-2 0h2zM1.574-.883C-.62.288-1.722 3.107-.488 5.42l1.765-.941C.625 3.257 1.173 1.598 2.514.882l-.94-1.764zM-.488 5.42C.682 7.613 3.5 8.714 5.813 7.48l-.94-1.764c-1.222.65-2.881.103-3.596-1.238l-1.765.941zM4.788 7.43l.707.471 1.11-1.664-.707-.471-1.11 1.664zm.264-.42c-.153 2.593 1.97 4.83 4.65 4.83v-2c-1.56 0-2.737-1.298-2.654-2.712l-1.996-.117zm4.592 4.828c2.592.152 4.829-1.97 4.829-4.65h-2c0 1.56-1.298 2.737-2.712 2.653l-.117 1.997z"/>
        <path id="ce" d="M10.921 6.428a1 1 0 0 0-1.687-1.074l1.687 1.074zM2.537 7.541l.555-.832a1.008 1.008 0 0 0-.018-.012l-.537.844zM1.719.555A1 1 0 1 0 .055-.555L1.72.555zm7.515 4.8C7.88 7.478 5.094 8.042 3.092 6.708l-1.11 1.664c2.947 1.964 6.993 1.114 8.94-1.945L9.233 5.354zm-6.16 1.342C.948 5.345.384 2.557 1.719.555L.055-.555C-1.909 2.392-1.059 6.438 2 8.385l1.074-1.688z"/>
        <path id="cf" d="M8.29 4.772a1 1 0 1 0-1.696-1.06l1.696 1.06zM1.456.53A1 1 0 0 0-.24-.53L1.456.53zm5.138 3.182c-.89 1.423-2.75 1.859-4.16.978l-1.06 1.696c2.36 1.475 5.449.732 6.916-1.614l-1.696-1.06zm-4.16.978C1.01 3.8.574 1.94 1.456.53L-.24-.53c-1.475 2.36-.733 5.449 1.614 6.916l1.06-1.696z"/>
        <path id="cg" d="M40.297 3.467a1 1 0 0 0-.24-1.986l.24 1.986zM33.344 3.3l-.12-.993a1 1 0 0 0-.45.171l.57.822zM.84-.542A1 1 0 1 0-.84.542L.84-.542zM40.058 1.48l-6.834.825.24 1.986 6.833-.825-.24-1.986zM33.344 3.3l-.57-.822-.002.001-.009.007a8.453 8.453 0 0 1-.212.14c-.156.103-.38.246-.677.428a36.81 36.81 0 0 1-2.535 1.407c-2.175 1.102-5.118 2.355-8.457 3.06-3.349.715-6.89.874-10.4-.253C7.04 6.176 3.668 3.84.84-.543L-.84.543c3.064 4.75 6.805 7.392 10.719 8.631 3.848 1.204 7.905 1.046 11.419.303 3.524-.753 6.709-2.1 8.945-3.232a39.775 39.775 0 0 0 2.672-1.484 28.124 28.124 0 0 0 .978-.625l.014-.01.005-.003h.001l-.57-.823z"/>
        <path id="ch" d="M11.753.606a1 1 0 0 0-1.591-1.212L11.753.606zM.568-.116A1 1 0 1 0-.568 1.53L.568-.116zM10.958 0a91.483 91.483 0 0 1-.796-.606v-.001l.002-.001V-.61l-.002.003a5.635 5.635 0 0 1-.616.628 6.255 6.255 0 0 1-1.881 1.172c-1.566.636-3.951.86-7.097-1.31L-.568 1.53C3.12 4.073 6.213 3.943 8.418 3.047a9.161 9.161 0 0 0 2.45-1.523c.275-.244.502-.477.64-.628a6.398 6.398 0 0 0 .221-.26l.015-.019.006-.007a.07.07 0 0 1 .002-.002V.607c0-.001.001-.001-.795-.607z"/>
        <path id="ci" d="M10.14.555a1 1 0 1 0-1.664-1.11L10.14.555zM.106 4.072a1 1 0 0 0-.212 1.989l.212-1.989zM9.308 0l-.832-.555v-.001c.001 0 0 0 0 0a.882.882 0 0 1-.03.045 11.52 11.52 0 0 1-.577.74 13.383 13.383 0 0 1-1.772 1.752C4.563 3.238 2.497 4.326.106 4.072l-.212 1.989c3.146.334 5.735-1.11 7.47-2.534A16.31 16.31 0 0 0 9.397 1.52a14.443 14.443 0 0 0 .687-.882l.04-.057.011-.017a.134.134 0 0 1 .005-.008c0-.001.001-.001-.831-.556z"/>
        <path id="cj" d="M.12 1.481a1 1 0 0 0-.24 1.986l.24-1.986zM6.834 3.3l.57-.822a1 1 0 0 0-.45-.17l-.12.992zM41.018.542a1 1 0 0 0-1.68-1.084l1.68 1.084zM-.12 3.467l6.834.825.24-1.986L.12 1.481l-.24 1.986zM6.834 3.3l-.57.822.002.001.004.003.015.01a9.328 9.328 0 0 0 .246.165c.165.107.416.268.732.46.622.38 1.545.912 2.672 1.484 2.236 1.132 5.42 2.479 8.944 3.232 3.515.743 7.572.9 11.42-.303 3.913-1.24 7.655-3.882 10.719-8.63l-1.68-1.085c-2.828 4.382-6.2 6.718-9.643 7.809-3.509 1.127-7.051.968-10.4.253-3.339-.705-6.281-1.958-8.456-3.06a36.812 36.812 0 0 1-2.535-1.407 25.163 25.163 0 0 1-.89-.568l-.009-.007h-.002l-.57.821z"/>
        <path id="ck" d="M.796-.606A1 1 0 1 0-.796.606L.796-.606zm10.73 2.136A1 1 0 0 0 10.39-.116l1.135 1.646zM0 0c-.796.606-.795.606-.795.607a1.297 1.297 0 0 0 .072.09c.037.044.1.117.173.199.138.151.365.384.64.628a9.16 9.16 0 0 0 2.45 1.523c2.204.896 5.298 1.026 8.985-1.517L10.39-.116c-3.147 2.17-5.532 1.946-7.098 1.31A6.255 6.255 0 0 1 1.412.023a5.642 5.642 0 0 1-.616-.629L.793-.609l.002.002L0 0z"/>
        <path id="cl" d="M.832-.555A1 1 0 1 0-.832.555L.832-.555zm8.582 6.616a1 1 0 0 0-.212-1.989l.212 1.989zM0 0a121.97 121.97 0 0 0-.831.556 2.037 2.037 0 0 0 .056.082l.145.2c.12.161.308.404.542.682a16.31 16.31 0 0 0 2.031 2.007c1.736 1.424 4.325 2.868 7.47 2.534l-.21-1.989c-2.393.254-4.458-.834-5.992-2.091A13.384 13.384 0 0 1 .831-.555v-.001C.832-.554.833-.554 0 0z"/>
        <path id="cm" d="M-.707 10.25a1 1 0 1 0 1.414 1.415L-.707 10.25zm53.02 1.415a1 1 0 0 0 1.414-1.415l-1.414 1.415zm-51.606 0c14.22-14.22 37.387-14.22 51.606 0l1.414-1.415c-15-15-39.434-15-54.434 0l1.414 1.415z"/>
        <path id="cn" d="M30.593 1.767C28.353.117 25.29.236 22.463 0c0 0-.707.825-.825.825-1.767-.472-5.773-.943-12.136.825-3.888 1.06 1.179 3.77 5.184 4.477h.236c-.825.589-1.296 1.414-1.296 2.356-2.71.118-6.362.118-8.247-1.65C2.55 4.007-1.926 8.484.9 11.312c2.239 2.239 3.417-1.65 6.716 0 12.49 5.891 22.386 1.65 27.335-3.77 1.885-2.003-2.474-4.36-4.36-5.774z"/>
        <path id="co" d="M31.383 7.063c-4.124.706-8.483 2.003-12.725 1.649 0-.353-.118-.707-.236-1.178h.472c3.299-.236 5.066-2.71 2.003-4.83C18.069.7 13.12-.36 10.647.11 7.7.111 2.398 2.35.276 4.941-.9 6.357 1.928 9.656 3.93 10.716c4.36 2.239 8.248 3.535 13.432 4.124 5.302.707 10.486-.707 15.788-1.65 3.77-.825 2.121-6.951-1.767-6.126z"/>
        <path id="cp" d="M209.233 5.98c-3.064-9.19-17.438-7.305-20.266 2.356-4.83 16.496.943 37.468 2.003 54.199-1.296 5.42-2.827 10.84-4.359 15.788-3.417 10.722-7.894 20.501-9.544 31.812-.353 2.828-.825 5.538-1.178 8.248l-1.06 1.06c-10.722 12.725-1.061 22.151-5.891 38.057-.472 1.414-.707 30.398-1.179 31.812-6.244 11.193-20.501 15.552-32.99 17.673-12.843 2.239-46.54 0-57.733 7.07-22.386 5.891-32.637-4.713-51.842-4.713-16.495-9.426-17.32-55.73-18.852-53.02-10.368.235-8.247 57.733 8.012 64.92 12.96 5.773 28.16.707 42.18 2.121 14.729 1.413 29.339 1.885 44.066 2.474 26.039.942 52.903 3.063 78.588-2.71 8.601-1.885 14.257-8.13 15.67-16.849 2.121-13.314-5.537-26.156-7.776-39.352-.825-5.067.236-10.604 3.417-16.967.471-1.178 1.06-2.238 1.65-3.417 4.83-9.19 10.25-12.607 9.425-16.377-5.773-24.978-4.123-29.927-2.356-40.649 1.178-7.423 12.018-18.616 11.782-25.92.825-4.242 1.414-8.484 2.003-12.726 1.178-12.489.236-32.636-3.77-44.89z"/>
        <path id="cq" d="M24.154 2.866c-2.828-1.65-5.302-4.595-6.716-1.531-1.414 2.945 3.534 5.302 3.18 8.6-.117 1.414-2.709 4.36-3.77 5.303-.588.47-4.241-.59-5.066-.59.59-.117-1.178-.117-.471 0-.943-.117-5.42-6.008-5.42-7.422C5.891-1.022 0 6.283 0 14.53c0 9.543 6.009 14.492 15.2 12.489 4.24-.943 8.364-3.77 10.603-7.54 2.12-3.653 1.296-.59 3.063-4.242 1.532-3.182-1.531-10.487-4.712-12.372z"/>
        <path id="cr" d="M28.416 7.039c-.471-6.834-12.018-10.015-8.13-3.417 4.006 6.716-1.885 8.6-2.474 10.486-3.653-.471-7.07-.59-9.662-4.124-2.12-2.827 3.889-11.31.59-9.426C5.912 2.09-1.51 9.513.492 12.341c.118.118.236.235.236.353-2.357 2.828 1.414 9.426 5.537 11.665 5.656 3.063 10.015 1.531 16.024-.707 2.239-.825 4.006-2.003 5.302-3.535 4.713-2.828 1.178-7.07.825-13.078z"/>
        <path id="cs" d="M53.206 2.152c-.589.47-1.296.942-2.003 1.413-.825.236-1.532.707-2.12 1.414-6.245 4.006-13.197 7.07-19.324 11.311-8.836 6.01-14.256 13.55-17.909 23.565C9.73 45.51 8.434 51.519 7.255 57.41c-1.06 5.774-.824 12.96-3.888 18.145-2.238 3.77-2.12 8.837-2.12 13.55 0 4.712-2.357 36.642-.59 41.237 1.296 3.417 3.417-24.035 7.07-24.742 15.906-3.181 16.966-29.456 19.794-41.71 2.356-10.014 3.534-24.035 10.604-32.047 6.127-6.952 15.435-10.015 20.5-18.027 1.297-.825 8.602-6.245 9.78-7.187 6.598-4.949-8.719-9.426-15.199-4.477z"/>
    </defs>
</svg>
