<svg width="64" height="64" viewBox="0 0 64 64" fill="none" xmlns="http://www.w3.org/2000/svg">
<path d="M4 30H60" stroke="black" stroke-width="3" stroke-linecap="round" stroke-linejoin="round"/>
<path d="M56 46V52C56 52.5304 55.7893 53.0391 55.4142 53.4142C55.0391 53.7893 54.5304 54 54 54H48C47.4696 54 46.9609 53.7893 46.5858 53.4142C46.2107 53.0391 46 52.5304 46 52V46" stroke="black" stroke-width="3" stroke-linecap="round" stroke-linejoin="round"/>
<path d="M18 46V52C18 52.5304 17.7893 53.0391 17.4142 53.4142C17.0391 53.7893 16.5304 54 16 54H10C9.46957 54 8.96086 53.7893 8.58579 53.4142C8.21071 53.0391 8 52.5304 8 52V46" stroke="black" stroke-width="3" stroke-linecap="round" stroke-linejoin="round"/>
<path d="M16 38H20" stroke="black" stroke-width="3" stroke-linecap="round" stroke-linejoin="round"/>
<path d="M44 38H48" stroke="black" stroke-width="3" stroke-linecap="round" stroke-linejoin="round"/>
<path d="M56 30L48.5279 13.1877C48.3708 12.8342 48.1145 12.5338 47.7901 12.323C47.4657 12.1122 47.0871 12 46.7002 12H17.2997C16.9129 12 16.5343 12.1122 16.2099 12.323C15.8855 12.5338 15.6293 12.8342 15.4721 13.1877L8 30V46H56V30Z" stroke="black" stroke-width="3" stroke-linecap="round" stroke-linejoin="round"/>
</svg>
