<svg width="64" height="64" viewBox="0 0 64 64" fill="none" xmlns="http://www.w3.org/2000/svg">
<path d="M32 56C45.2548 56 56 45.2548 56 32C56 18.7452 45.2548 8 32 8C18.7452 8 8 18.7452 8 32C8 45.2548 18.7452 56 32 56Z" stroke="black" stroke-width="3" stroke-linecap="round" stroke-linejoin="round"/>
<path d="M23 38H34" stroke="black" stroke-width="3" stroke-linecap="round" stroke-linejoin="round"/>
<path d="M27 43V21H34.5C36.2239 21 37.8772 21.6848 39.0962 22.9038C40.3152 24.1228 41 25.7761 41 27.5C41 29.2239 40.3152 30.8772 39.0962 32.0962C37.8772 33.3152 36.2239 34 34.5 34H23" stroke="black" stroke-width="3" stroke-linecap="round" stroke-linejoin="round"/>
</svg>
