<svg width="64" height="64" viewBox="0 0 64 64" fill="none" xmlns="http://www.w3.org/2000/svg">
<path d="M9.99995 33.2677L3.82054 30.178C3.58298 30.0592 3.37145 29.8943 3.19831 29.6929C3.02517 29.4915 2.89389 29.2576 2.81211 29.0049C2.73034 28.7522 2.69972 28.4857 2.72204 28.2211C2.74436 27.9564 2.81917 27.6988 2.94211 27.4634L9.09035 15.6891C9.33305 15.2243 9.74857 14.8735 10.2474 14.712C10.7463 14.5506 11.2886 14.5915 11.7576 14.826L18 17.9472L9.99995 33.2677Z" stroke="#222222" stroke-width="3" stroke-linecap="round" stroke-linejoin="round"/>
<path d="M54 33.5362L50 38.2157L40.8007 47.415C40.5565 47.6592 40.2532 47.836 39.9204 47.9282C39.5875 48.0204 39.2365 48.0248 38.9014 47.9411L24.4122 44.3187C24.1404 44.2508 23.886 44.1265 23.6653 43.954L10 33.2682" stroke="#222222" stroke-width="3" stroke-linecap="round" stroke-linejoin="round"/>
<path d="M18.1436 17.9479L30.9736 14.2076C31.4319 14.0739 31.9229 14.1087 32.3579 14.3055L41 18.2159" stroke="#222222" stroke-width="3" stroke-linecap="round" stroke-linejoin="round"/>
<path d="M28 53.2154L20.4651 51.3317C20.1594 51.2552 19.876 51.1076 19.6381 50.9008L14 46" stroke="#222222" stroke-width="3" stroke-linecap="round" stroke-linejoin="round"/>
<path d="M60.1794 30.4459L54 33.5356L46 18.2151L52.2423 15.094C52.7113 14.8595 53.2536 14.8185 53.7525 14.98C54.2514 15.1414 54.6669 15.4923 54.9096 15.9571L61.0578 27.7313C61.1808 27.9668 61.2556 28.2243 61.2779 28.489C61.3002 28.7537 61.2696 29.0201 61.1878 29.2728C61.1061 29.5255 60.9748 29.7594 60.8016 29.9608C60.6285 30.1622 60.417 30.3271 60.1794 30.4459V30.4459Z" stroke="#222222" stroke-width="3" stroke-linecap="round" stroke-linejoin="round"/>
<path d="M50.0001 38.2161L39.0001 30.2161L35.8001 32.6161C34.4153 33.6547 32.7311 34.2161 31.0001 34.2161C29.2691 34.2161 27.5849 33.6547 26.2001 32.6161L24.8449 31.5997C24.6157 31.4278 24.4261 31.2086 24.2889 30.957C24.1518 30.7055 24.0703 30.4273 24.05 30.1415C24.0296 29.8557 24.071 29.5688 24.1712 29.3004C24.2714 29.0319 24.4281 28.7881 24.6307 28.5855L34.4143 18.8019C34.6 18.6162 34.8205 18.4689 35.0632 18.3684C35.3058 18.2679 35.5659 18.2161 35.8285 18.2161H46.0001" stroke="#222222" stroke-width="3" stroke-linecap="round" stroke-linejoin="round"/>
</svg>
