<svg width="64" height="64" viewBox="0 0 64 64" fill="none" xmlns="http://www.w3.org/2000/svg">
<path d="M24 14V50" stroke="black" stroke-width="3" stroke-linecap="round" stroke-linejoin="round"/>
<path d="M6 41.7976C5.99991 41.3368 6.15915 40.8902 6.45072 40.5334C6.74228 40.1767 7.14825 39.9317 7.59979 39.84C9.40665 39.4709 11.0305 38.4889 12.1968 37.0603C13.363 35.6318 14 33.8442 14 32C14 30.1558 13.363 28.3682 12.1968 26.9397C11.0305 25.5111 9.40665 24.5291 7.59979 24.16C7.14825 24.0683 6.74228 23.8233 6.45072 23.4666C6.15915 23.1098 5.99991 22.6632 6 22.2024V16C6 15.4696 6.21071 14.9609 6.58579 14.5858C6.96086 14.2107 7.46957 14 8 14H56C56.5304 14 57.0391 14.2107 57.4142 14.5858C57.7893 14.9609 58 15.4696 58 16V22.2024C58.0001 22.6632 57.8409 23.1098 57.5493 23.4666C57.2577 23.8234 56.8518 24.0683 56.4002 24.16C54.5934 24.5291 52.9695 25.5111 51.8032 26.9397C50.637 28.3683 50 30.1558 50 32C50 33.8442 50.637 35.6318 51.8032 37.0604C52.9695 38.489 54.5934 39.4709 56.4002 39.84C56.8518 39.9317 57.2577 40.1767 57.5493 40.5334C57.8408 40.8902 58.0001 41.3368 58 41.7976V48C58 48.5304 57.7893 49.0391 57.4142 49.4142C57.0391 49.7893 56.5304 50 56 50H8C7.46957 50 6.96086 49.7893 6.58579 49.4142C6.21071 49.0391 6 48.5304 6 48V41.7976Z" stroke="black" stroke-width="3" stroke-linecap="round" stroke-linejoin="round"/>
</svg>
