<svg width="363" height="338" viewBox="0 0 363 338" fill="none" xmlns="http://www.w3.org/2000/svg">
<circle cx="179.5" cy="168.514" r="168.5" fill="#F8FBFF"/>
<circle cx="355" cy="39" r="8" fill="#FFD12D"/>
<circle cx="8" cy="312" r="8" fill="#93E6CF"/>
<path d="M125.452 301C125.297 300.76 125.162 300.619 125.104 300.459C124.369 298.416 123.654 296.373 122.938 294.33C122.725 293.729 122.513 293.108 122.319 292.487C122.145 291.946 121.875 291.485 121.333 291.285C120.405 290.945 119.497 290.604 118.568 290.243C117.505 289.843 116.461 289.422 115.417 289.022C114.779 288.781 114.141 288.581 113.503 288.32C113.309 288.24 113.174 288.04 113 287.88C113.174 287.74 113.309 287.519 113.503 287.459C114.566 287.039 115.649 286.638 116.712 286.237C117.698 285.857 118.665 285.496 119.651 285.116C120.193 284.915 120.734 284.715 121.295 284.515C121.759 284.334 122.068 284.014 122.242 283.533C122.571 282.592 122.899 281.65 123.228 280.729C123.77 279.227 124.311 277.704 124.852 276.202C124.949 275.921 124.988 275.621 125.123 275.341C125.2 275.18 125.374 275 125.51 275C125.645 275 125.819 275.2 125.877 275.361C126.612 277.404 127.327 279.447 128.062 281.49C128.275 282.111 128.487 282.752 128.7 283.373C128.874 283.934 129.164 284.334 129.725 284.535C131.117 285.035 132.509 285.556 133.901 286.097C134.887 286.478 135.873 286.878 136.879 287.259C137.13 287.359 137.42 287.399 137.652 287.519C137.807 287.599 138 287.76 138 287.9C138 288.02 137.807 288.24 137.671 288.28C135.235 289.242 132.818 290.143 130.401 291.065C130.305 291.105 130.189 291.145 130.073 291.165C129.261 291.345 128.835 291.846 128.584 292.687C128.275 293.769 127.83 294.81 127.462 295.872C127.114 296.874 126.747 297.855 126.399 298.857C126.206 299.418 126.032 299.998 125.819 300.559C125.8 300.68 125.645 300.8 125.452 301Z" fill="#FFB9F8"/>
</svg>
