<svg width="488" height="368" viewBox="0 0 488 368" fill="none" xmlns="http://www.w3.org/2000/svg">
<rect width="488" height="360" transform="translate(0 4)" fill="white"/>
<path fill-rule="evenodd" clip-rule="evenodd" d="M212 22C212 22.6438 211.552 23.2083 210.921 23.3374C136.203 38.6402 80 104.757 80 184C80 263.243 136.203 329.36 210.921 344.663C211.552 344.792 212 345.356 212 346C212 346.988 211.109 347.765 210.142 347.566C134.143 331.916 77 264.631 77 184C77 103.369 134.143 36.0842 210.142 20.4343C211.109 20.2351 212 21.0121 212 22ZM276 22C276 22.6438 276.448 23.2083 277.079 23.3374C351.797 38.6402 408 104.757 408 184C408 263.243 351.797 329.36 277.079 344.663C276.448 344.792 276 345.356 276 346C276 346.988 276.891 347.765 277.858 347.566C353.857 331.916 411 264.631 411 184C411 103.369 353.857 36.0842 277.858 20.4343C276.891 20.2351 276 21.0121 276 22Z" fill="#181818"/>
<path fill-rule="evenodd" clip-rule="evenodd" d="M231 83C231 82.3761 230.459 81.8803 229.841 81.9653C209.371 84.7796 190.82 93.6085 176.027 106.611C175.379 107.181 175.396 108.189 176.022 108.783C176.582 109.315 177.46 109.346 178.04 108.836C192.151 96.4434 209.781 87.961 229.237 85.0822C230.258 84.9311 231 84.0323 231 83ZM293.272 96.961C292.619 96.5905 292.353 95.7872 292.637 95.092C292.971 94.2724 293.943 93.8925 294.713 94.3291C313.062 104.728 327.903 120.597 337.022 139.719C337.429 140.571 336.89 141.568 335.969 141.775C335.29 141.927 334.594 141.598 334.295 140.971C325.446 122.435 311.057 107.051 293.272 96.961ZM343 205C342.304 205 341.691 205.476 341.537 206.155C336.779 227.192 325.39 245.714 309.681 259.407C309.191 259.835 309.044 260.533 309.306 261.128C309.705 262.036 310.87 262.35 311.619 261.698C327.826 247.581 339.575 228.476 344.474 206.774C344.681 205.854 343.944 205 343 205ZM248.619 286.898C249.611 286.855 250.241 285.829 249.903 284.895C249.681 284.284 249.092 283.875 248.443 283.903C246.97 283.967 245.489 284 244 284C224.98 284 207.2 278.69 192.062 269.472C191.418 269.079 190.58 269.244 190.112 269.836C189.565 270.527 189.711 271.552 190.464 272.011C206.065 281.521 224.392 287 244 287C245.548 287 247.088 286.966 248.619 286.898ZM147.856 221.028C148.173 221.851 149.156 222.178 149.934 221.761C150.599 221.406 150.911 220.611 150.64 219.908C146.351 208.763 144 196.656 144 184C144 177.291 144.661 170.736 145.921 164.397C146.071 163.64 145.601 162.896 144.862 162.676C144.034 162.43 143.155 162.921 142.986 163.768C141.683 170.31 141 177.075 141 184C141 197.052 143.428 209.537 147.856 221.028Z" fill="#181818"/>
<path fill-rule="evenodd" clip-rule="evenodd" d="M18.5726 152.181C19.2436 152.11 19.7986 151.601 19.8962 150.933C23.6243 125.446 31.5971 101.336 43.0743 79.3464C43.4084 78.7063 43.2154 77.9193 42.6409 77.4821C41.9128 76.9281 40.8472 77.13 40.4238 77.9411C28.786 100.234 20.7022 124.677 16.9249 150.518C16.7853 151.473 17.6131 152.284 18.5726 152.181ZM16.9249 217.482C16.7853 216.527 17.6131 215.716 18.5726 215.819C19.2436 215.89 19.7986 216.399 19.8962 217.067C23.6243 242.554 31.5971 266.663 43.0743 288.654C43.4084 289.294 43.2154 290.081 42.6408 290.518C41.9128 291.072 40.8472 290.87 40.4238 290.059C28.786 267.766 20.7022 243.323 16.9249 217.482ZM80.2468 342.291C79.4967 342.813 79.3583 343.888 79.9975 344.541C85.7131 350.379 91.7379 355.913 98.0453 361.117C98.6844 361.644 99.6298 361.554 100.157 360.914C100.684 360.275 100.594 359.33 99.9545 358.803C93.7338 353.671 87.7917 348.213 82.1544 342.456C81.6485 341.939 80.8405 341.878 80.2468 342.291ZM445.359 77.4821C444.784 77.9193 444.591 78.7063 444.926 79.3464C456.554 101.627 464.585 126.082 468.249 151.942C468.344 152.611 468.896 153.122 469.567 153.197C470.526 153.303 471.357 152.496 471.222 151.541C467.51 125.322 459.367 100.528 447.576 77.941C447.153 77.13 446.087 76.9281 445.359 77.4821ZM470.923 218.504C471.067 217.55 470.243 216.736 469.283 216.834C468.612 216.902 468.054 217.409 467.954 218.076C464.164 243.191 456.251 266.954 444.926 288.654C444.591 289.294 444.784 290.081 445.359 290.518C446.087 291.072 447.153 290.87 447.576 290.059C459.06 268.06 467.084 243.968 470.923 218.504ZM408.002 344.541C408.642 343.888 408.503 342.813 407.753 342.291C407.159 341.878 406.351 341.939 405.845 342.456C400.194 348.228 394.235 353.699 387.997 358.843C387.358 359.37 387.267 360.315 387.794 360.954C388.321 361.593 389.266 361.684 389.906 361.157C396.231 355.942 402.272 350.394 408.002 344.541ZM405.845 25.5439C406.351 26.0605 407.159 26.1214 407.753 25.7087C408.503 25.1871 408.642 24.1117 408.002 23.4588C402.272 17.6056 396.231 12.058 389.906 6.84266C389.266 6.31564 388.321 6.40655 387.794 7.04573C387.267 7.6849 387.358 8.63029 387.997 9.15731C394.235 14.301 400.194 19.7719 405.845 25.5439ZM79.9975 23.4588C79.3583 24.1117 79.4967 25.1871 80.2468 25.7087C80.8405 26.1214 81.6485 26.0605 82.1544 25.5439C87.7917 19.7868 93.7337 14.3292 99.9545 9.19709C100.594 8.66989 100.684 7.72448 100.157 7.08546C99.6298 6.44643 98.6844 6.35577 98.0453 6.88297C91.7379 12.0866 85.7131 17.6207 79.9975 23.4588Z" fill="#181818"/>
<path fill-rule="evenodd" clip-rule="evenodd" d="M266.293 204.076C260.802 210.169 252.849 214 244 214C235.037 214 226.991 210.069 221.494 203.837L243.98 182.184L266.293 204.076ZM269.878 199.187L246.795 176.539C245.25 175.023 242.778 175.012 241.219 176.513L217.961 198.91C215.441 194.517 214 189.427 214 184C214 167.431 227.431 154 244 154C260.569 154 274 167.431 274 184C274 189.542 272.497 194.732 269.878 199.187ZM280 184C280 203.882 263.882 220 244 220C224.118 220 208 203.882 208 184C208 164.118 224.118 148 244 148C263.882 148 280 164.118 280 184Z" fill="#0085FF"/>
<rect x="40" y="294" width="44" height="44" rx="22" fill="#007FD2"/>
<path fill-rule="evenodd" clip-rule="evenodd" d="M73.9394 325.49C73.2105 327.488 72.1636 328.944 71.0901 329.447C69.9239 329.989 68.8107 329.645 67.83 328.441C66.8493 327.223 65.4578 323.597 64.1988 318.952L63.5494 316.596H58.6989H53.8485L52.8545 319.799C52.0461 322.433 51.8076 323.041 51.5293 323.24C51.1052 323.558 50.5618 323.452 50.257 322.988C50.0582 322.697 50.0847 322.486 50.5486 319.998C50.6987 319.205 50.8411 318.444 50.9467 317.879C51.0368 317.397 51.1001 317.058 51.1184 316.967L51.1714 316.596H48.9848C46.8246 316.596 46.7848 316.596 46.3872 316.252C45.5921 315.591 45.7379 314.347 46.6921 313.897C47.0896 313.711 47.4607 313.685 49.5149 313.764L51.8738 313.857L52.1919 312.613C52.7618 310.31 54.0605 306.631 54.8424 305.017C55.7436 303.217 56.6315 302.039 57.5459 301.417C59.4278 300.16 60.9386 301.073 62.5952 304.461C63.5891 306.499 64.159 308.06 65.1264 311.435L65.8288 313.883L67.2734 313.976C68.0553 314.029 70.4672 314.135 72.6142 314.214C74.7611 314.294 76.7887 314.413 77.1201 314.479C78.1405 314.664 78.5248 315.604 77.849 316.266L77.5309 316.596H72.0841C67.1939 316.596 66.6505 316.623 66.6505 316.808C66.6505 316.927 66.8625 317.88 67.1143 318.926C68.4396 324.431 69.5528 326.932 70.666 326.919C71.8455 326.906 72.2961 326.138 74.0189 321.334C74.9599 318.687 75.0659 318.449 75.3177 318.449C75.8213 318.449 75.8081 318.78 75.0792 321.572C74.6816 323.094 74.1647 324.854 73.9394 325.49ZM54.4846 313.817L57.0821 313.857C58.5134 313.87 60.3953 313.897 61.2567 313.923C62.3567 313.936 62.8073 313.91 62.8073 313.791C62.8073 313.711 62.4759 312.494 62.0784 311.078C60.6471 306.115 59.6266 303.627 59.017 303.627C58.0363 303.627 56.1279 307.677 54.8027 312.587L54.4846 313.817Z" fill="white"/>
<circle cx="244" cy="22" r="22" fill="#4284FB"/>
<path d="M239.017 22C239.017 23.8041 237.554 25.2666 235.75 25.2666C233.946 25.2666 232.483 23.8041 232.483 22C232.483 20.1959 233.946 18.7333 235.75 18.7333C237.554 18.7333 239.017 20.1959 239.017 22Z" fill="white" stroke="white" stroke-width="0.8"/>
<path d="M247.267 22C247.267 23.0447 246.42 23.8916 245.375 23.8916C244.33 23.8916 243.483 23.0447 243.483 22C243.483 20.9552 244.33 20.1083 245.375 20.1083C246.42 20.1083 247.267 20.9552 247.267 22Z" fill="white" stroke="white" stroke-width="0.8"/>
<path d="M253.683 22C253.683 22.5385 253.247 22.975 252.708 22.975C252.17 22.975 251.733 22.5385 251.733 22C251.733 21.4615 252.17 21.025 252.708 21.025C253.247 21.025 253.683 21.4615 253.683 22Z" fill="white" stroke="white" stroke-width="0.8"/>
<circle cx="280" cy="274" r="22" fill="#E7F0F8"/>
<path d="M268.493 268.908L272.11 275.797C272.357 276.266 272.965 276.647 273.468 276.646L280.846 276.631C281.35 276.63 281.558 276.248 281.311 275.778L277.694 268.888C277.447 268.418 276.839 268.038 276.335 268.039L268.957 268.055C268.946 268.055 268.935 268.055 268.924 268.055C268.445 268.073 268.251 268.448 268.493 268.908Z" fill="#75B82C"/>
<path d="M282.507 276.935L284.698 281.022C284.847 281.301 285.211 281.524 285.511 281.521L289.907 281.475C290.207 281.472 290.328 281.243 290.18 280.964L287.99 276.877C287.841 276.599 287.476 276.375 287.177 276.378L282.78 276.425C282.775 276.425 282.77 276.425 282.765 276.425C282.476 276.435 282.361 276.66 282.507 276.935Z" fill="#75B82C"/>
<path d="M282.533 261.417L278.138 267.059C277.837 267.444 277.798 268.135 278.048 268.604L281.723 275.462C281.974 275.93 282.421 275.997 282.72 275.613L287.116 269.97C287.416 269.585 287.456 268.894 287.205 268.426L283.531 261.567C283.385 261.296 283.175 261.16 282.965 261.167C282.812 261.173 282.66 261.255 282.533 261.417Z" fill="#3D90D5"/>
<path d="M281.504 277.004L278.884 280.365C278.705 280.595 278.681 281.007 278.831 281.285L281.02 285.372C281.17 285.651 281.436 285.691 281.615 285.462L284.234 282.1C284.413 281.87 284.436 281.458 284.287 281.18L282.098 277.093C282.011 276.932 281.886 276.85 281.76 276.854C281.67 276.857 281.578 276.906 281.504 277.004Z" fill="#3D90D5"/>
<circle cx="426" cy="316" r="22" fill="#1877F2"/>
<path fill-rule="evenodd" clip-rule="evenodd" d="M434.564 322.359L435.539 316H429.438V311.873C429.438 310.133 430.29 308.438 433.023 308.438H435.797V303.023C435.797 303.023 433.279 302.594 430.872 302.594C425.847 302.594 422.562 305.639 422.562 311.153V316H416.977V322.359H422.562V337.733C423.683 337.908 424.831 338 426 338C427.169 338 428.317 337.908 429.438 337.733V322.359H434.564Z" fill="white"/>
<g clip-path="url(#clip0)">
<circle cx="466" cy="185.467" r="22" fill="white"/>
<path fill-rule="evenodd" clip-rule="evenodd" d="M470.162 197.501C475.003 195.787 478.486 191.189 478.486 185.779C478.486 178.911 472.885 173.324 466 173.324C459.115 173.324 453.514 178.911 453.514 185.779C453.514 191.624 457.576 196.525 463.027 197.859V199.081C456.906 197.726 452.324 192.293 452.324 185.779C452.324 178.245 458.448 172.137 466 172.137C473.553 172.137 479.676 178.245 479.676 185.779C479.676 191.864 475.678 197.009 470.162 198.766V197.501ZM466 179.255C462.393 179.255 459.46 182.182 459.46 185.779C459.46 188.306 460.916 190.485 463.027 191.567V192.886C460.236 191.725 458.27 188.985 458.27 185.779C458.27 181.521 461.731 178.069 466 178.069C470.269 178.069 473.73 181.521 473.73 185.779C473.73 188.506 472.303 190.89 470.162 192.26V190.784C471.608 189.587 472.541 187.796 472.541 185.779C472.541 182.182 469.607 179.255 466 179.255ZM444 185.779C444 193.485 447.989 200.251 454.012 204.167C454.376 203.929 454.749 203.706 455.126 203.491C455.396 203.337 455.668 203.192 455.945 203.049C456.276 202.88 456.611 202.718 456.951 202.565C457.29 202.412 457.633 202.27 457.981 202.133C458.264 202.023 458.55 201.92 458.839 201.82C459.242 201.681 459.651 201.555 460.066 201.438C460.378 201.352 460.692 201.27 461.009 201.196C461.33 201.122 461.652 201.052 461.979 200.991C462.327 200.927 462.675 200.867 463.027 200.818C463.422 200.778 463.816 200.73 464.216 200.698V199.292V198.093V193.276V192.051V187.559H463.027V185.186H464.216H467.784H468.973V191.584V192.897V197.864V199.088V200.817C472.265 201.276 475.324 202.435 477.986 204.165C484.012 200.251 488 193.485 488 185.779C488 173.659 478.15 163.833 466 163.833C453.85 163.833 444 173.659 444 185.779Z" fill="#E54B4D"/>
</g>
<circle cx="426" cy="52" r="22" fill="#333E48"/>
<mask id="mask0" mask-type="alpha" maskUnits="userSpaceOnUse" x="407" y="33" width="38" height="38">
<path d="M443.533 52.0001C443.533 61.6835 435.683 69.5335 426 69.5335C416.317 69.5335 408.467 61.6835 408.467 52.0001C408.467 42.3168 416.317 34.4668 426 34.4668C435.683 34.4668 443.533 42.3168 443.533 52.0001Z" fill="#E7F0F8" stroke="white" stroke-width="1.6"/>
</mask>
<g mask="url(#mask0)">
<circle cx="426" cy="52" r="22" fill="white"/>
<path d="M448 51.9994C448 39.8657 438.131 30 426.001 30C413.871 30 404 39.8657 404 51.9994C404 63.4623 412.813 72.9042 424.018 73.9085H424.072C424.256 73.9244 424.441 73.9382 424.625 73.9499L424.732 73.9561C424.899 73.9662 425.069 73.9737 425.241 73.9787H425.375C425.583 73.9787 425.791 73.9887 426.002 73.9887C426.213 73.9887 426.399 73.9887 426.597 73.9799H426.681C426.856 73.9749 427.03 73.9678 427.203 73.9586H427.238C427.628 73.9369 428.016 73.9047 428.402 73.8621C439.406 72.6685 448 63.3194 448 51.9994ZM428.326 71.7683L428.114 65.6839L433.428 62.4242C434.671 63.2765 436.288 63.3585 437.611 62.6365C438.934 61.9146 439.74 60.5108 439.696 59.004C439.611 56.8938 437.92 55.2026 435.81 55.1174C434.614 55.0745 433.463 55.5715 432.674 56.4708C431.885 57.3701 431.542 58.5765 431.74 59.7563L427.99 62.0757L427.718 54.4091L432.948 51.2108C434.785 52.5827 437.342 52.4338 439.008 50.8581C440.674 49.2824 440.964 46.7368 439.696 44.8266C438.428 42.9163 435.969 42.1955 433.87 43.1186C431.772 44.0417 430.641 46.341 431.192 48.5666L427.593 50.8008L427.38 44.6825C429.092 44.0203 430.193 42.3409 430.117 40.5063C430.027 38.3672 428.373 36.622 426.242 36.4189C424.11 36.2157 422.156 37.6169 421.664 39.7007C421.173 41.7845 422.294 43.9115 424.292 44.6825L423.903 57.3591L419.985 54.8629C420.247 53.7947 420.122 52.6685 419.633 51.6834C418.849 50.0536 417.27 48.8976 415.468 48.7848C413.24 48.6394 411.189 49.9989 410.455 52.1076C409.72 54.2163 410.484 56.5557 412.321 57.8254C414.157 59.095 416.616 58.9827 418.329 57.5509L423.79 61.0062L423.462 71.7445C413.683 70.4971 406.087 62.1183 406.087 51.9994C406.095 41.0241 415.024 32.0925 426.001 32.0925C436.977 32.0925 445.906 41.0216 445.906 51.9981C445.906 62.1885 438.21 70.6124 428.326 71.7683Z" fill="#333E48"/>
<path d="M425.875 38.1063C427.306 38.1077 428.465 39.267 428.466 40.6976C428.466 42.1287 427.306 43.2888 425.875 43.2888C424.444 43.2888 423.284 42.1287 423.284 40.6976C423.284 39.2665 424.444 38.1063 425.875 38.1063ZM435.644 56.7788C436.941 56.7781 437.995 57.8274 438 59.1251C438.003 60.0768 437.431 60.9363 436.553 61.3026C435.675 61.6689 434.662 61.4699 433.988 60.7983C433.313 60.1268 433.11 59.1151 433.472 58.2351C433.835 57.3551 434.692 56.7803 435.644 56.7788ZM437.094 49.9538C435.719 50.6218 434.063 50.0508 433.393 48.6776C432.902 47.6708 433.066 46.4677 433.808 45.6292C434.551 44.7907 435.725 44.482 436.784 44.8471C437.843 45.2122 438.577 46.1791 438.645 47.297C438.713 48.4148 438.101 49.4634 437.094 49.9538ZM415.062 50.7238C416.711 50.7252 418.047 52.0614 418.048 53.7101C418.047 55.3583 416.711 56.694 415.063 56.6938C413.414 56.6936 412.078 55.3575 412.078 53.7092C412.078 52.061 413.414 50.7245 415.062 50.7238Z" fill="#009BDE"/>
</g>
<circle cx="62" cy="52" r="22" fill="#31B7C1"/>
<path fill-rule="evenodd" clip-rule="evenodd" d="M60.8675 49.8216L71.4087 56.9506L64.5766 41.7134H64.4505L60.8675 49.8216ZM58.4565 48.6273L59.6879 45.7414C60.6524 43.5162 61.624 41.2905 62.5809 39.0651C62.6523 38.8154 62.8948 38.655 63.1523 38.6869C64.0721 38.6869 64.9921 38.6869 65.9119 38.6869C66.1853 38.6538 66.4426 38.8233 66.52 39.0873C68.4985 43.5384 70.4939 48.0017 72.5068 52.4772C73.5898 54.8959 74.6729 57.3113 75.7561 59.7252C75.9043 59.9371 75.8583 60.229 75.6522 60.3852C74.9549 61.0454 74.2872 61.7429 73.5676 62.4625L71.6684 60.9788C67.7067 57.8976 63.5729 55.0447 59.2873 52.4327C57.3741 51.2592 55.3203 50.3319 53.1746 49.6732C52.7425 49.5454 52.297 49.4682 51.8469 49.4432C51.4448 49.3643 51.0547 49.6262 50.9758 50.0283C50.9496 50.1626 50.9607 50.3017 51.0085 50.4301C51.1003 50.9165 51.2446 51.3916 51.4387 51.8468C52.2855 53.6607 53.3572 55.3603 54.6287 56.9061L56.3794 53.108C56.7798 54.0057 57.1213 54.8363 57.5145 55.6375C57.7924 56.1223 57.7924 56.7178 57.5145 57.2028C57.1806 57.8554 56.9062 58.5454 56.6168 59.2278C56.5526 59.4641 56.3259 59.6186 56.0827 59.5917C55.1627 59.5917 54.243 59.5917 53.323 59.5917C53.1526 59.5936 52.9876 59.5302 52.863 59.4134C51.3288 57.5528 50.0306 55.5097 48.9982 53.3307C48.5311 52.3335 48.2782 51.2489 48.2564 50.1481C48.142 48.2586 49.5812 46.6346 51.4702 46.52C51.6106 46.5118 51.7512 46.5118 51.8914 46.5204C53.5034 46.6067 55.0811 47.0205 56.5278 47.7371C57.1359 47.9891 57.7592 48.2934 58.4565 48.6273Z" fill="white"/>
<circle cx="22" cy="184" r="22" fill="#4A154B"/>
<path d="M13.4961 187.87C13.4961 189.566 12.1107 190.951 10.4147 190.951C8.7187 190.951 7.33325 189.566 7.33325 187.87C7.33325 186.174 8.7187 184.788 10.4147 184.788H13.4961V187.87Z" fill="#E01E5A"/>
<path d="M15.0486 187.87C15.0486 186.174 16.434 184.788 18.13 184.788C19.826 184.788 21.2115 186.174 21.2115 187.87V195.585C21.2115 197.281 19.826 198.667 18.13 198.667C16.434 198.667 15.0486 197.281 15.0486 195.585V187.87Z" fill="#E01E5A"/>
<path d="M18.13 175.496C16.434 175.496 15.0486 174.111 15.0486 172.415C15.0486 170.719 16.434 169.333 18.13 169.333C19.826 169.333 21.2114 170.719 21.2114 172.415V175.496H18.13Z" fill="#36C5F0"/>
<path d="M18.1302 177.049C19.8262 177.049 21.2116 178.434 21.2116 180.13C21.2116 181.826 19.8262 183.212 18.1302 183.212H10.4147C8.7187 183.212 7.33325 181.826 7.33325 180.13C7.33325 178.434 8.7187 177.049 10.4147 177.049H18.1302Z" fill="#36C5F0"/>
<path d="M30.5037 180.13C30.5037 178.434 31.8891 177.049 33.5851 177.049C35.2811 177.049 36.6665 178.434 36.6665 180.13C36.6665 181.826 35.2811 183.212 33.5851 183.212H30.5037V180.13Z" fill="#2EB67D"/>
<path d="M28.951 180.13C28.951 181.826 27.5655 183.212 25.8695 183.212C24.1735 183.212 22.7881 181.826 22.7881 180.13V172.415C22.7881 170.719 24.1735 169.333 25.8695 169.333C27.5655 169.333 28.951 170.719 28.951 172.415V180.13Z" fill="#2EB67D"/>
<path d="M25.8695 192.504C27.5655 192.504 28.951 193.889 28.951 195.585C28.951 197.281 27.5655 198.667 25.8695 198.667C24.1735 198.667 22.7881 197.281 22.7881 195.585V192.504H25.8695Z" fill="#ECB22E"/>
<path d="M25.8695 190.951C24.1735 190.951 22.7881 189.566 22.7881 187.87C22.7881 186.174 24.1735 184.788 25.8695 184.788H33.585C35.281 184.788 36.6665 186.174 36.6665 187.87C36.6665 189.566 35.281 190.951 33.585 190.951H25.8695Z" fill="#ECB22E"/>
<g clip-path="url(#clip1)">
<path d="M174.8 132.13L174.8 132.129C174.816 120.562 165.641 111.297 154.071 111.201M174.8 132.13C174.786 143.687 165.586 152.812 153.92 152.8H153.92M153.92 152.8C142.342 152.79 133.179 143.587 133.2 131.974L133.2 131.974L133.2 131.974M133.2 131.974C133.219 120.463 142.63 111.107 154.071 111.201" fill="white" stroke="#5A95C9" stroke-width="2.4"/>
<path d="M164.965 146.009C163.077 147.382 161.169 147.44 159.178 146.667C156.626 145.676 154.731 144.006 153.758 141.452C153.212 140.004 152.702 138.543 152.228 137.071C150.362 131.342 143.986 128.982 138.683 132.079C137.96 132.5 137.266 132.965 136.525 133.43C136.089 131.604 136.627 130.142 138.295 128.738C141.44 126.094 145.073 126.176 148.822 127.029C149.65 127.217 150.457 127.52 151.292 127.62C157.417 128.364 162.221 123.724 161.763 117.542C161.724 117.022 161.666 116.504 161.613 115.941C163.624 116.531 164.841 118.306 165.015 120.703C165.303 124.621 163.367 127.546 160.631 130.099C158.812 131.797 157.439 133.706 157.361 136.257C157.235 140.309 159.197 143.169 162.76 145.062C163.43 145.417 164.159 145.665 164.965 146.009Z" fill="#5A95C9"/>
</g>
<circle cx="263" cy="83" r="22" fill="white"/>
<path fill-rule="evenodd" clip-rule="evenodd" d="M246.789 78.8438C246.98 78.8912 247.183 78.8659 247.355 78.7732C247.527 78.6805 247.655 78.5277 247.713 78.3467C248.927 74.6965 251.524 71.6126 254.993 69.7006C258.462 67.7885 262.553 67.1864 266.462 68.0124C266.651 68.0501 266.848 68.0167 267.012 67.9193C267.176 67.8219 267.295 67.6678 267.343 67.4891L268.007 65.1192C268.033 65.0239 268.039 64.9245 268.024 64.8269C268.008 64.7294 267.973 64.6359 267.919 64.5518C267.865 64.4678 267.794 64.3951 267.71 64.3382C267.626 64.2812 267.531 64.241 267.43 64.2202C262.49 63.1544 257.313 63.9094 252.929 66.3347C248.545 68.76 245.278 72.6773 243.779 77.3054C243.751 77.3982 243.742 77.4955 243.753 77.5917C243.765 77.6878 243.796 77.7808 243.846 77.865C243.896 77.9493 243.963 78.0231 244.043 78.0821C244.123 78.1412 244.214 78.1842 244.312 78.2086L246.789 78.8438ZM259.27 76.172H281.265C281.684 76.172 282.024 76.4969 282.024 76.8976V79.349C282.024 79.7497 281.684 80.0746 281.265 80.0746H259.27C258.852 80.0746 258.512 79.7497 258.512 79.349V76.8976C258.512 76.4969 258.852 76.172 259.27 76.172ZM244.723 85.9251H266.718C267.136 85.9251 267.476 86.25 267.476 86.6507V89.1021C267.476 89.5029 267.136 89.8277 266.718 89.8277H244.723C244.304 89.8277 243.965 89.5029 243.965 89.1021V86.6507C243.965 86.25 244.304 85.9251 244.723 85.9251ZM278.643 87.2268C278.815 87.1341 279.018 87.1088 279.209 87.1562L281.686 87.7913C281.784 87.8158 281.875 87.8588 281.956 87.9178C282.036 87.9768 282.103 88.0507 282.152 88.1349C282.202 88.2192 282.234 88.3121 282.245 88.4083C282.257 88.5044 282.248 88.6018 282.219 88.6946C280.72 93.3226 277.453 97.2399 273.069 99.6652C268.686 102.091 263.508 102.846 258.568 101.78C258.468 101.759 258.372 101.719 258.288 101.662C258.204 101.605 258.133 101.532 258.079 101.448C258.025 101.364 257.99 101.271 257.975 101.173C257.96 101.075 257.965 100.976 257.991 100.881L258.655 98.5109C258.703 98.3322 258.822 98.1782 258.986 98.0807C259.15 97.9833 259.347 97.9499 259.536 97.9875C263.445 98.8136 267.536 98.2116 271.005 96.2995C274.474 94.3874 277.071 91.3035 278.285 87.6532C278.342 87.4723 278.47 87.3194 278.643 87.2268ZM274.619 71.887C275.854 71.887 276.856 70.929 276.856 69.7473C276.856 68.5655 275.854 67.6076 274.619 67.6076C273.384 67.6076 272.383 68.5655 272.383 69.7473C272.383 70.929 273.384 71.887 274.619 71.887ZM253.613 96.2528C253.613 97.4345 252.611 98.3925 251.376 98.3925C250.141 98.3925 249.14 97.4345 249.14 96.2528C249.14 95.071 250.141 94.113 251.376 94.113C252.611 94.113 253.613 95.071 253.613 96.2528Z" fill="#52BD94"/>
<mask id="mask1" mask-type="alpha" maskUnits="userSpaceOnUse" x="222" y="324" width="44" height="44">
<circle cx="244" cy="346" r="22" fill="black"/>
</mask>
<g mask="url(#mask1)">
<circle cx="244" cy="346" r="22" fill="#41AAFC"/>
<path d="M266 346C266 343.111 265.431 340.25 264.325 337.581C263.22 334.912 261.599 332.487 259.556 330.444C257.513 328.401 255.088 326.78 252.419 325.675C249.75 324.569 246.889 324 244 324C241.111 324 238.25 324.569 235.581 325.675C232.912 326.78 230.487 328.401 228.444 330.444C226.401 332.487 224.78 334.912 223.675 337.581C222.569 340.25 222 343.111 222 346L244 346H266Z" fill="#FECB2F"/>
<path d="M222 368L244 331.333L266 368H222Z" fill="#FC0F1C"/>
<path d="M266 368H222L235.2 346H252.8L266 368Z" fill="#4747B5"/>
</g>
<path d="M343 195C355.15 195 365 185.15 365 173C365 160.85 355.15 151 343 151C330.85 151 321 160.85 321 173C321 185.15 330.85 195 343 195Z" fill="url(#paint0_linear)"/>
<path fill-rule="evenodd" clip-rule="evenodd" d="M330.958 172.768C337.372 169.973 341.648 168.131 343.788 167.241C349.898 164.7 351.167 164.259 351.995 164.244C352.177 164.241 352.584 164.286 352.847 164.5C353.07 164.68 353.131 164.924 353.161 165.096C353.19 165.267 353.226 165.657 353.197 165.962C352.866 169.44 351.434 177.882 350.705 181.779C350.396 183.427 349.789 183.98 349.201 184.034C347.924 184.152 346.954 183.19 345.716 182.379C343.78 181.109 342.686 180.319 340.807 179.081C338.634 177.649 340.043 176.863 341.28 175.577C341.604 175.24 347.233 170.12 347.342 169.656C347.356 169.598 347.369 169.381 347.24 169.267C347.111 169.153 346.921 169.192 346.784 169.223C346.59 169.267 343.497 171.311 337.505 175.356C336.627 175.959 335.831 176.253 335.119 176.238C334.333 176.221 332.822 175.794 331.699 175.428C330.321 174.981 329.226 174.744 329.322 173.983C329.371 173.587 329.917 173.182 330.958 172.768Z" fill="white"/>
<path d="M165 272C177.15 272 187 262.15 187 250C187 237.85 177.15 228 165 228C152.85 228 143 237.85 143 250C143 262.15 152.85 272 165 272Z" fill="white"/>
<path d="M172.004 250.803C172.04 254.687 175.412 255.979 175.449 255.996C175.42 256.087 174.91 257.838 173.673 259.646C172.603 261.21 171.493 262.768 169.744 262.8C168.025 262.832 167.472 261.781 165.507 261.781C163.543 261.781 162.929 262.768 161.302 262.832C159.614 262.895 158.329 261.141 157.25 259.583C155.046 256.396 153.361 250.578 155.623 246.651C156.747 244.701 158.755 243.466 160.934 243.434C162.592 243.403 164.157 244.55 165.17 244.55C166.183 244.55 168.084 243.17 170.083 243.373C170.92 243.408 173.269 243.711 174.778 245.919C174.656 245.994 171.975 247.555 172.004 250.803V250.803ZM168.774 241.265C169.67 240.18 170.274 238.669 170.109 237.167C168.817 237.219 167.255 238.028 166.328 239.112C165.498 240.072 164.77 241.609 164.967 243.082C166.407 243.194 167.878 242.35 168.774 241.265" fill="black"/>
<defs>
<linearGradient id="paint0_linear" x1="343" y1="151" x2="343" y2="194.674" gradientUnits="userSpaceOnUse">
<stop stop-color="#2AABEE"/>
<stop offset="1" stop-color="#229ED9"/>
</linearGradient>
<clipPath id="clip0">
<rect width="44" height="44" fill="white" transform="translate(444 162)"/>
</clipPath>
<clipPath id="clip1">
<rect width="44" height="44" fill="white" transform="translate(132 110)"/>
</clipPath>
</defs>
</svg>
