<svg width="488" height="360" viewBox="0 0 488 360" fill="none" xmlns="http://www.w3.org/2000/svg">
<rect width="488" height="360" fill="white"/>
<circle cx="219.5" cy="181.514" r="168.5" fill="#F8FBFF"/>
<rect x="24.5" y="43.5" width="250" height="226" rx="18.5" fill="white" stroke="#181818" stroke-width="3"/>
<path d="M43 223H256" stroke="#181818" stroke-width="3" stroke-linecap="round"/>
<path d="M48.7891 235.469L51.25 242.008L53.7051 235.469H55.6211V244H54.1445V241.188L54.291 237.426L51.7715 244H50.7109L48.1973 237.432L48.3438 241.188V244H46.8672V235.469H48.7891ZM61.0293 244C60.9668 243.879 60.9121 243.682 60.8652 243.408C60.4121 243.881 59.8574 244.117 59.2012 244.117C58.5645 244.117 58.0449 243.936 57.6426 243.572C57.2402 243.209 57.0391 242.76 57.0391 242.225C57.0391 241.549 57.2891 241.031 57.7891 240.672C58.293 240.309 59.0117 240.127 59.9453 240.127H60.8184V239.711C60.8184 239.383 60.7266 239.121 60.543 238.926C60.3594 238.727 60.0801 238.627 59.7051 238.627C59.3809 238.627 59.1152 238.709 58.9082 238.873C58.7012 239.033 58.5977 239.238 58.5977 239.488H57.1738C57.1738 239.141 57.2891 238.816 57.5195 238.516C57.75 238.211 58.0625 237.973 58.457 237.801C58.8555 237.629 59.2988 237.543 59.7871 237.543C60.5293 237.543 61.1211 237.73 61.5625 238.105C62.0039 238.477 62.2305 239 62.2422 239.676V242.535C62.2422 243.105 62.3223 243.561 62.4824 243.9V244H61.0293ZM59.4648 242.975C59.7461 242.975 60.0098 242.906 60.2559 242.77C60.5059 242.633 60.6934 242.449 60.8184 242.219V241.023H60.0508C59.5234 241.023 59.127 241.115 58.8613 241.299C58.5957 241.482 58.4629 241.742 58.4629 242.078C58.4629 242.352 58.5527 242.57 58.7324 242.734C58.916 242.895 59.1602 242.975 59.4648 242.975ZM65.8574 241.961L67.1465 237.66H68.6641L66.1445 244.961C65.7578 246.027 65.1016 246.561 64.1758 246.561C63.9688 246.561 63.7402 246.525 63.4902 246.455V245.354L63.7598 245.371C64.1191 245.371 64.3887 245.305 64.5684 245.172C64.752 245.043 64.8965 244.824 65.002 244.516L65.207 243.971L62.9805 237.66H64.5156L65.8574 241.961Z" fill="#181818"/>
<path d="M89.3594 235.469H90.8359V241.451C90.8359 242.268 90.5801 242.916 90.0684 243.396C89.5605 243.877 88.8887 244.117 88.0527 244.117C87.1621 244.117 86.4746 243.893 85.9902 243.443C85.5059 242.994 85.2637 242.369 85.2637 241.568H86.7402C86.7402 242.021 86.8516 242.363 87.0742 242.594C87.3008 242.82 87.627 242.934 88.0527 242.934C88.4512 242.934 88.7676 242.803 89.002 242.541C89.2402 242.275 89.3594 241.91 89.3594 241.445V235.469ZM96.2383 243.379C95.8203 243.871 95.2266 244.117 94.457 244.117C93.7695 244.117 93.248 243.916 92.8926 243.514C92.541 243.111 92.3652 242.529 92.3652 241.768V237.66H93.7891V241.75C93.7891 242.555 94.123 242.957 94.791 242.957C95.4824 242.957 95.9492 242.709 96.1914 242.213V237.66H97.6152V244H96.2734L96.2383 243.379ZM100.387 237.66L100.428 238.393C100.896 237.826 101.512 237.543 102.273 237.543C103.594 237.543 104.266 238.299 104.289 239.811V244H102.865V239.893C102.865 239.49 102.777 239.193 102.602 239.002C102.43 238.807 102.146 238.709 101.752 238.709C101.178 238.709 100.75 238.969 100.469 239.488V244H99.0449V237.66H100.387Z" fill="#181818"/>
<path d="M127.359 235.469H128.836V241.451C128.836 242.268 128.58 242.916 128.068 243.396C127.561 243.877 126.889 244.117 126.053 244.117C125.162 244.117 124.475 243.893 123.99 243.443C123.506 242.994 123.264 242.369 123.264 241.568H124.74C124.74 242.021 124.852 242.363 125.074 242.594C125.301 242.82 125.627 242.934 126.053 242.934C126.451 242.934 126.768 242.803 127.002 242.541C127.24 242.275 127.359 241.91 127.359 241.445V235.469ZM134.238 243.379C133.82 243.871 133.227 244.117 132.457 244.117C131.77 244.117 131.248 243.916 130.893 243.514C130.541 243.111 130.365 242.529 130.365 241.768V237.66H131.789V241.75C131.789 242.555 132.123 242.957 132.791 242.957C133.482 242.957 133.949 242.709 134.191 242.213V237.66H135.615V244H134.273L134.238 243.379ZM138.58 244H137.156V235H138.58V244Z" fill="#181818"/>
<path d="M162.643 242.014H159.338L158.646 244H157.105L160.328 235.469H161.658L164.887 244H163.34L162.643 242.014ZM159.754 240.818H162.227L160.99 237.279L159.754 240.818ZM169.492 243.379C169.074 243.871 168.48 244.117 167.711 244.117C167.023 244.117 166.502 243.916 166.146 243.514C165.795 243.111 165.619 242.529 165.619 241.768V237.66H167.043V241.75C167.043 242.555 167.377 242.957 168.045 242.957C168.736 242.957 169.203 242.709 169.445 242.213V237.66H170.869V244H169.527L169.492 243.379ZM172.07 240.783C172.07 239.799 172.301 239.014 172.762 238.428C173.227 237.838 173.842 237.543 174.607 237.543C175.33 237.543 175.898 237.795 176.312 238.299L176.377 237.66H177.66V243.807C177.66 244.639 177.4 245.295 176.881 245.775C176.365 246.256 175.668 246.496 174.789 246.496C174.324 246.496 173.869 246.398 173.424 246.203C172.982 246.012 172.646 245.76 172.416 245.447L173.09 244.592C173.527 245.111 174.066 245.371 174.707 245.371C175.18 245.371 175.553 245.242 175.826 244.984C176.1 244.73 176.236 244.355 176.236 243.859V243.432C175.826 243.889 175.279 244.117 174.596 244.117C173.854 244.117 173.246 243.822 172.773 243.232C172.305 242.643 172.07 241.826 172.07 240.783ZM173.488 240.906C173.488 241.543 173.617 242.045 173.875 242.412C174.137 242.775 174.498 242.957 174.959 242.957C175.533 242.957 175.959 242.711 176.236 242.219V239.43C175.967 238.949 175.545 238.709 174.971 238.709C174.502 238.709 174.137 238.895 173.875 239.266C173.617 239.637 173.488 240.184 173.488 240.906Z" fill="#181818"/>
<path d="M201.326 241.803C201.326 241.428 201.193 241.139 200.928 240.936C200.666 240.732 200.191 240.527 199.504 240.32C198.816 240.113 198.27 239.883 197.863 239.629C197.086 239.141 196.697 238.504 196.697 237.719C196.697 237.031 196.977 236.465 197.535 236.02C198.098 235.574 198.826 235.352 199.721 235.352C200.314 235.352 200.844 235.461 201.309 235.68C201.773 235.898 202.139 236.211 202.404 236.617C202.67 237.02 202.803 237.467 202.803 237.959H201.326C201.326 237.514 201.186 237.166 200.904 236.916C200.627 236.662 200.229 236.535 199.709 236.535C199.225 236.535 198.848 236.639 198.578 236.846C198.312 237.053 198.18 237.342 198.18 237.713C198.18 238.025 198.324 238.287 198.613 238.498C198.902 238.705 199.379 238.908 200.043 239.107C200.707 239.303 201.24 239.527 201.643 239.781C202.045 240.031 202.34 240.32 202.527 240.648C202.715 240.973 202.809 241.354 202.809 241.791C202.809 242.502 202.535 243.068 201.988 243.49C201.445 243.908 200.707 244.117 199.773 244.117C199.156 244.117 198.588 244.004 198.068 243.777C197.553 243.547 197.15 243.23 196.861 242.828C196.576 242.426 196.434 241.957 196.434 241.422H197.916C197.916 241.906 198.076 242.281 198.396 242.547C198.717 242.812 199.176 242.945 199.773 242.945C200.289 242.945 200.676 242.842 200.934 242.635C201.195 242.424 201.326 242.146 201.326 241.803ZM206.764 244.117C205.861 244.117 205.129 243.834 204.566 243.268C204.008 242.697 203.729 241.939 203.729 240.994V240.818C203.729 240.186 203.85 239.621 204.092 239.125C204.338 238.625 204.682 238.236 205.123 237.959C205.564 237.682 206.057 237.543 206.6 237.543C207.463 237.543 208.129 237.818 208.598 238.369C209.07 238.92 209.307 239.699 209.307 240.707V241.281H205.164C205.207 241.805 205.381 242.219 205.686 242.523C205.994 242.828 206.381 242.98 206.846 242.98C207.498 242.98 208.029 242.717 208.439 242.189L209.207 242.922C208.953 243.301 208.613 243.596 208.188 243.807C207.766 244.014 207.291 244.117 206.764 244.117ZM206.594 238.686C206.203 238.686 205.887 238.822 205.645 239.096C205.406 239.369 205.254 239.75 205.188 240.238H207.9V240.133C207.869 239.656 207.742 239.297 207.52 239.055C207.297 238.809 206.988 238.686 206.594 238.686ZM215.969 240.895C215.969 241.875 215.746 242.658 215.301 243.244C214.855 243.826 214.258 244.117 213.508 244.117C212.812 244.117 212.256 243.889 211.838 243.432V246.438H210.414V237.66H211.727L211.785 238.305C212.203 237.797 212.771 237.543 213.49 237.543C214.264 237.543 214.869 237.832 215.307 238.41C215.748 238.984 215.969 239.783 215.969 240.807V240.895ZM214.551 240.771C214.551 240.139 214.424 239.637 214.17 239.266C213.92 238.895 213.561 238.709 213.092 238.709C212.51 238.709 212.092 238.949 211.838 239.43V242.242C212.096 242.734 212.518 242.98 213.104 242.98C213.557 242.98 213.91 242.799 214.164 242.436C214.422 242.068 214.551 241.514 214.551 240.771Z" fill="#181818"/>
<path d="M241.676 239.957C241.676 240.793 241.531 241.527 241.242 242.16C240.953 242.789 240.539 243.273 240 243.613C239.465 243.949 238.848 244.117 238.148 244.117C237.457 244.117 236.84 243.949 236.297 243.613C235.758 243.273 235.34 242.791 235.043 242.166C234.75 241.541 234.602 240.82 234.598 240.004V239.523C234.598 238.691 234.744 237.957 235.037 237.32C235.334 236.684 235.75 236.197 236.285 235.861C236.824 235.521 237.441 235.352 238.137 235.352C238.832 235.352 239.447 235.52 239.982 235.855C240.521 236.188 240.938 236.668 241.23 237.297C241.523 237.922 241.672 238.65 241.676 239.482V239.957ZM240.193 239.512C240.193 238.566 240.014 237.842 239.654 237.338C239.299 236.834 238.793 236.582 238.137 236.582C237.496 236.582 236.994 236.834 236.631 237.338C236.271 237.838 236.088 238.547 236.08 239.465V239.957C236.08 240.895 236.262 241.619 236.625 242.131C236.992 242.643 237.5 242.898 238.148 242.898C238.805 242.898 239.309 242.648 239.66 242.148C240.016 241.648 240.193 240.918 240.193 239.957V239.512ZM245.619 242.98C245.975 242.98 246.27 242.877 246.504 242.67C246.738 242.463 246.863 242.207 246.879 241.902H248.221C248.205 242.297 248.082 242.666 247.852 243.01C247.621 243.35 247.309 243.619 246.914 243.818C246.52 244.018 246.094 244.117 245.637 244.117C244.75 244.117 244.047 243.83 243.527 243.256C243.008 242.682 242.748 241.889 242.748 240.877V240.73C242.748 239.766 243.006 238.994 243.521 238.416C244.037 237.834 244.74 237.543 245.631 237.543C246.385 237.543 246.998 237.764 247.471 238.205C247.947 238.643 248.197 239.219 248.221 239.934H246.879C246.863 239.57 246.738 239.271 246.504 239.037C246.273 238.803 245.979 238.686 245.619 238.686C245.158 238.686 244.803 238.854 244.553 239.189C244.303 239.521 244.176 240.027 244.172 240.707V240.936C244.172 241.623 244.295 242.137 244.541 242.477C244.791 242.812 245.15 242.98 245.619 242.98ZM251.08 236.119V237.66H252.199V238.715H251.08V242.254C251.08 242.496 251.127 242.672 251.221 242.781C251.318 242.887 251.49 242.939 251.736 242.939C251.9 242.939 252.066 242.92 252.234 242.881V243.982C251.91 244.072 251.598 244.117 251.297 244.117C250.203 244.117 249.656 243.514 249.656 242.307V238.715H248.613V237.66H249.656V236.119H251.08Z" fill="#181818"/>
<path d="M82.4375 78.6562H78.3281L77.5469 81H75.0547L79.2891 69.625H81.4609L85.7188 81H83.2266L82.4375 78.6562ZM78.9609 76.7578H81.8047L80.375 72.5L78.9609 76.7578ZM90.1484 79.3359C90.5651 79.3359 90.9036 79.2214 91.1641 78.9922C91.4245 78.763 91.5599 78.4583 91.5703 78.0781H93.6875C93.6823 78.651 93.526 79.1771 93.2188 79.6562C92.9115 80.1302 92.4896 80.5 91.9531 80.7656C91.4219 81.026 90.8333 81.1562 90.1875 81.1562C88.9792 81.1562 88.026 80.7734 87.3281 80.0078C86.6302 79.237 86.2812 78.1745 86.2812 76.8203V76.6719C86.2812 75.3698 86.6276 74.3307 87.3203 73.5547C88.013 72.7786 88.9635 72.3906 90.1719 72.3906C91.2292 72.3906 92.0755 72.6927 92.7109 73.2969C93.3516 73.8958 93.6771 74.6953 93.6875 75.6953H91.5703C91.5599 75.2578 91.4245 74.9036 91.1641 74.6328C90.9036 74.3568 90.5599 74.2188 90.1328 74.2188C89.6068 74.2188 89.2083 74.4115 88.9375 74.7969C88.6719 75.1771 88.5391 75.7969 88.5391 76.6562V76.8906C88.5391 77.7604 88.6719 78.3854 88.9375 78.7656C89.2031 79.1458 89.6068 79.3359 90.1484 79.3359ZM97.6797 70.4688V72.5469H99.125V74.2031H97.6797V78.4219C97.6797 78.7344 97.7396 78.9583 97.8594 79.0938C97.9792 79.2292 98.2083 79.2969 98.5469 79.2969C98.7969 79.2969 99.0182 79.2786 99.2109 79.2422V80.9531C98.7682 81.0885 98.3125 81.1562 97.8438 81.1562C96.2604 81.1562 95.4531 80.3568 95.4219 78.7578V74.2031H94.1875V72.5469H95.4219V70.4688H97.6797ZM102.766 81H100.5V72.5469H102.766V81ZM100.367 70.3594C100.367 70.0208 100.479 69.7422 100.703 69.5234C100.932 69.3047 101.242 69.1953 101.633 69.1953C102.018 69.1953 102.326 69.3047 102.555 69.5234C102.784 69.7422 102.898 70.0208 102.898 70.3594C102.898 70.7031 102.781 70.9844 102.547 71.2031C102.318 71.4219 102.013 71.5312 101.633 71.5312C101.253 71.5312 100.945 71.4219 100.711 71.2031C100.482 70.9844 100.367 70.7031 100.367 70.3594ZM107.797 78.2422L109.367 72.5469H111.727L108.875 81H106.719L103.867 72.5469H106.227L107.797 78.2422ZM116.508 81.1562C115.268 81.1562 114.258 80.776 113.477 80.0156C112.701 79.2552 112.312 78.2422 112.312 76.9766V76.7578C112.312 75.9089 112.477 75.151 112.805 74.4844C113.133 73.8125 113.596 73.2969 114.195 72.9375C114.799 72.5729 115.487 72.3906 116.258 72.3906C117.414 72.3906 118.323 72.7552 118.984 73.4844C119.651 74.2135 119.984 75.2474 119.984 76.5859V77.5078H114.602C114.674 78.0599 114.893 78.5026 115.258 78.8359C115.628 79.1693 116.094 79.3359 116.656 79.3359C117.526 79.3359 118.206 79.0208 118.695 78.3906L119.805 79.6328C119.466 80.112 119.008 80.487 118.43 80.7578C117.852 81.0234 117.211 81.1562 116.508 81.1562ZM116.25 74.2188C115.802 74.2188 115.438 74.3698 115.156 74.6719C114.88 74.974 114.703 75.4062 114.625 75.9688H117.766V75.7891C117.755 75.2891 117.62 74.9036 117.359 74.6328C117.099 74.3568 116.729 74.2188 116.25 74.2188ZM131.305 78.0156C131.305 77.5729 131.148 77.2344 130.836 77C130.523 76.7604 129.961 76.5104 129.148 76.25C128.336 75.9844 127.693 75.724 127.219 75.4688C125.927 74.7708 125.281 73.8307 125.281 72.6484C125.281 72.0339 125.453 71.487 125.797 71.0078C126.146 70.5234 126.643 70.1458 127.289 69.875C127.94 69.6042 128.669 69.4688 129.477 69.4688C130.289 69.4688 131.013 69.6172 131.648 69.9141C132.284 70.2057 132.776 70.6198 133.125 71.1562C133.479 71.6927 133.656 72.3021 133.656 72.9844H131.312C131.312 72.4635 131.148 72.0599 130.82 71.7734C130.492 71.4818 130.031 71.3359 129.438 71.3359C128.865 71.3359 128.419 71.4583 128.102 71.7031C127.784 71.9427 127.625 72.2604 127.625 72.6562C127.625 73.026 127.81 73.3359 128.18 73.5859C128.555 73.8359 129.104 74.0703 129.828 74.2891C131.161 74.6901 132.133 75.1875 132.742 75.7812C133.352 76.375 133.656 77.1146 133.656 78C133.656 78.9844 133.284 79.7578 132.539 80.3203C131.794 80.8776 130.792 81.1562 129.531 81.1562C128.656 81.1562 127.859 80.9974 127.141 80.6797C126.422 80.3568 125.872 79.9167 125.492 79.3594C125.117 78.8021 124.93 78.1562 124.93 77.4219H127.281C127.281 78.6771 128.031 79.3047 129.531 79.3047C130.089 79.3047 130.523 79.1927 130.836 78.9688C131.148 78.7396 131.305 78.4219 131.305 78.0156ZM140.164 80.1406C139.607 80.8177 138.836 81.1562 137.852 81.1562C136.945 81.1562 136.253 80.8958 135.773 80.375C135.299 79.8542 135.057 79.0911 135.047 78.0859V72.5469H137.305V78.0078C137.305 78.888 137.706 79.3281 138.508 79.3281C139.273 79.3281 139.799 79.0625 140.086 78.5312V72.5469H142.352V81H140.227L140.164 80.1406ZM151.672 76.8516C151.672 78.2057 151.383 79.263 150.805 80.0234C150.227 80.7786 149.419 81.1562 148.383 81.1562C147.466 81.1562 146.734 80.8047 146.188 80.1016L146.086 81H144.055V69H146.312V73.3047C146.833 72.6953 147.518 72.3906 148.367 72.3906C149.398 72.3906 150.206 72.7708 150.789 73.5312C151.378 74.2865 151.672 75.3516 151.672 76.7266V76.8516ZM149.414 76.6875C149.414 75.8333 149.279 75.2109 149.008 74.8203C148.737 74.4245 148.333 74.2266 147.797 74.2266C147.078 74.2266 146.583 74.5208 146.312 75.1094V78.4453C146.589 79.0391 147.089 79.3359 147.812 79.3359C148.542 79.3359 149.021 78.9766 149.25 78.2578C149.359 77.9141 149.414 77.3906 149.414 76.6875ZM157.648 78.6641C157.648 78.388 157.51 78.1719 157.234 78.0156C156.964 77.8542 156.526 77.7109 155.922 77.5859C153.911 77.1641 152.906 76.3099 152.906 75.0234C152.906 74.2734 153.216 73.6484 153.836 73.1484C154.461 72.6432 155.276 72.3906 156.281 72.3906C157.354 72.3906 158.211 72.6432 158.852 73.1484C159.497 73.6536 159.82 74.3099 159.82 75.1172H157.562C157.562 74.7943 157.458 74.5286 157.25 74.3203C157.042 74.1068 156.716 74 156.273 74C155.893 74 155.599 74.0859 155.391 74.2578C155.182 74.4297 155.078 74.6484 155.078 74.9141C155.078 75.1641 155.195 75.3672 155.43 75.5234C155.669 75.6745 156.07 75.8073 156.633 75.9219C157.195 76.0312 157.669 76.1562 158.055 76.2969C159.247 76.7344 159.844 77.4922 159.844 78.5703C159.844 79.3411 159.513 79.9661 158.852 80.4453C158.19 80.9193 157.336 81.1562 156.289 81.1562C155.581 81.1562 154.951 81.0312 154.398 80.7812C153.852 80.526 153.422 80.1797 153.109 79.7422C152.797 79.2995 152.641 78.8229 152.641 78.3125H154.781C154.802 78.7135 154.951 79.0208 155.227 79.2344C155.503 79.4479 155.872 79.5547 156.336 79.5547C156.768 79.5547 157.094 79.474 157.312 79.3125C157.536 79.1458 157.648 78.9297 157.648 78.6641ZM164.82 79.3359C165.237 79.3359 165.576 79.2214 165.836 78.9922C166.096 78.763 166.232 78.4583 166.242 78.0781H168.359C168.354 78.651 168.198 79.1771 167.891 79.6562C167.583 80.1302 167.161 80.5 166.625 80.7656C166.094 81.026 165.505 81.1562 164.859 81.1562C163.651 81.1562 162.698 80.7734 162 80.0078C161.302 79.237 160.953 78.1745 160.953 76.8203V76.6719C160.953 75.3698 161.299 74.3307 161.992 73.5547C162.685 72.7786 163.635 72.3906 164.844 72.3906C165.901 72.3906 166.747 72.6927 167.383 73.2969C168.023 73.8958 168.349 74.6953 168.359 75.6953H166.242C166.232 75.2578 166.096 74.9036 165.836 74.6328C165.576 74.3568 165.232 74.2188 164.805 74.2188C164.279 74.2188 163.88 74.4115 163.609 74.7969C163.344 75.1771 163.211 75.7969 163.211 76.6562V76.8906C163.211 77.7604 163.344 78.3854 163.609 78.7656C163.875 79.1458 164.279 79.3359 164.82 79.3359ZM174.398 74.6641C174.091 74.6224 173.82 74.6016 173.586 74.6016C172.732 74.6016 172.172 74.8906 171.906 75.4688V81H169.648V72.5469H171.781L171.844 73.5547C172.297 72.7786 172.924 72.3906 173.727 72.3906C173.977 72.3906 174.211 72.4245 174.43 72.4922L174.398 74.6641ZM177.875 81H175.609V72.5469H177.875V81ZM175.477 70.3594C175.477 70.0208 175.589 69.7422 175.812 69.5234C176.042 69.3047 176.352 69.1953 176.742 69.1953C177.128 69.1953 177.435 69.3047 177.664 69.5234C177.893 69.7422 178.008 70.0208 178.008 70.3594C178.008 70.7031 177.891 70.9844 177.656 71.2031C177.427 71.4219 177.122 71.5312 176.742 71.5312C176.362 71.5312 176.055 71.4219 175.82 71.2031C175.591 70.9844 175.477 70.7031 175.477 70.3594ZM187.352 76.8516C187.352 78.1536 187.055 79.1979 186.461 79.9844C185.872 80.7656 185.076 81.1562 184.07 81.1562C183.216 81.1562 182.526 80.8594 182 80.2656V84.25H179.742V72.5469H181.836L181.914 73.375C182.461 72.7188 183.174 72.3906 184.055 72.3906C185.096 72.3906 185.906 72.776 186.484 73.5469C187.062 74.3177 187.352 75.3802 187.352 76.7344V76.8516ZM185.094 76.6875C185.094 75.901 184.953 75.2943 184.672 74.8672C184.396 74.4401 183.992 74.2266 183.461 74.2266C182.753 74.2266 182.266 74.4974 182 75.0391V78.5C182.276 79.0573 182.768 79.3359 183.477 79.3359C184.555 79.3359 185.094 78.4531 185.094 76.6875ZM191.461 70.4688V72.5469H192.906V74.2031H191.461V78.4219C191.461 78.7344 191.521 78.9583 191.641 79.0938C191.76 79.2292 191.99 79.2969 192.328 79.2969C192.578 79.2969 192.799 79.2786 192.992 79.2422V80.9531C192.549 81.0885 192.094 81.1562 191.625 81.1562C190.042 81.1562 189.234 80.3568 189.203 78.7578V74.2031H187.969V72.5469H189.203V70.4688H191.461ZM196.547 81H194.281V72.5469H196.547V81ZM194.148 70.3594C194.148 70.0208 194.26 69.7422 194.484 69.5234C194.714 69.3047 195.023 69.1953 195.414 69.1953C195.799 69.1953 196.107 69.3047 196.336 69.5234C196.565 69.7422 196.68 70.0208 196.68 70.3594C196.68 70.7031 196.562 70.9844 196.328 71.2031C196.099 71.4219 195.794 71.5312 195.414 71.5312C195.034 71.5312 194.727 71.4219 194.492 71.2031C194.263 70.9844 194.148 70.7031 194.148 70.3594ZM198.062 76.6953C198.062 75.8568 198.224 75.1094 198.547 74.4531C198.87 73.7969 199.333 73.2891 199.938 72.9297C200.547 72.5703 201.253 72.3906 202.055 72.3906C203.195 72.3906 204.125 72.7396 204.844 73.4375C205.568 74.1354 205.971 75.0833 206.055 76.2812L206.07 76.8594C206.07 78.1562 205.708 79.1979 204.984 79.9844C204.26 80.7656 203.289 81.1562 202.07 81.1562C200.852 81.1562 199.878 80.7656 199.148 79.9844C198.424 79.2031 198.062 78.1406 198.062 76.7969V76.6953ZM200.32 76.8594C200.32 77.6615 200.471 78.276 200.773 78.7031C201.076 79.125 201.508 79.3359 202.07 79.3359C202.617 79.3359 203.044 79.1276 203.352 78.7109C203.659 78.2891 203.812 77.6172 203.812 76.6953C203.812 75.9089 203.659 75.2995 203.352 74.8672C203.044 74.4349 202.612 74.2188 202.055 74.2188C201.503 74.2188 201.076 74.4349 200.773 74.8672C200.471 75.2943 200.32 75.9583 200.32 76.8594ZM209.539 72.5469L209.609 73.5234C210.214 72.7682 211.023 72.3906 212.039 72.3906C212.935 72.3906 213.602 72.6536 214.039 73.1797C214.477 73.7057 214.701 74.4922 214.711 75.5391V81H212.453V75.5938C212.453 75.1146 212.349 74.7682 212.141 74.5547C211.932 74.3359 211.586 74.2266 211.102 74.2266C210.466 74.2266 209.99 74.4974 209.672 75.0391V81H207.414V72.5469H209.539ZM221.008 78.6641C221.008 78.388 220.87 78.1719 220.594 78.0156C220.323 77.8542 219.885 77.7109 219.281 77.5859C217.271 77.1641 216.266 76.3099 216.266 75.0234C216.266 74.2734 216.576 73.6484 217.195 73.1484C217.82 72.6432 218.635 72.3906 219.641 72.3906C220.714 72.3906 221.57 72.6432 222.211 73.1484C222.857 73.6536 223.18 74.3099 223.18 75.1172H220.922C220.922 74.7943 220.818 74.5286 220.609 74.3203C220.401 74.1068 220.076 74 219.633 74C219.253 74 218.958 74.0859 218.75 74.2578C218.542 74.4297 218.438 74.6484 218.438 74.9141C218.438 75.1641 218.555 75.3672 218.789 75.5234C219.029 75.6745 219.43 75.8073 219.992 75.9219C220.555 76.0312 221.029 76.1562 221.414 76.2969C222.607 76.7344 223.203 77.4922 223.203 78.5703C223.203 79.3411 222.872 79.9661 222.211 80.4453C221.549 80.9193 220.695 81.1562 219.648 81.1562C218.94 81.1562 218.31 81.0312 217.758 80.7812C217.211 80.526 216.781 80.1797 216.469 79.7422C216.156 79.2995 216 78.8229 216 78.3125H218.141C218.161 78.7135 218.31 79.0208 218.586 79.2344C218.862 79.4479 219.232 79.5547 219.695 79.5547C220.128 79.5547 220.453 79.474 220.672 79.3125C220.896 79.1458 221.008 78.9297 221.008 78.6641Z" fill="#181818"/>
<path d="M128.387 115H125V101.945L120.957 103.199V100.445L128.023 97.9141H128.387V115ZM134.961 119.277L133.191 118.352L133.613 117.59C134.137 116.637 134.406 115.688 134.422 114.742V112.117H137.281L137.27 114.461C137.262 115.328 137.043 116.203 136.613 117.086C136.184 117.969 135.633 118.699 134.961 119.277ZM150.922 102.473C150.922 103.301 150.715 104.035 150.301 104.676C149.887 105.316 149.316 105.828 148.59 106.211C149.418 106.609 150.074 107.16 150.559 107.863C151.043 108.559 151.285 109.379 151.285 110.324C151.285 111.84 150.77 113.039 149.738 113.922C148.707 114.797 147.305 115.234 145.531 115.234C143.758 115.234 142.352 114.793 141.312 113.91C140.273 113.027 139.754 111.832 139.754 110.324C139.754 109.379 139.996 108.555 140.48 107.852C140.965 107.148 141.617 106.602 142.438 106.211C141.711 105.828 141.141 105.316 140.727 104.676C140.32 104.035 140.117 103.301 140.117 102.473C140.117 101.02 140.602 99.8633 141.57 99.0039C142.539 98.1367 143.855 97.7031 145.52 97.7031C147.176 97.7031 148.488 98.1328 149.457 98.9922C150.434 99.8438 150.922 101.004 150.922 102.473ZM147.887 110.078C147.887 109.336 147.672 108.742 147.242 108.297C146.812 107.852 146.234 107.629 145.508 107.629C144.789 107.629 144.215 107.852 143.785 108.297C143.355 108.734 143.141 109.328 143.141 110.078C143.141 110.805 143.352 111.391 143.773 111.836C144.195 112.281 144.781 112.504 145.531 112.504C146.266 112.504 146.84 112.289 147.254 111.859C147.676 111.43 147.887 110.836 147.887 110.078ZM147.535 102.637C147.535 101.973 147.359 101.441 147.008 101.043C146.656 100.637 146.16 100.434 145.52 100.434C144.887 100.434 144.395 100.629 144.043 101.02C143.691 101.41 143.516 101.949 143.516 102.637C143.516 103.316 143.691 103.863 144.043 104.277C144.395 104.691 144.891 104.898 145.531 104.898C146.172 104.898 146.664 104.691 147.008 104.277C147.359 103.863 147.535 103.316 147.535 102.637ZM157.027 104.969H158.832C159.691 104.969 160.328 104.754 160.742 104.324C161.156 103.895 161.363 103.324 161.363 102.613C161.363 101.926 161.156 101.391 160.742 101.008C160.336 100.625 159.773 100.434 159.055 100.434C158.406 100.434 157.863 100.613 157.426 100.973C156.988 101.324 156.77 101.785 156.77 102.355H153.383C153.383 101.465 153.621 100.668 154.098 99.9648C154.582 99.2539 155.254 98.6992 156.113 98.3008C156.98 97.9023 157.934 97.7031 158.973 97.7031C160.777 97.7031 162.191 98.1367 163.215 99.0039C164.238 99.8633 164.75 101.051 164.75 102.566C164.75 103.348 164.512 104.066 164.035 104.723C163.559 105.379 162.934 105.883 162.16 106.234C163.121 106.578 163.836 107.094 164.305 107.781C164.781 108.469 165.02 109.281 165.02 110.219C165.02 111.734 164.465 112.949 163.355 113.863C162.254 114.777 160.793 115.234 158.973 115.234C157.27 115.234 155.875 114.785 154.789 113.887C153.711 112.988 153.172 111.801 153.172 110.324H156.559C156.559 110.965 156.797 111.488 157.273 111.895C157.758 112.301 158.352 112.504 159.055 112.504C159.859 112.504 160.488 112.293 160.941 111.871C161.402 111.441 161.633 110.875 161.633 110.172C161.633 108.469 160.695 107.617 158.82 107.617H157.027V104.969ZM176.551 97.7617V100.551H176.223C174.691 100.574 173.457 100.973 172.52 101.746C171.59 102.52 171.031 103.594 170.844 104.969C171.75 104.047 172.895 103.586 174.277 103.586C175.762 103.586 176.941 104.117 177.816 105.18C178.691 106.242 179.129 107.641 179.129 109.375C179.129 110.484 178.887 111.488 178.402 112.387C177.926 113.285 177.246 113.984 176.363 114.484C175.488 114.984 174.496 115.234 173.387 115.234C171.59 115.234 170.137 114.609 169.027 113.359C167.926 112.109 167.375 110.441 167.375 108.355V107.137C167.375 105.285 167.723 103.652 168.418 102.238C169.121 100.816 170.125 99.7188 171.43 98.9453C172.742 98.1641 174.262 97.7695 175.988 97.7617H176.551ZM173.246 106.305C172.699 106.305 172.203 106.449 171.758 106.738C171.312 107.02 170.984 107.395 170.773 107.863V108.895C170.773 110.027 170.996 110.914 171.441 111.555C171.887 112.188 172.512 112.504 173.316 112.504C174.043 112.504 174.629 112.219 175.074 111.648C175.527 111.07 175.754 110.324 175.754 109.41C175.754 108.48 175.527 107.73 175.074 107.16C174.621 106.59 174.012 106.305 173.246 106.305Z" fill="#181818"/>
<path d="M43 208L45.9252 204.198C53.7635 194.01 67.6921 190.751 79.2369 196.403V196.403C89.2147 201.288 101.165 199.571 109.364 192.075L134.542 169.055C145.246 159.269 161.158 157.811 173.462 165.49V165.49C186.876 173.861 204.377 171.298 214.828 159.433L250 119.5" stroke="#0084FF" stroke-width="3" stroke-linecap="round"/>
<path d="M210 138C210 126.954 218.954 118 230 118H443C454.046 118 463 126.954 463 138V251C463 262.046 454.046 271 443 271H210V138Z" fill="#181818"/>
<rect x="219.5" y="108.5" width="250" height="226" rx="18.5" fill="white" stroke="#181818" stroke-width="3"/>
<path d="M238 289H451" stroke="#181818" stroke-width="3" stroke-linecap="round"/>
<path d="M254.078 134.625L257 142.875L259.906 134.625H262.984V146H260.633V142.891L260.867 137.523L257.797 146H256.188L253.125 137.531L253.359 142.891V146H251.016V134.625H254.078ZM264.531 141.695C264.531 140.857 264.693 140.109 265.016 139.453C265.339 138.797 265.802 138.289 266.406 137.93C267.016 137.57 267.721 137.391 268.523 137.391C269.664 137.391 270.594 137.74 271.312 138.438C272.036 139.135 272.44 140.083 272.523 141.281L272.539 141.859C272.539 143.156 272.177 144.198 271.453 144.984C270.729 145.766 269.758 146.156 268.539 146.156C267.32 146.156 266.346 145.766 265.617 144.984C264.893 144.203 264.531 143.141 264.531 141.797V141.695ZM266.789 141.859C266.789 142.661 266.94 143.276 267.242 143.703C267.544 144.125 267.977 144.336 268.539 144.336C269.086 144.336 269.513 144.128 269.82 143.711C270.128 143.289 270.281 142.617 270.281 141.695C270.281 140.909 270.128 140.299 269.82 139.867C269.513 139.435 269.081 139.219 268.523 139.219C267.971 139.219 267.544 139.435 267.242 139.867C266.94 140.294 266.789 140.958 266.789 141.859ZM276.008 137.547L276.078 138.523C276.682 137.768 277.492 137.391 278.508 137.391C279.404 137.391 280.07 137.654 280.508 138.18C280.945 138.706 281.169 139.492 281.18 140.539V146H278.922V140.594C278.922 140.115 278.818 139.768 278.609 139.555C278.401 139.336 278.055 139.227 277.57 139.227C276.935 139.227 276.458 139.497 276.141 140.039V146H273.883V137.547H276.008ZM285.602 135.469V137.547H287.047V139.203H285.602V143.422C285.602 143.734 285.661 143.958 285.781 144.094C285.901 144.229 286.13 144.297 286.469 144.297C286.719 144.297 286.94 144.279 287.133 144.242V145.953C286.69 146.089 286.234 146.156 285.766 146.156C284.182 146.156 283.375 145.357 283.344 143.758V139.203H282.109V137.547H283.344V135.469H285.602ZM290.688 146H288.422V134H290.688V146ZM295.711 142.805L297.273 137.547H299.695L296.297 147.312L296.109 147.758C295.604 148.862 294.771 149.414 293.609 149.414C293.281 149.414 292.948 149.365 292.609 149.266V147.555L292.953 147.562C293.38 147.562 293.698 147.497 293.906 147.367C294.12 147.237 294.286 147.021 294.406 146.719L294.672 146.023L291.711 137.547H294.141L295.711 142.805ZM308.93 141.836H307.062V146H304.719V134.625H308.945C310.289 134.625 311.326 134.924 312.055 135.523C312.784 136.122 313.148 136.969 313.148 138.062C313.148 138.839 312.979 139.487 312.641 140.008C312.307 140.523 311.799 140.935 311.117 141.242L313.578 145.891V146H311.062L308.93 141.836ZM307.062 139.938H308.953C309.542 139.938 309.997 139.789 310.32 139.492C310.643 139.19 310.805 138.776 310.805 138.25C310.805 137.714 310.651 137.292 310.344 136.984C310.042 136.677 309.576 136.523 308.945 136.523H307.062V139.938ZM318.68 146.156C317.44 146.156 316.43 145.776 315.648 145.016C314.872 144.255 314.484 143.242 314.484 141.977V141.758C314.484 140.909 314.648 140.151 314.977 139.484C315.305 138.812 315.768 138.297 316.367 137.938C316.971 137.573 317.659 137.391 318.43 137.391C319.586 137.391 320.495 137.755 321.156 138.484C321.823 139.214 322.156 140.247 322.156 141.586V142.508H316.773C316.846 143.06 317.065 143.503 317.43 143.836C317.799 144.169 318.266 144.336 318.828 144.336C319.698 144.336 320.378 144.021 320.867 143.391L321.977 144.633C321.638 145.112 321.18 145.487 320.602 145.758C320.023 146.023 319.383 146.156 318.68 146.156ZM318.422 139.219C317.974 139.219 317.609 139.37 317.328 139.672C317.052 139.974 316.875 140.406 316.797 140.969H319.938V140.789C319.927 140.289 319.792 139.904 319.531 139.633C319.271 139.357 318.901 139.219 318.422 139.219ZM326.961 144.336C327.378 144.336 327.716 144.221 327.977 143.992C328.237 143.763 328.372 143.458 328.383 143.078H330.5C330.495 143.651 330.339 144.177 330.031 144.656C329.724 145.13 329.302 145.5 328.766 145.766C328.234 146.026 327.646 146.156 327 146.156C325.792 146.156 324.839 145.773 324.141 145.008C323.443 144.237 323.094 143.174 323.094 141.82V141.672C323.094 140.37 323.44 139.331 324.133 138.555C324.826 137.779 325.776 137.391 326.984 137.391C328.042 137.391 328.888 137.693 329.523 138.297C330.164 138.896 330.49 139.695 330.5 140.695H328.383C328.372 140.258 328.237 139.904 327.977 139.633C327.716 139.357 327.372 139.219 326.945 139.219C326.419 139.219 326.021 139.411 325.75 139.797C325.484 140.177 325.352 140.797 325.352 141.656V141.891C325.352 142.76 325.484 143.385 325.75 143.766C326.016 144.146 326.419 144.336 326.961 144.336ZM336.852 145.141C336.294 145.818 335.523 146.156 334.539 146.156C333.633 146.156 332.94 145.896 332.461 145.375C331.987 144.854 331.745 144.091 331.734 143.086V137.547H333.992V143.008C333.992 143.888 334.393 144.328 335.195 144.328C335.961 144.328 336.487 144.062 336.773 143.531V137.547H339.039V146H336.914L336.852 145.141ZM345.492 139.664C345.185 139.622 344.914 139.602 344.68 139.602C343.826 139.602 343.266 139.891 343 140.469V146H340.742V137.547H342.875L342.938 138.555C343.391 137.779 344.018 137.391 344.82 137.391C345.07 137.391 345.305 137.424 345.523 137.492L345.492 139.664ZM351.336 139.664C351.029 139.622 350.758 139.602 350.523 139.602C349.669 139.602 349.109 139.891 348.844 140.469V146H346.586V137.547H348.719L348.781 138.555C349.234 137.779 349.862 137.391 350.664 137.391C350.914 137.391 351.148 137.424 351.367 137.492L351.336 139.664ZM354.812 146H352.547V137.547H354.812V146ZM352.414 135.359C352.414 135.021 352.526 134.742 352.75 134.523C352.979 134.305 353.289 134.195 353.68 134.195C354.065 134.195 354.372 134.305 354.602 134.523C354.831 134.742 354.945 135.021 354.945 135.359C354.945 135.703 354.828 135.984 354.594 136.203C354.365 136.422 354.06 136.531 353.68 136.531C353.299 136.531 352.992 136.422 352.758 136.203C352.529 135.984 352.414 135.703 352.414 135.359ZM358.758 137.547L358.828 138.523C359.432 137.768 360.242 137.391 361.258 137.391C362.154 137.391 362.82 137.654 363.258 138.18C363.695 138.706 363.919 139.492 363.93 140.539V146H361.672V140.594C361.672 140.115 361.568 139.768 361.359 139.555C361.151 139.336 360.805 139.227 360.32 139.227C359.685 139.227 359.208 139.497 358.891 140.039V146H356.633V137.547H358.758ZM365.32 141.711C365.32 140.414 365.628 139.37 366.242 138.578C366.862 137.786 367.695 137.391 368.742 137.391C369.669 137.391 370.391 137.708 370.906 138.344L371 137.547H373.047V145.719C373.047 146.458 372.878 147.102 372.539 147.648C372.206 148.195 371.734 148.612 371.125 148.898C370.516 149.185 369.802 149.328 368.984 149.328C368.365 149.328 367.76 149.203 367.172 148.953C366.583 148.708 366.138 148.391 365.836 148L366.836 146.625C367.398 147.255 368.081 147.57 368.883 147.57C369.482 147.57 369.948 147.409 370.281 147.086C370.615 146.768 370.781 146.315 370.781 145.727V145.273C370.26 145.862 369.576 146.156 368.727 146.156C367.711 146.156 366.888 145.76 366.258 144.969C365.633 144.172 365.32 143.117 365.32 141.805V141.711ZM367.578 141.875C367.578 142.641 367.732 143.242 368.039 143.68C368.346 144.112 368.768 144.328 369.305 144.328C369.992 144.328 370.484 144.07 370.781 143.555V140C370.479 139.484 369.992 139.227 369.32 139.227C368.779 139.227 368.352 139.448 368.039 139.891C367.732 140.333 367.578 140.995 367.578 141.875ZM383.133 141.836H381.266V146H378.922V134.625H383.148C384.492 134.625 385.529 134.924 386.258 135.523C386.987 136.122 387.352 136.969 387.352 138.062C387.352 138.839 387.182 139.487 386.844 140.008C386.51 140.523 386.003 140.935 385.32 141.242L387.781 145.891V146H385.266L383.133 141.836ZM381.266 139.938H383.156C383.745 139.938 384.201 139.789 384.523 139.492C384.846 139.19 385.008 138.776 385.008 138.25C385.008 137.714 384.854 137.292 384.547 136.984C384.245 136.677 383.779 136.523 383.148 136.523H381.266V139.938ZM392.883 146.156C391.643 146.156 390.633 145.776 389.852 145.016C389.076 144.255 388.688 143.242 388.688 141.977V141.758C388.688 140.909 388.852 140.151 389.18 139.484C389.508 138.812 389.971 138.297 390.57 137.938C391.174 137.573 391.862 137.391 392.633 137.391C393.789 137.391 394.698 137.755 395.359 138.484C396.026 139.214 396.359 140.247 396.359 141.586V142.508H390.977C391.049 143.06 391.268 143.503 391.633 143.836C392.003 144.169 392.469 144.336 393.031 144.336C393.901 144.336 394.581 144.021 395.07 143.391L396.18 144.633C395.841 145.112 395.383 145.487 394.805 145.758C394.227 146.023 393.586 146.156 392.883 146.156ZM392.625 139.219C392.177 139.219 391.812 139.37 391.531 139.672C391.255 139.974 391.078 140.406 391 140.969H394.141V140.789C394.13 140.289 393.995 139.904 393.734 139.633C393.474 139.357 393.104 139.219 392.625 139.219ZM400.703 143.242L402.273 137.547H404.633L401.781 146H399.625L396.773 137.547H399.133L400.703 143.242ZM409.414 146.156C408.174 146.156 407.164 145.776 406.383 145.016C405.607 144.255 405.219 143.242 405.219 141.977V141.758C405.219 140.909 405.383 140.151 405.711 139.484C406.039 138.812 406.503 138.297 407.102 137.938C407.706 137.573 408.393 137.391 409.164 137.391C410.32 137.391 411.229 137.755 411.891 138.484C412.557 139.214 412.891 140.247 412.891 141.586V142.508H407.508C407.581 143.06 407.799 143.503 408.164 143.836C408.534 144.169 409 144.336 409.562 144.336C410.432 144.336 411.112 144.021 411.602 143.391L412.711 144.633C412.372 145.112 411.914 145.487 411.336 145.758C410.758 146.023 410.117 146.156 409.414 146.156ZM409.156 139.219C408.708 139.219 408.344 139.37 408.062 139.672C407.786 139.974 407.609 140.406 407.531 140.969H410.672V140.789C410.661 140.289 410.526 139.904 410.266 139.633C410.005 139.357 409.635 139.219 409.156 139.219ZM416.258 137.547L416.328 138.523C416.932 137.768 417.742 137.391 418.758 137.391C419.654 137.391 420.32 137.654 420.758 138.18C421.195 138.706 421.419 139.492 421.43 140.539V146H419.172V140.594C419.172 140.115 419.068 139.768 418.859 139.555C418.651 139.336 418.305 139.227 417.82 139.227C417.185 139.227 416.708 139.497 416.391 140.039V146H414.133V137.547H416.258ZM428.211 145.141C427.654 145.818 426.883 146.156 425.898 146.156C424.992 146.156 424.299 145.896 423.82 145.375C423.346 144.854 423.104 144.091 423.094 143.086V137.547H425.352V143.008C425.352 143.888 425.753 144.328 426.555 144.328C427.32 144.328 427.846 144.062 428.133 143.531V137.547H430.398V146H428.273L428.211 145.141ZM435.992 146.156C434.753 146.156 433.742 145.776 432.961 145.016C432.185 144.255 431.797 143.242 431.797 141.977V141.758C431.797 140.909 431.961 140.151 432.289 139.484C432.617 138.812 433.081 138.297 433.68 137.938C434.284 137.573 434.971 137.391 435.742 137.391C436.898 137.391 437.807 137.755 438.469 138.484C439.135 139.214 439.469 140.247 439.469 141.586V142.508H434.086C434.159 143.06 434.378 143.503 434.742 143.836C435.112 144.169 435.578 144.336 436.141 144.336C437.01 144.336 437.69 144.021 438.18 143.391L439.289 144.633C438.951 145.112 438.492 145.487 437.914 145.758C437.336 146.023 436.695 146.156 435.992 146.156ZM435.734 139.219C435.286 139.219 434.922 139.37 434.641 139.672C434.365 139.974 434.188 140.406 434.109 140.969H437.25V140.789C437.24 140.289 437.104 139.904 436.844 139.633C436.583 139.357 436.214 139.219 435.734 139.219Z" fill="#181818"/>
<path d="M302.258 175.512C302.258 174.871 302.078 174.363 301.719 173.988C301.367 173.605 300.766 173.254 299.914 172.934C299.062 172.613 298.328 172.297 297.711 171.984C297.094 171.664 296.562 171.301 296.117 170.895C295.68 170.48 295.336 169.996 295.086 169.441C294.844 168.887 294.723 168.227 294.723 167.461C294.723 166.141 295.145 165.059 295.988 164.215C296.832 163.371 297.953 162.879 299.352 162.738V160.23H301.227V162.773C302.609 162.969 303.691 163.547 304.473 164.508C305.254 165.461 305.645 166.699 305.645 168.223H302.258C302.258 167.285 302.062 166.586 301.672 166.125C301.289 165.656 300.773 165.422 300.125 165.422C299.484 165.422 298.988 165.605 298.637 165.973C298.285 166.332 298.109 166.832 298.109 167.473C298.109 168.066 298.281 168.543 298.625 168.902C298.969 169.262 299.605 169.629 300.535 170.004C301.473 170.379 302.242 170.734 302.844 171.07C303.445 171.398 303.953 171.773 304.367 172.195C304.781 172.609 305.098 173.086 305.316 173.625C305.535 174.156 305.645 174.777 305.645 175.488C305.645 176.816 305.23 177.895 304.402 178.723C303.574 179.551 302.434 180.039 300.98 180.188V182.52H299.117V180.199C297.516 180.027 296.273 179.461 295.391 178.5C294.516 177.531 294.078 176.246 294.078 174.645H297.465C297.465 175.574 297.684 176.289 298.121 176.789C298.566 177.281 299.203 177.527 300.031 177.527C300.719 177.527 301.262 177.348 301.66 176.988C302.059 176.621 302.258 176.129 302.258 175.512ZM311.387 169.969H313.191C314.051 169.969 314.688 169.754 315.102 169.324C315.516 168.895 315.723 168.324 315.723 167.613C315.723 166.926 315.516 166.391 315.102 166.008C314.695 165.625 314.133 165.434 313.414 165.434C312.766 165.434 312.223 165.613 311.785 165.973C311.348 166.324 311.129 166.785 311.129 167.355H307.742C307.742 166.465 307.98 165.668 308.457 164.965C308.941 164.254 309.613 163.699 310.473 163.301C311.34 162.902 312.293 162.703 313.332 162.703C315.137 162.703 316.551 163.137 317.574 164.004C318.598 164.863 319.109 166.051 319.109 167.566C319.109 168.348 318.871 169.066 318.395 169.723C317.918 170.379 317.293 170.883 316.52 171.234C317.48 171.578 318.195 172.094 318.664 172.781C319.141 173.469 319.379 174.281 319.379 175.219C319.379 176.734 318.824 177.949 317.715 178.863C316.613 179.777 315.152 180.234 313.332 180.234C311.629 180.234 310.234 179.785 309.148 178.887C308.07 177.988 307.531 176.801 307.531 175.324H310.918C310.918 175.965 311.156 176.488 311.633 176.895C312.117 177.301 312.711 177.504 313.414 177.504C314.219 177.504 314.848 177.293 315.301 176.871C315.762 176.441 315.992 175.875 315.992 175.172C315.992 173.469 315.055 172.617 313.18 172.617H311.387V169.969ZM331.742 173.578H333.676V176.309H331.742V180H328.355V176.309H321.359L321.207 174.176L328.32 162.938H331.742V173.578ZM324.582 173.578H328.355V167.555L328.133 167.941L324.582 173.578ZM343.426 173.18C342.543 174.047 341.512 174.48 340.332 174.48C338.824 174.48 337.617 173.965 336.711 172.934C335.805 171.895 335.352 170.496 335.352 168.738C335.352 167.621 335.594 166.598 336.078 165.668C336.57 164.73 337.254 164.004 338.129 163.488C339.004 162.965 339.988 162.703 341.082 162.703C342.207 162.703 343.207 162.984 344.082 163.547C344.957 164.109 345.637 164.918 346.121 165.973C346.605 167.027 346.852 168.234 346.859 169.594V170.848C346.859 173.691 346.152 175.926 344.738 177.551C343.324 179.176 341.32 180.043 338.727 180.152L337.895 180.164V177.34L338.645 177.328C341.59 177.195 343.184 175.812 343.426 173.18ZM341.164 171.891C341.711 171.891 342.18 171.75 342.57 171.469C342.969 171.188 343.27 170.848 343.473 170.449V169.055C343.473 167.906 343.254 167.016 342.816 166.383C342.379 165.75 341.793 165.434 341.059 165.434C340.379 165.434 339.82 165.746 339.383 166.371C338.945 166.988 338.727 167.766 338.727 168.703C338.727 169.633 338.938 170.398 339.359 171C339.789 171.594 340.391 171.891 341.164 171.891ZM350.305 184.277L348.535 183.352L348.957 182.59C349.48 181.637 349.75 180.688 349.766 179.742V177.117H352.625L352.613 179.461C352.605 180.328 352.387 181.203 351.957 182.086C351.527 182.969 350.977 183.699 350.305 184.277ZM366.266 167.473C366.266 168.301 366.059 169.035 365.645 169.676C365.23 170.316 364.66 170.828 363.934 171.211C364.762 171.609 365.418 172.16 365.902 172.863C366.387 173.559 366.629 174.379 366.629 175.324C366.629 176.84 366.113 178.039 365.082 178.922C364.051 179.797 362.648 180.234 360.875 180.234C359.102 180.234 357.695 179.793 356.656 178.91C355.617 178.027 355.098 176.832 355.098 175.324C355.098 174.379 355.34 173.555 355.824 172.852C356.309 172.148 356.961 171.602 357.781 171.211C357.055 170.828 356.484 170.316 356.07 169.676C355.664 169.035 355.461 168.301 355.461 167.473C355.461 166.02 355.945 164.863 356.914 164.004C357.883 163.137 359.199 162.703 360.863 162.703C362.52 162.703 363.832 163.133 364.801 163.992C365.777 164.844 366.266 166.004 366.266 167.473ZM363.23 175.078C363.23 174.336 363.016 173.742 362.586 173.297C362.156 172.852 361.578 172.629 360.852 172.629C360.133 172.629 359.559 172.852 359.129 173.297C358.699 173.734 358.484 174.328 358.484 175.078C358.484 175.805 358.695 176.391 359.117 176.836C359.539 177.281 360.125 177.504 360.875 177.504C361.609 177.504 362.184 177.289 362.598 176.859C363.02 176.43 363.23 175.836 363.23 175.078ZM362.879 167.637C362.879 166.973 362.703 166.441 362.352 166.043C362 165.637 361.504 165.434 360.863 165.434C360.23 165.434 359.738 165.629 359.387 166.02C359.035 166.41 358.859 166.949 358.859 167.637C358.859 168.316 359.035 168.863 359.387 169.277C359.738 169.691 360.234 169.898 360.875 169.898C361.516 169.898 362.008 169.691 362.352 169.277C362.703 168.863 362.879 168.316 362.879 167.637ZM378.945 173.578H380.879V176.309H378.945V180H375.559V176.309H368.562L368.41 174.176L375.523 162.938H378.945V173.578ZM371.785 173.578H375.559V167.555L375.336 167.941L371.785 173.578ZM394.309 164.836L387.711 180H384.137L390.746 165.68H382.262V162.938H394.309V164.836Z" fill="#181818"/>
<path d="M243.789 301.469L246.25 308.008L248.705 301.469H250.621V310H249.145V307.188L249.291 303.426L246.771 310H245.711L243.197 303.432L243.344 307.188V310H241.867V301.469H243.789ZM256.029 310C255.967 309.879 255.912 309.682 255.865 309.408C255.412 309.881 254.857 310.117 254.201 310.117C253.564 310.117 253.045 309.936 252.643 309.572C252.24 309.209 252.039 308.76 252.039 308.225C252.039 307.549 252.289 307.031 252.789 306.672C253.293 306.309 254.012 306.127 254.945 306.127H255.818V305.711C255.818 305.383 255.727 305.121 255.543 304.926C255.359 304.727 255.08 304.627 254.705 304.627C254.381 304.627 254.115 304.709 253.908 304.873C253.701 305.033 253.598 305.238 253.598 305.488H252.174C252.174 305.141 252.289 304.816 252.52 304.516C252.75 304.211 253.062 303.973 253.457 303.801C253.855 303.629 254.299 303.543 254.787 303.543C255.529 303.543 256.121 303.73 256.562 304.105C257.004 304.477 257.23 305 257.242 305.676V308.535C257.242 309.105 257.322 309.561 257.482 309.9V310H256.029ZM254.465 308.975C254.746 308.975 255.01 308.906 255.256 308.77C255.506 308.633 255.693 308.449 255.818 308.219V307.023H255.051C254.523 307.023 254.127 307.115 253.861 307.299C253.596 307.482 253.463 307.742 253.463 308.078C253.463 308.352 253.553 308.57 253.732 308.734C253.916 308.895 254.16 308.975 254.465 308.975ZM260.857 307.961L262.146 303.66H263.664L261.145 310.961C260.758 312.027 260.102 312.561 259.176 312.561C258.969 312.561 258.74 312.525 258.49 312.455V311.354L258.76 311.371C259.119 311.371 259.389 311.305 259.568 311.172C259.752 311.043 259.896 310.824 260.002 310.516L260.207 309.971L257.98 303.66H259.516L260.857 307.961Z" fill="#181818"/>
<path d="M284.359 301.469H285.836V307.451C285.836 308.268 285.58 308.916 285.068 309.396C284.561 309.877 283.889 310.117 283.053 310.117C282.162 310.117 281.475 309.893 280.99 309.443C280.506 308.994 280.264 308.369 280.264 307.568H281.74C281.74 308.021 281.852 308.363 282.074 308.594C282.301 308.82 282.627 308.934 283.053 308.934C283.451 308.934 283.768 308.803 284.002 308.541C284.24 308.275 284.359 307.91 284.359 307.445V301.469ZM291.238 309.379C290.82 309.871 290.227 310.117 289.457 310.117C288.77 310.117 288.248 309.916 287.893 309.514C287.541 309.111 287.365 308.529 287.365 307.768V303.66H288.789V307.75C288.789 308.555 289.123 308.957 289.791 308.957C290.482 308.957 290.949 308.709 291.191 308.213V303.66H292.615V310H291.273L291.238 309.379ZM295.387 303.66L295.428 304.393C295.896 303.826 296.512 303.543 297.273 303.543C298.594 303.543 299.266 304.299 299.289 305.811V310H297.865V305.893C297.865 305.49 297.777 305.193 297.602 305.002C297.43 304.807 297.146 304.709 296.752 304.709C296.178 304.709 295.75 304.969 295.469 305.488V310H294.045V303.66H295.387Z" fill="#181818"/>
<path d="M322.359 301.469H323.836V307.451C323.836 308.268 323.58 308.916 323.068 309.396C322.561 309.877 321.889 310.117 321.053 310.117C320.162 310.117 319.475 309.893 318.99 309.443C318.506 308.994 318.264 308.369 318.264 307.568H319.74C319.74 308.021 319.852 308.363 320.074 308.594C320.301 308.82 320.627 308.934 321.053 308.934C321.451 308.934 321.768 308.803 322.002 308.541C322.24 308.275 322.359 307.91 322.359 307.445V301.469ZM329.238 309.379C328.82 309.871 328.227 310.117 327.457 310.117C326.77 310.117 326.248 309.916 325.893 309.514C325.541 309.111 325.365 308.529 325.365 307.768V303.66H326.789V307.75C326.789 308.555 327.123 308.957 327.791 308.957C328.482 308.957 328.949 308.709 329.191 308.213V303.66H330.615V310H329.273L329.238 309.379ZM333.58 310H332.156V301H333.58V310Z" fill="#181818"/>
<path d="M357.643 308.014H354.338L353.646 310H352.105L355.328 301.469H356.658L359.887 310H358.34L357.643 308.014ZM354.754 306.818H357.227L355.99 303.279L354.754 306.818ZM364.492 309.379C364.074 309.871 363.48 310.117 362.711 310.117C362.023 310.117 361.502 309.916 361.146 309.514C360.795 309.111 360.619 308.529 360.619 307.768V303.66H362.043V307.75C362.043 308.555 362.377 308.957 363.045 308.957C363.736 308.957 364.203 308.709 364.445 308.213V303.66H365.869V310H364.527L364.492 309.379ZM367.07 306.783C367.07 305.799 367.301 305.014 367.762 304.428C368.227 303.838 368.842 303.543 369.607 303.543C370.33 303.543 370.898 303.795 371.312 304.299L371.377 303.66H372.66V309.807C372.66 310.639 372.4 311.295 371.881 311.775C371.365 312.256 370.668 312.496 369.789 312.496C369.324 312.496 368.869 312.398 368.424 312.203C367.982 312.012 367.646 311.76 367.416 311.447L368.09 310.592C368.527 311.111 369.066 311.371 369.707 311.371C370.18 311.371 370.553 311.242 370.826 310.984C371.1 310.73 371.236 310.355 371.236 309.859V309.432C370.826 309.889 370.279 310.117 369.596 310.117C368.854 310.117 368.246 309.822 367.773 309.232C367.305 308.643 367.07 307.826 367.07 306.783ZM368.488 306.906C368.488 307.543 368.617 308.045 368.875 308.412C369.137 308.775 369.498 308.957 369.959 308.957C370.533 308.957 370.959 308.711 371.236 308.219V305.43C370.967 304.949 370.545 304.709 369.971 304.709C369.502 304.709 369.137 304.895 368.875 305.266C368.617 305.637 368.488 306.184 368.488 306.906Z" fill="#181818"/>
<path d="M396.326 307.803C396.326 307.428 396.193 307.139 395.928 306.936C395.666 306.732 395.191 306.527 394.504 306.32C393.816 306.113 393.27 305.883 392.863 305.629C392.086 305.141 391.697 304.504 391.697 303.719C391.697 303.031 391.977 302.465 392.535 302.02C393.098 301.574 393.826 301.352 394.721 301.352C395.314 301.352 395.844 301.461 396.309 301.68C396.773 301.898 397.139 302.211 397.404 302.617C397.67 303.02 397.803 303.467 397.803 303.959H396.326C396.326 303.514 396.186 303.166 395.904 302.916C395.627 302.662 395.229 302.535 394.709 302.535C394.225 302.535 393.848 302.639 393.578 302.846C393.312 303.053 393.18 303.342 393.18 303.713C393.18 304.025 393.324 304.287 393.613 304.498C393.902 304.705 394.379 304.908 395.043 305.107C395.707 305.303 396.24 305.527 396.643 305.781C397.045 306.031 397.34 306.32 397.527 306.648C397.715 306.973 397.809 307.354 397.809 307.791C397.809 308.502 397.535 309.068 396.988 309.49C396.445 309.908 395.707 310.117 394.773 310.117C394.156 310.117 393.588 310.004 393.068 309.777C392.553 309.547 392.15 309.23 391.861 308.828C391.576 308.426 391.434 307.957 391.434 307.422H392.916C392.916 307.906 393.076 308.281 393.396 308.547C393.717 308.812 394.176 308.945 394.773 308.945C395.289 308.945 395.676 308.842 395.934 308.635C396.195 308.424 396.326 308.146 396.326 307.803ZM401.764 310.117C400.861 310.117 400.129 309.834 399.566 309.268C399.008 308.697 398.729 307.939 398.729 306.994V306.818C398.729 306.186 398.85 305.621 399.092 305.125C399.338 304.625 399.682 304.236 400.123 303.959C400.564 303.682 401.057 303.543 401.6 303.543C402.463 303.543 403.129 303.818 403.598 304.369C404.07 304.92 404.307 305.699 404.307 306.707V307.281H400.164C400.207 307.805 400.381 308.219 400.686 308.523C400.994 308.828 401.381 308.98 401.846 308.98C402.498 308.98 403.029 308.717 403.439 308.189L404.207 308.922C403.953 309.301 403.613 309.596 403.188 309.807C402.766 310.014 402.291 310.117 401.764 310.117ZM401.594 304.686C401.203 304.686 400.887 304.822 400.645 305.096C400.406 305.369 400.254 305.75 400.188 306.238H402.9V306.133C402.869 305.656 402.742 305.297 402.52 305.055C402.297 304.809 401.988 304.686 401.594 304.686ZM410.969 306.895C410.969 307.875 410.746 308.658 410.301 309.244C409.855 309.826 409.258 310.117 408.508 310.117C407.812 310.117 407.256 309.889 406.838 309.432V312.438H405.414V303.66H406.727L406.785 304.305C407.203 303.797 407.771 303.543 408.49 303.543C409.264 303.543 409.869 303.832 410.307 304.41C410.748 304.984 410.969 305.783 410.969 306.807V306.895ZM409.551 306.771C409.551 306.139 409.424 305.637 409.17 305.266C408.92 304.895 408.561 304.709 408.092 304.709C407.51 304.709 407.092 304.949 406.838 305.43V308.242C407.096 308.734 407.518 308.98 408.104 308.98C408.557 308.98 408.91 308.799 409.164 308.436C409.422 308.068 409.551 307.514 409.551 306.771Z" fill="#181818"/>
<path d="M436.676 305.957C436.676 306.793 436.531 307.527 436.242 308.16C435.953 308.789 435.539 309.273 435 309.613C434.465 309.949 433.848 310.117 433.148 310.117C432.457 310.117 431.84 309.949 431.297 309.613C430.758 309.273 430.34 308.791 430.043 308.166C429.75 307.541 429.602 306.82 429.598 306.004V305.523C429.598 304.691 429.744 303.957 430.037 303.32C430.334 302.684 430.75 302.197 431.285 301.861C431.824 301.521 432.441 301.352 433.137 301.352C433.832 301.352 434.447 301.52 434.982 301.855C435.521 302.188 435.938 302.668 436.23 303.297C436.523 303.922 436.672 304.65 436.676 305.482V305.957ZM435.193 305.512C435.193 304.566 435.014 303.842 434.654 303.338C434.299 302.834 433.793 302.582 433.137 302.582C432.496 302.582 431.994 302.834 431.631 303.338C431.271 303.838 431.088 304.547 431.08 305.465V305.957C431.08 306.895 431.262 307.619 431.625 308.131C431.992 308.643 432.5 308.898 433.148 308.898C433.805 308.898 434.309 308.648 434.66 308.148C435.016 307.648 435.193 306.918 435.193 305.957V305.512ZM440.619 308.98C440.975 308.98 441.27 308.877 441.504 308.67C441.738 308.463 441.863 308.207 441.879 307.902H443.221C443.205 308.297 443.082 308.666 442.852 309.01C442.621 309.35 442.309 309.619 441.914 309.818C441.52 310.018 441.094 310.117 440.637 310.117C439.75 310.117 439.047 309.83 438.527 309.256C438.008 308.682 437.748 307.889 437.748 306.877V306.73C437.748 305.766 438.006 304.994 438.521 304.416C439.037 303.834 439.74 303.543 440.631 303.543C441.385 303.543 441.998 303.764 442.471 304.205C442.947 304.643 443.197 305.219 443.221 305.934H441.879C441.863 305.57 441.738 305.271 441.504 305.037C441.273 304.803 440.979 304.686 440.619 304.686C440.158 304.686 439.803 304.854 439.553 305.189C439.303 305.521 439.176 306.027 439.172 306.707V306.936C439.172 307.623 439.295 308.137 439.541 308.477C439.791 308.812 440.15 308.98 440.619 308.98ZM446.08 302.119V303.66H447.199V304.715H446.08V308.254C446.08 308.496 446.127 308.672 446.221 308.781C446.318 308.887 446.49 308.939 446.736 308.939C446.9 308.939 447.066 308.92 447.234 308.881V309.982C446.91 310.072 446.598 310.117 446.297 310.117C445.203 310.117 444.656 309.514 444.656 308.307V304.715H443.613V303.66H444.656V302.119H446.08Z" fill="#181818"/>
<rect x="245" y="204" width="9" height="69" rx="4" fill="#0084FF"/>
<rect x="321" y="223" width="9" height="50" rx="4" fill="#0084FF"/>
<rect x="435" y="255.974" width="9" height="17.026" rx="4" fill="#0084FF"/>
<rect x="283" y="232.675" width="9" height="40.3247" rx="4" fill="#0084FF"/>
<rect x="397" y="232.675" width="9" height="40.3247" rx="4" fill="#0084FF"/>
<rect x="359" y="213.857" width="9" height="59.1429" rx="4" fill="#0084FF"/>
<circle cx="395" cy="52" r="8" fill="#FFD12D"/>
<circle cx="48" cy="325" r="8" fill="#93E6CF"/>
<path d="M165.452 314C165.297 313.76 165.162 313.619 165.104 313.459C164.369 311.416 163.654 309.373 162.938 307.33C162.725 306.729 162.513 306.108 162.319 305.487C162.145 304.946 161.875 304.485 161.333 304.285C160.405 303.945 159.497 303.604 158.568 303.243C157.505 302.843 156.461 302.422 155.417 302.022C154.779 301.781 154.141 301.581 153.503 301.32C153.309 301.24 153.174 301.04 153 300.88C153.174 300.74 153.309 300.519 153.503 300.459C154.566 300.039 155.649 299.638 156.712 299.237C157.698 298.857 158.665 298.496 159.651 298.116C160.193 297.915 160.734 297.715 161.295 297.515C161.759 297.334 162.068 297.014 162.242 296.533C162.571 295.592 162.899 294.65 163.228 293.729C163.77 292.227 164.311 290.704 164.852 289.202C164.949 288.921 164.988 288.621 165.123 288.341C165.2 288.18 165.374 288 165.51 288C165.645 288 165.819 288.2 165.877 288.361C166.612 290.404 167.327 292.447 168.062 294.49C168.275 295.111 168.487 295.752 168.7 296.373C168.874 296.934 169.164 297.334 169.725 297.535C171.117 298.035 172.509 298.556 173.901 299.097C174.887 299.478 175.873 299.878 176.879 300.259C177.13 300.359 177.42 300.399 177.652 300.519C177.807 300.599 178 300.76 178 300.9C178 301.02 177.807 301.24 177.671 301.28C175.235 302.242 172.818 303.143 170.401 304.065C170.305 304.105 170.189 304.145 170.073 304.165C169.261 304.345 168.835 304.846 168.584 305.687C168.275 306.769 167.83 307.81 167.462 308.872C167.114 309.874 166.747 310.855 166.399 311.857C166.206 312.418 166.032 312.998 165.819 313.559C165.8 313.68 165.645 313.8 165.452 314Z" fill="#FFB9F8"/>
</svg>
