<svg width="488" height="360" viewBox="0 0 488 360" fill="none" xmlns="http://www.w3.org/2000/svg">
<rect width="488" height="360" fill="white"/>
<circle cx="237.833" cy="181.514" r="168.5" fill="#F8FBFF"/>
<rect x="48.5" y="164.5" width="248" height="154" rx="20.5" fill="white" stroke="#181818" stroke-width="3"/>
<path d="M49 230H296" stroke="#181818" stroke-width="3"/>
<path d="M90.5 215C100.717 215 109 206.717 109 196.5C109 186.283 100.717 178 90.5 178C80.2827 178 72 186.283 72 196.5C72 206.717 80.2827 215 90.5 215Z" fill="url(#paint0_linear)"/>
<path fill-rule="evenodd" clip-rule="evenodd" d="M80.3743 196.305C85.7674 193.955 89.3637 192.406 91.1631 191.657C96.3007 189.521 97.3683 189.149 98.0641 189.137C98.2172 189.134 98.5593 189.172 98.781 189.352C98.9682 189.504 99.0197 189.709 99.0443 189.853C99.0689 189.997 99.0996 190.325 99.0752 190.581C98.7968 193.507 97.5921 200.606 96.9793 203.882C96.7199 205.268 96.2093 205.733 95.715 205.779C94.6406 205.878 93.8248 205.069 92.7843 204.387C91.1561 203.319 90.2362 202.655 88.6557 201.613C86.8292 200.41 88.0132 199.748 89.0542 198.667C89.3266 198.384 94.0601 194.079 94.1517 193.688C94.1632 193.639 94.1738 193.457 94.0657 193.361C93.9575 193.265 93.7978 193.298 93.6826 193.324C93.5193 193.361 90.9182 195.08 85.8792 198.482C85.1409 198.989 84.4721 199.236 83.873 199.223C83.2124 199.208 81.9418 198.849 80.9972 198.542C79.8387 198.165 78.9178 197.966 78.998 197.327C79.0398 196.994 79.4986 196.653 80.3743 196.305Z" fill="white"/>
<path d="M80.2153 285.554H73.3428V282.709H80.2153V285.554ZM91.3359 287.067C91.3359 286.4 91.1488 285.871 90.7744 285.48C90.4082 285.082 89.7816 284.715 88.8945 284.382C88.0075 284.048 87.2425 283.719 86.5996 283.393C85.9567 283.059 85.4033 282.681 84.9395 282.258C84.4837 281.826 84.1257 281.322 83.8652 280.744C83.613 280.166 83.4868 279.479 83.4868 278.681C83.4868 277.306 83.9263 276.179 84.8052 275.3C85.6841 274.421 86.8519 273.908 88.3086 273.762V271.149H90.2617V273.798C91.7021 274.002 92.8293 274.604 93.6431 275.605C94.4569 276.598 94.8638 277.888 94.8638 279.475H91.3359C91.3359 278.498 91.1325 277.77 90.7256 277.29C90.3268 276.801 89.7897 276.557 89.1143 276.557C88.4469 276.557 87.9302 276.748 87.564 277.131C87.1978 277.505 87.0146 278.026 87.0146 278.693C87.0146 279.312 87.1937 279.808 87.5518 280.183C87.9098 280.557 88.5731 280.939 89.5415 281.33C90.5181 281.721 91.3197 282.091 91.9463 282.441C92.5729 282.783 93.1019 283.173 93.5332 283.613C93.9645 284.044 94.2941 284.541 94.522 285.102C94.7498 285.655 94.8638 286.302 94.8638 287.043C94.8638 288.426 94.4325 289.549 93.5698 290.412C92.7072 291.275 91.519 291.783 90.0054 291.938V294.367H88.0645V291.95C86.3962 291.771 85.1022 291.181 84.1826 290.18C83.2712 289.171 82.8154 287.832 82.8154 286.164H86.3433C86.3433 287.132 86.5711 287.877 87.0269 288.398C87.4907 288.911 88.154 289.167 89.0166 289.167C89.7327 289.167 90.2983 288.98 90.7134 288.605C91.1284 288.223 91.3359 287.71 91.3359 287.067ZM112.051 291.743H108.523V278.144L104.312 279.45V276.582L111.673 273.945H112.051V291.743ZM128.274 285.053H130.289V287.897H128.274V291.743H124.747V287.897H117.459L117.3 285.676L124.71 273.969H128.274V285.053ZM120.816 285.053H124.747V278.779L124.515 279.182L120.816 285.053ZM133.255 296.198L131.412 295.234L131.851 294.44C132.396 293.448 132.677 292.459 132.693 291.474V288.74H135.672L135.66 291.181C135.652 292.084 135.424 292.996 134.976 293.916C134.528 294.835 133.955 295.596 133.255 296.198ZM146.548 284.638C145.629 285.542 144.555 285.993 143.326 285.993C141.755 285.993 140.498 285.456 139.554 284.382C138.61 283.299 138.138 281.843 138.138 280.012C138.138 278.848 138.39 277.782 138.895 276.813C139.407 275.837 140.119 275.08 141.031 274.543C141.942 273.998 142.968 273.725 144.107 273.725C145.279 273.725 146.32 274.018 147.232 274.604C148.143 275.19 148.851 276.032 149.356 277.131C149.861 278.229 150.117 279.487 150.125 280.903V282.209C150.125 285.171 149.389 287.499 147.916 289.191C146.443 290.884 144.355 291.787 141.653 291.901L140.787 291.914V288.972L141.568 288.959C144.636 288.821 146.296 287.381 146.548 284.638ZM144.192 283.295C144.762 283.295 145.25 283.149 145.657 282.856C146.072 282.563 146.386 282.209 146.597 281.794V280.341C146.597 279.145 146.369 278.217 145.914 277.558C145.458 276.899 144.847 276.569 144.083 276.569C143.375 276.569 142.793 276.895 142.337 277.546C141.881 278.189 141.653 278.999 141.653 279.975C141.653 280.944 141.873 281.741 142.312 282.368C142.76 282.986 143.387 283.295 144.192 283.295ZM160.904 284.638C159.984 285.542 158.91 285.993 157.681 285.993C156.111 285.993 154.853 285.456 153.909 284.382C152.965 283.299 152.493 281.843 152.493 280.012C152.493 278.848 152.745 277.782 153.25 276.813C153.763 275.837 154.475 275.08 155.386 274.543C156.298 273.998 157.323 273.725 158.462 273.725C159.634 273.725 160.676 274.018 161.587 274.604C162.499 275.19 163.207 276.032 163.711 277.131C164.216 278.229 164.472 279.487 164.48 280.903V282.209C164.48 285.171 163.744 287.499 162.271 289.191C160.798 290.884 158.711 291.787 156.009 291.901L155.142 291.914V288.972L155.923 288.959C158.991 288.821 160.652 287.381 160.904 284.638ZM158.548 283.295C159.118 283.295 159.606 283.149 160.013 282.856C160.428 282.563 160.741 282.209 160.953 281.794V280.341C160.953 279.145 160.725 278.217 160.269 277.558C159.813 276.899 159.203 276.569 158.438 276.569C157.73 276.569 157.148 276.895 156.692 277.546C156.237 278.189 156.009 278.999 156.009 279.975C156.009 280.944 156.229 281.741 156.668 282.368C157.116 282.986 157.742 283.295 158.548 283.295Z" fill="#181818"/>
<path d="M77.3262 260.4C77.3262 260.025 77.1934 259.736 76.9277 259.533C76.666 259.33 76.1914 259.125 75.5039 258.918C74.8164 258.711 74.2695 258.48 73.8633 258.227C73.0859 257.738 72.6973 257.102 72.6973 256.316C72.6973 255.629 72.9766 255.062 73.5352 254.617C74.0977 254.172 74.8262 253.949 75.7207 253.949C76.3145 253.949 76.8438 254.059 77.3086 254.277C77.7734 254.496 78.1387 254.809 78.4043 255.215C78.6699 255.617 78.8027 256.064 78.8027 256.557H77.3262C77.3262 256.111 77.1855 255.764 76.9043 255.514C76.627 255.26 76.2285 255.133 75.709 255.133C75.2246 255.133 74.8477 255.236 74.5781 255.443C74.3125 255.65 74.1797 255.939 74.1797 256.311C74.1797 256.623 74.3242 256.885 74.6133 257.096C74.9023 257.303 75.3789 257.506 76.043 257.705C76.707 257.9 77.2402 258.125 77.6426 258.379C78.0449 258.629 78.3398 258.918 78.5273 259.246C78.7148 259.57 78.8086 259.951 78.8086 260.389C78.8086 261.1 78.5352 261.666 77.9883 262.088C77.4453 262.506 76.707 262.715 75.7734 262.715C75.1562 262.715 74.5879 262.602 74.0684 262.375C73.5527 262.145 73.1504 261.828 72.8613 261.426C72.5762 261.023 72.4336 260.555 72.4336 260.02H73.916C73.916 260.504 74.0762 260.879 74.3965 261.145C74.7168 261.41 75.1758 261.543 75.7734 261.543C76.2891 261.543 76.6758 261.439 76.9336 261.232C77.1953 261.021 77.3262 260.744 77.3262 260.4ZM83.8125 261.977C83.3945 262.469 82.8008 262.715 82.0312 262.715C81.3438 262.715 80.8223 262.514 80.4668 262.111C80.1152 261.709 79.9395 261.127 79.9395 260.365V256.258H81.3633V260.348C81.3633 261.152 81.6973 261.555 82.3652 261.555C83.0566 261.555 83.5234 261.307 83.7656 260.811V256.258H85.1895V262.598H83.8477L83.8125 261.977ZM92.2031 259.492C92.2031 260.477 91.9824 261.26 91.541 261.842C91.1035 262.424 90.5 262.715 89.7305 262.715C88.9883 262.715 88.4102 262.447 87.9961 261.912L87.9258 262.598H86.6367V253.598H88.0605V256.867C88.4707 256.383 89.0234 256.141 89.7188 256.141C90.4922 256.141 91.0996 256.428 91.541 257.002C91.9824 257.576 92.2031 258.379 92.2031 259.41V259.492ZM90.7793 259.369C90.7793 258.682 90.6582 258.166 90.416 257.822C90.1738 257.479 89.8223 257.307 89.3613 257.307C88.7441 257.307 88.3105 257.576 88.0605 258.115V260.729C88.3145 261.279 88.752 261.555 89.373 261.555C89.8184 261.555 90.1621 261.389 90.4043 261.057C90.6465 260.725 90.7715 260.223 90.7793 259.551V259.369ZM96.9551 260.875C96.9551 260.621 96.8496 260.428 96.6387 260.295C96.4316 260.162 96.0859 260.045 95.6016 259.943C95.1172 259.842 94.7129 259.713 94.3887 259.557C93.6777 259.213 93.3223 258.715 93.3223 258.062C93.3223 257.516 93.5527 257.059 94.0137 256.691C94.4746 256.324 95.0605 256.141 95.7715 256.141C96.5293 256.141 97.1406 256.328 97.6055 256.703C98.0742 257.078 98.3086 257.564 98.3086 258.162H96.8848C96.8848 257.889 96.7832 257.662 96.5801 257.482C96.377 257.299 96.1074 257.207 95.7715 257.207C95.459 257.207 95.2031 257.279 95.0039 257.424C94.8086 257.568 94.7109 257.762 94.7109 258.004C94.7109 258.223 94.8027 258.393 94.9863 258.514C95.1699 258.635 95.541 258.758 96.0996 258.883C96.6582 259.004 97.0957 259.15 97.4121 259.322C97.7324 259.49 97.9688 259.693 98.1211 259.932C98.2773 260.17 98.3555 260.459 98.3555 260.799C98.3555 261.369 98.1191 261.832 97.6465 262.188C97.1738 262.539 96.5547 262.715 95.7891 262.715C95.2695 262.715 94.8066 262.621 94.4004 262.434C93.9941 262.246 93.6777 261.988 93.4512 261.66C93.2246 261.332 93.1113 260.979 93.1113 260.6H94.4941C94.5137 260.936 94.6406 261.195 94.875 261.379C95.1094 261.559 95.4199 261.648 95.8066 261.648C96.1816 261.648 96.4668 261.578 96.6621 261.438C96.8574 261.293 96.9551 261.105 96.9551 260.875ZM102.205 261.578C102.561 261.578 102.855 261.475 103.09 261.268C103.324 261.061 103.449 260.805 103.465 260.5H104.807C104.791 260.895 104.668 261.264 104.438 261.607C104.207 261.947 103.895 262.217 103.5 262.416C103.105 262.615 102.68 262.715 102.223 262.715C101.336 262.715 100.633 262.428 100.113 261.854C99.5938 261.279 99.334 260.486 99.334 259.475V259.328C99.334 258.363 99.5918 257.592 100.107 257.014C100.623 256.432 101.326 256.141 102.217 256.141C102.971 256.141 103.584 256.361 104.057 256.803C104.533 257.24 104.783 257.816 104.807 258.531H103.465C103.449 258.168 103.324 257.869 103.09 257.635C102.859 257.4 102.564 257.283 102.205 257.283C101.744 257.283 101.389 257.451 101.139 257.787C100.889 258.119 100.762 258.625 100.758 259.305V259.533C100.758 260.221 100.881 260.734 101.127 261.074C101.377 261.41 101.736 261.578 102.205 261.578ZM109.201 257.559C109.014 257.527 108.82 257.512 108.621 257.512C107.969 257.512 107.529 257.762 107.303 258.262V262.598H105.879V256.258H107.238L107.273 256.967C107.617 256.416 108.094 256.141 108.703 256.141C108.906 256.141 109.074 256.168 109.207 256.223L109.201 257.559ZM111.615 262.598H110.191V256.258H111.615V262.598ZM110.104 254.611C110.104 254.393 110.172 254.211 110.309 254.066C110.449 253.922 110.648 253.85 110.906 253.85C111.164 253.85 111.363 253.922 111.504 254.066C111.645 254.211 111.715 254.393 111.715 254.611C111.715 254.826 111.645 255.006 111.504 255.15C111.363 255.291 111.164 255.361 110.906 255.361C110.648 255.361 110.449 255.291 110.309 255.15C110.172 255.006 110.104 254.826 110.104 254.611ZM118.723 259.492C118.723 260.473 118.5 261.256 118.055 261.842C117.609 262.424 117.012 262.715 116.262 262.715C115.566 262.715 115.01 262.486 114.592 262.029V265.035H113.168V256.258H114.48L114.539 256.902C114.957 256.395 115.525 256.141 116.244 256.141C117.018 256.141 117.623 256.43 118.061 257.008C118.502 257.582 118.723 258.381 118.723 259.404V259.492ZM117.305 259.369C117.305 258.736 117.178 258.234 116.924 257.863C116.674 257.492 116.314 257.307 115.846 257.307C115.264 257.307 114.846 257.547 114.592 258.027V260.84C114.85 261.332 115.271 261.578 115.857 261.578C116.311 261.578 116.664 261.396 116.918 261.033C117.176 260.666 117.305 260.111 117.305 259.369ZM121.717 254.717V256.258H122.836V257.312H121.717V260.852C121.717 261.094 121.764 261.27 121.857 261.379C121.955 261.484 122.127 261.537 122.373 261.537C122.537 261.537 122.703 261.518 122.871 261.479V262.58C122.547 262.67 122.234 262.715 121.934 262.715C120.84 262.715 120.293 262.111 120.293 260.904V257.312H119.25V256.258H120.293V254.717H121.717ZM125.443 262.598H124.02V256.258H125.443V262.598ZM123.932 254.611C123.932 254.393 124 254.211 124.137 254.066C124.277 253.922 124.477 253.85 124.734 253.85C124.992 253.85 125.191 253.922 125.332 254.066C125.473 254.211 125.543 254.393 125.543 254.611C125.543 254.826 125.473 255.006 125.332 255.15C125.191 255.291 124.992 255.361 124.734 255.361C124.477 255.361 124.277 255.291 124.137 255.15C124 255.006 123.932 254.826 123.932 254.611ZM126.732 259.369C126.732 258.748 126.855 258.189 127.102 257.693C127.348 257.193 127.693 256.811 128.139 256.545C128.584 256.275 129.096 256.141 129.674 256.141C130.529 256.141 131.223 256.416 131.754 256.967C132.289 257.518 132.578 258.248 132.621 259.158L132.627 259.492C132.627 260.117 132.506 260.676 132.264 261.168C132.025 261.66 131.682 262.041 131.232 262.311C130.787 262.58 130.271 262.715 129.686 262.715C128.791 262.715 128.074 262.418 127.535 261.824C127 261.227 126.732 260.432 126.732 259.439V259.369ZM128.156 259.492C128.156 260.145 128.291 260.656 128.561 261.027C128.83 261.395 129.205 261.578 129.686 261.578C130.166 261.578 130.539 261.391 130.805 261.016C131.074 260.641 131.209 260.092 131.209 259.369C131.209 258.729 131.07 258.221 130.793 257.846C130.52 257.471 130.146 257.283 129.674 257.283C129.209 257.283 128.84 257.469 128.566 257.84C128.293 258.207 128.156 258.758 128.156 259.492ZM135.152 256.258L135.193 256.99C135.662 256.424 136.277 256.141 137.039 256.141C138.359 256.141 139.031 256.896 139.055 258.408V262.598H137.631V258.49C137.631 258.088 137.543 257.791 137.367 257.6C137.195 257.404 136.912 257.307 136.518 257.307C135.943 257.307 135.516 257.566 135.234 258.086V262.598H133.811V256.258H135.152ZM146.771 259.311H145.119V262.598H143.637V254.066H146.637C147.621 254.066 148.381 254.287 148.916 254.729C149.451 255.17 149.719 255.809 149.719 256.645C149.719 257.215 149.58 257.693 149.303 258.08C149.029 258.463 148.646 258.758 148.154 258.965L150.07 262.521V262.598H148.482L146.771 259.311ZM145.119 258.121H146.643C147.143 258.121 147.533 257.996 147.814 257.746C148.096 257.492 148.236 257.146 148.236 256.709C148.236 256.252 148.105 255.898 147.844 255.648C147.586 255.398 147.199 255.27 146.684 255.262H145.119V258.121ZM153.779 262.715C152.877 262.715 152.145 262.432 151.582 261.865C151.023 261.295 150.744 260.537 150.744 259.592V259.416C150.744 258.783 150.865 258.219 151.107 257.723C151.354 257.223 151.697 256.834 152.139 256.557C152.58 256.279 153.072 256.141 153.615 256.141C154.479 256.141 155.145 256.416 155.613 256.967C156.086 257.518 156.322 258.297 156.322 259.305V259.879H152.18C152.223 260.402 152.396 260.816 152.701 261.121C153.01 261.426 153.396 261.578 153.861 261.578C154.514 261.578 155.045 261.314 155.455 260.787L156.223 261.52C155.969 261.898 155.629 262.193 155.203 262.404C154.781 262.611 154.307 262.715 153.779 262.715ZM153.609 257.283C153.219 257.283 152.902 257.42 152.66 257.693C152.422 257.967 152.27 258.348 152.203 258.836H154.916V258.73C154.885 258.254 154.758 257.895 154.535 257.652C154.312 257.406 154.004 257.283 153.609 257.283ZM157.934 262.598V257.312H156.967V256.258H157.934V255.678C157.934 254.975 158.129 254.432 158.52 254.049C158.91 253.666 159.457 253.475 160.16 253.475C160.41 253.475 160.676 253.51 160.957 253.58L160.922 254.693C160.766 254.662 160.584 254.646 160.377 254.646C159.697 254.646 159.357 254.996 159.357 255.695V256.258H160.646V257.312H159.357V262.598H157.934ZM165.527 261.977C165.109 262.469 164.516 262.715 163.746 262.715C163.059 262.715 162.537 262.514 162.182 262.111C161.83 261.709 161.654 261.127 161.654 260.365V256.258H163.078V260.348C163.078 261.152 163.412 261.555 164.08 261.555C164.771 261.555 165.238 261.307 165.48 260.811V256.258H166.904V262.598H165.562L165.527 261.977ZM169.676 256.258L169.717 256.99C170.186 256.424 170.801 256.141 171.562 256.141C172.883 256.141 173.555 256.896 173.578 258.408V262.598H172.154V258.49C172.154 258.088 172.066 257.791 171.891 257.6C171.719 257.404 171.436 257.307 171.041 257.307C170.467 257.307 170.039 257.566 169.758 258.086V262.598H168.334V256.258H169.676ZM174.768 259.381C174.768 258.404 174.994 257.621 175.447 257.031C175.9 256.438 176.508 256.141 177.27 256.141C177.941 256.141 178.484 256.375 178.898 256.844V253.598H180.322V262.598H179.033L178.963 261.941C178.537 262.457 177.969 262.715 177.258 262.715C176.516 262.715 175.914 262.416 175.453 261.818C174.996 261.221 174.768 260.408 174.768 259.381ZM176.191 259.504C176.191 260.148 176.314 260.652 176.561 261.016C176.811 261.375 177.164 261.555 177.621 261.555C178.203 261.555 178.629 261.295 178.898 260.775V258.068C178.637 257.561 178.215 257.307 177.633 257.307C177.172 257.307 176.816 257.49 176.566 257.857C176.316 258.221 176.191 258.77 176.191 259.504ZM184.6 262.715C183.697 262.715 182.965 262.432 182.402 261.865C181.844 261.295 181.564 260.537 181.564 259.592V259.416C181.564 258.783 181.686 258.219 181.928 257.723C182.174 257.223 182.518 256.834 182.959 256.557C183.4 256.279 183.893 256.141 184.436 256.141C185.299 256.141 185.965 256.416 186.434 256.967C186.906 257.518 187.143 258.297 187.143 259.305V259.879H183C183.043 260.402 183.217 260.816 183.521 261.121C183.83 261.426 184.217 261.578 184.682 261.578C185.334 261.578 185.865 261.314 186.275 260.787L187.043 261.52C186.789 261.898 186.449 262.193 186.023 262.404C185.602 262.611 185.127 262.715 184.6 262.715ZM184.43 257.283C184.039 257.283 183.723 257.42 183.48 257.693C183.242 257.967 183.09 258.348 183.023 258.836H185.736V258.73C185.705 258.254 185.578 257.895 185.355 257.652C185.133 257.406 184.824 257.283 184.43 257.283ZM187.986 259.381C187.986 258.404 188.213 257.621 188.666 257.031C189.119 256.438 189.727 256.141 190.488 256.141C191.16 256.141 191.703 256.375 192.117 256.844V253.598H193.541V262.598H192.252L192.182 261.941C191.756 262.457 191.188 262.715 190.477 262.715C189.734 262.715 189.133 262.416 188.672 261.818C188.215 261.221 187.986 260.408 187.986 259.381ZM189.41 259.504C189.41 260.148 189.533 260.652 189.779 261.016C190.029 261.375 190.383 261.555 190.84 261.555C191.422 261.555 191.848 261.295 192.117 260.775V258.068C191.855 257.561 191.434 257.307 190.852 257.307C190.391 257.307 190.035 257.49 189.785 257.857C189.535 258.221 189.41 258.77 189.41 259.504Z" fill="#181818"/>
<path d="M170 163H276C288.15 163 298 172.85 298 185V207H192C179.85 207 170 197.15 170 185V163Z" fill="#181818"/>
<rect x="179.5" y="43.5" width="248" height="154" rx="20.5" fill="white" stroke="#181818" stroke-width="3"/>
<circle cx="221.5" cy="75.5" r="18.5" fill="#4A154B"/>
<path d="M214.349 78.7541C214.349 80.1803 213.184 81.3453 211.758 81.3453C210.332 81.3453 209.167 80.1803 209.167 78.7541C209.167 77.3279 210.332 76.1629 211.758 76.1629H214.349V78.7541Z" fill="#E01E5A"/>
<path d="M215.655 78.7541C215.655 77.3279 216.82 76.1629 218.246 76.1629C219.672 76.1629 220.837 77.3279 220.837 78.7541V85.2422C220.837 86.6683 219.672 87.8334 218.246 87.8334C216.82 87.8334 215.655 86.6683 215.655 85.2422V78.7541Z" fill="#E01E5A"/>
<path d="M218.246 68.3491C216.82 68.3491 215.655 67.1841 215.655 65.7579C215.655 64.3317 216.82 63.1667 218.246 63.1667C219.672 63.1667 220.837 64.3317 220.837 65.7579V68.3491H218.246Z" fill="#36C5F0"/>
<path d="M218.246 69.6547C219.672 69.6547 220.837 70.8198 220.837 72.2459C220.837 73.6721 219.672 74.8371 218.246 74.8371H211.758C210.332 74.8371 209.167 73.6721 209.167 72.2459C209.167 70.8198 210.332 69.6547 211.758 69.6547H218.246Z" fill="#36C5F0"/>
<path d="M228.651 72.2459C228.651 70.8198 229.816 69.6547 231.243 69.6547C232.669 69.6547 233.834 70.8198 233.834 72.2459C233.834 73.6721 232.669 74.8371 231.243 74.8371H228.651V72.2459Z" fill="#2EB67D"/>
<path d="M227.345 72.246C227.345 73.6721 226.18 74.8372 224.754 74.8372C223.328 74.8372 222.163 73.6721 222.163 72.246V65.7579C222.163 64.3317 223.328 63.1667 224.754 63.1667C226.18 63.1667 227.345 64.3317 227.345 65.7579V72.246Z" fill="#2EB67D"/>
<path d="M224.754 82.6509C226.18 82.6509 227.345 83.816 227.345 85.2421C227.345 86.6683 226.18 87.8333 224.754 87.8333C223.328 87.8333 222.163 86.6683 222.163 85.2421V82.6509H224.754Z" fill="#ECB22E"/>
<path d="M224.754 81.3453C223.328 81.3453 222.163 80.1803 222.163 78.7541C222.163 77.3279 223.328 76.1629 224.754 76.1629H231.242C232.669 76.1629 233.834 77.3279 233.834 78.7541C233.834 80.1803 232.669 81.3453 231.242 81.3453H224.754Z" fill="#ECB22E"/>
<path d="M180 109L427 109" stroke="#181818" stroke-width="3"/>
<path d="M211.698 160.786H216.223V164.058H211.698V169.171H208.251V164.058H203.714V160.786H208.251V155.886H211.698V160.786ZM226.913 166.201C226.913 165.516 226.721 164.973 226.337 164.571C225.961 164.162 225.317 163.786 224.407 163.443C223.496 163.101 222.711 162.762 222.05 162.428C221.39 162.086 220.822 161.697 220.346 161.263C219.878 160.82 219.51 160.302 219.243 159.709C218.984 159.115 218.855 158.409 218.855 157.59C218.855 156.178 219.306 155.021 220.208 154.119C221.11 153.216 222.309 152.69 223.805 152.54V149.857H225.81V152.577C227.289 152.786 228.447 153.404 229.282 154.432C230.118 155.451 230.535 156.776 230.535 158.405H226.913C226.913 157.402 226.704 156.655 226.287 156.162C225.877 155.66 225.326 155.41 224.632 155.41C223.947 155.41 223.417 155.606 223.041 155.999C222.665 156.383 222.477 156.918 222.477 157.603C222.477 158.238 222.66 158.748 223.028 159.132C223.396 159.516 224.077 159.909 225.071 160.31C226.074 160.711 226.897 161.091 227.54 161.451C228.183 161.802 228.726 162.203 229.169 162.654C229.612 163.097 229.951 163.606 230.185 164.183C230.418 164.751 230.535 165.415 230.535 166.176C230.535 167.596 230.093 168.749 229.207 169.635C228.321 170.521 227.101 171.043 225.547 171.202V173.696H223.554V171.214C221.842 171.03 220.513 170.424 219.569 169.397C218.633 168.361 218.165 166.986 218.165 165.273H221.787C221.787 166.268 222.021 167.032 222.489 167.567C222.965 168.093 223.646 168.356 224.532 168.356C225.267 168.356 225.848 168.164 226.274 167.78C226.7 167.387 226.913 166.861 226.913 166.201ZM247.856 163.707C246.912 164.634 245.809 165.098 244.548 165.098C242.935 165.098 241.644 164.546 240.675 163.443C239.706 162.332 239.221 160.837 239.221 158.957C239.221 157.762 239.48 156.667 239.998 155.673C240.524 154.67 241.256 153.893 242.191 153.342C243.127 152.782 244.18 152.502 245.35 152.502C246.553 152.502 247.622 152.803 248.558 153.404C249.494 154.006 250.221 154.871 250.739 155.999C251.257 157.127 251.52 158.418 251.529 159.871V161.213C251.529 164.254 250.772 166.644 249.26 168.382C247.748 170.119 245.605 171.047 242.831 171.164L241.941 171.176V168.156L242.743 168.143C245.893 168.001 247.597 166.522 247.856 163.707ZM245.437 162.328C246.022 162.328 246.524 162.178 246.941 161.877C247.368 161.576 247.689 161.213 247.906 160.786V159.295C247.906 158.067 247.673 157.114 247.205 156.437C246.737 155.761 246.11 155.422 245.325 155.422C244.598 155.422 244 155.756 243.532 156.425C243.064 157.085 242.831 157.916 242.831 158.919C242.831 159.913 243.056 160.732 243.507 161.375C243.967 162.01 244.61 162.328 245.437 162.328ZM255.213 175.576L253.321 174.585L253.772 173.771C254.332 172.751 254.62 171.736 254.637 170.725V167.918H257.695L257.682 170.424C257.674 171.352 257.44 172.288 256.981 173.232C256.521 174.176 255.932 174.957 255.213 175.576ZM268.862 163.707C267.918 164.634 266.815 165.098 265.553 165.098C263.941 165.098 262.65 164.546 261.68 163.443C260.711 162.332 260.227 160.837 260.227 158.957C260.227 157.762 260.486 156.667 261.004 155.673C261.53 154.67 262.261 153.893 263.197 153.342C264.133 152.782 265.186 152.502 266.355 152.502C267.559 152.502 268.628 152.803 269.564 153.404C270.5 154.006 271.227 154.871 271.745 155.999C272.263 157.127 272.526 158.418 272.534 159.871V161.213C272.534 164.254 271.778 166.644 270.266 168.382C268.753 170.119 266.61 171.047 263.836 171.164L262.946 171.176V168.156L263.748 168.143C266.898 168.001 268.603 166.522 268.862 163.707ZM266.443 162.328C267.028 162.328 267.529 162.178 267.947 161.877C268.373 161.576 268.695 161.213 268.912 160.786V159.295C268.912 158.067 268.678 157.114 268.21 156.437C267.742 155.761 267.116 155.422 266.33 155.422C265.603 155.422 265.006 155.756 264.538 156.425C264.07 157.085 263.836 157.916 263.836 158.919C263.836 159.913 264.062 160.732 264.513 161.375C264.973 162.01 265.616 162.328 266.443 162.328ZM283.601 163.707C282.657 164.634 281.554 165.098 280.292 165.098C278.68 165.098 277.389 164.546 276.42 163.443C275.45 162.332 274.966 160.837 274.966 158.957C274.966 157.762 275.225 156.667 275.743 155.673C276.269 154.67 277 153.893 277.936 153.342C278.872 152.782 279.925 152.502 281.094 152.502C282.298 152.502 283.367 152.803 284.303 153.404C285.239 154.006 285.966 154.871 286.484 155.999C287.002 157.127 287.265 158.418 287.273 159.871V161.213C287.273 164.254 286.517 166.644 285.005 168.382C283.492 170.119 281.349 171.047 278.575 171.164L277.685 171.176V168.156L278.487 168.143C281.637 168.001 283.342 166.522 283.601 163.707ZM281.182 162.328C281.767 162.328 282.268 162.178 282.686 161.877C283.112 161.576 283.434 161.213 283.651 160.786V159.295C283.651 158.067 283.417 157.114 282.949 156.437C282.481 155.761 281.855 155.422 281.069 155.422C280.342 155.422 279.745 155.756 279.277 156.425C278.809 157.085 278.575 157.916 278.575 158.919C278.575 159.913 278.801 160.732 279.252 161.375C279.712 162.01 280.355 162.328 281.182 162.328Z" fill="#181818"/>
<path d="M208.326 138.659C208.326 138.284 208.193 137.995 207.928 137.792C207.666 137.589 207.191 137.384 206.504 137.177C205.816 136.97 205.27 136.739 204.863 136.485C204.086 135.997 203.697 135.36 203.697 134.575C203.697 133.888 203.977 133.321 204.535 132.876C205.098 132.431 205.826 132.208 206.721 132.208C207.314 132.208 207.844 132.317 208.309 132.536C208.773 132.755 209.139 133.067 209.404 133.474C209.67 133.876 209.803 134.323 209.803 134.815H208.326C208.326 134.37 208.186 134.022 207.904 133.772C207.627 133.519 207.229 133.392 206.709 133.392C206.225 133.392 205.848 133.495 205.578 133.702C205.312 133.909 205.18 134.198 205.18 134.569C205.18 134.882 205.324 135.144 205.613 135.354C205.902 135.562 206.379 135.765 207.043 135.964C207.707 136.159 208.24 136.384 208.643 136.638C209.045 136.888 209.34 137.177 209.527 137.505C209.715 137.829 209.809 138.21 209.809 138.647C209.809 139.358 209.535 139.925 208.988 140.347C208.445 140.765 207.707 140.974 206.773 140.974C206.156 140.974 205.588 140.86 205.068 140.634C204.553 140.403 204.15 140.087 203.861 139.685C203.576 139.282 203.434 138.813 203.434 138.278H204.916C204.916 138.763 205.076 139.138 205.396 139.403C205.717 139.669 206.176 139.802 206.773 139.802C207.289 139.802 207.676 139.698 207.934 139.491C208.195 139.28 208.326 139.003 208.326 138.659ZM214.812 140.235C214.395 140.728 213.801 140.974 213.031 140.974C212.344 140.974 211.822 140.772 211.467 140.37C211.115 139.968 210.939 139.386 210.939 138.624V134.517H212.363V138.606C212.363 139.411 212.697 139.813 213.365 139.813C214.057 139.813 214.523 139.565 214.766 139.069V134.517H216.189V140.856H214.848L214.812 140.235ZM223.203 137.751C223.203 138.735 222.982 139.519 222.541 140.101C222.104 140.683 221.5 140.974 220.73 140.974C219.988 140.974 219.41 140.706 218.996 140.171L218.926 140.856H217.637V131.856H219.061V135.126C219.471 134.642 220.023 134.399 220.719 134.399C221.492 134.399 222.1 134.687 222.541 135.261C222.982 135.835 223.203 136.638 223.203 137.669V137.751ZM221.779 137.628C221.779 136.94 221.658 136.425 221.416 136.081C221.174 135.737 220.822 135.565 220.361 135.565C219.744 135.565 219.311 135.835 219.061 136.374V138.987C219.314 139.538 219.752 139.813 220.373 139.813C220.818 139.813 221.162 139.647 221.404 139.315C221.646 138.983 221.771 138.481 221.779 137.81V137.628ZM227.955 139.134C227.955 138.88 227.85 138.687 227.639 138.554C227.432 138.421 227.086 138.304 226.602 138.202C226.117 138.101 225.713 137.972 225.389 137.815C224.678 137.472 224.322 136.974 224.322 136.321C224.322 135.774 224.553 135.317 225.014 134.95C225.475 134.583 226.061 134.399 226.771 134.399C227.529 134.399 228.141 134.587 228.605 134.962C229.074 135.337 229.309 135.823 229.309 136.421H227.885C227.885 136.147 227.783 135.921 227.58 135.741C227.377 135.558 227.107 135.466 226.771 135.466C226.459 135.466 226.203 135.538 226.004 135.683C225.809 135.827 225.711 136.021 225.711 136.263C225.711 136.481 225.803 136.651 225.986 136.772C226.17 136.894 226.541 137.017 227.1 137.142C227.658 137.263 228.096 137.409 228.412 137.581C228.732 137.749 228.969 137.952 229.121 138.19C229.277 138.429 229.355 138.718 229.355 139.058C229.355 139.628 229.119 140.091 228.646 140.446C228.174 140.798 227.555 140.974 226.789 140.974C226.27 140.974 225.807 140.88 225.4 140.692C224.994 140.505 224.678 140.247 224.451 139.919C224.225 139.591 224.111 139.237 224.111 138.858H225.494C225.514 139.194 225.641 139.454 225.875 139.638C226.109 139.817 226.42 139.907 226.807 139.907C227.182 139.907 227.467 139.837 227.662 139.696C227.857 139.552 227.955 139.364 227.955 139.134ZM233.205 139.837C233.561 139.837 233.855 139.733 234.09 139.526C234.324 139.319 234.449 139.063 234.465 138.759H235.807C235.791 139.153 235.668 139.522 235.438 139.866C235.207 140.206 234.895 140.476 234.5 140.675C234.105 140.874 233.68 140.974 233.223 140.974C232.336 140.974 231.633 140.687 231.113 140.112C230.594 139.538 230.334 138.745 230.334 137.733V137.587C230.334 136.622 230.592 135.851 231.107 135.272C231.623 134.69 232.326 134.399 233.217 134.399C233.971 134.399 234.584 134.62 235.057 135.062C235.533 135.499 235.783 136.075 235.807 136.79H234.465C234.449 136.427 234.324 136.128 234.09 135.894C233.859 135.659 233.564 135.542 233.205 135.542C232.744 135.542 232.389 135.71 232.139 136.046C231.889 136.378 231.762 136.884 231.758 137.563V137.792C231.758 138.479 231.881 138.993 232.127 139.333C232.377 139.669 232.736 139.837 233.205 139.837ZM240.201 135.817C240.014 135.786 239.82 135.771 239.621 135.771C238.969 135.771 238.529 136.021 238.303 136.521V140.856H236.879V134.517H238.238L238.273 135.226C238.617 134.675 239.094 134.399 239.703 134.399C239.906 134.399 240.074 134.427 240.207 134.481L240.201 135.817ZM242.615 140.856H241.191V134.517H242.615V140.856ZM241.104 132.87C241.104 132.651 241.172 132.47 241.309 132.325C241.449 132.181 241.648 132.108 241.906 132.108C242.164 132.108 242.363 132.181 242.504 132.325C242.645 132.47 242.715 132.651 242.715 132.87C242.715 133.085 242.645 133.265 242.504 133.409C242.363 133.55 242.164 133.62 241.906 133.62C241.648 133.62 241.449 133.55 241.309 133.409C241.172 133.265 241.104 133.085 241.104 132.87ZM249.723 137.751C249.723 138.731 249.5 139.515 249.055 140.101C248.609 140.683 248.012 140.974 247.262 140.974C246.566 140.974 246.01 140.745 245.592 140.288V143.294H244.168V134.517H245.48L245.539 135.161C245.957 134.653 246.525 134.399 247.244 134.399C248.018 134.399 248.623 134.688 249.061 135.267C249.502 135.841 249.723 136.64 249.723 137.663V137.751ZM248.305 137.628C248.305 136.995 248.178 136.493 247.924 136.122C247.674 135.751 247.314 135.565 246.846 135.565C246.264 135.565 245.846 135.806 245.592 136.286V139.099C245.85 139.591 246.271 139.837 246.857 139.837C247.311 139.837 247.664 139.655 247.918 139.292C248.176 138.925 248.305 138.37 248.305 137.628ZM252.717 132.976V134.517H253.836V135.571H252.717V139.11C252.717 139.353 252.764 139.528 252.857 139.638C252.955 139.743 253.127 139.796 253.373 139.796C253.537 139.796 253.703 139.776 253.871 139.737V140.839C253.547 140.929 253.234 140.974 252.934 140.974C251.84 140.974 251.293 140.37 251.293 139.163V135.571H250.25V134.517H251.293V132.976H252.717ZM256.443 140.856H255.02V134.517H256.443V140.856ZM254.932 132.87C254.932 132.651 255 132.47 255.137 132.325C255.277 132.181 255.477 132.108 255.734 132.108C255.992 132.108 256.191 132.181 256.332 132.325C256.473 132.47 256.543 132.651 256.543 132.87C256.543 133.085 256.473 133.265 256.332 133.409C256.191 133.55 255.992 133.62 255.734 133.62C255.477 133.62 255.277 133.55 255.137 133.409C255 133.265 254.932 133.085 254.932 132.87ZM257.732 137.628C257.732 137.007 257.855 136.448 258.102 135.952C258.348 135.452 258.693 135.069 259.139 134.804C259.584 134.534 260.096 134.399 260.674 134.399C261.529 134.399 262.223 134.675 262.754 135.226C263.289 135.776 263.578 136.507 263.621 137.417L263.627 137.751C263.627 138.376 263.506 138.935 263.264 139.427C263.025 139.919 262.682 140.3 262.232 140.569C261.787 140.839 261.271 140.974 260.686 140.974C259.791 140.974 259.074 140.677 258.535 140.083C258 139.485 257.732 138.69 257.732 137.698V137.628ZM259.156 137.751C259.156 138.403 259.291 138.915 259.561 139.286C259.83 139.653 260.205 139.837 260.686 139.837C261.166 139.837 261.539 139.649 261.805 139.274C262.074 138.899 262.209 138.351 262.209 137.628C262.209 136.987 262.07 136.479 261.793 136.104C261.52 135.729 261.146 135.542 260.674 135.542C260.209 135.542 259.84 135.728 259.566 136.099C259.293 136.466 259.156 137.017 259.156 137.751ZM266.152 134.517L266.193 135.249C266.662 134.683 267.277 134.399 268.039 134.399C269.359 134.399 270.031 135.155 270.055 136.667V140.856H268.631V136.749C268.631 136.347 268.543 136.05 268.367 135.858C268.195 135.663 267.912 135.565 267.518 135.565C266.943 135.565 266.516 135.825 266.234 136.345V140.856H264.811V134.517H266.152ZM277.771 137.569H276.119V140.856H274.637V132.325H277.637C278.621 132.325 279.381 132.546 279.916 132.987C280.451 133.429 280.719 134.067 280.719 134.903C280.719 135.474 280.58 135.952 280.303 136.339C280.029 136.722 279.646 137.017 279.154 137.224L281.07 140.78V140.856H279.482L277.771 137.569ZM276.119 136.38H277.643C278.143 136.38 278.533 136.255 278.814 136.005C279.096 135.751 279.236 135.405 279.236 134.968C279.236 134.511 279.105 134.157 278.844 133.907C278.586 133.657 278.199 133.528 277.684 133.521H276.119V136.38ZM284.779 140.974C283.877 140.974 283.145 140.69 282.582 140.124C282.023 139.554 281.744 138.796 281.744 137.851V137.675C281.744 137.042 281.865 136.478 282.107 135.981C282.354 135.481 282.697 135.093 283.139 134.815C283.58 134.538 284.072 134.399 284.615 134.399C285.479 134.399 286.145 134.675 286.613 135.226C287.086 135.776 287.322 136.556 287.322 137.563V138.138H283.18C283.223 138.661 283.396 139.075 283.701 139.38C284.01 139.685 284.396 139.837 284.861 139.837C285.514 139.837 286.045 139.573 286.455 139.046L287.223 139.778C286.969 140.157 286.629 140.452 286.203 140.663C285.781 140.87 285.307 140.974 284.779 140.974ZM284.609 135.542C284.219 135.542 283.902 135.679 283.66 135.952C283.422 136.226 283.27 136.606 283.203 137.095H285.916V136.989C285.885 136.513 285.758 136.153 285.535 135.911C285.312 135.665 285.004 135.542 284.609 135.542ZM289.754 134.517L289.795 135.249C290.264 134.683 290.879 134.399 291.641 134.399C292.961 134.399 293.633 135.155 293.656 136.667V140.856H292.232V136.749C292.232 136.347 292.145 136.05 291.969 135.858C291.797 135.663 291.514 135.565 291.119 135.565C290.545 135.565 290.117 135.825 289.836 136.345V140.856H288.412V134.517H289.754ZM297.904 140.974C297.002 140.974 296.27 140.69 295.707 140.124C295.148 139.554 294.869 138.796 294.869 137.851V137.675C294.869 137.042 294.99 136.478 295.232 135.981C295.479 135.481 295.822 135.093 296.264 134.815C296.705 134.538 297.197 134.399 297.74 134.399C298.604 134.399 299.27 134.675 299.738 135.226C300.211 135.776 300.447 136.556 300.447 137.563V138.138H296.305C296.348 138.661 296.521 139.075 296.826 139.38C297.135 139.685 297.521 139.837 297.986 139.837C298.639 139.837 299.17 139.573 299.58 139.046L300.348 139.778C300.094 140.157 299.754 140.452 299.328 140.663C298.906 140.87 298.432 140.974 297.904 140.974ZM297.734 135.542C297.344 135.542 297.027 135.679 296.785 135.952C296.547 136.226 296.395 136.606 296.328 137.095H299.041V136.989C299.01 136.513 298.883 136.153 298.66 135.911C298.438 135.665 298.129 135.542 297.734 135.542ZM307.127 138.894L308.135 134.517H309.523L307.795 140.856H306.623L305.264 136.503L303.928 140.856H302.756L301.021 134.517H302.41L303.436 138.847L304.736 134.517H305.809L307.127 138.894ZM313.268 140.974C312.365 140.974 311.633 140.69 311.07 140.124C310.512 139.554 310.232 138.796 310.232 137.851V137.675C310.232 137.042 310.354 136.478 310.596 135.981C310.842 135.481 311.186 135.093 311.627 134.815C312.068 134.538 312.561 134.399 313.104 134.399C313.967 134.399 314.633 134.675 315.102 135.226C315.574 135.776 315.811 136.556 315.811 137.563V138.138H311.668C311.711 138.661 311.885 139.075 312.189 139.38C312.498 139.685 312.885 139.837 313.35 139.837C314.002 139.837 314.533 139.573 314.943 139.046L315.711 139.778C315.457 140.157 315.117 140.452 314.691 140.663C314.27 140.87 313.795 140.974 313.268 140.974ZM313.098 135.542C312.707 135.542 312.391 135.679 312.148 135.952C311.91 136.226 311.758 136.606 311.691 137.095H314.404V136.989C314.373 136.513 314.246 136.153 314.023 135.911C313.801 135.665 313.492 135.542 313.098 135.542ZM316.654 137.64C316.654 136.663 316.881 135.88 317.334 135.29C317.787 134.696 318.395 134.399 319.156 134.399C319.828 134.399 320.371 134.634 320.785 135.103V131.856H322.209V140.856H320.92L320.85 140.2C320.424 140.716 319.855 140.974 319.145 140.974C318.402 140.974 317.801 140.675 317.34 140.077C316.883 139.479 316.654 138.667 316.654 137.64ZM318.078 137.763C318.078 138.407 318.201 138.911 318.447 139.274C318.697 139.634 319.051 139.813 319.508 139.813C320.09 139.813 320.516 139.554 320.785 139.034V136.327C320.523 135.819 320.102 135.565 319.52 135.565C319.059 135.565 318.703 135.749 318.453 136.116C318.203 136.479 318.078 137.028 318.078 137.763Z" fill="#181818"/>
<path d="M63.9459 91C63.7726 90.7319 63.621 90.5755 63.5561 90.3968C62.7332 88.1179 61.9319 85.839 61.1307 83.5601C60.8925 82.8898 60.6543 82.1972 60.4377 81.5046C60.2428 80.9014 59.9397 80.3875 59.3333 80.1641C58.2939 79.7843 57.2761 79.4045 56.2367 79.0023C55.0456 78.5555 53.8763 78.0863 52.7069 77.6394C51.9923 77.3713 51.2776 77.1479 50.563 76.8575C50.3465 76.7681 50.1949 76.5447 50 76.3659C50.1949 76.2096 50.3465 75.9638 50.563 75.8968C51.7541 75.4276 52.9667 74.9807 54.1578 74.5339C55.2622 74.1094 56.3449 73.7072 57.4493 73.2827C58.0557 73.0593 58.662 72.8359 59.29 72.6125C59.8097 72.4114 60.1562 72.0539 60.3511 71.5177C60.7193 70.4676 61.0874 69.4176 61.4555 68.3898C62.0619 66.7142 62.6682 65.0162 63.2746 63.3405C63.3828 63.0277 63.4261 62.6926 63.5777 62.3798C63.6643 62.2011 63.8592 62 64.0108 62C64.1624 62 64.3573 62.2234 64.4223 62.4022C65.2452 64.681 66.0464 66.9599 66.8693 69.2388C67.1075 69.9314 67.3457 70.6464 67.5839 71.339C67.7788 71.9646 68.1036 72.4114 68.7316 72.6348C70.2908 73.1934 71.85 73.7743 73.4091 74.3775C74.5135 74.802 75.6179 75.2488 76.744 75.6733C77.0255 75.7851 77.3503 75.8297 77.6102 75.9638C77.7834 76.0532 78 76.2319 78 76.3883C78 76.5223 77.7834 76.7681 77.6319 76.8128C74.9033 77.8852 72.1964 78.8906 69.4896 79.9183C69.3813 79.963 69.2514 80.0077 69.1214 80.03C68.2119 80.2311 67.7355 80.7897 67.454 81.728C67.1075 82.9345 66.6094 84.0963 66.198 85.2804C65.8082 86.3975 65.3968 87.4923 65.007 88.6094C64.7904 89.235 64.5955 89.8829 64.3573 90.5085C64.3357 90.6425 64.1624 90.7766 63.9459 91Z" fill="#93E6CF"/>
<path d="M430.452 319C430.297 318.76 430.162 318.619 430.104 318.459C429.369 316.416 428.654 314.373 427.938 312.33C427.725 311.729 427.513 311.108 427.319 310.487C427.145 309.946 426.875 309.485 426.333 309.285C425.405 308.945 424.497 308.604 423.568 308.243C422.505 307.843 421.461 307.422 420.417 307.022C419.779 306.781 419.141 306.581 418.503 306.32C418.309 306.24 418.174 306.04 418 305.88C418.174 305.74 418.309 305.519 418.503 305.459C419.566 305.039 420.649 304.638 421.712 304.237C422.698 303.857 423.665 303.496 424.651 303.116C425.193 302.915 425.734 302.715 426.295 302.515C426.759 302.334 427.068 302.014 427.242 301.533C427.571 300.592 427.899 299.65 428.228 298.729C428.77 297.227 429.311 295.704 429.852 294.202C429.949 293.921 429.988 293.621 430.123 293.341C430.2 293.18 430.374 293 430.51 293C430.645 293 430.819 293.2 430.877 293.361C431.612 295.404 432.327 297.447 433.062 299.49C433.275 300.111 433.487 300.752 433.7 301.373C433.874 301.934 434.164 302.334 434.725 302.535C436.117 303.035 437.509 303.556 438.901 304.097C439.887 304.478 440.873 304.878 441.879 305.259C442.13 305.359 442.42 305.399 442.652 305.519C442.807 305.599 443 305.76 443 305.9C443 306.02 442.807 306.24 442.671 306.28C440.235 307.242 437.818 308.143 435.401 309.065C435.305 309.105 435.189 309.145 435.073 309.165C434.261 309.345 433.835 309.846 433.584 310.687C433.275 311.769 432.83 312.81 432.462 313.872C432.114 314.874 431.747 315.855 431.399 316.857C431.206 317.418 431.032 317.998 430.819 318.559C430.8 318.68 430.645 318.8 430.452 319Z" fill="#0084FF"/>
<circle cx="352" cy="252" r="8" fill="#FFD12D"/>
<defs>
<linearGradient id="paint0_linear" x1="90.5" y1="178" x2="90.5" y2="214.726" gradientUnits="userSpaceOnUse">
<stop stop-color="#2AABEE"/>
<stop offset="1" stop-color="#229ED9"/>
</linearGradient>
</defs>
</svg>
