<svg xmlns="http://www.w3.org/2000/svg" width="100" height="100" fill="none" viewBox="0 0 100 100">
    <path fill="#BD86C1" fill-rule="evenodd" d="M50 100c27.614 0 50-22.386 50-50S77.614 0 50 0 0 22.386 0 50s22.386 50 50 50z" clip-rule="evenodd"/>
    <path stroke="#fff" stroke-linecap="round" stroke-linejoin="round" stroke-miterlimit="10" stroke-width="2" d="M67.526 61.728a31.808 31.808 0 0 0 2.907-2.814c7.099-7.907 5.447-18.903-1.3-23.567-3.673-2.54-11.4-4.665-19.171 2.584h.06c-7.772-7.249-15.498-5.123-19.17-2.6-6.732 4.665-8.384 15.661-1.285 23.583 6.732 7.51 20.471 13.474 20.471 13.474h-.061s3.182-1.377 7.237-3.655"/>
</svg>
