<svg xmlns="http://www.w3.org/2000/svg" width="100" height="100" fill="none" viewBox="0 0 100 100">
    <g clip-path="url(#a)">
        <path fill="#fff" d="M-1050-830H390v2704h-1440z"/>
        <path fill="#FB6EA4" fill-rule="evenodd" d="M50 100c27.614 0 50-22.386 50-50S77.614 0 50 0 0 22.386 0 50s22.386 50 50 50z" clip-rule="evenodd"/>
        <path stroke="#fff" stroke-linecap="round" stroke-linejoin="round" stroke-miterlimit="10" stroke-width="1.5" d="M42.133 36.506c1.5-.727 3.5.091 4.546 1.955m-10.5-1.818c.818-.455 1.636-.682 2.454-.819m30.41 33.819c1.5.818 1.909 2.954 1 4.818m-4.546-9.637c.545.273 1.045.591 1.454.955M22.315 38.188c.864 1.59.364 3.5-1.136 4.318-1.5.818-3.41.182-4.227-1.409-.819-1.59-.91-4.59.545-5.409 1.455-.773 3.955.91 4.818 2.5zm6.41-10.136c.954 1.818.363 4-1.319 4.909-1.682.909-3.818.182-4.772-1.591-.955-1.773-.91-4.955.772-5.864 1.682-.909 4.364.773 5.318 2.546zm8.863-4.773c.955 1.773.41 3.954-1.273 4.864-1.681.909-3.818.181-4.772-1.591-.955-1.773-.91-4.955.772-5.864 1.637-.864 4.273.818 5.273 2.591zm11.136.273c.864 1.59.364 3.5-1.136 4.318-1.5.818-3.409.182-4.227-1.41-.864-1.59-.773-4.272.727-5.09 1.455-.773 3.773.636 4.636 2.182zm-5.909 9.909c-2.318-1.637-6.09-1.637-9.5.227-3.409 1.864-5.454 5-5.363 7.864-2.319 1.363-2.91 4.818-1.319 7.772 1.637 3 4.955 4.41 7.364 3.091 1.91-1.045 2.136-3.136 6.455-5.454 4.318-2.318 6.227-1.41 8.136-2.41 2.454-1.318 3.09-4.818 1.454-7.863-1.636-3.09-4.818-4.455-7.227-3.227zM56.27 54.37c-.818 1.59-2.682 2.273-4.182 1.545-1.5-.727-2.09-2.681-1.273-4.272.819-1.591 3.228-3.41 4.728-2.637 1.545.727 1.545 3.727.727 5.364zm12-.546c-.91 1.819-3.046 2.591-4.727 1.728-1.682-.864-2.364-3-1.455-4.819.909-1.818 3.545-3.59 5.227-2.727 1.682.864 1.864 4 .955 5.818zm9 4.5c-.91 1.819-3.046 2.591-4.727 1.728-1.682-.864-2.41-3-1.5-4.819.909-1.818 3.545-3.59 5.227-2.727 1.727.864 1.909 4 1 5.818zm6.136 9.319c-.818 1.59-2.682 2.272-4.182 1.545-1.5-.773-2.09-2.682-1.273-4.273.819-1.59 3.092-3.045 4.592-2.318 1.454.773 1.636 3.455.863 5.046zm-11.5.818c0-2.818-2.136-5.955-5.59-7.682-3.455-1.727-7.228-1.591-9.5.09-2.455-1.136-5.637.364-7.137 3.365-1.546 3.045-.773 6.545 1.682 7.818 1.909.954 3.818-.046 8.181 2.181 4.364 2.228 4.728 4.319 6.637 5.273 2.5 1.228 5.727-.227 7.273-3.318 1.545-3.045.818-6.454-1.546-7.727z"/>
    </g>
    <defs>
        <clipPath id="a">
            <path fill="#fff" d="M0 0h1440v2704H0z" transform="translate(-1050 -830)"/>
        </clipPath>
    </defs>
</svg>
