<svg xmlns="http://www.w3.org/2000/svg" width="100" height="100" fill="none" viewBox="0 0 100 100">
    <g clip-path="url(#a)">
        <path fill="#fff" d="M-669-830H771v2704H-669z"/>
        <path fill="#52AEA2" fill-rule="evenodd" d="M50 100c27.614 0 50-22.386 50-50S77.614 0 50 0 0 22.386 0 50s22.386 50 50 50z" clip-rule="evenodd"/>
        <path stroke="#fff" stroke-linecap="round" stroke-linejoin="round" stroke-miterlimit="10" stroke-width="1.5" d="M47.013 24.09c-.728 1.456-1.773 3.137-3.273 4.955-5.364 6.637 3.045 13.364 3.045 13.364m3.591 1.046c3-2 4.819-4.182 5.773-6.41 4.182-9.636-7.59-20.227-7.59-20.227s.226.818.045 2.318m26.909 30.228c-1.41 6.409-5.728 14.681-18.728 15.409-.909.272-5.863 1.5-6.59 7.045m5-9.682c-1.91-7.454.545-13.454 7.545-14.863 8.545-1.728 13.318-5.546 13.318-5.546s.091.864.046 2.228m-8.137 13.272c-2.227 2.637-5.59 5.455-10.454 7.227m14.136-13.863c.136 0-.091.954-.773 2.364m-46.227.909c1.364 6.454 5.682 14.772 18.773 15.5.909.272 5.863 1.5 6.59 7.045m-5.136-10.182c.5-7.682-.409-12.909-7.409-14.363-8.545-1.728-13.318-5.546-13.318-5.546s-.09.955-.046 2.455m8.864 13c2.318 2.727 5.591 5.681 9.773 7.454M28.649 55.41s.454.91 1.318 2.318m19.955-14.136v35.09m2.818-48.59c.954 4.273.954 8.636-2.818 13.545m.909-20.182c.227.819.5 1.637.727 2.455m-7.227 55.91c-.318.363-.591.726-.864 1.135a3.828 3.828 0 0 0-3.364-2c-1.5 0-2.818.864-3.454 2.137m11.318-3.455a6.997 6.997 0 0 1 1.955-.272c2.681 0 5.09 1.454 6.409 3.59.363-.681.954-1.227 1.636-1.59m5.318 1.954a3.62 3.62 0 0 0-1.409-1.682c-.636-.409-1.363-.681-2.136-.681"/>
    </g>
    <defs>
        <clipPath id="a">
            <path fill="#fff" d="M0 0h1440v2704H0z" transform="translate(-669 -830)"/>
        </clipPath>
    </defs>
</svg>
