<svg xmlns="http://www.w3.org/2000/svg" width="100" height="100" fill="none" viewBox="0 0 100 100">
    <g clip-path="url(#a)">
        <path fill="#fff" d="M-1050-1154H390v2704h-1440z"/>
        <path fill="#BD86C1" fill-rule="evenodd" d="M50 100c27.614 0 50-22.386 50-50S77.614 0 50 0 0 22.386 0 50s22.386 50 50 50z" clip-rule="evenodd"/>
        <path stroke="#fff" stroke-linecap="round" stroke-linejoin="round" stroke-miterlimit="10" stroke-width="2" d="M36.025 59.864s-3.228-1.819-4.682-3.637c-4.273-7.863-8.046-6.863-9.182-6.909-4.318-.182.545 5.273 3.727 11.637 1.136 2.272 7.455 6.59 10.91 9.227 3.136 2.409 6.09 4.09 10.772 5 3.182.59 14.864-1.182 20.545-1 3.455.09 9.182 3.682 9.182 3.682l7.864-10.728s-12.318-9.181-17.864-10.59c-3.5-.864-7.454-.364-11.136 1-2.273.863-3.636 1.272-6.682 1.272-2.727 0-4.954-.045-6.545-.318-3.5-.636-7.955-.045-6.228 2.864 1.182 1.954 2.682 3.182 7.682 3.772 6.41.773 13.637.455 13.637.455M28.16 51.09s2.273-.773 4.545 1.227c1.364 1.182 3.955 4.227 6.228 5.773m4.954-16.773c-.227.637-.409 1.273-.409 1.773A5.804 5.804 0 0 0 46.161 48m1-12.273c-.5.682-1 1.455-1.5 2.228M58.57 43c0 5-4.045 9-9 9s-9-4.045-9-9 9-15.727 9-15.727 9 10.727 9 15.727z"/>
    </g>
    <defs>
        <clipPath id="a">
            <path fill="#fff" d="M0 0h1440v2704H0z" transform="translate(-1050 -1154)"/>
        </clipPath>
    </defs>
</svg>
