<svg xmlns="http://www.w3.org/2000/svg" width="100" height="100" fill="none" viewBox="0 0 100 100">
    <path fill="#FB6EA4" fill-rule="evenodd" d="M50 100c27.614 0 50-22.386 50-50S77.614 0 50 0 0 22.386 0 50s22.386 50 50 50z" clip-rule="evenodd"/>
    <g stroke="#fff" stroke-linecap="round" stroke-linejoin="round" stroke-miterlimit="10" stroke-width="2" clip-path="url(#a)">
        <path d="M51.014 50.693L67.6 34.653M66.987 25.24c-3.167 4.107.506 9.367.506 9.367L68 34.52c2.306-.553 3.913-1.493 5.013-2.653 4.747-5.027-.16-14.2-.16-14.2s-.4 1.12-2.033 3.233M76.3 32.513c3.173.06 6.313 2.414 6.313 2.414s-1.706.333-5.133 2.813c-3.18 2.307-6.627-.98-6.627-.98M56.56 50.827a5.79 5.79 0 0 1-5.787 5.786 5.79 5.79 0 0 1-5.787-5.786 5.79 5.79 0 0 1 5.787-5.787M31.347 54.74A19.747 19.747 0 0 1 31 51.053c0-10.72 8.687-19.406 19.407-19.406 3.626 0 7.02.993 9.92 2.726M45.007 69.7c1.713.493 3.526.76 5.4.76 10.72 0 19.406-8.687 19.406-19.407 0-3.44-.893-6.673-2.466-9.473M39.067 66.807a19.776 19.776 0 0 1-2.934-2.6 19.323 19.323 0 0 1-2.46-3.314"/>
    </g>
    <defs>
        <clipPath id="a">
            <path fill="#fff" d="M0 0h53.613v54.793H0z" transform="translate(30 16.667)"/>
        </clipPath>
    </defs>
</svg>
