<svg width="92" height="92" viewBox="0 0 92 92" fill="none" xmlns="http://www.w3.org/2000/svg">
<path d="M31.0599 61.6901C30.5295 61.6901 30.0208 61.9008 29.6457 62.2759C29.2707 62.6509 29.0599 63.1596 29.0599 63.6901V71.6901C29.0599 72.2205 29.2707 72.7292 29.6457 73.1043C30.0208 73.4794 30.5295 73.6901 31.0599 73.6901C31.5904 73.6901 32.0991 73.4794 32.4742 73.1043C32.8492 72.7292 33.0599 72.2205 33.0599 71.6901V63.6901C33.0599 63.4274 33.0082 63.1674 32.9077 62.9247C32.8072 62.682 32.6599 62.4616 32.4742 62.2759C32.2884 62.0901 32.068 61.9428 31.8253 61.8423C31.5827 61.7418 31.3226 61.6901 31.0599 61.6901Z" fill="#0084FF"/>
<path d="M42.37 48.8999C41.8396 48.8999 41.3309 49.1106 40.9558 49.4857C40.5807 49.8608 40.37 50.3695 40.37 50.8999V71.6899C40.37 72.2204 40.5807 72.7291 40.9558 73.1041C41.3309 73.4792 41.8396 73.6899 42.37 73.6899C42.9004 73.6899 43.4091 73.4792 43.7842 73.1041C44.1593 72.7291 44.37 72.2204 44.37 71.6899V50.8999C44.37 50.3695 44.1593 49.8608 43.7842 49.4857C43.4091 49.1106 42.9004 48.8999 42.37 48.8999Z" fill="#0084FF"/>
<path d="M65.0001 73.6902C65.5306 73.6902 66.0393 73.4795 66.4143 73.1044C66.7894 72.7293 67.0001 72.2206 67.0001 71.6902V31.6902C67.0001 31.1598 66.7894 30.651 66.4143 30.276C66.0393 29.9009 65.5306 29.6902 65.0001 29.6902C64.4697 29.6902 63.961 29.9009 63.5859 30.276C63.2108 30.651 63.0001 31.1598 63.0001 31.6902V71.6902C63.0001 72.2206 63.2108 72.7293 63.5859 73.1044C63.961 73.4795 64.4697 73.6902 65.0001 73.6902Z" fill="#0084FF"/>
<path d="M51.6901 59.7201V71.7201C51.6901 72.2505 51.9008 72.7592 52.2759 73.1343C52.6509 73.5093 53.1596 73.7201 53.6901 73.7201C54.2205 73.7201 54.7292 73.5093 55.1043 73.1343C55.4794 72.7592 55.6901 72.2505 55.6901 71.7201V59.7201C55.6901 59.1896 55.4794 58.6809 55.1043 58.3058C54.7292 57.9308 54.2205 57.7201 53.6901 57.7201C53.1596 57.7201 52.6509 57.9308 52.2759 58.3058C51.9008 58.6809 51.6901 59.1896 51.6901 59.7201Z" fill="#0084FF"/>
<path d="M30 32.24C31.5943 34.0332 33.6845 35.3132 36.0064 35.9183C38.3282 36.5234 40.7774 36.4262 43.044 35.6392C45.3107 34.8521 47.293 33.4106 48.7403 31.4968C50.1875 29.583 51.0347 27.2829 51.1746 24.8876C51.3145 22.4923 50.7409 20.1093 49.5263 18.04C48.3117 15.9707 46.5107 14.3082 44.3511 13.2626C42.1915 12.217 39.7703 11.8354 37.3938 12.166C35.0173 12.4966 32.7922 13.5246 31 15.12C29.7955 16.1689 28.8125 17.4478 28.1087 18.8816C27.4048 20.3154 26.9943 21.8753 26.9012 23.4698C26.808 25.0643 27.0341 26.6614 27.5663 28.1674C28.0984 29.6733 28.9258 31.058 30 32.24Z" fill="#EDF3FF"/>
<path d="M75.17 16.83H52.27C51.7409 15.8893 51.1177 15.0048 50.41 14.19C47.7485 11.1889 44.0062 9.36489 40.0026 9.11748C35.9991 8.87007 32.0606 10.2194 29.05 12.87C27.7659 14.0087 26.6898 15.3623 25.87 16.87H20.87C18.7134 16.8778 16.6469 17.736 15.1192 19.2581C13.5915 20.7802 12.7257 22.8435 12.71 25V41.6L7.57996 46.14C7.17881 46.491 6.85186 46.9186 6.61831 47.3977C6.38476 47.8768 6.24932 48.3978 6.21996 48.93C6.15052 50.0038 6.51019 51.0612 7.21996 51.87L7.66996 52.38C8.38313 53.185 9.38654 53.6741 10.46 53.74H10.72C11.4212 53.739 12.1102 53.5564 12.72 53.21V74.21C12.7226 76.3787 13.5853 78.4577 15.1187 79.9912C16.6522 81.5247 18.7313 82.3874 20.9 82.39H75.17C77.3386 82.3874 79.4177 81.5247 80.9512 79.9912C82.4846 78.4577 83.3473 76.3787 83.35 74.21V25C83.3447 22.8331 82.4808 20.7566 80.9476 19.2252C79.4145 17.6939 77.3369 16.8326 75.17 16.83ZM31 15.12C32.7922 13.5246 35.0172 12.4966 37.3937 12.166C39.7703 11.8354 42.1914 12.217 44.351 13.2626C46.5107 14.3082 48.3116 15.9707 49.5262 18.04C50.7408 20.1093 51.3144 22.4923 51.1745 24.8876C51.0346 27.2829 50.1875 29.583 48.7402 31.4968C47.293 33.4106 45.3107 34.8521 43.044 35.6392C40.7774 36.4262 38.3282 36.5234 36.0063 35.9183C33.6845 35.3132 31.5942 34.0332 30 32.24C28.9358 31.053 28.1171 29.6671 27.5911 28.1622C27.065 26.6574 26.8421 25.0632 26.935 23.4718C27.028 21.8803 27.435 20.323 28.1327 18.8896C28.8303 17.4562 29.8048 16.175 31 15.12ZM15.71 25C15.71 24.86 15.71 24.72 15.71 24.58C15.8112 23.3424 16.3553 22.1827 17.2425 21.3139C18.1297 20.445 19.3005 19.9253 20.54 19.85C20.6432 19.8447 20.7467 19.8447 20.85 19.85H24.6C23.9253 22.0732 23.7711 24.4218 24.1491 26.7141C24.5271 29.0064 25.4273 31.1811 26.78 33.07L22.19 37.1C21.4551 36.6324 20.5877 36.4175 19.7195 36.4879C18.8514 36.5583 18.0299 36.9102 17.38 37.49L15.71 39V25ZM11.42 50.48C11.3158 50.5736 11.1941 50.6457 11.062 50.6921C10.9298 50.7384 10.7898 50.7581 10.65 50.75C10.3693 50.7288 10.1077 50.5998 9.91996 50.39L9.46996 49.88C9.3781 49.7751 9.30785 49.653 9.26323 49.5209C9.21861 49.3888 9.20051 49.2491 9.20996 49.11C9.2168 48.9716 9.25234 48.8361 9.31431 48.7122C9.37628 48.5882 9.46334 48.4785 9.56996 48.39L19.36 39.74C19.5531 39.5685 19.8017 39.4726 20.06 39.47H20.13C20.2676 39.4756 20.4026 39.5096 20.5265 39.5698C20.6504 39.63 20.7605 39.7152 20.85 39.82L21.3 40.33C21.3993 40.43 21.4764 40.5498 21.5262 40.6817C21.576 40.8136 21.5973 40.9545 21.5888 41.0952C21.5803 41.2359 21.5422 41.3732 21.4769 41.4981C21.4116 41.623 21.3206 41.7327 21.21 41.82L11.42 50.48ZM80.35 25.17V74.17C80.3473 75.543 79.8007 76.859 78.8298 77.8299C77.859 78.8008 76.543 79.3474 75.17 79.35H20.89C20.7867 79.3553 20.6832 79.3553 20.58 79.35C19.3405 79.2747 18.1697 78.755 17.2825 77.8861C16.3953 77.0173 15.8512 75.8577 15.75 74.62C15.75 74.48 15.75 74.35 15.75 74.2V50.69L23.24 44.08C23.8999 43.5087 24.3549 42.7372 24.5354 41.8832C24.716 41.0292 24.6122 40.1395 24.24 39.35L28.83 35.3C31.3858 37.6814 34.6926 39.0961 38.18 39.3H39.18C43.0036 39.2703 46.6744 37.7949 49.455 35.1701C52.2356 32.5453 53.92 28.9656 54.17 25.15C54.2749 23.3534 54.0616 21.5524 53.54 19.83H75.17C76.5412 19.8326 77.8558 20.3779 78.8263 21.3466C79.7969 22.3153 80.3447 23.6287 80.35 25V25.17Z" fill="#181818"/>
</svg>
