<svg width="92" height="92" viewBox="0 0 92 92" fill="none" xmlns="http://www.w3.org/2000/svg">
<path d="M71.3801 7.0598C68.6515 7.05792 66.0151 8.04783 63.9621 9.84519C61.909 11.6426 60.5791 14.1248 60.2202 16.8298H69.7401C71.9071 16.8324 73.9846 17.6937 75.5178 19.225C77.051 20.7564 77.9149 22.8329 77.9201 24.9998V27.4798C79.86 26.093 81.3095 24.1263 82.0598 21.8628C82.8101 19.5994 82.8225 17.1563 82.0952 14.8854C81.3678 12.6144 79.9384 10.6331 78.0127 9.2267C76.0871 7.82033 73.7647 7.06159 71.3801 7.0598Z" fill="#0084FF"/>
<path d="M74.92 25C74.92 23.6262 74.3743 22.3086 73.4029 21.3372C72.4314 20.3657 71.1139 19.82 69.74 19.82H15.46C14.087 19.8226 12.771 20.3692 11.8001 21.3401C10.8293 22.311 10.2827 23.627 10.28 25V31.71H74.92V25ZM17.5 28C17.0803 28.002 16.6695 27.8793 16.3195 27.6476C15.9696 27.4158 15.6963 27.0854 15.5343 26.6982C15.3723 26.311 15.3289 25.8844 15.4096 25.4725C15.4902 25.0607 15.6913 24.682 15.9874 24.3845C16.2835 24.087 16.6612 23.8841 17.0727 23.8015C17.4843 23.7189 17.911 23.7603 18.299 23.9204C18.687 24.0806 19.0186 24.3523 19.252 24.7011C19.4854 25.05 19.61 25.4603 19.61 25.88C19.61 26.4405 19.3881 26.9782 18.9926 27.3755C18.5972 27.7728 18.0606 27.9973 17.5 28ZM24.7 28C24.2803 28.002 23.8695 27.8793 23.5195 27.6476C23.1696 27.4158 22.8963 27.0854 22.7343 26.6982C22.5723 26.311 22.5289 25.8844 22.6096 25.4725C22.6902 25.0607 22.8913 24.682 23.1874 24.3845C23.4835 24.087 23.8612 23.8841 24.2727 23.8015C24.6843 23.7189 25.111 23.7603 25.499 23.9204C25.887 24.0806 26.2186 24.3523 26.452 24.7011C26.6854 25.05 26.81 25.4603 26.81 25.88C26.81 26.4405 26.5881 26.9782 26.1926 27.3755C25.7972 27.7728 25.2606 27.9973 24.7 28ZM31.9 28C31.4795 28.0039 31.0673 27.8827 30.7158 27.6518C30.3643 27.4208 30.0895 27.0905 29.9262 26.7029C29.763 26.3153 29.7188 25.8879 29.7991 25.4751C29.8794 25.0623 30.0808 24.6827 30.3774 24.3846C30.6741 24.0865 31.0528 23.8834 31.4652 23.8011C31.8776 23.7188 32.3052 23.761 32.6936 23.9224C33.082 24.0838 33.4136 24.357 33.6462 24.7074C33.8788 25.0578 34.002 25.4694 34 25.89C33.9974 26.4471 33.7757 26.9807 33.3827 27.3756C32.9897 27.7704 32.4571 27.9947 31.9 28Z" fill="#EDF3FF"/>
<path d="M50.1101 65.38C50.2977 65.5964 50.5296 65.77 50.7901 65.889C51.0506 66.0081 51.3336 66.0698 51.6201 66.07C52.1015 66.0696 52.5666 65.8956 52.9301 65.58L62.5801 57.2C62.7929 57.0123 62.9633 56.7815 63.0801 56.5228C63.1968 56.2642 63.2572 55.9837 63.2572 55.7C63.2572 55.4162 63.1968 55.1357 63.0801 54.8771C62.9633 54.6185 62.7929 54.3877 62.5801 54.2L52.9301 45.81C52.526 45.518 52.0274 45.3875 51.532 45.444C51.0367 45.5005 50.5803 45.74 50.2523 46.1155C49.9244 46.491 49.7485 46.9755 49.7592 47.4739C49.7699 47.9724 49.9663 48.4488 50.3101 48.81L58.2201 55.69L50.3101 62.56C49.9098 62.9075 49.6639 63.3998 49.6264 63.9286C49.5889 64.4574 49.7629 64.9794 50.1101 65.38Z" fill="#0084FF"/>
<path d="M30.92 65.5801C31.2834 65.8958 31.7485 66.0697 32.23 66.0701C32.6374 66.0698 33.035 65.9451 33.3696 65.7126C33.7042 65.4802 33.9598 65.1511 34.1023 64.7694C34.2447 64.3877 34.2672 63.9716 34.1667 63.5768C34.0662 63.182 33.8476 62.8272 33.54 62.5601L25.63 55.6901L33.54 48.8101C33.7654 48.6472 33.9544 48.439 34.0949 48.1989C34.2354 47.9588 34.3242 47.6921 34.3557 47.4157C34.3873 47.1393 34.3608 46.8594 34.278 46.5938C34.1953 46.3283 34.058 46.0829 33.875 45.8734C33.6921 45.6639 33.4674 45.4948 33.2154 45.3771C32.9634 45.2593 32.6896 45.1954 32.4115 45.1894C32.1334 45.1835 31.8571 45.2356 31.6003 45.3425C31.3434 45.4493 31.1117 45.6086 30.92 45.8101L21.27 54.2001C21.0571 54.3878 20.8867 54.6186 20.77 54.8772C20.6532 55.1358 20.5928 55.4163 20.5928 55.7001C20.5928 55.9838 20.6532 56.2643 20.77 56.523C20.8867 56.7816 21.0571 57.0124 21.27 57.2001L30.92 65.5801Z" fill="#0084FF"/>
<path d="M38.7302 72.1101C38.8664 72.1249 39.0039 72.1249 39.1402 72.1101C39.6067 72.12 40.0619 71.9664 40.4272 71.6761C40.7924 71.3857 41.0446 70.9768 41.1402 70.5201L47.1402 41.7801C47.2466 41.2617 47.1433 40.7222 46.8527 40.2798C46.5622 39.8375 46.1082 39.5283 45.5902 39.4201C45.3314 39.3677 45.0648 39.3671 44.8058 39.4184C44.5468 39.4696 44.3004 39.5716 44.081 39.7184C43.8616 39.8653 43.6735 40.0542 43.5275 40.2742C43.3814 40.4941 43.2804 40.7409 43.2302 41.0001L37.2302 69.7401C37.1194 70.2529 37.2145 70.7888 37.4951 71.2321C37.7757 71.6754 38.2193 71.9907 38.7302 72.1101Z" fill="#0084FF"/>
<path d="M69.7398 16.8299H15.4598C13.2929 16.8325 11.2153 17.6938 9.68216 19.2251C8.14897 20.7565 7.28514 22.833 7.27985 24.9999V74.1999C7.28249 76.3685 8.14516 78.4476 9.67864 79.9811C11.2121 81.5146 13.2912 82.3772 15.4598 82.3799H69.7398C71.9085 82.3772 73.9876 81.5146 75.5211 79.9811C77.0545 78.4476 77.9172 76.3685 77.9198 74.1999V24.9999C77.9146 22.833 77.0507 20.7565 75.5175 19.2251C73.9843 17.6938 71.9068 16.8325 69.7398 16.8299ZM10.2798 24.9999C10.2825 23.6269 10.8291 22.3109 11.8 21.34C12.7708 20.3691 14.0868 19.8225 15.4598 19.8199H69.7398C70.4201 19.8199 71.0937 19.9539 71.7221 20.2142C72.3506 20.4745 72.9217 20.8561 73.4027 21.3371C73.8837 21.8181 74.2652 22.3891 74.5255 23.0176C74.7859 23.6461 74.9198 24.3196 74.9198 24.9999V31.7099H10.2798V24.9999ZM74.9198 74.1999C74.9198 75.5737 74.3741 76.8913 73.4027 77.8627C72.4312 78.8341 71.1137 79.3799 69.7398 79.3799H15.4598C14.0868 79.3772 12.7708 78.8306 11.8 77.8598C10.8291 76.8889 10.2825 75.5729 10.2798 74.1999V34.7199H74.9198V74.1999Z" fill="#181818"/>
<path d="M17.5 23.77C17.0803 23.768 16.6694 23.8907 16.3195 24.1224C15.9695 24.3541 15.6962 24.6845 15.5343 25.0717C15.3723 25.4589 15.3289 25.8855 15.4095 26.2974C15.4902 26.7093 15.6913 27.088 15.9874 27.3855C16.2835 27.683 16.6612 27.8859 17.0727 27.9685C17.4842 28.0511 17.911 28.0097 18.299 27.8495C18.6869 27.6894 19.0186 27.4177 19.252 27.0688C19.4854 26.72 19.61 26.3097 19.61 25.89C19.61 25.3295 19.388 24.7917 18.9926 24.3944C18.5972 23.9971 18.0605 23.7726 17.5 23.77Z" fill="#0084FF"/>
<path d="M24.7 28.01C25.8708 28.01 26.82 27.0608 26.82 25.89C26.82 24.7191 25.8708 23.77 24.7 23.77C23.5291 23.77 22.58 24.7191 22.58 25.89C22.58 27.0608 23.5291 28.01 24.7 28.01Z" fill="#0084FF"/>
<path d="M31.9 28.01C33.0709 28.01 34.02 27.0608 34.02 25.89C34.02 24.7191 33.0709 23.77 31.9 23.77C30.7292 23.77 29.78 24.7191 29.78 25.89C29.78 27.0608 30.7292 28.01 31.9 28.01Z" fill="#0084FF"/>
</svg>
