<svg width="92" height="92" viewBox="0 0 92 92" fill="none" xmlns="http://www.w3.org/2000/svg">
<path d="M71.0898 1.72991C67.3132 1.72137 63.6314 2.91295 60.5759 5.13269C57.5204 7.35243 55.2491 10.4855 54.0898 14.0799H68.9999C70.7715 14.0799 72.4706 14.7837 73.7233 16.0364C74.9761 17.2892 75.6799 18.9883 75.6799 20.7599V36.7599C79.8516 35.6394 83.4743 33.0418 85.8741 29.4502C88.274 25.8587 89.2876 21.5177 88.7264 17.2347C88.1652 12.9518 86.0674 9.01844 82.8232 6.16641C79.5791 3.31437 75.4094 1.73778 71.0898 1.72991Z" fill="#E8EEFF"/>
<path d="M68.9999 78.1399H14.6999C12.5364 78.1399 10.4608 77.2839 8.92629 75.7588C7.3918 74.2337 6.5231 72.1633 6.50989 69.9999V20.7599C6.51254 18.5895 7.37658 16.5089 8.91222 14.9751C10.4479 13.4414 12.5295 12.5799 14.6999 12.5799H68.9999C71.1685 12.5825 73.2476 13.4452 74.7811 14.9787C76.3146 16.5121 77.1772 18.5912 77.1799 20.7599V69.9999C77.1667 72.1616 76.2994 74.2304 74.767 75.7553C73.2347 77.2801 71.1616 78.1373 68.9999 78.1399ZM14.6999 15.5799C13.3251 15.5799 12.0066 16.1253 11.0335 17.0965C10.0605 18.0676 9.51254 19.3851 9.50989 20.7599V69.9999C9.51517 71.3738 10.064 72.6898 11.0364 73.6604C12.0089 74.631 13.326 75.1772 14.6999 75.1799H68.9999C70.3677 75.1693 71.676 74.6193 72.6404 73.6492C73.6048 72.6792 74.1473 71.3677 74.1499 69.9999V20.7599C74.1499 19.3912 73.6083 18.0782 72.6433 17.1076C71.6784 16.137 70.3685 15.5878 68.9999 15.5799H14.6999Z" fill="black"/>
<path d="M32.2299 45.0898C35.7534 45.0898 38.6098 42.2333 38.6098 38.7098C38.6098 35.1862 35.7534 32.3298 32.2299 32.3298C28.7063 32.3298 25.8499 35.1862 25.8499 38.7098C25.8499 42.2333 28.7063 45.0898 32.2299 45.0898Z" fill="#0080FF"/>
<path d="M31.6398 46.4198H32.8198C35.3288 46.4198 37.7349 47.4165 39.509 49.1906C41.2831 50.9647 42.2798 53.3709 42.2798 55.8798V59.6698H22.1798V55.8798C22.1798 53.3709 23.1765 50.9647 24.9506 49.1906C26.7247 47.4165 29.1309 46.4198 31.6398 46.4198Z" fill="#0080FF"/>
<path d="M55.4898 59.2499C55.2951 59.2508 55.1021 59.2133 54.9219 59.1395C54.7417 59.0657 54.5779 58.9571 54.4398 58.8199L48.8798 53.4099C48.5947 53.1287 48.4329 52.7459 48.4301 52.3455C48.4273 51.9451 48.5836 51.56 48.8648 51.2749C49.1459 50.9898 49.5288 50.828 49.9292 50.8252C50.3295 50.8224 50.7147 50.9787 50.9998 51.2599L55.4898 55.6299L59.8598 51.1399C60.1437 50.8903 60.5115 50.7572 60.8894 50.7672C61.2673 50.7771 61.6275 50.9294 61.8979 51.1935C62.1684 51.4577 62.3291 51.8142 62.348 52.1917C62.3669 52.5693 62.2425 52.9401 61.9998 53.2299L56.5798 58.7899C56.4441 58.9325 56.2814 59.0467 56.1011 59.1257C55.9208 59.2046 55.7266 59.2469 55.5298 59.2499H55.4898Z" fill="black"/>
<path d="M55.4098 57.3999C55.012 57.3999 54.6304 57.2418 54.3491 56.9605C54.0678 56.6792 53.9098 56.2977 53.9098 55.8999V35.2799C53.9098 34.8821 54.0678 34.5005 54.3491 34.2192C54.6304 33.9379 55.012 33.7799 55.4098 33.7799C55.8076 33.7799 56.1891 33.9379 56.4705 34.2192C56.7518 34.5005 56.9098 34.8821 56.9098 35.2799V55.8999C56.9098 56.2977 56.7518 56.6792 56.4705 56.9605C56.1891 57.2418 55.8076 57.3999 55.4098 57.3999Z" fill="black"/>
</svg>
