<svg width="92" height="92" viewBox="0 0 92 92" fill="none" xmlns="http://www.w3.org/2000/svg">
<path d="M39.54 39.95L32.98 47.34L46.6 61.1L52.11 56.07L39.54 39.95Z" fill="#EDF3FF"/>
<path d="M72.2001 15.3401C69.857 15.3457 67.5668 16.037 65.6121 17.3289C63.6574 18.6208 62.1236 20.4567 61.2001 22.6101C62.9152 22.1034 64.6581 21.6961 66.4201 21.3901L71.2901 20.5601C71.8058 20.4728 72.3352 20.5162 72.8298 20.6862C73.3245 20.8562 73.7686 21.1474 74.1217 21.5333C74.4748 21.9192 74.7255 22.3875 74.851 22.8953C74.9765 23.403 74.9727 23.9342 74.8401 24.4401L73.5801 29.2101C72.6773 32.6391 71.3785 35.9513 69.7101 39.0801C70.5411 39.2615 71.3894 39.352 72.2401 39.3501C75.4227 39.3501 78.4749 38.0858 80.7253 35.8354C82.9758 33.5849 84.2401 30.5327 84.2401 27.3501C84.2401 24.1675 82.9758 21.1153 80.7253 18.8648C78.4749 16.6144 75.4227 15.3501 72.2401 15.3501L72.2001 15.3401Z" fill="#EDF3FF"/>
<path d="M18.3302 23.3701C19.8755 23.9784 21.2292 24.9903 22.2502 26.3001C22.7795 26.9777 23.2198 27.7205 23.5602 28.5101C23.5602 28.5801 23.6402 28.6301 23.7002 28.7401C23.7929 28.5886 23.8763 28.4316 23.9502 28.2701C24.3124 27.4448 24.7979 26.6794 25.3902 26.0001C25.9056 25.3748 26.5164 24.8349 27.2002 24.4001C27.7202 24.0701 28.2702 23.7801 28.8102 23.4801C28.9102 23.4301 29.0202 23.4301 29.1102 23.3801C29.1412 23.362 29.168 23.3375 29.1887 23.3082C29.2094 23.2788 29.2236 23.2454 29.2302 23.2101C29.2222 23.1792 29.2072 23.1505 29.1864 23.1262C29.1656 23.102 29.1395 23.0828 29.1102 23.0701C28.1397 22.6966 27.2427 22.155 26.4602 21.4701C25.7139 20.8481 25.0782 20.1042 24.5802 19.2701C24.3202 18.8101 24.0902 18.3401 23.8502 17.8801L23.7202 17.6901C23.6302 17.8601 23.5402 18.0001 23.4802 18.1401C23.1228 18.9428 22.6475 19.6877 22.0702 20.3501C21.5357 21.0017 20.9051 21.5682 20.2002 22.0301C19.6902 22.3501 19.1502 22.6301 18.6202 22.9201C18.5302 22.9201 18.4202 22.9201 18.3302 23.0201C18.2981 23.0381 18.27 23.0624 18.2476 23.0917C18.2253 23.1209 18.2091 23.1544 18.2002 23.1901C18.1902 23.2601 18.2702 23.3501 18.3302 23.3701Z" fill="#0084FF"/>
<path d="M72.0001 73.67C71.8901 73.61 71.7501 73.59 71.6301 73.54L70.2301 73C69.5601 72.74 68.9001 72.49 68.2301 72.25C68.109 72.2065 68.0006 72.1334 67.915 72.0374C67.8294 71.9413 67.7693 71.8253 67.7401 71.7C67.6401 71.4 67.5401 71.09 67.4401 70.8C67.0901 69.8 66.7501 68.86 66.4401 67.88C66.4401 67.81 66.3301 67.71 66.2601 67.71C66.1901 67.71 66.1101 67.8 66.0801 67.87C66.026 68.004 65.9793 68.1409 65.9401 68.28L65.1601 70.43L64.6801 71.76C64.6429 71.8663 64.5822 71.9628 64.5026 72.0424C64.4229 72.1221 64.3264 72.1827 64.2201 72.22L63.4301 72.51L62.0001 73L60.4501 73.58C60.3601 73.58 60.3001 73.71 60.2101 73.78C60.3001 73.85 60.3601 73.95 60.4501 73.99L61.3701 74.32L62.8801 74.91L64.2101 75.41C64.3276 75.4616 64.4313 75.54 64.5129 75.639C64.5945 75.738 64.6518 75.8548 64.6801 75.98C64.7701 76.28 64.8701 76.57 64.9701 76.86C65.3101 77.86 65.6501 78.8 65.9701 79.77C66.0157 79.8634 66.0728 79.9507 66.1401 80.03C66.2301 79.94 66.3101 79.88 66.3201 79.82C66.4201 79.56 66.5001 79.28 66.6001 79.01L67.1101 77.6C67.2901 77.1 67.5101 76.6 67.6601 76.09C67.6927 75.9126 67.7778 75.7492 67.9044 75.6208C68.031 75.4924 68.1932 75.4051 68.3701 75.37H68.5301C69.7001 74.94 70.8601 74.51 72.0301 74.06C72.0901 74.06 72.1901 73.94 72.1901 73.88C72.1901 73.82 72.1101 73.71 72.0001 73.67Z" fill="#0084FF"/>
<path d="M31.68 53.9999C30.5561 53.947 29.4328 54.1177 28.3754 54.5023C27.318 54.8868 26.3474 55.4774 25.52 56.2399C22.59 58.9199 19.31 69.6599 18.68 71.7899L17.74 74.9999L21 74.2899C23.17 73.8499 34.15 71.5299 37.08 68.8399C38.3247 67.6973 39.2029 66.2116 39.6039 64.5702C40.0048 62.9288 39.9104 61.2055 39.3326 59.6177C38.7549 58.03 37.7197 56.649 36.3576 55.6491C34.9956 54.6493 33.3679 54.0754 31.68 53.9999ZM34.38 65.9099C33.15 67.0499 28.07 68.5699 23.55 69.6499C25 65.2199 27 60.2999 28.22 59.1699C29.0634 58.4072 30.1629 57.9895 31.3 57.9999H31.5C32.099 58.0256 32.6871 58.1692 33.2305 58.4224C33.774 58.6757 34.2622 59.0336 34.6672 59.4757C35.0721 59.9178 35.3859 60.4355 35.5906 60.999C35.7953 61.5626 35.8868 62.161 35.86 62.7599C35.8322 63.3535 35.6871 63.9357 35.4331 64.4729C35.179 65.0102 34.8211 65.4918 34.38 65.8899V65.9099Z" fill="#0084FF"/>
<path d="M74.0798 21.53C73.7285 21.1411 73.2857 20.8459 72.7916 20.6713C72.2974 20.4967 71.7675 20.4481 71.2498 20.53L66.3798 21.36C58.2743 22.7694 50.6849 26.295 44.3798 31.58C43.5567 32.284 42.7785 33.0388 42.0498 33.84C37.8297 33.3298 33.5531 34.0815 29.7598 36C26.889 37.3473 24.326 39.2704 22.2298 41.65L20.5598 43.65L31.3098 45.79L30.5398 46.65L45.5798 63L46.8898 62L48.1798 73.78L50.2598 72.29C52.814 70.4094 54.9577 68.0275 56.5598 65.29C59.1598 60.9 60.2498 55.97 59.5598 51.89C59.8798 51.64 60.1898 51.37 60.4798 51.1C66.7612 45.1637 71.2631 37.5936 73.4798 29.24L74.7398 24.47C74.886 23.964 74.9022 23.4293 74.7869 22.9154C74.6715 22.4015 74.4283 21.925 74.0798 21.53ZM26.4198 41.71C27.8257 40.5124 29.3822 39.5038 31.0498 38.71C33.6918 37.403 36.5925 36.7026 39.5398 36.66L33.6598 43.15L26.4198 41.71ZM34.5998 46.58L38.8798 41.86L50.9998 54.88L45.8998 58.88L34.5998 46.58ZM53.9998 63.74C53.0558 65.3285 51.9132 66.7903 50.5998 68.09L49.6898 59.77L56.7998 54.1C56.7408 57.5053 55.7742 60.833 53.9998 63.74ZM71.8898 23.67L70.6398 28.45C68.596 36.2689 64.3841 43.3511 58.4898 48.88C58.2498 49.1 58.0098 49.31 57.7498 49.51L53.3598 53L40.8998 39.63L43.5498 36.7C43.7187 36.5829 43.8589 36.4291 43.9598 36.25L44.2698 35.91C44.9172 35.2006 45.6085 34.5326 46.3398 33.91C52.2099 28.9482 59.3027 25.6504 66.8798 24.36L71.7498 23.53C71.7686 23.5211 71.789 23.5165 71.8098 23.5165C71.8306 23.5165 71.8511 23.5211 71.8698 23.53C71.891 23.546 71.9051 23.5696 71.9088 23.5959C71.9126 23.6222 71.9057 23.6488 71.8898 23.67Z" fill="#181818"/>
</svg>
