<svg width="92" height="92" viewBox="0 0 92 92" fill="none" xmlns="http://www.w3.org/2000/svg">
<path d="M82.3901 79.3299C82.2801 79.2699 82.1401 79.2499 82.0201 79.1999L80.5901 78.6399L78.5901 77.8899C78.4675 77.849 78.3578 77.7767 78.2718 77.6802C78.1858 77.5837 78.1266 77.4664 78.1001 77.3399L77.8001 76.4499C77.4501 75.4499 77.1101 74.4499 76.8001 73.5299C76.8001 73.4499 76.6901 73.3599 76.6201 73.3599C76.5501 73.3599 76.4801 73.4399 76.4401 73.5199C76.3832 73.6519 76.3397 73.7893 76.3101 73.9299C76.0401 74.6399 75.7801 75.3599 75.5201 76.0799C75.3601 76.5099 75.2001 76.9599 75.0401 77.4099C75.0042 77.5169 74.944 77.6142 74.8642 77.694C74.7843 77.7738 74.6871 77.834 74.5801 77.8699L73.7901 78.1499L72.3801 78.6799L70.8401 79.2599C70.7401 79.2599 70.6801 79.3899 70.5901 79.4499C70.6801 79.5299 70.7401 79.6299 70.8401 79.6599C71.1401 79.7899 71.4501 79.8899 71.7501 79.9999L73.2601 80.5899L74.5901 81.0899C74.7094 81.1387 74.8148 81.2163 74.8969 81.3158C74.9789 81.4152 75.035 81.5335 75.0601 81.6599C75.1501 81.9499 75.2501 82.2499 75.3601 82.5399C75.7001 83.5399 76.0401 84.4799 76.3601 85.4499C76.4039 85.5421 76.4575 85.6293 76.5201 85.7099C76.6101 85.6099 76.6901 85.5599 76.7001 85.4999C76.8001 85.2299 76.8901 84.9599 76.9801 84.6899L77.5001 83.2799C77.6701 82.7699 77.8901 82.2799 78.0401 81.7699C78.0754 81.5911 78.1624 81.4265 78.2904 81.2967C78.4184 81.167 78.5817 81.0776 78.7601 81.0399C78.813 81.0491 78.8671 81.0491 78.9201 81.0399C80.0801 80.5999 81.2401 80.1799 82.4101 79.7299C82.4485 79.7137 82.4827 79.6891 82.5104 79.658C82.5381 79.6269 82.5585 79.5899 82.5701 79.5499C82.5601 79.4399 82.4701 79.3599 82.3901 79.3299Z" fill="#0084FF"/>
<path d="M29.57 23.58C31.0907 23.5784 32.5803 24.0103 33.8644 24.825C35.1484 25.6397 36.1737 26.8035 36.82 28.18C37.6648 25.9018 37.7981 23.4209 37.2023 21.0653C36.6065 18.7098 35.3096 16.5905 33.4833 14.988C31.6569 13.3854 29.3871 12.375 26.9741 12.0904C24.5611 11.8059 22.1185 12.2605 19.9695 13.3942C17.8204 14.5279 16.0662 16.2873 14.9387 18.4396C13.8113 20.592 13.3637 23.0359 13.6554 25.4481C13.947 27.8602 14.964 30.1271 16.5718 31.9487C18.1797 33.7704 20.3027 35.0611 22.66 35.65C21.9445 34.4376 21.5616 33.0578 21.55 31.65C21.5407 30.5919 21.7415 29.5424 22.1406 28.5624C22.5397 27.5824 23.1293 26.6913 23.8753 25.9407C24.6212 25.1902 25.5086 24.595 26.4861 24.1898C27.4636 23.7846 28.5118 23.5773 29.57 23.58Z" fill="#EDF3FF"/>
<path d="M55.4701 65.46H38.3601V68.46H55.4701C55.2835 67.4687 55.2835 66.4513 55.4701 65.46Z" fill="#181818"/>
<path d="M62.6099 58.3101C63.6024 58.1368 64.6174 58.1368 65.6099 58.3101V40.4501H62.6099V58.3101Z" fill="#181818"/>
<path d="M37.25 33.9202H56.09V30.9202H37.56C37.56 31.1502 37.56 31.3702 37.56 31.6102C37.5746 32.3915 37.4701 33.1704 37.25 33.9202Z" fill="#181818"/>
<path d="M31.0699 39.48C30.5764 39.5814 30.0738 39.6316 29.5699 39.63C29.0662 39.6307 28.5636 39.5804 28.0699 39.48V58.17H31.0699V39.48Z" fill="#181818"/>
<path d="M56.0898 35.1503C56.0898 36.5542 56.6469 37.9007 57.6386 38.8944C58.6304 39.888 59.9759 40.4476 61.3798 40.4503H66.8398C68.2447 40.4476 69.5912 39.8884 70.5846 38.895C71.578 37.9016 72.1372 36.5551 72.1399 35.1503V29.6903C72.1372 28.2863 71.5776 26.9408 70.584 25.9491C69.5903 24.9573 68.2438 24.4003 66.8398 24.4003H61.3798C59.9769 24.4003 58.6313 24.9576 57.6392 25.9497C56.6472 26.9417 56.0898 28.2873 56.0898 29.6903V35.1503ZM61.3798 28.4003H66.8398C67.1829 28.4002 67.5121 28.5358 67.7556 28.7775C67.9991 29.0191 68.1372 29.3472 68.1398 29.6903V35.1503C68.1398 35.495 68.0029 35.8257 67.7591 36.0695C67.5153 36.3133 67.1846 36.4503 66.8398 36.4503H61.3798C61.0368 36.4476 60.7087 36.3095 60.4671 36.066C60.2254 35.8225 60.0898 35.4933 60.0898 35.1503V29.6903C60.0898 29.5209 60.1232 29.3531 60.188 29.1966C60.2529 29.0401 60.3479 28.8979 60.4677 28.7781C60.5875 28.6583 60.7297 28.5633 60.8862 28.4985C61.0427 28.4336 61.2104 28.4003 61.3798 28.4003Z" fill="#0084FF"/>
<path d="M31.07 39.4801C32.5107 39.2085 33.849 38.5463 34.9389 37.5658C36.0288 36.5853 36.8282 35.3241 37.25 33.9201C37.4837 33.1724 37.6017 32.3934 37.6 31.6101C37.6 31.3701 37.6 31.1501 37.6 30.9201C37.5208 29.9695 37.2701 29.0412 36.86 28.1801C36.0953 26.5143 34.7818 25.1616 33.1392 24.3483C31.4966 23.535 29.6245 23.3104 27.8362 23.7121C26.0478 24.1138 24.4516 25.1174 23.3146 26.5551C22.1777 27.9928 21.5688 29.7773 21.59 31.6101C21.5996 33.4733 22.2545 35.2757 23.4432 36.7105C24.6319 38.1454 26.281 39.1241 28.11 39.4801C28.6037 39.5804 29.1062 39.6307 29.61 39.6301C30.1005 39.629 30.5896 39.5787 31.07 39.4801ZM25.55 31.6101C25.55 30.8189 25.7846 30.0456 26.2241 29.3878C26.6637 28.73 27.2884 28.2173 28.0193 27.9145C28.7502 27.6118 29.5544 27.5326 30.3304 27.6869C31.1063 27.8413 31.819 28.2222 32.3784 28.7816C32.9378 29.341 33.3188 30.0538 33.4732 30.8297C33.6275 31.6056 33.5483 32.4099 33.2455 33.1408C32.9428 33.8717 32.4301 34.4964 31.7723 34.9359C31.1145 35.3755 30.3411 35.6101 29.55 35.6101C28.4891 35.6101 27.4717 35.1886 26.7216 34.4385C25.9714 33.6883 25.55 32.6709 25.55 31.6101Z" fill="#0084FF"/>
<path d="M65.61 58.3098C64.6175 58.1365 63.6025 58.1365 62.61 58.3098C60.8301 58.6252 59.1903 59.4804 57.9131 60.7595C56.6358 62.0385 55.7829 63.6795 55.47 65.4598C55.2834 66.4511 55.2834 67.4685 55.47 68.4598C55.7464 70.0418 56.4518 71.5175 57.5094 72.726C58.567 73.9345 59.9361 74.8294 61.4675 75.3131C62.9988 75.7968 64.6336 75.8508 66.1935 75.4692C67.7534 75.0875 69.1785 74.2848 70.3135 73.1487C71.4485 72.0126 72.2498 70.5866 72.6299 69.0264C73.01 67.4661 72.9544 65.8314 72.4692 64.3005C71.984 62.7697 71.0877 61.4014 69.8782 60.345C68.6686 59.2887 67.1922 58.5847 65.61 58.3098ZM64.11 71.7398C63.1629 71.7398 62.2372 71.4584 61.4503 70.9314C60.6634 70.4044 60.0507 69.6555 59.6902 68.7797C59.3296 67.9039 59.2373 66.9408 59.425 66.0125C59.6127 65.0842 60.0719 64.2326 60.7444 63.5657C61.4169 62.8988 62.2724 62.4467 63.2022 62.2668C64.1321 62.0869 65.0944 62.1873 65.9671 62.5553C66.8398 62.9232 67.5836 63.5421 68.1039 64.3334C68.6243 65.1247 68.8979 66.0528 68.89 66.9998C68.8795 68.2606 68.3712 69.4662 67.4759 70.354C66.5806 71.2417 65.3708 71.7399 64.11 71.7398Z" fill="#0084FF"/>
<path d="M38.3599 63.47C38.3572 62.0651 37.798 60.7186 36.8046 59.7252C35.8113 58.7318 34.4647 58.1726 33.0599 58.17H26.0599C24.6551 58.1726 23.3085 58.7318 22.3151 59.7252C21.3218 60.7186 20.7625 62.0651 20.7599 63.47V70.47C20.7625 71.8739 21.3221 73.2194 22.3158 74.2112C23.3094 75.2029 24.656 75.76 26.0599 75.76H33.0599C34.4638 75.76 35.8104 75.2029 36.804 74.2112C37.7977 73.2194 38.3572 71.8739 38.3599 70.47V63.47ZM33.0599 71.7399H26.0599C25.7168 71.74 25.3877 71.6044 25.1442 71.3627C24.9007 71.1211 24.7625 70.793 24.7599 70.4499V63.45C24.7599 63.1052 24.8968 62.7745 25.1406 62.5307C25.3844 62.2869 25.7151 62.15 26.0599 62.15H33.0599C33.4047 62.15 33.7353 62.2869 33.9791 62.5307C34.2229 62.7745 34.3599 63.1052 34.3599 63.45V70.4499C34.3572 70.793 34.2191 71.1211 33.9756 71.3627C33.7321 71.6044 33.4029 71.74 33.0599 71.7399Z" fill="#0084FF"/>
</svg>
