<svg width="92" height="92" viewBox="0 0 92 92" fill="none" xmlns="http://www.w3.org/2000/svg">
<path d="M79.1202 53.7402C79.0202 53.9302 78.9302 54.0702 78.8602 54.2202C78.4766 55.0781 77.9714 55.8763 77.3602 56.5902C76.7843 57.2811 76.1105 57.8841 75.3602 58.3802C74.8102 58.7202 74.2402 59.0102 73.6702 59.3302C73.5802 59.3802 73.4602 59.3802 73.3702 59.4302C73.3337 59.4502 73.3017 59.4773 73.2759 59.5099C73.2501 59.5426 73.2312 59.5801 73.2202 59.6202C73.2202 59.6702 73.3002 59.7602 73.3702 59.7802C75.0173 60.4376 76.46 61.5213 77.5502 62.9202C78.1327 63.6378 78.62 64.4277 79.0002 65.2702L79.1502 65.5202C79.2506 65.3575 79.3375 65.1869 79.4102 65.0102C79.804 64.1395 80.3228 63.331 80.9502 62.6102C81.5034 61.9487 82.1542 61.3754 82.8802 60.9102C83.4402 60.5502 84.0302 60.2502 84.6102 59.9102C84.7102 59.9102 84.8202 59.8502 84.9202 59.7902C84.9546 59.7752 84.9845 59.7518 85.0073 59.722C85.03 59.6923 85.0448 59.6572 85.0502 59.6202C85.0429 59.5864 85.0284 59.5547 85.0077 59.5271C84.987 59.4995 84.9605 59.4766 84.9302 59.4602C83.8925 59.068 82.9338 58.4921 82.1002 57.7602C81.3043 57.0929 80.6279 56.2948 80.1002 55.4002C79.8202 54.9202 79.5802 54.4002 79.3302 53.9302L79.1202 53.7402Z" fill="#0080FF"/>
<path d="M22.94 31.8701C22.8753 31.791 22.8215 31.7035 22.78 31.6101C22.43 30.6101 22.09 29.6701 21.78 28.7001C21.68 28.4101 21.57 28.1201 21.48 27.8201C21.4517 27.6949 21.3945 27.5782 21.3128 27.4792C21.2312 27.3802 21.1275 27.3017 21.01 27.2501L19.69 26.7501L18.17 26.1701L17.26 25.8301C17.1666 25.7771 17.0849 25.7057 17.02 25.6201C17.1 25.5501 17.16 25.4501 17.26 25.4201C17.77 25.2201 18.26 25.0301 18.8 24.8501L20.21 24.3201L21 24.0001C21.1082 23.9664 21.2066 23.9069 21.2867 23.8268C21.3668 23.7466 21.4263 23.6483 21.46 23.5401L21.94 22.2101C22.2 21.5001 22.46 20.7801 22.73 20.0601C22.761 19.9198 22.8046 19.7826 22.86 19.6501C22.86 19.5801 22.98 19.4901 23.05 19.4901C23.12 19.4901 23.19 19.5901 23.22 19.6701L24.22 22.5801L24.52 23.4801C24.5517 23.6043 24.6127 23.7191 24.6979 23.8148C24.7832 23.9105 24.8903 23.9844 25.01 24.0301L27.01 24.7801L28.43 25.3401C28.5565 25.3695 28.6803 25.4097 28.8 25.4601C28.88 25.4601 28.97 25.5801 28.97 25.6401C28.9598 25.6808 28.94 25.7184 28.9121 25.7497C28.8843 25.7811 28.8492 25.8052 28.81 25.8201C27.64 26.2701 26.48 26.7001 25.32 27.1301L25.16 27.1801C24.9819 27.2146 24.8182 27.3017 24.6899 27.43C24.5616 27.5582 24.4746 27.722 24.44 27.9001C24.29 28.4101 24.08 28.9001 23.9 29.4101C23.72 29.9201 23.55 30.3501 23.38 30.8301C23.29 31.0901 23.2 31.3701 23.1 31.6301C23.11 31.7201 23 31.7801 22.94 31.8701Z" fill="#0080FF"/>
<path d="M54.1901 53.7402C53.6501 53.7402 53.1201 53.7402 52.5901 53.8202L57.8401 67.4802C58.1783 68.3613 58.3395 69.3004 58.3144 70.2439C58.2894 71.1873 58.0786 72.1166 57.6941 72.9785C57.3095 73.8404 56.7589 74.618 56.0735 75.2669C55.3882 75.9158 54.5817 76.4233 53.7001 76.7602L43.3401 80.7602C45.1915 82.5347 47.4499 83.8281 49.9174 84.5268C52.3849 85.2256 54.9861 85.3086 57.4931 84.7683C60.0001 84.2281 62.3363 83.0812 64.297 81.4281C66.2576 79.7751 67.7829 77.6664 68.7392 75.2868C69.6954 72.9072 70.0534 70.3294 69.7818 67.7793C69.5101 65.2292 68.6171 62.7847 67.1811 60.6599C65.7451 58.5352 63.8098 56.7951 61.5449 55.5922C59.28 54.3892 56.7546 53.7602 54.1901 53.7602V53.7402Z" fill="#E8EEFF"/>
<path d="M57.8403 67.48L52.5903 53.82L48.0803 42.07C47.7435 41.1885 47.236 40.3821 46.5869 39.6971C45.9378 39.0121 45.1599 38.462 44.2977 38.0783C43.4356 37.6946 42.5062 37.4849 41.5628 37.4612C40.6194 37.4374 39.6806 37.6001 38.8003 37.94L13.3803 47.7C12.4972 48.0378 11.6895 48.5466 11.0036 49.1974C10.3177 49.8481 9.76708 50.6279 9.38334 51.4921C8.9996 52.3562 8.79031 53.2875 8.76748 54.2328C8.74464 55.178 8.90871 56.1184 9.25028 57L19.0003 82.39C19.6849 84.167 21.0464 85.5998 22.7862 86.3741C24.526 87.1484 26.5019 87.2008 28.2803 86.52L43.3303 80.74L53.6903 76.74C55.4678 76.0613 56.9032 74.7049 57.6813 72.9687C58.4594 71.2325 58.5166 69.2584 57.8403 67.48Z" fill="white"/>
<path d="M43.3499 66.1C43.2722 64.9055 43.0056 63.7309 42.5599 62.62L41.9999 61.24C41.5848 60.1029 40.9906 59.0395 40.2399 58.09C39.6289 57.3015 38.8675 56.6421 37.9999 56.15C37.168 55.7154 36.2481 55.476 35.3099 55.45C34.3392 55.435 33.3748 55.6082 32.4699 55.96C31.396 56.3538 30.4275 56.9904 29.6399 57.82C29.2312 58.2728 28.894 58.7854 28.6399 59.34L25.6399 51.65L22.6399 52.8L31.3999 75.61L33.8899 74.61L33.3699 72.75C33.9905 73.0906 34.6684 73.3143 35.3699 73.41C36.5951 73.5814 37.8438 73.4404 38.9999 73C39.9081 72.6584 40.7405 72.142 41.4499 71.48C42.1334 70.8303 42.6542 70.0286 42.9699 69.14C43.3005 68.1627 43.4298 67.1286 43.3499 66.1ZM39.8499 68C39.6305 68.5373 39.2969 69.0204 38.8721 69.4159C38.4473 69.8113 37.9415 70.1096 37.3899 70.29C36.8586 70.5127 36.2848 70.6157 35.7093 70.5915C35.1337 70.5673 34.5706 70.4165 34.0599 70.15C32.8278 69.4205 31.9116 68.2583 31.4899 66.89L30.8699 65.27C30.3212 64.0024 30.2677 62.5751 30.7199 61.27C30.9298 60.7475 31.2476 60.2753 31.6526 59.8841C32.0575 59.4929 32.5405 59.1916 33.0699 59C33.5915 58.7898 34.1476 58.6779 34.7099 58.67C35.3053 58.6711 35.8917 58.8151 36.4199 59.09C37.6649 59.8396 38.585 61.0272 38.9999 62.42L39.5299 63.79C40.1513 65.106 40.2652 66.6051 39.8499 68Z" fill="#0082FF"/>
<path d="M62.1901 3.74007C58.391 3.74109 54.6552 4.71312 51.3373 6.5639C48.0195 8.41467 45.2298 11.0828 43.233 14.3148C41.2363 17.5469 40.0988 21.2357 39.9285 25.031C39.7582 28.8263 40.5608 32.6022 42.2601 36.0001C40.9036 35.8566 39.5324 36.0383 38.2601 36.5301L12.8401 46.3001C11.775 46.7068 10.8005 47.3196 9.97253 48.1034C9.14455 48.8872 8.4793 49.8267 8.01486 50.8679C7.55043 51.9092 7.29593 53.0318 7.26594 54.1716C7.23595 55.3113 7.43106 56.4458 7.84009 57.5101L17.6001 82.9301C18.0079 83.9956 18.6217 84.9702 19.4064 85.7983C20.1912 86.6264 21.1315 87.2916 22.1736 87.756C23.2156 88.2204 24.339 88.4748 25.4795 88.5047C26.62 88.5345 27.7551 88.3393 28.8201 87.9301L54.2301 78.1701C56.3803 77.3443 58.1147 75.6988 59.0523 73.5949C59.9898 71.4911 60.0538 69.101 59.2301 66.9501L50.9101 45.2601C53.8648 46.992 57.1788 48.0197 60.595 48.2635C64.0111 48.5073 67.4375 47.9607 70.6082 46.6659C73.7789 45.3712 76.6086 43.3633 78.8777 40.798C81.1468 38.2326 82.7942 35.179 83.6921 31.8739C84.59 28.5689 84.7142 25.1013 84.0551 21.7405C83.3961 18.3797 81.9714 15.2159 79.8917 12.4948C77.812 9.77369 75.1333 7.5684 72.0633 6.0501C68.9934 4.53181 65.6149 3.74134 62.1901 3.74007ZM56.3201 72.3701C56.0184 73.0529 55.5848 73.6693 55.0442 74.1842C54.5037 74.699 53.8668 75.102 53.1701 75.3701L27.7501 85.1201C27.0536 85.3889 26.3108 85.5176 25.5645 85.4987C24.8181 85.4797 24.0828 85.3136 23.4008 85.0098C22.7188 84.7059 22.1036 84.2704 21.5903 83.7282C21.0771 83.186 20.676 82.5477 20.4101 81.8501L10.6501 56.4401C10.1101 55.0326 10.1496 53.4685 10.7601 52.0901C11.0606 51.4048 11.4949 50.7865 12.0375 50.2714C12.5802 49.7562 13.2202 49.3546 13.9201 49.0901L39.3301 39.3301C39.9678 39.0818 40.6458 38.953 41.3301 38.9501C42.126 38.9486 42.9133 39.1156 43.6401 39.4401C44.2299 39.7127 44.7705 40.081 45.2401 40.5301C45.4201 40.7501 45.6101 40.9601 45.8101 41.1701C46.1502 41.6016 46.4264 42.0798 46.6301 42.5901L56.4301 68.0001C56.7051 68.6988 56.8371 69.4456 56.8182 70.1962C56.7994 70.9469 56.63 71.6861 56.3201 72.3701ZM62.1901 45.3701C59.5807 45.3697 56.9989 44.8375 54.6021 43.8059C52.2053 42.7742 50.044 41.2649 48.2501 39.3701C47.9812 39.013 47.6835 38.6786 47.3601 38.3701C44.5656 34.9894 43.0067 30.7572 42.9404 26.3716C42.8741 21.9859 44.3045 17.7086 46.9955 14.245C49.6866 10.7814 53.4777 8.33834 57.7436 7.31863C62.0096 6.29893 66.4957 6.76351 70.4622 8.63576C74.4287 10.508 77.6387 13.6761 79.5629 17.6177C81.4871 21.5592 82.0105 26.0389 81.047 30.3179C80.0834 34.5969 77.6903 38.4197 74.2623 41.156C70.8344 43.8924 66.5762 45.3787 62.1901 45.3701Z" fill="black"/>
<path d="M67.0602 18.14C65.7438 17.0065 64.0331 16.4387 62.3002 16.56C61.3671 16.5485 60.4373 16.6731 59.5402 16.93C58.8123 17.1532 58.1336 17.5129 57.5402 17.99C56.9939 18.4317 56.556 18.9927 56.2602 19.63C55.9782 20.2624 55.809 20.9393 55.7602 21.63V22.03H58.8702V21.69C58.8918 21.3581 58.9841 21.0346 59.1411 20.7414C59.298 20.4482 59.516 20.192 59.7802 19.99C60.5301 19.504 61.4194 19.2791 62.3102 19.35C63.2627 19.2567 64.2156 19.5243 64.9802 20.1C65.2621 20.4265 65.4755 20.8063 65.6078 21.2168C65.74 21.6274 65.7885 22.0603 65.7502 22.49V23.62H62.3002C61.1883 23.6024 60.079 23.7302 59.0002 24C58.1577 24.212 57.3657 24.5893 56.6702 25.11C56.0437 25.5975 55.5686 26.2529 55.3002 27C55.0217 27.7449 54.8827 28.5347 54.8902 29.33C54.8534 30.0363 54.9642 30.7426 55.2156 31.4038C55.467 32.065 55.8534 32.6665 56.3502 33.17C57.485 34.1541 58.961 34.6533 60.4602 34.56C61.7298 34.5808 62.9811 34.2558 64.0802 33.62C64.8321 33.1684 65.4851 32.5698 66.0002 31.86L66.2602 34.29H68.7002V22.53C68.7448 21.7246 68.6221 20.9188 68.3398 20.1632C68.0576 19.4077 67.6219 18.7188 67.0602 18.14ZM65.7402 26.42V26.82C65.7422 27.4637 65.6093 28.1007 65.3502 28.69C65.0998 29.275 64.7322 29.8025 64.2702 30.24C63.792 30.6968 63.2323 31.0598 62.6202 31.31C61.9864 31.5727 61.3063 31.7053 60.6202 31.7C59.8953 31.7442 59.1806 31.5119 58.6202 31.05C58.3912 30.8201 58.2131 30.5446 58.0977 30.2413C57.9823 29.9381 57.932 29.6139 57.9502 29.29C57.9373 28.8978 58.0165 28.508 58.1815 28.152C58.3465 27.796 58.5926 27.4836 58.9002 27.24C59.9231 26.5989 61.128 26.3109 62.3302 26.42H65.7402Z" fill="#0082FF"/>
</svg>
