<svg width="92" height="92" viewBox="0 0 92 92" fill="none" xmlns="http://www.w3.org/2000/svg">
<path d="M15.8598 13.36C15.7698 13.53 15.6798 13.67 15.6198 13.81C15.2585 14.6045 14.7835 15.3423 14.2098 16C13.6725 16.649 13.0424 17.2151 12.3398 17.68C11.8198 18 11.2798 18.28 10.7498 18.57C10.6698 18.62 10.5598 18.62 10.4698 18.67C10.4364 18.6864 10.4073 18.7102 10.3848 18.7397C10.3622 18.7692 10.3468 18.8036 10.3398 18.84C10.3398 18.89 10.4098 18.98 10.4698 18.99C12.022 19.6249 13.3757 20.6643 14.3898 22C14.9191 22.6777 15.3594 23.4204 15.6998 24.21C15.7503 24.2843 15.797 24.361 15.8398 24.44C15.9324 24.2885 16.0159 24.1316 16.0898 23.97C16.4537 23.1518 16.9392 22.3932 17.5298 21.72C18.0452 21.0948 18.656 20.5548 19.3398 20.12C19.8598 19.79 20.4098 19.5 20.9498 19.2C21.0498 19.2 21.1598 19.2 21.2498 19.1C21.2808 19.082 21.3076 19.0574 21.3283 19.0281C21.349 18.9988 21.3632 18.9653 21.3698 18.93C21.3618 18.8991 21.3468 18.8704 21.326 18.8462C21.3052 18.8219 21.2791 18.8027 21.2498 18.79C20.2782 18.4188 19.3808 17.877 18.5998 17.19C17.8505 16.5671 17.2145 15.8195 16.7198 14.98C16.4498 14.53 16.2298 14.06 15.9898 13.6L15.8598 13.36Z" fill="#0080FF"/>
<path d="M26.5399 75.57C25.3066 75.57 24.1239 75.0801 23.2518 74.208C22.3798 73.336 21.8899 72.1532 21.8899 70.92V51.81C18.7797 52.2778 15.8487 53.5604 13.3947 55.5276C10.9406 57.4948 9.05097 60.0764 7.91761 63.0103C6.78424 65.9442 6.44756 69.1257 6.94177 72.2318C7.43598 75.3379 8.74346 78.2579 10.7314 80.6951C12.7194 83.1324 15.317 85.0001 18.2603 86.1085C21.2037 87.2169 24.388 87.5265 27.4898 87.006C30.5916 86.4854 33.5004 85.1532 35.9207 83.1446C38.3409 81.136 40.1865 78.5227 41.2699 75.57H26.5399Z" fill="#E8EEFF"/>
<path d="M53.47 12.7899C53.4758 11.429 53.1015 10.0935 52.3894 8.93374C51.6772 7.774 50.6555 6.83608 49.4391 6.2256C48.2228 5.61511 46.8602 5.3563 45.5047 5.4783C44.1493 5.60031 42.8548 6.09828 41.767 6.91615C40.6792 7.73402 39.8414 8.83931 39.3478 10.1076C38.8542 11.3759 38.7244 12.7567 38.9731 14.0948C39.2219 15.4328 39.8391 16.6748 40.7555 17.681C41.6719 18.6872 42.851 19.4176 44.16 19.7899V26.1899H48.16V19.7899C49.6842 19.3564 51.0263 18.4393 51.984 17.1767C52.9417 15.9142 53.4632 14.3746 53.47 12.7899ZM46.16 16.0999C45.5053 16.0999 44.8654 15.9058 44.321 15.5421C43.7767 15.1784 43.3525 14.6614 43.1019 14.0566C42.8514 13.4518 42.7859 12.7863 42.9136 12.1442C43.0413 11.5021 43.3565 10.9123 43.8194 10.4494C44.2824 9.9865 44.8721 9.67125 45.5142 9.54353C46.1563 9.41582 46.8218 9.48137 47.4267 9.73189C48.0315 9.98242 48.5484 10.4067 48.9121 10.951C49.2758 11.4953 49.47 12.1353 49.47 12.7899C49.47 13.2246 49.3844 13.655 49.218 14.0566C49.0517 14.4582 48.8079 14.8231 48.5005 15.1305C48.1931 15.4378 47.8282 15.6816 47.4267 15.848C47.0251 16.0143 46.5946 16.0999 46.16 16.0999Z" fill="#0082FF"/>
<path d="M70.4098 45.4698H77.9998C78.8 45.4829 79.563 45.81 80.1242 46.3806C80.6854 46.9511 80.9999 47.7194 80.9998 48.5198V59.4598C80.9999 60.2601 80.6854 61.0284 80.1242 61.5989C79.563 62.1695 78.8 62.4966 77.9998 62.5098H70.4098V45.5098V45.4698Z" fill="white"/>
<path d="M21.7798 62.5099H14.1998C13.3909 62.5099 12.6151 62.1886 12.0431 61.6166C11.4711 61.0446 11.1498 60.2688 11.1498 59.4599L11.1498 48.5199C11.1498 47.711 11.4711 46.9352 12.0431 46.3632C12.6151 45.7912 13.3909 45.4699 14.1998 45.4699H21.7798L21.7798 62.4699V62.5099Z" fill="white"/>
<path d="M78 43.9998H72V38.6798C71.9973 37.0496 71.3485 35.4868 70.1957 34.3341C69.043 33.1813 67.4802 32.5325 65.85 32.5298H59.95V27.3198C59.95 26.6276 59.675 25.9638 59.1855 25.4743C58.696 24.9848 58.0322 24.7098 57.34 24.7098H35.05C34.3577 24.7098 33.6939 24.9848 33.2044 25.4743C32.7149 25.9638 32.44 26.6276 32.44 27.3198V32.5298H26.54C24.9089 32.5298 23.3446 33.1778 22.1912 34.3311C21.0379 35.4845 20.39 37.0488 20.39 38.6798V43.9998H14.2C12.9923 43.9998 11.834 44.4789 10.9791 45.3319C10.1242 46.1849 9.6426 47.3422 9.63995 48.5498V59.4598C9.64524 60.6658 10.128 61.8205 10.9826 62.6713C11.8372 63.5222 12.994 63.9999 14.2 63.9998H20.39V70.9098C20.39 72.5409 21.0379 74.1052 22.1912 75.2585C23.3446 76.4119 24.9089 77.0598 26.54 77.0598H65.79C67.4202 77.0572 68.983 76.4084 70.1357 75.2556C71.2885 74.1028 71.9373 72.5401 71.94 70.9098V63.9998H77.94C79.1476 63.9998 80.3059 63.5208 81.1608 62.6678C82.0157 61.8148 82.4973 60.6575 82.5 59.4498V48.5198C82.4896 47.3277 82.0128 46.1871 81.1717 45.3422C80.3306 44.4973 79.192 44.0155 78 43.9998ZM20.28 60.9998H14.2C13.7879 60.9998 13.3927 60.8369 13.1004 60.5465C12.8081 60.2561 12.6426 59.8618 12.64 59.4498V48.5198C12.6504 48.1131 12.8193 47.7265 13.1108 47.4425C13.4022 47.1586 13.7931 46.9997 14.2 46.9998H20.28V60.9998ZM35.44 27.6998H56.89V32.5198H35.44V27.6998ZM68.94 70.9098C68.94 71.7453 68.6081 72.5465 68.0173 73.1372C67.4266 73.728 66.6254 74.0598 65.79 74.0598H26.54C25.7045 74.0598 24.9033 73.728 24.3126 73.1372C23.7218 72.5465 23.39 71.7453 23.39 70.9098V38.6798C23.3926 37.8452 23.7253 37.0455 24.3155 36.4554C24.9056 35.8652 25.7053 35.5325 26.54 35.5298H65.79C66.6246 35.5325 67.4243 35.8652 68.0144 36.4554C68.6046 37.0455 68.9373 37.8452 68.94 38.6798V43.9998V63.9998V70.9098ZM79.55 59.4598C79.5447 59.8684 79.3794 60.2586 79.0896 60.5465C78.7998 60.8345 78.4085 60.9973 78 60.9998H72V46.9998H78C78.412 46.9998 78.8072 47.1628 79.0995 47.4532C79.3918 47.7436 79.5573 48.1378 79.56 48.5498L79.55 59.4598Z" fill="black"/>
<path d="M36.91 49.2499C38.1637 49.2499 39.18 48.2336 39.18 46.9799C39.18 45.7262 38.1637 44.7099 36.91 44.7099C35.6563 44.7099 34.64 45.7262 34.64 46.9799C34.64 48.2336 35.6563 49.2499 36.91 49.2499Z" fill="black"/>
<path d="M57.1498 49.2499C58.4035 49.2499 59.4198 48.2336 59.4198 46.9799C59.4198 45.7262 58.4035 44.7099 57.1498 44.7099C55.8961 44.7099 54.8798 45.7262 54.8798 46.9799C54.8798 48.2336 55.8961 49.2499 57.1498 49.2499Z" fill="black"/>
<path d="M57.3998 59.5499C56.1714 61.1815 54.5774 62.5022 52.746 63.406C50.9145 64.3098 48.8966 64.7715 46.8544 64.754C44.8122 64.7365 42.8025 64.2403 40.9868 63.3052C39.1711 62.3702 37.6001 61.0223 36.3998 59.3699" fill="white"/>
<path d="M46.9999 66.2299C44.7063 66.2231 42.4466 65.6764 40.4035 64.634C38.3605 63.5916 36.5916 62.0829 35.2399 60.2299C35.1155 60.0716 35.0243 59.8899 34.9716 59.6955C34.9189 59.5012 34.9059 59.2983 34.9334 59.0988C34.9608 58.8993 35.0281 58.7075 35.1313 58.5346C35.2344 58.3617 35.3713 58.2113 35.5338 58.0924C35.6964 57.9736 35.8811 57.8887 36.0772 57.8427C36.2732 57.7968 36.4764 57.7908 36.6748 57.8251C36.8732 57.8594 37.0627 57.9332 37.2319 58.0423C37.4012 58.1514 37.5467 58.2934 37.6599 58.4599C38.7327 59.9327 40.1374 61.132 41.7601 61.9607C43.3828 62.7894 45.1778 63.2242 46.9999 63.2299C48.7869 63.2373 50.5507 62.826 52.1501 62.0289C53.7495 61.2318 55.1399 60.0712 56.2099 58.6399C56.4499 58.3216 56.8065 58.1118 57.2013 58.0564C57.5961 58.0011 57.9966 58.1049 58.3149 58.3449C58.6332 58.5849 58.843 58.9415 58.8984 59.3363C58.9537 59.7311 58.8499 60.1317 58.6099 60.4499C57.2599 62.2525 55.5068 63.7141 53.4908 64.7177C51.4748 65.7214 49.2519 66.2393 46.9999 66.2299Z" fill="black"/>
</svg>
