<svg width="92" height="92" viewBox="0 0 92 92" fill="none" xmlns="http://www.w3.org/2000/svg">
<path d="M74.8998 25C74.8998 22.1 72.5998 19.8 69.6998 19.8H15.4998C12.5998 19.8 10.2998 22.1 10.2998 25V31.7H74.8998V25ZM17.4998 28C16.2998 28 15.3998 27.1 15.3998 25.9C15.3998 24.7 16.2998 23.8 17.4998 23.8C18.6998 23.8 19.5998 24.7 19.5998 25.9C19.5998 27.1 18.6998 28 17.4998 28ZM24.6998 28C23.4998 28 22.5998 27.1 22.5998 25.9C22.5998 24.7 23.4998 23.8 24.6998 23.8C25.8998 23.8 26.7998 24.7 26.7998 25.9C26.7998 27.1 25.8998 28 24.6998 28ZM31.8998 28C30.6998 28 29.7998 27.1 29.7998 25.9C29.7998 24.7 30.6998 23.8 31.8998 23.8C33.0998 23.8 33.9998 24.7 33.9998 25.9C33.9998 27.1 33.0998 28 31.8998 28Z" fill="#E8EEFF"/>
<path d="M69.6998 16.8H60.1998H15.4998C10.9998 16.8 7.2998 20.5 7.2998 25V33.2V74.2C7.2998 78.7 10.9998 82.4 15.4998 82.4H69.7998C74.2998 82.4 77.9998 78.7 77.9998 74.2V33.2V27.5V25C77.8998 20.5 74.2998 16.8 69.6998 16.8ZM10.2998 25C10.2998 22.1 12.5998 19.8 15.4998 19.8H69.7998C72.6998 19.8 74.9998 22.1 74.9998 25V31.7H10.2998V25ZM74.8998 74.2C74.8998 77.1 72.5998 79.4 69.6998 79.4H15.4998C12.5998 79.4 10.2998 77.1 10.2998 74.2V34.7H74.8998V74.2Z" fill="black"/>
<path d="M17.4998 23.7999C16.2998 23.7999 15.3998 24.6998 15.3998 25.8998C15.3998 27.0998 16.2998 27.9998 17.4998 27.9998C18.6998 27.9998 19.5998 27.0998 19.5998 25.8998C19.5998 24.6998 18.6998 23.7999 17.4998 23.7999Z" fill="#0080FF"/>
<path d="M24.7 27.9998C25.8598 27.9998 26.8 27.0596 26.8 25.8998C26.8 24.7401 25.8598 23.7999 24.7 23.7999C23.5402 23.7999 22.6 24.7401 22.6 25.8998C22.6 27.0596 23.5402 27.9998 24.7 27.9998Z" fill="#0080FF"/>
<path d="M31.9 27.9998C33.0598 27.9998 34 27.0596 34 25.8998C34 24.7401 33.0598 23.7999 31.9 23.7999C30.7403 23.7999 29.8 24.7401 29.8 25.8998C29.8 27.0596 30.7403 27.9998 31.9 27.9998Z" fill="#0080FF"/>
<path d="M40.4506 66.145L38.612 64.5009C35.2888 61.5458 31.4713 58.219 30.6529 57.6328C30.1339 57.3464 29.7386 56.879 29.5423 56.3198C29.346 55.7606 29.3625 55.1486 29.5887 54.6008C29.8148 54.0529 30.2348 53.6075 30.7684 53.3496C31.302 53.0916 31.9119 53.0392 32.4817 53.2023C32.9931 53.3651 33.4752 53.507 39.9645 59.2782L52.6436 44.4779C53.06 43.9915 53.6526 43.6904 54.291 43.6409C54.9294 43.5914 55.5614 43.7975 56.0478 44.214C56.5342 44.6304 56.8353 45.223 56.8848 45.8614C56.9343 46.4998 56.7282 47.1317 56.3117 47.6182L40.4506 66.145Z" fill="#0084FF"/>
<path d="M86.7999 8.00005C86.6999 7.90005 86.4999 7.90005 86.3999 7.90005C85.8999 7.70005 85.3999 7.50005 84.9999 7.30005C84.2999 7.00005 83.6999 6.80005 82.9999 6.60005C82.6999 6.50005 82.5999 6.30005 82.4999 6.00005C82.3999 5.70005 82.2999 5.40005 82.1999 5.10005C81.8999 4.10005 81.4999 3.20005 81.1999 2.20005C81.1999 2.10005 81.0999 2.00005 80.9999 2.00005C80.8999 2.00005 80.8999 2.10005 80.7999 2.20005C80.7999 2.30005 80.7999 2.40005 80.6999 2.60005C80.3999 3.30005 80.1999 4.00005 79.8999 4.70005C79.6999 5.10005 79.5999 5.60005 79.3999 6.00005C79.2999 6.20005 79.1999 6.40005 78.8999 6.50005C78.5999 6.60005 78.3999 6.70005 78.0999 6.80005C77.5999 7.00005 77.1999 7.10005 76.6999 7.30005C76.1999 7.50005 75.6999 7.70005 75.1999 7.90005C75.0999 7.90005 74.9999 8.00005 74.9999 8.10005C75.0999 8.20005 75.0999 8.30005 75.1999 8.30005C75.4999 8.40005 75.7999 8.50005 76.0999 8.60005C76.5999 8.80005 77.0999 9.00005 77.5999 9.20005C77.9999 9.40005 78.4999 9.50005 78.8999 9.70005C79.1999 9.80005 79.2999 10 79.3999 10.3C79.4999 10.6 79.5999 10.9001 79.6999 11.2001C79.9999 12.2001 80.3999 13.1001 80.6999 14.1001C80.6999 14.2001 80.7999 14.2 80.8999 14.4C80.9999 14.3 81.0999 14.2001 81.0999 14.2001C81.1999 13.9001 81.2999 13.7 81.3999 13.4C81.5999 12.9 81.6999 12.5 81.8999 12C82.0999 11.5 82.2999 11 82.3999 10.5C82.4999 10.1 82.6999 9.90005 83.0999 9.80005C83.1999 9.80005 83.1999 9.80005 83.2999 9.80005C84.4999 9.40005 85.5999 8.90005 86.7999 8.50005C86.8999 8.50005 86.9999 8.40005 86.9999 8.30005C86.9999 8.10005 86.8999 8.00005 86.7999 8.00005Z" fill="#0080FF"/>
</svg>
