<svg width="120" height="460" viewBox="0 0 120 460" fill="none" xmlns="http://www.w3.org/2000/svg">
<g clip-path="url(#clip0_2385_18207)">
<rect width="120" height="460" fill="white"/>
<path opacity="0.05" d="M100.58 434.71C97.5606 450.034 68.7151 448.667 57.7537 449.345C47.0188 450.013 19.487 449.076 17.3204 432.048C6.69871 435.039 -6.52746 437.9 6.26084 446.843C19.0491 455.786 37.1219 458.568 56.6591 459.864C77.1174 461.229 107.948 452.994 115.014 450.711C121.318 448.677 122.511 441.589 100.58 434.71Z" fill="#66636C"/>
<path opacity="0.05" d="M109.096 445.009C110.062 442.726 107.526 439.575 99.7199 438.17C97.6514 444.49 72.3692 450.303 49.9632 448.887C34.6535 447.89 22.8693 444.899 18.2567 435.368C10.1338 435.438 2.85644 440.922 9.12225 443.873C18.9362 448.498 39.0019 455.836 59.8904 455.926C72.8448 455.986 108.114 447.342 109.096 445.009Z" fill="#66636C"/>
<path opacity="0.05" d="M88.4183 437.86C87.9805 445.746 65.0839 448.318 60.3128 448.767C46.6186 450.043 20.4456 446.245 16.9805 437.94C11.3488 437.94 8.12539 439.326 14.3912 442.736C26.7341 449.445 41.0624 454.271 57.2252 452.396C63.0984 451.708 74.3996 451 80.1822 448.847C86.5235 446.494 88.8411 446.075 93.0913 442.965C95.8392 440.941 90.9095 439.166 88.4183 437.86Z" fill="#66636C"/>
<path d="M99.0792 231.698C98.9767 224.041 98.6618 216.385 98.0247 208.768C97.8489 206.684 97.6146 204.571 97.3803 202.437C98.1711 192.318 97.3803 181.969 96.897 171.82C96.8483 170.704 96.6419 169.61 96.2891 168.6C96.3258 163.934 96.399 159.259 96.5601 154.593C96.6428 152.986 96.3506 151.384 95.7253 150.017C95.7544 149.776 95.7544 149.53 95.7253 149.289C95.2273 145.301 93.2282 145.142 90.4748 144.972C88.7612 144.862 86.0371 143.507 84.3528 143.885C82.8883 144.214 81.4237 144.454 79.9591 144.653C74.7378 143.188 69.2895 143.277 63.9584 143.407L62.6916 143.457C61.9069 143.051 61.0696 142.868 60.2311 142.918L58.5542 142.998H58.4223C58.1152 142.9 57.7934 142.931 57.4996 143.088C54.7609 143.237 52.0295 143.457 49.298 143.726C49.2297 143.72 49.1612 143.72 49.0929 143.726C44.4429 143.267 37.6545 142.35 32.9825 145.221C31.9427 145.301 30.9028 145.411 29.8703 145.501C29.4901 145.218 29.0837 145.007 28.662 144.872C27.0605 144.298 25.3577 144.599 23.9167 145.71C22.5309 146.803 21.5158 148.593 21.0901 150.695C20.8154 152.194 20.8154 153.762 21.0901 155.261C20.9772 156.31 21.012 157.379 21.1926 158.411C21.0117 159.173 20.9058 159.964 20.8777 160.764C19.7011 195.445 18.942 230.15 18.6003 264.877C18.5934 265.64 18.6574 266.4 18.7907 267.14C18.6081 267.929 18.5458 268.76 18.6076 269.583C19.069 275.365 19.4058 281.158 19.6475 286.96C19.1165 291.244 18.8178 295.576 18.754 299.92C18.7211 301.154 18.8965 302.382 19.2667 303.51C19.0825 309.464 19.1289 315.427 19.4058 321.375L19.5669 326.18C19.1788 336.25 18.9005 346.289 20.4969 356.249C19.8452 370.735 19.2814 385.221 19.5596 399.747C19.5742 401.289 19.912 402.794 20.5335 404.083C20.0429 409.946 20.7385 416.316 20.8557 421.899C20.8729 422.845 21.0015 423.781 21.2365 424.671C21.112 428.389 21.0315 432.108 21.0242 435.837C21.0242 441.45 24.4147 444.112 27.6148 443.813C53.2451 450.492 90.8776 445.647 92.3129 442.756C93.5501 442.344 94.6411 441.352 95.3939 439.953C96.1467 438.555 96.513 436.839 96.4283 435.109C96.1134 416.167 96.3112 397.224 96.6041 378.282C96.8897 360.018 96.4429 341.394 98.1931 323.22C98.2918 322.078 98.1469 320.922 97.7757 319.889L97.9295 318.165V318.095C98.067 317.328 98.1334 316.541 98.1272 315.752V315.364H98.0833C98.0571 314.622 97.9984 313.883 97.9076 313.15C97.8175 312.52 97.6411 311.918 97.3876 311.376C97.5633 308.126 97.7343 304.875 97.9002 301.625C97.9747 300.459 97.8597 299.284 97.5633 298.186C97.9734 292.137 98.3713 286.089 98.757 280.041C98.881 278.478 98.5929 276.905 97.9441 275.605C98.6618 260.969 99.2696 246.344 99.0792 231.698Z" fill="white"/>
<path opacity="0.02" d="M99.4674 401.451C96.8019 324.684 99.775 347.036 99.4674 275.315C99.3429 246.134 96.2746 247.748 91.8369 247.748C84.47 247.748 73.6395 247.888 68.5281 247.748C58.1368 247.479 35.2307 247.459 20.8119 247.748C19.9258 268.615 20.5116 397.573 20.4091 410.204C20.0869 449.903 28.1934 440.452 38.6505 442.686C48.6616 444.783 58.7665 445.945 68.8942 446.165C83.2032 446.424 79.073 446.912 91.7344 439.186C93.8727 437.91 100.624 434.729 99.4674 401.451Z" fill="#66636C"/>
<path opacity="0.05" d="M100.302 248.936L83.8693 248.228C83.8693 248.228 91.9245 424.172 76.4805 446.394C85.1947 447.033 95.4615 445.537 98.149 440.602C100.836 435.667 100.302 248.936 100.302 248.936Z" fill="#66636C"/>
<path opacity="0.05" d="M101.379 248.936C101.379 248.936 96.6335 245.147 89.5449 246.822C89.9184 261.607 96.6335 429.007 84.5434 445.477C80.1496 451.459 98.6839 441.31 98.6839 441.31L101.379 248.936Z" fill="#66636C"/>
<path opacity="0.05" d="M31.7597 246.712L18 246.822L21.4417 441.489C21.4417 441.489 39.8516 446.374 46.6546 446.394C26.9266 427.641 31.7597 246.712 31.7597 246.712Z" fill="#66636C"/>
<path opacity="0.1" fill-rule="evenodd" clip-rule="evenodd" d="M95.8572 420.633C96.2526 421.331 95.6228 422.627 96.5895 422.996C95.3153 424.112 96.3258 425.318 95.1249 426.564C95.0119 426.36 94.8562 426.207 94.6782 426.126C94.583 427.123 94.1509 427.223 94.0044 428.05C93.3966 427.651 93.2722 428.489 92.5399 427.821C92.0492 425.827 92.6058 424.252 91.6465 422.457C92.0492 421.485 92.7072 420.756 93.4884 420.418C94.2696 420.08 95.1159 420.156 95.8572 420.633Z" fill="#F16EA3"/>
<path opacity="0.1" fill-rule="evenodd" clip-rule="evenodd" d="M69.2601 376.687C69.6555 377.385 69.0257 378.681 69.9924 379.05C68.7182 380.166 69.7214 381.373 68.5278 382.619C68.418 382.41 68.2611 382.256 68.081 382.18C67.9858 383.177 67.5538 383.277 67.4074 384.104C66.7996 383.705 66.6751 384.553 65.9428 383.875C65.4521 381.881 66.0086 380.306 65.0566 378.511C65.4567 377.538 66.1135 376.808 66.8939 376.47C67.6743 376.131 68.5201 376.208 69.2601 376.687Z" fill="#F16EA3"/>
<path opacity="0.1" fill-rule="evenodd" clip-rule="evenodd" d="M59.975 425.239C59.8871 425.787 59.6967 426.076 59.2427 425.807C59.1828 425.585 59.1828 425.341 59.2427 425.119C59.4896 425.041 59.7487 425.084 59.975 425.239Z" fill="#F16EA3"/>
<path opacity="0.1" fill-rule="evenodd" clip-rule="evenodd" d="M30.3096 337.037C30.3096 337.237 30.0753 337.197 29.9142 337.227C30.3755 338.164 30.0021 338.363 30.2657 339.759C29.6799 340.307 28.0688 341.543 27.4463 340.177C26.9191 340.177 26.6262 340.806 25.8353 340.397C25.2934 338.922 24.3268 337.466 24.8687 335.502C26.2015 335.003 27.2121 333.827 28.0542 336.09C28.9915 335.322 30.3755 335.921 30.3096 337.037Z" fill="#F16EA3"/>
<path opacity="0.1" fill-rule="evenodd" clip-rule="evenodd" d="M63.2925 437.183C63.8312 436.608 64.4824 436.262 65.1648 436.187C65.8472 436.113 66.5306 436.313 67.1297 436.764C67.3002 437.751 67.5609 438.706 67.9059 439.605C67.8104 439.685 67.728 439.792 67.6638 439.917C67.5996 440.042 67.5548 440.183 67.5324 440.333C66.6976 439.506 66.4559 441.43 65.7017 441.699C65.8628 442.527 66.7708 442.946 66.1923 444.182C65.941 444.248 65.6808 444.202 65.45 444.051C65.2193 443.9 65.0302 443.652 64.9108 443.344C65.3941 442.895 64.9768 441.988 65.5992 442.098C64.9386 441.615 64.3797 440.91 63.976 440.049C63.5722 439.189 63.3369 438.202 63.2925 437.183Z" fill="#F16EA3"/>
<path opacity="0.1" fill-rule="evenodd" clip-rule="evenodd" d="M74.4229 397.264C74.335 397.802 74.1446 398.091 73.6906 397.822C73.6324 397.603 73.6324 397.363 73.6906 397.144C73.9372 397.061 74.1977 397.104 74.4229 397.264Z" fill="#F16EA3"/>
<path opacity="0.1" fill-rule="evenodd" clip-rule="evenodd" d="M61.8428 404.482C61.9673 402.607 66.7784 400.743 69.0192 399.696C70.1689 400.364 70.4399 400.903 71.7141 401.341C71.7001 401.731 71.7972 402.113 71.985 402.408C70.7401 402.637 71.985 404.621 71.6554 405.738C72.3877 406.286 73.3763 405.618 73.8523 407.383C73.6912 408.15 72.7246 408.38 72.2853 408.111C72.2853 407.114 71.3113 406.835 71.8605 406.216C70.3227 406.944 63.4026 406.206 61.8428 404.482Z" fill="#F16EA3"/>
<path opacity="0.1" fill-rule="evenodd" clip-rule="evenodd" d="M73.0246 400.892C73.4201 401.59 72.7903 402.887 73.7569 403.246C72.4827 404.362 73.4933 405.569 72.2924 406.815C72.1794 406.611 72.0237 406.457 71.8457 406.376C71.7505 407.373 71.3185 407.473 71.172 408.3C70.5642 407.901 70.4397 408.749 69.7074 408.071C69.2168 406.077 69.7733 404.512 68.814 402.707C69.2166 401.735 69.8751 401.007 70.6567 400.67C71.4382 400.334 72.2845 400.413 73.0246 400.892Z" fill="#F16EA3"/>
<path opacity="0.1" fill-rule="evenodd" clip-rule="evenodd" d="M70.3736 379.129C70.2857 379.668 70.0953 379.957 69.6413 379.687C69.6082 379.58 69.5913 379.465 69.5913 379.349C69.5913 379.232 69.6082 379.117 69.6413 379.01C69.888 378.927 70.1482 378.97 70.3736 379.129Z" fill="#F16EA3"/>
<path opacity="0.1" fill-rule="evenodd" clip-rule="evenodd" d="M61.9157 399.487C62.0255 399.557 61.9157 399.736 61.9157 399.876C62.5235 399.806 62.5455 400.185 63.3803 400.424C63.5414 401.102 63.8489 402.797 62.9701 402.887C62.853 403.315 63.1166 403.764 62.7212 404.283C61.8132 404.233 60.8246 404.542 59.8946 403.435C59.8946 402.179 59.5211 400.963 60.9271 401.023C60.7074 399.996 61.3299 399.059 61.9157 399.487Z" fill="#F16EA3"/>
<path opacity="0.1" fill-rule="evenodd" clip-rule="evenodd" d="M59.748 374.783C61.2126 373.596 62.6773 372.43 65.3867 374.175C65.8994 375.929 65.7382 376.627 66.5217 378.352C66.3818 378.466 66.2612 378.62 66.1678 378.802C66.0745 378.984 66.0104 379.191 65.9799 379.409C64.7496 378.192 64.3982 381.014 63.2851 381.403C63.5267 382.619 64.8595 383.227 64.0174 385.052C63.6487 385.145 63.2679 385.076 62.9297 384.856C62.5916 384.635 62.3134 384.275 62.1353 383.825C62.8676 383.167 62.2305 381.831 63.1459 381.991C62.173 381.287 61.3494 380.254 60.7543 378.992C60.1593 377.73 59.8127 376.28 59.748 374.783Z" fill="#F16EA3"/>
<path opacity="0.1" fill-rule="evenodd" clip-rule="evenodd" d="M58.8765 421.181C59.1255 421.63 58.7227 422.458 59.3305 422.707C58.5103 423.425 59.162 424.202 58.3858 425.01C58.3156 424.877 58.2153 424.778 58.1002 424.731C58.0416 425.349 54.7537 425.438 54.6585 425.977C54.263 425.718 54.1971 426.256 53.7284 425.827C53.4209 424.541 53.7724 423.524 53.1572 422.358C53.6479 421.201 57.6609 420.553 58.8765 421.181Z" fill="#F16EA3"/>
<path opacity="0.1" fill-rule="evenodd" clip-rule="evenodd" d="M52.0515 433.195C51.9636 433.743 51.7732 434.022 51.3192 433.753C51.2556 433.535 51.2556 433.292 51.3192 433.075C51.5658 432.992 51.8263 433.034 52.0515 433.195Z" fill="#F16EA3"/>
<path opacity="0.1" fill-rule="evenodd" clip-rule="evenodd" d="M96.275 432.676C96.2017 432.925 95.9015 432.736 95.6818 432.676C95.9601 434.141 95.3816 434.201 95.2425 436.135C94.2319 436.524 88.1173 437.232 87.7145 435.138C86.9822 434.839 86.3744 435.487 85.4371 434.52C85.232 432.317 84.4412 429.914 85.8984 427.691C87.8903 427.781 93.2213 426.814 93.5435 430.203C95.1253 429.725 96.7729 431.26 96.275 432.676Z" fill="#F16EA3"/>
<path opacity="0.1" fill-rule="evenodd" clip-rule="evenodd" d="M58.2466 369.817C58.437 369.946 58.2978 370.246 58.2466 370.495C59.323 370.385 59.367 371.053 60.7949 371.492C61.0879 372.678 61.6224 375.699 60.0626 375.859C59.843 376.626 60.3263 377.424 59.6233 378.341C58.0049 378.251 56.2328 378.8 54.5924 376.836C54.6437 374.602 53.9261 372.429 56.4158 372.549C56.0863 370.704 57.2067 369.059 58.2466 369.817Z" fill="#F16EA3"/>
<path opacity="0.1" fill-rule="evenodd" clip-rule="evenodd" d="M82.0098 401.989C82.5443 403.395 83.0716 404.811 82.105 407.223C81.3734 407.406 80.6604 407.707 79.9813 408.12C79.9275 407.988 79.8543 407.872 79.7661 407.779C79.678 407.687 79.5767 407.62 79.4687 407.583C80.1205 406.486 78.7364 406.057 78.5607 405.01C77.9529 405.19 77.594 406.406 76.7153 405.549C76.683 405.205 76.7315 404.855 76.8539 404.551C76.9762 404.246 77.1661 404.002 77.3964 403.854C77.7039 404.532 78.3923 404.013 78.2751 404.851C78.6664 403.979 79.2151 403.259 79.8688 402.758C80.5226 402.257 81.2596 401.992 82.0098 401.989Z" fill="#F16EA3"/>
<path opacity="0.1" fill-rule="evenodd" clip-rule="evenodd" d="M80.8309 437.422C79.5933 437.352 78.3484 437.262 77.2939 435.059C77.5356 433.882 77.8431 433.593 77.9164 432.307C78.1537 432.313 78.3849 432.204 78.5681 431.998C78.9196 433.234 80.0327 431.899 80.765 432.218C80.992 431.45 80.3915 430.493 81.4973 429.935C81.7321 430.036 81.9336 430.246 82.0672 430.528C82.2008 430.81 82.2582 431.146 82.2296 431.48C81.6071 431.48 81.5559 432.477 81.0653 431.968C81.4203 432.81 81.5873 433.774 81.5457 434.743C81.504 435.711 81.2556 436.642 80.8309 437.422Z" fill="#F16EA3"/>
<path opacity="0.1" fill-rule="evenodd" clip-rule="evenodd" d="M36.7029 348.841C36.8347 349.07 36.6297 349.479 36.9373 349.608C36.5199 349.967 36.8494 350.366 36.4612 350.765C36.4228 350.701 36.3721 350.653 36.3147 350.625C36.3147 350.934 36.1464 350.985 36.0951 351.254C35.8974 351.124 35.8681 351.393 35.6338 351.174C35.4727 350.536 35.6337 350.017 35.3408 349.439C35.4722 349.126 35.6847 348.892 35.9367 348.781C36.1887 348.67 36.4619 348.691 36.7029 348.841Z" fill="#F16EA3"/>
<path opacity="0.1" fill-rule="evenodd" clip-rule="evenodd" d="M47.9358 362.161C47.8845 362.5 47.7673 362.679 47.5037 362.51C47.463 362.375 47.463 362.225 47.5037 362.091C47.6495 362.054 47.8003 362.079 47.9358 362.161Z" fill="#F16EA3"/>
<path opacity="0.1" fill-rule="evenodd" clip-rule="evenodd" d="M43.1323 380.026C43.464 379.667 43.8669 379.45 44.2896 379.404C44.7122 379.358 45.1354 379.484 45.5049 379.767C45.6162 380.375 45.7784 380.964 45.9883 381.522C45.9288 381.57 45.8777 381.635 45.8385 381.712C45.7993 381.79 45.7729 381.878 45.7612 381.97C45.234 381.452 45.0876 382.648 44.6189 382.818C44.7214 383.326 45.2852 383.585 44.9264 384.353C44.7711 384.395 44.6102 384.367 44.4677 384.273C44.3251 384.18 44.2086 384.026 44.1356 383.835C44.4285 383.566 44.1721 382.997 44.5603 383.067C44.1513 382.768 43.8054 382.332 43.5554 381.8C43.3054 381.268 43.1598 380.657 43.1323 380.026Z" fill="#F16EA3"/>
<path opacity="0.1" fill-rule="evenodd" clip-rule="evenodd" d="M72.834 390.844C72.3506 391.143 71.8673 390.315 71.3694 391.222C71.1643 389.757 70.227 390.604 69.9048 389.228C70.0487 389.142 70.1746 389.008 70.2709 388.839C69.7949 388.6 69.8461 388.132 69.4507 387.842C69.8534 387.274 69.4507 387.055 70.0072 386.407C71.2009 386.207 71.8673 387.005 73.1049 386.287C73.8885 387.314 73.8885 389.059 72.834 390.844Z" fill="#F16EA3"/>
<path opacity="0.1" fill-rule="evenodd" clip-rule="evenodd" d="M36.3439 370.575C36.2926 370.914 36.1755 371.094 35.9119 370.924C35.8712 370.79 35.8712 370.639 35.9119 370.505C36.0577 370.468 36.2084 370.493 36.3439 370.575Z" fill="#F16EA3"/>
<path opacity="0.1" fill-rule="evenodd" clip-rule="evenodd" d="M59.0597 346.698C59.0597 346.817 58.906 346.748 58.8108 346.698C58.9719 347.306 58.7302 347.356 58.7376 348.173C58.3275 348.383 57.2729 348.812 57.0386 347.934C56.731 347.845 56.4967 348.144 56.072 347.775C55.9255 346.857 55.5228 345.88 56.072 344.873C56.9068 344.823 57.6244 344.325 57.8661 345.741C58.5105 345.511 59.2428 346.08 59.0597 346.698Z" fill="#F16EA3"/>
<path opacity="0.1" fill-rule="evenodd" clip-rule="evenodd" d="M23.7632 289.95C23.7632 289.472 25.2936 289.372 25.733 289.223C25.9233 289.432 26.1266 289.619 26.3408 289.781C26.348 289.887 26.3786 289.988 26.4286 290.07C26.1723 290.07 26.4946 290.648 26.4286 290.917C26.5971 291.097 26.7802 290.977 26.934 291.456C26.934 291.645 26.7289 291.655 26.6264 291.566C26.5239 291.476 26.3921 291.187 26.4873 291.057C25.5307 290.964 24.6007 290.586 23.7632 289.95Z" fill="#F16EA3"/>
<path opacity="0.1" fill-rule="evenodd" clip-rule="evenodd" d="M49.7227 370.226C49.9644 370.665 49.5762 371.453 50.1621 371.692C49.3712 372.38 50.001 373.127 49.254 373.905C49.1877 373.777 49.0925 373.683 48.9831 373.636C48.9172 374.224 48.6536 374.314 48.5657 374.822C48.1849 374.573 48.1263 375.101 47.6796 374.683C47.372 373.447 47.6796 372.469 47.123 371.363C47.3723 370.763 47.7782 370.314 48.2598 370.103C48.7415 369.892 49.2638 369.936 49.7227 370.226Z" fill="#F16EA3"/>
<path opacity="0.1" fill-rule="evenodd" clip-rule="evenodd" d="M30.5588 369.149C30.5076 369.488 30.3831 369.658 30.1268 369.498C30.0892 369.36 30.0892 369.208 30.1268 369.07C30.2734 369.031 30.4251 369.059 30.5588 369.149Z" fill="#F16EA3"/>
<path opacity="0.1" fill-rule="evenodd" clip-rule="evenodd" d="M69.1212 333.697C69.2383 333.767 69.1212 333.956 69.1212 334.115C69.7875 334.046 69.8095 334.455 70.6956 334.724C70.8787 335.462 71.2082 337.336 70.2489 337.435C70.1171 337.914 70.41 338.432 69.9706 338.971C68.9747 338.921 67.8763 339.26 66.8584 338.044C66.8584 336.658 66.4483 335.312 67.9934 335.382C67.7884 334.255 68.4767 333.218 69.1212 333.697Z" fill="#F16EA3"/>
<path opacity="0.1" fill-rule="evenodd" clip-rule="evenodd" d="M28.0761 320.188C28.1932 320.268 28.0761 320.457 28.0761 320.607C28.7425 320.537 28.8084 320.946 29.6579 321.225C29.8336 321.963 30.1705 323.837 29.2038 323.927C29.072 324.405 29.3649 324.924 28.9329 325.462C27.9297 325.412 26.8312 325.751 25.8133 324.535C25.8499 323.149 25.4033 321.803 26.9484 321.873C26.736 320.746 27.4317 319.71 28.0761 320.188Z" fill="#F16EA3"/>
<path opacity="0.1" fill-rule="evenodd" clip-rule="evenodd" d="M35.8096 372.38C36.0513 372.809 35.6632 373.596 36.249 373.845C35.4581 374.533 36.0879 375.281 35.3483 376.048C35.2769 375.924 35.1801 375.83 35.07 375.779C35.0114 376.377 34.7405 376.457 34.6526 376.976C34.2718 376.727 34.2132 377.245 33.7665 376.826C33.4663 375.6 33.7665 374.623 33.2173 373.506C33.4664 372.909 33.8714 372.462 34.3517 372.253C34.8321 372.045 35.3526 372.09 35.8096 372.38Z" fill="#F16EA3"/>
<path opacity="0.1" fill-rule="evenodd" clip-rule="evenodd" d="M43.0149 367.096C42.9636 367.425 42.8465 367.604 42.5829 367.445C42.5453 367.306 42.5453 367.154 42.5829 367.016C42.7294 366.977 42.8812 367.005 43.0149 367.096Z" fill="#F16EA3"/>
<path opacity="0.1" fill-rule="evenodd" clip-rule="evenodd" d="M62.1719 361.732C62.2891 361.812 62.1719 362.001 62.1719 362.151C62.8383 362.091 62.9043 362.5 63.7537 362.769C63.9295 363.507 64.2663 365.381 63.2997 365.471C63.1679 365.949 63.4608 366.467 63.0288 367.016C62.0255 366.956 60.9271 367.295 59.9092 366.079C59.9092 364.693 59.499 363.357 61.0442 363.427C60.8025 362.3 61.4982 361.273 62.1719 361.732Z" fill="#F16EA3"/>
<path opacity="0.1" fill-rule="evenodd" clip-rule="evenodd" d="M22.2471 300.089C22.5832 299.738 22.9867 299.527 23.409 299.481C23.8312 299.435 24.2542 299.556 24.627 299.83C24.731 300.443 24.891 301.036 25.103 301.595C25.0435 301.643 24.9924 301.707 24.9532 301.785C24.914 301.862 24.8876 301.951 24.876 302.043C24.356 301.525 24.2096 302.721 23.741 302.891C23.8435 303.399 24.4001 303.658 24.0412 304.426C23.886 304.468 23.725 304.44 23.5824 304.346C23.4398 304.253 23.3233 304.099 23.2503 303.908C23.5432 303.629 23.287 303.07 23.6751 303.14C23.2651 302.841 22.9185 302.403 22.6685 301.868C22.4184 301.334 22.2733 300.722 22.2471 300.089Z" fill="#F16EA3"/>
<path opacity="0.1" fill-rule="evenodd" clip-rule="evenodd" d="M44.8097 419.077C44.3799 419.141 43.9456 419.039 43.5569 418.781C43.1681 418.524 42.8409 418.122 42.6128 417.622C42.7933 417.075 42.9213 416.498 42.9936 415.907C43.1406 415.915 43.2843 415.847 43.3963 415.717C43.616 416.485 44.2897 415.658 44.773 415.857C44.9195 415.388 44.546 414.79 45.2124 414.441C45.3633 414.506 45.4923 414.642 45.5757 414.825C45.659 415.008 45.6912 415.226 45.6664 415.438C45.2783 415.438 45.249 416.067 44.9341 415.747C45.152 416.26 45.2563 416.846 45.2342 417.437C45.2121 418.028 45.0646 418.598 44.8097 419.077Z" fill="#F16EA3"/>
<path opacity="0.1" fill-rule="evenodd" clip-rule="evenodd" d="M74.7017 303.3C74.9727 303.131 75.3169 303.659 75.5512 303.131C75.7782 304.028 76.2835 303.549 76.5618 304.416C76.4787 304.455 76.4085 304.533 76.364 304.636C76.6716 304.796 76.6643 305.075 76.9206 305.254C76.7229 305.583 76.9864 305.733 76.6862 306.102C75.9539 306.172 75.5293 305.663 74.8336 306.042C74.5576 305.695 74.39 305.217 74.3654 304.707C74.3409 304.196 74.4613 303.693 74.7017 303.3Z" fill="#F16EA3"/>
<path opacity="0.1" fill-rule="evenodd" clip-rule="evenodd" d="M79.2123 360.735C79.5785 360.975 79.7396 361.304 79.4393 361.792C79.2712 361.823 79.1004 361.774 78.9561 361.652C78.9551 361.314 79.0464 360.987 79.2123 360.735Z" fill="#F16EA3"/>
<path opacity="0.1" fill-rule="evenodd" clip-rule="evenodd" d="M84.5871 417.881C84.7628 417.951 84.6457 418.33 84.6311 418.599C85.627 418.121 85.6928 418.809 87.0329 418.789C87.3551 419.955 87.985 422.986 86.5497 423.674C86.3812 424.561 86.8645 425.239 86.2421 426.455C84.7775 426.914 83.1225 428.09 81.5115 426.565C81.4676 424.162 80.7059 422.109 83.02 421.391C82.6172 419.556 83.5838 417.423 84.5871 417.881Z" fill="#F16EA3"/>
<path opacity="0.1" fill-rule="evenodd" clip-rule="evenodd" d="M67.5249 416.276C67.8984 416.526 68.0521 416.844 67.7592 417.343C67.5887 417.376 67.4149 417.327 67.2686 417.204C67.2758 416.864 67.3661 416.538 67.5249 416.276Z" fill="#F16EA3"/>
<path opacity="0.1" fill-rule="evenodd" clip-rule="evenodd" d="M78.6261 386.597C78.7799 386.726 78.6261 387.055 78.5456 387.324C79.5635 387.185 79.5123 387.893 80.7938 388.321C80.9036 389.597 80.9987 392.838 79.5268 393.037C79.2193 393.874 79.5268 394.712 78.7945 395.719C77.33 395.669 75.5725 396.307 74.2983 394.243C74.6498 391.831 74.2983 389.518 76.5831 389.578C76.4879 387.654 77.7547 385.809 78.6261 386.597Z" fill="#F16EA3"/>
<path opacity="0.1" fill-rule="evenodd" clip-rule="evenodd" d="M90.834 430.263C89.5305 429.645 88.2417 428.987 88.0366 425.777C88.7689 424.411 89.2449 424.182 89.8674 422.607C90.1396 422.723 90.4346 422.687 90.6875 422.507C90.5484 424.212 92.2766 423.025 92.9869 423.753C93.5581 422.906 93.3165 421.45 94.6932 421.221C95.1985 421.629 95.1252 422.946 94.8323 423.474C94.1586 423.215 93.6899 424.471 93.3677 423.573C93.5215 425.807 92.4451 428.618 90.834 430.263Z" fill="#F16EA3"/>
<path opacity="0.1" fill-rule="evenodd" clip-rule="evenodd" d="M72.7458 369.707C73.3389 369.358 74.0932 370.495 74.6058 369.349C75.0892 371.343 76.1949 370.256 76.8027 372.14C76.6286 372.237 76.4805 372.404 76.378 372.618C77.0371 372.977 77.0371 373.615 77.5863 373.974C77.1543 374.692 77.7327 375.021 77.0737 375.809C75.5432 375.968 74.5546 374.862 73.0387 375.679C72.4482 374.916 72.0903 373.878 72.036 372.771C71.9818 371.665 72.2351 370.571 72.7458 369.707Z" fill="#F16EA3"/>
<path opacity="0.1" fill-rule="evenodd" clip-rule="evenodd" d="M96.1132 340.058C96.4794 340.297 96.6405 340.626 96.3476 341.114C96.177 341.154 96.0018 341.104 95.8569 340.975C95.8606 340.638 95.9513 340.313 96.1132 340.058Z" fill="#F16EA3"/>
<path opacity="0.1" fill-rule="evenodd" clip-rule="evenodd" d="M39.1487 354.275C39.2072 354.175 39.2877 354.275 39.3683 354.335C39.4488 353.687 39.6686 353.736 39.9615 352.929C40.3789 352.929 41.426 352.929 41.2869 353.836C41.5139 354.055 41.8215 353.836 42.0192 354.375C41.8141 355.371 41.7995 356.448 40.9866 357.206C40.2543 356.927 39.5221 357.126 39.8076 355.65C39.1998 355.66 38.7898 354.813 39.1487 354.275Z" fill="#F16EA3"/>
<path opacity="0.1" fill-rule="evenodd" clip-rule="evenodd" d="M67.0563 389.268C66.5657 387.045 66.0969 384.802 67.9862 381.671C69.3629 381.422 69.817 381.801 71.2377 381.183C71.2858 381.399 71.3667 381.6 71.4752 381.772C71.5836 381.944 71.7172 382.082 71.8674 382.18C70.6957 383.516 72.5998 384.662 72.6437 386.227C73.5664 386.227 74.3279 384.592 75.419 386.158C75.396 386.667 75.2545 387.154 75.0149 387.546C74.7752 387.939 74.45 388.217 74.0863 388.341C73.786 387.254 72.6949 387.743 73.0317 386.567C72.2891 387.676 71.3496 388.507 70.3032 388.98C69.2569 389.453 68.1389 389.552 67.0563 389.268Z" fill="#F16EA3"/>
<path opacity="0.1" fill-rule="evenodd" clip-rule="evenodd" d="M45.6733 354.753C45.893 354.613 46.1786 355.042 46.4056 354.613C46.5887 355.351 46.9988 354.952 47.2258 355.61C47.1611 355.65 47.1074 355.716 47.072 355.8C47.3137 355.929 47.3137 356.159 47.526 356.308C47.3576 356.568 47.5773 356.697 47.3283 356.996C46.7571 357.056 46.3837 356.637 45.8125 356.947C45.5958 356.668 45.4618 356.29 45.4362 355.886C45.4105 355.481 45.4949 355.078 45.6733 354.753Z" fill="#F16EA3"/>
<path opacity="0.1" fill-rule="evenodd" clip-rule="evenodd" d="M81.6284 332.899C82.0018 333.139 82.1557 333.468 81.8627 333.956C81.6921 334 81.5157 333.949 81.3721 333.817C81.3793 333.48 81.4696 333.157 81.6284 332.899Z" fill="#F16EA3"/>
<path opacity="0.1" fill-rule="evenodd" clip-rule="evenodd" d="M45.3293 337.805C45.4172 337.665 45.5271 337.805 45.6296 337.885C45.7394 337.017 48.8224 337.077 49.2178 336.01C49.7744 335.951 51.1437 336.01 50.9826 337.227C51.2828 337.506 51.7149 337.226 51.9858 337.934C51.7149 339.21 51.6856 340.686 50.6091 341.713C49.6571 341.344 48.6247 341.593 49.0348 339.629C48.1999 339.609 44.8533 338.473 45.3293 337.805Z" fill="#F16EA3"/>
<path opacity="0.1" fill-rule="evenodd" clip-rule="evenodd" d="M50.1769 360.037C50.5797 359.798 51.0996 360.576 51.4511 359.788C51.7807 361.134 52.5423 360.416 52.9524 361.712C52.8341 361.778 52.7342 361.894 52.6667 362.041C53.1134 362.291 53.1135 362.7 53.4942 362.969C53.194 363.457 53.5968 363.686 53.1428 364.235C52.0883 364.344 51.4072 363.577 50.3673 364.145C49.9632 363.617 49.7194 362.902 49.6841 362.142C49.6489 361.381 49.8248 360.63 50.1769 360.037Z" fill="#F16EA3"/>
<path opacity="0.1" fill-rule="evenodd" clip-rule="evenodd" d="M58.9131 367.484C59.2793 367.724 59.4403 368.053 59.1401 368.541C59.0567 368.563 58.9711 368.562 58.8881 368.538C58.8051 368.514 58.7264 368.467 58.6567 368.402C58.6571 368.063 58.7484 367.737 58.9131 367.484Z" fill="#F16EA3"/>
<path opacity="0.1" fill-rule="evenodd" clip-rule="evenodd" d="M49.1075 356.956C49.1808 356.956 49.1075 357.136 49.1075 357.245C49.503 357.056 49.5322 357.325 50.0595 357.315C50.1913 357.784 50.4329 358.97 49.8691 359.239C49.8031 359.598 49.9936 359.867 49.752 360.346C49.1588 360.525 48.5143 360.984 47.8846 360.346C47.8846 359.399 47.5624 358.591 48.4778 358.352C48.3313 357.624 48.7121 356.747 49.1075 356.956Z" fill="#F16EA3"/>
<path opacity="0.1" fill-rule="evenodd" clip-rule="evenodd" d="M76.2832 439.326C76.0016 438.476 75.9118 437.531 76.0253 436.612C76.1387 435.692 76.4502 434.839 76.9203 434.161C77.66 434.172 78.3979 434.058 79.1171 433.822C79.1492 433.968 79.2037 434.103 79.2769 434.218C79.3501 434.333 79.4404 434.426 79.5418 434.49C78.7436 435.397 80.0544 436.185 80.0691 437.242C80.6988 437.242 81.2115 436.135 81.9584 437.192C81.942 437.54 81.8453 437.871 81.6822 438.14C81.5192 438.408 81.2981 438.6 81.0504 438.687C80.8527 437.94 80.1057 438.269 80.3181 437.481C79.8154 438.229 79.1814 438.79 78.4756 439.113C77.7698 439.435 77.0154 439.509 76.2832 439.326Z" fill="#F16EA3"/>
<path opacity="0.1" fill-rule="evenodd" clip-rule="evenodd" d="M86.0443 412.268C86.1981 413.425 85.0557 414.123 85.9052 415.528C84.133 415.389 84.7555 417.731 82.976 417.821C82.9353 417.478 82.8293 417.155 82.6684 416.884C82.2071 417.801 81.7018 417.503 81.2038 418.24C80.7059 417.174 80.2812 417.971 79.7393 416.496C79.9736 413.874 81.1526 412.757 80.8157 409.845C82.3901 408.719 84.4186 409.267 86.0443 412.268Z" fill="#F16EA3"/>
<path opacity="0.1" fill-rule="evenodd" clip-rule="evenodd" d="M84.873 382.13C85.2465 382.369 85.4002 382.698 85.1073 383.187C84.9366 383.23 84.7604 383.18 84.6167 383.047C84.6239 382.711 84.7142 382.388 84.873 382.13Z" fill="#F16EA3"/>
<path opacity="0.1" fill-rule="evenodd" clip-rule="evenodd" d="M75.5437 434.411C75.6975 434.541 75.5437 434.88 75.4632 435.149C76.4884 434.999 76.4371 435.707 77.7113 436.146C77.8211 437.412 77.9163 440.652 76.4444 440.862C76.1368 441.689 76.4444 442.536 75.7121 443.543C74.2475 443.494 72.49 444.131 71.2231 442.058C71.5746 439.655 71.2231 437.342 73.5006 437.402C73.4054 435.438 74.6723 433.623 75.5437 434.411Z" fill="#F16EA3"/>
<path opacity="0.1" fill-rule="evenodd" clip-rule="evenodd" d="M75.0379 413.365C75.1771 413.145 75.3602 413.365 75.5286 413.504C75.7117 412.059 76.195 412.158 76.8541 410.384C77.7695 410.284 80.0542 410.304 79.7833 412.377C80.2812 412.856 80.9622 412.378 81.4455 413.564C80.9915 415.678 80.9549 418.15 79.1534 419.845C77.5717 419.227 75.8508 419.655 76.5392 416.385C75.1625 416.435 74.2471 414.571 75.0379 413.365Z" fill="#F16EA3"/>
<path opacity="0.1" fill-rule="evenodd" clip-rule="evenodd" d="M86.2642 429.705C84.968 429.087 83.6718 428.429 83.4741 425.219C84.2064 423.853 84.6751 423.623 85.2975 422.048C85.5723 422.164 85.8694 422.128 86.125 421.948C85.9786 423.653 87.7068 422.467 88.4171 423.205C88.9883 422.357 88.7467 420.901 90.1234 420.662C90.6287 421.071 90.5627 422.387 90.2625 422.916C89.5888 422.666 89.1201 423.913 88.7979 423.015C88.959 425.248 87.8752 428.06 86.2642 429.705Z" fill="#F16EA3"/>
<path opacity="0.1" fill-rule="evenodd" clip-rule="evenodd" d="M30.1705 402.976C30.5806 402.727 31.1005 403.514 31.452 402.717C31.7816 404.063 32.5432 403.345 32.9166 404.641C32.7981 404.712 32.6984 404.83 32.631 404.98C33.0851 405.229 33.0777 405.638 33.4659 405.907C33.1656 406.406 33.5611 406.625 33.107 407.173C32.0525 407.283 31.3715 406.516 30.3316 407.084C29.924 406.557 29.6801 405.837 29.6501 405.073C29.6201 404.309 29.8064 403.559 30.1705 402.976Z" fill="#F16EA3"/>
<path opacity="0.1" fill-rule="evenodd" clip-rule="evenodd" d="M68.0956 425.179C68.4618 425.428 68.6229 425.747 68.3227 426.245C68.1535 426.28 67.9809 426.227 67.8394 426.096C67.8398 425.758 67.9309 425.432 68.0956 425.179Z" fill="#F16EA3"/>
<path opacity="0.1" fill-rule="evenodd" clip-rule="evenodd" d="M34.3447 357.096C34.4765 356.877 34.6596 357.096 34.828 357.236C35.0111 355.79 35.4943 355.89 36.1534 354.115C37.0761 354.015 39.3608 354.035 39.0826 356.109C39.5805 356.587 40.2616 356.109 40.7449 357.295C40.2909 359.409 40.2543 361.882 38.4601 363.576C36.8711 362.958 35.1575 363.387 35.8386 360.117C34.4838 360.167 33.5684 358.283 34.3447 357.096Z" fill="#F16EA3"/>
<path opacity="0.1" fill-rule="evenodd" clip-rule="evenodd" d="M56.7533 366.766C56.8924 366.547 57.0755 366.766 57.2439 366.906C57.427 365.46 57.9103 365.57 58.5693 363.786C59.4847 363.696 61.7694 363.716 61.4985 365.779C61.9965 366.248 62.6775 365.78 63.1608 366.956C62.7068 369.08 62.6702 371.542 60.8687 373.237C59.287 372.619 57.5661 373.047 58.2545 369.787C56.8778 369.837 55.9624 367.953 56.7533 366.766Z" fill="#F16EA3"/>
<path opacity="0.1" fill-rule="evenodd" clip-rule="evenodd" d="M95.7621 332.162C96.1356 332.401 96.2894 332.73 95.9964 333.219C95.9119 333.241 95.8251 333.24 95.7409 333.216C95.6567 333.192 95.5768 333.145 95.5059 333.079C95.5131 332.743 95.6034 332.42 95.7621 332.162Z" fill="#F16EA3"/>
<path opacity="0.1" fill-rule="evenodd" clip-rule="evenodd" d="M64.9617 386.656C65.2692 386.477 65.6939 387.065 65.9209 386.467C66.1699 387.464 66.7411 386.935 67.0487 387.902C66.9611 387.959 66.8873 388.049 66.8363 388.161C67.1732 388.341 67.1731 388.65 67.4587 388.859C67.2317 389.218 67.532 389.398 67.1951 389.807C66.4042 389.886 65.8917 389.308 65.1081 389.737C64.8033 389.343 64.619 388.806 64.5919 388.235C64.5647 387.664 64.6968 387.1 64.9617 386.656Z" fill="#F16EA3"/>
<path opacity="0.1" fill-rule="evenodd" clip-rule="evenodd" d="M55.9179 320.717C56.511 320.358 57.2653 321.505 57.7706 320.349C58.2612 322.343 59.3597 321.256 59.9675 323.14C59.7927 323.236 59.646 323.407 59.5501 323.628C60.2092 323.977 60.2018 324.626 60.7583 324.984C60.3263 325.692 60.9048 325.981 60.2458 326.819C58.7153 326.978 57.7193 325.822 56.2108 326.689C55.6188 325.927 55.2597 324.888 55.2054 323.781C55.1511 322.674 55.4055 321.58 55.9179 320.717Z" fill="#F16EA3"/>
<path opacity="0.1" fill-rule="evenodd" clip-rule="evenodd" d="M84.2288 263.97C84.3975 264.079 84.4709 264.229 84.3389 264.458C84.2578 264.481 84.1735 264.46 84.104 264.399C84.1062 264.24 84.1505 264.088 84.2288 263.97Z" fill="#F16EA3"/>
<path opacity="0.1" fill-rule="evenodd" clip-rule="evenodd" d="M51.3046 325.701C51.429 325.701 51.3485 325.991 51.3046 326.18C51.9783 325.861 52.0368 326.32 52.9376 326.31C53.1499 327.098 53.5819 329.151 52.608 329.609C52.4908 330.218 52.8204 330.676 52.403 331.494C51.3851 331.803 50.2867 332.601 49.1956 331.564C49.1956 329.949 48.6537 328.573 50.2208 328.064C49.9718 326.838 50.6308 325.392 51.3046 325.701Z" fill="#F16EA3"/>
<path opacity="0.1" fill-rule="evenodd" clip-rule="evenodd" d="M36.6955 304.297C36.6228 304.074 36.6001 303.826 36.63 303.585C36.66 303.344 36.7413 303.12 36.864 302.941C37.1056 302.891 38.4092 302.941 38.6655 302.852C38.6655 302.921 38.7094 302.971 38.7753 303.021C38.5629 303.26 38.9071 303.47 38.9144 303.749C39.0755 303.749 39.2147 303.45 39.4051 303.749C39.4051 303.928 39.2659 304.128 39.1707 304.148C39.1194 303.949 38.9217 304.038 38.9803 303.829C38.7386 304.197 37.0763 304.397 36.6955 304.297Z" fill="#F16EA3"/>
<path opacity="0.1" fill-rule="evenodd" clip-rule="evenodd" d="M77.074 313.17C77.2501 313.28 77.3235 313.429 77.184 313.658C77.1451 313.67 77.1049 313.67 77.0658 313.66C77.0267 313.65 76.9895 313.629 76.9565 313.599C76.9591 313.442 77.0005 313.291 77.074 313.17Z" fill="#F16EA3"/>
<path opacity="0.1" fill-rule="evenodd" clip-rule="evenodd" d="M37.3547 339.799C37.5085 339.928 37.3547 340.257 37.2742 340.527C38.2994 340.377 38.2481 341.085 39.5223 341.523C39.6321 342.8 39.7273 346.03 38.2554 346.239C37.9479 347.077 38.292 347.914 37.5231 348.921C36.0585 348.871 34.301 349.509 33.0342 347.436C33.3857 345.033 33.0342 342.72 35.3116 342.78C35.2164 340.856 36.4833 339.031 37.3547 339.799Z" fill="#F16EA3"/>
<path opacity="0.1" fill-rule="evenodd" clip-rule="evenodd" d="M63.036 387.185C63.2264 387.314 63.0873 387.624 63.036 387.873C64.1125 387.763 64.1491 388.421 65.577 388.87C65.8699 390.066 66.4118 393.087 64.8447 393.236C64.6324 394.014 65.1084 394.801 64.4054 395.719C62.787 395.639 61.0222 396.187 59.3745 394.223C59.4331 391.98 58.7081 389.817 61.2053 389.926C60.8757 388.092 61.9961 386.427 63.036 387.185Z" fill="#F16EA3"/>
<path opacity="0.1" fill-rule="evenodd" clip-rule="evenodd" d="M56.2699 334.665C56.4236 335.821 55.2813 336.519 56.1381 337.925C54.366 337.785 54.9811 340.128 53.2089 340.208C53.1649 339.867 53.0563 339.547 52.894 339.281C52.4327 340.198 51.9274 339.899 51.4294 340.636C50.9315 339.57 50.5141 340.367 49.9648 338.892C50.1992 336.26 51.3856 335.153 51.0487 332.242C52.6524 331.115 54.6442 331.664 56.2699 334.665Z" fill="#F16EA3"/>
<path opacity="0.1" fill-rule="evenodd" clip-rule="evenodd" d="M53.2963 346.718C53.6698 346.967 53.8235 347.286 53.5306 347.784C53.3592 347.815 53.1855 347.762 53.04 347.635C53.0473 347.299 53.1375 346.976 53.2963 346.718Z" fill="#F16EA3"/>
<path opacity="0.1" fill-rule="evenodd" clip-rule="evenodd" d="M82.9467 263.152C83.3202 263.392 83.4739 263.72 83.181 264.209C83.0103 264.252 82.8341 264.202 82.6904 264.069C82.6977 263.733 82.7879 263.41 82.9467 263.152Z" fill="#F16EA3"/>
<path opacity="0.1" fill-rule="evenodd" clip-rule="evenodd" d="M52.9453 359.07C53.5385 358.721 54.2928 359.858 54.798 358.701C55.2887 360.695 56.3871 359.618 56.9949 361.503C56.822 361.598 56.6758 361.765 56.5775 361.981C57.2365 362.34 57.2292 362.978 57.7858 363.337C57.3537 364.045 57.9323 364.384 57.2732 365.172C55.7354 365.331 54.7468 364.224 53.2383 365.042C52.6462 364.279 52.2871 363.241 52.2328 362.134C52.1785 361.027 52.433 359.933 52.9453 359.07Z" fill="#F16EA3"/>
<path opacity="0.1" fill-rule="evenodd" clip-rule="evenodd" d="M58.9131 364.374C59.2793 364.613 59.4403 364.942 59.1401 365.431C59.0567 365.453 58.9711 365.451 58.8881 365.427C58.8051 365.403 58.7264 365.357 58.6567 365.291C58.6571 364.953 58.7484 364.627 58.9131 364.374Z" fill="#F16EA3"/>
<path opacity="0.1" fill-rule="evenodd" clip-rule="evenodd" d="M46.7204 350.287C46.8595 350.068 47.0425 350.287 47.2109 350.427C47.394 348.981 47.87 349.091 48.5291 347.306C49.4518 347.216 51.7365 347.236 51.4583 349.3C51.9562 349.769 52.6446 349.3 53.1279 350.487C52.6739 352.6 52.6373 355.062 50.8358 356.757C49.2541 356.149 47.5331 356.568 48.2215 353.308C46.8375 353.358 45.9222 351.484 46.7204 350.287Z" fill="#F16EA3"/>
<path opacity="0.1" fill-rule="evenodd" clip-rule="evenodd" d="M48.3023 343.786C48.4341 343.577 48.6171 343.786 48.7856 343.936C48.9686 342.48 49.452 342.59 50.1111 340.805C51.0337 340.715 53.3185 340.735 53.0402 342.799C53.5382 343.268 54.2192 342.799 54.7025 343.986C54.2485 346.099 54.2119 348.562 52.4178 350.267C50.836 349.648 49.1151 350.077 49.8035 346.807C48.4194 346.827 47.5261 344.943 48.3023 343.786Z" fill="#F16EA3"/>
<path opacity="0.1" fill-rule="evenodd" clip-rule="evenodd" d="M56.7675 340.147C57.141 340.397 57.2947 340.716 57.0018 341.214C56.8304 341.245 56.6567 341.192 56.5112 341.065C56.5185 340.728 56.6087 340.405 56.7675 340.147Z" fill="#F16EA3"/>
<path opacity="0.1" fill-rule="evenodd" clip-rule="evenodd" d="M29.7677 327.188C29.8995 326.978 30.0826 327.188 30.2584 327.337C30.4414 325.881 30.9174 325.991 31.5764 324.206C32.4991 324.117 34.7839 324.137 34.5056 326.2C35.0036 326.669 35.6846 326.2 36.1679 327.387C35.7212 329.5 35.6773 331.963 33.8832 333.668C32.3014 333.05 30.5806 333.478 31.2689 330.208C29.8849 330.268 28.9695 328.384 29.7677 327.188Z" fill="#F16EA3"/>
<path opacity="0.1" fill-rule="evenodd" clip-rule="evenodd" d="M53.9701 373.207C53.6876 372.358 53.5967 371.414 53.7088 370.495C53.8209 369.576 54.131 368.722 54.5998 368.043C55.3392 368.053 56.0767 367.943 56.7967 367.714C56.8305 367.857 56.8856 367.99 56.9587 368.103C57.0318 368.217 57.1212 368.308 57.2214 368.372C56.4305 369.279 57.7413 370.067 57.756 371.134C58.3857 371.134 58.8984 370.017 59.638 371.084C59.6238 371.43 59.5288 371.76 59.3667 372.027C59.2047 372.295 58.9842 372.485 58.7373 372.569C58.5323 371.831 57.7853 372.16 58.005 371.363C57.5023 372.111 56.8683 372.672 56.1625 372.995C55.4567 373.317 54.7023 373.39 53.9701 373.207Z" fill="#F16EA3"/>
<path opacity="0.1" fill-rule="evenodd" clip-rule="evenodd" d="M41.4043 330.348C41.5434 330.128 41.7265 330.348 41.8949 330.487C42.078 329.042 42.5613 329.151 43.2203 327.367C44.1357 327.277 46.4204 327.297 46.1495 329.361C46.6474 329.829 47.3285 329.361 47.8118 330.547C47.3578 332.661 47.3212 335.123 45.5197 336.818C43.938 336.21 42.217 336.628 42.9054 333.368C41.5214 333.418 40.6134 331.544 41.4043 330.348Z" fill="#F16EA3"/>
<path opacity="0.1" fill-rule="evenodd" clip-rule="evenodd" d="M29.4093 263.172C28.4353 262.703 27.476 262.175 27.3296 259.832C27.8397 259.114 28.2937 258.325 28.6843 257.479C28.8881 257.567 29.1091 257.542 29.2994 257.409C29.1969 258.666 30.4784 257.788 31.0056 258.337C31.4304 257.708 31.2474 256.622 32.2726 256.452C32.646 256.751 32.5948 257.728 32.3751 258.127C31.8771 257.938 31.5256 258.845 31.2986 258.197C31.2912 259.169 31.1165 260.126 30.7884 260.99C30.4603 261.854 29.9879 262.601 29.4093 263.172Z" fill="#F16EA3"/>
<path opacity="0.1" fill-rule="evenodd" clip-rule="evenodd" d="M36.073 323.219C36.3512 323.05 36.7028 323.588 36.9371 323.05C37.1641 323.957 37.6693 323.478 37.9623 324.355C37.8804 324.397 37.8109 324.474 37.7646 324.575C38.0722 324.744 38.0721 325.024 38.3284 325.213C38.1307 325.542 38.3943 325.702 38.0941 326.07C37.3618 326.14 36.9152 325.622 36.2048 326.011C35.9294 325.653 35.7629 325.167 35.7385 324.65C35.7141 324.133 35.8335 323.622 36.073 323.219Z" fill="#F16EA3"/>
<path opacity="0.1" fill-rule="evenodd" clip-rule="evenodd" d="M36.6441 281.615C36.71 281.516 36.7978 281.615 36.8711 281.685C36.9589 281.007 37.186 281.057 37.4936 280.22C37.9183 280.22 38.9582 280.22 38.863 281.217C39.0973 281.436 39.4121 281.217 39.6391 281.765C39.4268 282.762 39.4122 283.909 38.57 284.696C37.8377 284.417 37.0322 284.607 37.3471 283.091C36.7026 283.051 36.2779 282.174 36.6441 281.615Z" fill="#F16EA3"/>
<path opacity="0.1" fill-rule="evenodd" clip-rule="evenodd" d="M55.252 355.75C55.3179 355.65 55.4057 355.75 55.4789 355.82C55.5668 355.142 55.7938 355.192 56.1014 354.354C56.5261 354.354 57.5659 354.354 57.4707 355.351C57.7051 355.571 58.02 355.351 58.247 355.9C58.0346 356.897 58.02 358.043 57.1779 358.831C56.4456 358.541 55.6327 358.741 55.9549 357.226C55.3105 357.196 54.8492 356.318 55.252 355.75Z" fill="#F16EA3"/>
<path opacity="0.1" fill-rule="evenodd" clip-rule="evenodd" d="M58.1736 254.817C57.9658 254.191 57.8993 253.494 57.9828 252.816C58.0662 252.138 58.2958 251.509 58.6423 251.009C59.1899 251.023 59.7364 250.939 60.268 250.76C60.291 250.868 60.3311 250.967 60.3855 251.052C60.4399 251.136 60.5073 251.203 60.5828 251.248C59.997 251.926 60.9636 252.494 60.9709 253.242C61.4323 253.242 61.8131 252.425 62.3623 253.242C62.3521 253.498 62.2819 253.743 62.1619 253.94C62.0419 254.138 61.8786 254.277 61.6959 254.339C61.5421 253.791 60.9636 254.04 61.1613 253.452C60.7905 254.008 60.3212 254.425 59.7981 254.664C59.2751 254.903 58.7159 254.956 58.1736 254.817Z" fill="#F16EA3"/>
<path opacity="0.1" fill-rule="evenodd" clip-rule="evenodd" d="M43.9967 343.986C44.2749 343.827 44.6264 344.355 44.8681 343.816C45.0951 344.734 45.6004 344.245 45.886 345.122C45.8065 345.174 45.7383 345.253 45.6882 345.352C45.9958 345.511 45.9958 345.801 46.2594 345.98C46.0544 346.309 46.3253 346.469 46.0177 346.837C45.2854 346.917 44.8388 346.389 44.1284 346.778C43.8545 346.419 43.6892 345.933 43.6648 345.417C43.6404 344.9 43.7588 344.39 43.9967 343.986Z" fill="#F16EA3"/>
<path opacity="0.1" fill-rule="evenodd" clip-rule="evenodd" d="M85.0711 272.533C85.2398 272.643 85.3206 272.802 85.1811 273.032C85.1016 273.046 85.0209 273.021 84.9536 272.962C84.9524 272.804 84.9943 272.651 85.0711 272.533Z" fill="#F16EA3"/>
<path opacity="0.1" fill-rule="evenodd" clip-rule="evenodd" d="M63.1385 273.75C63.1971 273.64 63.285 273.75 63.3655 273.81C63.4461 273.142 63.6731 273.192 63.9806 272.354C64.4127 272.354 65.4452 272.354 65.35 273.351C65.5844 273.571 65.9066 273.351 66.1263 273.9C65.9213 274.897 65.8992 276.043 65.0644 276.831C64.3321 276.542 63.5193 276.741 63.8416 275.216C63.1898 275.186 62.765 274.298 63.1385 273.75Z" fill="#F16EA3"/>
<path opacity="0.1" fill-rule="evenodd" clip-rule="evenodd" d="M50.792 344.783C50.4405 346.409 50.0597 348.023 48.251 348.881C47.6972 348.277 47.0864 347.778 46.4349 347.396C46.5008 347.084 46.48 346.75 46.3763 346.459C47.343 346.289 46.6546 344.534 47.1086 343.577C46.618 343.079 45.7905 343.647 45.644 342.102C45.7729 341.814 45.9711 341.596 46.2048 341.485C46.4385 341.374 46.6933 341.377 46.9256 341.494C46.7864 342.321 47.4821 342.63 46.9914 343.159C47.6726 342.901 48.3938 342.917 49.0683 343.206C49.7427 343.494 50.3413 344.042 50.792 344.783Z" fill="#F16EA3"/>
<path opacity="0.1" fill-rule="evenodd" clip-rule="evenodd" d="M81.2112 404.601C81.6066 405.299 80.9768 406.595 81.9435 406.964C80.6693 408.081 81.6798 409.287 80.4789 410.534C80.3659 410.329 80.2102 410.176 80.0322 410.094C79.937 411.091 79.5049 411.191 79.3584 412.019C78.7506 411.62 78.6262 412.467 77.8939 411.789C77.4032 409.796 77.9598 408.22 77.0005 406.426C77.4044 405.456 78.0625 404.728 78.8432 404.39C79.6239 404.052 80.4696 404.127 81.2112 404.601Z" fill="#F16EA3"/>
<path opacity="0.1" fill-rule="evenodd" clip-rule="evenodd" d="M82.317 407.034C82.2365 407.572 82.0461 407.861 81.5847 407.592C81.5517 407.485 81.5347 407.37 81.5347 407.253C81.5347 407.137 81.5517 407.021 81.5847 406.914C81.8313 406.829 82.0923 406.872 82.317 407.034Z" fill="#F16EA3"/>
<path opacity="0.1" fill-rule="evenodd" clip-rule="evenodd" d="M71.6919 402.698C73.1565 401.501 74.621 400.345 77.3305 402.08C77.8431 403.835 77.682 404.532 78.4656 406.257C78.3257 406.371 78.205 406.524 78.1116 406.707C78.0182 406.889 77.9542 407.096 77.9237 407.314C76.6861 406.098 76.3346 408.929 75.2288 409.308C75.4705 410.524 76.8033 411.132 75.9611 412.957C75.5925 413.049 75.2118 412.981 74.8736 412.76C74.5354 412.54 74.2573 412.179 74.0792 411.73C74.8115 411.072 74.167 409.737 75.0824 409.896C74.1123 409.191 73.2912 408.159 72.6976 406.899C72.104 405.639 71.7577 404.192 71.6919 402.698Z" fill="#F16EA3"/>
<path opacity="0.1" fill-rule="evenodd" clip-rule="evenodd" d="M70.227 409.886C70.4174 410.015 70.2783 410.325 70.227 410.564C71.3035 410.454 71.3474 411.122 72.7754 411.561C73.0683 412.747 73.6029 415.778 72.0431 415.927C71.8234 416.695 72.3068 417.493 71.5964 418.41C69.9854 418.33 68.2132 418.869 66.5729 416.915C66.6242 414.671 65.9065 412.498 68.3963 412.618C68.0302 410.793 69.1579 409.128 70.227 409.886Z" fill="#F16EA3"/>
<path opacity="0.1" fill-rule="evenodd" clip-rule="evenodd" d="M84.785 418.748C84.3017 419.047 83.8184 418.22 83.3205 419.127C83.1154 417.662 82.1708 418.519 81.8559 417.133C81.9998 417.047 82.1256 416.914 82.222 416.745C81.746 416.505 81.7973 416.037 81.4019 415.748C81.7973 415.179 81.4019 414.96 81.9584 414.312C83.152 414.113 83.8184 414.91 85.056 414.202C85.8029 415.229 85.8688 416.964 84.785 418.748Z" fill="#F16EA3"/>
<path opacity="0.1" fill-rule="evenodd" clip-rule="evenodd" d="M74.0934 389.646C74.2032 389.726 74.0934 389.915 74.0934 390.065C74.7598 390.005 74.7818 390.414 75.6678 390.683C75.8509 391.421 76.1877 393.295 75.2211 393.385C75.0892 393.864 75.3822 394.382 74.9501 394.93C73.9469 394.88 72.8484 395.22 71.8305 394.003C71.8305 392.607 71.4205 391.272 72.9656 391.341C72.7533 390.205 73.4417 389.178 74.0934 389.646Z" fill="#F16EA3"/>
<path opacity="0.1" fill-rule="evenodd" clip-rule="evenodd" d="M84.697 397.622C85.2902 397.274 86.0445 398.41 86.5571 397.264C87.0404 399.258 88.1461 398.171 88.7539 400.055C88.5781 400.153 88.4293 400.324 88.3291 400.544C88.9882 400.893 88.9882 401.54 89.5374 401.889C89.1054 402.607 89.6839 402.936 89.0249 403.724C87.4944 403.883 86.4985 402.777 84.9899 403.604C84.3974 402.84 84.038 401.8 83.9838 400.691C83.9295 399.583 84.1842 398.487 84.697 397.622Z" fill="#F16EA3"/>
<path opacity="0.1" fill-rule="evenodd" clip-rule="evenodd" d="M83.8478 434.909C83.3571 432.686 82.8885 430.443 84.7778 427.323C86.1545 427.073 86.6086 427.442 88.0292 426.824C88.0744 427.041 88.1533 427.243 88.2607 427.415C88.3681 427.587 88.5015 427.725 88.6516 427.821C87.4873 429.157 89.3839 430.303 89.4352 431.879C90.3579 431.879 91.1121 430.234 92.2106 431.799C92.1869 432.309 92.0451 432.796 91.8057 433.19C91.5663 433.584 91.2415 433.865 90.8778 433.992C90.5775 432.896 89.4791 433.384 89.816 432.218C89.0732 433.324 88.1346 434.152 87.0897 434.623C86.0448 435.095 84.9286 435.193 83.8478 434.909Z" fill="#F16EA3"/>
<path opacity="0.1" fill-rule="evenodd" clip-rule="evenodd" d="M50.184 390.096C50.5867 389.847 51.1066 390.634 51.4581 389.837C51.7877 391.183 52.5493 390.465 52.9594 391.761C52.8428 391.831 52.7436 391.945 52.6738 392.09C53.1205 392.34 53.1205 392.748 53.5013 393.027C53.201 393.516 53.6038 393.735 53.1498 394.283C52.0953 394.393 51.4142 393.626 50.3744 394.194C49.9646 393.673 49.7165 392.958 49.6811 392.196C49.6457 391.435 49.8257 390.683 50.184 390.096Z" fill="#F16EA3"/>
<path opacity="0.1" fill-rule="evenodd" clip-rule="evenodd" d="M70.8569 395.39C71.2303 395.629 71.3915 395.958 71.0913 396.446C70.9206 396.49 70.7442 396.44 70.6006 396.307C70.6078 395.971 70.6981 395.647 70.8569 395.39Z" fill="#F16EA3"/>
<path opacity="0.1" fill-rule="evenodd" clip-rule="evenodd" d="M71.1131 403.375C70.8307 402.526 70.7397 401.582 70.8519 400.663C70.964 399.743 71.2741 398.89 71.7429 398.211C72.4825 398.218 73.22 398.104 73.9398 397.872C73.9735 398.017 74.0285 398.151 74.1016 398.266C74.1746 398.381 74.2641 398.474 74.3646 398.54C73.5737 399.447 74.8845 400.225 74.8991 401.292C75.5289 401.292 76.0415 400.175 76.7811 401.242C76.7658 401.587 76.6704 401.917 76.5085 402.184C76.3467 402.451 76.1267 402.642 75.8804 402.727C75.6753 401.99 74.9284 402.319 75.1481 401.521C74.6461 402.271 74.0125 402.834 73.3067 403.158C72.6009 403.483 71.846 403.557 71.1131 403.375Z" fill="#F16EA3"/>
<path opacity="0.1" fill-rule="evenodd" clip-rule="evenodd" d="M48.2953 356.907C48.4344 356.687 48.6175 356.906 48.7859 357.046C48.969 355.6 49.4523 355.7 50.1114 353.926C51.0267 353.826 53.3115 353.846 53.0405 355.919C53.5385 356.398 54.2196 355.919 54.7029 357.106C54.2488 359.219 54.2122 361.692 52.4108 363.387C50.829 362.769 49.1081 363.197 49.7965 359.927C48.4124 359.977 47.5264 358.093 48.2953 356.907Z" fill="#F16EA3"/>
<path opacity="0.1" fill-rule="evenodd" clip-rule="evenodd" d="M76.9128 414.571C77.2204 414.392 77.6084 414.98 77.8721 414.382C78.1211 415.379 78.6923 414.85 78.9998 415.827C78.9088 415.876 78.8318 415.963 78.7802 416.076C79.1244 416.256 79.1244 416.565 79.41 416.774C79.1829 417.143 79.4832 417.313 79.1463 417.771C78.3481 417.851 77.8428 417.273 77.0592 417.702C76.7441 417.306 76.5531 416.759 76.5258 416.176C76.4986 415.593 76.6372 415.019 76.9128 414.571Z" fill="#F16EA3"/>
<path opacity="0.1" fill-rule="evenodd" clip-rule="evenodd" d="M86.0596 430.523C86.25 430.643 86.1108 430.952 86.0596 431.201C87.136 431.091 87.18 431.749 88.6079 432.198C88.9008 433.394 89.4354 436.415 87.8756 436.565C87.6559 437.342 88.1393 438.13 87.4363 439.057C85.8179 438.967 84.0531 439.515 82.4054 437.551C82.4567 435.308 81.739 433.145 84.2288 433.265C83.8993 431.39 85.0197 429.725 86.0596 430.523Z" fill="#F16EA3"/>
<path opacity="0.1" fill-rule="evenodd" clip-rule="evenodd" d="M64.8959 386.975C65.4891 386.626 66.2434 387.763 66.7486 386.606C67.2393 388.6 68.3377 387.523 68.9455 389.407C68.7726 389.503 68.6265 389.671 68.5282 389.887C69.1799 390.245 69.1798 390.883 69.7364 391.242C69.297 391.96 69.8755 392.239 69.2238 393.076C67.686 393.236 66.6974 392.129 65.1889 392.947C64.5968 392.185 64.2378 391.146 64.1835 390.039C64.1292 388.932 64.3836 387.838 64.8959 386.975Z" fill="#F16EA3"/>
<path opacity="0.1" fill-rule="evenodd" clip-rule="evenodd" d="M70.8569 392.279C71.2303 392.519 71.3915 392.848 71.0913 393.336C70.9206 393.379 70.7442 393.329 70.6006 393.196C70.6078 392.86 70.6981 392.537 70.8569 392.279Z" fill="#F16EA3"/>
<path opacity="0.1" fill-rule="evenodd" clip-rule="evenodd" d="M65.9212 401.112C65.6388 400.263 65.5478 399.319 65.66 398.4C65.7721 397.48 66.0822 396.627 66.551 395.948C67.2903 395.958 68.0279 395.848 68.7479 395.619C68.7809 395.763 68.8357 395.896 68.9089 396.01C68.982 396.123 69.072 396.214 69.1727 396.277C68.3818 397.184 69.6926 397.972 69.7072 399.038C70.337 399.038 70.8496 397.922 71.5892 398.989C71.5728 399.334 71.4769 399.663 71.3152 399.93C71.1535 400.196 70.9342 400.387 70.6885 400.474C70.4834 399.736 69.7365 400.065 69.9562 399.268C69.4535 400.015 68.8195 400.577 68.1137 400.899C67.408 401.222 66.6535 401.295 65.9212 401.112Z" fill="#F16EA3"/>
<path opacity="0.05" d="M98.142 144.912C97.0655 142.081 89.9183 139.928 75.1333 139.03C84.5433 153.666 84.5433 229.854 84.5433 229.854C84.5433 229.854 97.6001 230.562 100.837 229.146C100.295 205.787 99.2184 147.744 98.142 144.912Z" fill="#66636C"/>
<path opacity="0.05" d="M98.6834 147.744C97.3066 138.113 87.8967 141.164 86.5566 139.03C93.2791 174.403 90.5916 231.269 90.5916 231.269L101.378 230.562C101.378 230.562 100.001 157.035 98.6834 147.744Z" fill="#66636C"/>
<path opacity="0.05" d="M34.3445 140.784C34.3445 140.784 20.5701 139.787 21.0241 146.327C21.6832 155.968 19.3472 231.927 19.3472 231.927C19.3472 231.927 23.8874 231.927 29.1379 231.508C29.526 170.174 34.3445 140.784 34.3445 140.784Z" fill="#66636C"/>
<path d="M99.5775 436.923C99.5642 438.367 99.2062 439.765 98.5576 440.907C97.9089 442.049 97.0049 442.873 95.982 443.254C91.6981 444.959 74.8041 447.242 60.356 447.242C45.9079 447.242 28.8162 444.919 24.4737 443.204C23.4461 442.827 22.537 442.004 21.8842 440.859C21.2313 439.715 20.8704 438.312 20.8561 436.863L19.1719 247.849V229.843L20.8561 148.321C20.8756 146.715 21.3179 145.171 22.1027 143.971C22.8876 142.771 23.9628 141.994 25.1327 141.781C30.5737 140.665 49.1373 139 61.2787 139C72.7171 139 90.3214 140.555 95.3595 141.652C96.5196 141.877 97.5825 142.659 98.3571 143.856C99.1316 145.053 99.567 146.587 99.5849 148.182L101.269 229.843V250.072L99.5775 436.923Z" stroke="#66636C" stroke-width="2" stroke-linecap="round" stroke-linejoin="round"/>
<path d="M19.3838 231.369L100.91 231.738" stroke="#66636C" stroke-width="2" stroke-linecap="round" stroke-linejoin="round"/>
<path d="M34.2715 246.692H100.91" stroke="#66636C" stroke-width="2" stroke-linecap="round" stroke-linejoin="round"/>
<path d="M19.1787 246.932H26.5602" stroke="#66636C" stroke-width="2" stroke-linecap="round" stroke-linejoin="round"/>
<path opacity="0.05" d="M99.0941 232.734C83.8112 232.884 86.0519 240.371 70.7763 240.102C63.2044 239.962 49.2909 239.454 41.7117 239.454C34.2569 239.454 18.1611 239.773 18.1611 239.773L19.201 246.293C19.201 246.293 34.0812 246.493 41.5359 246.493C49.1152 246.493 57.8074 245.934 65.3793 246.074C80.655 246.343 84.8217 246.014 100.105 245.874C100.354 244.359 102.594 232.705 99.0941 232.734Z" fill="#66636C"/>
<path opacity="0.1" d="M100.413 223.762C94.4308 223.762 86.5981 229.532 80.6155 229.6C75.4393 229.668 30.7248 227.858 20.3579 231.192C20.7323 235.112 29.1554 234.758 45.728 234.69C50.8466 234.69 67.3257 233.329 80.4643 234.254C85.9933 234.622 100.91 234.254 100.91 234.254C100.617 230.783 100.451 227.277 100.413 223.762Z" fill="#66636C"/>
<path opacity="0.1" d="M100.404 239.714C94.3128 239.714 86.3376 245.484 80.2462 245.552C74.9759 245.62 29.4484 243.81 18.8931 247.145C19.2742 251.064 27.8505 250.71 44.7244 250.642C49.9361 250.642 66.7148 249.281 80.0923 250.207C85.7218 250.574 100.91 250.207 100.91 250.207C100.611 246.735 100.443 243.229 100.404 239.714Z" fill="#66636C"/>
<path opacity="0.05" d="M90.9144 430.842C87.3627 434.152 77.5646 436.535 72.1091 437.223C47.5114 440.283 21.5809 430.463 21.8592 437.97C22.1301 444.889 32.1772 444.829 49.4813 445.846C54.1826 446.125 71.2597 445.986 75.9244 445.846C79.7103 445.747 92.767 444.062 96.7361 441.45C100.983 438.628 98.9329 409.238 98.8451 407.553C98.8231 406.905 93.9973 427.97 90.9144 430.842Z" fill="#66636C"/>
<path opacity="0.1" d="M92.0856 434.222C88.263 438.289 77.9011 441.051 72.4016 441.35C44.1937 442.845 23.5064 437.063 23.792 439.027C24.5243 442.825 33.6633 444.55 48.895 445.846C58.2003 446.575 67.5329 446.325 76.81 445.099C80.574 444.55 91.3167 442.606 96.1937 441.759C98.083 441.43 98.0245 423.126 97.9659 421.461C97.9439 420.793 95.6152 430.463 92.0856 434.222Z" fill="#66636C"/>
<path opacity="0.05" d="M19.5959 249.075C19.1053 246.254 23.1988 247.769 26.5527 248.278C25.6373 262.784 23.9458 416.037 29.5258 445.438C26.5532 444.379 23.6368 443.047 20.7969 441.45C20.7969 441.45 20.0939 251.837 19.5959 249.075Z" fill="#66636C"/>
<path opacity="0.05" d="M20.5921 145.39C20.9143 141.203 25.6303 141.213 27.2926 141.851C24.9566 164.083 25.2349 232.575 25.2349 232.575L19.479 231.578C19.479 231.578 19.8891 154.542 20.5921 145.39Z" fill="#66636C"/>
<path d="M36.9345 327.115C37.0336 327.293 37.1783 327.441 37.3537 327.545C37.5291 327.648 37.7289 327.703 37.9325 327.704C38.1288 327.713 38.3241 327.671 38.4991 327.582C38.6742 327.493 38.8229 327.359 38.9305 327.195C39.2176 326.598 39.3675 325.944 39.3696 325.281L40.707 325.45C40.7102 326.423 40.4064 327.372 39.8387 328.162C39.565 328.423 39.2416 328.626 38.8878 328.759C38.5339 328.893 38.1569 328.954 37.779 328.939C37.4011 328.924 37.03 328.833 36.6878 328.673C36.3456 328.512 36.0391 328.284 35.7867 328.003C35.1738 326.97 34.908 325.768 35.0282 324.573V319.389C34.9088 318.197 35.1746 316.999 35.7867 315.969C36.032 315.663 36.3458 315.419 36.7029 315.256C37.06 315.093 37.4505 315.017 37.8427 315.032C38.2035 315.001 38.5667 315.044 38.91 315.159C39.2534 315.274 39.5695 315.458 39.8387 315.7C40.3835 316.375 40.6795 317.216 40.677 318.083L39.2798 318.422C39.2625 317.836 39.1161 317.26 38.8507 316.737C38.7486 316.584 38.6083 316.461 38.4438 316.378C38.2793 316.296 38.0962 316.258 37.9125 316.268C37.7068 316.265 37.5041 316.319 37.3276 316.424C37.1512 316.53 37.008 316.684 36.9145 316.867C36.6192 317.562 36.496 318.317 36.5552 319.07V325.012C36.5081 325.733 36.6383 326.455 36.9345 327.115Z" fill="#66636C"/>
<path d="M42.4233 328.651V315.322H44.7886C45.1959 315.299 45.6031 315.367 45.981 315.521C46.3588 315.674 46.698 315.909 46.9742 316.209C47.5971 317.161 47.8754 318.297 47.7627 319.429V319.529C47.7627 321.453 47.2836 322.679 46.3455 323.207L47.9324 328.651H46.3655L44.8784 323.546H43.9403V328.651H42.4233ZM46.2557 319.678V319.11C46.3185 318.405 46.1801 317.696 45.8565 317.066C45.7428 316.887 45.5847 316.741 45.3975 316.641C45.2104 316.542 45.0006 316.492 44.7886 316.498H43.9403V322.31H44.7886C45.7667 322.337 46.2557 321.473 46.2557 319.718V319.678Z" fill="#66636C"/>
<path d="M51.2658 322.61V327.436H54.5791V328.652H49.7388V315.322H54.5193V316.539H51.2658V321.394H54.2598V322.61H51.2658Z" fill="#66636C"/>
<path d="M61.0165 328.652L60.4277 325.182H57.733L57.1642 328.652H55.6372L58.0823 315.322H60.0783L62.5235 328.652H61.0165ZM59.0903 317.246L57.9427 323.966H60.2181L59.0903 317.246Z" fill="#66636C"/>
<path d="M65.4875 328.652H64.0005V315.322H66.3358L67.9526 324.554L69.5894 315.322H71.9148V328.652H70.4277V316.608L68.8109 325.79H67.1143L65.4875 316.608V328.652Z" fill="#66636C"/>
<path d="M73.1226 328.651V326.896H74.5996V328.651H73.1226Z" fill="#66636C"/>
<path d="M75.8271 328.652V315.322H77.3541V327.436H80.3482V328.652H75.8271Z" fill="#66636C"/>
<path d="M83.9009 328.652H82.4138V324.195L79.8989 315.322H81.386L83.1623 322.191L84.9189 315.322H86.4059L83.9009 324.195V328.652Z" fill="#66636C"/>
<path d="M61.345 283.025C60.4536 283.135 59.6193 283.522 58.9597 284.131C57.7799 285.086 56.7178 286.177 55.796 287.381C53.6802 290.033 51.6043 293.303 51.0754 296.723C50.8523 298.526 51.1267 300.356 51.869 302.015C52.6112 303.674 53.7932 305.098 55.2871 306.134C56.736 307.117 58.4077 307.724 60.1505 307.898C61.8933 308.072 63.6522 307.808 65.2673 307.131C67.0313 306.371 68.4726 305.017 69.3406 303.304C70.2085 301.592 70.4481 299.63 70.0177 297.76C69.379 294.769 67.5328 292.636 65.5068 290.502C63.4808 288.369 61.6944 286.165 61.5147 283.104C61.5147 283.035 61.3949 283.015 61.345 283.025" stroke="#66636C" stroke-width="2" stroke-linecap="round" stroke-linejoin="round"/>
</g>
<defs>
<clipPath id="clip0_2385_18207">
<rect width="120" height="460" fill="white"/>
</clipPath>
</defs>
</svg>
