<svg width="173" height="460" viewBox="0 0 173 460" fill="none" xmlns="http://www.w3.org/2000/svg">
<rect width="173" height="460" fill="white"/>
<g clip-path="url(#clip0_2385_18210)">
<path opacity="0.1" d="M138.258 115.553C138.258 115.553 138.915 402.83 138.187 428.809C138.009 435.001 138.187 435.693 137.113 436.314C119.467 446.871 87.3255 449.836 55.8144 446.136C33.4549 443.512 27.2503 438.142 27.2325 429.884C27.2148 421.627 29.3451 114.617 29.3451 114.617C29.3451 114.617 36.5349 113.437 49.9737 111.416C52.2993 111.066 49.1926 105.818 51.678 105.512C60.004 104.497 77.5525 107.41 85.9052 107.62C92.2074 107.786 99.5126 106.01 105.584 106.745C107.652 107.007 114.318 105.179 116.28 105.477C118.242 105.774 114.86 110.585 116.795 110.917C129.257 113.13 138.258 115.553 138.258 115.553Z" fill="#F16EA3"/>
<path opacity="0.1" d="M29.8246 115.614C29.8246 115.614 27.3126 435.859 31.733 439.086C36.1535 442.314 61.1669 447.361 73.6914 448.253C53.6575 427.628 58.0691 183.141 58.0691 117.731L29.8246 115.614Z" fill="#F16EA3"/>
<path opacity="0.1" d="M80.4284 448.244C78.5732 449.399 124.73 447.667 137.139 437.521C141.027 434.337 139.607 155.929 139.634 115.238L111.913 117.102C111.913 117.102 116.413 439.882 80.4284 448.244Z" fill="#F16EA3"/>
<path opacity="0.1" d="M121.846 115.509C120.425 155.238 124.509 270.47 123.248 354.957C121.988 436.934 91.6039 444.701 86.6953 446.87C111.984 445.226 133.545 443.765 137.557 437.161C139.332 434.257 139.057 152.508 139.004 115.859C139.004 115.859 130.243 115.806 121.846 115.509Z" fill="#F16EA3"/>
<path opacity="0.1" d="M129.08 116.979C134.592 341.295 122.866 410.527 114.993 424.872C107.12 439.217 51.6246 443.048 27.481 427.032C27.836 432.56 30.0462 440.975 37.884 442.777C44.8697 444.351 68.4719 448.48 91.6835 448.025C110.714 447.64 129.63 443.652 137.557 436.803C139.429 434.336 137.406 153.567 137.743 115.929L129.08 116.979Z" fill="#F16EA3"/>
<path opacity="0.1" d="M138.471 355.062C136.616 358.43 131.317 423.517 126.541 427.418C117.044 435.168 99.7258 441.527 93.1484 441.413C83.2868 441.194 74.0643 443.363 64.2116 442.909C54.3588 442.454 33.6769 439.471 28.147 434.677C31.4934 444.92 51.8202 445.524 60.7409 446.836C74.943 448.926 82.1773 448.402 91.6838 448.27C113.688 447.973 128.627 442.515 134.885 439.077C137.175 437.817 139.465 432.368 139.323 423.516C138.95 405.882 138.773 361.177 138.471 355.062Z" fill="#F16EA3"/>
<path opacity="0.1" d="M30.1438 114.739C30.1438 114.739 29.6468 434.975 31.1557 438.22C32.6647 441.465 52.9028 443.468 57.1723 444.387C33.8541 431.345 39.8545 182.292 39.7835 116.882L30.1438 114.739Z" fill="#F16EA3"/>
<path opacity="0.1" fill-rule="evenodd" clip-rule="evenodd" d="M94.3112 439.357C94.7195 439.873 94.0715 440.818 95.039 441.107C93.7342 441.938 94.7727 442.856 93.5389 443.731C93.4288 443.574 93.2698 443.458 93.0862 443.398C92.9886 444.107 92.5448 444.22 92.3939 444.833C91.7636 444.535 91.666 445.157 90.9203 444.658C90.4233 443.18 90.9914 442.034 90.0327 440.678C90.4493 439.971 91.1196 439.443 91.9115 439.198C92.7034 438.954 93.5596 439.011 94.3112 439.357Z" fill="#F16EA3"/>
<path opacity="0.1" fill-rule="evenodd" clip-rule="evenodd" d="M95.9889 425.178C96.3972 425.703 95.7492 426.648 96.7167 426.928C95.4119 427.759 96.4415 428.677 95.2166 429.552C95.1027 429.397 94.9407 429.283 94.7551 429.228C94.6574 429.937 94.2225 430.041 94.0716 430.654C93.4414 430.356 93.3437 430.986 92.5981 430.488C92.101 429.009 92.6691 427.863 91.7104 426.499C92.1299 425.795 92.8002 425.27 93.591 425.025C94.3818 424.781 95.2366 424.836 95.9889 425.178Z" fill="#F16EA3"/>
<path opacity="0.1" fill-rule="evenodd" clip-rule="evenodd" d="M94.5505 434.293C94.4618 434.704 94.2667 434.914 93.8319 434.713C93.7985 434.634 93.7812 434.549 93.7812 434.464C93.7812 434.378 93.7985 434.294 93.8319 434.215C94.0735 434.157 94.3276 434.185 94.5505 434.293Z" fill="#F16EA3"/>
<path opacity="0.1" fill-rule="evenodd" clip-rule="evenodd" d="M39.0649 400.809C39.0649 400.958 38.8252 400.914 38.6654 400.94C39.127 401.64 38.7453 401.815 39.0205 402.821C38.4169 403.232 36.8014 404.15 36.1268 403.136C35.5765 403.136 35.2835 403.599 34.4669 403.293C33.9077 402.2 32.9224 401.124 33.4817 399.663C34.8486 399.287 35.8782 398.412 36.7481 400.101C37.7067 399.532 39.127 399.969 39.0649 400.809Z" fill="#F16EA3"/>
<path opacity="0.1" fill-rule="evenodd" clip-rule="evenodd" d="M87.9468 439.033C88.4971 438.603 89.1645 438.344 89.8644 438.288C90.5644 438.232 91.2655 438.382 91.8791 438.718C92.0582 439.45 92.3263 440.158 92.6778 440.826C92.4836 440.951 92.3467 441.146 92.2962 441.368C91.4086 440.747 91.1867 442.182 90.4144 442.383C90.5831 442.996 91.5151 443.31 90.9203 444.229C90.6628 444.276 90.3967 444.241 90.1606 444.13C89.9244 444.018 89.7304 443.835 89.6067 443.608C90.0949 443.275 89.6688 442.602 90.3079 442.681C89.6305 442.322 89.0577 441.799 88.6443 441.16C88.2308 440.522 87.9907 439.789 87.9468 439.033Z" fill="#F16EA3"/>
<path opacity="0.1" fill-rule="evenodd" clip-rule="evenodd" d="M78.1831 441.482C77.686 441.71 77.1978 441.089 76.6918 441.771C76.4788 440.678 75.5202 441.317 75.2184 440.267C75.367 440.206 75.4957 440.106 75.5912 439.978C75.103 439.803 75.1563 439.462 74.7568 439.261C75.1651 438.841 74.7568 438.675 75.3249 438.202C76.541 438.045 77.2244 438.64 78.4849 438.115C79.2216 438.876 79.2838 440.17 78.1831 441.482Z" fill="#F16EA3"/>
<path opacity="0.1" fill-rule="evenodd" clip-rule="evenodd" d="M62.5247 445.297C62.2851 445.638 62.0279 445.769 61.6997 445.419C61.6903 445.245 61.7509 445.076 61.8682 444.946C62.1222 444.982 62.3548 445.107 62.5247 445.297Z" fill="#F16EA3"/>
<path opacity="0.1" fill-rule="evenodd" clip-rule="evenodd" d="M103.924 416.274C103.871 416.449 103.587 416.344 103.374 416.327C103.729 417.306 103.196 417.385 103.205 418.715C102.317 419.047 99.9563 419.729 99.4326 418.321C98.7491 418.172 98.2166 418.653 97.2846 418.067C96.9473 416.589 96.0597 415.014 97.2846 413.396C99.1398 413.309 100.737 412.522 101.27 414.796C102.664 414.359 104.315 415.277 103.924 416.274Z" fill="#F16EA3"/>
<path opacity="0.1" fill-rule="evenodd" clip-rule="evenodd" d="M87.7959 430.121C87.9911 430.217 87.8491 430.444 87.7959 430.628C88.9054 430.549 88.9409 431.039 90.4588 431.363C90.7517 432.237 91.3464 434.494 89.7043 434.608C89.4913 435.185 89.9795 435.771 89.2605 436.453C87.6006 436.392 85.781 436.803 84.0945 435.342C84.1478 433.68 83.411 432.071 85.9674 432.15C85.5768 430.794 86.7307 429.561 87.7959 430.121Z" fill="#F16EA3"/>
<path opacity="0.1" fill-rule="evenodd" clip-rule="evenodd" d="M33.9341 431.747C34.5732 430.505 39.6859 431.012 42.1092 431.126C42.7403 431.907 43.4512 432.622 44.2306 433.26C44.1706 433.398 44.1396 433.547 44.1396 433.697C44.1396 433.848 44.1706 433.996 44.2306 434.135C42.9879 433.828 43.6359 435.674 42.9879 436.313C43.5471 436.969 44.6655 436.873 44.6567 438.281C44.2839 438.744 43.2987 438.543 42.9525 438.193C43.2365 437.546 42.3843 436.951 43.0767 436.724C41.3369 436.627 34.946 433.522 33.9341 431.747Z" fill="#F16EA3"/>
<path opacity="0.1" fill-rule="evenodd" clip-rule="evenodd" d="M38.8253 427.156C39.2336 427.672 38.5856 428.616 39.5531 428.905C38.2483 429.727 39.2869 430.654 38.062 431.529C37.9481 431.374 37.786 431.261 37.6004 431.205C37.5028 431.914 37.0589 432.019 36.908 432.631C36.2778 432.334 36.1801 432.964 35.4345 432.456C34.9374 430.987 35.5055 429.832 34.5469 428.477C34.9649 427.771 35.6352 427.244 36.4266 427C37.218 426.755 38.0734 426.811 38.8253 427.156Z" fill="#F16EA3"/>
<path opacity="0.1" fill-rule="evenodd" clip-rule="evenodd" d="M40.946 411.761C40.8573 412.172 40.662 412.382 40.2273 412.181C40.1638 412.017 40.1638 411.837 40.2273 411.674C40.4701 411.624 40.7227 411.654 40.946 411.761Z" fill="#F16EA3"/>
<path opacity="0.1" fill-rule="evenodd" clip-rule="evenodd" d="M51.9178 438.185C51.9977 438.273 51.8734 438.369 51.8202 438.456C52.4149 438.64 52.3261 438.903 53.0273 439.375C53.0273 439.9 52.8142 441.185 51.9532 440.914C51.7136 441.168 51.8556 441.579 51.3319 441.789C50.4443 441.413 49.4412 441.255 48.8643 440.153C49.2459 439.278 49.2015 438.299 50.5152 438.868C50.6129 438.08 51.474 437.669 51.9178 438.185Z" fill="#F16EA3"/>
<path opacity="0.1" fill-rule="evenodd" clip-rule="evenodd" d="M116.173 414.586C116.369 414.682 116.227 414.909 116.173 415.093C117.283 415.014 117.327 415.504 118.836 415.828C119.129 416.703 119.724 418.959 118.091 419.073C117.869 419.65 118.357 420.236 117.638 420.919C115.978 420.857 114.159 421.26 112.472 419.808C112.534 418.137 111.789 416.528 114.354 416.615C113.963 415.259 115.108 414.017 116.173 414.586Z" fill="#F16EA3"/>
<path opacity="0.1" fill-rule="evenodd" clip-rule="evenodd" d="M33.8013 420.813C35.3014 419.938 36.8281 419.064 39.5798 420.35C40.1124 421.662 39.9437 422.178 40.7514 423.455C40.6091 423.541 40.4866 423.655 40.3918 423.791C40.297 423.927 40.2321 424.08 40.2011 424.242C38.9318 423.367 38.5678 425.44 37.4228 425.738C37.6802 426.612 39.0472 427.094 38.1685 428.449C37.7946 428.527 37.4053 428.484 37.0583 428.327C36.7113 428.169 36.4251 427.905 36.2423 427.575C36.9613 427.085 36.3311 426.096 37.272 426.21C36.2719 425.68 35.4272 424.905 34.8194 423.96C34.2115 423.014 33.8608 421.931 33.8013 420.813Z" fill="#F16EA3"/>
<path opacity="0.1" fill-rule="evenodd" clip-rule="evenodd" d="M107.999 440.039C108.265 440.371 107.848 440.984 108.469 441.167C107.626 441.71 108.301 442.287 107.502 442.917C107.426 442.821 107.325 442.748 107.209 442.707C107.147 443.171 103.774 443.24 103.658 443.634C103.25 443.442 103.188 443.844 102.708 443.52C102.389 442.567 102.708 441.815 102.123 440.949C102.637 440.048 106.756 439.567 107.999 440.039Z" fill="#F16EA3"/>
<path opacity="0.1" fill-rule="evenodd" clip-rule="evenodd" d="M81.5378 439.489C81.4579 439.891 81.2538 440.101 80.8191 439.9C80.7602 439.739 80.7602 439.562 80.8191 439.401C81.0615 439.344 81.3169 439.375 81.5378 439.489Z" fill="#F16EA3"/>
<path opacity="0.1" fill-rule="evenodd" clip-rule="evenodd" d="M133.802 433.925C133.713 434.109 133.411 433.969 133.181 433.925C133.474 435.019 132.879 435.053 132.737 436.497C131.698 436.785 125.423 437.31 125.006 435.736C124.269 435.517 123.63 435.998 122.671 435.281C122.458 433.645 121.65 431.852 123.142 430.199C125.192 430.269 130.66 429.552 130.997 432.071C132.595 431.73 134.308 432.876 133.802 433.925Z" fill="#F16EA3"/>
<path opacity="0.1" fill-rule="evenodd" clip-rule="evenodd" d="M100.498 429.937C100.693 430.024 100.551 430.252 100.498 430.435C101.599 430.357 101.643 430.846 103.108 431.17C103.409 432.045 103.995 434.302 102.362 434.415C102.14 434.993 102.637 435.579 101.909 436.261C100.249 436.2 98.4387 436.611 96.7522 435.15C96.8055 433.488 96.0687 431.879 98.6251 431.958C98.2789 430.602 99.4328 429.368 100.498 429.937Z" fill="#F16EA3"/>
<path opacity="0.1" fill-rule="evenodd" clip-rule="evenodd" d="M47.4798 435.867C47.6445 436.539 47.6034 437.244 47.3617 437.894C47.12 438.543 46.6885 439.107 46.1217 439.515C45.371 439.367 44.6053 439.309 43.8405 439.34C43.8259 439.229 43.7884 439.122 43.7304 439.025C43.6724 438.929 43.5952 438.846 43.5032 438.78C44.3909 438.264 43.2191 437.45 43.3523 436.663C42.7221 436.558 42.0474 437.267 41.4438 436.348C41.5115 436.099 41.6565 435.876 41.8585 435.712C42.0606 435.547 42.3097 435.448 42.5712 435.43C42.6688 436.016 43.4588 435.911 43.1215 436.453C43.7356 435.994 44.4593 435.7 45.2227 435.597C45.9861 435.494 46.7635 435.587 47.4798 435.867Z" fill="#F16EA3"/>
<path opacity="0.1" fill-rule="evenodd" clip-rule="evenodd" d="M116.751 439.602C115.481 439.549 114.203 439.488 113.12 437.853C113.426 437.199 113.641 436.507 113.759 435.797C114.002 435.806 114.24 435.725 114.425 435.57C114.789 436.488 115.907 435.5 116.715 435.736C116.946 435.167 116.333 434.459 117.425 434.039C117.668 434.113 117.877 434.268 118.016 434.477C118.155 434.686 118.216 434.936 118.188 435.185C117.549 435.185 117.496 435.937 116.99 435.552C117.355 436.177 117.526 436.893 117.484 437.613C117.441 438.332 117.186 439.023 116.751 439.602Z" fill="#F16EA3"/>
<path opacity="0.1" fill-rule="evenodd" clip-rule="evenodd" d="M41.9053 371.253C42.0384 371.419 41.8254 371.726 42.1449 371.822C41.7189 372.093 42.0561 372.382 41.6567 372.696C41.6219 372.644 41.568 372.606 41.5059 372.591C41.5059 372.819 41.3372 372.854 41.284 373.055C41.0798 372.959 41.0531 373.16 40.8046 372.994C40.6448 372.513 40.8046 372.119 40.5117 371.699C40.645 371.466 40.8622 371.291 41.1202 371.208C41.3783 371.126 41.6585 371.142 41.9053 371.253Z" fill="#F16EA3"/>
<path opacity="0.1" fill-rule="evenodd" clip-rule="evenodd" d="M84.2982 388.738C84.245 388.992 84.1208 389.124 83.8546 389.001C83.8141 388.9 83.8141 388.787 83.8546 388.686C84.0041 388.651 84.1611 388.67 84.2982 388.738Z" fill="#F16EA3"/>
<path opacity="0.1" fill-rule="evenodd" clip-rule="evenodd" d="M36.4639 353.077C36.4639 353.155 36.3396 353.138 36.2597 353.147C36.4994 353.514 36.2597 353.593 36.4461 354.135C36.1265 354.354 35.2744 354.835 34.9194 354.301C34.6353 354.301 34.4844 354.546 34.0318 354.389C33.7477 353.811 33.224 353.243 33.517 352.482C34.2359 352.281 34.7773 351.826 35.23 352.709C35.7715 352.403 36.5171 352.657 36.4639 353.077Z" fill="#F16EA3"/>
<path opacity="0.1" fill-rule="evenodd" clip-rule="evenodd" d="M76.1147 407.274C76.4561 407.009 76.8694 406.851 77.3024 406.818C77.7354 406.785 78.1686 406.88 78.5469 407.09C78.6617 407.542 78.8284 407.979 79.0439 408.393C78.9824 408.429 78.9294 408.477 78.8881 408.534C78.8468 408.592 78.8181 408.657 78.8042 408.726C78.2716 408.341 78.1208 409.233 77.6415 409.355C77.748 409.74 78.3249 409.924 77.9521 410.501C77.7924 410.527 77.6283 410.504 77.4823 410.435C77.3362 410.366 77.2151 410.255 77.1354 410.116C77.4461 409.906 77.1354 409.486 77.5793 409.539C77.1576 409.318 76.8012 408.993 76.5446 408.596C76.288 408.199 76.1399 407.744 76.1147 407.274Z" fill="#F16EA3"/>
<path opacity="0.1" fill-rule="evenodd" clip-rule="evenodd" d="M47.5148 428.178C46.9645 428.178 46.7426 427.444 46.0148 427.89C46.2278 426.796 45.1271 427.015 45.207 425.957C45.3676 425.949 45.5234 425.901 45.6597 425.817C45.278 425.476 45.4556 425.178 45.1538 424.846C45.6953 424.601 45.358 424.295 46.0414 424.059C47.2398 424.365 47.648 425.169 49.0239 425.134C49.4677 426.132 49.0416 427.347 47.5148 428.178Z" fill="#F16EA3"/>
<path opacity="0.1" fill-rule="evenodd" clip-rule="evenodd" d="M60.5808 388.686C60.5276 388.94 60.4122 389.072 60.1372 388.949C60.1014 388.847 60.1014 388.736 60.1372 388.633C60.2867 388.598 60.4439 388.617 60.5808 388.686Z" fill="#F16EA3"/>
<path opacity="0.1" fill-rule="evenodd" clip-rule="evenodd" d="M100.968 371.446C100.968 371.533 100.809 371.446 100.711 371.446C100.88 371.9 100.631 371.936 100.631 372.548C100.214 372.705 99.131 373.02 98.8558 372.364C98.5363 372.303 98.2878 372.521 97.8617 372.25C97.7019 371.568 97.2936 370.842 97.8617 370.099C98.7493 370.055 99.4505 369.687 99.6991 370.737C100.374 370.562 101.137 371.026 100.968 371.446Z" fill="#F16EA3"/>
<path opacity="0.1" fill-rule="evenodd" clip-rule="evenodd" d="M32.9136 335.487C32.9136 335.128 34.4758 335.058 34.9285 334.944C35.122 335.103 35.33 335.243 35.5498 335.364C35.5616 335.443 35.592 335.518 35.6386 335.583C35.3812 335.583 35.7096 336.012 35.6386 336.213C35.8161 336.344 36.0026 336.213 36.1624 336.606C36.1624 336.746 35.9493 336.755 35.8428 336.694C35.7363 336.633 35.6031 336.405 35.7008 336.309C34.7212 336.242 33.7691 335.962 32.9136 335.487Z" fill="#F16EA3"/>
<path opacity="0.1" fill-rule="evenodd" clip-rule="evenodd" d="M125.085 372.18C125.334 372.504 124.935 373.055 125.538 373.273C124.722 373.781 125.37 374.341 124.651 374.909C124.574 374.821 124.476 374.752 124.367 374.708C124.304 375.154 124.029 375.215 123.941 375.583C123.55 375.399 123.488 375.784 123.053 375.478C122.742 374.603 123.053 373.833 122.494 373.002C122.751 372.579 123.156 372.263 123.633 372.112C124.11 371.961 124.626 371.985 125.085 372.18Z" fill="#F16EA3"/>
<path opacity="0.1" fill-rule="evenodd" clip-rule="evenodd" d="M35.576 386.333C35.5228 386.587 35.3986 386.719 35.1236 386.596C35.0877 386.494 35.0877 386.383 35.1236 386.281C35.2762 386.251 35.4346 386.269 35.576 386.333Z" fill="#F16EA3"/>
<path opacity="0.1" fill-rule="evenodd" clip-rule="evenodd" d="M91.7192 410.885C91.8435 410.947 91.7192 411.087 91.7192 411.201C92.4116 411.148 92.4293 411.454 93.3435 411.655C93.5299 412.206 93.8673 413.597 92.8821 413.667C92.74 414.026 93.0507 414.384 92.598 414.813C91.5683 414.769 90.4499 415.023 89.4025 414.122C89.4025 413.09 88.9764 412.092 90.5653 412.145C90.3434 411.305 91.0624 410.535 91.7192 410.885Z" fill="#F16EA3"/>
<path opacity="0.1" fill-rule="evenodd" clip-rule="evenodd" d="M60.9984 125.586C61.1138 125.647 60.9984 125.787 60.9984 125.9C61.6819 125.848 61.7085 126.154 62.6139 126.355C62.8003 126.906 63.1464 128.297 62.1523 128.367C62.0191 128.726 62.321 129.085 61.8772 129.513C60.8475 129.469 59.7202 129.723 58.6817 128.822C58.6817 127.79 58.2556 126.793 59.8356 126.845C59.6225 126.005 60.3327 125.236 60.9984 125.586Z" fill="#F16EA3"/>
<path opacity="0.1" fill-rule="evenodd" clip-rule="evenodd" d="M50.7108 406.25C50.9682 406.565 50.5599 407.124 51.1635 407.334C50.3557 407.85 50.9948 408.402 50.2758 408.979C50.2042 408.885 50.105 408.815 49.9917 408.778C49.9296 409.215 49.6544 409.276 49.5568 409.653C49.1751 409.469 49.113 409.854 48.6692 409.547C48.3585 408.629 48.6692 407.903 48.1011 407.081C48.3552 406.649 48.7624 406.326 49.2442 406.172C49.726 406.019 50.2484 406.046 50.7108 406.25Z" fill="#F16EA3"/>
<path opacity="0.1" fill-rule="evenodd" clip-rule="evenodd" d="M74.3924 391.677C74.3392 391.931 74.215 392.063 73.9489 391.94C73.9083 391.839 73.9083 391.726 73.9489 391.624C74.0986 391.594 74.2542 391.613 74.3924 391.677Z" fill="#F16EA3"/>
<path opacity="0.1" fill-rule="evenodd" clip-rule="evenodd" d="M35.328 388.913C35.4434 388.966 35.328 389.105 35.328 389.219C36.0115 389.175 36.0382 389.482 36.9436 389.683C37.13 390.225 37.4762 391.616 36.482 391.686C36.3489 392.045 36.6506 392.412 36.2068 392.832C35.1771 392.832 34.0499 393.051 33.0024 392.141C33.0024 391.109 32.5853 390.111 34.1653 390.164C33.9523 389.324 34.6889 388.564 35.328 388.913Z" fill="#F16EA3"/>
<path opacity="0.1" fill-rule="evenodd" clip-rule="evenodd" d="M32.6382 370.353C32.9805 370.087 33.3949 369.927 33.8292 369.893C34.2635 369.858 34.6984 369.951 35.0792 370.16C35.1868 370.614 35.3539 371.052 35.5763 371.464C35.5153 371.502 35.4626 371.551 35.4215 371.61C35.3803 371.669 35.3514 371.735 35.3366 371.805C34.804 371.42 34.6532 372.303 34.1739 372.434C34.2804 372.81 34.8485 373.003 34.4845 373.572C34.3246 373.602 34.159 373.581 34.0121 373.511C33.8652 373.442 33.7445 373.328 33.6679 373.187C33.9785 372.986 33.7122 372.565 34.1028 372.618C33.6828 372.395 33.3277 372.07 33.0714 371.673C32.815 371.277 32.6659 370.822 32.6382 370.353Z" fill="#F16EA3"/>
<path opacity="0.1" fill-rule="evenodd" clip-rule="evenodd" d="M97.7107 396.803C97.2694 396.849 96.8238 396.772 96.4251 396.58C96.0263 396.388 95.6905 396.09 95.4561 395.718C95.6471 395.316 95.7787 394.889 95.8467 394.45C95.9989 394.458 96.1486 394.409 96.2638 394.31C96.4946 394.879 97.1514 394.267 97.684 394.415C97.8261 394.065 97.4444 393.619 98.1278 393.356C98.2765 393.407 98.4037 393.505 98.489 393.635C98.5743 393.765 98.6128 393.92 98.5983 394.074C98.1989 394.074 98.1634 394.537 97.8527 394.301C98.0781 394.687 98.1846 395.129 98.1594 395.573C98.1342 396.017 97.9782 396.445 97.7107 396.803Z" fill="#F16EA3"/>
<path opacity="0.1" fill-rule="evenodd" clip-rule="evenodd" d="M123.212 384.627C123.816 384.365 124.588 385.214 125.112 384.356C125.609 385.808 126.745 385.03 127.358 386.429C127.18 386.5 127.031 386.626 126.932 386.788C127.606 387.059 127.597 387.505 128.165 387.794C127.722 388.327 128.316 388.572 127.642 389.158C126.071 389.281 125.05 388.45 123.496 389.062C122.893 388.493 122.529 387.721 122.476 386.899C122.424 386.078 122.686 385.267 123.212 384.627Z" fill="#F16EA3"/>
<path opacity="0.1" fill-rule="evenodd" clip-rule="evenodd" d="M100.684 376.799C100.968 376.686 101.323 377.07 101.572 376.677C101.803 377.342 102.318 376.992 102.602 377.63C102.522 377.666 102.454 377.724 102.406 377.797C102.717 377.919 102.717 378.12 102.974 378.26C102.77 378.505 103.045 378.619 102.735 378.89C102.007 378.942 101.545 378.557 100.826 378.846C100.548 378.584 100.379 378.228 100.353 377.85C100.326 377.471 100.445 377.097 100.684 376.799Z" fill="#F16EA3"/>
<path opacity="0.1" fill-rule="evenodd" clip-rule="evenodd" d="M116.395 387.645C116.777 387.828 116.937 388.064 116.635 388.432C116.462 388.459 116.285 388.422 116.138 388.327C116.143 388.077 116.234 387.837 116.395 387.645Z" fill="#F16EA3"/>
<path opacity="0.1" fill-rule="evenodd" clip-rule="evenodd" d="M108.682 431.958C108.859 432.01 108.744 432.29 108.726 432.491C109.747 432.133 109.818 432.649 111.194 432.631C111.522 433.506 112.17 435.745 110.697 436.261C110.528 436.926 111.016 437.425 110.386 438.325C108.842 438.667 107.182 439.541 105.522 438.404C105.522 436.655 104.696 435.098 107.075 434.564C106.658 433.209 107.652 431.617 108.682 431.958Z" fill="#F16EA3"/>
<path opacity="0.1" fill-rule="evenodd" clip-rule="evenodd" d="M111.558 399.016C111.27 398.386 111.178 397.686 111.293 397.004C111.408 396.322 111.726 395.689 112.206 395.185C112.971 395.191 113.734 395.106 114.478 394.932C114.511 395.039 114.567 395.138 114.642 395.223C114.717 395.307 114.81 395.375 114.913 395.422C114.097 396.104 115.446 396.681 115.464 397.477C116.103 397.477 116.635 396.646 117.399 397.477C117.384 397.73 117.291 397.972 117.132 398.17C116.974 398.369 116.757 398.514 116.511 398.588C116.307 398.037 115.535 398.281 115.774 397.713C115.245 398.27 114.579 398.683 113.84 398.911C113.101 399.139 112.315 399.176 111.558 399.016Z" fill="#F16EA3"/>
<path opacity="0.1" fill-rule="evenodd" clip-rule="evenodd" d="M119.901 408.568C120.07 409.443 118.89 409.95 119.768 410.991C117.993 410.886 118.579 412.627 116.795 412.74C116.756 412.484 116.649 412.243 116.484 412.041C116.005 412.723 115.481 412.504 115.002 413.047C114.496 412.259 114.061 412.854 113.537 411.752C113.777 409.802 114.984 408.979 114.638 406.81C116.111 405.936 118.188 406.338 119.901 408.568Z" fill="#F16EA3"/>
<path opacity="0.1" fill-rule="evenodd" clip-rule="evenodd" d="M127.402 417.201C127.783 417.376 127.943 417.621 127.641 417.988C127.464 418.016 127.283 417.975 127.136 417.875C127.141 417.626 127.235 417.388 127.402 417.201Z" fill="#F16EA3"/>
<path opacity="0.1" fill-rule="evenodd" clip-rule="evenodd" d="M124.34 425.904C124.5 426.001 124.34 426.245 124.26 426.446C125.308 426.333 125.254 426.858 126.568 427.181C126.684 428.126 126.781 430.531 125.263 430.68C124.953 431.301 125.263 431.922 124.5 432.674C122.964 432.631 121.198 433.103 119.893 431.572C120.248 429.823 119.893 428.074 122.228 428.074C122.157 426.665 123.453 425.31 124.34 425.904Z" fill="#F16EA3"/>
<path opacity="0.1" fill-rule="evenodd" clip-rule="evenodd" d="M108.788 428.931C108.93 428.765 109.117 428.931 109.294 429.036C109.481 427.96 109.969 428.039 110.652 426.709C111.593 426.639 118.721 426.657 118.437 428.214C118.952 428.564 119.653 428.214 120.15 429.088C119.689 430.654 119.644 432.491 117.798 433.751C116.174 433.296 109.632 433.611 110.333 431.188C108.913 431.214 107.972 429.815 108.788 428.931Z" fill="#F16EA3"/>
<path opacity="0.1" fill-rule="evenodd" clip-rule="evenodd" d="M131.183 429.744C129.852 429.28 128.521 428.79 128.316 426.411C129.019 425.688 129.647 424.897 130.189 424.05C130.334 424.101 130.488 424.122 130.641 424.109C130.794 424.097 130.943 424.053 131.077 423.98C130.935 425.248 132.71 424.365 133.438 424.907C134.024 424.277 133.775 423.158 135.213 423.026C135.728 423.324 135.657 424.303 135.355 424.697C134.663 424.513 134.175 425.414 133.855 424.776C133.839 425.753 133.589 426.712 133.125 427.576C132.66 428.439 131.995 429.182 131.183 429.744Z" fill="#F16EA3"/>
<path opacity="0.1" fill-rule="evenodd" clip-rule="evenodd" d="M127.935 409.723C128.547 409.46 129.311 410.3 129.834 409.442C130.34 410.894 131.468 410.125 132.089 411.524C131.908 411.594 131.755 411.72 131.654 411.883C132.329 412.145 132.329 412.6 132.897 412.889C132.444 413.413 133.039 413.667 132.364 414.253C130.793 414.367 129.781 413.545 128.228 414.157C127.621 413.59 127.254 412.819 127.2 411.996C127.146 411.174 127.408 410.362 127.935 409.723Z" fill="#F16EA3"/>
<path opacity="0.1" fill-rule="evenodd" clip-rule="evenodd" d="M129.355 411.008C129.728 411.192 129.896 411.428 129.595 411.795C129.419 411.823 129.238 411.786 129.089 411.69C129.093 411.439 129.188 411.197 129.355 411.008Z" fill="#F16EA3"/>
<path opacity="0.1" fill-rule="evenodd" clip-rule="evenodd" d="M40.6537 384.81C40.7159 384.74 40.7958 384.81 40.8756 384.863C40.9644 384.373 41.1864 384.417 41.4882 383.813C41.9142 383.813 42.9793 383.813 42.855 384.496C43.0858 384.653 43.3966 384.496 43.6185 384.889C43.4144 385.598 43.3965 386.429 42.5622 386.997C41.8254 386.787 41.0266 386.936 41.3461 385.834C40.707 385.843 40.2809 385.213 40.6537 384.81Z" fill="#F16EA3"/>
<path opacity="0.1" fill-rule="evenodd" clip-rule="evenodd" d="M124.828 398.762C124.97 398.605 125.156 398.762 125.325 398.876C125.52 397.8 126.009 397.879 126.683 396.549C127.633 396.479 129.976 396.497 129.701 398.054C130.216 398.403 130.908 398.054 131.405 398.928C130.944 400.494 130.899 402.331 129.062 403.59C127.438 403.136 125.671 403.451 126.399 401.019C124.952 401.045 124.011 399.654 124.828 398.762Z" fill="#F16EA3"/>
<path opacity="0.1" fill-rule="evenodd" clip-rule="evenodd" d="M126.382 422.746C125.876 421.093 125.396 419.431 127.34 417.113C128.752 416.921 129.222 417.201 130.678 416.746C130.727 416.903 130.81 417.048 130.92 417.172C131.03 417.295 131.165 417.395 131.317 417.463C130.118 418.46 132.098 419.318 132.116 420.481C133.065 420.481 133.838 419.265 134.965 420.42C134.948 420.801 134.806 421.166 134.559 421.46C134.312 421.753 133.975 421.96 133.598 422.047C133.287 421.242 132.169 421.601 132.515 420.735C131.753 421.559 130.789 422.177 129.715 422.529C128.641 422.882 127.493 422.956 126.382 422.746Z" fill="#F16EA3"/>
<path opacity="0.1" fill-rule="evenodd" clip-rule="evenodd" d="M120.914 360.678C121.144 360.573 121.437 360.897 121.632 360.573C121.819 361.116 122.245 360.827 122.52 361.352C122.453 361.38 122.397 361.429 122.36 361.492C122.618 361.588 122.609 361.754 122.822 361.868C122.662 362.069 122.884 362.157 122.627 362.384C122.032 362.428 121.65 362.113 121.073 362.384C120.828 362.176 120.674 361.881 120.644 361.563C120.614 361.245 120.711 360.928 120.914 360.678Z" fill="#F16EA3"/>
<path opacity="0.1" fill-rule="evenodd" clip-rule="evenodd" d="M120.239 396.864C120.62 397.048 120.78 397.293 120.478 397.651C120.302 397.682 120.121 397.644 119.973 397.546C119.981 397.296 120.075 397.056 120.239 396.864Z" fill="#F16EA3"/>
<path opacity="0.1" fill-rule="evenodd" clip-rule="evenodd" d="M35.5765 365.017C35.6387 365.06 35.5765 365.139 35.5765 365.218C35.9671 365.218 35.9316 365.41 36.4021 365.576C36.4021 365.935 36.4021 366.836 35.8073 366.845C35.6742 367.072 35.8073 367.317 35.4611 367.571C34.8931 367.501 34.2273 367.615 33.8013 366.994C33.9877 366.338 33.8989 365.673 34.7776 365.778C34.751 365.227 35.2747 364.763 35.5765 365.017Z" fill="#F16EA3"/>
<path opacity="0.1" fill-rule="evenodd" clip-rule="evenodd" d="M109.49 379.86C109.57 379.764 109.685 379.86 109.792 379.921C109.898 379.274 113.067 379.327 113.475 378.531C114.043 378.487 115.455 378.531 115.251 379.405C115.561 379.615 115.978 379.405 116.28 379.939C115.996 380.875 115.978 381.977 114.869 382.738C113.892 382.467 112.827 382.65 113.253 381.198C112.428 381.233 108.993 380.394 109.49 379.86Z" fill="#F16EA3"/>
<path opacity="0.1" fill-rule="evenodd" clip-rule="evenodd" d="M122.236 409.25C121.948 408.62 121.856 407.92 121.971 407.238C122.086 406.556 122.404 405.923 122.884 405.419C123.649 405.424 124.412 405.339 125.157 405.165C125.189 405.273 125.245 405.372 125.32 405.456C125.395 405.541 125.488 405.609 125.591 405.655C124.775 406.337 126.124 406.915 126.142 407.711C126.781 407.711 127.313 406.88 128.077 407.711C128.065 407.964 127.973 408.207 127.814 408.406C127.655 408.605 127.436 408.751 127.189 408.821C126.985 408.27 126.213 408.515 126.452 407.947C125.923 408.504 125.257 408.916 124.518 409.145C123.779 409.373 122.993 409.41 122.236 409.25Z" fill="#F16EA3"/>
<path opacity="0.1" fill-rule="evenodd" clip-rule="evenodd" d="M125.849 372.268C125.494 373.466 125.112 374.673 123.239 375.312C122.44 374.866 122.351 374.507 121.375 374.21C121.414 374.095 121.429 373.974 121.418 373.853C121.408 373.733 121.372 373.616 121.313 373.51C122.307 373.388 121.606 372.084 122.032 371.367C121.535 371 120.683 371.42 120.532 370.274C120.666 370.06 120.871 369.899 121.112 369.817C121.353 369.736 121.616 369.739 121.854 369.828C121.703 370.44 122.422 370.702 121.917 371.061C122.62 370.863 123.367 370.871 124.065 371.086C124.764 371.3 125.384 371.711 125.849 372.268Z" fill="#F16EA3"/>
<path opacity="0.1" fill-rule="evenodd" clip-rule="evenodd" d="M79.5322 425.826C79.1771 427.024 78.8043 428.231 76.9313 428.87C76.1325 428.424 75.9905 428.065 75.0673 427.768C75.1334 427.535 75.1114 427.286 75.0052 427.068C75.9994 426.946 75.2892 425.643 75.7153 424.925C75.2182 424.558 74.3661 424.978 74.2241 423.832C74.3552 423.618 74.5586 423.455 74.7987 423.374C75.0389 423.292 75.3005 423.296 75.5378 423.386C75.3958 423.998 76.1147 424.26 75.6088 424.619C76.3107 424.418 77.0573 424.425 77.7551 424.64C78.4528 424.855 79.071 425.267 79.5322 425.826Z" fill="#F16EA3"/>
<path opacity="0.1" fill-rule="evenodd" clip-rule="evenodd" d="M48.669 431.108C49.1306 431.108 49.4057 431.826 49.956 431.406C49.9027 432.455 50.8436 432.281 50.8436 433.295C50.709 433.294 50.5778 433.337 50.4709 433.418C50.8348 433.75 50.7194 434.039 51.0035 434.371C50.5863 434.598 50.8969 434.896 50.32 435.106C49.2814 434.791 48.8465 434.004 47.6571 434.012C47.4228 433.492 47.3969 432.904 47.5846 432.365C47.7722 431.826 48.1596 431.377 48.669 431.108Z" fill="#F16EA3"/>
<path opacity="0.1" fill-rule="evenodd" clip-rule="evenodd" d="M128.414 349.779C129.018 349.517 129.79 350.365 130.313 349.508C130.811 350.96 131.947 350.19 132.559 351.589C132.382 351.661 132.232 351.787 132.133 351.948C132.808 352.211 132.799 352.657 133.367 352.954C132.923 353.479 133.518 353.724 132.843 354.319C131.272 354.432 130.251 353.61 128.698 354.223C128.094 353.652 127.73 352.878 127.677 352.055C127.624 351.232 127.887 350.42 128.414 349.779Z" fill="#F16EA3"/>
<path opacity="0.1" fill-rule="evenodd" clip-rule="evenodd" d="M134.503 370.151C134.885 370.335 135.045 370.571 134.743 370.939C134.57 370.966 134.393 370.929 134.246 370.834C134.251 370.584 134.342 370.344 134.503 370.151Z" fill="#F16EA3"/>
<path opacity="0.1" fill-rule="evenodd" clip-rule="evenodd" d="M123.097 343.113C123.177 343.113 123.097 343.245 123.097 343.324C123.505 343.184 123.532 343.385 124.074 343.376C124.207 343.726 124.464 344.609 123.878 344.81C123.807 345.073 124.003 345.274 123.754 345.624C123.15 345.755 122.494 346.105 121.837 345.624C121.837 344.916 121.508 344.321 122.449 344.102C122.307 343.604 122.698 342.982 123.097 343.113Z" fill="#F16EA3"/>
<path opacity="0.1" fill-rule="evenodd" clip-rule="evenodd" d="M129.462 392.395C129.173 391.763 129.081 391.06 129.198 390.376C129.315 389.693 129.635 389.059 130.119 388.555C130.88 388.563 131.64 388.48 132.382 388.31C132.418 388.417 132.476 388.516 132.552 388.6C132.628 388.685 132.722 388.752 132.826 388.799C132.009 389.473 133.35 390.059 133.367 390.847C134.015 390.847 134.539 390.016 135.302 390.847C135.289 391.098 135.196 391.339 135.037 391.537C134.878 391.734 134.66 391.878 134.415 391.948C134.202 391.397 133.438 391.642 133.669 391.074C133.143 391.632 132.479 392.048 131.741 392.279C131.004 392.51 130.219 392.55 129.462 392.395Z" fill="#F16EA3"/>
<path opacity="0.1" fill-rule="evenodd" clip-rule="evenodd" d="M128.236 422.414C128.396 423.289 127.225 423.796 128.103 424.837C126.328 424.732 126.914 426.473 125.13 426.534C125.089 426.279 124.979 426.04 124.81 425.843C124.34 426.525 123.816 426.307 123.337 426.849C122.822 426.053 122.396 426.648 121.872 425.554C122.112 423.604 123.319 422.782 122.973 420.612C124.491 419.773 126.568 420.184 128.236 422.414Z" fill="#F16EA3"/>
<path opacity="0.1" fill-rule="evenodd" clip-rule="evenodd" d="M113.093 413.012C113.475 413.195 113.634 413.431 113.333 413.799C113.16 413.826 112.982 413.789 112.836 413.694C112.837 413.444 112.928 413.202 113.093 413.012Z" fill="#F16EA3"/>
<path opacity="0.1" fill-rule="evenodd" clip-rule="evenodd" d="M116.271 435.946C116.44 436.051 116.271 436.295 116.191 436.488C117.239 436.383 117.194 436.908 118.499 437.231C118.615 438.176 118.712 440.581 117.203 440.73C116.884 441.351 117.203 441.972 116.431 442.716C114.895 442.716 113.129 443.153 111.824 441.622C112.188 439.829 111.824 438.123 114.168 438.123C114.079 436.715 115.384 435.36 116.271 435.946Z" fill="#F16EA3"/>
<path opacity="0.1" fill-rule="evenodd" clip-rule="evenodd" d="M128.441 404.335C128.583 404.177 128.769 404.335 128.947 404.44C129.133 403.364 129.63 403.442 130.305 402.122C131.246 402.052 133.589 402.069 133.314 403.626C133.829 403.976 134.53 403.626 135.027 404.501C134.557 406.075 134.521 407.903 132.675 409.172C131.05 408.708 129.284 409.023 130.012 406.6C128.565 406.618 127.624 405.218 128.441 404.335Z" fill="#F16EA3"/>
<path opacity="0.1" fill-rule="evenodd" clip-rule="evenodd" d="M127.243 435.753C125.911 435.289 124.58 434.799 124.375 432.42C125.081 431.699 125.709 430.908 126.248 430.059C126.528 430.146 126.831 430.121 127.092 429.989C126.95 431.248 128.725 430.374 129.453 430.916C130.039 430.286 129.79 429.166 131.228 429.035C131.743 429.333 131.672 430.312 131.37 430.706C130.678 430.514 130.189 431.423 129.87 430.785C129.859 431.758 129.615 432.715 129.159 433.578C128.702 434.441 128.046 435.187 127.243 435.753Z" fill="#F16EA3"/>
<path opacity="0.1" fill-rule="evenodd" clip-rule="evenodd" d="M34.0052 406.346C34.4224 406.163 34.9549 406.749 35.3189 406.154C35.665 407.16 36.4373 406.626 36.8633 407.589C36.7422 407.638 36.6399 407.724 36.5705 407.834C37.032 408.017 37.032 408.324 37.4581 408.525C37.1474 408.892 37.5557 409.058 37.0941 409.469C36.0112 409.548 35.3189 408.98 34.2449 409.399C33.8209 409.015 33.5605 408.486 33.5161 407.92C33.4716 407.353 33.6464 406.791 34.0052 406.346Z" fill="#F16EA3"/>
<path opacity="0.1" fill-rule="evenodd" clip-rule="evenodd" d="M102.859 434.258C103.24 434.433 103.4 434.678 103.098 435.045C102.925 435.072 102.748 435.035 102.602 434.94C102.605 434.69 102.696 434.449 102.859 434.258Z" fill="#F16EA3"/>
<path opacity="0.1" fill-rule="evenodd" clip-rule="evenodd" d="M130.261 412.504C130.403 412.347 130.589 412.504 130.767 412.618C130.953 411.533 131.45 411.621 132.125 410.292C133.066 410.222 135.418 410.239 135.134 411.796C135.649 412.146 136.35 411.796 136.847 412.67C136.376 414.245 136.341 416.082 134.495 417.342C132.87 416.878 131.104 417.201 131.832 414.77C130.385 414.761 129.444 413.396 130.261 412.504Z" fill="#F16EA3"/>
<path opacity="0.1" fill-rule="evenodd" clip-rule="evenodd" d="M129.666 384.426C129.808 384.269 129.994 384.427 130.172 384.54C130.358 383.464 130.846 383.543 131.53 382.213C132.471 382.143 134.814 382.161 134.539 383.718C135.054 384.068 135.755 383.718 136.252 384.592C135.782 386.167 135.746 388.004 133.9 389.264C132.275 388.8 130.509 389.124 131.237 386.692C129.799 386.709 128.858 385.318 129.666 384.426Z" fill="#F16EA3"/>
<path opacity="0.1" fill-rule="evenodd" clip-rule="evenodd" d="M80.4021 444.151C79.8962 442.498 79.4168 440.836 81.3607 438.509C82.772 438.325 83.2425 438.605 84.6982 438.142C84.7471 438.3 84.8293 438.447 84.9394 438.572C85.0495 438.697 85.1852 438.798 85.3374 438.868C84.1391 439.865 86.1184 440.713 86.1362 441.877C87.086 441.877 87.9115 440.661 88.9856 441.824C88.9618 442.203 88.8165 442.564 88.5709 442.857C88.3252 443.149 87.9918 443.357 87.6186 443.451C87.3168 442.637 86.1895 442.996 86.5357 442.13C85.7739 442.956 84.8101 443.575 83.7363 443.929C82.6624 444.282 81.5145 444.359 80.4021 444.151Z" fill="#F16EA3"/>
<path opacity="0.1" fill-rule="evenodd" clip-rule="evenodd" d="M128.778 364.903C129.39 364.641 130.163 365.489 130.686 364.632C131.183 366.084 132.32 365.305 132.932 366.705C132.754 366.779 132.602 366.904 132.497 367.064C133.172 367.335 133.172 367.781 133.74 368.07C133.296 368.603 133.891 368.848 133.216 369.434C131.645 369.557 130.624 368.725 129.071 369.338C128.466 368.77 128.1 367.998 128.046 367.177C127.992 366.355 128.253 365.544 128.778 364.903Z" fill="#F16EA3"/>
<path opacity="0.1" fill-rule="evenodd" clip-rule="evenodd" d="M134.743 396.322C135.124 396.497 135.284 396.742 134.982 397.109C134.809 397.137 134.632 397.1 134.485 397.005C134.485 396.754 134.576 396.512 134.743 396.322Z" fill="#F16EA3"/>
<path opacity="0.1" fill-rule="evenodd" clip-rule="evenodd" d="M133.731 391.914C133.944 392.08 133.669 392.412 133.545 392.692C135.054 392.692 134.912 393.435 136.74 394.083C136.74 395.473 136.616 398.99 134.441 399.008C133.918 399.882 134.335 400.827 133.101 401.806C130.908 401.553 128.325 401.999 126.666 399.594C127.402 397.031 127.065 394.476 130.438 394.861C130.5 392.727 132.524 390.934 133.731 391.914Z" fill="#F16EA3"/>
<path opacity="0.1" fill-rule="evenodd" clip-rule="evenodd" d="M126.639 375.54C126.781 375.373 126.968 375.539 127.145 375.644C127.331 374.568 127.828 374.647 128.503 373.318C129.444 373.248 131.787 373.265 131.512 374.822C132.027 375.172 132.728 374.822 133.225 375.697C132.755 377.263 132.719 379.099 130.873 380.359C129.249 379.904 127.482 380.219 128.21 377.796C126.763 377.823 125.822 376.423 126.639 375.54Z" fill="#F16EA3"/>
<path opacity="0.1" fill-rule="evenodd" clip-rule="evenodd" d="M128.317 380.91C128.026 380.279 127.933 379.577 128.049 378.893C128.164 378.21 128.483 377.575 128.964 377.07C129.729 377.083 130.493 377 131.237 376.825C131.271 376.932 131.328 377.03 131.402 377.115C131.477 377.199 131.569 377.267 131.672 377.315C130.855 377.997 132.204 378.575 132.222 379.362C132.861 379.362 133.394 378.54 134.157 379.362C134.143 379.614 134.05 379.857 133.891 380.055C133.732 380.254 133.515 380.399 133.27 380.473C133.065 379.922 132.293 380.166 132.533 379.598C132.005 380.156 131.339 380.571 130.6 380.801C129.861 381.031 129.074 381.068 128.317 380.91Z" fill="#F16EA3"/>
<path opacity="0.1" fill-rule="evenodd" clip-rule="evenodd" d="M132.515 361.806C132.16 363.014 131.787 364.221 129.914 364.859C129.107 364.405 128.973 364.054 128.05 363.757C128.116 363.524 128.094 363.276 127.988 363.057C128.982 362.935 128.272 361.631 128.698 360.914C128.201 360.547 127.349 360.967 127.207 359.812C127.339 359.599 127.543 359.438 127.783 359.357C128.022 359.275 128.283 359.278 128.521 359.366C128.379 359.987 129.089 360.241 128.592 360.599C129.294 360.404 130.039 360.414 130.735 360.628C131.432 360.843 132.05 361.252 132.515 361.806Z" fill="#F16EA3"/>
<path opacity="0.1" fill-rule="evenodd" clip-rule="evenodd" d="M35.399 417.385C35.7097 417.254 36.1091 417.691 36.3843 417.245C36.6417 417.997 37.2186 417.595 37.5382 418.321C37.4464 418.358 37.3688 418.422 37.3162 418.505C37.6624 418.645 37.6625 418.872 37.9554 419.021C37.7246 419.301 38.0353 419.423 37.6891 419.73C36.8725 419.791 36.3487 419.362 35.5499 419.677C35.2341 419.385 35.0428 418.986 35.0148 418.561C34.9868 418.135 35.1242 417.715 35.399 417.385Z" fill="#F16EA3"/>
<path opacity="0.1" fill-rule="evenodd" clip-rule="evenodd" d="M125.423 125.236C126.026 124.974 126.799 125.822 127.322 124.965C127.819 126.417 128.956 125.638 129.568 127.038C129.392 127.116 129.244 127.244 129.142 127.405C129.817 127.668 129.817 128.114 130.385 128.411C129.932 128.936 130.527 129.181 129.852 129.767C128.281 129.89 127.26 129.058 125.707 129.671C125.104 129.101 124.739 128.33 124.687 127.508C124.634 126.687 124.897 125.876 125.423 125.236Z" fill="#F16EA3"/>
<path opacity="0.1" fill-rule="evenodd" clip-rule="evenodd" d="M116.573 135.574C116.75 135.653 116.821 135.767 116.679 135.943C116.599 135.954 116.516 135.935 116.449 135.89C116.448 135.773 116.493 135.66 116.573 135.574Z" fill="#F16EA3"/>
<path opacity="0.1" fill-rule="evenodd" clip-rule="evenodd" d="M124.162 123.679C124.287 123.679 124.162 123.907 124.162 124.047C124.855 123.802 124.899 124.143 125.84 124.134C126.062 124.729 126.497 126.242 125.494 126.592C125.378 127.038 125.716 127.379 125.289 127.991C124.242 128.219 123.115 128.814 121.996 128.044C121.996 126.837 121.437 125.805 123.053 125.42C122.795 124.528 123.452 123.487 124.162 123.679Z" fill="#F16EA3"/>
<path opacity="0.1" fill-rule="evenodd" clip-rule="evenodd" d="M42.8816 126.452C42.8057 126.287 42.7813 126.103 42.8113 125.924C42.8413 125.745 42.9245 125.579 43.0503 125.446C43.3077 125.446 44.6392 125.446 44.9054 125.376C44.912 125.404 44.9249 125.431 44.9434 125.454C44.9618 125.476 44.9853 125.495 45.012 125.507C44.7989 125.682 45.154 125.84 45.1629 126.041C45.3315 126.041 45.4646 125.822 45.6688 126.041C45.6688 126.172 45.5179 126.321 45.4202 126.33C45.367 126.19 45.1717 126.251 45.225 126.093C44.4847 126.398 43.6807 126.521 42.8816 126.452Z" fill="#F16EA3"/>
<path opacity="0.1" fill-rule="evenodd" clip-rule="evenodd" d="M40.4053 377.402C40.5739 378.276 39.3935 378.775 40.2722 379.825C38.497 379.72 39.0827 381.46 37.2986 381.521C37.2617 381.267 37.1542 381.028 36.9879 380.83C36.5086 381.513 35.985 381.294 35.5056 381.836C34.9997 381.04 34.5647 381.635 34.041 380.542C34.2807 378.591 35.4879 377.769 35.1417 375.6C36.6595 374.76 38.7365 375.171 40.4053 377.402Z" fill="#F16EA3"/>
<path opacity="0.1" fill-rule="evenodd" clip-rule="evenodd" d="M111.664 136.922C111.842 137.001 111.922 137.115 111.78 137.29C111.696 137.301 111.611 137.283 111.54 137.238C111.541 137.121 111.586 137.009 111.664 136.922Z" fill="#F16EA3"/>
<path opacity="0.1" fill-rule="evenodd" clip-rule="evenodd" d="M126.55 412.618C126.71 412.714 126.55 412.967 126.47 413.16C127.518 413.055 127.464 413.58 128.769 413.903C128.885 414.848 128.982 417.254 127.473 417.402C127.163 418.023 127.473 418.644 126.71 419.388C125.174 419.388 123.399 419.825 122.094 418.294C122.458 416.501 122.094 414.796 124.438 414.796C124.34 413.387 125.654 412.031 126.55 412.618Z" fill="#F16EA3"/>
<path opacity="0.1" fill-rule="evenodd" clip-rule="evenodd" d="M60.3238 437.59C60.4659 437.747 60.244 437.905 60.1463 438.062C61.2026 438.395 61.0339 438.858 62.3032 439.698C62.25 440.634 61.9215 442.917 60.3948 442.444C59.9687 442.899 60.2084 443.625 59.2853 443.993C57.7674 443.337 55.9212 443.048 54.9004 441.08C55.575 439.558 55.495 437.791 57.8384 438.797C58.0071 437.406 59.5427 436.672 60.3238 437.59Z" fill="#F16EA3"/>
<path opacity="0.1" fill-rule="evenodd" clip-rule="evenodd" d="M126.692 173.667C126.94 173.991 126.541 174.542 127.145 174.752C126.328 175.268 126.976 175.819 126.213 176.397C126.143 176.301 126.043 176.23 125.929 176.195C125.866 176.632 125.591 176.702 125.503 177.07C125.112 176.886 125.05 177.28 124.615 176.965C124.304 176.09 124.615 175.329 124.056 174.498C124.313 174.063 124.725 173.738 125.212 173.584C125.699 173.431 126.226 173.46 126.692 173.667Z" fill="#F16EA3"/>
<path opacity="0.1" fill-rule="evenodd" clip-rule="evenodd" d="M43.5652 124.615C43.7249 125.489 42.5444 125.988 43.4231 127.037C41.6478 126.932 42.2426 128.673 40.4584 128.734C40.4136 128.481 40.3036 128.243 40.1389 128.043C39.6596 128.726 39.1447 128.507 38.6565 129.049C38.1506 128.253 37.7156 128.848 37.1919 127.755C37.4316 125.804 38.6387 124.973 38.3014 122.813C39.8104 121.973 41.8964 122.384 43.5652 124.615Z" fill="#F16EA3"/>
<path opacity="0.1" fill-rule="evenodd" clip-rule="evenodd" d="M127.402 335.505C127.783 335.689 127.943 335.925 127.641 336.292C127.465 336.318 127.286 336.281 127.136 336.187C127.14 335.936 127.234 335.694 127.402 335.505Z" fill="#F16EA3"/>
<path opacity="0.1" fill-rule="evenodd" clip-rule="evenodd" d="M119.014 198.352C119.395 198.535 119.555 198.772 119.253 199.139C119.077 199.166 118.898 199.128 118.748 199.034C118.756 198.784 118.85 198.543 119.014 198.352Z" fill="#F16EA3"/>
<path opacity="0.1" fill-rule="evenodd" clip-rule="evenodd" d="M130.491 167.991C130.136 169.198 129.763 170.396 127.89 171.035C127.092 170.589 126.95 170.23 126.026 169.933C126.092 169.703 126.07 169.457 125.964 169.242C126.958 169.111 126.248 167.808 126.674 167.09C126.177 166.732 125.325 167.151 125.183 165.997C125.315 165.784 125.519 165.623 125.759 165.541C125.998 165.46 126.259 165.463 126.497 165.551C126.355 166.163 127.074 166.425 126.568 166.784C127.27 166.588 128.015 166.597 128.712 166.812C129.409 167.026 130.027 167.436 130.491 167.991Z" fill="#F16EA3"/>
<path opacity="0.1" fill-rule="evenodd" clip-rule="evenodd" d="M125.84 148.476C126.452 148.214 127.225 149.062 127.748 148.205C128.246 149.657 129.373 148.887 129.994 150.278C129.815 150.356 129.664 150.483 129.559 150.646C130.234 150.908 130.234 151.354 130.802 151.652C130.358 152.177 130.953 152.421 130.278 153.016C128.698 153.13 127.686 152.308 126.133 152.92C125.526 152.351 125.158 151.578 125.104 150.755C125.05 149.931 125.313 149.117 125.84 148.476Z" fill="#F16EA3"/>
<path opacity="0.1" fill-rule="evenodd" clip-rule="evenodd" d="M133.314 171.595C133.687 171.778 133.855 172.015 133.545 172.382C133.372 172.409 133.194 172.372 133.048 172.277C133.052 172.025 133.146 171.784 133.314 171.595Z" fill="#F16EA3"/>
<path opacity="0.1" fill-rule="evenodd" clip-rule="evenodd" d="M121.154 158.308C121.296 158.308 121.154 158.562 121.154 158.711C121.944 158.44 122.041 158.833 123.053 158.824C123.311 159.489 123.808 161.221 122.671 161.606C122.538 162.122 122.92 162.481 122.432 163.198C121.242 163.46 119.973 164.134 118.695 163.259C118.695 161.895 118.065 160.714 119.893 160.312C119.6 159.271 120.364 158.046 121.154 158.308Z" fill="#F16EA3"/>
<path opacity="0.1" fill-rule="evenodd" clip-rule="evenodd" d="M128.61 335.662C128.743 335.495 128.938 335.662 129.107 335.767C129.293 334.691 129.79 334.77 130.465 333.449C131.414 333.379 133.758 333.396 133.483 334.944C133.989 335.294 134.69 334.944 135.187 335.819C134.725 337.385 134.681 339.222 132.843 340.481C131.21 340.026 129.453 340.341 130.181 337.918C128.725 337.945 127.793 336.545 128.61 335.662Z" fill="#F16EA3"/>
<path opacity="0.1" fill-rule="evenodd" clip-rule="evenodd" d="M128.13 136.205C128.263 136.047 128.459 136.205 128.627 136.31C128.814 135.234 129.311 135.312 129.985 133.992C130.935 133.922 133.279 133.94 133.003 135.488C133.509 135.838 134.211 135.488 134.708 136.363C134.246 137.937 134.202 139.765 132.355 141.024C130.731 140.569 128.965 140.885 129.692 138.462C128.246 138.488 127.314 137.088 128.13 136.205Z" fill="#F16EA3"/>
<path opacity="0.1" fill-rule="evenodd" clip-rule="evenodd" d="M127.562 179.563C128.175 179.301 128.947 180.14 129.471 179.283C129.968 180.735 131.104 179.965 131.716 181.365C131.535 181.434 131.383 181.56 131.281 181.724C131.956 181.986 131.956 182.432 132.524 182.729C132.08 183.254 132.675 183.508 132 184.094C130.429 184.208 129.408 183.386 127.855 183.998C127.25 183.43 126.885 182.658 126.83 181.837C126.776 181.015 127.037 180.203 127.562 179.563Z" fill="#F16EA3"/>
<path opacity="0.1" fill-rule="evenodd" clip-rule="evenodd" d="M133.544 197.836C133.926 198.02 134.086 198.265 133.784 198.632C133.698 198.646 133.609 198.643 133.524 198.624C133.439 198.604 133.358 198.568 133.287 198.518C133.289 198.268 133.38 198.027 133.544 197.836Z" fill="#F16EA3"/>
<path opacity="0.1" fill-rule="evenodd" clip-rule="evenodd" d="M131.121 123.487C131.334 123.653 131.059 123.994 130.935 124.274C132.444 124.274 132.302 125.009 134.13 125.656C134.13 127.055 134.006 130.563 131.831 130.589C131.308 131.464 131.734 132.4 130.491 133.388C128.307 133.126 125.724 133.58 124.056 131.166C124.792 128.612 124.455 126.058 127.828 126.434C127.89 124.361 129.914 122.551 131.121 123.487Z" fill="#F16EA3"/>
<path opacity="0.1" fill-rule="evenodd" clip-rule="evenodd" d="M111.78 124.815C111.922 124.649 112.108 124.816 112.286 124.921C112.472 123.845 112.969 123.923 113.644 122.603C114.585 122.533 116.928 122.541 116.653 124.098C117.168 124.448 117.869 124.098 118.366 124.973C117.896 126.539 117.86 128.375 116.014 129.635C114.39 129.18 112.623 129.495 113.351 127.072C111.913 127.099 110.963 125.699 111.78 124.815Z" fill="#F16EA3"/>
<path opacity="0.1" fill-rule="evenodd" clip-rule="evenodd" d="M101.679 143.745C101.392 143.114 101.301 142.413 101.418 141.731C101.535 141.049 101.854 140.417 102.335 139.913C103.098 139.918 103.857 139.834 104.599 139.66C104.632 139.769 104.689 139.869 104.766 139.953C104.843 140.038 104.937 140.105 105.043 140.15C104.226 140.832 105.566 141.409 105.584 142.205C106.232 142.205 106.756 141.374 107.519 142.205C107.505 142.458 107.412 142.7 107.253 142.898C107.094 143.097 106.877 143.243 106.632 143.316C106.428 142.765 105.664 143.01 105.895 142.441C105.366 142.998 104.699 143.411 103.961 143.639C103.222 143.868 102.436 143.904 101.679 143.745Z" fill="#F16EA3"/>
<path opacity="0.1" fill-rule="evenodd" clip-rule="evenodd" d="M131.317 163.294C130.962 164.501 130.589 165.699 128.716 166.338C128.145 165.894 127.519 165.523 126.852 165.236C126.918 165.005 126.895 164.76 126.79 164.545C127.784 164.422 127.074 163.11 127.5 162.402C127.003 162.034 126.151 162.454 126.009 161.299C126.141 161.086 126.345 160.925 126.584 160.844C126.824 160.762 127.085 160.766 127.322 160.854C127.18 161.466 127.899 161.728 127.393 162.087C128.096 161.891 128.841 161.902 129.537 162.116C130.234 162.33 130.852 162.739 131.317 163.294Z" fill="#F16EA3"/>
<path opacity="0.1" fill-rule="evenodd" clip-rule="evenodd" d="M131.441 137.412C131.609 137.508 131.441 137.753 131.37 137.954C132.417 137.85 132.364 138.374 133.669 138.698C133.784 139.643 133.882 142.048 132.373 142.197C132.053 142.818 132.373 143.447 131.601 144.191C130.065 144.191 128.298 144.629 126.994 143.089C127.358 141.34 126.994 139.59 129.337 139.59C129.231 138.173 130.553 136.826 131.441 137.412Z" fill="#F16EA3"/>
<path opacity="0.1" fill-rule="evenodd" clip-rule="evenodd" d="M32.4164 124.361C32.5495 124.195 32.736 124.361 32.9135 124.466C33.0999 123.39 33.597 123.469 34.2716 122.139C35.2125 122.069 37.5648 122.087 37.2896 123.644C37.7956 123.994 38.4967 123.644 38.9938 124.518C38.5322 126.084 38.4878 127.921 36.6415 129.18C35.0172 128.725 33.2508 129.04 33.9786 126.609C32.5318 126.67 31.5998 125.236 32.4164 124.361Z" fill="#F16EA3"/>
<path opacity="0.1" fill-rule="evenodd" clip-rule="evenodd" d="M38.4878 136.983C37.4936 136.633 36.5083 136.274 36.3574 134.498C36.8783 133.963 37.3422 133.377 37.7421 132.749C37.9516 132.808 38.176 132.79 38.3724 132.696C38.2659 133.632 39.5884 132.976 40.1476 133.387C40.5826 132.915 40.3962 132.111 41.4524 131.988C41.8341 132.207 41.7809 132.942 41.559 133.23C41.0441 133.09 40.6713 133.764 40.4405 133.283C40.4323 134.007 40.2513 134.72 39.9121 135.362C39.5728 136.005 39.085 136.56 38.4878 136.983Z" fill="#F16EA3"/>
<path opacity="0.1" fill-rule="evenodd" clip-rule="evenodd" d="M48.3849 134.499C48.669 134.377 49.0329 134.771 49.2725 134.377C49.5122 135.05 50.0359 134.692 50.3288 135.348C50.2432 135.378 50.171 135.437 50.1246 135.514C50.4353 135.636 50.4353 135.846 50.7016 135.977C50.4975 136.231 50.7726 136.345 50.4619 136.616C49.7252 136.677 49.2458 136.284 48.5269 136.572C48.241 136.309 48.0675 135.948 48.0411 135.563C48.0147 135.179 48.1376 134.798 48.3849 134.499Z" fill="#F16EA3"/>
<path opacity="0.1" fill-rule="evenodd" clip-rule="evenodd" d="M37.3519 143.815C37.414 143.736 37.5028 143.814 37.5827 143.867C37.6714 143.359 37.9022 143.395 38.2129 142.782C38.6567 142.782 39.7485 142.782 39.6243 143.482C39.8639 143.648 40.1923 143.482 40.423 143.893C40.2011 144.628 40.1834 145.485 39.3224 146.071C38.5679 145.852 37.7425 146.001 38.0709 144.873C37.4052 144.882 36.9702 144.226 37.3519 143.815Z" fill="#F16EA3"/>
<path opacity="0.1" fill-rule="evenodd" clip-rule="evenodd" d="M128.21 146.018C128.272 145.939 128.361 146.018 128.441 146.071C128.53 145.563 128.76 145.599 129.08 144.986C129.524 144.986 130.615 144.986 130.482 145.686C130.722 145.843 131.05 145.686 131.281 146.097C131.068 146.832 131.05 147.68 130.189 148.275C129.426 148.056 128.601 148.205 128.929 147.077C128.272 147.103 127.828 146.429 128.21 146.018Z" fill="#F16EA3"/>
<path opacity="0.1" fill-rule="evenodd" clip-rule="evenodd" d="M100.063 129.95C99.8484 129.486 99.7793 128.969 99.8647 128.465C99.9501 127.962 100.186 127.495 100.542 127.125C101.104 127.128 101.664 127.066 102.211 126.941C102.236 127.02 102.277 127.092 102.332 127.154C102.387 127.216 102.455 127.265 102.531 127.3C101.936 127.798 102.921 128.227 102.939 128.813C103.409 128.813 103.827 128.201 104.359 128.813C104.353 129.005 104.282 129.19 104.159 129.338C104.035 129.487 103.865 129.591 103.676 129.635C103.525 129.224 102.957 129.408 103.134 128.971C102.75 129.379 102.266 129.683 101.728 129.854C101.19 130.026 100.617 130.059 100.063 129.95Z" fill="#F16EA3"/>
<path opacity="0.1" fill-rule="evenodd" clip-rule="evenodd" d="M116.662 137.272C116.946 137.149 117.301 137.543 117.55 137.149C117.78 137.823 118.313 137.464 118.597 138.112C118.511 138.146 118.439 138.207 118.393 138.286C118.712 138.409 118.712 138.619 118.979 138.75C118.766 139.004 119.041 139.118 118.73 139.389C117.993 139.441 117.523 139.056 116.795 139.345C116.512 139.079 116.342 138.718 116.317 138.334C116.292 137.95 116.416 137.57 116.662 137.272Z" fill="#F16EA3"/>
<path opacity="0.1" fill-rule="evenodd" clip-rule="evenodd" d="M117.434 141.934C117.612 142.021 117.691 142.135 117.55 142.302C117.47 142.317 117.387 142.302 117.319 142.258C117.321 142.14 117.361 142.026 117.434 141.934Z" fill="#F16EA3"/>
<path opacity="0.1" fill-rule="evenodd" clip-rule="evenodd" d="M39.42 152.132C39.4821 152.185 39.42 152.281 39.3668 152.369C39.8195 152.369 39.775 152.587 40.3165 152.78C40.3165 153.2 40.3165 154.24 39.633 154.249C39.4732 154.511 39.633 154.791 39.2336 155.124C38.5768 155.045 36.3843 155.176 35.8872 154.459C36.127 154.004 36.497 153.628 36.9514 153.377C37.4057 153.127 37.9245 153.013 38.4436 153.051C38.4614 152.351 39.0649 151.844 39.42 152.132Z" fill="#F16EA3"/>
<path opacity="0.1" fill-rule="evenodd" clip-rule="evenodd" d="M116.102 125.787C116.173 125.717 116.262 125.787 116.342 125.839C116.431 125.341 116.662 125.376 116.972 124.755C117.416 124.755 118.508 124.755 118.384 125.454C118.623 125.621 118.943 125.455 119.182 125.866C118.961 126.601 118.943 127.457 118.082 128.044C117.327 127.834 116.502 127.982 116.83 126.845C116.165 126.854 115.721 126.207 116.102 125.787Z" fill="#F16EA3"/>
<path opacity="0.1" fill-rule="evenodd" clip-rule="evenodd" d="M126.444 141.759C126.31 141.464 126.267 141.136 126.32 140.817C126.374 140.498 126.522 140.202 126.745 139.965C127.104 139.966 127.461 139.928 127.811 139.852C127.827 139.901 127.853 139.947 127.888 139.987C127.923 140.026 127.967 140.057 128.015 140.079C127.633 140.394 128.263 140.665 128.263 141.032C128.565 141.032 128.814 140.648 129.151 141.032C129.145 141.153 129.099 141.269 129.021 141.362C128.942 141.455 128.835 141.52 128.716 141.548C128.618 141.295 128.263 141.408 128.37 141.129C128.128 141.384 127.825 141.576 127.489 141.686C127.152 141.796 126.793 141.821 126.444 141.759Z" fill="#F16EA3"/>
<path opacity="0.1" fill-rule="evenodd" clip-rule="evenodd" d="M131.592 132.679C131.237 133.886 130.855 135.085 128.982 135.723C128.183 135.277 128.095 134.918 127.118 134.621C127.156 134.508 127.17 134.388 127.159 134.269C127.149 134.15 127.114 134.035 127.056 133.93C128.05 133.799 127.349 132.495 127.775 131.778C127.278 131.411 126.426 131.831 126.275 130.685C126.409 130.471 126.614 130.31 126.855 130.228C127.096 130.147 127.359 130.151 127.597 130.239C127.447 130.851 128.166 131.113 127.66 131.472C128.363 131.274 129.11 131.282 129.809 131.497C130.507 131.711 131.127 132.122 131.592 132.679Z" fill="#F16EA3"/>
<path opacity="0.1" fill-rule="evenodd" clip-rule="evenodd" d="M49.0862 126.583C49.6987 126.32 50.4621 127.169 50.9858 126.312C51.4917 127.764 52.6191 126.985 53.2404 128.385C53.0595 128.454 52.9067 128.58 52.8055 128.743C53.4801 129.014 53.4801 129.461 54.0482 129.749C53.5955 130.283 54.1901 130.528 53.5155 131.114C51.9444 131.236 50.9326 130.405 49.3792 131.017C48.7727 130.45 48.4056 129.679 48.3513 128.857C48.297 128.034 48.5594 127.222 49.0862 126.583Z" fill="#F16EA3"/>
<path opacity="0.1" fill-rule="evenodd" clip-rule="evenodd" d="M40.2365 136.904C40.414 136.992 40.4849 137.106 40.343 137.272C40.2633 137.286 40.1811 137.271 40.1123 137.229C40.1132 137.109 40.1573 136.994 40.2365 136.904Z" fill="#F16EA3"/>
<path opacity="0.1" fill-rule="evenodd" clip-rule="evenodd" d="M47.8258 125.017C47.9501 125.017 47.8258 125.236 47.8258 125.376C48.5182 125.14 48.5625 125.481 49.5034 125.472C49.7253 126.058 50.1603 127.58 49.1573 127.93C49.0419 128.376 49.3791 128.717 48.9531 129.33C47.9056 129.557 46.7784 130.143 45.66 129.382C45.66 128.175 45.1008 127.143 46.7163 126.758C46.4589 125.866 47.1157 124.79 47.8258 125.017Z" fill="#F16EA3"/>
<path opacity="0.1" fill-rule="evenodd" clip-rule="evenodd" d="M35.3278 138.251C35.5053 138.339 35.5851 138.453 35.4432 138.628C35.3595 138.639 35.2746 138.62 35.2036 138.575C35.2131 138.458 35.2562 138.345 35.3278 138.251Z" fill="#F16EA3"/>
<path opacity="0.1" fill-rule="evenodd" clip-rule="evenodd" d="M38.8873 185.249C39.1359 185.572 38.7364 186.124 39.3311 186.333C38.5234 186.85 39.1714 187.4 38.4435 187.978C38.3718 187.884 38.2728 187.814 38.1595 187.777C38.0974 188.214 37.8222 188.284 37.7335 188.651C37.3429 188.468 37.2808 188.861 36.8458 188.546C36.5352 187.628 36.8902 186.902 36.2866 186.08C36.5405 185.65 36.946 185.328 37.4259 185.175C37.9057 185.021 38.426 185.048 38.8873 185.249Z" fill="#F16EA3"/>
<path opacity="0.1" fill-rule="evenodd" clip-rule="evenodd" d="M42.6777 179.572C42.3226 180.779 41.9498 181.977 40.0769 182.616C39.2691 182.17 39.136 181.811 38.2128 181.514C38.2784 181.284 38.2563 181.038 38.1508 180.823C39.1449 180.691 38.4347 179.388 38.8608 178.671C38.3637 178.312 37.5117 178.723 37.3696 177.578C37.502 177.364 37.7054 177.204 37.9451 177.122C38.1848 177.041 38.4458 177.044 38.6833 177.132C38.5413 177.744 39.2514 178.006 38.7543 178.365C39.4565 178.168 40.202 178.176 40.899 178.391C41.5961 178.605 42.2143 179.016 42.6777 179.572Z" fill="#F16EA3"/>
<path opacity="0.1" fill-rule="evenodd" clip-rule="evenodd" d="M34.0497 163.207C34.6622 162.944 35.4344 163.793 35.9581 162.936C36.4552 164.388 37.5824 163.609 38.2038 165.009C38.0273 165.085 37.8765 165.209 37.7688 165.367C38.4434 165.638 38.4435 166.084 39.0116 166.382C38.5677 166.907 39.1536 167.151 38.4879 167.737C36.9079 167.86 35.8959 167.029 34.3426 167.641C33.736 167.074 33.3689 166.303 33.3146 165.481C33.2603 164.658 33.5229 163.846 34.0497 163.207Z" fill="#F16EA3"/>
<path opacity="0.1" fill-rule="evenodd" clip-rule="evenodd" d="M45.5 183.211C45.8815 183.386 46.0411 183.631 45.7394 183.999C45.5663 184.026 45.3891 183.988 45.2427 183.893C45.2462 183.644 45.3371 183.402 45.5 183.211Z" fill="#F16EA3"/>
<path opacity="0.1" fill-rule="evenodd" clip-rule="evenodd" d="M40.0681 169.399C40.2101 169.443 40.1214 169.653 40.0681 169.81C40.8581 169.539 40.9556 169.932 41.9675 169.924C42.225 170.588 42.7221 172.312 41.5859 172.705C41.4528 173.213 41.8344 173.58 41.3462 174.297C40.1568 174.551 38.8787 175.225 37.6093 174.359C37.6093 172.985 36.9791 171.813 38.8076 171.402C38.5147 170.361 39.2781 169.146 40.0681 169.399Z" fill="#F16EA3"/>
<path opacity="0.1" fill-rule="evenodd" clip-rule="evenodd" d="M32.7537 132.915C32.8868 132.758 33.0822 132.916 33.2508 133.02C33.4372 131.945 33.9343 132.023 34.6089 130.703C35.5587 130.633 37.9021 130.65 37.6269 132.207C38.1329 132.557 38.834 132.207 39.3311 133.082C38.8695 134.656 38.8251 136.484 36.9789 137.753C35.3545 137.289 33.5881 137.604 34.3159 135.181C32.9135 135.199 31.9371 133.799 32.7537 132.915Z" fill="#F16EA3"/>
<path opacity="0.1" fill-rule="evenodd" clip-rule="evenodd" d="M39.757 191.135C40.3695 190.873 41.1417 191.721 41.6654 190.864C42.1625 192.316 43.2987 191.547 43.9112 192.937C43.7325 193.015 43.5811 193.142 43.4762 193.305C44.1508 193.567 44.1509 194.014 44.719 194.311C44.2751 194.836 44.8698 195.08 44.1952 195.675C42.6152 195.789 41.6033 194.967 40.05 195.579C39.4428 195.01 39.0755 194.237 39.0212 193.414C38.9669 192.59 39.2296 191.777 39.757 191.135Z" fill="#F16EA3"/>
<path opacity="0.1" fill-rule="evenodd" clip-rule="evenodd" d="M47.1155 129.898C47.1866 130.16 46.7605 130.257 46.4854 130.405C47.6837 131.28 47.0978 131.822 48.1363 133.44C47.2487 134.56 44.9675 137.228 43.2366 135.916C42.2868 136.275 42.0205 137.289 40.4316 137.307C38.8694 135.776 36.5526 134.56 36.7479 131.647C38.9404 130.082 40.2985 127.869 42.6862 130.222C44.0976 128.586 46.8137 128.402 47.1155 129.898Z" fill="#F16EA3"/>
<path opacity="0.1" fill-rule="evenodd" clip-rule="evenodd" d="M35.4434 126.111C35.5854 125.953 35.7719 126.111 35.9494 126.224C36.1358 125.148 36.6328 125.227 37.3074 123.898C38.2483 123.828 40.6006 123.845 40.3165 125.402C40.8314 125.752 41.5326 125.402 42.0297 126.277C41.5681 127.851 41.5237 129.688 39.6775 130.948C38.0531 130.484 36.2867 130.808 37.0145 128.376C35.5766 128.429 34.6268 127.038 35.4434 126.111Z" fill="#F16EA3"/>
<path opacity="0.1" fill-rule="evenodd" clip-rule="evenodd" d="M58.7438 141.759C58.4537 141.127 58.3605 140.425 58.4758 139.742C58.5912 139.058 58.91 138.424 59.3917 137.919C60.1538 137.924 60.9138 137.839 61.6553 137.665C61.731 137.882 61.8905 138.061 62.0991 138.163C61.2824 138.837 62.6316 139.415 62.6405 140.211C63.2885 140.211 63.8122 139.379 64.5756 140.167C64.565 140.42 64.4734 140.664 64.314 140.864C64.1547 141.063 63.9357 141.208 63.688 141.277C63.4749 140.726 62.7115 140.971 62.9423 140.403C62.4193 140.965 61.7584 141.385 61.0231 141.622C60.2878 141.86 59.5029 141.907 58.7438 141.759Z" fill="#F16EA3"/>
<path opacity="0.1" fill-rule="evenodd" clip-rule="evenodd" d="M43.5116 174.875C43.1566 176.082 42.7838 177.28 40.9109 177.919C40.1032 177.473 39.9701 177.114 39.0469 176.817C39.1124 176.587 39.0903 176.341 38.9847 176.126C39.97 175.995 39.2688 174.691 39.6949 173.974C39.1978 173.615 38.3456 174.035 38.2036 172.881C38.336 172.668 38.5395 172.506 38.7792 172.425C39.0189 172.344 39.2798 172.347 39.5173 172.434C39.3753 173.047 40.0854 173.309 39.5884 173.668C40.2907 173.473 41.0355 173.483 41.732 173.697C42.4286 173.911 43.0468 174.32 43.5116 174.875Z" fill="#F16EA3"/>
<path opacity="0.1" fill-rule="evenodd" clip-rule="evenodd" d="M36.0467 134.123C36.2153 134.219 36.0466 134.472 35.9756 134.665C37.023 134.56 36.9698 135.085 38.2746 135.408C38.39 136.353 38.4876 138.758 36.9786 138.907C36.6591 139.528 36.9786 140.158 36.2064 140.902C34.6708 140.902 32.9044 141.339 31.5996 139.808C31.9635 138.015 31.5996 136.31 33.943 136.31C33.8542 134.858 35.159 133.537 36.0467 134.123Z" fill="#F16EA3"/>
<path opacity="0.1" fill-rule="evenodd" clip-rule="evenodd" d="M32.8334 142.73C32.8955 142.651 32.9843 142.73 33.0642 142.782C33.1529 142.275 33.3837 142.318 33.7033 141.697C34.1471 141.697 35.2388 141.698 35.1057 142.397C35.3453 142.563 35.6738 142.397 35.9046 142.808C35.6915 143.543 35.6738 144.4 34.8128 144.986C34.0494 144.776 33.2239 144.916 33.5523 143.788C32.9132 143.797 32.4517 143.141 32.8334 142.73Z" fill="#F16EA3"/>
<path opacity="0.1" fill-rule="evenodd" clip-rule="evenodd" d="M79.7005 129.015C79.494 128.549 79.4294 128.034 79.5145 127.532C79.5996 127.031 79.8308 126.564 80.1799 126.19C80.7419 126.201 81.303 126.139 81.8486 126.006C81.8762 126.085 81.9194 126.159 81.9757 126.222C82.0321 126.285 82.1005 126.336 82.1771 126.373C81.5735 126.872 82.5676 127.292 82.5764 127.878C83.0469 127.878 83.4642 127.266 83.9967 127.878C84.05 128.254 83.5884 128.656 83.3133 128.691C83.1624 128.289 82.6032 128.464 82.7718 128.035C82.3863 128.442 81.902 128.745 81.3647 128.917C80.8275 129.088 80.2547 129.122 79.7005 129.015Z" fill="#F16EA3"/>
<path opacity="0.1" fill-rule="evenodd" clip-rule="evenodd" d="M40.325 138.61C40.6091 138.487 40.973 138.881 41.2127 138.479C41.4435 139.161 41.9761 138.793 42.2601 139.449C42.1778 139.481 42.109 139.54 42.0649 139.615C42.3756 139.738 42.3755 139.948 42.6418 140.088C42.4287 140.333 42.7129 140.446 42.3933 140.726C41.6566 140.779 41.1861 140.394 40.4582 140.683C40.1756 140.417 40.0048 140.056 39.9802 139.672C39.9555 139.288 40.0786 138.908 40.325 138.61Z" fill="#F16EA3"/>
<path opacity="0.1" fill-rule="evenodd" clip-rule="evenodd" d="M41.1062 143.272C41.2747 143.36 41.3546 143.474 41.2126 143.64C41.1726 143.648 41.1314 143.647 41.0916 143.638C41.0519 143.629 41.0146 143.612 40.9819 143.588C40.9834 143.471 41.0275 143.359 41.1062 143.272Z" fill="#F16EA3"/>
<path opacity="0.1" fill-rule="evenodd" clip-rule="evenodd" d="M39.7661 127.125C39.8371 127.046 39.9259 127.125 40.0058 127.178C40.0945 126.67 40.3253 126.714 40.636 126.093C41.0798 126.093 42.1716 126.093 42.0474 126.792C42.287 126.959 42.6154 126.793 42.8462 127.204C42.6242 127.938 42.6065 128.796 41.7455 129.382C40.991 129.172 40.1656 129.312 40.494 128.183C39.8283 128.192 39.3933 127.536 39.7661 127.125Z" fill="#F16EA3"/>
<path opacity="0.1" fill-rule="evenodd" clip-rule="evenodd" d="M31.0673 138.47C30.9332 138.175 30.8902 137.848 30.9439 137.529C30.9975 137.21 31.1454 136.914 31.369 136.677C31.7275 136.682 32.0851 136.644 32.4342 136.563C32.4492 136.614 32.4754 136.66 32.5107 136.699C32.5459 136.739 32.5895 136.77 32.6383 136.791C32.2566 137.106 32.8869 137.377 32.8869 137.744C33.1887 137.744 33.4372 137.359 33.7745 137.744C33.7674 137.865 33.7215 137.982 33.6434 138.076C33.5653 138.171 33.459 138.238 33.3396 138.269C33.2419 138.006 32.8869 138.12 32.9934 137.849C32.7514 138.104 32.448 138.295 32.1113 138.403C31.7745 138.512 31.4154 138.535 31.0673 138.47Z" fill="#F16EA3"/>
<path opacity="0.1" fill-rule="evenodd" clip-rule="evenodd" d="M71.7476 133.659C71.3837 134.866 71.0109 136.064 69.138 136.703C68.3391 136.257 68.197 135.898 67.2739 135.601C67.3394 135.371 67.3173 135.125 67.2118 134.91C68.2059 134.779 67.5046 133.475 67.9218 132.758C67.4248 132.4 66.5816 132.819 66.4307 131.665C66.563 131.452 66.7665 131.291 67.0062 131.209C67.2459 131.128 67.5069 131.131 67.7443 131.219C67.6023 131.831 68.3213 132.093 67.8153 132.452C68.519 132.256 69.2653 132.266 69.9634 132.48C70.6615 132.694 71.2814 133.104 71.7476 133.659Z" fill="#F16EA3"/>
<path opacity="0.1" fill-rule="evenodd" clip-rule="evenodd" d="M57.1192 384.4C57.4299 384.794 56.9417 385.502 57.6695 385.721C56.6842 386.342 57.4653 387.016 56.5422 387.716C56.4572 387.599 56.3355 387.512 56.196 387.47C56.125 388.004 55.7966 388.083 55.6812 388.546C55.2108 388.319 55.1309 388.791 54.5717 388.415C54.1989 387.304 54.6249 386.421 53.8882 385.424C54.1978 384.884 54.7021 384.48 55.3008 384.29C55.8995 384.101 56.5486 384.14 57.1192 384.4Z" fill="#F16EA3"/>
<path opacity="0.1" fill-rule="evenodd" clip-rule="evenodd" d="M124.411 315.045C124.712 315.43 124.224 316.139 124.952 316.357C123.976 316.987 124.748 317.66 123.825 318.351C123.739 318.235 123.618 318.149 123.479 318.107C123.408 318.64 123.079 318.719 122.964 319.183C122.493 318.964 122.422 319.436 121.863 319.051C121.481 317.949 121.863 317.066 121.171 316.06C121.482 315.52 121.989 315.115 122.589 314.927C123.19 314.739 123.84 314.781 124.411 315.045Z" fill="#F16EA3"/>
<path opacity="0.1" fill-rule="evenodd" clip-rule="evenodd" d="M123.328 321.886C123.257 322.193 123.115 322.351 122.786 322.202C122.737 322.081 122.737 321.946 122.786 321.825C122.968 321.781 123.16 321.803 123.328 321.886Z" fill="#F16EA3"/>
<path opacity="0.1" fill-rule="evenodd" clip-rule="evenodd" d="M33.8013 385.826C34.2147 385.502 34.7164 385.306 35.2427 385.264C35.769 385.222 36.2961 385.336 36.7571 385.589C36.8919 386.142 37.0946 386.677 37.3607 387.182C37.2863 387.224 37.2222 387.282 37.1731 387.352C37.124 387.421 37.0911 387.501 37.0766 387.584C36.4286 387.12 36.2422 388.196 35.6564 388.345C35.7895 388.808 36.4819 389.036 36.0381 389.736C35.8439 389.777 35.6413 389.753 35.4627 389.667C35.284 389.581 35.1398 389.439 35.0529 389.263C35.4168 389.018 35.0528 388.511 35.5765 388.572C35.0675 388.302 34.6371 387.907 34.3264 387.426C34.0156 386.946 33.8349 386.395 33.8013 385.826Z" fill="#F16EA3"/>
<path opacity="0.1" fill-rule="evenodd" clip-rule="evenodd" d="M44.2128 306.342C43.84 306.508 43.4761 306.045 43.0944 306.552C42.9346 305.73 42.2068 306.211 41.9849 305.424C42.0961 305.375 42.1936 305.3 42.269 305.205C41.8962 305.074 41.9405 304.82 41.6387 304.663C41.9405 304.348 41.6388 304.226 42.0648 303.867C42.9525 303.753 43.4939 304.199 44.4436 303.806C45.0028 304.383 45.0472 305.345 44.2128 306.342Z" fill="#F16EA3"/>
<path opacity="0.1" fill-rule="evenodd" clip-rule="evenodd" d="M130.393 308.336C130.393 308.467 130.136 308.388 129.976 308.379C130.251 309.105 129.852 309.167 129.852 310.129C129.169 310.382 127.411 310.899 127.02 309.831C126.506 309.726 126.133 310.085 125.405 309.648C125.148 308.537 124.517 307.347 125.405 306.149C126.799 306.088 127.997 305.493 128.396 307.207C129.426 306.892 130.669 307.583 130.393 308.336Z" fill="#F16EA3"/>
<path opacity="0.1" fill-rule="evenodd" clip-rule="evenodd" d="M130.42 325.183C130.562 325.253 130.42 325.428 130.42 325.568C131.255 325.506 131.308 325.874 132.391 326.119C132.613 326.784 133.03 328.472 131.823 328.559C131.663 328.988 132.027 329.434 131.485 329.95C130.243 329.898 128.876 330.204 127.606 329.075C127.606 327.825 127.092 326.608 129.018 326.678C128.778 325.69 129.612 324.763 130.42 325.183Z" fill="#F16EA3"/>
<path opacity="0.1" fill-rule="evenodd" clip-rule="evenodd" d="M132.382 312.665C132.533 312.735 132.382 312.91 132.382 313.05C133.208 312.989 133.27 313.356 134.344 313.601C134.566 314.266 134.983 315.954 133.785 316.042C133.616 316.47 133.989 316.916 133.447 317.432C132.196 317.38 130.784 317.686 129.559 316.558C129.559 315.307 129.053 314.091 130.971 314.161C130.713 313.173 131.583 312.245 132.382 312.665Z" fill="#F16EA3"/>
<path opacity="0.1" fill-rule="evenodd" clip-rule="evenodd" d="M124.153 284.79C124.349 285.043 124.038 285.498 124.508 285.664C123.869 286.067 124.375 286.495 123.78 286.95C123.726 286.875 123.648 286.82 123.559 286.793C123.505 287.134 120.976 287.186 120.896 287.484C120.594 287.344 120.549 287.65 120.186 287.405C119.946 286.687 120.186 286.119 119.742 285.463C120.115 284.798 123.212 284.431 124.153 284.79Z" fill="#F16EA3"/>
<path opacity="0.1" fill-rule="evenodd" clip-rule="evenodd" d="M76.1146 303.526C76.0525 303.833 75.9016 303.99 75.5822 303.841C75.5318 303.718 75.5318 303.579 75.5822 303.456C75.7627 303.424 75.9487 303.449 76.1146 303.526Z" fill="#F16EA3"/>
<path opacity="0.1" fill-rule="evenodd" clip-rule="evenodd" d="M126.523 434.275C126.461 434.415 126.23 434.275 126.062 434.275C126.275 435.097 125.831 435.15 125.725 436.208C124.943 436.427 120.221 436.82 119.91 435.639C119.351 435.473 118.881 435.832 118.135 435.29C117.975 434.065 117.372 432.718 118.49 431.476C120.035 431.528 124.145 430.986 124.393 432.884C125.618 432.631 126.905 433.488 126.523 434.275Z" fill="#F16EA3"/>
<path opacity="0.1" fill-rule="evenodd" clip-rule="evenodd" d="M63.1995 437.004C63.3504 437.074 63.2439 437.249 63.1995 437.389C64.025 437.328 64.0871 437.695 65.1611 437.94C65.3831 438.605 65.8002 440.293 64.6019 440.38C64.4333 440.809 64.8061 441.255 64.2646 441.771C63.0131 441.718 61.6461 442.025 60.3768 440.896C60.3768 439.645 59.8709 438.43 61.7882 438.5C61.5308 437.503 62.4006 436.628 63.1995 437.004Z" fill="#F16EA3"/>
<path opacity="0.1" fill-rule="evenodd" clip-rule="evenodd" d="M132.817 331.481C132.283 331.534 131.744 331.438 131.262 331.205C130.781 330.971 130.375 330.609 130.092 330.16C130.314 329.668 130.472 329.151 130.562 328.621C130.747 328.629 130.929 328.566 131.068 328.445C131.343 329.136 132.178 328.393 132.79 328.568C132.968 328.148 132.497 327.615 133.323 327.291C133.508 327.346 133.667 327.464 133.771 327.625C133.876 327.785 133.918 327.977 133.891 328.166C133.412 328.166 133.376 328.734 133.003 328.445C133.274 328.915 133.401 329.452 133.368 329.991C133.335 330.53 133.144 331.047 132.817 331.481Z" fill="#F16EA3"/>
<path opacity="0.1" fill-rule="evenodd" clip-rule="evenodd" d="M48.4473 256.029C48.7035 255.83 49.0136 255.71 49.3388 255.683C49.664 255.657 49.99 255.726 50.2758 255.881C50.3592 256.224 50.4843 256.556 50.6486 256.869C50.6028 256.895 50.5632 256.93 50.5325 256.972C50.5019 257.015 50.4809 257.063 50.4711 257.114C50.0717 256.834 49.9563 257.499 49.5835 257.595C49.6634 257.875 50.0983 258.024 49.8231 258.47C49.7033 258.49 49.5799 258.474 49.4701 258.422C49.3604 258.37 49.2697 258.286 49.2106 258.181C49.4414 258.024 49.2106 257.709 49.539 257.753C49.2212 257.583 48.9534 257.335 48.762 257.033C48.5706 256.731 48.4622 256.385 48.4473 256.029Z" fill="#F16EA3"/>
<path opacity="0.1" fill-rule="evenodd" clip-rule="evenodd" d="M96.7523 331.804C96.8411 331.848 96.7523 331.952 96.7523 332.031C97.2672 332.031 97.2849 332.223 97.9684 332.381C98.1015 332.792 98.3589 333.833 97.6222 333.886C97.5157 334.157 97.7465 334.428 97.4092 334.76C96.6369 334.76 95.7936 334.918 95.0036 334.235C95.0036 333.466 94.6841 332.713 95.8912 332.757C95.7137 332.11 96.2553 331.533 96.7523 331.804Z" fill="#F16EA3"/>
<path opacity="0.1" fill-rule="evenodd" clip-rule="evenodd" d="M129.79 270.436C129.459 270.471 129.124 270.413 128.824 270.269C128.524 270.125 128.271 269.901 128.095 269.622C128.238 269.32 128.337 268.999 128.388 268.669C128.502 268.669 128.612 268.629 128.698 268.555C128.876 268.984 129.391 268.555 129.763 268.634C129.879 268.371 129.586 268.039 130.101 267.847C130.214 267.881 130.311 267.953 130.376 268.05C130.441 268.147 130.469 268.264 130.456 268.38C130.154 268.38 130.136 268.73 129.897 268.546C130.065 268.838 130.144 269.171 130.125 269.506C130.106 269.841 129.99 270.164 129.79 270.436Z" fill="#F16EA3"/>
<path opacity="0.1" fill-rule="evenodd" clip-rule="evenodd" d="M59.6046 363.565C59.7378 363.565 59.6046 363.81 59.6046 363.967C60.368 363.696 60.4213 364.08 61.4598 364.072C61.7084 364.719 62.1965 366.416 61.0781 366.801C60.9539 367.299 61.3266 367.675 60.8473 368.349C59.6845 368.603 58.4419 369.267 57.1992 368.41C57.1992 367.072 56.569 365.926 58.362 365.524C58.0869 364.509 58.8324 363.311 59.6046 363.565Z" fill="#F16EA3"/>
<path opacity="0.1" fill-rule="evenodd" clip-rule="evenodd" d="M128.911 300.927C128.695 300.454 128.625 299.928 128.712 299.415C128.799 298.903 129.038 298.428 129.4 298.05C129.974 298.054 130.546 297.99 131.104 297.857C131.13 297.939 131.172 298.014 131.229 298.079C131.285 298.143 131.355 298.196 131.432 298.233C130.82 298.741 131.832 299.178 131.849 299.773C132.329 299.773 132.737 299.143 133.305 299.773C133.302 299.974 133.231 300.169 133.105 300.327C132.978 300.485 132.802 300.598 132.604 300.648C132.444 300.228 131.867 300.411 132.045 299.965C131.65 300.376 131.154 300.681 130.606 300.85C130.057 301.018 129.474 301.045 128.911 300.927Z" fill="#F16EA3"/>
<path opacity="0.1" fill-rule="evenodd" clip-rule="evenodd" d="M135.152 308.144C135.276 308.791 134.388 309.185 135.054 309.963C133.687 309.893 134.166 311.197 132.817 311.249C132.786 311.057 132.703 310.875 132.577 310.725C132.222 311.241 131.832 311.074 131.468 311.477C131.086 310.882 130.758 311.328 130.367 310.506C130.545 309.036 131.459 308.424 131.193 306.788C132.329 306.159 133.9 306.473 135.152 308.144Z" fill="#F16EA3"/>
<path opacity="0.1" fill-rule="evenodd" clip-rule="evenodd" d="M121.677 421.697C121.961 421.837 122.085 422.021 121.854 422.292C121.79 422.304 121.724 422.304 121.66 422.29C121.596 422.277 121.536 422.25 121.482 422.213C121.481 422.024 121.55 421.84 121.677 421.697Z" fill="#F16EA3"/>
<path opacity="0.1" fill-rule="evenodd" clip-rule="evenodd" d="M119.414 428.24C119.538 428.319 119.414 428.502 119.36 428.651C120.142 428.572 120.106 428.966 121.091 429.211C121.18 429.919 121.251 431.73 120.115 431.835C119.875 432.298 120.115 432.771 119.538 433.331C118.384 433.331 117.053 433.663 116.067 432.508C116.343 431.161 116.067 429.884 117.843 429.884C117.763 428.817 118.748 427.803 119.414 428.24Z" fill="#F16EA3"/>
<path opacity="0.1" fill-rule="evenodd" clip-rule="evenodd" d="M39.7038 397.424C39.7659 397.354 39.8458 397.424 39.9168 397.424C39.9967 396.96 40.2097 396.995 40.5027 396.427C40.911 396.427 43.9732 396.427 43.8578 397.074C44.0797 397.223 44.3816 397.074 44.5946 397.45C44.3905 398.132 44.3727 398.919 43.5827 399.462C42.8815 399.261 40.0322 399.401 40.3695 398.36C39.757 398.404 39.3487 397.809 39.7038 397.424Z" fill="#F16EA3"/>
<path opacity="0.1" fill-rule="evenodd" clip-rule="evenodd" d="M124.553 431.135C123.952 431.032 123.406 430.724 123.012 430.266C122.617 429.807 122.4 429.226 122.396 428.625C122.925 428.09 123.398 427.504 123.807 426.875C124.021 426.934 124.249 426.912 124.446 426.814C124.34 427.767 125.671 427.103 126.222 427.514C126.665 427.041 126.479 426.228 127.544 426.097C127.935 426.324 127.881 427.059 127.651 427.356C127.136 427.216 126.763 427.899 126.532 427.409C126.519 428.139 126.333 428.856 125.989 429.502C125.646 430.149 125.154 430.708 124.553 431.135Z" fill="#F16EA3"/>
<path opacity="0.1" fill-rule="evenodd" clip-rule="evenodd" d="M36.2419 428.073C36.6946 427.872 37.2805 428.511 37.671 427.863C38.0438 428.957 38.896 428.379 39.3575 429.429C39.2237 429.482 39.1114 429.578 39.038 429.7C39.544 429.901 39.544 430.234 39.9256 430.452C39.5883 430.855 40.0321 431.039 39.5261 431.485C38.3456 431.572 37.5822 430.951 36.4105 431.406C35.964 430.972 35.6989 430.389 35.6677 429.772C35.6364 429.155 35.8414 428.549 36.2419 428.073Z" fill="#F16EA3"/>
<path opacity="0.1" fill-rule="evenodd" clip-rule="evenodd" d="M37.3515 429.045C37.6354 429.176 37.7596 429.36 37.5289 429.631C37.3962 429.654 37.2596 429.626 37.1475 429.552C37.1535 429.365 37.2256 429.185 37.3515 429.045Z" fill="#F16EA3"/>
<path opacity="0.1" fill-rule="evenodd" clip-rule="evenodd" d="M33.8986 419.833C34.0051 419.72 34.1472 419.833 34.2803 419.921C34.4223 419.107 34.7951 419.169 35.301 418.171C36.0111 418.119 37.7776 418.171 37.5645 419.3C37.9551 419.562 38.4521 419.3 38.8516 419.965C38.5054 421.146 38.4699 422.519 37.0763 423.464C35.8514 423.114 34.5289 423.359 35.0526 421.531C33.9963 421.557 33.2861 420.498 33.8986 419.833Z" fill="#F16EA3"/>
<path opacity="0.1" fill-rule="evenodd" clip-rule="evenodd" d="M120.949 425.878C120.629 425.18 120.527 424.404 120.655 423.649C120.783 422.894 121.135 422.193 121.668 421.635C122.511 421.644 123.352 421.55 124.171 421.355C124.209 421.475 124.271 421.585 124.356 421.679C124.44 421.772 124.543 421.847 124.659 421.898C123.772 422.65 125.245 423.288 125.254 424.163C125.973 424.163 126.559 423.289 127.402 424.12C127.383 424.405 127.274 424.676 127.089 424.896C126.904 425.116 126.653 425.273 126.373 425.344C126.142 424.741 125.299 425.012 125.556 424.356C124.983 424.975 124.26 425.44 123.453 425.707C122.647 425.973 121.785 426.032 120.949 425.878Z" fill="#F16EA3"/>
<path opacity="0.1" fill-rule="evenodd" clip-rule="evenodd" d="M135.435 299.344C135.719 299.484 135.843 299.668 135.613 299.939C135.548 299.95 135.483 299.95 135.419 299.936C135.355 299.923 135.294 299.897 135.24 299.86C135.247 299.672 135.316 299.491 135.435 299.344Z" fill="#F16EA3"/>
<path opacity="0.1" fill-rule="evenodd" clip-rule="evenodd" d="M31.9547 427.723C31.736 427.249 31.6656 426.721 31.7525 426.207C31.8395 425.693 32.0798 425.216 32.4429 424.837C33.0162 424.84 33.5881 424.779 34.1471 424.653C34.1747 424.733 34.2179 424.806 34.2742 424.869C34.3306 424.932 34.399 424.984 34.4756 425.021C33.8631 425.528 34.875 425.965 34.8927 426.56C35.3721 426.56 35.7804 425.939 36.3485 426.56C36.3429 426.756 36.2708 426.944 36.1437 427.095C36.0165 427.246 35.8416 427.35 35.6472 427.391C35.4874 426.98 34.9105 427.164 35.088 426.717C34.6951 427.133 34.2014 427.444 33.6533 427.619C33.1052 427.795 32.5207 427.831 31.9547 427.723Z" fill="#F16EA3"/>
<path opacity="0.1" fill-rule="evenodd" clip-rule="evenodd" d="M39.9168 282.681C39.841 283.206 39.6169 283.699 39.27 284.104C38.9231 284.51 38.4674 284.811 37.9552 284.973C37.3516 284.632 37.2539 284.369 36.5527 284.142C36.6208 283.973 36.6208 283.785 36.5527 283.617C37.2983 283.52 36.7657 282.541 37.0852 282.007C36.7124 281.727 36.0733 282.007 35.9668 281.176C36.0661 281.016 36.2188 280.896 36.3987 280.835C36.5786 280.775 36.7744 280.778 36.9522 280.844C36.8457 281.308 37.3871 281.483 37.0054 281.771C37.5282 281.634 38.08 281.646 38.5958 281.808C39.1116 281.969 39.5699 282.272 39.9168 282.681Z" fill="#F16EA3"/>
<path opacity="0.1" fill-rule="evenodd" clip-rule="evenodd" d="M122.343 425.624C122.467 426.272 121.579 426.657 122.236 427.444C120.869 427.365 121.348 428.668 120.008 428.721C119.971 428.53 119.889 428.35 119.768 428.196C119.413 428.712 119.014 428.546 118.659 428.957C118.268 428.362 117.949 428.808 117.549 427.986C117.736 426.517 118.641 425.896 118.384 424.269C119.52 423.639 121.091 423.945 122.343 425.624Z" fill="#F16EA3"/>
<path opacity="0.1" fill-rule="evenodd" clip-rule="evenodd" d="M130.065 311.546C130.349 311.686 130.473 311.861 130.242 312.141C130.113 312.16 129.98 312.132 129.87 312.062C129.877 311.874 129.945 311.693 130.065 311.546Z" fill="#F16EA3"/>
<path opacity="0.1" fill-rule="evenodd" clip-rule="evenodd" d="M71.2506 437.502C71.3749 437.572 71.2506 437.765 71.1974 437.914C71.9785 437.826 71.943 438.228 72.9282 438.465C73.0081 439.182 73.088 440.984 71.9519 441.089C71.7122 441.552 71.9518 442.025 71.3749 442.584C70.2209 442.584 68.8896 442.908 67.9043 441.71C68.1795 440.371 67.9043 439.086 69.6796 439.086C69.5997 438.062 70.5849 437.048 71.2506 437.502Z" fill="#F16EA3"/>
<path opacity="0.1" fill-rule="evenodd" clip-rule="evenodd" d="M36.624 424.023C36.7306 423.901 36.8725 424.024 36.9968 424.102C37.1388 423.298 37.5116 423.359 38.0176 422.353C38.7277 422.301 40.4941 422.353 40.29 423.481C40.6716 423.744 41.1775 423.481 41.5681 424.138C41.2219 425.327 41.1864 426.7 39.7928 427.636C38.5768 427.295 37.2453 427.531 37.7779 425.712C36.7127 425.738 36.0116 424.688 36.624 424.023Z" fill="#F16EA3"/>
<path opacity="0.1" fill-rule="evenodd" clip-rule="evenodd" d="M32.6383 418.426C31.6264 418.076 30.6323 417.709 30.4814 415.915C31.0094 415.382 31.4794 414.796 31.8839 414.166C31.9886 414.199 32.0991 414.212 32.2088 414.203C32.3185 414.194 32.4253 414.163 32.523 414.114C32.4165 415.067 33.748 414.402 34.2983 414.814C34.7333 414.341 34.5468 413.528 35.612 413.396C36.0026 413.624 35.9493 414.359 35.7185 414.656C35.2037 414.507 34.8309 415.19 34.6001 414.709C34.586 415.435 34.4016 416.149 34.0613 416.794C33.7211 417.439 33.234 417.997 32.6383 418.426Z" fill="#F16EA3"/>
<path opacity="0.1" fill-rule="evenodd" clip-rule="evenodd" d="M129.577 321.85C129.861 321.99 129.985 322.173 129.754 322.445C129.69 322.457 129.624 322.456 129.56 322.442C129.496 322.429 129.435 322.403 129.382 322.366C129.381 322.176 129.45 321.992 129.577 321.85Z" fill="#F16EA3"/>
<path opacity="0.1" fill-rule="evenodd" clip-rule="evenodd" d="M37.9908 430.173C38.0974 430.051 38.2394 430.173 38.3637 430.252C38.5057 429.438 38.8785 429.5 39.3845 428.503C40.1035 428.45 41.8609 428.503 41.6568 429.631C42.0385 429.893 42.5445 429.631 42.935 430.295C42.5888 431.476 42.5622 432.85 41.1598 433.794C39.9437 433.453 38.6122 433.689 39.1448 431.861C38.0796 431.887 37.3517 430.838 37.9908 430.173Z" fill="#F16EA3"/>
<path opacity="0.1" fill-rule="evenodd" clip-rule="evenodd" d="M48.003 332.207C47.6838 331.511 47.5809 330.737 47.7073 329.984C47.8337 329.23 48.1837 328.531 48.7132 327.973C49.559 327.982 50.4027 327.889 51.2251 327.693C51.2614 327.812 51.323 327.922 51.4056 328.015C51.4883 328.109 51.5901 328.184 51.7045 328.236C50.8168 328.988 52.2991 329.626 52.308 330.501C53.027 330.501 53.604 329.627 54.4472 330.458C54.4316 330.742 54.3242 331.014 54.1406 331.234C53.957 331.455 53.7067 331.612 53.4264 331.682C53.1957 331.078 52.3435 331.35 52.6098 330.694C52.0378 331.314 51.3138 331.778 50.5071 332.043C49.7003 332.308 48.8381 332.365 48.003 332.207Z" fill="#F16EA3"/>
<path opacity="0.1" fill-rule="evenodd" clip-rule="evenodd" d="M41.3637 417.997C41.6476 418.137 41.7629 418.312 41.5411 418.592C41.4085 418.611 41.2731 418.584 41.1597 418.513C41.1692 418.324 41.2408 418.143 41.3637 417.997Z" fill="#F16EA3"/>
<path opacity="0.1" fill-rule="evenodd" clip-rule="evenodd" d="M40.5917 414.683C40.7604 414.805 40.5473 415.059 40.4586 415.269C41.5947 415.269 41.4882 415.828 42.8551 416.309C42.8551 417.359 42.7664 420 41.1332 420.018C40.7337 420.665 41.0533 421.383 40.1213 422.126C38.4791 421.934 36.5708 422.266 35.2837 420.455C35.8429 418.531 35.5854 416.616 38.1241 416.904C38.1685 415.304 39.6952 413.948 40.5917 414.683Z" fill="#F16EA3"/>
<path opacity="0.1" fill-rule="evenodd" clip-rule="evenodd" d="M121.073 418.259C121.189 418.329 121.074 418.513 121.011 418.67C121.801 418.583 121.757 418.985 122.787 419.221C122.875 419.939 122.946 421.741 121.81 421.846C121.579 422.318 121.81 422.781 121.233 423.35C120.079 423.35 118.748 423.674 117.771 422.519C118.038 421.172 117.771 419.895 119.547 419.895C119.422 418.828 120.399 417.813 121.073 418.259Z" fill="#F16EA3"/>
<path opacity="0.05" d="M137.929 434.975C138.205 447.833 99.3439 445.235 80.5171 445.471C65.3563 445.681 24.9956 449.556 28.2621 432.613C13.2877 435.675 -11.7525 436.112 6.28424 445.209C24.321 454.306 52.4412 460.079 80.0555 459.974C137.832 459.676 165.41 448.463 168.819 447.466C177.642 444.92 174.695 435.228 137.929 434.975Z" fill="#66636C"/>
<path opacity="0.05" d="M160.236 443.792C161.372 441.334 148.803 435.045 137.486 437.127C134.565 443.547 104.981 447.816 73.3808 446.381C51.7935 445.401 34.3248 444.982 27.8895 435.281C21.4186 435.281 0.257469 440.337 9.08943 443.337C22.901 448.034 55.1932 455.889 84.6538 455.994C102.877 456.055 157.821 448.97 160.236 443.792Z" fill="#66636C"/>
<path opacity="0.05" d="M137.832 436.759C137.148 444.771 91.2222 445.182 83.6862 445.637C62.1699 446.94 40.9467 444.526 28.289 438.491C19.4127 438.491 10.3854 438.429 20.034 442.392C37.8488 449.713 64.4156 453.177 89.8908 452.407C117.807 451.533 144.037 445.27 146.415 442.681C149.788 439.086 141.72 438.08 137.832 436.759Z" fill="#66636C"/>
<path d="M70.7978 215.33C70.8997 215.509 71.0494 215.658 71.2309 215.76C71.4124 215.861 71.6186 215.913 71.8274 215.907C72.023 215.918 72.218 215.877 72.3927 215.79C72.5673 215.702 72.7152 215.57 72.8215 215.408C73.1106 214.822 73.2652 214.18 73.2742 213.528L74.5968 213.694C74.5908 214.653 74.2804 215.586 73.7092 216.362C73.4536 216.623 73.1434 216.827 72.8001 216.958C72.4567 217.09 72.0885 217.145 71.7209 217.123C71.33 217.138 70.941 217.063 70.5849 216.903C70.2288 216.744 69.9157 216.505 69.6705 216.204C69.1645 215.592 68.916 214.455 68.916 212.837V207.737C68.916 206.101 69.1645 204.982 69.6705 204.37C69.9148 204.071 70.2266 203.832 70.581 203.672C70.9354 203.513 71.3226 203.437 71.712 203.451C72.0669 203.426 72.4233 203.471 72.7602 203.584C73.0971 203.696 73.4078 203.874 73.6737 204.107C74.207 204.776 74.4976 205.601 74.4992 206.452L73.1145 206.784C73.0965 206.209 72.9511 205.644 72.6885 205.131C72.5906 204.987 72.4584 204.87 72.3036 204.789C72.1488 204.708 71.9761 204.666 71.8008 204.667C71.597 204.668 71.3972 204.723 71.2234 204.828C71.0496 204.933 70.9084 205.083 70.8155 205.262C70.5218 205.943 70.4001 206.684 70.4605 207.422V213.23C70.3938 213.947 70.5097 214.668 70.7978 215.33Z" fill="#66636C"/>
<path d="M76.2656 216.799V203.679H78.6268C79.0337 203.657 79.4405 203.724 79.818 203.875C80.1955 204.026 80.5344 204.258 80.8103 204.554C81.4271 205.491 81.7025 206.608 81.5914 207.72V207.807C81.5914 209.708 81.121 210.915 80.1801 211.429L81.7601 216.782H80.1979L78.7155 211.761H77.8279V216.782L76.2656 216.799ZM80.0825 208.052V207.457C80.1451 206.764 80.0098 206.067 79.6919 205.446C79.5779 205.27 79.4201 205.127 79.2335 205.029C79.047 204.931 78.8381 204.881 78.6268 204.886H77.7391V210.597H78.6268C79.5943 210.597 80.0825 209.741 80.0825 208.017V208.052Z" fill="#66636C"/>
<path d="M85.0799 210.86V215.601H88.3819V216.799H83.5532V203.679H88.3287V204.877H85.0799V209.653H88.0446V210.851L85.0799 210.86Z" fill="#66636C"/>
<path d="M94.7996 216.799L94.2139 213.388H91.551L90.9829 216.799H89.4561L91.8882 203.679H93.9031L96.3352 216.799H94.7996ZM92.8824 205.577L91.7373 212.19H94.0007L92.8824 205.577Z" fill="#66636C"/>
<path d="M99.2553 216.799H97.7729V203.679H100.09L101.705 212.767L103.347 203.679H105.7V216.799H104.217V204.964L102.602 213.991H100.906L99.2909 204.964L99.2553 216.799Z" fill="#66636C"/>
<path d="M106.854 216.799V215.05H108.362V216.799H106.854Z" fill="#66636C"/>
<path d="M109.552 216.799V203.679H111.079V215.592H114.017V216.79L109.552 216.799Z" fill="#66636C"/>
<path d="M117.603 216.799H116.12V212.426L113.617 203.679H115.099L116.875 210.44L118.65 203.679H120.132L117.638 212.426L117.603 216.799Z" fill="#66636C"/>
<path d="M55.6634 195.658C54.7748 195.765 53.9427 196.145 53.2844 196.743C52.11 197.681 51.055 198.756 50.1423 199.944C48.0297 202.568 45.9526 205.761 45.4289 209.12C45.2028 210.893 45.4747 212.694 46.215 214.325C46.9553 215.957 48.1355 217.357 49.6274 218.374C51.0703 219.345 52.7373 219.943 54.4758 220.114C56.2143 220.286 57.9686 220.024 59.5778 219.354C61.3361 218.607 62.7726 217.276 63.6372 215.593C64.5018 213.91 64.7395 211.981 64.3089 210.143C63.6876 207.239 61.8413 205.105 59.8707 203.006C57.9002 200.906 56.0628 198.746 55.8764 195.737C55.8764 195.676 55.7522 195.649 55.7078 195.658" stroke="#66636C" stroke-width="2" stroke-linecap="round" stroke-linejoin="round"/>
<path d="M138.87 115.211V434.712C138.87 436.925 136.287 438.036 133.189 439.278C121.402 444.019 106.631 447.238 83.8192 447.238C61.007 447.238 45.1183 444.395 34.1116 439.269C31.0759 437.87 28.4131 436.925 28.4131 434.695V114.888" stroke="#66636C" stroke-width="2" stroke-linecap="round" stroke-linejoin="round"/>
<path opacity="0.1" d="M139.287 114.87C139.287 114.87 98.3054 119.567 88.5236 119.349C78.7419 119.13 67.2204 119.209 57.4031 118.754C47.5859 118.299 28.1112 115.858 28.1112 115.858L27.5786 122.034C27.5786 122.034 48.9352 126.145 57.918 126.215C67.4157 126.294 78.3336 126.355 87.8224 126.521C96.6188 126.67 138.586 122.935 138.586 122.935L139.287 114.87Z" fill="#F16EA3"/>
<path opacity="0.1" d="M137.557 199.698C134.095 203.109 136.492 161.797 134.708 128.594C134.317 121.299 108.593 122.27 86.5799 122.637C67.3981 122.952 44.2309 122.322 39.7129 121.763C30.0022 120.503 29.1855 118.64 27.8008 116.086C31.7685 116.086 56.711 118.456 79.0439 119.077C101.519 119.707 129.071 118.579 138.853 116.27C140.726 118.727 139.234 160.555 138.569 177.157C138.302 183.665 141.019 196.287 137.557 199.698Z" fill="#F16EA3"/>
<path d="M115.339 117.311C106.463 117.67 95.6251 117.879 83.9616 117.879C53.5512 117.879 28.9282 116.436 28.9282 114.661C28.9282 113.69 38.5058 111.835 50.1072 111.249V106.045L117.044 105.8V111.241C128.689 111.835 139.03 113.69 139.03 114.661C139.03 115.632 132.418 116.41 121.819 117.005" stroke="#66636C" stroke-width="2" stroke-linecap="round" stroke-linejoin="round"/>
<path opacity="0.1" d="M42.8019 112.36C34.4226 113.445 63.2973 115.185 83.1448 115.185C106.96 115.185 129.888 113.226 124.375 112.142C122.307 111.739 116.981 111.433 116.981 111.433L116.777 105.311C106.079 106.904 95.2854 107.797 84.4674 107.987C68.8095 108.188 50.0804 105.363 50.0804 105.363L49.9739 111.284C49.9739 111.284 45.9441 111.958 42.8019 112.36Z" fill="#F16EA3"/>
<path opacity="0.1" d="M50.1781 109.334C50.1781 109.334 70.4517 111.635 84.5385 111.433C98.6253 111.232 115.659 109.238 115.659 109.238L116.28 105.512C116.28 105.512 96.202 108.634 80.9969 108.039C65.7917 107.444 50.0894 106.045 50.0894 106.045L50.1781 109.334Z" fill="#F16EA3"/>
<path opacity="0.1" d="M45.8198 112.116C45.8198 112.116 71.4725 114.53 85.5504 114.11C109.073 113.41 119.28 111.713 119.28 111.713L116.955 111.416C116.955 111.416 96.6813 113.165 81.4495 112.815C66.2177 112.465 50.329 111.215 50.329 111.215L45.8198 112.116Z" fill="#F16EA3"/>
<path opacity="0.1" d="M86.9702 107.838C86.9702 107.838 107.04 109.133 107.244 113.83C110.985 113.537 114.708 113.038 118.393 112.334L117.079 106.036C117.079 106.036 93.663 107.165 92.7487 107.235C91.435 107.34 86.9702 107.838 86.9702 107.838Z" fill="#F16EA3"/>
<path opacity="0.1" d="M50.089 106.045L49.9736 111.416L60.0128 112.833L61.9389 106.937L50.089 106.045Z" fill="#F16EA3"/>
<path opacity="0.1" d="M50.6661 106.141L50.1602 111.835C50.1602 111.835 51.0477 112.43 55.9386 112.832C54.0124 110.733 53.4088 106.534 53.4088 106.534L50.6661 106.141Z" fill="#F16EA3"/>
<path opacity="0.1" d="M111.025 106.937C112.048 109.018 112.299 111.385 111.736 113.629C116.174 113.427 117.061 112.028 117.061 112.028V106.036L111.025 106.937Z" fill="#F16EA3"/>
<path opacity="0.1" d="M46.3169 111.713C46.3169 111.713 60.9362 114.224 83.926 114.224C107.457 114.224 119.804 111.311 119.804 111.311L117.479 111.014C117.479 111.014 96.9743 113.751 81.7691 113.419C71.4319 113.095 61.1202 112.219 50.8794 110.795L46.3169 111.713Z" fill="#F16EA3"/>
<path opacity="0.1" d="M51.0565 109.036C51.0565 109.036 71.3302 110.374 85.4169 110.261C99.5037 110.147 116.537 108.984 116.537 108.984L117.159 106.814C117.159 106.814 97.0716 108.634 81.8664 108.284C66.6612 107.934 50.9678 107.121 50.9678 107.121L51.0565 109.036Z" fill="#F16EA3"/>
<path d="M120.364 62.8178L117.701 60.7272C117.701 60.7797 119.822 55.2166 119.822 55.2778C119.822 56.2837 115.606 56.5724 109.055 57.2284C102.504 57.8844 93.5392 58.2082 83.5533 58.2082C74.1888 58.2082 59.6671 57.0711 53.2317 56.6774C50.9682 56.5375 48.9799 55.6978 48.1278 55.8027C48.0745 55.8027 49.974 58.8728 49.974 60.2723L47.0005 63.4824L47.4354 103.902C47.4354 105.914 63.6259 107.541 83.6065 107.541C103.587 107.541 119.778 105.914 119.778 103.902H119.982L120.364 62.8178Z" fill="white"/>
<path d="M47.5415 62.6507L50.1245 60.499L47.5415 55.417" fill="white"/>
<path d="M47.5415 62.6507L50.1245 60.499L47.5415 55.417" stroke="#66636C" stroke-width="2" stroke-linecap="round" stroke-linejoin="round"/>
<path d="M119.768 55.0414C119.768 56.7908 103.569 58.2605 83.5974 58.2605C63.6256 58.2605 47.4263 56.8171 47.4263 55.0414C47.4263 53.2658 63.6167 48.875 83.5974 48.875C103.578 48.875 119.768 53.2571 119.768 55.0414Z" fill="white" stroke="#66636C" stroke-width="2" stroke-linecap="round" stroke-linejoin="round"/>
<path d="M119.902 62.8438H119.662C119.674 62.8956 119.674 62.9495 119.662 63.0013C119.662 64.7507 103.463 66.2289 83.4911 66.2289C63.5193 66.2289 47.32 64.7857 47.32 63.0013C47.3042 62.95 47.3042 62.8951 47.32 62.8438H47.249V104.156C47.249 105.905 63.4395 107.383 83.4201 107.383C103.401 107.383 119.591 105.94 119.591 104.156H119.786L119.902 62.8438Z" stroke="#66636C" stroke-width="2" stroke-linecap="round" stroke-linejoin="round"/>
<path d="M119.813 62.7475L117.23 60.5957L119.813 55.5225" fill="white"/>
<path d="M119.813 62.7475L117.23 60.5957L119.813 55.5225" stroke="#66636C" stroke-width="2" stroke-linecap="round" stroke-linejoin="round"/>
<path opacity="0.05" d="M119.902 64.0767C119.289 63.5781 118.233 61.8024 116.964 60.674C115.694 59.5456 121.748 54.8224 118.739 56.0383C115.579 57.3153 97.5068 57.6652 89.6246 58.6624C88.9855 61.164 86.8286 61.2864 83.6509 62.1611C86.5712 63.0358 87.7517 66.692 85.1865 66.4296C98.7495 72.9111 96.5216 106.919 96.5216 106.919C96.5216 106.919 112.668 106.779 119.387 104.846C118.65 94.516 121.5 65.3275 119.902 64.0767Z" fill="#66636C"/>
<path opacity="0.05" d="M119.52 64.0772C118.633 64.4796 118.269 61.4532 116.493 60.5785C115.899 60.2898 120.239 55.9776 119.547 56.0739C117.053 56.4062 102.824 58.2078 100.605 58.3302C99.4774 58.3914 100.605 60.5782 96.9121 62.0827C100.09 64.3394 99.8502 66.3599 99.575 66.2025C109.268 81.8683 102.14 105.284 108.354 105.862C112.344 106.128 116.338 105.407 119.973 103.762C119.973 103.762 121.429 68.1883 119.52 64.0772Z" fill="#66636C"/>
<path opacity="0.05" d="M69.3596 62.1268C69.3596 62.1268 65.1077 60.5261 65.5959 57.9195C59.702 58.1994 50.4529 55.4879 48.3935 55.8203C46.1745 56.1702 51.5891 60.0273 49.4854 61.4093C48.5471 62.0274 47.8177 62.9078 47.3906 63.9373C48.3493 68.1358 47.9232 104.742 47.9232 104.742C52.4145 105.937 57.0572 106.488 61.7081 106.378C62.143 84.6676 64.229 70.8212 65.7913 65.7392C66.6434 63.9111 69.3596 62.1268 69.3596 62.1268Z" fill="#66636C"/>
<path opacity="0.05" d="M47.5327 64.2171C47.995 62.8363 48.8823 61.6313 50.0713 60.7704C50.666 60.333 47.8966 55.7933 48.7576 55.9595C49.9116 56.1782 59.3116 57.8228 61.0602 57.6128C61.797 57.5166 61.4419 61.3302 62.8355 61.6801C60.288 62.3361 59.5868 65.1791 59.3383 65.424C55.9653 75.1244 56.3736 104.995 56.3736 104.995L48.0653 104.558C48.0653 104.558 46.5208 68.2232 47.5327 64.2171Z" fill="#66636C"/>
<path opacity="0.05" d="M50.666 60.9198C50.666 60.9198 69.4662 63.0099 84.2275 62.9224C106.987 62.8 117.665 60.9198 117.665 60.9198L119.955 55.54C119.955 55.54 97.1958 58.0418 84.6092 58.5404C72.0225 59.039 48.6333 56.161 48.6333 56.161L50.666 60.9198Z" fill="#66636C"/>
<path opacity="0.05" d="M48.9888 62.3009C48.9888 62.3009 73.1413 64.5577 83.6953 64.304C94.2492 64.0503 118.908 62.0472 118.908 62.0472L117.505 59.292C117.505 59.292 107.342 60.7003 83.7752 61.0414C72.4421 61.116 61.1126 60.6141 49.8321 59.5371L48.9888 62.3009Z" fill="#66636C"/>
<path opacity="0.05" d="M49.6274 61.7944C49.6274 61.7944 73.3983 63.2986 83.9523 63.1761C94.5063 63.0537 117.887 61.5493 117.887 61.5493L116.999 60.4209C116.999 60.4209 107.466 62.0041 83.9523 62.1703C72.7829 62.176 61.6211 61.592 50.5151 60.4209L49.6274 61.7944Z" fill="#66636C"/>
<path opacity="0.05" d="M49.2462 58.6277C49.2462 58.6277 73.6562 60.3768 84.2013 60.2981C94.7464 60.2194 117.514 58.3826 117.514 58.3826L119.671 56.2834C119.671 56.2834 107.093 58.8376 83.571 59.0126C71.9538 58.9176 60.3608 57.9556 48.8911 56.1348L49.2462 58.6277Z" fill="#66636C"/>
</g>
<defs>
<clipPath id="clip0_2385_18210">
<rect width="173" height="412" fill="white" transform="translate(0 48)"/>
</clipPath>
</defs>
</svg>
