<svg width="120" height="460" viewBox="0 0 120 460" fill="none" xmlns="http://www.w3.org/2000/svg">
<rect width="120" height="460" fill="white"/>
<g clip-path="url(#clip0_2385_18206)">
<path opacity="0.05" d="M101.273 436.892C98.2021 450.881 68.8587 449.634 57.7116 450.262C46.7955 450.872 18.8037 450.007 16.5966 434.462C5.79168 437.192 -7.65658 439.804 5.34691 447.968C18.3504 456.132 36.7349 458.671 56.5994 459.864C77.405 461.111 108.784 453.593 115.945 451.509C122.361 449.652 123.576 443.181 101.273 436.892Z" fill="#66636C"/>
<path opacity="0.05" d="M109.931 446.303C110.915 444.219 108.331 441.343 100.401 440.05C98.296 445.82 72.5799 451.127 49.7981 449.844C34.2281 448.933 22.2426 446.203 17.5802 437.502C9.30758 437.557 1.91612 442.562 8.28099 445.256C18.2389 449.479 38.6681 456.178 59.9185 456.26C73.0589 456.324 108.93 448.424 109.931 446.303Z" fill="#66636C"/>
<path opacity="0.05" d="M99.0662 439.813C98.57 447.022 72.6229 449.361 67.2162 449.77C51.6976 450.935 22.0376 447.468 18.1109 439.895C11.7289 439.895 8.07604 441.152 15.1766 444.264C29.1639 450.399 45.4012 454.795 63.7173 453.083C70.373 452.465 83.1798 451.818 89.7329 449.852C96.919 447.695 99.5453 447.322 104.362 444.474C107.476 442.544 101.872 440.96 99.0662 439.813Z" fill="#66636C"/>
<path d="M100.965 268.306C100.862 261.935 100.529 255.518 99.853 249.193C99.6734 247.445 99.4167 245.679 99.1772 243.905C100.033 235.449 99.1772 226.803 98.6639 218.329C98.6154 217.399 98.3975 216.487 98.0223 215.645C98.0223 211.74 98.1335 207.835 98.3046 203.94C98.4051 202.602 98.1057 201.264 97.4491 200.118C97.4832 199.916 97.4832 199.71 97.4491 199.508C96.9272 196.186 94.8142 196.049 91.9055 195.867C90.0918 195.776 87.2089 194.648 85.438 194.957C83.881 195.239 82.3155 195.44 80.7499 195.603C75.232 194.375 69.466 194.456 63.8368 194.566H62.5022C61.6835 194.235 60.8107 194.083 59.9357 194.119L58.1649 194.192H58.0194C57.6946 194.115 57.3557 194.141 57.0441 194.265C54.1526 194.399 51.2639 194.578 48.378 194.802H48.1556C43.245 194.42 36.0674 193.655 31.1569 196.049L27.8633 196.286C27.4621 196.051 27.0335 195.874 26.5886 195.758C24.896 195.281 23.0948 195.533 21.5754 196.459C20.1111 197.375 19.0378 198.859 18.5812 200.6C18.2905 201.855 18.2905 203.167 18.5812 204.423C18.4567 205.295 18.4915 206.185 18.6839 207.044C18.4929 207.684 18.3807 208.348 18.3502 209.019C17.1126 237.979 16.3113 266.962 15.9463 295.965C15.9383 296.599 16.0044 297.232 16.1431 297.849C15.9513 298.511 15.8872 299.208 15.9548 299.897C16.4339 304.751 16.7989 309.59 17.0498 314.414C16.4942 317.996 16.1769 321.615 16.1003 325.244C16.0721 326.276 16.2591 327.302 16.6478 328.248C16.4526 333.222 16.5012 338.204 16.7933 343.174L16.9643 347.179C16.5622 355.598 16.2628 363.98 17.9567 372.299C17.2552 384.394 16.6649 396.499 16.9643 408.623C16.9726 409.914 17.3256 411.177 17.9823 412.263C17.469 417.16 18.2048 422.484 18.3331 427.144C18.3458 427.932 18.4787 428.713 18.7267 429.456C18.5984 432.569 18.5128 435.672 18.5042 438.785C18.5042 443.472 22.0887 445.693 25.5021 445.456C52.6213 451.035 92.3675 446.985 93.8817 444.546C95.1942 444.195 96.3492 443.365 97.1451 442.201C97.9409 441.036 98.3271 439.612 98.2362 438.175C97.9025 422.366 98.1078 406.557 98.4243 390.738C98.7238 375.484 98.2447 359.902 100.135 344.748C100.245 343.797 100.09 342.832 99.6904 341.973C99.7503 341.49 99.8017 341.017 99.8616 340.535C99.8579 340.514 99.8579 340.492 99.8616 340.471C100.009 339.831 100.081 339.173 100.075 338.514V338.186C100.042 337.577 99.9793 336.969 99.8873 336.366C99.7927 335.837 99.607 335.331 99.3398 334.874L99.8787 326.728C99.961 325.756 99.8413 324.778 99.528 323.861C99.9557 318.813 100.375 313.761 100.785 308.707C100.912 307.404 100.61 306.094 99.93 305.002C100.529 292.752 101.17 280.538 100.965 268.306Z" fill="white"/>
<path opacity="0.02" d="M98.7494 410.123C96.0118 346.213 99.0659 364.807 98.7494 305.084C98.6296 280.783 95.4728 282.13 90.9216 282.13C83.3761 282.13 72.2719 282.239 67.0277 282.13C56.3683 281.902 32.8764 281.884 18.0935 282.13C17.1866 299.504 17.7855 406.892 17.6743 417.414C17.3492 450.479 25.6646 442.597 36.3839 444.463C46.6438 446.207 57.007 447.174 67.3955 447.357C82.0758 447.576 77.8325 447.976 90.8189 441.569C93.009 440.486 99.9385 437.837 98.7494 410.123Z" fill="#66636C"/>
<path opacity="0.05" d="M99.6049 283.113L79.2014 282.53L75.8906 446.247C75.8906 446.247 94.643 446.839 97.3977 442.734C100.152 438.629 99.6049 283.113 99.6049 283.113Z" fill="#66636C"/>
<path opacity="0.05" d="M100.709 283.122L88.5776 281.356L89.1252 445.082L97.9539 443.326L100.709 283.122Z" fill="#66636C"/>
<path opacity="0.05" d="M37.2736 281.356H15.2104L18.7436 441.715C18.7436 441.715 33.0133 444.882 38.42 444.491C38.3772 439.376 37.2736 281.356 37.2736 281.356Z" fill="#66636C"/>
<path opacity="0.05" d="M97.3978 197.441C96.2943 195.093 79.749 195.093 79.749 195.093V267.859C79.749 267.859 96.8589 268.45 100.161 267.276C99.605 247.909 98.5014 199.789 97.3978 197.441Z" fill="#66636C"/>
<path opacity="0.05" d="M97.9539 199.789C97.1925 196.312 86.918 195.093 86.918 195.093L89.6812 269.033L100.709 268.451C100.709 268.451 99.605 207.416 97.9539 199.789Z" fill="#66636C"/>
<path opacity="0.05" d="M35.0754 193.919L18.5215 198.615L16.8105 269.607C16.8105 269.607 29.7029 269.443 35.0754 269.051V193.919Z" fill="#66636C"/>
<path d="M98.2191 439.812C98.2181 440.985 97.8624 442.126 97.2045 443.067C96.5466 444.008 95.6215 444.698 94.5661 445.036C90.2202 446.447 73.0676 448.34 58.3959 448.34C43.7242 448.34 26.3748 446.42 21.9519 445.009C20.8911 444.682 19.9577 444 19.2903 443.063C18.623 442.127 18.2574 440.987 18.2476 439.812L16.5366 283.786V268.923L18.2476 201.627C18.2474 200.324 18.6854 199.063 19.4824 198.074C20.2794 197.084 21.3829 196.43 22.5935 196.23C28.1114 195.32 46.9665 193.937 59.2856 193.937C70.9032 193.937 88.783 195.22 93.8903 196.121C95.087 196.336 96.1731 196.995 96.9562 197.982C97.7393 198.968 98.1686 200.218 98.1678 201.509L99.8788 268.923V285.606L98.2191 439.812Z" stroke="#66636C" stroke-width="2" stroke-linecap="round" stroke-linejoin="round"/>
<path d="M16.8276 268.56H99.6907" stroke="#66636C" stroke-width="2" stroke-linecap="round" stroke-linejoin="round"/>
<path d="M31.6787 282.794L99.9813 282.667" stroke="#66636C" stroke-width="2" stroke-linecap="round" stroke-linejoin="round"/>
<path d="M16.5879 282.795H25.2113" stroke="#66636C" stroke-width="2" stroke-linecap="round" stroke-linejoin="round"/>
<path opacity="0.3" fill-rule="evenodd" clip-rule="evenodd" d="M95.4132 378.441C95.8239 379.005 95.1738 380.034 96.149 380.344C94.8316 381.254 95.8753 382.218 94.6348 383.229C94.5211 383.06 94.3589 382.935 94.1728 382.874C94.0787 383.647 93.6338 383.784 93.4798 384.43C92.8467 384.102 92.7526 384.785 91.9998 384.239C91.5036 382.637 92.0683 381.363 91.0845 379.916C91.5002 379.137 92.1762 378.553 92.9782 378.279C93.7802 378.006 94.6495 378.064 95.4132 378.441Z" fill="#E4CDE8"/>
<path opacity="0.3" fill-rule="evenodd" clip-rule="evenodd" d="M94.8401 371.233C95.2507 371.797 94.592 372.826 95.5758 373.145C94.2583 374.055 95.302 375.01 94.0615 376.021C93.9457 375.854 93.7843 375.73 93.5995 375.666C93.5054 376.439 93.0606 376.576 92.9067 377.222C92.2736 376.903 92.1795 377.577 91.4267 377.04C90.9305 375.429 91.495 374.155 90.5112 372.708C90.927 371.929 91.6031 371.345 92.4051 371.071C93.2071 370.798 94.0763 370.856 94.8401 371.233Z" fill="#E4CDE8"/>
<path opacity="0.3" fill-rule="evenodd" clip-rule="evenodd" d="M57.2836 426.962C57.1895 427.407 56.9927 427.635 56.5564 427.417C56.4916 427.241 56.4916 427.046 56.5564 426.87C56.8018 426.819 57.0561 426.851 57.2836 426.962Z" fill="#E4CDE8"/>
<path opacity="0.3" fill-rule="evenodd" clip-rule="evenodd" d="M26.8024 363.88C26.8024 364.043 26.5629 363.998 26.4003 364.025C26.8709 364.79 26.4858 364.936 26.7681 366.073C26.1522 366.519 24.5268 367.511 23.851 366.41C23.3035 366.41 22.9955 366.92 22.14 366.592C21.5754 365.4 20.583 364.226 21.1476 362.642C22.5249 362.232 23.5601 361.277 24.4327 363.115C25.4165 362.451 26.8452 362.97 26.8024 363.88Z" fill="#E4CDE8"/>
<path opacity="0.3" fill-rule="evenodd" clip-rule="evenodd" d="M84.8135 422.92C85.3689 422.455 86.0413 422.175 86.7461 422.115C87.4509 422.055 88.1565 422.218 88.7743 422.584C88.956 423.379 89.226 424.149 89.5785 424.877C89.4824 424.943 89.3996 425.028 89.335 425.128C89.2703 425.228 89.2251 425.341 89.2021 425.46C88.3466 424.795 88.0814 426.37 87.3029 426.57C87.474 427.235 88.4065 427.571 87.8077 428.572C87.5494 428.622 87.2831 428.583 87.0466 428.462C86.8101 428.341 86.6155 428.144 86.4902 427.899C86.9864 427.535 86.5501 426.797 87.2002 426.888C86.5162 426.5 85.9374 425.931 85.5194 425.236C85.1015 424.541 84.8584 423.744 84.8135 422.92Z" fill="#E4CDE8"/>
<path opacity="0.3" fill-rule="evenodd" clip-rule="evenodd" d="M72.1865 404.372C72.1009 404.818 71.8955 405.046 71.4592 404.827C71.3984 404.651 71.3984 404.457 71.4592 404.281C71.7046 404.229 71.9591 404.261 72.1865 404.372Z" fill="#E4CDE8"/>
<path opacity="0.3" fill-rule="evenodd" clip-rule="evenodd" d="M27.9404 435.617C28.0773 434.106 33.0734 432.604 35.3576 431.758C36.2406 432.302 37.1755 432.744 38.1465 433.078C38.1292 433.393 38.2273 433.702 38.4202 433.942C37.137 434.124 38.4203 435.762 38.0781 436.673C38.848 437.109 39.8575 436.572 40.3793 438.001C40.1997 438.611 39.2158 438.802 38.7539 438.584C38.7539 437.819 37.7529 437.556 38.309 437.055C36.7092 437.61 29.5573 437.01 27.9404 435.617Z" fill="#E4CDE8"/>
<path opacity="0.3" fill-rule="evenodd" clip-rule="evenodd" d="M35.1349 425.951C35.5455 426.515 34.8868 427.544 35.8706 427.863C34.5531 428.773 35.5968 429.728 34.3564 430.738C34.2406 430.572 34.0792 430.448 33.8945 430.384C33.8004 431.157 33.3555 431.294 33.2015 431.94C32.5684 431.621 32.4743 432.295 31.7215 431.758C31.2253 430.147 31.79 428.873 30.8062 427.426C31.2219 426.647 31.8979 426.062 32.6999 425.789C33.5019 425.516 34.3711 425.574 35.1349 425.951Z" fill="#E4CDE8"/>
<path opacity="0.3" fill-rule="evenodd" clip-rule="evenodd" d="M67.9948 389.754C67.9092 390.191 67.7125 390.428 67.2762 390.21C67.2113 390.034 67.2113 389.839 67.2762 389.663C67.5183 389.603 67.7726 389.635 67.9948 389.754Z" fill="#E4CDE8"/>
<path opacity="0.3" fill-rule="evenodd" clip-rule="evenodd" d="M80.7843 377.204C80.887 377.259 80.7843 377.395 80.7843 377.513C81.4088 377.459 81.4344 377.759 82.2643 377.96C82.4268 378.497 82.7433 379.871 81.8365 379.944C81.7168 380.29 81.9906 380.654 81.5799 381.072C80.6475 381.027 79.6208 381.282 78.6627 380.39C78.6627 379.37 78.2777 378.387 79.7235 378.442C79.5267 377.614 80.1769 376.858 80.7843 377.204Z" fill="#E4CDE8"/>
<path opacity="0.3" fill-rule="evenodd" clip-rule="evenodd" d="M91.0845 350.472C92.5987 349.508 94.1385 348.57 96.9103 349.981C97.4407 351.401 97.2782 351.956 98.0824 353.349C97.939 353.442 97.8156 353.567 97.7199 353.714C97.6241 353.862 97.5583 354.028 97.5264 354.204C96.2517 353.221 95.8838 355.506 94.7374 355.833C94.9855 356.816 96.3629 357.299 95.4903 358.773C95.1083 358.849 94.7133 358.794 94.3626 358.616C94.012 358.438 93.7238 358.145 93.5397 357.781C94.2669 357.253 93.6424 356.179 94.5834 356.307C93.5803 355.733 92.732 354.896 92.1195 353.875C91.5069 352.853 91.1506 351.682 91.0845 350.472Z" fill="#E4CDE8"/>
<path opacity="0.3" fill-rule="evenodd" clip-rule="evenodd" d="M67.4985 442.216C67.7552 442.589 67.336 443.244 67.9691 443.453C67.1136 444.036 67.7894 444.664 66.9938 445.274C66.917 445.168 66.813 445.089 66.6944 445.046C66.6345 445.547 63.2724 445.619 63.1441 446.056C62.7335 445.847 62.665 446.284 62.1859 445.929C61.8609 444.892 62.2288 444.109 61.5957 443.135C62.0919 442.234 66.2409 441.715 67.4985 442.216Z" fill="#E4CDE8"/>
<path opacity="0.3" fill-rule="evenodd" clip-rule="evenodd" d="M49.0453 433.387C48.9598 433.824 48.763 434.06 48.3182 433.842C48.2533 433.666 48.2533 433.471 48.3182 433.296C48.563 433.233 48.8208 433.266 49.0453 433.387Z" fill="#E4CDE8"/>
<path opacity="0.3" fill-rule="evenodd" clip-rule="evenodd" d="M92.4019 439.13C92.3164 439.339 92.0169 439.184 91.7859 439.13C92.0767 440.313 91.478 440.349 91.3325 441.924C90.2888 442.233 83.9752 442.834 83.556 441.096C82.8118 440.859 82.1701 441.378 81.2034 440.595C80.9896 438.82 80.1769 436.873 81.674 435.08C83.7357 435.152 89.2365 434.379 89.5787 437.109C91.1871 436.754 92.9152 437.992 92.4019 439.13Z" fill="#E4CDE8"/>
<path opacity="0.3" fill-rule="evenodd" clip-rule="evenodd" d="M93.5908 384.503C93.7876 384.603 93.6421 384.849 93.5908 385.049C94.703 384.958 94.7458 385.495 96.2258 385.85C96.5252 386.815 97.0813 389.254 95.473 389.372C95.2505 390 95.7467 390.637 95.0195 391.384C93.3085 391.311 91.5206 391.757 89.8267 390.173C89.8781 388.353 89.1337 386.614 91.7088 386.705C91.358 385.204 92.5214 383.884 93.5908 384.503Z" fill="#E4CDE8"/>
<path opacity="0.3" fill-rule="evenodd" clip-rule="evenodd" d="M78.3463 416.949C78.7559 417.563 78.9844 418.292 79.0027 419.044C79.021 419.796 78.8282 420.537 78.4489 421.172C77.6933 421.318 76.9577 421.562 76.2589 421.9C76.2027 421.793 76.1267 421.699 76.0355 421.624C75.9444 421.549 75.8399 421.495 75.7284 421.464C76.4042 420.553 74.9585 420.226 74.7959 419.389C74.1543 419.534 73.795 420.508 72.8882 419.816C72.8527 419.539 72.9017 419.257 73.0279 419.011C73.1542 418.765 73.351 418.569 73.5897 418.451C73.9062 418.997 74.6163 418.578 74.4965 419.261C74.8976 418.556 75.4625 417.974 76.1368 417.569C76.8111 417.164 77.572 416.95 78.3463 416.949Z" fill="#E4CDE8"/>
<path opacity="0.3" fill-rule="evenodd" clip-rule="evenodd" d="M88.1328 413.737C86.8582 413.691 85.5665 413.618 84.48 411.834C84.787 411.128 85.0028 410.381 85.1216 409.613C85.3682 409.617 85.6078 409.527 85.7974 409.359C86.1652 410.36 87.286 409.286 88.0987 409.541C88.3297 408.922 87.7137 408.148 88.8173 407.721C89.0616 407.803 89.2712 407.974 89.4101 408.203C89.5491 408.432 89.6086 408.706 89.5787 408.977C88.9371 408.977 88.8857 409.786 88.3724 409.368C88.7331 410.043 88.9024 410.815 88.8599 411.59C88.8174 412.365 88.5648 413.111 88.1328 413.737Z" fill="#E4CDE8"/>
<path opacity="0.3" fill-rule="evenodd" clip-rule="evenodd" d="M33.2187 365.29C33.347 365.472 33.1332 365.8 33.4497 365.909C33.0305 366.2 33.3641 366.519 32.962 366.819C32.9268 366.764 32.8758 366.723 32.8167 366.701C32.8167 366.947 32.637 366.992 32.5857 367.202C32.3803 367.102 32.3546 367.32 32.1065 367.147C31.944 366.619 32.1066 366.237 31.8071 365.736C31.9496 365.49 32.1723 365.309 32.4328 365.226C32.6932 365.144 32.9731 365.167 33.2187 365.29Z" fill="#E4CDE8"/>
<path opacity="0.3" fill-rule="evenodd" clip-rule="evenodd" d="M44.8192 376.039C44.7679 376.312 44.6481 376.458 44.3743 376.321C44.3355 376.213 44.3355 376.093 44.3743 375.985C44.5241 375.948 44.681 375.968 44.8192 376.039Z" fill="#E4CDE8"/>
<path opacity="0.3" fill-rule="evenodd" clip-rule="evenodd" d="M38.7793 403.643C39.1232 403.354 39.54 403.18 39.9771 403.142C40.4142 403.105 40.8518 403.206 41.2346 403.434C41.3468 403.926 41.5133 404.403 41.7307 404.854C41.669 404.893 41.6158 404.946 41.5746 405.009C41.5333 405.072 41.505 405.143 41.4912 405.218C40.9523 404.799 40.8069 405.764 40.3192 405.901C40.4219 406.31 41.0036 406.52 40.6358 407.138C40.4697 407.181 40.295 407.162 40.1398 407.086C39.9847 407.011 39.8581 406.882 39.7803 406.72C40.0882 406.501 39.7803 406.046 40.2166 406.101C39.8008 405.854 39.4507 405.5 39.1993 405.07C38.9479 404.64 38.8033 404.149 38.7793 403.643Z" fill="#E4CDE8"/>
<path opacity="0.3" fill-rule="evenodd" clip-rule="evenodd" d="M78.0639 403.553C77.5592 403.798 77.063 403.125 76.5497 403.853C76.3444 402.67 75.3691 403.361 75.0612 402.224C75.2099 402.153 75.3393 402.043 75.4375 401.905C74.9499 401.714 75.0012 401.341 74.582 401.123C74.9927 400.658 74.5821 400.485 75.1552 399.967C76.3872 399.794 77.0715 400.44 78.3548 399.866C79.1162 400.676 79.1761 402.115 78.0639 403.553Z" fill="#E4CDE8"/>
<path opacity="0.3" fill-rule="evenodd" clip-rule="evenodd" d="M32.8509 382.837C32.7911 383.111 32.6714 383.256 32.3976 383.12C32.359 383.008 32.359 382.886 32.3976 382.774C32.5512 382.742 32.7104 382.764 32.8509 382.837Z" fill="#E4CDE8"/>
<path opacity="0.3" fill-rule="evenodd" clip-rule="evenodd" d="M60.3464 353.968C60.3464 354.059 60.1925 353.968 60.0898 353.968C60.2609 354.459 60.0128 354.496 60.0128 355.16C59.5936 355.333 58.5071 355.67 58.3018 354.969C57.9853 354.896 57.7372 355.133 57.3095 354.842C57.147 354.104 56.7363 353.313 57.3095 352.493C58.165 352.448 58.9092 352.056 59.1573 353.203C59.7476 353.012 60.5175 353.467 60.3464 353.968Z" fill="#E4CDE8"/>
<path opacity="0.3" fill-rule="evenodd" clip-rule="evenodd" d="M19.8477 317.772C19.8477 317.38 21.4303 317.307 21.8837 317.18C22.0789 317.351 22.2878 317.503 22.5082 317.635C22.5176 317.722 22.5502 317.804 22.6023 317.872C22.3371 317.872 22.6622 318.336 22.6023 318.554C22.782 318.7 22.9702 318.554 23.1327 318.991C23.1327 319.146 22.9188 319.155 22.8162 319.082C22.7135 319.009 22.5682 318.773 22.6708 318.664C21.6795 318.591 20.7154 318.287 19.8477 317.772Z" fill="#E4CDE8"/>
<path opacity="0.3" fill-rule="evenodd" clip-rule="evenodd" d="M40.6787 393.568C40.9353 393.914 40.5333 394.551 41.1321 394.743C40.2766 395.307 40.9696 395.908 40.1997 396.563C40.127 396.463 40.029 396.387 39.9173 396.345C39.8574 396.827 39.5751 396.899 39.481 397.309C39.096 397.109 39.0276 397.528 38.5656 397.191C38.2577 396.199 38.5656 395.371 38.001 394.515C38.2506 394.025 38.6664 393.654 39.1638 393.478C39.6612 393.302 40.2029 393.334 40.6787 393.568Z" fill="#E4CDE8"/>
<path opacity="0.3" fill-rule="evenodd" clip-rule="evenodd" d="M26.8626 381.682C26.8113 381.955 26.6916 382.092 26.4178 381.964C26.375 381.854 26.375 381.729 26.4178 381.619C26.5685 381.582 26.7264 381.605 26.8626 381.682Z" fill="#E4CDE8"/>
<path opacity="0.3" fill-rule="evenodd" clip-rule="evenodd" d="M47.2234 364.936C47.3431 364.999 47.2234 365.154 47.2234 365.273C47.9163 365.218 47.942 365.554 48.8574 365.773C49.0456 366.365 49.3877 367.875 48.3868 367.957C48.2499 368.339 48.5579 368.74 48.1045 369.195C47.0779 369.195 45.9401 369.432 44.8879 368.449C44.8879 367.329 44.4601 366.246 46.0599 366.301C45.8375 365.391 46.5561 364.553 47.2234 364.936Z" fill="#E4CDE8"/>
<path opacity="0.3" fill-rule="evenodd" clip-rule="evenodd" d="M25.0319 350.464C25.1517 350.528 25.0319 350.683 25.0319 350.801C25.7163 350.746 25.7419 351.083 26.6572 351.301C26.8455 351.893 27.1877 353.413 26.1953 353.486C26.0585 353.868 26.3664 354.268 25.913 354.723C24.8778 354.723 23.7486 354.96 22.6963 353.977C22.6963 352.858 22.2687 351.775 23.8599 351.829C23.6546 350.919 24.3646 350.082 25.0319 350.464Z" fill="#E4CDE8"/>
<path opacity="0.3" fill-rule="evenodd" clip-rule="evenodd" d="M32.2607 384.294C32.5173 384.649 32.1153 385.286 32.7141 385.477C31.8586 386.032 32.5515 386.642 31.7816 387.297C31.7089 387.197 31.611 387.122 31.4993 387.079C31.4309 387.561 31.1571 387.634 31.063 388.044C30.6695 387.843 30.6096 388.262 30.1477 387.926C29.8397 386.933 30.1476 386.105 29.583 385.249C29.8342 384.761 30.2494 384.391 30.7458 384.213C31.2422 384.036 31.7833 384.065 32.2607 384.294Z" fill="#E4CDE8"/>
<path opacity="0.3" fill-rule="evenodd" clip-rule="evenodd" d="M39.7378 380.016C39.6864 380.289 39.5581 380.435 39.2929 380.298C39.2533 380.19 39.2533 380.07 39.2929 379.962C39.4428 379.928 39.5991 379.947 39.7378 380.016Z" fill="#E4CDE8"/>
<path opacity="0.3" fill-rule="evenodd" clip-rule="evenodd" d="M66.7883 379.971C66.9081 380.034 66.7883 380.18 66.7883 380.307C67.4812 380.253 67.5069 380.58 68.4223 380.799C68.6105 381.4 68.9527 382.91 67.9517 382.983C67.8149 383.374 68.1229 383.766 67.678 384.23C66.6429 384.185 65.5051 384.457 64.4528 383.484C64.4528 382.355 64.0251 381.272 65.6248 381.336C65.4024 380.416 66.1552 379.588 66.7883 379.971Z" fill="#E4CDE8"/>
<path opacity="0.3" fill-rule="evenodd" clip-rule="evenodd" d="M18.2476 325.926C18.5924 325.639 19.009 325.466 19.4456 325.428C19.8821 325.391 20.3194 325.492 20.7028 325.717C20.8122 326.21 20.9788 326.687 21.199 327.137C21.138 327.177 21.0853 327.23 21.0441 327.292C21.0029 327.355 20.9742 327.426 20.9595 327.501C20.4205 327.082 20.2666 328.047 19.7875 328.183C19.8901 328.602 20.4719 328.802 20.104 329.43C19.938 329.47 19.7644 329.45 19.61 329.374C19.4555 329.298 19.3286 329.171 19.2485 329.011C19.5565 328.784 19.2485 328.329 19.6848 328.383C19.2691 328.137 18.919 327.782 18.6676 327.352C18.4162 326.922 18.2716 326.432 18.2476 325.926Z" fill="#E4CDE8"/>
<path opacity="0.3" fill-rule="evenodd" clip-rule="evenodd" d="M37.5563 445.274C37.114 445.325 36.667 445.243 36.2673 445.035C35.8675 444.827 35.5314 444.503 35.2979 444.1C35.4861 443.659 35.6184 443.194 35.6913 442.716C35.8448 442.726 35.9955 442.67 36.1105 442.562C36.333 443.18 37.0259 442.516 37.5307 442.671C37.6761 442.298 37.2912 441.815 37.9755 441.533C38.1274 441.583 38.2582 441.687 38.3457 441.828C38.4331 441.969 38.4715 442.139 38.4546 442.307C38.0525 442.307 38.0183 442.816 37.7017 442.552C37.9326 442.97 38.0421 443.452 38.0162 443.937C37.9903 444.421 37.8302 444.886 37.5563 445.274Z" fill="#E4CDE8"/>
<path opacity="0.3" fill-rule="evenodd" clip-rule="evenodd" d="M72.4686 328.511C72.7509 328.384 73.1102 328.803 73.3241 328.375C73.5551 329.103 74.0855 328.721 74.3678 329.413C74.2869 329.452 74.2185 329.515 74.171 329.594C74.479 329.731 74.4791 329.95 74.7443 330.095C74.5389 330.359 74.8127 330.487 74.4961 330.778C73.769 330.842 73.2985 330.423 72.5798 330.732C72.3039 330.444 72.1395 330.056 72.1189 329.645C72.0983 329.234 72.2231 328.829 72.4686 328.511Z" fill="#E4CDE8"/>
<path opacity="0.3" fill-rule="evenodd" clip-rule="evenodd" d="M77.1314 374.847C77.5163 375.038 77.6789 375.302 77.3709 375.702C77.1947 375.732 77.0145 375.689 76.8662 375.584C76.8698 375.313 76.9637 375.051 77.1314 374.847Z" fill="#E4CDE8"/>
<path opacity="0.3" fill-rule="evenodd" clip-rule="evenodd" d="M93.5309 408.567C93.7191 408.622 93.5993 408.922 93.5309 409.14C94.5575 408.758 94.6259 409.314 96.0204 409.295C96.354 410.206 97.0041 412.681 95.5156 413.236C95.3445 413.955 95.8407 414.51 95.2076 415.484C93.6506 415.857 91.9739 416.804 90.3142 415.575C90.2629 413.637 89.4588 411.98 91.8713 411.398C91.4606 409.923 92.4615 408.194 93.5309 408.567Z" fill="#E4CDE8"/>
<path opacity="0.3" fill-rule="evenodd" clip-rule="evenodd" d="M65.0601 419.734C65.445 419.926 65.6076 420.189 65.2996 420.59C65.1234 420.619 64.9432 420.577 64.7949 420.472C64.7985 420.2 64.8925 419.939 65.0601 419.734Z" fill="#E4CDE8"/>
<path opacity="0.3" fill-rule="evenodd" clip-rule="evenodd" d="M93.1717 316.169C93.3343 316.278 93.1718 316.542 93.0862 316.761C94.147 316.642 94.0871 317.216 95.4046 317.562C95.5243 318.59 95.6185 321.202 94.0957 321.375C93.7878 322.049 94.0957 322.722 93.3258 323.533C91.7859 323.533 89.9979 324.015 88.689 322.34C89.0483 320.402 88.689 318.535 91.0501 318.581C90.9646 316.997 92.2735 315.532 93.1717 316.169Z" fill="#E4CDE8"/>
<path opacity="0.3" fill-rule="evenodd" clip-rule="evenodd" d="M78.603 435.808C77.2513 435.307 75.9167 434.77 75.7114 432.167C76.4196 431.386 77.0502 430.529 77.5935 429.61C77.8778 429.701 78.1846 429.672 78.449 429.528C78.3035 430.902 80.0915 429.937 80.8187 430.538C81.409 429.855 81.1609 428.672 82.5895 428.49C83.1114 428.818 83.0344 429.883 82.735 430.311C82.0335 430.11 81.5459 431.093 81.2293 430.392C81.2204 431.451 80.9782 432.492 80.522 433.432C80.0659 434.373 79.4086 435.187 78.603 435.808Z" fill="#E4CDE8"/>
<path opacity="0.3" fill-rule="evenodd" clip-rule="evenodd" d="M86.8922 404.89C87.4997 404.599 88.2781 405.527 88.8085 404.59C89.3047 406.173 90.4511 405.327 91.0671 406.847C90.8874 406.927 90.735 407.064 90.6308 407.239C91.3152 407.53 91.3066 408.012 91.8797 408.331C91.4349 408.904 92.0337 409.177 91.3493 409.814C89.7667 409.942 88.7829 409.041 87.1831 409.714C86.5745 409.096 86.2068 408.256 86.1529 407.363C86.099 406.469 86.3629 405.586 86.8922 404.89Z" fill="#E4CDE8"/>
<path opacity="0.3" fill-rule="evenodd" clip-rule="evenodd" d="M94.5916 358.19C94.9766 358.391 95.1392 358.655 94.8312 359.046C94.6577 359.075 94.4803 359.033 94.335 358.928C94.3404 358.658 94.4308 358.399 94.5916 358.19Z" fill="#E4CDE8"/>
<path opacity="0.3" fill-rule="evenodd" clip-rule="evenodd" d="M35.7425 369.668C35.8024 369.595 35.888 369.668 35.965 369.723C36.0505 369.195 36.273 369.231 36.581 368.585C37.0173 368.585 38.0781 368.585 37.9498 369.322C38.1893 369.495 38.5058 369.322 38.7282 369.75C38.5229 370.523 38.4972 371.424 37.6588 372.043C36.9231 371.816 36.119 371.97 36.4441 370.778C35.7939 370.787 35.3576 370.105 35.7425 369.668Z" fill="#E4CDE8"/>
<path opacity="0.3" fill-rule="evenodd" clip-rule="evenodd" d="M69.9022 445.437C69.3975 443.617 68.9099 441.797 70.869 439.303C72.2891 439.103 72.7596 439.403 74.2225 438.902C74.2717 439.076 74.3551 439.236 74.4672 439.373C74.5793 439.51 74.7175 439.619 74.8726 439.694C73.6578 440.768 75.6597 441.696 75.6768 442.962C76.635 442.962 77.3878 441.642 78.5427 442.907C78.5184 443.318 78.3719 443.711 78.1244 444.029C77.8768 444.346 77.5411 444.571 77.1654 444.673C76.8574 443.762 75.7281 444.181 76.0703 443.234C75.3048 444.132 74.336 444.806 73.2561 445.191C72.1763 445.577 71.0216 445.662 69.9022 445.437Z" fill="#E4CDE8"/>
<path opacity="0.3" fill-rule="evenodd" clip-rule="evenodd" d="M42.4838 370.05C42.7148 369.941 43.0057 370.286 43.2025 369.94C43.3907 370.532 43.8184 370.214 44.058 370.787C43.992 370.818 43.9357 370.869 43.8954 370.932C44.152 371.042 44.1521 371.224 44.366 371.342C44.1949 371.561 44.4259 371.661 44.1692 371.897C43.5704 371.952 43.1853 371.615 42.595 371.897C42.3562 371.664 42.2113 371.342 42.1906 370.997C42.1698 370.653 42.2749 370.314 42.4838 370.05Z" fill="#E4CDE8"/>
<path opacity="0.3" fill-rule="evenodd" clip-rule="evenodd" d="M79.6292 352.438C80.0142 352.639 80.1768 352.903 79.8774 353.294C79.7022 353.327 79.5217 353.288 79.3726 353.185C79.3761 352.912 79.4666 352.649 79.6292 352.438Z" fill="#E4CDE8"/>
<path opacity="0.3" fill-rule="evenodd" clip-rule="evenodd" d="M84.976 360.439C85.0616 360.33 85.1728 360.439 85.2754 360.512C85.3866 359.802 88.5776 359.857 88.9882 358.992C89.5614 358.946 90.9815 358.992 90.8104 359.975C91.1184 360.202 91.5462 359.975 91.8457 360.548C91.5633 361.577 91.5377 362.769 90.4255 363.597C89.4417 363.297 88.3723 363.506 88.8001 361.922C87.9189 361.931 84.4627 361.021 84.976 360.439Z" fill="#E4CDE8"/>
<path opacity="0.3" fill-rule="evenodd" clip-rule="evenodd" d="M49.9863 404.317C50.4055 404.126 50.9445 404.753 51.3038 404.116C51.646 405.199 52.433 404.617 52.8608 405.664C52.7365 405.719 52.6318 405.814 52.5614 405.937C53.0233 406.128 53.0233 406.465 53.4169 406.683C53.1089 407.084 53.5195 407.266 53.0575 407.703C51.9625 407.794 51.261 407.175 50.1916 407.63C49.7724 407.206 49.5186 406.63 49.4806 406.016C49.4425 405.402 49.6231 404.795 49.9863 404.317Z" fill="#E4CDE8"/>
<path opacity="0.3" fill-rule="evenodd" clip-rule="evenodd" d="M56.1631 380.335C56.5395 380.535 56.7021 380.799 56.4027 381.19C56.2264 381.22 56.0463 381.178 55.8979 381.072C55.903 380.801 55.9968 380.54 56.1631 380.335Z" fill="#E4CDE8"/>
<path opacity="0.3" fill-rule="evenodd" clip-rule="evenodd" d="M36.9062 379.743C36.9746 379.743 36.9062 379.889 36.9062 379.971C37.3083 379.816 37.3338 380.034 37.8899 380.034C38.0182 380.407 38.2749 381.372 37.6846 381.59C37.6162 381.873 37.8129 382.091 37.5648 382.501C36.9489 382.646 36.2901 383.019 35.6314 382.501C35.6314 381.736 35.3064 381.081 36.2474 380.854C36.102 380.298 36.4955 379.616 36.9062 379.743Z" fill="#E4CDE8"/>
<path opacity="0.3" fill-rule="evenodd" clip-rule="evenodd" d="M90.0066 421.609C89.7156 420.924 89.622 420.162 89.7377 419.42C89.8534 418.678 90.1733 417.989 90.6568 417.441C91.4257 417.447 92.1926 417.356 92.941 417.168C92.9772 417.285 93.0352 417.393 93.1116 417.485C93.1881 417.577 93.2813 417.652 93.3858 417.705C92.5303 418.433 93.9162 419.07 93.9333 419.925C94.5835 419.925 95.1139 419.015 95.8838 419.925C95.8665 420.206 95.7662 420.473 95.5971 420.689C95.428 420.905 95.1989 421.058 94.9428 421.127C94.7375 420.526 93.9676 420.79 94.1985 420.153C93.6736 420.754 93.0131 421.204 92.2797 421.459C91.5463 421.713 90.7641 421.765 90.0066 421.609Z" fill="#E4CDE8"/>
<path opacity="0.3" fill-rule="evenodd" clip-rule="evenodd" d="M75.2664 444.154C76.1219 444.454 77.1827 443.144 78.0296 444.309C78.5771 442.161 80.2967 443.135 81.0238 441.041C80.7595 440.969 80.5249 440.805 80.3565 440.577C81.2976 440.113 81.212 439.476 82.0675 438.975C81.3746 438.274 82.1959 437.847 81.1608 437.082C78.8851 437.082 77.5249 438.429 75.2236 437.746C73.6837 439.412 73.3843 441.906 75.2664 444.154Z" fill="#E4CDE8"/>
<path opacity="0.3" fill-rule="evenodd" clip-rule="evenodd" d="M90.9645 395.334C91.3409 395.534 91.5035 395.798 91.204 396.199C91.0278 396.228 90.8475 396.186 90.6992 396.081C90.7023 395.806 90.7963 395.542 90.9645 395.334Z" fill="#E4CDE8"/>
<path opacity="0.3" fill-rule="evenodd" clip-rule="evenodd" d="M92.9066 427.899C93.0691 427.999 92.9066 428.272 92.8296 428.481C93.8819 428.363 93.8305 428.936 95.148 429.291C95.2592 430.32 95.3618 432.932 93.8391 433.096C93.5225 433.769 93.839 434.452 93.0691 435.262C91.5207 435.262 89.7413 435.735 88.4238 434.07C88.7917 432.122 88.4238 430.256 90.785 430.301C90.6994 428.727 92.0083 427.253 92.9066 427.899Z" fill="#E4CDE8"/>
<path opacity="0.3" fill-rule="evenodd" clip-rule="evenodd" d="M26.6572 432.795C26.7941 432.623 26.9909 432.795 27.162 432.914C27.3502 431.74 27.8464 431.831 28.5308 430.393C29.4804 430.311 31.8415 430.329 31.5677 432.022C32.081 432.404 32.7825 432.022 33.2787 432.978C32.8168 434.689 32.7741 436.682 30.9177 438.047C29.2837 437.556 27.4957 437.892 28.2143 435.262C26.8027 435.262 25.8359 433.76 26.6572 432.795Z" fill="#E4CDE8"/>
<path opacity="0.3" fill-rule="evenodd" clip-rule="evenodd" d="M24.5014 426.715C23.1498 426.205 21.8152 425.678 21.6099 423.075C22.3203 422.292 22.9511 421.432 23.4919 420.508C23.6318 420.557 23.7796 420.576 23.9265 420.564C24.0735 420.551 24.2166 420.508 24.3474 420.435C24.202 421.81 25.99 420.845 26.7171 421.445C27.3074 420.754 27.0593 419.58 28.488 419.389C29.0098 419.716 28.9329 420.79 28.6334 421.209C27.9319 421.009 27.4443 421.992 27.1278 421.291C27.1195 422.35 26.8775 423.394 26.4214 424.336C25.9652 425.278 25.3077 426.093 24.5014 426.715Z" fill="#E4CDE8"/>
<path opacity="0.3" fill-rule="evenodd" clip-rule="evenodd" d="M27.3842 419.134C27.8119 418.934 28.3422 419.571 28.7101 418.925C29.0523 420.017 29.8394 419.434 30.2672 420.481C30.1412 420.534 30.0356 420.63 29.9677 420.754C30.4296 420.946 30.4296 421.282 30.8231 421.501C30.5152 421.901 30.9259 422.083 30.4639 422.52C29.3689 422.611 28.6674 421.992 27.5895 422.457C27.1714 422.03 26.9185 421.452 26.8805 420.838C26.8425 420.223 27.0222 419.615 27.3842 419.134Z" fill="#E4CDE8"/>
<path opacity="0.3" fill-rule="evenodd" clip-rule="evenodd" d="M65.6505 426.916C66.0269 427.116 66.1894 427.38 65.89 427.78C65.7137 427.81 65.5336 427.768 65.3853 427.662C65.3883 427.388 65.4823 427.124 65.6505 426.916Z" fill="#E4CDE8"/>
<path opacity="0.3" fill-rule="evenodd" clip-rule="evenodd" d="M22.1318 409.678C22.2687 409.505 22.4569 409.678 22.6365 409.797C22.8247 408.632 23.3209 408.713 24.0053 407.275C24.9549 407.203 27.3161 407.221 27.0338 408.905C27.5471 409.287 28.2571 408.904 28.7448 409.86C28.2828 411.571 28.24 413.565 26.3836 414.93C24.7496 414.438 22.9616 414.775 23.6802 412.145C22.2515 412.163 21.3105 410.689 22.1318 409.678Z" fill="#E4CDE8"/>
<path opacity="0.3" fill-rule="evenodd" clip-rule="evenodd" d="M89.733 399.165C89.8784 398.992 90.0666 399.166 90.2377 399.284C90.4259 398.119 90.9221 398.201 91.6064 396.763C92.556 396.69 94.9173 396.708 94.6435 398.392C95.1568 398.774 95.8583 398.392 96.3545 399.347C95.8925 401.058 95.8497 403.052 93.9933 404.417C92.3593 403.925 90.5713 404.262 91.2899 401.632C89.8612 401.65 88.9117 400.13 89.733 399.165Z" fill="#E4CDE8"/>
<path opacity="0.3" fill-rule="evenodd" clip-rule="evenodd" d="M91.8199 353.649C92.2049 353.85 92.3675 354.114 92.0595 354.505C91.8844 354.534 91.7053 354.495 91.5547 354.396C91.5578 354.121 91.6517 353.857 91.8199 353.649Z" fill="#E4CDE8"/>
<path opacity="0.3" fill-rule="evenodd" clip-rule="evenodd" d="M61.9374 412.453C62.2539 412.308 62.656 412.781 62.9298 412.299C63.1865 413.118 63.7853 412.681 64.1018 413.464C64.0062 413.506 63.9254 413.579 63.8708 413.673C64.2216 413.819 64.2216 414.064 64.521 414.237C64.29 414.529 64.5981 414.665 64.2473 415.002C63.3918 415.066 62.8956 414.602 62.0914 414.947C61.7714 414.631 61.5772 414.197 61.5486 413.733C61.52 413.269 61.659 412.812 61.9374 412.453Z" fill="#E4CDE8"/>
<path opacity="0.3" fill-rule="evenodd" clip-rule="evenodd" d="M37.2996 354.614C37.9155 354.332 38.694 355.251 39.2159 354.322C39.7206 355.897 40.8584 355.059 41.483 356.579C41.302 356.657 41.1492 356.794 41.0466 356.971C41.7225 357.253 41.7225 357.745 42.2956 358.063C41.8422 358.637 42.4411 358.901 41.7652 359.547C40.1826 359.674 39.1987 358.773 37.5904 359.437C36.9818 358.819 36.614 357.98 36.5601 357.086C36.5062 356.192 36.7702 355.31 37.2996 354.614Z" fill="#E4CDE8"/>
<path opacity="0.3" fill-rule="evenodd" clip-rule="evenodd" d="M82.3154 296.766C82.495 296.857 82.572 296.975 82.4266 297.166C82.3432 297.178 82.2584 297.159 82.187 297.111C82.1943 296.985 82.2393 296.864 82.3154 296.766Z" fill="#E4CDE8"/>
<path opacity="0.3" fill-rule="evenodd" clip-rule="evenodd" d="M24.5099 382.1C24.6382 382.145 24.5099 382.346 24.5099 382.491C25.2029 382.236 25.2542 382.61 26.2209 382.6C26.4433 383.238 26.8797 384.885 25.8788 385.267C25.759 385.749 26.0927 386.123 25.6649 386.787C24.6127 387.033 23.4834 387.697 22.3542 386.841C22.3542 385.531 21.7895 384.412 23.415 384.02C23.1327 383.019 23.817 381.854 24.5099 382.1Z" fill="#E4CDE8"/>
<path opacity="0.3" fill-rule="evenodd" clip-rule="evenodd" d="M33.2104 329.321C33.1324 329.142 33.107 328.942 33.1376 328.747C33.1681 328.552 33.2531 328.372 33.3814 328.229C33.6295 328.229 34.9812 328.229 35.2379 328.156C35.2476 328.187 35.2634 328.215 35.284 328.238C35.3047 328.262 35.3297 328.281 35.3576 328.293C35.1438 328.484 35.4946 328.657 35.5031 328.875C35.6657 328.875 35.8111 328.639 36.0078 328.875C36.0035 328.948 35.9782 329.018 35.9354 329.075C35.8925 329.132 35.8341 329.173 35.7683 329.194C35.7084 329.039 35.5116 329.103 35.5715 328.939C34.8252 329.268 34.0149 329.399 33.2104 329.321Z" fill="#E4CDE8"/>
<path opacity="0.3" fill-rule="evenodd" clip-rule="evenodd" d="M74.924 336.484C75.1036 336.575 75.1806 336.703 75.0352 336.885C74.9952 336.893 74.9541 336.892 74.9144 336.883C74.8747 336.873 74.8372 336.855 74.8042 336.83C74.8052 336.704 74.8476 336.581 74.924 336.484Z" fill="#E4CDE8"/>
<path opacity="0.3" fill-rule="evenodd" clip-rule="evenodd" d="M26.2206 391.384C26.3831 391.484 26.2206 391.758 26.1436 391.967C27.1959 391.849 27.1445 392.422 28.462 392.777C28.5732 393.805 28.6759 396.417 27.1531 396.581C26.8366 397.255 27.1531 397.937 26.3832 398.747C24.8347 398.747 23.0553 399.22 21.7378 397.555C22.1057 395.607 21.7378 393.742 24.099 393.787C24.0134 392.213 25.3223 390.738 26.2206 391.384Z" fill="#E4CDE8"/>
<path opacity="0.3" fill-rule="evenodd" clip-rule="evenodd" d="M36.5123 419.626C36.709 419.735 36.5636 419.981 36.5123 420.181C37.6244 420.09 37.6673 420.627 39.1473 420.982C39.4467 421.892 40.0027 424.386 38.3944 424.504C38.172 425.132 38.6682 425.769 37.941 426.506C36.23 426.443 34.442 426.879 32.7481 425.296C32.7994 423.475 32.0552 421.737 34.6302 421.837C34.2795 420.354 35.4429 419.016 36.5123 419.626Z" fill="#E4CDE8"/>
<path opacity="0.3" fill-rule="evenodd" clip-rule="evenodd" d="M30.1221 403.316C30.8236 404.626 29.9424 404.572 31.4994 406.611C29.5745 405.273 31.3197 408.122 29.5317 407.039C29.307 406.624 29.0525 406.228 28.7704 405.855C28.7191 406.501 28.0433 405.855 27.9149 406.292C26.8969 404.845 26.8284 405.382 25.605 403.516C24.6212 400.941 25.3399 400.585 23.6289 397.327C24.6298 397.154 27.0166 399.093 30.1221 403.316Z" fill="#E4CDE8"/>
<path opacity="0.3" fill-rule="evenodd" clip-rule="evenodd" d="M50.3629 363.569C50.7393 363.77 50.9018 364.033 50.6024 364.425C50.5157 364.444 50.4263 364.444 50.3396 364.425C50.2529 364.406 50.1706 364.369 50.0977 364.316C50.1007 364.041 50.1947 363.777 50.3629 363.569Z" fill="#E4CDE8"/>
<path opacity="0.3" fill-rule="evenodd" clip-rule="evenodd" d="M80.9981 296.101C81.3745 296.301 81.537 296.565 81.2376 296.956C81.1509 296.975 81.0615 296.975 80.9748 296.956C80.888 296.937 80.8058 296.9 80.7329 296.847C80.736 296.573 80.8298 296.308 80.9981 296.101Z" fill="#E4CDE8"/>
<path opacity="0.3" fill-rule="evenodd" clip-rule="evenodd" d="M27.5557 419.398C28.1716 419.106 28.9416 420.026 29.472 419.098C29.9767 420.672 31.1145 419.835 31.7305 421.355C31.5533 421.435 31.4039 421.572 31.3027 421.746C31.9786 422.037 31.9785 422.52 32.5517 422.838C32.0983 423.412 32.6972 423.685 32.0213 424.322C30.4301 424.449 29.4548 423.548 27.8465 424.212C27.2367 423.596 26.8679 422.759 26.814 421.866C26.7601 420.973 27.025 420.091 27.5557 419.398Z" fill="#E4CDE8"/>
<path opacity="0.3" fill-rule="evenodd" clip-rule="evenodd" d="M56.1631 377.823C56.5395 378.023 56.7021 378.287 56.4027 378.679C56.2276 378.707 56.0486 378.669 55.8979 378.569C55.901 378.295 55.9949 378.031 56.1631 377.823Z" fill="#E4CDE8"/>
<path opacity="0.3" fill-rule="evenodd" clip-rule="evenodd" d="M21.7895 434.67C21.9264 434.498 22.1231 434.67 22.2942 434.789C22.4825 433.615 22.9786 433.706 23.663 432.268C24.6126 432.186 26.9738 432.204 26.6915 433.897C27.2048 434.279 27.9148 433.897 28.4025 434.852C27.9405 436.554 27.8977 438.548 26.0413 439.922C24.4073 439.421 22.6193 439.767 23.3379 437.128C21.9093 437.155 20.9683 435.635 21.7895 434.67Z" fill="#E4CDE8"/>
<path opacity="0.3" fill-rule="evenodd" clip-rule="evenodd" d="M83.5902 356.516C83.7271 356.343 83.9238 356.516 84.0949 356.634C84.2831 355.46 84.7793 355.551 85.4637 354.113C86.4133 354.031 88.7745 354.05 88.5007 355.742C89.014 356.125 89.7155 355.743 90.2117 356.698C89.7497 358.4 89.7069 360.393 87.8505 361.768C86.2165 361.267 84.4285 361.613 85.1471 358.974C83.7099 359.001 82.7689 357.481 83.5902 356.516Z" fill="#E4CDE8"/>
<path opacity="0.3" fill-rule="evenodd" clip-rule="evenodd" d="M41.9962 369.231C42.3812 369.432 42.5437 369.696 42.2358 370.087C42.0607 370.116 41.8816 370.077 41.731 369.978C41.734 369.703 41.828 369.439 41.9962 369.231Z" fill="#E4CDE8"/>
<path opacity="0.3" fill-rule="evenodd" clip-rule="evenodd" d="M25.8189 413.837C25.9643 413.665 26.1525 413.837 26.3236 413.956C26.5118 412.782 27.0081 412.873 27.6925 411.435C28.6421 411.353 31.0032 411.371 30.7294 413.064C31.2427 413.446 31.9442 413.064 32.4404 414.02C31.9784 415.722 31.9356 417.715 30.0792 419.089C28.4452 418.588 26.6573 418.934 27.3759 416.295C25.9473 416.322 24.9976 414.802 25.8189 413.837Z" fill="#E4CDE8"/>
<path opacity="0.3" fill-rule="evenodd" clip-rule="evenodd" d="M86.5842 348.17C86.2932 347.485 86.1996 346.723 86.3153 345.981C86.4311 345.239 86.7509 344.55 87.2344 344.001C88.0036 344.013 88.771 343.921 89.5186 343.729C89.5548 343.845 89.6128 343.953 89.6893 344.045C89.7657 344.138 89.859 344.212 89.9634 344.265C89.1079 345.003 90.4938 345.631 90.5109 346.495C91.1611 346.495 91.6915 345.585 92.4615 346.45C92.446 346.729 92.3473 346.996 92.1796 347.212C92.012 347.428 91.7842 347.582 91.529 347.651C91.3151 347.06 90.5452 347.323 90.7847 346.677C90.264 347.289 89.6039 347.747 88.8682 348.009C88.1325 348.27 87.3459 348.326 86.5842 348.17Z" fill="#E4CDE8"/>
<path opacity="0.3" fill-rule="evenodd" clip-rule="evenodd" d="M38.1807 299.833C38.3175 299.66 38.5057 299.833 38.6854 299.951C38.8736 298.786 39.3697 298.868 40.0456 297.43C41.0037 297.357 43.3564 297.375 43.0826 299.059C43.5959 299.441 44.2974 299.059 44.7936 299.969C44.3231 301.68 44.2888 303.673 42.4324 305.038C40.7899 304.547 39.0104 304.884 39.729 302.253C38.3004 302.317 37.3594 300.797 38.1807 299.833Z" fill="#E4CDE8"/>
<path opacity="0.3" fill-rule="evenodd" clip-rule="evenodd" d="M45.1102 432.021C44.1178 431.648 43.1254 431.257 42.9629 429.291C43.4927 428.712 43.9631 428.074 44.3659 427.389C44.4694 427.426 44.5788 427.44 44.6877 427.431C44.7965 427.421 44.9025 427.389 44.999 427.334C44.8963 428.354 46.2223 427.644 46.7612 428.08C47.1975 427.571 47.0179 426.697 48.0787 426.561C48.4637 426.806 48.4124 427.598 48.1814 427.908C47.6681 427.762 47.3258 428.49 47.0692 427.972C47.067 428.763 46.8883 429.543 46.5478 430.247C46.2072 430.951 45.7146 431.559 45.1102 432.021Z" fill="#E4CDE8"/>
<path opacity="0.3" fill-rule="evenodd" clip-rule="evenodd" d="M32.5686 344.603C32.8509 344.466 33.2188 344.894 33.4241 344.457C33.6637 345.194 34.1941 344.803 34.4849 345.513C34.4 345.549 34.328 345.612 34.2796 345.695C34.5961 345.831 34.5962 346.059 34.8614 346.204C34.6561 346.477 34.9298 346.605 34.6133 346.896C33.8775 346.96 33.3984 346.541 32.6713 346.851C32.3912 346.559 32.225 346.165 32.2059 345.748C32.1869 345.331 32.3164 344.922 32.5686 344.603Z" fill="#E4CDE8"/>
<path opacity="0.3" fill-rule="evenodd" clip-rule="evenodd" d="M33.1591 311.009C33.219 310.927 33.313 311.009 33.39 311.064C33.4841 310.518 33.7151 310.554 34.0317 309.89C34.4765 309.89 35.5801 309.89 35.4432 310.645C35.6913 310.827 36.0165 310.645 36.2475 311.091C36.0336 311.892 36.0164 312.82 35.1438 313.457C34.3825 313.23 33.5526 313.385 33.8863 312.156C33.2104 312.165 32.7913 311.482 33.1591 311.009Z" fill="#E4CDE8"/>
<path opacity="0.3" fill-rule="evenodd" clip-rule="evenodd" d="M91.5548 361.24C91.6232 361.158 91.7088 361.24 91.7944 361.294C91.8799 360.748 92.1109 360.794 92.4274 360.12C92.8723 360.12 93.9759 360.12 93.8475 360.876C94.0871 361.058 94.4122 360.875 94.6518 361.321C94.4293 362.122 94.4122 363.051 93.5396 363.688C92.7782 363.46 91.9484 363.624 92.282 362.387C91.6148 362.396 91.1698 361.695 91.5548 361.24Z" fill="#E4CDE8"/>
<path opacity="0.3" fill-rule="evenodd" clip-rule="evenodd" d="M48.5149 342.226C48.2991 341.722 48.2294 341.162 48.3147 340.615C48.4001 340.069 48.6365 339.562 48.9939 339.159C49.57 339.171 50.1451 339.104 50.7049 338.959C50.7313 339.045 50.7737 339.125 50.8295 339.194C50.8853 339.263 50.9535 339.319 51.03 339.359C50.4312 339.896 51.4236 340.361 51.4322 340.998C51.9113 340.998 52.2876 340.334 52.8693 340.998C52.8601 341.207 52.789 341.408 52.666 341.571C52.5431 341.735 52.3748 341.853 52.185 341.908C52.031 341.462 51.4578 341.662 51.6375 341.189C51.2445 341.633 50.7508 341.961 50.2039 342.143C49.657 342.324 49.0753 342.353 48.5149 342.226Z" fill="#E4CDE8"/>
<path opacity="0.3" fill-rule="evenodd" clip-rule="evenodd" d="M48.1131 437.747C48.3954 437.61 48.7632 438.038 48.9686 437.61C49.2081 438.338 49.7385 437.947 50.0294 438.657C49.9458 438.695 49.8745 438.759 49.824 438.839C50.1406 438.976 50.1405 439.203 50.4057 439.349C50.2004 439.622 50.4742 439.749 50.1577 440.04C49.422 440.104 48.9429 439.686 48.2157 439.995C47.9356 439.703 47.7694 439.309 47.7504 438.892C47.7313 438.475 47.8609 438.066 48.1131 437.747Z" fill="#E4CDE8"/>
<path opacity="0.3" fill-rule="evenodd" clip-rule="evenodd" d="M83.1881 303.683C83.3677 303.774 83.4447 303.892 83.2993 304.074C83.2219 304.104 83.1371 304.104 83.0597 304.074C83.0552 304.003 83.0642 303.932 83.0863 303.864C83.1083 303.797 83.143 303.735 83.1881 303.683Z" fill="#E4CDE8"/>
<path opacity="0.3" fill-rule="evenodd" clip-rule="evenodd" d="M85.4039 319.673C85.4724 319.591 85.5579 319.673 85.6349 319.728C85.729 319.182 85.96 319.227 86.2766 318.554C86.7214 318.554 87.825 318.554 87.6967 319.318C87.9362 319.491 88.2613 319.318 88.4922 319.764C88.2784 320.556 88.2612 321.494 87.3886 322.131C86.6272 321.894 85.7974 322.058 86.1311 320.829C85.4638 320.847 85.019 320.137 85.4039 319.673Z" fill="#E4CDE8"/>
<path opacity="0.3" fill-rule="evenodd" clip-rule="evenodd" d="M26.674 372.599C26.3147 373.909 25.9383 375.211 24.0562 375.902C23.2521 375.42 23.1151 374.993 22.1826 374.71C22.247 374.458 22.2227 374.19 22.1142 373.955C23.1152 373.818 22.4051 372.398 22.8328 371.616C22.3281 371.224 21.4811 371.68 21.3271 370.433C21.4602 370.2 21.6653 370.023 21.9073 369.934C22.1492 369.844 22.4129 369.847 22.6532 369.941C22.5078 370.615 23.2349 370.851 22.7216 371.288C23.4287 371.072 24.1799 371.08 24.8824 371.313C25.5848 371.546 26.2077 371.993 26.674 372.599Z" fill="#E4CDE8"/>
<path opacity="0.05" d="M99.203 270.525C83.2651 270.653 85.6092 277.151 69.6799 276.896C61.7837 276.778 47.2745 276.341 39.3783 276.341C31.4821 276.341 14.8257 276.624 14.8257 276.624L15.9122 282.284C15.9122 282.284 31.4222 282.448 39.1901 282.448C47.0949 282.448 56.1546 281.966 64.0508 282.084C79.9801 282.321 84.3174 282.039 100.255 281.911C100.52 280.619 102.856 270.525 99.203 270.525Z" fill="#66636C"/>
<path opacity="0.1" d="M99.7248 275.805C93.377 275.805 85.0702 279.445 78.731 279.518C73.2387 279.564 25.8188 278.408 14.8257 280.529C15.2278 283.023 24.1591 282.804 41.7309 282.749C47.1547 282.749 64.641 281.903 78.5171 282.476C84.3858 282.713 100.204 282.476 100.204 282.476C99.91 280.266 99.7499 278.037 99.7248 275.805Z" fill="#66636C"/>
<path opacity="0.05" d="M90.3229 434.833C86.6187 437.709 76.404 439.785 70.715 440.376C45.0502 443.043 18.0252 434.506 18.3332 441.032C18.6155 447.038 29.0868 446.984 47.1291 447.876C52.0311 448.112 69.8253 447.985 74.7016 447.876C78.6455 447.776 92.282 446.32 96.3969 444.044C100.82 441.596 98.6555 416.076 98.5956 414.628C98.5699 414.055 93.531 432.34 90.3229 434.833Z" fill="#66636C"/>
<path opacity="0.1" d="M91.5464 437.773C87.5599 441.305 76.755 443.708 71.0146 443.963C41.6028 445.264 20.0357 440.24 20.3351 441.942C21.0708 445.246 30.6011 446.747 46.5047 447.876C56.2009 448.499 65.9287 448.28 75.5915 447.221C79.5182 446.748 90.7166 445.055 95.7982 444.318C97.7744 444.035 97.7146 428.135 97.6461 426.688C97.6547 426.16 95.2422 434.506 91.5464 437.773Z" fill="#66636C"/>
<path opacity="0.05" d="M18.9065 199.534C19.3 196.049 24.6383 194.838 24.6383 194.838L23.2097 268.778L17.4692 268.187C17.4692 268.187 18.051 207.134 18.9065 199.534Z" fill="#66636C"/>
<path opacity="0.05" d="M17.4775 284.242L23.4745 282.485L25.3053 445.547L18.8378 444.446L17.4775 284.242Z" fill="#66636C"/>
<path d="M36.9282 370.129C37.0272 370.307 37.1725 370.455 37.3485 370.557C37.5245 370.659 37.7247 370.712 37.9282 370.709C38.1244 370.723 38.3207 370.684 38.4966 370.596C38.6724 370.508 38.8214 370.374 38.9282 370.209C39.2249 369.613 39.379 368.956 39.3783 368.289L40.7182 368.459C40.7214 369.435 40.417 370.387 39.8482 371.18C39.5739 371.441 39.2499 371.644 38.8954 371.778C38.5408 371.912 38.1631 371.973 37.7844 371.958C37.4057 371.943 37.0339 371.853 36.691 371.691C36.3481 371.53 36.0412 371.302 35.7883 371.019C35.1742 369.983 34.9078 368.778 35.0283 367.579V362.379C34.9106 361.181 35.1768 359.976 35.7883 358.939C36.034 358.635 36.3472 358.393 36.7031 358.232C37.059 358.07 37.4477 357.994 37.8382 358.009C38.1996 357.979 38.5633 358.023 38.9072 358.139C39.2511 358.254 39.5678 358.438 39.8382 358.68C40.3805 359.358 40.6734 360.201 40.6682 361.069L39.2783 361.41C39.2637 360.821 39.1166 360.243 38.8482 359.72C38.7459 359.566 38.6055 359.442 38.4406 359.36C38.2758 359.277 38.0923 359.239 37.9083 359.249C37.7021 359.246 37.4991 359.3 37.3222 359.406C37.1454 359.512 37.002 359.666 36.9083 359.849C36.6124 360.546 36.4888 361.305 36.5482 362.059V367.979C36.4944 368.716 36.625 369.455 36.9282 370.129Z" fill="#66636C"/>
<path d="M42.4185 371.67V358.299H44.7886C45.1985 358.273 45.6091 358.34 45.9899 358.494C46.3707 358.648 46.712 358.886 46.9885 359.19C47.6091 360.146 47.8844 361.285 47.7686 362.42V362.52C47.7686 364.446 47.2985 365.676 46.3585 366.21L47.9485 371.67H46.3785L44.8885 366.549H43.9485V371.67H42.4185ZM46.2686 362.67V362.1C46.3261 361.393 46.1877 360.683 45.8685 360.049C45.753 359.869 45.5928 359.723 45.4036 359.623C45.2143 359.523 45.0025 359.473 44.7886 359.48H43.9485V365.31H44.7886C45.7686 365.35 46.2285 364.47 46.2285 362.71L46.2686 362.67Z" fill="#66636C"/>
<path d="M51.2788 365.609V370.449H54.6088V371.669H49.7588V358.299H54.5487V359.519H51.2788V364.389H54.2788V365.609H51.2788Z" fill="#66636C"/>
<path d="M61.0585 371.669L60.4685 368.189H57.7686L57.1985 371.669H55.6685L58.1185 358.299H60.1185L62.5685 371.669H61.0585ZM59.1285 360.249L57.9785 366.999H60.2285L59.1285 360.249Z" fill="#66636C"/>
<path d="M65.5385 371.669H64.0483V358.299H66.3784L68.0084 367.559L69.6484 358.299H71.9784V371.669H70.4884V359.589L68.8684 368.799H67.1683L65.5385 359.589V371.669Z" fill="#66636C"/>
<path d="M73.2285 371.67V369.91H74.7385V371.67H73.2285Z" fill="#66636C"/>
<path d="M75.8984 371.669V358.299H77.4283V370.449H80.4283V371.669H75.8984Z" fill="#66636C"/>
<path d="M83.9885 371.669H82.4985V367.25L79.9785 358.35H81.4685L83.2485 365.24L84.9985 358.35H86.4885L83.9885 367.25V371.669Z" fill="#66636C"/>
<path d="M59.3656 325.002C58.4718 325.111 57.6353 325.5 56.9755 326.112C55.7934 327.069 54.7293 328.164 53.8056 329.373C51.6856 332.033 49.6055 335.312 49.0755 338.742C48.852 340.551 49.1269 342.387 49.8707 344.05C50.6144 345.714 51.7988 347.142 53.2956 348.182C54.7474 349.168 56.4224 349.777 58.1687 349.951C59.915 350.126 61.6773 349.861 63.2956 349.182C65.0619 348.418 66.5049 347.06 67.3744 345.343C68.2438 343.626 68.4848 341.658 68.0556 339.782C67.4156 336.782 65.5656 334.642 63.5356 332.502C61.5056 330.362 59.7156 328.152 59.5356 325.082C59.5356 325.012 59.4056 324.992 59.3656 325.002" stroke="#66636C" stroke-width="2" stroke-linecap="round" stroke-linejoin="round"/>
</g>
<defs>
<clipPath id="clip0_2385_18206">
<rect width="120" height="267" fill="white" transform="translate(0 193)"/>
</clipPath>
</defs>
</svg>
