<svg width="174" height="460" viewBox="0 0 174 460" fill="none" xmlns="http://www.w3.org/2000/svg">
<rect width="174" height="460" fill="white"/>
<g clip-path="url(#clip0_2385_17699)">
<path opacity="0.05" d="M84.1545 215.637C84.6179 214.787 84.6528 213.675 84.137 212.826L83.7087 137.894C83.7087 137.894 18.1844 97.3816 6.04991 106.295C0.384837 110.454 2.04589 186.375 2.81522 267.523C3.68946 360.168 3.11247 447.664 4.79975 450.912C9.17969 459.327 85.5009 436.649 85.5009 436.649L84.1545 215.637Z" fill="#66636C"/>
<path opacity="0.5" d="M123.932 451.078H97.4163C90.7283 451.078 85.2993 445.641 85.2993 438.943V128.814C85.2993 122.116 90.7283 116.679 97.4163 116.679H123.932C130.62 116.679 136.049 122.116 136.049 128.814V438.952C136.049 445.65 130.62 451.078 123.932 451.078Z" fill="white"/>
<path opacity="0.5" d="M124.151 451.962H97.635C90.9471 451.962 85.5181 446.525 85.5181 439.827L85.7279 127.229C85.7279 120.531 91.1569 115.094 97.8448 115.094H124.361C131.048 115.094 136.478 120.531 136.478 127.229L136.268 439.827C136.259 446.525 130.839 451.962 124.151 451.962Z" fill="#E8CCC1"/>
<path opacity="0.1" d="M135.988 318.446C121.991 319.348 106.884 317.947 93.998 318.902C95.3531 320.259 97.5212 323.796 102.574 323.42C114.735 322.518 123.95 324.584 135.988 326.589C136.434 325.679 136.626 318.403 135.988 318.446Z" fill="#66636C"/>
<path opacity="0.05" d="M116.58 116.249C117.515 117.598 84.0668 109.481 85.1334 126.563C85.3257 129.593 85.1334 135.985 86.0776 143.051C93.6048 130.337 118.494 131.116 121.318 151.841C124.439 174.746 121.851 208.001 121.519 248.601C125.584 249.056 136.224 248.391 136.679 247.944C136.259 220.171 140.289 157.174 136.434 128.061C134.834 115.978 130.419 114.927 116.58 116.249Z" fill="#66636C"/>
<path opacity="0.1" d="M127.027 271.524C125.619 265.263 119.447 260.982 115.128 262.838C107.26 262.234 103.973 273.214 107.059 278.388C110.04 283.396 114.525 285.051 120.391 283.659C125.523 282.451 128.233 276.856 127.027 271.524Z" fill="#66636C"/>
<path opacity="0.1" d="M124.465 269.073C122.691 266.113 120.199 262.243 116.755 262.804C109.105 262.523 106.342 268.381 106.552 271.279C106.063 273.407 107.872 278.634 109.804 279.799C116.344 283.774 119.701 282.031 121.895 280.298C124.089 278.546 126.38 272.269 124.465 269.073Z" fill="#66636C"/>
<path opacity="0.05" d="M136.145 319.584C125.069 319.584 103.475 318.446 92.1887 319.803C94.4442 323.419 98.9641 327.491 105.731 328.848C107.776 329.26 119.491 335.73 121.825 349.337C122.944 355.868 123.259 381.286 123.172 383.589C122.883 391.487 122.726 406.678 103.038 416.791C87.7039 424.671 83.8135 398.561 85.4133 415.784C83.3938 445.168 88.6917 452.12 93.7973 452.584C101.552 453.294 110.548 453.495 118.224 451.087C124.116 451.131 129.003 453.302 133.54 448.749C137.247 445.028 135.883 439.74 136.137 434.819C136.556 426.755 136.845 334.189 136.145 319.584Z" fill="#66636C"/>
<path opacity="0.05" d="M136.207 319.007C136.207 319.007 132.762 318.771 126.651 318.771C130.236 323.315 131.582 348.741 131.748 354.546C132.08 366.428 135 401.407 122.63 415.346C115.435 423.445 102.548 424.593 84.8712 421.046C83.9707 455.562 89.3648 451.359 106.107 452.523C114.263 453.092 126.887 454.196 134.537 448.452C139.249 444.906 136.207 319.007 136.207 319.007Z" fill="#66636C"/>
<path opacity="0.05" d="M136.355 184.894C135.42 163.163 137.291 145.564 136.355 123.832C136.163 119.34 130.096 116.241 126.8 116.897C129.44 136.37 129.186 160.772 130.096 181.918C130.979 202.625 131.564 228.472 127.132 248.917C128.776 248.584 131.258 249.311 136.355 247.927C135.542 229.19 137.247 205.742 136.355 184.894Z" fill="#66636C"/>
<path opacity="0.05" d="M135.813 421.939C130.271 432.052 112.218 435.038 106.745 435.143C90.8598 435.44 83.6736 424.942 84.9499 441.342C85.0286 442.568 86.646 448.005 88.0622 448.539C93.3689 453.863 102.592 451.989 109.848 452.111C117.402 452.234 130.463 453.906 135.787 447.156C137.85 444.529 137.623 418.629 135.813 421.939Z" fill="#66636C"/>
<path d="M172.907 268.555C172.837 267.96 172.688 267.408 172.47 266.918C172.47 265.85 172.452 264.782 172.417 263.705C172.225 257.646 175.04 252.182 168.553 249.862C162.582 247.734 151.873 249.739 145.639 249.477C137.859 249.144 130.017 249.083 122.245 248.584C118.652 248.356 113.537 247.62 109.962 248.067C105.897 248.584 103.151 249.617 99.0337 249.048C98.4742 248.969 94.9248 248.268 94.3565 248.33C91.7513 248.233 92.2409 250.466 92.407 253.662C92.3982 253.811 92.3895 253.96 92.3982 254.117C92.8266 265.246 91.8824 278.195 92.3108 289.324C92.0223 297.484 93.0102 306.853 91.795 314.943C91.1918 319.006 93.2288 317.903 97.4251 318.787C103.09 319.978 111.71 317.929 118.818 318.953C126.345 320.039 133.89 320.179 141.487 320.171C148.848 320.162 156.296 320.477 163.649 320.144C170.896 319.812 174.612 314.401 173.047 302.142C172.916 292.143 174.105 278.686 172.907 268.555Z" fill="white"/>
<path opacity="0.05" d="M172.907 268.555C172.837 267.96 172.688 267.408 172.47 266.918C172.47 265.85 172.452 264.782 172.417 263.705C172.225 257.646 175.04 252.182 168.553 249.862C162.582 247.734 151.873 249.739 145.639 249.477C137.859 249.144 130.017 249.083 122.245 248.584C118.652 248.356 113.537 247.62 109.962 248.067C105.897 248.584 103.151 249.617 99.0337 249.048C98.4742 248.969 94.9248 248.268 94.3565 248.33C91.7513 248.233 92.2409 250.466 92.407 253.662C92.3982 253.811 92.3895 253.96 92.3982 254.117C92.8266 265.246 91.8824 278.195 92.3108 289.324C92.0223 297.484 93.0102 306.853 91.795 314.943C91.1918 319.006 93.2288 317.903 97.4251 318.787C103.09 319.978 111.71 317.929 118.818 318.953C126.345 320.039 133.89 320.179 141.487 320.171C148.848 320.162 156.296 320.477 163.649 320.144C170.896 319.812 173.073 314.392 173.213 307.711C173.248 305.855 173.178 303.999 173.047 302.142C172.916 292.143 174.105 278.686 172.907 268.555Z" fill="#66636C"/>
<path opacity="0.1" d="M133.409 449.327C133.409 449.327 121.449 450.142 109.848 449.923C99.663 449.73 89.6705 448.461 89.5481 448.925C89.3208 449.756 89.8278 450.93 90.772 451.078C90.7982 451.078 90.8245 451.087 90.8507 451.087C91.0343 451.744 91.5676 452.261 92.4593 452.217C94.0679 452.129 95.6765 452.05 97.2851 451.963C108.475 451.508 117.777 452.296 129.064 451.7C130.952 451.613 133.409 449.327 133.409 449.327Z" fill="#66636C"/>
<path opacity="0.05" d="M129.134 449.572C129.134 446.902 93.2638 450.746 92.3633 427.639C91.6552 409.497 93.1676 380.393 92.4508 298.326C92.136 262.024 91.8913 224.777 91.3842 188.52C91.087 167.734 87.6424 125.855 104.218 117.283C109.166 114.726 87.0042 116.495 86.5671 122.107C84.6438 147.175 85.3869 441.823 85.5006 444.021C86.0338 454.738 101.543 450.982 107.96 451.516C114.377 452.05 122.061 452.926 129.134 449.572ZM83.4811 387.494C83.5685 387.135 83.5947 386.759 83.5423 386.4C83.6122 386.443 83.6909 386.478 83.7608 386.522C84.1018 386.75 84.4427 386.881 84.7749 386.934C84.7837 387.897 84.7837 388.869 84.7924 389.814C84.4427 389.578 83.9969 389.429 83.4636 389.42C83.7171 388.816 83.7171 388.124 83.4811 387.494ZM68.1469 416.441C63.7232 416.274 59.2908 416.239 54.8672 416.309C62.2895 415.171 69.7642 414.365 77.2827 413.91C79.7306 414.077 82.1785 414.243 84.6263 414.427C84.7487 414.436 84.8624 414.427 84.976 414.418C84.9848 415.215 84.9935 416.012 85.0022 416.782C79.3721 416.441 73.7595 416.336 68.1469 416.441Z" fill="#66636C"/>
<path opacity="0.1" d="M120.007 292.494C118.512 291.294 114.77 290.314 111.78 291.899C108.913 293.413 105.931 295.874 104.839 299.744C103.519 304.428 107.051 309.673 111.378 312.746C114.447 314.926 121.143 314.926 125.156 309.27C129.221 303.535 124.212 295.874 120.007 292.494Z" fill="#66636C"/>
<path opacity="0.1" d="M125.462 300.041C123.679 293.886 120.645 290.576 117.165 291.294C115.469 291.644 110.985 291.399 108.362 295.243C105.792 299.008 106.098 303.815 108.205 307.291C110.696 311.66 113.109 312.518 116.335 311.861C123.574 310.364 126.607 304.007 125.462 300.041Z" fill="#66636C"/>
<path opacity="0.1" d="M120.007 263.643C118.512 262.444 114.77 261.463 111.78 263.048C108.913 264.563 105.931 267.023 104.839 270.893C103.519 275.578 107.051 280.822 111.378 283.895C114.447 286.076 121.143 286.076 125.156 280.419C129.221 274.684 124.212 267.023 120.007 263.643Z" fill="#66636C"/>
<path opacity="0.1" d="M125.462 271.191C123.679 265.036 120.645 261.727 117.165 262.444C115.469 262.795 110.985 262.55 108.362 266.393C105.792 270.158 106.098 274.965 108.205 278.441C110.696 282.81 113.109 283.668 116.335 283.012C123.574 281.515 126.607 275.158 125.462 271.191Z" fill="#66636C"/>
<path opacity="0.2" d="M120.287 264.02C116.265 261.901 111.011 262.584 108.537 265.395C106.159 268.1 106.054 274.729 108.747 277.478C109.376 278.126 114.971 281.094 117.533 280.026C119.063 279.387 122.472 276.383 123.775 270.587C124.221 268.617 120.855 264.327 120.287 264.02Z" fill="#66636C"/>
<path d="M122.551 267.601C122.665 265.614 119.972 263.425 117.944 262.987C111.658 261.621 105.722 265.894 105.748 272.321C105.783 278.669 113.258 282.591 118.564 279.29C122.603 276.786 125.585 271.218 122.551 267.601Z" fill="white"/>
<path opacity="0.2" d="M116.379 263.066C114.333 262.742 111.029 262.926 109.166 266.07C108.38 267.4 115.741 264.327 118.801 268.574C121.065 271.717 118.984 277.592 116.3 277.864C110.023 278.503 110.207 279.124 110.95 279.291C115.513 280.359 118.224 279.781 118.87 279.361C122.131 277.259 123.967 273.293 123.049 269.502C122.123 265.641 118.669 263.425 116.379 263.066Z" fill="#66636C"/>
<path opacity="0.2" d="M106.447 271.165C107.313 283.616 113.1 267.418 119.543 271.988C120.89 272.943 122.463 275.64 123.25 273.783C123.259 273.783 123.696 271.209 123.696 271.2C123.302 268.504 122.629 264.52 118.485 263.154C116.081 262.357 112.89 262.611 110.792 263.802C108.764 264.958 106.867 266.691 106.587 269.108C106.438 269.152 106.421 270.771 106.447 271.165Z" fill="#66636C"/>
<path opacity="0.2" d="M120.042 278.783C125.654 273.617 123.574 271.2 122.9 268.11C121.274 264.178 116.999 263.163 115.924 263.119C113.494 263.04 110.119 263.994 108.598 265.956C108.003 266.726 106.106 270.395 106.91 269.756C109.245 267.908 112.943 266.805 115.163 266.787C117.314 266.77 120.391 271.726 118.809 275.753C117.235 279.737 119.22 279.545 120.042 278.783Z" fill="#66636C"/>
<path opacity="0.2" d="M119.648 275.131C116.151 278.1 114.63 278.529 108.082 275.079C108.563 276.112 109.525 278.1 111.675 279.045C113.406 279.807 118.267 280.253 121.231 277.706C124.194 275.149 125.681 265.518 117.952 264.029C117.358 263.915 119.639 266.489 120.496 269.545C121.213 272.128 120.356 274.536 119.648 275.131Z" fill="#66636C"/>
<path opacity="0.2" d="M119.71 273.555C116.956 277.372 112.873 276.733 111.501 276.217C109.402 275.42 107.208 272.066 107.164 273.564C107.068 276.795 110.924 278.983 111.186 279.08C116.187 280.761 116.003 280.043 117.323 279.824C120.051 279.369 126.389 273.502 121.729 265.972C121.546 265.675 120.173 263.556 119.937 265.132C119.657 266.909 120.488 272.478 119.71 273.555Z" fill="#66636C"/>
<path opacity="0.2" d="M120.287 292.039C116.265 289.92 111.011 290.603 108.537 293.414C106.159 296.119 106.054 302.747 108.747 305.496C109.376 306.144 114.971 309.113 117.533 308.044C119.063 307.405 122.472 304.402 123.775 298.606C124.221 296.636 120.855 292.345 120.287 292.039Z" fill="#66636C"/>
<path d="M122.551 295.62C122.665 293.632 119.972 291.443 117.944 291.006C111.658 289.64 105.722 293.913 105.748 300.339C105.783 306.687 113.258 310.61 118.564 307.309C122.603 304.805 125.585 299.236 122.551 295.62Z" fill="white"/>
<path opacity="0.2" d="M116.379 291.084C114.333 290.76 111.028 290.944 109.166 294.087C108.379 295.418 114.508 292.861 117.559 297.108C119.823 300.251 116.877 302.607 115.583 303.141C113.983 303.806 107.164 303.894 107.628 304.498C111.413 309.348 118.215 307.807 118.862 307.396C122.122 305.295 123.958 301.328 123.04 297.537C122.122 293.658 118.669 291.443 116.379 291.084Z" fill="#66636C"/>
<path opacity="0.2" d="M107.042 304.034C107.505 304.988 108.144 304.121 109.411 302.86C110.102 302.177 110.967 301.381 112.095 300.68C114.351 299.288 117.647 298.334 122.551 299.595C122.787 299.656 123.049 299.367 123.189 299.227C123.198 299.227 123.539 298.614 123.548 298.614C124.09 298.579 122.63 292.537 118.486 291.171C116.082 290.375 112.891 290.629 110.792 291.819C108.764 292.975 106.867 294.709 106.587 297.125C105.678 300.4 106.867 303.675 107.042 304.034Z" fill="#66636C"/>
<path opacity="0.2" d="M123.661 297.809C123.539 297.634 122.944 295.305 121.877 294.088C120.234 292.232 117.008 291.172 115.924 291.137C113.494 291.059 110.119 292.013 108.598 293.974C108.003 294.745 106.106 298.413 106.91 297.774C109.245 295.927 112.086 294.902 115.163 294.806C117.681 294.727 124.212 299.622 117.41 305.435C115.871 306.749 111.221 309.165 116.737 308.334C118.818 308.018 122.105 305.856 123.014 303.544C123.836 301.452 123.967 298.247 123.661 297.809Z" fill="#66636C"/>
<path opacity="0.2" d="M119.762 302.948C116.265 305.917 114.63 306.538 108.082 303.089C108.563 304.122 109.525 306.109 111.675 307.055C113.406 307.817 118.267 308.263 121.231 305.715C124.194 303.159 125.681 293.527 117.952 292.039C117.358 291.925 119.639 294.499 120.496 297.555C121.213 300.147 120.47 302.353 119.762 302.948Z" fill="#66636C"/>
<path opacity="0.2" d="M119.264 301.145C117.332 305.435 112.873 304.761 111.492 304.236C109.394 303.439 107.199 300.085 107.156 301.583C107.059 304.813 110.915 307.002 111.177 307.099C116.178 308.78 117.218 308.141 118.407 307.519C121.79 305.759 127.639 300.427 120.934 293.518C120.418 292.976 120.121 299.254 119.264 301.145Z" fill="#66636C"/>
<path opacity="0.1" d="M173.248 290.112C172.828 278.003 172.75 265.876 172.968 253.758C173.047 249.127 167.364 249.109 164.095 248.128C163.955 247.997 137.763 249.661 137.579 249.678C139.004 260.859 141.102 263.004 143.559 269.519C146.016 276.033 144.984 290.804 144.127 298.737C143.096 308.307 140.307 310.434 140.997 318.218C141.19 320.407 164.707 319.969 169.48 318.061C172.977 316.66 173.991 311.319 173.982 306.836C173.974 301.276 173.44 295.672 173.248 290.112Z" fill="#66636C"/>
<path opacity="0.1" d="M172.846 253.04C172.05 246.403 156.043 248.592 156.2 249.319C158.159 258.495 159.505 279.351 159.435 289C159.374 297.668 158.5 309.988 157.127 318.586C156.97 319.558 170.477 321.134 172.47 315.145C174.498 309.051 173.458 296.6 173.563 286.146C173.676 274.991 174.166 264.02 172.846 253.04Z" fill="#66636C"/>
<path opacity="0.1" d="M172.828 305.593C174.113 288.178 174.096 272.917 172.986 255.44C172.776 252.095 163.518 245.975 163.902 249.32C166.429 271.305 166.927 300.051 164.418 318.219C164.252 319.418 171.43 317.343 172.461 314.41C173.545 311.328 173.362 311.232 173.641 307.826C173.737 306.696 173.362 305.961 172.828 305.593Z" fill="#66636C"/>
<path opacity="0.1" d="M172.715 311.047C172.889 290.112 174.043 279.027 173.073 258.092C173.012 256.832 171.998 249.687 168.247 249.144C166.228 248.855 168.553 253.785 168.632 255.825C168.982 265.044 171.464 298.877 169.672 317.483C169.646 317.719 171.998 317.308 172.61 315.907C172.618 315.907 172.715 311.047 172.715 311.047Z" fill="#66636C"/>
<path opacity="0.1" d="M102.111 249.048C102.207 248.558 96.7872 249.048 94.5666 248.83C94.2956 270.544 94.689 296.697 95.0125 318.411C96.1227 318.411 100.337 319.077 101.674 318.63C98.999 299.517 97.8887 270.395 102.111 249.048Z" fill="#66636C"/>
<path opacity="0.1" d="M170.975 305.987C168.597 312.239 162.696 315.706 157.153 315.303C150.937 314.848 142.527 314.944 136.285 315.303C132.578 315.513 104.096 319.523 99.6633 312.633C97.8536 309.822 95.3532 303.089 95.2483 306.469C95.1347 309.805 95.4931 318.385 95.4931 318.385C95.4931 318.385 105.477 318.858 109.603 318.762C118.687 318.552 126.118 319.147 135.184 318.63C139.703 318.368 146.426 318.534 150.946 318.849C155.038 319.138 162.163 319.348 166.263 318.849C172.33 318.105 172.479 313.517 172.697 308.841C172.855 305.471 172.164 302.853 170.975 305.987Z" fill="#66636C"/>
<path opacity="0.1" d="M170.468 251.78C166.831 248.418 162.171 248.768 157.512 248.768L137.789 248.786C124.352 248.794 109.936 248.873 96.4984 248.891C95.0559 248.891 94.8898 250.029 94.8549 251.456C94.8199 253.085 94.7937 254.713 94.7587 256.333C94.6888 259.713 93.5435 264.59 97.9847 260.308C104.926 253.61 112.602 252.612 134.169 252.612C145.071 252.612 169.454 254.118 171.587 256.088C174.052 258.382 172.951 254.083 170.468 251.78Z" fill="#66636C"/>
<path opacity="0.05" d="M85.7109 380.656C84.6531 361.244 84.8367 341.456 84.4083 322.019C83.5516 283.625 83.8401 245.213 84.5482 206.819C84.9503 184.711 85.5011 162.603 86.0431 140.494C86.2267 133.166 25.9129 121.582 18.4294 119.813C7.16046 113.588 45.9505 136.554 54.3782 179.064C63.8899 227.028 68.4097 297.004 69.3539 330.897C68.9168 358.688 72.5798 366.41 63.5926 388.37C52.009 416.703 2.61441 422.395 4.43283 438.12C3.34003 450.921 7.12549 454.721 14.2943 453.477C26.3763 451.394 36.6311 450.247 50.4441 445.431C53.705 444.293 85.8333 438.96 85.7022 435.896C84.9154 416.152 86.7425 399.595 85.7109 380.656Z" fill="#66636C"/>
<path opacity="0.05" d="M85.1595 360.115C85.4917 336.168 85.8239 312.23 86.1561 288.283C86.9516 287.512 87.4325 286.383 87.3276 284.894C83.9005 235.669 88.499 187.679 85.2294 138.445C84.8185 132.29 29.6452 120.768 16.418 114.14C3.41801 106.005 7.11605 116.81 61.3014 150.441C75.6652 159.354 74.2052 192.941 75.0357 208.868C74.7385 209.463 80.3686 317.816 79.9927 344.617C79.8091 357.593 79.7217 401.206 76.0586 413.656C70.0438 434.092 11.1375 446.867 12.4576 453.486C19.504 449.958 76.3908 441.193 85.2206 438.461C84.7573 425.757 85.9637 412.842 85.1769 399.883C84.3901 386.653 84.9759 373.345 85.1595 360.115Z" fill="#66636C"/>
<path opacity="0.05" d="M84.8364 142.85C71.0059 158.163 20.7808 155.607 2.2207 156.342C2.94632 157.804 3.04249 158.54 4.13529 161.097C20.3612 161.447 71.7403 158.531 84.8451 170.921C83.3852 165.089 85.9292 150.87 84.8364 142.85Z" fill="#66636C"/>
<path opacity="0.05" d="M81.1644 161.28C72.0111 159.626 23.7268 158.96 14.4336 159.1C2.03687 159.284 44.5249 164.397 50.6709 165.089C62.7004 166.455 84.6089 174.878 84.2417 188.73C83.5161 168.679 87.2578 162.384 81.1644 161.28Z" fill="#66636C"/>
<path opacity="0.05" d="M85.5097 208.509C71.6792 223.823 21.4541 221.266 2.88525 221.993C3.61087 223.455 3.61087 227.097 4.70367 229.645C20.9296 229.995 72.4048 224.182 85.5009 236.571C84.0497 230.748 86.6025 216.529 85.5097 208.509Z" fill="#66636C"/>
<path opacity="0.05" d="M85.5097 225.478C78.3671 246.386 21.4541 238.235 2.88525 238.961C3.61087 240.424 3.36609 241.247 4.45014 243.795C20.676 244.145 79.3988 239.136 85.5009 253.54C84.0497 247.708 86.6025 233.489 85.5097 225.478Z" fill="#66636C"/>
<path opacity="0.05" d="M85.0029 280.438C71.1724 295.751 21.6729 296.855 3.11279 297.59C3.83841 299.052 2.51831 297.774 3.61111 300.322C19.837 300.672 72.3963 298.86 85.5012 311.258C85.5012 302.808 86.0957 288.458 85.0029 280.438Z" fill="#66636C"/>
<path opacity="0.05" d="M83.892 189.938C70.0615 205.251 19.8364 202.695 1.26758 203.421C1.9932 204.884 1.9932 208.526 3.086 211.074C19.3119 211.424 70.7871 205.61 83.8833 218C82.4408 212.168 84.9848 197.958 83.892 189.938Z" fill="#66636C"/>
<path opacity="0.05" d="M85.5711 177.741C71.7406 193.055 21.0259 178.345 2.46582 179.072C3.19144 180.534 2.70187 181.848 3.79467 184.396C20.0206 184.746 70.7964 186.226 83.8925 198.615C82.4413 192.784 86.6639 185.761 85.5711 177.741Z" fill="#66636C"/>
<path opacity="0.05" d="M85.7456 351.517C71.9152 366.83 21.9174 359.738 3.35725 360.465C4.08287 361.927 2.50923 361.638 3.60203 364.195C19.8279 364.545 82.5109 362.952 85.9904 369.912C84.5392 364.081 85.5008 360.71 85.7456 351.517Z" fill="#66636C"/>
<path opacity="0.05" d="M85.2473 386.312C71.4168 401.625 21.419 394.279 2.85889 395.006C3.58451 396.468 3.50582 396.932 4.59862 399.48C20.8245 399.83 72.1424 396.03 85.2473 408.429C83.796 402.597 85.0025 395.015 85.2473 386.312Z" fill="#66636C"/>
<path opacity="0.05" d="M84.5043 421.852C76.3127 432.787 21.9 437.752 3.33984 438.479C4.06546 439.941 1.51268 450.912 6.99417 452.742C12.4757 454.572 60.4365 440.983 85.2561 437.008C83.7961 431.185 84.2595 430.555 84.5043 421.852Z" fill="#66636C"/>
<path opacity="0.05" d="M84.8363 254.188C71.0059 269.501 20.7808 266.945 2.21191 267.671C2.93753 269.134 2.93753 272.776 4.03033 275.324C20.2562 275.674 71.7315 269.86 84.8276 282.25C83.3851 276.427 85.9291 262.208 84.8363 254.188Z" fill="#66636C"/>
<path opacity="0.05" d="M82.0388 221.66C72.8855 223.314 26.6557 220.565 13.4546 219.9C7.25628 219.593 45.1808 216.424 51.0907 214.611C59.9817 211.888 84.5828 192.494 84.2244 178.643C83.4987 198.693 88.1322 220.556 82.0388 221.66Z" fill="#66636C"/>
<path opacity="0.05" d="M83.6124 183.485C74.4591 184.684 75.753 152.551 53.285 142.99C47.5762 140.564 18.735 125.732 24.6449 124.427C33.5359 122.466 84.5828 145.581 84.2243 135.6C83.4987 150.047 89.6971 182.688 83.6124 183.485Z" fill="#66636C"/>
<path opacity="0.05" d="M85.0895 284.692C65.9699 291.425 19.5915 282.232 7.04611 285.209C1.01385 286.645 42.2168 290.156 48.1267 291.968C57.0177 294.691 84.9409 300.339 84.5737 314.199C83.8394 294.148 85.0895 295.042 85.0895 284.692Z" fill="#66636C"/>
<path opacity="0.05" d="M85.5012 334.373C71.6707 349.687 21.9352 346.386 3.37511 347.113C4.10073 348.575 2.51836 348.715 3.61116 351.272C19.8371 351.622 72.8947 349.302 85.9995 361.691C84.5396 355.86 86.594 342.393 85.5012 334.373Z" fill="#66636C"/>
<path opacity="0.05" d="M85.2475 351.517C76.0942 349.862 16.6459 344.81 4.10057 347.787C-1.93169 349.223 35.8617 350.273 48.0224 350.773C57.3156 351.149 85.606 353.82 85.2475 367.671C85.2475 363.197 85.2475 357.733 85.2475 351.517Z" fill="#66636C"/>
<path opacity="0.05" d="M84.5046 426.824C74.0837 422.849 22.6696 422.333 4.10077 421.606C4.82638 420.144 3.31395 420.161 4.40675 417.613C20.6326 417.263 72.1079 423.077 85.204 410.688C83.7528 416.519 85.5974 418.804 84.5046 426.824Z" fill="#66636C"/>
<path opacity="0.05" d="M85.0023 417.631C76.9593 422.307 23.3509 421.598 10.8055 418.63C4.77329 417.194 45.0932 419.199 51.0031 417.386C59.8941 414.663 86.3574 411.354 85.9902 397.502C85.2471 404.953 86.5147 416.747 85.0023 417.631Z" fill="#66636C"/>
<path opacity="0.05" d="M85.2128 398.263C80.2908 377.617 22.6697 381.575 4.10955 380.848C4.83517 379.386 3.32274 379.675 4.41554 377.118C20.6414 376.768 72.1167 382.582 85.2128 370.192C83.7528 376.024 86.3056 390.243 85.2128 398.263Z" fill="#66636C"/>
<path opacity="0.05" d="M85.5005 379.85C85.5005 379.85 33.527 381.829 20.9816 378.852C14.9494 377.416 46.0723 376.672 52.2532 376.365C62.4293 375.866 86.1212 374.308 85.7541 360.456C85.0022 367.925 85.5005 379.85 85.5005 379.85Z" fill="#66636C"/>
<path opacity="0.05" d="M85.2123 338.077C71.3818 322.763 21.1567 325.32 2.58789 324.593C3.31351 323.131 3.31351 319.488 4.40631 316.94C20.6322 316.59 72.1075 322.404 85.2036 310.015C83.7523 315.846 86.3051 330.065 85.2123 338.077Z" fill="#66636C"/>
<path opacity="0.05" d="M82.5204 322.938C71.6012 322.938 18.6397 324.172 6.08563 321.195C0.0533684 319.759 42.3578 319.033 48.2677 317.22C57.1587 314.497 85.6065 311.188 85.2393 297.336C84.5224 317.387 88.7101 322.938 82.5204 322.938Z" fill="#66636C"/>
<path opacity="0.05" d="M82.0393 267.812C72.886 269.467 59.4315 269.361 48.3898 268.643C42.2002 268.241 -1.45061 271.489 4.45925 269.677C13.3503 266.954 86.1308 262.199 85.7636 248.348C85.0292 268.398 88.1328 266.708 82.0393 267.812Z" fill="#66636C"/>
<path opacity="0.05" d="M133.715 442.673C132.692 444.993 94.3127 448.75 89.6618 444.135C86.1998 440.694 84.1453 444.564 87.6335 448.032C94.6012 454.957 102.837 452.348 111.238 451.429C116.65 450.842 122.402 451.7 127.805 450.974C131.249 450.51 134.405 449.503 136.145 445.554C138.27 440.721 135.839 437.84 133.715 442.673Z" fill="#66636C"/>
<path d="M136.355 319.103V442.016C136.355 447.453 131.957 451.858 126.528 451.858H95.2132C89.7842 451.858 85.3867 447.453 85.3867 442.016V125.767C85.3867 120.33 89.7842 115.926 95.2132 115.926H126.528C131.957 115.926 136.355 120.33 136.355 125.767V248.4" stroke="#66636C" stroke-width="2" stroke-miterlimit="10"/>
<path d="M84.8801 437.594L14.3115 453.477C8.94363 455.368 3.32227 451.376 3.32227 445.676V113.15C3.32227 107.144 9.51189 103.142 14.9759 105.611L84.8801 137.237" stroke="#66636C" stroke-width="2" stroke-miterlimit="10" stroke-linecap="round" stroke-linejoin="round"/>
<path d="M164.768 319.208H94.0678C93.1062 319.208 92.3193 318.42 92.3193 317.457V250.326C92.3193 249.363 93.1062 248.575 94.0678 248.575H164.383C169.209 248.575 173.125 252.498 173.125 257.331V310.837C173.125 315.46 169.384 319.208 164.768 319.208Z" stroke="#66636C" stroke-width="2" stroke-miterlimit="10"/>
<path d="M115.058 280.105C119.78 280.105 123.608 276.271 123.608 271.542C123.608 266.812 119.78 262.979 115.058 262.979C110.336 262.979 106.508 266.812 106.508 271.542C106.508 276.271 110.336 280.105 115.058 280.105Z" stroke="#66636C" stroke-width="2" stroke-miterlimit="10"/>
<path d="M115.058 308.412C119.78 308.412 123.608 304.579 123.608 299.849C123.608 295.12 119.78 291.286 115.058 291.286C110.336 291.286 106.508 295.12 106.508 299.849C106.508 304.579 110.336 308.412 115.058 308.412Z" stroke="#66636C" stroke-width="2" stroke-miterlimit="10"/>
<path d="M51.4663 421.826L84.9672 413.464" stroke="#66636C" stroke-width="2" stroke-miterlimit="10" stroke-linecap="round" stroke-linejoin="round"/>
<path d="M25.5537 438.225L84.9671 419.312" stroke="#66636C" stroke-width="2" stroke-miterlimit="10" stroke-linecap="round" stroke-linejoin="round" stroke-dasharray="6 6"/>
<path d="M47.5933 177.881L85.1681 189.044" stroke="#66636C" stroke-width="2" stroke-miterlimit="10" stroke-linecap="round" stroke-linejoin="round" stroke-dasharray="6 6"/>
<path d="M57.8042 396.617L85.3515 392.239" stroke="#66636C" stroke-width="2" stroke-miterlimit="10" stroke-linecap="round" stroke-linejoin="round"/>
<path d="M68.4614 344.258L85.3517 341.894" stroke="#66636C" stroke-width="2" stroke-miterlimit="10" stroke-linecap="round" stroke-linejoin="round" stroke-dasharray="6 6"/>
<path d="M66.0659 220.347L85.0107 222.982" stroke="#66636C" stroke-width="2" stroke-miterlimit="10" stroke-linecap="round" stroke-linejoin="round"/>
<path d="M78.6553 292.967L85.0285 292.905" stroke="#66636C" stroke-width="2" stroke-miterlimit="10" stroke-linecap="round" stroke-linejoin="round"/>
<path d="M78.6553 229.05L85.0285 228.988" stroke="#66636C" stroke-width="2" stroke-miterlimit="10" stroke-linecap="round" stroke-linejoin="round"/>
<path d="M78.6553 334.995L85.0285 334.934" stroke="#66636C" stroke-width="2" stroke-miterlimit="10" stroke-linecap="round" stroke-linejoin="round"/>
<path d="M84.9673 152.315L52.9438 144.951" stroke="#66636C" stroke-width="2" stroke-miterlimit="10" stroke-linecap="round" stroke-linejoin="round"/>
<path d="M38.7373 131.414L84.9671 146.737" stroke="#66636C" stroke-width="2" stroke-miterlimit="10" stroke-linecap="round" stroke-linejoin="round" stroke-dasharray="12 12"/>
<path opacity="0.1" d="M148.206 451.096C144.118 449.029 135.297 444.266 134.869 446.088C133.4 452.278 113.896 453.924 90.1515 451.096C88.9538 450.842 88.1975 447.252 86.1255 446.088C77.3819 448.154 69.2769 449.458 71.2614 453.424C72.23 455.36 88.5953 456.139 111.78 455.36C131.593 454.694 154.327 454.19 148.206 451.096Z" fill="#66636C"/>
<path opacity="0.05" d="M85 444.001C85 456.501 133.103 456.055 136.839 444.217C147.531 444.865 160.463 453.472 154.326 456.055C148.959 458.313 143.566 458.454 137.776 458.605C136.248 458.645 134.693 458.686 133.103 458.766C124.832 459.186 118.442 459.423 110.154 459.651C106.709 459.747 98.4305 459.485 89.2504 459.195C75.8565 458.772 55 459.001 55 459.001C49 459.001 39.6324 459.563 29.1206 459.563C29.1206 459.563 16.6802 460.299 11.155 459.773C-1.19801 458.591 -2.57057 447.883 3.5054 447.69C4.81883 455.613 20 453.501 45.5 445.501C51.0373 445.424 85 444.001 85 444.001Z" fill="#66636C"/>
<path opacity="0.1" d="M45.9048 454.739C45.4852 453.041 26.2318 452.986 18.7993 452.986C15.3021 453.719 13.9902 454.301 10.9299 453.862C10.1519 453.609 6.12089 452.547 3.93484 448.601C3.8037 444.197 1.31155 451.232 4.80909 454.739C8.30682 457.808 12.6067 457.304 27.6611 456.533C30.8521 456.533 46.4906 457.095 45.9048 454.739Z" fill="#66636C"/>
</g>
<defs>
<clipPath id="clip0_2385_17699">
<rect width="174" height="356" fill="white" transform="translate(0 104)"/>
</clipPath>
</defs>
</svg>
