<svg width="173" height="460" viewBox="0 0 173 460" fill="none" xmlns="http://www.w3.org/2000/svg">
<rect width="173" height="460" fill="white"/>
<g clip-path="url(#clip0_2385_18209)">
<path opacity="0.1" d="M138.258 114.913C138.258 114.913 138.915 402.715 138.187 428.75C138.009 434.955 138.187 435.647 137.104 436.26C119.458 446.838 87.3164 449.817 55.8142 446.11C33.4547 443.481 27.2413 438.101 27.2324 429.828C27.2236 421.556 29.345 113.975 29.345 113.975C29.345 113.975 36.5349 112.783 49.9736 110.767C52.2992 110.417 49.1926 105.159 51.6779 104.852C60.004 103.827 77.5524 106.754 85.9051 106.964C92.2073 107.122 99.5126 105.352 105.584 106.088C107.643 106.351 114.318 104.519 116.236 104.817C118.153 105.115 114.815 109.926 116.75 110.268C129.257 112.511 138.258 114.913 138.258 114.913Z" fill="#F16EA3"/>
<path opacity="0.1" d="M29.8247 114.965C29.8247 114.965 27.3126 435.805 31.733 439.038C36.1534 442.272 61.167 447.328 73.6826 448.222C53.6576 427.55 58.0691 182.617 58.0691 117.086L29.8247 114.965Z" fill="#F16EA3"/>
<path opacity="0.1" d="M80.4289 448.222C78.5649 449.379 124.731 447.644 137.131 437.479C141.019 434.289 139.599 155.363 139.625 114.597L111.896 116.463C111.896 116.463 116.44 439.844 80.4289 448.222Z" fill="#F16EA3"/>
<path opacity="0.1" d="M121.846 114.868C120.426 154.671 124.509 270.109 123.239 354.753C121.979 436.882 91.604 444.664 86.6865 446.837C111.975 445.198 133.536 443.726 137.557 437.119C139.332 434.209 139.057 151.937 138.995 115.219C138.995 115.219 130.234 115.14 121.846 114.868Z" fill="#F16EA3"/>
<path opacity="0.1" d="M129.08 116.341C134.583 341.065 122.867 410.435 114.993 424.807C107.12 439.178 51.6251 443.008 27.4814 426.962C27.8276 432.51 30.0467 440.94 37.8845 442.736C44.8702 444.314 68.4724 448.45 91.6751 447.994C110.706 447.609 129.622 443.612 137.557 436.751C139.421 434.28 137.406 152.988 137.735 115.28L129.08 116.341Z" fill="#F16EA3"/>
<path opacity="0.1" d="M138.471 354.867C136.616 358.241 131.317 423.44 126.541 427.348C117.044 435.112 99.7258 441.492 93.1484 441.369C83.2868 441.15 74.0643 443.315 64.2116 442.859C54.3588 442.403 33.6681 439.424 28.147 434.621C31.4845 444.883 51.8202 445.488 60.7409 446.794C74.943 448.888 82.1684 448.371 91.6749 448.239C113.679 447.941 128.627 442.473 134.885 439.029C137.175 437.768 139.456 432.308 139.323 423.44C138.95 405.773 138.773 360.993 138.471 354.867Z" fill="#F16EA3"/>
<path opacity="0.1" d="M30.1438 114.098C30.1438 114.098 29.6468 434.929 31.1557 438.171C32.6647 441.413 52.8939 443.429 57.1723 444.349C33.8541 431.283 39.8545 181.776 39.7746 116.244L30.1438 114.098Z" fill="#F16EA3"/>
<path opacity="0.1" fill-rule="evenodd" clip-rule="evenodd" d="M94.3111 439.319C94.7194 439.836 94.0715 440.782 95.039 441.071C93.7342 441.904 94.7638 442.824 93.5388 443.7C93.422 443.548 93.261 443.435 93.0773 443.376C92.9797 444.086 92.5448 444.191 92.3939 444.813C91.7636 444.507 91.666 445.137 90.9203 444.638C90.4233 443.157 90.9914 442.009 90.0327 440.642C90.4493 439.933 91.1196 439.405 91.9115 439.16C92.7034 438.915 93.5594 438.972 94.3111 439.319Z" fill="#F16EA3"/>
<path opacity="0.1" fill-rule="evenodd" clip-rule="evenodd" d="M96.0244 425.114C96.4239 425.64 95.7847 426.577 96.7523 426.866C95.4474 427.69 96.4771 428.619 95.2522 429.495C95.1384 429.34 94.9762 429.226 94.7906 429.171C94.693 429.881 94.258 429.986 94.1071 430.599C93.4769 430.301 93.3793 430.932 92.6337 430.433C92.1367 428.952 92.7047 427.804 91.7461 426.437C92.1656 425.731 92.8359 425.205 93.6267 424.96C94.4175 424.716 95.2722 424.771 96.0244 425.114Z" fill="#F16EA3"/>
<path opacity="0.1" fill-rule="evenodd" clip-rule="evenodd" d="M94.5503 434.245C94.4616 434.657 94.2665 434.868 93.8318 434.666C93.7638 434.503 93.7638 434.32 93.8318 434.157C94.0745 434.107 94.3271 434.138 94.5503 434.245Z" fill="#F16EA3"/>
<path opacity="0.1" fill-rule="evenodd" clip-rule="evenodd" d="M39.0648 400.691C39.0648 400.84 38.8252 400.804 38.6565 400.83C39.127 401.532 38.7453 401.707 39.0205 402.715C38.4169 403.127 36.8014 404.038 36.1268 403.03C35.5765 403.03 35.2392 403.495 34.4669 403.188C33.9077 402.093 32.9224 401.015 33.4817 399.551C34.8486 399.174 35.8782 398.298 36.7481 399.989C37.7067 399.411 39.1269 399.858 39.0648 400.691Z" fill="#F16EA3"/>
<path opacity="0.1" fill-rule="evenodd" clip-rule="evenodd" d="M87.9648 438.985C88.5161 438.556 89.1839 438.298 89.8838 438.243C90.5837 438.189 91.2843 438.34 91.897 438.679C92.0736 439.413 92.342 440.122 92.6959 440.791C92.5974 440.85 92.5124 440.929 92.4467 441.022C92.3809 441.116 92.3358 441.222 92.3142 441.334C91.4265 440.712 91.2046 442.149 90.4324 442.351C90.601 442.964 91.5331 443.227 90.9384 444.2C90.681 444.246 90.4154 444.21 90.1795 444.099C89.9436 443.987 89.7495 443.804 89.6247 443.577C90.1129 443.244 89.6868 442.57 90.3259 442.648C89.6483 442.288 89.0756 441.762 88.6623 441.12C88.249 440.479 88.009 439.744 87.9648 438.985Z" fill="#F16EA3"/>
<path opacity="0.1" fill-rule="evenodd" clip-rule="evenodd" d="M78.1831 441.448C77.686 441.676 77.1889 441.054 76.6918 441.729C76.4788 440.642 75.5202 441.273 75.2095 440.23C75.3592 440.167 75.4904 440.067 75.5912 439.941C75.103 439.766 75.1563 439.424 74.7568 439.222C75.1563 438.793 74.7568 438.635 75.3249 438.153C76.541 438.004 77.2244 438.6 78.4849 438.065C79.2216 438.837 79.2838 440.125 78.1831 441.448Z" fill="#F16EA3"/>
<path opacity="0.1" fill-rule="evenodd" clip-rule="evenodd" d="M62.5156 445.26C62.2849 445.611 62.0187 445.734 61.6905 445.392C61.6889 445.218 61.7521 445.049 61.868 444.918C62.118 444.952 62.3476 445.074 62.5156 445.26Z" fill="#F16EA3"/>
<path opacity="0.1" fill-rule="evenodd" clip-rule="evenodd" d="M103.951 416.193C103.898 416.368 103.605 416.263 103.401 416.246C103.756 417.218 103.223 417.297 103.223 418.629C102.336 418.971 99.9833 419.646 99.4596 418.235C98.7761 418.086 98.2435 418.576 97.3115 417.989C96.9742 416.508 96.0865 414.931 97.3115 413.301C99.1666 413.214 100.756 412.425 101.288 414.712C102.664 414.274 104.315 415.194 103.951 416.193Z" fill="#F16EA3"/>
<path opacity="0.1" fill-rule="evenodd" clip-rule="evenodd" d="M87.7959 430.064C87.9911 430.161 87.8491 430.389 87.7959 430.573C88.9054 430.494 88.9409 430.984 90.4588 431.309C90.7517 432.185 91.3464 434.446 89.7043 434.56C89.4824 435.138 89.9795 435.725 89.2516 436.409C87.6006 436.347 85.781 436.75 84.0945 435.296C84.1478 433.622 83.411 432.01 85.9674 432.097C85.5768 430.739 86.7307 429.503 87.7959 430.064Z" fill="#F16EA3"/>
<path opacity="0.1" fill-rule="evenodd" clip-rule="evenodd" d="M33.9346 431.695C34.5737 430.45 39.6864 430.958 42.1097 431.064C42.7359 431.853 43.4473 432.573 44.2311 433.211C44.1634 433.346 44.1245 433.494 44.1169 433.644C44.1093 433.795 44.133 433.946 44.1867 434.087C42.9351 433.78 43.5919 435.63 42.944 436.269C43.5032 436.927 44.6216 436.83 44.6127 438.241C44.2399 438.706 43.2547 438.504 42.9085 438.153C43.1837 437.505 42.3405 436.909 43.0239 436.681C41.3374 436.576 34.9465 433.474 33.9346 431.695Z" fill="#F16EA3"/>
<path opacity="0.1" fill-rule="evenodd" clip-rule="evenodd" d="M38.8253 427.112C39.2336 427.629 38.5856 428.575 39.5531 428.864C38.2483 429.741 39.2868 430.617 38.053 431.493C37.9377 431.344 37.7803 431.231 37.6004 431.169C37.5028 431.879 37.0589 431.984 36.908 432.606C36.2778 432.308 36.1801 432.93 35.4345 432.431C34.9374 430.95 35.5055 429.802 34.5469 428.444C34.962 427.734 35.6316 427.203 36.4237 426.956C37.2157 426.71 38.0727 426.765 38.8253 427.112Z" fill="#F16EA3"/>
<path opacity="0.1" fill-rule="evenodd" clip-rule="evenodd" d="M40.9904 411.671C40.9017 412.074 40.7064 412.293 40.2717 412.092C40.2037 411.929 40.2037 411.746 40.2717 411.583C40.5145 411.533 40.7671 411.564 40.9904 411.671Z" fill="#F16EA3"/>
<path opacity="0.1" fill-rule="evenodd" clip-rule="evenodd" d="M51.9089 438.145C51.9977 438.232 51.9088 438.32 51.8112 438.416C52.4059 438.6 52.3261 438.863 53.0273 439.337C53.0273 439.862 52.8142 441.15 51.9532 440.879C51.7136 441.133 51.8467 441.545 51.3319 441.755C50.4443 441.378 49.4412 441.22 48.8643 440.116C49.2459 439.24 49.2015 438.259 50.5152 438.828C50.6129 438.04 51.474 437.627 51.9089 438.145Z" fill="#F16EA3"/>
<path opacity="0.1" fill-rule="evenodd" clip-rule="evenodd" d="M116.174 414.501C116.369 414.597 116.227 414.817 116.174 415.009C117.283 414.922 117.319 415.412 118.837 415.745C119.13 416.622 119.724 418.883 118.082 418.997C117.869 419.567 118.357 420.162 117.638 420.846C115.979 420.785 114.159 421.187 112.472 419.724C112.526 418.059 111.789 416.447 114.345 416.534C113.955 415.167 115.109 413.966 116.174 414.501Z" fill="#F16EA3"/>
<path opacity="0.1" fill-rule="evenodd" clip-rule="evenodd" d="M33.8364 420.732C35.3365 419.856 36.8633 418.979 39.6149 420.276C40.1386 421.582 39.9789 422.099 40.7867 423.387C40.6423 423.472 40.5178 423.586 40.4214 423.722C40.325 423.858 40.2589 424.013 40.2275 424.176C38.9581 423.299 38.6031 425.376 37.458 425.674C37.7066 426.551 39.0735 427.033 38.2036 428.391C37.8241 428.457 37.433 428.404 37.0857 428.239C36.7385 428.074 36.4527 427.805 36.2686 427.471C36.9965 426.98 36.3662 425.99 37.3071 426.112C36.3107 425.584 35.4684 424.811 34.8608 423.869C34.2532 422.927 33.9005 421.847 33.8364 420.732Z" fill="#F16EA3"/>
<path opacity="0.1" fill-rule="evenodd" clip-rule="evenodd" d="M107.998 440.002C108.265 440.335 107.847 440.949 108.469 441.133C107.581 441.667 108.3 442.254 107.501 442.885C107.426 442.789 107.324 442.716 107.208 442.675C107.146 443.131 103.773 443.201 103.658 443.604C103.249 443.411 103.187 443.814 102.708 443.49C102.38 442.535 102.708 441.737 102.113 440.914C102.637 440.011 106.756 439.529 107.998 440.002Z" fill="#F16EA3"/>
<path opacity="0.1" fill-rule="evenodd" clip-rule="evenodd" d="M81.5378 439.442C81.4491 439.854 81.2538 440.065 80.8191 439.863C80.7556 439.699 80.7556 439.518 80.8191 439.354C81.0619 439.305 81.3145 439.335 81.5378 439.442Z" fill="#F16EA3"/>
<path opacity="0.1" fill-rule="evenodd" clip-rule="evenodd" d="M133.793 433.868C133.713 434.061 133.411 433.921 133.181 433.868C133.474 434.955 132.879 434.999 132.737 436.445C131.698 436.725 125.423 437.26 125.006 435.682C124.269 435.454 123.63 435.937 122.671 435.218C122.458 433.588 121.65 431.792 123.142 430.135C125.183 430.206 130.651 429.487 130.988 432.01C132.595 431.677 134.308 432.817 133.793 433.868Z" fill="#F16EA3"/>
<path opacity="0.1" fill-rule="evenodd" clip-rule="evenodd" d="M100.462 429.872C100.658 429.968 100.516 430.196 100.462 430.38C101.563 430.301 101.607 430.792 103.072 431.116C103.374 431.993 103.96 434.253 102.326 434.367C102.104 434.946 102.602 435.533 101.874 436.217C100.214 436.155 98.4031 436.559 96.7166 435.104C96.7698 433.439 96.0331 431.818 98.5895 431.905C98.2788 430.547 99.4238 429.311 100.462 429.872Z" fill="#F16EA3"/>
<path opacity="0.1" fill-rule="evenodd" clip-rule="evenodd" d="M47.4798 435.822C47.6436 436.496 47.6011 437.204 47.3578 437.854C47.1145 438.504 46.6812 439.069 46.1128 439.476C45.3652 439.328 44.6022 439.27 43.8404 439.301C43.8269 439.19 43.7899 439.082 43.7318 438.985C43.6738 438.889 43.5958 438.805 43.5031 438.74C44.4351 438.223 43.2191 437.399 43.3523 436.62C42.7221 436.514 42.0474 437.224 41.4438 436.304C41.5065 436.052 41.65 435.825 41.8531 435.659C42.0562 435.494 42.308 435.397 42.5712 435.384C42.6688 435.962 43.4588 435.866 43.1215 436.4C43.7375 435.945 44.4614 435.652 45.2243 435.551C45.9872 435.45 46.7637 435.543 47.4798 435.822Z" fill="#F16EA3"/>
<path opacity="0.1" fill-rule="evenodd" clip-rule="evenodd" d="M116.751 439.564C115.481 439.511 114.203 439.441 113.12 437.811C113.426 437.159 113.641 436.469 113.759 435.761C114.002 435.77 114.24 435.688 114.425 435.533C114.789 436.409 115.907 435.463 116.706 435.69C116.946 435.13 116.333 434.42 117.425 433.999C117.668 434.073 117.877 434.228 118.016 434.438C118.155 434.647 118.216 434.898 118.188 435.147C117.549 435.147 117.496 435.901 116.99 435.515C117.352 436.14 117.522 436.856 117.479 437.574C117.437 438.293 117.183 438.984 116.751 439.564Z" fill="#F16EA3"/>
<path opacity="0.1" fill-rule="evenodd" clip-rule="evenodd" d="M41.8784 371.088C42.0116 371.255 41.7985 371.562 42.1181 371.658C41.692 371.93 42.0293 372.219 41.6298 372.535C41.5901 372.487 41.538 372.451 41.479 372.43C41.479 372.666 41.3015 372.701 41.2571 372.894C41.0529 372.798 41.0174 373.008 40.7777 372.841C40.618 372.359 40.7778 371.965 40.4849 371.544C40.6167 371.309 40.8332 371.132 41.0914 371.047C41.3496 370.963 41.6306 370.977 41.8784 371.088Z" fill="#F16EA3"/>
<path opacity="0.1" fill-rule="evenodd" clip-rule="evenodd" d="M84.2985 388.605C84.2453 388.859 84.1211 388.991 83.8549 388.859C83.814 388.761 83.814 388.651 83.8549 388.553C84.0044 388.519 84.1614 388.537 84.2985 388.605Z" fill="#F16EA3"/>
<path opacity="0.1" fill-rule="evenodd" clip-rule="evenodd" d="M36.482 352.879C36.482 352.957 36.3577 352.94 36.2689 352.949C36.5175 353.317 36.3222 353.396 36.4642 353.939C36.1446 354.158 35.2925 354.632 34.9375 354.106C34.6534 354.106 34.5025 354.351 34.0499 354.185C33.7569 353.615 33.242 353.045 33.535 352.274C34.2539 352.081 34.7954 351.616 35.2481 352.501C35.7718 352.203 36.553 352.44 36.482 352.879Z" fill="#F16EA3"/>
<path opacity="0.1" fill-rule="evenodd" clip-rule="evenodd" d="M76.106 407.176C76.4493 406.912 76.8634 406.753 77.2972 406.719C77.731 406.685 78.1655 406.776 78.5469 406.983C78.656 407.44 78.8229 407.882 79.044 408.297C78.9825 408.333 78.9293 408.381 78.888 408.439C78.8467 408.496 78.8182 408.562 78.8043 408.631C78.2717 408.245 78.1209 409.13 77.6415 409.261C77.7481 409.638 78.3161 409.831 77.9522 410.401C77.7922 410.431 77.6267 410.41 77.4798 410.34C77.3328 410.271 77.2122 410.157 77.1355 410.015C77.4462 409.814 77.1355 409.393 77.5705 409.445C77.1499 409.223 76.7944 408.897 76.538 408.499C76.2815 408.102 76.1328 407.646 76.106 407.176Z" fill="#F16EA3"/>
<path opacity="0.1" fill-rule="evenodd" clip-rule="evenodd" d="M47.5149 428.111C46.9646 428.111 46.7428 427.383 46.0149 427.83C46.2279 426.735 45.1272 426.954 45.1982 425.894C45.3611 425.883 45.5191 425.835 45.6598 425.754C45.2693 425.412 45.4556 425.114 45.1538 424.781C45.6864 424.535 45.358 424.22 46.0414 423.992C47.2397 424.299 47.657 425.105 49.0329 425.07C49.4678 426.06 49.0417 427.287 47.5149 428.111Z" fill="#F16EA3"/>
<path opacity="0.1" fill-rule="evenodd" clip-rule="evenodd" d="M60.5807 388.553C60.5275 388.799 60.4033 388.939 60.1371 388.807C60.0962 388.709 60.0962 388.599 60.1371 388.501C60.2864 388.463 60.4448 388.481 60.5807 388.553Z" fill="#F16EA3"/>
<path opacity="0.1" fill-rule="evenodd" clip-rule="evenodd" d="M100.968 371.281C100.968 371.368 100.809 371.281 100.711 371.281C100.88 371.736 100.631 371.771 100.631 372.385C100.214 372.542 99.1309 372.849 98.8558 372.201C98.5451 372.131 98.2966 372.359 97.8705 372.087C97.7107 371.403 97.3024 370.676 97.8705 369.923C98.7581 369.923 99.4594 369.519 99.708 370.571C100.374 370.396 101.137 370.825 100.968 371.281Z" fill="#F16EA3"/>
<path opacity="0.1" fill-rule="evenodd" clip-rule="evenodd" d="M32.8691 335.256C32.8691 334.896 34.4403 334.826 34.893 334.712C35.0887 334.868 35.2964 335.009 35.5143 335.133C35.525 335.209 35.5556 335.281 35.6031 335.343C35.3457 335.343 35.6741 335.773 35.6031 335.974C35.7718 336.115 35.967 336.018 36.1268 336.377C36.1268 336.518 35.9138 336.526 35.8073 336.456C35.7007 336.386 35.5676 336.176 35.6652 336.08C34.6836 336.009 33.7293 335.728 32.8691 335.256Z" fill="#F16EA3"/>
<path opacity="0.1" fill-rule="evenodd" clip-rule="evenodd" d="M125.077 372.017C125.334 372.341 124.935 372.893 125.529 373.104C124.722 373.621 125.361 374.173 124.642 374.751C124.57 374.657 124.471 374.586 124.358 374.549C124.296 374.987 124.02 375.058 123.932 375.426C123.541 375.242 123.479 375.636 123.044 375.32C122.733 374.444 123.089 373.682 122.476 372.849C122.733 372.422 123.138 372.101 123.617 371.948C124.096 371.795 124.615 371.819 125.077 372.017Z" fill="#F16EA3"/>
<path opacity="0.1" fill-rule="evenodd" clip-rule="evenodd" d="M35.594 386.196C35.5408 386.449 35.4254 386.58 35.1504 386.458C35.1146 386.356 35.1146 386.245 35.1504 386.143C35.3001 386.113 35.4557 386.131 35.594 386.196Z" fill="#F16EA3"/>
<path opacity="0.1" fill-rule="evenodd" clip-rule="evenodd" d="M91.7192 410.794C91.8346 410.855 91.7192 410.996 91.7192 411.11C92.4027 411.057 92.4293 411.364 93.3436 411.565C93.53 412.117 93.8673 413.511 92.882 413.581C92.74 413.931 93.0507 414.299 92.598 414.72C91.5683 414.72 90.4499 414.939 89.4025 414.028C89.4025 413.002 88.9764 411.995 90.5653 412.056C90.3434 411.206 91.0535 410.461 91.7192 410.794Z" fill="#F16EA3"/>
<path opacity="0.1" fill-rule="evenodd" clip-rule="evenodd" d="M60.9985 124.964C61.1139 125.026 60.9985 125.166 60.9985 125.28C61.682 125.227 61.7086 125.534 62.6139 125.735C62.8003 126.287 63.1465 127.681 62.1524 127.751C62.0192 128.102 62.3211 128.47 61.8772 128.89C60.8476 128.89 59.7203 129.109 58.6729 128.207C58.6729 127.173 58.2556 126.174 59.8356 126.226C59.6315 125.376 60.3328 124.614 60.9985 124.964Z" fill="#F16EA3"/>
<path opacity="0.1" fill-rule="evenodd" clip-rule="evenodd" d="M50.7551 406.141C51.0037 406.465 50.6042 407.017 51.2078 407.236C50.4001 407.744 51.0392 408.305 50.3202 408.884C50.2507 408.786 50.1511 408.712 50.0361 408.673C49.9828 409.12 49.7077 409.182 49.61 409.55C49.2195 409.366 49.1662 409.751 48.7224 409.444C48.4117 408.568 48.7224 407.797 48.1543 406.964C48.4124 406.538 48.8188 406.22 49.2974 406.068C49.7761 405.917 50.2943 405.942 50.7551 406.141Z" fill="#F16EA3"/>
<path opacity="0.1" fill-rule="evenodd" clip-rule="evenodd" d="M74.3925 391.55C74.3392 391.804 74.215 391.935 73.9489 391.813C73.9269 391.763 73.9155 391.709 73.9155 391.655C73.9155 391.601 73.9269 391.547 73.9489 391.497C74.0984 391.463 74.2554 391.482 74.3925 391.55Z" fill="#F16EA3"/>
<path opacity="0.1" fill-rule="evenodd" clip-rule="evenodd" d="M35.328 388.772C35.4434 388.834 35.328 388.974 35.328 389.088C36.0115 389.035 36.0381 389.342 36.9435 389.543C37.1299 390.095 37.4762 391.489 36.482 391.559C36.3489 391.918 36.6506 392.286 36.1979 392.707C35.1771 392.663 34.0499 392.917 33.0024 392.015C33.0024 390.981 32.5853 389.981 34.1653 390.034C33.9523 389.193 34.6623 388.422 35.328 388.772Z" fill="#F16EA3"/>
<path opacity="0.1" fill-rule="evenodd" clip-rule="evenodd" d="M32.6382 370.151C32.9795 369.883 33.394 369.721 33.8289 369.687C34.2637 369.652 34.699 369.747 35.0792 369.958C35.1891 370.411 35.3531 370.849 35.5674 371.264C35.508 371.301 35.4568 371.349 35.4171 371.407C35.3774 371.464 35.35 371.529 35.3366 371.597C34.804 371.22 34.6532 372.105 34.165 372.228C34.2715 372.613 34.8485 372.806 34.4845 373.376C34.3246 373.405 34.1596 373.383 34.013 373.313C33.8664 373.244 33.7456 373.131 33.6679 372.99C33.9697 372.78 33.6679 372.368 34.1028 372.412C33.6835 372.19 33.3287 371.865 33.0724 371.47C32.816 371.074 32.6665 370.62 32.6382 370.151Z" fill="#F16EA3"/>
<path opacity="0.1" fill-rule="evenodd" clip-rule="evenodd" d="M97.6577 396.685C97.2179 396.73 96.7742 396.652 96.3772 396.46C95.9802 396.267 95.6458 395.969 95.4121 395.599C95.5979 395.194 95.7292 394.766 95.8026 394.328C95.9549 394.336 96.1045 394.286 96.2198 394.188C96.4417 394.758 97.1074 394.144 97.64 394.284C97.782 393.934 97.4003 393.495 98.0838 393.232C98.2326 393.282 98.3598 393.38 98.4438 393.511C98.5279 393.642 98.5637 393.797 98.5454 393.951C98.1548 393.951 98.1193 394.416 97.8087 394.179C98.0349 394.565 98.1413 395.009 98.1144 395.454C98.0876 395.9 97.9288 396.328 97.6577 396.685Z" fill="#F16EA3"/>
<path opacity="0.1" fill-rule="evenodd" clip-rule="evenodd" d="M123.204 384.487C123.816 384.224 124.589 385.074 125.112 384.215C125.609 385.661 126.746 384.89 127.358 386.292C127.177 386.361 127.024 386.488 126.923 386.651C127.598 386.914 127.598 387.37 128.166 387.659C127.722 388.193 128.317 388.439 127.642 389.026C126.062 389.149 125.05 388.316 123.497 388.93C122.89 388.362 122.523 387.588 122.469 386.765C122.415 385.941 122.677 385.127 123.204 384.487Z" fill="#F16EA3"/>
<path opacity="0.1" fill-rule="evenodd" clip-rule="evenodd" d="M100.685 376.644C100.969 376.522 101.324 376.916 101.572 376.521C101.803 377.188 102.318 376.828 102.602 377.477C102.521 377.511 102.453 377.569 102.407 377.643C102.717 377.766 102.717 377.968 102.975 378.108C102.77 378.345 103.046 378.459 102.735 378.731C102.007 378.783 101.546 378.406 100.827 378.687C100.547 378.427 100.377 378.072 100.351 377.693C100.324 377.314 100.444 376.94 100.685 376.644Z" fill="#F16EA3"/>
<path opacity="0.1" fill-rule="evenodd" clip-rule="evenodd" d="M116.44 387.502C116.821 387.677 116.981 387.923 116.679 388.291C116.506 388.318 116.329 388.281 116.183 388.186C116.186 387.935 116.277 387.694 116.44 387.502Z" fill="#F16EA3"/>
<path opacity="0.1" fill-rule="evenodd" clip-rule="evenodd" d="M108.682 431.905C108.859 431.958 108.744 432.229 108.682 432.44C109.703 432.08 109.765 432.589 111.149 432.58C111.478 433.456 112.126 435.699 110.652 436.208C110.475 436.874 110.972 437.382 110.342 438.285C108.797 438.626 107.128 439.503 105.477 438.363C105.477 436.611 104.652 435.051 107.031 434.517C106.676 433.158 107.652 431.563 108.682 431.905Z" fill="#F16EA3"/>
<path opacity="0.1" fill-rule="evenodd" clip-rule="evenodd" d="M111.558 398.859C111.268 398.226 111.174 397.523 111.29 396.838C111.405 396.154 111.724 395.518 112.206 395.012C112.971 395.024 113.734 394.941 114.478 394.767C114.512 394.874 114.569 394.973 114.644 395.057C114.719 395.142 114.81 395.21 114.913 395.257C114.096 395.932 115.446 396.52 115.463 397.308C116.102 397.308 116.635 396.485 117.398 397.308C117.384 397.561 117.291 397.804 117.132 398.003C116.973 398.202 116.756 398.348 116.511 398.421C116.307 397.869 115.534 398.114 115.774 397.544C115.246 398.104 114.58 398.519 113.841 398.749C113.102 398.98 112.316 399.018 111.558 398.859Z" fill="#F16EA3"/>
<path opacity="0.1" fill-rule="evenodd" clip-rule="evenodd" d="M119.857 408.472C120.017 409.348 118.846 409.848 119.724 410.9C117.949 410.794 118.535 412.538 116.751 412.6C116.71 412.344 116.6 412.105 116.431 411.907C115.961 412.591 115.437 412.372 114.958 412.915C114.452 412.117 114.017 412.713 113.493 411.618C113.733 409.664 114.94 408.84 114.594 406.667C116.112 405.826 118.215 406.238 119.857 408.472Z" fill="#F16EA3"/>
<path opacity="0.1" fill-rule="evenodd" clip-rule="evenodd" d="M127.402 417.112C127.774 417.296 127.943 417.542 127.641 417.901C127.554 417.917 127.465 417.916 127.378 417.898C127.291 417.88 127.209 417.845 127.136 417.796C127.14 417.544 127.234 417.302 127.402 417.112Z" fill="#F16EA3"/>
<path opacity="0.1" fill-rule="evenodd" clip-rule="evenodd" d="M124.349 425.832C124.509 425.928 124.349 426.182 124.269 426.375C125.316 426.27 125.263 426.795 126.577 427.12C126.684 428.066 126.781 430.476 125.272 430.625C124.961 431.247 125.272 431.878 124.509 432.623C122.973 432.623 121.198 433.061 119.893 431.528C120.257 429.731 119.893 428.022 122.236 428.022C122.157 426.603 123.453 425.244 124.349 425.832Z" fill="#F16EA3"/>
<path opacity="0.1" fill-rule="evenodd" clip-rule="evenodd" d="M108.788 428.864C108.93 428.706 109.117 428.864 109.285 428.978C109.481 427.891 109.969 427.979 110.644 426.647C111.593 426.577 118.712 426.594 118.437 428.154C118.952 428.505 119.653 428.154 120.15 429.03C119.68 430.608 119.644 432.448 117.798 433.71C116.174 433.245 109.632 433.57 110.333 431.133C108.913 431.151 107.972 429.74 108.788 428.864Z" fill="#F16EA3"/>
<path opacity="0.1" fill-rule="evenodd" clip-rule="evenodd" d="M131.183 429.688C129.843 429.224 128.521 428.733 128.316 426.341C129.021 425.621 129.649 424.831 130.189 423.983C130.334 424.032 130.488 424.051 130.64 424.039C130.793 424.027 130.942 423.984 131.077 423.913C130.935 425.175 132.71 424.29 133.438 424.842C134.015 424.211 133.767 423.089 135.213 422.949C135.737 423.256 135.657 424.237 135.355 424.632C134.672 424.439 134.184 425.35 133.864 424.702C133.848 425.683 133.596 426.646 133.13 427.513C132.665 428.38 131.997 429.125 131.183 429.688Z" fill="#F16EA3"/>
<path opacity="0.1" fill-rule="evenodd" clip-rule="evenodd" d="M127.979 409.585C128.583 409.322 129.355 410.172 129.879 409.313C130.376 410.768 131.512 409.997 132.124 411.399C131.947 411.47 131.797 411.596 131.698 411.758C132.373 412.021 132.364 412.468 132.941 412.766C132.488 413.292 133.083 413.537 132.408 414.133C130.837 414.247 129.816 413.424 128.263 414.037C127.659 413.465 127.295 412.69 127.242 411.866C127.189 411.041 127.452 410.227 127.979 409.585Z" fill="#F16EA3"/>
<path opacity="0.1" fill-rule="evenodd" clip-rule="evenodd" d="M129.355 410.917C129.728 411.092 129.896 411.337 129.586 411.705C129.413 411.733 129.235 411.695 129.089 411.6C129.093 411.348 129.187 411.106 129.355 410.917Z" fill="#F16EA3"/>
<path opacity="0.1" fill-rule="evenodd" clip-rule="evenodd" d="M40.6446 384.671C40.7156 384.6 40.7955 384.671 40.8754 384.723C40.9642 384.232 41.1861 384.268 41.4879 383.672C41.914 383.672 42.9702 383.672 42.8459 384.347C43.0767 384.504 43.3962 384.347 43.6182 384.75C43.414 385.46 43.3963 386.292 42.5619 386.861C41.8252 386.651 41.0263 386.792 41.3459 385.696C40.7068 385.705 40.2807 385.047 40.6446 384.671Z" fill="#F16EA3"/>
<path opacity="0.1" fill-rule="evenodd" clip-rule="evenodd" d="M124.828 398.649C124.961 398.491 125.156 398.649 125.325 398.754C125.511 397.676 126.008 397.755 126.683 396.432C127.633 396.362 129.976 396.379 129.701 397.939C130.207 398.29 130.908 397.939 131.405 398.816C130.944 400.393 130.899 402.225 129.062 403.486C127.429 403.031 125.671 403.346 126.399 400.919C124.943 400.936 124.011 399.534 124.828 398.649Z" fill="#F16EA3"/>
<path opacity="0.1" fill-rule="evenodd" clip-rule="evenodd" d="M126.382 422.678C125.876 421.021 125.396 419.356 127.34 417.025C128.752 416.841 129.213 417.122 130.669 416.666C130.72 416.824 130.805 416.969 130.916 417.093C131.028 417.216 131.164 417.316 131.317 417.384C130.119 418.383 132.098 419.234 132.116 420.408C133.066 420.408 133.838 419.181 134.965 420.346C134.948 420.728 134.806 421.094 134.559 421.388C134.312 421.683 133.975 421.889 133.598 421.977C133.287 421.17 132.16 421.529 132.506 420.653C131.747 421.481 130.785 422.102 129.712 422.456C128.64 422.811 127.493 422.887 126.382 422.678Z" fill="#F16EA3"/>
<path opacity="0.1" fill-rule="evenodd" clip-rule="evenodd" d="M120.878 360.511C121.109 360.405 121.402 360.73 121.597 360.405C121.783 360.949 122.209 360.66 122.485 361.186C122.417 361.214 122.361 361.263 122.325 361.326C122.573 361.422 122.573 361.589 122.786 361.703C122.618 361.896 122.848 361.992 122.591 362.211C121.996 362.255 121.615 361.948 121.029 362.211C120.787 362.001 120.636 361.707 120.608 361.391C120.58 361.074 120.677 360.759 120.878 360.511Z" fill="#F16EA3"/>
<path opacity="0.1" fill-rule="evenodd" clip-rule="evenodd" d="M120.239 396.747C120.62 396.931 120.78 397.168 120.478 397.536C120.302 397.563 120.123 397.525 119.973 397.43C119.977 397.179 120.071 396.937 120.239 396.747Z" fill="#F16EA3"/>
<path opacity="0.1" fill-rule="evenodd" clip-rule="evenodd" d="M35.5853 364.832C35.6386 364.832 35.5853 364.963 35.5409 365.034C35.9314 365.034 35.896 365.226 36.3664 365.393C36.3664 365.761 36.3664 366.663 35.7717 366.672C35.6385 366.891 35.7717 367.137 35.4255 367.391C34.8574 367.329 34.1917 367.443 33.7656 366.821C33.952 366.155 33.8632 365.498 34.742 365.594C34.7775 365.051 35.2746 364.587 35.5853 364.832Z" fill="#F16EA3"/>
<path opacity="0.1" fill-rule="evenodd" clip-rule="evenodd" d="M109.49 379.711C109.57 379.615 109.685 379.711 109.783 379.773C109.898 379.124 113.067 379.177 113.475 378.379C114.043 378.336 115.455 378.379 115.251 379.256C115.561 379.466 115.978 379.256 116.28 379.782C115.996 380.728 115.978 381.832 114.869 382.595C113.892 382.314 112.827 382.507 113.253 381.043C112.428 381.087 108.993 380.246 109.49 379.711Z" fill="#F16EA3"/>
<path opacity="0.1" fill-rule="evenodd" clip-rule="evenodd" d="M122.236 409.156C121.946 408.523 121.853 407.82 121.968 407.135C122.083 406.45 122.402 405.815 122.884 405.309C123.649 405.321 124.412 405.238 125.156 405.063C125.191 405.17 125.247 405.27 125.322 405.354C125.397 405.438 125.488 405.506 125.591 405.554C124.775 406.229 126.124 406.816 126.142 407.605C126.781 407.605 127.313 406.781 128.077 407.605C128.062 407.858 127.969 408.101 127.81 408.3C127.652 408.499 127.435 408.644 127.189 408.718C126.985 408.166 126.213 408.411 126.452 407.841C125.924 408.401 125.258 408.816 124.519 409.046C123.781 409.277 122.994 409.314 122.236 409.156Z" fill="#F16EA3"/>
<path opacity="0.1" fill-rule="evenodd" clip-rule="evenodd" d="M125.849 372.096C125.494 373.306 125.112 374.515 123.239 375.155C122.44 374.699 122.307 374.348 121.375 374.042C121.445 373.812 121.423 373.564 121.313 373.349C122.307 373.227 121.606 371.912 122.032 371.203C121.526 370.835 120.683 371.255 120.532 370.098C120.664 369.885 120.868 369.723 121.107 369.642C121.347 369.56 121.608 369.564 121.845 369.651C121.703 370.274 122.422 370.528 121.917 370.887C122.62 370.69 123.366 370.7 124.065 370.915C124.763 371.13 125.382 371.54 125.849 372.096Z" fill="#F16EA3"/>
<path opacity="0.1" fill-rule="evenodd" clip-rule="evenodd" d="M79.5323 425.754C79.1772 426.963 78.8044 428.172 76.9315 428.812C76.3629 428.361 75.7361 427.987 75.0674 427.699C75.133 427.468 75.1108 427.222 75.0052 427.007C75.9994 426.884 75.2893 425.57 75.7154 424.86C75.2183 424.492 74.3661 424.912 74.2241 423.755C74.3565 423.542 74.56 423.38 74.7997 423.299C75.0394 423.217 75.3004 423.221 75.5379 423.309C75.3959 423.931 76.1148 424.185 75.6089 424.544C76.3111 424.347 77.0563 424.357 77.7531 424.572C78.4499 424.787 79.0682 425.197 79.5323 425.754Z" fill="#F16EA3"/>
<path opacity="0.1" fill-rule="evenodd" clip-rule="evenodd" d="M48.6693 431.047C49.122 431.047 49.3971 431.765 49.9563 431.353C49.903 432.405 50.8439 432.23 50.8439 433.246C50.712 433.245 50.5835 433.288 50.48 433.369C50.8439 433.702 50.7286 433.991 51.0126 434.315C50.5954 434.543 50.9061 434.85 50.3291 435.06C49.2906 434.745 48.8557 433.956 47.6662 433.965C47.4308 433.443 47.4033 432.853 47.5892 432.312C47.7751 431.771 48.1608 431.319 48.6693 431.047Z" fill="#F16EA3"/>
<path opacity="0.1" fill-rule="evenodd" clip-rule="evenodd" d="M128.414 349.574C129.018 349.312 129.79 350.162 130.314 349.303C130.811 350.757 131.947 349.978 132.559 351.38C132.38 351.453 132.231 351.582 132.133 351.748C132.808 352.011 132.799 352.457 133.367 352.755C132.923 353.281 133.518 353.527 132.843 354.114C131.272 354.237 130.252 353.404 128.698 354.026C128.094 353.454 127.73 352.68 127.677 351.855C127.624 351.031 127.887 350.217 128.414 349.574Z" fill="#F16EA3"/>
<path opacity="0.1" fill-rule="evenodd" clip-rule="evenodd" d="M134.503 369.975C134.885 370.159 135.045 370.396 134.743 370.764C134.57 370.791 134.393 370.753 134.246 370.658C134.246 370.407 134.337 370.164 134.503 369.975Z" fill="#F16EA3"/>
<path opacity="0.1" fill-rule="evenodd" clip-rule="evenodd" d="M123.097 342.897C123.168 342.897 123.097 343.028 123.097 343.107C123.506 342.967 123.532 343.169 124.074 343.16C124.207 343.502 124.464 344.395 123.878 344.597C123.807 344.86 124.003 345.053 123.754 345.412C123.142 345.543 122.494 345.894 121.837 345.412C121.837 344.711 121.508 344.106 122.449 343.896C122.298 343.388 122.698 342.757 123.097 342.897Z" fill="#F16EA3"/>
<path opacity="0.1" fill-rule="evenodd" clip-rule="evenodd" d="M129.462 392.269C129.172 391.637 129.078 390.933 129.194 390.248C129.309 389.563 129.628 388.928 130.11 388.422C130.875 388.428 131.637 388.342 132.382 388.168C132.455 388.384 132.611 388.563 132.817 388.667C132 389.342 133.349 389.921 133.367 390.718C134.015 390.718 134.539 389.885 135.302 390.674C135.29 390.928 135.198 391.172 135.039 391.371C134.88 391.571 134.662 391.716 134.415 391.787C134.21 391.235 133.447 391.48 133.678 390.911C133.153 391.476 132.489 391.898 131.75 392.136C131.012 392.374 130.223 392.42 129.462 392.269Z" fill="#F16EA3"/>
<path opacity="0.1" fill-rule="evenodd" clip-rule="evenodd" d="M128.237 422.344C128.396 423.22 127.225 423.72 128.103 424.771C126.284 424.666 126.914 426.41 125.13 426.472C125.085 426.218 124.975 425.979 124.81 425.779C124.34 426.463 123.816 426.244 123.337 426.787C122.822 425.989 122.396 426.585 121.863 425.49C122.103 423.536 123.319 422.712 122.973 420.539C124.491 419.697 126.568 420.101 128.237 422.344Z" fill="#F16EA3"/>
<path opacity="0.1" fill-rule="evenodd" clip-rule="evenodd" d="M113.093 412.959C113.475 413.143 113.634 413.379 113.333 413.747C113.157 413.774 112.977 413.736 112.827 413.642C112.836 413.391 112.93 413.151 113.093 412.959Z" fill="#F16EA3"/>
<path opacity="0.1" fill-rule="evenodd" clip-rule="evenodd" d="M116.271 435.875C116.431 435.972 116.271 436.226 116.191 436.419C117.239 436.313 117.185 436.839 118.499 437.164C118.615 438.11 118.712 440.52 117.194 440.669C116.884 441.291 117.239 441.922 116.431 442.667C114.895 442.667 113.129 443.105 111.824 441.571C112.179 439.775 111.824 438.066 114.167 438.066C114.079 436.664 115.384 435.314 116.271 435.875Z" fill="#F16EA3"/>
<path opacity="0.1" fill-rule="evenodd" clip-rule="evenodd" d="M128.441 404.231C128.583 404.073 128.769 404.23 128.947 404.335C129.133 403.258 129.621 403.336 130.305 402.013C131.246 401.943 133.589 401.961 133.314 403.512C133.829 403.862 134.53 403.512 135.027 404.388C134.557 405.965 134.521 407.797 132.675 409.059C131.05 408.603 129.284 408.919 130.012 406.492C128.565 406.518 127.624 405.116 128.441 404.231Z" fill="#F16EA3"/>
<path opacity="0.1" fill-rule="evenodd" clip-rule="evenodd" d="M127.243 435.674C125.911 435.209 124.58 434.718 124.375 432.326C125.08 431.606 125.708 430.816 126.248 429.968C126.393 430.018 126.547 430.037 126.7 430.025C126.852 430.013 127.001 429.97 127.136 429.899C126.994 431.161 128.769 430.275 129.497 430.828C130.074 430.197 129.834 429.075 131.272 428.935C131.796 429.241 131.725 430.223 131.423 430.617C130.731 430.424 130.243 431.336 129.923 430.687C129.907 431.668 129.656 432.631 129.19 433.498C128.724 434.365 128.057 435.11 127.243 435.674Z" fill="#F16EA3"/>
<path opacity="0.1" fill-rule="evenodd" clip-rule="evenodd" d="M34.0052 406.246C34.4223 406.062 34.9549 406.65 35.3188 406.054C35.6561 407.053 36.4373 406.518 36.8633 407.482C36.7389 407.535 36.6337 407.623 36.5616 407.736C37.032 407.92 37.032 408.227 37.4492 408.429C37.1385 408.797 37.5468 408.963 37.0852 409.366C36.0023 409.454 35.31 408.884 34.2271 409.305C33.8076 408.916 33.5519 408.385 33.5107 407.818C33.4696 407.252 33.6461 406.69 34.0052 406.246Z" fill="#F16EA3"/>
<path opacity="0.1" fill-rule="evenodd" clip-rule="evenodd" d="M102.859 434.201C103.24 434.385 103.4 434.631 103.098 434.99C103.013 435.008 102.924 435.008 102.839 434.99C102.753 434.972 102.672 434.936 102.602 434.885C102.603 434.634 102.694 434.392 102.859 434.201Z" fill="#F16EA3"/>
<path opacity="0.1" fill-rule="evenodd" clip-rule="evenodd" d="M130.26 412.416C130.402 412.258 130.589 412.416 130.766 412.521C130.953 411.443 131.45 411.522 132.124 410.199C133.065 410.129 135.409 410.146 135.133 411.706C135.648 412.056 136.349 411.706 136.846 412.582C136.376 414.16 136.34 415.991 134.494 417.253C132.87 416.797 131.103 417.113 131.831 414.685C130.384 414.703 129.444 413.301 130.26 412.416Z" fill="#F16EA3"/>
<path opacity="0.1" fill-rule="evenodd" clip-rule="evenodd" d="M129.674 384.286C129.816 384.128 130.003 384.286 130.18 384.391C130.367 383.313 130.855 383.392 131.538 382.069C132.479 381.999 134.823 382.016 134.547 383.576C135.062 383.926 135.763 383.576 136.252 384.452C135.79 386.03 135.755 387.861 133.908 389.123C132.284 388.667 130.518 388.983 131.245 386.556C129.799 386.573 128.867 385.171 129.674 384.286Z" fill="#F16EA3"/>
<path opacity="0.1" fill-rule="evenodd" clip-rule="evenodd" d="M80.4021 444.121C79.8962 442.465 79.4168 440.791 81.3607 438.469C82.772 438.285 83.2425 438.565 84.6982 438.101C84.7471 438.259 84.8293 438.406 84.9394 438.531C85.0495 438.657 85.1851 438.758 85.3373 438.828C84.139 439.818 86.1184 440.677 86.1362 441.843C87.0859 441.843 87.9114 440.624 88.9855 441.79C88.9617 442.169 88.8165 442.532 88.5709 442.825C88.3252 443.117 87.9918 443.326 87.6186 443.42C87.3079 442.605 86.1895 442.964 86.5357 442.097C85.7729 442.922 84.8089 443.542 83.7354 443.896C82.6619 444.25 81.5145 444.328 80.4021 444.121Z" fill="#F16EA3"/>
<path opacity="0.1" fill-rule="evenodd" clip-rule="evenodd" d="M128.742 364.752C129.355 364.489 130.127 365.339 130.651 364.472C131.148 365.926 132.284 365.155 132.897 366.557C132.716 366.627 132.563 366.753 132.462 366.917C133.136 367.18 133.136 367.635 133.704 367.924C133.261 368.45 133.855 368.704 133.181 369.291C131.601 369.405 130.589 368.582 129.035 369.195C128.429 368.627 128.062 367.854 128.008 367.03C127.953 366.206 128.216 365.393 128.742 364.752Z" fill="#F16EA3"/>
<path opacity="0.1" fill-rule="evenodd" clip-rule="evenodd" d="M134.743 396.195C135.124 396.379 135.284 396.624 134.982 396.992C134.805 397.02 134.624 396.979 134.477 396.879C134.487 396.628 134.581 396.388 134.743 396.195Z" fill="#F16EA3"/>
<path opacity="0.1" fill-rule="evenodd" clip-rule="evenodd" d="M133.722 391.787C133.944 391.945 133.66 392.287 133.545 392.567C135.054 392.567 134.912 393.312 136.74 393.952C136.785 395.354 136.616 398.876 134.441 398.894C133.918 399.77 134.335 400.717 133.101 401.698C130.909 401.436 128.325 401.891 126.657 399.473C127.402 396.914 127.065 394.355 130.438 394.731C130.5 392.602 132.524 390.806 133.722 391.787Z" fill="#F16EA3"/>
<path opacity="0.1" fill-rule="evenodd" clip-rule="evenodd" d="M126.639 375.409C126.781 375.251 126.968 375.409 127.145 375.523C127.331 374.436 127.82 374.524 128.503 373.192C129.444 373.122 131.787 373.139 131.512 374.699C132.027 375.049 132.728 374.699 133.225 375.575C132.755 377.153 132.719 378.993 130.873 380.255C129.249 379.79 127.482 380.115 128.21 377.678C126.763 377.661 125.822 376.285 126.639 375.409Z" fill="#F16EA3"/>
<path opacity="0.1" fill-rule="evenodd" clip-rule="evenodd" d="M128.317 380.762C128.026 380.13 127.933 379.427 128.049 378.742C128.164 378.057 128.483 377.421 128.964 376.916C129.729 376.923 130.492 376.84 131.237 376.67C131.271 376.777 131.328 376.876 131.402 376.96C131.477 377.044 131.569 377.113 131.672 377.161C130.855 377.835 132.204 378.422 132.222 379.211C132.861 379.211 133.394 378.387 134.157 379.211C134.143 379.463 134.051 379.705 133.892 379.903C133.733 380.101 133.515 380.245 133.27 380.316C133.065 379.763 132.293 380.009 132.533 379.439C132.005 380 131.34 380.417 130.601 380.649C129.862 380.881 129.075 380.92 128.317 380.762Z" fill="#F16EA3"/>
<path opacity="0.1" fill-rule="evenodd" clip-rule="evenodd" d="M132.515 361.624C132.16 362.834 131.778 364.034 129.906 364.674C129.107 364.227 128.973 363.877 128.05 363.57C128.116 363.339 128.094 363.093 127.988 362.878C128.974 362.746 128.272 361.44 128.698 360.73C128.201 360.362 127.349 360.783 127.198 359.626C127.332 359.412 127.537 359.25 127.778 359.169C128.02 359.087 128.282 359.091 128.521 359.179C128.37 359.793 129.089 360.056 128.583 360.415C129.287 360.219 130.033 360.228 130.731 360.443C131.429 360.658 132.049 361.068 132.515 361.624Z" fill="#F16EA3"/>
<path opacity="0.1" fill-rule="evenodd" clip-rule="evenodd" d="M35.3986 417.296C35.7093 417.165 36.1088 417.603 36.3751 417.156C36.6325 417.91 37.2627 417.507 37.5379 418.234C37.4461 418.271 37.3685 418.335 37.3159 418.418C37.6621 418.55 37.6621 418.786 37.955 418.935C37.7242 419.207 38.035 419.338 37.6799 419.645C36.8722 419.706 36.3484 419.277 35.5496 419.592C35.2357 419.299 35.0457 418.9 35.0178 418.474C34.9898 418.048 35.1258 417.627 35.3986 417.296Z" fill="#F16EA3"/>
<path opacity="0.1" fill-rule="evenodd" clip-rule="evenodd" d="M125.423 124.622C126.026 124.359 126.799 125.209 127.322 124.351C127.819 125.805 128.956 125.025 129.568 126.428C129.391 126.499 129.241 126.625 129.142 126.787C129.817 127.059 129.808 127.506 130.376 127.795C129.932 128.329 130.527 128.575 129.852 129.162C128.281 129.285 127.26 128.452 125.707 129.066C125.103 128.495 124.739 127.722 124.687 126.899C124.634 126.076 124.897 125.263 125.423 124.622Z" fill="#F16EA3"/>
<path opacity="0.1" fill-rule="evenodd" clip-rule="evenodd" d="M116.573 134.963C116.75 135.05 116.821 135.164 116.679 135.339C116.599 135.346 116.518 135.328 116.449 135.287C116.45 135.168 116.494 135.053 116.573 134.963Z" fill="#F16EA3"/>
<path opacity="0.1" fill-rule="evenodd" clip-rule="evenodd" d="M124.162 123.028C124.287 123.028 124.162 123.247 124.162 123.387C124.855 123.15 124.899 123.492 125.831 123.483C126.062 124.07 126.497 125.595 125.494 125.946C125.378 126.393 125.716 126.735 125.29 127.348C124.242 127.576 123.115 128.163 121.997 127.401C121.997 126.191 121.437 125.157 123.044 124.772C122.795 123.904 123.461 122.826 124.162 123.028Z" fill="#F16EA3"/>
<path opacity="0.1" fill-rule="evenodd" clip-rule="evenodd" d="M42.8816 125.823C42.8057 125.657 42.7813 125.474 42.8113 125.294C42.8413 125.115 42.9244 124.948 43.0502 124.815C43.3076 124.815 44.6391 124.815 44.8966 124.754C44.9188 124.809 44.9595 124.856 45.012 124.885C44.7989 125.061 45.1539 125.21 45.1539 125.42C45.3226 125.42 45.4646 125.201 45.6688 125.42C45.6621 125.487 45.6347 125.551 45.5902 125.603C45.5458 125.655 45.4865 125.692 45.4202 125.709C45.367 125.569 45.1628 125.63 45.225 125.473C44.4852 125.779 43.6801 125.899 42.8816 125.823Z" fill="#F16EA3"/>
<path opacity="0.1" fill-rule="evenodd" clip-rule="evenodd" d="M40.4053 377.249C40.5651 378.125 39.3934 378.624 40.2721 379.676C38.4969 379.571 39.0827 381.315 37.2986 381.376C37.2578 381.121 37.1474 380.881 36.979 380.684C36.5086 381.367 35.9848 381.148 35.5055 381.691C34.9996 380.894 34.5647 381.49 34.041 380.394C34.2807 378.44 35.4879 377.608 35.1417 375.443C36.6595 374.602 38.7365 375.014 40.4053 377.249Z" fill="#F16EA3"/>
<path opacity="0.1" fill-rule="evenodd" clip-rule="evenodd" d="M111.664 136.321C111.842 136.4 111.913 136.514 111.78 136.689C111.696 136.7 111.611 136.681 111.54 136.636C111.54 136.52 111.584 136.407 111.664 136.321Z" fill="#F16EA3"/>
<path opacity="0.1" fill-rule="evenodd" clip-rule="evenodd" d="M126.55 412.529C126.71 412.626 126.55 412.871 126.47 413.073C127.518 412.968 127.464 413.494 128.769 413.818C128.885 414.764 128.982 417.174 127.473 417.323C127.163 417.945 127.473 418.576 126.71 419.321C125.165 419.321 123.399 419.759 122.094 418.226C122.458 416.473 122.094 414.72 124.438 414.72C124.349 413.292 125.654 411.942 126.55 412.529Z" fill="#F16EA3"/>
<path opacity="0.1" fill-rule="evenodd" clip-rule="evenodd" d="M60.3238 437.549C60.4659 437.706 60.2439 437.864 60.1462 438.022C61.2025 438.346 61.0339 438.819 62.3032 439.66C62.25 440.589 61.9215 442.885 60.3948 442.412C59.9687 442.859 60.2084 443.586 59.2764 443.963C57.7585 443.297 55.9212 443.017 54.9004 441.045C55.575 439.511 55.495 437.75 57.8384 438.758C58.0071 437.365 59.5338 436.629 60.3238 437.549Z" fill="#F16EA3"/>
<path opacity="0.1" fill-rule="evenodd" clip-rule="evenodd" d="M126.692 173.136C126.941 173.46 126.541 174.012 127.136 174.222C126.328 174.739 126.976 175.291 126.248 175.87C126.177 175.776 126.078 175.705 125.964 175.668C125.902 176.106 125.627 176.177 125.538 176.545C125.148 176.361 125.086 176.755 124.651 176.44C124.34 175.52 124.651 174.792 124.083 173.968C124.339 173.539 124.747 173.217 125.227 173.064C125.708 172.91 126.229 172.936 126.692 173.136Z" fill="#F16EA3"/>
<path opacity="0.1" fill-rule="evenodd" clip-rule="evenodd" d="M43.5563 123.982C43.7249 124.858 42.5444 125.366 43.4231 126.409C41.6478 126.313 42.2337 128.048 40.4496 128.162C40.4112 127.905 40.304 127.663 40.1389 127.461C39.6596 128.153 39.1358 127.925 38.6565 128.469C38.1506 127.68 37.7156 128.276 37.1919 127.181C37.4316 125.218 38.6387 124.394 38.2926 122.229C39.8104 121.344 41.8786 121.756 43.5563 123.982Z" fill="#F16EA3"/>
<path opacity="0.1" fill-rule="evenodd" clip-rule="evenodd" d="M127.402 335.273C127.774 335.449 127.943 335.694 127.641 336.062C127.465 336.09 127.285 336.052 127.136 335.957C127.139 335.705 127.234 335.463 127.402 335.273Z" fill="#F16EA3"/>
<path opacity="0.1" fill-rule="evenodd" clip-rule="evenodd" d="M119.041 197.865C119.422 198.049 119.582 198.286 119.28 198.654C119.104 198.68 118.925 198.643 118.774 198.549C118.778 198.297 118.873 198.055 119.041 197.865Z" fill="#F16EA3"/>
<path opacity="0.1" fill-rule="evenodd" clip-rule="evenodd" d="M130.491 167.448C130.136 168.657 129.763 169.858 127.89 170.497C127.083 170.05 126.95 169.691 126.026 169.393C126.092 169.163 126.07 168.917 125.964 168.701C126.958 168.57 126.248 167.264 126.674 166.545C126.177 166.186 125.325 166.598 125.183 165.45C125.315 165.236 125.519 165.075 125.759 164.993C125.998 164.912 126.259 164.915 126.497 165.003C126.355 165.616 127.065 165.879 126.568 166.239C127.27 166.041 128.015 166.05 128.713 166.265C129.41 166.48 130.028 166.891 130.491 167.448Z" fill="#F16EA3"/>
<path opacity="0.1" fill-rule="evenodd" clip-rule="evenodd" d="M125.84 147.897C126.453 147.634 127.225 148.484 127.749 147.625C128.246 149.08 129.373 148.3 129.994 149.702C129.818 149.779 129.667 149.904 129.559 150.061C130.234 150.333 130.234 150.78 130.802 151.069C130.358 151.604 130.944 151.849 130.278 152.436C128.698 152.559 127.686 151.727 126.133 152.34C125.527 151.772 125.159 150.998 125.105 150.175C125.051 149.351 125.313 148.538 125.84 147.897Z" fill="#F16EA3"/>
<path opacity="0.1" fill-rule="evenodd" clip-rule="evenodd" d="M133.305 171.094C133.686 171.269 133.846 171.514 133.544 171.882C133.371 171.91 133.194 171.872 133.047 171.777C133.051 171.527 133.142 171.285 133.305 171.094Z" fill="#F16EA3"/>
<path opacity="0.1" fill-rule="evenodd" clip-rule="evenodd" d="M121.144 157.738C121.286 157.782 121.198 157.992 121.144 158.15C121.934 157.879 122.032 158.273 123.044 158.264C123.301 158.93 123.798 160.657 122.662 161.051C122.529 161.559 122.911 161.927 122.422 162.646C121.233 162.909 119.964 163.574 118.686 162.707C118.686 161.331 118.055 160.157 119.884 159.745C119.6 158.702 120.363 157.484 121.144 157.738Z" fill="#F16EA3"/>
<path opacity="0.1" fill-rule="evenodd" clip-rule="evenodd" d="M128.609 335.43C128.742 335.264 128.938 335.431 129.106 335.536C129.293 334.458 129.79 334.537 130.464 333.205C131.414 333.134 133.758 333.152 133.482 334.712C133.988 335.063 134.69 334.712 135.187 335.588C134.725 337.157 134.681 338.997 132.834 340.259C131.21 339.804 129.444 340.119 130.171 337.691C128.725 337.727 127.793 336.316 128.609 335.43Z" fill="#F16EA3"/>
<path opacity="0.1" fill-rule="evenodd" clip-rule="evenodd" d="M128.121 135.603C128.263 135.436 128.449 135.603 128.627 135.708C128.813 134.63 129.31 134.708 129.985 133.385C130.926 133.306 133.278 133.324 132.994 134.884C133.509 135.234 134.21 134.884 134.707 135.76C134.246 137.329 134.201 139.169 132.355 140.431C130.731 139.975 128.964 140.291 129.692 137.863C128.245 137.925 127.304 136.488 128.121 135.603Z" fill="#F16EA3"/>
<path opacity="0.1" fill-rule="evenodd" clip-rule="evenodd" d="M127.562 179.033C128.174 178.771 128.947 179.621 129.47 178.762C129.967 180.216 131.103 179.445 131.716 180.839C131.537 180.916 131.386 181.044 131.281 181.207C131.956 181.47 131.956 181.916 132.524 182.214C132.08 182.74 132.675 182.986 132 183.581C130.42 183.695 129.408 182.872 127.855 183.485C127.248 182.916 126.88 182.141 126.826 181.316C126.772 180.491 127.034 179.676 127.562 179.033Z" fill="#F16EA3"/>
<path opacity="0.1" fill-rule="evenodd" clip-rule="evenodd" d="M133.544 197.313C133.926 197.497 134.086 197.734 133.784 198.102C133.698 198.118 133.61 198.117 133.525 198.099C133.44 198.081 133.359 198.046 133.287 197.997C133.288 197.746 133.38 197.504 133.544 197.313Z" fill="#F16EA3"/>
<path opacity="0.1" fill-rule="evenodd" clip-rule="evenodd" d="M131.121 122.895C131.334 123.062 131.059 123.395 130.935 123.675C132.444 123.675 132.302 124.42 134.13 125.069C134.13 126.462 134.006 129.985 131.831 130.002C131.308 130.878 131.725 131.825 130.491 132.807C128.299 132.552 125.716 132.999 124.056 130.589C124.792 128.022 124.455 125.463 127.828 125.849C127.89 123.719 129.914 121.923 131.121 122.895Z" fill="#F16EA3"/>
<path opacity="0.1" fill-rule="evenodd" clip-rule="evenodd" d="M111.78 124.183C111.922 124.026 112.108 124.184 112.286 124.298C112.472 123.22 112.96 123.298 113.644 121.966C114.585 121.896 116.928 121.914 116.653 123.473C117.168 123.824 117.869 123.473 118.366 124.35C117.896 125.918 117.86 127.759 116.014 129.021C114.389 128.565 112.623 128.88 113.351 126.444C111.904 126.471 110.963 125.077 111.78 124.183Z" fill="#F16EA3"/>
<path opacity="0.1" fill-rule="evenodd" clip-rule="evenodd" d="M101.678 143.182C101.388 142.55 101.295 141.847 101.41 141.162C101.526 140.477 101.845 139.841 102.326 139.335C103.091 139.347 103.855 139.265 104.599 139.09C104.633 139.197 104.689 139.296 104.764 139.38C104.839 139.464 104.931 139.533 105.034 139.581C104.217 140.255 105.566 140.842 105.584 141.631C106.223 141.631 106.756 140.807 107.519 141.631C107.504 141.884 107.412 142.126 107.253 142.326C107.094 142.525 106.877 142.671 106.631 142.744C106.427 142.192 105.655 142.437 105.895 141.868C105.366 142.427 104.7 142.842 103.962 143.073C103.223 143.303 102.436 143.341 101.678 143.182Z" fill="#F16EA3"/>
<path opacity="0.1" fill-rule="evenodd" clip-rule="evenodd" d="M131.317 162.742C130.962 163.951 130.589 165.152 128.716 165.791C127.908 165.344 127.775 164.985 126.852 164.687C126.918 164.457 126.895 164.211 126.79 163.995C127.775 163.864 127.074 162.558 127.5 161.839C127.003 161.48 126.151 161.892 126.009 160.744C126.141 160.53 126.345 160.369 126.584 160.287C126.824 160.206 127.085 160.209 127.322 160.297C127.18 160.91 127.891 161.173 127.393 161.533C128.096 161.337 128.841 161.347 129.537 161.562C130.234 161.776 130.852 162.186 131.317 162.742Z" fill="#F16EA3"/>
<path opacity="0.1" fill-rule="evenodd" clip-rule="evenodd" d="M131.423 136.812C131.592 136.908 131.423 137.154 131.343 137.355C132.391 137.241 132.346 137.776 133.651 138.091C133.767 139.046 133.864 141.447 132.346 141.596C132.036 142.219 132.346 142.841 131.583 143.595C130.047 143.595 128.281 144.033 126.976 142.49C127.34 140.738 126.976 138.985 129.319 138.985C129.231 137.574 130.536 136.225 131.423 136.812Z" fill="#F16EA3"/>
<path opacity="0.1" fill-rule="evenodd" clip-rule="evenodd" d="M32.4076 123.755C32.5496 123.597 32.7361 123.755 32.9136 123.86C33.1 122.782 33.5971 122.861 34.2717 121.538C35.2126 121.467 37.5559 121.485 37.2807 123.045C37.7955 123.396 38.4968 123.045 38.9939 123.921C38.5234 125.499 38.4879 127.33 36.6416 128.601C35.0173 128.136 33.2509 128.452 33.9787 126.024C32.5319 126.042 31.591 124.64 32.4076 123.755Z" fill="#F16EA3"/>
<path opacity="0.1" fill-rule="evenodd" clip-rule="evenodd" d="M38.4879 136.374C37.8935 136.273 37.3537 135.97 36.9628 135.517C36.5718 135.064 36.3545 134.489 36.3486 133.894C36.8729 133.358 37.3399 132.771 37.7422 132.141C37.9517 132.201 38.1761 132.182 38.3725 132.089C38.266 133.026 39.5885 132.369 40.1477 132.781C40.5738 132.308 40.3962 131.502 41.4436 131.37C41.8342 131.598 41.7809 132.325 41.5502 132.623C41.0442 132.483 40.6625 133.158 40.4406 132.676C40.4339 133.4 40.2534 134.114 39.914 134.756C39.5746 135.399 39.0859 135.953 38.4879 136.374Z" fill="#F16EA3"/>
<path opacity="0.1" fill-rule="evenodd" clip-rule="evenodd" d="M48.3848 133.893C48.6688 133.77 49.0328 134.165 49.2724 133.762C49.5121 134.445 50.0358 134.086 50.3288 134.735C50.2451 134.768 50.1739 134.826 50.1246 134.901C50.4353 135.033 50.4352 135.243 50.7015 135.375C50.4973 135.62 50.7726 135.743 50.453 136.015C49.7252 136.067 49.2458 135.681 48.518 136.015C48.2227 135.746 48.0439 135.376 48.0191 134.98C47.9943 134.585 48.1253 134.195 48.3848 133.893Z" fill="#F16EA3"/>
<path opacity="0.1" fill-rule="evenodd" clip-rule="evenodd" d="M37.343 143.226C37.414 143.148 37.5028 143.227 37.5827 143.27C37.6714 142.771 37.9022 142.806 38.2128 142.184C38.6567 142.184 39.7484 142.184 39.6242 142.893C39.8638 143.051 40.1834 142.894 40.423 143.306C40.2011 144.033 40.1834 144.891 39.3224 145.487C38.559 145.268 37.7424 145.417 38.0708 144.287C37.4406 144.295 36.9613 143.638 37.343 143.226Z" fill="#F16EA3"/>
<path opacity="0.1" fill-rule="evenodd" clip-rule="evenodd" d="M128.21 145.434C128.272 145.356 128.361 145.435 128.441 145.478C128.529 144.979 128.76 145.014 129.08 144.392C129.515 144.392 130.615 144.392 130.482 145.093C130.722 145.259 131.05 145.093 131.281 145.505C131.068 146.241 131.05 147.1 130.189 147.687C129.426 147.476 128.6 147.625 128.929 146.486C128.263 146.495 127.828 145.811 128.21 145.434Z" fill="#F16EA3"/>
<path opacity="0.1" fill-rule="evenodd" clip-rule="evenodd" d="M100.063 129.328C99.8491 128.864 99.7804 128.348 99.8658 127.845C99.9512 127.342 100.187 126.876 100.542 126.507C101.104 126.509 101.664 126.447 102.211 126.322C102.236 126.401 102.277 126.474 102.332 126.536C102.387 126.598 102.455 126.647 102.531 126.682C101.936 127.181 102.921 127.611 102.93 128.189C103.409 128.189 103.818 127.585 104.359 128.189C104.351 128.38 104.279 128.563 104.156 128.71C104.033 128.857 103.864 128.96 103.676 129.004C103.525 128.601 102.957 128.785 103.134 128.347C102.75 128.756 102.266 129.061 101.728 129.233C101.191 129.405 100.617 129.438 100.063 129.328Z" fill="#F16EA3"/>
<path opacity="0.1" fill-rule="evenodd" clip-rule="evenodd" d="M116.662 136.671C116.946 136.549 117.301 136.943 117.55 136.54C117.78 137.224 118.313 136.856 118.597 137.513C118.513 137.547 118.442 137.605 118.393 137.68C118.712 137.811 118.712 138.013 118.979 138.153C118.766 138.398 119.041 138.513 118.73 138.793C117.993 138.846 117.523 138.46 116.795 138.749C116.512 138.483 116.342 138.121 116.317 137.736C116.292 137.351 116.416 136.971 116.662 136.671Z" fill="#F16EA3"/>
<path opacity="0.1" fill-rule="evenodd" clip-rule="evenodd" d="M117.434 141.342C117.611 141.429 117.691 141.543 117.549 141.709C117.508 141.717 117.465 141.717 117.424 141.708C117.383 141.699 117.344 141.681 117.31 141.657C117.32 141.542 117.363 141.433 117.434 141.342Z" fill="#F16EA3"/>
<path opacity="0.1" fill-rule="evenodd" clip-rule="evenodd" d="M39.42 151.56C39.4821 151.56 39.42 151.709 39.3668 151.787C39.8195 151.787 39.775 152.015 40.3165 152.208C40.3165 152.62 40.3165 153.672 39.633 153.68C39.4732 153.935 39.633 154.224 39.2336 154.557C38.5768 154.487 36.3843 154.618 35.8872 153.9C36.1251 153.443 36.4931 153.066 36.9458 152.814C37.3985 152.561 37.9161 152.445 38.4347 152.48C38.4525 151.805 39.0649 151.271 39.42 151.56Z" fill="#F16EA3"/>
<path opacity="0.1" fill-rule="evenodd" clip-rule="evenodd" d="M116.103 125.165C116.174 125.095 116.254 125.165 116.343 125.218C116.422 124.709 116.653 124.753 116.973 124.131C117.417 124.131 118.508 124.131 118.384 124.832C118.615 124.999 118.943 124.832 119.174 125.244C118.961 125.98 118.943 126.839 118.082 127.426C117.319 127.216 116.502 127.356 116.831 126.225C116.165 126.234 115.721 125.577 116.103 125.165Z" fill="#F16EA3"/>
<path opacity="0.1" fill-rule="evenodd" clip-rule="evenodd" d="M126.444 141.159C126.318 140.869 126.28 140.55 126.333 140.239C126.387 139.928 126.53 139.639 126.746 139.406C127.104 139.408 127.462 139.366 127.811 139.283C127.825 139.335 127.851 139.383 127.886 139.424C127.922 139.465 127.965 139.498 128.015 139.52C127.633 139.836 128.255 140.108 128.263 140.476C128.565 140.476 128.814 140.09 129.151 140.476C129.143 140.596 129.097 140.712 129.019 140.804C128.941 140.897 128.835 140.963 128.716 140.993C128.618 140.739 128.263 140.853 128.37 140.572C128.125 140.823 127.82 141.008 127.483 141.111C127.147 141.214 126.789 141.23 126.444 141.159Z" fill="#F16EA3"/>
<path opacity="0.1" fill-rule="evenodd" clip-rule="evenodd" d="M131.592 132.071C131.237 133.272 130.855 134.481 128.982 135.121C128.183 134.665 128.05 134.315 127.118 134.017C127.189 133.784 127.166 133.533 127.056 133.316C128.05 133.193 127.349 131.887 127.775 131.169C127.269 130.801 126.426 131.221 126.275 130.073C126.405 129.857 126.608 129.693 126.849 129.612C127.089 129.53 127.352 129.535 127.589 129.626C127.447 130.24 128.166 130.503 127.66 130.853C128.364 130.656 129.111 130.666 129.81 130.882C130.509 131.098 131.128 131.512 131.592 132.071Z" fill="#F16EA3"/>
<path opacity="0.1" fill-rule="evenodd" clip-rule="evenodd" d="M49.0864 125.963C49.69 125.7 50.4623 126.541 50.986 125.683C51.483 127.137 52.6192 126.366 53.2317 127.769C53.0541 127.84 52.9047 127.966 52.8057 128.128C53.4803 128.39 53.4713 128.838 54.0483 129.136C53.5956 129.661 54.1903 129.906 53.5157 130.502C51.9446 130.616 50.9238 129.793 49.3704 130.406C48.767 129.836 48.403 129.062 48.3504 128.239C48.2977 127.416 48.5604 126.604 49.0864 125.963Z" fill="#F16EA3"/>
<path opacity="0.1" fill-rule="evenodd" clip-rule="evenodd" d="M40.2365 136.304C40.414 136.391 40.4849 136.505 40.343 136.671C40.3029 136.679 40.2617 136.678 40.222 136.669C40.1823 136.66 40.1449 136.643 40.1123 136.619C40.1137 136.502 40.1579 136.39 40.2365 136.304Z" fill="#F16EA3"/>
<path opacity="0.1" fill-rule="evenodd" clip-rule="evenodd" d="M47.8258 124.394C47.9501 124.394 47.8258 124.613 47.8258 124.754C48.5181 124.508 48.5625 124.859 49.5034 124.85C49.7253 125.437 50.1603 126.962 49.1572 127.303C49.0418 127.759 49.3792 128.101 48.9531 128.706C47.9057 128.933 46.7784 129.529 45.66 128.758C45.66 127.558 45.1008 126.515 46.7162 126.129C46.4588 125.244 47.1246 124.166 47.8258 124.394Z" fill="#F16EA3"/>
<path opacity="0.1" fill-rule="evenodd" clip-rule="evenodd" d="M35.3279 137.653C35.5053 137.741 35.5851 137.855 35.4432 138.021C35.3659 138.049 35.2809 138.049 35.2036 138.021C35.1985 137.955 35.2068 137.888 35.2281 137.825C35.2495 137.762 35.2834 137.703 35.3279 137.653Z" fill="#F16EA3"/>
<path opacity="0.1" fill-rule="evenodd" clip-rule="evenodd" d="M38.8786 184.737C39.136 185.053 38.7366 185.614 39.3313 185.824C38.5236 186.341 39.1627 186.893 38.4437 187.472C38.372 187.378 38.273 187.307 38.1597 187.27C38.0976 187.708 37.8223 187.77 37.7247 188.146C37.343 187.962 37.2809 188.348 36.837 188.041C36.5264 187.121 36.8371 186.394 36.269 185.57C36.5231 185.138 36.9302 184.813 37.4121 184.66C37.8939 184.506 38.4163 184.534 38.8786 184.737Z" fill="#F16EA3"/>
<path opacity="0.1" fill-rule="evenodd" clip-rule="evenodd" d="M42.6866 179.05C42.3315 180.251 41.9498 181.46 40.0769 182.1C39.278 181.653 39.1892 181.293 38.2128 180.995C38.2869 180.764 38.2679 180.513 38.1596 180.295C39.1449 180.172 38.4436 178.866 38.8697 178.147C38.3726 177.779 37.5205 178.2 37.3696 177.052C37.5035 176.838 37.7085 176.676 37.9498 176.595C38.191 176.513 38.4534 176.517 38.6922 176.605C38.5413 177.219 39.2602 177.481 38.7543 177.841C39.4578 177.642 40.2048 177.651 40.9034 177.866C41.602 178.081 42.2218 178.492 42.6866 179.05Z" fill="#F16EA3"/>
<path opacity="0.1" fill-rule="evenodd" clip-rule="evenodd" d="M34.0497 162.655C34.6622 162.392 35.4254 163.242 35.9491 162.383C36.4551 163.838 37.5824 163.057 38.2038 164.459C38.0229 164.529 37.8701 164.655 37.7688 164.819C38.4434 165.09 38.4435 165.537 39.0116 165.826C38.5589 166.361 39.1536 166.606 38.479 167.194C36.9079 167.316 35.8871 166.484 34.3426 167.097C33.736 166.529 33.3689 165.756 33.3146 164.933C33.2603 164.109 33.5229 163.295 34.0497 162.655Z" fill="#F16EA3"/>
<path opacity="0.1" fill-rule="evenodd" clip-rule="evenodd" d="M45.4999 182.688C45.8814 182.871 46.0411 183.117 45.7394 183.485C45.6531 183.499 45.5648 183.496 45.4795 183.477C45.3943 183.457 45.3138 183.421 45.2427 183.371C45.2439 183.12 45.335 182.878 45.4999 182.688Z" fill="#F16EA3"/>
<path opacity="0.1" fill-rule="evenodd" clip-rule="evenodd" d="M40.1031 168.859C40.2451 168.903 40.1563 169.114 40.1031 169.271C40.8931 168.991 40.9375 169.385 42.0026 169.377C42.26 170.043 42.7571 171.778 41.6209 172.172C41.4878 172.68 41.8694 173.048 41.3812 173.758C40.1918 174.021 38.9136 174.696 37.6443 173.819C37.6443 172.452 37.0052 171.278 38.8337 170.866C38.5142 169.823 39.2776 168.596 40.1031 168.859Z" fill="#F16EA3"/>
<path opacity="0.1" fill-rule="evenodd" clip-rule="evenodd" d="M32.745 132.307C32.887 132.15 33.0735 132.307 33.251 132.413C33.4374 131.335 33.9345 131.414 34.6091 130.09C35.55 130.02 37.9022 130.038 37.6181 131.589C38.1329 131.939 38.8342 131.589 39.3313 132.465C38.8608 134.043 38.8253 135.874 36.979 137.136C35.3547 136.68 33.5883 136.996 34.3161 134.568C32.8693 134.595 31.9284 133.192 32.745 132.307Z" fill="#F16EA3"/>
<path opacity="0.1" fill-rule="evenodd" clip-rule="evenodd" d="M39.7571 190.635C40.3696 190.372 41.1418 191.222 41.6656 190.363C42.1626 191.818 43.2899 191.038 43.9113 192.44C43.7348 192.517 43.5841 192.642 43.4764 192.8C44.151 193.071 44.1509 193.518 44.719 193.807C44.2751 194.342 44.8699 194.587 44.1953 195.174C42.6153 195.297 41.6034 194.465 40.05 195.078C39.4435 194.51 39.0765 193.737 39.0222 192.913C38.9678 192.089 39.2303 191.276 39.7571 190.635Z" fill="#F16EA3"/>
<path opacity="0.1" fill-rule="evenodd" clip-rule="evenodd" d="M47.1424 129.284C47.2134 129.547 46.7873 129.643 46.5121 129.792C47.7104 130.669 47.1245 131.203 48.1542 132.824C47.3198 133.955 44.9943 136.627 43.2634 135.313C42.3137 135.672 42.0473 136.68 40.4585 136.706C38.8962 135.164 36.5795 133.946 36.7748 131.037C38.9583 129.468 40.3253 127.251 42.713 129.608C44.0888 127.96 46.814 127.785 47.1424 129.284Z" fill="#F16EA3"/>
<path opacity="0.1" fill-rule="evenodd" clip-rule="evenodd" d="M35.4432 125.524C35.5853 125.367 35.7716 125.525 35.9492 125.63C36.1356 124.552 36.6327 124.63 37.3073 123.307C38.2481 123.237 40.5915 123.255 40.3164 124.815C40.8312 125.165 41.5325 124.815 42.0295 125.691C41.5591 127.268 41.5236 129.1 39.6773 130.362C38.0529 129.906 36.2865 130.221 37.0144 127.794C35.5675 127.812 34.6266 126.41 35.4432 125.524Z" fill="#F16EA3"/>
<path opacity="0.1" fill-rule="evenodd" clip-rule="evenodd" d="M58.7435 141.159C58.4565 140.527 58.3658 139.824 58.4827 139.141C58.5996 138.458 58.9189 137.825 59.4004 137.321C60.1625 137.326 60.9224 137.24 61.6639 137.066C61.6972 137.175 61.7541 137.276 61.8308 137.36C61.9074 137.445 62.002 137.512 62.1077 137.557C61.2911 138.241 62.6314 138.819 62.6492 139.617C63.2971 139.617 63.8208 138.74 64.5842 139.573C64.5709 139.826 64.4785 140.069 64.3196 140.268C64.1606 140.468 63.9429 140.613 63.6965 140.686C63.4924 140.133 62.729 140.379 62.9598 139.809C62.4353 140.375 61.7711 140.797 61.0321 141.033C60.2931 141.27 59.5045 141.313 58.7435 141.159Z" fill="#F16EA3"/>
<path opacity="0.1" fill-rule="evenodd" clip-rule="evenodd" d="M43.5118 174.345C43.1567 175.554 42.7751 176.755 40.9022 177.395C40.1033 176.948 39.9702 176.588 39.0381 176.29C39.0774 176.175 39.0922 176.054 39.0815 175.933C39.0708 175.813 39.0348 175.696 38.9759 175.589C39.9701 175.467 39.2689 174.161 39.695 173.442C39.1979 173.074 38.3457 173.495 38.1948 172.347C38.3287 172.132 38.5338 171.971 38.7751 171.89C39.0163 171.808 39.2786 171.812 39.5174 171.9C39.3665 172.513 40.0855 172.776 39.5796 173.136C40.2831 172.937 41.03 172.946 41.7286 173.161C42.4272 173.375 43.047 173.787 43.5118 174.345Z" fill="#F16EA3"/>
<path opacity="0.1" fill-rule="evenodd" clip-rule="evenodd" d="M36.0472 133.542C36.2158 133.639 36.0471 133.884 35.9672 134.086C37.0146 133.981 36.9702 134.507 38.275 134.831C38.3904 135.777 38.4881 138.187 36.9702 138.336C36.6595 138.958 36.9702 139.589 36.2069 140.334C34.6713 140.334 32.9049 140.772 31.6001 139.23C31.9552 137.477 31.6001 135.725 33.9435 135.725C33.8902 134.279 35.1595 132.929 36.0472 133.542Z" fill="#F16EA3"/>
<path opacity="0.1" fill-rule="evenodd" clip-rule="evenodd" d="M32.8338 142.14C32.896 142.061 32.9846 142.14 33.0645 142.192C33.1533 141.684 33.3841 141.719 33.7037 141.105C34.1386 141.105 35.2393 141.106 35.1061 141.807C35.3458 141.965 35.6742 141.807 35.905 142.218C35.692 142.955 35.6743 143.805 34.8132 144.401C34.0499 144.182 33.2243 144.33 33.5528 143.2C32.887 143.182 32.4521 142.552 32.8338 142.14Z" fill="#F16EA3"/>
<path opacity="0.1" fill-rule="evenodd" clip-rule="evenodd" d="M79.7005 128.399C79.494 127.932 79.4294 127.417 79.5145 126.914C79.5996 126.412 79.8308 125.944 80.1799 125.569C80.7415 125.572 81.3015 125.51 81.8486 125.385C81.8754 125.464 81.9184 125.536 81.9749 125.598C82.0314 125.66 82.1002 125.71 82.1771 125.744C81.5735 126.244 82.5676 126.673 82.5764 127.26C83.0469 127.26 83.4641 126.647 83.9966 127.26C83.9882 127.451 83.917 127.634 83.7936 127.781C83.6702 127.928 83.5016 128.031 83.3132 128.075C83.1624 127.663 82.5942 127.847 82.7717 127.409C82.3881 127.819 81.9044 128.126 81.3668 128.299C80.8292 128.472 80.2555 128.507 79.7005 128.399Z" fill="#F16EA3"/>
<path opacity="0.1" fill-rule="evenodd" clip-rule="evenodd" d="M40.3252 138.012C40.6092 137.89 40.9643 138.284 41.2128 137.881C41.4436 138.556 41.9762 138.196 42.2603 138.854C42.1766 138.888 42.1053 138.946 42.056 139.02C42.3756 139.143 42.3756 139.353 42.6419 139.494C42.4288 139.739 42.704 139.853 42.3933 140.134C41.6566 140.186 41.1862 139.8 40.4583 140.081C40.1763 139.816 40.0058 139.456 39.9811 139.073C39.9565 138.689 40.0793 138.31 40.3252 138.012Z" fill="#F16EA3"/>
<path opacity="0.1" fill-rule="evenodd" clip-rule="evenodd" d="M41.0973 142.684C41.2747 142.762 41.3546 142.876 41.2126 143.051C41.1317 143.063 41.0492 143.045 40.9819 142.999C40.9838 142.884 41.0244 142.773 41.0973 142.684Z" fill="#F16EA3"/>
<path opacity="0.1" fill-rule="evenodd" clip-rule="evenodd" d="M39.766 126.532C39.837 126.453 39.9258 126.532 40.0056 126.576C40.0944 126.076 40.3252 126.111 40.6358 125.498C41.0796 125.498 42.1714 125.498 42.0471 126.199C42.2868 126.357 42.6064 126.199 42.8371 126.611C42.6241 127.347 42.6064 128.197 41.7454 128.793C40.982 128.574 40.1654 128.723 40.4938 127.593C39.8281 127.575 39.3843 126.918 39.766 126.532Z" fill="#F16EA3"/>
<path opacity="0.1" fill-rule="evenodd" clip-rule="evenodd" d="M31.0673 137.873C30.9426 137.583 30.9047 137.263 30.9582 136.953C31.0117 136.642 31.1544 136.353 31.3692 136.12C31.7244 136.12 32.0786 136.082 32.4254 136.006C32.4644 136.103 32.5366 136.184 32.6295 136.234C32.2567 136.549 32.8781 136.821 32.887 137.189C33.1888 137.189 33.4373 136.804 33.7746 137.189C33.7684 137.31 33.7227 137.426 33.6443 137.519C33.5659 137.613 33.459 137.678 33.3397 137.706C33.242 137.452 32.887 137.566 32.9935 137.286C32.7474 137.534 32.4424 137.718 32.106 137.821C31.7696 137.923 31.4125 137.941 31.0673 137.873Z" fill="#F16EA3"/>
<path opacity="0.1" fill-rule="evenodd" clip-rule="evenodd" d="M71.7387 133.052C71.3836 134.262 71.0108 135.462 69.1379 136.102C68.339 135.655 68.197 135.296 67.2739 134.998C67.3394 134.767 67.3173 134.521 67.2118 134.306C68.2059 134.174 67.4958 132.868 67.9218 132.15C67.4248 131.782 66.5727 132.202 66.4307 131.054C66.563 130.841 66.7664 130.679 67.0061 130.598C67.2458 130.516 67.5069 130.52 67.7443 130.607C67.6023 131.221 68.3213 131.484 67.8153 131.843C68.5174 131.644 69.2632 131.653 69.9605 131.867C70.6578 132.082 71.276 132.494 71.7387 133.052Z" fill="#F16EA3"/>
<path opacity="0.1" fill-rule="evenodd" clip-rule="evenodd" d="M57.1192 384.259C57.421 384.654 56.9417 385.363 57.6695 385.582C56.6842 386.204 57.4653 386.879 56.5422 387.581C56.4572 387.463 56.3355 387.377 56.196 387.335C56.125 387.869 55.7877 387.948 55.6812 388.413C55.2019 388.185 55.1309 388.658 54.5717 388.281C54.1989 387.168 54.6249 386.283 53.8882 385.275C54.1993 384.737 54.7042 384.333 55.3027 384.145C55.9013 383.957 56.5497 383.997 57.1192 384.259Z" fill="#F16EA3"/>
<path opacity="0.1" fill-rule="evenodd" clip-rule="evenodd" d="M124.429 314.758C124.739 315.153 124.251 315.862 124.979 316.081C123.994 316.703 124.775 317.378 123.852 318.08C123.767 317.963 123.645 317.876 123.506 317.834C123.435 318.369 123.106 318.447 122.991 318.912C122.52 318.684 122.44 319.157 121.881 318.78C121.508 317.668 121.934 316.782 121.198 315.783C121.507 315.243 122.012 314.838 122.61 314.648C123.209 314.458 123.858 314.497 124.429 314.758Z" fill="#F16EA3"/>
<path opacity="0.1" fill-rule="evenodd" clip-rule="evenodd" d="M123.328 321.629C123.257 321.936 123.115 322.094 122.786 321.945C122.741 321.82 122.741 321.683 122.786 321.558C122.97 321.525 123.159 321.55 123.328 321.629Z" fill="#F16EA3"/>
<path opacity="0.1" fill-rule="evenodd" clip-rule="evenodd" d="M33.7744 385.688C34.1878 385.364 34.6895 385.168 35.2158 385.126C35.7422 385.084 36.2693 385.197 36.7302 385.451C36.863 386.003 37.0658 386.536 37.3338 387.038C37.2609 387.082 37.1981 387.141 37.1492 387.21C37.1003 387.279 37.0665 387.358 37.0498 387.441C36.393 386.976 36.2154 388.054 35.6295 388.212C35.7538 388.676 36.4551 388.904 36.0113 389.596C35.8168 389.641 35.6129 389.619 35.4326 389.534C35.2522 389.45 35.1058 389.309 35.0171 389.132C35.3899 388.878 35.0704 388.378 35.5497 388.44C35.0401 388.169 34.6092 387.774 34.2984 387.293C33.9876 386.811 33.8072 386.258 33.7744 385.688Z" fill="#F16EA3"/>
<path opacity="0.1" fill-rule="evenodd" clip-rule="evenodd" d="M44.2128 306.047C43.84 306.222 43.4672 305.758 43.0944 306.257C42.9346 305.442 42.2068 305.916 41.9849 305.136C42.0929 305.085 42.1872 305.01 42.2601 304.917C41.8961 304.785 41.9405 304.522 41.6387 304.373C41.9405 304.058 41.6387 303.935 42.0647 303.576C42.9523 303.462 43.4939 303.909 44.4436 303.506C44.9939 304.084 45.0472 305.057 44.2128 306.047Z" fill="#F16EA3"/>
<path opacity="0.1" fill-rule="evenodd" clip-rule="evenodd" d="M130.393 308.045C130.393 308.186 130.136 308.107 129.976 308.089C130.251 308.826 129.852 308.887 129.852 309.842C129.169 310.096 127.411 310.604 127.021 309.544C126.506 309.43 126.133 309.798 125.405 309.36C125.148 308.247 124.517 307.055 125.405 305.855C126.79 305.784 127.997 305.189 128.396 306.906C129.426 306.608 130.642 307.3 130.393 308.045Z" fill="#F16EA3"/>
<path opacity="0.1" fill-rule="evenodd" clip-rule="evenodd" d="M130.42 324.932C130.562 325.002 130.42 325.177 130.42 325.317C131.255 325.256 131.308 325.624 132.391 325.87C132.613 326.536 133.03 328.227 131.823 328.314C131.663 328.744 132.027 329.191 131.485 329.699C130.234 329.655 128.876 329.962 127.606 328.867C127.606 327.613 127.092 326.395 129.018 326.465C128.752 325.457 129.612 324.502 130.42 324.932Z" fill="#F16EA3"/>
<path opacity="0.1" fill-rule="evenodd" clip-rule="evenodd" d="M132.417 312.392C132.559 312.462 132.417 312.637 132.417 312.777C133.243 312.716 133.305 313.084 134.379 313.33C134.601 313.996 135.018 315.687 133.82 315.775C133.651 316.204 134.024 316.651 133.474 317.159C132.231 317.115 130.864 317.422 129.595 316.327C129.595 315.073 129.08 313.855 131.006 313.925C130.713 312.9 131.583 311.971 132.417 312.392Z" fill="#F16EA3"/>
<path opacity="0.1" fill-rule="evenodd" clip-rule="evenodd" d="M124.153 284.464C124.349 284.718 124.038 285.173 124.508 285.34C123.869 285.743 124.375 286.216 123.781 286.637C123.722 286.562 123.641 286.507 123.55 286.479C123.55 286.821 120.967 286.873 120.887 287.171C120.585 287.022 120.532 287.329 120.177 287.084C119.928 286.365 120.177 285.796 119.733 285.147C120.115 284.472 123.212 284.113 124.153 284.464Z" fill="#F16EA3"/>
<path opacity="0.1" fill-rule="evenodd" clip-rule="evenodd" d="M76.1142 303.225C76.0521 303.532 75.9013 303.699 75.573 303.542C75.5232 303.421 75.5232 303.285 75.573 303.164C75.755 303.12 75.9471 303.141 76.1142 303.225Z" fill="#F16EA3"/>
<path opacity="0.1" fill-rule="evenodd" clip-rule="evenodd" d="M126.523 434.227C126.461 434.367 126.23 434.227 126.053 434.227C126.275 435.042 125.831 435.103 125.724 436.164C124.943 436.374 120.221 436.777 119.91 435.585C119.351 435.419 118.872 435.786 118.135 435.243C117.975 434.008 117.372 432.667 118.49 431.422C120.026 431.422 124.144 430.932 124.393 432.825C125.618 432.571 126.905 433.429 126.523 434.227Z" fill="#F16EA3"/>
<path opacity="0.1" fill-rule="evenodd" clip-rule="evenodd" d="M63.1819 436.962C63.3239 437.032 63.1819 437.207 63.1819 437.347C64.0074 437.286 64.0695 437.654 65.1435 437.899C65.3654 438.565 65.7826 440.256 64.5843 440.344C64.4157 440.773 64.7885 441.22 64.2381 441.729C62.9954 441.685 61.6285 441.992 60.3592 440.852C60.4035 439.599 59.8444 438.381 61.7706 438.442C61.5309 437.47 62.4008 436.532 63.1819 436.962Z" fill="#F16EA3"/>
<path opacity="0.1" fill-rule="evenodd" clip-rule="evenodd" d="M132.817 331.233C132.282 331.288 131.743 331.194 131.26 330.961C130.776 330.729 130.369 330.368 130.083 329.918C130.312 329.427 130.473 328.909 130.562 328.376C130.747 328.38 130.927 328.317 131.068 328.201C131.343 328.893 132.178 328.148 132.781 328.323C132.959 327.894 132.497 327.359 133.323 327.044C133.508 327.099 133.667 327.217 133.772 327.378C133.876 327.539 133.918 327.731 133.891 327.92C133.412 327.92 133.376 328.49 133.003 328.192C133.275 328.662 133.401 329.2 133.368 329.74C133.335 330.28 133.144 330.798 132.817 331.233Z" fill="#F16EA3"/>
<path opacity="0.1" fill-rule="evenodd" clip-rule="evenodd" d="M48.4473 255.649C48.7024 255.448 49.0127 255.326 49.3385 255.299C49.6642 255.273 49.9905 255.343 50.2757 255.501C50.3605 255.844 50.4857 256.176 50.6486 256.491C50.602 256.515 50.5617 256.551 50.5309 256.593C50.5001 256.636 50.4797 256.685 50.4711 256.736C50.0717 256.447 49.9563 257.113 49.5835 257.21C49.6634 257.499 50.0982 257.639 49.823 258.086C49.703 258.111 49.578 258.096 49.4673 258.043C49.3566 257.991 49.2664 257.904 49.2106 257.797C49.4325 257.648 49.2106 257.332 49.539 257.367C49.2207 257.2 48.9523 256.954 48.7607 256.652C48.5691 256.351 48.4611 256.005 48.4473 255.649Z" fill="#F16EA3"/>
<path opacity="0.1" fill-rule="evenodd" clip-rule="evenodd" d="M96.7522 331.592C96.8409 331.636 96.7522 331.741 96.7522 331.829C97.267 331.829 97.2936 332.022 97.9771 332.17C98.1102 332.591 98.3677 333.634 97.6221 333.687C97.5245 333.958 97.7552 334.23 97.4179 334.563C96.6456 334.563 95.7935 334.729 95.0124 334.046C95.0124 333.274 94.6929 332.521 95.9001 332.556C95.7136 331.872 96.2462 331.294 96.7522 331.592Z" fill="#F16EA3"/>
<path opacity="0.1" fill-rule="evenodd" clip-rule="evenodd" d="M129.754 270.066C129.423 270.098 129.09 270.038 128.791 269.892C128.493 269.747 128.243 269.522 128.068 269.242C128.212 268.939 128.311 268.617 128.361 268.287C128.417 268.291 128.474 268.284 128.527 268.266C128.58 268.248 128.63 268.219 128.672 268.182C128.84 268.611 129.364 268.182 129.737 268.26C129.852 267.998 129.559 267.664 130.074 267.463C130.187 267.5 130.284 267.574 130.348 267.673C130.413 267.772 130.441 267.889 130.429 268.006C130.127 268.006 130.101 268.357 129.87 268.173C130.036 268.466 130.114 268.8 130.094 269.136C130.073 269.472 129.955 269.794 129.754 270.066Z" fill="#F16EA3"/>
<path opacity="0.1" fill-rule="evenodd" clip-rule="evenodd" d="M59.6312 363.385C59.7643 363.385 59.6312 363.631 59.6312 363.78C60.4034 363.517 60.4567 363.902 61.4952 363.894C61.7437 364.542 62.232 366.234 61.1136 366.619C60.9893 367.119 61.3621 367.495 60.8828 368.179C59.72 368.433 58.4684 369.055 57.2257 368.24C57.2257 366.899 56.6043 365.743 58.3973 365.348C58.0778 364.323 58.8323 363.14 59.6312 363.385Z" fill="#F16EA3"/>
<path opacity="0.1" fill-rule="evenodd" clip-rule="evenodd" d="M128.911 300.631C128.693 300.156 128.622 299.627 128.709 299.112C128.796 298.597 129.036 298.119 129.399 297.74C129.973 297.751 130.546 297.689 131.104 297.556C131.131 297.635 131.174 297.709 131.231 297.772C131.287 297.835 131.356 297.887 131.432 297.924C130.82 298.432 131.832 298.87 131.849 299.466C132.329 299.466 132.737 298.844 133.305 299.466C133.292 299.66 133.218 299.845 133.092 299.995C132.966 300.144 132.795 300.251 132.604 300.299C132.444 299.887 131.867 300.071 132.045 299.624C131.654 300.044 131.161 300.357 130.612 300.533C130.063 300.71 129.477 300.744 128.911 300.631Z" fill="#F16EA3"/>
<path opacity="0.1" fill-rule="evenodd" clip-rule="evenodd" d="M135.151 307.862C135.275 308.51 134.388 308.896 135.045 309.685C133.678 309.606 134.157 310.92 132.817 310.964C132.783 310.774 132.701 310.596 132.577 310.447C132.222 310.955 131.831 310.798 131.467 311.201C131.086 310.605 130.757 311.052 130.367 310.228C130.544 308.756 131.45 308.134 131.192 306.504C132.328 305.873 133.9 306.179 135.151 307.862Z" fill="#F16EA3"/>
<path opacity="0.1" fill-rule="evenodd" clip-rule="evenodd" d="M121.712 421.626C121.996 421.766 122.121 421.942 121.89 422.222C121.76 422.242 121.627 422.214 121.517 422.143C121.514 421.953 121.583 421.768 121.712 421.626Z" fill="#F16EA3"/>
<path opacity="0.1" fill-rule="evenodd" clip-rule="evenodd" d="M119.413 428.181C119.538 428.251 119.413 428.443 119.36 428.592C120.141 428.505 120.106 428.908 121.135 429.144C121.215 429.863 121.295 431.668 120.159 431.773C119.919 432.246 120.159 432.72 119.582 433.281C118.428 433.281 117.097 433.605 116.111 432.448C116.386 431.098 116.111 429.819 117.887 429.819C117.762 428.759 118.748 427.742 119.413 428.181Z" fill="#F16EA3"/>
<path opacity="0.1" fill-rule="evenodd" clip-rule="evenodd" d="M39.7038 397.316C39.7659 397.246 39.8458 397.316 39.9168 397.36C39.9967 396.896 40.2096 396.931 40.5025 396.361C40.9109 396.361 43.9732 396.361 43.8578 397.01C44.0797 397.159 44.3816 397.01 44.5946 397.387C44.3905 398.061 44.3727 398.859 43.5827 399.402C42.8815 399.2 40.0322 399.341 40.3695 398.289C39.757 398.289 39.3487 397.684 39.7038 397.316Z" fill="#F16EA3"/>
<path opacity="0.1" fill-rule="evenodd" clip-rule="evenodd" d="M124.553 431.081C123.952 430.978 123.406 430.67 123.012 430.21C122.618 429.75 122.4 429.169 122.396 428.566C122.927 428.032 123.4 427.445 123.807 426.813C123.912 426.849 124.022 426.863 124.133 426.854C124.243 426.845 124.35 426.813 124.446 426.761C124.34 427.716 125.671 427.05 126.222 427.462C126.666 426.989 126.479 426.173 127.544 426.042C127.935 426.27 127.882 427.006 127.651 427.304C127.127 427.155 126.763 427.847 126.524 427.356C126.513 428.086 126.329 428.803 125.986 429.45C125.644 430.097 125.153 430.655 124.553 431.081Z" fill="#F16EA3"/>
<path opacity="0.1" fill-rule="evenodd" clip-rule="evenodd" d="M36.2331 427.988C36.6946 427.786 37.2716 428.426 37.671 427.777C38.0438 428.873 38.896 428.286 39.3576 429.346C39.2224 429.401 39.1077 429.496 39.0291 429.618C39.544 429.811 39.535 430.153 39.97 430.372C39.6327 430.775 40.0765 430.959 39.5706 431.397C38.39 431.485 37.6267 430.862 36.455 431.327C36.0007 430.899 35.7257 430.318 35.6846 429.7C35.6435 429.081 35.8393 428.47 36.2331 427.988Z" fill="#F16EA3"/>
<path opacity="0.1" fill-rule="evenodd" clip-rule="evenodd" d="M37.3071 428.979C37.591 429.119 37.7064 429.303 37.4846 429.575C37.3519 429.598 37.2152 429.57 37.103 429.496C37.1125 429.307 37.1841 429.125 37.3071 428.979Z" fill="#F16EA3"/>
<path opacity="0.1" fill-rule="evenodd" clip-rule="evenodd" d="M33.8896 419.759C33.9962 419.636 34.1382 419.759 34.2714 419.838C34.4134 419.032 34.7772 419.093 35.2921 418.085C36.0022 418.033 37.7597 418.042 37.5556 419.216C37.9373 419.479 38.4432 419.216 38.8426 419.873C38.4875 421.056 38.4609 422.441 37.0673 423.378C35.8424 423.037 34.5199 423.273 35.0436 421.45C33.9962 421.477 33.286 420.425 33.8896 419.759Z" fill="#F16EA3"/>
<path opacity="0.1" fill-rule="evenodd" clip-rule="evenodd" d="M120.949 425.806C120.63 425.109 120.527 424.334 120.654 423.579C120.78 422.824 121.13 422.123 121.659 421.564C122.505 421.574 123.349 421.48 124.171 421.284C124.208 421.403 124.269 421.513 124.352 421.607C124.434 421.7 124.536 421.776 124.651 421.828C123.763 422.581 125.245 423.221 125.254 424.097C125.973 424.097 126.55 423.177 127.393 424.053C127.378 424.338 127.27 424.611 127.087 424.832C126.903 425.053 126.653 425.21 126.373 425.28C126.142 424.676 125.29 424.938 125.556 424.29C124.984 424.911 124.26 425.377 123.453 425.642C122.647 425.908 121.784 425.964 120.949 425.806Z" fill="#F16EA3"/>
<path opacity="0.1" fill-rule="evenodd" clip-rule="evenodd" d="M135.435 299.046C135.719 299.186 135.843 299.362 135.613 299.643C135.483 299.662 135.351 299.634 135.24 299.564C135.239 299.374 135.309 299.189 135.435 299.046Z" fill="#F16EA3"/>
<path opacity="0.1" fill-rule="evenodd" clip-rule="evenodd" d="M31.9546 427.664C31.7359 427.188 31.6656 426.659 31.7526 426.144C31.8395 425.629 32.0798 425.152 32.4429 424.772C33.0168 424.776 33.5891 424.711 34.1472 424.579C34.1732 424.661 34.2158 424.736 34.2722 424.801C34.3287 424.866 34.3979 424.918 34.4756 424.956C33.8631 425.464 34.875 425.902 34.8839 426.498C35.3721 426.498 35.7715 425.876 36.3485 426.498C36.3422 426.699 36.2707 426.893 36.1445 427.051C36.0182 427.209 35.8438 427.322 35.6472 427.375C35.4875 426.954 34.9105 427.138 35.088 426.691C34.6925 427.103 34.1972 427.408 33.649 427.578C33.1007 427.748 32.5176 427.778 31.9546 427.664Z" fill="#F16EA3"/>
<path opacity="0.1" fill-rule="evenodd" clip-rule="evenodd" d="M39.9168 282.342C39.8395 282.867 39.6145 283.359 39.2677 283.764C38.9209 284.168 38.4661 284.468 37.9551 284.63C37.3515 284.297 37.2539 284.025 36.5527 283.806C36.6166 283.637 36.6166 283.45 36.5527 283.28C37.2983 283.184 36.7657 282.202 37.0852 281.659C36.7124 281.387 36.0733 281.659 35.9668 280.835C36.0661 280.675 36.2188 280.554 36.3987 280.494C36.5786 280.433 36.7742 280.436 36.9521 280.502C36.8455 280.967 37.3871 281.133 37.0054 281.431C37.5281 281.291 38.0805 281.303 38.5968 281.464C39.113 281.626 39.5712 281.931 39.9168 282.342Z" fill="#F16EA3"/>
<path opacity="0.1" fill-rule="evenodd" clip-rule="evenodd" d="M122.343 425.552C122.458 426.2 121.579 426.595 122.236 427.383C120.869 427.304 121.348 428.61 120.008 428.663C119.973 428.471 119.89 428.29 119.768 428.137C119.413 428.654 119.014 428.487 118.659 428.899C118.268 428.295 117.949 428.75 117.549 427.918C117.727 426.454 118.641 425.832 118.384 424.202C119.52 423.606 121.082 423.878 122.343 425.552Z" fill="#F16EA3"/>
<path opacity="0.1" fill-rule="evenodd" clip-rule="evenodd" d="M130.065 311.235C130.349 311.367 130.473 311.551 130.242 311.832C130.111 311.852 129.977 311.821 129.87 311.744C129.868 311.556 129.937 311.375 130.065 311.235Z" fill="#F16EA3"/>
<path opacity="0.1" fill-rule="evenodd" clip-rule="evenodd" d="M71.2503 437.444C71.3746 437.514 71.2504 437.698 71.1882 437.856C71.9782 437.768 71.9427 438.171 72.9635 438.408C73.0434 439.127 73.1233 440.932 71.9782 441.037C71.7475 441.51 71.9782 441.974 71.4101 442.544C70.2473 442.544 68.9247 442.868 67.9395 441.712C68.2146 440.362 67.9395 439.083 69.7147 439.083C69.5993 438.014 70.5757 436.997 71.2503 437.444Z" fill="#F16EA3"/>
<path opacity="0.1" fill-rule="evenodd" clip-rule="evenodd" d="M36.6239 423.956C36.7215 423.834 36.8636 423.957 36.9967 424.035C37.1388 423.229 37.5116 423.282 38.0175 422.283C38.7276 422.23 40.494 422.238 40.2809 423.413C40.6715 423.676 41.1686 423.413 41.5681 424.07C41.2219 425.253 41.1864 426.638 39.7928 427.575C38.5679 427.234 37.2453 427.47 37.7779 425.648C36.7127 425.674 36.0025 424.622 36.6239 423.956Z" fill="#F16EA3"/>
<path opacity="0.1" fill-rule="evenodd" clip-rule="evenodd" d="M32.6295 418.348C32.0283 418.245 31.4829 417.937 31.0885 417.477C30.6942 417.018 30.4762 416.435 30.4727 415.833C31.0039 415.299 31.4769 414.712 31.884 414.08C32.0962 414.142 32.3241 414.123 32.523 414.028C32.4165 414.974 33.748 414.317 34.2983 414.72C34.7421 414.247 34.5557 413.432 35.6209 413.301C36.0114 413.529 35.9582 414.273 35.7274 414.563C35.2126 414.422 34.8398 415.106 34.6091 414.624C34.5957 415.354 34.4098 416.071 34.0661 416.717C33.7224 417.364 33.2305 417.922 32.6295 418.348Z" fill="#F16EA3"/>
<path opacity="0.1" fill-rule="evenodd" clip-rule="evenodd" d="M129.577 321.594C129.861 321.734 129.985 321.91 129.754 322.19C129.622 322.209 129.486 322.182 129.373 322.112C129.382 321.922 129.454 321.74 129.577 321.594Z" fill="#F16EA3"/>
<path opacity="0.1" fill-rule="evenodd" clip-rule="evenodd" d="M37.9907 430.108C38.0972 429.985 38.2393 430.108 38.3636 430.187C38.5056 429.38 38.8783 429.442 39.3843 428.434C40.0944 428.381 41.8608 428.39 41.6567 429.565C42.0383 429.827 42.5442 429.565 42.9348 430.231C42.5886 431.414 42.562 432.79 41.1595 433.736C39.9435 433.386 38.6121 433.622 39.1447 431.799C38.0795 431.826 37.3782 430.774 37.9907 430.108Z" fill="#F16EA3"/>
<path opacity="0.1" fill-rule="evenodd" clip-rule="evenodd" d="M48.0298 331.969C47.7122 331.27 47.611 330.493 47.7389 329.737C47.8668 328.981 48.2181 328.279 48.7487 327.719C49.594 327.726 50.4372 327.635 51.2607 327.447C51.297 327.566 51.3586 327.676 51.4412 327.77C51.5239 327.864 51.6257 327.939 51.7401 327.991C50.8524 328.736 52.326 329.384 52.3437 330.26C53.0538 330.26 53.6396 329.384 54.4828 330.26C54.4659 330.545 54.358 330.817 54.1746 331.038C53.9912 331.258 53.7418 331.415 53.4621 331.487C53.2314 330.874 52.3792 331.145 52.6455 330.497C52.067 331.11 51.3393 331.568 50.5315 331.825C49.7236 332.083 48.8625 332.133 48.0298 331.969Z" fill="#F16EA3"/>
<path opacity="0.1" fill-rule="evenodd" clip-rule="evenodd" d="M41.3549 417.919C41.6388 418.051 41.763 418.235 41.5412 418.516C41.4075 418.532 41.2723 418.501 41.1597 418.428C41.1685 418.242 41.237 418.064 41.3549 417.919Z" fill="#F16EA3"/>
<path opacity="0.1" fill-rule="evenodd" clip-rule="evenodd" d="M40.5913 414.598C40.76 414.721 40.5913 414.975 40.4582 415.185C41.5855 415.185 41.4878 415.746 42.8547 416.228C42.8547 417.279 42.766 419.926 41.1328 419.943C40.7333 420.592 41.0529 421.31 40.1209 422.055C38.4787 421.854 36.5703 422.195 35.2832 420.381C35.8335 418.453 35.5851 416.534 38.1237 416.815C38.1681 415.211 39.686 413.862 40.5913 414.598Z" fill="#F16EA3"/>
<path opacity="0.1" fill-rule="evenodd" clip-rule="evenodd" d="M121.073 418.182C121.188 418.252 121.073 418.436 121.011 418.585C121.801 418.506 121.757 418.901 122.742 419.146C122.831 419.856 122.902 421.67 121.765 421.775C121.526 422.24 121.765 422.713 121.188 423.274C120.035 423.274 118.703 423.607 117.718 422.45C117.993 421.101 117.718 419.821 119.493 419.821C119.422 418.752 120.398 417.735 121.073 418.182Z" fill="#F16EA3"/>
<path opacity="0.05" d="M137.929 434.929C138.204 447.81 99.335 445.208 80.5082 445.444C65.3563 445.663 24.9956 449.546 28.2621 432.571C13.2877 435.63 -11.7525 436.076 6.28424 445.19C24.321 454.304 52.4412 460.088 80.0555 459.982C137.832 459.676 165.411 448.45 168.819 447.443C177.686 444.893 174.686 435.183 137.929 434.929Z" fill="#66636C"/>
<path opacity="0.05" d="M160.236 443.762C161.372 441.308 148.803 434.999 137.486 437.093C134.565 443.526 104.981 447.793 73.3808 446.365C51.7846 445.384 34.3249 444.954 27.8806 435.244C21.4187 435.244 0.257512 440.31 9.08948 443.315C22.9011 448.021 55.1932 455.882 84.6449 455.996C102.877 456.031 157.821 448.95 160.236 443.762Z" fill="#66636C"/>
<path opacity="0.05" d="M137.832 436.751C137.148 444.778 91.2223 445.19 83.6862 445.646C62.17 446.943 40.9466 444.533 28.2889 438.486C19.4126 438.486 10.3854 438.425 20.034 442.394C37.8399 449.721 64.4157 453.2 89.8908 452.429C117.807 451.552 144.037 445.278 146.407 442.684C149.788 439.047 141.72 438.039 137.832 436.751Z" fill="#66636C"/>
<path d="M70.7978 214.831C70.9001 215.01 71.0503 215.158 71.2318 215.258C71.4134 215.359 71.6194 215.408 71.8275 215.401C72.0224 215.413 72.2172 215.374 72.3919 215.288C72.5666 215.202 72.7149 215.072 72.8216 214.91C73.1099 214.322 73.2615 213.679 73.2654 213.026L74.5969 213.192C74.58 214.138 74.2702 215.055 73.7092 215.821C73.4537 216.083 73.1435 216.287 72.8001 216.419C72.4568 216.55 72.0885 216.606 71.7209 216.583C71.3301 216.599 70.941 216.524 70.585 216.364C70.2289 216.204 69.9158 215.964 69.6706 215.664C69.0579 214.645 68.7904 213.46 68.9071 212.281V207.181C68.7904 206.004 69.058 204.822 69.6706 203.807C69.9193 203.515 70.2331 203.284 70.5872 203.132C70.9414 202.98 71.3263 202.911 71.7121 202.931C72.0669 202.905 72.4233 202.95 72.7603 203.063C73.0972 203.176 73.4078 203.355 73.6737 203.588C74.2057 204.255 74.4963 205.079 74.4992 205.928L73.1145 206.27C73.0986 205.689 72.9499 205.12 72.6795 204.604C72.5813 204.462 72.4488 204.346 72.2939 204.266C72.139 204.187 71.9665 204.146 71.7919 204.149C71.5901 204.148 71.3921 204.202 71.2197 204.306C71.0473 204.41 70.9074 204.559 70.8155 204.736C70.5222 205.422 70.4003 206.167 70.4605 206.909V212.719C70.3945 213.44 70.5104 214.165 70.7978 214.831Z" fill="#66636C"/>
<path d="M76.2656 216.339V203.194H78.6179C79.0262 203.171 79.4346 203.238 79.8137 203.389C80.1928 203.541 80.5331 203.773 80.8103 204.07C81.4234 205.008 81.6956 206.123 81.5826 207.234V207.33C81.5826 209.232 81.121 210.441 80.1801 210.949L81.7601 216.313H80.1979L78.7155 211.291H77.8279V216.313L76.2656 216.339ZM80.0825 207.575V207.006C80.1453 206.314 80.01 205.619 79.6919 204.999C79.5784 204.821 79.4195 204.675 79.2309 204.577C79.0424 204.478 78.831 204.43 78.6179 204.438H77.7834V210.161H78.6179C79.5943 210.134 80.047 209.267 80.047 207.549L80.0825 207.575Z" fill="#66636C"/>
<path d="M85.0712 210.397V215.138H88.382V216.338H83.5977V203.193H88.3731V204.394H85.1155V209.179H88.0358V210.379L85.0712 210.397Z" fill="#66636C"/>
<path d="M94.7992 216.338L94.2045 212.929H91.5416L90.9647 216.338H89.4468L91.8789 203.193H93.8938L96.3259 216.338H94.7992ZM92.8819 205.104L91.7369 211.729H94.0003L92.8819 205.104Z" fill="#66636C"/>
<path d="M99.2555 216.338H97.7998V203.193H100.117L101.732 212.289L103.365 203.193H105.682V216.338H104.209V204.525L102.593 213.56H100.898L99.2822 204.525L99.2555 216.338Z" fill="#66636C"/>
<path d="M106.854 216.338V214.585H108.354V216.338H106.854Z" fill="#66636C"/>
<path d="M109.552 216.338V203.193H111.114V215.12H114.061V216.321L109.552 216.338Z" fill="#66636C"/>
<path d="M117.603 216.338H116.12V211.957L113.617 203.193H115.1L116.875 209.967L118.65 203.193H120.133L117.638 211.957L117.603 216.338Z" fill="#66636C"/>
<path d="M55.6634 195.157C54.7751 195.272 53.9443 195.654 53.2845 196.253C52.1118 197.194 51.0543 198.268 50.1335 199.451C48.0209 202.08 45.9527 205.287 45.429 208.653C45.2036 210.428 45.4758 212.231 46.2161 213.864C46.9564 215.497 48.1363 216.898 49.6275 217.915C51.0699 218.888 52.7366 219.489 54.4749 219.662C56.2132 219.835 57.9677 219.575 59.5778 218.906C61.3368 218.156 62.7737 216.821 63.6382 215.133C64.5027 213.446 64.7401 211.512 64.309 209.669C63.6788 206.76 61.8414 204.63 59.8708 202.527C57.9003 200.424 56.0629 198.26 55.8765 195.245C55.8765 195.175 55.7521 195.157 55.7078 195.157" stroke="#66636C" stroke-width="2" stroke-linecap="round" stroke-linejoin="round"/>
<path d="M138.871 114.561V434.656C138.871 436.882 136.287 437.995 133.19 439.24C121.402 443.989 106.632 447.214 83.8105 447.214C60.9894 447.214 45.1096 444.366 34.103 439.231C31.0672 437.82 28.4043 436.874 28.4043 434.648V114.264" stroke="#66636C" stroke-width="2" stroke-linecap="round" stroke-linejoin="round"/>
<path opacity="0.1" d="M139.287 114.264C139.287 114.264 98.3054 118.961 88.5236 118.751C78.7419 118.54 67.2204 118.61 57.4031 118.146C47.5859 117.681 28.1112 115.245 28.1112 115.245L27.5786 121.441C27.5786 121.441 48.935 125.56 57.9179 125.63C67.4156 125.709 78.3336 125.77 87.8224 125.928C96.6188 126.077 138.586 122.344 138.586 122.344L139.287 114.264Z" fill="#F16EA3"/>
<path opacity="0.1" d="M137.557 199.215C134.095 202.633 136.483 161.244 134.708 127.979C134.317 120.67 108.593 121.634 86.58 122.002C67.3982 122.327 44.231 121.696 39.713 121.126C30.0023 119.864 29.1856 117.997 27.792 115.438C31.7686 115.438 56.7022 117.804 79.044 118.435C101.519 119.058 129.071 117.927 138.853 115.622C140.726 118.085 139.235 159.991 138.56 176.624C138.303 183.152 141.019 195.762 137.557 199.215Z" fill="#F16EA3"/>
<path d="M115.339 116.665C106.463 117.033 95.6251 117.243 83.9616 117.243C53.5512 117.243 28.9282 115.798 28.9282 114.019C28.9282 113.046 38.5147 111.188 50.1161 110.592V105.387L117.053 105.133V110.592C128.689 111.188 139.039 113.037 139.039 114.019C139.039 115 132.426 115.771 121.828 116.359" stroke="#66636C" stroke-width="2" stroke-linecap="round" stroke-linejoin="round"/>
<path opacity="0.1" d="M42.7661 111.714C34.3868 112.8 63.2526 114.544 83.109 114.544C106.915 114.544 129.852 112.581 124.34 111.495C122.272 111.083 116.937 110.785 116.937 110.785L116.742 104.65C106.043 106.241 95.2494 107.137 84.4316 107.332C68.7737 107.534 50.0357 104.703 50.0357 104.703L49.9381 110.636C49.9381 110.636 45.9438 111.302 42.7661 111.714Z" fill="#F16EA3"/>
<path opacity="0.1" d="M50.1781 108.681C50.1781 108.681 70.4518 110.977 84.5385 110.784C98.6253 110.591 115.659 108.576 115.659 108.576L116.28 104.852C116.28 104.852 96.1932 107.98 80.988 107.376C65.7828 106.771 50.0894 105.386 50.0894 105.386L50.1781 108.681Z" fill="#F16EA3"/>
<path opacity="0.1" d="M45.8198 111.486C45.8198 111.486 71.4725 113.904 85.5504 113.484C109.073 112.783 119.28 111.083 119.28 111.083L116.946 110.785C116.946 110.785 96.6724 112.537 81.4406 112.178C66.2088 111.819 50.3202 110.583 50.3202 110.583L45.8198 111.486Z" fill="#F16EA3"/>
<path opacity="0.1" d="M86.9707 107.175C86.9707 107.175 107.04 108.48 107.244 113.186C110.986 112.892 114.708 112.388 118.393 111.679L117.079 105.378C117.079 105.378 93.6635 106.508 92.7492 106.579C91.4355 106.675 86.9707 107.175 86.9707 107.175Z" fill="#F16EA3"/>
<path opacity="0.1" d="M50.089 105.387L49.9736 110.767L60.0128 112.187L61.9389 106.281L50.089 105.387Z" fill="#F16EA3"/>
<path opacity="0.1" d="M50.6837 105.501L50.1777 111.206C50.1777 111.206 51.0654 111.81 55.9562 112.205C54.0301 110.11 53.4176 105.904 53.4176 105.904L50.6837 105.501Z" fill="#F16EA3"/>
<path opacity="0.1" d="M110.999 106.281C112.021 108.365 112.273 110.737 111.709 112.985C116.147 112.783 117.034 111.381 117.034 111.381V105.378L110.999 106.281Z" fill="#F16EA3"/>
<path opacity="0.1" d="M46.3169 111.065C46.3169 111.065 60.9274 113.571 83.926 113.571C107.457 113.571 119.804 110.662 119.804 110.662L117.47 110.364C117.47 110.364 96.9654 113.098 81.7602 112.773C71.426 112.449 61.1172 111.571 50.8794 110.145L46.3169 111.065Z" fill="#F16EA3"/>
<path opacity="0.1" d="M51.0565 108.384C51.0565 108.384 71.3302 109.725 85.4169 109.611C99.5037 109.497 116.537 108.323 116.537 108.323L117.159 106.149C117.159 106.149 97.0716 107.972 81.8664 107.621C66.6612 107.271 50.9678 106.465 50.9678 106.465L51.0565 108.384Z" fill="#F16EA3"/>
<path d="M47.6748 105.607V61.4838H50.6572V58.1013H65.0547V13.5663C61.3053 12.4992 57.3591 12.2897 53.5154 12.9531C52.7165 10.8674 52.9828 3.56769 52.9828 3.56769C52.9828 3.56769 56.8441 2.884 66.0045 4.94336C75.1649 7.00273 91.4174 5.653 95.5538 4.5313C106.18 1.60885 117.279 0.749081 128.237 1.99904C142.235 3.82179 161.727 9.0097 165.89 11.9279C166.263 16.3095 161.248 20.2529 161.248 20.2529C161.248 20.2529 143.806 14.9949 132.595 13.9783C121.384 12.9618 101.785 15.6257 101.785 15.6257V58.1013H116.706V61.4838H119.689V105.607C107.733 107.283 95.6728 108.126 83.5974 108.131C71.5777 108.13 59.5733 107.287 47.6748 105.607Z" fill="white"/>
<path d="M121.073 63.4373L118.411 61.3342C118.411 61.3956 120.541 55.822 120.541 55.8833C120.541 56.8911 116.316 57.1803 109.774 57.8375C103.232 58.4947 94.2581 58.8191 84.2633 58.8191C74.8987 58.8191 60.3859 57.6801 53.9417 57.277C51.6782 57.1367 49.6899 56.3041 48.8466 56.4443C48.7845 56.4443 50.6841 59.5203 50.6841 60.9136L47.7104 64.1382L48.1543 104.633C48.1543 106.649 64.3447 108.288 84.3254 108.288C104.306 108.288 120.496 106.649 120.496 104.633H120.692L121.073 63.4373Z" fill="white"/>
<path opacity="0.05" d="M119.76 60.5627C119.138 60.0632 117.984 61.6931 116.689 60.5627C116.538 60.4225 117.576 58.4332 116.147 57.7146C114.256 56.7156 109.126 56.9259 101.723 56.8383C102.078 42.7733 101.723 22.3635 102.078 15.1688C98.4742 14.9848 97.3469 15.1687 89.4647 16.159C88.8345 18.674 88.1333 62.7794 84.9556 63.6645C103.898 69.9477 97.8174 108.506 97.8174 108.506C97.8174 108.506 113.972 108.366 120.692 106.429C119.911 96.0537 121.313 61.8158 119.76 60.5627Z" fill="#66636C"/>
<path opacity="0.05" d="M119.396 60.5632C118.508 60.9664 118.979 62.0703 117.195 61.194C117.123 61.194 117.887 58.2318 116.147 57.5308C113.395 56.4178 107.129 57.3558 102.265 57.3558C100.614 44.3161 101.723 24.4058 101.901 15.1519C99.4685 14.5209 96.1309 15.6866 90.8939 15.3273C89.7666 15.3886 96.0244 60.1248 92.3407 61.6321C117.594 73.3836 102.806 105.974 109.028 106.553C112.597 106.935 116.207 106.494 119.573 105.264C119.573 105.264 119.396 66.9429 119.396 60.5632Z" fill="#66636C"/>
<path opacity="0.05" d="M72.4929 61.4482C72.4929 61.4482 72.7415 32.5296 75.6085 15.5289C75.9902 13.2943 100.942 17.2816 101.412 15.5289C101.971 13.4433 102.451 5.60893 117.674 1.50774C117.336 1.50774 114.957 0.920515 107.91 1.85818C98.5184 3.0938 86.917 5.64371 80.6059 5.60866C68.0015 5.53856 54.1988 2.59411 52.6276 3.85601C51.74 4.59212 53.5153 12.2513 53.5153 12.2513C53.5153 12.2513 66.3948 13.0224 65.1255 12.8734C64.6639 21.549 64.8947 44.1497 64.2379 57.8466C62.0188 58.2059 52.9383 56.234 50.8257 57.6186C50.2843 57.9779 51.1719 60.1427 50.524 60.7649C49.876 61.3871 47.6925 60.4841 47.5859 60.8171C48.5446 65.0322 48.6688 105.51 48.6688 105.51C53.1573 106.706 57.797 107.258 62.4449 107.148C62.8799 85.3893 63.5634 68.7129 65.1078 63.6215C67.6106 63.0407 70.0765 62.315 72.4929 61.4482Z" fill="#66636C"/>
<path opacity="0.05" d="M47.3197 61.0197C47.4795 60.4062 48.7311 61.7119 50.3288 60.564C50.9324 60.1346 50.6217 57.4266 51.4827 57.5931C52.0596 57.707 61.8503 57.7684 64.8949 57.5931C64.4334 47.5504 65.1256 13.0322 65.1256 12.1646C65.1256 11.297 54.19 12.2258 54.19 12.2258C54.19 12.2258 52.4857 3.75188 53.0716 3.16474C56.0895 0.141421 62.9154 5.37309 77.0377 5.59217C91.16 5.81125 106.134 1.84147 116.431 0.737305C96.5124 6.03906 92.7666 15.2139 92.4648 15.7572C91.7724 17.0541 78.5911 14.5829 72.5463 14.0045C68.5697 26.9303 69.8301 48.8825 69.262 61.8258C66.7056 62.4831 64.886 63.6833 59.3383 64.139C55.9564 73.8574 57.1015 105.747 57.1015 105.747L48.7932 105.309C48.7932 105.309 46.3167 65.042 47.3197 61.0197Z" fill="#66636C"/>
<path d="M47.4619 105.054V60.922H50.4444V57.5481H64.8506V13.0135C61.1022 11.9423 57.1557 11.7295 53.3114 12.3913C52.5214 10.3057 52.7788 3.00592 52.7788 3.00592C52.7788 3.00592 56.64 2.331 65.8004 4.3816C74.9608 6.4322 91.2223 5.10042 95.3498 3.96997C105.979 1.04887 117.081 0.191435 128.041 1.44583C142.03 3.26858 161.523 8.45669 165.686 11.3661C166.068 15.7477 161.044 19.6912 161.044 19.6912C161.044 19.6912 143.602 14.4333 132.391 13.4255C121.18 12.4178 101.581 15.0639 101.581 15.0639V57.5481H116.44V60.922H119.422V105.054C107.472 106.715 95.4176 107.546 83.3489 107.543C71.3421 107.55 59.3498 106.718 47.4619 105.054V105.054Z" stroke="#66636C" stroke-width="2" stroke-linecap="round" stroke-linejoin="round"/>
<path opacity="0.05" d="M47.6036 64.3138C48.1451 64.1298 72.6793 66.9427 83.6771 66.8024C106.409 66.4431 119.573 63.9544 119.573 63.9544V61.1063L116.91 60.7473C116.91 60.7473 117.629 58.0744 116.369 57.5398C112.818 56.0588 89.4112 58.2933 85.8784 58.2583C81.1296 58.1969 79.239 58.2583 74.1528 58.0743C71.8539 58.0042 65.8179 57.2681 63.6965 57.198C59.7909 57.049 53.7461 56.9702 50.888 57.9078C50.888 61.2904 48.3316 60.8085 48.0031 60.7559C46.6983 60.5631 47.6036 64.3138 47.6036 64.3138Z" fill="#66636C"/>
<path opacity="0.05" d="M47.9678 63.3666C48.5004 63.2878 73.7625 65.2595 84.7603 65.1894C107.493 65.0405 119.937 63.2177 119.937 63.2177L119.396 60.5887C119.396 60.5887 99.5571 62.797 84.778 62.7269C69.9989 62.6568 49.4235 60.4834 48.1631 60.4133C46.9026 60.3432 47.9678 63.3666 47.9678 63.3666Z" fill="#66636C"/>
<path opacity="0.05" d="M63.874 58.5471C64.1581 58.4157 77.4281 60.5012 83.2155 60.3785C95.1631 60.1156 101.705 58.2844 101.705 58.2844V56.1899C101.705 56.1899 90.9912 56.9084 83.2155 56.8471C66.9629 56.7244 65.4007 47.2952 64.7439 47.2075C64.087 47.1199 63.874 58.5471 63.874 58.5471Z" fill="#66636C"/>
<path opacity="0.05" d="M64.6198 16.3432C64.9127 16.2731 79.958 18.8322 85.5413 20.5323C99.6547 24.8438 101.519 43.7198 101.519 43.7198L101.749 14.5735C101.749 14.5735 91.4974 14.021 83.6507 13.9509C75.804 13.8808 65.4098 13.4427 64.744 13.3638C64.0783 13.2849 64.6198 16.3432 64.6198 16.3432Z" fill="#66636C"/>
<path opacity="0.05" d="M65.2145 15.3619C65.4986 15.2304 78.3159 16.422 84.1033 16.2994C96.0509 16.0365 101.67 27.6128 101.67 27.6128L101.723 15.3443C101.723 15.3443 92.0388 15.3442 84.2631 15.1864C76.4875 15.0287 65.5607 12.8117 64.895 12.6802C64.2293 12.5488 65.2145 15.3619 65.2145 15.3619Z" fill="#66636C"/>
<path opacity="0.05" d="M110.812 14.4593C123.95 8.26374 132.009 8.26377 139.172 2.66406C157.68 5.90646 165.739 10.919 165.739 10.919C165.739 10.919 162.455 18.2888 160.067 19.4631C148.723 16.5187 129.018 11.8041 110.812 14.4593Z" fill="#66636C"/>
<path opacity="0.05" d="M135.888 13.8635C142.989 10.5335 154.724 11.5761 158.576 8.56152C161.559 9.74456 165.739 10.9188 165.739 10.9188C165.739 10.9188 162.482 18.096 161.195 18.727C155.088 17.1408 146.93 15.9317 135.888 13.8635Z" fill="#66636C"/>
</g>
<defs>
<clipPath id="clip0_2385_18209">
<rect width="173" height="460" fill="white"/>
</clipPath>
</defs>
</svg>
