<svg width="120" height="460" viewBox="0 0 120 460" fill="none" xmlns="http://www.w3.org/2000/svg">
<rect width="120" height="460" fill="white"/>
<g clip-path="url(#clip0_2391_16598)">
<path opacity="0.05" d="M101.273 436.892C98.2021 450.881 68.8587 449.634 57.7116 450.262C46.7955 450.872 18.8037 450.007 16.5966 434.462C5.79168 437.192 -7.65658 439.804 5.34691 447.968C18.3504 456.132 36.7349 458.671 56.5994 459.864C77.405 461.111 108.784 453.593 115.945 451.509C122.361 449.652 123.576 443.181 101.273 436.892Z" fill="#66636C"/>
<path opacity="0.05" d="M109.931 446.303C110.915 444.219 108.331 441.343 100.401 440.05C98.296 445.82 72.5799 451.127 49.7981 449.844C34.2281 448.933 22.2426 446.203 17.5802 437.502C9.30758 437.557 1.91612 442.562 8.28099 445.256C18.2389 449.479 38.6681 456.178 59.9185 456.26C73.0589 456.324 108.93 448.424 109.931 446.303Z" fill="#66636C"/>
<path opacity="0.05" d="M99.0662 439.813C98.57 447.022 72.6229 449.361 67.2162 449.77C51.6976 450.935 22.0376 447.468 18.1109 439.895C11.7289 439.895 8.07604 441.152 15.1766 444.264C29.1639 450.399 45.4012 454.795 63.7173 453.083C70.373 452.465 83.1798 451.818 89.7329 449.852C96.919 447.695 99.5453 447.322 104.362 444.474C107.476 442.544 101.872 440.96 99.0662 439.813Z" fill="#66636C"/>
<path d="M100.965 268.306C100.862 261.935 100.529 255.518 99.853 249.193C99.6734 247.445 99.4167 245.679 99.1772 243.905C100.033 235.449 99.1772 226.803 98.6639 218.329C98.6154 217.399 98.3975 216.487 98.0223 215.645C98.0223 211.74 98.1335 207.835 98.3046 203.94C98.4051 202.602 98.1057 201.264 97.4491 200.118C97.4832 199.916 97.4832 199.71 97.4491 199.508C96.9272 196.186 94.8142 196.049 91.9055 195.867C90.0918 195.776 87.2089 194.648 85.438 194.957C83.881 195.239 82.3155 195.44 80.7499 195.603C75.232 194.375 69.466 194.456 63.8368 194.566H62.5022C61.6835 194.235 60.8107 194.083 59.9357 194.119L58.1649 194.192H58.0194C57.6946 194.115 57.3557 194.141 57.0441 194.265C54.1526 194.399 51.2639 194.578 48.378 194.802H48.1556C43.245 194.42 36.0674 193.655 31.1569 196.049L27.8633 196.286C27.4621 196.051 27.0335 195.874 26.5886 195.758C24.896 195.281 23.0948 195.533 21.5754 196.459C20.1111 197.375 19.0378 198.859 18.5812 200.6C18.2905 201.855 18.2905 203.167 18.5812 204.423C18.4567 205.295 18.4915 206.185 18.6839 207.044C18.4929 207.684 18.3807 208.348 18.3502 209.019C17.1126 237.979 16.3113 266.962 15.9463 295.965C15.9383 296.599 16.0044 297.232 16.1431 297.849C15.9513 298.511 15.8872 299.208 15.9548 299.897C16.4339 304.751 16.7989 309.59 17.0498 314.414C16.4942 317.996 16.1769 321.615 16.1003 325.244C16.0721 326.276 16.2591 327.302 16.6478 328.248C16.4526 333.222 16.5012 338.204 16.7933 343.174L16.9643 347.179C16.5622 355.598 16.2628 363.98 17.9567 372.299C17.2552 384.394 16.6649 396.499 16.9643 408.623C16.9726 409.914 17.3256 411.177 17.9823 412.263C17.469 417.16 18.2048 422.484 18.3331 427.144C18.3458 427.932 18.4787 428.713 18.7267 429.456C18.5984 432.569 18.5128 435.672 18.5042 438.785C18.5042 443.472 22.0887 445.693 25.5021 445.456C52.6213 451.035 92.3675 446.985 93.8817 444.546C95.1942 444.195 96.3492 443.365 97.1451 442.201C97.9409 441.036 98.3271 439.612 98.2362 438.175C97.9025 422.366 98.1078 406.557 98.4243 390.738C98.7238 375.484 98.2447 359.902 100.135 344.748C100.245 343.797 100.09 342.832 99.6904 341.973C99.7503 341.49 99.8017 341.017 99.8616 340.535C99.8579 340.514 99.8579 340.492 99.8616 340.471C100.009 339.831 100.081 339.173 100.075 338.514V338.186C100.042 337.577 99.9793 336.969 99.8873 336.366C99.7927 335.837 99.607 335.331 99.3398 334.874L99.8787 326.728C99.961 325.756 99.8413 324.778 99.528 323.861C99.9557 318.813 100.375 313.761 100.785 308.707C100.912 307.404 100.61 306.094 99.93 305.002C100.529 292.752 101.17 280.538 100.965 268.306Z" fill="white"/>
<path opacity="0.02" d="M98.7494 410.123C96.0118 346.213 99.0659 364.807 98.7494 305.084C98.6296 280.783 95.4728 282.13 90.9216 282.13C83.3761 282.13 72.2719 282.239 67.0277 282.13C56.3683 281.902 32.8764 281.884 18.0935 282.13C17.1866 299.504 17.7855 406.892 17.6743 417.414C17.3492 450.479 25.6646 442.597 36.3839 444.463C46.6438 446.207 57.007 447.174 67.3955 447.357C82.0758 447.576 77.8325 447.976 90.8189 441.569C93.009 440.486 99.9385 437.837 98.7494 410.123Z" fill="#66636C"/>
<path opacity="0.05" d="M99.6049 283.113L79.2014 282.53L75.8906 446.247C75.8906 446.247 94.643 446.839 97.3977 442.734C100.152 438.629 99.6049 283.113 99.6049 283.113Z" fill="#66636C"/>
<path opacity="0.05" d="M100.709 283.122L88.5776 281.356L89.1252 445.082L97.9539 443.326L100.709 283.122Z" fill="#66636C"/>
<path opacity="0.05" d="M37.2736 281.356H15.2104L18.7436 441.715C18.7436 441.715 33.0133 444.882 38.42 444.491C38.3772 439.376 37.2736 281.356 37.2736 281.356Z" fill="#66636C"/>
<path opacity="0.05" d="M97.3978 197.441C96.2943 195.093 79.749 195.093 79.749 195.093V267.859C79.749 267.859 96.8589 268.45 100.161 267.276C99.605 247.909 98.5014 199.789 97.3978 197.441Z" fill="#66636C"/>
<path opacity="0.05" d="M97.9539 199.789C97.1925 196.312 86.918 195.093 86.918 195.093L89.6812 269.033L100.709 268.451C100.709 268.451 99.605 207.416 97.9539 199.789Z" fill="#66636C"/>
<path opacity="0.05" d="M35.0749 193.919L18.521 198.615L16.8101 269.607C16.8101 269.607 29.7024 269.443 35.0749 269.051V193.919Z" fill="#66636C"/>
<path d="M98.2191 439.812C98.2181 440.985 97.8624 442.126 97.2045 443.067C96.5466 444.008 95.6215 444.698 94.5661 445.036C90.2202 446.447 73.0676 448.34 58.3959 448.34C43.7242 448.34 26.3748 446.42 21.9519 445.009C20.8911 444.682 19.9577 444 19.2903 443.063C18.623 442.127 18.2574 440.987 18.2476 439.812L16.5366 283.786V268.923L18.2476 201.627C18.2474 200.324 18.6854 199.063 19.4824 198.074C20.2794 197.084 21.3829 196.43 22.5935 196.23C28.1114 195.32 46.9665 193.937 59.2856 193.937C70.9032 193.937 88.783 195.22 93.8903 196.121C95.087 196.336 96.1731 196.995 96.9562 197.982C97.7393 198.968 98.1686 200.218 98.1678 201.509L99.8788 268.923V285.606L98.2191 439.812Z" stroke="#66636C" stroke-width="2" stroke-linecap="round" stroke-linejoin="round"/>
<path d="M16.8276 268.56H99.6907" stroke="#66636C" stroke-width="2" stroke-linecap="round" stroke-linejoin="round"/>
<path d="M31.6787 282.794L99.9813 282.667" stroke="#66636C" stroke-width="2" stroke-linecap="round" stroke-linejoin="round"/>
<path d="M16.5879 282.795H25.2113" stroke="#66636C" stroke-width="2" stroke-linecap="round" stroke-linejoin="round"/>
<path opacity="0.3" fill-rule="evenodd" clip-rule="evenodd" d="M95.4127 378.442C95.8234 379.006 95.1733 380.035 96.1485 380.345C94.8311 381.255 95.8748 382.219 94.6343 383.23C94.5206 383.061 94.3584 382.936 94.1723 382.875C94.0782 383.648 93.6333 383.785 93.4793 384.431C92.8462 384.103 92.7522 384.786 91.9993 384.24C91.5031 382.638 92.0678 381.364 91.084 379.917C91.4997 379.138 92.1757 378.554 92.9777 378.28C93.7797 378.007 94.649 378.065 95.4127 378.442Z" fill="#52AFA3" fill-opacity="0.56"/>
<path opacity="0.3" fill-rule="evenodd" clip-rule="evenodd" d="M94.8401 371.234C95.2507 371.798 94.592 372.827 95.5758 373.145C94.2583 374.056 95.302 375.011 94.0615 376.022C93.9457 375.855 93.7843 375.731 93.5995 375.667C93.5054 376.44 93.0606 376.577 92.9067 377.223C92.2736 376.904 92.1795 377.578 91.4267 377.041C90.9305 375.43 91.495 374.156 90.5112 372.709C90.927 371.93 91.6031 371.346 92.4051 371.072C93.2071 370.799 94.0763 370.857 94.8401 371.234Z" fill="#52AFA3" fill-opacity="0.56"/>
<path opacity="0.3" fill-rule="evenodd" clip-rule="evenodd" d="M57.2836 426.963C57.1895 427.408 56.9927 427.636 56.5564 427.418C56.4916 427.242 56.4916 427.047 56.5564 426.871C56.8018 426.82 57.0561 426.852 57.2836 426.963Z" fill="#52AFA3" fill-opacity="0.56"/>
<path opacity="0.3" fill-rule="evenodd" clip-rule="evenodd" d="M26.8024 363.88C26.8024 364.043 26.5629 363.998 26.4003 364.025C26.8709 364.79 26.4858 364.936 26.7681 366.073C26.1522 366.519 24.5268 367.511 23.851 366.41C23.3035 366.41 22.9955 366.92 22.14 366.592C21.5754 365.4 20.583 364.226 21.1476 362.642C22.5249 362.232 23.5601 361.277 24.4327 363.115C25.4165 362.451 26.8452 362.97 26.8024 363.88Z" fill="#52AFA3" fill-opacity="0.56"/>
<path opacity="0.3" fill-rule="evenodd" clip-rule="evenodd" d="M84.8135 422.921C85.3689 422.456 86.0413 422.176 86.7461 422.116C87.4509 422.056 88.1565 422.219 88.7743 422.584C88.956 423.38 89.226 424.15 89.5785 424.878C89.4824 424.944 89.3996 425.029 89.335 425.129C89.2703 425.229 89.2251 425.342 89.2021 425.461C88.3466 424.796 88.0814 426.371 87.3029 426.571C87.474 427.236 88.4065 427.572 87.8077 428.573C87.5494 428.623 87.2831 428.584 87.0466 428.463C86.8101 428.342 86.6155 428.145 86.4902 427.9C86.9864 427.536 86.5501 426.798 87.2002 426.889C86.5162 426.501 85.9374 425.932 85.5194 425.237C85.1015 424.542 84.8584 423.745 84.8135 422.921Z" fill="#52AFA3" fill-opacity="0.56"/>
<path opacity="0.3" fill-rule="evenodd" clip-rule="evenodd" d="M72.1865 404.372C72.1009 404.818 71.8955 405.046 71.4592 404.827C71.3984 404.651 71.3984 404.457 71.4592 404.281C71.7046 404.229 71.9591 404.261 72.1865 404.372Z" fill="#52AFA3" fill-opacity="0.56"/>
<path opacity="0.3" fill-rule="evenodd" clip-rule="evenodd" d="M27.9404 435.618C28.0773 434.107 33.0734 432.605 35.3576 431.759C36.2406 432.303 37.1755 432.745 38.1465 433.079C38.1292 433.394 38.2273 433.703 38.4202 433.943C37.137 434.125 38.4203 435.763 38.0781 436.673C38.848 437.11 39.8575 436.573 40.3793 438.002C40.1997 438.612 39.2158 438.803 38.7539 438.585C38.7539 437.82 37.7529 437.557 38.309 437.056C36.7092 437.611 29.5573 437.011 27.9404 435.618Z" fill="#52AFA3" fill-opacity="0.56"/>
<path opacity="0.3" fill-rule="evenodd" clip-rule="evenodd" d="M35.1349 425.952C35.5455 426.516 34.8868 427.545 35.8706 427.864C34.5531 428.774 35.5968 429.729 34.3564 430.739C34.2406 430.573 34.0792 430.449 33.8945 430.385C33.8004 431.158 33.3555 431.295 33.2015 431.941C32.5684 431.622 32.4743 432.296 31.7215 431.759C31.2253 430.148 31.79 428.874 30.8062 427.427C31.2219 426.648 31.8979 426.063 32.6999 425.79C33.5019 425.517 34.3711 425.575 35.1349 425.952Z" fill="#52AFA3" fill-opacity="0.56"/>
<path opacity="0.3" fill-rule="evenodd" clip-rule="evenodd" d="M67.9943 389.755C67.9087 390.192 67.712 390.429 67.2757 390.211C67.2108 390.035 67.2108 389.84 67.2757 389.664C67.5178 389.604 67.7722 389.636 67.9943 389.755Z" fill="#52AFA3" fill-opacity="0.56"/>
<path opacity="0.3" fill-rule="evenodd" clip-rule="evenodd" d="M80.7843 377.205C80.887 377.26 80.7843 377.396 80.7843 377.514C81.4088 377.46 81.4344 377.76 82.2643 377.961C82.4268 378.498 82.7433 379.872 81.8365 379.945C81.7168 380.291 81.9906 380.655 81.5799 381.073C80.6475 381.028 79.6208 381.283 78.6627 380.391C78.6627 379.371 78.2777 378.388 79.7235 378.443C79.5267 377.615 80.1769 376.859 80.7843 377.205Z" fill="#52AFA3" fill-opacity="0.56"/>
<path opacity="0.3" fill-rule="evenodd" clip-rule="evenodd" d="M91.084 350.473C92.5982 349.509 94.138 348.571 96.9098 349.982C97.4402 351.402 97.2777 351.957 98.0819 353.35C97.9385 353.443 97.8151 353.568 97.7194 353.715C97.6237 353.863 97.5578 354.029 97.5259 354.205C96.2512 353.222 95.8833 355.507 94.737 355.834C94.9851 356.817 96.3624 357.3 95.4898 358.774C95.1078 358.85 94.7128 358.795 94.3622 358.617C94.0115 358.439 93.7233 358.146 93.5392 357.782C94.2664 357.254 93.6419 356.18 94.5829 356.307C93.5798 355.734 92.7315 354.897 92.119 353.876C91.5065 352.854 91.1501 351.683 91.084 350.473Z" fill="#52AFA3" fill-opacity="0.56"/>
<path opacity="0.3" fill-rule="evenodd" clip-rule="evenodd" d="M67.498 442.217C67.7547 442.59 67.3355 443.245 67.9686 443.454C67.1131 444.037 67.7889 444.665 66.9933 445.275C66.9165 445.169 66.8125 445.09 66.6939 445.047C66.634 445.548 63.2719 445.62 63.1436 446.057C62.733 445.848 62.6645 446.285 62.1855 445.93C61.8604 444.893 62.2283 444.11 61.5952 443.136C62.0914 442.235 66.2405 441.716 67.498 442.217Z" fill="#52AFA3" fill-opacity="0.56"/>
<path opacity="0.3" fill-rule="evenodd" clip-rule="evenodd" d="M49.0453 433.388C48.9598 433.825 48.763 434.061 48.3182 433.843C48.2533 433.667 48.2533 433.472 48.3182 433.297C48.563 433.234 48.8208 433.267 49.0453 433.388Z" fill="#52AFA3" fill-opacity="0.56"/>
<path opacity="0.3" fill-rule="evenodd" clip-rule="evenodd" d="M92.4019 439.131C92.3164 439.34 92.0169 439.185 91.7859 439.131C92.0767 440.314 91.478 440.35 91.3325 441.925C90.2888 442.234 83.9752 442.835 83.556 441.097C82.8118 440.86 82.1701 441.379 81.2034 440.596C80.9896 438.821 80.1769 436.873 81.674 435.081C83.7357 435.153 89.2365 434.38 89.5787 437.11C91.1871 436.755 92.9152 437.993 92.4019 439.131Z" fill="#52AFA3" fill-opacity="0.56"/>
<path opacity="0.3" fill-rule="evenodd" clip-rule="evenodd" d="M93.5908 384.504C93.7876 384.604 93.6421 384.85 93.5908 385.05C94.703 384.959 94.7458 385.496 96.2258 385.851C96.5252 386.816 97.0813 389.255 95.473 389.373C95.2505 390.001 95.7467 390.638 95.0195 391.385C93.3085 391.312 91.5206 391.758 89.8267 390.174C89.8781 388.354 89.1337 386.615 91.7088 386.706C91.358 385.205 92.5214 383.885 93.5908 384.504Z" fill="#52AFA3" fill-opacity="0.56"/>
<path opacity="0.3" fill-rule="evenodd" clip-rule="evenodd" d="M78.3458 416.95C78.7554 417.564 78.9839 418.293 79.0022 419.045C79.0205 419.797 78.8277 420.538 78.4484 421.173C77.6928 421.319 76.9572 421.563 76.2584 421.901C76.2022 421.794 76.1262 421.7 76.035 421.625C75.9439 421.55 75.8394 421.496 75.7279 421.464C76.4037 420.554 74.958 420.227 74.7954 419.39C74.1538 419.535 73.7945 420.509 72.8877 419.817C72.8522 419.54 72.9012 419.257 73.0274 419.012C73.1537 418.766 73.3505 418.57 73.5892 418.452C73.9057 418.998 74.6158 418.579 74.496 419.262C74.8971 418.557 75.4621 417.975 76.1363 417.57C76.8106 417.165 77.5715 416.951 78.3458 416.95Z" fill="#52AFA3" fill-opacity="0.56"/>
<path opacity="0.3" fill-rule="evenodd" clip-rule="evenodd" d="M88.1328 413.738C86.8582 413.692 85.5665 413.619 84.48 411.835C84.787 411.129 85.0028 410.382 85.1216 409.614C85.3682 409.618 85.6078 409.528 85.7974 409.36C86.1652 410.361 87.286 409.287 88.0987 409.542C88.3297 408.923 87.7137 408.149 88.8173 407.722C89.0616 407.804 89.2712 407.975 89.4101 408.204C89.5491 408.433 89.6086 408.707 89.5787 408.978C88.9371 408.978 88.8857 409.787 88.3724 409.369C88.7331 410.044 88.9024 410.815 88.8599 411.591C88.8174 412.366 88.5648 413.112 88.1328 413.738Z" fill="#52AFA3" fill-opacity="0.56"/>
<path opacity="0.3" fill-rule="evenodd" clip-rule="evenodd" d="M33.2187 365.291C33.347 365.473 33.1332 365.801 33.4497 365.91C33.0305 366.201 33.3641 366.52 32.962 366.82C32.9268 366.765 32.8758 366.724 32.8167 366.702C32.8167 366.948 32.637 366.993 32.5857 367.203C32.3803 367.103 32.3546 367.321 32.1065 367.148C31.944 366.62 32.1066 366.238 31.8071 365.737C31.9496 365.491 32.1723 365.31 32.4328 365.227C32.6932 365.145 32.9731 365.168 33.2187 365.291Z" fill="#52AFA3" fill-opacity="0.56"/>
<path opacity="0.3" fill-rule="evenodd" clip-rule="evenodd" d="M44.8192 376.039C44.7679 376.312 44.6481 376.458 44.3743 376.321C44.3355 376.213 44.3355 376.093 44.3743 375.985C44.5241 375.948 44.681 375.968 44.8192 376.039Z" fill="#52AFA3" fill-opacity="0.56"/>
<path opacity="0.3" fill-rule="evenodd" clip-rule="evenodd" d="M38.7793 403.644C39.1232 403.355 39.54 403.181 39.9771 403.143C40.4142 403.106 40.8518 403.207 41.2346 403.435C41.3468 403.927 41.5133 404.404 41.7307 404.855C41.669 404.894 41.6158 404.947 41.5746 405.01C41.5333 405.073 41.505 405.144 41.4912 405.219C40.9523 404.8 40.8069 405.765 40.3192 405.902C40.4219 406.311 41.0036 406.521 40.6358 407.139C40.4697 407.182 40.295 407.163 40.1398 407.087C39.9847 407.011 39.8581 406.883 39.7803 406.721C40.0882 406.502 39.7803 406.047 40.2166 406.102C39.8008 405.855 39.4507 405.501 39.1993 405.071C38.9479 404.641 38.8033 404.15 38.7793 403.644Z" fill="#52AFA3" fill-opacity="0.56"/>
<path opacity="0.3" fill-rule="evenodd" clip-rule="evenodd" d="M78.0635 403.554C77.5587 403.799 77.0625 403.126 76.5492 403.854C76.3439 402.671 75.3686 403.362 75.0607 402.225C75.2094 402.154 75.3388 402.044 75.437 401.906C74.9494 401.715 75.0007 401.342 74.5815 401.124C74.9922 400.659 74.5816 400.486 75.1548 399.968C76.3867 399.795 77.0711 400.441 78.3543 399.867C79.1157 400.677 79.1756 402.116 78.0635 403.554Z" fill="#52AFA3" fill-opacity="0.56"/>
<path opacity="0.3" fill-rule="evenodd" clip-rule="evenodd" d="M32.8509 382.838C32.7911 383.112 32.6714 383.257 32.3976 383.121C32.359 383.009 32.359 382.887 32.3976 382.775C32.5512 382.743 32.7104 382.765 32.8509 382.838Z" fill="#52AFA3" fill-opacity="0.56"/>
<path opacity="0.3" fill-rule="evenodd" clip-rule="evenodd" d="M60.3464 353.969C60.3464 354.06 60.1925 353.969 60.0898 353.969C60.2609 354.46 60.0128 354.497 60.0128 355.161C59.5936 355.334 58.5071 355.671 58.3018 354.97C57.9853 354.897 57.7372 355.134 57.3095 354.843C57.147 354.105 56.7363 353.314 57.3095 352.494C58.165 352.449 58.9092 352.057 59.1573 353.204C59.7476 353.013 60.5175 353.468 60.3464 353.969Z" fill="#52AFA3" fill-opacity="0.56"/>
<path opacity="0.3" fill-rule="evenodd" clip-rule="evenodd" d="M19.8472 317.773C19.8472 317.381 21.4298 317.308 21.8832 317.181C22.0784 317.352 22.2873 317.504 22.5077 317.636C22.5171 317.723 22.5497 317.805 22.6018 317.873C22.3366 317.873 22.6617 318.337 22.6018 318.555C22.7815 318.701 22.9697 318.555 23.1322 318.992C23.1322 319.147 22.9184 319.156 22.8157 319.083C22.713 319.01 22.5677 318.774 22.6703 318.665C21.679 318.592 20.7149 318.288 19.8472 317.773Z" fill="#52AFA3" fill-opacity="0.56"/>
<path opacity="0.3" fill-rule="evenodd" clip-rule="evenodd" d="M40.6787 393.568C40.9353 393.914 40.5333 394.551 41.1321 394.743C40.2766 395.307 40.9696 395.908 40.1997 396.563C40.127 396.463 40.029 396.387 39.9173 396.345C39.8574 396.827 39.5751 396.899 39.481 397.309C39.096 397.109 39.0276 397.528 38.5656 397.191C38.2577 396.199 38.5656 395.371 38.001 394.515C38.2506 394.025 38.6664 393.654 39.1638 393.478C39.6612 393.302 40.2029 393.334 40.6787 393.568Z" fill="#52AFA3" fill-opacity="0.56"/>
<path opacity="0.3" fill-rule="evenodd" clip-rule="evenodd" d="M26.8621 381.682C26.8108 381.955 26.6911 382.092 26.4173 381.964C26.3746 381.854 26.3746 381.729 26.4173 381.619C26.568 381.582 26.7259 381.605 26.8621 381.682Z" fill="#52AFA3" fill-opacity="0.56"/>
<path opacity="0.3" fill-rule="evenodd" clip-rule="evenodd" d="M47.2234 364.936C47.3431 364.999 47.2234 365.154 47.2234 365.273C47.9163 365.218 47.942 365.554 48.8574 365.773C49.0456 366.365 49.3877 367.875 48.3868 367.957C48.2499 368.339 48.5579 368.74 48.1045 369.195C47.0779 369.195 45.9401 369.432 44.8879 368.449C44.8879 367.329 44.4601 366.246 46.0599 366.301C45.8375 365.391 46.5561 364.553 47.2234 364.936Z" fill="#52AFA3" fill-opacity="0.56"/>
<path opacity="0.3" fill-rule="evenodd" clip-rule="evenodd" d="M25.0314 350.465C25.1512 350.529 25.0314 350.684 25.0314 350.802C25.7158 350.747 25.7414 351.084 26.6568 351.302C26.845 351.894 27.1872 353.414 26.1949 353.486C26.058 353.869 26.3659 354.269 25.9125 354.724C24.8773 354.724 23.7481 354.961 22.6958 353.978C22.6958 352.859 22.2682 351.776 23.8594 351.83C23.6541 350.92 24.3641 350.083 25.0314 350.465Z" fill="#52AFA3" fill-opacity="0.56"/>
<path opacity="0.3" fill-rule="evenodd" clip-rule="evenodd" d="M32.2607 384.295C32.5173 384.65 32.1153 385.287 32.7141 385.478C31.8586 386.033 32.5515 386.643 31.7816 387.298C31.7089 387.198 31.611 387.123 31.4993 387.08C31.4309 387.562 31.1571 387.635 31.063 388.045C30.6695 387.844 30.6096 388.263 30.1477 387.926C29.8397 386.934 30.1476 386.106 29.583 385.25C29.8342 384.761 30.2494 384.392 30.7458 384.214C31.2422 384.037 31.7833 384.066 32.2607 384.295Z" fill="#52AFA3" fill-opacity="0.56"/>
<path opacity="0.3" fill-rule="evenodd" clip-rule="evenodd" d="M39.7373 380.017C39.686 380.29 39.5576 380.436 39.2924 380.299C39.2528 380.191 39.2528 380.071 39.2924 379.963C39.4423 379.929 39.5986 379.948 39.7373 380.017Z" fill="#52AFA3" fill-opacity="0.56"/>
<path opacity="0.3" fill-rule="evenodd" clip-rule="evenodd" d="M66.7883 379.971C66.9081 380.035 66.7883 380.181 66.7883 380.308C67.4812 380.254 67.5069 380.581 68.4223 380.8C68.6105 381.401 68.9527 382.911 67.9517 382.984C67.8149 383.375 68.1229 383.767 67.678 384.231C66.6429 384.186 65.5051 384.458 64.4528 383.485C64.4528 382.356 64.0251 381.273 65.6248 381.337C65.4024 380.417 66.1552 379.589 66.7883 379.971Z" fill="#52AFA3" fill-opacity="0.56"/>
<path opacity="0.3" fill-rule="evenodd" clip-rule="evenodd" d="M18.2476 325.927C18.5924 325.64 19.009 325.467 19.4456 325.429C19.8821 325.392 20.3194 325.493 20.7028 325.718C20.8122 326.211 20.9788 326.688 21.199 327.138C21.138 327.178 21.0853 327.231 21.0441 327.293C21.0029 327.356 20.9742 327.427 20.9595 327.502C20.4205 327.083 20.2666 328.048 19.7875 328.184C19.8901 328.603 20.4719 328.803 20.104 329.431C19.938 329.471 19.7644 329.45 19.61 329.375C19.4555 329.299 19.3286 329.172 19.2485 329.012C19.5565 328.785 19.2485 328.33 19.6848 328.384C19.2691 328.138 18.919 327.783 18.6676 327.353C18.4162 326.923 18.2716 326.433 18.2476 325.927Z" fill="#52AFA3" fill-opacity="0.56"/>
<path opacity="0.3" fill-rule="evenodd" clip-rule="evenodd" d="M37.5558 445.274C37.1135 445.325 36.6665 445.243 36.2668 445.035C35.867 444.827 35.5309 444.503 35.2974 444.1C35.4856 443.659 35.6179 443.194 35.6909 442.716C35.8443 442.726 35.995 442.67 36.11 442.562C36.3325 443.18 37.0254 442.516 37.5302 442.671C37.6756 442.298 37.2907 441.815 37.9751 441.533C38.1269 441.583 38.2578 441.687 38.3452 441.828C38.4326 441.969 38.471 442.139 38.4541 442.307C38.052 442.307 38.0178 442.816 37.7012 442.552C37.9322 442.97 38.0416 443.452 38.0157 443.937C37.9898 444.421 37.8298 444.886 37.5558 445.274Z" fill="#52AFA3" fill-opacity="0.56"/>
<path opacity="0.3" fill-rule="evenodd" clip-rule="evenodd" d="M72.4686 328.511C72.7509 328.384 73.1102 328.803 73.3241 328.375C73.5551 329.103 74.0855 328.721 74.3678 329.413C74.2869 329.452 74.2185 329.515 74.171 329.594C74.479 329.731 74.4791 329.95 74.7443 330.095C74.5389 330.359 74.8127 330.487 74.4961 330.778C73.769 330.842 73.2985 330.423 72.5798 330.732C72.3039 330.444 72.1395 330.056 72.1189 329.645C72.0983 329.234 72.2231 328.829 72.4686 328.511Z" fill="#52AFA3" fill-opacity="0.56"/>
<path opacity="0.3" fill-rule="evenodd" clip-rule="evenodd" d="M77.1309 374.848C77.5158 375.039 77.6784 375.303 77.3704 375.703C77.1942 375.733 77.014 375.69 76.8657 375.585C76.8693 375.314 76.9633 375.052 77.1309 374.848Z" fill="#52AFA3" fill-opacity="0.56"/>
<path opacity="0.3" fill-rule="evenodd" clip-rule="evenodd" d="M93.5309 408.568C93.7191 408.623 93.5993 408.923 93.5309 409.141C94.5575 408.759 94.6259 409.315 96.0204 409.296C96.354 410.207 97.0041 412.682 95.5156 413.237C95.3445 413.956 95.8407 414.511 95.2076 415.485C93.6506 415.858 91.9739 416.805 90.3142 415.576C90.2629 413.638 89.4588 411.981 91.8713 411.398C91.4606 409.924 92.4615 408.195 93.5309 408.568Z" fill="#52AFA3" fill-opacity="0.56"/>
<path opacity="0.3" fill-rule="evenodd" clip-rule="evenodd" d="M65.0601 419.735C65.445 419.926 65.6076 420.19 65.2996 420.591C65.1234 420.62 64.9432 420.578 64.7949 420.473C64.7985 420.201 64.8925 419.94 65.0601 419.735Z" fill="#52AFA3" fill-opacity="0.56"/>
<path opacity="0.3" fill-rule="evenodd" clip-rule="evenodd" d="M93.1717 316.17C93.3343 316.279 93.1718 316.543 93.0862 316.762C94.147 316.643 94.0871 317.217 95.4046 317.563C95.5243 318.591 95.6185 321.203 94.0957 321.376C93.7878 322.05 94.0957 322.723 93.3258 323.534C91.7859 323.534 89.9979 324.016 88.689 322.341C89.0483 320.403 88.689 318.536 91.0501 318.582C90.9646 316.998 92.2735 315.533 93.1717 316.17Z" fill="#52AFA3" fill-opacity="0.56"/>
<path opacity="0.3" fill-rule="evenodd" clip-rule="evenodd" d="M78.6025 435.809C77.2508 435.308 75.9163 434.771 75.7109 432.168C76.4191 431.387 77.0497 430.53 77.593 429.611C77.8773 429.702 78.1841 429.673 78.4485 429.529C78.303 430.903 80.091 429.938 80.8182 430.539C81.4085 429.856 81.1604 428.673 82.589 428.491C83.1109 428.819 83.0339 429.884 82.7345 430.312C82.033 430.111 81.5454 431.094 81.2288 430.393C81.2199 431.452 80.9777 432.493 80.5215 433.433C80.0654 434.374 79.4081 435.188 78.6025 435.809Z" fill="#52AFA3" fill-opacity="0.56"/>
<path opacity="0.3" fill-rule="evenodd" clip-rule="evenodd" d="M86.8922 404.891C87.4997 404.6 88.2781 405.528 88.8085 404.591C89.3047 406.174 90.4511 405.328 91.0671 406.848C90.8874 406.928 90.735 407.065 90.6308 407.239C91.3152 407.531 91.3066 408.013 91.8797 408.332C91.4349 408.905 92.0337 409.178 91.3493 409.815C89.7667 409.943 88.7829 409.042 87.1831 409.715C86.5745 409.097 86.2068 408.257 86.1529 407.363C86.099 406.47 86.3629 405.587 86.8922 404.891Z" fill="#52AFA3" fill-opacity="0.56"/>
<path opacity="0.3" fill-rule="evenodd" clip-rule="evenodd" d="M94.5916 358.191C94.9766 358.392 95.1392 358.656 94.8312 359.047C94.6577 359.076 94.4803 359.034 94.335 358.929C94.3404 358.659 94.4308 358.4 94.5916 358.191Z" fill="#52AFA3" fill-opacity="0.56"/>
<path opacity="0.3" fill-rule="evenodd" clip-rule="evenodd" d="M35.7425 369.669C35.8024 369.596 35.888 369.669 35.965 369.724C36.0505 369.196 36.273 369.232 36.581 368.586C37.0173 368.586 38.0781 368.586 37.9498 369.323C38.1893 369.496 38.5058 369.323 38.7282 369.751C38.5229 370.524 38.4972 371.425 37.6588 372.044C36.9231 371.817 36.119 371.971 36.4441 370.779C35.7939 370.788 35.3576 370.106 35.7425 369.669Z" fill="#52AFA3" fill-opacity="0.56"/>
<path opacity="0.3" fill-rule="evenodd" clip-rule="evenodd" d="M69.9022 445.438C69.3975 443.618 68.9099 441.798 70.869 439.304C72.2891 439.103 72.7596 439.404 74.2225 438.903C74.2717 439.077 74.3551 439.237 74.4672 439.374C74.5793 439.51 74.7175 439.62 74.8726 439.695C73.6578 440.769 75.6597 441.697 75.6768 442.963C76.635 442.963 77.3878 441.643 78.5427 442.908C78.5184 443.319 78.3719 443.712 78.1244 444.03C77.8768 444.347 77.5411 444.572 77.1654 444.674C76.8574 443.763 75.7281 444.182 76.0703 443.235C75.3048 444.133 74.336 444.807 73.2561 445.192C72.1763 445.578 71.0216 445.663 69.9022 445.438Z" fill="#52AFA3" fill-opacity="0.56"/>
<path opacity="0.3" fill-rule="evenodd" clip-rule="evenodd" d="M42.4833 370.051C42.7143 369.942 43.0052 370.287 43.202 369.941C43.3902 370.533 43.818 370.215 44.0575 370.788C43.9915 370.819 43.9352 370.87 43.8949 370.933C44.1515 371.043 44.1516 371.225 44.3655 371.343C44.1944 371.562 44.4254 371.662 44.1687 371.898C43.5699 371.953 43.1848 371.616 42.5945 371.898C42.3557 371.665 42.2108 371.343 42.1901 370.998C42.1694 370.654 42.2744 370.315 42.4833 370.051Z" fill="#52AFA3" fill-opacity="0.56"/>
<path opacity="0.3" fill-rule="evenodd" clip-rule="evenodd" d="M79.6292 352.439C80.0142 352.64 80.1768 352.904 79.8774 353.295C79.7022 353.328 79.5217 353.289 79.3726 353.186C79.3761 352.913 79.4666 352.65 79.6292 352.439Z" fill="#52AFA3" fill-opacity="0.56"/>
<path opacity="0.3" fill-rule="evenodd" clip-rule="evenodd" d="M84.976 360.44C85.0616 360.331 85.1728 360.44 85.2754 360.513C85.3866 359.803 88.5776 359.858 88.9882 358.993C89.5614 358.947 90.9815 358.993 90.8104 359.976C91.1184 360.203 91.5462 359.976 91.8457 360.549C91.5633 361.578 91.5377 362.77 90.4255 363.598C89.4417 363.298 88.3723 363.507 88.8001 361.923C87.9189 361.932 84.4627 361.022 84.976 360.44Z" fill="#52AFA3" fill-opacity="0.56"/>
<path opacity="0.3" fill-rule="evenodd" clip-rule="evenodd" d="M49.9863 404.318C50.4055 404.126 50.9445 404.754 51.3038 404.117C51.646 405.2 52.433 404.618 52.8608 405.665C52.7365 405.72 52.6318 405.815 52.5614 405.937C53.0233 406.129 53.0233 406.466 53.4169 406.684C53.1089 407.085 53.5195 407.267 53.0575 407.704C51.9625 407.795 51.261 407.176 50.1916 407.631C49.7724 407.207 49.5186 406.63 49.4806 406.017C49.4425 405.403 49.6231 404.796 49.9863 404.318Z" fill="#52AFA3" fill-opacity="0.56"/>
<path opacity="0.3" fill-rule="evenodd" clip-rule="evenodd" d="M56.1631 380.335C56.5395 380.535 56.7021 380.799 56.4027 381.19C56.2264 381.22 56.0463 381.178 55.8979 381.072C55.903 380.801 55.9968 380.54 56.1631 380.335Z" fill="#52AFA3" fill-opacity="0.56"/>
<path opacity="0.3" fill-rule="evenodd" clip-rule="evenodd" d="M36.9062 379.744C36.9746 379.744 36.9062 379.89 36.9062 379.972C37.3083 379.817 37.3338 380.035 37.8899 380.035C38.0182 380.408 38.2749 381.373 37.6846 381.591C37.6162 381.874 37.8129 382.092 37.5648 382.502C36.9489 382.647 36.2901 383.02 35.6314 382.502C35.6314 381.737 35.3064 381.082 36.2474 380.855C36.102 380.299 36.4955 379.617 36.9062 379.744Z" fill="#52AFA3" fill-opacity="0.56"/>
<path opacity="0.3" fill-rule="evenodd" clip-rule="evenodd" d="M90.0061 421.61C89.7151 420.925 89.6215 420.163 89.7372 419.421C89.8529 418.679 90.1728 417.99 90.6563 417.442C91.4252 417.448 92.1921 417.357 92.9405 417.169C92.9767 417.286 93.0347 417.394 93.1111 417.486C93.1876 417.578 93.2809 417.653 93.3853 417.706C92.5298 418.434 93.9157 419.071 93.9328 419.926C94.583 419.926 95.1134 419.016 95.8834 419.926C95.866 420.207 95.7657 420.474 95.5966 420.69C95.4275 420.906 95.1984 421.059 94.9423 421.128C94.737 420.527 93.9671 420.791 94.1981 420.154C93.6731 420.755 93.0127 421.205 92.2793 421.46C91.5458 421.714 90.7636 421.766 90.0061 421.61Z" fill="#52AFA3" fill-opacity="0.56"/>
<path opacity="0.3" fill-rule="evenodd" clip-rule="evenodd" d="M75.2664 444.155C76.1219 444.455 77.1827 443.144 78.0296 444.309C78.5771 442.162 80.2967 443.136 81.0238 441.042C80.7595 440.97 80.5249 440.806 80.3565 440.578C81.2976 440.114 81.212 439.477 82.0675 438.976C81.3746 438.275 82.1959 437.848 81.1608 437.083C78.8851 437.083 77.5249 438.43 75.2236 437.747C73.6837 439.413 73.3843 441.907 75.2664 444.155Z" fill="#52AFA3" fill-opacity="0.56"/>
<path opacity="0.3" fill-rule="evenodd" clip-rule="evenodd" d="M90.9645 395.334C91.3409 395.534 91.5035 395.798 91.204 396.199C91.0278 396.228 90.8475 396.186 90.6992 396.081C90.7023 395.806 90.7963 395.542 90.9645 395.334Z" fill="#52AFA3" fill-opacity="0.56"/>
<path opacity="0.3" fill-rule="evenodd" clip-rule="evenodd" d="M92.9066 427.9C93.0691 428 92.9066 428.273 92.8296 428.482C93.8819 428.364 93.8305 428.937 95.148 429.292C95.2592 430.321 95.3618 432.933 93.8391 433.097C93.5225 433.77 93.839 434.453 93.0691 435.263C91.5207 435.263 89.7413 435.736 88.4238 434.07C88.7917 432.123 88.4238 430.257 90.785 430.302C90.6994 428.728 92.0083 427.254 92.9066 427.9Z" fill="#52AFA3" fill-opacity="0.56"/>
<path opacity="0.3" fill-rule="evenodd" clip-rule="evenodd" d="M26.6572 432.796C26.7941 432.624 26.9909 432.796 27.162 432.915C27.3502 431.741 27.8464 431.832 28.5308 430.394C29.4804 430.312 31.8415 430.33 31.5677 432.023C32.081 432.405 32.7825 432.023 33.2787 432.979C32.8168 434.69 32.7741 436.683 30.9177 438.048C29.2837 437.557 27.4957 437.893 28.2143 435.263C26.8027 435.263 25.8359 433.761 26.6572 432.796Z" fill="#52AFA3" fill-opacity="0.56"/>
<path opacity="0.3" fill-rule="evenodd" clip-rule="evenodd" d="M24.5014 426.716C23.1498 426.206 21.8152 425.679 21.6099 423.076C22.3203 422.293 22.9511 421.433 23.4919 420.509C23.6318 420.558 23.7796 420.577 23.9265 420.565C24.0735 420.552 24.2166 420.509 24.3474 420.436C24.202 421.811 25.99 420.846 26.7171 421.446C27.3074 420.755 27.0593 419.581 28.488 419.39C29.0098 419.717 28.9329 420.791 28.6334 421.21C27.9319 421.01 27.4443 421.993 27.1278 421.292C27.1195 422.351 26.8775 423.395 26.4214 424.337C25.9652 425.279 25.3077 426.094 24.5014 426.716Z" fill="#52AFA3" fill-opacity="0.56"/>
<path opacity="0.3" fill-rule="evenodd" clip-rule="evenodd" d="M27.3842 419.135C27.8119 418.935 28.3422 419.572 28.7101 418.926C29.0523 420.018 29.8394 419.435 30.2672 420.482C30.1412 420.535 30.0356 420.631 29.9677 420.755C30.4296 420.947 30.4296 421.283 30.8231 421.502C30.5152 421.902 30.9259 422.084 30.4639 422.521C29.3689 422.612 28.6674 421.993 27.5895 422.457C27.1714 422.031 26.9185 421.453 26.8805 420.839C26.8425 420.224 27.0222 419.616 27.3842 419.135Z" fill="#52AFA3" fill-opacity="0.56"/>
<path opacity="0.3" fill-rule="evenodd" clip-rule="evenodd" d="M65.6505 426.917C66.0269 427.117 66.1894 427.381 65.89 427.781C65.7137 427.811 65.5336 427.769 65.3853 427.663C65.3883 427.389 65.4823 427.125 65.6505 426.917Z" fill="#52AFA3" fill-opacity="0.56"/>
<path opacity="0.3" fill-rule="evenodd" clip-rule="evenodd" d="M22.1313 409.678C22.2682 409.505 22.4564 409.678 22.636 409.797C22.8243 408.632 23.3204 408.713 24.0048 407.275C24.9544 407.203 27.3156 407.221 27.0333 408.905C27.5466 409.287 28.2566 408.904 28.7443 409.86C28.2823 411.571 28.2395 413.565 26.3831 414.93C24.7491 414.438 22.9611 414.775 23.6797 412.145C22.251 412.163 21.3101 410.689 22.1313 409.678Z" fill="#52AFA3" fill-opacity="0.56"/>
<path opacity="0.3" fill-rule="evenodd" clip-rule="evenodd" d="M89.7325 399.166C89.8779 398.993 90.0661 399.167 90.2372 399.285C90.4254 398.12 90.9216 398.202 91.606 396.764C92.5556 396.691 94.9168 396.709 94.643 398.393C95.1563 398.775 95.8578 398.393 96.354 399.348C95.892 401.059 95.8492 403.053 93.9928 404.418C92.3588 403.926 90.5708 404.263 91.2894 401.633C89.8608 401.651 88.9112 400.131 89.7325 399.166Z" fill="#52AFA3" fill-opacity="0.56"/>
<path opacity="0.3" fill-rule="evenodd" clip-rule="evenodd" d="M91.8199 353.65C92.2049 353.851 92.3675 354.115 92.0595 354.506C91.8844 354.535 91.7053 354.496 91.5547 354.397C91.5578 354.122 91.6517 353.858 91.8199 353.65Z" fill="#52AFA3" fill-opacity="0.56"/>
<path opacity="0.3" fill-rule="evenodd" clip-rule="evenodd" d="M61.9374 412.454C62.2539 412.309 62.656 412.782 62.9298 412.3C63.1865 413.119 63.7853 412.682 64.1018 413.465C64.0062 413.507 63.9254 413.58 63.8708 413.674C64.2216 413.82 64.2216 414.065 64.521 414.238C64.29 414.53 64.5981 414.666 64.2473 415.003C63.3918 415.067 62.8956 414.603 62.0914 414.948C61.7714 414.632 61.5772 414.198 61.5486 413.734C61.52 413.27 61.659 412.813 61.9374 412.454Z" fill="#52AFA3" fill-opacity="0.56"/>
<path opacity="0.3" fill-rule="evenodd" clip-rule="evenodd" d="M37.2996 354.615C37.9155 354.333 38.694 355.252 39.2159 354.323C39.7206 355.898 40.8584 355.06 41.483 356.58C41.302 356.658 41.1492 356.795 41.0466 356.972C41.7225 357.254 41.7225 357.746 42.2956 358.064C41.8422 358.638 42.4411 358.901 41.7652 359.548C40.1826 359.675 39.1987 358.774 37.5904 359.438C36.9818 358.82 36.614 357.981 36.5601 357.087C36.5062 356.193 36.7702 355.311 37.2996 354.615Z" fill="#52AFA3" fill-opacity="0.56"/>
<path opacity="0.3" fill-rule="evenodd" clip-rule="evenodd" d="M82.3154 296.766C82.495 296.857 82.572 296.975 82.4266 297.166C82.3432 297.178 82.2584 297.159 82.187 297.111C82.1943 296.985 82.2393 296.864 82.3154 296.766Z" fill="#52AFA3" fill-opacity="0.56"/>
<path opacity="0.3" fill-rule="evenodd" clip-rule="evenodd" d="M24.5099 382.101C24.6382 382.146 24.5099 382.347 24.5099 382.492C25.2029 382.237 25.2542 382.611 26.2209 382.601C26.4433 383.239 26.8797 384.886 25.8788 385.268C25.759 385.75 26.0927 386.124 25.6649 386.788C24.6127 387.034 23.4834 387.698 22.3542 386.842C22.3542 385.532 21.7895 384.413 23.415 384.021C23.1327 383.02 23.817 381.855 24.5099 382.101Z" fill="#52AFA3" fill-opacity="0.56"/>
<path opacity="0.3" fill-rule="evenodd" clip-rule="evenodd" d="M33.2104 329.321C33.1324 329.142 33.107 328.942 33.1376 328.747C33.1681 328.552 33.2531 328.372 33.3814 328.229C33.6295 328.229 34.9812 328.229 35.2379 328.156C35.2476 328.187 35.2634 328.215 35.284 328.238C35.3047 328.262 35.3297 328.281 35.3576 328.293C35.1438 328.484 35.4946 328.657 35.5031 328.875C35.6657 328.875 35.8111 328.639 36.0078 328.875C36.0035 328.948 35.9782 329.018 35.9354 329.075C35.8925 329.132 35.8341 329.173 35.7683 329.194C35.7084 329.039 35.5116 329.103 35.5715 328.939C34.8252 329.268 34.0149 329.399 33.2104 329.321Z" fill="#52AFA3" fill-opacity="0.56"/>
<path opacity="0.3" fill-rule="evenodd" clip-rule="evenodd" d="M74.924 336.484C75.1036 336.575 75.1806 336.703 75.0352 336.885C74.9952 336.893 74.9541 336.892 74.9144 336.883C74.8747 336.873 74.8372 336.855 74.8042 336.83C74.8052 336.704 74.8476 336.581 74.924 336.484Z" fill="#52AFA3" fill-opacity="0.56"/>
<path opacity="0.3" fill-rule="evenodd" clip-rule="evenodd" d="M26.2206 391.385C26.3831 391.485 26.2206 391.759 26.1436 391.968C27.1959 391.85 27.1445 392.423 28.462 392.778C28.5732 393.806 28.6759 396.418 27.1531 396.582C26.8366 397.256 27.1531 397.938 26.3832 398.748C24.8347 398.748 23.0553 399.221 21.7378 397.556C22.1057 395.608 21.7378 393.743 24.099 393.788C24.0134 392.214 25.3223 390.739 26.2206 391.385Z" fill="#52AFA3" fill-opacity="0.56"/>
<path opacity="0.3" fill-rule="evenodd" clip-rule="evenodd" d="M36.5123 419.626C36.709 419.735 36.5636 419.981 36.5123 420.181C37.6244 420.09 37.6673 420.627 39.1473 420.982C39.4467 421.892 40.0027 424.386 38.3944 424.504C38.172 425.132 38.6682 425.769 37.941 426.506C36.23 426.443 34.442 426.879 32.7481 425.296C32.7994 423.475 32.0552 421.737 34.6302 421.837C34.2795 420.354 35.4429 419.016 36.5123 419.626Z" fill="#52AFA3" fill-opacity="0.56"/>
<path opacity="0.3" fill-rule="evenodd" clip-rule="evenodd" d="M30.1216 403.317C30.8231 404.627 29.9419 404.573 31.4989 406.612C29.5741 405.274 31.3192 408.123 29.5312 407.04C29.3065 406.625 29.052 406.229 28.7699 405.856C28.7186 406.502 28.0428 405.856 27.9144 406.293C26.8964 404.846 26.8279 405.383 25.6046 403.517C24.6207 400.942 25.3394 400.586 23.6284 397.328C24.6293 397.155 27.0161 399.094 30.1216 403.317Z" fill="#52AFA3" fill-opacity="0.56"/>
<path opacity="0.3" fill-rule="evenodd" clip-rule="evenodd" d="M50.3629 363.57C50.7393 363.771 50.9018 364.034 50.6024 364.426C50.5157 364.445 50.4263 364.445 50.3396 364.426C50.2529 364.407 50.1706 364.37 50.0977 364.316C50.1007 364.042 50.1947 363.778 50.3629 363.57Z" fill="#52AFA3" fill-opacity="0.56"/>
<path opacity="0.3" fill-rule="evenodd" clip-rule="evenodd" d="M80.9981 296.102C81.3745 296.302 81.537 296.566 81.2376 296.957C81.1509 296.976 81.0615 296.976 80.9748 296.957C80.888 296.938 80.8058 296.901 80.7329 296.848C80.736 296.573 80.8298 296.309 80.9981 296.102Z" fill="#52AFA3" fill-opacity="0.56"/>
<path opacity="0.3" fill-rule="evenodd" clip-rule="evenodd" d="M27.5552 419.399C28.1711 419.107 28.9411 420.027 29.4715 419.099C29.9762 420.673 31.114 419.836 31.73 421.356C31.5528 421.436 31.4034 421.573 31.3022 421.747C31.9781 422.038 31.978 422.521 32.5512 422.839C32.0978 423.413 32.6967 423.686 32.0208 424.323C30.4296 424.45 29.4543 423.549 27.846 424.213C27.2362 423.597 26.8674 422.76 26.8135 421.867C26.7596 420.974 27.0245 420.092 27.5552 419.399Z" fill="#52AFA3" fill-opacity="0.56"/>
<path opacity="0.3" fill-rule="evenodd" clip-rule="evenodd" d="M56.1631 377.823C56.5395 378.023 56.7021 378.287 56.4027 378.679C56.2276 378.707 56.0486 378.669 55.8979 378.569C55.901 378.295 55.9949 378.031 56.1631 377.823Z" fill="#52AFA3" fill-opacity="0.56"/>
<path opacity="0.3" fill-rule="evenodd" clip-rule="evenodd" d="M21.7895 434.671C21.9264 434.499 22.1231 434.671 22.2942 434.79C22.4825 433.616 22.9786 433.707 23.663 432.269C24.6126 432.187 26.9738 432.205 26.6915 433.898C27.2048 434.28 27.9148 433.898 28.4025 434.853C27.9405 436.555 27.8977 438.549 26.0413 439.923C24.4073 439.422 22.6193 439.768 23.3379 437.129C21.9093 437.156 20.9683 435.636 21.7895 434.671Z" fill="#52AFA3" fill-opacity="0.56"/>
<path opacity="0.3" fill-rule="evenodd" clip-rule="evenodd" d="M83.5902 356.517C83.7271 356.344 83.9238 356.517 84.0949 356.635C84.2831 355.461 84.7793 355.552 85.4637 354.114C86.4133 354.032 88.7745 354.051 88.5007 355.743C89.014 356.126 89.7155 355.744 90.2117 356.699C89.7497 358.401 89.7069 360.394 87.8505 361.769C86.2165 361.268 84.4285 361.614 85.1471 358.975C83.7099 359.002 82.7689 357.482 83.5902 356.517Z" fill="#52AFA3" fill-opacity="0.56"/>
<path opacity="0.3" fill-rule="evenodd" clip-rule="evenodd" d="M41.9962 369.231C42.3812 369.432 42.5437 369.696 42.2358 370.087C42.0607 370.116 41.8816 370.077 41.731 369.978C41.734 369.703 41.828 369.439 41.9962 369.231Z" fill="#52AFA3" fill-opacity="0.56"/>
<path opacity="0.3" fill-rule="evenodd" clip-rule="evenodd" d="M25.8189 413.837C25.9643 413.665 26.1525 413.837 26.3236 413.956C26.5118 412.782 27.0081 412.873 27.6925 411.435C28.6421 411.353 31.0032 411.371 30.7294 413.064C31.2427 413.446 31.9442 413.064 32.4404 414.02C31.9784 415.722 31.9356 417.715 30.0792 419.089C28.4452 418.588 26.6573 418.934 27.3759 416.295C25.9473 416.322 24.9976 414.802 25.8189 413.837Z" fill="#52AFA3" fill-opacity="0.56"/>
<path opacity="0.3" fill-rule="evenodd" clip-rule="evenodd" d="M86.5842 348.171C86.2932 347.486 86.1996 346.724 86.3153 345.982C86.4311 345.24 86.7509 344.551 87.2344 344.002C88.0036 344.014 88.771 343.922 89.5186 343.729C89.5548 343.846 89.6128 343.954 89.6893 344.046C89.7657 344.139 89.859 344.213 89.9634 344.266C89.1079 345.004 90.4938 345.632 90.5109 346.496C91.1611 346.496 91.6915 345.586 92.4615 346.451C92.446 346.73 92.3473 346.997 92.1796 347.213C92.012 347.429 91.7842 347.583 91.529 347.652C91.3151 347.061 90.5452 347.324 90.7847 346.678C90.264 347.29 89.6039 347.748 88.8682 348.01C88.1325 348.271 87.3459 348.327 86.5842 348.171Z" fill="#52AFA3" fill-opacity="0.56"/>
<path opacity="0.3" fill-rule="evenodd" clip-rule="evenodd" d="M38.1807 299.834C38.3175 299.661 38.5057 299.834 38.6854 299.952C38.8736 298.787 39.3697 298.869 40.0456 297.431C41.0037 297.358 43.3564 297.376 43.0826 299.06C43.5959 299.442 44.2974 299.06 44.7936 299.97C44.3231 301.681 44.2888 303.674 42.4324 305.039C40.7899 304.548 39.0104 304.885 39.729 302.254C38.3004 302.318 37.3594 300.798 38.1807 299.834Z" fill="#52AFA3" fill-opacity="0.56"/>
<path opacity="0.3" fill-rule="evenodd" clip-rule="evenodd" d="M45.1102 432.022C44.1178 431.649 43.1254 431.258 42.9629 429.292C43.4927 428.713 43.9631 428.075 44.3659 427.39C44.4694 427.427 44.5788 427.441 44.6877 427.432C44.7965 427.422 44.9025 427.39 44.999 427.335C44.8963 428.355 46.2223 427.645 46.7612 428.081C47.1975 427.572 47.0179 426.698 48.0787 426.562C48.4637 426.807 48.4124 427.599 48.1814 427.909C47.6681 427.763 47.3258 428.491 47.0692 427.973C47.067 428.764 46.8883 429.544 46.5478 430.248C46.2072 430.952 45.7146 431.56 45.1102 432.022Z" fill="#52AFA3" fill-opacity="0.56"/>
<path opacity="0.3" fill-rule="evenodd" clip-rule="evenodd" d="M32.5686 344.603C32.8509 344.466 33.2188 344.894 33.4241 344.457C33.6637 345.194 34.1941 344.803 34.4849 345.513C34.4 345.549 34.328 345.612 34.2796 345.695C34.5961 345.831 34.5962 346.059 34.8614 346.204C34.6561 346.477 34.9298 346.605 34.6133 346.896C33.8775 346.96 33.3984 346.541 32.6713 346.851C32.3912 346.559 32.225 346.165 32.2059 345.748C32.1869 345.331 32.3164 344.922 32.5686 344.603Z" fill="#52AFA3" fill-opacity="0.56"/>
<path opacity="0.3" fill-rule="evenodd" clip-rule="evenodd" d="M33.1587 311.01C33.2185 310.928 33.3126 311.01 33.3895 311.065C33.4837 310.519 33.7146 310.555 34.0312 309.891C34.476 309.891 35.5796 309.891 35.4428 310.646C35.6908 310.828 36.016 310.646 36.247 311.092C36.0331 311.893 36.016 312.821 35.1434 313.458C34.382 313.231 33.5522 313.386 33.8858 312.157C33.21 312.166 32.7908 311.483 33.1587 311.01Z" fill="#52AFA3" fill-opacity="0.56"/>
<path opacity="0.3" fill-rule="evenodd" clip-rule="evenodd" d="M91.5548 361.241C91.6232 361.159 91.7088 361.241 91.7944 361.295C91.8799 360.749 92.1109 360.795 92.4274 360.121C92.8723 360.121 93.9759 360.121 93.8475 360.877C94.0871 361.059 94.4122 360.876 94.6518 361.322C94.4293 362.123 94.4122 363.052 93.5396 363.689C92.7782 363.461 91.9484 363.625 92.282 362.388C91.6148 362.397 91.1698 361.696 91.5548 361.241Z" fill="#52AFA3" fill-opacity="0.56"/>
<path opacity="0.3" fill-rule="evenodd" clip-rule="evenodd" d="M48.5149 342.227C48.2991 341.723 48.2294 341.163 48.3147 340.616C48.4001 340.07 48.6365 339.563 48.9939 339.16C49.57 339.172 50.1451 339.105 50.7049 338.96C50.7313 339.046 50.7737 339.126 50.8295 339.195C50.8853 339.264 50.9535 339.32 51.03 339.36C50.4312 339.897 51.4236 340.362 51.4322 340.999C51.9113 340.999 52.2876 340.334 52.8693 340.999C52.8601 341.208 52.789 341.409 52.666 341.572C52.5431 341.736 52.3748 341.854 52.185 341.909C52.031 341.463 51.4578 341.663 51.6375 341.19C51.2445 341.634 50.7508 341.962 50.2039 342.144C49.657 342.325 49.0753 342.354 48.5149 342.227Z" fill="#52AFA3" fill-opacity="0.56"/>
<path opacity="0.3" fill-rule="evenodd" clip-rule="evenodd" d="M48.1126 437.747C48.3949 437.61 48.7627 438.038 48.9681 437.61C49.2076 438.338 49.738 437.947 50.0289 438.657C49.9453 438.695 49.874 438.759 49.8236 438.839C50.1401 438.976 50.14 439.203 50.4052 439.349C50.1999 439.622 50.4737 439.749 50.1572 440.04C49.4215 440.104 48.9424 439.686 48.2152 439.995C47.9351 439.703 47.7689 439.309 47.7499 438.892C47.7308 438.475 47.8604 438.066 48.1126 437.747Z" fill="#52AFA3" fill-opacity="0.56"/>
<path opacity="0.3" fill-rule="evenodd" clip-rule="evenodd" d="M83.1881 303.684C83.3677 303.775 83.4447 303.893 83.2993 304.075C83.2219 304.105 83.1371 304.105 83.0597 304.075C83.0552 304.004 83.0642 303.933 83.0863 303.865C83.1083 303.798 83.143 303.736 83.1881 303.684Z" fill="#52AFA3" fill-opacity="0.56"/>
<path opacity="0.3" fill-rule="evenodd" clip-rule="evenodd" d="M85.4039 319.674C85.4724 319.592 85.5579 319.674 85.6349 319.729C85.729 319.183 85.96 319.228 86.2766 318.555C86.7214 318.555 87.825 318.555 87.6967 319.319C87.9362 319.492 88.2613 319.319 88.4922 319.765C88.2784 320.557 88.2612 321.495 87.3886 322.132C86.6272 321.895 85.7974 322.059 86.1311 320.83C85.4638 320.848 85.019 320.138 85.4039 319.674Z" fill="#52AFA3" fill-opacity="0.56"/>
<path opacity="0.3" fill-rule="evenodd" clip-rule="evenodd" d="M26.674 372.599C26.3147 373.909 25.9383 375.211 24.0562 375.902C23.2521 375.42 23.1151 374.993 22.1826 374.71C22.247 374.458 22.2227 374.19 22.1142 373.955C23.1152 373.818 22.4051 372.398 22.8328 371.616C22.3281 371.224 21.4811 371.68 21.3271 370.433C21.4602 370.2 21.6653 370.023 21.9073 369.934C22.1492 369.844 22.4129 369.847 22.6532 369.941C22.5078 370.615 23.2349 370.851 22.7216 371.288C23.4287 371.072 24.1799 371.08 24.8824 371.313C25.5848 371.546 26.2077 371.993 26.674 372.599Z" fill="#52AFA3" fill-opacity="0.56"/>
<path opacity="0.05" d="M99.203 270.525C83.2651 270.653 85.6092 277.151 69.6799 276.896C61.7837 276.778 47.2745 276.341 39.3783 276.341C31.4821 276.341 14.8257 276.624 14.8257 276.624L15.9122 282.284C15.9122 282.284 31.4222 282.448 39.1901 282.448C47.0949 282.448 56.1546 281.966 64.0508 282.084C79.9801 282.321 84.3174 282.039 100.255 281.911C100.52 280.619 102.856 270.525 99.203 270.525Z" fill="#66636C"/>
<path opacity="0.1" d="M99.7248 275.805C93.377 275.805 85.0702 279.445 78.731 279.518C73.2387 279.564 25.8188 278.408 14.8257 280.529C15.2278 283.023 24.1591 282.804 41.7309 282.749C47.1547 282.749 64.641 281.903 78.5171 282.476C84.3858 282.713 100.204 282.476 100.204 282.476C99.91 280.266 99.7499 278.037 99.7248 275.805Z" fill="#66636C"/>
<path opacity="0.05" d="M90.3229 434.833C86.6187 437.709 76.404 439.785 70.715 440.376C45.0502 443.043 18.0252 434.506 18.3332 441.032C18.6155 447.038 29.0868 446.984 47.1291 447.876C52.0311 448.112 69.8253 447.985 74.7016 447.876C78.6455 447.776 92.282 446.32 96.3969 444.044C100.82 441.596 98.6555 416.076 98.5956 414.628C98.5699 414.055 93.531 432.34 90.3229 434.833Z" fill="#66636C"/>
<path opacity="0.1" d="M91.5464 437.773C87.5599 441.305 76.755 443.708 71.0146 443.963C41.6028 445.264 20.0357 440.24 20.3351 441.942C21.0708 445.246 30.6011 446.747 46.5047 447.876C56.2009 448.499 65.9287 448.28 75.5915 447.221C79.5182 446.748 90.7166 445.055 95.7982 444.318C97.7744 444.035 97.7146 428.135 97.6461 426.688C97.6547 426.16 95.2422 434.506 91.5464 437.773Z" fill="#66636C"/>
<path opacity="0.05" d="M18.9065 199.534C19.3 196.049 24.6383 194.838 24.6383 194.838L23.2097 268.778L17.4692 268.187C17.4692 268.187 18.051 207.134 18.9065 199.534Z" fill="#66636C"/>
<path opacity="0.05" d="M17.4775 284.242L23.4745 282.485L25.3053 445.547L18.8378 444.446L17.4775 284.242Z" fill="#66636C"/>
<path d="M36.9282 370.129C37.0272 370.307 37.1725 370.455 37.3485 370.557C37.5245 370.659 37.7247 370.712 37.9282 370.709C38.1244 370.723 38.3207 370.684 38.4966 370.596C38.6724 370.508 38.8214 370.374 38.9282 370.209C39.2249 369.613 39.379 368.956 39.3783 368.289L40.7182 368.459C40.7214 369.435 40.417 370.387 39.8482 371.18C39.5739 371.441 39.2499 371.644 38.8954 371.778C38.5408 371.912 38.1631 371.973 37.7844 371.958C37.4057 371.943 37.0339 371.853 36.691 371.691C36.3481 371.53 36.0412 371.302 35.7883 371.019C35.1742 369.983 34.9078 368.778 35.0283 367.579V362.379C34.9106 361.181 35.1768 359.976 35.7883 358.939C36.034 358.635 36.3472 358.393 36.7031 358.232C37.059 358.07 37.4477 357.994 37.8382 358.009C38.1996 357.979 38.5633 358.023 38.9072 358.139C39.2511 358.254 39.5678 358.438 39.8382 358.68C40.3805 359.358 40.6734 360.201 40.6682 361.069L39.2783 361.41C39.2637 360.821 39.1166 360.243 38.8482 359.72C38.7459 359.566 38.6055 359.442 38.4406 359.36C38.2758 359.277 38.0923 359.239 37.9083 359.249C37.7021 359.246 37.4991 359.3 37.3222 359.406C37.1454 359.512 37.002 359.666 36.9083 359.849C36.6124 360.546 36.4888 361.305 36.5482 362.059V367.979C36.4944 368.716 36.625 369.455 36.9282 370.129Z" fill="#66636C"/>
<path d="M42.4185 371.67V358.299H44.7886C45.1985 358.273 45.6091 358.34 45.9899 358.494C46.3707 358.648 46.712 358.886 46.9885 359.19C47.6091 360.146 47.8844 361.285 47.7686 362.42V362.52C47.7686 364.446 47.2985 365.676 46.3585 366.21L47.9485 371.67H46.3785L44.8885 366.549H43.9485V371.67H42.4185ZM46.2686 362.67V362.1C46.3261 361.393 46.1877 360.683 45.8685 360.049C45.753 359.869 45.5928 359.723 45.4036 359.623C45.2143 359.523 45.0025 359.473 44.7886 359.48H43.9485V365.31H44.7886C45.7686 365.35 46.2285 364.47 46.2285 362.71L46.2686 362.67Z" fill="#66636C"/>
<path d="M51.2788 365.609V370.449H54.6088V371.669H49.7588V358.299H54.5487V359.519H51.2788V364.389H54.2788V365.609H51.2788Z" fill="#66636C"/>
<path d="M61.0585 371.669L60.4685 368.189H57.7686L57.1985 371.669H55.6685L58.1185 358.299H60.1185L62.5685 371.669H61.0585ZM59.1285 360.249L57.9785 366.999H60.2285L59.1285 360.249Z" fill="#66636C"/>
<path d="M65.5385 371.669H64.0483V358.299H66.3784L68.0084 367.559L69.6484 358.299H71.9784V371.669H70.4884V359.589L68.8684 368.799H67.1683L65.5385 359.589V371.669Z" fill="#66636C"/>
<path d="M73.2285 371.67V369.91H74.7385V371.67H73.2285Z" fill="#66636C"/>
<path d="M75.8984 371.669V358.299H77.4283V370.449H80.4283V371.669H75.8984Z" fill="#66636C"/>
<path d="M83.9885 371.669H82.4985V367.25L79.9785 358.35H81.4685L83.2485 365.24L84.9985 358.35H86.4885L83.9885 367.25V371.669Z" fill="#66636C"/>
<path d="M59.3656 325.002C58.4718 325.111 57.6353 325.5 56.9755 326.112C55.7934 327.069 54.7293 328.164 53.8056 329.373C51.6856 332.033 49.6055 335.312 49.0755 338.742C48.852 340.551 49.1269 342.387 49.8707 344.05C50.6144 345.714 51.7988 347.142 53.2956 348.182C54.7474 349.168 56.4224 349.777 58.1687 349.951C59.915 350.126 61.6773 349.861 63.2956 349.182C65.0619 348.418 66.5049 347.06 67.3744 345.343C68.2438 343.626 68.4848 341.658 68.0556 339.782C67.4156 336.782 65.5656 334.642 63.5356 332.502C61.5056 330.362 59.7156 328.152 59.5356 325.082C59.5356 325.012 59.4056 324.992 59.3656 325.002" stroke="#66636C" stroke-width="2" stroke-linecap="round" stroke-linejoin="round"/>
</g>
<defs>
<clipPath id="clip0_2391_16598">
<rect width="120" height="267" fill="white" transform="translate(0 193)"/>
</clipPath>
</defs>
</svg>
