<svg xmlns="http://www.w3.org/2000/svg" width="62" height="62" viewBox="0 0 62 62">
  <g fill="none" fill-rule="evenodd" transform="translate(1 1)">
    <polygon stroke="#4E4E4E" stroke-width="2" points="2.632 46.732 23.446 46.732 23.446 34.113 2.632 34.113"/>
    <polygon stroke="#4E4E4E" stroke-width="2" points="5.888 34.113 19.912 34.113 19.912 21.495 5.888 21.495"/>
    <path stroke="#4E4E4E" stroke-width="2" d="M13.7345258 46.7317647L13.7345258 34.113176M9.89451174 59.3503534L9.89451174 46.7317647M19.4946693 59.3503534L19.4946693 46.7317647M23.4459464 56.5948019L23.4459464 46.7317647.0439663545 46.7317647.0439663545 59.3503534 26.2014979 59.3503534C24.6798212 59.3503534 23.4459464 58.1164787 23.4459464 56.5948019z"/>
    <path stroke="#4E4E4E" stroke-width="2" d="M56.5305057,59.3503534 L26.2016816,59.3503534 C24.6793925,59.3503534 23.4461301,58.1164787 23.4461301,56.5948019 L23.4461301,2.86399773 C23.4461301,1.34232097 24.6793925,0.108446259 26.2016816,0.108446259 L56.5305057,0.108446259 C58.0521825,0.108446259 59.2860572,1.34232097 59.2860572,2.86399773 L59.2860572,56.5948019 C59.2860572,58.1164787 58.0521825,59.3503534 56.5305057,59.3503534 Z"/>
    <text fill="#4E4E4E" font-family="MyriadPro-Bold, Myriad Pro" font-size="8" font-weight="bold">
      <tspan x="26.363" y="25">СEMENT</tspan>
    </text>
    <path stroke="#4E4E4E" stroke-width="2" d="M27.786736,4.99336543 L32.3793218,4.99336543 L27.786736,4.99336543 Z"/>
    <path stroke="#4E4E4E" stroke-dasharray="9.541 9.541" stroke-width="2" d="M38.2220095,4.99336543 L46.9858878,4.99336543"/>
    <path stroke="#4E4E4E" stroke-width="2" d="M49.9070785 4.99336543L54.4996643 4.99336543M27.786736 33.9332691C31.1840248 35.9191032 36.102378 37.1682866 41.5749032 37.1682866 47.0474285 37.1682866 51.9657816 35.9191032 55.3630704 33.9332691"/>
  </g>
</svg>
