<svg xmlns="http://www.w3.org/2000/svg" width="62" height="60" viewBox="0 0 62 60">
  <g fill="none" fill-rule="evenodd" stroke="#4E4E4E" stroke-width="2" transform="translate(1 1)">
    <path d="M27.9114094 20.5265315C27.7981257 21.1964367 27.7393406 21.8902233 27.7393406 22.6005433 27.7393406 28.2837151 31.5322041 32.8909971 36.2111305 32.8909971 40.8900568 32.8909971 44.6835327 28.2837151 44.6835327 22.6005433 44.6835327 21.8700159 44.6204612 21.1572466 44.5016663 20.4695835M26.901408 35.5663314C26.901408 35.5663314 30.7401973 35.0715568 31.0028933 30.8904668"/>
    <path d="M27.0658838 35.317597C26.9581111 35.7480753 26.901163 36.1920253 26.901163 36.6469975 26.901163 40.4649671 30.8918139 43.5597576 35.8144535 43.5597576 40.7364808 43.5597576 44.727744 40.4649671 44.727744 36.6469975 44.727744 36.4057336 44.7406032 35.5662089 44.7406032 35.5662089 44.7406032 35.5662089 40.8889546 35.3408661 40.6262587 31.1591636M49.313594 36.4170008C48.1678969 35.8714016 46.887484 35.5664539 45.5372638 35.5664539L44.7406032 35.5664539M44.2282544 53.0079924L49.3811356 53.0079924C52.1538327 53.0079924 54.4017504 50.7380304 54.4017504 47.9383901L54.4017504 44.5178322C54.4017504 44.1149093 54.3754196 43.7174976 54.3239826 43.3286587"/>
    <path d="M27.1585315,35.5663314 L26.003037,35.5663314 L25.1543271,35.5663314 C20.2580183,35.5663314 16.2894119,39.5741279 16.2894119,44.5175873 L16.2894119,47.9381452 C16.2894119,50.7383978 18.5373295,53.0077475 21.3100266,53.0077475 L40.1286061,53.0077475"/>
    <polyline points="36.023 3.117 .542 3.117 .542 53.008 14.878 53.008"/>
    <polygon points="4.65 3.117 34.147 3.117 34.147 .351 4.65 .351"/>
    <polygon points="5.163 12.537 11.325 12.537 11.325 6.228 5.163 6.228"/>
    <polygon points="15.202 12.537 21.364 12.537 21.364 6.228 15.202 6.228"/>
    <polygon points="5.163 24.03 11.325 24.03 11.325 17.721 5.163 17.721"/>
    <polygon points="15.202 24.03 21.364 24.03 21.364 17.721 15.202 17.721"/>
    <polygon points="5.163 34.313 11.325 34.313 11.325 28.005 5.163 28.005"/>
    <polygon points="5.163 45.548 11.325 45.548 11.325 39.24 5.163 39.24"/>
    <polygon points="15.202 34.313 21.364 34.313 21.364 28.005 15.202 28.005"/>
    <path d="M22.6975387 35.9185521L22.6975387 53.00787M46.4079568 17.0139382C46.0031969 12.5707646 42.7467474 8.953644 38.4793167 7.98552691L38.4793167 7.01128639C38.4793167 6.00581627 37.6642858 5.19078538 36.6588157 5.19078538L35.7629553 5.19078538C34.7580976 5.19078538 33.943679 6.00581627 33.943679 7.01128639L33.943679 7.98001581C29.659715 8.93833538 26.3879569 12.5621917 25.983197 17.0169999 25.2300129 17.0414937 24.626241 17.661799 24.626241 18.4278423 24.626241 19.2091942 25.3573806 19.9011438 26.1313844 19.9011438 28.8501952 21.3426034 32.3589307 22.2151947 36.1958831 22.2151947 40.0328354 22.2151947 43.5415709 21.3426034 46.2609941 19.9011438 47.0343855 19.9011438 47.7961424 19.2091942 47.7961424 18.4278423 47.7961424 17.6507768 47.1758372 17.0218987 46.4079568 17.0139382z"/>
    <path d="M38.4791943 14.1782308L38.4791943 7.48101606C38.4791943 6.21652411 37.4639266 5.19084662 36.2110692 5.19084662 34.9588242 5.19084662 33.9435565 6.21652411 33.9435565 7.48101606L33.9435565 14.1782308M30.991075 17.7347905C31.9322489 18.5890114 33.9058361 19.1786994 36.1960055 19.1786994 38.4855626 19.1786994 40.4597622 18.5890114 41.4003237 17.7347905M56.8722554 39.8871586L53.2637076 38.9349625 52.5674716 35.2357877 55.0793099 32.8647888C53.5331393 32.7012927 51.8681739 33.2279092 50.5767388 34.4464753 49.2473383 35.7011697 48.6178479 37.4022635 48.7182724 39.0127303L40.0499198 47.1924317C38.4657839 46.9817851 36.7420334 47.5010535 35.4126329 48.7551355 34.1211978 49.974314 33.4880333 51.6160103 33.5455937 53.1848376L36.0580443 50.814451 39.6653673 51.7666471 40.3622157 55.4658219 37.8503774 57.8362085C39.3971603 58.0003169 41.0621257 57.4743127 42.3535609 56.2551343 43.6829613 55.0004399 44.3124518 53.2987337 44.2114149 51.6888793L52.8797675 43.5097902C54.4639034 43.7198245 56.1882662 43.2005561 57.5176667 41.9458617 58.8091019 40.7272956 59.441654 39.0855993 59.3847059 37.5161596L56.8722554 39.8871586z"/>
  </g>
</svg>
