<svg xmlns="http://www.w3.org/2000/svg" width="61" height="60" viewBox="0 0 61 60">
  <g fill="none" fill-rule="evenodd" stroke="#4E4E4E" stroke-width="2">
    <path d="M51.3210438,52.8064698 L9.92470033,52.8064698 C8.55121101,52.8064698 7.43735588,51.6926146 7.43735588,50.3191253 L7.43735588,8.92339417 C7.43735588,7.5492925 8.55121101,6.43543736 9.92470033,6.43543736 L51.3210438,6.43543736 C52.6945332,6.43543736 53.8083883,7.5492925 53.8083883,8.92339417 L53.8083883,50.3191253 C53.8083883,51.6926146 52.6945332,52.8064698 51.3210438,52.8064698 Z"/>
    <path d="M12.3474424 45.8464367L12.3474424 13.3958379C12.3474424 12.2685112 13.270246 11.3457076 14.3981851 11.3457076L46.8481715 11.3457076C47.9761105 11.3457076 48.8983018 12.2685112 48.8983018 13.3958379L48.8983018 45.8464367C48.8983018 46.9743757 47.9761105 47.8971793 46.8481715 47.8971793L14.3981851 47.8971793C13.270246 47.8971793 12.3474424 46.9743757 12.3474424 45.8464367zM11.8881838 6.43574354L11.8881838.00061234477M19.1060141 6.43574354L19.1060141.00061234477M26.0821519 6.43574354L26.0821519.00061234477M33.299921 6.43574354L33.299921.00061234477M40.5177512 6.43574354L40.5177512.00061234477M47.7355203 6.43574354L47.7355203.00061234477M11.8881838 59.2420908L11.8881838 52.8063473M19.1060141 59.2420908L19.1060141 52.8063473M26.0821519 59.2420908L26.0821519 52.8063473M33.299921 59.2420908L33.299921 52.8063473M40.5177512 59.2420908L40.5177512 52.8063473M47.7355203 59.2420908L47.7355203 52.8063473M60.2437032 47.5447749L53.808572 47.5447749M60.2437032 40.3270058L53.808572 40.3270058M60.2437032 33.3508068L53.808572 33.3508068M60.2437032 26.1330378L53.808572 26.1330378M60.2437032 18.9152687L53.808572 18.9152687M60.2437032 11.6974997L53.808572 11.6974997M6.91710776 47.1925542L.481364224 47.1925542M6.91710776 39.9747851L.481364224 39.9747851M6.91710776 32.9985861L.481364224 32.9985861M6.91710776 25.780817L.481364224 25.780817M6.91710776 18.563048L.481364224 18.563048M6.91710776 11.3455851L.481364224 11.3455851"/>
    <path d="M42.4414936 32.6884947C42.4414936 34.0338162 41.3509075 35.1244022 40.0049737 35.1244022 38.6602646 35.1244022 37.5696786 34.0338162 37.5696786 32.6884947 37.5696786 31.3431732 38.6602646 30.2525872 40.0049737 30.2525872 41.3509075 30.2525872 42.4414936 31.3431732 42.4414936 32.6884947zM30.9540281 20.6186282C30.9540281 21.9639496 29.8634421 23.0545357 28.5175083 23.0545357 27.1727992 23.0545357 26.0822131 21.9639496 26.0822131 20.6186282 26.0822131 19.2733067 27.1727992 18.1827207 28.5175083 18.1827207 29.8634421 18.1827207 30.9540281 19.2733067 30.9540281 20.6186282zM22.1347938 33.3508068C22.1347938 34.6961283 21.0442078 35.7867143 19.698274 35.7867143 18.3535649 35.7867143 17.2629788 34.6961283 17.2629788 33.3508068 17.2629788 32.0054853 18.3535649 30.9148993 19.698274 30.9148993 21.0442078 30.9148993 22.1347938 32.0054853 22.1347938 33.3508068z"/>
    <polyline points="12.347 25.781 19.699 25.781 19.699 30.915"/>
    <polyline points="28.518 23.054 28.518 34.673 31.706 38.282 31.706 47.545"/>
    <path d="M22.1347938 47.8969956L22.1347938 44.3264132M39.1034797 11.3455851L36.7575869 14.8261528"/>
    <polyline points="48.899 20.619 40.006 20.619 40.006 30.253"/>
    <polyline points="40.518 43.785 40.518 40.327 45.328 40.327"/>
  </g>
</svg>
