<svg xmlns="http://www.w3.org/2000/svg" width="62" height="62" viewBox="0 0 62 62">
  <g fill="none" fill-rule="evenodd" stroke="#4E4E4E" stroke-width="2" transform="translate(1 1)">
    <polygon points="38.352 59.439 59.442 59.439 59.442 22.27 38.352 22.27"/>
    <polyline points="38.352 59.439 .201 55.434 .201 26.275 38.352 22.27"/>
    <path d="M49.5192806 22.2706119L49.5192806 59.4393271M46.3203303 38.7273776L46.3203303 42.106296M51.9779673 38.7273776L51.9779673 42.106296M28.2167245 6.282045L26.4795024 6.282045C24.5297967 6.282045 22.9493348 4.70158315 22.9493348 2.7518774L22.9493348.197787361 31.7468921.197787361 31.7468921 2.7518774C31.7468921 4.70158315 30.1664303 6.282045 28.2167245 6.282045zM30.0585351 10.256285C30.0585351 10.256285 29.6139728 14.07303 27.3482972 14.1361015 25.0820092 14.1985607 24.1340995 11.7583667 24.1934969 10.256285 24.2528944 8.75481565 27.4817884 10.005836 27.3482972 6.37708091M11.4836689 25.0910107L24.7709381 14.1373874"/>
    <polyline points="26.237 12.634 27.659 11.555 43.121 22.271"/>
    <path d="M33.1686955 27.4641528L33.1686955 54.2144341M26.5632712 27.4641528L26.5632712 54.2144341M19.2764297 27.4797064L19.2764297 54.2299877M12.6710054 27.902163L12.6710054 53.620031M5.41374011 29.3412345L5.41374011 52.6813677"/>
  </g>
</svg>
