<svg xmlns="http://www.w3.org/2000/svg" width="65" height="62" viewBox="0 0 65 62">
  <g fill="none" fill-rule="evenodd" stroke="#4E4E4E" stroke-width="2" transform="translate(1 1)">
    <polygon points="10.514 39.414 2.454 39.414 3.697 9.08 9.27 9.08"/>
    <path d="M3.45772721,14.3938374 L9.50953058,14.3938374"/>
    <polygon points="48.263 49.338 43.31 49.338 44.074 30.699 47.499 30.699"/>
    <path d="M43.9274706 33.964315L47.6456281 33.964315M6.7550201 5.20627771C6.7550201 5.20627771 4.29278178 3.36434464 6.00367307 1.40177965 7.71395201-.560785341 8.85475032 1.12989857 9.13949063 1.5830337 9.42423095 2.03616883 11.5753981 4.14937063 13.9727279.647370891M45.3321895 27.0698028C45.3321895 27.0698028 42.8699512 25.2278697 44.5808425 23.2653047 46.2911214 21.3027397 47.4319197 22.9934237 47.7166601 23.4465588 48.0014004 23.8990816 50.1525675 26.0128957 52.5498973 22.5102836"/>
    <polygon points="16.74 27.07 26.626 35.118 26.454 27.07 35.308 35.006 35.308 59.263 16.74 59.263"/>
    <path d="M16.7965558 41.8390075L16.7965558 45.4016294M22.3626473 41.8390075L22.3626473 45.4016294M27.9502933 41.8390075L27.9502933 45.4016294M16.7857785 49.8593156L16.7857785 53.4219375M22.35187 49.8593156L22.35187 53.4219375M27.9395161 49.8593156L27.9395161 53.4219375"/>
    <polygon points=".257 59.263 13.616 59.263 13.616 39.414 .257 39.414"/>
    <polygon points="41.295 59.716 50.779 59.716 50.779 49.338 41.295 49.338"/>
    <polygon points="50.779 59.716 62.623 59.716 62.623 39.414 50.779 39.414"/>
    <path d="M4.31225434 50.3179619L4.31225434 52.0839642M7.90794283 50.3179619L7.90794283 52.287875M11.0755411 50.3179619L11.0755411 52.287875M8.39353224 55.0283628L8.39353224 59.2627269M43.8987516 54.2808735L43.8987516 56.1375029M47.9029353 54.2808735L47.9029353 56.1375029M55.2104129 47.1246451L55.2104129 49.564839M58.1650989 49.3384552L58.1650989 47.1248288M55.0938224 53.0603479L55.0938224 55.5005418M58.0485084 55.2747091L58.0485084 53.0604704M55.3455574 14.3881426C52.4154876 8.33082813 45.0532665 4.03461722 36.4351262 4.03461722 27.9596622 4.03461722 20.6997026 8.18998883 17.6741071 14.088706M30.0134053 17.9808918C30.8125153 15.9123912 33.4517212 14.3937762 36.5850894 14.3937762 39.543327 14.3937762 42.061901 15.7470581 43.0061367 17.6385911"/>
    <polyline points="54.469 5.896 55.65 14.394 48.306 13.442"/>
    <polyline points="34.831 17.644 29.716 18.261 30.576 12.354"/>
  </g>
</svg>
