<svg xmlns="http://www.w3.org/2000/svg" width="62" height="62" viewBox="0 0 62 62">
  <g fill="none" fill-rule="evenodd" stroke="#4E4E4E" stroke-width="2" transform="translate(1 1)">
    <polyline points="13.152 48.86 13.152 59.381 33.888 59.381 33.888 31.932 13.152 31.932 13.152 39.065"/>
    <polygon points="33.888 24.556 47.672 33.263 47.433 24.556 59.778 33.141 59.778 59.38 33.888 59.38"/>
    <polygon points="26.907 31.932 17.587 31.932 19.025 6.902 25.469 6.902"/>
    <polyline points="33.986 31.932 29.745 31.932 31.183 6.902 37.627 6.902 38.827 27.786"/>
    <path d="M18.7480986 11.7207688L25.7453623 11.7207688M30.9065102 11.7207688L37.9037739 11.7207688M22.5608633 4.87646881C22.5608633 4.87646881 19.7140725 3.03269871 21.6919461 1.06768434 23.6698197-.897330026 24.988198.795190919 25.3176395 1.24893839 25.6476933 1.70207352 28.1350378 3.81833705 30.9065102.31143855M34.2590978 4.87646881C34.2590978 4.87646881 31.412307 3.03269871 33.3901806 1.06768434 35.3680542-.897330026 36.6858201.795190919 37.015874 1.24893839 37.3453154 1.70207352 39.8326599 3.81833705 42.6041323.31143855"/>
    <polygon points="18.426 44.114 8.627 34.456 8.627 39.263 .537 39.263 .537 48.422 8.627 48.422 8.627 53.228"/>
    <path d="M21.0326957 37.4488629L21.0326957 40.5326312M21.0326957 43.4344718L21.0326957 46.5176278M21.0326957 49.4203869L21.0326957 52.5035428M25.4375366 37.4488629L25.4375366 40.5326312M25.4375366 43.4344718L25.4375366 46.5176278M25.4375366 49.4203869L25.4375366 52.5035428M25.4375366 56.2967125L25.4375366 59.3804808M29.4530486 37.4488629L29.4530486 40.5326312M29.4530486 43.4344718L29.4530486 46.5176278M29.4530486 49.4203869L29.4530486 52.5035428M38.3228014 38.6606932L38.3228014 42.5147912M46.0844551 38.6606932L46.0844551 42.5147912M53.8753788 38.6606932L53.8753788 42.5147912M38.3081664 49.208087L38.3081664 53.062185M46.0695139 49.208087L46.0695139 53.062185M53.8607438 49.208087L53.8607438 53.062185"/>
  </g>
</svg>
