<svg xmlns="http://www.w3.org/2000/svg" width="65" height="62" viewBox="0 0 65 62">
  <g fill="none" fill-rule="evenodd" stroke="#4E4E4E" stroke-width="2" transform="translate(4 1)">
    <path d="M59.2468671,30.1697982 C59.2468671,46.5292011 52.4731093,59.7907518 44.1176649,59.7907518 C35.7622205,59.7907518 28.989075,46.5292011 28.989075,30.1697982 C28.989075,13.8103953 35.7622205,0.548844618 44.1176649,0.548844618 C52.4731093,0.548844618 59.2468671,13.8103953 59.2468671,30.1697982 Z"/>
    <path d="M52.1989013 10.3911846C54.9048528 15.2238095 56.6506478 22.3625248 56.6506478 30.1693083 56.6506478 37.8168822 54.9752725 44.8227187 52.3642344 49.6486078M35.5412253 49.0155045C33.1200141 44.2202326 31.5854781 37.4887266 31.5854781 30.1693695 31.5854781 21.6712488 33.654591 13.9648899 36.7781617 9.1628822M51.1242975 41.823454C49.3086952 46.2703017 46.6272375 49.0191174 44.1184609 49.0191174 41.19329 49.0191174 38.035428 45.2844266 36.2865713 39.4806229M38.5192416 14.9158613C40.1762466 12.1664333 42.1975966 10.5559666 44.1185222 10.5559666 46.1319118 10.5559666 48.2555235 12.3256429 49.9547802 15.3218459"/>
    <path d="M44.118216,43.022425 C41.1256871,43.022425 36.7786516,37.9613955 36.7786516,30.0315307 C36.7786516,22.1010536 41.1256871,17.0400241 44.118216,17.0400241 C47.1107449,17.0400241 51.4577804,22.1010536 51.4577804,30.0315307 C51.4577804,37.9613955 47.1107449,43.022425 44.118216,43.022425 Z"/>
    <polyline points="4.965 18.878 30.556 17.04 37.818 23.68"/>
    <polyline points="5.196 43.022 30.917 44.645 38.519 38.049"/>
    <path d="M49.9546577 22.5070994L56.6506478 13.5742139M49.9546577 37.5532065L56.6506478 45.2111902M12.1315909 52.6405856L.00471505473 52.6405856 12.8168047 59.67459 42.8290466 59.67459 16.4492339 54.4678224 16.0922369 54.3980151C8.71164534 52.804694 3.02479946 42.7726496 3.02479946 30.6347516 3.02479946 22.197253 5.77300279 14.7774714 9.92776206 10.5020802L42.5736988.701502169"/>
  </g>
</svg>
