<svg xmlns="http://www.w3.org/2000/svg" width="62" height="48" viewBox="0 0 62 48">
  <g fill="none" fill-rule="evenodd" stroke="#4E4E4E" stroke-width="2" transform="translate(1 1)">
    <polyline points="56.219 37.318 59.359 37.318 59.359 32.839 58.093 32.839 58.093 20.368 36.056 20.368"/>
    <path d="M23.0694769,37.3181886 L35.8564604,37.3181886"/>
    <polyline points="20.479 28.345 30.187 31.507 43.415 6.405 56.774 6.432 56.774 .19 40.21 .19 34.407 6.109 .118 6.109 .118 21.714 11.288 25.358"/>
    <path d="M56.7738515 20.3680567C56.2466227 19.668759 53.8199004 8.90679962 53.8199004 8.90679962L44.4295933 8.90679962 39.022589 20.3680567M35.856093 35.5654741C35.856093 29.830253 40.4143874 25.1807192 46.0375495 25.1807192 51.6607115 25.1807192 56.219006 29.830253 56.219006 35.5654741 56.219006 41.3013076 51.6607115 45.9508414 46.0375495 45.9508414 40.4143874 45.9508414 35.856093 41.3013076 35.856093 35.5654741z"/>
    <path d="M46.0371821 40.3577455C43.4469637 40.3577455 41.339273 38.2071907 41.339273 35.564923 41.339273 32.9226553 43.4469637 30.7739375 46.0371821 30.7739375 48.6280128 30.7739375 50.7363158 32.9226553 50.7363158 35.564923 50.7363158 38.2071907 48.6280128 40.3577455 46.0371821 40.3577455zM2.99369235 35.5654741C2.99369235 29.830253 7.55198682 25.1807192 13.1751488 25.1807192 18.7983109 25.1807192 23.3566053 29.830253 23.3566053 35.5654741 23.3566053 41.3013076 18.7983109 45.9508414 13.1751488 45.9508414 7.55198682 45.9508414 2.99369235 41.3013076 2.99369235 35.5654741z"/>
    <path d="M13.1750876 40.3577455C10.5848692 40.3577455 8.47656619 38.2071907 8.47656619 35.564923 8.47656619 32.9226553 10.5848692 30.7739375 13.1750876 30.7739375 15.765306 30.7739375 17.873609 32.9226553 17.873609 35.564923 17.873609 38.2071907 15.765306 40.3577455 13.1750876 40.3577455zM46.0374882 8.90692209L46.0374882 20.3681792M25.0165495 10.1172828L21.9303319 20.9331284M17.8735478 10.1172828L14.7873302 19.8841818M10.0197975 9.75428478L7.68982563 17.7606927M29.8435409 34.0896008L33.6419155 34.0896008"/>
  </g>
</svg>
