<svg xmlns="http://www.w3.org/2000/svg" width="61" height="62" viewBox="0 0 61 62">
  <g fill="none" fill-rule="evenodd" stroke="#4E4E4E" stroke-width="2" transform="translate(1 1)">
    <polygon points="36.466 59.46 56.81 59.46 56.81 30.038 36.466 30.038"/>
    <path d="M17.2013769,46.5960079 L1.17386492,46.5960079 C0.737263103,46.5960079 0.383327826,46.2420726 0.383327826,45.8048584 L0.383327826,42.2655057 L18.9361497,42.2655057 L18.9361497,44.8606228 C18.9361497,45.8189424 18.1590842,46.5960079 17.2013769,46.5960079 Z"/>
    <polygon points="49.514 27.899 44.847 27.899 41.197 27.899 47.725 12.488 56.042 12.488"/>
    <path d="M59.6248063 30.0382053L26.7412798 30.0382053M.383450295 44.7488087L.383450295 16.0280019"/>
    <polyline points=".383 59.46 9.084 57.167 9.084 46.596"/>
    <path d="M16.7612848 59.4600856L9.08431837 57.1674668M31.1155035 21.7105614L20.9616025 21.7105614C20.9493556 21.7105614 20.9389457 21.7062749 20.9297605 21.6989268L13.9465808 15.9392119 13.9465808 15.5705803C13.9465808 13.6423067 12.3832646 12.0789905 10.4549909 12.0789905L8.73675148 12.0789905C6.80909014 12.0789905 5.24577394 13.6423067 5.24577394 15.5705803L5.24577394 37.4441479C5.24577394 37.4453726 5.24761098 37.4447602 5.24761098 37.4459849 5.24761098 37.4612935 5.24577394 37.4747651 5.24577394 37.4894614 5.24577394 39.6259323 7.0013664 41.3735643 9.14824716 41.3735643L22.3908152 41.3735643 22.3908152 57.3037135C22.3908152 58.4898253 23.3613816 59.4597794 24.5468811 59.4597794L25.6086869 59.4597794C26.7941864 59.4597794 27.7647529 58.4898253 27.7647529 57.3037135L27.7647529 36.3358039C27.7647529 34.8337221 26.5357769 33.6047462 25.0330829 33.6047462L22.8427256 33.6047462C22.8029232 33.6047462 22.7667949 33.6176054 22.7294418 33.6274029L13.9465808 33.6127067 13.9465808 21.6462652 18.7430774 25.6014C19.2249927 26.0000365 19.8287646 26.1482239 20.4092675 26.0796413 20.4907093 26.0888265 20.5709265 26.1047474 20.6560424 26.1047474L31.1155035 26.1047474C32.3297831 26.1047474 33.322394 25.116423 33.322394 23.9076544 33.322394 22.6988858 32.3297831 21.7105614 31.1155035 21.7105614z"/>
    <path d="M9.72703544 18.1674733L18.7431998 25.6031758C19.2251152 26.0005876 19.8288871 26.148775 20.4087776 26.0808048 20.4908318 26.0899899 20.571049 26.1059109 20.6561649 26.1059109L31.1156259 26.1059109C32.3299056 26.1059109 33.3225165 25.1169741 33.3225165 23.9088179 33.3225165 22.7000493 32.3299056 21.7117248 31.1156259 21.7117248L20.9433546 21.7117248 13.8560762 15.8662816M15.8493197 6.14898248C15.8493197 9.42441466 13.1825582 12.0795416 9.89181742 12.0795416 6.60107662 12.0795416 3.9337028 9.42441466 3.9337028 6.14898248 3.9337028 2.8735503 6.60107662.217811035 9.89181742.217811035 13.1825582.217811035 15.8493197 2.8735503 15.8493197 6.14898248zM13.6265694 33.6117881L5.24540654 33.6117881M44.8466001 27.8991625L21.1268131 27.8991625"/>
  </g>
</svg>
