<svg width="32" height="32" viewBox="0 0 32 32" fill="none" xmlns="http://www.w3.org/2000/svg">
<path d="M9.5 8H15V21H6V15L9.5 8Z" fill="#990031"/>
<path d="M4 15H13.5" stroke="#990031" stroke-width="2" stroke-linecap="round" stroke-linejoin="round"/>
<path d="M10 21V23.25C10 23.4489 9.91571 23.6397 9.76569 23.7803C9.61566 23.921 9.41217 24 9.2 24H6.8C6.58783 24 6.38434 23.921 6.23431 23.7803C6.08429 23.6397 6 23.4489 6 23.25V21" stroke="#990031" stroke-width="2" stroke-linecap="round" stroke-linejoin="round"/>
<path d="M14 9H15V7H14V9ZM9.48741 8V7H9.48741L9.48741 8ZM8.80205 8.45413L7.88535 8.05454V8.05454L8.80205 8.45413ZM6 14.8824L5.0833 14.4828C5.02836 14.6088 5 14.7448 5 14.8824H6ZM6 21H5C5 21.5523 5.44772 22 6 22V21ZM14 22H15V20H14V22ZM14 7H9.48741V9H14V7ZM9.48741 7C9.14464 7 8.81076 7.10145 8.52636 7.2899L9.63108 8.95711C9.58997 8.98435 9.54002 9 9.48741 9L9.48741 7ZM8.52636 7.2899C8.24218 7.4782 8.02047 7.74456 7.88535 8.05454L9.71874 8.85371C9.70147 8.89335 9.67197 8.93002 9.63108 8.95711L8.52636 7.2899ZM7.88535 8.05454L5.0833 14.4828L6.9167 15.2819L9.71874 8.85371L7.88535 8.05454ZM5 14.8824V21H7V14.8824H5ZM6 22H14V20H6V22Z" fill="#990031"/>
<path d="M9 18H10" stroke="white" stroke-width="2" stroke-linecap="round" stroke-linejoin="round"/>
<path d="M28 14C28.5523 14 29 14.4477 29 15C29 15.5523 28.5523 16 28 16V14ZM18 16H17V14H18V16ZM28 16H18V14H28V16Z" fill="#990031"/>
<path d="M22 21V23.25C22 23.4489 22.0843 23.6397 22.2343 23.7803C22.3843 23.921 22.5878 24 22.8 24H25.2C25.4122 24 25.6157 23.921 25.7657 23.7803C25.9157 23.6397 26 23.4489 26 23.25V21" stroke="#990031" stroke-width="2" stroke-linecap="round" stroke-linejoin="round"/>
<path d="M18 9H17V7H18V9ZM22.5126 8V7H22.5126L22.5126 8ZM23.198 8.45413L24.1146 8.05454V8.05454L23.198 8.45413ZM26 14.8824L26.9167 14.4828C26.9716 14.6088 27 14.7448 27 14.8824H26ZM26 21H27C27 21.5523 26.5523 22 26 22V21ZM18 22H17V20H18V22ZM18 7H22.5126V9H18V7ZM22.5126 7C22.8554 7 23.1892 7.10145 23.4736 7.2899L22.3689 8.95711C22.41 8.98435 22.46 9 22.5126 9L22.5126 7ZM23.4736 7.2899C23.7578 7.4782 23.9795 7.74456 24.1146 8.05454L22.2813 8.85371C22.2985 8.89335 22.328 8.93002 22.3689 8.95711L23.4736 7.2899ZM24.1146 8.05454L26.9167 14.4828L25.0833 15.2819L22.2813 8.85371L24.1146 8.05454ZM27 14.8824V21H25V14.8824H27ZM26 22H18V20H26V22Z" fill="#990031"/>
<path d="M23 18H22" stroke="#990031" stroke-width="2" stroke-linecap="round" stroke-linejoin="round"/>
</svg>
