<svg width="32" height="32" viewBox="0 0 32 32" fill="none" xmlns="http://www.w3.org/2000/svg">
<path d="M17.1033 27.6772L27.5251 16.5148C30.0858 13.7721 30.4636 9.25996 28.0403 6.37759C27.4333 5.65351 26.6949 5.06949 25.8702 4.66116C25.0455 4.25283 24.1518 4.02875 23.2436 4.00259C22.3353 3.97643 21.4317 4.14874 20.5877 4.50901C19.7437 4.86928 18.977 5.40995 18.3346 6.09804L16.3757 8.19607L14.6845 6.38463C12.1238 3.64192 7.91098 3.23727 5.21984 5.83281C4.54381 6.48295 3.99854 7.27379 3.6173 8.1571C3.23605 9.0404 3.02684 9.99765 3.00242 10.9704C2.97799 11.9432 3.13887 12.9111 3.47524 13.8151C3.81161 14.719 4.31641 15.5401 4.95884 16.2282L15.6482 27.6772C15.8412 27.8839 16.1029 28 16.3758 28C16.6486 28 16.9103 27.8839 17.1033 27.6772V27.6772Z" stroke="#990031" stroke-width="2" stroke-linecap="round" stroke-linejoin="round"/>
</svg>
