<svg width="48" height="48" viewBox="0 0 48 48" fill="none" xmlns="http://www.w3.org/2000/svg">
    <path d="M31.5 4.5H16.5V12H31.5V4.5Z" stroke="#222222" stroke-width="2" stroke-linecap="round" stroke-linejoin="round"/>
    <path d="M31.5 7.5H37.5C37.8978 7.5 38.2794 7.65804 38.5607 7.93934C38.842 8.22064 39 8.60218 39 9V40.5C39 40.8978 38.842 41.2794 38.5607 41.5607C38.2794 41.842 37.8978 42 37.5 42H10.5C10.1022 42 9.72064 41.842 9.43934 41.5607C9.15804 41.2794 9 40.8978 9 40.5V9C9 8.60218 9.15804 8.22064 9.43934 7.93934C9.72064 7.65804 10.1022 7.5 10.5 7.5H16.5" stroke="#222222" stroke-width="2" stroke-linecap="round" stroke-linejoin="round"/>
    <path d="M28 21L22 27L19 24" stroke="#990031" stroke-width="2" stroke-linecap="round" stroke-linejoin="round"/>
</svg>
