<svg width="26" height="26" viewBox="0 0 26 26" fill="none" xmlns="http://www.w3.org/2000/svg">
<path fill-rule="evenodd" clip-rule="evenodd" d="M24.2929 25.7071C24.6834 26.0976 25.3166 26.0976 25.7071 25.7071C26.0976 25.3166 26.0976 24.6834 25.7071 24.2929L14.4142 13L25.7071 1.70711C26.0976 1.31658 26.0976 0.683419 25.7071 0.292894C25.3166 -0.09763 24.6834 -0.09763 24.2929 0.292894L13 11.5858L1.70711 0.292893C1.31658 -0.0976311 0.683419 -0.0976311 0.292893 0.292893C-0.097631 0.683417 -0.097631 1.31658 0.292893 1.70711L11.5858 13L0.292894 24.2929C-0.0976301 24.6834 -0.0976301 25.3166 0.292894 25.7071C0.683419 26.0976 1.31658 26.0976 1.70711 25.7071L13 14.4142L24.2929 25.7071Z" fill="white"/>
</svg>
