<svg width="32" height="32" viewBox="0 0 32 32" fill="none" xmlns="http://www.w3.org/2000/svg">
<path fill-rule="evenodd" clip-rule="evenodd" d="M16.4941 0.785889C17.0464 0.785889 17.4941 1.2336 17.4941 1.78589V5.25462C19.0933 5.42651 20.557 6.00545 21.6931 6.88081C23.0636 7.9368 23.9999 9.46676 23.9999 11.2362C23.9999 11.7885 23.5522 12.2362 22.9999 12.2362C22.4476 12.2362 21.9999 11.7885 21.9999 11.2362C21.9999 10.217 21.4644 9.22944 20.4724 8.46509C19.4793 7.69991 18.0713 7.20117 16.4931 7.20117C14.915 7.20117 13.5069 7.69991 12.5138 8.46509C11.5218 9.22944 10.9863 10.217 10.9863 11.2362C10.9863 13.2863 12.8107 15.2712 16.4931 15.2712C18.7927 15.2712 20.6661 15.8781 21.9837 16.9742C23.3146 18.0813 23.9999 19.6259 23.9999 21.3062C23.9999 23.0756 23.0636 24.6056 21.6931 25.6616C20.557 26.537 19.0933 27.1159 17.4941 27.2878V30.214C17.4941 30.7663 17.0464 31.214 16.4941 31.214C15.9419 31.214 15.4941 30.7663 15.4941 30.214V27.288C13.8941 27.1164 12.4298 26.5373 11.2932 25.6616C9.92262 24.6056 8.98633 23.0756 8.98633 21.3062C8.98633 20.7539 9.43404 20.3062 9.98633 20.3062C10.5386 20.3062 10.9863 20.7539 10.9863 21.3062C10.9863 22.3254 11.5218 23.313 12.5138 24.0773C13.5069 24.8425 14.915 25.3412 16.4931 25.3412C18.0713 25.3412 19.4793 24.8425 20.4724 24.0773C21.4644 23.313 21.9999 22.3254 21.9999 21.3062C21.9999 20.1979 21.562 19.225 20.7046 18.5118C19.834 17.7875 18.4539 17.2712 16.4931 17.2712C12.1196 17.2712 8.98633 14.7633 8.98633 11.2362C8.98633 9.46676 9.92262 7.9368 11.2932 6.88081C12.4298 6.00507 13.8941 5.42602 15.4941 5.2544V1.78589C15.4941 1.2336 15.9419 0.785889 16.4941 0.785889Z" fill="white"/>
</svg>
