<svg width="211" height="241" viewBox="0 0 211 241" fill="none" xmlns="http://www.w3.org/2000/svg">
<path d="M68 26H105C114.941 26 123 34.0589 123 44V84" stroke="black" stroke-width="3"/>
<path d="M68 215H105C114.941 215 123 206.941 123 197V157" stroke="black" stroke-width="3"/>
<path d="M160 120H211" stroke="#181818" stroke-width="3"/>
<path d="M38.4162 27.4227C38.4802 34.3083 44.4567 36.5997 44.5229 36.6289C44.4724 36.7905 43.568 39.8943 41.3742 43.1003C39.4778 45.8721 37.5095 48.6337 34.409 48.6909C31.3624 48.747 30.3827 46.8842 26.8996 46.8842C23.4175 46.8842 22.3291 48.6337 19.4451 48.747C16.4523 48.8602 14.1733 45.7497 12.2611 42.9881C8.35383 37.3392 5.36783 27.0255 9.37727 20.0636C11.3691 16.6063 14.9286 14.417 18.7921 14.3609C21.731 14.3048 24.5049 16.3381 26.3015 16.3381C28.0969 16.3381 31.4678 13.8929 35.0116 14.252C36.4951 14.3138 40.6594 14.8513 43.3334 18.7653C43.118 18.8989 38.3646 21.6661 38.4162 27.4227V27.4227ZM32.6905 10.5148C34.2794 8.59145 35.3488 5.91402 35.0571 3.25C32.7668 3.34205 29.9973 4.77619 28.3545 6.69844C26.8823 8.40068 25.5929 11.1252 25.9408 13.7365C28.4936 13.934 31.1015 12.4393 32.6905 10.5148" fill="#97ADC6"/>
<path d="M38.6858 209.188L42.9993 201.693C43.2428 201.272 43.0956 200.739 42.6823 200.494C42.2691 200.25 41.7313 200.392 41.4936 200.812L37.1235 208.405C33.7892 206.877 30.0361 206.025 26 206.025C21.9639 206.025 18.2108 206.877 14.8766 208.405L10.5064 200.812C10.263 200.392 9.7309 200.25 9.312 200.494C8.8931 200.739 8.75158 201.272 8.99499 201.693L13.3085 209.188C5.87024 213.231 0.832135 220.784 0 229.625H52C51.1679 220.784 46.1298 213.231 38.6858 209.188ZM14.0614 222.3C12.8556 222.3 11.882 221.317 11.882 220.114C11.882 218.904 12.8613 217.927 14.0614 217.927C15.2671 217.927 16.2408 218.91 16.2408 220.114C16.2465 221.317 15.2671 222.3 14.0614 222.3ZM37.9329 222.3C36.7272 222.3 35.7535 221.317 35.7535 220.114C35.7535 218.904 36.7329 217.927 37.9329 217.927C39.1387 217.927 40.1123 218.91 40.1123 220.114C40.118 221.317 39.1387 222.3 37.9329 222.3Z" fill="#97ADC6"/>
<path fill-rule="evenodd" clip-rule="evenodd" d="M146.087 140.688C140.412 147.018 132.171 151 123 151C113.711 151 105.375 146.914 99.6938 140.441L122.98 118.017L146.087 140.688ZM149.675 135.803L125.795 112.373C124.25 110.857 121.778 110.845 120.219 112.347L96.1572 135.517C93.5134 130.954 92 125.654 92 120C92 102.879 105.879 89 123 89C140.121 89 154 102.879 154 120C154 125.772 152.423 131.175 149.675 135.803ZM160 120C160 140.435 143.435 157 123 157C102.565 157 86 140.435 86 120C86 99.5655 102.565 83 123 83C143.435 83 160 99.5655 160 120Z" fill="#0085FF"/>
</svg>
