<svg width="32" height="35" viewBox="0 0 32 35" fill="none" xmlns="http://www.w3.org/2000/svg">
<path fill-rule="evenodd" clip-rule="evenodd" d="M12.8864 4.72004C13.0625 4.19659 12.781 3.62947 12.2575 3.45333L3.72751 0.583009C3.20407 0.406872 2.63695 0.68842 2.46081 1.21186C2.28467 1.73531 2.56622 2.30243 3.08967 2.47857L9.17326 4.52568C7.54572 5.29456 6.06929 6.3295 4.79996 7.57385C1.83896 10.4766 0 14.5245 0 19.0001C0 27.8367 7.16344 35.0001 16 35.0001C24.8366 35.0001 32 27.8367 32 19.0001C32 14.6048 30.2264 10.6218 27.3581 7.73099C25.4248 5.78248 22.9921 4.32775 20.2661 3.57537C19.7337 3.42844 19.183 3.7409 19.036 4.27328C18.8891 4.80566 19.2016 5.35635 19.7339 5.50329C22.1159 6.16071 24.2448 7.43273 25.9384 9.13966C28.4501 11.6711 30 15.1536 30 19.0001C30 26.7321 23.732 33.0001 16 33.0001C8.26801 33.0001 2 26.7321 2 19.0001C2 15.0835 3.60695 11.5441 6.20004 9.00205C7.37496 7.85026 8.75132 6.90439 10.2708 6.22199L8.12051 12.6122C7.94437 13.1357 8.22592 13.7028 8.74936 13.8789C9.27281 14.0551 9.83993 13.7735 10.0161 13.2501L12.8864 4.72004Z" fill="white"/>
</svg>
