<svg width="32" height="32" viewBox="0 0 32 32" fill="none" xmlns="http://www.w3.org/2000/svg">
<path fill-rule="evenodd" clip-rule="evenodd" d="M26.6898 4.46228L29.0145 4.0421L28.3947 6.24805L28.3918 6.25883C27.3206 10.2418 25.0738 13.8402 21.9484 16.6554L21.9359 16.6667L21.9237 16.6784C21.7563 16.8398 21.7153 16.8756 21.6492 16.9181L21.6099 16.9433L16.0923 21.2648C15.996 21.3176 15.9098 21.3855 15.8366 21.4651L15.4417 21.7744L9.65849 15.6928L14.2736 10.7822C14.3745 10.7089 14.462 10.6167 14.5301 10.5093L14.6869 10.3424L14.6928 10.336C15.04 9.95345 15.3626 9.64623 15.715 9.39146L15.7401 9.37333L15.764 9.35368C18.8882 6.78635 22.6275 5.10667 26.6792 4.46397L26.6898 4.46228ZM13.3059 8.88923C13.6732 8.49273 14.0641 8.12047 14.5174 7.78942C17.9115 5.00719 21.9694 3.18798 26.3551 2.49037L28.9218 2.02646L28.9314 2.02491C30.276 1.80887 31.379 3.02662 31.0154 4.31475L31.0151 4.31574L30.3217 6.78378C29.1472 11.1464 26.6922 15.0698 23.2998 18.1298L23.2924 18.137C23.1914 18.2345 23.081 18.341 22.9441 18.4485C23.2492 20.557 22.7052 23.1008 21.2741 25.4013C20.3521 26.9004 19.1312 28.1987 17.817 29.0625L16.4587 29.9552L15.7835 24.0471L15.2444 24.4694L6.90625 15.7008L7.15536 15.4358L1.50195 14.3458L2.59611 13.0429C3.6194 11.8244 5.03152 10.8159 6.68227 10.0474C8.91612 8.99622 11.2937 8.60081 13.3059 8.88923ZM11.5012 10.8117C10.2652 10.8815 8.89069 11.2183 7.53215 11.8579L7.52813 11.8598C6.75535 12.2194 6.06659 12.6279 5.47146 13.0743L8.776 13.7114L11.5012 10.8117ZM17.6312 22.6L18.0527 26.2888C18.6074 25.7315 19.127 25.0751 19.5717 24.3515L19.5746 24.3468C20.5047 22.8526 20.9548 21.2978 21.018 19.9474L17.6312 22.6ZM9.53968 22.371C8.58561 21.3778 6.9962 21.3238 5.93697 22.2314C5.74433 22.3965 5.42876 22.8534 5.04408 23.6193C4.6816 24.341 4.31898 25.2089 3.99356 26.0581C3.77849 26.6193 3.5825 27.1649 3.4165 27.6438C3.93724 27.5213 4.53666 27.374 5.15591 27.209C6.06205 26.9676 6.99494 26.6926 7.78063 26.4072C8.60174 26.1088 9.12406 25.8462 9.33602 25.6685C10.3847 24.7252 10.4499 23.3187 9.53968 22.371ZM0.960285 28.7074C0.960285 28.7074 0.960218 28.7076 1.91642 29.0003L0.960285 28.7074ZM2.11511 29.9804L2.13577 29.9761L2.19382 29.9642C2.24431 29.9538 2.31793 29.9384 2.41178 29.9185C2.59943 29.8787 2.86821 29.8206 3.19492 29.7471C3.84753 29.6002 4.73509 29.3909 5.67077 29.1416C6.60335 28.8931 7.59944 28.6009 8.46359 28.2869C9.28347 27.9891 10.1295 27.6225 10.6441 27.1815L10.6518 27.1749L10.6593 27.1682C12.4909 25.5333 12.7439 22.8198 10.9821 20.9856C9.26164 19.1945 6.46486 19.1453 4.63563 20.7127C4.10615 21.1664 3.63942 21.9599 3.25685 22.7216C2.85209 23.5275 2.46251 24.4642 2.12599 25.3424C1.78818 26.2239 1.49733 27.0636 1.29122 27.6817C1.18802 27.9912 1.10571 28.2462 1.04902 28.4245C1.02067 28.5136 0.9987 28.5837 0.983708 28.6317L0.966518 28.6871L0.960285 28.7074L0.46875 30.3131L2.11511 29.9804ZM1.91642 29.0003L2.11511 29.9804C2.11511 29.9804 2.11454 29.9805 1.91642 29.0003Z" fill="white"/>
</svg>
