<svg width="140" height="100" viewBox="0 0 140 100" fill="none" xmlns="http://www.w3.org/2000/svg">
<path d="M16 8C16 12.4183 12.4183 16 8 16C3.58172 16 0 12.4183 0 8C0 3.58172 3.58172 0 8 0C12.4183 0 16 3.58172 16 8Z" fill="#FFD12D"/>
<path d="M127.452 100C127.297 99.7596 127.162 99.6194 127.104 99.4592C126.369 97.416 125.654 95.3729 124.938 93.3297C124.725 92.7288 124.513 92.1079 124.319 91.4869C124.145 90.9461 123.875 90.4854 123.333 90.2851C122.405 89.9445 121.497 89.604 120.568 89.2435C119.505 88.8428 118.461 88.4222 117.417 88.0216C116.779 87.7812 116.141 87.5809 115.503 87.3205C115.309 87.2404 115.174 87.0401 115 86.8798C115.174 86.7396 115.309 86.5193 115.503 86.4592C116.566 86.0385 117.649 85.6379 118.712 85.2373C119.698 84.8567 120.665 84.4961 121.651 84.1156C122.193 83.9153 122.734 83.7149 123.295 83.5146C123.759 83.3344 124.068 83.0139 124.242 82.5331C124.571 81.5917 124.899 80.6502 125.228 79.7288C125.77 78.2265 126.311 76.7042 126.852 75.2018C126.949 74.9214 126.988 74.621 127.123 74.3405C127.2 74.1803 127.374 74 127.51 74C127.645 74 127.819 74.2003 127.877 74.3606C128.612 76.4037 129.327 78.4468 130.062 80.49C130.275 81.1109 130.487 81.7519 130.7 82.3729C130.874 82.9337 131.164 83.3344 131.725 83.5347C133.117 84.0354 134.509 84.5562 135.901 85.0971C136.887 85.4777 137.873 85.8783 138.879 86.2589C139.13 86.359 139.42 86.3991 139.652 86.5193C139.807 86.5994 140 86.7596 140 86.8998C140 87.02 139.807 87.2404 139.671 87.2804C137.235 88.2419 134.818 89.1433 132.401 90.0647C132.305 90.1048 132.189 90.1448 132.073 90.1649C131.261 90.3451 130.835 90.8459 130.584 91.6872C130.275 92.7689 129.83 93.8105 129.462 94.8721C129.114 95.8737 128.747 96.8552 128.399 97.8567C128.206 98.4176 128.032 98.9985 127.819 99.5593C127.8 99.6795 127.645 99.7997 127.452 100Z" fill="#FFB9F8"/>
</svg>
