<?xml version="1.0" encoding="utf-8"?>
<!-- Generator: Adobe Illustrator 16.0.0, SVG Export Plug-In . SVG Version: 6.00 Build 0)  -->
<!DOCTYPE svg PUBLIC "-//W3C//DTD SVG 1.1//EN" "http://www.w3.org/Graphics/SVG/1.1/DTD/svg11.dtd">
<svg version="1.1" id="_x31_" xmlns="http://www.w3.org/2000/svg" xmlns:xlink="http://www.w3.org/1999/xlink" x="0px" y="0px" width="419.527px" height="200.275px" viewBox="113.80699920654297 58.14799880981445 198.42498779296875 56.6930046081543" enable-background="new 0 0 419.527 595.275" xml:space="preserve">
<g>
	<path fill-rule="evenodd" clip-rule="evenodd" fill="#06255D" d="M312.232,114.278V70.508h-0.023V58.148H113.807v41.728h0.01
		v13.261h-0.01v1.704h198.402v-0.563H312.232L312.232,114.278z M310.496,99.876v13.261H115.554V99.876H310.496z"></path>
	<g>
		<path fill-rule="evenodd" clip-rule="evenodd" fill="#FFFFFF" d="M253.297,87.275L253.297,87.275
			c0.497,0.633,1.093,0.95,1.789,0.95c0.431,0,0.823-0.125,1.177-0.376c0.352-0.252,0.729-0.706,1.13-1.361l0.367,0.289
			c-0.543,1.149-1.145,1.963-1.803,2.44c-0.66,0.478-1.422,0.717-2.286,0.717c-1.488,0-2.616-0.604-3.382-1.809
			c-0.614-0.974-0.923-2.18-0.923-3.621c0-1.763,0.452-3.168,1.358-4.213c0.906-1.044,1.965-1.567,3.183-1.567
			c1.016,0,1.896,0.435,2.646,1.309c0.745,0.87,1.15,2.163,1.207,3.876h-5.532C252.295,85.329,252.648,86.451,253.297,87.275
			L253.297,87.275z M255.118,83.187L255.118,83.187c0-1.216-0.063-2.049-0.19-2.504c-0.126-0.453-0.322-0.796-0.588-1.03
			c-0.153-0.137-0.354-0.204-0.607-0.204c-0.377,0-0.683,0.192-0.92,0.578c-0.426,0.671-0.639,1.592-0.639,2.762v0.398H255.118z"></path>
		<path fill-rule="evenodd" clip-rule="evenodd" fill="#FFFFFF" d="M246.365,82.807L246.365,82.807
			c-0.425,0-0.775-0.146-1.053-0.442c-0.276-0.293-0.447-0.82-0.513-1.576c-0.043-0.476-0.147-0.809-0.313-1
			c-0.164-0.189-0.359-0.283-0.581-0.283c-0.347,0-0.641,0.194-0.886,0.575c-0.375,0.581-0.561,1.47-0.561,2.666
			c0,0.993,0.15,1.944,0.451,2.85c0.3,0.908,0.71,1.584,1.234,2.028c0.396,0.322,0.858,0.486,1.396,0.486
			c0.35,0,0.684-0.088,0.997-0.261c0.315-0.172,0.688-0.499,1.119-0.979l0.332,0.272c-0.473,0.942-1.062,1.643-1.765,2.101
			c-0.703,0.459-1.453,0.691-2.245,0.691c-1.34,0-2.409-0.532-3.208-1.595c-0.801-1.062-1.203-2.341-1.203-3.835
			c0-1.44,0.367-2.708,1.1-3.8c0.88-1.319,2.097-1.98,3.646-1.98c1.04,0,1.867,0.275,2.481,0.826
			c0.613,0.551,0.919,1.166,0.919,1.844c0,0.432-0.123,0.774-0.372,1.031C247.095,82.68,246.767,82.807,246.365,82.807z"></path>
		<path fill-rule="evenodd" clip-rule="evenodd" fill="#FFFFFF" d="M235.606,76.468L235.606,76.468c-0.54,0-0.998-0.203-1.378-0.601
			c-0.379-0.399-0.57-0.883-0.57-1.451c0-0.568,0.191-1.054,0.57-1.456c0.38-0.404,0.838-0.609,1.378-0.609
			c0.549,0,1.012,0.205,1.393,0.609c0.379,0.402,0.569,0.888,0.569,1.456c0,0.568-0.192,1.052-0.576,1.451
			C236.608,76.265,236.147,76.468,235.606,76.468z"></path>
		<path fill-rule="evenodd" clip-rule="evenodd" fill="#FFFFFF" d="M233.042,89.617L233.042,89.617v-0.405
			c0.455-0.017,0.795-0.152,1.016-0.412c0.147-0.173,0.223-0.635,0.223-1.385v-6.17c0-0.75-0.086-1.229-0.256-1.438
			c-0.17-0.208-0.498-0.328-0.982-0.357v-0.405h4.236v8.371c0,0.75,0.084,1.23,0.251,1.437c0.169,0.21,0.496,0.329,0.989,0.361
			v0.405H233.042z"></path>
		<path fill-rule="evenodd" clip-rule="evenodd" fill="#FFFFFF" d="M231.671,79.823L231.671,79.823c-0.2,0.206-0.5,0.809-0.901,1.81
			l-3.336,8.302h-0.48l-3.405-8.212c-0.408-0.989-0.727-1.614-0.955-1.879c-0.165-0.194-0.41-0.327-0.73-0.394v-0.405h5.322v0.405
			c-0.339,0-0.566,0.063-0.688,0.192c-0.172,0.168-0.257,0.365-0.257,0.592c0,0.28,0.153,0.809,0.472,1.581l1.659,3.97l1.316-3.427
			c0.379-0.985,0.57-1.681,0.57-2.091c0-0.232-0.08-0.424-0.242-0.573c-0.164-0.147-0.448-0.229-0.855-0.244v-0.405h3.285v0.405
			C232.13,79.494,231.869,79.62,231.671,79.823z"></path>
		<path fill-rule="evenodd" clip-rule="evenodd" fill="#FFFFFF" d="M220.887,81.405L220.887,81.405
			c-0.229,0.279-0.51,0.419-0.835,0.419c-0.382,0-0.711-0.131-0.99-0.393c-0.281-0.26-0.446-0.406-0.496-0.437
			c-0.072-0.046-0.153-0.069-0.247-0.069c-0.202,0-0.396,0.082-0.577,0.249c-0.284,0.257-0.504,0.622-0.648,1.097
			c-0.224,0.733-0.335,1.539-0.335,2.423l0.016,2.431l0.004,0.636c0,0.43,0.025,0.707,0.076,0.826
			c0.084,0.203,0.214,0.353,0.383,0.448c0.171,0.094,0.457,0.15,0.861,0.175v0.405h-5.449v-0.405
			c0.442-0.041,0.74-0.165,0.896-0.382c0.155-0.214,0.232-0.783,0.232-1.706v-5.851c0-0.604-0.028-0.988-0.085-1.155
			c-0.073-0.212-0.178-0.367-0.314-0.465c-0.138-0.099-0.381-0.166-0.729-0.204v-0.405h4.072l0.017,2.391
			c0.661-1.091,1.239-1.815,1.737-2.173c0.497-0.357,0.977-0.537,1.439-0.537c0.4,0,0.72,0.131,0.96,0.393
			c0.239,0.26,0.36,0.629,0.36,1.106C221.234,80.73,221.119,81.126,220.887,81.405z"></path>
		<path fill-rule="evenodd" clip-rule="evenodd" fill="#FFFFFF" d="M206.863,87.275L206.863,87.275
			c0.497,0.633,1.093,0.95,1.79,0.95c0.432,0,0.822-0.125,1.175-0.376c0.353-0.252,0.728-0.706,1.132-1.361l0.366,0.289
			c-0.545,1.149-1.146,1.963-1.803,2.44c-0.659,0.478-1.42,0.717-2.286,0.717c-1.488,0-2.615-0.604-3.38-1.809
			c-0.616-0.974-0.922-2.18-0.922-3.621c0-1.763,0.451-3.168,1.356-4.213c0.904-1.044,1.964-1.567,3.182-1.567
			c1.015,0,1.898,0.435,2.646,1.309c0.746,0.87,1.15,2.163,1.208,3.876h-5.531C205.86,85.329,206.217,86.451,206.863,87.275
			L206.863,87.275z M208.687,83.187L208.687,83.187c0-1.216-0.064-2.049-0.19-2.504c-0.126-0.453-0.323-0.796-0.591-1.03
			c-0.15-0.137-0.352-0.204-0.605-0.204c-0.376,0-0.683,0.192-0.921,0.578c-0.425,0.671-0.639,1.592-0.639,2.762v0.398H208.687z"></path>
		<path fill-rule="evenodd" clip-rule="evenodd" fill="#FFFFFF" d="M191.651,74.95L191.651,74.95
			c0.455,0.333,1.506,0.927,3.153,1.776c2.305,1.184,3.852,2.3,4.64,3.353c0.778,1.048,1.169,2.251,1.169,3.604
			c0,1.719-0.637,3.196-1.913,4.434c-1.276,1.238-2.896,1.856-4.86,1.856c-0.617,0-1.198-0.066-1.747-0.195
			c-0.548-0.134-1.238-0.38-2.066-0.743c-0.461-0.204-0.841-0.303-1.14-0.303c-0.251,0-0.517,0.102-0.795,0.306
			c-0.28,0.206-0.506,0.515-0.679,0.936h-0.516v-7.762h0.516c0.424,2.183,1.244,3.848,2.455,4.994
			c1.209,1.147,2.515,1.721,3.917,1.721c1.081,0,1.943-0.308,2.584-0.926c0.64-0.619,0.962-1.337,0.962-2.154
			c0-0.486-0.126-0.956-0.372-1.412c-0.246-0.456-0.621-0.889-1.125-1.297c-0.503-0.409-1.395-0.943-2.673-1.601
			c-1.793-0.921-3.077-1.705-3.853-2.351c-0.775-0.648-1.371-1.371-1.787-2.167c-0.418-0.799-0.625-1.679-0.625-2.639
			c0-1.637,0.572-3.031,1.718-4.185c1.146-1.149,2.588-1.728,4.331-1.728c0.635,0,1.25,0.082,1.847,0.242
			c0.453,0.121,1.003,0.342,1.653,0.669c0.65,0.326,1.105,0.488,1.364,0.488c0.251,0,0.448-0.079,0.594-0.24
			c0.142-0.161,0.277-0.544,0.403-1.159h0.441l0.147,6.873h-0.589c-0.282-1.727-0.968-3.117-2.063-4.168
			c-1.094-1.051-2.279-1.579-3.554-1.579c-0.982,0-1.761,0.277-2.335,0.829c-0.573,0.55-0.86,1.187-0.86,1.902
			c0,0.457,0.101,0.861,0.304,1.215C190.582,74.016,191.031,74.487,191.651,74.95z"></path>
		<path fill-rule="evenodd" clip-rule="evenodd" fill="#FFFFFF" d="M183.479,83.279L183.479,83.279
			c-0.44,1.221-1.013,2.227-1.716,3.02c-0.702,0.793-1.511,1.43-2.429,1.912c-0.917,0.479-2.039,0.849-3.365,1.115
			c-0.586,0.121-1.51,0.183-2.767,0.183h-8.749v-0.542h0.651c0.569,0,1.005-0.096,1.309-0.285c0.305-0.19,0.529-0.447,0.675-0.774
			c0.085-0.213,0.128-0.857,0.128-1.931V72.469c0-1.063-0.052-1.728-0.158-1.994c-0.107-0.265-0.322-0.498-0.645-0.699
			c-0.324-0.2-0.76-0.296-1.309-0.296h-0.651v-0.545h8.749c2.333,0,4.211,0.334,5.635,1.001c1.739,0.819,3.058,2.058,3.956,3.716
			c0.898,1.66,1.347,3.536,1.347,5.631C184.141,80.728,183.92,82.063,183.479,83.279L183.479,83.279z M177.76,73.04L177.76,73.04
			c-0.625-1.235-1.43-2.077-2.409-2.522c-0.693-0.314-1.844-0.466-3.451-0.456v16.086c0,0.85,0.038,1.372,0.117,1.565
			c0.077,0.194,0.205,0.341,0.389,0.442c0.259,0.152,0.636,0.229,1.126,0.229c1.604,0,2.832-0.58,3.679-1.735
			c1.155-1.561,1.731-3.981,1.731-7.27C178.943,76.735,178.549,74.623,177.76,73.04z"></path>
		<path fill-rule="evenodd" clip-rule="evenodd" fill="#FFFFFF" d="M162.514,74.487L162.514,74.487
			c-0.31-1.288-0.651-2.209-1.028-2.772c-0.375-0.561-0.891-1.008-1.547-1.342c-0.367-0.181-1.007-0.273-1.923-0.273h-1.438v15.876
			c0,1.061,0.054,1.727,0.165,1.993c0.107,0.265,0.323,0.498,0.644,0.697c0.32,0.2,0.757,0.3,1.311,0.3h0.644v0.542h-10.212v-0.542
			h0.649c0.566,0,1.023-0.109,1.366-0.325c0.251-0.143,0.448-0.386,0.593-0.734c0.104-0.247,0.159-0.889,0.159-1.931V70.1h-1.438
			c-1.331,0-2.296,0.292-2.897,0.88c-0.845,0.819-1.379,1.988-1.603,3.507h-0.515v-5.552h17.587v5.552H162.514z"></path>
		<path fill-rule="evenodd" clip-rule="evenodd" fill="#FFFFFF" d="M139.569,89.508l-6.292-9.395h-1.278v5.823
			c0,1.104,0.066,1.798,0.199,2.088c0.132,0.285,0.364,0.512,0.699,0.684c0.332,0.17,0.956,0.258,1.868,0.258v0.542h-10.104v-0.542
			c0.923,0,1.548-0.09,1.876-0.265c0.328-0.177,0.558-0.404,0.691-0.685c0.132-0.282,0.198-0.975,0.198-2.08V72.506
			c0-1.104-0.066-1.8-0.198-2.086c-0.133-0.287-0.367-0.515-0.699-0.686c-0.333-0.17-0.957-0.254-1.869-0.254v-0.545h9.102
			c2.371,0,4.104,0.172,5.2,0.516c1.1,0.342,1.996,0.977,2.69,1.899c0.694,0.924,1.038,2.008,1.038,3.25
			c0,1.514-0.521,2.766-1.559,3.756c-0.666,0.625-1.596,1.095-2.79,1.407l4.685,6.996c0.618,0.902,1.053,1.466,1.315,1.689
			c0.395,0.315,0.853,0.486,1.373,0.519v0.542H139.569L139.569,89.508z M136.893,71.179L136.893,71.179
			c-0.694-0.747-1.813-1.117-3.355-1.117h-1.539v8.965h0.82c1.331,0,2.327-0.127,2.989-0.385c0.661-0.256,1.181-0.718,1.559-1.389
			c0.378-0.669,0.568-1.541,0.568-2.62C137.934,73.075,137.587,71.923,136.893,71.179z"></path>
	</g>
	<path fill-rule="evenodd" clip-rule="evenodd" fill="#06255D" d="M129.782,105.755h-0.418l-0.104-0.279
		c-0.154-0.41-0.375-0.696-0.661-0.858c-0.209-0.116-0.479-0.174-0.812-0.174h-0.279c-0.162,0-0.265,0.017-0.307,0.052
		c-0.042,0.035-0.063,0.103-0.063,0.203v3.05c0,0.278,0.022,0.468,0.069,0.57c0.101,0.209,0.313,0.313,0.638,0.313h0.197v0.383
		l-1.683-0.023l-1.589,0.035v-0.383l0.197-0.012c0.201,0,0.354-0.062,0.458-0.188c0.104-0.124,0.157-0.357,0.157-0.698v-2.521
		c0-0.35-0.05-0.584-0.15-0.704c-0.101-0.122-0.255-0.182-0.464-0.182h-0.197v-0.395l1.589,0.035l3.191-0.035L129.782,105.755
		L129.782,105.755z M136.731,106.457c0,0.713-0.213,1.328-0.638,1.849c-0.457,0.559-1.041,0.837-1.752,0.837
		c-0.301,0-0.599-0.062-0.893-0.184c-0.294-0.122-0.553-0.292-0.777-0.512v2.409c0,0.289,0.023,0.478,0.07,0.57
		c0.101,0.211,0.321,0.315,0.661,0.315h0.197v0.395l-1.706-0.035l-1.589,0.035v-0.383l0.197-0.012c0.208,0,0.363-0.06,0.464-0.18
		s0.151-0.358,0.151-0.715v-5.078c0-0.348-0.035-0.593-0.104-0.733c-0.116-0.239-0.352-0.359-0.708-0.359v-0.396
		c0.487-0.046,0.903-0.106,1.247-0.18c0.344-0.074,0.687-0.172,1.027-0.298c0.039,0.211,0.064,0.373,0.075,0.489
		c0.012,0.116,0.018,0.292,0.018,0.524c0.193-0.302,0.441-0.538,0.743-0.708c0.302-0.17,0.638-0.255,1.009-0.255
		c0.681,0,1.241,0.267,1.682,0.803C136.523,105.157,136.731,105.758,136.731,106.457L136.731,106.457z M135.073,106.538
		c0-0.722-0.132-1.242-0.395-1.559c-0.209-0.25-0.479-0.374-0.813-0.374c-0.325,0-0.605,0.122-0.841,0.368
		c-0.236,0.244-0.354,0.582-0.354,1.017v0.932c0,0.534,0.104,0.93,0.313,1.186c0.186,0.226,0.445,0.338,0.778,0.338
		c0.34,0,0.622-0.116,0.847-0.35C134.918,107.771,135.073,107.251,135.073,106.538L135.073,106.538z M142.985,104.339
		c-0.35,0.054-0.634,0.321-0.853,0.8c-0.172,0.395-0.308,0.704-0.408,0.928l-2.127,4.629c-0.238,0.526-0.406,0.855-0.504,0.986
		c-0.261,0.356-0.567,0.534-0.919,0.534c-0.191,0-0.35-0.056-0.476-0.168c-0.125-0.112-0.189-0.265-0.189-0.458
		c0-0.178,0.058-0.325,0.174-0.441c0.085-0.085,0.197-0.15,0.336-0.197c0.263-0.085,0.526-0.17,0.789-0.255
		c0.294-0.185,0.588-0.618,0.882-1.299l0.116-0.267l-1.74-3.968c-0.101-0.24-0.163-0.375-0.186-0.406
		c-0.146-0.24-0.367-0.379-0.661-0.417v-0.395l1.589,0.035l1.439-0.035v0.395h-0.127c-0.194,0-0.329,0.029-0.406,0.087
		c-0.078,0.058-0.116,0.141-0.116,0.25c0,0.101,0.027,0.222,0.082,0.365c0.054,0.143,0.104,0.273,0.15,0.389l0.8,1.961l0.708-1.647
		c0.078-0.186,0.131-0.317,0.163-0.395c0.077-0.209,0.116-0.395,0.116-0.557c0-0.186-0.068-0.307-0.204-0.365
		c-0.135-0.058-0.284-0.087-0.446-0.087v-0.395l1.079,0.035l0.939-0.035V104.339L142.985,104.339z M149.76,109.015l-1.589-0.023
		l-1.474,0.035v-0.395l0.139-0.012c0.186-0.015,0.313-0.062,0.383-0.139c0.116-0.124,0.174-0.371,0.174-0.742v-2.854
		c0-0.186-0.027-0.305-0.081-0.359s-0.174-0.081-0.359-0.081h-0.928c-0.186,0-0.306,0.027-0.36,0.081s-0.082,0.174-0.082,0.359
		v2.854c0,0.371,0.058,0.619,0.174,0.742c0.07,0.078,0.197,0.124,0.383,0.139h0.139v0.395l-1.473-0.023l-1.589,0.035v-0.395
		l0.197-0.012c0.201,0,0.354-0.062,0.458-0.186c0.104-0.124,0.157-0.358,0.157-0.698v-2.514c0-0.348-0.051-0.583-0.151-0.704
		c-0.101-0.12-0.255-0.18-0.464-0.18h-0.197v-0.395l1.589,0.035h3.364l1.589-0.035v0.383l-0.197,0.012
		c-0.202,0-0.348,0.054-0.441,0.163c-0.116,0.139-0.174,0.381-0.174,0.721v2.514c0,0.348,0.05,0.584,0.151,0.704
		c0.101,0.12,0.255,0.18,0.464,0.18h0.197V109.015L149.76,109.015z M156.884,109.015l-1.589-0.023l-1.473,0.035v-0.395l0.139-0.012
		c0.186-0.015,0.313-0.062,0.383-0.139c0.116-0.124,0.174-0.371,0.174-0.742v-2.854c0-0.186-0.027-0.305-0.081-0.359
		s-0.174-0.081-0.36-0.081h-0.928c-0.186,0-0.306,0.027-0.36,0.081s-0.081,0.174-0.081,0.359v2.854c0,0.371,0.058,0.619,0.174,0.742
		c0.07,0.078,0.197,0.124,0.383,0.139h0.139v0.395l-1.474-0.023l-1.589,0.035v-0.395l0.197-0.012c0.201,0,0.354-0.062,0.458-0.186
		c0.104-0.124,0.157-0.358,0.157-0.698v-2.514c0-0.348-0.05-0.583-0.151-0.704s-0.255-0.18-0.464-0.18h-0.197v-0.395l1.589,0.035
		h3.365l1.589-0.035v0.383l-0.197,0.012c-0.201,0-0.348,0.054-0.44,0.163c-0.116,0.139-0.174,0.381-0.174,0.721v2.514
		c0,0.348,0.05,0.584,0.151,0.704c0.101,0.12,0.255,0.18,0.464,0.18h0.197V109.015L156.884,109.015z M162.987,108.423
		c-0.17,0.248-0.377,0.426-0.621,0.534c-0.244,0.108-0.49,0.163-0.737,0.163c-0.255,0-0.482-0.063-0.679-0.186
		c-0.197-0.124-0.331-0.313-0.4-0.568c-0.201,0.209-0.418,0.375-0.649,0.499c-0.317,0.17-0.646,0.256-0.987,0.256
		c-0.425,0-0.762-0.132-1.009-0.395c-0.217-0.232-0.325-0.514-0.325-0.847c0-0.503,0.263-0.928,0.789-1.276
		c0.333-0.216,0.858-0.44,1.578-0.673c0.255-0.085,0.42-0.155,0.493-0.209c0.074-0.054,0.11-0.124,0.11-0.209v-0.591
		c0-0.209-0.066-0.364-0.197-0.464s-0.298-0.15-0.499-0.15c-0.131,0-0.248,0.023-0.348,0.069s-0.197,0.135-0.29,0.267
		c-0.093,0.271-0.17,0.472-0.232,0.603c-0.108,0.248-0.302,0.372-0.58,0.372c-0.201,0-0.365-0.064-0.493-0.192
		c-0.127-0.127-0.191-0.28-0.191-0.458c0-0.263,0.124-0.495,0.372-0.696c0.17-0.139,0.402-0.246,0.696-0.319s0.692-0.11,1.195-0.11
		c0.867,0,1.466,0.193,1.798,0.58c0.217,0.248,0.325,0.584,0.325,1.009v2.39c0,0.178,0.009,0.3,0.029,0.366
		c0.02,0.065,0.091,0.098,0.215,0.098c0.162,0,0.298-0.062,0.406-0.185L162.987,108.423L162.987,108.423z M160.55,107.391v-1.253
		l-0.302,0.14c-0.302,0.139-0.518,0.267-0.65,0.383c-0.271,0.232-0.406,0.519-0.406,0.858c0,0.232,0.07,0.41,0.209,0.534
		c0.108,0.101,0.244,0.151,0.406,0.151c0.209,0,0.385-0.075,0.528-0.226S160.55,107.63,160.55,107.391L160.55,107.391z
		 M172.465,108.179c-0.147,0.379-0.375,0.642-0.685,0.789c-0.209,0.101-0.468,0.151-0.777,0.151c-0.278,0-0.514-0.055-0.708-0.163
		c-0.286-0.162-0.519-0.452-0.696-0.87l-0.406-0.929c-0.085-0.201-0.162-0.336-0.232-0.406c-0.108-0.116-0.251-0.174-0.429-0.174
		h-0.29v1.166c0,0.273,0.019,0.46,0.058,0.561c0.085,0.219,0.255,0.327,0.51,0.327h0.174v0.395l-1.52-0.035l-1.52,0.035v-0.383
		l0.174-0.012c0.255,0,0.421-0.104,0.499-0.315c0.047-0.124,0.07-0.315,0.07-0.571v-2.521c0-0.271-0.02-0.458-0.058-0.559
		c-0.085-0.218-0.255-0.327-0.51-0.327h-0.174v-0.395l1.52,0.035l1.52-0.035v0.383l-0.174,0.012c-0.255,0-0.421,0.104-0.499,0.315
		c-0.046,0.124-0.07,0.315-0.07,0.572v0.887h0.325c0.379,0,0.688-0.228,0.928-0.685c0.155-0.333,0.271-0.58,0.348-0.742
		c0.124-0.24,0.263-0.425,0.418-0.557c0.224-0.193,0.495-0.29,0.812-0.29c0.255,0,0.449,0.062,0.581,0.186
		c0.131,0.124,0.197,0.271,0.197,0.441c0,0.163-0.051,0.298-0.151,0.406c-0.101,0.109-0.244,0.163-0.429,0.163
		c-0.124,0-0.267-0.054-0.43-0.163c-0.085-0.054-0.162-0.081-0.232-0.081c-0.139,0-0.352,0.263-0.638,0.789
		c-0.17,0.317-0.363,0.545-0.58,0.685l0.093,0.058c0.394,0.101,0.738,0.34,1.032,0.719c0.224,0.333,0.449,0.665,0.673,0.998
		c0.07,0.085,0.139,0.152,0.209,0.203c0.069,0.05,0.155,0.075,0.255,0.075c0.17,0,0.301-0.104,0.395-0.313L172.465,108.179
		L172.465,108.179z M178.626,106.474c0,0.782-0.288,1.418-0.864,1.909c-0.576,0.491-1.255,0.737-2.036,0.737
		c-0.858,0-1.559-0.291-2.1-0.871c-0.487-0.518-0.731-1.118-0.731-1.798c0-0.758,0.286-1.382,0.858-1.874s1.242-0.737,2.007-0.737
		c0.781,0,1.454,0.246,2.019,0.737C178.343,105.068,178.626,105.701,178.626,106.474L178.626,106.474z M176.897,106.59
		c0-0.913-0.094-1.521-0.284-1.827c-0.189-0.305-0.47-0.458-0.841-0.458c-0.457,0-0.774,0.224-0.952,0.673
		c-0.131,0.325-0.197,0.812-0.197,1.461c0,0.874,0.108,1.474,0.325,1.798c0.186,0.279,0.46,0.418,0.824,0.418
		c0.44,0,0.75-0.217,0.928-0.65C176.832,107.681,176.897,107.209,176.897,106.59L176.897,106.59z M186.805,109.015l-1.589-0.023
		l-1.532,0.035v-0.395l0.14-0.012c0.193,0,0.333-0.042,0.417-0.127c0.131-0.133,0.197-0.387,0.197-0.762v-2.127l-1.683,3.422h-0.348
		l-1.683-3.399v2.112c0,0.371,0.066,0.623,0.197,0.754c0.085,0.085,0.225,0.127,0.418,0.127h0.139v0.395l-0.951-0.023l-1.126,0.035
		v-0.395l0.197-0.012c0.202,0,0.345-0.058,0.43-0.174c0.124-0.18,0.186-0.52,0.186-1.025v-2.233c0-0.225-0.027-0.398-0.081-0.524
		c-0.093-0.216-0.263-0.325-0.511-0.325h-0.186v-0.395l0.453,0.012h0.441h1.102l1.636,3.26l1.601-3.26h1.148
		c0.163,0,0.327,0,0.493,0c0.167,0,0.331,0,0.493,0v0.371l-0.197,0.012c-0.201,0-0.348,0.054-0.441,0.163
		c-0.116,0.139-0.174,0.381-0.174,0.721v2.514c0,0.348,0.05,0.584,0.15,0.704c0.101,0.12,0.256,0.18,0.464,0.18h0.197V109.015
		L186.805,109.015z M193.929,109.015l-1.589-0.023l-1.474,0.035v-0.395l0.139-0.012c0.186-0.015,0.313-0.062,0.383-0.139
		c0.116-0.124,0.174-0.371,0.174-0.742v-2.854c0-0.186-0.027-0.305-0.082-0.359s-0.174-0.081-0.359-0.081h-0.928
		c-0.186,0-0.306,0.027-0.36,0.081c-0.054,0.054-0.081,0.174-0.081,0.359v2.854c0,0.371,0.058,0.619,0.174,0.742
		c0.069,0.078,0.197,0.124,0.382,0.139h0.14v0.395l-1.474-0.023l-1.589,0.035v-0.395l0.197-0.012c0.201,0,0.354-0.062,0.458-0.186
		c0.104-0.124,0.156-0.358,0.156-0.698v-2.514c0-0.348-0.05-0.583-0.15-0.704c-0.101-0.12-0.255-0.18-0.464-0.18h-0.197v-0.395
		l1.589,0.035h3.365l1.589-0.035v0.383l-0.197,0.012c-0.201,0-0.348,0.054-0.441,0.163c-0.116,0.139-0.174,0.381-0.174,0.721v2.514
		c0,0.348,0.05,0.584,0.15,0.704c0.101,0.12,0.255,0.18,0.464,0.18h0.197V109.015L193.929,109.015z M200.031,108.423
		c-0.17,0.248-0.377,0.426-0.621,0.534c-0.244,0.108-0.489,0.163-0.737,0.163c-0.255,0-0.481-0.063-0.679-0.186
		s-0.331-0.313-0.4-0.568c-0.201,0.209-0.417,0.375-0.649,0.499c-0.317,0.17-0.646,0.256-0.986,0.256
		c-0.425,0-0.762-0.132-1.009-0.395c-0.217-0.232-0.325-0.514-0.325-0.847c0-0.503,0.263-0.928,0.789-1.276
		c0.333-0.216,0.859-0.44,1.578-0.673c0.255-0.085,0.42-0.155,0.494-0.209c0.073-0.054,0.11-0.124,0.11-0.209v-0.591
		c0-0.209-0.065-0.364-0.197-0.464c-0.131-0.101-0.297-0.15-0.499-0.15c-0.132,0-0.248,0.023-0.348,0.069s-0.197,0.135-0.29,0.267
		c-0.093,0.271-0.17,0.472-0.232,0.603c-0.108,0.248-0.301,0.372-0.58,0.372c-0.201,0-0.366-0.064-0.493-0.192
		c-0.128-0.127-0.191-0.28-0.191-0.458c0-0.263,0.124-0.495,0.371-0.696c0.17-0.139,0.402-0.246,0.696-0.319s0.692-0.11,1.195-0.11
		c0.866,0,1.466,0.193,1.798,0.58c0.217,0.248,0.325,0.584,0.325,1.009v2.39c0,0.178,0.01,0.3,0.029,0.366
		c0.019,0.065,0.091,0.098,0.214,0.098c0.163,0,0.298-0.062,0.406-0.185L200.031,108.423L200.031,108.423z M197.595,107.391v-1.253
		l-0.301,0.14c-0.302,0.139-0.519,0.267-0.65,0.383c-0.271,0.232-0.406,0.519-0.406,0.858c0,0.232,0.07,0.41,0.209,0.534
		c0.108,0.101,0.244,0.151,0.406,0.151c0.208,0,0.385-0.075,0.528-0.226S197.595,107.63,197.595,107.391L197.595,107.391z
		 M206.992,109.015l-1.589-0.023l-1.531,0.035v-0.395l0.197-0.012c0.178,0,0.306-0.042,0.383-0.127
		c0.116-0.131,0.174-0.383,0.174-0.754v-1.16h-1.972v1.16c0,0.363,0.058,0.611,0.174,0.742c0.085,0.093,0.213,0.139,0.383,0.139
		h0.197v0.395l-1.531-0.023l-1.589,0.035v-0.395l0.197-0.012c0.201,0,0.354-0.062,0.458-0.186c0.104-0.124,0.157-0.358,0.157-0.698
		v-2.514c0-0.348-0.05-0.583-0.15-0.704c-0.101-0.12-0.256-0.18-0.464-0.18h-0.197v-0.395l1.589,0.035l1.531-0.035v0.383
		l-0.197,0.012c-0.178,0-0.305,0.042-0.383,0.127c-0.116,0.134-0.174,0.387-0.174,0.76v0.887h1.972v-0.887
		c0-0.366-0.058-0.615-0.174-0.749c-0.085-0.093-0.212-0.139-0.383-0.139h-0.197v-0.395l1.531,0.035l1.589-0.035v0.383l-0.197,0.012
		c-0.201,0-0.348,0.054-0.44,0.163c-0.116,0.139-0.174,0.381-0.174,0.721v2.514c0,0.348,0.05,0.584,0.151,0.704
		c0.101,0.12,0.255,0.18,0.464,0.18h0.197V109.015L206.992,109.015z M214.278,109.015l-1.59-0.023l-1.531,0.035v-0.395l0.197-0.012
		c0.178,0,0.306-0.042,0.383-0.127c0.116-0.131,0.174-0.383,0.174-0.754v-2.123l-1.972,2.448v0.058c0,0.124,0.049,0.238,0.146,0.343
		c0.097,0.104,0.234,0.156,0.412,0.156h0.197v0.395l-1.531-0.023l-1.589,0.035v-0.395l0.197-0.012c0.201,0,0.354-0.062,0.458-0.186
		c0.104-0.124,0.157-0.358,0.157-0.698v-2.514c0-0.348-0.05-0.583-0.151-0.704s-0.255-0.18-0.464-0.18h-0.197v-0.395l1.589,0.035
		l1.531-0.035v0.383l-0.197,0.012c-0.178,0-0.305,0.042-0.383,0.127c-0.116,0.134-0.174,0.385-0.174,0.758v2.119l1.972-2.448v-0.118
		c-0.022-0.12-0.083-0.223-0.18-0.31c-0.095-0.087-0.218-0.129-0.371-0.129h-0.203v-0.395l1.531,0.035l1.59-0.035v0.383
		l-0.197,0.012c-0.201,0-0.348,0.054-0.44,0.163c-0.116,0.139-0.174,0.381-0.174,0.721v2.514c0,0.348,0.05,0.584,0.15,0.704
		c0.101,0.12,0.255,0.18,0.464,0.18h0.197V109.015L214.278,109.015z M220.172,101.837c0,0.373-0.166,0.688-0.498,0.945
		c-0.372,0.288-0.859,0.431-1.463,0.431c-0.61,0-1.09-0.133-1.438-0.402c-0.348-0.269-0.521-0.594-0.521-0.974
		c0-0.188,0.054-0.334,0.162-0.443c0.108-0.11,0.26-0.165,0.452-0.165c0.193,0,0.341,0.046,0.441,0.139s0.15,0.205,0.15,0.336
		c0,0.062-0.012,0.12-0.034,0.174c-0.023,0.054-0.055,0.104-0.093,0.15c-0.07,0.108-0.104,0.193-0.104,0.255
		c0,0.147,0.083,0.271,0.249,0.372c0.166,0.101,0.412,0.151,0.736,0.151c0.317,0,0.562-0.053,0.731-0.157
		c0.17-0.104,0.255-0.227,0.255-0.366c0-0.046-0.01-0.089-0.028-0.127c-0.02-0.039-0.045-0.081-0.076-0.128
		c-0.085-0.108-0.127-0.216-0.127-0.325c0-0.139,0.048-0.253,0.145-0.342s0.246-0.133,0.447-0.133c0.247,0,0.421,0.085,0.521,0.257
		C220.141,101.595,220.172,101.711,220.172,101.837L220.172,101.837z M221.564,109.015l-1.59-0.023l-1.531,0.035v-0.395l0.197-0.012
		c0.178,0,0.306-0.042,0.383-0.127c0.116-0.131,0.174-0.383,0.174-0.754v-2.123l-1.972,2.448v0.058c0,0.124,0.048,0.238,0.145,0.343
		c0.097,0.104,0.234,0.156,0.412,0.156h0.197v0.395l-1.531-0.023l-1.59,0.035v-0.395l0.197-0.012c0.201,0,0.354-0.062,0.458-0.186
		c0.104-0.124,0.157-0.358,0.157-0.698v-2.514c0-0.348-0.051-0.583-0.151-0.704s-0.255-0.18-0.464-0.18h-0.197v-0.383l1.59,0.023
		l1.531-0.035v0.383l-0.197,0.012c-0.178,0-0.306,0.042-0.383,0.127c-0.116,0.134-0.174,0.385-0.174,0.758v2.119l1.972-2.448v-0.118
		c-0.022-0.12-0.083-0.223-0.18-0.31c-0.095-0.087-0.219-0.129-0.371-0.129h-0.203v-0.383l1.531,0.023l1.59-0.035v0.383
		l-0.197,0.012c-0.201,0-0.349,0.054-0.44,0.163c-0.116,0.139-0.175,0.381-0.175,0.721v2.514c0,0.348,0.051,0.584,0.151,0.704
		c0.1,0.12,0.255,0.18,0.464,0.18h0.197V109.015z"></path>
</g>
</svg>