<svg width="400" height="200" fill="none" xmlns="http://www.w3.org/2000/svg"><path fill-rule="evenodd" clip-rule="evenodd" d="M66.284 20L10 100.004h6.58l56.28-79.998L66.284 20zM72.86 180h6.58l56.281-79.997-6.576-.007L72.861 180z" fill="#00C1DE"/><path fill-rule="evenodd" clip-rule="evenodd" d="M46.738 100.005H32.74l10.243-14.56h3.755v14.56zm-6.581-19.897L26.16 100.005h-.005v.006l-10.232 14.545h6.58l6.482-9.214h17.753v37.355h5.85V80.108H40.156zM80.66 142.696c0 4.288-3.492 7.763-7.799 7.763-4.308 0-7.8-3.475-7.8-7.763V57.305c0-4.288 3.492-7.763 7.8-7.763 4.307 0 7.8 3.475 7.8 7.763v11.16h5.849v-11.16c0-7.503-6.11-13.585-13.649-13.585-7.539 0-13.65 6.082-13.65 13.585v85.391c0 7.503 6.111 13.586 13.65 13.586 7.538 0 13.649-6.083 13.649-13.586v-11.158h-5.85v11.158z" fill="#3D4543"/><path fill-rule="evenodd" clip-rule="evenodd" d="M107.715 114.555V62.88h-5.849v51.675H86.51V80.108h-5.85V119.892h21.326l-4.097 5.823h6.581l7.851-11.16h-4.606zM146.551 123.261h-.109l-3.275 9.853h6.623l-3.239-9.853zm-4.608 13.436l-2.089 6.305h-4.391l8.532-23.109h5.291l8.099 23.109h-4.392l-2.051-6.305h-8.999zM162.46 140.029h4.139c.769 0 1.398-.197 1.89-.592.492-.394.738-.949.738-1.665 0-.718-.246-1.278-.738-1.684-.492-.407-1.145-.61-1.961-.61h-4.068v4.551zm0-7.489h3.78c.768 0 1.374-.184 1.818-.555.444-.369.666-.902.666-1.595 0-.644-.235-1.14-.703-1.486-.468-.346-1.049-.52-1.745-.52h-3.816v4.156zm4.464-7.094c1.535 0 2.825.431 3.869 1.29 1.044.861 1.567 1.935 1.567 3.224 0 .933-.241 1.738-.721 2.419-.479.681-1.067 1.165-1.763 1.452.864.19 1.625.674 2.286 1.45.659.776.989 1.726.989 2.849 0 1.362-.492 2.514-1.476 3.457-.983.943-2.256 1.416-3.815 1.416h-9.251v-17.557h8.315zM183.372 128.851v14.152h-3.959v-14.152h-5.184v-3.404h14.328v3.404h-5.185zM193.991 130.121c-.959 1.087-1.44 2.454-1.44 4.103 0 1.648.481 3.016 1.44 4.102.96 1.086 2.184 1.63 3.673 1.63 1.488 0 2.717-.544 3.688-1.63.973-1.086 1.46-2.454 1.46-4.102 0-1.649-.487-3.016-1.46-4.103-.971-1.086-2.2-1.63-3.688-1.63-1.489 0-2.713.544-3.673 1.63zm10.242-2.454c1.692 1.791 2.537 3.977 2.537 6.557 0 2.531-.851 4.706-2.555 6.521-1.705 1.815-3.888 2.722-6.551 2.722-2.664 0-4.849-.907-6.553-2.722-1.703-1.815-2.556-3.99-2.556-6.521 0-2.58.846-4.766 2.539-6.557 1.692-1.791 3.881-2.687 6.57-2.687 2.687 0 4.877.896 6.569 2.687zM225.524 120.412c1.32.561 2.351 1.224 3.095 1.989l-2.231 2.865c-1.417-1.409-3.204-2.114-5.364-2.114-2.352 0-4.248.758-5.687 2.276-1.44 1.516-2.161 3.53-2.161 6.036 0 2.485.721 4.503 2.161 6.055 1.439 1.553 3.299 2.33 5.579 2.33 2.233 0 4.104-.837 5.616-2.509l2.303 2.795c-1.991 2.197-4.775 3.296-8.351 3.296-3.264 0-6.005-1.116-8.225-3.349-2.22-2.233-3.33-5.107-3.33-8.618 0-3.534 1.134-6.401 3.401-8.599 2.268-2.197 5.166-3.296 8.694-3.296 1.68 0 3.18.281 4.5.843zM242.801 143.003v-14.152h-7.524v14.152h-3.959v-17.557h15.442v17.557h-3.959zM256.064 129.692c-.875.8-1.35 1.702-1.422 2.704h9.143c-.023-1.098-.474-2.023-1.349-2.776-.877-.752-1.902-1.128-3.078-1.128-1.32 0-2.418.4-3.294 1.2zm9.251-2.203c1.62 1.671 2.43 3.809 2.43 6.412 0 .693-.023 1.326-.071 1.9h-13.032c.121 1.122.642 2.09 1.566 2.902.924.812 2.058 1.218 3.401 1.218 1.585 0 3.036-.717 4.357-2.15l2.484 2.4c-1.705 2.175-4.032 3.261-6.984 3.261-2.688 0-4.872-.889-6.552-2.669-1.68-1.779-2.52-3.959-2.52-6.539 0-2.579.84-4.765 2.52-6.556 1.68-1.791 3.816-2.688 6.407-2.688 2.377 0 4.375.837 5.994 2.509zM288.082 139.599v5.84h-3.96v-2.436h-12.743v-17.556h3.961v14.152h6.982v-14.152h3.96v14.152h1.8zM311.983 139.42v6.844h-4.104v-3.261H292.22v-23.002h4.104v19.419h9.575v-19.419h4.104v19.419h1.98zM319.811 129.692c-.877.8-1.35 1.702-1.421 2.704h9.141c-.022-1.098-.473-2.023-1.349-2.776-.876-.752-1.902-1.128-3.078-1.128-1.319 0-2.418.4-3.293 1.2zm9.25-2.203c1.62 1.671 2.431 3.809 2.431 6.412 0 .693-.023 1.326-.072 1.9h-13.03c.119 1.122.641 2.09 1.564 2.902.924.812 2.058 1.218 3.403 1.218 1.583 0 3.035-.717 4.355-2.15l2.484 2.4c-1.705 2.175-4.032 3.261-6.984 3.261-2.688 0-4.871-.889-6.551-2.669-1.68-1.779-2.52-3.959-2.52-6.539 0-2.579.84-4.765 2.52-6.556 1.68-1.791 3.815-2.688 6.407-2.688 2.377 0 4.374.837 5.993 2.509zM346.789 143.003v-7.309h-7.703v7.309h-3.96v-17.557h3.96v6.844h7.703v-6.844h3.961v17.557h-3.961zM362.446 128.851v14.152h-3.96v-14.152h-5.183v-3.404h14.327v3.404h-5.184zM375.495 130.176c-1.02 1.076-1.53 2.424-1.53 4.049 0 1.624.51 2.98 1.53 4.066 1.02 1.087 2.322 1.63 3.906 1.63 1.512 0 2.796-.549 3.85-1.648 1.057-1.099 1.586-2.448 1.586-4.048 0-1.601-.529-2.944-1.586-4.031-1.054-1.087-2.338-1.63-3.85-1.63-1.584 0-2.886.537-3.906 1.612zm10.817-2.49c1.655 1.756 2.484 3.935 2.484 6.539 0 2.604-.829 4.788-2.484 6.557-1.656 1.767-3.864 2.65-6.623 2.65-2.377 0-4.249-.656-5.616-1.969.048.478.072.823.072 1.038v7.309h-3.961v-24.363h3.853v.502c0 .263-.024.632-.072 1.11 1.439-1.338 3.347-2.006 5.724-2.006 2.759 0 4.967.878 6.623 2.633z" fill="#3D4543"/><path fill-rule="evenodd" clip-rule="evenodd" d="M138.499 158.144v7.969h-2.777V156.11h6.045v2.034h-3.268zM146.895 159.038c-.516.541-.776 1.233-.776 2.073 0 .813.26 1.498.776 2.054.518.555 1.171.832 1.962.832.748 0 1.392-.277 1.929-.832.539-.556.807-1.241.807-2.054 0-.826-.265-1.514-.797-2.063a2.596 2.596 0 00-1.939-.824c-.791 0-1.444.272-1.962.814zm6.16-1.667c.89 1.003 1.336 2.249 1.336 3.74 0 1.478-.448 2.722-1.347 3.731-.899 1.01-2.057 1.514-3.472 1.514a4.401 4.401 0 01-1.972-.437c-.592-.291-1.044-.647-1.358-1.067.013.23.021.542.021.935v4.187h-2.778V156.11h2.696v.326c0 .217-.015.609-.042 1.178.313-.488.776-.9 1.39-1.239a4.148 4.148 0 012.043-.509c1.429 0 2.59.501 3.483 1.505zM157.09 169.975l1.839-4.167-3.82-9.699h3.002l2.043 5.896c.068.204.149.51.246.916h.02c.068-.312.157-.618.266-.916l2.124-5.896h3.002l-5.76 13.866h-2.962zM173.432 166.113v-7.928h-3.779v7.928h-2.777V156.11h9.355v10.003h-2.799zM185.813 166.113v-7.928h-3.778v7.928h-2.779V156.11h9.355v10.003h-2.798zM194.465 159.057c-.538.556-.807 1.24-.807 2.054 0 .813.269 1.498.807 2.053.538.556 1.181.833 1.931.833.789 0 1.443-.274 1.96-.822.517-.549.777-1.238.777-2.064 0-.827-.26-1.514-.777-2.064-.517-.549-1.171-.823-1.96-.823-.75 0-1.393.278-1.931.833zm3.269-2.714c.605.318 1.065.722 1.378 1.21a27.754 27.754 0 01-.042-1.118v-.326h2.698v10.003h-2.698v-.326c0-.243.015-.636.042-1.179-.327.502-.794.919-1.399 1.251-.606.332-1.283.497-2.032.497-1.417 0-2.575-.504-3.472-1.514-.9-1.009-1.349-2.253-1.349-3.73 0-1.477.449-2.721 1.349-3.731.897-1.009 2.055-1.515 3.472-1.515.762 0 1.446.16 2.053.478zM221.135 166.113h-3.392l-3.901-5.184 3.636-4.819h3.411l-3.88 4.839 4.126 5.164zm-10.214 0h2.778V156.11h-2.778v10.003zM224.996 159.048c-.489.549-.735 1.237-.735 2.064 0 .826.246 1.514.735 2.062.491.55 1.11.824 1.86.824.749 0 1.372-.274 1.868-.824.497-.548.747-1.236.747-2.062 0-.827-.25-1.515-.747-2.064-.496-.549-1.119-.824-1.868-.824-.75 0-1.369.275-1.86.824zm5.721-1.697c.979 1.016 1.47 2.269 1.47 3.761 0 1.449-.494 2.693-1.481 3.73-.987 1.037-2.271 1.555-3.85 1.555-1.58 0-2.859-.518-3.84-1.555-.981-1.037-1.47-2.281-1.47-3.73 0-1.492.489-2.745 1.47-3.761.981-1.017 2.26-1.526 3.84-1.526 1.592 0 2.88.509 3.861 1.526zM244.975 166.113l-.429-7.197-2.553 7.156H239.5l-2.39-7.176-.448 7.217h-2.512l.817-10.003h3.717l2.103 6.73h.021l2.309-6.73h3.676l.797 10.003h-2.615zM256.887 166.113v-7.928h-3.779v7.928h-2.779V156.11h9.355v10.003h-2.797zM265.538 159.057c-.537.556-.806 1.24-.806 2.054 0 .813.269 1.498.806 2.053.538.556 1.181.833 1.93.833.791 0 1.444-.274 1.961-.822.518-.549.777-1.238.777-2.064 0-.827-.259-1.514-.777-2.064-.517-.549-1.17-.823-1.961-.823-.749 0-1.392.278-1.93.833zm3.269-2.714c.606.318 1.064.722 1.378 1.21a25.428 25.428 0 01-.041-1.118v-.326h2.697v10.003h-2.697v-.326c0-.243.013-.636.041-1.179-.326.502-.793.919-1.399 1.251-.606.332-1.283.497-2.032.497-1.417 0-2.574-.504-3.473-1.514-.898-1.009-1.348-2.253-1.348-3.73 0-1.477.45-2.721 1.348-3.731.899-1.009 2.056-1.515 3.473-1.515.762 0 1.446.16 2.053.478zM282.506 166.113v-4.046h-3.861v4.046h-2.778V156.11h2.778v3.822h3.861v-3.822h2.776v10.003h-2.776zM295.09 166.112v-5.672c0-.257.041-.562.122-.915h-.02l-4.045 6.608h-2.839V156.11h2.554v5.632c0 .366-.034.698-.102.995h.02l4.023-6.646h2.84v10.021h-2.553zM308.696 151.861c-.027.895-.354 1.603-.98 2.124-.628.522-1.417.783-2.37.783-.954 0-1.746-.261-2.38-.783-.633-.521-.963-1.229-.99-2.124h2.103c-.081.366.004.664.254.895.253.23.591.345 1.013.345.422 0 .756-.115 1.001-.345.245-.231.327-.529.245-.895h2.104zm-1.247 14.251v-5.672c0-.257.041-.562.122-.915h-.019l-4.045 6.608h-2.839V156.11h2.554v5.632c0 .366-.035.697-.103.995h.02l4.024-6.647h2.84v10.022h-2.554z" fill="#00C1DE"/></svg>