<svg width="400" height="200" fill="none" xmlns="http://www.w3.org/2000/svg"><path d="M72.868 71.524c12.514 0 24.947 3.61 24.947 20.3 0 13.157-9.225 19.173-21.499 19.173H65.408v17.647H48v-57.12h24.868zM65.4 97.674h8.422c4.251 0 7.222-1.362 7.222-6.015 0-4.09-2.408-6.097-7.542-6.097H65.4v12.113zM160.703 100.081c0 17.888-11.553 29.919-28.717 29.919-17.487 0-29.199-11.952-29.199-29.999 0-18.128 11.63-30.001 29.36-30.001 17.085 0 28.556 12.11 28.556 30.081zm-40.109-.323c0 10.186 4.172 16.043 11.392 16.043 7.138 0 10.988-5.694 10.988-16.526 0-9.546-4.091-15.242-11.07-15.242-7.059 0-11.31 5.939-11.31 15.723M218.941 71.524v57.113h-17.407V86.204h-10.501v3.365c0 16.203.402 40.109-19.892 40.109a18.145 18.145 0 01-6.98-1.286v-13.557a7.02 7.02 0 003.449.884c5.937 0 6.177-10.348 6.177-19.654V71.524h45.154zM244.7 89.249h9.705c15.562 0 22.544 7.299 22.544 19.251 0 12.353-7.934 20.054-23.584 20.054h-26.151V71.442H244.7V89.25zm0 25.668h8.03c3.768 0 7.22-1.283 7.22-6.258 0-4.901-2.969-6.417-7.138-6.417h-8.102l-.01 12.675zM325.076 123.104v5.535h-17.167v-5.535c-16.124 0-26.151-9.868-26.151-23.262 0-10.67 7.381-22.634 26.151-22.634v-5.694h17.167v5.694c16.605 0 25.902 10.188 25.902 22.46 0 13.475-9.145 23.425-25.902 23.425v.011zM308.31 89.568c-6.979 0-9.065 6.016-9.065 10.267 0 5.052 2.165 10.83 9.065 10.83V89.568zm16.365 0v21.015c7.467 0 8.823-6.818 8.823-10.748 0-3.85-1.685-10.267-8.823-10.267z" fill="#EC2830"/></svg>