<svg xmlns="http://www.w3.org/2000/svg" id="Layer_1" x="0" y="0" version="1.1" viewBox="0 0 38.66 8.93" xml:space="preserve"><style>.st2{fill:#164194}.st3{fill:#d6271f}</style><g fill-rule="evenodd" clip-rule="evenodd"><path fill="#d6271f" d="M28.12 4.17h-.28c-.02.19-.03.33-.02.53 0 .21.11.45.11.64 0 .01-.62.03-.65.03 0-.23.16-.92.22-1.2H27l-.86-2.02h-.22v-.14h1.46v.14H27l.68 1.63c.11-.29.22-.56.33-.82.1-.24.29-.7.5-.86.12-.09.28-.14.48-.14.1 0 .4.03.47.09-.01.04-.02.06-.05.09-.07.08-.07.22-.07.33h-.08c-.1-.03-.22-.07-.32-.07-.17 0-.32.08-.46.23-.1.11-.19.28-.28.5 0 0-.06.15-.16.44-.06.15-.11.3-.16.45h.25v.15h-.01zm5.31-1.02H31.9v-.21h.26c0-.3-.07-.47-.21-.61-.1-.1-.25-.15-.43-.15-.19 0-.35.07-.47.19-.29.31-.25.9-.18 1.29.02.11.08.3.16.57.08.26.13.44.13.61 0 .08-.04.18-.07.25.03.02.08.03.14.03.22 0 .43-.07.63-.3.2-.23.3-.46.3-.73v-.11h-.26v-.22h1.52v.21h-.24c0 .37-.22.66-.66.93-.41.25-.85.38-1.32.38-.17 0-.26-.01-.42-.05 0-.11 0-.25-.05-.35-.05-.12-.18-.28-.39-.49-.24-.23-.39-.44-.47-.6-.05-.12-.08-.26-.08-.42 0-.43.18-.77.53-1.03.33-.25.75-.37 1.25-.37.55 0 .96.13 1.24.37.19.16.31.35.36.6h.24v.21h.02zm-9.98.57l.37-.36c.15.09.31.12.45-.01.1-.1.15-.23.15-.45s-.03-.38-.09-.49c-.08-.14-.21-.19-.4-.19-.26 0-.41.13-.45.44-.02.1-.02.27-.02.48v.58h-.01zm0 .3v.99h.48v.21h-1.87v-.21h.48V2.22h-.5v-.21h1.75c.46-.03.99.08 1.26.26.25.16.38.38.38.64 0 .25-.09.46-.28.62-.26.23-.66.31-.98.21-.1-.03-.19-.08-.32-.13l-.4.41zm11.69 1.01h.52c.18 0 .44-.01.44-.25v-.62c0-.08-.01-.13-.04-.16s-.11-.05-.24-.09c-.25-.06-.46-.13-.68-.27v1.39zm.48-2.82h-.48v1.15c.16.11.37.2.66.28.24.06.44.1.61.1.11-.01.23-.01.34-.01.15 0 .26.05.26.3v.87c0 .32-.18.32-.35.32h-2.89v-.21h.48v-2.8h-.48V2h1.87v.21z"/><path fill="#164194" d="M10.02 3.95l-.35-1.14-.35 1.14h.7zm.2.69H9.11l-.16.53h-1l1.2-3.18h1.07l1.19 3.18h-1.03l-.16-.53zm2.5-.16h.5c.17 0 .29-.03.36-.09s.1-.14.1-.24a.29.29 0 0 0-.1-.23c-.07-.06-.19-.09-.36-.09h-.5v.65zm0-1.25h.43c.15 0 .26-.03.32-.08s.09-.13.09-.23c0-.09-.03-.16-.09-.22-.06-.05-.16-.08-.31-.08h-.43v.61h-.01zm-1-1.24h1.84c.31 0 .54.08.71.23.16.15.25.34.25.56 0 .19-.06.35-.18.48-.08.09-.19.16-.34.21.23.06.4.15.5.28.11.13.16.3.16.5 0 .16-.04.31-.11.44-.08.13-.18.24-.31.31-.16.09-.62.15-.81.15h-1.7V1.99h-.01zm3.23 0h2.99v.79h-1v2.39h-.98v-2.4h-1v-.78h-.01zm4.29 1.59c0 .32.06.55.18.69.12.14.28.21.49.21.21 0 .37-.07.49-.21.12-.14.17-.38.17-.74 0-.3-.06-.52-.18-.66a.607.607 0 0 0-.49-.21.6.6 0 0 0-.48.21c-.12.16-.18.39-.18.71zm.57-1.65H20c.48.02.86.16 1.12.42.29.28.43.68.43 1.19 0 .37-.06.68-.19.91-.13.24-.31.42-.54.56-.24.13-.53.2-.88.2-.36 0-.66-.06-.89-.17-.23-.11-.43-.29-.57-.54-.15-.25-.22-.56-.22-.93 0-.52.14-.92.43-1.21.28-.26.65-.41 1.12-.43z"/></g><path d="M3.38 5.72c-.03-.03-.08-.05-.12-.04-.05.01-.08.04-.1.08l-.07.16c-.46-.36-.71-.93-.67-1.53.05-.84.67-1.52 1.49-1.67.19-.04.22-.23.19-.41-.03-.19-.13-.31-.32-.27a2.49 2.49 0 0 0-2.05 2.3c-.06.9.37 1.75 1.1 2.25l-.09.22c-.01.05 0 .1.02.13s.06.05.09.05h.03s1.2-.21 1.22-.25c.02-.05-.72-1.02-.72-1.02" class="st2"/><path d="M5.19 3.3c.03.04.08.05.12.05.05-.01.09-.05.1-.09l.06-.17c.46.37.71.93.67 1.54A1.8 1.8 0 0 1 4.66 6.3c-.19.04-.23.22-.19.41.03.19.13.31.31.27a2.51 2.51 0 0 0 2.05-2.31c.06-.9-.37-1.75-1.1-2.25l.09-.22c.02-.04.01-.09-.02-.12a.105.105 0 0 0-.09-.05h-.03s-1.2.21-1.22.25c-.02.05.73 1.02.73 1.02M4.16 3.66v-.12c-.13 0-.6 0-.74.11-.1.07-.21.32-.21.32h-.33v.14l.18.03-.16.36c-.01.01-.02.03-.02.05v.71c0 .05.04.08.08.08h.33c.04 0 .08-.04.08-.08v-.1h.79v-.21h-.65v-.21h.65v-.61c-.17 0-.89-.02-.87-.09.03-.13.07-.18.15-.28.12-.12.59-.11.72-.1m-.76.86c0 .08-.08.15-.19.15-.1 0-.19-.07-.19-.15 0-.09.08-.15.19-.15.1-.01.19.06.19.15" class="st3"/><path d="M5.68 4.55c0-.02-.01-.04-.02-.05l-.16-.35h.07c.07 0 .12-.04.12-.09s-.05-.09-.12-.09h-.26l-.27-.43H4.4v.12h.57l.25.4-.82.07v.62H5l-.06.2H4.4v.21h.8v.1c0 .05.03.08.08.08h.32c.04 0 .08-.04.08-.08v-.71c0 .01 0 0 0 0zm-.73.06l.04-.14.42-.12.09.22-.55.04zM8.37 6.06l.34.94h-.22l-.06-.2h-.35l-.06.2h-.21l.34-.95h.22zm-.23.59h.25l-.13-.38-.12.38zM9.35 6.06h.47c.23 0 .29.14.29.24 0 .14-.08.18-.11.2.12.04.14.13.14.23-.01.07-.04.27-.39.27h-.4v-.94zm.19.37h.23c.08 0 .14-.03.14-.11s-.05-.1-.14-.1h-.23v.21zm0 .41h.24c.1 0 .15-.04.15-.14 0-.08-.07-.11-.14-.11h-.25v.25zM11.21 7h-.19v-.78h-.29v-.16h.77v.16h-.29zM12.55 6.03c.13 0 .45.05.45.5 0 .44-.33.5-.45.5s-.45-.05-.45-.5c0-.44.32-.5.45-.5m0 .83c.11 0 .26-.07.26-.33s-.15-.33-.26-.33c-.11 0-.26.07-.26.33 0 .27.15.33.26.33M13.96 6.06l.17.74h.01l.16-.74h.29V7h-.18v-.79h-.01l-.17.79h-.2l-.17-.79V7h-.19v-.94zM15.71 6.03c.13 0 .45.05.45.5 0 .44-.33.5-.45.5-.13 0-.45-.05-.45-.5 0-.44.33-.5.45-.5m0 .83c.11 0 .26-.07.26-.33s-.15-.33-.26-.33c-.11 0-.26.07-.26.33.01.27.16.33.26.33M17.53 6.06v.16h-.5v.2h.25c.18 0 .32.11.32.3.01.18-.13.28-.32.28h-.44v-.94h.69zm-.49.78h.22c.09 0 .15-.06.15-.14 0-.08-.06-.12-.15-.12h-.22v.26zM18.47 6.72l.38-.66h.22V7h-.19v-.67h-.01l-.38.67h-.21v-.94h.19zM20.53 6.06V7h-.2v-.78h-.27v.4c0 .24-.06.4-.25.4-.04 0-.09 0-.12-.01v-.15c.01 0 .03.01.06.01.09 0 .11-.06.11-.27v-.54h.67zM21.43 6.72h.01l.37-.66h.22V7h-.19v-.67h-.01l-.38.67h-.21v-.94h.19zM24.24 6.37c-.02-.06-.05-.17-.21-.17-.1 0-.24.07-.24.34 0 .17.07.33.24.33.11 0 .19-.07.21-.18h.2c-.04.21-.17.35-.41.35-.25 0-.43-.17-.43-.5 0-.33.19-.5.43-.5.28 0 .4.2.41.34h-.2zM26.75 6.06V7h-.2v-.78h-.37V7h-.19v-.94zM27.65 7h-.2v-.94h.43c.18 0 .29.12.29.3 0 .08-.05.3-.3.3h-.23V7zm0-.5h.18c.13 0 .15-.09.15-.15 0-.09-.05-.13-.17-.13h-.16v.28zM29.27 6.03c.13 0 .45.05.45.5 0 .44-.33.5-.45.5-.13 0-.45-.05-.45-.5-.01-.44.32-.5.45-.5m0 .83c.11 0 .26-.07.26-.33s-.15-.33-.26-.33c-.11 0-.26.07-.26.33 0 .27.15.33.26.33M31.09 6.06v.16h-.5v.2h.25c.18 0 .32.11.32.3 0 .18-.14.28-.33.28h-.44v-.94h.7zm-.5.78h.22c.1 0 .15-.06.15-.14 0-.08-.06-.12-.15-.12h-.22v.26zM32.53 6.06v.16h-.5v.2h.46v.16h-.46v.26h.52V7h-.72v-.94zM33.9 6.06v.16h-.48V7h-.2v-.94zM34.96 6.03c.12 0 .45.05.45.5 0 .44-.33.5-.45.5-.13 0-.45-.05-.45-.5 0-.44.33-.5.45-.5m0 .83c.11 0 .26-.07.26-.33s-.15-.33-.26-.33c-.11 0-.26.07-.26.33.01.27.16.33.26.33M36.38 6.06l.17.74.17-.74H37V7h-.18v-.79l-.18.79h-.19l-.18-.79V7h-.18v-.94z" class="st2"/></svg>