<?xml version="1.0" encoding="utf-8"?>
<!-- Generator: Adobe Illustrator 24.1.1, SVG Export Plug-In . SVG Version: 6.00 Build 0)  -->
<svg version="1.1" id="Layer_1" xmlns="http://www.w3.org/2000/svg" xmlns:xlink="http://www.w3.org/1999/xlink" x="0px" y="0px"
	 viewBox="0 0 113.9 33.7" style="enable-background:new 0 0 113.9 33.7;" xml:space="preserve">
<style type="text/css">
	.st0{fill-rule:evenodd;clip-rule:evenodd;fill:#2360A0;}
	.st1{fill-rule:evenodd;clip-rule:evenodd;fill:#C2592F;}
</style>
<g>
	<path class="st0" d="M1.9,1.3h4.6V14H1.9V1.3L1.9,1.3z M7.9,5.3v4.1c0.7,0,8,0,8.2,0c0.2,0,0.5-3.2-3.6-3.6l3.6-4.5h-5.4L7.9,5.3
		L7.9,5.3z M17.4,1.3v4.6c0,2,1.5,3.6,3.5,3.6h6.6V6h-5.6V1.3H17.4L17.4,1.3z M28.8,1.3h4.6v9.1c0,2-1.5,3.6-3.6,3.6
		c-4.7,0-10.1,0-15,0c-1.7-0.1-3.3-1-3.3-3.6h17.3V1.3L28.8,1.3z M35.3,1.3h4.6v3.9h5.2v4.2h-5.2V14h-4.6V1.3L35.3,1.3z M46.9,1.3
		h4.6v9.1h9.1c2.1,0,3.7,1.9,3.3,4.6h-5v-1H46.9L46.9,1.3L46.9,1.3z M56.8,1.3v8h4.6v-8H56.8L56.8,1.3z M84.3,4.9v4.5h-3.5v-8
		c3.8,0,9,0.1,11.4,0.1c2.2,0,3.5,1.3,3.5,3.5c0,1.2-0.9,2.4-2,2.8c1.1,0.4,2.2,1.7,2.2,3c0,2.2-1.3,3.3-3.5,3.3
		c-8.2,0-24.7,0-24.7,0c-2.4-0.4-3.2-1.2-3.4-3.6h26.9v-1h-5.6V6h5.6V4.9H84.3L84.3,4.9z M64.3,9.5l11.9-0.1V6.2L68,6.3L68,4.9h10
		l-0.1-3.6H67.8c-2,0-3.6,1.5-3.6,3.6C64.3,6.4,64.3,7.9,64.3,9.5z"/>
	<path class="st1" d="M97.6,7.7c0-1.9,0.7-3.6,2-5c1.4-1.3,3-2,5-2h0.6c1.9,0,3.6,0.7,5,2c1.3,1.3,2.1,3,2.1,5
		c0,1.9-0.8,3.6-2.1,4.9c-1.3,1.3-3,2.1-5,2.1h-0.6c-1.9,0-3.6-0.7-5-2.1C98.2,11.3,97.6,9.6,97.6,7.7L97.6,7.7z M101.5,7.7
		c0,0.8,0.4,1.7,1,2.4c0.6,0.5,1.6,0.9,2.4,0.9c0.9,0,1.7-0.5,2.3-1.1c0.6-0.5,0.9-1.3,0.9-2.2c0-0.8-0.4-1.6-1-2.2
		c-0.6-0.6-1.3-1-2.2-1c-0.9,0-1.7,0.3-2.3,0.9C102,5.9,101.5,6.8,101.5,7.7z"/>
	<rect x="1.9" y="17.8" class="st0" width="110.6" height="1"/>
	<rect x="1.9" y="31.2" class="st0" width="110.6" height="1"/>
	<g>
		<path d="M6.8,20.9c2.3,0,3.7,0.2,4.2,0.6c0.5,0.3,0.7,1.2,0.7,2.6H9.3c0-0.5-0.1-0.8-0.4-0.9c-0.3-0.2-1-0.2-2.1-0.2
			c-1.2,0-1.9,0.1-2.1,0.3C4.5,23.4,4.4,24,4.4,25c0,1,0.1,1.6,0.3,1.7C4.9,26.9,5.6,27,6.8,27c1.1,0,1.8-0.1,2-0.2
			c0.3-0.1,0.4-0.4,0.4-0.9h2.4c0,1.4-0.2,2.3-0.7,2.6c-0.5,0.4-1.9,0.6-4.2,0.6c-2.3,0-3.7-0.2-4.1-0.6C2.2,28,2,26.9,2,25
			c0-1.9,0.2-3,0.7-3.4C3.2,21.1,4.6,20.9,6.8,20.9z"/>
		<path d="M19.5,21h10.4V29h-2.4v-5.9H22V29h-2.4V21z"/>
		<path d="M32.2,21h6c1.3,0,2.2,0.2,2.6,0.5c0.5,0.4,0.8,1.2,0.8,2.5c0,1.3-0.3,2.1-0.8,2.5c-0.4,0.3-1.3,0.5-2.6,0.5h-3.5V29h-2.4
			V21z M34.6,25h3.5c0.3,0,0.5-0.1,0.7-0.2c0.2-0.1,0.3-0.4,0.3-0.8c0-0.3-0.1-0.6-0.3-0.8c-0.1-0.1-0.4-0.2-0.7-0.2h-3.5V25z"/>
		<path d="M53.7,25c0,1.9-0.2,3.1-0.7,3.5c-0.5,0.4-2,0.6-4.5,0.6c-1.8,0-3.1-0.1-3.6-0.2c-0.7-0.2-1.2-0.5-1.4-1.1
			c-0.1-0.4-0.2-1.4-0.2-2.8c0-1.9,0.2-3.1,0.7-3.5c0.5-0.4,2-0.6,4.5-0.6c2.5,0,4,0.2,4.5,0.6C53.5,21.9,53.7,23.1,53.7,25z
			 M45.7,25c0,1,0.1,1.6,0.3,1.8c0.2,0.2,1,0.2,2.4,0.2c1.4,0,2.2-0.1,2.5-0.2c0.2-0.2,0.3-0.8,0.3-1.8c0-1-0.1-1.6-0.3-1.8
			c-0.2-0.2-1-0.2-2.4-0.2c-1.4,0-2.2,0.1-2.5,0.2C45.8,23.4,45.7,24,45.7,25z"/>
		<path d="M55.5,29V21h9.1V23h-6.7V24h4.9c0.9,0,1.5,0.2,1.9,0.6c0.4,0.4,0.6,1,0.6,1.8c0,1-0.2,1.7-0.7,2.1c-0.4,0.4-1,0.5-1.8,0.5
			H55.5z M57.9,25.8v1.2h4.2c0.5,0,0.7-0.2,0.7-0.6c0-0.3-0.1-0.4-0.2-0.5c-0.1-0.1-0.3-0.1-0.5-0.1H57.9z"/>
		<path d="M67,29V21h8.5V23h-6.1v1.1h5.8V26h-5.8v1.1h6.1V29H67z"/>
		<path d="M77.7,21h7.9h0.1v2.1h-5.5V29h-2.4V21z"/>
		<path d="M97.5,25c0,1.9-0.2,3.1-0.7,3.5c-0.5,0.4-2,0.6-4.5,0.6c-1.8,0-3.1-0.1-3.6-0.2c-0.7-0.2-1.2-0.5-1.4-1.1
			C87.1,27.3,87,26.4,87,25c0-1.9,0.2-3.1,0.7-3.5c0.5-0.4,2-0.6,4.5-0.6c2.5,0,4,0.2,4.5,0.6C97.3,21.9,97.5,23.1,97.5,25z
			 M89.5,25c0,1,0.1,1.6,0.3,1.8c0.2,0.2,1,0.2,2.4,0.2c1.4,0,2.2-0.1,2.5-0.2c0.2-0.2,0.3-0.8,0.3-1.8c0-1-0.1-1.6-0.3-1.8
			c-0.2-0.2-1-0.2-2.4-0.2c-1.4,0-2.2,0.1-2.5,0.2C89.6,23.4,89.5,24,89.5,25z"/>
		<path d="M103.6,21.1l2.1,4.4c0,0.1,0,0.2,0.1,0.5c0,0.3,0.1,0.4,0.1,0.4c0,0,0.1-0.1,0.1-0.3c0-0.2,0.1-0.4,0.1-0.7l2.1-4.4h4.2
			V29h-2.4v-5.5c0-0.1,0-0.2,0.1-0.4c0-0.1,0.1-0.2,0.1-0.3c0-0.1,0-0.1-0.1-0.1c0,0-0.1,0-0.1,0.1c0,0.1-0.1,0.2-0.1,0.2l-2.8,5.9
			h-2l-3-5.9c0-0.1-0.1-0.2-0.1-0.3c0-0.1-0.1-0.1-0.1-0.1c0,0-0.1,0-0.1,0.1c0,0,0,0.1,0.1,0.4c0,0.1,0,0.2,0,0.3V29h-2.4v-7.9
			H103.6z"/>
	</g>
</g>
</svg>
