<svg width="400" height="200" fill="none" xmlns="http://www.w3.org/2000/svg"><path d="M195.468 74.824c-2.781 0-12.293.329-17.763 4.665a4.89 4.89 0 00-1.994 3.86v.11a61.674 61.674 0 002.159 16.152c2.982 11.287 8.653 20.415 16.464 26.415a2.911 2.911 0 001.829.586h.165a2.894 2.894 0 001.829-.567c7.775-6.001 13.446-15.129 16.464-26.416a61.78 61.78 0 002.14-16.208v-.128a4.902 4.902 0 00-2.25-3.805c-5.469-4.335-14.964-4.664-17.762-4.664h-1.281z" fill="#fff"/><path d="M196.2 127.398a3.662 3.662 0 01-2.415-.769c-7.903-6.073-13.665-15.366-16.683-26.817a63.313 63.313 0 01-2.196-16.464 5.805 5.805 0 012.324-4.555C182.809 74.348 192.614 74 195.468 74h1.299c2.854 0 12.586.348 18.293 4.775a5.707 5.707 0 012.25 4.372 61.85 61.85 0 01-2.177 16.573c-3.018 11.452-8.799 20.745-16.701 26.855a3.661 3.661 0 01-2.232.823zm-.732-51.77c-2.707 0-11.982.311-17.25 4.445a4.09 4.09 0 00-1.683 3.275 60.62 60.62 0 002.122 16.043c2.927 11.104 8.488 20.122 16.116 25.958.364.273.807.421 1.262.421h.165c.445.006.88-.128 1.244-.384 7.646-5.891 13.226-14.891 16.153-25.995a60.822 60.822 0 002.14-15.933 4.232 4.232 0 00-1.683-3.403c-5.305-4.116-14.58-4.427-17.305-4.427h-1.281z" fill="#231F20"/><path d="M196.127 76.341c-17.909.019-18.806 5.561-18.806 9.476 0 8.342 2.872 24.275 13.062 34.94 2.323 2.433 4.042 3.512 5.634 3.659 1.573 0 3.311-1.153 5.616-3.659 10.189-10.683 13.061-26.598 13.061-34.94 0-3.915-.823-9.457-18.695-9.476h.128z" fill="#D32027"/><path d="M216.084 83.988v-.11a4.851 4.851 0 00-2.03-3.823c-5.36-4.226-14.616-4.409-17.324-4.409h-1.244c-2.707 0-11.963.22-17.323 4.409a4.975 4.975 0 00-2.031 3.878 59.741 59.741 0 002.086 15.714c2.872 10.976 8.378 19.811 15.933 25.61.529.393 1.17.605 1.829.604h.147a3.127 3.127 0 001.829-.604c7.555-5.817 13.061-14.634 15.933-25.61a59.997 59.997 0 002.086-15.714l.109.055zm-19.903 38.58h-.274c-17.269-13.409-16.903-38.27-16.885-38.416a1.835 1.835 0 01.897-1.7c4.738-3.66 13.793-3.824 15.549-3.824h1.244c1.829 0 10.811.146 15.567 3.86a2.03 2.03 0 01.878 1.829c0 .238.385 25.19-16.866 38.416 0 0 0-.165-.146-.165" fill="#231F20"/><path d="M196.035 124.069a.63.63 0 01-.311 0c-18.147-13.994-17.634-40.135-17.616-40.373v-.201a2.4 2.4 0 011.043-2.067c4.994-3.915 14.469-4.098 16.317-4.098h1.299c1.829 0 11.323.201 16.317 4.116a2.42 2.42 0 011.043 2.067v.11c0 .256.531 26.397-17.635 40.391a.626.626 0 01-.292 0h-.165v.055zm-.567-49.245c-2.781 0-12.293.329-17.763 4.665a4.89 4.89 0 00-1.994 3.86v.11a61.674 61.674 0 002.159 16.152c2.982 11.287 8.653 20.415 16.464 26.415a2.911 2.911 0 001.829.586h.165a2.894 2.894 0 001.829-.567c7.775-6.001 13.446-15.129 16.464-26.416a61.78 61.78 0 002.14-16.208v-.128a4.902 4.902 0 00-2.25-3.805c-5.469-4.335-14.964-4.664-17.762-4.664h-1.281z" fill="#fff"/><path d="M187.749 82.396h16.079v6.879s-1.189-.696-1.829-1.061a43.084 43.084 0 00-6.512-.165v4.409h7.17v6.768s-.804-1.39-1.664-1.39h-5.488v18.842l-5.671-5.488a1.008 1.008 0 00.677-1.098c-.092-.878-1.701-23.03-1.701-24.915a3.94 3.94 0 00-.988-2.817" fill="#fff"/><path d="M20 112.104h3.11v-7.244h12.97v-2.854H23.11v-4.902h13.482V94.25H20v17.854zM50.568 94.25h-4.336l-9.384 17.854h3.494l2.03-3.841H54.41l2.05 3.841h3.511l-9.31-17.726-.092-.128zm-1.994 2.598l4.354 8.543H43.78l4.445-8.543h.348zM69.922 109.506h-.33l-7.774-15.31-3.512-.02 9.275 17.91 4.335.036 9.513-17.799-3.513-.018-7.994 15.201zM102.557 94.726a27.606 27.606 0 00-7.555-.695 27.951 27.951 0 00-7.628.714 4.208 4.208 0 00-2.927 2.853 23.98 23.98 0 00-.421 5.671 23.307 23.307 0 00.402 5.488 4.108 4.108 0 002.89 2.817c2.51.634 5.096.917 7.684.842 2.57.112 5.142-.128 7.646-.714a4.144 4.144 0 002.854-2.945c.368-1.805.527-3.646.476-5.488a23.66 23.66 0 00-.421-5.652 4.232 4.232 0 00-2.909-2.836l-.091-.055zm-.75 14.031c-.457.366-2.012.823-6.86.823-4.848 0-6.403-.457-6.86-.841-.457-.384-.97-1.628-.97-5.488 0-3.86.513-5.14.952-5.488.439-.348 1.994-.823 6.878-.823s6.421.439 6.878.823c.458.384.97 1.61.97 5.488s-.531 5.104-.97 5.488M131.186 103.397a6.292 6.292 0 00.732-3.366 6.587 6.587 0 00-1.244-4.17 4.351 4.351 0 00-3.659-1.61h-15.732v17.854h3.11v-6.275h10.317l3.842 6.311h3.53l-4.042-6.585a5.485 5.485 0 003.146-2.214v.055zm-16.793-6.293H126.1c.678-.049 1.355.11 1.94.458a2.953 2.953 0 01.841 2.469 2.995 2.995 0 01-.951 2.525 3.33 3.33 0 01-1.83.421h-11.707v-5.873zM140.662 94.25h-3.11v17.854h3.11V94.25zM145.125 97.104h8.543v15h3.11v-15h8.543V94.25h-20.196v2.854zM240.213 108.263l-8.799-14.013h-5.012v17.854h3.11v-15h.073l9.604 14.89.073.11h1.902l9.659-15h.11v15h3.11V94.25h-5.012l-8.818 14.013zM354.564 103.397a6.286 6.286 0 00.713-3.366 6.581 6.581 0 00-1.244-4.17 4.356 4.356 0 00-3.658-1.61h-15.732v17.854h3.109v-6.275h10.318l3.841 6.311h3.531l-4.043-6.585a5.38 5.38 0 003.147-2.214l.018.055zm-16.812-6.348h11.635a3.33 3.33 0 011.939.458 2.94 2.94 0 01.86 2.47 3.026 3.026 0 01-.878 2.506 3.358 3.358 0 01-1.83.42h-11.726v-5.854zM277.751 94.726a40.974 40.974 0 00-15.238 0 4.224 4.224 0 00-2.872 2.872 24.418 24.418 0 00-.384 5.616 23.256 23.256 0 00.384 5.543 4.15 4.15 0 002.908 2.817c2.498.586 5.065.826 7.629.714a28.172 28.172 0 007.646-.714 4.134 4.134 0 002.872-2.817c.345-1.845.474-3.723.384-5.598a23.762 23.762 0 00-.42-5.652 4.225 4.225 0 00-2.909-2.836v.055zm-.75 14.031c-.457.366-2.012.823-6.86.823-4.848 0-6.403-.457-6.86-.841-.457-.384-.97-1.628-.97-5.488 0-3.86.513-5.14.952-5.488.439-.348 2.012-.823 6.878-.823s6.439.439 6.878.823c.439.384.951 1.628.951 5.488 0 3.86-.53 5.104-.969 5.488M284.117 97.104h8.561v15h3.11v-15h8.524V94.25h-20.195v2.854zM326.228 94.726a41.034 41.034 0 00-15.239 0 4.242 4.242 0 00-2.927 2.854 25.35 25.35 0 00-.384 5.616 23.409 23.409 0 00.421 5.616 4.114 4.114 0 002.89 2.817c5.042.95 10.216.95 15.257 0a4.134 4.134 0 002.909-2.872c.342-1.845.471-3.723.384-5.598a23.974 23.974 0 00-.421-5.652 4.203 4.203 0 00-2.909-2.836l.019.055zm-.732 14.031c-.457.366-2.012.823-6.86.823-4.848 0-6.421-.457-6.878-.841-.458-.384-.952-1.628-.952-5.488 0-3.86.513-5.14.952-5.488.439-.348 1.994-.823 6.878-.823s6.421.439 6.878.823c.458.384.951 1.628.951 5.488 0 3.86-.53 5.104-.969 5.488M377.851 102.629a23.775 23.775 0 00-7.72-.732 15.69 15.69 0 01-5.488-.622 2.121 2.121 0 01-1.207-2.159c0-1.262.75-1.975 2.286-2.158.531 0 2.049-.092 4.446-.092 1.776-.133 3.561.06 5.268.567.659.348.988 1.208.988 2.598v.256h3.055v-.256a5.492 5.492 0 00-1.555-4.573c-1.281-.97-3.823-1.445-7.775-1.445a21.035 21.035 0 00-7.811.914 4.191 4.191 0 00-2.03 4.208 4.696 4.696 0 001.683 4.134c1.426 1.006 4.097 1.5 8.177 1.5 1.955-.14 3.92.002 5.835.421.586.238.878.878.878 1.939.052.417-.041.84-.265 1.196a1.823 1.823 0 01-.96.761 24.953 24.953 0 01-6.037.439 14.929 14.929 0 01-5.799-.585c-.622-.366-.951-1.317-.951-2.836v-.274h-3.11v.274c0 2.488.475 4.062 1.482 4.83 1.006.768 4.006 1.445 8.323 1.445 2.657.165 5.322-.12 7.884-.841a4.3 4.3 0 002.525-4.409c0-2.342-.714-3.86-2.104-4.482" fill="#252525"/></svg>