<svg width="400" height="200" fill="none" xmlns="http://www.w3.org/2000/svg"><path d="M40.18 74.36l9.37 28.469h.36l8.649-28.469h20.54v52.973H64.685V88.414l-10.09 38.559H42.342l-10.09-38.559v38.559H20V74.36h20.18zm101.982 0l18.379 52.973h-17.298l-2.883-10.09h-14.414l-2.883 10.09H109.73l16.216-52.973h16.216zm-3.964 30.271l-3.964-16.937-4.324 16.937h8.288zm79.279-30.27v32.432c0 4.324-.36 7.207-.72 9.009-.361 2.162-1.081 3.964-2.523 5.405-1.441 1.802-3.243 3.243-5.766 3.964-2.522 1.081-6.126 1.442-9.729 1.442-1.081 0-1.802 0-2.883-.361-1.442 0-2.523-.36-3.243-.36l-3.604-.36v-12.253c1.081.361 2.162.361 3.243.721s2.162.36 2.883.36c1.081 0 2.162-.36 2.883-.72.721-.361 1.441-.721 2.162-1.802.361-.721.721-1.442.721-2.523.36-.72.36-1.081.36-2.883V74l16.216.36zm58.019 0c3.603 0 6.846.72 9.729 1.801 2.883 1.081 5.406 2.523 7.568 4.325 2.522 2.162 4.324 5.044 5.766 8.648 1.441 3.604 2.162 7.568 2.162 11.892 0 3.964-.721 7.568-1.802 11.171-1.081 3.604-2.883 6.487-5.045 8.649-2.162 2.162-5.045 3.964-7.928 5.045s-6.847 1.802-10.45 1.802c-3.604 0-6.847-.361-9.73-1.442s-5.406-2.522-7.568-4.684c-2.883-2.523-5.045-5.406-6.126-8.649-1.441-3.604-2.162-7.207-2.162-11.532 0-4.684.721-9.009 2.522-12.252 1.802-3.604 3.964-6.486 6.847-8.648 2.162-1.802 4.325-2.883 7.207-3.965 2.523-1.801 5.766-2.162 9.01-2.162zm0 11.17c-1.442 0-2.523.36-3.604 1.082-1.081.72-1.802 1.801-2.523 2.883-.72 1.08-1.081 2.522-1.081 4.324-.36 1.802-.36 3.964-.36 6.486 0 2.523.36 4.685.36 6.487.361 1.802.721 3.243 1.081 4.324.721 1.442 1.802 2.523 2.523 3.243 1.081.721 2.162 1.081 3.604 1.081 1.441 0 2.522-.36 3.603-1.081 1.081-.72 1.802-1.801 2.523-3.243.72-1.081 1.081-2.522 1.441-4.324.36-1.802.36-3.964.36-6.487 0-2.522-.36-4.684-.36-6.486-.36-1.802-.721-3.243-1.441-4.324-.721-1.442-1.442-2.523-2.523-2.883-.721-.721-2.162-1.082-3.603-1.082zm58.018-11.17h25.945c3.604 0 6.487.36 9.009 1.08 2.523.721 4.685 2.163 6.487 3.964 1.081 1.082 2.162 2.883 2.883 4.685.721 1.802 1.081 3.964 1.081 6.126 0 3.604-.721 6.847-2.523 9.01-1.801 2.522-3.964 4.324-6.486 5.405L380 126.973h-18.018l-6.126-20.541h-6.126v20.541h-16.216V74.36zm16.576 12.252v10.09h6.126c1.081 0 1.802-.36 2.523-.36l2.162-1.082c.36-.36.721-1.08 1.081-1.801.36-.721.36-1.082.36-2.163 0-1.08-.36-1.441-.36-2.162-.36-.72-.721-1.08-1.081-1.802-.721-.72-1.081-.72-2.162-1.08-1.081-.361-1.802-.361-2.883-.361h-5.766v.72z" fill="#1082D2"/></svg>