<?xml version="1.0" encoding="utf-8"?>
<!-- Generator: Adobe Illustrator 24.1.2, SVG Export Plug-In . SVG Version: 6.00 Build 0)  -->
<svg version="1.1" id="Layer_1" xmlns="http://www.w3.org/2000/svg" xmlns:xlink="http://www.w3.org/1999/xlink" x="0px" y="0px"
	 viewBox="0 0 480 215" style="enable-background:new 0 0 480 215;" xml:space="preserve">
<style type="text/css">
	.st0{fill-rule:evenodd;clip-rule:evenodd;fill:#034693;}
</style>
<g id="XMLID_12_">
	<path id="XMLID_51_" class="st0" d="M265.5,68.5l0.8-3.4l0.9-3.1l1-2.9l1.1-2.6l1.1-2.4l1.2-2.2l0.6-1l0.6-0.9l0.6-0.9l0.6-0.8
		l0.6-0.7l0.6-0.7l0.6-0.6l0.6-0.5l0.6-0.5l0.6-0.4l0.6-0.3l0.5-0.3l0.5-0.3l0.5-0.2l0.5-0.1l0.5-0.1l0.5,0l0.4,0.1l0.4,0.1l0.4,0.2
		l0.4,0.3l0.4,0.4l0.3,0.4l0.2,0.5l0.1,0.2l0,0.2l0,0.3v0.3l0,0.3l0,0.3l-0.1,0.3l-0.1,0.3l-0.1,0.3l-0.1,0.3l-0.1,0.3l-0.1,0.4
		l-0.3,0.7l-0.4,0.7l-0.5,0.8l-0.5,0.8l-0.6,0.8l-0.6,0.8l-1.4,1.7l-1.5,1.8l-1.7,1.8l-1.8,1.9l-4,3.8L265.5,68.5L265.5,68.5z
		 M373.8,13.8l0.3,0.1l0.2,0.2l0.1,0.3l0.1,0.3l0,0.4l-0.1,0.5l-0.1,0.3l-0.1,0.3l-0.1,0.3l-0.1,0.3l-0.2,0.3l-0.2,0.3l-0.2,0.4
		l-0.2,0.4l-0.5,0.8l-0.5,0.8l-0.6,0.9l-0.6,0.9l-0.7,0.9l-0.8,1l-1.6,2l-1.8,2.1l-1.9,2.2l-2.1,2.2l-4.4,4.4l-4.7,4.3l2.5-5.6
		l2.8-5.2l1.4-2.4l1.5-2.3l1.5-2.1l1.5-2l1.5-1.8l1.4-1.6l0.7-0.7l0.7-0.6l0.6-0.6l0.6-0.5l0.3-0.2l0.3-0.2l0.3-0.2l0.3-0.2l0.3-0.2
		l0.3-0.2l0.2-0.1l0.2-0.1l0.5-0.2l0.4-0.1l0.4,0L373.8,13.8L373.8,13.8z M380,40.2V41l0,0.7l0,0.3l0,0.3l0.1,0.3l0,0.3l0,0.3l0,0.3
		l0,0.3l0.1,0.3l0.1,0.5l0.1,0.5l0.2,0.4l0.2,0.4l0.2,0.4l0.2,0.3l0.2,0.3l0.2,0.3l0.3,0.2l0.2,0.2l0.3,0.2l0.3,0.1l0.3,0.1l0.3,0.1
		l0.3,0.1l0.3,0h0.3l0.3,0l0.4-0.1l0.4-0.1l0.4-0.1l0.4-0.1l0.4-0.1l0.4-0.2l0.4-0.2l0.4-0.2l0.4-0.2l0.4-0.2l0.4-0.2l0.4-0.3
		l0.8-0.6l0.8-0.6l1.7-1.4l1.6-1.5l1.6-1.6l1.5-1.7l1.4-1.6l1.2-1.6l-0.1,0.3l0,0.3l0,0.3V37v0.3v0.3l0,0.3l0,0.3l0.1,0.5l0.1,0.5
		l0.1,0.5l0.1,0.4l0.1,0.4l0.1,0.4l0.2,0.3l0.2,0.3l0.2,0.3l0.2,0.3l0.2,0.2l0.2,0.2l0.3,0.2l0.3,0.2l0.3,0.1l0.3,0.1l0.3,0.1l0.3,0
		l0.3,0l0.4,0l0.3,0l0.4,0l0.4,0l0.4-0.1l0.4-0.1l0.4-0.1l0.4-0.1l0.4-0.2l0.4-0.2l0.4-0.2l0.4-0.2l0.4-0.2l0.9-0.5l0.9-0.6l1.8-1.2
		l1.8-1.4l1.8-1.6l1.8-1.7l1.7-1.8l1.6-1.9l0.1,0.6l0.2,0.5l0.2,0.5l0.2,0.5l0.2,0.5l0.3,0.5l0.3,0.4l0.3,0.4l0.3,0.4l0.3,0.3
		L424,36l0.4,0.3l0.4,0.3l0.4,0.2l0.4,0.2l0.4,0.2l0.4,0.2l0.4,0.2l0.4,0.1l0.5,0.1l0.4,0.1l0.5,0.1l0.4,0.1l0.5,0l0.4,0.1l0.5,0
		l0.5,0h0.4l0.9-0.1l0.9-0.1l0.8-0.2l0.8-0.2l0.9-0.3l0.8-0.3l1.6-0.7l1.5-0.8l0.7-0.4l0.7-0.5l0.7-0.5l0.6-0.5l0.6-0.5l0.5-0.5
		l0.5-0.5l0.4-0.5l0.3-0.4l0.2-0.4l0.2-0.3l0.1-0.3l0-0.5l-0.1-0.4l-0.3-0.2l-0.4-0.1l-0.4,0.1l-0.5,0.2l-0.6,0.4l-0.6,0.4l-0.7,0.4
		l-0.7,0.4l-1.5,0.7l-1.5,0.6l-0.7,0.3l-0.7,0.2l-0.3,0.1l-0.3,0.1l-0.3,0.1l-0.3,0.1l-0.3,0.1l-0.3,0.1l-0.3,0l-0.3,0l-0.5,0
		l-0.4,0l-0.3,0l-0.3,0l-0.3-0.1l-0.3-0.1l-0.3-0.1l-0.3-0.1l-0.3-0.1l-0.2-0.1l-0.2-0.1l-0.2-0.1l-0.2-0.2l-0.2-0.2l-0.4-0.3
		L429,32l-0.3-0.4l-0.2-0.4l-0.2-0.5l-0.1-0.5l-0.1-0.5l0-0.5l0-0.5l0.1-0.5l0.4-1.6l0.5-1.5l0.7-1.4l0.8-1.4l0.9-1.3l1.1-1.2
		l1.2-1.2l1.3-1.2l0.9-0.7l0.8-0.6l0.4-0.3l0.4-0.3l0.4-0.2l0.4-0.2l0.4-0.2l0.4-0.2l0.3-0.1l0.3-0.1l0.3-0.1l0.3-0.1l0.3-0.1l0.2,0
		l0.5,0l0.4,0.1l0.4,0.1l0.2,0.2l0.2,0.2l0.1,0.3v0.3l-0.1,0.4l-0.2,0.5l-0.2,0.5l-0.1,0.4l-0.1,0.4l0,0.4l0,0.3l0,0.3L442,19
		l0.1,0.3l0.1,0.2l0.1,0.2l0.2,0.2l0.2,0.2l0.2,0.1l0.2,0.1l0.3,0.1l0.3,0.1l0.3,0.1l0.3,0l0.3,0l0.4,0l0.4,0l0.4-0.1l0.4-0.1
		l0.4-0.1l0.4-0.2l0.4-0.2l0.4-0.2l0.4-0.2l0.4-0.3l0.4-0.3l0.4-0.3l0.8-0.7l0.7-0.7l0.3-0.4l0.3-0.4l0.3-0.4l0.2-0.4l0.3-0.4
		l0.2-0.4l0.2-0.4l0.2-0.4l0.1-0.4l0.1-0.4l0.1-0.4l0-0.4v-0.4l0-0.4l-0.1-0.3l-0.1-0.3l-0.2-0.3l-0.2-0.3l-0.2-0.3l-0.3-0.2
		l-0.3-0.2l-0.4-0.2L451,9.4l-0.5-0.1l-0.3-0.1L450,9.2l-0.3,0l-0.3,0h-0.3l-0.3,0l-0.3,0l-0.3,0l-0.7,0l-0.7,0.1L446,9.4l-0.8,0.1
		l-1.7,0.3l-1.7,0.5l-1.8,0.6l-1.8,0.7l-1.9,0.9l-1.9,1l-2,1.2l-2,1.4l-1.9,1.6l-1.8,1.7l-1.7,1.8l-1.5,2l-1.3,2.1l-1.1,2.3
		l-1.7,1.8l-1.9,1.9l-1,0.9l-1,0.9l-1,0.8l-1,0.7l-0.5,0.3l-0.5,0.3l-0.2,0.1l-0.3,0.1l-0.2,0.1l-0.2,0.1l-0.5,0.2l-0.4,0.2
		l-0.4,0.2l-0.4,0.1l-0.4,0H409l-0.4,0l-0.3-0.1l-0.3-0.2l-0.3-0.2l-0.2-0.3l-0.2-0.3l-0.1-0.3l-0.1-0.3l0-0.3l0-0.3l0-0.3l0-0.3
		l0.1-0.3l0.1-0.4l0.1-0.3l0.1-0.4l0.2-0.4l0.2-0.4l0.2-0.5l0.3-0.4l0.3-0.5l0.3-0.5l0.3-0.5l0.4-0.5l0.4-0.5l0.4-0.6l0.9-1.2l1-1.3
		l1.1-1.4l1.2-1.5l1.3-1.6l1.3-1.7l0.9-1.1l0.9-1l0.4-0.5L420,16l0.3-0.4l0.3-0.4l0.3-0.4l0.3-0.3l0.2-0.3l0.2-0.3l0.2-0.5l-0.1-0.4
		l-0.2-0.2l-0.2-0.1l-0.3-0.1h-0.3l-0.4,0l-0.5,0.1l-0.3,0l-0.3,0l-0.3,0l-0.3,0l-0.7,0.1l-0.6,0.1l-0.6,0.1l-0.5,0.2l-0.5,0.2
		l-0.5,0.1l-0.4,0.2l-0.4,0.1l-0.3,0.1l-0.3,0.1l-0.3,0.2l-0.3,0.1l-0.6,0.4l-0.5,0.5l-0.6,0.5l-0.5,0.6l-0.6,0.7l-0.6,0.8l-2.3,2.9
		l-2.4,3.3l-2.4,3.4l-2.2,3.4l-1.6,1.6l-1.5,1.5l-0.7,0.7l-0.7,0.7l-0.6,0.6l-0.6,0.6l-0.6,0.6l-0.6,0.5l-0.6,0.5l-0.5,0.4l-0.3,0.2
		l-0.2,0.2l-0.2,0.2l-0.2,0.2l-0.2,0.2l-0.2,0.2l-0.2,0.1l-0.2,0.1l-0.4,0.2l-0.3,0.2l-0.3,0.2l-0.3,0.1l-0.5,0.1l-0.4,0l-0.3-0.2
		l-0.2-0.4l-0.1-0.3l0-0.3l0-0.3l0-0.4l0-0.3l0-0.3l0.1-0.3l0.1-0.3l0.2-0.7l0.2-0.8l0.3-0.8l0.3-0.8l0.3-0.9l0.4-0.9l0.8-1.8
		l0.9-1.7l0.4-0.8l0.4-0.7l0.4-0.7l0.4-0.6l1.8-2.5l1.8-2.3l0.9-1l0.8-1l0.4-0.5l0.4-0.5l0.3-0.4l0.3-0.4l0.3-0.5l0.2-0.4l0.1-0.3
		l0-0.3l-0.1-0.2l-0.2-0.1l-0.3-0.1l-0.4,0h-0.5l-0.6,0l-0.3,0l-0.3,0l-0.3,0.1l-0.3,0.1l-0.7,0.1l-0.8,0.2l-0.8,0.2l-0.8,0.2
		l-0.8,0.2l-0.7,0.2l-0.7,0.3l-0.6,0.3l-0.6,0.3l-0.5,0.4l-0.5,0.4l-0.4,0.4l-0.8,0.9l-0.7,1l-0.7,1l-0.7,1.1l-1.7,3l-1.5,3.1
		l-1.4,3.3l-1.4,3.6l-2.2,2.1l-2.4,2l-0.6,0.4l-0.6,0.4l-0.6,0.4l-0.6,0.3l-0.3,0.1l-0.3,0.2l-0.3,0.1l-0.3,0.1l-0.3,0.1l-0.3,0.1
		l-0.3,0.1l-0.3,0l0.4-0.6l0.4-0.6l0.2-0.3l0.1-0.3l0.1-0.3l0.1-0.3l0.1-0.3l0.1-0.3l0.1-0.3l0.1-0.2l0.1-0.5l0-0.5V38l0-0.5
		l-0.1-0.4l-0.1-0.4l-0.2-0.4l-0.2-0.3l-0.2-0.3l-0.2-0.3l-0.3-0.3l-0.3-0.2l-0.3-0.2l-0.3-0.2l-0.3-0.2l-0.4-0.1l-0.4-0.1l-0.4,0
		l-0.4,0l-0.4,0l-0.4,0l-0.4,0l-0.4,0.1l-0.4,0.1l-0.3,0.2l-0.3,0.2l-0.7,0.5l-0.6,0.5l-0.6,0.6l-0.5,0.6l-0.5,0.7l-0.4,0.7
		l-0.3,0.8l-0.3,0.7l-0.1,0.4l0,0.4l0,0.4v0.4v0.4l0,0.4l0.1,0.4l0.1,0.4l0.2,0.4l0.2,0.4l0.2,0.4l0.3,0.4l0.3,0.4l0.3,0.4l0.4,0.4
		l0.4,0.4l-0.9,0.9l-0.9,0.9l-0.9,0.8l-0.9,0.7l-0.8,0.6l-0.8,0.5l-0.4,0.3l-0.4,0.2l-0.4,0.2l-0.4,0.2l-0.4,0.2l-0.3,0.1l-0.4,0.1
		l-0.3,0.1l-0.3,0.1l-0.3,0.1l-0.3,0.1l-0.3,0.1h-0.5l-0.5-0.1l-0.4-0.1l-0.3-0.2l-0.2-0.2l-0.2-0.2l-0.2-0.2l-0.2-0.2l-0.2-0.3
		l-0.1-0.3l-0.1-0.3l-0.1-0.4l-0.1-0.4l0-0.4v-0.5l0-0.5l0-0.3l0-0.3l0.1-0.3l0-0.3l0.1-0.3l0.1-0.4l0.1-0.3l0.1-0.4l9.5-8.7
		l9.2-8.9l2.1-2.2l1.9-2.2L377,21l1.5-2.2l0.7-1.1l0.7-1.1l0.6-1.1l0.5-1.1l0.5-1.1l0.4-1.1l0.3-1.1l0.2-1.1l0.1-0.4l0-0.4l0-0.4
		l0-0.4V8l0-0.4l-0.1-0.3l-0.1-0.4l-0.1-0.3l-0.1-0.3l-0.2-0.3l-0.2-0.3l-0.2-0.3l-0.2-0.3l-0.2-0.2l-0.3-0.2l-0.3-0.2l-0.3-0.2
		l-0.3-0.2l-0.3-0.1L379.2,4l-0.4-0.1l-0.4,0l-0.4,0h-0.4l-0.4,0L376.6,4l-0.5,0.1l-0.5,0.2l-0.5,0.2l-0.6,0.2l-0.5,0.3l-1,0.5
		l-1,0.5l-0.9,0.6l-1,0.7l-2,1.5l-2,1.8l-2,2l-2,2.2l-1.9,2.4l-2,2.7l-1.9,2.9l-1.9,3.1l-1.8,3.2l-1.7,3.4l-1.6,3.6l-1.5,3.8
		l-1.4,3.9l-1.2,4.2l-5.6,4.8l-5.5,4.3l-1.3,1l-1.3,0.9l-1.2,0.8l-1.1,0.8l-1.1,0.7l-1,0.6l-0.5,0.3l-0.5,0.3l-0.4,0.3l-0.4,0.2
		l-0.4,0.2l-0.3,0.1l-0.2,0.1l-0.2,0.1l-0.2,0l0-0.1l0.1-0.2l0.2-0.2l0.3-0.3L325,62l0.4-0.3l0.4-0.3l0.2-0.2l0.2-0.2l0.2-0.2
		l0.2-0.2l0.2-0.2l0.2-0.2l0.3-0.2l0.3-0.2l0.5-0.5l0.6-0.6l2-2.1l1.9-2.2l1.7-2.3l1.6-2.2l0.7-1l0.7-1l0.6-1l0.6-0.9l0.3-0.4
		l0.2-0.4l0.2-0.4l0.2-0.4l0.2-0.4l0.2-0.3l0.2-0.3l0.2-0.3l0.2-0.3l0.2-0.4l0.1-0.2l0.1-0.2l0.1-0.2l0.1-0.2l0.2-0.3l0.1-0.3
		l0.1-0.3l0.2-0.3l0.3-0.6l0.3-0.6l0.6-1.3l0.6-1.4l0.3-0.7l0.2-0.7l0.1-0.3l0.1-0.3l0.1-0.3l0.1-0.3l0.2-1.2l0.1-1.2l0-0.6l0-0.6
		l0-0.5l0-0.5l-0.1-0.5l-0.1-0.5l-0.1-0.4l-0.2-0.4l-0.2-0.4l-0.2-0.3l-0.2-0.2l-0.3-0.2l-0.3-0.1l-0.3-0.1l-0.4-0.1l-0.4-0.1
		l-0.4-0.1l-0.5,0l-0.5,0l-0.5,0l-0.6,0l-0.6,0.1l-0.6,0.1l-0.6,0.1l-0.7,0.2l-0.7,0.2l-0.7,0.3l-0.7,0.3l-1.1,0.6l-1.1,0.7
		l-1.2,0.8l-1.2,0.8l-2.5,1.8l-2.6,2l-2.5,2.1l-2.3,2.1l-1.1,1l-1,1l-0.9,1l-0.8,0.9l0.8-1.5l0.8-1.4l0.7-1.3l0.7-1.2l1.2-2.2l1.1-2
		l0.3-0.6l0.3-0.5l0.3-0.5l0.3-0.4l0.2-0.4l0.2-0.4l0.1-0.3l0.1-0.3l0.1-0.6l0-0.4l-0.1-0.3l-0.2-0.2l-0.3-0.1l-0.5,0l-0.3,0l-0.3,0
		l-0.3,0l-0.3,0.1l-0.4,0.1l-0.4,0.1l-0.4,0.1l-0.5,0.1l-0.5,0.1l-0.5,0.1l-0.6,0.2l-0.6,0.2l-0.3,0.1l-0.3,0.1l-0.3,0.1l-0.2,0.1
		l-0.4,0.2l-0.4,0.3l-0.3,0.3l-0.3,0.3l-0.3,0.3l-0.3,0.4l-0.1,0.2l-0.1,0.3l-0.1,0.3l-0.1,0.3l-0.1,0.3l-0.2,0.3l-0.2,0.3l-0.2,0.4
		l-0.4,0.8l-0.4,0.9l-0.2,0.5l-0.3,0.5l-0.3,0.5l-0.3,0.6l-0.3,0.6l-0.4,0.6l-0.4,0.7l-0.4,0.7l-0.9,1.4l-0.9,1.4l-2.1,3l-2.3,3.1
		l-2.4,3.1l-2.4,2.9l-1.2,1.3l-1.1,1.3l-1.1,1.2l-1.1,1.1l-3.6,3.6l-3.3,3.2l-1.6,1.5l-1.5,1.4l-1.5,1.3l-1.4,1.2l-1.3,1.1l-1.3,1
		l-1.3,0.9l-1.2,0.8l-1.2,0.7l-1.2,0.6l-0.6,0.3l-0.6,0.3l-0.6,0.2l-0.6,0.2l-0.5,0.1l-0.5,0.1l-0.4,0.1l-0.4,0l-0.4,0l-0.3,0
		l-0.3,0l-0.3-0.1l-0.3-0.1l-0.3-0.1l-0.2-0.1l-0.2-0.2l-0.2-0.2l-0.2-0.2L267,77l-0.2-0.2l-0.1-0.2l-0.2-0.2l-0.1-0.2l-0.1-0.3
		l-0.2-0.5l-0.1-0.6l-0.1-0.6l-0.1-0.5l-0.1-0.5v-0.5l1.7-1.3l1.6-1.2l1.5-1.1l1.4-1.1l1.3-1.1l1.2-1l1.2-1l1.1-1l2.1-1.8l1.9-1.8
		l1.8-1.7l1.7-1.6l2.1-2.1l2-2.2l1.9-2.3l1.6-2.3l0.7-1.1l0.6-1.2l0.6-1.2l0.4-1.1l0.2-0.6l0.2-0.6l0.1-0.5l0.1-0.5l0.1-0.5l0-0.5
		l0-0.3v-0.3l0-0.3V39l0-0.4l0-0.3l-0.1-0.3l-0.1-0.3l-0.1-0.3l-0.1-0.3l-0.2-0.3l-0.2-0.3l-0.2-0.2l-0.2-0.2l-0.2-0.2l-0.2-0.2
		l-0.3-0.2l-0.3-0.2l-0.2-0.2l-0.3-0.2l-0.3-0.1l-0.3-0.1l-0.4-0.1l-0.4-0.1l-0.8-0.1l-0.8-0.1h-0.9l-0.9,0.1l-1,0.1l-1,0.2
		l-1.2,0.3l-1.3,0.4l-1.3,0.5l-1.3,0.6l-2.6,1.4l-2.6,1.7l-2.6,2l-2.6,2.3l-2.5,2.6l-2.4,2.8l-2.2,3l-2.1,3.2l-1.8,3.3l-1.6,3.4
		l-1.3,3.5l-1,3.7l-0.7,3.7l-0.3,3.7l-1.8,1.6l-1.9,1.6l-2,1.7l-2.1,1.7l-4.5,3.4l-4.9,3.4l-5.1,3.2l-5.2,3l-5.2,2.7l-5.2,2.3
		l-2.5,1l-2.5,0.8l-2.4,0.7l-2.3,0.5l-1.1,0.2l-1.1,0.2l-1.1,0.1l-1.1,0l-1,0l-1,0l-1-0.1l-0.9-0.1l-0.9-0.2l-0.9-0.2l-0.8-0.3
		l-0.8-0.3l-0.8-0.4l-0.7-0.4l-0.7-0.5l-0.6-0.6l-0.3-0.3l-0.3-0.3l-0.3-0.4l-0.3-0.4l-0.3-0.4l-0.2-0.4l-0.2-0.4l-0.2-0.5l-0.2-0.4
		l-0.2-0.5l-0.2-0.5l-0.1-0.5l-0.3-1.1l-0.2-1.1l-0.3-2.3l-0.2-2.3v-2.4l0.1-2.3L189,81l1-4.6l1.4-4.5l1.7-4.4l2-4.2l2.2-4.1
		l2.4-3.9l2.5-3.7l2.5-3.4l2.5-3.1l2.5-2.8l2.4-2.5l1.2-1.1l1.1-1l1.1-0.9l1-0.7l3.5-2.4l3.4-2.1l3.4-1.9l3.2-1.6l1.6-0.7l1.5-0.6
		l1.5-0.5L236,26l1.4-0.3l1.4-0.2l1.3-0.1l1.3,0h0.3l0.3,0l0.3,0l0.2,0.1l0.2,0.1l0.2,0.1l0.2,0.2l0.2,0.2l0.2,0.2l0.2,0.2l0.2,0.2
		L244,27l0.1,0.3l0.1,0.3l0.1,0.3l0.1,0.3l0.1,0.4l0.1,0.4l0,0.4l0.1,0.4l0,0.9v0.9l-0.1,1l-0.1,1l-0.2,1.1l-0.2,1.1l-0.6,2.3
		l-0.8,2.4l-1,2.4l-1.2,2.5l-1.4,2.4l-1.6,2.3l-1.8,2.3l-2,2.1l-0.1-0.7l-0.1-0.7l-0.1-0.6l-0.2-0.6l-0.2-0.6l-0.2-0.5l-0.2-0.5
		l-0.2-0.5l-0.2-0.4L232,49l-0.2-0.4l-0.2-0.3l-0.3-0.3l-0.3-0.3l-0.3-0.2l-0.3-0.2l-0.3-0.2l-0.3-0.2l-0.3-0.2l-0.3-0.1l-0.3-0.1
		l-0.3-0.1l-0.4,0l-0.4,0l-0.4,0l-0.4,0l-0.4,0l-0.4,0.1l-0.7,0.2l-0.8,0.3l-0.8,0.3l-0.8,0.4l-0.8,0.5l-0.8,0.5l-1.6,1.2l-1.6,1.4
		l-1.5,1.6l-1.5,1.7l-1.3,1.8l-1.2,1.9l-0.6,1.1l-0.5,1l-0.5,1l-0.4,1l-0.4,1l-0.3,0.9l-0.3,0.9l-0.2,0.9l-0.2,0.9l-0.1,0.8l0,0.8
		v0.8l0,0.4l0,0.3l0,0.4l0.1,0.3l0.1,0.3l0.1,0.3l0.1,0.3l0.1,0.3l0.1,0.3l0.1,0.3l0.1,0.3l0.1,0.3l0.2,0.3l0.2,0.3l0.2,0.2l0.2,0.3
		l0.2,0.2l0.2,0.2l0.2,0.2l0.2,0.2l0.2,0.2l0.2,0.2l0.3,0.2l0.2,0.2l0.3,0.1l0.3,0.2l0.3,0.1l0.3,0.1l0.3,0.1l0.3,0.1l0.3,0.1
		l0.3,0.1l0.7,0.1l0.7,0.1l0.7,0.1l0.7,0.1l0.7-0.1l0.8-0.1l0.8-0.1l0.8-0.2l0.9-0.2l0.9-0.3l0.9-0.3l0.9-0.4l1.9-0.9l2-1.1l2-1.3
		l2.1-1.5l2.1-1.7l2.1-1.8l2.1-2l2.1-2.2l2-2.3l2-2.5l1.9-2.6l1.8-2.8l0.3-0.4l0.3-0.5l0.3-0.5l0.3-0.5l0.6-1.1l0.6-1.2l1.2-2.5
		l1.1-2.7l1.1-3l1-3l0.8-3.1l0.6-3l0.2-1.5l0.1-1.5l0-1.4l0-1.4l-0.1-1.3l-0.2-1.2l-0.1-0.6l-0.2-0.6l-0.2-0.6l-0.2-0.5l-0.3-0.5
		l-0.3-0.5l-0.3-0.4l-0.3-0.4l-0.4-0.4l-0.4-0.4l-0.4-0.4l-0.5-0.3l-0.2-0.1l-0.3-0.1l-0.3-0.1l-0.3-0.1l-0.3-0.1l-0.3-0.1l-0.3-0.1
		l-0.3-0.1l-0.3-0.1l-0.3-0.1l-0.3-0.1l-0.3,0l-0.4,0l-0.3,0l-0.4,0h-0.4h-1.6l-1.6,0.1l-1.7,0.1l-1.7,0.2l-3.6,0.6l-3.8,0.9
		l-3.9,1.1l-3.9,1.3l-3.9,1.6l-3.8,1.8l-6.9,3.8l-6.5,4.4l-3,2.3l-2.9,2.4l-2.6,2.4l-2.4,2.5l-3.8,4.2l-3.8,4.8l-1.9,2.6l-1.9,2.9
		l-1.9,3l-1.9,3.3l-2,3.6l-1.9,3.7l-1.8,3.8l-1.7,4.1l-1.1,3.3l-1,3.2l-0.8,3.2l-0.6,3.1l-0.4,3l-0.3,2.9l-0.1,2.8l0.1,2.7l0.2,1.9
		l0.2,1.8l0.3,1.7l0.4,1.6l0.5,1.5l0.5,1.4l0.6,1.3l0.7,1.3l0.8,1.1l0.8,1.1l0.9,1l0.9,0.9l1,0.8l1,0.7l1.1,0.6l1.2,0.6l1.2,0.5
		l1.2,0.4l1.3,0.3l1.3,0.2l1.4,0.1l1.4,0.1h1.4l1.5-0.1l1.5-0.2l1.5-0.2l1.6-0.3l1.6-0.4l3.3-1l3.4-1.3l6.8-3.2l6.7-3.9l6.6-4.4
		l6.5-4.8L242,93l13.1-11.2l0.1,0.4l0.1,0.4l0.1,0.4l0.2,0.4l0.2,0.4l0.2,0.4l0.2,0.4l0.2,0.3l0.3,0.3l0.3,0.3l0.3,0.3l0.3,0.3
		l0.7,0.6l0.8,0.5l0.4,0.2l0.4,0.2l0.4,0.2l0.4,0.2l0.4,0.2l0.5,0.2l0.5,0.1l0.5,0.1l0.5,0.1l0.5,0.1l0.5,0l0.5,0h1l1-0.1l0.4-0.1
		l0.4-0.1l0.4-0.1l0.4-0.1l0.8-0.3l0.8-0.3l0.9-0.4l0.9-0.4l0.9-0.5l0.9-0.6l1.9-1.3l1.9-1.5l1.9-1.6l2-1.7l7.8-7.7l7-7.8l1-1.2
		l0.9-1l0.4-0.5l0.4-0.5l0.4-0.4l0.4-0.4l0.7-0.8l0.6-0.7l0.6-0.7l0.6-0.6l1-1.2l1-1.2l0.5-0.6l0.6-0.6l0.6-0.7l0.6-0.7l-0.6,1.3
		l-0.6,1.4l-0.7,1.4l-0.7,1.5l-1.6,3.1l-1.7,3.3l-3.5,6.7l-3.4,6.4l-0.7,1.3l-0.6,1.2l-0.7,1.2l-0.6,1.1l-0.5,1l-0.5,0.9l-0.5,0.9
		l-0.4,0.8l-0.4,0.8l-0.3,0.7l-0.1,0.3l-0.2,0.3l-0.1,0.3l-0.1,0.3l-0.1,0.3l-0.1,0.3l-0.1,0.2l-0.1,0.2l-0.1,0.4l-0.1,0.4l0,0.6
		l0.2,0.4l0.3,0.2h0.6l0.3-0.1l0.4-0.1l0.5-0.1l0.5-0.2l0.3-0.1l0.3-0.1l0.3-0.1l0.3-0.1l0.6-0.3l0.7-0.3l0.7-0.3l0.6-0.3l0.6-0.3
		l0.6-0.3l0.5-0.3l0.5-0.3l0.5-0.3l0.5-0.4l0.5-0.4l0.4-0.4L298,86l0.4-0.4l0.4-0.4l0.4-0.5l0.4-0.5l0.4-0.5l0.2-0.3l0.2-0.3
		l0.2-0.3l0.2-0.3l0.2-0.3l0.2-0.3l0.2-0.3l0.2-0.4l0.4-0.7l0.4-0.7l0.3-0.8l0.4-0.9l0.4-0.9l0.4-1l0.4-1l0.4-1l0.4-1.1l0.5-1.2
		l0.5-1.2l0.5-1.3l0.6-1.7l0.6-1.6l0.6-1.5l0.6-1.4l0.6-1.3l0.5-1.2l0.6-1.2l0.5-1.1l1.1-2l1-1.8l1-1.7l1-1.5l2-2.9l2.1-2.7l1-1.2
		l1-1.2l1-1.1l1-1l1.1-1.1l1.2-1l1.3-1l1.3-0.9l0.7-0.4l0.7-0.4l0.7-0.3l0.7-0.2l0.6-0.2l0.7-0.1l0.3-0.1l0.3,0l0.3,0l0.3,0l0.5,0.1
		l0.4,0.3l0.1,0.2l0.1,0.2l0.1,0.3l0,0.3l0,0.4l0,0.4l0,0.4l-0.1,0.5l-0.1,0.5l-0.1,0.5l-0.1,0.5l-0.1,0.5l-0.4,1.1l-0.4,1.2
		l-0.5,1.2l-0.6,1.3l-1.3,2.5l-1.4,2.5l-0.2,0.3l-0.2,0.4l-0.3,0.4l-0.3,0.4l-0.6,0.9l-0.6,0.9l-1.4,1.9l-1.5,1.9l-1.6,1.8l-1.6,1.6
		l-0.8,0.7l-0.8,0.6l-0.4,0.3l-0.4,0.3l-0.4,0.2l-0.4,0.2l-0.3,0.1l-0.3,0.1l-0.3,0.1l-0.3,0.1l-0.6,0.1l-0.7,0.1l-0.7,0.1l-0.7,0.1
		l-0.6,0.1l-0.6,0.1l-0.3,0.1l-0.3,0.1l-0.2,0.2l-0.3,0.2l-0.2,0.2l-0.2,0.2l-0.2,0.2l-0.2,0.2l-0.2,0.3l-0.1,0.3l-0.1,0.3l-0.1,0.3
		l-0.1,0.3l0,0.3v0.3l0.1,0.3l0.1,0.3l0.1,0.3l0.2,0.3l0.2,0.3l0.3,0.3l0.3,0.2l0.4,0.2l0.4,0.2l0.3,0.1l0.4,0.1l0.5,0.1h0.5l0.3,0
		l0.3,0l0.4-0.1l0.4-0.1l0.5-0.1l0.5-0.2l0.3-0.1l0.3-0.1l0.3-0.1l0.3-0.1l0.6-0.3l0.7-0.3l0.7-0.3l0.7-0.3l1.5-0.7l1.6-0.8l3.5-1.9
		l3.8-2.2l3.9-2.5l3.9-2.7l3.7-2.9l3.5-3l0,0.3l0,0.3v0.3l0,0.3l0.1,0.6l0,0.5l0.1,0.5l0.1,0.5l0.1,0.4L346,56l0.2,0.4l0.2,0.4
		l0.2,0.3l0.2,0.3l0.2,0.3l0.2,0.2l0.3,0.2l0.3,0.2l0.3,0.2l0.3,0.1l0.3,0.1l0.3,0.1l0.3,0.1l0.3,0.1l0.4,0l0.4,0l0.4,0l0.4,0
		l0.4-0.1l0.4-0.1l0.4-0.1l0.4-0.1l0.4-0.1l0.4-0.2l0.4-0.2l0.5-0.2l0.4-0.2l0.5-0.2l0.9-0.5l0.9-0.5l1.9-1.2l1.9-1.4l1.8-1.5
		l1.8-1.6l1.7-1.7l1.5-1.8l0.4-0.1l0.5-0.1L369,47l0.3-0.1l0.3-0.1l0.3-0.1l0.7-0.3l0.7-0.3l0.8-0.4l0.8-0.4l0.8-0.5l0.9-0.5
		l0.9-0.6l0.9-0.6l0.9-0.7l0.9-0.7l0.9-0.8L380,40.2L380,40.2z M465.5,28.4l0-0.2l0.1-0.2l0.1-0.3l0.1-0.3l0.1-0.3l0.1-0.3l0.1-0.3
		l0.1-0.3l0.2-0.4l0.2-0.4l0.2-0.4l0.3-0.4l0.3-0.5l0.3-0.5l0.4-0.5l0.4-0.5l1.5-0.2l1.5-0.2l1.5-0.2l1.6-0.2l0.4-0.1l0.4-0.1
		l0.3-0.1l0.3-0.1l0.3-0.1l0.3-0.1l0.2-0.1l0.2-0.1l0.2-0.2l0.2-0.2l0.2-0.2l0.2-0.2l0.2-0.2l0.3-0.2l0.2-0.3l0.3-0.3l0.4-0.4
		l0.3-0.3l0.2-0.2l0.1-0.2l0.1-0.3l0-0.2l-0.1-0.2l-0.3-0.2l-0.2,0h-0.3l-0.3,0l-0.4,0l-1.6,0.2l-1.5,0.2l-1.6,0.2l-1.6,0.2l1.1-1.4
		l1.2-1.5l0.5-0.7l0.5-0.7l0.2-0.3l0.2-0.3L476,13l0.2-0.3l0.1-0.3l-0.1-0.3l-0.3-0.2l-0.4-0.2l-0.4-0.1l-0.5-0.1l-0.5-0.1h-0.5
		l-0.4,0l-0.4,0.1l-0.4,0.1l-0.4,0.2l-0.4,0.2l-0.4,0.3l-0.4,0.3l-0.5,0.4l-0.3,0.2l-0.3,0.2l-0.3,0.3l-0.3,0.3l-0.3,0.3l-0.3,0.3
		l-0.3,0.3l-0.3,0.4l-0.7,0.8l-0.7,0.9l-0.7,0.9l-0.8,1.1l-1.1,0.1l-1.1,0.1l-1.1,0l-1.2,0.1l-0.4,0l-0.4,0.1l-0.4,0.1l-0.3,0.1
		l-0.3,0.1l-0.3,0.1l-0.2,0.1l-0.2,0.1l-0.5,0.3l-0.4,0.3l-0.4,0.4l-0.5,0.4l-0.3,0.3l-0.3,0.3l-0.4,0.4l-0.3,0.4l-0.3,0.3l-0.2,0.3
		l0,0.2l0.2,0.2l0.2,0.1l0.3,0.1l0.3,0h0.4h0.4l0.4-0.1l0.5,0l0.5,0l2.1-0.3l2-0.2l-0.9,1.4l-0.9,1.3l-0.4,0.7l-0.3,0.7l-0.2,0.3
		l-0.1,0.3l-0.1,0.3l-0.1,0.3l0,0.4l0.1,0.4l0.2,0.3l0.5,0.2l0.3,0.1l0.3,0.1l0.4,0l0.4,0l0.5,0l0.5,0l0.6,0.1l0.6,0h0.3h0.3
		l0.3-0.1l0.3-0.1l0.3-0.2l0.2-0.3l0.1-0.2l0.1-0.3l0.1-0.3L465.5,28.4L465.5,28.4z M77.2,182.8l0.7-1.9l0.8-2.1l0.9-2.2l1-2.3
		l2.3-5l2.6-5.4l3-5.9l3.2-6.2l3.5-6.6l3.7-6.8l16.8-29.6l18.6-31.2L114.6,103l-20.4,24l-4.8,5.3l-4.5,5l-2.1,2.3l-2.1,2.2l-2,2.1
		l-1.9,2l-1.8,1.8l-1.7,1.7l-0.8,0.8l-0.8,0.8l-0.7,0.7l-0.7,0.7l-0.6,0.6l-0.6,0.6l-0.6,0.5l-0.5,0.5l-0.3,0.2l-0.2,0.2l-0.2,0.2
		l-0.2,0.2l-0.2,0.2l-0.2,0.2l-0.2,0.2l-0.2,0.2l-0.4,0.3l-0.4,0.3l-0.4,0.2l-0.4,0.3l-0.8,0.4l-0.9,0.4l-1,0.4l-1,0.3l-1,0.2
		l-1,0.2l-1.1,0.1l-1.1,0l-1.1,0l-1.1-0.1l-1.1-0.2l-1.1-0.2l-1-0.3l-1-0.4l-1-0.4l-1-0.5l-0.4-0.3l-0.4-0.3l-0.4-0.3l-0.4-0.3
		l-0.4-0.3l-0.4-0.4l-0.4-0.4l-0.3-0.4l-0.3-0.4l-0.3-0.4l-0.3-0.5l-0.3-0.5l-0.2-0.5l-0.2-0.5l-0.2-0.5l-0.2-0.6l-0.2-0.6l-0.1-0.6
		l-0.1-0.6l-0.1-0.6l0-0.7v-0.7l0-0.7l0.1-0.7l0.1-0.7l0.1-0.8l0.2-0.8l0.2-0.8l0.4-1.7l0.5-1.7l0.6-1.8l0.6-1.9l1.4-4.1l1.6-4.4
		l1.8-4.7l2-4.9l2.2-5.2l2.3-5.4L67,83.8l11.3-23.1l1.1-2.2l1-2l1-1.9l0.8-1.7l0.8-1.6l0.7-1.5l0.3-0.7l0.3-0.7l0.3-0.6l0.2-0.6
		l0.2-0.6l0.2-0.5l0.2-0.5l0.2-0.4l0.1-0.5l0.1-0.4l0.1-0.4l0.1-0.3l0-0.3l0-0.3v-0.3l0-0.3L85.9,42l-0.2-0.3l-0.3-0.2L85,41.5
		l-0.2,0l-0.3,0l-0.3,0.1l-0.3,0.1l-0.3,0.1l-0.3,0.1l-0.4,0.2l-0.4,0.2L82,42.5l-0.4,0.2L81.1,43l-0.5,0.3l-0.5,0.3l-0.6,0.3
		l-0.6,0.3l-0.6,0.4L77,45.4l-1.4,0.9l-1.5,1l-1.6,1l-1.7,1.1L69,50.7L56.2,59L43,67.8l-13.5,9.4L15.8,87.5l-1.5,1.1l-1.4,1l-1.3,1
		l-1.2,0.9l-1.1,0.7l-1,0.7l-0.5,0.3l-0.5,0.3l-0.5,0.3l-0.4,0.2l-0.4,0.2l-0.4,0.2l-0.4,0.1l-0.4,0.1l-0.3,0.1l-0.4,0.1l-0.3,0.1
		L3.6,95l-0.3,0l-0.3,0H2.7l-0.2,0L2,94.9l-0.4-0.2l-0.4-0.2l-0.3-0.3l-0.3-0.4l-0.2-0.4l-0.1-0.3L0.3,93l-0.1-0.3l-0.1-0.3
		l-0.1-0.3l0-0.3l0-0.3l0-0.3l0-0.7l0-0.8l0.1-0.9l0.1-0.9l0.1-0.9l0.1-1l0.1-1l0.2-1.1l0.2-1.4L1.1,81l0.2-1.3l0.2-1.2l0.4-2.3
		l0.5-2.1l0.5-2l0.7-1.9l0.9-1.8l1.1-1.8l0.6-0.9l0.7-0.9l0.8-0.9l0.8-1l1-1l1-1.1l1.1-1.1l1.2-1.1l1.3-1.2l1.4-1.2l1.5-1.3l1.7-1.3
		l1.8-1.4l1.9-1.5l2.1-1.6l2.2-1.7l17.7-12.6l18.2-11.5l19.1-10.7l20.5-10.2l0.9-0.4l0.9-0.3l0.8-0.3l0.8-0.3l0.8-0.2l0.8-0.2
		l0.7-0.2l0.7-0.1l0.7-0.1l0.7,0l0.6,0l0.6,0l0.6,0.1l0.6,0.1l0.5,0.2l0.5,0.2l0.5,0.2l0.5,0.2l0.5,0.3l0.4,0.3l0.4,0.3l0.4,0.3
		l0.4,0.4l0.3,0.4l0.3,0.4l0.3,0.5l0.3,0.5l0.2,0.5l0.2,0.5l0.2,0.5l0.2,0.6l0.2,0.6l0.3,1.2l0.2,1.2l0.1,1.3l0.1,1.4l0,1.4
		l-0.1,1.4l-0.2,1.5l-0.2,1.5l-0.6,3l-0.8,3l-1,2.9l-1.2,2.8l-1.8,3.7l-2,3.9l-2.2,4.1l-2.3,4.2l-4.8,8.8l-5.1,9.1L86.8,82
		l-8.7,17.1l-1.1,2.3l-1,2.2l-0.9,2.1l-0.8,2l-0.7,1.8l-0.6,1.7l-0.3,0.8l-0.3,0.8l-0.2,0.7l-0.2,0.7l-0.2,0.7l-0.2,0.6l-0.1,0.3
		l-0.1,0.3l0,0.3l-0.1,0.3l-0.1,0.5l-0.1,0.5l0,0.5l0,0.4l0,0.4l0,0.4l0.1,0.3l0.1,0.3l0.3,0.4l0.4,0.3l0.2,0.1l0.2,0h0.3l0.3-0.1
		l0.3-0.1l0.4-0.1l0.4-0.2l0.4-0.2l0.2-0.1l0.2-0.1l0.2-0.1l0.3-0.2l0.3-0.2L76,119l0.3-0.2l0.3-0.2l0.6-0.4l0.6-0.5l0.6-0.5
		l0.7-0.6l0.7-0.6l0.7-0.7l0.7-0.7l0.8-0.7l1.7-1.6l1.8-1.9l1.9-2l2-2.2l2.2-2.4l2.3-2.6l15-17.5l14.3-17L137,49.8l14-17l1.5-1.8
		l1.5-1.6l1.3-1.4l1.3-1.3l1.3-1.2l1.2-1l0.6-0.5l0.6-0.4l0.5-0.4l0.5-0.4l0.5-0.3l0.5-0.3l0.5-0.3l0.4-0.2l0.5-0.2l0.4-0.2l0.4-0.2
		l0.4-0.1l0.4-0.1l0.4-0.1l0.3,0h0.3l0.3,0l0.3,0l0.3,0.1l0.3,0.1l1.8,0.8l1.6,0.8l0.8,0.5l0.7,0.5l0.7,0.6l0.7,0.6l0.6,0.6l0.6,0.7
		l0.5,0.7l0.5,0.8l0.4,0.9l0.4,1l0.3,1l0.3,1.1l0,0.3l0,0.3v0.4l0,0.4l0,0.4l-0.1,0.4l-0.1,0.4l-0.1,0.5l-0.1,0.5l-0.2,0.5l-0.2,0.5
		l-0.2,0.5l-0.5,1.2l-0.5,1.2l-0.6,1.3l-0.7,1.4l-0.8,1.5l-0.8,1.6l-0.9,1.7l-1,1.7l-1,1.8l-1.1,1.9l-11.8,20.8l-11.7,21.6
		l-11.9,22.7l-12.3,24.1l-1.1,2l-0.9,1.9l-0.5,0.9l-0.4,0.8l-0.4,0.8l-0.4,0.8l-0.3,0.7l-0.4,0.7l-0.3,0.6l-0.3,0.6l-0.1,0.3
		l-0.1,0.3l-0.1,0.3l-0.1,0.2l-0.1,0.2l-0.1,0.2l-0.1,0.2l-0.1,0.2l-0.2,0.4l-0.2,0.4l-0.1,0.3l-0.2,0.3l-0.1,0.3l-0.1,0.2l-0.1,0.2
		l-0.1,0.2l-0.1,0.5l0.2,0.1l0.2-0.1l0.2-0.2l0.3-0.2l0.3-0.3l0.2-0.2l0.2-0.2l0.2-0.2l0.2-0.2l0.2-0.2l0.2-0.2l0.2-0.2l0.3-0.3
		l0.5-0.6l0.6-0.6l0.6-0.6l0.6-0.6l1.4-1.3l1.5-1.3l0.8-0.7l0.9-0.8l1-0.8l1-0.9l2.3-1.9l2.5-2l5.5-4.4l5.8-4.6l5.8-4.5l5.4-4.1
		l1.3-0.9l1.2-0.9l1.1-0.8l1.1-0.8l0.5-0.4l0.5-0.3l0.5-0.3l0.5-0.3l0.4-0.3l0.4-0.3l0.4-0.3l0.4-0.2l0.3-0.2l0.3-0.1l0.3-0.1
		l0.3-0.1l0.5-0.1l0.4,0.1l0.3,0.2l0.3,0.3l0.2,0.4l0.2,0.5l0.1,0.3l0.1,0.3l0,0.3l0,0.3l0,0.3v0.4l0,0.4l0,0.4l-0.1,0.8l-0.1,0.9
		l-0.2,0.9l-0.2,0.9l-1,4l-1.4,3.8l-0.4,0.9l-0.4,0.8l-0.4,0.8l-0.4,0.8l-0.2,0.3l-0.2,0.3l-0.2,0.3l-0.2,0.3l-0.2,0.3l-0.2,0.2
		l-0.2,0.2l-0.2,0.2l-3,2.8l-3.2,3l-3.4,3.1l-3.5,3.3l-7.4,7l-7.7,7.5l-15.9,16.5l-15.5,18l-1.2,1.4l-1.1,1.4l-1,1.3l-0.9,1.2
		l-0.9,1.1l-0.8,1.1l-0.8,1l-0.8,0.9l-0.8,0.8l-0.7,0.8l-0.4,0.3l-0.4,0.3l-0.4,0.3l-0.4,0.3l-0.4,0.3l-0.4,0.2l-0.4,0.2l-0.4,0.2
		l-0.5,0.2l-0.5,0.2l-0.5,0.1l-0.5,0.1l-2.1,0.4l-2.1,0.3l-1.1,0.1l-1,0.1h-0.5l-0.5,0l-0.5,0l-0.5-0.1l-0.5,0l-0.5-0.1l-0.5-0.1
		l-0.5-0.1l-0.4-0.2l-0.5-0.2l-0.4-0.2l-0.4-0.3l-0.4-0.3l-0.4-0.3l-0.3-0.3l-0.3-0.3l-0.3-0.4l-0.3-0.4l-0.2-0.2l-0.1-0.2l-0.1-0.2
		l-0.1-0.3l-0.2-0.5l-0.2-0.5l-0.1-0.6l-0.1-0.6l-0.1-0.6v-0.6v-0.6l0-0.6l0.1-0.6l0.1-0.7l0.1-0.7l0.2-0.7l0.4-1.5l0.5-1.5l0.6-1.7
		l0.7-1.8l0.8-1.9l0.8-2l0.9-2.2l0.9-2.3l0.9-2.4L77.2,182.8z"/>
	<path id="XMLID_14_" class="st0" d="M279,136.8V155h4.8v-14.4h7.6v-3.8H279L279,136.8z M303.8,140.4h0.3l0.3,0l0.3,0l0.3,0.1l0.3,0
		l0.2,0.1l0.2,0.1l0.2,0.1l0.2,0.1l0.2,0.1l0.2,0.2l0.2,0.2l0.1,0.2l0.1,0.2l0.1,0.2l0.1,0.2l0.1,0.2l0.1,0.2l0.1,0.2l0.1,0.2
		l0.1,0.2l0.1,0.3l0.1,0.2l0,0.3l0.1,0.3l0,0.3l0,0.3l0,0.3l0,0.3l0,0.3v0.3l0,0.3l0,0.2v0.3l0,0.3l0,0.2l0,0.2l0,0.2l-0.1,0.2
		l0,0.2l-0.1,0.3l-0.1,0.2l-0.1,0.2l-0.1,0.2l-0.1,0.2l-0.1,0.2l-0.1,0.2l-0.1,0.2l-0.1,0.2l-0.1,0.2l-0.2,0.2l-0.2,0.1l-0.2,0.1
		l-0.2,0.1l-0.2,0.1l-0.2,0.1l-0.2,0.1l-0.2,0.1l-0.2,0.1l-0.2,0l-0.2,0.1l-0.3,0.1h-0.3l-0.3,0l-0.3,0l-0.3,0l-0.3,0l-0.3-0.1
		l-0.2-0.1l-0.2-0.1l-0.2-0.1l-0.2-0.1l-0.2-0.2l-0.2-0.1l-0.2-0.2l-0.2-0.2l-0.1-0.2l-0.2-0.2l-0.1-0.2l-0.1-0.2l-0.1-0.2l-0.1-0.2
		l-0.1-0.2l-0.1-0.2l-0.1-0.2l-0.1-0.2l-0.1-0.2l0-0.2l-0.1-0.5l-0.1-0.5l0-0.4V146v-0.5l0.1-0.5l0.1-0.5l0.1-0.5l0.1-0.5l0.2-0.5
		l0.1-0.2l0.1-0.2l0.1-0.2l0.1-0.2l0.1-0.2l0.1-0.2l0.1-0.2l0.1-0.2l0.2-0.1l0.2-0.2l0.2-0.1l0.2-0.1l0.2-0.1l0.2-0.1l0.2-0.1
		l0.2-0.1l0.2-0.1l0.3,0l0.3,0H303.8L303.8,140.4z M299.7,136.8H295v25.7h4.8v-9.7l0.1,0l0.1,0.2l0.1,0.2l0.1,0.2l0.2,0.2l0.2,0.2
		l0.2,0.2l0.3,0.2l0.3,0.2l0.3,0.2l0.4,0.2l0.2,0.1l0.2,0.1l0.2,0.1l0.2,0.1l0.2,0.1l0.2,0.1l0.2,0.1l0.3,0l0.3,0l0.3,0l0.3,0l0.3,0
		l0.2,0h0.3l0.2,0l0.3,0l0.2,0l0.3,0l0.2-0.1l0.2,0l0.2,0l0.2-0.1l0.2-0.1l0.2-0.1l0.2-0.1l0.2-0.1l0.2-0.1l0.2-0.1l0.2-0.1l0.2-0.1
		l0.2-0.1l0.2-0.1l0.2-0.1l0.2-0.1l0.1-0.1l0.2-0.1l0.2-0.1l0.2-0.1l0.1-0.2l0.1-0.1l0.1-0.2l0.1-0.2l0.1-0.2l0.1-0.2l0.1-0.2
		l0.1-0.2l0.1-0.2l0.1-0.2l0.1-0.2l0.1-0.2l0.1-0.2l0.1-0.2l0.1-0.2l0.1-0.2l0.1-0.2l0.1-0.2l0.1-0.2l0.1-0.2l0.1-0.2l0-0.2l0-0.2
		l0.1-0.2l0-0.2l0.1-0.2l0-0.2l0-0.2l0-0.2l0-0.3l0-0.2l0-0.2l0-0.2l0-0.2l0-0.2v-0.2V146v-0.2v-0.3v-0.3l0-0.3l0-0.3l0-0.3l0-0.3
		l0-0.3l0-0.3l0-0.3l0-0.3l-0.1-0.2l-0.1-0.3l-0.1-0.2l-0.1-0.2l-0.1-0.2l-0.1-0.2l-0.1-0.2l-0.1-0.2l-0.1-0.2l-0.1-0.2l-0.1-0.2
		l-0.1-0.2l-0.1-0.2l-0.1-0.2l-0.1-0.2l-0.1-0.2l-0.1-0.2l-0.1-0.2l-0.1-0.2l-0.1-0.2l-0.1-0.2l-0.1-0.2l-0.3-0.3l-0.3-0.3l-0.3-0.3
		l-0.3-0.2l-0.3-0.2l-0.3-0.2l-0.3-0.2l-0.3-0.2l-0.4-0.1l-0.3-0.1l-0.4-0.1l-0.4-0.1l-0.4-0.1l-0.4,0l-0.4,0h-0.4h-0.3l-0.3,0
		l-0.3,0l-0.3,0l-0.3,0l-0.2,0.1l-0.2,0l-0.2,0.1l-0.2,0.1l-0.2,0.1l-0.2,0.1l-0.2,0.1l-0.4,0.2l-0.3,0.2l-0.3,0.2l-0.3,0.3
		l-0.3,0.3l-0.3,0.3l-0.2,0.3l-0.2,0.3l-0.2,0.3l-0.1,0.3h-0.1V136.8L299.7,136.8z M314.9,136.8l6.7,19.1l-0.1,0.2l0,0.2l0,0.2
		l-0.1,0.2l-0.1,0.3l-0.1,0.3l-0.1,0.3l-0.2,0.2l-0.2,0.2l-0.2,0.2l-0.2,0.1l-0.2,0.1l-0.2,0.1l-0.2,0.1l-0.3,0l-0.3,0h-0.3l-0.3,0
		l-0.3,0l-0.2,0l-0.2,0l-0.2,0v3.8l0.5,0l0.6,0l0.3,0l0.3,0h0.3l0.3,0l0.4,0l0.3,0l0.4,0l0.3,0l0.3,0l0.3-0.1l0.3-0.1l0.3-0.1
		l0.3-0.1l0.2-0.1l0.2-0.1l0.2-0.2l0.2-0.2l0.2-0.2l0.2-0.2l0.2-0.2l0.2-0.3l0.2-0.3l0.2-0.3l0.2-0.3l0.2-0.3l0.2-0.3l0.2-0.4
		l0.2-0.4l0.1-0.2l0.1-0.2l0.1-0.2l0.1-0.2l0.1-0.2l0.1-0.2l0.1-0.2l0.1-0.2l0.1-0.2l0.1-0.2l0.1-0.3l0.1-0.2l0.1-0.3l0.1-0.2
		l0.1-0.3l0.1-0.3l6.3-18H328l-3.7,13.5h-0.1l-3.9-13.5H314.9L314.9,136.8z M336,136.8V155h4.8v-14.4h6.8V155h4.8v-18.3H336
		L336,136.8z M356.7,136.8V155h4.7v-14.4h6.9V155h4.8v-18.3H356.7L356.7,136.8z M382.3,142.7v-0.2l0.1-0.2l0-0.2l0.1-0.2l0.1-0.2
		l0.1-0.2l0.1-0.2l0.1-0.2l0.2-0.2l0.2-0.2l0.2-0.2l0.3-0.1l0.3-0.1l0.3-0.1l0.2,0l0.2,0l0.2,0h0.2h0.2h0.2l0.3,0l0.3,0.1h0.3
		l0.3,0.1l0.3,0.1l0.2,0.1l0.2,0.1l0.2,0.1l0.2,0.2l0.2,0.2l0.1,0.3l0.1,0.3l0.1,0.3l0,0.4l-0.1,0.3l-0.1,0.3l-0.2,0.3l-0.3,0.2
		l-0.2,0.1l-0.2,0.1l-0.2,0.1l-0.3,0.1l-0.3,0.1l-0.3,0.1l-0.3,0l-0.4,0.1l-0.9,0.1l-0.8,0.1l-0.8,0.1l-0.8,0.2l-0.4,0.1l-0.4,0.1
		l-0.3,0.1l-0.4,0.1l-0.3,0.2l-0.3,0.1l-0.3,0.2l-0.3,0.2l-0.3,0.2l-0.2,0.2l-0.3,0.2l-0.2,0.3l-0.2,0.2l-0.2,0.2l-0.2,0.3l-0.2,0.3
		l-0.2,0.3l-0.1,0.3l-0.1,0.3l-0.1,0.3l-0.1,0.3l-0.1,0.4l0,0.4v0.4v0.3l0,0.3l0.1,0.3l0,0.3l0.1,0.3l0.1,0.3l0.1,0.3l0.1,0.2
		l0.1,0.3l0.1,0.2l0.1,0.2l0.2,0.2l0.2,0.2l0.2,0.2l0.2,0.2l0.2,0.2l0.2,0.1l0.2,0.2l0.2,0.1l0.2,0.1l0.2,0.1l0.2,0.1l0.2,0.1
		l0.2,0.1l0.2,0.1l0.3,0.1l0.2,0.1l0.2,0l0.3,0l0.2,0l0.3,0l0.3,0l0.3,0l0.3,0l0.3,0l0.3,0l0.3,0l0.3,0l0.2,0l0.2-0.1l0.2-0.1
		l0.2-0.1l0.2-0.1l0.2-0.1l0.2-0.1l0.2-0.1l0.2-0.1l0.2-0.1l0.3-0.2l0.3-0.2l0.3-0.2l0.3-0.2l0.3-0.2l0.2-0.2l0.2-0.2l0.2-0.2l0,0.3
		l0,0.3l0,0.3l0,0.2l0,0.2l0.1,0.2l0.1,0.2l0.1,0.3h5.2v-0.7l-0.2-0.1l-0.2-0.1l-0.2-0.2l-0.2-0.3l-0.1-0.1l-0.1-0.2l0-0.2l-0.1-0.2
		l0-0.3l0-0.3l0-0.4v-0.4v-9.9l0-0.2v-0.2l0-0.2l0-0.2l-0.1-0.4l-0.1-0.4l-0.1-0.3l-0.1-0.3l-0.1-0.3l-0.2-0.3l-0.2-0.3l-0.2-0.2
		l-0.2-0.2l-0.2-0.2l-0.2-0.2l-0.3-0.2l-0.3-0.2l-0.3-0.1l-0.3-0.1l-0.3-0.1l-0.3-0.1l-0.3-0.1l-0.3-0.1l-0.3-0.1l-0.3-0.1l-0.3,0
		l-0.6-0.1l-0.5-0.1l-0.3,0l-0.3,0h-0.3h-0.2h-0.7l-0.7,0l-0.3,0l-0.3,0l-0.4,0.1l-0.4,0l-0.3,0.1l-0.3,0.1l-0.3,0.1l-0.3,0.1
		l-0.3,0.1l-0.3,0.1l-0.3,0.2l-0.3,0.2l-0.3,0.2l-0.3,0.2l-0.3,0.2l-0.2,0.2l-0.3,0.3l-0.2,0.3l-0.2,0.3l-0.2,0.3l-0.2,0.3l-0.2,0.3
		l-0.2,0.4l-0.1,0.4l-0.1,0.4l-0.1,0.5l-0.1,0.5l0,0.5H382.3L382.3,142.7z M388.4,146.1v2.4l0,0.4l-0.1,0.4l-0.1,0.4L388,150
		l-0.2,0.3l-0.2,0.3l-0.3,0.3l-0.3,0.2l-0.3,0.2l-0.4,0.2l-0.3,0.2l-0.4,0.1l-0.4,0.1l-0.4,0.1l-0.4,0.1l-0.4,0l-0.4,0l-0.4-0.1
		l-0.2-0.1l-0.2-0.1l-0.2-0.1l-0.2-0.1l-0.2-0.2l-0.2-0.1l-0.1-0.2l-0.1-0.2l-0.1-0.2l-0.1-0.3l0-0.3v-0.3l0-0.4l0-0.3l0.1-0.3
		l0.1-0.3l0.1-0.2l0.2-0.2l0.2-0.2l0.2-0.2l0.2-0.2l0.2-0.1l0.3-0.1l0.3-0.1l0.3-0.1l0.3-0.1l0.4-0.1l0.3-0.1l0.3-0.1l0.3-0.1
		l0.3-0.1l0.3,0l0.2-0.1l0.2-0.1l0.2,0l0.2-0.1l0.4-0.1l0.3-0.1l0.2-0.1L388.4,146.1L388.4,146.1L388.4,146.1z M255.8,171.7H251V190
		h4.8v-5.8l2-2.1l4.4,7.8h5.7l-6.6-11.2l6.4-7.1h-5.9l-6.1,6.9V171.7L255.8,171.7z M278.8,171.2h-0.5l-0.5,0l-0.5,0l-0.4,0l-0.5,0.1
		l-0.4,0.1l-0.4,0.1l-0.4,0.1l-0.4,0.2l-0.4,0.2l-0.4,0.2l-0.4,0.2l-0.4,0.2L273,173l-0.3,0.3l-0.3,0.3l-0.3,0.3l-0.3,0.3l-0.3,0.4
		l-0.3,0.4l-0.3,0.4l-0.2,0.4l-0.2,0.4l-0.2,0.4l-0.2,0.5l-0.2,0.5l-0.1,0.5l-0.1,0.5l-0.1,0.5l-0.1,0.6l-0.1,0.6v0.6v0.3v0.3l0,0.3
		l0,0.3l0,0.3l0.1,0.3l0,0.3l0,0.3l0.1,0.3l0.1,0.2l0.1,0.3l0.1,0.3l0.1,0.2l0.1,0.2l0.1,0.2l0.1,0.2l0.1,0.2l0.1,0.2l0.1,0.2
		l0.1,0.2l0.1,0.2l0.1,0.2l0.1,0.2l0.1,0.2l0.1,0.2l0.1,0.2l0.1,0.2l0.1,0.2l0.1,0.2l0.1,0.2l0.2,0.2l0.2,0.1l0.1,0.2l0.2,0.1
		l0.2,0.1l0.2,0.2l0.2,0.1l0.2,0.1l0.2,0.1l0.2,0.1l0.2,0.1l0.2,0.1l0.2,0.1l0.2,0.1l0.2,0.1l0.2,0.1l0.2,0.1l0.2,0.1l0.2,0.1
		l0.2,0.1l0.2,0.1l0.2,0l0.2,0.1l0.2,0l0.2,0l0.2,0l0.2,0l0.2,0l0.2,0l0.2,0l0.2,0h0.2h0.2l0.2,0l0.2,0h0.2h0.2l0.2,0l0.2,0l0.2,0
		l0.2,0l0.2,0l0.2,0l0.2,0l0.2-0.1l0.2-0.1l0.2,0l0.2-0.1l0.2-0.1l0.2-0.1l0.2-0.1l0.2-0.1l0.2-0.1l0.2-0.1l0.2-0.1l0.2-0.1l0.2-0.1
		l0.2-0.1l0.2-0.1l0.2-0.1l0.2-0.1l0.2-0.1l0.2-0.1l0.2-0.1l0.2-0.1l0.2-0.1l0.2-0.2l0.2-0.2l0.2-0.2l0.1-0.2l0.2-0.2l0.1-0.2
		l0.1-0.2l0.1-0.2l0.1-0.2l0.1-0.2l0.1-0.2l0.1-0.2l0.1-0.2l0.1-0.2l0.1-0.2l0.1-0.2l0.1-0.2l0.1-0.2l0.1-0.2l0.1-0.2l0.1-0.2
		l0.1-0.3l0.1-0.3l0-0.3l0-0.3l0-0.3l0-0.3l0-0.3l0-0.3l0-0.3v-0.3l0-0.3l0-0.3v-0.3l0-0.3l0-0.3l0-0.3l0-0.3l0-0.3l0-0.3l0-0.3
		l-0.1-0.3l-0.1-0.3l-0.1-0.3l-0.1-0.2l-0.1-0.2l-0.1-0.2l-0.1-0.2l-0.1-0.2l-0.1-0.2l-0.1-0.2l-0.1-0.2l-0.1-0.2l-0.1-0.2l-0.1-0.2
		l-0.1-0.2l-0.1-0.2l-0.1-0.2l-0.1-0.2l-0.2-0.1l-0.1-0.2l-0.2-0.2l-0.2-0.2l-0.2-0.1l-0.2-0.2l-0.2-0.1l-0.2-0.1l-0.2-0.1l-0.2-0.1
		l-0.2-0.1l-0.2-0.1l-0.2-0.1l-0.2-0.1l-0.2-0.1l-0.2-0.1l-0.2-0.1l-0.2-0.1l-0.2-0.1l-0.2-0.1l-0.2,0l-0.2-0.1l-0.2,0l-0.2-0.1
		l-0.2-0.1l-0.2,0l-0.2,0l-0.2,0l-0.2-0.1l-0.2,0l-0.2,0l-0.2,0h-0.2l-0.2,0l-0.2,0H279H278.8L278.8,171.2z M278.8,175.3h0.4l0.3,0
		l0.3,0l0.3,0.1l0.3,0.1l0.3,0.1l0.2,0.1l0.2,0.1l0.2,0.1l0.2,0.1l0.2,0.2l0.2,0.2l0.2,0.2l0.2,0.2l0.1,0.2l0.1,0.2l0.1,0.2l0.1,0.2
		l0.1,0.2l0.1,0.2l0.1,0.2l0.1,0.2l0,0.3l0.1,0.2l0.1,0.2l0,0.2l0,0.2l0,0.2l0,0.2l0,0.2v0.2l0,0.2l0,0.2v0.2l0,0.2l0,0.2l0,0.2
		l0,0.2l0,0.2l-0.1,0.2L283,183l0,0.2l-0.1,0.2l-0.1,0.3l-0.1,0.2l-0.1,0.2l-0.1,0.2l-0.1,0.2l-0.1,0.2l-0.1,0.2l-0.2,0.2l-0.2,0.2
		l-0.2,0.2l-0.2,0.2l-0.2,0.1l-0.2,0.2l-0.2,0.1l-0.2,0.1l-0.3,0.1l-0.3,0.1l-0.3,0.1l-0.3,0l-0.3,0l-0.4,0l-0.4,0l-0.3,0l-0.3,0
		l-0.3-0.1l-0.3-0.1l-0.2-0.1l-0.2-0.1l-0.3-0.1l-0.2-0.1l-0.2-0.1l-0.2-0.2l-0.2-0.2l-0.2-0.2l-0.2-0.2l-0.1-0.2l-0.1-0.2l-0.1-0.2
		l-0.1-0.2l-0.1-0.2l-0.1-0.2l-0.1-0.2l-0.1-0.3l-0.1-0.2l0-0.2l-0.1-0.5l0-0.5l0-0.5v-0.5v-0.2v-0.2l0-0.2l0-0.2l0-0.2l0-0.3l0-0.2
		l0-0.2l0-0.2l0.1-0.2l0.1-0.2l0.1-0.2l0.1-0.2l0.1-0.2l0.1-0.2l0.1-0.2l0.1-0.2l0.1-0.2l0.2-0.2l0.2-0.2l0.2-0.2l0.2-0.2l0.2-0.2
		l0.2-0.1l0.3-0.1l0.2-0.1l0.2-0.1l0.3-0.1l0.3-0.1l0.3,0l0.3,0H278.8L278.8,175.3z M298.6,171.7h-6.6V190h4.6v-11.2l0-0.4l0-0.4
		v-0.4l0-0.3l0-0.5l0-0.2h0.1l4.3,13.3h3.5l4.3-13.3h0.1l0,0.2l0,0.5l0,0.3l0,0.4l0,0.4v0.4V190h4.6v-18.3h-6.7l-3.9,12.5h-0.2
		L298.6,171.7L298.6,171.7z M318.5,171.7V190h4.8v-14.4h6.8V190h4.8v-18.3H318.5L318.5,171.7z M344.5,177.6l0-0.2l0.1-0.2l0-0.2
		l0.1-0.2l0.1-0.2l0.1-0.2l0.1-0.2l0.1-0.2l0.2-0.2l0.2-0.2l0.2-0.2l0.3-0.1l0.3-0.1l0.4-0.1l0.2,0l0.2,0l0.2,0h0.2h0.2h0.3l0.3,0
		l0.3,0l0.3,0l0.3,0l0.3,0.1l0.2,0.1l0.2,0.1l0.2,0.2l0.2,0.2l0.1,0.2l0.2,0.3l0.1,0.2l0.1,0.3l0,0.4l0,0.3l-0.1,0.3l-0.2,0.3
		l-0.3,0.2l-0.2,0.1l-0.2,0.1l-0.2,0.1l-0.2,0.1l-0.3,0.1l-0.3,0.1l-0.4,0l-0.3,0l-0.9,0.1l-0.8,0.1l-0.8,0.1l-0.8,0.2l-0.4,0.1
		l-0.4,0.1l-0.3,0.1l-0.4,0.1l-0.3,0.2l-0.3,0.2l-0.3,0.2l-0.3,0.2l-0.3,0.2l-0.3,0.2l-0.3,0.2l-0.2,0.3l-0.2,0.2l-0.2,0.3l-0.2,0.3
		l-0.2,0.3l-0.1,0.3l-0.1,0.3l-0.1,0.3l-0.1,0.3l-0.1,0.3l-0.1,0.4l0,0.4v0.4v0.3l0,0.3l0,0.3l0.1,0.3l0.1,0.3l0.1,0.3l0.1,0.3
		l0.1,0.3l0.1,0.2l0.1,0.2l0.1,0.2l0.2,0.2l0.2,0.2l0.2,0.2l0.2,0.2l0.2,0.2l0.2,0.1l0.2,0.1l0.2,0.1l0.2,0.1l0.2,0.1l0.2,0.1
		l0.2,0.1l0.2,0.1l0.3,0.1l0.2,0l0.3,0.1l0.2,0l0.3,0l0.2,0h0.3l0.3,0l0.3,0h0.3l0.3,0l0.3,0l0.2,0l0.3,0l0.2,0l0.3,0l0.2-0.1
		l0.2-0.1l0.2-0.1l0.2-0.1l0.2-0.1l0.2-0.1l0.2-0.1l0.2-0.1l0.3-0.2l0.3-0.2l0.3-0.2l0.3-0.2l0.3-0.2l0.2-0.2l0.2-0.2l0.2-0.2l0,0.3
		l0,0.3l0.1,0.2l0,0.2l0,0.2l0.1,0.2l0.1,0.3l0.1,0.3h5.2v-0.7l-0.2-0.1L356,189l-0.2-0.2l-0.1-0.3l-0.1-0.2l-0.1-0.2l0-0.2l0-0.3
		l0-0.3l0-0.3l0-0.4v-0.4v-9.9l0-0.2v-0.2l0-0.2l0-0.2l-0.1-0.4l-0.1-0.4l-0.1-0.3l-0.2-0.3l-0.1-0.3l-0.2-0.3l-0.2-0.2l-0.2-0.2
		l-0.2-0.2l-0.2-0.2l-0.2-0.2l-0.3-0.2l-0.2-0.2l-0.3-0.1l-0.3-0.1l-0.3-0.1l-0.3-0.1l-0.3-0.1l-0.3-0.1l-0.3-0.1l-0.3-0.1l-0.3,0
		l-0.6-0.1l-0.6-0.1l-0.3,0l-0.3,0h-0.3h-0.2h-0.7l-0.7,0l-0.3,0l-0.4,0l-0.3,0l-0.3,0.1l-0.3,0.1l-0.3,0.1l-0.3,0.1l-0.3,0.1
		l-0.3,0.1l-0.3,0.2l-0.3,0.2l-0.3,0.1l-0.3,0.2l-0.3,0.2l-0.3,0.2l-0.3,0.2l-0.2,0.3l-0.2,0.3l-0.2,0.3l-0.2,0.3l-0.2,0.3l-0.2,0.4
		l-0.1,0.4l-0.1,0.4l-0.1,0.4l-0.1,0.5l-0.1,0.5l0,0.5H344.5L344.5,177.6z M350.7,181.1v2.4l0,0.4l-0.1,0.4l-0.1,0.4l-0.2,0.3
		l-0.2,0.3l-0.2,0.3l-0.3,0.3l-0.3,0.3l-0.3,0.2l-0.3,0.2l-0.3,0.2l-0.4,0.1l-0.4,0.1l-0.4,0.1l-0.4,0.1l-0.4,0l-0.4,0l-0.4-0.1
		l-0.2-0.1l-0.2-0.1l-0.2-0.1l-0.2-0.1l-0.1-0.2l-0.2-0.2l-0.1-0.2l-0.1-0.2l-0.1-0.2l-0.1-0.2l0-0.3v-0.3l0-0.4l0.1-0.3l0.1-0.3
		l0.1-0.3l0.1-0.2l0.2-0.2l0.2-0.2l0.2-0.2l0.2-0.1l0.2-0.1l0.3-0.1l0.3-0.1l0.3-0.1l0.3-0.1l0.3-0.1l0.3-0.1l0.4-0.1l0.3,0l0.3-0.1
		l0.3,0l0.3-0.1l0.2-0.1l0.2,0l0.2-0.1l0.3-0.1l0.3-0.1l0.3-0.1L350.7,181.1L350.7,181.1L350.7,181.1z M365.9,171.7h-4.8V190h4.8
		v-7.6h6.8v7.6h4.8v-18.3h-4.8v6.8h-6.8V171.7L365.9,171.7z M387.8,171.7H383V190h5.1l6.9-11.6V190h4.8v-18.3h-5.1l-6.9,11.6V171.7
		L387.8,171.7z M410.1,171.7h-4.8V190h5.1l6.9-11.6V190h4.8v-18.3h-5.1l-7,11.6V171.7L410.1,171.7z M418,164.2l-0.1,0.4l-0.1,0.4
		l-0.1,0.3l-0.2,0.2l-0.2,0.3l-0.2,0.2l-0.2,0.2l-0.2,0.2l-0.3,0.1l-0.3,0.1l-0.3,0.1l-0.3,0.1l-0.3,0l-0.3,0h-0.3l-0.3,0l-0.3,0
		l-0.3,0l-0.2,0l-0.2,0l-0.4-0.1l-0.4-0.1l-0.3-0.1l-0.3-0.2l-0.2-0.2l-0.2-0.2l-0.2-0.2l-0.1-0.2l-0.1-0.2l-0.1-0.2l-0.1-0.4l0-0.4
		h-2.3v0.3l0.1,0.3l0.1,0.4l0.1,0.4l0.1,0.2l0.1,0.2l0.1,0.2l0.1,0.2l0.1,0.2l0.1,0.2l0.1,0.2l0.1,0.2l0.1,0.2l0.2,0.2l0.2,0.2
		l0.2,0.2l0.2,0.2l0.2,0.2l0.2,0.2l0.3,0.1l0.3,0.1l0.3,0.1l0.3,0.1l0.3,0.1l0.4,0.1l0.4,0l0.2,0l0.2,0h0.2l0.2,0l0.2,0h0.2l0.2,0
		l0.2,0l0.2,0l0.2,0l0.2,0l0.2,0l0.4-0.1l0.4-0.1l0.3-0.1l0.3-0.1l0.3-0.1l0.3-0.2l0.3-0.2l0.2-0.1l0.2-0.2l0.2-0.2l0.2-0.2l0.2-0.2
		l0.1-0.2l0.1-0.2l0.1-0.2l0.1-0.2l0.1-0.2l0.1-0.2l0.1-0.2l0.1-0.2l0.1-0.2l0.1-0.2l0-0.2l0.1-0.2l0-0.3l0.1-0.3H418z"/>
</g>
</svg>
