<svg width="400" height="200" fill="none" xmlns="http://www.w3.org/2000/svg"><path fill-rule="evenodd" clip-rule="evenodd" d="M375.323 100.465c-3.116 2.033-7.677 3.05-13.683 3.05h-3.129v12.351c0 1.869.397 3.187 1.189 3.957.794.768 2.16 1.154 4.097 1.154h.596v1.819h-21.979v.003h-22.161v-1.816h.593c1.917 0 3.267-.387 4.058-1.157.792-.768 1.186-2.091 1.186-3.957V93.501l-15.075 20.025v2.343c0 1.868.394 3.187 1.186 3.957.791.768 2.155 1.157 4.09 1.157h.593v1.816H293.69v.002h-21.552v-1.816h.577c1.863 0 3.176-.386 3.946-1.156.768-.768 1.155-2.092 1.155-3.958v-29.08h-.019l-15.459 36.01h-1.641l-15.475-38.168h-.002v29.698c0 2.3.384 3.949 1.151 4.944.768.996 2.097 1.565 3.976 1.71h.577v1.816h-13.96v-1.816h.577c1.86-.145 3.176-.714 3.944-1.71.767-.995 1.154-2.647 1.154-4.944V85.928c0-1.54-.384-2.66-1.154-3.36-.768-.696-2.094-1.127-3.976-1.291h-.577v-1.819h16.269l12.142 29.944 12.899-29.944h15.416v1.819h-.574c-1.864.164-3.179.63-3.947 1.403-.77.767-1.154 2.006-1.154 3.708v29.483c0 1.869.384 3.187 1.154 3.958.768.77 2.094 1.156 3.976 1.156h.058v-.005h2.144c1.914 0 3.267-.384 4.058-1.154.792-.768 1.186-2.091 1.186-3.957V86.386c0-1.87-.394-3.188-1.186-3.958-.791-.77-2.152-1.156-4.089-1.156h-.593v-1.816h22.161v1.816h-.593c-1.914 0-3.267.386-4.058 1.156-.792.768-1.186 2.091-1.186 3.958v22.367l15.075-20.025v-2.342c0-1.87-.394-3.188-1.186-3.958-.791-.77-2.152-1.156-4.087-1.156h-.593v-1.816h22.159v.002h19.257c6.006 0 10.567 1.022 13.683 3.066 3.118 2.043 4.677 5.034 4.677 8.978 0 3.945-1.559 6.93-4.677 8.963zm-27.289-14.077c0-1.866-.397-3.187-1.188-3.957-.795-.768-2.158-1.154-4.098-1.154h-.596v-.005h-.362c-1.914 0-3.267.386-4.058 1.156-.789.768-1.186 2.091-1.186 3.958v29.483c0 1.868.397 3.187 1.186 3.957.791.768 2.154 1.157 4.089 1.157h.363v-.006h.596c1.916 0 3.271-.389 4.066-1.17.791-.759 1.188-2.072 1.188-3.944V86.388zm19.125-1.97c-1.218-1.56-3.06-2.342-5.519-2.342-1.252 0-2.086.207-2.501.617-.419.41-.628 1.234-.628 2.462v15.742h3.129c2.629 0 4.508-.728 5.646-2.187 1.136-1.458 1.705-3.862 1.705-7.208 0-3.163-.612-5.524-1.832-7.083zM187.299 146c-25.263 0-45.743-20.147-45.743-45s20.48-45 45.743-45c25.264 0 45.747 20.147 45.747 45s-20.483 45-45.747 45zm23.072-20.329a38.432 38.432 0 00-20.091-6.658v15.385a34.216 34.216 0 0020.091-8.725v-.002zm-23.461 8.851v-15.509a38.427 38.427 0 00-21.314 7.531l-.095.225a34.271 34.271 0 0021.409 7.753zm-24.043-10.154l8.346-19.67h-17.788a33.193 33.193 0 009.442 19.67zM153.219 101l.005.384h19.395l6.763-15.943a30.248 30.248 0 01-14.395-9.781c-7.208 6.149-11.768 15.22-11.768 25.34zm33.691-33.522c-7.173.08-13.815 2.34-19.27 6.138a26.874 26.874 0 0013.044 8.751l6.226-14.68v-.21zm0 8.814l-2.906 6.856c.953.164 1.922.276 2.906.336V76.29v.002zm0 10.512a30.72 30.72 0 01-4.235-.527l-6.406 15.107h10.641v-14.58zm-12.046 17.894l-6.946 16.367a41.872 41.872 0 0118.99-5.374v-10.996h-12.047l.003.003zm15.723-37.067l-.307.718v15.133a26.915 26.915 0 0018.262-8.698 34.235 34.235 0 00-17.958-7.153h.003zM221.378 101c0-9.424-3.952-17.934-10.313-24.022a30.3 30.3 0 01-20.788 9.826v14.58h31.098l.005-.384h-.002zm-31.101 3.698v10.998a41.823 41.823 0 0122.487 7.582 33.143 33.143 0 008.407-18.583h-30.886l-.008.003zm-58.124-19.853c-1.977-1.792-4.759-2.69-8.343-2.69h-.469v33.724c0 1.866.397 3.182 1.189 3.95.791.767 2.154 1.154 4.092 1.154h.596v1.813h-21.939v-1.813h.564c1.853 0 3.155-.389 3.904-1.17.752-.757 1.125-2.068 1.125-3.934V82.156h-.249c-3.584 0-6.363.897-8.343 2.689-1.98 1.795-3.169 4.495-3.563 8.1h-2.091V79.543h38.964v13.402h-1.874c-.397-3.605-1.583-6.305-3.563-8.1zm-38.845 17.1c3.308 2.115 4.963 5.061 4.963 8.841 0 3.778-1.604 6.724-4.813 8.841-3.208 2.115-7.663 3.172-13.367 3.172H42.479v-1.777h.64c1.893 0 3.132-.415 3.722-1.246.59-.832.53-2.078-.183-3.741l-2.316-5.556H30.416l-2.181 5.559c-.633 1.562-.633 2.716 0 3.468.63.751 2.033 1.254 4.209 1.516h.672v1.777H20v-1.777h.275c.977-.079 1.819-.503 2.534-1.265.709-.741 1.432-1.988 2.165-3.735L40.2 79.452h1.649l15.895 36.567c.794 1.827 1.562 3.116 2.303 3.87.535.54 1.144.885 1.827 1.038 1.3-.127 2.258-.5 2.87-1.12.77-.759 1.156-2.072 1.156-3.944V86.388c0-1.866-.387-3.187-1.157-3.957-.773-.77-2.101-1.154-3.989-1.154h-.58v-1.824h18.76c5.461 0 9.725.918 12.79 2.755 3.066 1.84 4.601 4.403 4.601 7.688 0 3.266-1.535 5.823-4.6 7.67a16.58 16.58 0 01-4.752 1.88c2.457.514 4.57 1.345 6.337 2.494l-.002.005zm-56.155-8.547h-.021l-5.604 14.249H43.18L37.153 93.4v-.002zm46.837-9.26c-.934-1.212-2.335-1.903-4.203-2.065-1.483-.124-2.468.061-2.955.554-.487.492-.73 1.535-.73 3.118v12.867h.945c2.922 0 5.082-.64 6.472-1.927 1.39-1.286 2.086-3.287 2.086-6.003 0-2.965-.54-5.144-1.615-6.544zm1.05 19.358c-1.675-1.612-4.28-2.417-7.81-2.417h-1.128v15.372c0 1.498.23 2.493.685 2.986.458.495 1.377.741 2.756.741h.548c2.56 0 4.442-.741 5.649-2.218 1.21-1.48 1.813-3.788 1.813-6.933 0-3.407-.837-5.919-2.515-7.531h.003z" fill="#2A7D9E"/></svg>