<svg width="24" height="24" viewBox="0 0 24 24" fill="none" xmlns="http://www.w3.org/2000/svg">
<circle cx="12.0001" cy="12" r="8.5" stroke="#66636C" stroke-linecap="round" stroke-linejoin="round"/>
<path d="M17.0001 5L13.3815 5.796C13.2231 5.83086 13.0695 5.88487 12.9241 5.95684L11.7061 6.55967C10.7709 7.02253 10.6238 8.29562 11.4287 8.95961V8.95961C11.8311 9.29161 11.7576 9.92816 11.29 10.1596L9.93539 10.83C8.8914 11.3467 8.50814 12.6428 9.10321 13.6442L11.0243 16.8771C11.4834 17.6496 12.6491 17.4717 12.8569 16.5975L13.8174 12.5566C13.9245 12.106 14.3271 11.7879 14.7903 11.7879H15.909C16.0629 11.7879 16.2147 11.8234 16.3526 11.8916L16.9683 12.1964C17.4604 12.4399 18.0569 12.2411 18.3045 11.751L20.0001 8.39394" stroke="#66636C"/>
</svg>
