<svg xmlns="http://www.w3.org/2000/svg" width="50" height="50" viewBox="0 0 50 50">
  <g fill="none" fill-rule="evenodd">
    <polygon fill="#FFF" points="0 50 50 50 50 0 0 0"/>
    <polygon fill="#CECECE" points="16.711 22.675 33.575 22.675 33.575 46 25.011 40.321"/>
    <polygon fill="#CECECE" points="16.711 22.675 16.711 46 25.011 40.321 25.011 22.675"/>
    <g transform="translate(10 4)">
      <path fill="#FFF" d="M18.042,27.9443 C17.662,27.9443 17.292,27.8353 16.971,27.6293 L15.264,26.5353 C15.185,26.4843 15.094,26.4583 15,26.4583 C14.906,26.4583 14.815,26.4843 14.736,26.5353 L13.028,27.6303 C12.708,27.8353 12.338,27.9443 11.958,27.9443 C11.211,27.9443 10.533,27.5323 10.19,26.8693 L9.26,25.0663 C9.176,24.9043 9.009,24.8033 8.826,24.8033 C8.826,24.8033 6.771,24.8983 6.769,24.8983 C6.14,24.8983 5.618,24.6743 5.246,24.2853 C4.868,23.8873 4.674,23.3673 4.699,22.8193 L4.793,20.7943 C4.802,20.6043 4.698,20.4243 4.53,20.3393 L2.728,19.4063 C2.231,19.1493 1.864,18.6933 1.721,18.1543 C1.576,17.6153 1.666,17.0373 1.968,16.5673 L3.063,14.8603 C3.164,14.7013 3.164,14.4933 3.062,14.3333 L1.968,12.6273 C1.666,12.1563 1.576,11.5783 1.721,11.0393 C1.865,10.5003 2.232,10.0443 2.728,9.7883 L4.529,8.8563 C4.698,8.7693 4.802,8.5903 4.793,8.4003 L4.699,6.3733 C4.674,5.8263 4.867,5.3063 5.246,4.9103 C5.62,4.5183 6.145,4.2943 6.685,4.2943 L8.805,4.3903 C9.01,4.3903 9.176,4.2893 9.26,4.1273 L10.19,2.3263 C10.533,1.6623 11.211,1.2503 11.958,1.2503 C12.338,1.2503 12.708,1.3593 13.029,1.5653 L14.736,2.6593 C14.815,2.7103 14.906,2.7363 15,2.7363 C15.094,2.7363 15.185,2.7103 15.264,2.6593 L16.972,1.5643 C17.292,1.3593 17.662,1.2503 18.042,1.2503 C18.789,1.2503 19.467,1.6623 19.81,2.3253 L20.74,4.1283 C20.824,4.2903 20.991,4.3903 21.174,4.3903 C21.174,4.3903 23.229,4.2963 23.231,4.2963 C23.861,4.2963 24.382,4.5203 24.754,4.9103 C25.133,5.3063 25.326,5.8263 25.301,6.3743 L25.207,8.3993 C25.198,8.5903 25.302,8.7693 25.47,8.8553 L27.272,9.7883 C27.768,10.0443 28.135,10.5003 28.279,11.0393 C28.424,11.5783 28.334,12.1563 28.033,12.6263 L26.938,14.3343 C26.836,14.4933 26.836,14.7013 26.938,14.8613 L28.032,16.5673 C28.334,17.0373 28.424,17.6153 28.279,18.1543 C28.136,18.6933 27.769,19.1493 27.272,19.4063 L25.471,20.3383 C25.302,20.4243 25.198,20.6043 25.207,20.7943 L25.301,22.8193 C25.326,23.3673 25.132,23.8873 24.754,24.2843 C24.38,24.6753 23.855,24.9003 23.315,24.9003 L21.195,24.8033 C20.99,24.8033 20.824,24.9053 20.74,25.0673 L19.81,26.8683 C19.467,27.5323 18.789,27.9443 18.042,27.9443"/>
      <path fill="#E1E1E1" d="M18.042,0.5 C17.519,0.5 17.008,0.649 16.566,0.934 L15,1.937 L13.434,0.934 C12.992,0.649 12.481,0.5 11.958,0.5 C10.929,0.5 9.996,1.067 9.524,1.98 L8.67,3.634 L6.812,3.547 C6.77,3.545 6.727,3.544 6.684,3.544 C5.939,3.544 5.218,3.853 4.704,4.392 C4.189,4.93 3.915,5.665 3.949,6.409 L4.036,8.268 L2.384,9.121 C1.701,9.475 1.195,10.103 0.996,10.845 C0.798,11.587 0.921,12.384 1.336,13.031 L2.34,14.597 L1.336,16.163 C0.921,16.811 0.798,17.607 0.996,18.35 C1.195,19.092 1.701,19.72 2.384,20.073 L4.036,20.927 L3.949,22.785 C3.915,23.529 4.189,24.265 4.704,24.803 C5.218,25.342 5.939,25.65 6.684,25.65 C6.726,25.65 6.769,25.649 6.812,25.647 L8.67,25.561 L9.524,27.214 C9.996,28.127 10.929,28.694 11.958,28.694 C12.481,28.694 12.992,28.545 13.434,28.261 L15,27.257 L16.566,28.261 C17.008,28.545 17.519,28.694 18.042,28.694 C19.071,28.694 20.004,28.127 20.476,27.214 L21.33,25.561 L23.188,25.647 C23.23,25.649 23.273,25.65 23.316,25.65 C24.061,25.65 24.782,25.342 25.296,24.803 C25.811,24.265 26.085,23.529 26.051,22.785 L25.964,20.927 L27.616,20.073 C28.299,19.72 28.805,19.092 29.004,18.35 C29.202,17.607 29.079,16.811 28.664,16.163 L27.66,14.597 L28.664,13.031 C29.079,12.384 29.202,11.587 29.004,10.845 C28.805,10.103 28.299,9.475 27.616,9.121 L25.964,8.268 L26.051,6.409 C26.085,5.665 25.811,4.93 25.296,4.392 C24.782,3.853 24.061,3.544 23.316,3.544 C23.274,3.544 23.231,3.545 23.188,3.547 L21.33,3.633 L20.476,1.98 C20.004,1.067 19.071,0.5 18.042,0.5 M18.042,2 C18.488,2 18.922,2.241 19.144,2.67 L20.074,4.472 C20.288,4.884 20.713,5.141 21.174,5.141 C21.193,5.141 21.213,5.141 21.231,5.14 L23.258,5.045 C23.277,5.044 23.297,5.044 23.316,5.044 C24.018,5.044 24.585,5.631 24.552,6.339 L24.458,8.365 C24.436,8.849 24.696,9.301 25.126,9.522 L26.928,10.454 C27.575,10.789 27.795,11.607 27.401,12.222 L26.307,13.929 C26.046,14.336 26.046,14.858 26.307,15.266 L27.401,16.973 C27.795,17.586 27.575,18.405 26.928,18.74 L25.126,19.672 C24.696,19.894 24.436,20.346 24.458,20.829 L24.552,22.854 C24.585,23.563 24.018,24.15 23.316,24.15 C23.297,24.15 23.277,24.15 23.258,24.149 L21.231,24.055 C21.213,24.054 21.193,24.054 21.174,24.054 C20.713,24.054 20.288,24.311 20.074,24.723 L19.144,26.524 C18.922,26.953 18.488,27.194 18.042,27.194 C17.814,27.194 17.583,27.131 17.375,26.998 L15.668,25.903 C15.465,25.773 15.232,25.708 15,25.708 C14.768,25.708 14.535,25.773 14.332,25.903 L12.625,26.998 C12.417,27.131 12.186,27.194 11.958,27.194 C11.512,27.194 11.078,26.953 10.856,26.524 L9.926,24.723 C9.712,24.311 9.287,24.054 8.826,24.054 C8.807,24.054 8.787,24.054 8.769,24.055 L6.742,24.149 C6.723,24.15 6.703,24.15 6.684,24.15 C5.982,24.15 5.415,23.563 5.448,22.854 L5.542,20.829 C5.564,20.346 5.304,19.894 4.874,19.672 L3.072,18.74 C2.425,18.405 2.205,17.586 2.599,16.973 L3.693,15.266 C3.954,14.858 3.954,14.336 3.693,13.929 L2.599,12.222 C2.205,11.607 2.425,10.789 3.072,10.454 L4.874,9.522 C5.304,9.301 5.564,8.849 5.542,8.365 L5.448,6.339 C5.415,5.631 5.982,5.044 6.684,5.044 C6.703,5.044 6.723,5.044 6.742,5.045 L8.769,5.14 C8.787,5.141 8.807,5.141 8.826,5.141 C9.287,5.141 9.712,4.884 9.926,4.472 L10.856,2.67 C11.078,2.241 11.512,2 11.958,2 C12.186,2 12.417,2.062 12.625,2.196 L14.332,3.291 C14.535,3.421 14.768,3.486 15,3.486 C15.232,3.486 15.465,3.421 15.668,3.291 L17.375,2.196 C17.583,2.062 17.814,2 18.042,2"/>
      <polyline stroke="#FF2929" stroke-linecap="round" stroke-linejoin="round" stroke-width="1.5" points="7.327 15.694 11.813 20.445 22.673 10.045"/>
    </g>
  </g>
</svg>
