<svg xmlns="http://www.w3.org/2000/svg" width="50" height="50" viewBox="0 0 50 50">
  <g fill="none" fill-rule="evenodd">
    <polygon fill="#FFF" points="0 50 50 50 50 0 0 0"/>
    <g transform="translate(9 7)">
      <path fill="#CECECE" d="M27.6836 0C26.7986 1.21 26.2566 7.09 26.0146 11.362 25.0916 27.592 19.3116 33.704 16.9786 35.53L17.1946 35.404C22.5506 32.291 26.8076 27.453 29.0546 21.577 30.7646 17.104 31.9956 11.358 31.9996 4.247 32.0006 2.497 29.2206.762 27.6836 0M5.9854 11.2686C5.7354 6.8646 6.8024 2.8586 4.2394-.0004 2.6954.7606-.0006 2.5066.0004 4.2626.0054 10.7896.9914 16.0976 2.4244 20.3256 4.5894 26.7086 9.0024 32.0316 14.7374 35.3656L15.7464 35.9516C14.2984 35.0496 7.0294 29.6386 5.9854 11.2686"/>
      <path fill="#FFF" d="M27.8682,12.3516 C28.1562,8.3666 27.9362,3.2036 27.7712,0.3546 C27.7392,0.3536 27.7072,0.3456 27.6752,0.3456 C27.6752,0.3456 24.0642,1.5506 16.0062,1.5506 C8.2052,1.5506 4.3372,0.3456 4.3372,0.3456 C4.2092,0.3456 4.0832,0.3646 3.9572,0.3786 C3.9002,3.0286 3.8472,8.1556 4.1432,12.2646 C5.3802,29.4016 13.9902,34.4496 15.7052,35.2886 L16.0062,35.4266 L17.1652,34.8966 C19.9292,33.1936 26.7762,27.4916 27.8682,12.3516"/>
      <path stroke="#E1E1E1" stroke-linecap="round" stroke-linejoin="round" stroke-width="1.5" d="M27.8682,12.3516 C28.1562,8.3666 27.9362,3.2036 27.7712,0.3546 C27.7392,0.3536 27.7072,0.3456 27.6752,0.3456 C27.6752,0.3456 24.0642,1.5506 16.0062,1.5506 C8.2052,1.5506 4.3372,0.3456 4.3372,0.3456 C4.2092,0.3456 4.0832,0.3646 3.9572,0.3786 C3.9002,3.0286 3.8472,8.1556 4.1432,12.2646 C5.3802,29.4016 13.9902,34.4496 15.7052,35.2886 L16.0062,35.4266 L17.1652,34.8966 C19.9292,33.1936 26.7762,27.4916 27.8682,12.3516 Z"/>
      <path fill="#FF2929" d="M8.0127,7.9551 C8.2587,9.2121 10.1087,13.8841 10.1087,13.8841 C10.6697,14.8041 10.8837,13.7771 10.8837,13.7771 C11.6687,9.6221 8.5247,7.7091 8.5247,7.7091 C7.7477,7.4051 8.0127,7.9551 8.0127,7.9551 M24.1987,5.0271 C24.1987,5.0271 25.7077,5.7581 24.3607,6.1191 C24.3607,6.1191 19.3147,7.3981 16.0067,11.3731 C16.0067,11.3731 10.9937,16.9871 9.6287,22.5701 C9.6287,22.5701 8.9137,22.6691 8.9987,21.6011 C9.0837,20.5341 9.8437,15.7971 15.4017,9.3441 C15.4017,9.3441 20.7467,3.0971 24.1987,5.0271"/>
    </g>
  </g>
</svg>
