<svg xmlns="http://www.w3.org/2000/svg" width="50" height="50" viewBox="0 0 50 50">
  <g fill="none" fill-rule="evenodd">
    <polygon fill="#FFF" points="0 50 50 50 50 0 0 0"/>
    <g transform="translate(6 11)">
      <path stroke="#E1E1E1" stroke-linejoin="round" stroke-width="1.5" d="M38 3.1328C38.001 1.8478 37.024.7918 35.779.6398L22.617 13.5498 37.989 24.8858 38 3.1328zM2.6016.5937L2.5346.5937C1.1466.5927.0106 1.7277.0106 3.1147L-.0004 24.8667 15.7186 13.4847 2.6016.5937z"/>
      <path stroke="#E1E1E1" stroke-linejoin="round" stroke-width="1.5" d="M37.9893,24.8857 L22.6173,13.5497 L21.0433,15.0937 C20.0183,16.0987 18.3793,16.0977 17.3553,15.0917 L15.7183,13.4847 L0.0003,24.8667 C-0.0007,26.2547 1.1343,27.3907 2.5203,27.3907 L35.4663,27.4067 C36.8533,27.4067 37.9893,26.2727 37.9893,24.8857 Z"/>
      <path stroke="#E1E1E1" stroke-linejoin="round" stroke-width="1.5" d="M35.4795,0.6094 L2.6015,0.5934 L15.7185,13.4844 L17.3555,15.0914 C18.3785,16.0974 20.0185,16.0984 21.0425,15.0934 L22.6175,13.5494 L35.7795,0.6394 C35.6795,0.6284 35.5825,0.6094 35.4795,0.6094 Z"/>
      <path fill="#CECECE" d="M33.2666,12.4873 L19.4186,12.4803 C18.5366,12.4803 17.8136,11.7573 17.8146,10.8743 L17.8176,4.2623 C17.8176,3.3793 18.5406,2.6573 19.4236,2.6573 L33.2716,2.6643 C34.1556,2.6643 34.8766,3.3873 34.8766,4.2703 L34.8726,10.8823 C34.8726,11.7643 34.1506,12.4873 33.2666,12.4873"/>
      <path fill="#FF2929" d="M20.6504,5.9512 L20.6494,7.2452 L21.7324,7.2462 C21.9474,7.2462 22.1094,7.2202 22.2164,7.1682 C22.4074,7.0762 22.5034,6.8962 22.5034,6.6262 C22.5034,6.3342 22.4104,6.1382 22.2264,6.0372 C22.1234,5.9812 21.9674,5.9522 21.7604,5.9522 L20.6504,5.9512 Z M22.7294,5.2402 C22.9074,5.3162 23.0574,5.4292 23.1804,5.5782 C23.2824,5.6992 23.3634,5.8342 23.4234,5.9832 C23.4824,6.1312 23.5124,6.3002 23.5114,6.4892 C23.5114,6.7182 23.4544,6.9422 23.3384,7.1632 C23.2224,7.3842 23.0324,7.5412 22.7664,7.6322 C22.9884,7.7212 23.1454,7.8472 23.2384,8.0132 C23.3314,8.1782 23.3784,8.4292 23.3784,8.7662 L23.3784,9.0902 C23.3784,9.3092 23.3854,9.4602 23.4034,9.5382 C23.4294,9.6612 23.4924,9.7532 23.5884,9.8122 L23.5884,9.9322 L22.4774,9.9322 C22.4484,9.8252 22.4254,9.7392 22.4134,9.6742 C22.3864,9.5392 22.3724,9.4002 22.3714,9.2602 L22.3634,8.8102 C22.3594,8.5052 22.3074,8.3002 22.2064,8.1962 C22.1034,8.0952 21.9114,8.0442 21.6314,8.0432 L20.6494,8.0432 L20.6484,9.9312 L19.6654,9.9302 L19.6674,5.1142 L21.9704,5.1152 C22.2994,5.1222 22.5534,5.1642 22.7294,5.2402 L22.7294,5.2402 Z"/>
      <polygon fill="#FF2929" points="24.477 5.123 27.913 5.125 27.913 5.972 25.477 5.971 25.477 7.078 27.611 7.079 27.61 7.915 25.476 7.914 25.474 9.934 24.476 9.934"/>
      <path fill="#FF2929" d="M31.0186,9.1748 C31.0776,9.1598 31.1526,9.1328 31.2456,9.0938 L30.7576,8.6288 L31.2746,8.0898 L31.7636,8.5518 C31.8396,8.3948 31.8936,8.2578 31.9236,8.1398 C31.9716,7.9628 31.9966,7.7568 31.9966,7.5218 C31.9966,6.9818 31.8856,6.5638 31.6646,6.2698 C31.4436,5.9738 31.1216,5.8258 30.6966,5.8248 C30.2976,5.8248 29.9796,5.9668 29.7426,6.2498 C29.5036,6.5328 29.3856,6.9568 29.3856,7.5208 C29.3856,8.1818 29.5546,8.6538 29.8946,8.9408 C30.1146,9.1238 30.3776,9.2178 30.6856,9.2178 C30.8006,9.2178 30.9116,9.2028 31.0186,9.1748 M32.8446,8.5288 C32.7596,8.8058 32.6356,9.0338 32.4696,9.2168 L33.0236,9.7388 L32.4976,10.2848 L31.9186,9.7358 C31.7426,9.8428 31.5906,9.9188 31.4616,9.9628 C31.2466,10.0338 30.9876,10.0698 30.6866,10.0698 C30.0586,10.0698 29.5396,9.8818 29.1296,9.5068 C28.6336,9.0568 28.3836,8.3948 28.3846,7.5198 C28.3846,6.6408 28.6416,5.9748 29.1516,5.5248 C29.5676,5.1558 30.0846,4.9718 30.7036,4.9718 C31.3266,4.9728 31.8496,5.1688 32.2716,5.5588 C32.7586,6.0098 33.0026,6.6408 33.0016,7.4508 C33.0016,7.8798 32.9506,8.2388 32.8446,8.5288"/>
    </g>
  </g>
</svg>
