<svg width="148" height="38" viewBox="0 0 148 38" fill="none" xmlns="http://www.w3.org/2000/svg">
    <path d="M54.7577 2.89844L47.6836 19.0166H50.7827L52.5681 14.8949H59.4232L61.2254 19.0166H64.3582L57.2841 2.89844H54.7577V2.89844ZM53.7302 12.1974L55.9872 7.03689L58.2442 12.1974H53.7302ZM142.645 7.33847C140.657 7.33847 138.905 8.04218 137.811 9.28204L137.693 9.41607L139.327 11.1251L139.461 10.991C140.017 10.4214 140.994 9.76793 142.544 9.76793C143.537 9.76793 145.171 10.0528 145.289 11.8958C144.548 11.7115 143.706 11.6277 142.897 11.6277C140.186 11.6277 137.289 12.6665 137.289 15.5651C137.289 18.0951 139.512 19.2512 141.584 19.2512C143.083 19.2512 144.481 18.715 145.407 17.7935L145.542 19.0334H148.001V12.2141C148.001 8.61184 145.238 7.33847 142.645 7.33847ZM141.853 16.8217C140.623 16.8217 139.983 16.1515 139.983 15.4981C139.983 14.6603 140.994 13.8226 142.914 13.8226C143.638 13.8226 144.379 13.9399 145.238 14.1912C145.171 15.7494 143.436 16.8217 141.853 16.8217ZM135.705 7.55629H132.219L128.092 12.0131V7.55629H125.263V19.0166H128.092V14.5431L132.758 19.0166H136.547L130.501 13.1859L135.705 7.55629ZM93.7156 7.32172C90.3302 7.32172 87.6858 9.93547 87.6858 13.2697C87.6858 16.6039 90.3302 19.2177 93.7156 19.2177C97.1011 19.2177 99.7454 16.6039 99.7454 13.2697C99.7454 9.93547 97.1011 7.32172 93.7156 7.32172ZM93.7156 16.5872C91.8797 16.5872 90.5323 15.1965 90.5323 13.2697C90.5323 11.3429 91.8797 9.95223 93.7156 9.95223C95.5515 9.95223 96.8821 11.3429 96.8821 13.2697C96.8821 15.1965 95.5515 16.5872 93.7156 16.5872ZM74.7504 12.8843C75.2725 12.3314 75.542 11.6612 75.542 10.9073C75.542 9.36581 74.4472 7.55629 71.3817 7.55629H66.1099V19.0166H72.0386C75.1546 19.0166 76.2662 17.2238 76.2662 15.5483C76.2662 14.4425 75.7104 13.4707 74.7504 12.8843ZM68.9395 9.88521H71.4828C71.9544 9.88521 72.7292 10.0192 72.7292 10.9408C72.7292 11.9125 71.8534 12.0131 71.4828 12.0131H68.9395V9.88521ZM72.0218 16.5704H68.9564V14.1745H72.0218C72.9313 14.1745 73.4366 14.6101 73.4366 15.3808C73.4366 16.118 72.9145 16.5704 72.0218 16.5704ZM100.52 10.0863H103.872V18.9998H106.702V10.0863H110.205V7.53953H100.52V10.0863ZM117.195 7.32172C113.776 7.32172 111.182 9.88521 111.182 13.2697C111.182 16.7715 113.658 19.2177 117.195 19.2177C119.502 19.2177 121.355 18.2794 122.433 16.5536L122.534 16.4028L120.361 14.8614L120.26 15.0289C119.603 16.0845 118.593 16.6207 117.228 16.6207C115.46 16.6207 114.18 15.5651 113.995 13.9734H122.736L122.753 13.8058C122.77 13.4372 122.77 13.2362 122.77 13.0016C122.753 9.08098 119.957 7.32172 117.195 7.32172ZM114.129 11.8455C114.584 10.3041 115.982 9.75117 117.111 9.75117C118.509 9.75117 119.57 10.5554 119.873 11.8455H114.129ZM77.2431 10.0863H80.5949V18.9998H83.4245V10.0863H86.9279V7.53953H77.2431V10.0863Z" fill="black"/>
    <path fill-rule="evenodd" clip-rule="evenodd" d="M0 7.17107C0 3.21693 3.23386 0 7.20882 0H16.1525V6.95326H10.2237C8.50573 6.95326 7.09091 8.34391 7.09091 10.0529V16.0511H0V7.17107Z" fill="#00AAFF"/>
    <path fill-rule="evenodd" clip-rule="evenodd" d="M7.10655 27.3942C7.10655 29.1032 8.50452 30.4939 10.2393 30.4939H16.1681V37.9833H7.22445C3.23265 37.9833 0.015625 34.7663 0.015625 30.8122V21.9321H7.12339V27.3942H7.10655Z" fill="#A169F7"/>
    <path fill-rule="evenodd" clip-rule="evenodd" d="M31.0101 0C35.0019 0 38.2189 3.21693 38.2189 7.17107V16.0511H30.7911V10.0529C30.7911 8.34391 29.3931 6.95326 27.6583 6.95326H22.0664V0H31.0101Z" fill="#FF6163"/>
    <path fill-rule="evenodd" clip-rule="evenodd" d="M27.6739 30.5105C29.3919 30.5105 30.8067 29.1198 30.8067 27.4108V21.9487H38.2345V30.8288C38.2345 34.7829 35.0006 37.9999 31.0257 37.9999H22.082V30.5105H27.6739V30.5105Z" fill="#97CF26"/>
    <path d="M48.4219 34.3142H49.803V29.3212H52.7V34.3142H54.0811V28.0981H48.4387V34.3142H48.4219Z" fill="#333333"/>
    <path d="M57.3303 36.911V33.4762C57.6841 33.9789 58.442 34.4312 59.3515 34.4312C61.0695 34.4312 62.3664 32.9736 62.3664 31.1976C62.3664 29.4215 61.0695 27.9639 59.3515 27.9639C58.4588 27.9639 57.6841 28.4163 57.3303 28.9189V28.0812H55.9492V36.8942H57.3303V36.911ZM59.0989 33.1914C57.9872 33.1914 57.2293 32.3201 57.2293 31.1976C57.2293 30.075 57.9872 29.2037 59.0989 29.2037C60.1937 29.2037 60.9684 30.075 60.9684 31.1976C60.9684 32.3201 60.1937 33.1914 59.0989 33.1914Z" fill="#333333"/>
    <path d="M66.4953 34.4312C68.3481 34.4312 69.7797 33.0071 69.7797 31.1976C69.7797 29.388 68.3481 27.9639 66.4953 27.9639C64.6426 27.9639 63.2109 29.388 63.2109 31.1976C63.2109 33.0071 64.6426 34.4312 66.4953 34.4312ZM66.4953 33.1746C65.3837 33.1746 64.6089 32.3201 64.6089 31.2143C64.6089 30.1085 65.3837 29.254 66.4953 29.254C67.5901 29.254 68.3649 30.1085 68.3649 31.2143C68.3649 32.3201 67.5901 33.1746 66.4953 33.1746Z" fill="#333333"/>
    <path d="M73.8718 34.4314C75.1856 34.4314 76.1625 33.8785 76.7183 32.9905L75.674 32.2365C75.3371 32.7894 74.7813 33.1748 73.8886 33.1748C72.8444 33.1748 72.0191 32.5213 71.9685 31.4825H76.8867C76.9035 31.2815 76.9035 31.1642 76.9035 31.0302C76.9035 29.0363 75.5393 27.9473 73.8886 27.9473C71.9854 27.9473 70.6211 29.3547 70.6211 31.1809C70.6211 33.1078 71.9854 34.4314 73.8718 34.4314ZM72.0359 30.5108C72.238 29.5892 73.0297 29.1369 73.8381 29.1369C74.6466 29.1369 75.3708 29.6227 75.5224 30.5108H72.0359Z" fill="#333333"/>
    <path d="M82.4962 34.3139H84.3152L81.0308 31.1472L83.8605 28.0811H82.1762L79.7171 30.7451V28.0811H78.3359V34.2971H79.7171V31.6498L82.4962 34.3139Z" fill="#333333"/>
    <path d="M86.268 34.3142H87.6492V29.3212H89.6198V28.0981H84.3984V29.3212H86.268V34.3142Z" fill="#333333"/>
    <path d="M92.9219 34.3142H94.4377L95.4315 32.002H99.4064L100.417 34.3142H101.95L98.0759 25.4844H96.7958L92.9219 34.3142ZM97.419 27.4447L98.8506 30.6951H96.0042L97.419 27.4447Z" fill="#333333"/>
    <path d="M104.158 34.3142H105.37L108.217 28.0981H106.684L104.764 32.4544L102.861 28.0981H101.328L104.158 34.3142Z" fill="#333333"/>
    <path d="M109.665 26.7408C110.17 26.7408 110.574 26.3387 110.574 25.8193C110.574 25.3167 110.17 24.9146 109.665 24.9146C109.159 24.9146 108.738 25.3167 108.738 25.8193C108.738 26.322 109.159 26.7408 109.665 26.7408ZM108.974 34.314H110.355V28.098H108.974V34.314Z" fill="#333333"/>
    <path d="M114.866 34.381C115.304 34.381 115.607 34.3308 115.893 34.247V33.0239C115.691 33.1077 115.421 33.1412 115.152 33.1412C114.445 33.1412 114.108 32.8731 114.108 32.0856V29.3043H115.893V28.0812H114.108V26.3555H112.727V28.0812H111.43V29.3043H112.727V32.3034C112.727 33.7108 113.67 34.381 114.866 34.381Z" fill="#333333"/>
    <path d="M119.902 34.4312C121.754 34.4312 123.186 33.0071 123.186 31.1976C123.186 29.388 121.754 27.9639 119.902 27.9639C118.049 27.9639 116.617 29.388 116.617 31.1976C116.617 33.0071 118.049 34.4312 119.902 34.4312ZM119.902 33.1746C118.79 33.1746 118.015 32.3201 118.015 31.2143C118.015 30.1085 118.79 29.254 119.902 29.254C120.996 29.254 121.771 30.1085 121.771 31.2143C121.771 32.3201 120.996 33.1746 119.902 33.1746Z" fill="#333333"/>
</svg>

