<svg width="32" height="32" viewBox="0 0 32 32" fill="none" xmlns="http://www.w3.org/2000/svg">
<path d="M16 28C22.6274 28 28 22.6274 28 16C28 9.37258 22.6274 4 16 4C9.37258 4 4 9.37258 4 16C4 22.6274 9.37258 28 16 28Z" stroke="black" stroke-width="2" stroke-linecap="round" stroke-linejoin="round"/>
<path d="M11 20H17" stroke="#990031" stroke-width="2" stroke-linecap="round" stroke-linejoin="round"/>
<path d="M13.2222 22V10H17.3889C18.3466 10 19.2651 10.3735 19.9423 11.0384C20.6195 11.7033 21 12.6051 21 13.5455C21 14.4858 20.6195 15.3876 19.9423 16.0525C19.2651 16.7174 18.3466 17.0909 17.3889 17.0909H11" stroke="#990031" stroke-width="2" stroke-linecap="round" stroke-linejoin="round"/>
</svg>
