<svg viewBox="0 0 24 24" stroke="#8C9091" fill="#8C9091" xmlns="http://www.w3.org/2000/svg">
    <path
            d="M12.5775 20.7579L20.3938 12.3861C22.3144 10.3291 22.5977 6.94497 20.7802 4.78319C20.325 4.24014 19.7712 3.80212 19.1527 3.49587C18.5341 3.18962 17.8638 3.02156 17.1827 3.00194C16.5015 2.98232 15.8237 3.11156 15.1907 3.38176C14.5577 3.65196 13.9828 4.05747 13.5009 4.57353L12.0318 6.14705L10.7634 4.78847C8.84283 2.73144 5.68323 2.42796 3.66488 4.37461C3.15785 4.86221 2.7489 5.45535 2.46297 6.11782C2.17704 6.7803 2.02013 7.49823 2.00181 8.22781C1.9835 8.95739 2.10415 9.68331 2.35643 10.3613C2.6087 11.0393 2.98731 11.6551 3.46913 12.1712L11.4862 20.7579C11.6309 20.9129 11.8272 21 12.0318 21C12.2365 21 12.4328 20.9129 12.5775 20.7579Z"
            stroke-width="2"
            stroke-linecap="round"
            stroke-linejoin="round"
    />
</svg>