<svg width="48" height="48" viewBox="0 0 48 48" fill="none" xmlns="http://www.w3.org/2000/svg">
<path d="M37.5005 42H10.499C10.1012 42 9.71967 41.842 9.43836 41.5607C9.15706 41.2794 8.99902 40.8978 8.99902 40.5V7.5C8.99902 7.10218 9.15706 6.72064 9.43836 6.43934C9.71967 6.15804 10.1012 6 10.499 6H28.5005L39.0005 16.5V40.5C39.0005 40.697 38.9617 40.892 38.8863 41.074C38.8109 41.256 38.7004 41.4214 38.5612 41.5607C38.4219 41.7 38.2565 41.8104 38.0745 41.8858C37.8925 41.9612 37.6975 42 37.5005 42Z" stroke="black" stroke-width="2" stroke-linecap="round" stroke-linejoin="round"/>
<path d="M28.5 6V16.5H39.0015" stroke="black" stroke-width="2" stroke-linecap="round" stroke-linejoin="round"/>
<path d="M18 25.5H30" stroke="#990031" stroke-width="2" stroke-linecap="round" stroke-linejoin="round"/>
<path d="M18 31.5H30" stroke="#990031" stroke-width="2" stroke-linecap="round" stroke-linejoin="round"/>
</svg>
