<svg width="48" height="48" viewBox="0 0 48 48" fill="none" xmlns="http://www.w3.org/2000/svg">
<circle cx="24" cy="24" r="19" stroke="#222222" stroke-width="2"/>
<path d="M19.4189 25.3609V27.2009H16.9922V29.4409H19.4189V32.6676H21.8189V29.4409H28.6455V27.2009H21.8189V25.3609H26.4322C29.7655 25.3609 32.0855 23.4943 32.0855 20.1609C32.0855 16.8276 29.7655 14.9609 26.4322 14.9609H19.4189V23.1209H16.9922V25.3609H19.4189ZM29.6855 20.1609C29.6855 22.0809 28.3522 23.1209 26.4322 23.1209H21.8189V17.2009H26.4322C28.3522 17.2009 29.6855 18.2409 29.6855 20.1609Z" fill="#990031"/>
<line x1="1" y1="-1" x2="37.5273" y2="-1" transform="matrix(0.715782 -0.698324 0.715782 0.698324 10.2109 37.4531)" stroke="#222222" stroke-width="2" stroke-linecap="round" stroke-linejoin="round"/>
</svg>
