<svg width="24" height="24" viewBox="0 0 24 24" fill="none" xmlns="http://www.w3.org/2000/svg">
<path d="M11.9996 12.8474C13.8774 12.8474 15.3996 11.332 15.3996 9.46274C15.3996 7.59347 13.8774 6.07812 11.9996 6.07812C10.1218 6.07812 8.59961 7.59347 8.59961 9.46274C8.59961 11.332 10.1218 12.8474 11.9996 12.8474Z" stroke="white" stroke-width="2" stroke-linecap="round" stroke-linejoin="round"/>
<path d="M20.5 9.46154C20.5 17.0769 12 23 12 23C12 23 3.5 17.0769 3.5 9.46154C3.5 7.2174 4.39553 5.06517 5.98959 3.47833C7.58365 1.89148 9.74566 1 12 1C14.2543 1 16.4163 1.89148 18.0104 3.47833C19.6045 5.06517 20.5 7.2174 20.5 9.46154V9.46154Z" stroke="white" stroke-width="2" stroke-linecap="round" stroke-linejoin="round"/>
</svg>
