<svg width="40" height="40" viewBox="0 0 40 40" fill="none" xmlns="http://www.w3.org/2000/svg">
<path d="M20 37.3333C26.2592 37.3333 31.3334 32.2592 31.3334 26C31.3334 19.7407 26.2592 14.6666 20 14.6666C13.7408 14.6666 8.66669 19.7407 8.66669 26C8.66669 32.2592 13.7408 37.3333 20 37.3333Z" stroke="#990031" stroke-width="2" stroke-miterlimit="10" stroke-linecap="round" stroke-linejoin="round"/>
<path d="M12 18V9.20721C12 5.17117 15.52 2 20 2C22.24 2 24.16 2.86486 25.6 4.16216C27.04 5.45946 28 7.33333 28 9.20721V18" stroke="#990031" stroke-width="2" stroke-miterlimit="10" stroke-linecap="round" stroke-linejoin="round"/>
<path d="M20.3334 27.0435V30.1739" stroke="#222222" stroke-width="2" stroke-miterlimit="10" stroke-linecap="round" stroke-linejoin="round"/>
<path d="M21.6905 25.4783C21.6905 26.219 21.0866 26.8261 20.3333 26.8261C19.5801 26.8261 18.9762 26.219 18.9762 25.4783C18.9762 24.7377 19.5801 24.1305 20.3333 24.1305C21.0866 24.1305 21.6905 24.7377 21.6905 25.4783Z" fill="#222222" stroke="#222222" stroke-width="2"/>
</svg>
