<svg width="32" height="32" viewBox="0 0 32 32" fill="none" xmlns="http://www.w3.org/2000/svg">
<path d="M22 10L10 22" stroke="white" stroke-width="2" stroke-linecap="round" stroke-linejoin="round"/>
<path d="M11.5 15C12.8807 15 14 13.8807 14 12.5C14 11.1193 12.8807 10 11.5 10C10.1193 10 9 11.1193 9 12.5C9 13.8807 10.1193 15 11.5 15Z" stroke="white" stroke-width="2" stroke-miterlimit="10"/>
<path d="M20.5 22C21.8807 22 23 20.8807 23 19.5C23 18.1193 21.8807 17 20.5 17C19.1193 17 18 18.1193 18 19.5C18 20.8807 19.1193 22 20.5 22Z" stroke="white" stroke-width="2" stroke-miterlimit="10"/>
<path d="M28 4H4C3.44772 4 3 4.59695 3 5.33333V26.6667C3 27.403 3.44772 28 4 28H28C28.5523 28 29 27.403 29 26.6667V5.33333C29 4.59695 28.5523 4 28 4Z" stroke="white" stroke-width="2" stroke-linecap="round" stroke-linejoin="round"/>
</svg>
