<svg width="32" height="32" viewBox="0 0 32 32" fill="none" xmlns="http://www.w3.org/2000/svg">
<path d="M15.3324 3.23426L5.25063 5.25063L3.23426 15.3324C3.20198 15.4939 3.21005 15.6608 3.25775 15.8183C3.30546 15.9759 3.39133 16.1192 3.50774 16.2357L16.5643 29.2923C16.6572 29.3851 16.7674 29.4588 16.8888 29.509C17.0101 29.5593 17.1401 29.5851 17.2714 29.5851C17.4028 29.5851 17.5328 29.5593 17.6541 29.509C17.7755 29.4588 17.8857 29.3851 17.9785 29.2923L29.2923 17.9785C29.3851 17.8857 29.4588 17.7755 29.509 17.6541C29.5593 17.5328 29.5851 17.4028 29.5851 17.2714C29.5851 17.1401 29.5593 17.0101 29.509 16.8888C29.4588 16.7674 29.3851 16.6572 29.2923 16.5643L16.2357 3.50774C16.1192 3.39133 15.9759 3.30546 15.8183 3.25775C15.6608 3.21005 15.4939 3.20198 15.3324 3.23426V3.23426Z" stroke="#990031" stroke-width="2" stroke-linecap="round" stroke-linejoin="round"/>
<path d="M10.5 12C11.3284 12 12 11.3284 12 10.5C12 9.67157 11.3284 9 10.5 9C9.67157 9 9 9.67157 9 10.5C9 11.3284 9.67157 12 10.5 12Z" fill="#990031"/>
</svg>
