<svg width="48" height="48" viewBox="0 0 48 48" fill="none" xmlns="http://www.w3.org/2000/svg">
<path d="M38.5455 8H9.45455C8.65122 8 8 8.65122 8 9.45455V38.5455C8 39.3488 8.65122 40 9.45455 40H38.5455C39.3488 40 40 39.3488 40 38.5455V9.45455C40 8.65122 39.3488 8 38.5455 8Z" stroke="white" stroke-width="2" stroke-linecap="round" stroke-linejoin="round"/>
<path d="M33 5V10" stroke="white" stroke-width="2" stroke-linecap="round" stroke-linejoin="round"/>
<path d="M15 5V10" stroke="white" stroke-width="2" stroke-linecap="round" stroke-linejoin="round"/>
<path d="M8 16H40" stroke="white" stroke-width="2" stroke-linecap="round" stroke-linejoin="round"/>
<path d="M18.375 31.75H25.25" stroke="white" stroke-width="2" stroke-linecap="round" stroke-linejoin="round"/>
<path d="M20.875 34.875V21.125H25.5625C26.6399 21.125 27.6733 21.553 28.4351 22.3149C29.197 23.0767 29.625 24.1101 29.625 25.1875C29.625 26.2649 29.197 27.2983 28.4351 28.0601C27.6733 28.822 26.6399 29.25 25.5625 29.25H18.375" stroke="white" stroke-width="2" stroke-linecap="round" stroke-linejoin="round"/>
</svg>
