<svg width="20" height="20" viewBox="0 0 20 20" fill="none" xmlns="http://www.w3.org/2000/svg">
<path d="M17.9687 1.04275L1.5229 6.73552C1.36804 6.78913 1.23409 6.89032 1.14019 7.02464C1.0463 7.15895 0.99727 7.31951 1.00012 7.48337C1.00296 7.64723 1.05754 7.80599 1.15604 7.93696C1.25455 8.06794 1.39193 8.16442 1.54857 8.21261L8.98503 10.5008C9.10618 10.538 9.21637 10.6044 9.30599 10.694C9.39562 10.7836 9.46196 10.8938 9.49924 11.015L11.7874 18.4514C11.8356 18.6081 11.9321 18.7454 12.063 18.8439C12.194 18.9424 12.3528 18.997 12.5166 18.9999C12.6805 19.0027 12.841 18.9537 12.9754 18.8598C13.1097 18.7659 13.2109 18.632 13.2645 18.4771L18.9572 2.0313C19.005 1.89349 19.0129 1.74504 18.9802 1.60291C18.9475 1.46079 18.8755 1.33073 18.7724 1.22761C18.6693 1.12449 18.5392 1.05246 18.3971 1.01977C18.255 0.987085 18.1065 0.995047 17.9687 1.04275V1.04275Z" stroke="#990031" stroke-width="2" stroke-linecap="round" stroke-linejoin="round"/>
</svg>
