<svg width="40" height="40" viewBox="0 0 40 40" fill="none" xmlns="http://www.w3.org/2000/svg">
<path d="M8.22723 24.6514V4" stroke="#990031" stroke-width="2" stroke-miterlimit="10" stroke-linecap="round" stroke-linejoin="round"/>
<path d="M8.22723 35.3333V31.7727" stroke="#990031" stroke-width="2" stroke-miterlimit="10" stroke-linecap="round" stroke-linejoin="round"/>
<path d="M8.22728 31.7728C10.1937 31.7728 11.7879 30.1787 11.7879 28.2122C11.7879 26.2457 10.1937 24.6516 8.22728 24.6516C6.26082 24.6516 4.66669 26.2457 4.66669 28.2122C4.66669 30.1787 6.26082 31.7728 8.22728 31.7728Z" stroke="#222222" stroke-width="2" stroke-miterlimit="10" stroke-linecap="round" stroke-linejoin="round"/>
<path d="M21.0456 8.98483V4" stroke="#990031" stroke-width="2" stroke-miterlimit="10" stroke-linecap="round" stroke-linejoin="round"/>
<path d="M21.0456 35.3334V16.1062" stroke="#990031" stroke-width="2" stroke-miterlimit="10" stroke-linecap="round" stroke-linejoin="round"/>
<path d="M21.0455 16.1063C23.0119 16.1063 24.6061 14.5122 24.6061 12.5457C24.6061 10.5792 23.0119 8.98511 21.0455 8.98511C19.079 8.98511 17.4849 10.5792 17.4849 12.5457C17.4849 14.5122 19.079 16.1063 21.0455 16.1063Z" stroke="#222222" stroke-width="2" stroke-miterlimit="10" stroke-linecap="round" stroke-linejoin="round"/>
<path d="M32.4393 28.9242V4" stroke="#990031" stroke-width="2" stroke-miterlimit="10" stroke-linecap="round" stroke-linejoin="round"/>
<path d="M32.4396 36.0457C34.4061 36.0457 36.0002 34.4516 36.0002 32.4852C36.0002 30.5187 34.4061 28.9246 32.4396 28.9246C30.4732 28.9246 28.879 30.5187 28.879 32.4852C28.879 34.4516 30.4732 36.0457 32.4396 36.0457Z" stroke="#222222" stroke-width="2" stroke-miterlimit="10" stroke-linecap="round" stroke-linejoin="round"/>
</svg>
