<svg width="48" height="48" viewBox="0 0 48 48" fill="none" xmlns="http://www.w3.org/2000/svg">
    <path d="M29.8909 7.5C32.4337 8.18388 34.7523 9.52391 36.6142 11.3859C38.4762 13.2478 39.8162 15.5664 40.5001 18.1092" stroke="#990031" stroke-width="2" stroke-linecap="round" stroke-linejoin="round"/>
    <path d="M28.3374 13.2969C29.8631 13.7072 31.2542 14.5112 32.3714 15.6284C33.4886 16.7456 34.2926 18.1367 34.7029 19.6624" stroke="#990031" stroke-width="2" stroke-linecap="round" stroke-linejoin="round"/>
    <path d="M17.3393 23.4028C18.8952 26.5838 21.4737 29.1506 24.6618 30.692C24.8951 30.8026 25.1531 30.8505 25.4105 30.831C25.6678 30.8115 25.9157 30.7253 26.1297 30.581L30.8239 27.4508C31.0315 27.3123 31.2704 27.2279 31.5188 27.2051C31.7673 27.1822 32.0176 27.2218 32.2469 27.3201L41.0289 31.0837C41.3272 31.2105 41.5763 31.4307 41.7385 31.7113C41.9008 31.9919 41.9675 32.3176 41.9286 32.6394C41.651 34.8114 40.5912 36.8077 38.9477 38.2547C37.3042 39.7016 35.1897 40.4998 33 40.4999C26.237 40.4999 19.751 37.8133 14.9688 33.0312C10.1866 28.249 7.5 21.763 7.5 14.9999C7.50012 12.8103 8.29836 10.6957 9.74528 9.05221C11.1922 7.4087 13.1886 6.34895 15.3606 6.07138C15.6823 6.03244 16.0081 6.09912 16.2886 6.26139C16.5692 6.42366 16.7895 6.67272 16.9162 6.97105L20.6832 15.7606C20.7806 15.988 20.8203 16.2359 20.7987 16.4823C20.7772 16.7287 20.695 16.966 20.5595 17.1729L17.4402 21.9391C17.2982 22.1535 17.2143 22.4011 17.1966 22.6577C17.1789 22.9142 17.2281 23.1709 17.3393 23.4028V23.4028Z" stroke="black" stroke-width="2" stroke-linecap="round" stroke-linejoin="round"/>
</svg>


