<svg width="20" height="20" viewBox="0 0 20 20" fill="none" xmlns="http://www.w3.org/2000/svg">
<path d="M15.6566 2.92864C16.0471 2.53811 16.6802 2.53811 17.0708 2.92864C17.4613 3.31916 17.4613 3.95232 17.0708 4.34285L4.34285 17.0708C3.95232 17.4613 3.31916 17.4613 2.92864 17.0708C2.53811 16.6802 2.53811 16.0471 2.92864 15.6566L15.6566 2.92864Z" fill="white"/>
<path d="M2.92864 2.92864C3.31916 2.53811 3.95232 2.53811 4.34285 2.92864L17.0708 15.6566C17.4613 16.0471 17.4613 16.6802 17.0708 17.0708C16.6802 17.4613 16.0471 17.4613 15.6566 17.0708L2.92864 4.34285C2.53811 3.95232 2.53811 3.31916 2.92864 2.92864Z" fill="white"/>
</svg>
