<svg width="24" height="24" viewBox="0 0 24 24" fill="none" xmlns="http://www.w3.org/2000/svg">
<path d="M21 4.3H3.00001C2.60001 4.3 2.20001 4.6 2.20001 5.1V18.9C2.20001 19.3 2.50001 19.7 3.00001 19.7H21C21.4 19.7 21.8 19.4 21.8 18.9V5.1C21.8 4.7 21.4 4.3 21 4.3Z" stroke="black" stroke-width="2" stroke-linecap="round" stroke-linejoin="round"/>
<path d="M16 15.6H15.8C14.2 15.6 13.2 14.6 13 13C12.9 12.2 12.9 11.4 13 10.6C13.2 9 14.2 8 15.8 8H16C17.6 8 18.6 9 18.8 10.6L17.3 10.7C17.2 9.9 16.9 9.5 16 9.5H15.8C15 9.5 14.6 9.8 14.5 10.7C14.4 11.4 14.4 12.2 14.5 12.9C14.6 13.7 14.9 14.1 15.8 14.1H16C16.8 14.1 17.2 13.8 17.3 12.9L18.8 13C18.7 14.6 17.6 15.6 16 15.6Z" fill="#990031"/>
<path d="M11.2 15.5H9.60001L8.60001 11.6L7.70001 15.5H6.10001L4.70001 8.8H6.20001V9L6.90001 12.3L7.90001 8.3H9.40001L10.4 12.3L11.1 8.8H12.6V9.2L11.2 15.5Z" fill="#990031"/>
</svg>
