<svg width="48" height="48" viewBox="0 0 48 48" fill="none" xmlns="http://www.w3.org/2000/svg">
<path d="M7.49987 24.9505L2.86531 22.6333C2.68714 22.5442 2.5285 22.4205 2.39864 22.2694C2.26879 22.1184 2.17032 21.943 2.10899 21.7534C2.04766 21.5639 2.0247 21.3641 2.04144 21.1656C2.05818 20.9671 2.11429 20.7739 2.20649 20.5973L6.81767 11.7666C6.99969 11.418 7.31134 11.1549 7.68549 11.0338C8.05965 10.9127 8.46639 10.9434 8.81813 11.1193L13.4999 13.4602L7.49987 24.9505Z" stroke="black" stroke-width="2" stroke-linecap="round" stroke-linejoin="round"/>
<path d="M40.5 25.1541L37.5 28.6637L30.6005 35.5632C30.4174 35.7463 30.1899 35.8789 29.9403 35.9481C29.6906 36.0172 29.4274 36.0206 29.1761 35.9577L18.3092 33.241C18.1053 33.19 17.9145 33.0968 17.749 32.9674L7.5 24.9531" stroke="black" stroke-width="2" stroke-linecap="round" stroke-linejoin="round"/>
<path d="M13.6074 13.4629L23.2299 10.6576C23.5737 10.5574 23.9419 10.5834 24.2681 10.731L30.7497 13.6639" stroke="black" stroke-width="2" stroke-linecap="round" stroke-linejoin="round"/>
<path d="M21 39.9115L15.3489 38.4988C15.1195 38.4414 14.907 38.3307 14.7286 38.1756L10.5 34.5" stroke="black" stroke-width="2" stroke-linecap="round" stroke-linejoin="round"/>
<path d="M45.1346 22.8364L40.5 25.1537L34.5 13.6633L39.1817 11.3224C39.5335 11.1466 39.9402 11.1158 40.3144 11.2369C40.6885 11.358 41.0002 11.6212 41.1822 11.9698L45.7934 20.8004C45.8856 20.977 45.9417 21.1702 45.9584 21.3687C45.9752 21.5672 45.9522 21.767 45.8909 21.9566C45.8296 22.1461 45.7311 22.3215 45.6012 22.4726C45.4714 22.6236 45.3127 22.7473 45.1346 22.8364V22.8364Z" stroke="#990031" stroke-width="2" stroke-linecap="round" stroke-linejoin="round"/>
<path d="M37.4996 28.6641L29.2496 22.6641L26.8496 24.4641C25.811 25.243 24.5478 25.6641 23.2496 25.6641C21.9514 25.6641 20.6882 25.243 19.6496 24.4641L18.6332 23.7018C18.4613 23.5728 18.3191 23.4084 18.2162 23.2198C18.1133 23.0311 18.0522 22.8225 18.037 22.6081C18.0217 22.3937 18.0527 22.1786 18.1279 21.9773C18.203 21.7759 18.3206 21.5931 18.4725 21.4411L25.8102 14.1034C25.9495 13.9641 26.1149 13.8536 26.2969 13.7782C26.4789 13.7029 26.6739 13.6641 26.8709 13.6641H34.4996" stroke="#990031" stroke-width="2" stroke-linecap="round" stroke-linejoin="round"/>
</svg>
