<svg width="60" height="60" viewBox="0 0 60 60" fill="none" xmlns="http://www.w3.org/2000/svg">
    <path d="M20.8264 26.8695C23.3237 26.8695 25.3482 24.8451 25.3482 22.3478C25.3482 19.8505 23.3237 17.826 20.8264 17.826C18.3291 17.826 16.3047 19.8505 16.3047 22.3478C16.3047 24.8451 18.3291 26.8695 20.8264 26.8695Z" stroke="#990031" stroke-width="3" stroke-miterlimit="10" stroke-linecap="round" stroke-linejoin="round"/>
    <path d="M38.9133 43.4348C41.4106 43.4348 43.4351 41.4104 43.4351 38.9131C43.4351 36.4158 41.4106 34.3914 38.9133 34.3914C36.4161 34.3914 34.3916 36.4158 34.3916 38.9131C34.3916 41.4104 36.4161 43.4348 38.9133 43.4348Z" stroke="#990031" stroke-width="3" stroke-miterlimit="10" stroke-linecap="round" stroke-linejoin="round"/>
    <path d="M40.174 17.5652L19.8262 42.4348" stroke="#990031" stroke-width="3" stroke-miterlimit="10" stroke-linecap="round" stroke-linejoin="round"/>
    <path d="M30 56C44.3594 56 56 44.3594 56 30C56 15.6406 44.3594 4 30 4C15.6406 4 4 15.6406 4 30C4 44.3594 15.6406 56 30 56Z" stroke="#222222" stroke-width="3" stroke-miterlimit="10" stroke-linecap="round" stroke-linejoin="round"/>
</svg>
