<svg width="40" height="40" viewBox="0 0 40 40" fill="none" xmlns="http://www.w3.org/2000/svg">
<path d="M35.4811 14.9451C25.1668 16.0308 13.7668 15.8498 4.71915 14.9451" stroke="#222222" stroke-width="2" stroke-miterlimit="10" stroke-linejoin="round"/>
<path d="M35.4791 30.619V33.0476C35.4791 34.019 34.6666 34.6667 33.448 34.6667H31.4169C30.1982 34.6667 29.3857 34.019 29.3857 33.0476V29" stroke="#222222" stroke-width="2" stroke-miterlimit="10" stroke-linejoin="round"/>
<path d="M4.71915 30.619V33.0476C4.71915 34.019 5.53159 34.6667 6.75026 34.6667H8.78137C10 34.6667 10.8125 34.019 10.8125 33.0476V29" stroke="#222222" stroke-width="2" stroke-miterlimit="10" stroke-linejoin="round"/>
<path d="M13.7668 24.7163H26.4335" stroke="#990031" stroke-width="2" stroke-miterlimit="10" stroke-linecap="round" stroke-linejoin="round"/>
<path d="M10.1477 24.7165H6.16677C5.262 24.7165 4.71915 23.8117 4.71915 22.907" stroke="#990031" stroke-width="2" stroke-miterlimit="10" stroke-linecap="round" stroke-linejoin="round"/>
<path d="M30.0523 24.7165H34.0333C34.9381 24.7165 35.4809 23.8117 35.4809 22.907" stroke="#990031" stroke-width="2" stroke-miterlimit="10" stroke-linecap="round" stroke-linejoin="round"/>
<path d="M3.81444 15.6689H3.30016C2.39539 15.6689 1.49063 14.945 1.49063 14.2212C1.49063 13.1355 1.49063 12.0498 3.30016 12.0498H5.62397" stroke="#222222" stroke-width="2" stroke-miterlimit="10" stroke-linejoin="round"/>
<path d="M36.3857 15.6689H37.0809C37.9857 15.6689 38.8905 14.945 38.8905 14.2212C38.8905 13.1355 38.8905 12.0498 37.0809 12.0498H34.5762" stroke="#222222" stroke-width="2" stroke-miterlimit="10" stroke-linejoin="round"/>
<path d="M39 21.1332C39 19.8666 38.6381 18.5999 37.7333 17.6951C35.7429 15.3427 33.5714 11.9046 32.8476 7.56179C32.3048 4.66655 28.6857 4.4856 25.6095 4.4856H18.9143H14.2095C11.3143 4.4856 7.51429 4.66655 6.97143 7.56179C6.79048 11.1808 4.25714 15.3427 2.26667 17.8761C1.3619 18.7808 1 20.0475 1 21.1332C1 21.1332 1 25.3522 1 27.3427C1 29.3333 1.66667 29.9999 3.66667 29.9999L19.0952 29.9999H35.6667C37.6667 29.9999 39 29.3333 39 27.3427V21.1332Z" stroke="#990031" stroke-width="2" stroke-miterlimit="10" stroke-linecap="round" stroke-linejoin="round"/>
</svg>
