<svg width="48" height="48" viewBox="0 0 48 48" fill="none" xmlns="http://www.w3.org/2000/svg">
<path d="M22.9996 4.85335L7.87692 7.87789L4.85237 23.0006C4.80394 23.2428 4.81604 23.4931 4.8876 23.7295C4.95916 23.9658 5.08797 24.1808 5.26258 24.3554L24.8475 43.9403C24.9868 44.0796 25.1521 44.1901 25.3341 44.2655C25.5161 44.3409 25.7112 44.3797 25.9081 44.3797C26.1051 44.3797 26.3002 44.3409 26.4822 44.2655C26.6642 44.1901 26.8295 44.0796 26.9688 43.9403L43.9394 26.9698C44.0787 26.8305 44.1891 26.6651 44.2645 26.4831C44.3399 26.3011 44.3787 26.1061 44.3787 25.9091C44.3787 25.7121 44.3399 25.5171 44.2645 25.3351C44.1891 25.1531 44.0787 24.9877 43.9394 24.8485L24.3545 5.26356C24.1799 5.08895 23.9648 4.96014 23.7285 4.88858C23.4921 4.81702 23.2418 4.80492 22.9996 4.85335V4.85335Z" stroke="#222222" stroke-width="2" stroke-linecap="round" stroke-linejoin="round"/>
<path d="M15.75 18C16.9926 18 18 16.9926 18 15.75C18 14.5074 16.9926 13.5 15.75 13.5C14.5074 13.5 13.5 14.5074 13.5 15.75C13.5 16.9926 14.5074 18 15.75 18Z" fill="#990031"/>
</svg>
