<svg width="26" height="26" viewBox="0 0 26 26" fill="none" xmlns="http://www.w3.org/2000/svg">
<path fill-rule="evenodd" clip-rule="evenodd" d="M22.2024 3.78047C19.7637 1.34046 16.5122 0 13.0496 0C5.91981 0 0.111695 5.7819 0.105489 12.8795C0.105489 15.1528 0.701193 17.3642 1.83055 19.3224L0 26L6.86301 24.2086C8.75561 25.234 10.884 25.7776 13.0496 25.7776H13.0558C20.1857 25.7776 25.9938 19.9957 26 12.8919C25.9938 9.45118 24.6473 6.2143 22.2024 3.78047ZM13.0496 23.5971C11.1136 23.5971 9.221 23.0782 7.57041 22.1022L7.17947 21.8674L3.10883 22.9299L4.19475 18.9765L3.94033 18.5688C2.86062 16.8639 2.29594 14.8933 2.29594 12.8734C2.29594 6.98028 7.12363 2.17439 13.0558 2.17439C15.9289 2.17439 18.6282 3.29247 20.6635 5.31243C22.6926 7.33856 23.8095 10.0257 23.8095 12.8857C23.8033 18.7973 18.9757 23.5971 13.0496 23.5971ZM18.9508 15.579C18.6282 15.4184 17.0396 14.6401 16.7418 14.5289C16.4439 14.4239 16.2267 14.3683 16.0158 14.6895C15.7986 15.0107 15.178 15.7396 14.9919 15.9496C14.8057 16.1658 14.6134 16.1905 14.2907 16.0299C13.968 15.8693 12.9255 15.5296 11.6907 14.43C10.7289 13.5776 10.0835 12.5213 9.89117 12.2C9.70501 11.8788 9.87255 11.7059 10.0339 11.5453C10.1766 11.4032 10.3566 11.1684 10.5179 10.9831C10.6792 10.7978 10.7351 10.6619 10.8406 10.4457C10.9461 10.2295 10.8964 10.0442 10.8158 9.88358C10.7351 9.72297 10.0897 8.13542 9.81671 7.49299C9.55609 6.86291 9.28926 6.94939 9.09069 6.94322C8.90453 6.93086 8.68735 6.93086 8.47017 6.93086C8.25298 6.93086 7.90549 7.01117 7.60764 7.33238C7.30979 7.6536 6.47828 8.43193 6.47828 10.0195C6.47828 11.607 7.63866 13.1328 7.8 13.349C7.96134 13.5652 10.0773 16.8144 13.3227 18.2105C14.0921 18.5441 14.694 18.7417 15.1656 18.89C15.9413 19.1371 16.6425 19.1 17.201 19.0197C17.8215 18.9271 19.1122 18.2414 19.3852 17.4878C19.652 16.7341 19.652 16.0917 19.5714 15.9558C19.4907 15.8199 19.2735 15.7396 18.9508 15.579Z" fill="#990031"/>
</svg>
