<svg width="48" height="49" viewBox="0 0 48 49" fill="none" xmlns="http://www.w3.org/2000/svg">
<path d="M7.49987 25.8451L2.86531 23.5278C2.68714 23.4387 2.5285 23.315 2.39864 23.164C2.26879 23.0129 2.17032 22.8375 2.10899 22.648C2.04766 22.4585 2.0247 22.2586 2.04144 22.0601C2.05818 21.8616 2.11429 21.6684 2.20649 21.4919L6.81767 12.6612C6.99969 12.3126 7.31134 12.0494 7.68549 11.9283C8.05965 11.8073 8.46639 11.838 8.81813 12.0138L13.4999 14.3547L7.49987 25.8451Z" stroke="white" stroke-width="2" stroke-linecap="round" stroke-linejoin="round"/>
<path d="M40.5 26.0486L37.5 29.5582L30.6005 36.4577C30.4174 36.6409 30.1899 36.7735 29.9403 36.8426C29.6906 36.9118 29.4274 36.9151 29.1761 36.8523L18.3092 34.1355C18.1053 34.0846 17.9145 33.9914 17.749 33.8619L7.5 25.8477" stroke="white" stroke-width="2" stroke-linecap="round" stroke-linejoin="round"/>
<path d="M13.6074 14.3574L23.2299 11.5521C23.5737 11.4519 23.9419 11.478 24.2681 11.6256L30.7497 14.5584" stroke="white" stroke-width="2" stroke-linecap="round" stroke-linejoin="round"/>
<path d="M21 40.8061L15.3489 39.3933C15.1195 39.336 14.907 39.2252 14.7286 39.0702L10.5 35.3945" stroke="white" stroke-width="2" stroke-linecap="round" stroke-linejoin="round"/>
<path d="M45.1346 23.727L40.5 26.0443L34.5 14.5539L39.1817 12.213C39.5335 12.0372 39.9402 12.0065 40.3144 12.1275C40.6885 12.2486 41.0002 12.5118 41.1822 12.8604L45.7934 21.6911C45.8856 21.8677 45.9417 22.0608 45.9584 22.2593C45.9752 22.4578 45.9522 22.6577 45.8909 22.8472C45.8296 23.0367 45.7311 23.2121 45.6012 23.3632C45.4714 23.5143 45.3127 23.6379 45.1346 23.727V23.727Z" stroke="white" stroke-width="2" stroke-linecap="round" stroke-linejoin="round"/>
<path d="M37.4996 29.5547L29.2496 23.5547L26.8496 25.3547C25.811 26.1336 24.5478 26.5547 23.2496 26.5547C21.9514 26.5547 20.6882 26.1336 19.6496 25.3547L18.6332 24.5924C18.4613 24.4635 18.3191 24.2991 18.2162 24.1104C18.1133 23.9217 18.0522 23.7131 18.037 23.4987C18.0217 23.2844 18.0527 23.0692 18.1279 22.8679C18.203 22.6665 18.3206 22.4837 18.4725 22.3317L25.8102 14.994C25.9495 14.8547 26.1149 14.7443 26.2969 14.6689C26.4789 14.5935 26.6739 14.5547 26.8709 14.5547H34.4996" stroke="white" stroke-width="2" stroke-linecap="round" stroke-linejoin="round"/>
</svg>
