<svg width="56" height="56" viewBox="0 0 56 56" fill="none" xmlns="http://www.w3.org/2000/svg">
<path d="M0 28C0 12.5356 12.5356 0 28 0C43.4644 0 56 12.5356 56 28C56 43.4644 43.4644 56 28 56C12.5356 56 0 43.4644 0 28Z" fill="#00C092"/>
<path d="M28 32C30.7614 32 33 29.7614 33 27C33 24.2386 30.7614 22 28 22C25.2386 22 23 24.2386 23 27C23 29.7614 25.2386 32 28 32Z" stroke="white" stroke-width="2" stroke-linecap="round" stroke-linejoin="round"/>
<path d="M38 17H18C17.4477 17 17 17.4477 17 18V38C17 38.5523 17.4477 39 18 39H38C38.5523 39 39 38.5523 39 38V18C39 17.4477 38.5523 17 38 17Z" stroke="white" stroke-width="2" stroke-linecap="round" stroke-linejoin="round"/>
<path d="M19.2227 39C19.6763 37.0115 20.7918 35.236 22.3864 33.9643C23.9809 32.6926 25.9601 32 27.9996 32C30.0392 32 32.0183 32.6926 33.6129 33.9643C35.2075 35.236 36.3229 37.0115 36.7766 39" stroke="white" stroke-width="2" stroke-linecap="round" stroke-linejoin="round"/>
</svg>
