<svg width="40" height="40" viewBox="0 0 40 40" fill="none" xmlns="http://www.w3.org/2000/svg">
<path d="M24.7059 31H5.29412C4.51765 31 4 30.4783 4 29.6957V7.52174L10.4706 1H24.7059C25.4824 1 26 1.52174 26 2.30435V29.6957C26 30.4783 25.4824 31 24.7059 31Z" stroke="#990031" stroke-width="2" stroke-miterlimit="10" stroke-linecap="round" stroke-linejoin="round"/>
<path d="M9.66675 21H19.3334" stroke="#222222" stroke-width="2" stroke-linecap="round"/>
<path d="M9.66675 17H19.3334" stroke="#222222" stroke-width="2" stroke-linecap="round"/>
<path d="M9.66663 13H19.3333" stroke="#222222" stroke-width="2" stroke-linecap="round"/>
<path d="M10.3334 1.66675V6.00008C10.3334 7.33341 10.3334 7.33341 9.00004 7.33341H4.33337" stroke="#990031" stroke-width="2" stroke-miterlimit="10" stroke-linecap="round" stroke-linejoin="round"/>
<path d="M34.0393 39H14.6275C13.851 39 13.3334 38.4783 13.3334 37.6957V15.5217L19.804 9H34.0393C34.8157 9 35.3334 9.52174 35.3334 10.3043V37.6957C35.3334 38.4783 34.8157 39 34.0393 39Z" fill="white" stroke="#990031" stroke-width="2" stroke-miterlimit="10" stroke-linecap="round" stroke-linejoin="round"/>
<path d="M20.9999 25.3333L23.6665 28L29.6665 22" stroke="#222222" stroke-width="2" stroke-linecap="round" stroke-linejoin="round"/>
<path d="M19.6665 9.66675V14.0001C19.6665 15.3334 19.6665 15.3334 18.3332 15.3334H13.6665" stroke="#990031" stroke-width="2" stroke-miterlimit="10" stroke-linecap="round" stroke-linejoin="round"/>
</svg>
