<svg width="48" height="48" viewBox="0 0 48 48" fill="none" xmlns="http://www.w3.org/2000/svg">
<path d="M17.4687 23.0308C16.3124 20.1466 16.1873 16.9516 17.1148 13.9859C18.0422 11.0202 19.9651 8.46564 22.5586 6.75406C25.152 5.04248 28.2569 4.27884 31.3484 4.59223C34.4399 4.90562 37.3284 6.27682 39.5256 8.47404C41.7228 10.6713 43.094 13.5597 43.4074 16.6512C43.7208 19.7427 42.9571 22.8476 41.2456 25.4411C39.534 28.0345 36.9794 29.9575 34.0137 30.8849C31.048 31.8123 27.853 31.6873 24.9688 30.531L24.969 30.5307L22.5 32.9996H18V37.4996H13.5V41.9996H6V34.4996L17.469 23.0306L17.4687 23.0308Z" stroke="#222222" stroke-width="2" stroke-linecap="round" stroke-linejoin="round"/>
<path d="M33.75 16.5C34.9926 16.5 36 15.4926 36 14.25C36 13.0074 34.9926 12 33.75 12C32.5074 12 31.5 13.0074 31.5 14.25C31.5 15.4926 32.5074 16.5 33.75 16.5Z" fill="white" stroke="#990031" stroke-width="2" stroke-linecap="round" stroke-linejoin="round"/>
</svg>
