<svg width="375" height="30" viewBox="0 0 375 30" fill="none" xmlns="http://www.w3.org/2000/svg">
<path d="M206.039 29.8883C204.922 29.8937 203.813 29.6898 202.771 29.2871C201.764 28.8995 200.846 28.313 200.07 27.5625C199.268 26.7698 198.63 25.8268 198.193 24.7871C197.755 23.7474 197.526 22.6315 197.518 21.5031C197.511 20.3746 197.726 19.2558 198.15 18.2105C198.574 17.1652 199.2 16.2139 199.991 15.4109L200.07 15.3318C200.845 14.5762 201.763 13.9844 202.771 13.5913C203.823 13.1847 204.943 12.9807 206.071 12.9901C207.49 12.9832 208.89 13.3083 210.161 13.9394C210.695 14.1942 211.19 14.5246 211.63 14.9204C212.003 15.2543 212.323 15.6439 212.577 16.0754L211.914 18.0532C211.624 17.6579 211.284 17.3016 210.903 16.9931C210.49 16.6487 210.04 16.3515 209.561 16.1071C209.061 15.8425 208.531 15.6405 207.982 15.5058C207.409 15.3589 206.82 15.2845 206.229 15.2843C205.321 15.272 204.419 15.4165 203.56 15.7115C202.791 15.972 202.086 16.3926 201.491 16.9456C200.919 17.4891 200.467 18.1467 200.165 18.876C199.842 19.6911 199.687 20.5627 199.707 21.4392C199.696 22.3216 199.857 23.1976 200.181 24.0182C200.474 24.7564 200.933 25.4169 201.523 25.9486C202.127 26.4823 202.83 26.891 203.592 27.1511C204.45 27.4461 205.353 27.5906 206.261 27.5783C207.483 27.6033 208.692 27.3262 209.782 26.7713C210.7 26.3252 211.497 25.6629 212.104 24.841L212.735 26.7872C211.904 27.7517 210.876 28.5273 209.722 29.0621C208.567 29.5969 207.312 29.8786 206.039 29.8883Z" fill="#50287D"/>
<path d="M227.848 13.275V15.5218H222.352V29.5246H220.236V15.506H214.677V13.275H227.864H227.848Z" fill="#50287D"/>
<path d="M241.273 18.2431C241.282 18.9214 241.153 19.5944 240.894 20.2209C240.658 20.8105 240.31 21.3481 239.868 21.8032C239.421 22.2523 238.882 22.598 238.288 22.8158C237.624 23.0523 236.924 23.1701 236.22 23.1639H233.235V29.4929H231.119V13.2749H236.22C236.88 13.2579 237.537 13.3741 238.151 13.6166C238.766 13.859 239.325 14.2228 239.797 14.6863C240.268 15.1498 240.642 15.7035 240.895 16.3145C241.149 16.9255 241.277 17.5814 241.273 18.2431ZM239.062 18.2431C239.068 17.8895 238.998 17.5387 238.857 17.2147C238.73 16.9049 238.548 16.6208 238.32 16.3761C238.089 16.1383 237.816 15.9452 237.514 15.8065C237.193 15.6542 236.843 15.5732 236.488 15.5692H233.156V20.9329H236.488C236.84 20.9571 237.194 20.9045 237.524 20.7788C237.855 20.6531 238.154 20.4572 238.401 20.2047C238.649 19.9521 238.839 19.6488 238.959 19.3157C239.078 18.9826 239.124 18.6275 239.094 18.2748L239.062 18.2431Z" fill="#50287D"/>
<path d="M245.664 25.7431L244.084 29.5404H241.794L248.569 13.275H250.922L257.602 29.5404H255.312L253.733 25.7431H245.679H245.664ZM252.77 23.4963L249.612 15.9965L246.453 23.4963H252.644H252.77Z" fill="#50287D"/>
<path d="M259.04 29.5247L264.804 21.1072L259.356 13.196H262.025L266.099 19.0819L270.221 13.2435H272.874L267.426 21.1547L273.253 29.5722H270.679L266.178 23.2432L261.756 29.5722H259.056L259.04 29.5247Z" fill="#50287D"/>
<path d="M283.47 29.841C282.338 29.8532 281.216 29.638 280.169 29.2082C279.155 28.7923 278.225 28.1975 277.421 27.4519C276.613 26.7005 275.968 25.7902 275.526 24.7779C275.071 23.7044 274.837 22.5502 274.837 21.384C274.837 20.2178 275.071 19.0636 275.526 17.9901C275.968 16.978 276.613 16.0678 277.421 15.3161C278.223 14.5842 279.148 14.0003 280.153 13.5915C282.29 12.7494 284.665 12.7494 286.802 13.5915C287.841 13.995 288.799 14.5848 289.628 15.3319C290.436 16.0842 291.081 16.9942 291.523 18.0059C291.98 19.0757 292.211 20.2284 292.203 21.3919C292.145 23.6666 291.197 25.8274 289.563 27.4081C287.929 28.9887 285.741 29.8625 283.47 29.841ZM289.944 21.4552C289.948 20.625 289.77 19.8041 289.423 19.0502C289.093 18.3076 288.618 17.6384 288.027 17.0815C287.436 16.5246 286.74 16.0912 285.98 15.8066C284.317 15.1729 282.48 15.1729 280.816 15.8066C280.056 16.0966 279.362 16.5357 278.773 17.0981C278.185 17.6605 277.715 18.3349 277.39 19.0818C277.06 19.8294 276.889 20.6378 276.889 21.4552C276.889 22.2726 277.06 23.0809 277.39 23.8285C277.719 24.5716 278.193 25.2412 278.784 25.7982C279.376 26.3552 280.072 26.7883 280.832 27.0721C282.496 27.7043 284.333 27.7043 285.996 27.0721C286.753 26.7857 287.446 26.3515 288.034 25.7947C288.623 25.2379 289.095 24.5696 289.423 23.8285C289.77 23.0747 289.948 22.2537 289.944 21.4235V21.4552Z" fill="#50287D"/>
<path d="M304.284 20.8539C304.931 21.1952 305.476 21.7031 305.863 22.3253C306.315 23.0442 306.546 23.8808 306.526 24.7303C306.537 25.441 306.403 26.1464 306.131 26.8031C305.888 27.3811 305.515 27.8953 305.042 28.3062C304.582 28.7148 304.045 29.0269 303.462 29.2239C302.814 29.4329 302.138 29.5396 301.457 29.5403H295.945V13.2749H300.683C301.362 13.2654 302.039 13.3615 302.689 13.5597C303.267 13.7358 303.804 14.0264 304.268 14.4141C304.954 15.0493 305.423 15.8853 305.607 16.8029C305.791 17.7206 305.682 18.6731 305.294 19.5248C305.05 20.0265 304.7 20.4692 304.268 20.8222L304.284 20.8539ZM301.757 27.1828C302.101 27.1846 302.443 27.1257 302.768 27.0088C303.082 26.8991 303.368 26.7207 303.605 26.4866C303.842 26.2549 304.035 25.9813 304.173 25.6797C304.325 25.358 304.406 25.0071 304.41 24.6512C304.409 24.3345 304.345 24.0211 304.22 23.7301C304.095 23.4391 303.913 23.1765 303.683 22.9582C303.445 22.7158 303.159 22.5248 302.844 22.3969C302.529 22.269 302.191 22.207 301.852 22.2146H298.061V27.1512L301.757 27.1828ZM301.094 19.9678C301.721 19.9802 302.331 19.7668 302.815 19.3666C303.049 19.1751 303.237 18.9336 303.365 18.6598C303.494 18.386 303.559 18.0868 303.557 17.7843C303.558 17.4866 303.496 17.1921 303.377 16.9196C303.257 16.6471 303.082 16.4027 302.862 16.2021C302.628 15.9814 302.353 15.8091 302.052 15.6951C301.751 15.581 301.431 15.5275 301.109 15.5375H298.061V20.126L301.094 19.9678Z" fill="#50287D"/>
<path d="M312.605 25.7431L311.026 29.5404H308.736L315.416 13.275H317.769L324.465 29.5404H322.175L320.596 25.7431H312.526H312.605ZM319.712 23.4963L316.553 15.9965L313.395 23.4963H319.586H319.712Z" fill="#50287D"/>
<path d="M329.786 13.275V20.0312H339.45V13.275H341.582V29.5246H339.466V22.2463H329.786V29.5246H327.669V13.275H329.786Z" fill="#50287D"/>
<path d="M358.625 29.5246V16.6294L349.055 29.5246H346.67V13.275H348.802V26.2019L358.435 13.275H360.693V29.5246H358.577H358.625Z" fill="#50287D"/>
<path d="M375 13.275V15.5218H367.973V20.0312H374.289V22.2463H367.973V27.2778H375V29.5246H365.856V13.275H375Z" fill="#50287D"/>
<path d="M13.8497 13.6865C13.8561 14.6617 13.6737 15.6289 13.3128 16.5345C12.953 17.3789 12.4141 18.1348 11.7336 18.7497C11.0648 19.374 10.2819 19.863 9.4279 20.1895C8.47958 20.5481 7.47251 20.7252 6.45898 20.7116H3.6164V29.5247H0V6.50316H6.50636C7.46754 6.45961 8.42741 6.61429 9.32648 6.9576C10.2256 7.30091 11.0447 7.82554 11.7331 8.49899C12.4216 9.17244 12.9647 9.98035 13.3288 10.8727C13.6928 11.765 13.8701 12.7227 13.8497 13.6865ZM3.6164 16.851H6.94854C7.3662 16.8639 7.78226 16.7936 8.17261 16.6442C8.56297 16.4948 8.91986 16.2693 9.22261 15.9808C9.51354 15.6886 9.742 15.3401 9.89404 14.9565C10.0461 14.5729 10.1185 14.1624 10.107 13.7498C10.1198 13.3313 10.0497 12.9145 9.90057 12.5234C9.75148 12.1323 9.52641 11.7747 9.2384 11.4714C8.94598 11.1646 8.59236 10.9229 8.20056 10.7621C7.80876 10.6012 7.38754 10.5248 6.96433 10.5379H3.6164V16.8668V16.851Z" fill="#50287D"/>
<path d="M38.1907 19.2873H45.9921V13.259H49.4821V29.5086H45.9921V23.0056H38.1907V29.5244H34.7007V13.2748H38.1907V19.3031V19.2873Z" fill="#50287D"/>
<path d="M62.0536 26.4707C62.9965 26.4991 63.9342 26.3214 64.8015 25.9498C65.6688 25.5781 66.4448 25.0216 67.0755 24.3188L68.102 26.9928C67.3612 27.9048 66.4303 28.6436 65.3746 29.1574C64.319 29.6712 63.164 29.9477 61.9905 29.9674C60.833 29.9939 59.6809 29.8006 58.5952 29.3978C57.5982 29.0448 56.6843 28.4901 55.9105 27.7681C55.1209 27.0083 54.5065 26.0849 54.1102 25.0625C53.6726 23.9272 53.453 22.7194 53.4627 21.5024C53.4574 20.3842 53.6554 19.2743 54.047 18.2272C54.4042 17.2316 54.9394 16.3094 55.6262 15.5058C56.3346 14.6978 57.2068 14.0505 58.1846 13.6071C59.2443 13.1418 60.3914 12.9097 61.5483 12.9267C62.6174 12.9087 63.6777 13.1228 64.6563 13.5544C65.635 13.9859 66.5088 14.6246 67.2177 15.4266C67.9171 16.2093 68.4539 17.1237 68.7969 18.1164C69.1402 19.1361 69.3162 20.2048 69.318 21.2809C69.3212 21.71 69.2895 22.1386 69.2233 22.5625H57.0001C57.2243 23.7182 57.861 24.7524 58.7911 25.4717C59.7212 26.191 60.8811 26.5461 62.0536 26.4707ZM61.4062 16.5975C60.4182 16.525 59.4362 16.802 58.6311 17.3802C57.826 17.9584 57.2488 18.8013 57.0001 19.762H65.7964C65.54 18.8088 64.9632 17.9734 64.1634 17.3969C63.3636 16.8203 62.3897 16.538 61.4062 16.5975Z" fill="#50287D"/>
<path d="M23.6584 26.4709C24.6011 26.4984 25.5385 26.3201 26.4056 25.9486C27.2727 25.577 28.0489 25.021 28.6803 24.3191L29.7068 26.9931C28.9659 27.9051 28.0351 28.6439 26.9794 29.1577C25.9237 29.6715 24.7687 29.948 23.5952 29.9677C22.4377 29.9942 21.2857 29.8009 20.1999 29.3981C19.1863 29.0303 18.2609 28.4536 17.4836 27.7051C16.699 26.9444 16.0899 26.0209 15.6991 24.9995C15.2605 23.8645 15.0408 22.6565 15.0517 21.4394C15.0423 20.3223 15.2349 19.2126 15.6202 18.1642C15.9784 17.169 16.5134 16.247 17.1994 15.4427C17.9074 14.6345 18.7797 13.9871 19.7577 13.5441C20.8175 13.0787 21.9645 12.8467 23.1214 12.8637C24.1904 12.8467 25.2503 13.0613 26.2288 13.4928C27.2073 13.9243 28.0813 14.5624 28.7908 15.3636C29.4902 16.1463 30.0271 17.0607 30.37 18.0534C30.7198 19.0719 30.9012 20.1408 30.907 21.2179C30.9113 21.647 30.8796 22.0757 30.8122 22.4995H18.6049C18.8154 23.6668 19.4463 24.716 20.3778 25.4481C21.3094 26.1801 22.4767 26.5441 23.6584 26.4709ZM23.0109 16.5978C22.0229 16.5253 21.0409 16.8022 20.2358 17.3805C19.4307 17.9587 18.8536 18.8016 18.6049 19.7623H27.4801C27.2217 18.7977 26.6355 17.9538 25.8224 17.3761C25.0094 16.7984 24.0206 16.5231 23.0267 16.5978H23.0109Z" fill="#50287D"/>
<path d="M97.8481 29.9992C95.5864 29.9992 93.4173 29.0991 91.818 27.4967C90.2188 25.8944 89.3203 23.7212 89.3203 21.4552C89.3203 19.1891 90.2188 17.0159 91.818 15.4136C93.4173 13.8113 95.5864 12.9111 97.8481 12.9111C98.9848 12.8813 100.113 13.1141 101.146 13.5915C102.178 14.069 103.087 14.7782 103.802 15.6642L102.838 18.5597C101.6 17.4332 100.021 16.7538 98.3534 16.6293C97.6838 16.5664 97.0084 16.6411 96.3686 16.8488C95.7288 17.0565 95.138 17.3928 94.6325 17.8371C94.1269 18.2815 93.7171 18.8245 93.4282 19.433C93.1394 20.0415 92.9775 20.7027 92.9525 21.376C92.9417 22.0396 93.0777 22.6973 93.3507 23.3018C93.6238 23.9064 94.0271 24.4429 94.5317 24.8728C95.6246 25.8049 97.0303 26.2857 98.4639 26.2177C100.22 26.1912 101.905 25.5214 103.202 24.3348L104.228 27.2303C103.42 28.1173 102.434 28.8227 101.334 29.3C100.235 29.7773 99.0464 30.0156 97.8481 29.9992Z" fill="#50287D"/>
<path d="M80.4428 29.9992C78.1811 29.9992 76.012 29.0991 74.4128 27.4967C72.8135 25.8944 71.915 23.7212 71.915 21.4552C71.915 19.1891 72.8135 17.0159 74.4128 15.4136C76.012 13.8113 78.1811 12.9111 80.4428 12.9111C81.5795 12.8813 82.7078 13.1141 83.7403 13.5915C84.7727 14.069 85.6816 14.7782 86.3964 15.6642L85.4331 18.5597C84.1947 17.4332 82.6161 16.7538 80.9481 16.6293C80.2785 16.5664 79.6032 16.6411 78.9634 16.8488C78.3236 17.0565 77.7328 17.3928 77.2272 17.8371C76.7216 18.2815 76.3118 18.8245 76.023 19.433C75.7341 20.0415 75.5722 20.7027 75.5472 21.376C75.5364 22.0396 75.6724 22.6973 75.9455 23.3018C76.2185 23.9064 76.6218 24.4429 77.1264 24.8728C78.2193 25.8049 79.6251 26.2857 81.0587 26.2177C82.8145 26.1912 84.4998 25.5214 85.7963 24.3348L86.8228 27.2303C86.015 28.1173 85.0288 28.8227 83.929 29.3C82.8293 29.7773 81.6411 30.0156 80.4428 29.9992Z" fill="#50287D"/>
<path d="M154.918 29.9992C152.657 29.9992 150.488 29.0991 148.888 27.4967C147.289 25.8944 146.391 23.7212 146.391 21.4552C146.391 19.1891 147.289 17.0159 148.888 15.4136C150.488 13.8113 152.657 12.9111 154.918 12.9111C156.055 12.8813 157.183 13.1141 158.216 13.5915C159.248 14.069 160.157 14.7782 160.872 15.6642L159.909 18.5597C158.66 17.4325 157.069 16.7583 155.392 16.6452C154.723 16.5823 154.047 16.6569 153.407 16.8646C152.768 17.0723 152.177 17.4086 151.671 17.8529C151.166 18.2973 150.756 18.8403 150.467 19.4488C150.178 20.0573 150.016 20.7185 149.991 21.3919C149.98 22.0554 150.116 22.7131 150.389 23.3177C150.663 23.9223 151.066 24.4588 151.57 24.8886C152.663 25.8207 154.069 26.3015 155.503 26.2335C157.258 26.207 158.944 25.5372 160.24 24.3507L161.267 27.2462C160.461 28.1255 159.479 28.825 158.385 29.2994C157.291 29.7737 156.11 30.0121 154.918 29.9992Z" fill="#50287D"/>
<path d="M119.846 29.5246V27.8316C119.221 28.5079 118.464 29.048 117.621 29.4183C116.779 29.7885 115.87 29.9809 114.95 29.9835C113.837 29.9992 112.732 29.788 111.702 29.3625C110.673 28.9371 109.741 28.3063 108.962 27.5086C108.184 26.7109 107.575 25.7629 107.174 24.7223C106.773 23.6816 106.587 22.5701 106.628 21.4552C106.532 20.3457 106.671 19.2284 107.035 18.1765C107.4 17.1245 107.982 16.1615 108.744 15.3505C109.506 14.5395 110.43 13.8988 111.456 13.4702C112.482 13.0417 113.586 12.835 114.697 12.8636C116.595 12.878 118.414 13.6197 119.782 14.9364V13.3541H123.162V29.5246H119.846ZM110.086 21.4394C110.096 22.0925 110.237 22.737 110.503 23.3337C110.768 23.9304 111.151 24.4669 111.63 24.9107C112.108 25.3545 112.672 25.6964 113.286 25.9156C113.9 26.1348 114.552 26.2268 115.203 26.1861C116.052 26.2241 116.899 26.0704 117.68 25.7362C118.462 25.4021 119.159 24.8961 119.719 24.2558V18.5122C119.147 17.8876 118.448 17.3934 117.669 17.0631C116.889 16.7328 116.049 16.5741 115.203 16.5977C114.541 16.5444 113.876 16.6308 113.25 16.8514C112.625 17.0719 112.052 17.4218 111.569 17.8782C111.087 18.3346 110.706 18.8875 110.45 19.5009C110.195 20.1144 110.071 20.7748 110.086 21.4394Z" fill="#50287D"/>
<path d="M131.706 19.2873H139.602V13.259H143.092V29.5086H139.602V23.0056H131.706V29.5244H128.216V13.2748H131.706V19.3031V19.2873Z" fill="#50287D"/>
<path d="M169.137 25.0469H164.667V29.5246H169.137V25.0469Z" fill="#50287D"/>
<path d="M177.001 23.0057L164.667 -3.05176e-05H189.335L177.001 23.0057Z" fill="#D0DF00"/>
</svg>
