<svg width="98" height="60" viewBox="0 0 98 60" fill="none" xmlns="http://www.w3.org/2000/svg">
<path d="M0 16C0 7.16344 7.16344 0 16 0H82C90.8366 0 98 7.16344 98 16V44C98 52.8366 90.8366 60 82 60H16C7.16344 60 0 52.8366 0 44V16Z" fill="white"/>
<path d="M33.1978 49.7124V47.0576C33.2134 46.8344 33.1812 46.6103 33.1033 46.4005C33.0255 46.1906 32.9038 45.9998 32.7463 45.8407C32.5889 45.6816 32.3994 45.5578 32.1904 45.4778C31.9813 45.3977 31.7577 45.3631 31.5342 45.3763C31.2418 45.3573 30.9496 45.417 30.6882 45.5493C30.4267 45.6816 30.2055 45.8816 30.0476 46.1285C29.9037 45.889 29.6979 45.6927 29.4518 45.5603C29.2058 45.428 28.9286 45.3644 28.6494 45.3763C28.4061 45.3641 28.1638 45.4157 27.9465 45.5259C27.7292 45.6361 27.5445 45.8011 27.4106 46.0046V45.4826H26.4902V49.7124H27.4194V47.3673C27.3993 47.2226 27.4115 47.0753 27.4551 46.9359C27.4988 46.7964 27.5727 46.6684 27.6717 46.561C27.7707 46.4535 27.8922 46.3693 28.0276 46.3145C28.163 46.2596 28.3089 46.2354 28.4547 46.2435C29.0653 46.2435 29.3751 46.6418 29.3751 47.3585V49.7124H30.3042V47.3673C30.2856 47.2229 30.2989 47.0762 30.3431 46.9374C30.3873 46.7986 30.4613 46.6712 30.56 46.5641C30.6586 46.457 30.7796 46.3728 30.9142 46.3175C31.0489 46.2621 31.1941 46.2368 31.3396 46.2435C31.9678 46.2435 32.2687 46.6418 32.2687 47.3585V49.7124H33.1978ZM46.9492 45.4826H45.4449V44.1994H44.5158V45.4826H43.6574V46.3232H44.5158V48.2523C44.5158 49.2345 44.8963 49.8186 45.9847 49.8186C46.3913 49.8198 46.7901 49.7063 47.1351 49.4911L46.8696 48.7036C46.6228 48.8508 46.3427 48.933 46.0555 48.9425C45.5953 48.9425 45.4449 48.6593 45.4449 48.2346V46.3232H46.9492V45.4826ZM54.7984 45.3763C54.574 45.3697 54.352 45.4238 54.1558 45.5328C53.9595 45.6418 53.7963 45.8018 53.6834 45.9958V45.4826H52.7719V49.7124H53.6922V47.3408C53.6922 46.6418 53.9931 46.2524 54.5949 46.2524C54.7917 46.2497 54.9872 46.2858 55.17 46.3586L55.4532 45.4914C55.243 45.4162 55.0216 45.3773 54.7984 45.3763ZM42.9318 45.8188C42.4109 45.509 41.8119 45.3555 41.2062 45.3763C40.1355 45.3763 39.4453 45.8896 39.4453 46.7302C39.4453 47.4205 39.9585 47.8453 40.9053 47.978L41.3389 48.0399C41.8433 48.1106 42.0823 48.2434 42.0823 48.4823C42.0823 48.8097 41.746 48.9956 41.1177 48.9956C40.6124 49.0102 40.1168 48.8543 39.7107 48.5531L39.2771 49.2699C39.8132 49.6443 40.4553 49.8366 41.1089 49.8186C42.33 49.8186 43.0379 49.2433 43.0379 48.4381C43.0379 47.6948 42.4805 47.3054 41.5602 47.1726L41.1266 47.1107C40.7284 47.0576 40.4098 46.9781 40.4098 46.6949C40.4098 46.3851 40.7106 46.1993 41.2151 46.1993C41.6783 46.2063 42.132 46.3311 42.5336 46.5621L42.9318 45.8188ZM67.5852 45.3763C67.3609 45.3697 67.1388 45.4238 66.9426 45.5328C66.7464 45.6418 66.5832 45.8018 66.4703 45.9958V45.4826H65.5588V49.7124H66.4791V47.3408C66.4791 46.6418 66.78 46.2524 67.3817 46.2524C67.5785 46.2497 67.774 46.2858 67.9569 46.3586L68.2401 45.4914C68.0299 45.4162 67.8085 45.3773 67.5852 45.3763ZM55.7275 47.5974C55.7153 47.8954 55.7655 48.1926 55.8751 48.47C55.9846 48.7474 56.151 48.9988 56.3636 49.208C56.5761 49.4172 56.8301 49.5796 57.1092 49.6848C57.3883 49.79 57.6863 49.8355 57.9841 49.8186C58.5366 49.8464 59.0795 49.6664 59.506 49.3141L59.0636 48.5708C58.7454 48.8133 58.3575 48.9468 57.9575 48.9513C57.6126 48.9304 57.2887 48.7786 57.0519 48.527C56.8151 48.2754 56.6833 47.9429 56.6833 47.5974C56.6833 47.2519 56.8151 46.9194 57.0519 46.6678C57.2887 46.4162 57.6126 46.2645 57.9575 46.2435C58.3575 46.2481 58.7455 46.3815 59.0636 46.6241L59.506 45.8807C59.0795 45.5285 58.5366 45.3486 57.9841 45.3763C57.6863 45.3594 57.3883 45.405 57.1093 45.5101C56.8302 45.6153 56.5762 45.7777 56.3637 45.9869C56.1511 46.1961 55.9847 46.4474 55.8751 46.7248C55.7656 47.0022 55.7153 47.2994 55.7275 47.5974ZM64.3465 47.5974V45.4826H63.4262V45.9958C63.2691 45.7933 63.0658 45.6315 62.8333 45.5237C62.6009 45.4159 62.346 45.3654 62.09 45.3763C61.5197 45.4043 60.9821 45.6505 60.5884 46.064C60.1947 46.4775 59.9751 47.0265 59.9751 47.5975C59.9751 48.1684 60.1947 48.7175 60.5884 49.131C60.9821 49.5444 61.5197 49.7906 62.09 49.8186C62.346 49.8295 62.6009 49.779 62.8334 49.6712C63.0658 49.5634 63.2691 49.4015 63.4262 49.1991V49.7124H64.3465V47.5974ZM60.9219 47.5974C60.9362 47.3478 61.0232 47.1078 61.1722 46.9071C61.3212 46.7063 61.5257 46.5536 61.7605 46.4677C61.9953 46.3818 62.2501 46.3665 62.4935 46.4237C62.7369 46.4809 62.9582 46.608 63.1302 46.7895C63.3022 46.971 63.4173 47.1988 63.4613 47.4449C63.5054 47.691 63.4764 47.9446 63.3781 48.1744C63.2797 48.4043 63.1162 48.6003 62.9078 48.7384C62.6994 48.8764 62.4551 48.9504 62.2051 48.9513C62.0298 48.9537 61.856 48.9197 61.6945 48.8516C61.5331 48.7835 61.3875 48.6826 61.2669 48.5554C61.1464 48.4282 61.0535 48.2774 60.9941 48.1125C60.9347 47.9476 60.9101 47.7722 60.9219 47.5974ZM49.8164 45.3763C49.2425 45.4066 48.7026 45.6579 48.3099 46.0775C47.9173 46.4972 47.7025 47.0526 47.7105 47.6273C47.7185 48.2019 47.9487 48.7512 48.3529 49.1597C48.7571 49.5683 49.3038 49.8044 49.8783 49.8186C50.5097 49.8408 51.1271 49.6297 51.6127 49.2256L51.1614 48.5443C50.812 48.8244 50.3792 48.98 49.9314 48.9867C49.6273 49.0123 49.3252 48.9185 49.089 48.7253C48.8528 48.532 48.7011 48.2545 48.666 47.9513H51.8074C51.8163 47.8364 51.8251 47.7213 51.8251 47.5974C51.8163 46.2789 51.0021 45.3763 49.8164 45.3763ZM49.7986 46.1993C50.0766 46.1939 50.3454 46.2989 50.5461 46.4913C50.7468 46.6837 50.8631 46.9478 50.8694 47.2258H48.6748C48.691 46.9418 48.8176 46.6754 49.0276 46.4836C49.2376 46.2918 49.5144 46.1897 49.7986 46.1993ZM72.8858 47.5974V43.7836H71.9655V45.9958C71.8084 45.7934 71.6051 45.6315 71.3727 45.5237C71.1402 45.4159 70.8853 45.3654 70.6293 45.3763C70.0591 45.4043 69.5214 45.6505 69.1277 46.064C68.7339 46.4775 68.5143 47.0265 68.5143 47.5975C68.5143 48.1684 68.7339 48.7175 69.1277 49.131C69.5214 49.5445 70.0591 49.7907 70.6293 49.8186C70.8853 49.8295 71.1402 49.779 71.3727 49.6712C71.6051 49.5634 71.8084 49.4015 71.9655 49.1991V49.7124H72.8858V47.5974ZM74.4199 49.0994C74.4771 49.099 74.5337 49.1102 74.5864 49.1324C74.6371 49.1535 74.6832 49.1841 74.7224 49.2225C74.7613 49.2609 74.7924 49.3064 74.8141 49.3565C74.8362 49.408 74.8476 49.4635 74.8476 49.5196C74.8476 49.5757 74.8362 49.6311 74.8141 49.6827C74.7923 49.7326 74.7612 49.7779 74.7224 49.8161C74.6831 49.8545 74.637 49.8852 74.5864 49.9067C74.5338 49.9292 74.4771 49.9406 74.4199 49.9403C74.3357 49.9411 74.2532 49.9171 74.1825 49.8713C74.1119 49.8255 74.0563 49.7599 74.0227 49.6827C74.0007 49.6311 73.9893 49.5756 73.9893 49.5196C73.9893 49.4635 74.0007 49.408 74.0227 49.3565C74.0443 49.3064 74.0753 49.2609 74.114 49.2225C74.1531 49.1838 74.1995 49.1532 74.2505 49.1324C74.3042 49.1102 74.3618 49.0989 74.4199 49.0994ZM74.4199 49.8475C74.4635 49.8478 74.5067 49.8391 74.5468 49.8218C74.5852 49.8051 74.6201 49.7813 74.6497 49.7517C74.7108 49.69 74.7451 49.6066 74.7451 49.5198C74.7451 49.4329 74.7108 49.3496 74.6497 49.2879C74.6202 49.2584 74.5852 49.2348 74.5468 49.2184C74.5067 49.2014 74.4635 49.1928 74.4199 49.1932C74.3756 49.1928 74.3316 49.2014 74.2906 49.2184C74.2516 49.2345 74.216 49.2581 74.1861 49.2879C74.1249 49.3496 74.0906 49.4329 74.0906 49.5198C74.0906 49.6066 74.1249 49.69 74.1861 49.7517C74.2161 49.7815 74.2516 49.8053 74.2906 49.8218C74.3315 49.839 74.3755 49.8478 74.4199 49.8475ZM74.4447 49.323C74.4861 49.3203 74.5271 49.3321 74.5607 49.3565C74.574 49.3675 74.5847 49.3815 74.5917 49.3973C74.5988 49.4131 74.6021 49.4304 74.6013 49.4477C74.6018 49.4625 74.5991 49.4773 74.5935 49.491C74.588 49.5048 74.5796 49.5172 74.5689 49.5275C74.5433 49.5502 74.5108 49.5638 74.4766 49.5662L74.6044 49.7135H74.5045L74.386 49.5672H74.3479V49.7135H74.2644V49.323H74.4447ZM74.3479 49.3962V49.5003H74.4437C74.4621 49.5012 74.4804 49.4967 74.4963 49.4873C74.5027 49.483 74.5079 49.4771 74.5113 49.4701C74.5148 49.4632 74.5163 49.4554 74.5158 49.4477C74.5162 49.4401 74.5146 49.4325 74.5112 49.4257C74.5078 49.4189 74.5026 49.4132 74.4963 49.409C74.4803 49.3997 74.4621 49.3953 74.4437 49.3962H74.3479ZM69.4613 47.5974C69.4756 47.3478 69.5626 47.1078 69.7116 46.9071C69.8606 46.7064 70.0652 46.5537 70.3 46.4678C70.5347 46.3819 70.7895 46.3666 71.0329 46.4238C71.2763 46.481 71.4976 46.6082 71.6695 46.7896C71.8415 46.9711 71.9566 47.1989 72.0006 47.445C72.0447 47.6911 72.0157 47.9447 71.9173 48.1745C71.819 48.4044 71.6555 48.6004 71.447 48.7384C71.2386 48.8764 70.9943 48.9505 70.7443 48.9513C70.5691 48.9537 70.3953 48.9197 70.2338 48.8516C70.0724 48.7834 69.9268 48.6826 69.8062 48.5554C69.6857 48.4282 69.5928 48.2774 69.5334 48.1125C69.4741 47.9476 69.4495 47.7722 69.4613 47.5974ZM38.3834 47.5974V45.4826H37.4631V45.9958C37.306 45.7933 37.1027 45.6315 36.8702 45.5237C36.6378 45.4159 36.3828 45.3654 36.1268 45.3763C35.5566 45.4043 35.0189 45.6505 34.6252 46.064C34.2315 46.4775 34.012 47.0265 34.012 47.5975C34.012 48.1684 34.2315 48.7175 34.6252 49.131C35.0189 49.5444 35.5566 49.7906 36.1268 49.8186C36.3829 49.8295 36.6378 49.779 36.8702 49.6712C37.1027 49.5634 37.306 49.4015 37.4631 49.1991V49.7124H38.3834V47.5974ZM34.9588 47.5974C34.9731 47.3478 35.0602 47.1078 35.2092 46.9071C35.3582 46.7064 35.5627 46.5537 35.7975 46.4678C36.0323 46.3819 36.2871 46.3666 36.5305 46.4238C36.7738 46.481 36.9951 46.6082 37.1671 46.7896C37.3391 46.9711 37.4542 47.1989 37.4982 47.445C37.5422 47.6911 37.5133 47.9447 37.4149 48.1745C37.3165 48.4044 37.153 48.6004 36.9446 48.7384C36.7362 48.8765 36.4919 48.9505 36.2419 48.9513C36.0667 48.9537 35.8928 48.9197 35.7314 48.8516C35.5699 48.7834 35.4244 48.6826 35.3038 48.5554C35.1833 48.4282 35.0904 48.2774 35.031 48.1125C34.9716 47.9476 34.9471 47.7722 34.9588 47.5974Z" fill="#231F20"/>
<path d="M56.5466 13.2474H42.6074V38.2965H56.5466V13.2474Z" fill="#FF5F00"/>
<path d="M43.505 25.7719C43.5028 23.3595 44.0495 20.9782 45.1036 18.8083C46.1578 16.6384 47.6918 14.7368 49.5895 13.2474C47.2394 11.4002 44.4171 10.2514 41.445 9.93241C38.4729 9.61342 35.471 10.1371 32.7825 11.4435C30.0939 12.7499 27.8272 14.7864 26.2413 17.3201C24.6555 19.8539 23.8145 22.7828 23.8145 25.7719C23.8145 28.761 24.6555 31.6899 26.2413 34.2237C27.8272 36.7575 30.0939 38.7939 32.7825 40.1004C35.471 41.4068 38.4729 41.9304 41.445 41.6114C44.4171 41.2924 47.2394 40.1437 49.5895 38.2964C47.6918 36.807 46.1578 34.9054 45.1036 32.7355C44.0495 30.5656 43.5028 28.1843 43.505 25.7719Z" fill="#EB001B"/>
<path d="M75.3524 25.7719C75.3525 28.761 74.5116 31.6898 72.9258 34.2236C71.34 36.7574 69.0733 38.7939 66.3849 40.1003C63.6964 41.4067 60.6945 41.9304 57.7225 41.6114C54.7505 41.2924 51.9281 40.1437 49.5781 38.2964C51.4742 36.8055 53.007 34.9036 54.061 32.734C55.115 30.5645 55.6626 28.1839 55.6626 25.7719C55.6626 23.3599 55.115 20.9793 54.061 18.8098C53.007 16.6402 51.4742 14.7383 49.5781 13.2474C51.9281 11.4002 54.7505 10.2514 57.7225 9.93241C60.6945 9.61342 63.6964 10.1371 66.3849 11.4435C69.0733 12.7499 71.34 14.7864 72.9258 17.3202C74.5116 19.854 75.3525 22.7828 75.3524 25.7719Z" fill="#F79E1B"/>
<path d="M73.855 35.6429V35.13H74.0618V35.0256H73.5352V35.13H73.742V35.6429H73.855ZM74.8774 35.6429V35.0245H74.716L74.5303 35.4498L74.3446 35.0245H74.1831V35.6429H74.2971V35.1765L74.4712 35.5786H74.5894L74.7635 35.1754V35.6429H74.8774Z" fill="#F79E1B"/>
</svg>
