<svg width="98" height="60" viewBox="0 0 98 60" fill="none" xmlns="http://www.w3.org/2000/svg">
<path d="M0.5 16C0.5 7.43959 7.43959 0.5 16 0.5H82C90.5604 0.5 97.5 7.43959 97.5 16V44C97.5 52.5604 90.5604 59.5 82 59.5H16C7.43959 59.5 0.5 52.5604 0.5 44V16Z" stroke="#B8B8B8"/>
<path fill-rule="evenodd" clip-rule="evenodd" d="M62.2734 29.2284V38H67.4459V32.802H73.3079C75.7751 32.7847 77.8709 31.2999 78.6612 29.2284H62.2734Z" fill="#B8B8B8"/>
<path fill-rule="evenodd" clip-rule="evenodd" d="M61.5859 22C61.8872 25.5853 65.4875 28.4162 69.8845 28.4162C69.8989 28.4162 78.8782 28.4162 78.8782 28.4162C78.9446 28.0874 78.9793 27.748 78.9793 27.401C78.9793 24.431 76.436 22.022 73.2897 22.0001L61.5859 22Z" fill="#B8B8B8"/>
<path fill-rule="evenodd" clip-rule="evenodd" d="M53.9306 28.3309L53.9347 28.3227L53.9352 28.3229C53.9882 28.2332 54.0898 28.1726 54.2065 28.1726C54.375 28.1726 54.5121 28.2991 54.5167 28.4568L54.5168 28.4569V37.9188H59.6892V22H54.5168C53.8609 22.0206 53.1198 22.474 52.8443 23.0307L48.7281 31.3472C48.7179 31.3812 48.702 31.4129 48.6814 31.4414L48.6801 31.4442L48.6795 31.444C48.6173 31.5285 48.5136 31.5838 48.3961 31.5838C48.2057 31.5838 48.0513 31.4383 48.0513 31.2589V22H42.8789V37.9188H48.0513V37.917C48.7001 37.885 49.4237 37.4367 49.6952 36.8881L53.92 28.3524C53.9232 28.3451 53.9268 28.3379 53.9306 28.3309Z" fill="#B8B8B8"/>
<path fill-rule="evenodd" clip-rule="evenodd" d="M34.6167 28.603L31.5936 37.9188H27.8727L24.8478 28.5974C24.8186 28.4481 24.6798 28.335 24.5129 28.335C24.3249 28.335 24.1724 28.4787 24.1724 28.6558C24.1724 28.6572 24.1724 28.6585 24.1724 28.6599L24.1724 37.9188H19V22H23.4397H24.7619C25.7136 22 26.711 22.6959 26.9891 23.5529L29.5064 31.3101C29.6316 31.6961 29.8348 31.6956 29.9599 31.3101L32.4772 23.5529C32.7555 22.6953 33.7526 22 34.7044 22L36.0263 22H40.4655V37.9188H35.2931V28.6599C35.2931 28.6585 35.2931 28.6572 35.2931 28.6558C35.2931 28.4787 35.1406 28.335 34.9526 28.335C34.7836 28.335 34.6434 28.451 34.6167 28.603Z" fill="#B8B8B8"/>
</svg>
