<?xml version="1.0" encoding="UTF-8"?>
<svg width="105px" height="12px" viewBox="0 0 105 12" version="1.1" xmlns="http://www.w3.org/2000/svg" xmlns:xlink="http://www.w3.org/1999/xlink">
    <title>SvgjsPath1007</title>
    <g id="01-BankAuto" stroke="none" stroke-width="1" fill="none" fill-rule="evenodd">
        <g id="01-BankAuto-01" transform="translate(-210.000000, -30.000000)" fill="#B31B2C" fill-rule="nonzero">
            <g id="logo" transform="translate(203.300000, 29.999900)">
                <path d="M111.722187,3.55271368e-15 L108.979903,3.55271368e-15 L107.499412,4.50003375 L106.888916,4.50003375 L105.399424,3.55271368e-15 L102.69944,3.55271368e-15 L104.799428,6.000025 L102.69944,11.9999 L105.399424,11.9999 L106.899415,7.199928 L107.499412,7.199928 L108.999403,11.9999 L111.699387,11.9999 L109.5994,6.000025 L111.722187,3.55271368e-15 Z M93.9994907,3.55271368e-15 L92.7994977,11.9999 L95.494382,11.9999 L95.7994802,8.9998875 L98.4994645,8.9998875 L98.8372625,11.9999 L101.499447,11.9999 L100.299454,3.55271368e-15 L93.9994907,3.55271368e-15 Z M6.7,11.9999 L9.39998425,11.9999 L9.39998425,8.400011 L14.7999527,8.400011 L14.7999527,1.77635684e-15 L6.7,1.77635684e-15 L6.7,11.9999 Z M74.1996062,2.70004425 L76.8995905,2.70004425 L76.8995905,11.9999 L79.5995747,11.9999 L79.5995747,2.70004425 L82.299559,2.70004425 L82.2722592,6.21724894e-15 L74.1996062,6.21724894e-15 L74.1996062,2.70004425 Z M64.8996605,11.9999 L72.9996132,11.9999 L72.9996132,8.09989275 L70.299629,8.09989275 L70.299629,9.30000575 L67.5996447,9.30000575 L67.5996447,2.400076 L70.299629,2.400076 L70.299629,3.600039 L72.9996132,3.600039 L72.9996132,1.77635684e-15 L64.8996605,1.77635684e-15 L64.8996605,11.9999 Z M26.4998845,11.9999 L34.5998372,11.9999 L34.5998372,8.09989275 L31.899853,8.09989275 L31.899853,9.30000575 L29.1998687,9.30000575 L29.1998687,2.400076 L31.899853,2.400076 L31.899853,3.600039 L34.5998372,3.600039 L34.5998372,1.77635684e-15 L26.4998845,1.77635684e-15 L26.4998845,11.9999 Z M16.5999422,11.9999 L24.699895,11.9999 L24.699895,3.55271368e-15 L16.5999422,3.55271368e-15 L16.5999422,11.9999 Z M54.9997182,11.9999 L63.099671,11.9999 L63.099671,8.09989275 L60.3996867,8.09989275 L60.3996867,9.30000575 L57.6997025,9.30000575 L57.6997025,2.400076 L60.3996867,2.400076 L60.3996867,3.600039 L63.099671,3.600039 L63.099671,1.77635684e-15 L54.9997182,1.77635684e-15 L54.9997182,11.9999 Z M83.499552,11.9999 L86.1995362,11.9999 L86.1995362,8.400011 L91.5995047,8.400011 L91.5995047,1.77635684e-15 L83.499552,1.77635684e-15 L83.499552,11.9999 Z M45.099776,11.9999 L53.1997287,11.9999 L53.1997287,3.55271368e-15 L45.099776,3.55271368e-15 L45.099776,11.9999 Z M36.3998267,11.9999 L39.099811,11.9999 L39.099811,2.70004425 L43.2997865,2.70004425 L43.2997865,1.77635684e-15 L36.3998267,1.77635684e-15 L36.3998267,11.9999 Z M19.2999265,2.70004425 L21.9999107,2.70004425 L21.9999107,9.30000575 L19.2999265,9.30000575 L19.2999265,2.70004425 Z M47.7997602,2.70004425 L50.4997445,2.70004425 L50.4997445,9.30000575 L47.7997602,9.30000575 L47.7997602,2.70004425 Z M9.39998425,2.70004425 L12.0999685,2.70004425 L12.0999685,5.69996675 L9.39998425,5.69996675 L9.39998425,2.70004425 Z M86.1995362,2.70004425 L88.8995205,2.70004425 L88.8995205,5.69996675 L86.1995362,5.69996675 L86.1995362,2.70004425 Z M96.0994785,6.29999325 L96.3994767,2.70004425 L97.899468,2.70004425 L98.1994662,6.29999325 L96.0994785,6.29999325 Z" id="SvgjsPath1007"></path>
            </g>
        </g>
    </g>
</svg>