<svg width="70" height="50" viewBox="0 0 70 50" fill="none" xmlns="http://www.w3.org/2000/svg">
<path d="M68.5582 7.82353C67.751 4.76471 65.3869 2.35294 62.3885 1.52941C56.9108 0 34.9999 0 34.9999 0C34.9999 0 13.0889 0 7.61117 1.47059C4.67049 2.29412 2.24875 4.76471 1.44151 7.82353C0 13.4118 0 25 0 25C0 25 0 36.6471 1.44151 42.1765C2.24875 45.2353 4.61283 47.6471 7.61117 48.4706C13.1466 50 34.9999 50 34.9999 50C34.9999 50 56.9108 50 62.3885 48.5294C65.3869 47.7059 67.751 45.2941 68.5582 42.2353C69.9997 36.6471 69.9997 25.0588 69.9997 25.0588C69.9997 25.0588 70.0574 13.4118 68.5582 7.82353Z" fill="#990031"/>
<path d="M28.0228 35.706L46.2434 25.0001L28.0228 14.2942V35.706Z" fill="white"/>
</svg>
