<svg xmlns="http://www.w3.org/2000/svg" xmlns:xlink="http://www.w3.org/1999/xlink" width="30" height="38" viewBox="0 0 30 38">
    <defs>
        <circle id="finishmarkerA" cx="9" cy="9" r="9"/>
        <path id="finishmarkerC" d="M5.207 16.667a.54.54 0 0 1-.54-.541V3.874a.54.54 0 1 1 1.08 0v12.252a.54.54 0 0 1-.54.54zM6.92 4.143c2.96 1.362 5.447-1.364 8.414 0v6.588c-2.967-1.364-5.454 1.362-8.414 0V4.143z"/>
    </defs>
    <g fill="none" fill-rule="evenodd">
        <path fill="#1875F0" fill-rule="nonzero" d="M15.004 0c11.11 0 18.308 11.826 13.457 21.76C26.114 26.804 18.29 34.372 15.004 38 11.56 34.058 4.206 27.12 1.703 21.917-3.461 12.141 3.737 0 15.003 0zm0 5.676c5.163 0 9.389 4.258 9.389 9.46 0 5.204-4.226 9.462-9.39 9.462-5.163 0-9.388-4.258-9.388-9.461s4.225-9.46 9.389-9.46z"/>
        <g transform="translate(6 6)">
            <mask id="finishmarkerB" fill="#fff">
                <use xlink:href="#finishmarkerA"/>
            </mask>
            <use fill="#FFF" fill-rule="nonzero" xlink:href="#finishmarkerA"/>
            <g mask="url(#finishmarkerB)">
                <use fill="#F00" fill-rule="nonzero" transform="translate(-1 2)" xlink:href="#finishmarkerC"/>
            </g>
        </g>
    </g>
</svg>
