<svg width="119" height="53" viewBox="0 0 119 53" fill="none" xmlns="http://www.w3.org/2000/svg">
<path fill-rule="evenodd" clip-rule="evenodd" d="M0.193762 8.00822C-0.0971699 7.28702 0.212425 6.47261 0.886976 6.11915C0.891311 6.11687 1.13124 6.0135 1.1585 6.00294C1.24172 5.97067 1.36272 5.92442 1.51987 5.86605C1.83415 5.74934 2.29318 5.5841 2.88408 5.38525C4.06562 4.98765 5.77587 4.45515 7.91152 3.90735C12.1795 2.81259 18.1647 1.65194 25.0357 1.39156C38.7767 0.870814 56.18 3.95398 70.3704 18.4962C74.9528 23.1923 77.6219 28.0052 78.9201 32.4441C80.4321 31.9702 82.0364 31.6054 83.7023 31.3647C94.7815 29.7641 109.06 33.5862 118.384 48.1297C118.831 48.8271 118.628 49.7549 117.931 50.202C117.233 50.6492 116.305 50.4463 115.858 49.7489C107.245 36.3145 94.1926 32.8803 84.1313 34.3339C82.5216 34.5664 81.0004 34.9224 79.5944 35.3774C80.0996 38.4029 79.9706 41.1824 79.4038 43.5382C78.6482 46.6782 77.0539 49.2569 74.9261 50.4313C73.8288 51.037 72.577 51.2668 71.3125 50.9362C70.0631 50.6096 68.9723 49.7813 68.0814 48.5882L68.0066 48.4881L67.9495 48.3769C66.9363 46.4077 66.7123 44.3774 67.1866 42.4331C67.6549 40.5136 68.7789 38.7718 70.3104 37.2809C71.8386 35.7931 73.8159 34.5101 76.102 33.5003C74.9761 29.5038 72.5658 25.0417 68.2232 20.5914C54.818 6.85378 38.3653 3.88856 25.1493 4.3894C18.5417 4.63981 12.7731 5.75744 8.6569 6.81327C6.60045 7.34076 4.96102 7.85164 3.8409 8.22858C3.28096 8.417 2.85117 8.57184 2.56433 8.67837C2.42093 8.73163 2.31329 8.7728 2.24302 8.80004C2.20789 8.81367 2.18211 8.8238 2.16587 8.83023L2.1487 8.83705L2.146 8.83813C1.3779 9.14755 0.503592 8.77625 0.193762 8.00822ZM76.7308 36.5127C74.9909 37.3445 73.5227 38.3405 72.403 39.4305C71.1709 40.63 70.4052 41.8977 70.1012 43.1441C69.8115 44.3316 69.9178 45.5856 70.5603 46.8917C71.1259 47.6159 71.656 47.9252 72.0713 48.0338C72.49 48.1432 72.9549 48.0927 73.4765 47.8048C74.5865 47.1922 75.8386 45.5311 76.487 42.8364C76.9151 41.0572 77.0539 38.9069 76.7308 36.5127Z" fill="#181818"/>
</svg>
