<svg xmlns="http://www.w3.org/2000/svg" width="150" height="150" viewBox="0 0 150 150">
  <g fill="none" fill-rule="evenodd">
    <polygon fill="#FFF" points="0 150 150 150 150 0 0 0"/>
    <polygon fill="#A5A5A5" points="59.303 130.443 79.724 130.443 79.724 113.475 59.303 113.475"/>
    <g transform="translate(6 14)">
      <path fill="#CECECE" d="M117.6758 107.0781L8.3708 107.0781C4.0368 107.0781.5238 103.5641.5238 99.2301L.5238 23.8541C.5238 19.5201 4.0368 16.0071 8.3708 16.0071L117.6758 16.0071C122.0098 16.0071 125.5238 19.5201 125.5238 23.8541L125.5238 99.2301C125.5238 103.5641 122.0098 107.0781 117.6758 107.0781M107.0859 116.6758L19.9399 116.6758C19.5259 116.6758 19.1899 116.3398 19.1899 115.9258 19.1899 115.5118 19.5259 115.1758 19.9399 115.1758L107.0859 115.1758C107.4999 115.1758 107.8359 115.5118 107.8359 115.9258 107.8359 116.3398 107.4999 116.6758 107.0859 116.6758"/>
      <path fill="#FFF" d="M117.8789,91.6406 L8.6269,91.6406 C6.0389,91.6406 3.9409,89.5426 3.9409,86.9536 L3.9409,23.8276 C3.9409,21.2396 6.0389,19.1406 8.6269,19.1406 L117.8789,19.1406 C120.4679,19.1406 122.5659,21.2396 122.5659,23.8276 L122.5659,86.9536 C122.5659,89.5426 120.4679,91.6406 117.8789,91.6406"/>
      <path fill="#E1E1E1" d="M66.126,77.2754 C65.774,77.5144 65.47,77.7424 65.146,77.9374 C63.935,78.6664 62.832,78.4494 61.935,77.3204 C61.206,76.4034 61.292,75.2144 62.148,74.2594 C62.918,73.4004 63.697,72.5484 64.439,71.6654 C64.704,71.3494 65.123,70.9694 64.628,70.5224 C64.143,70.0854 63.813,70.4914 63.526,70.8174 C62.34,72.1744 61.109,73.4994 60.009,74.9234 C58.186,77.2834 56.443,76.5314 55.351,75.1094 C54.632,74.1744 54.682,73.1564 55.451,72.2694 C56.884,70.6194 58.353,69.0004 59.769,67.3374 C59.942,67.1324 59.886,66.7324 59.936,66.4234 C59.595,66.4564 59.115,66.3554 58.938,66.5424 C57.775,67.7624 56.676,69.0414 55.563,70.3084 C55,70.9514 54.456,71.6124 53.899,72.2614 C53.268,72.9964 52.453,73.0484 51.633,72.7414 C50.677,72.3824 49.915,71.7054 49.695,70.6974 C49.583,70.1864 49.683,69.4454 49.995,69.0564 C51.563,67.1084 53.23,65.2394 54.872,63.3504 C55.413,62.7274 56.028,62.1644 56.512,61.5014 C56.7,61.2424 56.619,60.7874 56.661,60.4214 C56.327,60.5094 55.877,60.4914 55.679,60.7064 C54.556,61.9164 53.495,63.1824 52.411,64.4284 C51.095,65.9424 49.785,67.4624 48.456,68.9644 C47.627,69.9024 46.073,69.8184 45.038,68.8074 C43.857,67.6574 43.796,66.5554 44.881,65.3094 C48.026,61.6974 51.292,58.1834 54.291,54.4544 C56.076,52.2334 58.529,51.1634 60.787,49.6984 C62.211,48.7734 63.687,48.8404 65.209,48.8944 C65.449,48.9034 65.756,49.1864 65.898,49.4224 C66.474,50.3784 66.967,51.3814 67.545,52.3354 C68.875,54.5284 71.112,55.2484 73.559,54.3074 C75.132,53.7034 75.93,52.5024 75.513,51.1984 C75.301,50.5344 74.888,49.9344 74.563,49.3064 C74.418,49.0284 74.267,48.7544 74.032,48.3174 C76.281,48.5844 78.084,47.6914 79.968,46.7754 C82.134,52.3234 85.26,57.2294 88.73,61.9674 C88.15,62.4554 87.638,62.8944 87.112,63.3214 C86.931,63.4684 86.72,63.5824 86.626,63.6434 C85.649,63.0884 84.792,62.4194 83.82,62.0874 C81.537,61.3104 79.565,62.8354 79.567,65.2494 L79.567,65.8614 C78.463,65.4424 77.409,65.1844 76.263,65.7314 C75.134,66.2684 74.573,67.1324 74.321,68.3874 C73.092,67.3734 71.81,67.1604 70.434,67.8914 C69.062,68.6214 68.453,69.7674 68.603,71.3844 C66.974,71.1554 65.741,71.6784 65.038,73.2004 C64.292,74.8164 65.48,75.9214 66.126,77.2754"/>
      <path stroke="#E1E1E1" stroke-linecap="round" stroke-linejoin="round" stroke-width=".991" d="M66.126,77.2754 C65.774,77.5144 65.47,77.7424 65.146,77.9374 C63.935,78.6664 62.832,78.4494 61.935,77.3204 C61.206,76.4034 61.292,75.2144 62.148,74.2594 C62.918,73.4004 63.697,72.5484 64.439,71.6654 C64.704,71.3494 65.123,70.9694 64.628,70.5224 C64.143,70.0854 63.813,70.4914 63.526,70.8174 C62.34,72.1744 61.109,73.4994 60.009,74.9234 C58.186,77.2834 56.443,76.5314 55.351,75.1094 C54.632,74.1744 54.682,73.1564 55.451,72.2694 C56.884,70.6194 58.353,69.0004 59.769,67.3374 C59.942,67.1324 59.886,66.7324 59.936,66.4234 C59.595,66.4564 59.115,66.3554 58.938,66.5424 C57.775,67.7624 56.676,69.0414 55.563,70.3084 C55,70.9514 54.456,71.6124 53.899,72.2614 C53.268,72.9964 52.453,73.0484 51.633,72.7414 C50.677,72.3824 49.915,71.7054 49.695,70.6974 C49.583,70.1864 49.683,69.4454 49.995,69.0564 C51.563,67.1084 53.23,65.2394 54.872,63.3504 C55.413,62.7274 56.028,62.1644 56.512,61.5014 C56.7,61.2424 56.619,60.7874 56.661,60.4214 C56.327,60.5094 55.877,60.4914 55.679,60.7064 C54.556,61.9164 53.495,63.1824 52.411,64.4284 C51.095,65.9424 49.785,67.4624 48.456,68.9644 C47.627,69.9024 46.073,69.8184 45.038,68.8074 C43.857,67.6574 43.796,66.5554 44.881,65.3094 C48.026,61.6974 51.292,58.1834 54.291,54.4544 C56.076,52.2334 58.529,51.1634 60.787,49.6984 C62.211,48.7734 63.687,48.8404 65.209,48.8944 C65.449,48.9034 65.756,49.1864 65.898,49.4224 C66.474,50.3784 66.967,51.3814 67.545,52.3354 C68.875,54.5284 71.112,55.2484 73.559,54.3074 C75.132,53.7034 75.93,52.5024 75.513,51.1984 C75.301,50.5344 74.888,49.9344 74.563,49.3064 C74.418,49.0284 74.267,48.7544 74.032,48.3174 C76.281,48.5844 78.084,47.6914 79.968,46.7754 C82.134,52.3234 85.26,57.2294 88.73,61.9674 C88.15,62.4554 87.638,62.8944 87.112,63.3214 C86.931,63.4684 86.72,63.5824 86.626,63.6434 C85.649,63.0884 84.792,62.4194 83.82,62.0874 C81.537,61.3104 79.565,62.8354 79.567,65.2494 L79.567,65.8614 C78.463,65.4424 77.409,65.1844 76.263,65.7314 C75.134,66.2684 74.573,67.1324 74.321,68.3874 C73.092,67.3734 71.81,67.1604 70.434,67.8914 C69.062,68.6214 68.453,69.7674 68.603,71.3844 C66.974,71.1554 65.741,71.6784 65.038,73.2004 C64.292,74.8164 65.48,75.9214 66.126,77.2754 Z"/>
      <path fill="#CECECE" d="M43.665,65.0742 C42.131,64.1712 40.684,63.3192 39.143,62.4112 C42.429,57.9752 44.901,53.1722 46.77,47.9942 C50.003,48.8872 52.451,47.2482 54.898,45.6062 C56.368,44.6212 57.79,43.5522 59.324,42.6792 C59.972,42.3112 60.85,42.2452 61.626,42.2302 C63.907,42.1872 66.189,42.2292 68.472,42.2592 C69.265,42.2682 69.929,42.6132 70.309,43.3162 C71.684,45.8592 73.046,48.4092 74.376,50.9762 C74.845,51.8812 74.568,52.6312 73.664,53.1272 C72.456,53.7892 71.167,53.9192 69.91,53.3712 C69.384,53.1402 68.876,52.6742 68.565,52.1842 C67.838,51.0402 67.262,49.8022 66.562,48.6372 C66.404,48.3742 66.002,48.1202 65.7,48.1042 C64.518,48.0432 63.329,48.0572 62.144,48.0932 C61.809,48.1022 61.45,48.2272 61.148,48.3882 C59.613,49.2082 57.98,49.9072 56.599,50.9372 C55.176,51.9982 53.926,53.3242 52.733,54.6522 C49.992,57.7072 47.331,60.8342 44.639,63.9312 C44.331,64.2862 44.029,64.6452 43.665,65.0742"/>
      <path stroke="#CECECE" stroke-width=".991" d="M43.665,65.0742 C42.131,64.1712 40.684,63.3192 39.143,62.4112 C42.429,57.9752 44.901,53.1722 46.77,47.9942 C50.003,48.8872 52.451,47.2482 54.898,45.6062 C56.368,44.6212 57.79,43.5522 59.324,42.6792 C59.972,42.3112 60.85,42.2452 61.626,42.2302 C63.907,42.1872 66.189,42.2292 68.472,42.2592 C69.265,42.2682 69.929,42.6132 70.309,43.3162 C71.684,45.8592 73.046,48.4092 74.376,50.9762 C74.845,51.8812 74.568,52.6312 73.664,53.1272 C72.456,53.7892 71.167,53.9192 69.91,53.3712 C69.384,53.1402 68.876,52.6742 68.565,52.1842 C67.838,51.0402 67.262,49.8022 66.562,48.6372 C66.404,48.3742 66.002,48.1202 65.7,48.1042 C64.518,48.0432 63.329,48.0572 62.144,48.0932 C61.809,48.1022 61.45,48.2272 61.148,48.3882 C59.613,49.2082 57.98,49.9072 56.599,50.9372 C55.176,51.9982 53.926,53.3242 52.733,54.6522 C49.992,57.7072 47.331,60.8342 44.639,63.9312 C44.331,64.2862 44.029,64.6452 43.665,65.0742 Z"/>
      <path fill="#CECECE" d="M23.0996,58.873 C26.4566,51.974 29.7816,45.141 33.1476,38.224 C36.5646,40.255 39.8996,42.237 43.3936,44.313 C42.3746,46.764 41.4106,49.222 40.3376,51.633 C38.6576,55.408 36.3326,58.773 33.6086,61.872 C33.0326,62.526 32.5176,62.78 31.5876,62.368 C28.8156,61.139 25.9816,60.047 23.0996,58.873"/>
      <path stroke="#CECECE" stroke-width=".991" d="M23.0996,58.873 C26.4566,51.974 29.7816,45.141 33.1476,38.224 C36.5646,40.255 39.8996,42.237 43.3936,44.313 C42.3746,46.764 41.4106,49.222 40.3376,51.633 C38.6576,55.408 36.3326,58.773 33.6086,61.872 C33.0326,62.526 32.5176,62.78 31.5876,62.368 C28.8156,61.139 25.9816,60.047 23.0996,58.873 Z"/>
      <path fill="#E1E1E1" d="M83.127,43.2148 C86.422,41.1568 89.587,39.1818 92.825,37.1608 C96.087,43.8668 99.318,50.5098 102.598,57.2518 C101.218,57.8168 99.865,58.3698 98.511,58.9238 C97.173,59.4698 95.842,60.0368 94.488,60.5408 C94.234,60.6348 93.747,60.5848 93.599,60.4078 C90.735,56.9858 88.104,53.3968 86.077,49.4048 C85.052,47.3858 84.125,45.3178 83.127,43.2148"/>
      <path stroke="#E1E1E1" stroke-linecap="round" stroke-linejoin="round" stroke-width=".991" d="M83.127,43.2148 C86.422,41.1568 89.587,39.1818 92.825,37.1608 C96.087,43.8668 99.318,50.5098 102.598,57.2518 C101.218,57.8168 99.865,58.3698 98.511,58.9238 C97.173,59.4698 95.842,60.0368 94.488,60.5408 C94.234,60.6348 93.747,60.5848 93.599,60.4078 C90.735,56.9858 88.104,53.3968 86.077,49.4048 C85.052,47.3858 84.125,45.3178 83.127,43.2148 Z"/>
      <path fill="#CECECE" d="M72.2715,68.1934 C72.6195,68.4454 73.3445,68.8694 73.9425,69.4294 C74.7175,70.1564 75.3835,70.9994 76.1125,71.7784 C77.0825,72.8164 76.9215,74.1924 75.6915,75.2664 C74.6725,76.1554 73.3195,76.0864 72.4865,75.0734 C71.6245,74.0244 70.7925,72.9504 69.9425,71.8934 C69.3685,71.1804 69.2275,70.3814 69.6145,69.5704 C70.0375,68.6844 70.7515,68.1454 72.2715,68.1934"/>
      <path stroke="#CECECE" stroke-width=".991" d="M72.2715,68.1934 C72.6195,68.4454 73.3445,68.8694 73.9425,69.4294 C74.7175,70.1564 75.3835,70.9994 76.1125,71.7784 C77.0825,72.8164 76.9215,74.1924 75.6915,75.2664 C74.6725,76.1554 73.3195,76.0864 72.4865,75.0734 C71.6245,74.0244 70.7925,72.9504 69.9425,71.8934 C69.3685,71.1804 69.2275,70.3814 69.6145,69.5704 C70.0375,68.6844 70.7515,68.1454 72.2715,68.1934 Z"/>
      <path fill="#CECECE" d="M78.9844,72.5635 C78.8164,72.4965 78.3654,72.4325 78.0844,72.1805 C77.2524,71.4345 76.4384,70.6565 75.7084,69.8125 C74.8204,68.7895 74.9224,67.7545 75.8844,66.7515 C76.6634,65.9425 77.8944,65.8385 78.8524,66.5515 C79.5624,67.0795 80.2444,67.6475 80.9154,68.2245 C81.8434,69.0225 82.0054,69.6335 81.6284,70.7175 C81.3034,71.6475 80.1354,72.5425 78.9844,72.5635"/>
      <path stroke="#CECECE" stroke-width=".991" d="M78.9844,72.5635 C78.8164,72.4965 78.3654,72.4325 78.0844,72.1805 C77.2524,71.4345 76.4384,70.6565 75.7084,69.8125 C74.8204,68.7895 74.9224,67.7545 75.8844,66.7515 C76.6634,65.9425 77.8944,65.8385 78.8524,66.5515 C79.5624,67.0795 80.2444,67.6475 80.9154,68.2245 C81.8434,69.0225 82.0054,69.6335 81.6284,70.7175 C81.3034,71.6475 80.1354,72.5425 78.9844,72.5635 Z"/>
      <path fill="#CECECE" d="M80.2988,64.8066 C80.2108,63.8816 80.7658,63.2666 81.5148,62.8516 C82.2868,62.4236 83.1178,62.4966 83.8758,62.9556 C84.3028,63.2146 84.7038,63.5216 85.0908,63.8376 C86.2198,64.7606 86.2548,66.2436 85.1908,67.3226 C84.0338,68.4926 82.7798,68.5086 81.7488,67.3666 C80.3798,65.8496 80.3048,65.7186 80.2988,64.8066"/>
      <path stroke="#CECECE" stroke-width=".991" d="M80.2988,64.8066 C80.2108,63.8816 80.7658,63.2666 81.5148,62.8516 C82.2868,62.4236 83.1178,62.4966 83.8758,62.9556 C84.3028,63.2146 84.7038,63.5216 85.0908,63.8376 C86.2198,64.7606 86.2548,66.2436 85.1908,67.3226 C84.0338,68.4926 82.7798,68.5086 81.7488,67.3666 C80.3798,65.8496 80.3048,65.7186 80.2988,64.8066 Z"/>
      <path fill="#CECECE" d="M70.9873,75.6406 C70.9893,76.4336 70.1293,77.4276 69.1873,77.7206 C68.3023,77.9956 67.6743,77.7626 67.0923,76.8976 C66.6993,76.3126 66.3673,75.6856 65.9663,75.1066 C65.4493,74.3626 65.4303,73.6436 65.9463,72.8996 C66.4663,72.1476 67.2173,71.9746 68.0503,72.0986 C68.8713,72.2196 70.9843,74.8116 70.9873,75.6406"/>
      <path stroke="#CECECE" stroke-width=".991" d="M70.9873,75.6406 C70.9893,76.4336 70.1293,77.4276 69.1873,77.7206 C68.3023,77.9956 67.6743,77.7626 67.0923,76.8976 C66.6993,76.3126 66.3673,75.6856 65.9663,75.1066 C65.4493,74.3626 65.4303,73.6436 65.9463,72.8996 C66.4663,72.1476 67.2173,71.9746 68.0503,72.0986 C68.8713,72.2196 70.9843,74.8116 70.9873,75.6406 Z"/>
      <path fill="#FFF" d="M142.25,18.792 C142.25,28.789 134.146,36.894 124.147,36.894 C114.15,36.894 106.046,28.789 106.046,18.792 C106.046,8.794 114.15,0.689 124.147,0.689 C134.146,0.689 142.25,8.794 142.25,18.792"/>
      <path stroke="#E1E1E1" stroke-width="3" d="M142.25,18.792 C142.25,28.789 134.146,36.894 124.147,36.894 C114.15,36.894 106.046,28.789 106.046,18.792 C106.046,8.794 114.15,0.689 124.147,0.689 C134.146,0.689 142.25,8.794 142.25,18.792 Z"/>
      <path stroke="#FF2929" stroke-linecap="round" stroke-linejoin="round" stroke-width="1.5" d="M124.1475,27.0937 C115.9045,25.4677 119.0435,17.6977 116.8875,13.3207 C116.8875,13.3207 120.2935,13.9477 124.1475,11.3637 C127.7785,13.7457 131.4085,13.3207 131.4085,13.3207 C128.9505,16.9287 132.8455,25.5057 124.1475,27.0937 Z"/>
    </g>
  </g>
</svg>
