<svg xmlns="http://www.w3.org/2000/svg" width="150" height="150" viewBox="0 0 150 150">
  <g fill="none" fill-rule="evenodd">
    <polygon fill="#FFF" points="0 150 150 150 150 0 0 0"/>
    <polygon fill="#A5A5A5" points="64.112 131.148 86.984 131.148 86.984 112.143 64.112 112.143"/>
    <g transform="translate(5 18)">
      <path fill="#CECECE" d="M131.2109 102.6592L8.7889 102.6592C3.9359 102.6592-.0001 98.7232-.0001 93.8702L-.0001 9.4482C-.0001 4.5942 3.9359.6592 8.7889.6592L131.2109.6592C136.0649.6592 139.9999 4.5942 139.9999 9.4482L139.9999 93.8702C139.9999 98.7232 136.0649 102.6592 131.2109 102.6592M113.5723 113.3408L26.4273 113.3408C26.0123 113.3408 25.6773 113.0048 25.6773 112.5908 25.6773 112.1768 26.0123 111.8408 26.4273 111.8408L113.5723 111.8408C113.9873 111.8408 114.3223 112.1768 114.3223 112.5908 114.3223 113.0048 113.9873 113.3408 113.5723 113.3408"/>
      <path fill="#FFF" d="M131.7139,85.3408 L8.2859,85.3408 C5.3669,85.3408 2.9999,82.9748 2.9999,80.0548 L2.9999,8.9878 C2.9999,6.0688 5.3669,3.7018 8.2859,3.7018 L131.7139,3.7018 C134.6329,3.7018 136.9999,6.0688 136.9999,8.9878 L136.9999,80.0548 C136.9999,82.9748 134.6329,85.3408 131.7139,85.3408"/>
      <path fill="#E1E1E1" d="M98.5703 23.4912L11.4423 23.4912C10.4763 23.4912 9.6863 22.7012 9.6863 21.7362L9.6863 10.8652C9.6863 9.8992 10.4763 9.1102 11.4423 9.1102L98.5703 9.1102C99.5353 9.1102 100.3253 9.8992 100.3253 10.8652L100.3253 21.7362C100.3253 22.7052 99.5393 23.4912 98.5703 23.4912M75.4893 42.0908L11.4423 42.0908C10.4763 42.0908 9.6863 41.3008 9.6863 40.3348L9.6863 29.4648C9.6863 28.4988 10.4763 27.7088 11.4423 27.7088L75.4893 27.7088C76.4553 27.7088 77.2453 28.4988 77.2453 29.4648L77.2453 40.3348C77.2453 41.3048 76.4593 42.0908 75.4893 42.0908M12.0176 65.6572C11.5386 65.6572 11.1496 66.0472 11.1496 66.5252L11.1496 77.6712C11.1496 78.1492 11.5386 78.5392 12.0176 78.5392L89.0916 78.5392C89.5706 78.5392 89.9596 78.1492 89.9596 77.6712L89.9596 66.5252C89.9596 66.0472 89.5706 65.6572 89.0916 65.6572L12.0176 65.6572zM89.0916 80.0392L12.0176 80.0392C10.7116 80.0392 9.6496 78.9762 9.6496 77.6712L9.6496 66.5252C9.6496 65.2202 10.7116 64.1572 12.0176 64.1572L89.0916 64.1572C90.3976 64.1572 91.4596 65.2202 91.4596 66.5252L91.4596 77.6712C91.4596 78.9762 90.3976 80.0392 89.0916 80.0392L89.0916 80.0392zM12.4658 47.0586C11.9118 47.0586 11.4608 47.5096 11.4608 48.0636L11.4608 58.9346C11.4608 59.4886 11.9118 59.9396 12.4658 59.9396L103.4698 59.9396C104.0238 59.9396 104.4748 59.4886 104.4748 58.9346L104.4748 48.0636C104.4748 47.5096 104.0238 47.0586 103.4698 47.0586L12.4658 47.0586zM103.4698 61.4396L12.4658 61.4396C11.0848 61.4396 9.9608 60.3156 9.9608 58.9346L9.9608 48.0636C9.9608 46.6826 11.0848 45.5586 12.4658 45.5586L103.4698 45.5586C104.8508 45.5586 105.9748 46.6826 105.9748 48.0636L105.9748 58.9346C105.9748 60.3156 104.8508 61.4396 103.4698 61.4396L103.4698 61.4396z"/>
      <path stroke="#FF2929" stroke-width="2" d="M70.5488,48.9443 L70.5488,58.5323"/>
      <path fill="#A5A5A5" d="M20.21 53.8164C20.21 55.4254 18.905 56.7304 17.295 56.7304 15.686 56.7304 14.38 55.4254 14.38 53.8164 14.38 52.2074 15.686 50.9024 17.295 50.9024 18.905 50.9024 20.21 52.2074 20.21 53.8164M29.207 53.8164C29.207 55.4254 27.902 56.7304 26.292 56.7304 24.683 56.7304 23.377 55.4254 23.377 53.8164 23.377 52.2074 24.683 50.9024 26.292 50.9024 27.902 50.9024 29.207 52.2074 29.207 53.8164M38.0938 53.8164C38.0938 55.4254 36.7888 56.7304 35.1798 56.7304 33.5698 56.7304 32.2648 55.4254 32.2648 53.8164 32.2648 52.2074 33.5698 50.9024 35.1798 50.9024 36.7888 50.9024 38.0938 52.2074 38.0938 53.8164M47.0908 53.8164C47.0908 55.4254 45.7858 56.7304 44.1758 56.7304 42.5668 56.7304 41.2618 55.4254 41.2618 53.8164 41.2618 52.2074 42.5668 50.9024 44.1758 50.9024 45.7858 50.9024 47.0908 52.2074 47.0908 53.8164M56.3838 53.8164C56.3838 55.4254 55.0788 56.7304 53.4698 56.7304 51.8598 56.7304 50.5548 55.4254 50.5548 53.8164 50.5548 52.2074 51.8598 50.9024 53.4698 50.9024 55.0788 50.9024 56.3838 52.2074 56.3838 53.8164M65.3809 53.8164C65.3809 55.4254 64.0759 56.7304 62.4659 56.7304 60.8569 56.7304 59.5519 55.4254 59.5519 53.8164 59.5519 52.2074 60.8569 50.9024 62.4659 50.9024 64.0759 50.9024 65.3809 52.2074 65.3809 53.8164"/>
    </g>
  </g>
</svg>
