<svg xmlns="http://www.w3.org/2000/svg" width="151" height="150" viewBox="0 0 151 150">
  <g fill="none" fill-rule="evenodd" transform="translate(.667)">
    <polygon fill="#FFF" points="0 150 150 150 150 0 0 0"/>
    <polygon fill="#A5A5A5" points="64.112 131.148 86.984 131.148 86.984 112.143 64.112 112.143"/>
    <g transform="translate(5 18)">
      <path fill="#CECECE" d="M131.2109 102.6592L8.7889 102.6592C3.9359 102.6592-.0001 98.7232-.0001 93.8702L-.0001 9.4482C-.0001 4.5942 3.9359.6592 8.7889.6592L131.2109.6592C136.0649.6592 139.9999 4.5942 139.9999 9.4482L139.9999 93.8702C139.9999 98.7232 136.0649 102.6592 131.2109 102.6592M113.5723 113.3408L26.4273 113.3408C26.0123 113.3408 25.6773 113.0048 25.6773 112.5908 25.6773 112.1768 26.0123 111.8408 26.4273 111.8408L113.5723 111.8408C113.9873 111.8408 114.3223 112.1768 114.3223 112.5908 114.3223 113.0048 113.9873 113.3408 113.5723 113.3408"/>
      <path fill="#FFF" d="M131.7139,85.3408 L8.2859,85.3408 C5.3669,85.3408 2.9999,82.9748 2.9999,80.0548 L2.9999,8.9878 C2.9999,6.0688 5.3669,3.7018 8.2859,3.7018 L131.7139,3.7018 C134.6329,3.7018 136.9999,6.0688 136.9999,8.9878 L136.9999,80.0548 C136.9999,82.9748 134.6329,85.3408 131.7139,85.3408"/>
      <path fill="#E1E1E1" d="M36.375,20.2363 C36.375,25.7583 31.899,30.2363 26.378,30.2363 C20.856,30.2363 16.381,25.7583 16.381,20.2363 C16.381,14.7143 20.856,10.2363 26.378,10.2363 C31.899,10.2363 36.375,14.7143 36.375,20.2363"/>
      <path stroke="#CECECE" stroke-width="1.5" d="M36.375,20.2363 C36.375,25.7583 31.899,30.2363 26.378,30.2363 C20.856,30.2363 16.381,25.7583 16.381,20.2363 C16.381,14.7143 20.856,10.2363 26.378,10.2363 C31.899,10.2363 36.375,14.7143 36.375,20.2363 Z"/>
      <path fill="#CECECE" d="M20.3564 28.1826C20.3774 27.5076 20.5064 26.8766 20.9444 26.3466 21.2994 25.9166 21.7524 25.6166 22.2544 25.3906 22.7644 25.1616 23.2844 24.9536 23.7994 24.7376 23.8444 24.7176 23.8894 24.6986 23.9314 24.6746 24.6724 24.2496 24.6144 24.1896 24.6374 23.5236 24.6474 23.2276 24.5794 22.9856 24.4124 22.7296 24.2224 22.4376 24.1284 22.0836 23.9904 21.7576 23.9684 21.7076 23.9344 21.6616 23.9004 21.6196 23.7924 21.4786 23.6534 21.3536 23.5764 21.1986 23.4374 20.9156 23.3774 20.6086 23.4294 20.2896 23.4364 20.2466 23.4374 20.1956 23.4614 20.1636 23.6694 19.9016 23.5564 19.6246 23.5074 19.3486 23.3854 18.6666 23.3404 17.9846 23.5224 17.3056 23.7444 16.4776 24.2604 15.9156 25.0744 15.6416 25.7044 15.4296 26.3484 15.3726 27.0034 15.5006 27.3204 15.5626 27.6054 15.6926 27.8354 15.9276 27.8704 15.9626 27.9204 15.9896 27.9684 16.0016 28.7924 16.2046 29.2204 16.8306 29.3394 17.6196 29.4504 18.3466 29.3364 19.0556 29.1584 19.7586 29.1444 19.8116 29.1274 19.8856 29.1534 19.9226 29.3404 20.1996 29.3404 20.4986 29.2794 20.8086 29.2134 21.1346 29.1024 21.4356 28.8084 21.6356 28.7714 21.6616 28.7484 21.7196 28.7354 21.7676 28.6194 22.2146 28.4504 22.6356 28.1524 22.9966 28.1294 23.0246 28.1134 23.0676 28.1144 23.1026 28.1154 23.3746 28.1244 23.6476 28.1234 23.9206 28.1234 24.1376 28.2284 24.3006 28.3984 24.4066 28.6624 24.5706 28.9334 24.7236 29.2144 24.8546 29.7604 25.1096 30.3304 25.3176 30.8624 25.5966 31.5454 25.9546 32.0534 26.4926 32.2484 27.2646 32.3224 27.5606 32.3484 27.8676 32.3994 28.1826 30.4504 29.6236 28.3814 30.2366 26.3774 30.2366 24.3704 30.2366 22.0954 29.5466 20.3564 28.1826M124.6191 47.2578C124.6191 52.7798 120.1431 57.2578 114.6221 57.2578 109.1001 57.2578 104.6251 52.7798 104.6251 47.2578 104.6251 41.7348 109.1001 37.2578 114.6221 37.2578 120.1431 37.2578 124.6191 41.7348 124.6191 47.2578"/>
      <path stroke="#E1E1E1" stroke-width="1.5" d="M124.6191,47.2578 C124.6191,52.7798 120.1431,57.2578 114.6221,57.2578 C109.1001,57.2578 104.6251,52.7798 104.6251,47.2578 C104.6251,41.7348 109.1001,37.2578 114.6221,37.2578 C120.1431,37.2578 124.6191,41.7348 124.6191,47.2578 Z"/>
      <path fill="#E1E1E1" d="M108.6006,55.2031 C108.6216,54.5281 108.7506,53.8971 109.1886,53.3681 C109.5436,52.9381 109.9966,52.6381 110.4986,52.4121 C111.0086,52.1821 111.5286,51.9751 112.0436,51.7581 C112.0886,51.7391 112.1336,51.7201 112.1756,51.6951 C112.9166,51.2711 112.8586,51.2111 112.8816,50.5451 C112.8916,50.2481 112.8236,50.0071 112.6566,49.7501 C112.4666,49.4591 112.3726,49.1041 112.2346,48.7791 C112.2126,48.7291 112.1786,48.6831 112.1446,48.6401 C112.0366,48.5001 111.8976,48.3751 111.8206,48.2201 C111.6816,47.9371 111.6216,47.6301 111.6736,47.3111 C111.6806,47.2681 111.6816,47.2171 111.7056,47.1851 C111.9136,46.9231 111.8006,46.6461 111.7516,46.3701 C111.6296,45.6881 111.5846,45.0061 111.7666,44.3271 C111.9886,43.4991 112.5046,42.9361 113.3186,42.6631 C113.9486,42.4511 114.5926,42.3941 115.2476,42.5221 C115.5646,42.5841 115.8496,42.7141 116.0796,42.9481 C116.1146,42.9831 116.1646,43.0111 116.2126,43.0221 C117.0366,43.2261 117.4646,43.8521 117.5836,44.6401 C117.6946,45.3681 117.5806,46.0771 117.4026,46.7801 C117.3896,46.8331 117.3716,46.9071 117.3976,46.9441 C117.5846,47.2211 117.5846,47.5201 117.5236,47.8291 C117.4576,48.1561 117.3466,48.4571 117.0536,48.6561 C117.0156,48.6821 116.9926,48.7411 116.9796,48.7891 C116.8636,49.2361 116.6946,49.6571 116.3966,50.0181 C116.3736,50.0461 116.3576,50.0881 116.3586,50.1241 C116.3596,50.3961 116.3686,50.6691 116.3676,50.9421 C116.3676,51.1591 116.4726,51.3221 116.6436,51.4281 C116.9066,51.5921 117.1786,51.7451 117.4586,51.8761 C118.0046,52.1311 118.5746,52.3391 119.1066,52.6181 C119.7896,52.9761 120.2976,53.5141 120.4926,54.2861 C120.5666,54.5821 120.5926,54.8891 120.6436,55.2031 C118.6946,56.6441 116.6256,57.2581 114.6216,57.2581 C112.6146,57.2581 110.3396,56.5681 108.6006,55.2031"/>
      <path fill="#CECECE" d="M90.4619,26.5967 L41.5559,26.5967 C40.5909,26.5967 39.8019,25.8077 39.8019,24.8417 L39.8019,15.6307 C39.8019,14.6647 40.5909,13.8757 41.5559,13.8757 L90.4619,13.8757 C91.4269,13.8757 92.2169,14.6647 92.2169,15.6307 L92.2169,24.8417 C92.2169,25.8117 91.4309,26.5967 90.4619,26.5967"/>
      <path fill="#E1E1E1" d="M35.375,69.9385 C35.375,75.4605 30.899,79.9385 25.378,79.9385 C19.856,79.9385 15.381,75.4605 15.381,69.9385 C15.381,64.4155 19.856,59.9385 25.378,59.9385 C30.899,59.9385 35.375,64.4155 35.375,69.9385"/>
      <path stroke="#CECECE" stroke-width="1.5" d="M35.375,69.9385 C35.375,75.4605 30.899,79.9385 25.378,79.9385 C19.856,79.9385 15.381,75.4605 15.381,69.9385 C15.381,64.4155 19.856,59.9385 25.378,59.9385 C30.899,59.9385 35.375,64.4155 35.375,69.9385 Z"/>
      <path fill="#CECECE" d="M19.3564,77.8838 C19.3774,77.2088 19.5064,76.5778 19.9454,76.0488 C20.2994,75.6178 20.7524,75.3178 21.2544,75.0928 C21.7644,74.8628 22.2854,74.6558 22.7994,74.4388 C22.8444,74.4198 22.8894,74.4008 22.9314,74.3758 C23.6724,73.9518 23.6144,73.8918 23.6374,73.2258 C23.6474,72.9288 23.5794,72.6878 23.4124,72.4308 C23.2224,72.1398 23.1284,71.7848 22.9904,71.4598 C22.9694,71.4098 22.9344,71.3638 22.9014,71.3208 C22.7924,71.1808 22.6534,71.0558 22.5764,70.9008 C22.4374,70.6178 22.3784,70.3108 22.4294,69.9918 C22.4374,69.9488 22.4374,69.8978 22.4624,69.8658 C22.6694,69.6038 22.5564,69.3268 22.5074,69.0508 C22.3864,68.3688 22.3414,67.6868 22.5224,67.0078 C22.7444,66.1798 23.2604,65.6168 24.0754,65.3438 C24.7044,65.1318 25.3494,65.0748 26.0034,65.2028 C26.3204,65.2648 26.6054,65.3948 26.8354,65.6288 C26.8704,65.6638 26.9204,65.6918 26.9694,65.7028 C27.7924,65.9068 28.2204,66.5328 28.3394,67.3208 C28.4504,68.0488 28.3364,68.7578 28.1584,69.4608 C28.1454,69.5138 28.1284,69.5878 28.1534,69.6248 C28.3404,69.9018 28.3414,70.2008 28.2794,70.5098 C28.2134,70.8368 28.1024,71.1378 27.8094,71.3368 C27.7714,71.3628 27.7484,71.4218 27.7364,71.4698 C27.6194,71.9168 27.4504,72.3378 27.1524,72.6988 C27.1294,72.7268 27.1144,72.7688 27.1144,72.8048 C27.1154,73.0768 27.1254,73.3498 27.1244,73.6218 C27.1234,73.8398 27.2284,74.0028 27.3994,74.1088 C27.6624,74.2728 27.9344,74.4258 28.2144,74.5568 C28.7604,74.8118 29.3304,75.0198 29.8634,75.2988 C30.5454,75.6568 31.0534,76.1948 31.2484,76.9668 C31.3224,77.2618 31.3494,77.5698 31.3994,77.8838 C29.4514,79.3248 27.3814,79.9388 25.3774,79.9388 C23.3714,79.9388 21.0954,79.2488 19.3564,77.8838"/>
      <path stroke="#CECECE" stroke-width="1.5" d="M76.2705,76.2988 L41.5555,76.2988 C40.5905,76.2988 39.8015,75.5088 39.8015,74.5438 L39.8015,65.3318 C39.8015,64.3668 40.5905,63.5778 41.5555,63.5778 L76.2705,63.5778 C77.2355,63.5778 78.0255,64.3668 78.0255,65.3318 L78.0255,74.5438 C78.0255,75.5128 77.2395,76.2988 76.2705,76.2988 Z"/>
      <path fill="#E1E1E1" d="M98.8008,53.6182 L67.7638,53.6182 C66.7988,53.6182 66.0088,52.8282 66.0088,51.8632 L66.0088,42.6512 C66.0088,41.6862 66.7988,40.8972 67.7638,40.8972 L98.8008,40.8972 C99.7658,40.8972 100.5548,41.6862 100.5548,42.6512 L100.5548,51.8632 C100.5548,52.8322 99.7698,53.6182 98.8008,53.6182"/>
    </g>
    <text fill="#FF2929" font-family=".AppleSystemUIFont" font-size="8.768">
      <tspan x="57.133" y="89.768">$$$</tspan>
    </text>
  </g>
</svg>
