<svg xmlns="http://www.w3.org/2000/svg" width="151" height="150" viewBox="0 0 151 150">
  <g fill="none" fill-rule="evenodd" transform="translate(.333)">
    <polygon fill="#FFF" points="0 150 150 150 150 0 0 0"/>
    <g transform="translate(8 4)">
      <path fill="#CECECE" d="M59.4492 24.5898C54.7002 30.7408 50.1872 37.9258 46.2452 45.8928 41.3522 55.7768 37.8362 65.8328 35.9202 75.2168 46.1692 77.4398 58.8042 78.4858 72.4042 77.9228 82.9382 77.4848 93.0152 76.1178 101.9002 73.9748 97.3692 65.5088 91.2292 56.5908 83.9702 48.0078 76.1072 38.7108 67.6392 30.6478 59.4492 24.5898M115.9746 71.123C112.3726 72.579 108.3896 73.869 104.1106 74.974 105.8186 78.301 107.2836 81.554 108.4566 84.681 109.9956 88.779 110.9716 92.495 111.4126 95.784 119.3376 87.725 124.7876 77.227 126.5296 65.517 123.7506 67.517 120.2226 69.404 115.9746 71.123M59.1855 22.5488C66.3675 13.5488 74.0715 6.8658 81.2445 3.3558 78.3535 2.8838 75.3905 2.6278 72.3665 2.6278 60.5335 2.6278 49.5855 6.3938 40.6305 12.7748 43.9985 13.7268 47.7725 15.3968 51.8695 17.7748 54.2635 19.1628 56.7115 20.7698 59.1855 22.5488M32.791 88.1826C32.926 84.4286 33.397 80.4656 34.167 76.3736 28.338 75.0096 23.327 73.2436 19.346 71.1596 21.747 80.4346 26.526 88.7466 32.982 95.4306 32.768 93.1756 32.697 90.7596 32.791 88.1826"/>
      <path fill="#A5A5A5" d="M10.7197 59.2178C10.5677 55.5668 13.2007 51.8598 18.3427 48.4288 18.4527 47.7558 18.5667 47.0838 18.7007 46.4188 12.3157 50.3548 9.0347 54.7928 9.2217 59.2798 9.4097 63.8378 13.1027 67.8918 19.3457 71.1588 19.1827 70.5288 19.0417 69.8878 18.9007 69.2478 13.8417 66.3888 10.8757 62.9758 10.7197 59.2178M132.3271 54.1699C132.4551 57.2689 130.5111 60.4389 126.7971 63.4149 126.7201 64.1189 126.6331 64.8199 126.5291 65.5169 131.4481 61.9749 133.9891 58.0759 133.8251 54.1079 133.6581 50.0899 130.6891 46.3029 125.2421 43.1239 125.4271 43.8089 125.5941 44.4989 125.7511 45.1939 129.9301 47.9169 132.1941 50.9929 132.3271 54.1699M43.4688 112.4189C38.7538 110.0859 35.7488 104.7669 34.6858 97.1169 34.1058 96.5659 33.5378 96.0059 32.9828 95.4309 33.8598 104.6069 37.2408 111.0109 42.8028 113.7629 44.7578 114.7309 46.9138 115.2119 49.2368 115.2119 53.1188 115.2119 57.4638 113.8659 62.0928 111.1969L62.0848 111.1839C61.3358 111.0409 60.5948 110.8819 59.8568 110.7089 53.5188 114.0049 47.8758 114.5999 43.4688 112.4189M110.041 97.1221C110.526 102.2371 109.536 106.0881 107.047 108.1931 104.03 110.7431 99.028 110.7731 92.515 108.3181 91.824 108.5921 91.129 108.8531 90.426 109.0991 94.425 110.7781 97.974 111.6301 100.978 111.6301 103.838 111.6301 106.209 110.8661 108.016 109.3381 111.125 106.7081 112.251 102.0311 111.413 95.7841 110.965 96.2391 110.505 96.6831 110.041 97.1221M97.4541 3.335C100.9621 5.071 103.5801 8.561 105.1071 13.49 105.7771 13.99 106.4331 14.508 107.0791 15.037 105.5641 8.656 102.4751 4.146 98.1201 1.991 93.3691-.358 87.5101.289 81.2441 3.356 82.0501 3.486 82.8501 3.631 83.6431 3.797 88.7791 1.674 93.5321 1.394 97.4541 3.335M28.4492 15.2627C30.8032 13.2707 34.4672 12.8517 39.0562 13.9347 39.5742 13.5367 40.0992 13.1527 40.6312 12.7747 34.9712 11.1727 30.4562 11.5987 27.4802 14.1177 23.9202 17.1267 22.9282 22.8327 24.5952 30.6187 24.9672 29.9567 25.3472 29.3017 25.7462 28.6577 24.6622 22.3017 25.5792 17.6887 28.4492 15.2627"/>
      <path fill="#A5A5A5" d="M72.4043,77.9229 C58.8043,78.4849 46.1693,77.4399 35.9203,75.2169 C37.8363,65.8329 41.3523,55.7769 46.2453,45.8929 C50.1873,37.9259 54.7003,30.7409 59.4493,24.5899 C67.6393,30.6479 76.1073,38.7109 83.9703,48.0079 C91.2293,56.5909 97.3693,65.5089 101.9003,73.9749 C93.0153,76.1179 82.9383,77.4849 72.4043,77.9229 M104.1103,74.9739 C108.3893,73.8689 112.3733,72.5789 115.9743,71.1229 C120.2223,69.4039 123.7513,67.5169 126.5293,65.5169 C126.6333,64.8199 126.7193,64.1189 126.7973,63.4149 C123.9793,65.6719 120.1453,67.8169 115.4123,69.7329 C111.7763,71.2029 107.7393,72.4979 103.3993,73.6059 C98.7993,64.9439 92.5363,55.8129 85.1153,47.0389 C77.1893,37.6679 68.6443,29.5319 60.3673,23.4049 C68.0203,13.7709 76.2293,6.8609 83.6433,3.7969 C82.8503,3.6309 82.0503,3.4859 81.2443,3.3559 C74.0713,6.8659 66.3673,13.5489 59.1853,22.5489 C56.7123,20.7699 54.2633,19.1629 51.8693,17.7749 C47.7723,15.3969 43.9993,13.7269 40.6313,12.7749 C40.0993,13.1519 39.5743,13.5369 39.0563,13.9349 C42.5873,14.7669 46.6643,16.4869 51.1163,19.0709 C53.4543,20.4279 55.8443,21.9949 58.2613,23.7309 C53.4403,29.9459 48.8773,37.1939 44.9013,45.2269 C39.9603,55.2099 36.4033,65.3779 34.4593,74.8809 C28.1963,73.4199 22.8963,71.5069 18.9003,69.2479 C19.0423,69.8879 19.1823,70.5279 19.3453,71.1589 C23.3273,73.2429 28.3383,75.0099 34.1673,76.3739 C33.3973,80.4659 32.9253,84.4289 32.7913,88.1829 C32.6973,90.7599 32.7673,93.1759 32.9823,95.4309 C33.5383,96.0059 34.1053,96.5669 34.6853,97.1169 C34.3113,94.4329 34.1733,91.4679 34.2903,88.2369 C34.4223,84.5719 34.8823,80.7029 35.6313,76.7049 C44.0823,78.5459 54.1063,79.5769 65.0363,79.5769 C67.4703,79.5769 69.9503,79.5259 72.4663,79.4209 C83.2373,78.9739 93.5433,77.5609 102.6123,75.3429 C104.3643,78.7279 105.8613,82.0339 107.0523,85.2079 C108.7263,89.6669 109.7153,93.6789 110.0413,97.1219 C110.5053,96.6829 110.9653,96.2389 111.4133,95.7839 C110.9713,92.4949 109.9953,88.7789 108.4573,84.6809 C107.2833,81.5539 105.8183,78.3009 104.1103,74.9739"/>
      <path fill="#CECECE" d="M51.1162 19.0713C46.6642 16.4873 42.5872 14.7663 39.0562 13.9343 33.7772 17.9863 29.2562 22.9743 25.7462 28.6573 25.3472 29.3013 24.9672 29.9573 24.5952 30.6193 21.8662 35.4773 19.8462 40.7883 18.7012 46.4193 18.5662 47.0843 18.4532 47.7563 18.3432 48.4283 17.8612 51.3473 17.5992 54.3403 17.5992 57.3943 17.5992 61.4673 18.0572 65.4293 18.9002 69.2483 22.8962 71.5073 28.1962 73.4203 34.4592 74.8813 36.4032 65.3783 39.9602 55.2103 44.9012 45.2263 48.8772 37.1933 53.4402 29.9463 58.2622 23.7303 55.8452 21.9953 53.4542 20.4273 51.1162 19.0713M125.751 45.1943C125.594 44.4993 125.427 43.8083 125.242 43.1243 122.232 31.9433 115.779 22.1753 107.079 15.0373 106.434 14.5073 105.777 13.9903 105.107 13.4903 98.851 8.8163 91.561 5.4543 83.644 3.7973 76.23 6.8613 68.021 13.7703 60.367 23.4053 68.645 29.5323 77.189 37.6683 85.115 47.0393 92.536 55.8123 98.799 64.9433 103.399 73.6053 107.739 72.4983 111.776 71.2033 115.412 69.7323 120.146 67.8163 123.98 65.6723 126.797 63.4153 127.013 61.4363 127.133 59.4303 127.133 57.3943 127.133 53.1993 126.645 49.1193 125.751 45.1943M107.0527 85.208C105.8617 82.034 104.3647 78.728 102.6127 75.343 93.5427 77.561 83.2377 78.974 72.4667 79.421 69.9497 79.525 67.4707 79.577 65.0357 79.577 54.1067 79.577 44.0817 78.546 35.6307 76.705 34.8817 80.703 34.4217 84.572 34.2897 88.237 34.1727 91.468 34.3117 94.433 34.6857 97.117 41.6087 103.687 50.2427 108.462 59.8567 110.709 60.5947 110.882 61.3357 111.041 62.0847 111.184 65.4157 111.816 68.8507 112.161 72.3657 112.161 78.6967 112.161 84.7697 111.074 90.4257 109.099 91.1287 108.854 91.8237 108.592 92.5147 108.318 99.0737 105.721 105.0087 101.896 110.0407 97.122 109.7147 93.679 108.7267 89.667 107.0527 85.208"/>
      <path fill="#FF2929" d="M34.0205,49.5049 L50.6305,56.3939 L47.0455,42.1459 L34.0205,49.5049 Z M51.7495,58.4579 C51.6505,58.4579 51.5505,58.4399 51.4565,58.4009 L31.9765,50.3209 C31.7055,50.2089 31.5215,49.9509 31.5035,49.6569 C31.4865,49.3639 31.6365,49.0869 31.8925,48.9419 L47.1665,40.3119 C47.3735,40.1939 47.6285,40.1809 47.8475,40.2749 C48.0675,40.3689 48.2315,40.5609 48.2905,40.7929 L52.4955,57.5029 C52.5665,57.7839 52.4715,58.0819 52.2505,58.2719 C52.1105,58.3949 51.9305,58.4579 51.7495,58.4579 L51.7495,58.4579 Z"/>
      <path fill="#E1E1E1" d="M23.2744,105.0127 L0.9364,108.0117"/>
      <path fill="#FF2929" d="M.9355 108.7793C.5565 108.7793.2255 108.4993.1745 108.1143.1185 107.6923.4145 107.3053.8335 107.2503L23.1715 104.2513C23.6035 104.1903 23.9795 104.4903 24.0365 104.9103 24.0925 105.3323 23.7965 105.7183 23.3765 105.7743L1.0395 108.7733C1.0035 108.7783.9685 108.7793.9355 108.7793M24.3193 112.791L9.1223 114.831C8.7023 114.888 8.4063 115.274 8.4633 115.695 8.5143 116.081 8.8443 116.361 9.2233 116.361 9.2573 116.361 9.2923 116.36 9.3273 116.354L24.5243 114.314C24.9443 114.258 25.2393 113.871 25.1833 113.45 25.1283 113.029 24.7513 112.731 24.3193 112.791"/>
      <path fill="#E1E1E1" d="M25.5674,122.0928 L16.2054,123.3498"/>
      <path fill="#FF2929" d="M16.2031,124.1182 C15.8241,124.1182 15.4941,123.8382 15.4421,123.4522 C15.3871,123.0302 15.6821,122.6432 16.1011,122.5882 L25.4651,121.3302 C25.8971,121.2642 26.2731,121.5692 26.3291,121.9892 C26.3861,122.4112 26.0911,122.7982 25.6701,122.8542 L16.3071,124.1112 C16.2721,124.1162 16.2371,124.1182 16.2031,124.1182"/>
      <path fill="#CECECE" d="M67.9805,111.6357 L105.4845,85.6427 L108.7705,112.6577 C109.0335,114.8237 108.0585,116.9547 106.2465,118.1717 L71.6035,141.4277 L31.0245,124.9327 L67.9805,111.6357 Z"/>
      <path fill="#A5A5A5" d="M67.9805,111.6357 L27.4925,95.8947 L30.8285,123.3217 C31.0045,124.7777 31.9695,126.0187 33.3375,126.5507 L71.6035,141.4277 L67.9805,111.6357 Z"/>
      <path fill="#E1E1E1" d="M60.5986 71.0811L27.4926 95.8941 67.9806 111.6361 105.4846 85.6431 65.4636 70.3971C63.8316 69.7751 61.9946 70.0341 60.5986 71.0811M65.6006 113.6982L32.0686 101.1342C31.2286 100.8152 30.3506 101.5032 30.4586 102.3942L33.0276 123.5102C33.0806 123.9502 33.3746 124.3252 33.7896 124.4822L67.3226 137.0472C68.1626 137.3652 69.0396 136.6772 68.9316 135.7862L66.3636 114.6712C66.3096 114.2302 66.0156 113.8552 65.6006 113.6982"/>
      <path fill="#FFF" d="M62.9287 73.3174L35.7757 93.6704C35.0207 94.2354 35.1817 95.4114 36.0607 95.7534L67.1387 107.8354C67.5117 107.9794 67.9317 107.9304 68.2597 107.7034L97.0677 87.7374C97.8627 87.1854 97.7147 85.9694 96.8107 85.6254L64.0777 73.1554C63.6937 73.0084 63.2587 73.0704 62.9287 73.3174M71.748 112.9502L101.291 92.7142C102.03 92.2032 103.047 92.6612 103.155 93.5532L105.724 114.6682C105.777 115.1082 105.582 115.5422 105.217 115.7952L75.675 136.0312C74.936 136.5422 73.918 136.0842 73.81 135.1922L71.241 114.0772C71.188 113.6372 71.383 113.2032 71.748 112.9502"/>
    </g>
  </g>
</svg>
