<svg xmlns="http://www.w3.org/2000/svg" width="102" height="49" viewBox="0 0 102 49">
  <g fill="none" fill-rule="evenodd" transform="translate(0 .375)">
    <polygon fill="#BCBEC0" points="23.581 0 27.887 5.322 34.076 2.395 35.646 9.058 42.493 9.106 41.015 15.792 47.164 18.805 42.932 24.188 47.164 29.57 41.015 32.583 42.493 39.269 35.646 39.317 34.076 45.981 27.887 43.053 23.581 48.375 19.275 43.053 13.087 45.981 11.517 39.317 4.671 39.269 6.147 32.583 0 29.57 4.231 24.188 0 18.805 6.147 15.792 4.671 9.106 11.517 9.058 13.087 2.395 19.275 5.322"/>
    <polygon stroke="#FFF" stroke-linecap="round" stroke-linejoin="round" points="23.748 3 27.536 7.683 32.981 5.107 34.362 10.97 40.386 11.012 39.086 16.895 44.496 19.545 40.773 24.281 44.496 29.016 39.086 31.668 40.386 37.55 34.362 37.592 32.981 43.455 27.536 40.88 23.748 45.562 19.959 40.88 14.515 43.455 13.133 37.592 7.11 37.55 8.409 31.668 3 29.016 6.722 24.281 3 19.545 8.409 16.895 7.11 11.012 13.133 10.97 14.515 5.107 19.959 7.683"/>
    <text fill="#FFF" font-family="HelveticaNeue-Bold, Helvetica Neue" font-size="18" font-weight="bold" letter-spacing="-.25">
      <tspan x="9" y="30">10x</tspan>
    </text>
    <g transform="translate(50 12)">
      <path fill="#FF2929" d="M0.351619308,13.6783045 C8.01548768,20.912015 14.4473892,27.3663936 25.8052421,27.3663936 C37.1630951,27.3663936 45.5109637,19.1954249 51.258865,13.831081 C45.37493,7.54664484 37.0270614,0.000514977016 25.8052421,0.000514977016 C16.5013059,0.000514977016 9.24745452,5.21723214 0.351619308,13.6783045 Z"/>
      <path fill="#FFF" d="M25.8052421,21.284 C21.6133292,21.284 18.2041814,17.8748522 18.2041814,13.6829393 C18.2041814,9.49102639 21.6133292,6.08187855 25.8052421,6.08187855 C29.9971551,6.08187855 33.4063029,9.49102639 33.4063029,13.6829393 C33.4063029,17.8748522 29.9971551,21.284 25.8052421,21.284 M25.8052421,4.56097977 C20.7756333,4.56097977 16.6832826,8.65333045 16.6832826,13.6829393 C16.6832826,18.7125481 20.7756333,22.8048988 25.8052421,22.8048988 C30.834851,22.8048988 34.9272017,18.7125481 34.9272017,13.6829393 C34.9272017,8.65333045 30.834851,4.56097977 25.8052421,4.56097977"/>
      <path fill="#FFF" d="M25.8052421,8.36185346 C22.8715897,8.36185346 20.483813,10.7496302 20.483813,13.6832826 C20.483813,16.616935 22.8715897,19.0047118 25.8052421,19.0047118 C28.7388945,19.0047118 31.1266713,16.616935 31.1266713,13.6832826 C31.1266713,10.7496302 28.7388945,8.36185346 25.8052421,8.36185346"/>
    </g>
  </g>
</svg>
