<svg width="456" height="290" viewBox="0 0 456 290" fill="none" xmlns="http://www.w3.org/2000/svg">
<path d="M27.4478 195C27.2807 194.732 27.1346 194.575 27.0719 194.397C26.2784 192.118 25.5058 189.839 24.7332 187.56C24.5035 186.89 24.2738 186.197 24.065 185.505C23.877 184.901 23.5847 184.388 23 184.164C21.9977 183.784 21.0162 183.404 20.0139 183.002C18.8654 182.555 17.7378 182.086 16.6102 181.639C15.9211 181.371 15.232 181.148 14.5429 180.857C14.3341 180.768 14.1879 180.545 14 180.366C14.1879 180.21 14.3341 179.964 14.5429 179.897C15.6914 179.428 16.8608 178.981 18.0093 178.534C19.0742 178.109 20.1183 177.707 21.1833 177.283C21.768 177.059 22.3527 176.836 22.9582 176.612C23.4594 176.411 23.7935 176.054 23.9814 175.518C24.3364 174.468 24.6914 173.418 25.0464 172.39C25.6311 170.714 26.2158 169.016 26.8005 167.341C26.9049 167.028 26.9466 166.693 27.0928 166.38C27.1763 166.201 27.3643 166 27.5104 166C27.6566 166 27.8445 166.223 27.9072 166.402C28.7007 168.681 29.4733 170.96 30.2668 173.239C30.4965 173.931 30.7262 174.646 30.9559 175.339C31.1439 175.965 31.4571 176.411 32.0626 176.635C33.5661 177.193 35.0696 177.774 36.5731 178.378C37.6381 178.802 38.703 179.249 39.7889 179.673C40.0603 179.785 40.3736 179.83 40.6241 179.964C40.7912 180.053 41 180.232 41 180.388C41 180.522 40.7912 180.768 40.645 180.813C38.0139 181.885 35.4037 182.891 32.7935 183.918C32.6891 183.963 32.5638 184.008 32.4385 184.03C31.5615 184.231 31.1021 184.79 30.8306 185.728C30.4965 186.935 30.0162 188.096 29.6195 189.28C29.2436 190.398 28.8469 191.492 28.471 192.609C28.2622 193.235 28.0742 193.883 27.8445 194.508C27.8237 194.643 27.6566 194.777 27.4478 195Z" fill="#FFB9F8"/>
<ellipse cx="447" cy="78.5" rx="9" ry="8.5" fill="#FFD12D"/>
<path fill-rule="evenodd" clip-rule="evenodd" d="M0.820489 54.378C1.27556 53.686 2.20545 53.4937 2.89761 53.9486L2.91124 53.9575L2.96045 53.9894C3.0051 54.0183 3.07332 54.0621 3.16435 54.1199C3.34642 54.2355 3.61971 54.4068 3.97824 54.6256C4.69538 55.0634 5.7531 55.691 7.10366 56.4428C9.80587 57.9471 13.6745 59.9453 18.3283 61.9141C27.6611 65.8625 40.0356 69.6429 52.4513 69.1833C54.6375 69.1023 57.919 68.9556 61.5525 68.5218C61.7691 67.607 62.013 66.7237 62.2781 65.8796C63.3609 62.4314 64.8381 59.5079 66.3636 57.7649C71.6839 51.6721 76.9573 49.5292 80.9275 50.2694C82.9295 50.6426 84.5432 51.7583 85.453 53.3836C86.3598 55.0036 86.4872 56.9846 85.8105 58.9528C84.7433 62.093 82.4718 64.4436 79.7014 66.1986C76.9377 67.9492 73.5999 69.1592 70.2274 70.0095C68.1749 70.5269 66.0814 70.9178 64.0567 71.215C63.6859 73.2947 63.4786 75.5006 63.5078 77.734C63.6095 85.5295 66.5617 93.479 75.3169 97.8502C90.0276 103.891 105.139 100.164 116.746 94.7623C122.537 92.0671 127.396 88.9812 130.808 86.5677C132.512 85.3619 133.852 84.3266 134.762 83.5957C135.217 83.2304 135.564 82.9413 135.795 82.7453C135.911 82.6474 135.998 82.5727 136.055 82.5234L136.118 82.4688L136.132 82.4562L136.135 82.4538C136.754 81.9047 137.703 81.9614 138.252 82.5812C138.772 83.1674 138.749 84.047 138.221 84.6056C138.214 84.6126 137.894 84.8997 137.733 85.0354C137.483 85.247 137.116 85.5524 136.64 85.9347C135.689 86.6991 134.3 87.7717 132.541 89.0168C129.024 91.5048 124.007 94.692 118.012 97.4822C106.059 103.045 89.9749 107.136 74.1249 100.604L74.0763 100.584L74.0292 100.56C63.9283 95.5437 60.6197 86.3252 60.508 77.7731C60.4806 75.6672 60.6451 73.5909 60.9502 71.6096C57.5623 71.9767 54.5661 72.107 52.5623 72.1812C39.5209 72.664 26.6789 68.7043 17.1595 64.677C12.3872 62.6581 8.42078 60.6095 5.64448 59.064C4.25579 58.291 3.16339 57.643 2.41522 57.1863C2.04109 56.9579 1.75293 56.7773 1.55671 56.6528C1.40234 56.5548 1.23942 56.4619 1.10027 56.3435C0.531993 55.86 0.400023 55.0175 0.820489 54.378ZM64.7623 68.0701C66.3335 67.813 67.9286 67.4952 69.494 67.1005C72.6976 66.2928 75.7007 65.1816 78.096 63.6642C80.4836 62.1518 82.1887 60.2885 82.9708 57.9853L82.9728 57.9793C83.4093 56.7112 83.2729 55.6309 82.8352 54.849C82.4001 54.0715 81.5874 53.4441 80.3777 53.2186C77.9251 52.7613 73.6352 53.9981 68.6223 59.7393L68.6211 59.7407C67.4775 61.0473 66.1591 63.5338 65.1403 66.7784C65.0083 67.1988 64.882 67.6298 64.7623 68.0701Z" fill="#0084FF"/>
<path d="M141.674 108.719C178.174 77.119 216.474 63.319 282.374 90.619C356.074 121.119 330.774 201.219 309.874 217.719C291.074 232.619 287.574 264.819 250.674 282.219C232.574 287.419 214.074 291.119 197.374 288.919C60.5742 270.919 109.974 136.219 141.674 108.719Z" fill="#EFF2FF"/>
<path fill-rule="evenodd" clip-rule="evenodd" d="M365.336 156.851C365.747 156.191 366.587 155.961 367.27 156.298C367.275 156.3 367.5 156.433 367.524 156.448C367.599 156.497 367.708 156.567 367.848 156.66C368.127 156.845 368.531 157.118 369.04 157.478C370.058 158.198 371.497 159.265 373.198 160.667C376.599 163.469 381.065 167.619 385.326 173.015C393.849 183.807 401.619 199.682 398.239 219.717C397.148 226.187 394.834 231.181 392.015 234.846C393.289 235.788 394.529 236.869 395.706 238.072C403.531 246.078 408.862 259.863 402.612 275.969C402.313 276.742 401.444 277.125 400.671 276.825C399.899 276.525 399.516 275.656 399.815 274.884C405.588 260.007 400.667 247.439 393.561 240.169C392.424 239.006 391.239 237.988 390.043 237.12C387.897 239.312 385.576 240.847 383.339 241.778C380.357 243.019 377.334 243.251 375.131 242.225C373.995 241.696 373.071 240.82 372.593 239.604C372.12 238.402 372.146 237.033 372.584 235.61L372.621 235.491L372.677 235.379C373.671 233.4 375.178 232.022 377.028 231.258C378.855 230.505 380.924 230.386 383.032 230.744C385.134 231.101 387.336 231.942 389.5 233.193C392.064 229.927 394.247 225.349 395.281 219.218C398.474 200.291 391.169 185.254 382.972 174.875C378.874 169.685 374.57 165.685 371.291 162.983C369.652 161.633 368.273 160.61 367.308 159.927C366.826 159.586 366.447 159.33 366.192 159.161C366.064 159.077 365.968 159.014 365.904 158.973C365.873 158.953 365.849 158.938 365.834 158.929L365.819 158.919L365.816 158.918C365.114 158.48 364.898 157.554 365.336 156.851ZM387.437 235.477C385.74 234.562 384.07 233.963 382.529 233.701C380.834 233.413 379.358 233.542 378.172 234.032C377.043 234.498 376.092 235.323 375.416 236.612C375.165 237.496 375.227 238.106 375.385 238.506C375.543 238.909 375.858 239.254 376.398 239.506C377.547 240.041 379.627 240.073 382.186 239.008C383.876 238.305 385.694 237.149 387.437 235.477Z" fill="#181818"/>
<path d="M116.175 171.019L147.575 254.319L228.975 236.219L197.475 152.919L116.175 171.019Z" fill="white"/>
<path d="M228.974 236.219L270.774 187.919L239.374 104.619L197.474 152.919L228.974 236.219Z" fill="white"/>
<path d="M272.175 187.419L240.775 104.119C240.575 103.619 240.175 103.219 239.675 103.219C239.175 103.119 238.575 103.319 238.275 103.719L196.775 151.619L115.975 169.619C115.575 169.719 115.175 170.019 114.975 170.419C114.775 170.819 114.775 171.219 114.875 171.619L146.275 254.919C146.475 255.519 147.075 255.919 147.675 255.919C147.775 255.919 147.875 255.919 147.975 255.919L229.275 237.819H229.375C229.475 237.819 229.475 237.819 229.575 237.719L229.675 237.619L229.775 237.519L229.875 237.419L229.975 237.319L271.875 189.019C272.275 188.519 272.375 187.919 272.175 187.419ZM148.575 252.619L118.275 172.119L196.575 154.719L226.875 235.219L148.575 252.619ZM229.475 233.319L199.275 153.219L238.875 107.519L269.075 187.619L229.475 233.319Z" fill="black"/>
<path d="M197.474 152.919L239.374 104.619L158.074 122.719L116.174 171.019L197.474 152.919Z" fill="white"/>
<path d="M116.174 172.519C115.674 172.519 115.174 172.219 114.874 171.819C114.574 171.219 114.574 170.519 115.074 170.019L156.974 121.719C157.174 121.519 157.474 121.319 157.774 121.219L239.074 103.119C239.674 103.019 240.374 103.219 240.674 103.819C240.974 104.419 240.974 105.119 240.474 105.619L198.574 153.919C198.374 154.119 198.074 154.319 197.774 154.419L116.574 172.519C116.474 172.519 116.274 172.519 116.174 172.519ZM158.874 124.119L120.274 168.619L196.674 151.619L235.274 107.119L158.874 124.119Z" fill="black"/>
<path d="M197.474 152.919L221.374 165.719L262.674 114.319L239.374 104.619L197.474 152.919Z" fill="white"/>
<path d="M91.5745 174.819L116.174 171.019L158.074 122.719L132.074 126.519L91.5745 174.819Z" fill="white"/>
<path d="M197.475 152.919L194.575 180.019L107.675 199.419L116.175 171.019L197.475 152.919Z" fill="white"/>
<path d="M259.174 90.5188L239.374 104.719L158.074 122.719L181.074 107.619L259.174 90.5188Z" fill="white"/>
<path d="M264.174 114.019C264.074 113.519 263.774 113.219 263.274 113.019L242.474 104.319L260.074 91.7188C260.674 91.3187 260.874 90.5187 260.574 89.9187C260.274 89.2188 259.574 88.9188 258.874 89.0188L180.674 106.119C180.474 106.119 180.274 106.219 180.174 106.319L157.474 121.319L131.874 125.019C131.474 125.119 131.174 125.219 130.974 125.519L90.3744 173.919C89.9744 174.419 89.8744 175.119 90.1744 175.619C90.4744 176.119 90.9744 176.419 91.4744 176.419C91.5744 176.419 91.6744 176.419 91.6744 176.419L114.074 172.919L106.274 199.019C106.074 199.519 106.274 200.119 106.574 200.519C106.874 200.819 107.274 201.019 107.674 201.019C107.774 201.019 107.874 201.019 107.974 201.019L194.874 181.719C195.474 181.619 195.974 181.019 196.074 180.419L198.774 155.519L220.674 167.019C220.874 167.119 221.174 167.219 221.374 167.219C221.774 167.219 222.274 167.019 222.574 166.619L263.874 115.319C264.174 114.919 264.274 114.419 264.174 114.019ZM196.674 151.619L120.274 168.619L158.874 124.119L235.174 107.119L196.674 151.619ZM181.674 109.019L252.474 93.5188L238.774 103.219L165.774 119.419L181.674 109.019ZM132.874 127.919L154.274 124.819L115.474 169.619L95.2744 172.719L132.874 127.919ZM193.174 178.819L109.874 197.319L117.374 172.219L195.774 154.719L193.174 178.819ZM220.974 163.819L199.874 152.519L239.774 106.419L260.274 115.019L220.974 163.819Z" fill="black"/>
</svg>
