<svg width="22" height="22" viewBox="0 0 22 22" version="1.1" xmlns="http://www.w3.org/2000/svg" xmlns:xlink="http://www.w3.org/1999/xlink">
<title>Page 1</title>
<desc>Created using Figma</desc>
<g id="Canvas1" transform="translate(-406 932)">
<g id="Page 11">
<g id="Group 31">
<g id="Fill 11">
<g transform="translate(407 -931)" fill="#74BBE7">
  <path id="path00_stroke" d="M 18.6077 6.78097L 18.216 7.09171L 18.2161 7.0918L 18.6077 6.78097ZM 18.1984 5.79288L 17.7017 5.85L 17.7017 5.85012L 18.1984 5.79288ZM 16.7905 2.88075L 17.144 2.5272L 17.144 2.52718L 16.7905 2.88075ZM 13.8784 1.47278L 13.9356 0.976063L 13.9355 0.976056L 13.8784 1.47278ZM 12.8904 1.06352L 12.5795 1.45517L 12.5795 1.45519L 12.8904 1.06352ZM 6.78087 1.06352L 7.09167 1.45519L 7.0917 1.45517L 6.78087 1.06352ZM 5.79278 1.47278L 5.73568 0.976056L 5.73562 0.976063L 5.79278 1.47278ZM 2.88085 2.88085L 3.23438 3.23443L 3.23443 3.23438L 2.88085 2.88085ZM 1.47278 5.79278L 0.976063 5.73562L 0.976056 5.73568L 1.47278 5.79278ZM 1.06352 6.78087L 1.45517 7.0917L 1.45519 7.09167L 1.06352 6.78087ZM 1.06352 12.8904L 1.45519 12.5795L 1.45517 12.5795L 1.06352 12.8904ZM 1.47288 13.8784L 1.96961 13.8213L 1.9696 13.8212L 1.47288 13.8784ZM 2.88085 16.7904L 3.23443 16.4368L 3.23438 16.4368L 2.88085 16.7904ZM 5.79278 18.1984L 5.73562 18.6952L 5.73569 18.6952L 5.79278 18.1984ZM 6.78087 18.6077L 7.0917 18.2161L 7.09167 18.216L 6.78087 18.6077ZM 12.8903 18.6078L 13.2011 18.9995L 13.2011 18.9994L 12.8903 18.6078ZM 13.8783 18.1984L 13.8212 17.7017L 13.8211 17.7017L 13.8783 18.1984ZM 18.1984 13.8783L 17.7017 13.8211L 17.7017 13.8212L 18.1984 13.8783ZM 18.6077 12.8903L 18.2161 12.5794L 18.216 12.5795L 18.6077 12.8903ZM 20.1712 9.83561C 20.1632 8.59216 19.7088 7.37382 18.9993 6.47013L 18.2161 7.0918C 18.8383 7.86607 19.1792 8.77044 19.1712 9.83561L 20.1712 9.83561ZM 18.9994 6.47023C 18.8133 6.24343 18.7239 6.02757 18.6952 5.73564L 17.7017 5.85012C 17.756 6.27856 17.9514 6.75039 18.216 7.09171L 18.9994 6.47023ZM 18.6952 5.73577C 18.5579 4.59506 18.0176 3.41215 17.144 2.5272L 16.4369 3.23431C 17.1958 3.98187 17.5943 4.86247 17.7017 5.85L 18.6952 5.73577ZM 17.144 2.52718C 16.2591 1.65366 15.0762 1.11345 13.9356 0.976063L 13.8213 1.96951C 14.8087 2.07702 15.6894 2.47552 16.4369 3.23433L 17.144 2.52718ZM 13.9355 0.976056C 13.6437 0.947374 13.4279 0.857913 13.2012 0.671862L 12.5795 1.45519C 12.9208 1.7198 13.3928 1.91538 13.8213 1.96951L 13.9355 0.976056ZM 13.2012 0.671884C 12.2975 -0.0375769 11.0791 -0.491991 9.83561 -0.5L 9.83561 0.5C 10.9008 0.491991 11.8053 0.832885 12.5795 1.45517L 13.2012 0.671884ZM 9.83561 -0.5C 8.59217 -0.491991 7.37373 -0.0375769 6.47003 0.671884L 7.0917 1.45517C 7.86596 0.832885 8.77044 0.491991 9.83561 0.5L 9.83561 -0.5ZM 6.47006 0.671862C 6.24337 0.857913 6.0275 0.947374 5.73568 0.976056L 5.84989 1.96951C 6.27843 1.91538 6.75046 1.7198 7.09167 1.45519L 6.47006 0.671862ZM 5.73562 0.976063C 4.59504 1.11345 3.41214 1.65368 2.52728 2.52732L 3.23443 3.23438C 3.98188 2.4755 4.86249 2.07702 5.84995 1.96951L 5.73562 0.976063ZM 2.52732 2.52728C 1.65368 3.41214 1.11345 4.59504 0.976063 5.73562L 1.96951 5.84995C 2.07702 4.86249 2.4755 3.98188 3.23438 3.23443L 2.52732 2.52728ZM 0.976056 5.73568C 0.947374 6.0275 0.857913 6.24337 0.671862 6.47006L 1.45519 7.09167C 1.7198 6.75046 1.91538 6.27843 1.96951 5.84989L 0.976056 5.73568ZM 0.671884 6.47003C -0.0375769 7.37373 -0.491991 8.59217 -0.5 9.83561L 0.5 9.83561C 0.491991 8.77044 0.832885 7.86596 1.45517 7.0917L 0.671884 6.47003ZM -0.5 9.83561C -0.491991 11.0791 -0.0375769 12.2975 0.671884 13.2012L 1.45517 12.5795C 0.832885 11.8053 0.491991 10.9008 0.5 9.83561L -0.5 9.83561ZM 0.671862 13.2012C 0.857913 13.4279 0.947391 13.6438 0.97617 13.9357L 1.9696 13.8212C 1.91536 13.3927 1.7198 12.9208 1.45519 12.5795L 0.671862 13.2012ZM 0.976156 13.9356C 1.11345 15.0762 1.65368 16.2591 2.52732 17.1439L 3.23438 16.4368C 2.4755 15.6893 2.07703 14.8088 1.96961 13.8213L 0.976156 13.9356ZM 2.52728 17.1439C 3.41214 18.0175 4.59504 18.5578 5.73562 18.6952L 5.84995 17.7017C 4.86249 17.5942 3.98188 17.1957 3.23443 16.4368L 2.52728 17.1439ZM 5.73569 18.6952C 6.02758 18.7238 6.24334 18.8133 6.47006 18.9994L 7.09167 18.216C 6.75048 17.9514 6.27854 17.7558 5.84987 17.7017L 5.73569 18.6952ZM 6.47003 18.9993C 7.37373 19.7088 8.59217 20.1632 9.83561 20.1712L 9.83561 19.1712C 8.77044 19.1792 7.86596 18.8383 7.0917 18.2161L 6.47003 18.9993ZM 9.83561 20.1712C 11.0791 20.1632 12.2974 19.7088 13.2011 18.9995L 12.5795 18.2161C 11.8052 18.8383 10.9008 19.1792 9.83561 19.1712L 9.83561 20.1712ZM 13.2011 18.9994C 13.4278 18.8133 13.6436 18.7239 13.9356 18.6952L 13.8211 17.7017C 13.3927 17.7559 12.9207 17.9514 12.5794 18.2162L 13.2011 18.9994ZM 13.9355 18.6952C 15.0762 18.5578 16.2591 18.0177 17.144 17.144L 16.4369 16.4369C 15.6894 17.1958 14.8088 17.5942 13.8212 17.7017L 13.9355 18.6952ZM 17.144 17.144C 18.0176 16.2591 18.5579 15.0762 18.6952 13.9355L 17.7017 13.8212C 17.5943 14.8088 17.1958 15.6894 16.4369 16.4369L 17.144 17.144ZM 18.6952 13.9356C 18.7239 13.6437 18.8133 13.4278 18.9994 13.201L 18.216 12.5795C 17.9514 12.9208 17.756 13.3927 17.7017 13.8211L 18.6952 13.9356ZM 18.9993 13.2011C 19.7088 12.2974 20.1632 11.0791 20.1712 9.83561L 19.1712 9.83561C 19.1792 10.9008 18.8383 11.8052 18.2161 12.5794L 18.9993 13.2011Z"/>
</g>
</g>
</g>
<g id="Fill 4">
<g transform="translate(410.195 -926.1)" fill="#74BBE7">
  <path id="path11_stroke" d="M 10.6324 0.0640705L 10.9856 -0.289856L 10.9854 -0.290031L 10.6324 0.0640705ZM 10.3208 0.0644246L 10.6745 0.417788L 10.6747 0.417613L 10.3208 0.0644246ZM 4.46502 5.92645L 4.11149 6.28003L 4.46523 6.63372L 4.81876 6.27981L 4.46502 5.92645ZM 2.55607 4.01777L 2.20252 4.37133L 2.20255 4.37135L 2.55607 4.01777ZM 2.24415 4.01795L 1.89023 3.66476L 1.89021 3.66478L 2.24415 4.01795ZM 0.0640925 6.2027L 0.418011 6.55588L 0.418026 6.55587L 0.0640925 6.2027ZM 0.0642696 6.51427L -0.289284 6.86783L -0.289254 6.86785L 0.0642696 6.51427ZM 4.28032 10.7296L 4.63387 10.3761L 4.63384 10.376L 4.28032 10.7296ZM 4.4667 10.791L 4.53425 10.2956L 4.46599 10.2862L 4.39775 10.2957L 4.4667 10.791ZM 4.6529 10.7294L 4.29915 10.3761L 4.29904 10.3762L 4.6529 10.7294ZM 12.8173 2.55605L 12.4638 2.2025L 12.4636 2.20269L 12.8173 2.55605ZM 12.8172 2.24421L 13.1704 1.89029L 13.1703 1.89029L 12.8172 2.24421ZM 10.9854 -0.290031C 10.7043 -0.570241 10.2477 -0.57016 9.96684 -0.288763L 10.6747 0.417613C 10.5651 0.527417 10.3889 0.527321 10.2794 0.418172L 10.9854 -0.290031ZM 9.96701 -0.288939L 4.11127 5.57309L 4.81876 6.27981L 10.6745 0.417788L 9.96701 -0.288939ZM 4.81854 5.57287L 2.9096 3.6642L 2.20255 4.37135L 4.11149 6.28003L 4.81854 5.57287ZM 2.90963 3.66422C 2.62851 3.3831 2.17131 3.3831 1.89023 3.66476L 2.59806 4.37114C 2.48857 4.48085 2.31205 4.48085 2.20252 4.37133L 2.90963 3.66422ZM 1.89021 3.66478L -0.289841 5.84952L 0.418026 6.55587L 2.59808 4.37112L 1.89021 3.66478ZM -0.289826 5.84951C -0.570321 6.13058 -0.569975 6.58713 -0.289284 6.86783L 0.417823 6.16072C 0.527276 6.27017 0.527446 6.44622 0.418011 6.55588L -0.289826 5.84951ZM -0.289254 6.86785L 3.9268 11.0832L 4.63384 10.376L 0.417793 6.16069L -0.289254 6.86785ZM 3.92677 11.0832C 4.09658 11.253 4.32629 11.3153 4.53564 11.2862L 4.39775 10.2957C 4.47482 10.285 4.56535 10.3075 4.63387 10.3761L 3.92677 11.0832ZM 4.39914 11.2864C 4.60769 11.3148 4.83698 11.2528 5.00676 11.0827L 4.29904 10.3762C 4.36771 10.3074 4.45816 10.2852 4.53425 10.2956L 4.39914 11.2864ZM 5.00665 11.0828L 13.1711 2.90941L 12.4636 2.20269L 4.29915 10.3761L 5.00665 11.0828ZM 13.1709 2.90961C 13.4521 2.62836 13.4518 2.17116 13.1704 1.89029L 12.464 2.59813C 12.3543 2.48868 12.3541 2.31216 12.4638 2.2025L 13.1709 2.90961ZM 13.1703 1.89029L 10.9856 -0.289856L 10.2792 0.417997L 12.464 2.59814L 13.1703 1.89029Z"/>
</g>
</g>
</g>
</g>

</svg>
