<svg width="12" height="22" viewBox="0 0 12 22" version="1.1" xmlns="http://www.w3.org/2000/svg" xmlns:xlink="http://www.w3.org/1999/xlink">
<title>Page 1</title>
<desc>Created using Figma</desc>
<g id="Canvas" transform="translate(-177 1)">
<g id="Page 1">
<g transform="translate(178 0)" fill="#BCBEC0">
  <path id="path0_stroke" d="M -0.5 10.5884C -0.5 10.8646 -0.276142 11.0884 0 11.0884C 0.276142 11.0884 0.5 10.8646 0.5 10.5884L -0.5 10.5884ZM 5.00948 1.26171e-06L 5.0091 0.500001L 5.00948 0.500001L 5.00948 1.26171e-06ZM 4.90202 3.35097L 4.8996 3.85097L 4.9004 3.85097L 4.90202 3.35097ZM 6.30468 14.5711C 6.30468 14.8472 6.52853 15.0711 6.80468 15.0711C 7.08082 15.0711 7.30468 14.8472 7.30468 14.5711L 6.30468 14.5711ZM 0.5 10.5884L 0.5 5.22046L -0.5 5.22046L -0.5 10.5884L 0.5 10.5884ZM 0.5 5.22046C 0.5 3.51998 1.16792 2.35356 2.04921 1.60479C 2.9451 0.843612 4.08036 0.499285 5.0091 0.500001L 5.00987 -0.499999C 3.86054 -0.500885 2.49106 -0.0828273 1.40172 0.842708C 0.297791 1.78064 -0.5 3.22525 -0.5 5.22046L 0.5 5.22046ZM 5.00948 0.500001C 5.93574 0.500001 7.06608 0.844161 7.95775 1.60475C 8.83495 2.353 9.5 3.51913 9.5 5.22046L 10.5 5.22046C 10.5 3.2261 9.70646 1.78201 8.60672 0.843941C 7.52147 -0.081773 6.15654 -0.499999 5.00948 -0.499999L 5.00948 0.500001ZM 9.5 5.22046L 9.5 16.54L 10.5 16.54L 10.5 5.22046L 9.5 5.22046ZM 9.5 16.54C 9.5 17.3451 9.27306 18.0873 8.82939 18.6188C 8.39685 19.1369 7.7217 19.5 6.71618 19.5L 6.71618 20.5C 7.99101 20.5 8.95776 20.0254 9.59705 19.2596C 10.2252 18.5072 10.5 17.5194 10.5 16.54L 9.5 16.54ZM 6.71618 19.5C 4.83869 19.5 3.61157 17.9254 3.61157 16.54L 2.61157 16.54C 2.61157 18.4318 4.24159 20.5 6.71618 20.5L 6.71618 19.5ZM 3.61157 16.54L 3.61157 5.42729L 2.61157 5.42729L 2.61157 16.54L 3.61157 16.54ZM 3.61157 5.42729C 3.61157 4.8497 3.78032 4.45946 4.00165 4.21939C 4.22115 3.98132 4.52984 3.84918 4.8996 3.85097L 4.90444 2.85098C 4.28021 2.84796 3.69367 3.07817 3.26644 3.54155C 2.84105 4.00295 2.61157 4.65327 2.61157 5.42729L 3.61157 5.42729ZM 4.9004 3.85097C 5.61951 3.8533 6.30468 4.35817 6.30468 5.42729L 7.30468 5.42729C 7.30468 3.7996 6.1662 2.85506 4.90364 2.85097L 4.9004 3.85097ZM 6.30468 5.42729L 6.30468 14.5711L 7.30468 14.5711L 7.30468 5.42729L 6.30468 5.42729Z"/>
</g>
</g>
</g>
</svg>
