<svg width="22" height="19" viewBox="0 0 22 19" version="1.1" xmlns="http://www.w3.org/2000/svg" xmlns:xlink="http://www.w3.org/1999/xlink">
<title>Rectangle 14 Copy</title>
<desc>Created using Figma</desc>
<g id="Canvas" transform="translate(2220 3369)">
<g id="Rectangle 14 Copy">
<g transform="translate(-2219 -3368.35)" fill="#BCBEC0">
  <path id="path0_stroke" d="M 8.07373 14.3362L 8.07373 13.8362L 7.91666 13.8362L 7.78781 13.926L 8.07373 14.3362ZM 4.1665 17.0598L 3.6665 17.0598L 3.6665 18.0178L 4.45243 17.47L 4.1665 17.0598ZM 4.1665 14.3362L 4.6665 14.3362L 4.6665 13.8362L 4.1665 13.8362L 4.1665 14.3362ZM 4 0.500218L 16.1475 0.500218L 16.1475 -0.499782L 4 -0.499782L 4 0.500218ZM 19.6475 4.00022L 19.6475 10.3362L 20.6475 10.3362L 20.6475 4.00022L 19.6475 4.00022ZM 16.1475 13.8362L 8.07373 13.8362L 8.07373 14.8362L 16.1475 14.8362L 16.1475 13.8362ZM 7.78781 13.926L 3.88058 16.6496L 4.45243 17.47L 8.35965 14.7464L 7.78781 13.926ZM 4.6665 17.0598L 4.6665 14.3362L 3.6665 14.3362L 3.6665 17.0598L 4.6665 17.0598ZM 4.1665 13.8362L 4 13.8362L 4 14.8362L 4.1665 14.8362L 4.1665 13.8362ZM 0.5 10.3362L 0.5 4.00022L -0.5 4.00022L -0.5 10.3362L 0.5 10.3362ZM 4 -0.499782C 1.51472 -0.499782 -0.5 1.51494 -0.5 4.00022L 0.5 4.00022C 0.5 2.06722 2.067 0.500218 4 0.500218L 4 -0.499782ZM 16.1475 0.500218C 18.0805 0.500218 19.6475 2.06722 19.6475 4.00022L 20.6475 4.00022C 20.6475 1.51494 18.6327 -0.499782 16.1475 -0.499782L 16.1475 0.500218ZM 19.6475 10.3362C 19.6475 12.2692 18.0805 13.8362 16.1475 13.8362L 16.1475 14.8362C 18.6327 14.8362 20.6475 12.8215 20.6475 10.3362L 19.6475 10.3362ZM 4 13.8362C 2.067 13.8362 0.5 12.2692 0.5 10.3362L -0.5 10.3362C -0.5 12.8215 1.51472 14.8362 4 14.8362L 4 13.8362Z"/>
</g>
</g>
</g>
</svg>
