<svg width="10" height="14" viewBox="0 0 10 14" version="1.1" xmlns="http://www.w3.org/2000/svg" xmlns:xlink="http://www.w3.org/1999/xlink">
<title>$</title>
<desc>Created using Figma</desc>
<g id="Canvas" transform="translate(2690 4488)">
<g id="$">
<g transform="translate(-2689.9 -4487.14)">
  <path id="path0_fill" fill-rule="evenodd" d="M 5.41356 11.808L 5.41356 12.384C 5.41356 12.8229 5.01789 13.0423 4.62221 13.0423C 4.20855 13.0423 3.79489 12.8091 3.79489 12.3566L 3.79489 11.8354C 3.7769 11.7669 3.7769 11.7531 3.68698 11.7394C 0.989189 11.5337 0 10.3131 0 9.87429C 0 9.47657 0.467617 9.14743 0.989189 9.14743C 1.25897 9.14743 1.52875 9.22971 1.72659 9.44914C 2.42801 10.2034 3.65101 10.3543 3.72295 10.3543C 3.79489 10.3543 3.81288 10.2994 3.81288 10.2446C 3.81288 9.216 3.84885 7.95429 3.84885 6.69257C 3.84885 6.58286 3.70496 6.50057 2.76973 6.18514C 1.20501 5.63657 0.485602 4.67657 0.485602 3.744C 0.485602 2.55086 1.63666 1.41257 3.70496 1.22057C 3.79489 1.20686 3.81288 1.19314 3.81288 1.12457C 3.81288 0.96 3.79489 0.809143 3.79489 0.726857C 3.75892 0.356571 3.99273 0 4.62221 0C 5.01789 0 5.41356 0.205714 5.41356 0.630857L 5.41356 1.17943C 5.41356 1.22057 5.44953 1.248 5.50349 1.26171C 7.15813 1.48114 8.20128 2.18057 8.20128 2.71543C 8.20128 3.09943 7.76963 3.456 7.24806 3.456C 6.99627 3.456 6.7085 3.36 6.43872 3.14057C 6.06103 2.79771 5.52147 2.61943 5.44953 2.61943C 5.41356 2.61943 5.39558 2.64686 5.39558 2.70171C 5.39558 3.52457 5.37759 4.512 5.37759 5.55429C 5.37759 5.60914 5.41356 5.664 5.4855 5.69143C 6.76246 6.17143 8.92069 7.02171 8.92069 8.81829C 8.92069 10.1486 7.57179 11.3966 5.50349 11.6983C 5.43155 11.712 5.41356 11.7531 5.41356 11.808ZM 3.84881 5.0194L 3.84881 2.6194C 3.84881 2.55082 3.83083 2.53711 3.77687 2.53711C 3.77687 2.53711 2.37402 2.72911 2.37402 3.70282C 2.37402 4.22397 2.84164 4.70397 3.77687 5.06054C 3.79486 5.07425 3.81284 5.07425 3.81284 5.07425C 3.84881 5.07425 3.84881 5.06054 3.84881 5.0194ZM 5.37769 7.35088L 5.37769 10.176C 5.37769 10.2309 5.39567 10.2857 5.44963 10.2857C 5.71941 10.2857 6.92442 9.79203 6.92442 8.85945C 6.92442 8.29717 6.49277 7.69374 5.52157 7.28231C 5.46761 7.2686 5.43164 7.25488 5.41366 7.25488C 5.37769 7.25488 5.37769 7.28231 5.37769 7.35088Z"/>
</g>
</g>
</g>
</svg>
