<svg width="8" height="14" viewBox="0 0 8 14" version="1.1" xmlns="http://www.w3.org/2000/svg" xmlns:xlink="http://www.w3.org/1999/xlink">
<title>Page 1</title>
<desc>Created using Figma</desc>
<g id="Canvas" transform="translate(2555 4488)">
<g id="Page 1">
<g id="Stroke 3">
<g transform="translate(-2554.35 -4486.92)">
  <path id="path0_stroke" d="M 5.76818 11.7147L 5.96813 12.173L 6.10868 12.1117L 6.19068 11.9821L 5.76818 11.7147ZM 0.143176 11.7147L -0.279329 11.9821L -0.20256 12.1034L -0.0731283 12.1655L 0.143176 11.7147ZM 0.143176 0.461695L -0.0282984 -0.00798162L -0.188359 0.0504548L -0.279425 0.194472L 0.143176 0.461695ZM 5.76818 0.461695L 6.21959 0.246703L 6.13625 0.0717154L 5.95675 -0.00138218L 5.76818 0.461695ZM 5.56823 11.2564C 4.81396 11.5897 3.86872 11.7433 2.88671 11.7393C 1.90851 11.7371 0.989136 11.566 0.35948 11.2639L -0.0731283 12.1655C 0.735216 12.5534 1.81585 12.7368 2.88439 12.7393C 3.94913 12.7401 5.09739 12.5487 5.96813 12.173L 5.56823 11.2564ZM 0.565682 11.4473C 0.488775 11.3258 0.457352 11.0917 0.595939 10.6515C 0.731377 10.2152 0.984437 9.7294 1.28039 9.2C 1.57643 8.67017 1.90642 8.11992 2.16479 7.60894C 2.41371 7.11595 2.64318 6.57151 2.64318 6.0887L 1.64318 6.0887C 1.64318 6.30888 1.52289 6.66157 1.27212 7.15823C 1.03081 7.6369 0.711173 8.16884 0.407465 8.71214C 0.103665 9.25586 -0.19315 9.83411 -0.357899 10.3512C -0.5195 10.8645 -0.601423 11.4731 -0.279329 11.9821L 0.565682 11.4473ZM 2.64318 6.0887C 2.64318 5.60567 2.41375 5.06114 2.1648 4.56803C 1.90642 4.05698 1.57643 3.50672 1.28039 2.97689C 0.984437 2.44749 0.731381 1.96168 0.595944 1.52532C 0.457381 1.08518 0.488712 0.850794 0.565777 0.728919L -0.279425 0.194472C -0.60136 0.703597 -0.519529 1.31221 -0.357905 1.8256C -0.193154 2.34278 0.103665 2.92103 0.407465 3.46475C 0.711173 4.00805 1.0308 4.53998 1.27211 5.0187C 1.52285 5.51537 1.64318 5.86822 1.64318 6.0887L 2.64318 6.0887ZM 0.314651 0.931372C 1.66418 0.438673 4.0007 0.281821 5.5796 0.924773L 5.95675 -0.00138218C 4.09765 -0.75843 1.49817 -0.565282 -0.0282984 -0.00798162L 0.314651 0.931372ZM 5.31676 0.676688C 5.39166 0.833956 5.39823 1.10748 5.25134 1.55617C 5.10744 2.00056 4.85691 2.48841 4.57011 3.0134C 4.28328 3.53866 3.96746 4.08196 3.7214 4.5866C 3.48324 5.0758 3.26818 5.61112 3.26818 6.0887L 4.26818 6.0887C 4.26818 5.86277 4.38336 5.51146 4.62051 5.02432C 4.84977 4.55262 5.15432 4.02986 5.44774 3.49274C 5.74119 2.95536 6.03079 2.38452 6.2017 1.86731C 6.36962 1.35441 6.46569 0.763435 6.21959 0.246703L 5.31676 0.676688ZM 3.26818 6.0887C 3.26818 6.57151 3.49764 7.11595 3.74656 7.60894C 4.00493 8.11992 4.33492 8.67017 4.63097 9.2C 4.92691 9.7294 5.17997 10.2152 5.31541 10.6515C 5.454 11.0917 5.42258 11.3258 5.34567 11.4473L 6.19068 11.9821C 6.51278 11.4731 6.43085 10.8645 6.26925 10.3512C 6.1045 9.83411 5.80769 9.25586 5.50389 8.71214C 5.20018 8.16884 4.88054 7.6369 4.63923 7.15823C 4.38846 6.66157 4.26818 6.30888 4.26818 6.0887L 3.26818 6.0887Z"/>
</g>
</g>
<g id="Fill 5">
<g transform="translate(-2554.21 -4476.68)">
  <path id="path1_fill" fill-rule="evenodd" d="M 5.768 0.846C 5.768 0.379 4.477 0 2.884 0C 1.291 0 0 0.379 0 0.846C 0 1.313 1.291 1.692 2.884 1.692C 4.477 1.692 5.768 1.313 5.768 0.846"/>
</g>
</g>
<g id="Fill 7">
<g transform="translate(-2552.59 -4482.73)">
  <path id="path2_fill" fill-rule="evenodd" d="M 1.162 1.858C 1.804 1.858 2.324 1.365 2.325 0.756C 2.325 0.147 1.805 0 1.163 0C 0.521 0 0 0.147 0 0.756C 0 1.365 0.52 1.858 1.162 1.858"/>
</g>
</g>
</g>
</g>
</svg>
