<svg width="50" height="31" viewBox="0 0 50 31" version="1.1" xmlns="http://www.w3.org/2000/svg" xmlns:xlink="http://www.w3.org/1999/xlink">
<title>Page 1</title>
<desc>Created using Figma</desc>
<g id="Canvas" transform="translate(-12781 1185)">
<g id="Page 1">
<g id="Fill 17">
<g transform="translate(12799.4 -1177.87)" fill="#FF2929">
  <path id="path0_fill" fill-rule="evenodd" d="M 15.4673 19.7027C 12.2665 19.7027 9.54529 19.0064 7.51459 17.6815C 7.33533 17.5644 7.16095 17.4431 6.99297 17.3166C 6.86553 17.2205 6.74054 17.1227 6.61951 17.0212C 6.56829 16.9782 6.52073 16.9331 6.47073 16.8892C 5.51468 16.0499 4.80069 15.0502 4.33151 13.899C 4.25437 13.71 4.18365 13.5171 4.11963 13.3198C 4.05621 13.1232 3.99707 12.9241 3.94677 12.7195C 3.75501 11.9415 3.65837 11.1056 3.65837 10.2139C 3.65837 7.32344 4.64125 5.02934 6.57988 3.39527C 6.76249 3.24131 6.95547 3.0962 7.15302 2.95535C 6.74054 1.84534 6.07959 0.902092 5.17141 0.136884C 5.11531 0.08963 5.05617 0.0457296 4.99855 0C 1.82278 2.27581 0 5.78479 0 10.2139C 0 11.5531 0.173772 12.8067 0.499977 13.9704C 0.555157 14.1679 0.614301 14.3634 0.678627 14.5557C 0.744173 14.7518 0.813377 14.9453 0.888068 15.1356C 1.36366 16.348 2.02216 17.4446 2.8456 18.4123C 2.99407 18.5869 3.14741 18.7583 3.30686 18.9244C 3.46417 19.0887 3.62727 19.2485 3.79495 19.4046C 6.52073 21.9426 10.5705 23.3611 15.4673 23.3611C 19.3759 23.3611 22.7459 22.4514 25.3357 20.7905L 21.0505 18.8348C 19.4308 19.407 17.5501 19.7027 15.4673 19.7027Z"/>
</g>
</g>
<g id="Fill 20">
<g transform="translate(12810.4 -1180.81)" fill="#FF2929">
  <path id="path1_fill" fill-rule="evenodd" d="M 4.43333 0C 2.85779 0 1.37707 0.14603 0 0.421627C 0.781366 1.44048 1.40634 2.5761 1.85936 3.81811C 2.67609 3.71294 3.5349 3.65837 4.43333 3.65837C 8.16974 3.65837 11.2412 4.5821 13.3158 6.32958C 15.2575 7.96518 16.2419 10.259 16.2419 13.1473C 16.2419 15.6651 15.4718 17.7376 13.9515 19.3223L 14.9584 23.2757C 18.0809 20.9957 19.9003 17.5163 19.9003 13.1473C 19.9003 5.03513 13.782 0 4.43333 0Z"/>
</g>
</g>
<g id="Fill 22">
<g transform="translate(12781 -1185)" fill="#FF2929">
  <path id="path2_fill" fill-rule="evenodd" d="M 3.65837 13.1476C 3.65837 10.2571 4.64125 7.96304 6.57988 6.32897C 8.65234 4.5818 11.7254 3.65837 15.467 3.65837C 18.5226 3.65837 21.1329 4.27693 23.1175 5.45798C 23.3657 5.60584 23.6029 5.76345 23.8312 5.92869C 24.0096 6.05795 24.1839 6.19026 24.3495 6.32989C 24.3891 6.36342 24.4263 6.39879 24.465 6.43263C 25.4202 7.26734 26.1338 8.2676 26.6027 9.42548C 26.6985 9.66175 26.7866 9.9032 26.8619 10.1526C 26.9365 10.4004 26.9987 10.6559 27.0533 10.9163C 27.1996 11.6153 27.2759 12.3586 27.2759 13.1476C 27.2759 16.0145 26.2777 18.3046 24.3098 19.9543C 24.2178 20.0314 24.1214 20.1052 24.0254 20.1789C 24.4184 21.2792 25.0708 22.2063 25.9918 22.9791C 26.0549 23.0319 26.122 23.0819 26.1872 23.1331C 29.1907 20.8518 30.9342 17.4257 30.9342 13.1476C 30.9342 11.9165 30.7912 10.7577 30.5196 9.67546C 30.4571 9.42639 30.3894 9.18067 30.3132 8.93983C 30.2349 8.6935 30.1486 8.45205 30.0562 8.21425C 29.584 6.99632 28.9288 5.89546 28.1063 4.92538C 27.9246 4.71137 27.7322 4.50528 27.5347 4.30376C 27.3283 4.09371 27.1131 3.89098 26.8896 3.69495C 24.1845 1.32098 20.2503 0 15.467 0C 6.10307 0 0 5.03544 0 13.1476C 0 17.558 1.85022 21.0612 5.02538 23.3398L 6.02777 19.4055C 4.4565 17.8114 3.65837 15.7112 3.65837 13.1476Z"/>
</g>
</g>
<g id="Fill 25">
<g transform="translate(12786.7 -1163.17)" fill="#FF2929">
  <path id="path3_fill" fill-rule="evenodd" d="M 9.73827 0.805145C 7.73226 0.805145 5.91619 0.529853 4.33852 0L 0 1.98009C 2.57031 3.58581 5.8918 4.46351 9.73827 4.46351C 11.1916 4.46351 12.5705 4.3376 13.8628 4.09493C 13.078 3.05717 12.4613 1.9118 12.0125 0.676493C 11.2848 0.76033 10.5269 0.805145 9.73827 0.805145Z"/>
</g>
</g>
</g>
</g>
</svg>
