<svg width="31" height="30" viewBox="0 0 31 30" version="1.1" xmlns="http://www.w3.org/2000/svg" xmlns:xlink="http://www.w3.org/1999/xlink">
<title>Group 8 Copy 4</title>
<desc>Created using Figma</desc>
<g id="Canvas" transform="translate(-5281 -6351)">
<g id="Group 8 Copy 4">
<g id="Group 20 Copy">
<mask id="mask0_outline" mask-type="alpha">
<g id="Clip 19">
<g transform="translate(5281.91 6351)" fill="#FFFFFF">
  <path id="path0_fill" fill-rule="evenodd" d="M 1.42109e-14 0L 30 0L 30 29.9998L 0 29.9998L 0 7.10543e-15L 1.42109e-14 0Z"/>
</g>
</g>
</mask>
<g id="Fill 18" mask="url(#mask0_outline)">
<g transform="translate(5281.91 6351)" fill="#FFFFFF">
  <path id="path1_fill" fill-rule="evenodd" d="M 0 15C 0 23.285 6.716 30 15 30C 23.284 30 30 23.285 30 15C 30 6.716 23.284 0 15 0C 6.716 0 0 6.716 0 15Z"/>
</g>
</g>
</g>
<g id="Page 1 Copy">
<g transform="translate(5288 6360)" fill="#BCBEC0">
  <path id="path2_stroke" d="M 12.1118 0.234808L 11.9724 -0.245374L 11.9723 -0.245338L 12.1118 0.234808ZM 8.77994 2.39266L 8.41294 2.73223L 8.77468 3.12318L 9.14201 2.73748L 8.77994 2.39266ZM 5.44917 0.234808L 5.597 -0.242839L 5.59677 -0.242908L 5.44917 0.234808ZM 0.291637 6.85145L 0.775193 6.72427L 0.775164 6.72416L 0.291637 6.85145ZM 8.77994 15.3262L 8.55419 15.7723L 8.78176 15.8875L 9.00857 15.7708L 8.77994 15.3262ZM 17.2693 6.85145L 16.7806 6.74576L 16.7806 6.7458L 17.2693 6.85145ZM 11.9723 -0.245338C 11.0213 0.0364758 10.1068 0.623 9.47731 1.11109C 9.15882 1.35866 8.89102 1.59488 8.71182 1.76146C 8.62047 1.84646 8.54645 1.91845 8.49832 1.96625C 8.47345 1.99097 8.45322 2.01145 8.4405 2.02446C 8.43375 2.03136 8.42807 2.03722 8.42467 2.04075C 8.42278 2.04271 8.42107 2.04449 8.42012 2.04547C 8.41956 2.04606 8.41899 2.04665 8.41871 2.04695C 8.41852 2.04715 8.41831 2.04737 8.41822 2.04747C 8.41815 2.04754 8.41806 2.04763 8.41803 2.04767C 8.41795 2.04775 8.41787 2.04783 8.77994 2.39266C 9.14201 2.73748 9.14195 2.73755 9.14189 2.73761C 9.14188 2.73762 9.14183 2.73767 9.14181 2.7377C 9.14181 2.7377 9.14174 2.73777 9.14175 2.73776C 9.14184 2.73766 9.14185 2.73765 9.14204 2.73745C 9.14262 2.73685 9.14318 2.73626 9.14431 2.73509C 9.14694 2.73236 9.15027 2.72893 9.15543 2.72365C 9.16652 2.71231 9.18168 2.69696 9.20309 2.67569C 9.24754 2.63152 9.30971 2.57099 9.39281 2.49376C 9.56253 2.33587 9.79672 2.12878 10.0905 1.901C 10.6857 1.43837 11.4371 0.945968 12.2513 0.714954L 11.9723 -0.245338ZM 8.77994 2.39266C 9.14694 2.05308 9.14686 2.053 9.14678 2.0529C 9.14674 2.05286 9.14665 2.05276 9.14657 2.05268C 9.14648 2.05258 9.14626 2.05235 9.14607 2.05214C 9.14579 2.05184 9.14522 2.05122 9.14466 2.05062C 9.14374 2.04964 9.14205 2.04783 9.14022 2.04588C 9.13698 2.04243 9.13147 2.03659 9.12502 2.02982C 9.11296 2.01717 9.09358 1.99705 9.06988 1.97297C 9.02427 1.92663 8.95345 1.85633 8.86588 1.77349C 8.69459 1.61166 8.43567 1.38054 8.12313 1.13644C 7.5066 0.65624 6.5958 0.0712167 5.597 -0.242839L 5.30134 0.712454C 6.17212 0.977028 6.9267 1.47093 7.50816 1.925C 7.79462 2.14803 8.01785 2.34788 8.17896 2.50023C 8.25758 2.57449 8.31552 2.63209 8.35712 2.67437C 8.37704 2.6946 8.39087 2.70897 8.40113 2.71974C 8.40584 2.72468 8.40877 2.72778 8.41116 2.73033C 8.41216 2.73139 8.41259 2.73186 8.4131 2.7324C 8.41325 2.73256 8.41336 2.73268 8.41328 2.7326C 8.41329 2.73261 8.41317 2.73248 8.41318 2.73248C 8.41315 2.73245 8.41309 2.73239 8.41307 2.73238C 8.41301 2.73231 8.41294 2.73223 8.77994 2.39266ZM 5.59677 -0.242908C 3.55437 -0.873979 1.74405 -0.309869 0.630831 1.10027C -0.4643 2.4875 -0.816917 4.6044 -0.19189 6.97873L 0.775164 6.72416C 0.206376 4.56346 0.566601 2.7955 1.41573 1.7199C 2.24676 0.667206 3.61212 0.190514 5.30156 0.712524L 5.59677 -0.242908ZM -0.191919 6.97862C 0.486887 9.55965 2.72755 11.7652 4.70572 13.2925C 5.70457 14.0632 6.67116 14.6867 7.37479 15.1088C 7.72907 15.3212 8.02473 15.4877 8.22732 15.5985C 8.32978 15.6545 8.41167 15.6981 8.46606 15.7266C 8.49382 15.7412 8.51589 15.7527 8.53016 15.76C 8.53756 15.7638 8.54358 15.7669 8.54733 15.7688C 8.54934 15.7698 8.55106 15.7707 8.55207 15.7712C 8.55264 15.7715 8.55317 15.7718 8.55346 15.7719C 8.55364 15.772 8.55382 15.7721 8.55391 15.7722C 8.55407 15.7722 8.55419 15.7723 8.77994 15.3262C 9.00569 14.88 9.00576 14.8801 9.00581 14.8801C 9.00579 14.8801 9.0058 14.8801 9.00576 14.8801C 9.00561 14.88 9.00548 14.8799 9.00518 14.8798C 9.00444 14.8794 9.00354 14.8789 9.00208 14.8782C 8.99887 14.8766 8.99452 14.8743 8.98822 14.8711C 8.97509 14.8643 8.95647 14.8547 8.93103 14.8413C 8.87903 14.814 8.80456 14.7744 8.70711 14.7211C 8.50989 14.6132 8.23155 14.4566 7.88912 14.2512C 7.1993 13.8376 6.28156 13.2464 5.31684 12.501C 3.36785 10.9962 1.36436 8.96446 0.775193 6.72427L -0.191919 6.97862ZM 8.77994 15.3262C 9.00857 15.7708 9.00869 15.7708 9.00884 15.7707C 9.00893 15.7707 9.00911 15.7706 9.00929 15.7705C 9.00958 15.7703 9.01011 15.77 9.01069 15.7697C 9.01173 15.7692 9.01347 15.7683 9.01553 15.7672C 9.01939 15.7652 9.02555 15.762 9.03317 15.758C 9.04791 15.7503 9.07062 15.7384 9.09926 15.7231C 9.15549 15.6932 9.23994 15.6477 9.34568 15.5892C 9.55498 15.4735 9.85968 15.3003 10.2242 15.0803C 10.9486 14.6429 11.9398 14.0013 12.9552 13.2186C 14.9591 11.6729 17.2172 9.4589 17.758 6.95709L 16.7806 6.7458C 16.3219 8.8678 14.3353 10.8912 12.3444 12.4268C 11.3624 13.1849 10.4186 13.795 9.70745 14.2242C 9.35421 14.4374 9.06597 14.6012 8.86176 14.7141C 8.76075 14.77 8.68331 14.8117 8.62934 14.8404C 8.60288 14.8545 8.58341 14.8648 8.56974 14.8719C 8.56316 14.8754 8.55857 14.8777 8.55522 14.8795C 8.55367 14.8803 8.5527 14.8808 8.55192 14.8812C 8.55159 14.8814 8.55144 14.8814 8.55128 14.8815C 8.55123 14.8815 8.55124 14.8815 8.55121 14.8816C 8.55125 14.8815 8.55131 14.8815 8.77994 15.3262ZM 17.758 6.95713C 18.2788 4.54879 17.771 2.49654 16.6371 1.15816C 15.4985 -0.185844 13.7596 -0.764126 11.9724 -0.245374L 12.2511 0.714989C 13.6485 0.309396 14.9829 0.752594 15.8742 1.80457C 16.7702 2.86218 17.2489 4.58042 16.7806 6.74576L 17.758 6.95713Z"/>
</g>
</g>
</g>
</g>
</svg>
