<svg width="21" height="21" viewBox="0 0 21 21" version="1.1" xmlns="http://www.w3.org/2000/svg" xmlns:xlink="http://www.w3.org/1999/xlink">
<title>Page 1</title>
<desc>Created using Figma</desc>
<g id="Canvas" transform="translate(-443 932)">
<g id="Page 1">
<g id="Fill 1">
<g transform="translate(446.383 -928.143)" fill="#F64D25">
  <path id="path0_fill" fill-rule="evenodd" d="M 0.879512 1.10278C 0.928512 2.18878 1.86651 6.33478 1.86651 6.33478C 2.21151 7.17378 2.50751 6.33478 2.50751 6.33478C 3.64351 2.92878 1.32351 0.955784 1.32351 0.955784C 0.731512 0.609784 0.879512 1.10278 0.879512 1.10278L 0.879512 1.10278ZM 14.3545 0.510795C 14.3545 0.510795 15.4895 1.30079 14.3545 1.44879C 14.3545 1.44879 10.1085 1.94179 6.95052 4.90379C 6.95052 4.90379 2.21152 9.04879 0.434519 13.5908C 0.434519 13.5908 -0.157481 13.5908 0.0405193 12.7018C 0.237519 11.8128 1.42152 7.91479 6.70352 3.12679C 6.70352 3.12679 11.7875 -1.51221 14.3545 0.510795L 14.3545 0.510795Z"/>
</g>
</g>
<g id="Stroke 3">
<g transform="translate(443.5 -931.5)" fill="#F64D25">
  <path id="path1_stroke" d="M 19 19.5L 1 19.5L 1 20.5L 19 20.5L 19 19.5ZM 1 19.5C 0.726142 19.5 0.5 19.2739 0.5 19L -0.5 19C -0.5 19.8261 0.173858 20.5 1 20.5L 1 19.5ZM 0.5 19L 0.5 1L -0.5 1L -0.5 19L 0.5 19ZM 0.5 1C 0.5 0.726142 0.726142 0.5 1 0.5L 1 -0.5C 0.173858 -0.5 -0.5 0.173858 -0.5 1L 0.5 1ZM 1 0.5L 19 0.5L 19 -0.5L 1 -0.5L 1 0.5ZM 19 0.5C 19.2739 0.5 19.5 0.726142 19.5 1L 20.5 1C 20.5 0.173858 19.8261 -0.5 19 -0.5L 19 0.5ZM 19.5 1L 19.5 19L 20.5 19L 20.5 1L 19.5 1ZM 19.5 19C 19.5 19.2739 19.2739 19.5 19 19.5L 19 20.5C 19.8261 20.5 20.5 19.8261 20.5 19L 19.5 19Z"/>
</g>
</g>
</g>
</g>
</svg>
