<svg width="20" height="21" viewBox="0 0 20 21" version="1.1" xmlns="http://www.w3.org/2000/svg" xmlns:xlink="http://www.w3.org/1999/xlink">
<title>Group</title>
<desc>Created using Figma</desc>
<g id="Canvas" transform="translate(-864 2401)">
<g id="Group">
<g id="Stroke 7">
<g transform="translate(865 -2400)">
  <path id="path0_stroke" d="M 7.35 14.199C 3.56714 14.199 0.5 11.1319 0.5 7.349L -0.5 7.349C -0.5 11.6841 3.01486 15.199 7.35 15.199L 7.35 14.199ZM 0.5 7.349C 0.5 3.56623 3.56705 0.5 7.35 0.5L 7.35 -0.5C 3.01495 -0.5 -0.5 3.01377 -0.5 7.349L 0.5 7.349ZM 7.35 0.5C 11.1329 0.5 14.2 3.56623 14.2 7.349L 15.2 7.349C 15.2 3.01377 11.6851 -0.5 7.35 -0.5L 7.35 0.5ZM 14.2 7.349C 14.2 11.1319 11.1329 14.199 7.35 14.199L 7.35 15.199C 11.6851 15.199 15.2 11.6841 15.2 7.349L 14.2 7.349Z"/>
</g>
</g>
<g id="Stroke 9">
<g transform="translate(877 -2387)">
  <path id="path1_stroke" d="M 0.354777 -0.352325C 0.160193 -0.548263 -0.156387 -0.549361 -0.352325 -0.354777C -0.548263 -0.160193 -0.549361 0.156387 -0.354777 0.352325L 0.354777 -0.352325ZM 5.74966 6.49924C 5.94424 6.69518 6.26082 6.69628 6.45676 6.50169C 6.6527 6.30711 6.65379 5.99053 6.45921 5.79459L 5.74966 6.49924ZM -0.354777 0.352325L 5.74966 6.49924L 6.45921 5.79459L 0.354777 -0.352325L -0.354777 0.352325Z"/>
</g>
</g>
</g>
</g>
</svg>
