<svg width="21" height="22" viewBox="0 0 21 22" version="1.1" xmlns="http://www.w3.org/2000/svg" xmlns:xlink="http://www.w3.org/1999/xlink">
<title>Page 1</title>
<desc>Created using Figma</desc>
<g id="Canvas" transform="translate(-369 932)">
<g id="Page 1">
<g id="Group 3">
<g id="Fill 1">
<g transform="translate(370 -931)" fill="#3DCA26">
  <path id="path0_stroke" d="M 9.11066 19.7399L 9.0139 20.2305L 9.10706 20.2488L 9.20048 20.2318L 9.11066 19.7399ZM 0 2.45565L 0.0905526 1.96391L -0.888249 1.78367L -0.448561 2.67654L 0 2.45565ZM 9.11066 0L 9.38499 -0.418022L 9.10769 -0.600003L 8.83221 -0.415287L 9.11066 0ZM 18.2214 2.45565L 18.6347 2.73711L 19.2515 1.83151L 18.1632 1.95904L 18.2214 2.45565ZM 9.20742 19.2494C 6.70522 18.7558 5.11957 17.8083 4.07948 16.6213C 3.00701 15.4109 2.49624 13.951 2.18156 12.2984C 1.86373 10.6437 1.78133 8.86823 1.60742 7.13653C 1.43302 5.40375 1.1527 3.67733 0.448561 2.23475L -0.448561 2.67654C 0.199679 3.98023 0.441334 5.53242 0.612438 7.23655C 0.784037 8.94176 0.870682 10.7615 1.19937 12.4863C 1.5312 14.2131 2.14444 15.9169 3.32738 17.2804C 4.54271 18.6673 6.3439 19.7038 9.0139 20.2305L 9.20742 19.2494ZM 0 2.45565C -0.0905526 2.94738 -0.0903115 2.94742 -0.0900541 2.94747C -0.0899465 2.94749 -0.0896723 2.94754 -0.0894569 2.94758C -0.0891762 2.94763 -0.0885289 2.94775 -0.0879673 2.94785C -0.0871448 2.948 -0.0854555 2.9483 -0.0838112 2.94859C -0.0811271 2.94906 -0.0761803 2.94992 -0.0708292 2.95083C -0.0613464 2.95243 -0.0452633 2.95505 -0.0264786 2.95794C 0.00860777 2.9633 0.0648682 2.97129 0.133419 2.97956C 0.26538 2.99539 0.468954 3.01508 0.719191 3.02738C 1.20868 3.05097 1.93722 3.04712 2.80357 2.94002C 4.51108 2.72595 6.89958 2.0765 9.38911 0.415287L 8.83221 -0.415287C 6.48546 1.16627 4.31864 1.74464 2.67988 1.9477C 1.8731 2.04917 1.23078 2.05121 0.767687 2.02855C 0.541634 2.01773 0.373489 2.00125 0.252802 1.98671C 0.19503 1.97979 0.154735 1.97403 0.124847 1.96945C 0.111144 1.96736 0.102635 1.96596 0.0956478 1.96478C 0.0927638 1.9643 0.0915059 1.96408 0.0900442 1.96382C 0.0896155 1.96374 0.0893115 1.96369 0.089529 1.96373C 0.0894874 1.96372 0.0898681 1.96379 0.0898478 1.96378C 0.089933 1.9638 0.0901094 1.96383 0.0901519 1.96384C 0.0903441 1.96387 0.0905526 1.96391 0 2.45565ZM 8.83633 0.418022C 11.1835 1.95089 13.566 2.59855 15.3047 2.84402C 16.1842 2.96704 16.9325 2.99563 17.4418 2.99234C 17.701 2.9905 17.9114 2.98072 18.0495 2.97167C 18.1207 2.96698 18.1785 2.96217 18.2151 2.9588C 18.2344 2.95701 18.2506 2.95538 18.2604 2.95436C 18.2658 2.95379 18.2706 2.95326 18.2733 2.95296C 18.2749 2.95278 18.2765 2.95261 18.2773 2.95251C 18.2778 2.95245 18.2784 2.95239 18.2787 2.95236C 18.2789 2.95233 18.2791 2.95231 18.2792 2.9523C 18.2794 2.95227 18.2796 2.95225 18.2214 2.45565C 18.1632 1.95904 18.1634 1.95902 18.1635 1.95901C 18.1636 1.959 18.1637 1.95899 18.1638 1.95898C 18.1638 1.95898 18.1639 1.95896 18.1639 1.95897C 18.1636 1.959 18.1635 1.95901 18.1629 1.95908C 18.1612 1.95927 18.1594 1.95946 18.156 1.95981C 18.1483 1.96063 18.1384 1.96163 18.1232 1.96302C 18.0909 1.96601 18.0463 1.96975 17.984 1.97382C 17.8552 1.98229 17.6742 1.99086 17.4351 1.99236C 16.9479 1.99575 16.2727 1.97096 15.4439 1.85376C 13.7661 1.61878 11.5932 1.03862 9.38499 -0.418022L 8.83633 0.418022ZM 17.8082 2.17419C 16.9582 3.4222 16.6799 5.06017 16.5333 6.74319C 16.386 8.43921 16.3677 10.2558 16.1077 11.9742C 15.8505 13.6914 15.3891 15.2387 14.3195 16.5167C 13.2853 17.7672 11.66 18.7661 9.02084 19.248L 9.20048 20.2318C 12.0183 19.7172 13.8748 18.6235 15.0901 17.154C 16.27 15.7119 16.8259 13.9118 17.0966 12.1231C 17.3645 10.3357 17.3848 8.48789 17.5295 6.82995C 17.6751 5.15901 17.9425 3.75341 18.6347 2.73711L 17.8082 2.17419Z"/>
</g>
</g>
<g id="Path 16">
<g transform="translate(378.332 -930.882)" fill="#3DCA26">
  <path id="path1_stroke" d="M 0.3 0L 0.3 19.6077L 1.3 19.6077L 1.3 0L 0.3 0Z"/>
</g>
</g>
</g>
</g>
</g>
</svg>
