<svg width="450" height="492" viewBox="0 0 450 492" fill="none" xmlns="http://www.w3.org/2000/svg">
<path d="M268.4 153.49H268.65C269.004 153.488 269.346 153.362 269.617 153.134C269.887 152.905 270.069 152.589 270.13 152.24L270.58 149.57C270.613 149.373 270.606 149.171 270.561 148.977C270.516 148.782 270.433 148.599 270.317 148.436C270.201 148.274 270.054 148.136 269.885 148.03C269.715 147.924 269.527 147.853 269.33 147.82C269.133 147.787 268.931 147.793 268.737 147.839C268.542 147.884 268.359 147.966 268.196 148.083C268.034 148.199 267.895 148.346 267.79 148.515C267.684 148.684 267.613 148.873 267.58 149.07L267.13 151.74C267.094 151.939 267.099 152.143 267.144 152.339C267.189 152.536 267.274 152.722 267.392 152.885C267.511 153.049 267.661 153.186 267.835 153.29C268.008 153.394 268.2 153.462 268.4 153.49Z" fill="#F8FBFF"/>
<path d="M262.64 151.41L263.09 148.74C263.156 148.342 263.062 147.934 262.827 147.606C262.593 147.278 262.238 147.056 261.84 146.99C261.442 146.924 261.034 147.018 260.706 147.252C260.378 147.487 260.156 147.842 260.09 148.24L259.64 150.91C259.607 151.104 259.613 151.303 259.657 151.495C259.701 151.688 259.782 151.869 259.896 152.03C260.011 152.191 260.155 152.327 260.322 152.432C260.49 152.537 260.676 152.607 260.87 152.64H261.12C261.478 152.648 261.828 152.529 262.106 152.304C262.384 152.079 262.574 151.762 262.64 151.41Z" fill="#F8FBFF"/>
<path d="M190.47 358.52C190.504 358.207 190.438 357.892 190.282 357.619C190.126 357.346 189.887 357.129 189.6 357L189.47 356.93C189.146 356.819 188.794 356.821 188.472 356.938C188.15 357.054 187.878 357.277 187.7 357.57L165.88 393.57C158.19 404.72 147.02 410.37 132.66 410.37C127.811 410.37 123.011 409.396 118.544 407.507C114.078 405.617 110.037 402.85 106.66 399.37C116.773 413.179 129.451 424.913 144 433.93C159.379 440.099 174.275 445.135 190.5 448.5L191 422.78L339.69 424.43L336.86 426C339.487 424.54 342.083 423.03 344.65 421.47L183.46 419.7L190.47 358.52Z" fill="#F8FBFF"/>
<path d="M352.17 416.69C349.837 418.25 347.467 419.763 345.06 421.23C347.47 419.76 349.83 418.25 352.17 416.69Z" fill="#F8FBFF"/>
<path d="M274.19 165.66C273.839 165.484 273.433 165.452 273.059 165.572C272.685 165.691 272.373 165.953 272.19 166.3C271.273 167.918 270.026 169.325 268.53 170.43C266.97 171.428 265.14 171.92 263.29 171.84C262.892 171.809 262.498 171.938 262.196 172.198C261.893 172.458 261.705 172.827 261.675 173.225C261.644 173.623 261.773 174.016 262.033 174.319C262.293 174.622 262.662 174.809 263.06 174.84H263.6C265.973 174.851 268.295 174.155 270.27 172.84C272.162 171.463 273.729 169.688 274.86 167.64C275.03 167.288 275.056 166.883 274.93 166.513C274.805 166.142 274.539 165.836 274.19 165.66Z" fill="#F8FBFF"/>
<path d="M240.89 224.78H240.68L241 224.69C241 224.69 241 224.69 241 224.76L240.89 224.78Z" fill="#F8FBFF"/>
<path d="M348.34 111C348.34 111 247.12 17.6999 107.54 75.0799C-36.54 134.31 17.23 274.94 50.41 303.6C71.78 322.06 79.34 356.8 99.65 389.08C98.7889 387.176 98.093 385.203 97.57 383.18L85.63 336.83L73.81 291V290.79C73.7332 290.559 73.7104 290.314 73.7434 290.073C73.7763 289.832 73.8641 289.602 74 289.4C74.1412 289.208 74.3227 289.05 74.5318 288.936C74.7408 288.822 74.9723 288.755 75.21 288.74L85 288.23H85.82L88.07 288.11L109 287L124 286.22L126.12 286.1L127.12 286.05L133.78 285.7C133.913 285.685 134.047 285.685 134.18 285.7C134.489 285.772 134.769 285.934 134.986 286.166C135.203 286.397 135.347 286.687 135.4 287L136.35 292.67L139.45 311.22L140.34 316.52L146.04 350.62C146.072 350.817 146.143 351.006 146.248 351.175C146.353 351.345 146.491 351.492 146.653 351.609C146.815 351.725 146.998 351.809 147.192 351.854C147.387 351.9 147.588 351.907 147.785 351.875C147.982 351.843 148.171 351.772 148.34 351.667C148.51 351.562 148.657 351.424 148.774 351.262C148.89 351.1 148.974 350.917 149.02 350.723C149.065 350.528 149.072 350.327 149.04 350.13L142.78 313L142.56 311.68L152.39 290C163.63 269.23 172.1 258.26 185.22 249.29C189.505 246.405 193.97 243.8 198.59 241.49C214.97 233.13 228.1 228.91 241.14 227.79C241.213 227.8 241.287 227.8 241.36 227.79C243.43 236.98 255.8 244.14 270.78 244.25H271.15C278.87 244.25 286.15 242.4 291.67 239.04C296.26 236.25 299.24 232.67 300.32 228.73C300.39 228.48 300.45 228.23 300.51 227.98L300.59 227.89L302.59 228.13L305.18 228.45C307.53 228.74 309.75 229.01 310.66 229.09C325.661 230.4 340.175 235.065 353.13 242.74C373.56 254.89 390.13 276.2 398.49 301.2L415.18 352.25C416.86 349.61 418.51 346.93 420.07 344.25C424.35 334.13 428.61 309.77 428.6 298.14C428.58 156.22 348.34 111 348.34 111ZM124.34 239.14C122.983 241.609 121.768 244.153 120.7 246.76C119.02 251.26 118.5 257.59 118.36 262.1C118.289 264.463 118.579 266.824 119.22 269.1L123.22 283.25L87.32 285.14C86.3947 282.331 84.8026 279.789 82.68 277.73C78.4234 273.572 75.0256 268.618 72.68 263.15C72.22 262.07 71.77 261 71.33 259.95C71.3813 259.682 71.3571 259.405 71.26 259.15L70.35 257L57.88 225.49C57.5907 224.771 57.5907 223.969 57.88 223.25C58.2768 222.394 58.9955 221.729 59.88 221.4L60.55 221.14C61.3384 220.79 62.2327 220.766 63.0394 221.071C63.8461 221.376 64.5001 221.986 64.86 222.77L72.14 241.15C72.232 241.385 72.3821 241.592 72.5763 241.753C72.7704 241.914 73.0022 242.023 73.25 242.07C73.5307 242.131 73.8232 242.107 74.09 242C74.2733 241.927 74.4404 241.819 74.5819 241.682C74.7233 241.544 74.8363 241.38 74.9143 241.199C74.9924 241.018 75.0339 240.823 75.0366 240.626C75.0392 240.429 75.003 240.233 74.93 240.05L74.13 238L73.99 237.67L62.57 208.8C62.2807 208.081 62.2807 207.279 62.57 206.56C62.9668 205.704 63.6855 205.039 64.57 204.71L65.24 204.45C66.0287 204.103 66.922 204.08 67.728 204.384C68.5339 204.689 69.1881 205.298 69.55 206.08L73.27 215.47L80.16 232.85C80.2027 232.96 80.2598 233.065 80.33 233.16C80.5199 233.437 80.7992 233.641 81.1213 233.738C81.4434 233.834 81.7888 233.817 82.1 233.69C82.4695 233.545 82.7665 233.259 82.9259 232.896C83.0852 232.532 83.0939 232.12 82.95 231.75L75.95 214.14L72.36 205L69.45 197.67C69.3109 197.311 69.2446 196.928 69.2549 196.544C69.2652 196.159 69.3519 195.781 69.51 195.43C69.7041 195.004 69.9809 194.622 70.3243 194.304C70.6676 193.987 71.0707 193.74 71.51 193.58L72.19 193.31C72.9785 192.964 73.8714 192.942 74.6758 193.249C75.4803 193.556 76.1319 194.167 76.49 194.95L82.49 209.95C82.49 210.02 82.56 210.08 82.59 210.14L89.23 226.77C89.3404 227.048 89.5321 227.287 89.7801 227.454C90.028 227.622 90.3207 227.711 90.62 227.71C90.8112 227.712 91.0011 227.678 91.18 227.61C91.5123 227.474 91.7855 227.225 91.9504 226.906C92.1153 226.587 92.1613 226.22 92.08 225.87L92.02 225.66L81.81 200.3C81.6712 199.943 81.605 199.562 81.6153 199.179C81.6256 198.796 81.7122 198.419 81.87 198.07C82.0627 197.644 82.339 197.26 82.6826 196.942C83.0261 196.625 83.4298 196.379 83.87 196.22L84.55 195.95C85.3385 195.604 86.2314 195.582 87.0359 195.889C87.8403 196.196 88.4919 196.807 88.85 197.59L97.42 219.21L99.32 224.21L107 244.59C107.095 244.863 107.268 245.103 107.497 245.281C107.726 245.458 108.001 245.566 108.29 245.59C108.573 245.61 108.856 245.55 109.107 245.418C109.358 245.285 109.567 245.085 109.71 244.84C112.146 240.586 114.919 236.533 118 232.72C120.75 229.56 124.56 227.25 126.86 227.41C127.14 227.404 127.416 227.469 127.664 227.599C127.913 227.728 128.124 227.917 128.28 228.15C129.25 229.65 126.4 235.12 124.31 239.11L124.34 239.14ZM317 169.64C313.73 178.35 295.12 179.36 294.93 179.37C294.727 179.378 294.528 179.428 294.345 179.517C294.162 179.605 293.999 179.73 293.866 179.883C293.733 180.037 293.633 180.216 293.571 180.41C293.51 180.604 293.489 180.808 293.51 181.01L297.79 225.36C297.795 225.416 297.795 225.473 297.79 225.53C297.79 225.66 297.79 225.78 297.79 225.91V226.25C297.79 226.44 297.79 226.63 297.71 226.83C297.678 227.066 297.631 227.3 297.57 227.53C296.77 230.86 294.21 233.97 290.16 236.43C285.01 239.56 278.16 241.24 270.85 241.19C257.33 241.09 246.16 235.01 244.37 227.19C244.188 226.447 244.101 225.684 244.11 224.92L253.94 224.99L244.07 224.59C244.076 224.567 244.076 224.543 244.07 224.52L250.4 167C250.442 166.659 250.365 166.314 250.183 166.023C250.001 165.732 249.725 165.512 249.4 165.4L231.62 159.77C230.905 159.541 230.265 159.125 229.764 158.566C229.264 158.006 228.922 157.324 228.773 156.588C228.624 155.852 228.674 155.09 228.918 154.381C229.162 153.671 229.591 153.039 230.16 152.55C233.3 149.885 236.592 147.404 240.02 145.12C247.18 140.29 254.54 136.06 259.32 133.44C267.16 135.52 275.44 136.31 281.06 134.85C282.73 134.41 286.19 133.39 287.5 133C287.42 134.17 287.36 135.61 287.38 137.2C287.32 138.534 287.346 139.87 287.46 141.2C287.539 142.305 287.74 143.399 288.06 144.46C288.389 146.264 288.947 148.018 289.72 149.68C291.483 153.544 292.354 157.754 292.27 162C292.19 162.73 292.1 163.46 291.97 164.19L292.16 164.46C292.08 165.46 291.98 166 291.98 166.02C291.925 166.308 291.957 166.606 292.07 166.877C292.184 167.147 292.375 167.378 292.62 167.54C292.866 167.699 293.152 167.783 293.445 167.783C293.738 167.783 294.024 167.699 294.27 167.54C297.12 165.69 305.48 160.9 309.9 160.9C313.04 160.9 315.63 161.96 316.82 163.69C317.86 165.18 317.91 167.18 317 169.64Z" fill="#F8FBFF"/>
<path d="M362.36 409.47L361.36 393.17L363 409L362.36 409.47Z" fill="#F8FBFF"/>
<path d="M362.36 409.47L363 409L361.34 393.19L362.36 409.47Z" fill="white"/>
<path d="M240.68 224.8H240.89H241C241 224.8 241 224.8 241 224.73L240.68 224.8Z" fill="white"/>
<path d="M377.68 396.78L376.19 398.12L377.68 396.78Z" fill="#F8FBFF"/>
<path d="M380.75 393.94C379.75 394.94 378.75 395.84 377.68 396.78C378.72 395.84 379.74 394.9 380.75 393.94Z" fill="#F8FBFF"/>
<path d="M382.19 392.57C381.72 393.03 381.19 393.49 380.75 393.94C381.23 393.49 381.72 393 382.19 392.57Z" fill="#F8FBFF"/>
<path d="M386.66 388.16L385.22 389.61L386.66 388.16Z" fill="#F8FBFF"/>
<path d="M385.22 389.61C384.22 390.61 383.22 391.61 382.22 392.61C383.21 391.6 384.22 390.61 385.22 389.61Z" fill="#F8FBFF"/>
<path d="M389.77 384.93C388.75 386.017 387.713 387.093 386.66 388.16C387.707 387.1 388.743 386.023 389.77 384.93Z" fill="#F8FBFF"/>
<path d="M391.12 383.49C390.67 383.97 390.23 384.49 389.77 384.93C390.23 384.45 390.67 384 391.12 383.49Z" fill="#F8FBFF"/>
<path d="M359 357.1C359.002 357.067 359.002 357.033 359 357C358.983 356.944 358.959 356.89 358.93 356.84C358.91 356.798 358.887 356.758 358.86 356.72C358.833 356.674 358.803 356.631 358.77 356.59L358.69 356.5L358.57 356.38L358.49 356.32L358.33 356.22H358.26C358.198 356.18 358.131 356.149 358.06 356.13H358H357.78H357.46H357.34H357.19L357.09 356.18H357.02H356.93L356.82 356.26C356.773 356.281 356.73 356.307 356.69 356.34C356.652 356.368 356.618 356.402 356.59 356.44C356.549 356.468 356.512 356.501 356.48 356.54C356.456 356.578 356.429 356.615 356.4 356.65L356.32 356.78L356.26 356.9L356.2 357.04V357.18C356.195 357.23 356.195 357.28 356.2 357.33C356.195 357.373 356.195 357.417 356.2 357.46V357.6L359.59 411.54C364.09 408.273 368.457 404.84 372.69 401.24L372.51 401.4L359 357.1Z" fill="#F8FBFF"/>
<path d="M393.75 380.6C392.89 381.6 392.01 382.53 391.12 383.49C392 382.53 392.89 381.57 393.75 380.6Z" fill="#F8FBFF"/>
<path d="M356.58 413.66C355.13 414.66 353.68 415.66 352.2 416.66C353.67 415.69 355.13 414.68 356.58 413.66Z" fill="#F8FBFF"/>
<path d="M376.19 398.12C375 399.18 373.81 400.23 372.59 401.26C373.81 400.23 375 399.18 376.19 398.12Z" fill="#F8FBFF"/>
<path d="M359.49 411.58L358.43 412.36L359.49 411.58Z" fill="#F8FBFF"/>
<path d="M358.43 412.34L356.58 413.66L358.43 412.34Z" fill="#F8FBFF"/>
<path d="M406 365.61C405 366.9 404.05 368.18 403.06 369.46C404.06 368.18 405.05 366.9 406 365.61Z" fill="#F8FBFF"/>
<path d="M410.46 359.42L409.23 361.17L410.46 359.42Z" fill="#F8FBFF"/>
<path d="M413.15 355.44C412.26 356.78 411.37 358.1 410.46 359.44C411.37 358.1 412.26 356.78 413.15 355.44Z" fill="#F8FBFF"/>
<path d="M395.13 379.05L393.75 380.6L395.13 379.05Z" fill="#F8FBFF"/>
<path d="M415.23 352.22L414.31 353.69L415.23 352.22Z" fill="#F8FBFF"/>
<path d="M414.3 353.67C413.91 354.26 413.53 354.85 413.15 355.44C413.53 354.85 413.91 354.26 414.3 353.67Z" fill="#F8FBFF"/>
<path d="M409.23 361.17C408.55 362.12 407.87 363.07 407.17 364.02C407.87 363.07 408.55 362.12 409.23 361.17Z" fill="#F8FBFF"/>
<path d="M398.32 375.33C397.273 376.583 396.21 377.823 395.13 379.05C396.21 377.823 397.273 376.583 398.32 375.33Z" fill="#F8FBFF"/>
<path d="M399.45 374C399.07 374.46 398.7 374.92 398.32 375.37C398.7 374.88 399.07 374.42 399.45 374Z" fill="#F8FBFF"/>
<path d="M403.07 369.46L401.76 371.11L403.07 369.46Z" fill="#F8FBFF"/>
<path d="M407.17 364L406 365.61L407.17 364Z" fill="#F8FBFF"/>
<path d="M401.76 371.11C401 372.07 400.23 373.02 399.45 373.96C400.23 373.02 401 372.07 401.76 371.11Z" fill="#F8FBFF"/>
<path d="M359 357C358.983 356.944 358.959 356.89 358.93 356.84C358.91 356.798 358.887 356.758 358.86 356.72C358.833 356.674 358.803 356.631 358.77 356.59L358.69 356.5L358.57 356.38L358.49 356.32L358.33 356.22H358.26C358.196 356.184 358.129 356.154 358.06 356.13H358H357.78H357.46H357.34H357.19L357.09 356.18H357.02H356.93L356.82 356.26C356.773 356.281 356.73 356.307 356.69 356.34C356.652 356.368 356.618 356.402 356.59 356.44C356.549 356.468 356.512 356.501 356.48 356.54C356.456 356.578 356.429 356.615 356.4 356.65L356.32 356.78L356.26 356.9L356.2 357.04V357.18C356.195 357.23 356.195 357.28 356.2 357.33C356.195 357.373 356.195 357.417 356.2 357.46V357.6L359.59 411.6L361.03 410.6L362.46 409.53L361.46 393.23L360.03 370.44L370.03 403.59L371.28 402.59L372.53 401.53L359 357.1C359.002 357.067 359.002 357.033 359 357Z" fill="#181818"/>
<path d="M268.4 153.49H268.65C269.004 153.488 269.346 153.362 269.617 153.134C269.887 152.905 270.069 152.589 270.13 152.24L270.58 149.57C270.613 149.373 270.606 149.171 270.561 148.977C270.516 148.782 270.433 148.599 270.317 148.436C270.201 148.274 270.054 148.136 269.885 148.03C269.715 147.924 269.527 147.853 269.33 147.82C269.133 147.787 268.931 147.793 268.737 147.839C268.542 147.884 268.359 147.966 268.196 148.083C268.034 148.199 267.895 148.346 267.79 148.515C267.684 148.684 267.613 148.873 267.58 149.07L267.13 151.74C267.094 151.939 267.099 152.143 267.144 152.339C267.189 152.536 267.274 152.722 267.392 152.885C267.511 153.049 267.661 153.186 267.835 153.29C268.008 153.394 268.2 153.462 268.4 153.49Z" fill="#181818"/>
<path d="M262.64 151.41L263.09 148.74C263.156 148.342 263.062 147.934 262.827 147.606C262.593 147.278 262.238 147.056 261.84 146.99C261.442 146.924 261.034 147.018 260.706 147.252C260.378 147.487 260.156 147.842 260.09 148.24L259.64 150.91C259.607 151.104 259.613 151.303 259.657 151.495C259.701 151.688 259.782 151.869 259.896 152.03C260.011 152.191 260.155 152.327 260.322 152.432C260.49 152.537 260.676 152.607 260.87 152.64H261.12C261.478 152.648 261.828 152.529 262.106 152.304C262.384 152.079 262.574 151.762 262.64 151.41Z" fill="#181818"/>
<path d="M274.19 165.66C273.839 165.484 273.433 165.452 273.059 165.572C272.685 165.691 272.373 165.953 272.19 166.3C271.273 167.918 270.026 169.325 268.53 170.43C266.97 171.428 265.14 171.92 263.29 171.84C262.892 171.809 262.498 171.938 262.196 172.198C261.893 172.458 261.705 172.827 261.675 173.225C261.644 173.623 261.773 174.016 262.033 174.319C262.293 174.622 262.662 174.809 263.06 174.84H263.6C265.973 174.851 268.295 174.155 270.27 172.84C272.162 171.463 273.729 169.688 274.86 167.64C275.03 167.288 275.056 166.883 274.93 166.513C274.805 166.142 274.539 165.836 274.19 165.66Z" fill="#181818"/>
<path d="M114.56 116.06C114.743 116.236 114.986 116.336 115.24 116.34C115.384 116.341 115.526 116.312 115.657 116.253C115.788 116.194 115.905 116.108 116 116C116.094 115.907 116.168 115.796 116.219 115.675C116.27 115.553 116.296 115.422 116.296 115.29C116.296 115.158 116.27 115.027 116.219 114.905C116.168 114.784 116.094 114.673 116 114.58C115.76 114.34 91.2399 90.58 103.42 65.51C105.79 60.64 110.09 57.82 116.21 57.12C121.707 56.6921 127.23 57.4773 132.39 59.42C132.04 71.63 134.75 79.42 140.5 82.49C141.683 83.2181 143.086 83.5031 144.459 83.2943C145.832 83.0856 147.087 82.3967 148 81.35C150.36 78.52 150.8 72.35 144.3 64.35C142.62 62.28 138.92 59.95 134.3 58.13C134.43 55.24 134.74 51.99 135.3 48.36C136.594 39.863 139.734 31.7527 144.5 24.6C144.578 24.4937 144.634 24.3732 144.665 24.2452C144.696 24.1172 144.701 23.9844 144.681 23.8543C144.66 23.7242 144.614 23.5995 144.546 23.4872C144.477 23.3749 144.387 23.2773 144.28 23.2C144.174 23.1223 144.053 23.0663 143.925 23.0352C143.797 23.0042 143.664 22.9988 143.534 23.0192C143.404 23.0396 143.279 23.0856 143.167 23.1544C143.055 23.2231 142.957 23.3134 142.88 23.42C137.918 30.8034 134.666 39.2007 133.36 48C132.88 51.34 132.57 54.45 132.36 57.32C127.082 55.4112 121.453 54.6642 115.86 55.13C109.12 55.9 104.15 59.13 101.51 64.62C88.7199 91 114.3 115.81 114.56 116.06ZM142.78 65.56C148.16 72.21 148.52 77.64 146.5 80.07C145.28 81.55 143.32 81.81 141.39 80.76C137.79 78.76 134.07 73.58 134.31 60.21C138.24 61.83 141.37 63.82 142.78 65.56Z" fill="#181818"/>
<path fill-rule="evenodd" clip-rule="evenodd" d="M309.262 158.113C311.414 152.016 315.557 137.879 311.588 128.579C306.408 116.489 295.178 117.359 295.178 117.359C295.178 117.359 292.688 110.239 285.628 108.469C278.918 106.799 273.488 112.469 273.488 112.469C272.014 110.927 270.218 109.731 268.229 108.965C266.239 108.199 264.104 107.883 261.978 108.039C255.828 108.469 253.668 115.159 253.668 115.159C253.668 115.159 235.968 113.539 237.048 121.849C237.626 126.276 244.589 130.782 253.152 133.884C248.862 136.354 243.728 139.466 238.684 142.862C235.166 145.216 231.784 147.767 228.554 150.502C227.578 151.339 226.843 152.422 226.426 153.638C226.008 154.854 225.923 156.159 226.179 157.419C226.435 158.679 227.022 159.848 227.881 160.805C228.74 161.762 229.839 162.472 231.064 162.862L247.664 168.122L241.304 224.532C241.294 224.639 241.294 224.746 241.304 224.852V224.922H240.974C227.594 226.102 214.184 230.422 197.524 238.922C175.524 250.162 164.844 261.332 150.024 288.732L142.024 306.472L138.704 286.652C138.514 285.537 137.922 284.529 137.039 283.821C136.156 283.114 135.044 282.755 133.914 282.812L126.574 283.192L122.414 268.392C121.863 266.407 121.613 264.351 121.674 262.292C121.784 258.782 122.204 252.292 123.824 247.912C124.848 245.426 126.01 242.999 127.304 240.642C130.404 234.712 133.084 229.582 131.044 226.592C130.622 225.99 130.065 225.496 129.417 225.149C128.769 224.801 128.049 224.611 127.314 224.592C123.524 224.362 118.904 227.592 116.024 230.942C113.441 234.044 111.1 237.34 109.024 240.802L102.614 223.952C102.608 223.789 102.578 223.627 102.524 223.472L100.524 218.302L91.9039 196.622C91.2536 195.102 90.0292 193.9 88.4972 193.279C86.9652 192.657 85.2497 192.665 83.7239 193.302L83.0439 193.562C81.9301 193.997 80.9554 194.726 80.2239 195.672L79.5439 193.972C78.8955 192.45 77.6719 191.246 76.1397 190.623C74.6075 189.999 72.8909 190.006 71.3639 190.642L70.6839 190.902C69.0708 191.532 67.7704 192.771 67.0639 194.352C66.7466 195.064 66.5743 195.833 66.5571 196.612C66.5399 197.392 66.6782 198.167 66.9639 198.892L67.9639 201.432C66.7861 201.235 65.5769 201.359 64.4639 201.792L63.7839 202.062C62.1697 202.685 60.868 203.922 60.1639 205.502C59.8476 206.215 59.6767 206.983 59.6613 207.763C59.6458 208.543 59.7861 209.317 60.0739 210.042L63.3039 218.142C62.1261 217.945 60.9169 218.069 59.8039 218.502L59.1339 218.772C57.5171 219.395 56.2122 220.631 55.5039 222.212C55.1876 222.925 55.0167 223.693 55.0013 224.473C54.9858 225.253 55.1261 226.027 55.4139 226.752L61.6839 242.572C61.8939 243.182 65.3039 253.022 70.1939 264.462C72.6961 270.293 76.3178 275.576 80.8539 280.012C82.4272 281.541 83.6547 283.389 84.4539 285.432L75.4539 285.912C74.7717 285.947 74.1057 286.133 73.5042 286.457C72.9026 286.781 72.3806 287.234 71.9758 287.784C71.571 288.335 71.2935 288.968 71.1635 289.639C71.0334 290.309 71.0541 291 71.2239 291.662L95.0439 384.092C97.2156 392.519 102.127 399.985 109.007 405.314C115.886 410.644 124.342 413.535 133.044 413.532C148.444 413.532 160.454 407.442 168.774 395.352L187.014 365.142L180.594 421.142C180.569 421.35 180.588 421.561 180.65 421.76C180.712 421.96 180.816 422.145 180.954 422.302C181.094 422.459 181.265 422.585 181.456 422.673C181.647 422.76 181.854 422.808 182.064 422.812L188.284 422.882L188.794 448.132C188.948 448.166 189.102 448.201 189.256 448.236L189.26 448.237C189.606 448.315 189.952 448.393 190.304 448.462L191.804 448.752L191.304 422.922L339.994 424.572L342.304 423.142L342.444 423.052C342.701 422.899 342.957 422.743 343.214 422.588L343.216 422.587C343.778 422.247 344.338 421.908 344.894 421.592L183.694 419.812L190.694 358.632C190.728 358.319 190.662 358.004 190.506 357.731C190.35 357.458 190.111 357.241 189.824 357.112L189.694 357.042C189.37 356.931 189.018 356.934 188.696 357.05C188.374 357.166 188.102 357.389 187.924 357.682L166.104 393.682C158.414 404.832 147.244 410.482 132.884 410.482C124.848 410.483 117.039 407.813 110.687 402.891C104.335 397.969 99.7991 391.074 97.7939 383.292L85.9339 336.972L74.1139 291.142V290.932C74.0371 290.701 74.0144 290.456 74.0473 290.215C74.0802 289.974 74.168 289.744 74.3039 289.542C74.4451 289.35 74.6267 289.192 74.8357 289.078C75.0448 288.964 75.2762 288.897 75.5139 288.882L85.3039 288.372H86.1239L109.304 287.142L124.304 286.362L126.424 286.242L127.424 286.192L134.084 285.842C134.217 285.827 134.351 285.827 134.484 285.842C134.793 285.915 135.073 286.077 135.29 286.308C135.507 286.539 135.651 286.829 135.704 287.142L146.344 350.762C146.376 350.959 146.447 351.148 146.552 351.318C146.657 351.487 146.794 351.634 146.956 351.751C147.119 351.868 147.302 351.951 147.496 351.997C147.691 352.042 147.892 352.049 148.089 352.017C148.286 351.985 148.475 351.914 148.644 351.809C148.814 351.704 148.961 351.567 149.078 351.405C149.194 351.243 149.278 351.059 149.323 350.865C149.369 350.671 149.376 350.469 149.344 350.272L143.084 313.142L142.864 311.822L152.694 290.142C163.934 269.372 172.404 258.402 185.524 249.432C189.808 246.548 194.274 243.942 198.894 241.632C215.274 233.272 228.404 229.052 241.444 227.932C241.517 227.943 241.591 227.943 241.664 227.932C243.734 237.122 256.104 244.282 271.084 244.392H271.454C279.174 244.392 286.454 242.542 291.974 239.182C296.564 236.392 299.544 232.812 300.624 228.872C300.694 228.622 300.754 228.372 300.814 228.122L300.894 228.032L302.894 228.272L305.484 228.592C307.834 228.882 310.054 229.152 310.964 229.232C325.965 230.542 340.479 235.207 353.434 242.882C373.864 255.032 390.434 276.342 398.794 301.342L415.494 352.412C415.844 351.862 416.194 351.312 416.494 350.762C416.647 350.481 416.824 350.201 417.001 349.918C417.171 349.648 417.342 349.376 417.494 349.102L401.684 300.342C393.054 274.662 376.044 252.762 355.004 240.252C341.673 232.353 326.739 227.548 311.304 226.192C310.444 226.122 308.154 225.842 305.934 225.562C303.714 225.282 302.124 225.092 301.074 224.982L296.964 182.392C301.894 181.922 316.764 179.792 320.134 170.842C321.744 166.562 320.764 163.742 319.654 162.142C317.874 159.562 314.454 158.072 310.284 158.052C309.943 158.057 309.602 158.077 309.262 158.113ZM72.9239 263.262C75.2696 268.73 78.6673 273.684 82.9239 277.842C85.0811 279.904 86.7014 282.461 87.6439 285.292L123.544 283.402L119.544 269.252C118.903 266.976 118.613 264.616 118.684 262.252C118.824 257.742 119.344 251.412 121.024 246.912C122.092 244.305 123.307 241.761 124.664 239.292C126.754 235.292 129.584 229.792 128.584 228.292C128.428 228.06 128.216 227.87 127.968 227.741C127.72 227.612 127.444 227.547 127.164 227.552C124.864 227.392 121.054 229.702 118.304 232.862C115.223 236.675 112.45 240.728 110.014 244.982C109.871 245.227 109.662 245.427 109.411 245.56C109.16 245.693 108.877 245.752 108.594 245.732C108.305 245.708 108.03 245.6 107.801 245.423C107.572 245.245 107.399 245.006 107.304 244.732L99.6939 224.312L97.7939 219.312L89.2239 197.692C88.8659 196.909 88.2143 196.298 87.4098 195.991C86.6053 195.685 85.7124 195.706 84.9239 196.052L84.2439 196.322C83.8038 196.481 83.4 196.727 83.0565 197.045C82.713 197.362 82.4367 197.746 82.2439 198.172C82.0861 198.521 81.9995 198.898 81.9892 199.281C81.9789 199.664 82.0451 200.045 82.1839 200.402L92.3239 225.802L92.3839 226.012C92.4652 226.362 92.4193 226.729 92.2544 227.048C92.0894 227.367 91.8163 227.616 91.4839 227.752C91.3051 227.82 91.1152 227.854 90.9239 227.852C90.6246 227.853 90.3319 227.764 90.084 227.596C89.8361 227.429 89.6444 227.19 89.5339 226.912L82.8939 210.282C82.8884 210.271 82.8816 210.26 82.8741 210.249C82.8676 210.24 82.8606 210.23 82.8536 210.22C82.8243 210.18 82.7939 210.138 82.7939 210.092L76.7939 195.092C76.4359 194.309 75.7843 193.698 74.9798 193.391C74.1753 193.085 73.2824 193.106 72.4939 193.452L71.8139 193.722C71.3746 193.883 70.9716 194.129 70.6282 194.446C70.2849 194.764 70.0081 195.147 69.8139 195.572C69.6558 195.923 69.5691 196.302 69.5588 196.686C69.5485 197.071 69.6148 197.453 69.7539 197.812L72.6639 205.142L76.2539 214.282L83.2539 231.892C83.3978 232.262 83.3891 232.674 83.2298 233.038C83.0705 233.401 82.7735 233.687 82.4039 233.832C82.0927 233.96 81.7473 233.976 81.4252 233.88C81.1031 233.784 80.8238 233.58 80.6339 233.302C80.5638 233.207 80.5066 233.103 80.4639 232.992L69.8539 206.222C69.492 205.44 68.8378 204.831 68.0319 204.527C67.226 204.222 66.3327 204.245 65.5439 204.592L64.8739 204.852C63.9895 205.181 63.2707 205.846 62.8739 206.702C62.5847 207.421 62.5847 208.223 62.8739 208.942L74.2939 237.812L74.4339 238.142L75.2339 240.192C75.307 240.375 75.3432 240.571 75.3405 240.768C75.3378 240.965 75.2963 241.16 75.2183 241.341C75.1403 241.522 75.0273 241.686 74.8858 241.824C74.7444 241.961 74.5772 242.069 74.3939 242.142C74.1271 242.249 73.8346 242.273 73.5539 242.212C73.3062 242.165 73.0744 242.056 72.8802 241.895C72.6861 241.734 72.536 241.527 72.4439 241.292L65.1639 222.912C64.804 222.128 64.15 221.518 63.3433 221.213C62.5367 220.908 61.6423 220.933 60.8539 221.282L60.1839 221.542C59.2995 221.871 58.5807 222.536 58.1839 223.392C57.8947 224.111 57.8947 224.913 58.1839 225.632L70.6539 257.142L71.5039 259.262C71.601 259.517 71.6253 259.794 71.5739 260.062C72.0139 261.112 72.4639 262.182 72.9239 263.262ZM271.104 241.332C278.414 241.382 285.264 239.702 290.414 236.572C294.464 234.142 297.024 231.002 297.834 227.662C297.895 227.432 297.942 227.198 297.974 226.962C298.054 226.762 298.054 226.572 298.054 226.382V225.662C298.059 225.606 298.059 225.549 298.054 225.492L293.774 181.142C293.753 180.94 293.774 180.736 293.835 180.542C293.897 180.348 293.997 180.169 294.13 180.016C294.263 179.862 294.426 179.737 294.609 179.649C294.792 179.561 294.991 179.511 295.194 179.502C295.384 179.492 313.994 178.482 317.264 169.772C318.194 167.312 318.124 165.312 317.124 163.832C315.934 162.102 313.344 161.042 310.204 161.042C305.784 161.042 297.424 165.832 294.574 167.682C294.328 167.841 294.042 167.926 293.749 167.926C293.456 167.926 293.17 167.841 292.924 167.682C292.679 167.52 292.488 167.289 292.374 167.019C292.261 166.748 292.229 166.45 292.284 166.162C292.284 164.788 292.423 163.519 292.574 162.143C292.589 161.379 292.573 160.616 292.527 159.856C292.316 156.393 291.469 152.991 290.024 149.822C289.25 148.16 288.693 146.406 288.364 144.602C288.044 143.541 287.843 142.448 287.764 141.342C287.65 140.012 287.624 138.676 287.684 137.342C287.664 135.752 287.724 134.312 287.804 133.142C286.494 133.532 283.034 134.552 281.364 134.992C275.744 136.452 267.464 135.662 259.624 133.582C254.844 136.202 247.484 140.432 240.324 145.262C236.896 147.546 233.604 150.027 230.464 152.692C229.894 153.181 229.466 153.813 229.222 154.523C228.978 155.233 228.928 155.995 229.077 156.73C229.225 157.466 229.568 158.149 230.068 158.708C230.569 159.267 231.209 159.683 231.924 159.912L249.704 165.542C250.029 165.654 250.305 165.874 250.487 166.165C250.669 166.456 250.746 166.801 250.704 167.142L244.364 224.662C244.37 224.685 244.37 224.709 244.364 224.732C244.375 224.842 244.375 224.952 244.364 225.062C244.355 225.827 244.442 226.589 244.624 227.332C246.414 235.152 257.584 241.232 271.104 241.332Z" fill="#181818"/>
</svg>
