<svg width="517" height="443" viewBox="0 0 517 443" fill="none" xmlns="http://www.w3.org/2000/svg">
<path d="M85.5504 91.5769C14.7295 188.223 11.9894 301.356 68.5829 356.465C166.594 452.108 472.852 388.346 512.373 246.52C537.455 156.615 458.625 24.0798 322.885 3.03813C236.466 -10.2609 137.823 20.254 85.5504 91.5769Z" fill="#F8FBFF"/>
<circle cx="329" cy="88" r="8" fill="#93E6CF"/>
<g clip-path="url(#clip0)">
<path d="M229.506 405.84L229.5 405.646V265.327H356.5V405.645L356.494 405.84C356.264 412.924 349.671 419.808 338.032 424.996C326.527 430.125 310.626 433.327 293 433.327C275.374 433.327 259.473 430.125 247.968 424.996C236.329 419.808 229.736 412.924 229.506 405.84Z" fill="white" stroke="black" stroke-width="3"/>
<path d="M399.5 286.827C399.5 291.603 396.812 296.353 391.502 300.865C386.199 305.372 378.437 309.498 368.714 312.993C349.281 319.978 322.335 324.327 292.5 324.327C262.665 324.327 235.719 319.978 216.286 312.993C206.563 309.498 198.801 305.372 193.498 300.865C188.188 296.353 185.5 291.603 185.5 286.827C185.5 282.511 187.693 278.221 192.038 274.099C196.386 269.974 202.784 266.128 210.884 262.752C227.077 256.004 249.774 251.261 275.585 249.801C281.095 249.489 286.745 249.327 292.5 249.327C300.177 249.327 307.666 249.615 314.887 250.163C339.34 252.016 360.662 256.84 375.82 263.48C383.403 266.802 389.369 270.547 393.418 274.54C397.461 278.528 399.5 282.664 399.5 286.827Z" fill="white" stroke="#181818" stroke-width="3"/>
<rect x="279" y="241" width="31" height="18" fill="#F8FBFF"/>
<mask id="mask0" mask-type="alpha" maskUnits="userSpaceOnUse" x="168" y="149" width="253" height="153">
<ellipse cx="294.172" cy="225.229" rx="126.172" ry="76.2288" fill="#C4C4C4"/>
</mask>
<g mask="url(#mask0)">
<path d="M286.195 255.457C286.195 279.06 280.552 300.457 274.895 315.97C272.068 323.723 269.242 329.993 267.126 334.321C266.25 336.112 265.496 337.57 264.914 338.662C264.332 337.57 263.578 336.112 262.702 334.321C260.585 329.993 257.759 323.723 254.933 315.97C249.275 300.457 243.633 279.06 243.633 255.457C243.633 231.758 247.056 210.324 251.581 194.852C253.847 187.107 256.371 180.915 258.844 176.693C260.083 174.578 261.274 173.018 262.366 172.006C263.476 170.976 264.328 170.652 264.914 170.652C265.5 170.652 266.351 170.976 267.462 172.006C268.553 173.018 269.744 174.578 270.983 176.693C273.457 180.915 275.981 187.107 278.246 194.852C282.772 210.324 286.195 231.758 286.195 255.457Z" fill="white" stroke="black" stroke-width="3"/>
<path d="M272.5 286.5C272.5 305.923 271.439 323.478 269.731 336.151C268.876 342.498 267.866 347.56 266.769 351.004C266.217 352.737 265.67 353.972 265.162 354.743C264.815 355.27 264.587 355.434 264.5 355.483C264.413 355.434 264.185 355.27 263.838 354.743C263.33 353.972 262.783 352.737 262.231 351.004C261.134 347.56 260.124 342.498 259.269 336.151C257.561 323.478 256.5 305.923 256.5 286.5C256.5 267.003 256.502 249.46 257.681 236.788C258.272 230.437 259.149 225.439 260.413 222.066C261.718 218.58 263.156 217.5 264.5 217.5C265.844 217.5 267.282 218.58 268.587 222.066C269.851 225.439 270.728 230.437 271.319 236.788C272.498 249.46 272.5 267.003 272.5 286.5Z" fill="white" stroke="black" stroke-width="3"/>
<path d="M341.395 255.457C341.395 279.199 338.853 300.641 334.772 316.101C332.729 323.843 330.321 330 327.709 334.186C325.047 338.451 322.441 340.262 320.114 340.262C317.787 340.262 315.181 338.451 312.519 334.186C309.907 330 307.499 323.843 305.456 316.101C301.375 300.641 298.833 279.199 298.833 255.457C298.833 231.758 302.256 210.324 306.782 194.852C309.047 187.107 311.571 180.915 314.045 176.693C315.283 174.578 316.475 173.018 317.566 172.006C318.677 170.976 319.528 170.652 320.114 170.652C320.7 170.652 321.551 170.976 322.662 172.006C323.753 173.018 324.945 174.578 326.184 176.693C328.657 180.915 331.181 187.107 333.446 194.852C337.972 210.324 341.395 231.758 341.395 255.457Z" fill="white" stroke="black" stroke-width="3"/>
<path d="M327.5 286.5C327.5 305.923 326.439 323.478 324.731 336.151C323.876 342.498 322.866 347.56 321.769 351.004C321.217 352.737 320.67 353.972 320.162 354.743C319.815 355.27 319.587 355.434 319.5 355.483C319.413 355.434 319.185 355.27 318.838 354.743C318.33 353.972 317.783 352.737 317.231 351.004C316.134 347.56 315.124 342.498 314.269 336.151C312.561 323.478 311.5 305.923 311.5 286.5C311.5 267.003 311.502 249.46 312.681 236.788C313.272 230.437 314.149 225.439 315.413 222.066C316.718 218.58 318.156 217.5 319.5 217.5C320.844 217.5 322.282 218.58 323.587 222.066C324.851 225.439 325.728 230.437 326.319 236.788C327.498 249.46 327.5 267.003 327.5 286.5Z" fill="white" stroke="black" stroke-width="3"/>
</g>
<path d="M363 284.827C363 293.664 331.884 300.827 293.5 300.827C255.116 300.827 224 293.664 224 284.827" stroke="#181818" stroke-width="3" stroke-linecap="round"/>
</g>
<path d="M429.502 137.629C449.153 126.446 465.526 104.191 457.118 93.162C448.034 81.2462 435.542 92.4903 439.211 100.414C442.881 108.338 466.023 119.115 487.336 96.1418C503.634 78.5739 500.863 57.6317 497.241 40" stroke="#333333" stroke-width="3" stroke-linecap="round" stroke-linejoin="round"/>
<path d="M482.448 386C482.281 385.732 482.135 385.575 482.072 385.397C481.278 383.118 480.506 380.839 479.733 378.56C479.503 377.89 479.274 377.197 479.065 376.505C478.877 375.901 478.585 375.388 478 375.164C476.998 374.784 476.016 374.404 475.014 374.002C473.865 373.555 472.738 373.086 471.61 372.639C470.921 372.371 470.232 372.148 469.543 371.857C469.334 371.768 469.188 371.545 469 371.366C469.188 371.21 469.334 370.964 469.543 370.897C470.691 370.428 471.861 369.981 473.009 369.534C474.074 369.109 475.118 368.707 476.183 368.283C476.768 368.059 477.353 367.836 477.958 367.612C478.459 367.411 478.794 367.054 478.981 366.518C479.336 365.468 479.691 364.418 480.046 363.39C480.631 361.714 481.216 360.016 481.8 358.341C481.905 358.028 481.947 357.693 482.093 357.38C482.176 357.201 482.364 357 482.51 357C482.657 357 482.845 357.223 482.907 357.402C483.701 359.681 484.473 361.96 485.267 364.239C485.497 364.931 485.726 365.646 485.956 366.339C486.144 366.965 486.457 367.411 487.063 367.635C488.566 368.193 490.07 368.774 491.573 369.378C492.638 369.802 493.703 370.249 494.789 370.673C495.06 370.785 495.374 370.83 495.624 370.964C495.791 371.053 496 371.232 496 371.388C496 371.522 495.791 371.768 495.645 371.813C493.014 372.885 490.404 373.891 487.794 374.918C487.689 374.963 487.564 375.008 487.439 375.03C486.561 375.231 486.102 375.79 485.831 376.728C485.497 377.935 485.016 379.096 484.619 380.28C484.244 381.398 483.847 382.492 483.471 383.609C483.262 384.235 483.074 384.883 482.845 385.508C482.824 385.643 482.657 385.777 482.448 386Z" fill="#0084FF"/>
<circle cx="8" cy="247" r="8" fill="#FFB9F8"/>
<defs>
<clipPath id="clip0">
<rect width="383" height="286" fill="white" transform="translate(102 157)"/>
</clipPath>
</defs>
</svg>
