<svg width="418" height="458" viewBox="0 0 418 458" fill="none" xmlns="http://www.w3.org/2000/svg">
<path d="M222.144 156.757C209.855 156.757 200.222 150.62 200.157 142.699C200.157 142.33 200.302 141.976 200.561 141.714C200.82 141.451 201.172 141.302 201.541 141.297C201.724 141.294 201.906 141.328 202.076 141.397C202.246 141.465 202.401 141.567 202.532 141.695C202.662 141.824 202.766 141.977 202.837 142.146C202.907 142.316 202.944 142.497 202.944 142.68C202.99 148.939 211.582 153.972 222.144 153.972H222.404C227.295 154.047 232.114 152.782 236.337 150.313C239.821 148.131 241.725 145.308 241.697 142.383C241.696 142.2 241.73 142.019 241.799 141.849C241.868 141.68 241.97 141.526 242.098 141.396C242.227 141.265 242.38 141.162 242.548 141.091C242.717 141.019 242.898 140.982 243.081 140.981C243.263 140.98 243.444 141.015 243.613 141.084C243.782 141.153 243.936 141.254 244.066 141.383C244.195 141.512 244.298 141.664 244.368 141.833C244.438 142.001 244.474 142.182 244.474 142.365C244.474 146.292 242.143 149.951 237.814 152.672C233.155 155.409 227.836 156.822 222.432 156.757H222.144Z" fill="#181818"/>
<path d="M229.64 310.632H219.515L215.354 413.045H194.185C211.129 414.72 228.199 414.72 245.143 413.045H234.926L229.64 310.632Z" fill="#F3F6FF"/>
<path d="M296.91 94.8772C296.91 94.8772 214.508 0.99822 98.462 40.1563C-17.5841 79.3143 49.0451 245.371 74.6731 272.588C83.7019 282.19 93.0187 299.953 102.661 319.5L105.67 301.606H97.8303C97.3831 301.604 96.9426 301.496 96.5446 301.292C96.1465 301.089 95.802 300.794 95.5389 300.432C95.2758 300.071 95.1015 299.653 95.0299 299.211C94.9584 298.77 94.9918 298.318 95.1273 297.892L127.861 197.801C133.983 179.6 145.947 163.703 161.552 154.427C171.18 148.71 181.977 145.246 193.134 144.296C194.416 144.185 199.637 143.488 201.225 143.367C201.327 143.355 201.43 143.355 201.531 143.367L201.587 142.847C201.587 142.847 201.587 142.792 201.587 142.764L204.708 110.152C204.708 110.152 190.264 109.456 187.58 102.324C185.536 96.9015 189.493 94.4686 193.766 94.4501C198.039 94.4315 205.842 99.483 205.842 99.483C205.218 95.1965 205.834 90.8211 207.616 86.8729C210.124 81.7007 208.925 73.1486 208.925 73.1486C210.853 73.9804 212.865 74.603 214.926 75.0057C217.796 75.4793 227.475 72.4243 227.475 72.4243C233.699 75.662 239.746 79.2297 245.589 83.1122C248.132 84.8088 250.576 86.6504 252.908 88.6279C253.475 89.1125 253.901 89.7397 254.144 90.4446C254.386 91.1494 254.435 91.9062 254.287 92.6366C254.138 93.3669 253.796 94.0442 253.298 94.5981C252.799 95.1521 252.161 95.5627 251.45 95.7872L238.446 99.9101L243.146 142.114L243.09 142.392C243.099 142.541 243.099 142.69 243.09 142.838L243.833 142.114C254.982 144.327 265.875 147.671 276.344 152.096C284.816 155.662 294.987 167.055 302.873 178.95C308.37 187.363 313.242 196.168 317.448 205.294L320.401 187.651C320.502 187.106 320.799 186.617 321.235 186.275C321.671 185.933 322.217 185.762 322.77 185.794L349.039 187.168C328.678 126.142 296.91 94.8772 296.91 94.8772Z" fill="#F8FBFF"/>
<path d="M359.016 224.451L350.256 258.427C348.728 264.357 345.272 269.611 340.431 273.362C335.59 277.114 329.639 279.151 323.514 279.153C313.881 279.153 304.759 275.755 298.294 266.385L282.29 239.986L287.566 285.96L281.946 286.015L279.512 406.73C324.443 394.306 364.524 364.192 365.676 299.665C366.201 274.426 363.968 249.205 359.016 224.451Z" fill="#F8FBFF"/>
<path d="M281.936 286.015L155.858 287.417H153.833L154.762 278.828L158.84 239.419L140.708 299.581C140.533 300.165 140.174 300.677 139.686 301.041C139.198 301.406 138.605 301.604 137.995 301.606H134.689C133.444 305.812 132.274 309.963 131.698 312.749C131.289 314.736 133.973 316.008 134.531 316.797C137.364 320.846 137.93 335.657 139.036 342.528C140.141 349.399 136.751 352.844 136.751 352.844L131.735 352.157L129.877 347.022L128.205 339.547L124.972 337.829L124.87 352.51L124.508 357.515L122.186 358.629C134.103 381.212 146.541 400.462 159.574 405.931C163.114 407.327 166.761 408.435 170.479 409.246L162.119 287.38L281.936 286.015Z" fill="#F8FBFF"/>
<path d="M280.757 414.437H233.597L228.312 312.025H220.881L216.719 414.437H169.439L160.698 287.51C160.685 287.328 160.709 287.144 160.767 286.97C160.825 286.796 160.917 286.635 161.037 286.497C161.157 286.359 161.304 286.245 161.468 286.163C161.632 286.082 161.811 286.033 161.994 286.02C162.177 286.007 162.36 286.031 162.534 286.089C162.708 286.147 162.869 286.239 163.008 286.359C163.146 286.479 163.259 286.626 163.341 286.79C163.423 286.954 163.472 287.133 163.485 287.315L172.03 411.652H214.016L218.178 309.239H230.959L236.245 411.652H278.045L280.525 285.988C280.532 285.618 280.686 285.267 280.952 285.011C281.219 284.755 281.576 284.615 281.946 284.623C282.315 284.63 282.667 284.784 282.923 285.05C283.179 285.317 283.319 285.674 283.311 286.043L280.757 414.437Z" fill="#181818"/>
<path d="M103.181 318.2H102.93C102.749 318.167 102.577 318.099 102.422 318C102.268 317.901 102.135 317.772 102.03 317.621C101.926 317.47 101.852 317.3 101.814 317.12C101.775 316.941 101.773 316.755 101.806 316.575L104.593 301.374C104.658 301.005 104.868 300.676 105.175 300.461C105.483 300.246 105.863 300.162 106.232 300.227C106.602 300.292 106.93 300.502 107.146 300.809C107.361 301.116 107.445 301.497 107.38 301.866L104.593 317.076C104.529 317.4 104.352 317.692 104.094 317.897C103.835 318.103 103.512 318.21 103.181 318.2Z" fill="#181818"/>
<path d="M108.113 369.661C107.849 369.66 107.586 369.641 107.324 369.605C106.05 369.496 104.851 368.958 103.923 368.079C102.995 367.2 102.393 366.033 102.215 364.767C102.076 363.356 98.9638 330.262 101.816 316.528C101.851 316.348 101.922 316.177 102.024 316.025C102.126 315.873 102.257 315.742 102.41 315.641C102.563 315.54 102.735 315.47 102.915 315.436C103.095 315.402 103.28 315.404 103.46 315.442C103.821 315.518 104.137 315.733 104.34 316.04C104.544 316.348 104.618 316.723 104.546 317.085C101.76 330.419 104.955 364.155 104.983 364.442C105.084 365.091 105.41 365.683 105.904 366.114C106.399 366.546 107.03 366.789 107.686 366.801C108.736 366.931 109.079 366.55 109.089 366.532L110.231 367.33L111.411 368.064C111.046 368.592 110.551 369.017 109.973 369.297C109.395 369.577 108.754 369.702 108.113 369.661Z" fill="#181818"/>
<path d="M115.34 375.474C113.074 375.474 109.962 374.898 109.256 369.903C108.819 366.913 108.624 344.209 108.615 343.243C108.614 343.06 108.649 342.879 108.718 342.71C108.786 342.54 108.888 342.386 109.017 342.256C109.145 342.125 109.298 342.022 109.467 341.951C109.635 341.88 109.816 341.842 109.999 341.841C110.182 341.84 110.363 341.875 110.532 341.944C110.701 342.013 110.854 342.114 110.984 342.243C111.113 342.372 111.216 342.525 111.286 342.693C111.356 342.862 111.392 343.042 111.392 343.225C111.448 349.725 111.662 367.182 112.005 369.513C112.423 372.428 113.65 372.651 115.331 372.651C117.737 372.651 118.359 371.231 118.582 368.937C118.638 368.426 118.786 364.443 118.944 360.236C119.418 347.868 119.678 341.813 119.873 340.838C120.051 339.594 120.677 338.457 121.632 337.64C122.588 336.824 123.808 336.382 125.066 336.4C125.947 336.396 126.815 336.614 127.591 337.033C128.366 337.451 129.025 338.057 129.506 338.795C129.603 338.953 129.668 339.128 129.696 339.311C129.725 339.493 129.717 339.68 129.673 339.86C129.628 340.039 129.549 340.208 129.439 340.357C129.328 340.505 129.19 340.63 129.03 340.725C128.871 340.819 128.695 340.881 128.512 340.906C128.329 340.932 128.142 340.92 127.963 340.873C127.784 340.826 127.617 340.743 127.47 340.63C127.323 340.518 127.201 340.377 127.109 340.216C126.874 339.896 126.566 339.635 126.211 339.456C125.856 339.277 125.463 339.184 125.066 339.185C124.449 339.165 123.849 339.383 123.39 339.795C122.931 340.207 122.649 340.78 122.604 341.395C122.409 342.445 121.982 353.643 121.722 360.338C121.527 365.622 121.406 368.64 121.35 369.206C120.96 373.376 118.898 375.474 115.34 375.474Z" fill="#181818"/>
<path d="M135.079 354.637C134.1 354.632 133.139 354.379 132.284 353.902C131.43 353.424 130.71 352.738 130.193 351.907C128.577 349.4 126.348 336.279 125.92 333.67C125.89 333.487 125.897 333.3 125.939 333.119C125.982 332.939 126.059 332.768 126.167 332.618C126.276 332.468 126.413 332.34 126.57 332.242C126.728 332.145 126.903 332.079 127.086 332.049C127.456 331.989 127.834 332.078 128.138 332.296C128.288 332.405 128.416 332.541 128.514 332.699C128.611 332.856 128.677 333.032 128.707 333.215C129.738 339.464 131.614 348.917 132.571 350.403C132.847 350.848 133.233 351.216 133.691 351.469C134.15 351.723 134.666 351.855 135.191 351.851C135.73 351.829 136.255 351.667 136.713 351.381C137.171 351.094 137.546 350.693 137.801 350.217C138.73 348.638 137.754 340.625 136.342 334.106V333.939C136.342 333.837 135.414 323.725 135.088 321.626C134.773 319.713 132.376 314.002 128.586 311.848C128.265 311.666 128.029 311.363 127.93 311.007C127.832 310.651 127.879 310.27 128.061 309.949C128.244 309.628 128.546 309.392 128.902 309.293C129.259 309.195 129.639 309.242 129.961 309.424C134.55 312.024 137.392 318.459 137.857 321.171C138.2 323.288 139.036 332.537 139.129 333.605C142.12 347.44 140.597 351.034 140.253 351.619C139.758 352.505 139.042 353.248 138.174 353.775C137.306 354.302 136.317 354.596 135.302 354.628L135.079 354.637Z" fill="#181818"/>
<path d="M131.819 314.151C131.723 314.16 131.627 314.16 131.531 314.151C131.352 314.114 131.182 314.043 131.03 313.94C130.879 313.838 130.75 313.706 130.65 313.554C130.549 313.401 130.48 313.23 130.447 313.05C130.413 312.87 130.415 312.686 130.453 312.507L132.766 301.364C132.792 301.175 132.857 300.993 132.956 300.83C133.055 300.667 133.187 300.526 133.343 300.415C133.499 300.305 133.676 300.228 133.863 300.189C134.051 300.151 134.244 300.151 134.431 300.19C134.618 300.229 134.795 300.306 134.951 300.416C135.107 300.526 135.239 300.667 135.338 300.831C135.437 300.994 135.501 301.176 135.527 301.365C135.553 301.554 135.54 301.747 135.488 301.931L133.175 313.074C133.105 313.381 132.933 313.655 132.686 313.851C132.44 314.046 132.134 314.152 131.819 314.151Z" fill="#181818"/>
<path d="M121.573 360.292C120.978 360.303 120.39 360.162 119.864 359.883L121.285 357.488C121.369 357.493 121.452 357.493 121.536 357.488C121.978 357.461 122.403 357.31 122.762 357.051C123.44 356.605 123.691 354.943 123.691 353.959L123.347 338.294C123.338 337.925 123.477 337.567 123.732 337.299C123.987 337.032 124.338 336.877 124.708 336.869C125.077 336.86 125.435 336.998 125.703 337.254C125.97 337.509 126.125 337.859 126.134 338.229L126.477 353.866C126.477 354.228 126.626 357.878 124.341 359.373C123.535 359.957 122.568 360.279 121.573 360.292Z" fill="#181818"/>
<path d="M137.995 302.989H97.8396C97.1677 302.992 96.5048 302.834 95.906 302.53C95.3071 302.225 94.7897 301.782 94.3964 301.237C94.0032 300.692 93.7455 300.062 93.6449 299.397C93.5442 298.733 93.6034 298.055 93.8175 297.418L126.552 197.336C132.887 178.467 145.389 162.385 160.846 153.192C170.65 147.386 181.634 143.857 192.986 142.866C193.608 142.866 195.289 142.606 196.915 142.402C199.86 142.039 201.188 141.882 201.559 141.882C201.929 141.882 202.283 142.028 202.545 142.29C202.806 142.551 202.953 142.905 202.953 143.274C202.953 143.644 202.806 143.998 202.545 144.259C202.283 144.521 201.929 144.667 201.559 144.667C201.188 144.667 198.893 144.964 197.212 145.169C195.531 145.373 193.85 145.587 193.181 145.642C182.257 146.623 171.692 150.044 162.267 155.652C147.405 164.502 135.33 180.037 129.199 198.274L96.4649 298.309C96.3997 298.524 96.3856 298.751 96.4239 298.973C96.4622 299.194 96.5517 299.403 96.6853 299.583C96.8189 299.764 96.9928 299.911 97.1933 300.012C97.3937 300.113 97.6151 300.166 97.8396 300.167H137.995C138.305 300.168 138.608 300.069 138.857 299.885C139.106 299.701 139.29 299.442 139.38 299.145L157.549 238.946C157.598 238.766 157.683 238.599 157.798 238.453C157.913 238.306 158.056 238.185 158.219 238.095C158.382 238.005 158.561 237.949 158.746 237.929C158.931 237.91 159.118 237.928 159.296 237.982C159.474 238.036 159.64 238.125 159.783 238.243C159.926 238.362 160.044 238.509 160.129 238.674C160.215 238.839 160.267 239.02 160.281 239.205C160.296 239.39 160.273 239.577 160.215 239.753L142.045 299.944C141.793 300.822 141.261 301.595 140.531 302.144C139.8 302.694 138.91 302.991 137.995 302.989Z" fill="#181818"/>
<path d="M201.457 145.206H201.318C200.951 145.168 200.614 144.987 200.381 144.702C200.148 144.416 200.037 144.05 200.073 143.683L203.185 111.415C199.265 111.016 188.732 109.335 186.27 102.807C185.044 99.5572 185.806 97.4029 186.66 96.1679C188.016 94.1993 190.608 93.0571 193.757 93.0479C196.906 93.0479 201.411 95.295 204.17 96.8643C204.042 93.2071 204.777 89.5711 206.316 86.2507C208.61 81.5242 207.514 73.4178 207.495 73.3342C207.463 73.0882 207.497 72.838 207.593 72.6093C207.689 72.3805 207.844 72.1814 208.043 72.0322C208.241 71.883 208.475 71.7892 208.722 71.7601C208.969 71.7311 209.218 71.768 209.446 71.867C211.268 72.649 213.167 73.2373 215.112 73.6221C216.97 73.9285 223.389 72.2292 227.011 71.087C227.36 70.9824 227.736 71.0156 228.061 71.1799C234.334 74.4431 240.429 78.0355 246.323 81.9421C248.903 83.6578 251.384 85.5179 253.754 87.5136C254.509 88.1594 255.078 88.9955 255.401 89.9351C255.725 90.8747 255.791 91.8837 255.593 92.8574C255.395 93.8312 254.94 94.7342 254.275 95.4731C253.61 96.2119 252.76 96.7595 251.813 97.0593L239.932 100.866L244.511 141.928C244.532 142.111 244.515 142.296 244.464 142.473C244.413 142.649 244.327 142.814 244.212 142.958C244.097 143.101 243.954 143.221 243.793 143.31C243.632 143.398 243.454 143.454 243.271 143.474C243.088 143.494 242.903 143.478 242.727 143.427C242.55 143.375 242.385 143.29 242.241 143.175C242.098 143.059 241.978 142.917 241.889 142.756C241.801 142.595 241.745 142.417 241.725 142.235L237.025 100.04C236.986 99.7235 237.057 99.4033 237.226 99.1329C237.395 98.8625 237.652 98.6583 237.954 98.5543L250.958 94.4314C251.429 94.2766 251.85 93.9991 252.177 93.6274C252.505 93.2558 252.728 92.8036 252.822 92.3173C252.917 91.831 252.88 91.3283 252.716 90.8609C252.551 90.3936 252.265 89.9785 251.887 89.6586C249.596 87.7147 247.196 85.9041 244.697 84.2357C239.087 80.5083 233.289 77.0712 227.327 73.9378C224.838 74.6992 217.471 76.8535 214.685 76.3892C213.263 76.1336 211.865 75.7609 210.505 75.2749C210.7 78.3021 210.709 83.6321 208.851 87.4857C207.2 91.1693 206.627 95.2454 207.198 99.2415C207.247 99.5089 207.217 99.7849 207.111 100.035C207.005 100.286 206.828 100.5 206.602 100.651C206.375 100.802 206.11 100.883 205.838 100.885C205.566 100.887 205.299 100.81 205.071 100.662C202.999 99.325 196.952 95.8522 193.785 95.8522C191.583 95.8522 189.781 96.5765 188.964 97.765C188.267 98.7679 188.249 100.133 188.89 101.841C190.831 106.986 201.021 108.583 204.783 108.769C204.971 108.777 205.156 108.823 205.326 108.905C205.496 108.987 205.648 109.103 205.771 109.245C205.895 109.388 205.988 109.554 206.045 109.734C206.102 109.914 206.121 110.104 206.102 110.292L202.851 143.971C202.812 144.312 202.648 144.627 202.391 144.855C202.134 145.083 201.801 145.208 201.457 145.206Z" fill="#181818"/>
<path d="M223.983 90.4107C223.654 90.4109 223.335 90.2945 223.083 90.082C222.831 89.8695 222.663 89.5747 222.608 89.25L222.274 87.3C222.212 86.9306 222.3 86.5518 222.518 86.2471C222.736 85.9423 223.065 85.7365 223.435 85.675C223.805 85.6134 224.183 85.7011 224.488 85.9188C224.793 86.1365 224.999 86.4663 225.061 86.8357L225.395 88.7857C225.426 88.9662 225.42 89.1509 225.379 89.3294C225.339 89.5078 225.263 89.6765 225.157 89.8257C225.051 89.9749 224.916 90.1017 224.761 90.1989C224.606 90.2961 224.433 90.3618 224.252 90.3921L223.983 90.4107Z" fill="#181818"/>
<path d="M229.435 89.7889C229.106 89.7891 228.787 89.6726 228.535 89.4601C228.284 89.2477 228.116 88.9529 228.061 88.6282L227.726 86.6689C227.665 86.2995 227.752 85.9207 227.97 85.616C228.188 85.3112 228.518 85.1054 228.887 85.0439C229.257 84.9823 229.636 85.07 229.941 85.2877C230.245 85.5054 230.451 85.8352 230.513 86.2046L230.847 88.1639C230.878 88.3444 230.873 88.5291 230.832 88.7076C230.791 88.886 230.715 89.0547 230.609 89.2039C230.503 89.3531 230.369 89.4799 230.213 89.5771C230.058 89.6743 229.885 89.74 229.705 89.7703L229.435 89.7889Z" fill="#181818"/>
<path d="M227.699 106.02C225.9 106.035 224.138 105.514 222.636 104.525C221.217 103.484 220.041 102.147 219.19 100.606C219.052 100.283 219.042 99.9188 219.161 99.5878C219.28 99.2568 219.521 98.9832 219.834 98.8221C220.147 98.6609 220.509 98.6242 220.848 98.7192C221.187 98.8143 221.477 99.034 221.661 99.3343C222.313 100.476 223.195 101.469 224.252 102.25C225.343 102.937 226.615 103.28 227.903 103.234C228.272 103.207 228.638 103.328 228.918 103.57C229.199 103.812 229.371 104.156 229.398 104.525C229.426 104.894 229.305 105.259 229.063 105.54C228.82 105.82 228.477 105.993 228.107 106.02H227.699Z" fill="#181818"/>
<path d="M35.6016 186.2C35.364 186.173 35.1463 186.054 34.9938 185.87C34.7787 185.622 13.7514 160.117 28.3386 137.099C31.3515 132.346 36.2709 129.835 42.5816 129.826C47.7902 129.982 52.904 131.259 57.5738 133.571C58.021 130.93 58.6521 128.095 59.4672 125.065C61.5836 117.07 65.4638 109.649 70.8232 103.348C70.9916 103.177 71.2195 103.078 71.4592 103.072C71.6989 103.065 71.9318 103.151 72.1092 103.313C72.2867 103.474 72.3949 103.697 72.4112 103.936C72.4276 104.176 72.3508 104.412 72.1969 104.596C67.0702 110.694 63.3394 117.839 61.2657 125.53C60.4164 128.835 59.7933 131.793 59.3266 134.441C63.3741 136.597 66.5471 139.132 67.9102 141.22C73.0821 149.325 72.0261 154.962 69.5668 157.292C68.6094 158.191 67.36 158.715 66.0475 158.768C64.735 158.821 63.4474 158.4 62.4207 157.581C57.4366 154.113 55.7319 146.679 57.334 135.45C52.7689 133.124 47.7488 131.828 42.628 131.654C36.9164 131.655 32.654 133.81 29.9599 138.058C16.108 159.859 36.2618 184.406 36.4687 184.644C36.5899 184.786 36.6655 184.962 36.6855 185.147C36.7055 185.333 36.669 185.52 36.5808 185.685C36.4926 185.85 36.3567 185.984 36.191 186.07C36.0253 186.157 35.8374 186.191 35.6519 186.169L35.6016 186.2ZM59.0323 136.389C57.4203 148.701 60.3183 153.924 63.4303 156.087C64.1048 156.657 64.9638 156.961 65.8466 156.944C66.7295 156.926 67.5757 156.588 68.227 155.992C70.3258 153.958 70.5675 148.911 66.3023 142.216C65.1818 140.464 62.4914 138.292 59.0323 136.389Z" fill="#0084FF"/>
<path d="M237.136 312.025H211.23C210.86 312.025 210.506 311.878 210.245 311.617C209.983 311.355 209.836 311.001 209.836 310.632C209.836 310.262 209.983 309.908 210.245 309.647C210.506 309.386 210.86 309.239 211.23 309.239H237.136C237.506 309.239 237.86 309.386 238.122 309.647C238.383 309.908 238.53 310.262 238.53 310.632C238.53 311.001 238.383 311.355 238.122 311.617C237.86 311.878 237.506 312.025 237.136 312.025Z" fill="#181818"/>
<path d="M356.33 307.855H279.232C272.548 307.855 267.129 313.272 267.129 319.955V365.52C267.129 372.202 272.548 377.619 279.232 377.619H356.33C363.015 377.619 368.434 372.202 368.434 365.52V319.955C368.434 313.272 363.015 307.855 356.33 307.855Z" fill="#181818"/>
<path d="M361.782 303.472H284.684C278 303.472 272.581 308.889 272.581 315.571V361.136C272.581 367.819 278 373.236 284.684 373.236H361.782C368.467 373.236 373.886 367.819 373.886 361.136V315.571C373.886 308.889 368.467 303.472 361.782 303.472Z" fill="white"/>
<path d="M361.792 374.629H284.694C281.122 374.614 277.702 373.187 275.18 370.659C272.658 368.131 271.239 364.707 271.234 361.137V315.562C271.239 311.986 272.663 308.558 275.193 306.031C277.724 303.503 281.154 302.082 284.731 302.079H361.829C365.397 302.094 368.814 303.521 371.333 306.047C373.852 308.574 375.267 311.995 375.27 315.562V361.137C375.267 364.711 373.847 368.139 371.321 370.668C368.794 373.197 365.367 374.622 361.792 374.629ZM284.694 304.865C281.862 304.877 279.15 306.009 277.151 308.013C275.151 310.018 274.026 312.732 274.021 315.562V361.137C274.024 363.976 275.153 366.697 277.161 368.705C279.169 370.712 281.891 371.841 284.731 371.843H361.829C364.659 371.826 367.367 370.691 369.363 368.685C371.359 366.679 372.481 363.966 372.483 361.137V315.562C372.478 312.727 371.349 310.009 369.344 308.004C367.338 305.999 364.619 304.87 361.782 304.865H284.694Z" fill="#181818"/>
<path d="M299.445 361.471H295.181C294.087 361.471 293.038 361.037 292.265 360.264C291.491 359.49 291.057 358.442 291.057 357.348V319.537C291.057 318.443 291.491 317.395 292.265 316.621C293.038 315.848 294.087 315.414 295.181 315.414H299.445C300.537 315.416 301.583 315.852 302.355 316.625C303.126 317.398 303.559 318.445 303.559 319.537V357.348C303.559 358.44 303.126 359.487 302.355 360.26C301.583 361.033 300.537 361.469 299.445 361.471ZM295.181 318.2C294.826 318.2 294.486 318.34 294.235 318.591C293.984 318.842 293.843 319.182 293.843 319.537V357.348C293.843 357.703 293.984 358.043 294.235 358.294C294.486 358.545 294.826 358.685 295.181 358.685H299.445C299.62 358.685 299.793 358.651 299.955 358.583C300.117 358.516 300.264 358.418 300.387 358.293C300.511 358.169 300.608 358.022 300.674 357.859C300.741 357.697 300.774 357.523 300.773 357.348V319.537C300.774 319.362 300.741 319.188 300.674 319.026C300.608 318.864 300.511 318.716 300.387 318.592C300.264 318.467 300.117 318.369 299.955 318.302C299.793 318.234 299.62 318.2 299.445 318.2H295.181Z" fill="#181818"/>
<path d="M316.75 361.471H312.496C311.402 361.471 310.353 361.037 309.579 360.264C308.806 359.49 308.371 358.442 308.371 357.348V328.126C308.374 327.034 308.809 325.988 309.583 325.217C310.356 324.446 311.403 324.012 312.496 324.012H316.75C317.842 324.012 318.89 324.446 319.663 325.217C320.436 325.988 320.872 327.034 320.874 328.126V357.348C320.874 358.442 320.44 359.49 319.666 360.264C318.893 361.037 317.844 361.471 316.75 361.471ZM312.496 326.798C312.32 326.797 312.147 326.83 311.984 326.897C311.822 326.963 311.675 327.06 311.55 327.184C311.426 327.307 311.327 327.454 311.26 327.616C311.193 327.777 311.158 327.951 311.158 328.126V357.348C311.157 357.524 311.191 357.699 311.257 357.861C311.324 358.024 311.423 358.172 311.547 358.297C311.671 358.421 311.819 358.519 311.982 358.586C312.145 358.653 312.32 358.687 312.496 358.685H316.75C317.105 358.685 317.445 358.545 317.696 358.294C317.947 358.043 318.087 357.703 318.087 357.348V328.126C318.085 327.773 317.943 327.435 317.692 327.187C317.442 326.938 317.103 326.798 316.75 326.798H312.496Z" fill="#181818"/>
<path d="M334.009 361.471H329.755C328.662 361.469 327.616 361.033 326.844 360.26C326.073 359.488 325.64 358.44 325.64 357.348V347.998C325.64 346.906 326.073 345.859 326.844 345.086C327.616 344.313 328.662 343.877 329.755 343.875H334.018C335.112 343.875 336.161 344.309 336.935 345.082C337.708 345.856 338.142 346.904 338.142 347.998V357.348C338.142 357.891 338.035 358.427 337.828 358.928C337.62 359.429 337.315 359.884 336.931 360.267C336.547 360.65 336.092 360.953 335.59 361.16C335.089 361.367 334.551 361.472 334.009 361.471ZM329.755 346.66C329.401 346.663 329.064 346.805 328.815 347.055C328.566 347.306 328.426 347.645 328.426 347.998V357.348C328.425 357.524 328.459 357.697 328.525 357.859C328.591 358.022 328.689 358.169 328.812 358.293C328.936 358.418 329.082 358.516 329.244 358.584C329.406 358.651 329.579 358.686 329.755 358.686H334.018C334.373 358.686 334.713 358.545 334.964 358.294C335.215 358.043 335.356 357.703 335.356 357.348V347.998C335.353 347.644 335.212 347.305 334.961 347.055C334.711 346.805 334.372 346.663 334.018 346.66H329.755Z" fill="#181818"/>
<path d="M351.295 361.471H347.032C345.938 361.471 344.889 361.036 344.115 360.263C343.342 359.49 342.907 358.441 342.907 357.348V336.613C342.907 335.519 343.342 334.471 344.115 333.698C344.889 332.924 345.938 332.49 347.032 332.49H351.295C352.388 332.492 353.434 332.928 354.206 333.701C354.977 334.474 355.41 335.521 355.41 336.613V357.348C355.41 358.44 354.977 359.487 354.206 360.26C353.434 361.033 352.388 361.468 351.295 361.471ZM347.032 335.276C346.677 335.276 346.337 335.417 346.086 335.667C345.835 335.918 345.694 336.258 345.694 336.613V357.348C345.694 357.703 345.835 358.043 346.086 358.293C346.337 358.544 346.677 358.685 347.032 358.685H351.295C351.471 358.685 351.644 358.65 351.806 358.583C351.968 358.516 352.114 358.417 352.238 358.293C352.361 358.169 352.459 358.021 352.525 357.859C352.591 357.697 352.625 357.523 352.624 357.348V336.613C352.625 336.438 352.591 336.264 352.525 336.102C352.459 335.94 352.361 335.792 352.238 335.668C352.114 335.544 351.968 335.445 351.806 335.378C351.644 335.31 351.471 335.276 351.295 335.276H347.032Z" fill="#181818"/>
<path d="M194.946 93.9764C194.946 93.9764 188.62 79.0264 192.41 70.1863C196.2 61.3463 204.421 61.9684 204.421 61.9684C204.421 61.9684 206.278 56.7591 211.415 55.4684C216.32 54.2427 220.295 58.4306 220.295 58.4306C221.374 57.3031 222.689 56.428 224.145 55.8678C225.602 55.3075 227.164 55.076 228.72 55.1898C233.226 55.5055 234.805 60.4084 234.805 60.4084C234.805 60.4084 247.753 59.2198 246.964 65.302C246.091 72.062 224.856 79.0728 214.917 76.4449C213.394 76.0456 209.827 74.9778 209.827 74.9778C210.338 76.9719 210.477 79.0433 210.236 81.0878C209.91 85.0157 208.248 85.8885 207.718 87.9871L206.743 90.7728C206.446 93.1421 206.502 95.5423 206.91 97.895L205.823 99.4272L194.946 93.9764Z" fill="#181818"/>
<path d="M49.5836 288.569C72.859 288.569 91.7273 269.707 91.7273 246.439C91.7273 223.172 72.859 204.31 49.5836 204.31C26.3083 204.31 7.43994 223.172 7.43994 246.439C7.43994 269.707 26.3083 288.569 49.5836 288.569Z" fill="white"/>
<path d="M48.808 273.419C47.9251 273.779 46.9737 273.941 46.0213 273.892C45.1317 273.825 44.2803 273.502 43.5691 272.964L44.0614 274.969L42.2036 275.703L34.9397 256.788L37.3734 255.859L40.0486 262.833C40.289 262.068 40.7169 261.375 41.2933 260.818C41.9226 260.24 42.6575 259.789 43.4576 259.49C44.1844 259.204 44.9618 259.068 45.7427 259.091C46.5002 259.12 47.2407 259.324 47.907 259.685C48.6218 260.099 49.2521 260.644 49.7648 261.292C50.3919 262.076 50.8876 262.957 51.2324 263.901L51.6318 264.932C52.0055 265.865 52.2251 266.853 52.2821 267.857C52.3341 268.688 52.2205 269.521 51.9477 270.308C51.684 271.009 51.2685 271.643 50.7308 272.165C50.1838 272.712 49.529 273.139 48.808 273.419ZM47.2475 271.357C47.7276 271.201 48.168 270.942 48.5385 270.599C48.9089 270.256 49.2005 269.837 49.3932 269.37C49.7332 268.218 49.6339 266.981 49.1145 265.897L48.7244 264.867C48.3862 263.703 47.6239 262.709 46.588 262.081C45.682 261.684 44.657 261.656 43.7307 262.003C42.8044 262.35 42.05 263.044 41.6277 263.938C41.2313 265.024 41.2679 266.221 41.7299 267.281L42.1943 268.497C42.5381 269.642 43.3099 270.609 44.3493 271.199C44.7909 271.437 45.2787 271.575 45.779 271.606C46.2794 271.636 46.7804 271.558 47.2475 271.376V271.357Z" fill="#181818"/>
<path d="M49.5839 289.961C40.9731 289.961 32.5557 287.409 25.396 282.627C18.2364 277.844 12.6562 271.047 9.36095 263.094C6.06574 255.142 5.20356 246.391 6.88345 237.948C8.56333 229.506 12.7098 221.751 18.7986 215.664C24.8874 209.577 32.6449 205.432 41.0903 203.753C49.5356 202.074 58.2895 202.936 66.2448 206.23C74.2002 209.524 80.9997 215.102 85.7836 222.259C90.5675 229.417 93.1209 237.831 93.1209 246.439C93.1087 257.978 88.5178 269.041 80.3557 277.2C72.1936 285.36 61.1269 289.949 49.5839 289.961ZM49.5839 205.702C41.5243 205.702 33.6456 208.092 26.9442 212.568C20.2429 217.044 15.0198 223.406 11.9355 230.85C8.8512 238.294 8.04421 246.484 9.61657 254.386C11.1889 262.289 15.07 269.547 20.7691 275.244C26.4681 280.941 33.7291 284.821 41.6339 286.393C49.5387 287.965 57.7322 287.158 65.1784 284.075C72.6246 280.992 78.9889 275.77 83.4666 269.071C87.9443 262.372 90.3343 254.496 90.3343 246.439C90.322 235.639 86.0247 225.284 78.3852 217.648C70.7457 210.011 60.3878 205.715 49.5839 205.702Z" fill="#181818"/>
<path d="M37.5498 287.347C35.9174 287.347 34.3234 286.852 32.9772 285.929C31.6311 285.006 30.5957 283.697 30.0073 282.175L21.8981 261.069C21.1329 259.071 21.1924 256.852 22.0632 254.898C22.9341 252.945 24.5452 251.417 26.5425 250.65L47.6561 242.544C49.6542 241.779 51.8742 241.838 53.8285 242.709C55.7827 243.579 57.3113 245.19 58.0783 247.187L66.1875 268.302C66.9523 270.298 66.8926 272.516 66.0216 274.468C65.1506 276.421 63.5397 277.947 61.543 278.712L40.4201 286.818C39.5047 287.172 38.5312 287.351 37.5498 287.347ZM50.5543 244.791C49.9185 244.792 49.2886 244.912 48.6965 245.144L27.5736 253.25C26.2679 253.753 25.215 254.753 24.6456 256.03C24.0762 257.308 24.0368 258.759 24.5361 260.066L32.6453 281.182C33.15 282.487 34.1524 283.54 35.4325 284.107C36.7126 284.675 38.1656 284.711 39.4726 284.209L60.5863 276.102C61.2335 275.854 61.8256 275.481 62.3286 275.005C62.8316 274.528 63.2357 273.957 63.5177 273.324C63.7998 272.691 63.9544 272.008 63.9726 271.316C63.9908 270.623 63.8722 269.933 63.6237 269.287L55.5145 248.18C55.1326 247.173 54.4521 246.306 53.5641 245.695C52.6761 245.084 51.6228 244.759 50.545 244.763L50.5543 244.791Z" fill="#181818"/>
<path d="M68.5981 236.021C79.0994 236.021 87.6125 227.511 87.6125 217.013C87.6125 206.515 79.0994 198.005 68.5981 198.005C58.0968 198.005 49.5837 206.515 49.5837 217.013C49.5837 227.511 58.0968 236.021 68.5981 236.021Z" fill="#181818"/>
<path d="M72.9735 231.953C82.9054 231.953 90.9568 223.905 90.9568 213.976C90.9568 204.048 82.9054 195.999 72.9735 195.999C63.0416 195.999 54.9902 204.048 54.9902 213.976C54.9902 223.905 63.0416 231.953 72.9735 231.953Z" fill="white"/>
<path d="M72.9736 233.346C69.1412 233.346 65.3949 232.21 62.2085 230.082C59.022 227.954 56.5385 224.928 55.0719 221.389C53.6053 217.849 53.2216 213.955 53.9692 210.197C54.7169 206.44 56.5623 202.989 59.2722 200.28C61.9821 197.571 65.4347 195.726 69.1934 194.978C72.9521 194.231 76.8481 194.615 80.3887 196.081C83.9293 197.547 86.9555 200.029 89.0846 203.215C91.2138 206.4 92.3502 210.145 92.3502 213.976C92.3453 219.112 90.3022 224.036 86.6695 227.668C83.0367 231.299 78.111 233.341 72.9736 233.346ZM72.9736 197.401C69.692 197.401 66.4841 198.374 63.7557 200.197C61.0273 202.02 58.9009 204.61 57.6455 207.641C56.3902 210.672 56.0622 214.007 56.7031 217.224C57.3439 220.442 58.9249 223.397 61.246 225.716C63.5671 228.035 66.524 229.614 69.7427 230.252C72.9615 230.891 76.2974 230.562 79.3287 229.305C82.36 228.048 84.9503 225.921 86.7721 223.193C88.5939 220.464 89.5653 217.257 89.5635 213.976C89.5463 209.587 87.7915 205.384 84.6826 202.285C81.5738 199.186 77.3639 197.443 72.9736 197.438V197.401Z" fill="#181818"/>
<path d="M71.329 221.015C70.0749 221.101 68.8373 220.691 67.8828 219.873C67.4791 219.46 67.1658 218.968 66.9627 218.428C66.7596 217.887 66.6712 217.311 66.7032 216.734C66.6922 216.056 66.8088 215.382 67.0468 214.747C67.2802 214.162 67.6649 213.649 68.1615 213.261C68.7468 212.819 69.4173 212.503 70.1308 212.333C71.0917 212.103 72.0782 211.997 73.066 212.017H75.9642V210.949C75.9827 210.608 75.9294 210.266 75.8078 209.946C75.6862 209.626 75.499 209.335 75.2582 209.092C74.6392 208.599 73.8552 208.359 73.066 208.423C72.3138 208.357 71.562 208.554 70.9389 208.981C70.5127 209.336 70.2399 209.841 70.1772 210.392H67.2791C67.3057 209.803 67.455 209.227 67.7173 208.699C67.9796 208.172 68.3492 207.704 68.8024 207.328C70.0325 206.426 71.5451 205.994 73.066 206.111C74.5535 206.003 76.026 206.468 77.181 207.411C77.6535 207.873 78.0221 208.429 78.2624 209.044C78.5027 209.659 78.609 210.318 78.5743 210.977V220.811H76.5401L76.2243 218.443C75.7238 219.252 75.019 219.915 74.1807 220.365C73.3005 220.819 72.3193 221.043 71.329 221.015ZM71.6263 218.703C72.2233 218.711 72.8162 218.604 73.3726 218.387C73.879 218.188 74.3449 217.899 74.7473 217.533C75.1416 217.181 75.458 216.751 75.6762 216.27C75.8891 215.787 75.9968 215.265 75.992 214.738V214.218H73.066C72.0881 214.135 71.1099 214.373 70.2794 214.896C70.0145 215.109 69.8028 215.382 69.661 215.691C69.5192 216 69.451 216.338 69.462 216.679C69.4486 216.951 69.4931 217.224 69.5923 217.478C69.6915 217.733 69.8434 217.963 70.0379 218.155C70.479 218.532 71.0465 218.728 71.6263 218.703Z" fill="#181818"/>
<path d="M302.891 66.5091C302.521 66.5522 302.15 66.4468 301.858 66.2161C301.566 65.9853 301.378 65.6482 301.335 65.2788C301.292 64.9093 301.397 64.5379 301.628 64.2463C301.859 63.9546 302.196 63.7665 302.566 63.7234L325.435 58.1519C325.795 58.0657 326.174 58.1259 326.489 58.3192C326.805 58.5125 327.03 58.8231 327.116 59.1827C327.203 59.5422 327.142 59.9213 326.949 60.2365C326.756 60.5517 326.445 60.7772 326.085 60.8634L303.216 66.4348C303.112 66.4741 303.002 66.499 302.891 66.5091Z" fill="#181818"/>
<path d="M304.674 73.6966C304.338 73.6892 304.017 73.5609 303.768 73.3352C303.519 73.1095 303.361 72.8016 303.321 72.4681C303.281 72.1347 303.364 71.7982 303.553 71.5206C303.742 71.243 304.024 71.0429 304.349 70.9573L327.218 65.3858C327.4 65.3308 327.59 65.3132 327.779 65.3344C327.967 65.3555 328.149 65.4148 328.314 65.5086C328.478 65.6025 328.622 65.7289 328.736 65.8801C328.85 66.0314 328.932 66.2044 328.977 66.3884C329.022 66.5724 329.029 66.7637 328.997 66.9505C328.966 67.1373 328.896 67.3157 328.794 67.4747C328.691 67.6338 328.556 67.7703 328.399 67.8757C328.242 67.9811 328.064 68.0534 327.878 68.088L305.009 73.6594C304.899 73.6855 304.787 73.698 304.674 73.6966Z" fill="#181818"/>
<path d="M306.383 80.9298C306.014 80.9729 305.642 80.8675 305.35 80.6368C305.059 80.4061 304.87 80.0689 304.827 79.6995C304.784 79.3301 304.89 78.9587 305.12 78.667C305.351 78.3753 305.689 78.1872 306.058 78.1441L328.927 72.6191C329.287 72.5317 329.667 72.5907 329.983 72.7831C330.299 72.9755 330.526 73.2856 330.613 73.6452C330.701 74.0047 330.642 74.3843 330.449 74.7004C330.257 75.0164 329.947 75.2431 329.587 75.3305L306.718 80.8927C306.608 80.9188 306.496 80.9313 306.383 80.9298Z" fill="#181818"/>
<path d="M340.455 80.2893L306.82 88.4143C306.161 88.5735 305.477 88.6013 304.807 88.4961C304.137 88.3909 303.494 88.1548 302.915 87.8013C302.336 87.4477 301.833 86.9837 301.433 86.4356C301.034 85.8876 300.747 85.2663 300.587 84.6072L289.896 40.3884L292.683 42.097L295.924 37.4541L300.625 40.2398L303.653 35.5969L308.39 38.2991L311.4 33.6562L316.183 36.3862L319.137 31.7433L324.181 34.4826L326.039 31.5669L336.935 76.7235L338.793 78.2371C338.712 78.0571 338.647 77.8707 338.598 77.68L333.164 55.227L334.52 54.902L327.182 24.5562L323.252 30.8055L318.264 28.1312L315.347 32.6905L310.592 29.9697L307.582 34.6126L302.817 31.8455L299.807 36.4419L295.163 33.7026L291.949 38.3455L285.642 34.4919L297.912 85.2479C298.328 86.9779 299.311 88.5189 300.705 89.6247C302.099 90.7306 303.824 91.3375 305.603 91.3486C306.23 91.3464 306.854 91.2685 307.461 91.1165L344.199 82.295L343.344 81.0136C342.326 81.1205 341.303 80.864 340.455 80.2893Z" fill="#181818"/>
<path d="M342.852 82.4063C341.565 82.3994 340.317 81.9624 339.307 81.1648C338.297 80.3672 337.583 79.2549 337.278 78.0049L331.519 54.1962L343.325 51.3455L349.075 75.1541C349.433 76.6379 349.187 78.2031 348.391 79.5055C347.595 80.808 346.314 81.7412 344.83 82.0999L344.226 82.2485C343.777 82.358 343.315 82.411 342.852 82.4063ZM334.854 56.2948L339.972 77.3456C340.163 78.1042 340.646 78.7569 341.316 79.162C341.985 79.567 342.787 79.6918 343.548 79.5092L344.143 79.3699C344.906 79.1826 345.565 78.7025 345.977 78.0335C346.389 77.3646 346.521 76.5604 346.344 75.7949L341.235 54.6976L334.854 56.2948Z" fill="#181818"/>
<path d="M324.775 46.3497C332.086 46.3497 338.012 40.4254 338.012 33.1175C338.012 25.8095 332.086 19.8853 324.775 19.8853C317.465 19.8853 311.539 25.8095 311.539 33.1175C311.539 40.4254 317.465 46.3497 324.775 46.3497Z" fill="white"/>
<path d="M324.748 47.7425C321.002 47.7464 317.396 46.32 314.667 43.7548C311.937 41.1896 310.291 37.6793 310.065 33.9414C309.838 30.2034 311.048 26.5201 313.447 23.6441C315.846 20.7681 319.253 18.9166 322.973 18.4681C326.692 18.0196 330.442 19.0078 333.456 21.2309C336.471 23.454 338.522 26.744 339.191 30.4286C339.86 34.1132 339.097 37.9141 337.056 41.0545C335.015 44.195 331.852 46.4378 328.213 47.3246C327.078 47.6007 325.915 47.741 324.748 47.7425ZM324.748 21.2781C323.809 21.2757 322.873 21.388 321.961 21.6124C319.688 22.166 317.629 23.3811 316.046 25.104C314.463 26.8269 313.427 28.9803 313.068 31.292C312.709 33.6037 313.044 35.9699 314.03 38.0914C315.016 40.2129 316.609 41.9945 318.608 43.211C320.608 44.4285 322.925 45.0253 325.265 44.9257C327.605 44.8262 329.863 44.0348 331.753 42.6518C333.642 41.2688 335.079 39.3563 335.881 37.1566C336.683 34.9568 336.813 32.5687 336.257 30.2945C335.623 27.727 334.149 25.445 332.068 23.8113C329.988 22.1776 327.421 21.2859 324.776 21.2781H324.748Z" fill="#181818"/>
<path d="M324.59 38.2063C324.323 38.2083 324.061 38.1308 323.838 37.9835C322.324 37.0549 320.512 35.8849 320.122 35.6713C319.793 35.5577 319.519 35.3251 319.353 35.0194C319.187 34.7136 319.141 34.3568 319.225 34.0192C319.309 33.6815 319.516 33.3875 319.806 33.1949C320.096 33.0023 320.447 32.9251 320.791 32.9784C321.088 32.9784 321.302 33.0527 324.163 34.8356L328.287 28.0941C328.385 27.9368 328.512 27.8003 328.663 27.6923C328.813 27.5843 328.983 27.507 329.164 27.4647C329.344 27.4224 329.531 27.4161 329.713 27.446C329.896 27.476 330.071 27.5416 330.228 27.6391C330.386 27.7367 330.522 27.8643 330.63 28.0146C330.739 28.1649 330.816 28.3351 330.858 28.5153C330.9 28.6955 330.907 28.8822 330.877 29.0649C330.847 29.2476 330.781 29.4226 330.684 29.5799L325.826 37.5378C325.724 37.7028 325.589 37.8445 325.429 37.9534C325.269 38.0622 325.087 38.1358 324.897 38.1692C324.797 38.1953 324.694 38.2078 324.59 38.2063Z" fill="#181818"/>
<path d="M230.85 36.9059C229.948 36.8611 229.066 36.6223 228.264 36.2056C227.462 35.789 226.76 35.2043 226.205 34.4916C224.906 32.9593 224.202 31.0104 224.222 29.0015C224.243 26.9927 224.986 25.0584 226.317 23.553C227.075 22.644 227.971 21.8606 228.974 21.2315C228.126 20.5936 227.239 20.0106 226.317 19.4858C203.401 6.32788 184.842 24.3144 184.062 25.0573C183.887 25.214 183.66 25.299 183.426 25.2953C183.192 25.2916 182.967 25.1994 182.798 25.0372C182.629 24.8751 182.527 24.655 182.513 24.421C182.5 24.1871 182.575 23.9566 182.724 23.7758C182.929 23.5715 203.058 3.99716 227.218 17.8886C228.445 18.5959 229.616 19.3969 230.72 20.2844C236.293 17.8515 245.331 18.1487 257.49 25.1501C257.705 25.2733 257.861 25.4765 257.926 25.715C257.99 25.9536 257.957 26.208 257.834 26.4223C257.711 26.6365 257.508 26.7931 257.269 26.8575C257.03 26.922 256.776 26.889 256.562 26.7658C245.545 20.4144 237.361 19.7922 232.253 21.6494C235.234 24.593 236.73 27.9358 236.377 31.158C236.304 32.3734 235.881 33.5416 235.157 34.5208C234.433 35.4999 233.44 36.2479 232.299 36.6737C231.83 36.8212 231.342 36.8994 230.85 36.9059ZM230.469 22.4758C229.427 23.0529 228.501 23.8179 227.738 24.7323C226.673 25.8912 226.068 27.4 226.039 28.9738C226.01 30.5476 226.558 32.0776 227.58 33.2752C228.881 34.7609 230.367 35.3459 231.769 34.9002C232.564 34.5787 233.248 34.0357 233.743 33.336C234.237 32.6363 234.519 31.8094 234.556 30.9537C234.872 28.1308 233.386 25.1315 230.469 22.4758Z" fill="#0084FF"/>
<path d="M365.619 285.913C365.416 285.913 365.218 285.846 365.056 285.723C364.894 285.599 364.777 285.426 364.724 285.23C364.67 285.034 364.682 284.826 364.758 284.637C364.834 284.448 364.97 284.29 365.145 284.186C373.152 279.497 382.395 267.574 378.15 256.115C372.279 258.362 367.375 258.381 364.439 256.923C362.832 256.134 361.95 254.889 362.015 253.506C362.108 251.556 364.021 249.792 367.403 248.454C372.177 246.597 376.692 248.631 379.134 253.692C383.031 251.903 386.658 249.578 389.91 246.783C419.43 222.009 403.555 186.518 403.397 186.166C403.336 186.054 403.298 185.931 403.286 185.804C403.275 185.678 403.289 185.55 403.329 185.429C403.368 185.308 403.432 185.197 403.517 185.102C403.602 185.007 403.705 184.93 403.82 184.876C403.936 184.823 404.061 184.793 404.188 184.79C404.315 184.787 404.442 184.81 404.56 184.858C404.678 184.906 404.785 184.977 404.874 185.068C404.963 185.159 405.033 185.267 405.078 185.386C405.246 185.757 421.724 222.529 391.145 248.204C387.747 251.118 383.957 253.544 379.887 255.409C382.748 263.618 380.454 277.407 366.13 285.792C365.975 285.881 365.798 285.923 365.619 285.913ZM370.802 249.699C369.864 249.707 368.934 249.89 368.062 250.237C365.034 251.407 363.901 252.763 363.864 253.645C363.826 254.527 364.718 255.047 365.257 255.307C367.468 256.403 371.815 256.561 377.407 254.453C375.855 251.296 373.496 249.652 370.802 249.652V249.699Z" fill="#0084FF"/>
<path d="M316.852 443.344L239.959 443.019V417.511C239.931 416.108 240.462 414.751 241.433 413.738C242.405 412.725 243.738 412.138 245.142 412.106H245.393L261.119 418.031C262.239 418.455 263.454 418.566 264.632 418.352C265.81 418.137 266.908 417.606 267.807 416.814L271.207 413.908C271.566 413.593 271.987 413.356 272.443 413.213C272.898 413.069 273.379 413.021 273.854 413.072C274.337 413.122 274.804 413.272 275.226 413.512C275.648 413.751 276.016 414.076 276.306 414.465L282.26 422.274C288.038 424.717 293.825 425.19 298.98 425.599C305.993 426.165 312.041 426.648 315.301 432.024C317.01 434.857 317.038 438.654 316.936 441.988L316.852 443.344ZM242.745 440.242L314.14 440.549C314.14 438.311 314.047 435.404 312.877 433.473C310.359 429.313 305.223 428.904 298.72 428.375C293.286 427.939 287.128 427.447 280.811 424.661L280.477 424.522L274.095 416.164C274.033 416.079 273.954 416.006 273.863 415.952C273.772 415.898 273.671 415.863 273.566 415.849C273.367 415.833 273.171 415.897 273.018 416.025L269.627 418.941C268.343 420.049 266.785 420.793 265.115 421.093C263.445 421.394 261.725 421.24 260.134 420.649L244.919 414.911C244.298 415 243.732 415.316 243.331 415.798C242.929 416.28 242.721 416.893 242.745 417.52V440.242Z" fill="#181818"/>
<path d="M277.951 430.019C277.809 430.02 277.667 429.998 277.533 429.954C277.356 429.901 277.193 429.813 277.051 429.697C276.908 429.58 276.791 429.437 276.704 429.274C276.618 429.112 276.565 428.934 276.547 428.751C276.53 428.568 276.549 428.384 276.604 428.208C277.616 424.977 280.393 417.548 284.211 418.198C288.029 418.848 289.357 424.652 289.497 425.311C289.572 425.673 289.5 426.05 289.297 426.359C289.094 426.668 288.777 426.884 288.414 426.959C288.052 427.034 287.675 426.962 287.366 426.76C287.057 426.557 286.841 426.239 286.766 425.877C286.45 424.382 285.298 421.234 283.728 420.947C283.013 420.817 280.774 424.243 279.26 429.044C279.171 429.323 278.997 429.567 278.762 429.741C278.527 429.916 278.243 430.013 277.951 430.019Z" fill="#181818"/>
<path d="M288.67 431.235C288.528 431.236 288.387 431.214 288.252 431.17C288.076 431.117 287.912 431.03 287.77 430.913C287.628 430.797 287.51 430.653 287.424 430.491C287.338 430.328 287.284 430.151 287.267 429.968C287.25 429.785 287.269 429.6 287.323 429.424C288.345 426.193 291.122 418.764 294.931 419.414C298.739 420.064 300.077 425.868 300.216 426.527C300.253 426.706 300.255 426.891 300.221 427.071C300.186 427.251 300.117 427.422 300.016 427.575C299.916 427.728 299.786 427.86 299.635 427.963C299.484 428.066 299.313 428.138 299.134 428.175C298.955 428.213 298.77 428.214 298.59 428.18C298.41 428.146 298.239 428.076 298.085 427.976C297.932 427.875 297.801 427.746 297.698 427.594C297.595 427.443 297.522 427.273 297.485 427.094C297.179 425.599 296.018 422.451 294.448 422.163C293.732 422.005 291.494 425.459 289.98 430.26C289.892 430.54 289.718 430.784 289.483 430.96C289.248 431.135 288.963 431.231 288.67 431.235Z" fill="#181818"/>
<path d="M308.483 451.051H277.384C275.255 451.051 273.214 450.206 271.709 448.701C270.203 447.196 269.358 445.156 269.358 443.028V442.461H316.49V443.028C316.49 445.152 315.647 447.19 314.146 448.694C312.645 450.198 310.608 451.046 308.483 451.051Z" fill="#181818"/>
<path d="M261.333 450.81H248.328C246.2 450.81 244.158 449.964 242.653 448.46C241.148 446.955 240.303 444.914 240.303 442.787V442.22H269.358V442.787C269.358 444.914 268.513 446.955 267.007 448.46C265.502 449.964 263.461 450.81 261.333 450.81Z" fill="#181818"/>
<path d="M136.073 443.344L136.026 441.988C135.924 438.654 135.952 434.857 137.661 432.024C140.922 426.648 146.95 426.165 153.982 425.599C159.1 425.19 164.887 424.717 170.702 422.274L176.656 414.465C176.944 414.079 177.309 413.756 177.728 413.517C178.147 413.278 178.61 413.127 179.089 413.075C179.569 413.023 180.053 413.07 180.514 413.213C180.974 413.356 181.4 413.593 181.765 413.908L185.155 416.814C186.054 417.606 187.152 418.137 188.33 418.352C189.509 418.566 190.723 418.455 191.843 418.031L207.569 412.106H207.82C209.224 412.138 210.558 412.725 211.529 413.738C212.501 414.751 213.031 416.108 213.003 417.511V443.019L136.073 443.344ZM179.433 415.839H179.359C179.254 415.853 179.153 415.888 179.062 415.943C178.971 415.997 178.892 416.069 178.83 416.155L172.448 424.512L172.114 424.652C165.797 427.437 159.639 427.911 154.205 428.366C147.703 428.895 142.566 429.294 140.049 433.464C138.878 435.395 138.748 438.302 138.785 440.539L210.18 440.233V417.511C210.205 416.885 209.997 416.273 209.598 415.791C209.198 415.31 208.635 414.993 208.015 414.901L192.791 420.64C191.2 421.231 189.48 421.384 187.81 421.084C186.141 420.783 184.582 420.04 183.298 418.931L179.907 416.025C179.778 415.906 179.609 415.84 179.433 415.839Z" fill="#181818"/>
<path d="M174.975 430.019C174.679 430.017 174.391 429.922 174.153 429.747C173.914 429.572 173.737 429.325 173.647 429.044C172.161 424.326 169.931 420.937 169.216 420.937C167.646 421.206 166.494 424.373 166.178 425.868C166.103 426.23 165.887 426.547 165.578 426.75C165.269 426.953 164.892 427.025 164.53 426.95C164.168 426.875 163.85 426.659 163.647 426.35C163.444 426.04 163.372 425.663 163.448 425.301C163.587 424.642 164.897 418.866 168.733 418.189C172.569 417.511 175.328 424.967 176.341 428.199C176.395 428.374 176.414 428.559 176.397 428.742C176.379 428.925 176.326 429.103 176.24 429.265C176.153 429.427 176.036 429.571 175.894 429.687C175.751 429.804 175.588 429.891 175.412 429.944C175.271 429.994 175.124 430.019 174.975 430.019Z" fill="#181818"/>
<path d="M164.256 431.235C163.965 431.238 163.681 431.15 163.442 430.984C163.204 430.817 163.024 430.581 162.927 430.307C161.441 425.589 159.212 422.2 158.496 422.2C156.927 422.469 155.766 425.636 155.459 427.131C155.384 427.493 155.168 427.81 154.859 428.013C154.55 428.216 154.172 428.288 153.81 428.213C153.448 428.138 153.131 427.922 152.928 427.613C152.725 427.303 152.653 426.926 152.728 426.564C152.867 425.905 154.168 420.129 158.013 419.452C161.859 418.774 164.609 426.23 165.621 429.462C165.675 429.637 165.695 429.822 165.677 430.005C165.66 430.188 165.607 430.366 165.52 430.528C165.434 430.69 165.316 430.834 165.174 430.95C165.032 431.067 164.868 431.154 164.692 431.207C164.549 431.241 164.402 431.25 164.256 431.235Z" fill="#181818"/>
<path d="M136.417 442.462H183.567V443.028C183.567 445.156 182.722 447.197 181.216 448.701C179.711 450.206 177.67 451.051 175.542 451.051H144.442C142.314 451.051 140.272 450.206 138.767 448.701C137.262 447.197 136.417 445.156 136.417 443.028V442.462Z" fill="#181818"/>
<path d="M183.567 442.23H212.585V442.796C212.585 444.924 211.74 446.965 210.235 448.469C208.73 449.974 206.688 450.819 204.56 450.819H191.555C189.427 450.819 187.386 449.974 185.88 448.469C184.375 446.965 183.53 444.924 183.53 442.796V442.23H183.567Z" fill="#181818"/>
<path d="M372.482 111.525L355.431 105.091C350.795 103.342 345.617 105.681 343.867 110.316L324.697 161.085C322.947 165.72 325.287 170.895 329.923 172.645L346.974 179.079C351.61 180.828 356.787 178.489 358.537 173.855L377.708 123.085C379.458 118.45 377.118 113.275 372.482 111.525Z" fill="#181818"/>
<path d="M358.634 179.275C358.952 177.084 359.532 174.939 360.361 172.887C360.436 172.692 367.597 155.736 369.585 150.007C369.985 148.837 370.3 146.738 369.511 145.735C369.019 145.122 368.034 144.89 366.576 145.039C364.569 145.262 360.556 151.994 357.993 158.104C357.888 158.358 357.711 158.576 357.483 158.73C357.254 158.883 356.986 158.966 356.711 158.967C356.435 158.965 356.165 158.882 355.936 158.729C355.706 158.576 355.527 158.358 355.42 158.104L341.654 124.796C341.463 124.357 341.183 123.962 340.832 123.638C340.48 123.313 340.065 123.065 339.612 122.909C339.159 122.754 338.679 122.694 338.202 122.734C337.725 122.775 337.262 122.914 336.842 123.143C333.934 124.471 334.185 126.671 334.427 127.554C336.285 134.332 343.316 151.288 343.381 151.464C343.501 151.743 343.526 152.054 343.452 152.348C343.378 152.643 343.209 152.905 342.971 153.094C342.734 153.283 342.441 153.388 342.137 153.394C341.833 153.4 341.536 153.306 341.291 153.127L331.074 145.847C330.741 145.587 330.36 145.398 329.952 145.29C329.545 145.183 329.12 145.159 328.703 145.221C328.286 145.283 327.886 145.428 327.527 145.649C327.168 145.87 326.858 146.161 326.615 146.506C324.869 148.864 326.336 150.313 326.401 150.378L329.727 153.219H329.782L335.439 158.067C335.578 158.186 335.693 158.331 335.776 158.494C335.859 158.657 335.909 158.834 335.923 159.017C335.937 159.199 335.915 159.383 335.859 159.557C335.802 159.73 335.711 159.892 335.593 160.031C335.474 160.17 335.328 160.284 335.165 160.367C335.002 160.45 334.824 160.5 334.642 160.514C334.46 160.528 334.276 160.506 334.102 160.45C333.928 160.393 333.767 160.303 333.628 160.184L328.055 155.429C327.423 155.104 324.627 153.814 322.974 156.182C322.527 156.686 322.286 157.34 322.298 158.014C322.31 158.688 322.574 159.333 323.039 159.822L326.94 163.22C326.975 163.24 327.006 163.265 327.033 163.294L330.563 166.368C330.842 166.614 331.013 166.962 331.036 167.333C331.06 167.705 330.934 168.071 330.688 168.351C330.442 168.63 330.094 168.8 329.722 168.824C329.35 168.847 328.984 168.722 328.705 168.476L325.166 165.384C324.497 164.818 323.633 164.538 322.76 164.604C322.01 164.667 321.316 165.024 320.828 165.597C320.741 165.709 320.658 165.83 320.577 165.96C319.212 167.947 321.85 170.203 321.877 170.231L329.114 176.462C329.27 176.596 329.394 176.762 329.478 176.95C329.561 177.138 329.602 177.343 329.597 177.548L329.42 184.633L357.621 186.147C357.918 184.327 358.234 182.08 358.634 179.275Z" fill="white"/>
<path d="M362.934 173.945C363.232 173.249 370.198 156.739 372.223 150.917C372.474 150.192 373.635 146.441 371.694 144.008C370.57 142.587 368.749 142.002 366.288 142.272C362.711 142.652 358.903 149.515 356.767 154.037L344.217 123.682C343.872 122.909 343.375 122.214 342.755 121.638C342.134 121.062 341.404 120.618 340.608 120.331C339.812 120.044 338.966 119.92 338.121 119.968C337.276 120.016 336.449 120.233 335.69 120.608C331.724 122.465 331.046 125.771 331.752 128.287C333.071 133.088 336.749 142.476 338.997 148.066L332.708 143.581C331.036 142.402 327.135 141.148 324.404 144.844C322.026 148.057 323.169 150.88 324.311 152.18C322.848 152.495 321.567 153.372 320.744 154.622C319.919 155.682 319.509 157.007 319.593 158.348C319.677 159.689 320.248 160.953 321.199 161.902L321.422 162.097C320.375 162.41 319.446 163.031 318.756 163.88C318.614 164.055 318.48 164.238 318.357 164.428C316.137 167.668 318.571 171.058 320.15 172.385L326.875 178.18L326.717 184.531L328.11 184.605L328.287 177.548L321.06 171.336C321.06 171.336 317.419 168.263 319.509 165.208C319.61 165.054 319.718 164.905 319.834 164.762C320.224 164.317 320.698 163.955 321.228 163.695C321.759 163.435 322.336 163.282 322.927 163.247C323.517 163.212 324.108 163.294 324.666 163.488C325.224 163.683 325.738 163.986 326.178 164.381L322.119 160.853C321.428 160.129 321.023 159.18 320.98 158.18C320.938 157.181 321.26 156.2 321.887 155.42C324.46 151.706 328.9 154.315 328.9 154.315L334.566 159.163L325.463 151.381C325.463 151.381 323.029 149.041 325.528 145.68C328.185 142.095 331.91 144.751 331.91 144.751L342.127 152.031C342.127 152.031 335.021 134.899 333.108 127.962C332.653 126.291 332.829 123.496 336.285 121.917C340.929 119.809 342.963 124.304 342.963 124.304L356.692 157.575C356.692 157.575 362.331 144.092 366.408 143.646C372.521 142.987 371.545 148.53 370.876 150.452C368.851 156.293 361.588 173.398 361.588 173.398C360.799 175.345 360.25 177.381 359.953 179.461C359.683 181.318 359.321 183.835 359.024 186.212L360.426 186.286L361.355 179.656C361.655 177.697 362.185 175.78 362.934 173.945Z" fill="#181818"/>
<path d="M326.178 164.391V164.381L329.708 167.464L326.178 164.391Z" fill="#181818"/>
<path d="M329.68 177.585C329.686 177.38 329.645 177.175 329.561 176.987C329.478 176.8 329.354 176.633 329.197 176.499L321.961 170.268C321.961 170.268 319.295 167.984 320.661 165.997C320.747 165.867 320.831 165.746 320.912 165.634C321.399 165.061 322.094 164.704 322.844 164.641C323.717 164.575 324.581 164.855 325.25 165.421L328.789 168.513C329.068 168.759 329.434 168.884 329.806 168.861C330.178 168.837 330.525 168.667 330.772 168.388C331.018 168.108 331.143 167.742 331.12 167.37C331.096 166.999 330.926 166.651 330.646 166.405L327.117 163.332C327.09 163.302 327.059 163.277 327.024 163.257L323.122 159.859C322.658 159.37 322.393 158.725 322.381 158.051C322.369 157.377 322.61 156.723 323.057 156.219C324.711 153.851 327.507 155.142 328.138 155.467L333.712 160.221C333.851 160.34 334.012 160.43 334.186 160.487C334.36 160.543 334.543 160.565 334.726 160.551C334.908 160.537 335.086 160.487 335.249 160.404C335.412 160.321 335.557 160.207 335.676 160.068C335.795 159.929 335.886 159.768 335.942 159.594C335.999 159.42 336.021 159.236 336.007 159.054C335.992 158.872 335.942 158.694 335.859 158.531C335.776 158.368 335.662 158.223 335.523 158.104L329.866 153.257H329.81L326.485 150.415C326.42 150.35 324.952 148.902 326.699 146.543C326.941 146.199 327.252 145.907 327.611 145.686C327.97 145.465 328.37 145.32 328.787 145.258C329.203 145.196 329.629 145.22 330.036 145.328C330.444 145.435 330.825 145.624 331.157 145.884L341.375 153.164C341.62 153.343 341.917 153.437 342.221 153.431C342.524 153.425 342.818 153.32 343.055 153.131C343.293 152.942 343.462 152.68 343.536 152.385C343.61 152.091 343.585 151.78 343.465 151.502C343.316 151.288 336.257 134.295 334.399 127.554C334.158 126.625 333.907 124.471 336.814 123.143C337.234 122.914 337.698 122.775 338.175 122.734C338.652 122.694 339.132 122.754 339.584 122.909C340.037 123.065 340.452 123.313 340.804 123.637C341.155 123.962 341.435 124.357 341.626 124.796L355.392 158.104C355.499 158.358 355.679 158.575 355.908 158.729C356.138 158.882 356.407 158.965 356.683 158.967C356.958 158.966 357.227 158.883 357.455 158.729C357.683 158.576 357.86 158.358 357.965 158.104C360.529 151.994 364.542 145.262 366.548 145.039C368.006 144.89 368.991 145.122 369.483 145.735C370.273 146.738 369.957 148.837 369.558 150.007C367.57 155.736 360.408 172.692 360.334 172.887C359.504 174.939 358.924 177.084 358.606 179.275C358.206 182.061 357.891 184.327 357.677 186.147L359.07 186.221C359.405 183.844 359.767 181.355 359.999 179.47C360.296 177.39 360.845 175.354 361.634 173.407C361.634 173.407 368.852 156.302 370.923 150.462C371.592 148.539 372.567 143.033 366.455 143.655C362.377 144.091 356.739 157.584 356.739 157.584L342.936 124.266C342.936 124.266 340.864 119.772 336.257 121.88C332.801 123.459 332.625 126.254 333.08 127.925C334.994 134.861 342.1 151.994 342.1 151.994L331.882 144.714C331.882 144.714 328.166 142.095 325.5 145.642C323.002 149.004 325.435 151.344 325.435 151.344L334.538 159.125L328.872 154.278C328.872 154.278 324.432 151.697 321.859 155.383C321.232 156.162 320.91 157.143 320.952 158.143C320.995 159.142 321.4 160.092 322.091 160.815L326.151 164.344L329.68 167.427L326.151 164.344C325.711 163.949 325.197 163.646 324.638 163.451C324.08 163.256 323.489 163.174 322.899 163.21C322.309 163.245 321.732 163.397 321.201 163.657C320.67 163.917 320.196 164.28 319.806 164.724C319.69 164.867 319.582 165.016 319.481 165.17C317.391 168.225 321.032 171.299 321.032 171.299L328.259 177.511L328.083 184.568L329.476 184.633L329.68 177.585Z" fill="#181818"/>
<path d="M322.853 184.327C321.953 184.278 321.067 184.563 320.365 185.127C319.662 185.69 319.192 186.493 319.045 187.382L316.75 200.93L311.288 188.905V188.812C300.411 168.699 292.58 160.5 276.39 152.254C264.101 145.986 254.217 142.81 244.334 141.965C243.964 141.933 243.597 142.049 243.313 142.288C243.029 142.526 242.852 142.868 242.82 143.237C242.788 143.607 242.904 143.974 243.143 144.258C243.381 144.541 243.723 144.719 244.092 144.751C253.604 145.568 263.172 148.642 275.127 154.742C290.918 162.775 298.135 170.38 308.817 190.103L315.97 205.888L311.27 233.978C311.24 234.161 311.246 234.348 311.289 234.528C311.331 234.709 311.409 234.879 311.517 235.029C311.625 235.18 311.762 235.307 311.92 235.405C312.077 235.503 312.253 235.568 312.436 235.598C312.618 235.628 312.806 235.622 312.986 235.579C313.167 235.537 313.337 235.459 313.487 235.351C313.638 235.243 313.766 235.106 313.863 234.948C313.961 234.791 314.027 234.616 314.056 234.433L318.023 210.438L318.849 205.517L321.794 187.874C321.839 187.663 321.957 187.474 322.126 187.34C322.296 187.206 322.507 187.136 322.723 187.14L326.661 187.345L326.726 184.559L322.853 184.327Z" fill="#181818"/>
<path d="M365.527 189.35C365.658 189.36 365.785 189.398 365.9 189.46C366.015 189.522 366.116 189.608 366.196 189.713C366.274 189.818 366.327 189.939 366.351 190.068C366.375 190.197 366.37 190.329 366.335 190.455L348.9 258.084C347.451 263.713 344.17 268.7 339.574 272.261C334.978 275.822 329.328 277.753 323.513 277.751C313.11 277.751 305.01 273.656 299.483 265.679L283.478 239.224C283.313 238.954 283.06 238.748 282.762 238.641C282.463 238.534 282.138 238.531 281.838 238.634C281.538 238.737 281.282 238.939 281.113 239.206C280.943 239.474 280.87 239.792 280.905 240.106L286.005 284.548L157.344 285.969L160.27 239.438C160.294 239.068 160.169 238.705 159.925 238.427C159.803 238.29 159.656 238.177 159.492 238.097C159.327 238.016 159.148 237.968 158.965 237.957C158.596 237.933 158.232 238.058 157.954 238.302C157.676 238.547 157.507 238.892 157.484 239.261L154.455 287.287C154.446 287.479 154.475 287.67 154.54 287.85C154.605 288.031 154.706 288.196 154.836 288.337C154.967 288.474 155.124 288.583 155.298 288.659C155.472 288.734 155.659 288.772 155.849 288.773L287.547 287.315C287.742 287.312 287.935 287.269 288.112 287.187C288.29 287.106 288.448 286.988 288.578 286.842C288.705 286.695 288.801 286.524 288.861 286.338C288.92 286.153 288.94 285.958 288.921 285.764L284.37 246.114L297.123 267.128C303.236 276.005 312.106 280.499 323.485 280.499C329.919 280.499 336.17 278.36 341.255 274.42C346.34 270.48 349.97 264.962 351.575 258.734L369.01 191.115C369.137 190.589 369.148 190.042 369.041 189.511C368.935 188.981 368.714 188.48 368.393 188.044C368.073 187.608 367.661 187.248 367.187 186.987C366.713 186.727 366.187 186.573 365.648 186.537L360.427 186.258C360.279 187.28 360.149 188.199 360.037 189.044L365.527 189.35Z" fill="#181818"/>
<path d="M329.504 184.67L329.439 187.456L357.305 188.923C357.417 188.134 357.547 187.215 357.695 186.138L329.504 184.67Z" fill="#181818"/>
<path d="M358.661 188.997L360.064 189.062C360.175 188.236 360.306 187.317 360.454 186.277L359.052 186.202C358.921 187.224 358.791 188.152 358.661 188.997Z" fill="#181818"/>
<path d="M328.11 184.606L326.717 184.531L326.652 187.317L328.045 187.391L328.11 184.606Z" fill="#181818"/>
<path d="M329.438 187.456L329.503 184.67L328.11 184.605L328.045 187.391L329.438 187.456Z" fill="#181818"/>
<path d="M357.268 188.923L358.661 188.998C358.791 188.116 358.922 187.187 359.052 186.212L357.658 186.138C357.51 187.224 357.38 188.153 357.268 188.923Z" fill="#181818"/>
<path d="M155.802 95.5558L107.036 105.844L98.49 113.496C98.2084 113.749 97.8651 113.923 97.4948 114.001C97.1245 114.078 96.7402 114.058 96.3805 113.94C96.0209 113.822 95.6985 113.612 95.4459 113.33C95.1934 113.049 95.0194 112.705 94.9417 112.335L81.5378 49.322C80.1352 42.7105 84.0087 36.3219 90.1765 34.9848L140.671 24.3061C146.839 23.0061 152.969 27.3147 154.363 33.9262L164.441 81.2185C165.834 87.8393 161.97 94.2557 155.802 95.5558Z" fill="white"/>
<path d="M97.1247 115.524C96.7431 115.525 96.3637 115.466 96.0008 115.348C95.4058 115.158 94.8724 114.812 94.4559 114.347C94.0394 113.882 93.755 113.313 93.6321 112.701L80.2283 49.651C78.677 42.2967 83.0149 35.1281 89.9444 33.6702L140.439 23.0195C142.115 22.6728 143.845 22.6779 145.519 23.0343C147.193 23.3908 148.775 24.0908 150.164 25.0902C153.067 27.1503 155.077 30.238 155.784 33.7259L165.863 80.9719C166.63 84.463 166.039 88.1153 164.209 91.1862C163.342 92.6622 162.178 93.942 160.79 94.9442C159.402 95.9465 157.821 96.6494 156.146 97.0084L107.742 107.223L99.4748 114.651C98.8252 115.221 97.9887 115.531 97.1247 115.524ZM142.947 25.5452C142.297 25.5442 141.65 25.6127 141.015 25.7495L90.5203 36.4002C85.1142 37.5424 81.7238 43.2345 82.9592 49.0846L96.3538 112.135C96.3793 112.268 96.4398 112.392 96.5293 112.494C96.6188 112.596 96.7338 112.672 96.8626 112.715C96.9914 112.757 97.1293 112.765 97.2619 112.736C97.3945 112.708 97.5171 112.644 97.6171 112.553L106.441 104.641L155.57 94.2784C156.869 93.9987 158.095 93.4523 159.171 92.6738C160.248 91.8954 161.15 90.9018 161.822 89.7562C163.279 87.3004 163.748 84.3823 163.132 81.594L153.053 34.3016C152.499 31.4988 150.89 29.0157 148.557 27.3652C146.921 26.1914 144.961 25.5554 142.947 25.5452Z" fill="#181818"/>
<path d="M112.2 94.4361C111.158 94.4372 110.147 94.0798 109.336 93.4237C108.526 92.7677 107.966 91.853 107.751 90.8332L103.234 70.4926L143.78 61.9404L148.297 82.2346C148.426 82.8206 148.437 83.4261 148.331 84.0165C148.225 84.607 148.003 85.1706 147.679 85.6753C147.354 86.1799 146.933 86.6156 146.44 86.9573C145.947 87.299 145.391 87.5401 144.805 87.6667L113.139 94.3896C112.828 94.4368 112.514 94.4523 112.2 94.4361ZM106.596 72.6562L110.463 90.2482C110.564 90.7053 110.841 91.1043 111.234 91.3583C111.627 91.6122 112.105 91.7005 112.563 91.6039L144.21 84.9274C144.436 84.8799 144.65 84.7885 144.84 84.6582C145.031 84.528 145.193 84.3615 145.319 84.1683C145.445 83.9752 145.532 83.7591 145.574 83.5324C145.617 83.3058 145.614 83.073 145.566 82.8474L141.69 65.2183L106.596 72.6562Z" fill="#181818"/>
<path d="M103.215 69.5457L100.429 66.1472C99.6639 65.2171 99.2982 64.0224 99.4113 62.8238C99.5244 61.6252 100.107 60.5199 101.032 59.7493L125.945 39.1813C126.875 38.4145 128.07 38.0474 129.27 38.1605C130.47 38.2737 131.576 38.8578 132.345 39.7849L135.132 43.1742L103.215 69.5457ZM102.797 61.8943C102.437 62.1915 102.209 62.6193 102.164 63.084C102.119 63.5488 102.26 64.0125 102.556 64.3736L103.587 65.6179L131.268 42.7749L130.237 41.5306C130.09 41.3519 129.908 41.2041 129.704 41.0956C129.499 40.9872 129.275 40.9202 129.045 40.8987C128.814 40.8771 128.582 40.9013 128.361 40.9699C128.14 41.0385 127.934 41.1502 127.757 41.2985L102.797 61.8943Z" fill="#181818"/>
<path d="M114.046 51.5313C113.932 51.5442 113.817 51.5442 113.703 51.5313C113.52 51.4872 113.348 51.4067 113.198 51.2945C113.047 51.1824 112.921 51.041 112.826 50.8788C112.731 50.7166 112.671 50.537 112.647 50.3507C112.624 50.1644 112.638 49.9754 112.69 49.7948C112.917 48.5629 112.879 47.2967 112.579 46.0805C112.216 43.8891 111.761 41.1498 114.529 38.8469C115.091 38.3172 115.757 37.91 116.485 37.6512C117.212 37.3924 117.986 37.2876 118.756 37.3435C119.527 37.3993 120.277 37.6147 120.96 37.9758C121.642 38.3369 122.242 38.8359 122.722 39.4412C123.268 40.1033 123.629 40.8975 123.769 41.7436C123.909 42.5898 123.824 43.458 123.521 44.2605C123.449 44.4288 123.344 44.5813 123.214 44.7092C123.083 44.8371 122.928 44.9381 122.758 45.0062C122.588 45.0743 122.406 45.1083 122.223 45.1062C122.04 45.1041 121.859 45.066 121.691 44.9941C121.523 44.9222 121.37 44.8178 121.242 44.6869C121.114 44.556 121.013 44.4012 120.945 44.2314C120.877 44.0615 120.843 43.8799 120.845 43.6969C120.847 43.5139 120.885 43.3331 120.957 43.1648C121.056 42.8347 121.072 42.4856 121.006 42.1475C120.94 41.8094 120.792 41.4925 120.576 41.2241C119.192 39.6176 117.474 40.1098 116.313 41.0384C114.836 42.2641 114.947 43.4062 115.328 45.6812C115.696 47.2612 115.718 48.902 115.393 50.4913C115.315 50.789 115.141 51.0526 114.897 51.2407C114.653 51.4289 114.354 51.5311 114.046 51.5313Z" fill="#181818"/>
<path d="M105.686 58.4862C104.977 58.4702 104.28 58.3047 103.64 58.0007C102.999 57.6966 102.431 57.2609 101.97 56.7219C101.465 56.1391 101.086 55.4577 100.858 54.7209C100.629 53.9841 100.556 53.2079 100.644 52.4415C100.731 51.6751 100.977 50.9352 101.365 50.2686C101.753 49.602 102.276 49.0232 102.899 48.569C105.686 46.2661 108.278 47.204 110.33 47.9654C111.46 48.4763 112.685 48.7421 113.925 48.7454C114.295 48.722 114.658 48.8463 114.936 49.091C115.214 49.3357 115.383 49.6807 115.407 50.0501C115.43 50.4195 115.306 50.7831 115.061 51.0608C114.816 51.3386 114.471 51.5078 114.102 51.5312C112.481 51.5531 110.874 51.2369 109.383 50.6026C107.219 49.8226 106.123 49.4976 104.636 50.7233C103.475 51.6519 102.723 53.314 104.098 54.9669C104.326 55.2277 104.615 55.4296 104.938 55.5556C105.261 55.6817 105.61 55.7282 105.955 55.6912C106.316 55.6099 106.695 55.6753 107.007 55.8729C107.32 56.0706 107.541 56.3843 107.623 56.7451C107.704 57.1059 107.639 57.4842 107.441 57.7968C107.243 58.1094 106.929 58.3306 106.568 58.4119C106.278 58.468 105.982 58.4929 105.686 58.4862Z" fill="#181818"/>
<path d="M139.256 44.2695C139.182 44.5202 139.117 44.706 139.08 44.901C138.842 46.0108 138.444 47.0804 137.9 48.0767C137.416 49.0347 136.789 49.9143 136.043 50.686C135.485 51.2338 134.881 51.726 134.287 52.2367C134.194 52.3203 134.055 52.3574 133.962 52.441C133.924 52.4731 133.894 52.5129 133.873 52.5578C133.852 52.6027 133.841 52.6515 133.841 52.701C133.841 52.766 133.971 52.8496 134.045 52.8496C136.156 53.2054 138.134 54.1155 139.777 55.4867C140.622 56.1999 141.377 57.0138 142.025 57.9103L142.257 58.1703C142.333 57.9517 142.395 57.7284 142.443 57.5017C142.68 56.376 143.088 55.2927 143.65 54.2889C144.136 53.3622 144.763 52.5164 145.508 51.7817C146.075 51.2246 146.697 50.7138 147.291 50.1938C147.394 50.101 147.533 50.0638 147.635 49.971C147.673 49.9438 147.703 49.9073 147.723 49.865C147.742 49.8227 147.75 49.776 147.747 49.7296C147.727 49.6937 147.701 49.662 147.669 49.6365C147.637 49.611 147.6 49.5921 147.561 49.581C146.237 49.3825 144.96 48.9485 143.789 48.2996C142.675 47.7172 141.67 46.9477 140.817 46.0245C140.362 45.5231 139.953 44.9938 139.526 44.4831L139.256 44.2695Z" fill="#181818"/>
<path d="M128.621 64.0392C128.551 63.9816 128.489 63.9162 128.435 63.8442C127.952 63.0734 127.506 62.3027 127.014 61.532L126.596 60.8356C126.551 60.7317 126.48 60.6407 126.391 60.5709C126.302 60.5012 126.197 60.4549 126.085 60.4363L124.859 60.2506L123.456 60.0277L122.602 59.907C122.515 59.8712 122.434 59.8244 122.36 59.7677C122.416 59.6934 122.453 59.5913 122.527 59.5541C122.927 59.2848 123.345 59.0341 123.744 58.7741L124.859 58.0591L125.49 57.6784C125.574 57.6256 125.645 57.5549 125.698 57.4714C125.751 57.3879 125.785 57.2937 125.797 57.1956L125.964 55.9605L126.243 53.9734C126.243 53.8527 126.243 53.7227 126.243 53.602C126.243 53.4813 126.317 53.4348 126.373 53.4255C126.411 53.4294 126.448 53.4423 126.48 53.4633C126.513 53.4843 126.54 53.5128 126.559 53.5463L128.017 55.8955L128.444 56.6106C128.492 56.7127 128.565 56.8011 128.655 56.8677C128.746 56.9343 128.853 56.9768 128.965 56.9913C129.587 57.0748 130.209 57.1677 130.822 57.2698L132.151 57.4834C132.262 57.4834 132.392 57.4834 132.494 57.4834C132.596 57.4834 132.661 57.5577 132.671 57.6134C132.668 57.6499 132.658 57.6855 132.64 57.7176C132.623 57.7497 132.598 57.7775 132.569 57.7991C131.64 58.4027 130.711 58.9784 129.782 59.5634L129.652 59.6284C129.508 59.6943 129.386 59.8002 129.3 59.9336C129.214 60.0669 129.169 60.2221 129.169 60.3806C129.169 60.8541 129.039 61.3091 128.983 61.7827C128.927 62.2563 128.862 62.6463 128.797 63.092C128.797 63.3334 128.751 63.5842 128.704 63.8349C128.742 63.872 128.686 63.937 128.621 64.0392Z" fill="#181818"/>
<rect x="118.671" y="49.8279" width="6.03833" height="6.55762" transform="rotate(49.9628 118.671 49.8279)" fill="#181818"/>
<rect x="128.324" y="67.6428" width="21.9667" height="6.55762" transform="rotate(78.1089 128.324 67.6428)" fill="#181818"/>
</svg>
