<svg width="90" height="90" viewBox="0 0 90 90" fill="none" xmlns="http://www.w3.org/2000/svg">
<path d="M60.2124 29.8088L1 89M68.2413 21.7829L64.4513 25.7959M40.1404 58.9028H59.2088L79.2809 38.838C87.1686 30.9055 93.1902 12.6603 85.3025 4.72783C77.4147 -3.20466 59.0678 2.81468 51.18 10.7472M51.18 10.7472L45.1584 16.7667V35.8282M51.18 10.7472V19.7763M14.0468 47.8671L5.03707 56.8963V84.987H33.1152L54.1908 63.919M40.1404 21.7829L19.0648 42.8509V61.9125M27.0936 47.8671V34.825M27.0936 55.8931V51.8801M51.18 27.8023V23.7893M56.198 52.8834L65.2305 52.888M48.1692 52.888L52.1836 52.8834" stroke="#66636C" stroke-width="2" stroke-miterlimit="10"/>
</svg>
