<svg width="98" height="90" viewBox="0 0 98 90" fill="none" xmlns="http://www.w3.org/2000/svg">
<path d="M60.8675 26.8785C68.0539 30.4008 73.0239 37.7113 73.0239 46.2181M51.2633 24.6853C52.5394 24.6853 53.8155 24.8182 55.0916 25.0176M75 61L79 65L69 75L65 71M10.4959 48.4113C8.27956 50.6045 4.71997 50.6709 2.57078 48.5442C0.421599 46.4175 0.488761 42.8952 2.70511 40.702C4.92146 38.5089 8.48105 38.4424 10.6302 40.5691C11.5033 41.4331 12.0406 42.5629 12.175 43.7592M16.0032 6.01021C18.1524 8.13691 18.0852 11.6593 15.8689 13.8524C13.6525 16.0456 10.0929 16.112 7.94375 13.9853C5.79456 11.8586 5.86173 8.33629 8.07807 6.14313C8.61537 5.61145 9.28701 5.14627 9.95863 4.88043M62.8153 10.3966C60.5989 12.5897 57.0393 12.6562 54.8901 10.5295C52.7409 8.40277 52.8081 4.88043 55.0245 2.68727C57.2408 0.49411 60.8004 0.42765 62.9496 2.55435C63.957 3.55124 64.4943 4.81397 64.4943 6.0767M96.1148 30.6905C97.2951 31.8584 97.2951 33.752 96.1148 34.9199C94.9345 36.0878 93.021 36.0878 91.8407 34.9199C90.6604 33.752 90.6604 31.8584 91.8407 30.6905C93.021 29.5226 94.9345 29.5226 96.1148 30.6905ZM61.4362 83.8947C62.6164 85.0626 62.6164 86.9561 61.4362 88.1241C60.2559 89.292 58.3423 89.292 57.162 88.1241C55.9818 86.9561 55.9818 85.0626 57.162 83.8947C58.3423 82.7267 60.2559 82.7267 61.4362 83.8947ZM21.5777 68.6814C21.5777 70.3331 20.2246 71.6721 18.5554 71.6721C16.8863 71.6721 15.5331 70.3331 15.5331 68.6814C15.5331 67.0297 16.8863 65.6907 18.5554 65.6907C20.2246 65.6907 21.5777 67.0297 21.5777 68.6814ZM18.8912 33.1257C18.8912 34.7774 17.5381 36.1163 15.869 36.1163C14.1998 36.1163 12.8467 34.7774 12.8467 33.1257C12.8467 31.474 14.1998 30.135 15.869 30.135C17.5381 30.135 18.8912 31.474 18.8912 33.1257ZM92 82L86 88.1241L71 73L77 67L92 82ZM32.9281 5.21273C32.9281 6.86443 31.5749 8.2034 29.9058 8.2034C28.2366 8.2034 26.8835 6.86443 26.8835 5.21273C26.8835 3.56103 28.2366 2.22206 29.9058 2.22206C31.5749 2.22206 32.9281 3.56103 32.9281 5.21273ZM70.799 27.201C81.7337 38.1357 81.7337 55.8643 70.799 66.799C59.8643 77.7337 42.1357 77.7337 31.201 66.799C20.2663 55.8643 20.2663 38.1357 31.201 27.201C42.1357 16.2663 59.8643 16.2663 70.799 27.201ZM61 47C61 52.5228 56.5229 57 51 57C45.4772 57 41 52.5228 41 47C41 41.4772 45.4772 37 51 37C56.5229 37 61 41.4772 61 47Z" stroke="#66636C" stroke-width="2" stroke-miterlimit="10"/>
</svg>
