<svg width="96" height="75" viewBox="0 0 96 75" fill="none" xmlns="http://www.w3.org/2000/svg">
<path d="M83 51H84V50H83V51ZM83 57V58H84V57H83ZM7 57H6V58H7V57ZM7 51V50H6V51H7ZM90.162 38.6944L90.2727 39.6883L90.2769 39.6878L90.162 38.6944ZM92.3394 35.2926L91.3896 35.6055L91.3905 35.6082L92.3394 35.2926ZM85 13.0103L85.9498 12.6974L85 12.0103V13.0103ZM79 21H80L79 20V21ZM54.8744 21V20L54.74 20.0091L54.8744 21ZM31 39L30.1315 38.5044L31 40V39ZM64 39V40L64.9215 39.3884L64 39ZM79 31L79.1312 31.9914L80 31H79ZM45.0759 33V32L44.0759 33H45.0759ZM57 33H58L57 32V33ZM27 23L26.2929 22.2929L25.6164 22.9694L26.2624 23.6752L27 23ZM31 19L31.6848 18.2713L30.9784 17.6074L30.2929 18.2929L31 19ZM73 7V6L72 7H73ZM81 7H82L81 6V7ZM5.51925 72.6335L6.12576 71.8384L6.12271 71.8361L5.51925 72.6335ZM11.4711 72.6335L12.0637 73.4391L12.0674 73.4363L11.4711 72.6335ZM15.003 70.0103L15.5993 70.8131L15.6095 70.8053L15.003 70.0103ZM20.9549 70.0103L21.5512 69.2075L21.5474 69.2047L20.9549 70.0103ZM24.4868 72.6335L25.0933 71.8384L25.0831 71.8307L24.4868 72.6335ZM30.4387 72.6335L31.0312 73.4391L31.0349 73.4363L30.4387 72.6335ZM33.9706 70.0103L34.5669 70.8131L34.5771 70.8053L33.9706 70.0103ZM39.9224 70.0103L40.5187 69.2075L40.515 69.2047L39.9224 70.0103ZM43.4543 72.6335L44.0609 71.8384L44.0506 71.8307L43.4543 72.6335ZM49.4062 72.6335L49.9988 73.4391L50.0025 73.4363L49.4062 72.6335ZM52.9381 70.0103L53.5344 70.8131L53.5446 70.8053L52.9381 70.0103ZM58.89 70.0103L59.4863 69.2075L59.4825 69.2047L58.89 70.0103ZM62.4219 72.6335L63.0284 71.8384L63.0181 71.8307L62.4219 72.6335ZM68.3738 72.6335L68.9663 73.4391L68.97 73.4363L68.3738 72.6335ZM71.9056 70.0103L72.502 70.8131L72.5121 70.8053L71.9056 70.0103ZM77.8575 70.0103L78.462 69.2136L78.4501 69.2047L77.8575 70.0103ZM81.7818 72.988L82.3909 72.1948L82.3863 72.1914L81.7818 72.988ZM87.1451 73.3425L86.6798 72.4574L86.641 72.4789L87.1451 73.3425ZM29.8045 52H83V50H29.8045V52ZM82 51V57H84V51H82ZM83 56H7V58H83V56ZM8 57V51H6V57H8ZM7 52H18V50H7V52ZM22 52H26V50H22V52ZM73.9986 51.0524C74.1992 47.2331 76.4674 44.6106 79.6491 42.8044C82.8537 40.9852 86.8819 40.0659 90.2727 39.6883L90.0513 37.7006C86.5255 38.0932 82.1968 39.0583 78.6617 41.0652C75.1036 43.085 72.2491 46.2303 72.0014 50.9476L73.9986 51.0524ZM90.2769 39.6878C92.5807 39.4214 93.9982 37.1115 93.2883 34.977L91.3905 35.6082C91.7053 36.5546 91.0734 37.5824 90.0471 37.701L90.2769 39.6878ZM93.2892 34.9798L85.9498 12.6974L84.0502 13.3231L91.3896 35.6055L93.2892 34.9798ZM85 13.0103C85 12.0103 84.9999 12.0103 84.9997 12.0103C84.9996 12.0103 84.9993 12.0103 84.999 12.0103C84.9986 12.0103 84.9982 12.0103 84.9977 12.0103C84.9972 12.0103 84.9966 12.0103 84.9959 12.0103C84.9953 12.0103 84.9945 12.0103 84.9937 12.0103C84.9928 12.0103 84.9919 12.0103 84.9909 12.0103C84.9899 12.0103 84.9888 12.0103 84.9876 12.0103C84.9864 12.0103 84.9851 12.0103 84.9838 12.0103C84.9825 12.0103 84.981 12.0103 84.9795 12.0103C84.978 12.0103 84.9764 12.0103 84.9747 12.0103C84.9731 12.0103 84.9713 12.0103 84.9695 12.0103C84.9676 12.0103 84.9657 12.0103 84.9637 12.0103C84.9617 12.0103 84.9596 12.0103 84.9575 12.0103C84.9553 12.0103 84.953 12.0103 84.9507 12.0103C84.9484 12.0103 84.946 12.0103 84.9435 12.0103C84.941 12.0103 84.9384 12.0103 84.9358 12.0103C84.9331 12.0103 84.9304 12.0103 84.9276 12.0103C84.9247 12.0103 84.9218 12.0103 84.9189 12.0103C84.9159 12.0103 84.9128 12.0103 84.9097 12.0103C84.9066 12.0103 84.9034 12.0103 84.9001 12.0103C84.8968 12.0103 84.8934 12.0103 84.8899 12.0103C84.8865 12.0103 84.8829 12.0103 84.8793 12.0103C84.8757 12.0103 84.872 12.0103 84.8683 12.0103C84.8645 12.0103 84.8606 12.0103 84.8567 12.0103C84.8528 12.0103 84.8488 12.0103 84.8447 12.0103C84.8406 12.0103 84.8364 12.0103 84.8322 12.0103C84.828 12.0103 84.8236 12.0103 84.8193 12.0103C84.8149 12.0103 84.8104 12.0103 84.8058 12.0103C84.8013 12.0103 84.7966 12.0103 84.7919 12.0103C84.7872 12.0103 84.7825 12.0103 84.7776 12.0103C84.7727 12.0103 84.7678 12.0103 84.7628 12.0103C84.7578 12.0103 84.7527 12.0103 84.7475 12.0103C84.7423 12.0103 84.7371 12.0103 84.7318 12.0103C84.7265 12.0103 84.7211 12.0103 84.7156 12.0103C84.7101 12.0103 84.7046 12.0103 84.699 12.0103C84.6933 12.0103 84.6876 12.0103 84.6819 12.0103C84.6761 12.0103 84.6702 12.0103 84.6643 12.0103C84.6584 12.0103 84.6524 12.0103 84.6463 12.0103C84.6403 12.0103 84.6341 12.0103 84.6279 12.0103C84.6217 12.0103 84.6154 12.0103 84.609 12.0103C84.6026 12.0103 84.5962 12.0103 84.5897 12.0103C84.5832 12.0103 84.5766 12.0103 84.5699 12.0103C84.5632 12.0103 84.5565 12.0103 84.5497 12.0103C84.5429 12.0103 84.536 12.0103 84.529 12.0103C84.5221 12.0103 84.515 12.0103 84.5079 12.0103C84.5008 12.0103 84.4936 12.0103 84.4864 12.0103C84.4791 12.0103 84.4718 12.0103 84.4644 12.0103C84.457 12.0103 84.4496 12.0103 84.442 12.0103C84.4345 12.0103 84.4269 12.0103 84.4192 12.0103C84.4115 12.0103 84.4037 12.0103 84.3959 12.0103C84.3881 12.0103 84.3802 12.0103 84.3722 12.0103C84.3643 12.0103 84.3562 12.0103 84.3481 12.0103C84.34 12.0103 84.3318 12.0103 84.3236 12.0103C84.3153 12.0103 84.307 12.0103 84.2986 12.0103C84.2902 12.0103 84.2817 12.0103 84.2732 12.0103C84.2647 12.0103 84.2561 12.0103 84.2474 12.0103C84.2387 12.0103 84.23 12.0103 84.2212 12.0103C84.2124 12.0103 84.2035 12.0103 84.1945 12.0103C84.1856 12.0103 84.1766 12.0103 84.1675 12.0103C84.1584 12.0103 84.1492 12.0103 84.14 12.0103C84.1308 12.0103 84.1215 12.0103 84.1121 12.0103C84.1028 12.0103 84.0933 12.0103 84.0838 12.0103C84.0743 12.0103 84.0648 12.0103 84.0551 12.0103C84.0455 12.0103 84.0358 12.0103 84.026 12.0103C84.0162 12.0103 84.0064 12.0103 83.9965 12.0103C83.9866 12.0103 83.9766 12.0103 83.9666 12.0103C83.9565 12.0103 83.9464 12.0103 83.9362 12.0103C83.9261 12.0103 83.9158 12.0103 83.9055 12.0103C83.8952 12.0103 83.8848 12.0103 83.8744 12.0103C83.864 12.0103 83.8535 12.0103 83.8429 12.0103C83.8323 12.0103 83.8217 12.0103 83.811 12.0103C83.8003 12.0103 83.7895 12.0103 83.7787 12.0103C83.7678 12.0103 83.7569 12.0103 83.746 12.0103C83.735 12.0103 83.724 12.0103 83.7129 12.0103C83.7018 12.0103 83.6906 12.0103 83.6794 12.0103C83.6682 12.0103 83.6569 12.0103 83.6455 12.0103C83.6342 12.0103 83.6227 12.0103 83.6113 12.0103C83.5998 12.0103 83.5882 12.0103 83.5766 12.0103C83.565 12.0103 83.5534 12.0103 83.5416 12.0103C83.5299 12.0103 83.5181 12.0103 83.5062 12.0103C83.4944 12.0103 83.4824 12.0103 83.4704 12.0103C83.4585 12.0103 83.4464 12.0103 83.4343 12.0103C83.4222 12.0103 83.41 12.0103 83.3978 12.0103C83.3855 12.0103 83.3732 12.0103 83.3608 12.0103C83.3485 12.0103 83.3361 12.0103 83.3236 12.0103C83.3111 12.0103 83.2985 12.0103 83.2859 12.0103C83.2733 12.0103 83.2606 12.0103 83.2479 12.0103C83.2352 12.0103 83.2224 12.0103 83.2095 12.0103C83.1967 12.0103 83.1837 12.0103 83.1708 12.0103C83.1578 12.0103 83.1447 12.0103 83.1316 12.0103C83.1185 12.0103 83.1054 12.0103 83.0922 12.0103C83.0789 12.0103 83.0657 12.0103 83.0523 12.0103C83.039 12.0103 83.0256 12.0103 83.0121 12.0103C82.9987 12.0103 82.9852 12.0103 82.9716 12.0103C82.958 12.0103 82.9444 12.0103 82.9307 12.0103C82.917 12.0103 82.9032 12.0103 82.8894 12.0103C82.8756 12.0103 82.8617 12.0103 82.8478 12.0103C82.8338 12.0103 82.8199 12.0103 82.8058 12.0103C82.7918 12.0103 82.7776 12.0103 82.7635 12.0103C82.7493 12.0103 82.7351 12.0103 82.7208 12.0103C82.7065 12.0103 82.6922 12.0103 82.6778 12.0103C82.6634 12.0103 82.649 12.0103 82.6344 12.0103C82.6199 12.0103 82.6054 12.0103 82.5907 12.0103C82.5761 12.0103 82.5614 12.0103 82.5467 12.0103C82.532 12.0103 82.5172 12.0103 82.5023 12.0103C82.4875 12.0103 82.4726 12.0103 82.4576 12.0103C82.4426 12.0103 82.4276 12.0103 82.4125 12.0103C82.3975 12.0103 82.3823 12.0103 82.3672 12.0103C82.352 12.0103 82.3367 12.0103 82.3214 12.0103C82.3061 12.0103 82.2908 12.0103 82.2754 12.0103C82.26 12.0103 82.2445 12.0103 82.229 12.0103C82.2135 12.0103 82.1979 12.0103 82.1823 12.0103C82.1666 12.0103 82.151 12.0103 82.1352 12.0103C82.1195 12.0103 82.1037 12.0103 82.0879 12.0103C82.072 12.0103 82.0561 12.0103 82.0402 12.0103C82.0242 12.0103 82.0082 12.0103 81.9922 12.0103C81.9761 12.0103 81.96 12.0103 81.9439 12.0103C81.9277 12.0103 81.9115 12.0103 81.8952 12.0103C81.8789 12.0103 81.8626 12.0103 81.8462 12.0103C81.8299 12.0103 81.8134 12.0103 81.797 12.0103C81.7805 12.0103 81.764 12.0103 81.7474 12.0103C81.7308 12.0103 81.7142 12.0103 81.6975 12.0103C81.6808 12.0103 81.664 12.0103 81.6473 12.0103C81.6305 12.0103 81.6136 12.0103 81.5967 12.0103C81.5798 12.0103 81.5629 12.0103 81.5459 12.0103C81.5289 12.0103 81.5119 12.0103 81.4948 12.0103C81.4777 12.0103 81.4605 12.0103 81.4433 12.0103C81.4261 12.0103 81.4089 12.0103 81.3916 12.0103C81.3743 12.0103 81.357 12.0103 81.3396 12.0103C81.3222 12.0103 81.3047 12.0103 81.2872 12.0103C81.2697 12.0103 81.2522 12.0103 81.2346 12.0103C81.217 12.0103 81.1994 12.0103 81.1817 12.0103C81.164 12.0103 81.1462 12.0103 81.1285 12.0103C81.1107 12.0103 81.0928 12.0103 81.0749 12.0103C81.0571 12.0103 81.0391 12.0103 81.0211 12.0103C81.0032 12.0103 80.9851 12.0103 80.967 12.0103C80.949 12.0103 80.9308 12.0103 80.9127 12.0103C80.8945 12.0103 80.8763 12.0103 80.858 12.0103C80.8397 12.0103 80.8214 12.0103 80.8031 12.0103C80.7847 12.0103 80.7663 12.0103 80.7478 12.0103C80.7294 12.0103 80.7109 12.0103 80.6923 12.0103C80.6738 12.0103 80.6552 12.0103 80.6365 12.0103C80.6179 12.0103 80.5992 12.0103 80.5805 12.0103C80.5617 12.0103 80.5429 12.0103 80.5241 12.0103C80.5053 12.0103 80.4864 12.0103 80.4675 12.0103C80.4486 12.0103 80.4296 12.0103 80.4106 12.0103C80.3916 12.0103 80.3726 12.0103 80.3535 12.0103C80.3344 12.0103 80.3152 12.0103 80.296 12.0103C80.2769 12.0103 80.2576 12.0103 80.2383 12.0103C80.2191 12.0103 80.1998 12.0103 80.1804 12.0103C80.161 12.0103 80.1416 12.0103 80.1222 12.0103C80.1027 12.0103 80.0832 12.0103 80.0637 12.0103C80.0441 12.0103 80.0246 12.0103 80.0049 12.0103C79.9853 12.0103 79.9656 12.0103 79.9459 12.0103C79.9262 12.0103 79.9065 12.0103 79.8867 12.0103C79.8669 12.0103 79.847 12.0103 79.8272 12.0103C79.8073 12.0103 79.7874 12.0103 79.7674 12.0103C79.7474 12.0103 79.7274 12.0103 79.7074 12.0103C79.6873 12.0103 79.6672 12.0103 79.6471 12.0103C79.627 12.0103 79.6068 12.0103 79.5866 12.0103C79.5664 12.0103 79.5461 12.0103 79.5258 12.0103C79.5055 12.0103 79.4852 12.0103 79.4648 12.0103C79.4444 12.0103 79.424 12.0103 79.4035 12.0103C79.3831 12.0103 79.3626 12.0103 79.342 12.0103C79.3215 12.0103 79.3009 12.0103 79.2803 12.0103C79.2597 12.0103 79.239 12.0103 79.2183 12.0103C79.1976 12.0103 79.1768 12.0103 79.1561 12.0103C79.1353 12.0103 79.1145 12.0103 79.0936 12.0103C79.0728 12.0103 79.0519 12.0103 79.0309 12.0103C79.01 12.0103 78.989 12.0103 78.968 12.0103C78.947 12.0103 78.9259 12.0103 78.9049 12.0103C78.8838 12.0103 78.8626 12.0103 78.8415 12.0103C78.8203 12.0103 78.7991 12.0103 78.7779 12.0103C78.7566 12.0103 78.7353 12.0103 78.714 12.0103C78.6927 12.0103 78.6713 12.0103 78.65 12.0103C78.6286 12.0103 78.6071 12.0103 78.5857 12.0103C78.5642 12.0103 78.5427 12.0103 78.5212 12.0103C78.4996 12.0103 78.4781 12.0103 78.4565 12.0103C78.4348 12.0103 78.4132 12.0103 78.3915 12.0103C78.3698 12.0103 78.3481 12.0103 78.3263 12.0103C78.3046 12.0103 78.2828 12.0103 78.261 12.0103C78.2392 12.0103 78.2173 12.0103 78.1954 12.0103C78.1735 12.0103 78.1516 12.0103 78.1296 12.0103C78.1076 12.0103 78.0856 12.0103 78.0636 12.0103C78.0415 12.0103 78.0195 12.0103 77.9974 12.0103C77.9753 12.0103 77.9531 12.0103 77.931 12.0103C77.9088 12.0103 77.8866 12.0103 77.8643 12.0103C77.8421 12.0103 77.8198 12.0103 77.7975 12.0103C77.7752 12.0103 77.7528 12.0103 77.7305 12.0103C77.7081 12.0103 77.6857 12.0103 77.6632 12.0103C77.6408 12.0103 77.6183 12.0103 77.5958 12.0103C77.5733 12.0103 77.5508 12.0103 77.5282 12.0103C77.5056 12.0103 77.483 12.0103 77.4604 12.0103C77.4377 12.0103 77.4151 12.0103 77.3924 12.0103C77.3697 12.0103 77.3469 12.0103 77.3242 12.0103C77.3014 12.0103 77.2786 12.0103 77.2558 12.0103C77.2329 12.0103 77.2101 12.0103 77.1872 12.0103C77.1643 12.0103 77.1414 12.0103 77.1184 12.0103C77.0955 12.0103 77.0725 12.0103 77.0495 12.0103C77.0265 12.0103 77.0034 12.0103 76.9803 12.0103C76.9573 12.0103 76.9342 12.0103 76.911 12.0103C76.8879 12.0103 76.8647 12.0103 76.8415 12.0103C76.8183 12.0103 76.7951 12.0103 76.7719 12.0103C76.7486 12.0103 76.7253 12.0103 76.702 12.0103C76.6787 12.0103 76.6553 12.0103 76.632 12.0103C76.6086 12.0103 76.5852 12.0103 76.5618 12.0103C76.5383 12.0103 76.5149 12.0103 76.4914 12.0103C76.4679 12.0103 76.4444 12.0103 76.4209 12.0103C76.3973 12.0103 76.3737 12.0103 76.3502 12.0103C76.3266 12.0103 76.3029 12.0103 76.2793 12.0103C76.2556 12.0103 76.2319 12.0103 76.2082 12.0103C76.1845 12.0103 76.1608 12.0103 76.137 12.0103C76.1133 12.0103 76.0895 12.0103 76.0657 12.0103C76.0418 12.0103 76.018 12.0103 75.9941 12.0103C75.9703 12.0103 75.9464 12.0103 75.9224 12.0103C75.8985 12.0103 75.8746 12.0103 75.8506 12.0103C75.8266 12.0103 75.8026 12.0103 75.7786 12.0103C75.7546 12.0103 75.7305 12.0103 75.7065 12.0103C75.6824 12.0103 75.6583 12.0103 75.6342 12.0103C75.61 12.0103 75.5859 12.0103 75.5617 12.0103C75.5375 12.0103 75.5133 12.0103 75.4891 12.0103C75.4649 12.0103 75.4406 12.0103 75.4164 12.0103C75.3921 12.0103 75.3678 12.0103 75.3435 12.0103C75.3191 12.0103 75.2948 12.0103 75.2704 12.0103C75.246 12.0103 75.2216 12.0103 75.1972 12.0103C75.1728 12.0103 75.1484 12.0103 75.1239 12.0103C75.0994 12.0103 75.075 12.0103 75.0505 12.0103C75.0259 12.0103 75.0014 12.0103 74.9769 12.0103C74.9523 12.0103 74.9277 12.0103 74.9031 12.0103C74.8785 12.0103 74.8539 12.0103 74.8293 12.0103C74.8046 12.0103 74.7799 12.0103 74.7553 12.0103C74.7306 12.0103 74.7059 12.0103 74.6811 12.0103C74.6564 12.0103 74.6316 12.0103 74.6069 12.0103C74.5821 12.0103 74.5573 12.0103 74.5325 12.0103C74.5077 12.0103 74.4828 12.0103 74.458 12.0103C74.4331 12.0103 74.4082 12.0103 74.3833 12.0103C74.3584 12.0103 74.3335 12.0103 74.3086 12.0103C74.2836 12.0103 74.2587 12.0103 74.2337 12.0103C74.2087 12.0103 74.1837 12.0103 74.1587 12.0103C74.1337 12.0103 74.1087 12.0103 74.0836 12.0103C74.0585 12.0103 74.0335 12.0103 74.0084 12.0103C73.9833 12.0103 73.9582 12.0103 73.933 12.0103C73.9079 12.0103 73.8827 12.0103 73.8576 12.0103C73.8324 12.0103 73.8072 12.0103 73.782 12.0103C73.7568 12.0103 73.7316 12.0103 73.7063 12.0103C73.6811 12.0103 73.6558 12.0103 73.6305 12.0103C73.6053 12.0103 73.58 12.0103 73.5546 12.0103C73.5293 12.0103 73.504 12.0103 73.4787 12.0103C73.4533 12.0103 73.4279 12.0103 73.4026 12.0103C73.3772 12.0103 73.3518 12.0103 73.3264 12.0103C73.3009 12.0103 73.2755 12.0103 73.2501 12.0103C73.2246 12.0103 73.1992 12.0103 73.1737 12.0103C73.1482 12.0103 73.1227 12.0103 73.0972 12.0103C73.0717 12.0103 73.0461 12.0103 73.0206 12.0103C72.9951 12.0103 72.9695 12.0103 72.9439 12.0103C72.9183 12.0103 72.8928 12.0103 72.8671 12.0103C72.8415 12.0103 72.8159 12.0103 72.7903 12.0103C72.7647 12.0103 72.739 12.0103 72.7133 12.0103C72.6877 12.0103 72.662 12.0103 72.6363 12.0103C72.6106 12.0103 72.5849 12.0103 72.5592 12.0103C72.5335 12.0103 72.5078 12.0103 72.482 12.0103C72.4563 12.0103 72.4305 12.0103 72.4047 12.0103C72.3789 12.0103 72.3532 12.0103 72.3274 12.0103C72.3016 12.0103 72.2757 12.0103 72.2499 12.0103C72.2241 12.0103 72.1983 12.0103 72.1724 12.0103C72.1466 12.0103 72.1207 12.0103 72.0948 12.0103C72.0689 12.0103 72.0431 12.0103 72.0172 12.0103C71.9913 12.0103 71.9653 12.0103 71.9394 12.0103C71.9135 12.0103 71.8876 12.0103 71.8616 12.0103C71.8357 12.0103 71.8097 12.0103 71.7838 12.0103C71.7578 12.0103 71.7318 12.0103 71.7058 12.0103C71.6798 12.0103 71.6538 12.0103 71.6278 12.0103C71.6018 12.0103 71.5758 12.0103 71.5498 12.0103C71.5237 12.0103 71.4977 12.0103 71.4716 12.0103C71.4456 12.0103 71.4195 12.0103 71.3934 12.0103C71.3674 12.0103 71.3413 12.0103 71.3152 12.0103C71.2891 12.0103 71.263 12.0103 71.2369 12.0103C71.2108 12.0103 71.1847 12.0103 71.1585 12.0103C71.1324 12.0103 71.1063 12.0103 71.0801 12.0103C71.054 12.0103 71.0278 12.0103 71.0017 12.0103C70.9755 12.0103 70.9493 12.0103 70.9232 12.0103C70.897 12.0103 70.8708 12.0103 70.8446 12.0103C70.8184 12.0103 70.7922 12.0103 70.766 12.0103C70.7398 12.0103 70.7136 12.0103 70.6873 12.0103C70.6611 12.0103 70.6349 12.0103 70.6087 12.0103C70.5824 12.0103 70.5562 12.0103 70.5299 12.0103C70.5037 12.0103 70.4774 12.0103 70.4511 12.0103C70.4249 12.0103 70.3986 12.0103 70.3723 12.0103C70.346 12.0103 70.3198 12.0103 70.2935 12.0103C70.2672 12.0103 70.2409 12.0103 70.2146 12.0103C70.1883 12.0103 70.162 12.0103 70.1357 12.0103C70.1094 12.0103 70.083 12.0103 70.0567 12.0103C70.0304 12.0103 70.0041 12.0103 69.9777 12.0103C69.9514 12.0103 69.9251 12.0103 69.8987 12.0103C69.8724 12.0103 69.846 12.0103 69.8197 12.0103C69.7933 12.0103 69.767 12.0103 69.7406 12.0103C69.7143 12.0103 69.6879 12.0103 69.6616 12.0103C69.6352 12.0103 69.6088 12.0103 69.5824 12.0103C69.5561 12.0103 69.5297 12.0103 69.5033 12.0103C69.4769 12.0103 69.4506 12.0103 69.4242 12.0103C69.3978 12.0103 69.3714 12.0103 69.345 12.0103C69.3186 12.0103 69.2922 12.0103 69.2658 12.0103C69.2394 12.0103 69.213 12.0103 69.1866 12.0103C69.1602 12.0103 69.1338 12.0103 69.1074 12.0103C69.081 12.0103 69.0546 12.0103 69.0282 12.0103C69.0018 12.0103 68.9754 12.0103 68.949 12.0103C68.9226 12.0103 68.8962 12.0103 68.8698 12.0103C68.8434 12.0103 68.8169 12.0103 68.7905 12.0103C68.7641 12.0103 68.7377 12.0103 68.7113 12.0103C68.6849 12.0103 68.6585 12.0103 68.632 12.0103C68.6056 12.0103 68.5792 12.0103 68.5528 12.0103C68.5264 12.0103 68.5 12.0103 68.4736 12.0103C68.4471 12.0103 68.4207 12.0103 68.3943 12.0103C68.3679 12.0103 68.3415 12.0103 68.3151 12.0103C68.2887 12.0103 68.2623 12.0103 68.2359 12.0103C68.2094 12.0103 68.183 12.0103 68.1566 12.0103C68.1302 12.0103 68.1038 12.0103 68.0774 12.0103C68.051 12.0103 68.0246 12.0103 67.9982 12.0103C67.9718 12.0103 67.9454 12.0103 67.919 12.0103C67.8926 12.0103 67.8663 12.0103 67.8399 12.0103C67.8135 12.0103 67.7871 12.0103 67.7607 12.0103C67.7343 12.0103 67.7079 12.0103 67.6816 12.0103C67.6552 12.0103 67.6288 12.0103 67.6024 12.0103C67.5761 12.0103 67.5497 12.0103 67.5233 12.0103C67.497 12.0103 67.4706 12.0103 67.4443 12.0103C67.4179 12.0103 67.3916 12.0103 67.3652 12.0103C67.3389 12.0103 67.3125 12.0103 67.2862 12.0103C67.2598 12.0103 67.2335 12.0103 67.2072 12.0103C67.1809 12.0103 67.1545 12.0103 67.1282 12.0103C67.1019 12.0103 67.0756 12.0103 67.0493 12.0103C67.023 12.0103 66.9967 12.0103 66.9704 12.0103C66.9441 12.0103 66.9178 12.0103 66.8915 12.0103C66.8652 12.0103 66.8389 12.0103 66.8127 12.0103C66.7864 12.0103 66.7601 12.0103 66.7339 12.0103C66.7076 12.0103 66.6813 12.0103 66.6551 12.0103C66.6288 12.0103 66.6026 12.0103 66.5764 12.0103C66.5501 12.0103 66.5239 12.0103 66.4977 12.0103C66.4715 12.0103 66.4453 12.0103 66.4191 12.0103C66.3929 12.0103 66.3667 12.0103 66.3405 12.0103C66.3143 12.0103 66.2881 12.0103 66.2619 12.0103C66.2357 12.0103 66.2096 12.0103 66.1834 12.0103C66.1573 12.0103 66.1311 12.0103 66.105 12.0103C66.0788 12.0103 66.0527 12.0103 66.0266 12.0103C66.0005 12.0103 65.9744 12.0103 65.9483 12.0103C65.9222 12.0103 65.8961 12.0103 65.87 12.0103C65.8439 12.0103 65.8178 12.0103 65.7917 12.0103C65.7657 12.0103 65.7396 12.0103 65.7136 12.0103C65.6875 12.0103 65.6615 12.0103 65.6355 12.0103C65.6095 12.0103 65.5834 12.0103 65.5574 12.0103C65.5314 12.0103 65.5054 12.0103 65.4795 12.0103C65.4535 12.0103 65.4275 12.0103 65.4015 12.0103C65.3756 12.0103 65.3496 12.0103 65.3237 12.0103C65.2978 12.0103 65.2718 12.0103 65.2459 12.0103C65.22 12.0103 65.1941 12.0103 65.1682 12.0103C65.1423 12.0103 65.1164 12.0103 65.0906 12.0103C65.0647 12.0103 65.0388 12.0103 65.013 12.0103C64.9872 12.0103 64.9613 12.0103 64.9355 12.0103C64.9097 12.0103 64.8839 12.0103 64.8581 12.0103C64.8323 12.0103 64.8065 12.0103 64.7808 12.0103C64.755 12.0103 64.7292 12.0103 64.7035 12.0103C64.6778 12.0103 64.652 12.0103 64.6263 12.0103C64.6006 12.0103 64.5749 12.0103 64.5492 12.0103C64.5236 12.0103 64.4979 12.0103 64.4722 12.0103C64.4466 12.0103 64.421 12.0103 64.3953 12.0103C64.3697 12.0103 64.3441 12.0103 64.3185 12.0103C64.2929 12.0103 64.2673 12.0103 64.2418 12.0103C64.2162 12.0103 64.1906 12.0103 64.1651 12.0103C64.1396 12.0103 64.1141 12.0103 64.0886 12.0103C64.0631 12.0103 64.0376 12.0103 64.0121 12.0103C63.9866 12.0103 63.9612 12.0103 63.9357 12.0103C63.9103 12.0103 63.8849 12.0103 63.8595 12.0103C63.8341 12.0103 63.8087 12.0103 63.7833 12.0103C63.7579 12.0103 63.7326 12.0103 63.7072 12.0103C63.6819 12.0103 63.6566 12.0103 63.6313 12.0103C63.606 12.0103 63.5807 12.0103 63.5554 12.0103C63.5302 12.0103 63.5049 12.0103 63.4797 12.0103C63.4544 12.0103 63.4292 12.0103 63.404 12.0103C63.3788 12.0103 63.3537 12.0103 63.3285 12.0103C63.3034 12.0103 63.2782 12.0103 63.2531 12.0103C63.228 12.0103 63.2029 12.0103 63.1778 12.0103C63.1527 12.0103 63.1276 12.0103 63.1026 12.0103C63.0775 12.0103 63.0525 12.0103 63.0275 12.0103C63.0025 12.0103 62.9775 12.0103 62.9526 12.0103C62.9276 12.0103 62.9026 12.0103 62.8777 12.0103C62.8528 12.0103 62.8279 12.0103 62.803 12.0103C62.7781 12.0103 62.7533 12.0103 62.7284 12.0103C62.7036 12.0103 62.6787 12.0103 62.6539 12.0103C62.6291 12.0103 62.6044 12.0103 62.5796 12.0103C62.5548 12.0103 62.5301 12.0103 62.5054 12.0103C62.4807 12.0103 62.456 12.0103 62.4313 12.0103C62.4066 12.0103 62.382 12.0103 62.3573 12.0103C62.3327 12.0103 62.3081 12.0103 62.2835 12.0103C62.2589 12.0103 62.2344 12.0103 62.2098 12.0103C62.1853 12.0103 62.1608 12.0103 62.1363 12.0103C62.1118 12.0103 62.0873 12.0103 62.0629 12.0103C62.0384 12.0103 62.014 12.0103 61.9896 12.0103C61.9652 12.0103 61.9408 12.0103 61.9165 12.0103C61.8921 12.0103 61.8678 12.0103 61.8435 12.0103C61.8192 12.0103 61.7949 12.0103 61.7706 12.0103C61.7464 12.0103 61.7221 12.0103 61.6979 12.0103C61.6737 12.0103 61.6495 12.0103 61.6254 12.0103C61.6012 12.0103 61.5771 12.0103 61.553 12.0103C61.5288 12.0103 61.5048 12.0103 61.4807 12.0103C61.4566 12.0103 61.4326 12.0103 61.4086 12.0103C61.3846 12.0103 61.3606 12.0103 61.3367 12.0103C61.3127 12.0103 61.2888 12.0103 61.2649 12.0103C61.241 12.0103 61.2171 12.0103 61.1932 12.0103C61.1694 12.0103 61.1456 12.0103 61.1218 12.0103C61.098 12.0103 61.0742 12.0103 61.0504 12.0103C61.0267 12.0103 61.003 12.0103 60.9793 12.0103C60.9556 12.0103 60.9319 12.0103 60.9083 12.0103C60.8847 12.0103 60.8611 12.0103 60.8375 12.0103C60.8139 12.0103 60.7904 12.0103 60.7668 12.0103C60.7433 12.0103 60.7198 12.0103 60.6963 12.0103C60.6729 12.0103 60.6494 12.0103 60.626 12.0103C60.6026 12.0103 60.5792 12.0103 60.5559 12.0103C60.5325 12.0103 60.5092 12.0103 60.4859 12.0103C60.4626 12.0103 60.4394 12.0103 60.4161 12.0103C60.3929 12.0103 60.3697 12.0103 60.3465 12.0103C60.3233 12.0103 60.3002 12.0103 60.2771 12.0103C60.254 12.0103 60.2309 12.0103 60.2078 12.0103C60.1848 12.0103 60.1617 12.0103 60.1387 12.0103C60.1157 12.0103 60.0928 12.0103 60.0698 12.0103C60.0469 12.0103 60.024 12.0103 60.0011 12.0103C59.9783 12.0103 59.9554 12.0103 59.9326 12.0103C59.9098 12.0103 59.887 12.0103 59.8643 12.0103C59.8415 12.0103 59.8188 12.0103 59.7962 12.0103C59.7735 12.0103 59.7508 12.0103 59.7282 12.0103C59.7056 12.0103 59.683 12.0103 59.6604 12.0103C59.6379 12.0103 59.6154 12.0103 59.5929 12.0103C59.5704 12.0103 59.548 12.0103 59.5255 12.0103C59.5031 12.0103 59.4807 12.0103 59.4584 12.0103C59.436 12.0103 59.4137 12.0103 59.3914 12.0103C59.3691 12.0103 59.3469 12.0103 59.3246 12.0103C59.3024 12.0103 59.2802 12.0103 59.2581 12.0103C59.2359 12.0103 59.2138 12.0103 59.1917 12.0103C59.1696 12.0103 59.1476 12.0103 59.1256 12.0103C59.1036 12.0103 59.0816 12.0103 59.0597 12.0103C59.0377 12.0103 59.0158 12.0103 58.9939 12.0103C58.972 12.0103 58.9502 12.0103 58.9284 12.0103C58.9066 12.0103 58.8848 12.0103 58.8631 12.0103C58.8414 12.0103 58.8197 12.0103 58.798 12.0103C58.7764 12.0103 58.7547 12.0103 58.7331 12.0103C58.7116 12.0103 58.69 12.0103 58.6685 12.0103C58.647 12.0103 58.6255 12.0103 58.6041 12.0103C58.5826 12.0103 58.5612 12.0103 58.5399 12.0103C58.5185 12.0103 58.4972 12.0103 58.4759 12.0103C58.4546 12.0103 58.4333 12.0103 58.4121 12.0103C58.3909 12.0103 58.3697 12.0103 58.3486 12.0103C58.3274 12.0103 58.3063 12.0103 58.2853 12.0103C58.2642 12.0103 58.2432 12.0103 58.2222 12.0103C58.2012 12.0103 58.1802 12.0103 58.1593 12.0103C58.1384 12.0103 58.1176 12.0103 58.0967 12.0103C58.0759 12.0103 58.0551 12.0103 58.0343 12.0103C58.0136 12.0103 57.9929 12.0103 57.9722 12.0103C57.9515 12.0103 57.9309 12.0103 57.9103 12.0103C57.8897 12.0103 57.8691 12.0103 57.8486 12.0103C57.8281 12.0103 57.8076 12.0103 57.7872 12.0103C57.7668 12.0103 57.7464 12.0103 57.726 12.0103C57.7057 12.0103 57.6854 12.0103 57.6651 12.0103C57.6448 12.0103 57.6246 12.0103 57.6044 12.0103C57.5842 12.0103 57.5641 12.0103 57.544 12.0103C57.5239 12.0103 57.5038 12.0103 57.4838 12.0103C57.4638 12.0103 57.4438 12.0103 57.4238 12.0103C57.4039 12.0103 57.384 12.0103 57.3641 12.0103C57.3443 12.0103 57.3245 12.0103 57.3047 12.0103C57.2849 12.0103 57.2652 12.0103 57.2455 12.0103C57.2259 12.0103 57.2062 12.0103 57.1866 12.0103C57.167 12.0103 57.1475 12.0103 57.128 12.0103C57.1084 12.0103 57.089 12.0103 57.0696 12.0103C57.0501 12.0103 57.0308 12.0103 57.0114 12.0103C56.9921 12.0103 56.9728 12.0103 56.9536 12.0103C56.9343 12.0103 56.9151 12.0103 56.8959 12.0103C56.8768 12.0103 56.8577 12.0103 56.8386 12.0103C56.8195 12.0103 56.8005 12.0103 56.7815 12.0103C56.7626 12.0103 56.7436 12.0103 56.7247 12.0103C56.7059 12.0103 56.687 12.0103 56.6682 12.0103C56.6494 12.0103 56.6307 12.0103 56.612 12.0103C56.5933 12.0103 56.5746 12.0103 56.556 12.0103C56.5374 12.0103 56.5188 12.0103 56.5003 12.0103C56.4818 12.0103 56.4633 12.0103 56.4449 12.0103C56.4265 12.0103 56.4081 12.0103 56.3897 12.0103C56.3714 12.0103 56.3531 12.0103 56.3349 12.0103C56.3167 12.0103 56.2985 12.0103 56.2803 12.0103C56.2622 12.0103 56.2441 12.0103 56.226 12.0103C56.208 12.0103 56.19 12.0103 56.172 12.0103C56.1541 12.0103 56.1362 12.0103 56.1183 12.0103C56.1005 12.0103 56.0827 12.0103 56.0649 12.0103C56.0472 12.0103 56.0294 12.0103 56.0118 12.0103C55.9941 12.0103 55.9765 12.0103 55.959 12.0103C55.9414 12.0103 55.9239 12.0103 55.9064 12.0103C55.889 12.0103 55.8715 12.0103 55.8542 12.0103C55.8368 12.0103 55.8195 12.0103 55.8022 12.0103C55.785 12.0103 55.7678 12.0103 55.7506 12.0103C55.7334 12.0103 55.7163 12.0103 55.6993 12.0103C55.6822 12.0103 55.6652 12.0103 55.6482 12.0103C55.6313 12.0103 55.6144 12.0103 55.5975 12.0103C55.5807 12.0103 55.5639 12.0103 55.5471 12.0103C55.5303 12.0103 55.5136 12.0103 55.497 12.0103C55.4803 12.0103 55.4637 12.0103 55.4472 12.0103C55.4306 12.0103 55.4141 12.0103 55.3977 12.0103C55.3813 12.0103 55.3649 12.0103 55.3485 12.0103C55.3322 12.0103 55.3159 12.0103 55.2997 12.0103C55.2834 12.0103 55.2672 12.0103 55.2511 12.0103C55.235 12.0103 55.2189 12.0103 55.2029 12.0103C55.1869 12.0103 55.1709 12.0103 55.155 12.0103C55.1391 12.0103 55.1232 12.0103 55.1074 12.0103C55.0916 12.0103 55.0759 12.0103 55.0602 12.0103C55.0445 12.0103 55.0288 12.0103 55.0132 12.0103C54.9976 12.0103 54.9821 12.0103 54.9666 12.0103C54.9511 12.0103 54.9357 12.0103 54.9203 12.0103C54.905 12.0103 54.8897 12.0103 54.8744 12.0103V14.0103C54.8897 14.0103 54.905 14.0103 54.9203 14.0103C54.9357 14.0103 54.9511 14.0103 54.9666 14.0103C54.9821 14.0103 54.9976 14.0103 55.0132 14.0103C55.0288 14.0103 55.0445 14.0103 55.0602 14.0103C55.0759 14.0103 55.0916 14.0103 55.1074 14.0103C55.1232 14.0103 55.1391 14.0103 55.155 14.0103C55.1709 14.0103 55.1869 14.0103 55.2029 14.0103C55.2189 14.0103 55.235 14.0103 55.2511 14.0103C55.2672 14.0103 55.2834 14.0103 55.2997 14.0103C55.3159 14.0103 55.3322 14.0103 55.3485 14.0103C55.3649 14.0103 55.3813 14.0103 55.3977 14.0103C55.4141 14.0103 55.4306 14.0103 55.4472 14.0103C55.4637 14.0103 55.4803 14.0103 55.497 14.0103C55.5136 14.0103 55.5303 14.0103 55.5471 14.0103C55.5639 14.0103 55.5807 14.0103 55.5975 14.0103C55.6144 14.0103 55.6313 14.0103 55.6482 14.0103C55.6652 14.0103 55.6822 14.0103 55.6993 14.0103C55.7163 14.0103 55.7334 14.0103 55.7506 14.0103C55.7678 14.0103 55.785 14.0103 55.8022 14.0103C55.8195 14.0103 55.8368 14.0103 55.8542 14.0103C55.8715 14.0103 55.889 14.0103 55.9064 14.0103C55.9239 14.0103 55.9414 14.0103 55.959 14.0103C55.9765 14.0103 55.9941 14.0103 56.0118 14.0103C56.0294 14.0103 56.0472 14.0103 56.0649 14.0103C56.0827 14.0103 56.1005 14.0103 56.1183 14.0103C56.1362 14.0103 56.1541 14.0103 56.172 14.0103C56.19 14.0103 56.208 14.0103 56.226 14.0103C56.2441 14.0103 56.2622 14.0103 56.2803 14.0103C56.2985 14.0103 56.3167 14.0103 56.3349 14.0103C56.3531 14.0103 56.3714 14.0103 56.3897 14.0103C56.4081 14.0103 56.4265 14.0103 56.4449 14.0103C56.4633 14.0103 56.4818 14.0103 56.5003 14.0103C56.5188 14.0103 56.5374 14.0103 56.556 14.0103C56.5746 14.0103 56.5933 14.0103 56.612 14.0103C56.6307 14.0103 56.6494 14.0103 56.6682 14.0103C56.687 14.0103 56.7059 14.0103 56.7247 14.0103C56.7436 14.0103 56.7626 14.0103 56.7815 14.0103C56.8005 14.0103 56.8195 14.0103 56.8386 14.0103C56.8577 14.0103 56.8768 14.0103 56.8959 14.0103C56.9151 14.0103 56.9343 14.0103 56.9536 14.0103C56.9728 14.0103 56.9921 14.0103 57.0114 14.0103C57.0308 14.0103 57.0501 14.0103 57.0696 14.0103C57.089 14.0103 57.1084 14.0103 57.128 14.0103C57.1475 14.0103 57.167 14.0103 57.1866 14.0103C57.2062 14.0103 57.2259 14.0103 57.2455 14.0103C57.2652 14.0103 57.2849 14.0103 57.3047 14.0103C57.3245 14.0103 57.3443 14.0103 57.3641 14.0103C57.384 14.0103 57.4039 14.0103 57.4238 14.0103C57.4438 14.0103 57.4638 14.0103 57.4838 14.0103C57.5038 14.0103 57.5239 14.0103 57.544 14.0103C57.5641 14.0103 57.5842 14.0103 57.6044 14.0103C57.6246 14.0103 57.6448 14.0103 57.6651 14.0103C57.6854 14.0103 57.7057 14.0103 57.726 14.0103C57.7464 14.0103 57.7668 14.0103 57.7872 14.0103C57.8076 14.0103 57.8281 14.0103 57.8486 14.0103C57.8691 14.0103 57.8897 14.0103 57.9103 14.0103C57.9309 14.0103 57.9515 14.0103 57.9722 14.0103C57.9929 14.0103 58.0136 14.0103 58.0343 14.0103C58.0551 14.0103 58.0759 14.0103 58.0967 14.0103C58.1176 14.0103 58.1384 14.0103 58.1593 14.0103C58.1802 14.0103 58.2012 14.0103 58.2222 14.0103C58.2432 14.0103 58.2642 14.0103 58.2853 14.0103C58.3063 14.0103 58.3274 14.0103 58.3486 14.0103C58.3697 14.0103 58.3909 14.0103 58.4121 14.0103C58.4333 14.0103 58.4546 14.0103 58.4759 14.0103C58.4972 14.0103 58.5185 14.0103 58.5399 14.0103C58.5612 14.0103 58.5826 14.0103 58.6041 14.0103C58.6255 14.0103 58.647 14.0103 58.6685 14.0103C58.69 14.0103 58.7116 14.0103 58.7331 14.0103C58.7547 14.0103 58.7764 14.0103 58.798 14.0103C58.8197 14.0103 58.8414 14.0103 58.8631 14.0103C58.8848 14.0103 58.9066 14.0103 58.9284 14.0103C58.9502 14.0103 58.972 14.0103 58.9939 14.0103C59.0158 14.0103 59.0377 14.0103 59.0597 14.0103C59.0816 14.0103 59.1036 14.0103 59.1256 14.0103C59.1476 14.0103 59.1696 14.0103 59.1917 14.0103C59.2138 14.0103 59.2359 14.0103 59.2581 14.0103C59.2802 14.0103 59.3024 14.0103 59.3246 14.0103C59.3469 14.0103 59.3691 14.0103 59.3914 14.0103C59.4137 14.0103 59.436 14.0103 59.4584 14.0103C59.4807 14.0103 59.5031 14.0103 59.5255 14.0103C59.548 14.0103 59.5704 14.0103 59.5929 14.0103C59.6154 14.0103 59.6379 14.0103 59.6604 14.0103C59.683 14.0103 59.7056 14.0103 59.7282 14.0103C59.7508 14.0103 59.7735 14.0103 59.7962 14.0103C59.8188 14.0103 59.8415 14.0103 59.8643 14.0103C59.887 14.0103 59.9098 14.0103 59.9326 14.0103C59.9554 14.0103 59.9783 14.0103 60.0011 14.0103C60.024 14.0103 60.0469 14.0103 60.0698 14.0103C60.0928 14.0103 60.1157 14.0103 60.1387 14.0103C60.1617 14.0103 60.1848 14.0103 60.2078 14.0103C60.2309 14.0103 60.254 14.0103 60.2771 14.0103C60.3002 14.0103 60.3233 14.0103 60.3465 14.0103C60.3697 14.0103 60.3929 14.0103 60.4161 14.0103C60.4394 14.0103 60.4626 14.0103 60.4859 14.0103C60.5092 14.0103 60.5325 14.0103 60.5559 14.0103C60.5792 14.0103 60.6026 14.0103 60.626 14.0103C60.6494 14.0103 60.6729 14.0103 60.6963 14.0103C60.7198 14.0103 60.7433 14.0103 60.7668 14.0103C60.7904 14.0103 60.8139 14.0103 60.8375 14.0103C60.8611 14.0103 60.8847 14.0103 60.9083 14.0103C60.9319 14.0103 60.9556 14.0103 60.9793 14.0103C61.003 14.0103 61.0267 14.0103 61.0504 14.0103C61.0742 14.0103 61.098 14.0103 61.1218 14.0103C61.1456 14.0103 61.1694 14.0103 61.1932 14.0103C61.2171 14.0103 61.241 14.0103 61.2649 14.0103C61.2888 14.0103 61.3127 14.0103 61.3367 14.0103C61.3606 14.0103 61.3846 14.0103 61.4086 14.0103C61.4326 14.0103 61.4566 14.0103 61.4807 14.0103C61.5048 14.0103 61.5288 14.0103 61.553 14.0103C61.5771 14.0103 61.6012 14.0103 61.6254 14.0103C61.6495 14.0103 61.6737 14.0103 61.6979 14.0103C61.7221 14.0103 61.7464 14.0103 61.7706 14.0103C61.7949 14.0103 61.8192 14.0103 61.8435 14.0103C61.8678 14.0103 61.8921 14.0103 61.9165 14.0103C61.9408 14.0103 61.9652 14.0103 61.9896 14.0103C62.014 14.0103 62.0384 14.0103 62.0629 14.0103C62.0873 14.0103 62.1118 14.0103 62.1363 14.0103C62.1608 14.0103 62.1853 14.0103 62.2098 14.0103C62.2344 14.0103 62.2589 14.0103 62.2835 14.0103C62.3081 14.0103 62.3327 14.0103 62.3573 14.0103C62.382 14.0103 62.4066 14.0103 62.4313 14.0103C62.456 14.0103 62.4807 14.0103 62.5054 14.0103C62.5301 14.0103 62.5548 14.0103 62.5796 14.0103C62.6044 14.0103 62.6291 14.0103 62.6539 14.0103C62.6787 14.0103 62.7036 14.0103 62.7284 14.0103C62.7533 14.0103 62.7781 14.0103 62.803 14.0103C62.8279 14.0103 62.8528 14.0103 62.8777 14.0103C62.9026 14.0103 62.9276 14.0103 62.9526 14.0103C62.9775 14.0103 63.0025 14.0103 63.0275 14.0103C63.0525 14.0103 63.0775 14.0103 63.1026 14.0103C63.1276 14.0103 63.1527 14.0103 63.1778 14.0103C63.2029 14.0103 63.228 14.0103 63.2531 14.0103C63.2782 14.0103 63.3034 14.0103 63.3285 14.0103C63.3537 14.0103 63.3788 14.0103 63.404 14.0103C63.4292 14.0103 63.4544 14.0103 63.4797 14.0103C63.5049 14.0103 63.5302 14.0103 63.5554 14.0103C63.5807 14.0103 63.606 14.0103 63.6313 14.0103C63.6566 14.0103 63.6819 14.0103 63.7072 14.0103C63.7326 14.0103 63.7579 14.0103 63.7833 14.0103C63.8087 14.0103 63.8341 14.0103 63.8595 14.0103C63.8849 14.0103 63.9103 14.0103 63.9357 14.0103C63.9612 14.0103 63.9866 14.0103 64.0121 14.0103C64.0376 14.0103 64.0631 14.0103 64.0886 14.0103C64.1141 14.0103 64.1396 14.0103 64.1651 14.0103C64.1906 14.0103 64.2162 14.0103 64.2418 14.0103C64.2673 14.0103 64.2929 14.0103 64.3185 14.0103C64.3441 14.0103 64.3697 14.0103 64.3953 14.0103C64.421 14.0103 64.4466 14.0103 64.4722 14.0103C64.4979 14.0103 64.5236 14.0103 64.5492 14.0103C64.5749 14.0103 64.6006 14.0103 64.6263 14.0103C64.652 14.0103 64.6778 14.0103 64.7035 14.0103C64.7292 14.0103 64.755 14.0103 64.7808 14.0103C64.8065 14.0103 64.8323 14.0103 64.8581 14.0103C64.8839 14.0103 64.9097 14.0103 64.9355 14.0103C64.9613 14.0103 64.9872 14.0103 65.013 14.0103C65.0388 14.0103 65.0647 14.0103 65.0906 14.0103C65.1164 14.0103 65.1423 14.0103 65.1682 14.0103C65.1941 14.0103 65.22 14.0103 65.2459 14.0103C65.2718 14.0103 65.2978 14.0103 65.3237 14.0103C65.3496 14.0103 65.3756 14.0103 65.4015 14.0103C65.4275 14.0103 65.4535 14.0103 65.4795 14.0103C65.5054 14.0103 65.5314 14.0103 65.5574 14.0103C65.5834 14.0103 65.6095 14.0103 65.6355 14.0103C65.6615 14.0103 65.6875 14.0103 65.7136 14.0103C65.7396 14.0103 65.7657 14.0103 65.7917 14.0103C65.8178 14.0103 65.8439 14.0103 65.87 14.0103C65.8961 14.0103 65.9222 14.0103 65.9483 14.0103C65.9744 14.0103 66.0005 14.0103 66.0266 14.0103C66.0527 14.0103 66.0788 14.0103 66.105 14.0103C66.1311 14.0103 66.1573 14.0103 66.1834 14.0103C66.2096 14.0103 66.2357 14.0103 66.2619 14.0103C66.2881 14.0103 66.3143 14.0103 66.3405 14.0103C66.3667 14.0103 66.3929 14.0103 66.4191 14.0103C66.4453 14.0103 66.4715 14.0103 66.4977 14.0103C66.5239 14.0103 66.5501 14.0103 66.5764 14.0103C66.6026 14.0103 66.6288 14.0103 66.6551 14.0103C66.6813 14.0103 66.7076 14.0103 66.7339 14.0103C66.7601 14.0103 66.7864 14.0103 66.8127 14.0103C66.8389 14.0103 66.8652 14.0103 66.8915 14.0103C66.9178 14.0103 66.9441 14.0103 66.9704 14.0103C66.9967 14.0103 67.023 14.0103 67.0493 14.0103C67.0756 14.0103 67.1019 14.0103 67.1282 14.0103C67.1545 14.0103 67.1809 14.0103 67.2072 14.0103C67.2335 14.0103 67.2598 14.0103 67.2862 14.0103C67.3125 14.0103 67.3389 14.0103 67.3652 14.0103C67.3916 14.0103 67.4179 14.0103 67.4443 14.0103C67.4706 14.0103 67.497 14.0103 67.5233 14.0103C67.5497 14.0103 67.5761 14.0103 67.6024 14.0103C67.6288 14.0103 67.6552 14.0103 67.6816 14.0103C67.7079 14.0103 67.7343 14.0103 67.7607 14.0103C67.7871 14.0103 67.8135 14.0103 67.8399 14.0103C67.8663 14.0103 67.8926 14.0103 67.919 14.0103C67.9454 14.0103 67.9718 14.0103 67.9982 14.0103C68.0246 14.0103 68.051 14.0103 68.0774 14.0103C68.1038 14.0103 68.1302 14.0103 68.1566 14.0103C68.183 14.0103 68.2094 14.0103 68.2359 14.0103C68.2623 14.0103 68.2887 14.0103 68.3151 14.0103C68.3415 14.0103 68.3679 14.0103 68.3943 14.0103C68.4207 14.0103 68.4471 14.0103 68.4736 14.0103C68.5 14.0103 68.5264 14.0103 68.5528 14.0103C68.5792 14.0103 68.6056 14.0103 68.632 14.0103C68.6585 14.0103 68.6849 14.0103 68.7113 14.0103C68.7377 14.0103 68.7641 14.0103 68.7905 14.0103C68.8169 14.0103 68.8434 14.0103 68.8698 14.0103C68.8962 14.0103 68.9226 14.0103 68.949 14.0103C68.9754 14.0103 69.0018 14.0103 69.0282 14.0103C69.0546 14.0103 69.081 14.0103 69.1074 14.0103C69.1338 14.0103 69.1602 14.0103 69.1866 14.0103C69.213 14.0103 69.2394 14.0103 69.2658 14.0103C69.2922 14.0103 69.3186 14.0103 69.345 14.0103C69.3714 14.0103 69.3978 14.0103 69.4242 14.0103C69.4506 14.0103 69.4769 14.0103 69.5033 14.0103C69.5297 14.0103 69.5561 14.0103 69.5824 14.0103C69.6088 14.0103 69.6352 14.0103 69.6616 14.0103C69.6879 14.0103 69.7143 14.0103 69.7406 14.0103C69.767 14.0103 69.7933 14.0103 69.8197 14.0103C69.846 14.0103 69.8724 14.0103 69.8987 14.0103C69.9251 14.0103 69.9514 14.0103 69.9777 14.0103C70.0041 14.0103 70.0304 14.0103 70.0567 14.0103C70.083 14.0103 70.1094 14.0103 70.1357 14.0103C70.162 14.0103 70.1883 14.0103 70.2146 14.0103C70.2409 14.0103 70.2672 14.0103 70.2935 14.0103C70.3198 14.0103 70.346 14.0103 70.3723 14.0103C70.3986 14.0103 70.4249 14.0103 70.4511 14.0103C70.4774 14.0103 70.5037 14.0103 70.5299 14.0103C70.5562 14.0103 70.5824 14.0103 70.6087 14.0103C70.6349 14.0103 70.6611 14.0103 70.6873 14.0103C70.7136 14.0103 70.7398 14.0103 70.766 14.0103C70.7922 14.0103 70.8184 14.0103 70.8446 14.0103C70.8708 14.0103 70.897 14.0103 70.9232 14.0103C70.9493 14.0103 70.9755 14.0103 71.0017 14.0103C71.0278 14.0103 71.054 14.0103 71.0801 14.0103C71.1063 14.0103 71.1324 14.0103 71.1585 14.0103C71.1847 14.0103 71.2108 14.0103 71.2369 14.0103C71.263 14.0103 71.2891 14.0103 71.3152 14.0103C71.3413 14.0103 71.3674 14.0103 71.3934 14.0103C71.4195 14.0103 71.4456 14.0103 71.4716 14.0103C71.4977 14.0103 71.5237 14.0103 71.5498 14.0103C71.5758 14.0103 71.6018 14.0103 71.6278 14.0103C71.6538 14.0103 71.6798 14.0103 71.7058 14.0103C71.7318 14.0103 71.7578 14.0103 71.7838 14.0103C71.8097 14.0103 71.8357 14.0103 71.8616 14.0103C71.8876 14.0103 71.9135 14.0103 71.9394 14.0103C71.9653 14.0103 71.9913 14.0103 72.0172 14.0103C72.0431 14.0103 72.0689 14.0103 72.0948 14.0103C72.1207 14.0103 72.1466 14.0103 72.1724 14.0103C72.1983 14.0103 72.2241 14.0103 72.2499 14.0103C72.2757 14.0103 72.3016 14.0103 72.3274 14.0103C72.3532 14.0103 72.3789 14.0103 72.4047 14.0103C72.4305 14.0103 72.4563 14.0103 72.482 14.0103C72.5078 14.0103 72.5335 14.0103 72.5592 14.0103C72.5849 14.0103 72.6106 14.0103 72.6363 14.0103C72.662 14.0103 72.6877 14.0103 72.7133 14.0103C72.739 14.0103 72.7647 14.0103 72.7903 14.0103C72.8159 14.0103 72.8415 14.0103 72.8671 14.0103C72.8928 14.0103 72.9183 14.0103 72.9439 14.0103C72.9695 14.0103 72.9951 14.0103 73.0206 14.0103C73.0461 14.0103 73.0717 14.0103 73.0972 14.0103C73.1227 14.0103 73.1482 14.0103 73.1737 14.0103C73.1992 14.0103 73.2246 14.0103 73.2501 14.0103C73.2755 14.0103 73.3009 14.0103 73.3264 14.0103C73.3518 14.0103 73.3772 14.0103 73.4026 14.0103C73.4279 14.0103 73.4533 14.0103 73.4787 14.0103C73.504 14.0103 73.5293 14.0103 73.5546 14.0103C73.58 14.0103 73.6053 14.0103 73.6305 14.0103C73.6558 14.0103 73.6811 14.0103 73.7063 14.0103C73.7316 14.0103 73.7568 14.0103 73.782 14.0103C73.8072 14.0103 73.8324 14.0103 73.8576 14.0103C73.8827 14.0103 73.9079 14.0103 73.933 14.0103C73.9582 14.0103 73.9833 14.0103 74.0084 14.0103C74.0335 14.0103 74.0585 14.0103 74.0836 14.0103C74.1087 14.0103 74.1337 14.0103 74.1587 14.0103C74.1837 14.0103 74.2087 14.0103 74.2337 14.0103C74.2587 14.0103 74.2836 14.0103 74.3086 14.0103C74.3335 14.0103 74.3584 14.0103 74.3833 14.0103C74.4082 14.0103 74.4331 14.0103 74.458 14.0103C74.4828 14.0103 74.5077 14.0103 74.5325 14.0103C74.5573 14.0103 74.5821 14.0103 74.6069 14.0103C74.6316 14.0103 74.6564 14.0103 74.6811 14.0103C74.7059 14.0103 74.7306 14.0103 74.7553 14.0103C74.7799 14.0103 74.8046 14.0103 74.8293 14.0103C74.8539 14.0103 74.8785 14.0103 74.9031 14.0103C74.9277 14.0103 74.9523 14.0103 74.9769 14.0103C75.0014 14.0103 75.0259 14.0103 75.0505 14.0103C75.075 14.0103 75.0994 14.0103 75.1239 14.0103C75.1484 14.0103 75.1728 14.0103 75.1972 14.0103C75.2216 14.0103 75.246 14.0103 75.2704 14.0103C75.2948 14.0103 75.3191 14.0103 75.3435 14.0103C75.3678 14.0103 75.3921 14.0103 75.4164 14.0103C75.4406 14.0103 75.4649 14.0103 75.4891 14.0103C75.5133 14.0103 75.5375 14.0103 75.5617 14.0103C75.5859 14.0103 75.61 14.0103 75.6342 14.0103C75.6583 14.0103 75.6824 14.0103 75.7065 14.0103C75.7305 14.0103 75.7546 14.0103 75.7786 14.0103C75.8026 14.0103 75.8266 14.0103 75.8506 14.0103C75.8746 14.0103 75.8985 14.0103 75.9224 14.0103C75.9464 14.0103 75.9703 14.0103 75.9941 14.0103C76.018 14.0103 76.0418 14.0103 76.0657 14.0103C76.0895 14.0103 76.1133 14.0103 76.137 14.0103C76.1608 14.0103 76.1845 14.0103 76.2082 14.0103C76.2319 14.0103 76.2556 14.0103 76.2793 14.0103C76.3029 14.0103 76.3266 14.0103 76.3502 14.0103C76.3737 14.0103 76.3973 14.0103 76.4209 14.0103C76.4444 14.0103 76.4679 14.0103 76.4914 14.0103C76.5149 14.0103 76.5383 14.0103 76.5618 14.0103C76.5852 14.0103 76.6086 14.0103 76.632 14.0103C76.6553 14.0103 76.6787 14.0103 76.702 14.0103C76.7253 14.0103 76.7486 14.0103 76.7719 14.0103C76.7951 14.0103 76.8183 14.0103 76.8415 14.0103C76.8647 14.0103 76.8879 14.0103 76.911 14.0103C76.9342 14.0103 76.9573 14.0103 76.9803 14.0103C77.0034 14.0103 77.0265 14.0103 77.0495 14.0103C77.0725 14.0103 77.0955 14.0103 77.1184 14.0103C77.1414 14.0103 77.1643 14.0103 77.1872 14.0103C77.2101 14.0103 77.2329 14.0103 77.2558 14.0103C77.2786 14.0103 77.3014 14.0103 77.3242 14.0103C77.3469 14.0103 77.3697 14.0103 77.3924 14.0103C77.4151 14.0103 77.4377 14.0103 77.4604 14.0103C77.483 14.0103 77.5056 14.0103 77.5282 14.0103C77.5508 14.0103 77.5733 14.0103 77.5958 14.0103C77.6183 14.0103 77.6408 14.0103 77.6632 14.0103C77.6857 14.0103 77.7081 14.0103 77.7305 14.0103C77.7528 14.0103 77.7752 14.0103 77.7975 14.0103C77.8198 14.0103 77.8421 14.0103 77.8643 14.0103C77.8866 14.0103 77.9088 14.0103 77.931 14.0103C77.9531 14.0103 77.9753 14.0103 77.9974 14.0103C78.0195 14.0103 78.0415 14.0103 78.0636 14.0103C78.0856 14.0103 78.1076 14.0103 78.1296 14.0103C78.1516 14.0103 78.1735 14.0103 78.1954 14.0103C78.2173 14.0103 78.2392 14.0103 78.261 14.0103C78.2828 14.0103 78.3046 14.0103 78.3263 14.0103C78.3481 14.0103 78.3698 14.0103 78.3915 14.0103C78.4132 14.0103 78.4348 14.0103 78.4565 14.0103C78.4781 14.0103 78.4996 14.0103 78.5212 14.0103C78.5427 14.0103 78.5642 14.0103 78.5857 14.0103C78.6071 14.0103 78.6286 14.0103 78.65 14.0103C78.6713 14.0103 78.6927 14.0103 78.714 14.0103C78.7353 14.0103 78.7566 14.0103 78.7779 14.0103C78.7991 14.0103 78.8203 14.0103 78.8415 14.0103C78.8626 14.0103 78.8838 14.0103 78.9049 14.0103C78.9259 14.0103 78.947 14.0103 78.968 14.0103C78.989 14.0103 79.01 14.0103 79.0309 14.0103C79.0519 14.0103 79.0728 14.0103 79.0936 14.0103C79.1145 14.0103 79.1353 14.0103 79.1561 14.0103C79.1768 14.0103 79.1976 14.0103 79.2183 14.0103C79.239 14.0103 79.2597 14.0103 79.2803 14.0103C79.3009 14.0103 79.3215 14.0103 79.342 14.0103C79.3626 14.0103 79.3831 14.0103 79.4035 14.0103C79.424 14.0103 79.4444 14.0103 79.4648 14.0103C79.4852 14.0103 79.5055 14.0103 79.5258 14.0103C79.5461 14.0103 79.5664 14.0103 79.5866 14.0103C79.6068 14.0103 79.627 14.0103 79.6471 14.0103C79.6672 14.0103 79.6873 14.0103 79.7074 14.0103C79.7274 14.0103 79.7474 14.0103 79.7674 14.0103C79.7874 14.0103 79.8073 14.0103 79.8272 14.0103C79.847 14.0103 79.8669 14.0103 79.8867 14.0103C79.9065 14.0103 79.9262 14.0103 79.9459 14.0103C79.9656 14.0103 79.9853 14.0103 80.0049 14.0103C80.0246 14.0103 80.0441 14.0103 80.0637 14.0103C80.0832 14.0103 80.1027 14.0103 80.1222 14.0103C80.1416 14.0103 80.161 14.0103 80.1804 14.0103C80.1998 14.0103 80.2191 14.0103 80.2383 14.0103C80.2576 14.0103 80.2769 14.0103 80.296 14.0103C80.3152 14.0103 80.3344 14.0103 80.3535 14.0103C80.3726 14.0103 80.3916 14.0103 80.4106 14.0103C80.4296 14.0103 80.4486 14.0103 80.4675 14.0103C80.4864 14.0103 80.5053 14.0103 80.5241 14.0103C80.5429 14.0103 80.5617 14.0103 80.5805 14.0103C80.5992 14.0103 80.6179 14.0103 80.6365 14.0103C80.6552 14.0103 80.6738 14.0103 80.6923 14.0103C80.7109 14.0103 80.7294 14.0103 80.7478 14.0103C80.7663 14.0103 80.7847 14.0103 80.8031 14.0103C80.8214 14.0103 80.8397 14.0103 80.858 14.0103C80.8763 14.0103 80.8945 14.0103 80.9127 14.0103C80.9308 14.0103 80.949 14.0103 80.967 14.0103C80.9851 14.0103 81.0032 14.0103 81.0211 14.0103C81.0391 14.0103 81.0571 14.0103 81.0749 14.0103C81.0928 14.0103 81.1107 14.0103 81.1285 14.0103C81.1462 14.0103 81.164 14.0103 81.1817 14.0103C81.1994 14.0103 81.217 14.0103 81.2346 14.0103C81.2522 14.0103 81.2697 14.0103 81.2872 14.0103C81.3047 14.0103 81.3222 14.0103 81.3396 14.0103C81.357 14.0103 81.3743 14.0103 81.3916 14.0103C81.4089 14.0103 81.4261 14.0103 81.4433 14.0103C81.4605 14.0103 81.4777 14.0103 81.4948 14.0103C81.5119 14.0103 81.5289 14.0103 81.5459 14.0103C81.5629 14.0103 81.5798 14.0103 81.5967 14.0103C81.6136 14.0103 81.6305 14.0103 81.6473 14.0103C81.664 14.0103 81.6808 14.0103 81.6975 14.0103C81.7142 14.0103 81.7308 14.0103 81.7474 14.0103C81.764 14.0103 81.7805 14.0103 81.797 14.0103C81.8134 14.0103 81.8299 14.0103 81.8462 14.0103C81.8626 14.0103 81.8789 14.0103 81.8952 14.0103C81.9115 14.0103 81.9277 14.0103 81.9439 14.0103C81.96 14.0103 81.9761 14.0103 81.9922 14.0103C82.0082 14.0103 82.0242 14.0103 82.0402 14.0103C82.0561 14.0103 82.072 14.0103 82.0879 14.0103C82.1037 14.0103 82.1195 14.0103 82.1352 14.0103C82.151 14.0103 82.1666 14.0103 82.1823 14.0103C82.1979 14.0103 82.2135 14.0103 82.229 14.0103C82.2445 14.0103 82.26 14.0103 82.2754 14.0103C82.2908 14.0103 82.3061 14.0103 82.3214 14.0103C82.3367 14.0103 82.352 14.0103 82.3672 14.0103C82.3823 14.0103 82.3975 14.0103 82.4125 14.0103C82.4276 14.0103 82.4426 14.0103 82.4576 14.0103C82.4726 14.0103 82.4875 14.0103 82.5023 14.0103C82.5172 14.0103 82.532 14.0103 82.5467 14.0103C82.5614 14.0103 82.5761 14.0103 82.5907 14.0103C82.6054 14.0103 82.6199 14.0103 82.6344 14.0103C82.649 14.0103 82.6634 14.0103 82.6778 14.0103C82.6922 14.0103 82.7065 14.0103 82.7208 14.0103C82.7351 14.0103 82.7493 14.0103 82.7635 14.0103C82.7776 14.0103 82.7918 14.0103 82.8058 14.0103C82.8199 14.0103 82.8338 14.0103 82.8478 14.0103C82.8617 14.0103 82.8756 14.0103 82.8894 14.0103C82.9032 14.0103 82.917 14.0103 82.9307 14.0103C82.9444 14.0103 82.958 14.0103 82.9716 14.0103C82.9852 14.0103 82.9987 14.0103 83.0121 14.0103C83.0256 14.0103 83.039 14.0103 83.0523 14.0103C83.0657 14.0103 83.0789 14.0103 83.0922 14.0103C83.1054 14.0103 83.1185 14.0103 83.1316 14.0103C83.1447 14.0103 83.1578 14.0103 83.1708 14.0103C83.1837 14.0103 83.1967 14.0103 83.2095 14.0103C83.2224 14.0103 83.2352 14.0103 83.2479 14.0103C83.2606 14.0103 83.2733 14.0103 83.2859 14.0103C83.2985 14.0103 83.3111 14.0103 83.3236 14.0103C83.3361 14.0103 83.3485 14.0103 83.3608 14.0103C83.3732 14.0103 83.3855 14.0103 83.3978 14.0103C83.41 14.0103 83.4222 14.0103 83.4343 14.0103C83.4464 14.0103 83.4585 14.0103 83.4704 14.0103C83.4824 14.0103 83.4944 14.0103 83.5062 14.0103C83.5181 14.0103 83.5299 14.0103 83.5416 14.0103C83.5534 14.0103 83.565 14.0103 83.5766 14.0103C83.5882 14.0103 83.5998 14.0103 83.6113 14.0103C83.6227 14.0103 83.6342 14.0103 83.6455 14.0103C83.6569 14.0103 83.6682 14.0103 83.6794 14.0103C83.6906 14.0103 83.7018 14.0103 83.7129 14.0103C83.724 14.0103 83.735 14.0103 83.746 14.0103C83.7569 14.0103 83.7678 14.0103 83.7787 14.0103C83.7895 14.0103 83.8003 14.0103 83.811 14.0103C83.8217 14.0103 83.8323 14.0103 83.8429 14.0103C83.8535 14.0103 83.864 14.0103 83.8744 14.0103C83.8848 14.0103 83.8952 14.0103 83.9055 14.0103C83.9158 14.0103 83.9261 14.0103 83.9362 14.0103C83.9464 14.0103 83.9565 14.0103 83.9666 14.0103C83.9766 14.0103 83.9866 14.0103 83.9965 14.0103C84.0064 14.0103 84.0162 14.0103 84.026 14.0103C84.0358 14.0103 84.0455 14.0103 84.0551 14.0103C84.0648 14.0103 84.0743 14.0103 84.0838 14.0103C84.0933 14.0103 84.1028 14.0103 84.1121 14.0103C84.1215 14.0103 84.1308 14.0103 84.14 14.0103C84.1492 14.0103 84.1584 14.0103 84.1675 14.0103C84.1766 14.0103 84.1856 14.0103 84.1945 14.0103C84.2035 14.0103 84.2124 14.0103 84.2212 14.0103C84.23 14.0103 84.2387 14.0103 84.2474 14.0103C84.2561 14.0103 84.2647 14.0103 84.2732 14.0103C84.2817 14.0103 84.2902 14.0103 84.2986 14.0103C84.307 14.0103 84.3153 14.0103 84.3236 14.0103C84.3318 14.0103 84.34 14.0103 84.3481 14.0103C84.3562 14.0103 84.3643 14.0103 84.3722 14.0103C84.3802 14.0103 84.3881 14.0103 84.3959 14.0103C84.4037 14.0103 84.4115 14.0103 84.4192 14.0103C84.4269 14.0103 84.4345 14.0103 84.442 14.0103C84.4496 14.0103 84.457 14.0103 84.4644 14.0103C84.4718 14.0103 84.4791 14.0103 84.4864 14.0103C84.4936 14.0103 84.5008 14.0103 84.5079 14.0103C84.515 14.0103 84.5221 14.0103 84.529 14.0103C84.536 14.0103 84.5429 14.0103 84.5497 14.0103C84.5565 14.0103 84.5632 14.0103 84.5699 14.0103C84.5766 14.0103 84.5832 14.0103 84.5897 14.0103C84.5962 14.0103 84.6026 14.0103 84.609 14.0103C84.6154 14.0103 84.6217 14.0103 84.6279 14.0103C84.6341 14.0103 84.6403 14.0103 84.6463 14.0103C84.6524 14.0103 84.6584 14.0103 84.6643 14.0103C84.6702 14.0103 84.6761 14.0103 84.6819 14.0103C84.6876 14.0103 84.6933 14.0103 84.699 14.0103C84.7046 14.0103 84.7101 14.0103 84.7156 14.0103C84.7211 14.0103 84.7265 14.0103 84.7318 14.0103C84.7371 14.0103 84.7423 14.0103 84.7475 14.0103C84.7527 14.0103 84.7578 14.0103 84.7628 14.0103C84.7678 14.0103 84.7727 14.0103 84.7776 14.0103C84.7825 14.0103 84.7872 14.0103 84.7919 14.0103C84.7966 14.0103 84.8013 14.0103 84.8058 14.0103C84.8104 14.0103 84.8149 14.0103 84.8193 14.0103C84.8236 14.0103 84.828 14.0103 84.8322 14.0103C84.8364 14.0103 84.8406 14.0103 84.8447 14.0103C84.8488 14.0103 84.8528 14.0103 84.8567 14.0103C84.8606 14.0103 84.8645 14.0103 84.8683 14.0103C84.872 14.0103 84.8757 14.0103 84.8793 14.0103C84.8829 14.0103 84.8865 14.0103 84.8899 14.0103C84.8934 14.0103 84.8968 14.0103 84.9001 14.0103C84.9034 14.0103 84.9066 14.0103 84.9097 14.0103C84.9128 14.0103 84.9159 14.0103 84.9189 14.0103C84.9218 14.0103 84.9247 14.0103 84.9276 14.0103C84.9304 14.0103 84.9331 14.0103 84.9358 14.0103C84.9384 14.0103 84.941 14.0103 84.9435 14.0103C84.946 14.0103 84.9484 14.0103 84.9507 14.0103C84.953 14.0103 84.9553 14.0103 84.9575 14.0103C84.9596 14.0103 84.9617 14.0103 84.9637 14.0103C84.9657 14.0103 84.9676 14.0103 84.9695 14.0103C84.9713 14.0103 84.9731 14.0103 84.9747 14.0103C84.9764 14.0103 84.978 14.0103 84.9795 14.0103C84.981 14.0103 84.9825 14.0103 84.9838 14.0103C84.9851 14.0103 84.9864 14.0103 84.9876 14.0103C84.9888 14.0103 84.9899 14.0103 84.9909 14.0103C84.9919 14.0103 84.9928 14.0103 84.9937 14.0103C84.9945 14.0103 84.9953 14.0103 84.9959 14.0103C84.9966 14.0103 84.9972 14.0103 84.9977 14.0103C84.9982 14.0103 84.9986 14.0103 84.999 14.0103C84.9993 14.0103 84.9996 14.0103 84.9997 14.0103C84.9999 14.0103 85 14.0103 85 13.0103ZM54.8744 12.0103C46.5237 12.0103 30.2589 19.0006 12.1332 50.5013L13.8668 51.4987C31.8612 20.2262 47.5987 14.0103 54.8744 14.0103V12.0103ZM79 20H54.8744V22H79V20ZM54.8744 21C54.74 20.0091 54.7394 20.0091 54.7389 20.0092C54.7386 20.0093 54.7379 20.0094 54.7374 20.0094C54.7363 20.0096 54.735 20.0098 54.7335 20.01C54.7304 20.0104 54.7264 20.011 54.7216 20.0117C54.7119 20.0131 54.6986 20.015 54.6819 20.0175C54.6485 20.0226 54.6011 20.03 54.5406 20.0402C54.4194 20.0606 54.2453 20.092 54.023 20.1374C53.5786 20.2281 52.9416 20.3748 52.1522 20.6013C50.5739 21.0541 48.3824 21.827 45.9012 23.112C40.9341 25.6844 34.8083 30.3087 30.1315 38.5044L31.8685 39.4956C36.322 31.6913 42.1334 27.3156 46.8209 24.888C49.167 23.673 51.2322 22.9459 52.7038 22.5237C53.4392 22.3127 54.0255 22.1781 54.423 22.097C54.6218 22.0564 54.7733 22.0292 54.8726 22.0125C54.9222 22.0041 54.9588 21.9984 54.9817 21.9949C54.9932 21.9932 55.0012 21.992 55.0058 21.9914C55.008 21.991 55.0094 21.9908 55.0099 21.9908C55.0102 21.9907 55.0102 21.9907 55.01 21.9908C55.01 21.9908 55.0096 21.9908 55.0096 21.9908C55.0092 21.9909 55.0088 21.9909 54.8744 21ZM31 39C31 40 31.0001 40 31.0003 40C31.0004 40 31.0007 40 31.001 40C31.0014 40 31.0018 40 31.0023 40C31.0029 40 31.0035 40 31.0042 40C31.0049 40 31.0056 40 31.0065 40C31.0074 40 31.0083 40 31.0094 40C31.0104 40 31.0115 40 31.0127 40C31.0139 40 31.0152 40 31.0166 40C31.018 40 31.0195 40 31.021 40C31.0226 40 31.0242 40 31.0259 40C31.0276 40 31.0294 40 31.0313 40C31.0332 40 31.0352 40 31.0372 40C31.0393 40 31.0414 40 31.0437 40C31.0459 40 31.0482 40 31.0506 40C31.053 40 31.0555 40 31.058 40C31.0606 40 31.0632 40 31.0659 40C31.0687 40 31.0715 40 31.0744 40C31.0773 40 31.0802 40 31.0833 40C31.0863 40 31.0895 40 31.0927 40C31.0959 40 31.0992 40 31.1026 40C31.106 40 31.1095 40 31.113 40C31.1166 40 31.1202 40 31.1239 40C31.1276 40 31.1314 40 31.1353 40C31.1392 40 31.1431 40 31.1472 40C31.1512 40 31.1553 40 31.1595 40C31.1637 40 31.168 40 31.1723 40C31.1767 40 31.1811 40 31.1857 40C31.1902 40 31.1948 40 31.1995 40C31.2041 40 31.2089 40 31.2137 40C31.2186 40 31.2235 40 31.2285 40C31.2335 40 31.2386 40 31.2437 40C31.2489 40 31.2541 40 31.2594 40C31.2648 40 31.2701 40 31.2756 40C31.2811 40 31.2866 40 31.2923 40C31.2979 40 31.3036 40 31.3094 40C31.3152 40 31.321 40 31.327 40C31.3329 40 31.3389 40 31.345 40C31.3511 40 31.3573 40 31.3635 40C31.3698 40 31.3761 40 31.3825 40C31.3889 40 31.3954 40 31.402 40C31.4085 40 31.4152 40 31.4219 40C31.4286 40 31.4354 40 31.4422 40C31.4491 40 31.456 40 31.4631 40C31.4701 40 31.4772 40 31.4843 40C31.4915 40 31.4987 40 31.5061 40C31.5134 40 31.5208 40 31.5282 40C31.5357 40 31.5432 40 31.5509 40C31.5585 40 31.5662 40 31.5739 40C31.5817 40 31.5896 40 31.5975 40C31.6054 40 31.6134 40 31.6214 40C31.6295 40 31.6376 40 31.6459 40C31.6541 40 31.6624 40 31.6707 40C31.6791 40 31.6875 40 31.696 40C31.7045 40 31.7131 40 31.7218 40C31.7304 40 31.7391 40 31.7479 40C31.7567 40 31.7656 40 31.7745 40C31.7835 40 31.7925 40 31.8016 40C31.8107 40 31.8198 40 31.8291 40C31.8383 40 31.8476 40 31.857 40C31.8664 40 31.8758 40 31.8853 40C31.8948 40 31.9044 40 31.9141 40C31.9237 40 31.9335 40 31.9433 40C31.9531 40 31.963 40 31.9729 40C31.9828 40 31.9929 40 32.0029 40C32.013 40 32.0232 40 32.0334 40C32.0436 40 32.0539 40 32.0643 40C32.0747 40 32.0851 40 32.0956 40C32.1061 40 32.1167 40 32.1273 40C32.138 40 32.1487 40 32.1595 40C32.1702 40 32.1811 40 32.192 40C32.2029 40 32.2139 40 32.225 40C32.236 40 32.2471 40 32.2583 40C32.2695 40 32.2808 40 32.2921 40C32.3034 40 32.3148 40 32.3263 40C32.3378 40 32.3493 40 32.3609 40C32.3725 40 32.3842 40 32.3959 40C32.4076 40 32.4194 40 32.4313 40C32.4432 40 32.4551 40 32.4671 40C32.4791 40 32.4912 40 32.5033 40C32.5154 40 32.5276 40 32.5399 40C32.5522 40 32.5645 40 32.5769 40C32.5893 40 32.6018 40 32.6143 40C32.6268 40 32.6394 40 32.6521 40C32.6647 40 32.6775 40 32.6902 40C32.703 40 32.7159 40 32.7288 40C32.7417 40 32.7547 40 32.7678 40C32.7808 40 32.7939 40 32.8071 40C32.8203 40 32.8335 40 32.8468 40C32.8601 40 32.8735 40 32.8869 40C32.9004 40 32.9139 40 32.9274 40C32.941 40 32.9546 40 32.9683 40C32.982 40 32.9957 40 33.0095 40C33.0234 40 33.0372 40 33.0512 40C33.0651 40 33.0791 40 33.0932 40C33.1072 40 33.1214 40 33.1356 40C33.1497 40 33.164 40 33.1783 40C33.1926 40 33.207 40 33.2214 40C33.2359 40 33.2504 40 33.2649 40C33.2795 40 33.2941 40 33.3088 40C33.3234 40 33.3382 40 33.353 40C33.3678 40 33.3826 40 33.3976 40C33.4125 40 33.4275 40 33.4425 40C33.4576 40 33.4727 40 33.4878 40C33.503 40 33.5182 40 33.5335 40C33.5488 40 33.5641 40 33.5795 40C33.5949 40 33.6104 40 33.6259 40C33.6414 40 33.657 40 33.6726 40C33.6883 40 33.704 40 33.7197 40C33.7355 40 33.7513 40 33.7672 40C33.7831 40 33.799 40 33.815 40C33.831 40 33.847 40 33.8631 40C33.8792 40 33.8954 40 33.9116 40C33.9278 40 33.9441 40 33.9604 40C33.9768 40 33.9932 40 34.0096 40C34.0261 40 34.0426 40 34.0591 40C34.0757 40 34.0923 40 34.109 40C34.1257 40 34.1424 40 34.1592 40C34.176 40 34.1928 40 34.2097 40C34.2266 40 34.2436 40 34.2606 40C34.2776 40 34.2947 40 34.3118 40C34.3289 40 34.3461 40 34.3634 40C34.3806 40 34.3979 40 34.4152 40C34.4326 40 34.45 40 34.4674 40C34.4849 40 34.5024 40 34.52 40C34.5375 40 34.5551 40 34.5728 40C34.5905 40 34.6082 40 34.626 40C34.6438 40 34.6616 40 34.6795 40C34.6974 40 34.7153 40 34.7333 40C34.7513 40 34.7693 40 34.7874 40C34.8055 40 34.8237 40 34.8419 40C34.8601 40 34.8784 40 34.8967 40C34.915 40 34.9334 40 34.9518 40C34.9702 40 34.9887 40 35.0072 40C35.0257 40 35.0443 40 35.0629 40C35.0815 40 35.1002 40 35.1189 40C35.1376 40 35.1564 40 35.1753 40C35.1941 40 35.213 40 35.2319 40C35.2508 40 35.2698 40 35.2888 40C35.3079 40 35.327 40 35.3461 40C35.3652 40 35.3844 40 35.4036 40C35.4229 40 35.4422 40 35.4615 40C35.4808 40 35.5002 40 35.5197 40C35.5391 40 35.5586 40 35.5781 40C35.5976 40 35.6172 40 35.6369 40C35.6565 40 35.6762 40 35.6959 40C35.7156 40 35.7354 40 35.7552 40C35.7751 40 35.7949 40 35.8148 40C35.8348 40 35.8547 40 35.8748 40C35.8948 40 35.9149 40 35.935 40C35.9551 40 35.9752 40 35.9955 40C36.0157 40 36.0359 40 36.0562 40C36.0765 40 36.0969 40 36.1173 40C36.1377 40 36.1581 40 36.1786 40C36.1991 40 36.2197 40 36.2402 40C36.2608 40 36.2815 40 36.3021 40C36.3228 40 36.3435 40 36.3643 40C36.3851 40 36.4059 40 36.4268 40C36.4476 40 36.4685 40 36.4895 40C36.5104 40 36.5314 40 36.5525 40C36.5735 40 36.5946 40 36.6157 40C36.6369 40 36.658 40 36.6793 40C36.7005 40 36.7218 40 36.7431 40C36.7644 40 36.7857 40 36.8071 40C36.8285 40 36.85 40 36.8715 40C36.8929 40 36.9145 40 36.936 40C36.9576 40 36.9792 40 37.0009 40C37.0226 40 37.0443 40 37.066 40C37.0878 40 37.1095 40 37.1314 40C37.1532 40 37.1751 40 37.197 40C37.2189 40 37.2409 40 37.2629 40C37.2849 40 37.3069 40 37.329 40C37.3511 40 37.3732 40 37.3954 40C37.4176 40 37.4398 40 37.462 40C37.4843 40 37.5066 40 37.5289 40C37.5513 40 37.5736 40 37.596 40C37.6185 40 37.6409 40 37.6634 40C37.6859 40 37.7085 40 37.731 40C37.7536 40 37.7762 40 37.7989 40C37.8215 40 37.8442 40 37.867 40C37.8897 40 37.9125 40 37.9353 40C37.9581 40 37.981 40 38.0039 40C38.0268 40 38.0497 40 38.0727 40C38.0957 40 38.1187 40 38.1417 40C38.1648 40 38.1879 40 38.211 40C38.2341 40 38.2573 40 38.2805 40C38.3037 40 38.327 40 38.3503 40C38.3735 40 38.3969 40 38.4202 40C38.4436 40 38.467 40 38.4904 40C38.5138 40 38.5373 40 38.5608 40C38.5843 40 38.6079 40 38.6315 40C38.655 40 38.6786 40 38.7023 40C38.726 40 38.7496 40 38.7734 40C38.7971 40 38.8209 40 38.8447 40C38.8685 40 38.8923 40 38.9162 40C38.94 40 38.964 40 38.9879 40C39.0118 40 39.0358 40 39.0598 40C39.0838 40 39.1079 40 39.132 40C39.1561 40 39.1802 40 39.2043 40C39.2285 40 39.2527 40 39.2769 40C39.3011 40 39.3254 40 39.3497 40C39.374 40 39.3983 40 39.4226 40C39.447 40 39.4714 40 39.4958 40C39.5203 40 39.5447 40 39.5692 40C39.5937 40 39.6182 40 39.6428 40C39.6674 40 39.6919 40 39.7166 40C39.7412 40 39.7659 40 39.7906 40C39.8152 40 39.84 40 39.8647 40C39.8895 40 39.9143 40 39.9391 40C39.9639 40 39.9888 40 40.0136 40C40.0385 40 40.0634 40 40.0884 40C40.1133 40 40.1383 40 40.1633 40C40.1884 40 40.2134 40 40.2385 40C40.2635 40 40.2886 40 40.3138 40C40.3389 40 40.3641 40 40.3893 40C40.4145 40 40.4397 40 40.465 40C40.4902 40 40.5155 40 40.5408 40C40.5661 40 40.5915 40 40.6169 40C40.6422 40 40.6676 40 40.6931 40C40.7185 40 40.744 40 40.7695 40C40.795 40 40.8205 40 40.846 40C40.8716 40 40.8972 40 40.9228 40C40.9484 40 40.974 40 40.9997 40C41.0254 40 41.0511 40 41.0768 40C41.1025 40 41.1283 40 41.154 40C41.1798 40 41.2056 40 41.2314 40C41.2573 40 41.2831 40 41.309 40C41.3349 40 41.3608 40 41.3868 40C41.4127 40 41.4387 40 41.4647 40C41.4907 40 41.5167 40 41.5428 40C41.5688 40 41.5949 40 41.621 40C41.6471 40 41.6732 40 41.6994 40C41.7255 40 41.7517 40 41.7779 40C41.8041 40 41.8304 40 41.8566 40C41.8829 40 41.9092 40 41.9355 40C41.9618 40 41.9881 40 42.0145 40C42.0408 40 42.0672 40 42.0936 40C42.12 40 42.1464 40 42.1729 40C42.1994 40 42.2258 40 42.2523 40C42.2789 40 42.3054 40 42.3319 40C42.3585 40 42.3851 40 42.4117 40C42.4383 40 42.4649 40 42.4915 40C42.5182 40 42.5449 40 42.5715 40C42.5982 40 42.625 40 42.6517 40C42.6784 40 42.7052 40 42.732 40C42.7588 40 42.7856 40 42.8124 40C42.8392 40 42.8661 40 42.893 40C42.9198 40 42.9467 40 42.9736 40C43.0006 40 43.0275 40 43.0545 40C43.0814 40 43.1084 40 43.1354 40C43.1624 40 43.1894 40 43.2165 40C43.2435 40 43.2706 40 43.2977 40C43.3247 40 43.3519 40 43.379 40C43.4061 40 43.4333 40 43.4604 40C43.4876 40 43.5148 40 43.542 40C43.5692 40 43.5964 40 43.6237 40C43.6509 40 43.6782 40 43.7055 40C43.7328 40 43.7601 40 43.7874 40C43.8147 40 43.8421 40 43.8694 40C43.8968 40 43.9242 40 43.9516 40C43.979 40 44.0064 40 44.0338 40C44.0612 40 44.0887 40 44.1162 40C44.1436 40 44.1711 40 44.1986 40C44.2262 40 44.2537 40 44.2812 40C44.3088 40 44.3363 40 44.3639 40C44.3915 40 44.4191 40 44.4467 40C44.4743 40 44.5019 40 44.5296 40C44.5572 40 44.5849 40 44.6126 40C44.6402 40 44.6679 40 44.6956 40C44.7233 40 44.7511 40 44.7788 40C44.8066 40 44.8343 40 44.8621 40C44.8899 40 44.9177 40 44.9455 40C44.9733 40 45.0011 40 45.0289 40C45.0568 40 45.0846 40 45.1125 40C45.1403 40 45.1682 40 45.1961 40C45.224 40 45.2519 40 45.2798 40C45.3078 40 45.3357 40 45.3637 40C45.3916 40 45.4196 40 45.4475 40C45.4755 40 45.5035 40 45.5315 40C45.5595 40 45.5876 40 45.6156 40C45.6436 40 45.6717 40 45.6997 40C45.7278 40 45.7559 40 45.7839 40C45.812 40 45.8401 40 45.8682 40C45.8963 40 45.9245 40 45.9526 40C45.9807 40 46.0089 40 46.037 40C46.0652 40 46.0934 40 46.1215 40C46.1497 40 46.1779 40 46.2061 40C46.2343 40 46.2626 40 46.2908 40C46.319 40 46.3472 40 46.3755 40C46.4037 40 46.432 40 46.4603 40C46.4885 40 46.5168 40 46.5451 40C46.5734 40 46.6017 40 46.63 40C46.6583 40 46.6866 40 46.715 40C46.7433 40 46.7717 40 46.8 40C46.8284 40 46.8567 40 46.8851 40C46.9135 40 46.9418 40 46.9702 40C46.9986 40 47.027 40 47.0554 40C47.0838 40 47.1122 40 47.1406 40C47.1691 40 47.1975 40 47.2259 40C47.2544 40 47.2828 40 47.3113 40C47.3397 40 47.3682 40 47.3967 40C47.4251 40 47.4536 40 47.4821 40C47.5106 40 47.5391 40 47.5676 40C47.5961 40 47.6246 40 47.6531 40C47.6816 40 47.7101 40 47.7387 40C47.7672 40 47.7957 40 47.8243 40C47.8528 40 47.8813 40 47.9099 40C47.9384 40 47.967 40 47.9956 40C48.0241 40 48.0527 40 48.0813 40C48.1098 40 48.1384 40 48.167 40C48.1956 40 48.2242 40 48.2528 40C48.2814 40 48.31 40 48.3386 40C48.3672 40 48.3958 40 48.4244 40C48.453 40 48.4816 40 48.5103 40C48.5389 40 48.5675 40 48.5962 40C48.6248 40 48.6534 40 48.6821 40C48.7107 40 48.7393 40 48.768 40C48.7966 40 48.8253 40 48.8539 40C48.8826 40 48.9112 40 48.9399 40C48.9686 40 48.9972 40 49.0259 40C49.0545 40 49.0832 40 49.1119 40C49.1405 40 49.1692 40 49.1979 40C49.2266 40 49.2552 40 49.2839 40C49.3126 40 49.3413 40 49.3699 40C49.3986 40 49.4273 40 49.456 40C49.4847 40 49.5134 40 49.542 40C49.5707 40 49.5994 40 49.6281 40C49.6568 40 49.6855 40 49.7142 40C49.7429 40 49.7715 40 49.8002 40C49.8289 40 49.8576 40 49.8863 40C49.915 40 49.9437 40 49.9724 40C50.001 40 50.0297 40 50.0584 40C50.0871 40 50.1158 40 50.1445 40C50.1732 40 50.2018 40 50.2305 40C50.2592 40 50.2879 40 50.3166 40C50.3453 40 50.3739 40 50.4026 40C50.4313 40 50.46 40 50.4886 40C50.5173 40 50.546 40 50.5747 40C50.6033 40 50.632 40 50.6607 40C50.6893 40 50.718 40 50.7467 40C50.7753 40 50.804 40 50.8326 40C50.8613 40 50.8899 40 50.9186 40C50.9472 40 50.9759 40 51.0045 40C51.0332 40 51.0618 40 51.0904 40C51.1191 40 51.1477 40 51.1763 40C51.2049 40 51.2336 40 51.2622 40C51.2908 40 51.3194 40 51.348 40C51.3766 40 51.4052 40 51.4338 40C51.4624 40 51.491 40 51.5196 40C51.5482 40 51.5768 40 51.6054 40C51.6339 40 51.6625 40 51.6911 40C51.7197 40 51.7482 40 51.7768 40C51.8053 40 51.8339 40 51.8624 40C51.891 40 51.9195 40 51.948 40C51.9766 40 52.0051 40 52.0336 40C52.0621 40 52.0906 40 52.1191 40C52.1476 40 52.1761 40 52.2046 40C52.2331 40 52.2616 40 52.2901 40C52.3186 40 52.347 40 52.3755 40C52.4039 40 52.4324 40 52.4608 40C52.4893 40 52.5177 40 52.5462 40C52.5746 40 52.603 40 52.6314 40C52.6598 40 52.6882 40 52.7166 40C52.745 40 52.7734 40 52.8018 40C52.8301 40 52.8585 40 52.8869 40C52.9152 40 52.9436 40 52.9719 40C53.0002 40 53.0286 40 53.0569 40C53.0852 40 53.1135 40 53.1418 40C53.1701 40 53.1984 40 53.2267 40C53.255 40 53.2832 40 53.3115 40C53.3397 40 53.368 40 53.3962 40C53.4245 40 53.4527 40 53.4809 40C53.5091 40 53.5373 40 53.5655 40C53.5937 40 53.6219 40 53.65 40C53.6782 40 53.7064 40 53.7345 40C53.7626 40 53.7908 40 53.8189 40C53.847 40 53.8751 40 53.9032 40C53.9313 40 53.9594 40 53.9874 40C54.0155 40 54.0436 40 54.0716 40C54.0997 40 54.1277 40 54.1557 40C54.1837 40 54.2117 40 54.2397 40C54.2677 40 54.2957 40 54.3236 40C54.3516 40 54.3795 40 54.4075 40C54.4354 40 54.4633 40 54.4912 40C54.5191 40 54.547 40 54.5749 40C54.6028 40 54.6306 40 54.6585 40C54.6863 40 54.7142 40 54.742 40C54.7698 40 54.7976 40 54.8254 40C54.8532 40 54.8809 40 54.9087 40C54.9364 40 54.9642 40 54.9919 40C55.0196 40 55.0473 40 55.075 40C55.1027 40 55.1304 40 55.158 40C55.1857 40 55.2133 40 55.241 40C55.2686 40 55.2962 40 55.3238 40C55.3514 40 55.3789 40 55.4065 40C55.4341 40 55.4616 40 55.4891 40C55.5166 40 55.5441 40 55.5716 40C55.5991 40 55.6266 40 55.654 40C55.6815 40 55.7089 40 55.7363 40C55.7637 40 55.7911 40 55.8185 40C55.8459 40 55.8732 40 55.9006 40C55.9279 40 55.9552 40 55.9825 40C56.0098 40 56.0371 40 56.0644 40C56.0916 40 56.1189 40 56.1461 40C56.1733 40 56.2005 40 56.2277 40C56.2549 40 56.282 40 56.3092 40C56.3363 40 56.3634 40 56.3905 40C56.4176 40 56.4447 40 56.4718 40C56.4988 40 56.5259 40 56.5529 40C56.5799 40 56.6069 40 56.6339 40C56.6608 40 56.6878 40 56.7147 40C56.7417 40 56.7686 40 56.7955 40C56.8223 40 56.8492 40 56.8761 40C56.9029 40 56.9297 40 56.9565 40C56.9833 40 57.0101 40 57.0369 40C57.0636 40 57.0903 40 57.1171 40C57.1438 40 57.1705 40 57.1971 40C57.2238 40 57.2504 40 57.277 40C57.3037 40 57.3302 40 57.3568 40C57.3834 40 57.4099 40 57.4365 40C57.463 40 57.4895 40 57.5159 40C57.5424 40 57.5689 40 57.5953 40C57.6217 40 57.6481 40 57.6745 40C57.7009 40 57.7272 40 57.7535 40C57.7799 40 57.8062 40 57.8324 40C57.8587 40 57.885 40 57.9112 40C57.9374 40 57.9636 40 57.9898 40C58.016 40 58.0421 40 58.0682 40C58.0944 40 58.1204 40 58.1465 40C58.1726 40 58.1986 40 58.2246 40C58.2507 40 58.2766 40 58.3026 40C58.3286 40 58.3545 40 58.3804 40C58.4063 40 58.4322 40 58.4581 40C58.4839 40 58.5097 40 58.5355 40C58.5613 40 58.5871 40 58.6128 40C58.6386 40 58.6643 40 58.69 40C58.7157 40 58.7413 40 58.767 40C58.7926 40 58.8182 40 58.8438 40C58.8693 40 58.8949 40 58.9204 40C58.9459 40 58.9714 40 58.9968 40C59.0223 40 59.0477 40 59.0731 40C59.0985 40 59.1239 40 59.1492 40C59.1746 40 59.1999 40 59.2252 40C59.2504 40 59.2757 40 59.3009 40C59.3261 40 59.3513 40 59.3765 40C59.4016 40 59.4267 40 59.4518 40C59.4769 40 59.502 40 59.527 40C59.5521 40 59.5771 40 59.602 40C59.627 40 59.6519 40 59.6768 40C59.7018 40 59.7266 40 59.7515 40C59.7763 40 59.8011 40 59.8259 40C59.8507 40 59.8754 40 59.9001 40C59.9249 40 59.9495 40 59.9742 40C59.9988 40 60.0235 40 60.048 40C60.0726 40 60.0972 40 60.1217 40C60.1462 40 60.1707 40 60.1951 40C60.2196 40 60.244 40 60.2684 40C60.2928 40 60.3171 40 60.3414 40C60.3658 40 60.39 40 60.4143 40C60.4385 40 60.4627 40 60.4869 40C60.5111 40 60.5352 40 60.5594 40C60.5835 40 60.6075 40 60.6316 40C60.6556 40 60.6796 40 60.7036 40C60.7276 40 60.7515 40 60.7754 40C60.7993 40 60.8231 40 60.847 40C60.8708 40 60.8946 40 60.9183 40C60.9421 40 60.9658 40 60.9895 40C61.0132 40 61.0368 40 61.0604 40C61.084 40 61.1076 40 61.1311 40C61.1547 40 61.1782 40 61.2016 40C61.2251 40 61.2485 40 61.2719 40C61.2953 40 61.3186 40 61.3419 40C61.3652 40 61.3885 40 61.4117 40C61.435 40 61.4582 40 61.4813 40C61.5045 40 61.5276 40 61.5507 40C61.5737 40 61.5968 40 61.6198 40C61.6428 40 61.6658 40 61.6887 40C61.7116 40 61.7345 40 61.7573 40C61.7802 40 61.803 40 61.8258 40C61.8485 40 61.8712 40 61.8939 40C61.9166 40 61.9393 40 61.9619 40C61.9845 40 62.007 40 62.0296 40C62.0521 40 62.0746 40 62.097 40C62.1195 40 62.1419 40 62.1642 40C62.1866 40 62.2089 40 62.2312 40C62.2535 40 62.2757 40 62.2979 40C62.3201 40 62.3423 40 62.3644 40C62.3865 40 62.4086 40 62.4306 40C62.4527 40 62.4746 40 62.4966 40C62.5185 40 62.5404 40 62.5623 40C62.5842 40 62.606 40 62.6278 40C62.6495 40 62.6713 40 62.693 40C62.7147 40 62.7363 40 62.7579 40C62.7795 40 62.8011 40 62.8226 40C62.8441 40 62.8656 40 62.887 40C62.9084 40 62.9298 40 62.9512 40C62.9725 40 62.9938 40 63.0151 40C63.0363 40 63.0575 40 63.0787 40C63.0999 40 63.121 40 63.142 40C63.1631 40 63.1842 40 63.2051 40C63.2261 40 63.2471 40 63.268 40C63.2888 40 63.3097 40 63.3305 40C63.3513 40 63.3721 40 63.3928 40C63.4135 40 63.4341 40 63.4548 40C63.4754 40 63.4959 40 63.5165 40C63.537 40 63.5575 40 63.5779 40C63.5983 40 63.6187 40 63.6391 40C63.6594 40 63.6797 40 63.6999 40C63.7202 40 63.7404 40 63.7605 40C63.7807 40 63.8008 40 63.8208 40C63.8409 40 63.8609 40 63.8808 40C63.9008 40 63.9207 40 63.9406 40C63.9604 40 63.9802 40 64 40V38C63.9802 38 63.9604 38 63.9406 38C63.9207 38 63.9008 38 63.8808 38C63.8609 38 63.8409 38 63.8208 38C63.8008 38 63.7807 38 63.7605 38C63.7404 38 63.7202 38 63.6999 38C63.6797 38 63.6594 38 63.6391 38C63.6187 38 63.5983 38 63.5779 38C63.5575 38 63.537 38 63.5165 38C63.4959 38 63.4754 38 63.4548 38C63.4341 38 63.4135 38 63.3928 38C63.3721 38 63.3513 38 63.3305 38C63.3097 38 63.2888 38 63.268 38C63.2471 38 63.2261 38 63.2051 38C63.1842 38 63.1631 38 63.142 38C63.121 38 63.0999 38 63.0787 38C63.0575 38 63.0363 38 63.0151 38C62.9938 38 62.9725 38 62.9512 38C62.9298 38 62.9084 38 62.887 38C62.8656 38 62.8441 38 62.8226 38C62.8011 38 62.7795 38 62.7579 38C62.7363 38 62.7147 38 62.693 38C62.6713 38 62.6495 38 62.6278 38C62.606 38 62.5842 38 62.5623 38C62.5404 38 62.5185 38 62.4966 38C62.4746 38 62.4527 38 62.4306 38C62.4086 38 62.3865 38 62.3644 38C62.3423 38 62.3201 38 62.2979 38C62.2757 38 62.2535 38 62.2312 38C62.2089 38 62.1866 38 62.1642 38C62.1419 38 62.1195 38 62.097 38C62.0746 38 62.0521 38 62.0296 38C62.007 38 61.9845 38 61.9619 38C61.9393 38 61.9166 38 61.8939 38C61.8712 38 61.8485 38 61.8258 38C61.803 38 61.7802 38 61.7573 38C61.7345 38 61.7116 38 61.6887 38C61.6658 38 61.6428 38 61.6198 38C61.5968 38 61.5737 38 61.5507 38C61.5276 38 61.5045 38 61.4813 38C61.4582 38 61.435 38 61.4117 38C61.3885 38 61.3652 38 61.3419 38C61.3186 38 61.2953 38 61.2719 38C61.2485 38 61.2251 38 61.2016 38C61.1782 38 61.1547 38 61.1311 38C61.1076 38 61.084 38 61.0604 38C61.0368 38 61.0132 38 60.9895 38C60.9658 38 60.9421 38 60.9183 38C60.8946 38 60.8708 38 60.847 38C60.8231 38 60.7993 38 60.7754 38C60.7515 38 60.7276 38 60.7036 38C60.6796 38 60.6556 38 60.6316 38C60.6075 38 60.5835 38 60.5594 38C60.5352 38 60.5111 38 60.4869 38C60.4627 38 60.4385 38 60.4143 38C60.39 38 60.3658 38 60.3414 38C60.3171 38 60.2928 38 60.2684 38C60.244 38 60.2196 38 60.1951 38C60.1707 38 60.1462 38 60.1217 38C60.0972 38 60.0726 38 60.048 38C60.0235 38 59.9988 38 59.9742 38C59.9495 38 59.9249 38 59.9001 38C59.8754 38 59.8507 38 59.8259 38C59.8011 38 59.7763 38 59.7515 38C59.7266 38 59.7018 38 59.6768 38C59.6519 38 59.627 38 59.602 38C59.5771 38 59.5521 38 59.527 38C59.502 38 59.4769 38 59.4518 38C59.4267 38 59.4016 38 59.3765 38C59.3513 38 59.3261 38 59.3009 38C59.2757 38 59.2504 38 59.2252 38C59.1999 38 59.1746 38 59.1492 38C59.1239 38 59.0985 38 59.0731 38C59.0477 38 59.0223 38 58.9968 38C58.9714 38 58.9459 38 58.9204 38C58.8949 38 58.8693 38 58.8438 38C58.8182 38 58.7926 38 58.767 38C58.7413 38 58.7157 38 58.69 38C58.6643 38 58.6386 38 58.6128 38C58.5871 38 58.5613 38 58.5355 38C58.5097 38 58.4839 38 58.4581 38C58.4322 38 58.4063 38 58.3804 38C58.3545 38 58.3286 38 58.3026 38C58.2766 38 58.2507 38 58.2246 38C58.1986 38 58.1726 38 58.1465 38C58.1204 38 58.0944 38 58.0682 38C58.0421 38 58.016 38 57.9898 38C57.9636 38 57.9374 38 57.9112 38C57.885 38 57.8587 38 57.8324 38C57.8062 38 57.7799 38 57.7535 38C57.7272 38 57.7009 38 57.6745 38C57.6481 38 57.6217 38 57.5953 38C57.5689 38 57.5424 38 57.5159 38C57.4895 38 57.463 38 57.4365 38C57.4099 38 57.3834 38 57.3568 38C57.3302 38 57.3037 38 57.277 38C57.2504 38 57.2238 38 57.1971 38C57.1705 38 57.1438 38 57.1171 38C57.0903 38 57.0636 38 57.0369 38C57.0101 38 56.9833 38 56.9565 38C56.9297 38 56.9029 38 56.8761 38C56.8492 38 56.8223 38 56.7955 38C56.7686 38 56.7417 38 56.7147 38C56.6878 38 56.6608 38 56.6339 38C56.6069 38 56.5799 38 56.5529 38C56.5259 38 56.4988 38 56.4718 38C56.4447 38 56.4176 38 56.3905 38C56.3634 38 56.3363 38 56.3092 38C56.282 38 56.2549 38 56.2277 38C56.2005 38 56.1733 38 56.1461 38C56.1189 38 56.0916 38 56.0644 38C56.0371 38 56.0098 38 55.9825 38C55.9552 38 55.9279 38 55.9006 38C55.8732 38 55.8459 38 55.8185 38C55.7911 38 55.7637 38 55.7363 38C55.7089 38 55.6815 38 55.654 38C55.6266 38 55.5991 38 55.5716 38C55.5441 38 55.5166 38 55.4891 38C55.4616 38 55.4341 38 55.4065 38C55.3789 38 55.3514 38 55.3238 38C55.2962 38 55.2686 38 55.241 38C55.2133 38 55.1857 38 55.158 38C55.1304 38 55.1027 38 55.075 38C55.0473 38 55.0196 38 54.9919 38C54.9642 38 54.9364 38 54.9087 38C54.8809 38 54.8532 38 54.8254 38C54.7976 38 54.7698 38 54.742 38C54.7142 38 54.6863 38 54.6585 38C54.6306 38 54.6028 38 54.5749 38C54.547 38 54.5191 38 54.4912 38C54.4633 38 54.4354 38 54.4075 38C54.3795 38 54.3516 38 54.3236 38C54.2957 38 54.2677 38 54.2397 38C54.2117 38 54.1837 38 54.1557 38C54.1277 38 54.0997 38 54.0716 38C54.0436 38 54.0155 38 53.9874 38C53.9594 38 53.9313 38 53.9032 38C53.8751 38 53.847 38 53.8189 38C53.7908 38 53.7626 38 53.7345 38C53.7064 38 53.6782 38 53.65 38C53.6219 38 53.5937 38 53.5655 38C53.5373 38 53.5091 38 53.4809 38C53.4527 38 53.4245 38 53.3962 38C53.368 38 53.3397 38 53.3115 38C53.2832 38 53.255 38 53.2267 38C53.1984 38 53.1701 38 53.1418 38C53.1135 38 53.0852 38 53.0569 38C53.0286 38 53.0002 38 52.9719 38C52.9436 38 52.9152 38 52.8869 38C52.8585 38 52.8301 38 52.8018 38C52.7734 38 52.745 38 52.7166 38C52.6882 38 52.6598 38 52.6314 38C52.603 38 52.5746 38 52.5462 38C52.5177 38 52.4893 38 52.4608 38C52.4324 38 52.4039 38 52.3755 38C52.347 38 52.3186 38 52.2901 38C52.2616 38 52.2331 38 52.2046 38C52.1761 38 52.1476 38 52.1191 38C52.0906 38 52.0621 38 52.0336 38C52.0051 38 51.9766 38 51.948 38C51.9195 38 51.891 38 51.8624 38C51.8339 38 51.8053 38 51.7768 38C51.7482 38 51.7197 38 51.6911 38C51.6625 38 51.6339 38 51.6054 38C51.5768 38 51.5482 38 51.5196 38C51.491 38 51.4624 38 51.4338 38C51.4052 38 51.3766 38 51.348 38C51.3194 38 51.2908 38 51.2622 38C51.2336 38 51.2049 38 51.1763 38C51.1477 38 51.1191 38 51.0904 38C51.0618 38 51.0332 38 51.0045 38C50.9759 38 50.9472 38 50.9186 38C50.8899 38 50.8613 38 50.8326 38C50.804 38 50.7753 38 50.7467 38C50.718 38 50.6893 38 50.6607 38C50.632 38 50.6033 38 50.5747 38C50.546 38 50.5173 38 50.4886 38C50.46 38 50.4313 38 50.4026 38C50.3739 38 50.3453 38 50.3166 38C50.2879 38 50.2592 38 50.2305 38C50.2018 38 50.1732 38 50.1445 38C50.1158 38 50.0871 38 50.0584 38C50.0297 38 50.001 38 49.9724 38C49.9437 38 49.915 38 49.8863 38C49.8576 38 49.8289 38 49.8002 38C49.7715 38 49.7429 38 49.7142 38C49.6855 38 49.6568 38 49.6281 38C49.5994 38 49.5707 38 49.542 38C49.5134 38 49.4847 38 49.456 38C49.4273 38 49.3986 38 49.3699 38C49.3413 38 49.3126 38 49.2839 38C49.2552 38 49.2266 38 49.1979 38C49.1692 38 49.1405 38 49.1119 38C49.0832 38 49.0545 38 49.0259 38C48.9972 38 48.9686 38 48.9399 38C48.9112 38 48.8826 38 48.8539 38C48.8253 38 48.7966 38 48.768 38C48.7393 38 48.7107 38 48.6821 38C48.6534 38 48.6248 38 48.5962 38C48.5675 38 48.5389 38 48.5103 38C48.4816 38 48.453 38 48.4244 38C48.3958 38 48.3672 38 48.3386 38C48.31 38 48.2814 38 48.2528 38C48.2242 38 48.1956 38 48.167 38C48.1384 38 48.1098 38 48.0813 38C48.0527 38 48.0241 38 47.9956 38C47.967 38 47.9384 38 47.9099 38C47.8813 38 47.8528 38 47.8243 38C47.7957 38 47.7672 38 47.7387 38C47.7101 38 47.6816 38 47.6531 38C47.6246 38 47.5961 38 47.5676 38C47.5391 38 47.5106 38 47.4821 38C47.4536 38 47.4251 38 47.3967 38C47.3682 38 47.3397 38 47.3113 38C47.2828 38 47.2544 38 47.2259 38C47.1975 38 47.1691 38 47.1406 38C47.1122 38 47.0838 38 47.0554 38C47.027 38 46.9986 38 46.9702 38C46.9418 38 46.9135 38 46.8851 38C46.8567 38 46.8284 38 46.8 38C46.7717 38 46.7433 38 46.715 38C46.6866 38 46.6583 38 46.63 38C46.6017 38 46.5734 38 46.5451 38C46.5168 38 46.4885 38 46.4603 38C46.432 38 46.4037 38 46.3755 38C46.3472 38 46.319 38 46.2908 38C46.2626 38 46.2343 38 46.2061 38C46.1779 38 46.1497 38 46.1215 38C46.0934 38 46.0652 38 46.037 38C46.0089 38 45.9807 38 45.9526 38C45.9245 38 45.8963 38 45.8682 38C45.8401 38 45.812 38 45.7839 38C45.7559 38 45.7278 38 45.6997 38C45.6717 38 45.6436 38 45.6156 38C45.5876 38 45.5595 38 45.5315 38C45.5035 38 45.4755 38 45.4475 38C45.4196 38 45.3916 38 45.3637 38C45.3357 38 45.3078 38 45.2798 38C45.2519 38 45.224 38 45.1961 38C45.1682 38 45.1403 38 45.1125 38C45.0846 38 45.0568 38 45.0289 38C45.0011 38 44.9733 38 44.9455 38C44.9177 38 44.8899 38 44.8621 38C44.8343 38 44.8066 38 44.7788 38C44.7511 38 44.7233 38 44.6956 38C44.6679 38 44.6402 38 44.6126 38C44.5849 38 44.5572 38 44.5296 38C44.5019 38 44.4743 38 44.4467 38C44.4191 38 44.3915 38 44.3639 38C44.3363 38 44.3088 38 44.2812 38C44.2537 38 44.2262 38 44.1986 38C44.1711 38 44.1436 38 44.1162 38C44.0887 38 44.0612 38 44.0338 38C44.0064 38 43.979 38 43.9516 38C43.9242 38 43.8968 38 43.8694 38C43.8421 38 43.8147 38 43.7874 38C43.7601 38 43.7328 38 43.7055 38C43.6782 38 43.6509 38 43.6237 38C43.5964 38 43.5692 38 43.542 38C43.5148 38 43.4876 38 43.4604 38C43.4333 38 43.4061 38 43.379 38C43.3519 38 43.3247 38 43.2977 38C43.2706 38 43.2435 38 43.2165 38C43.1894 38 43.1624 38 43.1354 38C43.1084 38 43.0814 38 43.0545 38C43.0275 38 43.0006 38 42.9736 38C42.9467 38 42.9198 38 42.893 38C42.8661 38 42.8392 38 42.8124 38C42.7856 38 42.7588 38 42.732 38C42.7052 38 42.6784 38 42.6517 38C42.625 38 42.5982 38 42.5715 38C42.5449 38 42.5182 38 42.4915 38C42.4649 38 42.4383 38 42.4117 38C42.3851 38 42.3585 38 42.3319 38C42.3054 38 42.2789 38 42.2523 38C42.2258 38 42.1994 38 42.1729 38C42.1464 38 42.12 38 42.0936 38C42.0672 38 42.0408 38 42.0145 38C41.9881 38 41.9618 38 41.9355 38C41.9092 38 41.8829 38 41.8566 38C41.8304 38 41.8041 38 41.7779 38C41.7517 38 41.7255 38 41.6994 38C41.6732 38 41.6471 38 41.621 38C41.5949 38 41.5688 38 41.5428 38C41.5167 38 41.4907 38 41.4647 38C41.4387 38 41.4127 38 41.3868 38C41.3608 38 41.3349 38 41.309 38C41.2831 38 41.2573 38 41.2314 38C41.2056 38 41.1798 38 41.154 38C41.1283 38 41.1025 38 41.0768 38C41.0511 38 41.0254 38 40.9997 38C40.974 38 40.9484 38 40.9228 38C40.8972 38 40.8716 38 40.846 38C40.8205 38 40.795 38 40.7695 38C40.744 38 40.7185 38 40.6931 38C40.6676 38 40.6422 38 40.6169 38C40.5915 38 40.5661 38 40.5408 38C40.5155 38 40.4902 38 40.465 38C40.4397 38 40.4145 38 40.3893 38C40.3641 38 40.3389 38 40.3138 38C40.2886 38 40.2635 38 40.2385 38C40.2134 38 40.1884 38 40.1633 38C40.1383 38 40.1133 38 40.0884 38C40.0634 38 40.0385 38 40.0136 38C39.9888 38 39.9639 38 39.9391 38C39.9143 38 39.8895 38 39.8647 38C39.84 38 39.8152 38 39.7906 38C39.7659 38 39.7412 38 39.7166 38C39.6919 38 39.6674 38 39.6428 38C39.6182 38 39.5937 38 39.5692 38C39.5447 38 39.5203 38 39.4958 38C39.4714 38 39.447 38 39.4226 38C39.3983 38 39.374 38 39.3497 38C39.3254 38 39.3011 38 39.2769 38C39.2527 38 39.2285 38 39.2043 38C39.1802 38 39.1561 38 39.132 38C39.1079 38 39.0838 38 39.0598 38C39.0358 38 39.0118 38 38.9879 38C38.964 38 38.94 38 38.9162 38C38.8923 38 38.8685 38 38.8447 38C38.8209 38 38.7971 38 38.7734 38C38.7496 38 38.726 38 38.7023 38C38.6786 38 38.655 38 38.6315 38C38.6079 38 38.5843 38 38.5608 38C38.5373 38 38.5138 38 38.4904 38C38.467 38 38.4436 38 38.4202 38C38.3969 38 38.3735 38 38.3503 38C38.327 38 38.3037 38 38.2805 38C38.2573 38 38.2341 38 38.211 38C38.1879 38 38.1648 38 38.1417 38C38.1187 38 38.0957 38 38.0727 38C38.0497 38 38.0268 38 38.0039 38C37.981 38 37.9581 38 37.9353 38C37.9125 38 37.8897 38 37.867 38C37.8442 38 37.8215 38 37.7989 38C37.7762 38 37.7536 38 37.731 38C37.7085 38 37.6859 38 37.6634 38C37.6409 38 37.6185 38 37.596 38C37.5736 38 37.5513 38 37.5289 38C37.5066 38 37.4843 38 37.462 38C37.4398 38 37.4176 38 37.3954 38C37.3732 38 37.3511 38 37.329 38C37.3069 38 37.2849 38 37.2629 38C37.2409 38 37.2189 38 37.197 38C37.1751 38 37.1532 38 37.1314 38C37.1095 38 37.0878 38 37.066 38C37.0443 38 37.0226 38 37.0009 38C36.9792 38 36.9576 38 36.936 38C36.9145 38 36.8929 38 36.8715 38C36.85 38 36.8285 38 36.8071 38C36.7857 38 36.7644 38 36.7431 38C36.7218 38 36.7005 38 36.6793 38C36.658 38 36.6369 38 36.6157 38C36.5946 38 36.5735 38 36.5525 38C36.5314 38 36.5104 38 36.4895 38C36.4685 38 36.4476 38 36.4268 38C36.4059 38 36.3851 38 36.3643 38C36.3435 38 36.3228 38 36.3021 38C36.2815 38 36.2608 38 36.2402 38C36.2197 38 36.1991 38 36.1786 38C36.1581 38 36.1377 38 36.1173 38C36.0969 38 36.0765 38 36.0562 38C36.0359 38 36.0157 38 35.9955 38C35.9752 38 35.9551 38 35.935 38C35.9149 38 35.8948 38 35.8748 38C35.8547 38 35.8348 38 35.8148 38C35.7949 38 35.7751 38 35.7552 38C35.7354 38 35.7156 38 35.6959 38C35.6762 38 35.6565 38 35.6369 38C35.6172 38 35.5976 38 35.5781 38C35.5586 38 35.5391 38 35.5197 38C35.5002 38 35.4808 38 35.4615 38C35.4422 38 35.4229 38 35.4036 38C35.3844 38 35.3652 38 35.3461 38C35.327 38 35.3079 38 35.2888 38C35.2698 38 35.2508 38 35.2319 38C35.213 38 35.1941 38 35.1753 38C35.1564 38 35.1376 38 35.1189 38C35.1002 38 35.0815 38 35.0629 38C35.0443 38 35.0257 38 35.0072 38C34.9887 38 34.9702 38 34.9518 38C34.9334 38 34.915 38 34.8967 38C34.8784 38 34.8601 38 34.8419 38C34.8237 38 34.8055 38 34.7874 38C34.7693 38 34.7513 38 34.7333 38C34.7153 38 34.6974 38 34.6795 38C34.6616 38 34.6438 38 34.626 38C34.6082 38 34.5905 38 34.5728 38C34.5551 38 34.5375 38 34.52 38C34.5024 38 34.4849 38 34.4674 38C34.45 38 34.4326 38 34.4152 38C34.3979 38 34.3806 38 34.3634 38C34.3461 38 34.3289 38 34.3118 38C34.2947 38 34.2776 38 34.2606 38C34.2436 38 34.2266 38 34.2097 38C34.1928 38 34.176 38 34.1592 38C34.1424 38 34.1257 38 34.109 38C34.0923 38 34.0757 38 34.0591 38C34.0426 38 34.0261 38 34.0096 38C33.9932 38 33.9768 38 33.9604 38C33.9441 38 33.9278 38 33.9116 38C33.8954 38 33.8792 38 33.8631 38C33.847 38 33.831 38 33.815 38C33.799 38 33.7831 38 33.7672 38C33.7513 38 33.7355 38 33.7197 38C33.704 38 33.6883 38 33.6726 38C33.657 38 33.6414 38 33.6259 38C33.6104 38 33.5949 38 33.5795 38C33.5641 38 33.5488 38 33.5335 38C33.5182 38 33.503 38 33.4878 38C33.4727 38 33.4576 38 33.4425 38C33.4275 38 33.4125 38 33.3976 38C33.3826 38 33.3678 38 33.353 38C33.3382 38 33.3234 38 33.3088 38C33.2941 38 33.2795 38 33.2649 38C33.2504 38 33.2359 38 33.2214 38C33.207 38 33.1926 38 33.1783 38C33.164 38 33.1497 38 33.1356 38C33.1214 38 33.1072 38 33.0932 38C33.0791 38 33.0651 38 33.0512 38C33.0372 38 33.0234 38 33.0095 38C32.9957 38 32.982 38 32.9683 38C32.9546 38 32.941 38 32.9274 38C32.9139 38 32.9004 38 32.8869 38C32.8735 38 32.8601 38 32.8468 38C32.8335 38 32.8203 38 32.8071 38C32.7939 38 32.7808 38 32.7678 38C32.7547 38 32.7417 38 32.7288 38C32.7159 38 32.703 38 32.6902 38C32.6775 38 32.6647 38 32.6521 38C32.6394 38 32.6268 38 32.6143 38C32.6018 38 32.5893 38 32.5769 38C32.5645 38 32.5522 38 32.5399 38C32.5276 38 32.5154 38 32.5033 38C32.4912 38 32.4791 38 32.4671 38C32.4551 38 32.4432 38 32.4313 38C32.4194 38 32.4076 38 32.3959 38C32.3842 38 32.3725 38 32.3609 38C32.3493 38 32.3378 38 32.3263 38C32.3148 38 32.3034 38 32.2921 38C32.2808 38 32.2695 38 32.2583 38C32.2471 38 32.236 38 32.225 38C32.2139 38 32.2029 38 32.192 38C32.1811 38 32.1702 38 32.1595 38C32.1487 38 32.138 38 32.1273 38C32.1167 38 32.1061 38 32.0956 38C32.0851 38 32.0747 38 32.0643 38C32.0539 38 32.0436 38 32.0334 38C32.0232 38 32.013 38 32.0029 38C31.9929 38 31.9828 38 31.9729 38C31.963 38 31.9531 38 31.9433 38C31.9335 38 31.9237 38 31.9141 38C31.9044 38 31.8948 38 31.8853 38C31.8758 38 31.8664 38 31.857 38C31.8476 38 31.8383 38 31.8291 38C31.8198 38 31.8107 38 31.8016 38C31.7925 38 31.7835 38 31.7745 38C31.7656 38 31.7567 38 31.7479 38C31.7391 38 31.7304 38 31.7218 38C31.7131 38 31.7045 38 31.696 38C31.6875 38 31.6791 38 31.6707 38C31.6624 38 31.6541 38 31.6459 38C31.6376 38 31.6295 38 31.6214 38C31.6134 38 31.6054 38 31.5975 38C31.5896 38 31.5817 38 31.5739 38C31.5662 38 31.5585 38 31.5509 38C31.5432 38 31.5357 38 31.5282 38C31.5208 38 31.5134 38 31.5061 38C31.4987 38 31.4915 38 31.4843 38C31.4772 38 31.4701 38 31.4631 38C31.456 38 31.4491 38 31.4422 38C31.4354 38 31.4286 38 31.4219 38C31.4152 38 31.4085 38 31.402 38C31.3954 38 31.3889 38 31.3825 38C31.3761 38 31.3698 38 31.3635 38C31.3573 38 31.3511 38 31.345 38C31.3389 38 31.3329 38 31.327 38C31.321 38 31.3152 38 31.3094 38C31.3036 38 31.2979 38 31.2923 38C31.2866 38 31.2811 38 31.2756 38C31.2701 38 31.2648 38 31.2594 38C31.2541 38 31.2489 38 31.2437 38C31.2386 38 31.2335 38 31.2285 38C31.2235 38 31.2186 38 31.2137 38C31.2089 38 31.2041 38 31.1995 38C31.1948 38 31.1902 38 31.1857 38C31.1811 38 31.1767 38 31.1723 38C31.168 38 31.1637 38 31.1595 38C31.1553 38 31.1512 38 31.1472 38C31.1431 38 31.1392 38 31.1353 38C31.1314 38 31.1276 38 31.1239 38C31.1202 38 31.1166 38 31.113 38C31.1095 38 31.106 38 31.1026 38C31.0992 38 31.0959 38 31.0927 38C31.0895 38 31.0863 38 31.0833 38C31.0802 38 31.0773 38 31.0744 38C31.0715 38 31.0687 38 31.0659 38C31.0632 38 31.0606 38 31.058 38C31.0555 38 31.053 38 31.0506 38C31.0482 38 31.0459 38 31.0437 38C31.0414 38 31.0393 38 31.0372 38C31.0352 38 31.0332 38 31.0313 38C31.0294 38 31.0276 38 31.0259 38C31.0242 38 31.0226 38 31.021 38C31.0195 38 31.018 38 31.0166 38C31.0152 38 31.0139 38 31.0127 38C31.0115 38 31.0104 38 31.0094 38C31.0083 38 31.0074 38 31.0065 38C31.0056 38 31.0049 38 31.0042 38C31.0035 38 31.0029 38 31.0023 38C31.0018 38 31.0014 38 31.001 38C31.0007 38 31.0004 38 31.0003 38C31.0001 38 31 38 31 39ZM64.9215 39.3884C65.3275 38.4252 66.1545 37.4888 67.3148 36.6081C68.4672 35.7333 69.8862 34.9605 71.3792 34.3048C74.3739 32.9897 77.533 32.2029 79.1312 31.9914L78.8688 30.0086C77.0728 30.2464 73.7319 31.0873 70.5751 32.4737C68.9924 33.1687 67.4228 34.0151 66.1056 35.015C64.7962 36.0089 63.6725 37.2025 63.0785 38.6116L64.9215 39.3884ZM80 31V21H78V31H80ZM46.0759 39V33H44.0759V39H46.0759ZM45.0759 34H57V32H45.0759V34ZM56 33V39H58V33H56ZM30.5422 25.3888L27.7376 22.3248L26.2624 23.6752L29.0669 26.7392L30.5422 25.3888ZM27.7071 23.7071L31.7071 19.7071L30.2929 18.2929L26.2929 22.2929L27.7071 23.7071ZM30.3152 19.7287L33.5074 22.7287L34.877 21.2713L31.6848 18.2713L30.3152 19.7287ZM74 13.0103V7H72V13.0103H74ZM73 8H81V6H73V8ZM80 7V13.0103H82V7H80ZM78 7C78 5.15414 78.4608 3.95343 79.2071 3.20711C79.9534 2.46079 81.1541 2 83 2V0C80.8459 0 79.0466 0.539213 77.7929 1.79289C76.5392 3.04657 76 4.84586 76 7H78ZM83 2H88V0H83V2ZM0.396548 70.0109L4.9158 73.4309L6.12271 71.8361L1.60345 68.4161L0.396548 70.0109ZM4.91276 73.4286C7.04322 75.0537 9.88642 75.0406 12.0637 73.4391L10.8786 71.828C9.39316 72.9206 7.52718 72.9074 6.12575 71.8384L4.91276 73.4286ZM12.0674 73.4363L15.5993 70.813L14.4068 69.2075L10.8749 71.8307L12.0674 73.4363ZM15.6095 70.8053C17.0109 69.7363 18.8769 69.7232 20.3624 70.8158L21.5474 69.2047C19.3702 67.6032 16.527 67.59 14.3965 69.2152L15.6095 70.8053ZM20.3586 70.813L23.8905 73.4363L25.0831 71.8307L21.5512 69.2075L20.3586 70.813ZM23.8803 73.4286C26.0108 75.0537 28.854 75.0406 31.0312 73.4391L29.8461 71.828C28.3607 72.9206 26.4947 72.9074 25.0933 71.8384L23.8803 73.4286ZM31.0349 73.4363L34.5668 70.813L33.3743 69.2075L29.8424 71.8307L31.0349 73.4363ZM34.5771 70.8053C35.9785 69.7363 37.8445 69.7232 39.3299 70.8158L40.515 69.2047C38.3377 67.6032 35.4945 67.59 33.3641 69.2152L34.5771 70.8053ZM39.3262 70.813L42.8581 73.4363L44.0506 71.8307L40.5187 69.2075L39.3262 70.813ZM42.8478 73.4286C44.9783 75.0537 47.8215 75.0406 49.9987 73.4391L48.8137 71.828C47.3282 72.9206 45.4623 72.9074 44.0608 71.8384L42.8478 73.4286ZM50.0025 73.4363L53.5344 70.813L52.3418 69.2075L48.81 71.8307L50.0025 73.4363ZM53.5446 70.8053C54.946 69.7363 56.812 69.7232 58.2975 70.8158L59.4825 69.2047C57.3053 67.6032 54.4621 67.59 52.3316 69.2152L53.5446 70.8053ZM58.2937 70.813L61.8256 73.4363L63.0181 71.8307L59.4862 69.2075L58.2937 70.813ZM61.8154 73.4286C63.9458 75.0537 66.789 75.0406 68.9663 73.4391L67.7812 71.828C66.2958 72.9206 64.4298 72.9074 63.0284 71.8384L61.8154 73.4286ZM68.97 73.4363L72.5019 70.813L71.3094 69.2075L67.7775 71.8307L68.97 73.4363ZM72.5121 70.8053C73.9136 69.7363 75.7795 69.7232 77.265 70.8158L78.4501 69.2047C76.2728 67.6032 73.4296 67.59 71.2991 69.2152L72.5121 70.8053ZM77.2531 70.8069L81.1774 73.7846L82.3863 72.1914L78.462 69.2136L77.2531 70.8069ZM81.1728 73.7812C83.0607 75.2307 85.5933 75.4062 87.6492 74.2062L86.641 72.4789C85.2958 73.264 83.6424 73.1558 82.3909 72.1948L81.1728 73.7812ZM87.6104 74.2277L95.4653 70.0986L94.5347 68.3282L86.6798 72.4574L87.6104 74.2277Z" fill="#66636C"/>
</svg>
