<svg width="98" height="78" viewBox="0 0 98 78" fill="none" xmlns="http://www.w3.org/2000/svg">
<path d="M93.0001 43V49C93.0001 61.4389 83.4772 71 71.0001 71M93.0001 43H64.0001M93.0001 43H94.0001C95.6569 43 97.0001 41.6569 97.0001 40C97.0001 38.3431 95.6569 37 94.0001 37H53.0001C50.7909 37 49.0001 38.7909 49.0001 41V46.0031C49.0001 47.66 47.6569 49.0031 46.0001 49.0031C44.3432 49.0031 43.0001 47.66 43.0001 46.0031V42C43.0001 40.3431 41.6569 39 40.0001 39C38.3432 39 37.0001 40.3431 37.0001 42V54C37.0001 55.6569 35.6569 57 34.0001 57C32.3432 57 31.0001 55.6569 31.0001 54V46C31.0001 44.3431 29.6569 43 28.0001 43C26.3432 43 25.0001 44.3431 25.0001 46V50C25.0001 51.6569 23.6569 53 22.0001 53C20.3432 53 19.0001 51.6569 19.0001 50V40.9531C19.0001 38.7317 17.19 36.9358 14.9687 36.9532L11.9882 36.9766C10.3341 36.9895 9.00005 38.3341 9.00005 39.9882C9.00005 41.6516 10.3485 43 12.0118 43H14.0001M71.0001 71H34.835M71.0001 71L75 77M34.835 71C22.3578 71 13.0001 61.4389 13.0001 49V43M34.835 71L31.0001 77M82.3719 59.6834C79.7243 62.931 75.6868 65 71.1651 65M85.0001 51C85.0001 53 84.3522 54.7586 84.0001 56M93.0001 37V16C93.0001 13.2386 90.7615 11 88.0001 11C85.2386 11 83.0001 13.2386 83.0001 16V18M56.0001 43H60.0001M32.4068 1.68339C31.0546 1.23824 29.6145 1 28.1177 1C22.4011 1 17.5084 4.49216 15.4582 9.45141C15.15 9.42006 14.8356 9.40125 14.5211 9.40125C9.19443 9.40125 4.88025 13.7022 4.88025 19.0125C4.88025 19.3574 4.89912 19.7022 4.93685 20.0408C2.63511 20.931 1 23.1567 1 25.7712C1 29.1693 3.76083 31.9216 7.16941 31.9216C8.23852 31.9216 9.23846 31.652 10.1126 31.1755M36.4568 3.82764C37.6643 4.74927 38.7082 5.87152 39.5509 7.14425C41.1986 5.82764 43.2866 5.03757 45.5632 5.03757C50.4433 5.03757 54.4682 8.6614 55.1034 13.3511C56.5624 12.8432 58.1284 12.5674 59.7572 12.5674C66.4486 12.5674 72.0582 17.1881 73.5612 23.4012C74.5989 22.6175 75.8818 22.1473 77.2843 22.1473M81.6488 23.9467C82.7682 25.0627 83.4537 26.5987 83.4537 28.2978C83.4537 29.2006 83.2587 30.0596 82.9065 30.837" stroke="#66636C" stroke-width="2" stroke-miterlimit="10"/>
</svg>
