<svg width="90" height="90" viewBox="0 0 90 90" fill="none" xmlns="http://www.w3.org/2000/svg">
<path d="M51 13H63V7H39V13H47M53 26V38M53 18V22M45 7V1H57V7.02243M43 13V40.9947C32 42.9947 23 48 23 61C23 70.8681 30.989 84.3562 39 89H63C71.011 84.4142 79 70.8681 79 61C79 48 70 42.9947 59 40.9947V13M38 63H71C71 70 66 80 61 83H42M30 63H34M20 14L23 11C23 11 31 19 31 25C31 27 30.0678 30.0238 28.5474 31.533M19 30C20 32 20 36 16 38M15 22L17 26M65.2125 42.7397C66.2698 37.1929 71.1452 33 77 33C83.6274 33 89 38.3726 89 45C89 51.0394 84.5385 56.0367 78.7316 56.876M71 45C71 41.6863 73.6863 39 77 39C80.3137 39 83 41.6863 83 45M81.2255 49.2597C80.1411 50.3354 78.6482 51 77 51M25 32C25 40 19.3737 43 13 43C6.62629 43 1 40 1 32C1 24 13 11 13 11C13 11 25 24 25 32Z" stroke="#66636C" stroke-width="2"/>
</svg>
