<svg width="94" height="90" viewBox="0 0 94 90" fill="none" xmlns="http://www.w3.org/2000/svg">
<path d="M55 32L57 29C57 29 63 36.0224 63 41C63 45 60.4607 47 57 47M37.1025 47C33.6418 47 31 45 31 41C31 36.0224 37.1025 29.5047 37.1025 29.5047C37.1025 29.5047 37.8523 30.3699 38.8328 31.6965M51.5221 40.3483C51.5221 42.367 50.4839 44.0974 48.9266 45.1356M47.9461 33.1962C48.5805 34.0613 49.2727 35.0419 49.8494 36.0224M36 61H81V55.2005L13 55V61H24M28 61H32M77.2921 60.2185C76.3116 76.3108 63.2653 89 47 89C30.7347 89 17.1337 76.3685 16.0378 60.3916M66.5639 74.0613C64.4298 77.0606 61.5459 79.5408 58.2005 81.2134M70.0247 66.8516C69.7363 68.0051 69.3325 69.101 68.8134 70.1392M27.2954 19.6892L10.1815 2.57529C8.08109 0.474903 4.67568 0.474903 2.57529 2.57529C0.4749 4.67568 0.474904 8.08108 2.5753 10.1815L19.6892 27.2954L17.7877 29.1969L21.5907 33L33 21.5907L29.1969 17.7876L27.2954 19.6892ZM27.2954 19.6892L23.4923 23.4923M7.3291 9.2307L13.0337 14.9353M15.8861 17.7876L18.7384 20.64M66.7045 19.6892L83.8184 2.57529C85.9188 0.474903 89.3242 0.474903 91.4246 2.57529C93.525 4.67568 93.525 8.08108 91.4246 10.1815L74.3107 27.2954L76.2122 29.1969L72.4092 33L60.9999 21.5907L64.803 17.7876L66.7045 19.6892ZM66.7045 19.6892L70.5076 23.4923M86.6708 9.2307L80.9661 14.9353M78.1138 17.7876L75.2615 20.64M55 41C55 45.845 51.7528 49 46.9079 49C42.0629 49 39 45.845 39 41C39 36.155 47 25 47 25C47 25 55 36.155 55 41Z" stroke="#66636C" stroke-width="2"/>
</svg>
