<svg width="63" height="44" viewBox="0 0 63 44" fill="none" xmlns="http://www.w3.org/2000/svg">
<path d="M52.7994 20.1774C52.912 19.62 52.912 18.9512 52.912 18.3938C52.912 8.24933 44.5811 0 34.3365 0C26.5686 0 19.9264 4.68205 17.112 11.4822L21.2774 13.1543C23.4164 8.02637 28.3698 4.4591 34.2239 4.4591C41.9918 4.4591 48.2962 10.7018 48.2962 18.3938C48.2962 19.5085 48.1837 21.0692 47.8459 22.184C47.5082 23.6332 47.1705 24.6365 47.1705 24.6365C47.1705 24.6365 49.422 24.3021 51.561 24.525C55.051 24.9709 57.8654 28.2038 57.8654 31.8825C57.8654 35.7842 54.8258 38.7941 50.6604 38.7941H13.9598C8.78113 38.7941 4.50315 34.4465 4.50315 29.3185C4.50315 24.1906 8.78113 19.9545 13.9598 19.9545C16.2113 19.9545 18.2377 20.7348 19.9264 22.0725H25.7805C23.3038 18.1708 18.9132 15.4954 13.9598 15.4954C6.3044 15.4954 0 21.6266 0 29.3185C0 36.7875 6.3044 43.1417 13.9598 43.1417C14.1849 43.1417 50.773 43.1417 50.773 43.1417C57.3025 43.1417 62.4811 38.1253 62.4811 31.7711C62.4811 26.0857 58.2032 21.1807 52.7994 20.1774Z" fill="#931314"/>
</svg>
