<svg width="44" height="47" viewBox="0 0 44 47" fill="none" xmlns="http://www.w3.org/2000/svg">
<path d="M36.8975 17.3696C38.0329 19.6402 38.6005 22.1379 38.6005 24.7491C38.6005 34.1722 30.9939 41.7787 21.5709 41.7787C12.1478 41.7787 4.54124 34.1722 4.54124 24.7491C4.54124 15.326 12.1478 7.71946 21.5709 7.71946C23.6144 7.71946 25.5445 8.06005 27.3609 8.74124L30.8804 5.22178C28.0421 3.97294 24.8633 3.17822 21.5709 3.17822C9.65013 3.17822 0 12.8284 0 24.7491C0 36.6698 9.65013 46.32 21.5709 46.32C33.4916 46.32 43.1417 36.6698 43.1417 24.7491C43.1417 20.889 42.12 17.1425 40.3035 13.9637L36.8975 17.3696Z" fill="#931314"/>
<path d="M42.0049 0L20.6611 21.4573L23.8399 24.6362L42.0049 6.47126V0Z" fill="#C19A5C"/>
</svg>
