<svg width="32" height="32" viewBox="0 0 32 32" fill="none" xmlns="http://www.w3.org/2000/svg">
<path fill-rule="evenodd" clip-rule="evenodd" d="M14 11.7595V13.9995H11V16.9995H14V23.9995H17V16.9995H19.995L20.393 13.9995H17V12.0415C17 11.2175 17.59 10.9995 18.869 10.9995H20V8.11151C20 8.07751 18.919 7.99951 17.793 7.99951C15.44 7.99951 14 9.32551 14 11.7595ZM16 30.9995C7.729 30.9995 1 24.2705 1 15.9995C1 7.72851 7.729 0.999512 16 0.999512C24.271 0.999512 31 7.72851 31 15.9995C31 24.2705 24.271 30.9995 16 30.9995ZM16 -0.000488281C7.163 -0.000488281 0 7.16351 0 15.9995C0 24.8365 7.163 31.9995 16 31.9995C24.837 31.9995 32 24.8365 32 15.9995C32 7.16351 24.837 -0.000488281 16 -0.000488281Z" fill="white"/>
</svg>
