<svg width="64" height="64" viewBox="0 0 64 64" fill="none" xmlns="http://www.w3.org/2000/svg">
<path d="M10.0172 25.469H7.43102L2.25861 61.6759L17.7758 53.9173L32 60.2224L46.2241 53.9173L61.7414 61.6759L56.569 25.469H53.9827" stroke="#131233" stroke-width="3" stroke-linecap="round" stroke-linejoin="round"/>
<path fill-rule="evenodd" clip-rule="evenodd" d="M49.6602 19.919C49.6602 32.6638 31.999 50.4233 31.999 50.4233C31.999 50.4233 14.3145 32.7388 14.3404 19.919C14.3404 10.1664 22.2464 2.25781 31.999 2.25781C41.7542 2.25781 49.6602 10.1664 49.6602 19.919Z" stroke="#B31B2C" stroke-width="3" stroke-linejoin="round"/>
<path fill-rule="evenodd" clip-rule="evenodd" d="M40.0276 19.3217C40.0276 23.7544 36.4328 27.3492 32 27.3492C27.5672 27.3492 23.9724 23.7544 23.9724 19.3217C23.9724 14.8889 27.5672 11.2941 32 11.2941C36.4328 11.2941 40.0276 14.8889 40.0276 19.3217Z" stroke="#B31B2C" stroke-width="3"/>
</svg>
