<svg width="40" height="40" viewBox="0 0 40 40" fill="none" xmlns="http://www.w3.org/2000/svg">
<path d="M27 26H15" stroke="#990031" stroke-width="2" stroke-miterlimit="10" stroke-linecap="round" stroke-linejoin="round"/>
<path d="M6.21739 26H3.98055C3.22022 26 2.52565 25.5689 2.18825 24.8875L1.2077 22.9072C1.07108 22.6313 1 22.3276 1 22.0198V19.4202C1 19.1274 1.06304 18.8408 1.18739 18.5757C1.8676 17.1255 4.18204 12.2048 4.47826 11.7561C4.82609 11.2293 5.52174 10 6.21739 10C6.91304 10 11.4348 10 11.4348 10C11.4348 10 11.4348 10 11.4348 10H24.6522C25.1739 10 25.5217 10.1756 25.8696 10.5268L30.2174 14.9171C30.3913 15.0927 30.7391 15.2683 31.087 15.4439L38 19C39 19.5 39 19.8537 39 20.7317V24C39 25.1046 38.1046 26 37 26H36.5217" stroke="#990031" stroke-width="2" stroke-miterlimit="10" stroke-linecap="round" stroke-linejoin="round"/>
<path d="M10.2174 30.8C12.4265 30.8 14.2174 29.0092 14.2174 26.8C14.2174 24.5909 12.4265 22.8 10.2174 22.8C8.00827 22.8 6.21741 24.5909 6.21741 26.8C6.21741 29.0092 8.00827 30.8 10.2174 30.8Z" stroke="#990031" stroke-width="2" stroke-miterlimit="10" stroke-linecap="round" stroke-linejoin="round"/>
<path d="M31.5652 30.8C33.7743 30.8 35.5652 29.0092 35.5652 26.8C35.5652 24.5909 33.7743 22.8 31.5652 22.8C29.356 22.8 27.5652 24.5909 27.5652 26.8C27.5652 29.0092 29.356 30.8 31.5652 30.8Z" stroke="#990031" stroke-width="2" stroke-miterlimit="10" stroke-linecap="round" stroke-linejoin="round"/>
</svg>
