<svg width="34" height="34" viewBox="0 0 34 34" fill="none" xmlns="http://www.w3.org/2000/svg">
<path d="M17 33C25.8366 33 33 25.8366 33 17C33 8.16344 25.8366 1 17 1C8.16344 1 1 8.16344 1 17C1 25.8366 8.16344 33 17 33Z" stroke="#990031" stroke-width="2" stroke-miterlimit="10" stroke-linecap="round" stroke-linejoin="round"/>
<path d="M5 17C5 10.0435 10.0435 5 17 5C23.9565 5 29 10.0435 29 17" stroke="#990031" stroke-width="2" stroke-miterlimit="10" stroke-linecap="round" stroke-linejoin="round"/>
<path d="M21 9.73914L18 17" stroke="#990031" stroke-width="2" stroke-miterlimit="10" stroke-linecap="round" stroke-linejoin="round"/>
<path d="M16.9131 21.6957C18.0177 21.6957 18.9131 20.8002 18.9131 19.6957C18.9131 18.5911 18.0177 17.6957 16.9131 17.6957C15.8085 17.6957 14.9131 18.5911 14.9131 19.6957C14.9131 20.8002 15.8085 21.6957 16.9131 21.6957Z" stroke="#990031" stroke-width="2" stroke-miterlimit="10" stroke-linecap="round" stroke-linejoin="round"/>
</svg>
