<svg width="28" height="36" viewBox="0 0 28 36" fill="none" xmlns="http://www.w3.org/2000/svg">
<path d="M27 13.6933C27 21.2489 18.2824 31.2222 15.0706 34.5467C14.4588 35.1511 13.3882 35.1511 12.7765 34.5467C9.71765 31.2222 1 21.4 1 13.6933C1 6.59111 6.81177 1 14 1C21.1882 1 27 6.74222 27 13.6933Z" fill="white" stroke="#990031" stroke-width="2" stroke-miterlimit="10" stroke-linecap="round" stroke-linejoin="round"/>
<path d="M14 20C17.3137 20 20 17.3137 20 14C20 10.6863 17.3137 8 14 8C10.6863 8 8 10.6863 8 14C8 17.3137 10.6863 20 14 20Z" fill="#990031"/>
</svg>
