<svg width="32" height="32" viewBox="0 0 32 32" fill="none" xmlns="http://www.w3.org/2000/svg">
<path fill-rule="evenodd" clip-rule="evenodd" d="M16 31C7.729 31 1 24.271 1 16C1 7.729 7.729 1 16 1C24.271 1 31 7.729 31 16C31 24.271 24.271 31 16 31ZM16 0C7.164 0 0 7.164 0 16C0 24.837 7.164 32 16 32C24.837 32 32 24.837 32 16C32 7.164 24.837 0 16 0Z" fill="white"/>
<path fill-rule="evenodd" clip-rule="evenodd" d="M20.5 11.2001C20.5 13.4001 18.7 15.3001 16.5 15.3001C14.3 15.3001 12.5 13.4001 12.5 11.2001C12.5 9.0001 14.3 7.1001 16.5 7.1001C18.7 7.1001 20.5 8.9001 20.5 11.2001ZM18.2 11.1001C18.2 10.2001 17.4 9.4001 16.5 9.4001C15.6 9.4001 14.8 10.2001 14.8 11.1001C14.8 12.1001 15.5 12.8001 16.5 12.8001C17.5 12.8001 18.2 12.0001 18.2 11.1001Z" fill="white"/>
<path d="M18.0999 18.6002C18.8999 18.4002 19.6999 18.1002 20.3999 17.6002C20.9999 17.3002 21.1999 16.5002 20.7999 16.0002C20.4999 15.4002 19.6999 15.2002 19.1999 15.6002C17.5999 16.7002 15.3999 16.7002 13.7999 15.6002C13.2999 15.2002 12.4999 15.4002 12.1999 16.0002C11.8999 16.6002 11.9999 17.3002 12.5999 17.7002C13.2999 18.2002 14.0999 18.5002 14.8999 18.7002L12.6999 21.0002C12.1999 21.5002 12.1999 22.2002 12.6999 22.7002C12.8999 22.9002 13.1999 23.0002 13.4999 23.0002C13.7999 23.0002 14.0999 22.9002 14.2999 22.6002L16.4999 20.3002L18.6999 22.6002C19.1999 23.1002 19.8999 23.1002 20.3999 22.6002C20.8999 22.1002 20.8999 21.4002 20.3999 20.9002L18.0999 18.6002Z" fill="white"/>
</svg>
