<svg width="32" height="32" viewBox="0 0 32 32" fill="none" xmlns="http://www.w3.org/2000/svg">
<path fill-rule="evenodd" clip-rule="evenodd" d="M22.512 19.233C22.476 20.013 22.346 20.437 22.237 20.718C22.091 21.092 21.918 21.358 21.638 21.638C21.358 21.918 21.092 22.092 20.718 22.237C20.436 22.346 20.013 22.477 19.233 22.512C18.389 22.551 18.136 22.559 16 22.559C13.864 22.559 13.611 22.551 12.767 22.512C11.987 22.477 11.564 22.346 11.282 22.237C10.908 22.092 10.642 21.918 10.362 21.638C10.082 21.358 9.909 21.092 9.764 20.718C9.654 20.437 9.524 20.013 9.488 19.233C9.45 18.389 9.442 18.136 9.442 16C9.442 13.864 9.45 13.611 9.488 12.768C9.524 11.988 9.654 11.564 9.764 11.282C9.909 10.909 10.082 10.642 10.362 10.362C10.642 10.082 10.908 9.909 11.282 9.764C11.564 9.654 11.987 9.524 12.767 9.488C13.611 9.45 13.864 9.442 16 9.442C18.136 9.442 18.389 9.45 19.233 9.488C20.013 9.524 20.436 9.654 20.718 9.764C21.092 9.909 21.358 10.082 21.638 10.362C21.918 10.642 22.091 10.909 22.237 11.282C22.346 11.564 22.476 11.988 22.512 12.768C22.551 13.611 22.559 13.864 22.559 16C22.559 18.136 22.551 18.389 22.512 19.233ZM23.58 10.76C23.376 10.234 23.102 9.788 22.657 9.343C22.213 8.898 21.766 8.625 21.24 8.42C20.732 8.223 20.15 8.087 19.298 8.048C18.445 8.01 18.173 8 16 8C13.827 8 13.555 8.01 12.702 8.048C11.85 8.087 11.269 8.223 10.76 8.42C10.234 8.625 9.788 8.898 9.343 9.343C8.898 9.788 8.625 10.234 8.42 10.76C8.222 11.269 8.087 11.85 8.048 12.702C8.009 13.555 8 13.828 8 16C8 18.173 8.009 18.445 8.048 19.299C8.087 20.15 8.222 20.732 8.42 21.241C8.625 21.767 8.898 22.213 9.343 22.658C9.788 23.102 10.234 23.376 10.76 23.58C11.269 23.778 11.85 23.913 12.702 23.952C13.555 23.991 13.827 24 16 24C18.173 24 18.445 23.991 19.298 23.952C20.15 23.913 20.732 23.778 21.24 23.58C21.766 23.376 22.213 23.102 22.657 22.658C23.102 22.213 23.376 21.767 23.58 21.241C23.778 20.732 23.913 20.15 23.952 19.299C23.991 18.445 24 18.173 24 16C24 13.828 23.991 13.555 23.952 12.702C23.913 11.85 23.778 11.269 23.58 10.76ZM20.364 10.909C19.962 10.909 19.636 11.235 19.636 11.637C19.636 12.038 19.962 12.364 20.364 12.364C20.765 12.364 21.091 12.038 21.091 11.637C21.091 11.235 20.765 10.909 20.364 10.909ZM16 18.597C14.566 18.597 13.404 17.434 13.404 16C13.404 14.566 14.566 13.404 16 13.404C17.434 13.404 18.597 14.566 18.597 16C18.597 17.434 17.434 18.597 16 18.597ZM16 12C13.791 12 12 13.791 12 16C12 18.209 13.791 20 16 20C18.209 20 20 18.209 20 16C20 13.791 18.209 12 16 12ZM16 31C7.729 31 1 24.271 1 16C1 7.729 7.729 1 16 1C24.271 1 31 7.729 31 16C31 24.271 24.271 31 16 31ZM16 0C7.164 0 0 7.164 0 16C0 24.837 7.164 32 16 32C24.837 32 32 24.837 32 16C32 7.164 24.837 0 16 0Z" fill="white"/>
</svg>
