<svg width="32" height="32" viewBox="0 0 32 32" fill="none" xmlns="http://www.w3.org/2000/svg">
<path fill-rule="evenodd" clip-rule="evenodd" d="M24.4736 11.721C24.3496 11.363 23.5816 11.458 23.5816 11.458L21.0246 11.474C21.0246 11.474 20.8356 11.448 20.6946 11.534C20.5576 11.619 20.4696 11.817 20.4696 11.817C20.4696 11.817 20.0646 12.928 19.5256 13.872C18.3866 15.865 17.9316 15.97 17.7456 15.846C17.3126 15.558 17.4216 14.688 17.4216 14.07C17.4216 12.138 17.7056 11.333 16.8676 11.125C16.5896 11.055 16.3856 11.01 15.6746 11.002C14.7626 10.993 13.9906 11.005 13.5536 11.226C13.2626 11.373 13.0386 11.7 13.1756 11.719C13.3446 11.742 13.7266 11.825 13.9296 12.11C14.1916 12.477 14.1826 13.303 14.1826 13.303C14.1826 13.303 14.3326 15.576 13.8306 15.858C13.4866 16.052 13.0136 15.657 11.9986 13.849C11.4786 12.922 11.0866 11.899 11.0866 11.899C11.0866 11.899 11.0106 11.707 10.8756 11.605C10.7116 11.481 10.4836 11.442 10.4836 11.442L8.05363 11.458C8.05363 11.458 7.68963 11.468 7.55563 11.632C7.43663 11.777 7.54563 12.078 7.54563 12.078C7.54563 12.078 9.44763 16.687 11.6006 18.998C13.5756 21.118 15.8176 21 15.8176 21H16.8336C16.8336 21 17.1406 20.944 17.2976 20.77C17.4416 20.61 17.4366 20.299 17.4366 20.299C17.4366 20.299 17.4176 18.888 18.0496 18.681C18.6736 18.477 19.4746 20.037 20.3236 20.638C20.9656 21.093 21.4536 20.992 21.4536 20.992L23.7236 20.959C23.7236 20.959 24.9116 20.883 24.3486 19.92C24.3026 19.841 24.0206 19.208 22.6606 17.906C21.2366 16.544 21.4276 16.764 23.1426 14.408C24.1866 12.972 24.6036 12.096 24.4736 11.721ZM15.9996 31C7.72863 31 0.999634 24.271 0.999634 16C0.999634 7.729 7.72863 1 15.9996 1C24.2706 1 30.9996 7.729 30.9996 16C30.9996 24.271 24.2706 31 15.9996 31ZM15.9996 0C7.16363 0 -0.000366211 7.164 -0.000366211 16C-0.000366211 24.837 7.16363 32 15.9996 32C24.8366 32 31.9996 24.837 31.9996 16C31.9996 7.164 24.8366 0 15.9996 0Z" fill="white"/>
</svg>
