<svg width="38" height="52" viewBox="0 0 38 52" fill="none" xmlns="http://www.w3.org/2000/svg">
<path d="M17.1079 29.0093H21.5709V41.0096L17.1079 45.3734V29.0093Z" fill="#C19A5C"/>
<path d="M32.9407 21.3849H9.56344V12.8309C9.56344 8.12627 13.3888 4.27698 18.0643 4.27698C22.7397 4.27698 26.5651 8.12627 26.5651 12.8309V18.1772H30.8155V12.8309C30.8155 5.77393 25.0775 0 18.0643 0C11.0511 0 5.31302 5.77393 5.31302 12.8309V21.3849H4.25042C1.91269 21.3849 0 23.3096 0 25.6619V47.0468C0 49.3992 1.91269 51.3238 4.25042 51.3238H32.9407C35.2785 51.3238 37.1912 49.3992 37.1912 47.0468V25.6619C37.1912 23.3096 35.2785 21.3849 32.9407 21.3849ZM32.9407 47.0468H4.25042V25.6619H32.9407V47.0468Z" fill="#931314"/>
</svg>
