<svg width="50" height="53" viewBox="0 0 50 53" fill="none" xmlns="http://www.w3.org/2000/svg">
<path d="M42.1748 34.8807L33.3605 32.1976C32.4679 31.974 31.91 31.1914 31.91 30.297V27.8375C35.2572 25.1544 37.154 20.4589 37.154 15.2044C37.154 6.37244 31.91 0 24.5462 0C17.1823 0 11.9384 6.37244 11.9384 15.3162C11.9384 20.5707 13.8351 25.2662 17.1823 27.9493V30.4088C17.1823 31.3032 16.6244 32.0858 15.7319 32.3094L6.91755 34.9925C2.78934 36.2223 0 39.9116 0 44.2717V48.2964C0 50.4205 1.6736 52.2093 3.7935 52.2093H42.3979L38.0466 47.7374H4.46294V44.2717C4.46294 41.924 6.02497 39.9116 8.25644 39.129L17.0707 36.4459C19.8601 35.6633 21.6453 33.092 21.6453 30.297V27.7257C21.6453 26.4959 21.0874 25.2662 20.0832 24.4836C17.7402 22.583 16.4013 19.2291 16.4013 15.2044C16.4013 8.83198 19.7485 4.36009 24.5462 4.36009C29.3438 4.36009 32.691 8.83198 32.691 15.2044C32.691 19.2291 31.3521 22.583 29.0091 24.4836C28.0049 25.2662 27.4471 26.3841 27.4471 27.7257V30.297C27.4471 33.2038 29.2323 35.6633 32.0216 36.4459L40.8359 39.129C43.0674 39.7998 44.6294 41.8122 44.6294 44.2717V47.7374H49.0923V44.2717C49.0923 39.9116 46.303 36.2223 42.1748 34.8807Z" fill="#931314"/>
</svg>
