<svg width="21" height="21" viewBox="0 0 21 21" fill="none" xmlns="http://www.w3.org/2000/svg">
<path fill-rule="evenodd" clip-rule="evenodd" d="M9.97831 5.97376H11.1907V9.80931H15.1805V11.0217H11.1907V14.9822H9.97831V11.0217H6.15745V9.80931H9.97831V5.97376ZM10.5 21C7.60497 21 4.98181 19.8244 3.07873 17.9213C1.17565 16.0182 0 13.395 0 10.5C0 4.70994 4.70994 0 10.5 0C16.2901 0 21 4.70994 21 10.5C21 16.2092 16.2019 21 10.5 21ZM10.5 19.6407C5.45941 19.6407 1.36669 15.5406 1.36669 10.5073C1.36669 5.46676 5.46676 1.36669 10.5 1.37404C13.0203 1.37404 15.3055 2.39538 16.9587 4.04864C18.612 5.70189 19.6407 7.98705 19.6407 10.5073C19.6407 15.5406 15.5406 19.6407 10.5073 19.6407H10.5Z" fill="#C19A5C"/>
</svg>
