<svg width="64" height="60" viewBox="0 0 64 60" fill="none" xmlns="http://www.w3.org/2000/svg">
<path d="M62.9324 26.3953C56.2762 16.5257 46.1772 10.5581 34.4714 9.75477V4.59048L29.881 0V9.64C17.7162 10.2138 7.04334 16.2962 0.272382 26.3953C-0.41619 27.3133 0.272382 28.6905 1.53476 28.6905H61.67C62.8177 28.6905 63.5062 27.4281 62.9324 26.3953ZM8.0762 24.1C14.2733 17.6733 22.4214 14.2305 31.6024 14.2305C40.7834 14.2305 49.0462 17.6733 55.1286 24.1H8.0762Z" fill="#931314"/>
<path d="M29.8825 52.2166C29.8825 53.8233 28.6201 55.0857 27.0134 55.0857C25.4068 55.0857 24.1444 53.8233 24.1444 52.2166V50.4952H19.5539V52.2166C19.5539 56.3481 22.882 59.6762 27.0134 59.6762C31.1449 59.6762 34.4729 56.3481 34.4729 52.2166V32.1333H29.8825V52.2166Z" fill="#C19A5C"/>
</svg>
