<svg width="64" height="64" viewBox="0 0 64 64" fill="none" xmlns="http://www.w3.org/2000/svg">
<path d="M18.4582 15.3335H30V42.4168H11.1665V29.9168L18.4582 15.3335Z" fill="#990031"/>
<path d="M7 29.917H26.7917" stroke="#990031" stroke-width="4" stroke-linecap="round" stroke-linejoin="round"/>
<path d="M19.4998 42.417V47.1045C19.4998 47.5189 19.3242 47.9163 19.0117 48.2093C18.6991 48.5024 18.2752 48.667 17.8332 48.667H12.8332C12.3911 48.667 11.9672 48.5024 11.6547 48.2093C11.3421 47.9163 11.1665 47.5189 11.1665 47.1045V42.417" stroke="#990031" stroke-width="4" stroke-linecap="round" stroke-linejoin="round"/>
<path d="M28 17.3335H30V13.3335H28V17.3335ZM18.4319 15.3335V13.3335H18.4319L18.4319 15.3335ZM17.0041 16.2796L15.1707 15.4804V15.4804L17.0041 16.2796ZM11.1665 29.6717L9.33311 28.8726C9.22322 29.1247 9.1665 29.3967 9.1665 29.6717H11.1665ZM11.1665 42.4168H9.1665C9.1665 43.5214 10.0619 44.4168 11.1665 44.4168V42.4168ZM28 44.4168H30V40.4168H28V44.4168ZM28 13.3335H18.4319V17.3335H28V13.3335ZM18.4319 13.3335C17.7343 13.3335 17.0547 13.54 16.4758 13.9236L18.6852 17.258C18.6131 17.3058 18.5251 17.3335 18.4319 17.3335L18.4319 13.3335ZM16.4758 13.9236C15.8973 14.3069 15.4459 14.8492 15.1707 15.4804L18.8375 17.0788C18.8079 17.1468 18.7569 17.2105 18.6852 17.258L16.4758 13.9236ZM15.1707 15.4804L9.33311 28.8726L12.9999 30.4709L18.8375 17.0788L15.1707 15.4804ZM9.1665 29.6717V42.4168H13.1665V29.6717H9.1665ZM11.1665 44.4168H28V40.4168H11.1665V44.4168Z" fill="#990031"/>
<path d="M17.4165 36.167H19.4998" stroke="white" stroke-width="4" stroke-linecap="round" stroke-linejoin="round"/>
<path d="M57 27.917C58.1046 27.917 59 28.8124 59 29.917C59 31.0216 58.1046 31.917 57 31.917V27.917ZM36.1667 31.917H34.1667V27.917H36.1667V31.917ZM57 31.917H36.1667V27.917H57V31.917Z" fill="#990031"/>
<path d="M44.5002 42.417V47.1045C44.5002 47.5189 44.6758 47.9163 44.9883 48.2093C45.3009 48.5024 45.7248 48.667 46.1668 48.667H51.1668C51.6089 48.667 52.0328 48.5024 52.3453 48.2093C52.6579 47.9163 52.8335 47.5189 52.8335 47.1045V42.417" stroke="#990031" stroke-width="4" stroke-linecap="round" stroke-linejoin="round"/>
<path d="M36.1668 17.3335H34.1668V13.3335H36.1668V17.3335ZM45.5681 15.3335V13.3335H45.5681L45.5681 15.3335ZM46.9959 16.2796L48.8293 15.4804V15.4804L46.9959 16.2796ZM52.8335 29.6717L54.6669 28.8726C54.7768 29.1247 54.8335 29.3967 54.8335 29.6717H52.8335ZM52.8335 42.4168H54.8335C54.8335 43.5214 53.9381 44.4168 52.8335 44.4168V42.4168ZM36.1668 44.4168H34.1668V40.4168H36.1668V44.4168ZM36.1668 13.3335H45.5681V17.3335H36.1668V13.3335ZM45.5681 13.3335C46.2657 13.3335 46.9453 13.54 47.5242 13.9236L45.3148 17.258C45.3869 17.3058 45.4749 17.3335 45.5681 17.3335L45.5681 13.3335ZM47.5242 13.9236C48.1027 14.3069 48.5541 14.8492 48.8293 15.4804L45.1625 17.0788C45.1921 17.1468 45.2431 17.2105 45.3148 17.258L47.5242 13.9236ZM48.8293 15.4804L54.6669 28.8726L51.0001 30.4709L45.1625 17.0788L48.8293 15.4804ZM54.8335 29.6717V42.4168H50.8335V29.6717H54.8335ZM52.8335 44.4168H36.1668V40.4168H52.8335V44.4168Z" fill="#990031"/>
<path d="M46.5835 36.167H44.5002" stroke="#990031" stroke-width="4" stroke-linecap="round" stroke-linejoin="round"/>
</svg>
