<svg width="16" height="17" viewBox="0 0 16 17" fill="none" xmlns="http://www.w3.org/2000/svg">
<path d="M11.9033 7.03732L13.2306 4.66672C13.3055 4.53382 13.2602 4.36501 13.133 4.28778C13.0059 4.21056 12.8404 4.25545 12.7673 4.38835L11.4226 6.78948C10.3967 6.30638 9.24189 6.037 8 6.037C6.75811 6.037 5.60331 6.30638 4.5774 6.78948L3.23275 4.38835C3.15785 4.25545 2.99412 4.21056 2.86523 4.28778C2.73634 4.36501 2.69279 4.53382 2.76769 4.66672L4.09493 7.03732C1.80623 8.316 0.256041 10.7046 0 13.5008H16C15.744 10.7046 14.1938 8.316 11.9033 7.03732ZM4.32658 11.1841C3.95558 11.1841 3.656 10.8734 3.656 10.4926C3.656 10.1101 3.95733 9.80122 4.32658 9.80122C4.69758 9.80122 4.99717 10.1119 4.99717 10.4926C4.99892 10.8734 4.69758 11.1841 4.32658 11.1841ZM11.6717 11.1841C11.3007 11.1841 11.0011 10.8734 11.0011 10.4926C11.0011 10.1101 11.3024 9.80122 11.6717 9.80122C12.0427 9.80122 12.3423 10.1119 12.3423 10.4926C12.344 10.8734 12.0427 11.1841 11.6717 11.1841Z" fill="#97ADC6"/>
</svg>
