<svg width="16" height="17" viewBox="0 0 16 17" fill="none" xmlns="http://www.w3.org/2000/svg">
<path d="M13.7485 12.6022C13.5331 13.1 13.278 13.5581 12.9826 13.9794C12.5798 14.5536 12.25 14.9511 11.9959 15.1718C11.6019 15.5341 11.1798 15.7196 10.7278 15.7302C10.4033 15.7302 10.012 15.6379 9.5565 15.4506C9.09949 15.2641 8.6795 15.1718 8.29547 15.1718C7.89272 15.1718 7.46077 15.2641 6.99874 15.4506C6.53601 15.6379 6.16324 15.7355 5.87824 15.7451C5.44479 15.7636 5.01275 15.5728 4.5815 15.1718C4.30626 14.9317 3.96198 14.5202 3.54955 13.9371C3.10705 13.3145 2.74325 12.5926 2.45824 11.7695C2.15301 10.8804 2 10.0195 2 9.18603C2 8.23129 2.2063 7.40784 2.61952 6.71779C2.94428 6.16352 3.37632 5.7263 3.91705 5.40532C4.45778 5.08435 5.04203 4.92078 5.67123 4.91032C6.01551 4.91032 6.46698 5.01681 7.02802 5.2261C7.58748 5.4361 7.94671 5.54259 8.10421 5.54259C8.22196 5.54259 8.62102 5.41807 9.29752 5.16982C9.93727 4.9396 10.4772 4.84428 10.9195 4.88183C12.1181 4.97856 13.0186 5.45105 13.6175 6.30229C12.5455 6.9518 12.0152 7.86151 12.0258 9.02854C12.0355 9.93755 12.3652 10.694 13.0133 11.2946C13.3071 11.5734 13.6351 11.7888 14 11.9418C13.9209 12.1713 13.8373 12.3912 13.7485 12.6022ZM10.9996 1.78501C10.9996 2.49749 10.7393 3.16273 10.2204 3.77847C9.59431 4.51047 8.83699 4.93345 8.01574 4.8667C8.00528 4.78123 7.99921 4.69127 7.99921 4.59673C7.99921 3.91275 8.29697 3.18076 8.82574 2.58225C9.08973 2.27922 9.42547 2.02725 9.83263 1.82625C10.2389 1.62825 10.6232 1.51875 10.9846 1.5C10.9952 1.59525 10.9996 1.6905 10.9996 1.785V1.78501Z" fill="#97ADC6"/>
</svg>
