<svg width="290" height="320" viewBox="0 0 290 320" fill="none" xmlns="http://www.w3.org/2000/svg">
<g clip-path="url(#clip0)">
<rect width="290" height="320" fill="white"/>
<g filter="url(#filter0_i)">
<path fill-rule="evenodd" clip-rule="evenodd" d="M288.657 -228.649C288.657 -261.484 271.128 -279 238.287 -279H52.3839C19.5435 -279 2.01392 -261.484 2.01392 -228.649V-192.735C2.68519 -191.245 2.68519 -185.354 2.68519 -185.354V-176.292C2.62656 -175.618 2.58404 -174.875 2.54175 -174.135C2.43942 -172.346 2.33843 -170.58 2.01392 -169.886V-149.038C2.33639 -148.886 2.58347 -148.454 2.66023 -147.447H2.68519V-108.813C2.68519 -107.508 2.405 -106.809 2.01392 -106.571V-93.3202C2.33639 -93.1685 2.58347 -92.7361 2.66023 -91.7292H2.68519V-53.0958C2.68519 -51.7907 2.405 -51.0912 2.01392 -50.8536V249.981C2.01392 282.809 19.5416 300.329 52.3839 300.329H128.13C128.885 299.927 130.295 299.657 131.91 299.657C132.023 299.657 132.135 299.659 132.245 299.657L159.097 299.661C160.571 299.696 161.839 299.955 162.541 300.329H238.287C271.13 300.329 288.657 282.805 288.657 249.978V-64.3571C288.451 -64.576 288.275 -64.9911 288.156 -65.5278L287.986 -67.5417V-130.308H288.011C288.088 -131.323 288.335 -132.144 288.657 -132.486V-228.649Z" fill="#484747"/>
</g>
<mask id="mask0" mask-type="alpha" maskUnits="userSpaceOnUse" x="2" y="-279" width="287" height="580">
<path fill-rule="evenodd" clip-rule="evenodd" d="M288.657 -228.649C288.657 -261.484 271.128 -279 238.287 -279H52.3839C19.5435 -279 2.01392 -261.484 2.01392 -228.649V-192.735C2.68519 -191.245 2.68519 -185.354 2.68519 -185.354V-176.292C2.62656 -175.618 2.58404 -174.875 2.54175 -174.135C2.43942 -172.346 2.33843 -170.58 2.01392 -169.886V-149.038C2.33639 -148.886 2.58347 -148.454 2.66023 -147.447H2.68519V-108.813C2.68519 -107.508 2.405 -106.809 2.01392 -106.571V-93.3202C2.33639 -93.1685 2.58347 -92.7361 2.66023 -91.7292H2.68519V-53.0958C2.68519 -51.7907 2.405 -51.0912 2.01392 -50.8536V249.981C2.01392 282.809 19.5416 300.329 52.3839 300.329H128.13C128.885 299.927 130.295 299.657 131.91 299.657C132.023 299.657 132.135 299.659 132.245 299.657L159.097 299.661C160.571 299.696 161.839 299.955 162.541 300.329H238.287C271.13 300.329 288.657 282.805 288.657 249.978V-64.3571C288.451 -64.576 288.275 -64.9911 288.156 -65.5278L287.986 -67.5417V-130.308H288.011C288.088 -131.323 288.335 -132.144 288.657 -132.486V-228.649Z" fill="white"/>
</mask>
<g mask="url(#mask0)">
<path d="M238.287 -277.993C254.536 -277.993 266.835 -273.662 275.076 -265.425C283.316 -257.189 287.65 -244.895 287.65 -228.649V249.978C287.65 266.219 283.317 278.514 275.076 286.751C266.836 294.989 254.537 299.322 238.287 299.322H52.3839C36.1345 299.322 23.8352 294.99 15.5949 286.753C7.3547 278.517 3.02086 266.223 3.02086 249.981V-228.649C3.02086 -244.895 7.35518 -257.189 15.5956 -265.425C23.8361 -273.662 36.1354 -277.993 52.3839 -277.993H238.287Z" stroke="#2A2929" stroke-width="2.01389"/>
<path d="M239.63 298.986H49.6988C34.394 298.986 22.9977 294.453 15.1921 286.287C22.3931 291.014 32.4382 293.616 46.3423 293.616H243.658C256.341 293.616 265.755 291.884 272.738 288.695C264.742 295.392 253.719 298.986 239.63 298.986Z" fill="url(#paint0_linear)"/>
<path d="M239.63 298.986H49.6988C34.394 298.986 22.9977 294.453 15.1921 286.287C22.3931 291.014 32.4382 293.616 46.3423 293.616H243.658C256.341 293.616 265.755 291.884 272.738 288.695C264.742 295.392 253.719 298.986 239.63 298.986Z" fill="url(#paint1_linear)"/>
<mask id="mask1" mask-type="alpha" maskUnits="userSpaceOnUse" x="15" y="286" width="258" height="13">
<path d="M239.63 298.986H49.6988C34.394 298.986 22.9977 294.453 15.1921 286.287C22.3931 291.014 32.4382 293.616 46.3423 293.616H243.658C256.341 293.616 265.755 291.884 272.738 288.695C264.742 295.392 253.719 298.986 239.63 298.986Z" fill="white"/>
<path d="M239.63 298.986H49.6988C34.394 298.986 22.9977 294.453 15.1921 286.287C22.3931 291.014 32.4382 293.616 46.3423 293.616H243.658C256.341 293.616 265.755 291.884 272.738 288.695C264.742 295.392 253.719 298.986 239.63 298.986Z" stroke="white"/>
</mask>
<g mask="url(#mask1)">
<g filter="url(#filter1_f)">
<path d="M239.63 296.972H49.6987C34.3939 296.972 22.9976 292.439 15.1921 284.273C22.393 289 32.4381 291.602 46.3422 291.602H243.658C256.341 291.602 265.755 289.87 272.738 286.681C264.742 293.378 253.718 296.972 239.63 296.972Z" fill="#AABDB7"/>
</g>
</g>
<path d="M3.35657 252.286V-227.532C3.35657 -247.803 7.95239 -265.327 30.3785 -268.535C22.2659 -260.429 13.426 -247.9 13.426 -228.203V252.957C13.426 267.727 19.0723 278.934 29.0835 288.637C10.7936 286.136 3.35657 271.783 3.35657 252.286Z" fill="url(#paint2_linear)"/>
<path d="M3.35657 252.286V-227.532C3.35657 -247.803 7.95239 -265.327 30.3785 -268.535C22.2659 -260.429 13.426 -247.9 13.426 -228.203V252.957C13.426 267.727 19.0723 278.934 29.0835 288.637C10.7936 286.136 3.35657 271.783 3.35657 252.286Z" fill="url(#paint3_linear)"/>
<mask id="mask2" mask-type="alpha" maskUnits="userSpaceOnUse" x="3" y="-269" width="28" height="558">
<path d="M3.35657 252.286V-227.532C3.35657 -247.803 7.95239 -265.327 30.3785 -268.535C22.2659 -260.429 13.426 -247.9 13.426 -228.203V252.957C13.426 267.727 19.0723 278.934 29.0835 288.637C10.7936 286.136 3.35657 271.783 3.35657 252.286Z" fill="white"/>
<path d="M3.35657 252.286V-227.532C3.35657 -247.803 7.95239 -265.327 30.3785 -268.535C22.2659 -260.429 13.426 -247.9 13.426 -228.203V252.957C13.426 267.727 19.0723 278.934 29.0835 288.637C10.7936 286.136 3.35657 271.783 3.35657 252.286Z" stroke="white"/>
</mask>
<g mask="url(#mask2)">
<g filter="url(#filter2_f)">
<path d="M6.71307 252.286V-227.532C6.71307 -247.803 11.3089 -265.327 33.735 -268.535C25.6225 -260.429 16.7825 -247.9 16.7825 -228.203V252.957C16.7825 267.727 22.4288 278.934 32.44 288.637C14.1501 286.136 6.71307 271.783 6.71307 252.286Z" fill="#A6B7B1"/>
</g>
</g>
<path fill-rule="evenodd" clip-rule="evenodd" d="M287.315 252.957V-230.217C287.315 -250.488 279.156 -267.127 257.374 -270.876C259.602 -269.337 261.123 -266.629 263.113 -264.42C266.067 -261.139 269.31 -257.994 271.403 -253.589C274.611 -246.84 276.574 -239.019 276.574 -230.888V252.286C276.574 261.994 274.703 269.697 270.077 277.568C268.586 280.103 265.475 283.787 263.694 285.785C262.368 287.271 261.372 289.13 259.872 290.519C280.632 284.7 287.315 271.602 287.315 252.957Z" fill="url(#paint4_linear)"/>
<path fill-rule="evenodd" clip-rule="evenodd" d="M287.315 252.957V-230.217C287.315 -250.488 279.156 -267.127 257.374 -270.876C259.602 -269.337 261.123 -266.629 263.113 -264.42C266.067 -261.139 269.31 -257.994 271.403 -253.589C274.611 -246.84 276.574 -239.019 276.574 -230.888V252.286C276.574 261.994 274.703 269.697 270.077 277.568C268.586 280.103 265.475 283.787 263.694 285.785C262.368 287.271 261.372 289.13 259.872 290.519C280.632 284.7 287.315 271.602 287.315 252.957Z" fill="url(#paint5_linear)"/>
<mask id="mask3" mask-type="alpha" maskUnits="userSpaceOnUse" x="257" y="-271" width="31" height="562">
<path fill-rule="evenodd" clip-rule="evenodd" d="M287.315 252.957V-230.217C287.315 -250.488 279.156 -267.127 257.374 -270.876C259.602 -269.337 261.123 -266.629 263.113 -264.42C266.067 -261.139 269.31 -257.994 271.403 -253.589C274.611 -246.84 276.574 -239.019 276.574 -230.888V252.286C276.574 261.994 274.703 269.697 270.077 277.568C268.586 280.103 265.475 283.787 263.694 285.785C262.368 287.271 261.372 289.13 259.872 290.519C280.632 284.7 287.315 271.602 287.315 252.957Z" fill="white"/>
<path fill-rule="evenodd" clip-rule="evenodd" d="M287.315 252.957V-230.217C287.315 -250.488 279.156 -267.127 257.374 -270.876C259.602 -269.337 261.123 -266.629 263.113 -264.42C266.067 -261.139 269.31 -257.994 271.403 -253.589C274.611 -246.84 276.574 -239.019 276.574 -230.888V252.286C276.574 261.994 274.703 269.697 270.077 277.568C268.586 280.103 265.475 283.787 263.694 285.785C262.368 287.271 261.372 289.13 259.872 290.519C280.632 284.7 287.315 271.602 287.315 252.957Z" stroke="white"/>
</mask>
<g mask="url(#mask3)">
<g filter="url(#filter3_f)">
<path d="M283.958 252.957V-230.217C283.958 -250.488 275.8 -267.127 254.018 -270.876C256.246 -269.337 257.767 -266.629 259.756 -264.42C262.711 -261.139 265.953 -257.994 268.047 -253.589C271.255 -246.84 273.218 -239.019 273.218 -230.888V252.286C273.218 261.994 271.347 269.697 266.72 277.568C265.229 280.103 262.119 283.787 260.337 285.785C259.011 287.271 258.016 289.13 256.515 290.519C277.276 284.7 283.958 271.602 283.958 252.957Z" fill="#A6B7B1"/>
</g>
</g>
<g filter="url(#filter4_d)">
<path fill-rule="evenodd" clip-rule="evenodd" d="M235.004 -274.301C268.264 -274.301 283.958 -260.593 283.958 -227.31V249.981C283.958 283.257 268.266 296.301 235.004 296.301H55.6675C22.4056 296.301 6.04175 283.257 6.04175 249.981V-227.31C6.04175 -260.593 22.4074 -274.301 55.6675 -274.301H235.004Z" fill="url(#paint6_linear)"/>
<path d="M235.004 -273.965C251.598 -273.965 263.733 -270.544 271.724 -263.042C279.71 -255.544 283.623 -243.905 283.623 -227.31V249.981C283.623 266.573 279.71 278.042 271.727 285.372C263.738 292.709 251.602 295.965 235.004 295.965H55.6675C39.0697 295.965 26.7639 292.709 18.6059 285.37C10.4557 278.038 6.3774 266.569 6.3774 249.981V-227.31C6.3774 -243.902 10.4562 -255.54 18.6093 -263.04C26.7684 -270.544 39.074 -273.965 55.6675 -273.965H235.004Z" stroke="black" stroke-width="0.671296"/>
</g>
<mask id="mask4" mask-type="alpha" maskUnits="userSpaceOnUse" x="6" y="-275" width="278" height="572">
<path d="M235.004 -273.965C251.598 -273.965 263.733 -270.544 271.724 -263.042C279.71 -255.544 283.623 -243.905 283.623 -227.31V249.981C283.623 266.573 279.71 278.042 271.727 285.372C263.738 292.709 251.602 295.965 235.004 295.965H55.6675C39.0697 295.965 26.7639 292.709 18.6059 285.37C10.4557 278.038 6.3774 266.569 6.3774 249.981V-227.31C6.3774 -243.902 10.4562 -255.54 18.6093 -263.04C26.7684 -270.544 39.074 -273.965 55.6675 -273.965H235.004Z" fill="white" stroke="white" stroke-width="0.671296"/>
</mask>
<g mask="url(#mask4)">
</g>
<g filter="url(#filter5_d)">
<path fill-rule="evenodd" clip-rule="evenodd" d="M235.276 -272.287C268.541 -272.287 281.273 -258.869 281.273 -225.552V247.552C281.273 280.862 268.542 293.616 233.934 293.616H55.395C22.8002 293.616 8.72687 280.862 8.72687 248.223V-225.552C8.72687 -258.869 22.1307 -272.287 55.395 -272.287H235.276Z" fill="url(#paint7_linear)"/>
<path d="M235.276 -269.937C251.674 -269.937 262.386 -266.616 269.068 -259.772C275.763 -252.915 278.924 -242.002 278.924 -225.552V247.552C278.924 264.002 275.762 274.715 268.938 281.396C262.1 288.091 251.051 291.266 233.934 291.266H55.395C39.3219 291.266 28.404 288.107 21.4626 281.462C14.545 274.84 11.0764 264.271 11.0764 248.223V-225.552C11.0764 -241.975 14.394 -252.889 21.2493 -259.753C28.1039 -266.617 38.9993 -269.937 55.395 -269.937H235.276Z" stroke="url(#paint8_linear)" stroke-width="4.69907"/>
</g>
<path d="M281.441 -224.881C281.441 -241.554 278.256 -253.293 270.869 -260.859C263.481 -268.427 251.925 -271.784 235.276 -271.784H55.395C38.7459 -271.784 27.0238 -268.427 19.4681 -260.861C11.9124 -253.295 8.55904 -241.556 8.55904 -224.881V248.223C8.55904 264.562 12.0809 275.966 19.7218 283.28C27.361 290.593 39.0816 293.784 55.395 293.784H233.934C251.251 293.784 263.142 290.594 270.699 283.195C278.257 275.795 281.441 264.222 281.441 247.552V-224.881Z" stroke="black" stroke-width="0.335648"/>
<g filter="url(#filter6_i)">
<path fill-rule="evenodd" clip-rule="evenodd" d="M29.0098 -267.131C21.3031 -259.002 13.4259 -246.796 13.4259 -228.203V252.957C13.4259 267.727 19.0723 278.934 29.0834 288.637C28.4416 288.549 27.8132 288.447 27.198 288.33C14.4949 281.864 8.72687 269.118 8.72687 248.223V-224.881C8.72687 -247.357 14.8271 -260.777 29.0098 -267.131Z" fill="#808080"/>
</g>
<g filter="url(#filter7_i)">
<path fill-rule="evenodd" clip-rule="evenodd" d="M260.642 -267.505C275.243 -261.313 281.273 -247.808 281.273 -224.881V247.552C281.273 270.087 275.446 283.214 260.96 289.348C261.378 288.839 261.766 288.302 262.153 287.769C262.649 287.083 263.143 286.402 263.694 285.785C265.475 283.787 268.586 280.103 270.076 277.568C274.703 269.697 276.574 261.994 276.574 252.286V-230.888C276.574 -239.019 274.611 -246.84 271.403 -253.589C269.627 -257.326 267.023 -260.158 264.47 -262.934C264.014 -263.429 263.56 -263.923 263.113 -264.42C262.423 -265.186 261.789 -266.012 261.163 -266.828C260.989 -267.055 260.816 -267.281 260.642 -267.505Z" fill="#808080"/>
</g>
<path fill-rule="evenodd" clip-rule="evenodd" d="M57.7315 295.63H61.7593V300.329H57.7315V295.63Z" fill="url(#paint9_linear)"/>
<rect x="2.01392" y="241.255" width="4.69907" height="4.02778" fill="url(#paint10_linear)"/>
<rect x="283.287" y="241.255" width="5.37037" height="4.02778" fill="url(#paint11_linear)"/>
</g>
<mask id="mask5" mask-type="alpha" maskUnits="userSpaceOnUse" x="19" y="-262" width="253" height="546">
<path fill-rule="evenodd" clip-rule="evenodd" d="M71.8287 -261.546C73.6824 -261.546 75.1852 -260.044 75.1852 -258.19V-256.176C75.1852 -248.019 81.7973 -241.407 89.9537 -241.407H200.718C208.874 -241.407 215.486 -248.019 215.486 -256.176V-258.19C215.486 -260.044 216.989 -261.546 218.843 -261.546H245.023C259.482 -261.546 271.204 -249.825 271.204 -235.366V257.366C271.204 271.825 259.482 283.546 245.023 283.546H45.6481C31.189 283.546 19.4676 271.825 19.4676 257.366V-235.366C19.4676 -249.825 31.189 -261.546 45.6481 -261.546H71.8287Z" fill="white"/>
</mask>
<g mask="url(#mask5)">
<path fill-rule="evenodd" clip-rule="evenodd" d="M19.4676 -261.546H271.204V282.822H20.2239L19.4676 -261.546Z" fill="black"/>
</g>
<path d="M11 -20H277V251C277 271.987 259.987 289 239 289H49C28.0132 289 11 271.987 11 251V-20Z" fill="white"/>
<path d="M52.6947 31.288C57.5667 31.288 59.9187 28.576 59.9187 24.592V14.992H56.4387V24.496C56.4387 26.728 55.1667 28.264 52.6947 28.264C50.2227 28.264 48.9267 26.728 48.9267 24.496V14.992H45.4707V24.616C45.4707 28.552 47.8227 31.288 52.6947 31.288ZM73.8723 31V22.816C73.8723 20.56 72.6483 19.12 70.1043 19.12C68.2083 19.12 66.7923 20.032 66.0483 20.92V19.408H63.0003V31H66.0483V23.2C66.5523 22.504 67.4883 21.832 68.6883 21.832C69.9843 21.832 70.8243 22.384 70.8243 23.992V31H73.8723ZM79.9467 31V14.992H76.8987V31H79.9467ZM84.481 18.16C85.489 18.16 86.305 17.344 86.305 16.336C86.305 15.328 85.489 14.536 84.481 14.536C83.497 14.536 82.657 15.328 82.657 16.336C82.657 17.344 83.497 18.16 84.481 18.16ZM86.017 31V19.408H82.969V31H86.017ZM106.487 31V22.624C106.487 20.248 105.215 19.12 103.079 19.12C101.303 19.12 99.7673 20.176 99.0953 21.232C98.6633 19.912 97.5833 19.12 95.8793 19.12C94.1033 19.12 92.5673 20.224 92.0873 20.92V19.408H89.0393V31H92.0873V23.2C92.5433 22.552 93.4313 21.832 94.4873 21.832C95.7353 21.832 96.2153 22.6 96.2153 23.68V31H99.2873V23.176C99.7193 22.552 100.607 21.832 101.687 21.832C102.935 21.832 103.415 22.6 103.415 23.68V31H106.487ZM110.989 18.16C111.997 18.16 112.813 17.344 112.813 16.336C112.813 15.328 111.997 14.536 110.989 14.536C110.005 14.536 109.165 15.328 109.165 16.336C109.165 17.344 110.005 18.16 110.989 18.16ZM112.525 31V19.408H109.477V31H112.525ZM119.435 31.288C120.707 31.288 121.523 30.952 121.979 30.544L121.331 28.24C121.163 28.408 120.731 28.576 120.275 28.576C119.603 28.576 119.219 28.024 119.219 27.304V22.072H121.571V19.408H119.219V16.24H116.147V19.408H114.227V22.072H116.147V28.12C116.147 30.184 117.299 31.288 119.435 31.288ZM129.105 31.288C130.905 31.288 132.729 30.736 133.881 29.68L132.537 27.712C131.793 28.432 130.425 28.864 129.441 28.864C127.473 28.864 126.297 27.64 126.105 26.176H134.721V25.504C134.721 21.712 132.369 19.12 128.913 19.12C125.385 19.12 122.913 21.832 122.913 25.192C122.913 28.912 125.577 31.288 129.105 31.288ZM131.769 24.112H126.057C126.201 22.96 127.017 21.544 128.913 21.544C130.929 21.544 131.697 23.008 131.769 24.112ZM147.962 31V14.992H144.89V20.896C143.978 19.72 142.682 19.12 141.314 19.12C138.362 19.12 136.178 21.424 136.178 25.216C136.178 29.08 138.386 31.288 141.314 31.288C142.706 31.288 143.978 30.664 144.89 29.512V31H147.962ZM142.25 28.576C140.522 28.576 139.322 27.208 139.322 25.216C139.322 23.2 140.522 21.832 142.25 21.832C143.282 21.832 144.386 22.384 144.89 23.152V27.256C144.386 28.024 143.282 28.576 142.25 28.576ZM172.125 31L165.957 14.992H161.685L155.493 31H159.381L160.389 28.288H167.253L168.237 31H172.125ZM166.317 25.288H161.325L163.821 18.4L166.317 25.288ZM178.932 31.288C181.308 31.288 182.748 30.256 183.516 29.176L181.524 27.328C180.972 28.096 180.132 28.576 179.076 28.576C177.228 28.576 175.932 27.208 175.932 25.192C175.932 23.176 177.228 21.832 179.076 21.832C180.132 21.832 180.972 22.264 181.524 23.08L183.516 21.208C182.748 20.152 181.308 19.12 178.932 19.12C175.356 19.12 172.788 21.64 172.788 25.192C172.788 28.768 175.356 31.288 178.932 31.288ZM190.908 31.288C193.284 31.288 194.724 30.256 195.492 29.176L193.5 27.328C192.948 28.096 192.108 28.576 191.052 28.576C189.204 28.576 187.908 27.208 187.908 25.192C187.908 23.176 189.204 21.832 191.052 21.832C192.108 21.832 192.948 22.264 193.5 23.08L195.492 21.208C194.724 20.152 193.284 19.12 190.908 19.12C187.332 19.12 184.764 21.64 184.764 25.192C184.764 28.768 187.332 31.288 190.908 31.288ZM202.933 31.288C204.733 31.288 206.557 30.736 207.709 29.68L206.365 27.712C205.621 28.432 204.253 28.864 203.269 28.864C201.301 28.864 200.125 27.64 199.933 26.176H208.549V25.504C208.549 21.712 206.197 19.12 202.741 19.12C199.213 19.12 196.741 21.832 196.741 25.192C196.741 28.912 199.405 31.288 202.933 31.288ZM205.597 24.112H199.885C200.029 22.96 200.845 21.544 202.741 21.544C204.757 21.544 205.525 23.008 205.597 24.112ZM214.926 31.288C218.142 31.288 219.942 29.68 219.942 27.568C219.942 22.888 213.078 24.328 213.078 22.6C213.078 21.952 213.798 21.448 214.902 21.448C216.318 21.448 217.638 22.048 218.334 22.792L219.558 20.704C218.406 19.792 216.846 19.12 214.878 19.12C211.83 19.12 210.126 20.824 210.126 22.768C210.126 27.328 217.014 25.768 217.014 27.688C217.014 28.408 216.39 28.936 215.07 28.936C213.63 28.936 211.902 28.144 211.062 27.352L209.742 29.488C210.966 30.616 212.91 31.288 214.926 31.288ZM226.364 31.288C229.58 31.288 231.38 29.68 231.38 27.568C231.38 22.888 224.516 24.328 224.516 22.6C224.516 21.952 225.236 21.448 226.34 21.448C227.756 21.448 229.076 22.048 229.772 22.792L230.996 20.704C229.844 19.792 228.284 19.12 226.316 19.12C223.268 19.12 221.564 20.824 221.564 22.768C221.564 27.328 228.452 25.768 228.452 27.688C228.452 28.408 227.828 28.936 226.508 28.936C225.068 28.936 223.34 28.144 222.5 27.352L221.18 29.488C222.404 30.616 224.348 31.288 226.364 31.288Z" fill="#1A344B"/>
<path d="M41.0453 55.169C42.4623 55.169 43.6453 54.571 44.4513 53.674V50.541H40.3953V51.503H43.3723V53.271C42.9433 53.7 42.0853 54.207 41.0453 54.207C39.1473 54.207 37.7043 52.725 37.7043 50.671C37.7043 48.604 39.1473 47.148 41.0453 47.148C42.0853 47.148 43.0083 47.642 43.5543 48.344L44.4123 47.811C43.6453 46.862 42.5793 46.186 41.0453 46.186C38.5753 46.186 36.5863 47.98 36.5863 50.671C36.5863 53.362 38.5753 55.169 41.0453 55.169ZM48.9999 55.156C50.0269 55.156 50.8719 54.818 51.4959 54.194L51.0279 53.557C50.5339 54.064 49.8059 54.35 49.0909 54.35C47.7389 54.35 46.9069 53.362 46.8289 52.179H51.9119V51.932C51.9119 50.047 50.7939 48.565 48.8959 48.565C47.1019 48.565 45.8019 50.034 45.8019 51.854C45.8019 53.817 47.1409 55.156 48.9999 55.156ZM50.9499 51.464H46.8289C46.8809 50.502 47.5439 49.371 48.8829 49.371C50.3129 49.371 50.9369 50.528 50.9499 51.464ZM55.0771 55.156C55.6491 55.156 56.0001 54.987 56.2471 54.753L55.9611 54.025C55.8311 54.168 55.5711 54.285 55.2981 54.285C54.8691 54.285 54.6611 53.947 54.6611 53.479V49.579H55.9351V48.721H54.6611V47.005H53.6861V48.721H52.6461V49.579H53.6861V53.687C53.6861 54.623 54.1541 55.156 55.0771 55.156ZM65.877 55V48.721H64.902V53.336C64.538 53.843 63.81 54.285 63.043 54.285C62.198 54.285 61.639 53.96 61.639 52.855V48.721H60.664V53.154C60.664 54.519 61.353 55.156 62.666 55.156C63.602 55.156 64.421 54.662 64.902 54.116V55H65.877ZM73.0371 55V50.593C73.0371 49.228 72.3481 48.565 71.0351 48.565C70.0991 48.565 69.2411 49.111 68.7991 49.631V48.721H67.8241V55H68.7991V50.411C69.1631 49.904 69.8911 49.436 70.6581 49.436C71.5031 49.436 72.0621 49.787 72.0621 50.892V55H73.0371ZM75.9593 55V46.329H74.9843V55H75.9593ZM78.3852 47.824C78.7492 47.824 79.0482 47.538 79.0482 47.174C79.0482 46.81 78.7492 46.511 78.3852 46.511C78.0342 46.511 77.7352 46.81 77.7352 47.174C77.7352 47.538 78.0342 47.824 78.3852 47.824ZM78.8792 55V48.721H77.9042V55H78.8792ZM89.3781 55V50.463C89.3781 49.202 88.7671 48.565 87.6231 48.565C86.7131 48.565 85.8681 49.163 85.5171 49.735C85.3351 49.085 84.7891 48.565 83.8271 48.565C82.9041 48.565 82.0591 49.228 81.7991 49.631V48.721H80.8241V55H81.7991V50.411C82.1371 49.904 82.8131 49.436 83.4501 49.436C84.2691 49.436 84.6071 49.943 84.6071 50.736V55H85.5821V50.398C85.9071 49.904 86.5961 49.436 87.2461 49.436C88.0521 49.436 88.4031 49.943 88.4031 50.736V55H89.3781ZM91.8041 47.824C92.1681 47.824 92.4671 47.538 92.4671 47.174C92.4671 46.81 92.1681 46.511 91.8041 46.511C91.4531 46.511 91.1541 46.81 91.1541 47.174C91.1541 47.538 91.4531 47.824 91.8041 47.824ZM92.2981 55V48.721H91.3231V55H92.2981ZM95.8291 55.156C96.4011 55.156 96.7521 54.987 96.9991 54.753L96.7131 54.025C96.5831 54.168 96.3231 54.285 96.0501 54.285C95.6211 54.285 95.4131 53.947 95.4131 53.479V49.579H96.6871V48.721H95.4131V47.005H94.4381V48.721H93.3981V49.579H94.4381V53.687C94.4381 54.623 94.9061 55.156 95.8291 55.156ZM100.898 55.156C101.925 55.156 102.77 54.818 103.394 54.194L102.926 53.557C102.432 54.064 101.704 54.35 100.989 54.35C99.6374 54.35 98.8054 53.362 98.7274 52.179H103.81V51.932C103.81 50.047 102.692 48.565 100.794 48.565C99.0004 48.565 97.7004 50.034 97.7004 51.854C97.7004 53.817 99.0394 55.156 100.898 55.156ZM102.848 51.464H98.7274C98.7794 50.502 99.4424 49.371 100.781 49.371C102.211 49.371 102.835 50.528 102.848 51.464ZM110.915 55V46.329H109.94V49.67C109.433 48.981 108.666 48.565 107.821 48.565C106.17 48.565 105.026 49.865 105.026 51.867C105.026 53.908 106.183 55.156 107.821 55.156C108.705 55.156 109.472 54.701 109.94 54.064V55H110.915ZM108.055 54.285C106.794 54.285 106.04 53.258 106.04 51.867C106.04 50.476 106.794 49.436 108.055 49.436C108.835 49.436 109.589 49.904 109.94 50.45V53.297C109.589 53.843 108.835 54.285 108.055 54.285ZM117.467 55V49.579H118.741V48.721H117.467V48.24C117.467 47.447 117.818 47.005 118.455 47.005C118.78 47.005 119.027 47.135 119.235 47.317L119.638 46.68C119.248 46.316 118.806 46.199 118.312 46.199C117.194 46.199 116.492 46.953 116.492 48.24V48.721H115.452V49.579H116.492V55H117.467ZM122.734 55.156C123.761 55.156 124.606 54.818 125.23 54.194L124.762 53.557C124.268 54.064 123.54 54.35 122.825 54.35C121.473 54.35 120.641 53.362 120.563 52.179H125.646V51.932C125.646 50.047 124.528 48.565 122.63 48.565C120.836 48.565 119.536 50.034 119.536 51.854C119.536 53.817 120.875 55.156 122.734 55.156ZM124.684 51.464H120.563C120.615 50.502 121.278 49.371 122.617 49.371C124.047 49.371 124.671 50.528 124.684 51.464ZM132.126 55V50.684C132.126 49.163 131.021 48.565 129.695 48.565C128.668 48.565 127.862 48.903 127.186 49.605L127.641 50.281C128.2 49.683 128.811 49.41 129.565 49.41C130.475 49.41 131.151 49.891 131.151 50.736V51.867C130.644 51.282 129.929 51.009 129.071 51.009C128.005 51.009 126.874 51.672 126.874 53.076C126.874 54.441 128.005 55.156 129.071 55.156C129.916 55.156 130.631 54.857 131.151 54.285V55H132.126ZM129.422 54.454C128.512 54.454 127.875 53.882 127.875 53.089C127.875 52.283 128.512 51.711 129.422 51.711C130.111 51.711 130.774 51.971 131.151 52.491V53.674C130.774 54.194 130.111 54.454 129.422 54.454ZM135.667 55.156C136.239 55.156 136.59 54.987 136.837 54.753L136.551 54.025C136.421 54.168 136.161 54.285 135.888 54.285C135.459 54.285 135.251 53.947 135.251 53.479V49.579H136.525V48.721H135.251V47.005H134.276V48.721H133.236V49.579H134.276V53.687C134.276 54.623 134.744 55.156 135.667 55.156ZM143.115 55V48.721H142.14V53.336C141.776 53.843 141.048 54.285 140.281 54.285C139.436 54.285 138.877 53.96 138.877 52.855V48.721H137.902V53.154C137.902 54.519 138.591 55.156 139.904 55.156C140.84 55.156 141.659 54.662 142.14 54.116V55H143.115ZM146.037 55V50.554C146.323 50.047 147.142 49.553 147.74 49.553C147.896 49.553 148.013 49.566 148.13 49.592V48.591C147.272 48.591 146.544 49.072 146.037 49.735V48.721H145.062V55H146.037ZM152.187 55.156C153.214 55.156 154.059 54.818 154.683 54.194L154.215 53.557C153.721 54.064 152.993 54.35 152.278 54.35C150.926 54.35 150.094 53.362 150.016 52.179H155.099V51.932C155.099 50.047 153.981 48.565 152.083 48.565C150.289 48.565 148.989 50.034 148.989 51.854C148.989 53.817 150.328 55.156 152.187 55.156ZM154.137 51.464H150.016C150.068 50.502 150.731 49.371 152.07 49.371C153.5 49.371 154.124 50.528 154.137 51.464ZM158.668 55.156C160.293 55.156 161.138 54.311 161.138 53.258C161.138 50.814 157.251 51.724 157.251 50.346C157.251 49.787 157.784 49.358 158.642 49.358C159.448 49.358 160.137 49.696 160.514 50.151L160.969 49.475C160.462 48.968 159.708 48.565 158.642 48.565C157.147 48.565 156.302 49.397 156.302 50.372C156.302 52.699 160.189 51.763 160.189 53.284C160.189 53.908 159.669 54.363 158.707 54.363C157.849 54.363 157.056 53.947 156.64 53.466L156.133 54.168C156.77 54.844 157.641 55.156 158.668 55.156ZM170.974 55V50.684C170.974 49.163 169.869 48.565 168.543 48.565C167.516 48.565 166.71 48.903 166.034 49.605L166.489 50.281C167.048 49.683 167.659 49.41 168.413 49.41C169.323 49.41 169.999 49.891 169.999 50.736V51.867C169.492 51.282 168.777 51.009 167.919 51.009C166.853 51.009 165.722 51.672 165.722 53.076C165.722 54.441 166.853 55.156 167.919 55.156C168.764 55.156 169.479 54.857 169.999 54.285V55H170.974ZM168.27 54.454C167.36 54.454 166.723 53.882 166.723 53.089C166.723 52.283 167.36 51.711 168.27 51.711C168.959 51.711 169.622 51.971 169.999 52.491V53.674C169.622 54.194 168.959 54.454 168.27 54.454ZM178.142 55V50.593C178.142 49.228 177.453 48.565 176.14 48.565C175.204 48.565 174.346 49.111 173.904 49.631V48.721H172.929V55H173.904V50.411C174.268 49.904 174.996 49.436 175.763 49.436C176.608 49.436 177.167 49.787 177.167 50.892V55H178.142ZM185.614 55V46.329H184.639V49.67C184.132 48.981 183.365 48.565 182.52 48.565C180.869 48.565 179.725 49.865 179.725 51.867C179.725 53.908 180.882 55.156 182.52 55.156C183.404 55.156 184.171 54.701 184.639 54.064V55H185.614ZM182.754 54.285C181.493 54.285 180.739 53.258 180.739 51.867C180.739 50.476 181.493 49.436 182.754 49.436C183.534 49.436 184.288 49.904 184.639 50.45V53.297C184.288 53.843 183.534 54.285 182.754 54.285ZM194.012 55.156C195.663 55.156 196.807 53.882 196.807 51.854C196.807 49.813 195.663 48.565 194.012 48.565C193.128 48.565 192.348 49.02 191.893 49.657V48.721H190.918V57.392H191.893V54.051C192.4 54.753 193.154 55.156 194.012 55.156ZM193.765 54.285C192.998 54.285 192.231 53.817 191.893 53.271V50.437C192.231 49.891 192.998 49.436 193.765 49.436C195.026 49.436 195.78 50.463 195.78 51.854C195.78 53.245 195.026 54.285 193.765 54.285ZM199.332 55V50.554C199.618 50.047 200.437 49.553 201.035 49.553C201.191 49.553 201.308 49.566 201.425 49.592V48.591C200.567 48.591 199.839 49.072 199.332 49.735V48.721H198.357V55H199.332ZM205.482 55.156C206.509 55.156 207.354 54.818 207.978 54.194L207.51 53.557C207.016 54.064 206.288 54.35 205.573 54.35C204.221 54.35 203.389 53.362 203.311 52.179H208.394V51.932C208.394 50.047 207.276 48.565 205.378 48.565C203.584 48.565 202.284 50.034 202.284 51.854C202.284 53.817 203.623 55.156 205.482 55.156ZM207.432 51.464H203.311C203.363 50.502 204.026 49.371 205.365 49.371C206.795 49.371 207.419 50.528 207.432 51.464ZM218.528 55V50.463C218.528 49.202 217.917 48.565 216.773 48.565C215.863 48.565 215.018 49.163 214.667 49.735C214.485 49.085 213.939 48.565 212.977 48.565C212.054 48.565 211.209 49.228 210.949 49.631V48.721H209.974V55H210.949V50.411C211.287 49.904 211.963 49.436 212.6 49.436C213.419 49.436 213.757 49.943 213.757 50.736V55H214.732V50.398C215.057 49.904 215.746 49.436 216.396 49.436C217.202 49.436 217.553 49.943 217.553 50.736V55H218.528ZM220.954 47.824C221.318 47.824 221.617 47.538 221.617 47.174C221.617 46.81 221.318 46.511 220.954 46.511C220.603 46.511 220.304 46.81 220.304 47.174C220.304 47.538 220.603 47.824 220.954 47.824ZM221.448 55V48.721H220.473V55H221.448ZM228.605 55V48.721H227.63V53.336C227.266 53.843 226.538 54.285 225.771 54.285C224.926 54.285 224.367 53.96 224.367 52.855V48.721H223.392V53.154C223.392 54.519 224.081 55.156 225.394 55.156C226.33 55.156 227.149 54.662 227.63 54.116V55H228.605ZM239.107 55V50.463C239.107 49.202 238.496 48.565 237.352 48.565C236.442 48.565 235.597 49.163 235.246 49.735C235.064 49.085 234.518 48.565 233.556 48.565C232.633 48.565 231.788 49.228 231.528 49.631V48.721H230.553V55H231.528V50.411C231.866 49.904 232.542 49.436 233.179 49.436C233.998 49.436 234.336 49.943 234.336 50.736V55H235.311V50.398C235.636 49.904 236.325 49.436 236.975 49.436C237.781 49.436 238.132 49.943 238.132 50.736V55H239.107ZM54.2614 71.156C55.8864 71.156 56.7314 70.311 56.7314 69.258C56.7314 66.814 52.8444 67.724 52.8444 66.346C52.8444 65.787 53.3774 65.358 54.2354 65.358C55.0414 65.358 55.7304 65.696 56.1074 66.151L56.5624 65.475C56.0554 64.968 55.3014 64.565 54.2354 64.565C52.7404 64.565 51.8954 65.397 51.8954 66.372C51.8954 68.699 55.7824 67.763 55.7824 69.284C55.7824 69.908 55.2624 70.363 54.3004 70.363C53.4424 70.363 52.6494 69.947 52.2334 69.466L51.7264 70.168C52.3634 70.844 53.2344 71.156 54.2614 71.156ZM63.5283 71V64.721H62.5533V69.336C62.1893 69.843 61.4613 70.285 60.6943 70.285C59.8493 70.285 59.2903 69.96 59.2903 68.855V64.721H58.3153V69.154C58.3153 70.519 59.0043 71.156 60.3173 71.156C61.2533 71.156 62.0723 70.662 62.5533 70.116V71H63.5283ZM68.5695 71.156C70.2205 71.156 71.3645 69.882 71.3645 67.854C71.3645 65.813 70.2205 64.565 68.5695 64.565C67.6855 64.565 66.9055 65.02 66.4505 65.657V64.721H65.4755V73.392H66.4505V70.051C66.9575 70.753 67.7115 71.156 68.5695 71.156ZM68.3225 70.285C67.5555 70.285 66.7885 69.817 66.4505 69.271V66.437C66.7885 65.891 67.5555 65.436 68.3225 65.436C69.5835 65.436 70.3375 66.463 70.3375 67.854C70.3375 69.245 69.5835 70.285 68.3225 70.285ZM76.0089 71.156C77.6599 71.156 78.8039 69.882 78.8039 67.854C78.8039 65.813 77.6599 64.565 76.0089 64.565C75.1249 64.565 74.3449 65.02 73.8899 65.657V64.721H72.9149V73.392H73.8899V70.051C74.3969 70.753 75.1509 71.156 76.0089 71.156ZM75.7619 70.285C74.9949 70.285 74.2279 69.817 73.8899 69.271V66.437C74.2279 65.891 74.9949 65.436 75.7619 65.436C77.0229 65.436 77.7769 66.463 77.7769 67.854C77.7769 69.245 77.0229 70.285 75.7619 70.285ZM83.0974 71.156C85.0084 71.156 86.2044 69.674 86.2044 67.854C86.2044 66.034 85.0084 64.565 83.0974 64.565C81.1864 64.565 79.9904 66.034 79.9904 67.854C79.9904 69.674 81.1864 71.156 83.0974 71.156ZM83.0974 70.285C81.7584 70.285 81.0044 69.141 81.0044 67.854C81.0044 66.58 81.7584 65.436 83.0974 65.436C84.4364 65.436 85.1774 66.58 85.1774 67.854C85.1774 69.141 84.4364 70.285 83.0974 70.285ZM88.7688 71V66.554C89.0548 66.047 89.8738 65.553 90.4718 65.553C90.6278 65.553 90.7448 65.566 90.8618 65.592V64.591C90.0038 64.591 89.2758 65.072 88.7688 65.735V64.721H87.7938V71H88.7688ZM93.6709 71.156C94.2429 71.156 94.5939 70.987 94.8409 70.753L94.5549 70.025C94.4249 70.168 94.1649 70.285 93.8919 70.285C93.4629 70.285 93.2549 69.947 93.2549 69.479V65.579H94.5289V64.721H93.2549V63.005H92.2799V64.721H91.2399V65.579H92.2799V69.687C92.2799 70.623 92.7479 71.156 93.6709 71.156ZM105.667 71L107.669 64.721H106.655L105.121 69.726L103.47 64.721H102.638L100.987 69.726L99.4527 64.721H98.4387L100.441 71H101.416L103.054 65.956L104.692 71H105.667ZM109.286 63.824C109.65 63.824 109.949 63.538 109.949 63.174C109.949 62.81 109.65 62.511 109.286 62.511C108.935 62.511 108.636 62.81 108.636 63.174C108.636 63.538 108.935 63.824 109.286 63.824ZM109.78 71V64.721H108.805V71H109.78ZM113.311 71.156C113.883 71.156 114.234 70.987 114.481 70.753L114.195 70.025C114.065 70.168 113.805 70.285 113.532 70.285C113.103 70.285 112.895 69.947 112.895 69.479V65.579H114.169V64.721H112.895V63.005H111.92V64.721H110.88V65.579H111.92V69.687C111.92 70.623 112.388 71.156 113.311 71.156ZM120.772 71V66.567C120.772 65.202 120.083 64.565 118.77 64.565C117.821 64.565 116.963 65.111 116.521 65.631V62.329H115.546V71H116.521V66.411C116.898 65.904 117.626 65.436 118.38 65.436C119.225 65.436 119.797 65.761 119.797 66.866V71H120.772ZM130.217 71.169C131.634 71.169 132.817 70.571 133.623 69.674V66.541H129.567V67.503H132.544V69.271C132.115 69.7 131.257 70.207 130.217 70.207C128.319 70.207 126.876 68.725 126.876 66.671C126.876 64.604 128.319 63.148 130.217 63.148C131.257 63.148 132.18 63.642 132.726 64.344L133.584 63.811C132.817 62.862 131.751 62.186 130.217 62.186C127.747 62.186 125.758 63.98 125.758 66.671C125.758 69.362 127.747 71.169 130.217 71.169ZM138.081 71.156C139.992 71.156 141.188 69.674 141.188 67.854C141.188 66.034 139.992 64.565 138.081 64.565C136.17 64.565 134.974 66.034 134.974 67.854C134.974 69.674 136.17 71.156 138.081 71.156ZM138.081 70.285C136.742 70.285 135.988 69.141 135.988 67.854C135.988 66.58 136.742 65.436 138.081 65.436C139.42 65.436 140.161 66.58 140.161 67.854C140.161 69.141 139.42 70.285 138.081 70.285ZM143.752 71V62.329H142.777V71H143.752ZM151.222 71V62.329H150.247V65.67C149.74 64.981 148.973 64.565 148.128 64.565C146.477 64.565 145.333 65.865 145.333 67.867C145.333 69.908 146.49 71.156 148.128 71.156C149.012 71.156 149.779 70.701 150.247 70.064V71H151.222ZM148.362 70.285C147.101 70.285 146.347 69.258 146.347 67.867C146.347 66.476 147.101 65.436 148.362 65.436C149.142 65.436 149.896 65.904 150.247 66.45V69.297C149.896 69.843 149.142 70.285 148.362 70.285ZM158.515 71.156C160.14 71.156 160.985 70.311 160.985 69.258C160.985 66.814 157.098 67.724 157.098 66.346C157.098 65.787 157.631 65.358 158.489 65.358C159.295 65.358 159.984 65.696 160.361 66.151L160.816 65.475C160.309 64.968 159.555 64.565 158.489 64.565C156.994 64.565 156.149 65.397 156.149 66.372C156.149 68.699 160.036 67.763 160.036 69.284C160.036 69.908 159.516 70.363 158.554 70.363C157.696 70.363 156.903 69.947 156.487 69.466L155.98 70.168C156.617 70.844 157.488 71.156 158.515 71.156ZM167.782 71V64.721H166.807V69.336C166.443 69.843 165.715 70.285 164.948 70.285C164.103 70.285 163.544 69.96 163.544 68.855V64.721H162.569V69.154C162.569 70.519 163.258 71.156 164.571 71.156C165.507 71.156 166.326 70.662 166.807 70.116V71H167.782ZM170.704 69.297V66.45C171.042 65.904 171.809 65.436 172.576 65.436C173.85 65.436 174.604 66.476 174.604 67.867C174.604 69.258 173.85 70.285 172.576 70.285C171.809 70.285 171.042 69.843 170.704 69.297ZM170.704 71V70.064C171.172 70.701 171.939 71.156 172.823 71.156C174.461 71.156 175.618 69.908 175.618 67.867C175.618 65.865 174.461 64.565 172.823 64.565C171.965 64.565 171.211 64.981 170.704 65.67V62.329H169.729V71H170.704ZM179.196 71.156C180.821 71.156 181.666 70.311 181.666 69.258C181.666 66.814 177.779 67.724 177.779 66.346C177.779 65.787 178.312 65.358 179.17 65.358C179.976 65.358 180.665 65.696 181.042 66.151L181.497 65.475C180.99 64.968 180.236 64.565 179.17 64.565C177.675 64.565 176.83 65.397 176.83 66.372C176.83 68.699 180.717 67.763 180.717 69.284C180.717 69.908 180.197 70.363 179.235 70.363C178.377 70.363 177.584 69.947 177.168 69.466L176.661 70.168C177.298 70.844 178.169 71.156 179.196 71.156ZM186.019 71.156C187.163 71.156 187.839 70.688 188.32 70.064L187.67 69.466C187.254 70.025 186.721 70.285 186.071 70.285C184.732 70.285 183.9 69.245 183.9 67.854C183.9 66.463 184.732 65.436 186.071 65.436C186.721 65.436 187.254 65.683 187.67 66.255L188.32 65.657C187.839 65.033 187.163 64.565 186.019 64.565C184.147 64.565 182.886 65.995 182.886 67.854C182.886 69.726 184.147 71.156 186.019 71.156ZM190.661 71V66.554C190.947 66.047 191.766 65.553 192.364 65.553C192.52 65.553 192.637 65.566 192.754 65.592V64.591C191.896 64.591 191.168 65.072 190.661 65.735V64.721H189.686V71H190.661ZM194.458 63.824C194.822 63.824 195.121 63.538 195.121 63.174C195.121 62.81 194.822 62.511 194.458 62.511C194.107 62.511 193.808 62.81 193.808 63.174C193.808 63.538 194.107 63.824 194.458 63.824ZM194.952 71V64.721H193.977V71H194.952ZM199.991 71.156C201.642 71.156 202.786 69.882 202.786 67.854C202.786 65.813 201.642 64.565 199.991 64.565C199.107 64.565 198.327 65.02 197.872 65.657V64.721H196.897V73.392H197.872V70.051C198.379 70.753 199.133 71.156 199.991 71.156ZM199.744 70.285C198.977 70.285 198.21 69.817 197.872 69.271V66.437C198.21 65.891 198.977 65.436 199.744 65.436C201.005 65.436 201.759 66.463 201.759 67.854C201.759 69.245 201.005 70.285 199.744 70.285ZM205.923 71.156C206.495 71.156 206.846 70.987 207.093 70.753L206.807 70.025C206.677 70.168 206.417 70.285 206.144 70.285C205.715 70.285 205.507 69.947 205.507 69.479V65.579H206.781V64.721H205.507V63.005H204.532V64.721H203.492V65.579H204.532V69.687C204.532 70.623 205 71.156 205.923 71.156ZM208.639 63.824C209.003 63.824 209.302 63.538 209.302 63.174C209.302 62.81 209.003 62.511 208.639 62.511C208.288 62.511 207.989 62.81 207.989 63.174C207.989 63.538 208.288 63.824 208.639 63.824ZM209.133 71V64.721H208.158V71H209.133ZM213.821 71.156C215.732 71.156 216.928 69.674 216.928 67.854C216.928 66.034 215.732 64.565 213.821 64.565C211.91 64.565 210.714 66.034 210.714 67.854C210.714 69.674 211.91 71.156 213.821 71.156ZM213.821 70.285C212.482 70.285 211.728 69.141 211.728 67.854C211.728 66.58 212.482 65.436 213.821 65.436C215.16 65.436 215.901 66.58 215.901 67.854C215.901 69.141 215.16 70.285 213.821 70.285ZM223.73 71V66.593C223.73 65.228 223.041 64.565 221.728 64.565C220.792 64.565 219.934 65.111 219.492 65.631V64.721H218.517V71H219.492V66.411C219.856 65.904 220.584 65.436 221.351 65.436C222.196 65.436 222.755 65.787 222.755 66.892V71H223.73Z" fill="#97ADC6"/>
<path d="M20 113C20 106.373 25.3726 101 32 101H84C90.6274 101 96 106.373 96 113V189C96 195.627 90.6274 201 84 201H32C25.3726 201 20 195.627 20 189V113Z" fill="white"/>
<path d="M58.6052 142.408C63.7732 142.408 67.2752 139.042 67.2752 134.622C67.2752 129.794 63.6372 127.244 59.5572 127.244C57.0752 127.244 54.7972 128.638 53.7432 130.168C53.7092 129.998 53.7092 129.862 53.7092 129.692C53.7092 126.088 56.0552 123.266 59.3872 123.266C61.3932 123.266 62.6852 123.878 63.9092 125.034L66.0852 121.328C64.4532 119.934 62.1412 118.982 59.3872 118.982C52.6892 118.982 48.8132 123.844 48.8132 130.712C48.8132 137.104 51.7032 142.408 58.6052 142.408ZM58.3332 138.124C55.1712 138.124 53.9472 135.71 53.7432 133.534C54.8312 132.174 56.4632 131.392 58.1632 131.392C60.3392 131.392 62.3792 132.412 62.3792 134.792C62.3792 136.39 60.9512 138.124 58.3332 138.124Z" fill="#1A344B"/>
<path d="M46.1738 158V153.463C46.1738 152.176 45.4848 151.565 44.3278 151.565C43.3658 151.565 42.5338 152.137 42.1698 152.709C41.9358 151.994 41.3508 151.565 40.4278 151.565C39.4658 151.565 38.6338 152.163 38.3738 152.54V151.721H36.7228V158H38.3738V153.775C38.6208 153.424 39.1018 153.034 39.6738 153.034C40.3498 153.034 40.6098 153.45 40.6098 154.035V158H42.2738V153.762C42.5078 153.424 42.9888 153.034 43.5738 153.034C44.2498 153.034 44.5098 153.45 44.5098 154.035V158H46.1738ZM50.7051 158.156C52.7851 158.156 54.0331 156.648 54.0331 154.854C54.0331 153.073 52.7851 151.565 50.7051 151.565C48.6381 151.565 47.3901 153.073 47.3901 154.854C47.3901 156.648 48.6381 158.156 50.7051 158.156ZM50.7051 156.687C49.6781 156.687 49.1061 155.842 49.1061 154.854C49.1061 153.879 49.6781 153.034 50.7051 153.034C51.7321 153.034 52.3171 153.879 52.3171 154.854C52.3171 155.842 51.7321 156.687 50.7051 156.687ZM61.147 158V153.567C61.147 152.345 60.484 151.565 59.106 151.565C58.079 151.565 57.312 152.059 56.909 152.54V151.721H55.258V158H56.909V153.775C57.182 153.398 57.689 153.034 58.339 153.034C59.041 153.034 59.496 153.333 59.496 154.204V158H61.147ZM64.8923 158.156C65.5813 158.156 66.0233 157.974 66.2703 157.753L65.9193 156.505C65.8283 156.596 65.5943 156.687 65.3473 156.687C64.9833 156.687 64.7753 156.388 64.7753 155.998V153.164H66.0493V151.721H64.7753V150.005H63.1113V151.721H62.0713V153.164H63.1113V156.44C63.1113 157.558 63.7353 158.156 64.8923 158.156ZM73.0809 158V153.541C73.0809 152.319 72.4179 151.565 71.0399 151.565C70.0129 151.565 69.2329 152.059 68.8299 152.54V149.329H67.1789V158H68.8299V153.775C69.1159 153.398 69.6229 153.034 70.2599 153.034C70.9749 153.034 71.4299 153.307 71.4299 154.178V158H73.0809ZM76.9819 158.156C78.7239 158.156 79.6989 157.285 79.6989 156.141C79.6989 153.606 75.9809 154.386 75.9809 153.45C75.9809 153.099 76.3709 152.826 76.9689 152.826C77.7359 152.826 78.4509 153.151 78.8279 153.554L79.4909 152.423C78.8669 151.929 78.0219 151.565 76.9559 151.565C75.3049 151.565 74.3819 152.488 74.3819 153.541C74.3819 156.011 78.1129 155.166 78.1129 156.206C78.1129 156.596 77.7749 156.882 77.0599 156.882C76.2799 156.882 75.3439 156.453 74.8889 156.024L74.1739 157.181C74.8369 157.792 75.8899 158.156 76.9819 158.156Z" fill="#1A344B"/>
<path d="M42.6641 185.3H43.4571V184.143C45.4591 183.987 46.2131 182.791 46.2131 181.608C46.2131 179.918 44.7961 179.411 43.4571 179.034V176.213C44.1851 176.317 44.8481 176.642 45.3681 177.201L46.0181 176.408C45.3811 175.745 44.5361 175.329 43.4571 175.225V174.016H42.6641V175.212C41.0911 175.303 39.9601 176.252 39.9601 177.604C39.9601 179.203 41.3381 179.645 42.6641 180.009V183.181C41.6241 183.064 40.8311 182.531 40.3241 181.959L39.6871 182.778C40.3371 183.519 41.3381 184.065 42.6641 184.143V185.3ZM45.0951 181.699C45.0951 182.31 44.6921 183.051 43.4571 183.181V180.23C44.3671 180.503 45.0951 180.854 45.0951 181.699ZM41.0781 177.539C41.0781 176.772 41.7281 176.239 42.6641 176.174V178.826C41.7801 178.566 41.0781 178.267 41.0781 177.539ZM50.2402 184V175.329H49.2912L47.1202 177.565L47.7702 178.228L49.1612 176.759V184H50.2402ZM56.8684 184V181.803H58.0904V180.854H56.8684V175.329H55.3864L51.6684 180.906V181.803H55.7894V184H56.8684ZM55.7894 180.854H52.7474L55.7894 176.33V180.854ZM59.9965 184.13C60.3865 184.13 60.7115 183.805 60.7115 183.415C60.7115 183.025 60.3865 182.7 59.9965 182.7C59.6065 182.7 59.2815 183.025 59.2815 183.415C59.2815 183.805 59.6065 184.13 59.9965 184.13ZM64.9946 184.143C67.4256 184.143 68.5176 182.011 68.5176 179.671C68.5176 177.305 67.5946 175.186 65.1636 175.186C63.2786 175.186 62.1346 176.525 62.1346 178.02C62.1346 179.866 63.4216 180.789 64.9816 180.789C66.0866 180.789 67.0486 180.035 67.4256 179.437C67.4386 179.554 67.4386 179.671 67.4386 179.788C67.4386 181.426 66.7496 183.181 64.9946 183.181C64.0976 183.181 63.5776 182.817 63.1356 182.297L62.5896 183.103C63.1356 183.727 63.8896 184.143 64.9946 184.143ZM65.2286 179.853C64.1106 179.853 63.2266 179.255 63.2266 177.981C63.2266 177.162 63.8896 176.148 65.2156 176.148C66.7236 176.148 67.2956 177.487 67.3866 178.566C66.9316 179.333 66.0866 179.853 65.2286 179.853ZM72.6752 184.143C75.1062 184.143 76.1982 182.011 76.1982 179.671C76.1982 177.305 75.2752 175.186 72.8442 175.186C70.9592 175.186 69.8152 176.525 69.8152 178.02C69.8152 179.866 71.1022 180.789 72.6622 180.789C73.7672 180.789 74.7292 180.035 75.1062 179.437C75.1192 179.554 75.1192 179.671 75.1192 179.788C75.1192 181.426 74.4302 183.181 72.6752 183.181C71.7782 183.181 71.2582 182.817 70.8162 182.297L70.2702 183.103C70.8162 183.727 71.5702 184.143 72.6752 184.143ZM72.9092 179.853C71.7912 179.853 70.9072 179.255 70.9072 177.981C70.9072 177.162 71.5702 176.148 72.8962 176.148C74.4042 176.148 74.9762 177.487 75.0672 178.566C74.6122 179.333 73.7672 179.853 72.9092 179.853Z" fill="#1A344B"/>
<path d="M32 102H84V100H32V102ZM95 113V189H97V113H95ZM84 200H32V202H84V200ZM21 189V113H19V189H21ZM32 200C25.9249 200 21 195.075 21 189H19C19 196.18 24.8203 202 32 202V200ZM95 189C95 195.075 90.0751 200 84 200V202C91.1797 202 97 196.18 97 189H95ZM84 102C90.0751 102 95 106.925 95 113H97C97 105.82 91.1797 100 84 100V102ZM32 100C24.8203 100 19 105.82 19 113H21C21 106.925 25.9249 102 32 102V100Z" fill="#D9E3EB"/>
<path d="M138.547 142V119.322H134.331L127.191 126.496L129.945 129.386L133.719 125.544V142H138.547ZM159.462 142V137.75H150.214C156.096 133.466 159.292 130.1 159.292 126.224C159.292 121.702 155.45 118.982 150.622 118.982C147.46 118.982 144.094 120.138 141.884 122.688L144.638 125.884C146.168 124.286 148.14 123.266 150.724 123.266C152.594 123.266 154.396 124.252 154.396 126.224C154.396 129.012 151.676 131.358 142.394 138.226V142H159.462Z" fill="#1A344B"/>
<path d="M132.174 158V153.463C132.174 152.176 131.485 151.565 130.328 151.565C129.366 151.565 128.534 152.137 128.17 152.709C127.936 151.994 127.351 151.565 126.428 151.565C125.466 151.565 124.634 152.163 124.374 152.54V151.721H122.723V158H124.374V153.775C124.621 153.424 125.102 153.034 125.674 153.034C126.35 153.034 126.61 153.45 126.61 154.035V158H128.274V153.762C128.508 153.424 128.989 153.034 129.574 153.034C130.25 153.034 130.51 153.45 130.51 154.035V158H132.174ZM136.705 158.156C138.785 158.156 140.033 156.648 140.033 154.854C140.033 153.073 138.785 151.565 136.705 151.565C134.638 151.565 133.39 153.073 133.39 154.854C133.39 156.648 134.638 158.156 136.705 158.156ZM136.705 156.687C135.678 156.687 135.106 155.842 135.106 154.854C135.106 153.879 135.678 153.034 136.705 153.034C137.732 153.034 138.317 153.879 138.317 154.854C138.317 155.842 137.732 156.687 136.705 156.687ZM147.147 158V153.567C147.147 152.345 146.484 151.565 145.106 151.565C144.079 151.565 143.312 152.059 142.909 152.54V151.721H141.258V158H142.909V153.775C143.182 153.398 143.689 153.034 144.339 153.034C145.041 153.034 145.496 153.333 145.496 154.204V158H147.147ZM150.892 158.156C151.581 158.156 152.023 157.974 152.27 157.753L151.919 156.505C151.828 156.596 151.594 156.687 151.347 156.687C150.983 156.687 150.775 156.388 150.775 155.998V153.164H152.049V151.721H150.775V150.005H149.111V151.721H148.071V153.164H149.111V156.44C149.111 157.558 149.735 158.156 150.892 158.156ZM159.081 158V153.541C159.081 152.319 158.418 151.565 157.04 151.565C156.013 151.565 155.233 152.059 154.83 152.54V149.329H153.179V158H154.83V153.775C155.116 153.398 155.623 153.034 156.26 153.034C156.975 153.034 157.43 153.307 157.43 154.178V158H159.081ZM162.982 158.156C164.724 158.156 165.699 157.285 165.699 156.141C165.699 153.606 161.981 154.386 161.981 153.45C161.981 153.099 162.371 152.826 162.969 152.826C163.736 152.826 164.451 153.151 164.828 153.554L165.491 152.423C164.867 151.929 164.022 151.565 162.956 151.565C161.305 151.565 160.382 152.488 160.382 153.541C160.382 156.011 164.113 155.166 164.113 156.206C164.113 156.596 163.775 156.882 163.06 156.882C162.28 156.882 161.344 156.453 160.889 156.024L160.174 157.181C160.837 157.792 161.89 158.156 162.982 158.156Z" fill="#1A344B"/>
<path d="M127.045 185.3H127.838V184.143C129.84 183.987 130.594 182.791 130.594 181.608C130.594 179.918 129.177 179.411 127.838 179.034V176.213C128.566 176.317 129.229 176.642 129.749 177.201L130.399 176.408C129.762 175.745 128.917 175.329 127.838 175.225V174.016H127.045V175.212C125.472 175.303 124.341 176.252 124.341 177.604C124.341 179.203 125.719 179.645 127.045 180.009V183.181C126.005 183.064 125.212 182.531 124.705 181.959L124.068 182.778C124.718 183.519 125.719 184.065 127.045 184.143V185.3ZM129.476 181.699C129.476 182.31 129.073 183.051 127.838 183.181V180.23C128.748 180.503 129.476 180.854 129.476 181.699ZM125.459 177.539C125.459 176.772 126.109 176.239 127.045 176.174V178.826C126.161 178.566 125.459 178.267 125.459 177.539ZM137.885 184V183.038H133.634C136.052 181.127 137.846 179.515 137.846 177.747C137.846 176.018 136.377 175.199 134.934 175.199C133.712 175.199 132.581 175.693 131.918 176.564L132.581 177.253C133.088 176.603 133.894 176.161 134.934 176.161C135.831 176.161 136.741 176.642 136.741 177.747C136.741 179.242 135.051 180.685 131.931 183.142V184H137.885ZM144.487 184V181.803H145.709V180.854H144.487V175.329H143.005L139.287 180.906V181.803H143.408V184H144.487ZM143.408 180.854H140.366L143.408 176.33V180.854ZM147.615 184.13C148.005 184.13 148.33 183.805 148.33 183.415C148.33 183.025 148.005 182.7 147.615 182.7C147.225 182.7 146.9 183.025 146.9 183.415C146.9 183.805 147.225 184.13 147.615 184.13ZM152.613 184.143C155.044 184.143 156.136 182.011 156.136 179.671C156.136 177.305 155.213 175.186 152.782 175.186C150.897 175.186 149.753 176.525 149.753 178.02C149.753 179.866 151.04 180.789 152.6 180.789C153.705 180.789 154.667 180.035 155.044 179.437C155.057 179.554 155.057 179.671 155.057 179.788C155.057 181.426 154.368 183.181 152.613 183.181C151.716 183.181 151.196 182.817 150.754 182.297L150.208 183.103C150.754 183.727 151.508 184.143 152.613 184.143ZM152.847 179.853C151.729 179.853 150.845 179.255 150.845 177.981C150.845 177.162 151.508 176.148 152.834 176.148C154.342 176.148 154.914 177.487 155.005 178.566C154.55 179.333 153.705 179.853 152.847 179.853ZM160.294 184.143C162.725 184.143 163.817 182.011 163.817 179.671C163.817 177.305 162.894 175.186 160.463 175.186C158.578 175.186 157.434 176.525 157.434 178.02C157.434 179.866 158.721 180.789 160.281 180.789C161.386 180.789 162.348 180.035 162.725 179.437C162.738 179.554 162.738 179.671 162.738 179.788C162.738 181.426 162.049 183.181 160.294 183.181C159.397 183.181 158.877 182.817 158.435 182.297L157.889 183.103C158.435 183.727 159.189 184.143 160.294 184.143ZM160.528 179.853C159.41 179.853 158.526 179.255 158.526 177.981C158.526 177.162 159.189 176.148 160.515 176.148C162.023 176.148 162.595 177.487 162.686 178.566C162.231 179.333 161.386 179.853 160.528 179.853Z" fill="#1A344B"/>
<path d="M119.75 102V96.664H118.15L116.854 99.888L115.558 96.664H113.965V102H115.102V98.264L116.606 102H117.102L118.606 98.264V102H119.75ZM123.337 102.096C124.953 102.096 126.129 100.944 126.129 99.336C126.129 97.728 124.953 96.576 123.337 96.576C121.729 96.576 120.553 97.728 120.553 99.336C120.553 100.944 121.729 102.096 123.337 102.096ZM123.337 101.088C122.353 101.088 121.721 100.328 121.721 99.336C121.721 98.336 122.353 97.584 123.337 97.584C124.321 97.584 124.961 98.336 124.961 99.336C124.961 100.328 124.321 101.088 123.337 101.088ZM128.822 102.096C130.262 102.096 130.958 101.36 130.958 100.384C130.958 98.392 127.894 98.96 127.894 98.112C127.894 97.792 128.166 97.576 128.654 97.576C129.198 97.576 129.774 97.76 130.206 98.16L130.838 97.328C130.31 96.84 129.606 96.584 128.758 96.584C127.502 96.584 126.734 97.32 126.734 98.208C126.734 100.216 129.806 99.568 129.806 100.512C129.806 100.816 129.502 101.104 128.878 101.104C128.142 101.104 127.558 100.776 127.182 100.384L126.566 101.248C127.062 101.752 127.798 102.096 128.822 102.096ZM133.998 102V97.664H135.55V96.664H131.294V97.664H132.854V102H133.998ZM139.461 102V100.104H140.821C141.973 100.104 142.613 99.312 142.613 98.384C142.613 97.448 141.981 96.664 140.821 96.664H138.325V102H139.461ZM140.669 99.104H139.461V97.664H140.669C141.117 97.664 141.453 97.936 141.453 98.384C141.453 98.824 141.117 99.104 140.669 99.104ZM145.845 102.096C147.461 102.096 148.637 100.944 148.637 99.336C148.637 97.728 147.461 96.576 145.845 96.576C144.237 96.576 143.061 97.728 143.061 99.336C143.061 100.944 144.237 102.096 145.845 102.096ZM145.845 101.088C144.861 101.088 144.229 100.328 144.229 99.336C144.229 98.336 144.861 97.584 145.845 97.584C146.829 97.584 147.469 98.336 147.469 99.336C147.469 100.328 146.829 101.088 145.845 101.088ZM150.57 102V100.104H151.93C153.082 100.104 153.722 99.312 153.722 98.384C153.722 97.448 153.09 96.664 151.93 96.664H149.434V102H150.57ZM151.778 99.104H150.57V97.664H151.778C152.226 97.664 152.562 97.936 152.562 98.384C152.562 98.824 152.226 99.104 151.778 99.104ZM156.834 102.096C158.458 102.096 159.242 101.192 159.242 99.864V96.664H158.082V99.832C158.082 100.576 157.658 101.088 156.834 101.088C156.01 101.088 155.578 100.576 155.578 99.832V96.664H154.426V99.872C154.426 101.184 155.21 102.096 156.834 102.096ZM163.686 102V101H161.43V96.664H160.294V102H163.686ZM169.457 102L167.401 96.664H165.977L163.913 102H165.209L165.545 101.096H167.833L168.161 102H169.457ZM167.521 100.096H165.857L166.689 97.8L167.521 100.096ZM174.27 102L173.07 99.968C173.646 99.832 174.238 99.328 174.238 98.384C174.238 97.392 173.558 96.664 172.446 96.664H169.95V102H171.086V100.104H171.918L172.966 102H174.27ZM172.278 99.104H171.086V97.664H172.278C172.734 97.664 173.078 97.936 173.078 98.384C173.078 98.832 172.734 99.104 172.278 99.104Z" fill="#F6921D"/>
<path d="M114 88H174V86H114V88ZM185 99V189H187V99H185ZM174 200H114V202H174V200ZM103 189V99H101V189H103ZM114 200C107.925 200 103 195.075 103 189H101C101 196.18 106.82 202 114 202V200ZM185 189C185 195.075 180.075 200 174 200V202C181.18 202 187 196.18 187 189H185ZM174 88C180.075 88 185 92.9249 185 99H187C187 91.8203 181.18 86 174 86V88ZM114 86C106.82 86 101 91.8203 101 99H103C103 92.9249 107.925 88 114 88V86Z" fill="#F6921D"/>
<path d="M192 113C192 106.373 197.373 101 204 101H256C262.627 101 268 106.373 268 113V189C268 195.627 262.627 201 256 201H204C197.373 201 192 195.627 192 189V113Z" fill="white"/>
<path d="M229.644 142.408C235.084 142.408 238.586 139.654 238.586 135.744C238.586 132.344 235.594 130.542 233.282 130.304C235.798 129.862 238.246 127.992 238.246 125.136C238.246 121.362 234.982 118.982 229.678 118.982C225.7 118.982 222.844 120.512 221.008 122.586L223.422 125.612C225.02 124.082 226.992 123.266 229.168 123.266C231.548 123.266 233.384 124.15 233.384 125.952C233.384 127.618 231.718 128.366 229.202 128.366C228.352 128.366 226.788 128.366 226.38 128.332V132.684C226.72 132.65 228.25 132.616 229.202 132.616C232.364 132.616 233.758 133.432 233.758 135.234C233.758 136.934 232.228 138.124 229.474 138.124C227.264 138.124 224.782 137.172 223.218 135.54L220.702 138.77C222.368 140.81 225.462 142.408 229.644 142.408Z" fill="#1A344B"/>
<path d="M218.174 158V153.463C218.174 152.176 217.485 151.565 216.328 151.565C215.366 151.565 214.534 152.137 214.17 152.709C213.936 151.994 213.351 151.565 212.428 151.565C211.466 151.565 210.634 152.163 210.374 152.54V151.721H208.723V158H210.374V153.775C210.621 153.424 211.102 153.034 211.674 153.034C212.35 153.034 212.61 153.45 212.61 154.035V158H214.274V153.762C214.508 153.424 214.989 153.034 215.574 153.034C216.25 153.034 216.51 153.45 216.51 154.035V158H218.174ZM222.705 158.156C224.785 158.156 226.033 156.648 226.033 154.854C226.033 153.073 224.785 151.565 222.705 151.565C220.638 151.565 219.39 153.073 219.39 154.854C219.39 156.648 220.638 158.156 222.705 158.156ZM222.705 156.687C221.678 156.687 221.106 155.842 221.106 154.854C221.106 153.879 221.678 153.034 222.705 153.034C223.732 153.034 224.317 153.879 224.317 154.854C224.317 155.842 223.732 156.687 222.705 156.687ZM233.147 158V153.567C233.147 152.345 232.484 151.565 231.106 151.565C230.079 151.565 229.312 152.059 228.909 152.54V151.721H227.258V158H228.909V153.775C229.182 153.398 229.689 153.034 230.339 153.034C231.041 153.034 231.496 153.333 231.496 154.204V158H233.147ZM236.892 158.156C237.581 158.156 238.023 157.974 238.27 157.753L237.919 156.505C237.828 156.596 237.594 156.687 237.347 156.687C236.983 156.687 236.775 156.388 236.775 155.998V153.164H238.049V151.721H236.775V150.005H235.111V151.721H234.071V153.164H235.111V156.44C235.111 157.558 235.735 158.156 236.892 158.156ZM245.081 158V153.541C245.081 152.319 244.418 151.565 243.04 151.565C242.013 151.565 241.233 152.059 240.83 152.54V149.329H239.179V158H240.83V153.775C241.116 153.398 241.623 153.034 242.26 153.034C242.975 153.034 243.43 153.307 243.43 154.178V158H245.081ZM248.982 158.156C250.724 158.156 251.699 157.285 251.699 156.141C251.699 153.606 247.981 154.386 247.981 153.45C247.981 153.099 248.371 152.826 248.969 152.826C249.736 152.826 250.451 153.151 250.828 153.554L251.491 152.423C250.867 151.929 250.022 151.565 248.956 151.565C247.305 151.565 246.382 152.488 246.382 153.541C246.382 156.011 250.113 155.166 250.113 156.206C250.113 156.596 249.775 156.882 249.06 156.882C248.28 156.882 247.344 156.453 246.889 156.024L246.174 157.181C246.837 157.792 247.89 158.156 248.982 158.156Z" fill="#1A344B"/>
<path d="M214.448 185.3H215.241V184.143C217.243 183.987 217.997 182.791 217.997 181.608C217.997 179.918 216.58 179.411 215.241 179.034V176.213C215.969 176.317 216.632 176.642 217.152 177.201L217.802 176.408C217.165 175.745 216.32 175.329 215.241 175.225V174.016H214.448V175.212C212.875 175.303 211.744 176.252 211.744 177.604C211.744 179.203 213.122 179.645 214.448 180.009V183.181C213.408 183.064 212.615 182.531 212.108 181.959L211.471 182.778C212.121 183.519 213.122 184.065 214.448 184.143V185.3ZM216.879 181.699C216.879 182.31 216.476 183.051 215.241 183.181V180.23C216.151 180.503 216.879 180.854 216.879 181.699ZM212.862 177.539C212.862 176.772 213.512 176.239 214.448 176.174V178.826C213.564 178.566 212.862 178.267 212.862 177.539ZM222.024 184V175.329H221.075L218.904 177.565L219.554 178.228L220.945 176.759V184H222.024ZM227.041 184.156C228.939 184.156 230.083 182.83 230.083 181.322C230.083 179.476 228.809 178.553 227.249 178.553C226.131 178.553 225.169 179.307 224.792 179.905C224.779 179.788 224.779 179.684 224.779 179.567C224.779 177.864 225.546 176.161 227.223 176.161C228.133 176.161 228.64 176.525 229.082 177.045L229.628 176.239C229.095 175.628 228.341 175.199 227.223 175.199C224.792 175.199 223.7 177.331 223.7 179.684C223.7 182.037 224.623 184.156 227.041 184.156ZM227.002 183.194C225.494 183.194 224.922 181.868 224.818 180.789C225.299 180.022 226.131 179.489 226.989 179.489C228.107 179.489 228.991 180.087 228.991 181.361C228.991 182.193 228.341 183.194 227.002 183.194ZM232.212 184.13C232.602 184.13 232.927 183.805 232.927 183.415C232.927 183.025 232.602 182.7 232.212 182.7C231.822 182.7 231.497 183.025 231.497 183.415C231.497 183.805 231.822 184.13 232.212 184.13ZM237.21 184.143C239.641 184.143 240.733 182.011 240.733 179.671C240.733 177.305 239.81 175.186 237.379 175.186C235.494 175.186 234.35 176.525 234.35 178.02C234.35 179.866 235.637 180.789 237.197 180.789C238.302 180.789 239.264 180.035 239.641 179.437C239.654 179.554 239.654 179.671 239.654 179.788C239.654 181.426 238.965 183.181 237.21 183.181C236.313 183.181 235.793 182.817 235.351 182.297L234.805 183.103C235.351 183.727 236.105 184.143 237.21 184.143ZM237.444 179.853C236.326 179.853 235.442 179.255 235.442 177.981C235.442 177.162 236.105 176.148 237.431 176.148C238.939 176.148 239.511 177.487 239.602 178.566C239.147 179.333 238.302 179.853 237.444 179.853ZM244.891 184.143C247.322 184.143 248.414 182.011 248.414 179.671C248.414 177.305 247.491 175.186 245.06 175.186C243.175 175.186 242.031 176.525 242.031 178.02C242.031 179.866 243.318 180.789 244.878 180.789C245.983 180.789 246.945 180.035 247.322 179.437C247.335 179.554 247.335 179.671 247.335 179.788C247.335 181.426 246.646 183.181 244.891 183.181C243.994 183.181 243.474 182.817 243.032 182.297L242.486 183.103C243.032 183.727 243.786 184.143 244.891 184.143ZM245.125 179.853C244.007 179.853 243.123 179.255 243.123 177.981C243.123 177.162 243.786 176.148 245.112 176.148C246.62 176.148 247.192 177.487 247.283 178.566C246.828 179.333 245.983 179.853 245.125 179.853Z" fill="#1A344B"/>
<path d="M204 102H256V100H204V102ZM267 113V189H269V113H267ZM256 200H204V202H256V200ZM193 189V113H191V189H193ZM204 200C197.925 200 193 195.075 193 189H191C191 196.18 196.82 202 204 202V200ZM267 189C267 195.075 262.075 200 256 200V202C263.18 202 269 196.18 269 189H267ZM256 102C262.075 102 267 106.925 267 113H269C269 105.82 263.18 100 256 100V102ZM204 100C196.82 100 191 105.82 191 113H193C193 106.925 197.925 102 204 102V100Z" fill="#D9E3EB"/>
<g filter="url(#filter8_d)">
<rect x="44" y="217" width="200" height="40" rx="20" fill="url(#paint12_linear)"/>
<path d="M118.773 242.18C120.978 242.18 122.238 240.965 122.958 239.72L121.128 238.835C120.708 239.66 119.808 240.29 118.773 240.29C116.958 240.29 115.638 238.895 115.638 237.005C115.638 235.115 116.958 233.72 118.773 233.72C119.808 233.72 120.708 234.365 121.128 235.175L122.958 234.275C122.253 233.03 120.978 231.83 118.773 231.83C115.773 231.83 113.448 233.93 113.448 237.005C113.448 240.08 115.773 242.18 118.773 242.18ZM127.541 242.18C129.941 242.18 131.381 240.44 131.381 238.37C131.381 236.315 129.941 234.575 127.541 234.575C125.156 234.575 123.716 236.315 123.716 238.37C123.716 240.44 125.156 242.18 127.541 242.18ZM127.541 240.485C126.356 240.485 125.696 239.51 125.696 238.37C125.696 237.245 126.356 236.27 127.541 236.27C128.726 236.27 129.401 237.245 129.401 238.37C129.401 239.51 128.726 240.485 127.541 240.485ZM139.589 242V236.885C139.589 235.475 138.824 234.575 137.234 234.575C136.049 234.575 135.164 235.145 134.699 235.7V234.755H132.794V242H134.699V237.125C135.014 236.69 135.599 236.27 136.349 236.27C137.159 236.27 137.684 236.615 137.684 237.62V242H139.589ZM143.911 242.18C144.706 242.18 145.216 241.97 145.501 241.715L145.096 240.275C144.991 240.38 144.721 240.485 144.436 240.485C144.016 240.485 143.776 240.14 143.776 239.69V236.42H145.246V234.755H143.776V232.775H141.856V234.755H140.656V236.42H141.856V240.2C141.856 241.49 142.576 242.18 143.911 242.18ZM147.494 233.975C148.124 233.975 148.634 233.465 148.634 232.835C148.634 232.205 148.124 231.71 147.494 231.71C146.879 231.71 146.354 232.205 146.354 232.835C146.354 233.465 146.879 233.975 147.494 233.975ZM148.454 242V234.755H146.549V242H148.454ZM157.138 242V236.885C157.138 235.475 156.373 234.575 154.783 234.575C153.598 234.575 152.713 235.145 152.248 235.7V234.755H150.343V242H152.248V237.125C152.563 236.69 153.148 236.27 153.898 236.27C154.708 236.27 155.233 236.615 155.233 237.62V242H157.138ZM165.824 242V234.755H163.919V239.66C163.589 240.08 163.004 240.485 162.269 240.485C161.459 240.485 160.934 240.155 160.934 239.15V234.755H159.029V239.9C159.029 241.31 159.779 242.18 161.369 242.18C162.554 242.18 163.424 241.64 163.919 241.085V242H165.824ZM171.121 242.18C172.246 242.18 173.386 241.835 174.106 241.175L173.266 239.945C172.801 240.395 171.946 240.665 171.331 240.665C170.101 240.665 169.366 239.9 169.246 238.985H174.631V238.565C174.631 236.195 173.161 234.575 171.001 234.575C168.796 234.575 167.251 236.27 167.251 238.37C167.251 240.695 168.916 242.18 171.121 242.18ZM172.786 237.695H169.216C169.306 236.975 169.816 236.09 171.001 236.09C172.261 236.09 172.741 237.005 172.786 237.695Z" fill="white"/>
</g>
<rect opacity="0.5" x="97.5" y="279" width="95" height="4" rx="2" fill="black"/>
</g>
<defs>
<filter id="filter0_i" x="2.01392" y="-279" width="286.644" height="579.329" filterUnits="userSpaceOnUse" color-interpolation-filters="sRGB">
<feFlood flood-opacity="0" result="BackgroundImageFix"/>
<feBlend mode="normal" in="SourceGraphic" in2="BackgroundImageFix" result="shape"/>
<feColorMatrix in="SourceAlpha" type="matrix" values="0 0 0 0 0 0 0 0 0 0 0 0 0 0 0 0 0 0 127 0" result="hardAlpha"/>
<feOffset/>
<feGaussianBlur stdDeviation="1.00694"/>
<feComposite in2="hardAlpha" operator="arithmetic" k2="-1" k3="1"/>
<feColorMatrix type="matrix" values="0 0 0 0 0 0 0 0 0 0 0 0 0 0 0 0 0 0 0.5 0"/>
<feBlend mode="normal" in2="shape" result="effect1_innerShadow"/>
</filter>
<filter id="filter1_f" x="9.71776" y="278.799" width="268.494" height="23.6474" filterUnits="userSpaceOnUse" color-interpolation-filters="sRGB">
<feFlood flood-opacity="0" result="BackgroundImageFix"/>
<feBlend mode="normal" in="SourceGraphic" in2="BackgroundImageFix" result="shape"/>
<feGaussianBlur stdDeviation="2.73716" result="effect1_foregroundBlur"/>
</filter>
<filter id="filter2_f" x="1.23876" y="-274.01" width="37.9706" height="568.121" filterUnits="userSpaceOnUse" color-interpolation-filters="sRGB">
<feFlood flood-opacity="0" result="BackgroundImageFix"/>
<feBlend mode="normal" in="SourceGraphic" in2="BackgroundImageFix" result="shape"/>
<feGaussianBlur stdDeviation="2.73716" result="effect1_foregroundBlur"/>
</filter>
<filter id="filter3_f" x="248.543" y="-276.35" width="40.8895" height="572.343" filterUnits="userSpaceOnUse" color-interpolation-filters="sRGB">
<feFlood flood-opacity="0" result="BackgroundImageFix"/>
<feBlend mode="normal" in="SourceGraphic" in2="BackgroundImageFix" result="shape"/>
<feGaussianBlur stdDeviation="2.73716" result="effect1_foregroundBlur"/>
</filter>
<filter id="filter4_d" x="5.37045" y="-274.972" width="279.259" height="571.944" filterUnits="userSpaceOnUse" color-interpolation-filters="sRGB">
<feFlood flood-opacity="0" result="BackgroundImageFix"/>
<feColorMatrix in="SourceAlpha" type="matrix" values="0 0 0 0 0 0 0 0 0 0 0 0 0 0 0 0 0 0 127 0"/>
<feOffset/>
<feGaussianBlur stdDeviation="0.335648"/>
<feColorMatrix type="matrix" values="0 0 0 0 0.666667 0 0 0 0 0.741176 0 0 0 0 0.717647 0 0 0 1 0"/>
<feBlend mode="normal" in2="BackgroundImageFix" result="effect1_dropShadow"/>
<feBlend mode="normal" in="SourceGraphic" in2="effect1_dropShadow" result="shape"/>
</filter>
<filter id="filter5_d" x="8.72687" y="-272.623" width="272.546" height="566.238" filterUnits="userSpaceOnUse" color-interpolation-filters="sRGB">
<feFlood flood-opacity="0" result="BackgroundImageFix"/>
<feColorMatrix in="SourceAlpha" type="matrix" values="0 0 0 0 0 0 0 0 0 0 0 0 0 0 0 0 0 0 127 0"/>
<feOffset dy="-0.335648"/>
<feColorMatrix type="matrix" values="0 0 0 0 1 0 0 0 0 1 0 0 0 0 1 0 0 0 0.203833 0"/>
<feBlend mode="normal" in2="BackgroundImageFix" result="effect1_dropShadow"/>
<feBlend mode="normal" in="SourceGraphic" in2="effect1_dropShadow" result="shape"/>
</filter>
<filter id="filter6_i" x="8.72687" y="-267.131" width="22.3704" height="555.768" filterUnits="userSpaceOnUse" color-interpolation-filters="sRGB">
<feFlood flood-opacity="0" result="BackgroundImageFix"/>
<feBlend mode="normal" in="SourceGraphic" in2="BackgroundImageFix" result="shape"/>
<feColorMatrix in="SourceAlpha" type="matrix" values="0 0 0 0 0 0 0 0 0 0 0 0 0 0 0 0 0 0 127 0" result="hardAlpha"/>
<feOffset dx="2.01389"/>
<feGaussianBlur stdDeviation="1.67824"/>
<feComposite in2="hardAlpha" operator="arithmetic" k2="-1" k3="1"/>
<feColorMatrix type="matrix" values="0 0 0 0 0 0 0 0 0 0 0 0 0 0 0 0 0 0 0.5 0"/>
<feBlend mode="normal" in2="shape" result="effect1_innerShadow"/>
</filter>
<filter id="filter7_i" x="260.642" y="-267.505" width="22.6452" height="556.853" filterUnits="userSpaceOnUse" color-interpolation-filters="sRGB">
<feFlood flood-opacity="0" result="BackgroundImageFix"/>
<feBlend mode="normal" in="SourceGraphic" in2="BackgroundImageFix" result="shape"/>
<feColorMatrix in="SourceAlpha" type="matrix" values="0 0 0 0 0 0 0 0 0 0 0 0 0 0 0 0 0 0 127 0" result="hardAlpha"/>
<feOffset dx="2.01389"/>
<feGaussianBlur stdDeviation="1.67824"/>
<feComposite in2="hardAlpha" operator="arithmetic" k2="-1" k3="1"/>
<feColorMatrix type="matrix" values="0 0 0 0 0 0 0 0 0 0 0 0 0 0 0 0 0 0 0.5 0"/>
<feBlend mode="normal" in2="shape" result="effect1_innerShadow"/>
</filter>
<filter id="filter8_d" x="36" y="217" width="216" height="56" filterUnits="userSpaceOnUse" color-interpolation-filters="sRGB">
<feFlood flood-opacity="0" result="BackgroundImageFix"/>
<feColorMatrix in="SourceAlpha" type="matrix" values="0 0 0 0 0 0 0 0 0 0 0 0 0 0 0 0 0 0 127 0"/>
<feOffset dy="8"/>
<feGaussianBlur stdDeviation="4"/>
<feColorMatrix type="matrix" values="0 0 0 0 0 0 0 0 0 0 0 0 0 0 0 0 0 0 0.15 0"/>
<feBlend mode="normal" in2="BackgroundImageFix" result="effect1_dropShadow"/>
<feBlend mode="normal" in="SourceGraphic" in2="effect1_dropShadow" result="shape"/>
</filter>
<linearGradient id="paint0_linear" x1="15.1921" y1="286.287" x2="15.1921" y2="298.986" gradientUnits="userSpaceOnUse">
<stop stop-color="#7C7C7C"/>
<stop offset="1" stop-color="#B9B9B9"/>
</linearGradient>
<linearGradient id="paint1_linear" x1="15.1921" y1="298.986" x2="272.738" y2="298.986" gradientUnits="userSpaceOnUse">
<stop stop-color="#6C6B6A"/>
<stop offset="0.108121" stop-color="#CFCFCF" stop-opacity="0.01"/>
<stop offset="0.490273" stop-color="#EFEFEF" stop-opacity="0.01"/>
<stop offset="0.903653" stop-color="#D5D5D5" stop-opacity="0.01"/>
<stop offset="1" stop-color="#595959"/>
</linearGradient>
<linearGradient id="paint2_linear" x1="3.35657" y1="288.637" x2="30.3785" y2="288.637" gradientUnits="userSpaceOnUse">
<stop stop-color="#737373"/>
<stop offset="0.0509225" stop-color="#C5C4C3"/>
<stop offset="0.102573" stop-color="#F3F2F2"/>
<stop offset="0.202453" stop-color="#C5C4C4"/>
<stop offset="1" stop-color="#646464"/>
</linearGradient>
<linearGradient id="paint3_linear" x1="3.35657" y1="-268.535" x2="3.35657" y2="288.637" gradientUnits="userSpaceOnUse">
<stop stop-color="#636261"/>
<stop offset="0.103701" stop-color="#BAB9B8" stop-opacity="0.01"/>
<stop offset="0.887264" stop-color="#C8C7C6" stop-opacity="0.01"/>
<stop offset="1" stop-color="#464645"/>
</linearGradient>
<linearGradient id="paint4_linear" x1="287.315" y1="-270.876" x2="257.374" y2="-270.876" gradientUnits="userSpaceOnUse">
<stop stop-color="#6C6B6B"/>
<stop offset="0.0509225" stop-color="#C7C6C5"/>
<stop offset="0.102573" stop-color="#F2F1F1"/>
<stop offset="0.202453" stop-color="#C7C7C7"/>
<stop offset="1" stop-color="#636363"/>
</linearGradient>
<linearGradient id="paint5_linear" x1="257.374" y1="-270.876" x2="257.374" y2="290.519" gradientUnits="userSpaceOnUse">
<stop stop-color="#676767"/>
<stop offset="0.103701" stop-color="#B7B7B7" stop-opacity="0.01"/>
<stop offset="0.887264" stop-color="#C0C0C0" stop-opacity="0.01"/>
<stop offset="1" stop-color="#4E4D4D"/>
</linearGradient>
<linearGradient id="paint6_linear" x1="6.04175" y1="296.301" x2="283.958" y2="296.301" gradientUnits="userSpaceOnUse">
<stop stop-color="#2C2C2C"/>
<stop offset="0.0496463" stop-color="#333132"/>
<stop offset="0.898778" stop-color="#3B393A"/>
<stop offset="1" stop-color="#2D2D2D"/>
</linearGradient>
<linearGradient id="paint7_linear" x1="8.72687" y1="293.616" x2="281.273" y2="293.616" gradientUnits="userSpaceOnUse">
<stop/>
<stop offset="1" stop-color="#090808"/>
</linearGradient>
<linearGradient id="paint8_linear" x1="16.7188" y1="529.344" x2="273.674" y2="529.344" gradientUnits="userSpaceOnUse">
<stop/>
<stop offset="0.028735"/>
<stop offset="0.106222" stop-color="#3B3B3B"/>
<stop offset="0.286036" stop-color="#686868"/>
<stop offset="0.722722" stop-color="#626262"/>
<stop offset="0.899291" stop-color="#3A3A3A"/>
<stop offset="0.973344"/>
<stop offset="1"/>
</linearGradient>
<linearGradient id="paint9_linear" x1="61.7593" y1="300.329" x2="61.7593" y2="295.63" gradientUnits="userSpaceOnUse">
<stop stop-color="#3F3F3F"/>
<stop offset="0.838196" stop-color="#888787"/>
<stop offset="1" stop-color="#313131"/>
</linearGradient>
<linearGradient id="paint10_linear" x1="2.34272" y1="243.128" x2="6.71299" y2="243.128" gradientUnits="userSpaceOnUse">
<stop stop-color="#525251"/>
<stop offset="0.782613" stop-color="#A8A7A7"/>
<stop offset="1" stop-color="#4D4C4C"/>
</linearGradient>
<linearGradient id="paint11_linear" x1="283.255" y1="243.298" x2="288.625" y2="243.384" gradientUnits="userSpaceOnUse">
<stop stop-color="#737373"/>
<stop offset="0.140877" stop-color="#A8A7A7"/>
<stop offset="1" stop-color="#4D4C4C"/>
</linearGradient>
<linearGradient id="paint12_linear" x1="144" y1="217" x2="144" y2="257" gradientUnits="userSpaceOnUse">
<stop stop-color="#F6921D"/>
<stop offset="1" stop-color="#F56B1E"/>
</linearGradient>
<clipPath id="clip0">
<rect width="290" height="320" fill="white"/>
</clipPath>
</defs>
</svg>
