<svg width="24" height="24" viewBox="0 0 24 24" fill="none" xmlns="http://www.w3.org/2000/svg">
<path fill-rule="evenodd" clip-rule="evenodd" d="M12 24C18.6274 24 24 18.6274 24 12C24 5.37258 18.6274 0 12 0C5.37258 0 0 5.37258 0 12C0 18.6274 5.37258 24 12 24ZM16.9826 16.4794C17.278 16.0581 17.5331 15.6 17.7485 15.1022C17.8373 14.8912 17.9209 14.6713 18 14.4418C17.6351 14.2888 17.3071 14.0734 17.0133 13.7946C16.3652 13.194 16.0355 12.4376 16.0258 11.5285C16.0152 10.3615 16.5455 9.4518 17.6175 8.80229C17.0186 7.95105 16.1181 7.47856 14.9195 7.38183C14.4772 7.34428 13.9373 7.4396 13.2975 7.66982C12.621 7.91807 12.222 8.04259 12.1042 8.04259C11.9467 8.04259 11.5875 7.9361 11.028 7.7261C10.467 7.51681 10.0155 7.41032 9.67123 7.41032C9.04204 7.42078 8.45778 7.58435 7.91705 7.90532C7.37632 8.2263 6.94428 8.66352 6.61952 9.21779C6.2063 9.90784 6 10.7313 6 11.686C6 12.5195 6.15301 13.3804 6.45824 14.2695C6.74325 15.0926 7.10705 15.8145 7.54955 16.4371C7.96198 17.0202 8.30626 17.4317 8.5815 17.6718C9.01275 18.0728 9.44479 18.2636 9.87823 18.2451C10.1632 18.2355 10.536 18.1379 10.9987 17.9506C11.4608 17.7641 11.8927 17.6718 12.2955 17.6718C12.6795 17.6718 13.0995 17.7641 13.5565 17.9506C14.012 18.1379 14.4033 18.2302 14.7278 18.2302C15.1798 18.2196 15.6019 18.0341 15.9959 17.6718C16.25 17.4511 16.5798 17.0536 16.9826 16.4794ZM14.2204 6.27847C14.7393 5.66273 14.9996 4.99749 14.9996 4.28501V4.285C14.9996 4.1905 14.9952 4.09525 14.9846 4C14.6232 4.01875 14.2389 4.12825 13.8326 4.32625C13.4255 4.52725 13.0897 4.77922 12.8257 5.08225C12.297 5.68076 11.9992 6.41275 11.9992 7.09673C11.9992 7.19127 12.0053 7.28123 12.0157 7.3667C12.837 7.43345 13.5943 7.01047 14.2204 6.27847Z" fill="#808080"/>
</svg>
