<svg width="290" height="320" viewBox="0 0 290 320" fill="none" xmlns="http://www.w3.org/2000/svg">
    <g clip-path="url(#clip0)">
        <rect width="290" height="320" fill="white"/>
        <g filter="url(#filter0_d)">
            <rect x="45" y="60" width="200" height="200" rx="50" fill="white"/>
            <circle opacity="0.5" cx="145" cy="160" r="80" fill="#D9E3EB"/>
            <circle cx="145" cy="160" r="45" fill="#D9E3EB"/>
            <path d="M143.75 85V235" stroke="white" stroke-width="2.5"/>
            <path d="M70 158.75H220" stroke="white" stroke-width="2.5"/>
            <path d="M155 200C155 183.431 168.431 170 185 170H215C231.569 170 245 183.431 245 200V230C245 246.569 231.569 260 215 260H185C168.431 260 155 246.569 155 230V200Z" fill="#B6B6B6"/>
            <path d="M219.162 226.071C218.444 227.73 217.593 229.257 216.609 230.662C215.266 232.576 214.167 233.901 213.32 234.636C212.006 235.844 210.599 236.463 209.093 236.498C208.011 236.498 206.707 236.19 205.188 235.566C203.665 234.944 202.265 234.636 200.985 234.636C199.642 234.636 198.203 234.944 196.662 235.566C195.12 236.19 193.877 236.515 192.927 236.548C191.483 236.609 190.043 235.973 188.605 234.636C187.688 233.836 186.54 232.464 185.165 230.521C183.69 228.446 182.478 226.039 181.527 223.295C180.51 220.332 180 217.462 180 214.684C180 211.501 180.688 208.757 182.065 206.456C183.148 204.609 184.588 203.151 186.39 202.081C188.193 201.012 190.14 200.466 192.237 200.431C193.385 200.431 194.89 200.786 196.76 201.484C198.625 202.184 199.822 202.539 200.347 202.539C200.74 202.539 202.07 202.124 204.325 201.296C206.458 200.529 208.257 200.211 209.732 200.336C213.727 200.659 216.729 202.234 218.725 205.071C215.152 207.236 213.384 210.269 213.419 214.159C213.452 217.189 214.551 219.71 216.711 221.712C217.69 222.642 218.784 223.36 220 223.87C219.736 224.635 219.458 225.368 219.162 226.071ZM209.999 190.014C209.999 192.389 209.131 194.606 207.401 196.659C205.314 199.099 202.79 200.509 200.052 200.286C200.018 200.001 199.997 199.701 199.997 199.386C199.997 197.106 200.99 194.666 202.752 192.671C203.632 191.661 204.752 190.821 206.109 190.151C207.463 189.491 208.744 189.126 209.949 189.064C209.984 189.381 209.999 189.699 209.999 190.014V190.014Z" fill="white"/>
        </g>
    </g>
    <defs>
        <filter id="filter0_d" x="-15" y="30" width="320" height="320" filterUnits="userSpaceOnUse" color-interpolation-filters="sRGB">
            <feFlood flood-opacity="0" result="BackgroundImageFix"/>
            <feColorMatrix in="SourceAlpha" type="matrix" values="0 0 0 0 0 0 0 0 0 0 0 0 0 0 0 0 0 0 127 0"/>
            <feOffset dy="30"/>
            <feGaussianBlur stdDeviation="30"/>
            <feColorMatrix type="matrix" values="0 0 0 0 0.890196 0 0 0 0 0.913725 0 0 0 0 0.937255 0 0 0 0.8 0"/>
            <feBlend mode="normal" in2="BackgroundImageFix" result="effect1_dropShadow"/>
            <feBlend mode="normal" in="SourceGraphic" in2="effect1_dropShadow" result="shape"/>
        </filter>
        <clipPath id="clip0">
            <rect width="290" height="320" fill="white"/>
        </clipPath>
    </defs>
</svg>
