<svg width="724" height="90" viewBox="0 0 724 90" fill="none" xmlns="http://www.w3.org/2000/svg">
<path fill-rule="evenodd" clip-rule="evenodd" d="M170 0C156.745 0 146 10.7452 146 24C146 37.2548 156.745 48 170 48C183.255 48 194 37.2548 194 24C194 10.7452 183.255 0 170 0ZM156 12C154.895 12 154 12.8954 154 14V20C156.209 20 158 21.7909 158 24C158 26.2091 156.209 28 154 28V34C154 35.1046 154.895 36 156 36H184C185.105 36 186 35.1046 186 34V28C183.791 28 182 26.2091 182 24C182 21.7909 183.791 20 186 20V14C186 12.8954 185.105 12 184 12H156ZM165 16H163V32H165V16ZM166 16H176C177.105 16 178 16.8954 178 18V24C178 25.1046 177.105 26 176 26H166V16Z" fill="#F6921D"/>
<path fill-rule="evenodd" clip-rule="evenodd" d="M18 24C18 10.7452 28.7452 0 42 0C55.2548 0 66 10.7452 66 24C66 37.2548 55.2548 48 42 48C28.7452 48 18 37.2548 18 24ZM44 19C44 22.3137 41.3137 25 38 25C34.6863 25 32 22.3137 32 19C32 15.6863 34.6863 13 38 13C41.3137 13 44 15.6863 44 19ZM45.0711 28.9289C46.9464 30.8043 48 33.3478 48 36H38H28C28 33.3478 29.0536 30.8043 30.9289 28.9289C32.8043 27.0536 35.3478 26 38 26C40.6522 26 43.1957 27.0536 45.0711 28.9289ZM50 10H52V14H56V16H52V20H50V16H46V14H50V10Z" fill="#0085FF"/>
<path fill-rule="evenodd" clip-rule="evenodd" d="M298 0C284.745 0 274 10.7452 274 24C274 37.2548 284.745 48 298 48C311.255 48 322 37.2548 322 24C322 10.7452 311.255 0 298 0ZM293.642 11.0657C296.201 10.0061 299.016 9.72881 301.731 10.269C304.447 10.8092 306.942 12.1426 308.899 14.1005C310.857 16.0584 312.191 18.553 312.731 21.2687C313.271 23.9845 312.994 26.7994 311.934 29.3576C310.875 31.9157 309.08 34.1022 306.778 35.6406C304.476 37.1789 301.769 38 299 38V35C301.176 35 303.302 34.3549 305.111 33.1462C306.92 31.9375 308.33 30.2195 309.163 28.2095C309.995 26.1995 310.213 23.9878 309.789 21.854C309.364 19.7202 308.317 17.7602 306.778 16.2218C305.24 14.6834 303.28 13.6358 301.146 13.2114C299.012 12.7869 296.8 13.0048 294.79 13.8373C292.78 14.6699 291.063 16.0798 289.854 17.8887C288.645 19.6977 288 21.8244 288 24H285C285 21.2311 285.821 18.5243 287.359 16.222C288.898 13.9197 291.084 12.1253 293.642 11.0657ZM282.5 24L286.5 29L290.5 24H282.5ZM293 18H295V32H293V18ZM304 18H296V26H304C305.105 26 306 25.1046 306 24V20C306 18.8954 305.105 18 304 18Z" fill="#20BF55"/>
<path fill-rule="evenodd" clip-rule="evenodd" d="M402 24C402 10.7452 412.745 0 426 0C439.255 0 450 10.7452 450 24C450 37.2548 439.255 48 426 48C412.745 48 402 37.2548 402 24ZM428 19H430V21H428H426C425.448 21 425 21.4477 425 22C425 22.5523 425.448 23 426 23H428C428.796 23 429.559 23.3161 430.121 23.8787C430.684 24.4413 431 25.2044 431 26C431 26.7957 430.684 27.5587 430.121 28.1213C429.559 28.6839 428.796 29 428 29V30H426V29H424V27H426H428C428.552 27 429 26.5523 429 26C429 25.4477 428.552 25 428 25H426C425.204 25 424.441 24.6839 423.879 24.1213C423.316 23.5587 423 22.7956 423 22C423 21.2043 423.316 20.4413 423.879 19.8787C424.441 19.3161 425.204 19 426 19V18H428V19ZM421.642 11.0657C424.201 10.0061 427.016 9.72881 429.731 10.269C432.447 10.8092 434.942 12.1426 436.899 14.1005C438.857 16.0584 440.191 18.553 440.731 21.2687C441.271 23.9845 440.994 26.7994 439.934 29.3576C438.875 31.9157 437.08 34.1022 434.778 35.6406C432.476 37.1789 429.769 38 427 38V35C429.176 35 431.302 34.3549 433.111 33.1462C434.92 31.9375 436.33 30.2195 437.163 28.2095C437.995 26.1995 438.213 23.9878 437.789 21.854C437.364 19.7202 436.317 17.7602 434.778 16.2218C433.24 14.6834 431.28 13.6358 429.146 13.2114C427.012 12.7869 424.8 13.0048 422.79 13.8373C420.78 14.6699 419.063 16.0798 417.854 17.8887C416.645 19.6977 416 21.8244 416 24H413C413 21.2311 413.821 18.5243 415.359 16.222C416.898 13.9197 419.084 12.1253 421.642 11.0657ZM410.5 24L414.5 29L418.5 24H410.5Z" fill="#20BF55"/>
<path fill-rule="evenodd" clip-rule="evenodd" d="M530 24C530 10.7452 540.745 0 554 0C567.255 0 578 10.7452 578 24C578 37.2548 567.255 48 554 48C540.745 48 530 37.2548 530 24ZM556 19H558V21H556H554C553.448 21 553 21.4477 553 22C553 22.5523 553.448 23 554 23H556C556.796 23 557.559 23.3161 558.121 23.8787C558.684 24.4413 559 25.2044 559 26C559 26.7957 558.684 27.5587 558.121 28.1213C557.559 28.6839 556.796 29 556 29V30H554V29H552V27H554H556C556.552 27 557 26.5523 557 26C557 25.4477 556.552 25 556 25H554C553.204 25 552.441 24.6839 551.879 24.1213C551.316 23.5587 551 22.7956 551 22C551 21.2043 551.316 20.4413 551.879 19.8787C552.441 19.3161 553.204 19 554 19V18H556V19ZM549.642 11.0657C552.201 10.0061 555.016 9.72881 557.731 10.269C560.447 10.8092 562.942 12.1426 564.899 14.1005C566.857 16.0584 568.191 18.553 568.731 21.2687C569.271 23.9845 568.994 26.7994 567.934 29.3576C566.875 31.9157 565.08 34.1022 562.778 35.6406C560.476 37.1789 557.769 38 555 38V35C557.176 35 559.302 34.3549 561.111 33.1462C562.92 31.9375 564.33 30.2195 565.163 28.2095C565.995 26.1995 566.213 23.9878 565.789 21.854C565.364 19.7202 564.317 17.7602 562.778 16.2218C561.24 14.6834 559.28 13.6358 557.146 13.2114C555.012 12.7869 552.8 13.0048 550.79 13.8373C548.78 14.6699 547.063 16.0798 545.854 17.8887C544.645 19.6977 544 21.8244 544 24H541C541 21.2311 541.821 18.5243 543.359 16.222C544.898 13.9197 547.084 12.1253 549.642 11.0657ZM538.5 24L542.5 29L546.5 24H538.5Z" fill="#20BF55"/>
<path fill-rule="evenodd" clip-rule="evenodd" d="M658 24C658 10.7452 668.745 0 682 0C695.255 0 706 10.7452 706 24C706 37.2548 695.255 48 682 48C668.745 48 658 37.2548 658 24ZM684 19H686V21H684H682C681.448 21 681 21.4477 681 22C681 22.5523 681.448 23 682 23H684C684.796 23 685.559 23.3161 686.121 23.8787C686.684 24.4413 687 25.2044 687 26C687 26.7957 686.684 27.5587 686.121 28.1213C685.559 28.6839 684.796 29 684 29V30H682V29H680V27H682H684C684.552 27 685 26.5523 685 26C685 25.4477 684.552 25 684 25H682C681.204 25 680.441 24.6839 679.879 24.1213C679.316 23.5587 679 22.7956 679 22C679 21.2043 679.316 20.4413 679.879 19.8787C680.441 19.3161 681.204 19 682 19V18H684V19ZM677.642 11.0657C680.201 10.0061 683.016 9.72881 685.731 10.269C688.447 10.8092 690.942 12.1426 692.899 14.1005C694.857 16.0584 696.191 18.553 696.731 21.2687C697.271 23.9845 696.994 26.7994 695.934 29.3576C694.875 31.9157 693.08 34.1022 690.778 35.6406C688.476 37.1789 685.769 38 683 38V35C685.176 35 687.302 34.3549 689.111 33.1462C690.92 31.9375 692.33 30.2195 693.163 28.2095C693.995 26.1995 694.213 23.9878 693.789 21.854C693.364 19.7202 692.317 17.7602 690.778 16.2218C689.24 14.6834 687.28 13.6358 685.146 13.2114C683.012 12.7869 680.8 13.0048 678.79 13.8373C676.78 14.6699 675.063 16.0798 673.854 17.8887C672.645 19.6977 672 21.8244 672 24H669C669 21.2311 669.821 18.5243 671.359 16.222C672.898 13.9197 675.084 12.1253 677.642 11.0657ZM666.5 24L670.5 29L674.5 24H666.5Z" fill="#20BF55"/>
<rect x="66" y="23" width="51" height="2" fill="#0085FF"/>
<path d="M125 24L117 19V29L125 24Z" fill="#0085FF"/>
<rect x="194" y="23" width="51" height="2" fill="#F6921D"/>
<path d="M253 24L245 19V29L253 24Z" fill="#F6921D"/>
<rect x="322" y="23" width="51" height="2" fill="#20BF55"/>
<path d="M381 24L373 19V29L381 24Z" fill="#20BF55"/>
<rect x="450" y="23" width="51" height="2" fill="#20BF55"/>
<path d="M509 24L501 19V29L509 24Z" fill="#20BF55"/>
<rect x="578" y="23" width="51" height="2" fill="#20BF55"/>
<path d="M637 24L629 19V29L637 24Z" fill="#20BF55"/>
<path d="M5.21673 71.196C4.5354 71.196 3.9474 71.1027 3.45273 70.916C2.95807 70.72 2.5474 70.454 2.22073 70.118C1.9034 69.7727 1.6654 69.3667 1.50673 68.9C1.3574 68.424 1.28273 67.9013 1.28273 67.332V61.298H3.46673V67.15C3.46673 67.542 3.50873 67.878 3.59273 68.158C3.68607 68.4287 3.8074 68.6527 3.95673 68.83C4.1154 68.998 4.30207 69.1193 4.51673 69.194C4.74073 69.2687 4.9834 69.306 5.24473 69.306C5.77673 69.306 6.20607 69.1427 6.53273 68.816C6.86873 68.4893 7.03673 67.934 7.03673 67.15V61.298H9.22073V67.332C9.22073 67.9013 9.1414 68.424 8.98273 68.9C8.82407 69.376 8.5814 69.7867 8.25473 70.132C7.92807 70.468 7.51274 70.7293 7.00873 70.916C6.50473 71.1027 5.9074 71.196 5.21673 71.196ZM13.2952 69.502C13.6778 69.502 13.9485 69.4647 14.1072 69.39C14.2658 69.3153 14.3452 69.1707 14.3452 68.956C14.3452 68.788 14.2425 68.6433 14.0372 68.522C13.8318 68.3913 13.5192 68.2467 13.0992 68.088C12.7725 67.9667 12.4738 67.8407 12.2032 67.71C11.9418 67.5793 11.7178 67.4253 11.5312 67.248C11.3445 67.0613 11.1998 66.842 11.0972 66.59C10.9945 66.338 10.9432 66.0347 10.9432 65.68C10.9432 64.9893 11.1998 64.4433 11.7132 64.042C12.2265 63.6407 12.9312 63.44 13.8272 63.44C14.2752 63.44 14.7045 63.482 15.1152 63.566C15.5258 63.6407 15.8525 63.7247 16.0952 63.818L15.7312 65.442C15.4885 65.358 15.2225 65.2833 14.9332 65.218C14.6532 65.1527 14.3358 65.12 13.9812 65.12C13.3278 65.12 13.0012 65.302 13.0012 65.666C13.0012 65.75 13.0152 65.8247 13.0432 65.89C13.0712 65.9553 13.1272 66.0207 13.2112 66.086C13.2952 66.142 13.4072 66.2073 13.5472 66.282C13.6965 66.3473 13.8832 66.422 14.1072 66.506C14.5645 66.674 14.9425 66.842 15.2412 67.01C15.5398 67.1687 15.7732 67.346 15.9412 67.542C16.1185 67.7287 16.2398 67.9387 16.3052 68.172C16.3798 68.4053 16.4172 68.676 16.4172 68.984C16.4172 69.712 16.1418 70.2627 15.5912 70.636C15.0498 71.0093 14.2798 71.196 13.2812 71.196C12.6278 71.196 12.0818 71.14 11.6432 71.028C11.2138 70.916 10.9152 70.8227 10.7472 70.748L11.0972 69.054C11.4518 69.194 11.8158 69.306 12.1892 69.39C12.5625 69.4647 12.9312 69.502 13.2952 69.502ZM17.6261 67.374C17.6261 66.7207 17.7241 66.1513 17.9201 65.666C18.1254 65.1713 18.3914 64.7607 18.7181 64.434C19.0448 64.1073 19.4181 63.86 19.8381 63.692C20.2674 63.524 20.7061 63.44 21.1541 63.44C22.1994 63.44 23.0254 63.762 23.6321 64.406C24.2388 65.0407 24.5421 65.9787 24.5421 67.22C24.5421 67.3413 24.5374 67.4767 24.5281 67.626C24.5188 67.766 24.5094 67.892 24.5001 68.004H19.7681C19.8148 68.4333 20.0154 68.774 20.3701 69.026C20.7248 69.278 21.2008 69.404 21.7981 69.404C22.1808 69.404 22.5541 69.3713 22.9181 69.306C23.2914 69.2313 23.5948 69.1427 23.8281 69.04L24.1081 70.734C23.9961 70.79 23.8468 70.846 23.6601 70.902C23.4734 70.958 23.2634 71.0047 23.0301 71.042C22.8061 71.0887 22.5634 71.126 22.3021 71.154C22.0408 71.182 21.7794 71.196 21.5181 71.196C20.8554 71.196 20.2768 71.098 19.7821 70.902C19.2968 70.706 18.8908 70.44 18.5641 70.104C18.2468 69.7587 18.0088 69.3527 17.8501 68.886C17.7008 68.4193 17.6261 67.9153 17.6261 67.374ZM22.5261 66.576C22.5168 66.3987 22.4841 66.226 22.4281 66.058C22.3814 65.89 22.3021 65.7407 22.1901 65.61C22.0874 65.4793 21.9521 65.372 21.7841 65.288C21.6254 65.204 21.4248 65.162 21.1821 65.162C20.9488 65.162 20.7481 65.204 20.5801 65.288C20.4121 65.3627 20.2721 65.4653 20.1601 65.596C20.0481 65.7267 19.9594 65.8807 19.8941 66.058C19.8381 66.226 19.7961 66.3987 19.7681 66.576H22.5261ZM30.5899 65.484C30.4032 65.4373 30.1839 65.3907 29.9319 65.344C29.6799 65.288 29.4092 65.26 29.1199 65.26C28.9892 65.26 28.8305 65.274 28.6439 65.302C28.4665 65.3207 28.3312 65.344 28.2379 65.372V71H26.1519V64.028C26.5252 63.8973 26.9639 63.776 27.4679 63.664C27.9812 63.5427 28.5505 63.482 29.1759 63.482C29.2879 63.482 29.4232 63.4913 29.5819 63.51C29.7405 63.5193 29.8992 63.538 30.0579 63.566C30.2165 63.5847 30.3752 63.6127 30.5339 63.65C30.6925 63.678 30.8279 63.7153 30.9399 63.762L30.5899 65.484ZM35.0714 67.318C35.0714 66.786 35.1554 66.2867 35.3234 65.82C35.5007 65.344 35.7527 64.9333 36.0794 64.588C36.4061 64.2333 36.8027 63.9533 37.2694 63.748C37.7361 63.5427 38.2681 63.44 38.8654 63.44C39.2574 63.44 39.6167 63.4773 39.9434 63.552C40.2701 63.6173 40.5874 63.7153 40.8954 63.846L40.4614 65.512C40.2654 65.4373 40.0507 65.372 39.8174 65.316C39.5841 65.26 39.3227 65.232 39.0334 65.232C38.4174 65.232 37.9554 65.4233 37.6474 65.806C37.3487 66.1887 37.1994 66.6927 37.1994 67.318C37.1994 67.9807 37.3394 68.494 37.6194 68.858C37.9087 69.222 38.4081 69.404 39.1174 69.404C39.3694 69.404 39.6401 69.3807 39.9294 69.334C40.2187 69.2873 40.4847 69.2127 40.7274 69.11L41.0214 70.818C40.7787 70.9207 40.4754 71.0093 40.1114 71.084C39.7474 71.1587 39.3461 71.196 38.9074 71.196C38.2354 71.196 37.6567 71.098 37.1714 70.902C36.6861 70.6967 36.2847 70.4213 35.9674 70.076C35.6594 69.7307 35.4307 69.3247 35.2814 68.858C35.1414 68.382 35.0714 67.8687 35.0714 67.318ZM46.8594 65.484C46.6727 65.4373 46.4534 65.3907 46.2014 65.344C45.9494 65.288 45.6787 65.26 45.3894 65.26C45.2587 65.26 45.1001 65.274 44.9134 65.302C44.7361 65.3207 44.6007 65.344 44.5074 65.372V71H42.4214V64.028C42.7947 63.8973 43.2334 63.776 43.7374 63.664C44.2507 63.5427 44.8201 63.482 45.4454 63.482C45.5574 63.482 45.6927 63.4913 45.8514 63.51C46.0101 63.5193 46.1687 63.538 46.3274 63.566C46.4861 63.5847 46.6447 63.6127 46.8034 63.65C46.9621 63.678 47.0974 63.7153 47.2094 63.762L46.8594 65.484ZM47.8409 67.374C47.8409 66.7207 47.9389 66.1513 48.1349 65.666C48.3403 65.1713 48.6063 64.7607 48.9329 64.434C49.2596 64.1073 49.6329 63.86 50.0529 63.692C50.4823 63.524 50.9209 63.44 51.3689 63.44C52.4143 63.44 53.2403 63.762 53.8469 64.406C54.4536 65.0407 54.7569 65.9787 54.7569 67.22C54.7569 67.3413 54.7523 67.4767 54.7429 67.626C54.7336 67.766 54.7243 67.892 54.7149 68.004H49.9829C50.0296 68.4333 50.2303 68.774 50.5849 69.026C50.9396 69.278 51.4156 69.404 52.0129 69.404C52.3956 69.404 52.7689 69.3713 53.1329 69.306C53.5063 69.2313 53.8096 69.1427 54.0429 69.04L54.3229 70.734C54.2109 70.79 54.0616 70.846 53.8749 70.902C53.6883 70.958 53.4783 71.0047 53.2449 71.042C53.0209 71.0887 52.7783 71.126 52.5169 71.154C52.2556 71.182 51.9943 71.196 51.7329 71.196C51.0703 71.196 50.4916 71.098 49.9969 70.902C49.5116 70.706 49.1056 70.44 48.7789 70.104C48.4616 69.7587 48.2236 69.3527 48.0649 68.886C47.9156 68.4193 47.8409 67.9153 47.8409 67.374ZM52.7409 66.576C52.7316 66.3987 52.6989 66.226 52.6429 66.058C52.5963 65.89 52.5169 65.7407 52.4049 65.61C52.3023 65.4793 52.1669 65.372 51.9989 65.288C51.8403 65.204 51.6396 65.162 51.3969 65.162C51.1636 65.162 50.9629 65.204 50.7949 65.288C50.6269 65.3627 50.4869 65.4653 50.3749 65.596C50.2629 65.7267 50.1743 65.8807 50.1089 66.058C50.0529 66.226 50.0109 66.3987 49.9829 66.576H52.7409ZM59.1807 69.544C59.3861 69.544 59.5821 69.5393 59.7687 69.53C59.9554 69.5207 60.1047 69.5067 60.2167 69.488V67.906C60.1327 67.8873 60.0067 67.8687 59.8387 67.85C59.6707 67.8313 59.5167 67.822 59.3767 67.822C59.1807 67.822 58.9941 67.836 58.8167 67.864C58.6487 67.8827 58.4994 67.9247 58.3687 67.99C58.2381 68.0553 58.1354 68.144 58.0607 68.256C57.9861 68.368 57.9487 68.508 57.9487 68.676C57.9487 69.0027 58.0561 69.2313 58.2707 69.362C58.4947 69.4833 58.7981 69.544 59.1807 69.544ZM59.0127 63.44C59.6287 63.44 60.1421 63.51 60.5527 63.65C60.9634 63.79 61.2901 63.9907 61.5327 64.252C61.7847 64.5133 61.9621 64.8307 62.0647 65.204C62.1674 65.5773 62.2187 65.9927 62.2187 66.45V70.79C61.9201 70.8553 61.5047 70.93 60.9727 71.014C60.4407 71.1073 59.7967 71.154 59.0407 71.154C58.5647 71.154 58.1307 71.112 57.7387 71.028C57.3561 70.944 57.0247 70.8087 56.7447 70.622C56.4647 70.426 56.2501 70.174 56.1007 69.866C55.9514 69.558 55.8767 69.18 55.8767 68.732C55.8767 68.3027 55.9607 67.9387 56.1287 67.64C56.3061 67.3413 56.5394 67.1033 56.8287 66.926C57.1181 66.7487 57.4494 66.6227 57.8227 66.548C58.1961 66.464 58.5834 66.422 58.9847 66.422C59.2554 66.422 59.4934 66.436 59.6987 66.464C59.9134 66.4827 60.0861 66.5107 60.2167 66.548V66.352C60.2167 65.9973 60.1094 65.7127 59.8947 65.498C59.6801 65.2833 59.3067 65.176 58.7747 65.176C58.4201 65.176 58.0701 65.204 57.7247 65.26C57.3794 65.3067 57.0807 65.3767 56.8287 65.47L56.5627 63.79C56.6841 63.7527 56.8334 63.7153 57.0107 63.678C57.1974 63.6313 57.3981 63.594 57.6127 63.566C57.8274 63.5287 58.0514 63.5007 58.2847 63.482C58.5274 63.454 58.7701 63.44 59.0127 63.44ZM64.035 61.802L66.121 61.466V63.636H68.627V65.372H66.121V67.962C66.121 68.4007 66.1957 68.7507 66.345 69.012C66.5037 69.2733 66.8163 69.404 67.283 69.404C67.507 69.404 67.7357 69.3853 67.969 69.348C68.2117 69.3013 68.431 69.2407 68.627 69.166L68.921 70.79C68.669 70.8927 68.389 70.9813 68.081 71.056C67.773 71.1307 67.395 71.168 66.947 71.168C66.3777 71.168 65.9063 71.0933 65.533 70.944C65.1597 70.7853 64.861 70.5707 64.637 70.3C64.413 70.02 64.2543 69.684 64.161 69.292C64.077 68.9 64.035 68.466 64.035 67.99V61.802ZM69.7023 67.374C69.7023 66.7207 69.8003 66.1513 69.9963 65.666C70.2016 65.1713 70.4676 64.7607 70.7943 64.434C71.1209 64.1073 71.4943 63.86 71.9143 63.692C72.3436 63.524 72.7823 63.44 73.2303 63.44C74.2756 63.44 75.1016 63.762 75.7083 64.406C76.3149 65.0407 76.6183 65.9787 76.6183 67.22C76.6183 67.3413 76.6136 67.4767 76.6043 67.626C76.5949 67.766 76.5856 67.892 76.5763 68.004H71.8443C71.8909 68.4333 72.0916 68.774 72.4463 69.026C72.8009 69.278 73.2769 69.404 73.8743 69.404C74.2569 69.404 74.6303 69.3713 74.9943 69.306C75.3676 69.2313 75.6709 69.1427 75.9043 69.04L76.1843 70.734C76.0723 70.79 75.9229 70.846 75.7363 70.902C75.5496 70.958 75.3396 71.0047 75.1063 71.042C74.8823 71.0887 74.6396 71.126 74.3783 71.154C74.1169 71.182 73.8556 71.196 73.5943 71.196C72.9316 71.196 72.3529 71.098 71.8583 70.902C71.3729 70.706 70.9669 70.44 70.6403 70.104C70.3229 69.7587 70.0849 69.3527 69.9263 68.886C69.7769 68.4193 69.7023 67.9153 69.7023 67.374ZM74.6023 66.576C74.5929 66.3987 74.5603 66.226 74.5043 66.058C74.4576 65.89 74.3783 65.7407 74.2663 65.61C74.1636 65.4793 74.0283 65.372 73.8603 65.288C73.7016 65.204 73.5009 65.162 73.2583 65.162C73.0249 65.162 72.8243 65.204 72.6563 65.288C72.4883 65.3627 72.3483 65.4653 72.2363 65.596C72.1243 65.7267 72.0356 65.8807 71.9703 66.058C71.9143 66.226 71.8723 66.3987 71.8443 66.576H74.6023ZM80.006 67.262C80.006 67.906 80.1507 68.424 80.44 68.816C80.7294 69.208 81.1587 69.404 81.728 69.404C81.9147 69.404 82.0874 69.3993 82.246 69.39C82.4047 69.3713 82.5354 69.3527 82.638 69.334V65.54C82.5074 65.456 82.3347 65.386 82.12 65.33C81.9147 65.274 81.7047 65.246 81.49 65.246C80.5007 65.246 80.006 65.918 80.006 67.262ZM84.724 70.762C84.5374 70.818 84.3227 70.874 84.08 70.93C83.8374 70.9767 83.5807 71.0187 83.31 71.056C83.0487 71.0933 82.778 71.1213 82.498 71.14C82.2274 71.168 81.966 71.182 81.714 71.182C81.1074 71.182 80.566 71.0933 80.09 70.916C79.614 70.7387 79.2127 70.4867 78.886 70.16C78.5594 69.824 78.3074 69.4227 78.13 68.956C77.962 68.48 77.878 67.948 77.878 67.36C77.878 66.7627 77.9527 66.226 78.102 65.75C78.2514 65.2647 78.466 64.854 78.746 64.518C79.026 64.182 79.3667 63.9253 79.768 63.748C80.1787 63.5707 80.6454 63.482 81.168 63.482C81.4574 63.482 81.714 63.51 81.938 63.566C82.1714 63.622 82.4047 63.7013 82.638 63.804V60.472L84.724 60.136V70.762Z" fill="#1A344B"/>
<path d="M161.259 61.298V63.16H158.333V71H156.149V63.16H153.223V61.298H161.259ZM165.99 65.484C165.804 65.4373 165.584 65.3907 165.332 65.344C165.08 65.288 164.81 65.26 164.52 65.26C164.39 65.26 164.231 65.274 164.044 65.302C163.867 65.3207 163.732 65.344 163.638 65.372V71H161.552V64.028C161.926 63.8973 162.364 63.776 162.868 63.664C163.382 63.5427 163.951 63.482 164.576 63.482C164.688 63.482 164.824 63.4913 164.982 63.51C165.141 63.5193 165.3 63.538 165.458 63.566C165.617 63.5847 165.776 63.6127 165.934 63.65C166.093 63.678 166.228 63.7153 166.34 63.762L165.99 65.484ZM169.545 71H167.459V63.636H169.545V71ZM169.741 61.508C169.741 61.8907 169.615 62.194 169.363 62.418C169.12 62.6327 168.831 62.74 168.495 62.74C168.159 62.74 167.865 62.6327 167.613 62.418C167.37 62.194 167.249 61.8907 167.249 61.508C167.249 61.1253 167.37 60.8267 167.613 60.612C167.865 60.388 168.159 60.276 168.495 60.276C168.831 60.276 169.12 60.388 169.363 60.612C169.615 60.8267 169.741 61.1253 169.741 61.508ZM174.319 69.544C174.525 69.544 174.721 69.5393 174.907 69.53C175.094 69.5207 175.243 69.5067 175.355 69.488V67.906C175.271 67.8873 175.145 67.8687 174.977 67.85C174.809 67.8313 174.655 67.822 174.515 67.822C174.319 67.822 174.133 67.836 173.955 67.864C173.787 67.8827 173.638 67.9247 173.507 67.99C173.377 68.0553 173.274 68.144 173.199 68.256C173.125 68.368 173.087 68.508 173.087 68.676C173.087 69.0027 173.195 69.2313 173.409 69.362C173.633 69.4833 173.937 69.544 174.319 69.544ZM174.151 63.44C174.767 63.44 175.281 63.51 175.691 63.65C176.102 63.79 176.429 63.9907 176.671 64.252C176.923 64.5133 177.101 64.8307 177.203 65.204C177.306 65.5773 177.357 65.9927 177.357 66.45V70.79C177.059 70.8553 176.643 70.93 176.111 71.014C175.579 71.1073 174.935 71.154 174.179 71.154C173.703 71.154 173.269 71.112 172.877 71.028C172.495 70.944 172.163 70.8087 171.883 70.622C171.603 70.426 171.389 70.174 171.239 69.866C171.09 69.558 171.015 69.18 171.015 68.732C171.015 68.3027 171.099 67.9387 171.267 67.64C171.445 67.3413 171.678 67.1033 171.967 66.926C172.257 66.7487 172.588 66.6227 172.961 66.548C173.335 66.464 173.722 66.422 174.123 66.422C174.394 66.422 174.632 66.436 174.837 66.464C175.052 66.4827 175.225 66.5107 175.355 66.548V66.352C175.355 65.9973 175.248 65.7127 175.033 65.498C174.819 65.2833 174.445 65.176 173.913 65.176C173.559 65.176 173.209 65.204 172.863 65.26C172.518 65.3067 172.219 65.3767 171.967 65.47L171.701 63.79C171.823 63.7527 171.972 63.7153 172.149 63.678C172.336 63.6313 172.537 63.594 172.751 63.566C172.966 63.5287 173.19 63.5007 173.423 63.482C173.666 63.454 173.909 63.44 174.151 63.44ZM182.184 71.14C181.577 71.1307 181.082 71.0653 180.7 70.944C180.326 70.8227 180.028 70.6547 179.804 70.44C179.589 70.216 179.44 69.95 179.356 69.642C179.281 69.3247 179.244 68.97 179.244 68.578V60.472L181.33 60.136V68.158C181.33 68.3447 181.344 68.5127 181.372 68.662C181.4 68.8113 181.451 68.9373 181.526 69.04C181.61 69.1427 181.726 69.2267 181.876 69.292C182.025 69.3573 182.226 69.3993 182.478 69.418L182.184 71.14ZM148.115 85.502C148.497 85.502 148.768 85.4647 148.927 85.39C149.085 85.3153 149.165 85.1707 149.165 84.956C149.165 84.788 149.062 84.6433 148.857 84.522C148.651 84.3913 148.339 84.2467 147.919 84.088C147.592 83.9667 147.293 83.8407 147.023 83.71C146.761 83.5793 146.537 83.4253 146.351 83.248C146.164 83.0613 146.019 82.842 145.917 82.59C145.814 82.338 145.763 82.0347 145.763 81.68C145.763 80.9893 146.019 80.4433 146.533 80.042C147.046 79.6407 147.751 79.44 148.647 79.44C149.095 79.44 149.524 79.482 149.935 79.566C150.345 79.6407 150.672 79.7247 150.915 79.818L150.551 81.442C150.308 81.358 150.042 81.2833 149.753 81.218C149.473 81.1527 149.155 81.12 148.801 81.12C148.147 81.12 147.821 81.302 147.821 81.666C147.821 81.75 147.835 81.8247 147.863 81.89C147.891 81.9553 147.947 82.0207 148.031 82.086C148.115 82.142 148.227 82.2073 148.367 82.282C148.516 82.3473 148.703 82.422 148.927 82.506C149.384 82.674 149.762 82.842 150.061 83.01C150.359 83.1687 150.593 83.346 150.761 83.542C150.938 83.7287 151.059 83.9387 151.125 84.172C151.199 84.4053 151.237 84.676 151.237 84.984C151.237 85.712 150.961 86.2627 150.411 86.636C149.869 87.0093 149.099 87.196 148.101 87.196C147.447 87.196 146.901 87.14 146.463 87.028C146.033 86.916 145.735 86.8227 145.567 86.748L145.917 85.054C146.271 85.194 146.635 85.306 147.009 85.39C147.382 85.4647 147.751 85.502 148.115 85.502ZM152.725 77.802L154.811 77.466V79.636H157.317V81.372H154.811V83.962C154.811 84.4007 154.886 84.7507 155.035 85.012C155.194 85.2733 155.507 85.404 155.973 85.404C156.197 85.404 156.426 85.3853 156.659 85.348C156.902 85.3013 157.121 85.2407 157.317 85.166L157.611 86.79C157.359 86.8927 157.079 86.9813 156.771 87.056C156.463 87.1307 156.085 87.168 155.637 87.168C155.068 87.168 154.597 87.0933 154.223 86.944C153.85 86.7853 153.551 86.5707 153.327 86.3C153.103 86.02 152.945 85.684 152.851 85.292C152.767 84.9 152.725 84.466 152.725 83.99V77.802ZM161.557 85.544C161.762 85.544 161.958 85.5393 162.145 85.53C162.331 85.5207 162.481 85.5067 162.593 85.488V83.906C162.509 83.8873 162.383 83.8687 162.215 83.85C162.047 83.8313 161.893 83.822 161.753 83.822C161.557 83.822 161.37 83.836 161.193 83.864C161.025 83.8827 160.875 83.9247 160.745 83.99C160.614 84.0553 160.511 84.144 160.437 84.256C160.362 84.368 160.325 84.508 160.325 84.676C160.325 85.0027 160.432 85.2313 160.647 85.362C160.871 85.4833 161.174 85.544 161.557 85.544ZM161.389 79.44C162.005 79.44 162.518 79.51 162.929 79.65C163.339 79.79 163.666 79.9907 163.909 80.252C164.161 80.5133 164.338 80.8307 164.441 81.204C164.543 81.5773 164.595 81.9927 164.595 82.45V86.79C164.296 86.8553 163.881 86.93 163.349 87.014C162.817 87.1073 162.173 87.154 161.417 87.154C160.941 87.154 160.507 87.112 160.115 87.028C159.732 86.944 159.401 86.8087 159.121 86.622C158.841 86.426 158.626 86.174 158.477 85.866C158.327 85.558 158.253 85.18 158.253 84.732C158.253 84.3027 158.337 83.9387 158.505 83.64C158.682 83.3413 158.915 83.1033 159.205 82.926C159.494 82.7487 159.825 82.6227 160.199 82.548C160.572 82.464 160.959 82.422 161.361 82.422C161.631 82.422 161.869 82.436 162.075 82.464C162.289 82.4827 162.462 82.5107 162.593 82.548V82.352C162.593 81.9973 162.485 81.7127 162.271 81.498C162.056 81.2833 161.683 81.176 161.151 81.176C160.796 81.176 160.446 81.204 160.101 81.26C159.755 81.3067 159.457 81.3767 159.205 81.47L158.939 79.79C159.06 79.7527 159.209 79.7153 159.387 79.678C159.573 79.6313 159.774 79.594 159.989 79.566C160.203 79.5287 160.427 79.5007 160.661 79.482C160.903 79.454 161.146 79.44 161.389 79.44ZM170.919 81.484C170.732 81.4373 170.513 81.3907 170.261 81.344C170.009 81.288 169.738 81.26 169.449 81.26C169.318 81.26 169.16 81.274 168.973 81.302C168.796 81.3207 168.66 81.344 168.567 81.372V87H166.481V80.028C166.854 79.8973 167.293 79.776 167.797 79.664C168.31 79.5427 168.88 79.482 169.505 79.482C169.617 79.482 169.752 79.4913 169.911 79.51C170.07 79.5193 170.228 79.538 170.387 79.566C170.546 79.5847 170.704 79.6127 170.863 79.65C171.022 79.678 171.157 79.7153 171.269 79.762L170.919 81.484ZM172.317 77.802L174.403 77.466V79.636H176.909V81.372H174.403V83.962C174.403 84.4007 174.478 84.7507 174.627 85.012C174.786 85.2733 175.099 85.404 175.565 85.404C175.789 85.404 176.018 85.3853 176.251 85.348C176.494 85.3013 176.713 85.2407 176.909 85.166L177.203 86.79C176.951 86.8927 176.671 86.9813 176.363 87.056C176.055 87.1307 175.677 87.168 175.229 87.168C174.66 87.168 174.189 87.0933 173.815 86.944C173.442 86.7853 173.143 86.5707 172.919 86.3C172.695 86.02 172.537 85.684 172.443 85.292C172.359 84.9 172.317 84.466 172.317 83.99V77.802ZM177.984 83.374C177.984 82.7207 178.082 82.1513 178.278 81.666C178.484 81.1713 178.75 80.7607 179.076 80.434C179.403 80.1073 179.776 79.86 180.196 79.692C180.626 79.524 181.064 79.44 181.512 79.44C182.558 79.44 183.384 79.762 183.99 80.406C184.597 81.0407 184.9 81.9787 184.9 83.22C184.9 83.3413 184.896 83.4767 184.886 83.626C184.877 83.766 184.868 83.892 184.858 84.004H180.126C180.173 84.4333 180.374 84.774 180.728 85.026C181.083 85.278 181.559 85.404 182.156 85.404C182.539 85.404 182.912 85.3713 183.276 85.306C183.65 85.2313 183.953 85.1427 184.186 85.04L184.466 86.734C184.354 86.79 184.205 86.846 184.018 86.902C183.832 86.958 183.622 87.0047 183.388 87.042C183.164 87.0887 182.922 87.126 182.66 87.154C182.399 87.182 182.138 87.196 181.876 87.196C181.214 87.196 180.635 87.098 180.14 86.902C179.655 86.706 179.249 86.44 178.922 86.104C178.605 85.7587 178.367 85.3527 178.208 84.886C178.059 84.4193 177.984 83.9153 177.984 83.374ZM182.884 82.576C182.875 82.3987 182.842 82.226 182.786 82.058C182.74 81.89 182.66 81.7407 182.548 81.61C182.446 81.4793 182.31 81.372 182.142 81.288C181.984 81.204 181.783 81.162 181.54 81.162C181.307 81.162 181.106 81.204 180.938 81.288C180.77 81.3627 180.63 81.4653 180.518 81.596C180.406 81.7267 180.318 81.8807 180.252 82.058C180.196 82.226 180.154 82.3987 180.126 82.576H182.884ZM188.288 83.262C188.288 83.906 188.433 84.424 188.722 84.816C189.012 85.208 189.441 85.404 190.01 85.404C190.197 85.404 190.37 85.3993 190.528 85.39C190.687 85.3713 190.818 85.3527 190.92 85.334V81.54C190.79 81.456 190.617 81.386 190.402 81.33C190.197 81.274 189.987 81.246 189.772 81.246C188.783 81.246 188.288 81.918 188.288 83.262ZM193.006 86.762C192.82 86.818 192.605 86.874 192.362 86.93C192.12 86.9767 191.863 87.0187 191.592 87.056C191.331 87.0933 191.06 87.1213 190.78 87.14C190.51 87.168 190.248 87.182 189.996 87.182C189.39 87.182 188.848 87.0933 188.372 86.916C187.896 86.7387 187.495 86.4867 187.168 86.16C186.842 85.824 186.59 85.4227 186.412 84.956C186.244 84.48 186.16 83.948 186.16 83.36C186.16 82.7627 186.235 82.226 186.384 81.75C186.534 81.2647 186.748 80.854 187.028 80.518C187.308 80.182 187.649 79.9253 188.05 79.748C188.461 79.5707 188.928 79.482 189.45 79.482C189.74 79.482 189.996 79.51 190.22 79.566C190.454 79.622 190.687 79.7013 190.92 79.804V76.472L193.006 76.136V86.762Z" fill="#1A344B"/>
<path d="M289.759 61.298V63.16H286.833V71H284.649V63.16H281.723V61.298H289.759ZM294.49 65.484C294.304 65.4373 294.084 65.3907 293.832 65.344C293.58 65.288 293.31 65.26 293.02 65.26C292.89 65.26 292.731 65.274 292.544 65.302C292.367 65.3207 292.232 65.344 292.138 65.372V71H290.052V64.028C290.426 63.8973 290.864 63.776 291.368 63.664C291.882 63.5427 292.451 63.482 293.076 63.482C293.188 63.482 293.324 63.4913 293.482 63.51C293.641 63.5193 293.8 63.538 293.958 63.566C294.117 63.5847 294.276 63.6127 294.434 63.65C294.593 63.678 294.728 63.7153 294.84 63.762L294.49 65.484ZM298.045 71H295.959V63.636H298.045V71ZM298.241 61.508C298.241 61.8907 298.115 62.194 297.863 62.418C297.62 62.6327 297.331 62.74 296.995 62.74C296.659 62.74 296.365 62.6327 296.113 62.418C295.87 62.194 295.749 61.8907 295.749 61.508C295.749 61.1253 295.87 60.8267 296.113 60.612C296.365 60.388 296.659 60.276 296.995 60.276C297.331 60.276 297.62 60.388 297.863 60.612C298.115 60.8267 298.241 61.1253 298.241 61.508ZM302.819 69.544C303.025 69.544 303.221 69.5393 303.407 69.53C303.594 69.5207 303.743 69.5067 303.855 69.488V67.906C303.771 67.8873 303.645 67.8687 303.477 67.85C303.309 67.8313 303.155 67.822 303.015 67.822C302.819 67.822 302.633 67.836 302.455 67.864C302.287 67.8827 302.138 67.9247 302.007 67.99C301.877 68.0553 301.774 68.144 301.699 68.256C301.625 68.368 301.587 68.508 301.587 68.676C301.587 69.0027 301.695 69.2313 301.909 69.362C302.133 69.4833 302.437 69.544 302.819 69.544ZM302.651 63.44C303.267 63.44 303.781 63.51 304.191 63.65C304.602 63.79 304.929 63.9907 305.171 64.252C305.423 64.5133 305.601 64.8307 305.703 65.204C305.806 65.5773 305.857 65.9927 305.857 66.45V70.79C305.559 70.8553 305.143 70.93 304.611 71.014C304.079 71.1073 303.435 71.154 302.679 71.154C302.203 71.154 301.769 71.112 301.377 71.028C300.995 70.944 300.663 70.8087 300.383 70.622C300.103 70.426 299.889 70.174 299.739 69.866C299.59 69.558 299.515 69.18 299.515 68.732C299.515 68.3027 299.599 67.9387 299.767 67.64C299.945 67.3413 300.178 67.1033 300.467 66.926C300.757 66.7487 301.088 66.6227 301.461 66.548C301.835 66.464 302.222 66.422 302.623 66.422C302.894 66.422 303.132 66.436 303.337 66.464C303.552 66.4827 303.725 66.5107 303.855 66.548V66.352C303.855 65.9973 303.748 65.7127 303.533 65.498C303.319 65.2833 302.945 65.176 302.413 65.176C302.059 65.176 301.709 65.204 301.363 65.26C301.018 65.3067 300.719 65.3767 300.467 65.47L300.201 63.79C300.323 63.7527 300.472 63.7153 300.649 63.678C300.836 63.6313 301.037 63.594 301.251 63.566C301.466 63.5287 301.69 63.5007 301.923 63.482C302.166 63.454 302.409 63.44 302.651 63.44ZM310.684 71.14C310.077 71.1307 309.582 71.0653 309.2 70.944C308.826 70.8227 308.528 70.6547 308.304 70.44C308.089 70.216 307.94 69.95 307.856 69.642C307.781 69.3247 307.744 68.97 307.744 68.578V60.472L309.83 60.136V68.158C309.83 68.3447 309.844 68.5127 309.872 68.662C309.9 68.8113 309.951 68.9373 310.026 69.04C310.11 69.1427 310.226 69.2267 310.376 69.292C310.525 69.3573 310.726 69.3993 310.978 69.418L310.684 71.14ZM264.963 83.318C264.963 82.786 265.047 82.2867 265.215 81.82C265.392 81.344 265.644 80.9333 265.971 80.588C266.298 80.2333 266.694 79.9533 267.161 79.748C267.628 79.5427 268.16 79.44 268.757 79.44C269.149 79.44 269.508 79.4773 269.835 79.552C270.162 79.6173 270.479 79.7153 270.787 79.846L270.353 81.512C270.157 81.4373 269.942 81.372 269.709 81.316C269.476 81.26 269.214 81.232 268.925 81.232C268.309 81.232 267.847 81.4233 267.539 81.806C267.24 82.1887 267.091 82.6927 267.091 83.318C267.091 83.9807 267.231 84.494 267.511 84.858C267.8 85.222 268.3 85.404 269.009 85.404C269.261 85.404 269.532 85.3807 269.821 85.334C270.11 85.2873 270.376 85.2127 270.619 85.11L270.913 86.818C270.67 86.9207 270.367 87.0093 270.003 87.084C269.639 87.1587 269.238 87.196 268.799 87.196C268.127 87.196 267.548 87.098 267.063 86.902C266.578 86.6967 266.176 86.4213 265.859 86.076C265.551 85.7307 265.322 85.3247 265.173 84.858C265.033 84.382 264.963 83.8687 264.963 83.318ZM278.846 83.304C278.846 83.8827 278.762 84.4147 278.594 84.9C278.426 85.376 278.183 85.7867 277.866 86.132C277.548 86.468 277.166 86.7293 276.718 86.916C276.279 87.1027 275.784 87.196 275.234 87.196C274.692 87.196 274.198 87.1027 273.75 86.916C273.311 86.7293 272.933 86.468 272.616 86.132C272.298 85.7867 272.051 85.376 271.874 84.9C271.696 84.4147 271.608 83.8827 271.608 83.304C271.608 82.7253 271.696 82.198 271.874 81.722C272.06 81.246 272.312 80.84 272.63 80.504C272.956 80.168 273.339 79.9067 273.778 79.72C274.226 79.5333 274.711 79.44 275.234 79.44C275.766 79.44 276.251 79.5333 276.69 79.72C277.138 79.9067 277.52 80.168 277.838 80.504C278.155 80.84 278.402 81.246 278.58 81.722C278.757 82.198 278.846 82.7253 278.846 83.304ZM276.718 83.304C276.718 82.66 276.587 82.156 276.326 81.792C276.074 81.4187 275.71 81.232 275.234 81.232C274.758 81.232 274.389 81.4187 274.128 81.792C273.866 82.156 273.736 82.66 273.736 83.304C273.736 83.948 273.866 84.4613 274.128 84.844C274.389 85.2173 274.758 85.404 275.234 85.404C275.71 85.404 276.074 85.2173 276.326 84.844C276.587 84.4613 276.718 83.948 276.718 83.304ZM280.461 79.888C280.816 79.7853 281.273 79.692 281.833 79.608C282.393 79.5147 282.981 79.468 283.597 79.468C284.223 79.468 284.741 79.552 285.151 79.72C285.571 79.8787 285.903 80.1073 286.145 80.406C286.388 80.7047 286.561 81.0593 286.663 81.47C286.766 81.8807 286.817 82.338 286.817 82.842V87H284.731V83.094C284.731 82.422 284.643 81.946 284.465 81.666C284.288 81.386 283.957 81.246 283.471 81.246C283.322 81.246 283.163 81.2553 282.995 81.274C282.827 81.2833 282.678 81.2973 282.547 81.316V87H280.461V79.888ZM290.489 87C290.013 86.0667 289.528 84.9747 289.033 83.724C288.548 82.4733 288.086 81.1107 287.647 79.636H289.859C289.952 80 290.06 80.3967 290.181 80.826C290.312 81.246 290.442 81.6753 290.573 82.114C290.713 82.5433 290.848 82.9633 290.979 83.374C291.119 83.7847 291.254 84.158 291.385 84.494C291.506 84.158 291.637 83.7847 291.777 83.374C291.917 82.9633 292.052 82.5433 292.183 82.114C292.323 81.6753 292.454 81.246 292.575 80.826C292.706 80.3967 292.818 80 292.911 79.636H295.067C294.628 81.1107 294.162 82.4733 293.667 83.724C293.182 84.9747 292.701 86.0667 292.225 87H290.489ZM295.643 83.374C295.643 82.7207 295.741 82.1513 295.937 81.666C296.142 81.1713 296.408 80.7607 296.735 80.434C297.061 80.1073 297.435 79.86 297.855 79.692C298.284 79.524 298.723 79.44 299.171 79.44C300.216 79.44 301.042 79.762 301.649 80.406C302.255 81.0407 302.559 81.9787 302.559 83.22C302.559 83.3413 302.554 83.4767 302.545 83.626C302.535 83.766 302.526 83.892 302.517 84.004H297.785C297.831 84.4333 298.032 84.774 298.387 85.026C298.741 85.278 299.217 85.404 299.815 85.404C300.197 85.404 300.571 85.3713 300.935 85.306C301.308 85.2313 301.611 85.1427 301.845 85.04L302.125 86.734C302.013 86.79 301.863 86.846 301.677 86.902C301.49 86.958 301.28 87.0047 301.047 87.042C300.823 87.0887 300.58 87.126 300.319 87.154C300.057 87.182 299.796 87.196 299.535 87.196C298.872 87.196 298.293 87.098 297.799 86.902C297.313 86.706 296.907 86.44 296.581 86.104C296.263 85.7587 296.025 85.3527 295.867 84.886C295.717 84.4193 295.643 83.9153 295.643 83.374ZM300.543 82.576C300.533 82.3987 300.501 82.226 300.445 82.058C300.398 81.89 300.319 81.7407 300.207 81.61C300.104 81.4793 299.969 81.372 299.801 81.288C299.642 81.204 299.441 81.162 299.199 81.162C298.965 81.162 298.765 81.204 298.597 81.288C298.429 81.3627 298.289 81.4653 298.177 81.596C298.065 81.7267 297.976 81.8807 297.911 82.058C297.855 82.226 297.813 82.3987 297.785 82.576H300.543ZM308.606 81.484C308.42 81.4373 308.2 81.3907 307.948 81.344C307.696 81.288 307.426 81.26 307.136 81.26C307.006 81.26 306.847 81.274 306.66 81.302C306.483 81.3207 306.348 81.344 306.254 81.372V87H304.168V80.028C304.542 79.8973 304.98 79.776 305.484 79.664C305.998 79.5427 306.567 79.482 307.192 79.482C307.304 79.482 307.44 79.4913 307.598 79.51C307.757 79.5193 307.916 79.538 308.074 79.566C308.233 79.5847 308.392 79.6127 308.55 79.65C308.709 79.678 308.844 79.7153 308.956 79.762L308.606 81.484ZM310.005 77.802L312.091 77.466V79.636H314.597V81.372H312.091V83.962C312.091 84.4007 312.165 84.7507 312.315 85.012C312.473 85.2733 312.786 85.404 313.253 85.404C313.477 85.404 313.705 85.3853 313.939 85.348C314.181 85.3013 314.401 85.2407 314.597 85.166L314.891 86.79C314.639 86.8927 314.359 86.9813 314.051 87.056C313.743 87.1307 313.365 87.168 312.917 87.168C312.347 87.168 311.876 87.0933 311.503 86.944C311.129 86.7853 310.831 86.5707 310.607 86.3C310.383 86.02 310.224 85.684 310.131 85.292C310.047 84.9 310.005 84.466 310.005 83.99V77.802ZM315.672 83.374C315.672 82.7207 315.77 82.1513 315.966 81.666C316.171 81.1713 316.437 80.7607 316.764 80.434C317.091 80.1073 317.464 79.86 317.884 79.692C318.313 79.524 318.752 79.44 319.2 79.44C320.245 79.44 321.071 79.762 321.678 80.406C322.285 81.0407 322.588 81.9787 322.588 83.22C322.588 83.3413 322.583 83.4767 322.574 83.626C322.565 83.766 322.555 83.892 322.546 84.004H317.814C317.861 84.4333 318.061 84.774 318.416 85.026C318.771 85.278 319.247 85.404 319.844 85.404C320.227 85.404 320.6 85.3713 320.964 85.306C321.337 85.2313 321.641 85.1427 321.874 85.04L322.154 86.734C322.042 86.79 321.893 86.846 321.706 86.902C321.519 86.958 321.309 87.0047 321.076 87.042C320.852 87.0887 320.609 87.126 320.348 87.154C320.087 87.182 319.825 87.196 319.564 87.196C318.901 87.196 318.323 87.098 317.828 86.902C317.343 86.706 316.937 86.44 316.61 86.104C316.293 85.7587 316.055 85.3527 315.896 84.886C315.747 84.4193 315.672 83.9153 315.672 83.374ZM320.572 82.576C320.563 82.3987 320.53 82.226 320.474 82.058C320.427 81.89 320.348 81.7407 320.236 81.61C320.133 81.4793 319.998 81.372 319.83 81.288C319.671 81.204 319.471 81.162 319.228 81.162C318.995 81.162 318.794 81.204 318.626 81.288C318.458 81.3627 318.318 81.4653 318.206 81.596C318.094 81.7267 318.005 81.8807 317.94 82.058C317.884 82.226 317.842 82.3987 317.814 82.576H320.572ZM325.976 83.262C325.976 83.906 326.12 84.424 326.41 84.816C326.699 85.208 327.128 85.404 327.698 85.404C327.884 85.404 328.057 85.3993 328.216 85.39C328.374 85.3713 328.505 85.3527 328.608 85.334V81.54C328.477 81.456 328.304 81.386 328.09 81.33C327.884 81.274 327.674 81.246 327.46 81.246C326.47 81.246 325.976 81.918 325.976 83.262ZM330.694 86.762C330.507 86.818 330.292 86.874 330.05 86.93C329.807 86.9767 329.55 87.0187 329.28 87.056C329.018 87.0933 328.748 87.1213 328.468 87.14C328.197 87.168 327.936 87.182 327.684 87.182C327.077 87.182 326.536 87.0933 326.06 86.916C325.584 86.7387 325.182 86.4867 324.856 86.16C324.529 85.824 324.277 85.4227 324.1 84.956C323.932 84.48 323.848 83.948 323.848 83.36C323.848 82.7627 323.922 82.226 324.072 81.75C324.221 81.2647 324.436 80.854 324.716 80.518C324.996 80.182 325.336 79.9253 325.738 79.748C326.148 79.5707 326.615 79.482 327.138 79.482C327.427 79.482 327.684 79.51 327.908 79.566C328.141 79.622 328.374 79.7013 328.608 79.804V76.472L330.694 76.136V86.762Z" fill="#1A344B"/>
<path d="M387.239 69.334C387.547 69.334 387.799 69.3107 387.995 69.264C388.2 69.208 388.363 69.138 388.485 69.054C388.606 68.9607 388.69 68.8533 388.737 68.732C388.783 68.6107 388.807 68.4753 388.807 68.326C388.807 68.0087 388.657 67.7473 388.359 67.542C388.06 67.3273 387.547 67.0987 386.819 66.856C386.501 66.744 386.184 66.618 385.867 66.478C385.549 66.3287 385.265 66.1467 385.013 65.932C384.761 65.708 384.555 65.442 384.397 65.134C384.238 64.8167 384.159 64.434 384.159 63.986C384.159 63.538 384.243 63.1367 384.411 62.782C384.579 62.418 384.817 62.11 385.125 61.858C385.433 61.606 385.806 61.4147 386.245 61.284C386.683 61.144 387.178 61.074 387.729 61.074C388.382 61.074 388.947 61.144 389.423 61.284C389.899 61.424 390.291 61.578 390.599 61.746L389.969 63.468C389.698 63.328 389.395 63.2067 389.059 63.104C388.732 62.992 388.335 62.936 387.869 62.936C387.346 62.936 386.968 63.0107 386.735 63.16C386.511 63.3 386.399 63.5193 386.399 63.818C386.399 63.9953 386.441 64.1447 386.525 64.266C386.609 64.3873 386.725 64.4993 386.875 64.602C387.033 64.6953 387.211 64.784 387.407 64.868C387.612 64.9427 387.836 65.022 388.079 65.106C388.583 65.2927 389.021 65.4793 389.395 65.666C389.768 65.8433 390.076 66.0533 390.319 66.296C390.571 66.5387 390.757 66.8233 390.879 67.15C391 67.4767 391.061 67.8733 391.061 68.34C391.061 69.2453 390.743 69.95 390.109 70.454C389.474 70.9487 388.517 71.196 387.239 71.196C386.809 71.196 386.422 71.168 386.077 71.112C385.731 71.0653 385.423 71.0047 385.153 70.93C384.891 70.8553 384.663 70.776 384.467 70.692C384.28 70.608 384.121 70.5287 383.991 70.454L384.607 68.718C384.896 68.8767 385.251 69.0213 385.671 69.152C386.1 69.2733 386.623 69.334 387.239 69.334ZM398.887 70.748C398.532 70.8507 398.075 70.944 397.515 71.028C396.955 71.1213 396.367 71.168 395.751 71.168C395.126 71.168 394.603 71.084 394.183 70.916C393.772 70.748 393.446 70.5147 393.203 70.216C392.96 69.908 392.788 69.544 392.685 69.124C392.582 68.704 392.531 68.242 392.531 67.738V63.636H394.617V67.486C394.617 68.158 394.706 68.6433 394.883 68.942C395.06 69.2407 395.392 69.39 395.877 69.39C396.026 69.39 396.185 69.3853 396.353 69.376C396.521 69.3573 396.67 69.3387 396.801 69.32V63.636H398.887V70.748ZM405.563 67.262C405.563 65.918 405.069 65.246 404.079 65.246C403.865 65.246 403.65 65.274 403.435 65.33C403.23 65.386 403.062 65.456 402.931 65.54V69.334C403.034 69.3527 403.165 69.3713 403.323 69.39C403.482 69.3993 403.655 69.404 403.841 69.404C404.411 69.404 404.84 69.208 405.129 68.816C405.419 68.424 405.563 67.906 405.563 67.262ZM407.691 67.318C407.691 67.906 407.603 68.438 407.425 68.914C407.257 69.39 407.01 69.796 406.683 70.132C406.357 70.468 405.955 70.7293 405.479 70.916C405.003 71.0933 404.462 71.182 403.855 71.182C403.603 71.182 403.337 71.168 403.057 71.14C402.787 71.1213 402.516 71.0933 402.245 71.056C401.984 71.0187 401.732 70.9767 401.489 70.93C401.247 70.874 401.032 70.818 400.845 70.762V60.472L402.931 60.136V63.804C403.165 63.7013 403.407 63.622 403.659 63.566C403.911 63.51 404.182 63.482 404.471 63.482C404.994 63.482 405.456 63.5753 405.857 63.762C406.259 63.9393 406.595 64.196 406.865 64.532C407.136 64.868 407.341 65.274 407.481 65.75C407.621 66.2167 407.691 66.7393 407.691 67.318ZM411.408 69.502C411.791 69.502 412.062 69.4647 412.22 69.39C412.379 69.3153 412.458 69.1707 412.458 68.956C412.458 68.788 412.356 68.6433 412.15 68.522C411.945 68.3913 411.632 68.2467 411.212 68.088C410.886 67.9667 410.587 67.8407 410.316 67.71C410.055 67.5793 409.831 67.4253 409.644 67.248C409.458 67.0613 409.313 66.842 409.21 66.59C409.108 66.338 409.056 66.0347 409.056 65.68C409.056 64.9893 409.313 64.4433 409.826 64.042C410.34 63.6407 411.044 63.44 411.94 63.44C412.388 63.44 412.818 63.482 413.228 63.566C413.639 63.6407 413.966 63.7247 414.208 63.818L413.844 65.442C413.602 65.358 413.336 65.2833 413.046 65.218C412.766 65.1527 412.449 65.12 412.094 65.12C411.441 65.12 411.114 65.302 411.114 65.666C411.114 65.75 411.128 65.8247 411.156 65.89C411.184 65.9553 411.24 66.0207 411.324 66.086C411.408 66.142 411.52 66.2073 411.66 66.282C411.81 66.3473 411.996 66.422 412.22 66.506C412.678 66.674 413.056 66.842 413.354 67.01C413.653 67.1687 413.886 67.346 414.054 67.542C414.232 67.7287 414.353 67.9387 414.418 68.172C414.493 68.4053 414.53 68.676 414.53 68.984C414.53 69.712 414.255 70.2627 413.704 70.636C413.163 71.0093 412.393 71.196 411.394 71.196C410.741 71.196 410.195 71.14 409.756 71.028C409.327 70.916 409.028 70.8227 408.86 70.748L409.21 69.054C409.565 69.194 409.929 69.306 410.302 69.39C410.676 69.4647 411.044 69.502 411.408 69.502ZM415.739 67.318C415.739 66.786 415.823 66.2867 415.991 65.82C416.169 65.344 416.421 64.9333 416.747 64.588C417.074 64.2333 417.471 63.9533 417.937 63.748C418.404 63.5427 418.936 63.44 419.533 63.44C419.925 63.44 420.285 63.4773 420.611 63.552C420.938 63.6173 421.255 63.7153 421.563 63.846L421.129 65.512C420.933 65.4373 420.719 65.372 420.485 65.316C420.252 65.26 419.991 65.232 419.701 65.232C419.085 65.232 418.623 65.4233 418.315 65.806C418.017 66.1887 417.867 66.6927 417.867 67.318C417.867 67.9807 418.007 68.494 418.287 68.858C418.577 69.222 419.076 69.404 419.785 69.404C420.037 69.404 420.308 69.3807 420.597 69.334C420.887 69.2873 421.153 69.2127 421.395 69.11L421.689 70.818C421.447 70.9207 421.143 71.0093 420.779 71.084C420.415 71.1587 420.014 71.196 419.575 71.196C418.903 71.196 418.325 71.098 417.839 70.902C417.354 70.6967 416.953 70.4213 416.635 70.076C416.327 69.7307 416.099 69.3247 415.949 68.858C415.809 68.382 415.739 67.8687 415.739 67.318ZM427.527 65.484C427.341 65.4373 427.121 65.3907 426.869 65.344C426.617 65.288 426.347 65.26 426.057 65.26C425.927 65.26 425.768 65.274 425.581 65.302C425.404 65.3207 425.269 65.344 425.175 65.372V71H423.089V64.028C423.463 63.8973 423.901 63.776 424.405 63.664C424.919 63.5427 425.488 63.482 426.113 63.482C426.225 63.482 426.361 63.4913 426.519 63.51C426.678 63.5193 426.837 63.538 426.995 63.566C427.154 63.5847 427.313 63.6127 427.471 63.65C427.63 63.678 427.765 63.7153 427.877 63.762L427.527 65.484ZM431.082 71H428.996V63.636H431.082V71ZM431.278 61.508C431.278 61.8907 431.152 62.194 430.9 62.418C430.657 62.6327 430.368 62.74 430.032 62.74C429.696 62.74 429.402 62.6327 429.15 62.418C428.907 62.194 428.786 61.8907 428.786 61.508C428.786 61.1253 428.907 60.8267 429.15 60.612C429.402 60.388 429.696 60.276 430.032 60.276C430.368 60.276 430.657 60.388 430.9 60.612C431.152 60.8267 431.278 61.1253 431.278 61.508ZM437.761 67.374C437.761 66.73 437.616 66.2167 437.327 65.834C437.037 65.442 436.608 65.246 436.039 65.246C435.852 65.246 435.679 65.2553 435.521 65.274C435.362 65.2833 435.231 65.2973 435.129 65.316V69.082C435.259 69.166 435.427 69.236 435.633 69.292C435.847 69.348 436.062 69.376 436.277 69.376C437.266 69.376 437.761 68.7087 437.761 67.374ZM439.889 67.318C439.889 67.8873 439.819 68.4053 439.679 68.872C439.539 69.3387 439.333 69.74 439.062 70.076C438.792 70.412 438.456 70.6733 438.055 70.86C437.653 71.0467 437.191 71.14 436.669 71.14C436.379 71.14 436.109 71.112 435.857 71.056C435.605 71 435.362 70.9207 435.129 70.818V73.59H433.043V63.888C433.229 63.832 433.444 63.7807 433.687 63.734C433.929 63.678 434.181 63.6313 434.443 63.594C434.713 63.5567 434.984 63.5287 435.255 63.51C435.535 63.482 435.801 63.468 436.053 63.468C436.659 63.468 437.201 63.5613 437.677 63.748C438.153 63.9253 438.554 64.182 438.881 64.518C439.207 64.8447 439.455 65.246 439.623 65.722C439.8 66.198 439.889 66.73 439.889 67.318ZM441.422 61.802L443.508 61.466V63.636H446.014V65.372H443.508V67.962C443.508 68.4007 443.582 68.7507 443.732 69.012C443.89 69.2733 444.203 69.404 444.67 69.404C444.894 69.404 445.122 69.3853 445.356 69.348C445.598 69.3013 445.818 69.2407 446.014 69.166L446.308 70.79C446.056 70.8927 445.776 70.9813 445.468 71.056C445.16 71.1307 444.782 71.168 444.334 71.168C443.764 71.168 443.293 71.0933 442.92 70.944C442.546 70.7853 442.248 70.5707 442.024 70.3C441.8 70.02 441.641 69.684 441.548 69.292C441.464 68.9 441.422 68.466 441.422 67.99V61.802ZM449.798 71H447.712V63.636H449.798V71ZM449.994 61.508C449.994 61.8907 449.868 62.194 449.616 62.418C449.374 62.6327 449.084 62.74 448.748 62.74C448.412 62.74 448.118 62.6327 447.866 62.418C447.624 62.194 447.502 61.8907 447.502 61.508C447.502 61.1253 447.624 60.8267 447.866 60.612C448.118 60.388 448.412 60.276 448.748 60.276C449.084 60.276 449.374 60.388 449.616 60.612C449.868 60.8267 449.994 61.1253 449.994 61.508ZM458.647 67.304C458.647 67.8827 458.563 68.4147 458.395 68.9C458.227 69.376 457.985 69.7867 457.667 70.132C457.35 70.468 456.967 70.7293 456.519 70.916C456.081 71.1027 455.586 71.196 455.035 71.196C454.494 71.196 453.999 71.1027 453.551 70.916C453.113 70.7293 452.735 70.468 452.417 70.132C452.1 69.7867 451.853 69.376 451.675 68.9C451.498 68.4147 451.409 67.8827 451.409 67.304C451.409 66.7253 451.498 66.198 451.675 65.722C451.862 65.246 452.114 64.84 452.431 64.504C452.758 64.168 453.141 63.9067 453.579 63.72C454.027 63.5333 454.513 63.44 455.035 63.44C455.567 63.44 456.053 63.5333 456.491 63.72C456.939 63.9067 457.322 64.168 457.639 64.504C457.957 64.84 458.204 65.246 458.381 65.722C458.559 66.198 458.647 66.7253 458.647 67.304ZM456.519 67.304C456.519 66.66 456.389 66.156 456.127 65.792C455.875 65.4187 455.511 65.232 455.035 65.232C454.559 65.232 454.191 65.4187 453.929 65.792C453.668 66.156 453.537 66.66 453.537 67.304C453.537 67.948 453.668 68.4613 453.929 68.844C454.191 69.2173 454.559 69.404 455.035 69.404C455.511 69.404 455.875 69.2173 456.127 68.844C456.389 68.4613 456.519 67.948 456.519 67.304ZM460.263 63.888C460.618 63.7853 461.075 63.692 461.635 63.608C462.195 63.5147 462.783 63.468 463.399 63.468C464.025 63.468 464.543 63.552 464.953 63.72C465.373 63.8787 465.705 64.1073 465.947 64.406C466.19 64.7047 466.363 65.0593 466.465 65.47C466.568 65.8807 466.619 66.338 466.619 66.842V71H464.533V67.094C464.533 66.422 464.445 65.946 464.267 65.666C464.09 65.386 463.759 65.246 463.273 65.246C463.124 65.246 462.965 65.2553 462.797 65.274C462.629 65.2833 462.48 65.2973 462.349 65.316V71H460.263V63.888ZM402.016 81.484C401.829 81.4373 401.61 81.3907 401.358 81.344C401.106 81.288 400.835 81.26 400.546 81.26C400.415 81.26 400.256 81.274 400.07 81.302C399.892 81.3207 399.757 81.344 399.664 81.372V87H397.578V80.028C397.951 79.8973 398.39 79.776 398.894 79.664C399.407 79.5427 399.976 79.482 400.602 79.482C400.714 79.482 400.849 79.4913 401.008 79.51C401.166 79.5193 401.325 79.538 401.484 79.566C401.642 79.5847 401.801 79.6127 401.96 79.65C402.118 79.678 402.254 79.7153 402.366 79.762L402.016 81.484ZM402.997 83.374C402.997 82.7207 403.095 82.1513 403.291 81.666C403.497 81.1713 403.763 80.7607 404.089 80.434C404.416 80.1073 404.789 79.86 405.209 79.692C405.639 79.524 406.077 79.44 406.525 79.44C407.571 79.44 408.397 79.762 409.003 80.406C409.61 81.0407 409.913 81.9787 409.913 83.22C409.913 83.3413 409.909 83.4767 409.899 83.626C409.89 83.766 409.881 83.892 409.871 84.004H405.139C405.186 84.4333 405.387 84.774 405.741 85.026C406.096 85.278 406.572 85.404 407.169 85.404C407.552 85.404 407.925 85.3713 408.289 85.306C408.663 85.2313 408.966 85.1427 409.199 85.04L409.479 86.734C409.367 86.79 409.218 86.846 409.031 86.902C408.845 86.958 408.635 87.0047 408.401 87.042C408.177 87.0887 407.935 87.126 407.673 87.154C407.412 87.182 407.151 87.196 406.889 87.196C406.227 87.196 405.648 87.098 405.153 86.902C404.668 86.706 404.262 86.44 403.935 86.104C403.618 85.7587 403.38 85.3527 403.221 84.886C403.072 84.4193 402.997 83.9153 402.997 83.374ZM407.897 82.576C407.888 82.3987 407.855 82.226 407.799 82.058C407.753 81.89 407.673 81.7407 407.561 81.61C407.459 81.4793 407.323 81.372 407.155 81.288C406.997 81.204 406.796 81.162 406.553 81.162C406.32 81.162 406.119 81.204 405.951 81.288C405.783 81.3627 405.643 81.4653 405.531 81.596C405.419 81.7267 405.331 81.8807 405.265 82.058C405.209 82.226 405.167 82.3987 405.139 82.576H407.897ZM411.523 79.888C411.878 79.7853 412.335 79.692 412.895 79.608C413.455 79.5147 414.043 79.468 414.659 79.468C415.284 79.468 415.802 79.552 416.213 79.72C416.633 79.8787 416.964 80.1073 417.207 80.406C417.45 80.7047 417.622 81.0593 417.725 81.47C417.828 81.8807 417.879 82.338 417.879 82.842V87H415.793V83.094C415.793 82.422 415.704 81.946 415.527 81.666C415.35 81.386 415.018 81.246 414.533 81.246C414.384 81.246 414.225 81.2553 414.057 81.274C413.889 81.2833 413.74 81.2973 413.609 81.316V87H411.523V79.888ZM419.417 83.374C419.417 82.7207 419.515 82.1513 419.711 81.666C419.916 81.1713 420.182 80.7607 420.509 80.434C420.836 80.1073 421.209 79.86 421.629 79.692C422.058 79.524 422.497 79.44 422.945 79.44C423.99 79.44 424.816 79.762 425.423 80.406C426.03 81.0407 426.333 81.9787 426.333 83.22C426.333 83.3413 426.328 83.4767 426.319 83.626C426.31 83.766 426.3 83.892 426.291 84.004H421.559C421.606 84.4333 421.806 84.774 422.161 85.026C422.516 85.278 422.992 85.404 423.589 85.404C423.972 85.404 424.345 85.3713 424.709 85.306C425.082 85.2313 425.386 85.1427 425.619 85.04L425.899 86.734C425.787 86.79 425.638 86.846 425.451 86.902C425.264 86.958 425.054 87.0047 424.821 87.042C424.597 87.0887 424.354 87.126 424.093 87.154C423.832 87.182 423.57 87.196 423.309 87.196C422.646 87.196 422.068 87.098 421.573 86.902C421.088 86.706 420.682 86.44 420.355 86.104C420.038 85.7587 419.8 85.3527 419.641 84.886C419.492 84.4193 419.417 83.9153 419.417 83.374ZM424.317 82.576C424.308 82.3987 424.275 82.226 424.219 82.058C424.172 81.89 424.093 81.7407 423.981 81.61C423.878 81.4793 423.743 81.372 423.575 81.288C423.416 81.204 423.216 81.162 422.973 81.162C422.74 81.162 422.539 81.204 422.371 81.288C422.203 81.3627 422.063 81.4653 421.951 81.596C421.839 81.7267 421.75 81.8807 421.685 82.058C421.629 82.226 421.587 82.3987 421.559 82.576H424.317ZM432.423 82.772C432.236 83.4813 432.036 84.186 431.821 84.886C431.616 85.586 431.396 86.2907 431.163 87H429.539C429.371 86.608 429.189 86.1413 428.993 85.6C428.797 85.0587 428.592 84.4707 428.377 83.836C428.172 83.192 427.957 82.5153 427.733 81.806C427.518 81.0873 427.308 80.364 427.103 79.636H429.301C429.376 79.972 429.455 80.3407 429.539 80.742C429.632 81.134 429.726 81.54 429.819 81.96C429.922 82.38 430.024 82.8047 430.127 83.234C430.239 83.654 430.351 84.06 430.463 84.452C430.584 84.0413 430.701 83.6213 430.813 83.192C430.934 82.7627 431.046 82.3427 431.149 81.932C431.261 81.512 431.364 81.1107 431.457 80.728C431.56 80.336 431.648 79.972 431.723 79.636H433.235C433.31 79.972 433.394 80.336 433.487 80.728C433.58 81.1107 433.678 81.512 433.781 81.932C433.884 82.3427 433.991 82.7627 434.103 83.192C434.215 83.6213 434.332 84.0413 434.453 84.452C434.565 84.06 434.677 83.654 434.789 83.234C434.901 82.8047 435.004 82.38 435.097 81.96C435.2 81.54 435.293 81.134 435.377 80.742C435.47 80.3407 435.554 79.972 435.629 79.636H437.799C437.594 80.364 437.379 81.0873 437.155 81.806C436.94 82.5153 436.726 83.192 436.511 83.836C436.306 84.4707 436.1 85.0587 435.895 85.6C435.699 86.1413 435.517 86.608 435.349 87H433.725C433.492 86.2907 433.263 85.586 433.039 84.886C432.815 84.186 432.61 83.4813 432.423 82.772ZM438.407 83.374C438.407 82.7207 438.505 82.1513 438.701 81.666C438.907 81.1713 439.173 80.7607 439.499 80.434C439.826 80.1073 440.199 79.86 440.619 79.692C441.049 79.524 441.487 79.44 441.935 79.44C442.981 79.44 443.807 79.762 444.413 80.406C445.02 81.0407 445.323 81.9787 445.323 83.22C445.323 83.3413 445.319 83.4767 445.309 83.626C445.3 83.766 445.291 83.892 445.281 84.004H440.549C440.596 84.4333 440.797 84.774 441.151 85.026C441.506 85.278 441.982 85.404 442.579 85.404C442.962 85.404 443.335 85.3713 443.699 85.306C444.073 85.2313 444.376 85.1427 444.609 85.04L444.889 86.734C444.777 86.79 444.628 86.846 444.441 86.902C444.255 86.958 444.045 87.0047 443.811 87.042C443.587 87.0887 443.345 87.126 443.083 87.154C442.822 87.182 442.561 87.196 442.299 87.196C441.637 87.196 441.058 87.098 440.563 86.902C440.078 86.706 439.672 86.44 439.345 86.104C439.028 85.7587 438.79 85.3527 438.631 84.886C438.482 84.4193 438.407 83.9153 438.407 83.374ZM443.307 82.576C443.298 82.3987 443.265 82.226 443.209 82.058C443.163 81.89 443.083 81.7407 442.971 81.61C442.869 81.4793 442.733 81.372 442.565 81.288C442.407 81.204 442.206 81.162 441.963 81.162C441.73 81.162 441.529 81.204 441.361 81.288C441.193 81.3627 441.053 81.4653 440.941 81.596C440.829 81.7267 440.741 81.8807 440.675 82.058C440.619 82.226 440.577 82.3987 440.549 82.576H443.307ZM448.711 83.262C448.711 83.906 448.856 84.424 449.145 84.816C449.434 85.208 449.864 85.404 450.433 85.404C450.62 85.404 450.792 85.3993 450.951 85.39C451.11 85.3713 451.24 85.3527 451.343 85.334V81.54C451.212 81.456 451.04 81.386 450.825 81.33C450.62 81.274 450.41 81.246 450.195 81.246C449.206 81.246 448.711 81.918 448.711 83.262ZM453.429 86.762C453.242 86.818 453.028 86.874 452.785 86.93C452.542 86.9767 452.286 87.0187 452.015 87.056C451.754 87.0933 451.483 87.1213 451.203 87.14C450.932 87.168 450.671 87.182 450.419 87.182C449.812 87.182 449.271 87.0933 448.795 86.916C448.319 86.7387 447.918 86.4867 447.591 86.16C447.264 85.824 447.012 85.4227 446.835 84.956C446.667 84.48 446.583 83.948 446.583 83.36C446.583 82.7627 446.658 82.226 446.807 81.75C446.956 81.2647 447.171 80.854 447.451 80.518C447.731 80.182 448.072 79.9253 448.473 79.748C448.884 79.5707 449.35 79.482 449.873 79.482C450.162 79.482 450.419 79.51 450.643 79.566C450.876 79.622 451.11 79.7013 451.343 79.804V76.472L453.429 76.136V86.762Z" fill="#1A344B"/>
<path d="M515.239 69.334C515.547 69.334 515.799 69.3107 515.995 69.264C516.2 69.208 516.363 69.138 516.485 69.054C516.606 68.9607 516.69 68.8533 516.737 68.732C516.783 68.6107 516.807 68.4753 516.807 68.326C516.807 68.0087 516.657 67.7473 516.359 67.542C516.06 67.3273 515.547 67.0987 514.819 66.856C514.501 66.744 514.184 66.618 513.867 66.478C513.549 66.3287 513.265 66.1467 513.013 65.932C512.761 65.708 512.555 65.442 512.397 65.134C512.238 64.8167 512.159 64.434 512.159 63.986C512.159 63.538 512.243 63.1367 512.411 62.782C512.579 62.418 512.817 62.11 513.125 61.858C513.433 61.606 513.806 61.4147 514.245 61.284C514.683 61.144 515.178 61.074 515.729 61.074C516.382 61.074 516.947 61.144 517.423 61.284C517.899 61.424 518.291 61.578 518.599 61.746L517.969 63.468C517.698 63.328 517.395 63.2067 517.059 63.104C516.732 62.992 516.335 62.936 515.869 62.936C515.346 62.936 514.968 63.0107 514.735 63.16C514.511 63.3 514.399 63.5193 514.399 63.818C514.399 63.9953 514.441 64.1447 514.525 64.266C514.609 64.3873 514.725 64.4993 514.875 64.602C515.033 64.6953 515.211 64.784 515.407 64.868C515.612 64.9427 515.836 65.022 516.079 65.106C516.583 65.2927 517.021 65.4793 517.395 65.666C517.768 65.8433 518.076 66.0533 518.319 66.296C518.571 66.5387 518.757 66.8233 518.879 67.15C519 67.4767 519.061 67.8733 519.061 68.34C519.061 69.2453 518.743 69.95 518.109 70.454C517.474 70.9487 516.517 71.196 515.239 71.196C514.809 71.196 514.422 71.168 514.077 71.112C513.731 71.0653 513.423 71.0047 513.153 70.93C512.891 70.8553 512.663 70.776 512.467 70.692C512.28 70.608 512.121 70.5287 511.991 70.454L512.607 68.718C512.896 68.8767 513.251 69.0213 513.671 69.152C514.1 69.2733 514.623 69.334 515.239 69.334ZM526.887 70.748C526.532 70.8507 526.075 70.944 525.515 71.028C524.955 71.1213 524.367 71.168 523.751 71.168C523.126 71.168 522.603 71.084 522.183 70.916C521.772 70.748 521.446 70.5147 521.203 70.216C520.96 69.908 520.788 69.544 520.685 69.124C520.582 68.704 520.531 68.242 520.531 67.738V63.636H522.617V67.486C522.617 68.158 522.706 68.6433 522.883 68.942C523.06 69.2407 523.392 69.39 523.877 69.39C524.026 69.39 524.185 69.3853 524.353 69.376C524.521 69.3573 524.67 69.3387 524.801 69.32V63.636H526.887V70.748ZM533.563 67.262C533.563 65.918 533.069 65.246 532.079 65.246C531.865 65.246 531.65 65.274 531.435 65.33C531.23 65.386 531.062 65.456 530.931 65.54V69.334C531.034 69.3527 531.165 69.3713 531.323 69.39C531.482 69.3993 531.655 69.404 531.841 69.404C532.411 69.404 532.84 69.208 533.129 68.816C533.419 68.424 533.563 67.906 533.563 67.262ZM535.691 67.318C535.691 67.906 535.603 68.438 535.425 68.914C535.257 69.39 535.01 69.796 534.683 70.132C534.357 70.468 533.955 70.7293 533.479 70.916C533.003 71.0933 532.462 71.182 531.855 71.182C531.603 71.182 531.337 71.168 531.057 71.14C530.787 71.1213 530.516 71.0933 530.245 71.056C529.984 71.0187 529.732 70.9767 529.489 70.93C529.247 70.874 529.032 70.818 528.845 70.762V60.472L530.931 60.136V63.804C531.165 63.7013 531.407 63.622 531.659 63.566C531.911 63.51 532.182 63.482 532.471 63.482C532.994 63.482 533.456 63.5753 533.857 63.762C534.259 63.9393 534.595 64.196 534.865 64.532C535.136 64.868 535.341 65.274 535.481 65.75C535.621 66.2167 535.691 66.7393 535.691 67.318ZM539.408 69.502C539.791 69.502 540.062 69.4647 540.22 69.39C540.379 69.3153 540.458 69.1707 540.458 68.956C540.458 68.788 540.356 68.6433 540.15 68.522C539.945 68.3913 539.632 68.2467 539.212 68.088C538.886 67.9667 538.587 67.8407 538.316 67.71C538.055 67.5793 537.831 67.4253 537.644 67.248C537.458 67.0613 537.313 66.842 537.21 66.59C537.108 66.338 537.056 66.0347 537.056 65.68C537.056 64.9893 537.313 64.4433 537.826 64.042C538.34 63.6407 539.044 63.44 539.94 63.44C540.388 63.44 540.818 63.482 541.228 63.566C541.639 63.6407 541.966 63.7247 542.208 63.818L541.844 65.442C541.602 65.358 541.336 65.2833 541.046 65.218C540.766 65.1527 540.449 65.12 540.094 65.12C539.441 65.12 539.114 65.302 539.114 65.666C539.114 65.75 539.128 65.8247 539.156 65.89C539.184 65.9553 539.24 66.0207 539.324 66.086C539.408 66.142 539.52 66.2073 539.66 66.282C539.81 66.3473 539.996 66.422 540.22 66.506C540.678 66.674 541.056 66.842 541.354 67.01C541.653 67.1687 541.886 67.346 542.054 67.542C542.232 67.7287 542.353 67.9387 542.418 68.172C542.493 68.4053 542.53 68.676 542.53 68.984C542.53 69.712 542.255 70.2627 541.704 70.636C541.163 71.0093 540.393 71.196 539.394 71.196C538.741 71.196 538.195 71.14 537.756 71.028C537.327 70.916 537.028 70.8227 536.86 70.748L537.21 69.054C537.565 69.194 537.929 69.306 538.302 69.39C538.676 69.4647 539.044 69.502 539.408 69.502ZM543.739 67.318C543.739 66.786 543.823 66.2867 543.991 65.82C544.169 65.344 544.421 64.9333 544.747 64.588C545.074 64.2333 545.471 63.9533 545.937 63.748C546.404 63.5427 546.936 63.44 547.533 63.44C547.925 63.44 548.285 63.4773 548.611 63.552C548.938 63.6173 549.255 63.7153 549.563 63.846L549.129 65.512C548.933 65.4373 548.719 65.372 548.485 65.316C548.252 65.26 547.991 65.232 547.701 65.232C547.085 65.232 546.623 65.4233 546.315 65.806C546.017 66.1887 545.867 66.6927 545.867 67.318C545.867 67.9807 546.007 68.494 546.287 68.858C546.577 69.222 547.076 69.404 547.785 69.404C548.037 69.404 548.308 69.3807 548.597 69.334C548.887 69.2873 549.153 69.2127 549.395 69.11L549.689 70.818C549.447 70.9207 549.143 71.0093 548.779 71.084C548.415 71.1587 548.014 71.196 547.575 71.196C546.903 71.196 546.325 71.098 545.839 70.902C545.354 70.6967 544.953 70.4213 544.635 70.076C544.327 69.7307 544.099 69.3247 543.949 68.858C543.809 68.382 543.739 67.8687 543.739 67.318ZM555.527 65.484C555.341 65.4373 555.121 65.3907 554.869 65.344C554.617 65.288 554.347 65.26 554.057 65.26C553.927 65.26 553.768 65.274 553.581 65.302C553.404 65.3207 553.269 65.344 553.175 65.372V71H551.089V64.028C551.463 63.8973 551.901 63.776 552.405 63.664C552.919 63.5427 553.488 63.482 554.113 63.482C554.225 63.482 554.361 63.4913 554.519 63.51C554.678 63.5193 554.837 63.538 554.995 63.566C555.154 63.5847 555.313 63.6127 555.471 63.65C555.63 63.678 555.765 63.7153 555.877 63.762L555.527 65.484ZM559.082 71H556.996V63.636H559.082V71ZM559.278 61.508C559.278 61.8907 559.152 62.194 558.9 62.418C558.657 62.6327 558.368 62.74 558.032 62.74C557.696 62.74 557.402 62.6327 557.15 62.418C556.907 62.194 556.786 61.8907 556.786 61.508C556.786 61.1253 556.907 60.8267 557.15 60.612C557.402 60.388 557.696 60.276 558.032 60.276C558.368 60.276 558.657 60.388 558.9 60.612C559.152 60.8267 559.278 61.1253 559.278 61.508ZM565.761 67.374C565.761 66.73 565.616 66.2167 565.327 65.834C565.037 65.442 564.608 65.246 564.039 65.246C563.852 65.246 563.679 65.2553 563.521 65.274C563.362 65.2833 563.231 65.2973 563.129 65.316V69.082C563.259 69.166 563.427 69.236 563.633 69.292C563.847 69.348 564.062 69.376 564.277 69.376C565.266 69.376 565.761 68.7087 565.761 67.374ZM567.889 67.318C567.889 67.8873 567.819 68.4053 567.679 68.872C567.539 69.3387 567.333 69.74 567.062 70.076C566.792 70.412 566.456 70.6733 566.055 70.86C565.653 71.0467 565.191 71.14 564.669 71.14C564.379 71.14 564.109 71.112 563.857 71.056C563.605 71 563.362 70.9207 563.129 70.818V73.59H561.043V63.888C561.229 63.832 561.444 63.7807 561.687 63.734C561.929 63.678 562.181 63.6313 562.443 63.594C562.713 63.5567 562.984 63.5287 563.255 63.51C563.535 63.482 563.801 63.468 564.053 63.468C564.659 63.468 565.201 63.5613 565.677 63.748C566.153 63.9253 566.554 64.182 566.881 64.518C567.207 64.8447 567.455 65.246 567.623 65.722C567.8 66.198 567.889 66.73 567.889 67.318ZM569.422 61.802L571.508 61.466V63.636H574.014V65.372H571.508V67.962C571.508 68.4007 571.582 68.7507 571.732 69.012C571.89 69.2733 572.203 69.404 572.67 69.404C572.894 69.404 573.122 69.3853 573.356 69.348C573.598 69.3013 573.818 69.2407 574.014 69.166L574.308 70.79C574.056 70.8927 573.776 70.9813 573.468 71.056C573.16 71.1307 572.782 71.168 572.334 71.168C571.764 71.168 571.293 71.0933 570.92 70.944C570.546 70.7853 570.248 70.5707 570.024 70.3C569.8 70.02 569.641 69.684 569.548 69.292C569.464 68.9 569.422 68.466 569.422 67.99V61.802ZM577.798 71H575.712V63.636H577.798V71ZM577.994 61.508C577.994 61.8907 577.868 62.194 577.616 62.418C577.374 62.6327 577.084 62.74 576.748 62.74C576.412 62.74 576.118 62.6327 575.866 62.418C575.624 62.194 575.502 61.8907 575.502 61.508C575.502 61.1253 575.624 60.8267 575.866 60.612C576.118 60.388 576.412 60.276 576.748 60.276C577.084 60.276 577.374 60.388 577.616 60.612C577.868 60.8267 577.994 61.1253 577.994 61.508ZM586.647 67.304C586.647 67.8827 586.563 68.4147 586.395 68.9C586.227 69.376 585.985 69.7867 585.667 70.132C585.35 70.468 584.967 70.7293 584.519 70.916C584.081 71.1027 583.586 71.196 583.035 71.196C582.494 71.196 581.999 71.1027 581.551 70.916C581.113 70.7293 580.735 70.468 580.417 70.132C580.1 69.7867 579.853 69.376 579.675 68.9C579.498 68.4147 579.409 67.8827 579.409 67.304C579.409 66.7253 579.498 66.198 579.675 65.722C579.862 65.246 580.114 64.84 580.431 64.504C580.758 64.168 581.141 63.9067 581.579 63.72C582.027 63.5333 582.513 63.44 583.035 63.44C583.567 63.44 584.053 63.5333 584.491 63.72C584.939 63.9067 585.322 64.168 585.639 64.504C585.957 64.84 586.204 65.246 586.381 65.722C586.559 66.198 586.647 66.7253 586.647 67.304ZM584.519 67.304C584.519 66.66 584.389 66.156 584.127 65.792C583.875 65.4187 583.511 65.232 583.035 65.232C582.559 65.232 582.191 65.4187 581.929 65.792C581.668 66.156 581.537 66.66 581.537 67.304C581.537 67.948 581.668 68.4613 581.929 68.844C582.191 69.2173 582.559 69.404 583.035 69.404C583.511 69.404 583.875 69.2173 584.127 68.844C584.389 68.4613 584.519 67.948 584.519 67.304ZM588.263 63.888C588.618 63.7853 589.075 63.692 589.635 63.608C590.195 63.5147 590.783 63.468 591.399 63.468C592.025 63.468 592.543 63.552 592.953 63.72C593.373 63.8787 593.705 64.1073 593.947 64.406C594.19 64.7047 594.363 65.0593 594.465 65.47C594.568 65.8807 594.619 66.338 594.619 66.842V71H592.533V67.094C592.533 66.422 592.445 65.946 592.267 65.666C592.09 65.386 591.759 65.246 591.273 65.246C591.124 65.246 590.965 65.2553 590.797 65.274C590.629 65.2833 590.48 65.2973 590.349 65.316V71H588.263V63.888ZM530.016 81.484C529.829 81.4373 529.61 81.3907 529.358 81.344C529.106 81.288 528.835 81.26 528.546 81.26C528.415 81.26 528.256 81.274 528.07 81.302C527.892 81.3207 527.757 81.344 527.664 81.372V87H525.578V80.028C525.951 79.8973 526.39 79.776 526.894 79.664C527.407 79.5427 527.976 79.482 528.602 79.482C528.714 79.482 528.849 79.4913 529.008 79.51C529.166 79.5193 529.325 79.538 529.484 79.566C529.642 79.5847 529.801 79.6127 529.96 79.65C530.118 79.678 530.254 79.7153 530.366 79.762L530.016 81.484ZM530.997 83.374C530.997 82.7207 531.095 82.1513 531.291 81.666C531.497 81.1713 531.763 80.7607 532.089 80.434C532.416 80.1073 532.789 79.86 533.209 79.692C533.639 79.524 534.077 79.44 534.525 79.44C535.571 79.44 536.397 79.762 537.003 80.406C537.61 81.0407 537.913 81.9787 537.913 83.22C537.913 83.3413 537.909 83.4767 537.899 83.626C537.89 83.766 537.881 83.892 537.871 84.004H533.139C533.186 84.4333 533.387 84.774 533.741 85.026C534.096 85.278 534.572 85.404 535.169 85.404C535.552 85.404 535.925 85.3713 536.289 85.306C536.663 85.2313 536.966 85.1427 537.199 85.04L537.479 86.734C537.367 86.79 537.218 86.846 537.031 86.902C536.845 86.958 536.635 87.0047 536.401 87.042C536.177 87.0887 535.935 87.126 535.673 87.154C535.412 87.182 535.151 87.196 534.889 87.196C534.227 87.196 533.648 87.098 533.153 86.902C532.668 86.706 532.262 86.44 531.935 86.104C531.618 85.7587 531.38 85.3527 531.221 84.886C531.072 84.4193 530.997 83.9153 530.997 83.374ZM535.897 82.576C535.888 82.3987 535.855 82.226 535.799 82.058C535.753 81.89 535.673 81.7407 535.561 81.61C535.459 81.4793 535.323 81.372 535.155 81.288C534.997 81.204 534.796 81.162 534.553 81.162C534.32 81.162 534.119 81.204 533.951 81.288C533.783 81.3627 533.643 81.4653 533.531 81.596C533.419 81.7267 533.331 81.8807 533.265 82.058C533.209 82.226 533.167 82.3987 533.139 82.576H535.897ZM539.523 79.888C539.878 79.7853 540.335 79.692 540.895 79.608C541.455 79.5147 542.043 79.468 542.659 79.468C543.284 79.468 543.802 79.552 544.213 79.72C544.633 79.8787 544.964 80.1073 545.207 80.406C545.45 80.7047 545.622 81.0593 545.725 81.47C545.828 81.8807 545.879 82.338 545.879 82.842V87H543.793V83.094C543.793 82.422 543.704 81.946 543.527 81.666C543.35 81.386 543.018 81.246 542.533 81.246C542.384 81.246 542.225 81.2553 542.057 81.274C541.889 81.2833 541.74 81.2973 541.609 81.316V87H539.523V79.888ZM547.417 83.374C547.417 82.7207 547.515 82.1513 547.711 81.666C547.916 81.1713 548.182 80.7607 548.509 80.434C548.836 80.1073 549.209 79.86 549.629 79.692C550.058 79.524 550.497 79.44 550.945 79.44C551.99 79.44 552.816 79.762 553.423 80.406C554.03 81.0407 554.333 81.9787 554.333 83.22C554.333 83.3413 554.328 83.4767 554.319 83.626C554.31 83.766 554.3 83.892 554.291 84.004H549.559C549.606 84.4333 549.806 84.774 550.161 85.026C550.516 85.278 550.992 85.404 551.589 85.404C551.972 85.404 552.345 85.3713 552.709 85.306C553.082 85.2313 553.386 85.1427 553.619 85.04L553.899 86.734C553.787 86.79 553.638 86.846 553.451 86.902C553.264 86.958 553.054 87.0047 552.821 87.042C552.597 87.0887 552.354 87.126 552.093 87.154C551.832 87.182 551.57 87.196 551.309 87.196C550.646 87.196 550.068 87.098 549.573 86.902C549.088 86.706 548.682 86.44 548.355 86.104C548.038 85.7587 547.8 85.3527 547.641 84.886C547.492 84.4193 547.417 83.9153 547.417 83.374ZM552.317 82.576C552.308 82.3987 552.275 82.226 552.219 82.058C552.172 81.89 552.093 81.7407 551.981 81.61C551.878 81.4793 551.743 81.372 551.575 81.288C551.416 81.204 551.216 81.162 550.973 81.162C550.74 81.162 550.539 81.204 550.371 81.288C550.203 81.3627 550.063 81.4653 549.951 81.596C549.839 81.7267 549.75 81.8807 549.685 82.058C549.629 82.226 549.587 82.3987 549.559 82.576H552.317ZM560.423 82.772C560.236 83.4813 560.036 84.186 559.821 84.886C559.616 85.586 559.396 86.2907 559.163 87H557.539C557.371 86.608 557.189 86.1413 556.993 85.6C556.797 85.0587 556.592 84.4707 556.377 83.836C556.172 83.192 555.957 82.5153 555.733 81.806C555.518 81.0873 555.308 80.364 555.103 79.636H557.301C557.376 79.972 557.455 80.3407 557.539 80.742C557.632 81.134 557.726 81.54 557.819 81.96C557.922 82.38 558.024 82.8047 558.127 83.234C558.239 83.654 558.351 84.06 558.463 84.452C558.584 84.0413 558.701 83.6213 558.813 83.192C558.934 82.7627 559.046 82.3427 559.149 81.932C559.261 81.512 559.364 81.1107 559.457 80.728C559.56 80.336 559.648 79.972 559.723 79.636H561.235C561.31 79.972 561.394 80.336 561.487 80.728C561.58 81.1107 561.678 81.512 561.781 81.932C561.884 82.3427 561.991 82.7627 562.103 83.192C562.215 83.6213 562.332 84.0413 562.453 84.452C562.565 84.06 562.677 83.654 562.789 83.234C562.901 82.8047 563.004 82.38 563.097 81.96C563.2 81.54 563.293 81.134 563.377 80.742C563.47 80.3407 563.554 79.972 563.629 79.636H565.799C565.594 80.364 565.379 81.0873 565.155 81.806C564.94 82.5153 564.726 83.192 564.511 83.836C564.306 84.4707 564.1 85.0587 563.895 85.6C563.699 86.1413 563.517 86.608 563.349 87H561.725C561.492 86.2907 561.263 85.586 561.039 84.886C560.815 84.186 560.61 83.4813 560.423 82.772ZM566.407 83.374C566.407 82.7207 566.505 82.1513 566.701 81.666C566.907 81.1713 567.173 80.7607 567.499 80.434C567.826 80.1073 568.199 79.86 568.619 79.692C569.049 79.524 569.487 79.44 569.935 79.44C570.981 79.44 571.807 79.762 572.413 80.406C573.02 81.0407 573.323 81.9787 573.323 83.22C573.323 83.3413 573.319 83.4767 573.309 83.626C573.3 83.766 573.291 83.892 573.281 84.004H568.549C568.596 84.4333 568.797 84.774 569.151 85.026C569.506 85.278 569.982 85.404 570.579 85.404C570.962 85.404 571.335 85.3713 571.699 85.306C572.073 85.2313 572.376 85.1427 572.609 85.04L572.889 86.734C572.777 86.79 572.628 86.846 572.441 86.902C572.255 86.958 572.045 87.0047 571.811 87.042C571.587 87.0887 571.345 87.126 571.083 87.154C570.822 87.182 570.561 87.196 570.299 87.196C569.637 87.196 569.058 87.098 568.563 86.902C568.078 86.706 567.672 86.44 567.345 86.104C567.028 85.7587 566.79 85.3527 566.631 84.886C566.482 84.4193 566.407 83.9153 566.407 83.374ZM571.307 82.576C571.298 82.3987 571.265 82.226 571.209 82.058C571.163 81.89 571.083 81.7407 570.971 81.61C570.869 81.4793 570.733 81.372 570.565 81.288C570.407 81.204 570.206 81.162 569.963 81.162C569.73 81.162 569.529 81.204 569.361 81.288C569.193 81.3627 569.053 81.4653 568.941 81.596C568.829 81.7267 568.741 81.8807 568.675 82.058C568.619 82.226 568.577 82.3987 568.549 82.576H571.307ZM576.711 83.262C576.711 83.906 576.856 84.424 577.145 84.816C577.434 85.208 577.864 85.404 578.433 85.404C578.62 85.404 578.792 85.3993 578.951 85.39C579.11 85.3713 579.24 85.3527 579.343 85.334V81.54C579.212 81.456 579.04 81.386 578.825 81.33C578.62 81.274 578.41 81.246 578.195 81.246C577.206 81.246 576.711 81.918 576.711 83.262ZM581.429 86.762C581.242 86.818 581.028 86.874 580.785 86.93C580.542 86.9767 580.286 87.0187 580.015 87.056C579.754 87.0933 579.483 87.1213 579.203 87.14C578.932 87.168 578.671 87.182 578.419 87.182C577.812 87.182 577.271 87.0933 576.795 86.916C576.319 86.7387 575.918 86.4867 575.591 86.16C575.264 85.824 575.012 85.4227 574.835 84.956C574.667 84.48 574.583 83.948 574.583 83.36C574.583 82.7627 574.658 82.226 574.807 81.75C574.956 81.2647 575.171 80.854 575.451 80.518C575.731 80.182 576.072 79.9253 576.473 79.748C576.884 79.5707 577.35 79.482 577.873 79.482C578.162 79.482 578.419 79.51 578.643 79.566C578.876 79.622 579.11 79.7013 579.343 79.804V76.472L581.429 76.136V86.762Z" fill="#1A344B"/>
<path d="M643.239 69.334C643.547 69.334 643.799 69.3107 643.995 69.264C644.2 69.208 644.363 69.138 644.485 69.054C644.606 68.9607 644.69 68.8533 644.737 68.732C644.783 68.6107 644.807 68.4753 644.807 68.326C644.807 68.0087 644.657 67.7473 644.359 67.542C644.06 67.3273 643.547 67.0987 642.819 66.856C642.501 66.744 642.184 66.618 641.867 66.478C641.549 66.3287 641.265 66.1467 641.013 65.932C640.761 65.708 640.555 65.442 640.397 65.134C640.238 64.8167 640.159 64.434 640.159 63.986C640.159 63.538 640.243 63.1367 640.411 62.782C640.579 62.418 640.817 62.11 641.125 61.858C641.433 61.606 641.806 61.4147 642.245 61.284C642.683 61.144 643.178 61.074 643.729 61.074C644.382 61.074 644.947 61.144 645.423 61.284C645.899 61.424 646.291 61.578 646.599 61.746L645.969 63.468C645.698 63.328 645.395 63.2067 645.059 63.104C644.732 62.992 644.335 62.936 643.869 62.936C643.346 62.936 642.968 63.0107 642.735 63.16C642.511 63.3 642.399 63.5193 642.399 63.818C642.399 63.9953 642.441 64.1447 642.525 64.266C642.609 64.3873 642.725 64.4993 642.875 64.602C643.033 64.6953 643.211 64.784 643.407 64.868C643.612 64.9427 643.836 65.022 644.079 65.106C644.583 65.2927 645.021 65.4793 645.395 65.666C645.768 65.8433 646.076 66.0533 646.319 66.296C646.571 66.5387 646.757 66.8233 646.879 67.15C647 67.4767 647.061 67.8733 647.061 68.34C647.061 69.2453 646.743 69.95 646.109 70.454C645.474 70.9487 644.517 71.196 643.239 71.196C642.809 71.196 642.422 71.168 642.077 71.112C641.731 71.0653 641.423 71.0047 641.153 70.93C640.891 70.8553 640.663 70.776 640.467 70.692C640.28 70.608 640.121 70.5287 639.991 70.454L640.607 68.718C640.896 68.8767 641.251 69.0213 641.671 69.152C642.1 69.2733 642.623 69.334 643.239 69.334ZM654.887 70.748C654.532 70.8507 654.075 70.944 653.515 71.028C652.955 71.1213 652.367 71.168 651.751 71.168C651.126 71.168 650.603 71.084 650.183 70.916C649.772 70.748 649.446 70.5147 649.203 70.216C648.96 69.908 648.788 69.544 648.685 69.124C648.582 68.704 648.531 68.242 648.531 67.738V63.636H650.617V67.486C650.617 68.158 650.706 68.6433 650.883 68.942C651.06 69.2407 651.392 69.39 651.877 69.39C652.026 69.39 652.185 69.3853 652.353 69.376C652.521 69.3573 652.67 69.3387 652.801 69.32V63.636H654.887V70.748ZM661.563 67.262C661.563 65.918 661.069 65.246 660.079 65.246C659.865 65.246 659.65 65.274 659.435 65.33C659.23 65.386 659.062 65.456 658.931 65.54V69.334C659.034 69.3527 659.165 69.3713 659.323 69.39C659.482 69.3993 659.655 69.404 659.841 69.404C660.411 69.404 660.84 69.208 661.129 68.816C661.419 68.424 661.563 67.906 661.563 67.262ZM663.691 67.318C663.691 67.906 663.603 68.438 663.425 68.914C663.257 69.39 663.01 69.796 662.683 70.132C662.357 70.468 661.955 70.7293 661.479 70.916C661.003 71.0933 660.462 71.182 659.855 71.182C659.603 71.182 659.337 71.168 659.057 71.14C658.787 71.1213 658.516 71.0933 658.245 71.056C657.984 71.0187 657.732 70.9767 657.489 70.93C657.247 70.874 657.032 70.818 656.845 70.762V60.472L658.931 60.136V63.804C659.165 63.7013 659.407 63.622 659.659 63.566C659.911 63.51 660.182 63.482 660.471 63.482C660.994 63.482 661.456 63.5753 661.857 63.762C662.259 63.9393 662.595 64.196 662.865 64.532C663.136 64.868 663.341 65.274 663.481 65.75C663.621 66.2167 663.691 66.7393 663.691 67.318ZM667.408 69.502C667.791 69.502 668.062 69.4647 668.22 69.39C668.379 69.3153 668.458 69.1707 668.458 68.956C668.458 68.788 668.356 68.6433 668.15 68.522C667.945 68.3913 667.632 68.2467 667.212 68.088C666.886 67.9667 666.587 67.8407 666.316 67.71C666.055 67.5793 665.831 67.4253 665.644 67.248C665.458 67.0613 665.313 66.842 665.21 66.59C665.108 66.338 665.056 66.0347 665.056 65.68C665.056 64.9893 665.313 64.4433 665.826 64.042C666.34 63.6407 667.044 63.44 667.94 63.44C668.388 63.44 668.818 63.482 669.228 63.566C669.639 63.6407 669.966 63.7247 670.208 63.818L669.844 65.442C669.602 65.358 669.336 65.2833 669.046 65.218C668.766 65.1527 668.449 65.12 668.094 65.12C667.441 65.12 667.114 65.302 667.114 65.666C667.114 65.75 667.128 65.8247 667.156 65.89C667.184 65.9553 667.24 66.0207 667.324 66.086C667.408 66.142 667.52 66.2073 667.66 66.282C667.81 66.3473 667.996 66.422 668.22 66.506C668.678 66.674 669.056 66.842 669.354 67.01C669.653 67.1687 669.886 67.346 670.054 67.542C670.232 67.7287 670.353 67.9387 670.418 68.172C670.493 68.4053 670.53 68.676 670.53 68.984C670.53 69.712 670.255 70.2627 669.704 70.636C669.163 71.0093 668.393 71.196 667.394 71.196C666.741 71.196 666.195 71.14 665.756 71.028C665.327 70.916 665.028 70.8227 664.86 70.748L665.21 69.054C665.565 69.194 665.929 69.306 666.302 69.39C666.676 69.4647 667.044 69.502 667.408 69.502ZM671.739 67.318C671.739 66.786 671.823 66.2867 671.991 65.82C672.169 65.344 672.421 64.9333 672.747 64.588C673.074 64.2333 673.471 63.9533 673.937 63.748C674.404 63.5427 674.936 63.44 675.533 63.44C675.925 63.44 676.285 63.4773 676.611 63.552C676.938 63.6173 677.255 63.7153 677.563 63.846L677.129 65.512C676.933 65.4373 676.719 65.372 676.485 65.316C676.252 65.26 675.991 65.232 675.701 65.232C675.085 65.232 674.623 65.4233 674.315 65.806C674.017 66.1887 673.867 66.6927 673.867 67.318C673.867 67.9807 674.007 68.494 674.287 68.858C674.577 69.222 675.076 69.404 675.785 69.404C676.037 69.404 676.308 69.3807 676.597 69.334C676.887 69.2873 677.153 69.2127 677.395 69.11L677.689 70.818C677.447 70.9207 677.143 71.0093 676.779 71.084C676.415 71.1587 676.014 71.196 675.575 71.196C674.903 71.196 674.325 71.098 673.839 70.902C673.354 70.6967 672.953 70.4213 672.635 70.076C672.327 69.7307 672.099 69.3247 671.949 68.858C671.809 68.382 671.739 67.8687 671.739 67.318ZM683.527 65.484C683.341 65.4373 683.121 65.3907 682.869 65.344C682.617 65.288 682.347 65.26 682.057 65.26C681.927 65.26 681.768 65.274 681.581 65.302C681.404 65.3207 681.269 65.344 681.175 65.372V71H679.089V64.028C679.463 63.8973 679.901 63.776 680.405 63.664C680.919 63.5427 681.488 63.482 682.113 63.482C682.225 63.482 682.361 63.4913 682.519 63.51C682.678 63.5193 682.837 63.538 682.995 63.566C683.154 63.5847 683.313 63.6127 683.471 63.65C683.63 63.678 683.765 63.7153 683.877 63.762L683.527 65.484ZM687.082 71H684.996V63.636H687.082V71ZM687.278 61.508C687.278 61.8907 687.152 62.194 686.9 62.418C686.657 62.6327 686.368 62.74 686.032 62.74C685.696 62.74 685.402 62.6327 685.15 62.418C684.907 62.194 684.786 61.8907 684.786 61.508C684.786 61.1253 684.907 60.8267 685.15 60.612C685.402 60.388 685.696 60.276 686.032 60.276C686.368 60.276 686.657 60.388 686.9 60.612C687.152 60.8267 687.278 61.1253 687.278 61.508ZM693.761 67.374C693.761 66.73 693.616 66.2167 693.327 65.834C693.037 65.442 692.608 65.246 692.039 65.246C691.852 65.246 691.679 65.2553 691.521 65.274C691.362 65.2833 691.231 65.2973 691.129 65.316V69.082C691.259 69.166 691.427 69.236 691.633 69.292C691.847 69.348 692.062 69.376 692.277 69.376C693.266 69.376 693.761 68.7087 693.761 67.374ZM695.889 67.318C695.889 67.8873 695.819 68.4053 695.679 68.872C695.539 69.3387 695.333 69.74 695.062 70.076C694.792 70.412 694.456 70.6733 694.055 70.86C693.653 71.0467 693.191 71.14 692.669 71.14C692.379 71.14 692.109 71.112 691.857 71.056C691.605 71 691.362 70.9207 691.129 70.818V73.59H689.043V63.888C689.229 63.832 689.444 63.7807 689.687 63.734C689.929 63.678 690.181 63.6313 690.443 63.594C690.713 63.5567 690.984 63.5287 691.255 63.51C691.535 63.482 691.801 63.468 692.053 63.468C692.659 63.468 693.201 63.5613 693.677 63.748C694.153 63.9253 694.554 64.182 694.881 64.518C695.207 64.8447 695.455 65.246 695.623 65.722C695.8 66.198 695.889 66.73 695.889 67.318ZM697.422 61.802L699.508 61.466V63.636H702.014V65.372H699.508V67.962C699.508 68.4007 699.582 68.7507 699.732 69.012C699.89 69.2733 700.203 69.404 700.67 69.404C700.894 69.404 701.122 69.3853 701.356 69.348C701.598 69.3013 701.818 69.2407 702.014 69.166L702.308 70.79C702.056 70.8927 701.776 70.9813 701.468 71.056C701.16 71.1307 700.782 71.168 700.334 71.168C699.764 71.168 699.293 71.0933 698.92 70.944C698.546 70.7853 698.248 70.5707 698.024 70.3C697.8 70.02 697.641 69.684 697.548 69.292C697.464 68.9 697.422 68.466 697.422 67.99V61.802ZM705.798 71H703.712V63.636H705.798V71ZM705.994 61.508C705.994 61.8907 705.868 62.194 705.616 62.418C705.374 62.6327 705.084 62.74 704.748 62.74C704.412 62.74 704.118 62.6327 703.866 62.418C703.624 62.194 703.502 61.8907 703.502 61.508C703.502 61.1253 703.624 60.8267 703.866 60.612C704.118 60.388 704.412 60.276 704.748 60.276C705.084 60.276 705.374 60.388 705.616 60.612C705.868 60.8267 705.994 61.1253 705.994 61.508ZM714.647 67.304C714.647 67.8827 714.563 68.4147 714.395 68.9C714.227 69.376 713.985 69.7867 713.667 70.132C713.35 70.468 712.967 70.7293 712.519 70.916C712.081 71.1027 711.586 71.196 711.035 71.196C710.494 71.196 709.999 71.1027 709.551 70.916C709.113 70.7293 708.735 70.468 708.417 70.132C708.1 69.7867 707.853 69.376 707.675 68.9C707.498 68.4147 707.409 67.8827 707.409 67.304C707.409 66.7253 707.498 66.198 707.675 65.722C707.862 65.246 708.114 64.84 708.431 64.504C708.758 64.168 709.141 63.9067 709.579 63.72C710.027 63.5333 710.513 63.44 711.035 63.44C711.567 63.44 712.053 63.5333 712.491 63.72C712.939 63.9067 713.322 64.168 713.639 64.504C713.957 64.84 714.204 65.246 714.381 65.722C714.559 66.198 714.647 66.7253 714.647 67.304ZM712.519 67.304C712.519 66.66 712.389 66.156 712.127 65.792C711.875 65.4187 711.511 65.232 711.035 65.232C710.559 65.232 710.191 65.4187 709.929 65.792C709.668 66.156 709.537 66.66 709.537 67.304C709.537 67.948 709.668 68.4613 709.929 68.844C710.191 69.2173 710.559 69.404 711.035 69.404C711.511 69.404 711.875 69.2173 712.127 68.844C712.389 68.4613 712.519 67.948 712.519 67.304ZM716.263 63.888C716.618 63.7853 717.075 63.692 717.635 63.608C718.195 63.5147 718.783 63.468 719.399 63.468C720.025 63.468 720.543 63.552 720.953 63.72C721.373 63.8787 721.705 64.1073 721.947 64.406C722.19 64.7047 722.363 65.0593 722.465 65.47C722.568 65.8807 722.619 66.338 722.619 66.842V71H720.533V67.094C720.533 66.422 720.445 65.946 720.267 65.666C720.09 65.386 719.759 65.246 719.273 65.246C719.124 65.246 718.965 65.2553 718.797 65.274C718.629 65.2833 718.48 65.2973 718.349 65.316V71H716.263V63.888ZM654.953 77.186C656.409 77.186 657.525 77.4473 658.299 77.97C659.074 78.4833 659.461 79.286 659.461 80.378C659.461 81.0593 659.303 81.6147 658.985 82.044C658.677 82.464 658.229 82.7953 657.641 83.038C657.837 83.2807 658.043 83.5607 658.257 83.878C658.472 84.186 658.682 84.5127 658.887 84.858C659.102 85.194 659.307 85.5487 659.503 85.922C659.699 86.286 659.881 86.6453 660.049 87H657.599C657.422 86.6827 657.24 86.3607 657.053 86.034C656.876 85.7073 656.689 85.39 656.493 85.082C656.307 84.774 656.12 84.4847 655.933 84.214C655.747 83.934 655.56 83.682 655.373 83.458H654.295V87H652.111V77.438C652.587 77.3447 653.077 77.2793 653.581 77.242C654.095 77.2047 654.552 77.186 654.953 77.186ZM655.079 79.048C654.921 79.048 654.776 79.0527 654.645 79.062C654.524 79.0713 654.407 79.0807 654.295 79.09V81.722H654.911C655.733 81.722 656.321 81.6193 656.675 81.414C657.03 81.2087 657.207 80.8587 657.207 80.364C657.207 79.888 657.025 79.552 656.661 79.356C656.307 79.1507 655.779 79.048 655.079 79.048ZM660.604 83.374C660.604 82.7207 660.702 82.1513 660.898 81.666C661.103 81.1713 661.369 80.7607 661.696 80.434C662.022 80.1073 662.396 79.86 662.816 79.692C663.245 79.524 663.684 79.44 664.132 79.44C665.177 79.44 666.003 79.762 666.61 80.406C667.216 81.0407 667.52 81.9787 667.52 83.22C667.52 83.3413 667.515 83.4767 667.506 83.626C667.496 83.766 667.487 83.892 667.478 84.004H662.746C662.792 84.4333 662.993 84.774 663.348 85.026C663.702 85.278 664.178 85.404 664.776 85.404C665.158 85.404 665.532 85.3713 665.896 85.306C666.269 85.2313 666.572 85.1427 666.806 85.04L667.086 86.734C666.974 86.79 666.824 86.846 666.638 86.902C666.451 86.958 666.241 87.0047 666.008 87.042C665.784 87.0887 665.541 87.126 665.28 87.154C665.018 87.182 664.757 87.196 664.496 87.196C663.833 87.196 663.254 87.098 662.76 86.902C662.274 86.706 661.868 86.44 661.542 86.104C661.224 85.7587 660.986 85.3527 660.828 84.886C660.678 84.4193 660.604 83.9153 660.604 83.374ZM665.504 82.576C665.494 82.3987 665.462 82.226 665.406 82.058C665.359 81.89 665.28 81.7407 665.168 81.61C665.065 81.4793 664.93 81.372 664.762 81.288C664.603 81.204 664.402 81.162 664.16 81.162C663.926 81.162 663.726 81.204 663.558 81.288C663.39 81.3627 663.25 81.4653 663.138 81.596C663.026 81.7267 662.937 81.8807 662.872 82.058C662.816 82.226 662.774 82.3987 662.746 82.576H665.504ZM669.129 79.888C669.484 79.7853 669.941 79.692 670.501 79.608C671.061 79.5147 671.649 79.468 672.265 79.468C672.891 79.468 673.409 79.552 673.819 79.72C674.239 79.8787 674.571 80.1073 674.813 80.406C675.056 80.7047 675.229 81.0593 675.331 81.47C675.434 81.8807 675.485 82.338 675.485 82.842V87H673.399V83.094C673.399 82.422 673.311 81.946 673.133 81.666C672.956 81.386 672.625 81.246 672.139 81.246C671.99 81.246 671.831 81.2553 671.663 81.274C671.495 81.2833 671.346 81.2973 671.215 81.316V87H669.129V79.888ZM677.024 83.374C677.024 82.7207 677.122 82.1513 677.318 81.666C677.523 81.1713 677.789 80.7607 678.116 80.434C678.442 80.1073 678.816 79.86 679.236 79.692C679.665 79.524 680.104 79.44 680.552 79.44C681.597 79.44 682.423 79.762 683.03 80.406C683.636 81.0407 683.94 81.9787 683.94 83.22C683.94 83.3413 683.935 83.4767 683.926 83.626C683.916 83.766 683.907 83.892 683.898 84.004H679.166C679.212 84.4333 679.413 84.774 679.768 85.026C680.122 85.278 680.598 85.404 681.196 85.404C681.578 85.404 681.952 85.3713 682.316 85.306C682.689 85.2313 682.992 85.1427 683.226 85.04L683.506 86.734C683.394 86.79 683.244 86.846 683.058 86.902C682.871 86.958 682.661 87.0047 682.428 87.042C682.204 87.0887 681.961 87.126 681.7 87.154C681.438 87.182 681.177 87.196 680.916 87.196C680.253 87.196 679.674 87.098 679.18 86.902C678.694 86.706 678.288 86.44 677.962 86.104C677.644 85.7587 677.406 85.3527 677.248 84.886C677.098 84.4193 677.024 83.9153 677.024 83.374ZM681.924 82.576C681.914 82.3987 681.882 82.226 681.826 82.058C681.779 81.89 681.7 81.7407 681.588 81.61C681.485 81.4793 681.35 81.372 681.182 81.288C681.023 81.204 680.822 81.162 680.58 81.162C680.346 81.162 680.146 81.204 679.978 81.288C679.81 81.3627 679.67 81.4653 679.558 81.596C679.446 81.7267 679.357 81.8807 679.292 82.058C679.236 82.226 679.194 82.3987 679.166 82.576H681.924ZM690.029 82.772C689.843 83.4813 689.642 84.186 689.427 84.886C689.222 85.586 689.003 86.2907 688.769 87H687.145C686.977 86.608 686.795 86.1413 686.599 85.6C686.403 85.0587 686.198 84.4707 685.983 83.836C685.778 83.192 685.563 82.5153 685.339 81.806C685.125 81.0873 684.915 80.364 684.709 79.636H686.907C686.982 79.972 687.061 80.3407 687.145 80.742C687.239 81.134 687.332 81.54 687.425 81.96C687.528 82.38 687.631 82.8047 687.733 83.234C687.845 83.654 687.957 84.06 688.069 84.452C688.191 84.0413 688.307 83.6213 688.419 83.192C688.541 82.7627 688.653 82.3427 688.755 81.932C688.867 81.512 688.97 81.1107 689.063 80.728C689.166 80.336 689.255 79.972 689.329 79.636H690.841C690.916 79.972 691 80.336 691.093 80.728C691.187 81.1107 691.285 81.512 691.387 81.932C691.49 82.3427 691.597 82.7627 691.709 83.192C691.821 83.6213 691.938 84.0413 692.059 84.452C692.171 84.06 692.283 83.654 692.395 83.234C692.507 82.8047 692.61 82.38 692.703 81.96C692.806 81.54 692.899 81.134 692.983 80.742C693.077 80.3407 693.161 79.972 693.235 79.636H695.405C695.2 80.364 694.985 81.0873 694.761 81.806C694.547 82.5153 694.332 83.192 694.117 83.836C693.912 84.4707 693.707 85.0587 693.501 85.6C693.305 86.1413 693.123 86.608 692.955 87H691.331C691.098 86.2907 690.869 85.586 690.645 84.886C690.421 84.186 690.216 83.4813 690.029 82.772ZM696.014 83.374C696.014 82.7207 696.112 82.1513 696.308 81.666C696.513 81.1713 696.779 80.7607 697.106 80.434C697.432 80.1073 697.806 79.86 698.226 79.692C698.655 79.524 699.094 79.44 699.542 79.44C700.587 79.44 701.413 79.762 702.02 80.406C702.626 81.0407 702.93 81.9787 702.93 83.22C702.93 83.3413 702.925 83.4767 702.916 83.626C702.906 83.766 702.897 83.892 702.888 84.004H698.156C698.202 84.4333 698.403 84.774 698.758 85.026C699.112 85.278 699.588 85.404 700.186 85.404C700.568 85.404 700.942 85.3713 701.306 85.306C701.679 85.2313 701.982 85.1427 702.216 85.04L702.496 86.734C702.384 86.79 702.234 86.846 702.048 86.902C701.861 86.958 701.651 87.0047 701.418 87.042C701.194 87.0887 700.951 87.126 700.69 87.154C700.428 87.182 700.167 87.196 699.906 87.196C699.243 87.196 698.664 87.098 698.17 86.902C697.684 86.706 697.278 86.44 696.952 86.104C696.634 85.7587 696.396 85.3527 696.238 84.886C696.088 84.4193 696.014 83.9153 696.014 83.374ZM700.914 82.576C700.904 82.3987 700.872 82.226 700.816 82.058C700.769 81.89 700.69 81.7407 700.578 81.61C700.475 81.4793 700.34 81.372 700.172 81.288C700.013 81.204 699.812 81.162 699.57 81.162C699.336 81.162 699.136 81.204 698.968 81.288C698.8 81.3627 698.66 81.4653 698.548 81.596C698.436 81.7267 698.347 81.8807 698.282 82.058C698.226 82.226 698.184 82.3987 698.156 82.576H700.914ZM706.318 83.262C706.318 83.906 706.462 84.424 706.752 84.816C707.041 85.208 707.47 85.404 708.04 85.404C708.226 85.404 708.399 85.3993 708.558 85.39C708.716 85.3713 708.847 85.3527 708.95 85.334V81.54C708.819 81.456 708.646 81.386 708.432 81.33C708.226 81.274 708.016 81.246 707.802 81.246C706.812 81.246 706.318 81.918 706.318 83.262ZM711.036 86.762C710.849 86.818 710.634 86.874 710.392 86.93C710.149 86.9767 709.892 87.0187 709.622 87.056C709.36 87.0933 709.09 87.1213 708.81 87.14C708.539 87.168 708.278 87.182 708.026 87.182C707.419 87.182 706.878 87.0933 706.402 86.916C705.926 86.7387 705.524 86.4867 705.198 86.16C704.871 85.824 704.619 85.4227 704.442 84.956C704.274 84.48 704.19 83.948 704.19 83.36C704.19 82.7627 704.264 82.226 704.414 81.75C704.563 81.2647 704.778 80.854 705.058 80.518C705.338 80.182 705.678 79.9253 706.08 79.748C706.49 79.5707 706.957 79.482 707.48 79.482C707.769 79.482 708.026 79.51 708.25 79.566C708.483 79.622 708.716 79.7013 708.95 79.804V76.472L711.036 76.136V86.762Z" fill="#1A344B"/>
</svg>
