<svg width="290" height="320" viewBox="0 0 290 320" fill="none" xmlns="http://www.w3.org/2000/svg">
    <rect width="290" height="320" fill="white"/>
    <circle cx="30" cy="85" r="30" fill="#B6B6B6"/>
    <path d="M44.3712 92.7556C43.8326 93.9999 43.1951 95.1453 42.4564 96.1984C41.4495 97.634 40.6251 98.6277 39.9897 99.1795C39.0048 100.085 37.9496 100.549 36.8196 100.575C36.0084 100.575 35.03 100.345 33.8913 99.8764C32.7487 99.4103 31.6987 99.1795 30.7387 99.1795C29.7318 99.1795 28.6519 99.4103 27.4969 99.8764C26.34 100.345 25.4081 100.589 24.6956 100.613C23.612 100.659 22.5319 100.182 21.4538 99.1795C20.7656 98.5793 19.905 97.5504 18.8739 96.0928C17.7676 94.5364 16.8581 92.7314 16.1456 90.6737C15.3825 88.451 15 86.2988 15 84.2151C15 81.8282 15.5158 79.7696 16.5488 78.0445C17.3607 76.6588 18.4408 75.5657 19.7926 74.7633C21.1444 73.9609 22.6051 73.552 24.1781 73.5258C25.0388 73.5258 26.1674 73.792 27.5701 74.3153C28.9687 74.8403 29.8668 75.1065 30.2605 75.1065C30.5549 75.1065 31.5525 74.7952 33.2438 74.1746C34.8432 73.599 36.193 73.3607 37.2988 73.4546C40.2953 73.6964 42.5465 74.8776 44.0437 77.0057C41.3638 78.6295 40.0381 80.9038 40.0645 83.8213C40.0887 86.0939 40.9131 87.985 42.5333 89.4865C43.2676 90.1834 44.0876 90.722 45 91.1046C44.8021 91.6784 44.5933 92.228 44.3712 92.7556ZM37.4989 65.7125C37.4989 67.4937 36.8482 69.1568 35.5511 70.6962C33.9858 72.5262 32.0925 73.5836 30.0394 73.4168C30.0132 73.2031 29.998 72.9782 29.998 72.7418C29.998 71.0319 30.7424 69.2019 32.0643 67.7056C32.7243 66.948 33.5637 66.3181 34.5816 65.8156C35.5972 65.3206 36.558 65.0469 37.4615 65C37.4879 65.2381 37.4989 65.4763 37.4989 65.7125V65.7125Z" fill="white"/>
    <path d="M29.5 115V144.5C29.5 150.023 33.9772 154.5 39.5 154.5H150" stroke="#B6B6B6" stroke-dasharray="4 4"/>
    <path fill-rule="evenodd" clip-rule="evenodd" d="M30 265C46.5685 265 60 251.569 60 235C60 218.431 46.5685 205 30 205C13.4315 205 0 218.431 0 235C0 251.569 13.4315 265 30 265ZM43.0764 221.042L39.7583 226.968C45.4844 230.165 49.3599 236.136 50 243.127H10C10.6401 236.136 14.5156 230.165 20.2373 226.968L16.9192 221.042C16.732 220.71 16.8408 220.288 17.1631 220.094C17.4853 219.901 17.8946 220.014 18.0819 220.346L21.4435 226.349C24.0083 225.141 26.8953 224.467 30 224.467C33.1047 224.467 35.9917 225.141 38.5565 226.349L41.9181 220.346C42.101 220.014 42.5147 219.901 42.8326 220.094C43.1504 220.288 43.2637 220.71 43.0764 221.042ZM19.14 235.607C19.14 236.558 19.889 237.335 20.8165 237.335C21.744 237.335 22.4973 236.558 22.4929 235.607C22.4929 234.655 21.744 233.878 20.8165 233.878C19.8933 233.878 19.14 234.65 19.14 235.607ZM37.5027 235.607C37.5027 236.558 38.2517 237.335 39.1792 237.335C40.1067 237.335 40.86 236.558 40.8556 235.607C40.8556 234.655 40.1067 233.878 39.1792 233.878C38.256 233.878 37.5027 234.65 37.5027 235.607Z" fill="#32DE84"/>
    <path d="M29.5 205V174.5C29.5 168.977 33.9772 164.5 39.5 164.5H149.5" stroke="#32DE84" stroke-dasharray="4 4"/>
    <circle opacity="0.25" cx="142" cy="160" r="79.5" stroke="#ABD7FF"/>
    <circle opacity="0.4" cx="142" cy="160" r="59.5" stroke="#ABD7FF"/>
    <circle cx="142" cy="160" r="39.5" fill="white" stroke="#ABD7FF"/>
    <path d="M128.5 169.9L142 156.4L155.5 169.9" stroke="#0085FF" stroke-width="3.6"/>
    <circle cx="142" cy="160" r="16.2" stroke="#0085FF" stroke-width="3.6"/>
    <path d="M286 152V144C286 141.794 284.208 140 282 140H250C247.794 140 246 141.794 246 144V152H286ZM278 144C279.104 144 280 144.894 280 146C280 147.106 279.104 148 278 148C276.894 148 276 147.106 276 146C276 144.894 276.894 144 278 144ZM272 144C273.104 144 274 144.894 274 146C274 147.106 273.104 148 272 148C270.894 148 270 147.106 270 146C270 144.894 270.894 144 272 144ZM252 144H262V148H252V144Z" fill="#97ADC6"/>
    <path d="M286 166V154H246V166H286ZM278 158C279.106 158 280 158.894 280 160C280 161.106 279.106 162 278 162C276.894 162 276 161.106 276 160C276 158.894 276.894 158 278 158ZM272 158C273.106 158 274 158.894 274 160C274 161.106 273.106 162 272 162C270.894 162 270 161.106 270 160C270 158.894 270.894 158 272 158ZM262 158V162H252V158H262Z" fill="#0085FF"/>
    <path d="M246 168V176C246 178.206 247.794 180 250 180H282C284.208 180 286 178.206 286 176V168H246ZM262 176H252V172H262V176ZM272 176C270.894 176 270 175.106 270 174C270 172.894 270.894 172 272 172C273.104 172 274 172.894 274 174C274 175.106 273.104 176 272 176ZM278 176C276.894 176 276 175.106 276 174C276 172.894 276.894 172 278 172C279.104 172 280 172.894 280 174C280 175.106 279.104 176 278 176Z" fill="#1A344B"/>
    <path d="M182 159.5H246" stroke="#0085FF" stroke-dasharray="4 4"/>
</svg>
