<svg width="64" height="64" viewBox="0 0 64 64" fill="none" xmlns="http://www.w3.org/2000/svg">
<path d="M46.2479 9.26691L35.7574 19.7574L37.1716 26.8284L44.2427 28.2427L54.7331 17.7522L54.7342 17.7518C56.0326 20.8168 56.3432 24.2105 55.6226 27.4603C54.902 30.7101 53.1861 33.6545 50.7138 35.8834C48.2414 38.1124 45.1357 39.5151 41.8288 39.8963C38.5219 40.2775 35.1785 39.6182 32.2639 38.0102L32.2642 38.0096L18.2427 54.2427C17.1172 55.3668 15.5914 55.9981 14.0007 55.9976C12.41 55.9971 10.8846 55.365 9.7598 54.2402C8.635 53.1154 8.00289 51.59 8.00244 49.9993C8.00199 48.4086 8.63323 46.8828 9.75739 45.7574L25.9902 31.736L25.9899 31.7362C24.3819 28.8216 23.7226 25.4781 24.1038 22.1713C24.4849 18.8644 25.8876 15.7586 28.1166 13.2863C30.3456 10.814 33.2899 9.09807 36.5397 8.37747C39.7896 7.65687 43.1832 7.96742 46.2483 9.26589L46.2479 9.26691Z" stroke="#990031" stroke-width="3" stroke-linecap="round" stroke-linejoin="round"/>
</svg>
