<svg width="64" height="64" viewBox="0 0 64 64" fill="none" xmlns="http://www.w3.org/2000/svg">
<path d="M24 38H40" stroke="#990031" stroke-width="3" stroke-linecap="round" stroke-linejoin="round"/>
<path d="M24 30H40" stroke="#990031" stroke-width="3" stroke-linecap="round" stroke-linejoin="round"/>
<path d="M40.0005 10H50C50.5304 10 51.0391 10.2107 51.4142 10.5858C51.7893 10.9609 52 11.4696 52 12V54C52 54.5304 51.7893 55.0391 51.4142 55.4142C51.0391 55.7893 50.5304 56 50 56H14C13.4696 56 12.9609 55.7893 12.5858 55.4142C12.2107 55.0391 12 54.5304 12 54V12C12 11.4696 12.2107 10.9609 12.5858 10.5858C12.9609 10.2107 13.4696 10 14 10H23.9995" stroke="#990031" stroke-width="3" stroke-linecap="round" stroke-linejoin="round"/>
<path d="M22 18V16C22 13.3478 23.0536 10.8043 24.9289 8.92893C26.8043 7.05357 29.3478 6 32 6C34.6522 6 37.1957 7.05357 39.0711 8.92893C40.9464 10.8043 42 13.3478 42 16V18H22Z" stroke="#990031" stroke-width="3" stroke-linecap="round" stroke-linejoin="round"/>
</svg>
