<svg width="64" height="64" viewBox="0 0 64 64" fill="none" xmlns="http://www.w3.org/2000/svg">
<path d="M4 30H60" stroke="#990031" stroke-width="3" stroke-linecap="round" stroke-linejoin="round"/>
<path d="M54 54H48C47.4696 54 46.9609 53.7893 46.5858 53.4142C46.2107 53.0391 46 52.5304 46 52V46H18V52C18 52.5304 17.7893 53.0391 17.4142 53.4142C17.0391 53.7893 16.5304 54 16 54H10C9.46957 54 8.96086 53.7893 8.58579 53.4142C8.21071 53.0391 8 52.5304 8 52V30L15.4721 13.1877C15.6292 12.8342 15.8855 12.5338 16.2099 12.323C16.5343 12.1122 16.9129 12 17.2997 12H46.7002C47.0871 12 47.4657 12.1122 47.7901 12.323C48.1145 12.5338 48.3708 12.8342 48.5279 13.1877L56 30V52C56 52.5304 55.7893 53.0391 55.4142 53.4142C55.0391 53.7893 54.5304 54 54 54Z" stroke="#990031" stroke-width="3" stroke-linecap="round" stroke-linejoin="round"/>
</svg>
