<svg width="540" height="189" viewBox="0 0 540 189" fill="none" xmlns="http://www.w3.org/2000/svg">
<rect x="5" y="5" width="530" height="179" fill="#F3F4F6"/>
<rect x="10" y="10" width="148" height="40" fill="#E4E7ED"/>
<path d="M49.328 35V27.213H46.26V26.329H53.319V27.213H50.264V35H49.328ZM53.705 35V29.033C53.809 28.9897 54.0084 28.916 54.303 28.812C54.6064 28.708 54.966 28.6127 55.382 28.526C55.8067 28.4393 56.2444 28.396 56.695 28.396C56.7644 28.396 56.8337 28.4047 56.903 28.422C56.9724 28.4393 57.0417 28.4567 57.111 28.474V29.306C56.8857 29.28 56.6647 29.267 56.448 29.267C56.24 29.267 56.0364 29.28 55.837 29.306C55.6377 29.3233 55.4384 29.3493 55.239 29.384C55.0397 29.4187 54.8404 29.4533 54.641 29.488V35H53.705ZM60.8414 35.195C60.5554 35.195 60.2651 35.1647 59.9704 35.104C59.6844 35.0433 59.4158 34.9393 59.1644 34.792C58.9218 34.6447 58.7224 34.4453 58.5664 34.194C58.4191 33.934 58.3454 33.609 58.3454 33.219C58.3454 32.6817 58.4451 32.2527 58.6444 31.932C58.8524 31.6027 59.1341 31.3687 59.4894 31.23C59.8534 31.0827 60.2694 31.009 60.7374 31.009C61.0928 31.009 61.4004 31.0307 61.6604 31.074C61.9204 31.1173 62.1501 31.1823 62.3494 31.269C62.5574 31.347 62.7438 31.438 62.9084 31.542L63.0904 32.4C62.8911 32.2527 62.6008 32.127 62.2194 32.023C61.8468 31.9103 61.4351 31.854 60.9844 31.854C60.4384 31.854 60.0181 31.958 59.7234 32.166C59.4288 32.374 59.2814 32.6773 59.2814 33.076C59.2814 33.3967 59.3681 33.6523 59.5414 33.843C59.7234 34.0337 59.9488 34.168 60.2174 34.246C60.4948 34.324 60.7764 34.363 61.0624 34.363C61.6258 34.363 62.0504 34.324 62.3364 34.246C62.6311 34.1593 62.7784 33.9687 62.7784 33.674V30.697C62.7784 30.1943 62.6311 29.826 62.3364 29.592C62.0418 29.358 61.6214 29.241 61.0754 29.241C60.7288 29.241 60.3604 29.293 59.9704 29.397C59.5891 29.4923 59.2598 29.6483 58.9824 29.865V28.929C59.2511 28.7557 59.6108 28.6257 60.0614 28.539C60.5121 28.4437 60.9498 28.396 61.3744 28.396C61.6604 28.396 61.9248 28.4263 62.1674 28.487C62.4101 28.539 62.6268 28.6213 62.8174 28.734C63.0081 28.838 63.1684 28.9767 63.2984 29.15C63.4371 29.3147 63.5411 29.5097 63.6104 29.735C63.6884 29.9517 63.7274 30.1987 63.7274 30.476V33.622C63.7274 34.0813 63.5888 34.4237 63.3114 34.649C63.0428 34.8743 62.6874 35.0217 62.2454 35.091C61.8121 35.1603 61.3441 35.195 60.8414 35.195ZM68.5207 35.104C68.174 35.104 67.8187 35.0607 67.4547 34.974C67.0993 34.8787 66.77 34.714 66.4667 34.48C66.172 34.2373 65.9337 33.895 65.7517 33.453C65.5697 33.011 65.4787 32.4433 65.4787 31.75C65.4787 31.0567 65.5697 30.4933 65.7517 30.06C65.9337 29.618 66.172 29.2757 66.4667 29.033C66.77 28.7903 67.0993 28.6257 67.4547 28.539C67.8187 28.4437 68.174 28.396 68.5207 28.396C68.85 28.396 69.175 28.4263 69.4957 28.487C69.825 28.5477 70.1413 28.6387 70.4447 28.76V29.657C70.1587 29.5357 69.864 29.4447 69.5607 29.384C69.2573 29.3233 68.9453 29.293 68.6247 29.293C67.8533 29.293 67.29 29.488 66.9347 29.878C66.588 30.268 66.4147 30.892 66.4147 31.75C66.4147 32.6167 66.588 33.245 66.9347 33.635C67.29 34.0163 67.8533 34.207 68.6247 34.207C68.9453 34.207 69.2573 34.1767 69.5607 34.116C69.864 34.0553 70.1587 33.9643 70.4447 33.843V34.753C70.1413 34.8657 69.825 34.9523 69.4957 35.013C69.175 35.0737 68.85 35.104 68.5207 35.104ZM72.9301 31.113L75.7771 28.513H76.9471L73.1381 31.88L72.9301 31.113ZM73.1381 35H72.2021V26.043H73.1381V35ZM73.3981 30.957L77.4151 35H76.1671L72.7611 31.555L73.3981 30.957ZM80.9358 35.195C80.3204 35.195 79.7874 35.0693 79.3368 34.818C78.8861 34.558 78.5394 34.1723 78.2968 33.661C78.0541 33.1497 77.9328 32.5127 77.9328 31.75C77.9328 30.632 78.1841 29.7957 78.6868 29.241C79.1981 28.6777 79.8958 28.396 80.7798 28.396C81.4731 28.396 82.0278 28.552 82.4438 28.864C82.8684 29.176 83.1718 29.5963 83.3538 30.125C83.5358 30.6537 83.6224 31.2517 83.6138 31.919H78.4008L78.4658 31.061H83.0028L82.6388 31.191C82.6128 30.541 82.4481 30.0557 82.1448 29.735C81.8501 29.4143 81.3951 29.254 80.7798 29.254C80.3551 29.254 79.9998 29.332 79.7138 29.488C79.4364 29.644 79.2284 29.917 79.0898 30.307C78.9511 30.6883 78.8818 31.2257 78.8818 31.919C78.8818 32.7077 79.0638 33.31 79.4278 33.726C79.8004 34.1333 80.3204 34.337 80.9878 34.337C81.3084 34.337 81.6031 34.3153 81.8718 34.272C82.1404 34.22 82.3874 34.1507 82.6128 34.064C82.8381 33.9773 83.0374 33.882 83.2108 33.778V34.74C82.8988 34.8873 82.5521 35 82.1708 35.078C81.7981 35.156 81.3864 35.195 80.9358 35.195ZM85.3671 35V29.033C85.4711 28.9897 85.6705 28.916 85.9651 28.812C86.2685 28.708 86.6281 28.6127 87.0441 28.526C87.4688 28.4393 87.9065 28.396 88.3571 28.396C88.4265 28.396 88.4958 28.4047 88.5651 28.422C88.6345 28.4393 88.7038 28.4567 88.7731 28.474V29.306C88.5478 29.28 88.3268 29.267 88.1101 29.267C87.9021 29.267 87.6985 29.28 87.4991 29.306C87.2998 29.3233 87.1005 29.3493 86.9011 29.384C86.7018 29.4187 86.5025 29.4533 86.3031 29.488V35H85.3671Z" fill="#454F76"/>
<path fill-rule="evenodd" clip-rule="evenodd" d="M28.9985 32.0015C28.1631 32.6285 27.1249 33 26 33C23.2386 33 21 30.7614 21 28C21 25.2386 23.2386 23 26 23C28.7614 23 31 25.2386 31 28C31 29.1249 30.6285 30.1631 30.0015 30.9985L28.9985 32.0015ZM29.4765 32.8907C28.4957 33.5892 27.2958 34 26 34C22.6863 34 20 31.3137 20 28C20 24.6863 22.6863 22 26 22C29.3137 22 32 24.6863 32 28C32 29.2958 31.5892 30.4957 30.8907 31.4765L35.7071 36.2929L34.2929 37.7071L29.4765 32.8907Z" fill="#96A1BD"/>
<rect x="161" y="10" width="121" height="40" fill="#E9ECF0"/>
<path d="M201.864 27.538H199.069V26.329H206.102V27.538H203.294V35H201.864V27.538ZM206.512 29.072C206.754 28.9247 207.166 28.7643 207.747 28.591C208.327 28.4177 208.904 28.331 209.476 28.331C209.822 28.331 210.117 28.3873 210.36 28.5V29.592C210.117 29.5573 209.827 29.54 209.489 29.54C208.917 29.54 208.379 29.5833 207.877 29.67V35H206.512V29.072ZM211.704 26.199H213.16V27.434H211.704V26.199ZM211.743 28.513H213.108L213.121 35H211.743V28.513ZM217.902 28.331C218.613 28.331 219.215 28.5043 219.709 28.851C220.212 29.189 220.459 29.7393 220.45 30.502V33.622C220.45 34.2113 220.19 34.623 219.67 34.857C219.15 35.0823 218.409 35.195 217.447 35.195C216.676 35.195 216.039 35.0347 215.536 34.714C215.033 34.3933 214.782 33.856 214.782 33.102C214.782 32.3913 214.986 31.8583 215.393 31.503C215.809 31.1477 216.394 30.97 217.148 30.97C217.928 30.97 218.578 31.126 219.098 31.438V30.814C219.098 29.93 218.565 29.488 217.499 29.488C217.118 29.488 216.736 29.5487 216.355 29.67C215.974 29.7827 215.657 29.943 215.406 30.151V28.877C215.649 28.721 216 28.591 216.459 28.487C216.927 28.383 217.408 28.331 217.902 28.331ZM217.603 34.129C218.149 34.129 218.535 34.09 218.76 34.012C218.985 33.934 219.098 33.778 219.098 33.544V32.283C218.656 32.0923 218.171 31.997 217.642 31.997C217.148 31.997 216.771 32.0837 216.511 32.257C216.26 32.4303 216.134 32.6903 216.134 33.037C216.134 33.401 216.277 33.674 216.563 33.856C216.858 34.038 217.204 34.129 217.603 34.129ZM222.381 35V26.004H223.733V35H222.381ZM232.068 35.156C231.452 35.156 230.937 35.104 230.521 35C230.105 34.8873 229.663 34.7097 229.195 34.467V33.037C229.533 33.3143 229.944 33.5397 230.43 33.713C230.924 33.8777 231.439 33.96 231.977 33.96C232.505 33.96 232.904 33.8517 233.173 33.635C233.441 33.4183 233.576 33.1107 233.576 32.712C233.576 32.4433 233.498 32.2223 233.342 32.049C233.186 31.8757 232.991 31.7327 232.757 31.62C232.523 31.5073 232.193 31.373 231.769 31.217L231.483 31.113C231.006 30.9483 230.612 30.7793 230.3 30.606C229.996 30.4327 229.741 30.1857 229.533 29.865C229.325 29.5443 229.221 29.1327 229.221 28.63C229.221 28.214 229.325 27.8197 229.533 27.447C229.741 27.0743 230.066 26.771 230.508 26.537C230.95 26.2943 231.504 26.173 232.172 26.173C232.657 26.173 233.06 26.2207 233.381 26.316C233.71 26.4027 234.1 26.5543 234.551 26.771V28.175C234.109 27.8977 233.727 27.694 233.407 27.564C233.086 27.4253 232.705 27.356 232.263 27.356C231.751 27.356 231.361 27.46 231.093 27.668C230.824 27.876 230.69 28.149 230.69 28.487C230.69 28.773 230.763 29.007 230.911 29.189C231.058 29.3623 231.249 29.5053 231.483 29.618C231.725 29.722 232.072 29.8477 232.523 29.995C233.051 30.1683 233.489 30.3503 233.836 30.541C234.191 30.723 234.481 30.9787 234.707 31.308C234.932 31.6287 235.045 32.0403 235.045 32.543C235.045 33.0197 234.936 33.4573 234.72 33.856C234.512 34.246 234.182 34.5623 233.732 34.805C233.29 35.039 232.735 35.156 232.068 35.156ZM239.016 35.169C238.418 35.169 237.95 35.0087 237.612 34.688C237.274 34.3673 237.105 33.9123 237.105 33.323V29.605H236.052V28.474H237.105V26.654H238.509V28.474H240.095V29.605H238.509V33.05C238.509 33.3707 238.565 33.6047 238.678 33.752C238.79 33.8907 238.99 33.96 239.276 33.96C239.414 33.96 239.557 33.9427 239.705 33.908C239.861 33.8647 239.991 33.8127 240.095 33.752V34.961C239.791 35.0997 239.432 35.169 239.016 35.169ZM244.499 28.331C245.209 28.331 245.812 28.5043 246.306 28.851C246.808 29.189 247.055 29.7393 247.047 30.502V33.622C247.047 34.2113 246.787 34.623 246.267 34.857C245.747 35.0823 245.006 35.195 244.044 35.195C243.272 35.195 242.635 35.0347 242.133 34.714C241.63 34.3933 241.379 33.856 241.379 33.102C241.379 32.3913 241.582 31.8583 241.99 31.503C242.406 31.1477 242.991 30.97 243.745 30.97C244.525 30.97 245.175 31.126 245.695 31.438V30.814C245.695 29.93 245.162 29.488 244.096 29.488C243.714 29.488 243.333 29.5487 242.952 29.67C242.57 29.7827 242.254 29.943 242.003 30.151V28.877C242.245 28.721 242.596 28.591 243.056 28.487C243.524 28.383 244.005 28.331 244.499 28.331ZM244.2 34.129C244.746 34.129 245.131 34.09 245.357 34.012C245.582 33.934 245.695 33.778 245.695 33.544V32.283C245.253 32.0923 244.767 31.997 244.239 31.997C243.745 31.997 243.368 32.0837 243.108 32.257C242.856 32.4303 242.731 32.6903 242.731 33.037C242.731 33.401 242.874 33.674 243.16 33.856C243.454 34.038 243.801 34.129 244.2 34.129ZM248.978 29.072C249.22 28.9247 249.632 28.7643 250.213 28.591C250.793 28.4177 251.37 28.331 251.942 28.331C252.288 28.331 252.583 28.3873 252.826 28.5V29.592C252.583 29.5573 252.293 29.54 251.955 29.54C251.383 29.54 250.845 29.5833 250.343 29.67V35H248.978V29.072ZM256.497 35.169C255.899 35.169 255.431 35.0087 255.093 34.688C254.755 34.3673 254.586 33.9123 254.586 33.323V29.605H253.533V28.474H254.586V26.654H255.99V28.474H257.576V29.605H255.99V33.05C255.99 33.3707 256.046 33.6047 256.159 33.752C256.272 33.8907 256.471 33.96 256.757 33.96C256.896 33.96 257.039 33.9427 257.186 33.908C257.342 33.8647 257.472 33.8127 257.576 33.752V34.961C257.273 35.0997 256.913 35.169 256.497 35.169ZM261.85 28.318C262.864 28.318 263.605 28.6473 264.073 29.306C264.55 29.956 264.784 30.8703 264.775 32.049H260.199C260.243 32.6903 260.429 33.18 260.758 33.518C261.096 33.8473 261.573 34.012 262.188 34.012C262.587 34.012 262.968 33.9643 263.332 33.869C263.696 33.765 264.017 33.635 264.294 33.479V34.753C263.618 35.0477 262.843 35.195 261.967 35.195C260.988 35.195 260.217 34.9003 259.653 34.311C259.099 33.713 258.821 32.868 258.821 31.776C258.821 30.658 259.086 29.8043 259.614 29.215C260.143 28.617 260.888 28.318 261.85 28.318ZM261.811 29.436C261.352 29.436 260.992 29.5573 260.732 29.8C260.472 30.0427 260.303 30.4543 260.225 31.035H263.384C263.324 30.4803 263.168 30.0773 262.916 29.826C262.665 29.566 262.297 29.436 261.811 29.436ZM272.039 25.744V33.622C272.039 33.9687 271.896 34.2633 271.61 34.506C271.324 34.74 270.964 34.9133 270.531 35.026C270.097 35.1387 269.651 35.195 269.192 35.195C268.264 35.195 267.502 34.935 266.904 34.415C266.306 33.8863 266.007 32.9677 266.007 31.659C266.007 30.6103 266.262 29.7913 266.774 29.202C267.285 28.6127 268.043 28.318 269.049 28.318C269.283 28.318 269.551 28.3483 269.855 28.409C270.167 28.4697 270.444 28.5607 270.687 28.682V25.744H272.039ZM270.687 29.865C270.479 29.7437 270.245 29.6527 269.985 29.592C269.733 29.5227 269.486 29.488 269.244 29.488C268.013 29.488 267.398 30.2203 267.398 31.685C267.398 32.413 267.536 32.985 267.814 33.401C268.091 33.8083 268.576 34.012 269.27 34.012C269.668 34.012 270.002 33.9643 270.271 33.869C270.548 33.7737 270.687 33.648 270.687 33.492V29.865Z" fill="#454F76"/>
<rect x="285" y="10" width="121" height="40" fill="#E4E7ED"/>
<path d="M307.951 27.538H305.156V26.329H312.189V27.538H309.381V35H307.951V27.538ZM312.599 29.072C312.841 28.9247 313.253 28.7643 313.834 28.591C314.414 28.4177 314.991 28.331 315.563 28.331C315.909 28.331 316.204 28.3873 316.447 28.5V29.592C316.204 29.5573 315.914 29.54 315.576 29.54C315.004 29.54 314.466 29.5833 313.964 29.67V35H312.599V29.072ZM317.791 26.199H319.247V27.434H317.791V26.199ZM317.83 28.513H319.195L319.208 35H317.83V28.513ZM323.989 28.331C324.7 28.331 325.302 28.5043 325.796 28.851C326.299 29.189 326.546 29.7393 326.537 30.502V33.622C326.537 34.2113 326.277 34.623 325.757 34.857C325.237 35.0823 324.496 35.195 323.534 35.195C322.763 35.195 322.126 35.0347 321.623 34.714C321.12 34.3933 320.869 33.856 320.869 33.102C320.869 32.3913 321.073 31.8583 321.48 31.503C321.896 31.1477 322.481 30.97 323.235 30.97C324.015 30.97 324.665 31.126 325.185 31.438V30.814C325.185 29.93 324.652 29.488 323.586 29.488C323.205 29.488 322.823 29.5487 322.442 29.67C322.061 29.7827 321.744 29.943 321.493 30.151V28.877C321.736 28.721 322.087 28.591 322.546 28.487C323.014 28.383 323.495 28.331 323.989 28.331ZM323.69 34.129C324.236 34.129 324.622 34.09 324.847 34.012C325.072 33.934 325.185 33.778 325.185 33.544V32.283C324.743 32.0923 324.258 31.997 323.729 31.997C323.235 31.997 322.858 32.0837 322.598 32.257C322.347 32.4303 322.221 32.6903 322.221 33.037C322.221 33.401 322.364 33.674 322.65 33.856C322.945 34.038 323.291 34.129 323.69 34.129ZM328.468 35V26.004H329.82V35H328.468ZM339.221 35.13C336.473 35.13 335.1 33.6393 335.1 30.658C335.1 27.6767 336.473 26.186 339.221 26.186C340.113 26.186 341.01 26.3983 341.912 26.823V28.11C341.08 27.6247 340.243 27.382 339.403 27.382C338.432 27.382 337.717 27.642 337.258 28.162C336.807 28.682 336.582 29.5183 336.582 30.671C336.582 31.8237 336.811 32.6557 337.271 33.167C337.73 33.6697 338.454 33.921 339.442 33.921C340.291 33.921 341.114 33.687 341.912 33.219V34.506C341.513 34.7053 341.075 34.8613 340.599 34.974C340.131 35.078 339.671 35.13 339.221 35.13ZM346.358 35.195C345.318 35.195 344.533 34.9003 344.005 34.311C343.485 33.7217 343.225 32.8637 343.225 31.737C343.225 29.4577 344.265 28.318 346.345 28.318C347.393 28.318 348.182 28.6127 348.711 29.202C349.239 29.7827 349.504 30.6277 349.504 31.737C349.504 32.8463 349.231 33.7 348.685 34.298C348.139 34.896 347.363 35.195 346.358 35.195ZM346.345 34.038C347.541 34.038 348.139 33.271 348.139 31.737C348.139 30.9743 347.996 30.4067 347.71 30.034C347.424 29.6527 346.969 29.462 346.345 29.462C345.712 29.462 345.257 29.657 344.98 30.047C344.711 30.4283 344.577 30.9917 344.577 31.737C344.577 32.4823 344.715 33.0543 344.993 33.453C345.279 33.843 345.729 34.038 346.345 34.038ZM351.078 29.007C351.468 28.8077 351.941 28.6473 352.495 28.526C353.059 28.396 353.596 28.331 354.107 28.331C355.017 28.331 355.689 28.5217 356.122 28.903C356.556 29.2843 356.772 29.878 356.772 30.684V35H355.407V30.866C355.407 29.956 354.892 29.501 353.86 29.501C353.366 29.501 352.894 29.5833 352.443 29.748V35H351.078V29.007ZM364.886 28.474L362.13 35H360.765L358.022 28.474H359.491L361.558 33.505L363.469 28.474H364.886ZM368.483 28.318C369.497 28.318 370.238 28.6473 370.706 29.306C371.183 29.956 371.417 30.8703 371.408 32.049H366.832C366.875 32.6903 367.062 33.18 367.391 33.518C367.729 33.8473 368.206 34.012 368.821 34.012C369.22 34.012 369.601 33.9643 369.965 33.869C370.329 33.765 370.65 33.635 370.927 33.479V34.753C370.251 35.0477 369.475 35.195 368.6 35.195C367.621 35.195 366.849 34.9003 366.286 34.311C365.731 33.713 365.454 32.868 365.454 31.776C365.454 30.658 365.718 29.8043 366.247 29.215C366.776 28.617 367.521 28.318 368.483 28.318ZM368.444 29.436C367.985 29.436 367.625 29.5573 367.365 29.8C367.105 30.0427 366.936 30.4543 366.858 31.035H370.017C369.956 30.4803 369.8 30.0773 369.549 29.826C369.298 29.566 368.929 29.436 368.444 29.436ZM372.978 29.072C373.22 28.9247 373.632 28.7643 374.213 28.591C374.793 28.4177 375.37 28.331 375.942 28.331C376.288 28.331 376.583 28.3873 376.826 28.5V29.592C376.583 29.5573 376.293 29.54 375.955 29.54C375.383 29.54 374.845 29.5833 374.343 29.67V35H372.978V29.072ZM380.497 35.169C379.899 35.169 379.431 35.0087 379.093 34.688C378.755 34.3673 378.586 33.9123 378.586 33.323V29.605H377.533V28.474H378.586V26.654H379.99V28.474H381.576V29.605H379.99V33.05C379.99 33.3707 380.046 33.6047 380.159 33.752C380.272 33.8907 380.471 33.96 380.757 33.96C380.896 33.96 381.039 33.9427 381.186 33.908C381.342 33.8647 381.472 33.8127 381.576 33.752V34.961C381.273 35.0997 380.913 35.169 380.497 35.169ZM385.85 28.318C386.864 28.318 387.605 28.6473 388.073 29.306C388.55 29.956 388.784 30.8703 388.775 32.049H384.199C384.243 32.6903 384.429 33.18 384.758 33.518C385.096 33.8473 385.573 34.012 386.188 34.012C386.587 34.012 386.968 33.9643 387.332 33.869C387.696 33.765 388.017 33.635 388.294 33.479V34.753C387.618 35.0477 386.843 35.195 385.967 35.195C384.988 35.195 384.217 34.9003 383.653 34.311C383.099 33.713 382.821 32.868 382.821 31.776C382.821 30.658 383.086 29.8043 383.614 29.215C384.143 28.617 384.888 28.318 385.85 28.318ZM385.811 29.436C385.352 29.436 384.992 29.5573 384.732 29.8C384.472 30.0427 384.303 30.4543 384.225 31.035H387.384C387.324 30.4803 387.168 30.0773 386.916 29.826C386.665 29.566 386.297 29.436 385.811 29.436ZM396.039 25.744V33.622C396.039 33.9687 395.896 34.2633 395.61 34.506C395.324 34.74 394.964 34.9133 394.531 35.026C394.097 35.1387 393.651 35.195 393.192 35.195C392.264 35.195 391.502 34.935 390.904 34.415C390.306 33.8863 390.007 32.9677 390.007 31.659C390.007 30.6103 390.262 29.7913 390.774 29.202C391.285 28.6127 392.043 28.318 393.049 28.318C393.283 28.318 393.551 28.3483 393.855 28.409C394.167 28.4697 394.444 28.5607 394.687 28.682V25.744H396.039ZM394.687 29.865C394.479 29.7437 394.245 29.6527 393.985 29.592C393.733 29.5227 393.486 29.488 393.244 29.488C392.013 29.488 391.398 30.2203 391.398 31.685C391.398 32.413 391.536 32.985 391.814 33.401C392.091 33.8083 392.576 34.012 393.27 34.012C393.668 34.012 394.002 33.9643 394.271 33.869C394.548 33.7737 394.687 33.648 394.687 33.492V29.865Z" fill="#454F76"/>
<rect x="409" y="10" width="121" height="40" fill="#E4E7ED"/>
<path d="M449.458 27.538H446.663V26.329H453.696V27.538H450.888V35H449.458V27.538ZM454.106 29.072C454.348 28.9247 454.76 28.7643 455.341 28.591C455.921 28.4177 456.498 28.331 457.07 28.331C457.416 28.331 457.711 28.3873 457.954 28.5V29.592C457.711 29.5573 457.421 29.54 457.083 29.54C456.511 29.54 455.973 29.5833 455.471 29.67V35H454.106V29.072ZM459.298 26.199H460.754V27.434H459.298V26.199ZM459.337 28.513H460.702L460.715 35H459.337V28.513ZM465.496 28.331C466.207 28.331 466.809 28.5043 467.303 28.851C467.806 29.189 468.053 29.7393 468.044 30.502V33.622C468.044 34.2113 467.784 34.623 467.264 34.857C466.744 35.0823 466.003 35.195 465.041 35.195C464.27 35.195 463.633 35.0347 463.13 34.714C462.627 34.3933 462.376 33.856 462.376 33.102C462.376 32.3913 462.58 31.8583 462.987 31.503C463.403 31.1477 463.988 30.97 464.742 30.97C465.522 30.97 466.172 31.126 466.692 31.438V30.814C466.692 29.93 466.159 29.488 465.093 29.488C464.712 29.488 464.33 29.5487 463.949 29.67C463.568 29.7827 463.251 29.943 463 30.151V28.877C463.243 28.721 463.594 28.591 464.053 28.487C464.521 28.383 465.002 28.331 465.496 28.331ZM465.197 34.129C465.743 34.129 466.129 34.09 466.354 34.012C466.579 33.934 466.692 33.778 466.692 33.544V32.283C466.25 32.0923 465.765 31.997 465.236 31.997C464.742 31.997 464.365 32.0837 464.105 32.257C463.854 32.4303 463.728 32.6903 463.728 33.037C463.728 33.401 463.871 33.674 464.157 33.856C464.452 34.038 464.798 34.129 465.197 34.129ZM469.975 35V26.004H471.327V35H469.975ZM479.635 28.318C480.649 28.318 481.39 28.6473 481.858 29.306C482.335 29.956 482.569 30.8703 482.56 32.049H477.984C478.028 32.6903 478.214 33.18 478.543 33.518C478.881 33.8473 479.358 34.012 479.973 34.012C480.372 34.012 480.753 33.9643 481.117 33.869C481.481 33.765 481.802 33.635 482.079 33.479V34.753C481.403 35.0477 480.628 35.195 479.752 35.195C478.773 35.195 478.002 34.9003 477.438 34.311C476.884 33.713 476.606 32.868 476.606 31.776C476.606 30.658 476.871 29.8043 477.399 29.215C477.928 28.617 478.673 28.318 479.635 28.318ZM479.596 29.436C479.137 29.436 478.777 29.5573 478.517 29.8C478.257 30.0427 478.088 30.4543 478.01 31.035H481.169C481.109 30.4803 480.953 30.0773 480.701 29.826C480.45 29.566 480.082 29.436 479.596 29.436ZM487.614 31.711L490.006 35H488.342L486.691 32.712L485.027 35H483.545L485.989 31.75L483.61 28.474H485.261L486.912 30.736L488.537 28.474H490.032L487.614 31.711ZM494.226 28.318C495.171 28.318 495.929 28.5953 496.501 29.15C497.082 29.7047 497.372 30.606 497.372 31.854C497.372 32.8767 497.108 33.687 496.579 34.285C496.05 34.883 495.309 35.182 494.356 35.182C494.122 35.182 493.853 35.1517 493.55 35.091C493.247 35.0303 492.974 34.9393 492.731 34.818V37.613H491.379V29.735C491.379 29.241 491.656 28.8813 492.211 28.656C492.774 28.4307 493.446 28.318 494.226 28.318ZM494.109 34.025C494.724 34.025 495.188 33.8387 495.5 33.466C495.821 33.0847 495.981 32.5387 495.981 31.828C495.981 31.0913 495.847 30.5193 495.578 30.112C495.318 29.7047 494.85 29.501 494.174 29.501C493.741 29.501 493.39 29.5487 493.121 29.644C492.861 29.7393 492.731 29.8693 492.731 30.034V33.648C493.156 33.8993 493.615 34.025 494.109 34.025ZM498.958 26.199H500.414V27.434H498.958V26.199ZM498.997 28.513H500.362L500.375 35H498.997V28.513ZM502.335 29.072C502.578 28.9247 502.989 28.7643 503.57 28.591C504.151 28.4177 504.727 28.331 505.299 28.331C505.646 28.331 505.94 28.3873 506.183 28.5V29.592C505.94 29.5573 505.65 29.54 505.312 29.54C504.74 29.54 504.203 29.5833 503.7 29.67V35H502.335V29.072ZM509.85 28.318C510.864 28.318 511.605 28.6473 512.073 29.306C512.55 29.956 512.784 30.8703 512.775 32.049H508.199C508.243 32.6903 508.429 33.18 508.758 33.518C509.096 33.8473 509.573 34.012 510.188 34.012C510.587 34.012 510.968 33.9643 511.332 33.869C511.696 33.765 512.017 33.635 512.294 33.479V34.753C511.618 35.0477 510.843 35.195 509.967 35.195C508.988 35.195 508.217 34.9003 507.653 34.311C507.099 33.713 506.821 32.868 506.821 31.776C506.821 30.658 507.086 29.8043 507.614 29.215C508.143 28.617 508.888 28.318 509.85 28.318ZM509.811 29.436C509.352 29.436 508.992 29.5573 508.732 29.8C508.472 30.0427 508.303 30.4543 508.225 31.035H511.384C511.324 30.4803 511.168 30.0773 510.916 29.826C510.665 29.566 510.297 29.436 509.811 29.436ZM520.039 25.744V33.622C520.039 33.9687 519.896 34.2633 519.61 34.506C519.324 34.74 518.964 34.9133 518.531 35.026C518.097 35.1387 517.651 35.195 517.192 35.195C516.264 35.195 515.502 34.935 514.904 34.415C514.306 33.8863 514.007 32.9677 514.007 31.659C514.007 30.6103 514.262 29.7913 514.774 29.202C515.285 28.6127 516.043 28.318 517.049 28.318C517.283 28.318 517.551 28.3483 517.855 28.409C518.167 28.4697 518.444 28.5607 518.687 28.682V25.744H520.039ZM518.687 29.865C518.479 29.7437 518.245 29.6527 517.985 29.592C517.733 29.5227 517.486 29.488 517.244 29.488C516.013 29.488 515.398 30.2203 515.398 31.685C515.398 32.413 515.536 32.985 515.814 33.401C516.091 33.8083 516.576 34.012 517.27 34.012C517.668 34.012 518.002 33.9643 518.271 33.869C518.548 33.7737 518.687 33.648 518.687 33.492V29.865Z" fill="#454F76"/>
<rect x="10" y="53" width="148" height="40" fill="#E4E7ED"/>
<path d="M24.308 78.12C23.516 78.12 22.852 77.968 22.316 77.664C21.788 77.352 21.388 76.892 21.116 76.284C20.852 75.676 20.72 74.916 20.72 74.004C20.72 72.644 21.02 71.62 21.62 70.932C22.228 70.236 23.124 69.888 24.308 69.888C25.108 69.888 25.772 70.044 26.3 70.356C26.836 70.66 27.236 71.116 27.5 71.724C27.772 72.332 27.908 73.092 27.908 74.004C27.908 75.364 27.604 76.392 26.996 77.088C26.396 77.776 25.5 78.12 24.308 78.12ZM24.308 77.304C24.94 77.304 25.456 77.188 25.856 76.956C26.256 76.724 26.548 76.364 26.732 75.876C26.924 75.388 27.02 74.764 27.02 74.004C27.02 73.244 26.924 72.624 26.732 72.144C26.548 71.656 26.256 71.296 25.856 71.064C25.456 70.824 24.94 70.704 24.308 70.704C23.684 70.704 23.172 70.824 22.772 71.064C22.372 71.296 22.076 71.656 21.884 72.144C21.7 72.624 21.608 73.244 21.608 74.004C21.608 74.764 21.7 75.388 21.884 75.876C22.076 76.364 22.372 76.724 22.772 76.956C23.172 77.188 23.684 77.304 24.308 77.304ZM29.585 78V72.492C29.681 72.452 29.865 72.384 30.137 72.288C30.417 72.192 30.749 72.104 31.133 72.024C31.525 71.944 31.929 71.904 32.345 71.904C32.409 71.904 32.473 71.912 32.537 71.928C32.601 71.944 32.665 71.96 32.729 71.976V72.744C32.521 72.72 32.317 72.708 32.117 72.708C31.925 72.708 31.737 72.72 31.553 72.744C31.369 72.76 31.185 72.784 31.001 72.816C30.817 72.848 30.633 72.88 30.449 72.912V78H29.585ZM36.5444 78.18C35.9284 78.18 35.4164 78.06 35.0084 77.82C34.6084 77.572 34.3084 77.224 34.1084 76.776C33.9084 76.32 33.8084 75.784 33.8084 75.168C33.8084 74.48 33.9004 73.924 34.0844 73.5C34.2684 73.068 34.5044 72.74 34.7924 72.516C35.0884 72.284 35.4084 72.128 35.7524 72.048C36.1044 71.96 36.4444 71.916 36.7724 71.916C37.1484 71.916 37.5044 71.968 37.8404 72.072C38.1844 72.168 38.4644 72.324 38.6804 72.54C38.9044 72.756 39.0164 73.044 39.0164 73.404V78.252C39.0164 78.492 38.9804 78.736 38.9084 78.984C38.8364 79.232 38.7044 79.46 38.5124 79.668C38.3284 79.884 38.0644 80.056 37.7204 80.184C37.3844 80.312 36.9484 80.376 36.4124 80.376C36.0684 80.376 35.7524 80.344 35.4644 80.28C35.1764 80.216 34.9244 80.156 34.7084 80.1V79.284C34.8364 79.316 34.9804 79.352 35.1404 79.392C35.3084 79.44 35.4884 79.48 35.6804 79.512C35.8804 79.544 36.0924 79.56 36.3164 79.56C36.8604 79.56 37.2604 79.492 37.5164 79.356C37.7804 79.228 37.9524 79.064 38.0324 78.864C38.1124 78.672 38.1524 78.476 38.1524 78.276V77.4L38.4524 77.7C38.3004 77.78 38.1084 77.856 37.8764 77.928C37.6444 78 37.4084 78.06 37.1684 78.108C36.9284 78.156 36.7204 78.18 36.5444 78.18ZM36.5444 77.388C36.8004 77.388 37.0684 77.356 37.3484 77.292C37.6364 77.22 37.9044 77.112 38.1524 76.968V73.524C38.1524 73.3 38.0884 73.132 37.9604 73.02C37.8404 72.9 37.6764 72.82 37.4684 72.78C37.2604 72.732 37.0364 72.708 36.7964 72.708C36.2124 72.708 35.7724 72.824 35.4764 73.056C35.1804 73.28 34.9804 73.58 34.8764 73.956C34.7724 74.332 34.7204 74.736 34.7204 75.168C34.7204 75.824 34.8604 76.36 35.1404 76.776C35.4204 77.184 35.8884 77.388 36.5444 77.388ZM43.0045 78.18C42.7405 78.18 42.4725 78.152 42.2005 78.096C41.9365 78.04 41.6885 77.944 41.4565 77.808C41.2325 77.672 41.0485 77.488 40.9045 77.256C40.7685 77.016 40.7005 76.716 40.7005 76.356C40.7005 75.86 40.7925 75.464 40.9765 75.168C41.1685 74.864 41.4285 74.648 41.7565 74.52C42.0925 74.384 42.4765 74.316 42.9085 74.316C43.2365 74.316 43.5205 74.336 43.7605 74.376C44.0005 74.416 44.2125 74.476 44.3965 74.556C44.5885 74.628 44.7605 74.712 44.9125 74.808L45.0805 75.6C44.8965 75.464 44.6285 75.348 44.2765 75.252C43.9325 75.148 43.5525 75.096 43.1365 75.096C42.6325 75.096 42.2445 75.192 41.9725 75.384C41.7005 75.576 41.5645 75.856 41.5645 76.224C41.5645 76.52 41.6445 76.756 41.8045 76.932C41.9725 77.108 42.1805 77.232 42.4285 77.304C42.6845 77.376 42.9445 77.412 43.2085 77.412C43.7285 77.412 44.1205 77.376 44.3845 77.304C44.6565 77.224 44.7925 77.048 44.7925 76.776V74.028C44.7925 73.564 44.6565 73.224 44.3845 73.008C44.1125 72.792 43.7245 72.684 43.2205 72.684C42.9005 72.684 42.5605 72.732 42.2005 72.828C41.8485 72.916 41.5445 73.06 41.2885 73.26V72.396C41.5365 72.236 41.8685 72.116 42.2845 72.036C42.7005 71.948 43.1045 71.904 43.4965 71.904C43.7605 71.904 44.0045 71.932 44.2285 71.988C44.4525 72.036 44.6525 72.112 44.8285 72.216C45.0045 72.312 45.1525 72.44 45.2725 72.6C45.4005 72.752 45.4965 72.932 45.5605 73.14C45.6325 73.34 45.6685 73.568 45.6685 73.824V76.728C45.6685 77.152 45.5405 77.468 45.2845 77.676C45.0365 77.884 44.7085 78.02 44.3005 78.084C43.9005 78.148 43.4685 78.18 43.0045 78.18ZM47.585 72.492C47.777 72.396 47.973 72.312 48.173 72.24C48.381 72.16 48.589 72.096 48.797 72.048C49.013 72 49.229 71.964 49.445 71.94C49.669 71.916 49.893 71.904 50.117 71.904C50.701 71.904 51.165 71.992 51.509 72.168C51.853 72.336 52.101 72.584 52.253 72.912C52.413 73.24 52.493 73.636 52.493 74.1V78H51.629V74.1C51.629 73.956 51.609 73.804 51.569 73.644C51.537 73.484 51.469 73.332 51.365 73.188C51.261 73.036 51.101 72.916 50.885 72.828C50.669 72.732 50.381 72.684 50.021 72.684C49.773 72.684 49.517 72.704 49.253 72.744C48.989 72.784 48.721 72.844 48.449 72.924V78H47.585V72.492ZM54.465 78V72.012H55.329V78H54.465ZM54.417 70.944V69.996H55.377V70.944H54.417ZM59.8078 78.096C59.4878 78.096 59.1598 78.056 58.8238 77.976C58.4958 77.888 58.1918 77.736 57.9118 77.52C57.6398 77.296 57.4198 76.98 57.2518 76.572C57.0838 76.164 56.9998 75.64 56.9998 75C56.9998 74.36 57.0838 73.84 57.2518 73.44C57.4198 73.032 57.6398 72.716 57.9118 72.492C58.1918 72.268 58.4958 72.116 58.8238 72.036C59.1598 71.948 59.4878 71.904 59.8078 71.904C60.1118 71.904 60.4118 71.932 60.7078 71.988C61.0118 72.044 61.3038 72.128 61.5838 72.24V73.068C61.3198 72.956 61.0478 72.872 60.7678 72.816C60.4878 72.76 60.1998 72.732 59.9038 72.732C59.1918 72.732 58.6718 72.912 58.3438 73.272C58.0238 73.632 57.8638 74.208 57.8638 75C57.8638 75.8 58.0238 76.38 58.3438 76.74C58.6718 77.092 59.1918 77.268 59.9038 77.268C60.1998 77.268 60.4878 77.24 60.7678 77.184C61.0478 77.128 61.3198 77.044 61.5838 76.932V77.772C61.3038 77.876 61.0118 77.956 60.7078 78.012C60.4118 78.068 60.1118 78.096 59.8078 78.096Z" fill="#252525"/>
<rect x="161" y="53" width="121" height="40" fill="white"/>
<path d="M254.968 78V70.304L253.239 71.448V70.343L254.838 69.329H255.904V78H254.968ZM258.767 78V77.181C259.061 76.9643 259.399 76.6957 259.781 76.375C260.171 76.0543 260.561 75.7033 260.951 75.322C261.349 74.932 261.713 74.529 262.043 74.113C262.381 73.6883 262.654 73.268 262.862 72.852C263.07 72.436 263.174 72.0373 263.174 71.656C263.174 71.422 263.122 71.1923 263.018 70.967C262.914 70.733 262.714 70.538 262.42 70.382C262.125 70.226 261.696 70.148 261.133 70.148C260.613 70.148 260.158 70.2347 259.768 70.408C259.386 70.5813 259.083 70.746 258.858 70.902V69.875C259.135 69.7017 259.469 69.55 259.859 69.42C260.257 69.2813 260.708 69.212 261.211 69.212C261.921 69.212 262.489 69.3333 262.914 69.576C263.338 69.8187 263.642 70.1263 263.824 70.499C264.014 70.8717 264.11 71.2573 264.11 71.656C264.11 72.046 264.01 72.4533 263.811 72.878C263.62 73.3027 263.364 73.7273 263.044 74.152C262.732 74.5767 262.385 74.9883 262.004 75.387C261.622 75.7857 261.241 76.1583 260.86 76.505C260.478 76.843 260.132 77.1377 259.82 77.389L259.547 77.064H264.24V78H258.767ZM270.025 78V75.4H265.813V74.399L269.908 69.329H270.961V74.529H272.196V75.4H270.961V78H270.025ZM266.853 74.529H270.025V70.668L266.853 74.529Z" fill="#252525"/>
<rect x="285" y="53" width="121" height="40" fill="#FBFCFC"/>
<path d="M385.765 78.104C385.21 78.104 384.742 78.026 384.361 77.87C383.979 77.7053 383.672 77.493 383.438 77.233C383.204 76.9643 383.03 76.674 382.918 76.362C382.814 76.05 382.762 75.738 382.762 75.426C382.762 75.0273 382.835 74.6937 382.983 74.425C383.139 74.1477 383.312 73.931 383.503 73.775C383.702 73.6103 383.875 73.4933 384.023 73.424C384.179 73.3547 384.257 73.32 384.257 73.32C384.257 73.32 384.196 73.2897 384.075 73.229C383.962 73.1597 383.828 73.0513 383.672 72.904C383.516 72.7567 383.377 72.566 383.256 72.332C383.143 72.0893 383.087 71.799 383.087 71.461C383.087 71.097 383.173 70.7417 383.347 70.395C383.52 70.0483 383.802 69.7667 384.192 69.55C384.59 69.3247 385.115 69.212 385.765 69.212C386.423 69.212 386.948 69.3247 387.338 69.55C387.728 69.7667 388.009 70.0483 388.183 70.395C388.356 70.7417 388.443 71.097 388.443 71.461C388.443 71.8077 388.386 72.1023 388.274 72.345C388.161 72.579 388.027 72.7697 387.871 72.917C387.723 73.0557 387.593 73.1553 387.481 73.216C387.368 73.2767 387.312 73.307 387.312 73.307C387.312 73.307 387.385 73.346 387.533 73.424C387.68 73.4933 387.849 73.6103 388.04 73.775C388.23 73.9397 388.399 74.1563 388.547 74.425C388.694 74.6937 388.768 75.0273 388.768 75.426C388.768 75.738 388.716 76.05 388.612 76.362C388.508 76.674 388.339 76.9643 388.105 77.233C387.871 77.493 387.559 77.7053 387.169 77.87C386.787 78.026 386.319 78.104 385.765 78.104ZM385.765 77.22C386.25 77.22 386.631 77.1507 386.909 77.012C387.186 76.8647 387.39 76.687 387.52 76.479C387.65 76.271 387.732 76.0717 387.767 75.881C387.81 75.6817 387.832 75.53 387.832 75.426C387.832 75.0793 387.749 74.789 387.585 74.555C387.429 74.3123 387.199 74.1303 386.896 74.009C386.592 73.879 386.215 73.814 385.765 73.814C385.323 73.814 384.946 73.879 384.634 74.009C384.33 74.1303 384.096 74.3123 383.932 74.555C383.776 74.789 383.698 75.0793 383.698 75.426C383.698 75.53 383.715 75.6817 383.75 75.881C383.793 76.0717 383.88 76.271 384.01 76.479C384.148 76.687 384.356 76.8647 384.634 77.012C384.911 77.1507 385.288 77.22 385.765 77.22ZM385.765 72.956C386.129 72.956 386.441 72.8953 386.701 72.774C386.961 72.6527 387.16 72.4837 387.299 72.267C387.437 72.0417 387.507 71.773 387.507 71.461C387.507 71.0883 387.416 70.811 387.234 70.629C387.052 70.4383 386.826 70.3083 386.558 70.239C386.298 70.1697 386.033 70.135 385.765 70.135C385.505 70.135 385.24 70.1697 384.972 70.239C384.703 70.3083 384.478 70.4383 384.296 70.629C384.114 70.811 384.023 71.0883 384.023 71.461C384.023 71.773 384.092 72.0417 384.231 72.267C384.369 72.4837 384.569 72.6527 384.829 72.774C385.089 72.8953 385.401 72.956 385.765 72.956ZM391.563 78L395.45 69.966L395.541 70.265H390.445V69.329H396.36V70.2L392.603 78H391.563Z" fill="#252525"/>
<rect x="409" y="53" width="121" height="40" fill="white"/>
<path d="M509.323 78.104C508.846 78.104 508.413 78.052 508.023 77.948C507.642 77.8353 507.304 77.7053 507.009 77.558V76.596C507.278 76.7433 507.594 76.8777 507.958 76.999C508.331 77.1117 508.747 77.168 509.206 77.168C509.977 77.168 510.567 77.025 510.974 76.739C511.381 76.453 511.585 76.0413 511.585 75.504C511.585 74.9667 511.377 74.555 510.961 74.269C510.545 73.983 509.943 73.84 509.154 73.84H508.205V72.943H509.193C509.826 72.943 510.307 72.826 510.636 72.592C510.974 72.3493 511.143 72.0027 511.143 71.552C511.143 71.2487 511.065 70.993 510.909 70.785C510.753 70.577 510.519 70.421 510.207 70.317C509.904 70.2043 509.531 70.148 509.089 70.148C508.699 70.148 508.348 70.1957 508.036 70.291C507.724 70.3777 507.451 70.4817 507.217 70.603V69.654C507.477 69.5327 507.772 69.4287 508.101 69.342C508.43 69.2553 508.794 69.212 509.193 69.212C509.73 69.212 510.181 69.2813 510.545 69.42C510.918 69.55 511.217 69.7277 511.442 69.953C511.667 70.1783 511.828 70.4297 511.923 70.707C512.027 70.9843 512.079 71.266 512.079 71.552C512.079 71.8727 512.023 72.1457 511.91 72.371C511.797 72.5963 511.667 72.7783 511.52 72.917C511.373 73.0557 511.243 73.1553 511.13 73.216C511.017 73.2767 510.961 73.307 510.961 73.307C510.961 73.307 511.039 73.3503 511.195 73.437C511.351 73.515 511.533 73.645 511.741 73.827C511.949 74.0003 512.131 74.23 512.287 74.516C512.443 74.7933 512.521 75.1313 512.521 75.53C512.521 75.842 512.465 76.1497 512.352 76.453C512.239 76.7563 512.057 77.0337 511.806 77.285C511.555 77.5363 511.225 77.7357 510.818 77.883C510.411 78.0303 509.912 78.104 509.323 78.104ZM515.563 78L519.45 69.966L519.541 70.265H514.445V69.329H520.36V70.2L516.603 78H515.563Z" fill="#252525"/>
<rect x="10" y="96" width="148" height="40" fill="#E4E7ED"/>
<path d="M21.02 121V112.996H25.928V113.812H21.884V116.572H25.436V117.412H21.884V121H21.02ZM28.7779 121.18C28.5139 121.18 28.2459 121.152 27.9739 121.096C27.7099 121.04 27.4619 120.944 27.2299 120.808C27.0059 120.672 26.8219 120.488 26.6779 120.256C26.5419 120.016 26.4739 119.716 26.4739 119.356C26.4739 118.86 26.5659 118.464 26.7499 118.168C26.9419 117.864 27.2019 117.648 27.5299 117.52C27.8659 117.384 28.2499 117.316 28.6819 117.316C29.0099 117.316 29.2939 117.336 29.5339 117.376C29.7739 117.416 29.9859 117.476 30.1699 117.556C30.3619 117.628 30.5339 117.712 30.6859 117.808L30.8539 118.6C30.6699 118.464 30.4019 118.348 30.0499 118.252C29.7059 118.148 29.3259 118.096 28.9099 118.096C28.4059 118.096 28.0179 118.192 27.7459 118.384C27.4739 118.576 27.3379 118.856 27.3379 119.224C27.3379 119.52 27.4179 119.756 27.5779 119.932C27.7459 120.108 27.9539 120.232 28.2019 120.304C28.4579 120.376 28.7179 120.412 28.9819 120.412C29.5019 120.412 29.8939 120.376 30.1579 120.304C30.4299 120.224 30.5659 120.048 30.5659 119.776V117.028C30.5659 116.564 30.4299 116.224 30.1579 116.008C29.8859 115.792 29.4979 115.684 28.9939 115.684C28.6739 115.684 28.3339 115.732 27.9739 115.828C27.6219 115.916 27.3179 116.06 27.0619 116.26V115.396C27.3099 115.236 27.6419 115.116 28.0579 115.036C28.4739 114.948 28.8779 114.904 29.2699 114.904C29.5339 114.904 29.7779 114.932 30.0019 114.988C30.2259 115.036 30.4259 115.112 30.6019 115.216C30.7779 115.312 30.9259 115.44 31.0459 115.6C31.1739 115.752 31.2699 115.932 31.3339 116.14C31.4059 116.34 31.4419 116.568 31.4419 116.824V119.728C31.4419 120.152 31.3139 120.468 31.0579 120.676C30.8099 120.884 30.4819 121.02 30.0739 121.084C29.6739 121.148 29.2419 121.18 28.7779 121.18ZM35.8664 121.096C35.5464 121.096 35.2184 121.056 34.8824 120.976C34.5544 120.888 34.2504 120.736 33.9704 120.52C33.6984 120.296 33.4784 119.98 33.3104 119.572C33.1424 119.164 33.0584 118.64 33.0584 118C33.0584 117.36 33.1424 116.84 33.3104 116.44C33.4784 116.032 33.6984 115.716 33.9704 115.492C34.2504 115.268 34.5544 115.116 34.8824 115.036C35.2184 114.948 35.5464 114.904 35.8664 114.904C36.1704 114.904 36.4704 114.932 36.7664 114.988C37.0704 115.044 37.3624 115.128 37.6424 115.24V116.068C37.3784 115.956 37.1064 115.872 36.8264 115.816C36.5464 115.76 36.2584 115.732 35.9624 115.732C35.2504 115.732 34.7304 115.912 34.4024 116.272C34.0824 116.632 33.9224 117.208 33.9224 118C33.9224 118.8 34.0824 119.38 34.4024 119.74C34.7304 120.092 35.2504 120.268 35.9624 120.268C36.2584 120.268 36.5464 120.24 36.8264 120.184C37.1064 120.128 37.3784 120.044 37.6424 119.932V120.772C37.3624 120.876 37.0704 120.956 36.7664 121.012C36.4704 121.068 36.1704 121.096 35.8664 121.096ZM41.7367 121.18C41.1687 121.18 40.6767 121.064 40.2607 120.832C39.8447 120.592 39.5247 120.236 39.3007 119.764C39.0767 119.292 38.9647 118.704 38.9647 118C38.9647 116.968 39.1967 116.196 39.6607 115.684C40.1327 115.164 40.7767 114.904 41.5927 114.904C42.2327 114.904 42.7447 115.048 43.1287 115.336C43.5207 115.624 43.8007 116.012 43.9687 116.5C44.1367 116.988 44.2167 117.54 44.2087 118.156H39.3967L39.4567 117.364H43.6447L43.3087 117.484C43.2847 116.884 43.1327 116.436 42.8527 116.14C42.5807 115.844 42.1607 115.696 41.5927 115.696C41.2007 115.696 40.8727 115.768 40.6087 115.912C40.3527 116.056 40.1607 116.308 40.0327 116.668C39.9047 117.02 39.8407 117.516 39.8407 118.156C39.8407 118.884 40.0087 119.44 40.3447 119.824C40.6887 120.2 41.1687 120.388 41.7847 120.388C42.0807 120.388 42.3527 120.368 42.6007 120.328C42.8487 120.28 43.0767 120.216 43.2847 120.136C43.4927 120.056 43.6767 119.968 43.8367 119.872V120.76C43.5487 120.896 43.2287 121 42.8767 121.072C42.5327 121.144 42.1527 121.18 41.7367 121.18ZM48.1912 121.18C47.8792 121.18 47.5792 121.16 47.2912 121.12C47.0112 121.088 46.7592 121.028 46.5352 120.94C46.3192 120.844 46.1472 120.72 46.0192 120.568C45.8912 120.416 45.8272 120.22 45.8272 119.98V112.48H46.6912V115.696L46.3912 115.396C46.5512 115.316 46.7432 115.24 46.9672 115.168C47.1992 115.096 47.4352 115.036 47.6752 114.988C47.9152 114.94 48.1232 114.916 48.2992 114.916C49.2272 114.916 49.9152 115.188 50.3632 115.732C50.8112 116.268 51.0352 117 51.0352 117.928C51.0352 118.616 50.9432 119.176 50.7592 119.608C50.5752 120.032 50.3392 120.36 50.0512 120.592C49.7712 120.816 49.4672 120.968 49.1392 121.048C48.8112 121.136 48.4952 121.18 48.1912 121.18ZM48.1072 120.388C48.6752 120.388 49.1032 120.272 49.3912 120.04C49.6792 119.808 49.8712 119.508 49.9672 119.14C50.0712 118.764 50.1232 118.36 50.1232 117.928C50.1232 117.488 50.0592 117.104 49.9312 116.776C49.8112 116.44 49.6192 116.18 49.3552 115.996C49.0912 115.804 48.7392 115.708 48.2992 115.708C48.0512 115.708 47.7832 115.744 47.4952 115.816C47.2072 115.88 46.9392 115.984 46.6912 116.128V119.776C46.6912 119.952 46.7672 120.084 46.9192 120.172C47.0792 120.26 47.2672 120.32 47.4832 120.352C47.7072 120.376 47.9152 120.388 48.1072 120.388ZM55.1192 121.18C54.1832 121.18 53.4872 120.904 53.0312 120.352C52.5832 119.792 52.3592 119.016 52.3592 118.024C52.3592 116.984 52.5952 116.204 53.0672 115.684C53.5472 115.164 54.2232 114.904 55.0952 114.904C55.7432 114.904 56.2712 115.036 56.6792 115.3C57.0872 115.556 57.3872 115.92 57.5792 116.392C57.7712 116.856 57.8672 117.4 57.8672 118.024C57.8672 119.008 57.6272 119.78 57.1472 120.34C56.6752 120.9 55.9992 121.18 55.1192 121.18ZM55.1072 120.388C55.5952 120.388 55.9752 120.284 56.2472 120.076C56.5192 119.86 56.7112 119.576 56.8232 119.224C56.9432 118.864 57.0032 118.464 57.0032 118.024C57.0032 117.552 56.9432 117.144 56.8232 116.8C56.7032 116.448 56.5032 116.176 56.2232 115.984C55.9512 115.792 55.5792 115.696 55.1072 115.696C54.6272 115.696 54.2512 115.8 53.9792 116.008C53.7072 116.216 53.5112 116.496 53.3912 116.848C53.2792 117.192 53.2232 117.584 53.2232 118.024C53.2232 118.728 53.3632 119.3 53.6432 119.74C53.9232 120.172 54.4112 120.388 55.1072 120.388ZM61.9513 121.18C61.0153 121.18 60.3193 120.904 59.8633 120.352C59.4153 119.792 59.1913 119.016 59.1913 118.024C59.1913 116.984 59.4273 116.204 59.8993 115.684C60.3793 115.164 61.0553 114.904 61.9273 114.904C62.5753 114.904 63.1033 115.036 63.5113 115.3C63.9193 115.556 64.2193 115.92 64.4113 116.392C64.6033 116.856 64.6992 117.4 64.6992 118.024C64.6992 119.008 64.4593 119.78 63.9793 120.34C63.5073 120.9 62.8313 121.18 61.9513 121.18ZM61.9393 120.388C62.4273 120.388 62.8073 120.284 63.0793 120.076C63.3513 119.86 63.5433 119.576 63.6553 119.224C63.7753 118.864 63.8353 118.464 63.8353 118.024C63.8353 117.552 63.7753 117.144 63.6553 116.8C63.5353 116.448 63.3353 116.176 63.0553 115.984C62.7833 115.792 62.4113 115.696 61.9393 115.696C61.4593 115.696 61.0833 115.8 60.8113 116.008C60.5393 116.216 60.3433 116.496 60.2233 116.848C60.1113 117.192 60.0553 117.584 60.0553 118.024C60.0553 118.728 60.1953 119.3 60.4753 119.74C60.7553 120.172 61.2433 120.388 61.9393 120.388ZM66.9953 117.412L69.6233 115.012H70.7033L67.1873 118.12L66.9953 117.412ZM67.1873 121H66.3233V112.732H67.1873V121ZM67.4273 117.268L71.1353 121H69.9833L66.8393 117.82L67.4273 117.268Z" fill="#252525"/>
<rect x="161" y="96" width="121" height="40" fill="white"/>
<path d="M253.919 121.104C253.364 121.104 252.896 121.026 252.515 120.87C252.134 120.705 251.826 120.493 251.592 120.233C251.358 119.964 251.185 119.674 251.072 119.362C250.968 119.05 250.916 118.738 250.916 118.426C250.916 118.027 250.99 117.694 251.137 117.425C251.293 117.148 251.466 116.931 251.657 116.775C251.856 116.61 252.03 116.493 252.177 116.424C252.333 116.355 252.411 116.32 252.411 116.32C252.411 116.32 252.35 116.29 252.229 116.229C252.116 116.16 251.982 116.051 251.826 115.904C251.67 115.757 251.531 115.566 251.41 115.332C251.297 115.089 251.241 114.799 251.241 114.461C251.241 114.097 251.328 113.742 251.501 113.395C251.674 113.048 251.956 112.767 252.346 112.55C252.745 112.325 253.269 112.212 253.919 112.212C254.578 112.212 255.102 112.325 255.492 112.55C255.882 112.767 256.164 113.048 256.337 113.395C256.51 113.742 256.597 114.097 256.597 114.461C256.597 114.808 256.541 115.102 256.428 115.345C256.315 115.579 256.181 115.77 256.025 115.917C255.878 116.056 255.748 116.155 255.635 116.216C255.522 116.277 255.466 116.307 255.466 116.307C255.466 116.307 255.54 116.346 255.687 116.424C255.834 116.493 256.003 116.61 256.194 116.775C256.385 116.94 256.554 117.156 256.701 117.425C256.848 117.694 256.922 118.027 256.922 118.426C256.922 118.738 256.87 119.05 256.766 119.362C256.662 119.674 256.493 119.964 256.259 120.233C256.025 120.493 255.713 120.705 255.323 120.87C254.942 121.026 254.474 121.104 253.919 121.104ZM253.919 120.22C254.404 120.22 254.786 120.151 255.063 120.012C255.34 119.865 255.544 119.687 255.674 119.479C255.804 119.271 255.886 119.072 255.921 118.881C255.964 118.682 255.986 118.53 255.986 118.426C255.986 118.079 255.904 117.789 255.739 117.555C255.583 117.312 255.353 117.13 255.05 117.009C254.747 116.879 254.37 116.814 253.919 116.814C253.477 116.814 253.1 116.879 252.788 117.009C252.485 117.13 252.251 117.312 252.086 117.555C251.93 117.789 251.852 118.079 251.852 118.426C251.852 118.53 251.869 118.682 251.904 118.881C251.947 119.072 252.034 119.271 252.164 119.479C252.303 119.687 252.511 119.865 252.788 120.012C253.065 120.151 253.442 120.22 253.919 120.22ZM253.919 115.956C254.283 115.956 254.595 115.895 254.855 115.774C255.115 115.653 255.314 115.484 255.453 115.267C255.592 115.042 255.661 114.773 255.661 114.461C255.661 114.088 255.57 113.811 255.388 113.629C255.206 113.438 254.981 113.308 254.712 113.239C254.452 113.17 254.188 113.135 253.919 113.135C253.659 113.135 253.395 113.17 253.126 113.239C252.857 113.308 252.632 113.438 252.45 113.629C252.268 113.811 252.177 114.088 252.177 114.461C252.177 114.773 252.246 115.042 252.385 115.267C252.524 115.484 252.723 115.653 252.983 115.774C253.243 115.895 253.555 115.956 253.919 115.956ZM262.395 121V118.4H258.183V117.399L262.278 112.329H263.331V117.529H264.566V118.4H263.331V121H262.395ZM259.223 117.529H262.395V113.668L259.223 117.529ZM268.165 121.104C267.922 121.104 267.693 121.087 267.476 121.052C267.268 121.026 267.077 120.987 266.904 120.935V120.064C267.069 120.099 267.246 120.133 267.437 120.168C267.636 120.203 267.844 120.22 268.061 120.22C268.208 120.22 268.408 120.194 268.659 120.142C268.919 120.09 269.192 119.995 269.478 119.856C269.764 119.717 270.037 119.514 270.297 119.245C270.557 118.976 270.769 118.625 270.934 118.192C271.099 117.759 271.181 117.226 271.181 116.593C271.181 115.848 271.129 115.245 271.025 114.786C270.93 114.318 270.787 113.963 270.596 113.72C270.414 113.477 270.202 113.313 269.959 113.226C269.716 113.139 269.452 113.096 269.166 113.096C268.698 113.096 268.325 113.178 268.048 113.343C267.779 113.508 267.58 113.707 267.45 113.941C267.329 114.175 267.246 114.405 267.203 114.63C267.168 114.855 267.151 115.029 267.151 115.15C267.151 115.739 267.324 116.194 267.671 116.515C268.018 116.836 268.516 116.996 269.166 116.996C269.556 116.996 269.898 116.94 270.193 116.827C270.496 116.706 270.748 116.576 270.947 116.437C271.146 116.29 271.281 116.181 271.35 116.112L271.337 117.152C271.259 117.204 271.146 117.273 270.999 117.36C270.86 117.438 270.696 117.516 270.505 117.594C270.314 117.672 270.106 117.737 269.881 117.789C269.656 117.841 269.417 117.867 269.166 117.867C268.256 117.867 267.537 117.624 267.008 117.139C266.479 116.645 266.215 115.978 266.215 115.137C266.215 114.799 266.267 114.461 266.371 114.123C266.475 113.776 266.644 113.46 266.878 113.174C267.112 112.879 267.415 112.645 267.788 112.472C268.161 112.299 268.62 112.212 269.166 112.212C270.145 112.212 270.882 112.554 271.376 113.239C271.87 113.915 272.117 114.929 272.117 116.281C272.117 117.148 272.017 117.876 271.818 118.465C271.627 119.046 271.376 119.514 271.064 119.869C270.752 120.216 270.418 120.48 270.063 120.662C269.708 120.835 269.361 120.952 269.023 121.013C268.685 121.074 268.399 121.104 268.165 121.104Z" fill="#252525"/>
<rect x="285" y="96" width="121" height="40" fill="#FBFCFC"/>
<path d="M380.594 121V118.4H376.382V117.399L380.477 112.329H381.53V117.529H382.765V118.4H381.53V121H380.594ZM377.422 117.529H380.594V113.668L377.422 117.529ZM387.364 121.104C386.81 121.104 386.342 121.026 385.96 120.87C385.579 120.705 385.271 120.493 385.037 120.233C384.803 119.964 384.63 119.674 384.517 119.362C384.413 119.05 384.361 118.738 384.361 118.426C384.361 118.027 384.435 117.694 384.582 117.425C384.738 117.148 384.912 116.931 385.102 116.775C385.302 116.61 385.475 116.493 385.622 116.424C385.778 116.355 385.856 116.32 385.856 116.32C385.856 116.32 385.796 116.29 385.674 116.229C385.562 116.16 385.427 116.051 385.271 115.904C385.115 115.757 384.977 115.566 384.855 115.332C384.743 115.089 384.686 114.799 384.686 114.461C384.686 114.097 384.773 113.742 384.946 113.395C385.12 113.048 385.401 112.767 385.791 112.55C386.19 112.325 386.714 112.212 387.364 112.212C388.023 112.212 388.547 112.325 388.937 112.55C389.327 112.767 389.609 113.048 389.782 113.395C389.956 113.742 390.042 114.097 390.042 114.461C390.042 114.808 389.986 115.102 389.873 115.345C389.761 115.579 389.626 115.77 389.47 115.917C389.323 116.056 389.193 116.155 389.08 116.216C388.968 116.277 388.911 116.307 388.911 116.307C388.911 116.307 388.985 116.346 389.132 116.424C389.28 116.493 389.449 116.61 389.639 116.775C389.83 116.94 389.999 117.156 390.146 117.425C390.294 117.694 390.367 118.027 390.367 118.426C390.367 118.738 390.315 119.05 390.211 119.362C390.107 119.674 389.938 119.964 389.704 120.233C389.47 120.493 389.158 120.705 388.768 120.87C388.387 121.026 387.919 121.104 387.364 121.104ZM387.364 120.22C387.85 120.22 388.231 120.151 388.508 120.012C388.786 119.865 388.989 119.687 389.119 119.479C389.249 119.271 389.332 119.072 389.366 118.881C389.41 118.682 389.431 118.53 389.431 118.426C389.431 118.079 389.349 117.789 389.184 117.555C389.028 117.312 388.799 117.13 388.495 117.009C388.192 116.879 387.815 116.814 387.364 116.814C386.922 116.814 386.545 116.879 386.233 117.009C385.93 117.13 385.696 117.312 385.531 117.555C385.375 117.789 385.297 118.079 385.297 118.426C385.297 118.53 385.315 118.682 385.349 118.881C385.393 119.072 385.479 119.271 385.609 119.479C385.748 119.687 385.956 119.865 386.233 120.012C386.511 120.151 386.888 120.22 387.364 120.22ZM387.364 115.956C387.728 115.956 388.04 115.895 388.3 115.774C388.56 115.653 388.76 115.484 388.898 115.267C389.037 115.042 389.106 114.773 389.106 114.461C389.106 114.088 389.015 113.811 388.833 113.629C388.651 113.438 388.426 113.308 388.157 113.239C387.897 113.17 387.633 113.135 387.364 113.135C387.104 113.135 386.84 113.17 386.571 113.239C386.303 113.308 386.077 113.438 385.895 113.629C385.713 113.811 385.622 114.088 385.622 114.461C385.622 114.773 385.692 115.042 385.83 115.267C385.969 115.484 386.168 115.653 386.428 115.774C386.688 115.895 387 115.956 387.364 115.956ZM394.203 121V113.304L392.474 114.448V113.343L394.073 112.329H395.139V121H394.203Z" fill="#252525"/>
<rect x="409" y="96" width="121" height="40" fill="white"/>
<path d="M501.642 121.104C501.166 121.104 500.732 121.052 500.342 120.948C499.961 120.835 499.623 120.705 499.328 120.558V119.596C499.597 119.743 499.913 119.878 500.277 119.999C500.65 120.112 501.066 120.168 501.525 120.168C502.297 120.168 502.886 120.025 503.293 119.739C503.701 119.453 503.904 119.041 503.904 118.504C503.904 117.967 503.696 117.555 503.28 117.269C502.864 116.983 502.262 116.84 501.473 116.84H500.524V115.943H501.512C502.145 115.943 502.626 115.826 502.955 115.592C503.293 115.349 503.462 115.003 503.462 114.552C503.462 114.249 503.384 113.993 503.228 113.785C503.072 113.577 502.838 113.421 502.526 113.317C502.223 113.204 501.85 113.148 501.408 113.148C501.018 113.148 500.667 113.196 500.355 113.291C500.043 113.378 499.77 113.482 499.536 113.603V112.654C499.796 112.533 500.091 112.429 500.42 112.342C500.75 112.255 501.114 112.212 501.512 112.212C502.05 112.212 502.5 112.281 502.864 112.42C503.237 112.55 503.536 112.728 503.761 112.953C503.987 113.178 504.147 113.43 504.242 113.707C504.346 113.984 504.398 114.266 504.398 114.552C504.398 114.873 504.342 115.146 504.229 115.371C504.117 115.596 503.987 115.778 503.839 115.917C503.692 116.056 503.562 116.155 503.449 116.216C503.337 116.277 503.28 116.307 503.28 116.307C503.28 116.307 503.358 116.35 503.514 116.437C503.67 116.515 503.852 116.645 504.06 116.827C504.268 117 504.45 117.23 504.606 117.516C504.762 117.793 504.84 118.131 504.84 118.53C504.84 118.842 504.784 119.15 504.671 119.453C504.559 119.756 504.377 120.034 504.125 120.285C503.874 120.536 503.545 120.736 503.137 120.883C502.73 121.03 502.232 121.104 501.642 121.104ZM509.65 121.104C508.671 121.104 507.934 120.766 507.44 120.09C506.946 119.405 506.699 118.387 506.699 117.035C506.699 116.168 506.795 115.445 506.985 114.864C507.185 114.275 507.44 113.807 507.752 113.46C508.064 113.105 508.398 112.84 508.753 112.667C509.109 112.485 509.455 112.364 509.793 112.303C510.131 112.242 510.417 112.212 510.651 112.212C510.894 112.212 511.119 112.229 511.327 112.264C511.544 112.29 511.739 112.329 511.912 112.381V113.252C511.748 113.209 511.57 113.174 511.379 113.148C511.189 113.113 510.981 113.096 510.755 113.096C510.608 113.096 510.404 113.122 510.144 113.174C509.893 113.226 509.624 113.321 509.338 113.46C509.052 113.599 508.779 113.802 508.519 114.071C508.259 114.34 508.047 114.691 507.882 115.124C507.718 115.549 507.635 116.082 507.635 116.723C507.635 117.468 507.683 118.075 507.778 118.543C507.882 119.002 508.025 119.353 508.207 119.596C508.398 119.839 508.615 120.003 508.857 120.09C509.1 120.177 509.364 120.22 509.65 120.22C510.118 120.22 510.487 120.138 510.755 119.973C511.033 119.808 511.232 119.609 511.353 119.375C511.483 119.141 511.566 118.911 511.6 118.686C511.644 118.461 511.665 118.287 511.665 118.166C511.665 117.577 511.492 117.122 511.145 116.801C510.799 116.48 510.3 116.32 509.65 116.32C509.26 116.32 508.914 116.381 508.61 116.502C508.316 116.615 508.069 116.74 507.869 116.879C507.679 117.018 507.544 117.126 507.466 117.204L507.479 116.164C507.557 116.112 507.666 116.047 507.804 115.969C507.952 115.882 508.121 115.8 508.311 115.722C508.502 115.644 508.71 115.579 508.935 115.527C509.161 115.475 509.399 115.449 509.65 115.449C510.56 115.449 511.28 115.696 511.808 116.19C512.337 116.675 512.601 117.338 512.601 118.179C512.601 118.517 512.549 118.859 512.445 119.206C512.341 119.544 512.172 119.86 511.938 120.155C511.704 120.441 511.401 120.671 511.028 120.844C510.656 121.017 510.196 121.104 509.65 121.104ZM517.23 121.104C516.675 121.104 516.207 121.026 515.826 120.87C515.444 120.705 515.137 120.493 514.903 120.233C514.669 119.964 514.495 119.674 514.383 119.362C514.279 119.05 514.227 118.738 514.227 118.426C514.227 118.027 514.3 117.694 514.448 117.425C514.604 117.148 514.777 116.931 514.968 116.775C515.167 116.61 515.34 116.493 515.488 116.424C515.644 116.355 515.722 116.32 515.722 116.32C515.722 116.32 515.661 116.29 515.54 116.229C515.427 116.16 515.293 116.051 515.137 115.904C514.981 115.757 514.842 115.566 514.721 115.332C514.608 115.089 514.552 114.799 514.552 114.461C514.552 114.097 514.638 113.742 514.812 113.395C514.985 113.048 515.267 112.767 515.657 112.55C516.055 112.325 516.58 112.212 517.23 112.212C517.888 112.212 518.413 112.325 518.803 112.55C519.193 112.767 519.474 113.048 519.648 113.395C519.821 113.742 519.908 114.097 519.908 114.461C519.908 114.808 519.851 115.102 519.739 115.345C519.626 115.579 519.492 115.77 519.336 115.917C519.188 116.056 519.058 116.155 518.946 116.216C518.833 116.277 518.777 116.307 518.777 116.307C518.777 116.307 518.85 116.346 518.998 116.424C519.145 116.493 519.314 116.61 519.505 116.775C519.695 116.94 519.864 117.156 520.012 117.425C520.159 117.694 520.233 118.027 520.233 118.426C520.233 118.738 520.181 119.05 520.077 119.362C519.973 119.674 519.804 119.964 519.57 120.233C519.336 120.493 519.024 120.705 518.634 120.87C518.252 121.026 517.784 121.104 517.23 121.104ZM517.23 120.22C517.715 120.22 518.096 120.151 518.374 120.012C518.651 119.865 518.855 119.687 518.985 119.479C519.115 119.271 519.197 119.072 519.232 118.881C519.275 118.682 519.297 118.53 519.297 118.426C519.297 118.079 519.214 117.789 519.05 117.555C518.894 117.312 518.664 117.13 518.361 117.009C518.057 116.879 517.68 116.814 517.23 116.814C516.788 116.814 516.411 116.879 516.099 117.009C515.795 117.13 515.561 117.312 515.397 117.555C515.241 117.789 515.163 118.079 515.163 118.426C515.163 118.53 515.18 118.682 515.215 118.881C515.258 119.072 515.345 119.271 515.475 119.479C515.613 119.687 515.821 119.865 516.099 120.012C516.376 120.151 516.753 120.22 517.23 120.22ZM517.23 115.956C517.594 115.956 517.906 115.895 518.166 115.774C518.426 115.653 518.625 115.484 518.764 115.267C518.902 115.042 518.972 114.773 518.972 114.461C518.972 114.088 518.881 113.811 518.699 113.629C518.517 113.438 518.291 113.308 518.023 113.239C517.763 113.17 517.498 113.135 517.23 113.135C516.97 113.135 516.705 113.17 516.437 113.239C516.168 113.308 515.943 113.438 515.761 113.629C515.579 113.811 515.488 114.088 515.488 114.461C515.488 114.773 515.557 115.042 515.696 115.267C515.834 115.484 516.034 115.653 516.294 115.774C516.554 115.895 516.866 115.956 517.23 115.956Z" fill="#252525"/>
<rect x="10" y="139" width="148" height="40" fill="#E4E7ED"/>
<path d="M24.428 164.12C23.612 164.12 22.928 163.968 22.376 163.664C21.824 163.352 21.408 162.892 21.128 162.284C20.856 161.668 20.72 160.904 20.72 159.992C20.72 159.08 20.856 158.32 21.128 157.712C21.408 157.104 21.824 156.648 22.376 156.344C22.928 156.04 23.612 155.888 24.428 155.888C24.868 155.888 25.3 155.932 25.724 156.02C26.148 156.108 26.556 156.244 26.948 156.428V157.328C26.572 157.16 26.18 157.016 25.772 156.896C25.364 156.768 24.948 156.704 24.524 156.704C23.852 156.704 23.296 156.824 22.856 157.064C22.424 157.296 22.104 157.656 21.896 158.144C21.688 158.624 21.584 159.24 21.584 159.992C21.584 160.744 21.688 161.364 21.896 161.852C22.104 162.34 22.424 162.704 22.856 162.944C23.296 163.176 23.852 163.292 24.524 163.292C24.844 163.292 25.156 163.268 25.46 163.22C25.764 163.172 26.064 163.1 26.36 163.004V160.724H24.428V159.884H27.224V163.496C26.784 163.704 26.332 163.86 25.868 163.964C25.404 164.068 24.924 164.12 24.428 164.12ZM31.6583 164.18C30.7223 164.18 30.0263 163.904 29.5703 163.352C29.1223 162.792 28.8983 162.016 28.8983 161.024C28.8983 159.984 29.1343 159.204 29.6063 158.684C30.0863 158.164 30.7623 157.904 31.6343 157.904C32.2823 157.904 32.8103 158.036 33.2183 158.3C33.6263 158.556 33.9263 158.92 34.1183 159.392C34.3103 159.856 34.4063 160.4 34.4063 161.024C34.4063 162.008 34.1663 162.78 33.6863 163.34C33.2143 163.9 32.5383 164.18 31.6583 164.18ZM31.6463 163.388C32.1343 163.388 32.5143 163.284 32.7863 163.076C33.0583 162.86 33.2503 162.576 33.3623 162.224C33.4823 161.864 33.5423 161.464 33.5423 161.024C33.5423 160.552 33.4823 160.144 33.3623 159.8C33.2423 159.448 33.0423 159.176 32.7623 158.984C32.4903 158.792 32.1183 158.696 31.6463 158.696C31.1663 158.696 30.7903 158.8 30.5183 159.008C30.2463 159.216 30.0503 159.496 29.9303 159.848C29.8183 160.192 29.7623 160.584 29.7623 161.024C29.7623 161.728 29.9023 162.3 30.1823 162.74C30.4623 163.172 30.9503 163.388 31.6463 163.388ZM38.4903 164.18C37.5543 164.18 36.8583 163.904 36.4023 163.352C35.9543 162.792 35.7303 162.016 35.7303 161.024C35.7303 159.984 35.9663 159.204 36.4383 158.684C36.9183 158.164 37.5943 157.904 38.4663 157.904C39.1143 157.904 39.6423 158.036 40.0503 158.3C40.4583 158.556 40.7583 158.92 40.9503 159.392C41.1423 159.856 41.2383 160.4 41.2383 161.024C41.2383 162.008 40.9983 162.78 40.5183 163.34C40.0463 163.9 39.3703 164.18 38.4903 164.18ZM38.4783 163.388C38.9663 163.388 39.3463 163.284 39.6183 163.076C39.8903 162.86 40.0823 162.576 40.1943 162.224C40.3143 161.864 40.3743 161.464 40.3743 161.024C40.3743 160.552 40.3143 160.144 40.1943 159.8C40.0743 159.448 39.8743 159.176 39.5943 158.984C39.3223 158.792 38.9503 158.696 38.4783 158.696C37.9983 158.696 37.6223 158.8 37.3503 159.008C37.0783 159.216 36.8823 159.496 36.7623 159.848C36.6503 160.192 36.5943 160.584 36.5943 161.024C36.5943 161.728 36.7343 162.3 37.0143 162.74C37.2943 163.172 37.7823 163.388 38.4783 163.388ZM45.2983 164.18C44.6823 164.18 44.1703 164.06 43.7623 163.82C43.3623 163.572 43.0623 163.224 42.8623 162.776C42.6623 162.32 42.5623 161.784 42.5623 161.168C42.5623 160.48 42.6543 159.924 42.8383 159.5C43.0223 159.068 43.2583 158.74 43.5463 158.516C43.8423 158.284 44.1623 158.128 44.5063 158.048C44.8583 157.96 45.1983 157.916 45.5263 157.916C45.9023 157.916 46.2583 157.968 46.5943 158.072C46.9383 158.168 47.2183 158.324 47.4343 158.54C47.6583 158.756 47.7703 159.044 47.7703 159.404V164.252C47.7703 164.492 47.7343 164.736 47.6623 164.984C47.5903 165.232 47.4583 165.46 47.2663 165.668C47.0823 165.884 46.8183 166.056 46.4743 166.184C46.1383 166.312 45.7023 166.376 45.1663 166.376C44.8223 166.376 44.5063 166.344 44.2183 166.28C43.9303 166.216 43.6783 166.156 43.4623 166.1V165.284C43.5903 165.316 43.7343 165.352 43.8943 165.392C44.0623 165.44 44.2423 165.48 44.4343 165.512C44.6343 165.544 44.8463 165.56 45.0703 165.56C45.6143 165.56 46.0143 165.492 46.2703 165.356C46.5343 165.228 46.7063 165.064 46.7863 164.864C46.8663 164.672 46.9063 164.476 46.9063 164.276V163.4L47.2063 163.7C47.0543 163.78 46.8623 163.856 46.6303 163.928C46.3983 164 46.1623 164.06 45.9223 164.108C45.6823 164.156 45.4743 164.18 45.2983 164.18ZM45.2983 163.388C45.5543 163.388 45.8223 163.356 46.1023 163.292C46.3903 163.22 46.6583 163.112 46.9063 162.968V159.524C46.9063 159.3 46.8423 159.132 46.7143 159.02C46.5943 158.9 46.4303 158.82 46.2223 158.78C46.0143 158.732 45.7903 158.708 45.5503 158.708C44.9663 158.708 44.5263 158.824 44.2303 159.056C43.9343 159.28 43.7343 159.58 43.6303 159.956C43.5263 160.332 43.4743 160.736 43.4743 161.168C43.4743 161.824 43.6143 162.36 43.8943 162.776C44.1743 163.184 44.6423 163.388 45.2983 163.388ZM50.5584 164H49.6944V155.732H50.5584V164ZM54.9554 164.18C54.3874 164.18 53.8954 164.064 53.4794 163.832C53.0634 163.592 52.7434 163.236 52.5194 162.764C52.2954 162.292 52.1834 161.704 52.1834 161C52.1834 159.968 52.4154 159.196 52.8794 158.684C53.3514 158.164 53.9954 157.904 54.8114 157.904C55.4514 157.904 55.9634 158.048 56.3474 158.336C56.7394 158.624 57.0194 159.012 57.1874 159.5C57.3554 159.988 57.4354 160.54 57.4274 161.156H52.6154L52.6754 160.364H56.8634L56.5274 160.484C56.5034 159.884 56.3514 159.436 56.0714 159.14C55.7994 158.844 55.3794 158.696 54.8114 158.696C54.4194 158.696 54.0914 158.768 53.8274 158.912C53.5714 159.056 53.3794 159.308 53.2514 159.668C53.1234 160.02 53.0594 160.516 53.0594 161.156C53.0594 161.884 53.2274 162.44 53.5634 162.824C53.9074 163.2 54.3874 163.388 55.0034 163.388C55.2994 163.388 55.5714 163.368 55.8194 163.328C56.0674 163.28 56.2954 163.216 56.5034 163.136C56.7114 163.056 56.8954 162.968 57.0554 162.872V163.76C56.7674 163.896 56.4474 164 56.0954 164.072C55.7514 164.144 55.3714 164.18 54.9554 164.18Z" fill="#252525"/>
<rect x="161" y="139" width="121" height="40" fill="white"/>
<path d="M251.529 164L255.416 155.966L255.507 156.265H250.411V155.329H256.326V156.2L252.569 164H251.529ZM259.761 164.104C259.518 164.104 259.288 164.087 259.072 164.052C258.864 164.026 258.673 163.987 258.5 163.935V163.064C258.664 163.099 258.842 163.133 259.033 163.168C259.232 163.203 259.44 163.22 259.657 163.22C259.804 163.22 260.003 163.194 260.255 163.142C260.515 163.09 260.788 162.995 261.074 162.856C261.36 162.717 261.633 162.514 261.893 162.245C262.153 161.976 262.365 161.625 262.53 161.192C262.694 160.759 262.777 160.226 262.777 159.593C262.777 158.848 262.725 158.245 262.621 157.786C262.525 157.318 262.382 156.963 262.192 156.72C262.01 156.477 261.797 156.313 261.555 156.226C261.312 156.139 261.048 156.096 260.762 156.096C260.294 156.096 259.921 156.178 259.644 156.343C259.375 156.508 259.176 156.707 259.046 156.941C258.924 157.175 258.842 157.405 258.799 157.63C258.764 157.855 258.747 158.029 258.747 158.15C258.747 158.739 258.92 159.194 259.267 159.515C259.613 159.836 260.112 159.996 260.762 159.996C261.152 159.996 261.494 159.94 261.789 159.827C262.092 159.706 262.343 159.576 262.543 159.437C262.742 159.29 262.876 159.181 262.946 159.112L262.933 160.152C262.855 160.204 262.742 160.273 262.595 160.36C262.456 160.438 262.291 160.516 262.101 160.594C261.91 160.672 261.702 160.737 261.477 160.789C261.251 160.841 261.013 160.867 260.762 160.867C259.852 160.867 259.132 160.624 258.604 160.139C258.075 159.645 257.811 158.978 257.811 158.137C257.811 157.799 257.863 157.461 257.967 157.123C258.071 156.776 258.24 156.46 258.474 156.174C258.708 155.879 259.011 155.645 259.384 155.472C259.756 155.299 260.216 155.212 260.762 155.212C261.741 155.212 262.478 155.554 262.972 156.239C263.466 156.915 263.713 157.929 263.713 159.281C263.713 160.148 263.613 160.876 263.414 161.465C263.223 162.046 262.972 162.514 262.66 162.869C262.348 163.216 262.014 163.48 261.659 163.662C261.303 163.835 260.957 163.952 260.619 164.013C260.281 164.074 259.995 164.104 259.761 164.104ZM268.795 164.143C267.668 164.143 266.814 163.77 266.234 163.025C265.662 162.28 265.376 161.17 265.376 159.697C265.376 158.224 265.662 157.114 266.234 156.369C266.814 155.624 267.668 155.251 268.795 155.251C269.93 155.251 270.784 155.624 271.356 156.369C271.928 157.114 272.214 158.224 272.214 159.697C272.214 161.17 271.928 162.28 271.356 163.025C270.784 163.77 269.93 164.143 268.795 164.143ZM268.795 163.285C269.081 163.285 269.371 163.246 269.666 163.168C269.96 163.09 270.229 162.93 270.472 162.687C270.714 162.444 270.909 162.085 271.057 161.608C271.204 161.131 271.278 160.494 271.278 159.697C271.278 158.9 271.204 158.263 271.057 157.786C270.909 157.309 270.714 156.954 270.472 156.72C270.229 156.477 269.96 156.317 269.666 156.239C269.371 156.152 269.081 156.109 268.795 156.109C268.509 156.109 268.218 156.152 267.924 156.239C267.629 156.317 267.36 156.477 267.118 156.72C266.875 156.954 266.68 157.309 266.533 157.786C266.385 158.263 266.312 158.9 266.312 159.697C266.312 160.494 266.385 161.131 266.533 161.608C266.68 162.085 266.875 162.444 267.118 162.687C267.36 162.93 267.629 163.09 267.924 163.168C268.218 163.246 268.509 163.285 268.795 163.285Z" fill="#252525"/>
<rect x="285" y="139" width="121" height="40" fill="#FBFCFC"/>
<path d="M378.326 164.104C377.745 164.104 377.251 164.052 376.844 163.948C376.445 163.835 376.112 163.71 375.843 163.571V162.596C375.964 162.665 376.129 162.748 376.337 162.843C376.554 162.938 376.822 163.021 377.143 163.09C377.464 163.159 377.836 163.194 378.261 163.194C378.703 163.194 379.05 163.138 379.301 163.025C379.561 162.904 379.752 162.752 379.873 162.57C379.994 162.379 380.072 162.18 380.107 161.972C380.142 161.755 380.159 161.547 380.159 161.348C380.159 160.802 380.064 160.403 379.873 160.152C379.691 159.892 379.453 159.723 379.158 159.645C378.872 159.567 378.573 159.528 378.261 159.528C377.802 159.528 377.42 159.563 377.117 159.632C376.814 159.693 376.588 159.758 376.441 159.827C376.294 159.896 376.22 159.931 376.22 159.931L375.635 159.333L376.077 155.329H380.536V156.252H376.883L376.636 159.047L375.713 159.203C376.042 159.004 376.441 158.852 376.909 158.748C377.377 158.644 377.849 158.592 378.326 158.592C378.638 158.592 378.954 158.631 379.275 158.709C379.604 158.787 379.903 158.926 380.172 159.125C380.449 159.316 380.67 159.593 380.835 159.957C381 160.312 381.082 160.776 381.082 161.348C381.082 161.92 381 162.388 380.835 162.752C380.67 163.107 380.449 163.385 380.172 163.584C379.903 163.775 379.604 163.909 379.275 163.987C378.954 164.065 378.638 164.104 378.326 164.104ZM385.663 164.104C384.684 164.104 383.947 163.766 383.453 163.09C382.959 162.405 382.712 161.387 382.712 160.035C382.712 159.168 382.808 158.445 382.998 157.864C383.198 157.275 383.453 156.807 383.765 156.46C384.077 156.105 384.411 155.84 384.766 155.667C385.122 155.485 385.468 155.364 385.806 155.303C386.144 155.242 386.43 155.212 386.664 155.212C386.907 155.212 387.132 155.229 387.34 155.264C387.557 155.29 387.752 155.329 387.925 155.381V156.252C387.761 156.209 387.583 156.174 387.392 156.148C387.202 156.113 386.994 156.096 386.768 156.096C386.621 156.096 386.417 156.122 386.157 156.174C385.906 156.226 385.637 156.321 385.351 156.46C385.065 156.599 384.792 156.802 384.532 157.071C384.272 157.34 384.06 157.691 383.895 158.124C383.731 158.549 383.648 159.082 383.648 159.723C383.648 160.468 383.696 161.075 383.791 161.543C383.895 162.002 384.038 162.353 384.22 162.596C384.411 162.839 384.628 163.003 384.87 163.09C385.113 163.177 385.377 163.22 385.663 163.22C386.131 163.22 386.5 163.138 386.768 162.973C387.046 162.808 387.245 162.609 387.366 162.375C387.496 162.141 387.579 161.911 387.613 161.686C387.657 161.461 387.678 161.287 387.678 161.166C387.678 160.577 387.505 160.122 387.158 159.801C386.812 159.48 386.313 159.32 385.663 159.32C385.273 159.32 384.927 159.381 384.623 159.502C384.329 159.615 384.082 159.74 383.882 159.879C383.692 160.018 383.557 160.126 383.479 160.204L383.492 159.164C383.57 159.112 383.679 159.047 383.817 158.969C383.965 158.882 384.134 158.8 384.324 158.722C384.515 158.644 384.723 158.579 384.948 158.527C385.174 158.475 385.412 158.449 385.663 158.449C386.573 158.449 387.293 158.696 387.821 159.19C388.35 159.675 388.614 160.338 388.614 161.179C388.614 161.517 388.562 161.859 388.458 162.206C388.354 162.544 388.185 162.86 387.951 163.155C387.717 163.441 387.414 163.671 387.041 163.844C386.669 164.017 386.209 164.104 385.663 164.104ZM390.447 164V163.181C390.742 162.964 391.08 162.696 391.461 162.375C391.851 162.054 392.241 161.703 392.631 161.322C393.03 160.932 393.394 160.529 393.723 160.113C394.061 159.688 394.334 159.268 394.542 158.852C394.75 158.436 394.854 158.037 394.854 157.656C394.854 157.422 394.802 157.192 394.698 156.967C394.594 156.733 394.395 156.538 394.1 156.382C393.806 156.226 393.377 156.148 392.813 156.148C392.293 156.148 391.838 156.235 391.448 156.408C391.067 156.581 390.764 156.746 390.538 156.902V155.875C390.816 155.702 391.149 155.55 391.539 155.42C391.938 155.281 392.389 155.212 392.891 155.212C393.602 155.212 394.17 155.333 394.594 155.576C395.019 155.819 395.322 156.126 395.504 156.499C395.695 156.872 395.79 157.257 395.79 157.656C395.79 158.046 395.691 158.453 395.491 158.878C395.301 159.303 395.045 159.727 394.724 160.152C394.412 160.577 394.066 160.988 393.684 161.387C393.303 161.786 392.922 162.158 392.54 162.505C392.159 162.843 391.812 163.138 391.5 163.389L391.227 163.064H395.92V164H390.447Z" fill="#252525"/>
<rect x="409" y="139" width="121" height="40" fill="white"/>
<path d="M499.327 164V163.181C499.622 162.964 499.96 162.696 500.341 162.375C500.731 162.054 501.121 161.703 501.511 161.322C501.91 160.932 502.274 160.529 502.603 160.113C502.941 159.688 503.214 159.268 503.422 158.852C503.63 158.436 503.734 158.037 503.734 157.656C503.734 157.422 503.682 157.192 503.578 156.967C503.474 156.733 503.275 156.538 502.98 156.382C502.686 156.226 502.257 156.148 501.693 156.148C501.173 156.148 500.718 156.235 500.328 156.408C499.947 156.581 499.644 156.746 499.418 156.902V155.875C499.696 155.702 500.029 155.55 500.419 155.42C500.818 155.281 501.269 155.212 501.771 155.212C502.482 155.212 503.05 155.333 503.474 155.576C503.899 155.819 504.202 156.126 504.384 156.499C504.575 156.872 504.67 157.257 504.67 157.656C504.67 158.046 504.571 158.453 504.371 158.878C504.181 159.303 503.925 159.727 503.604 160.152C503.292 160.577 502.946 160.988 502.564 161.387C502.183 161.786 501.802 162.158 501.42 162.505C501.039 162.843 500.692 163.138 500.38 163.389L500.107 163.064H504.8V164H499.327ZM506.881 164V163.181C507.176 162.964 507.514 162.696 507.895 162.375C508.285 162.054 508.675 161.703 509.065 161.322C509.464 160.932 509.828 160.529 510.157 160.113C510.495 159.688 510.768 159.268 510.976 158.852C511.184 158.436 511.288 158.037 511.288 157.656C511.288 157.422 511.236 157.192 511.132 156.967C511.028 156.733 510.829 156.538 510.534 156.382C510.239 156.226 509.81 156.148 509.247 156.148C508.727 156.148 508.272 156.235 507.882 156.408C507.501 156.581 507.197 156.746 506.972 156.902V155.875C507.249 155.702 507.583 155.55 507.973 155.42C508.372 155.281 508.822 155.212 509.325 155.212C510.036 155.212 510.603 155.333 511.028 155.576C511.453 155.819 511.756 156.126 511.938 156.499C512.129 156.872 512.224 157.257 512.224 157.656C512.224 158.046 512.124 158.453 511.925 158.878C511.734 159.303 511.479 159.727 511.158 160.152C510.846 160.577 510.499 160.988 510.118 161.387C509.737 161.786 509.355 162.158 508.974 162.505C508.593 162.843 508.246 163.138 507.934 163.389L507.661 163.064H512.354V164H506.881ZM517.23 164.104C516.675 164.104 516.207 164.026 515.826 163.87C515.444 163.705 515.137 163.493 514.903 163.233C514.669 162.964 514.495 162.674 514.383 162.362C514.279 162.05 514.227 161.738 514.227 161.426C514.227 161.027 514.3 160.694 514.448 160.425C514.604 160.148 514.777 159.931 514.968 159.775C515.167 159.61 515.34 159.493 515.488 159.424C515.644 159.355 515.722 159.32 515.722 159.32C515.722 159.32 515.661 159.29 515.54 159.229C515.427 159.16 515.293 159.051 515.137 158.904C514.981 158.757 514.842 158.566 514.721 158.332C514.608 158.089 514.552 157.799 514.552 157.461C514.552 157.097 514.638 156.742 514.812 156.395C514.985 156.048 515.267 155.767 515.657 155.55C516.055 155.325 516.58 155.212 517.23 155.212C517.888 155.212 518.413 155.325 518.803 155.55C519.193 155.767 519.474 156.048 519.648 156.395C519.821 156.742 519.908 157.097 519.908 157.461C519.908 157.808 519.851 158.102 519.739 158.345C519.626 158.579 519.492 158.77 519.336 158.917C519.188 159.056 519.058 159.155 518.946 159.216C518.833 159.277 518.777 159.307 518.777 159.307C518.777 159.307 518.85 159.346 518.998 159.424C519.145 159.493 519.314 159.61 519.505 159.775C519.695 159.94 519.864 160.156 520.012 160.425C520.159 160.694 520.233 161.027 520.233 161.426C520.233 161.738 520.181 162.05 520.077 162.362C519.973 162.674 519.804 162.964 519.57 163.233C519.336 163.493 519.024 163.705 518.634 163.87C518.252 164.026 517.784 164.104 517.23 164.104ZM517.23 163.22C517.715 163.22 518.096 163.151 518.374 163.012C518.651 162.865 518.855 162.687 518.985 162.479C519.115 162.271 519.197 162.072 519.232 161.881C519.275 161.682 519.297 161.53 519.297 161.426C519.297 161.079 519.214 160.789 519.05 160.555C518.894 160.312 518.664 160.13 518.361 160.009C518.057 159.879 517.68 159.814 517.23 159.814C516.788 159.814 516.411 159.879 516.099 160.009C515.795 160.13 515.561 160.312 515.397 160.555C515.241 160.789 515.163 161.079 515.163 161.426C515.163 161.53 515.18 161.682 515.215 161.881C515.258 162.072 515.345 162.271 515.475 162.479C515.613 162.687 515.821 162.865 516.099 163.012C516.376 163.151 516.753 163.22 517.23 163.22ZM517.23 158.956C517.594 158.956 517.906 158.895 518.166 158.774C518.426 158.653 518.625 158.484 518.764 158.267C518.902 158.042 518.972 157.773 518.972 157.461C518.972 157.088 518.881 156.811 518.699 156.629C518.517 156.438 518.291 156.308 518.023 156.239C517.763 156.17 517.498 156.135 517.23 156.135C516.97 156.135 516.705 156.17 516.437 156.239C516.168 156.308 515.943 156.438 515.761 156.629C515.579 156.811 515.488 157.088 515.488 157.461C515.488 157.773 515.557 158.042 515.696 158.267C515.834 158.484 516.034 158.653 516.294 158.774C516.554 158.895 516.866 158.956 517.23 158.956Z" fill="#252525"/>
</svg>
