<svg width="540" height="326" viewBox="0 0 540 326" fill="none" xmlns="http://www.w3.org/2000/svg">
<rect width="540" height="326" rx="8" fill="white"/>
<rect x="33" y="6" width="481" height="1" fill="#EDF3F8"/>
<rect x="33" y="65" width="481" height="1" fill="#EDF3F8"/>
<rect x="33" y="124" width="481" height="1" fill="#EDF3F8"/>
<rect x="33" y="183" width="481" height="1" fill="#EDF3F8"/>
<rect x="33" y="242" width="481" height="1" fill="#EDF3F8"/>
<rect x="33" y="301" width="481" height="1" fill="#EDF3F8"/>
<circle cx="324" cy="132" r="12" fill="#D9E1F0"/>
<g filter="url(#filter0_d)">
<path fill-rule="evenodd" clip-rule="evenodd" d="M260 77C255.582 77 252 80.5817 252 85V102C252 106.418 255.582 110 260 110H316L324 117L332 110H386C390.418 110 394 106.418 394 102V85C394 80.5817 390.418 77 386 77H260Z" fill="#4267B2"/>
</g>
<path d="M263.217 98V88.991H269.249V90.694H265.245V92.579H268.807V94.282H265.245V98H263.217ZM272.847 96.648C273.038 96.648 273.22 96.6437 273.393 96.635C273.567 96.6263 273.705 96.6133 273.809 96.596V95.127C273.731 95.1097 273.614 95.0923 273.458 95.075C273.302 95.0577 273.159 95.049 273.029 95.049C272.847 95.049 272.674 95.062 272.509 95.088C272.353 95.1053 272.215 95.1443 272.093 95.205C271.972 95.2657 271.877 95.348 271.807 95.452C271.738 95.556 271.703 95.686 271.703 95.842C271.703 96.1453 271.803 96.3577 272.002 96.479C272.21 96.5917 272.492 96.648 272.847 96.648ZM272.691 90.98C273.263 90.98 273.74 91.045 274.121 91.175C274.503 91.305 274.806 91.4913 275.031 91.734C275.265 91.9767 275.43 92.2713 275.525 92.618C275.621 92.9647 275.668 93.3503 275.668 93.775V97.805C275.391 97.8657 275.005 97.935 274.511 98.013C274.017 98.0997 273.419 98.143 272.717 98.143C272.275 98.143 271.872 98.104 271.508 98.026C271.153 97.948 270.845 97.8223 270.585 97.649C270.325 97.467 270.126 97.233 269.987 96.947C269.849 96.661 269.779 96.31 269.779 95.894C269.779 95.4953 269.857 95.1573 270.013 94.88C270.178 94.6027 270.395 94.3817 270.663 94.217C270.932 94.0523 271.24 93.9353 271.586 93.866C271.933 93.788 272.293 93.749 272.665 93.749C272.917 93.749 273.138 93.762 273.328 93.788C273.528 93.8053 273.688 93.8313 273.809 93.866V93.684C273.809 93.3547 273.71 93.0903 273.51 92.891C273.311 92.6917 272.964 92.592 272.47 92.592C272.141 92.592 271.816 92.618 271.495 92.67C271.175 92.7133 270.897 92.7783 270.663 92.865L270.416 91.305C270.529 91.2703 270.668 91.2357 270.832 91.201C271.006 91.1577 271.192 91.123 271.391 91.097C271.591 91.0623 271.799 91.0363 272.015 91.019C272.241 90.993 272.466 90.98 272.691 90.98ZM277.095 94.581C277.095 94.087 277.173 93.6233 277.329 93.19C277.493 92.748 277.727 92.3667 278.031 92.046C278.334 91.7167 278.702 91.4567 279.136 91.266C279.569 91.0753 280.063 90.98 280.618 90.98C280.982 90.98 281.315 91.0147 281.619 91.084C281.922 91.1447 282.217 91.2357 282.503 91.357L282.1 92.904C281.918 92.8347 281.718 92.774 281.502 92.722C281.285 92.67 281.042 92.644 280.774 92.644C280.202 92.644 279.773 92.8217 279.487 93.177C279.209 93.5323 279.071 94.0003 279.071 94.581C279.071 95.1963 279.201 95.673 279.461 96.011C279.729 96.349 280.193 96.518 280.852 96.518C281.086 96.518 281.337 96.4963 281.606 96.453C281.874 96.4097 282.121 96.3403 282.347 96.245L282.62 97.831C282.394 97.9263 282.113 98.0087 281.775 98.078C281.437 98.1473 281.064 98.182 280.657 98.182C280.033 98.182 279.495 98.091 279.045 97.909C278.594 97.7183 278.221 97.4627 277.927 97.142C277.641 96.8213 277.428 96.4443 277.29 96.011C277.16 95.569 277.095 95.0923 277.095 94.581ZM283.265 94.633C283.265 94.0263 283.356 93.4977 283.538 93.047C283.728 92.5877 283.975 92.2063 284.279 91.903C284.582 91.5997 284.929 91.37 285.319 91.214C285.717 91.058 286.125 90.98 286.541 90.98C287.511 90.98 288.278 91.279 288.842 91.877C289.405 92.4663 289.687 93.3373 289.687 94.49C289.687 94.6027 289.682 94.7283 289.674 94.867C289.665 94.997 289.656 95.114 289.648 95.218H285.254C285.297 95.6167 285.483 95.933 285.813 96.167C286.142 96.401 286.584 96.518 287.139 96.518C287.494 96.518 287.841 96.4877 288.179 96.427C288.525 96.3577 288.807 96.2753 289.024 96.18L289.284 97.753C289.18 97.805 289.041 97.857 288.868 97.909C288.694 97.961 288.499 98.0043 288.283 98.039C288.075 98.0823 287.849 98.117 287.607 98.143C287.364 98.169 287.121 98.182 286.879 98.182C286.263 98.182 285.726 98.091 285.267 97.909C284.816 97.727 284.439 97.48 284.136 97.168C283.841 96.8473 283.62 96.4703 283.473 96.037C283.334 95.6037 283.265 95.1357 283.265 94.633ZM287.815 93.892C287.806 93.7273 287.776 93.567 287.724 93.411C287.68 93.255 287.607 93.1163 287.503 92.995C287.407 92.8737 287.282 92.774 287.126 92.696C286.978 92.618 286.792 92.579 286.567 92.579C286.35 92.579 286.164 92.618 286.008 92.696C285.852 92.7653 285.722 92.8607 285.618 92.982C285.514 93.1033 285.431 93.2463 285.371 93.411C285.319 93.567 285.28 93.7273 285.254 93.892H287.815ZM295.562 94.529C295.562 93.281 295.103 92.657 294.184 92.657C293.985 92.657 293.786 92.683 293.586 92.735C293.396 92.787 293.24 92.852 293.118 92.93V96.453C293.214 96.4703 293.335 96.4877 293.482 96.505C293.63 96.5137 293.79 96.518 293.963 96.518C294.492 96.518 294.891 96.336 295.159 95.972C295.428 95.608 295.562 95.127 295.562 94.529ZM297.538 94.581C297.538 95.127 297.456 95.621 297.291 96.063C297.135 96.505 296.906 96.882 296.602 97.194C296.299 97.506 295.926 97.7487 295.484 97.922C295.042 98.0867 294.54 98.169 293.976 98.169C293.742 98.169 293.495 98.156 293.235 98.13C292.984 98.1127 292.733 98.0867 292.481 98.052C292.239 98.0173 292.005 97.9783 291.779 97.935C291.554 97.883 291.355 97.831 291.181 97.779V88.224L293.118 87.912V91.318C293.335 91.2227 293.56 91.149 293.794 91.097C294.028 91.045 294.28 91.019 294.548 91.019C295.034 91.019 295.463 91.1057 295.835 91.279C296.208 91.4437 296.52 91.682 296.771 91.994C297.023 92.306 297.213 92.683 297.343 93.125C297.473 93.5583 297.538 94.0437 297.538 94.581ZM305.423 94.568C305.423 95.1053 305.345 95.5993 305.189 96.05C305.033 96.492 304.808 96.8733 304.513 97.194C304.219 97.506 303.863 97.7487 303.447 97.922C303.04 98.0953 302.581 98.182 302.069 98.182C301.567 98.182 301.107 98.0953 300.691 97.922C300.284 97.7487 299.933 97.506 299.638 97.194C299.344 96.8733 299.114 96.492 298.949 96.05C298.785 95.5993 298.702 95.1053 298.702 94.568C298.702 94.0307 298.785 93.541 298.949 93.099C299.123 92.657 299.357 92.28 299.651 91.968C299.955 91.656 300.31 91.4133 300.717 91.24C301.133 91.0667 301.584 90.98 302.069 90.98C302.563 90.98 303.014 91.0667 303.421 91.24C303.837 91.4133 304.193 91.656 304.487 91.968C304.782 92.28 305.012 92.657 305.176 93.099C305.341 93.541 305.423 94.0307 305.423 94.568ZM303.447 94.568C303.447 93.97 303.326 93.502 303.083 93.164C302.849 92.8173 302.511 92.644 302.069 92.644C301.627 92.644 301.285 92.8173 301.042 93.164C300.8 93.502 300.678 93.97 300.678 94.568C300.678 95.166 300.8 95.6427 301.042 95.998C301.285 96.3447 301.627 96.518 302.069 96.518C302.511 96.518 302.849 96.3447 303.083 95.998C303.326 95.6427 303.447 95.166 303.447 94.568ZM313.32 94.568C313.32 95.1053 313.242 95.5993 313.086 96.05C312.93 96.492 312.704 96.8733 312.41 97.194C312.115 97.506 311.76 97.7487 311.344 97.922C310.936 98.0953 310.477 98.182 309.966 98.182C309.463 98.182 309.004 98.0953 308.588 97.922C308.18 97.7487 307.829 97.506 307.535 97.194C307.24 96.8733 307.01 96.492 306.846 96.05C306.681 95.5993 306.599 95.1053 306.599 94.568C306.599 94.0307 306.681 93.541 306.846 93.099C307.019 92.657 307.253 92.28 307.548 91.968C307.851 91.656 308.206 91.4133 308.614 91.24C309.03 91.0667 309.48 90.98 309.966 90.98C310.46 90.98 310.91 91.0667 311.318 91.24C311.734 91.4133 312.089 91.656 312.384 91.968C312.678 92.28 312.908 92.657 313.073 93.099C313.237 93.541 313.32 94.0307 313.32 94.568ZM311.344 94.568C311.344 93.97 311.222 93.502 310.98 93.164C310.746 92.8173 310.408 92.644 309.966 92.644C309.524 92.644 309.181 92.8173 308.939 93.164C308.696 93.502 308.575 93.97 308.575 94.568C308.575 95.166 308.696 95.6427 308.939 95.998C309.181 96.3447 309.524 96.518 309.966 96.518C310.408 96.518 310.746 96.3447 310.98 95.998C311.222 95.6427 311.344 95.166 311.344 94.568ZM316.757 93.632C316.948 93.424 317.143 93.2073 317.342 92.982C317.55 92.7567 317.749 92.5357 317.94 92.319C318.131 92.0937 318.308 91.8813 318.473 91.682C318.646 91.4827 318.794 91.3093 318.915 91.162H321.216C320.757 91.6907 320.306 92.1977 319.864 92.683C319.431 93.1597 318.954 93.6537 318.434 94.165C318.694 94.399 318.963 94.6807 319.24 95.01C319.517 95.3307 319.786 95.6643 320.046 96.011C320.306 96.3577 320.544 96.7043 320.761 97.051C320.978 97.3977 321.16 97.714 321.307 98H319.084C318.945 97.7747 318.785 97.5277 318.603 97.259C318.43 96.9817 318.243 96.7087 318.044 96.44C317.845 96.1627 317.632 95.8983 317.407 95.647C317.19 95.3957 316.974 95.1833 316.757 95.01V98H314.82V88.224L316.757 87.912V93.632ZM331.634 98C331.538 97.688 331.43 97.3673 331.309 97.038C331.196 96.7087 331.083 96.3793 330.971 96.05H327.461C327.348 96.3793 327.231 96.7087 327.11 97.038C326.997 97.3673 326.893 97.688 326.798 98H324.692C325.03 97.0293 325.35 96.1323 325.654 95.309C325.957 94.4857 326.252 93.71 326.538 92.982C326.832 92.254 327.118 91.565 327.396 90.915C327.682 90.2563 327.976 89.615 328.28 88.991H330.217C330.511 89.615 330.802 90.2563 331.088 90.915C331.374 91.565 331.66 92.254 331.946 92.982C332.24 93.71 332.539 94.4857 332.843 95.309C333.146 96.1323 333.467 97.0293 333.805 98H331.634ZM329.203 91.032C329.159 91.162 329.094 91.3397 329.008 91.565C328.921 91.7903 328.821 92.0503 328.709 92.345C328.596 92.6397 328.47 92.9647 328.332 93.32C328.202 93.6753 328.067 94.048 327.929 94.438H330.49C330.351 94.048 330.217 93.6753 330.087 93.32C329.957 92.9647 329.831 92.6397 329.71 92.345C329.597 92.0503 329.497 91.7903 329.411 91.565C329.324 91.3397 329.255 91.162 329.203 91.032ZM336.352 94.529C336.352 95.127 336.486 95.608 336.755 95.972C337.024 96.336 337.422 96.518 337.951 96.518C338.124 96.518 338.285 96.5137 338.432 96.505C338.579 96.4877 338.701 96.4703 338.796 96.453V92.93C338.675 92.852 338.514 92.787 338.315 92.735C338.124 92.683 337.929 92.657 337.73 92.657C336.811 92.657 336.352 93.281 336.352 94.529ZM340.733 97.779C340.56 97.831 340.36 97.883 340.135 97.935C339.91 97.9783 339.671 98.0173 339.42 98.052C339.177 98.0867 338.926 98.1127 338.666 98.13C338.415 98.156 338.172 98.169 337.938 98.169C337.375 98.169 336.872 98.0867 336.43 97.922C335.988 97.7573 335.615 97.5233 335.312 97.22C335.009 96.908 334.775 96.5353 334.61 96.102C334.454 95.66 334.376 95.166 334.376 94.62C334.376 94.0653 334.445 93.567 334.584 93.125C334.723 92.6743 334.922 92.293 335.182 91.981C335.442 91.669 335.758 91.4307 336.131 91.266C336.512 91.1013 336.946 91.019 337.431 91.019C337.7 91.019 337.938 91.045 338.146 91.097C338.363 91.149 338.579 91.2227 338.796 91.318V88.224L340.733 87.912V97.779ZM344.51 96.609C344.865 96.609 345.116 96.5743 345.264 96.505C345.411 96.4357 345.485 96.3013 345.485 96.102C345.485 95.946 345.389 95.8117 345.199 95.699C345.008 95.5777 344.718 95.4433 344.328 95.296C344.024 95.1833 343.747 95.0663 343.496 94.945C343.253 94.8237 343.045 94.6807 342.872 94.516C342.698 94.3427 342.564 94.139 342.469 93.905C342.373 93.671 342.326 93.3893 342.326 93.06C342.326 92.4187 342.564 91.9117 343.041 91.539C343.517 91.1663 344.172 90.98 345.004 90.98C345.42 90.98 345.818 91.019 346.2 91.097C346.581 91.1663 346.884 91.2443 347.11 91.331L346.772 92.839C346.546 92.761 346.299 92.6917 346.031 92.631C345.771 92.5703 345.476 92.54 345.147 92.54C344.54 92.54 344.237 92.709 344.237 93.047C344.237 93.125 344.25 93.1943 344.276 93.255C344.302 93.3157 344.354 93.3763 344.432 93.437C344.51 93.489 344.614 93.5497 344.744 93.619C344.882 93.6797 345.056 93.749 345.264 93.827C345.688 93.983 346.039 94.139 346.317 94.295C346.594 94.4423 346.811 94.607 346.967 94.789C347.131 94.9623 347.244 95.1573 347.305 95.374C347.374 95.5907 347.409 95.842 347.409 96.128C347.409 96.804 347.153 97.3153 346.642 97.662C346.139 98.0087 345.424 98.182 344.497 98.182C343.89 98.182 343.383 98.13 342.976 98.026C342.577 97.922 342.3 97.8353 342.144 97.766L342.469 96.193C342.798 96.323 343.136 96.427 343.483 96.505C343.829 96.5743 344.172 96.609 344.51 96.609ZM350.754 92.358C350.754 92.748 350.629 93.047 350.377 93.255C350.135 93.4543 349.857 93.554 349.545 93.554C349.233 93.554 348.952 93.4543 348.7 93.255C348.458 93.047 348.336 92.748 348.336 92.358C348.336 91.968 348.458 91.6733 348.7 91.474C348.952 91.266 349.233 91.162 349.545 91.162C349.857 91.162 350.135 91.266 350.377 91.474C350.629 91.6733 350.754 91.968 350.754 92.358ZM350.754 96.973C350.754 97.363 350.629 97.662 350.377 97.87C350.135 98.0693 349.857 98.169 349.545 98.169C349.233 98.169 348.952 98.0693 348.7 97.87C348.458 97.662 348.336 97.363 348.336 96.973C348.336 96.583 348.458 96.2883 348.7 96.089C348.952 95.881 349.233 95.777 349.545 95.777C349.857 95.777 350.135 95.881 350.377 96.089C350.629 96.2883 350.754 96.583 350.754 96.973ZM357.142 97.87C356.509 97.818 355.993 97.7227 355.595 97.584C355.205 97.4367 354.914 97.3153 354.724 97.22L355.283 95.725C355.586 95.8723 355.946 96.0067 356.362 96.128C356.786 96.2493 357.233 96.31 357.701 96.31C358.229 96.31 358.589 96.2407 358.78 96.102C358.979 95.9547 359.079 95.751 359.079 95.491C359.079 95.3263 359.04 95.1877 358.962 95.075C358.884 94.9537 358.771 94.8453 358.624 94.75C358.476 94.6547 358.29 94.5637 358.065 94.477C357.839 94.3817 357.579 94.282 357.285 94.178C356.999 94.074 356.717 93.9613 356.44 93.84C356.171 93.71 355.924 93.554 355.699 93.372C355.482 93.19 355.304 92.969 355.166 92.709C355.036 92.4403 354.971 92.1197 354.971 91.747C354.971 91.461 355.01 91.188 355.088 90.928C355.174 90.6593 355.304 90.4167 355.478 90.2C355.651 89.9833 355.876 89.8013 356.154 89.654C356.431 89.498 356.76 89.3853 357.142 89.316V87.912H358.78V89.264C359.23 89.3073 359.616 89.3723 359.937 89.459C360.266 89.5457 360.526 89.6323 360.717 89.719L360.314 91.279C360.028 91.1577 359.694 91.0537 359.313 90.967C358.94 90.8803 358.546 90.837 358.13 90.837C357.714 90.837 357.415 90.9063 357.233 91.045C357.051 91.1837 356.96 91.3657 356.96 91.591C356.96 91.7297 356.986 91.851 357.038 91.955C357.098 92.0503 357.189 92.137 357.311 92.215C357.432 92.293 357.579 92.371 357.753 92.449C357.935 92.5183 358.151 92.5963 358.403 92.683C358.784 92.8217 359.135 92.9733 359.456 93.138C359.785 93.3027 360.067 93.4933 360.301 93.71C360.543 93.918 360.73 94.165 360.86 94.451C360.998 94.737 361.068 95.0707 361.068 95.452C361.068 95.712 361.029 95.972 360.951 96.232C360.873 96.4833 360.743 96.7173 360.561 96.934C360.379 97.1507 360.14 97.337 359.846 97.493C359.56 97.649 359.204 97.7617 358.78 97.831V99.417H357.142V97.87ZM366.337 95.348C366.337 95.0967 366.281 94.8757 366.168 94.685C366.056 94.4857 365.861 94.321 365.583 94.191C365.306 94.061 364.933 93.9613 364.465 93.892C363.997 93.8227 363.408 93.788 362.697 93.788C362.793 92.982 362.871 92.163 362.931 91.331C362.992 90.499 363.04 89.719 363.074 88.991H367.949V90.616H364.699C364.682 90.928 364.66 91.2313 364.634 91.526C364.617 91.812 364.595 92.0633 364.569 92.28C365.835 92.3667 366.766 92.6657 367.364 93.177C367.971 93.6797 368.274 94.3817 368.274 95.283C368.274 95.699 368.201 96.0847 368.053 96.44C367.906 96.7953 367.685 97.103 367.39 97.363C367.096 97.623 366.723 97.8267 366.272 97.974C365.83 98.1213 365.31 98.195 364.712 98.195C364.478 98.195 364.231 98.1777 363.971 98.143C363.72 98.117 363.473 98.078 363.23 98.026C362.996 97.9827 362.784 97.935 362.593 97.883C362.403 97.831 362.255 97.779 362.151 97.727L362.502 96.128C362.719 96.2233 363.005 96.3187 363.36 96.414C363.716 96.5007 364.14 96.544 364.634 96.544C365.232 96.544 365.666 96.427 365.934 96.193C366.203 95.9503 366.337 95.6687 366.337 95.348ZM375.936 95.491C375.936 95.881 375.867 96.2407 375.728 96.57C375.598 96.8907 375.399 97.1723 375.13 97.415C374.861 97.6577 374.523 97.8483 374.116 97.987C373.717 98.117 373.254 98.182 372.725 98.182C372.118 98.182 371.611 98.0997 371.204 97.935C370.805 97.7617 370.48 97.5493 370.229 97.298C369.986 97.0467 369.813 96.7737 369.709 96.479C369.605 96.1757 369.553 95.8983 369.553 95.647C369.553 95.387 369.588 95.1487 369.657 94.932C369.726 94.7153 369.822 94.5203 369.943 94.347C370.064 94.165 370.199 94.0003 370.346 93.853C370.502 93.7057 370.667 93.567 370.84 93.437C370.467 93.1337 370.19 92.8347 370.008 92.54C369.835 92.2453 369.748 91.8683 369.748 91.409C369.748 91.0623 369.817 90.7287 369.956 90.408C370.103 90.0873 370.307 89.81 370.567 89.576C370.827 89.3333 371.139 89.1427 371.503 89.004C371.876 88.8567 372.287 88.783 372.738 88.783C373.267 88.783 373.717 88.861 374.09 89.017C374.471 89.1643 374.783 89.355 375.026 89.589C375.269 89.823 375.442 90.0873 375.546 90.382C375.659 90.668 375.715 90.954 375.715 91.24C375.715 91.656 375.602 92.046 375.377 92.41C375.16 92.7653 374.887 93.047 374.558 93.255C375.052 93.5757 375.403 93.9137 375.611 94.269C375.828 94.6157 375.936 95.023 375.936 95.491ZM371.438 95.569C371.438 95.673 371.46 95.79 371.503 95.92C371.555 96.0413 371.633 96.154 371.737 96.258C371.841 96.362 371.975 96.4487 372.14 96.518C372.305 96.5873 372.504 96.622 372.738 96.622C373.189 96.622 373.518 96.5137 373.726 96.297C373.934 96.0803 374.038 95.8377 374.038 95.569C374.038 95.3697 373.99 95.192 373.895 95.036C373.808 94.88 373.687 94.7457 373.531 94.633C373.375 94.5117 373.189 94.4077 372.972 94.321C372.764 94.2257 372.539 94.139 372.296 94.061C372.053 94.243 371.85 94.4553 371.685 94.698C371.52 94.9407 371.438 95.231 371.438 95.569ZM373.843 91.292C373.843 91.1967 373.821 91.097 373.778 90.993C373.743 90.8803 373.678 90.7763 373.583 90.681C373.496 90.5857 373.384 90.5077 373.245 90.447C373.106 90.3777 372.937 90.343 372.738 90.343C372.547 90.343 372.383 90.3733 372.244 90.434C372.105 90.4947 371.988 90.577 371.893 90.681C371.806 90.7763 371.741 90.8803 371.698 90.993C371.655 91.1057 371.633 91.214 371.633 91.318C371.633 91.5953 371.733 91.8553 371.932 92.098C372.14 92.3407 372.491 92.5487 372.985 92.722C373.262 92.5487 373.475 92.3493 373.622 92.124C373.769 91.8987 373.843 91.6213 373.843 91.292ZM380.582 91.357C380.244 91.799 379.884 92.28 379.503 92.8C379.121 93.32 378.801 93.853 378.541 94.399H380.582V91.357ZM382.48 88.991V94.399H383.442V95.985H382.48V98H380.582V95.985H376.695V94.568C376.885 94.1867 377.124 93.7577 377.41 93.281C377.696 92.7957 378.012 92.3017 378.359 91.799C378.714 91.2877 379.087 90.7893 379.477 90.304C379.867 89.8187 380.257 89.381 380.647 88.991H382.48Z" fill="white"/>
<circle cx="96" cy="103" r="4" fill="#4267B2"/>
<circle cx="39" cy="124" r="4" fill="#4267B2"/>
<circle cx="153" cy="226" r="4" fill="#4267B2"/>
<circle cx="210" cy="190" r="4" fill="#4267B2"/>
<circle cx="267" cy="201" r="4" fill="#4267B2"/>
<circle cx="324" cy="132" r="4" fill="#4267B2"/>
<circle cx="381" cy="140" r="4" fill="#4267B2"/>
<circle cx="438" cy="49" r="4" fill="#4267B2"/>
<circle cx="499" cy="18" r="4" fill="#4267B2"/>
<path d="M39 124C39 124 66 103 96 103C126 103 123 226.5 153 226.5C183 226.5 180 189.5 210 189.5C240 189.5 237 201.5 267 201.5C297 201.5 294 132 324 132C354 132 351 140.5 381 140.5C411 140.5 408 49 438 49C468 49 499 18 499 18" stroke="#4267B2" stroke-width="2"/>
<circle cx="153" cy="84" r="12" fill="#BCECCC"/>
<g filter="url(#filter1_d)">
<path fill-rule="evenodd" clip-rule="evenodd" d="M108 29C103.582 29 100 32.5817 100 37V54C100 58.4183 103.582 62 108 62H145L153 69L161 62H197C201.418 62 205 58.4183 205 54V37C205 32.5817 201.418 29 197 29H108Z" fill="#20BF55"/>
</g>
<path d="M113.018 45.489C113.018 45.931 113.07 46.3297 113.174 46.685C113.287 47.0403 113.443 47.348 113.642 47.608C113.85 47.8593 114.102 48.0543 114.396 48.193C114.691 48.3317 115.029 48.401 115.41 48.401C115.783 48.401 116.117 48.3317 116.411 48.193C116.715 48.0543 116.966 47.8593 117.165 47.608C117.373 47.348 117.529 47.0403 117.633 46.685C117.746 46.3297 117.802 45.931 117.802 45.489C117.802 45.047 117.746 44.6483 117.633 44.293C117.529 43.929 117.373 43.6213 117.165 43.37C116.966 43.11 116.715 42.9107 116.411 42.772C116.117 42.6333 115.783 42.564 115.41 42.564C115.029 42.564 114.691 42.6377 114.396 42.785C114.102 42.9237 113.85 43.123 113.642 43.383C113.443 43.6343 113.287 43.942 113.174 44.306C113.07 44.6613 113.018 45.0557 113.018 45.489ZM119.895 45.489C119.895 46.2603 119.778 46.9407 119.544 47.53C119.319 48.1107 119.007 48.6003 118.608 48.999C118.21 49.389 117.733 49.6837 117.178 49.883C116.632 50.0823 116.043 50.182 115.41 50.182C114.795 50.182 114.214 50.0823 113.668 49.883C113.122 49.6837 112.646 49.389 112.238 48.999C111.831 48.6003 111.51 48.1107 111.276 47.53C111.042 46.9407 110.925 46.2603 110.925 45.489C110.925 44.7177 111.047 44.0417 111.289 43.461C111.532 42.8717 111.857 42.3777 112.264 41.979C112.68 41.5803 113.157 41.2813 113.694 41.082C114.24 40.8827 114.812 40.783 115.41 40.783C116.026 40.783 116.606 40.8827 117.152 41.082C117.698 41.2813 118.175 41.5803 118.582 41.979C118.99 42.3777 119.31 42.8717 119.544 43.461C119.778 44.0417 119.895 44.7177 119.895 45.489ZM125.577 44.878C125.404 44.8347 125.2 44.7913 124.966 44.748C124.732 44.696 124.481 44.67 124.212 44.67C124.091 44.67 123.943 44.683 123.77 44.709C123.605 44.7263 123.48 44.748 123.393 44.774V50H121.456V43.526C121.803 43.4047 122.21 43.292 122.678 43.188C123.155 43.0753 123.683 43.019 124.264 43.019C124.368 43.019 124.494 43.0277 124.641 43.045C124.788 43.0537 124.936 43.071 125.083 43.097C125.23 43.1143 125.378 43.1403 125.525 43.175C125.672 43.201 125.798 43.2357 125.902 43.279L125.577 44.878ZM128.464 46.36C128.464 47.4433 128.902 47.985 129.777 47.985C129.977 47.985 130.163 47.959 130.336 47.907C130.51 47.855 130.657 47.7943 130.778 47.725V44.631C130.683 44.6137 130.57 44.6007 130.44 44.592C130.31 44.5747 130.159 44.566 129.985 44.566C129.474 44.566 129.093 44.735 128.841 45.073C128.59 45.411 128.464 45.84 128.464 46.36ZM132.715 49.142C132.715 50.26 132.429 51.0877 131.857 51.625C131.294 52.171 130.419 52.444 129.231 52.444C128.815 52.444 128.399 52.405 127.983 52.327C127.567 52.2577 127.182 52.1623 126.826 52.041L127.164 50.416C127.468 50.5373 127.784 50.6327 128.113 50.702C128.451 50.7713 128.833 50.806 129.257 50.806C129.812 50.806 130.202 50.6847 130.427 50.442C130.661 50.1993 130.778 49.8873 130.778 49.506V49.259C130.57 49.3543 130.354 49.428 130.128 49.48C129.912 49.5233 129.673 49.545 129.413 49.545C128.469 49.545 127.745 49.2677 127.242 48.713C126.74 48.1497 126.488 47.3653 126.488 46.36C126.488 45.8573 126.566 45.4023 126.722 44.995C126.878 44.579 127.104 44.2237 127.398 43.929C127.702 43.6343 128.07 43.409 128.503 43.253C128.937 43.0883 129.426 43.006 129.972 43.006C130.206 43.006 130.445 43.019 130.687 43.045C130.939 43.0623 131.186 43.0883 131.428 43.123C131.671 43.1577 131.901 43.201 132.117 43.253C132.343 43.2963 132.542 43.344 132.715 43.396V49.142ZM137.145 48.648C137.336 48.648 137.518 48.6437 137.691 48.635C137.864 48.6263 138.003 48.6133 138.107 48.596V47.127C138.029 47.1097 137.912 47.0923 137.756 47.075C137.6 47.0577 137.457 47.049 137.327 47.049C137.145 47.049 136.972 47.062 136.807 47.088C136.651 47.1053 136.512 47.1443 136.391 47.205C136.27 47.2657 136.174 47.348 136.105 47.452C136.036 47.556 136.001 47.686 136.001 47.842C136.001 48.1453 136.101 48.3577 136.3 48.479C136.508 48.5917 136.79 48.648 137.145 48.648ZM136.989 42.98C137.561 42.98 138.038 43.045 138.419 43.175C138.8 43.305 139.104 43.4913 139.329 43.734C139.563 43.9767 139.728 44.2713 139.823 44.618C139.918 44.9647 139.966 45.3503 139.966 45.775V49.805C139.689 49.8657 139.303 49.935 138.809 50.013C138.315 50.0997 137.717 50.143 137.015 50.143C136.573 50.143 136.17 50.104 135.806 50.026C135.451 49.948 135.143 49.8223 134.883 49.649C134.623 49.467 134.424 49.233 134.285 48.947C134.146 48.661 134.077 48.31 134.077 47.894C134.077 47.4953 134.155 47.1573 134.311 46.88C134.476 46.6027 134.692 46.3817 134.961 46.217C135.23 46.0523 135.537 45.9353 135.884 45.866C136.231 45.788 136.59 45.749 136.963 45.749C137.214 45.749 137.435 45.762 137.626 45.788C137.825 45.8053 137.986 45.8313 138.107 45.866V45.684C138.107 45.3547 138.007 45.0903 137.808 44.891C137.609 44.6917 137.262 44.592 136.768 44.592C136.439 44.592 136.114 44.618 135.793 44.67C135.472 44.7133 135.195 44.7783 134.961 44.865L134.714 43.305C134.827 43.2703 134.965 43.2357 135.13 43.201C135.303 43.1577 135.49 43.123 135.689 43.097C135.888 43.0623 136.096 43.0363 136.313 43.019C136.538 42.993 136.764 42.98 136.989 42.98ZM141.718 43.396C142.047 43.3007 142.472 43.214 142.992 43.136C143.512 43.0493 144.058 43.006 144.63 43.006C145.21 43.006 145.691 43.084 146.073 43.24C146.463 43.3873 146.77 43.5997 146.996 43.877C147.221 44.1543 147.381 44.4837 147.477 44.865C147.572 45.2463 147.62 45.671 147.62 46.139V50H145.683V46.373C145.683 45.749 145.6 45.307 145.436 45.047C145.271 44.787 144.963 44.657 144.513 44.657C144.374 44.657 144.227 44.6657 144.071 44.683C143.915 44.6917 143.776 44.7047 143.655 44.722V50H141.718V43.396ZM151.31 50H149.373V43.162H151.31V50ZM151.492 41.186C151.492 41.5413 151.375 41.823 151.141 42.031C150.916 42.2303 150.647 42.33 150.335 42.33C150.023 42.33 149.75 42.2303 149.516 42.031C149.291 41.823 149.178 41.5413 149.178 41.186C149.178 40.8307 149.291 40.5533 149.516 40.354C149.75 40.146 150.023 40.042 150.335 40.042C150.647 40.042 150.916 40.146 151.141 40.354C151.375 40.5533 151.492 40.8307 151.492 41.186ZM152.806 46.581C152.806 46.087 152.884 45.6233 153.04 45.19C153.204 44.748 153.438 44.3667 153.742 44.046C154.045 43.7167 154.413 43.4567 154.847 43.266C155.28 43.0753 155.774 42.98 156.329 42.98C156.693 42.98 157.026 43.0147 157.33 43.084C157.633 43.1447 157.928 43.2357 158.214 43.357L157.811 44.904C157.629 44.8347 157.429 44.774 157.213 44.722C156.996 44.67 156.753 44.644 156.485 44.644C155.913 44.644 155.484 44.8217 155.198 45.177C154.92 45.5323 154.782 46.0003 154.782 46.581C154.782 47.1963 154.912 47.673 155.172 48.011C155.44 48.349 155.904 48.518 156.563 48.518C156.797 48.518 157.048 48.4963 157.317 48.453C157.585 48.4097 157.832 48.3403 158.058 48.245L158.331 49.831C158.105 49.9263 157.824 50.0087 157.486 50.078C157.148 50.1473 156.775 50.182 156.368 50.182C155.744 50.182 155.206 50.091 154.756 49.909C154.305 49.7183 153.932 49.4627 153.638 49.142C153.352 48.8213 153.139 48.4443 153.001 48.011C152.871 47.569 152.806 47.0923 152.806 46.581ZM161.656 44.358C161.656 44.748 161.53 45.047 161.279 45.255C161.036 45.4543 160.759 45.554 160.447 45.554C160.135 45.554 159.853 45.4543 159.602 45.255C159.359 45.047 159.238 44.748 159.238 44.358C159.238 43.968 159.359 43.6733 159.602 43.474C159.853 43.266 160.135 43.162 160.447 43.162C160.759 43.162 161.036 43.266 161.279 43.474C161.53 43.6733 161.656 43.968 161.656 44.358ZM161.656 48.973C161.656 49.363 161.53 49.662 161.279 49.87C161.036 50.0693 160.759 50.169 160.447 50.169C160.135 50.169 159.853 50.0693 159.602 49.87C159.359 49.662 159.238 49.363 159.238 48.973C159.238 48.583 159.359 48.2883 159.602 48.089C159.853 47.881 160.135 47.777 160.447 47.777C160.759 47.777 161.036 47.881 161.279 48.089C161.53 48.2883 161.656 48.583 161.656 48.973ZM168.043 49.87C167.41 49.818 166.895 49.7227 166.496 49.584C166.106 49.4367 165.816 49.3153 165.625 49.22L166.184 47.725C166.487 47.8723 166.847 48.0067 167.263 48.128C167.688 48.2493 168.134 48.31 168.602 48.31C169.131 48.31 169.49 48.2407 169.681 48.102C169.88 47.9547 169.98 47.751 169.98 47.491C169.98 47.3263 169.941 47.1877 169.863 47.075C169.785 46.9537 169.672 46.8453 169.525 46.75C169.378 46.6547 169.191 46.5637 168.966 46.477C168.741 46.3817 168.481 46.282 168.186 46.178C167.9 46.074 167.618 45.9613 167.341 45.84C167.072 45.71 166.825 45.554 166.6 45.372C166.383 45.19 166.206 44.969 166.067 44.709C165.937 44.4403 165.872 44.1197 165.872 43.747C165.872 43.461 165.911 43.188 165.989 42.928C166.076 42.6593 166.206 42.4167 166.379 42.2C166.552 41.9833 166.778 41.8013 167.055 41.654C167.332 41.498 167.662 41.3853 168.043 41.316V39.912H169.681V41.264C170.132 41.3073 170.517 41.3723 170.838 41.459C171.167 41.5457 171.427 41.6323 171.618 41.719L171.215 43.279C170.929 43.1577 170.595 43.0537 170.214 42.967C169.841 42.8803 169.447 42.837 169.031 42.837C168.615 42.837 168.316 42.9063 168.134 43.045C167.952 43.1837 167.861 43.3657 167.861 43.591C167.861 43.7297 167.887 43.851 167.939 43.955C168 44.0503 168.091 44.137 168.212 44.215C168.333 44.293 168.481 44.371 168.654 44.449C168.836 44.5183 169.053 44.5963 169.304 44.683C169.685 44.8217 170.036 44.9733 170.357 45.138C170.686 45.3027 170.968 45.4933 171.202 45.71C171.445 45.918 171.631 46.165 171.761 46.451C171.9 46.737 171.969 47.0707 171.969 47.452C171.969 47.712 171.93 47.972 171.852 48.232C171.774 48.4833 171.644 48.7173 171.462 48.934C171.28 49.1507 171.042 49.337 170.747 49.493C170.461 49.649 170.106 49.7617 169.681 49.831V51.417H168.043V49.87ZM176.121 45.762C175.93 45.762 175.726 45.7793 175.51 45.814C175.293 45.8487 175.124 45.8963 175.003 45.957C175.003 45.9917 174.998 46.0437 174.99 46.113C174.99 46.1823 174.99 46.243 174.99 46.295C174.99 46.607 175.011 46.9017 175.055 47.179C175.098 47.4563 175.172 47.699 175.276 47.907C175.38 48.115 175.518 48.2797 175.692 48.401C175.865 48.5137 176.082 48.57 176.342 48.57C176.558 48.57 176.74 48.5267 176.888 48.44C177.044 48.3447 177.169 48.2277 177.265 48.089C177.369 47.9503 177.442 47.7987 177.486 47.634C177.538 47.4607 177.564 47.296 177.564 47.14C177.564 46.698 177.451 46.36 177.226 46.126C177.009 45.8833 176.641 45.762 176.121 45.762ZM176.368 44.254C176.931 44.254 177.408 44.332 177.798 44.488C178.196 44.6353 178.521 44.839 178.773 45.099C179.024 45.359 179.206 45.6623 179.319 46.009C179.431 46.3557 179.488 46.724 179.488 47.114C179.488 47.4607 179.423 47.816 179.293 48.18C179.171 48.544 178.981 48.8733 178.721 49.168C178.469 49.4627 178.144 49.7053 177.746 49.896C177.356 50.0867 176.892 50.182 176.355 50.182C175.271 50.182 174.448 49.8397 173.885 49.155C173.321 48.4703 173.04 47.5257 173.04 46.321C173.04 45.4543 173.174 44.6873 173.443 44.02C173.711 43.3527 174.093 42.7937 174.587 42.343C175.089 41.8837 175.692 41.537 176.394 41.303C177.104 41.0603 177.902 40.9347 178.786 40.926C178.803 41.1947 178.82 41.459 178.838 41.719C178.855 41.9703 178.872 42.2347 178.89 42.512C178.448 42.5207 178.032 42.564 177.642 42.642C177.26 42.7113 176.909 42.824 176.589 42.98C176.277 43.136 176.004 43.3397 175.77 43.591C175.536 43.8337 175.354 44.1327 175.224 44.488C175.414 44.4013 175.609 44.3407 175.809 44.306C176.008 44.2713 176.194 44.254 176.368 44.254ZM186.889 45.476C186.889 46.9927 186.599 48.1583 186.018 48.973C185.446 49.779 184.653 50.182 183.639 50.182C182.625 50.182 181.828 49.779 181.247 48.973C180.675 48.1583 180.389 46.9927 180.389 45.476C180.389 44.722 180.463 44.0547 180.61 43.474C180.766 42.8933 180.987 42.4037 181.273 42.005C181.559 41.6063 181.902 41.303 182.3 41.095C182.699 40.887 183.145 40.783 183.639 40.783C184.653 40.783 185.446 41.1903 186.018 42.005C186.599 42.811 186.889 43.968 186.889 45.476ZM184.913 45.476C184.913 45.0253 184.892 44.618 184.848 44.254C184.805 43.8813 184.736 43.5607 184.64 43.292C184.545 43.0233 184.415 42.8153 184.25 42.668C184.086 42.5207 183.882 42.447 183.639 42.447C183.397 42.447 183.193 42.5207 183.028 42.668C182.872 42.8153 182.742 43.0233 182.638 43.292C182.543 43.5607 182.474 43.8813 182.43 44.254C182.387 44.618 182.365 45.0253 182.365 45.476C182.365 45.9267 182.387 46.3383 182.43 46.711C182.474 47.0837 182.543 47.4043 182.638 47.673C182.742 47.9417 182.872 48.1497 183.028 48.297C183.193 48.4443 183.397 48.518 183.639 48.518C183.882 48.518 184.086 48.4443 184.25 48.297C184.415 48.1497 184.545 47.9417 184.64 47.673C184.736 47.4043 184.805 47.0837 184.848 46.711C184.892 46.3383 184.913 45.9267 184.913 45.476ZM188.246 42.863C188.497 42.759 188.757 42.642 189.026 42.512C189.303 42.3733 189.572 42.226 189.832 42.07C190.092 41.9053 190.339 41.7363 190.573 41.563C190.816 41.381 191.032 41.1903 191.223 40.991H192.575V50H190.638V43.513C190.378 43.6863 190.088 43.8467 189.767 43.994C189.446 44.1327 189.134 44.254 188.831 44.358L188.246 42.863Z" fill="white"/>
<circle cx="96" cy="186" r="4" fill="#20BF55"/>
<circle cx="39" cy="157" r="4" fill="#20BF55"/>
<circle cx="153" cy="84" r="4" fill="#20BF55"/>
<circle cx="210" cy="142" r="4" fill="#20BF55"/>
<circle cx="267" cy="284" r="4" fill="#20BF55"/>
<circle cx="324" cy="235" r="4" fill="#20BF55"/>
<circle cx="381" cy="223" r="4" fill="#20BF55"/>
<circle cx="438" cy="161" r="4" fill="#20BF55"/>
<circle cx="499" cy="199" r="4" fill="#20BF55"/>
<path d="M39 157C39 157 66 186 96 186C126 186 123 84 153 84C183 84 180 142 210 142C240 142 237 284 267 284C297 284 294 235 324 235C354 235 351 223 381 223C411 223 408 161 438 161C468 161 499 199 499 199" stroke="#20BF55" stroke-width="2"/>
<defs>
<filter id="filter0_d" x="242" y="67" width="162" height="60" filterUnits="userSpaceOnUse" color-interpolation-filters="sRGB">
<feFlood flood-opacity="0" result="BackgroundImageFix"/>
<feColorMatrix in="SourceAlpha" type="matrix" values="0 0 0 0 0 0 0 0 0 0 0 0 0 0 0 0 0 0 127 0"/>
<feOffset/>
<feGaussianBlur stdDeviation="5"/>
<feColorMatrix type="matrix" values="0 0 0 0 0.258824 0 0 0 0 0.403922 0 0 0 0 0.698039 0 0 0 0.3 0"/>
<feBlend mode="normal" in2="BackgroundImageFix" result="effect1_dropShadow"/>
<feBlend mode="normal" in="SourceGraphic" in2="effect1_dropShadow" result="shape"/>
</filter>
<filter id="filter1_d" x="90" y="19" width="125" height="60" filterUnits="userSpaceOnUse" color-interpolation-filters="sRGB">
<feFlood flood-opacity="0" result="BackgroundImageFix"/>
<feColorMatrix in="SourceAlpha" type="matrix" values="0 0 0 0 0 0 0 0 0 0 0 0 0 0 0 0 0 0 127 0"/>
<feOffset/>
<feGaussianBlur stdDeviation="5"/>
<feColorMatrix type="matrix" values="0 0 0 0 0.258824 0 0 0 0 0.403922 0 0 0 0 0.698039 0 0 0 0.3 0"/>
<feBlend mode="normal" in2="BackgroundImageFix" result="effect1_dropShadow"/>
<feBlend mode="normal" in="SourceGraphic" in2="effect1_dropShadow" result="shape"/>
</filter>
</defs>
</svg>
