<svg width="540" height="189" viewBox="0 0 540 189" fill="none" xmlns="http://www.w3.org/2000/svg">
<rect x="5" y="5" width="530" height="179" fill="#F3F4F6"/>
<rect x="10" y="10" width="148" height="40" fill="#E4E7ED"/>
<path d="M49.328 35V27.213H46.26V26.329H53.319V27.213H50.264V35H49.328ZM53.705 35V29.033C53.809 28.9897 54.0084 28.916 54.303 28.812C54.6064 28.708 54.966 28.6127 55.382 28.526C55.8067 28.4393 56.2444 28.396 56.695 28.396C56.7644 28.396 56.8337 28.4047 56.903 28.422C56.9724 28.4393 57.0417 28.4567 57.111 28.474V29.306C56.8857 29.28 56.6647 29.267 56.448 29.267C56.24 29.267 56.0364 29.28 55.837 29.306C55.6377 29.3233 55.4384 29.3493 55.239 29.384C55.0397 29.4187 54.8404 29.4533 54.641 29.488V35H53.705ZM60.8414 35.195C60.5554 35.195 60.2651 35.1647 59.9704 35.104C59.6844 35.0433 59.4158 34.9393 59.1644 34.792C58.9218 34.6447 58.7224 34.4453 58.5664 34.194C58.4191 33.934 58.3454 33.609 58.3454 33.219C58.3454 32.6817 58.4451 32.2527 58.6444 31.932C58.8524 31.6027 59.1341 31.3687 59.4894 31.23C59.8534 31.0827 60.2694 31.009 60.7374 31.009C61.0928 31.009 61.4004 31.0307 61.6604 31.074C61.9204 31.1173 62.1501 31.1823 62.3494 31.269C62.5574 31.347 62.7438 31.438 62.9084 31.542L63.0904 32.4C62.8911 32.2527 62.6008 32.127 62.2194 32.023C61.8468 31.9103 61.4351 31.854 60.9844 31.854C60.4384 31.854 60.0181 31.958 59.7234 32.166C59.4288 32.374 59.2814 32.6773 59.2814 33.076C59.2814 33.3967 59.3681 33.6523 59.5414 33.843C59.7234 34.0337 59.9488 34.168 60.2174 34.246C60.4948 34.324 60.7764 34.363 61.0624 34.363C61.6258 34.363 62.0504 34.324 62.3364 34.246C62.6311 34.1593 62.7784 33.9687 62.7784 33.674V30.697C62.7784 30.1943 62.6311 29.826 62.3364 29.592C62.0418 29.358 61.6214 29.241 61.0754 29.241C60.7288 29.241 60.3604 29.293 59.9704 29.397C59.5891 29.4923 59.2598 29.6483 58.9824 29.865V28.929C59.2511 28.7557 59.6108 28.6257 60.0614 28.539C60.5121 28.4437 60.9498 28.396 61.3744 28.396C61.6604 28.396 61.9248 28.4263 62.1674 28.487C62.4101 28.539 62.6268 28.6213 62.8174 28.734C63.0081 28.838 63.1684 28.9767 63.2984 29.15C63.4371 29.3147 63.5411 29.5097 63.6104 29.735C63.6884 29.9517 63.7274 30.1987 63.7274 30.476V33.622C63.7274 34.0813 63.5888 34.4237 63.3114 34.649C63.0428 34.8743 62.6874 35.0217 62.2454 35.091C61.8121 35.1603 61.3441 35.195 60.8414 35.195ZM68.5207 35.104C68.174 35.104 67.8187 35.0607 67.4547 34.974C67.0993 34.8787 66.77 34.714 66.4667 34.48C66.172 34.2373 65.9337 33.895 65.7517 33.453C65.5697 33.011 65.4787 32.4433 65.4787 31.75C65.4787 31.0567 65.5697 30.4933 65.7517 30.06C65.9337 29.618 66.172 29.2757 66.4667 29.033C66.77 28.7903 67.0993 28.6257 67.4547 28.539C67.8187 28.4437 68.174 28.396 68.5207 28.396C68.85 28.396 69.175 28.4263 69.4957 28.487C69.825 28.5477 70.1413 28.6387 70.4447 28.76V29.657C70.1587 29.5357 69.864 29.4447 69.5607 29.384C69.2573 29.3233 68.9453 29.293 68.6247 29.293C67.8533 29.293 67.29 29.488 66.9347 29.878C66.588 30.268 66.4147 30.892 66.4147 31.75C66.4147 32.6167 66.588 33.245 66.9347 33.635C67.29 34.0163 67.8533 34.207 68.6247 34.207C68.9453 34.207 69.2573 34.1767 69.5607 34.116C69.864 34.0553 70.1587 33.9643 70.4447 33.843V34.753C70.1413 34.8657 69.825 34.9523 69.4957 35.013C69.175 35.0737 68.85 35.104 68.5207 35.104ZM72.9301 31.113L75.7771 28.513H76.9471L73.1381 31.88L72.9301 31.113ZM73.1381 35H72.2021V26.043H73.1381V35ZM73.3981 30.957L77.4151 35H76.1671L72.7611 31.555L73.3981 30.957ZM80.9358 35.195C80.3204 35.195 79.7874 35.0693 79.3368 34.818C78.8861 34.558 78.5394 34.1723 78.2968 33.661C78.0541 33.1497 77.9328 32.5127 77.9328 31.75C77.9328 30.632 78.1841 29.7957 78.6868 29.241C79.1981 28.6777 79.8958 28.396 80.7798 28.396C81.4731 28.396 82.0278 28.552 82.4438 28.864C82.8684 29.176 83.1718 29.5963 83.3538 30.125C83.5358 30.6537 83.6224 31.2517 83.6138 31.919H78.4008L78.4658 31.061H83.0028L82.6388 31.191C82.6128 30.541 82.4481 30.0557 82.1448 29.735C81.8501 29.4143 81.3951 29.254 80.7798 29.254C80.3551 29.254 79.9998 29.332 79.7138 29.488C79.4364 29.644 79.2284 29.917 79.0898 30.307C78.9511 30.6883 78.8818 31.2257 78.8818 31.919C78.8818 32.7077 79.0638 33.31 79.4278 33.726C79.8004 34.1333 80.3204 34.337 80.9878 34.337C81.3084 34.337 81.6031 34.3153 81.8718 34.272C82.1404 34.22 82.3874 34.1507 82.6128 34.064C82.8381 33.9773 83.0374 33.882 83.2108 33.778V34.74C82.8988 34.8873 82.5521 35 82.1708 35.078C81.7981 35.156 81.3864 35.195 80.9358 35.195ZM85.3671 35V29.033C85.4711 28.9897 85.6705 28.916 85.9651 28.812C86.2685 28.708 86.6281 28.6127 87.0441 28.526C87.4688 28.4393 87.9065 28.396 88.3571 28.396C88.4265 28.396 88.4958 28.4047 88.5651 28.422C88.6345 28.4393 88.7038 28.4567 88.7731 28.474V29.306C88.5478 29.28 88.3268 29.267 88.1101 29.267C87.9021 29.267 87.6985 29.28 87.4991 29.306C87.2998 29.3233 87.1005 29.3493 86.9011 29.384C86.7018 29.4187 86.5025 29.4533 86.3031 29.488V35H85.3671Z" fill="#454F76"/>
<path fill-rule="evenodd" clip-rule="evenodd" d="M28.9985 32.0015C28.1631 32.6285 27.1249 33 26 33C23.2386 33 21 30.7614 21 28C21 25.2386 23.2386 23 26 23C28.7614 23 31 25.2386 31 28C31 29.1249 30.6285 30.1631 30.0015 30.9985L28.9985 32.0015ZM29.4765 32.8907C28.4957 33.5892 27.2958 34 26 34C22.6863 34 20 31.3137 20 28C20 24.6863 22.6863 22 26 22C29.3137 22 32 24.6863 32 28C32 29.2958 31.5892 30.4957 30.8907 31.4765L35.7071 36.2929L34.2929 37.7071L29.4765 32.8907Z" fill="#96A1BD"/>
<rect x="161" y="10" width="121" height="40" fill="#E9ECF0"/>
<path d="M251.047 35.13C248.299 35.13 246.926 33.6393 246.926 30.658C246.926 27.6767 248.299 26.186 251.047 26.186C251.939 26.186 252.836 26.3983 253.738 26.823V28.11C252.906 27.6247 252.069 27.382 251.229 27.382C250.258 27.382 249.543 27.642 249.084 28.162C248.633 28.682 248.408 29.5183 248.408 30.671C248.408 31.8237 248.637 32.6557 249.097 33.167C249.556 33.6697 250.28 33.921 251.268 33.921C252.117 33.921 252.94 33.687 253.738 33.219V34.506C253.339 34.7053 252.901 34.8613 252.425 34.974C251.957 35.078 251.497 35.13 251.047 35.13ZM258.184 35.195C257.144 35.195 256.359 34.9003 255.831 34.311C255.311 33.7217 255.051 32.8637 255.051 31.737C255.051 29.4577 256.091 28.318 258.171 28.318C259.219 28.318 260.008 28.6127 260.537 29.202C261.065 29.7827 261.33 30.6277 261.33 31.737C261.33 32.8463 261.057 33.7 260.511 34.298C259.965 34.896 259.189 35.195 258.184 35.195ZM258.171 34.038C259.367 34.038 259.965 33.271 259.965 31.737C259.965 30.9743 259.822 30.4067 259.536 30.034C259.25 29.6527 258.795 29.462 258.171 29.462C257.538 29.462 257.083 29.657 256.806 30.047C256.537 30.4283 256.403 30.9917 256.403 31.737C256.403 32.4823 256.541 33.0543 256.819 33.453C257.105 33.843 257.555 34.038 258.171 34.038ZM264.789 35.195C264.356 35.195 263.979 35.1517 263.658 35.065C263.346 34.9783 263.008 34.8483 262.644 34.675V33.388C263.034 33.6307 263.39 33.8127 263.71 33.934C264.031 34.0467 264.391 34.103 264.789 34.103C265.162 34.103 265.452 34.0293 265.66 33.882C265.877 33.726 265.985 33.5267 265.985 33.284C265.985 33.05 265.899 32.8767 265.725 32.764C265.552 32.6513 265.283 32.53 264.919 32.4L264.62 32.296C264.014 32.1487 263.528 31.9363 263.164 31.659C262.809 31.3817 262.631 30.9483 262.631 30.359C262.631 29.8997 262.753 29.5183 262.995 29.215C263.238 28.9117 263.541 28.6907 263.905 28.552C264.278 28.4133 264.668 28.344 265.075 28.344C265.491 28.3527 265.842 28.4047 266.128 28.5C266.414 28.5867 266.726 28.7167 267.064 28.89V30.06C266.614 29.826 266.271 29.6657 266.037 29.579C265.812 29.4923 265.539 29.449 265.218 29.449C264.863 29.449 264.577 29.514 264.36 29.644C264.144 29.774 264.035 29.956 264.035 30.19C264.035 30.4673 264.144 30.671 264.36 30.801C264.577 30.9223 264.915 31.048 265.374 31.178C265.808 31.2993 266.15 31.4163 266.401 31.529C266.661 31.6417 266.887 31.828 267.077 32.088C267.277 32.3393 267.376 32.686 267.376 33.128C267.368 33.8213 267.112 34.3413 266.609 34.688C266.115 35.026 265.509 35.195 264.789 35.195ZM271.3 35.169C270.702 35.169 270.234 35.0087 269.896 34.688C269.558 34.3673 269.389 33.9123 269.389 33.323V29.605H268.336V28.474H269.389V26.654H270.793V28.474H272.379V29.605H270.793V33.05C270.793 33.3707 270.849 33.6047 270.962 33.752C271.074 33.8907 271.274 33.96 271.56 33.96C271.698 33.96 271.841 33.9427 271.989 33.908C272.145 33.8647 272.275 33.8127 272.379 33.752V34.961C272.075 35.0997 271.716 35.169 271.3 35.169Z" fill="#454F76"/>
<rect x="285" y="10" width="121" height="40" fill="#E4E7ED"/>
<path d="M351.089 35L349.061 31.724H347.228V35H345.798V26.329H349.646C350.556 26.329 351.25 26.55 351.726 26.992C352.212 27.4253 352.454 28.0753 352.454 28.942C352.454 29.566 352.281 30.112 351.934 30.58C351.596 31.048 351.137 31.347 350.556 31.477L352.87 35H351.089ZM347.228 30.554H349.243C349.815 30.554 350.24 30.4283 350.517 30.177C350.803 29.9257 350.946 29.5443 350.946 29.033C350.946 28.539 350.829 28.1663 350.595 27.915C350.37 27.6637 349.997 27.538 349.477 27.538H347.228V30.554ZM357.07 28.318C358.084 28.318 358.825 28.6473 359.293 29.306C359.77 29.956 360.004 30.8703 359.995 32.049H355.419C355.462 32.6903 355.649 33.18 355.978 33.518C356.316 33.8473 356.793 34.012 357.408 34.012C357.807 34.012 358.188 33.9643 358.552 33.869C358.916 33.765 359.237 33.635 359.514 33.479V34.753C358.838 35.0477 358.062 35.195 357.187 35.195C356.208 35.195 355.436 34.9003 354.873 34.311C354.318 33.713 354.041 32.868 354.041 31.776C354.041 30.658 354.305 29.8043 354.834 29.215C355.363 28.617 356.108 28.318 357.07 28.318ZM357.031 29.436C356.572 29.436 356.212 29.5573 355.952 29.8C355.692 30.0427 355.523 30.4543 355.445 31.035H358.604C358.543 30.4803 358.387 30.0773 358.136 29.826C357.885 29.566 357.516 29.436 357.031 29.436ZM367.425 28.474L364.669 35H363.304L360.561 28.474H362.03L364.097 33.505L366.008 28.474H367.425ZM371.022 28.318C372.036 28.318 372.777 28.6473 373.245 29.306C373.722 29.956 373.956 30.8703 373.947 32.049H369.371C369.414 32.6903 369.601 33.18 369.93 33.518C370.268 33.8473 370.745 34.012 371.36 34.012C371.759 34.012 372.14 33.9643 372.504 33.869C372.868 33.765 373.189 33.635 373.466 33.479V34.753C372.79 35.0477 372.014 35.195 371.139 35.195C370.16 35.195 369.388 34.9003 368.825 34.311C368.27 33.713 367.993 32.868 367.993 31.776C367.993 30.658 368.257 29.8043 368.786 29.215C369.315 28.617 370.06 28.318 371.022 28.318ZM370.983 29.436C370.524 29.436 370.164 29.5573 369.904 29.8C369.644 30.0427 369.475 30.4543 369.397 31.035H372.556C372.495 30.4803 372.339 30.0773 372.088 29.826C371.837 29.566 371.468 29.436 370.983 29.436ZM375.517 29.007C375.907 28.8077 376.379 28.6473 376.934 28.526C377.497 28.396 378.034 28.331 378.546 28.331C379.456 28.331 380.127 28.5217 380.561 28.903C380.994 29.2843 381.211 29.878 381.211 30.684V35H379.846V30.866C379.846 29.956 379.33 29.501 378.299 29.501C377.805 29.501 377.332 29.5833 376.882 29.748V35H375.517V29.007ZM386.02 35.195C385.11 35.195 384.399 34.974 383.888 34.532C383.385 34.0813 383.134 33.427 383.134 32.569V28.474H384.499V32.374C384.499 32.9287 384.62 33.3403 384.863 33.609C385.114 33.869 385.5 33.999 386.02 33.999C386.54 33.999 386.921 33.869 387.164 33.609C387.415 33.3403 387.541 32.9287 387.541 32.374V28.474H388.854V32.569C388.854 33.427 388.607 34.0813 388.113 34.532C387.619 34.974 386.921 35.195 386.02 35.195ZM393.467 28.318C394.481 28.318 395.222 28.6473 395.69 29.306C396.167 29.956 396.401 30.8703 396.392 32.049H391.816C391.86 32.6903 392.046 33.18 392.375 33.518C392.713 33.8473 393.19 34.012 393.805 34.012C394.204 34.012 394.585 33.9643 394.949 33.869C395.313 33.765 395.634 33.635 395.911 33.479V34.753C395.235 35.0477 394.46 35.195 393.584 35.195C392.605 35.195 391.834 34.9003 391.27 34.311C390.716 33.713 390.438 32.868 390.438 31.776C390.438 30.658 390.703 29.8043 391.231 29.215C391.76 28.617 392.505 28.318 393.467 28.318ZM393.428 29.436C392.969 29.436 392.609 29.5573 392.349 29.8C392.089 30.0427 391.92 30.4543 391.842 31.035H395.001C394.941 30.4803 394.785 30.0773 394.533 29.826C394.282 29.566 393.914 29.436 393.428 29.436Z" fill="#454F76"/>
<rect x="409" y="10" width="121" height="40" fill="#E4E7ED"/>
<path d="M455.325 35.156C453.991 35.156 452.972 34.7833 452.27 34.038C451.568 33.2927 451.217 32.166 451.217 30.658C451.217 29.1587 451.568 28.0407 452.27 27.304C452.972 26.5587 453.986 26.186 455.312 26.186C456.344 26.186 457.31 26.3853 458.211 26.784V28.162C457.683 27.9107 457.206 27.72 456.781 27.59C456.357 27.4513 455.928 27.382 455.494 27.382C454.532 27.382 453.817 27.642 453.349 28.162C452.89 28.682 452.66 29.514 452.66 30.658C452.66 31.802 452.89 32.634 453.349 33.154C453.817 33.674 454.519 33.934 455.455 33.934C456.088 33.934 456.638 33.8473 457.106 33.674V31.607H455.286V30.385H458.536V34.363C457.522 34.8917 456.452 35.156 455.325 35.156ZM460.529 29.072C460.772 28.9247 461.184 28.7643 461.764 28.591C462.345 28.4177 462.921 28.331 463.493 28.331C463.84 28.331 464.135 28.3873 464.377 28.5V29.592C464.135 29.5573 463.844 29.54 463.506 29.54C462.934 29.54 462.397 29.5833 461.894 29.67V35H460.529V29.072ZM468.149 35.195C467.109 35.195 466.324 34.9003 465.796 34.311C465.276 33.7217 465.016 32.8637 465.016 31.737C465.016 29.4577 466.056 28.318 468.136 28.318C469.184 28.318 469.973 28.6127 470.502 29.202C471.03 29.7827 471.295 30.6277 471.295 31.737C471.295 32.8463 471.022 33.7 470.476 34.298C469.93 34.896 469.154 35.195 468.149 35.195ZM468.136 34.038C469.332 34.038 469.93 33.271 469.93 31.737C469.93 30.9743 469.787 30.4067 469.501 30.034C469.215 29.6527 468.76 29.462 468.136 29.462C467.503 29.462 467.048 29.657 466.771 30.047C466.502 30.4283 466.368 30.9917 466.368 31.737C466.368 32.4823 466.506 33.0543 466.784 33.453C467.07 33.843 467.52 34.038 468.136 34.038ZM474.754 35.195C474.321 35.195 473.944 35.1517 473.623 35.065C473.311 34.9783 472.973 34.8483 472.609 34.675V33.388C472.999 33.6307 473.355 33.8127 473.675 33.934C473.996 34.0467 474.356 34.103 474.754 34.103C475.127 34.103 475.417 34.0293 475.625 33.882C475.842 33.726 475.95 33.5267 475.95 33.284C475.95 33.05 475.864 32.8767 475.69 32.764C475.517 32.6513 475.248 32.53 474.884 32.4L474.585 32.296C473.979 32.1487 473.493 31.9363 473.129 31.659C472.774 31.3817 472.596 30.9483 472.596 30.359C472.596 29.8997 472.718 29.5183 472.96 29.215C473.203 28.9117 473.506 28.6907 473.87 28.552C474.243 28.4133 474.633 28.344 475.04 28.344C475.456 28.3527 475.807 28.4047 476.093 28.5C476.379 28.5867 476.691 28.7167 477.029 28.89V30.06C476.579 29.826 476.236 29.6657 476.002 29.579C475.777 29.4923 475.504 29.449 475.183 29.449C474.828 29.449 474.542 29.514 474.325 29.644C474.109 29.774 474 29.956 474 30.19C474 30.4673 474.109 30.671 474.325 30.801C474.542 30.9223 474.88 31.048 475.339 31.178C475.773 31.2993 476.115 31.4163 476.366 31.529C476.626 31.6417 476.852 31.828 477.042 32.088C477.242 32.3393 477.341 32.686 477.341 33.128C477.333 33.8213 477.077 34.3413 476.574 34.688C476.08 35.026 475.474 35.195 474.754 35.195ZM480.823 35.195C480.389 35.195 480.012 35.1517 479.692 35.065C479.38 34.9783 479.042 34.8483 478.678 34.675V33.388C479.068 33.6307 479.423 33.8127 479.744 33.934C480.064 34.0467 480.424 34.103 480.823 34.103C481.195 34.103 481.486 34.0293 481.694 33.882C481.91 33.726 482.019 33.5267 482.019 33.284C482.019 33.05 481.932 32.8767 481.759 32.764C481.585 32.6513 481.317 32.53 480.953 32.4L480.654 32.296C480.047 32.1487 479.562 31.9363 479.198 31.659C478.842 31.3817 478.665 30.9483 478.665 30.359C478.665 29.8997 478.786 29.5183 479.029 29.215C479.271 28.9117 479.575 28.6907 479.939 28.552C480.311 28.4133 480.701 28.344 481.109 28.344C481.525 28.3527 481.876 28.4047 482.162 28.5C482.448 28.5867 482.76 28.7167 483.098 28.89V30.06C482.647 29.826 482.305 29.6657 482.071 29.579C481.845 29.4923 481.572 29.449 481.252 29.449C480.896 29.449 480.61 29.514 480.394 29.644C480.177 29.774 480.069 29.956 480.069 30.19C480.069 30.4673 480.177 30.671 480.394 30.801C480.61 30.9223 480.948 31.048 481.408 31.178C481.841 31.2993 482.183 31.4163 482.435 31.529C482.695 31.6417 482.92 31.828 483.111 32.088C483.31 32.3393 483.41 32.686 483.41 33.128C483.401 33.8213 483.145 34.3413 482.643 34.688C482.149 35.026 481.542 35.195 480.823 35.195ZM491.547 28.318C492.492 28.318 493.25 28.5953 493.822 29.15C494.403 29.7047 494.693 30.606 494.693 31.854C494.693 32.8767 494.429 33.687 493.9 34.285C493.372 34.883 492.631 35.182 491.677 35.182C491.443 35.182 491.175 35.1517 490.871 35.091C490.568 35.0303 490.295 34.9393 490.052 34.818V37.613H488.7V29.735C488.7 29.241 488.978 28.8813 489.532 28.656C490.096 28.4307 490.767 28.318 491.547 28.318ZM491.43 34.025C492.046 34.025 492.509 33.8387 492.821 33.466C493.142 33.0847 493.302 32.5387 493.302 31.828C493.302 31.0913 493.168 30.5193 492.899 30.112C492.639 29.7047 492.171 29.501 491.495 29.501C491.062 29.501 490.711 29.5487 490.442 29.644C490.182 29.7393 490.052 29.8693 490.052 30.034V33.648C490.477 33.8993 490.936 34.025 491.43 34.025ZM496.279 29.072C496.522 28.9247 496.934 28.7643 497.514 28.591C498.095 28.4177 498.671 28.331 499.243 28.331C499.59 28.331 499.885 28.3873 500.127 28.5V29.592C499.885 29.5573 499.594 29.54 499.256 29.54C498.684 29.54 498.147 29.5833 497.644 29.67V35H496.279V29.072ZM503.899 35.195C502.859 35.195 502.074 34.9003 501.546 34.311C501.026 33.7217 500.766 32.8637 500.766 31.737C500.766 29.4577 501.806 28.318 503.886 28.318C504.934 28.318 505.723 28.6127 506.252 29.202C506.78 29.7827 507.045 30.6277 507.045 31.737C507.045 32.8463 506.772 33.7 506.226 34.298C505.68 34.896 504.904 35.195 503.899 35.195ZM503.886 34.038C505.082 34.038 505.68 33.271 505.68 31.737C505.68 30.9743 505.537 30.4067 505.251 30.034C504.965 29.6527 504.51 29.462 503.886 29.462C503.253 29.462 502.798 29.657 502.521 30.047C502.252 30.4283 502.118 30.9917 502.118 31.737C502.118 32.4823 502.256 33.0543 502.534 33.453C502.82 33.843 503.27 34.038 503.886 34.038ZM509.165 29.605H508.125V28.474H509.178V28.214C509.178 27.2087 509.399 26.5413 509.841 26.212C510.292 25.8827 510.829 25.718 511.453 25.718C511.696 25.718 511.939 25.7483 512.181 25.809V27.018C512.077 26.966 511.986 26.927 511.908 26.901C511.83 26.875 511.735 26.862 511.622 26.862C511.406 26.862 511.219 26.888 511.063 26.94C510.916 26.992 510.79 27.109 510.686 27.291C510.591 27.4643 510.543 27.733 510.543 28.097V28.474H512.181V29.605H510.53V35H509.165V29.605ZM513.596 26.199H515.052V27.434H513.596V26.199ZM513.635 28.513H515L515.013 35H513.635V28.513ZM519.3 35.169C518.702 35.169 518.234 35.0087 517.896 34.688C517.558 34.3673 517.389 33.9123 517.389 33.323V29.605H516.336V28.474H517.389V26.654H518.793V28.474H520.379V29.605H518.793V33.05C518.793 33.3707 518.849 33.6047 518.962 33.752C519.074 33.8907 519.274 33.96 519.56 33.96C519.698 33.96 519.841 33.9427 519.989 33.908C520.145 33.8647 520.275 33.8127 520.379 33.752V34.961C520.075 35.0997 519.716 35.169 519.3 35.169Z" fill="#454F76"/>
<rect x="10" y="53" width="148" height="40" fill="#E4E7ED"/>
<path d="M24.308 78.12C23.516 78.12 22.852 77.968 22.316 77.664C21.788 77.352 21.388 76.892 21.116 76.284C20.852 75.676 20.72 74.916 20.72 74.004C20.72 72.644 21.02 71.62 21.62 70.932C22.228 70.236 23.124 69.888 24.308 69.888C25.108 69.888 25.772 70.044 26.3 70.356C26.836 70.66 27.236 71.116 27.5 71.724C27.772 72.332 27.908 73.092 27.908 74.004C27.908 75.364 27.604 76.392 26.996 77.088C26.396 77.776 25.5 78.12 24.308 78.12ZM24.308 77.304C24.94 77.304 25.456 77.188 25.856 76.956C26.256 76.724 26.548 76.364 26.732 75.876C26.924 75.388 27.02 74.764 27.02 74.004C27.02 73.244 26.924 72.624 26.732 72.144C26.548 71.656 26.256 71.296 25.856 71.064C25.456 70.824 24.94 70.704 24.308 70.704C23.684 70.704 23.172 70.824 22.772 71.064C22.372 71.296 22.076 71.656 21.884 72.144C21.7 72.624 21.608 73.244 21.608 74.004C21.608 74.764 21.7 75.388 21.884 75.876C22.076 76.364 22.372 76.724 22.772 76.956C23.172 77.188 23.684 77.304 24.308 77.304ZM29.585 78V72.492C29.681 72.452 29.865 72.384 30.137 72.288C30.417 72.192 30.749 72.104 31.133 72.024C31.525 71.944 31.929 71.904 32.345 71.904C32.409 71.904 32.473 71.912 32.537 71.928C32.601 71.944 32.665 71.96 32.729 71.976V72.744C32.521 72.72 32.317 72.708 32.117 72.708C31.925 72.708 31.737 72.72 31.553 72.744C31.369 72.76 31.185 72.784 31.001 72.816C30.817 72.848 30.633 72.88 30.449 72.912V78H29.585ZM36.5444 78.18C35.9284 78.18 35.4164 78.06 35.0084 77.82C34.6084 77.572 34.3084 77.224 34.1084 76.776C33.9084 76.32 33.8084 75.784 33.8084 75.168C33.8084 74.48 33.9004 73.924 34.0844 73.5C34.2684 73.068 34.5044 72.74 34.7924 72.516C35.0884 72.284 35.4084 72.128 35.7524 72.048C36.1044 71.96 36.4444 71.916 36.7724 71.916C37.1484 71.916 37.5044 71.968 37.8404 72.072C38.1844 72.168 38.4644 72.324 38.6804 72.54C38.9044 72.756 39.0164 73.044 39.0164 73.404V78.252C39.0164 78.492 38.9804 78.736 38.9084 78.984C38.8364 79.232 38.7044 79.46 38.5124 79.668C38.3284 79.884 38.0644 80.056 37.7204 80.184C37.3844 80.312 36.9484 80.376 36.4124 80.376C36.0684 80.376 35.7524 80.344 35.4644 80.28C35.1764 80.216 34.9244 80.156 34.7084 80.1V79.284C34.8364 79.316 34.9804 79.352 35.1404 79.392C35.3084 79.44 35.4884 79.48 35.6804 79.512C35.8804 79.544 36.0924 79.56 36.3164 79.56C36.8604 79.56 37.2604 79.492 37.5164 79.356C37.7804 79.228 37.9524 79.064 38.0324 78.864C38.1124 78.672 38.1524 78.476 38.1524 78.276V77.4L38.4524 77.7C38.3004 77.78 38.1084 77.856 37.8764 77.928C37.6444 78 37.4084 78.06 37.1684 78.108C36.9284 78.156 36.7204 78.18 36.5444 78.18ZM36.5444 77.388C36.8004 77.388 37.0684 77.356 37.3484 77.292C37.6364 77.22 37.9044 77.112 38.1524 76.968V73.524C38.1524 73.3 38.0884 73.132 37.9604 73.02C37.8404 72.9 37.6764 72.82 37.4684 72.78C37.2604 72.732 37.0364 72.708 36.7964 72.708C36.2124 72.708 35.7724 72.824 35.4764 73.056C35.1804 73.28 34.9804 73.58 34.8764 73.956C34.7724 74.332 34.7204 74.736 34.7204 75.168C34.7204 75.824 34.8604 76.36 35.1404 76.776C35.4204 77.184 35.8884 77.388 36.5444 77.388ZM43.0045 78.18C42.7405 78.18 42.4725 78.152 42.2005 78.096C41.9365 78.04 41.6885 77.944 41.4565 77.808C41.2325 77.672 41.0485 77.488 40.9045 77.256C40.7685 77.016 40.7005 76.716 40.7005 76.356C40.7005 75.86 40.7925 75.464 40.9765 75.168C41.1685 74.864 41.4285 74.648 41.7565 74.52C42.0925 74.384 42.4765 74.316 42.9085 74.316C43.2365 74.316 43.5205 74.336 43.7605 74.376C44.0005 74.416 44.2125 74.476 44.3965 74.556C44.5885 74.628 44.7605 74.712 44.9125 74.808L45.0805 75.6C44.8965 75.464 44.6285 75.348 44.2765 75.252C43.9325 75.148 43.5525 75.096 43.1365 75.096C42.6325 75.096 42.2445 75.192 41.9725 75.384C41.7005 75.576 41.5645 75.856 41.5645 76.224C41.5645 76.52 41.6445 76.756 41.8045 76.932C41.9725 77.108 42.1805 77.232 42.4285 77.304C42.6845 77.376 42.9445 77.412 43.2085 77.412C43.7285 77.412 44.1205 77.376 44.3845 77.304C44.6565 77.224 44.7925 77.048 44.7925 76.776V74.028C44.7925 73.564 44.6565 73.224 44.3845 73.008C44.1125 72.792 43.7245 72.684 43.2205 72.684C42.9005 72.684 42.5605 72.732 42.2005 72.828C41.8485 72.916 41.5445 73.06 41.2885 73.26V72.396C41.5365 72.236 41.8685 72.116 42.2845 72.036C42.7005 71.948 43.1045 71.904 43.4965 71.904C43.7605 71.904 44.0045 71.932 44.2285 71.988C44.4525 72.036 44.6525 72.112 44.8285 72.216C45.0045 72.312 45.1525 72.44 45.2725 72.6C45.4005 72.752 45.4965 72.932 45.5605 73.14C45.6325 73.34 45.6685 73.568 45.6685 73.824V76.728C45.6685 77.152 45.5405 77.468 45.2845 77.676C45.0365 77.884 44.7085 78.02 44.3005 78.084C43.9005 78.148 43.4685 78.18 43.0045 78.18ZM47.585 72.492C47.777 72.396 47.973 72.312 48.173 72.24C48.381 72.16 48.589 72.096 48.797 72.048C49.013 72 49.229 71.964 49.445 71.94C49.669 71.916 49.893 71.904 50.117 71.904C50.701 71.904 51.165 71.992 51.509 72.168C51.853 72.336 52.101 72.584 52.253 72.912C52.413 73.24 52.493 73.636 52.493 74.1V78H51.629V74.1C51.629 73.956 51.609 73.804 51.569 73.644C51.537 73.484 51.469 73.332 51.365 73.188C51.261 73.036 51.101 72.916 50.885 72.828C50.669 72.732 50.381 72.684 50.021 72.684C49.773 72.684 49.517 72.704 49.253 72.744C48.989 72.784 48.721 72.844 48.449 72.924V78H47.585V72.492ZM54.465 78V72.012H55.329V78H54.465ZM54.417 70.944V69.996H55.377V70.944H54.417ZM59.8078 78.096C59.4878 78.096 59.1598 78.056 58.8238 77.976C58.4958 77.888 58.1918 77.736 57.9118 77.52C57.6398 77.296 57.4198 76.98 57.2518 76.572C57.0838 76.164 56.9998 75.64 56.9998 75C56.9998 74.36 57.0838 73.84 57.2518 73.44C57.4198 73.032 57.6398 72.716 57.9118 72.492C58.1918 72.268 58.4958 72.116 58.8238 72.036C59.1598 71.948 59.4878 71.904 59.8078 71.904C60.1118 71.904 60.4118 71.932 60.7078 71.988C61.0118 72.044 61.3038 72.128 61.5838 72.24V73.068C61.3198 72.956 61.0478 72.872 60.7678 72.816C60.4878 72.76 60.1998 72.732 59.9038 72.732C59.1918 72.732 58.6718 72.912 58.3438 73.272C58.0238 73.632 57.8638 74.208 57.8638 75C57.8638 75.8 58.0238 76.38 58.3438 76.74C58.6718 77.092 59.1918 77.268 59.9038 77.268C60.1998 77.268 60.4878 77.24 60.7678 77.184C61.0478 77.128 61.3198 77.044 61.5838 76.932V77.772C61.3038 77.876 61.0118 77.956 60.7078 78.012C60.4118 78.068 60.1118 78.096 59.8078 78.096Z" fill="#252525"/>
<rect x="161" y="53" width="121" height="40" fill="white"/>
<path d="M240.462 69.641V68.211H241.398V69.641H240.462ZM240.462 79.209V77.649H241.398V79.209H240.462ZM240.761 78.13C240.328 78.13 239.96 78.0997 239.656 78.039C239.353 77.9783 239.08 77.8917 238.837 77.779C238.595 77.6663 238.33 77.5363 238.044 77.389V76.375C238.322 76.609 238.694 76.817 239.162 76.999C239.63 77.181 240.176 77.272 240.8 77.272C241.459 77.272 241.936 77.1333 242.23 76.856C242.534 76.57 242.685 76.2103 242.685 75.777C242.685 75.413 242.586 75.1227 242.386 74.906C242.187 74.6807 241.931 74.4987 241.619 74.36C241.307 74.2127 240.978 74.074 240.631 73.944C240.337 73.84 240.042 73.7317 239.747 73.619C239.461 73.4977 239.201 73.3503 238.967 73.177C238.733 72.995 238.547 72.7653 238.408 72.488C238.27 72.202 238.2 71.8467 238.2 71.422C238.2 71.188 238.244 70.941 238.33 70.681C238.426 70.421 238.573 70.1783 238.772 69.953C238.98 69.7277 239.253 69.5457 239.591 69.407C239.938 69.2683 240.358 69.199 240.852 69.199C241.19 69.199 241.476 69.225 241.71 69.277C241.953 69.3203 242.183 69.3897 242.399 69.485C242.616 69.5717 242.859 69.68 243.127 69.81V70.772C242.902 70.642 242.685 70.525 242.477 70.421C242.278 70.3083 242.053 70.2217 241.801 70.161C241.559 70.0917 241.26 70.057 240.904 70.057C240.48 70.057 240.137 70.1177 239.877 70.239C239.626 70.3603 239.44 70.5207 239.318 70.72C239.206 70.9193 239.149 71.1317 239.149 71.357C239.149 71.7123 239.227 71.994 239.383 72.202C239.548 72.41 239.773 72.5833 240.059 72.722C240.354 72.852 240.692 72.982 241.073 73.112C241.377 73.216 241.68 73.333 241.983 73.463C242.287 73.5843 242.56 73.7403 242.802 73.931C243.054 74.113 243.253 74.347 243.4 74.633C243.556 74.9103 243.634 75.257 243.634 75.673C243.634 76.063 243.548 76.4487 243.374 76.83C243.201 77.2027 242.906 77.5147 242.49 77.766C242.074 78.0087 241.498 78.13 240.761 78.13ZM248.609 78.143C247.482 78.143 246.629 77.7703 246.048 77.025C245.476 76.2797 245.19 75.1703 245.19 73.697C245.19 72.2237 245.476 71.1143 246.048 70.369C246.629 69.6237 247.482 69.251 248.609 69.251C249.744 69.251 250.598 69.6237 251.17 70.369C251.742 71.1143 252.028 72.2237 252.028 73.697C252.028 75.1703 251.742 76.2797 251.17 77.025C250.598 77.7703 249.744 78.143 248.609 78.143ZM248.609 77.285C248.895 77.285 249.185 77.246 249.48 77.168C249.775 77.09 250.043 76.9297 250.286 76.687C250.529 76.4443 250.724 76.0847 250.871 75.608C251.018 75.1313 251.092 74.4943 251.092 73.697C251.092 72.8997 251.018 72.2627 250.871 71.786C250.724 71.3093 250.529 70.954 250.286 70.72C250.043 70.4773 249.775 70.317 249.48 70.239C249.185 70.1523 248.895 70.109 248.609 70.109C248.323 70.109 248.033 70.1523 247.738 70.239C247.443 70.317 247.175 70.4773 246.932 70.72C246.689 70.954 246.494 71.3093 246.347 71.786C246.2 72.2627 246.126 72.8997 246.126 73.697C246.126 74.4943 246.2 75.1313 246.347 75.608C246.494 76.0847 246.689 76.4443 246.932 76.687C247.175 76.9297 247.443 77.09 247.738 77.168C248.033 77.246 248.323 77.285 248.609 77.285ZM253.854 78V76.7H255.154V78H253.854ZM260.39 78.143C259.264 78.143 258.41 77.7703 257.829 77.025C257.257 76.2797 256.971 75.1703 256.971 73.697C256.971 72.2237 257.257 71.1143 257.829 70.369C258.41 69.6237 259.264 69.251 260.39 69.251C261.526 69.251 262.379 69.6237 262.951 70.369C263.523 71.1143 263.809 72.2237 263.809 73.697C263.809 75.1703 263.523 76.2797 262.951 77.025C262.379 77.7703 261.526 78.143 260.39 78.143ZM260.39 77.285C260.676 77.285 260.967 77.246 261.261 77.168C261.556 77.09 261.825 76.9297 262.067 76.687C262.31 76.4443 262.505 76.0847 262.652 75.608C262.8 75.1313 262.873 74.4943 262.873 73.697C262.873 72.8997 262.8 72.2627 262.652 71.786C262.505 71.3093 262.31 70.954 262.067 70.72C261.825 70.4773 261.556 70.317 261.261 70.239C260.967 70.1523 260.676 70.109 260.39 70.109C260.104 70.109 259.814 70.1523 259.519 70.239C259.225 70.317 258.956 70.4773 258.713 70.72C258.471 70.954 258.276 71.3093 258.128 71.786C257.981 72.2627 257.907 72.8997 257.907 73.697C257.907 74.4943 257.981 75.1313 258.128 75.608C258.276 76.0847 258.471 76.4443 258.713 76.687C258.956 76.9297 259.225 77.09 259.519 77.168C259.814 77.246 260.104 77.285 260.39 77.285ZM268.795 78.143C267.668 78.143 266.814 77.7703 266.234 77.025C265.662 76.2797 265.376 75.1703 265.376 73.697C265.376 72.2237 265.662 71.1143 266.234 70.369C266.814 69.6237 267.668 69.251 268.795 69.251C269.93 69.251 270.784 69.6237 271.356 70.369C271.928 71.1143 272.214 72.2237 272.214 73.697C272.214 75.1703 271.928 76.2797 271.356 77.025C270.784 77.7703 269.93 78.143 268.795 78.143ZM268.795 77.285C269.081 77.285 269.371 77.246 269.666 77.168C269.96 77.09 270.229 76.9297 270.472 76.687C270.714 76.4443 270.909 76.0847 271.057 75.608C271.204 75.1313 271.278 74.4943 271.278 73.697C271.278 72.8997 271.204 72.2627 271.057 71.786C270.909 71.3093 270.714 70.954 270.472 70.72C270.229 70.4773 269.96 70.317 269.666 70.239C269.371 70.1523 269.081 70.109 268.795 70.109C268.509 70.109 268.218 70.1523 267.924 70.239C267.629 70.317 267.36 70.4773 267.118 70.72C266.875 70.954 266.68 71.3093 266.533 71.786C266.385 72.2627 266.312 72.8997 266.312 73.697C266.312 74.4943 266.385 75.1313 266.533 75.608C266.68 76.0847 266.875 76.4443 267.118 76.687C267.36 76.9297 267.629 77.09 267.924 77.168C268.218 77.246 268.509 77.285 268.795 77.285Z" fill="#252525"/>
<rect x="285" y="53" width="121" height="40" fill="#FBFCFC"/>
<path d="M359.333 69.641V68.211H360.269V69.641H359.333ZM359.333 79.209V77.649H360.269V79.209H359.333ZM359.632 78.13C359.199 78.13 358.831 78.0997 358.527 78.039C358.224 77.9783 357.951 77.8917 357.708 77.779C357.466 77.6663 357.201 77.5363 356.915 77.389V76.375C357.193 76.609 357.565 76.817 358.033 76.999C358.501 77.181 359.047 77.272 359.671 77.272C360.33 77.272 360.807 77.1333 361.101 76.856C361.405 76.57 361.556 76.2103 361.556 75.777C361.556 75.413 361.457 75.1227 361.257 74.906C361.058 74.6807 360.802 74.4987 360.49 74.36C360.178 74.2127 359.849 74.074 359.502 73.944C359.208 73.84 358.913 73.7317 358.618 73.619C358.332 73.4977 358.072 73.3503 357.838 73.177C357.604 72.995 357.418 72.7653 357.279 72.488C357.141 72.202 357.071 71.8467 357.071 71.422C357.071 71.188 357.115 70.941 357.201 70.681C357.297 70.421 357.444 70.1783 357.643 69.953C357.851 69.7277 358.124 69.5457 358.462 69.407C358.809 69.2683 359.229 69.199 359.723 69.199C360.061 69.199 360.347 69.225 360.581 69.277C360.824 69.3203 361.054 69.3897 361.27 69.485C361.487 69.5717 361.73 69.68 361.998 69.81V70.772C361.773 70.642 361.556 70.525 361.348 70.421C361.149 70.3083 360.924 70.2217 360.672 70.161C360.43 70.0917 360.131 70.057 359.775 70.057C359.351 70.057 359.008 70.1177 358.748 70.239C358.497 70.3603 358.311 70.5207 358.189 70.72C358.077 70.9193 358.02 71.1317 358.02 71.357C358.02 71.7123 358.098 71.994 358.254 72.202C358.419 72.41 358.644 72.5833 358.93 72.722C359.225 72.852 359.563 72.982 359.944 73.112C360.248 73.216 360.551 73.333 360.854 73.463C361.158 73.5843 361.431 73.7403 361.673 73.931C361.925 74.113 362.124 74.347 362.271 74.633C362.427 74.9103 362.505 75.257 362.505 75.673C362.505 76.063 362.419 76.4487 362.245 76.83C362.072 77.2027 361.777 77.5147 361.361 77.766C360.945 78.0087 360.369 78.13 359.632 78.13ZM365.309 78L369.196 69.966L369.287 70.265H364.191V69.329H370.106V70.2L366.349 78H365.309ZM374.542 78.104C373.987 78.104 373.519 78.026 373.138 77.87C372.757 77.7053 372.449 77.493 372.215 77.233C371.981 76.9643 371.808 76.674 371.695 76.362C371.591 76.05 371.539 75.738 371.539 75.426C371.539 75.0273 371.613 74.6937 371.76 74.425C371.916 74.1477 372.089 73.931 372.28 73.775C372.479 73.6103 372.653 73.4933 372.8 73.424C372.956 73.3547 373.034 73.32 373.034 73.32C373.034 73.32 372.973 73.2897 372.852 73.229C372.739 73.1597 372.605 73.0513 372.449 72.904C372.293 72.7567 372.154 72.566 372.033 72.332C371.92 72.0893 371.864 71.799 371.864 71.461C371.864 71.097 371.951 70.7417 372.124 70.395C372.297 70.0483 372.579 69.7667 372.969 69.55C373.368 69.3247 373.892 69.212 374.542 69.212C375.201 69.212 375.725 69.3247 376.115 69.55C376.505 69.7667 376.787 70.0483 376.96 70.395C377.133 70.7417 377.22 71.097 377.22 71.461C377.22 71.8077 377.164 72.1023 377.051 72.345C376.938 72.579 376.804 72.7697 376.648 72.917C376.501 73.0557 376.371 73.1553 376.258 73.216C376.145 73.2767 376.089 73.307 376.089 73.307C376.089 73.307 376.163 73.346 376.31 73.424C376.457 73.4933 376.626 73.6103 376.817 73.775C377.008 73.9397 377.177 74.1563 377.324 74.425C377.471 74.6937 377.545 75.0273 377.545 75.426C377.545 75.738 377.493 76.05 377.389 76.362C377.285 76.674 377.116 76.9643 376.882 77.233C376.648 77.493 376.336 77.7053 375.946 77.87C375.565 78.026 375.097 78.104 374.542 78.104ZM374.542 77.22C375.027 77.22 375.409 77.1507 375.686 77.012C375.963 76.8647 376.167 76.687 376.297 76.479C376.427 76.271 376.509 76.0717 376.544 75.881C376.587 75.6817 376.609 75.53 376.609 75.426C376.609 75.0793 376.527 74.789 376.362 74.555C376.206 74.3123 375.976 74.1303 375.673 74.009C375.37 73.879 374.993 73.814 374.542 73.814C374.1 73.814 373.723 73.879 373.411 74.009C373.108 74.1303 372.874 74.3123 372.709 74.555C372.553 74.789 372.475 75.0793 372.475 75.426C372.475 75.53 372.492 75.6817 372.527 75.881C372.57 76.0717 372.657 76.271 372.787 76.479C372.926 76.687 373.134 76.8647 373.411 77.012C373.688 77.1507 374.065 77.22 374.542 77.22ZM374.542 72.956C374.906 72.956 375.218 72.8953 375.478 72.774C375.738 72.6527 375.937 72.4837 376.076 72.267C376.215 72.0417 376.284 71.773 376.284 71.461C376.284 71.0883 376.193 70.811 376.011 70.629C375.829 70.4383 375.604 70.3083 375.335 70.239C375.075 70.1697 374.811 70.135 374.542 70.135C374.282 70.135 374.018 70.1697 373.749 70.239C373.48 70.3083 373.255 70.4383 373.073 70.629C372.891 70.811 372.8 71.0883 372.8 71.461C372.8 71.773 372.869 72.0417 373.008 72.267C373.147 72.4837 373.346 72.6527 373.606 72.774C373.866 72.8953 374.178 72.956 374.542 72.956ZM379.353 78V76.7H380.653V78H379.353ZM384.484 78.104C384.242 78.104 384.012 78.0867 383.795 78.052C383.587 78.026 383.397 77.987 383.223 77.935V77.064C383.388 77.0987 383.566 77.1333 383.756 77.168C383.956 77.2027 384.164 77.22 384.38 77.22C384.528 77.22 384.727 77.194 384.978 77.142C385.238 77.09 385.511 76.9947 385.797 76.856C386.083 76.7173 386.356 76.5137 386.616 76.245C386.876 75.9763 387.089 75.6253 387.253 75.192C387.418 74.7587 387.5 74.2257 387.5 73.593C387.5 72.8477 387.448 72.2453 387.344 71.786C387.249 71.318 387.106 70.9627 386.915 70.72C386.733 70.4773 386.521 70.3127 386.278 70.226C386.036 70.1393 385.771 70.096 385.485 70.096C385.017 70.096 384.645 70.1783 384.367 70.343C384.099 70.5077 383.899 70.707 383.769 70.941C383.648 71.175 383.566 71.4047 383.522 71.63C383.488 71.8553 383.47 72.0287 383.47 72.15C383.47 72.7393 383.644 73.1943 383.99 73.515C384.337 73.8357 384.835 73.996 385.485 73.996C385.875 73.996 386.218 73.9397 386.512 73.827C386.816 73.7057 387.067 73.5757 387.266 73.437C387.466 73.2897 387.6 73.1813 387.669 73.112L387.656 74.152C387.578 74.204 387.466 74.2733 387.318 74.36C387.18 74.438 387.015 74.516 386.824 74.594C386.634 74.672 386.426 74.737 386.2 74.789C385.975 74.841 385.737 74.867 385.485 74.867C384.575 74.867 383.856 74.6243 383.327 74.139C382.799 73.645 382.534 72.9777 382.534 72.137C382.534 71.799 382.586 71.461 382.69 71.123C382.794 70.7763 382.963 70.46 383.197 70.174C383.431 69.8793 383.735 69.6453 384.107 69.472C384.48 69.2987 384.939 69.212 385.485 69.212C386.465 69.212 387.201 69.5543 387.695 70.239C388.189 70.915 388.436 71.929 388.436 73.281C388.436 74.1477 388.337 74.8757 388.137 75.465C387.947 76.0457 387.695 76.5137 387.383 76.869C387.071 77.2157 386.738 77.48 386.382 77.662C386.027 77.8353 385.68 77.9523 385.342 78.013C385.004 78.0737 384.718 78.104 384.484 78.104ZM394.025 78V75.4H389.813V74.399L393.908 69.329H394.961V74.529H396.196V75.4H394.961V78H394.025ZM390.853 74.529H394.025V70.668L390.853 74.529Z" fill="#252525"/>
<rect x="409" y="53" width="121" height="40" fill="white"/>
<path d="M483.333 69.641V68.211H484.269V69.641H483.333ZM483.333 79.209V77.649H484.269V79.209H483.333ZM483.632 78.13C483.199 78.13 482.831 78.0997 482.527 78.039C482.224 77.9783 481.951 77.8917 481.708 77.779C481.466 77.6663 481.201 77.5363 480.915 77.389V76.375C481.193 76.609 481.565 76.817 482.033 76.999C482.501 77.181 483.047 77.272 483.671 77.272C484.33 77.272 484.807 77.1333 485.101 76.856C485.405 76.57 485.556 76.2103 485.556 75.777C485.556 75.413 485.457 75.1227 485.257 74.906C485.058 74.6807 484.802 74.4987 484.49 74.36C484.178 74.2127 483.849 74.074 483.502 73.944C483.208 73.84 482.913 73.7317 482.618 73.619C482.332 73.4977 482.072 73.3503 481.838 73.177C481.604 72.995 481.418 72.7653 481.279 72.488C481.141 72.202 481.071 71.8467 481.071 71.422C481.071 71.188 481.115 70.941 481.201 70.681C481.297 70.421 481.444 70.1783 481.643 69.953C481.851 69.7277 482.124 69.5457 482.462 69.407C482.809 69.2683 483.229 69.199 483.723 69.199C484.061 69.199 484.347 69.225 484.581 69.277C484.824 69.3203 485.054 69.3897 485.27 69.485C485.487 69.5717 485.73 69.68 485.998 69.81V70.772C485.773 70.642 485.556 70.525 485.348 70.421C485.149 70.3083 484.924 70.2217 484.672 70.161C484.43 70.0917 484.131 70.057 483.775 70.057C483.351 70.057 483.008 70.1177 482.748 70.239C482.497 70.3603 482.311 70.5207 482.189 70.72C482.077 70.9193 482.02 71.1317 482.02 71.357C482.02 71.7123 482.098 71.994 482.254 72.202C482.419 72.41 482.644 72.5833 482.93 72.722C483.225 72.852 483.563 72.982 483.944 73.112C484.248 73.216 484.551 73.333 484.854 73.463C485.158 73.5843 485.431 73.7403 485.673 73.931C485.925 74.113 486.124 74.347 486.271 74.633C486.427 74.9103 486.505 75.257 486.505 75.673C486.505 76.063 486.419 76.4487 486.245 76.83C486.072 77.2027 485.777 77.5147 485.361 77.766C484.945 78.0087 484.369 78.13 483.632 78.13ZM489.309 78L493.196 69.966L493.287 70.265H488.191V69.329H494.106V70.2L490.349 78H489.309ZM498.542 78.104C497.987 78.104 497.519 78.026 497.138 77.87C496.757 77.7053 496.449 77.493 496.215 77.233C495.981 76.9643 495.808 76.674 495.695 76.362C495.591 76.05 495.539 75.738 495.539 75.426C495.539 75.0273 495.613 74.6937 495.76 74.425C495.916 74.1477 496.089 73.931 496.28 73.775C496.479 73.6103 496.653 73.4933 496.8 73.424C496.956 73.3547 497.034 73.32 497.034 73.32C497.034 73.32 496.973 73.2897 496.852 73.229C496.739 73.1597 496.605 73.0513 496.449 72.904C496.293 72.7567 496.154 72.566 496.033 72.332C495.92 72.0893 495.864 71.799 495.864 71.461C495.864 71.097 495.951 70.7417 496.124 70.395C496.297 70.0483 496.579 69.7667 496.969 69.55C497.368 69.3247 497.892 69.212 498.542 69.212C499.201 69.212 499.725 69.3247 500.115 69.55C500.505 69.7667 500.787 70.0483 500.96 70.395C501.133 70.7417 501.22 71.097 501.22 71.461C501.22 71.8077 501.164 72.1023 501.051 72.345C500.938 72.579 500.804 72.7697 500.648 72.917C500.501 73.0557 500.371 73.1553 500.258 73.216C500.145 73.2767 500.089 73.307 500.089 73.307C500.089 73.307 500.163 73.346 500.31 73.424C500.457 73.4933 500.626 73.6103 500.817 73.775C501.008 73.9397 501.177 74.1563 501.324 74.425C501.471 74.6937 501.545 75.0273 501.545 75.426C501.545 75.738 501.493 76.05 501.389 76.362C501.285 76.674 501.116 76.9643 500.882 77.233C500.648 77.493 500.336 77.7053 499.946 77.87C499.565 78.026 499.097 78.104 498.542 78.104ZM498.542 77.22C499.027 77.22 499.409 77.1507 499.686 77.012C499.963 76.8647 500.167 76.687 500.297 76.479C500.427 76.271 500.509 76.0717 500.544 75.881C500.587 75.6817 500.609 75.53 500.609 75.426C500.609 75.0793 500.527 74.789 500.362 74.555C500.206 74.3123 499.976 74.1303 499.673 74.009C499.37 73.879 498.993 73.814 498.542 73.814C498.1 73.814 497.723 73.879 497.411 74.009C497.108 74.1303 496.874 74.3123 496.709 74.555C496.553 74.789 496.475 75.0793 496.475 75.426C496.475 75.53 496.492 75.6817 496.527 75.881C496.57 76.0717 496.657 76.271 496.787 76.479C496.926 76.687 497.134 76.8647 497.411 77.012C497.688 77.1507 498.065 77.22 498.542 77.22ZM498.542 72.956C498.906 72.956 499.218 72.8953 499.478 72.774C499.738 72.6527 499.937 72.4837 500.076 72.267C500.215 72.0417 500.284 71.773 500.284 71.461C500.284 71.0883 500.193 70.811 500.011 70.629C499.829 70.4383 499.604 70.3083 499.335 70.239C499.075 70.1697 498.811 70.135 498.542 70.135C498.282 70.135 498.018 70.1697 497.749 70.239C497.48 70.3083 497.255 70.4383 497.073 70.629C496.891 70.811 496.8 71.0883 496.8 71.461C496.8 71.773 496.869 72.0417 497.008 72.267C497.147 72.4837 497.346 72.6527 497.606 72.774C497.866 72.8953 498.178 72.956 498.542 72.956ZM503.353 78V76.7H504.653V78H503.353ZM508.484 78.104C508.242 78.104 508.012 78.0867 507.795 78.052C507.587 78.026 507.397 77.987 507.223 77.935V77.064C507.388 77.0987 507.566 77.1333 507.756 77.168C507.956 77.2027 508.164 77.22 508.38 77.22C508.528 77.22 508.727 77.194 508.978 77.142C509.238 77.09 509.511 76.9947 509.797 76.856C510.083 76.7173 510.356 76.5137 510.616 76.245C510.876 75.9763 511.089 75.6253 511.253 75.192C511.418 74.7587 511.5 74.2257 511.5 73.593C511.5 72.8477 511.448 72.2453 511.344 71.786C511.249 71.318 511.106 70.9627 510.915 70.72C510.733 70.4773 510.521 70.3127 510.278 70.226C510.036 70.1393 509.771 70.096 509.485 70.096C509.017 70.096 508.645 70.1783 508.367 70.343C508.099 70.5077 507.899 70.707 507.769 70.941C507.648 71.175 507.566 71.4047 507.522 71.63C507.488 71.8553 507.47 72.0287 507.47 72.15C507.47 72.7393 507.644 73.1943 507.99 73.515C508.337 73.8357 508.835 73.996 509.485 73.996C509.875 73.996 510.218 73.9397 510.512 73.827C510.816 73.7057 511.067 73.5757 511.266 73.437C511.466 73.2897 511.6 73.1813 511.669 73.112L511.656 74.152C511.578 74.204 511.466 74.2733 511.318 74.36C511.18 74.438 511.015 74.516 510.824 74.594C510.634 74.672 510.426 74.737 510.2 74.789C509.975 74.841 509.737 74.867 509.485 74.867C508.575 74.867 507.856 74.6243 507.327 74.139C506.799 73.645 506.534 72.9777 506.534 72.137C506.534 71.799 506.586 71.461 506.69 71.123C506.794 70.7763 506.963 70.46 507.197 70.174C507.431 69.8793 507.735 69.6453 508.107 69.472C508.48 69.2987 508.939 69.212 509.485 69.212C510.465 69.212 511.201 69.5543 511.695 70.239C512.189 70.915 512.436 71.929 512.436 73.281C512.436 74.1477 512.337 74.8757 512.137 75.465C511.947 76.0457 511.695 76.5137 511.383 76.869C511.071 77.2157 510.738 77.48 510.382 77.662C510.027 77.8353 509.68 77.9523 509.342 78.013C509.004 78.0737 508.718 78.104 508.484 78.104ZM518.025 78V75.4H513.813V74.399L517.908 69.329H518.961V74.529H520.196V75.4H518.961V78H518.025ZM514.853 74.529H518.025V70.668L514.853 74.529Z" fill="#252525"/>
<rect x="10" y="96" width="148" height="40" fill="#E4E7ED"/>
<path d="M21.02 121V112.996H25.928V113.812H21.884V116.572H25.436V117.412H21.884V121H21.02ZM28.7779 121.18C28.5139 121.18 28.2459 121.152 27.9739 121.096C27.7099 121.04 27.4619 120.944 27.2299 120.808C27.0059 120.672 26.8219 120.488 26.6779 120.256C26.5419 120.016 26.4739 119.716 26.4739 119.356C26.4739 118.86 26.5659 118.464 26.7499 118.168C26.9419 117.864 27.2019 117.648 27.5299 117.52C27.8659 117.384 28.2499 117.316 28.6819 117.316C29.0099 117.316 29.2939 117.336 29.5339 117.376C29.7739 117.416 29.9859 117.476 30.1699 117.556C30.3619 117.628 30.5339 117.712 30.6859 117.808L30.8539 118.6C30.6699 118.464 30.4019 118.348 30.0499 118.252C29.7059 118.148 29.3259 118.096 28.9099 118.096C28.4059 118.096 28.0179 118.192 27.7459 118.384C27.4739 118.576 27.3379 118.856 27.3379 119.224C27.3379 119.52 27.4179 119.756 27.5779 119.932C27.7459 120.108 27.9539 120.232 28.2019 120.304C28.4579 120.376 28.7179 120.412 28.9819 120.412C29.5019 120.412 29.8939 120.376 30.1579 120.304C30.4299 120.224 30.5659 120.048 30.5659 119.776V117.028C30.5659 116.564 30.4299 116.224 30.1579 116.008C29.8859 115.792 29.4979 115.684 28.9939 115.684C28.6739 115.684 28.3339 115.732 27.9739 115.828C27.6219 115.916 27.3179 116.06 27.0619 116.26V115.396C27.3099 115.236 27.6419 115.116 28.0579 115.036C28.4739 114.948 28.8779 114.904 29.2699 114.904C29.5339 114.904 29.7779 114.932 30.0019 114.988C30.2259 115.036 30.4259 115.112 30.6019 115.216C30.7779 115.312 30.9259 115.44 31.0459 115.6C31.1739 115.752 31.2699 115.932 31.3339 116.14C31.4059 116.34 31.4419 116.568 31.4419 116.824V119.728C31.4419 120.152 31.3139 120.468 31.0579 120.676C30.8099 120.884 30.4819 121.02 30.0739 121.084C29.6739 121.148 29.2419 121.18 28.7779 121.18ZM35.8664 121.096C35.5464 121.096 35.2184 121.056 34.8824 120.976C34.5544 120.888 34.2504 120.736 33.9704 120.52C33.6984 120.296 33.4784 119.98 33.3104 119.572C33.1424 119.164 33.0584 118.64 33.0584 118C33.0584 117.36 33.1424 116.84 33.3104 116.44C33.4784 116.032 33.6984 115.716 33.9704 115.492C34.2504 115.268 34.5544 115.116 34.8824 115.036C35.2184 114.948 35.5464 114.904 35.8664 114.904C36.1704 114.904 36.4704 114.932 36.7664 114.988C37.0704 115.044 37.3624 115.128 37.6424 115.24V116.068C37.3784 115.956 37.1064 115.872 36.8264 115.816C36.5464 115.76 36.2584 115.732 35.9624 115.732C35.2504 115.732 34.7304 115.912 34.4024 116.272C34.0824 116.632 33.9224 117.208 33.9224 118C33.9224 118.8 34.0824 119.38 34.4024 119.74C34.7304 120.092 35.2504 120.268 35.9624 120.268C36.2584 120.268 36.5464 120.24 36.8264 120.184C37.1064 120.128 37.3784 120.044 37.6424 119.932V120.772C37.3624 120.876 37.0704 120.956 36.7664 121.012C36.4704 121.068 36.1704 121.096 35.8664 121.096ZM41.7367 121.18C41.1687 121.18 40.6767 121.064 40.2607 120.832C39.8447 120.592 39.5247 120.236 39.3007 119.764C39.0767 119.292 38.9647 118.704 38.9647 118C38.9647 116.968 39.1967 116.196 39.6607 115.684C40.1327 115.164 40.7767 114.904 41.5927 114.904C42.2327 114.904 42.7447 115.048 43.1287 115.336C43.5207 115.624 43.8007 116.012 43.9687 116.5C44.1367 116.988 44.2167 117.54 44.2087 118.156H39.3967L39.4567 117.364H43.6447L43.3087 117.484C43.2847 116.884 43.1327 116.436 42.8527 116.14C42.5807 115.844 42.1607 115.696 41.5927 115.696C41.2007 115.696 40.8727 115.768 40.6087 115.912C40.3527 116.056 40.1607 116.308 40.0327 116.668C39.9047 117.02 39.8407 117.516 39.8407 118.156C39.8407 118.884 40.0087 119.44 40.3447 119.824C40.6887 120.2 41.1687 120.388 41.7847 120.388C42.0807 120.388 42.3527 120.368 42.6007 120.328C42.8487 120.28 43.0767 120.216 43.2847 120.136C43.4927 120.056 43.6767 119.968 43.8367 119.872V120.76C43.5487 120.896 43.2287 121 42.8767 121.072C42.5327 121.144 42.1527 121.18 41.7367 121.18ZM48.1912 121.18C47.8792 121.18 47.5792 121.16 47.2912 121.12C47.0112 121.088 46.7592 121.028 46.5352 120.94C46.3192 120.844 46.1472 120.72 46.0192 120.568C45.8912 120.416 45.8272 120.22 45.8272 119.98V112.48H46.6912V115.696L46.3912 115.396C46.5512 115.316 46.7432 115.24 46.9672 115.168C47.1992 115.096 47.4352 115.036 47.6752 114.988C47.9152 114.94 48.1232 114.916 48.2992 114.916C49.2272 114.916 49.9152 115.188 50.3632 115.732C50.8112 116.268 51.0352 117 51.0352 117.928C51.0352 118.616 50.9432 119.176 50.7592 119.608C50.5752 120.032 50.3392 120.36 50.0512 120.592C49.7712 120.816 49.4672 120.968 49.1392 121.048C48.8112 121.136 48.4952 121.18 48.1912 121.18ZM48.1072 120.388C48.6752 120.388 49.1032 120.272 49.3912 120.04C49.6792 119.808 49.8712 119.508 49.9672 119.14C50.0712 118.764 50.1232 118.36 50.1232 117.928C50.1232 117.488 50.0592 117.104 49.9312 116.776C49.8112 116.44 49.6192 116.18 49.3552 115.996C49.0912 115.804 48.7392 115.708 48.2992 115.708C48.0512 115.708 47.7832 115.744 47.4952 115.816C47.2072 115.88 46.9392 115.984 46.6912 116.128V119.776C46.6912 119.952 46.7672 120.084 46.9192 120.172C47.0792 120.26 47.2672 120.32 47.4832 120.352C47.7072 120.376 47.9152 120.388 48.1072 120.388ZM55.1192 121.18C54.1832 121.18 53.4872 120.904 53.0312 120.352C52.5832 119.792 52.3592 119.016 52.3592 118.024C52.3592 116.984 52.5952 116.204 53.0672 115.684C53.5472 115.164 54.2232 114.904 55.0952 114.904C55.7432 114.904 56.2712 115.036 56.6792 115.3C57.0872 115.556 57.3872 115.92 57.5792 116.392C57.7712 116.856 57.8672 117.4 57.8672 118.024C57.8672 119.008 57.6272 119.78 57.1472 120.34C56.6752 120.9 55.9992 121.18 55.1192 121.18ZM55.1072 120.388C55.5952 120.388 55.9752 120.284 56.2472 120.076C56.5192 119.86 56.7112 119.576 56.8232 119.224C56.9432 118.864 57.0032 118.464 57.0032 118.024C57.0032 117.552 56.9432 117.144 56.8232 116.8C56.7032 116.448 56.5032 116.176 56.2232 115.984C55.9512 115.792 55.5792 115.696 55.1072 115.696C54.6272 115.696 54.2512 115.8 53.9792 116.008C53.7072 116.216 53.5112 116.496 53.3912 116.848C53.2792 117.192 53.2232 117.584 53.2232 118.024C53.2232 118.728 53.3632 119.3 53.6432 119.74C53.9232 120.172 54.4112 120.388 55.1072 120.388ZM61.9513 121.18C61.0153 121.18 60.3193 120.904 59.8633 120.352C59.4153 119.792 59.1913 119.016 59.1913 118.024C59.1913 116.984 59.4273 116.204 59.8993 115.684C60.3793 115.164 61.0553 114.904 61.9273 114.904C62.5753 114.904 63.1033 115.036 63.5113 115.3C63.9193 115.556 64.2193 115.92 64.4113 116.392C64.6033 116.856 64.6992 117.4 64.6992 118.024C64.6992 119.008 64.4593 119.78 63.9793 120.34C63.5073 120.9 62.8313 121.18 61.9513 121.18ZM61.9393 120.388C62.4273 120.388 62.8073 120.284 63.0793 120.076C63.3513 119.86 63.5433 119.576 63.6553 119.224C63.7753 118.864 63.8353 118.464 63.8353 118.024C63.8353 117.552 63.7753 117.144 63.6553 116.8C63.5353 116.448 63.3353 116.176 63.0553 115.984C62.7833 115.792 62.4113 115.696 61.9393 115.696C61.4593 115.696 61.0833 115.8 60.8113 116.008C60.5393 116.216 60.3433 116.496 60.2233 116.848C60.1113 117.192 60.0553 117.584 60.0553 118.024C60.0553 118.728 60.1953 119.3 60.4753 119.74C60.7553 120.172 61.2433 120.388 61.9393 120.388ZM66.9953 117.412L69.6233 115.012H70.7033L67.1873 118.12L66.9953 117.412ZM67.1873 121H66.3233V112.732H67.1873V121ZM67.4273 117.268L71.1353 121H69.9833L66.8393 117.82L67.4273 117.268Z" fill="#252525"/>
<rect x="161" y="96" width="121" height="40" fill="white"/>
<path d="M229.417 112.641V111.211H230.353V112.641H229.417ZM229.417 122.209V120.649H230.353V122.209H229.417ZM229.716 121.13C229.283 121.13 228.915 121.1 228.611 121.039C228.308 120.978 228.035 120.892 227.792 120.779C227.55 120.666 227.285 120.536 226.999 120.389V119.375C227.277 119.609 227.649 119.817 228.117 119.999C228.585 120.181 229.131 120.272 229.755 120.272C230.414 120.272 230.891 120.133 231.185 119.856C231.489 119.57 231.64 119.21 231.64 118.777C231.64 118.413 231.541 118.123 231.341 117.906C231.142 117.681 230.886 117.499 230.574 117.36C230.262 117.213 229.933 117.074 229.586 116.944C229.292 116.84 228.997 116.732 228.702 116.619C228.416 116.498 228.156 116.35 227.922 116.177C227.688 115.995 227.502 115.765 227.363 115.488C227.225 115.202 227.155 114.847 227.155 114.422C227.155 114.188 227.199 113.941 227.285 113.681C227.381 113.421 227.528 113.178 227.727 112.953C227.935 112.728 228.208 112.546 228.546 112.407C228.893 112.268 229.313 112.199 229.807 112.199C230.145 112.199 230.431 112.225 230.665 112.277C230.908 112.32 231.138 112.39 231.354 112.485C231.571 112.572 231.814 112.68 232.082 112.81V113.772C231.857 113.642 231.64 113.525 231.432 113.421C231.233 113.308 231.008 113.222 230.756 113.161C230.514 113.092 230.215 113.057 229.859 113.057C229.435 113.057 229.092 113.118 228.832 113.239C228.581 113.36 228.395 113.521 228.273 113.72C228.161 113.919 228.104 114.132 228.104 114.357C228.104 114.712 228.182 114.994 228.338 115.202C228.503 115.41 228.728 115.583 229.014 115.722C229.309 115.852 229.647 115.982 230.028 116.112C230.332 116.216 230.635 116.333 230.938 116.463C231.242 116.584 231.515 116.74 231.757 116.931C232.009 117.113 232.208 117.347 232.355 117.633C232.511 117.91 232.589 118.257 232.589 118.673C232.589 119.063 232.503 119.449 232.329 119.83C232.156 120.203 231.861 120.515 231.445 120.766C231.029 121.009 230.453 121.13 229.716 121.13ZM236.433 121V113.304L234.704 114.448V113.343L236.303 112.329H237.369V121H236.433ZM243.936 121V118.4H239.724V117.399L243.819 112.329H244.872V117.529H246.107V118.4H244.872V121H243.936ZM240.764 117.529H243.936V113.668L240.764 117.529ZM248.939 121L252.826 112.966L252.917 113.265H247.821V112.329H253.736V113.2L249.979 121H248.939ZM255.416 121V119.7H256.716V121H255.416ZM261.549 121.104C260.994 121.104 260.526 121.026 260.145 120.87C259.764 120.705 259.456 120.493 259.222 120.233C258.988 119.964 258.815 119.674 258.702 119.362C258.598 119.05 258.546 118.738 258.546 118.426C258.546 118.027 258.62 117.694 258.767 117.425C258.923 117.148 259.096 116.931 259.287 116.775C259.486 116.61 259.66 116.493 259.807 116.424C259.963 116.355 260.041 116.32 260.041 116.32C260.041 116.32 259.98 116.29 259.859 116.229C259.746 116.16 259.612 116.051 259.456 115.904C259.3 115.757 259.161 115.566 259.04 115.332C258.927 115.089 258.871 114.799 258.871 114.461C258.871 114.097 258.958 113.742 259.131 113.395C259.304 113.048 259.586 112.767 259.976 112.55C260.375 112.325 260.899 112.212 261.549 112.212C262.208 112.212 262.732 112.325 263.122 112.55C263.512 112.767 263.794 113.048 263.967 113.395C264.14 113.742 264.227 114.097 264.227 114.461C264.227 114.808 264.171 115.102 264.058 115.345C263.945 115.579 263.811 115.77 263.655 115.917C263.508 116.056 263.378 116.155 263.265 116.216C263.152 116.277 263.096 116.307 263.096 116.307C263.096 116.307 263.17 116.346 263.317 116.424C263.464 116.493 263.633 116.61 263.824 116.775C264.015 116.94 264.184 117.156 264.331 117.425C264.478 117.694 264.552 118.027 264.552 118.426C264.552 118.738 264.5 119.05 264.396 119.362C264.292 119.674 264.123 119.964 263.889 120.233C263.655 120.493 263.343 120.705 262.953 120.87C262.572 121.026 262.104 121.104 261.549 121.104ZM261.549 120.22C262.034 120.22 262.416 120.151 262.693 120.012C262.97 119.865 263.174 119.687 263.304 119.479C263.434 119.271 263.516 119.072 263.551 118.881C263.594 118.682 263.616 118.53 263.616 118.426C263.616 118.079 263.534 117.789 263.369 117.555C263.213 117.312 262.983 117.13 262.68 117.009C262.377 116.879 262 116.814 261.549 116.814C261.107 116.814 260.73 116.879 260.418 117.009C260.115 117.13 259.881 117.312 259.716 117.555C259.56 117.789 259.482 118.079 259.482 118.426C259.482 118.53 259.499 118.682 259.534 118.881C259.577 119.072 259.664 119.271 259.794 119.479C259.933 119.687 260.141 119.865 260.418 120.012C260.695 120.151 261.072 120.22 261.549 120.22ZM261.549 115.956C261.913 115.956 262.225 115.895 262.485 115.774C262.745 115.653 262.944 115.484 263.083 115.267C263.222 115.042 263.291 114.773 263.291 114.461C263.291 114.088 263.2 113.811 263.018 113.629C262.836 113.438 262.611 113.308 262.342 113.239C262.082 113.17 261.818 113.135 261.549 113.135C261.289 113.135 261.025 113.17 260.756 113.239C260.487 113.308 260.262 113.438 260.08 113.629C259.898 113.811 259.807 114.088 259.807 114.461C259.807 114.773 259.876 115.042 260.015 115.267C260.154 115.484 260.353 115.653 260.613 115.774C260.873 115.895 261.185 115.956 261.549 115.956ZM270.025 121V118.4H265.813V117.399L269.908 112.329H270.961V117.529H272.196V118.4H270.961V121H270.025ZM266.853 117.529H270.025V113.668L266.853 117.529Z" fill="#252525"/>
<rect x="285" y="96" width="121" height="40" fill="#FBFCFC"/>
<path d="M352.643 112.641V111.211H353.579V112.641H352.643ZM352.643 122.209V120.649H353.579V122.209H352.643ZM352.942 121.13C352.509 121.13 352.14 121.1 351.837 121.039C351.534 120.978 351.261 120.892 351.018 120.779C350.775 120.666 350.511 120.536 350.225 120.389V119.375C350.502 119.609 350.875 119.817 351.343 119.999C351.811 120.181 352.357 120.272 352.981 120.272C353.64 120.272 354.116 120.133 354.411 119.856C354.714 119.57 354.866 119.21 354.866 118.777C354.866 118.413 354.766 118.123 354.567 117.906C354.368 117.681 354.112 117.499 353.8 117.36C353.488 117.213 353.159 117.074 352.812 116.944C352.517 116.84 352.223 116.732 351.928 116.619C351.642 116.498 351.382 116.35 351.148 116.177C350.914 115.995 350.728 115.765 350.589 115.488C350.45 115.202 350.381 114.847 350.381 114.422C350.381 114.188 350.424 113.941 350.511 113.681C350.606 113.421 350.754 113.178 350.953 112.953C351.161 112.728 351.434 112.546 351.772 112.407C352.119 112.268 352.539 112.199 353.033 112.199C353.371 112.199 353.657 112.225 353.891 112.277C354.134 112.32 354.363 112.39 354.58 112.485C354.797 112.572 355.039 112.68 355.308 112.81V113.772C355.083 113.642 354.866 113.525 354.658 113.421C354.459 113.308 354.233 113.222 353.982 113.161C353.739 113.092 353.44 113.057 353.085 113.057C352.66 113.057 352.318 113.118 352.058 113.239C351.807 113.36 351.62 113.521 351.499 113.72C351.386 113.919 351.33 114.132 351.33 114.357C351.33 114.712 351.408 114.994 351.564 115.202C351.729 115.41 351.954 115.583 352.24 115.722C352.535 115.852 352.873 115.982 353.254 116.112C353.557 116.216 353.861 116.333 354.164 116.463C354.467 116.584 354.74 116.74 354.983 116.931C355.234 117.113 355.434 117.347 355.581 117.633C355.737 117.91 355.815 118.257 355.815 118.673C355.815 119.063 355.728 119.449 355.555 119.83C355.382 120.203 355.087 120.515 354.671 120.766C354.255 121.009 353.679 121.13 352.942 121.13ZM359.958 121.104C359.481 121.104 359.048 121.052 358.658 120.948C358.276 120.835 357.938 120.705 357.644 120.558V119.596C357.912 119.743 358.229 119.878 358.593 119.999C358.965 120.112 359.381 120.168 359.841 120.168C360.612 120.168 361.201 120.025 361.609 119.739C362.016 119.453 362.22 119.041 362.22 118.504C362.22 117.967 362.012 117.555 361.596 117.269C361.18 116.983 360.577 116.84 359.789 116.84H358.84V115.943H359.828C360.46 115.943 360.941 115.826 361.271 115.592C361.609 115.349 361.778 115.003 361.778 114.552C361.778 114.249 361.7 113.993 361.544 113.785C361.388 113.577 361.154 113.421 360.842 113.317C360.538 113.204 360.166 113.148 359.724 113.148C359.334 113.148 358.983 113.196 358.671 113.291C358.359 113.378 358.086 113.482 357.852 113.603V112.654C358.112 112.533 358.406 112.429 358.736 112.342C359.065 112.255 359.429 112.212 359.828 112.212C360.365 112.212 360.816 112.281 361.18 112.42C361.552 112.55 361.851 112.728 362.077 112.953C362.302 113.178 362.462 113.43 362.558 113.707C362.662 113.984 362.714 114.266 362.714 114.552C362.714 114.873 362.657 115.146 362.545 115.371C362.432 115.596 362.302 115.778 362.155 115.917C362.007 116.056 361.877 116.155 361.765 116.216C361.652 116.277 361.596 116.307 361.596 116.307C361.596 116.307 361.674 116.35 361.83 116.437C361.986 116.515 362.168 116.645 362.376 116.827C362.584 117 362.766 117.23 362.922 117.516C363.078 117.793 363.156 118.131 363.156 118.53C363.156 118.842 363.099 119.15 362.987 119.453C362.874 119.756 362.692 120.034 362.441 120.285C362.189 120.536 361.86 120.736 361.453 120.883C361.045 121.03 360.547 121.104 359.958 121.104ZM365.171 121V120.181C365.466 119.964 365.804 119.696 366.185 119.375C366.575 119.054 366.965 118.703 367.355 118.322C367.754 117.932 368.118 117.529 368.447 117.113C368.785 116.688 369.058 116.268 369.266 115.852C369.474 115.436 369.578 115.037 369.578 114.656C369.578 114.422 369.526 114.192 369.422 113.967C369.318 113.733 369.119 113.538 368.824 113.382C368.529 113.226 368.1 113.148 367.537 113.148C367.017 113.148 366.562 113.235 366.172 113.408C365.791 113.581 365.487 113.746 365.262 113.902V112.875C365.539 112.702 365.873 112.55 366.263 112.42C366.662 112.281 367.112 112.212 367.615 112.212C368.326 112.212 368.893 112.333 369.318 112.576C369.743 112.819 370.046 113.126 370.228 113.499C370.419 113.872 370.514 114.257 370.514 114.656C370.514 115.046 370.414 115.453 370.215 115.878C370.024 116.303 369.769 116.727 369.448 117.152C369.136 117.577 368.789 117.988 368.408 118.387C368.027 118.786 367.645 119.158 367.264 119.505C366.883 119.843 366.536 120.138 366.224 120.389L365.951 120.064H370.644V121H365.171ZM375.923 121.143C374.796 121.143 373.942 120.77 373.362 120.025C372.79 119.28 372.504 118.17 372.504 116.697C372.504 115.224 372.79 114.114 373.362 113.369C373.942 112.624 374.796 112.251 375.923 112.251C377.058 112.251 377.912 112.624 378.484 113.369C379.056 114.114 379.342 115.224 379.342 116.697C379.342 118.17 379.056 119.28 378.484 120.025C377.912 120.77 377.058 121.143 375.923 121.143ZM375.923 120.285C376.209 120.285 376.499 120.246 376.794 120.168C377.088 120.09 377.357 119.93 377.6 119.687C377.842 119.444 378.037 119.085 378.185 118.608C378.332 118.131 378.406 117.494 378.406 116.697C378.406 115.9 378.332 115.263 378.185 114.786C378.037 114.309 377.842 113.954 377.6 113.72C377.357 113.477 377.088 113.317 376.794 113.239C376.499 113.152 376.209 113.109 375.923 113.109C375.637 113.109 375.346 113.152 375.052 113.239C374.757 113.317 374.488 113.477 374.246 113.72C374.003 113.954 373.808 114.309 373.661 114.786C373.513 115.263 373.44 115.9 373.44 116.697C373.44 117.494 373.513 118.131 373.661 118.608C373.808 119.085 374.003 119.444 374.246 119.687C374.488 119.93 374.757 120.09 375.052 120.168C375.346 120.246 375.637 120.285 375.923 120.285ZM381.168 121V119.7H382.468V121H381.168ZM386.3 121.104C386.057 121.104 385.828 121.087 385.611 121.052C385.403 121.026 385.212 120.987 385.039 120.935V120.064C385.204 120.099 385.381 120.133 385.572 120.168C385.771 120.203 385.979 120.22 386.196 120.22C386.343 120.22 386.543 120.194 386.794 120.142C387.054 120.09 387.327 119.995 387.613 119.856C387.899 119.717 388.172 119.514 388.432 119.245C388.692 118.976 388.904 118.625 389.069 118.192C389.234 117.759 389.316 117.226 389.316 116.593C389.316 115.848 389.264 115.245 389.16 114.786C389.065 114.318 388.922 113.963 388.731 113.72C388.549 113.477 388.337 113.313 388.094 113.226C387.851 113.139 387.587 113.096 387.301 113.096C386.833 113.096 386.46 113.178 386.183 113.343C385.914 113.508 385.715 113.707 385.585 113.941C385.464 114.175 385.381 114.405 385.338 114.63C385.303 114.855 385.286 115.029 385.286 115.15C385.286 115.739 385.459 116.194 385.806 116.515C386.153 116.836 386.651 116.996 387.301 116.996C387.691 116.996 388.033 116.94 388.328 116.827C388.631 116.706 388.883 116.576 389.082 116.437C389.281 116.29 389.416 116.181 389.485 116.112L389.472 117.152C389.394 117.204 389.281 117.273 389.134 117.36C388.995 117.438 388.831 117.516 388.64 117.594C388.449 117.672 388.241 117.737 388.016 117.789C387.791 117.841 387.552 117.867 387.301 117.867C386.391 117.867 385.672 117.624 385.143 117.139C384.614 116.645 384.35 115.978 384.35 115.137C384.35 114.799 384.402 114.461 384.506 114.123C384.61 113.776 384.779 113.46 385.013 113.174C385.247 112.879 385.55 112.645 385.923 112.472C386.296 112.299 386.755 112.212 387.301 112.212C388.28 112.212 389.017 112.554 389.511 113.239C390.005 113.915 390.252 114.929 390.252 116.281C390.252 117.148 390.152 117.876 389.953 118.465C389.762 119.046 389.511 119.514 389.199 119.869C388.887 120.216 388.553 120.48 388.198 120.662C387.843 120.835 387.496 120.952 387.158 121.013C386.82 121.074 386.534 121.104 386.3 121.104ZM394.203 121V113.304L392.474 114.448V113.343L394.073 112.329H395.139V121H394.203Z" fill="#252525"/>
<rect x="409" y="96" width="121" height="40" fill="white"/>
<path d="M476.897 112.641V111.211H477.833V112.641H476.897ZM476.897 122.209V120.649H477.833V122.209H476.897ZM477.196 121.13C476.762 121.13 476.394 121.1 476.091 121.039C475.787 120.978 475.514 120.892 475.272 120.779C475.029 120.666 474.765 120.536 474.479 120.389V119.375C474.756 119.609 475.129 119.817 475.597 119.999C476.065 120.181 476.611 120.272 477.235 120.272C477.893 120.272 478.37 120.133 478.665 119.856C478.968 119.57 479.12 119.21 479.12 118.777C479.12 118.413 479.02 118.123 478.821 117.906C478.621 117.681 478.366 117.499 478.054 117.36C477.742 117.213 477.412 117.074 477.066 116.944C476.771 116.84 476.476 116.732 476.182 116.619C475.896 116.498 475.636 116.35 475.402 116.177C475.168 115.995 474.981 115.765 474.843 115.488C474.704 115.202 474.635 114.847 474.635 114.422C474.635 114.188 474.678 113.941 474.765 113.681C474.86 113.421 475.007 113.178 475.207 112.953C475.415 112.728 475.688 112.546 476.026 112.407C476.372 112.268 476.793 112.199 477.287 112.199C477.625 112.199 477.911 112.225 478.145 112.277C478.387 112.32 478.617 112.39 478.834 112.485C479.05 112.572 479.293 112.68 479.562 112.81V113.772C479.336 113.642 479.12 113.525 478.912 113.421C478.712 113.308 478.487 113.222 478.236 113.161C477.993 113.092 477.694 113.057 477.339 113.057C476.914 113.057 476.572 113.118 476.312 113.239C476.06 113.36 475.874 113.521 475.753 113.72C475.64 113.919 475.584 114.132 475.584 114.357C475.584 114.712 475.662 114.994 475.818 115.202C475.982 115.41 476.208 115.583 476.494 115.722C476.788 115.852 477.126 115.982 477.508 116.112C477.811 116.216 478.114 116.333 478.418 116.463C478.721 116.584 478.994 116.74 479.237 116.931C479.488 117.113 479.687 117.347 479.835 117.633C479.991 117.91 480.069 118.257 480.069 118.673C480.069 119.063 479.982 119.449 479.809 119.83C479.635 120.203 479.341 120.515 478.925 120.766C478.509 121.009 477.932 121.13 477.196 121.13ZM483.913 121V113.304L482.184 114.448V113.343L483.783 112.329H484.849V121H483.913ZM488.738 121L492.625 112.966L492.716 113.265H487.62V112.329H493.535V113.2L489.778 121H488.738ZM497.542 121.104C497.065 121.104 496.632 121.052 496.242 120.948C495.86 120.835 495.522 120.705 495.228 120.558V119.596C495.496 119.743 495.813 119.878 496.177 119.999C496.549 120.112 496.965 120.168 497.425 120.168C498.196 120.168 498.785 120.025 499.193 119.739C499.6 119.453 499.804 119.041 499.804 118.504C499.804 117.967 499.596 117.555 499.18 117.269C498.764 116.983 498.161 116.84 497.373 116.84H496.424V115.943H497.412C498.044 115.943 498.525 115.826 498.855 115.592C499.193 115.349 499.362 115.003 499.362 114.552C499.362 114.249 499.284 113.993 499.128 113.785C498.972 113.577 498.738 113.421 498.426 113.317C498.122 113.204 497.75 113.148 497.308 113.148C496.918 113.148 496.567 113.196 496.255 113.291C495.943 113.378 495.67 113.482 495.436 113.603V112.654C495.696 112.533 495.99 112.429 496.32 112.342C496.649 112.255 497.013 112.212 497.412 112.212C497.949 112.212 498.4 112.281 498.764 112.42C499.136 112.55 499.435 112.728 499.661 112.953C499.886 113.178 500.046 113.43 500.142 113.707C500.246 113.984 500.298 114.266 500.298 114.552C500.298 114.873 500.241 115.146 500.129 115.371C500.016 115.596 499.886 115.778 499.739 115.917C499.591 116.056 499.461 116.155 499.349 116.216C499.236 116.277 499.18 116.307 499.18 116.307C499.18 116.307 499.258 116.35 499.414 116.437C499.57 116.515 499.752 116.645 499.96 116.827C500.168 117 500.35 117.23 500.506 117.516C500.662 117.793 500.74 118.131 500.74 118.53C500.74 118.842 500.683 119.15 500.571 119.453C500.458 119.756 500.276 120.034 500.025 120.285C499.773 120.536 499.444 120.736 499.037 120.883C498.629 121.03 498.131 121.104 497.542 121.104ZM502.794 121V119.7H504.094V121H502.794ZM509.33 121.143C508.203 121.143 507.35 120.77 506.769 120.025C506.197 119.28 505.911 118.17 505.911 116.697C505.911 115.224 506.197 114.114 506.769 113.369C507.35 112.624 508.203 112.251 509.33 112.251C510.465 112.251 511.319 112.624 511.891 113.369C512.463 114.114 512.749 115.224 512.749 116.697C512.749 118.17 512.463 119.28 511.891 120.025C511.319 120.77 510.465 121.143 509.33 121.143ZM509.33 120.285C509.616 120.285 509.906 120.246 510.201 120.168C510.496 120.09 510.764 119.93 511.007 119.687C511.25 119.444 511.445 119.085 511.592 118.608C511.739 118.131 511.813 117.494 511.813 116.697C511.813 115.9 511.739 115.263 511.592 114.786C511.445 114.309 511.25 113.954 511.007 113.72C510.764 113.477 510.496 113.317 510.201 113.239C509.906 113.152 509.616 113.109 509.33 113.109C509.044 113.109 508.754 113.152 508.459 113.239C508.164 113.317 507.896 113.477 507.653 113.72C507.41 113.954 507.215 114.309 507.068 114.786C506.921 115.263 506.847 115.9 506.847 116.697C506.847 117.494 506.921 118.131 507.068 118.608C507.215 119.085 507.41 119.444 507.653 119.687C507.896 119.93 508.164 120.09 508.459 120.168C508.754 120.246 509.044 120.285 509.33 120.285ZM515.563 121L519.45 112.966L519.541 113.265H514.445V112.329H520.36V113.2L516.603 121H515.563Z" fill="#252525"/>
<rect x="10" y="139" width="148" height="40" fill="#E4E7ED"/>
<path d="M24.428 164.12C23.612 164.12 22.928 163.968 22.376 163.664C21.824 163.352 21.408 162.892 21.128 162.284C20.856 161.668 20.72 160.904 20.72 159.992C20.72 159.08 20.856 158.32 21.128 157.712C21.408 157.104 21.824 156.648 22.376 156.344C22.928 156.04 23.612 155.888 24.428 155.888C24.868 155.888 25.3 155.932 25.724 156.02C26.148 156.108 26.556 156.244 26.948 156.428V157.328C26.572 157.16 26.18 157.016 25.772 156.896C25.364 156.768 24.948 156.704 24.524 156.704C23.852 156.704 23.296 156.824 22.856 157.064C22.424 157.296 22.104 157.656 21.896 158.144C21.688 158.624 21.584 159.24 21.584 159.992C21.584 160.744 21.688 161.364 21.896 161.852C22.104 162.34 22.424 162.704 22.856 162.944C23.296 163.176 23.852 163.292 24.524 163.292C24.844 163.292 25.156 163.268 25.46 163.22C25.764 163.172 26.064 163.1 26.36 163.004V160.724H24.428V159.884H27.224V163.496C26.784 163.704 26.332 163.86 25.868 163.964C25.404 164.068 24.924 164.12 24.428 164.12ZM31.6583 164.18C30.7223 164.18 30.0263 163.904 29.5703 163.352C29.1223 162.792 28.8983 162.016 28.8983 161.024C28.8983 159.984 29.1343 159.204 29.6063 158.684C30.0863 158.164 30.7623 157.904 31.6343 157.904C32.2823 157.904 32.8103 158.036 33.2183 158.3C33.6263 158.556 33.9263 158.92 34.1183 159.392C34.3103 159.856 34.4063 160.4 34.4063 161.024C34.4063 162.008 34.1663 162.78 33.6863 163.34C33.2143 163.9 32.5383 164.18 31.6583 164.18ZM31.6463 163.388C32.1343 163.388 32.5143 163.284 32.7863 163.076C33.0583 162.86 33.2503 162.576 33.3623 162.224C33.4823 161.864 33.5423 161.464 33.5423 161.024C33.5423 160.552 33.4823 160.144 33.3623 159.8C33.2423 159.448 33.0423 159.176 32.7623 158.984C32.4903 158.792 32.1183 158.696 31.6463 158.696C31.1663 158.696 30.7903 158.8 30.5183 159.008C30.2463 159.216 30.0503 159.496 29.9303 159.848C29.8183 160.192 29.7623 160.584 29.7623 161.024C29.7623 161.728 29.9023 162.3 30.1823 162.74C30.4623 163.172 30.9503 163.388 31.6463 163.388ZM38.4903 164.18C37.5543 164.18 36.8583 163.904 36.4023 163.352C35.9543 162.792 35.7303 162.016 35.7303 161.024C35.7303 159.984 35.9663 159.204 36.4383 158.684C36.9183 158.164 37.5943 157.904 38.4663 157.904C39.1143 157.904 39.6423 158.036 40.0503 158.3C40.4583 158.556 40.7583 158.92 40.9503 159.392C41.1423 159.856 41.2383 160.4 41.2383 161.024C41.2383 162.008 40.9983 162.78 40.5183 163.34C40.0463 163.9 39.3703 164.18 38.4903 164.18ZM38.4783 163.388C38.9663 163.388 39.3463 163.284 39.6183 163.076C39.8903 162.86 40.0823 162.576 40.1943 162.224C40.3143 161.864 40.3743 161.464 40.3743 161.024C40.3743 160.552 40.3143 160.144 40.1943 159.8C40.0743 159.448 39.8743 159.176 39.5943 158.984C39.3223 158.792 38.9503 158.696 38.4783 158.696C37.9983 158.696 37.6223 158.8 37.3503 159.008C37.0783 159.216 36.8823 159.496 36.7623 159.848C36.6503 160.192 36.5943 160.584 36.5943 161.024C36.5943 161.728 36.7343 162.3 37.0143 162.74C37.2943 163.172 37.7823 163.388 38.4783 163.388ZM45.2983 164.18C44.6823 164.18 44.1703 164.06 43.7623 163.82C43.3623 163.572 43.0623 163.224 42.8623 162.776C42.6623 162.32 42.5623 161.784 42.5623 161.168C42.5623 160.48 42.6543 159.924 42.8383 159.5C43.0223 159.068 43.2583 158.74 43.5463 158.516C43.8423 158.284 44.1623 158.128 44.5063 158.048C44.8583 157.96 45.1983 157.916 45.5263 157.916C45.9023 157.916 46.2583 157.968 46.5943 158.072C46.9383 158.168 47.2183 158.324 47.4343 158.54C47.6583 158.756 47.7703 159.044 47.7703 159.404V164.252C47.7703 164.492 47.7343 164.736 47.6623 164.984C47.5903 165.232 47.4583 165.46 47.2663 165.668C47.0823 165.884 46.8183 166.056 46.4743 166.184C46.1383 166.312 45.7023 166.376 45.1663 166.376C44.8223 166.376 44.5063 166.344 44.2183 166.28C43.9303 166.216 43.6783 166.156 43.4623 166.1V165.284C43.5903 165.316 43.7343 165.352 43.8943 165.392C44.0623 165.44 44.2423 165.48 44.4343 165.512C44.6343 165.544 44.8463 165.56 45.0703 165.56C45.6143 165.56 46.0143 165.492 46.2703 165.356C46.5343 165.228 46.7063 165.064 46.7863 164.864C46.8663 164.672 46.9063 164.476 46.9063 164.276V163.4L47.2063 163.7C47.0543 163.78 46.8623 163.856 46.6303 163.928C46.3983 164 46.1623 164.06 45.9223 164.108C45.6823 164.156 45.4743 164.18 45.2983 164.18ZM45.2983 163.388C45.5543 163.388 45.8223 163.356 46.1023 163.292C46.3903 163.22 46.6583 163.112 46.9063 162.968V159.524C46.9063 159.3 46.8423 159.132 46.7143 159.02C46.5943 158.9 46.4303 158.82 46.2223 158.78C46.0143 158.732 45.7903 158.708 45.5503 158.708C44.9663 158.708 44.5263 158.824 44.2303 159.056C43.9343 159.28 43.7343 159.58 43.6303 159.956C43.5263 160.332 43.4743 160.736 43.4743 161.168C43.4743 161.824 43.6143 162.36 43.8943 162.776C44.1743 163.184 44.6423 163.388 45.2983 163.388ZM50.5584 164H49.6944V155.732H50.5584V164ZM54.9554 164.18C54.3874 164.18 53.8954 164.064 53.4794 163.832C53.0634 163.592 52.7434 163.236 52.5194 162.764C52.2954 162.292 52.1834 161.704 52.1834 161C52.1834 159.968 52.4154 159.196 52.8794 158.684C53.3514 158.164 53.9954 157.904 54.8114 157.904C55.4514 157.904 55.9634 158.048 56.3474 158.336C56.7394 158.624 57.0194 159.012 57.1874 159.5C57.3554 159.988 57.4354 160.54 57.4274 161.156H52.6154L52.6754 160.364H56.8634L56.5274 160.484C56.5034 159.884 56.3514 159.436 56.0714 159.14C55.7994 158.844 55.3794 158.696 54.8114 158.696C54.4194 158.696 54.0914 158.768 53.8274 158.912C53.5714 159.056 53.3794 159.308 53.2514 159.668C53.1234 160.02 53.0594 160.516 53.0594 161.156C53.0594 161.884 53.2274 162.44 53.5634 162.824C53.9074 163.2 54.3874 163.388 55.0034 163.388C55.2994 163.388 55.5714 163.368 55.8194 163.328C56.0674 163.28 56.2954 163.216 56.5034 163.136C56.7114 163.056 56.8954 162.968 57.0554 162.872V163.76C56.7674 163.896 56.4474 164 56.0954 164.072C55.7514 164.144 55.3714 164.18 54.9554 164.18Z" fill="#252525"/>
<rect x="161" y="139" width="121" height="40" fill="white"/>
<path d="M228.706 155.641V154.211H229.642V155.641H228.706ZM228.706 165.209V163.649H229.642V165.209H228.706ZM229.005 164.13C228.572 164.13 228.204 164.1 227.9 164.039C227.597 163.978 227.324 163.892 227.081 163.779C226.839 163.666 226.574 163.536 226.288 163.389V162.375C226.566 162.609 226.938 162.817 227.406 162.999C227.874 163.181 228.42 163.272 229.044 163.272C229.703 163.272 230.18 163.133 230.474 162.856C230.778 162.57 230.929 162.21 230.929 161.777C230.929 161.413 230.83 161.123 230.63 160.906C230.431 160.681 230.175 160.499 229.863 160.36C229.551 160.213 229.222 160.074 228.875 159.944C228.581 159.84 228.286 159.732 227.991 159.619C227.705 159.498 227.445 159.35 227.211 159.177C226.977 158.995 226.791 158.765 226.652 158.488C226.514 158.202 226.444 157.847 226.444 157.422C226.444 157.188 226.488 156.941 226.574 156.681C226.67 156.421 226.817 156.178 227.016 155.953C227.224 155.728 227.497 155.546 227.835 155.407C228.182 155.268 228.602 155.199 229.096 155.199C229.434 155.199 229.72 155.225 229.954 155.277C230.197 155.32 230.427 155.39 230.643 155.485C230.86 155.572 231.103 155.68 231.371 155.81V156.772C231.146 156.642 230.929 156.525 230.721 156.421C230.522 156.308 230.297 156.222 230.045 156.161C229.803 156.092 229.504 156.057 229.148 156.057C228.724 156.057 228.381 156.118 228.121 156.239C227.87 156.36 227.684 156.521 227.562 156.72C227.45 156.919 227.393 157.132 227.393 157.357C227.393 157.712 227.471 157.994 227.627 158.202C227.792 158.41 228.017 158.583 228.303 158.722C228.598 158.852 228.936 158.982 229.317 159.112C229.621 159.216 229.924 159.333 230.227 159.463C230.531 159.584 230.804 159.74 231.046 159.931C231.298 160.113 231.497 160.347 231.644 160.633C231.8 160.91 231.878 161.257 231.878 161.673C231.878 162.063 231.792 162.449 231.618 162.83C231.445 163.203 231.15 163.515 230.734 163.766C230.318 164.009 229.742 164.13 229.005 164.13ZM233.655 164V163.181C233.95 162.964 234.288 162.696 234.669 162.375C235.059 162.054 235.449 161.703 235.839 161.322C236.238 160.932 236.602 160.529 236.931 160.113C237.269 159.688 237.542 159.268 237.75 158.852C237.958 158.436 238.062 158.037 238.062 157.656C238.062 157.422 238.01 157.192 237.906 156.967C237.802 156.733 237.603 156.538 237.308 156.382C237.014 156.226 236.585 156.148 236.021 156.148C235.501 156.148 235.046 156.235 234.656 156.408C234.275 156.581 233.972 156.746 233.746 156.902V155.875C234.024 155.702 234.357 155.55 234.747 155.42C235.146 155.281 235.597 155.212 236.099 155.212C236.81 155.212 237.378 155.333 237.802 155.576C238.227 155.819 238.53 156.126 238.712 156.499C238.903 156.872 238.998 157.257 238.998 157.656C238.998 158.046 238.899 158.453 238.699 158.878C238.509 159.303 238.253 159.727 237.932 160.152C237.62 160.577 237.274 160.988 236.892 161.387C236.511 161.786 236.13 162.158 235.748 162.505C235.367 162.843 235.02 163.138 234.708 163.389L234.435 163.064H239.128V164H233.655ZM244.004 164.104C243.449 164.104 242.981 164.026 242.6 163.87C242.219 163.705 241.911 163.493 241.677 163.233C241.443 162.964 241.27 162.674 241.157 162.362C241.053 162.05 241.001 161.738 241.001 161.426C241.001 161.027 241.075 160.694 241.222 160.425C241.378 160.148 241.551 159.931 241.742 159.775C241.941 159.61 242.115 159.493 242.262 159.424C242.418 159.355 242.496 159.32 242.496 159.32C242.496 159.32 242.435 159.29 242.314 159.229C242.201 159.16 242.067 159.051 241.911 158.904C241.755 158.757 241.616 158.566 241.495 158.332C241.382 158.089 241.326 157.799 241.326 157.461C241.326 157.097 241.413 156.742 241.586 156.395C241.759 156.048 242.041 155.767 242.431 155.55C242.83 155.325 243.354 155.212 244.004 155.212C244.663 155.212 245.187 155.325 245.577 155.55C245.967 155.767 246.249 156.048 246.422 156.395C246.595 156.742 246.682 157.097 246.682 157.461C246.682 157.808 246.626 158.102 246.513 158.345C246.4 158.579 246.266 158.77 246.11 158.917C245.963 159.056 245.833 159.155 245.72 159.216C245.607 159.277 245.551 159.307 245.551 159.307C245.551 159.307 245.625 159.346 245.772 159.424C245.919 159.493 246.088 159.61 246.279 159.775C246.47 159.94 246.639 160.156 246.786 160.425C246.933 160.694 247.007 161.027 247.007 161.426C247.007 161.738 246.955 162.05 246.851 162.362C246.747 162.674 246.578 162.964 246.344 163.233C246.11 163.493 245.798 163.705 245.408 163.87C245.027 164.026 244.559 164.104 244.004 164.104ZM244.004 163.22C244.489 163.22 244.871 163.151 245.148 163.012C245.425 162.865 245.629 162.687 245.759 162.479C245.889 162.271 245.971 162.072 246.006 161.881C246.049 161.682 246.071 161.53 246.071 161.426C246.071 161.079 245.989 160.789 245.824 160.555C245.668 160.312 245.438 160.13 245.135 160.009C244.832 159.879 244.455 159.814 244.004 159.814C243.562 159.814 243.185 159.879 242.873 160.009C242.57 160.13 242.336 160.312 242.171 160.555C242.015 160.789 241.937 161.079 241.937 161.426C241.937 161.53 241.954 161.682 241.989 161.881C242.032 162.072 242.119 162.271 242.249 162.479C242.388 162.687 242.596 162.865 242.873 163.012C243.15 163.151 243.527 163.22 244.004 163.22ZM244.004 158.956C244.368 158.956 244.68 158.895 244.94 158.774C245.2 158.653 245.399 158.484 245.538 158.267C245.677 158.042 245.746 157.773 245.746 157.461C245.746 157.088 245.655 156.811 245.473 156.629C245.291 156.438 245.066 156.308 244.797 156.239C244.537 156.17 244.273 156.135 244.004 156.135C243.744 156.135 243.48 156.17 243.211 156.239C242.942 156.308 242.717 156.438 242.535 156.629C242.353 156.811 242.262 157.088 242.262 157.461C242.262 157.773 242.331 158.042 242.47 158.267C242.609 158.484 242.808 158.653 243.068 158.774C243.328 158.895 243.64 158.956 244.004 158.956ZM251.973 164.143C250.847 164.143 249.993 163.77 249.412 163.025C248.84 162.28 248.554 161.17 248.554 159.697C248.554 158.224 248.84 157.114 249.412 156.369C249.993 155.624 250.847 155.251 251.973 155.251C253.109 155.251 253.962 155.624 254.534 156.369C255.106 157.114 255.392 158.224 255.392 159.697C255.392 161.17 255.106 162.28 254.534 163.025C253.962 163.77 253.109 164.143 251.973 164.143ZM251.973 163.285C252.259 163.285 252.55 163.246 252.844 163.168C253.139 163.09 253.408 162.93 253.65 162.687C253.893 162.444 254.088 162.085 254.235 161.608C254.383 161.131 254.456 160.494 254.456 159.697C254.456 158.9 254.383 158.263 254.235 157.786C254.088 157.309 253.893 156.954 253.65 156.72C253.408 156.477 253.139 156.317 252.844 156.239C252.55 156.152 252.259 156.109 251.973 156.109C251.687 156.109 251.397 156.152 251.102 156.239C250.808 156.317 250.539 156.477 250.296 156.72C250.054 156.954 249.859 157.309 249.711 157.786C249.564 158.263 249.49 158.9 249.49 159.697C249.49 160.494 249.564 161.131 249.711 161.608C249.859 162.085 250.054 162.444 250.296 162.687C250.539 162.93 250.808 163.09 251.102 163.168C251.397 163.246 251.687 163.285 251.973 163.285ZM257.219 164V162.7H258.519V164H257.219ZM262.624 164V156.304L260.895 157.448V156.343L262.494 155.329H263.56V164H262.624ZM269.217 164.104C268.238 164.104 267.501 163.766 267.007 163.09C266.513 162.405 266.266 161.387 266.266 160.035C266.266 159.168 266.361 158.445 266.552 157.864C266.751 157.275 267.007 156.807 267.319 156.46C267.631 156.105 267.965 155.84 268.32 155.667C268.675 155.485 269.022 155.364 269.36 155.303C269.698 155.242 269.984 155.212 270.218 155.212C270.461 155.212 270.686 155.229 270.894 155.264C271.111 155.29 271.306 155.329 271.479 155.381V156.252C271.314 156.209 271.137 156.174 270.946 156.148C270.755 156.113 270.547 156.096 270.322 156.096C270.175 156.096 269.971 156.122 269.711 156.174C269.46 156.226 269.191 156.321 268.905 156.46C268.619 156.599 268.346 156.802 268.086 157.071C267.826 157.34 267.614 157.691 267.449 158.124C267.284 158.549 267.202 159.082 267.202 159.723C267.202 160.468 267.25 161.075 267.345 161.543C267.449 162.002 267.592 162.353 267.774 162.596C267.965 162.839 268.181 163.003 268.424 163.09C268.667 163.177 268.931 163.22 269.217 163.22C269.685 163.22 270.053 163.138 270.322 162.973C270.599 162.808 270.799 162.609 270.92 162.375C271.05 162.141 271.132 161.911 271.167 161.686C271.21 161.461 271.232 161.287 271.232 161.166C271.232 160.577 271.059 160.122 270.712 159.801C270.365 159.48 269.867 159.32 269.217 159.32C268.827 159.32 268.48 159.381 268.177 159.502C267.882 159.615 267.635 159.74 267.436 159.879C267.245 160.018 267.111 160.126 267.033 160.204L267.046 159.164C267.124 159.112 267.232 159.047 267.371 158.969C267.518 158.882 267.687 158.8 267.878 158.722C268.069 158.644 268.277 158.579 268.502 158.527C268.727 158.475 268.966 158.449 269.217 158.449C270.127 158.449 270.846 158.696 271.375 159.19C271.904 159.675 272.168 160.338 272.168 161.179C272.168 161.517 272.116 161.859 272.012 162.206C271.908 162.544 271.739 162.86 271.505 163.155C271.271 163.441 270.968 163.671 270.595 163.844C270.222 164.017 269.763 164.104 269.217 164.104Z" fill="#252525"/>
<rect x="285" y="139" width="121" height="40" fill="#FBFCFC"/>
<path d="M352.122 155.641V154.211H353.058V155.641H352.122ZM352.122 165.209V163.649H353.058V165.209H352.122ZM352.421 164.13C351.988 164.13 351.62 164.1 351.316 164.039C351.013 163.978 350.74 163.892 350.497 163.779C350.255 163.666 349.99 163.536 349.704 163.389V162.375C349.982 162.609 350.354 162.817 350.822 162.999C351.29 163.181 351.836 163.272 352.46 163.272C353.119 163.272 353.596 163.133 353.89 162.856C354.194 162.57 354.345 162.21 354.345 161.777C354.345 161.413 354.246 161.123 354.046 160.906C353.847 160.681 353.591 160.499 353.279 160.36C352.967 160.213 352.638 160.074 352.291 159.944C351.997 159.84 351.702 159.732 351.407 159.619C351.121 159.498 350.861 159.35 350.627 159.177C350.393 158.995 350.207 158.765 350.068 158.488C349.93 158.202 349.86 157.847 349.86 157.422C349.86 157.188 349.904 156.941 349.99 156.681C350.086 156.421 350.233 156.178 350.432 155.953C350.64 155.728 350.913 155.546 351.251 155.407C351.598 155.268 352.018 155.199 352.512 155.199C352.85 155.199 353.136 155.225 353.37 155.277C353.613 155.32 353.843 155.39 354.059 155.485C354.276 155.572 354.519 155.68 354.787 155.81V156.772C354.562 156.642 354.345 156.525 354.137 156.421C353.938 156.308 353.713 156.222 353.461 156.161C353.219 156.092 352.92 156.057 352.564 156.057C352.14 156.057 351.797 156.118 351.537 156.239C351.286 156.36 351.1 156.521 350.978 156.72C350.866 156.919 350.809 157.132 350.809 157.357C350.809 157.712 350.887 157.994 351.043 158.202C351.208 158.41 351.433 158.583 351.719 158.722C352.014 158.852 352.352 158.982 352.733 159.112C353.037 159.216 353.34 159.333 353.643 159.463C353.947 159.584 354.22 159.74 354.462 159.931C354.714 160.113 354.913 160.347 355.06 160.633C355.216 160.91 355.294 161.257 355.294 161.673C355.294 162.063 355.208 162.449 355.034 162.83C354.861 163.203 354.566 163.515 354.15 163.766C353.734 164.009 353.158 164.13 352.421 164.13ZM359.437 164.104C358.961 164.104 358.527 164.052 358.137 163.948C357.756 163.835 357.418 163.705 357.123 163.558V162.596C357.392 162.743 357.708 162.878 358.072 162.999C358.445 163.112 358.861 163.168 359.32 163.168C360.092 163.168 360.681 163.025 361.088 162.739C361.496 162.453 361.699 162.041 361.699 161.504C361.699 160.967 361.491 160.555 361.075 160.269C360.659 159.983 360.057 159.84 359.268 159.84H358.319V158.943H359.307C359.94 158.943 360.421 158.826 360.75 158.592C361.088 158.349 361.257 158.003 361.257 157.552C361.257 157.249 361.179 156.993 361.023 156.785C360.867 156.577 360.633 156.421 360.321 156.317C360.018 156.204 359.645 156.148 359.203 156.148C358.813 156.148 358.462 156.196 358.15 156.291C357.838 156.378 357.565 156.482 357.331 156.603V155.654C357.591 155.533 357.886 155.429 358.215 155.342C358.545 155.255 358.909 155.212 359.307 155.212C359.845 155.212 360.295 155.281 360.659 155.42C361.032 155.55 361.331 155.728 361.556 155.953C361.782 156.178 361.942 156.43 362.037 156.707C362.141 156.984 362.193 157.266 362.193 157.552C362.193 157.873 362.137 158.146 362.024 158.371C361.912 158.596 361.782 158.778 361.634 158.917C361.487 159.056 361.357 159.155 361.244 159.216C361.132 159.277 361.075 159.307 361.075 159.307C361.075 159.307 361.153 159.35 361.309 159.437C361.465 159.515 361.647 159.645 361.855 159.827C362.063 160 362.245 160.23 362.401 160.516C362.557 160.793 362.635 161.131 362.635 161.53C362.635 161.842 362.579 162.15 362.466 162.453C362.354 162.756 362.172 163.034 361.92 163.285C361.669 163.536 361.34 163.736 360.932 163.883C360.525 164.03 360.027 164.104 359.437 164.104ZM365.677 164L369.564 155.966L369.655 156.265H364.559V155.329H370.474V156.2L366.717 164H365.677ZM375.82 164V161.4H371.608V160.399L375.703 155.329H376.756V160.529H377.991V161.4H376.756V164H375.82ZM372.648 160.529H375.82V156.668L372.648 160.529ZM379.835 164V162.7H381.135V164H379.835ZM384.2 164L388.087 155.966L388.178 156.265H383.082V155.329H388.997V156.2L385.24 164H384.2ZM393.459 164.104C392.878 164.104 392.384 164.052 391.977 163.948C391.578 163.835 391.244 163.71 390.976 163.571V162.596C391.097 162.665 391.262 162.748 391.47 162.843C391.686 162.938 391.955 163.021 392.276 163.09C392.596 163.159 392.969 163.194 393.394 163.194C393.836 163.194 394.182 163.138 394.434 163.025C394.694 162.904 394.884 162.752 395.006 162.57C395.127 162.379 395.205 162.18 395.24 161.972C395.274 161.755 395.292 161.547 395.292 161.348C395.292 160.802 395.196 160.403 395.006 160.152C394.824 159.892 394.585 159.723 394.291 159.645C394.005 159.567 393.706 159.528 393.394 159.528C392.934 159.528 392.553 159.563 392.25 159.632C391.946 159.693 391.721 159.758 391.574 159.827C391.426 159.896 391.353 159.931 391.353 159.931L390.768 159.333L391.21 155.329H395.669V156.252H392.016L391.769 159.047L390.846 159.203C391.175 159.004 391.574 158.852 392.042 158.748C392.51 158.644 392.982 158.592 393.459 158.592C393.771 158.592 394.087 158.631 394.408 158.709C394.737 158.787 395.036 158.926 395.305 159.125C395.582 159.316 395.803 159.593 395.968 159.957C396.132 160.312 396.215 160.776 396.215 161.348C396.215 161.92 396.132 162.388 395.968 162.752C395.803 163.107 395.582 163.385 395.305 163.584C395.036 163.775 394.737 163.909 394.408 163.987C394.087 164.065 393.771 164.104 393.459 164.104Z" fill="#252525"/>
<rect x="409" y="139" width="121" height="40" fill="white"/>
<path d="M483.371 155.641V154.211H484.307V155.641H483.371ZM483.371 165.209V163.649H484.307V165.209H483.371ZM483.67 164.13C483.237 164.13 482.869 164.1 482.565 164.039C482.262 163.978 481.989 163.892 481.746 163.779C481.504 163.666 481.239 163.536 480.953 163.389V162.375C481.231 162.609 481.603 162.817 482.071 162.999C482.539 163.181 483.085 163.272 483.709 163.272C484.368 163.272 484.845 163.133 485.139 162.856C485.443 162.57 485.594 162.21 485.594 161.777C485.594 161.413 485.495 161.123 485.295 160.906C485.096 160.681 484.84 160.499 484.528 160.36C484.216 160.213 483.887 160.074 483.54 159.944C483.246 159.84 482.951 159.732 482.656 159.619C482.37 159.498 482.11 159.35 481.876 159.177C481.642 158.995 481.456 158.765 481.317 158.488C481.179 158.202 481.109 157.847 481.109 157.422C481.109 157.188 481.153 156.941 481.239 156.681C481.335 156.421 481.482 156.178 481.681 155.953C481.889 155.728 482.162 155.546 482.5 155.407C482.847 155.268 483.267 155.199 483.761 155.199C484.099 155.199 484.385 155.225 484.619 155.277C484.862 155.32 485.092 155.39 485.308 155.485C485.525 155.572 485.768 155.68 486.036 155.81V156.772C485.811 156.642 485.594 156.525 485.386 156.421C485.187 156.308 484.962 156.222 484.71 156.161C484.468 156.092 484.169 156.057 483.813 156.057C483.389 156.057 483.046 156.118 482.786 156.239C482.535 156.36 482.349 156.521 482.227 156.72C482.115 156.919 482.058 157.132 482.058 157.357C482.058 157.712 482.136 157.994 482.292 158.202C482.457 158.41 482.682 158.583 482.968 158.722C483.263 158.852 483.601 158.982 483.982 159.112C484.286 159.216 484.589 159.333 484.892 159.463C485.196 159.584 485.469 159.74 485.711 159.931C485.963 160.113 486.162 160.347 486.309 160.633C486.465 160.91 486.543 161.257 486.543 161.673C486.543 162.063 486.457 162.449 486.283 162.83C486.11 163.203 485.815 163.515 485.399 163.766C484.983 164.009 484.407 164.13 483.67 164.13ZM490.114 164.104C489.872 164.104 489.642 164.087 489.425 164.052C489.217 164.026 489.027 163.987 488.853 163.935V163.064C489.018 163.099 489.196 163.133 489.386 163.168C489.586 163.203 489.794 163.22 490.01 163.22C490.158 163.22 490.357 163.194 490.608 163.142C490.868 163.09 491.141 162.995 491.427 162.856C491.713 162.717 491.986 162.514 492.246 162.245C492.506 161.976 492.719 161.625 492.883 161.192C493.048 160.759 493.13 160.226 493.13 159.593C493.13 158.848 493.078 158.245 492.974 157.786C492.879 157.318 492.736 156.963 492.545 156.72C492.363 156.477 492.151 156.313 491.908 156.226C491.666 156.139 491.401 156.096 491.115 156.096C490.647 156.096 490.275 156.178 489.997 156.343C489.729 156.508 489.529 156.707 489.399 156.941C489.278 157.175 489.196 157.405 489.152 157.63C489.118 157.855 489.1 158.029 489.1 158.15C489.1 158.739 489.274 159.194 489.62 159.515C489.967 159.836 490.465 159.996 491.115 159.996C491.505 159.996 491.848 159.94 492.142 159.827C492.446 159.706 492.697 159.576 492.896 159.437C493.096 159.29 493.23 159.181 493.299 159.112L493.286 160.152C493.208 160.204 493.096 160.273 492.948 160.36C492.81 160.438 492.645 160.516 492.454 160.594C492.264 160.672 492.056 160.737 491.83 160.789C491.605 160.841 491.367 160.867 491.115 160.867C490.205 160.867 489.486 160.624 488.957 160.139C488.429 159.645 488.164 158.978 488.164 158.137C488.164 157.799 488.216 157.461 488.32 157.123C488.424 156.776 488.593 156.46 488.827 156.174C489.061 155.879 489.365 155.645 489.737 155.472C490.11 155.299 490.569 155.212 491.115 155.212C492.095 155.212 492.831 155.554 493.325 156.239C493.819 156.915 494.066 157.929 494.066 159.281C494.066 160.148 493.967 160.876 493.767 161.465C493.577 162.046 493.325 162.514 493.013 162.869C492.701 163.216 492.368 163.48 492.012 163.662C491.657 163.835 491.31 163.952 490.972 164.013C490.634 164.074 490.348 164.104 490.114 164.104ZM499.655 164V161.4H495.443V160.399L499.538 155.329H500.591V160.529H501.826V161.4H500.591V164H499.655ZM496.483 160.529H499.655V156.668L496.483 160.529ZM503.67 164V162.7H504.97V164H503.67ZM509.829 164.104C509.248 164.104 508.754 164.052 508.347 163.948C507.948 163.835 507.615 163.71 507.346 163.571V162.596C507.467 162.665 507.632 162.748 507.84 162.843C508.057 162.938 508.325 163.021 508.646 163.09C508.967 163.159 509.339 163.194 509.764 163.194C510.206 163.194 510.553 163.138 510.804 163.025C511.064 162.904 511.255 162.752 511.376 162.57C511.497 162.379 511.575 162.18 511.61 161.972C511.645 161.755 511.662 161.547 511.662 161.348C511.662 160.802 511.567 160.403 511.376 160.152C511.194 159.892 510.956 159.723 510.661 159.645C510.375 159.567 510.076 159.528 509.764 159.528C509.305 159.528 508.923 159.563 508.62 159.632C508.317 159.693 508.091 159.758 507.944 159.827C507.797 159.896 507.723 159.931 507.723 159.931L507.138 159.333L507.58 155.329H512.039V156.252H508.386L508.139 159.047L507.216 159.203C507.545 159.004 507.944 158.852 508.412 158.748C508.88 158.644 509.352 158.592 509.829 158.592C510.141 158.592 510.457 158.631 510.778 158.709C511.107 158.787 511.406 158.926 511.675 159.125C511.952 159.316 512.173 159.593 512.338 159.957C512.503 160.312 512.585 160.776 512.585 161.348C512.585 161.92 512.503 162.388 512.338 162.752C512.173 163.107 511.952 163.385 511.675 163.584C511.406 163.775 511.107 163.909 510.778 163.987C510.457 164.065 510.141 164.104 509.829 164.104ZM516.165 164.104C515.922 164.104 515.693 164.087 515.476 164.052C515.268 164.026 515.077 163.987 514.904 163.935V163.064C515.069 163.099 515.246 163.133 515.437 163.168C515.636 163.203 515.844 163.22 516.061 163.22C516.208 163.22 516.408 163.194 516.659 163.142C516.919 163.09 517.192 162.995 517.478 162.856C517.764 162.717 518.037 162.514 518.297 162.245C518.557 161.976 518.769 161.625 518.934 161.192C519.099 160.759 519.181 160.226 519.181 159.593C519.181 158.848 519.129 158.245 519.025 157.786C518.93 157.318 518.787 156.963 518.596 156.72C518.414 156.477 518.202 156.313 517.959 156.226C517.716 156.139 517.452 156.096 517.166 156.096C516.698 156.096 516.325 156.178 516.048 156.343C515.779 156.508 515.58 156.707 515.45 156.941C515.329 157.175 515.246 157.405 515.203 157.63C515.168 157.855 515.151 158.029 515.151 158.15C515.151 158.739 515.324 159.194 515.671 159.515C516.018 159.836 516.516 159.996 517.166 159.996C517.556 159.996 517.898 159.94 518.193 159.827C518.496 159.706 518.748 159.576 518.947 159.437C519.146 159.29 519.281 159.181 519.35 159.112L519.337 160.152C519.259 160.204 519.146 160.273 518.999 160.36C518.86 160.438 518.696 160.516 518.505 160.594C518.314 160.672 518.106 160.737 517.881 160.789C517.656 160.841 517.417 160.867 517.166 160.867C516.256 160.867 515.537 160.624 515.008 160.139C514.479 159.645 514.215 158.978 514.215 158.137C514.215 157.799 514.267 157.461 514.371 157.123C514.475 156.776 514.644 156.46 514.878 156.174C515.112 155.879 515.415 155.645 515.788 155.472C516.161 155.299 516.62 155.212 517.166 155.212C518.145 155.212 518.882 155.554 519.376 156.239C519.87 156.915 520.117 157.929 520.117 159.281C520.117 160.148 520.017 160.876 519.818 161.465C519.627 162.046 519.376 162.514 519.064 162.869C518.752 163.216 518.418 163.48 518.063 163.662C517.708 163.835 517.361 163.952 517.023 164.013C516.685 164.074 516.399 164.104 516.165 164.104Z" fill="#252525"/>
</svg>
