<svg width="540" height="452" viewBox="0 0 540 452" fill="none" xmlns="http://www.w3.org/2000/svg">
<rect x="4.5" y="4.5" width="531" height="443" rx="7.5" fill="white" stroke="#DAE2EA"/>
<path d="M30.4202 83.902V83C29.8629 82.9633 29.3899 82.8277 29.0012 82.593C28.6199 82.351 28.2935 82.0503 28.0222 81.691L28.6712 81.108C28.9059 81.4233 29.1625 81.6763 29.4412 81.867C29.7272 82.0503 30.0572 82.1677 30.4312 82.219V79.392C29.6759 79.2233 29.1222 78.9777 28.7702 78.655C28.4255 78.325 28.2532 77.874 28.2532 77.302C28.2532 77.0087 28.3045 76.7483 28.4072 76.521C28.5172 76.2863 28.6675 76.0847 28.8582 75.916C29.0489 75.7473 29.2762 75.6153 29.5402 75.52C29.8042 75.4173 30.0975 75.3513 30.4202 75.322V74.42H31.1022V75.311C31.6009 75.355 32.0299 75.4833 32.3892 75.696C32.7559 75.9013 33.0712 76.1873 33.3352 76.554L32.6642 77.06C32.4809 76.8033 32.2609 76.5943 32.0042 76.433C31.7475 76.2643 31.4432 76.1543 31.0912 76.103V78.677L31.1902 78.699C31.9529 78.8677 32.5065 79.117 32.8512 79.447C33.2032 79.7697 33.3792 80.2207 33.3792 80.8C33.3792 81.4307 33.1739 81.9403 32.7632 82.329C32.3599 82.7103 31.8062 82.934 31.1022 83V83.902H30.4202ZM32.5102 80.855C32.5102 80.481 32.4002 80.195 32.1802 79.997C31.9675 79.799 31.6045 79.6377 31.0912 79.513V82.219C31.5312 82.1603 31.8759 82.0137 32.1252 81.779C32.3819 81.537 32.5102 81.229 32.5102 80.855ZM29.1222 77.236C29.1222 77.61 29.2285 77.8923 29.4412 78.083C29.6612 78.2663 29.9912 78.4167 30.4312 78.534V76.103C30.0352 76.1543 29.7162 76.2753 29.4742 76.466C29.2395 76.6567 29.1222 76.9133 29.1222 77.236ZM34.9924 83V82.186H37.1374V76.004H37.0604L35.1244 77.808L34.5854 77.225L36.6204 75.322H38.0614V82.186H40.0414V83H34.9924ZM46.4831 83H41.4451V82.054L43.9531 79.744C44.3125 79.414 44.6131 79.0657 44.8551 78.699C45.0971 78.325 45.2181 77.951 45.2181 77.577V77.445C45.2181 77.0197 45.1008 76.675 44.8661 76.411C44.6315 76.147 44.2758 76.015 43.7991 76.015C43.5645 76.015 43.3591 76.048 43.1831 76.114C43.0071 76.18 42.8531 76.2717 42.7211 76.389C42.5965 76.5063 42.4901 76.6457 42.4021 76.807C42.3215 76.961 42.2555 77.1297 42.2041 77.313L41.3791 76.994C41.4525 76.7667 41.5515 76.5467 41.6761 76.334C41.8081 76.114 41.9695 75.9197 42.1601 75.751C42.3581 75.5823 42.5928 75.4467 42.8641 75.344C43.1428 75.2413 43.4691 75.19 43.8431 75.19C44.2171 75.19 44.5508 75.245 44.8441 75.355C45.1375 75.465 45.3831 75.619 45.5811 75.817C45.7791 76.015 45.9295 76.2497 46.0321 76.521C46.1421 76.7923 46.1971 77.093 46.1971 77.423C46.1971 77.7237 46.1531 78.0023 46.0651 78.259C45.9845 78.5157 45.8708 78.7613 45.7241 78.996C45.5775 79.2233 45.3978 79.447 45.1851 79.667C44.9798 79.887 44.7561 80.107 44.5141 80.327L42.4461 82.186H46.4831V83ZM52.6938 76.136H49.3278L49.1078 79.062H49.1848C49.3682 78.8053 49.5735 78.6 49.8008 78.446C50.0355 78.292 50.3545 78.215 50.7578 78.215C51.0878 78.215 51.3922 78.27 51.6708 78.38C51.9495 78.49 52.1915 78.6477 52.3968 78.853C52.6022 79.051 52.7598 79.2967 52.8698 79.59C52.9872 79.8833 53.0458 80.217 53.0458 80.591C53.0458 80.965 52.9872 81.3097 52.8698 81.625C52.7525 81.933 52.5802 82.2007 52.3528 82.428C52.1328 82.648 51.8615 82.8203 51.5388 82.945C51.2235 83.0697 50.8642 83.132 50.4608 83.132C50.1382 83.132 49.8522 83.0953 49.6028 83.022C49.3608 82.9487 49.1445 82.8497 48.9538 82.725C48.7632 82.6003 48.5945 82.461 48.4478 82.307C48.3085 82.153 48.1802 81.9917 48.0628 81.823L48.7558 81.295C48.8512 81.449 48.9502 81.5883 49.0528 81.713C49.1628 81.8377 49.2802 81.944 49.4048 82.032C49.5368 82.12 49.6872 82.1897 49.8558 82.241C50.0245 82.285 50.2262 82.307 50.4608 82.307C50.9888 82.307 51.3885 82.1677 51.6598 81.889C51.9312 81.6103 52.0668 81.218 52.0668 80.712V80.602C52.0668 80.096 51.9312 79.7037 51.6598 79.425C51.3885 79.1463 50.9888 79.007 50.4608 79.007C50.1088 79.007 49.8302 79.073 49.6248 79.205C49.4268 79.3297 49.2472 79.48 49.0858 79.656L48.3048 79.546L48.5798 75.322H52.6938V76.136ZM55.3075 83.132C55.0729 83.132 54.9005 83.0733 54.7905 82.956C54.6879 82.8387 54.6365 82.6847 54.6365 82.494V82.351C54.6365 82.1603 54.6879 82.0063 54.7905 81.889C54.9005 81.7717 55.0729 81.713 55.3075 81.713C55.5422 81.713 55.7109 81.7717 55.8135 81.889C55.9235 82.0063 55.9785 82.1603 55.9785 82.351V82.494C55.9785 82.6847 55.9235 82.8387 55.8135 82.956C55.7109 83.0733 55.5422 83.132 55.3075 83.132ZM60.1086 83.132C59.1919 83.132 58.5209 82.7837 58.0956 82.087C57.6776 81.3903 57.4686 80.415 57.4686 79.161C57.4686 77.907 57.6776 76.9317 58.0956 76.235C58.5209 75.5383 59.1919 75.19 60.1086 75.19C61.0253 75.19 61.6926 75.5383 62.1106 76.235C62.5359 76.9317 62.7486 77.907 62.7486 79.161C62.7486 80.415 62.5359 81.3903 62.1106 82.087C61.6926 82.7837 61.0253 83.132 60.1086 83.132ZM60.1086 82.329C60.4093 82.329 60.6659 82.2667 60.8786 82.142C61.0913 82.0173 61.2636 81.8413 61.3956 81.614C61.5276 81.3867 61.6229 81.119 61.6816 80.811C61.7476 80.503 61.7806 80.162 61.7806 79.788V78.534C61.7806 78.16 61.7476 77.819 61.6816 77.511C61.6229 77.203 61.5276 76.9353 61.3956 76.708C61.2636 76.4807 61.0913 76.3047 60.8786 76.18C60.6659 76.0553 60.4093 75.993 60.1086 75.993C59.8079 75.993 59.5513 76.0553 59.3386 76.18C59.1259 76.3047 58.9536 76.4807 58.8216 76.708C58.6896 76.9353 58.5906 77.203 58.5246 77.511C58.4659 77.819 58.4366 78.16 58.4366 78.534V79.788C58.4366 80.162 58.4659 80.503 58.5246 80.811C58.5906 81.119 58.6896 81.3867 58.8216 81.614C58.9536 81.8413 59.1259 82.0173 59.3386 82.142C59.5513 82.2667 59.8079 82.329 60.1086 82.329ZM66.7043 83.132C65.7876 83.132 65.1166 82.7837 64.6913 82.087C64.2733 81.3903 64.0643 80.415 64.0643 79.161C64.0643 77.907 64.2733 76.9317 64.6913 76.235C65.1166 75.5383 65.7876 75.19 66.7043 75.19C67.621 75.19 68.2883 75.5383 68.7063 76.235C69.1316 76.9317 69.3443 77.907 69.3443 79.161C69.3443 80.415 69.1316 81.3903 68.7063 82.087C68.2883 82.7837 67.621 83.132 66.7043 83.132ZM66.7043 82.329C67.005 82.329 67.2616 82.2667 67.4743 82.142C67.687 82.0173 67.8593 81.8413 67.9913 81.614C68.1233 81.3867 68.2186 81.119 68.2773 80.811C68.3433 80.503 68.3763 80.162 68.3763 79.788V78.534C68.3763 78.16 68.3433 77.819 68.2773 77.511C68.2186 77.203 68.1233 76.9353 67.9913 76.708C67.8593 76.4807 67.687 76.3047 67.4743 76.18C67.2616 76.0553 67.005 75.993 66.7043 75.993C66.4036 75.993 66.147 76.0553 65.9343 76.18C65.7216 76.3047 65.5493 76.4807 65.4173 76.708C65.2853 76.9353 65.1863 77.203 65.1203 77.511C65.0616 77.819 65.0323 78.16 65.0323 78.534V79.788C65.0323 80.162 65.0616 80.503 65.1203 80.811C65.1863 81.119 65.2853 81.3867 65.4173 81.614C65.5493 81.8413 65.7216 82.0173 65.9343 82.142C66.147 82.2667 66.4036 82.329 66.7043 82.329Z" fill="#666666"/>
<line x1="84" y1="79.5" x2="500" y2="79.5" stroke="#9EA5AB" stroke-dasharray="1 2"/>
<path d="M30.4202 149.902V149C29.8629 148.963 29.3899 148.828 29.0012 148.593C28.6199 148.351 28.2935 148.05 28.0222 147.691L28.6712 147.108C28.9059 147.423 29.1625 147.676 29.4412 147.867C29.7272 148.05 30.0572 148.168 30.4312 148.219V145.392C29.6759 145.223 29.1222 144.978 28.7702 144.655C28.4255 144.325 28.2532 143.874 28.2532 143.302C28.2532 143.009 28.3045 142.748 28.4072 142.521C28.5172 142.286 28.6675 142.085 28.8582 141.916C29.0489 141.747 29.2762 141.615 29.5402 141.52C29.8042 141.417 30.0975 141.351 30.4202 141.322V140.42H31.1022V141.311C31.6009 141.355 32.0299 141.483 32.3892 141.696C32.7559 141.901 33.0712 142.187 33.3352 142.554L32.6642 143.06C32.4809 142.803 32.2609 142.594 32.0042 142.433C31.7475 142.264 31.4432 142.154 31.0912 142.103V144.677L31.1902 144.699C31.9529 144.868 32.5065 145.117 32.8512 145.447C33.2032 145.77 33.3792 146.221 33.3792 146.8C33.3792 147.431 33.1739 147.94 32.7632 148.329C32.3599 148.71 31.8062 148.934 31.1022 149V149.902H30.4202ZM32.5102 146.855C32.5102 146.481 32.4002 146.195 32.1802 145.997C31.9675 145.799 31.6045 145.638 31.0912 145.513V148.219C31.5312 148.16 31.8759 148.014 32.1252 147.779C32.3819 147.537 32.5102 147.229 32.5102 146.855ZM29.1222 143.236C29.1222 143.61 29.2285 143.892 29.4412 144.083C29.6612 144.266 29.9912 144.417 30.4312 144.534V142.103C30.0352 142.154 29.7162 142.275 29.4742 142.466C29.2395 142.657 29.1222 142.913 29.1222 143.236ZM34.9924 149V148.186H37.1374V142.004H37.0604L35.1244 143.808L34.5854 143.225L36.6204 141.322H38.0614V148.186H40.0414V149H34.9924ZM43.9201 149.132C43.0035 149.132 42.3325 148.784 41.9071 148.087C41.4891 147.39 41.2801 146.415 41.2801 145.161C41.2801 143.907 41.4891 142.932 41.9071 142.235C42.3325 141.538 43.0035 141.19 43.9201 141.19C44.8368 141.19 45.5041 141.538 45.9221 142.235C46.3475 142.932 46.5601 143.907 46.5601 145.161C46.5601 146.415 46.3475 147.39 45.9221 148.087C45.5041 148.784 44.8368 149.132 43.9201 149.132ZM43.9201 148.329C44.2208 148.329 44.4775 148.267 44.6901 148.142C44.9028 148.017 45.0751 147.841 45.2071 147.614C45.3391 147.387 45.4345 147.119 45.4931 146.811C45.5591 146.503 45.5921 146.162 45.5921 145.788V144.534C45.5921 144.16 45.5591 143.819 45.4931 143.511C45.4345 143.203 45.3391 142.935 45.2071 142.708C45.0751 142.481 44.9028 142.305 44.6901 142.18C44.4775 142.055 44.2208 141.993 43.9201 141.993C43.6195 141.993 43.3628 142.055 43.1501 142.18C42.9375 142.305 42.7651 142.481 42.6331 142.708C42.5011 142.935 42.4021 143.203 42.3361 143.511C42.2775 143.819 42.2481 144.16 42.2481 144.534V145.788C42.2481 146.162 42.2775 146.503 42.3361 146.811C42.4021 147.119 42.5011 147.387 42.6331 147.614C42.7651 147.841 42.9375 148.017 43.1501 148.142C43.3628 148.267 43.6195 148.329 43.9201 148.329ZM50.5158 149.132C49.5992 149.132 48.9282 148.784 48.5028 148.087C48.0848 147.39 47.8758 146.415 47.8758 145.161C47.8758 143.907 48.0848 142.932 48.5028 142.235C48.9282 141.538 49.5992 141.19 50.5158 141.19C51.4325 141.19 52.0998 141.538 52.5178 142.235C52.9432 142.932 53.1558 143.907 53.1558 145.161C53.1558 146.415 52.9432 147.39 52.5178 148.087C52.0998 148.784 51.4325 149.132 50.5158 149.132ZM50.5158 148.329C50.8165 148.329 51.0732 148.267 51.2858 148.142C51.4985 148.017 51.6708 147.841 51.8028 147.614C51.9348 147.387 52.0302 147.119 52.0888 146.811C52.1548 146.503 52.1878 146.162 52.1878 145.788V144.534C52.1878 144.16 52.1548 143.819 52.0888 143.511C52.0302 143.203 51.9348 142.935 51.8028 142.708C51.6708 142.481 51.4985 142.305 51.2858 142.18C51.0732 142.055 50.8165 141.993 50.5158 141.993C50.2152 141.993 49.9585 142.055 49.7458 142.18C49.5332 142.305 49.3608 142.481 49.2288 142.708C49.0968 142.935 48.9978 143.203 48.9318 143.511C48.8732 143.819 48.8438 144.16 48.8438 144.534V145.788C48.8438 146.162 48.8732 146.503 48.9318 146.811C48.9978 147.119 49.0968 147.387 49.2288 147.614C49.3608 147.841 49.5332 148.017 49.7458 148.142C49.9585 148.267 50.2152 148.329 50.5158 148.329ZM55.3075 149.132C55.0729 149.132 54.9005 149.073 54.7905 148.956C54.6879 148.839 54.6365 148.685 54.6365 148.494V148.351C54.6365 148.16 54.6879 148.006 54.7905 147.889C54.9005 147.772 55.0729 147.713 55.3075 147.713C55.5422 147.713 55.7109 147.772 55.8135 147.889C55.9235 148.006 55.9785 148.16 55.9785 148.351V148.494C55.9785 148.685 55.9235 148.839 55.8135 148.956C55.7109 149.073 55.5422 149.132 55.3075 149.132ZM60.1086 149.132C59.1919 149.132 58.5209 148.784 58.0956 148.087C57.6776 147.39 57.4686 146.415 57.4686 145.161C57.4686 143.907 57.6776 142.932 58.0956 142.235C58.5209 141.538 59.1919 141.19 60.1086 141.19C61.0253 141.19 61.6926 141.538 62.1106 142.235C62.5359 142.932 62.7486 143.907 62.7486 145.161C62.7486 146.415 62.5359 147.39 62.1106 148.087C61.6926 148.784 61.0253 149.132 60.1086 149.132ZM60.1086 148.329C60.4093 148.329 60.6659 148.267 60.8786 148.142C61.0913 148.017 61.2636 147.841 61.3956 147.614C61.5276 147.387 61.6229 147.119 61.6816 146.811C61.7476 146.503 61.7806 146.162 61.7806 145.788V144.534C61.7806 144.16 61.7476 143.819 61.6816 143.511C61.6229 143.203 61.5276 142.935 61.3956 142.708C61.2636 142.481 61.0913 142.305 60.8786 142.18C60.6659 142.055 60.4093 141.993 60.1086 141.993C59.8079 141.993 59.5513 142.055 59.3386 142.18C59.1259 142.305 58.9536 142.481 58.8216 142.708C58.6896 142.935 58.5906 143.203 58.5246 143.511C58.4659 143.819 58.4366 144.16 58.4366 144.534V145.788C58.4366 146.162 58.4659 146.503 58.5246 146.811C58.5906 147.119 58.6896 147.387 58.8216 147.614C58.9536 147.841 59.1259 148.017 59.3386 148.142C59.5513 148.267 59.8079 148.329 60.1086 148.329ZM66.7043 149.132C65.7876 149.132 65.1166 148.784 64.6913 148.087C64.2733 147.39 64.0643 146.415 64.0643 145.161C64.0643 143.907 64.2733 142.932 64.6913 142.235C65.1166 141.538 65.7876 141.19 66.7043 141.19C67.621 141.19 68.2883 141.538 68.7063 142.235C69.1316 142.932 69.3443 143.907 69.3443 145.161C69.3443 146.415 69.1316 147.39 68.7063 148.087C68.2883 148.784 67.621 149.132 66.7043 149.132ZM66.7043 148.329C67.005 148.329 67.2616 148.267 67.4743 148.142C67.687 148.017 67.8593 147.841 67.9913 147.614C68.1233 147.387 68.2186 147.119 68.2773 146.811C68.3433 146.503 68.3763 146.162 68.3763 145.788V144.534C68.3763 144.16 68.3433 143.819 68.2773 143.511C68.2186 143.203 68.1233 142.935 67.9913 142.708C67.8593 142.481 67.687 142.305 67.4743 142.18C67.2616 142.055 67.005 141.993 66.7043 141.993C66.4036 141.993 66.147 142.055 65.9343 142.18C65.7216 142.305 65.5493 142.481 65.4173 142.708C65.2853 142.935 65.1863 143.203 65.1203 143.511C65.0616 143.819 65.0323 144.16 65.0323 144.534V145.788C65.0323 146.162 65.0616 146.503 65.1203 146.811C65.1863 147.119 65.2853 147.387 65.4173 147.614C65.5493 147.841 65.7216 148.017 65.9343 148.142C66.147 148.267 66.4036 148.329 66.7043 148.329Z" fill="#666666"/>
<line x1="84" y1="145.5" x2="500" y2="145.5" stroke="#9EA5AB" stroke-dasharray="1 2"/>
<path d="M37.0159 215.902V215C36.4586 214.963 35.9856 214.828 35.5969 214.593C35.2156 214.351 34.8892 214.05 34.6179 213.691L35.2669 213.108C35.5016 213.423 35.7582 213.676 36.0369 213.867C36.3229 214.05 36.6529 214.168 37.0269 214.219V211.392C36.2716 211.223 35.7179 210.978 35.3659 210.655C35.0212 210.325 34.8489 209.874 34.8489 209.302C34.8489 209.009 34.9002 208.748 35.0029 208.521C35.1129 208.286 35.2632 208.085 35.4539 207.916C35.6446 207.747 35.8719 207.615 36.1359 207.52C36.3999 207.417 36.6932 207.351 37.0159 207.322V206.42H37.6979V207.311C38.1966 207.355 38.6256 207.483 38.9849 207.696C39.3516 207.901 39.6669 208.187 39.9309 208.554L39.2599 209.06C39.0766 208.803 38.8566 208.594 38.5999 208.433C38.3432 208.264 38.0389 208.154 37.6869 208.103V210.677L37.7859 210.699C38.5486 210.868 39.1022 211.117 39.4469 211.447C39.7989 211.77 39.9749 212.221 39.9749 212.8C39.9749 213.431 39.7696 213.94 39.3589 214.329C38.9556 214.71 38.4019 214.934 37.6979 215V215.902H37.0159ZM39.1059 212.855C39.1059 212.481 38.9959 212.195 38.7759 211.997C38.5632 211.799 38.2002 211.638 37.6869 211.513V214.219C38.1269 214.16 38.4716 214.014 38.7209 213.779C38.9776 213.537 39.1059 213.229 39.1059 212.855ZM35.7179 209.236C35.7179 209.61 35.8242 209.892 36.0369 210.083C36.2569 210.266 36.5869 210.417 37.0269 210.534V208.103C36.6309 208.154 36.3119 208.275 36.0699 208.466C35.8352 208.657 35.7179 208.913 35.7179 209.236ZM42.5451 215L45.4821 208.114H42.2041V209.544H41.3791V207.322H46.4171V208.136L43.5351 215H42.5451ZM52.6938 208.136H49.3278L49.1078 211.062H49.1848C49.3682 210.805 49.5735 210.6 49.8008 210.446C50.0355 210.292 50.3545 210.215 50.7578 210.215C51.0878 210.215 51.3922 210.27 51.6708 210.38C51.9495 210.49 52.1915 210.648 52.3968 210.853C52.6022 211.051 52.7598 211.297 52.8698 211.59C52.9872 211.883 53.0458 212.217 53.0458 212.591C53.0458 212.965 52.9872 213.31 52.8698 213.625C52.7525 213.933 52.5802 214.201 52.3528 214.428C52.1328 214.648 51.8615 214.82 51.5388 214.945C51.2235 215.07 50.8642 215.132 50.4608 215.132C50.1382 215.132 49.8522 215.095 49.6028 215.022C49.3608 214.949 49.1445 214.85 48.9538 214.725C48.7632 214.6 48.5945 214.461 48.4478 214.307C48.3085 214.153 48.1802 213.992 48.0628 213.823L48.7558 213.295C48.8512 213.449 48.9502 213.588 49.0528 213.713C49.1628 213.838 49.2802 213.944 49.4048 214.032C49.5368 214.12 49.6872 214.19 49.8558 214.241C50.0245 214.285 50.2262 214.307 50.4608 214.307C50.9888 214.307 51.3885 214.168 51.6598 213.889C51.9312 213.61 52.0668 213.218 52.0668 212.712V212.602C52.0668 212.096 51.9312 211.704 51.6598 211.425C51.3885 211.146 50.9888 211.007 50.4608 211.007C50.1088 211.007 49.8302 211.073 49.6248 211.205C49.4268 211.33 49.2472 211.48 49.0858 211.656L48.3048 211.546L48.5798 207.322H52.6938V208.136ZM55.3075 215.132C55.0729 215.132 54.9005 215.073 54.7905 214.956C54.6879 214.839 54.6365 214.685 54.6365 214.494V214.351C54.6365 214.16 54.6879 214.006 54.7905 213.889C54.9005 213.772 55.0729 213.713 55.3075 213.713C55.5422 213.713 55.7109 213.772 55.8135 213.889C55.9235 214.006 55.9785 214.16 55.9785 214.351V214.494C55.9785 214.685 55.9235 214.839 55.8135 214.956C55.7109 215.073 55.5422 215.132 55.3075 215.132ZM60.1086 215.132C59.1919 215.132 58.5209 214.784 58.0956 214.087C57.6776 213.39 57.4686 212.415 57.4686 211.161C57.4686 209.907 57.6776 208.932 58.0956 208.235C58.5209 207.538 59.1919 207.19 60.1086 207.19C61.0253 207.19 61.6926 207.538 62.1106 208.235C62.5359 208.932 62.7486 209.907 62.7486 211.161C62.7486 212.415 62.5359 213.39 62.1106 214.087C61.6926 214.784 61.0253 215.132 60.1086 215.132ZM60.1086 214.329C60.4093 214.329 60.6659 214.267 60.8786 214.142C61.0913 214.017 61.2636 213.841 61.3956 213.614C61.5276 213.387 61.6229 213.119 61.6816 212.811C61.7476 212.503 61.7806 212.162 61.7806 211.788V210.534C61.7806 210.16 61.7476 209.819 61.6816 209.511C61.6229 209.203 61.5276 208.935 61.3956 208.708C61.2636 208.481 61.0913 208.305 60.8786 208.18C60.6659 208.055 60.4093 207.993 60.1086 207.993C59.8079 207.993 59.5513 208.055 59.3386 208.18C59.1259 208.305 58.9536 208.481 58.8216 208.708C58.6896 208.935 58.5906 209.203 58.5246 209.511C58.4659 209.819 58.4366 210.16 58.4366 210.534V211.788C58.4366 212.162 58.4659 212.503 58.5246 212.811C58.5906 213.119 58.6896 213.387 58.8216 213.614C58.9536 213.841 59.1259 214.017 59.3386 214.142C59.5513 214.267 59.8079 214.329 60.1086 214.329ZM66.7043 215.132C65.7876 215.132 65.1166 214.784 64.6913 214.087C64.2733 213.39 64.0643 212.415 64.0643 211.161C64.0643 209.907 64.2733 208.932 64.6913 208.235C65.1166 207.538 65.7876 207.19 66.7043 207.19C67.621 207.19 68.2883 207.538 68.7063 208.235C69.1316 208.932 69.3443 209.907 69.3443 211.161C69.3443 212.415 69.1316 213.39 68.7063 214.087C68.2883 214.784 67.621 215.132 66.7043 215.132ZM66.7043 214.329C67.005 214.329 67.2616 214.267 67.4743 214.142C67.687 214.017 67.8593 213.841 67.9913 213.614C68.1233 213.387 68.2186 213.119 68.2773 212.811C68.3433 212.503 68.3763 212.162 68.3763 211.788V210.534C68.3763 210.16 68.3433 209.819 68.2773 209.511C68.2186 209.203 68.1233 208.935 67.9913 208.708C67.8593 208.481 67.687 208.305 67.4743 208.18C67.2616 208.055 67.005 207.993 66.7043 207.993C66.4036 207.993 66.147 208.055 65.9343 208.18C65.7216 208.305 65.5493 208.481 65.4173 208.708C65.2853 208.935 65.1863 209.203 65.1203 209.511C65.0616 209.819 65.0323 210.16 65.0323 210.534V211.788C65.0323 212.162 65.0616 212.503 65.1203 212.811C65.1863 213.119 65.2853 213.387 65.4173 213.614C65.5493 213.841 65.7216 214.017 65.9343 214.142C66.147 214.267 66.4036 214.329 66.7043 214.329Z" fill="#666666"/>
<line x1="84" y1="211.5" x2="500" y2="211.5" stroke="#9EA5AB" stroke-dasharray="1 2"/>
<path d="M37.0159 281.902V281C36.4586 280.963 35.9856 280.828 35.5969 280.593C35.2156 280.351 34.8892 280.05 34.6179 279.691L35.2669 279.108C35.5016 279.423 35.7582 279.676 36.0369 279.867C36.3229 280.05 36.6529 280.168 37.0269 280.219V277.392C36.2716 277.223 35.7179 276.978 35.3659 276.655C35.0212 276.325 34.8489 275.874 34.8489 275.302C34.8489 275.009 34.9002 274.748 35.0029 274.521C35.1129 274.286 35.2632 274.085 35.4539 273.916C35.6446 273.747 35.8719 273.615 36.1359 273.52C36.3999 273.417 36.6932 273.351 37.0159 273.322V272.42H37.6979V273.311C38.1966 273.355 38.6256 273.483 38.9849 273.696C39.3516 273.901 39.6669 274.187 39.9309 274.554L39.2599 275.06C39.0766 274.803 38.8566 274.594 38.5999 274.433C38.3432 274.264 38.0389 274.154 37.6869 274.103V276.677L37.7859 276.699C38.5486 276.868 39.1022 277.117 39.4469 277.447C39.7989 277.77 39.9749 278.221 39.9749 278.8C39.9749 279.431 39.7696 279.94 39.3589 280.329C38.9556 280.71 38.4019 280.934 37.6979 281V281.902H37.0159ZM39.1059 278.855C39.1059 278.481 38.9959 278.195 38.7759 277.997C38.5632 277.799 38.2002 277.638 37.6869 277.513V280.219C38.1269 280.16 38.4716 280.014 38.7209 279.779C38.9776 279.537 39.1059 279.229 39.1059 278.855ZM35.7179 275.236C35.7179 275.61 35.8242 275.892 36.0369 276.083C36.2569 276.266 36.5869 276.417 37.0269 276.534V274.103C36.6309 274.154 36.3119 274.275 36.0699 274.466C35.8352 274.657 35.7179 274.913 35.7179 275.236ZM46.0981 274.136H42.7321L42.5121 277.062H42.5891C42.7725 276.805 42.9778 276.6 43.2051 276.446C43.4398 276.292 43.7588 276.215 44.1621 276.215C44.4921 276.215 44.7965 276.27 45.0751 276.38C45.3538 276.49 45.5958 276.648 45.8011 276.853C46.0065 277.051 46.1641 277.297 46.2741 277.59C46.3915 277.883 46.4501 278.217 46.4501 278.591C46.4501 278.965 46.3915 279.31 46.2741 279.625C46.1568 279.933 45.9845 280.201 45.7571 280.428C45.5371 280.648 45.2658 280.82 44.9431 280.945C44.6278 281.07 44.2685 281.132 43.8651 281.132C43.5425 281.132 43.2565 281.095 43.0071 281.022C42.7651 280.949 42.5488 280.85 42.3581 280.725C42.1675 280.6 41.9988 280.461 41.8521 280.307C41.7128 280.153 41.5845 279.992 41.4671 279.823L42.1601 279.295C42.2555 279.449 42.3545 279.588 42.4571 279.713C42.5671 279.838 42.6845 279.944 42.8091 280.032C42.9411 280.12 43.0915 280.19 43.2601 280.241C43.4288 280.285 43.6305 280.307 43.8651 280.307C44.3931 280.307 44.7928 280.168 45.0641 279.889C45.3355 279.61 45.4711 279.218 45.4711 278.712V278.602C45.4711 278.096 45.3355 277.704 45.0641 277.425C44.7928 277.146 44.3931 277.007 43.8651 277.007C43.5131 277.007 43.2345 277.073 43.0291 277.205C42.8311 277.33 42.6515 277.48 42.4901 277.656L41.7091 277.546L41.9841 273.322H46.0981V274.136ZM50.5158 281.132C49.5992 281.132 48.9282 280.784 48.5028 280.087C48.0848 279.39 47.8758 278.415 47.8758 277.161C47.8758 275.907 48.0848 274.932 48.5028 274.235C48.9282 273.538 49.5992 273.19 50.5158 273.19C51.4325 273.19 52.0998 273.538 52.5178 274.235C52.9432 274.932 53.1558 275.907 53.1558 277.161C53.1558 278.415 52.9432 279.39 52.5178 280.087C52.0998 280.784 51.4325 281.132 50.5158 281.132ZM50.5158 280.329C50.8165 280.329 51.0732 280.267 51.2858 280.142C51.4985 280.017 51.6708 279.841 51.8028 279.614C51.9348 279.387 52.0302 279.119 52.0888 278.811C52.1548 278.503 52.1878 278.162 52.1878 277.788V276.534C52.1878 276.16 52.1548 275.819 52.0888 275.511C52.0302 275.203 51.9348 274.935 51.8028 274.708C51.6708 274.481 51.4985 274.305 51.2858 274.18C51.0732 274.055 50.8165 273.993 50.5158 273.993C50.2152 273.993 49.9585 274.055 49.7458 274.18C49.5332 274.305 49.3608 274.481 49.2288 274.708C49.0968 274.935 48.9978 275.203 48.9318 275.511C48.8732 275.819 48.8438 276.16 48.8438 276.534V277.788C48.8438 278.162 48.8732 278.503 48.9318 278.811C48.9978 279.119 49.0968 279.387 49.2288 279.614C49.3608 279.841 49.5332 280.017 49.7458 280.142C49.9585 280.267 50.2152 280.329 50.5158 280.329ZM55.3075 281.132C55.0729 281.132 54.9005 281.073 54.7905 280.956C54.6879 280.839 54.6365 280.685 54.6365 280.494V280.351C54.6365 280.16 54.6879 280.006 54.7905 279.889C54.9005 279.772 55.0729 279.713 55.3075 279.713C55.5422 279.713 55.7109 279.772 55.8135 279.889C55.9235 280.006 55.9785 280.16 55.9785 280.351V280.494C55.9785 280.685 55.9235 280.839 55.8135 280.956C55.7109 281.073 55.5422 281.132 55.3075 281.132ZM60.1086 281.132C59.1919 281.132 58.5209 280.784 58.0956 280.087C57.6776 279.39 57.4686 278.415 57.4686 277.161C57.4686 275.907 57.6776 274.932 58.0956 274.235C58.5209 273.538 59.1919 273.19 60.1086 273.19C61.0253 273.19 61.6926 273.538 62.1106 274.235C62.5359 274.932 62.7486 275.907 62.7486 277.161C62.7486 278.415 62.5359 279.39 62.1106 280.087C61.6926 280.784 61.0253 281.132 60.1086 281.132ZM60.1086 280.329C60.4093 280.329 60.6659 280.267 60.8786 280.142C61.0913 280.017 61.2636 279.841 61.3956 279.614C61.5276 279.387 61.6229 279.119 61.6816 278.811C61.7476 278.503 61.7806 278.162 61.7806 277.788V276.534C61.7806 276.16 61.7476 275.819 61.6816 275.511C61.6229 275.203 61.5276 274.935 61.3956 274.708C61.2636 274.481 61.0913 274.305 60.8786 274.18C60.6659 274.055 60.4093 273.993 60.1086 273.993C59.8079 273.993 59.5513 274.055 59.3386 274.18C59.1259 274.305 58.9536 274.481 58.8216 274.708C58.6896 274.935 58.5906 275.203 58.5246 275.511C58.4659 275.819 58.4366 276.16 58.4366 276.534V277.788C58.4366 278.162 58.4659 278.503 58.5246 278.811C58.5906 279.119 58.6896 279.387 58.8216 279.614C58.9536 279.841 59.1259 280.017 59.3386 280.142C59.5513 280.267 59.8079 280.329 60.1086 280.329ZM66.7043 281.132C65.7876 281.132 65.1166 280.784 64.6913 280.087C64.2733 279.39 64.0643 278.415 64.0643 277.161C64.0643 275.907 64.2733 274.932 64.6913 274.235C65.1166 273.538 65.7876 273.19 66.7043 273.19C67.621 273.19 68.2883 273.538 68.7063 274.235C69.1316 274.932 69.3443 275.907 69.3443 277.161C69.3443 278.415 69.1316 279.39 68.7063 280.087C68.2883 280.784 67.621 281.132 66.7043 281.132ZM66.7043 280.329C67.005 280.329 67.2616 280.267 67.4743 280.142C67.687 280.017 67.8593 279.841 67.9913 279.614C68.1233 279.387 68.2186 279.119 68.2773 278.811C68.3433 278.503 68.3763 278.162 68.3763 277.788V276.534C68.3763 276.16 68.3433 275.819 68.2773 275.511C68.2186 275.203 68.1233 274.935 67.9913 274.708C67.8593 274.481 67.687 274.305 67.4743 274.18C67.2616 274.055 67.005 273.993 66.7043 273.993C66.4036 273.993 66.147 274.055 65.9343 274.18C65.7216 274.305 65.5493 274.481 65.4173 274.708C65.2853 274.935 65.1863 275.203 65.1203 275.511C65.0616 275.819 65.0323 276.16 65.0323 276.534V277.788C65.0323 278.162 65.0616 278.503 65.1203 278.811C65.1863 279.119 65.2853 279.387 65.4173 279.614C65.5493 279.841 65.7216 280.017 65.9343 280.142C66.147 280.267 66.4036 280.329 66.7043 280.329Z" fill="#666666"/>
<line x1="84" y1="277.5" x2="500" y2="277.5" stroke="#9EA5AB" stroke-dasharray="1 2"/>
<path d="M37.0159 347.902V347C36.4586 346.963 35.9856 346.828 35.5969 346.593C35.2156 346.351 34.8892 346.05 34.6179 345.691L35.2669 345.108C35.5016 345.423 35.7582 345.676 36.0369 345.867C36.3229 346.05 36.6529 346.168 37.0269 346.219V343.392C36.2716 343.223 35.7179 342.978 35.3659 342.655C35.0212 342.325 34.8489 341.874 34.8489 341.302C34.8489 341.009 34.9002 340.748 35.0029 340.521C35.1129 340.286 35.2632 340.085 35.4539 339.916C35.6446 339.747 35.8719 339.615 36.1359 339.52C36.3999 339.417 36.6932 339.351 37.0159 339.322V338.42H37.6979V339.311C38.1966 339.355 38.6256 339.483 38.9849 339.696C39.3516 339.901 39.6669 340.187 39.9309 340.554L39.2599 341.06C39.0766 340.803 38.8566 340.594 38.5999 340.433C38.3432 340.264 38.0389 340.154 37.6869 340.103V342.677L37.7859 342.699C38.5486 342.868 39.1022 343.117 39.4469 343.447C39.7989 343.77 39.9749 344.221 39.9749 344.8C39.9749 345.431 39.7696 345.94 39.3589 346.329C38.9556 346.71 38.4019 346.934 37.6979 347V347.902H37.0159ZM39.1059 344.855C39.1059 344.481 38.9959 344.195 38.7759 343.997C38.5632 343.799 38.2002 343.638 37.6869 343.513V346.219C38.1269 346.16 38.4716 346.014 38.7209 345.779C38.9776 345.537 39.1059 345.229 39.1059 344.855ZM35.7179 341.236C35.7179 341.61 35.8242 341.892 36.0369 342.083C36.2569 342.266 36.5869 342.417 37.0269 342.534V340.103C36.6309 340.154 36.3119 340.275 36.0699 340.466C35.8352 340.657 35.7179 340.913 35.7179 341.236ZM46.4831 347H41.4451V346.054L43.9531 343.744C44.3125 343.414 44.6131 343.066 44.8551 342.699C45.0971 342.325 45.2181 341.951 45.2181 341.577V341.445C45.2181 341.02 45.1008 340.675 44.8661 340.411C44.6315 340.147 44.2758 340.015 43.7991 340.015C43.5645 340.015 43.3591 340.048 43.1831 340.114C43.0071 340.18 42.8531 340.272 42.7211 340.389C42.5965 340.506 42.4901 340.646 42.4021 340.807C42.3215 340.961 42.2555 341.13 42.2041 341.313L41.3791 340.994C41.4525 340.767 41.5515 340.547 41.6761 340.334C41.8081 340.114 41.9695 339.92 42.1601 339.751C42.3581 339.582 42.5928 339.447 42.8641 339.344C43.1428 339.241 43.4691 339.19 43.8431 339.19C44.2171 339.19 44.5508 339.245 44.8441 339.355C45.1375 339.465 45.3831 339.619 45.5811 339.817C45.7791 340.015 45.9295 340.25 46.0321 340.521C46.1421 340.792 46.1971 341.093 46.1971 341.423C46.1971 341.724 46.1531 342.002 46.0651 342.259C45.9845 342.516 45.8708 342.761 45.7241 342.996C45.5775 343.223 45.3978 343.447 45.1851 343.667C44.9798 343.887 44.7561 344.107 44.5141 344.327L42.4461 346.186H46.4831V347ZM52.6938 340.136H49.3278L49.1078 343.062H49.1848C49.3682 342.805 49.5735 342.6 49.8008 342.446C50.0355 342.292 50.3545 342.215 50.7578 342.215C51.0878 342.215 51.3922 342.27 51.6708 342.38C51.9495 342.49 52.1915 342.648 52.3968 342.853C52.6022 343.051 52.7598 343.297 52.8698 343.59C52.9872 343.883 53.0458 344.217 53.0458 344.591C53.0458 344.965 52.9872 345.31 52.8698 345.625C52.7525 345.933 52.5802 346.201 52.3528 346.428C52.1328 346.648 51.8615 346.82 51.5388 346.945C51.2235 347.07 50.8642 347.132 50.4608 347.132C50.1382 347.132 49.8522 347.095 49.6028 347.022C49.3608 346.949 49.1445 346.85 48.9538 346.725C48.7632 346.6 48.5945 346.461 48.4478 346.307C48.3085 346.153 48.1802 345.992 48.0628 345.823L48.7558 345.295C48.8512 345.449 48.9502 345.588 49.0528 345.713C49.1628 345.838 49.2802 345.944 49.4048 346.032C49.5368 346.12 49.6872 346.19 49.8558 346.241C50.0245 346.285 50.2262 346.307 50.4608 346.307C50.9888 346.307 51.3885 346.168 51.6598 345.889C51.9312 345.61 52.0668 345.218 52.0668 344.712V344.602C52.0668 344.096 51.9312 343.704 51.6598 343.425C51.3885 343.146 50.9888 343.007 50.4608 343.007C50.1088 343.007 49.8302 343.073 49.6248 343.205C49.4268 343.33 49.2472 343.48 49.0858 343.656L48.3048 343.546L48.5798 339.322H52.6938V340.136ZM55.3075 347.132C55.0729 347.132 54.9005 347.073 54.7905 346.956C54.6879 346.839 54.6365 346.685 54.6365 346.494V346.351C54.6365 346.16 54.6879 346.006 54.7905 345.889C54.9005 345.772 55.0729 345.713 55.3075 345.713C55.5422 345.713 55.7109 345.772 55.8135 345.889C55.9235 346.006 55.9785 346.16 55.9785 346.351V346.494C55.9785 346.685 55.9235 346.839 55.8135 346.956C55.7109 347.073 55.5422 347.132 55.3075 347.132ZM60.1086 347.132C59.1919 347.132 58.5209 346.784 58.0956 346.087C57.6776 345.39 57.4686 344.415 57.4686 343.161C57.4686 341.907 57.6776 340.932 58.0956 340.235C58.5209 339.538 59.1919 339.19 60.1086 339.19C61.0253 339.19 61.6926 339.538 62.1106 340.235C62.5359 340.932 62.7486 341.907 62.7486 343.161C62.7486 344.415 62.5359 345.39 62.1106 346.087C61.6926 346.784 61.0253 347.132 60.1086 347.132ZM60.1086 346.329C60.4093 346.329 60.6659 346.267 60.8786 346.142C61.0913 346.017 61.2636 345.841 61.3956 345.614C61.5276 345.387 61.6229 345.119 61.6816 344.811C61.7476 344.503 61.7806 344.162 61.7806 343.788V342.534C61.7806 342.16 61.7476 341.819 61.6816 341.511C61.6229 341.203 61.5276 340.935 61.3956 340.708C61.2636 340.481 61.0913 340.305 60.8786 340.18C60.6659 340.055 60.4093 339.993 60.1086 339.993C59.8079 339.993 59.5513 340.055 59.3386 340.18C59.1259 340.305 58.9536 340.481 58.8216 340.708C58.6896 340.935 58.5906 341.203 58.5246 341.511C58.4659 341.819 58.4366 342.16 58.4366 342.534V343.788C58.4366 344.162 58.4659 344.503 58.5246 344.811C58.5906 345.119 58.6896 345.387 58.8216 345.614C58.9536 345.841 59.1259 346.017 59.3386 346.142C59.5513 346.267 59.8079 346.329 60.1086 346.329ZM66.7043 347.132C65.7876 347.132 65.1166 346.784 64.6913 346.087C64.2733 345.39 64.0643 344.415 64.0643 343.161C64.0643 341.907 64.2733 340.932 64.6913 340.235C65.1166 339.538 65.7876 339.19 66.7043 339.19C67.621 339.19 68.2883 339.538 68.7063 340.235C69.1316 340.932 69.3443 341.907 69.3443 343.161C69.3443 344.415 69.1316 345.39 68.7063 346.087C68.2883 346.784 67.621 347.132 66.7043 347.132ZM66.7043 346.329C67.005 346.329 67.2616 346.267 67.4743 346.142C67.687 346.017 67.8593 345.841 67.9913 345.614C68.1233 345.387 68.2186 345.119 68.2773 344.811C68.3433 344.503 68.3763 344.162 68.3763 343.788V342.534C68.3763 342.16 68.3433 341.819 68.2773 341.511C68.2186 341.203 68.1233 340.935 67.9913 340.708C67.8593 340.481 67.687 340.305 67.4743 340.18C67.2616 340.055 67.005 339.993 66.7043 339.993C66.4036 339.993 66.147 340.055 65.9343 340.18C65.7216 340.305 65.5493 340.481 65.4173 340.708C65.2853 340.935 65.1863 341.203 65.1203 341.511C65.0616 341.819 65.0323 342.16 65.0323 342.534V343.788C65.0323 344.162 65.0616 344.503 65.1203 344.811C65.1863 345.119 65.2853 345.387 65.4173 345.614C65.5493 345.841 65.7216 346.017 65.9343 346.142C66.147 346.267 66.4036 346.329 66.7043 346.329Z" fill="#666666"/>
<line x1="84" y1="343.5" x2="500" y2="343.5" stroke="#9EA5AB" stroke-dasharray="1 2"/>
<path d="M43.6116 413.902V413C43.0543 412.963 42.5813 412.828 42.1926 412.593C41.8113 412.351 41.4849 412.05 41.2136 411.691L41.8626 411.108C42.0973 411.423 42.3539 411.676 42.6326 411.867C42.9186 412.05 43.2486 412.168 43.6226 412.219V409.392C42.8673 409.223 42.3136 408.978 41.9616 408.655C41.6169 408.325 41.4446 407.874 41.4446 407.302C41.4446 407.009 41.4959 406.748 41.5986 406.521C41.7086 406.286 41.8589 406.085 42.0496 405.916C42.2403 405.747 42.4676 405.615 42.7316 405.52C42.9956 405.417 43.2889 405.351 43.6116 405.322V404.42H44.2936V405.311C44.7923 405.355 45.2213 405.483 45.5806 405.696C45.9473 405.901 46.2626 406.187 46.5266 406.554L45.8556 407.06C45.6723 406.803 45.4523 406.594 45.1956 406.433C44.9389 406.264 44.6346 406.154 44.2826 406.103V408.677L44.3816 408.699C45.1443 408.868 45.6979 409.117 46.0426 409.447C46.3946 409.77 46.5706 410.221 46.5706 410.8C46.5706 411.431 46.3653 411.94 45.9546 412.329C45.5513 412.71 44.9976 412.934 44.2936 413V413.902H43.6116ZM45.7016 410.855C45.7016 410.481 45.5916 410.195 45.3716 409.997C45.1589 409.799 44.7959 409.638 44.2826 409.513V412.219C44.7226 412.16 45.0673 412.014 45.3166 411.779C45.5733 411.537 45.7016 411.229 45.7016 410.855ZM42.3136 407.236C42.3136 407.61 42.4199 407.892 42.6326 408.083C42.8526 408.266 43.1826 408.417 43.6226 408.534V406.103C43.2266 406.154 42.9076 406.275 42.6656 406.466C42.4309 406.657 42.3136 406.913 42.3136 407.236ZM50.5158 413.132C49.5992 413.132 48.9282 412.784 48.5028 412.087C48.0848 411.39 47.8758 410.415 47.8758 409.161C47.8758 407.907 48.0848 406.932 48.5028 406.235C48.9282 405.538 49.5992 405.19 50.5158 405.19C51.4325 405.19 52.0998 405.538 52.5178 406.235C52.9432 406.932 53.1558 407.907 53.1558 409.161C53.1558 410.415 52.9432 411.39 52.5178 412.087C52.0998 412.784 51.4325 413.132 50.5158 413.132ZM50.5158 412.329C50.8165 412.329 51.0732 412.267 51.2858 412.142C51.4985 412.017 51.6708 411.841 51.8028 411.614C51.9348 411.387 52.0302 411.119 52.0888 410.811C52.1548 410.503 52.1878 410.162 52.1878 409.788V408.534C52.1878 408.16 52.1548 407.819 52.0888 407.511C52.0302 407.203 51.9348 406.935 51.8028 406.708C51.6708 406.481 51.4985 406.305 51.2858 406.18C51.0732 406.055 50.8165 405.993 50.5158 405.993C50.2152 405.993 49.9585 406.055 49.7458 406.18C49.5332 406.305 49.3608 406.481 49.2288 406.708C49.0968 406.935 48.9978 407.203 48.9318 407.511C48.8732 407.819 48.8438 408.16 48.8438 408.534V409.788C48.8438 410.162 48.8732 410.503 48.9318 410.811C48.9978 411.119 49.0968 411.387 49.2288 411.614C49.3608 411.841 49.5332 412.017 49.7458 412.142C49.9585 412.267 50.2152 412.329 50.5158 412.329ZM55.3075 413.132C55.0729 413.132 54.9005 413.073 54.7905 412.956C54.6879 412.839 54.6365 412.685 54.6365 412.494V412.351C54.6365 412.16 54.6879 412.006 54.7905 411.889C54.9005 411.772 55.0729 411.713 55.3075 411.713C55.5422 411.713 55.7109 411.772 55.8135 411.889C55.9235 412.006 55.9785 412.16 55.9785 412.351V412.494C55.9785 412.685 55.9235 412.839 55.8135 412.956C55.7109 413.073 55.5422 413.132 55.3075 413.132ZM60.1086 413.132C59.1919 413.132 58.5209 412.784 58.0956 412.087C57.6776 411.39 57.4686 410.415 57.4686 409.161C57.4686 407.907 57.6776 406.932 58.0956 406.235C58.5209 405.538 59.1919 405.19 60.1086 405.19C61.0253 405.19 61.6926 405.538 62.1106 406.235C62.5359 406.932 62.7486 407.907 62.7486 409.161C62.7486 410.415 62.5359 411.39 62.1106 412.087C61.6926 412.784 61.0253 413.132 60.1086 413.132ZM60.1086 412.329C60.4093 412.329 60.6659 412.267 60.8786 412.142C61.0913 412.017 61.2636 411.841 61.3956 411.614C61.5276 411.387 61.6229 411.119 61.6816 410.811C61.7476 410.503 61.7806 410.162 61.7806 409.788V408.534C61.7806 408.16 61.7476 407.819 61.6816 407.511C61.6229 407.203 61.5276 406.935 61.3956 406.708C61.2636 406.481 61.0913 406.305 60.8786 406.18C60.6659 406.055 60.4093 405.993 60.1086 405.993C59.8079 405.993 59.5513 406.055 59.3386 406.18C59.1259 406.305 58.9536 406.481 58.8216 406.708C58.6896 406.935 58.5906 407.203 58.5246 407.511C58.4659 407.819 58.4366 408.16 58.4366 408.534V409.788C58.4366 410.162 58.4659 410.503 58.5246 410.811C58.5906 411.119 58.6896 411.387 58.8216 411.614C58.9536 411.841 59.1259 412.017 59.3386 412.142C59.5513 412.267 59.8079 412.329 60.1086 412.329ZM66.7043 413.132C65.7876 413.132 65.1166 412.784 64.6913 412.087C64.2733 411.39 64.0643 410.415 64.0643 409.161C64.0643 407.907 64.2733 406.932 64.6913 406.235C65.1166 405.538 65.7876 405.19 66.7043 405.19C67.621 405.19 68.2883 405.538 68.7063 406.235C69.1316 406.932 69.3443 407.907 69.3443 409.161C69.3443 410.415 69.1316 411.39 68.7063 412.087C68.2883 412.784 67.621 413.132 66.7043 413.132ZM66.7043 412.329C67.005 412.329 67.2616 412.267 67.4743 412.142C67.687 412.017 67.8593 411.841 67.9913 411.614C68.1233 411.387 68.2186 411.119 68.2773 410.811C68.3433 410.503 68.3763 410.162 68.3763 409.788V408.534C68.3763 408.16 68.3433 407.819 68.2773 407.511C68.2186 407.203 68.1233 406.935 67.9913 406.708C67.8593 406.481 67.687 406.305 67.4743 406.18C67.2616 406.055 67.005 405.993 66.7043 405.993C66.4036 405.993 66.147 406.055 65.9343 406.18C65.7216 406.305 65.5493 406.481 65.4173 406.708C65.2853 406.935 65.1863 407.203 65.1203 407.511C65.0616 407.819 65.0323 408.16 65.0323 408.534V409.788C65.0323 410.162 65.0616 410.503 65.1203 410.811C65.1863 411.119 65.2853 411.387 65.4173 411.614C65.5493 411.841 65.7216 412.017 65.9343 412.142C66.147 412.267 66.4036 412.329 66.7043 412.329Z" fill="#666666"/>
<line x1="84" y1="409.5" x2="500" y2="409.5" stroke="#9EA5AB" stroke-dasharray="1 2"/>
<path d="M95.116 420.624H97.924C98.444 420.624 98.916 420.712 99.34 420.888C99.764 421.064 100.124 421.328 100.42 421.68C100.724 422.024 100.956 422.46 101.116 422.988C101.276 423.508 101.356 424.116 101.356 424.812C101.356 425.508 101.276 426.12 101.116 426.648C100.956 427.168 100.724 427.604 100.42 427.956C100.124 428.3 99.764 428.56 99.34 428.736C98.916 428.912 98.444 429 97.924 429H95.116V420.624ZM97.924 428.112C98.268 428.112 98.584 428.056 98.872 427.944C99.16 427.824 99.408 427.652 99.616 427.428C99.824 427.204 99.984 426.932 100.096 426.612C100.216 426.284 100.276 425.912 100.276 425.496V424.128C100.276 423.712 100.216 423.344 100.096 423.024C99.984 422.696 99.824 422.42 99.616 422.196C99.408 421.972 99.16 421.804 98.872 421.692C98.584 421.572 98.268 421.512 97.924 421.512H96.124V428.112H97.924ZM107.571 429C107.211 429 106.951 428.904 106.791 428.712C106.639 428.52 106.543 428.28 106.503 427.992H106.443C106.307 428.376 106.083 428.664 105.771 428.856C105.459 429.048 105.087 429.144 104.655 429.144C103.999 429.144 103.487 428.976 103.119 428.64C102.759 428.304 102.579 427.848 102.579 427.272C102.579 426.688 102.791 426.24 103.215 425.928C103.647 425.616 104.315 425.46 105.219 425.46H106.443V424.848C106.443 424.408 106.323 424.072 106.083 423.84C105.843 423.608 105.475 423.492 104.979 423.492C104.603 423.492 104.287 423.576 104.031 423.744C103.783 423.912 103.575 424.136 103.407 424.416L102.831 423.876C102.999 423.54 103.267 423.256 103.635 423.024C104.003 422.784 104.467 422.664 105.027 422.664C105.779 422.664 106.363 422.848 106.779 423.216C107.195 423.584 107.403 424.096 107.403 424.752V428.16H108.111V429H107.571ZM104.811 428.328C105.051 428.328 105.271 428.3 105.471 428.244C105.671 428.188 105.843 428.108 105.987 428.004C106.131 427.9 106.243 427.78 106.323 427.644C106.403 427.508 106.443 427.36 106.443 427.2V426.18H105.171C104.619 426.18 104.215 426.26 103.959 426.42C103.711 426.58 103.587 426.812 103.587 427.116V427.368C103.587 427.672 103.695 427.908 103.911 428.076C104.135 428.244 104.435 428.328 104.811 428.328ZM113.238 422.808H114.186L111.414 430.44C111.342 430.624 111.27 430.776 111.198 430.896C111.126 431.024 111.038 431.124 110.934 431.196C110.83 431.268 110.698 431.32 110.538 431.352C110.386 431.384 110.198 431.4 109.974 431.4H109.482V430.56H110.454L110.922 429.24L108.606 422.808H109.566L111.054 427.02L111.342 428.028H111.402L111.738 427.02L113.238 422.808ZM120.827 429.144C119.827 429.144 119.095 428.764 118.631 428.004C118.175 427.244 117.947 426.18 117.947 424.812C117.947 423.444 118.175 422.38 118.631 421.62C119.095 420.86 119.827 420.48 120.827 420.48C121.827 420.48 122.555 420.86 123.011 421.62C123.475 422.38 123.707 423.444 123.707 424.812C123.707 426.18 123.475 427.244 123.011 428.004C122.555 428.764 121.827 429.144 120.827 429.144ZM120.827 428.268C121.155 428.268 121.435 428.2 121.667 428.064C121.899 427.928 122.087 427.736 122.231 427.488C122.375 427.24 122.479 426.948 122.543 426.612C122.615 426.276 122.651 425.904 122.651 425.496V424.128C122.651 423.72 122.615 423.348 122.543 423.012C122.479 422.676 122.375 422.384 122.231 422.136C122.087 421.888 121.899 421.696 121.667 421.56C121.435 421.424 121.155 421.356 120.827 421.356C120.499 421.356 120.219 421.424 119.987 421.56C119.755 421.696 119.567 421.888 119.423 422.136C119.279 422.384 119.171 422.676 119.099 423.012C119.035 423.348 119.003 423.72 119.003 424.128V425.496C119.003 425.904 119.035 426.276 119.099 426.612C119.171 426.948 119.279 427.24 119.423 427.488C119.567 427.736 119.755 427.928 119.987 428.064C120.219 428.2 120.499 428.268 120.827 428.268Z" fill="#666666"/>
<path d="M145.116 420.624H147.924C148.444 420.624 148.916 420.712 149.34 420.888C149.764 421.064 150.124 421.328 150.42 421.68C150.724 422.024 150.956 422.46 151.116 422.988C151.276 423.508 151.356 424.116 151.356 424.812C151.356 425.508 151.276 426.12 151.116 426.648C150.956 427.168 150.724 427.604 150.42 427.956C150.124 428.3 149.764 428.56 149.34 428.736C148.916 428.912 148.444 429 147.924 429H145.116V420.624ZM147.924 428.112C148.268 428.112 148.584 428.056 148.872 427.944C149.16 427.824 149.408 427.652 149.616 427.428C149.824 427.204 149.984 426.932 150.096 426.612C150.216 426.284 150.276 425.912 150.276 425.496V424.128C150.276 423.712 150.216 423.344 150.096 423.024C149.984 422.696 149.824 422.42 149.616 422.196C149.408 421.972 149.16 421.804 148.872 421.692C148.584 421.572 148.268 421.512 147.924 421.512H146.124V428.112H147.924ZM157.571 429C157.211 429 156.951 428.904 156.791 428.712C156.639 428.52 156.543 428.28 156.503 427.992H156.443C156.307 428.376 156.083 428.664 155.771 428.856C155.459 429.048 155.087 429.144 154.655 429.144C153.999 429.144 153.487 428.976 153.119 428.64C152.759 428.304 152.579 427.848 152.579 427.272C152.579 426.688 152.791 426.24 153.215 425.928C153.647 425.616 154.315 425.46 155.219 425.46H156.443V424.848C156.443 424.408 156.323 424.072 156.083 423.84C155.843 423.608 155.475 423.492 154.979 423.492C154.603 423.492 154.287 423.576 154.031 423.744C153.783 423.912 153.575 424.136 153.407 424.416L152.831 423.876C152.999 423.54 153.267 423.256 153.635 423.024C154.003 422.784 154.467 422.664 155.027 422.664C155.779 422.664 156.363 422.848 156.779 423.216C157.195 423.584 157.403 424.096 157.403 424.752V428.16H158.111V429H157.571ZM154.811 428.328C155.051 428.328 155.271 428.3 155.471 428.244C155.671 428.188 155.843 428.108 155.987 428.004C156.131 427.9 156.243 427.78 156.323 427.644C156.403 427.508 156.443 427.36 156.443 427.2V426.18H155.171C154.619 426.18 154.215 426.26 153.959 426.42C153.711 426.58 153.587 426.812 153.587 427.116V427.368C153.587 427.672 153.695 427.908 153.911 428.076C154.135 428.244 154.435 428.328 154.811 428.328ZM163.238 422.808H164.186L161.414 430.44C161.342 430.624 161.27 430.776 161.198 430.896C161.126 431.024 161.038 431.124 160.934 431.196C160.83 431.268 160.698 431.32 160.538 431.352C160.386 431.384 160.198 431.4 159.974 431.4H159.482V430.56H160.454L160.922 429.24L158.606 422.808H159.566L161.054 427.02L161.342 428.028H161.402L161.738 427.02L163.238 422.808ZM168.283 429V428.112H170.623V421.368H170.539L168.427 423.336L167.839 422.7L170.059 420.624H171.631V428.112H173.791V429H168.283Z" fill="#666666"/>
<path d="M195.116 420.624H197.924C198.444 420.624 198.916 420.712 199.34 420.888C199.764 421.064 200.124 421.328 200.42 421.68C200.724 422.024 200.956 422.46 201.116 422.988C201.276 423.508 201.356 424.116 201.356 424.812C201.356 425.508 201.276 426.12 201.116 426.648C200.956 427.168 200.724 427.604 200.42 427.956C200.124 428.3 199.764 428.56 199.34 428.736C198.916 428.912 198.444 429 197.924 429H195.116V420.624ZM197.924 428.112C198.268 428.112 198.584 428.056 198.872 427.944C199.16 427.824 199.408 427.652 199.616 427.428C199.824 427.204 199.984 426.932 200.096 426.612C200.216 426.284 200.276 425.912 200.276 425.496V424.128C200.276 423.712 200.216 423.344 200.096 423.024C199.984 422.696 199.824 422.42 199.616 422.196C199.408 421.972 199.16 421.804 198.872 421.692C198.584 421.572 198.268 421.512 197.924 421.512H196.124V428.112H197.924ZM207.571 429C207.211 429 206.951 428.904 206.791 428.712C206.639 428.52 206.543 428.28 206.503 427.992H206.443C206.307 428.376 206.083 428.664 205.771 428.856C205.459 429.048 205.087 429.144 204.655 429.144C203.999 429.144 203.487 428.976 203.119 428.64C202.759 428.304 202.579 427.848 202.579 427.272C202.579 426.688 202.791 426.24 203.215 425.928C203.647 425.616 204.315 425.46 205.219 425.46H206.443V424.848C206.443 424.408 206.323 424.072 206.083 423.84C205.843 423.608 205.475 423.492 204.979 423.492C204.603 423.492 204.287 423.576 204.031 423.744C203.783 423.912 203.575 424.136 203.407 424.416L202.831 423.876C202.999 423.54 203.267 423.256 203.635 423.024C204.003 422.784 204.467 422.664 205.027 422.664C205.779 422.664 206.363 422.848 206.779 423.216C207.195 423.584 207.403 424.096 207.403 424.752V428.16H208.111V429H207.571ZM204.811 428.328C205.051 428.328 205.271 428.3 205.471 428.244C205.671 428.188 205.843 428.108 205.987 428.004C206.131 427.9 206.243 427.78 206.323 427.644C206.403 427.508 206.443 427.36 206.443 427.2V426.18H205.171C204.619 426.18 204.215 426.26 203.959 426.42C203.711 426.58 203.587 426.812 203.587 427.116V427.368C203.587 427.672 203.695 427.908 203.911 428.076C204.135 428.244 204.435 428.328 204.811 428.328ZM213.238 422.808H214.186L211.414 430.44C211.342 430.624 211.27 430.776 211.198 430.896C211.126 431.024 211.038 431.124 210.934 431.196C210.83 431.268 210.698 431.32 210.538 431.352C210.386 431.384 210.198 431.4 209.974 431.4H209.482V430.56H210.454L210.922 429.24L208.606 422.808H209.566L211.054 427.02L211.342 428.028H211.402L211.738 427.02L213.238 422.808ZM223.623 429H218.127V427.968L220.863 425.448C221.255 425.088 221.583 424.708 221.847 424.308C222.111 423.9 222.243 423.492 222.243 423.084V422.94C222.243 422.476 222.115 422.1 221.859 421.812C221.603 421.524 221.215 421.38 220.695 421.38C220.439 421.38 220.215 421.416 220.023 421.488C219.831 421.56 219.663 421.66 219.519 421.788C219.383 421.916 219.267 422.068 219.171 422.244C219.083 422.412 219.011 422.596 218.955 422.796L218.055 422.448C218.135 422.2 218.243 421.96 218.379 421.728C218.523 421.488 218.699 421.276 218.907 421.092C219.123 420.908 219.379 420.76 219.675 420.648C219.979 420.536 220.335 420.48 220.743 420.48C221.151 420.48 221.515 420.54 221.835 420.66C222.155 420.78 222.423 420.948 222.639 421.164C222.855 421.38 223.019 421.636 223.131 421.932C223.251 422.228 223.311 422.556 223.311 422.916C223.311 423.244 223.263 423.548 223.167 423.828C223.079 424.108 222.955 424.376 222.795 424.632C222.635 424.88 222.439 425.124 222.207 425.364C221.983 425.604 221.739 425.844 221.475 426.084L219.219 428.112H223.623V429Z" fill="#666666"/>
<path d="M245.116 420.624H247.924C248.444 420.624 248.916 420.712 249.34 420.888C249.764 421.064 250.124 421.328 250.42 421.68C250.724 422.024 250.956 422.46 251.116 422.988C251.276 423.508 251.356 424.116 251.356 424.812C251.356 425.508 251.276 426.12 251.116 426.648C250.956 427.168 250.724 427.604 250.42 427.956C250.124 428.3 249.764 428.56 249.34 428.736C248.916 428.912 248.444 429 247.924 429H245.116V420.624ZM247.924 428.112C248.268 428.112 248.584 428.056 248.872 427.944C249.16 427.824 249.408 427.652 249.616 427.428C249.824 427.204 249.984 426.932 250.096 426.612C250.216 426.284 250.276 425.912 250.276 425.496V424.128C250.276 423.712 250.216 423.344 250.096 423.024C249.984 422.696 249.824 422.42 249.616 422.196C249.408 421.972 249.16 421.804 248.872 421.692C248.584 421.572 248.268 421.512 247.924 421.512H246.124V428.112H247.924ZM257.571 429C257.211 429 256.951 428.904 256.791 428.712C256.639 428.52 256.543 428.28 256.503 427.992H256.443C256.307 428.376 256.083 428.664 255.771 428.856C255.459 429.048 255.087 429.144 254.655 429.144C253.999 429.144 253.487 428.976 253.119 428.64C252.759 428.304 252.579 427.848 252.579 427.272C252.579 426.688 252.791 426.24 253.215 425.928C253.647 425.616 254.315 425.46 255.219 425.46H256.443V424.848C256.443 424.408 256.323 424.072 256.083 423.84C255.843 423.608 255.475 423.492 254.979 423.492C254.603 423.492 254.287 423.576 254.031 423.744C253.783 423.912 253.575 424.136 253.407 424.416L252.831 423.876C252.999 423.54 253.267 423.256 253.635 423.024C254.003 422.784 254.467 422.664 255.027 422.664C255.779 422.664 256.363 422.848 256.779 423.216C257.195 423.584 257.403 424.096 257.403 424.752V428.16H258.111V429H257.571ZM254.811 428.328C255.051 428.328 255.271 428.3 255.471 428.244C255.671 428.188 255.843 428.108 255.987 428.004C256.131 427.9 256.243 427.78 256.323 427.644C256.403 427.508 256.443 427.36 256.443 427.2V426.18H255.171C254.619 426.18 254.215 426.26 253.959 426.42C253.711 426.58 253.587 426.812 253.587 427.116V427.368C253.587 427.672 253.695 427.908 253.911 428.076C254.135 428.244 254.435 428.328 254.811 428.328ZM263.238 422.808H264.186L261.414 430.44C261.342 430.624 261.27 430.776 261.198 430.896C261.126 431.024 261.038 431.124 260.934 431.196C260.83 431.268 260.698 431.32 260.538 431.352C260.386 431.384 260.198 431.4 259.974 431.4H259.482V430.56H260.454L260.922 429.24L258.606 422.808H259.566L261.054 427.02L261.342 428.028H261.402L261.738 427.02L263.238 422.808ZM270.359 424.176C270.927 424.176 271.351 424.048 271.631 423.792C271.919 423.528 272.063 423.192 272.063 422.784V422.7C272.063 422.26 271.923 421.932 271.643 421.716C271.371 421.492 271.011 421.38 270.563 421.38C270.131 421.38 269.779 421.476 269.507 421.668C269.235 421.852 269.011 422.104 268.835 422.424L268.091 421.848C268.195 421.68 268.319 421.516 268.463 421.356C268.615 421.188 268.791 421.04 268.991 420.912C269.191 420.784 269.423 420.68 269.687 420.6C269.951 420.52 270.251 420.48 270.587 420.48C270.939 420.48 271.271 420.528 271.583 420.624C271.895 420.712 272.163 420.848 272.387 421.032C272.619 421.208 272.799 421.428 272.927 421.692C273.063 421.956 273.131 422.256 273.131 422.592C273.131 422.864 273.087 423.108 272.999 423.324C272.919 423.54 272.807 423.728 272.663 423.888C272.519 424.048 272.347 424.184 272.147 424.296C271.955 424.408 271.747 424.492 271.523 424.548V424.596C271.747 424.644 271.963 424.724 272.171 424.836C272.387 424.94 272.575 425.08 272.735 425.256C272.903 425.424 273.035 425.632 273.131 425.88C273.235 426.12 273.287 426.396 273.287 426.708C273.287 427.068 273.219 427.4 273.083 427.704C272.947 428 272.755 428.256 272.507 428.472C272.259 428.68 271.959 428.844 271.607 428.964C271.255 429.084 270.867 429.144 270.443 429.144C270.083 429.144 269.763 429.104 269.483 429.024C269.203 428.944 268.955 428.836 268.739 428.7C268.523 428.564 268.331 428.412 268.163 428.244C268.003 428.076 267.859 427.9 267.731 427.716L268.487 427.14C268.591 427.308 268.703 427.46 268.823 427.596C268.951 427.732 269.091 427.848 269.243 427.944C269.395 428.04 269.567 428.116 269.759 428.172C269.951 428.22 270.175 428.244 270.431 428.244C271.023 428.244 271.471 428.112 271.775 427.848C272.079 427.576 272.231 427.192 272.231 426.696V426.6C272.231 426.104 272.079 425.724 271.775 425.46C271.471 425.188 271.023 425.052 270.431 425.052H269.447V424.176H270.359Z" fill="#666666"/>
<path d="M295.116 420.624H297.924C298.444 420.624 298.916 420.712 299.34 420.888C299.764 421.064 300.124 421.328 300.42 421.68C300.724 422.024 300.956 422.46 301.116 422.988C301.276 423.508 301.356 424.116 301.356 424.812C301.356 425.508 301.276 426.12 301.116 426.648C300.956 427.168 300.724 427.604 300.42 427.956C300.124 428.3 299.764 428.56 299.34 428.736C298.916 428.912 298.444 429 297.924 429H295.116V420.624ZM297.924 428.112C298.268 428.112 298.584 428.056 298.872 427.944C299.16 427.824 299.408 427.652 299.616 427.428C299.824 427.204 299.984 426.932 300.096 426.612C300.216 426.284 300.276 425.912 300.276 425.496V424.128C300.276 423.712 300.216 423.344 300.096 423.024C299.984 422.696 299.824 422.42 299.616 422.196C299.408 421.972 299.16 421.804 298.872 421.692C298.584 421.572 298.268 421.512 297.924 421.512H296.124V428.112H297.924ZM307.571 429C307.211 429 306.951 428.904 306.791 428.712C306.639 428.52 306.543 428.28 306.503 427.992H306.443C306.307 428.376 306.083 428.664 305.771 428.856C305.459 429.048 305.087 429.144 304.655 429.144C303.999 429.144 303.487 428.976 303.119 428.64C302.759 428.304 302.579 427.848 302.579 427.272C302.579 426.688 302.791 426.24 303.215 425.928C303.647 425.616 304.315 425.46 305.219 425.46H306.443V424.848C306.443 424.408 306.323 424.072 306.083 423.84C305.843 423.608 305.475 423.492 304.979 423.492C304.603 423.492 304.287 423.576 304.031 423.744C303.783 423.912 303.575 424.136 303.407 424.416L302.831 423.876C302.999 423.54 303.267 423.256 303.635 423.024C304.003 422.784 304.467 422.664 305.027 422.664C305.779 422.664 306.363 422.848 306.779 423.216C307.195 423.584 307.403 424.096 307.403 424.752V428.16H308.111V429H307.571ZM304.811 428.328C305.051 428.328 305.271 428.3 305.471 428.244C305.671 428.188 305.843 428.108 305.987 428.004C306.131 427.9 306.243 427.78 306.323 427.644C306.403 427.508 306.443 427.36 306.443 427.2V426.18H305.171C304.619 426.18 304.215 426.26 303.959 426.42C303.711 426.58 303.587 426.812 303.587 427.116V427.368C303.587 427.672 303.695 427.908 303.911 428.076C304.135 428.244 304.435 428.328 304.811 428.328ZM313.238 422.808H314.186L311.414 430.44C311.342 430.624 311.27 430.776 311.198 430.896C311.126 431.024 311.038 431.124 310.934 431.196C310.83 431.268 310.698 431.32 310.538 431.352C310.386 431.384 310.198 431.4 309.974 431.4H309.482V430.56H310.454L310.922 429.24L308.606 422.808H309.566L311.054 427.02L311.342 428.028H311.402L311.738 427.02L313.238 422.808ZM321.727 429V427.356H317.683V426.468L321.187 420.624H322.687V426.516H323.899V427.356H322.687V429H321.727ZM318.631 426.516H321.727V421.404H321.667L318.631 426.516Z" fill="#666666"/>
<path d="M345.116 420.624H347.924C348.444 420.624 348.916 420.712 349.34 420.888C349.764 421.064 350.124 421.328 350.42 421.68C350.724 422.024 350.956 422.46 351.116 422.988C351.276 423.508 351.356 424.116 351.356 424.812C351.356 425.508 351.276 426.12 351.116 426.648C350.956 427.168 350.724 427.604 350.42 427.956C350.124 428.3 349.764 428.56 349.34 428.736C348.916 428.912 348.444 429 347.924 429H345.116V420.624ZM347.924 428.112C348.268 428.112 348.584 428.056 348.872 427.944C349.16 427.824 349.408 427.652 349.616 427.428C349.824 427.204 349.984 426.932 350.096 426.612C350.216 426.284 350.276 425.912 350.276 425.496V424.128C350.276 423.712 350.216 423.344 350.096 423.024C349.984 422.696 349.824 422.42 349.616 422.196C349.408 421.972 349.16 421.804 348.872 421.692C348.584 421.572 348.268 421.512 347.924 421.512H346.124V428.112H347.924ZM357.571 429C357.211 429 356.951 428.904 356.791 428.712C356.639 428.52 356.543 428.28 356.503 427.992H356.443C356.307 428.376 356.083 428.664 355.771 428.856C355.459 429.048 355.087 429.144 354.655 429.144C353.999 429.144 353.487 428.976 353.119 428.64C352.759 428.304 352.579 427.848 352.579 427.272C352.579 426.688 352.791 426.24 353.215 425.928C353.647 425.616 354.315 425.46 355.219 425.46H356.443V424.848C356.443 424.408 356.323 424.072 356.083 423.84C355.843 423.608 355.475 423.492 354.979 423.492C354.603 423.492 354.287 423.576 354.031 423.744C353.783 423.912 353.575 424.136 353.407 424.416L352.831 423.876C352.999 423.54 353.267 423.256 353.635 423.024C354.003 422.784 354.467 422.664 355.027 422.664C355.779 422.664 356.363 422.848 356.779 423.216C357.195 423.584 357.403 424.096 357.403 424.752V428.16H358.111V429H357.571ZM354.811 428.328C355.051 428.328 355.271 428.3 355.471 428.244C355.671 428.188 355.843 428.108 355.987 428.004C356.131 427.9 356.243 427.78 356.323 427.644C356.403 427.508 356.443 427.36 356.443 427.2V426.18H355.171C354.619 426.18 354.215 426.26 353.959 426.42C353.711 426.58 353.587 426.812 353.587 427.116V427.368C353.587 427.672 353.695 427.908 353.911 428.076C354.135 428.244 354.435 428.328 354.811 428.328ZM363.238 422.808H364.186L361.414 430.44C361.342 430.624 361.27 430.776 361.198 430.896C361.126 431.024 361.038 431.124 360.934 431.196C360.83 431.268 360.698 431.32 360.538 431.352C360.386 431.384 360.198 431.4 359.974 431.4H359.482V430.56H360.454L360.922 429.24L358.606 422.808H359.566L361.054 427.02L361.342 428.028H361.402L361.738 427.02L363.238 422.808ZM373.203 421.512H369.531L369.291 424.704H369.375C369.575 424.424 369.799 424.2 370.047 424.032C370.303 423.864 370.651 423.78 371.091 423.78C371.451 423.78 371.783 423.84 372.087 423.96C372.391 424.08 372.655 424.252 372.879 424.476C373.103 424.692 373.275 424.96 373.395 425.28C373.523 425.6 373.587 425.964 373.587 426.372C373.587 426.78 373.523 427.156 373.395 427.5C373.267 427.836 373.079 428.128 372.831 428.376C372.591 428.616 372.295 428.804 371.943 428.94C371.599 429.076 371.207 429.144 370.767 429.144C370.415 429.144 370.103 429.104 369.831 429.024C369.567 428.944 369.331 428.836 369.123 428.7C368.915 428.564 368.731 428.412 368.571 428.244C368.419 428.076 368.279 427.9 368.151 427.716L368.907 427.14C369.011 427.308 369.119 427.46 369.231 427.596C369.351 427.732 369.479 427.848 369.615 427.944C369.759 428.04 369.923 428.116 370.107 428.172C370.291 428.22 370.511 428.244 370.767 428.244C371.343 428.244 371.779 428.092 372.075 427.788C372.371 427.484 372.519 427.056 372.519 426.504V426.384C372.519 425.832 372.371 425.404 372.075 425.1C371.779 424.796 371.343 424.644 370.767 424.644C370.383 424.644 370.079 424.716 369.855 424.86C369.639 424.996 369.443 425.16 369.267 425.352L368.415 425.232L368.715 420.624H373.203V421.512Z" fill="#666666"/>
<path d="M395.116 420.624H397.924C398.444 420.624 398.916 420.712 399.34 420.888C399.764 421.064 400.124 421.328 400.42 421.68C400.724 422.024 400.956 422.46 401.116 422.988C401.276 423.508 401.356 424.116 401.356 424.812C401.356 425.508 401.276 426.12 401.116 426.648C400.956 427.168 400.724 427.604 400.42 427.956C400.124 428.3 399.764 428.56 399.34 428.736C398.916 428.912 398.444 429 397.924 429H395.116V420.624ZM397.924 428.112C398.268 428.112 398.584 428.056 398.872 427.944C399.16 427.824 399.408 427.652 399.616 427.428C399.824 427.204 399.984 426.932 400.096 426.612C400.216 426.284 400.276 425.912 400.276 425.496V424.128C400.276 423.712 400.216 423.344 400.096 423.024C399.984 422.696 399.824 422.42 399.616 422.196C399.408 421.972 399.16 421.804 398.872 421.692C398.584 421.572 398.268 421.512 397.924 421.512H396.124V428.112H397.924ZM407.571 429C407.211 429 406.951 428.904 406.791 428.712C406.639 428.52 406.543 428.28 406.503 427.992H406.443C406.307 428.376 406.083 428.664 405.771 428.856C405.459 429.048 405.087 429.144 404.655 429.144C403.999 429.144 403.487 428.976 403.119 428.64C402.759 428.304 402.579 427.848 402.579 427.272C402.579 426.688 402.791 426.24 403.215 425.928C403.647 425.616 404.315 425.46 405.219 425.46H406.443V424.848C406.443 424.408 406.323 424.072 406.083 423.84C405.843 423.608 405.475 423.492 404.979 423.492C404.603 423.492 404.287 423.576 404.031 423.744C403.783 423.912 403.575 424.136 403.407 424.416L402.831 423.876C402.999 423.54 403.267 423.256 403.635 423.024C404.003 422.784 404.467 422.664 405.027 422.664C405.779 422.664 406.363 422.848 406.779 423.216C407.195 423.584 407.403 424.096 407.403 424.752V428.16H408.111V429H407.571ZM404.811 428.328C405.051 428.328 405.271 428.3 405.471 428.244C405.671 428.188 405.843 428.108 405.987 428.004C406.131 427.9 406.243 427.78 406.323 427.644C406.403 427.508 406.443 427.36 406.443 427.2V426.18H405.171C404.619 426.18 404.215 426.26 403.959 426.42C403.711 426.58 403.587 426.812 403.587 427.116V427.368C403.587 427.672 403.695 427.908 403.911 428.076C404.135 428.244 404.435 428.328 404.811 428.328ZM413.238 422.808H414.186L411.414 430.44C411.342 430.624 411.27 430.776 411.198 430.896C411.126 431.024 411.038 431.124 410.934 431.196C410.83 431.268 410.698 431.32 410.538 431.352C410.386 431.384 410.198 431.4 409.974 431.4H409.482V430.56H410.454L410.922 429.24L408.606 422.808H409.566L411.054 427.02L411.342 428.028H411.402L411.738 427.02L413.238 422.808ZM420.839 429.144C420.407 429.144 420.015 429.072 419.663 428.928C419.319 428.776 419.023 428.564 418.775 428.292C418.535 428.012 418.351 427.672 418.223 427.272C418.095 426.872 418.031 426.424 418.031 425.928C418.031 425.304 418.123 424.72 418.307 424.176C418.491 423.624 418.727 423.124 419.015 422.676C419.311 422.22 419.635 421.82 419.987 421.476C420.339 421.124 420.683 420.84 421.019 420.624H422.315C421.867 420.952 421.467 421.272 421.115 421.584C420.763 421.896 420.455 422.224 420.191 422.568C419.927 422.904 419.703 423.268 419.519 423.66C419.335 424.044 419.187 424.48 419.075 424.968L419.135 424.992C419.335 424.648 419.591 424.364 419.903 424.14C420.223 423.908 420.639 423.792 421.151 423.792C421.511 423.792 421.843 423.852 422.147 423.972C422.451 424.092 422.711 424.264 422.927 424.488C423.143 424.712 423.311 424.984 423.431 425.304C423.559 425.624 423.623 425.98 423.623 426.372C423.623 426.78 423.555 427.156 423.419 427.5C423.291 427.836 423.103 428.128 422.855 428.376C422.615 428.616 422.323 428.804 421.979 428.94C421.635 429.076 421.255 429.144 420.839 429.144ZM420.827 428.268C421.379 428.268 421.807 428.116 422.111 427.812C422.423 427.508 422.579 427.072 422.579 426.504V426.408C422.579 425.84 422.423 425.404 422.111 425.1C421.807 424.796 421.379 424.644 420.827 424.644C420.275 424.644 419.843 424.796 419.531 425.1C419.227 425.404 419.075 425.84 419.075 426.408V426.504C419.075 427.072 419.227 427.508 419.531 427.812C419.843 428.116 420.275 428.268 420.827 428.268Z" fill="#666666"/>
<path d="M445.116 420.624H447.924C448.444 420.624 448.916 420.712 449.34 420.888C449.764 421.064 450.124 421.328 450.42 421.68C450.724 422.024 450.956 422.46 451.116 422.988C451.276 423.508 451.356 424.116 451.356 424.812C451.356 425.508 451.276 426.12 451.116 426.648C450.956 427.168 450.724 427.604 450.42 427.956C450.124 428.3 449.764 428.56 449.34 428.736C448.916 428.912 448.444 429 447.924 429H445.116V420.624ZM447.924 428.112C448.268 428.112 448.584 428.056 448.872 427.944C449.16 427.824 449.408 427.652 449.616 427.428C449.824 427.204 449.984 426.932 450.096 426.612C450.216 426.284 450.276 425.912 450.276 425.496V424.128C450.276 423.712 450.216 423.344 450.096 423.024C449.984 422.696 449.824 422.42 449.616 422.196C449.408 421.972 449.16 421.804 448.872 421.692C448.584 421.572 448.268 421.512 447.924 421.512H446.124V428.112H447.924ZM457.571 429C457.211 429 456.951 428.904 456.791 428.712C456.639 428.52 456.543 428.28 456.503 427.992H456.443C456.307 428.376 456.083 428.664 455.771 428.856C455.459 429.048 455.087 429.144 454.655 429.144C453.999 429.144 453.487 428.976 453.119 428.64C452.759 428.304 452.579 427.848 452.579 427.272C452.579 426.688 452.791 426.24 453.215 425.928C453.647 425.616 454.315 425.46 455.219 425.46H456.443V424.848C456.443 424.408 456.323 424.072 456.083 423.84C455.843 423.608 455.475 423.492 454.979 423.492C454.603 423.492 454.287 423.576 454.031 423.744C453.783 423.912 453.575 424.136 453.407 424.416L452.831 423.876C452.999 423.54 453.267 423.256 453.635 423.024C454.003 422.784 454.467 422.664 455.027 422.664C455.779 422.664 456.363 422.848 456.779 423.216C457.195 423.584 457.403 424.096 457.403 424.752V428.16H458.111V429H457.571ZM454.811 428.328C455.051 428.328 455.271 428.3 455.471 428.244C455.671 428.188 455.843 428.108 455.987 428.004C456.131 427.9 456.243 427.78 456.323 427.644C456.403 427.508 456.443 427.36 456.443 427.2V426.18H455.171C454.619 426.18 454.215 426.26 453.959 426.42C453.711 426.58 453.587 426.812 453.587 427.116V427.368C453.587 427.672 453.695 427.908 453.911 428.076C454.135 428.244 454.435 428.328 454.811 428.328ZM463.238 422.808H464.186L461.414 430.44C461.342 430.624 461.27 430.776 461.198 430.896C461.126 431.024 461.038 431.124 460.934 431.196C460.83 431.268 460.698 431.32 460.538 431.352C460.386 431.384 460.198 431.4 459.974 431.4H459.482V430.56H460.454L460.922 429.24L458.606 422.808H459.566L461.054 427.02L461.342 428.028H461.402L461.738 427.02L463.238 422.808ZM469.327 429L472.531 421.488H468.955V423.048H468.055V420.624H473.551V421.512L470.407 429H469.327Z" fill="#666666"/>
<circle cx="308" cy="204" r="10" fill="#BFDFF4"/>
<path fill-rule="evenodd" clip-rule="evenodd" d="M463 140C463 142.761 460.761 145 458 145C456.725 145 455.561 144.522 454.677 143.736L411.259 183.681C411.726 184.335 412 185.135 412 186C412 188.209 410.209 190 408 190C406.444 190 405.096 189.112 404.435 187.815L361.904 203.126C361.967 203.407 362 203.7 362 204C362 206.209 360.209 208 358 208C355.96 208 354.277 206.473 354.031 204.5H311.969C311.723 206.473 310.04 208 308 208C306.444 208 305.096 207.112 304.435 205.815L261.904 221.126C261.967 221.407 262 221.7 262 222C262 224.209 260.209 226 258 226C257.24 226 256.529 225.788 255.924 225.42L210.859 282.202C211.565 282.924 212 283.911 212 285C212 287.209 210.209 289 208 289C205.96 289 204.277 287.473 204.031 285.5H161.969C161.723 287.473 160.04 289 158 289C155.96 289 154.277 287.473 154.031 285.5H111.969C111.723 287.473 110.04 289 108 289C105.791 289 104 287.209 104 285C104 282.791 105.791 281 108 281C110.04 281 111.723 282.527 111.969 284.5H154.031C154.277 282.527 155.96 281 158 281C160.04 281 161.723 282.527 161.969 284.5H204.031C204.277 282.527 205.96 281 208 281C208.76 281 209.471 281.212 210.076 281.58L255.141 224.798C254.435 224.076 254 223.089 254 222C254 219.791 255.791 218 258 218C259.556 218 260.904 218.888 261.565 220.185L304.096 204.874C304.033 204.593 304 204.3 304 204C304 201.791 305.791 200 308 200C310.04 200 311.723 201.527 311.969 203.5H354.031C354.277 201.527 355.96 200 358 200C359.556 200 360.904 200.888 361.565 202.185L404.096 186.874C404.033 186.593 404 186.3 404 186C404 183.791 405.791 182 408 182C408.984 182 409.885 182.355 410.582 182.945L454 143.001C453.372 142.165 453 141.126 453 140C453 137.239 455.239 135 458 135C460.761 135 463 137.239 463 140Z" fill="#007FD2"/>
<path d="M238 180V116C238 115.448 238.448 115 239 115H378C378.552 115 379 115.448 379 116V180C379 180.552 378.552 181 378 181H320L308 192L296.5 181H239C238.448 181 238 180.552 238 180Z" fill="#0C2A4B"/>
<path d="M255.302 128.228H258.578C259.185 128.228 259.735 128.331 260.23 128.536C260.725 128.741 261.145 129.049 261.49 129.46C261.845 129.861 262.115 130.37 262.302 130.986C262.489 131.593 262.582 132.302 262.582 133.114C262.582 133.926 262.489 134.64 262.302 135.256C262.115 135.863 261.845 136.371 261.49 136.782C261.145 137.183 260.725 137.487 260.23 137.692C259.735 137.897 259.185 138 258.578 138H255.302V128.228ZM258.578 136.964C258.979 136.964 259.348 136.899 259.684 136.768C260.02 136.628 260.309 136.427 260.552 136.166C260.795 135.905 260.981 135.587 261.112 135.214C261.252 134.831 261.322 134.397 261.322 133.912V132.316C261.322 131.831 261.252 131.401 261.112 131.028C260.981 130.645 260.795 130.323 260.552 130.062C260.309 129.801 260.02 129.605 259.684 129.474C259.348 129.334 258.979 129.264 258.578 129.264H256.478V136.964H258.578ZM269.833 138C269.413 138 269.109 137.888 268.923 137.664C268.745 137.44 268.633 137.16 268.587 136.824H268.517C268.358 137.272 268.097 137.608 267.733 137.832C267.369 138.056 266.935 138.168 266.431 138.168C265.665 138.168 265.068 137.972 264.639 137.58C264.219 137.188 264.009 136.656 264.009 135.984C264.009 135.303 264.256 134.78 264.751 134.416C265.255 134.052 266.034 133.87 267.089 133.87H268.517V133.156C268.517 132.643 268.377 132.251 268.097 131.98C267.817 131.709 267.387 131.574 266.809 131.574C266.37 131.574 266.001 131.672 265.703 131.868C265.413 132.064 265.171 132.325 264.975 132.652L264.303 132.022C264.499 131.63 264.811 131.299 265.241 131.028C265.67 130.748 266.211 130.608 266.865 130.608C267.742 130.608 268.423 130.823 268.909 131.252C269.394 131.681 269.637 132.279 269.637 133.044V137.02H270.463V138H269.833ZM266.613 137.216C266.893 137.216 267.149 137.183 267.383 137.118C267.616 137.053 267.817 136.959 267.985 136.838C268.153 136.717 268.283 136.577 268.377 136.418C268.47 136.259 268.517 136.087 268.517 135.9V134.71H267.033C266.389 134.71 265.917 134.803 265.619 134.99C265.329 135.177 265.185 135.447 265.185 135.802V136.096C265.185 136.451 265.311 136.726 265.563 136.922C265.824 137.118 266.174 137.216 266.613 137.216ZM276.445 130.776H277.551L274.317 139.68C274.233 139.895 274.149 140.072 274.065 140.212C273.981 140.361 273.878 140.478 273.757 140.562C273.635 140.646 273.481 140.707 273.295 140.744C273.117 140.781 272.898 140.8 272.637 140.8H272.063V139.82H273.197L273.743 138.28L271.041 130.776H272.161L273.897 135.69L274.233 136.866H274.303L274.695 135.69L276.445 130.776ZM286.348 138V136.082H281.63V135.046L285.718 128.228H287.468V135.102H288.882V136.082H287.468V138H286.348ZM282.736 135.102H286.348V129.138H286.278L282.736 135.102Z" fill="#94A3B4"/>
<path d="M273.42 167L272.44 164.116H268.492L267.512 167H266.322L269.738 157.228H271.236L274.652 167H273.42ZM270.494 158.32H270.424L268.772 163.08H272.146L270.494 158.32ZM277.349 167C276.957 167 276.658 166.893 276.453 166.678C276.257 166.454 276.159 166.174 276.159 165.838V156.64H277.279V166.02H278.343V167H277.349ZM281.095 167C280.703 167 280.404 166.893 280.199 166.678C280.003 166.454 279.905 166.174 279.905 165.838V156.64H281.025V166.02H282.089V167H281.095ZM288.246 157.228V163.276C288.246 164.209 288.419 164.919 288.764 165.404C289.109 165.88 289.716 166.118 290.584 166.118C291.452 166.118 292.059 165.88 292.404 165.404C292.749 164.919 292.922 164.209 292.922 163.276V157.228H294.098V162.996C294.098 163.705 294.033 164.321 293.902 164.844C293.781 165.367 293.58 165.801 293.3 166.146C293.02 166.491 292.651 166.748 292.194 166.916C291.746 167.084 291.195 167.168 290.542 167.168C289.889 167.168 289.338 167.084 288.89 166.916C288.451 166.748 288.097 166.491 287.826 166.146C287.555 165.801 287.359 165.367 287.238 164.844C287.126 164.321 287.07 163.705 287.07 162.996V157.228H288.246ZM298.686 167.168C298.014 167.168 297.45 167.042 296.992 166.79C296.544 166.529 296.157 166.183 295.83 165.754L296.628 165.11C296.908 165.465 297.221 165.74 297.566 165.936C297.912 166.123 298.313 166.216 298.77 166.216C299.246 166.216 299.615 166.113 299.876 165.908C300.147 165.703 300.282 165.413 300.282 165.04C300.282 164.76 300.189 164.522 300.002 164.326C299.825 164.121 299.498 163.981 299.022 163.906L298.448 163.822C298.112 163.775 297.804 163.705 297.524 163.612C297.244 163.509 296.997 163.379 296.782 163.22C296.577 163.052 296.414 162.847 296.292 162.604C296.18 162.361 296.124 162.072 296.124 161.736C296.124 161.381 296.19 161.073 296.32 160.812C296.451 160.541 296.628 160.317 296.852 160.14C297.086 159.963 297.361 159.832 297.678 159.748C297.996 159.655 298.336 159.608 298.7 159.608C299.288 159.608 299.778 159.711 300.17 159.916C300.572 160.121 300.922 160.406 301.22 160.77L300.478 161.442C300.32 161.218 300.086 161.017 299.778 160.84C299.47 160.653 299.083 160.56 298.616 160.56C298.15 160.56 297.795 160.663 297.552 160.868C297.319 161.064 297.202 161.335 297.202 161.68C297.202 162.035 297.319 162.291 297.552 162.45C297.795 162.609 298.14 162.725 298.588 162.8L299.148 162.884C299.951 163.005 300.52 163.239 300.856 163.584C301.192 163.92 301.36 164.363 301.36 164.914C301.36 165.614 301.122 166.165 300.646 166.566C300.17 166.967 299.517 167.168 298.686 167.168ZM306.054 167.168C305.56 167.168 305.112 167.079 304.71 166.902C304.318 166.725 303.978 166.473 303.688 166.146C303.408 165.81 303.189 165.413 303.03 164.956C302.881 164.489 302.806 163.967 302.806 163.388C302.806 162.819 302.881 162.301 303.03 161.834C303.189 161.367 303.408 160.971 303.688 160.644C303.978 160.308 304.318 160.051 304.71 159.874C305.112 159.697 305.56 159.608 306.054 159.608C306.54 159.608 306.974 159.697 307.356 159.874C307.739 160.051 308.066 160.299 308.336 160.616C308.607 160.924 308.812 161.293 308.952 161.722C309.102 162.151 309.176 162.623 309.176 163.136V163.668H303.982V164.004C303.982 164.312 304.029 164.601 304.122 164.872C304.225 165.133 304.365 165.362 304.542 165.558C304.729 165.754 304.953 165.908 305.214 166.02C305.485 166.132 305.788 166.188 306.124 166.188C306.582 166.188 306.978 166.081 307.314 165.866C307.66 165.651 307.926 165.343 308.112 164.942L308.91 165.516C308.677 166.011 308.313 166.412 307.818 166.72C307.324 167.019 306.736 167.168 306.054 167.168ZM306.054 160.546C305.746 160.546 305.466 160.602 305.214 160.714C304.962 160.817 304.743 160.966 304.556 161.162C304.379 161.358 304.239 161.591 304.136 161.862C304.034 162.123 303.982 162.413 303.982 162.73V162.828H307.972V162.674C307.972 162.03 307.795 161.517 307.44 161.134C307.095 160.742 306.633 160.546 306.054 160.546ZM311.022 167V159.776H312.142V161.106H312.212C312.343 160.761 312.576 160.453 312.912 160.182C313.248 159.911 313.71 159.776 314.298 159.776H314.732V160.896H314.074C313.467 160.896 312.991 161.013 312.646 161.246C312.31 161.47 312.142 161.755 312.142 162.1V167H311.022ZM318.333 167.168C317.661 167.168 317.096 167.042 316.639 166.79C316.191 166.529 315.803 166.183 315.477 165.754L316.275 165.11C316.555 165.465 316.867 165.74 317.213 165.936C317.558 166.123 317.959 166.216 318.417 166.216C318.893 166.216 319.261 166.113 319.523 165.908C319.793 165.703 319.929 165.413 319.929 165.04C319.929 164.76 319.835 164.522 319.649 164.326C319.471 164.121 319.145 163.981 318.669 163.906L318.095 163.822C317.759 163.775 317.451 163.705 317.171 163.612C316.891 163.509 316.643 163.379 316.429 163.22C316.223 163.052 316.06 162.847 315.939 162.604C315.827 162.361 315.771 162.072 315.771 161.736C315.771 161.381 315.836 161.073 315.967 160.812C316.097 160.541 316.275 160.317 316.499 160.14C316.732 159.963 317.007 159.832 317.325 159.748C317.642 159.655 317.983 159.608 318.347 159.608C318.935 159.608 319.425 159.711 319.817 159.916C320.218 160.121 320.568 160.406 320.867 160.77L320.125 161.442C319.966 161.218 319.733 161.017 319.425 160.84C319.117 160.653 318.729 160.56 318.263 160.56C317.796 160.56 317.441 160.663 317.199 160.868C316.965 161.064 316.849 161.335 316.849 161.68C316.849 162.035 316.965 162.291 317.199 162.45C317.441 162.609 317.787 162.725 318.235 162.8L318.795 162.884C319.597 163.005 320.167 163.239 320.503 163.584C320.839 163.92 321.007 164.363 321.007 164.914C321.007 165.614 320.769 166.165 320.293 166.566C319.817 166.967 319.163 167.168 318.333 167.168ZM323.839 167.168C323.54 167.168 323.321 167.093 323.181 166.944C323.05 166.795 322.985 166.599 322.985 166.356V166.174C322.985 165.931 323.05 165.735 323.181 165.586C323.321 165.437 323.54 165.362 323.839 165.362C324.138 165.362 324.352 165.437 324.483 165.586C324.623 165.735 324.693 165.931 324.693 166.174V166.356C324.693 166.599 324.623 166.795 324.483 166.944C324.352 167.093 324.138 167.168 323.839 167.168ZM323.839 161.414C323.54 161.414 323.321 161.339 323.181 161.19C323.05 161.041 322.985 160.845 322.985 160.602V160.42C322.985 160.177 323.05 159.981 323.181 159.832C323.321 159.683 323.54 159.608 323.839 159.608C324.138 159.608 324.352 159.683 324.483 159.832C324.623 159.981 324.693 160.177 324.693 160.42V160.602C324.693 160.845 324.623 161.041 324.483 161.19C324.352 161.339 324.138 161.414 323.839 161.414ZM332.845 168.148V166.944C332.136 166.888 331.539 166.715 331.053 166.426C330.568 166.137 330.148 165.782 329.793 165.362L330.815 164.438C331.105 164.793 331.417 165.077 331.753 165.292C332.099 165.507 332.495 165.642 332.943 165.698V162.562C331.935 162.347 331.207 162.025 330.759 161.596C330.311 161.157 330.087 160.583 330.087 159.874C330.087 159.127 330.335 158.535 330.829 158.096C331.324 157.657 331.996 157.391 332.845 157.298V156.08H334.035V157.298C334.633 157.354 335.151 157.503 335.589 157.746C336.037 157.989 336.425 158.32 336.751 158.74L335.715 159.594C335.51 159.323 335.263 159.099 334.973 158.922C334.693 158.735 334.353 158.609 333.951 158.544V161.414C334.502 161.535 334.959 161.68 335.323 161.848C335.687 162.016 335.981 162.207 336.205 162.422C336.439 162.627 336.607 162.87 336.709 163.15C336.812 163.421 336.863 163.738 336.863 164.102C336.863 164.858 336.616 165.488 336.121 165.992C335.636 166.496 334.941 166.804 334.035 166.916V168.148H332.845ZM335.393 164.2C335.393 163.845 335.291 163.556 335.085 163.332C334.88 163.099 334.502 162.912 333.951 162.772V165.684C334.409 165.609 334.763 165.441 335.015 165.18C335.267 164.919 335.393 164.592 335.393 164.2ZM331.543 159.804C331.543 160.196 331.655 160.495 331.879 160.7C332.113 160.896 332.467 161.059 332.943 161.19V158.53C332.495 158.595 332.15 158.735 331.907 158.95C331.665 159.165 331.543 159.449 331.543 159.804ZM339.966 167L343.508 158.53H339.812V160.336H338.454V157.228H345.076V158.6L341.632 167H339.966ZM350.167 167.168C349.597 167.168 349.093 167.098 348.655 166.958C348.225 166.809 347.861 166.608 347.563 166.356C347.273 166.104 347.049 165.805 346.891 165.46C346.741 165.115 346.667 164.741 346.667 164.34C346.667 163.687 346.844 163.164 347.199 162.772C347.563 162.371 348.039 162.091 348.627 161.932V161.82C348.123 161.643 347.717 161.363 347.409 160.98C347.11 160.597 346.961 160.126 346.961 159.566C346.961 159.193 347.031 158.852 347.171 158.544C347.32 158.236 347.53 157.975 347.801 157.76C348.071 157.536 348.407 157.363 348.809 157.242C349.21 157.121 349.663 157.06 350.167 157.06C350.671 157.06 351.123 157.121 351.525 157.242C351.926 157.363 352.262 157.536 352.533 157.76C352.803 157.975 353.009 158.236 353.149 158.544C353.298 158.852 353.373 159.193 353.373 159.566C353.373 160.126 353.219 160.597 352.911 160.98C352.612 161.363 352.211 161.643 351.707 161.82V161.932C352.295 162.091 352.766 162.371 353.121 162.772C353.485 163.164 353.667 163.687 353.667 164.34C353.667 164.741 353.587 165.115 353.429 165.46C353.279 165.805 353.055 166.104 352.757 166.356C352.467 166.608 352.103 166.809 351.665 166.958C351.235 167.098 350.736 167.168 350.167 167.168ZM350.167 165.894C350.755 165.894 351.207 165.759 351.525 165.488C351.851 165.217 352.015 164.839 352.015 164.354V164.074C352.015 163.589 351.851 163.211 351.525 162.94C351.207 162.669 350.755 162.534 350.167 162.534C349.579 162.534 349.121 162.669 348.795 162.94C348.477 163.211 348.319 163.589 348.319 164.074V164.354C348.319 164.839 348.477 165.217 348.795 165.488C349.121 165.759 349.579 165.894 350.167 165.894ZM350.167 161.316C350.708 161.316 351.119 161.199 351.399 160.966C351.688 160.733 351.833 160.392 351.833 159.944V159.706C351.833 159.258 351.688 158.917 351.399 158.684C351.119 158.451 350.708 158.334 350.167 158.334C349.625 158.334 349.21 158.451 348.921 158.684C348.641 158.917 348.501 159.258 348.501 159.706V159.944C348.501 160.392 348.641 160.733 348.921 160.966C349.21 161.199 349.625 161.316 350.167 161.316Z" fill="#94A3B4"/>
<circle cx="258" cy="163" r="4" fill="#007FD2"/>
<rect x="20.5" y="20.5" width="129" height="31" rx="0.5" stroke="#C6D0D9"/>
<path fill-rule="evenodd" clip-rule="evenodd" d="M37.9397 30.3549V29.2956C37.9397 29.0914 37.7738 28.9255 37.5696 28.9255C37.3654 28.9255 37.1995 29.0914 37.1995 29.2956V30.3549H33.7538V29.2956C33.7538 29.0914 33.5879 28.9255 33.3837 28.9255C33.1795 28.9255 33.0136 29.0914 33.0136 29.2956V30.3549H31.5843C30.8186 30.3549 30.1932 30.9802 30.1932 31.7459V38.3055C30.1932 39.0713 30.8186 39.6966 31.5843 39.6966H35.6161C35.8071 40.4303 36.192 41.1171 36.7551 41.6777C38.0092 42.9263 39.8996 43.3025 41.5433 42.6306C43.1869 41.9586 44.2592 40.3712 44.2592 38.6098C44.2628 37.459 43.8044 36.3539 42.9849 35.538C42.3731 34.9289 41.5974 34.5182 40.7601 34.3483V31.7459C40.7601 30.9802 40.1348 30.3549 39.369 30.3549H37.9397ZM40.0071 34.2618V31.7459C40.0071 31.3886 39.7136 31.0951 39.3563 31.0951H37.927V31.6055C37.927 31.8097 37.761 31.9756 37.5569 31.9756C37.3527 31.9756 37.1868 31.8097 37.1868 31.6055V31.0951H33.7538V31.6055C33.7538 31.8097 33.5879 31.9756 33.3837 31.9756C33.1795 31.9756 33.0136 31.8097 33.0136 31.6055V31.0951H31.5843C31.227 31.0951 30.9334 31.3886 30.9334 31.7459V38.3055C30.9334 38.6629 31.227 38.9564 31.5843 38.9564H35.4907C35.4613 38.5924 35.478 38.2235 35.5426 37.8587H32.7527C32.2373 37.8587 32.1267 37.6928 32.1267 37.4886C32.1267 37.2844 32.2373 37.1185 32.7527 37.1185H35.7429C35.7662 37.0553 35.7911 36.9924 35.8175 36.9299C35.937 36.6471 36.0845 36.3816 36.2559 36.1359H32.8123C32.2478 36.1359 32.1267 35.97 32.1267 35.7658C32.1267 35.5617 32.2478 35.3958 32.8123 35.3958H36.5875C36.706 35.3958 36.8045 35.4031 36.8862 35.4165C37.6875 34.6826 38.7542 34.2543 39.8904 34.2601C39.9293 34.2601 39.9683 34.2607 40.0071 34.2618ZM37.9452 33.673H33.021C32.2847 33.673 32.1267 33.8325 32.1267 34.0367C32.1267 34.2409 32.2847 34.4132 33.021 34.4132H37.9452C38.6815 34.4132 38.8267 34.2473 38.8267 34.0431C38.8267 33.8389 38.6815 33.673 37.9452 33.673ZM40.1673 41.1586L40.2031 40.7737V40.7692C40.8608 40.7262 41.3893 40.2159 41.4494 39.5656C41.4494 38.986 41.0429 38.6054 40.1718 38.3576V37.0168H40.2254C40.614 37.1142 40.8776 37.3487 40.8999 37.6186C40.9162 37.7663 41.0449 37.8764 41.1948 37.8709C41.2692 37.8653 41.3381 37.8302 41.3861 37.7735C41.434 37.7169 41.4568 37.6435 41.4494 37.57C41.3344 36.9426 40.8126 36.4672 40.1718 36.4062V36.061C40.1718 35.9095 40.0478 35.7867 39.8948 35.7867C39.7419 35.7867 39.6179 35.9095 39.6179 36.061L39.5821 36.446C38.9246 36.4914 38.398 37.0036 38.3403 37.654C38.3403 38.2337 38.7244 38.6143 39.6179 38.8621V40.2028H39.5643C39.1756 40.1099 38.9121 39.871 38.8897 39.601C38.8755 39.4505 38.7427 39.3386 38.5904 39.3488C38.516 39.3544 38.4471 39.3895 38.3991 39.4461C38.3512 39.5028 38.3284 39.5762 38.3358 39.6497C38.4508 40.2771 38.9726 40.7524 39.6134 40.8135V41.1586C39.6134 41.3101 39.7374 41.433 39.8904 41.433C40.0433 41.433 40.1673 41.3101 40.1673 41.1586ZM40.1852 38.9771H40.2388C40.6855 39.101 40.9089 39.2957 40.9089 39.5789C40.9089 39.8621 40.6408 40.1188 40.2388 40.2161H40.1852V38.9771ZM39.5687 38.2426C39.1175 38.0921 38.8987 37.9195 38.8987 37.6496C38.8987 37.3708 39.1622 37.1142 39.5687 37.0036H39.6223V38.2426H39.5687Z" fill="#005488"/>
<path d="M51.478 41H50.302V31.228H54.194C55.0527 31.228 55.72 31.466 56.196 31.942C56.6813 32.418 56.924 33.104 56.924 34C56.924 34.7187 56.756 35.3113 56.42 35.778C56.0933 36.2353 55.608 36.5387 54.964 36.688L57.204 41H55.874L53.76 36.8H51.478V41ZM54.194 35.792C54.6607 35.792 55.02 35.6707 55.272 35.428C55.5333 35.1853 55.664 34.84 55.664 34.392V33.664C55.664 33.216 55.5333 32.8707 55.272 32.628C55.02 32.3853 54.6607 32.264 54.194 32.264H51.478V35.792H54.194ZM61.656 41.168C61.1613 41.168 60.7133 41.0793 60.312 40.902C59.92 40.7247 59.5793 40.4727 59.29 40.146C59.01 39.81 58.7907 39.4133 58.632 38.956C58.4827 38.4893 58.408 37.9667 58.408 37.388C58.408 36.8187 58.4827 36.3007 58.632 35.834C58.7907 35.3673 59.01 34.9707 59.29 34.644C59.5793 34.308 59.92 34.0513 60.312 33.874C60.7133 33.6967 61.1613 33.608 61.656 33.608C62.1413 33.608 62.5753 33.6967 62.958 33.874C63.3407 34.0513 63.6673 34.2987 63.938 34.616C64.2087 34.924 64.414 35.2927 64.554 35.722C64.7033 36.1513 64.778 36.6227 64.778 37.136V37.668H59.584V38.004C59.584 38.312 59.6307 38.6013 59.724 38.872C59.8267 39.1333 59.9667 39.362 60.144 39.558C60.3307 39.754 60.5547 39.908 60.816 40.02C61.0867 40.132 61.39 40.188 61.726 40.188C62.1833 40.188 62.58 40.0807 62.916 39.866C63.2613 39.6513 63.5273 39.3433 63.714 38.942L64.512 39.516C64.2787 40.0107 63.9147 40.412 63.42 40.72C62.9253 41.0187 62.3373 41.168 61.656 41.168ZM61.656 34.546C61.348 34.546 61.068 34.602 60.816 34.714C60.564 34.8167 60.3447 34.966 60.158 35.162C59.9807 35.358 59.8407 35.5913 59.738 35.862C59.6353 36.1233 59.584 36.4127 59.584 36.73V36.828H63.574V36.674C63.574 36.03 63.3967 35.5167 63.042 35.134C62.6967 34.742 62.2347 34.546 61.656 34.546ZM68.1102 41L65.5762 33.776H66.6962L67.9562 37.36L68.7402 39.824H68.8102L69.5942 37.36L70.8822 33.776H71.9602L69.4122 41H68.1102ZM76.0115 41.168C75.5168 41.168 75.0688 41.0793 74.6675 40.902C74.2755 40.7247 73.9348 40.4727 73.6455 40.146C73.3655 39.81 73.1461 39.4133 72.9875 38.956C72.8381 38.4893 72.7635 37.9667 72.7635 37.388C72.7635 36.8187 72.8381 36.3007 72.9875 35.834C73.1461 35.3673 73.3655 34.9707 73.6455 34.644C73.9348 34.308 74.2755 34.0513 74.6675 33.874C75.0688 33.6967 75.5168 33.608 76.0115 33.608C76.4968 33.608 76.9308 33.6967 77.3135 33.874C77.6961 34.0513 78.0228 34.2987 78.2935 34.616C78.5641 34.924 78.7695 35.2927 78.9095 35.722C79.0588 36.1513 79.1335 36.6227 79.1335 37.136V37.668H73.9395V38.004C73.9395 38.312 73.9861 38.6013 74.0795 38.872C74.1821 39.1333 74.3221 39.362 74.4995 39.558C74.6861 39.754 74.9101 39.908 75.1715 40.02C75.4421 40.132 75.7455 40.188 76.0815 40.188C76.5388 40.188 76.9355 40.0807 77.2715 39.866C77.6168 39.6513 77.8828 39.3433 78.0695 38.942L78.8675 39.516C78.6341 40.0107 78.2701 40.412 77.7755 40.72C77.2808 41.0187 76.6928 41.168 76.0115 41.168ZM76.0115 34.546C75.7035 34.546 75.4235 34.602 75.1715 34.714C74.9195 34.8167 74.7001 34.966 74.5135 35.162C74.3361 35.358 74.1961 35.5913 74.0935 35.862C73.9908 36.1233 73.9395 36.4127 73.9395 36.73V36.828H77.9295V36.674C77.9295 36.03 77.7521 35.5167 77.3975 35.134C77.0521 34.742 76.5901 34.546 76.0115 34.546ZM80.9791 41V33.776H82.0991V34.952H82.1551C82.3324 34.5413 82.5797 34.2147 82.8971 33.972C83.2237 33.7293 83.6577 33.608 84.1991 33.608C84.9457 33.608 85.5337 33.8507 85.9631 34.336C86.4017 34.812 86.6211 35.4887 86.6211 36.366V41H85.5011V36.562C85.5011 35.2647 84.9551 34.616 83.8631 34.616C83.6391 34.616 83.4197 34.644 83.2051 34.7C82.9997 34.756 82.8131 34.84 82.6451 34.952C82.4771 35.064 82.3417 35.2087 82.2391 35.386C82.1457 35.554 82.0991 35.7547 82.0991 35.988V41H80.9791ZM93.3881 39.824H93.3321C93.2574 39.992 93.1641 40.16 93.0521 40.328C92.9494 40.4867 92.8188 40.6313 92.6601 40.762C92.5014 40.8833 92.3101 40.9813 92.0861 41.056C91.8621 41.1307 91.6008 41.168 91.3021 41.168C90.5554 41.168 89.9628 40.93 89.5241 40.454C89.0854 39.9687 88.8661 39.2873 88.8661 38.41V33.776H89.9861V38.214C89.9861 39.5113 90.5368 40.16 91.6381 40.16C91.8621 40.16 92.0768 40.132 92.2821 40.076C92.4968 40.02 92.6834 39.936 92.8421 39.824C93.0101 39.712 93.1408 39.572 93.2341 39.404C93.3368 39.2267 93.3881 39.0167 93.3881 38.774V33.776H94.5081V41H93.3881V39.824ZM99.6091 41.168C99.1145 41.168 98.6665 41.0793 98.2651 40.902C97.8731 40.7247 97.5325 40.4727 97.2431 40.146C96.9631 39.81 96.7438 39.4133 96.5851 38.956C96.4358 38.4893 96.3611 37.9667 96.3611 37.388C96.3611 36.8187 96.4358 36.3007 96.5851 35.834C96.7438 35.3673 96.9631 34.9707 97.2431 34.644C97.5325 34.308 97.8731 34.0513 98.2651 33.874C98.6665 33.6967 99.1145 33.608 99.6091 33.608C100.094 33.608 100.528 33.6967 100.911 33.874C101.294 34.0513 101.62 34.2987 101.891 34.616C102.162 34.924 102.367 35.2927 102.507 35.722C102.656 36.1513 102.731 36.6227 102.731 37.136V37.668H97.5371V38.004C97.5371 38.312 97.5838 38.6013 97.6771 38.872C97.7798 39.1333 97.9198 39.362 98.0971 39.558C98.2838 39.754 98.5078 39.908 98.7691 40.02C99.0398 40.132 99.3431 40.188 99.6791 40.188C100.136 40.188 100.533 40.0807 100.869 39.866C101.214 39.6513 101.48 39.3433 101.667 38.942L102.465 39.516C102.232 40.0107 101.868 40.412 101.373 40.72C100.878 41.0187 100.29 41.168 99.6091 41.168ZM99.6091 34.546C99.3011 34.546 99.0211 34.602 98.7691 34.714C98.5171 34.8167 98.2978 34.966 98.1111 35.162C97.9338 35.358 97.7938 35.5913 97.6911 35.862C97.5885 36.1233 97.5371 36.4127 97.5371 36.73V36.828H101.527V36.674C101.527 36.03 101.35 35.5167 100.995 35.134C100.65 34.742 100.188 34.546 99.6091 34.546ZM107.997 41V31.228H109.173V39.964H113.331V41H107.997ZM117.317 32.264V41H116.141V32.264H113.033V31.228H120.425V32.264H117.317ZM124.333 41L121.085 31.228H122.345L123.955 36.156L125.033 39.824H125.103L126.209 36.156L127.833 31.228H129.051L125.761 41H124.333Z" fill="#005488"/>
<path d="M134 34L137 37L140 34" stroke="#005488"/>
</svg>
