<svg width="488" height="300" viewBox="0 0 488 300" fill="none" xmlns="http://www.w3.org/2000/svg">
<g clip-path="url(#clip0)">
<path d="M506 5H-18C-22.4183 5 -26 8.42791 -26 12.6564V309.344C-26 313.572 -22.4183 317 -18 317H506C510.418 317 514 313.572 514 309.344V12.6564C514 8.42791 510.418 5 506 5Z" fill="white"/>
<path d="M488 4H7V5H488V4Z" fill="#EDF3F8"/>
<path d="M488 63H7V64H488V63Z" fill="#EDF3F8"/>
<path d="M488 122H7V123H488V122Z" fill="#EDF3F8"/>
<path d="M488 181H7V182H488V181Z" fill="#EDF3F8"/>
<path d="M488 240H7V241H488V240Z" fill="#EDF3F8"/>
<path d="M488 299H7V300H488V299Z" fill="#EDF3F8"/>
<path d="M298 142C304.627 142 310 136.627 310 130C310 123.373 304.627 118 298 118C291.373 118 286 123.373 286 130C286 136.627 291.373 142 298 142Z" fill="#D9E1F0"/>
<path fill-rule="evenodd" clip-rule="evenodd" d="M226 75C221.582 75 218 78.5817 218 83V100C218 104.418 221.582 108 226 108H290L298 115L306 108H368C372.418 108 376 104.418 376 100V83C376 78.5817 372.418 75 368 75H226Z" fill="#4267B2"/>
<path d="M235.072 96C234.977 95.688 234.868 95.3673 234.747 95.038C234.634 94.7087 234.522 94.3793 234.409 94.05H230.899C230.786 94.3793 230.669 94.7087 230.548 95.038C230.435 95.3673 230.331 95.688 230.236 96H228.13C228.468 95.0293 228.789 94.1323 229.092 93.309C229.395 92.4857 229.69 91.71 229.976 90.982C230.271 90.254 230.557 89.565 230.834 88.915C231.12 88.2563 231.415 87.615 231.718 86.991H233.655C233.95 87.615 234.24 88.2563 234.526 88.915C234.812 89.565 235.098 90.254 235.384 90.982C235.679 91.71 235.978 92.4857 236.281 93.309C236.584 94.1323 236.905 95.0293 237.243 96H235.072ZM232.641 89.032C232.598 89.162 232.533 89.3397 232.446 89.565C232.359 89.7903 232.26 90.0503 232.147 90.345C232.034 90.6397 231.909 90.9647 231.77 91.32C231.64 91.6753 231.506 92.048 231.367 92.438H233.928C233.789 92.048 233.655 91.6753 233.525 91.32C233.395 90.9647 233.269 90.6397 233.148 90.345C233.035 90.0503 232.936 89.7903 232.849 89.565C232.762 89.3397 232.693 89.162 232.641 89.032ZM242.66 92.633C242.66 92.035 242.526 91.5583 242.257 91.203C241.988 90.839 241.59 90.657 241.061 90.657C240.888 90.657 240.727 90.6657 240.58 90.683C240.433 90.6917 240.311 90.7047 240.216 90.722V94.219C240.337 94.297 240.493 94.362 240.684 94.414C240.883 94.466 241.083 94.492 241.282 94.492C242.201 94.492 242.66 93.8723 242.66 92.633ZM244.636 92.581C244.636 93.1097 244.571 93.5907 244.441 94.024C244.311 94.4573 244.12 94.83 243.869 95.142C243.618 95.454 243.306 95.6967 242.933 95.87C242.56 96.0433 242.131 96.13 241.646 96.13C241.377 96.13 241.126 96.104 240.892 96.052C240.658 96 240.433 95.9263 240.216 95.831V98.405H238.279V89.396C238.452 89.344 238.652 89.2963 238.877 89.253C239.102 89.201 239.336 89.1577 239.579 89.123C239.83 89.0883 240.082 89.0623 240.333 89.045C240.593 89.019 240.84 89.006 241.074 89.006C241.637 89.006 242.14 89.0927 242.582 89.266C243.024 89.4307 243.397 89.669 243.7 89.981C244.003 90.2843 244.233 90.657 244.389 91.099C244.554 91.541 244.636 92.035 244.636 92.581ZM250.506 92.633C250.506 92.035 250.372 91.5583 250.103 91.203C249.834 90.839 249.436 90.657 248.907 90.657C248.734 90.657 248.573 90.6657 248.426 90.683C248.279 90.6917 248.157 90.7047 248.062 90.722V94.219C248.183 94.297 248.339 94.362 248.53 94.414C248.729 94.466 248.929 94.492 249.128 94.492C250.047 94.492 250.506 93.8723 250.506 92.633ZM252.482 92.581C252.482 93.1097 252.417 93.5907 252.287 94.024C252.157 94.4573 251.966 94.83 251.715 95.142C251.464 95.454 251.152 95.6967 250.779 95.87C250.406 96.0433 249.977 96.13 249.492 96.13C249.223 96.13 248.972 96.104 248.738 96.052C248.504 96 248.279 95.9263 248.062 95.831V98.405H246.125V89.396C246.298 89.344 246.498 89.2963 246.723 89.253C246.948 89.201 247.182 89.1577 247.425 89.123C247.676 89.0883 247.928 89.0623 248.179 89.045C248.439 89.019 248.686 89.006 248.92 89.006C249.483 89.006 249.986 89.0927 250.428 89.266C250.87 89.4307 251.243 89.669 251.546 89.981C251.849 90.2843 252.079 90.657 252.235 91.099C252.4 91.541 252.482 92.035 252.482 92.581ZM256.701 96.13C256.137 96.1213 255.678 96.0607 255.323 95.948C254.976 95.8353 254.699 95.6793 254.491 95.48C254.291 95.272 254.153 95.025 254.075 94.739C254.005 94.4443 253.971 94.115 253.971 93.751V86.224L255.908 85.912V93.361C255.908 93.5343 255.921 93.6903 255.947 93.829C255.973 93.9677 256.02 94.0847 256.09 94.18C256.168 94.2753 256.276 94.3533 256.415 94.414C256.553 94.4747 256.74 94.5137 256.974 94.531L256.701 96.13ZM257.759 92.633C257.759 92.0263 257.85 91.4977 258.032 91.047C258.222 90.5877 258.469 90.2063 258.773 89.903C259.076 89.5997 259.423 89.37 259.813 89.214C260.211 89.058 260.619 88.98 261.035 88.98C262.005 88.98 262.772 89.279 263.336 89.877C263.899 90.4663 264.181 91.3373 264.181 92.49C264.181 92.6027 264.176 92.7283 264.168 92.867C264.159 92.997 264.15 93.114 264.142 93.218H259.748C259.791 93.6167 259.977 93.933 260.307 94.167C260.636 94.401 261.078 94.518 261.633 94.518C261.988 94.518 262.335 94.4877 262.673 94.427C263.019 94.3577 263.301 94.2753 263.518 94.18L263.778 95.753C263.674 95.805 263.535 95.857 263.362 95.909C263.188 95.961 262.993 96.0043 262.777 96.039C262.569 96.0823 262.343 96.117 262.101 96.143C261.858 96.169 261.615 96.182 261.373 96.182C260.757 96.182 260.22 96.091 259.761 95.909C259.31 95.727 258.933 95.48 258.63 95.168C258.335 94.8473 258.114 94.4703 257.967 94.037C257.828 93.6037 257.759 93.1357 257.759 92.633ZM262.309 91.892C262.3 91.7273 262.27 91.567 262.218 91.411C262.174 91.255 262.101 91.1163 261.997 90.995C261.901 90.8737 261.776 90.774 261.62 90.696C261.472 90.618 261.286 90.579 261.061 90.579C260.844 90.579 260.658 90.618 260.502 90.696C260.346 90.7653 260.216 90.8607 260.112 90.982C260.008 91.1033 259.925 91.2463 259.865 91.411C259.813 91.567 259.774 91.7273 259.748 91.892H262.309ZM271.386 94.453C271.672 94.453 271.906 94.4313 272.088 94.388C272.278 94.336 272.43 94.271 272.543 94.193C272.655 94.1063 272.733 94.0067 272.777 93.894C272.82 93.7813 272.842 93.6557 272.842 93.517C272.842 93.2223 272.703 92.9797 272.426 92.789C272.148 92.5897 271.672 92.3773 270.996 92.152C270.701 92.048 270.406 91.931 270.112 91.801C269.817 91.6623 269.553 91.4933 269.319 91.294C269.085 91.086 268.894 90.839 268.747 90.553C268.599 90.2583 268.526 89.903 268.526 89.487C268.526 89.071 268.604 88.6983 268.76 88.369C268.916 88.031 269.137 87.745 269.423 87.511C269.709 87.277 270.055 87.0993 270.463 86.978C270.87 86.848 271.329 86.783 271.841 86.783C272.447 86.783 272.972 86.848 273.414 86.978C273.856 87.108 274.22 87.251 274.506 87.407L273.921 89.006C273.669 88.876 273.388 88.7633 273.076 88.668C272.772 88.564 272.404 88.512 271.971 88.512C271.485 88.512 271.134 88.5813 270.918 88.72C270.71 88.85 270.606 89.0537 270.606 89.331C270.606 89.4957 270.645 89.6343 270.723 89.747C270.801 89.8597 270.909 89.9637 271.048 90.059C271.195 90.1457 271.36 90.228 271.542 90.306C271.732 90.3753 271.94 90.449 272.166 90.527C272.634 90.7003 273.041 90.8737 273.388 91.047C273.734 91.2117 274.02 91.4067 274.246 91.632C274.48 91.8573 274.653 92.1217 274.766 92.425C274.878 92.7283 274.935 93.0967 274.935 93.53C274.935 94.3707 274.64 95.025 274.051 95.493C273.461 95.9523 272.573 96.182 271.386 96.182C270.987 96.182 270.627 96.156 270.307 96.104C269.986 96.0607 269.7 96.0043 269.449 95.935C269.206 95.8657 268.994 95.792 268.812 95.714C268.638 95.636 268.491 95.5623 268.37 95.493L268.942 93.881C269.21 94.0283 269.54 94.1627 269.93 94.284C270.328 94.3967 270.814 94.453 271.386 94.453ZM276.04 92.633C276.04 92.0263 276.131 91.4977 276.313 91.047C276.504 90.5877 276.751 90.2063 277.054 89.903C277.357 89.5997 277.704 89.37 278.094 89.214C278.493 89.058 278.9 88.98 279.316 88.98C280.287 88.98 281.054 89.279 281.617 89.877C282.18 90.4663 282.462 91.3373 282.462 92.49C282.462 92.6027 282.458 92.7283 282.449 92.867C282.44 92.997 282.432 93.114 282.423 93.218H278.029C278.072 93.6167 278.259 93.933 278.588 94.167C278.917 94.401 279.359 94.518 279.914 94.518C280.269 94.518 280.616 94.4877 280.954 94.427C281.301 94.3577 281.582 94.2753 281.799 94.18L282.059 95.753C281.955 95.805 281.816 95.857 281.643 95.909C281.47 95.961 281.275 96.0043 281.058 96.039C280.85 96.0823 280.625 96.117 280.382 96.143C280.139 96.169 279.897 96.182 279.654 96.182C279.039 96.182 278.501 96.091 278.042 95.909C277.591 95.727 277.214 95.48 276.911 95.168C276.616 94.8473 276.395 94.4703 276.248 94.037C276.109 93.6037 276.04 93.1357 276.04 92.633ZM280.59 91.892C280.581 91.7273 280.551 91.567 280.499 91.411C280.456 91.255 280.382 91.1163 280.278 90.995C280.183 90.8737 280.057 90.774 279.901 90.696C279.754 90.618 279.567 90.579 279.342 90.579C279.125 90.579 278.939 90.618 278.783 90.696C278.627 90.7653 278.497 90.8607 278.393 90.982C278.289 91.1033 278.207 91.2463 278.146 91.411C278.094 91.567 278.055 91.7273 278.029 91.892H280.59ZM286.57 94.648C286.761 94.648 286.943 94.6437 287.116 94.635C287.289 94.6263 287.428 94.6133 287.532 94.596V93.127C287.454 93.1097 287.337 93.0923 287.181 93.075C287.025 93.0577 286.882 93.049 286.752 93.049C286.57 93.049 286.397 93.062 286.232 93.088C286.076 93.1053 285.937 93.1443 285.816 93.205C285.695 93.2657 285.599 93.348 285.53 93.452C285.461 93.556 285.426 93.686 285.426 93.842C285.426 94.1453 285.526 94.3577 285.725 94.479C285.933 94.5917 286.215 94.648 286.57 94.648ZM286.414 88.98C286.986 88.98 287.463 89.045 287.844 89.175C288.225 89.305 288.529 89.4913 288.754 89.734C288.988 89.9767 289.153 90.2713 289.248 90.618C289.343 90.9647 289.391 91.3503 289.391 91.775V95.805C289.114 95.8657 288.728 95.935 288.234 96.013C287.74 96.0997 287.142 96.143 286.44 96.143C285.998 96.143 285.595 96.104 285.231 96.026C284.876 95.948 284.568 95.8223 284.308 95.649C284.048 95.467 283.849 95.233 283.71 94.947C283.571 94.661 283.502 94.31 283.502 93.894C283.502 93.4953 283.58 93.1573 283.736 92.88C283.901 92.6027 284.117 92.3817 284.386 92.217C284.655 92.0523 284.962 91.9353 285.309 91.866C285.656 91.788 286.015 91.749 286.388 91.749C286.639 91.749 286.86 91.762 287.051 91.788C287.25 91.8053 287.411 91.8313 287.532 91.866V91.684C287.532 91.3547 287.432 91.0903 287.233 90.891C287.034 90.6917 286.687 90.592 286.193 90.592C285.864 90.592 285.539 90.618 285.218 90.67C284.897 90.7133 284.62 90.7783 284.386 90.865L284.139 89.305C284.252 89.2703 284.39 89.2357 284.555 89.201C284.728 89.1577 284.915 89.123 285.114 89.097C285.313 89.0623 285.521 89.0363 285.738 89.019C285.963 88.993 286.189 88.98 286.414 88.98ZM295.263 90.878C295.09 90.8347 294.886 90.7913 294.652 90.748C294.418 90.696 294.167 90.67 293.898 90.67C293.777 90.67 293.63 90.683 293.456 90.709C293.292 90.7263 293.166 90.748 293.079 90.774V96H291.142V89.526C291.489 89.4047 291.896 89.292 292.364 89.188C292.841 89.0753 293.37 89.019 293.95 89.019C294.054 89.019 294.18 89.0277 294.327 89.045C294.475 89.0537 294.622 89.071 294.769 89.097C294.917 89.1143 295.064 89.1403 295.211 89.175C295.359 89.201 295.484 89.2357 295.588 89.279L295.263 90.878ZM296.175 92.581C296.175 92.087 296.253 91.6233 296.409 91.19C296.574 90.748 296.808 90.3667 297.111 90.046C297.414 89.7167 297.783 89.4567 298.216 89.266C298.649 89.0753 299.143 88.98 299.698 88.98C300.062 88.98 300.396 89.0147 300.699 89.084C301.002 89.1447 301.297 89.2357 301.583 89.357L301.18 90.904C300.998 90.8347 300.799 90.774 300.582 90.722C300.365 90.67 300.123 90.644 299.854 90.644C299.282 90.644 298.853 90.8217 298.567 91.177C298.29 91.5323 298.151 92.0003 298.151 92.581C298.151 93.1963 298.281 93.673 298.541 94.011C298.81 94.349 299.273 94.518 299.932 94.518C300.166 94.518 300.417 94.4963 300.686 94.453C300.955 94.4097 301.202 94.3403 301.427 94.245L301.7 95.831C301.475 95.9263 301.193 96.0087 300.855 96.078C300.517 96.1473 300.144 96.182 299.737 96.182C299.113 96.182 298.576 96.091 298.125 95.909C297.674 95.7183 297.302 95.4627 297.007 95.142C296.721 94.8213 296.509 94.4443 296.37 94.011C296.24 93.569 296.175 93.0923 296.175 92.581ZM303 96V86.224L304.937 85.912V89.188C305.067 89.1447 305.232 89.1057 305.431 89.071C305.639 89.0277 305.838 89.006 306.029 89.006C306.584 89.006 307.043 89.084 307.407 89.24C307.78 89.3873 308.074 89.5997 308.291 89.877C308.516 90.1543 308.672 90.4837 308.759 90.865C308.854 91.2463 308.902 91.671 308.902 92.139V96H306.965V92.373C306.965 91.749 306.883 91.307 306.718 91.047C306.562 90.787 306.267 90.657 305.834 90.657C305.661 90.657 305.496 90.6743 305.34 90.709C305.193 90.735 305.058 90.7653 304.937 90.8V96H303ZM319.94 96C319.845 95.688 319.736 95.3673 319.615 95.038C319.502 94.7087 319.39 94.3793 319.277 94.05H315.767C315.654 94.3793 315.537 94.7087 315.416 95.038C315.303 95.3673 315.199 95.688 315.104 96H312.998C313.336 95.0293 313.657 94.1323 313.96 93.309C314.263 92.4857 314.558 91.71 314.844 90.982C315.139 90.254 315.425 89.565 315.702 88.915C315.988 88.2563 316.283 87.615 316.586 86.991H318.523C318.818 87.615 319.108 88.2563 319.394 88.915C319.68 89.565 319.966 90.254 320.252 90.982C320.547 91.71 320.846 92.4857 321.149 93.309C321.452 94.1323 321.773 95.0293 322.111 96H319.94ZM317.509 89.032C317.466 89.162 317.401 89.3397 317.314 89.565C317.227 89.7903 317.128 90.0503 317.015 90.345C316.902 90.6397 316.777 90.9647 316.638 91.32C316.508 91.6753 316.374 92.048 316.235 92.438H318.796C318.657 92.048 318.523 91.6753 318.393 91.32C318.263 90.9647 318.137 90.6397 318.016 90.345C317.903 90.0503 317.804 89.7903 317.717 89.565C317.63 89.3397 317.561 89.162 317.509 89.032ZM324.659 92.529C324.659 93.127 324.793 93.608 325.062 93.972C325.33 94.336 325.729 94.518 326.258 94.518C326.431 94.518 326.591 94.5137 326.739 94.505C326.886 94.4877 327.007 94.4703 327.103 94.453V90.93C326.981 90.852 326.821 90.787 326.622 90.735C326.431 90.683 326.236 90.657 326.037 90.657C325.118 90.657 324.659 91.281 324.659 92.529ZM329.04 95.779C328.866 95.831 328.667 95.883 328.442 95.935C328.216 95.9783 327.978 96.0173 327.727 96.052C327.484 96.0867 327.233 96.1127 326.973 96.13C326.721 96.156 326.479 96.169 326.245 96.169C325.681 96.169 325.179 96.0867 324.737 95.922C324.295 95.7573 323.922 95.5233 323.619 95.22C323.315 94.908 323.081 94.5353 322.917 94.102C322.761 93.66 322.683 93.166 322.683 92.62C322.683 92.0653 322.752 91.567 322.891 91.125C323.029 90.6743 323.229 90.293 323.489 89.981C323.749 89.669 324.065 89.4307 324.438 89.266C324.819 89.1013 325.252 89.019 325.738 89.019C326.006 89.019 326.245 89.045 326.453 89.097C326.669 89.149 326.886 89.2227 327.103 89.318V86.224L329.04 85.912V95.779ZM332.816 94.609C333.172 94.609 333.423 94.5743 333.57 94.505C333.718 94.4357 333.791 94.3013 333.791 94.102C333.791 93.946 333.696 93.8117 333.505 93.699C333.315 93.5777 333.024 93.4433 332.634 93.296C332.331 93.1833 332.054 93.0663 331.802 92.945C331.56 92.8237 331.352 92.6807 331.178 92.516C331.005 92.3427 330.871 92.139 330.775 91.905C330.68 91.671 330.632 91.3893 330.632 91.06C330.632 90.4187 330.871 89.9117 331.347 89.539C331.824 89.1663 332.478 88.98 333.31 88.98C333.726 88.98 334.125 89.019 334.506 89.097C334.888 89.1663 335.191 89.2443 335.416 89.331L335.078 90.839C334.853 90.761 334.606 90.6917 334.337 90.631C334.077 90.5703 333.783 90.54 333.453 90.54C332.847 90.54 332.543 90.709 332.543 91.047C332.543 91.125 332.556 91.1943 332.582 91.255C332.608 91.3157 332.66 91.3763 332.738 91.437C332.816 91.489 332.92 91.5497 333.05 91.619C333.189 91.6797 333.362 91.749 333.57 91.827C333.995 91.983 334.346 92.139 334.623 92.295C334.901 92.4423 335.117 92.607 335.273 92.789C335.438 92.9623 335.551 93.1573 335.611 93.374C335.681 93.5907 335.715 93.842 335.715 94.128C335.715 94.804 335.46 95.3153 334.948 95.662C334.446 96.0087 333.731 96.182 332.803 96.182C332.197 96.182 331.69 96.13 331.282 96.026C330.884 95.922 330.606 95.8353 330.45 95.766L330.775 94.193C331.105 94.323 331.443 94.427 331.789 94.505C332.136 94.5743 332.478 94.609 332.816 94.609ZM342.184 90.358C342.184 90.748 342.058 91.047 341.807 91.255C341.564 91.4543 341.287 91.554 340.975 91.554C340.663 91.554 340.381 91.4543 340.13 91.255C339.887 91.047 339.766 90.748 339.766 90.358C339.766 89.968 339.887 89.6733 340.13 89.474C340.381 89.266 340.663 89.162 340.975 89.162C341.287 89.162 341.564 89.266 341.807 89.474C342.058 89.6733 342.184 89.968 342.184 90.358ZM342.184 94.973C342.184 95.363 342.058 95.662 341.807 95.87C341.564 96.0693 341.287 96.169 340.975 96.169C340.663 96.169 340.381 96.0693 340.13 95.87C339.887 95.662 339.766 95.363 339.766 94.973C339.766 94.583 339.887 94.2883 340.13 94.089C340.381 93.881 340.663 93.777 340.975 93.777C341.287 93.777 341.564 93.881 341.807 94.089C342.058 94.2883 342.184 94.583 342.184 94.973ZM347.255 93.348C347.255 93.0967 347.199 92.8757 347.086 92.685C346.974 92.4857 346.779 92.321 346.501 92.191C346.224 92.061 345.851 91.9613 345.383 91.892C344.915 91.8227 344.326 91.788 343.615 91.788C343.711 90.982 343.789 90.163 343.849 89.331C343.91 88.499 343.958 87.719 343.992 86.991H348.867V88.616H345.617C345.6 88.928 345.578 89.2313 345.552 89.526C345.535 89.812 345.513 90.0633 345.487 90.28C346.753 90.3667 347.684 90.6657 348.282 91.177C348.889 91.6797 349.192 92.3817 349.192 93.283C349.192 93.699 349.119 94.0847 348.971 94.44C348.824 94.7953 348.603 95.103 348.308 95.363C348.014 95.623 347.641 95.8267 347.19 95.974C346.748 96.1213 346.228 96.195 345.63 96.195C345.396 96.195 345.149 96.1777 344.889 96.143C344.638 96.117 344.391 96.078 344.148 96.026C343.914 95.9827 343.702 95.935 343.511 95.883C343.321 95.831 343.173 95.779 343.069 95.727L343.42 94.128C343.637 94.2233 343.923 94.3187 344.278 94.414C344.634 94.5007 345.058 94.544 345.552 94.544C346.15 94.544 346.584 94.427 346.852 94.193C347.121 93.9503 347.255 93.6687 347.255 93.348ZM356.854 93.491C356.854 93.881 356.785 94.2407 356.646 94.57C356.516 94.8907 356.317 95.1723 356.048 95.415C355.779 95.6577 355.441 95.8483 355.034 95.987C354.635 96.117 354.172 96.182 353.643 96.182C353.036 96.182 352.529 96.0997 352.122 95.935C351.723 95.7617 351.398 95.5493 351.147 95.298C350.904 95.0467 350.731 94.7737 350.627 94.479C350.523 94.1757 350.471 93.8983 350.471 93.647C350.471 93.387 350.506 93.1487 350.575 92.932C350.644 92.7153 350.74 92.5203 350.861 92.347C350.982 92.165 351.117 92.0003 351.264 91.853C351.42 91.7057 351.585 91.567 351.758 91.437C351.385 91.1337 351.108 90.8347 350.926 90.54C350.753 90.2453 350.666 89.8683 350.666 89.409C350.666 89.0623 350.735 88.7287 350.874 88.408C351.021 88.0873 351.225 87.81 351.485 87.576C351.745 87.3333 352.057 87.1427 352.421 87.004C352.794 86.8567 353.205 86.783 353.656 86.783C354.185 86.783 354.635 86.861 355.008 87.017C355.389 87.1643 355.701 87.355 355.944 87.589C356.187 87.823 356.36 88.0873 356.464 88.382C356.577 88.668 356.633 88.954 356.633 89.24C356.633 89.656 356.52 90.046 356.295 90.41C356.078 90.7653 355.805 91.047 355.476 91.255C355.97 91.5757 356.321 91.9137 356.529 92.269C356.746 92.6157 356.854 93.023 356.854 93.491ZM352.356 93.569C352.356 93.673 352.378 93.79 352.421 93.92C352.473 94.0413 352.551 94.154 352.655 94.258C352.759 94.362 352.893 94.4487 353.058 94.518C353.223 94.5873 353.422 94.622 353.656 94.622C354.107 94.622 354.436 94.5137 354.644 94.297C354.852 94.0803 354.956 93.8377 354.956 93.569C354.956 93.3697 354.908 93.192 354.813 93.036C354.726 92.88 354.605 92.7457 354.449 92.633C354.293 92.5117 354.107 92.4077 353.89 92.321C353.682 92.2257 353.457 92.139 353.214 92.061C352.971 92.243 352.768 92.4553 352.603 92.698C352.438 92.9407 352.356 93.231 352.356 93.569ZM354.761 89.292C354.761 89.1967 354.739 89.097 354.696 88.993C354.661 88.8803 354.596 88.7763 354.501 88.681C354.414 88.5857 354.302 88.5077 354.163 88.447C354.024 88.3777 353.855 88.343 353.656 88.343C353.465 88.343 353.301 88.3733 353.162 88.434C353.023 88.4947 352.906 88.577 352.811 88.681C352.724 88.7763 352.659 88.8803 352.616 88.993C352.573 89.1057 352.551 89.214 352.551 89.318C352.551 89.5953 352.651 89.8553 352.85 90.098C353.058 90.3407 353.409 90.5487 353.903 90.722C354.18 90.5487 354.393 90.3493 354.54 90.124C354.687 89.8987 354.761 89.6213 354.761 89.292ZM361.5 89.357C361.162 89.799 360.802 90.28 360.421 90.8C360.039 91.32 359.719 91.853 359.459 92.399H361.5V89.357ZM363.398 86.991V92.399H364.36V93.985H363.398V96H361.5V93.985H357.613V92.568C357.803 92.1867 358.042 91.7577 358.328 91.281C358.614 90.7957 358.93 90.3017 359.277 89.799C359.632 89.2877 360.005 88.7893 360.395 88.304C360.785 87.8187 361.175 87.381 361.565 86.991H363.398Z" fill="white"/>
<path d="M70 105C72.2091 105 74 103.209 74 101C74 98.7909 72.2091 97 70 97C67.7909 97 66 98.7909 66 101C66 103.209 67.7909 105 70 105Z" fill="#4267B2"/>
<path d="M13 126C15.2091 126 17 124.209 17 122C17 119.791 15.2091 118 13 118C10.7909 118 9 119.791 9 122C9 124.209 10.7909 126 13 126Z" fill="#4267B2"/>
<path d="M127 228C129.209 228 131 226.209 131 224C131 221.791 129.209 220 127 220C124.791 220 123 221.791 123 224C123 226.209 124.791 228 127 228Z" fill="#4267B2"/>
<path d="M184 192C186.209 192 188 190.209 188 188C188 185.791 186.209 184 184 184C181.791 184 180 185.791 180 188C180 190.209 181.791 192 184 192Z" fill="#4267B2"/>
<path d="M241 203C243.209 203 245 201.209 245 199C245 196.791 243.209 195 241 195C238.791 195 237 196.791 237 199C237 201.209 238.791 203 241 203Z" fill="#4267B2"/>
<path d="M298 134C300.209 134 302 132.209 302 130C302 127.791 300.209 126 298 126C295.791 126 294 127.791 294 130C294 132.209 295.791 134 298 134Z" fill="#4267B2"/>
<path d="M355 142C357.209 142 359 140.209 359 138C359 135.791 357.209 134 355 134C352.791 134 351 135.791 351 138C351 140.209 352.791 142 355 142Z" fill="#4267B2"/>
<path d="M412 51C414.209 51 416 49.2091 416 47C416 44.7909 414.209 43 412 43C409.791 43 408 44.7909 408 47C408 49.2091 409.791 51 412 51Z" fill="#4267B2"/>
<path d="M473 20C475.209 20 477 18.2091 477 16C477 13.7909 475.209 12 473 12C470.791 12 469 13.7909 469 16C469 18.2091 470.791 20 473 20Z" fill="#4267B2"/>
<path d="M13 122C13 122 40 101 70 101C100 101 97 224.5 127 224.5C157 224.5 154 187.5 184 187.5C214 187.5 211 199.5 241 199.5C271 199.5 268 130 298 130C328 130 325 138.5 355 138.5C385 138.5 382 47 412 47C442 47 473 16 473 16" stroke="#4267B2" stroke-width="2"/>
<path d="M127 94C133.627 94 139 88.6274 139 82C139 75.3726 133.627 70 127 70C120.373 70 115 75.3726 115 82C115 88.6274 120.373 94 127 94Z" fill="#BCECCC"/>
<g filter="url(#filter0_d)">
<path fill-rule="evenodd" clip-rule="evenodd" d="M82 27C77.582 27 74 30.5817 74 35V52C74 56.4183 77.582 60 82 60H119L127 67L135 60H171C175.418 60 179 56.4183 179 52V35C179 30.5817 175.418 27 171 27H82Z" fill="#20BF55"/>
</g>
<path d="M87.018 43.489C87.018 43.931 87.07 44.3297 87.174 44.685C87.287 45.0403 87.443 45.348 87.642 45.608C87.85 45.8593 88.102 46.0543 88.396 46.193C88.691 46.3317 89.029 46.401 89.41 46.401C89.783 46.401 90.117 46.3317 90.411 46.193C90.715 46.0543 90.966 45.8593 91.165 45.608C91.373 45.348 91.529 45.0403 91.633 44.685C91.746 44.3297 91.802 43.931 91.802 43.489C91.802 43.047 91.746 42.6483 91.633 42.293C91.529 41.929 91.373 41.6213 91.165 41.37C90.966 41.11 90.715 40.9107 90.411 40.772C90.117 40.6333 89.783 40.564 89.41 40.564C89.029 40.564 88.691 40.6377 88.396 40.785C88.102 40.9237 87.85 41.123 87.642 41.383C87.443 41.6343 87.287 41.942 87.174 42.306C87.07 42.6613 87.018 43.0557 87.018 43.489ZM93.895 43.489C93.895 44.2603 93.778 44.9407 93.544 45.53C93.319 46.1107 93.007 46.6003 92.608 46.999C92.21 47.389 91.733 47.6837 91.178 47.883C90.632 48.0823 90.043 48.182 89.41 48.182C88.795 48.182 88.214 48.0823 87.668 47.883C87.122 47.6837 86.646 47.389 86.238 46.999C85.831 46.6003 85.51 46.1107 85.276 45.53C85.042 44.9407 84.925 44.2603 84.925 43.489C84.925 42.7177 85.047 42.0417 85.289 41.461C85.532 40.8717 85.857 40.3777 86.264 39.979C86.68 39.5803 87.157 39.2813 87.694 39.082C88.24 38.8827 88.812 38.783 89.41 38.783C90.026 38.783 90.606 38.8827 91.152 39.082C91.698 39.2813 92.175 39.5803 92.582 39.979C92.99 40.3777 93.31 40.8717 93.544 41.461C93.778 42.0417 93.895 42.7177 93.895 43.489ZM99.577 42.878C99.404 42.8347 99.2 42.7913 98.966 42.748C98.732 42.696 98.481 42.67 98.212 42.67C98.091 42.67 97.943 42.683 97.77 42.709C97.605 42.7263 97.48 42.748 97.393 42.774V48H95.456V41.526C95.803 41.4047 96.21 41.292 96.678 41.188C97.155 41.0753 97.683 41.019 98.264 41.019C98.368 41.019 98.494 41.0277 98.641 41.045C98.788 41.0537 98.936 41.071 99.083 41.097C99.23 41.1143 99.378 41.1403 99.525 41.175C99.672 41.201 99.798 41.2357 99.902 41.279L99.577 42.878ZM102.464 44.36C102.464 45.4433 102.902 45.985 103.777 45.985C103.977 45.985 104.163 45.959 104.336 45.907C104.51 45.855 104.657 45.7943 104.778 45.725V42.631C104.683 42.6137 104.57 42.6007 104.44 42.592C104.31 42.5747 104.159 42.566 103.985 42.566C103.474 42.566 103.093 42.735 102.841 43.073C102.59 43.411 102.464 43.84 102.464 44.36ZM106.715 47.142C106.715 48.26 106.429 49.0877 105.857 49.625C105.294 50.171 104.419 50.444 103.231 50.444C102.815 50.444 102.399 50.405 101.983 50.327C101.567 50.2577 101.182 50.1623 100.826 50.041L101.164 48.416C101.468 48.5373 101.784 48.6327 102.113 48.702C102.451 48.7713 102.833 48.806 103.257 48.806C103.812 48.806 104.202 48.6847 104.427 48.442C104.661 48.1993 104.778 47.8873 104.778 47.506V47.259C104.57 47.3543 104.354 47.428 104.128 47.48C103.912 47.5233 103.673 47.545 103.413 47.545C102.469 47.545 101.745 47.2677 101.242 46.713C100.74 46.1497 100.488 45.3653 100.488 44.36C100.488 43.8573 100.566 43.4023 100.722 42.995C100.878 42.579 101.104 42.2237 101.398 41.929C101.702 41.6343 102.07 41.409 102.503 41.253C102.937 41.0883 103.426 41.006 103.972 41.006C104.206 41.006 104.445 41.019 104.687 41.045C104.939 41.0623 105.186 41.0883 105.428 41.123C105.671 41.1577 105.901 41.201 106.117 41.253C106.343 41.2963 106.542 41.344 106.715 41.396V47.142ZM111.145 46.648C111.336 46.648 111.518 46.6437 111.691 46.635C111.864 46.6263 112.003 46.6133 112.107 46.596V45.127C112.029 45.1097 111.912 45.0923 111.756 45.075C111.6 45.0577 111.457 45.049 111.327 45.049C111.145 45.049 110.972 45.062 110.807 45.088C110.651 45.1053 110.512 45.1443 110.391 45.205C110.27 45.2657 110.174 45.348 110.105 45.452C110.036 45.556 110.001 45.686 110.001 45.842C110.001 46.1453 110.101 46.3577 110.3 46.479C110.508 46.5917 110.79 46.648 111.145 46.648ZM110.989 40.98C111.561 40.98 112.038 41.045 112.419 41.175C112.8 41.305 113.104 41.4913 113.329 41.734C113.563 41.9767 113.728 42.2713 113.823 42.618C113.918 42.9647 113.966 43.3503 113.966 43.775V47.805C113.689 47.8657 113.303 47.935 112.809 48.013C112.315 48.0997 111.717 48.143 111.015 48.143C110.573 48.143 110.17 48.104 109.806 48.026C109.451 47.948 109.143 47.8223 108.883 47.649C108.623 47.467 108.424 47.233 108.285 46.947C108.146 46.661 108.077 46.31 108.077 45.894C108.077 45.4953 108.155 45.1573 108.311 44.88C108.476 44.6027 108.692 44.3817 108.961 44.217C109.23 44.0523 109.537 43.9353 109.884 43.866C110.231 43.788 110.59 43.749 110.963 43.749C111.214 43.749 111.435 43.762 111.626 43.788C111.825 43.8053 111.986 43.8313 112.107 43.866V43.684C112.107 43.3547 112.007 43.0903 111.808 42.891C111.609 42.6917 111.262 42.592 110.768 42.592C110.439 42.592 110.114 42.618 109.793 42.67C109.472 42.7133 109.195 42.7783 108.961 42.865L108.714 41.305C108.827 41.2703 108.965 41.2357 109.13 41.201C109.303 41.1577 109.49 41.123 109.689 41.097C109.888 41.0623 110.096 41.0363 110.313 41.019C110.538 40.993 110.764 40.98 110.989 40.98ZM115.718 41.396C116.047 41.3007 116.472 41.214 116.992 41.136C117.512 41.0493 118.058 41.006 118.63 41.006C119.21 41.006 119.691 41.084 120.073 41.24C120.463 41.3873 120.77 41.5997 120.996 41.877C121.221 42.1543 121.381 42.4837 121.477 42.865C121.572 43.2463 121.62 43.671 121.62 44.139V48H119.683V44.373C119.683 43.749 119.6 43.307 119.436 43.047C119.271 42.787 118.963 42.657 118.513 42.657C118.374 42.657 118.227 42.6657 118.071 42.683C117.915 42.6917 117.776 42.7047 117.655 42.722V48H115.718V41.396ZM125.31 48H123.373V41.162H125.31V48ZM125.492 39.186C125.492 39.5413 125.375 39.823 125.141 40.031C124.916 40.2303 124.647 40.33 124.335 40.33C124.023 40.33 123.75 40.2303 123.516 40.031C123.291 39.823 123.178 39.5413 123.178 39.186C123.178 38.8307 123.291 38.5533 123.516 38.354C123.75 38.146 124.023 38.042 124.335 38.042C124.647 38.042 124.916 38.146 125.141 38.354C125.375 38.5533 125.492 38.8307 125.492 39.186ZM126.806 44.581C126.806 44.087 126.884 43.6233 127.04 43.19C127.204 42.748 127.438 42.3667 127.742 42.046C128.045 41.7167 128.413 41.4567 128.847 41.266C129.28 41.0753 129.774 40.98 130.329 40.98C130.693 40.98 131.026 41.0147 131.33 41.084C131.633 41.1447 131.928 41.2357 132.214 41.357L131.811 42.904C131.629 42.8347 131.429 42.774 131.213 42.722C130.996 42.67 130.753 42.644 130.485 42.644C129.913 42.644 129.484 42.8217 129.198 43.177C128.92 43.5323 128.782 44.0003 128.782 44.581C128.782 45.1963 128.912 45.673 129.172 46.011C129.44 46.349 129.904 46.518 130.563 46.518C130.797 46.518 131.048 46.4963 131.317 46.453C131.585 46.4097 131.832 46.3403 132.058 46.245L132.331 47.831C132.105 47.9263 131.824 48.0087 131.486 48.078C131.148 48.1473 130.775 48.182 130.368 48.182C129.744 48.182 129.206 48.091 128.756 47.909C128.305 47.7183 127.932 47.4627 127.638 47.142C127.352 46.8213 127.139 46.4443 127.001 46.011C126.871 45.569 126.806 45.0923 126.806 44.581ZM135.656 42.358C135.656 42.748 135.53 43.047 135.279 43.255C135.036 43.4543 134.759 43.554 134.447 43.554C134.135 43.554 133.853 43.4543 133.602 43.255C133.359 43.047 133.238 42.748 133.238 42.358C133.238 41.968 133.359 41.6733 133.602 41.474C133.853 41.266 134.135 41.162 134.447 41.162C134.759 41.162 135.036 41.266 135.279 41.474C135.53 41.6733 135.656 41.968 135.656 42.358ZM135.656 46.973C135.656 47.363 135.53 47.662 135.279 47.87C135.036 48.0693 134.759 48.169 134.447 48.169C134.135 48.169 133.853 48.0693 133.602 47.87C133.359 47.662 133.238 47.363 133.238 46.973C133.238 46.583 133.359 46.2883 133.602 46.089C133.853 45.881 134.135 45.777 134.447 45.777C134.759 45.777 135.036 45.881 135.279 46.089C135.53 46.2883 135.656 46.583 135.656 46.973ZM142.043 47.87C141.41 47.818 140.895 47.7227 140.496 47.584C140.106 47.4367 139.816 47.3153 139.625 47.22L140.184 45.725C140.487 45.8723 140.847 46.0067 141.263 46.128C141.688 46.2493 142.134 46.31 142.602 46.31C143.131 46.31 143.49 46.2407 143.681 46.102C143.88 45.9547 143.98 45.751 143.98 45.491C143.98 45.3263 143.941 45.1877 143.863 45.075C143.785 44.9537 143.672 44.8453 143.525 44.75C143.378 44.6547 143.191 44.5637 142.966 44.477C142.741 44.3817 142.481 44.282 142.186 44.178C141.9 44.074 141.618 43.9613 141.341 43.84C141.072 43.71 140.825 43.554 140.6 43.372C140.383 43.19 140.206 42.969 140.067 42.709C139.937 42.4403 139.872 42.1197 139.872 41.747C139.872 41.461 139.911 41.188 139.989 40.928C140.076 40.6593 140.206 40.4167 140.379 40.2C140.552 39.9833 140.778 39.8013 141.055 39.654C141.332 39.498 141.662 39.3853 142.043 39.316V37.912H143.681V39.264C144.132 39.3073 144.517 39.3723 144.838 39.459C145.167 39.5457 145.427 39.6323 145.618 39.719L145.215 41.279C144.929 41.1577 144.595 41.0537 144.214 40.967C143.841 40.8803 143.447 40.837 143.031 40.837C142.615 40.837 142.316 40.9063 142.134 41.045C141.952 41.1837 141.861 41.3657 141.861 41.591C141.861 41.7297 141.887 41.851 141.939 41.955C142 42.0503 142.091 42.137 142.212 42.215C142.333 42.293 142.481 42.371 142.654 42.449C142.836 42.5183 143.053 42.5963 143.304 42.683C143.685 42.8217 144.036 42.9733 144.357 43.138C144.686 43.3027 144.968 43.4933 145.202 43.71C145.445 43.918 145.631 44.165 145.761 44.451C145.9 44.737 145.969 45.0707 145.969 45.452C145.969 45.712 145.93 45.972 145.852 46.232C145.774 46.4833 145.644 46.7173 145.462 46.934C145.28 47.1507 145.042 47.337 144.747 47.493C144.461 47.649 144.106 47.7617 143.681 47.831V49.417H142.043V47.87ZM150.121 43.762C149.93 43.762 149.726 43.7793 149.51 43.814C149.293 43.8487 149.124 43.8963 149.003 43.957C149.003 43.9917 148.998 44.0437 148.99 44.113C148.99 44.1823 148.99 44.243 148.99 44.295C148.99 44.607 149.011 44.9017 149.055 45.179C149.098 45.4563 149.172 45.699 149.276 45.907C149.38 46.115 149.518 46.2797 149.692 46.401C149.865 46.5137 150.082 46.57 150.342 46.57C150.558 46.57 150.74 46.5267 150.888 46.44C151.044 46.3447 151.169 46.2277 151.265 46.089C151.369 45.9503 151.442 45.7987 151.486 45.634C151.538 45.4607 151.564 45.296 151.564 45.14C151.564 44.698 151.451 44.36 151.226 44.126C151.009 43.8833 150.641 43.762 150.121 43.762ZM150.368 42.254C150.931 42.254 151.408 42.332 151.798 42.488C152.196 42.6353 152.521 42.839 152.773 43.099C153.024 43.359 153.206 43.6623 153.319 44.009C153.431 44.3557 153.488 44.724 153.488 45.114C153.488 45.4607 153.423 45.816 153.293 46.18C153.171 46.544 152.981 46.8733 152.721 47.168C152.469 47.4627 152.144 47.7053 151.746 47.896C151.356 48.0867 150.892 48.182 150.355 48.182C149.271 48.182 148.448 47.8397 147.885 47.155C147.321 46.4703 147.04 45.5257 147.04 44.321C147.04 43.4543 147.174 42.6873 147.443 42.02C147.711 41.3527 148.093 40.7937 148.587 40.343C149.089 39.8837 149.692 39.537 150.394 39.303C151.104 39.0603 151.902 38.9347 152.786 38.926C152.803 39.1947 152.82 39.459 152.838 39.719C152.855 39.9703 152.872 40.2347 152.89 40.512C152.448 40.5207 152.032 40.564 151.642 40.642C151.26 40.7113 150.909 40.824 150.589 40.98C150.277 41.136 150.004 41.3397 149.77 41.591C149.536 41.8337 149.354 42.1327 149.224 42.488C149.414 42.4013 149.609 42.3407 149.809 42.306C150.008 42.2713 150.194 42.254 150.368 42.254ZM160.889 43.476C160.889 44.9927 160.599 46.1583 160.018 46.973C159.446 47.779 158.653 48.182 157.639 48.182C156.625 48.182 155.828 47.779 155.247 46.973C154.675 46.1583 154.389 44.9927 154.389 43.476C154.389 42.722 154.463 42.0547 154.61 41.474C154.766 40.8933 154.987 40.4037 155.273 40.005C155.559 39.6063 155.902 39.303 156.3 39.095C156.699 38.887 157.145 38.783 157.639 38.783C158.653 38.783 159.446 39.1903 160.018 40.005C160.599 40.811 160.889 41.968 160.889 43.476ZM158.913 43.476C158.913 43.0253 158.892 42.618 158.848 42.254C158.805 41.8813 158.736 41.5607 158.64 41.292C158.545 41.0233 158.415 40.8153 158.25 40.668C158.086 40.5207 157.882 40.447 157.639 40.447C157.397 40.447 157.193 40.5207 157.028 40.668C156.872 40.8153 156.742 41.0233 156.638 41.292C156.543 41.5607 156.474 41.8813 156.43 42.254C156.387 42.618 156.365 43.0253 156.365 43.476C156.365 43.9267 156.387 44.3383 156.43 44.711C156.474 45.0837 156.543 45.4043 156.638 45.673C156.742 45.9417 156.872 46.1497 157.028 46.297C157.193 46.4443 157.397 46.518 157.639 46.518C157.882 46.518 158.086 46.4443 158.25 46.297C158.415 46.1497 158.545 45.9417 158.64 45.673C158.736 45.4043 158.805 45.0837 158.848 44.711C158.892 44.3383 158.913 43.9267 158.913 43.476ZM162.246 40.863C162.497 40.759 162.757 40.642 163.026 40.512C163.303 40.3733 163.572 40.226 163.832 40.07C164.092 39.9053 164.339 39.7363 164.573 39.563C164.816 39.381 165.032 39.1903 165.223 38.991H166.575V48H164.638V41.513C164.378 41.6863 164.088 41.8467 163.767 41.994C163.446 42.1327 163.134 42.254 162.831 42.358L162.246 40.863Z" fill="white"/>
<path d="M70 188C72.2091 188 74 186.209 74 184C74 181.791 72.2091 180 70 180C67.7909 180 66 181.791 66 184C66 186.209 67.7909 188 70 188Z" fill="#20BF55"/>
<path d="M13 159C15.2091 159 17 157.209 17 155C17 152.791 15.2091 151 13 151C10.7909 151 9 152.791 9 155C9 157.209 10.7909 159 13 159Z" fill="#20BF55"/>
<path d="M127 86C129.209 86 131 84.2091 131 82C131 79.7909 129.209 78 127 78C124.791 78 123 79.7909 123 82C123 84.2091 124.791 86 127 86Z" fill="#20BF55"/>
<path d="M184 144C186.209 144 188 142.209 188 140C188 137.791 186.209 136 184 136C181.791 136 180 137.791 180 140C180 142.209 181.791 144 184 144Z" fill="#20BF55"/>
<path d="M241 286C243.209 286 245 284.209 245 282C245 279.791 243.209 278 241 278C238.791 278 237 279.791 237 282C237 284.209 238.791 286 241 286Z" fill="#20BF55"/>
<path d="M298 237C300.209 237 302 235.209 302 233C302 230.791 300.209 229 298 229C295.791 229 294 230.791 294 233C294 235.209 295.791 237 298 237Z" fill="#20BF55"/>
<path d="M355 225C357.209 225 359 223.209 359 221C359 218.791 357.209 217 355 217C352.791 217 351 218.791 351 221C351 223.209 352.791 225 355 225Z" fill="#20BF55"/>
<path d="M412 163C414.209 163 416 161.209 416 159C416 156.791 414.209 155 412 155C409.791 155 408 156.791 408 159C408 161.209 409.791 163 412 163Z" fill="#20BF55"/>
<path d="M473 201C475.209 201 477 199.209 477 197C477 194.791 475.209 193 473 193C470.791 193 469 194.791 469 197C469 199.209 470.791 201 473 201Z" fill="#20BF55"/>
<path d="M13 155C13 155 40 184 70 184C100 184 97 82 127 82C157 82 154 140 184 140C214 140 211 282 241 282C271 282 268 233 298 233C328 233 325 221 355 221C385 221 382 159 412 159C442 159 473 197 473 197" stroke="#20BF55" stroke-width="2"/>
</g>
<defs>
<filter id="filter0_d" x="64" y="17" width="125" height="60" filterUnits="userSpaceOnUse" color-interpolation-filters="sRGB">
<feFlood flood-opacity="0" result="BackgroundImageFix"/>
<feColorMatrix in="SourceAlpha" type="matrix" values="0 0 0 0 0 0 0 0 0 0 0 0 0 0 0 0 0 0 127 0"/>
<feOffset/>
<feGaussianBlur stdDeviation="5"/>
<feColorMatrix type="matrix" values="0 0 0 0 0.258824 0 0 0 0 0.403922 0 0 0 0 0.698039 0 0 0 0.3 0"/>
<feBlend mode="normal" in2="BackgroundImageFix" result="effect1_dropShadow"/>
<feBlend mode="normal" in="SourceGraphic" in2="effect1_dropShadow" result="shape"/>
</filter>
<clipPath id="clip0">
<rect width="488" height="300" fill="white"/>
</clipPath>
</defs>
</svg>
