<svg width="540" height="170" viewBox="0 0 540 170" fill="none" xmlns="http://www.w3.org/2000/svg">
<rect x="57.5" y="34.5" width="425" height="130" rx="3.5" fill="white"/>
<path d="M291.584 92.128L292.568 90.856C293.112 91.4 293.784 91.848 294.584 92.2C295.384 92.536 296.184 92.704 296.984 92.704C297.944 92.704 298.744 92.44 299.384 91.912C300.024 91.368 300.344 90.656 300.344 89.776C300.344 89.024 300.048 88.384 299.456 87.856C298.88 87.312 298.176 86.864 297.344 86.512C296.512 86.144 295.68 85.768 294.848 85.384C294.016 85 293.304 84.472 292.712 83.8C292.136 83.128 291.848 82.32 291.848 81.376C291.848 80.256 292.256 79.272 293.072 78.424C293.888 77.576 294.952 77.072 296.264 76.912V74.632H297.608V76.888C299.208 76.968 300.544 77.496 301.616 78.472L300.8 79.864C300.336 79.432 299.768 79.088 299.096 78.832C298.424 78.56 297.76 78.424 297.104 78.424C296.064 78.424 295.208 78.712 294.536 79.288C293.88 79.864 293.552 80.544 293.552 81.328C293.552 82.032 293.84 82.64 294.416 83.152C295.008 83.648 295.72 84.072 296.552 84.424C297.384 84.76 298.216 85.128 299.048 85.528C299.88 85.912 300.584 86.456 301.16 87.16C301.752 87.864 302.048 88.72 302.048 89.728C302.048 90.928 301.648 91.952 300.848 92.8C300.048 93.632 298.968 94.112 297.608 94.24V96.472H296.264V94.24C294.344 94.096 292.784 93.392 291.584 92.128ZM305.009 94V92.512H308.801V80.128L308.825 79.192H308.777C308.665 79.416 308.385 79.752 307.937 80.2L306.137 81.976L305.081 80.92L308.897 77.128H310.433V92.512H314.153V94H305.009ZM322.353 94.288C320.305 94.288 318.825 93.496 317.913 91.912C317.001 90.328 316.545 88.208 316.545 85.552C316.545 84.288 316.641 83.152 316.833 82.144C317.041 81.12 317.361 80.2 317.793 79.384C318.241 78.568 318.849 77.944 319.617 77.512C320.385 77.064 321.297 76.84 322.353 76.84C323.761 76.84 324.913 77.24 325.809 78.04C326.705 78.84 327.321 79.864 327.657 81.112C328.009 82.36 328.185 83.84 328.185 85.552C328.185 86.832 328.081 87.984 327.873 89.008C327.681 90.016 327.361 90.928 326.913 91.744C326.481 92.544 325.881 93.168 325.113 93.616C324.345 94.064 323.425 94.288 322.353 94.288ZM322.353 92.728C323.377 92.728 324.201 92.4 324.825 91.744C325.465 91.088 325.897 90.256 326.121 89.248C326.345 88.24 326.457 87.008 326.457 85.552C326.457 84.496 326.393 83.56 326.265 82.744C326.137 81.912 325.921 81.168 325.617 80.512C325.313 79.84 324.889 79.328 324.345 78.976C323.801 78.608 323.137 78.424 322.353 78.424C319.633 78.424 318.273 80.8 318.273 85.552C318.273 87.792 318.577 89.552 319.185 90.832C319.809 92.096 320.865 92.728 322.353 92.728ZM332.245 94L339.061 80.176L339.973 78.616V78.568C339.701 78.6 339.285 78.616 338.725 78.616H330.829V77.128H341.797V78.28L333.973 94H332.245ZM342.448 94V92.008H344.416V94H342.448ZM347.619 89.248C347.619 88.608 347.731 88.008 347.955 87.448C348.179 86.872 348.467 86.384 348.819 85.984C349.171 85.584 349.475 85.28 349.731 85.072C349.987 84.864 350.235 84.68 350.475 84.52C349.115 83.624 348.435 82.504 348.435 81.16C348.435 79.96 348.883 78.944 349.779 78.112C350.675 77.264 351.931 76.84 353.547 76.84C355.099 76.84 356.347 77.248 357.291 78.064C358.235 78.864 358.707 79.912 358.707 81.208C358.707 81.896 358.547 82.6 358.227 83.32C357.907 84.024 357.603 84.552 357.315 84.904C357.043 85.256 356.779 85.56 356.523 85.816C358.123 86.744 358.923 87.944 358.923 89.416C358.923 90.76 358.395 91.912 357.339 92.872C356.283 93.816 354.947 94.288 353.331 94.288C351.763 94.288 350.419 93.824 349.299 92.896C348.179 91.952 347.619 90.736 347.619 89.248ZM355.155 85.144C356.403 83.896 357.027 82.624 357.027 81.328C357.027 80.416 356.699 79.696 356.043 79.168C355.403 78.64 354.563 78.376 353.523 78.376C352.483 78.376 351.651 78.64 351.027 79.168C350.419 79.696 350.115 80.352 350.115 81.136C350.115 81.488 350.187 81.824 350.331 82.144C350.491 82.448 350.675 82.704 350.883 82.912C351.091 83.12 351.387 83.344 351.771 83.584C352.171 83.808 352.507 83.984 352.779 84.112C353.067 84.24 353.467 84.416 353.979 84.64C354.507 84.848 354.899 85.016 355.155 85.144ZM349.347 89.128C349.347 90.184 349.747 91.056 350.547 91.744C351.347 92.416 352.267 92.752 353.307 92.752C354.331 92.752 355.235 92.44 356.019 91.816C356.819 91.176 357.219 90.384 357.219 89.44C357.219 89.008 357.115 88.616 356.907 88.264C356.715 87.912 356.403 87.592 355.971 87.304C355.555 87.016 355.163 86.784 354.795 86.608C354.443 86.432 353.939 86.208 353.283 85.936C352.627 85.664 352.139 85.448 351.819 85.288C350.171 86.312 349.347 87.592 349.347 89.128ZM361.653 91.984L362.685 90.712C363.197 91.272 363.837 91.744 364.605 92.128C365.373 92.496 366.173 92.68 367.005 92.68C368.045 92.68 368.941 92.344 369.693 91.672C370.461 90.984 370.845 90.112 370.845 89.056C370.845 87.92 370.429 87.04 369.597 86.416C368.781 85.776 367.789 85.456 366.621 85.456H365.445L365.037 84.472L369.261 79.528L370.149 78.592V78.544C369.829 78.592 369.373 78.616 368.781 78.616H362.445V77.128H372.309V78.232L367.293 84.04C367.869 84.072 368.445 84.184 369.021 84.376C369.597 84.552 370.157 84.824 370.701 85.192C371.245 85.544 371.685 86.056 372.021 86.728C372.373 87.384 372.549 88.144 372.549 89.008C372.549 90.464 372.021 91.712 370.965 92.752C369.909 93.776 368.589 94.288 367.005 94.288C366.029 94.288 365.069 94.088 364.125 93.688C363.181 93.272 362.357 92.704 361.653 91.984Z" fill="#39434E"/>
<path d="M290.756 61.002C290.756 59.5927 291.232 58.4073 292.184 57.446C293.145 56.4753 294.34 55.99 295.768 55.99C297.205 55.99 298.4 56.4707 299.352 57.432C300.304 58.3933 300.78 59.5833 300.78 61.002C300.78 62.458 300.304 63.6853 299.352 64.684C298.4 65.6733 297.205 66.168 295.768 66.168C294.34 66.168 293.145 65.6733 292.184 64.684C291.232 63.6853 290.756 62.458 290.756 61.002ZM291.764 61.002C291.764 62.206 292.142 63.2187 292.898 64.04C293.663 64.852 294.62 65.258 295.768 65.258C296.916 65.258 297.868 64.852 298.624 64.04C299.389 63.228 299.772 62.2153 299.772 61.002C299.772 59.8353 299.389 58.86 298.624 58.076C297.868 57.292 296.916 56.9 295.768 56.9C294.62 56.9 293.663 57.292 292.898 58.076C292.142 58.86 291.764 59.8353 291.764 61.002ZM302.605 66V58.958H303.543V60.26L303.487 60.82H303.515C303.701 60.26 303.991 59.798 304.383 59.434C304.784 59.07 305.246 58.888 305.769 58.888C305.909 58.888 306.035 58.902 306.147 58.93V59.868C306.091 59.8493 305.974 59.84 305.797 59.84C305.302 59.84 304.877 60.0127 304.523 60.358C304.168 60.7033 303.916 61.1093 303.767 61.576C303.627 62.0333 303.557 62.514 303.557 63.018V66H302.605ZM307.95 67.596C308.566 67.9133 309.205 68.072 309.868 68.072C310.605 68.072 311.198 67.89 311.646 67.526C312.094 67.1713 312.318 66.6207 312.318 65.874V65.174L312.374 64.656H312.346C311.888 65.524 311.142 65.958 310.106 65.958C309.163 65.958 308.402 65.622 307.824 64.95C307.254 64.278 306.97 63.41 306.97 62.346C306.97 61.282 307.245 60.4233 307.796 59.77C308.346 59.1167 309.088 58.79 310.022 58.79C310.526 58.79 310.988 58.8927 311.408 59.098C311.837 59.3033 312.154 59.6113 312.36 60.022H312.388C312.369 59.966 312.36 59.8867 312.36 59.784V58.958H313.284V65.832C313.284 66.8773 312.957 67.6567 312.304 68.17C311.66 68.6833 310.857 68.94 309.896 68.94C309.084 68.94 308.318 68.7487 307.6 68.366L307.95 67.596ZM308.51 60.358C308.127 60.834 307.936 61.492 307.936 62.332C307.936 63.172 308.146 63.844 308.566 64.348C308.986 64.852 309.546 65.104 310.246 65.104C310.871 65.104 311.375 64.8893 311.758 64.46C312.15 64.0213 312.346 63.3167 312.346 62.346C312.346 60.5447 311.604 59.644 310.12 59.644C309.438 59.644 308.902 59.882 308.51 60.358ZM314.936 64.11C314.936 62.4767 316.364 61.66 319.22 61.66H319.64V61.464C319.64 60.2507 319.061 59.644 317.904 59.644C317.185 59.644 316.518 59.868 315.902 60.316L315.468 59.588C315.748 59.3453 316.117 59.154 316.574 59.014C317.031 58.8647 317.493 58.79 317.96 58.79C318.809 58.79 319.458 59.0233 319.906 59.49C320.363 59.9473 320.592 60.6147 320.592 61.492V66H319.682V65.174L319.724 64.586H319.696C319.5 65.034 319.187 65.412 318.758 65.72C318.338 66.0187 317.857 66.168 317.316 66.168C316.672 66.168 316.112 65.986 315.636 65.622C315.169 65.258 314.936 64.754 314.936 64.11ZM315.902 64.026C315.902 64.3807 316.042 64.6933 316.322 64.964C316.602 65.2347 316.989 65.37 317.484 65.37C318.128 65.37 318.646 65.0993 319.038 64.558C319.439 64.0167 319.64 63.41 319.64 62.738V62.416H319.234C318.935 62.416 318.674 62.4207 318.45 62.43C318.235 62.4393 317.951 62.4767 317.596 62.542C317.251 62.598 316.966 62.6773 316.742 62.78C316.518 62.8827 316.322 63.0413 316.154 63.256C315.986 63.4707 315.902 63.7273 315.902 64.026ZM322.784 66V58.958H323.722V60.064L323.666 60.624H323.694C323.872 60.1947 324.203 59.784 324.688 59.392C325.183 58.9907 325.799 58.79 326.536 58.79C327.386 58.79 327.992 59.0187 328.356 59.476C328.72 59.9333 328.902 60.6147 328.902 61.52V66H327.95V61.772C327.95 61.1093 327.848 60.596 327.642 60.232C327.437 59.868 327.026 59.686 326.41 59.686C325.654 59.686 325.02 59.9613 324.506 60.512C323.993 61.0627 323.736 61.744 323.736 62.556V66H322.784ZM331.055 57.348V56.158H332.091V57.348H331.055ZM331.097 66V58.958H332.049V66H331.097ZM333.847 62.486C333.847 61.4127 334.202 60.5307 334.911 59.84C335.621 59.14 336.498 58.79 337.543 58.79C338.029 58.79 338.505 58.8787 338.971 59.056C339.438 59.224 339.821 59.4713 340.119 59.798L339.629 60.512C339.377 60.2507 339.065 60.0407 338.691 59.882C338.327 59.7233 337.954 59.644 337.571 59.644C336.787 59.644 336.134 59.91 335.611 60.442C335.089 60.974 334.827 61.6553 334.827 62.486C334.827 63.3073 335.089 63.984 335.611 64.516C336.143 65.0387 336.806 65.3 337.599 65.3C338.01 65.3 338.421 65.216 338.831 65.048C339.242 64.8707 339.583 64.6327 339.853 64.334L340.287 65.048C339.979 65.3933 339.578 65.6687 339.083 65.874C338.598 66.07 338.085 66.168 337.543 66.168C336.489 66.168 335.607 65.8273 334.897 65.146C334.197 64.4553 333.847 63.5687 333.847 62.486Z" fill="#39434E"/>
<path d="M185.104 155V146.026H181.576V145.158H189.612V146.026H186.07V155H185.104ZM190.092 150.002C190.092 148.593 190.568 147.407 191.52 146.446C192.481 145.475 193.676 144.99 195.104 144.99C196.541 144.99 197.736 145.471 198.688 146.432C199.64 147.393 200.116 148.583 200.116 150.002C200.116 151.458 199.64 152.685 198.688 153.684C197.736 154.673 196.541 155.168 195.104 155.168C193.676 155.168 192.481 154.673 191.52 153.684C190.568 152.685 190.092 151.458 190.092 150.002ZM191.1 150.002C191.1 151.206 191.478 152.219 192.234 153.04C192.999 153.852 193.956 154.258 195.104 154.258C196.252 154.258 197.204 153.852 197.96 153.04C198.725 152.228 199.108 151.215 199.108 150.002C199.108 148.835 198.725 147.86 197.96 147.076C197.204 146.292 196.252 145.9 195.104 145.9C193.956 145.9 192.999 146.292 192.234 147.076C191.478 147.86 191.1 148.835 191.1 150.002ZM204.149 155V146.026H200.621V145.158H208.657V146.026H205.115V155H204.149ZM208.333 155L211.945 145.158H212.981L216.593 155H215.571L214.437 151.864H210.475L209.355 155H208.333ZM210.769 151.024H214.143L212.855 147.454L212.477 146.166H212.449C212.309 146.717 212.183 147.146 212.071 147.454L210.769 151.024ZM218.299 155V145.158H219.265V154.132H223.829V155H218.299ZM228.635 155V145.158H231.617C232.401 145.158 233.003 145.251 233.423 145.438C234.393 145.905 234.879 146.726 234.879 147.902C234.879 148.565 234.706 149.143 234.361 149.638C234.015 150.133 233.563 150.459 233.003 150.618V150.646C233.077 150.73 233.166 150.861 233.269 151.038L235.411 155H234.291L232.079 150.856H229.601V155H228.635ZM229.601 149.988H231.939C232.527 149.988 232.998 149.801 233.353 149.428C233.707 149.045 233.885 148.546 233.885 147.93C233.885 147.538 233.791 147.193 233.605 146.894C233.427 146.586 233.175 146.357 232.849 146.208C232.578 146.087 232.149 146.026 231.561 146.026H229.601V149.988ZM237.275 155V145.158H242.805V146.026H238.241V149.61H241.979V150.478H238.241V154.132H243.071V155H237.275ZM247.601 155L243.961 145.158H244.997L247.727 152.634L248.105 153.894H248.133C248.264 153.39 248.39 152.97 248.511 152.634L251.241 145.158H252.277L248.637 155H247.601ZM253.955 155V145.158H259.485V146.026H254.921V149.61H258.659V150.478H254.921V154.132H259.751V155H253.955ZM261.789 155V145.158H262.727L267.753 152.242L268.565 153.572H268.593C268.537 153.031 268.509 152.587 268.509 152.242V145.158H269.475V155H268.537L263.511 147.916L262.699 146.586H262.671C262.727 147.127 262.755 147.571 262.755 147.916V155H261.789ZM272.191 151.57V145.158H273.157V151.556C273.157 152.396 273.409 153.059 273.913 153.544C274.417 154.02 275.093 154.258 275.943 154.258C276.801 154.258 277.483 154.015 277.987 153.53C278.491 153.045 278.743 152.377 278.743 151.528V145.158H279.723V151.57C279.723 152.653 279.373 153.525 278.673 154.188C277.982 154.841 277.077 155.168 275.957 155.168C274.837 155.168 273.927 154.841 273.227 154.188C272.536 153.525 272.191 152.653 272.191 151.57ZM282.42 155V145.158H287.95V146.026H283.386V149.61H287.124V150.478H283.386V154.132H288.216V155H282.42ZM289.876 149.078V147.958H290.968V149.078H289.876ZM289.876 155V153.88H290.968V155H289.876ZM296.436 153.908L297.01 153.166C297.327 153.483 297.719 153.745 298.186 153.95C298.652 154.146 299.119 154.244 299.586 154.244C300.146 154.244 300.612 154.09 300.986 153.782C301.359 153.465 301.546 153.049 301.546 152.536C301.546 152.097 301.373 151.724 301.028 151.416C300.692 151.099 300.281 150.837 299.796 150.632C299.31 150.417 298.825 150.198 298.34 149.974C297.854 149.75 297.439 149.442 297.094 149.05C296.758 148.658 296.59 148.187 296.59 147.636C296.59 146.983 296.828 146.409 297.304 145.914C297.78 145.419 298.4 145.125 299.166 145.032V143.702H299.95V145.018C300.883 145.065 301.662 145.373 302.288 145.942L301.812 146.754C301.541 146.502 301.21 146.301 300.818 146.152C300.426 145.993 300.038 145.914 299.656 145.914C299.049 145.914 298.55 146.082 298.158 146.418C297.775 146.754 297.584 147.151 297.584 147.608C297.584 148.019 297.752 148.373 298.088 148.672C298.433 148.961 298.848 149.209 299.334 149.414C299.819 149.61 300.304 149.825 300.79 150.058C301.275 150.282 301.686 150.599 302.022 151.01C302.367 151.421 302.54 151.92 302.54 152.508C302.54 153.208 302.306 153.805 301.84 154.3C301.373 154.785 300.743 155.065 299.95 155.14V156.442H299.166V155.14C298.046 155.056 297.136 154.645 296.436 153.908ZM304.337 155C304.299 154.701 304.281 154.491 304.281 154.37C304.281 153.903 304.374 153.469 304.561 153.068C304.747 152.657 304.985 152.307 305.275 152.018C305.573 151.719 305.905 151.439 306.269 151.178C306.633 150.907 306.992 150.651 307.347 150.408C307.711 150.165 308.037 149.923 308.327 149.68C308.625 149.428 308.868 149.143 309.055 148.826C309.241 148.499 309.335 148.159 309.335 147.804C309.335 147.253 309.143 146.801 308.761 146.446C308.387 146.091 307.897 145.914 307.291 145.914C306.843 145.914 306.423 146.04 306.031 146.292C305.648 146.535 305.331 146.857 305.079 147.258L304.365 146.768C304.654 146.245 305.06 145.821 305.583 145.494C306.115 145.158 306.703 144.99 307.347 144.99C308.252 144.99 308.975 145.251 309.517 145.774C310.067 146.297 310.343 146.955 310.343 147.748C310.343 148.196 310.249 148.616 310.063 149.008C309.885 149.391 309.647 149.727 309.349 150.016C309.059 150.296 308.737 150.567 308.383 150.828C308.028 151.08 307.673 151.327 307.319 151.57C306.964 151.803 306.637 152.046 306.339 152.298C306.049 152.541 305.811 152.821 305.625 153.138C305.438 153.446 305.345 153.777 305.345 154.132H310.497V155H304.337ZM311.987 156.358L312.785 153.852H313.877L312.813 156.358H311.987ZM319.347 155.168C318.152 155.168 317.289 154.706 316.757 153.782C316.225 152.858 315.959 151.621 315.959 150.072C315.959 149.335 316.015 148.672 316.127 148.084C316.248 147.487 316.435 146.95 316.687 146.474C316.948 145.998 317.303 145.634 317.751 145.382C318.199 145.121 318.731 144.99 319.347 144.99C320.168 144.99 320.84 145.223 321.363 145.69C321.886 146.157 322.245 146.754 322.441 147.482C322.646 148.21 322.749 149.073 322.749 150.072C322.749 150.819 322.688 151.491 322.567 152.088C322.455 152.676 322.268 153.208 322.007 153.684C321.755 154.151 321.405 154.515 320.957 154.776C320.509 155.037 319.972 155.168 319.347 155.168ZM319.347 154.258C319.944 154.258 320.425 154.067 320.789 153.684C321.162 153.301 321.414 152.816 321.545 152.228C321.676 151.64 321.741 150.921 321.741 150.072C321.741 149.456 321.704 148.91 321.629 148.434C321.554 147.949 321.428 147.515 321.251 147.132C321.074 146.74 320.826 146.441 320.509 146.236C320.192 146.021 319.804 145.914 319.347 145.914C317.76 145.914 316.967 147.3 316.967 150.072C316.967 151.379 317.144 152.405 317.499 153.152C317.863 153.889 318.479 154.258 319.347 154.258ZM324.432 153.782L325.062 153.096C325.584 153.852 326.322 154.23 327.274 154.23C327.964 154.23 328.543 154.015 329.01 153.586C329.486 153.147 329.724 152.597 329.724 151.934C329.724 151.262 329.486 150.707 329.01 150.268C328.534 149.829 327.941 149.61 327.232 149.61C326.569 149.61 325.972 149.792 325.44 150.156L324.824 149.932L325.356 145.158H330.116V146.026H326.21L325.916 148.546L325.832 149.106H325.86C326.261 148.854 326.756 148.728 327.344 148.728C328.314 148.728 329.122 149.041 329.766 149.666C330.41 150.282 330.732 151.038 330.732 151.934C330.732 152.839 330.4 153.605 329.738 154.23C329.084 154.855 328.277 155.168 327.316 155.168C326.746 155.168 326.205 155.047 325.692 154.804C325.178 154.561 324.758 154.221 324.432 153.782ZM331.973 152.27V151.64L336.803 145.158H337.853V151.43H339.253V152.27H337.853V155H336.887V152.27H331.973ZM333.135 151.43H336.887V147.3L336.943 146.362H336.915C336.757 146.633 336.593 146.885 336.425 147.118L333.135 151.402V151.43ZM340.466 156.358L341.264 153.852H342.356L341.292 156.358H340.466ZM344.956 155L348.932 146.936L349.464 146.026V145.998C349.305 146.017 349.062 146.026 348.736 146.026H344.13V145.158H350.528V145.83L345.964 155H344.956ZM351.652 153.782L352.282 153.096C352.805 153.852 353.542 154.23 354.494 154.23C355.185 154.23 355.764 154.015 356.23 153.586C356.706 153.147 356.944 152.597 356.944 151.934C356.944 151.262 356.706 150.707 356.23 150.268C355.754 149.829 355.162 149.61 354.452 149.61C353.79 149.61 353.192 149.792 352.66 150.156L352.044 149.932L352.576 145.158H357.336V146.026H353.43L353.136 148.546L353.052 149.106H353.08C353.482 148.854 353.976 148.728 354.564 148.728C355.535 148.728 356.342 149.041 356.986 149.666C357.63 150.282 357.952 151.038 357.952 151.934C357.952 152.839 357.621 153.605 356.958 154.23C356.305 154.855 355.498 155.168 354.536 155.168C353.967 155.168 353.426 155.047 352.912 154.804C352.399 154.561 351.979 154.221 351.652 153.782Z" fill="#39434E"/>
<rect x="57" y="134" width="426" height="1" fill="#E8E8E8"/>
<line x1="269.5" y1="34" x2="269.5" y2="134" stroke="#E8E8E8" stroke-dasharray="3 3"/>
<path d="M79.584 92.128L80.568 90.856C81.112 91.4 81.784 91.848 82.584 92.2C83.384 92.536 84.184 92.704 84.984 92.704C85.944 92.704 86.744 92.44 87.384 91.912C88.024 91.368 88.344 90.656 88.344 89.776C88.344 89.024 88.048 88.384 87.456 87.856C86.88 87.312 86.176 86.864 85.344 86.512C84.512 86.144 83.68 85.768 82.848 85.384C82.016 85 81.304 84.472 80.712 83.8C80.136 83.128 79.848 82.32 79.848 81.376C79.848 80.256 80.256 79.272 81.072 78.424C81.888 77.576 82.952 77.072 84.264 76.912V74.632H85.608V76.888C87.208 76.968 88.544 77.496 89.616 78.472L88.8 79.864C88.336 79.432 87.768 79.088 87.096 78.832C86.424 78.56 85.76 78.424 85.104 78.424C84.064 78.424 83.208 78.712 82.536 79.288C81.88 79.864 81.552 80.544 81.552 81.328C81.552 82.032 81.84 82.64 82.416 83.152C83.008 83.648 83.72 84.072 84.552 84.424C85.384 84.76 86.216 85.128 87.048 85.528C87.88 85.912 88.584 86.456 89.16 87.16C89.752 87.864 90.048 88.72 90.048 89.728C90.048 90.928 89.648 91.952 88.848 92.8C88.048 93.632 86.968 94.112 85.608 94.24V96.472H84.264V94.24C82.344 94.096 80.784 93.392 79.584 92.128ZM93.0086 94V92.512H96.8006V80.128L96.8246 79.192H96.7766C96.6646 79.416 96.3846 79.752 95.9366 80.2L94.1366 81.976L93.0806 80.92L96.8966 77.128H98.4326V92.512H102.153V94H93.0086ZM104.017 96.328L105.385 92.032H107.257L105.433 96.328H104.017ZM111.378 93.592L112.026 92.128C112.762 92.528 113.578 92.728 114.474 92.728C115.594 92.728 116.57 92.384 117.402 91.696C118.25 91.008 118.882 90.176 119.298 89.2C119.714 88.208 119.978 87.128 120.09 85.96H120.042C119.626 86.552 119.026 87.032 118.242 87.4C117.458 87.752 116.634 87.928 115.77 87.928C114.218 87.928 112.954 87.424 111.978 86.416C111.002 85.392 110.514 84.072 110.514 82.456C110.514 80.76 111.018 79.4 112.026 78.376C113.034 77.352 114.298 76.84 115.818 76.84C117.626 76.84 119.09 77.584 120.21 79.072C121.33 80.56 121.89 82.456 121.89 84.76C121.89 85.864 121.738 86.96 121.434 88.048C121.146 89.12 120.714 90.136 120.138 91.096C119.578 92.04 118.802 92.808 117.81 93.4C116.834 93.992 115.722 94.288 114.474 94.288C113.354 94.288 112.322 94.056 111.378 93.592ZM116.01 86.44C117.114 86.44 118.074 86.136 118.89 85.528C119.706 84.92 120.114 84.264 120.114 83.56C120.114 82.344 119.698 81.184 118.866 80.08C118.034 78.976 117.026 78.424 115.842 78.424C114.706 78.424 113.81 78.8 113.154 79.552C112.514 80.304 112.194 81.272 112.194 82.456C112.194 83.656 112.538 84.624 113.226 85.36C113.93 86.08 114.858 86.44 116.01 86.44ZM124.287 89.32V88.24L132.567 77.128H134.367V87.88H136.767V89.32H134.367V94H132.711V89.32H124.287ZM126.279 87.88H132.711V80.8L132.807 79.192H132.759C132.487 79.656 132.207 80.088 131.919 80.488L126.279 87.832V87.88ZM139.277 86.392C139.277 85.288 139.421 84.192 139.709 83.104C139.997 82.016 140.429 81 141.005 80.056C141.581 79.096 142.357 78.32 143.333 77.728C144.309 77.136 145.421 76.84 146.669 76.84C147.821 76.84 148.861 77.072 149.789 77.536L149.165 79C148.493 78.616 147.661 78.424 146.669 78.424C145.053 78.424 143.757 79.096 142.781 80.44C141.821 81.768 141.261 83.344 141.101 85.168H141.149C141.549 84.576 142.141 84.104 142.925 83.752C143.709 83.384 144.541 83.2 145.421 83.2C146.957 83.2 148.213 83.712 149.189 84.736C150.165 85.76 150.653 87.088 150.653 88.72C150.653 90.384 150.149 91.728 149.141 92.752C148.133 93.776 146.877 94.288 145.373 94.288C143.565 94.288 142.093 93.544 140.957 92.056C139.837 90.568 139.277 88.68 139.277 86.392ZM145.469 92.728C146.509 92.728 147.349 92.352 147.989 91.6C148.645 90.832 148.973 89.856 148.973 88.672C148.973 87.456 148.621 86.488 147.917 85.768C147.229 85.048 146.309 84.688 145.157 84.688C144.085 84.688 143.133 84.984 142.301 85.576C141.485 86.152 141.077 86.88 141.077 87.76C141.077 88.4 141.229 89.088 141.533 89.824C141.853 90.56 142.365 91.232 143.069 91.84C143.773 92.432 144.573 92.728 145.469 92.728ZM153.698 94V92.008H155.666V94H153.698ZM159.589 93.592L160.237 92.128C160.973 92.528 161.789 92.728 162.685 92.728C163.805 92.728 164.781 92.384 165.613 91.696C166.461 91.008 167.093 90.176 167.509 89.2C167.925 88.208 168.189 87.128 168.301 85.96H168.253C167.837 86.552 167.237 87.032 166.453 87.4C165.669 87.752 164.845 87.928 163.981 87.928C162.429 87.928 161.165 87.424 160.189 86.416C159.213 85.392 158.725 84.072 158.725 82.456C158.725 80.76 159.229 79.4 160.237 78.376C161.245 77.352 162.509 76.84 164.029 76.84C165.837 76.84 167.301 77.584 168.421 79.072C169.541 80.56 170.101 82.456 170.101 84.76C170.101 85.864 169.949 86.96 169.645 88.048C169.357 89.12 168.925 90.136 168.349 91.096C167.789 92.04 167.013 92.808 166.021 93.4C165.045 93.992 163.933 94.288 162.685 94.288C161.565 94.288 160.533 94.056 159.589 93.592ZM164.221 86.44C165.325 86.44 166.285 86.136 167.101 85.528C167.917 84.92 168.325 84.264 168.325 83.56C168.325 82.344 167.909 81.184 167.077 80.08C166.245 78.976 165.237 78.424 164.053 78.424C162.917 78.424 162.021 78.8 161.365 79.552C160.725 80.304 160.405 81.272 160.405 82.456C160.405 83.656 160.749 84.624 161.437 85.36C162.141 86.08 163.069 86.44 164.221 86.44ZM173.074 94C173.01 93.488 172.978 93.128 172.978 92.92C172.978 92.12 173.138 91.376 173.458 90.688C173.778 89.984 174.186 89.384 174.682 88.888C175.194 88.376 175.762 87.896 176.386 87.448C177.01 86.984 177.626 86.544 178.234 86.128C178.858 85.712 179.418 85.296 179.914 84.88C180.426 84.448 180.842 83.96 181.162 83.416C181.482 82.856 181.642 82.272 181.642 81.664C181.642 80.72 181.314 79.944 180.658 79.336C180.018 78.728 179.178 78.424 178.138 78.424C177.37 78.424 176.65 78.64 175.978 79.072C175.322 79.488 174.778 80.04 174.346 80.728L173.122 79.888C173.618 78.992 174.314 78.264 175.21 77.704C176.122 77.128 177.13 76.84 178.234 76.84C179.786 76.84 181.026 77.288 181.954 78.184C182.898 79.08 183.37 80.208 183.37 81.568C183.37 82.336 183.21 83.056 182.89 83.728C182.586 84.384 182.178 84.96 181.666 85.456C181.17 85.936 180.618 86.4 180.01 86.848C179.402 87.28 178.794 87.704 178.186 88.12C177.578 88.52 177.018 88.936 176.506 89.368C176.01 89.784 175.602 90.264 175.282 90.808C174.962 91.336 174.802 91.904 174.802 92.512H183.634V94H173.074Z" fill="#39434E"/>
<path d="M79.414 66V56.158H80.352L85.378 63.242L86.19 64.572H86.218C86.162 64.0307 86.134 63.5873 86.134 63.242V56.158H87.1V66H86.162L81.136 58.916L80.324 57.586H80.296C80.352 58.1273 80.38 58.5707 80.38 58.916V66H79.414ZM89.035 62.444C89.035 61.408 89.3943 60.54 90.113 59.84C90.8316 59.14 91.709 58.79 92.745 58.79C93.781 58.79 94.6583 59.14 95.377 59.84C96.105 60.54 96.469 61.408 96.469 62.444C96.469 63.4987 96.105 64.3853 95.377 65.104C94.6583 65.8133 93.781 66.168 92.745 66.168C91.709 66.168 90.8316 65.8133 90.113 65.104C89.3943 64.3853 89.035 63.4987 89.035 62.444ZM90.015 62.444C90.015 63.2653 90.2763 63.9467 90.799 64.488C91.331 65.0293 91.9796 65.3 92.745 65.3C93.5103 65.3 94.159 65.0293 94.691 64.488C95.223 63.9467 95.489 63.2653 95.489 62.444C95.489 61.6507 95.223 60.988 94.691 60.456C94.159 59.9147 93.5103 59.644 92.745 59.644C91.9796 59.644 91.331 59.9147 90.799 60.456C90.2763 60.988 90.015 61.6507 90.015 62.444ZM98.2473 66V58.958H99.1853V60.064L99.1293 60.624H99.1573C99.3346 60.1947 99.6659 59.784 100.151 59.392C100.646 58.9907 101.262 58.79 101.999 58.79C102.849 58.79 103.455 59.0187 103.819 59.476C104.183 59.9333 104.365 60.6147 104.365 61.52V66H103.413V61.772C103.413 61.1093 103.311 60.596 103.105 60.232C102.9 59.868 102.489 59.686 101.873 59.686C101.117 59.686 100.483 59.9613 99.9693 60.512C99.4559 61.0627 99.1993 61.744 99.1993 62.556V66H98.2473ZM106.462 62.458V61.59H110.438V62.458H106.462ZM112.225 61.002C112.225 59.5927 112.701 58.4073 113.653 57.446C114.614 56.4753 115.809 55.99 117.237 55.99C118.674 55.99 119.869 56.4707 120.821 57.432C121.773 58.3933 122.249 59.5833 122.249 61.002C122.249 62.458 121.773 63.6853 120.821 64.684C119.869 65.6733 118.674 66.168 117.237 66.168C115.809 66.168 114.614 65.6733 113.653 64.684C112.701 63.6853 112.225 62.458 112.225 61.002ZM113.233 61.002C113.233 62.206 113.611 63.2187 114.367 64.04C115.132 64.852 116.089 65.258 117.237 65.258C118.385 65.258 119.337 64.852 120.093 64.04C120.858 63.228 121.241 62.2153 121.241 61.002C121.241 59.8353 120.858 58.86 120.093 58.076C119.337 57.292 118.385 56.9 117.237 56.9C116.089 56.9 115.132 57.292 114.367 58.076C113.611 58.86 113.233 59.8353 113.233 61.002ZM124.073 66V58.958H125.011V60.26L124.955 60.82H124.983C125.17 60.26 125.459 59.798 125.851 59.434C126.253 59.07 126.715 58.888 127.237 58.888C127.377 58.888 127.503 58.902 127.615 58.93V59.868C127.559 59.8493 127.443 59.84 127.265 59.84C126.771 59.84 126.346 60.0127 125.991 60.358C125.637 60.7033 125.385 61.1093 125.235 61.576C125.095 62.0333 125.025 62.514 125.025 63.018V66H124.073ZM129.418 67.596C130.034 67.9133 130.674 68.072 131.336 68.072C132.074 68.072 132.666 67.89 133.114 67.526C133.562 67.1713 133.786 66.6207 133.786 65.874V65.174L133.842 64.656H133.814C133.357 65.524 132.61 65.958 131.574 65.958C130.632 65.958 129.871 65.622 129.292 64.95C128.723 64.278 128.438 63.41 128.438 62.346C128.438 61.282 128.714 60.4233 129.264 59.77C129.815 59.1167 130.557 58.79 131.49 58.79C131.994 58.79 132.456 58.8927 132.876 59.098C133.306 59.3033 133.623 59.6113 133.828 60.022H133.856C133.838 59.966 133.828 59.8867 133.828 59.784V58.958H134.752V65.832C134.752 66.8773 134.426 67.6567 133.772 68.17C133.128 68.6833 132.326 68.94 131.364 68.94C130.552 68.94 129.787 68.7487 129.068 68.366L129.418 67.596ZM129.978 60.358C129.596 60.834 129.404 61.492 129.404 62.332C129.404 63.172 129.614 63.844 130.034 64.348C130.454 64.852 131.014 65.104 131.714 65.104C132.34 65.104 132.844 64.8893 133.226 64.46C133.618 64.0213 133.814 63.3167 133.814 62.346C133.814 60.5447 133.072 59.644 131.588 59.644C130.907 59.644 130.37 59.882 129.978 60.358ZM136.405 64.11C136.405 62.4767 137.833 61.66 140.689 61.66H141.109V61.464C141.109 60.2507 140.53 59.644 139.373 59.644C138.654 59.644 137.987 59.868 137.371 60.316L136.937 59.588C137.217 59.3453 137.585 59.154 138.043 59.014C138.5 58.8647 138.962 58.79 139.429 58.79C140.278 58.79 140.927 59.0233 141.375 59.49C141.832 59.9473 142.061 60.6147 142.061 61.492V66H141.151V65.174L141.193 64.586H141.165C140.969 65.034 140.656 65.412 140.227 65.72C139.807 66.0187 139.326 66.168 138.785 66.168C138.141 66.168 137.581 65.986 137.105 65.622C136.638 65.258 136.405 64.754 136.405 64.11ZM137.371 64.026C137.371 64.3807 137.511 64.6933 137.791 64.964C138.071 65.2347 138.458 65.37 138.953 65.37C139.597 65.37 140.115 65.0993 140.507 64.558C140.908 64.0167 141.109 63.41 141.109 62.738V62.416H140.703C140.404 62.416 140.143 62.4207 139.919 62.43C139.704 62.4393 139.419 62.4767 139.065 62.542C138.719 62.598 138.435 62.6773 138.211 62.78C137.987 62.8827 137.791 63.0413 137.623 63.256C137.455 63.4707 137.371 63.7273 137.371 64.026ZM144.253 66V58.958H145.191V60.064L145.135 60.624H145.163C145.34 60.1947 145.672 59.784 146.157 59.392C146.652 58.9907 147.268 58.79 148.005 58.79C148.854 58.79 149.461 59.0187 149.825 59.476C150.189 59.9333 150.371 60.6147 150.371 61.52V66H149.419V61.772C149.419 61.1093 149.316 60.596 149.111 60.232C148.906 59.868 148.495 59.686 147.879 59.686C147.123 59.686 146.488 59.9613 145.975 60.512C145.462 61.0627 145.205 61.744 145.205 62.556V66H144.253ZM152.524 57.348V56.158H153.56V57.348H152.524ZM152.566 66V58.958H153.518V66H152.566ZM155.316 62.486C155.316 61.4127 155.671 60.5307 156.38 59.84C157.09 59.14 157.967 58.79 159.012 58.79C159.498 58.79 159.974 58.8787 160.44 59.056C160.907 59.224 161.29 59.4713 161.588 59.798L161.098 60.512C160.846 60.2507 160.534 60.0407 160.16 59.882C159.796 59.7233 159.423 59.644 159.04 59.644C158.256 59.644 157.603 59.91 157.08 60.442C156.558 60.974 156.296 61.6553 156.296 62.486C156.296 63.3073 156.558 63.984 157.08 64.516C157.612 65.0387 158.275 65.3 159.068 65.3C159.479 65.3 159.89 65.216 160.3 65.048C160.711 64.8707 161.052 64.6327 161.322 64.334L161.756 65.048C161.448 65.3933 161.047 65.6687 160.552 65.874C160.067 66.07 159.554 66.168 159.012 66.168C157.958 66.168 157.076 65.8273 156.366 65.146C155.666 64.4553 155.316 63.5687 155.316 62.486Z" fill="#39434E"/>
<rect x="57.5" y="34.5" width="425" height="130" rx="3.5" stroke="#DAE2EA"/>
<path d="M58.818 19V6.346H60.06V17.884H65.928V19H58.818ZM69.383 19V7.462H64.847V6.346H75.179V7.462H70.625V19H69.383ZM80.4966 19L75.8166 6.346H77.1486L80.6586 15.958L81.1446 17.578H81.1806C81.3486 16.93 81.5106 16.39 81.6666 15.958L85.1766 6.346H86.5086L81.8286 19H80.4966ZM93.8276 20.71C92.4836 18.37 91.8116 15.778 91.8116 12.934C91.8116 10.438 92.4836 8.08 93.8276 5.86H94.9796C93.6236 8.128 92.9456 10.492 92.9456 12.952C92.9456 15.712 93.6236 18.298 94.9796 20.71H93.8276ZM97.5953 19V6.346H98.8373V17.884H104.705V19H97.5953ZM106.48 7.876V6.346H107.812V7.876H106.48ZM106.534 19V9.946H107.758V19H106.534ZM111.025 19V11.044H109.891V10.018H111.025V9.604C111.025 8.908 111.133 8.32 111.349 7.84C111.577 7.36 111.871 7.018 112.231 6.814C112.591 6.598 112.921 6.454 113.221 6.382C113.533 6.298 113.845 6.256 114.157 6.256C114.349 6.256 114.535 6.274 114.715 6.31V7.39C114.619 7.366 114.475 7.354 114.283 7.354C114.067 7.354 113.857 7.384 113.653 7.444C113.461 7.492 113.251 7.588 113.023 7.732C112.795 7.864 112.609 8.098 112.465 8.434C112.333 8.758 112.267 9.154 112.267 9.622V10.018H114.571V11.044H112.267V19H111.025ZM115.625 14.482C115.625 13.042 116.051 11.89 116.903 11.026C117.767 10.162 118.835 9.73 120.107 9.73C121.307 9.73 122.237 10.132 122.897 10.936C123.557 11.728 123.887 12.718 123.887 13.906C123.887 14.05 123.875 14.254 123.851 14.518H116.903C116.927 15.634 117.275 16.51 117.947 17.146C118.619 17.782 119.441 18.1 120.413 18.1C121.457 18.1 122.375 17.74 123.167 17.02L123.725 17.956C123.305 18.34 122.789 18.646 122.177 18.874C121.577 19.102 120.977 19.216 120.377 19.216C119.021 19.216 117.887 18.772 116.975 17.884C116.075 16.996 115.625 15.862 115.625 14.482ZM116.957 13.546H122.645C122.609 12.646 122.351 11.956 121.871 11.476C121.391 10.984 120.791 10.738 120.071 10.738C119.291 10.738 118.613 10.984 118.037 11.476C117.461 11.968 117.101 12.658 116.957 13.546ZM126.44 15.706V11.044H125.252V10.018H126.458V7.444H127.664V10.018H129.95V11.044H127.664V15.58C127.664 16.072 127.736 16.492 127.88 16.84C128.024 17.176 128.21 17.422 128.438 17.578C128.666 17.722 128.882 17.824 129.086 17.884C129.29 17.944 129.5 17.974 129.716 17.974C129.884 17.974 130.022 17.962 130.13 17.938V19.036C129.986 19.06 129.812 19.072 129.608 19.072C129.356 19.072 129.11 19.054 128.87 19.018C128.63 18.982 128.354 18.898 128.042 18.766C127.742 18.622 127.478 18.436 127.25 18.208C127.022 17.98 126.83 17.65 126.674 17.218C126.518 16.786 126.44 16.282 126.44 15.706ZM131.916 7.876V6.346H133.248V7.876H131.916ZM131.97 19V9.946H133.194V19H131.97ZM136.118 19V9.946H137.324V11.368L137.252 12.088H137.288C137.516 11.464 137.954 10.918 138.602 10.45C139.25 9.97 139.922 9.73 140.618 9.73C142.214 9.73 143.144 10.486 143.408 11.998H143.444C143.708 11.386 144.146 10.858 144.758 10.414C145.382 9.958 146.054 9.73 146.774 9.73C147.842 9.73 148.61 10.024 149.078 10.612C149.546 11.2 149.78 12.076 149.78 13.24V19H148.556V13.546C148.556 12.694 148.418 12.034 148.142 11.566C147.878 11.098 147.368 10.864 146.612 10.864C145.736 10.864 145.01 11.248 144.434 12.016C143.858 12.772 143.57 13.642 143.57 14.626V19H142.346V13.546C142.346 12.706 142.22 12.052 141.968 11.584C141.716 11.104 141.206 10.864 140.438 10.864C139.55 10.864 138.812 11.254 138.224 12.034C137.636 12.802 137.342 13.666 137.342 14.626V19H136.118ZM151.994 14.482C151.994 13.042 152.42 11.89 153.272 11.026C154.136 10.162 155.204 9.73 156.476 9.73C157.676 9.73 158.606 10.132 159.266 10.936C159.926 11.728 160.256 12.718 160.256 13.906C160.256 14.05 160.244 14.254 160.22 14.518H153.272C153.296 15.634 153.644 16.51 154.316 17.146C154.988 17.782 155.81 18.1 156.782 18.1C157.826 18.1 158.744 17.74 159.536 17.02L160.094 17.956C159.674 18.34 159.158 18.646 158.546 18.874C157.946 19.102 157.346 19.216 156.746 19.216C155.39 19.216 154.256 18.772 153.344 17.884C152.444 16.996 151.994 15.862 151.994 14.482ZM153.326 13.546H159.014C158.978 12.646 158.72 11.956 158.24 11.476C157.76 10.984 157.16 10.738 156.44 10.738C155.66 10.738 154.982 10.984 154.406 11.476C153.83 11.968 153.47 12.658 153.326 13.546ZM170.04 19L165.36 6.346H166.692L170.202 15.958L170.688 17.578H170.724C170.892 16.93 171.054 16.39 171.21 15.958L174.72 6.346H176.052L171.372 19H170.04ZM176.266 16.57C176.266 14.47 178.102 13.42 181.774 13.42H182.314V13.168C182.314 11.608 181.57 10.828 180.082 10.828C179.158 10.828 178.3 11.116 177.508 11.692L176.95 10.756C177.31 10.444 177.784 10.198 178.372 10.018C178.96 9.826 179.554 9.73 180.154 9.73C181.246 9.73 182.08 10.03 182.656 10.63C183.244 11.218 183.538 12.076 183.538 13.204V19H182.368V17.938L182.422 17.182H182.386C182.134 17.758 181.732 18.244 181.18 18.64C180.64 19.024 180.022 19.216 179.326 19.216C178.498 19.216 177.778 18.982 177.166 18.514C176.566 18.046 176.266 17.398 176.266 16.57ZM177.508 16.462C177.508 16.918 177.688 17.32 178.048 17.668C178.408 18.016 178.906 18.19 179.542 18.19C180.37 18.19 181.036 17.842 181.54 17.146C182.056 16.45 182.314 15.67 182.314 14.806V14.392H181.792C181.408 14.392 181.072 14.398 180.784 14.41C180.508 14.422 180.142 14.47 179.686 14.554C179.242 14.626 178.876 14.728 178.588 14.86C178.3 14.992 178.048 15.196 177.832 15.472C177.616 15.748 177.508 16.078 177.508 16.462ZM186.356 16.858V6.346H187.58V16.588C187.58 17.5 187.922 17.956 188.606 17.956C188.726 17.956 188.822 17.95 188.894 17.938V19.036C188.75 19.06 188.6 19.072 188.444 19.072C188.264 19.072 188.096 19.06 187.94 19.036C187.784 19.012 187.604 18.958 187.4 18.874C187.196 18.778 187.022 18.652 186.878 18.496C186.734 18.34 186.608 18.124 186.5 17.848C186.404 17.56 186.356 17.23 186.356 16.858ZM190.678 15.706V9.946H191.92V15.382C191.92 16.234 192.046 16.894 192.298 17.362C192.562 17.83 193.09 18.064 193.882 18.064C194.878 18.064 195.682 17.692 196.294 16.948C196.918 16.204 197.23 15.316 197.23 14.284V9.946H198.454V19H197.248V17.578L197.32 16.858H197.284C197.068 17.422 196.642 17.956 196.006 18.46C195.382 18.964 194.62 19.216 193.72 19.216C192.664 19.216 191.89 18.928 191.398 18.352C190.918 17.776 190.678 16.894 190.678 15.706ZM200.756 14.482C200.756 13.042 201.182 11.89 202.034 11.026C202.898 10.162 203.966 9.73 205.238 9.73C206.438 9.73 207.368 10.132 208.028 10.936C208.688 11.728 209.018 12.718 209.018 13.906C209.018 14.05 209.006 14.254 208.982 14.518H202.034C202.058 15.634 202.406 16.51 203.078 17.146C203.75 17.782 204.572 18.1 205.544 18.1C206.588 18.1 207.506 17.74 208.298 17.02L208.856 17.956C208.436 18.34 207.92 18.646 207.308 18.874C206.708 19.102 206.108 19.216 205.508 19.216C204.152 19.216 203.018 18.772 202.106 17.884C201.206 16.996 200.756 15.862 200.756 14.482ZM202.088 13.546H207.776C207.74 12.646 207.482 11.956 207.002 11.476C206.522 10.984 205.922 10.738 205.202 10.738C204.422 10.738 203.744 10.984 203.168 11.476C202.592 11.968 202.232 12.658 202.088 13.546ZM210.423 20.71C211.779 18.274 212.457 15.688 212.457 12.952C212.457 10.516 211.779 8.152 210.423 5.86H211.557C212.913 8.068 213.591 10.426 213.591 12.934C213.591 15.79 212.913 18.382 211.557 20.71H210.423ZM220.113 12.574C220.113 10.762 220.725 9.238 221.949 8.002C223.185 6.754 224.721 6.13 226.557 6.13C228.405 6.13 229.941 6.748 231.165 7.984C232.389 9.22 233.001 10.75 233.001 12.574C233.001 14.446 232.389 16.024 231.165 17.308C229.941 18.58 228.405 19.216 226.557 19.216C224.721 19.216 223.185 18.58 221.949 17.308C220.725 16.024 220.113 14.446 220.113 12.574ZM221.409 12.574C221.409 14.122 221.895 15.424 222.867 16.48C223.851 17.524 225.081 18.046 226.557 18.046C228.033 18.046 229.257 17.524 230.229 16.48C231.213 15.436 231.705 14.134 231.705 12.574C231.705 11.074 231.213 9.82 230.229 8.812C229.257 7.804 228.033 7.3 226.557 7.3C225.081 7.3 223.851 7.804 222.867 8.812C221.895 9.82 221.409 11.074 221.409 12.574ZM237.936 19L234.444 9.946H235.758L238.26 16.588L238.566 17.686H238.602C238.71 17.254 238.818 16.888 238.926 16.588L241.428 9.946H242.724L239.268 19H237.936ZM243.77 14.482C243.77 13.042 244.196 11.89 245.048 11.026C245.912 10.162 246.98 9.73 248.252 9.73C249.452 9.73 250.382 10.132 251.042 10.936C251.702 11.728 252.032 12.718 252.032 13.906C252.032 14.05 252.02 14.254 251.996 14.518H245.048C245.072 15.634 245.42 16.51 246.092 17.146C246.764 17.782 247.586 18.1 248.558 18.1C249.602 18.1 250.52 17.74 251.312 17.02L251.87 17.956C251.45 18.34 250.934 18.646 250.322 18.874C249.722 19.102 249.122 19.216 248.522 19.216C247.166 19.216 246.032 18.772 245.12 17.884C244.22 16.996 243.77 15.862 243.77 14.482ZM245.102 13.546H250.79C250.754 12.646 250.496 11.956 250.016 11.476C249.536 10.984 248.936 10.738 248.216 10.738C247.436 10.738 246.758 10.984 246.182 11.476C245.606 11.968 245.246 12.658 245.102 13.546ZM254.331 19V9.946H255.537V11.62L255.465 12.34H255.501C255.741 11.62 256.113 11.026 256.617 10.558C257.133 10.09 257.727 9.856 258.399 9.856C258.579 9.856 258.741 9.874 258.885 9.91V11.116C258.813 11.092 258.663 11.08 258.435 11.08C257.799 11.08 257.253 11.302 256.797 11.746C256.341 12.19 256.017 12.712 255.825 13.312C255.645 13.9 255.555 14.518 255.555 15.166V19H254.331ZM263.249 19L259.757 9.946H261.071L263.573 16.588L263.879 17.686H263.915C264.023 17.254 264.131 16.888 264.239 16.588L266.741 9.946H268.037L264.581 19H263.249ZM269.904 7.876V6.346H271.236V7.876H269.904ZM269.958 19V9.946H271.182V19H269.958ZM273.494 14.482C273.494 13.042 273.92 11.89 274.772 11.026C275.636 10.162 276.704 9.73 277.976 9.73C279.176 9.73 280.106 10.132 280.766 10.936C281.426 11.728 281.756 12.718 281.756 13.906C281.756 14.05 281.744 14.254 281.72 14.518H274.772C274.796 15.634 275.144 16.51 275.816 17.146C276.488 17.782 277.31 18.1 278.282 18.1C279.326 18.1 280.244 17.74 281.036 17.02L281.594 17.956C281.174 18.34 280.658 18.646 280.046 18.874C279.446 19.102 278.846 19.216 278.246 19.216C276.89 19.216 275.756 18.772 274.844 17.884C273.944 16.996 273.494 15.862 273.494 14.482ZM274.826 13.546H280.514C280.478 12.646 280.22 11.956 279.74 11.476C279.26 10.984 278.66 10.738 277.94 10.738C277.16 10.738 276.482 10.984 275.906 11.476C275.33 11.968 274.97 12.658 274.826 13.546ZM286.021 19L282.961 9.946H284.275L286.453 16.678L286.723 17.65H286.759C286.855 17.302 286.951 16.978 287.047 16.678L289.261 9.982H290.485L292.699 16.678L292.987 17.65H293.023C293.095 17.314 293.185 16.99 293.293 16.678L295.471 9.946H296.767L293.725 19H292.375L290.161 12.556L289.891 11.566H289.855C289.759 11.926 289.663 12.256 289.567 12.556L287.371 19H286.021Z" fill="#39434E"/>
</svg>
