<svg width="540" height="198" viewBox="0 0 540 198" fill="none" xmlns="http://www.w3.org/2000/svg">
<rect x="4" y="4" width="270" height="43" fill="#F2F3F7"/>
<g clip-path="url(#clip0)">
<path d="M14.112 26.052L14.365 25.172C14.596 24.413 14.805 23.599 15.003 22.796H15.047C15.256 23.588 15.476 24.413 15.696 25.172L15.949 26.052H14.112ZM16.796 29H18.149L15.806 21.806H14.31L11.956 29H13.265L13.826 27.053H16.235L16.796 29ZM19.0036 29H20.9836C23.1176 29 24.4266 27.757 24.4266 25.37C24.4266 22.994 23.1176 21.806 20.9176 21.806H19.0036V29ZM20.2796 27.966V22.84H20.8296C22.2816 22.84 23.1176 23.61 23.1176 25.37C23.1176 27.141 22.2816 27.966 20.8296 27.966H20.2796ZM28.1129 29H29.3889V26.36H30.5329C32.0729 26.36 33.2609 25.623 33.2609 24.028C33.2609 22.356 32.1059 21.806 30.5329 21.806H28.1129V29ZM29.3889 25.337V22.829H30.4229C31.4679 22.829 32.0069 23.126 32.0069 24.028C32.0069 24.908 31.5009 25.337 30.4229 25.337H29.3889ZM35.2419 26.052L35.4949 25.172C35.7259 24.413 35.9349 23.599 36.1329 22.796H36.1769C36.3859 23.588 36.6059 24.413 36.8259 25.172L37.0789 26.052H35.2419ZM37.9259 29H39.2789L36.9359 21.806H35.4399L33.0859 29H34.3949L34.9559 27.053H37.3649L37.9259 29ZM41.4094 22.829H42.4214C43.4114 22.829 43.9394 23.115 43.9394 23.94C43.9394 24.754 43.4114 25.172 42.4214 25.172H41.4094V22.829ZM45.4794 29L43.7634 25.997C44.6324 25.7 45.2044 25.04 45.2044 23.94C45.2044 22.334 44.0494 21.806 42.5534 21.806H40.1334V29H41.4094V26.184H42.4984L44.0494 29H45.4794ZM47.9233 29H49.1993V22.884H51.2673V21.806H45.8443V22.884H47.9233V29ZM52.444 29H53.654V25.854C53.654 25.051 53.555 24.182 53.489 23.423H53.533L54.281 24.952L56.514 29H57.823V21.806H56.613V24.93C56.613 25.733 56.712 26.646 56.778 27.383H56.734L55.986 25.854L53.753 21.806H52.444V29ZM59.6305 29H64.0635V27.922H60.9065V25.799H63.4915V24.721H60.9065V22.884H63.9535V21.806H59.6305V29ZM66.7825 22.829H67.7945C68.7845 22.829 69.3125 23.115 69.3125 23.94C69.3125 24.754 68.7845 25.172 67.7945 25.172H66.7825V22.829ZM70.8525 29L69.1365 25.997C70.0055 25.7 70.5775 25.04 70.5775 23.94C70.5775 22.334 69.4225 21.806 67.9265 21.806H65.5065V29H66.7825V26.184H67.8715L69.4225 29H70.8525Z" fill="#72778D"/>
<path d="M81 27L77 23H84.75L81 27Z" fill="#72778D"/>
</g>
<rect x="273" y="4" width="1" height="43" fill="white"/>
<rect x="4" y="46" width="270" height="1" fill="white"/>
<path d="M4 47H274V96H4V47Z" fill="#D1EAEE"/>
<path d="M19.164 76V67.796H16.392V66.816H23.112V67.796H20.34V76H19.164ZM27.8121 76.168C27.2334 76.168 26.7014 76.056 26.2161 75.832C25.7401 75.608 25.3294 75.2907 24.9841 74.88C24.6387 74.46 24.3681 73.956 24.1721 73.368C23.9854 72.7707 23.8921 72.1033 23.8921 71.366C23.8921 70.6287 23.9854 69.9707 24.1721 69.392C24.3681 68.804 24.6387 68.3093 24.9841 67.908C25.3294 67.4973 25.7401 67.1847 26.2161 66.97C26.7014 66.7553 27.2334 66.648 27.8121 66.648C28.3907 66.648 28.9181 66.76 29.3941 66.984C29.8794 67.1987 30.2947 67.5113 30.6401 67.922C30.9947 68.3233 31.2654 68.818 31.4521 69.406C31.6481 69.9847 31.7461 70.638 31.7461 71.366C31.7461 72.1033 31.6481 72.7707 31.4521 73.368C31.2654 73.956 30.9947 74.46 30.6401 74.88C30.2947 75.2907 29.8794 75.608 29.3941 75.832C28.9181 76.056 28.3907 76.168 27.8121 76.168ZM27.8121 75.146C28.2227 75.146 28.5914 75.0573 28.9181 74.88C29.2541 74.7027 29.5387 74.4507 29.7721 74.124C30.0147 73.788 30.2014 73.3913 30.3321 72.934C30.4627 72.4673 30.5281 71.9447 30.5281 71.366C30.5281 70.7967 30.4627 70.2833 30.3321 69.826C30.2014 69.3687 30.0147 68.9813 29.7721 68.664C29.5387 68.3467 29.2541 68.104 28.9181 67.936C28.5914 67.7587 28.2227 67.67 27.8121 67.67C27.4014 67.67 27.0281 67.7587 26.6921 67.936C26.3654 68.104 26.0807 68.3467 25.8381 68.664C25.6047 68.9813 25.4227 69.3687 25.2921 69.826C25.1614 70.2833 25.0961 70.7967 25.0961 71.366C25.0961 71.9447 25.1614 72.4673 25.2921 72.934C25.4227 73.3913 25.6047 73.788 25.8381 74.124C26.0807 74.4507 26.3654 74.7027 26.6921 74.88C27.0281 75.0573 27.4014 75.146 27.8121 75.146ZM35.2831 76V67.796H32.5111V66.816H39.2311V67.796H36.4591V76H35.2831ZM41.9065 70.862L41.4725 72.262H44.2305L43.7965 70.862C43.6285 70.3487 43.4698 69.84 43.3205 69.336C43.1711 68.8227 43.0218 68.3 42.8725 67.768H42.8165C42.6765 68.3 42.5318 68.8227 42.3825 69.336C42.2331 69.84 42.0745 70.3487 41.9065 70.862ZM39.1065 76L42.2145 66.816H43.5305L46.6385 76H45.3925L44.5245 73.2H41.1785L40.2965 76H39.1065ZM47.9397 76V66.816H49.1017V75.006H53.1197V76H47.9397Z" fill="#3B3E49"/>
<path d="M4 96H274V145H4V96Z" fill="white"/>
<path d="M17.26 125V115.816H22.552V116.796H18.422V119.904H21.922V120.884H18.422V125H17.26ZM25.1555 125.168C24.5861 125.168 24.1101 125 23.7275 124.664C23.3541 124.328 23.1675 123.852 23.1675 123.236C23.1675 122.489 23.4988 121.92 24.1615 121.528C24.8241 121.127 25.8835 120.847 27.3395 120.688C27.3395 120.473 27.3161 120.263 27.2695 120.058C27.2321 119.853 27.1621 119.671 27.0595 119.512C26.9568 119.353 26.8121 119.227 26.6255 119.134C26.4481 119.031 26.2195 118.98 25.9395 118.98C25.5475 118.98 25.1788 119.055 24.8335 119.204C24.4881 119.353 24.1801 119.521 23.9095 119.708L23.4615 118.91C23.7788 118.705 24.1661 118.509 24.6235 118.322C25.0808 118.126 25.5848 118.028 26.1355 118.028C26.9661 118.028 27.5681 118.285 27.9415 118.798C28.3148 119.302 28.5015 119.979 28.5015 120.828V125H27.5495L27.4515 124.188H27.4095C27.0828 124.459 26.7328 124.692 26.3595 124.888C25.9861 125.075 25.5848 125.168 25.1555 125.168ZM25.4915 124.244C25.8181 124.244 26.1261 124.169 26.4155 124.02C26.7048 123.861 27.0128 123.633 27.3395 123.334V121.444C26.7701 121.519 26.2895 121.607 25.8975 121.71C25.5148 121.813 25.2021 121.934 24.9595 122.074C24.7261 122.214 24.5535 122.377 24.4415 122.564C24.3388 122.741 24.2875 122.937 24.2875 123.152C24.2875 123.544 24.4041 123.824 24.6375 123.992C24.8708 124.16 25.1555 124.244 25.4915 124.244ZM33.3301 125.168C32.8821 125.168 32.4621 125.089 32.0701 124.93C31.6781 124.771 31.3375 124.543 31.0481 124.244C30.7681 123.936 30.5441 123.563 30.3761 123.124C30.2175 122.676 30.1381 122.172 30.1381 121.612C30.1381 121.043 30.2268 120.539 30.4041 120.1C30.5815 119.652 30.8195 119.274 31.1181 118.966C31.4168 118.658 31.7621 118.425 32.1541 118.266C32.5555 118.107 32.9755 118.028 33.4141 118.028C33.8621 118.028 34.2448 118.107 34.5621 118.266C34.8795 118.425 35.1595 118.611 35.4021 118.826L34.8141 119.582C34.6181 119.405 34.4081 119.26 34.1841 119.148C33.9695 119.036 33.7268 118.98 33.4561 118.98C33.1481 118.98 32.8635 119.045 32.6021 119.176C32.3408 119.297 32.1168 119.475 31.9301 119.708C31.7435 119.941 31.5941 120.221 31.4821 120.548C31.3795 120.865 31.3281 121.22 31.3281 121.612C31.3281 122.004 31.3795 122.359 31.4821 122.676C31.5848 122.993 31.7248 123.269 31.9021 123.502C32.0888 123.726 32.3128 123.903 32.5741 124.034C32.8355 124.155 33.1201 124.216 33.4281 124.216C33.7455 124.216 34.0348 124.151 34.2961 124.02C34.5668 123.88 34.8095 123.717 35.0241 123.53L35.5281 124.3C35.2201 124.571 34.8795 124.785 34.5061 124.944C34.1328 125.093 33.7408 125.168 33.3301 125.168ZM39.4841 125.168C39.0268 125.168 38.5975 125.089 38.1961 124.93C37.8041 124.762 37.4588 124.529 37.1601 124.23C36.8708 123.922 36.6421 123.549 36.4741 123.11C36.3061 122.671 36.2221 122.172 36.2221 121.612C36.2221 121.052 36.3061 120.553 36.4741 120.114C36.6515 119.666 36.8801 119.288 37.1601 118.98C37.4495 118.672 37.7761 118.439 38.1401 118.28C38.5041 118.112 38.8821 118.028 39.2741 118.028C39.7035 118.028 40.0861 118.103 40.4221 118.252C40.7675 118.401 41.0521 118.616 41.2761 118.896C41.5095 119.176 41.6868 119.512 41.8081 119.904C41.9295 120.296 41.9901 120.735 41.9901 121.22C41.9901 121.341 41.9855 121.463 41.9761 121.584C41.9761 121.696 41.9668 121.794 41.9481 121.878H37.3561C37.4028 122.606 37.6268 123.185 38.0281 123.614C38.4388 124.034 38.9708 124.244 39.6241 124.244C39.9508 124.244 40.2495 124.197 40.5201 124.104C40.8001 124.001 41.0661 123.871 41.3181 123.712L41.7241 124.468C41.4255 124.655 41.0941 124.818 40.7301 124.958C40.3661 125.098 39.9508 125.168 39.4841 125.168ZM37.3421 121.052H40.9821C40.9821 120.361 40.8328 119.839 40.5341 119.484C40.2448 119.12 39.8341 118.938 39.3021 118.938C39.0595 118.938 38.8261 118.985 38.6021 119.078C38.3875 119.171 38.1915 119.311 38.0141 119.498C37.8368 119.675 37.6875 119.895 37.5661 120.156C37.4541 120.417 37.3795 120.716 37.3421 121.052ZM46.6814 125.168C46.3641 125.168 46.0328 125.093 45.6874 124.944C45.3514 124.785 45.0341 124.571 44.7354 124.3H44.6934L44.5954 125H43.6714V115.032H44.8194V117.748L44.7914 118.98C45.0994 118.709 45.4354 118.485 45.7994 118.308C46.1634 118.121 46.5368 118.028 46.9194 118.028C47.3581 118.028 47.7454 118.112 48.0814 118.28C48.4174 118.439 48.6974 118.672 48.9214 118.98C49.1548 119.279 49.3274 119.643 49.4394 120.072C49.5608 120.492 49.6214 120.963 49.6214 121.486C49.6214 122.065 49.5421 122.583 49.3834 123.04C49.2248 123.497 49.0101 123.885 48.7394 124.202C48.4688 124.519 48.1561 124.762 47.8014 124.93C47.4468 125.089 47.0734 125.168 46.6814 125.168ZM46.4854 124.202C46.7654 124.202 47.0221 124.141 47.2554 124.02C47.4981 123.889 47.7034 123.712 47.8714 123.488C48.0488 123.255 48.1841 122.97 48.2774 122.634C48.3801 122.298 48.4314 121.92 48.4314 121.5C48.4314 121.127 48.3988 120.786 48.3334 120.478C48.2681 120.17 48.1608 119.909 48.0114 119.694C47.8714 119.47 47.6848 119.297 47.4514 119.176C47.2274 119.055 46.9568 118.994 46.6394 118.994C46.0888 118.994 45.4821 119.302 44.8194 119.918V123.488C45.1181 123.749 45.4121 123.936 45.7014 124.048C46.0001 124.151 46.2614 124.202 46.4854 124.202ZM54.0557 125.168C53.6357 125.168 53.2344 125.089 52.8517 124.93C52.4784 124.771 52.1471 124.543 51.8577 124.244C51.5684 123.936 51.3351 123.563 51.1577 123.124C50.9897 122.676 50.9057 122.172 50.9057 121.612C50.9057 121.043 50.9897 120.539 51.1577 120.1C51.3351 119.652 51.5684 119.274 51.8577 118.966C52.1471 118.658 52.4784 118.425 52.8517 118.266C53.2344 118.107 53.6357 118.028 54.0557 118.028C54.4757 118.028 54.8724 118.107 55.2457 118.266C55.6284 118.425 55.9644 118.658 56.2537 118.966C56.5431 119.274 56.7717 119.652 56.9397 120.1C57.1171 120.539 57.2057 121.043 57.2057 121.612C57.2057 122.172 57.1171 122.676 56.9397 123.124C56.7717 123.563 56.5431 123.936 56.2537 124.244C55.9644 124.543 55.6284 124.771 55.2457 124.93C54.8724 125.089 54.4757 125.168 54.0557 125.168ZM54.0557 124.216C54.3451 124.216 54.6111 124.155 54.8537 124.034C55.0964 123.903 55.3017 123.726 55.4697 123.502C55.6471 123.269 55.7824 122.993 55.8757 122.676C55.9691 122.359 56.0157 122.004 56.0157 121.612C56.0157 121.22 55.9691 120.865 55.8757 120.548C55.7824 120.221 55.6471 119.941 55.4697 119.708C55.3017 119.475 55.0964 119.297 54.8537 119.176C54.6111 119.045 54.3451 118.98 54.0557 118.98C53.7664 118.98 53.5004 119.045 53.2577 119.176C53.0151 119.297 52.8051 119.475 52.6277 119.708C52.4597 119.941 52.3291 120.221 52.2357 120.548C52.1424 120.865 52.0957 121.22 52.0957 121.612C52.0957 122.004 52.1424 122.359 52.2357 122.676C52.3291 122.993 52.4597 123.269 52.6277 123.502C52.8051 123.726 53.0151 123.903 53.2577 124.034C53.5004 124.155 53.7664 124.216 54.0557 124.216ZM61.6436 125.168C61.2236 125.168 60.8223 125.089 60.4396 124.93C60.0663 124.771 59.7349 124.543 59.4456 124.244C59.1563 123.936 58.9229 123.563 58.7456 123.124C58.5776 122.676 58.4936 122.172 58.4936 121.612C58.4936 121.043 58.5776 120.539 58.7456 120.1C58.9229 119.652 59.1563 119.274 59.4456 118.966C59.7349 118.658 60.0663 118.425 60.4396 118.266C60.8223 118.107 61.2236 118.028 61.6436 118.028C62.0636 118.028 62.4603 118.107 62.8336 118.266C63.2163 118.425 63.5523 118.658 63.8416 118.966C64.1309 119.274 64.3596 119.652 64.5276 120.1C64.7049 120.539 64.7936 121.043 64.7936 121.612C64.7936 122.172 64.7049 122.676 64.5276 123.124C64.3596 123.563 64.1309 123.936 63.8416 124.244C63.5523 124.543 63.2163 124.771 62.8336 124.93C62.4603 125.089 62.0636 125.168 61.6436 125.168ZM61.6436 124.216C61.9329 124.216 62.1989 124.155 62.4416 124.034C62.6843 123.903 62.8896 123.726 63.0576 123.502C63.2349 123.269 63.3703 122.993 63.4636 122.676C63.5569 122.359 63.6036 122.004 63.6036 121.612C63.6036 121.22 63.5569 120.865 63.4636 120.548C63.3703 120.221 63.2349 119.941 63.0576 119.708C62.8896 119.475 62.6843 119.297 62.4416 119.176C62.1989 119.045 61.9329 118.98 61.6436 118.98C61.3543 118.98 61.0883 119.045 60.8456 119.176C60.6029 119.297 60.3929 119.475 60.2156 119.708C60.0476 119.941 59.9169 120.221 59.8236 120.548C59.7303 120.865 59.6836 121.22 59.6836 121.612C59.6836 122.004 59.7303 122.359 59.8236 122.676C59.9169 122.993 60.0476 123.269 60.2156 123.502C60.3929 123.726 60.6029 123.903 60.8456 124.034C61.0883 124.155 61.3543 124.216 61.6436 124.216ZM66.5855 125V115.032H67.7195V121.78H67.7615L70.6595 118.196H71.9335L69.6515 120.926L72.2415 125H70.9815L68.9935 121.724L67.7195 123.208V125H66.5855Z" fill="#3B3E49"/>
<path d="M4 145H274V194H4V145Z" fill="#F9F9FB"/>
<path d="M19.164 174V165.796H16.392V164.816H23.112V165.796H20.34V174H19.164ZM25.2533 174L23.3633 167.196H24.5393L25.5473 171.13C25.622 171.457 25.692 171.774 25.7573 172.082C25.8227 172.39 25.888 172.703 25.9533 173.02H26.0093C26.084 172.703 26.1587 172.39 26.2333 172.082C26.308 171.765 26.3873 171.447 26.4713 171.13L27.5213 167.196H28.6413L29.7053 171.13C29.7893 171.457 29.8687 171.774 29.9433 172.082C30.0273 172.39 30.1067 172.703 30.1813 173.02H30.2373C30.312 172.703 30.382 172.39 30.4473 172.082C30.5127 171.774 30.5827 171.457 30.6573 171.13L31.6513 167.196H32.7433L30.9233 174H29.5233L28.5433 170.346C28.4593 170.019 28.38 169.697 28.3053 169.38C28.24 169.063 28.1653 168.731 28.0813 168.386H28.0253C27.9507 168.731 27.876 169.067 27.8013 169.394C27.7267 169.711 27.6427 170.033 27.5493 170.36L26.5973 174H25.2533ZM34.2242 174V167.196H35.3722V174H34.2242ZM34.8122 165.796C34.5882 165.796 34.3968 165.726 34.2382 165.586C34.0888 165.446 34.0142 165.269 34.0142 165.054C34.0142 164.83 34.0888 164.653 34.2382 164.522C34.3968 164.382 34.5882 164.312 34.8122 164.312C35.0362 164.312 35.2228 164.382 35.3722 164.522C35.5308 164.653 35.6102 164.83 35.6102 165.054C35.6102 165.269 35.5308 165.446 35.3722 165.586C35.2228 165.726 35.0362 165.796 34.8122 165.796ZM39.8115 174.168C39.4475 174.168 39.1395 174.112 38.8875 174C38.6448 173.888 38.4442 173.734 38.2855 173.538C38.1362 173.342 38.0288 173.104 37.9635 172.824C37.8982 172.544 37.8655 172.236 37.8655 171.9V168.134H36.8575V167.266L37.9215 167.196L38.0615 165.292H39.0275V167.196H40.8615V168.134H39.0275V171.914C39.0275 172.334 39.1022 172.661 39.2515 172.894C39.4102 173.118 39.6855 173.23 40.0775 173.23C40.1988 173.23 40.3295 173.211 40.4695 173.174C40.6095 173.137 40.7355 173.095 40.8475 173.048L41.0715 173.916C40.8848 173.981 40.6795 174.037 40.4555 174.084C40.2408 174.14 40.0262 174.168 39.8115 174.168ZM44.2685 174.168C43.9045 174.168 43.5965 174.112 43.3445 174C43.1018 173.888 42.9012 173.734 42.7425 173.538C42.5932 173.342 42.4858 173.104 42.4205 172.824C42.3552 172.544 42.3225 172.236 42.3225 171.9V168.134H41.3145V167.266L42.3785 167.196L42.5185 165.292H43.4845V167.196H45.3185V168.134H43.4845V171.914C43.4845 172.334 43.5592 172.661 43.7085 172.894C43.8672 173.118 44.1425 173.23 44.5345 173.23C44.6558 173.23 44.7865 173.211 44.9265 173.174C45.0665 173.137 45.1925 173.095 45.3045 173.048L45.5285 173.916C45.3418 173.981 45.1365 174.037 44.9125 174.084C44.6978 174.14 44.4832 174.168 44.2685 174.168ZM49.4236 174.168C48.9662 174.168 48.5369 174.089 48.1356 173.93C47.7436 173.762 47.3982 173.529 47.0996 173.23C46.8102 172.922 46.5816 172.549 46.4136 172.11C46.2456 171.671 46.1616 171.172 46.1616 170.612C46.1616 170.052 46.2456 169.553 46.4136 169.114C46.5909 168.666 46.8196 168.288 47.0996 167.98C47.3889 167.672 47.7156 167.439 48.0796 167.28C48.4436 167.112 48.8216 167.028 49.2136 167.028C49.6429 167.028 50.0256 167.103 50.3616 167.252C50.7069 167.401 50.9916 167.616 51.2156 167.896C51.4489 168.176 51.6262 168.512 51.7476 168.904C51.8689 169.296 51.9296 169.735 51.9296 170.22C51.9296 170.341 51.9249 170.463 51.9156 170.584C51.9156 170.696 51.9062 170.794 51.8876 170.878H47.2956C47.3422 171.606 47.5662 172.185 47.9676 172.614C48.3782 173.034 48.9102 173.244 49.5636 173.244C49.8902 173.244 50.1889 173.197 50.4596 173.104C50.7396 173.001 51.0056 172.871 51.2576 172.712L51.6636 173.468C51.3649 173.655 51.0336 173.818 50.6696 173.958C50.3056 174.098 49.8902 174.168 49.4236 174.168ZM47.2816 170.052H50.9216C50.9216 169.361 50.7722 168.839 50.4736 168.484C50.1842 168.12 49.7736 167.938 49.2416 167.938C48.9989 167.938 48.7656 167.985 48.5416 168.078C48.3269 168.171 48.1309 168.311 47.9536 168.498C47.7762 168.675 47.6269 168.895 47.5056 169.156C47.3936 169.417 47.3189 169.716 47.2816 170.052ZM53.6109 174V167.196H54.5629L54.6609 168.428H54.7029C54.9362 167.999 55.2162 167.658 55.5429 167.406C55.8789 167.154 56.2429 167.028 56.6349 167.028C56.9056 167.028 57.1482 167.075 57.3629 167.168L57.1389 168.176C57.0269 168.139 56.9242 168.111 56.8309 168.092C56.7376 168.073 56.6209 168.064 56.4809 168.064C56.1916 168.064 55.8882 168.181 55.5709 168.414C55.2629 168.647 54.9922 169.053 54.7589 169.632V174H53.6109Z" fill="#3B3E49"/>
<rect x="274" y="4" width="262" height="43" fill="#F2F3F7"/>
<g clip-path="url(#clip1)">
<path d="M284.178 22.829H285.19C286.18 22.829 286.708 23.115 286.708 23.94C286.708 24.754 286.18 25.172 285.19 25.172H284.178V22.829ZM288.248 29L286.532 25.997C287.401 25.7 287.973 25.04 287.973 23.94C287.973 22.334 286.818 21.806 285.322 21.806H282.902V29H284.178V26.184H285.267L286.818 29H288.248ZM289.455 29H293.888V27.922H290.731V25.799H293.316V24.721H290.731V22.884H293.778V21.806H289.455V29ZM296.607 29H298.125L300.347 21.806H299.049L298.048 25.425C297.817 26.239 297.652 26.943 297.41 27.768H297.366C297.124 26.943 296.97 26.239 296.739 25.425L295.727 21.806H294.374L296.607 29ZM301.196 29H305.629V27.922H302.472V25.799H305.057V24.721H302.472V22.884H305.519V21.806H301.196V29ZM307.072 29H308.282V25.854C308.282 25.051 308.183 24.182 308.117 23.423H308.161L308.909 24.952L311.142 29H312.451V21.806H311.241V24.93C311.241 25.733 311.34 26.646 311.406 27.383H311.362L310.614 25.854L308.381 21.806H307.072V29ZM314.214 25.843C314.214 28.208 315.281 29.132 316.953 29.132C318.614 29.132 319.67 28.208 319.67 25.843V21.806H318.438V25.942C318.438 27.504 317.833 28.021 316.953 28.021C316.084 28.021 315.49 27.504 315.49 25.942V21.806H314.214V25.843ZM321.434 29H325.867V27.922H322.71V25.799H325.295V24.721H322.71V22.884H325.757V21.806H321.434V29Z" fill="#72778D"/>
<path d="M336 27L332 23H339.75L336 27Z" fill="#72778D"/>
</g>
<rect x="535" y="4" width="1" height="43" fill="white"/>
<rect x="274" y="46" width="262" height="1" fill="white"/>
<path d="M274 47H536V96H274V47Z" fill="#D1EAEE"/>
<path d="M289.108 77.54V76.154C288.66 76.1073 288.226 75.986 287.806 75.79C287.386 75.5847 287.027 75.3467 286.728 75.076L287.26 74.278C287.559 74.5393 287.885 74.7633 288.24 74.95C288.604 75.1273 289.001 75.216 289.43 75.216C289.953 75.216 290.34 75.0853 290.592 74.824C290.853 74.5627 290.984 74.2127 290.984 73.774C290.984 73.4007 290.886 73.0927 290.69 72.85C290.503 72.598 290.265 72.3833 289.976 72.206C289.687 72.0193 289.369 71.8467 289.024 71.688C288.688 71.5293 288.375 71.3473 288.086 71.142C287.797 70.9367 287.554 70.6893 287.358 70.4C287.171 70.1013 287.078 69.7233 287.078 69.266C287.078 68.6407 287.26 68.1227 287.624 67.712C287.997 67.292 288.492 67.0353 289.108 66.942V65.528H289.948V66.914C290.396 66.9607 290.774 67.082 291.082 67.278C291.399 67.474 291.684 67.7073 291.936 67.978L291.32 68.664C291.059 68.412 290.802 68.216 290.55 68.076C290.307 67.936 289.995 67.866 289.612 67.866C289.183 67.866 288.842 67.9873 288.59 68.23C288.338 68.4727 288.212 68.7993 288.212 69.21C288.212 69.546 288.305 69.8213 288.492 70.036C288.688 70.2507 288.931 70.442 289.22 70.61C289.509 70.7687 289.822 70.9273 290.158 71.086C290.503 71.2353 290.821 71.422 291.11 71.646C291.399 71.8607 291.637 72.1313 291.824 72.458C292.02 72.7753 292.118 73.186 292.118 73.69C292.118 74.362 291.922 74.9127 291.53 75.342C291.147 75.7713 290.62 76.0327 289.948 76.126V77.54H289.108ZM294.065 76V75.048H296.109V68.468H294.485V67.726C294.896 67.6513 295.25 67.5627 295.549 67.46C295.857 67.348 296.132 67.2173 296.375 67.068H297.257V75.048H299.105V76H294.065ZM300.856 78.38L300.576 77.708C300.977 77.5307 301.29 77.2927 301.514 76.994C301.738 76.7047 301.845 76.3733 301.836 76C301.808 76.0093 301.761 76.014 301.696 76.014C301.472 76.014 301.276 75.9487 301.108 75.818C300.949 75.678 300.87 75.4773 300.87 75.216C300.87 74.964 300.954 74.768 301.122 74.628C301.29 74.4787 301.491 74.404 301.724 74.404C302.023 74.404 302.256 74.5253 302.424 74.768C302.601 75.0107 302.69 75.342 302.69 75.762C302.69 76.3687 302.527 76.896 302.2 77.344C301.873 77.792 301.425 78.1373 300.856 78.38ZM307.66 76V73.536H303.642V72.78L307.464 67.068H308.752V72.612H309.97V73.536H308.752V76H307.66ZM304.86 72.612H307.66V70.022C307.66 69.7793 307.665 69.4947 307.674 69.168C307.693 68.832 307.712 68.5427 307.73 68.3H307.674C307.562 68.5147 307.446 68.7247 307.324 68.93C307.203 69.1353 307.077 69.3453 306.946 69.56L304.86 72.612ZM313.653 71.66C313.952 71.66 314.265 71.5667 314.591 71.38C314.927 71.1933 315.24 70.89 315.529 70.47C315.455 69.5927 315.249 68.93 314.913 68.482C314.577 68.034 314.125 67.81 313.555 67.81C313.341 67.81 313.135 67.8567 312.939 67.95C312.753 68.0433 312.589 68.1787 312.449 68.356C312.309 68.524 312.197 68.7293 312.113 68.972C312.039 69.2147 312.001 69.4807 312.001 69.77C312.001 70.358 312.137 70.82 312.407 71.156C312.678 71.492 313.093 71.66 313.653 71.66ZM313.233 76.168C312.757 76.168 312.337 76.0793 311.973 75.902C311.619 75.7247 311.32 75.5007 311.077 75.23L311.721 74.502C311.908 74.7167 312.127 74.8893 312.379 75.02C312.641 75.1507 312.911 75.216 313.191 75.216C313.509 75.216 313.807 75.1507 314.087 75.02C314.367 74.8893 314.615 74.6747 314.829 74.376C315.044 74.068 315.217 73.6713 315.347 73.186C315.478 72.7007 315.548 72.0987 315.557 71.38C315.277 71.7347 314.951 72.0147 314.577 72.22C314.204 72.4253 313.831 72.528 313.457 72.528C312.683 72.528 312.067 72.2993 311.609 71.842C311.152 71.3847 310.923 70.694 310.923 69.77C310.923 69.3407 310.993 68.9533 311.133 68.608C311.273 68.2533 311.46 67.95 311.693 67.698C311.936 67.446 312.216 67.25 312.533 67.11C312.86 66.97 313.201 66.9 313.555 66.9C313.994 66.9 314.4 66.9887 314.773 67.166C315.156 67.3433 315.483 67.614 315.753 67.978C316.033 68.3327 316.248 68.7807 316.397 69.322C316.556 69.854 316.635 70.4793 316.635 71.198C316.635 72.094 316.542 72.8593 316.355 73.494C316.169 74.1193 315.917 74.6327 315.599 75.034C315.282 75.426 314.918 75.7153 314.507 75.902C314.106 76.0793 313.681 76.168 313.233 76.168ZM321.074 76.168C320.636 76.168 320.23 76.0793 319.856 75.902C319.483 75.7247 319.156 75.4587 318.876 75.104C318.606 74.74 318.391 74.292 318.232 73.76C318.074 73.2187 317.994 72.5887 317.994 71.87C317.994 70.974 318.088 70.2133 318.274 69.588C318.461 68.9533 318.713 68.44 319.03 68.048C319.348 67.6467 319.707 67.3573 320.108 67.18C320.519 66.9933 320.948 66.9 321.396 66.9C321.882 66.9 322.297 66.9933 322.642 67.18C322.997 67.3573 323.3 67.5813 323.552 67.852L322.908 68.566C322.722 68.3513 322.498 68.1833 322.236 68.062C321.984 67.9313 321.718 67.866 321.438 67.866C321.13 67.866 320.836 67.9313 320.556 68.062C320.276 68.1927 320.029 68.4073 319.814 68.706C319.6 69.0047 319.427 69.3967 319.296 69.882C319.166 70.358 319.096 70.9507 319.086 71.66C319.366 71.3147 319.693 71.044 320.066 70.848C320.44 70.6427 320.808 70.54 321.172 70.54C321.947 70.54 322.563 70.7687 323.02 71.226C323.487 71.6833 323.72 72.374 323.72 73.298C323.72 73.7273 323.65 74.1193 323.51 74.474C323.37 74.8193 323.179 75.118 322.936 75.37C322.694 75.622 322.414 75.818 322.096 75.958C321.779 76.098 321.438 76.168 321.074 76.168ZM321.074 75.258C321.298 75.258 321.504 75.2113 321.69 75.118C321.877 75.0247 322.04 74.894 322.18 74.726C322.32 74.5487 322.428 74.3433 322.502 74.11C322.586 73.8673 322.628 73.5967 322.628 73.298C322.628 72.71 322.493 72.248 322.222 71.912C321.952 71.576 321.536 71.408 320.976 71.408C320.687 71.408 320.374 71.5013 320.038 71.688C319.702 71.8653 319.394 72.164 319.114 72.584C319.189 73.4613 319.39 74.1287 319.716 74.586C320.052 75.034 320.505 75.258 321.074 75.258ZM326.031 76.168C325.798 76.168 325.597 76.0887 325.429 75.93C325.271 75.762 325.191 75.552 325.191 75.3C325.191 75.0293 325.271 74.8147 325.429 74.656C325.597 74.488 325.798 74.404 326.031 74.404C326.255 74.404 326.447 74.488 326.605 74.656C326.773 74.8147 326.857 75.0293 326.857 75.3C326.857 75.552 326.773 75.762 326.605 75.93C326.447 76.0887 326.255 76.168 326.031 76.168ZM332.024 76V73.536H328.006V72.78L331.828 67.068H333.116V72.612H334.334V73.536H333.116V76H332.024ZM329.224 72.612H332.024V70.022C332.024 69.7793 332.028 69.4947 332.038 69.168C332.056 68.832 332.075 68.5427 332.094 68.3H332.038C331.926 68.5147 331.809 68.7247 331.688 68.93C331.566 69.1353 331.44 69.3453 331.31 69.56L329.224 72.612ZM337.205 76C337.242 75.16 337.317 74.39 337.429 73.69C337.541 72.99 337.695 72.3273 337.891 71.702C338.096 71.0673 338.353 70.456 338.661 69.868C338.978 69.28 339.356 68.678 339.795 68.062H335.343V67.068H341.097V67.782C340.565 68.454 340.131 69.098 339.795 69.714C339.468 70.33 339.207 70.96 339.011 71.604C338.815 72.2387 338.67 72.9153 338.577 73.634C338.493 74.3433 338.432 75.132 338.395 76H337.205Z" fill="#3B3E49"/>
<path d="M274 96H536V145H274V96Z" fill="white"/>
<path d="M289.108 126.54V125.154C288.66 125.107 288.226 124.986 287.806 124.79C287.386 124.585 287.027 124.347 286.728 124.076L287.26 123.278C287.559 123.539 287.885 123.763 288.24 123.95C288.604 124.127 289.001 124.216 289.43 124.216C289.953 124.216 290.34 124.085 290.592 123.824C290.853 123.563 290.984 123.213 290.984 122.774C290.984 122.401 290.886 122.093 290.69 121.85C290.503 121.598 290.265 121.383 289.976 121.206C289.687 121.019 289.369 120.847 289.024 120.688C288.688 120.529 288.375 120.347 288.086 120.142C287.797 119.937 287.554 119.689 287.358 119.4C287.171 119.101 287.078 118.723 287.078 118.266C287.078 117.641 287.26 117.123 287.624 116.712C287.997 116.292 288.492 116.035 289.108 115.942V114.528H289.948V115.914C290.396 115.961 290.774 116.082 291.082 116.278C291.399 116.474 291.684 116.707 291.936 116.978L291.32 117.664C291.059 117.412 290.802 117.216 290.55 117.076C290.307 116.936 289.995 116.866 289.612 116.866C289.183 116.866 288.842 116.987 288.59 117.23C288.338 117.473 288.212 117.799 288.212 118.21C288.212 118.546 288.305 118.821 288.492 119.036C288.688 119.251 288.931 119.442 289.22 119.61C289.509 119.769 289.822 119.927 290.158 120.086C290.503 120.235 290.821 120.422 291.11 120.646C291.399 120.861 291.637 121.131 291.824 121.458C292.02 121.775 292.118 122.186 292.118 122.69C292.118 123.362 291.922 123.913 291.53 124.342C291.147 124.771 290.62 125.033 289.948 125.126V126.54H289.108ZM295.437 125C295.474 124.16 295.549 123.39 295.661 122.69C295.773 121.99 295.927 121.327 296.123 120.702C296.328 120.067 296.585 119.456 296.893 118.868C297.21 118.28 297.588 117.678 298.027 117.062H293.575V116.068H299.329V116.782C298.797 117.454 298.363 118.098 298.027 118.714C297.7 119.33 297.439 119.96 297.243 120.604C297.047 121.239 296.902 121.915 296.809 122.634C296.725 123.343 296.664 124.132 296.627 125H295.437ZM304.174 125V122.536H300.156V121.78L303.978 116.068H305.266V121.612H306.484V122.536H305.266V125H304.174ZM301.374 121.612H304.174V119.022C304.174 118.779 304.179 118.495 304.188 118.168C304.207 117.832 304.225 117.543 304.244 117.3H304.188C304.076 117.515 303.959 117.725 303.838 117.93C303.717 118.135 303.591 118.345 303.46 118.56L301.374 121.612ZM310.629 125.168C310.19 125.168 309.784 125.079 309.411 124.902C309.038 124.725 308.711 124.459 308.431 124.104C308.16 123.74 307.946 123.292 307.787 122.76C307.628 122.219 307.549 121.589 307.549 120.87C307.549 119.974 307.642 119.213 307.829 118.588C308.016 117.953 308.268 117.44 308.585 117.048C308.902 116.647 309.262 116.357 309.663 116.18C310.074 115.993 310.503 115.9 310.951 115.9C311.436 115.9 311.852 115.993 312.197 116.18C312.552 116.357 312.855 116.581 313.107 116.852L312.463 117.566C312.276 117.351 312.052 117.183 311.791 117.062C311.539 116.931 311.273 116.866 310.993 116.866C310.685 116.866 310.391 116.931 310.111 117.062C309.831 117.193 309.584 117.407 309.369 117.706C309.154 118.005 308.982 118.397 308.851 118.882C308.72 119.358 308.65 119.951 308.641 120.66C308.921 120.315 309.248 120.044 309.621 119.848C309.994 119.643 310.363 119.54 310.727 119.54C311.502 119.54 312.118 119.769 312.575 120.226C313.042 120.683 313.275 121.374 313.275 122.298C313.275 122.727 313.205 123.119 313.065 123.474C312.925 123.819 312.734 124.118 312.491 124.37C312.248 124.622 311.968 124.818 311.651 124.958C311.334 125.098 310.993 125.168 310.629 125.168ZM310.629 124.258C310.853 124.258 311.058 124.211 311.245 124.118C311.432 124.025 311.595 123.894 311.735 123.726C311.875 123.549 311.982 123.343 312.057 123.11C312.141 122.867 312.183 122.597 312.183 122.298C312.183 121.71 312.048 121.248 311.777 120.912C311.506 120.576 311.091 120.408 310.531 120.408C310.242 120.408 309.929 120.501 309.593 120.688C309.257 120.865 308.949 121.164 308.669 121.584C308.744 122.461 308.944 123.129 309.271 123.586C309.607 124.034 310.06 124.258 310.629 124.258ZM315.586 125.168C315.353 125.168 315.152 125.089 314.984 124.93C314.825 124.762 314.746 124.552 314.746 124.3C314.746 124.029 314.825 123.815 314.984 123.656C315.152 123.488 315.353 123.404 315.586 123.404C315.81 123.404 316.001 123.488 316.16 123.656C316.328 123.815 316.412 124.029 316.412 124.3C316.412 124.552 316.328 124.762 316.16 124.93C316.001 125.089 315.81 125.168 315.586 125.168ZM318.428 125V124.048H320.472V117.468H318.848V116.726C319.259 116.651 319.614 116.563 319.912 116.46C320.22 116.348 320.496 116.217 320.738 116.068H321.62V124.048H323.468V125H318.428ZM327.781 125.168C327.361 125.168 326.969 125.107 326.605 124.986C326.251 124.865 325.943 124.697 325.681 124.482C325.429 124.258 325.229 123.997 325.079 123.698C324.93 123.399 324.855 123.073 324.855 122.718C324.855 122.429 324.902 122.163 324.995 121.92C325.098 121.668 325.224 121.444 325.373 121.248C325.532 121.043 325.709 120.865 325.905 120.716C326.111 120.557 326.321 120.422 326.535 120.31V120.254C326.209 120.021 325.919 119.741 325.667 119.414C325.415 119.078 325.289 118.672 325.289 118.196C325.289 117.851 325.355 117.538 325.485 117.258C325.616 116.978 325.793 116.74 326.017 116.544C326.241 116.339 326.507 116.18 326.815 116.068C327.123 115.956 327.459 115.9 327.823 115.9C328.215 115.9 328.565 115.961 328.873 116.082C329.181 116.194 329.443 116.357 329.657 116.572C329.881 116.777 330.049 117.029 330.161 117.328C330.283 117.617 330.343 117.935 330.343 118.28C330.343 118.513 330.301 118.737 330.217 118.952C330.143 119.167 330.045 119.367 329.923 119.554C329.811 119.741 329.681 119.909 329.531 120.058C329.391 120.207 329.251 120.333 329.111 120.436V120.492C329.307 120.604 329.499 120.735 329.685 120.884C329.872 121.024 330.035 121.187 330.175 121.374C330.325 121.551 330.441 121.757 330.525 121.99C330.619 122.223 330.665 122.489 330.665 122.788C330.665 123.124 330.595 123.437 330.455 123.726C330.315 124.015 330.119 124.267 329.867 124.482C329.615 124.697 329.312 124.865 328.957 124.986C328.603 125.107 328.211 125.168 327.781 125.168ZM328.411 120.128C328.71 119.857 328.939 119.573 329.097 119.274C329.265 118.975 329.349 118.663 329.349 118.336C329.349 117.888 329.214 117.515 328.943 117.216C328.673 116.908 328.29 116.754 327.795 116.754C327.375 116.754 327.03 116.885 326.759 117.146C326.489 117.407 326.353 117.757 326.353 118.196C326.353 118.467 326.409 118.7 326.521 118.896C326.633 119.083 326.783 119.251 326.969 119.4C327.165 119.549 327.385 119.685 327.627 119.806C327.879 119.918 328.141 120.025 328.411 120.128ZM327.809 124.314C328.332 124.314 328.752 124.169 329.069 123.88C329.396 123.591 329.559 123.213 329.559 122.746C329.559 122.457 329.494 122.209 329.363 122.004C329.233 121.799 329.055 121.621 328.831 121.472C328.607 121.313 328.346 121.173 328.047 121.052C327.758 120.921 327.455 120.791 327.137 120.66C326.783 120.903 326.484 121.187 326.241 121.514C326.008 121.831 325.891 122.195 325.891 122.606C325.891 122.858 325.938 123.087 326.031 123.292C326.134 123.497 326.269 123.679 326.437 123.838C326.615 123.987 326.82 124.104 327.053 124.188C327.287 124.272 327.539 124.314 327.809 124.314Z" fill="#3B3E49"/>
<path d="M274 145H536V194H274V145Z" fill="#F9F9FB"/>
<path d="M289.108 175.54V174.154C288.66 174.107 288.226 173.986 287.806 173.79C287.386 173.585 287.027 173.347 286.728 173.076L287.26 172.278C287.559 172.539 287.885 172.763 288.24 172.95C288.604 173.127 289.001 173.216 289.43 173.216C289.953 173.216 290.34 173.085 290.592 172.824C290.853 172.563 290.984 172.213 290.984 171.774C290.984 171.401 290.886 171.093 290.69 170.85C290.503 170.598 290.265 170.383 289.976 170.206C289.687 170.019 289.369 169.847 289.024 169.688C288.688 169.529 288.375 169.347 288.086 169.142C287.797 168.937 287.554 168.689 287.358 168.4C287.171 168.101 287.078 167.723 287.078 167.266C287.078 166.641 287.26 166.123 287.624 165.712C287.997 165.292 288.492 165.035 289.108 164.942V163.528H289.948V164.914C290.396 164.961 290.774 165.082 291.082 165.278C291.399 165.474 291.684 165.707 291.936 165.978L291.32 166.664C291.059 166.412 290.802 166.216 290.55 166.076C290.307 165.936 289.995 165.866 289.612 165.866C289.183 165.866 288.842 165.987 288.59 166.23C288.338 166.473 288.212 166.799 288.212 167.21C288.212 167.546 288.305 167.821 288.492 168.036C288.688 168.251 288.931 168.442 289.22 168.61C289.509 168.769 289.822 168.927 290.158 169.086C290.503 169.235 290.821 169.422 291.11 169.646C291.399 169.861 291.637 170.131 291.824 170.458C292.02 170.775 292.118 171.186 292.118 171.69C292.118 172.362 291.922 172.913 291.53 173.342C291.147 173.771 290.62 174.033 289.948 174.126V175.54H289.108ZM295.437 174C295.474 173.16 295.549 172.39 295.661 171.69C295.773 170.99 295.927 170.327 296.123 169.702C296.328 169.067 296.585 168.456 296.893 167.868C297.21 167.28 297.588 166.678 298.027 166.062H293.575V165.068H299.329V165.782C298.797 166.454 298.363 167.098 298.027 167.714C297.7 168.33 297.439 168.96 297.243 169.604C297.047 170.239 296.902 170.915 296.809 171.634C296.725 172.343 296.664 173.132 296.627 174H295.437ZM303.194 174.168C302.839 174.168 302.513 174.131 302.214 174.056C301.925 173.991 301.659 173.902 301.416 173.79C301.183 173.678 300.968 173.552 300.772 173.412C300.585 173.263 300.417 173.109 300.268 172.95L300.828 172.194C301.089 172.465 301.397 172.703 301.752 172.908C302.116 173.113 302.559 173.216 303.082 173.216C303.353 173.216 303.605 173.169 303.838 173.076C304.081 172.973 304.291 172.833 304.468 172.656C304.645 172.479 304.785 172.264 304.888 172.012C304.991 171.76 305.042 171.48 305.042 171.172C305.042 170.556 304.869 170.075 304.524 169.73C304.179 169.385 303.717 169.212 303.138 169.212C302.83 169.212 302.564 169.259 302.34 169.352C302.125 169.445 301.883 169.581 301.612 169.758L300.996 169.366L301.29 165.068H305.756V166.062H302.298L302.06 168.708C302.275 168.596 302.489 168.507 302.704 168.442C302.919 168.377 303.161 168.344 303.432 168.344C303.815 168.344 304.174 168.4 304.51 168.512C304.846 168.624 305.14 168.797 305.392 169.03C305.644 169.254 305.84 169.543 305.98 169.898C306.129 170.243 306.204 170.659 306.204 171.144C306.204 171.629 306.12 172.059 305.952 172.432C305.784 172.805 305.56 173.123 305.28 173.384C305 173.636 304.678 173.832 304.314 173.972C303.959 174.103 303.586 174.168 303.194 174.168ZM310.363 174.168C309.458 174.168 308.753 173.767 308.249 172.964C307.745 172.161 307.493 171.009 307.493 169.506C307.493 168.003 307.745 166.86 308.249 166.076C308.753 165.292 309.458 164.9 310.363 164.9C311.259 164.9 311.959 165.292 312.463 166.076C312.967 166.86 313.219 168.003 313.219 169.506C313.219 171.009 312.967 172.161 312.463 172.964C311.959 173.767 311.259 174.168 310.363 174.168ZM310.363 173.244C310.624 173.244 310.858 173.174 311.063 173.034C311.278 172.885 311.46 172.661 311.609 172.362C311.768 172.054 311.889 171.667 311.973 171.2C312.057 170.724 312.099 170.159 312.099 169.506C312.099 168.853 312.057 168.293 311.973 167.826C311.889 167.359 311.768 166.981 311.609 166.692C311.46 166.393 311.278 166.174 311.063 166.034C310.858 165.894 310.624 165.824 310.363 165.824C310.102 165.824 309.864 165.894 309.649 166.034C309.434 166.174 309.248 166.393 309.089 166.692C308.94 166.981 308.823 167.359 308.739 167.826C308.655 168.293 308.613 168.853 308.613 169.506C308.613 170.813 308.772 171.765 309.089 172.362C309.416 172.95 309.84 173.244 310.363 173.244ZM315.586 174.168C315.353 174.168 315.152 174.089 314.984 173.93C314.825 173.762 314.746 173.552 314.746 173.3C314.746 173.029 314.825 172.815 314.984 172.656C315.152 172.488 315.353 172.404 315.586 172.404C315.81 172.404 316.001 172.488 316.16 172.656C316.328 172.815 316.412 173.029 316.412 173.3C316.412 173.552 316.328 173.762 316.16 173.93C316.001 174.089 315.81 174.168 315.586 174.168ZM317.882 174V173.314C318.554 172.642 319.152 172.035 319.674 171.494C320.197 170.953 320.636 170.453 320.99 169.996C321.345 169.529 321.616 169.105 321.802 168.722C321.989 168.33 322.082 167.952 322.082 167.588C322.082 167.075 321.942 166.655 321.662 166.328C321.382 166.001 320.958 165.838 320.388 165.838C320.015 165.838 319.67 165.945 319.352 166.16C319.035 166.365 318.746 166.617 318.484 166.916L317.826 166.258C318.2 165.847 318.596 165.521 319.016 165.278C319.436 165.026 319.94 164.9 320.528 164.9C321.359 164.9 322.012 165.143 322.488 165.628C322.964 166.104 323.202 166.739 323.202 167.532C323.202 167.952 323.109 168.377 322.922 168.806C322.745 169.226 322.493 169.665 322.166 170.122C321.849 170.57 321.466 171.041 321.018 171.536C320.58 172.021 320.094 172.539 319.562 173.09C319.805 173.071 320.057 173.053 320.318 173.034C320.58 173.015 320.827 173.006 321.06 173.006H323.65V174H317.882ZM327.571 169.66C327.87 169.66 328.183 169.567 328.509 169.38C328.845 169.193 329.158 168.89 329.447 168.47C329.373 167.593 329.167 166.93 328.831 166.482C328.495 166.034 328.043 165.81 327.473 165.81C327.259 165.81 327.053 165.857 326.857 165.95C326.671 166.043 326.507 166.179 326.367 166.356C326.227 166.524 326.115 166.729 326.031 166.972C325.957 167.215 325.919 167.481 325.919 167.77C325.919 168.358 326.055 168.82 326.325 169.156C326.596 169.492 327.011 169.66 327.571 169.66ZM327.151 174.168C326.675 174.168 326.255 174.079 325.891 173.902C325.537 173.725 325.238 173.501 324.995 173.23L325.639 172.502C325.826 172.717 326.045 172.889 326.297 173.02C326.559 173.151 326.829 173.216 327.109 173.216C327.427 173.216 327.725 173.151 328.005 173.02C328.285 172.889 328.533 172.675 328.747 172.376C328.962 172.068 329.135 171.671 329.265 171.186C329.396 170.701 329.466 170.099 329.475 169.38C329.195 169.735 328.869 170.015 328.495 170.22C328.122 170.425 327.749 170.528 327.375 170.528C326.601 170.528 325.985 170.299 325.527 169.842C325.07 169.385 324.841 168.694 324.841 167.77C324.841 167.341 324.911 166.953 325.051 166.608C325.191 166.253 325.378 165.95 325.611 165.698C325.854 165.446 326.134 165.25 326.451 165.11C326.778 164.97 327.119 164.9 327.473 164.9C327.912 164.9 328.318 164.989 328.691 165.166C329.074 165.343 329.401 165.614 329.671 165.978C329.951 166.333 330.166 166.781 330.315 167.322C330.474 167.854 330.553 168.479 330.553 169.198C330.553 170.094 330.46 170.859 330.273 171.494C330.087 172.119 329.835 172.633 329.517 173.034C329.2 173.426 328.836 173.715 328.425 173.902C328.024 174.079 327.599 174.168 327.151 174.168Z" fill="#3B3E49"/>
<rect x="4.5" y="4.5" width="531" height="189" rx="7.5" stroke="#DAE2EA"/>
<defs>
<clipPath id="clip0">
<rect x="12" y="18" width="72.75" height="14" fill="white"/>
</clipPath>
<clipPath id="clip1">
<rect x="282" y="18" width="57.75" height="14" fill="white"/>
</clipPath>
</defs>
</svg>
