<svg width="488" height="242" viewBox="0 0 488 242" fill="none" xmlns="http://www.w3.org/2000/svg">
<rect x="0.5" y="0.5" width="487" height="95" rx="7.5" fill="#F2F3F7" stroke="#D2D9E1"/>
<rect x="81.5" y="6.5" width="386" height="235" fill="white" stroke="#D2D9E1"/>
<path d="M42.3262 25.8027C42.3262 25.4277 42.1934 25.1387 41.9277 24.9355C41.666 24.7324 41.1914 24.5273 40.5039 24.3203C39.8164 24.1133 39.2695 23.8828 38.8633 23.6289C38.0859 23.1406 37.6973 22.5039 37.6973 21.7188C37.6973 21.0312 37.9766 20.4648 38.5352 20.0195C39.0977 19.5742 39.8262 19.3516 40.7207 19.3516C41.3145 19.3516 41.8438 19.4609 42.3086 19.6797C42.7734 19.8984 43.1387 20.2109 43.4043 20.6172C43.6699 21.0195 43.8027 21.4668 43.8027 21.959H42.3262C42.3262 21.5137 42.1855 21.166 41.9043 20.916C41.627 20.6621 41.2285 20.5352 40.709 20.5352C40.2246 20.5352 39.8477 20.6387 39.5781 20.8457C39.3125 21.0527 39.1797 21.3418 39.1797 21.7129C39.1797 22.0254 39.3242 22.2871 39.6133 22.498C39.9023 22.7051 40.3789 22.9082 41.043 23.1074C41.707 23.3027 42.2402 23.5273 42.6426 23.7812C43.0449 24.0312 43.3398 24.3203 43.5273 24.6484C43.7148 24.9727 43.8086 25.3535 43.8086 25.791C43.8086 26.502 43.5352 27.0684 42.9883 27.4902C42.4453 27.9082 41.707 28.1172 40.7734 28.1172C40.1562 28.1172 39.5879 28.0039 39.0684 27.7773C38.5527 27.5469 38.1504 27.2305 37.8613 26.8281C37.5762 26.4258 37.4336 25.957 37.4336 25.4219H38.916C38.916 25.9062 39.0762 26.2812 39.3965 26.5469C39.7168 26.8125 40.1758 26.9453 40.7734 26.9453C41.2891 26.9453 41.6758 26.8418 41.9336 26.6348C42.1953 26.4238 42.3262 26.1465 42.3262 25.8027ZM46.375 22.3516C46.8398 21.8125 47.4277 21.543 48.1387 21.543C49.4902 21.543 50.1758 22.3145 50.1953 23.8574V28H48.7715V23.9102C48.7715 23.4727 48.6758 23.1641 48.4844 22.9844C48.2969 22.8008 48.0195 22.709 47.6523 22.709C47.082 22.709 46.6562 22.9629 46.375 23.4707V28H44.9512V19H46.375V22.3516ZM51.373 24.7715C51.373 24.1504 51.4961 23.5918 51.7422 23.0957C51.9883 22.5957 52.334 22.2129 52.7793 21.9473C53.2246 21.6777 53.7363 21.543 54.3145 21.543C55.1699 21.543 55.8633 21.8184 56.3945 22.3691C56.9297 22.9199 57.2188 23.6504 57.2617 24.5605L57.2676 24.8945C57.2676 25.5195 57.1465 26.0781 56.9043 26.5703C56.666 27.0625 56.3223 27.4434 55.873 27.7129C55.4277 27.9824 54.9121 28.1172 54.3262 28.1172C53.4316 28.1172 52.7148 27.8203 52.1758 27.2266C51.6406 26.6289 51.373 25.834 51.373 24.8418V24.7715ZM52.7969 24.8945C52.7969 25.5469 52.9316 26.0586 53.2012 26.4297C53.4707 26.7969 53.8457 26.9805 54.3262 26.9805C54.8066 26.9805 55.1797 26.793 55.4453 26.418C55.7148 26.043 55.8496 25.4941 55.8496 24.7715C55.8496 24.1309 55.7109 23.623 55.4336 23.248C55.1602 22.873 54.7871 22.6855 54.3145 22.6855C53.8496 22.6855 53.4805 22.8711 53.207 23.2422C52.9336 23.6094 52.7969 24.1602 52.7969 24.8945ZM64.041 26.0371L65.0488 21.6602H66.4375L64.709 28H63.5371L62.1777 23.6465L60.8418 28H59.6699L57.9355 21.6602H59.3242L60.3496 25.9902L61.6504 21.6602H62.7227L64.041 26.0371Z" fill="#5D6069"/>
<path d="M43.2988 73.0371L44.3066 68.6602H45.6953L43.9668 75H42.7949L41.4355 70.6465L40.0996 75H38.9277L37.1934 68.6602H38.582L39.6074 72.9902L40.9082 68.6602H41.9805L43.2988 73.0371ZM48.0508 69.3516C48.5156 68.8125 49.1035 68.543 49.8145 68.543C51.166 68.543 51.8516 69.3145 51.8711 70.8574V75H50.4473V70.9102C50.4473 70.4727 50.3516 70.1641 50.1602 69.9844C49.9727 69.8008 49.6953 69.709 49.3281 69.709C48.7578 69.709 48.332 69.9629 48.0508 70.4707V75H46.627V66H48.0508V69.3516ZM56.1074 75.1172C55.2051 75.1172 54.4727 74.834 53.9102 74.2676C53.3516 73.6973 53.0723 72.9395 53.0723 71.9941V71.8184C53.0723 71.1855 53.1934 70.6211 53.4355 70.125C53.6816 69.625 54.0254 69.2363 54.4668 68.959C54.9082 68.6816 55.4004 68.543 55.9434 68.543C56.8066 68.543 57.4727 68.8184 57.9414 69.3691C58.4141 69.9199 58.6504 70.6992 58.6504 71.707V72.2812H54.5078C54.5508 72.8047 54.7246 73.2188 55.0293 73.5234C55.3379 73.8281 55.7246 73.9805 56.1895 73.9805C56.8418 73.9805 57.373 73.7168 57.7832 73.1895L58.5508 73.9219C58.2969 74.3008 57.957 74.5957 57.5312 74.8066C57.1094 75.0137 56.6348 75.1172 56.1074 75.1172ZM55.9375 69.6855C55.5469 69.6855 55.2305 69.8223 54.9883 70.0957C54.75 70.3691 54.5977 70.75 54.5312 71.2383H57.2441V71.1328C57.2129 70.6562 57.0859 70.2969 56.8633 70.0547C56.6406 69.8086 56.332 69.6855 55.9375 69.6855ZM63.0801 69.9609C62.8926 69.9297 62.6992 69.9141 62.5 69.9141C61.8477 69.9141 61.4082 70.1641 61.1816 70.6641V75H59.7578V68.6602H61.1172L61.1523 69.3691C61.4961 68.8184 61.9727 68.543 62.582 68.543C62.7852 68.543 62.9531 68.5703 63.0859 68.625L63.0801 69.9609ZM66.6543 75.1172C65.752 75.1172 65.0195 74.834 64.457 74.2676C63.8984 73.6973 63.6191 72.9395 63.6191 71.9941V71.8184C63.6191 71.1855 63.7402 70.6211 63.9824 70.125C64.2285 69.625 64.5723 69.2363 65.0137 68.959C65.4551 68.6816 65.9473 68.543 66.4902 68.543C67.3535 68.543 68.0195 68.8184 68.4883 69.3691C68.9609 69.9199 69.1973 70.6992 69.1973 71.707V72.2812H65.0547C65.0977 72.8047 65.2715 73.2188 65.5762 73.5234C65.8848 73.8281 66.2715 73.9805 66.7363 73.9805C67.3887 73.9805 67.9199 73.7168 68.3301 73.1895L69.0977 73.9219C68.8438 74.3008 68.5039 74.5957 68.0781 74.8066C67.6562 75.0137 67.1816 75.1172 66.6543 75.1172ZM66.4844 69.6855C66.0938 69.6855 65.7773 69.8223 65.5352 70.0957C65.2969 70.3691 65.1445 70.75 65.0781 71.2383H67.791V71.1328C67.7598 70.6562 67.6328 70.2969 67.4102 70.0547C67.1875 69.8086 66.8789 69.6855 66.4844 69.6855Z" fill="#5D6069"/>
<path d="M98.0312 49.6641H95.3711V57H93.9004V49.6641H91.2637V48.4688H98.0312V49.6641ZM101.951 51.9609C101.764 51.9297 101.57 51.9141 101.371 51.9141C100.719 51.9141 100.279 52.1641 100.053 52.6641V57H98.6289V50.6602H99.9883L100.023 51.3691C100.367 50.8184 100.844 50.543 101.453 50.543C101.656 50.543 101.824 50.5703 101.957 50.625L101.951 51.9609ZM104.365 57H102.941V50.6602H104.365V57ZM102.854 49.0137C102.854 48.7949 102.922 48.6133 103.059 48.4688C103.199 48.3242 103.398 48.252 103.656 48.252C103.914 48.252 104.113 48.3242 104.254 48.4688C104.395 48.6133 104.465 48.7949 104.465 49.0137C104.465 49.2285 104.395 49.4082 104.254 49.5527C104.113 49.6934 103.914 49.7637 103.656 49.7637C103.398 49.7637 103.199 49.6934 103.059 49.5527C102.922 49.4082 102.854 49.2285 102.854 49.0137ZM109.709 57C109.646 56.8789 109.592 56.6816 109.545 56.4082C109.092 56.8809 108.537 57.1172 107.881 57.1172C107.244 57.1172 106.725 56.9355 106.322 56.5723C105.92 56.209 105.719 55.7598 105.719 55.2246C105.719 54.5488 105.969 54.0312 106.469 53.6719C106.973 53.3086 107.691 53.127 108.625 53.127H109.498V52.7109C109.498 52.3828 109.406 52.1211 109.223 51.9258C109.039 51.7266 108.76 51.627 108.385 51.627C108.061 51.627 107.795 51.709 107.588 51.873C107.381 52.0332 107.277 52.2383 107.277 52.4883H105.854C105.854 52.1406 105.969 51.8164 106.199 51.5156C106.43 51.2109 106.742 50.9727 107.137 50.8008C107.535 50.6289 107.979 50.543 108.467 50.543C109.209 50.543 109.801 50.7305 110.242 51.1055C110.684 51.4766 110.91 52 110.922 52.6758V55.5352C110.922 56.1055 111.002 56.5605 111.162 56.9004V57H109.709ZM108.145 55.9746C108.426 55.9746 108.689 55.9062 108.936 55.7695C109.186 55.6328 109.373 55.4492 109.498 55.2188V54.0234H108.73C108.203 54.0234 107.807 54.1152 107.541 54.2988C107.275 54.4824 107.143 54.7422 107.143 55.0781C107.143 55.3516 107.232 55.5703 107.412 55.7344C107.596 55.8945 107.84 55.9746 108.145 55.9746ZM113.928 57H112.504V48H113.928V57ZM120.145 58.1191H114.771V57H120.145V58.1191ZM125.494 54.8027C125.494 54.4277 125.361 54.1387 125.096 53.9355C124.834 53.7324 124.359 53.5273 123.672 53.3203C122.984 53.1133 122.438 52.8828 122.031 52.6289C121.254 52.1406 120.865 51.5039 120.865 50.7188C120.865 50.0312 121.145 49.4648 121.703 49.0195C122.266 48.5742 122.994 48.3516 123.889 48.3516C124.482 48.3516 125.012 48.4609 125.477 48.6797C125.941 48.8984 126.307 49.2109 126.572 49.6172C126.838 50.0195 126.971 50.4668 126.971 50.959H125.494C125.494 50.5137 125.354 50.166 125.072 49.916C124.795 49.6621 124.396 49.5352 123.877 49.5352C123.393 49.5352 123.016 49.6387 122.746 49.8457C122.48 50.0527 122.348 50.3418 122.348 50.7129C122.348 51.0254 122.492 51.2871 122.781 51.498C123.07 51.7051 123.547 51.9082 124.211 52.1074C124.875 52.3027 125.408 52.5273 125.811 52.7812C126.213 53.0312 126.508 53.3203 126.695 53.6484C126.883 53.9727 126.977 54.3535 126.977 54.791C126.977 55.502 126.703 56.0684 126.156 56.4902C125.613 56.9082 124.875 57.1172 123.941 57.1172C123.324 57.1172 122.756 57.0039 122.236 56.7773C121.721 56.5469 121.318 56.2305 121.029 55.8281C120.744 55.4258 120.602 54.957 120.602 54.4219H122.084C122.084 54.9062 122.244 55.2812 122.564 55.5469C122.885 55.8125 123.344 55.9453 123.941 55.9453C124.457 55.9453 124.844 55.8418 125.102 55.6348C125.363 55.4238 125.494 55.1465 125.494 54.8027ZM129.924 49.1191V50.6602H131.043V51.7148H129.924V55.2539C129.924 55.4961 129.971 55.6719 130.064 55.7812C130.162 55.8867 130.334 55.9395 130.58 55.9395C130.744 55.9395 130.91 55.9199 131.078 55.8809V56.9824C130.754 57.0723 130.441 57.1172 130.141 57.1172C129.047 57.1172 128.5 56.5137 128.5 55.3066V51.7148H127.457V50.6602H128.5V49.1191H129.924ZM135.924 57C135.861 56.8789 135.807 56.6816 135.76 56.4082C135.307 56.8809 134.752 57.1172 134.096 57.1172C133.459 57.1172 132.939 56.9355 132.537 56.5723C132.135 56.209 131.934 55.7598 131.934 55.2246C131.934 54.5488 132.184 54.0312 132.684 53.6719C133.188 53.3086 133.906 53.127 134.84 53.127H135.713V52.7109C135.713 52.3828 135.621 52.1211 135.438 51.9258C135.254 51.7266 134.975 51.627 134.6 51.627C134.275 51.627 134.01 51.709 133.803 51.873C133.596 52.0332 133.492 52.2383 133.492 52.4883H132.068C132.068 52.1406 132.184 51.8164 132.414 51.5156C132.645 51.2109 132.957 50.9727 133.352 50.8008C133.75 50.6289 134.193 50.543 134.682 50.543C135.424 50.543 136.016 50.7305 136.457 51.1055C136.898 51.4766 137.125 52 137.137 52.6758V55.5352C137.137 56.1055 137.217 56.5605 137.377 56.9004V57H135.924ZM134.359 55.9746C134.641 55.9746 134.904 55.9062 135.15 55.7695C135.4 55.6328 135.588 55.4492 135.713 55.2188V54.0234H134.945C134.418 54.0234 134.021 54.1152 133.756 54.2988C133.49 54.4824 133.357 54.7422 133.357 55.0781C133.357 55.3516 133.447 55.5703 133.627 55.7344C133.811 55.8945 134.055 55.9746 134.359 55.9746ZM141.947 51.9609C141.76 51.9297 141.566 51.9141 141.367 51.9141C140.715 51.9141 140.275 52.1641 140.049 52.6641V57H138.625V50.6602H139.984L140.02 51.3691C140.363 50.8184 140.84 50.543 141.449 50.543C141.652 50.543 141.82 50.5703 141.953 50.625L141.947 51.9609ZM144.924 49.1191V50.6602H146.043V51.7148H144.924V55.2539C144.924 55.4961 144.971 55.6719 145.064 55.7812C145.162 55.8867 145.334 55.9395 145.58 55.9395C145.744 55.9395 145.91 55.9199 146.078 55.8809V56.9824C145.754 57.0723 145.441 57.1172 145.141 57.1172C144.047 57.1172 143.5 56.5137 143.5 55.3066V51.7148H142.457V50.6602H143.5V49.1191H144.924ZM149.928 57.1172C149.025 57.1172 148.293 56.834 147.73 56.2676C147.172 55.6973 146.893 54.9395 146.893 53.9941V53.8184C146.893 53.1855 147.014 52.6211 147.256 52.125C147.502 51.625 147.846 51.2363 148.287 50.959C148.729 50.6816 149.221 50.543 149.764 50.543C150.627 50.543 151.293 50.8184 151.762 51.3691C152.234 51.9199 152.471 52.6992 152.471 53.707V54.2812H148.328C148.371 54.8047 148.545 55.2188 148.85 55.5234C149.158 55.8281 149.545 55.9805 150.01 55.9805C150.662 55.9805 151.193 55.7168 151.604 55.1895L152.371 55.9219C152.117 56.3008 151.777 56.5957 151.352 56.8066C150.93 57.0137 150.455 57.1172 149.928 57.1172ZM149.758 51.6855C149.367 51.6855 149.051 51.8223 148.809 52.0957C148.57 52.3691 148.418 52.75 148.352 53.2383H151.064V53.1328C151.033 52.6562 150.906 52.2969 150.684 52.0547C150.461 51.8086 150.152 51.6855 149.758 51.6855ZM153.314 53.7832C153.314 52.8066 153.541 52.0234 153.994 51.4336C154.447 50.8398 155.055 50.543 155.816 50.543C156.488 50.543 157.031 50.7773 157.445 51.2461V48H158.869V57H157.58L157.51 56.3438C157.084 56.8594 156.516 57.1172 155.805 57.1172C155.062 57.1172 154.461 56.8184 154 56.2207C153.543 55.623 153.314 54.8105 153.314 53.7832ZM154.738 53.9062C154.738 54.5508 154.861 55.0547 155.107 55.418C155.357 55.7773 155.711 55.957 156.168 55.957C156.75 55.957 157.176 55.6973 157.445 55.1777V52.4707C157.184 51.9629 156.762 51.709 156.18 51.709C155.719 51.709 155.363 51.8926 155.113 52.2598C154.863 52.623 154.738 53.1719 154.738 53.9062ZM98.0312 83.6641H95.3711V91H93.9004V83.6641H91.2637V82.4688H98.0312V83.6641ZM101.951 85.9609C101.764 85.9297 101.57 85.9141 101.371 85.9141C100.719 85.9141 100.279 86.1641 100.053 86.6641V91H98.6289V84.6602H99.9883L100.023 85.3691C100.367 84.8184 100.844 84.543 101.453 84.543C101.656 84.543 101.824 84.5703 101.957 84.625L101.951 85.9609ZM104.365 91H102.941V84.6602H104.365V91ZM102.854 83.0137C102.854 82.7949 102.922 82.6133 103.059 82.4688C103.199 82.3242 103.398 82.252 103.656 82.252C103.914 82.252 104.113 82.3242 104.254 82.4688C104.395 82.6133 104.465 82.7949 104.465 83.0137C104.465 83.2285 104.395 83.4082 104.254 83.5527C104.113 83.6934 103.914 83.7637 103.656 83.7637C103.398 83.7637 103.199 83.6934 103.059 83.5527C102.922 83.4082 102.854 83.2285 102.854 83.0137ZM109.709 91C109.646 90.8789 109.592 90.6816 109.545 90.4082C109.092 90.8809 108.537 91.1172 107.881 91.1172C107.244 91.1172 106.725 90.9355 106.322 90.5723C105.92 90.209 105.719 89.7598 105.719 89.2246C105.719 88.5488 105.969 88.0312 106.469 87.6719C106.973 87.3086 107.691 87.127 108.625 87.127H109.498V86.7109C109.498 86.3828 109.406 86.1211 109.223 85.9258C109.039 85.7266 108.76 85.627 108.385 85.627C108.061 85.627 107.795 85.709 107.588 85.873C107.381 86.0332 107.277 86.2383 107.277 86.4883H105.854C105.854 86.1406 105.969 85.8164 106.199 85.5156C106.43 85.2109 106.742 84.9727 107.137 84.8008C107.535 84.6289 107.979 84.543 108.467 84.543C109.209 84.543 109.801 84.7305 110.242 85.1055C110.684 85.4766 110.91 86 110.922 86.6758V89.5352C110.922 90.1055 111.002 90.5605 111.162 90.9004V91H109.709ZM108.145 89.9746C108.426 89.9746 108.689 89.9062 108.936 89.7695C109.186 89.6328 109.373 89.4492 109.498 89.2188V88.0234H108.73C108.203 88.0234 107.807 88.1152 107.541 88.2988C107.275 88.4824 107.143 88.7422 107.143 89.0781C107.143 89.3516 107.232 89.5703 107.412 89.7344C107.596 89.8945 107.84 89.9746 108.145 89.9746ZM113.928 91H112.504V82H113.928V91ZM120.145 92.1191H114.771V91H120.145V92.1191ZM127.545 88.2227C127.459 89.1328 127.123 89.8438 126.537 90.3555C125.951 90.8633 125.172 91.1172 124.199 91.1172C123.52 91.1172 122.92 90.957 122.4 90.6367C121.885 90.3125 121.486 89.8535 121.205 89.2598C120.924 88.666 120.777 87.9766 120.766 87.1914V86.3945C120.766 85.5898 120.908 84.8809 121.193 84.2676C121.479 83.6543 121.887 83.1816 122.418 82.8496C122.953 82.5176 123.57 82.3516 124.27 82.3516C125.211 82.3516 125.969 82.6074 126.543 83.1191C127.117 83.6309 127.451 84.3535 127.545 85.2871H126.068C125.998 84.6738 125.818 84.2324 125.529 83.9629C125.244 83.6895 124.824 83.5527 124.27 83.5527C123.625 83.5527 123.129 83.7891 122.781 84.2617C122.438 84.7305 122.262 85.4199 122.254 86.3301V87.0859C122.254 88.0078 122.418 88.7109 122.746 89.1953C123.078 89.6797 123.562 89.9219 124.199 89.9219C124.781 89.9219 125.219 89.791 125.512 89.5293C125.805 89.2676 125.99 88.832 126.068 88.2227H127.545ZM128.471 87.7715C128.471 87.1504 128.594 86.5918 128.84 86.0957C129.086 85.5957 129.432 85.2129 129.877 84.9473C130.322 84.6777 130.834 84.543 131.412 84.543C132.268 84.543 132.961 84.8184 133.492 85.3691C134.027 85.9199 134.316 86.6504 134.359 87.5605L134.365 87.8945C134.365 88.5195 134.244 89.0781 134.002 89.5703C133.764 90.0625 133.42 90.4434 132.971 90.7129C132.525 90.9824 132.01 91.1172 131.424 91.1172C130.529 91.1172 129.812 90.8203 129.273 90.2266C128.738 89.6289 128.471 88.834 128.471 87.8418V87.7715ZM129.895 87.8945C129.895 88.5469 130.029 89.0586 130.299 89.4297C130.568 89.7969 130.943 89.9805 131.424 89.9805C131.904 89.9805 132.277 89.793 132.543 89.418C132.812 89.043 132.947 88.4941 132.947 87.7715C132.947 87.1309 132.809 86.623 132.531 86.248C132.258 85.873 131.885 85.6855 131.412 85.6855C130.947 85.6855 130.578 85.8711 130.305 86.2422C130.031 86.6094 129.895 87.1602 129.895 87.8945ZM136.891 84.6602L136.932 85.3926C137.4 84.8262 138.016 84.543 138.777 84.543C140.098 84.543 140.77 85.2988 140.793 86.8105V91H139.369V86.8926C139.369 86.4902 139.281 86.1934 139.105 86.002C138.934 85.8066 138.65 85.709 138.256 85.709C137.682 85.709 137.254 85.9688 136.973 86.4883V91H135.549V84.6602H136.891ZM144.484 89.1953L145.826 84.6602H147.297L145.1 91H143.863L141.648 84.6602H143.125L144.484 89.1953ZM150.9 91.1172C149.998 91.1172 149.266 90.834 148.703 90.2676C148.145 89.6973 147.865 88.9395 147.865 87.9941V87.8184C147.865 87.1855 147.986 86.6211 148.229 86.125C148.475 85.625 148.818 85.2363 149.26 84.959C149.701 84.6816 150.193 84.543 150.736 84.543C151.6 84.543 152.266 84.8184 152.734 85.3691C153.207 85.9199 153.443 86.6992 153.443 87.707V88.2812H149.301C149.344 88.8047 149.518 89.2188 149.822 89.5234C150.131 89.8281 150.518 89.9805 150.982 89.9805C151.635 89.9805 152.166 89.7168 152.576 89.1895L153.344 89.9219C153.09 90.3008 152.75 90.5957 152.324 90.8066C151.902 91.0137 151.428 91.1172 150.9 91.1172ZM150.73 85.6855C150.34 85.6855 150.023 85.8223 149.781 86.0957C149.543 86.3691 149.391 86.75 149.324 87.2383H152.037V87.1328C152.006 86.6562 151.879 86.2969 151.656 86.0547C151.434 85.8086 151.125 85.6855 150.73 85.6855ZM157.873 85.9609C157.686 85.9297 157.492 85.9141 157.293 85.9141C156.641 85.9141 156.201 86.1641 155.975 86.6641V91H154.551V84.6602H155.91L155.945 85.3691C156.289 84.8184 156.766 84.543 157.375 84.543C157.578 84.543 157.746 84.5703 157.879 84.625L157.873 85.9609ZM160.85 83.1191V84.6602H161.969V85.7148H160.85V89.2539C160.85 89.4961 160.896 89.6719 160.99 89.7812C161.088 89.8867 161.26 89.9395 161.506 89.9395C161.67 89.9395 161.836 89.9199 162.004 89.8809V90.9824C161.68 91.0723 161.367 91.1172 161.066 91.1172C159.973 91.1172 159.426 90.5137 159.426 89.3066V85.7148H158.383V84.6602H159.426V83.1191H160.85ZM165.854 91.1172C164.951 91.1172 164.219 90.834 163.656 90.2676C163.098 89.6973 162.818 88.9395 162.818 87.9941V87.8184C162.818 87.1855 162.939 86.6211 163.182 86.125C163.428 85.625 163.771 85.2363 164.213 84.959C164.654 84.6816 165.146 84.543 165.689 84.543C166.553 84.543 167.219 84.8184 167.688 85.3691C168.16 85.9199 168.396 86.6992 168.396 87.707V88.2812H164.254C164.297 88.8047 164.471 89.2188 164.775 89.5234C165.084 89.8281 165.471 89.9805 165.936 89.9805C166.588 89.9805 167.119 89.7168 167.529 89.1895L168.297 89.9219C168.043 90.3008 167.703 90.5957 167.277 90.8066C166.855 91.0137 166.381 91.1172 165.854 91.1172ZM165.684 85.6855C165.293 85.6855 164.977 85.8223 164.734 86.0957C164.496 86.3691 164.344 86.75 164.277 87.2383H166.99V87.1328C166.959 86.6562 166.832 86.2969 166.609 86.0547C166.387 85.8086 166.078 85.6855 165.684 85.6855ZM169.24 87.7832C169.24 86.8066 169.467 86.0234 169.92 85.4336C170.373 84.8398 170.98 84.543 171.742 84.543C172.414 84.543 172.957 84.7773 173.371 85.2461V82H174.795V91H173.506L173.436 90.3438C173.01 90.8594 172.441 91.1172 171.73 91.1172C170.988 91.1172 170.387 90.8184 169.926 90.2207C169.469 89.623 169.24 88.8105 169.24 87.7832ZM170.664 87.9062C170.664 88.5508 170.787 89.0547 171.033 89.418C171.283 89.7773 171.637 89.957 172.094 89.957C172.676 89.957 173.102 89.6973 173.371 89.1777V86.4707C173.109 85.9629 172.688 85.709 172.105 85.709C171.645 85.709 171.289 85.8926 171.039 86.2598C170.789 86.623 170.664 87.1719 170.664 87.9062ZM96.3262 122.803C96.3262 122.428 96.1934 122.139 95.9277 121.936C95.666 121.732 95.1914 121.527 94.5039 121.32C93.8164 121.113 93.2695 120.883 92.8633 120.629C92.0859 120.141 91.6973 119.504 91.6973 118.719C91.6973 118.031 91.9766 117.465 92.5352 117.02C93.0977 116.574 93.8262 116.352 94.7207 116.352C95.3145 116.352 95.8438 116.461 96.3086 116.68C96.7734 116.898 97.1387 117.211 97.4043 117.617C97.6699 118.02 97.8027 118.467 97.8027 118.959H96.3262C96.3262 118.514 96.1855 118.166 95.9043 117.916C95.627 117.662 95.2285 117.535 94.709 117.535C94.2246 117.535 93.8477 117.639 93.5781 117.846C93.3125 118.053 93.1797 118.342 93.1797 118.713C93.1797 119.025 93.3242 119.287 93.6133 119.498C93.9023 119.705 94.3789 119.908 95.043 120.107C95.707 120.303 96.2402 120.527 96.6426 120.781C97.0449 121.031 97.3398 121.32 97.5273 121.648C97.7148 121.973 97.8086 122.354 97.8086 122.791C97.8086 123.502 97.5352 124.068 96.9883 124.49C96.4453 124.908 95.707 125.117 94.7734 125.117C94.1562 125.117 93.5879 125.004 93.0684 124.777C92.5527 124.547 92.1504 124.23 91.8613 123.828C91.5762 123.426 91.4336 122.957 91.4336 122.422H92.916C92.916 122.906 93.0762 123.281 93.3965 123.547C93.7168 123.812 94.1758 123.945 94.7734 123.945C95.2891 123.945 95.6758 123.842 95.9336 123.635C96.1953 123.424 96.3262 123.146 96.3262 122.803ZM102.812 124.379C102.395 124.871 101.801 125.117 101.031 125.117C100.344 125.117 99.8223 124.916 99.4668 124.514C99.1152 124.111 98.9395 123.529 98.9395 122.768V118.66H100.363V122.75C100.363 123.555 100.697 123.957 101.365 123.957C102.057 123.957 102.523 123.709 102.766 123.213V118.66H104.189V125H102.848L102.812 124.379ZM111.203 121.895C111.203 122.879 110.982 123.662 110.541 124.244C110.104 124.826 109.5 125.117 108.73 125.117C107.988 125.117 107.41 124.85 106.996 124.314L106.926 125H105.637V116H107.061V119.27C107.471 118.785 108.023 118.543 108.719 118.543C109.492 118.543 110.1 118.83 110.541 119.404C110.982 119.979 111.203 120.781 111.203 121.812V121.895ZM109.779 121.771C109.779 121.084 109.658 120.568 109.416 120.225C109.174 119.881 108.822 119.709 108.361 119.709C107.744 119.709 107.311 119.979 107.061 120.518V123.131C107.314 123.682 107.752 123.957 108.373 123.957C108.818 123.957 109.162 123.791 109.404 123.459C109.646 123.127 109.771 122.625 109.779 121.953V121.771ZM115.955 123.277C115.955 123.023 115.85 122.83 115.639 122.697C115.432 122.564 115.086 122.447 114.602 122.346C114.117 122.244 113.713 122.115 113.389 121.959C112.678 121.615 112.322 121.117 112.322 120.465C112.322 119.918 112.553 119.461 113.014 119.094C113.475 118.727 114.061 118.543 114.771 118.543C115.529 118.543 116.141 118.73 116.605 119.105C117.074 119.48 117.309 119.967 117.309 120.564H115.885C115.885 120.291 115.783 120.064 115.58 119.885C115.377 119.701 115.107 119.609 114.771 119.609C114.459 119.609 114.203 119.682 114.004 119.826C113.809 119.971 113.711 120.164 113.711 120.406C113.711 120.625 113.803 120.795 113.986 120.916C114.17 121.037 114.541 121.16 115.1 121.285C115.658 121.406 116.096 121.553 116.412 121.725C116.732 121.893 116.969 122.096 117.121 122.334C117.277 122.572 117.355 122.861 117.355 123.201C117.355 123.771 117.119 124.234 116.646 124.59C116.174 124.941 115.555 125.117 114.789 125.117C114.27 125.117 113.807 125.023 113.4 124.836C112.994 124.648 112.678 124.391 112.451 124.062C112.225 123.734 112.111 123.381 112.111 123.002H113.494C113.514 123.338 113.641 123.598 113.875 123.781C114.109 123.961 114.42 124.051 114.807 124.051C115.182 124.051 115.467 123.98 115.662 123.84C115.857 123.695 115.955 123.508 115.955 123.277ZM121.205 123.98C121.561 123.98 121.855 123.877 122.09 123.67C122.324 123.463 122.449 123.207 122.465 122.902H123.807C123.791 123.297 123.668 123.666 123.438 124.01C123.207 124.35 122.895 124.619 122.5 124.818C122.105 125.018 121.68 125.117 121.223 125.117C120.336 125.117 119.633 124.83 119.113 124.256C118.594 123.682 118.334 122.889 118.334 121.877V121.73C118.334 120.766 118.592 119.994 119.107 119.416C119.623 118.834 120.326 118.543 121.217 118.543C121.971 118.543 122.584 118.764 123.057 119.205C123.533 119.643 123.783 120.219 123.807 120.934H122.465C122.449 120.57 122.324 120.271 122.09 120.037C121.859 119.803 121.564 119.686 121.205 119.686C120.744 119.686 120.389 119.854 120.139 120.189C119.889 120.521 119.762 121.027 119.758 121.707V121.936C119.758 122.623 119.881 123.137 120.127 123.477C120.377 123.812 120.736 123.98 121.205 123.98ZM128.201 119.961C128.014 119.93 127.82 119.914 127.621 119.914C126.969 119.914 126.529 120.164 126.303 120.664V125H124.879V118.66H126.238L126.273 119.369C126.617 118.818 127.094 118.543 127.703 118.543C127.906 118.543 128.074 118.57 128.207 118.625L128.201 119.961ZM130.615 125H129.191V118.66H130.615V125ZM129.104 117.014C129.104 116.795 129.172 116.613 129.309 116.469C129.449 116.324 129.648 116.252 129.906 116.252C130.164 116.252 130.363 116.324 130.504 116.469C130.645 116.613 130.715 116.795 130.715 117.014C130.715 117.229 130.645 117.408 130.504 117.553C130.363 117.693 130.164 117.764 129.906 117.764C129.648 117.764 129.449 117.693 129.309 117.553C129.172 117.408 129.104 117.229 129.104 117.014ZM137.723 121.895C137.723 122.875 137.5 123.658 137.055 124.244C136.609 124.826 136.012 125.117 135.262 125.117C134.566 125.117 134.01 124.889 133.592 124.432V127.438H132.168V118.66H133.48L133.539 119.305C133.957 118.797 134.525 118.543 135.244 118.543C136.018 118.543 136.623 118.832 137.061 119.41C137.502 119.984 137.723 120.783 137.723 121.807V121.895ZM136.305 121.771C136.305 121.139 136.178 120.637 135.924 120.266C135.674 119.895 135.314 119.709 134.846 119.709C134.264 119.709 133.846 119.949 133.592 120.43V123.242C133.85 123.734 134.271 123.98 134.857 123.98C135.311 123.98 135.664 123.799 135.918 123.436C136.176 123.068 136.305 122.514 136.305 121.771ZM140.717 117.119V118.66H141.836V119.715H140.717V123.254C140.717 123.496 140.764 123.672 140.857 123.781C140.955 123.887 141.127 123.939 141.373 123.939C141.537 123.939 141.703 123.92 141.871 123.881V124.982C141.547 125.072 141.234 125.117 140.934 125.117C139.84 125.117 139.293 124.514 139.293 123.307V119.715H138.25V118.66H139.293V117.119H140.717ZM144.443 125H143.02V118.66H144.443V125ZM142.932 117.014C142.932 116.795 143 116.613 143.137 116.469C143.277 116.324 143.477 116.252 143.734 116.252C143.992 116.252 144.191 116.324 144.332 116.469C144.473 116.613 144.543 116.795 144.543 117.014C144.543 117.229 144.473 117.408 144.332 117.553C144.191 117.693 143.992 117.764 143.734 117.764C143.477 117.764 143.277 117.693 143.137 117.553C143 117.408 142.932 117.229 142.932 117.014ZM145.732 121.771C145.732 121.15 145.855 120.592 146.102 120.096C146.348 119.596 146.693 119.213 147.139 118.947C147.584 118.678 148.096 118.543 148.674 118.543C149.529 118.543 150.223 118.818 150.754 119.369C151.289 119.92 151.578 120.65 151.621 121.561L151.627 121.895C151.627 122.52 151.506 123.078 151.264 123.57C151.025 124.062 150.682 124.443 150.232 124.713C149.787 124.982 149.271 125.117 148.686 125.117C147.791 125.117 147.074 124.82 146.535 124.227C146 123.629 145.732 122.834 145.732 121.842V121.771ZM147.156 121.895C147.156 122.547 147.291 123.059 147.561 123.43C147.83 123.797 148.205 123.98 148.686 123.98C149.166 123.98 149.539 123.793 149.805 123.418C150.074 123.043 150.209 122.494 150.209 121.771C150.209 121.131 150.07 120.623 149.793 120.248C149.52 119.873 149.146 119.686 148.674 119.686C148.209 119.686 147.84 119.871 147.566 120.242C147.293 120.609 147.156 121.16 147.156 121.895ZM154.152 118.66L154.193 119.393C154.662 118.826 155.277 118.543 156.039 118.543C157.359 118.543 158.031 119.299 158.055 120.811V125H156.631V120.893C156.631 120.49 156.543 120.193 156.367 120.002C156.195 119.807 155.912 119.709 155.518 119.709C154.943 119.709 154.516 119.969 154.234 120.488V125H152.811V118.66H154.152ZM164.172 126.119H158.799V125H164.172V126.119ZM168.197 121.713H166.545V125H165.062V116.469H168.062C169.047 116.469 169.807 116.689 170.342 117.131C170.877 117.572 171.145 118.211 171.145 119.047C171.145 119.617 171.006 120.096 170.729 120.482C170.455 120.865 170.072 121.16 169.58 121.367L171.496 124.924V125H169.908L168.197 121.713ZM166.545 120.523H168.068C168.568 120.523 168.959 120.398 169.24 120.148C169.521 119.895 169.662 119.549 169.662 119.111C169.662 118.654 169.531 118.301 169.27 118.051C169.012 117.801 168.625 117.672 168.109 117.664H166.545V120.523ZM175.205 125.117C174.303 125.117 173.57 124.834 173.008 124.268C172.449 123.697 172.17 122.939 172.17 121.994V121.818C172.17 121.186 172.291 120.621 172.533 120.125C172.779 119.625 173.123 119.236 173.564 118.959C174.006 118.682 174.498 118.543 175.041 118.543C175.904 118.543 176.57 118.818 177.039 119.369C177.512 119.92 177.748 120.699 177.748 121.707V122.281H173.605C173.648 122.805 173.822 123.219 174.127 123.523C174.436 123.828 174.822 123.98 175.287 123.98C175.939 123.98 176.471 123.717 176.881 123.189L177.648 123.922C177.395 124.301 177.055 124.596 176.629 124.807C176.207 125.014 175.732 125.117 175.205 125.117ZM175.035 119.686C174.645 119.686 174.328 119.822 174.086 120.096C173.848 120.369 173.695 120.75 173.629 121.238H176.342V121.133C176.311 120.656 176.184 120.297 175.961 120.055C175.738 119.809 175.43 119.686 175.035 119.686ZM180.18 118.66L180.221 119.393C180.689 118.826 181.305 118.543 182.066 118.543C183.387 118.543 184.059 119.299 184.082 120.811V125H182.658V120.893C182.658 120.49 182.57 120.193 182.395 120.002C182.223 119.807 181.939 119.709 181.545 119.709C180.971 119.709 180.543 119.969 180.262 120.488V125H178.838V118.66H180.18ZM188.33 125.117C187.428 125.117 186.695 124.834 186.133 124.268C185.574 123.697 185.295 122.939 185.295 121.994V121.818C185.295 121.186 185.416 120.621 185.658 120.125C185.904 119.625 186.248 119.236 186.689 118.959C187.131 118.682 187.623 118.543 188.166 118.543C189.029 118.543 189.695 118.818 190.164 119.369C190.637 119.92 190.873 120.699 190.873 121.707V122.281H186.73C186.773 122.805 186.947 123.219 187.252 123.523C187.561 123.828 187.947 123.98 188.412 123.98C189.064 123.98 189.596 123.717 190.006 123.189L190.773 123.922C190.52 124.301 190.18 124.596 189.754 124.807C189.332 125.014 188.857 125.117 188.33 125.117ZM188.16 119.686C187.77 119.686 187.453 119.822 187.211 120.096C186.973 120.369 186.82 120.75 186.754 121.238H189.467V121.133C189.436 120.656 189.309 120.297 189.086 120.055C188.863 119.809 188.555 119.686 188.16 119.686ZM197.553 123.037L198.561 118.66H199.949L198.221 125H197.049L195.689 120.646L194.354 125H193.182L191.447 118.66H192.836L193.861 122.99L195.162 118.66H196.234L197.553 123.037ZM203.693 125.117C202.791 125.117 202.059 124.834 201.496 124.268C200.938 123.697 200.658 122.939 200.658 121.994V121.818C200.658 121.186 200.779 120.621 201.021 120.125C201.268 119.625 201.611 119.236 202.053 118.959C202.494 118.682 202.986 118.543 203.529 118.543C204.393 118.543 205.059 118.818 205.527 119.369C206 119.92 206.236 120.699 206.236 121.707V122.281H202.094C202.137 122.805 202.311 123.219 202.615 123.523C202.924 123.828 203.311 123.98 203.775 123.98C204.428 123.98 204.959 123.717 205.369 123.189L206.137 123.922C205.883 124.301 205.543 124.596 205.117 124.807C204.695 125.014 204.221 125.117 203.693 125.117ZM203.523 119.686C203.133 119.686 202.816 119.822 202.574 120.096C202.336 120.369 202.184 120.75 202.117 121.238H204.83V121.133C204.799 120.656 204.672 120.297 204.449 120.055C204.227 119.809 203.918 119.686 203.523 119.686ZM207.08 121.783C207.08 120.807 207.307 120.023 207.76 119.434C208.213 118.84 208.82 118.543 209.582 118.543C210.254 118.543 210.797 118.777 211.211 119.246V116H212.635V125H211.346L211.275 124.344C210.85 124.859 210.281 125.117 209.57 125.117C208.828 125.117 208.227 124.818 207.766 124.221C207.309 123.623 207.08 122.811 207.08 121.783ZM208.504 121.906C208.504 122.551 208.627 123.055 208.873 123.418C209.123 123.777 209.477 123.957 209.934 123.957C210.516 123.957 210.941 123.697 211.211 123.178V120.471C210.949 119.963 210.527 119.709 209.945 119.709C209.484 119.709 209.129 119.893 208.879 120.26C208.629 120.623 208.504 121.172 208.504 121.906ZM96.3262 156.803C96.3262 156.428 96.1934 156.139 95.9277 155.936C95.666 155.732 95.1914 155.527 94.5039 155.32C93.8164 155.113 93.2695 154.883 92.8633 154.629C92.0859 154.141 91.6973 153.504 91.6973 152.719C91.6973 152.031 91.9766 151.465 92.5352 151.02C93.0977 150.574 93.8262 150.352 94.7207 150.352C95.3145 150.352 95.8438 150.461 96.3086 150.68C96.7734 150.898 97.1387 151.211 97.4043 151.617C97.6699 152.02 97.8027 152.467 97.8027 152.959H96.3262C96.3262 152.514 96.1855 152.166 95.9043 151.916C95.627 151.662 95.2285 151.535 94.709 151.535C94.2246 151.535 93.8477 151.639 93.5781 151.846C93.3125 152.053 93.1797 152.342 93.1797 152.713C93.1797 153.025 93.3242 153.287 93.6133 153.498C93.9023 153.705 94.3789 153.908 95.043 154.107C95.707 154.303 96.2402 154.527 96.6426 154.781C97.0449 155.031 97.3398 155.32 97.5273 155.648C97.7148 155.973 97.8086 156.354 97.8086 156.791C97.8086 157.502 97.5352 158.068 96.9883 158.49C96.4453 158.908 95.707 159.117 94.7734 159.117C94.1562 159.117 93.5879 159.004 93.0684 158.777C92.5527 158.547 92.1504 158.23 91.8613 157.828C91.5762 157.426 91.4336 156.957 91.4336 156.422H92.916C92.916 156.906 93.0762 157.281 93.3965 157.547C93.7168 157.812 94.1758 157.945 94.7734 157.945C95.2891 157.945 95.6758 157.842 95.9336 157.635C96.1953 157.424 96.3262 157.146 96.3262 156.803ZM102.812 158.379C102.395 158.871 101.801 159.117 101.031 159.117C100.344 159.117 99.8223 158.916 99.4668 158.514C99.1152 158.111 98.9395 157.529 98.9395 156.768V152.66H100.363V156.75C100.363 157.555 100.697 157.957 101.365 157.957C102.057 157.957 102.523 157.709 102.766 157.213V152.66H104.189V159H102.848L102.812 158.379ZM111.203 155.895C111.203 156.879 110.982 157.662 110.541 158.244C110.104 158.826 109.5 159.117 108.73 159.117C107.988 159.117 107.41 158.85 106.996 158.314L106.926 159H105.637V150H107.061V153.27C107.471 152.785 108.023 152.543 108.719 152.543C109.492 152.543 110.1 152.83 110.541 153.404C110.982 153.979 111.203 154.781 111.203 155.812V155.895ZM109.779 155.771C109.779 155.084 109.658 154.568 109.416 154.225C109.174 153.881 108.822 153.709 108.361 153.709C107.744 153.709 107.311 153.979 107.061 154.518V157.131C107.314 157.682 107.752 157.957 108.373 157.957C108.818 157.957 109.162 157.791 109.404 157.459C109.646 157.127 109.771 156.625 109.779 155.953V155.771ZM115.955 157.277C115.955 157.023 115.85 156.83 115.639 156.697C115.432 156.564 115.086 156.447 114.602 156.346C114.117 156.244 113.713 156.115 113.389 155.959C112.678 155.615 112.322 155.117 112.322 154.465C112.322 153.918 112.553 153.461 113.014 153.094C113.475 152.727 114.061 152.543 114.771 152.543C115.529 152.543 116.141 152.73 116.605 153.105C117.074 153.48 117.309 153.967 117.309 154.564H115.885C115.885 154.291 115.783 154.064 115.58 153.885C115.377 153.701 115.107 153.609 114.771 153.609C114.459 153.609 114.203 153.682 114.004 153.826C113.809 153.971 113.711 154.164 113.711 154.406C113.711 154.625 113.803 154.795 113.986 154.916C114.17 155.037 114.541 155.16 115.1 155.285C115.658 155.406 116.096 155.553 116.412 155.725C116.732 155.893 116.969 156.096 117.121 156.334C117.277 156.572 117.355 156.861 117.355 157.201C117.355 157.771 117.119 158.234 116.646 158.59C116.174 158.941 115.555 159.117 114.789 159.117C114.27 159.117 113.807 159.023 113.4 158.836C112.994 158.648 112.678 158.391 112.451 158.062C112.225 157.734 112.111 157.381 112.111 157.002H113.494C113.514 157.338 113.641 157.598 113.875 157.781C114.109 157.961 114.42 158.051 114.807 158.051C115.182 158.051 115.467 157.98 115.662 157.84C115.857 157.695 115.955 157.508 115.955 157.277ZM121.205 157.98C121.561 157.98 121.855 157.877 122.09 157.67C122.324 157.463 122.449 157.207 122.465 156.902H123.807C123.791 157.297 123.668 157.666 123.438 158.01C123.207 158.35 122.895 158.619 122.5 158.818C122.105 159.018 121.68 159.117 121.223 159.117C120.336 159.117 119.633 158.83 119.113 158.256C118.594 157.682 118.334 156.889 118.334 155.877V155.73C118.334 154.766 118.592 153.994 119.107 153.416C119.623 152.834 120.326 152.543 121.217 152.543C121.971 152.543 122.584 152.764 123.057 153.205C123.533 153.643 123.783 154.219 123.807 154.934H122.465C122.449 154.57 122.324 154.271 122.09 154.037C121.859 153.803 121.564 153.686 121.205 153.686C120.744 153.686 120.389 153.854 120.139 154.189C119.889 154.521 119.762 155.027 119.758 155.707V155.936C119.758 156.623 119.881 157.137 120.127 157.477C120.377 157.812 120.736 157.98 121.205 157.98ZM128.201 153.961C128.014 153.93 127.82 153.914 127.621 153.914C126.969 153.914 126.529 154.164 126.303 154.664V159H124.879V152.66H126.238L126.273 153.369C126.617 152.818 127.094 152.543 127.703 152.543C127.906 152.543 128.074 152.57 128.207 152.625L128.201 153.961ZM130.615 159H129.191V152.66H130.615V159ZM129.104 151.014C129.104 150.795 129.172 150.613 129.309 150.469C129.449 150.324 129.648 150.252 129.906 150.252C130.164 150.252 130.363 150.324 130.504 150.469C130.645 150.613 130.715 150.795 130.715 151.014C130.715 151.229 130.645 151.408 130.504 151.553C130.363 151.693 130.164 151.764 129.906 151.764C129.648 151.764 129.449 151.693 129.309 151.553C129.172 151.408 129.104 151.229 129.104 151.014ZM137.723 155.895C137.723 156.875 137.5 157.658 137.055 158.244C136.609 158.826 136.012 159.117 135.262 159.117C134.566 159.117 134.01 158.889 133.592 158.432V161.438H132.168V152.66H133.48L133.539 153.305C133.957 152.797 134.525 152.543 135.244 152.543C136.018 152.543 136.623 152.832 137.061 153.41C137.502 153.984 137.723 154.783 137.723 155.807V155.895ZM136.305 155.771C136.305 155.139 136.178 154.637 135.924 154.266C135.674 153.895 135.314 153.709 134.846 153.709C134.264 153.709 133.846 153.949 133.592 154.43V157.242C133.85 157.734 134.271 157.98 134.857 157.98C135.311 157.98 135.664 157.799 135.918 157.436C136.176 157.068 136.305 156.514 136.305 155.771ZM140.717 151.119V152.66H141.836V153.715H140.717V157.254C140.717 157.496 140.764 157.672 140.857 157.781C140.955 157.887 141.127 157.939 141.373 157.939C141.537 157.939 141.703 157.92 141.871 157.881V158.982C141.547 159.072 141.234 159.117 140.934 159.117C139.84 159.117 139.293 158.514 139.293 157.307V153.715H138.25V152.66H139.293V151.119H140.717ZM144.443 159H143.02V152.66H144.443V159ZM142.932 151.014C142.932 150.795 143 150.613 143.137 150.469C143.277 150.324 143.477 150.252 143.734 150.252C143.992 150.252 144.191 150.324 144.332 150.469C144.473 150.613 144.543 150.795 144.543 151.014C144.543 151.229 144.473 151.408 144.332 151.553C144.191 151.693 143.992 151.764 143.734 151.764C143.477 151.764 143.277 151.693 143.137 151.553C143 151.408 142.932 151.229 142.932 151.014ZM145.732 155.771C145.732 155.15 145.855 154.592 146.102 154.096C146.348 153.596 146.693 153.213 147.139 152.947C147.584 152.678 148.096 152.543 148.674 152.543C149.529 152.543 150.223 152.818 150.754 153.369C151.289 153.92 151.578 154.65 151.621 155.561L151.627 155.895C151.627 156.52 151.506 157.078 151.264 157.57C151.025 158.062 150.682 158.443 150.232 158.713C149.787 158.982 149.271 159.117 148.686 159.117C147.791 159.117 147.074 158.82 146.535 158.227C146 157.629 145.732 156.834 145.732 155.842V155.771ZM147.156 155.895C147.156 156.547 147.291 157.059 147.561 157.43C147.83 157.797 148.205 157.98 148.686 157.98C149.166 157.98 149.539 157.793 149.805 157.418C150.074 157.043 150.209 156.494 150.209 155.771C150.209 155.131 150.07 154.623 149.793 154.248C149.52 153.873 149.146 153.686 148.674 153.686C148.209 153.686 147.84 153.871 147.566 154.242C147.293 154.609 147.156 155.16 147.156 155.895ZM154.152 152.66L154.193 153.393C154.662 152.826 155.277 152.543 156.039 152.543C157.359 152.543 158.031 153.299 158.055 154.811V159H156.631V154.893C156.631 154.49 156.543 154.193 156.367 154.002C156.195 153.807 155.912 153.709 155.518 153.709C154.943 153.709 154.516 153.969 154.234 154.488V159H152.811V152.66H154.152ZM164.172 160.119H158.799V159H164.172V160.119ZM170.049 155.191H166.545V157.816H170.641V159H165.062V150.469H170.6V151.664H166.545V154.02H170.049V155.191ZM173.986 154.746L175.193 152.66H176.775L174.836 155.783L176.84 159H175.27L174.004 156.832L172.744 159H171.162L173.166 155.783L171.232 152.66H172.803L173.986 154.746ZM183.297 155.895C183.297 156.875 183.074 157.658 182.629 158.244C182.184 158.826 181.586 159.117 180.836 159.117C180.141 159.117 179.584 158.889 179.166 158.432V161.438H177.742V152.66H179.055L179.113 153.305C179.531 152.797 180.1 152.543 180.818 152.543C181.592 152.543 182.197 152.832 182.635 153.41C183.076 153.984 183.297 154.783 183.297 155.807V155.895ZM181.879 155.771C181.879 155.139 181.752 154.637 181.498 154.266C181.248 153.895 180.889 153.709 180.42 153.709C179.838 153.709 179.42 153.949 179.166 154.43V157.242C179.424 157.734 179.846 157.98 180.432 157.98C180.885 157.98 181.238 157.799 181.492 157.436C181.75 157.068 181.879 156.514 181.879 155.771ZM186.021 159H184.598V152.66H186.021V159ZM184.51 151.014C184.51 150.795 184.578 150.613 184.715 150.469C184.855 150.324 185.055 150.252 185.312 150.252C185.57 150.252 185.77 150.324 185.91 150.469C186.051 150.613 186.121 150.795 186.121 151.014C186.121 151.229 186.051 151.408 185.91 151.553C185.77 151.693 185.57 151.764 185.312 151.764C185.055 151.764 184.855 151.693 184.715 151.553C184.578 151.408 184.51 151.229 184.51 151.014ZM190.896 153.961C190.709 153.93 190.516 153.914 190.316 153.914C189.664 153.914 189.225 154.164 188.998 154.664V159H187.574V152.66H188.934L188.969 153.369C189.312 152.818 189.789 152.543 190.398 152.543C190.602 152.543 190.77 152.57 190.902 152.625L190.896 153.961ZM194.471 159.117C193.568 159.117 192.836 158.834 192.273 158.268C191.715 157.697 191.436 156.939 191.436 155.994V155.818C191.436 155.186 191.557 154.621 191.799 154.125C192.045 153.625 192.389 153.236 192.83 152.959C193.271 152.682 193.764 152.543 194.307 152.543C195.17 152.543 195.836 152.818 196.305 153.369C196.777 153.92 197.014 154.699 197.014 155.707V156.281H192.871C192.914 156.805 193.088 157.219 193.393 157.523C193.701 157.828 194.088 157.98 194.553 157.98C195.205 157.98 195.736 157.717 196.146 157.189L196.914 157.922C196.66 158.301 196.32 158.596 195.895 158.807C195.473 159.014 194.998 159.117 194.471 159.117ZM194.301 153.686C193.91 153.686 193.594 153.822 193.352 154.096C193.113 154.369 192.961 154.75 192.895 155.238H195.607V155.133C195.576 154.656 195.449 154.297 195.227 154.055C195.004 153.809 194.695 153.686 194.301 153.686ZM197.857 155.783C197.857 154.807 198.084 154.023 198.537 153.434C198.99 152.84 199.598 152.543 200.359 152.543C201.031 152.543 201.574 152.777 201.988 153.246V150H203.412V159H202.123L202.053 158.344C201.627 158.859 201.059 159.117 200.348 159.117C199.605 159.117 199.004 158.818 198.543 158.221C198.086 157.623 197.857 156.811 197.857 155.783ZM199.281 155.906C199.281 156.551 199.404 157.055 199.65 157.418C199.9 157.777 200.254 157.957 200.711 157.957C201.293 157.957 201.719 157.697 201.988 157.178V154.471C201.727 153.963 201.305 153.709 200.723 153.709C200.262 153.709 199.906 153.893 199.656 154.26C199.406 154.623 199.281 155.172 199.281 155.906ZM96.6426 191.014H93.3379L92.6465 193H91.1055L94.3281 184.469H95.6582L98.8867 193H97.3398L96.6426 191.014ZM93.7539 189.818H96.2266L94.9902 186.279L93.7539 189.818ZM103.492 192.379C103.074 192.871 102.48 193.117 101.711 193.117C101.023 193.117 100.502 192.916 100.146 192.514C99.7949 192.111 99.6191 191.529 99.6191 190.768V186.66H101.043V190.75C101.043 191.555 101.377 191.957 102.045 191.957C102.736 191.957 103.203 191.709 103.445 191.213V186.66H104.869V193H103.527L103.492 192.379ZM108.104 185.119V186.66H109.223V187.715H108.104V191.254C108.104 191.496 108.15 191.672 108.244 191.781C108.342 191.887 108.514 191.939 108.76 191.939C108.924 191.939 109.09 191.92 109.258 191.881V192.982C108.934 193.072 108.621 193.117 108.32 193.117C107.227 193.117 106.68 192.514 106.68 191.307V187.715H105.637V186.66H106.68V185.119H108.104ZM109.873 189.771C109.873 189.15 109.996 188.592 110.242 188.096C110.488 187.596 110.834 187.213 111.279 186.947C111.725 186.678 112.236 186.543 112.814 186.543C113.67 186.543 114.363 186.818 114.895 187.369C115.43 187.92 115.719 188.65 115.762 189.561L115.768 189.895C115.768 190.52 115.646 191.078 115.404 191.57C115.166 192.062 114.822 192.443 114.373 192.713C113.928 192.982 113.412 193.117 112.826 193.117C111.932 193.117 111.215 192.82 110.676 192.227C110.141 191.629 109.873 190.834 109.873 189.842V189.771ZM111.297 189.895C111.297 190.547 111.432 191.059 111.701 191.43C111.971 191.797 112.346 191.98 112.826 191.98C113.307 191.98 113.68 191.793 113.945 191.418C114.215 191.043 114.35 190.494 114.35 189.771C114.35 189.131 114.211 188.623 113.934 188.248C113.66 187.873 113.287 187.686 112.814 187.686C112.35 187.686 111.98 187.871 111.707 188.242C111.434 188.609 111.297 189.16 111.297 189.895ZM120.291 187.961C120.104 187.93 119.91 187.914 119.711 187.914C119.059 187.914 118.619 188.164 118.393 188.664V193H116.969V186.66H118.328L118.363 187.369C118.707 186.818 119.184 186.543 119.793 186.543C119.996 186.543 120.164 186.57 120.297 186.625L120.291 187.961ZM123.865 193.117C122.963 193.117 122.23 192.834 121.668 192.268C121.109 191.697 120.83 190.939 120.83 189.994V189.818C120.83 189.186 120.951 188.621 121.193 188.125C121.439 187.625 121.783 187.236 122.225 186.959C122.666 186.682 123.158 186.543 123.701 186.543C124.564 186.543 125.23 186.818 125.699 187.369C126.172 187.92 126.408 188.699 126.408 189.707V190.281H122.266C122.309 190.805 122.482 191.219 122.787 191.523C123.096 191.828 123.482 191.98 123.947 191.98C124.6 191.98 125.131 191.717 125.541 191.189L126.309 191.922C126.055 192.301 125.715 192.596 125.289 192.807C124.867 193.014 124.393 193.117 123.865 193.117ZM123.695 187.686C123.305 187.686 122.988 187.822 122.746 188.096C122.508 188.369 122.355 188.75 122.289 189.238H125.002V189.133C124.971 188.656 124.844 188.297 124.621 188.055C124.398 187.809 124.09 187.686 123.695 187.686ZM128.84 186.66L128.881 187.393C129.35 186.826 129.965 186.543 130.727 186.543C132.047 186.543 132.719 187.299 132.742 188.811V193H131.318V188.893C131.318 188.49 131.23 188.193 131.055 188.002C130.883 187.807 130.6 187.709 130.205 187.709C129.631 187.709 129.203 187.969 128.922 188.488V193H127.498V186.66H128.84ZM136.99 193.117C136.088 193.117 135.355 192.834 134.793 192.268C134.234 191.697 133.955 190.939 133.955 189.994V189.818C133.955 189.186 134.076 188.621 134.318 188.125C134.564 187.625 134.908 187.236 135.35 186.959C135.791 186.682 136.283 186.543 136.826 186.543C137.689 186.543 138.355 186.818 138.824 187.369C139.297 187.92 139.533 188.699 139.533 189.707V190.281H135.391C135.434 190.805 135.607 191.219 135.912 191.523C136.221 191.828 136.607 191.98 137.072 191.98C137.725 191.98 138.256 191.717 138.666 191.189L139.434 191.922C139.18 192.301 138.84 192.596 138.414 192.807C137.992 193.014 137.518 193.117 136.99 193.117ZM136.82 187.686C136.43 187.686 136.113 187.822 135.871 188.096C135.633 188.369 135.48 188.75 135.414 189.238H138.127V189.133C138.096 188.656 137.969 188.297 137.746 188.055C137.523 187.809 137.215 187.686 136.82 187.686ZM146.213 191.037L147.221 186.66H148.609L146.881 193H145.709L144.35 188.646L143.014 193H141.842L140.107 186.66H141.496L142.521 190.99L143.822 186.66H144.895L146.213 191.037ZM154.223 194.119H148.85V193H154.223V194.119ZM160.1 189.191H156.596V191.816H160.691V193H155.113V184.469H160.65V185.664H156.596V188.02H160.1V189.191ZM163.082 186.66L163.123 187.393C163.592 186.826 164.207 186.543 164.969 186.543C166.289 186.543 166.961 187.299 166.984 188.811V193H165.561V188.893C165.561 188.49 165.473 188.193 165.297 188.002C165.125 187.807 164.842 187.709 164.447 187.709C163.873 187.709 163.445 187.969 163.164 188.488V193H161.74V186.66H163.082ZM172.229 193C172.166 192.879 172.111 192.682 172.064 192.408C171.611 192.881 171.057 193.117 170.4 193.117C169.764 193.117 169.244 192.936 168.842 192.572C168.439 192.209 168.238 191.76 168.238 191.225C168.238 190.549 168.488 190.031 168.988 189.672C169.492 189.309 170.211 189.127 171.145 189.127H172.018V188.711C172.018 188.383 171.926 188.121 171.742 187.926C171.559 187.727 171.279 187.627 170.904 187.627C170.58 187.627 170.314 187.709 170.107 187.873C169.9 188.033 169.797 188.238 169.797 188.488H168.373C168.373 188.141 168.488 187.816 168.719 187.516C168.949 187.211 169.262 186.973 169.656 186.801C170.055 186.629 170.498 186.543 170.986 186.543C171.729 186.543 172.32 186.73 172.762 187.105C173.203 187.477 173.43 188 173.441 188.676V191.535C173.441 192.105 173.521 192.561 173.682 192.9V193H172.229ZM170.664 191.975C170.945 191.975 171.209 191.906 171.455 191.77C171.705 191.633 171.893 191.449 172.018 191.219V190.023H171.25C170.723 190.023 170.326 190.115 170.061 190.299C169.795 190.482 169.662 190.742 169.662 191.078C169.662 191.352 169.752 191.57 169.932 191.734C170.115 191.895 170.359 191.975 170.664 191.975ZM180.496 189.895C180.496 190.879 180.275 191.662 179.834 192.244C179.396 192.826 178.793 193.117 178.023 193.117C177.281 193.117 176.703 192.85 176.289 192.314L176.219 193H174.93V184H176.354V187.27C176.764 186.785 177.316 186.543 178.012 186.543C178.785 186.543 179.393 186.83 179.834 187.404C180.275 187.979 180.496 188.781 180.496 189.812V189.895ZM179.072 189.771C179.072 189.084 178.951 188.568 178.709 188.225C178.467 187.881 178.115 187.709 177.654 187.709C177.037 187.709 176.604 187.979 176.354 188.518V191.131C176.607 191.682 177.045 191.957 177.666 191.957C178.111 191.957 178.455 191.791 178.697 191.459C178.939 191.127 179.064 190.625 179.072 189.953V189.771ZM183.209 193H181.785V184H183.209V193ZM187.557 193.117C186.654 193.117 185.922 192.834 185.359 192.268C184.801 191.697 184.521 190.939 184.521 189.994V189.818C184.521 189.186 184.643 188.621 184.885 188.125C185.131 187.625 185.475 187.236 185.916 186.959C186.357 186.682 186.85 186.543 187.393 186.543C188.256 186.543 188.922 186.818 189.391 187.369C189.863 187.92 190.1 188.699 190.1 189.707V190.281H185.957C186 190.805 186.174 191.219 186.479 191.523C186.787 191.828 187.174 191.98 187.639 191.98C188.291 191.98 188.822 191.717 189.232 191.189L190 191.922C189.746 192.301 189.406 192.596 188.98 192.807C188.559 193.014 188.084 193.117 187.557 193.117ZM187.387 187.686C186.996 187.686 186.68 187.822 186.438 188.096C186.199 188.369 186.047 188.75 185.98 189.238H188.693V189.133C188.662 188.656 188.535 188.297 188.312 188.055C188.09 187.809 187.781 187.686 187.387 187.686ZM190.943 189.783C190.943 188.807 191.17 188.023 191.623 187.434C192.076 186.84 192.684 186.543 193.445 186.543C194.117 186.543 194.66 186.777 195.074 187.246V184H196.498V193H195.209L195.139 192.344C194.713 192.859 194.145 193.117 193.434 193.117C192.691 193.117 192.09 192.818 191.629 192.221C191.172 191.623 190.943 190.811 190.943 189.783ZM192.367 189.906C192.367 190.551 192.49 191.055 192.736 191.418C192.986 191.777 193.34 191.957 193.797 191.957C194.379 191.957 194.805 191.697 195.074 191.178V188.471C194.812 187.963 194.391 187.709 193.809 187.709C193.348 187.709 192.992 187.893 192.742 188.26C192.492 188.623 192.367 189.172 192.367 189.906ZM93.3496 223.83V227H91.8672V218.469H95.1309C96.084 218.469 96.8398 218.717 97.3984 219.213C97.9609 219.709 98.2422 220.365 98.2422 221.182C98.2422 222.018 97.9668 222.668 97.416 223.133C96.8691 223.598 96.1016 223.83 95.1133 223.83H93.3496ZM93.3496 222.641H95.1309C95.6582 222.641 96.0605 222.518 96.3379 222.271C96.6152 222.021 96.7539 221.662 96.7539 221.193C96.7539 220.732 96.6133 220.365 96.332 220.092C96.0508 219.814 95.6641 219.672 95.1719 219.664H93.3496V222.641ZM102.725 221.961C102.537 221.93 102.344 221.914 102.145 221.914C101.492 221.914 101.053 222.164 100.826 222.664V227H99.4023V220.66H100.762L100.797 221.369C101.141 220.818 101.617 220.543 102.227 220.543C102.43 220.543 102.598 220.57 102.73 220.625L102.725 221.961ZM103.146 223.771C103.146 223.15 103.27 222.592 103.516 222.096C103.762 221.596 104.107 221.213 104.553 220.947C104.998 220.678 105.51 220.543 106.088 220.543C106.943 220.543 107.637 220.818 108.168 221.369C108.703 221.92 108.992 222.65 109.035 223.561L109.041 223.895C109.041 224.52 108.92 225.078 108.678 225.57C108.439 226.062 108.096 226.443 107.646 226.713C107.201 226.982 106.686 227.117 106.1 227.117C105.205 227.117 104.488 226.82 103.949 226.227C103.414 225.629 103.146 224.834 103.146 223.842V223.771ZM104.57 223.895C104.57 224.547 104.705 225.059 104.975 225.43C105.244 225.797 105.619 225.98 106.1 225.98C106.58 225.98 106.953 225.793 107.219 225.418C107.488 225.043 107.623 224.494 107.623 223.771C107.623 223.131 107.484 222.623 107.207 222.248C106.934 221.873 106.561 221.686 106.088 221.686C105.623 221.686 105.254 221.871 104.98 222.242C104.707 222.609 104.57 223.16 104.57 223.895ZM111.584 220.66L111.625 221.322C112.07 220.803 112.68 220.543 113.453 220.543C114.301 220.543 114.881 220.867 115.193 221.516C115.654 220.867 116.303 220.543 117.139 220.543C117.838 220.543 118.357 220.736 118.697 221.123C119.041 221.51 119.217 222.08 119.225 222.834V227H117.801V222.875C117.801 222.473 117.713 222.178 117.537 221.99C117.361 221.803 117.07 221.709 116.664 221.709C116.34 221.709 116.074 221.797 115.867 221.973C115.664 222.145 115.521 222.371 115.439 222.652L115.445 227H114.021V222.828C114.002 222.082 113.621 221.709 112.879 221.709C112.309 221.709 111.904 221.941 111.666 222.406V227H110.242V220.66H111.584ZM120.42 223.771C120.42 223.15 120.543 222.592 120.789 222.096C121.035 221.596 121.381 221.213 121.826 220.947C122.271 220.678 122.783 220.543 123.361 220.543C124.217 220.543 124.91 220.818 125.441 221.369C125.977 221.92 126.266 222.65 126.309 223.561L126.314 223.895C126.314 224.52 126.193 225.078 125.951 225.57C125.713 226.062 125.369 226.443 124.92 226.713C124.475 226.982 123.959 227.117 123.373 227.117C122.479 227.117 121.762 226.82 121.223 226.227C120.688 225.629 120.42 224.834 120.42 223.842V223.771ZM121.844 223.895C121.844 224.547 121.979 225.059 122.248 225.43C122.518 225.797 122.893 225.98 123.373 225.98C123.854 225.98 124.227 225.793 124.492 225.418C124.762 225.043 124.896 224.494 124.896 223.771C124.896 223.131 124.758 222.623 124.48 222.248C124.207 221.873 123.834 221.686 123.361 221.686C122.896 221.686 122.527 221.871 122.254 222.242C121.98 222.609 121.844 223.16 121.844 223.895ZM132.18 228.119H126.807V227H132.18V228.119ZM137.529 224.803C137.529 224.428 137.396 224.139 137.131 223.936C136.869 223.732 136.395 223.527 135.707 223.32C135.02 223.113 134.473 222.883 134.066 222.629C133.289 222.141 132.9 221.504 132.9 220.719C132.9 220.031 133.18 219.465 133.738 219.02C134.301 218.574 135.029 218.352 135.924 218.352C136.518 218.352 137.047 218.461 137.512 218.68C137.977 218.898 138.342 219.211 138.607 219.617C138.873 220.02 139.006 220.467 139.006 220.959H137.529C137.529 220.514 137.389 220.166 137.107 219.916C136.83 219.662 136.432 219.535 135.912 219.535C135.428 219.535 135.051 219.639 134.781 219.846C134.516 220.053 134.383 220.342 134.383 220.713C134.383 221.025 134.527 221.287 134.816 221.498C135.105 221.705 135.582 221.908 136.246 222.107C136.91 222.303 137.443 222.527 137.846 222.781C138.248 223.031 138.543 223.32 138.73 223.648C138.918 223.973 139.012 224.354 139.012 224.791C139.012 225.502 138.738 226.068 138.191 226.49C137.648 226.908 136.91 227.117 135.977 227.117C135.359 227.117 134.791 227.004 134.271 226.777C133.756 226.547 133.354 226.23 133.064 225.828C132.779 225.426 132.637 224.957 132.637 224.422H134.119C134.119 224.906 134.279 225.281 134.6 225.547C134.92 225.812 135.379 225.945 135.977 225.945C136.492 225.945 136.879 225.842 137.137 225.635C137.398 225.424 137.529 225.146 137.529 224.803ZM141.959 219.119V220.66H143.078V221.715H141.959V225.254C141.959 225.496 142.006 225.672 142.1 225.781C142.197 225.887 142.369 225.939 142.615 225.939C142.779 225.939 142.945 225.92 143.113 225.881V226.982C142.789 227.072 142.477 227.117 142.176 227.117C141.082 227.117 140.535 226.514 140.535 225.307V221.715H139.492V220.66H140.535V219.119H141.959ZM147.959 227C147.896 226.879 147.842 226.682 147.795 226.408C147.342 226.881 146.787 227.117 146.131 227.117C145.494 227.117 144.975 226.936 144.572 226.572C144.17 226.209 143.969 225.76 143.969 225.225C143.969 224.549 144.219 224.031 144.719 223.672C145.223 223.309 145.941 223.127 146.875 223.127H147.748V222.711C147.748 222.383 147.656 222.121 147.473 221.926C147.289 221.727 147.01 221.627 146.635 221.627C146.311 221.627 146.045 221.709 145.838 221.873C145.631 222.033 145.527 222.238 145.527 222.488H144.104C144.104 222.141 144.219 221.816 144.449 221.516C144.68 221.211 144.992 220.973 145.387 220.801C145.785 220.629 146.229 220.543 146.717 220.543C147.459 220.543 148.051 220.73 148.492 221.105C148.934 221.477 149.16 222 149.172 222.676V225.535C149.172 226.105 149.252 226.561 149.412 226.9V227H147.959ZM146.395 225.975C146.676 225.975 146.939 225.906 147.186 225.77C147.436 225.633 147.623 225.449 147.748 225.219V224.023H146.98C146.453 224.023 146.057 224.115 145.791 224.299C145.525 224.482 145.393 224.742 145.393 225.078C145.393 225.352 145.482 225.57 145.662 225.734C145.846 225.895 146.09 225.975 146.395 225.975ZM153.982 221.961C153.795 221.93 153.602 221.914 153.402 221.914C152.75 221.914 152.311 222.164 152.084 222.664V227H150.66V220.66H152.02L152.055 221.369C152.398 220.818 152.875 220.543 153.484 220.543C153.688 220.543 153.855 220.57 153.988 220.625L153.982 221.961ZM156.959 219.119V220.66H158.078V221.715H156.959V225.254C156.959 225.496 157.006 225.672 157.1 225.781C157.197 225.887 157.369 225.939 157.615 225.939C157.779 225.939 157.945 225.92 158.113 225.881V226.982C157.789 227.072 157.477 227.117 157.176 227.117C156.082 227.117 155.535 226.514 155.535 225.307V221.715H154.492V220.66H155.535V219.119H156.959ZM161.963 227.117C161.061 227.117 160.328 226.834 159.766 226.268C159.207 225.697 158.928 224.939 158.928 223.994V223.818C158.928 223.186 159.049 222.621 159.291 222.125C159.537 221.625 159.881 221.236 160.322 220.959C160.764 220.682 161.256 220.543 161.799 220.543C162.662 220.543 163.328 220.818 163.797 221.369C164.27 221.92 164.506 222.699 164.506 223.707V224.281H160.363C160.406 224.805 160.58 225.219 160.885 225.523C161.193 225.828 161.58 225.98 162.045 225.98C162.697 225.98 163.229 225.717 163.639 225.189L164.406 225.922C164.152 226.301 163.812 226.596 163.387 226.807C162.965 227.014 162.49 227.117 161.963 227.117ZM161.793 221.686C161.402 221.686 161.086 221.822 160.844 222.096C160.605 222.369 160.453 222.75 160.387 223.238H163.1V223.133C163.068 222.656 162.941 222.297 162.719 222.055C162.496 221.809 162.188 221.686 161.793 221.686ZM165.35 223.783C165.35 222.807 165.576 222.023 166.029 221.434C166.482 220.84 167.09 220.543 167.852 220.543C168.523 220.543 169.066 220.777 169.48 221.246V218H170.904V227H169.615L169.545 226.344C169.119 226.859 168.551 227.117 167.84 227.117C167.098 227.117 166.496 226.818 166.035 226.221C165.578 225.623 165.35 224.811 165.35 223.783ZM166.773 223.906C166.773 224.551 166.896 225.055 167.143 225.418C167.393 225.777 167.746 225.957 168.203 225.957C168.785 225.957 169.211 225.697 169.48 225.178V222.471C169.219 221.963 168.797 221.709 168.215 221.709C167.754 221.709 167.398 221.893 167.148 222.26C166.898 222.623 166.773 223.172 166.773 223.906Z" fill="#9F9F9F"/>
<path d="M457.517 21H448.483C448.305 21 448.215 21.2154 448.341 21.3414L452.859 25.8586C452.937 25.9367 453.063 25.9367 453.141 25.8586L457.659 21.3414C457.785 21.2154 457.695 21 457.517 21Z" fill="#666666"/>
<rect x="91.5" y="13.5" width="134" height="23" rx="1.5" fill="#F7F9FC"/>
<path d="M101.701 26.7734H98.127L97.3242 29H96.1641L99.4219 20.4688H100.406L103.67 29H102.516L101.701 26.7734ZM98.4668 25.8477H101.367L99.9141 21.8574L98.4668 25.8477ZM108.492 28.373C108.07 28.8691 107.451 29.1172 106.635 29.1172C105.959 29.1172 105.443 28.9219 105.088 28.5312C104.736 28.1367 104.559 27.5547 104.555 26.7852V22.6602H105.639V26.7559C105.639 27.7168 106.029 28.1973 106.811 28.1973C107.639 28.1973 108.189 27.8887 108.463 27.2715V22.6602H109.547V29H108.516L108.492 28.373ZM112.67 21.125V22.6602H113.854V23.498H112.67V27.4297C112.67 27.6836 112.723 27.875 112.828 28.0039C112.934 28.1289 113.113 28.1914 113.367 28.1914C113.492 28.1914 113.664 28.168 113.883 28.1211V29C113.598 29.0781 113.32 29.1172 113.051 29.1172C112.566 29.1172 112.201 28.9707 111.955 28.6777C111.709 28.3848 111.586 27.9688 111.586 27.4297V23.498H110.432V22.6602H111.586V21.125H112.67ZM114.721 25.7715C114.721 25.1504 114.842 24.5918 115.084 24.0957C115.33 23.5996 115.67 23.2168 116.104 22.9473C116.541 22.6777 117.039 22.543 117.598 22.543C118.461 22.543 119.158 22.8418 119.689 23.4395C120.225 24.0371 120.492 24.832 120.492 25.8242V25.9004C120.492 26.5176 120.373 27.0723 120.135 27.5645C119.9 28.0527 119.562 28.4336 119.121 28.707C118.684 28.9805 118.18 29.1172 117.609 29.1172C116.75 29.1172 116.053 28.8184 115.518 28.2207C114.986 27.623 114.721 26.832 114.721 25.8477V25.7715ZM115.811 25.9004C115.811 26.6035 115.973 27.168 116.297 27.5938C116.625 28.0195 117.062 28.2324 117.609 28.2324C118.16 28.2324 118.598 28.0176 118.922 27.5879C119.246 27.1543 119.408 26.5488 119.408 25.7715C119.408 25.0762 119.242 24.5137 118.91 24.084C118.582 23.6504 118.145 23.4336 117.598 23.4336C117.062 23.4336 116.631 23.6465 116.303 24.0723C115.975 24.498 115.811 25.1074 115.811 25.9004ZM124.916 23.6328C124.752 23.6055 124.574 23.5918 124.383 23.5918C123.672 23.5918 123.189 23.8945 122.936 24.5V29H121.852V22.6602H122.906L122.924 23.3926C123.279 22.8262 123.783 22.543 124.436 22.543C124.646 22.543 124.807 22.5703 124.916 22.625V23.6328ZM128.432 29.1172C127.572 29.1172 126.873 28.8359 126.334 28.2734C125.795 27.707 125.525 26.9512 125.525 26.0059V25.8066C125.525 25.1777 125.645 24.6172 125.883 24.125C126.125 23.6289 126.461 23.2422 126.891 22.9648C127.324 22.6836 127.793 22.543 128.297 22.543C129.121 22.543 129.762 22.8145 130.219 23.3574C130.676 23.9004 130.904 24.6777 130.904 25.6895V26.1406H126.609C126.625 26.7656 126.807 27.2715 127.154 27.6582C127.506 28.041 127.951 28.2324 128.49 28.2324C128.873 28.2324 129.197 28.1543 129.463 27.998C129.729 27.8418 129.961 27.6348 130.16 27.377L130.822 27.8926C130.291 28.709 129.494 29.1172 128.432 29.1172ZM128.297 23.4336C127.859 23.4336 127.492 23.5938 127.195 23.9141C126.898 24.2305 126.715 24.6758 126.645 25.25H129.82V25.168C129.789 24.6172 129.641 24.1914 129.375 23.8906C129.109 23.5859 128.75 23.4336 128.297 23.4336ZM133.189 22.6602L133.225 23.457C133.709 22.8477 134.342 22.543 135.123 22.543C136.463 22.543 137.139 23.2988 137.15 24.8105V29H136.066V24.8047C136.062 24.3477 135.957 24.0098 135.75 23.791C135.547 23.5723 135.229 23.4629 134.795 23.4629C134.443 23.4629 134.135 23.5566 133.869 23.7441C133.604 23.9316 133.396 24.1777 133.248 24.4824V29H132.164V22.6602H133.189ZM141.416 29.1172C140.557 29.1172 139.857 28.8359 139.318 28.2734C138.779 27.707 138.51 26.9512 138.51 26.0059V25.8066C138.51 25.1777 138.629 24.6172 138.867 24.125C139.109 23.6289 139.445 23.2422 139.875 22.9648C140.309 22.6836 140.777 22.543 141.281 22.543C142.105 22.543 142.746 22.8145 143.203 23.3574C143.66 23.9004 143.889 24.6777 143.889 25.6895V26.1406H139.594C139.609 26.7656 139.791 27.2715 140.139 27.6582C140.49 28.041 140.936 28.2324 141.475 28.2324C141.857 28.2324 142.182 28.1543 142.447 27.998C142.713 27.8418 142.945 27.6348 143.145 27.377L143.807 27.8926C143.275 28.709 142.479 29.1172 141.416 29.1172ZM141.281 23.4336C140.844 23.4336 140.477 23.5938 140.18 23.9141C139.883 24.2305 139.699 24.6758 139.629 25.25H142.805V25.168C142.773 24.6172 142.625 24.1914 142.359 23.8906C142.094 23.5859 141.734 23.4336 141.281 23.4336ZM150.762 27.5059L151.98 22.6602H153.064L151.219 29H150.34L148.799 24.1953L147.299 29H146.42L144.58 22.6602H145.658L146.906 27.4062L148.383 22.6602H149.256L150.762 27.5059ZM158.742 29.8848H153.375V29H158.742V29.8848ZM159.756 29V20.4688H162.164C162.906 20.4688 163.562 20.6328 164.133 20.9609C164.703 21.2891 165.143 21.7559 165.451 22.3613C165.764 22.9668 165.922 23.6621 165.926 24.4473V24.9922C165.926 25.7969 165.77 26.502 165.457 27.1074C165.148 27.7129 164.705 28.1777 164.127 28.502C163.553 28.8262 162.883 28.9922 162.117 29H159.756ZM160.881 21.3945V28.0801H162.064C162.932 28.0801 163.605 27.8105 164.086 27.2715C164.57 26.7324 164.812 25.9648 164.812 24.9688V24.4707C164.812 23.502 164.584 22.75 164.127 22.2148C163.674 21.6758 163.029 21.4023 162.193 21.3945H160.881ZM168.639 29H167.555V22.6602H168.639V29ZM167.467 20.9785C167.467 20.8027 167.52 20.6543 167.625 20.5332C167.734 20.4121 167.895 20.3516 168.105 20.3516C168.316 20.3516 168.477 20.4121 168.586 20.5332C168.695 20.6543 168.75 20.8027 168.75 20.9785C168.75 21.1543 168.695 21.3008 168.586 21.418C168.477 21.5352 168.316 21.5938 168.105 21.5938C167.895 21.5938 167.734 21.5352 167.625 21.418C167.52 21.3008 167.467 21.1543 167.467 20.9785ZM174.07 27.3184C174.07 27.0254 173.959 26.7988 173.736 26.6387C173.518 26.4746 173.133 26.334 172.582 26.2168C172.035 26.0996 171.6 25.959 171.275 25.7949C170.955 25.6309 170.717 25.4355 170.561 25.209C170.408 24.9824 170.332 24.7129 170.332 24.4004C170.332 23.8809 170.551 23.4414 170.988 23.082C171.43 22.7227 171.992 22.543 172.676 22.543C173.395 22.543 173.977 22.7285 174.422 23.0996C174.871 23.4707 175.096 23.9453 175.096 24.5234H174.006C174.006 24.2266 173.879 23.9707 173.625 23.7559C173.375 23.541 173.059 23.4336 172.676 23.4336C172.281 23.4336 171.973 23.5195 171.75 23.6914C171.527 23.8633 171.416 24.0879 171.416 24.3652C171.416 24.627 171.52 24.8242 171.727 24.957C171.934 25.0898 172.307 25.2168 172.846 25.3379C173.389 25.459 173.828 25.6035 174.164 25.7715C174.5 25.9395 174.748 26.1426 174.908 26.3809C175.072 26.6152 175.154 26.9023 175.154 27.2422C175.154 27.8086 174.928 28.2637 174.475 28.6074C174.021 28.9473 173.434 29.1172 172.711 29.1172C172.203 29.1172 171.754 29.0273 171.363 28.8477C170.973 28.668 170.666 28.418 170.443 28.0977C170.225 27.7734 170.115 27.4238 170.115 27.0488H171.199C171.219 27.4121 171.363 27.7012 171.633 27.916C171.906 28.127 172.266 28.2324 172.711 28.2324C173.121 28.2324 173.449 28.1504 173.695 27.9863C173.945 27.8184 174.07 27.5957 174.07 27.3184ZM180.48 29C180.418 28.875 180.367 28.6523 180.328 28.332C179.824 28.8555 179.223 29.1172 178.523 29.1172C177.898 29.1172 177.385 28.9414 176.982 28.5898C176.584 28.2344 176.385 27.7852 176.385 27.2422C176.385 26.582 176.635 26.0703 177.135 25.707C177.639 25.3398 178.346 25.1562 179.256 25.1562H180.311V24.6582C180.311 24.2793 180.197 23.9785 179.971 23.7559C179.744 23.5293 179.41 23.416 178.969 23.416C178.582 23.416 178.258 23.5137 177.996 23.709C177.734 23.9043 177.604 24.1406 177.604 24.418H176.514C176.514 24.1016 176.625 23.7969 176.848 23.5039C177.074 23.207 177.379 22.9727 177.762 22.8008C178.148 22.6289 178.572 22.543 179.033 22.543C179.764 22.543 180.336 22.7266 180.75 23.0938C181.164 23.457 181.379 23.959 181.395 24.5996V27.5176C181.395 28.0996 181.469 28.5625 181.617 28.9062V29H180.48ZM178.682 28.1738C179.021 28.1738 179.344 28.0859 179.648 27.9102C179.953 27.7344 180.174 27.5059 180.311 27.2246V25.9238H179.461C178.133 25.9238 177.469 26.3125 177.469 27.0898C177.469 27.4297 177.582 27.6953 177.809 27.8867C178.035 28.0781 178.326 28.1738 178.682 28.1738ZM188.461 25.9004C188.461 26.8691 188.238 27.6484 187.793 28.2383C187.348 28.8242 186.75 29.1172 186 29.1172C185.199 29.1172 184.58 28.834 184.143 28.2676L184.09 29H183.094V20H184.178V23.3574C184.615 22.8145 185.219 22.543 185.988 22.543C186.758 22.543 187.361 22.834 187.799 23.416C188.24 23.998 188.461 24.7949 188.461 25.8066V25.9004ZM187.377 25.7773C187.377 25.0391 187.234 24.4688 186.949 24.0664C186.664 23.6641 186.254 23.4629 185.719 23.4629C185.004 23.4629 184.49 23.7949 184.178 24.459V27.2012C184.51 27.8652 185.027 28.1973 185.73 28.1973C186.25 28.1973 186.654 27.9961 186.943 27.5938C187.232 27.1914 187.377 26.5859 187.377 25.7773ZM191.01 29H189.926V20H191.01V29ZM195.381 29.1172C194.521 29.1172 193.822 28.8359 193.283 28.2734C192.744 27.707 192.475 26.9512 192.475 26.0059V25.8066C192.475 25.1777 192.594 24.6172 192.832 24.125C193.074 23.6289 193.41 23.2422 193.84 22.9648C194.273 22.6836 194.742 22.543 195.246 22.543C196.07 22.543 196.711 22.8145 197.168 23.3574C197.625 23.9004 197.854 24.6777 197.854 25.6895V26.1406H193.559C193.574 26.7656 193.756 27.2715 194.104 27.6582C194.455 28.041 194.9 28.2324 195.439 28.2324C195.822 28.2324 196.146 28.1543 196.412 27.998C196.678 27.8418 196.91 27.6348 197.109 27.377L197.771 27.8926C197.24 28.709 196.443 29.1172 195.381 29.1172ZM195.246 23.4336C194.809 23.4336 194.441 23.5938 194.145 23.9141C193.848 24.2305 193.664 24.6758 193.594 25.25H196.77V25.168C196.738 24.6172 196.59 24.1914 196.324 23.8906C196.059 23.5859 195.699 23.4336 195.246 23.4336ZM198.85 25.7773C198.85 24.8047 199.08 24.0234 199.541 23.4336C200.002 22.8398 200.605 22.543 201.352 22.543C202.094 22.543 202.682 22.7969 203.115 23.3047V20H204.199V29H203.203L203.15 28.3203C202.717 28.8516 202.113 29.1172 201.34 29.1172C200.605 29.1172 200.006 28.8164 199.541 28.2148C199.08 27.6133 198.85 26.8281 198.85 25.8594V25.7773ZM199.934 25.9004C199.934 26.6191 200.082 27.1816 200.379 27.5879C200.676 27.9941 201.086 28.1973 201.609 28.1973C202.297 28.1973 202.799 27.8887 203.115 27.2715V24.3594C202.791 23.7617 202.293 23.4629 201.621 23.4629C201.09 23.4629 200.676 23.668 200.379 24.0781C200.082 24.4883 199.934 25.0957 199.934 25.9004ZM214.518 27.0723L216.451 25.1035L214.529 23.1406L215.227 22.4199L217.154 24.3828L219.082 22.4199L219.779 23.1406L217.857 25.1035L219.791 27.0723L219.094 27.793L217.154 25.8184L215.215 27.793L214.518 27.0723Z" fill="#979BA7"/>
<rect x="91.5" y="13.5" width="134" height="23" rx="1.5" stroke="#979BA7"/>
<rect x="238.5" y="13.5" width="93" height="23" rx="1.5" fill="#F7F9FC"/>
<path d="M249.885 21.3945H247.143V29H246.023V21.3945H243.287V20.4688H249.885V21.3945ZM253.6 23.6328C253.436 23.6055 253.258 23.5918 253.066 23.5918C252.355 23.5918 251.873 23.8945 251.619 24.5V29H250.535V22.6602H251.59L251.607 23.3926C251.963 22.8262 252.467 22.543 253.119 22.543C253.33 22.543 253.49 22.5703 253.6 22.625V23.6328ZM255.779 29H254.695V22.6602H255.779V29ZM254.607 20.9785C254.607 20.8027 254.66 20.6543 254.766 20.5332C254.875 20.4121 255.035 20.3516 255.246 20.3516C255.457 20.3516 255.617 20.4121 255.727 20.5332C255.836 20.6543 255.891 20.8027 255.891 20.9785C255.891 21.1543 255.836 21.3008 255.727 21.418C255.617 21.5352 255.457 21.5938 255.246 21.5938C255.035 21.5938 254.875 21.5352 254.766 21.418C254.66 21.3008 254.607 21.1543 254.607 20.9785ZM261.434 29C261.371 28.875 261.32 28.6523 261.281 28.332C260.777 28.8555 260.176 29.1172 259.477 29.1172C258.852 29.1172 258.338 28.9414 257.936 28.5898C257.537 28.2344 257.338 27.7852 257.338 27.2422C257.338 26.582 257.588 26.0703 258.088 25.707C258.592 25.3398 259.299 25.1562 260.209 25.1562H261.264V24.6582C261.264 24.2793 261.15 23.9785 260.924 23.7559C260.697 23.5293 260.363 23.416 259.922 23.416C259.535 23.416 259.211 23.5137 258.949 23.709C258.688 23.9043 258.557 24.1406 258.557 24.418H257.467C257.467 24.1016 257.578 23.7969 257.801 23.5039C258.027 23.207 258.332 22.9727 258.715 22.8008C259.102 22.6289 259.525 22.543 259.986 22.543C260.717 22.543 261.289 22.7266 261.703 23.0938C262.117 23.457 262.332 23.959 262.348 24.5996V27.5176C262.348 28.0996 262.422 28.5625 262.57 28.9062V29H261.434ZM259.635 28.1738C259.975 28.1738 260.297 28.0859 260.602 27.9102C260.906 27.7344 261.127 27.5059 261.264 27.2246V25.9238H260.414C259.086 25.9238 258.422 26.3125 258.422 27.0898C258.422 27.4297 258.535 27.6953 258.762 27.8867C258.988 28.0781 259.279 28.1738 259.635 28.1738ZM265.225 29H264.141V20H265.225V29ZM271.535 29.8848H266.168V29H271.535V29.8848ZM277.371 25.0566H273.674V28.0801H277.969V29H272.549V20.4688H277.91V21.3945H273.674V24.1367H277.371V25.0566ZM281.326 24.9746L282.732 22.6602H283.998L281.924 25.7949L284.062 29H282.809L281.344 26.627L279.879 29H278.619L280.758 25.7949L278.684 22.6602H279.938L281.326 24.9746ZM290.508 25.9004C290.508 26.8652 290.287 27.6426 289.846 28.2324C289.404 28.8223 288.807 29.1172 288.053 29.1172C287.283 29.1172 286.678 28.873 286.236 28.3848V31.4375H285.152V22.6602H286.143L286.195 23.3633C286.637 22.8164 287.25 22.543 288.035 22.543C288.797 22.543 289.398 22.8301 289.84 23.4043C290.285 23.9785 290.508 24.7773 290.508 25.8008V25.9004ZM289.424 25.7773C289.424 25.0625 289.271 24.498 288.967 24.084C288.662 23.6699 288.244 23.4629 287.713 23.4629C287.057 23.4629 286.564 23.7539 286.236 24.3359V27.3652C286.561 27.9434 287.057 28.2324 287.725 28.2324C288.244 28.2324 288.656 28.0273 288.961 27.6172C289.27 27.2031 289.424 26.5898 289.424 25.7773ZM293.068 29H291.984V22.6602H293.068V29ZM291.896 20.9785C291.896 20.8027 291.949 20.6543 292.055 20.5332C292.164 20.4121 292.324 20.3516 292.535 20.3516C292.746 20.3516 292.906 20.4121 293.016 20.5332C293.125 20.6543 293.18 20.8027 293.18 20.9785C293.18 21.1543 293.125 21.3008 293.016 21.418C292.906 21.5352 292.746 21.5938 292.535 21.5938C292.324 21.5938 292.164 21.5352 292.055 21.418C291.949 21.3008 291.896 21.1543 291.896 20.9785ZM297.873 23.6328C297.709 23.6055 297.531 23.5918 297.34 23.5918C296.629 23.5918 296.146 23.8945 295.893 24.5V29H294.809V22.6602H295.863L295.881 23.3926C296.236 22.8262 296.74 22.543 297.393 22.543C297.604 22.543 297.764 22.5703 297.873 22.625V23.6328ZM301.389 29.1172C300.529 29.1172 299.83 28.8359 299.291 28.2734C298.752 27.707 298.482 26.9512 298.482 26.0059V25.8066C298.482 25.1777 298.602 24.6172 298.84 24.125C299.082 23.6289 299.418 23.2422 299.848 22.9648C300.281 22.6836 300.75 22.543 301.254 22.543C302.078 22.543 302.719 22.8145 303.176 23.3574C303.633 23.9004 303.861 24.6777 303.861 25.6895V26.1406H299.566C299.582 26.7656 299.764 27.2715 300.111 27.6582C300.463 28.041 300.908 28.2324 301.447 28.2324C301.83 28.2324 302.154 28.1543 302.42 27.998C302.686 27.8418 302.918 27.6348 303.117 27.377L303.779 27.8926C303.248 28.709 302.451 29.1172 301.389 29.1172ZM301.254 23.4336C300.816 23.4336 300.449 23.5938 300.152 23.9141C299.855 24.2305 299.672 24.6758 299.602 25.25H302.777V25.168C302.746 24.6172 302.598 24.1914 302.332 23.8906C302.066 23.5859 301.707 23.4336 301.254 23.4336ZM304.857 25.7773C304.857 24.8047 305.088 24.0234 305.549 23.4336C306.01 22.8398 306.613 22.543 307.359 22.543C308.102 22.543 308.689 22.7969 309.123 23.3047V20H310.207V29H309.211L309.158 28.3203C308.725 28.8516 308.121 29.1172 307.348 29.1172C306.613 29.1172 306.014 28.8164 305.549 28.2148C305.088 27.6133 304.857 26.8281 304.857 25.8594V25.7773ZM305.941 25.9004C305.941 26.6191 306.09 27.1816 306.387 27.5879C306.684 27.9941 307.094 28.1973 307.617 28.1973C308.305 28.1973 308.807 27.8887 309.123 27.2715V24.3594C308.799 23.7617 308.301 23.4629 307.629 23.4629C307.098 23.4629 306.684 23.668 306.387 24.0781C306.09 24.4883 305.941 25.0957 305.941 25.9004ZM320.525 27.0723L322.459 25.1035L320.537 23.1406L321.234 22.4199L323.162 24.3828L325.09 22.4199L325.787 23.1406L323.865 25.1035L325.799 27.0723L325.102 27.793L323.162 25.8184L321.223 27.793L320.525 27.0723Z" fill="#979BA7"/>
<rect x="238.5" y="13.5" width="93" height="23" rx="1.5" stroke="#979BA7"/>
<rect x="37" y="47" width="44" height="1" fill="#D2D9E1"/>
</svg>
