<svg width="488" height="360" viewBox="0 0 488 360" fill="none" xmlns="http://www.w3.org/2000/svg">
<rect width="488" height="360" fill="white"/>
<path d="M310 43C310 47.4183 306.418 51 302 51C297.582 51 294 47.4183 294 43C294 38.5817 297.582 35 302 35C306.418 35 310 38.5817 310 43Z" fill="#93E6CF"/>
<path d="M447.452 316C447.297 315.76 447.162 315.619 447.104 315.459C446.369 313.416 445.654 311.373 444.938 309.33C444.725 308.729 444.513 308.108 444.319 307.487C444.145 306.946 443.875 306.485 443.333 306.285C442.405 305.945 441.497 305.604 440.568 305.243C439.505 304.843 438.461 304.422 437.417 304.022C436.779 303.781 436.141 303.581 435.503 303.32C435.309 303.24 435.174 303.04 435 302.88C435.174 302.74 435.309 302.519 435.503 302.459C436.566 302.039 437.649 301.638 438.712 301.237C439.698 300.857 440.665 300.496 441.651 300.116C442.193 299.915 442.734 299.715 443.295 299.515C443.759 299.334 444.068 299.014 444.242 298.533C444.571 297.592 444.899 296.65 445.228 295.729C445.77 294.227 446.311 292.704 446.852 291.202C446.949 290.921 446.988 290.621 447.123 290.341C447.2 290.18 447.374 290 447.51 290C447.645 290 447.819 290.2 447.877 290.361C448.612 292.404 449.327 294.447 450.062 296.49C450.275 297.111 450.487 297.752 450.7 298.373C450.874 298.934 451.164 299.334 451.725 299.535C453.117 300.035 454.509 300.556 455.901 301.097C456.887 301.478 457.873 301.878 458.879 302.259C459.13 302.359 459.42 302.399 459.652 302.519C459.807 302.599 460 302.76 460 302.9C460 303.02 459.807 303.24 459.671 303.28C457.235 304.242 454.818 305.143 452.401 306.065C452.305 306.105 452.189 306.145 452.073 306.165C451.261 306.345 450.835 306.846 450.584 307.687C450.275 308.769 449.83 309.81 449.462 310.872C449.114 311.874 448.747 312.855 448.399 313.857C448.206 314.418 448.032 314.998 447.819 315.559C447.8 315.68 447.645 315.8 447.452 316Z" fill="#FFB9F8"/>
<path d="M81.1797 126.859H77.5234V137H76.0312V126.859H72.3828V125.625H81.1797V126.859ZM86.1328 129.844C85.9141 129.807 85.6771 129.789 85.4219 129.789C84.474 129.789 83.8307 130.193 83.4922 131V137H82.0469V128.547H83.4531L83.4766 129.523C83.9505 128.768 84.6224 128.391 85.4922 128.391C85.7734 128.391 85.987 128.427 86.1328 128.5V129.844ZM89.0391 137H87.5938V128.547H89.0391V137ZM87.4766 126.305C87.4766 126.07 87.5469 125.872 87.6875 125.711C87.8333 125.549 88.0469 125.469 88.3281 125.469C88.6094 125.469 88.8229 125.549 88.9688 125.711C89.1146 125.872 89.1875 126.07 89.1875 126.305C89.1875 126.539 89.1146 126.734 88.9688 126.891C88.8229 127.047 88.6094 127.125 88.3281 127.125C88.0469 127.125 87.8333 127.047 87.6875 126.891C87.5469 126.734 87.4766 126.539 87.4766 126.305ZM96.5781 137C96.4948 136.833 96.4271 136.536 96.375 136.109C95.7031 136.807 94.901 137.156 93.9688 137.156C93.1354 137.156 92.4505 136.922 91.9141 136.453C91.3828 135.979 91.1172 135.38 91.1172 134.656C91.1172 133.776 91.4505 133.094 92.1172 132.609C92.7891 132.12 93.7318 131.875 94.9453 131.875H96.3516V131.211C96.3516 130.706 96.2005 130.305 95.8984 130.008C95.5964 129.706 95.151 129.555 94.5625 129.555C94.0469 129.555 93.6146 129.685 93.2656 129.945C92.9167 130.206 92.7422 130.521 92.7422 130.891H91.2891C91.2891 130.469 91.4375 130.062 91.7344 129.672C92.0365 129.276 92.4427 128.964 92.9531 128.734C93.4688 128.505 94.0339 128.391 94.6484 128.391C95.6224 128.391 96.3854 128.635 96.9375 129.125C97.4896 129.609 97.776 130.279 97.7969 131.133V135.023C97.7969 135.799 97.8958 136.417 98.0938 136.875V137H96.5781ZM94.1797 135.898C94.6328 135.898 95.0625 135.781 95.4688 135.547C95.875 135.312 96.1693 135.008 96.3516 134.633V132.898H95.2188C93.4479 132.898 92.5625 133.417 92.5625 134.453C92.5625 134.906 92.7135 135.26 93.0156 135.516C93.3177 135.771 93.7057 135.898 94.1797 135.898ZM101.633 137H100.188V125H101.633V137ZM112.844 134.758C112.844 134.367 112.695 134.065 112.398 133.852C112.107 133.633 111.594 133.445 110.859 133.289C110.13 133.133 109.549 132.945 109.117 132.727C108.69 132.508 108.372 132.247 108.164 131.945C107.961 131.643 107.859 131.284 107.859 130.867C107.859 130.174 108.151 129.589 108.734 129.109C109.323 128.63 110.073 128.391 110.984 128.391C111.943 128.391 112.719 128.638 113.312 129.133C113.911 129.628 114.211 130.26 114.211 131.031H112.758C112.758 130.635 112.589 130.294 112.25 130.008C111.917 129.721 111.495 129.578 110.984 129.578C110.458 129.578 110.047 129.693 109.75 129.922C109.453 130.151 109.305 130.451 109.305 130.82C109.305 131.169 109.443 131.432 109.719 131.609C109.995 131.786 110.492 131.956 111.211 132.117C111.935 132.279 112.521 132.471 112.969 132.695C113.417 132.919 113.747 133.19 113.961 133.508C114.18 133.82 114.289 134.203 114.289 134.656C114.289 135.411 113.987 136.018 113.383 136.477C112.779 136.93 111.995 137.156 111.031 137.156C110.354 137.156 109.755 137.036 109.234 136.797C108.714 136.557 108.305 136.224 108.008 135.797C107.716 135.365 107.57 134.898 107.57 134.398H109.016C109.042 134.883 109.234 135.268 109.594 135.555C109.958 135.836 110.438 135.977 111.031 135.977C111.578 135.977 112.016 135.867 112.344 135.648C112.677 135.424 112.844 135.128 112.844 134.758ZM118.133 126.5V128.547H119.711V129.664H118.133V134.906C118.133 135.245 118.203 135.5 118.344 135.672C118.484 135.839 118.724 135.922 119.062 135.922C119.229 135.922 119.458 135.891 119.75 135.828V137C119.37 137.104 119 137.156 118.641 137.156C117.995 137.156 117.508 136.961 117.18 136.57C116.852 136.18 116.688 135.625 116.688 134.906V129.664H115.148V128.547H116.688V126.5H118.133ZM126.625 137C126.542 136.833 126.474 136.536 126.422 136.109C125.75 136.807 124.948 137.156 124.016 137.156C123.182 137.156 122.497 136.922 121.961 136.453C121.43 135.979 121.164 135.38 121.164 134.656C121.164 133.776 121.497 133.094 122.164 132.609C122.836 132.12 123.779 131.875 124.992 131.875H126.398V131.211C126.398 130.706 126.247 130.305 125.945 130.008C125.643 129.706 125.198 129.555 124.609 129.555C124.094 129.555 123.661 129.685 123.312 129.945C122.964 130.206 122.789 130.521 122.789 130.891H121.336C121.336 130.469 121.484 130.062 121.781 129.672C122.083 129.276 122.49 128.964 123 128.734C123.516 128.505 124.081 128.391 124.695 128.391C125.669 128.391 126.432 128.635 126.984 129.125C127.536 129.609 127.823 130.279 127.844 131.133V135.023C127.844 135.799 127.943 136.417 128.141 136.875V137H126.625ZM124.227 135.898C124.68 135.898 125.109 135.781 125.516 135.547C125.922 135.312 126.216 135.008 126.398 134.633V132.898H125.266C123.495 132.898 122.609 133.417 122.609 134.453C122.609 134.906 122.76 135.26 123.062 135.516C123.365 135.771 123.753 135.898 124.227 135.898ZM134.195 129.844C133.977 129.807 133.74 129.789 133.484 129.789C132.536 129.789 131.893 130.193 131.555 131V137H130.109V128.547H131.516L131.539 129.523C132.013 128.768 132.685 128.391 133.555 128.391C133.836 128.391 134.049 128.427 134.195 128.5V129.844ZM137.883 126.5V128.547H139.461V129.664H137.883V134.906C137.883 135.245 137.953 135.5 138.094 135.672C138.234 135.839 138.474 135.922 138.812 135.922C138.979 135.922 139.208 135.891 139.5 135.828V137C139.12 137.104 138.75 137.156 138.391 137.156C137.745 137.156 137.258 136.961 136.93 136.57C136.602 136.18 136.438 135.625 136.438 134.906V129.664H134.898V128.547H136.438V126.5H137.883ZM144.664 137.156C143.518 137.156 142.586 136.781 141.867 136.031C141.148 135.276 140.789 134.268 140.789 133.008V132.742C140.789 131.904 140.948 131.156 141.266 130.5C141.589 129.839 142.036 129.323 142.609 128.953C143.188 128.578 143.812 128.391 144.484 128.391C145.583 128.391 146.438 128.753 147.047 129.477C147.656 130.201 147.961 131.237 147.961 132.586V133.188H142.234C142.255 134.021 142.497 134.695 142.961 135.211C143.43 135.721 144.023 135.977 144.742 135.977C145.253 135.977 145.685 135.872 146.039 135.664C146.393 135.456 146.703 135.18 146.969 134.836L147.852 135.523C147.143 136.612 146.081 137.156 144.664 137.156ZM144.484 129.578C143.901 129.578 143.411 129.792 143.016 130.219C142.62 130.641 142.375 131.234 142.281 132H146.516V131.891C146.474 131.156 146.276 130.589 145.922 130.188C145.568 129.781 145.089 129.578 144.484 129.578ZM149.289 132.703C149.289 131.406 149.596 130.365 150.211 129.578C150.826 128.786 151.63 128.391 152.625 128.391C153.615 128.391 154.398 128.729 154.977 129.406V125H156.422V137H155.094L155.023 136.094C154.445 136.802 153.641 137.156 152.609 137.156C151.63 137.156 150.831 136.755 150.211 135.953C149.596 135.151 149.289 134.104 149.289 132.812V132.703ZM150.734 132.867C150.734 133.826 150.932 134.576 151.328 135.117C151.724 135.659 152.271 135.93 152.969 135.93C153.885 135.93 154.555 135.518 154.977 134.695V130.812C154.544 130.016 153.88 129.617 152.984 129.617C152.276 129.617 151.724 129.891 151.328 130.438C150.932 130.984 150.734 131.794 150.734 132.867Z" fill="#181818"/>
<circle cx="115" cy="75" r="32" fill="#FFD12D"/>
<path fill-rule="evenodd" clip-rule="evenodd" d="M125.69 63.4623L128.015 63.0421L127.395 65.248L127.392 65.2588C126.321 69.2418 124.074 72.8402 120.949 75.6554L120.936 75.6667L120.924 75.6784C120.757 75.8398 120.716 75.8756 120.649 75.9181L120.61 75.9433L115.093 80.2648C114.996 80.3176 114.91 80.3855 114.837 80.4651L114.442 80.7744L108.659 74.6928L113.274 69.7822C113.375 69.7089 113.462 69.6167 113.53 69.5093L113.687 69.3424L113.693 69.336C114.04 68.9535 114.363 68.6462 114.715 68.3915L114.74 68.3733L114.764 68.3537C117.888 65.7864 121.628 64.1067 125.679 63.464L125.69 63.4623ZM112.306 67.8892C112.673 67.4927 113.064 67.1205 113.518 66.7894C116.912 64.0072 120.97 62.188 125.355 61.4904L127.922 61.0265L127.932 61.0249C129.276 60.8089 130.379 62.0266 130.016 63.3147L130.015 63.3157L129.322 65.7838C128.147 70.1464 125.692 74.0698 122.3 77.1298L122.293 77.137C122.192 77.2345 122.081 77.341 121.944 77.4485C122.249 79.557 121.705 82.1008 120.274 84.4013C119.352 85.9004 118.131 87.1987 116.817 88.0625L115.459 88.9552L114.784 83.0471L114.245 83.4694L105.906 74.7008L106.156 74.4358L100.502 73.3458L101.596 72.0429C102.62 70.8244 104.032 69.8159 105.683 69.0474C107.916 67.9962 110.294 67.6008 112.306 67.8892ZM110.501 69.8117C109.265 69.8815 107.891 70.2183 106.532 70.8579L106.528 70.8598C105.756 71.2194 105.067 71.6279 104.472 72.0743L107.776 72.7114L110.501 69.8117ZM116.631 81.6L117.053 85.2888C117.608 84.7315 118.127 84.0751 118.572 83.3515L118.575 83.3468C119.505 81.8526 119.955 80.2978 120.018 78.9474L116.631 81.6ZM108.54 81.371C107.586 80.3778 105.996 80.3238 104.937 81.2314C104.745 81.3965 104.429 81.8534 104.044 82.6193C103.682 83.341 103.319 84.2089 102.994 85.0581C102.779 85.6193 102.583 86.1649 102.417 86.6438C102.937 86.5213 103.537 86.374 104.156 86.209C105.062 85.9676 105.995 85.6926 106.781 85.4072C107.602 85.1088 108.124 84.8462 108.336 84.6685C109.385 83.7252 109.45 82.3187 108.54 81.371ZM99.9605 87.7074C99.9605 87.7074 99.9605 87.7076 100.917 88.0003L99.9605 87.7074ZM101.115 88.9804L101.136 88.9761L101.194 88.9642C101.245 88.9538 101.318 88.9384 101.412 88.9185C101.6 88.8787 101.868 88.8206 102.195 88.7471C102.848 88.6002 103.735 88.3909 104.671 88.1416C105.604 87.8931 106.6 87.6009 107.464 87.2869C108.284 86.9891 109.13 86.6225 109.644 86.1815L109.652 86.1749L109.66 86.1682C111.491 84.5333 111.744 81.8198 109.982 79.9856C108.262 78.1945 105.465 78.1453 103.636 79.7127C103.106 80.1664 102.64 80.9599 102.257 81.7216C101.852 82.5275 101.463 83.4642 101.126 84.3424C100.788 85.2239 100.498 86.0636 100.291 86.6817C100.188 86.9912 100.106 87.2462 100.049 87.4245C100.021 87.5136 99.9989 87.5837 99.984 87.6317L99.9668 87.6871L99.9605 87.7074L99.469 89.3131L101.115 88.9804ZM100.917 88.0003L101.115 88.9804C101.115 88.9804 101.115 88.9805 100.917 88.0003Z" fill="white"/>
<path d="M74.3281 309.625V317.359C74.3229 318.432 73.9844 319.31 73.3125 319.992C72.6458 320.674 71.7396 321.057 70.5938 321.141L70.1953 321.156C68.9505 321.156 67.9583 320.82 67.2188 320.148C66.4792 319.477 66.1042 318.552 66.0938 317.375V309.625H67.5781V317.328C67.5781 318.151 67.8047 318.792 68.2578 319.25C68.7109 319.703 69.3568 319.93 70.1953 319.93C71.0443 319.93 71.6927 319.703 72.1406 319.25C72.5938 318.797 72.8203 318.159 72.8203 317.336V309.625H74.3281ZM81.3906 318.758C81.3906 318.367 81.2422 318.065 80.9453 317.852C80.6536 317.633 80.1406 317.445 79.4062 317.289C78.6771 317.133 78.0964 316.945 77.6641 316.727C77.237 316.508 76.9193 316.247 76.7109 315.945C76.5078 315.643 76.4062 315.284 76.4062 314.867C76.4062 314.174 76.6979 313.589 77.2812 313.109C77.8698 312.63 78.6198 312.391 79.5312 312.391C80.4896 312.391 81.2656 312.638 81.8594 313.133C82.4583 313.628 82.7578 314.26 82.7578 315.031H81.3047C81.3047 314.635 81.1354 314.294 80.7969 314.008C80.4635 313.721 80.0417 313.578 79.5312 313.578C79.0052 313.578 78.5938 313.693 78.2969 313.922C78 314.151 77.8516 314.451 77.8516 314.82C77.8516 315.169 77.9896 315.432 78.2656 315.609C78.5417 315.786 79.0391 315.956 79.7578 316.117C80.4818 316.279 81.0677 316.471 81.5156 316.695C81.9635 316.919 82.2943 317.19 82.5078 317.508C82.7266 317.82 82.8359 318.203 82.8359 318.656C82.8359 319.411 82.5339 320.018 81.9297 320.477C81.3255 320.93 80.5417 321.156 79.5781 321.156C78.901 321.156 78.3021 321.036 77.7812 320.797C77.2604 320.557 76.8516 320.224 76.5547 319.797C76.263 319.365 76.1172 318.898 76.1172 318.398H77.5625C77.5885 318.883 77.7812 319.268 78.1406 319.555C78.5052 319.836 78.9844 319.977 79.5781 319.977C80.125 319.977 80.5625 319.867 80.8906 319.648C81.224 319.424 81.3906 319.128 81.3906 318.758ZM88.2266 321.156C87.0807 321.156 86.1484 320.781 85.4297 320.031C84.7109 319.276 84.3516 318.268 84.3516 317.008V316.742C84.3516 315.904 84.5104 315.156 84.8281 314.5C85.151 313.839 85.599 313.323 86.1719 312.953C86.75 312.578 87.375 312.391 88.0469 312.391C89.1458 312.391 90 312.753 90.6094 313.477C91.2188 314.201 91.5234 315.237 91.5234 316.586V317.188H85.7969C85.8177 318.021 86.0599 318.695 86.5234 319.211C86.9922 319.721 87.5859 319.977 88.3047 319.977C88.8151 319.977 89.2474 319.872 89.6016 319.664C89.9557 319.456 90.2656 319.18 90.5312 318.836L91.4141 319.523C90.7057 320.612 89.6432 321.156 88.2266 321.156ZM88.0469 313.578C87.4635 313.578 86.974 313.792 86.5781 314.219C86.1823 314.641 85.9375 315.234 85.8438 316H90.0781V315.891C90.0365 315.156 89.8385 314.589 89.4844 314.188C89.1302 313.781 88.651 313.578 88.0469 313.578ZM97.2891 313.844C97.0703 313.807 96.8333 313.789 96.5781 313.789C95.6302 313.789 94.987 314.193 94.6484 315V321H93.2031V312.547H94.6094L94.6328 313.523C95.1068 312.768 95.7786 312.391 96.6484 312.391C96.9297 312.391 97.1432 312.427 97.2891 312.5V313.844ZM104.164 321H102.719V312.547H104.164V321ZM102.602 310.305C102.602 310.07 102.672 309.872 102.812 309.711C102.958 309.549 103.172 309.469 103.453 309.469C103.734 309.469 103.948 309.549 104.094 309.711C104.24 309.872 104.312 310.07 104.312 310.305C104.312 310.539 104.24 310.734 104.094 310.891C103.948 311.047 103.734 311.125 103.453 311.125C103.172 311.125 102.958 311.047 102.812 310.891C102.672 310.734 102.602 310.539 102.602 310.305ZM111.406 318.758C111.406 318.367 111.258 318.065 110.961 317.852C110.669 317.633 110.156 317.445 109.422 317.289C108.693 317.133 108.112 316.945 107.68 316.727C107.253 316.508 106.935 316.247 106.727 315.945C106.523 315.643 106.422 315.284 106.422 314.867C106.422 314.174 106.714 313.589 107.297 313.109C107.885 312.63 108.635 312.391 109.547 312.391C110.505 312.391 111.281 312.638 111.875 313.133C112.474 313.628 112.773 314.26 112.773 315.031H111.32C111.32 314.635 111.151 314.294 110.812 314.008C110.479 313.721 110.057 313.578 109.547 313.578C109.021 313.578 108.609 313.693 108.312 313.922C108.016 314.151 107.867 314.451 107.867 314.82C107.867 315.169 108.005 315.432 108.281 315.609C108.557 315.786 109.055 315.956 109.773 316.117C110.497 316.279 111.083 316.471 111.531 316.695C111.979 316.919 112.31 317.19 112.523 317.508C112.742 317.82 112.852 318.203 112.852 318.656C112.852 319.411 112.549 320.018 111.945 320.477C111.341 320.93 110.557 321.156 109.594 321.156C108.917 321.156 108.318 321.036 107.797 320.797C107.276 320.557 106.867 320.224 106.57 319.797C106.279 319.365 106.133 318.898 106.133 318.398H107.578C107.604 318.883 107.797 319.268 108.156 319.555C108.521 319.836 109 319.977 109.594 319.977C110.141 319.977 110.578 319.867 110.906 319.648C111.24 319.424 111.406 319.128 111.406 318.758ZM120.273 321H118.828V312.547H120.273V321ZM118.711 310.305C118.711 310.07 118.781 309.872 118.922 309.711C119.068 309.549 119.281 309.469 119.562 309.469C119.844 309.469 120.057 309.549 120.203 309.711C120.349 309.872 120.422 310.07 120.422 310.305C120.422 310.539 120.349 310.734 120.203 310.891C120.057 311.047 119.844 311.125 119.562 311.125C119.281 311.125 119.068 311.047 118.922 310.891C118.781 310.734 118.711 310.539 118.711 310.305ZM123.961 312.547L124.008 313.609C124.654 312.797 125.497 312.391 126.539 312.391C128.326 312.391 129.227 313.398 129.242 315.414V321H127.797V315.406C127.792 314.797 127.651 314.346 127.375 314.055C127.104 313.763 126.68 313.617 126.102 313.617C125.633 313.617 125.221 313.742 124.867 313.992C124.513 314.242 124.237 314.57 124.039 314.977V321H122.594V312.547H123.961ZM143.164 310.859H139.508V321H138.016V310.859H134.367V309.625H143.164V310.859ZM148.117 313.844C147.898 313.807 147.661 313.789 147.406 313.789C146.458 313.789 145.815 314.193 145.477 315V321H144.031V312.547H145.438L145.461 313.523C145.935 312.768 146.607 312.391 147.477 312.391C147.758 312.391 147.971 312.427 148.117 312.5V313.844ZM151.023 321H149.578V312.547H151.023V321ZM149.461 310.305C149.461 310.07 149.531 309.872 149.672 309.711C149.818 309.549 150.031 309.469 150.312 309.469C150.594 309.469 150.807 309.549 150.953 309.711C151.099 309.872 151.172 310.07 151.172 310.305C151.172 310.539 151.099 310.734 150.953 310.891C150.807 311.047 150.594 311.125 150.312 311.125C150.031 311.125 149.818 311.047 149.672 310.891C149.531 310.734 149.461 310.539 149.461 310.305ZM158.562 321C158.479 320.833 158.411 320.536 158.359 320.109C157.688 320.807 156.885 321.156 155.953 321.156C155.12 321.156 154.435 320.922 153.898 320.453C153.367 319.979 153.102 319.38 153.102 318.656C153.102 317.776 153.435 317.094 154.102 316.609C154.773 316.12 155.716 315.875 156.93 315.875H158.336V315.211C158.336 314.706 158.185 314.305 157.883 314.008C157.581 313.706 157.135 313.555 156.547 313.555C156.031 313.555 155.599 313.685 155.25 313.945C154.901 314.206 154.727 314.521 154.727 314.891H153.273C153.273 314.469 153.422 314.062 153.719 313.672C154.021 313.276 154.427 312.964 154.938 312.734C155.453 312.505 156.018 312.391 156.633 312.391C157.607 312.391 158.37 312.635 158.922 313.125C159.474 313.609 159.76 314.279 159.781 315.133V319.023C159.781 319.799 159.88 320.417 160.078 320.875V321H158.562ZM156.164 319.898C156.617 319.898 157.047 319.781 157.453 319.547C157.859 319.312 158.154 319.008 158.336 318.633V316.898H157.203C155.432 316.898 154.547 317.417 154.547 318.453C154.547 318.906 154.698 319.26 155 319.516C155.302 319.771 155.69 319.898 156.164 319.898ZM163.617 321H162.172V309H163.617V321Z" fill="#181818"/>
<circle cx="115" cy="259" r="32" fill="#FFB9F8"/>
<rect width="32" height="32" transform="translate(99 243)" fill="#FFB9F8"/>
<path fill-rule="evenodd" clip-rule="evenodd" d="M125.69 247.462L128.015 247.042L127.395 249.248L127.392 249.259C126.321 253.242 124.074 256.84 120.949 259.655L120.936 259.667L120.924 259.678C120.757 259.84 120.716 259.876 120.649 259.918L120.61 259.943L115.093 264.265C114.996 264.318 114.91 264.386 114.837 264.465L114.442 264.774L108.659 258.693L113.274 253.782C113.375 253.709 113.462 253.617 113.53 253.509L113.687 253.342L113.693 253.336C114.04 252.953 114.363 252.646 114.715 252.391L114.74 252.373L114.764 252.354C117.888 249.786 121.628 248.107 125.679 247.464L125.69 247.462ZM112.306 251.889C112.673 251.493 113.064 251.12 113.518 250.789C116.912 248.007 120.97 246.188 125.355 245.49L127.922 245.026L127.932 245.025C129.276 244.809 130.379 246.027 130.016 247.315L130.015 247.316L129.322 249.784C128.147 254.146 125.692 258.07 122.3 261.13L122.293 261.137C122.192 261.234 122.081 261.341 121.944 261.448C122.249 263.557 121.705 266.101 120.274 268.401C119.352 269.9 118.131 271.199 116.817 272.063L115.459 272.955L114.784 267.047L114.245 267.469L105.906 258.701L106.156 258.436L100.502 257.346L101.596 256.043C102.62 254.824 104.032 253.816 105.683 253.047C107.916 251.996 110.294 251.601 112.306 251.889ZM110.501 253.812C109.265 253.882 107.891 254.218 106.532 254.858L106.528 254.86C105.756 255.219 105.067 255.628 104.472 256.074L107.776 256.711L110.501 253.812ZM116.631 265.6L117.053 269.289C117.608 268.731 118.127 268.075 118.572 267.352L118.575 267.347C119.505 265.853 119.955 264.298 120.018 262.947L116.631 265.6ZM108.54 265.371C107.586 264.378 105.996 264.324 104.937 265.231C104.745 265.396 104.429 265.853 104.044 266.619C103.682 267.341 103.319 268.209 102.994 269.058C102.779 269.619 102.583 270.165 102.417 270.644C102.937 270.521 103.537 270.374 104.156 270.209C105.062 269.968 105.995 269.693 106.781 269.407C107.602 269.109 108.124 268.846 108.336 268.668C109.385 267.725 109.45 266.319 108.54 265.371ZM99.9605 271.707C99.9605 271.707 99.9605 271.708 100.917 272L99.9605 271.707ZM101.115 272.98L101.136 272.976L101.194 272.964C101.245 272.954 101.318 272.938 101.412 272.918C101.6 272.879 101.868 272.821 102.195 272.747C102.848 272.6 103.735 272.391 104.671 272.142C105.604 271.893 106.6 271.601 107.464 271.287C108.284 270.989 109.13 270.622 109.644 270.181L109.652 270.175L109.66 270.168C111.491 268.533 111.744 265.82 109.982 263.986C108.262 262.194 105.465 262.145 103.636 263.713C103.106 264.166 102.64 264.96 102.257 265.722C101.852 266.527 101.463 267.464 101.126 268.342C100.788 269.224 100.498 270.064 100.291 270.682C100.188 270.991 100.106 271.246 100.049 271.424C100.021 271.514 99.9989 271.584 99.984 271.632L99.9668 271.687L99.9605 271.707L99.469 273.313L101.115 272.98ZM100.917 272L101.115 272.98C101.115 272.98 101.115 272.98 100.917 272Z" fill="white"/>
<rect x="32.5" y="21.5" width="165" height="146" rx="18.5" stroke="black" stroke-width="3"/>
<rect x="32.5" y="203.5" width="165" height="146" rx="18.5" stroke="black" stroke-width="3"/>
<path d="M190 58C202.15 58 212 48.1503 212 36C212 23.8497 202.15 14 190 14C177.85 14 168 23.8497 168 36C168 48.1503 177.85 58 190 58Z" fill="#181818"/>
<path d="M214.5 32C214.5 43.3218 205.322 52.5 194 52.5C182.678 52.5 173.5 43.3218 173.5 32C173.5 20.6782 182.678 11.5 194 11.5C205.322 11.5 214.5 20.6782 214.5 32Z" fill="white" stroke="#181818" stroke-width="3"/>
<path d="M199.528 30.6254C199.553 33.652 201.973 34.6592 202 34.672C201.98 34.7431 201.613 36.1074 200.725 37.5166C199.957 38.735 199.16 39.9489 197.905 39.974C196.672 39.9987 196.275 39.1799 194.865 39.1799C193.455 39.1799 193.014 39.9489 191.847 39.9987C190.635 40.0485 189.712 38.6812 188.938 37.4673C187.356 34.9842 186.147 30.4508 187.77 27.3906C188.577 25.8709 190.018 24.9086 191.582 24.8839C192.772 24.8593 193.895 25.753 194.623 25.753C195.349 25.753 196.714 24.6782 198.149 24.8361C198.75 24.8632 200.436 25.0995 201.518 26.8199C201.431 26.8786 199.507 28.095 199.528 30.6254ZM197.209 23.1933C197.853 22.3479 198.286 21.171 198.167 20C197.24 20.0405 196.119 20.6709 195.454 21.5158C194.858 22.264 194.336 23.4616 194.477 24.6095C195.51 24.6963 196.566 24.0392 197.209 23.1933Z" fill="#181818"/>
<path d="M190 238C202.15 238 212 228.15 212 216C212 203.85 202.15 194 190 194C177.85 194 168 203.85 168 216C168 228.15 177.85 238 190 238Z" fill="#181818"/>
<path d="M214.5 212C214.5 223.322 205.322 232.5 194 232.5C182.678 232.5 173.5 223.322 173.5 212C173.5 200.678 182.678 191.5 194 191.5C205.322 191.5 214.5 200.678 214.5 212Z" fill="white" stroke="#181818" stroke-width="3"/>
<path d="M199.855 206.318L201.846 202.858C201.958 202.664 201.89 202.418 201.7 202.305C201.509 202.192 201.261 202.258 201.151 202.452L199.134 205.956C197.595 205.251 195.863 204.858 194 204.858C192.137 204.858 190.405 205.251 188.866 205.956L186.849 202.452C186.737 202.258 186.491 202.192 186.298 202.305C186.105 202.418 186.039 202.664 186.152 202.858L188.142 206.318C184.709 208.184 182.384 211.669 182 215.75H206C205.616 211.669 203.291 208.184 199.855 206.318ZM188.49 212.369C187.933 212.369 187.484 211.916 187.484 211.36C187.484 210.802 187.936 210.351 188.49 210.351C189.046 210.351 189.496 210.804 189.496 211.36C189.498 211.916 189.046 212.369 188.49 212.369ZM199.508 212.369C198.951 212.369 198.502 211.916 198.502 211.36C198.502 210.802 198.954 210.351 199.508 210.351C200.064 210.351 200.513 210.804 200.513 211.36C200.516 211.916 200.064 212.369 199.508 212.369Z" fill="#181818"/>
<path fill-rule="evenodd" clip-rule="evenodd" d="M395.293 205.075C389.802 211.169 381.849 215 373 215C364.037 215 355.991 211.069 350.494 204.837L372.98 183.184L395.293 205.075ZM398.878 200.187L375.795 177.539C374.25 176.023 371.778 176.012 370.219 177.513L346.961 199.909C344.441 195.517 343 190.427 343 185C343 168.431 356.431 155 373 155C389.569 155 403 168.431 403 185C403 190.542 401.498 195.732 398.878 200.187ZM409 185C409 204.882 392.882 221 373 221C353.118 221 337 204.882 337 185C337 165.118 353.118 149 373 149C392.882 149 409 165.118 409 185Z" fill="#0085FF"/>
<path d="M215 92.5C214.172 92.5 213.5 93.1716 213.5 94C213.5 94.8284 214.172 95.5 215 95.5V92.5ZM371.939 134.061C372.525 134.646 373.475 134.646 374.061 134.061L383.607 124.515C384.192 123.929 384.192 122.979 383.607 122.393C383.021 121.808 382.071 121.808 381.485 122.393L373 130.879L364.515 122.393C363.929 121.808 362.979 121.808 362.393 122.393C361.808 122.979 361.808 123.929 362.393 124.515L371.939 134.061ZM215 95.5H352V92.5H215V95.5ZM371.5 115V133H374.5V115H371.5ZM352 95.5C362.77 95.5 371.5 104.23 371.5 115H374.5C374.5 102.574 364.426 92.5 352 92.5V95.5Z" fill="black"/>
<path d="M213.939 277.061C213.354 276.475 213.354 275.525 213.939 274.939L223.485 265.393C224.071 264.808 225.021 264.808 225.607 265.393C226.192 265.979 226.192 266.929 225.607 267.515L217.121 276L225.607 284.485C226.192 285.071 226.192 286.021 225.607 286.607C225.021 287.192 224.071 287.192 223.485 286.607L213.939 277.061ZM371.5 237C371.5 236.172 372.172 235.5 373 235.5C373.828 235.5 374.5 236.172 374.5 237H371.5ZM215 274.5H352V277.5H215V274.5ZM371.5 255V237H374.5V255H371.5ZM352 274.5C362.77 274.5 371.5 265.77 371.5 255H374.5C374.5 267.426 364.426 277.5 352 277.5V274.5Z" fill="black"/>
</svg>
