<svg width="488" height="360" viewBox="0 0 488 360" fill="none" xmlns="http://www.w3.org/2000/svg">
<rect width="488" height="360" fill="white"/>
<path d="M459.452 172C459.297 171.76 459.162 171.619 459.104 171.459C458.369 169.416 457.654 167.373 456.938 165.33C456.725 164.729 456.513 164.108 456.319 163.487C456.145 162.946 455.875 162.485 455.333 162.285C454.405 161.945 453.497 161.604 452.568 161.243C451.505 160.843 450.461 160.422 449.417 160.022C448.779 159.781 448.141 159.581 447.503 159.32C447.309 159.24 447.174 159.04 447 158.88C447.174 158.74 447.309 158.519 447.503 158.459C448.566 158.039 449.649 157.638 450.712 157.237C451.698 156.857 452.665 156.496 453.651 156.116C454.193 155.915 454.734 155.715 455.295 155.515C455.759 155.334 456.068 155.014 456.242 154.533C456.571 153.592 456.899 152.65 457.228 151.729C457.77 150.227 458.311 148.704 458.852 147.202C458.949 146.921 458.988 146.621 459.123 146.341C459.2 146.18 459.374 146 459.51 146C459.645 146 459.819 146.2 459.877 146.361C460.612 148.404 461.327 150.447 462.062 152.49C462.275 153.111 462.487 153.752 462.7 154.373C462.874 154.934 463.164 155.334 463.725 155.535C465.117 156.035 466.509 156.556 467.901 157.097C468.887 157.478 469.873 157.878 470.879 158.259C471.13 158.359 471.42 158.399 471.652 158.519C471.807 158.599 472 158.76 472 158.9C472 159.02 471.807 159.24 471.671 159.28C469.235 160.242 466.818 161.143 464.401 162.065C464.305 162.105 464.189 162.145 464.073 162.165C463.261 162.345 462.835 162.846 462.584 163.687C462.275 164.769 461.83 165.81 461.462 166.872C461.114 167.874 460.747 168.855 460.399 169.857C460.206 170.418 460.032 170.998 459.819 171.559C459.8 171.68 459.645 171.8 459.452 172Z" fill="#FFB9F8"/>
<circle cx="36" cy="322" r="8" fill="#FFD12D"/>
<rect x="29" y="147" width="392" height="74" rx="20" fill="#181818"/>
<rect x="38.5" y="140.5" width="389" height="71" rx="18.5" fill="white" stroke="black" stroke-width="3"/>
<rect x="57" y="158" width="170" height="35" rx="12" fill="#FFD12D"/>
<path d="M77.4766 176.852C77.4766 178.154 77.1797 179.198 76.5859 179.984C75.9974 180.766 75.2005 181.156 74.1953 181.156C73.3411 181.156 72.651 180.859 72.125 180.266V184.25H69.8672V172.547H71.9609L72.0391 173.375C72.5859 172.719 73.2995 172.391 74.1797 172.391C75.2214 172.391 76.0312 172.776 76.6094 173.547C77.1875 174.318 77.4766 175.38 77.4766 176.734V176.852ZM75.2188 176.688C75.2188 175.901 75.0781 175.294 74.7969 174.867C74.5208 174.44 74.1172 174.227 73.5859 174.227C72.8776 174.227 72.3906 174.497 72.125 175.039V178.5C72.401 179.057 72.8932 179.336 73.6016 179.336C74.6797 179.336 75.2188 178.453 75.2188 176.688ZM83.6328 174.664C83.3255 174.622 83.0547 174.602 82.8203 174.602C81.9661 174.602 81.4062 174.891 81.1406 175.469V181H78.8828V172.547H81.0156L81.0781 173.555C81.5312 172.779 82.1589 172.391 82.9609 172.391C83.2109 172.391 83.4453 172.424 83.6641 172.492L83.6328 174.664ZM88.4609 181.156C87.2214 181.156 86.2109 180.776 85.4297 180.016C84.6536 179.255 84.2656 178.242 84.2656 176.977V176.758C84.2656 175.909 84.4297 175.151 84.7578 174.484C85.0859 173.812 85.5495 173.297 86.1484 172.938C86.7526 172.573 87.4401 172.391 88.2109 172.391C89.3672 172.391 90.276 172.755 90.9375 173.484C91.6042 174.214 91.9375 175.247 91.9375 176.586V177.508H86.5547C86.6276 178.06 86.8464 178.503 87.2109 178.836C87.5807 179.169 88.0469 179.336 88.6094 179.336C89.4792 179.336 90.1589 179.021 90.6484 178.391L91.7578 179.633C91.4193 180.112 90.9609 180.487 90.3828 180.758C89.8047 181.023 89.1641 181.156 88.4609 181.156ZM88.2031 174.219C87.7552 174.219 87.3906 174.37 87.1094 174.672C86.8333 174.974 86.6562 175.406 86.5781 175.969H89.7188V175.789C89.7083 175.289 89.5729 174.904 89.3125 174.633C89.0521 174.357 88.6823 174.219 88.2031 174.219ZM97.8047 178.664C97.8047 178.388 97.6667 178.172 97.3906 178.016C97.1198 177.854 96.6823 177.711 96.0781 177.586C94.0677 177.164 93.0625 176.31 93.0625 175.023C93.0625 174.273 93.3724 173.648 93.9922 173.148C94.6172 172.643 95.4323 172.391 96.4375 172.391C97.5104 172.391 98.3672 172.643 99.0078 173.148C99.6536 173.654 99.9766 174.31 99.9766 175.117H97.7188C97.7188 174.794 97.6146 174.529 97.4062 174.32C97.1979 174.107 96.8724 174 96.4297 174C96.0495 174 95.7552 174.086 95.5469 174.258C95.3385 174.43 95.2344 174.648 95.2344 174.914C95.2344 175.164 95.3516 175.367 95.5859 175.523C95.8255 175.674 96.2266 175.807 96.7891 175.922C97.3516 176.031 97.8255 176.156 98.2109 176.297C99.4036 176.734 100 177.492 100 178.57C100 179.341 99.6693 179.966 99.0078 180.445C98.3464 180.919 97.4922 181.156 96.4453 181.156C95.737 181.156 95.1068 181.031 94.5547 180.781C94.0078 180.526 93.5781 180.18 93.2656 179.742C92.9531 179.299 92.7969 178.823 92.7969 178.312H94.9375C94.9583 178.714 95.1068 179.021 95.3828 179.234C95.6589 179.448 96.0286 179.555 96.4922 179.555C96.9245 179.555 97.25 179.474 97.4688 179.312C97.6927 179.146 97.8047 178.93 97.8047 178.664ZM105.352 181.156C104.112 181.156 103.102 180.776 102.32 180.016C101.544 179.255 101.156 178.242 101.156 176.977V176.758C101.156 175.909 101.32 175.151 101.648 174.484C101.977 173.812 102.44 173.297 103.039 172.938C103.643 172.573 104.331 172.391 105.102 172.391C106.258 172.391 107.167 172.755 107.828 173.484C108.495 174.214 108.828 175.247 108.828 176.586V177.508H103.445C103.518 178.06 103.737 178.503 104.102 178.836C104.471 179.169 104.938 179.336 105.5 179.336C106.37 179.336 107.049 179.021 107.539 178.391L108.648 179.633C108.31 180.112 107.852 180.487 107.273 180.758C106.695 181.023 106.055 181.156 105.352 181.156ZM105.094 174.219C104.646 174.219 104.281 174.37 104 174.672C103.724 174.974 103.547 175.406 103.469 175.969H106.609V175.789C106.599 175.289 106.464 174.904 106.203 174.633C105.943 174.357 105.573 174.219 105.094 174.219ZM112.195 172.547L112.266 173.523C112.87 172.768 113.68 172.391 114.695 172.391C115.591 172.391 116.258 172.654 116.695 173.18C117.133 173.706 117.357 174.492 117.367 175.539V181H115.109V175.594C115.109 175.115 115.005 174.768 114.797 174.555C114.589 174.336 114.242 174.227 113.758 174.227C113.122 174.227 112.646 174.497 112.328 175.039V181H110.07V172.547H112.195ZM121.789 170.469V172.547H123.234V174.203H121.789V178.422C121.789 178.734 121.849 178.958 121.969 179.094C122.089 179.229 122.318 179.297 122.656 179.297C122.906 179.297 123.128 179.279 123.32 179.242V180.953C122.878 181.089 122.422 181.156 121.953 181.156C120.37 181.156 119.562 180.357 119.531 178.758V174.203H118.297V172.547H119.531V170.469H121.789ZM128.125 176.695C128.125 175.857 128.286 175.109 128.609 174.453C128.932 173.797 129.396 173.289 130 172.93C130.609 172.57 131.315 172.391 132.117 172.391C133.258 172.391 134.188 172.74 134.906 173.438C135.63 174.135 136.034 175.083 136.117 176.281L136.133 176.859C136.133 178.156 135.771 179.198 135.047 179.984C134.323 180.766 133.352 181.156 132.133 181.156C130.914 181.156 129.94 180.766 129.211 179.984C128.487 179.203 128.125 178.141 128.125 176.797V176.695ZM130.383 176.859C130.383 177.661 130.534 178.276 130.836 178.703C131.138 179.125 131.57 179.336 132.133 179.336C132.68 179.336 133.107 179.128 133.414 178.711C133.721 178.289 133.875 177.617 133.875 176.695C133.875 175.909 133.721 175.299 133.414 174.867C133.107 174.435 132.674 174.219 132.117 174.219C131.565 174.219 131.138 174.435 130.836 174.867C130.534 175.294 130.383 175.958 130.383 176.859ZM138.141 181V174.203H136.883V172.547H138.141V171.828C138.141 170.88 138.411 170.146 138.953 169.625C139.5 169.099 140.263 168.836 141.242 168.836C141.555 168.836 141.938 168.888 142.391 168.992L142.367 170.742C142.18 170.695 141.951 170.672 141.68 170.672C140.831 170.672 140.406 171.07 140.406 171.867V172.547H142.086V174.203H140.406V181H138.141ZM143.875 181V174.203H142.617V172.547H143.875V171.828C143.875 170.88 144.146 170.146 144.688 169.625C145.234 169.099 145.997 168.836 146.977 168.836C147.289 168.836 147.672 168.888 148.125 168.992L148.102 170.742C147.914 170.695 147.685 170.672 147.414 170.672C146.565 170.672 146.141 171.07 146.141 171.867V172.547H147.82V174.203H146.141V181H143.875ZM152.695 181.156C151.456 181.156 150.445 180.776 149.664 180.016C148.888 179.255 148.5 178.242 148.5 176.977V176.758C148.5 175.909 148.664 175.151 148.992 174.484C149.32 173.812 149.784 173.297 150.383 172.938C150.987 172.573 151.674 172.391 152.445 172.391C153.602 172.391 154.51 172.755 155.172 173.484C155.839 174.214 156.172 175.247 156.172 176.586V177.508H150.789C150.862 178.06 151.081 178.503 151.445 178.836C151.815 179.169 152.281 179.336 152.844 179.336C153.714 179.336 154.393 179.021 154.883 178.391L155.992 179.633C155.654 180.112 155.195 180.487 154.617 180.758C154.039 181.023 153.398 181.156 152.695 181.156ZM152.438 174.219C151.99 174.219 151.625 174.37 151.344 174.672C151.068 174.974 150.891 175.406 150.812 175.969H153.953V175.789C153.943 175.289 153.807 174.904 153.547 174.633C153.286 174.357 152.917 174.219 152.438 174.219ZM162.211 174.664C161.904 174.622 161.633 174.602 161.398 174.602C160.544 174.602 159.984 174.891 159.719 175.469V181H157.461V172.547H159.594L159.656 173.555C160.109 172.779 160.737 172.391 161.539 172.391C161.789 172.391 162.023 172.424 162.242 172.492L162.211 174.664ZM171.867 178.664C171.867 178.388 171.729 178.172 171.453 178.016C171.182 177.854 170.745 177.711 170.141 177.586C168.13 177.164 167.125 176.31 167.125 175.023C167.125 174.273 167.435 173.648 168.055 173.148C168.68 172.643 169.495 172.391 170.5 172.391C171.573 172.391 172.43 172.643 173.07 173.148C173.716 173.654 174.039 174.31 174.039 175.117H171.781C171.781 174.794 171.677 174.529 171.469 174.32C171.26 174.107 170.935 174 170.492 174C170.112 174 169.818 174.086 169.609 174.258C169.401 174.43 169.297 174.648 169.297 174.914C169.297 175.164 169.414 175.367 169.648 175.523C169.888 175.674 170.289 175.807 170.852 175.922C171.414 176.031 171.888 176.156 172.273 176.297C173.466 176.734 174.062 177.492 174.062 178.57C174.062 179.341 173.732 179.966 173.07 180.445C172.409 180.919 171.555 181.156 170.508 181.156C169.799 181.156 169.169 181.031 168.617 180.781C168.07 180.526 167.641 180.18 167.328 179.742C167.016 179.299 166.859 178.823 166.859 178.312H169C169.021 178.714 169.169 179.021 169.445 179.234C169.721 179.448 170.091 179.555 170.555 179.555C170.987 179.555 171.312 179.474 171.531 179.312C171.755 179.146 171.867 178.93 171.867 178.664ZM179.039 179.336C179.456 179.336 179.794 179.221 180.055 178.992C180.315 178.763 180.451 178.458 180.461 178.078H182.578C182.573 178.651 182.417 179.177 182.109 179.656C181.802 180.13 181.38 180.5 180.844 180.766C180.312 181.026 179.724 181.156 179.078 181.156C177.87 181.156 176.917 180.773 176.219 180.008C175.521 179.237 175.172 178.174 175.172 176.82V176.672C175.172 175.37 175.518 174.331 176.211 173.555C176.904 172.779 177.854 172.391 179.062 172.391C180.12 172.391 180.966 172.693 181.602 173.297C182.242 173.896 182.568 174.695 182.578 175.695H180.461C180.451 175.258 180.315 174.904 180.055 174.633C179.794 174.357 179.451 174.219 179.023 174.219C178.497 174.219 178.099 174.411 177.828 174.797C177.562 175.177 177.43 175.797 177.43 176.656V176.891C177.43 177.76 177.562 178.385 177.828 178.766C178.094 179.146 178.497 179.336 179.039 179.336ZM188.617 174.664C188.31 174.622 188.039 174.602 187.805 174.602C186.951 174.602 186.391 174.891 186.125 175.469V181H183.867V172.547H186L186.062 173.555C186.516 172.779 187.143 172.391 187.945 172.391C188.195 172.391 188.43 172.424 188.648 172.492L188.617 174.664ZM193.445 181.156C192.206 181.156 191.195 180.776 190.414 180.016C189.638 179.255 189.25 178.242 189.25 176.977V176.758C189.25 175.909 189.414 175.151 189.742 174.484C190.07 173.812 190.534 173.297 191.133 172.938C191.737 172.573 192.424 172.391 193.195 172.391C194.352 172.391 195.26 172.755 195.922 173.484C196.589 174.214 196.922 175.247 196.922 176.586V177.508H191.539C191.612 178.06 191.831 178.503 192.195 178.836C192.565 179.169 193.031 179.336 193.594 179.336C194.464 179.336 195.143 179.021 195.633 178.391L196.742 179.633C196.404 180.112 195.945 180.487 195.367 180.758C194.789 181.023 194.148 181.156 193.445 181.156ZM193.188 174.219C192.74 174.219 192.375 174.37 192.094 174.672C191.818 174.974 191.641 175.406 191.562 175.969H194.703V175.789C194.693 175.289 194.557 174.904 194.297 174.633C194.036 174.357 193.667 174.219 193.188 174.219ZM202.102 181.156C200.862 181.156 199.852 180.776 199.07 180.016C198.294 179.255 197.906 178.242 197.906 176.977V176.758C197.906 175.909 198.07 175.151 198.398 174.484C198.727 173.812 199.19 173.297 199.789 172.938C200.393 172.573 201.081 172.391 201.852 172.391C203.008 172.391 203.917 172.755 204.578 173.484C205.245 174.214 205.578 175.247 205.578 176.586V177.508H200.195C200.268 178.06 200.487 178.503 200.852 178.836C201.221 179.169 201.688 179.336 202.25 179.336C203.12 179.336 203.799 179.021 204.289 178.391L205.398 179.633C205.06 180.112 204.602 180.487 204.023 180.758C203.445 181.023 202.805 181.156 202.102 181.156ZM201.844 174.219C201.396 174.219 201.031 174.37 200.75 174.672C200.474 174.974 200.297 175.406 200.219 175.969H203.359V175.789C203.349 175.289 203.214 174.904 202.953 174.633C202.693 174.357 202.323 174.219 201.844 174.219ZM208.945 172.547L209.016 173.523C209.62 172.768 210.43 172.391 211.445 172.391C212.341 172.391 213.008 172.654 213.445 173.18C213.883 173.706 214.107 174.492 214.117 175.539V181H211.859V175.594C211.859 175.115 211.755 174.768 211.547 174.555C211.339 174.336 210.992 174.227 210.508 174.227C209.872 174.227 209.396 174.497 209.078 175.039V181H206.82V172.547H208.945Z" fill="black"/>
<path d="M242.25 181H239.984V172.547H242.25V181ZM239.852 170.359C239.852 170.021 239.964 169.742 240.188 169.523C240.417 169.305 240.727 169.195 241.117 169.195C241.503 169.195 241.81 169.305 242.039 169.523C242.268 169.742 242.383 170.021 242.383 170.359C242.383 170.703 242.266 170.984 242.031 171.203C241.802 171.422 241.497 171.531 241.117 171.531C240.737 171.531 240.43 171.422 240.195 171.203C239.966 170.984 239.852 170.703 239.852 170.359ZM244.734 181V174.203H243.477V172.547H244.734V171.828C244.734 170.88 245.005 170.146 245.547 169.625C246.094 169.099 246.857 168.836 247.836 168.836C248.148 168.836 248.531 168.888 248.984 168.992L248.961 170.742C248.773 170.695 248.544 170.672 248.273 170.672C247.424 170.672 247 171.07 247 171.867V172.547H248.68V174.203H247V181H244.734Z" fill="black"/>
<rect x="261" y="158" width="148" height="35" rx="12" fill="#FFD12D"/>
<path d="M278.93 180.141C278.372 180.818 277.602 181.156 276.617 181.156C275.711 181.156 275.018 180.896 274.539 180.375C274.065 179.854 273.823 179.091 273.812 178.086V172.547H276.07V178.008C276.07 178.888 276.471 179.328 277.273 179.328C278.039 179.328 278.565 179.062 278.852 178.531V172.547H281.117V181H278.992L278.93 180.141ZM287.398 178.664C287.398 178.388 287.26 178.172 286.984 178.016C286.714 177.854 286.276 177.711 285.672 177.586C283.661 177.164 282.656 176.31 282.656 175.023C282.656 174.273 282.966 173.648 283.586 173.148C284.211 172.643 285.026 172.391 286.031 172.391C287.104 172.391 287.961 172.643 288.602 173.148C289.247 173.654 289.57 174.31 289.57 175.117H287.312C287.312 174.794 287.208 174.529 287 174.32C286.792 174.107 286.466 174 286.023 174C285.643 174 285.349 174.086 285.141 174.258C284.932 174.43 284.828 174.648 284.828 174.914C284.828 175.164 284.945 175.367 285.18 175.523C285.419 175.674 285.82 175.807 286.383 175.922C286.945 176.031 287.419 176.156 287.805 176.297C288.997 176.734 289.594 177.492 289.594 178.57C289.594 179.341 289.263 179.966 288.602 180.445C287.94 180.919 287.086 181.156 286.039 181.156C285.331 181.156 284.701 181.031 284.148 180.781C283.602 180.526 283.172 180.18 282.859 179.742C282.547 179.299 282.391 178.823 282.391 178.312H284.531C284.552 178.714 284.701 179.021 284.977 179.234C285.253 179.448 285.622 179.555 286.086 179.555C286.518 179.555 286.844 179.474 287.062 179.312C287.286 179.146 287.398 178.93 287.398 178.664ZM294.945 181.156C293.706 181.156 292.695 180.776 291.914 180.016C291.138 179.255 290.75 178.242 290.75 176.977V176.758C290.75 175.909 290.914 175.151 291.242 174.484C291.57 173.812 292.034 173.297 292.633 172.938C293.237 172.573 293.924 172.391 294.695 172.391C295.852 172.391 296.76 172.755 297.422 173.484C298.089 174.214 298.422 175.247 298.422 176.586V177.508H293.039C293.112 178.06 293.331 178.503 293.695 178.836C294.065 179.169 294.531 179.336 295.094 179.336C295.964 179.336 296.643 179.021 297.133 178.391L298.242 179.633C297.904 180.112 297.445 180.487 296.867 180.758C296.289 181.023 295.648 181.156 294.945 181.156ZM294.688 174.219C294.24 174.219 293.875 174.37 293.594 174.672C293.318 174.974 293.141 175.406 293.062 175.969H296.203V175.789C296.193 175.289 296.057 174.904 295.797 174.633C295.536 174.357 295.167 174.219 294.688 174.219ZM304.461 174.664C304.154 174.622 303.883 174.602 303.648 174.602C302.794 174.602 302.234 174.891 301.969 175.469V181H299.711V172.547H301.844L301.906 173.555C302.359 172.779 302.987 172.391 303.789 172.391C304.039 172.391 304.273 172.424 304.492 172.492L304.461 174.664ZM313.055 179.336C313.471 179.336 313.81 179.221 314.07 178.992C314.331 178.763 314.466 178.458 314.477 178.078H316.594C316.589 178.651 316.432 179.177 316.125 179.656C315.818 180.13 315.396 180.5 314.859 180.766C314.328 181.026 313.74 181.156 313.094 181.156C311.885 181.156 310.932 180.773 310.234 180.008C309.536 179.237 309.188 178.174 309.188 176.82V176.672C309.188 175.37 309.534 174.331 310.227 173.555C310.919 172.779 311.87 172.391 313.078 172.391C314.135 172.391 314.982 172.693 315.617 173.297C316.258 173.896 316.583 174.695 316.594 175.695H314.477C314.466 175.258 314.331 174.904 314.07 174.633C313.81 174.357 313.466 174.219 313.039 174.219C312.513 174.219 312.115 174.411 311.844 174.797C311.578 175.177 311.445 175.797 311.445 176.656V176.891C311.445 177.76 311.578 178.385 311.844 178.766C312.109 179.146 312.513 179.336 313.055 179.336ZM322.781 181C322.677 180.797 322.602 180.544 322.555 180.242C322.008 180.852 321.297 181.156 320.422 181.156C319.594 181.156 318.906 180.917 318.359 180.438C317.818 179.958 317.547 179.354 317.547 178.625C317.547 177.729 317.878 177.042 318.539 176.562C319.206 176.083 320.167 175.841 321.422 175.836H322.461V175.352C322.461 174.961 322.359 174.648 322.156 174.414C321.958 174.18 321.643 174.062 321.211 174.062C320.831 174.062 320.531 174.154 320.312 174.336C320.099 174.518 319.992 174.768 319.992 175.086H317.734C317.734 174.596 317.885 174.143 318.188 173.727C318.49 173.31 318.917 172.984 319.469 172.75C320.021 172.51 320.641 172.391 321.328 172.391C322.37 172.391 323.195 172.654 323.805 173.18C324.419 173.701 324.727 174.435 324.727 175.383V179.047C324.732 179.849 324.844 180.456 325.062 180.867V181H322.781ZM320.914 179.43C321.247 179.43 321.555 179.357 321.836 179.211C322.117 179.06 322.326 178.859 322.461 178.609V177.156H321.617C320.487 177.156 319.885 177.547 319.812 178.328L319.805 178.461C319.805 178.742 319.904 178.974 320.102 179.156C320.299 179.339 320.57 179.43 320.914 179.43ZM328.539 172.547L328.609 173.523C329.214 172.768 330.023 172.391 331.039 172.391C331.935 172.391 332.602 172.654 333.039 173.18C333.477 173.706 333.701 174.492 333.711 175.539V181H331.453V175.594C331.453 175.115 331.349 174.768 331.141 174.555C330.932 174.336 330.586 174.227 330.102 174.227C329.466 174.227 328.99 174.497 328.672 175.039V181H326.414V172.547H328.539ZM338.945 179.336C339.362 179.336 339.701 179.221 339.961 178.992C340.221 178.763 340.357 178.458 340.367 178.078H342.484C342.479 178.651 342.323 179.177 342.016 179.656C341.708 180.13 341.286 180.5 340.75 180.766C340.219 181.026 339.63 181.156 338.984 181.156C337.776 181.156 336.823 180.773 336.125 180.008C335.427 179.237 335.078 178.174 335.078 176.82V176.672C335.078 175.37 335.424 174.331 336.117 173.555C336.81 172.779 337.76 172.391 338.969 172.391C340.026 172.391 340.872 172.693 341.508 173.297C342.148 173.896 342.474 174.695 342.484 175.695H340.367C340.357 175.258 340.221 174.904 339.961 174.633C339.701 174.357 339.357 174.219 338.93 174.219C338.404 174.219 338.005 174.411 337.734 174.797C337.469 175.177 337.336 175.797 337.336 176.656V176.891C337.336 177.76 337.469 178.385 337.734 178.766C338 179.146 338.404 179.336 338.945 179.336ZM347.664 181.156C346.424 181.156 345.414 180.776 344.633 180.016C343.857 179.255 343.469 178.242 343.469 176.977V176.758C343.469 175.909 343.633 175.151 343.961 174.484C344.289 173.812 344.753 173.297 345.352 172.938C345.956 172.573 346.643 172.391 347.414 172.391C348.57 172.391 349.479 172.755 350.141 173.484C350.807 174.214 351.141 175.247 351.141 176.586V177.508H345.758C345.831 178.06 346.049 178.503 346.414 178.836C346.784 179.169 347.25 179.336 347.812 179.336C348.682 179.336 349.362 179.021 349.852 178.391L350.961 179.633C350.622 180.112 350.164 180.487 349.586 180.758C349.008 181.023 348.367 181.156 347.664 181.156ZM347.406 174.219C346.958 174.219 346.594 174.37 346.312 174.672C346.036 174.974 345.859 175.406 345.781 175.969H348.922V175.789C348.911 175.289 348.776 174.904 348.516 174.633C348.255 174.357 347.885 174.219 347.406 174.219ZM354.812 181H352.547V169H354.812V181ZM361.258 178.664C361.258 178.388 361.12 178.172 360.844 178.016C360.573 177.854 360.135 177.711 359.531 177.586C357.521 177.164 356.516 176.31 356.516 175.023C356.516 174.273 356.826 173.648 357.445 173.148C358.07 172.643 358.885 172.391 359.891 172.391C360.964 172.391 361.82 172.643 362.461 173.148C363.107 173.654 363.43 174.31 363.43 175.117H361.172C361.172 174.794 361.068 174.529 360.859 174.32C360.651 174.107 360.326 174 359.883 174C359.503 174 359.208 174.086 359 174.258C358.792 174.43 358.688 174.648 358.688 174.914C358.688 175.164 358.805 175.367 359.039 175.523C359.279 175.674 359.68 175.807 360.242 175.922C360.805 176.031 361.279 176.156 361.664 176.297C362.857 176.734 363.453 177.492 363.453 178.57C363.453 179.341 363.122 179.966 362.461 180.445C361.799 180.919 360.945 181.156 359.898 181.156C359.19 181.156 358.56 181.031 358.008 180.781C357.461 180.526 357.031 180.18 356.719 179.742C356.406 179.299 356.25 178.823 356.25 178.312H358.391C358.411 178.714 358.56 179.021 358.836 179.234C359.112 179.448 359.482 179.555 359.945 179.555C360.378 179.555 360.703 179.474 360.922 179.312C361.146 179.146 361.258 178.93 361.258 178.664ZM371.602 170.469V172.547H373.047V174.203H371.602V178.422C371.602 178.734 371.661 178.958 371.781 179.094C371.901 179.229 372.13 179.297 372.469 179.297C372.719 179.297 372.94 179.279 373.133 179.242V180.953C372.69 181.089 372.234 181.156 371.766 181.156C370.182 181.156 369.375 180.357 369.344 178.758V174.203H368.109V172.547H369.344V170.469H371.602ZM379.055 174.664C378.747 174.622 378.477 174.602 378.242 174.602C377.388 174.602 376.828 174.891 376.562 175.469V181H374.305V172.547H376.438L376.5 173.555C376.953 172.779 377.581 172.391 378.383 172.391C378.633 172.391 378.867 172.424 379.086 172.492L379.055 174.664ZM382.531 181H380.266V172.547H382.531V181ZM380.133 170.359C380.133 170.021 380.245 169.742 380.469 169.523C380.698 169.305 381.008 169.195 381.398 169.195C381.784 169.195 382.091 169.305 382.32 169.523C382.549 169.742 382.664 170.021 382.664 170.359C382.664 170.703 382.547 170.984 382.312 171.203C382.083 171.422 381.779 171.531 381.398 171.531C381.018 171.531 380.711 171.422 380.477 171.203C380.247 170.984 380.133 170.703 380.133 170.359ZM389.297 181C389.193 180.797 389.117 180.544 389.07 180.242C388.523 180.852 387.812 181.156 386.938 181.156C386.109 181.156 385.422 180.917 384.875 180.438C384.333 179.958 384.062 179.354 384.062 178.625C384.062 177.729 384.393 177.042 385.055 176.562C385.721 176.083 386.682 175.841 387.938 175.836H388.977V175.352C388.977 174.961 388.875 174.648 388.672 174.414C388.474 174.18 388.159 174.062 387.727 174.062C387.346 174.062 387.047 174.154 386.828 174.336C386.615 174.518 386.508 174.768 386.508 175.086H384.25C384.25 174.596 384.401 174.143 384.703 173.727C385.005 173.31 385.432 172.984 385.984 172.75C386.536 172.51 387.156 172.391 387.844 172.391C388.885 172.391 389.711 172.654 390.32 173.18C390.935 173.701 391.242 174.435 391.242 175.383V179.047C391.247 179.849 391.359 180.456 391.578 180.867V181H389.297ZM387.43 179.43C387.763 179.43 388.07 179.357 388.352 179.211C388.633 179.06 388.841 178.859 388.977 178.609V177.156H388.133C387.003 177.156 386.401 177.547 386.328 178.328L386.32 178.461C386.32 178.742 386.419 178.974 386.617 179.156C386.815 179.339 387.086 179.43 387.43 179.43ZM395.359 181H393.094V169H395.359V181Z" fill="black"/>
<rect x="7" y="53" width="466" height="74" rx="20" fill="#181818"/>
<rect x="16.5" y="46.5" width="463" height="71" rx="18.5" fill="white" stroke="black" stroke-width="3"/>
<rect x="35" y="64" width="99" height="35" rx="12" fill="#FFB9F8"/>
<path d="M52.4453 84.6641C52.4453 84.388 52.3073 84.1719 52.0312 84.0156C51.7604 83.8542 51.3229 83.7109 50.7188 83.5859C48.7083 83.1641 47.7031 82.3099 47.7031 81.0234C47.7031 80.2734 48.013 79.6484 48.6328 79.1484C49.2578 78.6432 50.0729 78.3906 51.0781 78.3906C52.151 78.3906 53.0078 78.6432 53.6484 79.1484C54.2943 79.6536 54.6172 80.3099 54.6172 81.1172H52.3594C52.3594 80.7943 52.2552 80.5286 52.0469 80.3203C51.8385 80.1068 51.513 80 51.0703 80C50.6901 80 50.3958 80.0859 50.1875 80.2578C49.9792 80.4297 49.875 80.6484 49.875 80.9141C49.875 81.1641 49.9922 81.3672 50.2266 81.5234C50.4661 81.6745 50.8672 81.8073 51.4297 81.9219C51.9922 82.0312 52.4661 82.1562 52.8516 82.2969C54.0443 82.7344 54.6406 83.4922 54.6406 84.5703C54.6406 85.3411 54.3099 85.9661 53.6484 86.4453C52.987 86.9193 52.1328 87.1562 51.0859 87.1562C50.3776 87.1562 49.7474 87.0312 49.1953 86.7812C48.6484 86.526 48.2188 86.1797 47.9062 85.7422C47.5938 85.2995 47.4375 84.8229 47.4375 84.3125H49.5781C49.599 84.7135 49.7474 85.0208 50.0234 85.2344C50.2995 85.4479 50.6693 85.5547 51.1328 85.5547C51.5651 85.5547 51.8906 85.474 52.1094 85.3125C52.3333 85.1458 52.4453 84.9297 52.4453 84.6641ZM59.9922 87.1562C58.7526 87.1562 57.7422 86.776 56.9609 86.0156C56.1849 85.2552 55.7969 84.2422 55.7969 82.9766V82.7578C55.7969 81.9089 55.9609 81.151 56.2891 80.4844C56.6172 79.8125 57.0807 79.2969 57.6797 78.9375C58.2839 78.5729 58.9714 78.3906 59.7422 78.3906C60.8984 78.3906 61.8073 78.7552 62.4688 79.4844C63.1354 80.2135 63.4688 81.2474 63.4688 82.5859V83.5078H58.0859C58.1589 84.0599 58.3776 84.5026 58.7422 84.8359C59.112 85.1693 59.5781 85.3359 60.1406 85.3359C61.0104 85.3359 61.6901 85.0208 62.1797 84.3906L63.2891 85.6328C62.9505 86.112 62.4922 86.487 61.9141 86.7578C61.3359 87.0234 60.6953 87.1562 59.9922 87.1562ZM59.7344 80.2188C59.2865 80.2188 58.9219 80.3698 58.6406 80.6719C58.3646 80.974 58.1875 81.4062 58.1094 81.9688H61.25V81.7891C61.2396 81.2891 61.1042 80.9036 60.8438 80.6328C60.5833 80.3568 60.2135 80.2188 59.7344 80.2188ZM66.8359 78.5469L66.9062 79.5234C67.5104 78.7682 68.3203 78.3906 69.3359 78.3906C70.2318 78.3906 70.8984 78.6536 71.3359 79.1797C71.7734 79.7057 71.9974 80.4922 72.0078 81.5391V87H69.75V81.5938C69.75 81.1146 69.6458 80.7682 69.4375 80.5547C69.2292 80.3359 68.8828 80.2266 68.3984 80.2266C67.763 80.2266 67.2865 80.4974 66.9688 81.0391V87H64.7109V78.5469H66.8359ZM73.375 82.7109C73.375 81.3932 73.6693 80.3438 74.2578 79.5625C74.8516 78.7812 75.6615 78.3906 76.6875 78.3906C77.5104 78.3906 78.1901 78.6979 78.7266 79.3125V75H80.9922V87H78.9531L78.8438 86.1016C78.2812 86.8047 77.5573 87.1562 76.6719 87.1562C75.6771 87.1562 74.8776 86.7656 74.2734 85.9844C73.6745 85.1979 73.375 84.1068 73.375 82.7109ZM75.6328 82.875C75.6328 83.6667 75.7708 84.2734 76.0469 84.6953C76.3229 85.1172 76.724 85.3281 77.25 85.3281C77.9479 85.3281 78.4401 85.0339 78.7266 84.4453V81.1094C78.4453 80.5208 77.9583 80.2266 77.2656 80.2266C76.1771 80.2266 75.6328 81.1094 75.6328 82.875ZM94.3359 82.8516C94.3359 84.1536 94.0391 85.1979 93.4453 85.9844C92.8568 86.7656 92.0599 87.1562 91.0547 87.1562C90.2005 87.1562 89.5104 86.8594 88.9844 86.2656V90.25H86.7266V78.5469H88.8203L88.8984 79.375C89.4453 78.7188 90.1589 78.3906 91.0391 78.3906C92.0807 78.3906 92.8906 78.776 93.4688 79.5469C94.0469 80.3177 94.3359 81.3802 94.3359 82.7344V82.8516ZM92.0781 82.6875C92.0781 81.901 91.9375 81.2943 91.6562 80.8672C91.3802 80.4401 90.9766 80.2266 90.4453 80.2266C89.737 80.2266 89.25 80.4974 88.9844 81.0391V84.5C89.2604 85.0573 89.7526 85.3359 90.4609 85.3359C91.5391 85.3359 92.0781 84.4531 92.0781 82.6875ZM100.805 86.1406C100.247 86.8177 99.4766 87.1562 98.4922 87.1562C97.5859 87.1562 96.8932 86.8958 96.4141 86.375C95.9401 85.8542 95.6979 85.0911 95.6875 84.0859V78.5469H97.9453V84.0078C97.9453 84.888 98.3464 85.3281 99.1484 85.3281C99.9141 85.3281 100.44 85.0625 100.727 84.5312V78.5469H102.992V87H100.867L100.805 86.1406ZM109.273 84.6641C109.273 84.388 109.135 84.1719 108.859 84.0156C108.589 83.8542 108.151 83.7109 107.547 83.5859C105.536 83.1641 104.531 82.3099 104.531 81.0234C104.531 80.2734 104.841 79.6484 105.461 79.1484C106.086 78.6432 106.901 78.3906 107.906 78.3906C108.979 78.3906 109.836 78.6432 110.477 79.1484C111.122 79.6536 111.445 80.3099 111.445 81.1172H109.188C109.188 80.7943 109.083 80.5286 108.875 80.3203C108.667 80.1068 108.341 80 107.898 80C107.518 80 107.224 80.0859 107.016 80.2578C106.807 80.4297 106.703 80.6484 106.703 80.9141C106.703 81.1641 106.82 81.3672 107.055 81.5234C107.294 81.6745 107.695 81.8073 108.258 81.9219C108.82 82.0312 109.294 82.1562 109.68 82.2969C110.872 82.7344 111.469 83.4922 111.469 84.5703C111.469 85.3411 111.138 85.9661 110.477 86.4453C109.815 86.9193 108.961 87.1562 107.914 87.1562C107.206 87.1562 106.576 87.0312 106.023 86.7812C105.477 86.526 105.047 86.1797 104.734 85.7422C104.422 85.2995 104.266 84.8229 104.266 84.3125H106.406C106.427 84.7135 106.576 85.0208 106.852 85.2344C107.128 85.4479 107.497 85.5547 107.961 85.5547C108.393 85.5547 108.719 85.474 108.938 85.3125C109.161 85.1458 109.273 84.9297 109.273 84.6641ZM115.133 79.4688C115.732 78.75 116.484 78.3906 117.391 78.3906C119.224 78.3906 120.154 79.4557 120.18 81.5859V87H117.922V81.6484C117.922 81.1641 117.818 80.8073 117.609 80.5781C117.401 80.3438 117.055 80.2266 116.57 80.2266C115.909 80.2266 115.43 80.4818 115.133 80.9922V87H112.875V75H115.133V79.4688Z" fill="black"/>
<path d="M154.219 83.9297L155.328 78.5469H157.508L155.352 87H153.461L151.859 81.6797L150.258 87H148.375L146.219 78.5469H148.398L149.5 83.9219L151.047 78.5469H152.68L154.219 83.9297ZM160.836 79.4688C161.435 78.75 162.188 78.3906 163.094 78.3906C164.927 78.3906 165.857 79.4557 165.883 81.5859V87H163.625V81.6484C163.625 81.1641 163.521 80.8073 163.312 80.5781C163.104 80.3438 162.758 80.2266 162.273 80.2266C161.612 80.2266 161.133 80.4818 160.836 80.9922V87H158.578V75H160.836V79.4688ZM171.477 87.1562C170.237 87.1562 169.227 86.776 168.445 86.0156C167.669 85.2552 167.281 84.2422 167.281 82.9766V82.7578C167.281 81.9089 167.445 81.151 167.773 80.4844C168.102 79.8125 168.565 79.2969 169.164 78.9375C169.768 78.5729 170.456 78.3906 171.227 78.3906C172.383 78.3906 173.292 78.7552 173.953 79.4844C174.62 80.2135 174.953 81.2474 174.953 82.5859V83.5078H169.57C169.643 84.0599 169.862 84.5026 170.227 84.8359C170.596 85.1693 171.062 85.3359 171.625 85.3359C172.495 85.3359 173.174 85.0208 173.664 84.3906L174.773 85.6328C174.435 86.112 173.977 86.487 173.398 86.7578C172.82 87.0234 172.18 87.1562 171.477 87.1562ZM171.219 80.2188C170.771 80.2188 170.406 80.3698 170.125 80.6719C169.849 80.974 169.672 81.4062 169.594 81.9688H172.734V81.7891C172.724 81.2891 172.589 80.9036 172.328 80.6328C172.068 80.3568 171.698 80.2188 171.219 80.2188ZM178.32 78.5469L178.391 79.5234C178.995 78.7682 179.805 78.3906 180.82 78.3906C181.716 78.3906 182.383 78.6536 182.82 79.1797C183.258 79.7057 183.482 80.4922 183.492 81.5391V87H181.234V81.5938C181.234 81.1146 181.13 80.7682 180.922 80.5547C180.714 80.3359 180.367 80.2266 179.883 80.2266C179.247 80.2266 178.771 80.4974 178.453 81.0391V87H176.195V78.5469H178.32Z" fill="black"/>
<rect x="197" y="64" width="264" height="35" rx="12" fill="#FFB9F8"/>
<path d="M214.93 86.1406C214.372 86.8177 213.602 87.1562 212.617 87.1562C211.711 87.1562 211.018 86.8958 210.539 86.375C210.065 85.8542 209.823 85.0911 209.812 84.0859V78.5469H212.07V84.0078C212.07 84.888 212.471 85.3281 213.273 85.3281C214.039 85.3281 214.565 85.0625 214.852 84.5312V78.5469H217.117V87H214.992L214.93 86.1406ZM223.398 84.6641C223.398 84.388 223.26 84.1719 222.984 84.0156C222.714 83.8542 222.276 83.7109 221.672 83.5859C219.661 83.1641 218.656 82.3099 218.656 81.0234C218.656 80.2734 218.966 79.6484 219.586 79.1484C220.211 78.6432 221.026 78.3906 222.031 78.3906C223.104 78.3906 223.961 78.6432 224.602 79.1484C225.247 79.6536 225.57 80.3099 225.57 81.1172H223.312C223.312 80.7943 223.208 80.5286 223 80.3203C222.792 80.1068 222.466 80 222.023 80C221.643 80 221.349 80.0859 221.141 80.2578C220.932 80.4297 220.828 80.6484 220.828 80.9141C220.828 81.1641 220.945 81.3672 221.18 81.5234C221.419 81.6745 221.82 81.8073 222.383 81.9219C222.945 82.0312 223.419 82.1562 223.805 82.2969C224.997 82.7344 225.594 83.4922 225.594 84.5703C225.594 85.3411 225.263 85.9661 224.602 86.4453C223.94 86.9193 223.086 87.1562 222.039 87.1562C221.331 87.1562 220.701 87.0312 220.148 86.7812C219.602 86.526 219.172 86.1797 218.859 85.7422C218.547 85.2995 218.391 84.8229 218.391 84.3125H220.531C220.552 84.7135 220.701 85.0208 220.977 85.2344C221.253 85.4479 221.622 85.5547 222.086 85.5547C222.518 85.5547 222.844 85.474 223.062 85.3125C223.286 85.1458 223.398 84.9297 223.398 84.6641ZM230.945 87.1562C229.706 87.1562 228.695 86.776 227.914 86.0156C227.138 85.2552 226.75 84.2422 226.75 82.9766V82.7578C226.75 81.9089 226.914 81.151 227.242 80.4844C227.57 79.8125 228.034 79.2969 228.633 78.9375C229.237 78.5729 229.924 78.3906 230.695 78.3906C231.852 78.3906 232.76 78.7552 233.422 79.4844C234.089 80.2135 234.422 81.2474 234.422 82.5859V83.5078H229.039C229.112 84.0599 229.331 84.5026 229.695 84.8359C230.065 85.1693 230.531 85.3359 231.094 85.3359C231.964 85.3359 232.643 85.0208 233.133 84.3906L234.242 85.6328C233.904 86.112 233.445 86.487 232.867 86.7578C232.289 87.0234 231.648 87.1562 230.945 87.1562ZM230.688 80.2188C230.24 80.2188 229.875 80.3698 229.594 80.6719C229.318 80.974 229.141 81.4062 229.062 81.9688H232.203V81.7891C232.193 81.2891 232.057 80.9036 231.797 80.6328C231.536 80.3568 231.167 80.2188 230.688 80.2188ZM240.461 80.6641C240.154 80.6224 239.883 80.6016 239.648 80.6016C238.794 80.6016 238.234 80.8906 237.969 81.4688V87H235.711V78.5469H237.844L237.906 79.5547C238.359 78.7786 238.987 78.3906 239.789 78.3906C240.039 78.3906 240.273 78.4245 240.492 78.4922L240.461 80.6641ZM249.055 85.3359C249.471 85.3359 249.81 85.2214 250.07 84.9922C250.331 84.763 250.466 84.4583 250.477 84.0781H252.594C252.589 84.651 252.432 85.1771 252.125 85.6562C251.818 86.1302 251.396 86.5 250.859 86.7656C250.328 87.026 249.74 87.1562 249.094 87.1562C247.885 87.1562 246.932 86.7734 246.234 86.0078C245.536 85.237 245.188 84.1745 245.188 82.8203V82.6719C245.188 81.3698 245.534 80.3307 246.227 79.5547C246.919 78.7786 247.87 78.3906 249.078 78.3906C250.135 78.3906 250.982 78.6927 251.617 79.2969C252.258 79.8958 252.583 80.6953 252.594 81.6953H250.477C250.466 81.2578 250.331 80.9036 250.07 80.6328C249.81 80.3568 249.466 80.2188 249.039 80.2188C248.513 80.2188 248.115 80.4115 247.844 80.7969C247.578 81.1771 247.445 81.7969 247.445 82.6562V82.8906C247.445 83.7604 247.578 84.3854 247.844 84.7656C248.109 85.1458 248.513 85.3359 249.055 85.3359ZM258.781 87C258.677 86.7969 258.602 86.5443 258.555 86.2422C258.008 86.8516 257.297 87.1562 256.422 87.1562C255.594 87.1562 254.906 86.9167 254.359 86.4375C253.818 85.9583 253.547 85.3542 253.547 84.625C253.547 83.7292 253.878 83.0417 254.539 82.5625C255.206 82.0833 256.167 81.8411 257.422 81.8359H258.461V81.3516C258.461 80.9609 258.359 80.6484 258.156 80.4141C257.958 80.1797 257.643 80.0625 257.211 80.0625C256.831 80.0625 256.531 80.1536 256.312 80.3359C256.099 80.5182 255.992 80.7682 255.992 81.0859H253.734C253.734 80.5964 253.885 80.1432 254.188 79.7266C254.49 79.3099 254.917 78.9844 255.469 78.75C256.021 78.5104 256.641 78.3906 257.328 78.3906C258.37 78.3906 259.195 78.6536 259.805 79.1797C260.419 79.7005 260.727 80.4349 260.727 81.3828V85.0469C260.732 85.849 260.844 86.4557 261.062 86.8672V87H258.781ZM256.914 85.4297C257.247 85.4297 257.555 85.3568 257.836 85.2109C258.117 85.0599 258.326 84.8594 258.461 84.6094V83.1562H257.617C256.487 83.1562 255.885 83.5469 255.812 84.3281L255.805 84.4609C255.805 84.7422 255.904 84.974 256.102 85.1562C256.299 85.3385 256.57 85.4297 256.914 85.4297ZM264.539 78.5469L264.609 79.5234C265.214 78.7682 266.023 78.3906 267.039 78.3906C267.935 78.3906 268.602 78.6536 269.039 79.1797C269.477 79.7057 269.701 80.4922 269.711 81.5391V87H267.453V81.5938C267.453 81.1146 267.349 80.7682 267.141 80.5547C266.932 80.3359 266.586 80.2266 266.102 80.2266C265.466 80.2266 264.99 80.4974 264.672 81.0391V87H262.414V78.5469H264.539ZM274.945 85.3359C275.362 85.3359 275.701 85.2214 275.961 84.9922C276.221 84.763 276.357 84.4583 276.367 84.0781H278.484C278.479 84.651 278.323 85.1771 278.016 85.6562C277.708 86.1302 277.286 86.5 276.75 86.7656C276.219 87.026 275.63 87.1562 274.984 87.1562C273.776 87.1562 272.823 86.7734 272.125 86.0078C271.427 85.237 271.078 84.1745 271.078 82.8203V82.6719C271.078 81.3698 271.424 80.3307 272.117 79.5547C272.81 78.7786 273.76 78.3906 274.969 78.3906C276.026 78.3906 276.872 78.6927 277.508 79.2969C278.148 79.8958 278.474 80.6953 278.484 81.6953H276.367C276.357 81.2578 276.221 80.9036 275.961 80.6328C275.701 80.3568 275.357 80.2188 274.93 80.2188C274.404 80.2188 274.005 80.4115 273.734 80.7969C273.469 81.1771 273.336 81.7969 273.336 82.6562V82.8906C273.336 83.7604 273.469 84.3854 273.734 84.7656C274 85.1458 274.404 85.3359 274.945 85.3359ZM283.664 87.1562C282.424 87.1562 281.414 86.776 280.633 86.0156C279.857 85.2552 279.469 84.2422 279.469 82.9766V82.7578C279.469 81.9089 279.633 81.151 279.961 80.4844C280.289 79.8125 280.753 79.2969 281.352 78.9375C281.956 78.5729 282.643 78.3906 283.414 78.3906C284.57 78.3906 285.479 78.7552 286.141 79.4844C286.807 80.2135 287.141 81.2474 287.141 82.5859V83.5078H281.758C281.831 84.0599 282.049 84.5026 282.414 84.8359C282.784 85.1693 283.25 85.3359 283.812 85.3359C284.682 85.3359 285.362 85.0208 285.852 84.3906L286.961 85.6328C286.622 86.112 286.164 86.487 285.586 86.7578C285.008 87.0234 284.367 87.1562 283.664 87.1562ZM283.406 80.2188C282.958 80.2188 282.594 80.3698 282.312 80.6719C282.036 80.974 281.859 81.4062 281.781 81.9688H284.922V81.7891C284.911 81.2891 284.776 80.9036 284.516 80.6328C284.255 80.3568 283.885 80.2188 283.406 80.2188ZM290.812 87H288.547V75H290.812V87ZM297.258 84.6641C297.258 84.388 297.12 84.1719 296.844 84.0156C296.573 83.8542 296.135 83.7109 295.531 83.5859C293.521 83.1641 292.516 82.3099 292.516 81.0234C292.516 80.2734 292.826 79.6484 293.445 79.1484C294.07 78.6432 294.885 78.3906 295.891 78.3906C296.964 78.3906 297.82 78.6432 298.461 79.1484C299.107 79.6536 299.43 80.3099 299.43 81.1172H297.172C297.172 80.7943 297.068 80.5286 296.859 80.3203C296.651 80.1068 296.326 80 295.883 80C295.503 80 295.208 80.0859 295 80.2578C294.792 80.4297 294.688 80.6484 294.688 80.9141C294.688 81.1641 294.805 81.3672 295.039 81.5234C295.279 81.6745 295.68 81.8073 296.242 81.9219C296.805 82.0312 297.279 82.1562 297.664 82.2969C298.857 82.7344 299.453 83.4922 299.453 84.5703C299.453 85.3411 299.122 85.9661 298.461 86.4453C297.799 86.9193 296.945 87.1562 295.898 87.1562C295.19 87.1562 294.56 87.0312 294.008 86.7812C293.461 86.526 293.031 86.1797 292.719 85.7422C292.406 85.2995 292.25 84.8229 292.25 84.3125H294.391C294.411 84.7135 294.56 85.0208 294.836 85.2344C295.112 85.4479 295.482 85.5547 295.945 85.5547C296.378 85.5547 296.703 85.474 296.922 85.3125C297.146 85.1458 297.258 84.9297 297.258 84.6641ZM309.648 80.6641C309.341 80.6224 309.07 80.6016 308.836 80.6016C307.982 80.6016 307.422 80.8906 307.156 81.4688V87H304.898V78.5469H307.031L307.094 79.5547C307.547 78.7786 308.174 78.3906 308.977 78.3906C309.227 78.3906 309.461 78.4245 309.68 78.4922L309.648 80.6641ZM314.477 87.1562C313.237 87.1562 312.227 86.776 311.445 86.0156C310.669 85.2552 310.281 84.2422 310.281 82.9766V82.7578C310.281 81.9089 310.445 81.151 310.773 80.4844C311.102 79.8125 311.565 79.2969 312.164 78.9375C312.768 78.5729 313.456 78.3906 314.227 78.3906C315.383 78.3906 316.292 78.7552 316.953 79.4844C317.62 80.2135 317.953 81.2474 317.953 82.5859V83.5078H312.57C312.643 84.0599 312.862 84.5026 313.227 84.8359C313.596 85.1693 314.062 85.3359 314.625 85.3359C315.495 85.3359 316.174 85.0208 316.664 84.3906L317.773 85.6328C317.435 86.112 316.977 86.487 316.398 86.7578C315.82 87.0234 315.18 87.1562 314.477 87.1562ZM314.219 80.2188C313.771 80.2188 313.406 80.3698 313.125 80.6719C312.849 80.974 312.672 81.4062 312.594 81.9688H315.734V81.7891C315.724 81.2891 315.589 80.9036 315.328 80.6328C315.068 80.3568 314.698 80.2188 314.219 80.2188ZM318.914 82.7109C318.914 81.4141 319.221 80.3698 319.836 79.5781C320.456 78.7865 321.289 78.3906 322.336 78.3906C323.263 78.3906 323.984 78.7083 324.5 79.3438L324.594 78.5469H326.641V86.7188C326.641 87.4583 326.471 88.1016 326.133 88.6484C325.799 89.1953 325.328 89.612 324.719 89.8984C324.109 90.1849 323.396 90.3281 322.578 90.3281C321.958 90.3281 321.354 90.2031 320.766 89.9531C320.177 89.7083 319.732 89.3906 319.43 89L320.43 87.625C320.992 88.2552 321.674 88.5703 322.477 88.5703C323.076 88.5703 323.542 88.4089 323.875 88.0859C324.208 87.7682 324.375 87.3151 324.375 86.7266V86.2734C323.854 86.862 323.169 87.1562 322.32 87.1562C321.305 87.1562 320.482 86.7604 319.852 85.9688C319.227 85.1719 318.914 84.1172 318.914 82.8047V82.7109ZM321.172 82.875C321.172 83.6406 321.326 84.2422 321.633 84.6797C321.94 85.112 322.362 85.3281 322.898 85.3281C323.586 85.3281 324.078 85.0703 324.375 84.5547V81C324.073 80.4844 323.586 80.2266 322.914 80.2266C322.372 80.2266 321.945 80.4479 321.633 80.8906C321.326 81.3333 321.172 81.9948 321.172 82.875ZM333.445 86.1406C332.888 86.8177 332.117 87.1562 331.133 87.1562C330.227 87.1562 329.534 86.8958 329.055 86.375C328.581 85.8542 328.339 85.0911 328.328 84.0859V78.5469H330.586V84.0078C330.586 84.888 330.987 85.3281 331.789 85.3281C332.555 85.3281 333.081 85.0625 333.367 84.5312V78.5469H335.633V87H333.508L333.445 86.1406ZM339.719 87H337.453V75H339.719V87ZM346.484 87C346.38 86.7969 346.305 86.5443 346.258 86.2422C345.711 86.8516 345 87.1562 344.125 87.1562C343.297 87.1562 342.609 86.9167 342.062 86.4375C341.521 85.9583 341.25 85.3542 341.25 84.625C341.25 83.7292 341.581 83.0417 342.242 82.5625C342.909 82.0833 343.87 81.8411 345.125 81.8359H346.164V81.3516C346.164 80.9609 346.062 80.6484 345.859 80.4141C345.661 80.1797 345.346 80.0625 344.914 80.0625C344.534 80.0625 344.234 80.1536 344.016 80.3359C343.802 80.5182 343.695 80.7682 343.695 81.0859H341.438C341.438 80.5964 341.589 80.1432 341.891 79.7266C342.193 79.3099 342.62 78.9844 343.172 78.75C343.724 78.5104 344.344 78.3906 345.031 78.3906C346.073 78.3906 346.898 78.6536 347.508 79.1797C348.122 79.7005 348.43 80.4349 348.43 81.3828V85.0469C348.435 85.849 348.547 86.4557 348.766 86.8672V87H346.484ZM344.617 85.4297C344.951 85.4297 345.258 85.3568 345.539 85.2109C345.82 85.0599 346.029 84.8594 346.164 84.6094V83.1562H345.32C344.19 83.1562 343.589 83.5469 343.516 84.3281L343.508 84.4609C343.508 84.7422 343.607 84.974 343.805 85.1562C344.003 85.3385 344.273 85.4297 344.617 85.4297ZM354.914 80.6641C354.607 80.6224 354.336 80.6016 354.102 80.6016C353.247 80.6016 352.688 80.8906 352.422 81.4688V87H350.164V78.5469H352.297L352.359 79.5547C352.812 78.7786 353.44 78.3906 354.242 78.3906C354.492 78.3906 354.727 78.4245 354.945 78.4922L354.914 80.6641ZM364.57 84.6641C364.57 84.388 364.432 84.1719 364.156 84.0156C363.885 83.8542 363.448 83.7109 362.844 83.5859C360.833 83.1641 359.828 82.3099 359.828 81.0234C359.828 80.2734 360.138 79.6484 360.758 79.1484C361.383 78.6432 362.198 78.3906 363.203 78.3906C364.276 78.3906 365.133 78.6432 365.773 79.1484C366.419 79.6536 366.742 80.3099 366.742 81.1172H364.484C364.484 80.7943 364.38 80.5286 364.172 80.3203C363.964 80.1068 363.638 80 363.195 80C362.815 80 362.521 80.0859 362.312 80.2578C362.104 80.4297 362 80.6484 362 80.9141C362 81.1641 362.117 81.3672 362.352 81.5234C362.591 81.6745 362.992 81.8073 363.555 81.9219C364.117 82.0312 364.591 82.1562 364.977 82.2969C366.169 82.7344 366.766 83.4922 366.766 84.5703C366.766 85.3411 366.435 85.9661 365.773 86.4453C365.112 86.9193 364.258 87.1562 363.211 87.1562C362.503 87.1562 361.872 87.0312 361.32 86.7812C360.773 86.526 360.344 86.1797 360.031 85.7422C359.719 85.2995 359.562 84.8229 359.562 84.3125H361.703C361.724 84.7135 361.872 85.0208 362.148 85.2344C362.424 85.4479 362.794 85.5547 363.258 85.5547C363.69 85.5547 364.016 85.474 364.234 85.3125C364.458 85.1458 364.57 84.9297 364.57 84.6641ZM373.289 86.1406C372.732 86.8177 371.961 87.1562 370.977 87.1562C370.07 87.1562 369.378 86.8958 368.898 86.375C368.424 85.8542 368.182 85.0911 368.172 84.0859V78.5469H370.43V84.0078C370.43 84.888 370.831 85.3281 371.633 85.3281C372.398 85.3281 372.924 85.0625 373.211 84.5312V78.5469H375.477V87H373.352L373.289 86.1406ZM384.797 82.8516C384.797 84.2057 384.508 85.263 383.93 86.0234C383.352 86.7786 382.544 87.1562 381.508 87.1562C380.591 87.1562 379.859 86.8047 379.312 86.1016L379.211 87H377.18V75H379.438V79.3047C379.958 78.6953 380.643 78.3906 381.492 78.3906C382.523 78.3906 383.331 78.7708 383.914 79.5312C384.503 80.2865 384.797 81.3516 384.797 82.7266V82.8516ZM382.539 82.6875C382.539 81.8333 382.404 81.2109 382.133 80.8203C381.862 80.4245 381.458 80.2266 380.922 80.2266C380.203 80.2266 379.708 80.5208 379.438 81.1094V84.4453C379.714 85.0391 380.214 85.3359 380.938 85.3359C381.667 85.3359 382.146 84.9766 382.375 84.2578C382.484 83.9141 382.539 83.3906 382.539 82.6875ZM390.773 84.6641C390.773 84.388 390.635 84.1719 390.359 84.0156C390.089 83.8542 389.651 83.7109 389.047 83.5859C387.036 83.1641 386.031 82.3099 386.031 81.0234C386.031 80.2734 386.341 79.6484 386.961 79.1484C387.586 78.6432 388.401 78.3906 389.406 78.3906C390.479 78.3906 391.336 78.6432 391.977 79.1484C392.622 79.6536 392.945 80.3099 392.945 81.1172H390.688C390.688 80.7943 390.583 80.5286 390.375 80.3203C390.167 80.1068 389.841 80 389.398 80C389.018 80 388.724 80.0859 388.516 80.2578C388.307 80.4297 388.203 80.6484 388.203 80.9141C388.203 81.1641 388.32 81.3672 388.555 81.5234C388.794 81.6745 389.195 81.8073 389.758 81.9219C390.32 82.0312 390.794 82.1562 391.18 82.2969C392.372 82.7344 392.969 83.4922 392.969 84.5703C392.969 85.3411 392.638 85.9661 391.977 86.4453C391.315 86.9193 390.461 87.1562 389.414 87.1562C388.706 87.1562 388.076 87.0312 387.523 86.7812C386.977 86.526 386.547 86.1797 386.234 85.7422C385.922 85.2995 385.766 84.8229 385.766 84.3125H387.906C387.927 84.7135 388.076 85.0208 388.352 85.2344C388.628 85.4479 388.997 85.5547 389.461 85.5547C389.893 85.5547 390.219 85.474 390.438 85.3125C390.661 85.1458 390.773 84.9297 390.773 84.6641ZM397.945 85.3359C398.362 85.3359 398.701 85.2214 398.961 84.9922C399.221 84.763 399.357 84.4583 399.367 84.0781H401.484C401.479 84.651 401.323 85.1771 401.016 85.6562C400.708 86.1302 400.286 86.5 399.75 86.7656C399.219 87.026 398.63 87.1562 397.984 87.1562C396.776 87.1562 395.823 86.7734 395.125 86.0078C394.427 85.237 394.078 84.1745 394.078 82.8203V82.6719C394.078 81.3698 394.424 80.3307 395.117 79.5547C395.81 78.7786 396.76 78.3906 397.969 78.3906C399.026 78.3906 399.872 78.6927 400.508 79.2969C401.148 79.8958 401.474 80.6953 401.484 81.6953H399.367C399.357 81.2578 399.221 80.9036 398.961 80.6328C398.701 80.3568 398.357 80.2188 397.93 80.2188C397.404 80.2188 397.005 80.4115 396.734 80.7969C396.469 81.1771 396.336 81.7969 396.336 82.6562V82.8906C396.336 83.7604 396.469 84.3854 396.734 84.7656C397 85.1458 397.404 85.3359 397.945 85.3359ZM407.523 80.6641C407.216 80.6224 406.945 80.6016 406.711 80.6016C405.857 80.6016 405.297 80.8906 405.031 81.4688V87H402.773V78.5469H404.906L404.969 79.5547C405.422 78.7786 406.049 78.3906 406.852 78.3906C407.102 78.3906 407.336 78.4245 407.555 78.4922L407.523 80.6641ZM411 87H408.734V78.5469H411V87ZM408.602 76.3594C408.602 76.0208 408.714 75.7422 408.938 75.5234C409.167 75.3047 409.477 75.1953 409.867 75.1953C410.253 75.1953 410.56 75.3047 410.789 75.5234C411.018 75.7422 411.133 76.0208 411.133 76.3594C411.133 76.7031 411.016 76.9844 410.781 77.2031C410.552 77.4219 410.247 77.5312 409.867 77.5312C409.487 77.5312 409.18 77.4219 408.945 77.2031C408.716 76.9844 408.602 76.7031 408.602 76.3594ZM420.477 82.8516C420.477 84.1536 420.18 85.1979 419.586 85.9844C418.997 86.7656 418.201 87.1562 417.195 87.1562C416.341 87.1562 415.651 86.8594 415.125 86.2656V90.25H412.867V78.5469H414.961L415.039 79.375C415.586 78.7188 416.299 78.3906 417.18 78.3906C418.221 78.3906 419.031 78.776 419.609 79.5469C420.188 80.3177 420.477 81.3802 420.477 82.7344V82.8516ZM418.219 82.6875C418.219 81.901 418.078 81.2943 417.797 80.8672C417.521 80.4401 417.117 80.2266 416.586 80.2266C415.878 80.2266 415.391 80.4974 415.125 81.0391V84.5C415.401 85.0573 415.893 85.3359 416.602 85.3359C417.68 85.3359 418.219 84.4531 418.219 82.6875ZM424.586 76.4688V78.5469H426.031V80.2031H424.586V84.4219C424.586 84.7344 424.646 84.9583 424.766 85.0938C424.885 85.2292 425.115 85.2969 425.453 85.2969C425.703 85.2969 425.924 85.2786 426.117 85.2422V86.9531C425.674 87.0885 425.219 87.1562 424.75 87.1562C423.167 87.1562 422.359 86.3568 422.328 84.7578V80.2031H421.094V78.5469H422.328V76.4688H424.586ZM429.672 87H427.406V78.5469H429.672V87ZM427.273 76.3594C427.273 76.0208 427.385 75.7422 427.609 75.5234C427.839 75.3047 428.148 75.1953 428.539 75.1953C428.924 75.1953 429.232 75.3047 429.461 75.5234C429.69 75.7422 429.805 76.0208 429.805 76.3594C429.805 76.7031 429.688 76.9844 429.453 77.2031C429.224 77.4219 428.919 77.5312 428.539 77.5312C428.159 77.5312 427.852 77.4219 427.617 77.2031C427.388 76.9844 427.273 76.7031 427.273 76.3594ZM431.188 82.6953C431.188 81.8568 431.349 81.1094 431.672 80.4531C431.995 79.7969 432.458 79.2891 433.062 78.9297C433.672 78.5703 434.378 78.3906 435.18 78.3906C436.32 78.3906 437.25 78.7396 437.969 79.4375C438.693 80.1354 439.096 81.0833 439.18 82.2812L439.195 82.8594C439.195 84.1562 438.833 85.1979 438.109 85.9844C437.385 86.7656 436.414 87.1562 435.195 87.1562C433.977 87.1562 433.003 86.7656 432.273 85.9844C431.549 85.2031 431.188 84.1406 431.188 82.7969V82.6953ZM433.445 82.8594C433.445 83.6615 433.596 84.276 433.898 84.7031C434.201 85.125 434.633 85.3359 435.195 85.3359C435.742 85.3359 436.169 85.1276 436.477 84.7109C436.784 84.2891 436.938 83.6172 436.938 82.6953C436.938 81.9089 436.784 81.2995 436.477 80.8672C436.169 80.4349 435.737 80.2188 435.18 80.2188C434.628 80.2188 434.201 80.4349 433.898 80.8672C433.596 81.2943 433.445 81.9583 433.445 82.8594ZM442.664 78.5469L442.734 79.5234C443.339 78.7682 444.148 78.3906 445.164 78.3906C446.06 78.3906 446.727 78.6536 447.164 79.1797C447.602 79.7057 447.826 80.4922 447.836 81.5391V87H445.578V81.5938C445.578 81.1146 445.474 80.7682 445.266 80.5547C445.057 80.3359 444.711 80.2266 444.227 80.2266C443.591 80.2266 443.115 80.4974 442.797 81.0391V87H440.539V78.5469H442.664Z" fill="black"/>
<rect x="59" y="241" width="404" height="74" rx="20" fill="#181818"/>
<rect x="68.5" y="234.5" width="401" height="71" rx="18.5" fill="white" stroke="black" stroke-width="3"/>
<rect x="87" y="252" width="131" height="35" rx="12" fill="#93E6CF"/>
<path d="M107.477 270.852C107.477 272.154 107.18 273.198 106.586 273.984C105.997 274.766 105.201 275.156 104.195 275.156C103.341 275.156 102.651 274.859 102.125 274.266V278.25H99.8672V266.547H101.961L102.039 267.375C102.586 266.719 103.299 266.391 104.18 266.391C105.221 266.391 106.031 266.776 106.609 267.547C107.188 268.318 107.477 269.38 107.477 270.734V270.852ZM105.219 270.688C105.219 269.901 105.078 269.294 104.797 268.867C104.521 268.44 104.117 268.227 103.586 268.227C102.878 268.227 102.391 268.497 102.125 269.039V272.5C102.401 273.057 102.893 273.336 103.602 273.336C104.68 273.336 105.219 272.453 105.219 270.688ZM113.633 268.664C113.326 268.622 113.055 268.602 112.82 268.602C111.966 268.602 111.406 268.891 111.141 269.469V275H108.883V266.547H111.016L111.078 267.555C111.531 266.779 112.159 266.391 112.961 266.391C113.211 266.391 113.445 266.424 113.664 266.492L113.633 268.664ZM118.461 275.156C117.221 275.156 116.211 274.776 115.43 274.016C114.654 273.255 114.266 272.242 114.266 270.977V270.758C114.266 269.909 114.43 269.151 114.758 268.484C115.086 267.812 115.549 267.297 116.148 266.938C116.753 266.573 117.44 266.391 118.211 266.391C119.367 266.391 120.276 266.755 120.938 267.484C121.604 268.214 121.938 269.247 121.938 270.586V271.508H116.555C116.628 272.06 116.846 272.503 117.211 272.836C117.581 273.169 118.047 273.336 118.609 273.336C119.479 273.336 120.159 273.021 120.648 272.391L121.758 273.633C121.419 274.112 120.961 274.487 120.383 274.758C119.805 275.023 119.164 275.156 118.461 275.156ZM118.203 268.219C117.755 268.219 117.391 268.37 117.109 268.672C116.833 268.974 116.656 269.406 116.578 269.969H119.719V269.789C119.708 269.289 119.573 268.904 119.312 268.633C119.052 268.357 118.682 268.219 118.203 268.219ZM127.805 272.664C127.805 272.388 127.667 272.172 127.391 272.016C127.12 271.854 126.682 271.711 126.078 271.586C124.068 271.164 123.062 270.31 123.062 269.023C123.062 268.273 123.372 267.648 123.992 267.148C124.617 266.643 125.432 266.391 126.438 266.391C127.51 266.391 128.367 266.643 129.008 267.148C129.654 267.654 129.977 268.31 129.977 269.117H127.719C127.719 268.794 127.615 268.529 127.406 268.32C127.198 268.107 126.872 268 126.43 268C126.049 268 125.755 268.086 125.547 268.258C125.339 268.43 125.234 268.648 125.234 268.914C125.234 269.164 125.352 269.367 125.586 269.523C125.826 269.674 126.227 269.807 126.789 269.922C127.352 270.031 127.826 270.156 128.211 270.297C129.404 270.734 130 271.492 130 272.57C130 273.341 129.669 273.966 129.008 274.445C128.346 274.919 127.492 275.156 126.445 275.156C125.737 275.156 125.107 275.031 124.555 274.781C124.008 274.526 123.578 274.18 123.266 273.742C122.953 273.299 122.797 272.823 122.797 272.312H124.938C124.958 272.714 125.107 273.021 125.383 273.234C125.659 273.448 126.029 273.555 126.492 273.555C126.924 273.555 127.25 273.474 127.469 273.312C127.693 273.146 127.805 272.93 127.805 272.664ZM135.352 275.156C134.112 275.156 133.102 274.776 132.32 274.016C131.544 273.255 131.156 272.242 131.156 270.977V270.758C131.156 269.909 131.32 269.151 131.648 268.484C131.977 267.812 132.44 267.297 133.039 266.938C133.643 266.573 134.331 266.391 135.102 266.391C136.258 266.391 137.167 266.755 137.828 267.484C138.495 268.214 138.828 269.247 138.828 270.586V271.508H133.445C133.518 272.06 133.737 272.503 134.102 272.836C134.471 273.169 134.938 273.336 135.5 273.336C136.37 273.336 137.049 273.021 137.539 272.391L138.648 273.633C138.31 274.112 137.852 274.487 137.273 274.758C136.695 275.023 136.055 275.156 135.352 275.156ZM135.094 268.219C134.646 268.219 134.281 268.37 134 268.672C133.724 268.974 133.547 269.406 133.469 269.969H136.609V269.789C136.599 269.289 136.464 268.904 136.203 268.633C135.943 268.357 135.573 268.219 135.094 268.219ZM142.195 266.547L142.266 267.523C142.87 266.768 143.68 266.391 144.695 266.391C145.591 266.391 146.258 266.654 146.695 267.18C147.133 267.706 147.357 268.492 147.367 269.539V275H145.109V269.594C145.109 269.115 145.005 268.768 144.797 268.555C144.589 268.336 144.242 268.227 143.758 268.227C143.122 268.227 142.646 268.497 142.328 269.039V275H140.07V266.547H142.195ZM151.789 264.469V266.547H153.234V268.203H151.789V272.422C151.789 272.734 151.849 272.958 151.969 273.094C152.089 273.229 152.318 273.297 152.656 273.297C152.906 273.297 153.128 273.279 153.32 273.242V274.953C152.878 275.089 152.422 275.156 151.953 275.156C150.37 275.156 149.562 274.357 149.531 272.758V268.203H148.297V266.547H149.531V264.469H151.789ZM163.055 272.664C163.055 272.388 162.917 272.172 162.641 272.016C162.37 271.854 161.932 271.711 161.328 271.586C159.318 271.164 158.312 270.31 158.312 269.023C158.312 268.273 158.622 267.648 159.242 267.148C159.867 266.643 160.682 266.391 161.688 266.391C162.76 266.391 163.617 266.643 164.258 267.148C164.904 267.654 165.227 268.31 165.227 269.117H162.969C162.969 268.794 162.865 268.529 162.656 268.32C162.448 268.107 162.122 268 161.68 268C161.299 268 161.005 268.086 160.797 268.258C160.589 268.43 160.484 268.648 160.484 268.914C160.484 269.164 160.602 269.367 160.836 269.523C161.076 269.674 161.477 269.807 162.039 269.922C162.602 270.031 163.076 270.156 163.461 270.297C164.654 270.734 165.25 271.492 165.25 272.57C165.25 273.341 164.919 273.966 164.258 274.445C163.596 274.919 162.742 275.156 161.695 275.156C160.987 275.156 160.357 275.031 159.805 274.781C159.258 274.526 158.828 274.18 158.516 273.742C158.203 273.299 158.047 272.823 158.047 272.312H160.188C160.208 272.714 160.357 273.021 160.633 273.234C160.909 273.448 161.279 273.555 161.742 273.555C162.174 273.555 162.5 273.474 162.719 273.312C162.943 273.146 163.055 272.93 163.055 272.664ZM171.773 274.141C171.216 274.818 170.445 275.156 169.461 275.156C168.555 275.156 167.862 274.896 167.383 274.375C166.909 273.854 166.667 273.091 166.656 272.086V266.547H168.914V272.008C168.914 272.888 169.315 273.328 170.117 273.328C170.883 273.328 171.409 273.062 171.695 272.531V266.547H173.961V275H171.836L171.773 274.141ZM180.414 268.664C180.107 268.622 179.836 268.602 179.602 268.602C178.747 268.602 178.188 268.891 177.922 269.469V275H175.664V266.547H177.797L177.859 267.555C178.312 266.779 178.94 266.391 179.742 266.391C179.992 266.391 180.227 266.424 180.445 266.492L180.414 268.664ZM184.812 272.242L186.383 266.547H188.742L185.891 275H183.734L180.883 266.547H183.242L184.812 272.242ZM193.523 275.156C192.284 275.156 191.273 274.776 190.492 274.016C189.716 273.255 189.328 272.242 189.328 270.977V270.758C189.328 269.909 189.492 269.151 189.82 268.484C190.148 267.812 190.612 267.297 191.211 266.938C191.815 266.573 192.503 266.391 193.273 266.391C194.43 266.391 195.339 266.755 196 267.484C196.667 268.214 197 269.247 197 270.586V271.508H191.617C191.69 272.06 191.909 272.503 192.273 272.836C192.643 273.169 193.109 273.336 193.672 273.336C194.542 273.336 195.221 273.021 195.711 272.391L196.82 273.633C196.482 274.112 196.023 274.487 195.445 274.758C194.867 275.023 194.227 275.156 193.523 275.156ZM193.266 268.219C192.818 268.219 192.453 268.37 192.172 268.672C191.896 268.974 191.719 269.406 191.641 269.969H194.781V269.789C194.771 269.289 194.635 268.904 194.375 268.633C194.115 268.357 193.745 268.219 193.266 268.219ZM201.336 271.805L202.898 266.547H205.32L201.922 276.312L201.734 276.758C201.229 277.862 200.396 278.414 199.234 278.414C198.906 278.414 198.573 278.365 198.234 278.266V276.555L198.578 276.562C199.005 276.562 199.323 276.497 199.531 276.367C199.745 276.237 199.911 276.021 200.031 275.719L200.297 275.023L197.336 266.547H199.766L201.336 271.805Z" fill="black"/>
<path d="M238.219 271.93L239.328 266.547H241.508L239.352 275H237.461L235.859 269.68L234.258 275H232.375L230.219 266.547H232.398L233.5 271.922L235.047 266.547H236.68L238.219 271.93ZM244.836 267.469C245.435 266.75 246.188 266.391 247.094 266.391C248.927 266.391 249.857 267.456 249.883 269.586V275H247.625V269.648C247.625 269.164 247.521 268.807 247.312 268.578C247.104 268.344 246.758 268.227 246.273 268.227C245.612 268.227 245.133 268.482 244.836 268.992V275H242.578V263H244.836V267.469ZM255.477 275.156C254.237 275.156 253.227 274.776 252.445 274.016C251.669 273.255 251.281 272.242 251.281 270.977V270.758C251.281 269.909 251.445 269.151 251.773 268.484C252.102 267.812 252.565 267.297 253.164 266.938C253.768 266.573 254.456 266.391 255.227 266.391C256.383 266.391 257.292 266.755 257.953 267.484C258.62 268.214 258.953 269.247 258.953 270.586V271.508H253.57C253.643 272.06 253.862 272.503 254.227 272.836C254.596 273.169 255.062 273.336 255.625 273.336C256.495 273.336 257.174 273.021 257.664 272.391L258.773 273.633C258.435 274.112 257.977 274.487 257.398 274.758C256.82 275.023 256.18 275.156 255.477 275.156ZM255.219 268.219C254.771 268.219 254.406 268.37 254.125 268.672C253.849 268.974 253.672 269.406 253.594 269.969H256.734V269.789C256.724 269.289 256.589 268.904 256.328 268.633C256.068 268.357 255.698 268.219 255.219 268.219ZM262.32 266.547L262.391 267.523C262.995 266.768 263.805 266.391 264.82 266.391C265.716 266.391 266.383 266.654 266.82 267.18C267.258 267.706 267.482 268.492 267.492 269.539V275H265.234V269.594C265.234 269.115 265.13 268.768 264.922 268.555C264.714 268.336 264.367 268.227 263.883 268.227C263.247 268.227 262.771 268.497 262.453 269.039V275H260.195V266.547H262.32Z" fill="black"/>
<rect x="281" y="252" width="170" height="35" rx="12" fill="#93E6CF"/>
<path d="M298.445 272.664C298.445 272.388 298.307 272.172 298.031 272.016C297.76 271.854 297.323 271.711 296.719 271.586C294.708 271.164 293.703 270.31 293.703 269.023C293.703 268.273 294.013 267.648 294.633 267.148C295.258 266.643 296.073 266.391 297.078 266.391C298.151 266.391 299.008 266.643 299.648 267.148C300.294 267.654 300.617 268.31 300.617 269.117H298.359C298.359 268.794 298.255 268.529 298.047 268.32C297.839 268.107 297.513 268 297.07 268C296.69 268 296.396 268.086 296.188 268.258C295.979 268.43 295.875 268.648 295.875 268.914C295.875 269.164 295.992 269.367 296.227 269.523C296.466 269.674 296.867 269.807 297.43 269.922C297.992 270.031 298.466 270.156 298.852 270.297C300.044 270.734 300.641 271.492 300.641 272.57C300.641 273.341 300.31 273.966 299.648 274.445C298.987 274.919 298.133 275.156 297.086 275.156C296.378 275.156 295.747 275.031 295.195 274.781C294.648 274.526 294.219 274.18 293.906 273.742C293.594 273.299 293.438 272.823 293.438 272.312H295.578C295.599 272.714 295.747 273.021 296.023 273.234C296.299 273.448 296.669 273.555 297.133 273.555C297.565 273.555 297.891 273.474 298.109 273.312C298.333 273.146 298.445 272.93 298.445 272.664ZM307.164 274.141C306.607 274.818 305.836 275.156 304.852 275.156C303.945 275.156 303.253 274.896 302.773 274.375C302.299 273.854 302.057 273.091 302.047 272.086V266.547H304.305V272.008C304.305 272.888 304.706 273.328 305.508 273.328C306.273 273.328 306.799 273.062 307.086 272.531V266.547H309.352V275H307.227L307.164 274.141ZM318.672 270.852C318.672 272.206 318.383 273.263 317.805 274.023C317.227 274.779 316.419 275.156 315.383 275.156C314.466 275.156 313.734 274.805 313.188 274.102L313.086 275H311.055V263H313.312V267.305C313.833 266.695 314.518 266.391 315.367 266.391C316.398 266.391 317.206 266.771 317.789 267.531C318.378 268.286 318.672 269.352 318.672 270.727V270.852ZM316.414 270.688C316.414 269.833 316.279 269.211 316.008 268.82C315.737 268.424 315.333 268.227 314.797 268.227C314.078 268.227 313.583 268.521 313.312 269.109V272.445C313.589 273.039 314.089 273.336 314.812 273.336C315.542 273.336 316.021 272.977 316.25 272.258C316.359 271.914 316.414 271.391 316.414 270.688ZM324.648 272.664C324.648 272.388 324.51 272.172 324.234 272.016C323.964 271.854 323.526 271.711 322.922 271.586C320.911 271.164 319.906 270.31 319.906 269.023C319.906 268.273 320.216 267.648 320.836 267.148C321.461 266.643 322.276 266.391 323.281 266.391C324.354 266.391 325.211 266.643 325.852 267.148C326.497 267.654 326.82 268.31 326.82 269.117H324.562C324.562 268.794 324.458 268.529 324.25 268.32C324.042 268.107 323.716 268 323.273 268C322.893 268 322.599 268.086 322.391 268.258C322.182 268.43 322.078 268.648 322.078 268.914C322.078 269.164 322.195 269.367 322.43 269.523C322.669 269.674 323.07 269.807 323.633 269.922C324.195 270.031 324.669 270.156 325.055 270.297C326.247 270.734 326.844 271.492 326.844 272.57C326.844 273.341 326.513 273.966 325.852 274.445C325.19 274.919 324.336 275.156 323.289 275.156C322.581 275.156 321.951 275.031 321.398 274.781C320.852 274.526 320.422 274.18 320.109 273.742C319.797 273.299 319.641 272.823 319.641 272.312H321.781C321.802 272.714 321.951 273.021 322.227 273.234C322.503 273.448 322.872 273.555 323.336 273.555C323.768 273.555 324.094 273.474 324.312 273.312C324.536 273.146 324.648 272.93 324.648 272.664ZM331.82 273.336C332.237 273.336 332.576 273.221 332.836 272.992C333.096 272.763 333.232 272.458 333.242 272.078H335.359C335.354 272.651 335.198 273.177 334.891 273.656C334.583 274.13 334.161 274.5 333.625 274.766C333.094 275.026 332.505 275.156 331.859 275.156C330.651 275.156 329.698 274.773 329 274.008C328.302 273.237 327.953 272.174 327.953 270.82V270.672C327.953 269.37 328.299 268.331 328.992 267.555C329.685 266.779 330.635 266.391 331.844 266.391C332.901 266.391 333.747 266.693 334.383 267.297C335.023 267.896 335.349 268.695 335.359 269.695H333.242C333.232 269.258 333.096 268.904 332.836 268.633C332.576 268.357 332.232 268.219 331.805 268.219C331.279 268.219 330.88 268.411 330.609 268.797C330.344 269.177 330.211 269.797 330.211 270.656V270.891C330.211 271.76 330.344 272.385 330.609 272.766C330.875 273.146 331.279 273.336 331.82 273.336ZM341.398 268.664C341.091 268.622 340.82 268.602 340.586 268.602C339.732 268.602 339.172 268.891 338.906 269.469V275H336.648V266.547H338.781L338.844 267.555C339.297 266.779 339.924 266.391 340.727 266.391C340.977 266.391 341.211 266.424 341.43 266.492L341.398 268.664ZM344.875 275H342.609V266.547H344.875V275ZM342.477 264.359C342.477 264.021 342.589 263.742 342.812 263.523C343.042 263.305 343.352 263.195 343.742 263.195C344.128 263.195 344.435 263.305 344.664 263.523C344.893 263.742 345.008 264.021 345.008 264.359C345.008 264.703 344.891 264.984 344.656 265.203C344.427 265.422 344.122 265.531 343.742 265.531C343.362 265.531 343.055 265.422 342.82 265.203C342.591 264.984 342.477 264.703 342.477 264.359ZM354.352 270.852C354.352 272.154 354.055 273.198 353.461 273.984C352.872 274.766 352.076 275.156 351.07 275.156C350.216 275.156 349.526 274.859 349 274.266V278.25H346.742V266.547H348.836L348.914 267.375C349.461 266.719 350.174 266.391 351.055 266.391C352.096 266.391 352.906 266.776 353.484 267.547C354.062 268.318 354.352 269.38 354.352 270.734V270.852ZM352.094 270.688C352.094 269.901 351.953 269.294 351.672 268.867C351.396 268.44 350.992 268.227 350.461 268.227C349.753 268.227 349.266 268.497 349 269.039V272.5C349.276 273.057 349.768 273.336 350.477 273.336C351.555 273.336 352.094 272.453 352.094 270.688ZM358.461 264.469V266.547H359.906V268.203H358.461V272.422C358.461 272.734 358.521 272.958 358.641 273.094C358.76 273.229 358.99 273.297 359.328 273.297C359.578 273.297 359.799 273.279 359.992 273.242V274.953C359.549 275.089 359.094 275.156 358.625 275.156C357.042 275.156 356.234 274.357 356.203 272.758V268.203H354.969V266.547H356.203V264.469H358.461ZM363.547 275H361.281V266.547H363.547V275ZM361.148 264.359C361.148 264.021 361.26 263.742 361.484 263.523C361.714 263.305 362.023 263.195 362.414 263.195C362.799 263.195 363.107 263.305 363.336 263.523C363.565 263.742 363.68 264.021 363.68 264.359C363.68 264.703 363.562 264.984 363.328 265.203C363.099 265.422 362.794 265.531 362.414 265.531C362.034 265.531 361.727 265.422 361.492 265.203C361.263 264.984 361.148 264.703 361.148 264.359ZM365.062 270.695C365.062 269.857 365.224 269.109 365.547 268.453C365.87 267.797 366.333 267.289 366.938 266.93C367.547 266.57 368.253 266.391 369.055 266.391C370.195 266.391 371.125 266.74 371.844 267.438C372.568 268.135 372.971 269.083 373.055 270.281L373.07 270.859C373.07 272.156 372.708 273.198 371.984 273.984C371.26 274.766 370.289 275.156 369.07 275.156C367.852 275.156 366.878 274.766 366.148 273.984C365.424 273.203 365.062 272.141 365.062 270.797V270.695ZM367.32 270.859C367.32 271.661 367.471 272.276 367.773 272.703C368.076 273.125 368.508 273.336 369.07 273.336C369.617 273.336 370.044 273.128 370.352 272.711C370.659 272.289 370.812 271.617 370.812 270.695C370.812 269.909 370.659 269.299 370.352 268.867C370.044 268.435 369.612 268.219 369.055 268.219C368.503 268.219 368.076 268.435 367.773 268.867C367.471 269.294 367.32 269.958 367.32 270.859ZM376.539 266.547L376.609 267.523C377.214 266.768 378.023 266.391 379.039 266.391C379.935 266.391 380.602 266.654 381.039 267.18C381.477 267.706 381.701 268.492 381.711 269.539V275H379.453V269.594C379.453 269.115 379.349 268.768 379.141 268.555C378.932 268.336 378.586 268.227 378.102 268.227C377.466 268.227 376.99 268.497 376.672 269.039V275H374.414V266.547H376.539ZM392.164 268.664C391.857 268.622 391.586 268.602 391.352 268.602C390.497 268.602 389.938 268.891 389.672 269.469V275H387.414V266.547H389.547L389.609 267.555C390.062 266.779 390.69 266.391 391.492 266.391C391.742 266.391 391.977 266.424 392.195 266.492L392.164 268.664ZM396.992 275.156C395.753 275.156 394.742 274.776 393.961 274.016C393.185 273.255 392.797 272.242 392.797 270.977V270.758C392.797 269.909 392.961 269.151 393.289 268.484C393.617 267.812 394.081 267.297 394.68 266.938C395.284 266.573 395.971 266.391 396.742 266.391C397.898 266.391 398.807 266.755 399.469 267.484C400.135 268.214 400.469 269.247 400.469 270.586V271.508H395.086C395.159 272.06 395.378 272.503 395.742 272.836C396.112 273.169 396.578 273.336 397.141 273.336C398.01 273.336 398.69 273.021 399.18 272.391L400.289 273.633C399.951 274.112 399.492 274.487 398.914 274.758C398.336 275.023 397.695 275.156 396.992 275.156ZM396.734 268.219C396.286 268.219 395.922 268.37 395.641 268.672C395.365 268.974 395.188 269.406 395.109 269.969H398.25V269.789C398.24 269.289 398.104 268.904 397.844 268.633C397.583 268.357 397.214 268.219 396.734 268.219ZM403.836 266.547L403.906 267.523C404.51 266.768 405.32 266.391 406.336 266.391C407.232 266.391 407.898 266.654 408.336 267.18C408.773 267.706 408.997 268.492 409.008 269.539V275H406.75V269.594C406.75 269.115 406.646 268.768 406.438 268.555C406.229 268.336 405.883 268.227 405.398 268.227C404.763 268.227 404.286 268.497 403.969 269.039V275H401.711V266.547H403.836ZM414.617 275.156C413.378 275.156 412.367 274.776 411.586 274.016C410.81 273.255 410.422 272.242 410.422 270.977V270.758C410.422 269.909 410.586 269.151 410.914 268.484C411.242 267.812 411.706 267.297 412.305 266.938C412.909 266.573 413.596 266.391 414.367 266.391C415.523 266.391 416.432 266.755 417.094 267.484C417.76 268.214 418.094 269.247 418.094 270.586V271.508H412.711C412.784 272.06 413.003 272.503 413.367 272.836C413.737 273.169 414.203 273.336 414.766 273.336C415.635 273.336 416.315 273.021 416.805 272.391L417.914 273.633C417.576 274.112 417.117 274.487 416.539 274.758C415.961 275.023 415.32 275.156 414.617 275.156ZM414.359 268.219C413.911 268.219 413.547 268.37 413.266 268.672C412.99 268.974 412.812 269.406 412.734 269.969H415.875V269.789C415.865 269.289 415.729 268.904 415.469 268.633C415.208 268.357 414.839 268.219 414.359 268.219ZM426.734 271.93L427.844 266.547H430.023L427.867 275H425.977L424.375 269.68L422.773 275H420.891L418.734 266.547H420.914L422.016 271.922L423.562 266.547H425.195L426.734 271.93ZM435.727 272.664C435.727 272.388 435.589 272.172 435.312 272.016C435.042 271.854 434.604 271.711 434 271.586C431.99 271.164 430.984 270.31 430.984 269.023C430.984 268.273 431.294 267.648 431.914 267.148C432.539 266.643 433.354 266.391 434.359 266.391C435.432 266.391 436.289 266.643 436.93 267.148C437.576 267.654 437.898 268.31 437.898 269.117H435.641C435.641 268.794 435.536 268.529 435.328 268.32C435.12 268.107 434.794 268 434.352 268C433.971 268 433.677 268.086 433.469 268.258C433.26 268.43 433.156 268.648 433.156 268.914C433.156 269.164 433.273 269.367 433.508 269.523C433.747 269.674 434.148 269.807 434.711 269.922C435.273 270.031 435.747 270.156 436.133 270.297C437.326 270.734 437.922 271.492 437.922 272.57C437.922 273.341 437.591 273.966 436.93 274.445C436.268 274.919 435.414 275.156 434.367 275.156C433.659 275.156 433.029 275.031 432.477 274.781C431.93 274.526 431.5 274.18 431.188 273.742C430.875 273.299 430.719 272.823 430.719 272.312H432.859C432.88 272.714 433.029 273.021 433.305 273.234C433.581 273.448 433.951 273.555 434.414 273.555C434.846 273.555 435.172 273.474 435.391 273.312C435.615 273.146 435.727 272.93 435.727 272.664Z" fill="black"/>
</svg>
