<svg width="488" height="360" viewBox="0 0 488 360" fill="none" xmlns="http://www.w3.org/2000/svg">
<rect width="488" height="360" fill="white"/>
<ellipse cx="244.5" cy="180" rx="166.5" ry="166" fill="#F8FBFF"/>
<path d="M424.448 327C424.281 326.731 424.135 326.575 424.072 326.396C423.278 324.117 422.506 321.838 421.733 319.56C421.503 318.889 421.274 318.197 421.065 317.504C420.877 316.901 420.585 316.387 420 316.164C418.998 315.784 418.016 315.404 417.014 315.002C415.865 314.555 414.738 314.086 413.61 313.639C412.921 313.371 412.232 313.147 411.543 312.857C411.334 312.768 411.188 312.544 411 312.365C411.188 312.209 411.334 311.963 411.543 311.896C412.691 311.427 413.861 310.98 415.009 310.533C416.074 310.109 417.118 309.707 418.183 309.282C418.768 309.059 419.353 308.835 419.958 308.612C420.459 308.411 420.794 308.053 420.981 307.517C421.336 306.467 421.691 305.417 422.046 304.389C422.631 302.714 423.216 301.016 423.8 299.34C423.905 299.027 423.947 298.692 424.093 298.379C424.176 298.201 424.364 298 424.51 298C424.657 298 424.845 298.223 424.907 298.402C425.701 300.681 426.473 302.959 427.267 305.238C427.497 305.931 427.726 306.646 427.956 307.338C428.144 307.964 428.457 308.411 429.063 308.634C430.566 309.193 432.07 309.774 433.573 310.377C434.638 310.802 435.703 311.248 436.789 311.673C437.06 311.785 437.374 311.829 437.624 311.963C437.791 312.053 438 312.231 438 312.388C438 312.522 437.791 312.768 437.645 312.812C435.014 313.885 432.404 314.89 429.794 315.918C429.689 315.963 429.564 316.007 429.439 316.03C428.561 316.231 428.102 316.789 427.831 317.728C427.497 318.934 427.016 320.096 426.619 321.28C426.244 322.397 425.847 323.492 425.471 324.609C425.262 325.234 425.074 325.882 424.845 326.508C424.824 326.642 424.657 326.776 424.448 327Z" fill="#FFB9F8"/>
<ellipse cx="46" cy="275.5" rx="9" ry="8.5" fill="#FFD12D"/>
<circle cx="236.5" cy="188.5" r="109.5" fill="#181818"/>
<circle cx="244.5" cy="180.5" r="108" fill="white" stroke="#181818" stroke-width="3"/>
<circle cx="244.5" cy="180.5" r="69.5" fill="white" stroke="#0084FF" stroke-width="12"/>
<circle cx="244.5" cy="180.5" r="29.5" fill="white" stroke="#0084FF" stroke-width="12"/>
<path fill-rule="evenodd" clip-rule="evenodd" d="M123.013 29.8994C123.424 30.6184 123.175 31.5346 122.456 31.946L122.442 31.9541L122.391 31.9835C122.345 32.0103 122.275 32.0513 122.182 32.1063C121.997 32.2163 121.721 32.3825 121.363 32.6032C120.648 33.0446 119.61 33.7037 118.328 34.5678C115.764 36.2967 112.231 38.8422 108.369 42.1011C100.625 48.6366 91.6535 57.9604 86.4445 69.2399C85.5272 71.2261 84.173 74.2187 82.9154 77.6551C83.6331 78.2623 84.3104 78.8795 84.9432 79.4979C87.5281 82.024 89.4665 84.6644 90.3304 86.8135C93.3557 94.3152 92.88 99.9874 90.4232 103.193C89.1844 104.809 87.4592 105.743 85.5981 105.819C83.7431 105.894 81.919 105.111 80.4701 103.617C78.1529 101.245 77.0848 98.1552 76.7736 94.8904C76.4632 91.6337 76.8948 88.1097 77.6629 84.7175C78.1303 82.6531 78.7293 80.6094 79.3805 78.6693C77.6938 77.3975 75.8205 76.2144 73.8158 75.2296C66.8182 71.7924 58.3933 70.8273 50.5331 76.6563C38.4887 87.0404 34.9731 102.203 34.5373 114.998C34.3199 121.381 34.8726 127.111 35.4809 131.245C35.7847 133.311 36.1018 134.974 36.3417 136.116C36.4617 136.687 36.5623 137.128 36.6322 137.423C36.6672 137.57 36.6945 137.682 36.7127 137.755L36.733 137.835L36.7378 137.854L36.7387 137.857C36.9479 138.659 36.4681 139.478 35.6668 139.688C34.9089 139.886 34.1348 139.468 33.8757 138.744C33.8725 138.735 33.7615 138.319 33.7131 138.115C33.6375 137.796 33.5313 137.33 33.4058 136.733C33.1548 135.538 32.8266 133.815 32.5128 131.682C31.8858 127.42 31.3139 121.504 31.539 114.895C31.9878 101.719 35.6188 85.5248 48.6171 74.3471L48.657 74.3129L48.6991 74.2815C57.7439 67.5445 67.4617 68.7661 75.1384 72.5369C77.0287 73.4655 78.8058 74.5519 80.4346 75.7206C81.6404 72.5333 82.8802 69.8026 83.7209 67.9821C89.1924 56.1342 98.5352 46.4746 106.435 39.8084C110.395 36.4665 114.017 33.8566 116.651 32.0804C117.969 31.1919 119.041 30.511 119.787 30.0505C120.16 29.8203 120.451 29.645 120.651 29.5264C120.809 29.4331 120.965 29.3299 121.134 29.2594C121.822 28.9714 122.633 29.235 123.013 29.8994ZM81.8656 80.7218C81.3838 82.2392 80.9453 83.8055 80.5888 85.38C79.8592 88.6023 79.4911 91.7831 79.7601 94.6058C80.0283 97.4194 80.9181 99.7832 82.618 101.523L82.6224 101.527C83.5557 102.491 84.5808 102.858 85.4762 102.821C86.3664 102.785 87.2936 102.344 88.0422 101.368C89.5599 99.3876 90.3985 95.0025 87.5475 87.9341L87.5469 87.9324C86.8992 86.3213 85.2786 84.0203 82.8464 81.6435C82.5312 81.3355 82.2041 81.0278 81.8656 80.7218Z" fill="#181818"/>
<path d="M378.1 51.9995L381.197 75.1402L339.945 107.118L336.847 83.9777L378.1 51.9995Z" fill="#181818"/>
<path d="M339.83 106.971L360.953 115.074L402.205 83.0962L381.083 74.9925L339.83 106.971Z" fill="#181818"/>
<rect x="360.942" y="86.177" width="7.17598" height="151.386" rx="3.58799" transform="rotate(52.2179 360.942 86.177)" fill="white" stroke="#181818" stroke-width="3"/>
</svg>
