<svg width="537" height="360" viewBox="0 0 537 360" fill="none" xmlns="http://www.w3.org/2000/svg">
<rect x="50.5" y="109.5" width="477" height="149" rx="20.5" fill="#181818" stroke="#181818" stroke-width="3"/>
<rect x="58.5" y="101.5" width="477" height="149" rx="20.5" fill="white" stroke="#181818" stroke-width="3"/>
<path d="M91.272 149H89.8L92.84 137.32H94.776L97.8 149H96.344L95.576 145.896H92.04L91.272 149ZM92.328 144.68H95.272L94.376 141.08C94.088 139.907 93.896 139.037 93.8 138.472C93.704 139.048 93.512 139.912 93.224 141.064L92.328 144.68ZM103.922 140.04C104.807 140.04 105.506 140.333 106.018 140.92C106.53 141.507 106.786 142.301 106.786 143.304V145.88C106.786 146.893 106.53 147.693 106.018 148.28C105.506 148.867 104.807 149.16 103.922 149.16C103.26 149.16 102.711 148.995 102.274 148.664C101.847 148.333 101.596 147.885 101.522 147.32H101.474L101.506 149.32V151.88H100.066V140.2H101.506V141.88H101.522C101.596 141.304 101.847 140.856 102.274 140.536C102.711 140.205 103.26 140.04 103.922 140.04ZM105.346 143.4C105.346 142.717 105.18 142.195 104.85 141.832C104.519 141.469 104.05 141.288 103.442 141.288C102.844 141.288 102.37 141.475 102.018 141.848C101.676 142.221 101.506 142.739 101.506 143.4V145.8C101.506 146.461 101.676 146.979 102.018 147.352C102.37 147.725 102.844 147.912 103.442 147.912C104.05 147.912 104.519 147.731 104.85 147.368C105.18 147.005 105.346 146.483 105.346 145.8V143.4ZM113.516 140.04C114.401 140.04 115.1 140.333 115.612 140.92C116.124 141.507 116.38 142.301 116.38 143.304V145.88C116.38 146.893 116.124 147.693 115.612 148.28C115.1 148.867 114.401 149.16 113.516 149.16C112.854 149.16 112.305 148.995 111.868 148.664C111.441 148.333 111.19 147.885 111.116 147.32H111.068L111.1 149.32V151.88H109.66V140.2H111.1V141.88H111.116C111.19 141.304 111.441 140.856 111.868 140.536C112.305 140.205 112.854 140.04 113.516 140.04ZM114.94 143.4C114.94 142.717 114.774 142.195 114.444 141.832C114.113 141.469 113.644 141.288 113.036 141.288C112.438 141.288 111.964 141.475 111.612 141.848C111.27 142.221 111.1 142.739 111.1 143.4V145.8C111.1 146.461 111.27 146.979 111.612 147.352C111.964 147.725 112.438 147.912 113.036 147.912C113.644 147.912 114.113 147.731 114.444 147.368C114.774 147.005 114.94 146.483 114.94 145.8V143.4ZM123.045 140.04C123.931 140.04 124.635 140.317 125.157 140.872C125.68 141.416 125.941 142.152 125.941 143.08V149H124.501V143.24C124.501 142.621 124.331 142.136 123.989 141.784C123.659 141.432 123.205 141.256 122.629 141.256C122.021 141.256 121.547 141.448 121.205 141.832C120.864 142.205 120.693 142.728 120.693 143.4V149H119.253V137.32H120.693V141.88H120.709C120.784 141.293 121.024 140.84 121.429 140.52C121.835 140.2 122.373 140.04 123.045 140.04ZM132.159 149.16C131.146 149.16 130.335 148.856 129.727 148.248C129.119 147.64 128.815 146.824 128.815 145.8V140.2H130.255V145.8C130.255 146.461 130.42 146.979 130.751 147.352C131.092 147.715 131.562 147.896 132.159 147.896C132.767 147.896 133.242 147.715 133.583 147.352C133.924 146.979 134.095 146.461 134.095 145.8V140.2H135.535V145.8C135.535 146.824 135.226 147.64 134.607 148.248C133.999 148.856 133.183 149.16 132.159 149.16ZM143.657 137.32H145.097V149H143.657V147.32H143.641C143.566 147.896 143.315 148.349 142.889 148.68C142.462 149 141.918 149.16 141.257 149.16C140.371 149.16 139.667 148.867 139.145 148.28C138.633 147.693 138.377 146.899 138.377 145.896V143.32C138.377 142.307 138.633 141.507 139.145 140.92C139.667 140.333 140.371 140.04 141.257 140.04C141.907 140.04 142.446 140.205 142.873 140.536C143.299 140.867 143.555 141.315 143.641 141.88H143.689L143.657 139.88V137.32ZM143.657 143.4C143.657 142.739 143.486 142.221 143.145 141.848C142.803 141.475 142.334 141.288 141.737 141.288C141.129 141.288 140.654 141.475 140.313 141.848C139.982 142.211 139.817 142.728 139.817 143.4V145.8C139.817 146.472 139.982 146.995 140.313 147.368C140.654 147.731 141.129 147.912 141.737 147.912C142.334 147.912 142.803 147.725 143.145 147.352C143.486 146.979 143.657 146.461 143.657 145.8V143.4ZM151.203 149.16C150.861 149.16 150.573 149.037 150.339 148.792C150.115 148.547 150.003 148.243 150.003 147.88C150.003 147.517 150.115 147.213 150.339 146.968C150.573 146.723 150.861 146.6 151.203 146.6H151.523C151.864 146.6 152.147 146.723 152.371 146.968C152.605 147.213 152.723 147.517 152.723 147.88C152.723 148.243 152.605 148.547 152.371 148.792C152.147 149.037 151.864 149.16 151.523 149.16H151.203ZM240.666 151C239.152 150.627 237.973 149.891 237.13 148.792C236.288 147.693 235.866 146.349 235.866 144.76V141.72C235.866 140.685 236.058 139.741 236.442 138.888C236.837 138.035 237.392 137.315 238.106 136.728C238.832 136.141 239.685 135.725 240.666 135.48V136.84C239.642 137.085 238.826 137.645 238.218 138.52C237.61 139.395 237.306 140.461 237.306 141.72V144.76C237.306 145.997 237.605 147.048 238.202 147.912C238.81 148.776 239.632 149.331 240.666 149.576V151ZM247.828 140.04C248.713 140.04 249.412 140.333 249.924 140.92C250.436 141.507 250.692 142.301 250.692 143.304V145.88C250.692 146.893 250.436 147.693 249.924 148.28C249.412 148.867 248.713 149.16 247.828 149.16C247.167 149.16 246.617 148.995 246.18 148.664C245.753 148.333 245.503 147.885 245.428 147.32H245.38L245.412 149.32V151.88H243.972V140.2H245.412V141.88H245.428C245.503 141.304 245.753 140.856 246.18 140.536C246.617 140.205 247.167 140.04 247.828 140.04ZM249.252 143.4C249.252 142.717 249.087 142.195 248.756 141.832C248.425 141.469 247.956 141.288 247.348 141.288C246.751 141.288 246.276 141.475 245.924 141.848C245.583 142.221 245.412 142.739 245.412 143.4V145.8C245.412 146.461 245.583 146.979 245.924 147.352C246.276 147.725 246.751 147.912 247.348 147.912C247.956 147.912 248.425 147.731 248.756 147.368C249.087 147.005 249.252 146.483 249.252 145.8V143.4ZM257.598 140.04C258.526 140.04 259.262 140.333 259.806 140.92C260.36 141.496 260.638 142.28 260.638 143.272V143.8H259.198V143.4C259.198 142.717 259.027 142.189 258.686 141.816C258.355 141.443 257.88 141.256 257.262 141.256C256.654 141.256 256.174 141.448 255.822 141.832C255.48 142.205 255.31 142.728 255.31 143.4V149H253.87V140.2H255.278V141.768C255.566 140.616 256.339 140.04 257.598 140.04ZM266.488 149.16C265.442 149.16 264.616 148.861 264.008 148.264C263.4 147.667 263.096 146.845 263.096 145.8V143.4C263.096 142.355 263.4 141.533 264.008 140.936C264.616 140.339 265.442 140.04 266.488 140.04C267.533 140.04 268.36 140.339 268.968 140.936C269.576 141.533 269.88 142.349 269.88 143.384V145.8C269.88 146.845 269.576 147.667 268.968 148.264C268.36 148.861 267.533 149.16 266.488 149.16ZM266.488 147.88C267.117 147.88 267.597 147.704 267.928 147.352C268.269 146.989 268.44 146.472 268.44 145.8V143.4C268.44 142.728 268.269 142.216 267.928 141.864C267.597 141.501 267.117 141.32 266.488 141.32C265.858 141.32 265.373 141.501 265.032 141.864C264.701 142.216 264.536 142.728 264.536 143.4V145.8C264.536 146.472 264.701 146.989 265.032 147.352C265.373 147.704 265.858 147.88 266.488 147.88ZM277.969 137.32H279.409V149H277.969V147.32H277.953C277.879 147.896 277.628 148.349 277.201 148.68C276.775 149 276.231 149.16 275.569 149.16C274.684 149.16 273.98 148.867 273.457 148.28C272.945 147.693 272.689 146.899 272.689 145.896V143.32C272.689 142.307 272.945 141.507 273.457 140.92C273.98 140.333 274.684 140.04 275.569 140.04C276.22 140.04 276.759 140.205 277.185 140.536C277.612 140.867 277.868 141.315 277.953 141.88H278.001L277.969 139.88V137.32ZM277.969 143.4C277.969 142.739 277.799 142.221 277.457 141.848C277.116 141.475 276.647 141.288 276.049 141.288C275.441 141.288 274.967 141.475 274.625 141.848C274.295 142.211 274.129 142.728 274.129 143.4V145.8C274.129 146.472 274.295 146.995 274.625 147.368C274.967 147.731 275.441 147.912 276.049 147.912C276.647 147.912 277.116 147.725 277.457 147.352C277.799 146.979 277.969 146.461 277.969 145.8V143.4ZM285.659 149.16C284.646 149.16 283.835 148.856 283.227 148.248C282.619 147.64 282.315 146.824 282.315 145.8V140.2H283.755V145.8C283.755 146.461 283.92 146.979 284.251 147.352C284.592 147.715 285.062 147.896 285.659 147.896C286.267 147.896 286.742 147.715 287.083 147.352C287.424 146.979 287.595 146.461 287.595 145.8V140.2H289.035V145.8C289.035 146.824 288.726 147.64 288.107 148.248C287.499 148.856 286.683 149.16 285.659 149.16ZM295.333 149.16C294.266 149.16 293.423 148.861 292.805 148.264C292.186 147.667 291.877 146.845 291.877 145.8V143.4C291.877 142.355 292.186 141.533 292.805 140.936C293.423 140.339 294.266 140.04 295.333 140.04C296.346 140.04 297.162 140.312 297.781 140.856C298.399 141.4 298.725 142.141 298.757 143.08H297.317C297.285 142.525 297.093 142.093 296.741 141.784C296.399 141.475 295.93 141.32 295.333 141.32C294.703 141.32 294.207 141.501 293.845 141.864C293.493 142.227 293.317 142.733 293.317 143.384V145.8C293.317 146.461 293.493 146.973 293.845 147.336C294.197 147.699 294.693 147.88 295.333 147.88C295.93 147.88 296.399 147.725 296.741 147.416C297.093 147.107 297.285 146.675 297.317 146.12H298.757C298.725 147.059 298.399 147.8 297.781 148.344C297.162 148.888 296.346 149.16 295.333 149.16ZM305.823 149C305.065 149 304.473 148.797 304.047 148.392C303.631 147.987 303.423 147.416 303.423 146.68V141.512H300.943V140.2H303.423V137.8H304.863V140.2H308.383V141.512H304.863V146.68C304.863 147.021 304.937 147.277 305.087 147.448C305.247 147.608 305.492 147.688 305.823 147.688H308.223V149H305.823ZM313.576 151.56H312.296L313.576 146.584H315.656L313.576 151.56ZM335.532 137.32H336.972V149H335.532V147.32H335.516C335.441 147.896 335.19 148.349 334.764 148.68C334.337 149 333.793 149.16 333.132 149.16C332.246 149.16 331.542 148.867 331.02 148.28C330.508 147.693 330.252 146.899 330.252 145.896V143.32C330.252 142.307 330.508 141.507 331.02 140.92C331.542 140.333 332.246 140.04 333.132 140.04C333.782 140.04 334.321 140.205 334.748 140.536C335.174 140.867 335.43 141.315 335.516 141.88H335.564L335.532 139.88V137.32ZM335.532 143.4C335.532 142.739 335.361 142.221 335.02 141.848C334.678 141.475 334.209 141.288 333.612 141.288C333.004 141.288 332.529 141.475 332.188 141.848C331.857 142.211 331.692 142.728 331.692 143.4V145.8C331.692 146.472 331.857 146.995 332.188 147.368C332.529 147.731 333.004 147.912 333.612 147.912C334.209 147.912 334.678 147.725 335.02 147.352C335.361 146.979 335.532 146.461 335.532 145.8V143.4ZM343.238 138.68C342.918 138.68 342.662 138.595 342.47 138.424C342.288 138.253 342.198 138.024 342.198 137.736C342.198 137.448 342.294 137.213 342.486 137.032C342.678 136.851 342.928 136.76 343.238 136.76H343.558C343.867 136.76 344.118 136.851 344.31 137.032C344.502 137.213 344.598 137.448 344.598 137.736C344.598 138.024 344.502 138.253 344.31 138.424C344.118 138.595 343.867 138.68 343.558 138.68H343.238ZM347.238 149H339.718V147.688H342.838V141.512H340.118V140.2H344.278V147.688H347.238V149ZM352.479 149.16C351.583 149.16 350.863 148.952 350.319 148.536C349.786 148.12 349.477 147.555 349.391 146.84H350.831C350.895 147.16 351.071 147.416 351.359 147.608C351.647 147.789 352.021 147.88 352.479 147.88H353.151C353.706 147.88 354.122 147.763 354.399 147.528C354.687 147.293 354.831 146.979 354.831 146.584C354.831 145.859 354.335 145.416 353.343 145.256L352.159 145.064C351.285 144.925 350.639 144.659 350.223 144.264C349.807 143.859 349.599 143.288 349.599 142.552C349.599 141.752 349.855 141.133 350.367 140.696C350.879 140.259 351.626 140.04 352.607 140.04H353.215C354.047 140.04 354.719 140.243 355.231 140.648C355.754 141.043 356.069 141.581 356.175 142.264H354.735C354.671 141.976 354.506 141.747 354.239 141.576C353.973 141.405 353.631 141.32 353.215 141.32H352.607C351.562 141.32 351.039 141.736 351.039 142.568C351.039 142.92 351.141 143.187 351.343 143.368C351.557 143.539 351.898 143.661 352.367 143.736L353.551 143.928C354.501 144.077 355.189 144.355 355.615 144.76C356.053 145.165 356.271 145.752 356.271 146.52C356.271 147.352 356.005 148.003 355.471 148.472C354.949 148.931 354.175 149.16 353.151 149.16H352.479ZM362.489 149.16C361.422 149.16 360.58 148.861 359.961 148.264C359.342 147.667 359.033 146.845 359.033 145.8V143.4C359.033 142.355 359.342 141.533 359.961 140.936C360.58 140.339 361.422 140.04 362.489 140.04C363.502 140.04 364.318 140.312 364.937 140.856C365.556 141.4 365.881 142.141 365.913 143.08H364.473C364.441 142.525 364.249 142.093 363.897 141.784C363.556 141.475 363.086 141.32 362.489 141.32C361.86 141.32 361.364 141.501 361.001 141.864C360.649 142.227 360.473 142.733 360.473 143.384V145.8C360.473 146.461 360.649 146.973 361.001 147.336C361.353 147.699 361.849 147.88 362.489 147.88C363.086 147.88 363.556 147.725 363.897 147.416C364.249 147.107 364.441 146.675 364.473 146.12H365.913C365.881 147.059 365.556 147.8 364.937 148.344C364.318 148.888 363.502 149.16 362.489 149.16ZM372.019 149.16C370.973 149.16 370.147 148.861 369.539 148.264C368.931 147.667 368.627 146.845 368.627 145.8V143.4C368.627 142.355 368.931 141.533 369.539 140.936C370.147 140.339 370.973 140.04 372.019 140.04C373.064 140.04 373.891 140.339 374.499 140.936C375.107 141.533 375.411 142.349 375.411 143.384V145.8C375.411 146.845 375.107 147.667 374.499 148.264C373.891 148.861 373.064 149.16 372.019 149.16ZM372.019 147.88C372.648 147.88 373.128 147.704 373.459 147.352C373.8 146.989 373.971 146.472 373.971 145.8V143.4C373.971 142.728 373.8 142.216 373.459 141.864C373.128 141.501 372.648 141.32 372.019 141.32C371.389 141.32 370.904 141.501 370.563 141.864C370.232 142.216 370.067 142.728 370.067 143.4V145.8C370.067 146.472 370.232 146.989 370.563 147.352C370.904 147.704 371.389 147.88 372.019 147.88ZM381.597 149.16C380.583 149.16 379.773 148.856 379.164 148.248C378.557 147.64 378.253 146.824 378.253 145.8V140.2H379.693V145.8C379.693 146.461 379.858 146.979 380.189 147.352C380.53 147.715 380.999 147.896 381.597 147.896C382.205 147.896 382.679 147.715 383.021 147.352C383.362 146.979 383.533 146.461 383.533 145.8V140.2H384.973V145.8C384.973 146.824 384.663 147.64 384.045 148.248C383.437 148.856 382.621 149.16 381.597 149.16ZM391.67 140.04C392.556 140.04 393.26 140.317 393.782 140.872C394.305 141.416 394.566 142.152 394.566 143.08V149H393.126V143.24C393.126 142.621 392.956 142.136 392.614 141.784C392.284 141.432 391.83 141.256 391.254 141.256C390.646 141.256 390.172 141.448 389.83 141.832C389.489 142.205 389.318 142.728 389.318 143.4V149H387.878V140.2H389.318V141.88H389.334C389.409 141.293 389.649 140.84 390.054 140.52C390.46 140.2 390.998 140.04 391.67 140.04ZM401.76 149C401.003 149 400.411 148.797 399.984 148.392C399.568 147.987 399.36 147.416 399.36 146.68V141.512H396.88V140.2H399.36V137.8H400.8V140.2H404.32V141.512H400.8V146.68C400.8 147.021 400.875 147.277 401.024 147.448C401.184 147.608 401.429 147.688 401.76 147.688H404.16V149H401.76ZM413.514 149H407.274V147.704H409.658V138.616H407.274V137.32H413.514V138.616H411.13V147.704H413.514V149ZM416.66 149V137.32H419.684C420.43 137.32 421.081 137.464 421.636 137.752C422.19 138.04 422.617 138.451 422.916 138.984C423.225 139.507 423.38 140.12 423.38 140.824V145.48C423.38 146.557 423.044 147.416 422.372 148.056C421.71 148.685 420.814 149 419.684 149H416.66ZM419.684 147.72C420.388 147.72 420.937 147.523 421.332 147.128C421.737 146.733 421.94 146.184 421.94 145.48V140.824C421.94 140.131 421.737 139.587 421.332 139.192C420.937 138.797 420.388 138.6 419.684 138.6H418.1V147.72H419.684ZM429.421 142.44C429.069 142.44 428.781 142.328 428.557 142.104C428.333 141.88 428.221 141.592 428.221 141.24C428.221 140.899 428.333 140.616 428.557 140.392C428.792 140.157 429.08 140.04 429.421 140.04H429.741C430.083 140.04 430.365 140.157 430.589 140.392C430.824 140.616 430.941 140.899 430.941 141.24C430.941 141.592 430.829 141.88 430.605 142.104C430.381 142.328 430.093 142.44 429.741 142.44H429.421ZM429.421 149.16C429.069 149.16 428.781 149.048 428.557 148.824C428.333 148.6 428.221 148.312 428.221 147.96C428.221 147.619 428.333 147.336 428.557 147.112C428.792 146.877 429.08 146.76 429.421 146.76H429.741C430.083 146.76 430.365 146.877 430.589 147.112C430.824 147.336 430.941 147.619 430.941 147.96C430.941 148.312 430.829 148.6 430.605 148.824C430.381 149.048 430.093 149.16 429.741 149.16H429.421ZM95.688 159.32H97.128V171H95.688V169.32H95.672C95.5973 169.896 95.3467 170.349 94.92 170.68C94.4933 171 93.9493 171.16 93.288 171.16C92.4027 171.16 91.6987 170.867 91.176 170.28C90.664 169.693 90.408 168.899 90.408 167.896V165.32C90.408 164.307 90.664 163.507 91.176 162.92C91.6987 162.333 92.4027 162.04 93.288 162.04C93.9387 162.04 94.4773 162.205 94.904 162.536C95.3307 162.867 95.5867 163.315 95.672 163.88H95.72L95.688 161.88V159.32ZM95.688 165.4C95.688 164.739 95.5173 164.221 95.176 163.848C94.8347 163.475 94.3653 163.288 93.768 163.288C93.16 163.288 92.6853 163.475 92.344 163.848C92.0133 164.211 91.848 164.728 91.848 165.4V167.8C91.848 168.472 92.0133 168.995 92.344 169.368C92.6853 169.731 93.16 169.912 93.768 169.912C94.3653 169.912 94.8347 169.725 95.176 169.352C95.5173 168.979 95.688 168.461 95.688 167.8V165.4ZM103.394 160.68C103.074 160.68 102.818 160.595 102.626 160.424C102.444 160.253 102.354 160.024 102.354 159.736C102.354 159.448 102.45 159.213 102.642 159.032C102.834 158.851 103.084 158.76 103.394 158.76H103.714C104.023 158.76 104.274 158.851 104.466 159.032C104.658 159.213 104.754 159.448 104.754 159.736C104.754 160.024 104.658 160.253 104.466 160.424C104.274 160.595 104.023 160.68 103.714 160.68H103.394ZM107.394 171H99.8738V169.688H102.994V163.512H100.274V162.2H104.434V169.688H107.394V171ZM112.636 171.16C111.74 171.16 111.02 170.952 110.476 170.536C109.942 170.12 109.633 169.555 109.548 168.84H110.988C111.052 169.16 111.228 169.416 111.516 169.608C111.804 169.789 112.177 169.88 112.636 169.88H113.308C113.862 169.88 114.278 169.763 114.556 169.528C114.844 169.293 114.988 168.979 114.988 168.584C114.988 167.859 114.492 167.416 113.5 167.256L112.316 167.064C111.441 166.925 110.796 166.659 110.38 166.264C109.964 165.859 109.756 165.288 109.756 164.552C109.756 163.752 110.012 163.133 110.524 162.696C111.036 162.259 111.782 162.04 112.764 162.04H113.372C114.204 162.04 114.876 162.243 115.388 162.648C115.91 163.043 116.225 163.581 116.332 164.264H114.892C114.828 163.976 114.662 163.747 114.396 163.576C114.129 163.405 113.788 163.32 113.372 163.32H112.764C111.718 163.32 111.196 163.736 111.196 164.568C111.196 164.92 111.297 165.187 111.5 165.368C111.713 165.539 112.054 165.661 112.524 165.736L113.708 165.928C114.657 166.077 115.345 166.355 115.772 166.76C116.209 167.165 116.428 167.752 116.428 168.52C116.428 169.352 116.161 170.003 115.628 170.472C115.105 170.931 114.332 171.16 113.308 171.16H112.636ZM122.645 171.16C121.579 171.16 120.736 170.861 120.117 170.264C119.499 169.667 119.189 168.845 119.189 167.8V165.4C119.189 164.355 119.499 163.533 120.117 162.936C120.736 162.339 121.579 162.04 122.645 162.04C123.659 162.04 124.475 162.312 125.093 162.856C125.712 163.4 126.037 164.141 126.069 165.08H124.629C124.597 164.525 124.405 164.093 124.053 163.784C123.712 163.475 123.243 163.32 122.645 163.32C122.016 163.32 121.52 163.501 121.157 163.864C120.805 164.227 120.629 164.733 120.629 165.384V167.8C120.629 168.461 120.805 168.973 121.157 169.336C121.509 169.699 122.005 169.88 122.645 169.88C123.243 169.88 123.712 169.725 124.053 169.416C124.405 169.107 124.597 168.675 124.629 168.12H126.069C126.037 169.059 125.712 169.8 125.093 170.344C124.475 170.888 123.659 171.16 122.645 171.16ZM132.175 171.16C131.13 171.16 130.303 170.861 129.695 170.264C129.087 169.667 128.783 168.845 128.783 167.8V165.4C128.783 164.355 129.087 163.533 129.695 162.936C130.303 162.339 131.13 162.04 132.175 162.04C133.22 162.04 134.047 162.339 134.655 162.936C135.263 163.533 135.567 164.349 135.567 165.384V167.8C135.567 168.845 135.263 169.667 134.655 170.264C134.047 170.861 133.22 171.16 132.175 171.16ZM132.175 169.88C132.804 169.88 133.284 169.704 133.615 169.352C133.956 168.989 134.127 168.472 134.127 167.8V165.4C134.127 164.728 133.956 164.216 133.615 163.864C133.284 163.501 132.804 163.32 132.175 163.32C131.546 163.32 131.06 163.501 130.719 163.864C130.388 164.216 130.223 164.728 130.223 165.4V167.8C130.223 168.472 130.388 168.989 130.719 169.352C131.06 169.704 131.546 169.88 132.175 169.88ZM141.753 171.16C140.739 171.16 139.929 170.856 139.321 170.248C138.713 169.64 138.409 168.824 138.409 167.8V162.2H139.849V167.8C139.849 168.461 140.014 168.979 140.345 169.352C140.686 169.715 141.155 169.896 141.753 169.896C142.361 169.896 142.835 169.715 143.177 169.352C143.518 168.979 143.689 168.461 143.689 167.8V162.2H145.129V167.8C145.129 168.824 144.819 169.64 144.201 170.248C143.593 170.856 142.777 171.16 141.753 171.16ZM151.827 162.04C152.712 162.04 153.416 162.317 153.939 162.872C154.461 163.416 154.723 164.152 154.723 165.08V171H153.283V165.24C153.283 164.621 153.112 164.136 152.771 163.784C152.44 163.432 151.987 163.256 151.411 163.256C150.803 163.256 150.328 163.448 149.987 163.832C149.645 164.205 149.475 164.728 149.475 165.4V171H148.035V162.2H149.475V163.88H149.491C149.565 163.293 149.805 162.84 150.211 162.52C150.616 162.2 151.155 162.04 151.827 162.04ZM161.916 171C161.159 171 160.567 170.797 160.14 170.392C159.724 169.987 159.516 169.416 159.516 168.68V163.512H157.036V162.2H159.516V159.8H160.956V162.2H164.476V163.512H160.956V168.68C160.956 169.021 161.031 169.277 161.18 169.448C161.34 169.608 161.586 169.688 161.916 169.688H164.316V171H161.916ZM173.67 171H167.43V169.704H169.814V160.616H167.43V159.32H173.67V160.616H171.286V169.704H173.67V171ZM176.816 171V159.32H179.84C180.586 159.32 181.237 159.464 181.792 159.752C182.346 160.04 182.773 160.451 183.072 160.984C183.381 161.507 183.536 162.12 183.536 162.824V167.48C183.536 168.557 183.2 169.416 182.528 170.056C181.866 170.685 180.97 171 179.84 171H176.816ZM179.84 169.72C180.544 169.72 181.093 169.523 181.488 169.128C181.893 168.733 182.096 168.184 182.096 167.48V162.824C182.096 162.131 181.893 161.587 181.488 161.192C181.093 160.797 180.544 160.6 179.84 160.6H178.256V169.72H179.84ZM186.778 171.576C187.812 171.331 188.628 170.776 189.226 169.912C189.834 169.048 190.138 167.997 190.138 166.76V163.72C190.138 162.461 189.834 161.395 189.226 160.52C188.618 159.645 187.802 159.085 186.778 158.84V157.48C187.759 157.725 188.607 158.141 189.322 158.728C190.047 159.315 190.602 160.035 190.986 160.888C191.38 161.741 191.578 162.685 191.578 163.72V166.76C191.578 168.349 191.156 169.693 190.314 170.792C189.471 171.891 188.292 172.627 186.778 173V171.576ZM211.645 159C211.133 159 210.744 159.117 210.477 159.352C210.221 159.587 210.104 159.928 210.125 160.376L210.285 163C210.317 163.608 210.189 164.109 209.901 164.504C209.624 164.899 209.218 165.144 208.685 165.24C209.218 165.336 209.624 165.587 209.901 165.992C210.189 166.387 210.317 166.883 210.285 167.48L210.125 170.104C210.104 170.552 210.221 170.893 210.477 171.128C210.744 171.363 211.133 171.48 211.645 171.48H212.365V172.76H211.645C210.696 172.76 209.954 172.525 209.421 172.056C208.888 171.587 208.642 170.936 208.685 170.104L208.845 167.48C208.866 167.085 208.834 166.776 208.749 166.552C208.674 166.317 208.52 166.147 208.285 166.04C208.05 165.933 207.704 165.88 207.245 165.88H205.485V164.6H207.245C207.704 164.6 208.05 164.547 208.285 164.44C208.52 164.333 208.674 164.168 208.749 163.944C208.834 163.72 208.866 163.405 208.845 163L208.685 160.376C208.642 159.544 208.888 158.893 209.421 158.424C209.954 157.955 210.696 157.72 211.645 157.72H212.365V159H211.645ZM218.167 171.16C217.271 171.16 216.551 170.952 216.007 170.536C215.473 170.12 215.164 169.555 215.079 168.84H216.519C216.583 169.16 216.759 169.416 217.047 169.608C217.335 169.789 217.708 169.88 218.167 169.88H218.839C219.393 169.88 219.809 169.763 220.087 169.528C220.375 169.293 220.519 168.979 220.519 168.584C220.519 167.859 220.023 167.416 219.031 167.256L217.847 167.064C216.972 166.925 216.327 166.659 215.911 166.264C215.495 165.859 215.287 165.288 215.287 164.552C215.287 163.752 215.543 163.133 216.055 162.696C216.567 162.259 217.313 162.04 218.295 162.04H218.903C219.735 162.04 220.407 162.243 220.919 162.648C221.441 163.043 221.756 163.581 221.863 164.264H220.423C220.359 163.976 220.193 163.747 219.927 163.576C219.66 163.405 219.319 163.32 218.903 163.32H218.295C217.249 163.32 216.727 163.736 216.727 164.568C216.727 164.92 216.828 165.187 217.031 165.368C217.244 165.539 217.585 165.661 218.055 165.736L219.239 165.928C220.188 166.077 220.876 166.355 221.303 166.76C221.74 167.165 221.959 167.752 221.959 168.52C221.959 169.352 221.692 170.003 221.159 170.472C220.636 170.931 219.863 171.16 218.839 171.16H218.167ZM228.097 171.16C227.083 171.16 226.273 170.856 225.664 170.248C225.057 169.64 224.753 168.824 224.753 167.8V162.2H226.193V167.8C226.193 168.461 226.358 168.979 226.689 169.352C227.03 169.715 227.499 169.896 228.097 169.896C228.705 169.896 229.179 169.715 229.521 169.352C229.862 168.979 230.033 168.461 230.033 167.8V162.2H231.473V167.8C231.473 168.824 231.163 169.64 230.545 170.248C229.937 170.856 229.121 171.16 228.097 171.16ZM238.218 162.04C239.104 162.04 239.802 162.333 240.314 162.92C240.837 163.507 241.098 164.307 241.098 165.32V167.896C241.098 168.899 240.837 169.693 240.314 170.28C239.802 170.867 239.104 171.16 238.218 171.16C237.557 171.16 237.013 171 236.586 170.68C236.16 170.349 235.909 169.896 235.834 169.32H235.818V171H234.378V159.32H235.818V161.88L235.786 163.88H235.834C235.92 163.315 236.176 162.867 236.602 162.536C237.029 162.205 237.568 162.04 238.218 162.04ZM239.658 165.4C239.658 164.728 239.488 164.211 239.146 163.848C238.816 163.475 238.346 163.288 237.738 163.288C237.141 163.288 236.672 163.475 236.33 163.848C235.989 164.221 235.818 164.739 235.818 165.4V167.8C235.818 168.461 235.989 168.979 236.33 169.352C236.672 169.725 237.141 169.912 237.738 169.912C238.346 169.912 238.816 169.731 239.146 169.368C239.488 168.995 239.658 168.472 239.658 167.8V165.4ZM246.948 171.16C246.052 171.16 245.332 170.952 244.788 170.536C244.255 170.12 243.945 169.555 243.86 168.84H245.3C245.364 169.16 245.54 169.416 245.828 169.608C246.116 169.789 246.489 169.88 246.948 169.88H247.62C248.175 169.88 248.591 169.763 248.868 169.528C249.156 169.293 249.3 168.979 249.3 168.584C249.3 167.859 248.804 167.416 247.812 167.256L246.628 167.064C245.753 166.925 245.108 166.659 244.692 166.264C244.276 165.859 244.068 165.288 244.068 164.552C244.068 163.752 244.324 163.133 244.836 162.696C245.348 162.259 246.095 162.04 247.076 162.04H247.684C248.516 162.04 249.188 162.243 249.7 162.648C250.223 163.043 250.537 163.581 250.644 164.264H249.204C249.14 163.976 248.975 163.747 248.708 163.576C248.441 163.405 248.1 163.32 247.684 163.32H247.076C246.031 163.32 245.508 163.736 245.508 164.568C245.508 164.92 245.609 165.187 245.812 165.368C246.025 165.539 246.367 165.661 246.836 165.736L248.02 165.928C248.969 166.077 249.657 166.355 250.084 166.76C250.521 167.165 250.74 167.752 250.74 168.52C250.74 169.352 250.473 170.003 249.94 170.472C249.417 170.931 248.644 171.16 247.62 171.16H246.948ZM256.958 171.16C255.891 171.16 255.048 170.861 254.43 170.264C253.811 169.667 253.502 168.845 253.502 167.8V165.4C253.502 164.355 253.811 163.533 254.43 162.936C255.048 162.339 255.891 162.04 256.958 162.04C257.971 162.04 258.787 162.312 259.406 162.856C260.024 163.4 260.35 164.141 260.382 165.08H258.942C258.91 164.525 258.718 164.093 258.366 163.784C258.024 163.475 257.555 163.32 256.958 163.32C256.328 163.32 255.832 163.501 255.47 163.864C255.118 164.227 254.942 164.733 254.942 165.384V167.8C254.942 168.461 255.118 168.973 255.47 169.336C255.822 169.699 256.318 169.88 256.958 169.88C257.555 169.88 258.024 169.725 258.366 169.416C258.718 169.107 258.91 168.675 258.942 168.12H260.382C260.35 169.059 260.024 169.8 259.406 170.344C258.787 170.888 257.971 171.16 256.958 171.16ZM267.192 162.04C268.12 162.04 268.856 162.333 269.4 162.92C269.954 163.496 270.232 164.28 270.232 165.272V165.8H268.792V165.4C268.792 164.717 268.621 164.189 268.28 163.816C267.949 163.443 267.474 163.256 266.856 163.256C266.248 163.256 265.768 163.448 265.416 163.832C265.074 164.205 264.904 164.728 264.904 165.4V171H263.464V162.2H264.872V163.768C265.16 162.616 265.933 162.04 267.192 162.04ZM276.081 160.68C275.761 160.68 275.505 160.595 275.313 160.424C275.132 160.253 275.041 160.024 275.041 159.736C275.041 159.448 275.137 159.213 275.329 159.032C275.521 158.851 275.772 158.76 276.081 158.76H276.401C276.711 158.76 276.961 158.851 277.153 159.032C277.345 159.213 277.441 159.448 277.441 159.736C277.441 160.024 277.345 160.253 277.153 160.424C276.961 160.595 276.711 160.68 276.401 160.68H276.081ZM280.081 171H272.561V169.688H275.681V163.512H272.961V162.2H277.121V169.688H280.081V171ZM286.203 162.04C287.088 162.04 287.787 162.333 288.299 162.92C288.811 163.507 289.067 164.301 289.067 165.304V167.88C289.067 168.893 288.811 169.693 288.299 170.28C287.787 170.867 287.088 171.16 286.203 171.16C285.542 171.16 284.992 170.995 284.555 170.664C284.128 170.333 283.878 169.885 283.803 169.32H283.755L283.787 171.32V173.88H282.347V162.2H283.787V163.88H283.803C283.878 163.304 284.128 162.856 284.555 162.536C284.992 162.205 285.542 162.04 286.203 162.04ZM287.627 165.4C287.627 164.717 287.462 164.195 287.131 163.832C286.8 163.469 286.331 163.288 285.723 163.288C285.126 163.288 284.651 163.475 284.299 163.848C283.958 164.221 283.787 164.739 283.787 165.4V167.8C283.787 168.461 283.958 168.979 284.299 169.352C284.651 169.725 285.126 169.912 285.723 169.912C286.331 169.912 286.8 169.731 287.131 169.368C287.462 169.005 287.627 168.483 287.627 167.8V165.4ZM296.229 171C295.471 171 294.879 170.797 294.453 170.392C294.037 169.987 293.829 169.416 293.829 168.68V163.512H291.349V162.2H293.829V159.8H295.269V162.2H298.789V163.512H295.269V168.68C295.269 169.021 295.343 169.277 295.493 169.448C295.653 169.608 295.898 169.688 296.229 169.688H298.629V171H296.229ZM304.863 160.68C304.543 160.68 304.287 160.595 304.095 160.424C303.913 160.253 303.823 160.024 303.823 159.736C303.823 159.448 303.919 159.213 304.111 159.032C304.303 158.851 304.553 158.76 304.863 158.76H305.183C305.492 158.76 305.743 158.851 305.935 159.032C306.127 159.213 306.223 159.448 306.223 159.736C306.223 160.024 306.127 160.253 305.935 160.424C305.743 160.595 305.492 160.68 305.183 160.68H304.863ZM308.863 171H301.343V169.688H304.463V163.512H301.743V162.2H305.903V169.688H308.863V171ZM314.456 171.16C313.411 171.16 312.584 170.861 311.976 170.264C311.368 169.667 311.064 168.845 311.064 167.8V165.4C311.064 164.355 311.368 163.533 311.976 162.936C312.584 162.339 313.411 162.04 314.456 162.04C315.502 162.04 316.328 162.339 316.936 162.936C317.544 163.533 317.848 164.349 317.848 165.384V167.8C317.848 168.845 317.544 169.667 316.936 170.264C316.328 170.861 315.502 171.16 314.456 171.16ZM314.456 169.88C315.086 169.88 315.566 169.704 315.896 169.352C316.238 168.989 316.408 168.472 316.408 167.8V165.4C316.408 164.728 316.238 164.216 315.896 163.864C315.566 163.501 315.086 163.32 314.456 163.32C313.827 163.32 313.342 163.501 313 163.864C312.67 164.216 312.504 164.728 312.504 165.4V167.8C312.504 168.472 312.67 168.989 313 169.352C313.342 169.704 313.827 169.88 314.456 169.88ZM324.514 162.04C325.399 162.04 326.103 162.317 326.626 162.872C327.149 163.416 327.41 164.152 327.41 165.08V171H325.97V165.24C325.97 164.621 325.799 164.136 325.458 163.784C325.127 163.432 324.674 163.256 324.098 163.256C323.49 163.256 323.015 163.448 322.674 163.832C322.333 164.205 322.162 164.728 322.162 165.4V171H320.722V162.2H322.162V163.88H322.178C322.253 163.293 322.493 162.84 322.898 162.52C323.303 162.2 323.842 162.04 324.514 162.04ZM332.764 173.56H331.484L332.764 168.584H334.844L332.764 173.56ZM356.223 166.952H350.847V167.8C350.847 168.504 351.013 169.037 351.343 169.4C351.685 169.763 352.181 169.944 352.831 169.944C353.951 169.944 354.591 169.549 354.751 168.76H356.191C356.095 169.496 355.743 170.083 355.135 170.52C354.527 170.947 353.759 171.16 352.831 171.16C351.797 171.16 350.97 170.856 350.351 170.248C349.743 169.64 349.439 168.824 349.439 167.8V165.4C349.439 164.376 349.743 163.56 350.351 162.952C350.97 162.344 351.797 162.04 352.831 162.04C353.866 162.04 354.687 162.344 355.295 162.952C355.914 163.56 356.223 164.376 356.223 165.4V166.952ZM350.847 165.864H354.815V165.4C354.815 164.696 354.645 164.163 354.303 163.8C353.973 163.427 353.482 163.24 352.831 163.24C352.181 163.24 351.685 163.427 351.343 163.8C351.013 164.163 350.847 164.696 350.847 165.4V165.864ZM363.129 162.04C364.057 162.04 364.793 162.333 365.337 162.92C365.892 163.496 366.169 164.28 366.169 165.272V165.8H364.729V165.4C364.729 164.717 364.558 164.189 364.217 163.816C363.886 163.443 363.412 163.256 362.793 163.256C362.185 163.256 361.705 163.448 361.353 163.832C361.012 164.205 360.841 164.728 360.841 165.4V171H359.401V162.2H360.809V163.768C361.097 162.616 361.87 162.04 363.129 162.04ZM372.723 162.04C373.651 162.04 374.387 162.333 374.931 162.92C375.485 163.496 375.763 164.28 375.763 165.272V165.8H374.323V165.4C374.323 164.717 374.152 164.189 373.811 163.816C373.48 163.443 373.005 163.256 372.387 163.256C371.779 163.256 371.299 163.448 370.947 163.832C370.605 164.205 370.435 164.728 370.435 165.4V171H368.995V162.2H370.403V163.768C370.691 162.616 371.464 162.04 372.723 162.04ZM381.613 171.16C380.567 171.16 379.741 170.861 379.133 170.264C378.525 169.667 378.221 168.845 378.221 167.8V165.4C378.221 164.355 378.525 163.533 379.133 162.936C379.741 162.339 380.567 162.04 381.613 162.04C382.658 162.04 383.485 162.339 384.093 162.936C384.701 163.533 385.005 164.349 385.005 165.384V167.8C385.005 168.845 384.701 169.667 384.093 170.264C383.485 170.861 382.658 171.16 381.613 171.16ZM381.613 169.88C382.242 169.88 382.722 169.704 383.053 169.352C383.394 168.989 383.565 168.472 383.565 167.8V165.4C383.565 164.728 383.394 164.216 383.053 163.864C382.722 163.501 382.242 163.32 381.613 163.32C380.983 163.32 380.498 163.501 380.157 163.864C379.826 164.216 379.661 164.728 379.661 165.4V167.8C379.661 168.472 379.826 168.989 380.157 169.352C380.498 169.704 380.983 169.88 381.613 169.88ZM391.91 162.04C392.838 162.04 393.574 162.333 394.118 162.92C394.673 163.496 394.95 164.28 394.95 165.272V165.8H393.51V165.4C393.51 164.717 393.34 164.189 392.998 163.816C392.668 163.443 392.193 163.256 391.574 163.256C390.966 163.256 390.486 163.448 390.134 163.832C389.793 164.205 389.622 164.728 389.622 165.4V171H388.182V162.2H389.59V163.768C389.878 162.616 390.652 162.04 391.91 162.04ZM397.84 171.576C398.875 171.331 399.691 170.776 400.288 169.912C400.896 169.048 401.2 167.997 401.2 166.76V163.72C401.2 162.461 400.896 161.395 400.288 160.52C399.68 159.645 398.864 159.085 397.84 158.84V157.48C398.821 157.725 399.669 158.141 400.384 158.728C401.109 159.315 401.664 160.035 402.048 160.888C402.443 161.741 402.64 162.685 402.64 163.72V166.76C402.64 168.349 402.219 169.693 401.376 170.792C400.533 171.891 399.355 172.627 397.84 173V171.576ZM410.394 160.68C410.074 160.68 409.818 160.595 409.626 160.424C409.444 160.253 409.354 160.024 409.354 159.736C409.354 159.448 409.45 159.213 409.642 159.032C409.834 158.851 410.084 158.76 410.394 158.76H410.714C411.023 158.76 411.274 158.851 411.466 159.032C411.658 159.213 411.754 159.448 411.754 159.736C411.754 160.024 411.658 160.253 411.466 160.424C411.274 160.595 411.023 160.68 410.714 160.68H410.394ZM414.394 171H406.874V169.688H409.994V163.512H407.274V162.2H411.434V169.688H414.394V171ZM420.452 162.04C421.337 162.04 422.041 162.317 422.564 162.872C423.086 163.416 423.348 164.152 423.348 165.08V171H421.908V165.24C421.908 164.621 421.737 164.136 421.396 163.784C421.065 163.432 420.612 163.256 420.036 163.256C419.428 163.256 418.953 163.448 418.612 163.832C418.27 164.205 418.1 164.728 418.1 165.4V171H416.66V162.2H418.1V163.88H418.116C418.19 163.293 418.43 162.84 418.836 162.52C419.241 162.2 419.78 162.04 420.452 162.04ZM97.24 208.6V209.88H95.48C95.0213 209.88 94.6747 209.933 94.44 210.04C94.2053 210.147 94.0453 210.317 93.96 210.552C93.8853 210.776 93.8587 211.085 93.88 211.48L94.04 214.104C94.0827 214.936 93.8373 215.587 93.304 216.056C92.7707 216.525 92.0293 216.76 91.08 216.76H90.36V215.48H91.08C91.592 215.48 91.976 215.363 92.232 215.128C92.4987 214.893 92.6213 214.552 92.6 214.104L92.44 211.48C92.408 210.883 92.5307 210.387 92.808 209.992C93.096 209.587 93.5067 209.336 94.04 209.24C93.5067 209.144 93.096 208.899 92.808 208.504C92.5307 208.109 92.408 207.608 92.44 207L92.6 204.376C92.6213 203.928 92.4987 203.587 92.232 203.352C91.976 203.117 91.592 203 91.08 203H90.36V201.72H91.08C92.0293 201.72 92.7707 201.955 93.304 202.424C93.8373 202.893 94.0827 203.544 94.04 204.376L93.88 207C93.8587 207.405 93.8853 207.72 93.96 207.944C94.0453 208.168 94.2053 208.333 94.44 208.44C94.6747 208.547 95.0213 208.6 95.48 208.6H97.24ZM100.434 215.576C101.468 215.331 102.284 214.776 102.882 213.912C103.49 213.048 103.794 211.997 103.794 210.76V207.72C103.794 206.461 103.49 205.395 102.882 204.52C102.274 203.645 101.458 203.085 100.434 202.84V201.48C101.415 201.725 102.263 202.141 102.978 202.728C103.703 203.315 104.258 204.035 104.642 204.888C105.036 205.741 105.234 206.685 105.234 207.72V210.76C105.234 212.349 104.812 213.693 103.97 214.792C103.127 215.891 101.948 216.627 100.434 217V215.576Z" fill="#181818"/>
<path d="M161.484 140.04C162.37 140.04 163.068 140.333 163.58 140.92C164.092 141.507 164.348 142.301 164.348 143.304V145.88C164.348 146.893 164.092 147.693 163.58 148.28C163.068 148.867 162.37 149.16 161.484 149.16C160.823 149.16 160.274 148.995 159.836 148.664C159.41 148.333 159.159 147.885 159.084 147.32H159.036L159.068 149.32V151.88H157.628V140.2H159.068V141.88H159.084C159.159 141.304 159.41 140.856 159.836 140.536C160.274 140.205 160.823 140.04 161.484 140.04ZM162.908 143.4C162.908 142.717 162.743 142.195 162.412 141.832C162.082 141.469 161.612 141.288 161.004 141.288C160.407 141.288 159.932 141.475 159.58 141.848C159.239 142.221 159.068 142.739 159.068 143.4V145.8C159.068 146.461 159.239 146.979 159.58 147.352C159.932 147.725 160.407 147.912 161.004 147.912C161.612 147.912 162.082 147.731 162.412 147.368C162.743 147.005 162.908 146.483 162.908 145.8V143.4ZM170.534 149.16C169.521 149.16 168.71 148.856 168.102 148.248C167.494 147.64 167.19 146.824 167.19 145.8V140.2H168.63V145.8C168.63 146.461 168.795 146.979 169.126 147.352C169.467 147.715 169.937 147.896 170.534 147.896C171.142 147.896 171.617 147.715 171.958 147.352C172.299 146.979 172.47 146.461 172.47 145.8V140.2H173.91V145.8C173.91 146.824 173.601 147.64 172.982 148.248C172.374 148.856 171.558 149.16 170.534 149.16ZM180.848 140.04C181.776 140.04 182.512 140.333 183.056 140.92C183.61 141.496 183.888 142.28 183.888 143.272V143.8H182.448V143.4C182.448 142.717 182.277 142.189 181.936 141.816C181.605 141.443 181.13 141.256 180.512 141.256C179.904 141.256 179.424 141.448 179.072 141.832C178.73 142.205 178.56 142.728 178.56 143.4V149H177.12V140.2H178.528V141.768C178.816 140.616 179.589 140.04 180.848 140.04ZM189.802 149.16C188.735 149.16 187.892 148.861 187.274 148.264C186.655 147.667 186.346 146.845 186.346 145.8V143.4C186.346 142.355 186.655 141.533 187.274 140.936C187.892 140.339 188.735 140.04 189.802 140.04C190.815 140.04 191.631 140.312 192.25 140.856C192.868 141.4 193.194 142.141 193.226 143.08H191.786C191.754 142.525 191.562 142.093 191.21 141.784C190.868 141.475 190.399 141.32 189.802 141.32C189.172 141.32 188.676 141.501 188.314 141.864C187.962 142.227 187.786 142.733 187.786 143.384V145.8C187.786 146.461 187.962 146.973 188.314 147.336C188.666 147.699 189.162 147.88 189.802 147.88C190.399 147.88 190.868 147.725 191.21 147.416C191.562 147.107 191.754 146.675 191.786 146.12H193.226C193.194 147.059 192.868 147.8 192.25 148.344C191.631 148.888 190.815 149.16 189.802 149.16ZM199.795 140.04C200.681 140.04 201.385 140.317 201.907 140.872C202.43 141.416 202.691 142.152 202.691 143.08V149H201.251V143.24C201.251 142.621 201.081 142.136 200.739 141.784C200.409 141.432 199.955 141.256 199.379 141.256C198.771 141.256 198.297 141.448 197.955 141.832C197.614 142.205 197.443 142.728 197.443 143.4V149H196.003V137.32H197.443V141.88H197.459C197.534 141.293 197.774 140.84 198.179 140.52C198.585 140.2 199.123 140.04 199.795 140.04ZM208.957 140.056C209.981 140.056 210.792 140.317 211.389 140.84C211.986 141.352 212.285 142.056 212.285 142.952V149H210.877V147.32H210.861C210.818 147.875 210.541 148.323 210.029 148.664C209.517 148.995 208.877 149.16 208.109 149.16C207.213 149.16 206.498 148.925 205.965 148.456C205.432 147.987 205.165 147.352 205.165 146.552C205.165 145.709 205.426 145.048 205.949 144.568C206.482 144.088 207.208 143.848 208.125 143.848H210.845V143C210.845 142.467 210.674 142.056 210.333 141.768C210.002 141.469 209.538 141.32 208.941 141.32C208.418 141.32 207.986 141.427 207.645 141.64C207.304 141.853 207.106 142.147 207.053 142.52H205.613C205.709 141.773 206.061 141.176 206.669 140.728C207.277 140.28 208.04 140.056 208.957 140.056ZM208.445 148.024C209.149 148.024 209.725 147.859 210.173 147.528C210.621 147.187 210.845 146.744 210.845 146.2V144.952H208.157C207.677 144.952 207.298 145.085 207.021 145.352C206.744 145.619 206.605 145.987 206.605 146.456C206.605 146.947 206.77 147.331 207.101 147.608C207.432 147.885 207.88 148.024 208.445 148.024ZM218.167 149.16C217.271 149.16 216.551 148.952 216.007 148.536C215.473 148.12 215.164 147.555 215.079 146.84H216.519C216.583 147.16 216.759 147.416 217.047 147.608C217.335 147.789 217.708 147.88 218.167 147.88H218.839C219.393 147.88 219.809 147.763 220.087 147.528C220.375 147.293 220.519 146.979 220.519 146.584C220.519 145.859 220.023 145.416 219.031 145.256L217.847 145.064C216.972 144.925 216.327 144.659 215.911 144.264C215.495 143.859 215.287 143.288 215.287 142.552C215.287 141.752 215.543 141.133 216.055 140.696C216.567 140.259 217.313 140.04 218.295 140.04H218.903C219.735 140.04 220.407 140.243 220.919 140.648C221.441 141.043 221.756 141.581 221.863 142.264H220.423C220.359 141.976 220.193 141.747 219.927 141.576C219.66 141.405 219.319 141.32 218.903 141.32H218.295C217.249 141.32 216.727 141.736 216.727 142.568C216.727 142.92 216.828 143.187 217.031 143.368C217.244 143.539 217.585 143.661 218.055 143.736L219.239 143.928C220.188 144.077 220.876 144.355 221.303 144.76C221.74 145.165 221.959 145.752 221.959 146.52C221.959 147.352 221.692 148.003 221.159 148.472C220.636 148.931 219.863 149.16 218.839 149.16H218.167ZM231.505 144.952H226.129V145.8C226.129 146.504 226.294 147.037 226.625 147.4C226.966 147.763 227.462 147.944 228.113 147.944C229.233 147.944 229.873 147.549 230.033 146.76H231.473C231.377 147.496 231.025 148.083 230.417 148.52C229.809 148.947 229.041 149.16 228.113 149.16C227.078 149.16 226.251 148.856 225.633 148.248C225.025 147.64 224.721 146.824 224.721 145.8V143.4C224.721 142.376 225.025 141.56 225.633 140.952C226.251 140.344 227.078 140.04 228.113 140.04C229.147 140.04 229.969 140.344 230.577 140.952C231.195 141.56 231.505 142.376 231.505 143.4V144.952ZM226.129 143.864H230.097V143.4C230.097 142.696 229.926 142.163 229.585 141.8C229.254 141.427 228.763 141.24 228.113 141.24C227.462 141.24 226.966 141.427 226.625 141.8C226.294 142.163 226.129 142.696 226.129 143.4V143.864Z" fill="#0084FF"/>
<path d="M139.689 194.76H138.169L143.849 179.72H145.369L139.689 194.76ZM149.283 194.76H147.763L153.443 179.72H154.963L149.283 194.76ZM171.014 184.04C171.899 184.04 172.603 184.317 173.126 184.872C173.649 185.416 173.91 186.152 173.91 187.08V193H172.47V187.24C172.47 186.621 172.299 186.136 171.958 185.784C171.627 185.432 171.174 185.256 170.598 185.256C169.99 185.256 169.515 185.448 169.174 185.832C168.833 186.205 168.662 186.728 168.662 187.4V193H167.222V181.32H168.662V185.88H168.678C168.753 185.293 168.993 184.84 169.398 184.52C169.803 184.2 170.342 184.04 171.014 184.04ZM180.176 184.056C181.2 184.056 182.01 184.317 182.608 184.84C183.205 185.352 183.504 186.056 183.504 186.952V193H182.096V191.32H182.08C182.037 191.875 181.76 192.323 181.248 192.664C180.736 192.995 180.096 193.16 179.328 193.16C178.432 193.16 177.717 192.925 177.184 192.456C176.65 191.987 176.384 191.352 176.384 190.552C176.384 189.709 176.645 189.048 177.168 188.568C177.701 188.088 178.426 187.848 179.344 187.848H182.064V187C182.064 186.467 181.893 186.056 181.552 185.768C181.221 185.469 180.757 185.32 180.16 185.32C179.637 185.32 179.205 185.427 178.864 185.64C178.522 185.853 178.325 186.147 178.272 186.52H176.832C176.928 185.773 177.28 185.176 177.888 184.728C178.496 184.28 179.258 184.056 180.176 184.056ZM179.664 192.024C180.368 192.024 180.944 191.859 181.392 191.528C181.84 191.187 182.064 190.744 182.064 190.2V188.952H179.376C178.896 188.952 178.517 189.085 178.24 189.352C177.962 189.619 177.824 189.987 177.824 190.456C177.824 190.947 177.989 191.331 178.32 191.608C178.65 191.885 179.098 192.024 179.664 192.024ZM190.202 184.04C191.087 184.04 191.791 184.317 192.314 184.872C192.836 185.416 193.098 186.152 193.098 187.08V193H191.658V187.24C191.658 186.621 191.487 186.136 191.146 185.784C190.815 185.432 190.362 185.256 189.786 185.256C189.178 185.256 188.703 185.448 188.362 185.832C188.02 186.205 187.85 186.728 187.85 187.4V193H186.41V184.2H187.85V185.88H187.866C187.94 185.293 188.18 184.84 188.586 184.52C188.991 184.2 189.53 184.04 190.202 184.04ZM201.219 181.32H202.659V193H201.219V191.32H201.203C201.129 191.896 200.878 192.349 200.451 192.68C200.025 193 199.481 193.16 198.819 193.16C197.934 193.16 197.23 192.867 196.707 192.28C196.195 191.693 195.939 190.899 195.939 189.896V187.32C195.939 186.307 196.195 185.507 196.707 184.92C197.23 184.333 197.934 184.04 198.819 184.04C199.47 184.04 200.009 184.205 200.435 184.536C200.862 184.867 201.118 185.315 201.203 185.88H201.251L201.219 183.88V181.32ZM201.219 187.4C201.219 186.739 201.049 186.221 200.707 185.848C200.366 185.475 199.897 185.288 199.299 185.288C198.691 185.288 198.217 185.475 197.875 185.848C197.545 186.211 197.379 186.728 197.379 187.4V189.8C197.379 190.472 197.545 190.995 197.875 191.368C198.217 191.731 198.691 191.912 199.299 191.912C199.897 191.912 200.366 191.725 200.707 191.352C201.049 190.979 201.219 190.461 201.219 189.8V187.4ZM209.965 193C209.186 193 208.562 192.776 208.093 192.328C207.634 191.869 207.405 191.267 207.405 190.52V182.632H204.765V181.32H208.845V190.52C208.845 190.883 208.946 191.171 209.149 191.384C209.352 191.587 209.624 191.688 209.965 191.688H212.925V193H209.965ZM221.911 188.952H216.535V189.8C216.535 190.504 216.7 191.037 217.031 191.4C217.372 191.763 217.868 191.944 218.519 191.944C219.639 191.944 220.279 191.549 220.439 190.76H221.879C221.783 191.496 221.431 192.083 220.823 192.52C220.215 192.947 219.447 193.16 218.519 193.16C217.484 193.16 216.657 192.856 216.039 192.248C215.431 191.64 215.127 190.824 215.127 189.8V187.4C215.127 186.376 215.431 185.56 216.039 184.952C216.657 184.344 217.484 184.04 218.519 184.04C219.553 184.04 220.375 184.344 220.983 184.952C221.601 185.56 221.911 186.376 221.911 187.4V188.952ZM216.535 187.864H220.503V187.4C220.503 186.696 220.332 186.163 219.991 185.8C219.66 185.427 219.169 185.24 218.519 185.24C217.868 185.24 217.372 185.427 217.031 185.8C216.7 186.163 216.535 186.696 216.535 187.4V187.864ZM238.41 184.04C239.338 184.04 240.074 184.333 240.618 184.92C241.173 185.496 241.45 186.28 241.45 187.272V187.8H240.01V187.4C240.01 186.717 239.84 186.189 239.498 185.816C239.168 185.443 238.693 185.256 238.074 185.256C237.466 185.256 236.986 185.448 236.634 185.832C236.293 186.205 236.122 186.728 236.122 187.4V193H234.682V184.2H236.09V185.768C236.378 184.616 237.152 184.04 238.41 184.04ZM250.692 188.952H245.316V189.8C245.316 190.504 245.481 191.037 245.812 191.4C246.153 191.763 246.649 191.944 247.3 191.944C248.42 191.944 249.06 191.549 249.22 190.76H250.66C250.564 191.496 250.212 192.083 249.604 192.52C248.996 192.947 248.228 193.16 247.3 193.16C246.265 193.16 245.439 192.856 244.82 192.248C244.212 191.64 243.908 190.824 243.908 189.8V187.4C243.908 186.376 244.212 185.56 244.82 184.952C245.439 184.344 246.265 184.04 247.3 184.04C248.335 184.04 249.156 184.344 249.764 184.952C250.383 185.56 250.692 186.376 250.692 187.4V188.952ZM245.316 187.864H249.284V187.4C249.284 186.696 249.113 186.163 248.772 185.8C248.441 185.427 247.951 185.24 247.3 185.24C246.649 185.24 246.153 185.427 245.812 185.8C245.481 186.163 245.316 186.696 245.316 187.4V187.864ZM256.542 193.16C255.646 193.16 254.926 192.952 254.382 192.536C253.848 192.12 253.539 191.555 253.454 190.84H254.894C254.958 191.16 255.134 191.416 255.422 191.608C255.71 191.789 256.083 191.88 256.542 191.88H257.214C257.768 191.88 258.184 191.763 258.462 191.528C258.75 191.293 258.894 190.979 258.894 190.584C258.894 189.859 258.398 189.416 257.406 189.256L256.222 189.064C255.347 188.925 254.702 188.659 254.286 188.264C253.87 187.859 253.662 187.288 253.662 186.552C253.662 185.752 253.918 185.133 254.43 184.696C254.942 184.259 255.688 184.04 256.67 184.04H257.278C258.11 184.04 258.782 184.243 259.294 184.648C259.816 185.043 260.131 185.581 260.238 186.264H258.798C258.734 185.976 258.568 185.747 258.302 185.576C258.035 185.405 257.694 185.32 257.278 185.32H256.67C255.624 185.32 255.102 185.736 255.102 186.568C255.102 186.92 255.203 187.187 255.406 187.368C255.619 187.539 255.96 187.661 256.43 187.736L257.614 187.928C258.563 188.077 259.251 188.355 259.678 188.76C260.115 189.165 260.334 189.752 260.334 190.52C260.334 191.352 260.067 192.003 259.534 192.472C259.011 192.931 258.238 193.16 257.214 193.16H256.542ZM266.472 193.16C265.458 193.16 264.648 192.856 264.039 192.248C263.432 191.64 263.128 190.824 263.128 189.8V184.2H264.568V189.8C264.568 190.461 264.733 190.979 265.064 191.352C265.405 191.715 265.874 191.896 266.472 191.896C267.08 191.896 267.554 191.715 267.896 191.352C268.237 190.979 268.408 190.461 268.408 189.8V184.2H269.848V189.8C269.848 190.824 269.538 191.64 268.92 192.248C268.312 192.856 267.496 193.16 266.472 193.16ZM277.121 193C276.343 193 275.719 192.776 275.249 192.328C274.791 191.869 274.561 191.267 274.561 190.52V182.632H271.921V181.32H276.001V190.52C276.001 190.883 276.103 191.171 276.305 191.384C276.508 191.587 276.78 191.688 277.121 191.688H280.081V193H277.121ZM286.635 193C285.878 193 285.286 192.797 284.859 192.392C284.443 191.987 284.235 191.416 284.235 190.68V185.512H281.755V184.2H284.235V181.8H285.675V184.2H289.195V185.512H285.675V190.68C285.675 191.021 285.75 191.277 285.899 191.448C286.059 191.608 286.304 191.688 286.635 191.688H289.035V193H286.635Z" fill="#97ADC6"/>
<path d="M468.452 51C468.297 50.7596 468.162 50.6194 468.104 50.4592C467.369 48.416 466.654 46.3729 465.938 44.3297C465.725 43.7288 465.513 43.1079 465.319 42.4869C465.145 41.9461 464.875 41.4854 464.333 41.2851C463.405 40.9445 462.497 40.604 461.568 40.2435C460.505 39.8428 459.461 39.4222 458.417 39.0216C457.779 38.7812 457.141 38.5809 456.503 38.3205C456.309 38.2404 456.174 38.0401 456 37.8798C456.174 37.7396 456.309 37.5193 456.503 37.4592C457.566 37.0385 458.649 36.6379 459.712 36.2373C460.698 35.8567 461.665 35.4961 462.651 35.1156C463.193 34.9153 463.734 34.7149 464.295 34.5146C464.759 34.3344 465.068 34.0139 465.242 33.5331C465.571 32.5917 465.899 31.6502 466.228 30.7288C466.77 29.2265 467.311 27.7042 467.852 26.2018C467.949 25.9214 467.988 25.621 468.123 25.3405C468.2 25.1803 468.374 25 468.51 25C468.645 25 468.819 25.2003 468.877 25.3606C469.612 27.4037 470.327 29.4468 471.062 31.49C471.275 32.1109 471.487 32.7519 471.7 33.3729C471.874 33.9337 472.164 34.3344 472.725 34.5347C474.117 35.0354 475.509 35.5562 476.901 36.0971C477.887 36.4777 478.873 36.8783 479.879 37.2589C480.13 37.359 480.42 37.3991 480.652 37.5193C480.807 37.5994 481 37.7596 481 37.8998C481 38.02 480.807 38.2404 480.671 38.2804C478.235 39.2419 475.818 40.1433 473.401 41.0647C473.305 41.1048 473.189 41.1448 473.073 41.1649C472.261 41.3451 471.835 41.8459 471.584 42.6872C471.275 43.7689 470.83 44.8105 470.462 45.8721C470.114 46.8737 469.747 47.8552 469.399 48.8567C469.206 49.4176 469.032 49.9985 468.819 50.5593C468.8 50.6795 468.645 50.7997 468.452 51Z" fill="#FFD12D"/>
<circle cx="311" cy="304" r="8" fill="#93E6CF"/>
<path d="M12.4517 139C12.297 138.76 12.1616 138.619 12.1036 138.459C11.3689 136.416 10.6535 134.373 9.93813 132.33C9.72544 131.729 9.51276 131.108 9.31941 130.487C9.1454 129.946 8.87471 129.485 8.33333 129.285C7.40526 128.945 6.49652 128.604 5.56845 128.243C4.50503 127.843 3.46094 127.422 2.41686 127.022C1.77881 126.781 1.14076 126.581 0.502707 126.32C0.309358 126.24 0.174014 126.04 0 125.88C0.174014 125.74 0.309358 125.519 0.502707 125.459C1.56613 125.039 2.64888 124.638 3.7123 124.237C4.69838 123.857 5.66512 123.496 6.6512 123.116C7.19258 122.915 7.73395 122.715 8.29466 122.515C8.7587 122.334 9.06806 122.014 9.24207 121.533C9.57077 120.592 9.89946 119.65 10.2282 118.729C10.7695 117.227 11.3109 115.704 11.8523 114.202C11.949 113.921 11.9876 113.621 12.123 113.341C12.2003 113.18 12.3743 113 12.5097 113C12.645 113 12.819 113.2 12.877 113.361C13.6118 115.404 14.3271 117.447 15.0619 119.49C15.2746 120.111 15.4872 120.752 15.6999 121.373C15.8739 121.934 16.164 122.334 16.7247 122.535C18.1168 123.035 19.5089 123.556 20.901 124.097C21.8871 124.478 22.8732 124.878 23.8786 125.259C24.1299 125.359 24.42 125.399 24.652 125.519C24.8067 125.599 25 125.76 25 125.9C25 126.02 24.8067 126.24 24.6713 126.28C22.2351 127.242 19.8183 128.143 17.4014 129.065C17.3047 129.105 17.1887 129.145 17.0727 129.165C16.2606 129.345 15.8353 129.846 15.5839 130.687C15.2746 131.769 14.8299 132.81 14.4625 133.872C14.1145 134.874 13.7471 135.855 13.3991 136.857C13.2057 137.418 13.0317 137.998 12.819 138.559C12.7997 138.68 12.645 138.8 12.4517 139Z" fill="#FFB9F8"/>
<path d="M479.14 178.21L478.898 176.442C478.682 174.911 476.961 161.447 482.244 157.753C484.206 156.39 486.733 156.525 489.76 158.151C492.477 159.614 493.85 161.501 493.849 163.763C493.845 170.148 482.058 176.641 480.709 177.363L479.14 178.21ZM486.434 159.472C485.976 159.322 485.491 159.273 485.013 159.329C484.534 159.385 484.074 159.545 483.664 159.798C480.957 161.683 480.664 169.02 481.141 174.261C484.996 171.945 491.396 167.369 491.364 163.767C491.361 162.477 490.455 161.355 488.58 160.349C487.897 159.969 487.171 159.673 486.418 159.468L486.434 159.472Z" fill="#181818"/>
<path d="M464.375 177.857C462.132 177.297 460.193 176.344 459.105 174.784C457.74 172.83 457.875 170.303 459.501 167.276C460.964 164.56 462.851 163.186 465.105 163.185C471.498 163.191 478.001 174.938 478.715 176.32L479.552 177.894L477.784 178.136C476.713 178.287 469.703 179.185 464.375 177.857ZM465.953 165.778C465.682 165.71 465.404 165.675 465.125 165.674C463.827 165.675 462.713 166.584 461.707 168.458C460.561 170.588 460.372 172.24 461.158 173.366C463.042 176.081 470.38 176.367 475.621 175.889C473.462 172.329 469.4 166.638 465.953 165.778Z" fill="#181818"/>
<path d="M455.671 194.344L500.867 205.523L494.9 229.645C494.722 230.368 494.263 230.99 493.625 231.375C492.988 231.759 492.223 231.875 491.501 231.696L451.772 221.869C451.049 221.69 450.427 221.232 450.042 220.594C449.657 219.957 449.542 219.192 449.72 218.469L455.687 194.347L455.671 194.344Z" fill="white"/>
<rect x="481.985" y="201.723" width="26.5291" height="7" transform="rotate(104.782 481.985 201.723)" fill="#181818"/>
<path d="M451.256 223.03C450.74 222.903 450.254 222.675 449.827 222.359C449.399 222.044 449.038 221.647 448.763 221.191C448.489 220.736 448.307 220.231 448.229 219.706C448.15 219.18 448.175 218.644 448.304 218.128L454.571 192.792L502.179 204.571L495.912 229.907C495.652 230.949 494.99 231.845 494.071 232.4C493.152 232.955 492.05 233.123 491.008 232.867L451.264 223.032L451.256 223.03ZM456.389 195.807L450.677 218.711C450.627 218.912 450.617 219.12 450.648 219.324C450.679 219.528 450.749 219.723 450.856 219.9C450.963 220.076 451.103 220.23 451.27 220.352C451.436 220.474 451.625 220.562 451.825 220.611L491.561 230.444C491.761 230.494 491.969 230.504 492.173 230.473C492.377 230.442 492.573 230.372 492.749 230.265C492.926 230.158 493.08 230.018 493.202 229.851C493.324 229.685 493.412 229.496 493.461 229.296L499.133 206.381L456.389 195.807Z" fill="#181818"/>
<path d="M504.098 177.394L455.942 189.201L454.844 184.72C454.666 183.997 454.784 183.233 455.17 182.596C455.556 181.959 456.179 181.502 456.902 181.325L499.595 170.857C500.318 170.679 501.083 170.797 501.719 171.183C502.356 171.569 502.814 172.192 502.991 172.915L504.09 177.396L504.098 177.394Z" fill="white"/>
<rect x="482.138" y="175.897" width="6.44567" height="7" transform="rotate(76.6359 482.138 175.897)" fill="#181818"/>
<path d="M455.024 190.703L453.635 185.012C453.376 183.972 453.539 182.872 454.089 181.952C454.638 181.032 455.529 180.367 456.567 180.101L499.297 169.646C499.812 169.516 500.347 169.488 500.873 169.565C501.399 169.642 501.904 169.822 502.36 170.094C502.816 170.366 503.214 170.726 503.531 171.152C503.848 171.579 504.078 172.063 504.208 172.578L505.599 178.261L455.024 190.703ZM500.65 172.058C500.403 171.998 500.145 171.998 499.899 172.058L457.167 182.521C456.763 182.62 456.414 182.875 456.197 183.231C455.981 183.586 455.914 184.013 456.011 184.418L456.819 187.684L502.619 176.485L501.822 173.212C501.729 172.802 501.477 172.445 501.122 172.218C500.969 172.151 500.806 172.111 500.64 172.098L500.65 172.058Z" fill="#181818"/>
<path d="M508.805 183.858C508.638 184.047 508.492 184.19 508.377 184.34C507.695 185.217 506.889 185.99 505.986 186.638C505.13 187.276 504.184 187.782 503.179 188.14C502.452 188.386 501.7 188.557 500.967 188.758C500.847 188.796 500.71 188.762 500.59 188.8C500.542 188.812 500.497 188.833 500.459 188.864C500.42 188.894 500.389 188.932 500.367 188.975C500.353 189.032 500.423 189.16 500.489 189.202C502.202 190.417 503.559 192.066 504.419 193.981C504.862 194.971 505.176 196.013 505.353 197.082C505.373 197.173 505.412 197.259 505.452 197.406C505.609 197.244 505.758 197.072 505.896 196.893C506.591 196 507.417 195.216 508.345 194.568C509.167 193.96 510.076 193.479 511.04 193.14C511.785 192.89 512.559 192.665 513.3 192.5C513.437 192.465 513.575 192.491 513.704 192.455C513.747 192.444 513.786 192.424 513.82 192.395C513.854 192.367 513.881 192.331 513.898 192.29C513.9 192.249 513.892 192.209 513.874 192.172C513.857 192.135 513.83 192.102 513.798 192.077C512.716 191.332 511.775 190.401 511.018 189.327C510.283 188.335 509.723 187.225 509.361 186.045C509.178 185.411 509.031 184.768 508.882 184.133C508.874 184.063 508.849 183.988 508.805 183.858Z" fill="#181818"/>
<path d="M486.899 197.312C486.864 197.233 486.836 197.152 486.815 197.069C486.734 196.195 486.641 195.369 486.594 194.53C486.564 194.275 486.542 194.021 486.53 193.762C486.529 193.655 486.504 193.55 486.457 193.454C486.41 193.358 486.342 193.274 486.258 193.208L485.287 192.548L484.182 191.777L483.509 191.327C483.449 191.262 483.398 191.189 483.358 191.11C483.436 191.07 483.513 191.004 483.591 190.998L484.955 190.834L486.194 190.691L486.887 190.616C486.98 190.606 487.069 190.574 487.148 190.524C487.227 190.475 487.294 190.408 487.343 190.329L487.996 189.356C488.341 188.827 488.694 188.301 489.047 187.774C489.073 187.67 489.158 187.571 489.234 187.471C489.31 187.37 489.362 187.366 489.419 187.38C489.475 187.394 489.521 187.483 489.521 187.551C489.61 188.427 489.703 189.253 489.788 190.11L489.859 190.888C489.855 190.995 489.879 191.101 489.928 191.196C489.978 191.29 490.052 191.37 490.142 191.428L491.601 192.423L492.648 193.154C492.735 193.218 492.843 193.263 492.92 193.333C492.996 193.403 493.034 193.455 493.02 193.511C493.003 193.541 492.979 193.567 492.951 193.586C492.922 193.606 492.89 193.619 492.856 193.624C491.823 193.759 490.805 193.872 489.784 193.993L489.645 194.002C489.495 193.994 489.346 194.031 489.218 194.108C489.089 194.186 488.986 194.3 488.923 194.436C488.698 194.824 488.433 195.167 488.192 195.551C487.951 195.935 487.722 196.237 487.497 196.59C487.363 196.787 487.245 196.988 487.11 197.185C487.066 197.225 487 197.252 486.899 197.312Z" fill="#181818"/>
</svg>
