<svg width="540" height="296" viewBox="0 0 540 296" fill="none" xmlns="http://www.w3.org/2000/svg">
<g clip-path="url(#clip0)">
<path d="M5 5H241V46H5V5Z" fill="#F5F7F8"/>
<path d="M13.8906 30V21.4102H15.5781L19.0938 27.1465V21.4102H20.7051V30H18.9648L15.502 24.3984V30H13.8906ZM23.7637 25.6758L22.2695 25.4062C22.4375 24.8047 22.7266 24.3594 23.1367 24.0703C23.5469 23.7812 24.1562 23.6367 24.9648 23.6367C25.6992 23.6367 26.2461 23.7246 26.6055 23.9004C26.9648 24.0723 27.2168 24.293 27.3613 24.5625C27.5098 24.8281 27.584 25.3184 27.584 26.0332L27.5664 27.9551C27.5664 28.502 27.5918 28.9062 27.6426 29.168C27.6973 29.4258 27.7969 29.7031 27.9414 30H26.3125C26.2695 29.8906 26.2168 29.7285 26.1543 29.5137C26.127 29.416 26.1074 29.3516 26.0957 29.3203C25.8145 29.5938 25.5137 29.7988 25.1934 29.9355C24.873 30.0723 24.5312 30.1406 24.168 30.1406C23.5273 30.1406 23.0215 29.9668 22.6504 29.6191C22.2832 29.2715 22.0996 28.832 22.0996 28.3008C22.0996 27.9492 22.1836 27.6367 22.3516 27.3633C22.5195 27.0859 22.7539 26.875 23.0547 26.7305C23.3594 26.582 23.7969 26.4531 24.3672 26.3438C25.1367 26.1992 25.6699 26.0645 25.9668 25.9395V25.7754C25.9668 25.459 25.8887 25.2344 25.7324 25.1016C25.5762 24.9648 25.2812 24.8965 24.8477 24.8965C24.5547 24.8965 24.3262 24.9551 24.1621 25.0723C23.998 25.1855 23.8652 25.3867 23.7637 25.6758ZM25.9668 27.0117C25.7559 27.082 25.4219 27.166 24.9648 27.2637C24.5078 27.3613 24.209 27.457 24.0684 27.5508C23.8535 27.7031 23.7461 27.8965 23.7461 28.1309C23.7461 28.3613 23.832 28.5605 24.0039 28.7285C24.1758 28.8965 24.3945 28.9805 24.6602 28.9805C24.957 28.9805 25.2402 28.8828 25.5098 28.6875C25.709 28.5391 25.8398 28.3574 25.9023 28.1426C25.9453 28.002 25.9668 27.7344 25.9668 27.3398V27.0117ZM29.0898 23.7773H30.6074V24.627C31.1504 23.9668 31.7969 23.6367 32.5469 23.6367C32.9453 23.6367 33.291 23.7188 33.584 23.8828C33.877 24.0469 34.1172 24.2949 34.3047 24.627C34.5781 24.2949 34.873 24.0469 35.1895 23.8828C35.5059 23.7188 35.8438 23.6367 36.2031 23.6367C36.6602 23.6367 37.0469 23.7305 37.3633 23.918C37.6797 24.1016 37.916 24.373 38.0723 24.7324C38.1855 24.998 38.2422 25.4277 38.2422 26.0215V30H36.5957V26.4434C36.5957 25.8262 36.5391 25.4277 36.4258 25.248C36.2734 25.0137 36.0391 24.8965 35.7227 24.8965C35.4922 24.8965 35.2754 24.9668 35.0723 25.1074C34.8691 25.248 34.7227 25.4551 34.6328 25.7285C34.543 25.998 34.498 26.4258 34.498 27.0117V30H32.8516V26.5898C32.8516 25.9844 32.8223 25.5938 32.7637 25.418C32.7051 25.2422 32.6133 25.1113 32.4883 25.0254C32.3672 24.9395 32.2012 24.8965 31.9902 24.8965C31.7363 24.8965 31.5078 24.9648 31.3047 25.1016C31.1016 25.2383 30.9551 25.4355 30.8652 25.6934C30.7793 25.9512 30.7363 26.3789 30.7363 26.9766V30H29.0898V23.7773ZM43.4922 28.0195L45.1328 28.2949C44.9219 28.8965 44.5879 29.3555 44.1309 29.6719C43.6777 29.9844 43.1094 30.1406 42.4258 30.1406C41.3438 30.1406 40.543 29.7871 40.0234 29.0801C39.6133 28.5137 39.4082 27.7988 39.4082 26.9355C39.4082 25.9043 39.6777 25.0977 40.2168 24.5156C40.7559 23.9297 41.4375 23.6367 42.2617 23.6367C43.1875 23.6367 43.918 23.9434 44.4531 24.5566C44.9883 25.166 45.2441 26.1016 45.2207 27.3633H41.0957C41.1074 27.8516 41.2402 28.2324 41.4941 28.5059C41.748 28.7754 42.0645 28.9102 42.4434 28.9102C42.7012 28.9102 42.918 28.8398 43.0938 28.6992C43.2695 28.5586 43.4023 28.332 43.4922 28.0195ZM43.5859 26.3555C43.5742 25.8789 43.4512 25.5176 43.2168 25.2715C42.9824 25.0215 42.6973 24.8965 42.3613 24.8965C42.002 24.8965 41.7051 25.0273 41.4707 25.2891C41.2363 25.5508 41.1211 25.9062 41.125 26.3555H43.5859Z" fill="#066CD2"/>
<path d="M58 27.75H51L54.5 24.25L58 27.75Z" fill="#086DD2"/>
<rect x="240" y="5" width="1" height="41" fill="#DADDE1"/>
<rect x="-53" y="45" width="294" height="1" fill="#DADDE1"/>
</g>
<g clip-path="url(#clip1)">
<path d="M241 5H388V46H241V5Z" fill="#F5F7F8"/>
<g clip-path="url(#clip2)">
<path d="M255.369 26.8418L257.051 27.375C256.793 28.3125 256.363 29.0098 255.762 29.4668C255.164 29.9199 254.404 30.1465 253.482 30.1465C252.342 30.1465 251.404 29.7578 250.67 28.9805C249.936 28.1992 249.568 27.1328 249.568 25.7812C249.568 24.3516 249.938 23.2422 250.676 22.4531C251.414 21.6602 252.385 21.2637 253.588 21.2637C254.639 21.2637 255.492 21.5742 256.148 22.1953C256.539 22.5625 256.832 23.0898 257.027 23.7773L255.311 24.1875C255.209 23.7422 254.996 23.3906 254.672 23.1328C254.352 22.875 253.961 22.7461 253.5 22.7461C252.863 22.7461 252.346 22.9746 251.947 23.4316C251.553 23.8887 251.355 24.6289 251.355 25.6523C251.355 26.7383 251.551 27.5117 251.941 27.9727C252.332 28.4336 252.84 28.6641 253.465 28.6641C253.926 28.6641 254.322 28.5176 254.654 28.2246C254.986 27.9316 255.225 27.4707 255.369 26.8418ZM258.152 26.8008C258.152 26.2539 258.287 25.7246 258.557 25.2129C258.826 24.7012 259.207 24.3105 259.699 24.041C260.195 23.7715 260.748 23.6367 261.357 23.6367C262.299 23.6367 263.07 23.9434 263.672 24.5566C264.273 25.166 264.574 25.9375 264.574 26.8711C264.574 27.8125 264.27 28.5938 263.66 29.2148C263.055 29.832 262.291 30.1406 261.369 30.1406C260.799 30.1406 260.254 30.0117 259.734 29.7539C259.219 29.4961 258.826 29.1191 258.557 28.623C258.287 28.123 258.152 27.5156 258.152 26.8008ZM259.84 26.8887C259.84 27.5059 259.986 27.9785 260.279 28.3066C260.572 28.6348 260.934 28.7988 261.363 28.7988C261.793 28.7988 262.152 28.6348 262.441 28.3066C262.734 27.9785 262.881 27.502 262.881 26.877C262.881 26.2676 262.734 25.7988 262.441 25.4707C262.152 25.1426 261.793 24.9785 261.363 24.9785C260.934 24.9785 260.572 25.1426 260.279 25.4707C259.986 25.7988 259.84 26.2715 259.84 26.8887ZM269.965 30V29.0684C269.738 29.4004 269.439 29.6621 269.068 29.8535C268.701 30.0449 268.312 30.1406 267.902 30.1406C267.484 30.1406 267.109 30.0488 266.777 29.8652C266.445 29.6816 266.205 29.4238 266.057 29.0918C265.908 28.7598 265.834 28.3008 265.834 27.7148V23.7773H267.48V26.6367C267.48 27.5117 267.51 28.0488 267.568 28.248C267.631 28.4434 267.742 28.5996 267.902 28.7168C268.062 28.8301 268.266 28.8867 268.512 28.8867C268.793 28.8867 269.045 28.8105 269.268 28.6582C269.49 28.502 269.643 28.3105 269.725 28.084C269.807 27.8535 269.848 27.293 269.848 26.4023V23.7773H271.494V30H269.965ZM278.865 30H277.219V26.8242C277.219 26.1523 277.184 25.7188 277.113 25.5234C277.043 25.3242 276.928 25.1699 276.768 25.0605C276.611 24.9512 276.422 24.8965 276.199 24.8965C275.914 24.8965 275.658 24.9746 275.432 25.1309C275.205 25.2871 275.049 25.4941 274.963 25.752C274.881 26.0098 274.84 26.4863 274.84 27.1816V30H273.193V23.7773H274.723V24.6914C275.266 23.9883 275.949 23.6367 276.773 23.6367C277.137 23.6367 277.469 23.7031 277.77 23.8359C278.07 23.9648 278.297 24.1309 278.449 24.334C278.605 24.5371 278.713 24.7676 278.771 25.0254C278.834 25.2832 278.865 25.6523 278.865 26.1328V30ZM283.395 23.7773V25.0898H282.27V27.5977C282.27 28.1055 282.279 28.4023 282.299 28.4883C282.322 28.5703 282.371 28.6387 282.445 28.6934C282.523 28.748 282.617 28.7754 282.727 28.7754C282.879 28.7754 283.1 28.7227 283.389 28.6172L283.529 29.8945C283.146 30.0586 282.713 30.1406 282.229 30.1406C281.932 30.1406 281.664 30.0918 281.426 29.9941C281.188 29.8926 281.012 29.7637 280.898 29.6074C280.789 29.4473 280.713 29.2324 280.67 28.9629C280.635 28.7715 280.617 28.3848 280.617 27.8027V25.0898H279.861V23.7773H280.617V22.541L282.27 21.5801V23.7773H283.395Z" fill="#4B4F56"/>
</g>
<rect x="387" y="5" width="1" height="41" fill="#DADDE1"/>
<rect x="94" y="45" width="294" height="1" fill="#DADDE1"/>
</g>
<g clip-path="url(#clip3)">
<path d="M388 5H535V46H388V5Z" fill="#F5F7F8"/>
<path d="M396.85 30V21.4102H399.445L401.004 27.2695L402.545 21.4102H405.146V30H403.535V23.2383L401.83 30H400.16L398.461 23.2383V30H396.85ZM406.477 26.8008C406.477 26.2539 406.611 25.7246 406.881 25.2129C407.15 24.7012 407.531 24.3105 408.023 24.041C408.52 23.7715 409.072 23.6367 409.682 23.6367C410.623 23.6367 411.395 23.9434 411.996 24.5566C412.598 25.166 412.898 25.9375 412.898 26.8711C412.898 27.8125 412.594 28.5938 411.984 29.2148C411.379 29.832 410.615 30.1406 409.693 30.1406C409.123 30.1406 408.578 30.0117 408.059 29.7539C407.543 29.4961 407.15 29.1191 406.881 28.623C406.611 28.123 406.477 27.5156 406.477 26.8008ZM408.164 26.8887C408.164 27.5059 408.311 27.9785 408.604 28.3066C408.896 28.6348 409.258 28.7988 409.688 28.7988C410.117 28.7988 410.477 28.6348 410.766 28.3066C411.059 27.9785 411.205 27.502 411.205 26.877C411.205 26.2676 411.059 25.7988 410.766 25.4707C410.477 25.1426 410.117 24.9785 409.688 24.9785C409.258 24.9785 408.896 25.1426 408.604 25.4707C408.311 25.7988 408.164 26.2715 408.164 26.8887ZM419.854 30H418.207V26.8242C418.207 26.1523 418.172 25.7188 418.102 25.5234C418.031 25.3242 417.916 25.1699 417.756 25.0605C417.6 24.9512 417.41 24.8965 417.188 24.8965C416.902 24.8965 416.646 24.9746 416.42 25.1309C416.193 25.2871 416.037 25.4941 415.951 25.752C415.869 26.0098 415.828 26.4863 415.828 27.1816V30H414.182V23.7773H415.711V24.6914C416.254 23.9883 416.938 23.6367 417.762 23.6367C418.125 23.6367 418.457 23.7031 418.758 23.8359C419.059 23.9648 419.285 24.1309 419.438 24.334C419.594 24.5371 419.701 24.7676 419.76 25.0254C419.822 25.2832 419.854 25.6523 419.854 26.1328V30ZM424.383 23.7773V25.0898H423.258V27.5977C423.258 28.1055 423.268 28.4023 423.287 28.4883C423.311 28.5703 423.359 28.6387 423.434 28.6934C423.512 28.748 423.605 28.7754 423.715 28.7754C423.867 28.7754 424.088 28.7227 424.377 28.6172L424.518 29.8945C424.135 30.0586 423.701 30.1406 423.217 30.1406C422.92 30.1406 422.652 30.0918 422.414 29.9941C422.176 29.8926 422 29.7637 421.887 29.6074C421.777 29.4473 421.701 29.2324 421.658 28.9629C421.623 28.7715 421.605 28.3848 421.605 27.8027V25.0898H420.85V23.7773H421.605V22.541L423.258 21.5801V23.7773H424.383ZM427.166 21.4102V24.5684C427.697 23.9473 428.332 23.6367 429.07 23.6367C429.449 23.6367 429.791 23.707 430.096 23.8477C430.4 23.9883 430.629 24.168 430.781 24.3867C430.938 24.6055 431.043 24.8477 431.098 25.1133C431.156 25.3789 431.186 25.791 431.186 26.3496V30H429.539V26.7129C429.539 26.0605 429.508 25.6465 429.445 25.4707C429.383 25.2949 429.271 25.1562 429.111 25.0547C428.955 24.9492 428.758 24.8965 428.52 24.8965C428.246 24.8965 428.002 24.9629 427.787 25.0957C427.572 25.2285 427.414 25.4297 427.312 25.6992C427.215 25.9648 427.166 26.3594 427.166 26.8828V30H425.52V21.4102H427.166ZM435.322 30.1465L437.449 21.2637H438.686L436.535 30.1465H435.322ZM442.869 30V21.4102H445.465L447.023 27.2695L448.564 21.4102H451.166V30H449.555V23.2383L447.85 30H446.18L444.48 23.2383V30H442.869ZM452.496 26.8008C452.496 26.2539 452.631 25.7246 452.9 25.2129C453.17 24.7012 453.551 24.3105 454.043 24.041C454.539 23.7715 455.092 23.6367 455.701 23.6367C456.643 23.6367 457.414 23.9434 458.016 24.5566C458.617 25.166 458.918 25.9375 458.918 26.8711C458.918 27.8125 458.613 28.5938 458.004 29.2148C457.398 29.832 456.635 30.1406 455.713 30.1406C455.143 30.1406 454.598 30.0117 454.078 29.7539C453.562 29.4961 453.17 29.1191 452.9 28.623C452.631 28.123 452.496 27.5156 452.496 26.8008ZM454.184 26.8887C454.184 27.5059 454.33 27.9785 454.623 28.3066C454.916 28.6348 455.277 28.7988 455.707 28.7988C456.137 28.7988 456.496 28.6348 456.785 28.3066C457.078 27.9785 457.225 27.502 457.225 26.877C457.225 26.2676 457.078 25.7988 456.785 25.4707C456.496 25.1426 456.137 24.9785 455.707 24.9785C455.277 24.9785 454.916 25.1426 454.623 25.4707C454.33 25.7988 454.184 26.2715 454.184 26.8887ZM465.873 30H464.227V26.8242C464.227 26.1523 464.191 25.7188 464.121 25.5234C464.051 25.3242 463.936 25.1699 463.775 25.0605C463.619 24.9512 463.43 24.8965 463.207 24.8965C462.922 24.8965 462.666 24.9746 462.439 25.1309C462.213 25.2871 462.057 25.4941 461.971 25.752C461.889 26.0098 461.848 26.4863 461.848 27.1816V30H460.201V23.7773H461.73V24.6914C462.273 23.9883 462.957 23.6367 463.781 23.6367C464.145 23.6367 464.477 23.7031 464.777 23.8359C465.078 23.9648 465.305 24.1309 465.457 24.334C465.613 24.5371 465.721 24.7676 465.779 25.0254C465.842 25.2832 465.873 25.6523 465.873 26.1328V30ZM470.402 23.7773V25.0898H469.277V27.5977C469.277 28.1055 469.287 28.4023 469.307 28.4883C469.33 28.5703 469.379 28.6387 469.453 28.6934C469.531 28.748 469.625 28.7754 469.734 28.7754C469.887 28.7754 470.107 28.7227 470.396 28.6172L470.537 29.8945C470.154 30.0586 469.721 30.1406 469.236 30.1406C468.939 30.1406 468.672 30.0918 468.434 29.9941C468.195 29.8926 468.02 29.7637 467.906 29.6074C467.797 29.4473 467.721 29.2324 467.678 28.9629C467.643 28.7715 467.625 28.3848 467.625 27.8027V25.0898H466.869V23.7773H467.625V22.541L469.277 21.5801V23.7773H470.402ZM473.186 21.4102V24.5684C473.717 23.9473 474.352 23.6367 475.09 23.6367C475.469 23.6367 475.811 23.707 476.115 23.8477C476.42 23.9883 476.648 24.168 476.801 24.3867C476.957 24.6055 477.062 24.8477 477.117 25.1133C477.176 25.3789 477.205 25.791 477.205 26.3496V30H475.559V26.7129C475.559 26.0605 475.527 25.6465 475.465 25.4707C475.402 25.2949 475.291 25.1562 475.131 25.0547C474.975 24.9492 474.777 24.8965 474.539 24.8965C474.266 24.8965 474.021 24.9629 473.807 25.0957C473.592 25.2285 473.434 25.4297 473.332 25.6992C473.234 25.9648 473.186 26.3594 473.186 26.8828V30H471.539V21.4102H473.186Z" fill="#4B4F56"/>
<rect x="534" y="5" width="1" height="41" fill="#DADDE1"/>
<rect x="241" y="45" width="294" height="1" fill="#DADDE1"/>
</g>
<path d="M5 46H241V94H5V46Z" fill="white"/>
<path d="M16.6299 66V57.1611H13.3281V55.9785H21.2715V57.1611H17.9561V66H16.6299ZM21.9482 66V58.7402H23.0557V59.8408C23.3382 59.3258 23.598 58.9863 23.835 58.8223C24.0765 58.6582 24.3408 58.5762 24.6279 58.5762C25.0426 58.5762 25.4642 58.7083 25.8926 58.9727L25.4688 60.1143C25.168 59.9365 24.8672 59.8477 24.5664 59.8477C24.2975 59.8477 24.056 59.9297 23.8418 60.0938C23.6276 60.2533 23.4749 60.4766 23.3838 60.7637C23.2471 61.2012 23.1787 61.6797 23.1787 62.1992V66H21.9482ZM26.6309 57.3936V55.9785H27.8613V57.3936H26.6309ZM26.6309 66V58.7402H27.8613V66H26.6309ZM34.4785 65.1045C34.0228 65.4919 33.583 65.7653 33.1592 65.9248C32.7399 66.0843 32.2887 66.1641 31.8057 66.1641C31.0081 66.1641 30.3952 65.9704 29.9668 65.583C29.5384 65.1911 29.3242 64.6921 29.3242 64.0859C29.3242 63.7305 29.404 63.4069 29.5635 63.1152C29.7275 62.819 29.9395 62.582 30.1992 62.4043C30.4635 62.2266 30.7598 62.0921 31.0879 62.001C31.3294 61.9372 31.694 61.8757 32.1816 61.8164C33.1751 61.6979 33.9066 61.5566 34.376 61.3926C34.3805 61.224 34.3828 61.1169 34.3828 61.0713C34.3828 60.57 34.2666 60.2168 34.0342 60.0117C33.7197 59.7337 33.2526 59.5947 32.6328 59.5947C32.054 59.5947 31.6257 59.6973 31.3477 59.9023C31.0742 60.1029 30.8714 60.4606 30.7393 60.9756L29.5361 60.8115C29.6455 60.2965 29.8255 59.8818 30.0762 59.5674C30.3268 59.2484 30.6891 59.0046 31.1631 58.8359C31.637 58.6628 32.1862 58.5762 32.8105 58.5762C33.4303 58.5762 33.9339 58.6491 34.3213 58.7949C34.7087 58.9408 34.9935 59.1253 35.1758 59.3486C35.3581 59.5674 35.4857 59.8454 35.5586 60.1826C35.5996 60.3923 35.6201 60.7705 35.6201 61.3174V62.958C35.6201 64.1019 35.6452 64.8265 35.6953 65.1318C35.75 65.4326 35.8548 65.722 36.0098 66H34.7246C34.597 65.7448 34.515 65.4463 34.4785 65.1045ZM34.376 62.3564C33.9294 62.5387 33.2594 62.6937 32.3662 62.8213C31.8604 62.8942 31.5026 62.9762 31.293 63.0674C31.0833 63.1585 30.9215 63.293 30.8076 63.4707C30.6937 63.6439 30.6367 63.8376 30.6367 64.0518C30.6367 64.3799 30.7598 64.6533 31.0059 64.8721C31.2565 65.0908 31.6211 65.2002 32.0996 65.2002C32.5736 65.2002 32.9951 65.0977 33.3643 64.8926C33.7334 64.6829 34.0046 64.3981 34.1777 64.0381C34.3099 63.7601 34.376 63.3499 34.376 62.8076V62.3564ZM37.5068 66V55.9785H38.7373V66H37.5068ZM44.2539 62.7803L45.5049 62.6709C45.5641 63.1722 45.7008 63.5846 45.915 63.9082C46.1338 64.2272 46.471 64.487 46.9268 64.6875C47.3825 64.8835 47.8952 64.9814 48.4648 64.9814C48.9707 64.9814 49.4173 64.9062 49.8047 64.7559C50.1921 64.6055 50.4792 64.4004 50.666 64.1406C50.8574 63.8763 50.9531 63.5892 50.9531 63.2793C50.9531 62.9648 50.862 62.6914 50.6797 62.459C50.4974 62.222 50.1966 62.0238 49.7773 61.8643C49.5085 61.7594 48.9137 61.5977 47.9932 61.3789C47.0726 61.1556 46.4277 60.946 46.0586 60.75C45.5801 60.4993 45.2223 60.1895 44.9854 59.8203C44.7529 59.4466 44.6367 59.0296 44.6367 58.5693C44.6367 58.0635 44.7803 57.5918 45.0674 57.1543C45.3545 56.7122 45.7738 56.3773 46.3252 56.1494C46.8766 55.9215 47.4896 55.8076 48.1641 55.8076C48.9069 55.8076 49.5609 55.9284 50.126 56.1699C50.6956 56.4069 51.1331 56.7578 51.4385 57.2227C51.7438 57.6875 51.9079 58.2139 51.9307 58.8018L50.6592 58.8975C50.5908 58.264 50.3584 57.7855 49.9619 57.4619C49.57 57.1383 48.9889 56.9766 48.2188 56.9766C47.4167 56.9766 46.8311 57.1247 46.4619 57.4209C46.0973 57.7126 45.915 58.0658 45.915 58.4805C45.915 58.8405 46.0449 59.1367 46.3047 59.3691C46.5599 59.6016 47.2253 59.8408 48.3008 60.0869C49.3809 60.3285 50.1214 60.5404 50.5225 60.7227C51.1058 60.9915 51.5365 61.3333 51.8145 61.748C52.0924 62.1582 52.2314 62.6322 52.2314 63.1699C52.2314 63.7031 52.0788 64.2067 51.7734 64.6807C51.4681 65.1501 51.0283 65.5169 50.4541 65.7812C49.8844 66.041 49.2419 66.1709 48.5264 66.1709C47.6195 66.1709 46.8584 66.0387 46.2432 65.7744C45.6325 65.5101 45.1517 65.1136 44.8008 64.585C44.4544 64.0518 44.2721 63.4502 44.2539 62.7803ZM56.5723 64.8994L56.75 65.9863C56.4036 66.0592 56.0938 66.0957 55.8203 66.0957C55.3737 66.0957 55.0273 66.0251 54.7812 65.8838C54.5352 65.7425 54.362 65.5579 54.2617 65.3301C54.1615 65.0977 54.1113 64.6123 54.1113 63.874V59.6973H53.209V58.7402H54.1113V56.9424L55.335 56.2041V58.7402H56.5723V59.6973H55.335V63.9424C55.335 64.2933 55.3555 64.5189 55.3965 64.6191C55.4421 64.7194 55.5127 64.7992 55.6084 64.8584C55.7087 64.9176 55.8499 64.9473 56.0322 64.9473C56.1689 64.9473 56.349 64.9313 56.5723 64.8994ZM62.5195 65.1045C62.0638 65.4919 61.624 65.7653 61.2002 65.9248C60.7809 66.0843 60.3298 66.1641 59.8467 66.1641C59.0492 66.1641 58.4362 65.9704 58.0078 65.583C57.5794 65.1911 57.3652 64.6921 57.3652 64.0859C57.3652 63.7305 57.445 63.4069 57.6045 63.1152C57.7686 62.819 57.9805 62.582 58.2402 62.4043C58.5046 62.2266 58.8008 62.0921 59.1289 62.001C59.3704 61.9372 59.735 61.8757 60.2227 61.8164C61.2161 61.6979 61.9476 61.5566 62.417 61.3926C62.4215 61.224 62.4238 61.1169 62.4238 61.0713C62.4238 60.57 62.3076 60.2168 62.0752 60.0117C61.7607 59.7337 61.2936 59.5947 60.6738 59.5947C60.0951 59.5947 59.6667 59.6973 59.3887 59.9023C59.1152 60.1029 58.9124 60.4606 58.7803 60.9756L57.5771 60.8115C57.6865 60.2965 57.8665 59.8818 58.1172 59.5674C58.3678 59.2484 58.7301 59.0046 59.2041 58.8359C59.6781 58.6628 60.2272 58.5762 60.8516 58.5762C61.4714 58.5762 61.9749 58.6491 62.3623 58.7949C62.7497 58.9408 63.0345 59.1253 63.2168 59.3486C63.3991 59.5674 63.5267 59.8454 63.5996 60.1826C63.6406 60.3923 63.6611 60.7705 63.6611 61.3174V62.958C63.6611 64.1019 63.6862 64.8265 63.7363 65.1318C63.791 65.4326 63.8958 65.722 64.0508 66H62.7656C62.638 65.7448 62.556 65.4463 62.5195 65.1045ZM62.417 62.3564C61.9704 62.5387 61.3005 62.6937 60.4072 62.8213C59.9014 62.8942 59.5436 62.9762 59.334 63.0674C59.1243 63.1585 58.9626 63.293 58.8486 63.4707C58.7347 63.6439 58.6777 63.8376 58.6777 64.0518C58.6777 64.3799 58.8008 64.6533 59.0469 64.8721C59.2975 65.0908 59.6621 65.2002 60.1406 65.2002C60.6146 65.2002 61.0361 65.0977 61.4053 64.8926C61.7744 64.6829 62.0456 64.3981 62.2188 64.0381C62.3509 63.7601 62.417 63.3499 62.417 62.8076V62.3564ZM65.5615 66V58.7402H66.6689V59.8408C66.9515 59.3258 67.2113 58.9863 67.4482 58.8223C67.6898 58.6582 67.9541 58.5762 68.2412 58.5762C68.6559 58.5762 69.0775 58.7083 69.5059 58.9727L69.082 60.1143C68.7812 59.9365 68.4805 59.8477 68.1797 59.8477C67.9108 59.8477 67.6693 59.9297 67.4551 60.0938C67.2409 60.2533 67.0882 60.4766 66.9971 60.7637C66.8604 61.2012 66.792 61.6797 66.792 62.1992V66H65.5615ZM72.9238 64.8994L73.1016 65.9863C72.7552 66.0592 72.4453 66.0957 72.1719 66.0957C71.7253 66.0957 71.3789 66.0251 71.1328 65.8838C70.8867 65.7425 70.7135 65.5579 70.6133 65.3301C70.513 65.0977 70.4629 64.6123 70.4629 63.874V59.6973H69.5605V58.7402H70.4629V56.9424L71.6865 56.2041V58.7402H72.9238V59.6973H71.6865V63.9424C71.6865 64.2933 71.707 64.5189 71.748 64.6191C71.7936 64.7194 71.8643 64.7992 71.96 64.8584C72.0602 64.9176 72.2015 64.9473 72.3838 64.9473C72.5205 64.9473 72.7005 64.9313 72.9238 64.8994ZM79.1035 63.6621L80.375 63.8193C80.1745 64.5622 79.8031 65.1387 79.2607 65.5488C78.7184 65.959 78.0257 66.1641 77.1826 66.1641C76.1208 66.1641 75.2777 65.8382 74.6533 65.1865C74.0335 64.5303 73.7236 63.612 73.7236 62.4316C73.7236 61.2103 74.0381 60.2624 74.667 59.5879C75.2959 58.9134 76.1117 58.5762 77.1143 58.5762C78.085 58.5762 78.8779 58.9066 79.4932 59.5674C80.1084 60.2282 80.416 61.1579 80.416 62.3564C80.416 62.4294 80.4137 62.5387 80.4092 62.6846H74.9951C75.0407 63.4821 75.2663 64.0928 75.6719 64.5166C76.0775 64.9404 76.5833 65.1523 77.1895 65.1523C77.6406 65.1523 78.0257 65.0339 78.3447 64.7969C78.6637 64.5599 78.9167 64.1816 79.1035 63.6621ZM75.0635 61.6729H79.1172C79.0625 61.0622 78.9076 60.6042 78.6523 60.2988C78.2604 59.8249 77.7523 59.5879 77.1279 59.5879C76.5628 59.5879 76.0866 59.777 75.6992 60.1553C75.3164 60.5335 75.1045 61.0394 75.0635 61.6729ZM86.6367 66V65.084C86.1764 65.804 85.4997 66.1641 84.6064 66.1641C84.0277 66.1641 83.4945 66.0046 83.0068 65.6855C82.5238 65.3665 82.1478 64.9222 81.8789 64.3525C81.6146 63.7783 81.4824 63.1198 81.4824 62.377C81.4824 61.6523 81.6032 60.9961 81.8447 60.4082C82.0863 59.8158 82.4486 59.3623 82.9316 59.0479C83.4147 58.7334 83.9548 58.5762 84.5518 58.5762C84.9893 58.5762 85.3789 58.6696 85.7207 58.8564C86.0625 59.0387 86.3405 59.278 86.5547 59.5742V55.9785H87.7783V66H86.6367ZM82.7471 62.377C82.7471 63.3066 82.943 64.0016 83.335 64.4619C83.7269 64.9222 84.1895 65.1523 84.7227 65.1523C85.2604 65.1523 85.7161 64.9336 86.0898 64.4961C86.4681 64.054 86.6572 63.3818 86.6572 62.4795C86.6572 61.486 86.4658 60.7568 86.083 60.292C85.7002 59.8271 85.2285 59.5947 84.668 59.5947C84.1211 59.5947 83.6631 59.818 83.2939 60.2646C82.9294 60.7113 82.7471 61.4154 82.7471 62.377Z" fill="#066CD2"/>
<rect x="240" y="46" width="1" height="48" fill="#DADDE1"/>
<path d="M241 46H388V94H241V46Z" fill="white"/>
<path d="M249.663 57.291V56.1084H256.15V57.0654C255.512 57.7445 254.879 58.6468 254.25 59.7725C253.626 60.8981 253.143 62.0557 252.801 63.2451C252.555 64.0837 252.397 65.002 252.329 66H251.064C251.078 65.2116 251.233 64.2591 251.529 63.1426C251.826 62.026 252.249 60.9505 252.801 59.916C253.357 58.877 253.947 58.002 254.571 57.291H249.663ZM258.037 66V64.5986H259.438V66C259.438 66.515 259.347 66.9297 259.165 67.2441C258.983 67.5632 258.693 67.8092 258.297 67.9824L257.955 67.4561C258.215 67.3421 258.406 67.1735 258.529 66.9502C258.652 66.7314 258.721 66.4147 258.734 66H258.037ZM261.271 63.375L262.562 63.2656C262.658 63.8945 262.879 64.3685 263.226 64.6875C263.576 65.002 263.998 65.1592 264.49 65.1592C265.083 65.1592 265.584 64.9359 265.994 64.4893C266.404 64.0426 266.609 63.4502 266.609 62.7119C266.609 62.0101 266.411 61.4564 266.015 61.0508C265.623 60.6452 265.108 60.4424 264.47 60.4424C264.073 60.4424 263.715 60.5335 263.396 60.7158C263.077 60.8936 262.827 61.126 262.645 61.4131L261.489 61.2627L262.46 56.1152H267.443V57.291H263.444L262.904 59.9844C263.506 59.5651 264.137 59.3555 264.798 59.3555C265.673 59.3555 266.411 59.6585 267.013 60.2646C267.614 60.8708 267.915 61.6501 267.915 62.6025C267.915 63.5094 267.651 64.2933 267.122 64.9541C266.479 65.7653 265.602 66.1709 264.49 66.1709C263.579 66.1709 262.834 65.9157 262.255 65.4053C261.681 64.8949 261.353 64.2181 261.271 63.375ZM273.698 66H272.468V58.1592C272.172 58.4417 271.782 58.7243 271.299 59.0068C270.82 59.2894 270.39 59.5013 270.007 59.6426V58.4531C270.695 58.1296 271.297 57.7376 271.812 57.2773C272.326 56.8171 272.691 56.3704 272.905 55.9375H273.698V66ZM276.856 61.0576C276.856 59.8727 276.977 58.9202 277.219 58.2002C277.465 57.4756 277.827 56.9173 278.306 56.5254C278.789 56.1335 279.395 55.9375 280.124 55.9375C280.662 55.9375 281.133 56.0469 281.539 56.2656C281.945 56.4798 282.28 56.792 282.544 57.2021C282.808 57.6077 283.016 58.1045 283.166 58.6924C283.316 59.2757 283.392 60.0641 283.392 61.0576C283.392 62.2334 283.271 63.1836 283.029 63.9082C282.788 64.6283 282.425 65.1865 281.942 65.583C281.464 65.9749 280.858 66.1709 280.124 66.1709C279.158 66.1709 278.399 65.8245 277.848 65.1318C277.187 64.2979 276.856 62.9398 276.856 61.0576ZM278.121 61.0576C278.121 62.7028 278.312 63.7988 278.695 64.3457C279.083 64.888 279.559 65.1592 280.124 65.1592C280.689 65.1592 281.163 64.8857 281.546 64.3389C281.933 63.792 282.127 62.6982 282.127 61.0576C282.127 59.4079 281.933 58.3118 281.546 57.7695C281.163 57.2272 280.685 56.9561 280.11 56.9561C279.545 56.9561 279.094 57.1953 278.757 57.6738C278.333 58.2845 278.121 59.4124 278.121 61.0576Z" fill="#466072"/>
<rect x="387" y="46" width="1" height="48" fill="#DADDE1"/>
<path d="M388 46H535V94H388V46Z" fill="white"/>
<path d="M399.507 64.3799V61.6318H396.779V60.4834H399.507V57.7559H400.669V60.4834H403.396V61.6318H400.669V64.3799H399.507ZM413.288 66H412.058V58.1592C411.761 58.4417 411.372 58.7243 410.889 59.0068C410.41 59.2894 409.979 59.5013 409.597 59.6426V58.4531C410.285 58.1296 410.886 57.7376 411.401 57.2773C411.916 56.8171 412.281 56.3704 412.495 55.9375H413.288V66ZM416.446 61.0576C416.446 59.8727 416.567 58.9202 416.809 58.2002C417.055 57.4756 417.417 56.9173 417.896 56.5254C418.379 56.1335 418.985 55.9375 419.714 55.9375C420.252 55.9375 420.723 56.0469 421.129 56.2656C421.535 56.4798 421.869 56.792 422.134 57.2021C422.398 57.6077 422.605 58.1045 422.756 58.6924C422.906 59.2757 422.981 60.0641 422.981 61.0576C422.981 62.2334 422.861 63.1836 422.619 63.9082C422.378 64.6283 422.015 65.1865 421.532 65.583C421.054 65.9749 420.448 66.1709 419.714 66.1709C418.748 66.1709 417.989 65.8245 417.438 65.1318C416.777 64.2979 416.446 62.9398 416.446 61.0576ZM417.711 61.0576C417.711 62.7028 417.902 63.7988 418.285 64.3457C418.673 64.888 419.149 65.1592 419.714 65.1592C420.279 65.1592 420.753 64.8857 421.136 64.3389C421.523 63.792 421.717 62.6982 421.717 61.0576C421.717 59.4079 421.523 58.3118 421.136 57.7695C420.753 57.2272 420.274 56.9561 419.7 56.9561C419.135 56.9561 418.684 57.1953 418.347 57.6738C417.923 58.2845 417.711 59.4124 417.711 61.0576ZM424.239 61.0576C424.239 59.8727 424.36 58.9202 424.602 58.2002C424.848 57.4756 425.21 56.9173 425.688 56.5254C426.172 56.1335 426.778 55.9375 427.507 55.9375C428.045 55.9375 428.516 56.0469 428.922 56.2656C429.327 56.4798 429.662 56.792 429.927 57.2021C430.191 57.6077 430.398 58.1045 430.549 58.6924C430.699 59.2757 430.774 60.0641 430.774 61.0576C430.774 62.2334 430.654 63.1836 430.412 63.9082C430.171 64.6283 429.808 65.1865 429.325 65.583C428.847 65.9749 428.241 66.1709 427.507 66.1709C426.541 66.1709 425.782 65.8245 425.23 65.1318C424.57 64.2979 424.239 62.9398 424.239 61.0576ZM425.504 61.0576C425.504 62.7028 425.695 63.7988 426.078 64.3457C426.465 64.888 426.942 65.1592 427.507 65.1592C428.072 65.1592 428.546 64.8857 428.929 64.3389C429.316 63.792 429.51 62.6982 429.51 61.0576C429.51 59.4079 429.316 58.3118 428.929 57.7695C428.546 57.2272 428.067 56.9561 427.493 56.9561C426.928 56.9561 426.477 57.1953 426.14 57.6738C425.716 58.2845 425.504 59.4124 425.504 61.0576ZM432.265 58.3848C432.265 57.6693 432.445 57.0609 432.805 56.5596C433.165 56.0583 433.687 55.8076 434.37 55.8076C434.999 55.8076 435.519 56.0332 435.929 56.4844C436.343 56.931 436.551 57.5895 436.551 58.46C436.551 59.3076 436.341 59.9616 435.922 60.4219C435.507 60.8776 434.994 61.1055 434.384 61.1055C433.778 61.1055 433.272 60.8799 432.866 60.4287C432.465 59.9775 432.265 59.2962 432.265 58.3848ZM434.404 56.6553C434.099 56.6553 433.844 56.7874 433.639 57.0518C433.438 57.3161 433.338 57.8014 433.338 58.5078C433.338 59.1504 433.44 59.6038 433.646 59.8682C433.851 60.1279 434.104 60.2578 434.404 60.2578C434.714 60.2578 434.969 60.1257 435.17 59.8613C435.375 59.597 435.478 59.1139 435.478 58.4121C435.478 57.765 435.375 57.3115 435.17 57.0518C434.965 56.7874 434.71 56.6553 434.404 56.6553ZM434.411 66.3691L439.894 55.8076H440.892L435.43 66.3691H434.411ZM438.745 63.6484C438.745 62.9284 438.925 62.32 439.285 61.8232C439.645 61.3219 440.169 61.0713 440.857 61.0713C441.486 61.0713 442.006 61.2969 442.416 61.748C442.831 62.1947 443.038 62.8532 443.038 63.7236C443.038 64.5713 442.828 65.2253 442.409 65.6855C441.994 66.1413 441.479 66.3691 440.864 66.3691C440.258 66.3691 439.752 66.1436 439.347 65.6924C438.946 65.2367 438.745 64.5553 438.745 63.6484ZM440.892 61.9189C440.582 61.9189 440.324 62.0511 440.119 62.3154C439.919 62.5798 439.818 63.0651 439.818 63.7715C439.818 64.4095 439.921 64.8607 440.126 65.125C440.331 65.3893 440.584 65.5215 440.885 65.5215C441.199 65.5215 441.457 65.3893 441.657 65.125C441.862 64.8607 441.965 64.3776 441.965 63.6758C441.965 63.0286 441.862 62.5752 441.657 62.3154C441.452 62.0511 441.197 61.9189 440.892 61.9189Z" fill="#42B72A"/>
<rect x="534" y="46" width="1" height="48" fill="#DADDE1"/>
<path d="M5 94H535V142H5V94Z" fill="#F5F6F7"/>
<path d="M16.6299 114V105.161H13.3281V103.979H21.2715V105.161H17.9561V114H16.6299ZM21.9482 114V106.74H23.0557V107.841C23.3382 107.326 23.598 106.986 23.835 106.822C24.0765 106.658 24.3408 106.576 24.6279 106.576C25.0426 106.576 25.4642 106.708 25.8926 106.973L25.4688 108.114C25.168 107.937 24.8672 107.848 24.5664 107.848C24.2975 107.848 24.056 107.93 23.8418 108.094C23.6276 108.253 23.4749 108.477 23.3838 108.764C23.2471 109.201 23.1787 109.68 23.1787 110.199V114H21.9482ZM26.6309 105.394V103.979H27.8613V105.394H26.6309ZM26.6309 114V106.74H27.8613V114H26.6309ZM34.4785 113.104C34.0228 113.492 33.583 113.765 33.1592 113.925C32.7399 114.084 32.2887 114.164 31.8057 114.164C31.0081 114.164 30.3952 113.97 29.9668 113.583C29.5384 113.191 29.3242 112.692 29.3242 112.086C29.3242 111.73 29.404 111.407 29.5635 111.115C29.7275 110.819 29.9395 110.582 30.1992 110.404C30.4635 110.227 30.7598 110.092 31.0879 110.001C31.3294 109.937 31.694 109.876 32.1816 109.816C33.1751 109.698 33.9066 109.557 34.376 109.393C34.3805 109.224 34.3828 109.117 34.3828 109.071C34.3828 108.57 34.2666 108.217 34.0342 108.012C33.7197 107.734 33.2526 107.595 32.6328 107.595C32.054 107.595 31.6257 107.697 31.3477 107.902C31.0742 108.103 30.8714 108.461 30.7393 108.976L29.5361 108.812C29.6455 108.297 29.8255 107.882 30.0762 107.567C30.3268 107.248 30.6891 107.005 31.1631 106.836C31.637 106.663 32.1862 106.576 32.8105 106.576C33.4303 106.576 33.9339 106.649 34.3213 106.795C34.7087 106.941 34.9935 107.125 35.1758 107.349C35.3581 107.567 35.4857 107.845 35.5586 108.183C35.5996 108.392 35.6201 108.771 35.6201 109.317V110.958C35.6201 112.102 35.6452 112.826 35.6953 113.132C35.75 113.433 35.8548 113.722 36.0098 114H34.7246C34.597 113.745 34.515 113.446 34.4785 113.104ZM34.376 110.356C33.9294 110.539 33.2594 110.694 32.3662 110.821C31.8604 110.894 31.5026 110.976 31.293 111.067C31.0833 111.159 30.9215 111.293 30.8076 111.471C30.6937 111.644 30.6367 111.838 30.6367 112.052C30.6367 112.38 30.7598 112.653 31.0059 112.872C31.2565 113.091 31.6211 113.2 32.0996 113.2C32.5736 113.2 32.9951 113.098 33.3643 112.893C33.7334 112.683 34.0046 112.398 34.1777 112.038C34.3099 111.76 34.376 111.35 34.376 110.808V110.356ZM37.5068 114V103.979H38.7373V114H37.5068ZM51.8555 110.486L53.1816 110.821C52.9036 111.91 52.4023 112.742 51.6777 113.316C50.9577 113.886 50.0758 114.171 49.0322 114.171C47.9521 114.171 47.0726 113.952 46.3936 113.515C45.7191 113.073 45.2041 112.435 44.8486 111.601C44.4977 110.767 44.3223 109.871 44.3223 108.914C44.3223 107.87 44.5205 106.961 44.917 106.187C45.318 105.407 45.8854 104.817 46.6191 104.416C47.3574 104.01 48.1686 103.808 49.0527 103.808C50.0553 103.808 50.8984 104.063 51.582 104.573C52.2656 105.084 52.7419 105.801 53.0107 106.727L51.7051 107.034C51.4727 106.305 51.1354 105.774 50.6934 105.441C50.2513 105.109 49.6953 104.942 49.0254 104.942C48.2552 104.942 47.6104 105.127 47.0908 105.496C46.5758 105.865 46.2135 106.362 46.0039 106.986C45.7943 107.606 45.6895 108.246 45.6895 108.907C45.6895 109.759 45.8125 110.505 46.0586 111.143C46.3092 111.776 46.6966 112.25 47.2207 112.564C47.7448 112.879 48.3122 113.036 48.9229 113.036C49.6657 113.036 50.2946 112.822 50.8096 112.394C51.3245 111.965 51.6732 111.329 51.8555 110.486ZM54.207 110.37C54.207 109.026 54.5807 108.03 55.3281 107.383C55.9525 106.845 56.7135 106.576 57.6113 106.576C58.6094 106.576 59.4251 106.904 60.0586 107.561C60.6921 108.212 61.0088 109.115 61.0088 110.268C61.0088 111.202 60.8675 111.938 60.585 112.476C60.307 113.009 59.8991 113.424 59.3613 113.72C58.8281 114.016 58.2448 114.164 57.6113 114.164C56.5951 114.164 55.7725 113.838 55.1436 113.187C54.5192 112.535 54.207 111.596 54.207 110.37ZM55.4717 110.37C55.4717 111.3 55.6745 111.997 56.0801 112.462C56.4857 112.922 56.9961 113.152 57.6113 113.152C58.222 113.152 58.7301 112.92 59.1357 112.455C59.5413 111.99 59.7441 111.282 59.7441 110.329C59.7441 109.431 59.5391 108.752 59.1289 108.292C58.7233 107.827 58.2174 107.595 57.6113 107.595C56.9961 107.595 56.4857 107.825 56.0801 108.285C55.6745 108.745 55.4717 109.44 55.4717 110.37ZM62.458 114V106.74H63.5654V107.772C64.0986 106.975 64.8688 106.576 65.876 106.576C66.3135 106.576 66.7145 106.656 67.0791 106.815C67.4482 106.97 67.724 107.175 67.9062 107.431C68.0885 107.686 68.2161 107.989 68.2891 108.34C68.3346 108.568 68.3574 108.966 68.3574 109.536V114H67.127V109.584C67.127 109.083 67.0791 108.709 66.9834 108.463C66.8877 108.212 66.7168 108.014 66.4707 107.868C66.2292 107.718 65.9443 107.643 65.6162 107.643C65.0921 107.643 64.6387 107.809 64.2559 108.142C63.8776 108.474 63.6885 109.105 63.6885 110.035V114H62.458ZM72.2676 114L69.5059 106.74H70.8047L72.3633 111.088C72.5319 111.557 72.6868 112.045 72.8281 112.551C72.9375 112.168 73.0902 111.708 73.2861 111.17L74.8994 106.74H76.1641L73.416 114H72.2676ZM82.2207 111.662L83.4922 111.819C83.2917 112.562 82.9202 113.139 82.3779 113.549C81.8356 113.959 81.1429 114.164 80.2998 114.164C79.238 114.164 78.3949 113.838 77.7705 113.187C77.1507 112.53 76.8408 111.612 76.8408 110.432C76.8408 109.21 77.1553 108.262 77.7842 107.588C78.4131 106.913 79.2288 106.576 80.2314 106.576C81.2021 106.576 81.9951 106.907 82.6104 107.567C83.2256 108.228 83.5332 109.158 83.5332 110.356C83.5332 110.429 83.5309 110.539 83.5264 110.685H78.1123C78.1579 111.482 78.3835 112.093 78.7891 112.517C79.1947 112.94 79.7005 113.152 80.3066 113.152C80.7578 113.152 81.1429 113.034 81.4619 112.797C81.7809 112.56 82.0339 112.182 82.2207 111.662ZM78.1807 109.673H82.2344C82.1797 109.062 82.0247 108.604 81.7695 108.299C81.3776 107.825 80.8695 107.588 80.2451 107.588C79.68 107.588 79.2038 107.777 78.8164 108.155C78.4336 108.534 78.2217 109.039 78.1807 109.673ZM85.0303 114V106.74H86.1377V107.841C86.4202 107.326 86.68 106.986 86.917 106.822C87.1585 106.658 87.4229 106.576 87.71 106.576C88.1247 106.576 88.5462 106.708 88.9746 106.973L88.5508 108.114C88.25 107.937 87.9492 107.848 87.6484 107.848C87.3796 107.848 87.138 107.93 86.9238 108.094C86.7096 108.253 86.557 108.477 86.4658 108.764C86.3291 109.201 86.2607 109.68 86.2607 110.199V114H85.0303ZM92.3926 112.899L92.5703 113.986C92.224 114.059 91.9141 114.096 91.6406 114.096C91.194 114.096 90.8477 114.025 90.6016 113.884C90.3555 113.743 90.1823 113.558 90.082 113.33C89.9818 113.098 89.9316 112.612 89.9316 111.874V107.697H89.0293V106.74H89.9316V104.942L91.1553 104.204V106.74H92.3926V107.697H91.1553V111.942C91.1553 112.293 91.1758 112.519 91.2168 112.619C91.2624 112.719 91.333 112.799 91.4287 112.858C91.529 112.918 91.6702 112.947 91.8525 112.947C91.9893 112.947 92.1693 112.931 92.3926 112.899ZM98.5723 111.662L99.8438 111.819C99.6432 112.562 99.2718 113.139 98.7295 113.549C98.1872 113.959 97.4945 114.164 96.6514 114.164C95.5895 114.164 94.7464 113.838 94.1221 113.187C93.5023 112.53 93.1924 111.612 93.1924 110.432C93.1924 109.21 93.5068 108.262 94.1357 107.588C94.7646 106.913 95.5804 106.576 96.583 106.576C97.5537 106.576 98.3467 106.907 98.9619 107.567C99.5771 108.228 99.8848 109.158 99.8848 110.356C99.8848 110.429 99.8825 110.539 99.8779 110.685H94.4639C94.5094 111.482 94.735 112.093 95.1406 112.517C95.5462 112.94 96.0521 113.152 96.6582 113.152C97.1094 113.152 97.4945 113.034 97.8135 112.797C98.1325 112.56 98.3854 112.182 98.5723 111.662ZM94.5322 109.673H98.5859C98.5312 109.062 98.3763 108.604 98.1211 108.299C97.7292 107.825 97.221 107.588 96.5967 107.588C96.0316 107.588 95.5553 107.777 95.168 108.155C94.7852 108.534 94.5732 109.039 94.5322 109.673ZM106.105 114V113.084C105.645 113.804 104.968 114.164 104.075 114.164C103.496 114.164 102.963 114.005 102.476 113.686C101.993 113.367 101.617 112.922 101.348 112.353C101.083 111.778 100.951 111.12 100.951 110.377C100.951 109.652 101.072 108.996 101.313 108.408C101.555 107.816 101.917 107.362 102.4 107.048C102.883 106.733 103.424 106.576 104.021 106.576C104.458 106.576 104.848 106.67 105.189 106.856C105.531 107.039 105.809 107.278 106.023 107.574V103.979H107.247V114H106.105ZM102.216 110.377C102.216 111.307 102.412 112.002 102.804 112.462C103.196 112.922 103.658 113.152 104.191 113.152C104.729 113.152 105.185 112.934 105.559 112.496C105.937 112.054 106.126 111.382 106.126 110.479C106.126 109.486 105.935 108.757 105.552 108.292C105.169 107.827 104.697 107.595 104.137 107.595C103.59 107.595 103.132 107.818 102.763 108.265C102.398 108.711 102.216 109.415 102.216 110.377Z" fill="#066CD2"/>
<rect x="240" y="94" width="1" height="48" fill="#DADDE1"/>
<path d="M256.048 112.817V114H249.424C249.415 113.704 249.463 113.419 249.567 113.146C249.736 112.694 250.005 112.25 250.374 111.812C250.748 111.375 251.285 110.869 251.987 110.295C253.076 109.402 253.812 108.695 254.195 108.176C254.578 107.652 254.77 107.157 254.77 106.692C254.77 106.205 254.594 105.795 254.243 105.462C253.897 105.125 253.443 104.956 252.883 104.956C252.29 104.956 251.816 105.134 251.461 105.489C251.105 105.845 250.925 106.337 250.921 106.966L249.656 106.836C249.743 105.893 250.069 105.175 250.634 104.683C251.199 104.186 251.958 103.938 252.91 103.938C253.872 103.938 254.633 104.204 255.193 104.737C255.754 105.271 256.034 105.931 256.034 106.72C256.034 107.121 255.952 107.515 255.788 107.902C255.624 108.29 255.351 108.698 254.968 109.126C254.59 109.554 253.958 110.142 253.074 110.89C252.336 111.509 251.862 111.931 251.652 112.154C251.443 112.373 251.27 112.594 251.133 112.817H256.048ZM258.037 114V112.599H259.438V114C259.438 114.515 259.347 114.93 259.165 115.244C258.983 115.563 258.693 115.809 258.297 115.982L257.955 115.456C258.215 115.342 258.406 115.174 258.529 114.95C258.652 114.731 258.721 114.415 258.734 114H258.037ZM265.215 114V111.601H260.867V110.473L265.44 103.979H266.445V110.473H267.799V111.601H266.445V114H265.215ZM265.215 110.473V105.954L262.077 110.473H265.215ZM269.248 111.683L270.431 111.573C270.531 112.129 270.722 112.533 271.005 112.783C271.287 113.034 271.65 113.159 272.092 113.159C272.47 113.159 272.8 113.073 273.083 112.899C273.37 112.726 273.605 112.496 273.787 112.209C273.969 111.917 274.122 111.525 274.245 111.033C274.368 110.541 274.43 110.04 274.43 109.529C274.43 109.475 274.427 109.393 274.423 109.283C274.177 109.675 273.84 109.994 273.411 110.24C272.987 110.482 272.527 110.603 272.03 110.603C271.201 110.603 270.499 110.302 269.925 109.7C269.351 109.099 269.063 108.306 269.063 107.321C269.063 106.305 269.362 105.487 269.959 104.867C270.561 104.247 271.312 103.938 272.215 103.938C272.867 103.938 273.461 104.113 273.999 104.464C274.541 104.815 274.951 105.316 275.229 105.968C275.512 106.615 275.653 107.554 275.653 108.784C275.653 110.065 275.514 111.086 275.236 111.847C274.958 112.603 274.544 113.18 273.992 113.576C273.445 113.973 272.803 114.171 272.064 114.171C271.281 114.171 270.64 113.954 270.144 113.521C269.647 113.084 269.348 112.471 269.248 111.683ZM274.286 107.26C274.286 106.553 274.097 105.993 273.719 105.578C273.345 105.163 272.894 104.956 272.365 104.956C271.818 104.956 271.342 105.179 270.937 105.626C270.531 106.073 270.328 106.651 270.328 107.362C270.328 108 270.52 108.52 270.902 108.921C271.29 109.317 271.766 109.516 272.331 109.516C272.901 109.516 273.368 109.317 273.732 108.921C274.102 108.52 274.286 107.966 274.286 107.26ZM281.491 114H280.261V106.159C279.965 106.442 279.575 106.724 279.092 107.007C278.613 107.289 278.183 107.501 277.8 107.643V106.453C278.488 106.13 279.09 105.738 279.604 105.277C280.119 104.817 280.484 104.37 280.698 103.938H281.491V114Z" fill="#466072"/>
<rect x="387" y="94" width="1" height="48" fill="#DADDE1"/>
<path d="M399.507 112.38V109.632H396.779V108.483H399.507V105.756H400.669V108.483H403.396V109.632H400.669V112.38H399.507ZM413.288 114H412.058V106.159C411.761 106.442 411.372 106.724 410.889 107.007C410.41 107.289 409.979 107.501 409.597 107.643V106.453C410.285 106.13 410.886 105.738 411.401 105.277C411.916 104.817 412.281 104.37 412.495 103.938H413.288V114ZM416.446 109.058C416.446 107.873 416.567 106.92 416.809 106.2C417.055 105.476 417.417 104.917 417.896 104.525C418.379 104.133 418.985 103.938 419.714 103.938C420.252 103.938 420.723 104.047 421.129 104.266C421.535 104.48 421.869 104.792 422.134 105.202C422.398 105.608 422.605 106.104 422.756 106.692C422.906 107.276 422.981 108.064 422.981 109.058C422.981 110.233 422.861 111.184 422.619 111.908C422.378 112.628 422.015 113.187 421.532 113.583C421.054 113.975 420.448 114.171 419.714 114.171C418.748 114.171 417.989 113.825 417.438 113.132C416.777 112.298 416.446 110.94 416.446 109.058ZM417.711 109.058C417.711 110.703 417.902 111.799 418.285 112.346C418.673 112.888 419.149 113.159 419.714 113.159C420.279 113.159 420.753 112.886 421.136 112.339C421.523 111.792 421.717 110.698 421.717 109.058C421.717 107.408 421.523 106.312 421.136 105.77C420.753 105.227 420.274 104.956 419.7 104.956C419.135 104.956 418.684 105.195 418.347 105.674C417.923 106.285 417.711 107.412 417.711 109.058ZM424.239 109.058C424.239 107.873 424.36 106.92 424.602 106.2C424.848 105.476 425.21 104.917 425.688 104.525C426.172 104.133 426.778 103.938 427.507 103.938C428.045 103.938 428.516 104.047 428.922 104.266C429.327 104.48 429.662 104.792 429.927 105.202C430.191 105.608 430.398 106.104 430.549 106.692C430.699 107.276 430.774 108.064 430.774 109.058C430.774 110.233 430.654 111.184 430.412 111.908C430.171 112.628 429.808 113.187 429.325 113.583C428.847 113.975 428.241 114.171 427.507 114.171C426.541 114.171 425.782 113.825 425.23 113.132C424.57 112.298 424.239 110.94 424.239 109.058ZM425.504 109.058C425.504 110.703 425.695 111.799 426.078 112.346C426.465 112.888 426.942 113.159 427.507 113.159C428.072 113.159 428.546 112.886 428.929 112.339C429.316 111.792 429.51 110.698 429.51 109.058C429.51 107.408 429.316 106.312 428.929 105.77C428.546 105.227 428.067 104.956 427.493 104.956C426.928 104.956 426.477 105.195 426.14 105.674C425.716 106.285 425.504 107.412 425.504 109.058ZM432.265 106.385C432.265 105.669 432.445 105.061 432.805 104.56C433.165 104.058 433.687 103.808 434.37 103.808C434.999 103.808 435.519 104.033 435.929 104.484C436.343 104.931 436.551 105.59 436.551 106.46C436.551 107.308 436.341 107.962 435.922 108.422C435.507 108.878 434.994 109.105 434.384 109.105C433.778 109.105 433.272 108.88 432.866 108.429C432.465 107.978 432.265 107.296 432.265 106.385ZM434.404 104.655C434.099 104.655 433.844 104.787 433.639 105.052C433.438 105.316 433.338 105.801 433.338 106.508C433.338 107.15 433.44 107.604 433.646 107.868C433.851 108.128 434.104 108.258 434.404 108.258C434.714 108.258 434.969 108.126 435.17 107.861C435.375 107.597 435.478 107.114 435.478 106.412C435.478 105.765 435.375 105.312 435.17 105.052C434.965 104.787 434.71 104.655 434.404 104.655ZM434.411 114.369L439.894 103.808H440.892L435.43 114.369H434.411ZM438.745 111.648C438.745 110.928 438.925 110.32 439.285 109.823C439.645 109.322 440.169 109.071 440.857 109.071C441.486 109.071 442.006 109.297 442.416 109.748C442.831 110.195 443.038 110.853 443.038 111.724C443.038 112.571 442.828 113.225 442.409 113.686C441.994 114.141 441.479 114.369 440.864 114.369C440.258 114.369 439.752 114.144 439.347 113.692C438.946 113.237 438.745 112.555 438.745 111.648ZM440.892 109.919C440.582 109.919 440.324 110.051 440.119 110.315C439.919 110.58 439.818 111.065 439.818 111.771C439.818 112.41 439.921 112.861 440.126 113.125C440.331 113.389 440.584 113.521 440.885 113.521C441.199 113.521 441.457 113.389 441.657 113.125C441.862 112.861 441.965 112.378 441.965 111.676C441.965 111.029 441.862 110.575 441.657 110.315C441.452 110.051 441.197 109.919 440.892 109.919Z" fill="#42B72A"/>
<rect x="534" y="94" width="1" height="48" fill="#DADDE1"/>
<path d="M5 142H535V190H5V142Z" fill="white"/>
<path d="M16.6299 162V153.161H13.3281V151.979H21.2715V153.161H17.9561V162H16.6299ZM21.9482 162V154.74H23.0557V155.841C23.3382 155.326 23.598 154.986 23.835 154.822C24.0765 154.658 24.3408 154.576 24.6279 154.576C25.0426 154.576 25.4642 154.708 25.8926 154.973L25.4688 156.114C25.168 155.937 24.8672 155.848 24.5664 155.848C24.2975 155.848 24.056 155.93 23.8418 156.094C23.6276 156.253 23.4749 156.477 23.3838 156.764C23.2471 157.201 23.1787 157.68 23.1787 158.199V162H21.9482ZM26.6309 153.394V151.979H27.8613V153.394H26.6309ZM26.6309 162V154.74H27.8613V162H26.6309ZM34.4785 161.104C34.0228 161.492 33.583 161.765 33.1592 161.925C32.7399 162.084 32.2887 162.164 31.8057 162.164C31.0081 162.164 30.3952 161.97 29.9668 161.583C29.5384 161.191 29.3242 160.692 29.3242 160.086C29.3242 159.73 29.404 159.407 29.5635 159.115C29.7275 158.819 29.9395 158.582 30.1992 158.404C30.4635 158.227 30.7598 158.092 31.0879 158.001C31.3294 157.937 31.694 157.876 32.1816 157.816C33.1751 157.698 33.9066 157.557 34.376 157.393C34.3805 157.224 34.3828 157.117 34.3828 157.071C34.3828 156.57 34.2666 156.217 34.0342 156.012C33.7197 155.734 33.2526 155.595 32.6328 155.595C32.054 155.595 31.6257 155.697 31.3477 155.902C31.0742 156.103 30.8714 156.461 30.7393 156.976L29.5361 156.812C29.6455 156.297 29.8255 155.882 30.0762 155.567C30.3268 155.248 30.6891 155.005 31.1631 154.836C31.637 154.663 32.1862 154.576 32.8105 154.576C33.4303 154.576 33.9339 154.649 34.3213 154.795C34.7087 154.941 34.9935 155.125 35.1758 155.349C35.3581 155.567 35.4857 155.845 35.5586 156.183C35.5996 156.392 35.6201 156.771 35.6201 157.317V158.958C35.6201 160.102 35.6452 160.826 35.6953 161.132C35.75 161.433 35.8548 161.722 36.0098 162H34.7246C34.597 161.745 34.515 161.446 34.4785 161.104ZM34.376 158.356C33.9294 158.539 33.2594 158.694 32.3662 158.821C31.8604 158.894 31.5026 158.976 31.293 159.067C31.0833 159.159 30.9215 159.293 30.8076 159.471C30.6937 159.644 30.6367 159.838 30.6367 160.052C30.6367 160.38 30.7598 160.653 31.0059 160.872C31.2565 161.091 31.6211 161.2 32.0996 161.2C32.5736 161.2 32.9951 161.098 33.3643 160.893C33.7334 160.683 34.0046 160.398 34.1777 160.038C34.3099 159.76 34.376 159.35 34.376 158.808V158.356ZM37.5068 162V151.979H38.7373V162H37.5068ZM44.7324 162V151.979H51.9785V153.161H46.0586V156.23H51.6025V157.406H46.0586V160.817H52.2109V162H44.7324ZM53.0654 162L55.7178 158.227L53.2637 154.74H54.8018L55.916 156.442C56.1257 156.766 56.2943 157.037 56.4219 157.256C56.6224 156.955 56.807 156.688 56.9756 156.456L58.1992 154.74H59.6689L57.1602 158.158L59.8604 162H58.3496L56.8594 159.744L56.4629 159.136L54.5557 162H53.0654ZM60.8857 164.782V154.74H62.0068V155.684C62.2712 155.314 62.5697 155.039 62.9023 154.856C63.235 154.67 63.6383 154.576 64.1123 154.576C64.7321 154.576 65.279 154.736 65.7529 155.055C66.2269 155.374 66.5846 155.825 66.8262 156.408C67.0677 156.987 67.1885 157.623 67.1885 158.315C67.1885 159.058 67.054 159.728 66.7852 160.325C66.5208 160.918 66.1335 161.373 65.623 161.692C65.1172 162.007 64.584 162.164 64.0234 162.164C63.6133 162.164 63.2441 162.077 62.916 161.904C62.5924 161.731 62.3258 161.512 62.1162 161.248V164.782H60.8857ZM62 158.411C62 159.345 62.1891 160.036 62.5674 160.482C62.9456 160.929 63.4036 161.152 63.9414 161.152C64.4883 161.152 64.9554 160.922 65.3428 160.462C65.7347 159.997 65.9307 159.279 65.9307 158.309C65.9307 157.383 65.7393 156.691 65.3564 156.23C64.9782 155.77 64.5247 155.54 63.9961 155.54C63.472 155.54 63.0072 155.786 62.6016 156.278C62.2005 156.766 62 157.477 62 158.411ZM68.6855 153.394V151.979H69.916V153.394H68.6855ZM68.6855 162V154.74H69.916V162H68.6855ZM71.7822 162V154.74H72.8896V155.841C73.1722 155.326 73.432 154.986 73.6689 154.822C73.9105 154.658 74.1748 154.576 74.4619 154.576C74.8766 154.576 75.2982 154.708 75.7266 154.973L75.3027 156.114C75.002 155.937 74.7012 155.848 74.4004 155.848C74.1315 155.848 73.89 155.93 73.6758 156.094C73.4616 156.253 73.3089 156.477 73.2178 156.764C73.0811 157.201 73.0127 157.68 73.0127 158.199V162H71.7822ZM81.4277 159.662L82.6992 159.819C82.4987 160.562 82.1273 161.139 81.585 161.549C81.0426 161.959 80.3499 162.164 79.5068 162.164C78.445 162.164 77.6019 161.838 76.9775 161.187C76.3577 160.53 76.0479 159.612 76.0479 158.432C76.0479 157.21 76.3623 156.262 76.9912 155.588C77.6201 154.913 78.4359 154.576 79.4385 154.576C80.4092 154.576 81.2021 154.907 81.8174 155.567C82.4326 156.228 82.7402 157.158 82.7402 158.356C82.7402 158.429 82.738 158.539 82.7334 158.685H77.3193C77.3649 159.482 77.5905 160.093 77.9961 160.517C78.4017 160.94 78.9076 161.152 79.5137 161.152C79.9648 161.152 80.3499 161.034 80.6689 160.797C80.988 160.56 81.2409 160.182 81.4277 159.662ZM77.3877 157.673H81.4414C81.3867 157.062 81.2318 156.604 80.9766 156.299C80.5846 155.825 80.0765 155.588 79.4521 155.588C78.887 155.588 78.4108 155.777 78.0234 156.155C77.6406 156.534 77.4287 157.039 77.3877 157.673ZM88.9609 162V161.084C88.5007 161.804 87.8239 162.164 86.9307 162.164C86.3519 162.164 85.8187 162.005 85.3311 161.686C84.848 161.367 84.472 160.922 84.2031 160.353C83.9388 159.778 83.8066 159.12 83.8066 158.377C83.8066 157.652 83.9274 156.996 84.1689 156.408C84.4105 155.816 84.7728 155.362 85.2559 155.048C85.7389 154.733 86.279 154.576 86.876 154.576C87.3135 154.576 87.7031 154.67 88.0449 154.856C88.3867 155.039 88.6647 155.278 88.8789 155.574V151.979H90.1025V162H88.9609ZM85.0713 158.377C85.0713 159.307 85.2673 160.002 85.6592 160.462C86.0511 160.922 86.5137 161.152 87.0469 161.152C87.5846 161.152 88.0404 160.934 88.4141 160.496C88.7923 160.054 88.9814 159.382 88.9814 158.479C88.9814 157.486 88.79 156.757 88.4072 156.292C88.0244 155.827 87.5527 155.595 86.9922 155.595C86.4453 155.595 85.9873 155.818 85.6182 156.265C85.2536 156.711 85.0713 157.415 85.0713 158.377Z" fill="#066CD2"/>
<rect x="240" y="142" width="1" height="48" fill="#DADDE1"/>
<path d="M249.581 159.375L250.873 159.266C250.969 159.895 251.19 160.368 251.536 160.688C251.887 161.002 252.309 161.159 252.801 161.159C253.393 161.159 253.895 160.936 254.305 160.489C254.715 160.043 254.92 159.45 254.92 158.712C254.92 158.01 254.722 157.456 254.325 157.051C253.933 156.645 253.418 156.442 252.78 156.442C252.384 156.442 252.026 156.534 251.707 156.716C251.388 156.894 251.137 157.126 250.955 157.413L249.8 157.263L250.771 152.115H255.754V153.291H251.755L251.215 155.984C251.816 155.565 252.448 155.355 253.108 155.355C253.983 155.355 254.722 155.659 255.323 156.265C255.925 156.871 256.226 157.65 256.226 158.603C256.226 159.509 255.961 160.293 255.433 160.954C254.79 161.765 253.913 162.171 252.801 162.171C251.889 162.171 251.144 161.916 250.565 161.405C249.991 160.895 249.663 160.218 249.581 159.375ZM258.037 162V160.599H259.438V162C259.438 162.515 259.347 162.93 259.165 163.244C258.983 163.563 258.693 163.809 258.297 163.982L257.955 163.456C258.215 163.342 258.406 163.174 258.529 162.95C258.652 162.731 258.721 162.415 258.734 162H258.037ZM261.271 157.058C261.271 155.873 261.391 154.92 261.633 154.2C261.879 153.476 262.241 152.917 262.72 152.525C263.203 152.133 263.809 151.938 264.538 151.938C265.076 151.938 265.548 152.047 265.953 152.266C266.359 152.48 266.694 152.792 266.958 153.202C267.222 153.608 267.43 154.104 267.58 154.692C267.73 155.276 267.806 156.064 267.806 157.058C267.806 158.233 267.685 159.184 267.443 159.908C267.202 160.628 266.84 161.187 266.356 161.583C265.878 161.975 265.272 162.171 264.538 162.171C263.572 162.171 262.813 161.825 262.262 161.132C261.601 160.298 261.271 158.94 261.271 157.058ZM262.535 157.058C262.535 158.703 262.727 159.799 263.109 160.346C263.497 160.888 263.973 161.159 264.538 161.159C265.103 161.159 265.577 160.886 265.96 160.339C266.347 159.792 266.541 158.698 266.541 157.058C266.541 155.408 266.347 154.312 265.96 153.77C265.577 153.227 265.099 152.956 264.524 152.956C263.959 152.956 263.508 153.195 263.171 153.674C262.747 154.285 262.535 155.412 262.535 157.058ZM273.698 162H272.468V154.159C272.172 154.442 271.782 154.724 271.299 155.007C270.82 155.289 270.39 155.501 270.007 155.643V154.453C270.695 154.13 271.297 153.738 271.812 153.277C272.326 152.817 272.691 152.37 272.905 151.938H273.698V162ZM277.041 159.683L278.224 159.573C278.324 160.129 278.515 160.533 278.798 160.783C279.08 161.034 279.443 161.159 279.885 161.159C280.263 161.159 280.593 161.073 280.876 160.899C281.163 160.726 281.398 160.496 281.58 160.209C281.762 159.917 281.915 159.525 282.038 159.033C282.161 158.541 282.223 158.04 282.223 157.529C282.223 157.475 282.22 157.393 282.216 157.283C281.97 157.675 281.632 157.994 281.204 158.24C280.78 158.482 280.32 158.603 279.823 158.603C278.994 158.603 278.292 158.302 277.718 157.7C277.144 157.099 276.856 156.306 276.856 155.321C276.856 154.305 277.155 153.487 277.752 152.867C278.354 152.247 279.105 151.938 280.008 151.938C280.66 151.938 281.254 152.113 281.792 152.464C282.334 152.815 282.744 153.316 283.022 153.968C283.305 154.615 283.446 155.554 283.446 156.784C283.446 158.065 283.307 159.086 283.029 159.847C282.751 160.603 282.337 161.18 281.785 161.576C281.238 161.973 280.596 162.171 279.857 162.171C279.074 162.171 278.433 161.954 277.937 161.521C277.44 161.084 277.141 160.471 277.041 159.683ZM282.079 155.26C282.079 154.553 281.89 153.993 281.512 153.578C281.138 153.163 280.687 152.956 280.158 152.956C279.611 152.956 279.135 153.179 278.729 153.626C278.324 154.073 278.121 154.651 278.121 155.362C278.121 156 278.312 156.52 278.695 156.921C279.083 157.317 279.559 157.516 280.124 157.516C280.694 157.516 281.161 157.317 281.525 156.921C281.895 156.52 282.079 155.966 282.079 155.26Z" fill="#466072"/>
<rect x="387" y="142" width="1" height="48" fill="#DADDE1"/>
<path d="M399.507 160.38V157.632H396.779V156.483H399.507V153.756H400.669V156.483H403.396V157.632H400.669V160.38H399.507ZM410.547 156.565C410.036 156.379 409.658 156.112 409.412 155.766C409.166 155.419 409.043 155.005 409.043 154.521C409.043 153.792 409.305 153.179 409.829 152.683C410.353 152.186 411.05 151.938 411.921 151.938C412.796 151.938 413.5 152.193 414.033 152.703C414.566 153.209 414.833 153.826 414.833 154.556C414.833 155.021 414.71 155.426 414.464 155.772C414.222 156.114 413.853 156.379 413.356 156.565C413.972 156.766 414.439 157.09 414.758 157.536C415.081 157.983 415.243 158.516 415.243 159.136C415.243 159.993 414.94 160.713 414.334 161.296C413.728 161.879 412.93 162.171 411.941 162.171C410.952 162.171 410.155 161.879 409.549 161.296C408.943 160.708 408.64 159.977 408.64 159.102C408.64 158.45 408.804 157.905 409.132 157.468C409.465 157.026 409.936 156.725 410.547 156.565ZM410.301 154.48C410.301 154.954 410.453 155.342 410.759 155.643C411.064 155.943 411.461 156.094 411.948 156.094C412.422 156.094 412.81 155.946 413.11 155.649C413.416 155.349 413.568 154.982 413.568 154.549C413.568 154.098 413.411 153.719 413.097 153.414C412.787 153.104 412.399 152.949 411.935 152.949C411.465 152.949 411.076 153.1 410.766 153.4C410.456 153.701 410.301 154.061 410.301 154.48ZM409.904 159.108C409.904 159.459 409.986 159.799 410.15 160.127C410.319 160.455 410.567 160.71 410.896 160.893C411.224 161.07 411.577 161.159 411.955 161.159C412.543 161.159 413.028 160.97 413.411 160.592C413.794 160.214 413.985 159.733 413.985 159.149C413.985 158.557 413.787 158.067 413.391 157.68C412.999 157.292 412.507 157.099 411.914 157.099C411.335 157.099 410.854 157.29 410.472 157.673C410.093 158.056 409.904 158.534 409.904 159.108ZM420.391 162V159.601H416.043V158.473L420.616 151.979H421.621V158.473H422.975V159.601H421.621V162H420.391ZM420.391 158.473V153.954L417.253 158.473H420.391ZM424.472 154.385C424.472 153.669 424.652 153.061 425.012 152.56C425.372 152.058 425.894 151.808 426.577 151.808C427.206 151.808 427.726 152.033 428.136 152.484C428.55 152.931 428.758 153.59 428.758 154.46C428.758 155.308 428.548 155.962 428.129 156.422C427.714 156.878 427.201 157.105 426.591 157.105C425.985 157.105 425.479 156.88 425.073 156.429C424.672 155.978 424.472 155.296 424.472 154.385ZM426.611 152.655C426.306 152.655 426.051 152.787 425.846 153.052C425.645 153.316 425.545 153.801 425.545 154.508C425.545 155.15 425.647 155.604 425.853 155.868C426.058 156.128 426.311 156.258 426.611 156.258C426.921 156.258 427.176 156.126 427.377 155.861C427.582 155.597 427.685 155.114 427.685 154.412C427.685 153.765 427.582 153.312 427.377 153.052C427.172 152.787 426.917 152.655 426.611 152.655ZM426.618 162.369L432.101 151.808H433.099L427.637 162.369H426.618ZM430.952 159.648C430.952 158.928 431.132 158.32 431.492 157.823C431.852 157.322 432.376 157.071 433.064 157.071C433.693 157.071 434.213 157.297 434.623 157.748C435.038 158.195 435.245 158.853 435.245 159.724C435.245 160.571 435.035 161.225 434.616 161.686C434.201 162.141 433.687 162.369 433.071 162.369C432.465 162.369 431.959 162.144 431.554 161.692C431.153 161.237 430.952 160.555 430.952 159.648ZM433.099 157.919C432.789 157.919 432.531 158.051 432.326 158.315C432.126 158.58 432.025 159.065 432.025 159.771C432.025 160.41 432.128 160.861 432.333 161.125C432.538 161.389 432.791 161.521 433.092 161.521C433.406 161.521 433.664 161.389 433.864 161.125C434.069 160.861 434.172 160.378 434.172 159.676C434.172 159.029 434.069 158.575 433.864 158.315C433.659 158.051 433.404 157.919 433.099 157.919Z" fill="#42B72A"/>
<rect x="534" y="142" width="1" height="48" fill="#DADDE1"/>
<path d="M5 190H535V238H5V190Z" fill="#F5F6F7"/>
<path d="M13.6289 206.78L14.8799 206.671C14.9391 207.172 15.0758 207.585 15.29 207.908C15.5088 208.227 15.846 208.487 16.3018 208.688C16.7575 208.883 17.2702 208.981 17.8398 208.981C18.3457 208.981 18.7923 208.906 19.1797 208.756C19.5671 208.605 19.8542 208.4 20.041 208.141C20.2324 207.876 20.3281 207.589 20.3281 207.279C20.3281 206.965 20.237 206.691 20.0547 206.459C19.8724 206.222 19.5716 206.024 19.1523 205.864C18.8835 205.759 18.2887 205.598 17.3682 205.379C16.4476 205.156 15.8027 204.946 15.4336 204.75C14.9551 204.499 14.5973 204.189 14.3604 203.82C14.1279 203.447 14.0117 203.03 14.0117 202.569C14.0117 202.063 14.1553 201.592 14.4424 201.154C14.7295 200.712 15.1488 200.377 15.7002 200.149C16.2516 199.922 16.8646 199.808 17.5391 199.808C18.2819 199.808 18.9359 199.928 19.501 200.17C20.0706 200.407 20.5081 200.758 20.8135 201.223C21.1188 201.688 21.2829 202.214 21.3057 202.802L20.0342 202.897C19.9658 202.264 19.7334 201.785 19.3369 201.462C18.945 201.138 18.3639 200.977 17.5938 200.977C16.7917 200.977 16.2061 201.125 15.8369 201.421C15.4723 201.713 15.29 202.066 15.29 202.48C15.29 202.84 15.4199 203.137 15.6797 203.369C15.9349 203.602 16.6003 203.841 17.6758 204.087C18.7559 204.328 19.4964 204.54 19.8975 204.723C20.4808 204.992 20.9115 205.333 21.1895 205.748C21.4674 206.158 21.6064 206.632 21.6064 207.17C21.6064 207.703 21.4538 208.207 21.1484 208.681C20.8431 209.15 20.4033 209.517 19.8291 209.781C19.2594 210.041 18.6169 210.171 17.9014 210.171C16.9945 210.171 16.2334 210.039 15.6182 209.774C15.0075 209.51 14.5267 209.114 14.1758 208.585C13.8294 208.052 13.6471 207.45 13.6289 206.78ZM28.0186 210V208.934C27.4535 209.754 26.6855 210.164 25.7148 210.164C25.2865 210.164 24.8854 210.082 24.5117 209.918C24.1426 209.754 23.8669 209.549 23.6846 209.303C23.5068 209.052 23.3815 208.747 23.3086 208.387C23.2585 208.145 23.2334 207.762 23.2334 207.238V202.74H24.4639V206.767C24.4639 207.409 24.4889 207.842 24.5391 208.065C24.6165 208.389 24.7806 208.644 25.0312 208.831C25.2819 209.013 25.5918 209.104 25.9609 209.104C26.3301 209.104 26.6764 209.011 27 208.824C27.3236 208.633 27.5514 208.375 27.6836 208.052C27.8203 207.724 27.8887 207.25 27.8887 206.63V202.74H29.1191V210H28.0186ZM32.1885 210H31.0469V199.979H32.2773V203.554C32.7969 202.902 33.46 202.576 34.2666 202.576C34.7132 202.576 35.1348 202.667 35.5312 202.85C35.9323 203.027 36.2604 203.28 36.5156 203.608C36.7754 203.932 36.9782 204.324 37.124 204.784C37.2699 205.244 37.3428 205.737 37.3428 206.261C37.3428 207.505 37.0352 208.466 36.4199 209.146C35.8047 209.825 35.0664 210.164 34.2051 210.164C33.3483 210.164 32.6761 209.806 32.1885 209.091V210ZM32.1748 206.315C32.1748 207.186 32.2933 207.815 32.5303 208.202C32.9176 208.836 33.4417 209.152 34.1025 209.152C34.6403 209.152 35.1051 208.92 35.4971 208.455C35.889 207.986 36.085 207.288 36.085 206.363C36.085 205.415 35.8958 204.716 35.5176 204.265C35.1439 203.813 34.6904 203.588 34.1572 203.588C33.6195 203.588 33.1546 203.823 32.7627 204.292C32.3708 204.757 32.1748 205.431 32.1748 206.315ZM38.3545 207.833L39.5713 207.642C39.6396 208.129 39.8288 208.503 40.1387 208.763C40.4531 209.022 40.8906 209.152 41.4512 209.152C42.0163 209.152 42.4355 209.038 42.709 208.811C42.9824 208.578 43.1191 208.307 43.1191 207.997C43.1191 207.719 42.9984 207.5 42.7568 207.341C42.5882 207.231 42.1689 207.092 41.499 206.924C40.5967 206.696 39.9701 206.5 39.6191 206.336C39.2728 206.167 39.0085 205.937 38.8262 205.646C38.6484 205.349 38.5596 205.023 38.5596 204.668C38.5596 204.344 38.6325 204.046 38.7783 203.772C38.9287 203.494 39.1315 203.264 39.3867 203.082C39.5781 202.941 39.8379 202.822 40.166 202.727C40.4987 202.626 40.8542 202.576 41.2324 202.576C41.8021 202.576 42.3011 202.658 42.7295 202.822C43.1624 202.986 43.4814 203.21 43.6865 203.492C43.8916 203.77 44.0329 204.144 44.1104 204.613L42.9072 204.777C42.8525 204.404 42.693 204.112 42.4287 203.902C42.1689 203.693 41.7998 203.588 41.3213 203.588C40.7562 203.588 40.3529 203.681 40.1113 203.868C39.8698 204.055 39.749 204.274 39.749 204.524C39.749 204.684 39.7992 204.827 39.8994 204.955C39.9997 205.087 40.1569 205.197 40.3711 205.283C40.4941 205.329 40.8564 205.434 41.458 205.598C42.3285 205.83 42.9346 206.021 43.2764 206.172C43.6227 206.318 43.8939 206.532 44.0898 206.814C44.2858 207.097 44.3838 207.448 44.3838 207.867C44.3838 208.277 44.263 208.665 44.0215 209.029C43.7845 209.389 43.4404 209.67 42.9893 209.87C42.5381 210.066 42.0277 210.164 41.458 210.164C40.5146 210.164 39.7946 209.968 39.2979 209.576C38.8057 209.184 38.4912 208.603 38.3545 207.833ZM50.584 207.341L51.7939 207.498C51.6618 208.332 51.3223 208.986 50.7754 209.46C50.2331 209.929 49.5654 210.164 48.7725 210.164C47.779 210.164 46.9792 209.84 46.373 209.193C45.7715 208.542 45.4707 207.61 45.4707 206.397C45.4707 205.614 45.6006 204.928 45.8604 204.34C46.1201 203.752 46.5143 203.312 47.043 203.021C47.5762 202.724 48.1549 202.576 48.7793 202.576C49.5677 202.576 50.2126 202.777 50.7139 203.178C51.2152 203.574 51.5365 204.139 51.6777 204.873L50.4814 205.058C50.3675 204.57 50.1647 204.203 49.873 203.957C49.5859 203.711 49.2373 203.588 48.8271 203.588C48.2074 203.588 47.7038 203.811 47.3164 204.258C46.929 204.7 46.7354 205.402 46.7354 206.363C46.7354 207.339 46.9222 208.047 47.2959 208.489C47.6696 208.931 48.1572 209.152 48.7588 209.152C49.2419 209.152 49.6452 209.004 49.9688 208.708C50.2923 208.412 50.4974 207.956 50.584 207.341ZM52.833 210V202.74H53.9404V203.841C54.223 203.326 54.4827 202.986 54.7197 202.822C54.9613 202.658 55.2256 202.576 55.5127 202.576C55.9274 202.576 56.349 202.708 56.7773 202.973L56.3535 204.114C56.0527 203.937 55.752 203.848 55.4512 203.848C55.1823 203.848 54.9408 203.93 54.7266 204.094C54.5124 204.253 54.3597 204.477 54.2686 204.764C54.1318 205.201 54.0635 205.68 54.0635 206.199V210H52.833ZM57.5156 201.394V199.979H58.7461V201.394H57.5156ZM57.5156 210V202.74H58.7461V210H57.5156ZM60.626 212.782V202.74H61.7471V203.684C62.0114 203.314 62.3099 203.039 62.6426 202.856C62.9753 202.67 63.3786 202.576 63.8525 202.576C64.4723 202.576 65.0192 202.736 65.4932 203.055C65.9671 203.374 66.3249 203.825 66.5664 204.408C66.8079 204.987 66.9287 205.623 66.9287 206.315C66.9287 207.058 66.7943 207.728 66.5254 208.325C66.2611 208.918 65.8737 209.373 65.3633 209.692C64.8574 210.007 64.3242 210.164 63.7637 210.164C63.3535 210.164 62.9844 210.077 62.6562 209.904C62.3327 209.731 62.0661 209.512 61.8564 209.248V212.782H60.626ZM61.7402 206.411C61.7402 207.345 61.9294 208.036 62.3076 208.482C62.6859 208.929 63.1439 209.152 63.6816 209.152C64.2285 209.152 64.6956 208.922 65.083 208.462C65.4749 207.997 65.6709 207.279 65.6709 206.309C65.6709 205.383 65.4795 204.691 65.0967 204.23C64.7184 203.77 64.265 203.54 63.7363 203.54C63.2122 203.54 62.7474 203.786 62.3418 204.278C61.9408 204.766 61.7402 205.477 61.7402 206.411ZM71.1055 208.899L71.2832 209.986C70.9368 210.059 70.627 210.096 70.3535 210.096C69.9069 210.096 69.5605 210.025 69.3145 209.884C69.0684 209.743 68.8952 209.558 68.7949 209.33C68.6947 209.098 68.6445 208.612 68.6445 207.874V203.697H67.7422V202.74H68.6445V200.942L69.8682 200.204V202.74H71.1055V203.697H69.8682V207.942C69.8682 208.293 69.8887 208.519 69.9297 208.619C69.9753 208.719 70.0459 208.799 70.1416 208.858C70.2419 208.918 70.3831 208.947 70.5654 208.947C70.7021 208.947 70.8822 208.931 71.1055 208.899ZM72.3223 201.394V199.979H73.5527V201.394H72.3223ZM72.3223 210V202.74H73.5527V210H72.3223ZM74.9746 206.37C74.9746 205.026 75.3483 204.03 76.0957 203.383C76.7201 202.845 77.4811 202.576 78.3789 202.576C79.377 202.576 80.1927 202.904 80.8262 203.561C81.4596 204.212 81.7764 205.115 81.7764 206.268C81.7764 207.202 81.6351 207.938 81.3525 208.476C81.0745 209.009 80.6667 209.424 80.1289 209.72C79.5957 210.016 79.0124 210.164 78.3789 210.164C77.3626 210.164 76.54 209.838 75.9111 209.187C75.2868 208.535 74.9746 207.596 74.9746 206.37ZM76.2393 206.37C76.2393 207.3 76.4421 207.997 76.8477 208.462C77.2533 208.922 77.7637 209.152 78.3789 209.152C78.9896 209.152 79.4977 208.92 79.9033 208.455C80.3089 207.99 80.5117 207.282 80.5117 206.329C80.5117 205.431 80.3066 204.752 79.8965 204.292C79.4909 203.827 78.985 203.595 78.3789 203.595C77.7637 203.595 77.2533 203.825 76.8477 204.285C76.4421 204.745 76.2393 205.44 76.2393 206.37ZM83.2256 210V202.74H84.333V203.772C84.8662 202.975 85.6364 202.576 86.6436 202.576C87.0811 202.576 87.4821 202.656 87.8467 202.815C88.2158 202.97 88.4915 203.175 88.6738 203.431C88.8561 203.686 88.9837 203.989 89.0566 204.34C89.1022 204.568 89.125 204.966 89.125 205.536V210H87.8945V205.584C87.8945 205.083 87.8467 204.709 87.751 204.463C87.6553 204.212 87.4844 204.014 87.2383 203.868C86.9967 203.718 86.7119 203.643 86.3838 203.643C85.8597 203.643 85.4062 203.809 85.0234 204.142C84.6452 204.474 84.4561 205.105 84.4561 206.035V210H83.2256ZM95.0928 210V199.979H99.5361C100.429 199.979 101.108 200.07 101.573 200.252C102.038 200.43 102.41 200.746 102.688 201.202C102.965 201.658 103.104 202.161 103.104 202.713C103.104 203.424 102.874 204.023 102.414 204.511C101.954 204.998 101.243 205.308 100.281 205.44C100.632 205.609 100.899 205.775 101.081 205.939C101.468 206.295 101.835 206.739 102.182 207.272L103.925 210H102.257L100.931 207.915C100.543 207.313 100.224 206.853 99.9736 206.534C99.723 206.215 99.4974 205.992 99.2969 205.864C99.1009 205.737 98.9004 205.648 98.6953 205.598C98.5449 205.566 98.2988 205.55 97.957 205.55H96.4189V210H95.0928ZM96.4189 204.401H99.2695C99.8757 204.401 100.35 204.34 100.691 204.217C101.033 204.089 101.293 203.889 101.471 203.615C101.648 203.337 101.737 203.036 101.737 202.713C101.737 202.239 101.564 201.849 101.218 201.544C100.876 201.239 100.334 201.086 99.5908 201.086H96.4189V204.401ZM110.002 207.662L111.273 207.819C111.073 208.562 110.701 209.139 110.159 209.549C109.617 209.959 108.924 210.164 108.081 210.164C107.019 210.164 106.176 209.838 105.552 209.187C104.932 208.53 104.622 207.612 104.622 206.432C104.622 205.21 104.937 204.262 105.565 203.588C106.194 202.913 107.01 202.576 108.013 202.576C108.983 202.576 109.776 202.907 110.392 203.567C111.007 204.228 111.314 205.158 111.314 206.356C111.314 206.429 111.312 206.539 111.308 206.685H105.894C105.939 207.482 106.165 208.093 106.57 208.517C106.976 208.94 107.482 209.152 108.088 209.152C108.539 209.152 108.924 209.034 109.243 208.797C109.562 208.56 109.815 208.182 110.002 207.662ZM105.962 205.673H110.016C109.961 205.062 109.806 204.604 109.551 204.299C109.159 203.825 108.651 203.588 108.026 203.588C107.461 203.588 106.985 203.777 106.598 204.155C106.215 204.534 106.003 205.039 105.962 205.673ZM112.825 210V202.74H113.933V203.772C114.466 202.975 115.236 202.576 116.243 202.576C116.681 202.576 117.082 202.656 117.446 202.815C117.815 202.97 118.091 203.175 118.273 203.431C118.456 203.686 118.583 203.989 118.656 204.34C118.702 204.568 118.725 204.966 118.725 205.536V210H117.494V205.584C117.494 205.083 117.446 204.709 117.351 204.463C117.255 204.212 117.084 204.014 116.838 203.868C116.596 203.718 116.312 203.643 115.983 203.643C115.459 203.643 115.006 203.809 114.623 204.142C114.245 204.474 114.056 205.105 114.056 206.035V210H112.825ZM125.588 207.662L126.859 207.819C126.659 208.562 126.287 209.139 125.745 209.549C125.203 209.959 124.51 210.164 123.667 210.164C122.605 210.164 121.762 209.838 121.138 209.187C120.518 208.53 120.208 207.612 120.208 206.432C120.208 205.21 120.522 204.262 121.151 203.588C121.78 202.913 122.596 202.576 123.599 202.576C124.569 202.576 125.362 202.907 125.978 203.567C126.593 204.228 126.9 205.158 126.9 206.356C126.9 206.429 126.898 206.539 126.894 206.685H121.479C121.525 207.482 121.751 208.093 122.156 208.517C122.562 208.94 123.068 209.152 123.674 209.152C124.125 209.152 124.51 209.034 124.829 208.797C125.148 208.56 125.401 208.182 125.588 207.662ZM121.548 205.673H125.602C125.547 205.062 125.392 204.604 125.137 204.299C124.745 203.825 124.237 203.588 123.612 203.588C123.047 203.588 122.571 203.777 122.184 204.155C121.801 204.534 121.589 205.039 121.548 205.673ZM129.751 210L127.529 202.74H128.801L129.956 206.931L130.387 208.489C130.405 208.412 130.53 207.913 130.763 206.992L131.918 202.74H133.183L134.27 206.951L134.632 208.339L135.049 206.938L136.293 202.74H137.489L135.22 210H133.941L132.786 205.652L132.506 204.415L131.036 210H129.751ZM143.498 207.662L144.77 207.819C144.569 208.562 144.198 209.139 143.655 209.549C143.113 209.959 142.42 210.164 141.577 210.164C140.515 210.164 139.672 209.838 139.048 209.187C138.428 208.53 138.118 207.612 138.118 206.432C138.118 205.21 138.433 204.262 139.062 203.588C139.69 202.913 140.506 202.576 141.509 202.576C142.479 202.576 143.272 202.907 143.888 203.567C144.503 204.228 144.811 205.158 144.811 206.356C144.811 206.429 144.808 206.539 144.804 206.685H139.39C139.435 207.482 139.661 208.093 140.066 208.517C140.472 208.94 140.978 209.152 141.584 209.152C142.035 209.152 142.42 209.034 142.739 208.797C143.058 208.56 143.311 208.182 143.498 207.662ZM139.458 205.673H143.512C143.457 205.062 143.302 204.604 143.047 204.299C142.655 203.825 142.147 203.588 141.522 203.588C140.957 203.588 140.481 203.777 140.094 204.155C139.711 204.534 139.499 205.039 139.458 205.673ZM151.031 210V209.084C150.571 209.804 149.894 210.164 149.001 210.164C148.422 210.164 147.889 210.005 147.401 209.686C146.918 209.367 146.542 208.922 146.273 208.353C146.009 207.778 145.877 207.12 145.877 206.377C145.877 205.652 145.998 204.996 146.239 204.408C146.481 203.816 146.843 203.362 147.326 203.048C147.809 202.733 148.349 202.576 148.946 202.576C149.384 202.576 149.773 202.67 150.115 202.856C150.457 203.039 150.735 203.278 150.949 203.574V199.979H152.173V210H151.031ZM147.142 206.377C147.142 207.307 147.338 208.002 147.729 208.462C148.121 208.922 148.584 209.152 149.117 209.152C149.655 209.152 150.111 208.934 150.484 208.496C150.863 208.054 151.052 207.382 151.052 206.479C151.052 205.486 150.86 204.757 150.478 204.292C150.095 203.827 149.623 203.595 149.062 203.595C148.516 203.595 148.058 203.818 147.688 204.265C147.324 204.711 147.142 205.415 147.142 206.377Z" fill="#066CD2"/>
<rect x="240" y="190" width="1" height="48" fill="#DADDE1"/>
<path d="M254.216 210H252.985V202.159C252.689 202.442 252.299 202.724 251.816 203.007C251.338 203.289 250.907 203.501 250.524 203.643V202.453C251.213 202.13 251.814 201.738 252.329 201.277C252.844 200.817 253.209 200.37 253.423 199.938H254.216V210ZM258.037 210V208.599H259.438V210C259.438 210.515 259.347 210.93 259.165 211.244C258.983 211.563 258.693 211.809 258.297 211.982L257.955 211.456C258.215 211.342 258.406 211.174 258.529 210.95C258.652 210.731 258.721 210.415 258.734 210H258.037ZM265.215 210V207.601H260.867V206.473L265.44 199.979H266.445V206.473H267.799V207.601H266.445V210H265.215ZM265.215 206.473V201.954L262.077 206.473H265.215ZM269.248 207.683L270.431 207.573C270.531 208.129 270.722 208.533 271.005 208.783C271.287 209.034 271.65 209.159 272.092 209.159C272.47 209.159 272.8 209.073 273.083 208.899C273.37 208.726 273.605 208.496 273.787 208.209C273.969 207.917 274.122 207.525 274.245 207.033C274.368 206.541 274.43 206.04 274.43 205.529C274.43 205.475 274.427 205.393 274.423 205.283C274.177 205.675 273.84 205.994 273.411 206.24C272.987 206.482 272.527 206.603 272.03 206.603C271.201 206.603 270.499 206.302 269.925 205.7C269.351 205.099 269.063 204.306 269.063 203.321C269.063 202.305 269.362 201.487 269.959 200.867C270.561 200.247 271.312 199.938 272.215 199.938C272.867 199.938 273.461 200.113 273.999 200.464C274.541 200.815 274.951 201.316 275.229 201.968C275.512 202.615 275.653 203.554 275.653 204.784C275.653 206.065 275.514 207.086 275.236 207.847C274.958 208.603 274.544 209.18 273.992 209.576C273.445 209.973 272.803 210.171 272.064 210.171C271.281 210.171 270.64 209.954 270.144 209.521C269.647 209.084 269.348 208.471 269.248 207.683ZM274.286 203.26C274.286 202.553 274.097 201.993 273.719 201.578C273.345 201.163 272.894 200.956 272.365 200.956C271.818 200.956 271.342 201.179 270.937 201.626C270.531 202.073 270.328 202.651 270.328 203.362C270.328 204 270.52 204.52 270.902 204.921C271.29 205.317 271.766 205.516 272.331 205.516C272.901 205.516 273.368 205.317 273.732 204.921C274.102 204.52 274.286 203.966 274.286 203.26ZM283.241 202.433L282.018 202.528C281.908 202.045 281.753 201.694 281.553 201.476C281.22 201.125 280.81 200.949 280.322 200.949C279.93 200.949 279.586 201.059 279.29 201.277C278.903 201.56 278.597 201.972 278.374 202.515C278.151 203.057 278.035 203.829 278.025 204.832C278.322 204.381 278.684 204.046 279.112 203.827C279.541 203.608 279.99 203.499 280.459 203.499C281.279 203.499 281.977 203.802 282.551 204.408C283.13 205.01 283.419 205.789 283.419 206.746C283.419 207.375 283.282 207.961 283.009 208.503C282.74 209.041 282.368 209.453 281.895 209.74C281.421 210.027 280.883 210.171 280.281 210.171C279.256 210.171 278.42 209.795 277.772 209.043C277.125 208.286 276.802 207.042 276.802 205.311C276.802 203.374 277.16 201.965 277.875 201.086C278.499 200.32 279.34 199.938 280.397 199.938C281.186 199.938 281.831 200.159 282.332 200.601C282.838 201.043 283.141 201.653 283.241 202.433ZM278.217 206.753C278.217 207.177 278.306 207.582 278.483 207.97C278.666 208.357 278.919 208.653 279.242 208.858C279.566 209.059 279.905 209.159 280.261 209.159C280.78 209.159 281.227 208.95 281.601 208.53C281.974 208.111 282.161 207.541 282.161 206.821C282.161 206.129 281.977 205.584 281.607 205.188C281.238 204.786 280.773 204.586 280.213 204.586C279.657 204.586 279.185 204.786 278.798 205.188C278.41 205.584 278.217 206.106 278.217 206.753Z" fill="#466072"/>
<rect x="387" y="190" width="1" height="48" fill="#DADDE1"/>
<path d="M399.507 208.38V205.632H396.779V204.483H399.507V201.756H400.669V204.483H403.396V205.632H400.669V208.38H399.507ZM408.735 201.291V200.108H415.223V201.065C414.585 201.744 413.951 202.647 413.322 203.772C412.698 204.898 412.215 206.056 411.873 207.245C411.627 208.084 411.47 209.002 411.401 210H410.137C410.15 209.212 410.305 208.259 410.602 207.143C410.898 206.026 411.322 204.951 411.873 203.916C412.429 202.877 413.019 202.002 413.644 201.291H408.735ZM421.081 210H419.851V202.159C419.554 202.442 419.165 202.724 418.682 203.007C418.203 203.289 417.772 203.501 417.39 203.643V202.453C418.078 202.13 418.679 201.738 419.194 201.277C419.709 200.817 420.074 200.37 420.288 199.938H421.081V210ZM424.472 202.385C424.472 201.669 424.652 201.061 425.012 200.56C425.372 200.058 425.894 199.808 426.577 199.808C427.206 199.808 427.726 200.033 428.136 200.484C428.55 200.931 428.758 201.59 428.758 202.46C428.758 203.308 428.548 203.962 428.129 204.422C427.714 204.878 427.201 205.105 426.591 205.105C425.985 205.105 425.479 204.88 425.073 204.429C424.672 203.978 424.472 203.296 424.472 202.385ZM426.611 200.655C426.306 200.655 426.051 200.787 425.846 201.052C425.645 201.316 425.545 201.801 425.545 202.508C425.545 203.15 425.647 203.604 425.853 203.868C426.058 204.128 426.311 204.258 426.611 204.258C426.921 204.258 427.176 204.126 427.377 203.861C427.582 203.597 427.685 203.114 427.685 202.412C427.685 201.765 427.582 201.312 427.377 201.052C427.172 200.787 426.917 200.655 426.611 200.655ZM426.618 210.369L432.101 199.808H433.099L427.637 210.369H426.618ZM430.952 207.648C430.952 206.928 431.132 206.32 431.492 205.823C431.852 205.322 432.376 205.071 433.064 205.071C433.693 205.071 434.213 205.297 434.623 205.748C435.038 206.195 435.245 206.853 435.245 207.724C435.245 208.571 435.035 209.225 434.616 209.686C434.201 210.141 433.687 210.369 433.071 210.369C432.465 210.369 431.959 210.144 431.554 209.692C431.153 209.237 430.952 208.555 430.952 207.648ZM433.099 205.919C432.789 205.919 432.531 206.051 432.326 206.315C432.126 206.58 432.025 207.065 432.025 207.771C432.025 208.41 432.128 208.861 432.333 209.125C432.538 209.389 432.791 209.521 433.092 209.521C433.406 209.521 433.664 209.389 433.864 209.125C434.069 208.861 434.172 208.378 434.172 207.676C434.172 207.029 434.069 206.575 433.864 206.315C433.659 206.051 433.404 205.919 433.099 205.919Z" fill="#42B72A"/>
<rect x="534" y="190" width="1" height="48" fill="#DADDE1"/>
<path d="M5 238H535V286H5V238Z" fill="white"/>
<path d="M14.0254 258V247.979H17.7852C18.5508 247.979 19.1637 248.081 19.624 248.286C20.0889 248.487 20.4512 248.799 20.7109 249.223C20.9753 249.642 21.1074 250.082 21.1074 250.542C21.1074 250.97 20.9912 251.374 20.7588 251.752C20.5264 252.13 20.1755 252.436 19.7061 252.668C20.3122 252.846 20.777 253.149 21.1006 253.577C21.4287 254.006 21.5928 254.511 21.5928 255.095C21.5928 255.564 21.4925 256.002 21.292 256.407C21.096 256.808 20.8522 257.118 20.5605 257.337C20.2689 257.556 19.902 257.722 19.46 257.836C19.0225 257.945 18.4847 258 17.8467 258H14.0254ZM15.3516 252.189H17.5186C18.1064 252.189 18.528 252.151 18.7832 252.073C19.1204 251.973 19.3734 251.807 19.542 251.574C19.7152 251.342 19.8018 251.05 19.8018 250.699C19.8018 250.367 19.722 250.075 19.5625 249.824C19.403 249.569 19.1751 249.396 18.8789 249.305C18.5827 249.209 18.0745 249.161 17.3545 249.161H15.3516V252.189ZM15.3516 256.817H17.8467C18.2751 256.817 18.5758 256.801 18.749 256.77C19.0544 256.715 19.3096 256.624 19.5146 256.496C19.7197 256.368 19.8883 256.184 20.0205 255.942C20.1527 255.696 20.2188 255.414 20.2188 255.095C20.2188 254.721 20.123 254.397 19.9316 254.124C19.7402 253.846 19.4736 253.652 19.1318 253.543C18.7946 253.429 18.307 253.372 17.6689 253.372H15.3516V256.817ZM23.2676 249.394V247.979H24.498V249.394H23.2676ZM23.2676 258V250.74H24.498V258H23.2676ZM26.3506 258V247.979H27.5811V258H26.3506ZM29.4678 258V247.979H30.6982V258H29.4678ZM32.6191 249.394V247.979H33.8496V249.394H32.6191ZM32.6191 258V250.74H33.8496V258H32.6191ZM35.7295 258V250.74H36.8369V251.772C37.3701 250.975 38.1403 250.576 39.1475 250.576C39.585 250.576 39.986 250.656 40.3506 250.815C40.7197 250.97 40.9954 251.175 41.1777 251.431C41.36 251.686 41.4876 251.989 41.5605 252.34C41.6061 252.568 41.6289 252.966 41.6289 253.536V258H40.3984V253.584C40.3984 253.083 40.3506 252.709 40.2549 252.463C40.1592 252.212 39.9883 252.014 39.7422 251.868C39.5007 251.718 39.2158 251.643 38.8877 251.643C38.3636 251.643 37.9102 251.809 37.5273 252.142C37.1491 252.474 36.96 253.105 36.96 254.035V258H35.7295ZM43.2969 258.602L44.4932 258.779C44.5433 259.148 44.6823 259.417 44.9102 259.586C45.2155 259.814 45.6325 259.928 46.1611 259.928C46.7308 259.928 47.1706 259.814 47.4805 259.586C47.7904 259.358 48 259.039 48.1094 258.629C48.1732 258.378 48.2028 257.852 48.1982 257.05C47.6605 257.683 46.9906 258 46.1885 258C45.1904 258 44.418 257.64 43.8711 256.92C43.3242 256.2 43.0508 255.336 43.0508 254.329C43.0508 253.636 43.1761 252.998 43.4268 252.415C43.6774 251.827 44.0397 251.374 44.5137 251.055C44.9922 250.736 45.5527 250.576 46.1953 250.576C47.0521 250.576 47.7585 250.923 48.3145 251.615V250.74H49.4492V257.016C49.4492 258.146 49.333 258.946 49.1006 259.415C48.8727 259.889 48.5081 260.263 48.0068 260.536C47.5101 260.81 46.8971 260.946 46.168 260.946C45.3021 260.946 44.6025 260.75 44.0693 260.358C43.5361 259.971 43.2786 259.385 43.2969 258.602ZM44.3154 254.24C44.3154 255.193 44.5046 255.888 44.8828 256.325C45.2611 256.763 45.735 256.981 46.3047 256.981C46.8698 256.981 47.3438 256.765 47.7266 256.332C48.1094 255.895 48.3008 255.211 48.3008 254.281C48.3008 253.393 48.1025 252.723 47.7061 252.271C47.3141 251.82 46.8402 251.595 46.2842 251.595C45.7373 251.595 45.2725 251.818 44.8896 252.265C44.5068 252.707 44.3154 253.365 44.3154 254.24ZM55.5947 258V247.979H56.9209V258H55.5947ZM58.6162 255.833L59.833 255.642C59.9014 256.129 60.0905 256.503 60.4004 256.763C60.7148 257.022 61.1523 257.152 61.7129 257.152C62.278 257.152 62.6973 257.038 62.9707 256.811C63.2441 256.578 63.3809 256.307 63.3809 255.997C63.3809 255.719 63.2601 255.5 63.0186 255.341C62.8499 255.231 62.4307 255.092 61.7607 254.924C60.8584 254.696 60.2318 254.5 59.8809 254.336C59.5345 254.167 59.2702 253.937 59.0879 253.646C58.9102 253.349 58.8213 253.023 58.8213 252.668C58.8213 252.344 58.8942 252.046 59.04 251.772C59.1904 251.494 59.3932 251.264 59.6484 251.082C59.8398 250.941 60.0996 250.822 60.4277 250.727C60.7604 250.626 61.1159 250.576 61.4941 250.576C62.0638 250.576 62.5628 250.658 62.9912 250.822C63.4242 250.986 63.7432 251.21 63.9482 251.492C64.1533 251.77 64.2946 252.144 64.3721 252.613L63.1689 252.777C63.1143 252.404 62.9548 252.112 62.6904 251.902C62.4307 251.693 62.0615 251.588 61.583 251.588C61.0179 251.588 60.6146 251.681 60.373 251.868C60.1315 252.055 60.0107 252.274 60.0107 252.524C60.0107 252.684 60.0609 252.827 60.1611 252.955C60.2614 253.087 60.4186 253.197 60.6328 253.283C60.7559 253.329 61.1182 253.434 61.7197 253.598C62.5902 253.83 63.1963 254.021 63.5381 254.172C63.8844 254.318 64.1556 254.532 64.3516 254.814C64.5475 255.097 64.6455 255.448 64.6455 255.867C64.6455 256.277 64.5247 256.665 64.2832 257.029C64.0462 257.389 63.7021 257.67 63.251 257.87C62.7998 258.066 62.2894 258.164 61.7197 258.164C60.7764 258.164 60.0563 257.968 59.5596 257.576C59.0674 257.184 58.7529 256.603 58.6162 255.833ZM65.6162 255.833L66.833 255.642C66.9014 256.129 67.0905 256.503 67.4004 256.763C67.7148 257.022 68.1523 257.152 68.7129 257.152C69.278 257.152 69.6973 257.038 69.9707 256.811C70.2441 256.578 70.3809 256.307 70.3809 255.997C70.3809 255.719 70.2601 255.5 70.0186 255.341C69.8499 255.231 69.4307 255.092 68.7607 254.924C67.8584 254.696 67.2318 254.5 66.8809 254.336C66.5345 254.167 66.2702 253.937 66.0879 253.646C65.9102 253.349 65.8213 253.023 65.8213 252.668C65.8213 252.344 65.8942 252.046 66.04 251.772C66.1904 251.494 66.3932 251.264 66.6484 251.082C66.8398 250.941 67.0996 250.822 67.4277 250.727C67.7604 250.626 68.1159 250.576 68.4941 250.576C69.0638 250.576 69.5628 250.658 69.9912 250.822C70.4242 250.986 70.7432 251.21 70.9482 251.492C71.1533 251.77 71.2946 252.144 71.3721 252.613L70.1689 252.777C70.1143 252.404 69.9548 252.112 69.6904 251.902C69.4307 251.693 69.0615 251.588 68.583 251.588C68.0179 251.588 67.6146 251.681 67.373 251.868C67.1315 252.055 67.0107 252.274 67.0107 252.524C67.0107 252.684 67.0609 252.827 67.1611 252.955C67.2614 253.087 67.4186 253.197 67.6328 253.283C67.7559 253.329 68.1182 253.434 68.7197 253.598C69.5902 253.83 70.1963 254.021 70.5381 254.172C70.8844 254.318 71.1556 254.532 71.3516 254.814C71.5475 255.097 71.6455 255.448 71.6455 255.867C71.6455 256.277 71.5247 256.665 71.2832 257.029C71.0462 257.389 70.7021 257.67 70.251 257.87C69.7998 258.066 69.2894 258.164 68.7197 258.164C67.7764 258.164 67.0563 257.968 66.5596 257.576C66.0674 257.184 65.7529 256.603 65.6162 255.833ZM77.8662 258V256.934C77.3011 257.754 76.5332 258.164 75.5625 258.164C75.1341 258.164 74.7331 258.082 74.3594 257.918C73.9902 257.754 73.7145 257.549 73.5322 257.303C73.3545 257.052 73.2292 256.747 73.1562 256.387C73.1061 256.145 73.0811 255.762 73.0811 255.238V250.74H74.3115V254.767C74.3115 255.409 74.3366 255.842 74.3867 256.065C74.4642 256.389 74.6283 256.644 74.8789 256.831C75.1296 257.013 75.4395 257.104 75.8086 257.104C76.1777 257.104 76.5241 257.011 76.8477 256.824C77.1712 256.633 77.3991 256.375 77.5312 256.052C77.668 255.724 77.7363 255.25 77.7363 254.63V250.74H78.9668V258H77.8662ZM85.8711 255.662L87.1426 255.819C86.9421 256.562 86.5706 257.139 86.0283 257.549C85.486 257.959 84.7933 258.164 83.9502 258.164C82.8883 258.164 82.0452 257.838 81.4209 257.187C80.8011 256.53 80.4912 255.612 80.4912 254.432C80.4912 253.21 80.8057 252.262 81.4346 251.588C82.0635 250.913 82.8792 250.576 83.8818 250.576C84.8525 250.576 85.6455 250.907 86.2607 251.567C86.876 252.228 87.1836 253.158 87.1836 254.356C87.1836 254.429 87.1813 254.539 87.1768 254.685H81.7627C81.8083 255.482 82.0339 256.093 82.4395 256.517C82.8451 256.94 83.3509 257.152 83.957 257.152C84.4082 257.152 84.7933 257.034 85.1123 256.797C85.4313 256.56 85.6842 256.182 85.8711 255.662ZM81.8311 253.673H85.8848C85.8301 253.062 85.6751 252.604 85.4199 252.299C85.028 251.825 84.5199 251.588 83.8955 251.588C83.3304 251.588 82.8542 251.777 82.4668 252.155C82.084 252.534 81.8721 253.039 81.8311 253.673Z" fill="#066CD2"/>
<rect x="240" y="238" width="1" height="48" fill="#DADDE1"/>
<path d="M249.581 255.375L250.873 255.266C250.969 255.895 251.19 256.368 251.536 256.688C251.887 257.002 252.309 257.159 252.801 257.159C253.393 257.159 253.895 256.936 254.305 256.489C254.715 256.043 254.92 255.45 254.92 254.712C254.92 254.01 254.722 253.456 254.325 253.051C253.933 252.645 253.418 252.442 252.78 252.442C252.384 252.442 252.026 252.534 251.707 252.716C251.388 252.894 251.137 253.126 250.955 253.413L249.8 253.263L250.771 248.115H255.754V249.291H251.755L251.215 251.984C251.816 251.565 252.448 251.355 253.108 251.355C253.983 251.355 254.722 251.659 255.323 252.265C255.925 252.871 256.226 253.65 256.226 254.603C256.226 255.509 255.961 256.293 255.433 256.954C254.79 257.765 253.913 258.171 252.801 258.171C251.889 258.171 251.144 257.916 250.565 257.405C249.991 256.895 249.663 256.218 249.581 255.375ZM261.318 258V255.601H256.971V254.473L261.544 247.979H262.549V254.473H263.902V255.601H262.549V258H261.318ZM261.318 254.473V249.954L258.181 254.473H261.318ZM265.167 253.058C265.167 251.873 265.288 250.92 265.529 250.2C265.775 249.476 266.138 248.917 266.616 248.525C267.099 248.133 267.705 247.938 268.435 247.938C268.972 247.938 269.444 248.047 269.85 248.266C270.255 248.48 270.59 248.792 270.854 249.202C271.119 249.608 271.326 250.104 271.477 250.692C271.627 251.276 271.702 252.064 271.702 253.058C271.702 254.233 271.581 255.184 271.34 255.908C271.098 256.628 270.736 257.187 270.253 257.583C269.774 257.975 269.168 258.171 268.435 258.171C267.468 258.171 266.71 257.825 266.158 257.132C265.497 256.298 265.167 254.94 265.167 253.058ZM266.432 253.058C266.432 254.703 266.623 255.799 267.006 256.346C267.393 256.888 267.869 257.159 268.435 257.159C269 257.159 269.474 256.886 269.856 256.339C270.244 255.792 270.438 254.698 270.438 253.058C270.438 251.408 270.244 250.312 269.856 249.77C269.474 249.227 268.995 248.956 268.421 248.956C267.856 248.956 267.405 249.195 267.067 249.674C266.644 250.285 266.432 251.412 266.432 253.058Z" fill="#466072"/>
<rect x="387" y="238" width="1" height="48" fill="#DADDE1"/>
<path d="M399.507 256.38V253.632H396.779V252.483H399.507V249.756H400.669V252.483H403.396V253.632H400.669V256.38H399.507ZM408.838 255.683L410.021 255.573C410.121 256.129 410.312 256.533 410.595 256.783C410.877 257.034 411.24 257.159 411.682 257.159C412.06 257.159 412.39 257.073 412.673 256.899C412.96 256.726 413.195 256.496 413.377 256.209C413.559 255.917 413.712 255.525 413.835 255.033C413.958 254.541 414.02 254.04 414.02 253.529C414.02 253.475 414.017 253.393 414.013 253.283C413.767 253.675 413.429 253.994 413.001 254.24C412.577 254.482 412.117 254.603 411.62 254.603C410.791 254.603 410.089 254.302 409.515 253.7C408.94 253.099 408.653 252.306 408.653 251.321C408.653 250.305 408.952 249.487 409.549 248.867C410.15 248.247 410.902 247.938 411.805 247.938C412.456 247.938 413.051 248.113 413.589 248.464C414.131 248.815 414.541 249.316 414.819 249.968C415.102 250.615 415.243 251.554 415.243 252.784C415.243 254.065 415.104 255.086 414.826 255.847C414.548 256.603 414.133 257.18 413.582 257.576C413.035 257.973 412.393 258.171 411.654 258.171C410.87 258.171 410.23 257.954 409.733 257.521C409.237 257.084 408.938 256.471 408.838 255.683ZM413.876 251.26C413.876 250.553 413.687 249.993 413.309 249.578C412.935 249.163 412.484 248.956 411.955 248.956C411.408 248.956 410.932 249.179 410.526 249.626C410.121 250.073 409.918 250.651 409.918 251.362C409.918 252 410.109 252.52 410.492 252.921C410.88 253.317 411.356 253.516 411.921 253.516C412.491 253.516 412.958 253.317 413.322 252.921C413.691 252.52 413.876 251.966 413.876 251.26ZM416.528 249.291V248.108H423.016V249.065C422.378 249.744 421.744 250.647 421.115 251.772C420.491 252.898 420.008 254.056 419.666 255.245C419.42 256.084 419.263 257.002 419.194 258H417.93C417.943 257.212 418.098 256.259 418.395 255.143C418.691 254.026 419.115 252.951 419.666 251.916C420.222 250.877 420.812 250.002 421.437 249.291H416.528ZM424.472 250.385C424.472 249.669 424.652 249.061 425.012 248.56C425.372 248.058 425.894 247.808 426.577 247.808C427.206 247.808 427.726 248.033 428.136 248.484C428.55 248.931 428.758 249.59 428.758 250.46C428.758 251.308 428.548 251.962 428.129 252.422C427.714 252.878 427.201 253.105 426.591 253.105C425.985 253.105 425.479 252.88 425.073 252.429C424.672 251.978 424.472 251.296 424.472 250.385ZM426.611 248.655C426.306 248.655 426.051 248.787 425.846 249.052C425.645 249.316 425.545 249.801 425.545 250.508C425.545 251.15 425.647 251.604 425.853 251.868C426.058 252.128 426.311 252.258 426.611 252.258C426.921 252.258 427.176 252.126 427.377 251.861C427.582 251.597 427.685 251.114 427.685 250.412C427.685 249.765 427.582 249.312 427.377 249.052C427.172 248.787 426.917 248.655 426.611 248.655ZM426.618 258.369L432.101 247.808H433.099L427.637 258.369H426.618ZM430.952 255.648C430.952 254.928 431.132 254.32 431.492 253.823C431.852 253.322 432.376 253.071 433.064 253.071C433.693 253.071 434.213 253.297 434.623 253.748C435.038 254.195 435.245 254.853 435.245 255.724C435.245 256.571 435.035 257.225 434.616 257.686C434.201 258.141 433.687 258.369 433.071 258.369C432.465 258.369 431.959 258.144 431.554 257.692C431.153 257.237 430.952 256.555 430.952 255.648ZM433.099 253.919C432.789 253.919 432.531 254.051 432.326 254.315C432.126 254.58 432.025 255.065 432.025 255.771C432.025 256.41 432.128 256.861 432.333 257.125C432.538 257.389 432.791 257.521 433.092 257.521C433.406 257.521 433.664 257.389 433.864 257.125C434.069 256.861 434.172 256.378 434.172 255.676C434.172 255.029 434.069 254.575 433.864 254.315C433.659 254.051 433.404 253.919 433.099 253.919Z" fill="#42B72A"/>
<rect x="534" y="238" width="1" height="48" fill="#DADDE1"/>
<rect x="5.5" y="5.5" width="529" height="280" stroke="#DADDE1"/>
<defs>
<clipPath id="clip0">
<path d="M5 5H241V46H5V5Z" fill="white"/>
</clipPath>
<clipPath id="clip1">
<path d="M241 5H388V46H241V5Z" fill="white"/>
</clipPath>
<clipPath id="clip2">
<rect x="249" y="19" width="35" height="14" fill="white"/>
</clipPath>
<clipPath id="clip3">
<path d="M388 5H535V46H388V5Z" fill="white"/>
</clipPath>
</defs>
</svg>
