<svg width="488" height="221" viewBox="0 0 488 221" fill="none" xmlns="http://www.w3.org/2000/svg">
    <rect x="0.5" y="0.5" width="487" height="220" rx="7.5" fill="white" stroke="#D2D9E1"/>
    <path d="M16.002 15.7129H14.3496V19H12.8672V10.4688H15.8672C16.8516 10.4688 17.6113 10.6895 18.1465 11.1309C18.6816 11.5723 18.9492 12.2109 18.9492 13.0469C18.9492 13.6172 18.8105 14.0957 18.5332 14.4824C18.2598 14.8652 17.877 15.1602 17.3848 15.3672L19.3008 18.9238V19H17.7129L16.002 15.7129ZM14.3496 14.5234H15.873C16.373 14.5234 16.7637 14.3984 17.0449 14.1484C17.3262 13.8945 17.4668 13.5488 17.4668 13.1113C17.4668 12.6543 17.3359 12.3008 17.0742 12.0508C16.8164 11.8008 16.4297 11.6719 15.9141 11.6641H14.3496V14.5234ZM23.0098 19.1172C22.1074 19.1172 21.375 18.834 20.8125 18.2676C20.2539 17.6973 19.9746 16.9395 19.9746 15.9941V15.8184C19.9746 15.1855 20.0957 14.6211 20.3379 14.125C20.584 13.625 20.9277 13.2363 21.3691 12.959C21.8105 12.6816 22.3027 12.543 22.8457 12.543C23.709 12.543 24.375 12.8184 24.8438 13.3691C25.3164 13.9199 25.5527 14.6992 25.5527 15.707V16.2812H21.4102C21.4531 16.8047 21.627 17.2188 21.9316 17.5234C22.2402 17.8281 22.627 17.9805 23.0918 17.9805C23.7441 17.9805 24.2754 17.7168 24.6855 17.1895L25.4531 17.9219C25.1992 18.3008 24.8594 18.5957 24.4336 18.8066C24.0117 19.0137 23.5371 19.1172 23.0098 19.1172ZM22.8398 13.6855C22.4492 13.6855 22.1328 13.8223 21.8906 14.0957C21.6523 14.3691 21.5 14.75 21.4336 15.2383H24.1465V15.1328C24.1152 14.6562 23.9883 14.2969 23.7656 14.0547C23.543 13.8086 23.2344 13.6855 22.8398 13.6855ZM28.8164 17.1953L30.1582 12.6602H31.6289L29.4316 19H28.1953L25.9805 12.6602H27.457L28.8164 17.1953ZM35.2324 19.1172C34.3301 19.1172 33.5977 18.834 33.0352 18.2676C32.4766 17.6973 32.1973 16.9395 32.1973 15.9941V15.8184C32.1973 15.1855 32.3184 14.6211 32.5605 14.125C32.8066 13.625 33.1504 13.2363 33.5918 12.959C34.0332 12.6816 34.5254 12.543 35.0684 12.543C35.9316 12.543 36.5977 12.8184 37.0664 13.3691C37.5391 13.9199 37.7754 14.6992 37.7754 15.707V16.2812H33.6328C33.6758 16.8047 33.8496 17.2188 34.1543 17.5234C34.4629 17.8281 34.8496 17.9805 35.3145 17.9805C35.9668 17.9805 36.498 17.7168 36.9082 17.1895L37.6758 17.9219C37.4219 18.3008 37.082 18.5957 36.6562 18.8066C36.2344 19.0137 35.7598 19.1172 35.2324 19.1172ZM35.0625 13.6855C34.6719 13.6855 34.3555 13.8223 34.1133 14.0957C33.875 14.3691 33.7227 14.75 33.6562 15.2383H36.3691V15.1328C36.3379 14.6562 36.2109 14.2969 35.9883 14.0547C35.7656 13.8086 35.457 13.6855 35.0625 13.6855ZM40.207 12.6602L40.248 13.3926C40.7168 12.8262 41.332 12.543 42.0938 12.543C43.4141 12.543 44.0859 13.2988 44.1094 14.8105V19H42.6855V14.8926C42.6855 14.4902 42.5977 14.1934 42.4219 14.002C42.25 13.8066 41.9668 13.709 41.5723 13.709C40.998 13.709 40.5703 13.9688 40.2891 14.4883V19H38.8652V12.6602H40.207ZM49.4062 18.3789C48.9883 18.8711 48.3945 19.1172 47.625 19.1172C46.9375 19.1172 46.416 18.916 46.0605 18.5137C45.709 18.1113 45.5332 17.5293 45.5332 16.7676V12.6602H46.957V16.75C46.957 17.5547 47.291 17.957 47.959 17.957C48.6504 17.957 49.1172 17.709 49.3594 17.2129V12.6602H50.7832V19H49.4414L49.4062 18.3789ZM55.0254 19.1172C54.123 19.1172 53.3906 18.834 52.8281 18.2676C52.2695 17.6973 51.9902 16.9395 51.9902 15.9941V15.8184C51.9902 15.1855 52.1113 14.6211 52.3535 14.125C52.5996 13.625 52.9434 13.2363 53.3848 12.959C53.8262 12.6816 54.3184 12.543 54.8613 12.543C55.7246 12.543 56.3906 12.8184 56.8594 13.3691C57.332 13.9199 57.5684 14.6992 57.5684 15.707V16.2812H53.4258C53.4688 16.8047 53.6426 17.2188 53.9473 17.5234C54.2559 17.8281 54.6426 17.9805 55.1074 17.9805C55.7598 17.9805 56.291 17.7168 56.7012 17.1895L57.4688 17.9219C57.2148 18.3008 56.875 18.5957 56.4492 18.8066C56.0273 19.0137 55.5527 19.1172 55.0254 19.1172ZM54.8555 13.6855C54.4648 13.6855 54.1484 13.8223 53.9062 14.0957C53.668 14.3691 53.5156 14.75 53.4492 15.2383H56.1621V15.1328C56.1309 14.6562 56.0039 14.2969 55.7812 14.0547C55.5586 13.8086 55.25 13.6855 54.8555 13.6855ZM61.8047 19V10.4688H64.3242C65.0781 10.4688 65.7461 10.6367 66.3281 10.9727C66.9141 11.3086 67.3672 11.7852 67.6875 12.4023C68.0078 13.0195 68.168 13.7266 68.168 14.5234V14.9512C68.168 15.7598 68.0059 16.4707 67.6816 17.084C67.3613 17.6973 66.9023 18.1699 66.3047 18.502C65.7109 18.834 65.0293 19 64.2598 19H61.8047ZM63.2871 11.6641V17.8164H64.2539C65.0312 17.8164 65.627 17.5742 66.041 17.0898C66.459 16.6016 66.6719 15.9023 66.6797 14.9922V14.5176C66.6797 13.5918 66.4785 12.8848 66.0762 12.3965C65.6738 11.9082 65.0898 11.6641 64.3242 11.6641H63.2871ZM71.7246 16.9609L73.0137 12.6602H74.5312L72.0117 19.9609C71.625 21.0273 70.9688 21.5605 70.043 21.5605C69.8359 21.5605 69.6074 21.5254 69.3574 21.4551V20.3535L69.627 20.3711C69.9863 20.3711 70.2559 20.3047 70.4355 20.1719C70.6191 20.043 70.7637 19.8242 70.8691 19.5156L71.0742 18.9707L68.8477 12.6602H70.3828L71.7246 16.9609ZM76.6758 12.6602L76.7168 13.3926C77.1855 12.8262 77.8008 12.543 78.5625 12.543C79.8828 12.543 80.5547 13.2988 80.5781 14.8105V19H79.1543V14.8926C79.1543 14.4902 79.0664 14.1934 78.8906 14.002C78.7188 13.8066 78.4355 13.709 78.041 13.709C77.4668 13.709 77.0391 13.9688 76.7578 14.4883V19H75.334V12.6602H76.6758ZM85.8223 19C85.7598 18.8789 85.7051 18.6816 85.6582 18.4082C85.2051 18.8809 84.6504 19.1172 83.9941 19.1172C83.3574 19.1172 82.8379 18.9355 82.4355 18.5723C82.0332 18.209 81.832 17.7598 81.832 17.2246C81.832 16.5488 82.082 16.0312 82.582 15.6719C83.0859 15.3086 83.8047 15.127 84.7383 15.127H85.6113V14.7109C85.6113 14.3828 85.5195 14.1211 85.3359 13.9258C85.1523 13.7266 84.873 13.627 84.498 13.627C84.1738 13.627 83.9082 13.709 83.7012 13.873C83.4941 14.0332 83.3906 14.2383 83.3906 14.4883H81.9668C81.9668 14.1406 82.082 13.8164 82.3125 13.5156C82.543 13.2109 82.8555 12.9727 83.25 12.8008C83.6484 12.6289 84.0918 12.543 84.5801 12.543C85.3223 12.543 85.9141 12.7305 86.3555 13.1055C86.7969 13.4766 87.0234 14 87.0352 14.6758V17.5352C87.0352 18.1055 87.1152 18.5605 87.2754 18.9004V19H85.8223ZM84.2578 17.9746C84.5391 17.9746 84.8027 17.9062 85.0488 17.7695C85.2988 17.6328 85.4863 17.4492 85.6113 17.2188V16.0234H84.8438C84.3164 16.0234 83.9199 16.1152 83.6543 16.2988C83.3887 16.4824 83.2559 16.7422 83.2559 17.0781C83.2559 17.3516 83.3457 17.5703 83.5254 17.7344C83.709 17.8945 83.9531 17.9746 84.2578 17.9746ZM89.8652 12.6602L89.9062 13.3223C90.3516 12.8027 90.9609 12.543 91.7344 12.543C92.582 12.543 93.1621 12.8672 93.4746 13.5156C93.9355 12.8672 94.584 12.543 95.4199 12.543C96.1191 12.543 96.6387 12.7363 96.9785 13.123C97.3223 13.5098 97.498 14.0801 97.5059 14.834V19H96.082V14.875C96.082 14.4727 95.9941 14.1777 95.8184 13.9902C95.6426 13.8027 95.3516 13.709 94.9453 13.709C94.6211 13.709 94.3555 13.7969 94.1484 13.9727C93.9453 14.1445 93.8027 14.3711 93.7207 14.6523L93.7266 19H92.3027V14.8281C92.2832 14.082 91.9023 13.709 91.1602 13.709C90.5898 13.709 90.1855 13.9414 89.9473 14.4062V19H88.5234V12.6602H89.8652ZM100.482 19H99.0586V12.6602H100.482V19ZM98.9707 11.0137C98.9707 10.7949 99.0391 10.6133 99.1758 10.4688C99.3164 10.3242 99.5156 10.252 99.7734 10.252C100.031 10.252 100.23 10.3242 100.371 10.4688C100.512 10.6133 100.582 10.7949 100.582 11.0137C100.582 11.2285 100.512 11.4082 100.371 11.5527C100.23 11.6934 100.031 11.7637 99.7734 11.7637C99.5156 11.7637 99.3164 11.6934 99.1758 11.5527C99.0391 11.4082 98.9707 11.2285 98.9707 11.0137ZM104.643 17.9805C104.998 17.9805 105.293 17.877 105.527 17.6699C105.762 17.4629 105.887 17.207 105.902 16.9023H107.244C107.229 17.2969 107.105 17.666 106.875 18.0098C106.645 18.3496 106.332 18.6191 105.938 18.8184C105.543 19.0176 105.117 19.1172 104.66 19.1172C103.773 19.1172 103.07 18.8301 102.551 18.2559C102.031 17.6816 101.771 16.8887 101.771 15.877V15.7305C101.771 14.7656 102.029 13.9941 102.545 13.416C103.061 12.834 103.764 12.543 104.654 12.543C105.408 12.543 106.021 12.7637 106.494 13.2051C106.971 13.6426 107.221 14.2188 107.244 14.9336H105.902C105.887 14.5703 105.762 14.2715 105.527 14.0371C105.297 13.8027 105.002 13.6855 104.643 13.6855C104.182 13.6855 103.826 13.8535 103.576 14.1895C103.326 14.5215 103.199 15.0273 103.195 15.707V15.9355C103.195 16.623 103.318 17.1367 103.564 17.4766C103.814 17.8125 104.174 17.9805 104.643 17.9805ZM111.873 17.2773C111.873 17.0234 111.768 16.8301 111.557 16.6973C111.35 16.5645 111.004 16.4473 110.52 16.3457C110.035 16.2441 109.631 16.1152 109.307 15.959C108.596 15.6152 108.24 15.1172 108.24 14.4648C108.24 13.918 108.471 13.4609 108.932 13.0938C109.393 12.7266 109.979 12.543 110.689 12.543C111.447 12.543 112.059 12.7305 112.523 13.1055C112.992 13.4805 113.227 13.9668 113.227 14.5645H111.803C111.803 14.291 111.701 14.0645 111.498 13.8848C111.295 13.7012 111.025 13.6094 110.689 13.6094C110.377 13.6094 110.121 13.6816 109.922 13.8262C109.727 13.9707 109.629 14.1641 109.629 14.4062C109.629 14.625 109.721 14.7949 109.904 14.916C110.088 15.0371 110.459 15.1602 111.018 15.2852C111.576 15.4062 112.014 15.5527 112.33 15.7246C112.65 15.8926 112.887 16.0957 113.039 16.334C113.195 16.5723 113.273 16.8613 113.273 17.2012C113.273 17.7715 113.037 18.2344 112.564 18.5898C112.092 18.9414 111.473 19.1172 110.707 19.1172C110.188 19.1172 109.725 19.0234 109.318 18.8359C108.912 18.6484 108.596 18.3906 108.369 18.0625C108.143 17.7344 108.029 17.3809 108.029 17.002H109.412C109.432 17.3379 109.559 17.5977 109.793 17.7812C110.027 17.9609 110.338 18.0508 110.725 18.0508C111.1 18.0508 111.385 17.9805 111.58 17.8398C111.775 17.6953 111.873 17.5078 111.873 17.2773Z" fill="#181818"/>
    <rect x="8" y="37" width="472" height="1" fill="#EEEEEE"/>
    <path d="M470.349 30.8511H471.236V31.5146H470.349V33H469.531V31.5146H466.618V31.0356L469.483 26.6016H470.349V30.8511ZM467.541 30.8511H469.531V27.7134L469.435 27.8892L467.541 30.8511ZM473.381 30.7983L472.871 31.3301V33H472.058V26.25H472.871V30.3325L473.306 29.8096L474.787 28.2451H475.776L473.926 30.2314L475.991 33H475.038L473.381 30.7983Z" fill="#606469" fill-opacity="0.7"/>
    <rect x="8" y="74" width="472" height="1" fill="#EEEEEE"/>
    <path d="M468.099 66.4053H468.709C469.093 66.3994 469.395 66.2983 469.615 66.1021C469.834 65.9058 469.944 65.6406 469.944 65.3066C469.944 64.5566 469.571 64.1816 468.824 64.1816C468.472 64.1816 468.191 64.2827 467.98 64.4849C467.772 64.6841 467.668 64.9492 467.668 65.2803H466.855C466.855 64.7734 467.04 64.353 467.409 64.019C467.781 63.6821 468.252 63.5137 468.824 63.5137C469.427 63.5137 469.9 63.6733 470.243 63.9927C470.586 64.312 470.757 64.7559 470.757 65.3242C470.757 65.6025 470.667 65.8721 470.485 66.1328C470.306 66.3936 470.062 66.5884 469.751 66.7173C470.103 66.8286 470.374 67.0132 470.564 67.271C470.757 67.5288 470.854 67.8438 470.854 68.2158C470.854 68.79 470.667 69.2456 470.292 69.5825C469.917 69.9194 469.429 70.0879 468.828 70.0879C468.228 70.0879 467.738 69.9253 467.36 69.6001C466.985 69.2749 466.798 68.8457 466.798 68.3125H467.615C467.615 68.6494 467.725 68.9189 467.945 69.1211C468.165 69.3232 468.459 69.4243 468.828 69.4243C469.221 69.4243 469.521 69.3218 469.729 69.1167C469.937 68.9116 470.041 68.6172 470.041 68.2334C470.041 67.8613 469.927 67.5757 469.698 67.3765C469.47 67.1772 469.14 67.0747 468.709 67.0688H468.099V66.4053ZM473.381 67.7983L472.871 68.3301V70H472.058V63.25H472.871V67.3325L473.306 66.8096L474.787 65.2451H475.776L473.926 67.2314L475.991 70H475.038L473.381 67.7983Z" fill="#606469" fill-opacity="0.7"/>
    <path d="M471.109 107H466.917V106.416L469.131 103.955C469.459 103.583 469.685 103.281 469.808 103.049C469.934 102.815 469.997 102.573 469.997 102.324C469.997 101.99 469.896 101.716 469.694 101.502C469.492 101.289 469.222 101.182 468.885 101.182C468.481 101.182 468.166 101.297 467.94 101.529C467.718 101.757 467.606 102.077 467.606 102.487H466.793C466.793 101.898 466.982 101.422 467.36 101.059C467.741 100.695 468.25 100.514 468.885 100.514C469.48 100.514 469.95 100.67 470.296 100.984C470.642 101.294 470.814 101.709 470.814 102.228C470.814 102.857 470.413 103.607 469.61 104.478L467.896 106.336H471.109V107ZM473.381 104.798L472.871 105.33V107H472.058V100.25H472.871V104.333L473.306 103.81L474.787 102.245H475.776L473.926 104.231L475.991 107H475.038L473.381 104.798Z" fill="#606469" fill-opacity="0.7"/>
    <rect x="8" y="111" width="472" height="1" fill="#EEEEEE"/>
    <path d="M469.588 144H468.771V138.582L467.132 139.184V138.445L469.461 137.571H469.588V144ZM473.381 141.798L472.871 142.33V144H472.058V137.25H472.871V141.333L473.306 140.81L474.787 139.245H475.776L473.926 141.231L475.991 144H475.038L473.381 141.798Z" fill="#606469" fill-opacity="0.7"/>
    <rect x="8" y="148" width="472" height="1" fill="#EEEEEE"/>
    <path d="M475.49 178.271C475.49 179.223 475.328 179.931 475.002 180.394C474.677 180.856 474.169 181.088 473.478 181.088C472.795 181.088 472.29 180.862 471.961 180.411C471.633 179.957 471.463 179.28 471.452 178.381V177.295C471.452 176.355 471.614 175.656 471.939 175.199C472.265 174.742 472.774 174.514 473.469 174.514C474.157 174.514 474.664 174.735 474.989 175.177C475.314 175.617 475.481 176.296 475.49 177.216V178.271ZM474.677 177.159C474.677 176.471 474.581 175.97 474.387 175.656C474.194 175.34 473.888 175.182 473.469 175.182C473.053 175.182 472.75 175.338 472.559 175.652C472.369 175.965 472.271 176.447 472.265 177.098V178.398C472.265 179.09 472.364 179.601 472.563 179.932C472.766 180.26 473.07 180.424 473.478 180.424C473.879 180.424 474.176 180.269 474.37 179.958C474.566 179.648 474.668 179.159 474.677 178.491V177.159Z" fill="#606469" fill-opacity="0.7"/>
    <rect x="8" y="185" width="472" height="1" fill="#EEEEEE"/>
    <path d="M8 185L53.9746 179.18C57.3001 178.759 60.5595 177.922 63.6762 176.688L98.4727 162.911C104.65 160.465 111.339 159.596 117.936 160.383L157.827 165.142L201.472 167.692C206.323 167.975 211.185 167.372 215.82 165.913L260.832 151.738L302.013 137.819C307.778 135.871 313.912 135.264 319.947 136.043L350.805 140.031C357.313 140.872 363.928 140.099 370.066 137.78L406.807 123.902C409.368 122.934 412.022 122.232 414.726 121.807L458 115" stroke="#494EE7" stroke-width="2"/>
    <path d="M8 185L55.6845 159.837C57.8785 158.679 59.9601 157.319 61.9022 155.776L91.171 132.517C101.616 124.216 115.512 121.67 128.221 125.727L138.588 129.036C150.686 132.899 163.9 130.786 174.191 123.344L197.105 106.773C204.669 101.304 213.907 98.6514 223.22 99.2757L249.333 101.026C256.846 101.53 264.349 99.9025 270.979 96.3312L299.434 81.0024C306.808 77.0301 315.243 75.4727 323.549 76.5499L347.273 79.6267C355.992 80.7574 364.84 78.9841 372.45 74.581L404.216 56.2012C408.475 53.7371 413.152 52.0798 418.011 51.3126L458 45" stroke="#0084FF" stroke-width="2"/>
    <circle cx="15" cy="205.5" r="2.5" fill="#0084FF" stroke="#0084FF"/>
    <path d="M27.8975 207.63L29.0146 203.188H30.0083L28.3164 209H27.5107L26.0981 204.596L24.7231 209H23.9175L22.231 203.188H23.2192L24.3633 207.539L25.7168 203.188H26.5171L27.8975 207.63ZM32.103 209H31.1094V203.188H32.103V209ZM31.0288 201.647C31.0288 201.486 31.0771 201.35 31.1738 201.239C31.2741 201.128 31.4209 201.072 31.6143 201.072C31.8076 201.072 31.9544 201.128 32.0547 201.239C32.1549 201.35 32.2051 201.486 32.2051 201.647C32.2051 201.808 32.1549 201.942 32.0547 202.05C31.9544 202.157 31.8076 202.211 31.6143 202.211C31.4209 202.211 31.2741 202.157 31.1738 202.05C31.0771 201.942 31.0288 201.808 31.0288 201.647ZM35.0464 201.781V203.188H36.1313V203.957H35.0464V207.561C35.0464 207.793 35.0947 207.969 35.1914 208.087C35.2881 208.201 35.4528 208.259 35.6855 208.259C35.8001 208.259 35.9577 208.237 36.1582 208.194V209C35.8968 209.072 35.6426 209.107 35.3955 209.107C34.9515 209.107 34.6167 208.973 34.3911 208.705C34.1655 208.436 34.0527 208.055 34.0527 207.561V203.957H32.9946V203.188H34.0527V201.781H35.0464ZM38.2905 203.892C38.731 203.351 39.3039 203.081 40.0093 203.081C41.2375 203.081 41.8569 203.774 41.8677 205.16V209H40.874V205.154C40.8704 204.735 40.7738 204.426 40.584 204.225C40.3978 204.025 40.106 203.924 39.7085 203.924C39.3862 203.924 39.1034 204.01 38.8599 204.182C38.6164 204.354 38.4266 204.58 38.2905 204.859V209H37.2969V200.75H38.2905V203.892ZM50.5581 206.959H47.2817L46.5459 209H45.4824L48.4688 201.18H49.3711L52.3628 209H51.3047L50.5581 206.959ZM47.5933 206.11H50.252L48.9199 202.453L47.5933 206.11ZM58.1689 206.159C58.1689 207.043 57.9666 207.756 57.562 208.296C57.1574 208.837 56.6095 209.107 55.9185 209.107C55.2131 209.107 54.658 208.884 54.2534 208.436V211.234H53.2598V203.188H54.1675L54.2158 203.833C54.6204 203.332 55.1826 203.081 55.9023 203.081C56.6006 203.081 57.152 203.344 57.5566 203.871C57.9648 204.397 58.1689 205.129 58.1689 206.067V206.159ZM57.1753 206.046C57.1753 205.391 57.0356 204.873 56.7563 204.494C56.4771 204.114 56.0939 203.924 55.6069 203.924C55.0054 203.924 54.5542 204.191 54.2534 204.725V207.501C54.5506 208.031 55.0054 208.296 55.6177 208.296C56.0939 208.296 56.4717 208.108 56.751 207.732C57.0339 207.353 57.1753 206.791 57.1753 206.046ZM64.3457 206.159C64.3457 207.043 64.1434 207.756 63.7388 208.296C63.3341 208.837 62.7863 209.107 62.0952 209.107C61.3898 209.107 60.8348 208.884 60.4302 208.436V211.234H59.4365V203.188H60.3442L60.3926 203.833C60.7972 203.332 61.3594 203.081 62.0791 203.081C62.7773 203.081 63.3288 203.344 63.7334 203.871C64.1416 204.397 64.3457 205.129 64.3457 206.067V206.159ZM63.3521 206.046C63.3521 205.391 63.2124 204.873 62.9331 204.494C62.6538 204.114 62.2707 203.924 61.7837 203.924C61.1821 203.924 60.731 204.191 60.4302 204.725V207.501C60.7274 208.031 61.1821 208.296 61.7944 208.296C62.2707 208.296 62.6484 208.108 62.9277 207.732C63.2106 207.353 63.3521 206.791 63.3521 206.046ZM66.6069 203.892C67.0474 203.351 67.6203 203.081 68.3257 203.081C69.5539 203.081 70.1733 203.774 70.1841 205.16V209H69.1904V205.154C69.1868 204.735 69.0902 204.426 68.9004 204.225C68.7142 204.025 68.4224 203.924 68.0249 203.924C67.7026 203.924 67.4198 204.01 67.1763 204.182C66.9328 204.354 66.743 204.58 66.6069 204.859V209H65.6133V200.75H66.6069V203.892ZM75.2598 208.425C74.873 208.88 74.3055 209.107 73.5571 209.107C72.9377 209.107 72.465 208.928 72.1392 208.57C71.8169 208.209 71.654 207.675 71.6504 206.97V203.188H72.644V206.943C72.644 207.824 73.0021 208.264 73.7183 208.264C74.4774 208.264 74.9823 207.981 75.2329 207.416V203.188H76.2266V209H75.2812L75.2598 208.425ZM77.4995 206.046C77.4995 205.154 77.7108 204.438 78.1333 203.897C78.5558 203.353 79.109 203.081 79.793 203.081C80.4733 203.081 81.0122 203.314 81.4097 203.779V200.75H82.4033V209H81.4902L81.4419 208.377C81.0444 208.864 80.4912 209.107 79.7822 209.107C79.109 209.107 78.5594 208.832 78.1333 208.28C77.7108 207.729 77.4995 207.009 77.4995 206.121V206.046ZM78.4932 206.159C78.4932 206.818 78.6292 207.333 78.9014 207.706C79.1735 208.078 79.5495 208.264 80.0293 208.264C80.6595 208.264 81.1196 207.981 81.4097 207.416V204.746C81.1125 204.198 80.6559 203.924 80.04 203.924C79.5531 203.924 79.1735 204.112 78.9014 204.488C78.6292 204.864 78.4932 205.421 78.4932 206.159ZM89.0903 209.107C88.3026 209.107 87.6616 208.85 87.1675 208.334C86.6733 207.815 86.4263 207.122 86.4263 206.255V206.073C86.4263 205.496 86.5355 204.982 86.7539 204.531C86.9759 204.076 87.2839 203.722 87.6777 203.468C88.0752 203.21 88.5049 203.081 88.9668 203.081C89.7223 203.081 90.3096 203.33 90.7285 203.828C91.1475 204.325 91.3569 205.038 91.3569 205.965V206.379H87.4199C87.4342 206.952 87.6007 207.416 87.9194 207.77C88.2417 208.121 88.6499 208.296 89.144 208.296C89.495 208.296 89.7922 208.225 90.0356 208.082C90.2791 207.938 90.4922 207.749 90.6748 207.512L91.2817 207.985C90.7948 208.733 90.0643 209.107 89.0903 209.107ZM88.9668 203.897C88.5658 203.897 88.2292 204.044 87.957 204.338C87.6849 204.628 87.5166 205.036 87.4521 205.562H90.3633V205.487C90.3346 204.982 90.1986 204.592 89.9551 204.316C89.7116 204.037 89.3822 203.897 88.9668 203.897ZM94.354 207.652L95.7935 203.188H96.8086L94.7246 209H93.9673L91.8618 203.188H92.877L94.354 207.652ZM100.101 209.107C99.3133 209.107 98.6724 208.85 98.1782 208.334C97.6841 207.815 97.437 207.122 97.437 206.255V206.073C97.437 205.496 97.5462 204.982 97.7646 204.531C97.9867 204.076 98.2946 203.722 98.6885 203.468C99.0859 203.21 99.5156 203.081 99.9775 203.081C100.733 203.081 101.32 203.33 101.739 203.828C102.158 204.325 102.368 205.038 102.368 205.965V206.379H98.4307C98.445 206.952 98.6115 207.416 98.9302 207.77C99.2524 208.121 99.6606 208.296 100.155 208.296C100.506 208.296 100.803 208.225 101.046 208.082C101.29 207.938 101.503 207.749 101.686 207.512L102.292 207.985C101.806 208.733 101.075 209.107 100.101 209.107ZM99.9775 203.897C99.5765 203.897 99.2399 204.044 98.9678 204.338C98.6956 204.628 98.5273 205.036 98.4629 205.562H101.374V205.487C101.345 204.982 101.209 204.592 100.966 204.316C100.722 204.037 100.393 203.897 99.9775 203.897ZM104.462 203.188L104.495 203.919C104.939 203.36 105.519 203.081 106.235 203.081C107.463 203.081 108.083 203.774 108.093 205.16V209H107.1V205.154C107.096 204.735 106.999 204.426 106.81 204.225C106.623 204.025 106.332 203.924 105.934 203.924C105.612 203.924 105.329 204.01 105.085 204.182C104.842 204.354 104.652 204.58 104.516 204.859V209H103.522V203.188H104.462ZM110.94 201.781V203.188H112.025V203.957H110.94V207.561C110.94 207.793 110.988 207.969 111.085 208.087C111.182 208.201 111.346 208.259 111.579 208.259C111.694 208.259 111.851 208.237 112.052 208.194V209C111.79 209.072 111.536 209.107 111.289 209.107C110.845 209.107 110.51 208.973 110.285 208.705C110.059 208.436 109.946 208.055 109.946 207.561V203.957H108.888V203.188H109.946V201.781H110.94ZM116.574 207.458C116.574 207.19 116.472 206.982 116.268 206.835C116.068 206.685 115.715 206.556 115.21 206.449C114.709 206.341 114.309 206.212 114.012 206.062C113.719 205.912 113.5 205.733 113.357 205.525C113.217 205.317 113.147 205.07 113.147 204.784C113.147 204.307 113.348 203.905 113.749 203.575C114.154 203.246 114.669 203.081 115.296 203.081C115.955 203.081 116.488 203.251 116.896 203.591C117.308 203.931 117.514 204.367 117.514 204.896H116.515C116.515 204.624 116.399 204.39 116.166 204.193C115.937 203.996 115.647 203.897 115.296 203.897C114.934 203.897 114.651 203.976 114.447 204.134C114.243 204.291 114.141 204.497 114.141 204.751C114.141 204.991 114.236 205.172 114.426 205.294C114.616 205.416 114.958 205.532 115.452 205.643C115.949 205.754 116.352 205.887 116.66 206.041C116.968 206.194 117.195 206.381 117.342 206.599C117.493 206.814 117.568 207.077 117.568 207.389C117.568 207.908 117.36 208.325 116.945 208.64C116.529 208.952 115.991 209.107 115.328 209.107C114.863 209.107 114.451 209.025 114.093 208.86C113.735 208.696 113.454 208.466 113.25 208.173C113.049 207.876 112.949 207.555 112.949 207.211H113.942C113.96 207.544 114.093 207.809 114.34 208.006C114.59 208.2 114.92 208.296 115.328 208.296C115.704 208.296 116.005 208.221 116.23 208.071C116.46 207.917 116.574 207.713 116.574 207.458Z" fill="#181818"/>
    <circle cx="134" cy="205.5" r="3" fill="#494EE7"/>
    <path d="M146.897 207.63L148.015 203.188H149.008L147.316 209H146.511L145.098 204.596L143.723 209H142.917L141.231 203.188H142.219L143.363 207.539L144.717 203.188H145.517L146.897 207.63ZM151.103 209H150.109V203.188H151.103V209ZM150.029 201.647C150.029 201.486 150.077 201.35 150.174 201.239C150.274 201.128 150.421 201.072 150.614 201.072C150.808 201.072 150.954 201.128 151.055 201.239C151.155 201.35 151.205 201.486 151.205 201.647C151.205 201.808 151.155 201.942 151.055 202.05C150.954 202.157 150.808 202.211 150.614 202.211C150.421 202.211 150.274 202.157 150.174 202.05C150.077 201.942 150.029 201.808 150.029 201.647ZM154.046 201.781V203.188H155.131V203.957H154.046V207.561C154.046 207.793 154.095 207.969 154.191 208.087C154.288 208.201 154.453 208.259 154.686 208.259C154.8 208.259 154.958 208.237 155.158 208.194V209C154.897 209.072 154.643 209.107 154.396 209.107C153.951 209.107 153.617 208.973 153.391 208.705C153.166 208.436 153.053 208.055 153.053 207.561V203.957H151.995V203.188H153.053V201.781H154.046ZM157.291 203.892C157.731 203.351 158.304 203.081 159.009 203.081C160.237 203.081 160.857 203.774 160.868 205.16V209H159.874V205.154C159.87 204.735 159.774 204.426 159.584 204.225C159.398 204.025 159.106 203.924 158.708 203.924C158.386 203.924 158.103 204.01 157.86 204.182C157.616 204.354 157.427 204.58 157.291 204.859V209H156.297V200.75H157.291V203.892ZM162.092 206.041C162.092 205.471 162.203 204.959 162.425 204.504C162.651 204.05 162.962 203.699 163.36 203.452C163.761 203.205 164.217 203.081 164.729 203.081C165.521 203.081 166.16 203.355 166.647 203.903C167.138 204.451 167.383 205.179 167.383 206.089V206.159C167.383 206.724 167.274 207.233 167.055 207.684C166.84 208.132 166.531 208.481 166.126 208.731C165.725 208.982 165.263 209.107 164.74 209.107C163.952 209.107 163.313 208.833 162.823 208.286C162.336 207.738 162.092 207.013 162.092 206.11V206.041ZM163.091 206.159C163.091 206.803 163.24 207.321 163.537 207.711C163.838 208.101 164.239 208.296 164.74 208.296C165.245 208.296 165.646 208.099 165.943 207.706C166.241 207.308 166.389 206.753 166.389 206.041C166.389 205.403 166.237 204.888 165.933 204.494C165.632 204.096 165.231 203.897 164.729 203.897C164.239 203.897 163.843 204.093 163.542 204.483C163.242 204.873 163.091 205.432 163.091 206.159ZM172.217 208.425C171.83 208.88 171.263 209.107 170.514 209.107C169.895 209.107 169.422 208.928 169.096 208.57C168.774 208.209 168.611 207.675 168.607 206.97V203.188H169.601V206.943C169.601 207.824 169.959 208.264 170.675 208.264C171.434 208.264 171.939 207.981 172.19 207.416V203.188H173.184V209H172.238L172.217 208.425ZM176.046 201.781V203.188H177.131V203.957H176.046V207.561C176.046 207.793 176.095 207.969 176.191 208.087C176.288 208.201 176.453 208.259 176.686 208.259C176.8 208.259 176.958 208.237 177.158 208.194V209C176.897 209.072 176.643 209.107 176.396 209.107C175.951 209.107 175.617 208.973 175.391 208.705C175.166 208.436 175.053 208.055 175.053 207.561V203.957H173.995V203.188H175.053V201.781H176.046ZM185.5 206.959H182.223L181.487 209H180.424L183.41 201.18H184.312L187.304 209H186.246L185.5 206.959ZM182.535 206.11H185.193L183.861 202.453L182.535 206.11ZM193.11 206.159C193.11 207.043 192.908 207.756 192.503 208.296C192.099 208.837 191.551 209.107 190.86 209.107C190.154 209.107 189.599 208.884 189.195 208.436V211.234H188.201V203.188H189.109L189.157 203.833C189.562 203.332 190.124 203.081 190.844 203.081C191.542 203.081 192.093 203.344 192.498 203.871C192.906 204.397 193.11 205.129 193.11 206.067V206.159ZM192.117 206.046C192.117 205.391 191.977 204.873 191.698 204.494C191.418 204.114 191.035 203.924 190.548 203.924C189.947 203.924 189.496 204.191 189.195 204.725V207.501C189.492 208.031 189.947 208.296 190.559 208.296C191.035 208.296 191.413 208.108 191.692 207.732C191.975 207.353 192.117 206.791 192.117 206.046ZM199.287 206.159C199.287 207.043 199.085 207.756 198.68 208.296C198.276 208.837 197.728 209.107 197.037 209.107C196.331 209.107 195.776 208.884 195.372 208.436V211.234H194.378V203.188H195.286L195.334 203.833C195.739 203.332 196.301 203.081 197.021 203.081C197.719 203.081 198.27 203.344 198.675 203.871C199.083 204.397 199.287 205.129 199.287 206.067V206.159ZM198.293 206.046C198.293 205.391 198.154 204.873 197.875 204.494C197.595 204.114 197.212 203.924 196.725 203.924C196.124 203.924 195.672 204.191 195.372 204.725V207.501C195.669 208.031 196.124 208.296 196.736 208.296C197.212 208.296 197.59 208.108 197.869 207.732C198.152 207.353 198.293 206.791 198.293 206.046ZM201.548 203.892C201.989 203.351 202.562 203.081 203.267 203.081C204.495 203.081 205.115 203.774 205.125 205.16V209H204.132V205.154C204.128 204.735 204.032 204.426 203.842 204.225C203.656 204.025 203.364 203.924 202.966 203.924C202.644 203.924 202.361 204.01 202.118 204.182C201.874 204.354 201.684 204.58 201.548 204.859V209H200.555V200.75H201.548V203.892ZM210.201 208.425C209.814 208.88 209.247 209.107 208.499 209.107C207.879 209.107 207.406 208.928 207.081 208.57C206.758 208.209 206.595 207.675 206.592 206.97V203.188H207.585V206.943C207.585 207.824 207.944 208.264 208.66 208.264C209.419 208.264 209.924 207.981 210.174 207.416V203.188H211.168V209H210.223L210.201 208.425ZM212.441 206.046C212.441 205.154 212.652 204.438 213.075 203.897C213.497 203.353 214.05 203.081 214.734 203.081C215.415 203.081 215.954 203.314 216.351 203.779V200.75H217.345V209H216.432L216.383 208.377C215.986 208.864 215.433 209.107 214.724 209.107C214.05 209.107 213.501 208.832 213.075 208.28C212.652 207.729 212.441 207.009 212.441 206.121V206.046ZM213.435 206.159C213.435 206.818 213.571 207.333 213.843 207.706C214.115 208.078 214.491 208.264 214.971 208.264C215.601 208.264 216.061 207.981 216.351 207.416V204.746C216.054 204.198 215.597 203.924 214.981 203.924C214.494 203.924 214.115 204.112 213.843 204.488C213.571 204.864 213.435 205.421 213.435 206.159ZM224.032 209.107C223.244 209.107 222.603 208.85 222.109 208.334C221.615 207.815 221.368 207.122 221.368 206.255V206.073C221.368 205.496 221.477 204.982 221.695 204.531C221.917 204.076 222.225 203.722 222.619 203.468C223.017 203.21 223.446 203.081 223.908 203.081C224.664 203.081 225.251 203.33 225.67 203.828C226.089 204.325 226.298 205.038 226.298 205.965V206.379H222.361C222.376 206.952 222.542 207.416 222.861 207.77C223.183 208.121 223.591 208.296 224.085 208.296C224.436 208.296 224.734 208.225 224.977 208.082C225.221 207.938 225.434 207.749 225.616 207.512L226.223 207.985C225.736 208.733 225.006 209.107 224.032 209.107ZM223.908 203.897C223.507 203.897 223.171 204.044 222.898 204.338C222.626 204.628 222.458 205.036 222.394 205.562H225.305V205.487C225.276 204.982 225.14 204.592 224.896 204.316C224.653 204.037 224.324 203.897 223.908 203.897ZM229.295 207.652L230.735 203.188H231.75L229.666 209H228.909L226.803 203.188H227.818L229.295 207.652ZM235.042 209.107C234.255 209.107 233.614 208.85 233.12 208.334C232.625 207.815 232.378 207.122 232.378 206.255V206.073C232.378 205.496 232.488 204.982 232.706 204.531C232.928 204.076 233.236 203.722 233.63 203.468C234.027 203.21 234.457 203.081 234.919 203.081C235.674 203.081 236.262 203.33 236.681 203.828C237.1 204.325 237.309 205.038 237.309 205.965V206.379H233.372C233.386 206.952 233.553 207.416 233.872 207.77C234.194 208.121 234.602 208.296 235.096 208.296C235.447 208.296 235.744 208.225 235.988 208.082C236.231 207.938 236.444 207.749 236.627 207.512L237.234 207.985C236.747 208.733 236.016 209.107 235.042 209.107ZM234.919 203.897C234.518 203.897 234.181 204.044 233.909 204.338C233.637 204.628 233.469 205.036 233.404 205.562H236.315V205.487C236.287 204.982 236.151 204.592 235.907 204.316C235.664 204.037 235.334 203.897 234.919 203.897ZM239.404 203.188L239.436 203.919C239.88 203.36 240.46 203.081 241.176 203.081C242.404 203.081 243.024 203.774 243.035 205.16V209H242.041V205.154C242.037 204.735 241.941 204.426 241.751 204.225C241.565 204.025 241.273 203.924 240.875 203.924C240.553 203.924 240.27 204.01 240.027 204.182C239.783 204.354 239.594 204.58 239.458 204.859V209H238.464V203.188H239.404ZM245.881 201.781V203.188H246.966V203.957H245.881V207.561C245.881 207.793 245.93 207.969 246.026 208.087C246.123 208.201 246.288 208.259 246.521 208.259C246.635 208.259 246.793 208.237 246.993 208.194V209C246.732 209.072 246.478 209.107 246.23 209.107C245.786 209.107 245.452 208.973 245.226 208.705C245 208.436 244.888 208.055 244.888 207.561V203.957H243.83V203.188H244.888V201.781H245.881ZM251.516 207.458C251.516 207.19 251.414 206.982 251.209 206.835C251.009 206.685 250.656 206.556 250.151 206.449C249.65 206.341 249.251 206.212 248.954 206.062C248.66 205.912 248.442 205.733 248.298 205.525C248.159 205.317 248.089 205.07 248.089 204.784C248.089 204.307 248.289 203.905 248.69 203.575C249.095 203.246 249.611 203.081 250.237 203.081C250.896 203.081 251.43 203.251 251.838 203.591C252.25 203.931 252.456 204.367 252.456 204.896H251.457C251.457 204.624 251.34 204.39 251.107 204.193C250.878 203.996 250.588 203.897 250.237 203.897C249.876 203.897 249.593 203.976 249.389 204.134C249.185 204.291 249.083 204.497 249.083 204.751C249.083 204.991 249.177 205.172 249.367 205.294C249.557 205.416 249.899 205.532 250.393 205.643C250.891 205.754 251.294 205.887 251.602 206.041C251.91 206.194 252.137 206.381 252.284 206.599C252.434 206.814 252.509 207.077 252.509 207.389C252.509 207.908 252.302 208.325 251.886 208.64C251.471 208.952 250.932 209.107 250.27 209.107C249.804 209.107 249.392 209.025 249.034 208.86C248.676 208.696 248.395 208.466 248.191 208.173C247.99 207.876 247.89 207.555 247.89 207.211H248.884C248.902 207.544 249.034 207.809 249.281 208.006C249.532 208.2 249.861 208.296 250.27 208.296C250.646 208.296 250.946 208.221 251.172 208.071C251.401 207.917 251.516 207.713 251.516 207.458Z" fill="#181818"/>
</svg>
