<svg width="488" height="360" viewBox="0 0 488 360" fill="none" xmlns="http://www.w3.org/2000/svg">
<rect width="488" height="360" fill="white"/>
<circle cx="244" cy="180" r="126.5" stroke="#181818" stroke-width="3"/>
<path d="M468 242C468 246.418 464.418 250 460 250C455.582 250 452 246.418 452 242C452 237.582 455.582 234 460 234C464.418 234 468 237.582 468 242Z" fill="#FFD12D"/>
<path d="M42.4517 327C42.297 326.76 42.1616 326.619 42.1036 326.459C41.3689 324.416 40.6535 322.373 39.9381 320.33C39.7254 319.729 39.5128 319.108 39.3194 318.487C39.1454 317.946 38.8747 317.485 38.3333 317.285C37.4053 316.945 36.4965 316.604 35.5684 316.243C34.505 315.843 33.4609 315.422 32.4169 315.022C31.7788 314.781 31.1408 314.581 30.5027 314.32C30.3094 314.24 30.174 314.04 30 313.88C30.174 313.74 30.3094 313.519 30.5027 313.459C31.5661 313.039 32.6489 312.638 33.7123 312.237C34.6984 311.857 35.6651 311.496 36.6512 311.116C37.1926 310.915 37.734 310.715 38.2947 310.515C38.7587 310.334 39.0681 310.014 39.2421 309.533C39.5708 308.592 39.8995 307.65 40.2282 306.729C40.7695 305.227 41.3109 303.704 41.8523 302.202C41.949 301.921 41.9876 301.621 42.123 301.341C42.2003 301.18 42.3743 301 42.5097 301C42.645 301 42.819 301.2 42.877 301.361C43.6118 303.404 44.3271 305.447 45.0619 307.49C45.2746 308.111 45.4872 308.752 45.6999 309.373C45.8739 309.934 46.164 310.334 46.7247 310.535C48.1168 311.035 49.5089 311.556 50.901 312.097C51.8871 312.478 52.8732 312.878 53.8786 313.259C54.1299 313.359 54.42 313.399 54.652 313.519C54.8067 313.599 55 313.76 55 313.9C55 314.02 54.8067 314.24 54.6713 314.28C52.2351 315.242 49.8183 316.143 47.4014 317.065C47.3047 317.105 47.1887 317.145 47.0727 317.165C46.2606 317.345 45.8353 317.846 45.5839 318.687C45.2746 319.769 44.8299 320.81 44.4625 321.872C44.1145 322.874 43.7471 323.855 43.3991 324.857C43.2057 325.418 43.0317 325.998 42.819 326.559C42.7997 326.68 42.645 326.8 42.4517 327Z" fill="#FFB9F8"/>
<path d="M180 21C180 25.4183 176.418 29 172 29C167.582 29 164 25.4183 164 21C164 16.5817 167.582 13 172 13C176.418 13 180 16.5817 180 21Z" fill="#93E6CF"/>
<path d="M119.351 29.0344C75.776 64.9126 48 119.219 48 180C48 240.781 75.776 295.087 119.351 330.966M368.607 29C412.206 64.8779 440 119.2 440 180C440 240.8 412.206 295.122 368.607 331" stroke="#181818" stroke-width="3" stroke-linecap="round"/>
<path d="M82 240C82 252.15 72.1503 262 60 262C47.8497 262 38 252.15 38 240C38 227.85 47.8497 218 60 218C72.1503 218 82 227.85 82 240Z" fill="#181818"/>
<path d="M84.5 236C84.5 247.322 75.3218 256.5 64 256.5C52.6782 256.5 43.5 247.322 43.5 236C43.5 224.678 52.6782 215.5 64 215.5C75.3218 215.5 84.5 224.678 84.5 236Z" fill="white" stroke="#181818" stroke-width="3" stroke-linecap="round"/>
<path d="M63.9881 235.331C64.9109 235.331 65.813 235.058 66.5802 234.545C67.3475 234.032 67.9455 233.304 68.2986 232.451C68.6518 231.599 68.7442 230.66 68.5641 229.755C68.3841 228.85 67.9398 228.019 67.2873 227.367C66.6348 226.714 65.8034 226.27 64.8984 226.09C63.9933 225.91 63.0552 226.002 62.2027 226.355C61.3502 226.708 60.6215 227.306 60.1088 228.074C59.5961 228.841 59.3225 229.743 59.3225 230.666C59.3225 231.903 59.8141 233.09 60.689 233.965C61.564 234.84 62.7507 235.331 63.9881 235.331Z" fill="#0084FF"/>
<path d="M71.352 243.667C71.2899 241.757 70.4873 239.945 69.1138 238.615C67.7403 237.286 65.9036 236.542 63.992 236.542C62.0804 236.542 60.2437 237.286 58.8702 238.615C57.4967 239.945 56.6941 241.757 56.632 243.667V246H71.352V243.667Z" fill="#0084FF"/>
<path d="M177 88C177 100.15 167.15 110 155 110C142.85 110 133 100.15 133 88C133 75.8497 142.85 66 155 66C167.15 66 177 75.8497 177 88Z" fill="#181818"/>
<path d="M179.5 84C179.5 95.3218 170.322 104.5 159 104.5C147.678 104.5 138.5 95.3218 138.5 84C138.5 72.6782 147.678 63.5 159 63.5C170.322 63.5 179.5 72.6782 179.5 84Z" fill="white" stroke="#181818" stroke-width="3" stroke-linecap="round"/>
<path d="M158.988 83.3313C159.911 83.3313 160.813 83.0577 161.58 82.545C162.347 82.0323 162.946 81.3036 163.299 80.4511C163.652 79.5986 163.744 78.6605 163.564 77.7554C163.384 76.8504 162.94 76.019 162.287 75.3665C161.635 74.714 160.803 74.2697 159.898 74.0897C158.993 73.9096 158.055 74.002 157.203 74.3552C156.35 74.7083 155.621 75.3063 155.109 76.0736C154.596 76.8408 154.323 77.7429 154.323 78.6656C154.323 79.903 154.814 81.0898 155.689 81.9648C156.564 82.8397 157.751 83.3313 158.988 83.3313Z" fill="#0084FF"/>
<path d="M166.352 91.6671C166.29 89.7565 165.487 87.945 164.114 86.6154C162.74 85.2858 160.904 84.5425 158.992 84.5425C157.08 84.5425 155.244 85.2858 153.87 86.6154C152.497 87.945 151.694 89.7565 151.632 91.6671V94H166.352V91.6671Z" fill="#0084FF"/>
<path d="M329 288C329 300.15 319.15 310 307 310C294.85 310 285 300.15 285 288C285 275.85 294.85 266 307 266C319.15 266 329 275.85 329 288Z" fill="#181818"/>
<path d="M331.5 284C331.5 295.322 322.322 304.5 311 304.5C299.678 304.5 290.5 295.322 290.5 284C290.5 272.678 299.678 263.5 311 263.5C322.322 263.5 331.5 272.678 331.5 284Z" fill="white" stroke="#181818" stroke-width="3" stroke-linecap="round"/>
<path d="M310.988 283.331C311.911 283.331 312.813 283.058 313.58 282.545C314.347 282.032 314.946 281.304 315.299 280.451C315.652 279.599 315.744 278.66 315.564 277.755C315.384 276.85 314.94 276.019 314.287 275.367C313.635 274.714 312.803 274.27 311.898 274.09C310.993 273.91 310.055 274.002 309.203 274.355C308.35 274.708 307.621 275.306 307.109 276.074C306.596 276.841 306.323 277.743 306.323 278.666C306.323 279.903 306.814 281.09 307.689 281.965C308.564 282.84 309.751 283.331 310.988 283.331Z" fill="#0084FF"/>
<path d="M318.352 291.667C318.29 289.757 317.487 287.945 316.114 286.615C314.74 285.286 312.904 284.542 310.992 284.542C309.08 284.542 307.244 285.286 305.87 286.615C304.497 287.945 303.694 289.757 303.632 291.667V294H318.352V291.667Z" fill="#0084FF"/>
<path d="M452 128C452 140.15 442.15 150 430 150C417.85 150 408 140.15 408 128C408 115.85 417.85 106 430 106C442.15 106 452 115.85 452 128Z" fill="#181818"/>
<path d="M454.5 124C454.5 135.322 445.322 144.5 434 144.5C422.678 144.5 413.5 135.322 413.5 124C413.5 112.678 422.678 103.5 434 103.5C445.322 103.5 454.5 112.678 454.5 124Z" fill="white" stroke="#181818" stroke-width="3" stroke-linecap="round"/>
<path d="M433.988 123.331C434.911 123.331 435.813 123.058 436.58 122.545C437.347 122.032 437.946 121.304 438.299 120.451C438.652 119.599 438.744 118.66 438.564 117.755C438.384 116.85 437.94 116.019 437.287 115.367C436.635 114.714 435.803 114.27 434.898 114.09C433.993 113.91 433.055 114.002 432.203 114.355C431.35 114.708 430.621 115.306 430.109 116.074C429.596 116.841 429.323 117.743 429.323 118.666C429.323 119.903 429.814 121.09 430.689 121.965C431.564 122.84 432.751 123.331 433.988 123.331Z" fill="#0084FF"/>
<path d="M441.352 131.667C441.29 129.757 440.487 127.945 439.114 126.615C437.74 125.286 435.904 124.542 433.992 124.542C432.08 124.542 430.244 125.286 428.87 126.615C427.497 127.945 426.694 129.757 426.632 131.667V134H441.352V131.667Z" fill="#0084FF"/>
<path fill-rule="evenodd" clip-rule="evenodd" d="M266.293 200.076C260.802 206.169 252.849 210 244 210C235.037 210 226.991 206.069 221.494 199.837L243.98 178.184L266.293 200.076ZM269.878 195.187L246.795 172.539C245.25 171.023 242.778 171.012 241.219 172.513L217.961 194.91C215.441 190.517 214 185.427 214 180C214 163.431 227.431 150 244 150C260.569 150 274 163.431 274 180C274 185.542 272.497 190.732 269.878 195.187ZM280 180C280 199.882 263.882 216 244 216C224.118 216 208 199.882 208 180C208 160.118 224.118 144 244 144C263.882 144 280 160.118 280 180Z" fill="#0085FF"/>
<path d="M197.216 208.629L191.353 212.045L191.979 213.126L190.556 213.98L189.93 212.898L189.304 213.24C188.507 213.695 187.71 213.866 186.97 213.638C186.23 213.411 185.661 212.898 185.148 212.045C184.978 211.76 184.864 211.418 184.693 210.963L186.23 210.109C186.287 210.28 186.401 210.508 186.515 210.735C186.97 211.475 187.482 211.646 188.165 211.248L188.734 210.906L187.881 209.483L189.304 208.629L190.158 210.052L196.021 206.637L197.216 208.629Z" fill="black"/>
<path d="M187.084 202.766C187.198 203.051 187.254 203.335 187.368 203.506C187.71 204.303 188.222 204.645 188.848 204.645L193.857 202.368L194.768 204.417L187.141 207.946L186.23 206.011L187.141 205.555C186.23 205.442 185.661 205.043 185.319 204.36C185.205 204.132 185.148 203.905 185.091 203.677L187.084 202.766Z" fill="black"/>
<path d="M191.581 195.822C191.979 197.017 191.865 198.099 191.41 199.066C190.898 200.034 190.101 200.717 188.848 201.059L188.621 201.116C187.824 201.343 187.027 201.457 186.287 201.343C185.547 201.229 184.921 200.945 184.408 200.489C183.896 200.034 183.498 199.408 183.27 198.725C182.928 197.643 182.985 196.676 183.498 195.822C184.01 194.968 184.864 194.342 186.173 193.943L187.027 193.659L188.621 198.782C189.133 198.554 189.474 198.213 189.702 197.757C189.93 197.302 189.93 196.789 189.759 196.277C189.474 195.423 189.019 194.911 188.222 194.626L189.076 193.203C189.645 193.374 190.101 193.716 190.556 194.171C191.011 194.626 191.353 195.139 191.581 195.822ZM185.035 198.156C185.148 198.554 185.433 198.896 185.775 199.066C186.173 199.237 186.628 199.294 187.198 199.18L186.23 196.22L186.059 196.277C185.604 196.448 185.262 196.676 185.091 197.017C184.921 197.359 184.864 197.7 185.035 198.156Z" fill="black"/>
<path d="M189.759 187.796C189.93 188.991 189.702 190.073 189.076 190.926C188.45 191.837 187.482 192.349 186.287 192.52L186.059 192.577C185.205 192.691 184.465 192.634 183.725 192.463C183.042 192.236 182.416 191.837 182.018 191.325C181.562 190.813 181.278 190.129 181.164 189.39C180.993 188.251 181.221 187.283 181.847 186.543C182.473 185.803 183.441 185.291 184.75 185.063L185.661 184.95L186.458 190.243C186.97 190.073 187.368 189.788 187.653 189.39C187.938 188.991 187.995 188.479 187.938 187.966C187.824 187.113 187.368 186.486 186.685 186.088L187.767 184.779C188.279 185.063 188.735 185.405 189.076 185.974C189.418 186.486 189.645 187.113 189.759 187.796ZM182.928 189.105C182.985 189.56 183.213 189.902 183.555 190.129C183.896 190.357 184.352 190.471 184.921 190.471L184.465 187.397H184.295C183.782 187.511 183.441 187.682 183.213 187.966C182.985 188.251 182.872 188.65 182.928 189.105Z" fill="black"/>
<path d="M189.019 178.973L182.245 178.688L182.188 179.941L180.538 179.884L180.595 178.631H179.855C178.887 178.574 178.204 178.29 177.692 177.721C177.179 177.151 176.952 176.411 177.009 175.444C177.009 175.159 177.065 174.761 177.236 174.305L179.001 174.419C178.944 174.59 178.887 174.818 178.887 175.102C178.83 175.956 179.229 176.411 180.025 176.411H180.708L180.765 174.761L182.416 174.818L182.359 176.468L189.133 176.753L189.019 178.973Z" fill="black"/>
<path d="M184.864 173.85C184.067 173.736 183.327 173.451 182.758 172.996C182.188 172.598 181.733 172.028 181.505 171.402C181.278 170.719 181.221 170.036 181.335 169.239C181.505 168.101 182.018 167.247 182.815 166.678C183.612 166.108 184.636 165.824 185.831 165.938L186.401 165.995C187.653 166.222 188.621 166.735 189.304 167.588C189.93 168.442 190.158 169.467 189.987 170.662C189.759 171.858 189.247 172.768 188.336 173.338C187.425 173.907 186.344 174.078 185.035 173.907L184.864 173.85ZM185.433 171.687C186.23 171.801 186.856 171.801 187.311 171.573C187.767 171.345 188.051 170.947 188.165 170.378C188.279 169.865 188.108 169.41 187.767 169.011C187.425 168.613 186.799 168.385 185.888 168.215C185.091 168.101 184.465 168.158 184.01 168.385C183.555 168.613 183.27 169.011 183.156 169.524C183.042 170.093 183.213 170.548 183.555 170.89C183.896 171.231 184.522 171.516 185.433 171.687Z" fill="black"/>
<path d="M186.173 159.335C186.059 159.619 185.945 159.847 185.888 160.075C185.661 160.872 185.775 161.498 186.23 161.953L191.524 163.547L190.841 165.71L182.815 163.262L183.441 161.213L184.408 161.441C183.782 160.758 183.611 160.075 183.839 159.335C183.896 159.107 184.01 158.879 184.124 158.708L186.173 159.335Z" fill="black"/>
<path d="M192.548 152.618L188.678 148.804L189.816 146.698L196.817 154.269L197.102 154.667C197.842 155.635 197.956 156.602 197.387 157.627C197.216 157.912 197.045 158.196 196.817 158.424L195.337 157.627L195.508 157.342C195.736 156.944 195.793 156.659 195.793 156.432C195.793 156.204 195.679 155.919 195.451 155.692L194.939 155.122L186.116 153.756L187.255 151.593L192.548 152.618Z" fill="black"/>
<path d="M193.858 148.007C193.174 147.495 192.662 146.926 192.321 146.299C191.979 145.673 191.865 144.99 191.922 144.307C191.979 143.624 192.264 142.941 192.719 142.315C193.402 141.404 194.199 140.835 195.224 140.664C196.191 140.493 197.216 140.721 198.241 141.347L198.696 141.689C199.721 142.429 200.347 143.339 200.574 144.421C200.802 145.446 200.517 146.47 199.777 147.438C199.037 148.406 198.184 148.975 197.102 149.089C196.021 149.202 194.996 148.861 193.914 148.064L193.858 148.007ZM195.281 146.299C195.907 146.755 196.533 147.039 197.045 147.039C197.557 147.039 198.013 146.812 198.297 146.356C198.639 145.901 198.696 145.446 198.525 144.933C198.354 144.421 197.899 143.909 197.159 143.396C196.533 142.941 195.964 142.713 195.394 142.713C194.882 142.713 194.427 142.941 194.085 143.396C193.744 143.852 193.687 144.307 193.858 144.819C194.142 145.218 194.598 145.73 195.281 146.299Z" fill="black"/>
<path d="M205.697 139.241C205.754 140.095 205.47 140.892 204.786 141.575C204.16 142.201 203.477 142.486 202.794 142.486C202.111 142.429 201.371 142.087 200.688 141.404L196.817 137.477L198.411 135.883L202.225 139.753C202.851 140.38 203.42 140.38 203.99 139.867C204.559 139.355 204.73 138.786 204.559 138.217L200.347 134.004L201.94 132.41L207.86 138.387L206.323 139.81L205.697 139.241Z" fill="black"/>
<path d="M215.659 132.752L212.3 126.832L211.219 127.458L210.422 126.035L211.503 125.409L211.162 124.783C210.706 123.986 210.593 123.189 210.763 122.449C210.991 121.709 211.503 121.14 212.357 120.628C212.642 120.457 212.983 120.343 213.439 120.172L214.293 121.709C214.122 121.766 213.894 121.88 213.666 121.994C212.926 122.392 212.756 122.961 213.154 123.644L213.496 124.214L214.976 123.417L215.773 124.84L214.293 125.637L217.651 131.557L215.659 132.752Z" fill="black"/>
<path d="M221.749 122.734C221.465 122.791 221.18 122.904 221.009 123.018C220.212 123.36 219.814 123.872 219.814 124.498L222.034 129.564L219.985 130.475L216.626 122.791L218.562 121.937L219.017 122.848C219.131 121.937 219.529 121.368 220.269 121.026C220.497 120.912 220.725 120.855 220.952 120.855L221.749 122.734Z" fill="black"/>
<path d="M228.58 127.287C227.385 127.629 226.303 127.572 225.392 127.06C224.425 126.547 223.799 125.694 223.4 124.498L223.343 124.271C223.115 123.474 223.059 122.677 223.172 121.937C223.286 121.197 223.571 120.571 224.083 120.058C224.539 119.546 225.165 119.148 225.905 118.977C226.986 118.635 227.954 118.749 228.808 119.261C229.662 119.774 230.288 120.685 230.629 121.937L230.914 122.791L225.791 124.328C226.019 124.84 226.36 125.181 226.815 125.409C227.271 125.637 227.726 125.637 228.295 125.466C229.149 125.238 229.662 124.726 229.946 123.986L231.369 124.84C231.198 125.409 230.857 125.864 230.402 126.32C229.832 126.775 229.263 127.06 228.58 127.287ZM226.36 120.741C225.905 120.855 225.62 121.14 225.449 121.481C225.279 121.823 225.222 122.335 225.335 122.904L228.352 121.994L228.295 121.823C228.125 121.368 227.897 121.026 227.555 120.798C227.214 120.628 226.815 120.571 226.36 120.741Z" fill="black"/>
<path d="M236.606 125.637C235.411 125.808 234.329 125.58 233.475 124.954C232.622 124.328 232.052 123.36 231.882 122.108L231.825 121.88C231.711 121.026 231.768 120.286 231.995 119.546C232.223 118.806 232.622 118.294 233.134 117.838C233.646 117.383 234.329 117.098 235.069 117.042C236.208 116.871 237.175 117.098 237.915 117.725C238.655 118.351 239.168 119.318 239.338 120.628L239.452 121.538L234.158 122.278C234.329 122.791 234.557 123.246 235.012 123.474C235.411 123.758 235.923 123.872 236.435 123.758C237.289 123.644 237.915 123.246 238.314 122.563L239.566 123.644C239.281 124.157 238.883 124.612 238.371 124.954C237.915 125.295 237.346 125.523 236.606 125.637ZM235.411 118.806C234.955 118.863 234.614 119.091 234.386 119.432C234.158 119.774 234.045 120.229 234.045 120.798L237.118 120.343V120.172C237.061 119.66 236.834 119.318 236.549 119.091C236.265 118.863 235.923 118.749 235.411 118.806Z" fill="black"/>
<path d="M245.429 125.011L245.771 118.237L244.575 118.18L244.689 116.529L245.941 116.586L245.998 115.846C246.055 114.878 246.34 114.195 246.909 113.683C247.478 113.171 248.275 113 249.243 113C249.527 113 249.926 113.114 250.381 113.228L250.267 114.992C250.097 114.935 249.869 114.878 249.584 114.878C248.731 114.822 248.275 115.22 248.275 116.017L248.161 116.7L249.812 116.814L249.698 118.465L248.047 118.351L247.706 125.124L245.429 125.011Z" fill="black"/>
<path d="M250.666 120.969C250.837 120.172 251.121 119.432 251.52 118.863C251.975 118.294 252.487 117.838 253.17 117.611C253.853 117.383 254.537 117.326 255.333 117.44C256.472 117.668 257.326 118.18 257.895 118.977C258.464 119.774 258.692 120.798 258.578 121.994L258.464 122.563C258.237 123.815 257.667 124.783 256.813 125.409C255.96 126.035 254.935 126.263 253.74 126.035C252.544 125.807 251.69 125.238 251.121 124.384C250.552 123.474 250.381 122.392 250.609 121.083L250.666 120.969ZM252.829 121.538C252.658 122.335 252.715 122.961 252.943 123.417C253.17 123.872 253.569 124.157 254.081 124.271C254.593 124.384 255.049 124.214 255.447 123.872C255.846 123.531 256.073 122.904 256.244 121.994C256.415 121.197 256.358 120.571 256.13 120.115C255.903 119.66 255.504 119.318 254.992 119.261C254.423 119.148 253.967 119.318 253.626 119.66C253.284 120.001 253 120.628 252.829 121.538Z" fill="black"/>
<path d="M265.181 122.449C264.896 122.335 264.669 122.221 264.441 122.164C263.644 121.88 263.018 121.994 262.563 122.449L260.855 127.686L258.692 127.003L261.31 118.977L263.36 119.603L263.132 120.571C263.815 120.001 264.498 119.774 265.295 120.058C265.523 120.115 265.75 120.229 265.921 120.343L265.181 122.449Z" fill="black"/>
<path d="M271.784 128.995L275.655 125.181L277.761 126.32L270.076 133.207L269.678 133.492C268.71 134.232 267.686 134.289 266.718 133.72C266.433 133.549 266.149 133.378 265.921 133.094L266.718 131.614L267.003 131.784C267.401 132.012 267.686 132.069 267.913 132.069C268.141 132.069 268.426 131.955 268.653 131.727L269.223 131.272L270.702 122.449L272.809 123.644L271.784 128.995Z" fill="black"/>
<path d="M276.338 130.304C276.85 129.621 277.419 129.166 278.102 128.824C278.785 128.483 279.412 128.369 280.152 128.483C280.835 128.54 281.518 128.824 282.144 129.337C283.055 130.02 283.567 130.874 283.738 131.841C283.908 132.809 283.624 133.834 282.998 134.801L282.656 135.257C281.859 136.281 280.949 136.907 279.924 137.078C278.899 137.249 277.875 136.964 276.907 136.224C275.939 135.484 275.427 134.573 275.313 133.549C275.199 132.524 275.541 131.443 276.395 130.361L276.338 130.304ZM278.045 131.784C277.533 132.41 277.306 132.98 277.306 133.492C277.306 134.004 277.476 134.46 277.932 134.801C278.387 135.143 278.842 135.2 279.355 135.086C279.867 134.972 280.379 134.517 280.949 133.777C281.404 133.15 281.689 132.581 281.689 132.069C281.689 131.557 281.518 131.101 281.062 130.76C280.607 130.418 280.152 130.361 279.639 130.475C279.127 130.646 278.615 131.101 278.045 131.784Z" fill="black"/>
<path d="M284.933 142.315C284.079 142.372 283.282 142.087 282.599 141.347C281.973 140.721 281.688 140.038 281.745 139.298C281.802 138.615 282.144 137.875 282.884 137.192L286.868 133.378L288.405 135.029L284.478 138.786C283.852 139.412 283.795 139.981 284.364 140.55C284.876 141.12 285.445 141.29 286.015 141.12L290.341 136.964L291.878 138.615L285.787 144.421L284.307 142.884L284.933 142.315Z" fill="black"/>
<path d="M291.308 152.39L297.228 149.146L296.602 148.064L298.025 147.267L298.651 148.349L299.277 148.007C300.131 147.552 300.871 147.438 301.611 147.666C302.351 147.893 302.92 148.406 303.376 149.316C303.546 149.601 303.66 149.942 303.774 150.398L302.237 151.195C302.18 151.024 302.123 150.796 301.953 150.569C301.554 149.829 300.985 149.658 300.302 149.999L299.733 150.341L300.53 151.821L299.107 152.618L298.31 151.138L292.39 154.382L291.308 152.39Z" fill="black"/>
<path d="M301.213 158.595C301.156 158.31 301.042 158.025 300.985 157.798C300.644 157.001 300.188 156.602 299.562 156.602L294.496 158.708L293.642 156.659L301.384 153.415L302.18 155.35L301.27 155.805C302.18 155.919 302.75 156.375 303.091 157.058C303.205 157.285 303.262 157.513 303.262 157.741L301.213 158.595Z" fill="black"/>
<path d="M296.545 165.425C296.204 164.23 296.317 163.148 296.83 162.238C297.342 161.27 298.196 160.644 299.448 160.302L299.676 160.245C300.473 160.018 301.27 159.961 302.01 160.132C302.75 160.245 303.376 160.587 303.888 161.042C304.4 161.498 304.742 162.124 304.97 162.864C305.254 163.945 305.197 164.97 304.628 165.767C304.059 166.564 303.205 167.19 301.896 167.531L300.985 167.759L299.562 162.579C299.05 162.807 298.708 163.148 298.48 163.547C298.253 164.002 298.253 164.458 298.367 165.027C298.594 165.881 299.107 166.45 299.847 166.735L298.936 168.158C298.367 167.987 297.911 167.645 297.513 167.133C297 166.678 296.716 166.108 296.545 165.425ZM303.148 163.319C303.034 162.864 302.807 162.579 302.408 162.408C302.067 162.238 301.554 162.181 301.042 162.238L301.896 165.255L302.067 165.198C302.522 165.027 302.863 164.799 303.091 164.515C303.205 164.173 303.262 163.775 303.148 163.319Z" fill="black"/>
<path d="M298.082 173.451C297.911 172.199 298.196 171.174 298.822 170.321C299.505 169.467 300.416 168.954 301.668 168.784H301.896C302.75 168.67 303.49 168.727 304.23 169.011C304.913 169.239 305.482 169.638 305.937 170.207C306.393 170.776 306.62 171.402 306.734 172.199C306.848 173.338 306.62 174.305 305.994 175.045C305.368 175.785 304.4 176.241 303.034 176.411L302.123 176.525L301.44 171.231C300.928 171.345 300.473 171.63 300.188 172.028C299.904 172.427 299.79 172.939 299.847 173.451C299.96 174.305 300.359 174.931 301.042 175.33L299.96 176.582C299.448 176.297 298.993 175.899 298.708 175.387C298.424 174.874 298.139 174.134 298.082 173.451ZM304.913 172.37C304.856 171.914 304.685 171.573 304.343 171.345C304.002 171.118 303.547 171.004 302.977 170.947L303.376 174.077H303.547C304.059 174.021 304.4 173.85 304.628 173.508C304.856 173.224 304.97 172.825 304.913 172.37Z" fill="black"/>
<path d="M298.537 182.274L305.311 182.73L305.425 181.477L307.076 181.591L306.962 182.844L307.702 182.9C308.67 182.957 309.353 183.299 309.865 183.868C310.32 184.437 310.548 185.234 310.491 186.202C310.491 186.487 310.377 186.885 310.263 187.34L308.499 187.17C308.556 186.999 308.613 186.771 308.613 186.487C308.67 185.633 308.328 185.177 307.531 185.12L306.848 185.064L306.734 186.714L305.083 186.6L305.197 184.95L298.424 184.494L298.537 182.274Z" fill="black"/>
<path d="M302.522 187.568C303.319 187.739 304.059 188.023 304.628 188.479C305.197 188.934 305.596 189.503 305.823 190.13C306.051 190.813 306.108 191.496 305.937 192.293C305.71 193.431 305.197 194.228 304.343 194.797C303.49 195.366 302.522 195.594 301.327 195.423L300.757 195.31C299.505 195.082 298.537 194.513 297.911 193.659C297.285 192.805 297.114 191.78 297.342 190.585C297.57 189.39 298.139 188.536 299.05 187.967C299.96 187.397 301.042 187.284 302.351 187.511L302.522 187.568ZM301.896 189.731C301.099 189.56 300.473 189.617 300.017 189.788C299.562 190.016 299.277 190.357 299.164 190.927C299.05 191.439 299.164 191.894 299.505 192.293C299.847 192.691 300.473 192.976 301.383 193.146C302.18 193.317 302.807 193.26 303.262 193.033C303.717 192.805 304.059 192.463 304.173 191.894C304.287 191.382 304.173 190.87 303.774 190.528C303.433 190.187 302.807 189.902 301.896 189.731Z" fill="black"/>
<path d="M300.757 202.083C300.871 201.799 300.985 201.571 301.099 201.343C301.383 200.546 301.27 199.92 300.814 199.465L295.577 197.7L296.317 195.594L304.286 198.326L303.603 200.319L302.636 200.034C303.205 200.717 303.376 201.4 303.148 202.197C303.091 202.425 302.977 202.652 302.807 202.823L300.757 202.083Z" fill="black"/>
<path d="M294.154 208.572L297.911 212.5L296.716 214.606L289.942 206.808L289.658 206.409C288.974 205.442 288.861 204.417 289.487 203.449C289.658 203.165 289.885 202.88 290.113 202.652L291.593 203.506L291.422 203.791C291.194 204.132 291.138 204.474 291.138 204.702C291.138 204.929 291.251 205.214 291.479 205.442L291.934 206.011L300.7 207.662L299.505 209.768L294.154 208.572Z" fill="black"/>
<path d="M292.731 213.126C293.414 213.638 293.87 214.208 294.211 214.891C294.553 215.574 294.667 216.2 294.553 216.94C294.439 217.623 294.154 218.306 293.699 218.932C293.016 219.843 292.162 220.355 291.137 220.469C290.17 220.583 289.145 220.355 288.178 219.672L287.722 219.331C286.698 218.534 286.128 217.623 285.958 216.541C285.787 215.517 286.071 214.492 286.811 213.525C287.551 212.557 288.462 212.045 289.544 211.988C290.625 211.874 291.65 212.272 292.731 213.069V213.126ZM291.251 214.777C290.625 214.265 290.056 214.037 289.544 213.98C289.031 213.98 288.576 214.151 288.234 214.606C287.893 215.061 287.779 215.517 287.95 215.972C288.121 216.428 288.519 216.997 289.259 217.566C289.885 218.078 290.454 218.306 290.967 218.306C291.479 218.306 291.934 218.135 292.276 217.68C292.617 217.224 292.731 216.769 292.561 216.257C292.39 215.745 291.934 215.346 291.251 214.777Z" fill="black"/>
<path d="M280.607 221.494C280.55 220.64 280.892 219.843 281.631 219.16C282.315 218.534 282.998 218.249 283.681 218.306C284.364 218.363 285.104 218.761 285.787 219.501L289.544 223.543L287.893 225.08L284.193 221.095C283.567 220.469 282.998 220.412 282.428 220.924C281.859 221.437 281.688 222.006 281.802 222.575L285.844 226.958L284.193 228.495L278.444 222.348L279.981 220.924L280.607 221.494Z" fill="black"/>
<path d="M273.719 225.706L277.248 231.455L278.33 230.772L279.184 232.195L278.102 232.878L278.501 233.504C279.013 234.301 279.127 235.098 278.956 235.781C278.785 236.521 278.273 237.147 277.419 237.66C277.135 237.83 276.793 238.001 276.338 238.115L275.427 236.635C275.598 236.578 275.825 236.464 276.053 236.35C276.793 235.895 276.907 235.326 276.508 234.643L276.167 234.074L274.744 234.927L273.89 233.504L275.313 232.65L271.784 226.901L273.719 225.706Z" fill="black"/>
<path d="M268.027 235.952C268.312 235.838 268.596 235.781 268.767 235.667C269.507 235.269 269.906 234.814 269.906 234.187L267.515 229.178L269.564 228.211L273.264 235.781L271.329 236.692L270.816 235.838C270.759 236.749 270.361 237.375 269.621 237.717C269.393 237.83 269.166 237.887 268.938 237.944L268.027 235.952Z" fill="black"/>
<path d="M260.969 231.683C262.164 231.284 263.189 231.341 264.213 231.797C265.181 232.252 265.864 233.106 266.263 234.301L266.319 234.529C266.604 235.326 266.661 236.123 266.604 236.863C266.547 237.603 266.263 238.229 265.807 238.741C265.352 239.253 264.783 239.652 264.043 239.936C262.961 240.335 261.993 240.278 261.14 239.766C260.286 239.31 259.66 238.4 259.204 237.147L258.92 236.293L263.986 234.586C263.758 234.073 263.416 233.732 262.961 233.561C262.506 233.39 261.993 233.333 261.481 233.561C260.684 233.846 260.115 234.358 259.887 235.098L258.464 234.301C258.635 233.732 258.92 233.22 259.375 232.821C259.773 232.195 260.286 231.91 260.969 231.683ZM263.473 238.115C263.872 237.944 264.213 237.716 264.327 237.318C264.441 236.92 264.498 236.464 264.441 235.895L261.481 236.92L261.538 237.09C261.709 237.546 261.936 237.887 262.278 238.058C262.62 238.286 263.018 238.286 263.473 238.115Z" fill="black"/>
<path d="M253 233.618C254.195 233.39 255.277 233.618 256.187 234.187C257.098 234.814 257.667 235.724 257.838 236.977L257.895 237.204C258.066 238.058 258.009 238.798 257.838 239.538C257.61 240.278 257.269 240.847 256.757 241.303C256.244 241.758 255.561 242.043 254.821 242.213C253.683 242.441 252.715 242.213 251.975 241.644C251.178 241.018 250.666 240.107 250.438 238.798L250.267 237.887L255.561 236.92C255.39 236.407 255.106 236.009 254.707 235.724C254.309 235.44 253.797 235.383 253.227 235.497C252.374 235.667 251.747 236.066 251.406 236.806L250.097 235.781C250.324 235.269 250.723 234.813 251.235 234.415C251.747 234.017 252.317 233.789 253 233.618ZM254.48 240.392C254.935 240.335 255.277 240.107 255.447 239.766C255.675 239.424 255.789 238.969 255.732 238.4L252.658 238.969L252.715 239.14C252.829 239.652 253 239.993 253.341 240.221C253.626 240.449 254.024 240.506 254.48 240.392Z" fill="black"/>
<path d="M244.234 234.586L244.12 241.36H245.372V243.01H244.12V243.75C244.12 244.718 243.835 245.401 243.266 245.913C242.697 246.426 241.957 246.653 240.989 246.653C240.705 246.653 240.306 246.596 239.851 246.483L239.908 244.718C240.078 244.775 240.306 244.775 240.591 244.775C241.445 244.775 241.843 244.376 241.9 243.579V242.896H240.249V241.246H241.9L242.014 234.472L244.234 234.586Z" fill="black"/>
<path d="M239.168 238.798C239.054 239.652 238.769 240.335 238.371 240.961C237.972 241.587 237.403 241.986 236.777 242.27C236.151 242.555 235.411 242.612 234.614 242.498C233.475 242.327 232.622 241.872 231.995 241.075C231.369 240.278 231.142 239.31 231.198 238.115L231.255 237.546C231.426 236.293 231.938 235.269 232.792 234.643C233.646 234.017 234.614 233.732 235.809 233.903C237.005 234.073 237.915 234.586 238.541 235.497C239.168 236.35 239.338 237.489 239.168 238.798ZM236.948 238.343C237.061 237.546 237.005 236.92 236.777 236.464C236.549 236.009 236.151 235.724 235.582 235.667C235.069 235.61 234.614 235.724 234.215 236.123C233.817 236.521 233.589 237.147 233.475 238.058C233.362 238.855 233.418 239.481 233.646 239.936C233.874 240.392 234.272 240.676 234.842 240.79C235.411 240.847 235.866 240.733 236.208 240.335C236.606 239.88 236.834 239.196 236.948 238.343Z" fill="black"/>
<path d="M224.596 237.887C224.88 238.001 225.108 238.115 225.335 238.172C226.132 238.4 226.759 238.286 227.157 237.774L228.637 232.48L230.8 233.106L228.523 241.189L226.474 240.62L226.702 239.652C226.075 240.278 225.335 240.449 224.596 240.278C224.368 240.221 224.14 240.107 223.969 239.993L224.596 237.887Z" fill="black"/>
<path d="M217.765 231.569L214.008 235.553L211.845 234.472L219.245 227.3L219.586 227.015C220.554 226.275 221.522 226.161 222.546 226.674C222.831 226.844 223.115 227.015 223.343 227.243L222.603 228.78L222.319 228.609C221.92 228.438 221.635 228.324 221.408 228.381C221.18 228.438 220.895 228.495 220.668 228.723L220.099 229.235L218.96 238.115L216.797 237.033L217.765 231.569Z" fill="black"/>
<path d="M213.154 230.43C212.699 231.114 212.13 231.626 211.503 231.967C210.877 232.309 210.194 232.48 209.511 232.423C208.828 232.366 208.145 232.138 207.462 231.626C206.551 231 205.982 230.146 205.811 229.178C205.64 228.21 205.811 227.186 206.437 226.161L206.779 225.706C207.519 224.624 208.43 223.998 209.454 223.771C210.479 223.543 211.503 223.771 212.528 224.454C213.496 225.137 214.065 226.047 214.236 227.072C214.406 228.097 214.065 229.178 213.325 230.317L213.154 230.43ZM211.39 229.007C211.845 228.324 212.073 227.755 212.073 227.243C212.073 226.731 211.845 226.275 211.39 225.991C210.934 225.649 210.479 225.592 209.966 225.763C209.454 225.934 208.942 226.389 208.43 227.129C207.974 227.755 207.746 228.381 207.746 228.894C207.746 229.406 207.974 229.861 208.43 230.146C208.885 230.487 209.34 230.544 209.853 230.374C210.365 230.203 210.877 229.747 211.39 229.007Z" fill="black"/>
<path d="M204.104 218.818C204.957 218.704 205.754 218.989 206.437 219.672C207.063 220.298 207.405 220.981 207.405 221.664C207.405 222.347 207.007 223.087 206.323 223.827L202.51 227.812L200.916 226.275L204.673 222.347C205.299 221.721 205.299 221.095 204.73 220.583C204.16 220.071 203.648 219.9 203.022 220.071L198.867 224.34L197.216 222.746L203.136 216.655L204.673 218.135L204.104 218.818Z" fill="black"/>
</svg>
