<svg width="488" height="304" viewBox="0 0 488 304" fill="none" xmlns="http://www.w3.org/2000/svg">
<rect width="488" height="304" fill="white"/>
<rect x="0.5" y="0.5" width="487" height="282" rx="11.5" stroke="#EDF3F8"/>
<path d="M0.5 12C0.5 5.64872 5.64873 0.5 12 0.5H55.5V282.5H12C5.64873 282.5 0.5 277.351 0.5 271V12Z" fill="#F8FBFF" stroke="#EDF3F8"/>
<path d="M17.4517 55.959C17.4517 55.6546 17.355 55.404 17.1616 55.207C16.9683 55.0065 16.646 54.8275 16.1948 54.6699C15.7437 54.5088 15.3927 54.3602 15.1421 54.2241C14.3078 53.7765 13.8906 53.1141 13.8906 52.2368C13.8906 51.6424 14.0715 51.1536 14.4331 50.7705C14.7948 50.3874 15.2853 50.16 15.9048 50.0884V48.9175H16.7642V50.0991C17.3872 50.1886 17.8688 50.4536 18.209 50.894C18.5492 51.3309 18.7192 51.9002 18.7192 52.6021H17.4194C17.4194 52.1509 17.3174 51.7964 17.1133 51.5386C16.9128 51.2772 16.6388 51.1465 16.2915 51.1465C15.9478 51.1465 15.6792 51.2396 15.4858 51.4258C15.2925 51.612 15.1958 51.8787 15.1958 52.2261C15.1958 52.5376 15.2907 52.7882 15.4805 52.978C15.6738 53.1642 15.9997 53.3415 16.458 53.5098C16.9163 53.6781 17.2762 53.8338 17.5376 53.9771C17.799 54.1203 18.0192 54.285 18.1982 54.4712C18.3773 54.6538 18.5151 54.8651 18.6118 55.105C18.7085 55.3449 18.7568 55.626 18.7568 55.9482C18.7568 56.5534 18.5706 57.0439 18.1982 57.4199C17.8294 57.7959 17.3138 58.0179 16.6514 58.0859V59.1333H15.7974V58.0913C15.0884 58.0125 14.5423 57.7583 14.1592 57.3286C13.7796 56.8989 13.5898 56.3296 13.5898 55.6206H14.895C14.895 56.0718 15.0078 56.4209 15.2334 56.668C15.4626 56.915 15.7848 57.0386 16.2002 57.0386C16.6084 57.0386 16.9181 56.9401 17.1294 56.7432C17.3442 56.5462 17.4517 56.2848 17.4517 55.959ZM23.4243 58H22.1245V51.7212L20.207 52.3765V51.2754L23.2578 50.1528H23.4243V58ZM31.2393 54.7075C31.2393 55.8319 31.028 56.6805 30.6055 57.2534C30.1865 57.8228 29.5474 58.1074 28.688 58.1074C27.8429 58.1074 27.2056 57.8299 26.7759 57.2749C26.3498 56.7163 26.1313 55.891 26.1206 54.7988V53.4453C26.1206 52.321 26.3301 51.4777 26.749 50.9155C27.1715 50.3534 27.8143 50.0723 28.6772 50.0723C29.533 50.0723 30.1704 50.3462 30.5894 50.894C31.0119 51.4419 31.2285 52.2619 31.2393 53.354V54.7075ZM29.9341 53.2466C29.9341 52.5125 29.8338 51.9754 29.6333 51.6353C29.4328 51.2915 29.1141 51.1196 28.6772 51.1196C28.2511 51.1196 27.9378 51.2826 27.7373 51.6084C27.5368 51.9307 27.4312 52.4355 27.4204 53.123V54.8955C27.4204 55.626 27.5225 56.1702 27.7266 56.5283C27.9307 56.8864 28.2511 57.0654 28.688 57.0654C29.1069 57.0654 29.4167 56.9007 29.6172 56.5713C29.8177 56.2383 29.9233 55.7191 29.9341 55.0137V53.2466ZM37.4912 54.7075C37.4912 55.8319 37.2799 56.6805 36.8574 57.2534C36.4385 57.8228 35.7993 58.1074 34.9399 58.1074C34.0949 58.1074 33.4575 57.8299 33.0278 57.2749C32.6017 56.7163 32.3833 55.891 32.3726 54.7988V53.4453C32.3726 52.321 32.582 51.4777 33.001 50.9155C33.4235 50.3534 34.0662 50.0723 34.9292 50.0723C35.785 50.0723 36.4224 50.3462 36.8413 50.894C37.2638 51.4419 37.4805 52.2619 37.4912 53.354V54.7075ZM36.186 53.2466C36.186 52.5125 36.0858 51.9754 35.8853 51.6353C35.6847 51.2915 35.366 51.1196 34.9292 51.1196C34.5031 51.1196 34.1898 51.2826 33.9893 51.6084C33.7887 51.9307 33.6831 52.4355 33.6724 53.123V54.8955C33.6724 55.626 33.7744 56.1702 33.9785 56.5283C34.1826 56.8864 34.5031 57.0654 34.9399 57.0654C35.3589 57.0654 35.6686 56.9007 35.8691 56.5713C36.0697 56.2383 36.1753 55.7191 36.186 55.0137V53.2466ZM41.1006 54.6216L40.2144 55.5615V58H38.8555V50.1797H40.2144V53.8481L40.9663 52.9189L43.2544 50.1797H44.8979L41.9922 53.644L45.0645 58H43.4531L41.1006 54.6216Z" fill="#A1A7B7"/>
<path d="M23.7036 115.959C23.7036 115.655 23.6069 115.404 23.4136 115.207C23.2202 115.007 22.8979 114.827 22.4468 114.67C21.9956 114.509 21.6447 114.36 21.394 114.224C20.5597 113.777 20.1426 113.114 20.1426 112.237C20.1426 111.642 20.3234 111.154 20.6851 110.771C21.0467 110.387 21.5373 110.16 22.1567 110.088V108.917H23.0161V110.099C23.6392 110.189 24.1208 110.454 24.4609 110.894C24.8011 111.331 24.9712 111.9 24.9712 112.602H23.6714C23.6714 112.151 23.5693 111.796 23.3652 111.539C23.1647 111.277 22.8908 111.146 22.5435 111.146C22.1997 111.146 21.9312 111.24 21.7378 111.426C21.5444 111.612 21.4478 111.879 21.4478 112.226C21.4478 112.538 21.5426 112.788 21.7324 112.978C21.9258 113.164 22.2516 113.341 22.71 113.51C23.1683 113.678 23.5282 113.834 23.7896 113.977C24.0509 114.12 24.2712 114.285 24.4502 114.471C24.6292 114.654 24.7671 114.865 24.8638 115.105C24.9604 115.345 25.0088 115.626 25.0088 115.948C25.0088 116.553 24.8226 117.044 24.4502 117.42C24.0814 117.796 23.5658 118.018 22.9033 118.086V119.133H22.0493V118.091C21.3403 118.013 20.7943 117.758 20.4111 117.329C20.0316 116.899 19.8418 116.33 19.8418 115.621H21.147C21.147 116.072 21.2598 116.421 21.4854 116.668C21.7145 116.915 22.0368 117.039 22.4521 117.039C22.8604 117.039 23.1701 116.94 23.3813 116.743C23.5962 116.546 23.7036 116.285 23.7036 115.959ZM31.3467 110.905L28.2207 118H26.8511L29.9717 111.227H25.9272V110.18H31.3467V110.905ZM32.7432 114.122L33.1675 110.18H37.3677V111.308H34.2524L34.0376 113.177C34.3993 112.969 34.8075 112.865 35.2622 112.865C36.007 112.865 36.5853 113.103 36.9971 113.58C37.4124 114.056 37.6201 114.697 37.6201 115.502C37.6201 116.297 37.391 116.931 36.9326 117.404C36.4743 117.873 35.8459 118.107 35.0474 118.107C34.3312 118.107 33.7368 117.905 33.2642 117.5C32.7951 117.092 32.5409 116.555 32.5015 115.889H33.7637C33.8138 116.269 33.9499 116.561 34.1719 116.765C34.3939 116.965 34.6839 117.065 35.042 117.065C35.443 117.065 35.7546 116.922 35.9766 116.636C36.2021 116.349 36.3149 115.959 36.3149 115.465C36.3149 114.989 36.1914 114.613 35.9443 114.337C35.6973 114.058 35.3571 113.918 34.9238 113.918C34.6875 113.918 34.487 113.95 34.3223 114.015C34.1576 114.076 33.9785 114.197 33.7852 114.38L32.7432 114.122ZM41.1006 114.622L40.2144 115.562V118H38.8555V110.18H40.2144V113.848L40.9663 112.919L43.2544 110.18H44.8979L41.9922 113.644L45.0645 118H43.4531L41.1006 114.622Z" fill="#A1A7B7"/>
<path d="M23.7036 175.959C23.7036 175.655 23.6069 175.404 23.4136 175.207C23.2202 175.007 22.8979 174.827 22.4468 174.67C21.9956 174.509 21.6447 174.36 21.394 174.224C20.5597 173.777 20.1426 173.114 20.1426 172.237C20.1426 171.642 20.3234 171.154 20.6851 170.771C21.0467 170.387 21.5373 170.16 22.1567 170.088V168.917H23.0161V170.099C23.6392 170.189 24.1208 170.454 24.4609 170.894C24.8011 171.331 24.9712 171.9 24.9712 172.602H23.6714C23.6714 172.151 23.5693 171.796 23.3652 171.539C23.1647 171.277 22.8908 171.146 22.5435 171.146C22.1997 171.146 21.9312 171.24 21.7378 171.426C21.5444 171.612 21.4478 171.879 21.4478 172.226C21.4478 172.538 21.5426 172.788 21.7324 172.978C21.9258 173.164 22.2516 173.341 22.71 173.51C23.1683 173.678 23.5282 173.834 23.7896 173.977C24.0509 174.12 24.2712 174.285 24.4502 174.471C24.6292 174.654 24.7671 174.865 24.8638 175.105C24.9604 175.345 25.0088 175.626 25.0088 175.948C25.0088 176.553 24.8226 177.044 24.4502 177.42C24.0814 177.796 23.5658 178.018 22.9033 178.086V179.133H22.0493V178.091C21.3403 178.013 20.7943 177.758 20.4111 177.329C20.0316 176.899 19.8418 176.33 19.8418 175.621H21.147C21.147 176.072 21.2598 176.421 21.4854 176.668C21.7145 176.915 22.0368 177.039 22.4521 177.039C22.8604 177.039 23.1701 176.94 23.3813 176.743C23.5962 176.546 23.7036 176.285 23.7036 175.959ZM26.4912 174.122L26.9155 170.18H31.1157V171.308H28.0005L27.7856 173.177C28.1473 172.969 28.5555 172.865 29.0103 172.865C29.755 172.865 30.3333 173.103 30.7451 173.58C31.1605 174.056 31.3682 174.697 31.3682 175.502C31.3682 176.297 31.139 176.931 30.6807 177.404C30.2223 177.873 29.5939 178.107 28.7954 178.107C28.0793 178.107 27.4849 177.905 27.0122 177.5C26.5431 177.092 26.2889 176.555 26.2495 175.889H27.5117C27.5618 176.269 27.6979 176.561 27.9199 176.765C28.1419 176.965 28.432 177.065 28.79 177.065C29.1911 177.065 29.5026 176.922 29.7246 176.636C29.9502 176.349 30.063 175.959 30.063 175.465C30.063 174.989 29.9395 174.613 29.6924 174.337C29.4453 174.058 29.1051 173.918 28.6719 173.918C28.4355 173.918 28.235 173.95 28.0703 174.015C27.9056 174.076 27.7266 174.197 27.5332 174.38L26.4912 174.122ZM37.4912 174.708C37.4912 175.832 37.2799 176.681 36.8574 177.253C36.4385 177.823 35.7993 178.107 34.9399 178.107C34.0949 178.107 33.4575 177.83 33.0278 177.275C32.6017 176.716 32.3833 175.891 32.3726 174.799V173.445C32.3726 172.321 32.582 171.478 33.001 170.916C33.4235 170.353 34.0662 170.072 34.9292 170.072C35.785 170.072 36.4224 170.346 36.8413 170.894C37.2638 171.442 37.4805 172.262 37.4912 173.354V174.708ZM36.186 173.247C36.186 172.513 36.0858 171.975 35.8853 171.635C35.6847 171.292 35.366 171.12 34.9292 171.12C34.5031 171.12 34.1898 171.283 33.9893 171.608C33.7887 171.931 33.6831 172.436 33.6724 173.123V174.896C33.6724 175.626 33.7744 176.17 33.9785 176.528C34.1826 176.886 34.5031 177.065 34.9399 177.065C35.3589 177.065 35.6686 176.901 35.8691 176.571C36.0697 176.238 36.1753 175.719 36.186 175.014V173.247ZM41.1006 174.622L40.2144 175.562V178H38.8555V170.18H40.2144V173.848L40.9663 172.919L43.2544 170.18H44.8979L41.9922 173.644L45.0645 178H43.4531L41.1006 174.622Z" fill="#A1A7B7"/>
<path d="M23.7036 235.959C23.7036 235.655 23.6069 235.404 23.4136 235.207C23.2202 235.007 22.8979 234.827 22.4468 234.67C21.9956 234.509 21.6447 234.36 21.394 234.224C20.5597 233.777 20.1426 233.114 20.1426 232.237C20.1426 231.642 20.3234 231.154 20.6851 230.771C21.0467 230.387 21.5373 230.16 22.1567 230.088V228.917H23.0161V230.099C23.6392 230.189 24.1208 230.454 24.4609 230.894C24.8011 231.331 24.9712 231.9 24.9712 232.602H23.6714C23.6714 232.151 23.5693 231.796 23.3652 231.539C23.1647 231.277 22.8908 231.146 22.5435 231.146C22.1997 231.146 21.9312 231.24 21.7378 231.426C21.5444 231.612 21.4478 231.879 21.4478 232.226C21.4478 232.538 21.5426 232.788 21.7324 232.978C21.9258 233.164 22.2516 233.341 22.71 233.51C23.1683 233.678 23.5282 233.834 23.7896 233.977C24.0509 234.12 24.2712 234.285 24.4502 234.471C24.6292 234.654 24.7671 234.865 24.8638 235.105C24.9604 235.345 25.0088 235.626 25.0088 235.948C25.0088 236.553 24.8226 237.044 24.4502 237.42C24.0814 237.796 23.5658 238.018 22.9033 238.086V239.133H22.0493V238.091C21.3403 238.013 20.7943 237.758 20.4111 237.329C20.0316 236.899 19.8418 236.33 19.8418 235.621H21.147C21.147 236.072 21.2598 236.421 21.4854 236.668C21.7145 236.915 22.0368 237.039 22.4521 237.039C22.8604 237.039 23.1701 236.94 23.3813 236.743C23.5962 236.546 23.7036 236.285 23.7036 235.959ZM31.4004 238H26.1421V237.103L28.7471 234.262C29.123 233.843 29.3898 233.494 29.5474 233.214C29.7085 232.931 29.7891 232.649 29.7891 232.366C29.7891 231.993 29.6834 231.693 29.4722 231.463C29.2645 231.234 28.9834 231.12 28.6289 231.12C28.2064 231.12 27.8787 231.249 27.646 231.506C27.4132 231.764 27.2969 232.117 27.2969 232.564H25.9917C25.9917 232.088 26.0991 231.66 26.314 231.281C26.5324 230.898 26.8421 230.6 27.2432 230.389C27.6478 230.178 28.1133 230.072 28.6396 230.072C29.3988 230.072 29.9967 230.264 30.4336 230.647C30.874 231.027 31.0942 231.553 31.0942 232.226C31.0942 232.616 30.9832 233.026 30.7612 233.456C30.5428 233.882 30.1829 234.367 29.6816 234.912L27.7695 236.958H31.4004V238ZM32.7432 234.122L33.1675 230.18H37.3677V231.308H34.2524L34.0376 233.177C34.3993 232.969 34.8075 232.865 35.2622 232.865C36.007 232.865 36.5853 233.103 36.9971 233.58C37.4124 234.056 37.6201 234.697 37.6201 235.502C37.6201 236.297 37.391 236.931 36.9326 237.404C36.4743 237.873 35.8459 238.107 35.0474 238.107C34.3312 238.107 33.7368 237.905 33.2642 237.5C32.7951 237.092 32.5409 236.555 32.5015 235.889H33.7637C33.8138 236.269 33.9499 236.561 34.1719 236.765C34.3939 236.965 34.6839 237.065 35.042 237.065C35.443 237.065 35.7546 236.922 35.9766 236.636C36.2021 236.349 36.3149 235.959 36.3149 235.465C36.3149 234.989 36.1914 234.613 35.9443 234.337C35.6973 234.058 35.3571 233.918 34.9238 233.918C34.6875 233.918 34.487 233.95 34.3223 234.015C34.1576 234.076 33.9785 234.197 33.7852 234.38L32.7432 234.122ZM41.1006 234.622L40.2144 235.562V238H38.8555V230.18H40.2144V233.848L40.9663 232.919L43.2544 230.18H44.8979L41.9922 233.644L45.0645 238H43.4531L41.1006 234.622Z" fill="#A1A7B7"/>
<path d="M77.6304 290.18L79.8862 296.174L82.1367 290.18H83.8931V298H82.5396V295.422L82.6738 291.974L80.3643 298H79.3921L77.0879 291.979L77.2222 295.422V298H75.8687V290.18H77.6304ZM88.8506 298C88.7933 297.889 88.7432 297.708 88.7002 297.458C88.2848 297.891 87.7764 298.107 87.1748 298.107C86.5911 298.107 86.1149 297.941 85.7461 297.608C85.3773 297.275 85.1929 296.863 85.1929 296.373C85.1929 295.753 85.422 295.279 85.8804 294.949C86.3423 294.616 87.0011 294.45 87.8569 294.45H88.6572V294.068C88.6572 293.768 88.5731 293.528 88.4048 293.349C88.2365 293.166 87.9805 293.075 87.6367 293.075C87.3395 293.075 87.096 293.15 86.9062 293.3C86.7165 293.447 86.6216 293.635 86.6216 293.864H85.3164C85.3164 293.546 85.422 293.248 85.6333 292.973C85.8446 292.693 86.131 292.475 86.4927 292.317C86.8579 292.16 87.2643 292.081 87.7119 292.081C88.3923 292.081 88.9347 292.253 89.3394 292.597C89.744 292.937 89.9517 293.417 89.9624 294.036V296.657C89.9624 297.18 90.0358 297.597 90.1826 297.909V298H88.8506ZM87.4165 297.06C87.6743 297.06 87.916 296.997 88.1416 296.872C88.3708 296.747 88.5426 296.578 88.6572 296.367V295.271H87.9536C87.4702 295.271 87.1068 295.356 86.8633 295.524C86.6198 295.692 86.498 295.93 86.498 296.238C86.498 296.489 86.5804 296.689 86.7451 296.84C86.9134 296.987 87.1372 297.06 87.4165 297.06ZM93.2764 296.131L94.458 292.188H95.8491L93.5396 298.881C93.1851 299.858 92.5835 300.347 91.7349 300.347C91.5451 300.347 91.3356 300.315 91.1064 300.25V299.241L91.3535 299.257C91.6829 299.257 91.93 299.196 92.0947 299.074C92.263 298.956 92.3955 298.756 92.4922 298.473L92.6802 297.973L90.6392 292.188H92.0464L93.2764 296.131ZM102.794 298H101.494V291.721L99.5767 292.376V291.275L102.627 290.153H102.794V298Z" fill="#A1A7B7"/>
<path d="M148.885 292.242C148.885 292.625 148.786 292.967 148.589 293.268C148.392 293.565 148.124 293.8 147.784 293.972C148.192 294.161 148.505 294.421 148.724 294.75C148.946 295.08 149.057 295.452 149.057 295.868C149.057 296.555 148.824 297.101 148.358 297.506C147.893 297.907 147.273 298.107 146.5 298.107C145.723 298.107 145.1 297.905 144.631 297.5C144.165 297.096 143.933 296.552 143.933 295.868C143.933 295.449 144.044 295.073 144.266 294.74C144.488 294.407 144.799 294.151 145.2 293.972C144.864 293.8 144.597 293.565 144.4 293.268C144.207 292.967 144.11 292.625 144.11 292.242C144.11 291.576 144.325 291.048 144.754 290.658C145.184 290.267 145.764 290.072 146.495 290.072C147.229 290.072 147.811 290.267 148.24 290.658C148.67 291.048 148.885 291.576 148.885 292.242ZM147.751 295.803C147.751 295.417 147.635 295.105 147.402 294.869C147.173 294.629 146.869 294.509 146.489 294.509C146.11 294.509 145.805 294.627 145.576 294.863C145.351 295.1 145.238 295.413 145.238 295.803C145.238 296.186 145.349 296.493 145.571 296.722C145.796 296.951 146.106 297.065 146.5 297.065C146.894 297.065 147.2 296.954 147.418 296.732C147.64 296.51 147.751 296.201 147.751 295.803ZM147.585 292.291C147.585 291.95 147.486 291.671 147.29 291.453C147.093 291.231 146.828 291.12 146.495 291.12C146.162 291.12 145.898 291.225 145.705 291.437C145.512 291.644 145.415 291.929 145.415 292.291C145.415 292.649 145.512 292.933 145.705 293.145C145.902 293.356 146.167 293.461 146.5 293.461C146.833 293.461 147.096 293.356 147.29 293.145C147.486 292.933 147.585 292.649 147.585 292.291Z" fill="#A1A7B7"/>
<path d="M198.368 298H197.068V291.721L195.15 292.376V291.275L198.201 290.153H198.368V298ZM201.435 294.122L201.859 290.18H206.059V291.308H202.944L202.729 293.177C203.091 292.969 203.499 292.865 203.954 292.865C204.698 292.865 205.277 293.103 205.688 293.58C206.104 294.056 206.312 294.697 206.312 295.502C206.312 296.297 206.082 296.931 205.624 297.404C205.166 297.873 204.537 298.107 203.739 298.107C203.023 298.107 202.428 297.905 201.956 297.5C201.486 297.092 201.232 296.555 201.193 295.889H202.455C202.505 296.269 202.641 296.561 202.863 296.765C203.085 296.965 203.375 297.065 203.733 297.065C204.134 297.065 204.446 296.922 204.668 296.636C204.894 296.349 205.006 295.959 205.006 295.465C205.006 294.989 204.883 294.613 204.636 294.337C204.389 294.058 204.049 293.918 203.615 293.918C203.379 293.918 203.178 293.95 203.014 294.015C202.849 294.076 202.67 294.197 202.477 294.38L201.435 294.122Z" fill="#A1A7B7"/>
<path d="M254.092 298H248.833V297.103L251.438 294.262C251.814 293.843 252.081 293.494 252.239 293.214C252.4 292.931 252.48 292.649 252.48 292.366C252.48 291.993 252.375 291.693 252.164 291.463C251.956 291.234 251.675 291.12 251.32 291.12C250.898 291.12 250.57 291.249 250.337 291.506C250.105 291.764 249.988 292.117 249.988 292.564H248.683C248.683 292.088 248.791 291.66 249.005 291.281C249.224 290.898 249.534 290.6 249.935 290.389C250.339 290.178 250.805 290.072 251.331 290.072C252.09 290.072 252.688 290.264 253.125 290.647C253.565 291.027 253.786 291.553 253.786 292.226C253.786 292.616 253.675 293.026 253.453 293.456C253.234 293.882 252.874 294.367 252.373 294.912L250.461 296.958H254.092V298ZM260.344 298H255.085V297.103L257.69 294.262C258.066 293.843 258.333 293.494 258.491 293.214C258.652 292.931 258.732 292.649 258.732 292.366C258.732 291.993 258.627 291.693 258.416 291.463C258.208 291.234 257.927 291.12 257.572 291.12C257.15 291.12 256.822 291.249 256.589 291.506C256.357 291.764 256.24 292.117 256.24 292.564H254.935C254.935 292.088 255.042 291.66 255.257 291.281C255.476 290.898 255.785 290.6 256.187 290.389C256.591 290.178 257.057 290.072 257.583 290.072C258.342 290.072 258.94 290.264 259.377 290.647C259.817 291.027 260.038 291.553 260.038 292.226C260.038 292.616 259.927 293.026 259.705 293.456C259.486 293.882 259.126 294.367 258.625 294.912L256.713 296.958H260.344V298Z" fill="#A1A7B7"/>
<path d="M308.092 298H302.833V297.103L305.438 294.262C305.814 293.843 306.081 293.494 306.239 293.214C306.4 292.931 306.48 292.649 306.48 292.366C306.48 291.993 306.375 291.693 306.164 291.463C305.956 291.234 305.675 291.12 305.32 291.12C304.898 291.12 304.57 291.249 304.337 291.506C304.105 291.764 303.988 292.117 303.988 292.564H302.683C302.683 292.088 302.791 291.66 303.005 291.281C303.224 290.898 303.534 290.6 303.935 290.389C304.339 290.178 304.805 290.072 305.331 290.072C306.09 290.072 306.688 290.264 307.125 290.647C307.565 291.027 307.786 291.553 307.786 292.226C307.786 292.616 307.675 293.026 307.453 293.456C307.234 293.882 306.874 294.367 306.373 294.912L304.461 296.958H308.092V298ZM312.786 294.729C312.349 295.191 311.839 295.422 311.255 295.422C310.568 295.422 310.02 295.182 309.612 294.702C309.204 294.219 309 293.585 309 292.801C309 292.285 309.103 291.818 309.311 291.399C309.519 290.98 309.814 290.654 310.197 290.421C310.58 290.189 311.024 290.072 311.529 290.072C312.317 290.072 312.942 290.366 313.404 290.953C313.866 291.54 314.097 292.326 314.097 293.311V293.676C314.097 295.087 313.778 296.163 313.141 296.904C312.503 297.646 311.553 298.021 310.289 298.032H310.133V296.953H310.321C311.091 296.942 311.681 296.757 312.093 296.399C312.505 296.038 312.736 295.481 312.786 294.729ZM311.529 294.401C311.791 294.401 312.036 294.326 312.265 294.176C312.494 294.025 312.672 293.818 312.797 293.553V293.042C312.797 292.466 312.679 292.002 312.442 291.651C312.206 291.3 311.9 291.125 311.524 291.125C311.148 291.125 310.847 291.281 310.622 291.592C310.4 291.9 310.289 292.291 310.289 292.763C310.289 293.254 310.401 293.649 310.627 293.95C310.853 294.251 311.153 294.401 311.529 294.401Z" fill="#A1A7B7"/>
<path d="M352.327 290.18H353.68V295.664C353.68 296.412 353.446 297.006 352.977 297.447C352.511 297.887 351.895 298.107 351.129 298.107C350.312 298.107 349.682 297.902 349.238 297.49C348.794 297.078 348.572 296.505 348.572 295.771H349.926C349.926 296.186 350.028 296.5 350.232 296.711C350.44 296.919 350.739 297.022 351.129 297.022C351.494 297.022 351.784 296.903 351.999 296.663C352.217 296.419 352.327 296.084 352.327 295.658V290.18ZM358.632 297.431C358.249 297.882 357.705 298.107 357 298.107C356.369 298.107 355.891 297.923 355.565 297.554C355.243 297.185 355.082 296.652 355.082 295.954V292.188H356.387V295.938C356.387 296.675 356.693 297.044 357.306 297.044C357.939 297.044 358.367 296.817 358.589 296.362V292.188H359.895V298H358.665L358.632 297.431ZM362.435 292.188L362.473 292.86C362.902 292.341 363.466 292.081 364.165 292.081C365.375 292.081 365.991 292.774 366.012 294.16V298H364.707V294.235C364.707 293.866 364.626 293.594 364.465 293.418C364.308 293.239 364.048 293.15 363.687 293.15C363.16 293.15 362.768 293.388 362.51 293.864V298H361.205V292.188H362.435ZM370.352 294.122L370.776 290.18H374.977V291.308H371.861L371.646 293.177C372.008 292.969 372.416 292.865 372.871 292.865C373.616 292.865 374.194 293.103 374.606 293.58C375.021 294.056 375.229 294.697 375.229 295.502C375.229 296.297 375 296.931 374.542 297.404C374.083 297.873 373.455 298.107 372.656 298.107C371.94 298.107 371.346 297.905 370.873 297.5C370.404 297.092 370.15 296.555 370.11 295.889H371.373C371.423 296.269 371.559 296.561 371.781 296.765C372.003 296.965 372.293 297.065 372.651 297.065C373.052 297.065 373.363 296.922 373.585 296.636C373.811 296.349 373.924 295.959 373.924 295.465C373.924 294.989 373.8 294.613 373.553 294.337C373.306 294.058 372.966 293.918 372.533 293.918C372.296 293.918 372.096 293.95 371.931 294.015C371.766 294.076 371.587 294.197 371.394 294.38L370.352 294.122Z" fill="#A1A7B7"/>
<path d="M414.368 298H413.068V291.721L411.15 292.376V291.275L414.201 290.153H414.368V298ZM422.344 298H417.085V297.103L419.69 294.262C420.066 293.843 420.333 293.494 420.491 293.214C420.652 292.931 420.732 292.649 420.732 292.366C420.732 291.993 420.627 291.693 420.416 291.463C420.208 291.234 419.927 291.12 419.572 291.12C419.15 291.12 418.822 291.249 418.589 291.506C418.357 291.764 418.24 292.117 418.24 292.564H416.935C416.935 292.088 417.042 291.66 417.257 291.281C417.476 290.898 417.785 290.6 418.187 290.389C418.591 290.178 419.057 290.072 419.583 290.072C420.342 290.072 420.94 290.264 421.377 290.647C421.817 291.027 422.038 291.553 422.038 292.226C422.038 292.616 421.927 293.026 421.705 293.456C421.486 293.882 421.126 294.367 420.625 294.912L418.713 296.958H422.344V298Z" fill="#A1A7B7"/>
<path d="M78 53.5H462" stroke="#DFE5EB" stroke-dasharray="1 1"/>
<path d="M78 114H462" stroke="#DFE5EB" stroke-dasharray="1 1"/>
<path d="M78 174.5H462" stroke="#DFE5EB" stroke-dasharray="1 1"/>
<path d="M78 235H462" stroke="#DFE5EB" stroke-dasharray="1 1"/>
<path d="M91 181L146 216.5L200.5 181L255 153L310 107.5L365.5 93.5L419 77" stroke="#D87D83"/>
<circle cx="91" cy="181" r="4" fill="#D87D83"/>
<circle cx="146" cy="216" r="4" fill="#D87D83"/>
<rect x="182.5" y="73.5" width="120" height="47" rx="5.5" fill="white" stroke="#D87D83"/>
<path d="M199.107 84.4688V90.1699C199.107 91.0762 198.816 91.7949 198.234 92.3262C197.656 92.8535 196.885 93.1172 195.92 93.1172C194.943 93.1172 194.168 92.8574 193.594 92.3379C193.02 91.8145 192.732 91.0898 192.732 90.1641V84.4688H194.209V90.1758C194.209 90.7461 194.354 91.1816 194.643 91.4824C194.932 91.7832 195.357 91.9336 195.92 91.9336C197.061 91.9336 197.631 91.332 197.631 90.1289V84.4688H199.107ZM201.879 86.6602L201.92 87.3926C202.389 86.8262 203.004 86.543 203.766 86.543C205.086 86.543 205.758 87.2988 205.781 88.8105V93H204.357V88.8926C204.357 88.4902 204.27 88.1934 204.094 88.002C203.922 87.8066 203.639 87.709 203.244 87.709C202.67 87.709 202.242 87.9688 201.961 88.4883V93H200.537V86.6602H201.879ZM208.752 93H207.328V86.6602H208.752V93ZM207.24 85.0137C207.24 84.7949 207.309 84.6133 207.445 84.4688C207.586 84.3242 207.785 84.252 208.043 84.252C208.301 84.252 208.5 84.3242 208.641 84.4688C208.781 84.6133 208.852 84.7949 208.852 85.0137C208.852 85.2285 208.781 85.4082 208.641 85.5527C208.5 85.6934 208.301 85.7637 208.043 85.7637C207.785 85.7637 207.586 85.6934 207.445 85.5527C207.309 85.4082 207.24 85.2285 207.24 85.0137ZM212.092 85.1191V86.6602H213.211V87.7148H212.092V91.2539C212.092 91.4961 212.139 91.6719 212.232 91.7812C212.33 91.8867 212.502 91.9395 212.748 91.9395C212.912 91.9395 213.078 91.9199 213.246 91.8809V92.9824C212.922 93.0723 212.609 93.1172 212.309 93.1172C211.215 93.1172 210.668 92.5137 210.668 91.3066V87.7148H209.625V86.6602H210.668V85.1191H212.092ZM217.096 93.1172C216.193 93.1172 215.461 92.834 214.898 92.2676C214.34 91.6973 214.061 90.9395 214.061 89.9941V89.8184C214.061 89.1855 214.182 88.6211 214.424 88.125C214.67 87.625 215.014 87.2363 215.455 86.959C215.896 86.6816 216.389 86.543 216.932 86.543C217.795 86.543 218.461 86.8184 218.93 87.3691C219.402 87.9199 219.639 88.6992 219.639 89.707V90.2812H215.496C215.539 90.8047 215.713 91.2188 216.018 91.5234C216.326 91.8281 216.713 91.9805 217.178 91.9805C217.83 91.9805 218.361 91.7168 218.771 91.1895L219.539 91.9219C219.285 92.3008 218.945 92.5957 218.52 92.8066C218.098 93.0137 217.623 93.1172 217.096 93.1172ZM216.926 87.6855C216.535 87.6855 216.219 87.8223 215.977 88.0957C215.738 88.3691 215.586 88.75 215.52 89.2383H218.232V89.1328C218.201 88.6562 218.074 88.2969 217.852 88.0547C217.629 87.8086 217.32 87.6855 216.926 87.6855ZM220.482 89.7832C220.482 88.8066 220.709 88.0234 221.162 87.4336C221.615 86.8398 222.223 86.543 222.984 86.543C223.656 86.543 224.199 86.7773 224.613 87.2461V84H226.037V93H224.748L224.678 92.3438C224.252 92.8594 223.684 93.1172 222.973 93.1172C222.23 93.1172 221.629 92.8184 221.168 92.2207C220.711 91.623 220.482 90.8105 220.482 89.7832ZM221.906 89.9062C221.906 90.5508 222.029 91.0547 222.275 91.418C222.525 91.7773 222.879 91.957 223.336 91.957C223.918 91.957 224.344 91.6973 224.613 91.1777V88.4707C224.352 87.9629 223.93 87.709 223.348 87.709C222.887 87.709 222.531 87.8926 222.281 88.2598C222.031 88.623 221.906 89.1719 221.906 89.9062ZM235.107 90.8027C235.107 90.4277 234.975 90.1387 234.709 89.9355C234.447 89.7324 233.973 89.5273 233.285 89.3203C232.598 89.1133 232.051 88.8828 231.645 88.6289C230.867 88.1406 230.479 87.5039 230.479 86.7188C230.479 86.0312 230.758 85.4648 231.316 85.0195C231.879 84.5742 232.607 84.3516 233.502 84.3516C234.096 84.3516 234.625 84.4609 235.09 84.6797C235.555 84.8984 235.92 85.2109 236.186 85.6172C236.451 86.0195 236.584 86.4668 236.584 86.959H235.107C235.107 86.5137 234.967 86.166 234.686 85.916C234.408 85.6621 234.01 85.5352 233.49 85.5352C233.006 85.5352 232.629 85.6387 232.359 85.8457C232.094 86.0527 231.961 86.3418 231.961 86.7129C231.961 87.0254 232.105 87.2871 232.395 87.498C232.684 87.7051 233.16 87.9082 233.824 88.1074C234.488 88.3027 235.021 88.5273 235.424 88.7812C235.826 89.0312 236.121 89.3203 236.309 89.6484C236.496 89.9727 236.59 90.3535 236.59 90.791C236.59 91.502 236.316 92.0684 235.77 92.4902C235.227 92.9082 234.488 93.1172 233.555 93.1172C232.938 93.1172 232.369 93.0039 231.85 92.7773C231.334 92.5469 230.932 92.2305 230.643 91.8281C230.357 91.4258 230.215 90.957 230.215 90.4219H231.697C231.697 90.9062 231.857 91.2812 232.178 91.5469C232.498 91.8125 232.957 91.9453 233.555 91.9453C234.07 91.9453 234.457 91.8418 234.715 91.6348C234.977 91.4238 235.107 91.1465 235.107 90.8027ZM239.537 85.1191V86.6602H240.656V87.7148H239.537V91.2539C239.537 91.4961 239.584 91.6719 239.678 91.7812C239.775 91.8867 239.947 91.9395 240.193 91.9395C240.357 91.9395 240.523 91.9199 240.691 91.8809V92.9824C240.367 93.0723 240.055 93.1172 239.754 93.1172C238.66 93.1172 238.113 92.5137 238.113 91.3066V87.7148H237.07V86.6602H238.113V85.1191H239.537ZM245.537 93C245.475 92.8789 245.42 92.6816 245.373 92.4082C244.92 92.8809 244.365 93.1172 243.709 93.1172C243.072 93.1172 242.553 92.9355 242.15 92.5723C241.748 92.209 241.547 91.7598 241.547 91.2246C241.547 90.5488 241.797 90.0312 242.297 89.6719C242.801 89.3086 243.52 89.127 244.453 89.127H245.326V88.7109C245.326 88.3828 245.234 88.1211 245.051 87.9258C244.867 87.7266 244.588 87.627 244.213 87.627C243.889 87.627 243.623 87.709 243.416 87.873C243.209 88.0332 243.105 88.2383 243.105 88.4883H241.682C241.682 88.1406 241.797 87.8164 242.027 87.5156C242.258 87.2109 242.57 86.9727 242.965 86.8008C243.363 86.6289 243.807 86.543 244.295 86.543C245.037 86.543 245.629 86.7305 246.07 87.1055C246.512 87.4766 246.738 88 246.75 88.6758V91.5352C246.75 92.1055 246.83 92.5605 246.99 92.9004V93H245.537ZM243.973 91.9746C244.254 91.9746 244.518 91.9062 244.764 91.7695C245.014 91.6328 245.201 91.4492 245.326 91.2188V90.0234H244.559C244.031 90.0234 243.635 90.1152 243.369 90.2988C243.104 90.4824 242.971 90.7422 242.971 91.0781C242.971 91.3516 243.061 91.5703 243.24 91.7344C243.424 91.8945 243.668 91.9746 243.973 91.9746ZM250.025 85.1191V86.6602H251.145V87.7148H250.025V91.2539C250.025 91.4961 250.072 91.6719 250.166 91.7812C250.264 91.8867 250.436 91.9395 250.682 91.9395C250.846 91.9395 251.012 91.9199 251.18 91.8809V92.9824C250.855 93.0723 250.543 93.1172 250.242 93.1172C249.148 93.1172 248.602 92.5137 248.602 91.3066V87.7148H247.559V86.6602H248.602V85.1191H250.025ZM255.029 93.1172C254.127 93.1172 253.395 92.834 252.832 92.2676C252.273 91.6973 251.994 90.9395 251.994 89.9941V89.8184C251.994 89.1855 252.115 88.6211 252.357 88.125C252.604 87.625 252.947 87.2363 253.389 86.959C253.83 86.6816 254.322 86.543 254.865 86.543C255.729 86.543 256.395 86.8184 256.863 87.3691C257.336 87.9199 257.572 88.6992 257.572 89.707V90.2812H253.43C253.473 90.8047 253.646 91.2188 253.951 91.5234C254.26 91.8281 254.646 91.9805 255.111 91.9805C255.764 91.9805 256.295 91.7168 256.705 91.1895L257.473 91.9219C257.219 92.3008 256.879 92.5957 256.453 92.8066C256.031 93.0137 255.557 93.1172 255.029 93.1172ZM254.859 87.6855C254.469 87.6855 254.152 87.8223 253.91 88.0957C253.672 88.3691 253.52 88.75 253.453 89.2383H256.166V89.1328C256.135 88.6562 256.008 88.2969 255.785 88.0547C255.562 87.8086 255.254 87.6855 254.859 87.6855ZM262.236 91.2773C262.236 91.0234 262.131 90.8301 261.92 90.6973C261.713 90.5645 261.367 90.4473 260.883 90.3457C260.398 90.2441 259.994 90.1152 259.67 89.959C258.959 89.6152 258.604 89.1172 258.604 88.4648C258.604 87.918 258.834 87.4609 259.295 87.0938C259.756 86.7266 260.342 86.543 261.053 86.543C261.811 86.543 262.422 86.7305 262.887 87.1055C263.355 87.4805 263.59 87.9668 263.59 88.5645H262.166C262.166 88.291 262.064 88.0645 261.861 87.8848C261.658 87.7012 261.389 87.6094 261.053 87.6094C260.74 87.6094 260.484 87.6816 260.285 87.8262C260.09 87.9707 259.992 88.1641 259.992 88.4062C259.992 88.625 260.084 88.7949 260.268 88.916C260.451 89.0371 260.822 89.1602 261.381 89.2852C261.939 89.4062 262.377 89.5527 262.693 89.7246C263.014 89.8926 263.25 90.0957 263.402 90.334C263.559 90.5723 263.637 90.8613 263.637 91.2012C263.637 91.7715 263.4 92.2344 262.928 92.5898C262.455 92.9414 261.836 93.1172 261.07 93.1172C260.551 93.1172 260.088 93.0234 259.682 92.8359C259.275 92.6484 258.959 92.3906 258.732 92.0625C258.506 91.7344 258.393 91.3809 258.393 91.002H259.775C259.795 91.3379 259.922 91.5977 260.156 91.7812C260.391 91.9609 260.701 92.0508 261.088 92.0508C261.463 92.0508 261.748 91.9805 261.943 91.8398C262.139 91.6953 262.236 91.5078 262.236 91.2773Z" fill="#A1A7B7"/>
<path d="M194.443 101.469L197.232 108.43L200.021 101.469H201.48V110H200.355V106.678L200.461 103.092L197.66 110H196.799L194.004 103.109L194.115 106.678V110H192.99V101.469H194.443ZM207.211 110C207.148 109.875 207.098 109.652 207.059 109.332C206.555 109.855 205.953 110.117 205.254 110.117C204.629 110.117 204.115 109.941 203.713 109.59C203.314 109.234 203.115 108.785 203.115 108.242C203.115 107.582 203.365 107.07 203.865 106.707C204.369 106.34 205.076 106.156 205.986 106.156H207.041V105.658C207.041 105.279 206.928 104.979 206.701 104.756C206.475 104.529 206.141 104.416 205.699 104.416C205.312 104.416 204.988 104.514 204.727 104.709C204.465 104.904 204.334 105.141 204.334 105.418H203.244C203.244 105.102 203.355 104.797 203.578 104.504C203.805 104.207 204.109 103.973 204.492 103.801C204.879 103.629 205.303 103.543 205.764 103.543C206.494 103.543 207.066 103.727 207.48 104.094C207.895 104.457 208.109 104.959 208.125 105.6V108.518C208.125 109.1 208.199 109.562 208.348 109.906V110H207.211ZM205.412 109.174C205.752 109.174 206.074 109.086 206.379 108.91C206.684 108.734 206.904 108.506 207.041 108.225V106.924H206.191C204.863 106.924 204.199 107.312 204.199 108.09C204.199 108.43 204.312 108.695 204.539 108.887C204.766 109.078 205.057 109.174 205.412 109.174ZM211.805 108.412L213.281 103.66H214.441L211.893 110.979C211.498 112.033 210.871 112.561 210.012 112.561L209.807 112.543L209.402 112.467V111.588L209.695 111.611C210.062 111.611 210.348 111.537 210.551 111.389C210.758 111.24 210.928 110.969 211.061 110.574L211.301 109.93L209.039 103.66H210.223L211.805 108.412ZM223.869 110H218.279V109.221L221.232 105.939C221.67 105.443 221.971 105.041 222.135 104.732C222.303 104.42 222.387 104.098 222.387 103.766C222.387 103.32 222.252 102.955 221.982 102.67C221.713 102.385 221.354 102.242 220.904 102.242C220.365 102.242 219.945 102.396 219.645 102.705C219.348 103.01 219.199 103.436 219.199 103.982H218.115C218.115 103.197 218.367 102.562 218.871 102.078C219.379 101.594 220.057 101.352 220.904 101.352C221.697 101.352 222.324 101.561 222.785 101.979C223.246 102.393 223.477 102.945 223.477 103.637C223.477 104.477 222.941 105.477 221.871 106.637L219.586 109.115H223.869V110ZM230.367 106.361C230.367 107.631 230.15 108.574 229.717 109.191C229.283 109.809 228.605 110.117 227.684 110.117C226.773 110.117 226.1 109.816 225.662 109.215C225.225 108.609 224.998 107.707 224.982 106.508V105.061C224.982 103.807 225.199 102.875 225.633 102.266C226.066 101.656 226.746 101.352 227.672 101.352C228.59 101.352 229.266 101.646 229.699 102.236C230.133 102.822 230.355 103.729 230.367 104.955V106.361ZM229.283 104.879C229.283 103.961 229.154 103.293 228.896 102.875C228.639 102.453 228.23 102.242 227.672 102.242C227.117 102.242 226.713 102.451 226.459 102.869C226.205 103.287 226.074 103.93 226.066 104.797V106.531C226.066 107.453 226.199 108.135 226.465 108.576C226.734 109.014 227.141 109.232 227.684 109.232C228.219 109.232 228.615 109.025 228.873 108.611C229.135 108.197 229.271 107.545 229.283 106.654V104.879ZM235.318 110H234.229V102.775L232.043 103.578V102.594L235.148 101.428H235.318V110ZM242.648 106.25C242.422 106.52 242.15 106.736 241.834 106.9C241.521 107.064 241.178 107.146 240.803 107.146C240.311 107.146 239.881 107.025 239.514 106.783C239.15 106.541 238.869 106.201 238.67 105.764C238.471 105.322 238.371 104.836 238.371 104.305C238.371 103.734 238.479 103.221 238.693 102.764C238.912 102.307 239.221 101.957 239.619 101.715C240.018 101.473 240.482 101.352 241.014 101.352C241.857 101.352 242.521 101.668 243.006 102.301C243.494 102.93 243.738 103.789 243.738 104.879V105.195C243.738 106.855 243.41 108.068 242.754 108.834C242.098 109.596 241.107 109.986 239.783 110.006H239.572V109.092H239.801C240.695 109.076 241.383 108.844 241.863 108.395C242.344 107.941 242.605 107.227 242.648 106.25ZM240.979 106.25C241.342 106.25 241.676 106.139 241.98 105.916C242.289 105.693 242.514 105.418 242.654 105.09V104.656C242.654 103.945 242.5 103.367 242.191 102.922C241.883 102.477 241.492 102.254 241.02 102.254C240.543 102.254 240.16 102.438 239.871 102.805C239.582 103.168 239.438 103.648 239.438 104.246C239.438 104.828 239.576 105.309 239.854 105.688C240.135 106.062 240.51 106.25 240.979 106.25ZM245.309 109.432C245.309 109.244 245.363 109.088 245.473 108.963C245.586 108.838 245.754 108.775 245.977 108.775C246.199 108.775 246.367 108.838 246.48 108.963C246.598 109.088 246.656 109.244 246.656 109.432C246.656 109.611 246.598 109.762 246.48 109.883C246.367 110.004 246.199 110.064 245.977 110.064C245.754 110.064 245.586 110.004 245.473 109.883C245.363 109.762 245.309 109.611 245.309 109.432ZM245.314 104.258C245.314 104.07 245.369 103.914 245.479 103.789C245.592 103.664 245.76 103.602 245.982 103.602C246.205 103.602 246.373 103.664 246.486 103.789C246.604 103.914 246.662 104.07 246.662 104.258C246.662 104.438 246.604 104.588 246.486 104.709C246.373 104.83 246.205 104.891 245.982 104.891C245.76 104.891 245.592 104.83 245.479 104.709C245.369 104.588 245.314 104.438 245.314 104.258ZM255.047 107.756C255.047 107.436 254.957 107.182 254.777 106.994C254.602 106.803 254.301 106.627 253.875 106.467C253.449 106.307 253.082 106.148 252.773 105.992C252.465 105.832 252.199 105.65 251.977 105.447C251.758 105.24 251.586 104.998 251.461 104.721C251.34 104.443 251.279 104.113 251.279 103.73C251.279 103.07 251.49 102.529 251.912 102.107C252.334 101.686 252.895 101.439 253.594 101.369V100.115H254.531V101.387C255.223 101.484 255.764 101.773 256.154 102.254C256.545 102.73 256.74 103.35 256.74 104.111H255.047C255.047 103.643 254.949 103.293 254.754 103.062C254.562 102.828 254.305 102.711 253.98 102.711C253.66 102.711 253.412 102.803 253.236 102.986C253.061 103.166 252.973 103.416 252.973 103.736C252.973 104.033 253.059 104.271 253.23 104.451C253.402 104.631 253.721 104.814 254.186 105.002C254.654 105.189 255.039 105.367 255.34 105.535C255.641 105.699 255.895 105.887 256.102 106.098C256.309 106.305 256.467 106.543 256.576 106.812C256.686 107.078 256.74 107.389 256.74 107.744C256.74 108.408 256.533 108.947 256.119 109.361C255.705 109.775 255.135 110.02 254.408 110.094V111.26H253.477V110.1C252.676 110.014 252.055 109.73 251.613 109.25C251.176 108.766 250.957 108.123 250.957 107.322H252.65C252.65 107.787 252.76 108.145 252.979 108.395C253.201 108.641 253.52 108.764 253.934 108.764C254.277 108.764 254.549 108.674 254.748 108.494C254.947 108.311 255.047 108.064 255.047 107.756ZM263.449 103.736C263.449 104.15 263.346 104.518 263.139 104.838C262.932 105.158 262.646 105.414 262.283 105.605C262.697 105.805 263.025 106.08 263.268 106.432C263.51 106.779 263.631 107.189 263.631 107.662C263.631 108.42 263.373 109.02 262.857 109.461C262.342 109.898 261.641 110.117 260.754 110.117C259.867 110.117 259.164 109.896 258.645 109.455C258.125 109.014 257.865 108.416 257.865 107.662C257.865 107.189 257.986 106.777 258.229 106.426C258.471 106.074 258.797 105.801 259.207 105.605C258.844 105.414 258.559 105.158 258.352 104.838C258.148 104.518 258.047 104.15 258.047 103.736C258.047 103.01 258.289 102.432 258.773 102.002C259.258 101.568 259.916 101.352 260.748 101.352C261.576 101.352 262.232 101.566 262.717 101.996C263.205 102.422 263.449 103.002 263.449 103.736ZM261.932 107.539C261.932 107.168 261.824 106.871 261.609 106.648C261.395 106.426 261.105 106.314 260.742 106.314C260.383 106.314 260.096 106.426 259.881 106.648C259.666 106.867 259.559 107.164 259.559 107.539C259.559 107.902 259.664 108.195 259.875 108.418C260.086 108.641 260.379 108.752 260.754 108.752C261.121 108.752 261.408 108.645 261.615 108.43C261.826 108.215 261.932 107.918 261.932 107.539ZM261.756 103.818C261.756 103.486 261.668 103.221 261.492 103.021C261.316 102.818 261.068 102.717 260.748 102.717C260.432 102.717 260.186 102.814 260.01 103.01C259.834 103.205 259.746 103.475 259.746 103.818C259.746 104.158 259.834 104.432 260.01 104.639C260.186 104.846 260.434 104.949 260.754 104.949C261.074 104.949 261.32 104.846 261.492 104.639C261.668 104.432 261.756 104.158 261.756 103.818ZM269.789 106.789H270.756V108.154H269.789V110H268.096V108.154H264.598L264.521 107.088L268.078 101.469H269.789V106.789ZM266.209 106.789H268.096V103.777L267.984 103.971L266.209 106.789ZM272.18 112.139L271.295 111.676L271.506 111.295C271.768 110.818 271.902 110.344 271.91 109.871V108.559H273.34L273.334 109.73C273.33 110.164 273.221 110.602 273.006 111.043C272.791 111.484 272.516 111.85 272.18 112.139ZM278.561 106.59C278.119 107.023 277.604 107.24 277.014 107.24C276.26 107.24 275.656 106.982 275.203 106.467C274.75 105.947 274.523 105.248 274.523 104.369C274.523 103.811 274.645 103.299 274.887 102.834C275.133 102.365 275.475 102.002 275.912 101.744C276.35 101.482 276.842 101.352 277.389 101.352C277.951 101.352 278.451 101.492 278.889 101.773C279.326 102.055 279.666 102.459 279.908 102.986C280.15 103.514 280.273 104.117 280.277 104.797V105.424C280.277 106.846 279.924 107.963 279.217 108.775C278.51 109.588 277.508 110.021 276.211 110.076L275.795 110.082V108.67L276.17 108.664C277.643 108.598 278.439 107.906 278.561 106.59ZM277.43 105.945C277.703 105.945 277.938 105.875 278.133 105.734C278.332 105.594 278.482 105.424 278.584 105.225V104.527C278.584 103.953 278.475 103.508 278.256 103.191C278.037 102.875 277.744 102.717 277.377 102.717C277.037 102.717 276.758 102.873 276.539 103.186C276.32 103.494 276.211 103.883 276.211 104.352C276.211 104.816 276.316 105.199 276.527 105.5C276.742 105.797 277.043 105.945 277.43 105.945ZM285.604 110H283.91V103.473L281.889 104.1V102.723L285.422 101.457H285.604V110ZM294.182 102.418L290.883 110H289.096L292.4 102.84H288.158V101.469H294.182V102.418Z" fill="#A1A7B7"/>
<circle cx="201" cy="181" r="4" fill="#D87D83"/>
<circle cx="255" cy="153" r="4" fill="#D87D83"/>
<circle cx="309" cy="107" r="4" fill="#D87D83"/>
<circle cx="364" cy="93" r="4" fill="#D87D83"/>
<circle cx="419" cy="76" r="4" fill="#D87D83"/>
</svg>
