<svg width="488" height="360" viewBox="0 0 488 360" fill="none" xmlns="http://www.w3.org/2000/svg">
<rect width="488" height="360" fill="white"/>
<circle cx="309.5" cy="178.5" r="168.5" fill="#F8FBFF"/>
<path d="M9.5 50C9.5 39.7827 17.7827 31.5 28 31.5H409C419.217 31.5 427.5 39.7827 427.5 50V140C427.5 150.217 419.217 158.5 409 158.5H28C17.7827 158.5 9.5 150.217 9.5 140V50Z" fill="white" stroke="#181818" stroke-width="3"/>
<path d="M69.8828 100.969H71.6875C72.5469 100.969 73.1836 100.754 73.5977 100.324C74.0117 99.8945 74.2188 99.3242 74.2188 98.6133C74.2188 97.9258 74.0117 97.3906 73.5977 97.0078C73.1914 96.625 72.6289 96.4336 71.9102 96.4336C71.2617 96.4336 70.7188 96.6133 70.2812 96.9727C69.8438 97.3242 69.625 97.7852 69.625 98.3555H66.2383C66.2383 97.4648 66.4766 96.668 66.9531 95.9648C67.4375 95.2539 68.1094 94.6992 68.9688 94.3008C69.8359 93.9023 70.7891 93.7031 71.8281 93.7031C73.6328 93.7031 75.0469 94.1367 76.0703 95.0039C77.0938 95.8633 77.6055 97.0508 77.6055 98.5664C77.6055 99.3477 77.3672 100.066 76.8906 100.723C76.4141 101.379 75.7891 101.883 75.0156 102.234C75.9766 102.578 76.6914 103.094 77.1602 103.781C77.6367 104.469 77.875 105.281 77.875 106.219C77.875 107.734 77.3203 108.949 76.2109 109.863C75.1094 110.777 73.6484 111.234 71.8281 111.234C70.125 111.234 68.7305 110.785 67.6445 109.887C66.5664 108.988 66.0273 107.801 66.0273 106.324H69.4141C69.4141 106.965 69.6523 107.488 70.1289 107.895C70.6133 108.301 71.207 108.504 71.9102 108.504C72.7148 108.504 73.3438 108.293 73.7969 107.871C74.2578 107.441 74.4883 106.875 74.4883 106.172C74.4883 104.469 73.5508 103.617 71.6758 103.617H69.8828V100.969ZM91.7031 103.945C91.7031 106.305 91.2148 108.109 90.2383 109.359C89.2617 110.609 87.832 111.234 85.9492 111.234C84.0898 111.234 82.668 110.621 81.6836 109.395C80.6992 108.168 80.1953 106.41 80.1719 104.121V100.98C80.1719 98.5977 80.6641 96.7891 81.6484 95.5547C82.6406 94.3203 84.0664 93.7031 85.9258 93.7031C87.7852 93.7031 89.207 94.3164 90.1914 95.543C91.1758 96.7617 91.6797 98.5156 91.7031 100.805V103.945ZM88.3164 100.5C88.3164 99.0859 88.1211 98.0586 87.7305 97.418C87.3477 96.7695 86.7461 96.4453 85.9258 96.4453C85.1289 96.4453 84.5391 96.7539 84.1562 97.3711C83.7812 97.9805 83.582 98.9375 83.5586 100.242V104.391C83.5586 105.781 83.7461 106.816 84.1211 107.496C84.5039 108.168 85.1133 108.504 85.9492 108.504C86.7773 108.504 87.375 108.18 87.7422 107.531C88.1094 106.883 88.3008 105.891 88.3164 104.555V100.5ZM105.484 103.945C105.484 106.305 104.996 108.109 104.02 109.359C103.043 110.609 101.613 111.234 99.7305 111.234C97.8711 111.234 96.4492 110.621 95.4648 109.395C94.4805 108.168 93.9766 106.41 93.9531 104.121V100.98C93.9531 98.5977 94.4453 96.7891 95.4297 95.5547C96.4219 94.3203 97.8477 93.7031 99.707 93.7031C101.566 93.7031 102.988 94.3164 103.973 95.543C104.957 96.7617 105.461 98.5156 105.484 100.805V103.945ZM102.098 100.5C102.098 99.0859 101.902 98.0586 101.512 97.418C101.129 96.7695 100.527 96.4453 99.707 96.4453C98.9102 96.4453 98.3203 96.7539 97.9375 97.3711C97.5625 97.9805 97.3633 98.9375 97.3398 100.242V104.391C97.3398 105.781 97.5273 106.816 97.9023 107.496C98.2852 108.168 98.8945 108.504 99.7305 108.504C100.559 108.504 101.156 108.18 101.523 107.531C101.891 106.883 102.082 105.891 102.098 104.555V100.5ZM114.754 101.449H118.984V104.508H114.754V109.289H111.531V104.508H107.289V101.449H111.531V96.8672H114.754V101.449Z" fill="#181818"/>
<path d="M37.627 129.783C37.627 128.807 37.8535 128.023 38.3066 127.434C38.7598 126.84 39.3672 126.543 40.1289 126.543C40.8008 126.543 41.3438 126.777 41.7578 127.246V124H43.1816V133H41.8926L41.8223 132.344C41.3965 132.859 40.8281 133.117 40.1172 133.117C39.375 133.117 38.7734 132.818 38.3125 132.221C37.8555 131.623 37.627 130.811 37.627 129.783ZM39.0508 129.906C39.0508 130.551 39.1738 131.055 39.4199 131.418C39.6699 131.777 40.0234 131.957 40.4805 131.957C41.0625 131.957 41.4883 131.697 41.7578 131.178V128.471C41.4961 127.963 41.0742 127.709 40.4922 127.709C40.0312 127.709 39.6758 127.893 39.4258 128.26C39.1758 128.623 39.0508 129.172 39.0508 129.906ZM47.459 133.117C46.5566 133.117 45.8242 132.834 45.2617 132.268C44.7031 131.697 44.4238 130.939 44.4238 129.994V129.818C44.4238 129.186 44.5449 128.621 44.7871 128.125C45.0332 127.625 45.377 127.236 45.8184 126.959C46.2598 126.682 46.752 126.543 47.2949 126.543C48.1582 126.543 48.8242 126.818 49.293 127.369C49.7656 127.92 50.002 128.699 50.002 129.707V130.281H45.8594C45.9023 130.805 46.0762 131.219 46.3809 131.523C46.6895 131.828 47.0762 131.98 47.541 131.98C48.1934 131.98 48.7246 131.717 49.1348 131.189L49.9023 131.922C49.6484 132.301 49.3086 132.596 48.8828 132.807C48.4609 133.014 47.9863 133.117 47.459 133.117ZM47.2891 127.686C46.8984 127.686 46.582 127.822 46.3398 128.096C46.1016 128.369 45.9492 128.75 45.8828 129.238H48.5957V129.133C48.5645 128.656 48.4375 128.297 48.2148 128.055C47.9922 127.809 47.6836 127.686 47.2891 127.686ZM53.2656 131.195L54.6074 126.66H56.0781L53.8809 133H52.6445L50.4297 126.66H51.9062L53.2656 131.195ZM61.3633 127.352C61.8281 126.812 62.416 126.543 63.127 126.543C64.4785 126.543 65.1641 127.314 65.1836 128.857V133H63.7598V128.91C63.7598 128.473 63.6641 128.164 63.4727 127.984C63.2852 127.801 63.0078 127.709 62.6406 127.709C62.0703 127.709 61.6445 127.963 61.3633 128.471V133H59.9395V124H61.3633V127.352ZM66.3613 129.771C66.3613 129.15 66.4844 128.592 66.7305 128.096C66.9766 127.596 67.3223 127.213 67.7676 126.947C68.2129 126.678 68.7246 126.543 69.3027 126.543C70.1582 126.543 70.8516 126.818 71.3828 127.369C71.918 127.92 72.207 128.65 72.25 129.561L72.2559 129.895C72.2559 130.52 72.1348 131.078 71.8926 131.57C71.6543 132.062 71.3105 132.443 70.8613 132.713C70.416 132.982 69.9004 133.117 69.3145 133.117C68.4199 133.117 67.7031 132.82 67.1641 132.227C66.6289 131.629 66.3613 130.834 66.3613 129.842V129.771ZM67.7852 129.895C67.7852 130.547 67.9199 131.059 68.1895 131.43C68.459 131.797 68.834 131.98 69.3145 131.98C69.7949 131.98 70.168 131.793 70.4336 131.418C70.7031 131.043 70.8379 130.494 70.8379 129.771C70.8379 129.131 70.6992 128.623 70.4219 128.248C70.1484 127.873 69.7754 127.686 69.3027 127.686C68.8379 127.686 68.4688 127.871 68.1953 128.242C67.9219 128.609 67.7852 129.16 67.7852 129.895ZM77.3008 132.379C76.8828 132.871 76.2891 133.117 75.5195 133.117C74.832 133.117 74.3105 132.916 73.9551 132.514C73.6035 132.111 73.4277 131.529 73.4277 130.768V126.66H74.8516V130.75C74.8516 131.555 75.1855 131.957 75.8535 131.957C76.5449 131.957 77.0117 131.709 77.2539 131.213V126.66H78.6777V133H77.3359L77.3008 132.379ZM83.4473 127.961C83.2598 127.93 83.0664 127.914 82.8672 127.914C82.2148 127.914 81.7754 128.164 81.5488 128.664V133H80.125V126.66H81.4844L81.5195 127.369C81.8633 126.818 82.3398 126.543 82.9492 126.543C83.1523 126.543 83.3203 126.57 83.4531 126.625L83.4473 127.961ZM87.9004 131.277C87.9004 131.023 87.7949 130.83 87.584 130.697C87.377 130.564 87.0312 130.447 86.5469 130.346C86.0625 130.244 85.6582 130.115 85.334 129.959C84.623 129.615 84.2676 129.117 84.2676 128.465C84.2676 127.918 84.498 127.461 84.959 127.094C85.4199 126.727 86.0059 126.543 86.7168 126.543C87.4746 126.543 88.0859 126.73 88.5508 127.105C89.0195 127.48 89.2539 127.967 89.2539 128.564H87.8301C87.8301 128.291 87.7285 128.064 87.5254 127.885C87.3223 127.701 87.0527 127.609 86.7168 127.609C86.4043 127.609 86.1484 127.682 85.9492 127.826C85.7539 127.971 85.6562 128.164 85.6562 128.406C85.6562 128.625 85.748 128.795 85.9316 128.916C86.1152 129.037 86.4863 129.16 87.0449 129.285C87.6035 129.406 88.041 129.553 88.3574 129.725C88.6777 129.893 88.9141 130.096 89.0664 130.334C89.2227 130.572 89.3008 130.861 89.3008 131.201C89.3008 131.771 89.0645 132.234 88.5918 132.59C88.1191 132.941 87.5 133.117 86.7344 133.117C86.2148 133.117 85.752 133.023 85.3457 132.836C84.9395 132.648 84.623 132.391 84.3965 132.062C84.1699 131.734 84.0566 131.381 84.0566 131.002H85.4395C85.459 131.338 85.5859 131.598 85.8203 131.781C86.0547 131.961 86.3652 132.051 86.752 132.051C87.127 132.051 87.4121 131.98 87.6074 131.84C87.8027 131.695 87.9004 131.508 87.9004 131.277ZM99.0859 129.895C99.0859 130.875 98.8633 131.658 98.418 132.244C97.9727 132.826 97.375 133.117 96.625 133.117C95.9297 133.117 95.373 132.889 94.9551 132.432V135.438H93.5312V126.66H94.8438L94.9023 127.305C95.3203 126.797 95.8887 126.543 96.6074 126.543C97.3809 126.543 97.9863 126.832 98.4238 127.41C98.8652 127.984 99.0859 128.783 99.0859 129.807V129.895ZM97.668 129.771C97.668 129.139 97.541 128.637 97.2871 128.266C97.0371 127.895 96.6777 127.709 96.209 127.709C95.627 127.709 95.209 127.949 94.9551 128.43V131.242C95.2129 131.734 95.6348 131.98 96.2207 131.98C96.6738 131.98 97.0273 131.799 97.2812 131.436C97.5391 131.068 97.668 130.514 97.668 129.771ZM103.088 133.117C102.186 133.117 101.453 132.834 100.891 132.268C100.332 131.697 100.053 130.939 100.053 129.994V129.818C100.053 129.186 100.174 128.621 100.416 128.125C100.662 127.625 101.006 127.236 101.447 126.959C101.889 126.682 102.381 126.543 102.924 126.543C103.787 126.543 104.453 126.818 104.922 127.369C105.395 127.92 105.631 128.699 105.631 129.707V130.281H101.488C101.531 130.805 101.705 131.219 102.01 131.523C102.318 131.828 102.705 131.98 103.17 131.98C103.822 131.98 104.354 131.717 104.764 131.189L105.531 131.922C105.277 132.301 104.938 132.596 104.512 132.807C104.09 133.014 103.615 133.117 103.088 133.117ZM102.918 127.686C102.527 127.686 102.211 127.822 101.969 128.096C101.73 128.369 101.578 128.75 101.512 129.238H104.225V129.133C104.193 128.656 104.066 128.297 103.844 128.055C103.621 127.809 103.312 127.686 102.918 127.686ZM110.061 127.961C109.873 127.93 109.68 127.914 109.48 127.914C108.828 127.914 108.389 128.164 108.162 128.664V133H106.738V126.66H108.098L108.133 127.369C108.477 126.818 108.953 126.543 109.562 126.543C109.766 126.543 109.934 126.57 110.066 126.625L110.061 127.961ZM115.287 126.66L115.328 127.322C115.773 126.803 116.383 126.543 117.156 126.543C118.004 126.543 118.584 126.867 118.896 127.516C119.357 126.867 120.006 126.543 120.842 126.543C121.541 126.543 122.061 126.736 122.4 127.123C122.744 127.51 122.92 128.08 122.928 128.834V133H121.504V128.875C121.504 128.473 121.416 128.178 121.24 127.99C121.064 127.803 120.773 127.709 120.367 127.709C120.043 127.709 119.777 127.797 119.57 127.973C119.367 128.145 119.225 128.371 119.143 128.652L119.148 133H117.725V128.828C117.705 128.082 117.324 127.709 116.582 127.709C116.012 127.709 115.607 127.941 115.369 128.406V133H113.945V126.66H115.287ZM124.123 129.771C124.123 129.15 124.246 128.592 124.492 128.096C124.738 127.596 125.084 127.213 125.529 126.947C125.975 126.678 126.486 126.543 127.064 126.543C127.92 126.543 128.613 126.818 129.145 127.369C129.68 127.92 129.969 128.65 130.012 129.561L130.018 129.895C130.018 130.52 129.896 131.078 129.654 131.57C129.416 132.062 129.072 132.443 128.623 132.713C128.178 132.982 127.662 133.117 127.076 133.117C126.182 133.117 125.465 132.82 124.926 132.227C124.391 131.629 124.123 130.834 124.123 129.842V129.771ZM125.547 129.895C125.547 130.547 125.682 131.059 125.951 131.43C126.221 131.797 126.596 131.98 127.076 131.98C127.557 131.98 127.93 131.793 128.195 131.418C128.465 131.043 128.6 130.494 128.6 129.771C128.6 129.131 128.461 128.623 128.184 128.248C127.91 127.873 127.537 127.686 127.064 127.686C126.6 127.686 126.23 127.871 125.957 128.242C125.684 128.609 125.547 129.16 125.547 129.895ZM132.543 126.66L132.584 127.393C133.053 126.826 133.668 126.543 134.43 126.543C135.75 126.543 136.422 127.299 136.445 128.811V133H135.021V128.893C135.021 128.49 134.934 128.193 134.758 128.002C134.586 127.807 134.303 127.709 133.908 127.709C133.334 127.709 132.906 127.969 132.625 128.488V133H131.201V126.66H132.543ZM139.686 125.119V126.66H140.805V127.715H139.686V131.254C139.686 131.496 139.732 131.672 139.826 131.781C139.924 131.887 140.096 131.939 140.342 131.939C140.506 131.939 140.672 131.92 140.84 131.881V132.982C140.516 133.072 140.203 133.117 139.902 133.117C138.809 133.117 138.262 132.514 138.262 131.307V127.715H137.219V126.66H138.262V125.119H139.686ZM143.301 127.352C143.766 126.812 144.354 126.543 145.064 126.543C146.416 126.543 147.102 127.314 147.121 128.857V133H145.697V128.91C145.697 128.473 145.602 128.164 145.41 127.984C145.223 127.801 144.945 127.709 144.578 127.709C144.008 127.709 143.582 127.963 143.301 128.471V133H141.877V124H143.301V127.352Z" fill="#181818"/>
<path d="M179.172 100.969H180.977C181.836 100.969 182.473 100.754 182.887 100.324C183.301 99.8945 183.508 99.3242 183.508 98.6133C183.508 97.9258 183.301 97.3906 182.887 97.0078C182.48 96.625 181.918 96.4336 181.199 96.4336C180.551 96.4336 180.008 96.6133 179.57 96.9727C179.133 97.3242 178.914 97.7852 178.914 98.3555H175.527C175.527 97.4648 175.766 96.668 176.242 95.9648C176.727 95.2539 177.398 94.6992 178.258 94.3008C179.125 93.9023 180.078 93.7031 181.117 93.7031C182.922 93.7031 184.336 94.1367 185.359 95.0039C186.383 95.8633 186.895 97.0508 186.895 98.5664C186.895 99.3477 186.656 100.066 186.18 100.723C185.703 101.379 185.078 101.883 184.305 102.234C185.266 102.578 185.98 103.094 186.449 103.781C186.926 104.469 187.164 105.281 187.164 106.219C187.164 107.734 186.609 108.949 185.5 109.863C184.398 110.777 182.938 111.234 181.117 111.234C179.414 111.234 178.02 110.785 176.934 109.887C175.855 108.988 175.316 107.801 175.316 106.324H178.703C178.703 106.965 178.941 107.488 179.418 107.895C179.902 108.301 180.496 108.504 181.199 108.504C182.004 108.504 182.633 108.293 183.086 107.871C183.547 107.441 183.777 106.875 183.777 106.172C183.777 104.469 182.84 103.617 180.965 103.617H179.172V100.969ZM200.992 103.945C200.992 106.305 200.504 108.109 199.527 109.359C198.551 110.609 197.121 111.234 195.238 111.234C193.379 111.234 191.957 110.621 190.973 109.395C189.988 108.168 189.484 106.41 189.461 104.121V100.98C189.461 98.5977 189.953 96.7891 190.938 95.5547C191.93 94.3203 193.355 93.7031 195.215 93.7031C197.074 93.7031 198.496 94.3164 199.48 95.543C200.465 96.7617 200.969 98.5156 200.992 100.805V103.945ZM197.605 100.5C197.605 99.0859 197.41 98.0586 197.02 97.418C196.637 96.7695 196.035 96.4453 195.215 96.4453C194.418 96.4453 193.828 96.7539 193.445 97.3711C193.07 97.9805 192.871 98.9375 192.848 100.242V104.391C192.848 105.781 193.035 106.816 193.41 107.496C193.793 108.168 194.402 108.504 195.238 108.504C196.066 108.504 196.664 108.18 197.031 107.531C197.398 106.883 197.59 105.891 197.605 104.555V100.5ZM204.309 115.277L202.539 114.352L202.961 113.59C203.484 112.637 203.754 111.688 203.77 110.742V108.117H206.629L206.617 110.461C206.609 111.328 206.391 112.203 205.961 113.086C205.531 113.969 204.98 114.699 204.309 115.277ZM220.633 103.945C220.633 106.305 220.145 108.109 219.168 109.359C218.191 110.609 216.762 111.234 214.879 111.234C213.02 111.234 211.598 110.621 210.613 109.395C209.629 108.168 209.125 106.41 209.102 104.121V100.98C209.102 98.5977 209.594 96.7891 210.578 95.5547C211.57 94.3203 212.996 93.7031 214.855 93.7031C216.715 93.7031 218.137 94.3164 219.121 95.543C220.105 96.7617 220.609 98.5156 220.633 100.805V103.945ZM217.246 100.5C217.246 99.0859 217.051 98.0586 216.66 97.418C216.277 96.7695 215.676 96.4453 214.855 96.4453C214.059 96.4453 213.469 96.7539 213.086 97.3711C212.711 97.9805 212.512 98.9375 212.488 100.242V104.391C212.488 105.781 212.676 106.816 213.051 107.496C213.434 108.168 214.043 108.504 214.879 108.504C215.707 108.504 216.305 108.18 216.672 107.531C217.039 106.883 217.23 105.891 217.246 104.555V100.5ZM234.414 103.945C234.414 106.305 233.926 108.109 232.949 109.359C231.973 110.609 230.543 111.234 228.66 111.234C226.801 111.234 225.379 110.621 224.395 109.395C223.41 108.168 222.906 106.41 222.883 104.121V100.98C222.883 98.5977 223.375 96.7891 224.359 95.5547C225.352 94.3203 226.777 93.7031 228.637 93.7031C230.496 93.7031 231.918 94.3164 232.902 95.543C233.887 96.7617 234.391 98.5156 234.414 100.805V103.945ZM231.027 100.5C231.027 99.0859 230.832 98.0586 230.441 97.418C230.059 96.7695 229.457 96.4453 228.637 96.4453C227.84 96.4453 227.25 96.7539 226.867 97.3711C226.492 97.9805 226.293 98.9375 226.27 100.242V104.391C226.27 105.781 226.457 106.816 226.832 107.496C227.215 108.168 227.824 108.504 228.66 108.504C229.488 108.504 230.086 108.18 230.453 107.531C230.82 106.883 231.012 105.891 231.027 104.555V100.5ZM248.195 103.945C248.195 106.305 247.707 108.109 246.73 109.359C245.754 110.609 244.324 111.234 242.441 111.234C240.582 111.234 239.16 110.621 238.176 109.395C237.191 108.168 236.688 106.41 236.664 104.121V100.98C236.664 98.5977 237.156 96.7891 238.141 95.5547C239.133 94.3203 240.559 93.7031 242.418 93.7031C244.277 93.7031 245.699 94.3164 246.684 95.543C247.668 96.7617 248.172 98.5156 248.195 100.805V103.945ZM244.809 100.5C244.809 99.0859 244.613 98.0586 244.223 97.418C243.84 96.7695 243.238 96.4453 242.418 96.4453C241.621 96.4453 241.031 96.7539 240.648 97.3711C240.273 97.9805 240.074 98.9375 240.051 100.242V104.391C240.051 105.781 240.238 106.816 240.613 107.496C240.996 108.168 241.605 108.504 242.441 108.504C243.27 108.504 243.867 108.18 244.234 107.531C244.602 106.883 244.793 105.891 244.809 104.555V100.5ZM257.465 101.449H261.695V104.508H257.465V109.289H254.242V104.508H250V101.449H254.242V96.8672H257.465V101.449Z" fill="#181818"/>
<path d="M186.314 133H184.891V124H186.314V133ZM189.385 133H187.961V126.66H189.385V133ZM187.873 125.014C187.873 124.795 187.941 124.613 188.078 124.469C188.219 124.324 188.418 124.252 188.676 124.252C188.934 124.252 189.133 124.324 189.273 124.469C189.414 124.613 189.484 124.795 189.484 125.014C189.484 125.229 189.414 125.408 189.273 125.553C189.133 125.693 188.934 125.764 188.676 125.764C188.418 125.764 188.219 125.693 188.078 125.553C187.941 125.408 187.873 125.229 187.873 125.014ZM192.262 126.66L192.303 127.393C192.771 126.826 193.387 126.543 194.148 126.543C195.469 126.543 196.141 127.299 196.164 128.811V133H194.74V128.893C194.74 128.49 194.652 128.193 194.477 128.002C194.305 127.807 194.021 127.709 193.627 127.709C193.053 127.709 192.625 127.969 192.344 128.488V133H190.92V126.66H192.262ZM200.412 133.117C199.51 133.117 198.777 132.834 198.215 132.268C197.656 131.697 197.377 130.939 197.377 129.994V129.818C197.377 129.186 197.498 128.621 197.74 128.125C197.986 127.625 198.33 127.236 198.771 126.959C199.213 126.682 199.705 126.543 200.248 126.543C201.111 126.543 201.777 126.818 202.246 127.369C202.719 127.92 202.955 128.699 202.955 129.707V130.281H198.812C198.855 130.805 199.029 131.219 199.334 131.523C199.643 131.828 200.029 131.98 200.494 131.98C201.146 131.98 201.678 131.717 202.088 131.189L202.855 131.922C202.602 132.301 202.262 132.596 201.836 132.807C201.414 133.014 200.939 133.117 200.412 133.117ZM200.242 127.686C199.852 127.686 199.535 127.822 199.293 128.096C199.055 128.369 198.902 128.75 198.836 129.238H201.549V129.133C201.518 128.656 201.391 128.297 201.168 128.055C200.945 127.809 200.637 127.686 200.242 127.686ZM207.619 131.277C207.619 131.023 207.514 130.83 207.303 130.697C207.096 130.564 206.75 130.447 206.266 130.346C205.781 130.244 205.377 130.115 205.053 129.959C204.342 129.615 203.986 129.117 203.986 128.465C203.986 127.918 204.217 127.461 204.678 127.094C205.139 126.727 205.725 126.543 206.436 126.543C207.193 126.543 207.805 126.73 208.27 127.105C208.738 127.48 208.973 127.967 208.973 128.564H207.549C207.549 128.291 207.447 128.064 207.244 127.885C207.041 127.701 206.771 127.609 206.436 127.609C206.123 127.609 205.867 127.682 205.668 127.826C205.473 127.971 205.375 128.164 205.375 128.406C205.375 128.625 205.467 128.795 205.65 128.916C205.834 129.037 206.205 129.16 206.764 129.285C207.322 129.406 207.76 129.553 208.076 129.725C208.396 129.893 208.633 130.096 208.785 130.334C208.941 130.572 209.02 130.861 209.02 131.201C209.02 131.771 208.783 132.234 208.311 132.59C207.838 132.941 207.219 133.117 206.453 133.117C205.934 133.117 205.471 133.023 205.064 132.836C204.658 132.648 204.342 132.391 204.115 132.062C203.889 131.734 203.775 131.381 203.775 131.002H205.158C205.178 131.338 205.305 131.598 205.539 131.781C205.773 131.961 206.084 132.051 206.471 132.051C206.846 132.051 207.131 131.98 207.326 131.84C207.521 131.695 207.619 131.508 207.619 131.277ZM212.986 129.771C212.986 129.15 213.109 128.592 213.355 128.096C213.602 127.596 213.947 127.213 214.393 126.947C214.838 126.678 215.35 126.543 215.928 126.543C216.783 126.543 217.477 126.818 218.008 127.369C218.543 127.92 218.832 128.65 218.875 129.561L218.881 129.895C218.881 130.52 218.76 131.078 218.518 131.57C218.279 132.062 217.936 132.443 217.486 132.713C217.041 132.982 216.525 133.117 215.939 133.117C215.045 133.117 214.328 132.82 213.789 132.227C213.254 131.629 212.986 130.834 212.986 129.842V129.771ZM214.41 129.895C214.41 130.547 214.545 131.059 214.814 131.43C215.084 131.797 215.459 131.98 215.939 131.98C216.42 131.98 216.793 131.793 217.059 131.418C217.328 131.043 217.463 130.494 217.463 129.771C217.463 129.131 217.324 128.623 217.047 128.248C216.773 127.873 216.4 127.686 215.928 127.686C215.463 127.686 215.094 127.871 214.82 128.242C214.547 128.609 214.41 129.16 214.41 129.895ZM220.586 133V127.715H219.619V126.66H220.586V126.08C220.586 125.377 220.781 124.834 221.172 124.451C221.562 124.068 222.109 123.877 222.812 123.877C223.062 123.877 223.328 123.912 223.609 123.982L223.574 125.096C223.418 125.064 223.236 125.049 223.029 125.049C222.35 125.049 222.01 125.398 222.01 126.098V126.66H223.299V127.715H222.01V133H220.586ZM229.932 131.98C230.287 131.98 230.582 131.877 230.816 131.67C231.051 131.463 231.176 131.207 231.191 130.902H232.533C232.518 131.297 232.395 131.666 232.164 132.01C231.934 132.35 231.621 132.619 231.227 132.818C230.832 133.018 230.406 133.117 229.949 133.117C229.062 133.117 228.359 132.83 227.84 132.256C227.32 131.682 227.061 130.889 227.061 129.877V129.73C227.061 128.766 227.318 127.994 227.834 127.416C228.35 126.834 229.053 126.543 229.943 126.543C230.697 126.543 231.311 126.764 231.783 127.205C232.26 127.643 232.51 128.219 232.533 128.934H231.191C231.176 128.57 231.051 128.271 230.816 128.037C230.586 127.803 230.291 127.686 229.932 127.686C229.471 127.686 229.115 127.854 228.865 128.189C228.615 128.521 228.488 129.027 228.484 129.707V129.936C228.484 130.623 228.607 131.137 228.854 131.477C229.104 131.812 229.463 131.98 229.932 131.98ZM233.342 129.771C233.342 129.15 233.465 128.592 233.711 128.096C233.957 127.596 234.303 127.213 234.748 126.947C235.193 126.678 235.705 126.543 236.283 126.543C237.139 126.543 237.832 126.818 238.363 127.369C238.898 127.92 239.188 128.65 239.23 129.561L239.236 129.895C239.236 130.52 239.115 131.078 238.873 131.57C238.635 132.062 238.291 132.443 237.842 132.713C237.396 132.982 236.881 133.117 236.295 133.117C235.4 133.117 234.684 132.82 234.145 132.227C233.609 131.629 233.342 130.834 233.342 129.842V129.771ZM234.766 129.895C234.766 130.547 234.9 131.059 235.17 131.43C235.439 131.797 235.814 131.98 236.295 131.98C236.775 131.98 237.148 131.793 237.414 131.418C237.684 131.043 237.818 130.494 237.818 129.771C237.818 129.131 237.68 128.623 237.402 128.248C237.129 127.873 236.756 127.686 236.283 127.686C235.818 127.686 235.449 127.871 235.176 128.242C234.902 128.609 234.766 129.16 234.766 129.895ZM240.174 129.783C240.174 128.807 240.4 128.023 240.854 127.434C241.307 126.84 241.914 126.543 242.676 126.543C243.348 126.543 243.891 126.777 244.305 127.246V124H245.729V133H244.439L244.369 132.344C243.943 132.859 243.375 133.117 242.664 133.117C241.922 133.117 241.32 132.818 240.859 132.221C240.402 131.623 240.174 130.811 240.174 129.783ZM241.598 129.906C241.598 130.551 241.721 131.055 241.967 131.418C242.217 131.777 242.57 131.957 243.027 131.957C243.609 131.957 244.035 131.697 244.305 131.178V128.471C244.043 127.963 243.621 127.709 243.039 127.709C242.578 127.709 242.223 127.893 241.973 128.26C241.723 128.623 241.598 129.172 241.598 129.906ZM250.006 133.117C249.104 133.117 248.371 132.834 247.809 132.268C247.25 131.697 246.971 130.939 246.971 129.994V129.818C246.971 129.186 247.092 128.621 247.334 128.125C247.58 127.625 247.924 127.236 248.365 126.959C248.807 126.682 249.299 126.543 249.842 126.543C250.705 126.543 251.371 126.818 251.84 127.369C252.312 127.92 252.549 128.699 252.549 129.707V130.281H248.406C248.449 130.805 248.623 131.219 248.928 131.523C249.236 131.828 249.623 131.98 250.088 131.98C250.74 131.98 251.271 131.717 251.682 131.189L252.449 131.922C252.195 132.301 251.855 132.596 251.43 132.807C251.008 133.014 250.533 133.117 250.006 133.117ZM249.836 127.686C249.445 127.686 249.129 127.822 248.887 128.096C248.648 128.369 248.496 128.75 248.43 129.238H251.143V129.133C251.111 128.656 250.984 128.297 250.762 128.055C250.539 127.809 250.23 127.686 249.836 127.686Z" fill="#181818"/>
<path d="M312.027 106.512C312.027 105.871 311.848 105.363 311.488 104.988C311.137 104.605 310.535 104.254 309.684 103.934C308.832 103.613 308.098 103.297 307.48 102.984C306.863 102.664 306.332 102.301 305.887 101.895C305.449 101.48 305.105 100.996 304.855 100.441C304.613 99.8867 304.492 99.2266 304.492 98.4609C304.492 97.1406 304.914 96.0586 305.758 95.2148C306.602 94.3711 307.723 93.8789 309.121 93.7383V91.2305H310.996V93.7734C312.379 93.9688 313.461 94.5469 314.242 95.5078C315.023 96.4609 315.414 97.6992 315.414 99.2227H312.027C312.027 98.2852 311.832 97.5859 311.441 97.125C311.059 96.6562 310.543 96.4219 309.895 96.4219C309.254 96.4219 308.758 96.6055 308.406 96.9727C308.055 97.332 307.879 97.832 307.879 98.4727C307.879 99.0664 308.051 99.543 308.395 99.9023C308.738 100.262 309.375 100.629 310.305 101.004C311.242 101.379 312.012 101.734 312.613 102.07C313.215 102.398 313.723 102.773 314.137 103.195C314.551 103.609 314.867 104.086 315.086 104.625C315.305 105.156 315.414 105.777 315.414 106.488C315.414 107.816 315 108.895 314.172 109.723C313.344 110.551 312.203 111.039 310.75 111.188V113.52H308.887V111.199C307.285 111.027 306.043 110.461 305.16 109.5C304.285 108.531 303.848 107.246 303.848 105.645H307.234C307.234 106.574 307.453 107.289 307.891 107.789C308.336 108.281 308.973 108.527 309.801 108.527C310.488 108.527 311.031 108.348 311.43 107.988C311.828 107.621 312.027 107.129 312.027 106.512ZM329.406 111H317.711V108.68L323.23 102.797C323.988 101.969 324.547 101.246 324.906 100.629C325.273 100.012 325.457 99.4258 325.457 98.8711C325.457 98.1133 325.266 97.5195 324.883 97.0898C324.5 96.6523 323.953 96.4336 323.242 96.4336C322.477 96.4336 321.871 96.6992 321.426 97.2305C320.988 97.7539 320.77 98.4453 320.77 99.3047H317.371C317.371 98.2656 317.617 97.3164 318.109 96.457C318.609 95.5977 319.312 94.9258 320.219 94.4414C321.125 93.9492 322.152 93.7031 323.301 93.7031C325.059 93.7031 326.422 94.125 327.391 94.9688C328.367 95.8125 328.855 97.0039 328.855 98.543C328.855 99.3867 328.637 100.246 328.199 101.121C327.762 101.996 327.012 103.016 325.949 104.18L322.07 108.27H329.406V111ZM342.977 103.945C342.977 106.305 342.488 108.109 341.512 109.359C340.535 110.609 339.105 111.234 337.223 111.234C335.363 111.234 333.941 110.621 332.957 109.395C331.973 108.168 331.469 106.41 331.445 104.121V100.98C331.445 98.5977 331.938 96.7891 332.922 95.5547C333.914 94.3203 335.34 93.7031 337.199 93.7031C339.059 93.7031 340.48 94.3164 341.465 95.543C342.449 96.7617 342.953 98.5156 342.977 100.805V103.945ZM339.59 100.5C339.59 99.0859 339.395 98.0586 339.004 97.418C338.621 96.7695 338.02 96.4453 337.199 96.4453C336.402 96.4453 335.812 96.7539 335.43 97.3711C335.055 97.9805 334.855 98.9375 334.832 100.242V104.391C334.832 105.781 335.02 106.816 335.395 107.496C335.777 108.168 336.387 108.504 337.223 108.504C338.051 108.504 338.648 108.18 339.016 107.531C339.383 106.883 339.574 105.891 339.59 104.555V100.5ZM356.758 103.945C356.758 106.305 356.27 108.109 355.293 109.359C354.316 110.609 352.887 111.234 351.004 111.234C349.145 111.234 347.723 110.621 346.738 109.395C345.754 108.168 345.25 106.41 345.227 104.121V100.98C345.227 98.5977 345.719 96.7891 346.703 95.5547C347.695 94.3203 349.121 93.7031 350.98 93.7031C352.84 93.7031 354.262 94.3164 355.246 95.543C356.23 96.7617 356.734 98.5156 356.758 100.805V103.945ZM353.371 100.5C353.371 99.0859 353.176 98.0586 352.785 97.418C352.402 96.7695 351.801 96.4453 350.98 96.4453C350.184 96.4453 349.594 96.7539 349.211 97.3711C348.836 97.9805 348.637 98.9375 348.613 100.242V104.391C348.613 105.781 348.801 106.816 349.176 107.496C349.559 108.168 350.168 108.504 351.004 108.504C351.832 108.504 352.43 108.18 352.797 107.531C353.164 106.883 353.355 105.891 353.371 104.555V100.5ZM364.762 104.156L362.934 106.125V111H359.418V93.9375H362.934V101.672L364.48 99.5508L368.828 93.9375H373.152L367.094 101.52L373.328 111H369.145L364.762 104.156ZM381.262 101.449H385.492V104.508H381.262V109.289H378.039V104.508H373.797V101.449H378.039V96.8672H381.262V101.449Z" fill="#181818"/>
<path d="M329.113 129.895C329.113 130.875 328.891 131.658 328.445 132.244C328 132.826 327.402 133.117 326.652 133.117C325.957 133.117 325.4 132.889 324.982 132.432V135.438H323.559V126.66H324.871L324.93 127.305C325.348 126.797 325.916 126.543 326.635 126.543C327.408 126.543 328.014 126.832 328.451 127.41C328.893 127.984 329.113 128.783 329.113 129.807V129.895ZM327.695 129.771C327.695 129.139 327.568 128.637 327.314 128.266C327.064 127.895 326.705 127.709 326.236 127.709C325.654 127.709 325.236 127.949 324.982 128.43V131.242C325.24 131.734 325.662 131.98 326.248 131.98C326.701 131.98 327.055 131.799 327.309 131.436C327.566 131.068 327.695 130.514 327.695 129.771ZM333.115 133.117C332.213 133.117 331.48 132.834 330.918 132.268C330.359 131.697 330.08 130.939 330.08 129.994V129.818C330.08 129.186 330.201 128.621 330.443 128.125C330.689 127.625 331.033 127.236 331.475 126.959C331.916 126.682 332.408 126.543 332.951 126.543C333.814 126.543 334.48 126.818 334.949 127.369C335.422 127.92 335.658 128.699 335.658 129.707V130.281H331.516C331.559 130.805 331.732 131.219 332.037 131.523C332.346 131.828 332.732 131.98 333.197 131.98C333.85 131.98 334.381 131.717 334.791 131.189L335.559 131.922C335.305 132.301 334.965 132.596 334.539 132.807C334.117 133.014 333.643 133.117 333.115 133.117ZM332.945 127.686C332.555 127.686 332.238 127.822 331.996 128.096C331.758 128.369 331.605 128.75 331.539 129.238H334.252V129.133C334.221 128.656 334.094 128.297 333.871 128.055C333.648 127.809 333.34 127.686 332.945 127.686ZM340.088 127.961C339.9 127.93 339.707 127.914 339.508 127.914C338.855 127.914 338.416 128.164 338.189 128.664V133H336.766V126.66H338.125L338.16 127.369C338.504 126.818 338.98 126.543 339.59 126.543C339.793 126.543 339.961 126.57 340.094 126.625L340.088 127.961ZM346.193 130.961L347.482 126.66H349L346.48 133.961C346.094 135.027 345.438 135.561 344.512 135.561C344.305 135.561 344.076 135.525 343.826 135.455V134.354L344.096 134.371C344.455 134.371 344.725 134.305 344.904 134.172C345.088 134.043 345.232 133.824 345.338 133.516L345.543 132.971L343.316 126.66H344.852L346.193 130.961ZM352.533 133.117C351.631 133.117 350.898 132.834 350.336 132.268C349.777 131.697 349.498 130.939 349.498 129.994V129.818C349.498 129.186 349.619 128.621 349.861 128.125C350.107 127.625 350.451 127.236 350.893 126.959C351.334 126.682 351.826 126.543 352.369 126.543C353.232 126.543 353.898 126.818 354.367 127.369C354.84 127.92 355.076 128.699 355.076 129.707V130.281H350.934C350.977 130.805 351.15 131.219 351.455 131.523C351.764 131.828 352.15 131.98 352.615 131.98C353.268 131.98 353.799 131.717 354.209 131.189L354.977 131.922C354.723 132.301 354.383 132.596 353.957 132.807C353.535 133.014 353.061 133.117 352.533 133.117ZM352.363 127.686C351.973 127.686 351.656 127.822 351.414 128.096C351.176 128.369 351.023 128.75 350.957 129.238H353.67V129.133C353.639 128.656 353.512 128.297 353.289 128.055C353.066 127.809 352.758 127.686 352.363 127.686ZM359.975 133C359.912 132.879 359.857 132.682 359.811 132.408C359.357 132.881 358.803 133.117 358.146 133.117C357.51 133.117 356.99 132.936 356.588 132.572C356.186 132.209 355.984 131.76 355.984 131.225C355.984 130.549 356.234 130.031 356.734 129.672C357.238 129.309 357.957 129.127 358.891 129.127H359.764V128.711C359.764 128.383 359.672 128.121 359.488 127.926C359.305 127.727 359.025 127.627 358.65 127.627C358.326 127.627 358.061 127.709 357.854 127.873C357.646 128.033 357.543 128.238 357.543 128.488H356.119C356.119 128.141 356.234 127.816 356.465 127.516C356.695 127.211 357.008 126.973 357.402 126.801C357.801 126.629 358.244 126.543 358.732 126.543C359.475 126.543 360.066 126.73 360.508 127.105C360.949 127.477 361.176 128 361.188 128.676V131.535C361.188 132.105 361.268 132.561 361.428 132.9V133H359.975ZM358.41 131.975C358.691 131.975 358.955 131.906 359.201 131.77C359.451 131.633 359.639 131.449 359.764 131.219V130.023H358.996C358.469 130.023 358.072 130.115 357.807 130.299C357.541 130.482 357.408 130.742 357.408 131.078C357.408 131.352 357.498 131.57 357.678 131.734C357.861 131.895 358.105 131.975 358.41 131.975ZM365.998 127.961C365.811 127.93 365.617 127.914 365.418 127.914C364.766 127.914 364.326 128.164 364.1 128.664V133H362.676V126.66H364.035L364.07 127.369C364.414 126.818 364.891 126.543 365.5 126.543C365.703 126.543 365.871 126.57 366.004 126.625L365.998 127.961Z" fill="#181818"/>
<path d="M167.203 65.7188L168.734 57.625H171.07L168.547 69H166.188L164.336 61.3906L162.484 69H160.125L157.602 57.625H159.938L161.477 65.7031L163.352 57.625H165.336L167.203 65.7188ZM174.578 69H172.312V60.5469H174.578V69ZM172.18 58.3594C172.18 58.0208 172.292 57.7422 172.516 57.5234C172.745 57.3047 173.055 57.1953 173.445 57.1953C173.831 57.1953 174.138 57.3047 174.367 57.5234C174.596 57.7422 174.711 58.0208 174.711 58.3594C174.711 58.7031 174.594 58.9844 174.359 59.2031C174.13 59.4219 173.826 59.5312 173.445 59.5312C173.065 59.5312 172.758 59.4219 172.523 59.2031C172.294 58.9844 172.18 58.7031 172.18 58.3594ZM179.148 58.4688V60.5469H180.594V62.2031H179.148V66.4219C179.148 66.7344 179.208 66.9583 179.328 67.0938C179.448 67.2292 179.677 67.2969 180.016 67.2969C180.266 67.2969 180.487 67.2786 180.68 67.2422V68.9531C180.237 69.0885 179.781 69.1562 179.312 69.1562C177.729 69.1562 176.922 68.3568 176.891 66.7578V62.2031H175.656V60.5469H176.891V58.4688H179.148ZM184.055 61.4688C184.654 60.75 185.406 60.3906 186.312 60.3906C188.146 60.3906 189.076 61.4557 189.102 63.5859V69H186.844V63.6484C186.844 63.1641 186.74 62.8073 186.531 62.5781C186.323 62.3438 185.977 62.2266 185.492 62.2266C184.831 62.2266 184.352 62.4818 184.055 62.9922V69H181.797V57H184.055V61.4688ZM190.453 64.6953C190.453 63.8568 190.615 63.1094 190.938 62.4531C191.26 61.7969 191.724 61.2891 192.328 60.9297C192.938 60.5703 193.643 60.3906 194.445 60.3906C195.586 60.3906 196.516 60.7396 197.234 61.4375C197.958 62.1354 198.362 63.0833 198.445 64.2812L198.461 64.8594C198.461 66.1562 198.099 67.1979 197.375 67.9844C196.651 68.7656 195.68 69.1562 194.461 69.1562C193.242 69.1562 192.268 68.7656 191.539 67.9844C190.815 67.2031 190.453 66.1406 190.453 64.7969V64.6953ZM192.711 64.8594C192.711 65.6615 192.862 66.276 193.164 66.7031C193.466 67.125 193.898 67.3359 194.461 67.3359C195.008 67.3359 195.435 67.1276 195.742 66.7109C196.049 66.2891 196.203 65.6172 196.203 64.6953C196.203 63.9089 196.049 63.2995 195.742 62.8672C195.435 62.4349 195.003 62.2188 194.445 62.2188C193.893 62.2188 193.466 62.4349 193.164 62.8672C192.862 63.2943 192.711 63.9583 192.711 64.8594ZM204.914 68.1406C204.357 68.8177 203.586 69.1562 202.602 69.1562C201.695 69.1562 201.003 68.8958 200.523 68.375C200.049 67.8542 199.807 67.0911 199.797 66.0859V60.5469H202.055V66.0078C202.055 66.888 202.456 67.3281 203.258 67.3281C204.023 67.3281 204.549 67.0625 204.836 66.5312V60.5469H207.102V69H204.977L204.914 68.1406ZM211.508 58.4688V60.5469H212.953V62.2031H211.508V66.4219C211.508 66.7344 211.568 66.9583 211.688 67.0938C211.807 67.2292 212.036 67.2969 212.375 67.2969C212.625 67.2969 212.846 67.2786 213.039 67.2422V68.9531C212.596 69.0885 212.141 69.1562 211.672 69.1562C210.089 69.1562 209.281 68.3568 209.25 66.7578V62.2031H208.016V60.5469H209.25V58.4688H211.508ZM224.766 66.6562H220.656L219.875 69H217.383L221.617 57.625H223.789L228.047 69H225.555L224.766 66.6562ZM221.289 64.7578H224.133L222.703 60.5L221.289 64.7578ZM236.195 64.8516C236.195 66.1536 235.898 67.1979 235.305 67.9844C234.716 68.7656 233.919 69.1562 232.914 69.1562C232.06 69.1562 231.37 68.8594 230.844 68.2656V72.25H228.586V60.5469H230.68L230.758 61.375C231.305 60.7188 232.018 60.3906 232.898 60.3906C233.94 60.3906 234.75 60.776 235.328 61.5469C235.906 62.3177 236.195 63.3802 236.195 64.7344V64.8516ZM233.938 64.6875C233.938 63.901 233.797 63.2943 233.516 62.8672C233.24 62.4401 232.836 62.2266 232.305 62.2266C231.596 62.2266 231.109 62.4974 230.844 63.0391V66.5C231.12 67.0573 231.612 67.3359 232.32 67.3359C233.398 67.3359 233.938 66.4531 233.938 64.6875ZM245.211 64.8516C245.211 66.1536 244.914 67.1979 244.32 67.9844C243.732 68.7656 242.935 69.1562 241.93 69.1562C241.076 69.1562 240.385 68.8594 239.859 68.2656V72.25H237.602V60.5469H239.695L239.773 61.375C240.32 60.7188 241.034 60.3906 241.914 60.3906C242.956 60.3906 243.766 60.776 244.344 61.5469C244.922 62.3177 245.211 63.3802 245.211 64.7344V64.8516ZM242.953 64.6875C242.953 63.901 242.812 63.2943 242.531 62.8672C242.255 62.4401 241.852 62.2266 241.32 62.2266C240.612 62.2266 240.125 62.4974 239.859 63.0391V66.5C240.135 67.0573 240.628 67.3359 241.336 67.3359C242.414 67.3359 242.953 66.4531 242.953 64.6875ZM248.82 61.4688C249.419 60.75 250.172 60.3906 251.078 60.3906C252.911 60.3906 253.841 61.4557 253.867 63.5859V69H251.609V63.6484C251.609 63.1641 251.505 62.8073 251.297 62.5781C251.089 62.3438 250.742 62.2266 250.258 62.2266C249.596 62.2266 249.117 62.4818 248.82 62.9922V69H246.562V57H248.82V61.4688ZM260.633 68.1406C260.076 68.8177 259.305 69.1562 258.32 69.1562C257.414 69.1562 256.721 68.8958 256.242 68.375C255.768 67.8542 255.526 67.0911 255.516 66.0859V60.5469H257.773V66.0078C257.773 66.888 258.174 67.3281 258.977 67.3281C259.742 67.3281 260.268 67.0625 260.555 66.5312V60.5469H262.82V69H260.695L260.633 68.1406ZM264.172 64.7109C264.172 63.3932 264.466 62.3438 265.055 61.5625C265.648 60.7812 266.458 60.3906 267.484 60.3906C268.307 60.3906 268.987 60.6979 269.523 61.3125V57H271.789V69H269.75L269.641 68.1016C269.078 68.8047 268.354 69.1562 267.469 69.1562C266.474 69.1562 265.674 68.7656 265.07 67.9844C264.471 67.1979 264.172 66.1068 264.172 64.7109ZM266.43 64.875C266.43 65.6667 266.568 66.2734 266.844 66.6953C267.12 67.1172 267.521 67.3281 268.047 67.3281C268.745 67.3281 269.237 67.0339 269.523 66.4453V63.1094C269.242 62.5208 268.755 62.2266 268.062 62.2266C266.974 62.2266 266.43 63.1094 266.43 64.875Z" fill="#181818"/>
<rect x="60.5" y="199.5" width="418" height="127" rx="18.5" fill="white" stroke="#181818" stroke-width="3"/>
<path d="M149.254 271.945C149.254 274.305 148.766 276.109 147.789 277.359C146.812 278.609 145.383 279.234 143.5 279.234C141.641 279.234 140.219 278.621 139.234 277.395C138.25 276.168 137.746 274.41 137.723 272.121V268.98C137.723 266.598 138.215 264.789 139.199 263.555C140.191 262.32 141.617 261.703 143.477 261.703C145.336 261.703 146.758 262.316 147.742 263.543C148.727 264.762 149.23 266.516 149.254 268.805V271.945ZM145.867 268.5C145.867 267.086 145.672 266.059 145.281 265.418C144.898 264.77 144.297 264.445 143.477 264.445C142.68 264.445 142.09 264.754 141.707 265.371C141.332 265.98 141.133 266.938 141.109 268.242V272.391C141.109 273.781 141.297 274.816 141.672 275.496C142.055 276.168 142.664 276.504 143.5 276.504C144.328 276.504 144.926 276.18 145.293 275.531C145.66 274.883 145.852 273.891 145.867 272.555V268.5Z" fill="#181818"/>
<path d="M88.627 297.783C88.627 296.807 88.8535 296.023 89.3066 295.434C89.7598 294.84 90.3672 294.543 91.1289 294.543C91.8008 294.543 92.3438 294.777 92.7578 295.246V292H94.1816V301H92.8926L92.8223 300.344C92.3965 300.859 91.8281 301.117 91.1172 301.117C90.375 301.117 89.7734 300.818 89.3125 300.221C88.8555 299.623 88.627 298.811 88.627 297.783ZM90.0508 297.906C90.0508 298.551 90.1738 299.055 90.4199 299.418C90.6699 299.777 91.0234 299.957 91.4805 299.957C92.0625 299.957 92.4883 299.697 92.7578 299.178V296.471C92.4961 295.963 92.0742 295.709 91.4922 295.709C91.0312 295.709 90.6758 295.893 90.4258 296.26C90.1758 296.623 90.0508 297.172 90.0508 297.906ZM98.459 301.117C97.5566 301.117 96.8242 300.834 96.2617 300.268C95.7031 299.697 95.4238 298.939 95.4238 297.994V297.818C95.4238 297.186 95.5449 296.621 95.7871 296.125C96.0332 295.625 96.377 295.236 96.8184 294.959C97.2598 294.682 97.752 294.543 98.2949 294.543C99.1582 294.543 99.8242 294.818 100.293 295.369C100.766 295.92 101.002 296.699 101.002 297.707V298.281H96.8594C96.9023 298.805 97.0762 299.219 97.3809 299.523C97.6895 299.828 98.0762 299.98 98.541 299.98C99.1934 299.98 99.7246 299.717 100.135 299.189L100.902 299.922C100.648 300.301 100.309 300.596 99.8828 300.807C99.4609 301.014 98.9863 301.117 98.459 301.117ZM98.2891 295.686C97.8984 295.686 97.582 295.822 97.3398 296.096C97.1016 296.369 96.9492 296.75 96.8828 297.238H99.5957V297.133C99.5645 296.656 99.4375 296.297 99.2148 296.055C98.9922 295.809 98.6836 295.686 98.2891 295.686ZM104.266 299.195L105.607 294.66H107.078L104.881 301H103.645L101.43 294.66H102.906L104.266 299.195ZM112.363 295.352C112.828 294.812 113.416 294.543 114.127 294.543C115.479 294.543 116.164 295.314 116.184 296.857V301H114.76V296.91C114.76 296.473 114.664 296.164 114.473 295.984C114.285 295.801 114.008 295.709 113.641 295.709C113.07 295.709 112.645 295.963 112.363 296.471V301H110.939V292H112.363V295.352ZM117.361 297.771C117.361 297.15 117.484 296.592 117.73 296.096C117.977 295.596 118.322 295.213 118.768 294.947C119.213 294.678 119.725 294.543 120.303 294.543C121.158 294.543 121.852 294.818 122.383 295.369C122.918 295.92 123.207 296.65 123.25 297.561L123.256 297.895C123.256 298.52 123.135 299.078 122.893 299.57C122.654 300.062 122.311 300.443 121.861 300.713C121.416 300.982 120.9 301.117 120.314 301.117C119.42 301.117 118.703 300.82 118.164 300.227C117.629 299.629 117.361 298.834 117.361 297.842V297.771ZM118.785 297.895C118.785 298.547 118.92 299.059 119.189 299.43C119.459 299.797 119.834 299.98 120.314 299.98C120.795 299.98 121.168 299.793 121.434 299.418C121.703 299.043 121.838 298.494 121.838 297.771C121.838 297.131 121.699 296.623 121.422 296.248C121.148 295.873 120.775 295.686 120.303 295.686C119.838 295.686 119.469 295.871 119.195 296.242C118.922 296.609 118.785 297.16 118.785 297.895ZM128.301 300.379C127.883 300.871 127.289 301.117 126.52 301.117C125.832 301.117 125.311 300.916 124.955 300.514C124.604 300.111 124.428 299.529 124.428 298.768V294.66H125.852V298.75C125.852 299.555 126.186 299.957 126.854 299.957C127.545 299.957 128.012 299.709 128.254 299.213V294.66H129.678V301H128.336L128.301 300.379ZM134.447 295.961C134.26 295.93 134.066 295.914 133.867 295.914C133.215 295.914 132.775 296.164 132.549 296.664V301H131.125V294.66H132.484L132.52 295.369C132.863 294.818 133.34 294.543 133.949 294.543C134.152 294.543 134.32 294.57 134.453 294.625L134.447 295.961ZM138.9 299.277C138.9 299.023 138.795 298.83 138.584 298.697C138.377 298.564 138.031 298.447 137.547 298.346C137.062 298.244 136.658 298.115 136.334 297.959C135.623 297.615 135.268 297.117 135.268 296.465C135.268 295.918 135.498 295.461 135.959 295.094C136.42 294.727 137.006 294.543 137.717 294.543C138.475 294.543 139.086 294.73 139.551 295.105C140.02 295.48 140.254 295.967 140.254 296.564H138.83C138.83 296.291 138.729 296.064 138.525 295.885C138.322 295.701 138.053 295.609 137.717 295.609C137.404 295.609 137.148 295.682 136.949 295.826C136.754 295.971 136.656 296.164 136.656 296.406C136.656 296.625 136.748 296.795 136.932 296.916C137.115 297.037 137.486 297.16 138.045 297.285C138.604 297.406 139.041 297.553 139.357 297.725C139.678 297.893 139.914 298.096 140.066 298.334C140.223 298.572 140.301 298.861 140.301 299.201C140.301 299.771 140.064 300.234 139.592 300.59C139.119 300.941 138.5 301.117 137.734 301.117C137.215 301.117 136.752 301.023 136.346 300.836C135.939 300.648 135.623 300.391 135.396 300.062C135.17 299.734 135.057 299.381 135.057 299.002H136.439C136.459 299.338 136.586 299.598 136.82 299.781C137.055 299.961 137.365 300.051 137.752 300.051C138.127 300.051 138.412 299.98 138.607 299.84C138.803 299.695 138.9 299.508 138.9 299.277ZM150.086 297.895C150.086 298.875 149.863 299.658 149.418 300.244C148.973 300.826 148.375 301.117 147.625 301.117C146.93 301.117 146.373 300.889 145.955 300.432V303.438H144.531V294.66H145.844L145.902 295.305C146.32 294.797 146.889 294.543 147.607 294.543C148.381 294.543 148.986 294.832 149.424 295.41C149.865 295.984 150.086 296.783 150.086 297.807V297.895ZM148.668 297.771C148.668 297.139 148.541 296.637 148.287 296.266C148.037 295.895 147.678 295.709 147.209 295.709C146.627 295.709 146.209 295.949 145.955 296.43V299.242C146.213 299.734 146.635 299.98 147.221 299.98C147.674 299.98 148.027 299.799 148.281 299.436C148.539 299.068 148.668 298.514 148.668 297.771ZM154.088 301.117C153.186 301.117 152.453 300.834 151.891 300.268C151.332 299.697 151.053 298.939 151.053 297.994V297.818C151.053 297.186 151.174 296.621 151.416 296.125C151.662 295.625 152.006 295.236 152.447 294.959C152.889 294.682 153.381 294.543 153.924 294.543C154.787 294.543 155.453 294.818 155.922 295.369C156.395 295.92 156.631 296.699 156.631 297.707V298.281H152.488C152.531 298.805 152.705 299.219 153.01 299.523C153.318 299.828 153.705 299.98 154.17 299.98C154.822 299.98 155.354 299.717 155.764 299.189L156.531 299.922C156.277 300.301 155.938 300.596 155.512 300.807C155.09 301.014 154.615 301.117 154.088 301.117ZM153.918 295.686C153.527 295.686 153.211 295.822 152.969 296.096C152.73 296.369 152.578 296.75 152.512 297.238H155.225V297.133C155.193 296.656 155.066 296.297 154.844 296.055C154.621 295.809 154.312 295.686 153.918 295.686ZM161.061 295.961C160.873 295.93 160.68 295.914 160.48 295.914C159.828 295.914 159.389 296.164 159.162 296.664V301H157.738V294.66H159.098L159.133 295.369C159.477 294.818 159.953 294.543 160.562 294.543C160.766 294.543 160.934 294.57 161.066 294.625L161.061 295.961ZM166.287 294.66L166.328 295.322C166.773 294.803 167.383 294.543 168.156 294.543C169.004 294.543 169.584 294.867 169.896 295.516C170.357 294.867 171.006 294.543 171.842 294.543C172.541 294.543 173.061 294.736 173.4 295.123C173.744 295.51 173.92 296.08 173.928 296.834V301H172.504V296.875C172.504 296.473 172.416 296.178 172.24 295.99C172.064 295.803 171.773 295.709 171.367 295.709C171.043 295.709 170.777 295.797 170.57 295.973C170.367 296.145 170.225 296.371 170.143 296.652L170.148 301H168.725V296.828C168.705 296.082 168.324 295.709 167.582 295.709C167.012 295.709 166.607 295.941 166.369 296.406V301H164.945V294.66H166.287ZM175.123 297.771C175.123 297.15 175.246 296.592 175.492 296.096C175.738 295.596 176.084 295.213 176.529 294.947C176.975 294.678 177.486 294.543 178.064 294.543C178.92 294.543 179.613 294.818 180.145 295.369C180.68 295.92 180.969 296.65 181.012 297.561L181.018 297.895C181.018 298.52 180.896 299.078 180.654 299.57C180.416 300.062 180.072 300.443 179.623 300.713C179.178 300.982 178.662 301.117 178.076 301.117C177.182 301.117 176.465 300.82 175.926 300.227C175.391 299.629 175.123 298.834 175.123 297.842V297.771ZM176.547 297.895C176.547 298.547 176.682 299.059 176.951 299.43C177.221 299.797 177.596 299.98 178.076 299.98C178.557 299.98 178.93 299.793 179.195 299.418C179.465 299.043 179.6 298.494 179.6 297.771C179.6 297.131 179.461 296.623 179.184 296.248C178.91 295.873 178.537 295.686 178.064 295.686C177.6 295.686 177.23 295.871 176.957 296.242C176.684 296.609 176.547 297.16 176.547 297.895ZM183.543 294.66L183.584 295.393C184.053 294.826 184.668 294.543 185.43 294.543C186.75 294.543 187.422 295.299 187.445 296.811V301H186.021V296.893C186.021 296.49 185.934 296.193 185.758 296.002C185.586 295.807 185.303 295.709 184.908 295.709C184.334 295.709 183.906 295.969 183.625 296.488V301H182.201V294.66H183.543ZM190.686 293.119V294.66H191.805V295.715H190.686V299.254C190.686 299.496 190.732 299.672 190.826 299.781C190.924 299.887 191.096 299.939 191.342 299.939C191.506 299.939 191.672 299.92 191.84 299.881V300.982C191.516 301.072 191.203 301.117 190.902 301.117C189.809 301.117 189.262 300.514 189.262 299.307V295.715H188.219V294.66H189.262V293.119H190.686ZM194.301 295.352C194.766 294.812 195.354 294.543 196.064 294.543C197.416 294.543 198.102 295.314 198.121 296.857V301H196.697V296.91C196.697 296.473 196.602 296.164 196.41 295.984C196.223 295.801 195.945 295.709 195.578 295.709C195.008 295.709 194.582 295.963 194.301 296.471V301H192.877V292H194.301V295.352Z" fill="#181818"/>
<path d="M275.465 279H263.77V276.68L269.289 270.797C270.047 269.969 270.605 269.246 270.965 268.629C271.332 268.012 271.516 267.426 271.516 266.871C271.516 266.113 271.324 265.52 270.941 265.09C270.559 264.652 270.012 264.434 269.301 264.434C268.535 264.434 267.93 264.699 267.484 265.23C267.047 265.754 266.828 266.445 266.828 267.305H263.43C263.43 266.266 263.676 265.316 264.168 264.457C264.668 263.598 265.371 262.926 266.277 262.441C267.184 261.949 268.211 261.703 269.359 261.703C271.117 261.703 272.48 262.125 273.449 262.969C274.426 263.812 274.914 265.004 274.914 266.543C274.914 267.387 274.695 268.246 274.258 269.121C273.82 269.996 273.07 271.016 272.008 272.18L268.129 276.27H275.465V279Z" fill="#181818"/>
<path d="M237.314 301H235.891V292H237.314V301ZM240.385 301H238.961V294.66H240.385V301ZM238.873 293.014C238.873 292.795 238.941 292.613 239.078 292.469C239.219 292.324 239.418 292.252 239.676 292.252C239.934 292.252 240.133 292.324 240.273 292.469C240.414 292.613 240.484 292.795 240.484 293.014C240.484 293.229 240.414 293.408 240.273 293.553C240.133 293.693 239.934 293.764 239.676 293.764C239.418 293.764 239.219 293.693 239.078 293.553C238.941 293.408 238.873 293.229 238.873 293.014ZM243.262 294.66L243.303 295.393C243.771 294.826 244.387 294.543 245.148 294.543C246.469 294.543 247.141 295.299 247.164 296.811V301H245.74V296.893C245.74 296.49 245.652 296.193 245.477 296.002C245.305 295.807 245.021 295.709 244.627 295.709C244.053 295.709 243.625 295.969 243.344 296.488V301H241.92V294.66H243.262ZM251.412 301.117C250.51 301.117 249.777 300.834 249.215 300.268C248.656 299.697 248.377 298.939 248.377 297.994V297.818C248.377 297.186 248.498 296.621 248.74 296.125C248.986 295.625 249.33 295.236 249.771 294.959C250.213 294.682 250.705 294.543 251.248 294.543C252.111 294.543 252.777 294.818 253.246 295.369C253.719 295.92 253.955 296.699 253.955 297.707V298.281H249.812C249.855 298.805 250.029 299.219 250.334 299.523C250.643 299.828 251.029 299.98 251.494 299.98C252.146 299.98 252.678 299.717 253.088 299.189L253.855 299.922C253.602 300.301 253.262 300.596 252.836 300.807C252.414 301.014 251.939 301.117 251.412 301.117ZM251.242 295.686C250.852 295.686 250.535 295.822 250.293 296.096C250.055 296.369 249.902 296.75 249.836 297.238H252.549V297.133C252.518 296.656 252.391 296.297 252.168 296.055C251.945 295.809 251.637 295.686 251.242 295.686ZM258.619 299.277C258.619 299.023 258.514 298.83 258.303 298.697C258.096 298.564 257.75 298.447 257.266 298.346C256.781 298.244 256.377 298.115 256.053 297.959C255.342 297.615 254.986 297.117 254.986 296.465C254.986 295.918 255.217 295.461 255.678 295.094C256.139 294.727 256.725 294.543 257.436 294.543C258.193 294.543 258.805 294.73 259.27 295.105C259.738 295.48 259.973 295.967 259.973 296.564H258.549C258.549 296.291 258.447 296.064 258.244 295.885C258.041 295.701 257.771 295.609 257.436 295.609C257.123 295.609 256.867 295.682 256.668 295.826C256.473 295.971 256.375 296.164 256.375 296.406C256.375 296.625 256.467 296.795 256.65 296.916C256.834 297.037 257.205 297.16 257.764 297.285C258.322 297.406 258.76 297.553 259.076 297.725C259.396 297.893 259.633 298.096 259.785 298.334C259.941 298.572 260.02 298.861 260.02 299.201C260.02 299.771 259.783 300.234 259.311 300.59C258.838 300.941 258.219 301.117 257.453 301.117C256.934 301.117 256.471 301.023 256.064 300.836C255.658 300.648 255.342 300.391 255.115 300.062C254.889 299.734 254.775 299.381 254.775 299.002H256.158C256.178 299.338 256.305 299.598 256.539 299.781C256.773 299.961 257.084 300.051 257.471 300.051C257.846 300.051 258.131 299.98 258.326 299.84C258.521 299.695 258.619 299.508 258.619 299.277ZM263.986 297.771C263.986 297.15 264.109 296.592 264.355 296.096C264.602 295.596 264.947 295.213 265.393 294.947C265.838 294.678 266.35 294.543 266.928 294.543C267.783 294.543 268.477 294.818 269.008 295.369C269.543 295.92 269.832 296.65 269.875 297.561L269.881 297.895C269.881 298.52 269.76 299.078 269.518 299.57C269.279 300.062 268.936 300.443 268.486 300.713C268.041 300.982 267.525 301.117 266.939 301.117C266.045 301.117 265.328 300.82 264.789 300.227C264.254 299.629 263.986 298.834 263.986 297.842V297.771ZM265.41 297.895C265.41 298.547 265.545 299.059 265.814 299.43C266.084 299.797 266.459 299.98 266.939 299.98C267.42 299.98 267.793 299.793 268.059 299.418C268.328 299.043 268.463 298.494 268.463 297.771C268.463 297.131 268.324 296.623 268.047 296.248C267.773 295.873 267.4 295.686 266.928 295.686C266.463 295.686 266.094 295.871 265.82 296.242C265.547 296.609 265.41 297.16 265.41 297.895ZM271.586 301V295.715H270.619V294.66H271.586V294.08C271.586 293.377 271.781 292.834 272.172 292.451C272.562 292.068 273.109 291.877 273.812 291.877C274.062 291.877 274.328 291.912 274.609 291.982L274.574 293.096C274.418 293.064 274.236 293.049 274.029 293.049C273.35 293.049 273.01 293.398 273.01 294.098V294.66H274.299V295.715H273.01V301H271.586ZM280.932 299.98C281.287 299.98 281.582 299.877 281.816 299.67C282.051 299.463 282.176 299.207 282.191 298.902H283.533C283.518 299.297 283.395 299.666 283.164 300.01C282.934 300.35 282.621 300.619 282.227 300.818C281.832 301.018 281.406 301.117 280.949 301.117C280.062 301.117 279.359 300.83 278.84 300.256C278.32 299.682 278.061 298.889 278.061 297.877V297.73C278.061 296.766 278.318 295.994 278.834 295.416C279.35 294.834 280.053 294.543 280.943 294.543C281.697 294.543 282.311 294.764 282.783 295.205C283.26 295.643 283.51 296.219 283.533 296.934H282.191C282.176 296.57 282.051 296.271 281.816 296.037C281.586 295.803 281.291 295.686 280.932 295.686C280.471 295.686 280.115 295.854 279.865 296.189C279.615 296.521 279.488 297.027 279.484 297.707V297.936C279.484 298.623 279.607 299.137 279.854 299.477C280.104 299.812 280.463 299.98 280.932 299.98ZM284.342 297.771C284.342 297.15 284.465 296.592 284.711 296.096C284.957 295.596 285.303 295.213 285.748 294.947C286.193 294.678 286.705 294.543 287.283 294.543C288.139 294.543 288.832 294.818 289.363 295.369C289.898 295.92 290.188 296.65 290.23 297.561L290.236 297.895C290.236 298.52 290.115 299.078 289.873 299.57C289.635 300.062 289.291 300.443 288.842 300.713C288.396 300.982 287.881 301.117 287.295 301.117C286.4 301.117 285.684 300.82 285.145 300.227C284.609 299.629 284.342 298.834 284.342 297.842V297.771ZM285.766 297.895C285.766 298.547 285.9 299.059 286.17 299.43C286.439 299.797 286.814 299.98 287.295 299.98C287.775 299.98 288.148 299.793 288.414 299.418C288.684 299.043 288.818 298.494 288.818 297.771C288.818 297.131 288.68 296.623 288.402 296.248C288.129 295.873 287.756 295.686 287.283 295.686C286.818 295.686 286.449 295.871 286.176 296.242C285.902 296.609 285.766 297.16 285.766 297.895ZM291.174 297.783C291.174 296.807 291.4 296.023 291.854 295.434C292.307 294.84 292.914 294.543 293.676 294.543C294.348 294.543 294.891 294.777 295.305 295.246V292H296.729V301H295.439L295.369 300.344C294.943 300.859 294.375 301.117 293.664 301.117C292.922 301.117 292.32 300.818 291.859 300.221C291.402 299.623 291.174 298.811 291.174 297.783ZM292.598 297.906C292.598 298.551 292.721 299.055 292.967 299.418C293.217 299.777 293.57 299.957 294.027 299.957C294.609 299.957 295.035 299.697 295.305 299.178V296.471C295.043 295.963 294.621 295.709 294.039 295.709C293.578 295.709 293.223 295.893 292.973 296.26C292.723 296.623 292.598 297.172 292.598 297.906ZM301.006 301.117C300.104 301.117 299.371 300.834 298.809 300.268C298.25 299.697 297.971 298.939 297.971 297.994V297.818C297.971 297.186 298.092 296.621 298.334 296.125C298.58 295.625 298.924 295.236 299.365 294.959C299.807 294.682 300.299 294.543 300.842 294.543C301.705 294.543 302.371 294.818 302.84 295.369C303.312 295.92 303.549 296.699 303.549 297.707V298.281H299.406C299.449 298.805 299.623 299.219 299.928 299.523C300.236 299.828 300.623 299.98 301.088 299.98C301.74 299.98 302.271 299.717 302.682 299.189L303.449 299.922C303.195 300.301 302.855 300.596 302.43 300.807C302.008 301.014 301.533 301.117 301.006 301.117ZM300.836 295.686C300.445 295.686 300.129 295.822 299.887 296.096C299.648 296.369 299.496 296.75 299.43 297.238H302.143V297.133C302.111 296.656 301.984 296.297 301.762 296.055C301.539 295.809 301.23 295.686 300.836 295.686Z" fill="#181818"/>
<path d="M362.746 272.027H355.996V279H352.48V261.938H363.59V264.785H355.996V269.191H362.746V272.027ZM372.227 269.496C371.766 269.434 371.359 269.402 371.008 269.402C369.727 269.402 368.887 269.836 368.488 270.703V279H365.102V266.32H368.301L368.395 267.832C369.074 266.668 370.016 266.086 371.219 266.086C371.594 266.086 371.945 266.137 372.273 266.238L372.227 269.496ZM372.918 272.543C372.918 271.285 373.16 270.164 373.645 269.18C374.129 268.195 374.824 267.434 375.73 266.895C376.645 266.355 377.703 266.086 378.906 266.086C380.617 266.086 382.012 266.609 383.09 267.656C384.176 268.703 384.781 270.125 384.906 271.922L384.93 272.789C384.93 274.734 384.387 276.297 383.301 277.477C382.215 278.648 380.758 279.234 378.93 279.234C377.102 279.234 375.641 278.648 374.547 277.477C373.461 276.305 372.918 274.711 372.918 272.695V272.543ZM376.305 272.789C376.305 273.992 376.531 274.914 376.984 275.555C377.438 276.188 378.086 276.504 378.93 276.504C379.75 276.504 380.391 276.191 380.852 275.566C381.312 274.934 381.543 273.926 381.543 272.543C381.543 271.363 381.312 270.449 380.852 269.801C380.391 269.152 379.742 268.828 378.906 268.828C378.078 268.828 377.438 269.152 376.984 269.801C376.531 270.441 376.305 271.438 376.305 272.789ZM390.191 266.32L390.297 267.738C391.195 266.637 392.41 266.086 393.941 266.086C395.574 266.086 396.695 266.73 397.305 268.02C398.195 266.73 399.465 266.086 401.113 266.086C402.488 266.086 403.512 266.488 404.184 267.293C404.855 268.09 405.191 269.293 405.191 270.902V279H401.793V270.914C401.793 270.195 401.652 269.672 401.371 269.344C401.09 269.008 400.594 268.84 399.883 268.84C398.867 268.84 398.164 269.324 397.773 270.293L397.785 279H394.398V270.926C394.398 270.191 394.254 269.66 393.965 269.332C393.676 269.004 393.184 268.84 392.488 268.84C391.527 268.84 390.832 269.238 390.402 270.035V279H387.016V266.32H390.191ZM421.738 274.512C421.738 273.871 421.559 273.363 421.199 272.988C420.848 272.605 420.246 272.254 419.395 271.934C418.543 271.613 417.809 271.297 417.191 270.984C416.574 270.664 416.043 270.301 415.598 269.895C415.16 269.48 414.816 268.996 414.566 268.441C414.324 267.887 414.203 267.227 414.203 266.461C414.203 265.141 414.625 264.059 415.469 263.215C416.312 262.371 417.434 261.879 418.832 261.738V259.23H420.707V261.773C422.09 261.969 423.172 262.547 423.953 263.508C424.734 264.461 425.125 265.699 425.125 267.223H421.738C421.738 266.285 421.543 265.586 421.152 265.125C420.77 264.656 420.254 264.422 419.605 264.422C418.965 264.422 418.469 264.605 418.117 264.973C417.766 265.332 417.59 265.832 417.59 266.473C417.59 267.066 417.762 267.543 418.105 267.902C418.449 268.262 419.086 268.629 420.016 269.004C420.953 269.379 421.723 269.734 422.324 270.07C422.926 270.398 423.434 270.773 423.848 271.195C424.262 271.609 424.578 272.086 424.797 272.625C425.016 273.156 425.125 273.777 425.125 274.488C425.125 275.816 424.711 276.895 423.883 277.723C423.055 278.551 421.914 279.039 420.461 279.188V281.52H418.598V279.199C416.996 279.027 415.754 278.461 414.871 277.5C413.996 276.531 413.559 275.246 413.559 273.645H416.945C416.945 274.574 417.164 275.289 417.602 275.789C418.047 276.281 418.684 276.527 419.512 276.527C420.199 276.527 420.742 276.348 421.141 275.988C421.539 275.621 421.738 275.129 421.738 274.512ZM438.906 271.945C438.906 274.305 438.418 276.109 437.441 277.359C436.465 278.609 435.035 279.234 433.152 279.234C431.293 279.234 429.871 278.621 428.887 277.395C427.902 276.168 427.398 274.41 427.375 272.121V268.98C427.375 266.598 427.867 264.789 428.852 263.555C429.844 262.32 431.27 261.703 433.129 261.703C434.988 261.703 436.41 262.316 437.395 263.543C438.379 264.762 438.883 266.516 438.906 268.805V271.945ZM435.52 268.5C435.52 267.086 435.324 266.059 434.934 265.418C434.551 264.77 433.949 264.445 433.129 264.445C432.332 264.445 431.742 264.754 431.359 265.371C430.984 265.98 430.785 266.938 430.762 268.242V272.391C430.762 273.781 430.949 274.816 431.324 275.496C431.707 276.168 432.316 276.504 433.152 276.504C433.98 276.504 434.578 276.18 434.945 275.531C435.312 274.883 435.504 273.891 435.52 272.555V268.5Z" fill="#181818"/>
<path d="M380.113 297.895C380.113 298.875 379.891 299.658 379.445 300.244C379 300.826 378.402 301.117 377.652 301.117C376.957 301.117 376.4 300.889 375.982 300.432V303.438H374.559V294.66H375.871L375.93 295.305C376.348 294.797 376.916 294.543 377.635 294.543C378.408 294.543 379.014 294.832 379.451 295.41C379.893 295.984 380.113 296.783 380.113 297.807V297.895ZM378.695 297.771C378.695 297.139 378.568 296.637 378.314 296.266C378.064 295.895 377.705 295.709 377.236 295.709C376.654 295.709 376.236 295.949 375.982 296.43V299.242C376.24 299.734 376.662 299.98 377.248 299.98C377.701 299.98 378.055 299.799 378.309 299.436C378.566 299.068 378.695 298.514 378.695 297.771ZM384.115 301.117C383.213 301.117 382.48 300.834 381.918 300.268C381.359 299.697 381.08 298.939 381.08 297.994V297.818C381.08 297.186 381.201 296.621 381.443 296.125C381.689 295.625 382.033 295.236 382.475 294.959C382.916 294.682 383.408 294.543 383.951 294.543C384.814 294.543 385.48 294.818 385.949 295.369C386.422 295.92 386.658 296.699 386.658 297.707V298.281H382.516C382.559 298.805 382.732 299.219 383.037 299.523C383.346 299.828 383.732 299.98 384.197 299.98C384.85 299.98 385.381 299.717 385.791 299.189L386.559 299.922C386.305 300.301 385.965 300.596 385.539 300.807C385.117 301.014 384.643 301.117 384.115 301.117ZM383.945 295.686C383.555 295.686 383.238 295.822 382.996 296.096C382.758 296.369 382.605 296.75 382.539 297.238H385.252V297.133C385.221 296.656 385.094 296.297 384.871 296.055C384.648 295.809 384.34 295.686 383.945 295.686ZM391.088 295.961C390.9 295.93 390.707 295.914 390.508 295.914C389.855 295.914 389.416 296.164 389.189 296.664V301H387.766V294.66H389.125L389.16 295.369C389.504 294.818 389.98 294.543 390.59 294.543C390.793 294.543 390.961 294.57 391.094 294.625L391.088 295.961ZM397.193 298.961L398.482 294.66H400L397.48 301.961C397.094 303.027 396.438 303.561 395.512 303.561C395.305 303.561 395.076 303.525 394.826 303.455V302.354L395.096 302.371C395.455 302.371 395.725 302.305 395.904 302.172C396.088 302.043 396.232 301.824 396.338 301.516L396.543 300.971L394.316 294.66H395.852L397.193 298.961ZM403.533 301.117C402.631 301.117 401.898 300.834 401.336 300.268C400.777 299.697 400.498 298.939 400.498 297.994V297.818C400.498 297.186 400.619 296.621 400.861 296.125C401.107 295.625 401.451 295.236 401.893 294.959C402.334 294.682 402.826 294.543 403.369 294.543C404.232 294.543 404.898 294.818 405.367 295.369C405.84 295.92 406.076 296.699 406.076 297.707V298.281H401.934C401.977 298.805 402.15 299.219 402.455 299.523C402.764 299.828 403.15 299.98 403.615 299.98C404.268 299.98 404.799 299.717 405.209 299.189L405.977 299.922C405.723 300.301 405.383 300.596 404.957 300.807C404.535 301.014 404.061 301.117 403.533 301.117ZM403.363 295.686C402.973 295.686 402.656 295.822 402.414 296.096C402.176 296.369 402.023 296.75 401.957 297.238H404.67V297.133C404.639 296.656 404.512 296.297 404.289 296.055C404.066 295.809 403.758 295.686 403.363 295.686ZM410.975 301C410.912 300.879 410.857 300.682 410.811 300.408C410.357 300.881 409.803 301.117 409.146 301.117C408.51 301.117 407.99 300.936 407.588 300.572C407.186 300.209 406.984 299.76 406.984 299.225C406.984 298.549 407.234 298.031 407.734 297.672C408.238 297.309 408.957 297.127 409.891 297.127H410.764V296.711C410.764 296.383 410.672 296.121 410.488 295.926C410.305 295.727 410.025 295.627 409.65 295.627C409.326 295.627 409.061 295.709 408.854 295.873C408.646 296.033 408.543 296.238 408.543 296.488H407.119C407.119 296.141 407.234 295.816 407.465 295.516C407.695 295.211 408.008 294.973 408.402 294.801C408.801 294.629 409.244 294.543 409.732 294.543C410.475 294.543 411.066 294.73 411.508 295.105C411.949 295.477 412.176 296 412.188 296.676V299.535C412.188 300.105 412.268 300.561 412.428 300.9V301H410.975ZM409.41 299.975C409.691 299.975 409.955 299.906 410.201 299.77C410.451 299.633 410.639 299.449 410.764 299.219V298.023H409.996C409.469 298.023 409.072 298.115 408.807 298.299C408.541 298.482 408.408 298.742 408.408 299.078C408.408 299.352 408.498 299.57 408.678 299.734C408.861 299.895 409.105 299.975 409.41 299.975ZM416.998 295.961C416.811 295.93 416.617 295.914 416.418 295.914C415.766 295.914 415.326 296.164 415.1 296.664V301H413.676V294.66H415.035L415.07 295.369C415.414 294.818 415.891 294.543 416.5 294.543C416.703 294.543 416.871 294.57 417.004 294.625L416.998 295.961Z" fill="#181818"/>
<path d="M229.906 233.719L231.438 225.625H233.773L231.25 237H228.891L227.039 229.391L225.188 237H222.828L220.305 225.625H222.641L224.18 233.703L226.055 225.625H228.039L229.906 233.719ZM237.281 237H235.016V228.547H237.281V237ZM234.883 226.359C234.883 226.021 234.995 225.742 235.219 225.523C235.448 225.305 235.758 225.195 236.148 225.195C236.534 225.195 236.841 225.305 237.07 225.523C237.299 225.742 237.414 226.021 237.414 226.359C237.414 226.703 237.297 226.984 237.062 227.203C236.833 227.422 236.529 227.531 236.148 227.531C235.768 227.531 235.461 227.422 235.227 227.203C234.997 226.984 234.883 226.703 234.883 226.359ZM241.852 226.469V228.547H243.297V230.203H241.852V234.422C241.852 234.734 241.911 234.958 242.031 235.094C242.151 235.229 242.38 235.297 242.719 235.297C242.969 235.297 243.19 235.279 243.383 235.242V236.953C242.94 237.089 242.484 237.156 242.016 237.156C240.432 237.156 239.625 236.357 239.594 234.758V230.203H238.359V228.547H239.594V226.469H241.852ZM246.758 229.469C247.357 228.75 248.109 228.391 249.016 228.391C250.849 228.391 251.779 229.456 251.805 231.586V237H249.547V231.648C249.547 231.164 249.443 230.807 249.234 230.578C249.026 230.344 248.68 230.227 248.195 230.227C247.534 230.227 247.055 230.482 246.758 230.992V237H244.5V225H246.758V229.469ZM264.062 234.656H259.953L259.172 237H256.68L260.914 225.625H263.086L267.344 237H264.852L264.062 234.656ZM260.586 232.758H263.43L262 228.5L260.586 232.758ZM275.492 232.852C275.492 234.154 275.195 235.198 274.602 235.984C274.013 236.766 273.216 237.156 272.211 237.156C271.357 237.156 270.667 236.859 270.141 236.266V240.25H267.883V228.547H269.977L270.055 229.375C270.602 228.719 271.315 228.391 272.195 228.391C273.237 228.391 274.047 228.776 274.625 229.547C275.203 230.318 275.492 231.38 275.492 232.734V232.852ZM273.234 232.688C273.234 231.901 273.094 231.294 272.812 230.867C272.536 230.44 272.133 230.227 271.602 230.227C270.893 230.227 270.406 230.497 270.141 231.039V234.5C270.417 235.057 270.909 235.336 271.617 235.336C272.695 235.336 273.234 234.453 273.234 232.688ZM284.508 232.852C284.508 234.154 284.211 235.198 283.617 235.984C283.029 236.766 282.232 237.156 281.227 237.156C280.372 237.156 279.682 236.859 279.156 236.266V240.25H276.898V228.547H278.992L279.07 229.375C279.617 228.719 280.331 228.391 281.211 228.391C282.253 228.391 283.062 228.776 283.641 229.547C284.219 230.318 284.508 231.38 284.508 232.734V232.852ZM282.25 232.688C282.25 231.901 282.109 231.294 281.828 230.867C281.552 230.44 281.148 230.227 280.617 230.227C279.909 230.227 279.422 230.497 279.156 231.039V234.5C279.432 235.057 279.924 235.336 280.633 235.336C281.711 235.336 282.25 234.453 282.25 232.688ZM288.117 229.469C288.716 228.75 289.469 228.391 290.375 228.391C292.208 228.391 293.138 229.456 293.164 231.586V237H290.906V231.648C290.906 231.164 290.802 230.807 290.594 230.578C290.385 230.344 290.039 230.227 289.555 230.227C288.893 230.227 288.414 230.482 288.117 230.992V237H285.859V225H288.117V229.469ZM299.93 236.141C299.372 236.818 298.602 237.156 297.617 237.156C296.711 237.156 296.018 236.896 295.539 236.375C295.065 235.854 294.823 235.091 294.812 234.086V228.547H297.07V234.008C297.07 234.888 297.471 235.328 298.273 235.328C299.039 235.328 299.565 235.062 299.852 234.531V228.547H302.117V237H299.992L299.93 236.141ZM303.469 232.711C303.469 231.393 303.763 230.344 304.352 229.562C304.945 228.781 305.755 228.391 306.781 228.391C307.604 228.391 308.284 228.698 308.82 229.312V225H311.086V237H309.047L308.938 236.102C308.375 236.805 307.651 237.156 306.766 237.156C305.771 237.156 304.971 236.766 304.367 235.984C303.768 235.198 303.469 234.107 303.469 232.711ZM305.727 232.875C305.727 233.667 305.865 234.273 306.141 234.695C306.417 235.117 306.818 235.328 307.344 235.328C308.042 235.328 308.534 235.034 308.82 234.445V231.109C308.539 230.521 308.052 230.227 307.359 230.227C306.271 230.227 305.727 231.109 305.727 232.875Z" fill="#181818"/>
<circle cx="260" cy="182" r="29" fill="#181818"/>
<circle cx="266" cy="176" r="27.5" fill="white" stroke="#181818" stroke-width="3"/>
<path d="M262.562 179.18L265.141 170.625H267.75L263.789 182H261.344L257.398 170.625H260L262.562 179.18ZM274.727 179.016C274.727 178.573 274.57 178.234 274.258 178C273.945 177.76 273.383 177.51 272.57 177.25C271.758 176.984 271.115 176.724 270.641 176.469C269.349 175.771 268.703 174.831 268.703 173.648C268.703 173.034 268.875 172.487 269.219 172.008C269.568 171.523 270.065 171.146 270.711 170.875C271.362 170.604 272.091 170.469 272.898 170.469C273.711 170.469 274.435 170.617 275.07 170.914C275.706 171.206 276.198 171.62 276.547 172.156C276.901 172.693 277.078 173.302 277.078 173.984H274.734C274.734 173.464 274.57 173.06 274.242 172.773C273.914 172.482 273.453 172.336 272.859 172.336C272.286 172.336 271.841 172.458 271.523 172.703C271.206 172.943 271.047 173.26 271.047 173.656C271.047 174.026 271.232 174.336 271.602 174.586C271.977 174.836 272.526 175.07 273.25 175.289C274.583 175.69 275.555 176.188 276.164 176.781C276.773 177.375 277.078 178.115 277.078 179C277.078 179.984 276.706 180.758 275.961 181.32C275.216 181.878 274.214 182.156 272.953 182.156C272.078 182.156 271.281 181.997 270.562 181.68C269.844 181.357 269.294 180.917 268.914 180.359C268.539 179.802 268.352 179.156 268.352 178.422H270.703C270.703 179.677 271.453 180.305 272.953 180.305C273.51 180.305 273.945 180.193 274.258 179.969C274.57 179.74 274.727 179.422 274.727 179.016Z" fill="#181818"/>
<path d="M20.4517 250C20.297 249.76 20.1616 249.619 20.1036 249.459C19.3689 247.416 18.6535 245.373 17.9381 243.33C17.7254 242.729 17.5128 242.108 17.3194 241.487C17.1454 240.946 16.8747 240.485 16.3333 240.285C15.4053 239.945 14.4965 239.604 13.5684 239.243C12.505 238.843 11.4609 238.422 10.4169 238.022C9.77881 237.781 9.14076 237.581 8.50271 237.32C8.30936 237.24 8.17401 237.04 8 236.88C8.17401 236.74 8.30936 236.519 8.50271 236.459C9.56613 236.039 10.6489 235.638 11.7123 235.237C12.6984 234.857 13.6651 234.496 14.6512 234.116C15.1926 233.915 15.734 233.715 16.2947 233.515C16.7587 233.334 17.0681 233.014 17.2421 232.533C17.5708 231.592 17.8995 230.65 18.2282 229.729C18.7695 228.227 19.3109 226.704 19.8523 225.202C19.949 224.921 19.9876 224.621 20.123 224.341C20.2003 224.18 20.3743 224 20.5097 224C20.645 224 20.819 224.2 20.877 224.361C21.6118 226.404 22.3271 228.447 23.0619 230.49C23.2746 231.111 23.4872 231.752 23.6999 232.373C23.8739 232.934 24.164 233.334 24.7247 233.535C26.1168 234.035 27.5089 234.556 28.901 235.097C29.8871 235.478 30.8732 235.878 31.8786 236.259C32.1299 236.359 32.42 236.399 32.652 236.519C32.8067 236.599 33 236.76 33 236.9C33 237.02 32.8067 237.24 32.6713 237.28C30.2351 238.242 27.8183 239.143 25.4014 240.065C25.3047 240.105 25.1887 240.145 25.0727 240.165C24.2606 240.345 23.8353 240.846 23.5839 241.687C23.2746 242.769 22.8299 243.81 22.4625 244.872C22.1145 245.874 21.7471 246.855 21.3991 247.857C21.2057 248.418 21.0317 248.998 20.819 249.559C20.7997 249.68 20.645 249.8 20.4517 250Z" fill="#FFB9F8"/>
<circle cx="480" cy="79" r="8" fill="#FFD12D"/>
</svg>