<svg width="488" height="360" viewBox="0 0 488 360" fill="none" xmlns="http://www.w3.org/2000/svg">
<rect width="488" height="360" fill="white"/>
<circle cx="244" cy="180" r="101.5" stroke="#181818" stroke-width="3"/>
<path d="M473 226C473 230.418 469.418 234 465 234C460.582 234 457 230.418 457 226C457 221.582 460.582 218 465 218C469.418 218 473 221.582 473 226Z" fill="#FFD12D"/>
<path d="M42.4517 327C42.297 326.76 42.1616 326.619 42.1036 326.459C41.3689 324.416 40.6535 322.373 39.9381 320.33C39.7254 319.729 39.5128 319.108 39.3194 318.487C39.1454 317.946 38.8747 317.485 38.3333 317.285C37.4053 316.945 36.4965 316.604 35.5684 316.243C34.505 315.843 33.4609 315.422 32.4169 315.022C31.7788 314.781 31.1408 314.581 30.5027 314.32C30.3094 314.24 30.174 314.04 30 313.88C30.174 313.74 30.3094 313.519 30.5027 313.459C31.5661 313.039 32.6489 312.638 33.7123 312.237C34.6984 311.857 35.6651 311.496 36.6512 311.116C37.1926 310.915 37.734 310.715 38.2947 310.515C38.7587 310.334 39.0681 310.014 39.2421 309.533C39.5708 308.592 39.8995 307.65 40.2282 306.729C40.7695 305.227 41.3109 303.704 41.8523 302.202C41.949 301.921 41.9876 301.621 42.123 301.341C42.2003 301.18 42.3743 301 42.5097 301C42.645 301 42.819 301.2 42.877 301.361C43.6118 303.404 44.3271 305.447 45.0619 307.49C45.2746 308.111 45.4872 308.752 45.6999 309.373C45.8739 309.934 46.164 310.334 46.7247 310.535C48.1168 311.035 49.5089 311.556 50.901 312.097C51.8871 312.478 52.8732 312.878 53.8786 313.259C54.1299 313.359 54.42 313.399 54.652 313.519C54.8067 313.599 55 313.76 55 313.9C55 314.02 54.8067 314.24 54.6713 314.28C52.2351 315.242 49.8183 316.143 47.4014 317.065C47.3047 317.105 47.1887 317.145 47.0727 317.165C46.2606 317.345 45.8353 317.846 45.5839 318.687C45.2746 319.769 44.8299 320.81 44.4625 321.872C44.1145 322.874 43.7471 323.855 43.3991 324.857C43.2057 325.418 43.0317 325.998 42.819 326.559C42.7997 326.68 42.645 326.8 42.4517 327Z" fill="#FFB9F8"/>
<path d="M160 72C160 76.4183 156.418 80 152 80C147.582 80 144 76.4183 144 72C144 67.5817 147.582 64 152 64C156.418 64 160 67.5817 160 72Z" fill="#93E6CF"/>
<path d="M119.351 29.0344C75.776 64.9126 48 119.219 48 180C48 240.781 75.776 295.087 119.351 330.966M368.607 29C412.206 64.8779 440 119.2 440 180C440 240.8 412.206 295.122 368.607 331" stroke="#181818" stroke-width="3" stroke-linecap="round"/>
<path d="M244.004 142.036C221.377 142.032 203.031 160.154 203.027 182.513C203.024 197.119 210.982 210.593 223.852 217.774C224.245 217.998 224.714 218.056 225.15 217.933C225.584 217.813 225.952 217.53 226.175 217.143L238.812 195.073C239.276 194.262 238.987 193.234 238.167 192.775C232.41 189.58 230.365 182.378 233.598 176.69C236.831 171.002 244.119 168.981 249.875 172.176C255.632 175.371 257.677 182.572 254.444 188.26C253.369 190.151 251.788 191.713 249.875 192.775C249.055 193.234 248.766 194.262 249.23 195.073L261.833 217.143C262.055 217.531 262.424 217.816 262.858 217.936C263.006 217.979 263.16 218.001 263.315 218.001C263.61 218 263.899 217.925 264.156 217.781C283.862 206.794 290.824 182.101 279.706 162.627C272.439 149.899 258.793 142.029 244.004 142.036Z" fill="#5CA348"/>
<path d="M263.322 217.997C263.167 217.997 263.013 217.975 262.864 217.932C262.43 217.812 262.062 217.527 261.839 217.139L249.202 195.069C248.737 194.259 249.025 193.229 249.845 192.769C249.846 192.768 249.847 192.768 249.848 192.767C255.604 189.573 257.651 182.372 254.419 176.684C251.187 170.995 243.9 168.972 238.143 172.166C232.386 175.36 230.339 182.561 233.571 188.25C234.646 190.142 236.228 191.705 238.143 192.767C238.964 193.226 239.253 194.255 238.79 195.067C238.789 195.068 238.789 195.068 238.788 195.069L226.171 217.143C225.706 217.953 224.664 218.238 223.843 217.778C223.843 217.778 223.842 217.778 223.842 217.777C204.131 206.779 197.174 182.074 208.303 162.595C219.433 143.117 244.434 136.243 264.145 147.241C283.856 158.239 290.813 182.944 279.684 202.422C276.015 208.843 270.643 214.152 264.145 217.777C263.894 217.918 263.611 217.993 263.322 217.997ZM252.976 194.796L263.947 213.977C281.532 203.092 286.857 180.181 275.842 162.804C264.827 145.428 241.642 140.165 224.057 151.05C206.472 161.935 201.147 184.846 212.162 202.223C215.177 206.979 219.244 210.997 224.057 213.977L235.028 194.796C228.136 189.899 226.566 180.408 231.521 173.598C236.477 166.787 246.081 165.236 252.973 170.133C259.865 175.03 261.435 184.52 256.479 191.331C255.508 192.666 254.324 193.836 252.973 194.796H252.976Z" fill="#2C5124"/>
</svg>
