<svg width="481" height="316" viewBox="0 0 481 316" fill="none" xmlns="http://www.w3.org/2000/svg">
<g clip-path="url(#clip0)">
<path d="M244.277 22.2148H42.2469C33.6115 22.2123 25.3284 25.6382 19.2177 31.7398C13.1071 37.8414 9.66887 46.1194 9.65863 54.7548V334.981H18.8633V52.8231C18.8658 50.0085 19.4227 47.222 20.5022 44.6227C21.5816 42.0233 23.1624 39.662 25.1544 37.6736C27.1464 35.6852 29.5105 34.1087 32.1118 33.0339C34.7131 31.9592 37.5006 31.4073 40.3151 31.4099H71.2228C72.1109 31.4124 72.9619 31.7663 73.5899 32.3943C74.2178 33.0223 74.5718 33.8733 74.5743 34.7614V46.2552C74.5794 50.4205 76.237 54.4136 79.1833 57.358C82.1295 60.3024 86.1236 61.9576 90.2889 61.9601H195.413C199.579 61.9576 203.573 60.3024 206.519 57.358C209.465 54.4136 211.123 50.4205 211.128 46.2552V34.7614C211.128 33.8742 211.48 33.0232 212.106 32.3949C212.733 31.7667 213.583 31.4124 214.47 31.4099H246.208C251.885 31.4175 257.327 33.676 261.341 37.6901C265.355 41.7042 267.614 47.1463 267.621 52.8231V334.981H276.816V54.7548C276.809 46.127 273.378 37.8548 267.277 31.754C261.176 25.6533 252.904 22.2225 244.277 22.2148ZM169.113 46.7285H117.362C115.523 46.6606 113.783 45.8825 112.506 44.5577C111.229 43.2329 110.515 41.4645 110.515 39.6245C110.515 37.7845 111.229 36.0162 112.506 34.6914C113.783 33.3665 115.523 32.5884 117.362 32.5206H169.113C170.068 32.4854 171.02 32.6431 171.913 32.9842C172.805 33.3254 173.62 33.843 174.308 34.5061C174.996 35.1692 175.544 35.9643 175.917 36.8437C176.291 37.7232 176.484 38.6689 176.484 39.6245C176.484 40.5801 176.291 41.5259 175.917 42.4053C175.544 43.2848 174.996 44.0798 174.308 44.743C173.62 45.4061 172.805 45.9237 171.913 46.2649C171.02 46.606 170.068 46.7637 169.113 46.7285Z" fill="white"/>
<path d="M9.65864 54.7548C9.66888 46.1194 13.1071 37.8414 19.2177 31.7398C25.3284 25.6382 33.6115 22.2123 42.2469 22.2149H244.277C252.904 22.2225 261.176 25.6533 267.277 31.7541C273.378 37.8548 276.809 46.127 276.816 54.7548V334.981H279.714V54.7548C279.704 45.3593 275.967 36.3516 269.323 29.708C262.68 23.0644 253.672 19.3275 244.277 19.3173H42.2469C32.843 19.3147 23.8229 23.0459 17.1688 29.6909C10.5148 36.3359 6.77129 45.3509 6.76105 54.7548V334.981H9.65864V54.7548Z" fill="#181818"/>
<path d="M246.208 34.3075H214.47C214.351 34.31 214.238 34.359 214.155 34.4438C214.072 34.5287 214.025 34.6427 214.025 34.7615V46.2552C214.02 51.189 212.057 55.9191 208.568 59.407C205.078 62.8948 200.347 64.8552 195.413 64.8578H90.3177C85.3839 64.8552 80.6527 62.8948 77.1631 59.407C73.6735 55.9191 71.7106 51.189 71.7055 46.2552V34.7615C71.7055 34.6411 71.6577 34.5256 71.5725 34.4405C71.4874 34.3553 71.3719 34.3075 71.2515 34.3075H40.3149C37.8809 34.305 35.4702 34.7819 33.2204 35.711C30.9707 36.6401 28.926 38.0033 27.2031 39.7226C25.4802 41.4419 24.1128 43.4838 23.179 45.7316C22.2451 47.9794 21.7632 50.3891 21.7607 52.8231V334.981H264.724V52.8231C264.719 47.914 262.766 43.2075 259.295 39.7362C255.824 36.265 251.117 34.3126 246.208 34.3075Z" fill="#F8FBFF"/>
<path d="M246.382 31.4099H214.644C213.757 31.4124 212.907 31.7667 212.28 32.3949C211.654 33.0232 211.302 33.8742 211.302 34.7614V46.2552C211.297 50.4205 209.639 54.4136 206.693 57.358C203.747 60.3024 199.753 61.9576 195.587 61.9601H90.4917C86.3264 61.9576 82.3323 60.3024 79.386 57.358C76.4398 54.4136 74.7822 50.4205 74.7771 46.2552V34.7614C74.7758 34.3192 74.6873 33.8816 74.5166 33.4736C74.3459 33.0657 74.0964 32.6954 73.7824 32.3841C73.4683 32.0727 73.0959 31.8264 72.6865 31.6593C72.2771 31.4921 71.8388 31.4073 71.3966 31.4099H40.4889C37.6744 31.4073 34.8869 31.9592 32.2856 33.0339C29.6843 34.1087 27.3202 35.6853 25.3282 37.6737C23.3362 39.662 21.7554 42.0233 20.6759 44.6227C19.5965 47.222 19.0396 50.0085 19.0371 52.8231V334.981H21.9347V52.8231C21.9372 50.389 22.4192 47.9793 23.353 45.7315C24.2868 43.4837 25.6542 41.4419 27.3771 39.7226C29.1 38.0032 31.1447 36.6401 33.3945 35.711C35.6442 34.7818 38.0549 34.3049 40.4889 34.3075H71.3966C71.517 34.3075 71.6324 34.3553 71.7176 34.4404C71.8027 34.5256 71.8505 34.641 71.8505 34.7614V46.2552C71.8556 51.189 73.8185 55.9191 77.3081 59.4069C80.7978 62.8948 85.5289 64.8552 90.4627 64.8577H195.587C200.521 64.8552 205.252 62.8948 208.742 59.4069C212.231 55.9191 214.194 51.189 214.199 46.2552V34.7614C214.199 34.6427 214.246 34.5287 214.329 34.4438C214.412 34.3589 214.525 34.31 214.644 34.3075H246.382C251.291 34.3126 255.998 36.265 259.469 39.7362C262.94 43.2074 264.893 47.914 264.898 52.8231V334.981H267.795V52.8231C267.788 47.1463 265.529 41.7042 261.515 37.6901C257.501 33.676 252.059 31.4175 246.382 31.4099Z" fill="#181818"/>
<path d="M169.113 35.4182H117.362C116.281 35.47 115.262 35.9358 114.516 36.719C113.769 37.5021 113.353 38.5426 113.353 39.6246C113.353 40.7065 113.769 41.747 114.516 42.5301C115.262 43.3133 116.281 43.7791 117.362 43.8309H169.113C169.683 43.8582 170.251 43.7696 170.786 43.5705C171.32 43.3715 171.808 43.066 172.22 42.6727C172.633 42.2795 172.961 41.8065 173.186 41.2826C173.41 40.7586 173.526 40.1946 173.526 39.6246C173.526 39.0546 173.41 38.4905 173.186 37.9665C172.961 37.4426 172.633 36.9696 172.22 36.5764C171.808 36.1831 171.32 35.8777 170.786 35.6786C170.251 35.4795 169.683 35.3909 169.113 35.4182Z" fill="#EDF3FF"/>
<path d="M169.113 32.5206H117.362C115.523 32.5884 113.783 33.3666 112.506 34.6914C111.229 36.0162 110.515 37.7846 110.515 39.6246C110.515 41.4646 111.229 43.2329 112.506 44.5577C113.783 45.8825 115.523 46.6607 117.362 46.7285H169.113C170.068 46.7637 171.02 46.606 171.913 46.2649C172.806 45.9237 173.62 45.4061 174.308 44.743C174.996 44.0799 175.544 43.2848 175.917 42.4054C176.291 41.5259 176.484 40.5802 176.484 39.6246C176.484 38.669 176.291 37.7232 175.917 36.8438C175.544 35.9643 174.996 35.1693 174.308 34.5061C173.62 33.843 172.806 33.3254 171.913 32.9842C171.02 32.6431 170.068 32.4854 169.113 32.5206ZM169.113 43.8309H117.362C116.281 43.7791 115.262 43.3133 114.516 42.5301C113.769 41.747 113.353 40.7065 113.353 39.6246C113.353 38.5426 113.769 37.5021 114.516 36.719C115.262 35.9358 116.281 35.47 117.362 35.4182H169.113C169.683 35.3909 170.251 35.4795 170.786 35.6786C171.32 35.8777 171.808 36.1831 172.22 36.5764C172.633 36.9696 172.961 37.4426 173.186 37.9666C173.41 38.4905 173.526 39.0546 173.526 39.6246C173.526 40.1946 173.41 40.7586 173.186 41.2826C172.961 41.8065 172.633 42.2795 172.22 42.6728C171.808 43.066 171.32 43.3715 170.786 43.5705C170.251 43.7696 169.683 43.8582 169.113 43.8309Z" fill="#181818"/>
<path d="M105.719 94.9659H181.281C185.565 94.9659 189.034 98.4305 189.034 102.7V143.3C189.034 147.569 185.565 151.034 181.281 151.034H105.719C101.435 151.034 97.9659 147.569 97.9659 143.3V102.7C97.9659 98.4305 101.435 94.9659 105.719 94.9659Z" fill="white" stroke="#181818" stroke-width="1.93173"/>
<path d="M190 105.597H97V117.194H190V105.597Z" fill="#181818"/>
<path d="M141.562 131.7H106.687C105.617 131.7 104.75 132.566 104.75 133.633C104.75 134.701 105.617 135.567 106.687 135.567H141.562C142.633 135.567 143.5 134.701 143.5 133.633C143.5 132.566 142.633 131.7 141.562 131.7Z" fill="#DFE5EB"/>
<path d="M180.312 131.7H168.688C167.617 131.7 166.75 132.566 166.75 133.633C166.75 134.701 167.617 135.567 168.688 135.567H180.312C181.383 135.567 182.25 134.701 182.25 133.633C182.25 132.566 181.383 131.7 180.312 131.7Z" fill="#DFE5EB"/>
<path d="M141.562 139.433H106.687C105.617 139.433 104.75 140.299 104.75 141.367C104.75 142.434 105.617 143.3 106.687 143.3H141.562C142.633 143.3 143.5 142.434 143.5 141.367C143.5 140.299 142.633 139.433 141.562 139.433Z" fill="#DFE5EB"/>
<path d="M127.523 183.625V191.117C127.523 192.362 127.133 193.346 126.352 194.07C125.576 194.794 124.513 195.156 123.164 195.156C121.836 195.156 120.781 194.805 120 194.102C119.219 193.398 118.82 192.432 118.805 191.203V183.625H121.148V191.133C121.148 191.878 121.326 192.422 121.68 192.766C122.039 193.104 122.534 193.273 123.164 193.273C124.482 193.273 125.151 192.581 125.172 191.195V183.625H127.523ZM136.906 190.852C136.906 192.154 136.609 193.198 136.016 193.984C135.427 194.766 134.63 195.156 133.625 195.156C132.771 195.156 132.081 194.859 131.555 194.266V198.25H129.297V186.547H131.391L131.469 187.375C132.016 186.719 132.729 186.391 133.609 186.391C134.651 186.391 135.461 186.776 136.039 187.547C136.617 188.318 136.906 189.38 136.906 190.734V190.852ZM134.648 190.688C134.648 189.901 134.508 189.294 134.227 188.867C133.951 188.44 133.547 188.227 133.016 188.227C132.307 188.227 131.82 188.497 131.555 189.039V192.5C131.831 193.057 132.323 193.336 133.031 193.336C134.109 193.336 134.648 192.453 134.648 190.688ZM137.961 190.711C137.961 189.393 138.255 188.344 138.844 187.562C139.438 186.781 140.247 186.391 141.273 186.391C142.096 186.391 142.776 186.698 143.312 187.312V183H145.578V195H143.539L143.43 194.102C142.867 194.805 142.143 195.156 141.258 195.156C140.263 195.156 139.464 194.766 138.859 193.984C138.26 193.198 137.961 192.107 137.961 190.711ZM140.219 190.875C140.219 191.667 140.357 192.273 140.633 192.695C140.909 193.117 141.31 193.328 141.836 193.328C142.534 193.328 143.026 193.034 143.312 192.445V189.109C143.031 188.521 142.544 188.227 141.852 188.227C140.763 188.227 140.219 189.109 140.219 190.875ZM152.227 195C152.122 194.797 152.047 194.544 152 194.242C151.453 194.852 150.742 195.156 149.867 195.156C149.039 195.156 148.352 194.917 147.805 194.438C147.263 193.958 146.992 193.354 146.992 192.625C146.992 191.729 147.323 191.042 147.984 190.562C148.651 190.083 149.612 189.841 150.867 189.836H151.906V189.352C151.906 188.961 151.805 188.648 151.602 188.414C151.404 188.18 151.089 188.062 150.656 188.062C150.276 188.062 149.977 188.154 149.758 188.336C149.544 188.518 149.438 188.768 149.438 189.086H147.18C147.18 188.596 147.331 188.143 147.633 187.727C147.935 187.31 148.362 186.984 148.914 186.75C149.466 186.51 150.086 186.391 150.773 186.391C151.815 186.391 152.641 186.654 153.25 187.18C153.865 187.701 154.172 188.435 154.172 189.383V193.047C154.177 193.849 154.289 194.456 154.508 194.867V195H152.227ZM150.359 193.43C150.693 193.43 151 193.357 151.281 193.211C151.562 193.06 151.771 192.859 151.906 192.609V191.156H151.062C149.932 191.156 149.331 191.547 149.258 192.328L149.25 192.461C149.25 192.742 149.349 192.974 149.547 193.156C149.745 193.339 150.016 193.43 150.359 193.43ZM158.609 184.469V186.547H160.055V188.203H158.609V192.422C158.609 192.734 158.669 192.958 158.789 193.094C158.909 193.229 159.138 193.297 159.477 193.297C159.727 193.297 159.948 193.279 160.141 193.242V194.953C159.698 195.089 159.242 195.156 158.773 195.156C157.19 195.156 156.383 194.357 156.352 192.758V188.203H155.117V186.547H156.352V184.469H158.609ZM165.203 195.156C163.964 195.156 162.953 194.776 162.172 194.016C161.396 193.255 161.008 192.242 161.008 190.977V190.758C161.008 189.909 161.172 189.151 161.5 188.484C161.828 187.812 162.292 187.297 162.891 186.938C163.495 186.573 164.182 186.391 164.953 186.391C166.109 186.391 167.018 186.755 167.68 187.484C168.346 188.214 168.68 189.247 168.68 190.586V191.508H163.297C163.37 192.06 163.589 192.503 163.953 192.836C164.323 193.169 164.789 193.336 165.352 193.336C166.221 193.336 166.901 193.021 167.391 192.391L168.5 193.633C168.161 194.112 167.703 194.487 167.125 194.758C166.547 195.023 165.906 195.156 165.203 195.156ZM164.945 188.219C164.497 188.219 164.133 188.37 163.852 188.672C163.576 188.974 163.398 189.406 163.32 189.969H166.461V189.789C166.451 189.289 166.315 188.904 166.055 188.633C165.794 188.357 165.424 188.219 164.945 188.219ZM104.789 209.852C104.789 211.154 104.492 212.198 103.898 212.984C103.31 213.766 102.513 214.156 101.508 214.156C100.654 214.156 99.9635 213.859 99.4375 213.266V217.25H97.1797V205.547H99.2734L99.3516 206.375C99.8984 205.719 100.612 205.391 101.492 205.391C102.534 205.391 103.344 205.776 103.922 206.547C104.5 207.318 104.789 208.38 104.789 209.734V209.852ZM102.531 209.688C102.531 208.901 102.391 208.294 102.109 207.867C101.833 207.44 101.43 207.227 100.898 207.227C100.19 207.227 99.7031 207.497 99.4375 208.039V211.5C99.7135 212.057 100.206 212.336 100.914 212.336C101.992 212.336 102.531 211.453 102.531 209.688ZM111.094 214C110.99 213.797 110.914 213.544 110.867 213.242C110.32 213.852 109.609 214.156 108.734 214.156C107.906 214.156 107.219 213.917 106.672 213.438C106.13 212.958 105.859 212.354 105.859 211.625C105.859 210.729 106.19 210.042 106.852 209.562C107.518 209.083 108.479 208.841 109.734 208.836H110.773V208.352C110.773 207.961 110.672 207.648 110.469 207.414C110.271 207.18 109.956 207.062 109.523 207.062C109.143 207.062 108.844 207.154 108.625 207.336C108.411 207.518 108.305 207.768 108.305 208.086H106.047C106.047 207.596 106.198 207.143 106.5 206.727C106.802 206.31 107.229 205.984 107.781 205.75C108.333 205.51 108.953 205.391 109.641 205.391C110.682 205.391 111.508 205.654 112.117 206.18C112.732 206.701 113.039 207.435 113.039 208.383V212.047C113.044 212.849 113.156 213.456 113.375 213.867V214H111.094ZM109.227 212.43C109.56 212.43 109.867 212.357 110.148 212.211C110.43 212.06 110.638 211.859 110.773 211.609V210.156H109.93C108.799 210.156 108.198 210.547 108.125 211.328L108.117 211.461C108.117 211.742 108.216 211.974 108.414 212.156C108.612 212.339 108.883 212.43 109.227 212.43ZM117.805 210.805L119.367 205.547H121.789L118.391 215.312L118.203 215.758C117.698 216.862 116.865 217.414 115.703 217.414C115.375 217.414 115.042 217.365 114.703 217.266V215.555L115.047 215.562C115.474 215.562 115.792 215.497 116 215.367C116.214 215.237 116.38 215.021 116.5 214.719L116.766 214.023L113.805 205.547H116.234L117.805 210.805ZM124.797 205.547L124.867 206.492C125.466 205.758 126.276 205.391 127.297 205.391C128.385 205.391 129.133 205.82 129.539 206.68C130.133 205.82 130.979 205.391 132.078 205.391C132.995 205.391 133.677 205.659 134.125 206.195C134.573 206.727 134.797 207.529 134.797 208.602V214H132.531V208.609C132.531 208.13 132.438 207.781 132.25 207.562C132.062 207.339 131.732 207.227 131.258 207.227C130.581 207.227 130.112 207.549 129.852 208.195L129.859 214H127.602V208.617C127.602 208.128 127.505 207.773 127.312 207.555C127.12 207.336 126.792 207.227 126.328 207.227C125.688 207.227 125.224 207.492 124.938 208.023V214H122.68V205.547H124.797ZM140.43 214.156C139.19 214.156 138.18 213.776 137.398 213.016C136.622 212.255 136.234 211.242 136.234 209.977V209.758C136.234 208.909 136.398 208.151 136.727 207.484C137.055 206.812 137.518 206.297 138.117 205.938C138.721 205.573 139.409 205.391 140.18 205.391C141.336 205.391 142.245 205.755 142.906 206.484C143.573 207.214 143.906 208.247 143.906 209.586V210.508H138.523C138.596 211.06 138.815 211.503 139.18 211.836C139.549 212.169 140.016 212.336 140.578 212.336C141.448 212.336 142.128 212.021 142.617 211.391L143.727 212.633C143.388 213.112 142.93 213.487 142.352 213.758C141.773 214.023 141.133 214.156 140.43 214.156ZM140.172 207.219C139.724 207.219 139.359 207.37 139.078 207.672C138.802 207.974 138.625 208.406 138.547 208.969H141.688V208.789C141.677 208.289 141.542 207.904 141.281 207.633C141.021 207.357 140.651 207.219 140.172 207.219ZM147.273 205.547L147.344 206.523C147.948 205.768 148.758 205.391 149.773 205.391C150.669 205.391 151.336 205.654 151.773 206.18C152.211 206.706 152.435 207.492 152.445 208.539V214H150.188V208.594C150.188 208.115 150.083 207.768 149.875 207.555C149.667 207.336 149.32 207.227 148.836 207.227C148.201 207.227 147.724 207.497 147.406 208.039V214H145.148V205.547H147.273ZM156.867 203.469V205.547H158.312V207.203H156.867V211.422C156.867 211.734 156.927 211.958 157.047 212.094C157.167 212.229 157.396 212.297 157.734 212.297C157.984 212.297 158.206 212.279 158.398 212.242V213.953C157.956 214.089 157.5 214.156 157.031 214.156C155.448 214.156 154.641 213.357 154.609 211.758V207.203H153.375V205.547H154.609V203.469H156.867ZM165.938 214H163.672V205.547H165.938V214ZM163.539 203.359C163.539 203.021 163.651 202.742 163.875 202.523C164.104 202.305 164.414 202.195 164.805 202.195C165.19 202.195 165.497 202.305 165.727 202.523C165.956 202.742 166.07 203.021 166.07 203.359C166.07 203.703 165.953 203.984 165.719 204.203C165.49 204.422 165.185 204.531 164.805 204.531C164.424 204.531 164.117 204.422 163.883 204.203C163.654 203.984 163.539 203.703 163.539 203.359ZM169.883 205.547L169.953 206.523C170.557 205.768 171.367 205.391 172.383 205.391C173.279 205.391 173.945 205.654 174.383 206.18C174.82 206.706 175.044 207.492 175.055 208.539V214H172.797V208.594C172.797 208.115 172.693 207.768 172.484 207.555C172.276 207.336 171.93 207.227 171.445 207.227C170.81 207.227 170.333 207.497 170.016 208.039V214H167.758V205.547H169.883ZM177.391 214V207.203H176.133V205.547H177.391V204.828C177.391 203.88 177.661 203.146 178.203 202.625C178.75 202.099 179.513 201.836 180.492 201.836C180.805 201.836 181.188 201.888 181.641 201.992L181.617 203.742C181.43 203.695 181.201 203.672 180.93 203.672C180.081 203.672 179.656 204.07 179.656 204.867V205.547H181.336V207.203H179.656V214H177.391ZM182.156 209.695C182.156 208.857 182.318 208.109 182.641 207.453C182.964 206.797 183.427 206.289 184.031 205.93C184.641 205.57 185.346 205.391 186.148 205.391C187.289 205.391 188.219 205.74 188.938 206.438C189.661 207.135 190.065 208.083 190.148 209.281L190.164 209.859C190.164 211.156 189.802 212.198 189.078 212.984C188.354 213.766 187.383 214.156 186.164 214.156C184.945 214.156 183.971 213.766 183.242 212.984C182.518 212.203 182.156 211.141 182.156 209.797V209.695ZM184.414 209.859C184.414 210.661 184.565 211.276 184.867 211.703C185.169 212.125 185.602 212.336 186.164 212.336C186.711 212.336 187.138 212.128 187.445 211.711C187.753 211.289 187.906 210.617 187.906 209.695C187.906 208.909 187.753 208.299 187.445 207.867C187.138 207.435 186.706 207.219 186.148 207.219C185.596 207.219 185.169 207.435 184.867 207.867C184.565 208.294 184.414 208.958 184.414 209.859Z" fill="#181818"/>
<rect x="94" y="244" width="97" height="34" rx="12" fill="#97ADC6"/>
<path d="M112.178 260.928C112.178 261.768 112.029 262.504 111.732 263.137C111.436 263.77 111.01 264.258 110.455 264.602C109.904 264.945 109.271 265.117 108.557 265.117C107.85 265.117 107.219 264.947 106.664 264.607C106.109 264.268 105.68 263.783 105.375 263.154C105.07 262.521 104.916 261.795 104.912 260.975V260.553C104.912 259.713 105.062 258.975 105.363 258.338C105.668 257.697 106.096 257.207 106.646 256.867C107.201 256.523 107.834 256.352 108.545 256.352C109.256 256.352 109.887 256.523 110.438 256.867C110.992 257.207 111.42 257.697 111.721 258.338C112.025 258.975 112.178 259.711 112.178 260.547V260.928ZM110.396 260.541C110.396 259.646 110.236 258.967 109.916 258.502C109.596 258.037 109.139 257.805 108.545 257.805C107.955 257.805 107.5 258.035 107.18 258.496C106.859 258.953 106.697 259.625 106.693 260.512V260.928C106.693 261.799 106.854 262.475 107.174 262.955C107.494 263.436 107.955 263.676 108.557 263.676C109.146 263.676 109.6 263.445 109.916 262.984C110.232 262.52 110.393 261.844 110.396 260.957V260.541ZM119.051 261.889C119.051 262.865 118.828 263.648 118.383 264.238C117.941 264.824 117.344 265.117 116.59 265.117C115.949 265.117 115.432 264.895 115.037 264.449V267.438H113.344V258.66H114.914L114.973 259.281C115.383 258.789 115.918 258.543 116.578 258.543C117.359 258.543 117.967 258.832 118.4 259.41C118.834 259.988 119.051 260.785 119.051 261.801V261.889ZM117.357 261.766C117.357 261.176 117.252 260.721 117.041 260.4C116.834 260.08 116.531 259.92 116.133 259.92C115.602 259.92 115.236 260.123 115.037 260.529V263.125C115.244 263.543 115.613 263.752 116.145 263.752C116.953 263.752 117.357 263.09 117.357 261.766ZM123.023 265.117C122.094 265.117 121.336 264.832 120.75 264.262C120.168 263.691 119.877 262.932 119.877 261.982V261.818C119.877 261.182 120 260.613 120.246 260.113C120.492 259.609 120.84 259.223 121.289 258.953C121.742 258.68 122.258 258.543 122.836 258.543C123.703 258.543 124.385 258.816 124.881 259.363C125.381 259.91 125.631 260.686 125.631 261.689V262.381H121.594C121.648 262.795 121.812 263.127 122.086 263.377C122.363 263.627 122.713 263.752 123.135 263.752C123.787 263.752 124.297 263.516 124.664 263.043L125.496 263.975C125.242 264.334 124.898 264.615 124.465 264.818C124.031 265.018 123.551 265.117 123.023 265.117ZM122.83 259.914C122.494 259.914 122.221 260.027 122.01 260.254C121.803 260.48 121.67 260.805 121.611 261.227H123.967V261.092C123.959 260.717 123.857 260.428 123.662 260.225C123.467 260.018 123.189 259.914 122.83 259.914ZM128.156 258.66L128.209 259.393C128.662 258.826 129.27 258.543 130.031 258.543C130.703 258.543 131.203 258.74 131.531 259.135C131.859 259.529 132.027 260.119 132.035 260.904V265H130.342V260.945C130.342 260.586 130.264 260.326 130.107 260.166C129.951 260.002 129.691 259.92 129.328 259.92C128.852 259.92 128.494 260.123 128.256 260.529V265H126.562V258.66H128.156ZM140.848 262.762C140.848 262.43 140.73 262.176 140.496 262C140.262 261.82 139.84 261.633 139.23 261.438C138.621 261.238 138.139 261.043 137.783 260.852C136.814 260.328 136.33 259.623 136.33 258.736C136.33 258.275 136.459 257.865 136.717 257.506C136.979 257.143 137.352 256.859 137.836 256.656C138.324 256.453 138.871 256.352 139.477 256.352C140.086 256.352 140.629 256.463 141.105 256.686C141.582 256.904 141.951 257.215 142.213 257.617C142.479 258.02 142.611 258.477 142.611 258.988H140.854C140.854 258.598 140.73 258.295 140.484 258.08C140.238 257.861 139.893 257.752 139.447 257.752C139.018 257.752 138.684 257.844 138.445 258.027C138.207 258.207 138.088 258.445 138.088 258.742C138.088 259.02 138.227 259.252 138.504 259.439C138.785 259.627 139.197 259.803 139.74 259.967C140.74 260.268 141.469 260.641 141.926 261.086C142.383 261.531 142.611 262.086 142.611 262.75C142.611 263.488 142.332 264.068 141.773 264.49C141.215 264.908 140.463 265.117 139.518 265.117C138.861 265.117 138.264 264.998 137.725 264.76C137.186 264.518 136.773 264.188 136.488 263.77C136.207 263.352 136.066 262.867 136.066 262.316H137.83C137.83 263.258 138.393 263.729 139.518 263.729C139.936 263.729 140.262 263.645 140.496 263.477C140.73 263.305 140.848 263.066 140.848 262.762ZM146.613 265.117C145.684 265.117 144.926 264.832 144.34 264.262C143.758 263.691 143.467 262.932 143.467 261.982V261.818C143.467 261.182 143.59 260.613 143.836 260.113C144.082 259.609 144.43 259.223 144.879 258.953C145.332 258.68 145.848 258.543 146.426 258.543C147.293 258.543 147.975 258.816 148.471 259.363C148.971 259.91 149.221 260.686 149.221 261.689V262.381H145.184C145.238 262.795 145.402 263.127 145.676 263.377C145.953 263.627 146.303 263.752 146.725 263.752C147.377 263.752 147.887 263.516 148.254 263.043L149.086 263.975C148.832 264.334 148.488 264.615 148.055 264.818C147.621 265.018 147.141 265.117 146.613 265.117ZM146.42 259.914C146.084 259.914 145.811 260.027 145.6 260.254C145.393 260.48 145.26 260.805 145.201 261.227H147.557V261.092C147.549 260.717 147.447 260.428 147.252 260.225C147.057 260.018 146.779 259.914 146.42 259.914ZM152.215 257.102V258.66H153.299V259.902H152.215V263.066C152.215 263.301 152.26 263.469 152.35 263.57C152.439 263.672 152.611 263.723 152.865 263.723C153.053 263.723 153.219 263.709 153.363 263.682V264.965C153.031 265.066 152.689 265.117 152.338 265.117C151.15 265.117 150.545 264.518 150.521 263.318V259.902H149.596V258.66H150.521V257.102H152.215ZM156.27 257.102V258.66H157.354V259.902H156.27V263.066C156.27 263.301 156.314 263.469 156.404 263.57C156.494 263.672 156.666 263.723 156.92 263.723C157.107 263.723 157.273 263.709 157.418 263.682V264.965C157.086 265.066 156.744 265.117 156.393 265.117C155.205 265.117 154.6 264.518 154.576 263.318V259.902H153.65V258.66H154.576V257.102H156.27ZM160.084 265H158.385V258.66H160.084V265ZM158.285 257.02C158.285 256.766 158.369 256.557 158.537 256.393C158.709 256.229 158.941 256.146 159.234 256.146C159.523 256.146 159.754 256.229 159.926 256.393C160.098 256.557 160.184 256.766 160.184 257.02C160.184 257.277 160.096 257.488 159.92 257.652C159.748 257.816 159.52 257.898 159.234 257.898C158.949 257.898 158.719 257.816 158.543 257.652C158.371 257.488 158.285 257.277 158.285 257.02ZM163.043 258.66L163.096 259.393C163.549 258.826 164.156 258.543 164.918 258.543C165.59 258.543 166.09 258.74 166.418 259.135C166.746 259.529 166.914 260.119 166.922 260.904V265H165.229V260.945C165.229 260.586 165.15 260.326 164.994 260.166C164.838 260.002 164.578 259.92 164.215 259.92C163.738 259.92 163.381 260.123 163.143 260.529V265H161.449V258.66H163.043ZM167.965 261.783C167.965 260.811 168.195 260.027 168.656 259.434C169.121 258.84 169.746 258.543 170.531 258.543C171.227 258.543 171.768 258.781 172.154 259.258L172.225 258.66H173.76V264.789C173.76 265.344 173.633 265.826 173.379 266.236C173.129 266.646 172.775 266.959 172.318 267.174C171.861 267.389 171.326 267.496 170.713 267.496C170.248 267.496 169.795 267.402 169.354 267.215C168.912 267.031 168.578 266.793 168.352 266.5L169.102 265.469C169.523 265.941 170.035 266.178 170.637 266.178C171.086 266.178 171.436 266.057 171.686 265.814C171.936 265.576 172.061 265.236 172.061 264.795V264.455C171.67 264.896 171.156 265.117 170.52 265.117C169.758 265.117 169.141 264.82 168.668 264.227C168.199 263.629 167.965 262.838 167.965 261.854V261.783ZM169.658 261.906C169.658 262.48 169.773 262.932 170.004 263.26C170.234 263.584 170.551 263.746 170.953 263.746C171.469 263.746 171.838 263.553 172.061 263.166V260.5C171.834 260.113 171.469 259.92 170.965 259.92C170.559 259.92 170.238 260.086 170.004 260.418C169.773 260.75 169.658 261.246 169.658 261.906ZM178.5 263.248C178.5 263.041 178.396 262.879 178.189 262.762C177.986 262.641 177.658 262.533 177.205 262.439C175.697 262.123 174.943 261.482 174.943 260.518C174.943 259.955 175.176 259.486 175.641 259.111C176.109 258.732 176.721 258.543 177.475 258.543C178.279 258.543 178.922 258.732 179.402 259.111C179.887 259.49 180.129 259.982 180.129 260.588H178.436C178.436 260.346 178.357 260.146 178.201 259.99C178.045 259.83 177.801 259.75 177.469 259.75C177.184 259.75 176.963 259.814 176.807 259.943C176.65 260.072 176.572 260.236 176.572 260.436C176.572 260.623 176.66 260.775 176.836 260.893C177.016 261.006 177.316 261.105 177.738 261.191C178.16 261.273 178.516 261.367 178.805 261.473C179.699 261.801 180.146 262.369 180.146 263.178C180.146 263.756 179.898 264.225 179.402 264.584C178.906 264.939 178.266 265.117 177.48 265.117C176.949 265.117 176.477 265.023 176.062 264.836C175.652 264.645 175.33 264.385 175.096 264.057C174.861 263.725 174.744 263.367 174.744 262.984H176.35C176.365 263.285 176.477 263.516 176.684 263.676C176.891 263.836 177.168 263.916 177.516 263.916C177.84 263.916 178.084 263.855 178.248 263.734C178.416 263.609 178.5 263.447 178.5 263.248Z" fill="white"/>
<path d="M439.101 2.89758H237.071C228.436 2.89502 220.153 6.32096 214.042 12.4226C207.931 18.5241 204.493 26.8022 204.483 35.4375V315.663H213.688V33.5058C213.69 30.6912 214.247 27.9047 215.326 25.3054C216.406 22.7061 217.987 20.3448 219.979 18.3564C221.971 16.368 224.335 14.7914 226.936 13.7167C229.537 12.6419 232.325 12.0901 235.139 12.0926H266.047C266.935 12.0952 267.786 12.4491 268.414 13.0771C269.042 13.705 269.396 14.556 269.399 15.4441V26.9379C269.404 31.1032 271.061 35.0963 274.008 38.0408C276.954 40.9852 280.948 42.6403 285.113 42.6429H390.238C394.403 42.6403 398.397 40.9852 401.343 38.0408C404.29 35.0963 405.947 31.1032 405.952 26.9379V15.4441C405.952 14.5569 406.304 13.7059 406.931 13.0777C407.557 12.4494 408.407 12.0952 409.294 12.0926H441.033C446.709 12.1003 452.151 14.3588 456.165 18.3729C460.18 22.3869 462.438 27.829 462.446 33.5058V315.663H471.641V35.4375C471.633 26.8097 468.202 18.5375 462.102 12.4368C456.001 6.33602 447.729 2.90526 439.101 2.89758ZM363.937 27.4112H312.186C310.348 27.3434 308.607 26.5653 307.33 25.2404C306.053 23.9156 305.34 22.1473 305.34 20.3073C305.34 18.4673 306.053 16.699 307.33 15.3741C308.607 14.0493 310.348 13.2712 312.186 13.2033H363.937C364.892 13.1681 365.844 13.3258 366.737 13.6669C367.63 14.0081 368.444 14.5257 369.132 15.1888C369.821 15.852 370.368 16.647 370.742 17.5265C371.115 18.4059 371.308 19.3517 371.308 20.3073C371.308 21.2629 371.115 22.2086 370.742 23.0881C370.368 23.9675 369.821 24.7626 369.132 25.4257C368.444 26.0888 367.63 26.6065 366.737 26.9476C365.844 27.2887 364.892 27.4464 363.937 27.4112Z" fill="white"/>
<path d="M204.763 35.4375C204.773 26.8022 208.212 18.5241 214.322 12.4226C220.433 6.32097 228.716 2.89503 237.351 2.89759H439.381C448.009 2.90526 456.281 6.33603 462.382 12.4368C468.482 18.5376 471.913 26.8098 471.921 35.4375V315.664H474.818V35.4375C474.808 26.0421 471.071 17.0343 464.428 10.3907C457.784 3.7471 448.776 0.0102277 439.381 1.32246e-06H237.351C227.947 -0.00256452 218.927 3.72866 212.273 10.3737C205.619 17.0186 201.876 26.0337 201.865 35.4375V315.664H204.763V35.4375Z" fill="#181818"/>
<path d="M441.312 14.9902H409.574C409.455 14.9927 409.342 15.0416 409.259 15.1265C409.176 15.2114 409.13 15.3254 409.13 15.4441V26.9379C409.125 31.8717 407.162 36.6018 403.672 40.0896C400.183 43.5775 395.452 45.5379 390.518 45.5404H285.422C280.488 45.5379 275.757 43.5775 272.268 40.0896C268.778 36.6018 266.815 31.8717 266.81 26.9379V15.4441C266.81 15.3237 266.762 15.2083 266.677 15.1231C266.592 15.038 266.476 14.9902 266.356 14.9902H235.419C232.985 14.9876 230.575 15.4646 228.325 16.3937C226.075 17.3228 224.03 18.6859 222.308 20.4053C220.585 22.1246 219.217 24.1665 218.283 26.4142C217.35 28.662 216.868 31.0717 216.865 33.5058V315.663H459.828V33.5058C459.823 28.5967 457.871 23.8902 454.399 20.4189C450.928 16.9477 446.222 14.9953 441.312 14.9902Z" fill="#F8FBFF"/>
<rect x="257" y="233" width="161" height="34" rx="12" fill="#97ADC6"/>
<path d="M272.625 252.242H269.543L268.957 254H267.088L270.264 245.469H271.893L275.086 254H273.217L272.625 252.242ZM270.018 250.818H272.15L271.078 247.625L270.018 250.818ZM275.508 250.783C275.508 249.795 275.729 249.008 276.17 248.422C276.615 247.836 277.223 247.543 277.992 247.543C278.609 247.543 279.119 247.773 279.521 248.234V245H281.221V254H279.691L279.609 253.326C279.188 253.854 278.645 254.117 277.98 254.117C277.234 254.117 276.635 253.824 276.182 253.238C275.732 252.648 275.508 251.83 275.508 250.783ZM277.201 250.906C277.201 251.5 277.305 251.955 277.512 252.271C277.719 252.588 278.02 252.746 278.414 252.746C278.938 252.746 279.307 252.525 279.521 252.084V249.582C279.311 249.141 278.945 248.92 278.426 248.92C277.609 248.92 277.201 249.582 277.201 250.906ZM282.27 250.783C282.27 249.795 282.49 249.008 282.932 248.422C283.377 247.836 283.984 247.543 284.754 247.543C285.371 247.543 285.881 247.773 286.283 248.234V245H287.982V254H286.453L286.371 253.326C285.949 253.854 285.406 254.117 284.742 254.117C283.996 254.117 283.396 253.824 282.943 253.238C282.494 252.648 282.27 251.83 282.27 250.783ZM283.963 250.906C283.963 251.5 284.066 251.955 284.273 252.271C284.48 252.588 284.781 252.746 285.176 252.746C285.699 252.746 286.068 252.525 286.283 252.084V249.582C286.072 249.141 285.707 248.92 285.188 248.92C284.371 248.92 283.963 249.582 283.963 250.906ZM297.211 252.242H294.129L293.543 254H291.674L294.85 245.469H296.479L299.672 254H297.803L297.211 252.242ZM294.604 250.818H296.736L295.664 247.625L294.604 250.818ZM305.783 250.889C305.783 251.865 305.561 252.648 305.115 253.238C304.674 253.824 304.076 254.117 303.322 254.117C302.682 254.117 302.164 253.895 301.77 253.449V256.438H300.076V247.66H301.646L301.705 248.281C302.115 247.789 302.65 247.543 303.311 247.543C304.092 247.543 304.699 247.832 305.133 248.41C305.566 248.988 305.783 249.785 305.783 250.801V250.889ZM304.09 250.766C304.09 250.176 303.984 249.721 303.773 249.4C303.566 249.08 303.264 248.92 302.865 248.92C302.334 248.92 301.969 249.123 301.77 249.529V252.125C301.977 252.543 302.346 252.752 302.877 252.752C303.686 252.752 304.09 252.09 304.09 250.766ZM312.545 250.889C312.545 251.865 312.322 252.648 311.877 253.238C311.436 253.824 310.838 254.117 310.084 254.117C309.443 254.117 308.926 253.895 308.531 253.449V256.438H306.838V247.66H308.408L308.467 248.281C308.877 247.789 309.412 247.543 310.072 247.543C310.854 247.543 311.461 247.832 311.895 248.41C312.328 248.988 312.545 249.785 312.545 250.801V250.889ZM310.852 250.766C310.852 250.176 310.746 249.721 310.535 249.4C310.328 249.08 310.025 248.92 309.627 248.92C309.096 248.92 308.73 249.123 308.531 249.529V252.125C308.738 252.543 309.107 252.752 309.639 252.752C310.447 252.752 310.852 252.09 310.852 250.766ZM318.457 250.994V254H316.699V245.469H320.027C320.668 245.469 321.23 245.586 321.715 245.82C322.203 246.055 322.578 246.389 322.84 246.822C323.102 247.252 323.232 247.742 323.232 248.293C323.232 249.129 322.945 249.789 322.371 250.273C321.801 250.754 321.01 250.994 319.998 250.994H318.457ZM318.457 249.57H320.027C320.492 249.57 320.846 249.461 321.088 249.242C321.334 249.023 321.457 248.711 321.457 248.305C321.457 247.887 321.334 247.549 321.088 247.291C320.842 247.033 320.502 246.9 320.068 246.893H318.457V249.57ZM327.938 254C327.859 253.848 327.803 253.658 327.768 253.432C327.357 253.889 326.824 254.117 326.168 254.117C325.547 254.117 325.031 253.938 324.621 253.578C324.215 253.219 324.012 252.766 324.012 252.219C324.012 251.547 324.26 251.031 324.756 250.672C325.256 250.312 325.977 250.131 326.918 250.127H327.697V249.764C327.697 249.471 327.621 249.236 327.469 249.061C327.32 248.885 327.084 248.797 326.76 248.797C326.475 248.797 326.25 248.865 326.086 249.002C325.926 249.139 325.846 249.326 325.846 249.564H324.152C324.152 249.197 324.266 248.857 324.492 248.545C324.719 248.232 325.039 247.988 325.453 247.812C325.867 247.633 326.332 247.543 326.848 247.543C327.629 247.543 328.248 247.74 328.705 248.135C329.166 248.525 329.396 249.076 329.396 249.787V252.535C329.4 253.137 329.484 253.592 329.648 253.9V254H327.938ZM326.537 252.822C326.787 252.822 327.018 252.768 327.229 252.658C327.439 252.545 327.596 252.395 327.697 252.207V251.117H327.064C326.217 251.117 325.766 251.41 325.711 251.996L325.705 252.096C325.705 252.307 325.779 252.48 325.928 252.617C326.076 252.754 326.279 252.822 326.537 252.822ZM332.971 251.604L334.143 247.66H335.959L333.41 254.984L333.27 255.318C332.891 256.146 332.266 256.561 331.395 256.561C331.148 256.561 330.898 256.523 330.645 256.449V255.166L330.902 255.172C331.223 255.172 331.461 255.123 331.617 255.025C331.777 254.928 331.902 254.766 331.992 254.539L332.191 254.018L329.971 247.66H331.793L332.971 251.604ZM338.215 247.66L338.268 248.369C338.717 247.818 339.324 247.543 340.09 247.543C340.906 247.543 341.467 247.865 341.771 248.51C342.217 247.865 342.852 247.543 343.676 247.543C344.363 247.543 344.875 247.744 345.211 248.146C345.547 248.545 345.715 249.146 345.715 249.951V254H344.016V249.957C344.016 249.598 343.945 249.336 343.805 249.172C343.664 249.004 343.416 248.92 343.061 248.92C342.553 248.92 342.201 249.162 342.006 249.646L342.012 254H340.318V249.963C340.318 249.596 340.246 249.33 340.102 249.166C339.957 249.002 339.711 248.92 339.363 248.92C338.883 248.92 338.535 249.119 338.32 249.518V254H336.627V247.66H338.215ZM349.939 254.117C349.01 254.117 348.252 253.832 347.666 253.262C347.084 252.691 346.793 251.932 346.793 250.982V250.818C346.793 250.182 346.916 249.613 347.162 249.113C347.408 248.609 347.756 248.223 348.205 247.953C348.658 247.68 349.174 247.543 349.752 247.543C350.619 247.543 351.301 247.816 351.797 248.363C352.297 248.91 352.547 249.686 352.547 250.689V251.381H348.51C348.564 251.795 348.729 252.127 349.002 252.377C349.279 252.627 349.629 252.752 350.051 252.752C350.703 252.752 351.213 252.516 351.58 252.043L352.412 252.975C352.158 253.334 351.814 253.615 351.381 253.818C350.947 254.018 350.467 254.117 349.939 254.117ZM349.746 248.914C349.41 248.914 349.137 249.027 348.926 249.254C348.719 249.48 348.586 249.805 348.527 250.227H350.883V250.092C350.875 249.717 350.773 249.428 350.578 249.225C350.383 249.018 350.105 248.914 349.746 248.914ZM355.072 247.66L355.125 248.393C355.578 247.826 356.186 247.543 356.947 247.543C357.619 247.543 358.119 247.74 358.447 248.135C358.775 248.529 358.943 249.119 358.951 249.904V254H357.258V249.945C357.258 249.586 357.18 249.326 357.023 249.166C356.867 249.002 356.607 248.92 356.244 248.92C355.768 248.92 355.41 249.123 355.172 249.529V254H353.479V247.66H355.072ZM362.268 246.102V247.66H363.352V248.902H362.268V252.066C362.268 252.301 362.312 252.469 362.402 252.57C362.492 252.672 362.664 252.723 362.918 252.723C363.105 252.723 363.271 252.709 363.416 252.682V253.965C363.084 254.066 362.742 254.117 362.391 254.117C361.203 254.117 360.598 253.518 360.574 252.318V248.902H359.648V247.66H360.574V246.102H362.268ZM369.691 245.469L371.883 251.656L374.062 245.469H376.371V254H374.607V251.668L374.783 247.643L372.48 254H371.273L368.977 247.648L369.152 251.668V254H367.395V245.469H369.691ZM380.713 254.117C379.783 254.117 379.025 253.832 378.439 253.262C377.857 252.691 377.566 251.932 377.566 250.982V250.818C377.566 250.182 377.689 249.613 377.936 249.113C378.182 248.609 378.529 248.223 378.979 247.953C379.432 247.68 379.947 247.543 380.525 247.543C381.393 247.543 382.074 247.816 382.57 248.363C383.07 248.91 383.32 249.686 383.32 250.689V251.381H379.283C379.338 251.795 379.502 252.127 379.775 252.377C380.053 252.627 380.402 252.752 380.824 252.752C381.477 252.752 381.986 252.516 382.354 252.043L383.186 252.975C382.932 253.334 382.588 253.615 382.154 253.818C381.721 254.018 381.24 254.117 380.713 254.117ZM380.52 248.914C380.184 248.914 379.91 249.027 379.699 249.254C379.492 249.48 379.359 249.805 379.301 250.227H381.656V250.092C381.648 249.717 381.547 249.428 381.352 249.225C381.156 249.018 380.879 248.914 380.52 248.914ZM386.314 246.102V247.66H387.398V248.902H386.314V252.066C386.314 252.301 386.359 252.469 386.449 252.57C386.539 252.672 386.711 252.723 386.965 252.723C387.152 252.723 387.318 252.709 387.463 252.682V253.965C387.131 254.066 386.789 254.117 386.438 254.117C385.25 254.117 384.645 253.518 384.621 252.318V248.902H383.695V247.66H384.621V246.102H386.314ZM389.994 248.352C390.443 247.812 391.008 247.543 391.688 247.543C393.062 247.543 393.76 248.342 393.779 249.939V254H392.086V249.986C392.086 249.623 392.008 249.355 391.852 249.184C391.695 249.008 391.436 248.92 391.072 248.92C390.576 248.92 390.217 249.111 389.994 249.494V254H388.301V245H389.994V248.352ZM394.793 250.771C394.793 250.143 394.914 249.582 395.156 249.09C395.398 248.598 395.746 248.217 396.199 247.947C396.656 247.678 397.186 247.543 397.787 247.543C398.643 247.543 399.34 247.805 399.879 248.328C400.422 248.852 400.725 249.562 400.787 250.461L400.799 250.895C400.799 251.867 400.527 252.648 399.984 253.238C399.441 253.824 398.713 254.117 397.799 254.117C396.885 254.117 396.154 253.824 395.607 253.238C395.064 252.652 394.793 251.855 394.793 250.848V250.771ZM396.486 250.895C396.486 251.496 396.6 251.957 396.826 252.277C397.053 252.594 397.377 252.752 397.799 252.752C398.209 252.752 398.529 252.596 398.76 252.283C398.99 251.967 399.105 251.463 399.105 250.771C399.105 250.182 398.99 249.725 398.76 249.4C398.529 249.076 398.205 248.914 397.787 248.914C397.373 248.914 397.053 249.076 396.826 249.4C396.6 249.721 396.486 250.219 396.486 250.895ZM401.578 250.783C401.578 249.795 401.799 249.008 402.24 248.422C402.686 247.836 403.293 247.543 404.062 247.543C404.68 247.543 405.189 247.773 405.592 248.234V245H407.291V254H405.762L405.68 253.326C405.258 253.854 404.715 254.117 404.051 254.117C403.305 254.117 402.705 253.824 402.252 253.238C401.803 252.648 401.578 251.83 401.578 250.783ZM403.271 250.906C403.271 251.5 403.375 251.955 403.582 252.271C403.789 252.588 404.09 252.746 404.484 252.746C405.008 252.746 405.377 252.525 405.592 252.084V249.582C405.381 249.141 405.016 248.92 404.496 248.92C403.68 248.92 403.271 249.582 403.271 250.906Z" fill="white"/>
<path d="M441.486 12.0926H409.748C408.861 12.0952 408.011 12.4494 407.385 13.0777C406.758 13.7059 406.406 14.5569 406.406 15.4442V26.9379C406.401 31.1032 404.744 35.0964 401.797 38.0408C398.851 40.9852 394.857 42.6403 390.692 42.6429H285.596C281.431 42.6403 277.437 40.9852 274.49 38.0408C271.544 35.0964 269.887 31.1032 269.882 26.9379V15.4442C269.88 15.0019 269.792 14.5643 269.621 14.1564C269.45 13.7484 269.201 13.3782 268.887 13.0668C268.573 12.7555 268.2 12.5092 267.791 12.342C267.382 12.1748 266.943 12.0901 266.501 12.0926H235.593C232.779 12.0901 229.991 12.6419 227.39 13.7167C224.789 14.7914 222.425 16.368 220.433 18.3564C218.441 20.3448 216.86 22.7061 215.78 25.3054C214.701 27.9048 214.144 30.6912 214.142 33.5058V315.663H217.039V33.5058C217.042 31.0718 217.524 28.6621 218.457 26.4143C219.391 24.1665 220.759 22.1246 222.482 20.4053C224.204 18.686 226.249 17.3228 228.499 16.3937C230.749 15.4646 233.159 14.9877 235.593 14.9902H266.501C266.621 14.9902 266.737 15.038 266.822 15.1232C266.907 15.2083 266.955 15.3238 266.955 15.4442V26.9379C266.96 31.8717 268.923 36.6019 272.413 40.0897C275.902 43.5775 280.633 45.5379 285.567 45.5405H390.692C395.626 45.5379 400.357 43.5775 403.846 40.0897C407.336 36.6019 409.299 31.8717 409.304 26.9379V15.4442C409.304 15.3254 409.35 15.2114 409.433 15.1265C409.516 15.0417 409.629 14.9927 409.748 14.9902H441.486C446.396 14.9953 451.102 16.9477 454.573 20.4189C458.045 23.8902 459.997 28.5967 460.002 33.5058V315.663H462.9V33.5058C462.892 27.829 460.634 22.387 456.619 18.3729C452.605 14.3588 447.163 12.1003 441.486 12.0926Z" fill="#181818"/>
<path d="M364.218 16.101H312.467C311.386 16.1528 310.367 16.6185 309.62 17.4017C308.874 18.1849 308.457 19.2253 308.457 20.3073C308.457 21.3893 308.874 22.4297 309.62 23.2129C310.367 23.996 311.386 24.4618 312.467 24.5136H364.218C364.787 24.5409 365.356 24.4523 365.89 24.2533C366.424 24.0542 366.912 23.7488 367.325 23.3555C367.737 22.9622 368.066 22.4893 368.29 21.9653C368.515 21.4414 368.63 20.8773 368.63 20.3073C368.63 19.7373 368.515 19.1732 368.29 18.6493C368.066 18.1253 367.737 17.6524 367.325 17.2591C366.912 16.8658 366.424 16.5604 365.89 16.3613C365.356 16.1622 364.787 16.0737 364.218 16.101Z" fill="#EDF3FF"/>
<path d="M364.218 13.2033H312.467C310.628 13.2712 308.887 14.0493 307.61 15.3741C306.333 16.699 305.62 18.4673 305.62 20.3073C305.62 22.1473 306.333 23.9156 307.61 25.2404C308.887 26.5653 310.628 27.3434 312.467 27.4112H364.218C365.173 27.4464 366.125 27.2887 367.017 26.9476C367.91 26.6065 368.725 26.0888 369.413 25.4257C370.101 24.7626 370.648 23.9675 371.022 23.0881C371.396 22.2086 371.588 21.2629 371.588 20.3073C371.588 19.3517 371.396 18.4059 371.022 17.5265C370.648 16.647 370.101 15.852 369.413 15.1888C368.725 14.5257 367.91 14.0081 367.017 13.6669C366.125 13.3258 365.173 13.1681 364.218 13.2033ZM364.218 24.5136H312.467C311.386 24.4618 310.367 23.996 309.62 23.2129C308.874 22.4297 308.457 21.3892 308.457 20.3073C308.457 19.2253 308.874 18.1849 309.62 17.4017C310.367 16.6185 311.386 16.1527 312.467 16.1009H364.218C364.787 16.0736 365.356 16.1622 365.89 16.3613C366.424 16.5604 366.912 16.8658 367.325 17.2591C367.737 17.6524 368.066 18.1253 368.29 18.6493C368.515 19.1732 368.63 19.7373 368.63 20.3073C368.63 20.8773 368.515 21.4413 368.29 21.9653C368.066 22.4892 367.737 22.9622 367.325 23.3555C366.912 23.7487 366.424 24.0542 365.89 24.2532C365.356 24.4523 364.787 24.5409 364.218 24.5136Z" fill="#181818"/>
<path d="M275.195 94.625L278.117 102.875L281.023 94.625H284.102V106H281.75V102.891L281.984 97.5234L278.914 106H277.305L274.242 97.5312L274.477 102.891V106H272.133V94.625H275.195ZM290.898 106C290.794 105.797 290.719 105.544 290.672 105.242C290.125 105.852 289.414 106.156 288.539 106.156C287.711 106.156 287.023 105.917 286.477 105.438C285.935 104.958 285.664 104.354 285.664 103.625C285.664 102.729 285.995 102.042 286.656 101.562C287.323 101.083 288.284 100.841 289.539 100.836H290.578V100.352C290.578 99.9609 290.477 99.6484 290.273 99.4141C290.076 99.1797 289.76 99.0625 289.328 99.0625C288.948 99.0625 288.648 99.1536 288.43 99.3359C288.216 99.5182 288.109 99.7682 288.109 100.086H285.852C285.852 99.5964 286.003 99.1432 286.305 98.7266C286.607 98.3099 287.034 97.9844 287.586 97.75C288.138 97.5104 288.758 97.3906 289.445 97.3906C290.487 97.3906 291.312 97.6536 291.922 98.1797C292.536 98.7005 292.844 99.4349 292.844 100.383V104.047C292.849 104.849 292.961 105.456 293.18 105.867V106H290.898ZM289.031 104.43C289.365 104.43 289.672 104.357 289.953 104.211C290.234 104.06 290.443 103.859 290.578 103.609V102.156H289.734C288.604 102.156 288.003 102.547 287.93 103.328L287.922 103.461C287.922 103.742 288.021 103.974 288.219 104.156C288.417 104.339 288.688 104.43 289.031 104.43ZM296.656 97.5469L296.727 98.5234C297.331 97.7682 298.141 97.3906 299.156 97.3906C300.052 97.3906 300.719 97.6536 301.156 98.1797C301.594 98.7057 301.818 99.4922 301.828 100.539V106H299.57V100.594C299.57 100.115 299.466 99.7682 299.258 99.5547C299.049 99.3359 298.703 99.2266 298.219 99.2266C297.583 99.2266 297.107 99.4974 296.789 100.039V106H294.531V97.5469H296.656ZM308.445 106C308.341 105.797 308.266 105.544 308.219 105.242C307.672 105.852 306.961 106.156 306.086 106.156C305.258 106.156 304.57 105.917 304.023 105.438C303.482 104.958 303.211 104.354 303.211 103.625C303.211 102.729 303.542 102.042 304.203 101.562C304.87 101.083 305.831 100.841 307.086 100.836H308.125V100.352C308.125 99.9609 308.023 99.6484 307.82 99.4141C307.622 99.1797 307.307 99.0625 306.875 99.0625C306.495 99.0625 306.195 99.1536 305.977 99.3359C305.763 99.5182 305.656 99.7682 305.656 100.086H303.398C303.398 99.5964 303.549 99.1432 303.852 98.7266C304.154 98.3099 304.581 97.9844 305.133 97.75C305.685 97.5104 306.305 97.3906 306.992 97.3906C308.034 97.3906 308.859 97.6536 309.469 98.1797C310.083 98.7005 310.391 99.4349 310.391 100.383V104.047C310.396 104.849 310.508 105.456 310.727 105.867V106H308.445ZM306.578 104.43C306.911 104.43 307.219 104.357 307.5 104.211C307.781 104.06 307.99 103.859 308.125 103.609V102.156H307.281C306.151 102.156 305.549 102.547 305.477 103.328L305.469 103.461C305.469 103.742 305.568 103.974 305.766 104.156C305.964 104.339 306.234 104.43 306.578 104.43ZM311.797 101.711C311.797 100.414 312.104 99.3698 312.719 98.5781C313.339 97.7865 314.172 97.3906 315.219 97.3906C316.146 97.3906 316.867 97.7083 317.383 98.3438L317.477 97.5469H319.523V105.719C319.523 106.458 319.354 107.102 319.016 107.648C318.682 108.195 318.211 108.612 317.602 108.898C316.992 109.185 316.279 109.328 315.461 109.328C314.841 109.328 314.237 109.203 313.648 108.953C313.06 108.708 312.615 108.391 312.312 108L313.312 106.625C313.875 107.255 314.557 107.57 315.359 107.57C315.958 107.57 316.424 107.409 316.758 107.086C317.091 106.768 317.258 106.315 317.258 105.727V105.273C316.737 105.862 316.052 106.156 315.203 106.156C314.188 106.156 313.365 105.76 312.734 104.969C312.109 104.172 311.797 103.117 311.797 101.805V101.711ZM314.055 101.875C314.055 102.641 314.208 103.242 314.516 103.68C314.823 104.112 315.245 104.328 315.781 104.328C316.469 104.328 316.961 104.07 317.258 103.555V100C316.956 99.4844 316.469 99.2266 315.797 99.2266C315.255 99.2266 314.828 99.4479 314.516 99.8906C314.208 100.333 314.055 100.995 314.055 101.875ZM325.156 106.156C323.917 106.156 322.906 105.776 322.125 105.016C321.349 104.255 320.961 103.242 320.961 101.977V101.758C320.961 100.909 321.125 100.151 321.453 99.4844C321.781 98.8125 322.245 98.2969 322.844 97.9375C323.448 97.5729 324.135 97.3906 324.906 97.3906C326.062 97.3906 326.971 97.7552 327.633 98.4844C328.299 99.2135 328.633 100.247 328.633 101.586V102.508H323.25C323.323 103.06 323.542 103.503 323.906 103.836C324.276 104.169 324.742 104.336 325.305 104.336C326.174 104.336 326.854 104.021 327.344 103.391L328.453 104.633C328.115 105.112 327.656 105.487 327.078 105.758C326.5 106.023 325.859 106.156 325.156 106.156ZM324.898 99.2188C324.451 99.2188 324.086 99.3698 323.805 99.6719C323.529 99.974 323.352 100.406 323.273 100.969H326.414V100.789C326.404 100.289 326.268 99.9036 326.008 99.6328C325.747 99.3568 325.378 99.2188 324.898 99.2188ZM336.398 101.992V106H334.055V94.625H338.492C339.346 94.625 340.096 94.7812 340.742 95.0938C341.393 95.4062 341.893 95.8516 342.242 96.4297C342.591 97.0026 342.766 97.6562 342.766 98.3906C342.766 99.5052 342.383 100.385 341.617 101.031C340.857 101.672 339.802 101.992 338.453 101.992H336.398ZM336.398 100.094H338.492C339.112 100.094 339.583 99.9479 339.906 99.6562C340.234 99.3646 340.398 98.9479 340.398 98.4062C340.398 97.849 340.234 97.3984 339.906 97.0547C339.578 96.7109 339.125 96.5339 338.547 96.5234H336.398V100.094ZM349.039 106C348.935 105.797 348.859 105.544 348.812 105.242C348.266 105.852 347.555 106.156 346.68 106.156C345.852 106.156 345.164 105.917 344.617 105.438C344.076 104.958 343.805 104.354 343.805 103.625C343.805 102.729 344.135 102.042 344.797 101.562C345.464 101.083 346.424 100.841 347.68 100.836H348.719V100.352C348.719 99.9609 348.617 99.6484 348.414 99.4141C348.216 99.1797 347.901 99.0625 347.469 99.0625C347.089 99.0625 346.789 99.1536 346.57 99.3359C346.357 99.5182 346.25 99.7682 346.25 100.086H343.992C343.992 99.5964 344.143 99.1432 344.445 98.7266C344.747 98.3099 345.174 97.9844 345.727 97.75C346.279 97.5104 346.898 97.3906 347.586 97.3906C348.628 97.3906 349.453 97.6536 350.062 98.1797C350.677 98.7005 350.984 99.4349 350.984 100.383V104.047C350.99 104.849 351.102 105.456 351.32 105.867V106H349.039ZM347.172 104.43C347.505 104.43 347.812 104.357 348.094 104.211C348.375 104.06 348.583 103.859 348.719 103.609V102.156H347.875C346.745 102.156 346.143 102.547 346.07 103.328L346.062 103.461C346.062 103.742 346.161 103.974 346.359 104.156C346.557 104.339 346.828 104.43 347.172 104.43ZM355.75 102.805L357.312 97.5469H359.734L356.336 107.312L356.148 107.758C355.643 108.862 354.81 109.414 353.648 109.414C353.32 109.414 352.987 109.365 352.648 109.266V107.555L352.992 107.562C353.419 107.562 353.737 107.497 353.945 107.367C354.159 107.237 354.326 107.021 354.445 106.719L354.711 106.023L351.75 97.5469H354.18L355.75 102.805ZM362.742 97.5469L362.812 98.4922C363.411 97.7578 364.221 97.3906 365.242 97.3906C366.331 97.3906 367.078 97.8203 367.484 98.6797C368.078 97.8203 368.924 97.3906 370.023 97.3906C370.94 97.3906 371.622 97.6589 372.07 98.1953C372.518 98.7266 372.742 99.5286 372.742 100.602V106H370.477V100.609C370.477 100.13 370.383 99.7812 370.195 99.5625C370.008 99.3385 369.677 99.2266 369.203 99.2266C368.526 99.2266 368.057 99.5495 367.797 100.195L367.805 106H365.547V100.617C365.547 100.128 365.451 99.7734 365.258 99.5547C365.065 99.3359 364.737 99.2266 364.273 99.2266C363.633 99.2266 363.169 99.4922 362.883 100.023V106H360.625V97.5469H362.742ZM378.375 106.156C377.135 106.156 376.125 105.776 375.344 105.016C374.568 104.255 374.18 103.242 374.18 101.977V101.758C374.18 100.909 374.344 100.151 374.672 99.4844C375 98.8125 375.464 98.2969 376.062 97.9375C376.667 97.5729 377.354 97.3906 378.125 97.3906C379.281 97.3906 380.19 97.7552 380.852 98.4844C381.518 99.2135 381.852 100.247 381.852 101.586V102.508H376.469C376.542 103.06 376.76 103.503 377.125 103.836C377.495 104.169 377.961 104.336 378.523 104.336C379.393 104.336 380.073 104.021 380.562 103.391L381.672 104.633C381.333 105.112 380.875 105.487 380.297 105.758C379.719 106.023 379.078 106.156 378.375 106.156ZM378.117 99.2188C377.669 99.2188 377.305 99.3698 377.023 99.6719C376.747 99.974 376.57 100.406 376.492 100.969H379.633V100.789C379.622 100.289 379.487 99.9036 379.227 99.6328C378.966 99.3568 378.596 99.2188 378.117 99.2188ZM385.219 97.5469L385.289 98.5234C385.893 97.7682 386.703 97.3906 387.719 97.3906C388.615 97.3906 389.281 97.6536 389.719 98.1797C390.156 98.7057 390.38 99.4922 390.391 100.539V106H388.133V100.594C388.133 100.115 388.029 99.7682 387.82 99.5547C387.612 99.3359 387.266 99.2266 386.781 99.2266C386.146 99.2266 385.669 99.4974 385.352 100.039V106H383.094V97.5469H385.219ZM394.812 95.4688V97.5469H396.258V99.2031H394.812V103.422C394.812 103.734 394.872 103.958 394.992 104.094C395.112 104.229 395.341 104.297 395.68 104.297C395.93 104.297 396.151 104.279 396.344 104.242V105.953C395.901 106.089 395.445 106.156 394.977 106.156C393.393 106.156 392.586 105.357 392.555 103.758V99.2031H391.32V97.5469H392.555V95.4688H394.812ZM402.094 103.664C402.094 103.388 401.956 103.172 401.68 103.016C401.409 102.854 400.971 102.711 400.367 102.586C398.357 102.164 397.352 101.31 397.352 100.023C397.352 99.2734 397.661 98.6484 398.281 98.1484C398.906 97.6432 399.721 97.3906 400.727 97.3906C401.799 97.3906 402.656 97.6432 403.297 98.1484C403.943 98.6536 404.266 99.3099 404.266 100.117H402.008C402.008 99.7943 401.904 99.5286 401.695 99.3203C401.487 99.1068 401.161 99 400.719 99C400.339 99 400.044 99.0859 399.836 99.2578C399.628 99.4297 399.523 99.6484 399.523 99.9141C399.523 100.164 399.641 100.367 399.875 100.523C400.115 100.674 400.516 100.807 401.078 100.922C401.641 101.031 402.115 101.156 402.5 101.297C403.693 101.734 404.289 102.492 404.289 103.57C404.289 104.341 403.958 104.966 403.297 105.445C402.635 105.919 401.781 106.156 400.734 106.156C400.026 106.156 399.396 106.031 398.844 105.781C398.297 105.526 397.867 105.18 397.555 104.742C397.242 104.299 397.086 103.823 397.086 103.312H399.227C399.247 103.714 399.396 104.021 399.672 104.234C399.948 104.448 400.318 104.555 400.781 104.555C401.214 104.555 401.539 104.474 401.758 104.312C401.982 104.146 402.094 103.93 402.094 103.664Z" fill="#181818"/>
<path d="M281.5 156.966H320.5C322.452 156.966 324.034 158.548 324.034 160.5V181.5C324.034 183.452 322.452 185.034 320.5 185.034H281.5C279.548 185.034 277.966 183.452 277.966 181.5V160.5C277.966 158.548 279.548 156.966 281.5 156.966Z" fill="white" stroke="#181818" stroke-width="1.93173"/>
<path d="M325 161.998H277V167.997H325V161.998Z" fill="#181818"/>
<path d="M300 175.5H282C281.448 175.5 281 175.948 281 176.5C281 177.052 281.448 177.5 282 177.5H300C300.552 177.5 301 177.052 301 176.5C301 175.948 300.552 175.5 300 175.5Z" fill="#DFE5EB"/>
<path d="M320 175.5H314C313.448 175.5 313 175.948 313 176.5C313 177.052 313.448 177.5 314 177.5H320C320.552 177.5 321 177.052 321 176.5C321 175.948 320.552 175.5 320 175.5Z" fill="#DFE5EB"/>
<path d="M300 179.5H282C281.448 179.5 281 179.948 281 180.5C281 181.052 281.448 181.5 282 181.5H300C300.552 181.5 301 181.052 301 180.5C301 179.948 300.552 179.5 300 179.5Z" fill="#DFE5EB"/>
<path d="M339.566 164.532L341.822 157.047H344.105L340.64 167H338.5L335.048 157.047H337.324L339.566 164.532ZM347.004 167H345.021V159.604H347.004V167ZM344.905 157.689C344.905 157.393 345.003 157.149 345.199 156.958C345.4 156.767 345.671 156.671 346.013 156.671C346.35 156.671 346.619 156.767 346.819 156.958C347.02 157.149 347.12 157.393 347.12 157.689C347.12 157.99 347.018 158.236 346.812 158.428C346.612 158.619 346.345 158.715 346.013 158.715C345.68 158.715 345.411 158.619 345.206 158.428C345.006 158.236 344.905 157.99 344.905 157.689ZM352.644 164.956C352.644 164.715 352.523 164.525 352.281 164.389C352.044 164.247 351.661 164.122 351.133 164.013C349.374 163.644 348.494 162.896 348.494 161.771C348.494 161.114 348.765 160.567 349.308 160.13C349.854 159.688 350.568 159.467 351.447 159.467C352.386 159.467 353.136 159.688 353.696 160.13C354.261 160.572 354.544 161.146 354.544 161.853H352.568C352.568 161.57 352.477 161.338 352.295 161.155C352.113 160.968 351.828 160.875 351.44 160.875C351.108 160.875 350.85 160.95 350.668 161.101C350.486 161.251 350.395 161.442 350.395 161.675C350.395 161.894 350.497 162.071 350.702 162.208C350.912 162.34 351.263 162.456 351.755 162.557C352.247 162.652 352.662 162.762 352.999 162.885C354.043 163.268 354.564 163.931 354.564 164.874C354.564 165.549 354.275 166.095 353.696 166.515C353.118 166.929 352.37 167.137 351.454 167.137C350.834 167.137 350.283 167.027 349.8 166.809C349.321 166.585 348.945 166.282 348.672 165.899C348.398 165.512 348.262 165.095 348.262 164.648H350.135C350.153 164.999 350.283 165.268 350.524 165.455C350.766 165.642 351.09 165.735 351.495 165.735C351.873 165.735 352.158 165.665 352.35 165.523C352.546 165.378 352.644 165.188 352.644 164.956ZM360.129 167C360.038 166.822 359.972 166.601 359.931 166.337C359.452 166.87 358.83 167.137 358.064 167.137C357.34 167.137 356.738 166.927 356.26 166.508C355.786 166.089 355.549 165.56 355.549 164.922C355.549 164.138 355.838 163.536 356.417 163.117C357 162.698 357.841 162.486 358.939 162.481H359.849V162.058C359.849 161.716 359.76 161.442 359.582 161.237C359.409 161.032 359.133 160.93 358.755 160.93C358.422 160.93 358.16 161.009 357.969 161.169C357.782 161.328 357.688 161.547 357.688 161.825H355.713C355.713 161.397 355.845 161 356.109 160.636C356.374 160.271 356.747 159.986 357.23 159.781C357.714 159.572 358.256 159.467 358.857 159.467C359.769 159.467 360.491 159.697 361.024 160.157C361.562 160.613 361.831 161.256 361.831 162.085V165.291C361.836 165.993 361.934 166.524 362.125 166.884V167H360.129ZM358.495 165.626C358.787 165.626 359.056 165.562 359.302 165.435C359.548 165.302 359.73 165.127 359.849 164.908V163.637H359.11C358.121 163.637 357.595 163.979 357.531 164.662L357.524 164.778C357.524 165.024 357.611 165.227 357.784 165.387C357.957 165.546 358.194 165.626 358.495 165.626Z" fill="#181818"/>
<path d="M373.068 180.755C373.068 182.236 372.815 183.337 372.31 184.057C371.804 184.777 371.013 185.137 369.938 185.137C368.876 185.137 368.09 184.786 367.579 184.084C367.069 183.378 366.804 182.325 366.786 180.926V179.237C366.786 177.774 367.039 176.688 367.545 175.977C368.051 175.266 368.844 174.91 369.924 174.91C370.995 174.91 371.783 175.254 372.289 175.942C372.795 176.626 373.055 177.683 373.068 179.114V180.755ZM371.804 179.025C371.804 177.954 371.653 177.175 371.353 176.688C371.052 176.195 370.576 175.949 369.924 175.949C369.277 175.949 368.805 176.193 368.509 176.681C368.213 177.168 368.06 177.918 368.051 178.93V180.953C368.051 182.029 368.206 182.824 368.516 183.339C368.83 183.849 369.304 184.104 369.938 184.104C370.562 184.104 371.024 183.863 371.325 183.38C371.631 182.897 371.79 182.136 371.804 181.097V179.025ZM381.21 185H374.688V184.091L378.134 180.263C378.644 179.684 378.995 179.215 379.187 178.854C379.382 178.49 379.48 178.114 379.48 177.727C379.48 177.207 379.323 176.781 379.009 176.448C378.694 176.116 378.275 175.949 377.751 175.949C377.122 175.949 376.632 176.129 376.281 176.489C375.935 176.845 375.762 177.341 375.762 177.979H374.497C374.497 177.063 374.791 176.323 375.379 175.758C375.971 175.193 376.762 174.91 377.751 174.91C378.676 174.91 379.408 175.154 379.945 175.642C380.483 176.125 380.752 176.77 380.752 177.576C380.752 178.556 380.128 179.723 378.879 181.076L376.213 183.968H381.21V185ZM388.791 180.755C388.791 182.236 388.538 183.337 388.032 184.057C387.526 184.777 386.736 185.137 385.66 185.137C384.598 185.137 383.812 184.786 383.302 184.084C382.791 183.378 382.527 182.325 382.509 180.926V179.237C382.509 177.774 382.762 176.688 383.268 175.977C383.773 175.266 384.566 174.91 385.646 174.91C386.717 174.91 387.506 175.254 388.012 175.942C388.518 176.626 388.777 177.683 388.791 179.114V180.755ZM387.526 179.025C387.526 177.954 387.376 177.175 387.075 176.688C386.774 176.195 386.298 175.949 385.646 175.949C384.999 175.949 384.528 176.193 384.231 176.681C383.935 177.168 383.783 177.918 383.773 178.93V180.953C383.773 182.029 383.928 182.824 384.238 183.339C384.553 183.849 385.027 184.104 385.66 184.104C386.285 184.104 386.747 183.863 387.048 183.38C387.353 182.897 387.513 182.136 387.526 181.097V179.025ZM395.258 180.625C394.993 180.939 394.677 181.192 394.308 181.384C393.943 181.575 393.542 181.671 393.104 181.671C392.53 181.671 392.029 181.53 391.601 181.247C391.177 180.965 390.849 180.568 390.616 180.058C390.384 179.543 390.268 178.975 390.268 178.355C390.268 177.69 390.393 177.091 390.644 176.558C390.899 176.024 391.259 175.617 391.724 175.334C392.188 175.051 392.731 174.91 393.351 174.91C394.335 174.91 395.11 175.279 395.675 176.018C396.244 176.751 396.529 177.754 396.529 179.025V179.395C396.529 181.331 396.146 182.746 395.381 183.64C394.615 184.528 393.46 184.984 391.915 185.007H391.669V183.94H391.936C392.979 183.922 393.781 183.651 394.342 183.127C394.902 182.598 395.208 181.764 395.258 180.625ZM393.31 180.625C393.733 180.625 394.123 180.495 394.479 180.235C394.839 179.976 395.101 179.654 395.265 179.271V178.766C395.265 177.936 395.085 177.262 394.725 176.742C394.365 176.223 393.909 175.963 393.357 175.963C392.801 175.963 392.355 176.177 392.018 176.605C391.68 177.029 391.512 177.59 391.512 178.287C391.512 178.966 391.674 179.527 391.997 179.969C392.325 180.406 392.763 180.625 393.31 180.625Z" fill="#181818"/>
<circle cx="337" cy="180" r="2" fill="#181818"/>
<circle cx="344" cy="180" r="2" fill="#181818"/>
<circle cx="351" cy="180" r="2" fill="#181818"/>
<circle cx="358" cy="180" r="2" fill="#181818"/>
</g>
<defs>
<clipPath id="clip0">
<rect width="481" height="315.837" fill="white"/>
</clipPath>
</defs>
</svg>
