<svg width="488" height="360" viewBox="0 0 488 360" fill="none" xmlns="http://www.w3.org/2000/svg">
<g clip-path="url(#clip0)">
<rect width="488" height="360" fill="white"/>
<ellipse cx="199.5" cy="187" rx="174.5" ry="174" fill="#F8FBFF"/>
<path d="M94 190C94 181.716 100.716 175 109 175H237C245.284 175 252 181.716 252 190V308.625C252 316.909 245.284 323.625 237 323.625H122.716C122.211 323.625 121.713 323.753 121.27 323.997L101.41 334.923C98.0779 336.756 94 334.346 94 330.542V190Z" fill="#181818"/>
<circle cx="316" cy="160" r="84" fill="#181818"/>
<ellipse cx="374" cy="37.5" rx="9" ry="8.5" fill="#FFD12D"/>
<path fill-rule="evenodd" clip-rule="evenodd" d="M77.8891 158.231C77.1114 158.233 76.4707 157.643 76.3937 156.885C76.3932 156.88 76.3865 156.619 76.3868 156.59C76.3879 156.5 76.39 156.371 76.3943 156.203C76.4029 155.868 76.4203 155.381 76.4557 154.758C76.5263 153.514 76.6685 151.728 76.9548 149.542C77.5269 145.173 78.6769 139.186 80.9921 132.711C85.6222 119.763 94.9602 104.757 113.739 96.9977C119.803 94.4919 125.263 93.8055 129.866 94.2523C129.989 92.6726 130.248 91.0478 130.644 89.412C133.281 78.5328 142.142 66.7024 159.111 63.4601C159.925 63.3046 160.71 63.8382 160.866 64.6519C161.021 65.4656 160.488 66.2513 159.674 66.4067C143.999 69.4018 135.955 80.2391 133.56 90.1187C133.177 91.6993 132.941 93.2438 132.84 94.7181C135.836 95.3751 138.368 96.5291 140.344 97.9319C142.977 99.8017 144.777 102.241 145.076 104.653C145.229 105.897 144.977 107.144 144.199 108.195C143.431 109.233 142.257 109.937 140.818 110.32L140.697 110.353L140.572 110.364C138.368 110.572 136.4 110.024 134.772 108.86C133.164 107.711 131.966 106.02 131.152 104.044C130.34 102.072 129.885 99.7588 129.798 97.2611C125.67 96.8189 120.631 97.3957 114.884 99.7703C97.1449 107.101 88.2701 121.268 83.8169 133.721C81.5904 139.948 80.4811 145.718 79.9294 149.931C79.6537 152.036 79.5178 153.748 79.4508 154.928C79.4174 155.518 79.4011 155.975 79.3933 156.28C79.3893 156.433 79.3875 156.549 79.3866 156.624C79.3862 156.662 79.386 156.689 79.386 156.707L79.3859 156.725L79.3859 156.728C79.3873 157.556 78.7173 158.23 77.8891 158.231ZM132.828 97.7985C132.953 99.723 133.331 101.456 133.926 102.901C134.581 104.491 135.472 105.674 136.516 106.42C137.511 107.13 138.714 107.498 140.166 107.388C141.048 107.133 141.532 106.756 141.788 106.411C142.045 106.063 142.171 105.613 142.098 105.021C141.943 103.763 140.867 101.983 138.607 100.378C137.115 99.3186 135.171 98.3896 132.828 97.7985Z" fill="#181818"/>
<path d="M446.448 334C446.281 333.732 446.135 333.575 446.072 333.397C445.278 331.118 444.506 328.839 443.733 326.56C443.503 325.89 443.274 325.197 443.065 324.505C442.877 323.901 442.585 323.388 442 323.164C440.998 322.784 440.016 322.404 439.014 322.002C437.865 321.555 436.738 321.086 435.61 320.639C434.921 320.371 434.232 320.148 433.543 319.857C433.334 319.768 433.188 319.545 433 319.366C433.188 319.21 433.334 318.964 433.543 318.897C434.691 318.428 435.861 317.981 437.009 317.534C438.074 317.109 439.118 316.707 440.183 316.283C440.768 316.059 441.353 315.836 441.958 315.612C442.459 315.411 442.794 315.054 442.981 314.518C443.336 313.468 443.691 312.418 444.046 311.39C444.631 309.714 445.216 308.016 445.8 306.341C445.905 306.028 445.947 305.693 446.093 305.38C446.176 305.201 446.364 305 446.51 305C446.657 305 446.845 305.223 446.907 305.402C447.701 307.681 448.473 309.96 449.267 312.239C449.497 312.931 449.726 313.646 449.956 314.339C450.144 314.965 450.457 315.411 451.063 315.635C452.566 316.193 454.07 316.774 455.573 317.378C456.638 317.802 457.703 318.249 458.789 318.673C459.06 318.785 459.374 318.83 459.624 318.964C459.791 319.053 460 319.232 460 319.388C460 319.522 459.791 319.768 459.645 319.813C457.014 320.885 454.404 321.891 451.794 322.918C451.689 322.963 451.564 323.008 451.439 323.03C450.561 323.231 450.102 323.79 449.831 324.728C449.497 325.935 449.016 327.096 448.619 328.28C448.244 329.398 447.847 330.492 447.471 331.609C447.262 332.235 447.074 332.883 446.845 333.508C446.824 333.643 446.657 333.777 446.448 334Z" fill="#0084FF"/>
<circle cx="324" cy="152" r="82.5" fill="white" stroke="black" stroke-width="3"/>
<path fill-rule="evenodd" clip-rule="evenodd" d="M323.133 142.007C323.841 142.007 324.415 142.58 324.415 143.288V147.732C326.464 147.953 328.339 148.694 329.794 149.816C331.55 151.169 332.75 153.129 332.75 155.396C332.75 156.104 332.176 156.678 331.469 156.678C330.761 156.678 330.188 156.104 330.188 155.396C330.188 154.09 329.501 152.825 328.23 151.846C326.958 150.865 325.154 150.226 323.132 150.226C321.11 150.226 319.306 150.865 318.034 151.846C316.763 152.825 316.076 154.09 316.076 155.396C316.076 158.023 318.414 160.566 323.132 160.566C326.078 160.566 328.479 161.344 330.167 162.748C331.872 164.167 332.75 166.146 332.75 168.298C332.75 170.566 331.55 172.526 329.794 173.879C328.339 175 326.464 175.742 324.415 175.962V179.712C324.415 180.419 323.841 180.993 323.133 180.993C322.426 180.993 321.852 180.419 321.852 179.712V175.963C319.802 175.743 317.926 175.001 316.47 173.879C314.714 172.526 313.514 170.566 313.514 168.298C313.514 167.591 314.088 167.017 314.795 167.017C315.503 167.017 316.076 167.591 316.076 168.298C316.076 169.604 316.763 170.87 318.034 171.849C319.306 172.829 321.11 173.468 323.132 173.468C325.154 173.468 326.958 172.829 328.23 171.849C329.501 170.87 330.188 169.604 330.188 168.298C330.188 166.878 329.627 165.632 328.528 164.718C327.412 163.79 325.644 163.129 323.132 163.129C317.528 163.129 313.514 159.915 313.514 155.396C313.514 153.129 314.714 151.169 316.47 149.816C317.926 148.694 319.802 147.952 321.852 147.732V143.288C321.852 142.58 322.426 142.007 323.133 142.007Z" fill="#181818"/>
<path d="M304.458 136.205C306.396 131.54 310.951 128.5 316.002 128.5H329.122C334.117 128.5 338.633 131.474 340.606 136.064L353.432 165.905C359.247 179.435 349.324 194.5 334.598 194.5H310.959C296.341 194.5 286.42 179.637 292.027 166.137L304.458 136.205Z" stroke="#181818" stroke-width="3"/>
<rect x="307.5" y="121.5" width="30" height="8" rx="4" fill="#181818" stroke="#181818" stroke-width="3"/>
<path d="M302.859 109.232C302.685 108.899 302.927 108.5 303.302 108.5H342.698C343.073 108.5 343.315 108.899 343.141 109.232L336.728 121.5H309.272L302.859 109.232Z" fill="white" stroke="#181818" stroke-width="3"/>
<path d="M104.5 182C104.5 174.544 110.544 168.5 118 168.5H246C253.456 168.5 259.5 174.544 259.5 182V300.625C259.5 308.081 253.456 314.125 246 314.125H131.716C130.958 314.125 130.212 314.317 129.547 314.682L109.687 325.609C107.355 326.892 104.5 325.205 104.5 322.542V182Z" fill="white" stroke="black" stroke-width="3"/>
<path d="M144.863 231.06L198.954 202.932C201.794 201.394 205.495 202.529 207.006 205.518L209.695 210.534L144.94 244.071L142.251 239.055C140.74 236.066 141.851 232.562 144.863 231.06Z" stroke="black" stroke-width="3" stroke-miterlimit="10" stroke-linecap="round"/>
<path d="M171.367 216.166C174.581 209.545 170.272 202.051 177.962 197.974C182.223 195.666 187.026 196.677 189.31 201.074C190.219 202.689 190.492 205.595 189.024 207.422" stroke="black" stroke-width="3" stroke-miterlimit="10" stroke-linecap="round"/>
<path d="M171.367 216.166C164.051 215.161 160.195 207.229 152.505 211.306C148.245 213.614 146.436 217.861 148.683 222.429C149.592 224.044 151.701 225.912 154.213 225.907" stroke="black" stroke-width="3" stroke-miterlimit="10" stroke-linecap="round"/>
<path d="M218.275 218.041C218.043 218.432 217.841 218.683 217.781 218.964C216.996 220.558 216.099 221.982 214.92 223.347C213.771 224.572 212.621 225.796 211.108 226.651C210.08 227.315 208.94 227.808 207.911 228.471C207.74 228.582 207.457 228.522 207.285 228.633C207.114 228.743 207.084 228.884 207.054 229.024C207.024 229.164 207.135 229.334 207.276 229.364C210.406 230.609 213.073 232.637 215.196 235.137C216.227 236.527 217.117 237.888 217.805 239.499C217.916 239.669 217.916 239.669 218.139 240.009C218.37 239.618 218.572 239.367 218.632 239.086C219.417 237.492 220.344 235.927 221.524 234.562C222.531 233.308 223.792 232.254 225.163 231.369C226.192 230.706 227.332 230.213 228.361 229.549C228.532 229.439 228.815 229.498 228.986 229.388C229.158 229.277 229.188 229.137 229.218 228.996C229.248 228.856 229.137 228.686 228.996 228.656C227.077 227.959 225.249 226.841 223.623 225.472C222.107 224.274 220.793 222.824 219.823 221.153C219.266 220.303 218.882 219.342 218.356 218.351C218.386 218.211 218.386 218.211 218.275 218.041Z" fill="black"/>
<path d="M195.606 244.505C195.495 244.335 195.353 244.305 195.383 244.165C194.918 242.894 194.482 241.482 194.016 240.211C193.794 239.871 193.743 239.42 193.692 238.97C193.611 238.659 193.388 238.319 193.106 238.26C192.57 238 191.864 237.852 191.328 237.592C190.652 237.303 189.975 237.014 189.269 236.865C188.845 236.776 188.451 236.547 188.027 236.457C187.885 236.428 187.774 236.258 187.633 236.228C187.804 236.117 187.834 235.977 187.976 236.007C188.631 235.705 189.428 235.433 190.054 235.271C190.71 234.969 191.335 234.808 191.991 234.506C192.304 234.425 192.647 234.204 193.101 234.153C193.414 234.072 193.615 233.821 193.675 233.54C193.937 233.009 194.088 232.307 194.35 231.776C194.702 230.823 195.054 229.871 195.406 228.919C195.436 228.778 195.496 228.498 195.527 228.357C195.557 228.217 195.728 228.107 195.728 228.107C195.87 228.136 195.981 228.306 195.981 228.306C196.446 229.578 196.882 230.989 197.348 232.26C197.54 232.741 197.621 233.051 197.814 233.531C197.895 233.842 198.117 234.182 198.541 234.271C199.5 234.62 200.318 234.938 201.278 235.287C201.954 235.576 202.489 235.835 203.196 235.984C203.337 236.014 203.62 236.073 203.761 236.103C203.903 236.133 204.014 236.303 204.014 236.303C203.984 236.443 203.812 236.554 203.812 236.554C202.188 237.238 200.594 237.783 199 238.327L198.829 238.438C198.344 238.629 198.001 238.85 197.881 239.411C197.73 240.113 197.438 240.785 197.146 241.456C196.855 242.128 196.734 242.689 196.442 243.361C196.352 243.782 196.15 244.033 196.06 244.454C195.807 244.254 195.777 244.394 195.606 244.505Z" fill="black"/>
<rect x="176.056" y="251.583" width="12.3332" height="34.4169" fill="black"/>
<rect width="12.3061" height="10.822" transform="matrix(0.882348 -0.470597 0.47783 0.878452 167.087 220.737)" fill="black"/>
<path d="M216.041 280C216.041 282.485 214.026 284.5 211.541 284.5L151.784 284.5C149.299 284.5 147.284 282.485 147.284 280L147.284 253.083L216.041 253.083L216.041 280Z" stroke="black" stroke-width="3"/>
<path d="M199.452 139C199.297 138.76 199.162 138.619 199.104 138.459C198.369 136.416 197.654 134.373 196.938 132.33C196.725 131.729 196.513 131.108 196.319 130.487C196.145 129.946 195.875 129.485 195.333 129.285C194.405 128.945 193.497 128.604 192.568 128.243C191.505 127.843 190.461 127.422 189.417 127.022C188.779 126.781 188.141 126.581 187.503 126.32C187.309 126.24 187.174 126.04 187 125.88C187.174 125.74 187.309 125.519 187.503 125.459C188.566 125.039 189.649 124.638 190.712 124.237C191.698 123.857 192.665 123.496 193.651 123.116C194.193 122.915 194.734 122.715 195.295 122.515C195.759 122.334 196.068 122.014 196.242 121.533C196.571 120.592 196.899 119.65 197.228 118.729C197.77 117.227 198.311 115.704 198.852 114.202C198.949 113.921 198.988 113.621 199.123 113.341C199.2 113.18 199.374 113 199.51 113C199.645 113 199.819 113.2 199.877 113.361C200.612 115.404 201.327 117.447 202.062 119.49C202.275 120.111 202.487 120.752 202.7 121.373C202.874 121.934 203.164 122.334 203.725 122.535C205.117 123.035 206.509 123.556 207.901 124.097C208.887 124.478 209.873 124.878 210.879 125.259C211.13 125.359 211.42 125.399 211.652 125.519C211.807 125.599 212 125.76 212 125.9C212 126.02 211.807 126.24 211.671 126.28C209.235 127.242 206.818 128.143 204.401 129.065C204.305 129.105 204.189 129.145 204.073 129.165C203.261 129.345 202.835 129.846 202.584 130.687C202.275 131.769 201.83 132.81 201.462 133.872C201.114 134.874 200.747 135.855 200.399 136.857C200.206 137.418 200.032 137.998 199.819 138.559C199.8 138.68 199.645 138.8 199.452 139Z" fill="#FFB9F8"/>
</g>
<defs>
<clipPath id="clip0">
<rect width="488" height="360" fill="white"/>
</clipPath>
</defs>
</svg>
