<svg width="488" height="360" viewBox="0 0 488 360" fill="none" xmlns="http://www.w3.org/2000/svg">
<rect width="488" height="360" fill="white"/>
<circle cx="244" cy="180" r="126.5" stroke="#181818" stroke-width="3"/>
<path d="M474 317C474 321.418 470.418 325 466 325C461.582 325 458 321.418 458 317C458 312.582 461.582 309 466 309C470.418 309 474 312.582 474 317Z" fill="#FFD12D"/>
<path d="M21.4517 338C21.297 337.76 21.1616 337.619 21.1036 337.459C20.3689 335.416 19.6535 333.373 18.9381 331.33C18.7254 330.729 18.5128 330.108 18.3194 329.487C18.1454 328.946 17.8747 328.485 17.3333 328.285C16.4053 327.945 15.4965 327.604 14.5684 327.243C13.505 326.843 12.4609 326.422 11.4169 326.022C10.7788 325.781 10.1408 325.581 9.50271 325.32C9.30936 325.24 9.17401 325.04 9 324.88C9.17401 324.74 9.30936 324.519 9.50271 324.459C10.5661 324.039 11.6489 323.638 12.7123 323.237C13.6984 322.857 14.6651 322.496 15.6512 322.116C16.1926 321.915 16.734 321.715 17.2947 321.515C17.7587 321.334 18.0681 321.014 18.2421 320.533C18.5708 319.592 18.8995 318.65 19.2282 317.729C19.7695 316.227 20.3109 314.704 20.8523 313.202C20.949 312.921 20.9876 312.621 21.123 312.341C21.2003 312.18 21.3743 312 21.5097 312C21.645 312 21.819 312.2 21.877 312.361C22.6118 314.404 23.3271 316.447 24.0619 318.49C24.2746 319.111 24.4872 319.752 24.6999 320.373C24.8739 320.934 25.164 321.334 25.7247 321.535C27.1168 322.035 28.5089 322.556 29.901 323.097C30.8871 323.478 31.8732 323.878 32.8786 324.259C33.1299 324.359 33.42 324.399 33.652 324.519C33.8067 324.599 34 324.76 34 324.9C34 325.02 33.8067 325.24 33.6713 325.28C31.2351 326.242 28.8183 327.143 26.4014 328.065C26.3047 328.105 26.1887 328.145 26.0727 328.165C25.2606 328.345 24.8353 328.846 24.5839 329.687C24.2746 330.769 23.8299 331.81 23.4625 332.872C23.1145 333.874 22.7471 334.855 22.3991 335.857C22.2057 336.418 22.0317 336.998 21.819 337.559C21.7997 337.68 21.645 337.8 21.4517 338Z" fill="#FFB9F8"/>
<path d="M119.351 29.0344C75.776 64.9126 48 119.219 48 180C48 240.781 75.776 295.087 119.351 330.966M368.607 29C412.206 64.8779 440 119.2 440 180C440 240.8 412.206 295.122 368.607 331" stroke="#181818" stroke-width="3" stroke-linecap="round"/>
<path fill-rule="evenodd" clip-rule="evenodd" d="M266.293 200.076C260.802 206.169 252.849 210 244 210C235.037 210 226.991 206.069 221.494 199.837L243.98 178.184L266.293 200.076ZM269.878 195.187L246.795 172.539C245.25 171.023 242.778 171.012 241.219 172.513L217.961 194.91C215.441 190.517 214 185.427 214 180C214 163.431 227.431 150 244 150C260.569 150 274 163.431 274 180C274 185.542 272.497 190.732 269.878 195.187ZM280 180C280 199.882 263.882 216 244 216C224.118 216 208 199.882 208 180C208 160.118 224.118 144 244 144C263.882 144 280 160.118 280 180Z" fill="#0085FF"/>
<path d="M384.505 76.3052C384.505 70.6178 389.115 66.0073 394.803 66.0073H434.966C440.654 66.0073 445.264 70.6178 445.264 76.3052V112.728C445.264 118.415 440.654 123.026 434.966 123.026H395.1C394.521 123.026 393.952 123.172 393.445 123.451L388.461 126.193C386.682 127.172 384.505 125.885 384.505 123.854V76.3052Z" fill="#181818" stroke="#181818" stroke-width="2.28843"/>
<path d="M389.452 72.1129C389.452 66.622 393.903 62.1707 399.394 62.1707H439.558C445.049 62.1707 449.5 66.622 449.5 72.1129V108.536C449.5 114.027 445.049 118.478 439.558 118.478H399.691C399.052 118.478 398.424 118.639 397.865 118.947L392.881 121.689C391.339 122.537 389.452 121.422 389.452 119.661V72.1129Z" fill="white" stroke="#181818" stroke-width="3"/>
<path d="M401.58 85.7078L427.26 72.3539C428.608 71.6237 430.366 72.1628 431.083 73.5815L432.359 75.9632L401.617 91.8849L400.34 89.5032C399.623 88.0845 400.15 86.4208 401.58 85.7078Z" stroke="#181818" stroke-width="2" stroke-miterlimit="10" stroke-linecap="round"/>
<path d="M414.163 78.6369C415.689 75.4932 413.643 71.9358 417.294 69.9998C419.317 68.9044 421.597 69.3844 422.682 71.4718C423.113 72.2387 423.242 73.6181 422.545 74.4856" stroke="#181818" stroke-width="2" stroke-miterlimit="10" stroke-linecap="round"/>
<path d="M414.163 78.6368C410.69 78.1593 408.859 74.3936 405.208 76.3296C403.185 77.425 402.327 79.4415 403.394 81.6099C403.825 82.3767 404.827 83.2636 406.019 83.261" stroke="#181818" stroke-width="2" stroke-miterlimit="10" stroke-linecap="round"/>
<path d="M437.682 87.1273C437.149 87.7456 436.724 88.4398 436.365 89.1404C436.056 88.5169 435.686 87.9657 435.278 87.4157L435.27 87.4057L435.262 87.3962C434.322 86.2889 433.161 85.3658 431.807 84.7428C432.01 84.6178 432.224 84.5035 432.45 84.3826L432.457 84.3791C432.707 84.2458 432.972 84.1041 433.227 83.9405C433.992 83.5062 434.569 82.8913 435.101 82.3237L435.118 82.3061L435.123 82.3003L435.128 82.2944C435.646 81.6956 436.052 81.0748 436.405 80.3987C436.427 80.4432 436.449 80.488 436.471 80.5333C436.581 80.757 436.699 80.9858 436.842 81.205C437.328 82.0389 437.982 82.7581 438.729 83.3504C439.395 83.9099 440.133 84.388 440.915 84.7332C440.716 84.8556 440.505 84.9679 440.283 85.0864L440.277 85.0899C440.023 85.2249 439.754 85.3684 439.497 85.5345C438.822 85.9698 438.191 86.4949 437.682 87.1273Z" fill="#181818" stroke="#181818" stroke-width="0.76281"/>
<path d="M425.752 91.3129C425.702 91.1668 425.653 91.0182 425.602 90.8683L425.601 90.8657C425.495 90.5491 425.387 90.2267 425.274 89.9201L425.259 89.8793L425.236 89.843C425.189 89.7716 425.168 89.6571 425.141 89.4186L425.138 89.3916L425.131 89.3653C425.1 89.2469 425.043 89.1226 424.961 89.0166C424.891 88.9249 424.777 88.8163 424.617 88.7667C424.476 88.7018 424.322 88.6514 424.193 88.609L424.182 88.6053C424.029 88.555 423.907 88.5143 423.807 88.4659L423.799 88.462L423.791 88.4585L423.776 88.4519C423.515 88.3406 423.227 88.2175 422.921 88.1344C422.994 88.1124 423.064 88.0927 423.129 88.0758L423.162 88.0672L423.193 88.0528C423.332 87.989 423.469 87.9391 423.623 87.8834L423.629 87.8814C423.77 87.8305 423.925 87.7744 424.085 87.7021C424.159 87.6797 424.237 87.6478 424.291 87.6253C424.307 87.6188 424.321 87.6131 424.332 87.6087C424.407 87.579 424.465 87.5611 424.522 87.5546L424.549 87.5516L424.575 87.5448C424.863 87.4707 425.047 87.2509 425.114 87.0146C425.179 86.8751 425.23 86.7241 425.272 86.5972C425.273 86.5934 425.275 86.5896 425.276 86.5859C425.327 86.4337 425.368 86.3133 425.416 86.2147L425.425 86.1969L425.432 86.1784L425.757 85.3002C425.775 85.3537 425.793 85.4074 425.811 85.4613L425.812 85.464C425.918 85.7806 426.027 86.103 426.139 86.4096L426.139 86.4096L426.143 86.42C426.185 86.5248 426.215 86.6109 426.247 86.7048L426.248 86.7068C426.278 86.7951 426.311 86.8903 426.356 87.0041C426.422 87.2269 426.598 87.5102 426.954 87.5982C427.171 87.6773 427.374 87.7533 427.578 87.8301L427.579 87.8304C427.786 87.9083 427.996 87.9869 428.221 88.069C428.261 88.0862 428.301 88.1035 428.341 88.121C428.451 88.1684 428.561 88.2163 428.676 88.261C428.171 88.4516 427.669 88.6234 427.159 88.7972L427.115 88.8124L427.075 88.8379L427.025 88.8706C426.905 88.9198 426.769 88.9875 426.652 89.0965C426.512 89.2258 426.421 89.3911 426.377 89.594C426.315 89.8835 426.193 90.1674 426.052 90.4928C425.976 90.6676 425.922 90.8273 425.874 90.9711L425.873 90.9761C425.833 91.0941 425.797 91.2018 425.752 91.3129Z" fill="#181818" stroke="#181818" stroke-width="0.76281"/>
<rect x="416.771" y="95.8325" width="5.09239" height="15.5767" fill="#181818" stroke="#181818" stroke-width="0.76281"/>
<rect x="0.518779" y="0.155558" width="5.07955" height="4.37494" transform="matrix(0.882348 -0.470597 0.47783 0.878452 412.118 81.0699)" fill="#181818" stroke="#181818" stroke-width="0.76281"/>
<path d="M435.084 107.214C435.084 109.189 433.483 110.791 431.507 110.791L406.594 110.791C404.619 110.791 403.017 109.189 403.017 107.214L403.017 96.4511L435.084 96.4511L435.084 107.214Z" stroke="#181818" stroke-width="2"/>
<path d="M166 47C166 51.4183 162.418 55 158 55C153.582 55 150 51.4183 150 47C150 42.5817 153.582 39 158 39C162.418 39 166 42.5817 166 47Z" fill="#93E6CF"/>
<path d="M52.5405 184.789C72.6033 184.789 88.8674 168.565 88.8674 148.551C88.8674 128.537 72.6033 112.313 52.5405 112.313C32.4777 112.313 16.2136 128.537 16.2136 148.551C16.2136 168.565 32.4777 184.789 52.5405 184.789Z" fill="white" stroke="black" stroke-width="3" stroke-miterlimit="10" stroke-linecap="round"/>
<path d="M64.4474 183.56L46.4054 190.501C43.4118 191.631 40.0138 190.178 38.8811 187.192L31.9232 169.194C30.7905 166.208 32.2468 162.818 35.2403 161.688L53.2824 154.747C56.2759 153.617 59.674 155.07 60.8066 158.056L67.7646 176.054C68.9782 179.04 67.441 182.43 64.4474 183.56Z" fill="white" stroke="black" stroke-width="2" stroke-miterlimit="10" stroke-linecap="round"/>
<path d="M56.5094 172.482C57.2312 174.356 57.38 176.029 56.9557 177.501C56.5286 178.966 55.5878 179.977 54.1332 180.534C52.5801 181.13 51.1683 181.042 49.8978 180.271L50.3412 181.727L48.4093 182.468L41.704 165.055L43.8063 164.249L46.3077 170.745C46.7517 169.37 47.7199 168.396 49.2124 167.824C50.7049 167.252 52.0922 167.366 53.3743 168.167C54.6641 168.965 55.6858 170.343 56.4396 172.3L56.5094 172.482ZM54.3154 173.049C53.7654 171.621 53.0639 170.624 52.2111 170.057C51.3583 169.491 50.413 169.406 49.375 169.804C47.9886 170.335 47.2398 171.359 47.1284 172.876L49.1715 178.182C50.3102 179.22 51.5614 179.478 52.925 178.955C53.9327 178.569 54.5669 177.879 54.8278 176.886C55.0886 175.893 54.9178 174.614 54.3154 173.049Z" fill="black"/>
<path d="M68.8836 139.593C77.9096 139.593 85.2266 132.293 85.2266 123.289C85.2266 114.285 77.9096 106.986 68.8836 106.986C59.8576 106.986 52.5405 114.285 52.5405 123.289C52.5405 132.293 59.8576 139.593 68.8836 139.593Z" fill="black"/>
<path d="M72.6053 136.041C81.1398 136.041 88.0584 129.14 88.0584 120.626C88.0584 112.112 81.1398 105.211 72.6053 105.211C64.0708 105.211 57.1522 112.112 57.1522 120.626C57.1522 129.14 64.0708 136.041 72.6053 136.041Z" fill="white" stroke="black" stroke-width="2" stroke-miterlimit="10" stroke-linecap="round"/>
<path d="M75.8072 125.791C75.6773 125.532 75.5718 125.071 75.4907 124.407C74.4437 125.492 73.1939 126.034 71.7412 126.034C70.4427 126.034 69.3755 125.67 68.5396 124.941C67.7118 124.205 67.2979 123.274 67.2979 122.148C67.2979 120.78 67.8173 119.719 68.8561 118.967C69.903 118.206 71.3719 117.825 73.2629 117.825H75.4541V116.793C75.4541 116.008 75.2188 115.384 74.7481 114.923C74.2774 114.453 73.5835 114.218 72.6664 114.218C71.8629 114.218 71.1893 114.421 70.6456 114.826C70.1018 115.23 69.83 115.72 69.83 116.295H67.5657C67.5657 115.639 67.797 115.008 68.2596 114.4C68.7303 113.785 69.3633 113.299 70.1586 112.943C70.9621 112.587 71.8427 112.409 72.8003 112.409C74.3179 112.409 75.5069 112.789 76.3672 113.55C77.2274 114.303 77.6738 115.344 77.7063 116.671V122.719C77.7063 123.925 77.8605 124.885 78.1688 125.597V125.791H75.8072ZM72.0699 124.079C72.776 124.079 73.4455 123.897 74.0785 123.533C74.7116 123.168 75.1701 122.695 75.4541 122.112V119.416H73.689C70.9296 119.416 69.55 120.221 69.55 121.833C69.55 122.537 69.7853 123.087 70.256 123.484C70.7267 123.881 71.3314 124.079 72.0699 124.079Z" fill="black"/>
<path d="M256.194 333.006H204.59C198.469 333.006 193.538 328.051 193.538 321.901V293.029C193.538 286.879 198.469 281.925 204.59 281.925H256.194C262.315 281.925 267.246 286.879 267.246 293.029V321.816C267.331 327.966 262.315 333.006 256.194 333.006Z" fill="#181818"/>
<path d="M259.947 329.253H208.343C202.222 329.253 197.291 324.299 197.291 318.148V289.276C197.291 283.126 202.222 278.172 208.343 278.172H259.947C266.068 278.172 270.999 283.126 270.999 289.276V318.063C271.084 324.213 266.068 329.253 259.947 329.253Z" fill="white" stroke="#181818" stroke-width="3" stroke-miterlimit="10" stroke-linecap="round"/>
<path d="M216.334 319.601H214.294C212.934 319.601 211.829 318.49 211.829 317.123V290.472C211.829 289.106 212.934 287.995 214.294 287.995H216.334C217.695 287.995 218.8 289.106 218.8 290.472V317.123C218.885 318.49 217.695 319.601 216.334 319.601Z" stroke="#181818" stroke-width="2" stroke-miterlimit="10" stroke-linecap="round"/>
<path d="M228.917 319.601H226.876C225.516 319.601 224.411 318.49 224.411 317.123V296.708C224.411 295.341 225.516 294.231 226.876 294.231H228.917C230.277 294.231 231.382 295.341 231.382 296.708V317.038C231.467 318.49 230.277 319.601 228.917 319.601Z" stroke="#181818" stroke-width="2" stroke-miterlimit="10" stroke-linecap="round"/>
<path d="M241.499 319.601H239.458C238.098 319.601 236.993 318.49 236.993 317.123V311.315C236.993 309.948 238.098 308.838 239.458 308.838H241.499C242.859 308.838 243.964 309.948 243.964 311.315V317.123C244.049 318.49 242.859 319.601 241.499 319.601Z" stroke="#181818" stroke-width="2" stroke-miterlimit="10" stroke-linecap="round"/>
<path d="M254.081 319.6H252.041C250.68 319.6 249.575 318.49 249.575 317.123V302.944C249.575 301.577 250.68 300.466 252.041 300.466H254.081C255.441 300.466 256.546 301.577 256.546 302.944V317.123C256.631 318.49 255.441 319.6 254.081 319.6Z" stroke="#181818" stroke-width="2" stroke-miterlimit="10" stroke-linecap="round"/>
</svg>
