<svg width="488" height="360" viewBox="0 0 488 360" fill="none" xmlns="http://www.w3.org/2000/svg">
<rect width="488" height="360" fill="white"/>
<circle cx="244" cy="47" r="8" fill="#FFD12D"/>
<path d="M194.452 344C194.297 343.76 194.162 343.619 194.104 343.459C193.369 341.416 192.654 339.373 191.938 337.33C191.725 336.729 191.513 336.108 191.319 335.487C191.145 334.946 190.875 334.485 190.333 334.285C189.405 333.945 188.497 333.604 187.568 333.243C186.505 332.843 185.461 332.422 184.417 332.022C183.779 331.781 183.141 331.581 182.503 331.32C182.309 331.24 182.174 331.04 182 330.88C182.174 330.74 182.309 330.519 182.503 330.459C183.566 330.039 184.649 329.638 185.712 329.237C186.698 328.857 187.665 328.496 188.651 328.116C189.193 327.915 189.734 327.715 190.295 327.515C190.759 327.334 191.068 327.014 191.242 326.533C191.571 325.592 191.899 324.65 192.228 323.729C192.77 322.227 193.311 320.704 193.852 319.202C193.949 318.921 193.988 318.621 194.123 318.341C194.2 318.18 194.374 318 194.51 318C194.645 318 194.819 318.2 194.877 318.361C195.612 320.404 196.327 322.447 197.062 324.49C197.275 325.111 197.487 325.752 197.7 326.373C197.874 326.934 198.164 327.334 198.725 327.535C200.117 328.035 201.509 328.556 202.901 329.097C203.887 329.478 204.873 329.878 205.879 330.259C206.13 330.359 206.42 330.399 206.652 330.519C206.807 330.599 207 330.76 207 330.9C207 331.02 206.807 331.24 206.671 331.28C204.235 332.242 201.818 333.143 199.401 334.065C199.305 334.105 199.189 334.145 199.073 334.165C198.261 334.345 197.835 334.846 197.584 335.687C197.275 336.769 196.83 337.81 196.462 338.872C196.114 339.874 195.747 340.855 195.399 341.857C195.206 342.418 195.032 342.998 194.819 343.559C194.8 343.68 194.645 343.8 194.452 344Z" fill="#FFB9F8"/>
<circle cx="28" cy="23" r="8" fill="#93E6CF"/>
<rect x="414" y="23" width="48" height="48" rx="24" fill="#007FD2"/>
<path fill-rule="evenodd" clip-rule="evenodd" d="M451.025 57.3524C450.23 59.5324 449.087 61.1205 447.916 61.6691C446.644 62.261 445.43 61.8857 444.36 60.5719C443.29 59.2437 441.772 55.2879 440.399 50.2204L439.69 47.6506H434.399H429.107L428.023 51.1444C427.141 54.0174 426.881 54.6815 426.577 54.8981C426.115 55.2446 425.522 55.1291 425.189 54.6238C424.973 54.3061 425.001 54.0751 425.507 51.361C425.671 50.4965 425.827 49.6657 425.942 49.0498C426.04 48.5238 426.109 48.1546 426.129 48.0548L426.187 47.6506H423.801C421.445 47.6506 421.402 47.6506 420.968 47.2752C420.1 46.5534 420.259 45.1963 421.3 44.7054C421.734 44.5033 422.139 44.4744 424.38 44.5611L426.953 44.6621L427.3 43.305C427.922 40.793 429.339 36.7794 430.192 35.0181C431.175 33.0546 432.143 31.7697 433.141 31.0912C435.194 29.7197 436.842 30.7158 438.649 34.4117C439.734 36.6351 440.355 38.3386 441.411 42.0201L442.177 44.691L443.753 44.792C444.606 44.8498 447.237 44.9653 449.579 45.0519C451.921 45.1385 454.133 45.2685 454.495 45.3407C455.608 45.5428 456.027 46.5678 455.29 47.2897L454.943 47.6506H449.001C443.666 47.6506 443.073 47.6795 443.073 47.8816C443.073 48.0115 443.305 49.051 443.579 50.1915C445.025 56.1974 446.239 58.926 447.454 58.9116C448.74 58.8972 449.232 58.0598 451.111 52.8191C452.138 49.9317 452.254 49.6718 452.528 49.6718C453.078 49.6718 453.063 50.0327 452.268 53.079C451.834 54.7393 451.271 56.6594 451.025 57.3524ZM429.801 44.6189L432.635 44.6622C434.196 44.6766 436.249 44.7055 437.189 44.7344C438.389 44.7488 438.881 44.7199 438.881 44.59C438.881 44.5034 438.519 43.1751 438.085 41.6304C436.524 36.2164 435.411 33.5022 434.746 33.5022C433.676 33.5022 431.594 37.92 430.148 43.2762L429.801 44.6189Z" fill="white"/>
<ellipse cx="451" cy="136.5" rx="24" ry="23.5" fill="#4A154B"/>
<path d="M441.723 140.634C441.723 142.445 440.212 143.925 438.362 143.925C436.511 143.925 435 142.445 435 140.634C435 138.822 436.511 137.342 438.362 137.342H441.723V140.634Z" fill="#E01E5A"/>
<path d="M443.417 140.634C443.417 138.822 444.928 137.342 446.778 137.342C448.629 137.342 450.14 138.822 450.14 140.634V148.875C450.14 150.687 448.629 152.167 446.778 152.167C444.928 152.167 443.417 150.687 443.417 148.875V140.634Z" fill="#E01E5A"/>
<path d="M446.778 127.416C444.928 127.416 443.417 125.936 443.417 124.125C443.417 122.313 444.928 120.833 446.778 120.833C448.629 120.833 450.14 122.313 450.14 124.125V127.416H446.778Z" fill="#36C5F0"/>
<path d="M446.779 129.075C448.629 129.075 450.14 130.555 450.14 132.366C450.14 134.178 448.629 135.658 446.779 135.658H438.362C436.511 135.658 435 134.178 435 132.366C435 130.555 436.511 129.075 438.362 129.075H446.779Z" fill="#36C5F0"/>
<path d="M460.277 132.366C460.277 130.555 461.788 129.075 463.638 129.075C465.489 129.075 467 130.555 467 132.366C467 134.178 465.489 135.658 463.638 135.658H460.277V132.366Z" fill="#2EB67D"/>
<path d="M458.583 132.366C458.583 134.178 457.072 135.658 455.222 135.658C453.371 135.658 451.86 134.178 451.86 132.366V124.125C451.86 122.313 453.371 120.833 455.222 120.833C457.072 120.833 458.583 122.313 458.583 124.125V132.366Z" fill="#2EB67D"/>
<path d="M455.222 145.584C457.072 145.584 458.583 147.064 458.583 148.875C458.583 150.687 457.072 152.167 455.222 152.167C453.371 152.167 451.86 150.687 451.86 148.875V145.584H455.222Z" fill="#ECB22E"/>
<path d="M455.222 143.925C453.371 143.925 451.86 142.445 451.86 140.634C451.86 138.822 453.371 137.342 455.222 137.342H463.638C465.489 137.342 467 138.822 467 140.634C467 142.445 465.489 143.925 463.638 143.925H455.222Z" fill="#ECB22E"/>
<g clip-path="url(#clip0)">
<rect width="48" height="48" transform="translate(414 289)" fill="white"/>
<path d="M462 313.143C461.983 326.483 451.351 337.013 437.912 337C424.555 336.988 413.975 326.358 414 312.969C414.022 299.691 424.875 288.893 438.088 289.001C451.429 289.112 462.018 299.805 462 313.143Z" fill="#F4F4F4"/>
<g clip-path="url(#clip1)">
<path d="M423.619 318.747L433.594 300.825L442.237 306.001L432.264 323.923L423.619 318.747Z" fill="#FBBC04"/>
<path d="M452.296 318.687L442.315 300.758C441.026 298.231 438.007 297.265 435.57 298.602C433.133 299.938 432.203 303.07 433.491 305.597C433.547 305.708 433.607 305.816 433.671 305.923L443.652 323.851C444.999 326.346 448.04 327.237 450.445 325.84C452.85 324.444 453.708 321.289 452.362 318.795C452.34 318.754 452.318 318.715 452.296 318.675V318.687Z" fill="#4285F4"/>
<path d="M427.991 326.475C430.747 326.475 432.981 324.157 432.981 321.298C432.981 318.44 430.747 316.122 427.991 316.122C425.234 316.122 423 318.44 423 321.298C423 324.157 425.234 326.475 427.991 326.475Z" fill="#34A853"/>
</g>
</g>
<ellipse cx="451" cy="224" rx="24" ry="23" fill="#1877F2"/>
<path fill-rule="evenodd" clip-rule="evenodd" d="M460.342 230.648L461.406 224H454.75V219.686C454.75 217.867 455.68 216.094 458.661 216.094H461.688V210.434C461.688 210.434 458.941 209.984 456.315 209.984C450.833 209.984 447.25 213.168 447.25 218.933V224H441.156V230.648H447.25V246.721C448.472 246.904 449.724 247 451 247C452.276 247 453.528 246.904 454.75 246.721V230.648H460.342Z" fill="white"/>
<path d="M359 136H411" stroke="#181818" stroke-width="3" stroke-linecap="round"/>
<path d="M359 224H411" stroke="#181818" stroke-width="3" stroke-linecap="round"/>
<path d="M398 47H363C351.954 47 343 55.9543 343 67V293C343 304.046 351.954 313 363 313H398" stroke="black" stroke-width="3" stroke-linecap="round"/>
<path d="M81 86H118C127.941 86 136 94.0589 136 104V131" stroke="black" stroke-width="3" stroke-linecap="round"/>
<path d="M81 274H118C127.941 274 136 265.941 136 256V229" stroke="black" stroke-width="3" stroke-linecap="round"/>
<path d="M185 180H213" stroke="#181818" stroke-width="3" stroke-linecap="round"/>
<path d="M299 180H327" stroke="#181818" stroke-width="3" stroke-linecap="round"/>
<path d="M51.4165 87.4227C51.4804 94.3083 57.457 96.5997 57.5232 96.6289C57.4726 96.7905 56.5682 99.8943 54.3744 103.1C52.478 105.872 50.5098 108.634 47.4092 108.691C44.3626 108.747 43.383 106.884 39.8998 106.884C36.4178 106.884 35.3293 108.634 32.4454 108.747C29.4526 108.86 27.1736 105.75 25.2614 102.988C21.3541 97.3392 18.3681 87.0255 22.3775 80.0636C24.3693 76.6063 27.9288 74.417 31.7923 74.3609C34.7312 74.3048 37.5052 76.3381 39.3017 76.3381C41.0972 76.3381 44.4681 73.8929 48.0118 74.252C49.4954 74.3138 53.6597 74.8513 56.3337 78.7653C56.1182 78.8989 51.3648 81.6661 51.4165 87.4227V87.4227ZM45.6907 70.5148C47.2796 68.5914 48.3491 65.914 48.0573 63.25C45.767 63.342 42.9976 64.7762 41.3548 66.6984C39.8825 68.4007 38.5932 71.1252 38.9411 73.7365C41.4939 73.934 44.1018 72.4393 45.6907 70.5148" fill="#181818"/>
<path d="M51.6858 268.188L55.9993 260.693C56.2428 260.272 56.0956 259.739 55.6823 259.494C55.2691 259.25 54.7313 259.392 54.4936 259.812L50.1235 267.405C46.7892 265.877 43.0361 265.025 39 265.025C34.9639 265.025 31.2108 265.877 27.8766 267.405L23.5064 259.812C23.263 259.392 22.7309 259.25 22.312 259.494C21.8931 259.739 21.7516 260.272 21.995 260.693L26.3085 268.188C18.8702 272.231 13.8321 279.784 13 288.625H65C64.1679 279.784 59.1298 272.231 51.6858 268.188ZM27.0614 281.3C25.8556 281.3 24.882 280.317 24.882 279.114C24.882 277.904 25.8613 276.927 27.0614 276.927C28.2671 276.927 29.2408 277.91 29.2408 279.114C29.2465 280.317 28.2671 281.3 27.0614 281.3ZM50.9329 281.3C49.7272 281.3 48.7535 280.317 48.7535 279.114C48.7535 277.904 49.7329 276.927 50.9329 276.927C52.1387 276.927 53.1123 277.91 53.1123 279.114C53.118 280.317 52.1387 281.3 50.9329 281.3Z" fill="#181818"/>
<path fill-rule="evenodd" clip-rule="evenodd" d="M155.91 198.237C150.974 203.623 143.881 207 136 207C128.015 207 120.84 203.534 115.896 198.024L135.98 178.684L155.91 198.237ZM159.482 193.336L138.795 173.039C137.25 171.523 134.778 171.512 133.219 173.013L112.376 193.084C110.225 189.208 109 184.747 109 180C109 165.088 121.088 153 136 153C150.912 153 163 165.088 163 180C163 184.85 161.721 189.402 159.482 193.336ZM169 180C169 198.225 154.225 213 136 213C117.775 213 103 198.225 103 180C103 161.775 117.775 147 136 147C154.225 147 169 161.775 169 180Z" fill="#0085FF"/>
<circle cx="256" cy="180" r="27" fill="#F8FBFF"/>
<path fill-rule="evenodd" clip-rule="evenodd" d="M236.105 174.899C236.339 174.957 236.588 174.926 236.8 174.813C237.011 174.699 237.168 174.511 237.238 174.289C238.729 169.809 241.916 166.025 246.173 163.678C250.431 161.331 255.451 160.592 260.249 161.606C260.481 161.652 260.723 161.611 260.924 161.492C261.125 161.372 261.271 161.183 261.33 160.964L262.145 158.055C262.177 157.938 262.184 157.816 262.165 157.697C262.147 157.577 262.103 157.462 262.037 157.359C261.971 157.256 261.884 157.167 261.781 157.097C261.677 157.027 261.561 156.978 261.437 156.952C255.375 155.644 249.02 156.571 243.64 159.547C238.26 162.524 234.251 167.331 232.411 173.011C232.376 173.125 232.365 173.245 232.379 173.363C232.393 173.481 232.432 173.595 232.493 173.698C232.554 173.801 232.636 173.892 232.734 173.964C232.833 174.037 232.945 174.09 233.065 174.12L236.105 174.899ZM251.423 171.62H278.417C278.931 171.62 279.347 172.019 279.347 172.511V175.519C279.347 176.011 278.931 176.41 278.417 176.41H251.423C250.909 176.41 250.492 176.011 250.492 175.519V172.511C250.492 172.019 250.909 171.62 251.423 171.62ZM233.569 183.59H260.563C261.077 183.59 261.493 183.989 261.493 184.481V187.489C261.493 187.981 261.077 188.38 260.563 188.38H233.569C233.055 188.38 232.638 187.981 232.638 187.489V184.481C232.638 183.989 233.055 183.59 233.569 183.59ZM275.198 185.187C275.409 185.074 275.658 185.043 275.893 185.101L278.933 185.88C279.053 185.91 279.165 185.963 279.264 186.036C279.362 186.108 279.444 186.199 279.505 186.302C279.566 186.405 279.605 186.52 279.619 186.637C279.633 186.755 279.622 186.875 279.587 186.989C277.747 192.669 273.738 197.476 268.358 200.453C262.978 203.429 256.623 204.356 250.561 203.048C250.438 203.022 250.321 202.973 250.217 202.903C250.114 202.833 250.027 202.744 249.961 202.641C249.895 202.538 249.851 202.423 249.833 202.303C249.814 202.184 249.821 202.062 249.853 201.945L250.667 199.036C250.727 198.817 250.873 198.628 251.074 198.508C251.275 198.389 251.517 198.348 251.749 198.394C256.546 199.408 261.567 198.669 265.824 196.322C270.082 193.976 273.269 190.191 274.76 185.711C274.83 185.489 274.987 185.301 275.198 185.187ZM270.26 166.361C271.776 166.361 273.005 165.186 273.005 163.735C273.005 162.285 271.776 161.109 270.26 161.109C268.745 161.109 267.516 162.285 267.516 163.735C267.516 165.186 268.745 166.361 270.26 166.361ZM244.479 196.265C244.479 197.715 243.25 198.891 241.735 198.891C240.219 198.891 238.99 197.715 238.99 196.265C238.99 194.815 240.219 193.639 241.735 193.639C243.25 193.639 244.479 194.815 244.479 196.265Z" fill="#52BD94"/>
<defs>
<clipPath id="clip0">
<rect width="48" height="48" fill="white" transform="translate(414 289)"/>
</clipPath>
<clipPath id="clip1">
<rect width="30" height="28.5" fill="white" transform="translate(423 298)"/>
</clipPath>
</defs>
</svg>
