<svg width="488" height="360" viewBox="0 0 488 360" fill="none" xmlns="http://www.w3.org/2000/svg">
<rect width="488" height="360" fill="white"/>
<path d="M66.1797 88.8594H62.5234V99H61.0312V88.8594H57.3828V87.625H66.1797V88.8594ZM71.1328 91.8438C70.9141 91.8073 70.6771 91.7891 70.4219 91.7891C69.474 91.7891 68.8307 92.1927 68.4922 93V99H67.0469V90.5469H68.4531L68.4766 91.5234C68.9505 90.7682 69.6224 90.3906 70.4922 90.3906C70.7734 90.3906 70.987 90.4271 71.1328 90.5V91.8438ZM74.0391 99H72.5938V90.5469H74.0391V99ZM72.4766 88.3047C72.4766 88.0703 72.5469 87.8724 72.6875 87.7109C72.8333 87.5495 73.0469 87.4688 73.3281 87.4688C73.6094 87.4688 73.8229 87.5495 73.9688 87.7109C74.1146 87.8724 74.1875 88.0703 74.1875 88.3047C74.1875 88.5391 74.1146 88.7344 73.9688 88.8906C73.8229 89.0469 73.6094 89.125 73.3281 89.125C73.0469 89.125 72.8333 89.0469 72.6875 88.8906C72.5469 88.7344 72.4766 88.5391 72.4766 88.3047ZM81.5781 99C81.4948 98.8333 81.4271 98.5365 81.375 98.1094C80.7031 98.8073 79.901 99.1562 78.9688 99.1562C78.1354 99.1562 77.4505 98.9219 76.9141 98.4531C76.3828 97.9792 76.1172 97.3802 76.1172 96.6562C76.1172 95.776 76.4505 95.0938 77.1172 94.6094C77.7891 94.1198 78.7318 93.875 79.9453 93.875H81.3516V93.2109C81.3516 92.7057 81.2005 92.3047 80.8984 92.0078C80.5964 91.7057 80.151 91.5547 79.5625 91.5547C79.0469 91.5547 78.6146 91.6849 78.2656 91.9453C77.9167 92.2057 77.7422 92.5208 77.7422 92.8906H76.2891C76.2891 92.4688 76.4375 92.0625 76.7344 91.6719C77.0365 91.276 77.4427 90.9635 77.9531 90.7344C78.4688 90.5052 79.0339 90.3906 79.6484 90.3906C80.6224 90.3906 81.3854 90.6354 81.9375 91.125C82.4896 91.6094 82.776 92.2786 82.7969 93.1328V97.0234C82.7969 97.7995 82.8958 98.4167 83.0938 98.875V99H81.5781ZM79.1797 97.8984C79.6328 97.8984 80.0625 97.7812 80.4688 97.5469C80.875 97.3125 81.1693 97.0078 81.3516 96.6328V94.8984H80.2188C78.4479 94.8984 77.5625 95.4167 77.5625 96.4531C77.5625 96.9062 77.7135 97.2604 78.0156 97.5156C78.3177 97.7708 78.7057 97.8984 79.1797 97.8984ZM86.6328 99H85.1875V87H86.6328V99ZM97.8438 96.7578C97.8438 96.3672 97.6953 96.0651 97.3984 95.8516C97.1068 95.6328 96.5938 95.4453 95.8594 95.2891C95.1302 95.1328 94.5495 94.9453 94.1172 94.7266C93.6901 94.5078 93.3724 94.2474 93.1641 93.9453C92.9609 93.6432 92.8594 93.2839 92.8594 92.8672C92.8594 92.1745 93.151 91.5885 93.7344 91.1094C94.3229 90.6302 95.0729 90.3906 95.9844 90.3906C96.9427 90.3906 97.7188 90.638 98.3125 91.1328C98.9115 91.6276 99.2109 92.2604 99.2109 93.0312H97.7578C97.7578 92.6354 97.5885 92.2943 97.25 92.0078C96.9167 91.7214 96.4948 91.5781 95.9844 91.5781C95.4583 91.5781 95.0469 91.6927 94.75 91.9219C94.4531 92.151 94.3047 92.4505 94.3047 92.8203C94.3047 93.1693 94.4427 93.4323 94.7188 93.6094C94.9948 93.7865 95.4922 93.9557 96.2109 94.1172C96.9349 94.2786 97.5208 94.4714 97.9688 94.6953C98.4167 94.9193 98.7474 95.1901 98.9609 95.5078C99.1797 95.8203 99.2891 96.2031 99.2891 96.6562C99.2891 97.4115 98.987 98.0182 98.3828 98.4766C97.7786 98.9297 96.9948 99.1562 96.0312 99.1562C95.3542 99.1562 94.7552 99.0365 94.2344 98.7969C93.7135 98.5573 93.3047 98.224 93.0078 97.7969C92.7161 97.3646 92.5703 96.8984 92.5703 96.3984H94.0156C94.0417 96.8828 94.2344 97.2682 94.5938 97.5547C94.9583 97.8359 95.4375 97.9766 96.0312 97.9766C96.5781 97.9766 97.0156 97.8672 97.3438 97.6484C97.6771 97.4245 97.8438 97.1276 97.8438 96.7578ZM103.133 88.5V90.5469H104.711V91.6641H103.133V96.9062C103.133 97.2448 103.203 97.5 103.344 97.6719C103.484 97.8385 103.724 97.9219 104.062 97.9219C104.229 97.9219 104.458 97.8906 104.75 97.8281V99C104.37 99.1042 104 99.1562 103.641 99.1562C102.995 99.1562 102.508 98.9609 102.18 98.5703C101.852 98.1797 101.688 97.625 101.688 96.9062V91.6641H100.148V90.5469H101.688V88.5H103.133ZM111.625 99C111.542 98.8333 111.474 98.5365 111.422 98.1094C110.75 98.8073 109.948 99.1562 109.016 99.1562C108.182 99.1562 107.497 98.9219 106.961 98.4531C106.43 97.9792 106.164 97.3802 106.164 96.6562C106.164 95.776 106.497 95.0938 107.164 94.6094C107.836 94.1198 108.779 93.875 109.992 93.875H111.398V93.2109C111.398 92.7057 111.247 92.3047 110.945 92.0078C110.643 91.7057 110.198 91.5547 109.609 91.5547C109.094 91.5547 108.661 91.6849 108.312 91.9453C107.964 92.2057 107.789 92.5208 107.789 92.8906H106.336C106.336 92.4688 106.484 92.0625 106.781 91.6719C107.083 91.276 107.49 90.9635 108 90.7344C108.516 90.5052 109.081 90.3906 109.695 90.3906C110.669 90.3906 111.432 90.6354 111.984 91.125C112.536 91.6094 112.823 92.2786 112.844 93.1328V97.0234C112.844 97.7995 112.943 98.4167 113.141 98.875V99H111.625ZM109.227 97.8984C109.68 97.8984 110.109 97.7812 110.516 97.5469C110.922 97.3125 111.216 97.0078 111.398 96.6328V94.8984H110.266C108.495 94.8984 107.609 95.4167 107.609 96.4531C107.609 96.9062 107.76 97.2604 108.062 97.5156C108.365 97.7708 108.753 97.8984 109.227 97.8984ZM119.195 91.8438C118.977 91.8073 118.74 91.7891 118.484 91.7891C117.536 91.7891 116.893 92.1927 116.555 93V99H115.109V90.5469H116.516L116.539 91.5234C117.013 90.7682 117.685 90.3906 118.555 90.3906C118.836 90.3906 119.049 90.4271 119.195 90.5V91.8438ZM122.883 88.5V90.5469H124.461V91.6641H122.883V96.9062C122.883 97.2448 122.953 97.5 123.094 97.6719C123.234 97.8385 123.474 97.9219 123.812 97.9219C123.979 97.9219 124.208 97.8906 124.5 97.8281V99C124.12 99.1042 123.75 99.1562 123.391 99.1562C122.745 99.1562 122.258 98.9609 121.93 98.5703C121.602 98.1797 121.438 97.625 121.438 96.9062V91.6641H119.898V90.5469H121.438V88.5H122.883ZM129.664 99.1562C128.518 99.1562 127.586 98.7812 126.867 98.0312C126.148 97.276 125.789 96.2682 125.789 95.0078V94.7422C125.789 93.9036 125.948 93.1562 126.266 92.5C126.589 91.8385 127.036 91.3229 127.609 90.9531C128.188 90.5781 128.812 90.3906 129.484 90.3906C130.583 90.3906 131.438 90.7526 132.047 91.4766C132.656 92.2005 132.961 93.237 132.961 94.5859V95.1875H127.234C127.255 96.0208 127.497 96.6953 127.961 97.2109C128.43 97.7214 129.023 97.9766 129.742 97.9766C130.253 97.9766 130.685 97.8724 131.039 97.6641C131.393 97.4557 131.703 97.1797 131.969 96.8359L132.852 97.5234C132.143 98.612 131.081 99.1562 129.664 99.1562ZM129.484 91.5781C128.901 91.5781 128.411 91.7917 128.016 92.2188C127.62 92.6406 127.375 93.2344 127.281 94H131.516V93.8906C131.474 93.1562 131.276 92.5885 130.922 92.1875C130.568 91.7812 130.089 91.5781 129.484 91.5781ZM134.289 94.7031C134.289 93.4062 134.596 92.3646 135.211 91.5781C135.826 90.7865 136.63 90.3906 137.625 90.3906C138.615 90.3906 139.398 90.7292 139.977 91.4062V87H141.422V99H140.094L140.023 98.0938C139.445 98.8021 138.641 99.1562 137.609 99.1562C136.63 99.1562 135.831 98.7552 135.211 97.9531C134.596 97.151 134.289 96.1042 134.289 94.8125V94.7031ZM135.734 94.8672C135.734 95.8255 135.932 96.5755 136.328 97.1172C136.724 97.6589 137.271 97.9297 137.969 97.9297C138.885 97.9297 139.555 97.5182 139.977 96.6953V92.8125C139.544 92.0156 138.88 91.6172 137.984 91.6172C137.276 91.6172 136.724 91.8906 136.328 92.4375C135.932 92.9844 135.734 93.7943 135.734 94.8672Z" fill="#181818"/>
<path d="M56.1797 213.859H52.5234V224H51.0312V213.859H47.3828V212.625H56.1797V213.859ZM61.1328 216.844C60.9141 216.807 60.6771 216.789 60.4219 216.789C59.474 216.789 58.8307 217.193 58.4922 218V224H57.0469V215.547H58.4531L58.4766 216.523C58.9505 215.768 59.6224 215.391 60.4922 215.391C60.7734 215.391 60.987 215.427 61.1328 215.5V216.844ZM64.0391 224H62.5938V215.547H64.0391V224ZM62.4766 213.305C62.4766 213.07 62.5469 212.872 62.6875 212.711C62.8333 212.549 63.0469 212.469 63.3281 212.469C63.6094 212.469 63.8229 212.549 63.9688 212.711C64.1146 212.872 64.1875 213.07 64.1875 213.305C64.1875 213.539 64.1146 213.734 63.9688 213.891C63.8229 214.047 63.6094 214.125 63.3281 214.125C63.0469 214.125 62.8333 214.047 62.6875 213.891C62.5469 213.734 62.4766 213.539 62.4766 213.305ZM71.5781 224C71.4948 223.833 71.4271 223.536 71.375 223.109C70.7031 223.807 69.901 224.156 68.9688 224.156C68.1354 224.156 67.4505 223.922 66.9141 223.453C66.3828 222.979 66.1172 222.38 66.1172 221.656C66.1172 220.776 66.4505 220.094 67.1172 219.609C67.7891 219.12 68.7318 218.875 69.9453 218.875H71.3516V218.211C71.3516 217.706 71.2005 217.305 70.8984 217.008C70.5964 216.706 70.151 216.555 69.5625 216.555C69.0469 216.555 68.6146 216.685 68.2656 216.945C67.9167 217.206 67.7422 217.521 67.7422 217.891H66.2891C66.2891 217.469 66.4375 217.062 66.7344 216.672C67.0365 216.276 67.4427 215.964 67.9531 215.734C68.4688 215.505 69.0339 215.391 69.6484 215.391C70.6224 215.391 71.3854 215.635 71.9375 216.125C72.4896 216.609 72.776 217.279 72.7969 218.133V222.023C72.7969 222.799 72.8958 223.417 73.0938 223.875V224H71.5781ZM69.1797 222.898C69.6328 222.898 70.0625 222.781 70.4688 222.547C70.875 222.312 71.1693 222.008 71.3516 221.633V219.898H70.2188C68.4479 219.898 67.5625 220.417 67.5625 221.453C67.5625 221.906 67.7135 222.26 68.0156 222.516C68.3177 222.771 68.7057 222.898 69.1797 222.898ZM76.6328 224H75.1875V212H76.6328V224ZM86.3125 222.977C86.8281 222.977 87.2786 222.82 87.6641 222.508C88.0495 222.195 88.263 221.805 88.3047 221.336H89.6719C89.6458 221.82 89.4792 222.281 89.1719 222.719C88.8646 223.156 88.4531 223.505 87.9375 223.766C87.4271 224.026 86.8854 224.156 86.3125 224.156C85.1615 224.156 84.2448 223.773 83.5625 223.008C82.8854 222.237 82.5469 221.185 82.5469 219.852V219.609C82.5469 218.786 82.6979 218.055 83 217.414C83.3021 216.773 83.7344 216.276 84.2969 215.922C84.8646 215.568 85.5339 215.391 86.3047 215.391C87.2526 215.391 88.0391 215.674 88.6641 216.242C89.2943 216.81 89.6302 217.547 89.6719 218.453H88.3047C88.263 217.906 88.0547 217.458 87.6797 217.109C87.3099 216.755 86.8516 216.578 86.3047 216.578C85.5703 216.578 85 216.844 84.5938 217.375C84.1927 217.901 83.9922 218.664 83.9922 219.664V219.938C83.9922 220.911 84.1927 221.661 84.5938 222.188C84.9948 222.714 85.5677 222.977 86.3125 222.977ZM90.9141 219.695C90.9141 218.867 91.0755 218.122 91.3984 217.461C91.7266 216.799 92.1797 216.289 92.7578 215.93C93.3411 215.57 94.0052 215.391 94.75 215.391C95.901 215.391 96.8307 215.789 97.5391 216.586C98.2526 217.383 98.6094 218.443 98.6094 219.766V219.867C98.6094 220.69 98.4505 221.43 98.1328 222.086C97.8203 222.737 97.3698 223.245 96.7812 223.609C96.1979 223.974 95.526 224.156 94.7656 224.156C93.6198 224.156 92.6901 223.758 91.9766 222.961C91.2682 222.164 90.9141 221.109 90.9141 219.797V219.695ZM92.3672 219.867C92.3672 220.805 92.5833 221.557 93.0156 222.125C93.4531 222.693 94.0365 222.977 94.7656 222.977C95.5 222.977 96.0833 222.69 96.5156 222.117C96.9479 221.539 97.1641 220.732 97.1641 219.695C97.1641 218.768 96.9427 218.018 96.5 217.445C96.0625 216.867 95.4792 216.578 94.75 216.578C94.0365 216.578 93.4609 216.862 93.0234 217.43C92.5859 217.997 92.3672 218.81 92.3672 219.867ZM101.789 215.547L101.836 216.609C102.482 215.797 103.326 215.391 104.367 215.391C106.154 215.391 107.055 216.398 107.07 218.414V224H105.625V218.406C105.62 217.797 105.479 217.346 105.203 217.055C104.932 216.763 104.508 216.617 103.93 216.617C103.461 216.617 103.049 216.742 102.695 216.992C102.341 217.242 102.065 217.57 101.867 217.977V224H100.422V215.547H101.789ZM112.039 222.039L114.133 215.547H115.609L112.578 224H111.477L108.414 215.547H109.891L112.039 222.039ZM120.398 224.156C119.253 224.156 118.32 223.781 117.602 223.031C116.883 222.276 116.523 221.268 116.523 220.008V219.742C116.523 218.904 116.682 218.156 117 217.5C117.323 216.839 117.771 216.323 118.344 215.953C118.922 215.578 119.547 215.391 120.219 215.391C121.318 215.391 122.172 215.753 122.781 216.477C123.391 217.201 123.695 218.237 123.695 219.586V220.188H117.969C117.99 221.021 118.232 221.695 118.695 222.211C119.164 222.721 119.758 222.977 120.477 222.977C120.987 222.977 121.419 222.872 121.773 222.664C122.128 222.456 122.438 222.18 122.703 221.836L123.586 222.523C122.878 223.612 121.815 224.156 120.398 224.156ZM120.219 216.578C119.635 216.578 119.146 216.792 118.75 217.219C118.354 217.641 118.109 218.234 118.016 219H122.25V218.891C122.208 218.156 122.01 217.589 121.656 217.188C121.302 216.781 120.823 216.578 120.219 216.578ZM129.461 216.844C129.242 216.807 129.005 216.789 128.75 216.789C127.802 216.789 127.159 217.193 126.82 218V224H125.375V215.547H126.781L126.805 216.523C127.279 215.768 127.951 215.391 128.82 215.391C129.102 215.391 129.315 215.427 129.461 215.5V216.844ZM133.148 213.5V215.547H134.727V216.664H133.148V221.906C133.148 222.245 133.219 222.5 133.359 222.672C133.5 222.839 133.74 222.922 134.078 222.922C134.245 222.922 134.474 222.891 134.766 222.828V224C134.385 224.104 134.016 224.156 133.656 224.156C133.01 224.156 132.523 223.961 132.195 223.57C131.867 223.18 131.703 222.625 131.703 221.906V216.664H130.164V215.547H131.703V213.5H133.148ZM139.93 224.156C138.784 224.156 137.852 223.781 137.133 223.031C136.414 222.276 136.055 221.268 136.055 220.008V219.742C136.055 218.904 136.214 218.156 136.531 217.5C136.854 216.839 137.302 216.323 137.875 215.953C138.453 215.578 139.078 215.391 139.75 215.391C140.849 215.391 141.703 215.753 142.312 216.477C142.922 217.201 143.227 218.237 143.227 219.586V220.188H137.5C137.521 221.021 137.763 221.695 138.227 222.211C138.695 222.721 139.289 222.977 140.008 222.977C140.518 222.977 140.951 222.872 141.305 222.664C141.659 222.456 141.969 222.18 142.234 221.836L143.117 222.523C142.409 223.612 141.346 224.156 139.93 224.156ZM139.75 216.578C139.167 216.578 138.677 216.792 138.281 217.219C137.885 217.641 137.641 218.234 137.547 219H141.781V218.891C141.74 218.156 141.542 217.589 141.188 217.188C140.833 216.781 140.354 216.578 139.75 216.578ZM144.555 219.703C144.555 218.406 144.862 217.365 145.477 216.578C146.091 215.786 146.896 215.391 147.891 215.391C148.88 215.391 149.664 215.729 150.242 216.406V212H151.688V224H150.359L150.289 223.094C149.711 223.802 148.906 224.156 147.875 224.156C146.896 224.156 146.096 223.755 145.477 222.953C144.862 222.151 144.555 221.104 144.555 219.812V219.703ZM146 219.867C146 220.826 146.198 221.576 146.594 222.117C146.99 222.659 147.536 222.93 148.234 222.93C149.151 222.93 149.82 222.518 150.242 221.695V217.812C149.81 217.016 149.146 216.617 148.25 216.617C147.542 216.617 146.99 216.891 146.594 217.438C146.198 217.984 146 218.794 146 219.867Z" fill="#181818"/>
<circle cx="100" cy="37" r="32" fill="#FFD12D"/>
<path fill-rule="evenodd" clip-rule="evenodd" d="M110.69 25.4622L113.015 25.042L112.395 27.2479L112.392 27.2587C111.321 31.2416 109.074 34.8401 105.949 37.6552L105.936 37.6666L105.924 37.6783C105.757 37.8397 105.716 37.8754 105.649 37.9179L105.61 37.9432L100.093 42.2647C99.9962 42.3175 99.91 42.3854 99.8368 42.465L99.4419 42.7743L93.6587 36.6926L98.2738 31.7821C98.3748 31.7088 98.4622 31.6165 98.5304 31.5092L98.6872 31.3423L98.693 31.3359C99.0403 30.9533 99.3628 30.6461 99.7152 30.3913L99.7403 30.3732L99.7642 30.3536C102.888 27.7862 106.628 26.1065 110.679 25.4638L110.69 25.4622ZM97.3061 29.8891C97.6735 29.4926 98.0643 29.1204 98.5177 28.7893C101.912 26.0071 105.97 24.1879 110.355 23.4902L112.922 23.0263L112.932 23.0248C114.276 22.8088 115.379 24.0265 115.016 25.3146L115.015 25.3156L114.322 27.7837C113.147 32.1463 110.692 36.0697 107.3 39.1297L107.293 39.1369C107.192 39.2344 107.081 39.3409 106.944 39.4483C107.249 41.5569 106.705 44.1007 105.274 46.4012C104.352 47.9003 103.131 49.1986 101.817 50.0624L100.459 50.9551L99.7838 45.047L99.2447 45.4692L90.9065 36.7007L91.1556 36.4356L85.5022 35.3457L86.5964 34.0428C87.6196 32.8243 89.0318 31.8158 90.6825 31.0473C92.9164 29.9961 95.2939 29.6007 97.3061 29.8891ZM95.5015 31.8116C94.2655 31.8814 92.8909 32.2182 91.5324 32.8578L91.5284 32.8597C90.7556 33.2193 90.0668 33.6278 89.4717 34.0742L92.7762 34.7113L95.5015 31.8116ZM101.631 43.5999L102.053 47.2886C102.608 46.7313 103.127 46.0749 103.572 45.3514L103.575 45.3467C104.505 43.8525 104.955 42.2977 105.018 40.9472L101.631 43.5999ZM93.5399 43.3709C92.5859 42.3776 90.9964 42.3237 89.9372 43.2313C89.7446 43.3964 89.429 43.8533 89.0443 44.6191C88.6818 45.3408 88.3192 46.2088 87.9938 47.058C87.7787 47.6192 87.5827 48.1648 87.4167 48.6437C87.9375 48.5212 88.5369 48.3738 89.1562 48.2089C90.0623 47.9675 90.9952 47.6925 91.7809 47.407C92.602 47.1087 93.1243 46.8461 93.3363 46.6684C94.385 45.7251 94.4502 44.3186 93.5399 43.3709ZM84.9605 49.7073C84.9605 49.7073 84.9605 49.7075 85.9167 50.0002L84.9605 49.7073ZM86.1153 50.9802L86.136 50.976L86.1941 50.9641C86.2446 50.9536 86.3182 50.9383 86.412 50.9184C86.5997 50.8786 86.8685 50.8205 87.1952 50.747C87.8478 50.6001 88.7353 50.3907 89.671 50.1415C90.6036 49.893 91.5997 49.6008 92.4638 49.2868C93.2837 48.9889 94.1297 48.6223 94.6443 48.1814L94.652 48.1748L94.6596 48.1681C96.4912 46.5332 96.7441 43.8197 94.9823 41.9855C93.2619 40.1943 90.4651 40.1452 88.6359 41.7126C88.1064 42.1663 87.6397 42.9598 87.2571 43.7215C86.8523 44.5273 86.4628 45.4641 86.1262 46.3423C85.7884 47.2238 85.4976 48.0635 85.2915 48.6816C85.1883 48.9911 85.106 49.2461 85.0493 49.4244C85.0209 49.5135 84.9989 49.5835 84.984 49.6316L84.9668 49.687L84.9605 49.7073L84.469 51.313L86.1153 50.9802ZM85.9167 50.0002L86.1153 50.9802C86.1153 50.9802 86.1148 50.9803 85.9167 50.0002Z" fill="white"/>
<circle cx="100" cy="162" r="32" fill="#93E6CF"/>
<path fill-rule="evenodd" clip-rule="evenodd" d="M100.494 146.786C101.046 146.786 101.494 147.234 101.494 147.786V151.255C103.093 151.427 104.557 152.005 105.693 152.881C107.064 153.937 108 155.467 108 157.236C108 157.788 107.552 158.236 107 158.236C106.448 158.236 106 157.788 106 157.236C106 156.217 105.464 155.229 104.472 154.465C103.479 153.7 102.071 153.201 100.493 153.201C98.915 153.201 97.5069 153.7 96.5138 154.465C95.5218 155.229 94.9863 156.217 94.9863 157.236C94.9863 159.286 96.8107 161.271 100.493 161.271C102.793 161.271 104.666 161.878 105.984 162.974C107.315 164.081 108 165.626 108 167.306C108 169.076 107.064 170.606 105.693 171.662C104.557 172.537 103.093 173.116 101.494 173.288V176.214C101.494 176.766 101.046 177.214 100.494 177.214C99.9419 177.214 99.4941 176.766 99.4941 176.214V173.288C97.8941 173.116 96.4298 172.537 95.2932 171.662C93.9226 170.606 92.9863 169.076 92.9863 167.306C92.9863 166.754 93.434 166.306 93.9863 166.306C94.5386 166.306 94.9863 166.754 94.9863 167.306C94.9863 168.325 95.5218 169.313 96.5138 170.077C97.5069 170.843 98.915 171.341 100.493 171.341C102.071 171.341 103.479 170.843 104.472 170.077C105.464 169.313 106 168.325 106 167.306C106 166.198 105.562 165.225 104.705 164.512C103.834 163.787 102.454 163.271 100.493 163.271C96.1196 163.271 92.9863 160.763 92.9863 157.236C92.9863 155.467 93.9226 153.937 95.2932 152.881C96.4298 152.005 97.8941 151.426 99.4941 151.254V147.786C99.4941 147.234 99.9419 146.786 100.494 146.786Z" fill="white"/>
<path fill-rule="evenodd" clip-rule="evenodd" d="M293.293 182.075C287.802 188.169 279.849 192 271 192C262.037 192 253.991 188.069 248.494 181.837L270.98 160.184L293.293 182.075ZM296.878 177.187L273.795 154.539C272.25 153.023 269.778 153.012 268.219 154.513L244.961 176.909C242.441 172.517 241 167.427 241 162C241 145.431 254.431 132 271 132C287.569 132 301 145.431 301 162C301 167.542 299.498 172.732 296.878 177.187ZM307 162C307 181.882 290.882 198 271 198C251.118 198 235 181.882 235 162C235 142.118 251.118 126 271 126C290.882 126 307 142.118 307 162Z" fill="#0085FF"/>
<path d="M466.382 179.249H412.618C410.091 179.249 408 176.891 408 174.041V149.959C408 147.109 410.091 144.751 412.618 144.751H466.382C468.909 144.751 471 147.109 471 149.959V174.041C471 176.891 468.996 179.249 466.382 179.249Z" fill="white" stroke="#181818" stroke-width="3" stroke-miterlimit="10" stroke-linecap="round"/>
<path d="M466.382 144.498H412.618C410.091 144.498 408 142.14 408 139.29V115.208C408 112.359 410.091 110 412.618 110H466.382C468.909 110 471 112.359 471 115.208V139.29C471 142.14 468.996 144.498 466.382 144.498Z" fill="white" stroke="#181818" stroke-width="3" stroke-miterlimit="10" stroke-linecap="round"/>
<path d="M466.382 214H412.618C410.091 214 408 211.641 408 208.792V184.71C408 181.86 410.091 179.501 412.618 179.501H466.382C468.909 179.501 471 181.86 471 184.71V208.792C471 211.641 468.996 214 466.382 214Z" fill="white" stroke="#181818" stroke-width="3" stroke-miterlimit="10" stroke-linecap="round"/>
<path d="M456.382 179.249H402.618C400.091 179.249 398 176.891 398 174.041V149.959C398 147.109 400.091 144.751 402.618 144.751H456.382C458.909 144.751 461 147.109 461 149.959V174.041C461 176.891 458.996 179.249 456.382 179.249Z" fill="white" stroke="#181818" stroke-width="3" stroke-miterlimit="10" stroke-linecap="round"/>
<path d="M456.382 144.498H402.618C400.091 144.498 398 142.14 398 139.29V115.208C398 112.359 400.091 110 402.618 110H456.382C458.909 110 461 112.359 461 115.208V139.29C461 142.14 458.996 144.498 456.382 144.498Z" fill="white" stroke="#181818" stroke-width="3" stroke-miterlimit="10" stroke-linecap="round"/>
<path d="M456.382 214H402.618C400.091 214 398 211.641 398 208.792V184.71C398 181.86 400.091 179.501 402.618 179.501H456.382C458.909 179.501 461 181.86 461 184.71V208.792C461 211.641 458.996 214 456.382 214Z" fill="white" stroke="#181818" stroke-width="3" stroke-miterlimit="10" stroke-linecap="round"/>
<path d="M414.6 190.423L409.7 201.643" stroke="#181818" stroke-width="3" stroke-miterlimit="10" stroke-linecap="round"/>
<path d="M414.6 155.672L409.7 166.892" stroke="#181818" stroke-width="3" stroke-miterlimit="10" stroke-linecap="round"/>
<path d="M414.6 120.922L409.7 132.141" stroke="#181818" stroke-width="3" stroke-miterlimit="10" stroke-linecap="round"/>
<path d="M423.6 190.423L418.7 201.643" stroke="#181818" stroke-width="3" stroke-miterlimit="10" stroke-linecap="round"/>
<path d="M423.6 155.672L418.7 166.892" stroke="#181818" stroke-width="3" stroke-miterlimit="10" stroke-linecap="round"/>
<path d="M423.6 120.922L418.7 132.141" stroke="#181818" stroke-width="3" stroke-miterlimit="10" stroke-linecap="round"/>
<path d="M448 163.616C449.105 163.616 450 162.727 450 161.63C450 160.533 449.105 159.644 448 159.644C446.895 159.644 446 160.533 446 161.63C446 162.727 446.895 163.616 448 163.616Z" fill="#181818"/>
<path d="M448 128.865C449.105 128.865 450 127.976 450 126.879C450 125.782 449.105 124.893 448 124.893C446.895 124.893 446 125.782 446 126.879C446 127.976 446.895 128.865 448 128.865Z" fill="#181818"/>
<path d="M448 198.366C449.105 198.366 450 197.477 450 196.381C450 195.284 449.105 194.395 448 194.395C446.895 194.395 446 195.284 446 196.381C446 197.477 446.895 198.366 448 198.366Z" fill="#181818"/>
<path d="M22.6719 343.93C21.3854 343.56 20.4479 343.107 19.8594 342.57C19.276 342.029 18.9844 341.362 18.9844 340.57C18.9844 339.674 19.3411 338.935 20.0547 338.352C20.7734 337.763 21.7057 337.469 22.8516 337.469C23.6328 337.469 24.3281 337.62 24.9375 337.922C25.5521 338.224 26.026 338.641 26.3594 339.172C26.6979 339.703 26.8672 340.284 26.8672 340.914H25.3594C25.3594 340.227 25.1406 339.688 24.7031 339.297C24.2656 338.901 23.6484 338.703 22.8516 338.703C22.112 338.703 21.5339 338.867 21.1172 339.195C20.7057 339.518 20.5 339.969 20.5 340.547C20.5 341.01 20.6953 341.404 21.0859 341.727C21.4818 342.044 22.151 342.336 23.0938 342.602C24.0417 342.867 24.7812 343.161 25.3125 343.484C25.849 343.802 26.2448 344.174 26.5 344.602C26.7604 345.029 26.8906 345.531 26.8906 346.109C26.8906 347.031 26.5312 347.771 25.8125 348.328C25.0938 348.88 24.1328 349.156 22.9297 349.156C22.1484 349.156 21.4193 349.008 20.7422 348.711C20.0651 348.409 19.5417 347.997 19.1719 347.477C18.8073 346.956 18.625 346.365 18.625 345.703H20.1328C20.1328 346.391 20.3854 346.935 20.8906 347.336C21.401 347.732 22.0807 347.93 22.9297 347.93C23.7214 347.93 24.3281 347.768 24.75 347.445C25.1719 347.122 25.3828 346.682 25.3828 346.125C25.3828 345.568 25.1875 345.138 24.7969 344.836C24.4062 344.529 23.6979 344.227 22.6719 343.93ZM33.8125 348.164C33.25 348.826 32.4245 349.156 31.3359 349.156C30.4349 349.156 29.7474 348.896 29.2734 348.375C28.8047 347.849 28.5677 347.073 28.5625 346.047V340.547H30.0078V346.008C30.0078 347.289 30.5286 347.93 31.5703 347.93C32.6745 347.93 33.4089 347.518 33.7734 346.695V340.547H35.2188V349H33.8438L33.8125 348.164ZM44.5781 344.867C44.5781 346.159 44.2812 347.198 43.6875 347.984C43.0938 348.766 42.2969 349.156 41.2969 349.156C40.2292 349.156 39.4036 348.779 38.8203 348.023L38.75 349H37.4219V337H38.8672V341.477C39.4505 340.753 40.2552 340.391 41.2812 340.391C42.3073 340.391 43.112 340.779 43.6953 341.555C44.2839 342.331 44.5781 343.393 44.5781 344.742V344.867ZM43.1328 344.703C43.1328 343.719 42.9427 342.958 42.5625 342.422C42.1823 341.885 41.6354 341.617 40.9219 341.617C39.9688 341.617 39.2839 342.06 38.8672 342.945V346.602C39.3099 347.487 40 347.93 40.9375 347.93C41.6302 347.93 42.1693 347.661 42.5547 347.125C42.9401 346.589 43.1328 345.781 43.1328 344.703ZM51.3281 346.758C51.3281 346.367 51.1797 346.065 50.8828 345.852C50.5911 345.633 50.0781 345.445 49.3438 345.289C48.6146 345.133 48.0339 344.945 47.6016 344.727C47.1745 344.508 46.8568 344.247 46.6484 343.945C46.4453 343.643 46.3438 343.284 46.3438 342.867C46.3438 342.174 46.6354 341.589 47.2188 341.109C47.8073 340.63 48.5573 340.391 49.4688 340.391C50.4271 340.391 51.2031 340.638 51.7969 341.133C52.3958 341.628 52.6953 342.26 52.6953 343.031H51.2422C51.2422 342.635 51.0729 342.294 50.7344 342.008C50.401 341.721 49.9792 341.578 49.4688 341.578C48.9427 341.578 48.5312 341.693 48.2344 341.922C47.9375 342.151 47.7891 342.451 47.7891 342.82C47.7891 343.169 47.9271 343.432 48.2031 343.609C48.4792 343.786 48.9766 343.956 49.6953 344.117C50.4193 344.279 51.0052 344.471 51.4531 344.695C51.901 344.919 52.2318 345.19 52.4453 345.508C52.6641 345.82 52.7734 346.203 52.7734 346.656C52.7734 347.411 52.4714 348.018 51.8672 348.477C51.263 348.93 50.4792 349.156 49.5156 349.156C48.8385 349.156 48.2396 349.036 47.7188 348.797C47.1979 348.557 46.7891 348.224 46.4922 347.797C46.2005 347.365 46.0547 346.898 46.0547 346.398H47.5C47.526 346.883 47.7188 347.268 48.0781 347.555C48.4427 347.836 48.9219 347.977 49.5156 347.977C50.0625 347.977 50.5 347.867 50.8281 347.648C51.1615 347.424 51.3281 347.128 51.3281 346.758ZM58.0469 347.977C58.5625 347.977 59.013 347.82 59.3984 347.508C59.7839 347.195 59.9974 346.805 60.0391 346.336H61.4062C61.3802 346.82 61.2135 347.281 60.9062 347.719C60.599 348.156 60.1875 348.505 59.6719 348.766C59.1615 349.026 58.6198 349.156 58.0469 349.156C56.8958 349.156 55.9792 348.773 55.2969 348.008C54.6198 347.237 54.2812 346.185 54.2812 344.852V344.609C54.2812 343.786 54.4323 343.055 54.7344 342.414C55.0365 341.773 55.4688 341.276 56.0312 340.922C56.599 340.568 57.2682 340.391 58.0391 340.391C58.987 340.391 59.7734 340.674 60.3984 341.242C61.0286 341.81 61.3646 342.547 61.4062 343.453H60.0391C59.9974 342.906 59.7891 342.458 59.4141 342.109C59.0443 341.755 58.5859 341.578 58.0391 341.578C57.3047 341.578 56.7344 341.844 56.3281 342.375C55.9271 342.901 55.7266 343.664 55.7266 344.664V344.938C55.7266 345.911 55.9271 346.661 56.3281 347.188C56.7292 347.714 57.3021 347.977 58.0469 347.977ZM67.1172 341.844C66.8984 341.807 66.6615 341.789 66.4062 341.789C65.4583 341.789 64.8151 342.193 64.4766 343V349H63.0312V340.547H64.4375L64.4609 341.523C64.9349 340.768 65.6068 340.391 66.4766 340.391C66.7578 340.391 66.9714 340.427 67.1172 340.5V341.844ZM70.0234 349H68.5781V340.547H70.0234V349ZM68.4609 338.305C68.4609 338.07 68.5312 337.872 68.6719 337.711C68.8177 337.549 69.0312 337.469 69.3125 337.469C69.5938 337.469 69.8073 337.549 69.9531 337.711C70.099 337.872 70.1719 338.07 70.1719 338.305C70.1719 338.539 70.099 338.734 69.9531 338.891C69.8073 339.047 69.5938 339.125 69.3125 339.125C69.0312 339.125 68.8177 339.047 68.6719 338.891C68.5312 338.734 68.4609 338.539 68.4609 338.305ZM79.4844 344.867C79.4844 346.154 79.1901 347.19 78.6016 347.977C78.013 348.763 77.2161 349.156 76.2109 349.156C75.1849 349.156 74.3776 348.831 73.7891 348.18V352.25H72.3438V340.547H73.6641L73.7344 341.484C74.3229 340.755 75.1406 340.391 76.1875 340.391C77.2031 340.391 78.0052 340.773 78.5938 341.539C79.1875 342.305 79.4844 343.37 79.4844 344.734V344.867ZM78.0391 344.703C78.0391 343.75 77.8359 342.997 77.4297 342.445C77.0234 341.893 76.4661 341.617 75.7578 341.617C74.8828 341.617 74.2266 342.005 73.7891 342.781V346.82C74.2214 347.591 74.8828 347.977 75.7734 347.977C76.4661 347.977 77.0156 347.703 77.4219 347.156C77.8333 346.604 78.0391 345.786 78.0391 344.703ZM83.2891 338.5V340.547H84.8672V341.664H83.2891V346.906C83.2891 347.245 83.3594 347.5 83.5 347.672C83.6406 347.839 83.8802 347.922 84.2188 347.922C84.3854 347.922 84.6146 347.891 84.9062 347.828V349C84.526 349.104 84.1562 349.156 83.7969 349.156C83.151 349.156 82.6641 348.961 82.3359 348.57C82.0078 348.18 81.8438 347.625 81.8438 346.906V341.664H80.3047V340.547H81.8438V338.5H83.2891ZM88.1328 349H86.6875V340.547H88.1328V349ZM86.5703 338.305C86.5703 338.07 86.6406 337.872 86.7812 337.711C86.9271 337.549 87.1406 337.469 87.4219 337.469C87.7031 337.469 87.9167 337.549 88.0625 337.711C88.2083 337.872 88.2812 338.07 88.2812 338.305C88.2812 338.539 88.2083 338.734 88.0625 338.891C87.9167 339.047 87.7031 339.125 87.4219 339.125C87.1406 339.125 86.9271 339.047 86.7812 338.891C86.6406 338.734 86.5703 338.539 86.5703 338.305ZM90.0703 344.695C90.0703 343.867 90.2318 343.122 90.5547 342.461C90.8828 341.799 91.3359 341.289 91.9141 340.93C92.4974 340.57 93.1615 340.391 93.9062 340.391C95.0573 340.391 95.987 340.789 96.6953 341.586C97.4089 342.383 97.7656 343.443 97.7656 344.766V344.867C97.7656 345.69 97.6068 346.43 97.2891 347.086C96.9766 347.737 96.526 348.245 95.9375 348.609C95.3542 348.974 94.6823 349.156 93.9219 349.156C92.776 349.156 91.8464 348.758 91.1328 347.961C90.4245 347.164 90.0703 346.109 90.0703 344.797V344.695ZM91.5234 344.867C91.5234 345.805 91.7396 346.557 92.1719 347.125C92.6094 347.693 93.1927 347.977 93.9219 347.977C94.6562 347.977 95.2396 347.69 95.6719 347.117C96.1042 346.539 96.3203 345.732 96.3203 344.695C96.3203 343.768 96.099 343.018 95.6562 342.445C95.2188 341.867 94.6354 341.578 93.9062 341.578C93.1927 341.578 92.6172 341.862 92.1797 342.43C91.7422 342.997 91.5234 343.81 91.5234 344.867ZM100.945 340.547L100.992 341.609C101.638 340.797 102.482 340.391 103.523 340.391C105.31 340.391 106.211 341.398 106.227 343.414V349H104.781V343.406C104.776 342.797 104.635 342.346 104.359 342.055C104.089 341.763 103.664 341.617 103.086 341.617C102.617 341.617 102.206 341.742 101.852 341.992C101.497 342.242 101.221 342.57 101.023 342.977V349H99.5781V340.547H100.945ZM120.969 345.391C120.828 346.594 120.383 347.523 119.633 348.18C118.888 348.831 117.896 349.156 116.656 349.156C115.312 349.156 114.234 348.674 113.422 347.711C112.615 346.747 112.211 345.458 112.211 343.844V342.75C112.211 341.693 112.398 340.763 112.773 339.961C113.154 339.159 113.69 338.544 114.383 338.117C115.076 337.685 115.878 337.469 116.789 337.469C117.997 337.469 118.966 337.807 119.695 338.484C120.424 339.156 120.849 340.089 120.969 341.281H119.461C119.331 340.375 119.047 339.719 118.609 339.312C118.177 338.906 117.57 338.703 116.789 338.703C115.831 338.703 115.078 339.057 114.531 339.766C113.99 340.474 113.719 341.482 113.719 342.789V343.891C113.719 345.125 113.977 346.107 114.492 346.836C115.008 347.565 115.729 347.93 116.656 347.93C117.49 347.93 118.128 347.742 118.57 347.367C119.018 346.987 119.315 346.328 119.461 345.391H120.969ZM128.016 349C127.932 348.833 127.865 348.536 127.812 348.109C127.141 348.807 126.339 349.156 125.406 349.156C124.573 349.156 123.888 348.922 123.352 348.453C122.82 347.979 122.555 347.38 122.555 346.656C122.555 345.776 122.888 345.094 123.555 344.609C124.227 344.12 125.169 343.875 126.383 343.875H127.789V343.211C127.789 342.706 127.638 342.305 127.336 342.008C127.034 341.706 126.589 341.555 126 341.555C125.484 341.555 125.052 341.685 124.703 341.945C124.354 342.206 124.18 342.521 124.18 342.891H122.727C122.727 342.469 122.875 342.062 123.172 341.672C123.474 341.276 123.88 340.964 124.391 340.734C124.906 340.505 125.471 340.391 126.086 340.391C127.06 340.391 127.823 340.635 128.375 341.125C128.927 341.609 129.214 342.279 129.234 343.133V347.023C129.234 347.799 129.333 348.417 129.531 348.875V349H128.016ZM125.617 347.898C126.07 347.898 126.5 347.781 126.906 347.547C127.312 347.312 127.607 347.008 127.789 346.633V344.898H126.656C124.885 344.898 124 345.417 124 346.453C124 346.906 124.151 347.26 124.453 347.516C124.755 347.771 125.143 347.898 125.617 347.898ZM132.867 340.547L132.914 341.609C133.56 340.797 134.404 340.391 135.445 340.391C137.232 340.391 138.133 341.398 138.148 343.414V349H136.703V343.406C136.698 342.797 136.557 342.346 136.281 342.055C136.01 341.763 135.586 341.617 135.008 341.617C134.539 341.617 134.128 341.742 133.773 341.992C133.419 342.242 133.143 342.57 132.945 342.977V349H131.5V340.547H132.867ZM143.719 347.977C144.234 347.977 144.685 347.82 145.07 347.508C145.456 347.195 145.669 346.805 145.711 346.336H147.078C147.052 346.82 146.885 347.281 146.578 347.719C146.271 348.156 145.859 348.505 145.344 348.766C144.833 349.026 144.292 349.156 143.719 349.156C142.568 349.156 141.651 348.773 140.969 348.008C140.292 347.237 139.953 346.185 139.953 344.852V344.609C139.953 343.786 140.104 343.055 140.406 342.414C140.708 341.773 141.141 341.276 141.703 340.922C142.271 340.568 142.94 340.391 143.711 340.391C144.659 340.391 145.445 340.674 146.07 341.242C146.701 341.81 147.036 342.547 147.078 343.453H145.711C145.669 342.906 145.461 342.458 145.086 342.109C144.716 341.755 144.258 341.578 143.711 341.578C142.977 341.578 142.406 341.844 142 342.375C141.599 342.901 141.398 343.664 141.398 344.664V344.938C141.398 345.911 141.599 346.661 142 347.188C142.401 347.714 142.974 347.977 143.719 347.977ZM152.211 349.156C151.065 349.156 150.133 348.781 149.414 348.031C148.695 347.276 148.336 346.268 148.336 345.008V344.742C148.336 343.904 148.495 343.156 148.812 342.5C149.135 341.839 149.583 341.323 150.156 340.953C150.734 340.578 151.359 340.391 152.031 340.391C153.13 340.391 153.984 340.753 154.594 341.477C155.203 342.201 155.508 343.237 155.508 344.586V345.188H149.781C149.802 346.021 150.044 346.695 150.508 347.211C150.977 347.721 151.57 347.977 152.289 347.977C152.799 347.977 153.232 347.872 153.586 347.664C153.94 347.456 154.25 347.18 154.516 346.836L155.398 347.523C154.69 348.612 153.628 349.156 152.211 349.156ZM152.031 341.578C151.448 341.578 150.958 341.792 150.562 342.219C150.167 342.641 149.922 343.234 149.828 344H154.062V343.891C154.021 343.156 153.823 342.589 153.469 342.188C153.115 341.781 152.635 341.578 152.031 341.578ZM158.758 349H157.312V337H158.758V349ZM162.648 349H161.203V337H162.648V349ZM168.477 349.156C167.331 349.156 166.398 348.781 165.68 348.031C164.961 347.276 164.602 346.268 164.602 345.008V344.742C164.602 343.904 164.76 343.156 165.078 342.5C165.401 341.839 165.849 341.323 166.422 340.953C167 340.578 167.625 340.391 168.297 340.391C169.396 340.391 170.25 340.753 170.859 341.477C171.469 342.201 171.773 343.237 171.773 344.586V345.188H166.047C166.068 346.021 166.31 346.695 166.773 347.211C167.242 347.721 167.836 347.977 168.555 347.977C169.065 347.977 169.497 347.872 169.852 347.664C170.206 347.456 170.516 347.18 170.781 346.836L171.664 347.523C170.956 348.612 169.893 349.156 168.477 349.156ZM168.297 341.578C167.714 341.578 167.224 341.792 166.828 342.219C166.432 342.641 166.188 343.234 166.094 344H170.328V343.891C170.286 343.156 170.089 342.589 169.734 342.188C169.38 341.781 168.901 341.578 168.297 341.578ZM173.102 344.703C173.102 343.406 173.409 342.365 174.023 341.578C174.638 340.786 175.443 340.391 176.438 340.391C177.427 340.391 178.211 340.729 178.789 341.406V337H180.234V349H178.906L178.836 348.094C178.258 348.802 177.453 349.156 176.422 349.156C175.443 349.156 174.643 348.755 174.023 347.953C173.409 347.151 173.102 346.104 173.102 344.812V344.703ZM174.547 344.867C174.547 345.826 174.745 346.576 175.141 347.117C175.536 347.659 176.083 347.93 176.781 347.93C177.698 347.93 178.367 347.518 178.789 346.695V342.812C178.357 342.016 177.693 341.617 176.797 341.617C176.089 341.617 175.536 341.891 175.141 342.438C174.745 342.984 174.547 343.794 174.547 344.867Z" fill="#181818"/>
<circle cx="100" cy="287" r="32" fill="#FC5050"/>
<path fill-rule="evenodd" clip-rule="evenodd" d="M111.293 299.707C111.683 300.098 112.317 300.098 112.707 299.707C113.098 299.317 113.098 298.683 112.707 298.293L101.414 287L112.707 275.707C113.098 275.317 113.098 274.683 112.707 274.293C112.317 273.902 111.683 273.902 111.293 274.293L100 285.586L88.7071 274.293C88.3166 273.902 87.6834 273.902 87.2929 274.293C86.9024 274.683 86.9024 275.317 87.2929 275.707L98.5858 287L87.2929 298.293C86.9024 298.683 86.9024 299.317 87.2929 299.707C87.6834 300.098 88.3166 300.098 88.7071 299.707L100 288.414L111.293 299.707Z" fill="white"/>
<path d="M148 37H250C261.598 37 271 46.402 271 58V110" stroke="black" stroke-width="3" stroke-linecap="round"/>
<path d="M148 287H250C261.598 287 271 277.598 271 266V214" stroke="black" stroke-width="3" stroke-linecap="round"/>
<path d="M148 162H219" stroke="black" stroke-width="3" stroke-linecap="round"/>
<path d="M323 162H382" stroke="black" stroke-width="3" stroke-linecap="round"/>
<path d="M445.452 63C445.297 62.7596 445.162 62.6194 445.104 62.4592C444.369 60.416 443.654 58.3729 442.938 56.3297C442.725 55.7288 442.513 55.1079 442.319 54.4869C442.145 53.9461 441.875 53.4854 441.333 53.2851C440.405 52.9445 439.497 52.604 438.568 52.2435C437.505 51.8428 436.461 51.4222 435.417 51.0216C434.779 50.7812 434.141 50.5809 433.503 50.3205C433.309 50.2404 433.174 50.0401 433 49.8798C433.174 49.7396 433.309 49.5193 433.503 49.4592C434.566 49.0385 435.649 48.6379 436.712 48.2373C437.698 47.8567 438.665 47.4961 439.651 47.1156C440.193 46.9153 440.734 46.7149 441.295 46.5146C441.759 46.3344 442.068 46.0139 442.242 45.5331C442.571 44.5917 442.899 43.6502 443.228 42.7288C443.77 41.2265 444.311 39.7042 444.852 38.2018C444.949 37.9214 444.988 37.621 445.123 37.3405C445.2 37.1803 445.374 37 445.51 37C445.645 37 445.819 37.2003 445.877 37.3606C446.612 39.4037 447.327 41.4468 448.062 43.49C448.275 44.1109 448.487 44.7519 448.7 45.3729C448.874 45.9337 449.164 46.3344 449.725 46.5347C451.117 47.0354 452.509 47.5562 453.901 48.0971C454.887 48.4777 455.873 48.8783 456.879 49.2589C457.13 49.359 457.42 49.3991 457.652 49.5193C457.807 49.5994 458 49.7596 458 49.8998C458 50.02 457.807 50.2404 457.671 50.2804C455.235 51.2419 452.818 52.1433 450.401 53.0647C450.305 53.1048 450.189 53.1448 450.073 53.1649C449.261 53.3451 448.835 53.8459 448.584 54.6872C448.275 55.7689 447.83 56.8105 447.462 57.8721C447.114 58.8736 446.747 59.8552 446.399 60.8567C446.206 61.4176 446.032 61.9985 445.819 62.5593C445.8 62.6795 445.645 62.7997 445.452 63Z" fill="#FFB9F8"/>
<path d="M353 303C353 307.418 349.418 311 345 311C340.582 311 337 307.418 337 303C337 298.582 340.582 295 345 295C349.418 295 353 298.582 353 303Z" fill="#FFD12D"/>
</svg>
