<svg width="488" height="309" viewBox="0 0 488 309" fill="none" xmlns="http://www.w3.org/2000/svg">
<rect x="0.5" y="0.5" width="487" height="308" rx="11.5" fill="white"/>
<path d="M15 209.406L15 210.156L9.3125 210.156L9.3125 209.406L15 209.406ZM13.5156 204.82L13.5156 207.203L15 207.738L15 208.512L9.3125 206.34L9.3125 205.684L15 203.508L15 204.277L13.5156 204.82ZM12.8984 206.977L12.8984 205.043L10.2383 206.012L12.8984 206.977ZM12.7734 201.992L15 201.992L15 202.742L9.3125 202.742L9.3125 200.645C9.3125 200.022 9.47135 199.535 9.78906 199.184C10.1068 198.829 10.5273 198.652 11.0508 198.652C11.6029 198.652 12.0286 198.826 12.3281 199.172C12.625 199.516 12.7734 200.009 12.7734 200.652L12.7734 201.992ZM12.1602 201.992L12.1602 200.645C12.1602 200.243 12.0664 199.936 11.8789 199.723C11.6888 199.509 11.4154 199.402 11.0586 199.402C10.7201 199.402 10.4492 199.509 10.2461 199.723C10.043 199.936 9.9375 200.229 9.92969 200.602L9.92969 201.992L12.1602 201.992ZM12.6992 193.625L12.6992 194.961L15 194.961L15 195.715L9.3125 195.715L9.3125 193.832C9.3125 193.191 9.45833 192.699 9.75 192.355C10.0417 192.009 10.4661 191.836 11.0234 191.836C11.3776 191.836 11.6862 191.932 11.9492 192.125C12.2122 192.315 12.4089 192.581 12.5391 192.922L14.9531 191.586L15 191.586L15 192.391L12.6992 193.625ZM12.0859 194.961L12.0859 193.809C12.0859 193.436 11.9896 193.141 11.7969 192.922C11.6042 192.701 11.3464 192.59 11.0234 192.59C10.6719 192.59 10.4023 192.695 10.2148 192.906C10.0273 193.115 9.93229 193.417 9.92969 193.812L9.92969 194.961L12.0859 194.961ZM15.0781 189.141C15.0781 189.714 14.8906 190.18 14.5156 190.539C14.138 190.898 13.6341 191.078 13.0039 191.078L12.8711 191.078C12.4518 191.078 12.0781 190.999 11.75 190.84C11.4193 190.678 11.1615 190.454 10.9766 190.168C10.7891 189.879 10.6953 189.566 10.6953 189.23C10.6953 188.681 10.8763 188.254 11.2383 187.949C11.6003 187.645 12.1185 187.492 12.793 187.492L13.0937 187.492L13.0937 190.355C13.5104 190.345 13.8477 190.224 14.1055 189.992C14.3607 189.758 14.4883 189.461 14.4883 189.102C14.4883 188.846 14.4362 188.63 14.332 188.453C14.2279 188.276 14.0898 188.121 13.918 187.988L14.2617 187.547C14.806 187.901 15.0781 188.432 15.0781 189.141ZM11.2891 189.23C11.2891 189.522 11.3958 189.767 11.6094 189.965C11.8203 190.163 12.1172 190.285 12.5 190.332L12.5 188.215L12.4453 188.215C12.0781 188.236 11.7943 188.335 11.5937 188.512C11.3906 188.689 11.2891 188.928 11.2891 189.23ZM14.0195 185.312L10.7734 184.266L10.7734 183.527L15 185.043L15 185.594L10.7734 187.125L10.7734 186.387L14.0195 185.312ZM15.0781 181.133C15.0781 181.706 14.8906 182.172 14.5156 182.531C14.138 182.891 13.6341 183.07 13.0039 183.07L12.8711 183.07C12.4518 183.07 12.0781 182.991 11.75 182.832C11.4193 182.671 11.1615 182.447 10.9766 182.16C10.7891 181.871 10.6953 181.559 10.6953 181.223C10.6953 180.673 10.8763 180.246 11.2383 179.941C11.6003 179.637 12.1185 179.484 12.793 179.484L13.0937 179.484L13.0937 182.348C13.5104 182.337 13.8477 182.216 14.1055 181.984C14.3607 181.75 14.4883 181.453 14.4883 181.094C14.4883 180.839 14.4362 180.622 14.332 180.445C14.2279 180.268 14.0898 180.113 13.918 179.98L14.2617 179.539C14.806 179.893 15.0781 180.424 15.0781 181.133ZM11.2891 181.223C11.2891 181.514 11.3958 181.759 11.6094 181.957C11.8203 182.155 12.1172 182.277 12.5 182.324L12.5 180.207L12.4453 180.207C12.0781 180.228 11.7943 180.327 11.5937 180.504C11.3906 180.681 11.2891 180.921 11.2891 181.223ZM10.7734 177.961L11.3047 177.937C10.8984 177.615 10.6953 177.193 10.6953 176.672C10.6953 175.779 11.1992 175.328 12.207 175.32L15 175.32L15 176.043L12.2031 176.043C11.8984 176.046 11.6732 176.116 11.5273 176.254C11.3815 176.389 11.3086 176.602 11.3086 176.891C11.3086 177.125 11.3711 177.331 11.4961 177.508C11.6211 177.685 11.7852 177.823 11.9883 177.922L15 177.922L15 178.645L10.7734 178.645L10.7734 177.961ZM14.582 171.621C14.9128 171.902 15.0781 172.315 15.0781 172.859C15.0781 173.31 14.9479 173.654 14.6875 173.891C14.4245 174.125 14.0365 174.243 13.5234 174.246L10.7734 174.246L10.7734 173.523L13.5039 173.523C14.1445 173.523 14.4648 173.263 14.4648 172.742C14.4648 172.19 14.2591 171.823 13.8477 171.641L10.7734 171.641L10.7734 170.918L15 170.918L15 171.605L14.582 171.621ZM15.0781 168.062C15.0781 168.635 14.8906 169.102 14.5156 169.461C14.138 169.82 13.6341 170 13.0039 170L12.8711 170C12.4518 170 12.0781 169.921 11.75 169.762C11.4193 169.6 11.1615 169.376 10.9766 169.09C10.7891 168.801 10.6953 168.488 10.6953 168.152C10.6953 167.603 10.8763 167.176 11.2383 166.871C11.6003 166.566 12.1185 166.414 12.793 166.414L13.0937 166.414L13.0937 169.277C13.5104 169.267 13.8477 169.146 14.1055 168.914C14.3607 168.68 14.4883 168.383 14.4883 168.023C14.4883 167.768 14.4362 167.552 14.332 167.375C14.2279 167.198 14.0898 167.043 13.918 166.91L14.2617 166.469C14.806 166.823 15.0781 167.354 15.0781 168.062ZM11.2891 168.152C11.2891 168.444 11.3958 168.689 11.6094 168.887C11.8203 169.085 12.1172 169.207 12.5 169.254L12.5 167.137L12.4453 167.137C12.0781 167.158 11.7943 167.257 11.5937 167.434C11.3906 167.611 11.2891 167.85 11.2891 168.152ZM12.6914 163.617C12.1029 163.617 11.5378 163.539 10.9961 163.383C10.4544 163.224 9.96224 162.988 9.51953 162.676C9.07682 162.363 8.76432 162.039 8.58203 161.703L9.05859 161.555C9.35026 161.935 9.79557 162.247 10.3945 162.492C10.9935 162.734 11.6641 162.867 12.4062 162.891L12.7383 162.895C13.7435 162.895 14.6159 162.711 15.3555 162.344C15.7982 162.122 16.1445 161.859 16.3945 161.555L16.8359 161.703C16.6432 162.049 16.3203 162.38 15.8672 162.695C14.9818 163.31 13.9232 163.617 12.6914 163.617ZM13.5352 158.059C13.2956 158.059 13.0937 158.143 12.9297 158.312C12.7656 158.479 12.6172 158.762 12.4844 159.16C12.3151 159.715 12.095 160.12 11.8242 160.375C11.5508 160.628 11.2044 160.754 10.7852 160.754C10.3581 160.754 10.0078 160.63 9.73437 160.383C9.46094 160.133 9.29817 159.79 9.24609 159.355L8.39062 159.355L8.39062 158.773L9.25 158.773C9.30989 158.336 9.49349 157.996 9.80078 157.754C10.1081 157.509 10.5286 157.387 11.0625 157.387L11.0625 158.105C10.6953 158.105 10.4036 158.193 10.1875 158.367C9.97135 158.542 9.86328 158.777 9.86328 159.074C9.86328 159.384 9.94401 159.621 10.1055 159.785C10.2643 159.949 10.487 160.031 10.7734 160.031C11.0391 160.031 11.2513 159.945 11.4102 159.773C11.5664 159.599 11.7096 159.314 11.8398 158.918C11.9674 158.52 12.1094 158.21 12.2656 157.988C12.4193 157.764 12.599 157.6 12.8047 157.496C13.0104 157.389 13.2513 157.336 13.5273 157.336C13.9674 157.336 14.3216 157.469 14.5898 157.734C14.8581 157.997 15.0169 158.367 15.0664 158.844L15.8125 158.844L15.8125 159.422L15.0664 159.422C15.0221 159.906 14.8503 160.286 14.5508 160.562C14.2487 160.836 13.8398 160.973 13.3242 160.973L13.3242 160.25C13.6862 160.25 13.9648 160.155 14.1602 159.965C14.3555 159.775 14.4531 159.505 14.4531 159.156C14.4531 158.815 14.3711 158.547 14.207 158.352C14.043 158.156 13.819 158.059 13.5352 158.059ZM12.7305 154.695C13.3112 154.695 13.8685 154.772 14.4023 154.926C14.9336 155.077 15.4245 155.31 15.875 155.625C16.3255 155.937 16.6458 156.266 16.8359 156.609L16.3945 156.762C16.0872 156.361 15.6107 156.039 14.9648 155.797C14.3164 155.552 13.5977 155.427 12.8086 155.422L12.6836 155.422C12.1367 155.422 11.6289 155.479 11.1602 155.594C10.6888 155.708 10.2669 155.868 9.89453 156.074C9.52213 156.277 9.23177 156.507 9.02344 156.762L8.58203 156.609C8.77213 156.266 9.08984 155.939 9.53515 155.629C9.98047 155.316 10.4714 155.083 11.0078 154.93C11.5443 154.773 12.1185 154.695 12.7305 154.695Z" fill="#7F8285"/>
<path d="M21.8125 79.1484L22.1016 76.3125H25.0156V76.9805H22.7148L22.543 78.5312C22.8216 78.3672 23.138 78.2852 23.4922 78.2852C24.0104 78.2852 24.4219 78.457 24.7266 78.8008C25.0312 79.1419 25.1836 79.6042 25.1836 80.1875C25.1836 80.7734 25.0247 81.2357 24.707 81.5742C24.3919 81.9102 23.9505 82.0781 23.3828 82.0781C22.8802 82.0781 22.4701 81.9388 22.1523 81.6602C21.8346 81.3815 21.6536 80.9961 21.6094 80.5039H22.293C22.3372 80.8294 22.4531 81.0755 22.6406 81.2422C22.8281 81.4062 23.0755 81.4883 23.3828 81.4883C23.7188 81.4883 23.9818 81.3737 24.1719 81.1445C24.3646 80.9154 24.4609 80.599 24.4609 80.1953C24.4609 79.8151 24.3568 79.5104 24.1484 79.2812C23.9427 79.0495 23.668 78.9336 23.3242 78.9336C23.0091 78.9336 22.7617 79.0026 22.582 79.1406L22.3906 79.2969L21.8125 79.1484ZM29.5391 79.5742C29.5391 80.4206 29.3945 81.0495 29.1055 81.4609C28.8164 81.8724 28.3646 82.0781 27.75 82.0781C27.1432 82.0781 26.694 81.8776 26.4023 81.4766C26.1107 81.0729 25.9596 80.4714 25.9492 79.6719V78.707C25.9492 77.8711 26.0938 77.25 26.3828 76.8438C26.6719 76.4375 27.125 76.2344 27.7422 76.2344C28.3542 76.2344 28.8047 76.431 29.0938 76.8242C29.3828 77.2148 29.5312 77.819 29.5391 78.6367V79.5742ZM28.8164 78.5859C28.8164 77.974 28.7305 77.5286 28.5586 77.25C28.3867 76.9688 28.1146 76.8281 27.7422 76.8281C27.3724 76.8281 27.1029 76.9674 26.9336 77.2461C26.7643 77.5247 26.6771 77.9531 26.6719 78.5312V79.6875C26.6719 80.3021 26.7604 80.7565 26.9375 81.0508C27.1172 81.3424 27.388 81.4883 27.75 81.4883C28.1068 81.4883 28.3711 81.3503 28.543 81.0742C28.7174 80.7982 28.8086 80.3633 28.8164 79.7695V78.5859Z" fill="#7F8285"/>
<path d="M24.5312 121.09H25.3203V121.68H24.5312V123H23.8047V121.68H21.2148V121.254L23.7617 117.312H24.5312V121.09ZM22.0352 121.09H23.8047V118.301L23.7188 118.457L22.0352 121.09ZM29.5391 120.574C29.5391 121.421 29.3945 122.049 29.1055 122.461C28.8164 122.872 28.3646 123.078 27.75 123.078C27.1432 123.078 26.694 122.878 26.4023 122.477C26.1107 122.073 25.9596 121.471 25.9492 120.672V119.707C25.9492 118.871 26.0938 118.25 26.3828 117.844C26.6719 117.438 27.125 117.234 27.7422 117.234C28.3542 117.234 28.8047 117.431 29.0938 117.824C29.3828 118.215 29.5312 118.819 29.5391 119.637V120.574ZM28.8164 119.586C28.8164 118.974 28.7305 118.529 28.5586 118.25C28.3867 117.969 28.1146 117.828 27.7422 117.828C27.3724 117.828 27.1029 117.967 26.9336 118.246C26.7643 118.525 26.6771 118.953 26.6719 119.531V120.688C26.6719 121.302 26.7604 121.757 26.9375 122.051C27.1172 122.342 27.388 122.488 27.75 122.488C28.1068 122.488 28.3711 122.35 28.543 122.074C28.7174 121.798 28.8086 121.363 28.8164 120.77V119.586Z" fill="#7F8285"/>
<path d="M22.5312 160.805H23.0742C23.4154 160.799 23.6836 160.71 23.8789 160.535C24.0742 160.361 24.1719 160.125 24.1719 159.828C24.1719 159.161 23.8398 158.828 23.1758 158.828C22.8633 158.828 22.6133 158.918 22.4258 159.098C22.2409 159.275 22.1484 159.51 22.1484 159.805H21.4258C21.4258 159.354 21.5898 158.98 21.918 158.684C22.2487 158.384 22.668 158.234 23.1758 158.234C23.7122 158.234 24.1328 158.376 24.4375 158.66C24.7422 158.944 24.8945 159.339 24.8945 159.844C24.8945 160.091 24.8138 160.331 24.6523 160.562C24.4935 160.794 24.276 160.967 24 161.082C24.3125 161.181 24.5534 161.345 24.7227 161.574C24.8945 161.803 24.9805 162.083 24.9805 162.414C24.9805 162.924 24.8138 163.329 24.4805 163.629C24.1471 163.928 23.7135 164.078 23.1797 164.078C22.6458 164.078 22.2109 163.934 21.875 163.645C21.5417 163.355 21.375 162.974 21.375 162.5H22.1016C22.1016 162.799 22.1992 163.039 22.3945 163.219C22.5898 163.398 22.8516 163.488 23.1797 163.488C23.5286 163.488 23.7956 163.397 23.9805 163.215C24.1654 163.033 24.2578 162.771 24.2578 162.43C24.2578 162.099 24.1562 161.845 23.9531 161.668C23.75 161.491 23.457 161.4 23.0742 161.395H22.5312V160.805ZM29.5391 161.574C29.5391 162.421 29.3945 163.049 29.1055 163.461C28.8164 163.872 28.3646 164.078 27.75 164.078C27.1432 164.078 26.694 163.878 26.4023 163.477C26.1107 163.073 25.9596 162.471 25.9492 161.672V160.707C25.9492 159.871 26.0938 159.25 26.3828 158.844C26.6719 158.438 27.125 158.234 27.7422 158.234C28.3542 158.234 28.8047 158.431 29.0938 158.824C29.3828 159.215 29.5312 159.819 29.5391 160.637V161.574ZM28.8164 160.586C28.8164 159.974 28.7305 159.529 28.5586 159.25C28.3867 158.969 28.1146 158.828 27.7422 158.828C27.3724 158.828 27.1029 158.967 26.9336 159.246C26.7643 159.525 26.6771 159.953 26.6719 160.531V161.688C26.6719 162.302 26.7604 162.757 26.9375 163.051C27.1172 163.342 27.388 163.488 27.75 163.488C28.1068 163.488 28.3711 163.35 28.543 163.074C28.7174 162.798 28.8086 162.363 28.8164 161.77V160.586Z" fill="#7F8285"/>
<path d="M25.207 205H21.4805V204.48L23.4492 202.293C23.7409 201.962 23.9414 201.694 24.0508 201.488C24.1628 201.28 24.2188 201.065 24.2188 200.844C24.2188 200.547 24.1289 200.303 23.9492 200.113C23.7695 199.923 23.5299 199.828 23.2305 199.828C22.8711 199.828 22.5911 199.931 22.3906 200.137C22.1927 200.34 22.0938 200.624 22.0938 200.988H21.3711C21.3711 200.465 21.5391 200.042 21.875 199.719C22.2135 199.396 22.6654 199.234 23.2305 199.234C23.7591 199.234 24.1771 199.374 24.4844 199.652C24.7917 199.928 24.9453 200.297 24.9453 200.758C24.9453 201.318 24.5885 201.984 23.875 202.758L22.3516 204.41H25.207V205ZM29.5391 202.574C29.5391 203.421 29.3945 204.049 29.1055 204.461C28.8164 204.872 28.3646 205.078 27.75 205.078C27.1432 205.078 26.694 204.878 26.4023 204.477C26.1107 204.073 25.9596 203.471 25.9492 202.672V201.707C25.9492 200.871 26.0938 200.25 26.3828 199.844C26.6719 199.438 27.125 199.234 27.7422 199.234C28.3542 199.234 28.8047 199.431 29.0938 199.824C29.3828 200.215 29.5312 200.819 29.5391 201.637V202.574ZM28.8164 201.586C28.8164 200.974 28.7305 200.529 28.5586 200.25C28.3867 199.969 28.1146 199.828 27.7422 199.828C27.3724 199.828 27.1029 199.967 26.9336 200.246C26.7643 200.525 26.6771 200.953 26.6719 201.531V202.688C26.6719 203.302 26.7604 203.757 26.9375 204.051C27.1172 204.342 27.388 204.488 27.75 204.488C28.1068 204.488 28.3711 204.35 28.543 204.074C28.7174 203.798 28.8086 203.363 28.8164 202.77V201.586Z" fill="#7F8285"/>
<path d="M23.8555 246H23.1289V241.184L21.6719 241.719V241.062L23.7422 240.285H23.8555V246ZM29.5391 243.574C29.5391 244.421 29.3945 245.049 29.1055 245.461C28.8164 245.872 28.3646 246.078 27.75 246.078C27.1432 246.078 26.694 245.878 26.4023 245.477C26.1107 245.073 25.9596 244.471 25.9492 243.672V242.707C25.9492 241.871 26.0938 241.25 26.3828 240.844C26.6719 240.438 27.125 240.234 27.7422 240.234C28.3542 240.234 28.8047 240.431 29.0938 240.824C29.3828 241.215 29.5312 241.819 29.5391 242.637V243.574ZM28.8164 242.586C28.8164 241.974 28.7305 241.529 28.5586 241.25C28.3867 240.969 28.1146 240.828 27.7422 240.828C27.3724 240.828 27.1029 240.967 26.9336 241.246C26.7643 241.525 26.6771 241.953 26.6719 242.531V243.688C26.6719 244.302 26.7604 244.757 26.9375 245.051C27.1172 245.342 27.388 245.488 27.75 245.488C28.1068 245.488 28.3711 245.35 28.543 245.074C28.7174 244.798 28.8086 244.363 28.8164 243.77V242.586Z" fill="#7F8285"/>
<path d="M29.293 284.574C29.293 285.421 29.1484 286.049 28.8594 286.461C28.5703 286.872 28.1185 287.078 27.5039 287.078C26.8971 287.078 26.4479 286.878 26.1562 286.477C25.8646 286.073 25.7135 285.471 25.7031 284.672V283.707C25.7031 282.871 25.8477 282.25 26.1367 281.844C26.4258 281.438 26.8789 281.234 27.4961 281.234C28.1081 281.234 28.5586 281.431 28.8477 281.824C29.1367 282.215 29.2852 282.819 29.293 283.637V284.574ZM28.5703 283.586C28.5703 282.974 28.4844 282.529 28.3125 282.25C28.1406 281.969 27.8685 281.828 27.4961 281.828C27.1263 281.828 26.8568 281.967 26.6875 282.246C26.5182 282.525 26.431 282.953 26.4258 283.531V284.688C26.4258 285.302 26.5143 285.757 26.6914 286.051C26.8711 286.342 27.1419 286.488 27.5039 286.488C27.8607 286.488 28.125 286.35 28.2969 286.074C28.4714 285.798 28.5625 285.363 28.5703 284.77V283.586Z" fill="#7F8285"/>
<rect x="39" y="285" width="449" height="23" fill="#FEFEFE"/>
<rect x="471" y="63" width="17" height="245" fill="#FEFEFE"/>
<path d="M214.703 299V293.312H216.309C216.803 293.312 217.241 293.422 217.621 293.641C218.001 293.859 218.294 294.171 218.5 294.574C218.708 294.978 218.814 295.441 218.816 295.965V296.328C218.816 296.865 218.712 297.335 218.504 297.738C218.298 298.142 218.003 298.452 217.617 298.668C217.234 298.884 216.788 298.995 216.277 299H214.703ZM215.453 293.93V298.387H216.242C216.82 298.387 217.27 298.207 217.59 297.848C217.913 297.488 218.074 296.977 218.074 296.312V295.98C218.074 295.335 217.922 294.833 217.617 294.477C217.315 294.117 216.885 293.935 216.328 293.93H215.453ZM222.449 299C222.408 298.917 222.374 298.768 222.348 298.555C222.012 298.904 221.611 299.078 221.145 299.078C220.728 299.078 220.385 298.961 220.117 298.727C219.852 298.49 219.719 298.19 219.719 297.828C219.719 297.388 219.885 297.047 220.219 296.805C220.555 296.56 221.026 296.438 221.633 296.438H222.336V296.105C222.336 295.853 222.26 295.652 222.109 295.504C221.958 295.353 221.736 295.277 221.441 295.277C221.184 295.277 220.967 295.342 220.793 295.473C220.618 295.603 220.531 295.76 220.531 295.945H219.805C219.805 295.734 219.879 295.531 220.027 295.336C220.178 295.138 220.382 294.982 220.637 294.867C220.895 294.753 221.177 294.695 221.484 294.695C221.971 294.695 222.353 294.818 222.629 295.062C222.905 295.305 223.048 295.639 223.059 296.066V298.012C223.059 298.4 223.108 298.708 223.207 298.938V299H222.449ZM221.25 298.449C221.477 298.449 221.691 298.391 221.895 298.273C222.098 298.156 222.245 298.004 222.336 297.816V296.949H221.77C220.884 296.949 220.441 297.208 220.441 297.727C220.441 297.953 220.517 298.13 220.668 298.258C220.819 298.385 221.013 298.449 221.25 298.449ZM225.512 297.941L226.496 294.773H227.27L225.57 299.652C225.307 300.355 224.889 300.707 224.316 300.707L224.18 300.695L223.91 300.645V300.059L224.105 300.074C224.35 300.074 224.54 300.025 224.676 299.926C224.814 299.827 224.927 299.646 225.016 299.383L225.176 298.953L223.668 294.773H224.457L225.512 297.941ZM230.379 297.879C230.379 297.684 230.305 297.533 230.156 297.426C230.01 297.316 229.754 297.223 229.387 297.145C229.022 297.066 228.732 296.973 228.516 296.863C228.302 296.754 228.143 296.624 228.039 296.473C227.938 296.322 227.887 296.142 227.887 295.934C227.887 295.587 228.033 295.294 228.324 295.055C228.618 294.815 228.993 294.695 229.449 294.695C229.928 294.695 230.316 294.819 230.613 295.066C230.913 295.314 231.062 295.63 231.062 296.016H230.336C230.336 295.818 230.251 295.647 230.082 295.504C229.915 295.361 229.704 295.289 229.449 295.289C229.186 295.289 228.98 295.346 228.832 295.461C228.684 295.576 228.609 295.725 228.609 295.91C228.609 296.085 228.678 296.216 228.816 296.305C228.954 296.393 229.203 296.478 229.562 296.559C229.924 296.639 230.217 296.736 230.441 296.848C230.665 296.96 230.831 297.095 230.938 297.254C231.047 297.41 231.102 297.602 231.102 297.828C231.102 298.206 230.951 298.509 230.648 298.738C230.346 298.965 229.954 299.078 229.473 299.078C229.134 299.078 228.835 299.018 228.574 298.898C228.314 298.779 228.109 298.612 227.961 298.398C227.815 298.182 227.742 297.949 227.742 297.699H228.465C228.478 297.941 228.574 298.134 228.754 298.277C228.936 298.418 229.176 298.488 229.473 298.488C229.746 298.488 229.965 298.434 230.129 298.324C230.296 298.212 230.379 298.064 230.379 297.879ZM237.281 297.516H234.898L234.363 299H233.59L235.762 293.312H236.418L238.594 299H237.824L237.281 297.516ZM235.125 296.898H237.059L236.09 294.238L235.125 296.898ZM239.602 299V295.332H238.934V294.773H239.602V294.34C239.602 293.887 239.723 293.536 239.965 293.289C240.207 293.042 240.549 292.918 240.992 292.918C241.159 292.918 241.324 292.94 241.488 292.984L241.449 293.57C241.327 293.547 241.197 293.535 241.059 293.535C240.824 293.535 240.643 293.604 240.516 293.742C240.388 293.878 240.324 294.073 240.324 294.328V294.773H241.227V295.332H240.324V299H239.602ZM243.008 293.75V294.773H243.797V295.332H243.008V297.953C243.008 298.122 243.043 298.25 243.113 298.336C243.184 298.419 243.303 298.461 243.473 298.461C243.556 298.461 243.671 298.445 243.816 298.414V299C243.626 299.052 243.441 299.078 243.262 299.078C242.939 299.078 242.695 298.98 242.531 298.785C242.367 298.59 242.285 298.312 242.285 297.953V295.332H241.516V294.773H242.285V293.75H243.008ZM246.398 299.078C245.826 299.078 245.359 298.891 245 298.516C244.641 298.138 244.461 297.634 244.461 297.004V296.871C244.461 296.452 244.54 296.078 244.699 295.75C244.861 295.419 245.085 295.161 245.371 294.977C245.66 294.789 245.973 294.695 246.309 294.695C246.858 294.695 247.285 294.876 247.59 295.238C247.895 295.6 248.047 296.118 248.047 296.793V297.094H245.184C245.194 297.51 245.315 297.848 245.547 298.105C245.781 298.361 246.078 298.488 246.438 298.488C246.693 298.488 246.909 298.436 247.086 298.332C247.263 298.228 247.418 298.09 247.551 297.918L247.992 298.262C247.638 298.806 247.107 299.078 246.398 299.078ZM246.309 295.289C246.017 295.289 245.772 295.396 245.574 295.609C245.376 295.82 245.254 296.117 245.207 296.5H247.324V296.445C247.303 296.078 247.204 295.794 247.027 295.594C246.85 295.391 246.611 295.289 246.309 295.289ZM250.93 295.422C250.82 295.404 250.702 295.395 250.574 295.395C250.1 295.395 249.779 295.596 249.609 296V299H248.887V294.773H249.59L249.602 295.262C249.839 294.884 250.174 294.695 250.609 294.695C250.75 294.695 250.857 294.714 250.93 294.75V295.422ZM256.836 297.516H254.453L253.918 299H253.145L255.316 293.312H255.973L258.148 299H257.379L256.836 297.516ZM254.68 296.898H256.613L255.645 294.238L254.68 296.898ZM260.496 298.488C260.754 298.488 260.979 298.41 261.172 298.254C261.365 298.098 261.471 297.902 261.492 297.668H262.176C262.163 297.91 262.079 298.141 261.926 298.359C261.772 298.578 261.566 298.753 261.309 298.883C261.053 299.013 260.783 299.078 260.496 299.078C259.921 299.078 259.462 298.887 259.121 298.504C258.783 298.118 258.613 297.592 258.613 296.926V296.805C258.613 296.393 258.689 296.027 258.84 295.707C258.991 295.387 259.207 295.138 259.488 294.961C259.772 294.784 260.107 294.695 260.492 294.695C260.966 294.695 261.359 294.837 261.672 295.121C261.987 295.405 262.155 295.773 262.176 296.227H261.492C261.471 295.953 261.367 295.729 261.18 295.555C260.995 295.378 260.766 295.289 260.492 295.289C260.125 295.289 259.84 295.422 259.637 295.688C259.436 295.951 259.336 296.332 259.336 296.832V296.969C259.336 297.456 259.436 297.831 259.637 298.094C259.837 298.357 260.124 298.488 260.496 298.488ZM262.812 296.852C262.812 296.188 262.965 295.663 263.27 295.277C263.574 294.889 263.983 294.695 264.496 294.695C264.996 294.695 265.391 294.863 265.68 295.199L265.711 294.773H266.375V300.625H265.652V298.609C265.361 298.922 264.973 299.078 264.488 299.078C263.978 299.078 263.57 298.88 263.266 298.484C262.964 298.086 262.812 297.559 262.812 296.902V296.852ZM263.535 296.934C263.535 297.418 263.637 297.798 263.84 298.074C264.046 298.35 264.322 298.488 264.668 298.488C265.098 298.488 265.426 298.298 265.652 297.918V295.848C265.423 295.475 265.098 295.289 264.676 295.289C264.327 295.289 264.049 295.428 263.844 295.707C263.638 295.983 263.535 296.392 263.535 296.934ZM270.145 298.582C269.863 298.913 269.451 299.078 268.906 299.078C268.456 299.078 268.112 298.948 267.875 298.688C267.641 298.424 267.522 298.036 267.52 297.523V294.773H268.242V297.504C268.242 298.145 268.503 298.465 269.023 298.465C269.576 298.465 269.943 298.259 270.125 297.848V294.773H270.848V299H270.16L270.145 298.582ZM272.734 299H272.012V294.773H272.734V299ZM271.953 293.652C271.953 293.535 271.988 293.436 272.059 293.355C272.132 293.275 272.238 293.234 272.379 293.234C272.52 293.234 272.626 293.275 272.699 293.355C272.772 293.436 272.809 293.535 272.809 293.652C272.809 293.77 272.772 293.867 272.699 293.945C272.626 294.023 272.52 294.062 272.379 294.062C272.238 294.062 272.132 294.023 272.059 293.945C271.988 293.867 271.953 293.77 271.953 293.652ZM276.355 297.879C276.355 297.684 276.281 297.533 276.133 297.426C275.987 297.316 275.73 297.223 275.363 297.145C274.999 297.066 274.708 296.973 274.492 296.863C274.279 296.754 274.12 296.624 274.016 296.473C273.914 296.322 273.863 296.142 273.863 295.934C273.863 295.587 274.009 295.294 274.301 295.055C274.595 294.815 274.97 294.695 275.426 294.695C275.905 294.695 276.293 294.819 276.59 295.066C276.889 295.314 277.039 295.63 277.039 296.016H276.312C276.312 295.818 276.228 295.647 276.059 295.504C275.892 295.361 275.681 295.289 275.426 295.289C275.163 295.289 274.957 295.346 274.809 295.461C274.66 295.576 274.586 295.725 274.586 295.91C274.586 296.085 274.655 296.216 274.793 296.305C274.931 296.393 275.18 296.478 275.539 296.559C275.901 296.639 276.194 296.736 276.418 296.848C276.642 296.96 276.807 297.095 276.914 297.254C277.023 297.41 277.078 297.602 277.078 297.828C277.078 298.206 276.927 298.509 276.625 298.738C276.323 298.965 275.931 299.078 275.449 299.078C275.111 299.078 274.811 299.018 274.551 298.898C274.29 298.779 274.086 298.612 273.938 298.398C273.792 298.182 273.719 297.949 273.719 297.699H274.441C274.454 297.941 274.551 298.134 274.73 298.277C274.913 298.418 275.152 298.488 275.449 298.488C275.723 298.488 275.941 298.434 276.105 298.324C276.272 298.212 276.355 298.064 276.355 297.879ZM278.805 299H278.082V294.773H278.805V299ZM278.023 293.652C278.023 293.535 278.059 293.436 278.129 293.355C278.202 293.275 278.309 293.234 278.449 293.234C278.59 293.234 278.697 293.275 278.77 293.355C278.842 293.436 278.879 293.535 278.879 293.652C278.879 293.77 278.842 293.867 278.77 293.945C278.697 294.023 278.59 294.062 278.449 294.062C278.309 294.062 278.202 294.023 278.129 293.945C278.059 293.867 278.023 293.77 278.023 293.652ZM280.945 293.75V294.773H281.734V295.332H280.945V297.953C280.945 298.122 280.98 298.25 281.051 298.336C281.121 298.419 281.241 298.461 281.41 298.461C281.493 298.461 281.608 298.445 281.754 298.414V299C281.564 299.052 281.379 299.078 281.199 299.078C280.876 299.078 280.633 298.98 280.469 298.785C280.305 298.59 280.223 298.312 280.223 297.953V295.332H279.453V294.773H280.223V293.75H280.945ZM283.367 299H282.645V294.773H283.367V299ZM282.586 293.652C282.586 293.535 282.621 293.436 282.691 293.355C282.764 293.275 282.871 293.234 283.012 293.234C283.152 293.234 283.259 293.275 283.332 293.355C283.405 293.436 283.441 293.535 283.441 293.652C283.441 293.77 283.405 293.867 283.332 293.945C283.259 294.023 283.152 294.062 283.012 294.062C282.871 294.062 282.764 294.023 282.691 293.945C282.621 293.867 282.586 293.77 282.586 293.652ZM284.336 296.848C284.336 296.434 284.417 296.061 284.578 295.73C284.742 295.4 284.969 295.145 285.258 294.965C285.549 294.785 285.882 294.695 286.254 294.695C286.829 294.695 287.294 294.895 287.648 295.293C288.005 295.691 288.184 296.221 288.184 296.883V296.934C288.184 297.345 288.104 297.715 287.945 298.043C287.789 298.368 287.564 298.622 287.27 298.805C286.978 298.987 286.642 299.078 286.262 299.078C285.689 299.078 285.224 298.879 284.867 298.48C284.513 298.082 284.336 297.555 284.336 296.898V296.848ZM285.062 296.934C285.062 297.402 285.171 297.779 285.387 298.062C285.605 298.346 285.897 298.488 286.262 298.488C286.629 298.488 286.921 298.345 287.137 298.059C287.353 297.77 287.461 297.366 287.461 296.848C287.461 296.384 287.35 296.009 287.129 295.723C286.91 295.434 286.618 295.289 286.254 295.289C285.897 295.289 285.609 295.431 285.391 295.715C285.172 295.999 285.062 296.405 285.062 296.934ZM289.773 294.773L289.797 295.305C290.12 294.898 290.542 294.695 291.062 294.695C291.956 294.695 292.406 295.199 292.414 296.207V299H291.691V296.203C291.689 295.898 291.618 295.673 291.48 295.527C291.345 295.382 291.133 295.309 290.844 295.309C290.609 295.309 290.404 295.371 290.227 295.496C290.049 295.621 289.911 295.785 289.812 295.988V299H289.09V294.773H289.773Z" fill="#7F8285"/>
<rect x="36" y="78" width="435" height="1" fill="#DFE5EB"/>
<rect x="36" y="120" width="435" height="1" fill="#DFE5EB"/>
<rect x="36" y="161" width="435" height="1" fill="#DFE5EB"/>
<rect x="36" y="202" width="435" height="1" fill="#DFE5EB"/>
<path d="M98.3664 208.117L36 172.49V286H471V197.514L407.846 101L347.142 155.273L284.122 128.129L222.585 148.537L160.191 190.105L98.3664 208.117Z" fill="#55B75B"/>
<path d="M36 172.412L98.3664 208L160.191 189.997L222.585 148.485L284.122 128.099L347.142 155.214L407.846 101L471 197.408" stroke="#1C9F24"/>
<path d="M22.0142 27H20.9829V19.1797H22.0142V27ZM29.915 27H28.8784L24.9414 20.9736V27H23.9048V19.1797H24.9414L28.8892 25.2329V19.1797H29.915V27ZM38.7935 24.959H35.5171L34.7812 27H33.7178L36.7041 19.1797H37.6064L40.5981 27H39.54L38.7935 24.959ZM35.8286 24.1104H38.4873L37.1553 20.4526L35.8286 24.1104ZM42.6821 23.9385V27H41.6509V19.1797H44.5352C45.391 19.1797 46.0605 19.3981 46.5439 19.835C47.0309 20.2718 47.2744 20.8501 47.2744 21.5698C47.2744 22.3289 47.0363 22.9144 46.5601 23.3262C46.0874 23.7344 45.4089 23.9385 44.5244 23.9385H42.6821ZM42.6821 23.0952H44.5352C45.0866 23.0952 45.5091 22.9663 45.8027 22.7085C46.0964 22.4471 46.2432 22.0711 46.2432 21.5806C46.2432 21.1151 46.0964 20.7427 45.8027 20.4634C45.5091 20.1841 45.1063 20.0391 44.5942 20.0283H42.6821V23.0952ZM49.6216 23.9385V27H48.5903V19.1797H51.4746C52.3304 19.1797 53 19.3981 53.4834 19.835C53.9704 20.2718 54.2139 20.8501 54.2139 21.5698C54.2139 22.3289 53.9757 22.9144 53.4995 23.3262C53.0269 23.7344 52.3483 23.9385 51.4639 23.9385H49.6216ZM49.6216 23.0952H51.4746C52.026 23.0952 52.4486 22.9663 52.7422 22.7085C53.0358 22.4471 53.1826 22.0711 53.1826 21.5806C53.1826 21.1151 53.0358 20.7427 52.7422 20.4634C52.4486 20.1841 52.0457 20.0391 51.5337 20.0283H49.6216V23.0952ZM59.2896 23.9385V27H58.2583V19.1797H61.1426C61.9984 19.1797 62.668 19.3981 63.1514 19.835C63.6383 20.2718 63.8818 20.8501 63.8818 21.5698C63.8818 22.3289 63.6437 22.9144 63.1675 23.3262C62.6948 23.7344 62.0163 23.9385 61.1318 23.9385H59.2896ZM59.2896 23.0952H61.1426C61.694 23.0952 62.1165 22.9663 62.4102 22.7085C62.7038 22.4471 62.8506 22.0711 62.8506 21.5806C62.8506 21.1151 62.7038 20.7427 62.4102 20.4634C62.1165 20.1841 61.7137 20.0391 61.2017 20.0283H59.2896V23.0952ZM70.7031 19.1797V24.4971C70.6995 25.2347 70.4668 25.8381 70.0049 26.3071C69.5465 26.7762 68.9235 27.0394 68.1357 27.0967L67.8618 27.1074C67.006 27.1074 66.3239 26.8765 65.8154 26.4146C65.307 25.9526 65.0492 25.3171 65.042 24.5078V19.1797H66.0625V24.4756C66.0625 25.0413 66.2183 25.4818 66.5298 25.7969C66.8413 26.1084 67.2853 26.2642 67.8618 26.2642C68.4455 26.2642 68.8913 26.1084 69.1992 25.7969C69.5107 25.4854 69.6665 25.0467 69.6665 24.481V19.1797H70.7031ZM75.1987 23.8364H73.3618V27H72.3252V19.1797H74.9141C75.7949 19.1797 76.4717 19.3802 76.9443 19.7812C77.4206 20.1823 77.6587 20.766 77.6587 21.5322C77.6587 22.0192 77.5262 22.4435 77.2612 22.8052C76.9998 23.1668 76.6346 23.4372 76.1655 23.6162L78.0024 26.9355V27H76.896L75.1987 23.8364ZM73.3618 22.9932H74.9463C75.4583 22.9932 75.8647 22.8607 76.1655 22.5957C76.4699 22.3307 76.6221 21.9762 76.6221 21.5322C76.6221 21.0488 76.4771 20.6782 76.187 20.4204C75.9006 20.1626 75.4852 20.0319 74.9409 20.0283H73.3618V22.9932ZM84.8613 24.5186C84.7646 25.3457 84.4585 25.9849 83.9429 26.436C83.4308 26.8836 82.7487 27.1074 81.8965 27.1074C80.9727 27.1074 80.2314 26.7762 79.6729 26.1138C79.1178 25.4513 78.8403 24.5651 78.8403 23.4551V22.7031C78.8403 21.9762 78.9692 21.3371 79.2271 20.7856C79.4884 20.2342 79.8573 19.8117 80.3335 19.5181C80.8097 19.2209 81.3612 19.0723 81.9878 19.0723C82.8185 19.0723 83.4845 19.305 83.9858 19.7705C84.4871 20.2324 84.779 20.8734 84.8613 21.6934H83.8247C83.7352 21.0703 83.54 20.6191 83.2393 20.3398C82.9421 20.0605 82.5249 19.9209 81.9878 19.9209C81.3289 19.9209 80.8115 20.1644 80.4355 20.6514C80.0632 21.1383 79.877 21.8312 79.877 22.73V23.4873C79.877 24.3359 80.0542 25.0109 80.4087 25.5122C80.7632 26.0135 81.2591 26.2642 81.8965 26.2642C82.4694 26.2642 82.908 26.1353 83.2124 25.8774C83.5203 25.616 83.7244 25.1631 83.8247 24.5186H84.8613ZM92.2842 27H91.2476V23.3853H87.3052V27H86.2739V19.1797H87.3052V22.542H91.2476V19.1797H92.2842V27ZM98.5308 24.959H95.2544L94.5186 27H93.4551L96.4414 19.1797H97.3438L100.335 27H99.2773L98.5308 24.959ZM95.5659 24.1104H98.2246L96.8926 20.4526L95.5659 24.1104ZM103.692 23.5142C102.808 23.2599 102.163 22.9484 101.759 22.5796C101.358 22.2072 101.157 21.7489 101.157 21.2046C101.157 20.5887 101.403 20.0802 101.893 19.6792C102.387 19.2746 103.028 19.0723 103.816 19.0723C104.353 19.0723 104.831 19.1761 105.25 19.3838C105.673 19.5915 105.998 19.8779 106.228 20.2432C106.46 20.6084 106.577 21.0076 106.577 21.4409H105.54C105.54 20.9683 105.39 20.5977 105.089 20.3291C104.788 20.057 104.364 19.9209 103.816 19.9209C103.307 19.9209 102.91 20.0337 102.624 20.2593C102.341 20.4813 102.199 20.791 102.199 21.1885C102.199 21.5072 102.333 21.7775 102.602 21.9995C102.874 22.2179 103.334 22.4185 103.982 22.6011C104.634 22.7837 105.143 22.986 105.508 23.208C105.877 23.4264 106.149 23.6825 106.324 23.9761C106.503 24.2697 106.593 24.6152 106.593 25.0127C106.593 25.6465 106.346 26.1549 105.852 26.5381C105.357 26.9176 104.697 27.1074 103.87 27.1074C103.333 27.1074 102.831 27.0054 102.366 26.8013C101.9 26.5936 101.54 26.3107 101.286 25.9526C101.035 25.5946 100.91 25.1882 100.91 24.7334H101.947C101.947 25.2061 102.12 25.5802 102.468 25.856C102.819 26.1281 103.286 26.2642 103.87 26.2642C104.414 26.2642 104.831 26.1532 105.121 25.9312C105.411 25.7091 105.556 25.4066 105.556 25.0234C105.556 24.6403 105.422 24.3449 105.153 24.1372C104.885 23.9259 104.398 23.7183 103.692 23.5142ZM112.34 23.3853H108.951V26.1567H112.888V27H107.919V19.1797H112.834V20.0283H108.951V22.542H112.34V23.3853ZM117.937 26.1567H121.643V27H116.9V19.1797H117.937V26.1567ZM126.74 20.0283H124.226V27H123.2V20.0283H120.692V19.1797H126.74V20.0283ZM130.575 25.6304L132.809 19.1797H133.937L131.037 27H130.124L127.229 19.1797H128.351L130.575 25.6304Z" fill="#4E535C"/>
<path d="M205.014 55H203.983V47.1797H205.014V55ZM207.689 49.1885L207.721 49.9189C208.165 49.3604 208.745 49.0811 209.461 49.0811C210.69 49.0811 211.309 49.7739 211.32 51.1597V55H210.326V51.1543C210.323 50.7354 210.226 50.4256 210.036 50.2251C209.85 50.0246 209.558 49.9243 209.161 49.9243C208.838 49.9243 208.556 50.0103 208.312 50.1821C208.069 50.354 207.879 50.5796 207.743 50.8589V55H206.749V49.1885H207.689ZM220.021 52.959H216.745L216.009 55H214.945L217.932 47.1797H218.834L221.826 55H220.768L220.021 52.959ZM217.056 52.1104H219.715L218.383 48.4526L217.056 52.1104ZM227.632 52.1587C227.632 53.0431 227.43 53.7557 227.025 54.2964C226.62 54.8371 226.072 55.1074 225.381 55.1074C224.676 55.1074 224.121 54.8836 223.716 54.436V57.2344H222.723V49.1885H223.63L223.679 49.833C224.083 49.3317 224.646 49.0811 225.365 49.0811C226.063 49.0811 226.615 49.3442 227.02 49.8706C227.428 50.397 227.632 51.1292 227.632 52.0674V52.1587ZM226.638 52.0459C226.638 51.3906 226.499 50.8732 226.219 50.4937C225.94 50.1141 225.557 49.9243 225.07 49.9243C224.468 49.9243 224.017 50.1911 223.716 50.7246V53.5015C224.014 54.0314 224.468 54.2964 225.081 54.2964C225.557 54.2964 225.935 54.1084 226.214 53.7324C226.497 53.3529 226.638 52.7907 226.638 52.0459ZM233.809 52.1587C233.809 53.0431 233.606 53.7557 233.202 54.2964C232.797 54.8371 232.249 55.1074 231.558 55.1074C230.853 55.1074 230.298 54.8836 229.893 54.436V57.2344H228.899V49.1885H229.807L229.855 49.833C230.26 49.3317 230.822 49.0811 231.542 49.0811C232.24 49.0811 232.792 49.3442 233.196 49.8706C233.604 50.397 233.809 51.1292 233.809 52.0674V52.1587ZM232.815 52.0459C232.815 51.3906 232.675 50.8732 232.396 50.4937C232.117 50.1141 231.734 49.9243 231.247 49.9243C230.645 49.9243 230.194 50.1911 229.893 50.7246V53.5015C230.19 54.0314 230.645 54.2964 231.257 54.2964C231.734 54.2964 232.111 54.1084 232.391 53.7324C232.674 53.3529 232.815 52.7907 232.815 52.0459ZM238.992 51.9385V55H237.96V47.1797H240.845C241.701 47.1797 242.37 47.3981 242.854 47.835C243.34 48.2718 243.584 48.8501 243.584 49.5698C243.584 50.3289 243.346 50.9144 242.87 51.3262C242.397 51.7344 241.718 51.9385 240.834 51.9385H238.992ZM238.992 51.0952H240.845C241.396 51.0952 241.819 50.9663 242.112 50.7085C242.406 50.4471 242.553 50.0711 242.553 49.5806C242.553 49.1151 242.406 48.7427 242.112 48.4634C241.819 48.1841 241.416 48.0391 240.904 48.0283H238.992V51.0952ZM248.332 54.4253C247.945 54.88 247.378 55.1074 246.629 55.1074C246.01 55.1074 245.537 54.9284 245.211 54.5703C244.889 54.2087 244.726 53.6751 244.723 52.9697V49.1885H245.716V52.9429C245.716 53.8237 246.074 54.2642 246.791 54.2642C247.55 54.2642 248.055 53.9813 248.305 53.4155V49.1885H249.299V55H248.354L248.332 54.4253ZM253.623 50.0801C253.472 50.055 253.309 50.0425 253.134 50.0425C252.482 50.0425 252.04 50.32 251.807 50.875V55H250.813V49.1885H251.78L251.796 49.8599C252.122 49.3407 252.584 49.0811 253.182 49.0811C253.375 49.0811 253.522 49.1061 253.623 49.1562V50.0801ZM256.765 54.2964C257.119 54.2964 257.429 54.189 257.694 53.9741C257.959 53.7593 258.106 53.4907 258.134 53.1685H259.074C259.056 53.5015 258.942 53.8184 258.73 54.1191C258.519 54.4199 258.236 54.6598 257.882 54.8389C257.531 55.0179 257.159 55.1074 256.765 55.1074C255.973 55.1074 255.343 54.8442 254.874 54.3179C254.409 53.7879 254.176 53.0646 254.176 52.1479V51.9814C254.176 51.4157 254.28 50.9126 254.487 50.4722C254.695 50.0317 254.992 49.6898 255.379 49.4463C255.769 49.2028 256.229 49.0811 256.759 49.0811C257.411 49.0811 257.952 49.2762 258.381 49.6665C258.815 50.0568 259.046 50.5635 259.074 51.1865H258.134C258.106 50.8105 257.962 50.5026 257.705 50.2627C257.45 50.0192 257.135 49.8975 256.759 49.8975C256.254 49.8975 255.862 50.0801 255.583 50.4453C255.307 50.807 255.169 51.3315 255.169 52.019V52.207C255.169 52.8766 255.307 53.3923 255.583 53.7539C255.859 54.1156 256.253 54.2964 256.765 54.2964ZM261.185 49.8921C261.625 49.3514 262.198 49.0811 262.904 49.0811C264.132 49.0811 264.751 49.7739 264.762 51.1597V55H263.769V51.1543C263.765 50.7354 263.668 50.4256 263.479 50.2251C263.292 50.0246 263 49.9243 262.603 49.9243C262.281 49.9243 261.998 50.0103 261.754 50.1821C261.511 50.354 261.321 50.5796 261.185 50.8589V55H260.191V46.75H261.185V49.8921ZM269.838 55C269.781 54.8854 269.734 54.6813 269.698 54.3877C269.236 54.8675 268.685 55.1074 268.044 55.1074C267.471 55.1074 267 54.9463 266.631 54.624C266.266 54.2982 266.083 53.8864 266.083 53.3887C266.083 52.7835 266.313 52.3145 266.771 51.9814C267.233 51.6449 267.881 51.4766 268.715 51.4766H269.682V51.02C269.682 50.6727 269.578 50.397 269.371 50.1929C269.163 49.9852 268.857 49.8813 268.452 49.8813C268.098 49.8813 267.8 49.9709 267.561 50.1499C267.321 50.3289 267.201 50.5456 267.201 50.7998H266.202C266.202 50.5098 266.304 50.2305 266.508 49.9619C266.715 49.6898 266.995 49.4749 267.346 49.3174C267.7 49.1598 268.089 49.0811 268.511 49.0811C269.181 49.0811 269.705 49.2493 270.085 49.5859C270.465 49.9189 270.661 50.3791 270.676 50.9663V53.6411C270.676 54.1746 270.744 54.599 270.88 54.9141V55H269.838ZM268.189 54.2427C268.5 54.2427 268.796 54.1621 269.075 54.001C269.354 53.8398 269.557 53.6304 269.682 53.3726V52.1802H268.903C267.686 52.1802 267.077 52.5365 267.077 53.249C267.077 53.5605 267.181 53.804 267.389 53.9795C267.596 54.1549 267.863 54.2427 268.189 54.2427ZM275.617 53.4585C275.617 53.1899 275.515 52.9823 275.311 52.8354C275.111 52.6851 274.758 52.5562 274.253 52.4487C273.752 52.3413 273.352 52.2124 273.055 52.062C272.762 51.9116 272.543 51.7326 272.4 51.5249C272.26 51.3172 272.19 51.0701 272.19 50.7837C272.19 50.3075 272.391 49.9046 272.792 49.5752C273.197 49.2458 273.712 49.0811 274.339 49.0811C274.998 49.0811 275.531 49.2511 275.939 49.5913C276.351 49.9315 276.557 50.3665 276.557 50.8965H275.558C275.558 50.6243 275.442 50.3898 275.209 50.1929C274.98 49.9959 274.69 49.8975 274.339 49.8975C273.977 49.8975 273.694 49.9762 273.49 50.1338C273.286 50.2913 273.184 50.4972 273.184 50.7515C273.184 50.9914 273.279 51.1722 273.469 51.2939C273.659 51.4157 274 51.5321 274.495 51.6431C274.992 51.7541 275.395 51.8866 275.703 52.0405C276.011 52.1945 276.238 52.3807 276.385 52.5991C276.536 52.814 276.611 53.0771 276.611 53.3887C276.611 53.9079 276.403 54.325 275.988 54.6401C275.572 54.9517 275.034 55.1074 274.371 55.1074C273.906 55.1074 273.494 55.0251 273.136 54.8604C272.778 54.6956 272.497 54.4665 272.292 54.1729C272.092 53.8757 271.992 53.5552 271.992 53.2114H272.985C273.003 53.5444 273.136 53.8094 273.383 54.0063C273.633 54.1997 273.963 54.2964 274.371 54.2964C274.747 54.2964 275.048 54.2212 275.273 54.0708C275.503 53.9168 275.617 53.7127 275.617 53.4585ZM280.317 55.1074C279.529 55.1074 278.888 54.8496 278.394 54.334C277.9 53.8148 277.653 53.1219 277.653 52.2554V52.0728C277.653 51.4963 277.762 50.9824 277.98 50.5312C278.202 50.0765 278.51 49.722 278.904 49.4678C279.302 49.21 279.731 49.0811 280.193 49.0811C280.949 49.0811 281.536 49.3299 281.955 49.8276C282.374 50.3254 282.583 51.0379 282.583 51.9653V52.3789H278.646C278.661 52.9518 278.827 53.4155 279.146 53.77C279.468 54.1209 279.876 54.2964 280.371 54.2964C280.722 54.2964 281.019 54.2248 281.262 54.0815C281.506 53.9383 281.719 53.7485 281.901 53.5122L282.508 53.9849C282.021 54.7332 281.291 55.1074 280.317 55.1074ZM280.193 49.8975C279.792 49.8975 279.456 50.0443 279.184 50.3379C278.911 50.6279 278.743 51.0361 278.679 51.5625H281.59V51.4873C281.561 50.9824 281.425 50.5921 281.182 50.3164C280.938 50.0371 280.609 49.8975 280.193 49.8975ZM287.659 54.1567H291.365V55H286.623V47.1797H287.659V54.1567ZM296.462 48.0283H293.949V55H292.923V48.0283H290.415V47.1797H296.462V48.0283ZM300.297 53.6304L302.532 47.1797H303.66L300.759 55H299.846L296.951 47.1797H298.074L300.297 53.6304Z" fill="#4E535C"/>
<path d="M422.523 30.7041C422.523 30.165 422.333 29.7109 421.952 29.3418C421.577 28.9727 420.941 28.6387 420.045 28.3398C418.797 27.959 417.886 27.4639 417.312 26.8545C416.743 26.2393 416.459 25.46 416.459 24.5166C416.459 23.5557 416.737 22.7676 417.294 22.1523C417.856 21.5371 418.627 21.1709 419.605 21.0537V19.1289H420.915V21.0625C421.899 21.1973 422.664 21.6104 423.209 22.3018C423.76 22.9932 424.035 23.9395 424.035 25.1406H422.418C422.418 24.3145 422.222 23.6582 421.829 23.1719C421.437 22.6855 420.906 22.4424 420.238 22.4424C419.541 22.4424 419.008 22.624 418.639 22.9873C418.27 23.3447 418.085 23.8457 418.085 24.4902C418.085 25.0879 418.278 25.5654 418.665 25.9229C419.058 26.2744 419.699 26.5967 420.59 26.8896C421.486 27.1768 422.184 27.4961 422.682 27.8477C423.186 28.1934 423.555 28.5977 423.789 29.0605C424.029 29.5234 424.149 30.0654 424.149 30.6865C424.149 31.6768 423.851 32.4736 423.253 33.0771C422.661 33.6807 421.829 34.0381 420.757 34.1494V35.8281H419.456V34.1494C418.366 34.0498 417.511 33.6631 416.89 32.9893C416.274 32.3096 415.967 31.3896 415.967 30.2295H417.593C417.593 31.0439 417.807 31.6709 418.234 32.1104C418.662 32.5498 419.269 32.7695 420.054 32.7695C420.821 32.7695 421.425 32.585 421.864 32.2158C422.304 31.8467 422.523 31.3428 422.523 30.7041ZM432.552 21.1943V22.5742H432.253C430.987 22.5977 429.979 22.9727 429.229 23.6992C428.479 24.4258 428.046 25.4482 427.929 26.7666C428.603 25.9932 429.522 25.6064 430.688 25.6064C431.802 25.6064 432.689 25.999 433.352 26.7842C434.02 27.5693 434.354 28.583 434.354 29.8252C434.354 31.1436 433.993 32.1982 433.272 32.9893C432.558 33.7803 431.597 34.1758 430.39 34.1758C429.165 34.1758 428.172 33.707 427.41 32.7695C426.648 31.8262 426.268 30.6133 426.268 29.1309V28.5068C426.268 26.1514 426.769 24.3525 427.771 23.1104C428.778 21.8623 430.275 21.2236 432.262 21.1943H432.552ZM430.416 26.96C429.859 26.96 429.347 27.127 428.878 27.4609C428.409 27.7949 428.084 28.2139 427.902 28.7178V29.3154C427.902 30.3701 428.14 31.2197 428.614 31.8643C429.089 32.5088 429.681 32.8311 430.39 32.8311C431.122 32.8311 431.696 32.5615 432.112 32.0225C432.534 31.4834 432.745 30.7773 432.745 29.9043C432.745 29.0254 432.531 28.3164 432.104 27.7773C431.682 27.2324 431.119 26.96 430.416 26.96ZM444.303 28.542C444.303 30.4463 443.978 31.8613 443.327 32.7871C442.677 33.7129 441.66 34.1758 440.277 34.1758C438.912 34.1758 437.901 33.7246 437.245 32.8223C436.589 31.9141 436.249 30.5605 436.226 28.7617V26.5908C436.226 24.71 436.551 23.3125 437.201 22.3984C437.852 21.4844 438.871 21.0273 440.26 21.0273C441.637 21.0273 442.65 21.4697 443.301 22.3545C443.951 23.2334 444.285 24.5928 444.303 26.4326V28.542ZM442.677 26.3184C442.677 24.9414 442.483 23.9395 442.097 23.3125C441.71 22.6797 441.098 22.3633 440.26 22.3633C439.428 22.3633 438.821 22.6768 438.44 23.3037C438.06 23.9307 437.863 24.8945 437.852 26.1953V28.7969C437.852 30.1797 438.051 31.2021 438.449 31.8643C438.854 32.5205 439.463 32.8486 440.277 32.8486C441.08 32.8486 441.675 32.5381 442.062 31.917C442.454 31.2959 442.659 30.3174 442.677 28.9814V26.3184ZM446.588 33.1475C446.588 32.8662 446.67 32.6318 446.834 32.4443C447.004 32.2568 447.256 32.1631 447.59 32.1631C447.924 32.1631 448.176 32.2568 448.346 32.4443C448.521 32.6318 448.609 32.8662 448.609 33.1475C448.609 33.417 448.521 33.6426 448.346 33.8242C448.176 34.0059 447.924 34.0967 447.59 34.0967C447.256 34.0967 447.004 34.0059 446.834 33.8242C446.67 33.6426 446.588 33.417 446.588 33.1475ZM453.496 26.8105H454.718C455.485 26.7988 456.089 26.5967 456.528 26.2041C456.968 25.8115 457.188 25.2812 457.188 24.6133C457.188 23.1133 456.44 22.3633 454.946 22.3633C454.243 22.3633 453.681 22.5654 453.259 22.9697C452.843 23.3682 452.635 23.8984 452.635 24.5605H451.009C451.009 23.5469 451.378 22.7061 452.116 22.0381C452.86 21.3643 453.804 21.0273 454.946 21.0273C456.153 21.0273 457.1 21.3467 457.785 21.9854C458.471 22.624 458.813 23.5117 458.813 24.6484C458.813 25.2051 458.632 25.7441 458.269 26.2656C457.911 26.7871 457.422 27.1768 456.801 27.4346C457.504 27.6572 458.046 28.0264 458.427 28.542C458.813 29.0576 459.007 29.6875 459.007 30.4316C459.007 31.5801 458.632 32.4912 457.882 33.165C457.132 33.8389 456.156 34.1758 454.955 34.1758C453.754 34.1758 452.775 33.8506 452.02 33.2002C451.27 32.5498 450.895 31.6914 450.895 30.625H452.529C452.529 31.2988 452.749 31.8379 453.188 32.2422C453.628 32.6465 454.217 32.8486 454.955 32.8486C455.74 32.8486 456.341 32.6436 456.757 32.2334C457.173 31.8232 457.381 31.2344 457.381 30.4668C457.381 29.7227 457.152 29.1514 456.695 28.7529C456.238 28.3545 455.579 28.1494 454.718 28.1377H453.496V26.8105ZM461.986 27.584L462.637 21.2031H469.193V22.7061H464.017L463.63 26.1953C464.257 25.8262 464.969 25.6416 465.766 25.6416C466.932 25.6416 467.857 26.0283 468.543 26.8018C469.229 27.5693 469.571 28.6094 469.571 29.9219C469.571 31.2402 469.214 32.2803 468.499 33.042C467.79 33.7979 466.797 34.1758 465.52 34.1758C464.389 34.1758 463.466 33.8623 462.751 33.2354C462.036 32.6084 461.629 31.7412 461.529 30.6338H463.067C463.167 31.3662 463.428 31.9199 463.85 32.2949C464.271 32.6641 464.828 32.8486 465.52 32.8486C466.275 32.8486 466.867 32.5908 467.295 32.0752C467.729 31.5596 467.945 30.8477 467.945 29.9395C467.945 29.084 467.711 28.3984 467.242 27.8828C466.779 27.3613 466.161 27.1006 465.388 27.1006C464.679 27.1006 464.122 27.2559 463.718 27.5664L463.287 27.918L461.986 27.584Z" fill="#4E535C"/>
<path d="M436.07 42.9297H434.242V48H433.496V42.9297H431.672V42.3125H436.07V42.9297ZM441.18 45.3398C441.18 45.8971 441.086 46.3841 440.898 46.8008C440.711 47.2148 440.445 47.5312 440.102 47.75C439.758 47.9688 439.357 48.0781 438.898 48.0781C438.451 48.0781 438.053 47.9688 437.707 47.75C437.361 47.5286 437.091 47.2148 436.898 46.8086C436.708 46.3997 436.611 45.9271 436.605 45.3906V44.9805C436.605 44.4336 436.701 43.9505 436.891 43.5312C437.081 43.112 437.349 42.7917 437.695 42.5703C438.044 42.3464 438.443 42.2344 438.891 42.2344C439.346 42.2344 439.747 42.3451 440.094 42.5664C440.443 42.7852 440.711 43.1042 440.898 43.5234C441.086 43.9401 441.18 44.4258 441.18 44.9805V45.3398ZM440.434 44.9727C440.434 44.2982 440.298 43.7812 440.027 43.4219C439.757 43.0599 439.378 42.8789 438.891 42.8789C438.417 42.8789 438.043 43.0599 437.77 43.4219C437.499 43.7812 437.359 44.2812 437.352 44.9219V45.3398C437.352 45.9935 437.488 46.5078 437.762 46.8828C438.038 47.2552 438.417 47.4414 438.898 47.4414C439.383 47.4414 439.758 47.2656 440.023 46.9141C440.289 46.5599 440.426 46.0534 440.434 45.3945V44.9727ZM446.125 42.9297H444.297V48H443.551V42.9297H441.727V42.3125H446.125V42.9297ZM449.797 46.5156H447.414L446.879 48H446.105L448.277 42.3125H448.934L451.109 48H450.34L449.797 46.5156ZM447.641 45.8984H449.574L448.605 43.2383L447.641 45.8984ZM452.629 47.3867H455.324V48H451.875V42.3125H452.629V47.3867Z" fill="#7F8285"/>
<path d="M20.5 45C20.5 43.067 22.067 41.5 24 41.5H42.5V60.5H24C22.067 60.5 20.5 58.933 20.5 57V45Z" fill="#E9E9E9"/>
<path d="M30.6626 48.0586L28.0127 54H27.1602L29.8013 48.2695H26.3384V47.6016H30.6626V48.0586ZM31.4712 51.583C31.4712 50.8535 31.644 50.2676 31.9897 49.8252C32.3354 49.3799 32.7881 49.1572 33.3477 49.1572C33.9043 49.1572 34.3452 49.3477 34.6704 49.7285V47.25H35.4834V54H34.7363L34.6968 53.4902C34.3716 53.8887 33.9189 54.0879 33.3389 54.0879C32.7881 54.0879 32.3384 53.8623 31.9897 53.4111C31.644 52.96 31.4712 52.3711 31.4712 51.6445V51.583ZM32.2842 51.6753C32.2842 52.2144 32.3955 52.6362 32.6182 52.9409C32.8408 53.2456 33.1484 53.3979 33.541 53.3979C34.0566 53.3979 34.4331 53.1665 34.6704 52.7036V50.5195C34.4272 50.0713 34.0537 49.8472 33.5498 49.8472C33.1514 49.8472 32.8408 50.001 32.6182 50.3086C32.3955 50.6162 32.2842 51.0718 32.2842 51.6753Z" fill="#4E535C"/>
<path d="M20.5 45C20.5 43.067 22.067 41.5 24 41.5H42.5V60.5H24C22.067 60.5 20.5 58.933 20.5 57V45Z" stroke="#CCCCCC"/>
<rect x="42.5" y="41.5" width="27" height="19" fill="white"/>
<path d="M49.7139 50.4053H50.3247C50.7085 50.3994 51.0103 50.2983 51.23 50.1021C51.4497 49.9058 51.5596 49.6406 51.5596 49.3066C51.5596 48.5566 51.186 48.1816 50.439 48.1816C50.0874 48.1816 49.8062 48.2827 49.5952 48.4849C49.3872 48.6841 49.2832 48.9492 49.2832 49.2803H48.4702C48.4702 48.7734 48.6548 48.353 49.0239 48.019C49.396 47.6821 49.8677 47.5137 50.439 47.5137C51.0425 47.5137 51.5156 47.6733 51.8584 47.9927C52.2012 48.312 52.3726 48.7559 52.3726 49.3242C52.3726 49.6025 52.2817 49.8721 52.1001 50.1328C51.9214 50.3936 51.6768 50.5884 51.3662 50.7173C51.7178 50.8286 51.9888 51.0132 52.1792 51.271C52.3726 51.5288 52.4692 51.8438 52.4692 52.2158C52.4692 52.79 52.2817 53.2456 51.9067 53.5825C51.5317 53.9194 51.0439 54.0879 50.4434 54.0879C49.8428 54.0879 49.3535 53.9253 48.9756 53.6001C48.6006 53.2749 48.4131 52.8457 48.4131 52.3125H49.2305C49.2305 52.6494 49.3403 52.9189 49.5601 53.1211C49.7798 53.3232 50.0742 53.4243 50.4434 53.4243C50.8359 53.4243 51.1362 53.3218 51.3442 53.1167C51.5522 52.9116 51.6562 52.6172 51.6562 52.2334C51.6562 51.8613 51.542 51.5757 51.3135 51.3765C51.085 51.1772 50.7554 51.0747 50.3247 51.0688H49.7139V50.4053ZM57.5977 51.271C57.5977 52.2231 57.4351 52.9307 57.1099 53.3936C56.7847 53.8564 56.2764 54.0879 55.585 54.0879C54.9023 54.0879 54.397 53.8623 54.0688 53.4111C53.7407 52.957 53.5708 52.2803 53.5591 51.3809V50.2954C53.5591 49.355 53.7217 48.6562 54.0469 48.1992C54.3721 47.7422 54.8818 47.5137 55.5762 47.5137C56.2646 47.5137 56.7715 47.7349 57.0967 48.1772C57.4219 48.6167 57.5889 49.2964 57.5977 50.2163V51.271ZM56.7847 50.1592C56.7847 49.4707 56.688 48.9697 56.4946 48.6562C56.3013 48.3398 55.9951 48.1816 55.5762 48.1816C55.1602 48.1816 54.8569 48.3384 54.6665 48.6519C54.4761 48.9653 54.3779 49.4473 54.3721 50.0977V51.3984C54.3721 52.0898 54.4717 52.6011 54.6709 52.9321C54.873 53.2603 55.1777 53.4243 55.585 53.4243C55.9863 53.4243 56.2837 53.269 56.4771 52.9585C56.6733 52.6479 56.7759 52.1587 56.7847 51.4907V50.1592ZM58.5249 51.583C58.5249 50.8535 58.6978 50.2676 59.0435 49.8252C59.3892 49.3799 59.8418 49.1572 60.4014 49.1572C60.958 49.1572 61.3989 49.3477 61.7241 49.7285V47.25H62.5371V54H61.79L61.7505 53.4902C61.4253 53.8887 60.9727 54.0879 60.3926 54.0879C59.8418 54.0879 59.3921 53.8623 59.0435 53.4111C58.6978 52.96 58.5249 52.3711 58.5249 51.6445V51.583ZM59.3379 51.6753C59.3379 52.2144 59.4492 52.6362 59.6719 52.9409C59.8945 53.2456 60.2021 53.3979 60.5947 53.3979C61.1104 53.3979 61.4868 53.1665 61.7241 52.7036V50.5195C61.481 50.0713 61.1074 49.8472 60.6035 49.8472C60.2051 49.8472 59.8945 50.001 59.6719 50.3086C59.4492 50.6162 59.3379 51.0718 59.3379 51.6753Z" fill="#4E535C"/>
<rect x="42.5" y="41.5" width="27" height="19" stroke="#CCCCCC"/>
<path d="M69.5 41.5H88C89.933 41.5 91.5 43.067 91.5 45V57C91.5 58.933 89.933 60.5 88 60.5H69.5V41.5Z" fill="white"/>
<path d="M79.2759 52.3301H76.5952L75.9932 54H75.123L77.5664 47.6016H78.3047L80.7524 54H79.8867L79.2759 52.3301ZM76.8501 51.6357H79.0254L77.9355 48.6431L76.8501 51.6357ZM82.3696 54H81.5566V47.25H82.3696V54ZM84.5581 54H83.7451V47.25H84.5581V54Z" fill="#4E535C"/>
<path d="M69.5 41.5H88C89.933 41.5 91.5 43.067 91.5 45V57C91.5 58.933 89.933 60.5 88 60.5H69.5V41.5Z" stroke="#CCCCCC"/>
<rect x="0.5" y="0.5" width="487" height="308" rx="11.5" stroke="#DFE5EB"/>
</svg>
