<svg width="488" height="301" viewBox="0 0 488 301" fill="none" xmlns="http://www.w3.org/2000/svg">
<rect x="0.5" y="0.5" width="487" height="300" rx="11.5" fill="white"/>
<rect x="12" y="99" width="464" height="33" fill="white"/>
<rect opacity="0.5" x="12" y="131" width="464" height="1" fill="#DFE5EB"/>
<path d="M34.8848 111.395H32.1426V119H31.0234V111.395H28.2871V110.469H34.8848V111.395ZM38.5996 113.633C38.4355 113.605 38.2578 113.592 38.0664 113.592C37.3555 113.592 36.873 113.895 36.6191 114.5V119H35.5352V112.66H36.5898L36.6074 113.393C36.9629 112.826 37.4668 112.543 38.1191 112.543C38.3301 112.543 38.4902 112.57 38.5996 112.625V113.633ZM40.7793 119H39.6953V112.66H40.7793V119ZM39.6074 110.979C39.6074 110.803 39.6602 110.654 39.7656 110.533C39.875 110.412 40.0352 110.352 40.2461 110.352C40.457 110.352 40.6172 110.412 40.7266 110.533C40.8359 110.654 40.8906 110.803 40.8906 110.979C40.8906 111.154 40.8359 111.301 40.7266 111.418C40.6172 111.535 40.457 111.594 40.2461 111.594C40.0352 111.594 39.875 111.535 39.7656 111.418C39.6602 111.301 39.6074 111.154 39.6074 110.979ZM46.4336 119C46.3711 118.875 46.3203 118.652 46.2812 118.332C45.7773 118.855 45.1758 119.117 44.4766 119.117C43.8516 119.117 43.3379 118.941 42.9355 118.59C42.5371 118.234 42.3379 117.785 42.3379 117.242C42.3379 116.582 42.5879 116.07 43.0879 115.707C43.5918 115.34 44.2988 115.156 45.209 115.156H46.2637V114.658C46.2637 114.279 46.1504 113.979 45.9238 113.756C45.6973 113.529 45.3633 113.416 44.9219 113.416C44.5352 113.416 44.2109 113.514 43.9492 113.709C43.6875 113.904 43.5566 114.141 43.5566 114.418H42.4668C42.4668 114.102 42.5781 113.797 42.8008 113.504C43.0273 113.207 43.332 112.973 43.7148 112.801C44.1016 112.629 44.5254 112.543 44.9863 112.543C45.7168 112.543 46.2891 112.727 46.7031 113.094C47.1172 113.457 47.332 113.959 47.3477 114.6V117.518C47.3477 118.1 47.4219 118.562 47.5703 118.906V119H46.4336ZM44.6348 118.174C44.9746 118.174 45.2969 118.086 45.6016 117.91C45.9062 117.734 46.127 117.506 46.2637 117.225V115.924H45.4141C44.0859 115.924 43.4219 116.312 43.4219 117.09C43.4219 117.43 43.5352 117.695 43.7617 117.887C43.9883 118.078 44.2793 118.174 44.6348 118.174ZM50.2246 119H49.1406V110H50.2246V119ZM56.5352 119.885H51.168V119H56.5352V119.885ZM60.0625 115.197C59.0977 114.92 58.3945 114.58 57.9531 114.178C57.5156 113.771 57.2969 113.271 57.2969 112.678C57.2969 112.006 57.5645 111.451 58.0996 111.014C58.6387 110.572 59.3379 110.352 60.1973 110.352C60.7832 110.352 61.3047 110.465 61.7617 110.691C62.2227 110.918 62.5781 111.23 62.8281 111.629C63.082 112.027 63.209 112.463 63.209 112.936H62.0781C62.0781 112.42 61.9141 112.016 61.5859 111.723C61.2578 111.426 60.7949 111.277 60.1973 111.277C59.6426 111.277 59.209 111.4 58.8965 111.646C58.5879 111.889 58.4336 112.227 58.4336 112.66C58.4336 113.008 58.5801 113.303 58.873 113.545C59.1699 113.783 59.6719 114.002 60.3789 114.201C61.0898 114.4 61.6445 114.621 62.043 114.863C62.4453 115.102 62.7422 115.381 62.9336 115.701C63.1289 116.021 63.2266 116.398 63.2266 116.832C63.2266 117.523 62.957 118.078 62.418 118.496C61.8789 118.91 61.1582 119.117 60.2559 119.117C59.6699 119.117 59.123 119.006 58.6152 118.783C58.1074 118.557 57.7148 118.248 57.4375 117.857C57.1641 117.467 57.0273 117.023 57.0273 116.527H58.1582C58.1582 117.043 58.3477 117.451 58.7266 117.752C59.1094 118.049 59.6191 118.197 60.2559 118.197C60.8496 118.197 61.3047 118.076 61.6211 117.834C61.9375 117.592 62.0957 117.262 62.0957 116.844C62.0957 116.426 61.9492 116.104 61.6562 115.877C61.3633 115.646 60.832 115.42 60.0625 115.197ZM65.9746 111.125V112.66H67.1582V113.498H65.9746V117.43C65.9746 117.684 66.0273 117.875 66.1328 118.004C66.2383 118.129 66.418 118.191 66.6719 118.191C66.7969 118.191 66.9688 118.168 67.1875 118.121V119C66.9023 119.078 66.625 119.117 66.3555 119.117C65.8711 119.117 65.5059 118.971 65.2598 118.678C65.0137 118.385 64.8906 117.969 64.8906 117.43V113.498H63.7363V112.66H64.8906V111.125H65.9746ZM72.3438 119C72.2812 118.875 72.2305 118.652 72.1914 118.332C71.6875 118.855 71.0859 119.117 70.3867 119.117C69.7617 119.117 69.248 118.941 68.8457 118.59C68.4473 118.234 68.248 117.785 68.248 117.242C68.248 116.582 68.498 116.07 68.998 115.707C69.502 115.34 70.209 115.156 71.1191 115.156H72.1738V114.658C72.1738 114.279 72.0605 113.979 71.834 113.756C71.6074 113.529 71.2734 113.416 70.832 113.416C70.4453 113.416 70.1211 113.514 69.8594 113.709C69.5977 113.904 69.4668 114.141 69.4668 114.418H68.377C68.377 114.102 68.4883 113.797 68.7109 113.504C68.9375 113.207 69.2422 112.973 69.625 112.801C70.0117 112.629 70.4355 112.543 70.8965 112.543C71.627 112.543 72.1992 112.727 72.6133 113.094C73.0273 113.457 73.2422 113.959 73.2578 114.6V117.518C73.2578 118.1 73.332 118.562 73.4805 118.906V119H72.3438ZM70.5449 118.174C70.8848 118.174 71.207 118.086 71.5117 117.91C71.8164 117.734 72.0371 117.506 72.1738 117.225V115.924H71.3242C69.9961 115.924 69.332 116.312 69.332 117.09C69.332 117.43 69.4453 117.695 69.6719 117.887C69.8984 118.078 70.1895 118.174 70.5449 118.174ZM78.0215 113.633C77.8574 113.605 77.6797 113.592 77.4883 113.592C76.7773 113.592 76.2949 113.895 76.041 114.5V119H74.957V112.66H76.0117L76.0293 113.393C76.3848 112.826 76.8887 112.543 77.541 112.543C77.752 112.543 77.9121 112.57 78.0215 112.625V113.633ZM80.7871 111.125V112.66H81.9707V113.498H80.7871V117.43C80.7871 117.684 80.8398 117.875 80.9453 118.004C81.0508 118.129 81.2305 118.191 81.4844 118.191C81.6094 118.191 81.7812 118.168 82 118.121V119C81.7148 119.078 81.4375 119.117 81.168 119.117C80.6836 119.117 80.3184 118.971 80.0723 118.678C79.8262 118.385 79.7031 117.969 79.7031 117.43V113.498H78.5488V112.66H79.7031V111.125H80.7871ZM85.873 119.117C85.0137 119.117 84.3145 118.836 83.7754 118.273C83.2363 117.707 82.9668 116.951 82.9668 116.006V115.807C82.9668 115.178 83.0859 114.617 83.3242 114.125C83.5664 113.629 83.9023 113.242 84.332 112.965C84.7656 112.684 85.2344 112.543 85.7383 112.543C86.5625 112.543 87.2031 112.814 87.6602 113.357C88.1172 113.9 88.3457 114.678 88.3457 115.689V116.141H84.0508C84.0664 116.766 84.248 117.271 84.5957 117.658C84.9473 118.041 85.3926 118.232 85.9316 118.232C86.3145 118.232 86.6387 118.154 86.9043 117.998C87.1699 117.842 87.4023 117.635 87.6016 117.377L88.2637 117.893C87.7324 118.709 86.9355 119.117 85.873 119.117ZM85.7383 113.434C85.3008 113.434 84.9336 113.594 84.6367 113.914C84.3398 114.23 84.1562 114.676 84.0859 115.25H87.2617V115.168C87.2305 114.617 87.082 114.191 86.8164 113.891C86.5508 113.586 86.1914 113.434 85.7383 113.434ZM89.3418 115.777C89.3418 114.805 89.5723 114.023 90.0332 113.434C90.4941 112.84 91.0977 112.543 91.8438 112.543C92.5859 112.543 93.1738 112.797 93.6074 113.305V110H94.6914V119H93.6953L93.6426 118.32C93.209 118.852 92.6055 119.117 91.832 119.117C91.0977 119.117 90.498 118.816 90.0332 118.215C89.5723 117.613 89.3418 116.828 89.3418 115.859V115.777ZM90.4258 115.9C90.4258 116.619 90.5742 117.182 90.8711 117.588C91.168 117.994 91.5781 118.197 92.1016 118.197C92.7891 118.197 93.291 117.889 93.6074 117.271V114.359C93.2832 113.762 92.7852 113.463 92.1133 113.463C91.582 113.463 91.168 113.668 90.8711 114.078C90.5742 114.488 90.4258 115.096 90.4258 115.9Z" fill="#777777"/>
<rect x="12" y="66" width="464" height="33" fill="white"/>
<rect opacity="0.5" x="12" y="98" width="464" height="1" fill="#DFE5EB"/>
<path d="M33.7012 83.7734H30.127L29.3242 86H28.1641L31.4219 77.4688H32.4062L35.6699 86H34.5156L33.7012 83.7734ZM30.4668 82.8477H33.3672L31.9141 78.8574L30.4668 82.8477ZM42.0039 82.9004C42.0039 83.8652 41.7832 84.6426 41.3418 85.2324C40.9004 85.8223 40.3027 86.1172 39.5488 86.1172C38.7793 86.1172 38.1738 85.873 37.7324 85.3848V88.4375H36.6484V79.6602H37.6387L37.6914 80.3633C38.1328 79.8164 38.7461 79.543 39.5312 79.543C40.293 79.543 40.8945 79.8301 41.3359 80.4043C41.7812 80.9785 42.0039 81.7773 42.0039 82.8008V82.9004ZM40.9199 82.7773C40.9199 82.0625 40.7676 81.498 40.4629 81.084C40.1582 80.6699 39.7402 80.4629 39.209 80.4629C38.5527 80.4629 38.0605 80.7539 37.7324 81.3359V84.3652C38.0566 84.9434 38.5527 85.2324 39.2207 85.2324C39.7402 85.2324 40.1523 85.0273 40.457 84.6172C40.7656 84.2031 40.9199 83.5898 40.9199 82.7773ZM48.7422 82.9004C48.7422 83.8652 48.5215 84.6426 48.0801 85.2324C47.6387 85.8223 47.041 86.1172 46.2871 86.1172C45.5176 86.1172 44.9121 85.873 44.4707 85.3848V88.4375H43.3867V79.6602H44.377L44.4297 80.3633C44.8711 79.8164 45.4844 79.543 46.2695 79.543C47.0312 79.543 47.6328 79.8301 48.0742 80.4043C48.5195 80.9785 48.7422 81.7773 48.7422 82.8008V82.9004ZM47.6582 82.7773C47.6582 82.0625 47.5059 81.498 47.2012 81.084C46.8965 80.6699 46.4785 80.4629 45.9473 80.4629C45.291 80.4629 44.7988 80.7539 44.4707 81.3359V84.3652C44.7949 84.9434 45.291 85.2324 45.959 85.2324C46.4785 85.2324 46.8906 85.0273 47.1953 84.6172C47.5039 84.2031 47.6582 83.5898 47.6582 82.7773ZM51.209 80.4277C51.6895 79.8379 52.3145 79.543 53.084 79.543C54.4238 79.543 55.0996 80.2988 55.1113 81.8105V86H54.0273V81.8047C54.0234 81.3477 53.918 81.0098 53.7109 80.791C53.5078 80.5723 53.1895 80.4629 52.7559 80.4629C52.4043 80.4629 52.0957 80.5566 51.8301 80.7441C51.5645 80.9316 51.3574 81.1777 51.209 81.4824V86H50.125V77H51.209V80.4277ZM60.6484 85.373C60.2266 85.8691 59.6074 86.1172 58.791 86.1172C58.1152 86.1172 57.5996 85.9219 57.2441 85.5312C56.8926 85.1367 56.7148 84.5547 56.7109 83.7852V79.6602H57.7949V83.7559C57.7949 84.7168 58.1855 85.1973 58.9668 85.1973C59.7949 85.1973 60.3457 84.8887 60.6191 84.2715V79.6602H61.7031V86H60.6719L60.6484 85.373ZM63.0918 82.7773C63.0918 81.8047 63.3223 81.0234 63.7832 80.4336C64.2441 79.8398 64.8477 79.543 65.5938 79.543C66.3359 79.543 66.9238 79.7969 67.3574 80.3047V77H68.4414V86H67.4453L67.3926 85.3203C66.959 85.8516 66.3555 86.1172 65.582 86.1172C64.8477 86.1172 64.248 85.8164 63.7832 85.2148C63.3223 84.6133 63.0918 83.8281 63.0918 82.8594V82.7773ZM64.1758 82.9004C64.1758 83.6191 64.3242 84.1816 64.6211 84.5879C64.918 84.9941 65.3281 85.1973 65.8516 85.1973C66.5391 85.1973 67.041 84.8887 67.3574 84.2715V81.3594C67.0332 80.7617 66.5352 80.4629 65.8633 80.4629C65.332 80.4629 64.918 80.668 64.6211 81.0781C64.3242 81.4883 64.1758 82.0957 64.1758 82.9004ZM78.9355 78.3945H76.1934V86H75.0742V78.3945H72.3379V77.4688H78.9355V78.3945ZM82.0762 86.1172C81.2168 86.1172 80.5176 85.8359 79.9785 85.2734C79.4395 84.707 79.1699 83.9512 79.1699 83.0059V82.8066C79.1699 82.1777 79.2891 81.6172 79.5273 81.125C79.7695 80.6289 80.1055 80.2422 80.5352 79.9648C80.9688 79.6836 81.4375 79.543 81.9414 79.543C82.7656 79.543 83.4062 79.8145 83.8633 80.3574C84.3203 80.9004 84.5488 81.6777 84.5488 82.6895V83.1406H80.2539C80.2695 83.7656 80.4512 84.2715 80.7988 84.6582C81.1504 85.041 81.5957 85.2324 82.1348 85.2324C82.5176 85.2324 82.8418 85.1543 83.1074 84.998C83.373 84.8418 83.6055 84.6348 83.8047 84.377L84.4668 84.8926C83.9355 85.709 83.1387 86.1172 82.0762 86.1172ZM81.9414 80.4336C81.5039 80.4336 81.1367 80.5938 80.8398 80.9141C80.543 81.2305 80.3594 81.6758 80.2891 82.25H83.4648V82.168C83.4336 81.6172 83.2852 81.1914 83.0195 80.8906C82.7539 80.5859 82.3945 80.4336 81.9414 80.4336ZM89.5 84.3184C89.5 84.0254 89.3887 83.7988 89.166 83.6387C88.9473 83.4746 88.5625 83.334 88.0117 83.2168C87.4648 83.0996 87.0293 82.959 86.7051 82.7949C86.3848 82.6309 86.1465 82.4355 85.9902 82.209C85.8379 81.9824 85.7617 81.7129 85.7617 81.4004C85.7617 80.8809 85.9805 80.4414 86.418 80.082C86.8594 79.7227 87.4219 79.543 88.1055 79.543C88.8242 79.543 89.4062 79.7285 89.8516 80.0996C90.3008 80.4707 90.5254 80.9453 90.5254 81.5234H89.4355C89.4355 81.2266 89.3086 80.9707 89.0547 80.7559C88.8047 80.541 88.4883 80.4336 88.1055 80.4336C87.7109 80.4336 87.4023 80.5195 87.1797 80.6914C86.957 80.8633 86.8457 81.0879 86.8457 81.3652C86.8457 81.627 86.9492 81.8242 87.1562 81.957C87.3633 82.0898 87.7363 82.2168 88.2754 82.3379C88.8184 82.459 89.2578 82.6035 89.5938 82.7715C89.9297 82.9395 90.1777 83.1426 90.3379 83.3809C90.502 83.6152 90.584 83.9023 90.584 84.2422C90.584 84.8086 90.3574 85.2637 89.9043 85.6074C89.4512 85.9473 88.8633 86.1172 88.1406 86.1172C87.6328 86.1172 87.1836 86.0273 86.793 85.8477C86.4023 85.668 86.0957 85.418 85.873 85.0977C85.6543 84.7734 85.5449 84.4238 85.5449 84.0488H86.6289C86.6484 84.4121 86.793 84.7012 87.0625 84.916C87.3359 85.127 87.6953 85.2324 88.1406 85.2324C88.5508 85.2324 88.8789 85.1504 89.125 84.9863C89.375 84.8184 89.5 84.5957 89.5 84.3184ZM93.4668 78.125V79.6602H94.6504V80.498H93.4668V84.4297C93.4668 84.6836 93.5195 84.875 93.625 85.0039C93.7305 85.1289 93.9102 85.1914 94.1641 85.1914C94.2891 85.1914 94.4609 85.168 94.6797 85.1211V86C94.3945 86.0781 94.1172 86.1172 93.8477 86.1172C93.3633 86.1172 92.998 85.9707 92.752 85.6777C92.5059 85.3848 92.3828 84.9688 92.3828 84.4297V80.498H91.2285V79.6602H92.3828V78.125H93.4668ZM103.779 83.7734H100.205L99.4023 86H98.2422L101.5 77.4688H102.484L105.748 86H104.594L103.779 83.7734ZM100.545 82.8477H103.445L101.992 78.8574L100.545 82.8477ZM112.082 82.9004C112.082 83.8652 111.861 84.6426 111.42 85.2324C110.979 85.8223 110.381 86.1172 109.627 86.1172C108.857 86.1172 108.252 85.873 107.811 85.3848V88.4375H106.727V79.6602H107.717L107.77 80.3633C108.211 79.8164 108.824 79.543 109.609 79.543C110.371 79.543 110.973 79.8301 111.414 80.4043C111.859 80.9785 112.082 81.7773 112.082 82.8008V82.9004ZM110.998 82.7773C110.998 82.0625 110.846 81.498 110.541 81.084C110.236 80.6699 109.818 80.4629 109.287 80.4629C108.631 80.4629 108.139 80.7539 107.811 81.3359V84.3652C108.135 84.9434 108.631 85.2324 109.299 85.2324C109.818 85.2324 110.23 85.0273 110.535 84.6172C110.844 84.2031 110.998 83.5898 110.998 82.7773ZM118.82 82.9004C118.82 83.8652 118.6 84.6426 118.158 85.2324C117.717 85.8223 117.119 86.1172 116.365 86.1172C115.596 86.1172 114.99 85.873 114.549 85.3848V88.4375H113.465V79.6602H114.455L114.508 80.3633C114.949 79.8164 115.562 79.543 116.348 79.543C117.109 79.543 117.711 79.8301 118.152 80.4043C118.598 80.9785 118.82 81.7773 118.82 82.8008V82.9004ZM117.736 82.7773C117.736 82.0625 117.584 81.498 117.279 81.084C116.975 80.6699 116.557 80.4629 116.025 80.4629C115.369 80.4629 114.877 80.7539 114.549 81.3359V84.3652C114.873 84.9434 115.369 85.2324 116.037 85.2324C116.557 85.2324 116.969 85.0273 117.273 84.6172C117.582 84.2031 117.736 83.5898 117.736 82.7773Z" fill="#181818"/>
<rect x="12" y="132" width="464" height="33" fill="white"/>
<rect opacity="0.5" x="12" y="164" width="464" height="1" fill="#DFE5EB"/>
<path d="M34.8848 144.395H32.1426V152H31.0234V144.395H28.2871V143.469H34.8848V144.395ZM38.5996 146.633C38.4355 146.605 38.2578 146.592 38.0664 146.592C37.3555 146.592 36.873 146.895 36.6191 147.5V152H35.5352V145.66H36.5898L36.6074 146.393C36.9629 145.826 37.4668 145.543 38.1191 145.543C38.3301 145.543 38.4902 145.57 38.5996 145.625V146.633ZM40.7793 152H39.6953V145.66H40.7793V152ZM39.6074 143.979C39.6074 143.803 39.6602 143.654 39.7656 143.533C39.875 143.412 40.0352 143.352 40.2461 143.352C40.457 143.352 40.6172 143.412 40.7266 143.533C40.8359 143.654 40.8906 143.803 40.8906 143.979C40.8906 144.154 40.8359 144.301 40.7266 144.418C40.6172 144.535 40.457 144.594 40.2461 144.594C40.0352 144.594 39.875 144.535 39.7656 144.418C39.6602 144.301 39.6074 144.154 39.6074 143.979ZM46.4336 152C46.3711 151.875 46.3203 151.652 46.2812 151.332C45.7773 151.855 45.1758 152.117 44.4766 152.117C43.8516 152.117 43.3379 151.941 42.9355 151.59C42.5371 151.234 42.3379 150.785 42.3379 150.242C42.3379 149.582 42.5879 149.07 43.0879 148.707C43.5918 148.34 44.2988 148.156 45.209 148.156H46.2637V147.658C46.2637 147.279 46.1504 146.979 45.9238 146.756C45.6973 146.529 45.3633 146.416 44.9219 146.416C44.5352 146.416 44.2109 146.514 43.9492 146.709C43.6875 146.904 43.5566 147.141 43.5566 147.418H42.4668C42.4668 147.102 42.5781 146.797 42.8008 146.504C43.0273 146.207 43.332 145.973 43.7148 145.801C44.1016 145.629 44.5254 145.543 44.9863 145.543C45.7168 145.543 46.2891 145.727 46.7031 146.094C47.1172 146.457 47.332 146.959 47.3477 147.6V150.518C47.3477 151.1 47.4219 151.562 47.5703 151.906V152H46.4336ZM44.6348 151.174C44.9746 151.174 45.2969 151.086 45.6016 150.91C45.9062 150.734 46.127 150.506 46.2637 150.225V148.924H45.4141C44.0859 148.924 43.4219 149.312 43.4219 150.09C43.4219 150.43 43.5352 150.695 43.7617 150.887C43.9883 151.078 44.2793 151.174 44.6348 151.174ZM50.2246 152H49.1406V143H50.2246V152ZM56.5352 152.885H51.168V152H56.5352V152.885ZM62.3711 148.057H58.6738V151.08H62.9688V152H57.5488V143.469H62.9102V144.395H58.6738V147.137H62.3711V148.057ZM66.3262 147.975L67.7324 145.66H68.998L66.9238 148.795L69.0625 152H67.8086L66.3438 149.627L64.8789 152H63.6191L65.7578 148.795L63.6836 145.66H64.9375L66.3262 147.975ZM75.5078 148.9C75.5078 149.865 75.2871 150.643 74.8457 151.232C74.4043 151.822 73.8066 152.117 73.0527 152.117C72.2832 152.117 71.6777 151.873 71.2363 151.385V154.438H70.1523V145.66H71.1426L71.1953 146.363C71.6367 145.816 72.25 145.543 73.0352 145.543C73.7969 145.543 74.3984 145.83 74.8398 146.404C75.2852 146.979 75.5078 147.777 75.5078 148.801V148.9ZM74.4238 148.777C74.4238 148.062 74.2715 147.498 73.9668 147.084C73.6621 146.67 73.2441 146.463 72.7129 146.463C72.0566 146.463 71.5645 146.754 71.2363 147.336V150.365C71.5605 150.943 72.0566 151.232 72.7246 151.232C73.2441 151.232 73.6562 151.027 73.9609 150.617C74.2695 150.203 74.4238 149.59 74.4238 148.777ZM78.0684 152H76.9844V145.66H78.0684V152ZM76.8965 143.979C76.8965 143.803 76.9492 143.654 77.0547 143.533C77.1641 143.412 77.3242 143.352 77.5352 143.352C77.7461 143.352 77.9062 143.412 78.0156 143.533C78.125 143.654 78.1797 143.803 78.1797 143.979C78.1797 144.154 78.125 144.301 78.0156 144.418C77.9062 144.535 77.7461 144.594 77.5352 144.594C77.3242 144.594 77.1641 144.535 77.0547 144.418C76.9492 144.301 76.8965 144.154 76.8965 143.979ZM82.873 146.633C82.709 146.605 82.5312 146.592 82.3398 146.592C81.6289 146.592 81.1465 146.895 80.8926 147.5V152H79.8086V145.66H80.8633L80.8809 146.393C81.2363 145.826 81.7402 145.543 82.3926 145.543C82.6035 145.543 82.7637 145.57 82.873 145.625V146.633ZM86.3887 152.117C85.5293 152.117 84.8301 151.836 84.291 151.273C83.752 150.707 83.4824 149.951 83.4824 149.006V148.807C83.4824 148.178 83.6016 147.617 83.8398 147.125C84.082 146.629 84.418 146.242 84.8477 145.965C85.2812 145.684 85.75 145.543 86.2539 145.543C87.0781 145.543 87.7188 145.814 88.1758 146.357C88.6328 146.9 88.8613 147.678 88.8613 148.689V149.141H84.5664C84.582 149.766 84.7637 150.271 85.1113 150.658C85.4629 151.041 85.9082 151.232 86.4473 151.232C86.8301 151.232 87.1543 151.154 87.4199 150.998C87.6855 150.842 87.918 150.635 88.1172 150.377L88.7793 150.893C88.248 151.709 87.4512 152.117 86.3887 152.117ZM86.2539 146.434C85.8164 146.434 85.4492 146.594 85.1523 146.914C84.8555 147.23 84.6719 147.676 84.6016 148.25H87.7773V148.168C87.7461 147.617 87.5977 147.191 87.332 146.891C87.0664 146.586 86.707 146.434 86.2539 146.434ZM89.8574 148.777C89.8574 147.805 90.0879 147.023 90.5488 146.434C91.0098 145.84 91.6133 145.543 92.3594 145.543C93.1016 145.543 93.6895 145.797 94.123 146.305V143H95.207V152H94.2109L94.1582 151.32C93.7246 151.852 93.1211 152.117 92.3477 152.117C91.6133 152.117 91.0137 151.816 90.5488 151.215C90.0879 150.613 89.8574 149.828 89.8574 148.859V148.777ZM90.9414 148.9C90.9414 149.619 91.0898 150.182 91.3867 150.588C91.6836 150.994 92.0938 151.197 92.6172 151.197C93.3047 151.197 93.8066 150.889 94.123 150.271V147.359C93.7988 146.762 93.3008 146.463 92.6289 146.463C92.0977 146.463 91.6836 146.668 91.3867 147.078C91.0898 147.488 90.9414 148.096 90.9414 148.9Z" fill="#777777"/>
<rect x="12" y="165" width="464" height="33" fill="white"/>
<rect opacity="0.5" x="12" y="197" width="464" height="1" fill="#DFE5EB"/>
<path d="M34.8848 177.395H32.1426V185H31.0234V177.395H28.2871V176.469H34.8848V177.395ZM38.5996 179.633C38.4355 179.605 38.2578 179.592 38.0664 179.592C37.3555 179.592 36.873 179.895 36.6191 180.5V185H35.5352V178.66H36.5898L36.6074 179.393C36.9629 178.826 37.4668 178.543 38.1191 178.543C38.3301 178.543 38.4902 178.57 38.5996 178.625V179.633ZM40.7793 185H39.6953V178.66H40.7793V185ZM39.6074 176.979C39.6074 176.803 39.6602 176.654 39.7656 176.533C39.875 176.412 40.0352 176.352 40.2461 176.352C40.457 176.352 40.6172 176.412 40.7266 176.533C40.8359 176.654 40.8906 176.803 40.8906 176.979C40.8906 177.154 40.8359 177.301 40.7266 177.418C40.6172 177.535 40.457 177.594 40.2461 177.594C40.0352 177.594 39.875 177.535 39.7656 177.418C39.6602 177.301 39.6074 177.154 39.6074 176.979ZM46.4336 185C46.3711 184.875 46.3203 184.652 46.2812 184.332C45.7773 184.855 45.1758 185.117 44.4766 185.117C43.8516 185.117 43.3379 184.941 42.9355 184.59C42.5371 184.234 42.3379 183.785 42.3379 183.242C42.3379 182.582 42.5879 182.07 43.0879 181.707C43.5918 181.34 44.2988 181.156 45.209 181.156H46.2637V180.658C46.2637 180.279 46.1504 179.979 45.9238 179.756C45.6973 179.529 45.3633 179.416 44.9219 179.416C44.5352 179.416 44.2109 179.514 43.9492 179.709C43.6875 179.904 43.5566 180.141 43.5566 180.418H42.4668C42.4668 180.102 42.5781 179.797 42.8008 179.504C43.0273 179.207 43.332 178.973 43.7148 178.801C44.1016 178.629 44.5254 178.543 44.9863 178.543C45.7168 178.543 46.2891 178.727 46.7031 179.094C47.1172 179.457 47.332 179.959 47.3477 180.6V183.518C47.3477 184.1 47.4219 184.562 47.5703 184.906V185H46.4336ZM44.6348 184.174C44.9746 184.174 45.2969 184.086 45.6016 183.91C45.9062 183.734 46.127 183.506 46.2637 183.225V181.924H45.4141C44.0859 181.924 43.4219 182.312 43.4219 183.09C43.4219 183.43 43.5352 183.695 43.7617 183.887C43.9883 184.078 44.2793 184.174 44.6348 184.174ZM50.2246 185H49.1406V176H50.2246V185ZM56.5352 185.885H51.168V185H56.5352V185.885ZM63.8242 182.293C63.7188 183.195 63.3848 183.893 62.8223 184.385C62.2637 184.873 61.5195 185.117 60.5898 185.117C59.582 185.117 58.7734 184.756 58.1641 184.033C57.5586 183.311 57.2559 182.344 57.2559 181.133V180.312C57.2559 179.52 57.3965 178.822 57.6777 178.221C57.9629 177.619 58.3652 177.158 58.8848 176.838C59.4043 176.514 60.0059 176.352 60.6895 176.352C61.5957 176.352 62.3223 176.605 62.8691 177.113C63.416 177.617 63.7344 178.316 63.8242 179.211H62.6934C62.5957 178.531 62.3828 178.039 62.0547 177.734C61.7305 177.43 61.2754 177.277 60.6895 177.277C59.9707 177.277 59.4062 177.543 58.9961 178.074C58.5898 178.605 58.3867 179.361 58.3867 180.342V181.168C58.3867 182.094 58.5801 182.83 58.9668 183.377C59.3535 183.924 59.8945 184.197 60.5898 184.197C61.2148 184.197 61.6934 184.057 62.0254 183.775C62.3613 183.49 62.584 182.996 62.6934 182.293H63.8242ZM64.9082 181.771C64.9082 181.15 65.0293 180.592 65.2715 180.096C65.5176 179.6 65.8574 179.217 66.291 178.947C66.7285 178.678 67.2266 178.543 67.7852 178.543C68.6484 178.543 69.3457 178.842 69.877 179.439C70.4121 180.037 70.6797 180.832 70.6797 181.824V181.9C70.6797 182.518 70.5605 183.072 70.3223 183.564C70.0879 184.053 69.75 184.434 69.3086 184.707C68.8711 184.98 68.3672 185.117 67.7969 185.117C66.9375 185.117 66.2402 184.818 65.7051 184.221C65.1738 183.623 64.9082 182.832 64.9082 181.848V181.771ZM65.998 181.9C65.998 182.604 66.1602 183.168 66.4844 183.594C66.8125 184.02 67.25 184.232 67.7969 184.232C68.3477 184.232 68.7852 184.018 69.1094 183.588C69.4336 183.154 69.5957 182.549 69.5957 181.771C69.5957 181.076 69.4297 180.514 69.0977 180.084C68.7695 179.65 68.332 179.434 67.7852 179.434C67.25 179.434 66.8184 179.646 66.4902 180.072C66.1621 180.498 65.998 181.107 65.998 181.9ZM73.0645 178.66L73.0996 179.457C73.584 178.848 74.2168 178.543 74.998 178.543C76.3379 178.543 77.0137 179.299 77.0254 180.811V185H75.9414V180.805C75.9375 180.348 75.832 180.01 75.625 179.791C75.4219 179.572 75.1035 179.463 74.6699 179.463C74.3184 179.463 74.0098 179.557 73.7441 179.744C73.4785 179.932 73.2715 180.178 73.123 180.482V185H72.0391V178.66H73.0645ZM80.752 183.529L82.3223 178.66H83.4297L81.1562 185H80.3301L78.0332 178.66H79.1406L80.752 183.529ZM87.0215 185.117C86.1621 185.117 85.4629 184.836 84.9238 184.273C84.3848 183.707 84.1152 182.951 84.1152 182.006V181.807C84.1152 181.178 84.2344 180.617 84.4727 180.125C84.7148 179.629 85.0508 179.242 85.4805 178.965C85.9141 178.684 86.3828 178.543 86.8867 178.543C87.7109 178.543 88.3516 178.814 88.8086 179.357C89.2656 179.9 89.4941 180.678 89.4941 181.689V182.141H85.1992C85.2148 182.766 85.3965 183.271 85.7441 183.658C86.0957 184.041 86.541 184.232 87.0801 184.232C87.4629 184.232 87.7871 184.154 88.0527 183.998C88.3184 183.842 88.5508 183.635 88.75 183.377L89.4121 183.893C88.8809 184.709 88.084 185.117 87.0215 185.117ZM86.8867 179.434C86.4492 179.434 86.082 179.594 85.7852 179.914C85.4883 180.23 85.3047 180.676 85.2344 181.25H88.4102V181.168C88.3789 180.617 88.2305 180.191 87.9648 179.891C87.6992 179.586 87.3398 179.434 86.8867 179.434ZM93.8184 179.633C93.6543 179.605 93.4766 179.592 93.2852 179.592C92.5742 179.592 92.0918 179.895 91.8379 180.5V185H90.7539V178.66H91.8086L91.8262 179.393C92.1816 178.826 92.6855 178.543 93.3379 178.543C93.5488 178.543 93.709 178.57 93.8184 178.625V179.633ZM96.584 177.125V178.66H97.7676V179.498H96.584V183.43C96.584 183.684 96.6367 183.875 96.7422 184.004C96.8477 184.129 97.0273 184.191 97.2812 184.191C97.4062 184.191 97.5781 184.168 97.7969 184.121V185C97.5117 185.078 97.2344 185.117 96.9648 185.117C96.4805 185.117 96.1152 184.971 95.8691 184.678C95.623 184.385 95.5 183.969 95.5 183.43V179.498H94.3457V178.66H95.5V177.125H96.584ZM101.67 185.117C100.811 185.117 100.111 184.836 99.5723 184.273C99.0332 183.707 98.7637 182.951 98.7637 182.006V181.807C98.7637 181.178 98.8828 180.617 99.1211 180.125C99.3633 179.629 99.6992 179.242 100.129 178.965C100.562 178.684 101.031 178.543 101.535 178.543C102.359 178.543 103 178.814 103.457 179.357C103.914 179.9 104.143 180.678 104.143 181.689V182.141H99.8477C99.8633 182.766 100.045 183.271 100.393 183.658C100.744 184.041 101.189 184.232 101.729 184.232C102.111 184.232 102.436 184.154 102.701 183.998C102.967 183.842 103.199 183.635 103.398 183.377L104.061 183.893C103.529 184.709 102.732 185.117 101.67 185.117ZM101.535 179.434C101.098 179.434 100.73 179.594 100.434 179.914C100.137 180.23 99.9531 180.676 99.8828 181.25H103.059V181.168C103.027 180.617 102.879 180.191 102.613 179.891C102.348 179.586 101.988 179.434 101.535 179.434ZM105.139 181.777C105.139 180.805 105.369 180.023 105.83 179.434C106.291 178.84 106.895 178.543 107.641 178.543C108.383 178.543 108.971 178.797 109.404 179.305V176H110.488V185H109.492L109.439 184.32C109.006 184.852 108.402 185.117 107.629 185.117C106.895 185.117 106.295 184.816 105.83 184.215C105.369 183.613 105.139 182.828 105.139 181.859V181.777ZM106.223 181.9C106.223 182.619 106.371 183.182 106.668 183.588C106.965 183.994 107.375 184.197 107.898 184.197C108.586 184.197 109.088 183.889 109.404 183.271V180.359C109.08 179.762 108.582 179.463 107.91 179.463C107.379 179.463 106.965 179.668 106.668 180.078C106.371 180.488 106.223 181.096 106.223 181.9Z" fill="#777777"/>
<rect x="12" y="198" width="464" height="33" fill="white"/>
<rect opacity="0.5" x="12" y="230" width="464" height="1" fill="#DFE5EB"/>
<path d="M31.5039 214.197C30.5391 213.92 29.8359 213.58 29.3945 213.178C28.957 212.771 28.7383 212.271 28.7383 211.678C28.7383 211.006 29.0059 210.451 29.541 210.014C30.0801 209.572 30.7793 209.352 31.6387 209.352C32.2246 209.352 32.7461 209.465 33.2031 209.691C33.6641 209.918 34.0195 210.23 34.2695 210.629C34.5234 211.027 34.6504 211.463 34.6504 211.936H33.5195C33.5195 211.42 33.3555 211.016 33.0273 210.723C32.6992 210.426 32.2363 210.277 31.6387 210.277C31.084 210.277 30.6504 210.4 30.3379 210.646C30.0293 210.889 29.875 211.227 29.875 211.66C29.875 212.008 30.0215 212.303 30.3145 212.545C30.6113 212.783 31.1133 213.002 31.8203 213.201C32.5312 213.4 33.0859 213.621 33.4844 213.863C33.8867 214.102 34.1836 214.381 34.375 214.701C34.5703 215.021 34.668 215.398 34.668 215.832C34.668 216.523 34.3984 217.078 33.8594 217.496C33.3203 217.91 32.5996 218.117 31.6973 218.117C31.1113 218.117 30.5645 218.006 30.0566 217.783C29.5488 217.557 29.1562 217.248 28.8789 216.857C28.6055 216.467 28.4688 216.023 28.4688 215.527H29.5996C29.5996 216.043 29.7891 216.451 30.168 216.752C30.5508 217.049 31.0605 217.197 31.6973 217.197C32.291 217.197 32.7461 217.076 33.0625 216.834C33.3789 216.592 33.5371 216.262 33.5371 215.844C33.5371 215.426 33.3906 215.104 33.0977 214.877C32.8047 214.646 32.2734 214.42 31.5039 214.197ZM39.8594 217.373C39.4375 217.869 38.8184 218.117 38.002 218.117C37.3262 218.117 36.8105 217.922 36.4551 217.531C36.1035 217.137 35.9258 216.555 35.9219 215.785V211.66H37.0059V215.756C37.0059 216.717 37.3965 217.197 38.1777 217.197C39.0059 217.197 39.5566 216.889 39.8301 216.271V211.66H40.9141V218H39.8828L39.8594 217.373ZM47.9336 214.9C47.9336 215.869 47.7109 216.648 47.2656 217.238C46.8203 217.824 46.2227 218.117 45.4727 218.117C44.6719 218.117 44.0527 217.834 43.6152 217.268L43.5625 218H42.5664V209H43.6504V212.357C44.0879 211.814 44.6914 211.543 45.4609 211.543C46.2305 211.543 46.834 211.834 47.2715 212.416C47.7129 212.998 47.9336 213.795 47.9336 214.807V214.9ZM46.8496 214.777C46.8496 214.039 46.707 213.469 46.4219 213.066C46.1367 212.664 45.7266 212.463 45.1914 212.463C44.4766 212.463 43.9629 212.795 43.6504 213.459V216.201C43.9824 216.865 44.5 217.197 45.2031 217.197C45.7227 217.197 46.127 216.996 46.416 216.594C46.7051 216.191 46.8496 215.586 46.8496 214.777ZM52.9961 216.318C52.9961 216.025 52.8848 215.799 52.6621 215.639C52.4434 215.475 52.0586 215.334 51.5078 215.217C50.9609 215.1 50.5254 214.959 50.2012 214.795C49.8809 214.631 49.6426 214.436 49.4863 214.209C49.334 213.982 49.2578 213.713 49.2578 213.4C49.2578 212.881 49.4766 212.441 49.9141 212.082C50.3555 211.723 50.918 211.543 51.6016 211.543C52.3203 211.543 52.9023 211.729 53.3477 212.1C53.7969 212.471 54.0215 212.945 54.0215 213.523H52.9316C52.9316 213.227 52.8047 212.971 52.5508 212.756C52.3008 212.541 51.9844 212.434 51.6016 212.434C51.207 212.434 50.8984 212.52 50.6758 212.691C50.4531 212.863 50.3418 213.088 50.3418 213.365C50.3418 213.627 50.4453 213.824 50.6523 213.957C50.8594 214.09 51.2324 214.217 51.7715 214.338C52.3145 214.459 52.7539 214.604 53.0898 214.771C53.4258 214.939 53.6738 215.143 53.834 215.381C53.998 215.615 54.0801 215.902 54.0801 216.242C54.0801 216.809 53.8535 217.264 53.4004 217.607C52.9473 217.947 52.3594 218.117 51.6367 218.117C51.1289 218.117 50.6797 218.027 50.2891 217.848C49.8984 217.668 49.5918 217.418 49.3691 217.098C49.1504 216.773 49.041 216.424 49.041 216.049H50.125C50.1445 216.412 50.2891 216.701 50.5586 216.916C50.832 217.127 51.1914 217.232 51.6367 217.232C52.0469 217.232 52.375 217.15 52.6211 216.986C52.8711 216.818 52.9961 216.596 52.9961 216.318ZM58.0352 217.232C58.4219 217.232 58.7598 217.115 59.0488 216.881C59.3379 216.646 59.498 216.354 59.5293 216.002H60.5547C60.5352 216.365 60.4102 216.711 60.1797 217.039C59.9492 217.367 59.6406 217.629 59.2539 217.824C58.8711 218.02 58.4648 218.117 58.0352 218.117C57.1719 218.117 56.4844 217.83 55.9727 217.256C55.4648 216.678 55.2109 215.889 55.2109 214.889V214.707C55.2109 214.09 55.3242 213.541 55.5508 213.061C55.7773 212.58 56.1016 212.207 56.5234 211.941C56.9492 211.676 57.4512 211.543 58.0293 211.543C58.7402 211.543 59.3301 211.756 59.7988 212.182C60.2715 212.607 60.5234 213.16 60.5547 213.84H59.5293C59.498 213.43 59.3418 213.094 59.0605 212.832C58.7832 212.566 58.4395 212.434 58.0293 212.434C57.4785 212.434 57.0508 212.633 56.7461 213.031C56.4453 213.426 56.2949 213.998 56.2949 214.748V214.953C56.2949 215.684 56.4453 216.246 56.7461 216.641C57.0469 217.035 57.4766 217.232 58.0352 217.232ZM64.8379 212.633C64.6738 212.605 64.4961 212.592 64.3047 212.592C63.5938 212.592 63.1113 212.895 62.8574 213.5V218H61.7734V211.66H62.8281L62.8457 212.393C63.2012 211.826 63.7051 211.543 64.3574 211.543C64.5684 211.543 64.7285 211.57 64.8379 211.625V212.633ZM67.0176 218H65.9336V211.66H67.0176V218ZM65.8457 209.979C65.8457 209.803 65.8984 209.654 66.0039 209.533C66.1133 209.412 66.2734 209.352 66.4844 209.352C66.6953 209.352 66.8555 209.412 66.9648 209.533C67.0742 209.654 67.1289 209.803 67.1289 209.979C67.1289 210.154 67.0742 210.301 66.9648 210.418C66.8555 210.535 66.6953 210.594 66.4844 210.594C66.2734 210.594 66.1133 210.535 66.0039 210.418C65.8984 210.301 65.8457 210.154 65.8457 209.979ZM74.1133 214.9C74.1133 215.865 73.8926 216.643 73.4512 217.232C73.0098 217.822 72.4121 218.117 71.6582 218.117C70.8887 218.117 70.2832 217.873 69.8418 217.385V220.438H68.7578V211.66H69.748L69.8008 212.363C70.2422 211.816 70.8555 211.543 71.6406 211.543C72.4023 211.543 73.0039 211.83 73.4453 212.404C73.8906 212.979 74.1133 213.777 74.1133 214.801V214.9ZM73.0293 214.777C73.0293 214.062 72.877 213.498 72.5723 213.084C72.2676 212.67 71.8496 212.463 71.3184 212.463C70.6621 212.463 70.1699 212.754 69.8418 213.336V216.365C70.166 216.943 70.6621 217.232 71.3301 217.232C71.8496 217.232 72.2617 217.027 72.5664 216.617C72.875 216.203 73.0293 215.59 73.0293 214.777ZM76.9668 210.125V211.66H78.1504V212.498H76.9668V216.43C76.9668 216.684 77.0195 216.875 77.125 217.004C77.2305 217.129 77.4102 217.191 77.6641 217.191C77.7891 217.191 77.9609 217.168 78.1797 217.121V218C77.8945 218.078 77.6172 218.117 77.3477 218.117C76.8633 218.117 76.498 217.971 76.252 217.678C76.0059 217.385 75.8828 216.969 75.8828 216.43V212.498H74.7285V211.66H75.8828V210.125H76.9668ZM80.5996 218H79.5156V211.66H80.5996V218ZM79.4277 209.979C79.4277 209.803 79.4805 209.654 79.5859 209.533C79.6953 209.412 79.8555 209.352 80.0664 209.352C80.2773 209.352 80.4375 209.412 80.5469 209.533C80.6562 209.654 80.7109 209.803 80.7109 209.979C80.7109 210.154 80.6562 210.301 80.5469 210.418C80.4375 210.535 80.2773 210.594 80.0664 210.594C79.8555 210.594 79.6953 210.535 79.5859 210.418C79.4805 210.301 79.4277 210.154 79.4277 209.979ZM82.0527 214.771C82.0527 214.15 82.1738 213.592 82.416 213.096C82.6621 212.6 83.002 212.217 83.4355 211.947C83.873 211.678 84.3711 211.543 84.9297 211.543C85.793 211.543 86.4902 211.842 87.0215 212.439C87.5566 213.037 87.8242 213.832 87.8242 214.824V214.9C87.8242 215.518 87.7051 216.072 87.4668 216.564C87.2324 217.053 86.8945 217.434 86.4531 217.707C86.0156 217.98 85.5117 218.117 84.9414 218.117C84.082 218.117 83.3848 217.818 82.8496 217.221C82.3184 216.623 82.0527 215.832 82.0527 214.848V214.771ZM83.1426 214.9C83.1426 215.604 83.3047 216.168 83.6289 216.594C83.957 217.02 84.3945 217.232 84.9414 217.232C85.4922 217.232 85.9297 217.018 86.2539 216.588C86.5781 216.154 86.7402 215.549 86.7402 214.771C86.7402 214.076 86.5742 213.514 86.2422 213.084C85.9141 212.65 85.4766 212.434 84.9297 212.434C84.3945 212.434 83.9629 212.646 83.6348 213.072C83.3066 213.498 83.1426 214.107 83.1426 214.9ZM90.209 211.66L90.2441 212.457C90.7285 211.848 91.3613 211.543 92.1426 211.543C93.4824 211.543 94.1582 212.299 94.1699 213.811V218H93.0859V213.805C93.082 213.348 92.9766 213.01 92.7695 212.791C92.5664 212.572 92.248 212.463 91.8145 212.463C91.4629 212.463 91.1543 212.557 90.8887 212.744C90.623 212.932 90.416 213.178 90.2676 213.482V218H89.1836V211.66H90.209ZM100.375 218.885H95.0078V218H100.375V218.885ZM104.518 214.549H102.514V218H101.383V209.469H104.207C105.168 209.469 105.906 209.688 106.422 210.125C106.941 210.562 107.201 211.199 107.201 212.035C107.201 212.566 107.057 213.029 106.768 213.424C106.482 213.818 106.084 214.113 105.572 214.309L107.576 217.93V218H106.369L104.518 214.549ZM102.514 213.629H104.242C104.801 213.629 105.244 213.484 105.572 213.195C105.904 212.906 106.07 212.52 106.07 212.035C106.07 211.508 105.912 211.104 105.596 210.822C105.283 210.541 104.83 210.398 104.236 210.395H102.514V213.629ZM111.244 218.117C110.385 218.117 109.686 217.836 109.146 217.273C108.607 216.707 108.338 215.951 108.338 215.006V214.807C108.338 214.178 108.457 213.617 108.695 213.125C108.938 212.629 109.273 212.242 109.703 211.965C110.137 211.684 110.605 211.543 111.109 211.543C111.934 211.543 112.574 211.814 113.031 212.357C113.488 212.9 113.717 213.678 113.717 214.689V215.141H109.422C109.438 215.766 109.619 216.271 109.967 216.658C110.318 217.041 110.764 217.232 111.303 217.232C111.686 217.232 112.01 217.154 112.275 216.998C112.541 216.842 112.773 216.635 112.973 216.377L113.635 216.893C113.104 217.709 112.307 218.117 111.244 218.117ZM111.109 212.434C110.672 212.434 110.305 212.594 110.008 212.914C109.711 213.23 109.527 213.676 109.457 214.25H112.633V214.168C112.602 213.617 112.453 213.191 112.188 212.891C111.922 212.586 111.562 212.434 111.109 212.434ZM116.002 211.66L116.037 212.457C116.521 211.848 117.154 211.543 117.936 211.543C119.275 211.543 119.951 212.299 119.963 213.811V218H118.879V213.805C118.875 213.348 118.77 213.01 118.562 212.791C118.359 212.572 118.041 212.463 117.607 212.463C117.256 212.463 116.947 212.557 116.682 212.744C116.416 212.932 116.209 213.178 116.061 213.482V218H114.977V211.66H116.002ZM124.229 218.117C123.369 218.117 122.67 217.836 122.131 217.273C121.592 216.707 121.322 215.951 121.322 215.006V214.807C121.322 214.178 121.441 213.617 121.68 213.125C121.922 212.629 122.258 212.242 122.688 211.965C123.121 211.684 123.59 211.543 124.094 211.543C124.918 211.543 125.559 211.814 126.016 212.357C126.473 212.9 126.701 213.678 126.701 214.689V215.141H122.406C122.422 215.766 122.604 216.271 122.951 216.658C123.303 217.041 123.748 217.232 124.287 217.232C124.67 217.232 124.994 217.154 125.26 216.998C125.525 216.842 125.758 216.635 125.957 216.377L126.619 216.893C126.088 217.709 125.291 218.117 124.229 218.117ZM124.094 212.434C123.656 212.434 123.289 212.594 122.992 212.914C122.695 213.23 122.512 213.676 122.441 214.25H125.617V214.168C125.586 213.617 125.438 213.191 125.172 212.891C124.906 212.586 124.547 212.434 124.094 212.434ZM133.574 216.506L134.793 211.66H135.877L134.031 218H133.152L131.611 213.195L130.111 218H129.232L127.393 211.66H128.471L129.719 216.406L131.195 211.66H132.068L133.574 216.506ZM139.615 218.117C138.756 218.117 138.057 217.836 137.518 217.273C136.979 216.707 136.709 215.951 136.709 215.006V214.807C136.709 214.178 136.828 213.617 137.066 213.125C137.309 212.629 137.645 212.242 138.074 211.965C138.508 211.684 138.977 211.543 139.48 211.543C140.305 211.543 140.945 211.814 141.402 212.357C141.859 212.9 142.088 213.678 142.088 214.689V215.141H137.793C137.809 215.766 137.99 216.271 138.338 216.658C138.689 217.041 139.135 217.232 139.674 217.232C140.057 217.232 140.381 217.154 140.646 216.998C140.912 216.842 141.145 216.635 141.344 216.377L142.006 216.893C141.475 217.709 140.678 218.117 139.615 218.117ZM139.48 212.434C139.043 212.434 138.676 212.594 138.379 212.914C138.082 213.23 137.898 213.676 137.828 214.25H141.004V214.168C140.973 213.617 140.824 213.191 140.559 212.891C140.293 212.586 139.934 212.434 139.48 212.434ZM143.084 214.777C143.084 213.805 143.314 213.023 143.775 212.434C144.236 211.84 144.84 211.543 145.586 211.543C146.328 211.543 146.916 211.797 147.35 212.305V209H148.434V218H147.438L147.385 217.32C146.951 217.852 146.348 218.117 145.574 218.117C144.84 218.117 144.24 217.816 143.775 217.215C143.314 216.613 143.084 215.828 143.084 214.859V214.777ZM144.168 214.9C144.168 215.619 144.316 216.182 144.613 216.588C144.91 216.994 145.32 217.197 145.844 217.197C146.531 217.197 147.033 216.889 147.35 216.271V213.359C147.025 212.762 146.527 212.463 145.855 212.463C145.324 212.463 144.91 212.668 144.613 213.078C144.316 213.488 144.168 214.096 144.168 214.9Z" fill="#777777"/>
<rect x="12" y="231" width="464" height="33" fill="white"/>
<rect opacity="0.5" x="12" y="263" width="464" height="1" fill="#DFE5EB"/>
<path d="M33.7012 248.773H30.127L29.3242 251H28.1641L31.4219 242.469H32.4062L35.6699 251H34.5156L33.7012 248.773ZM30.4668 247.848H33.3672L31.9141 243.857L30.4668 247.848ZM40.4922 250.373C40.0703 250.869 39.4512 251.117 38.6348 251.117C37.959 251.117 37.4434 250.922 37.0879 250.531C36.7363 250.137 36.5586 249.555 36.5547 248.785V244.66H37.6387V248.756C37.6387 249.717 38.0293 250.197 38.8105 250.197C39.6387 250.197 40.1895 249.889 40.4629 249.271V244.66H41.5469V251H40.5156L40.4922 250.373ZM44.6699 243.125V244.66H45.8535V245.498H44.6699V249.43C44.6699 249.684 44.7227 249.875 44.8281 250.004C44.9336 250.129 45.1133 250.191 45.3672 250.191C45.4922 250.191 45.6641 250.168 45.8828 250.121V251C45.5977 251.078 45.3203 251.117 45.0508 251.117C44.5664 251.117 44.2012 250.971 43.9551 250.678C43.709 250.385 43.5859 249.969 43.5859 249.43V245.498H42.4316V244.66H43.5859V243.125H44.6699ZM46.7207 247.771C46.7207 247.15 46.8418 246.592 47.084 246.096C47.3301 245.6 47.6699 245.217 48.1035 244.947C48.541 244.678 49.0391 244.543 49.5977 244.543C50.4609 244.543 51.1582 244.842 51.6895 245.439C52.2246 246.037 52.4922 246.832 52.4922 247.824V247.9C52.4922 248.518 52.373 249.072 52.1348 249.564C51.9004 250.053 51.5625 250.434 51.1211 250.707C50.6836 250.98 50.1797 251.117 49.6094 251.117C48.75 251.117 48.0527 250.818 47.5176 250.221C46.9863 249.623 46.7207 248.832 46.7207 247.848V247.771ZM47.8105 247.9C47.8105 248.604 47.9727 249.168 48.2969 249.594C48.625 250.02 49.0625 250.232 49.6094 250.232C50.1602 250.232 50.5977 250.018 50.9219 249.588C51.2461 249.154 51.4082 248.549 51.4082 247.771C51.4082 247.076 51.2422 246.514 50.9102 246.084C50.582 245.65 50.1445 245.434 49.5977 245.434C49.0625 245.434 48.6309 245.646 48.3027 246.072C47.9746 246.498 47.8105 247.107 47.8105 247.9ZM56.916 245.633C56.752 245.605 56.5742 245.592 56.3828 245.592C55.6719 245.592 55.1895 245.895 54.9355 246.5V251H53.8516V244.66H54.9062L54.9238 245.393C55.2793 244.826 55.7832 244.543 56.4355 244.543C56.6465 244.543 56.8066 244.57 56.916 244.625V245.633ZM60.4316 251.117C59.5723 251.117 58.873 250.836 58.334 250.273C57.7949 249.707 57.5254 248.951 57.5254 248.006V247.807C57.5254 247.178 57.6445 246.617 57.8828 246.125C58.125 245.629 58.4609 245.242 58.8906 244.965C59.3242 244.684 59.793 244.543 60.2969 244.543C61.1211 244.543 61.7617 244.814 62.2188 245.357C62.6758 245.9 62.9043 246.678 62.9043 247.689V248.141H58.6094C58.625 248.766 58.8066 249.271 59.1543 249.658C59.5059 250.041 59.9512 250.232 60.4902 250.232C60.873 250.232 61.1973 250.154 61.4629 249.998C61.7285 249.842 61.9609 249.635 62.1602 249.377L62.8223 249.893C62.291 250.709 61.4941 251.117 60.4316 251.117ZM60.2969 245.434C59.8594 245.434 59.4922 245.594 59.1953 245.914C58.8984 246.23 58.7148 246.676 58.6445 247.25H61.8203V247.168C61.7891 246.617 61.6406 246.191 61.375 245.891C61.1094 245.586 60.75 245.434 60.2969 245.434ZM65.1895 244.66L65.2246 245.457C65.709 244.848 66.3418 244.543 67.123 244.543C68.4629 244.543 69.1387 245.299 69.1504 246.811V251H68.0664V246.805C68.0625 246.348 67.957 246.01 67.75 245.791C67.5469 245.572 67.2285 245.463 66.7949 245.463C66.4434 245.463 66.1348 245.557 65.8691 245.744C65.6035 245.932 65.3965 246.178 65.248 246.482V251H64.1641V244.66H65.1895ZM73.416 251.117C72.5566 251.117 71.8574 250.836 71.3184 250.273C70.7793 249.707 70.5098 248.951 70.5098 248.006V247.807C70.5098 247.178 70.6289 246.617 70.8672 246.125C71.1094 245.629 71.4453 245.242 71.875 244.965C72.3086 244.684 72.7773 244.543 73.2812 244.543C74.1055 244.543 74.7461 244.814 75.2031 245.357C75.6602 245.9 75.8887 246.678 75.8887 247.689V248.141H71.5938C71.6094 248.766 71.791 249.271 72.1387 249.658C72.4902 250.041 72.9355 250.232 73.4746 250.232C73.8574 250.232 74.1816 250.154 74.4473 249.998C74.7129 249.842 74.9453 249.635 75.1445 249.377L75.8066 249.893C75.2754 250.709 74.4785 251.117 73.416 251.117ZM73.2812 245.434C72.8438 245.434 72.4766 245.594 72.1797 245.914C71.8828 246.23 71.6992 246.676 71.6289 247.25H74.8047V247.168C74.7734 246.617 74.625 246.191 74.3594 245.891C74.0938 245.586 73.7344 245.434 73.2812 245.434ZM82.7617 249.506L83.9805 244.66H85.0645L83.2188 251H82.3398L80.7988 246.195L79.2988 251H78.4199L76.5801 244.66H77.6582L78.9062 249.406L80.3828 244.66H81.2559L82.7617 249.506ZM90.7422 251.885H85.375V251H90.7422V251.885ZM91.7559 251V242.469H94.1641C94.9062 242.469 95.5625 242.633 96.1328 242.961C96.7031 243.289 97.1426 243.756 97.4512 244.361C97.7637 244.967 97.9219 245.662 97.9258 246.447V246.992C97.9258 247.797 97.7695 248.502 97.457 249.107C97.1484 249.713 96.7051 250.178 96.127 250.502C95.5527 250.826 94.8828 250.992 94.1172 251H91.7559ZM92.8809 243.395V250.08H94.0645C94.9316 250.08 95.6055 249.811 96.0859 249.271C96.5703 248.732 96.8125 247.965 96.8125 246.969V246.471C96.8125 245.502 96.584 244.75 96.127 244.215C95.6738 243.676 95.0293 243.402 94.1934 243.395H92.8809ZM100.639 251H99.5547V244.66H100.639V251ZM99.4668 242.979C99.4668 242.803 99.5195 242.654 99.625 242.533C99.7344 242.412 99.8945 242.352 100.105 242.352C100.316 242.352 100.477 242.412 100.586 242.533C100.695 242.654 100.75 242.803 100.75 242.979C100.75 243.154 100.695 243.301 100.586 243.418C100.477 243.535 100.316 243.594 100.105 243.594C99.8945 243.594 99.7344 243.535 99.625 243.418C99.5195 243.301 99.4668 243.154 99.4668 242.979ZM106.07 249.318C106.07 249.025 105.959 248.799 105.736 248.639C105.518 248.475 105.133 248.334 104.582 248.217C104.035 248.1 103.6 247.959 103.275 247.795C102.955 247.631 102.717 247.436 102.561 247.209C102.408 246.982 102.332 246.713 102.332 246.4C102.332 245.881 102.551 245.441 102.988 245.082C103.43 244.723 103.992 244.543 104.676 244.543C105.395 244.543 105.977 244.729 106.422 245.1C106.871 245.471 107.096 245.945 107.096 246.523H106.006C106.006 246.227 105.879 245.971 105.625 245.756C105.375 245.541 105.059 245.434 104.676 245.434C104.281 245.434 103.973 245.52 103.75 245.691C103.527 245.863 103.416 246.088 103.416 246.365C103.416 246.627 103.52 246.824 103.727 246.957C103.934 247.09 104.307 247.217 104.846 247.338C105.389 247.459 105.828 247.604 106.164 247.771C106.5 247.939 106.748 248.143 106.908 248.381C107.072 248.615 107.154 248.902 107.154 249.242C107.154 249.809 106.928 250.264 106.475 250.607C106.021 250.947 105.434 251.117 104.711 251.117C104.203 251.117 103.754 251.027 103.363 250.848C102.973 250.668 102.666 250.418 102.443 250.098C102.225 249.773 102.115 249.424 102.115 249.049H103.199C103.219 249.412 103.363 249.701 103.633 249.916C103.906 250.127 104.266 250.232 104.711 250.232C105.121 250.232 105.449 250.15 105.695 249.986C105.945 249.818 106.07 249.596 106.07 249.318ZM112.48 251C112.418 250.875 112.367 250.652 112.328 250.332C111.824 250.855 111.223 251.117 110.523 251.117C109.898 251.117 109.385 250.941 108.982 250.59C108.584 250.234 108.385 249.785 108.385 249.242C108.385 248.582 108.635 248.07 109.135 247.707C109.639 247.34 110.346 247.156 111.256 247.156H112.311V246.658C112.311 246.279 112.197 245.979 111.971 245.756C111.744 245.529 111.41 245.416 110.969 245.416C110.582 245.416 110.258 245.514 109.996 245.709C109.734 245.904 109.604 246.141 109.604 246.418H108.514C108.514 246.102 108.625 245.797 108.848 245.504C109.074 245.207 109.379 244.973 109.762 244.801C110.148 244.629 110.572 244.543 111.033 244.543C111.764 244.543 112.336 244.727 112.75 245.094C113.164 245.457 113.379 245.959 113.395 246.6V249.518C113.395 250.1 113.469 250.562 113.617 250.906V251H112.48ZM110.682 250.174C111.021 250.174 111.344 250.086 111.648 249.91C111.953 249.734 112.174 249.506 112.311 249.225V247.924H111.461C110.133 247.924 109.469 248.312 109.469 249.09C109.469 249.43 109.582 249.695 109.809 249.887C110.035 250.078 110.326 250.174 110.682 250.174ZM120.461 247.9C120.461 248.869 120.238 249.648 119.793 250.238C119.348 250.824 118.75 251.117 118 251.117C117.199 251.117 116.58 250.834 116.143 250.268L116.09 251H115.094V242H116.178V245.357C116.615 244.814 117.219 244.543 117.988 244.543C118.758 244.543 119.361 244.834 119.799 245.416C120.24 245.998 120.461 246.795 120.461 247.807V247.9ZM119.377 247.777C119.377 247.039 119.234 246.469 118.949 246.066C118.664 245.664 118.254 245.463 117.719 245.463C117.004 245.463 116.49 245.795 116.178 246.459V249.201C116.51 249.865 117.027 250.197 117.73 250.197C118.25 250.197 118.654 249.996 118.943 249.594C119.232 249.191 119.377 248.586 119.377 247.777ZM123.01 251H121.926V242H123.01V251ZM127.381 251.117C126.521 251.117 125.822 250.836 125.283 250.273C124.744 249.707 124.475 248.951 124.475 248.006V247.807C124.475 247.178 124.594 246.617 124.832 246.125C125.074 245.629 125.41 245.242 125.84 244.965C126.273 244.684 126.742 244.543 127.246 244.543C128.07 244.543 128.711 244.814 129.168 245.357C129.625 245.9 129.854 246.678 129.854 247.689V248.141H125.559C125.574 248.766 125.756 249.271 126.104 249.658C126.455 250.041 126.9 250.232 127.439 250.232C127.822 250.232 128.146 250.154 128.412 249.998C128.678 249.842 128.91 249.635 129.109 249.377L129.771 249.893C129.24 250.709 128.443 251.117 127.381 251.117ZM127.246 245.434C126.809 245.434 126.441 245.594 126.145 245.914C125.848 246.23 125.664 246.676 125.594 247.25H128.77V247.168C128.738 246.617 128.59 246.191 128.324 245.891C128.059 245.586 127.699 245.434 127.246 245.434ZM130.85 247.777C130.85 246.805 131.08 246.023 131.541 245.434C132.002 244.84 132.605 244.543 133.352 244.543C134.094 244.543 134.682 244.797 135.115 245.305V242H136.199V251H135.203L135.15 250.32C134.717 250.852 134.113 251.117 133.34 251.117C132.605 251.117 132.006 250.816 131.541 250.215C131.08 249.613 130.85 248.828 130.85 247.859V247.777ZM131.934 247.9C131.934 248.619 132.082 249.182 132.379 249.588C132.676 249.994 133.086 250.197 133.609 250.197C134.297 250.197 134.799 249.889 135.115 249.271V246.359C134.791 245.762 134.293 245.463 133.621 245.463C133.09 245.463 132.676 245.668 132.379 246.078C132.082 246.488 131.934 247.096 131.934 247.9Z" fill="#777777"/>
<rect x="12" y="264" width="464" height="33" fill="white"/>
<path d="M30.1152 280.66V284H28.9902V275.469H32.1367C33.0703 275.469 33.8008 275.707 34.3281 276.184C34.8594 276.66 35.125 277.291 35.125 278.076C35.125 278.904 34.8652 279.543 34.3457 279.992C33.8301 280.438 33.0898 280.66 32.125 280.66H30.1152ZM30.1152 279.74H32.1367C32.7383 279.74 33.1992 279.6 33.5195 279.318C33.8398 279.033 34 278.623 34 278.088C34 277.58 33.8398 277.174 33.5195 276.869C33.1992 276.564 32.7598 276.406 32.2012 276.395H30.1152V279.74ZM39.4551 278.633C39.291 278.605 39.1133 278.592 38.9219 278.592C38.2109 278.592 37.7285 278.895 37.4746 279.5V284H36.3906V277.66H37.4453L37.4629 278.393C37.8184 277.826 38.3223 277.543 38.9746 277.543C39.1855 277.543 39.3457 277.57 39.4551 277.625V278.633ZM40.0527 280.771C40.0527 280.15 40.1738 279.592 40.416 279.096C40.6621 278.6 41.002 278.217 41.4355 277.947C41.873 277.678 42.3711 277.543 42.9297 277.543C43.793 277.543 44.4902 277.842 45.0215 278.439C45.5566 279.037 45.8242 279.832 45.8242 280.824V280.9C45.8242 281.518 45.7051 282.072 45.4668 282.564C45.2324 283.053 44.8945 283.434 44.4531 283.707C44.0156 283.98 43.5117 284.117 42.9414 284.117C42.082 284.117 41.3848 283.818 40.8496 283.221C40.3184 282.623 40.0527 281.832 40.0527 280.848V280.771ZM41.1426 280.9C41.1426 281.604 41.3047 282.168 41.6289 282.594C41.957 283.02 42.3945 283.232 42.9414 283.232C43.4922 283.232 43.9297 283.018 44.2539 282.588C44.5781 282.154 44.7402 281.549 44.7402 280.771C44.7402 280.076 44.5742 279.514 44.2422 279.084C43.9141 278.65 43.4766 278.434 42.9297 278.434C42.3945 278.434 41.9629 278.646 41.6348 279.072C41.3066 279.498 41.1426 280.107 41.1426 280.9ZM48.2031 277.66L48.2324 278.363C48.6973 277.816 49.3242 277.543 50.1133 277.543C51 277.543 51.6035 277.883 51.9238 278.562C52.1348 278.258 52.4082 278.012 52.7441 277.824C53.084 277.637 53.4844 277.543 53.9453 277.543C55.3359 277.543 56.043 278.279 56.0664 279.752V284H54.9824V279.816C54.9824 279.363 54.8789 279.025 54.6719 278.803C54.4648 278.576 54.1172 278.463 53.6289 278.463C53.2266 278.463 52.8926 278.584 52.627 278.826C52.3613 279.064 52.207 279.387 52.1641 279.793V284H51.0742V279.846C51.0742 278.924 50.623 278.463 49.7207 278.463C49.0098 278.463 48.5234 278.766 48.2617 279.371V284H47.1777V277.66H48.2031ZM57.4199 280.771C57.4199 280.15 57.541 279.592 57.7832 279.096C58.0293 278.6 58.3691 278.217 58.8027 277.947C59.2402 277.678 59.7383 277.543 60.2969 277.543C61.1602 277.543 61.8574 277.842 62.3887 278.439C62.9238 279.037 63.1914 279.832 63.1914 280.824V280.9C63.1914 281.518 63.0723 282.072 62.834 282.564C62.5996 283.053 62.2617 283.434 61.8203 283.707C61.3828 283.98 60.8789 284.117 60.3086 284.117C59.4492 284.117 58.752 283.818 58.2168 283.221C57.6855 282.623 57.4199 281.832 57.4199 280.848V280.771ZM58.5098 280.9C58.5098 281.604 58.6719 282.168 58.9961 282.594C59.3242 283.02 59.7617 283.232 60.3086 283.232C60.8594 283.232 61.2969 283.018 61.6211 282.588C61.9453 282.154 62.1074 281.549 62.1074 280.771C62.1074 280.076 61.9414 279.514 61.6094 279.084C61.2812 278.65 60.8438 278.434 60.2969 278.434C59.7617 278.434 59.3301 278.646 59.002 279.072C58.6738 279.498 58.5098 280.107 58.5098 280.9ZM69.1211 284.885H63.7539V284H69.1211V284.885ZM72.6484 280.197C71.6836 279.92 70.9805 279.58 70.5391 279.178C70.1016 278.771 69.8828 278.271 69.8828 277.678C69.8828 277.006 70.1504 276.451 70.6855 276.014C71.2246 275.572 71.9238 275.352 72.7832 275.352C73.3691 275.352 73.8906 275.465 74.3477 275.691C74.8086 275.918 75.1641 276.23 75.4141 276.629C75.668 277.027 75.7949 277.463 75.7949 277.936H74.6641C74.6641 277.42 74.5 277.016 74.1719 276.723C73.8438 276.426 73.3809 276.277 72.7832 276.277C72.2285 276.277 71.7949 276.4 71.4824 276.646C71.1738 276.889 71.0195 277.227 71.0195 277.66C71.0195 278.008 71.166 278.303 71.459 278.545C71.7559 278.783 72.2578 279.002 72.9648 279.201C73.6758 279.4 74.2305 279.621 74.6289 279.863C75.0312 280.102 75.3281 280.381 75.5195 280.701C75.7148 281.021 75.8125 281.398 75.8125 281.832C75.8125 282.523 75.543 283.078 75.0039 283.496C74.4648 283.91 73.7441 284.117 72.8418 284.117C72.2559 284.117 71.709 284.006 71.2012 283.783C70.6934 283.557 70.3008 283.248 70.0234 282.857C69.75 282.467 69.6133 282.023 69.6133 281.527H70.7441C70.7441 282.043 70.9336 282.451 71.3125 282.752C71.6953 283.049 72.2051 283.197 72.8418 283.197C73.4355 283.197 73.8906 283.076 74.207 282.834C74.5234 282.592 74.6816 282.262 74.6816 281.844C74.6816 281.426 74.5352 281.104 74.2422 280.877C73.9492 280.646 73.418 280.42 72.6484 280.197ZM78.5605 276.125V277.66H79.7441V278.498H78.5605V282.43C78.5605 282.684 78.6133 282.875 78.7188 283.004C78.8242 283.129 79.0039 283.191 79.2578 283.191C79.3828 283.191 79.5547 283.168 79.7734 283.121V284C79.4883 284.078 79.2109 284.117 78.9414 284.117C78.457 284.117 78.0918 283.971 77.8457 283.678C77.5996 283.385 77.4766 282.969 77.4766 282.43V278.498H76.3223V277.66H77.4766V276.125H78.5605ZM84.9297 284C84.8672 283.875 84.8164 283.652 84.7773 283.332C84.2734 283.855 83.6719 284.117 82.9727 284.117C82.3477 284.117 81.834 283.941 81.4316 283.59C81.0332 283.234 80.834 282.785 80.834 282.242C80.834 281.582 81.084 281.07 81.584 280.707C82.0879 280.34 82.7949 280.156 83.7051 280.156H84.7598V279.658C84.7598 279.279 84.6465 278.979 84.4199 278.756C84.1934 278.529 83.8594 278.416 83.418 278.416C83.0312 278.416 82.707 278.514 82.4453 278.709C82.1836 278.904 82.0527 279.141 82.0527 279.418H80.9629C80.9629 279.102 81.0742 278.797 81.2969 278.504C81.5234 278.207 81.8281 277.973 82.2109 277.801C82.5977 277.629 83.0215 277.543 83.4824 277.543C84.2129 277.543 84.7852 277.727 85.1992 278.094C85.6133 278.457 85.8281 278.959 85.8438 279.6V282.518C85.8438 283.1 85.918 283.562 86.0664 283.906V284H84.9297ZM83.1309 283.174C83.4707 283.174 83.793 283.086 84.0977 282.91C84.4023 282.734 84.623 282.506 84.7598 282.225V280.924H83.9102C82.582 280.924 81.918 281.312 81.918 282.09C81.918 282.43 82.0312 282.695 82.2578 282.887C82.4844 283.078 82.7754 283.174 83.1309 283.174ZM90.6074 278.633C90.4434 278.605 90.2656 278.592 90.0742 278.592C89.3633 278.592 88.8809 278.895 88.627 279.5V284H87.543V277.66H88.5977L88.6152 278.393C88.9707 277.826 89.4746 277.543 90.127 277.543C90.3379 277.543 90.498 277.57 90.6074 277.625V278.633ZM93.373 276.125V277.66H94.5566V278.498H93.373V282.43C93.373 282.684 93.4258 282.875 93.5312 283.004C93.6367 283.129 93.8164 283.191 94.0703 283.191C94.1953 283.191 94.3672 283.168 94.5859 283.121V284C94.3008 284.078 94.0234 284.117 93.7539 284.117C93.2695 284.117 92.9043 283.971 92.6582 283.678C92.4121 283.385 92.2891 282.969 92.2891 282.43V278.498H91.1348V277.66H92.2891V276.125H93.373ZM98.459 284.117C97.5996 284.117 96.9004 283.836 96.3613 283.273C95.8223 282.707 95.5527 281.951 95.5527 281.006V280.807C95.5527 280.178 95.6719 279.617 95.9102 279.125C96.1523 278.629 96.4883 278.242 96.918 277.965C97.3516 277.684 97.8203 277.543 98.3242 277.543C99.1484 277.543 99.7891 277.814 100.246 278.357C100.703 278.9 100.932 279.678 100.932 280.689V281.141H96.6367C96.6523 281.766 96.834 282.271 97.1816 282.658C97.5332 283.041 97.9785 283.232 98.5176 283.232C98.9004 283.232 99.2246 283.154 99.4902 282.998C99.7559 282.842 99.9883 282.635 100.188 282.377L100.85 282.893C100.318 283.709 99.5215 284.117 98.459 284.117ZM98.3242 278.434C97.8867 278.434 97.5195 278.594 97.2227 278.914C96.9258 279.23 96.7422 279.676 96.6719 280.25H99.8477V280.168C99.8164 279.617 99.668 279.191 99.4023 278.891C99.1367 278.586 98.7773 278.434 98.3242 278.434ZM101.928 280.777C101.928 279.805 102.158 279.023 102.619 278.434C103.08 277.84 103.684 277.543 104.43 277.543C105.172 277.543 105.76 277.797 106.193 278.305V275H107.277V284H106.281L106.229 283.32C105.795 283.852 105.191 284.117 104.418 284.117C103.684 284.117 103.084 283.816 102.619 283.215C102.158 282.613 101.928 281.828 101.928 280.859V280.777ZM103.012 280.9C103.012 281.619 103.16 282.182 103.457 282.588C103.754 282.994 104.164 283.197 104.688 283.197C105.375 283.197 105.877 282.889 106.193 282.271V279.359C105.869 278.762 105.371 278.463 104.699 278.463C104.168 278.463 103.754 278.668 103.457 279.078C103.16 279.488 103.012 280.096 103.012 280.9Z" fill="#777777"/>
<path fill-rule="evenodd" clip-rule="evenodd" d="M21.3993 85.2458C20.5434 86.1418 19.3369 86.7 18 86.7C16.6449 86.7 15.4238 86.1266 14.5661 85.2091L17.9957 81.9065L21.3993 85.2458ZM22.1664 84.1772L18.7057 80.7819C18.3151 80.3986 17.6905 80.3957 17.2963 80.7753L13.8103 84.1321C13.484 83.4922 13.3 82.7676 13.3 82C13.3 79.4043 15.4043 77.3 18 77.3C20.5957 77.3 22.7 79.4043 22.7 82C22.7 82.7857 22.5072 83.5263 22.1664 84.1772ZM24 82C24 85.3137 21.3137 88 18 88C14.6863 88 12 85.3137 12 82C12 78.6863 14.6863 76 18 76C21.3137 76 24 78.6863 24 82Z" fill="#0085FF"/>
<path d="M35.6172 17.0527H32.7354V25H31.1421V17.0527H28.2856V15.7578H35.6172V17.0527ZM39.8638 19.541C39.6606 19.5072 39.4512 19.4902 39.2354 19.4902C38.5286 19.4902 38.0526 19.7611 37.8071 20.3027V25H36.2646V18.1318H37.7373L37.7754 18.8999C38.1478 18.3032 38.6641 18.0049 39.3242 18.0049C39.5443 18.0049 39.7262 18.0345 39.8701 18.0938L39.8638 19.541ZM42.479 25H40.9365V18.1318H42.479V25ZM40.8413 16.3481C40.8413 16.1112 40.9154 15.9144 41.0635 15.7578C41.2158 15.6012 41.4316 15.5229 41.7109 15.5229C41.9902 15.5229 42.2061 15.6012 42.3584 15.7578C42.5107 15.9144 42.5869 16.1112 42.5869 16.3481C42.5869 16.5809 42.5107 16.7756 42.3584 16.9321C42.2061 17.0845 41.9902 17.1606 41.7109 17.1606C41.4316 17.1606 41.2158 17.0845 41.0635 16.9321C40.9154 16.7756 40.8413 16.5809 40.8413 16.3481ZM48.2681 25C48.2004 24.8688 48.1411 24.6551 48.0903 24.3589C47.5994 24.8709 46.9985 25.127 46.2876 25.127C45.5978 25.127 45.035 24.9302 44.5991 24.5366C44.1632 24.1431 43.9453 23.6564 43.9453 23.0767C43.9453 22.3446 44.2161 21.7839 44.7578 21.3945C45.3037 21.001 46.0824 20.8042 47.0938 20.8042H48.0396V20.3535C48.0396 19.998 47.9401 19.7145 47.7412 19.5029C47.5423 19.2871 47.2397 19.1792 46.8335 19.1792C46.4823 19.1792 46.1945 19.2681 45.9702 19.4458C45.7459 19.6193 45.6338 19.8415 45.6338 20.1123H44.0913C44.0913 19.7357 44.2161 19.3844 44.4658 19.0586C44.7155 18.7285 45.054 18.4704 45.4814 18.2842C45.9131 18.098 46.3934 18.0049 46.9224 18.0049C47.7264 18.0049 48.3675 18.208 48.8457 18.6143C49.3239 19.0163 49.5693 19.5833 49.582 20.3154V23.4131C49.582 24.0309 49.6688 24.5239 49.8423 24.8921V25H48.2681ZM46.5732 23.8892C46.8779 23.8892 47.1636 23.8151 47.4302 23.667C47.701 23.5189 47.9041 23.32 48.0396 23.0703V21.7754H47.208C46.6367 21.7754 46.2072 21.8748 45.9194 22.0737C45.6317 22.2726 45.4878 22.554 45.4878 22.918C45.4878 23.2142 45.5851 23.4512 45.7798 23.6289C45.9787 23.8024 46.2432 23.8892 46.5732 23.8892ZM52.8384 25H51.2959V15.25H52.8384V25ZM59.5732 26.2124H53.7524V25H59.5732V26.2124ZM65.3687 22.6196C65.3687 22.2134 65.2248 21.9002 64.937 21.6802C64.6535 21.4601 64.1393 21.238 63.3945 21.0137C62.6497 20.7894 62.0573 20.5397 61.6172 20.2646C60.7751 19.7357 60.354 19.0459 60.354 18.1953C60.354 17.4505 60.6566 16.8369 61.2617 16.3545C61.8711 15.8721 62.6603 15.6309 63.6294 15.6309C64.2726 15.6309 64.846 15.7493 65.3496 15.9863C65.8532 16.2233 66.2489 16.5618 66.5366 17.002C66.8244 17.4378 66.9683 17.9224 66.9683 18.4556H65.3687C65.3687 17.9731 65.2163 17.5965 64.9116 17.3257C64.6112 17.0506 64.1795 16.9131 63.6167 16.9131C63.092 16.9131 62.6836 17.0252 62.3916 17.2495C62.1038 17.4738 61.96 17.7869 61.96 18.189C61.96 18.5275 62.1165 18.811 62.4297 19.0396C62.7428 19.2638 63.2591 19.4839 63.9785 19.6997C64.6979 19.9113 65.2756 20.1546 65.7114 20.4297C66.1473 20.7005 66.4668 21.0137 66.6699 21.3691C66.873 21.7204 66.9746 22.133 66.9746 22.6069C66.9746 23.3771 66.6784 23.9907 66.0859 24.4478C65.4977 24.9006 64.6979 25.127 63.6865 25.127C63.0179 25.127 62.4022 25.0042 61.8394 24.7588C61.2808 24.5091 60.8449 24.1663 60.5317 23.7305C60.2228 23.2946 60.0684 22.7868 60.0684 22.207H61.6743C61.6743 22.7318 61.8478 23.138 62.1948 23.4258C62.5418 23.7135 63.0391 23.8574 63.6865 23.8574C64.2451 23.8574 64.6641 23.7453 64.9434 23.521C65.2269 23.2925 65.3687 22.992 65.3687 22.6196ZM70.1675 16.4624V18.1318H71.3799V19.2744H70.1675V23.1084C70.1675 23.3708 70.2183 23.5612 70.3198 23.6797C70.4256 23.7939 70.6118 23.8511 70.8784 23.8511C71.0562 23.8511 71.236 23.8299 71.418 23.7876V24.981C71.0667 25.0783 70.7282 25.127 70.4023 25.127C69.2174 25.127 68.625 24.4731 68.625 23.1655V19.2744H67.4951V18.1318H68.625V16.4624H70.1675ZM76.6675 25C76.5998 24.8688 76.5405 24.6551 76.4897 24.3589C75.9989 24.8709 75.3979 25.127 74.687 25.127C73.9972 25.127 73.4344 24.9302 72.9985 24.5366C72.5627 24.1431 72.3447 23.6564 72.3447 23.0767C72.3447 22.3446 72.6156 21.7839 73.1572 21.3945C73.7031 21.001 74.4818 20.8042 75.4932 20.8042H76.439V20.3535C76.439 19.998 76.3395 19.7145 76.1406 19.5029C75.9417 19.2871 75.6392 19.1792 75.2329 19.1792C74.8817 19.1792 74.5939 19.2681 74.3696 19.4458C74.1453 19.6193 74.0332 19.8415 74.0332 20.1123H72.4907C72.4907 19.7357 72.6156 19.3844 72.8652 19.0586C73.1149 18.7285 73.4535 18.4704 73.8809 18.2842C74.3125 18.098 74.7928 18.0049 75.3218 18.0049C76.1258 18.0049 76.7669 18.208 77.2451 18.6143C77.7233 19.0163 77.9688 19.5833 77.9814 20.3154V23.4131C77.9814 24.0309 78.0682 24.5239 78.2417 24.8921V25H76.6675ZM74.9727 23.8892C75.2773 23.8892 75.563 23.8151 75.8296 23.667C76.1004 23.5189 76.3035 23.32 76.439 23.0703V21.7754H75.6074C75.0361 21.7754 74.6066 21.8748 74.3188 22.0737C74.0311 22.2726 73.8872 22.554 73.8872 22.918C73.8872 23.2142 73.9845 23.4512 74.1792 23.6289C74.3781 23.8024 74.6426 23.8892 74.9727 23.8892ZM83.1929 19.541C82.9897 19.5072 82.7803 19.4902 82.5645 19.4902C81.8577 19.4902 81.3817 19.7611 81.1362 20.3027V25H79.5938V18.1318H81.0664L81.1045 18.8999C81.4769 18.3032 81.9932 18.0049 82.6533 18.0049C82.8734 18.0049 83.0553 18.0345 83.1992 18.0938L83.1929 19.541ZM86.4175 16.4624V18.1318H87.6299V19.2744H86.4175V23.1084C86.4175 23.3708 86.4683 23.5612 86.5698 23.6797C86.6756 23.7939 86.8618 23.8511 87.1284 23.8511C87.3062 23.8511 87.486 23.8299 87.668 23.7876V24.981C87.3167 25.0783 86.9782 25.127 86.6523 25.127C85.4674 25.127 84.875 24.4731 84.875 23.1655V19.2744H83.7451V18.1318H84.875V16.4624H86.4175ZM91.8384 25.127C90.8608 25.127 90.0674 24.8201 89.458 24.2065C88.8529 23.5887 88.5503 22.7677 88.5503 21.7437V21.5532C88.5503 20.8677 88.6815 20.2562 88.9438 19.7188C89.2104 19.1771 89.5828 18.756 90.061 18.4556C90.5392 18.1551 91.0724 18.0049 91.6606 18.0049C92.5959 18.0049 93.3174 18.3032 93.8252 18.8999C94.3372 19.4966 94.5933 20.3408 94.5933 21.4326V22.0547H90.1055C90.152 22.6217 90.3403 23.0703 90.6704 23.4004C91.0047 23.7305 91.4237 23.8955 91.9272 23.8955C92.634 23.8955 93.2095 23.6099 93.6538 23.0386L94.4854 23.832C94.2103 24.2425 93.8421 24.562 93.3809 24.7905C92.9238 25.0148 92.4097 25.127 91.8384 25.127ZM91.6543 19.2427C91.2311 19.2427 90.8883 19.3908 90.626 19.687C90.3678 19.9832 90.2028 20.3958 90.1309 20.9248H93.0698V20.8105C93.036 20.2943 92.8984 19.9049 92.6572 19.6426C92.416 19.376 92.0817 19.2427 91.6543 19.2427ZM95.5073 21.5151C95.5073 20.4572 95.7528 19.6087 96.2437 18.9697C96.7345 18.3265 97.3926 18.0049 98.2178 18.0049C98.9456 18.0049 99.5339 18.2588 99.9824 18.7666V15.25H101.525V25H100.128L100.052 24.2891C99.591 24.8477 98.9753 25.127 98.2051 25.127C97.401 25.127 96.7493 24.8032 96.25 24.1558C95.7549 23.5083 95.5073 22.6281 95.5073 21.5151ZM97.0498 21.6484C97.0498 22.3467 97.1831 22.8926 97.4497 23.2861C97.7205 23.6755 98.1035 23.8701 98.5986 23.8701C99.2292 23.8701 99.6904 23.5887 99.9824 23.0259V20.0933C99.6989 19.5431 99.2419 19.2681 98.6113 19.2681C98.112 19.2681 97.7269 19.467 97.4561 19.8647C97.1852 20.2583 97.0498 20.8529 97.0498 21.6484Z" fill="#181818"/>
<rect x="12.5" y="34.5" width="463" height="27" rx="3.5" fill="white" stroke="#DFE5EB"/>
<rect x="0.5" y="0.5" width="487" height="300" rx="11.5" stroke="#DFE5EB"/>
</svg>
