<svg width="488" height="300" viewBox="0 0 488 300" fill="none" xmlns="http://www.w3.org/2000/svg">
<g clip-path="url(#clip0)">
<path d="M506 5H-18C-22.4183 5 -26 8.42791 -26 12.6564V309.344C-26 313.572 -22.4183 317 -18 317H506C510.418 317 514 313.572 514 309.344V12.6564C514 8.42791 510.418 5 506 5Z" fill="white"/>
<path d="M488 4H7V5H488V4Z" fill="#EDF3F8"/>
<path d="M488 63H7V64H488V63Z" fill="#EDF3F8"/>
<path d="M488 122H7V123H488V122Z" fill="#EDF3F8"/>
<path d="M488 181H7V182H488V181Z" fill="#EDF3F8"/>
<path d="M488 240H7V241H488V240Z" fill="#EDF3F8"/>
<path d="M488 299H7V300H488V299Z" fill="#EDF3F8"/>
<path d="M298 142C304.627 142 310 136.627 310 130C310 123.373 304.627 118 298 118C291.373 118 286 123.373 286 130C286 136.627 291.373 142 298 142Z" fill="#D9E1F0"/>
<g filter="url(#filter0_d)">
<path fill-rule="evenodd" clip-rule="evenodd" d="M234 75C229.582 75 226 78.5817 226 83V100C226 104.418 229.582 108 234 108H290L298 115L306 108H360C364.418 108 368 104.418 368 100V83C368 78.5817 364.418 75 360 75H234Z" fill="#4267B2"/>
</g>
<path d="M237.217 96V86.991H243.249V88.694H239.245V90.579H242.807V92.282H239.245V96H237.217ZM246.847 94.648C247.038 94.648 247.22 94.6437 247.393 94.635C247.567 94.6263 247.705 94.6133 247.809 94.596V93.127C247.731 93.1097 247.614 93.0923 247.458 93.075C247.302 93.0577 247.159 93.049 247.029 93.049C246.847 93.049 246.674 93.062 246.509 93.088C246.353 93.1053 246.215 93.1443 246.093 93.205C245.972 93.2657 245.877 93.348 245.807 93.452C245.738 93.556 245.703 93.686 245.703 93.842C245.703 94.1453 245.803 94.3577 246.002 94.479C246.21 94.5917 246.492 94.648 246.847 94.648ZM246.691 88.98C247.263 88.98 247.74 89.045 248.121 89.175C248.503 89.305 248.806 89.4913 249.031 89.734C249.265 89.9767 249.43 90.2713 249.525 90.618C249.621 90.9647 249.668 91.3503 249.668 91.775V95.805C249.391 95.8657 249.005 95.935 248.511 96.013C248.017 96.0997 247.419 96.143 246.717 96.143C246.275 96.143 245.872 96.104 245.508 96.026C245.153 95.948 244.845 95.8223 244.585 95.649C244.325 95.467 244.126 95.233 243.987 94.947C243.849 94.661 243.779 94.31 243.779 93.894C243.779 93.4953 243.857 93.1573 244.013 92.88C244.178 92.6027 244.395 92.3817 244.663 92.217C244.932 92.0523 245.24 91.9353 245.586 91.866C245.933 91.788 246.293 91.749 246.665 91.749C246.917 91.749 247.138 91.762 247.328 91.788C247.528 91.8053 247.688 91.8313 247.809 91.866V91.684C247.809 91.3547 247.71 91.0903 247.51 90.891C247.311 90.6917 246.964 90.592 246.47 90.592C246.141 90.592 245.816 90.618 245.495 90.67C245.175 90.7133 244.897 90.7783 244.663 90.865L244.416 89.305C244.529 89.2703 244.668 89.2357 244.832 89.201C245.006 89.1577 245.192 89.123 245.391 89.097C245.591 89.0623 245.799 89.0363 246.015 89.019C246.241 88.993 246.466 88.98 246.691 88.98ZM251.095 92.581C251.095 92.087 251.173 91.6233 251.329 91.19C251.493 90.748 251.727 90.3667 252.031 90.046C252.334 89.7167 252.702 89.4567 253.136 89.266C253.569 89.0753 254.063 88.98 254.618 88.98C254.982 88.98 255.315 89.0147 255.619 89.084C255.922 89.1447 256.217 89.2357 256.503 89.357L256.1 90.904C255.918 90.8347 255.718 90.774 255.502 90.722C255.285 90.67 255.042 90.644 254.774 90.644C254.202 90.644 253.773 90.8217 253.487 91.177C253.209 91.5323 253.071 92.0003 253.071 92.581C253.071 93.1963 253.201 93.673 253.461 94.011C253.729 94.349 254.193 94.518 254.852 94.518C255.086 94.518 255.337 94.4963 255.606 94.453C255.874 94.4097 256.121 94.3403 256.347 94.245L256.62 95.831C256.394 95.9263 256.113 96.0087 255.775 96.078C255.437 96.1473 255.064 96.182 254.657 96.182C254.033 96.182 253.495 96.091 253.045 95.909C252.594 95.7183 252.221 95.4627 251.927 95.142C251.641 94.8213 251.428 94.4443 251.29 94.011C251.16 93.569 251.095 93.0923 251.095 92.581ZM257.265 92.633C257.265 92.0263 257.356 91.4977 257.538 91.047C257.728 90.5877 257.975 90.2063 258.279 89.903C258.582 89.5997 258.929 89.37 259.319 89.214C259.717 89.058 260.125 88.98 260.541 88.98C261.511 88.98 262.278 89.279 262.842 89.877C263.405 90.4663 263.687 91.3373 263.687 92.49C263.687 92.6027 263.682 92.7283 263.674 92.867C263.665 92.997 263.656 93.114 263.648 93.218H259.254C259.297 93.6167 259.483 93.933 259.813 94.167C260.142 94.401 260.584 94.518 261.139 94.518C261.494 94.518 261.841 94.4877 262.179 94.427C262.525 94.3577 262.807 94.2753 263.024 94.18L263.284 95.753C263.18 95.805 263.041 95.857 262.868 95.909C262.694 95.961 262.499 96.0043 262.283 96.039C262.075 96.0823 261.849 96.117 261.607 96.143C261.364 96.169 261.121 96.182 260.879 96.182C260.263 96.182 259.726 96.091 259.267 95.909C258.816 95.727 258.439 95.48 258.136 95.168C257.841 94.8473 257.62 94.4703 257.473 94.037C257.334 93.6037 257.265 93.1357 257.265 92.633ZM261.815 91.892C261.806 91.7273 261.776 91.567 261.724 91.411C261.68 91.255 261.607 91.1163 261.503 90.995C261.407 90.8737 261.282 90.774 261.126 90.696C260.978 90.618 260.792 90.579 260.567 90.579C260.35 90.579 260.164 90.618 260.008 90.696C259.852 90.7653 259.722 90.8607 259.618 90.982C259.514 91.1033 259.431 91.2463 259.371 91.411C259.319 91.567 259.28 91.7273 259.254 91.892H261.815ZM269.562 92.529C269.562 91.281 269.103 90.657 268.184 90.657C267.985 90.657 267.786 90.683 267.586 90.735C267.396 90.787 267.24 90.852 267.118 90.93V94.453C267.214 94.4703 267.335 94.4877 267.482 94.505C267.63 94.5137 267.79 94.518 267.963 94.518C268.492 94.518 268.891 94.336 269.159 93.972C269.428 93.608 269.562 93.127 269.562 92.529ZM271.538 92.581C271.538 93.127 271.456 93.621 271.291 94.063C271.135 94.505 270.906 94.882 270.602 95.194C270.299 95.506 269.926 95.7487 269.484 95.922C269.042 96.0867 268.54 96.169 267.976 96.169C267.742 96.169 267.495 96.156 267.235 96.13C266.984 96.1127 266.733 96.0867 266.481 96.052C266.239 96.0173 266.005 95.9783 265.779 95.935C265.554 95.883 265.355 95.831 265.181 95.779V86.224L267.118 85.912V89.318C267.335 89.2227 267.56 89.149 267.794 89.097C268.028 89.045 268.28 89.019 268.548 89.019C269.034 89.019 269.463 89.1057 269.835 89.279C270.208 89.4437 270.52 89.682 270.771 89.994C271.023 90.306 271.213 90.683 271.343 91.125C271.473 91.5583 271.538 92.0437 271.538 92.581ZM279.423 92.568C279.423 93.1053 279.345 93.5993 279.189 94.05C279.033 94.492 278.808 94.8733 278.513 95.194C278.219 95.506 277.863 95.7487 277.447 95.922C277.04 96.0953 276.581 96.182 276.069 96.182C275.567 96.182 275.107 96.0953 274.691 95.922C274.284 95.7487 273.933 95.506 273.638 95.194C273.344 94.8733 273.114 94.492 272.949 94.05C272.785 93.5993 272.702 93.1053 272.702 92.568C272.702 92.0307 272.785 91.541 272.949 91.099C273.123 90.657 273.357 90.28 273.651 89.968C273.955 89.656 274.31 89.4133 274.717 89.24C275.133 89.0667 275.584 88.98 276.069 88.98C276.563 88.98 277.014 89.0667 277.421 89.24C277.837 89.4133 278.193 89.656 278.487 89.968C278.782 90.28 279.012 90.657 279.176 91.099C279.341 91.541 279.423 92.0307 279.423 92.568ZM277.447 92.568C277.447 91.97 277.326 91.502 277.083 91.164C276.849 90.8173 276.511 90.644 276.069 90.644C275.627 90.644 275.285 90.8173 275.042 91.164C274.8 91.502 274.678 91.97 274.678 92.568C274.678 93.166 274.8 93.6427 275.042 93.998C275.285 94.3447 275.627 94.518 276.069 94.518C276.511 94.518 276.849 94.3447 277.083 93.998C277.326 93.6427 277.447 93.166 277.447 92.568ZM287.32 92.568C287.32 93.1053 287.242 93.5993 287.086 94.05C286.93 94.492 286.704 94.8733 286.41 95.194C286.115 95.506 285.76 95.7487 285.344 95.922C284.936 96.0953 284.477 96.182 283.966 96.182C283.463 96.182 283.004 96.0953 282.588 95.922C282.18 95.7487 281.829 95.506 281.535 95.194C281.24 94.8733 281.01 94.492 280.846 94.05C280.681 93.5993 280.599 93.1053 280.599 92.568C280.599 92.0307 280.681 91.541 280.846 91.099C281.019 90.657 281.253 90.28 281.548 89.968C281.851 89.656 282.206 89.4133 282.614 89.24C283.03 89.0667 283.48 88.98 283.966 88.98C284.46 88.98 284.91 89.0667 285.318 89.24C285.734 89.4133 286.089 89.656 286.384 89.968C286.678 90.28 286.908 90.657 287.073 91.099C287.237 91.541 287.32 92.0307 287.32 92.568ZM285.344 92.568C285.344 91.97 285.222 91.502 284.98 91.164C284.746 90.8173 284.408 90.644 283.966 90.644C283.524 90.644 283.181 90.8173 282.939 91.164C282.696 91.502 282.575 91.97 282.575 92.568C282.575 93.166 282.696 93.6427 282.939 93.998C283.181 94.3447 283.524 94.518 283.966 94.518C284.408 94.518 284.746 94.3447 284.98 93.998C285.222 93.6427 285.344 93.166 285.344 92.568ZM290.757 91.632C290.948 91.424 291.143 91.2073 291.342 90.982C291.55 90.7567 291.749 90.5357 291.94 90.319C292.131 90.0937 292.308 89.8813 292.473 89.682C292.646 89.4827 292.794 89.3093 292.915 89.162H295.216C294.757 89.6907 294.306 90.1977 293.864 90.683C293.431 91.1597 292.954 91.6537 292.434 92.165C292.694 92.399 292.963 92.6807 293.24 93.01C293.517 93.3307 293.786 93.6643 294.046 94.011C294.306 94.3577 294.544 94.7043 294.761 95.051C294.978 95.3977 295.16 95.714 295.307 96H293.084C292.945 95.7747 292.785 95.5277 292.603 95.259C292.43 94.9817 292.243 94.7087 292.044 94.44C291.845 94.1627 291.632 93.8983 291.407 93.647C291.19 93.3957 290.974 93.1833 290.757 93.01V96H288.82V86.224L290.757 85.912V91.632ZM305.634 96C305.538 95.688 305.43 95.3673 305.309 95.038C305.196 94.7087 305.083 94.3793 304.971 94.05H301.461C301.348 94.3793 301.231 94.7087 301.11 95.038C300.997 95.3673 300.893 95.688 300.798 96H298.692C299.03 95.0293 299.35 94.1323 299.654 93.309C299.957 92.4857 300.252 91.71 300.538 90.982C300.832 90.254 301.118 89.565 301.396 88.915C301.682 88.2563 301.976 87.615 302.28 86.991H304.217C304.511 87.615 304.802 88.2563 305.088 88.915C305.374 89.565 305.66 90.254 305.946 90.982C306.24 91.71 306.539 92.4857 306.843 93.309C307.146 94.1323 307.467 95.0293 307.805 96H305.634ZM303.203 89.032C303.159 89.162 303.094 89.3397 303.008 89.565C302.921 89.7903 302.821 90.0503 302.709 90.345C302.596 90.6397 302.47 90.9647 302.332 91.32C302.202 91.6753 302.067 92.048 301.929 92.438H304.49C304.351 92.048 304.217 91.6753 304.087 91.32C303.957 90.9647 303.831 90.6397 303.71 90.345C303.597 90.0503 303.497 89.7903 303.411 89.565C303.324 89.3397 303.255 89.162 303.203 89.032ZM310.352 92.529C310.352 93.127 310.486 93.608 310.755 93.972C311.024 94.336 311.422 94.518 311.951 94.518C312.124 94.518 312.285 94.5137 312.432 94.505C312.579 94.4877 312.701 94.4703 312.796 94.453V90.93C312.675 90.852 312.514 90.787 312.315 90.735C312.124 90.683 311.929 90.657 311.73 90.657C310.811 90.657 310.352 91.281 310.352 92.529ZM314.733 95.779C314.56 95.831 314.36 95.883 314.135 95.935C313.91 95.9783 313.671 96.0173 313.42 96.052C313.177 96.0867 312.926 96.1127 312.666 96.13C312.415 96.156 312.172 96.169 311.938 96.169C311.375 96.169 310.872 96.0867 310.43 95.922C309.988 95.7573 309.615 95.5233 309.312 95.22C309.009 94.908 308.775 94.5353 308.61 94.102C308.454 93.66 308.376 93.166 308.376 92.62C308.376 92.0653 308.445 91.567 308.584 91.125C308.723 90.6743 308.922 90.293 309.182 89.981C309.442 89.669 309.758 89.4307 310.131 89.266C310.512 89.1013 310.946 89.019 311.431 89.019C311.7 89.019 311.938 89.045 312.146 89.097C312.363 89.149 312.579 89.2227 312.796 89.318V86.224L314.733 85.912V95.779ZM318.51 94.609C318.865 94.609 319.116 94.5743 319.264 94.505C319.411 94.4357 319.485 94.3013 319.485 94.102C319.485 93.946 319.389 93.8117 319.199 93.699C319.008 93.5777 318.718 93.4433 318.328 93.296C318.024 93.1833 317.747 93.0663 317.496 92.945C317.253 92.8237 317.045 92.6807 316.872 92.516C316.698 92.3427 316.564 92.139 316.469 91.905C316.373 91.671 316.326 91.3893 316.326 91.06C316.326 90.4187 316.564 89.9117 317.041 89.539C317.517 89.1663 318.172 88.98 319.004 88.98C319.42 88.98 319.818 89.019 320.2 89.097C320.581 89.1663 320.884 89.2443 321.11 89.331L320.772 90.839C320.546 90.761 320.299 90.6917 320.031 90.631C319.771 90.5703 319.476 90.54 319.147 90.54C318.54 90.54 318.237 90.709 318.237 91.047C318.237 91.125 318.25 91.1943 318.276 91.255C318.302 91.3157 318.354 91.3763 318.432 91.437C318.51 91.489 318.614 91.5497 318.744 91.619C318.882 91.6797 319.056 91.749 319.264 91.827C319.688 91.983 320.039 92.139 320.317 92.295C320.594 92.4423 320.811 92.607 320.967 92.789C321.131 92.9623 321.244 93.1573 321.305 93.374C321.374 93.5907 321.409 93.842 321.409 94.128C321.409 94.804 321.153 95.3153 320.642 95.662C320.139 96.0087 319.424 96.182 318.497 96.182C317.89 96.182 317.383 96.13 316.976 96.026C316.577 95.922 316.3 95.8353 316.144 95.766L316.469 94.193C316.798 94.323 317.136 94.427 317.483 94.505C317.829 94.5743 318.172 94.609 318.51 94.609ZM324.754 90.358C324.754 90.748 324.629 91.047 324.377 91.255C324.135 91.4543 323.857 91.554 323.545 91.554C323.233 91.554 322.952 91.4543 322.7 91.255C322.458 91.047 322.336 90.748 322.336 90.358C322.336 89.968 322.458 89.6733 322.7 89.474C322.952 89.266 323.233 89.162 323.545 89.162C323.857 89.162 324.135 89.266 324.377 89.474C324.629 89.6733 324.754 89.968 324.754 90.358ZM324.754 94.973C324.754 95.363 324.629 95.662 324.377 95.87C324.135 96.0693 323.857 96.169 323.545 96.169C323.233 96.169 322.952 96.0693 322.7 95.87C322.458 95.662 322.336 95.363 322.336 94.973C322.336 94.583 322.458 94.2883 322.7 94.089C322.952 93.881 323.233 93.777 323.545 93.777C323.857 93.777 324.135 93.881 324.377 94.089C324.629 94.2883 324.754 94.583 324.754 94.973ZM331.142 95.87C330.509 95.818 329.993 95.7227 329.595 95.584C329.205 95.4367 328.914 95.3153 328.724 95.22L329.283 93.725C329.586 93.8723 329.946 94.0067 330.362 94.128C330.786 94.2493 331.233 94.31 331.701 94.31C332.229 94.31 332.589 94.2407 332.78 94.102C332.979 93.9547 333.079 93.751 333.079 93.491C333.079 93.3263 333.04 93.1877 332.962 93.075C332.884 92.9537 332.771 92.8453 332.624 92.75C332.476 92.6547 332.29 92.5637 332.065 92.477C331.839 92.3817 331.579 92.282 331.285 92.178C330.999 92.074 330.717 91.9613 330.44 91.84C330.171 91.71 329.924 91.554 329.699 91.372C329.482 91.19 329.304 90.969 329.166 90.709C329.036 90.4403 328.971 90.1197 328.971 89.747C328.971 89.461 329.01 89.188 329.088 88.928C329.174 88.6593 329.304 88.4167 329.478 88.2C329.651 87.9833 329.876 87.8013 330.154 87.654C330.431 87.498 330.76 87.3853 331.142 87.316V85.912H332.78V87.264C333.23 87.3073 333.616 87.3723 333.937 87.459C334.266 87.5457 334.526 87.6323 334.717 87.719L334.314 89.279C334.028 89.1577 333.694 89.0537 333.313 88.967C332.94 88.8803 332.546 88.837 332.13 88.837C331.714 88.837 331.415 88.9063 331.233 89.045C331.051 89.1837 330.96 89.3657 330.96 89.591C330.96 89.7297 330.986 89.851 331.038 89.955C331.098 90.0503 331.189 90.137 331.311 90.215C331.432 90.293 331.579 90.371 331.753 90.449C331.935 90.5183 332.151 90.5963 332.403 90.683C332.784 90.8217 333.135 90.9733 333.456 91.138C333.785 91.3027 334.067 91.4933 334.301 91.71C334.543 91.918 334.73 92.165 334.86 92.451C334.998 92.737 335.068 93.0707 335.068 93.452C335.068 93.712 335.029 93.972 334.951 94.232C334.873 94.4833 334.743 94.7173 334.561 94.934C334.379 95.1507 334.14 95.337 333.846 95.493C333.56 95.649 333.204 95.7617 332.78 95.831V97.417H331.142V95.87ZM340.337 93.348C340.337 93.0967 340.281 92.8757 340.168 92.685C340.056 92.4857 339.861 92.321 339.583 92.191C339.306 92.061 338.933 91.9613 338.465 91.892C337.997 91.8227 337.408 91.788 336.697 91.788C336.793 90.982 336.871 90.163 336.931 89.331C336.992 88.499 337.04 87.719 337.074 86.991H341.949V88.616H338.699C338.682 88.928 338.66 89.2313 338.634 89.526C338.617 89.812 338.595 90.0633 338.569 90.28C339.835 90.3667 340.766 90.6657 341.364 91.177C341.971 91.6797 342.274 92.3817 342.274 93.283C342.274 93.699 342.201 94.0847 342.053 94.44C341.906 94.7953 341.685 95.103 341.39 95.363C341.096 95.623 340.723 95.8267 340.272 95.974C339.83 96.1213 339.31 96.195 338.712 96.195C338.478 96.195 338.231 96.1777 337.971 96.143C337.72 96.117 337.473 96.078 337.23 96.026C336.996 95.9827 336.784 95.935 336.593 95.883C336.403 95.831 336.255 95.779 336.151 95.727L336.502 94.128C336.719 94.2233 337.005 94.3187 337.36 94.414C337.716 94.5007 338.14 94.544 338.634 94.544C339.232 94.544 339.666 94.427 339.934 94.193C340.203 93.9503 340.337 93.6687 340.337 93.348ZM349.936 93.491C349.936 93.881 349.867 94.2407 349.728 94.57C349.598 94.8907 349.399 95.1723 349.13 95.415C348.861 95.6577 348.523 95.8483 348.116 95.987C347.717 96.117 347.254 96.182 346.725 96.182C346.118 96.182 345.611 96.0997 345.204 95.935C344.805 95.7617 344.48 95.5493 344.229 95.298C343.986 95.0467 343.813 94.7737 343.709 94.479C343.605 94.1757 343.553 93.8983 343.553 93.647C343.553 93.387 343.588 93.1487 343.657 92.932C343.726 92.7153 343.822 92.5203 343.943 92.347C344.064 92.165 344.199 92.0003 344.346 91.853C344.502 91.7057 344.667 91.567 344.84 91.437C344.467 91.1337 344.19 90.8347 344.008 90.54C343.835 90.2453 343.748 89.8683 343.748 89.409C343.748 89.0623 343.817 88.7287 343.956 88.408C344.103 88.0873 344.307 87.81 344.567 87.576C344.827 87.3333 345.139 87.1427 345.503 87.004C345.876 86.8567 346.287 86.783 346.738 86.783C347.267 86.783 347.717 86.861 348.09 87.017C348.471 87.1643 348.783 87.355 349.026 87.589C349.269 87.823 349.442 88.0873 349.546 88.382C349.659 88.668 349.715 88.954 349.715 89.24C349.715 89.656 349.602 90.046 349.377 90.41C349.16 90.7653 348.887 91.047 348.558 91.255C349.052 91.5757 349.403 91.9137 349.611 92.269C349.828 92.6157 349.936 93.023 349.936 93.491ZM345.438 93.569C345.438 93.673 345.46 93.79 345.503 93.92C345.555 94.0413 345.633 94.154 345.737 94.258C345.841 94.362 345.975 94.4487 346.14 94.518C346.305 94.5873 346.504 94.622 346.738 94.622C347.189 94.622 347.518 94.5137 347.726 94.297C347.934 94.0803 348.038 93.8377 348.038 93.569C348.038 93.3697 347.99 93.192 347.895 93.036C347.808 92.88 347.687 92.7457 347.531 92.633C347.375 92.5117 347.189 92.4077 346.972 92.321C346.764 92.2257 346.539 92.139 346.296 92.061C346.053 92.243 345.85 92.4553 345.685 92.698C345.52 92.9407 345.438 93.231 345.438 93.569ZM347.843 89.292C347.843 89.1967 347.821 89.097 347.778 88.993C347.743 88.8803 347.678 88.7763 347.583 88.681C347.496 88.5857 347.384 88.5077 347.245 88.447C347.106 88.3777 346.937 88.343 346.738 88.343C346.547 88.343 346.383 88.3733 346.244 88.434C346.105 88.4947 345.988 88.577 345.893 88.681C345.806 88.7763 345.741 88.8803 345.698 88.993C345.655 89.1057 345.633 89.214 345.633 89.318C345.633 89.5953 345.733 89.8553 345.932 90.098C346.14 90.3407 346.491 90.5487 346.985 90.722C347.262 90.5487 347.475 90.3493 347.622 90.124C347.769 89.8987 347.843 89.6213 347.843 89.292ZM354.582 89.357C354.244 89.799 353.884 90.28 353.503 90.8C353.121 91.32 352.801 91.853 352.541 92.399H354.582V89.357ZM356.48 86.991V92.399H357.442V93.985H356.48V96H354.582V93.985H350.695V92.568C350.885 92.1867 351.124 91.7577 351.41 91.281C351.696 90.7957 352.012 90.3017 352.359 89.799C352.714 89.2877 353.087 88.7893 353.477 88.304C353.867 87.8187 354.257 87.381 354.647 86.991H356.48Z" fill="white"/>
<path d="M70 105C72.2091 105 74 103.209 74 101C74 98.7909 72.2091 97 70 97C67.7909 97 66 98.7909 66 101C66 103.209 67.7909 105 70 105Z" fill="#4267B2"/>
<path d="M13 126C15.2091 126 17 124.209 17 122C17 119.791 15.2091 118 13 118C10.7909 118 9 119.791 9 122C9 124.209 10.7909 126 13 126Z" fill="#4267B2"/>
<path d="M127 228C129.209 228 131 226.209 131 224C131 221.791 129.209 220 127 220C124.791 220 123 221.791 123 224C123 226.209 124.791 228 127 228Z" fill="#4267B2"/>
<path d="M184 192C186.209 192 188 190.209 188 188C188 185.791 186.209 184 184 184C181.791 184 180 185.791 180 188C180 190.209 181.791 192 184 192Z" fill="#4267B2"/>
<path d="M241 203C243.209 203 245 201.209 245 199C245 196.791 243.209 195 241 195C238.791 195 237 196.791 237 199C237 201.209 238.791 203 241 203Z" fill="#4267B2"/>
<path d="M298 134C300.209 134 302 132.209 302 130C302 127.791 300.209 126 298 126C295.791 126 294 127.791 294 130C294 132.209 295.791 134 298 134Z" fill="#4267B2"/>
<path d="M355 142C357.209 142 359 140.209 359 138C359 135.791 357.209 134 355 134C352.791 134 351 135.791 351 138C351 140.209 352.791 142 355 142Z" fill="#4267B2"/>
<path d="M412 51C414.209 51 416 49.2091 416 47C416 44.7909 414.209 43 412 43C409.791 43 408 44.7909 408 47C408 49.2091 409.791 51 412 51Z" fill="#4267B2"/>
<path d="M473 20C475.209 20 477 18.2091 477 16C477 13.7909 475.209 12 473 12C470.791 12 469 13.7909 469 16C469 18.2091 470.791 20 473 20Z" fill="#4267B2"/>
<path d="M13 122C13 122 40 101 70 101C100 101 97 224.5 127 224.5C157 224.5 154 187.5 184 187.5C214 187.5 211 199.5 241 199.5C271 199.5 268 130 298 130C328 130 325 138.5 355 138.5C385 138.5 382 47 412 47C442 47 473 16 473 16" stroke="#4267B2" stroke-width="2"/>
<path d="M127 94C133.627 94 139 88.6274 139 82C139 75.3726 133.627 70 127 70C120.373 70 115 75.3726 115 82C115 88.6274 120.373 94 127 94Z" fill="#BCECCC"/>
<g filter="url(#filter1_d)">
<path fill-rule="evenodd" clip-rule="evenodd" d="M82 27C77.582 27 74 30.5817 74 35V52C74 56.4183 77.582 60 82 60H119L127 67L135 60H171C175.418 60 179 56.4183 179 52V35C179 30.5817 175.418 27 171 27H82Z" fill="#20BF55"/>
</g>
<path d="M87.018 43.489C87.018 43.931 87.07 44.3297 87.174 44.685C87.287 45.0403 87.443 45.348 87.642 45.608C87.85 45.8593 88.102 46.0543 88.396 46.193C88.691 46.3317 89.029 46.401 89.41 46.401C89.783 46.401 90.117 46.3317 90.411 46.193C90.715 46.0543 90.966 45.8593 91.165 45.608C91.373 45.348 91.529 45.0403 91.633 44.685C91.746 44.3297 91.802 43.931 91.802 43.489C91.802 43.047 91.746 42.6483 91.633 42.293C91.529 41.929 91.373 41.6213 91.165 41.37C90.966 41.11 90.715 40.9107 90.411 40.772C90.117 40.6333 89.783 40.564 89.41 40.564C89.029 40.564 88.691 40.6377 88.396 40.785C88.102 40.9237 87.85 41.123 87.642 41.383C87.443 41.6343 87.287 41.942 87.174 42.306C87.07 42.6613 87.018 43.0557 87.018 43.489ZM93.895 43.489C93.895 44.2603 93.778 44.9407 93.544 45.53C93.319 46.1107 93.007 46.6003 92.608 46.999C92.21 47.389 91.733 47.6837 91.178 47.883C90.632 48.0823 90.043 48.182 89.41 48.182C88.795 48.182 88.214 48.0823 87.668 47.883C87.122 47.6837 86.646 47.389 86.238 46.999C85.831 46.6003 85.51 46.1107 85.276 45.53C85.042 44.9407 84.925 44.2603 84.925 43.489C84.925 42.7177 85.047 42.0417 85.289 41.461C85.532 40.8717 85.857 40.3777 86.264 39.979C86.68 39.5803 87.157 39.2813 87.694 39.082C88.24 38.8827 88.812 38.783 89.41 38.783C90.026 38.783 90.606 38.8827 91.152 39.082C91.698 39.2813 92.175 39.5803 92.582 39.979C92.99 40.3777 93.31 40.8717 93.544 41.461C93.778 42.0417 93.895 42.7177 93.895 43.489ZM99.577 42.878C99.404 42.8347 99.2 42.7913 98.966 42.748C98.732 42.696 98.481 42.67 98.212 42.67C98.091 42.67 97.943 42.683 97.77 42.709C97.605 42.7263 97.48 42.748 97.393 42.774V48H95.456V41.526C95.803 41.4047 96.21 41.292 96.678 41.188C97.155 41.0753 97.683 41.019 98.264 41.019C98.368 41.019 98.494 41.0277 98.641 41.045C98.788 41.0537 98.936 41.071 99.083 41.097C99.23 41.1143 99.378 41.1403 99.525 41.175C99.672 41.201 99.798 41.2357 99.902 41.279L99.577 42.878ZM102.464 44.36C102.464 45.4433 102.902 45.985 103.777 45.985C103.977 45.985 104.163 45.959 104.336 45.907C104.51 45.855 104.657 45.7943 104.778 45.725V42.631C104.683 42.6137 104.57 42.6007 104.44 42.592C104.31 42.5747 104.159 42.566 103.985 42.566C103.474 42.566 103.093 42.735 102.841 43.073C102.59 43.411 102.464 43.84 102.464 44.36ZM106.715 47.142C106.715 48.26 106.429 49.0877 105.857 49.625C105.294 50.171 104.419 50.444 103.231 50.444C102.815 50.444 102.399 50.405 101.983 50.327C101.567 50.2577 101.182 50.1623 100.826 50.041L101.164 48.416C101.468 48.5373 101.784 48.6327 102.113 48.702C102.451 48.7713 102.833 48.806 103.257 48.806C103.812 48.806 104.202 48.6847 104.427 48.442C104.661 48.1993 104.778 47.8873 104.778 47.506V47.259C104.57 47.3543 104.354 47.428 104.128 47.48C103.912 47.5233 103.673 47.545 103.413 47.545C102.469 47.545 101.745 47.2677 101.242 46.713C100.74 46.1497 100.488 45.3653 100.488 44.36C100.488 43.8573 100.566 43.4023 100.722 42.995C100.878 42.579 101.104 42.2237 101.398 41.929C101.702 41.6343 102.07 41.409 102.503 41.253C102.937 41.0883 103.426 41.006 103.972 41.006C104.206 41.006 104.445 41.019 104.687 41.045C104.939 41.0623 105.186 41.0883 105.428 41.123C105.671 41.1577 105.901 41.201 106.117 41.253C106.343 41.2963 106.542 41.344 106.715 41.396V47.142ZM111.145 46.648C111.336 46.648 111.518 46.6437 111.691 46.635C111.864 46.6263 112.003 46.6133 112.107 46.596V45.127C112.029 45.1097 111.912 45.0923 111.756 45.075C111.6 45.0577 111.457 45.049 111.327 45.049C111.145 45.049 110.972 45.062 110.807 45.088C110.651 45.1053 110.512 45.1443 110.391 45.205C110.27 45.2657 110.174 45.348 110.105 45.452C110.036 45.556 110.001 45.686 110.001 45.842C110.001 46.1453 110.101 46.3577 110.3 46.479C110.508 46.5917 110.79 46.648 111.145 46.648ZM110.989 40.98C111.561 40.98 112.038 41.045 112.419 41.175C112.8 41.305 113.104 41.4913 113.329 41.734C113.563 41.9767 113.728 42.2713 113.823 42.618C113.918 42.9647 113.966 43.3503 113.966 43.775V47.805C113.689 47.8657 113.303 47.935 112.809 48.013C112.315 48.0997 111.717 48.143 111.015 48.143C110.573 48.143 110.17 48.104 109.806 48.026C109.451 47.948 109.143 47.8223 108.883 47.649C108.623 47.467 108.424 47.233 108.285 46.947C108.146 46.661 108.077 46.31 108.077 45.894C108.077 45.4953 108.155 45.1573 108.311 44.88C108.476 44.6027 108.692 44.3817 108.961 44.217C109.23 44.0523 109.537 43.9353 109.884 43.866C110.231 43.788 110.59 43.749 110.963 43.749C111.214 43.749 111.435 43.762 111.626 43.788C111.825 43.8053 111.986 43.8313 112.107 43.866V43.684C112.107 43.3547 112.007 43.0903 111.808 42.891C111.609 42.6917 111.262 42.592 110.768 42.592C110.439 42.592 110.114 42.618 109.793 42.67C109.472 42.7133 109.195 42.7783 108.961 42.865L108.714 41.305C108.827 41.2703 108.965 41.2357 109.13 41.201C109.303 41.1577 109.49 41.123 109.689 41.097C109.888 41.0623 110.096 41.0363 110.313 41.019C110.538 40.993 110.764 40.98 110.989 40.98ZM115.718 41.396C116.047 41.3007 116.472 41.214 116.992 41.136C117.512 41.0493 118.058 41.006 118.63 41.006C119.21 41.006 119.691 41.084 120.073 41.24C120.463 41.3873 120.77 41.5997 120.996 41.877C121.221 42.1543 121.381 42.4837 121.477 42.865C121.572 43.2463 121.62 43.671 121.62 44.139V48H119.683V44.373C119.683 43.749 119.6 43.307 119.436 43.047C119.271 42.787 118.963 42.657 118.513 42.657C118.374 42.657 118.227 42.6657 118.071 42.683C117.915 42.6917 117.776 42.7047 117.655 42.722V48H115.718V41.396ZM125.31 48H123.373V41.162H125.31V48ZM125.492 39.186C125.492 39.5413 125.375 39.823 125.141 40.031C124.916 40.2303 124.647 40.33 124.335 40.33C124.023 40.33 123.75 40.2303 123.516 40.031C123.291 39.823 123.178 39.5413 123.178 39.186C123.178 38.8307 123.291 38.5533 123.516 38.354C123.75 38.146 124.023 38.042 124.335 38.042C124.647 38.042 124.916 38.146 125.141 38.354C125.375 38.5533 125.492 38.8307 125.492 39.186ZM126.806 44.581C126.806 44.087 126.884 43.6233 127.04 43.19C127.204 42.748 127.438 42.3667 127.742 42.046C128.045 41.7167 128.413 41.4567 128.847 41.266C129.28 41.0753 129.774 40.98 130.329 40.98C130.693 40.98 131.026 41.0147 131.33 41.084C131.633 41.1447 131.928 41.2357 132.214 41.357L131.811 42.904C131.629 42.8347 131.429 42.774 131.213 42.722C130.996 42.67 130.753 42.644 130.485 42.644C129.913 42.644 129.484 42.8217 129.198 43.177C128.92 43.5323 128.782 44.0003 128.782 44.581C128.782 45.1963 128.912 45.673 129.172 46.011C129.44 46.349 129.904 46.518 130.563 46.518C130.797 46.518 131.048 46.4963 131.317 46.453C131.585 46.4097 131.832 46.3403 132.058 46.245L132.331 47.831C132.105 47.9263 131.824 48.0087 131.486 48.078C131.148 48.1473 130.775 48.182 130.368 48.182C129.744 48.182 129.206 48.091 128.756 47.909C128.305 47.7183 127.932 47.4627 127.638 47.142C127.352 46.8213 127.139 46.4443 127.001 46.011C126.871 45.569 126.806 45.0923 126.806 44.581ZM135.656 42.358C135.656 42.748 135.53 43.047 135.279 43.255C135.036 43.4543 134.759 43.554 134.447 43.554C134.135 43.554 133.853 43.4543 133.602 43.255C133.359 43.047 133.238 42.748 133.238 42.358C133.238 41.968 133.359 41.6733 133.602 41.474C133.853 41.266 134.135 41.162 134.447 41.162C134.759 41.162 135.036 41.266 135.279 41.474C135.53 41.6733 135.656 41.968 135.656 42.358ZM135.656 46.973C135.656 47.363 135.53 47.662 135.279 47.87C135.036 48.0693 134.759 48.169 134.447 48.169C134.135 48.169 133.853 48.0693 133.602 47.87C133.359 47.662 133.238 47.363 133.238 46.973C133.238 46.583 133.359 46.2883 133.602 46.089C133.853 45.881 134.135 45.777 134.447 45.777C134.759 45.777 135.036 45.881 135.279 46.089C135.53 46.2883 135.656 46.583 135.656 46.973ZM142.043 47.87C141.41 47.818 140.895 47.7227 140.496 47.584C140.106 47.4367 139.816 47.3153 139.625 47.22L140.184 45.725C140.487 45.8723 140.847 46.0067 141.263 46.128C141.688 46.2493 142.134 46.31 142.602 46.31C143.131 46.31 143.49 46.2407 143.681 46.102C143.88 45.9547 143.98 45.751 143.98 45.491C143.98 45.3263 143.941 45.1877 143.863 45.075C143.785 44.9537 143.672 44.8453 143.525 44.75C143.378 44.6547 143.191 44.5637 142.966 44.477C142.741 44.3817 142.481 44.282 142.186 44.178C141.9 44.074 141.618 43.9613 141.341 43.84C141.072 43.71 140.825 43.554 140.6 43.372C140.383 43.19 140.206 42.969 140.067 42.709C139.937 42.4403 139.872 42.1197 139.872 41.747C139.872 41.461 139.911 41.188 139.989 40.928C140.076 40.6593 140.206 40.4167 140.379 40.2C140.552 39.9833 140.778 39.8013 141.055 39.654C141.332 39.498 141.662 39.3853 142.043 39.316V37.912H143.681V39.264C144.132 39.3073 144.517 39.3723 144.838 39.459C145.167 39.5457 145.427 39.6323 145.618 39.719L145.215 41.279C144.929 41.1577 144.595 41.0537 144.214 40.967C143.841 40.8803 143.447 40.837 143.031 40.837C142.615 40.837 142.316 40.9063 142.134 41.045C141.952 41.1837 141.861 41.3657 141.861 41.591C141.861 41.7297 141.887 41.851 141.939 41.955C142 42.0503 142.091 42.137 142.212 42.215C142.333 42.293 142.481 42.371 142.654 42.449C142.836 42.5183 143.053 42.5963 143.304 42.683C143.685 42.8217 144.036 42.9733 144.357 43.138C144.686 43.3027 144.968 43.4933 145.202 43.71C145.445 43.918 145.631 44.165 145.761 44.451C145.9 44.737 145.969 45.0707 145.969 45.452C145.969 45.712 145.93 45.972 145.852 46.232C145.774 46.4833 145.644 46.7173 145.462 46.934C145.28 47.1507 145.042 47.337 144.747 47.493C144.461 47.649 144.106 47.7617 143.681 47.831V49.417H142.043V47.87ZM150.121 43.762C149.93 43.762 149.726 43.7793 149.51 43.814C149.293 43.8487 149.124 43.8963 149.003 43.957C149.003 43.9917 148.998 44.0437 148.99 44.113C148.99 44.1823 148.99 44.243 148.99 44.295C148.99 44.607 149.011 44.9017 149.055 45.179C149.098 45.4563 149.172 45.699 149.276 45.907C149.38 46.115 149.518 46.2797 149.692 46.401C149.865 46.5137 150.082 46.57 150.342 46.57C150.558 46.57 150.74 46.5267 150.888 46.44C151.044 46.3447 151.169 46.2277 151.265 46.089C151.369 45.9503 151.442 45.7987 151.486 45.634C151.538 45.4607 151.564 45.296 151.564 45.14C151.564 44.698 151.451 44.36 151.226 44.126C151.009 43.8833 150.641 43.762 150.121 43.762ZM150.368 42.254C150.931 42.254 151.408 42.332 151.798 42.488C152.196 42.6353 152.521 42.839 152.773 43.099C153.024 43.359 153.206 43.6623 153.319 44.009C153.431 44.3557 153.488 44.724 153.488 45.114C153.488 45.4607 153.423 45.816 153.293 46.18C153.171 46.544 152.981 46.8733 152.721 47.168C152.469 47.4627 152.144 47.7053 151.746 47.896C151.356 48.0867 150.892 48.182 150.355 48.182C149.271 48.182 148.448 47.8397 147.885 47.155C147.321 46.4703 147.04 45.5257 147.04 44.321C147.04 43.4543 147.174 42.6873 147.443 42.02C147.711 41.3527 148.093 40.7937 148.587 40.343C149.089 39.8837 149.692 39.537 150.394 39.303C151.104 39.0603 151.902 38.9347 152.786 38.926C152.803 39.1947 152.82 39.459 152.838 39.719C152.855 39.9703 152.872 40.2347 152.89 40.512C152.448 40.5207 152.032 40.564 151.642 40.642C151.26 40.7113 150.909 40.824 150.589 40.98C150.277 41.136 150.004 41.3397 149.77 41.591C149.536 41.8337 149.354 42.1327 149.224 42.488C149.414 42.4013 149.609 42.3407 149.809 42.306C150.008 42.2713 150.194 42.254 150.368 42.254ZM160.889 43.476C160.889 44.9927 160.599 46.1583 160.018 46.973C159.446 47.779 158.653 48.182 157.639 48.182C156.625 48.182 155.828 47.779 155.247 46.973C154.675 46.1583 154.389 44.9927 154.389 43.476C154.389 42.722 154.463 42.0547 154.61 41.474C154.766 40.8933 154.987 40.4037 155.273 40.005C155.559 39.6063 155.902 39.303 156.3 39.095C156.699 38.887 157.145 38.783 157.639 38.783C158.653 38.783 159.446 39.1903 160.018 40.005C160.599 40.811 160.889 41.968 160.889 43.476ZM158.913 43.476C158.913 43.0253 158.892 42.618 158.848 42.254C158.805 41.8813 158.736 41.5607 158.64 41.292C158.545 41.0233 158.415 40.8153 158.25 40.668C158.086 40.5207 157.882 40.447 157.639 40.447C157.397 40.447 157.193 40.5207 157.028 40.668C156.872 40.8153 156.742 41.0233 156.638 41.292C156.543 41.5607 156.474 41.8813 156.43 42.254C156.387 42.618 156.365 43.0253 156.365 43.476C156.365 43.9267 156.387 44.3383 156.43 44.711C156.474 45.0837 156.543 45.4043 156.638 45.673C156.742 45.9417 156.872 46.1497 157.028 46.297C157.193 46.4443 157.397 46.518 157.639 46.518C157.882 46.518 158.086 46.4443 158.25 46.297C158.415 46.1497 158.545 45.9417 158.64 45.673C158.736 45.4043 158.805 45.0837 158.848 44.711C158.892 44.3383 158.913 43.9267 158.913 43.476ZM162.246 40.863C162.497 40.759 162.757 40.642 163.026 40.512C163.303 40.3733 163.572 40.226 163.832 40.07C164.092 39.9053 164.339 39.7363 164.573 39.563C164.816 39.381 165.032 39.1903 165.223 38.991H166.575V48H164.638V41.513C164.378 41.6863 164.088 41.8467 163.767 41.994C163.446 42.1327 163.134 42.254 162.831 42.358L162.246 40.863Z" fill="white"/>
<path d="M70 188C72.2091 188 74 186.209 74 184C74 181.791 72.2091 180 70 180C67.7909 180 66 181.791 66 184C66 186.209 67.7909 188 70 188Z" fill="#20BF55"/>
<path d="M13 159C15.2091 159 17 157.209 17 155C17 152.791 15.2091 151 13 151C10.7909 151 9 152.791 9 155C9 157.209 10.7909 159 13 159Z" fill="#20BF55"/>
<path d="M127 86C129.209 86 131 84.2091 131 82C131 79.7909 129.209 78 127 78C124.791 78 123 79.7909 123 82C123 84.2091 124.791 86 127 86Z" fill="#20BF55"/>
<path d="M184 144C186.209 144 188 142.209 188 140C188 137.791 186.209 136 184 136C181.791 136 180 137.791 180 140C180 142.209 181.791 144 184 144Z" fill="#20BF55"/>
<path d="M241 286C243.209 286 245 284.209 245 282C245 279.791 243.209 278 241 278C238.791 278 237 279.791 237 282C237 284.209 238.791 286 241 286Z" fill="#20BF55"/>
<path d="M298 237C300.209 237 302 235.209 302 233C302 230.791 300.209 229 298 229C295.791 229 294 230.791 294 233C294 235.209 295.791 237 298 237Z" fill="#20BF55"/>
<path d="M355 225C357.209 225 359 223.209 359 221C359 218.791 357.209 217 355 217C352.791 217 351 218.791 351 221C351 223.209 352.791 225 355 225Z" fill="#20BF55"/>
<path d="M412 163C414.209 163 416 161.209 416 159C416 156.791 414.209 155 412 155C409.791 155 408 156.791 408 159C408 161.209 409.791 163 412 163Z" fill="#20BF55"/>
<path d="M473 201C475.209 201 477 199.209 477 197C477 194.791 475.209 193 473 193C470.791 193 469 194.791 469 197C469 199.209 470.791 201 473 201Z" fill="#20BF55"/>
<path d="M13 155C13 155 40 184 70 184C100 184 97 82 127 82C157 82 154 140 184 140C214 140 211 282 241 282C271 282 268 233 298 233C328 233 325 221 355 221C385 221 382 159 412 159C442 159 473 197 473 197" stroke="#20BF55" stroke-width="2"/>
</g>
<defs>
<filter id="filter0_d" x="216" y="65" width="162" height="60" filterUnits="userSpaceOnUse" color-interpolation-filters="sRGB">
<feFlood flood-opacity="0" result="BackgroundImageFix"/>
<feColorMatrix in="SourceAlpha" type="matrix" values="0 0 0 0 0 0 0 0 0 0 0 0 0 0 0 0 0 0 127 0"/>
<feOffset/>
<feGaussianBlur stdDeviation="5"/>
<feColorMatrix type="matrix" values="0 0 0 0 0.258824 0 0 0 0 0.403922 0 0 0 0 0.698039 0 0 0 0.3 0"/>
<feBlend mode="normal" in2="BackgroundImageFix" result="effect1_dropShadow"/>
<feBlend mode="normal" in="SourceGraphic" in2="effect1_dropShadow" result="shape"/>
</filter>
<filter id="filter1_d" x="64" y="17" width="125" height="60" filterUnits="userSpaceOnUse" color-interpolation-filters="sRGB">
<feFlood flood-opacity="0" result="BackgroundImageFix"/>
<feColorMatrix in="SourceAlpha" type="matrix" values="0 0 0 0 0 0 0 0 0 0 0 0 0 0 0 0 0 0 127 0"/>
<feOffset/>
<feGaussianBlur stdDeviation="5"/>
<feColorMatrix type="matrix" values="0 0 0 0 0.258824 0 0 0 0 0.403922 0 0 0 0 0.698039 0 0 0 0.3 0"/>
<feBlend mode="normal" in2="BackgroundImageFix" result="effect1_dropShadow"/>
<feBlend mode="normal" in="SourceGraphic" in2="effect1_dropShadow" result="shape"/>
</filter>
<clipPath id="clip0">
<rect width="488" height="300" fill="white"/>
</clipPath>
</defs>
</svg>
