<svg width="488" height="360" viewBox="0 0 488 360" fill="none" xmlns="http://www.w3.org/2000/svg">
<rect width="488" height="360" fill="white"/>
<path d="M68 41C68 45.4183 64.4183 49 60 49C55.5817 49 52 45.4183 52 41C52 36.5817 55.5817 33 60 33C64.4183 33 68 36.5817 68 41Z" fill="#93E6CF"/>
<path d="M192.452 336C192.297 335.76 192.162 335.619 192.104 335.459C191.369 333.416 190.654 331.373 189.938 329.33C189.725 328.729 189.513 328.108 189.319 327.487C189.145 326.946 188.875 326.485 188.333 326.285C187.405 325.945 186.497 325.604 185.568 325.243C184.505 324.843 183.461 324.422 182.417 324.022C181.779 323.781 181.141 323.581 180.503 323.32C180.309 323.24 180.174 323.04 180 322.88C180.174 322.74 180.309 322.519 180.503 322.459C181.566 322.039 182.649 321.638 183.712 321.237C184.698 320.857 185.665 320.496 186.651 320.116C187.193 319.915 187.734 319.715 188.295 319.515C188.759 319.334 189.068 319.014 189.242 318.533C189.571 317.592 189.899 316.65 190.228 315.729C190.77 314.227 191.311 312.704 191.852 311.202C191.949 310.921 191.988 310.621 192.123 310.341C192.2 310.18 192.374 310 192.51 310C192.645 310 192.819 310.2 192.877 310.361C193.612 312.404 194.327 314.447 195.062 316.49C195.275 317.111 195.487 317.752 195.7 318.373C195.874 318.934 196.164 319.334 196.725 319.535C198.117 320.035 199.509 320.556 200.901 321.097C201.887 321.478 202.873 321.878 203.879 322.259C204.13 322.359 204.42 322.399 204.652 322.519C204.807 322.599 205 322.76 205 322.9C205 323.02 204.807 323.24 204.671 323.28C202.235 324.242 199.818 325.143 197.401 326.065C197.305 326.105 197.189 326.145 197.073 326.165C196.261 326.345 195.835 326.846 195.584 327.687C195.275 328.769 194.83 329.81 194.462 330.872C194.114 331.874 193.747 332.855 193.399 333.857C193.206 334.418 193.032 334.998 192.819 335.559C192.8 335.68 192.645 335.8 192.452 336Z" fill="#FFB9F8"/>
<path d="M376 86H339C329.059 86 321 94.0589 321 104V234.5" stroke="black" stroke-width="3" stroke-linecap="round"/>
<path d="M376 274H339C329.059 274 321 265.941 321 256V233" stroke="black" stroke-width="3" stroke-linecap="round"/>
<path d="M133 180H171" stroke="#181818" stroke-width="3" stroke-linecap="round"/>
<path d="M267 180H305" stroke="#181818" stroke-width="3" stroke-linecap="round"/>
<path d="M430.416 87.4227C430.48 94.3083 436.457 96.5997 436.523 96.6289C436.472 96.7905 435.568 99.8943 433.374 103.1C431.478 105.872 429.51 108.634 426.409 108.691C423.362 108.747 422.383 106.884 418.9 106.884C415.418 106.884 414.329 108.634 411.445 108.747C408.452 108.86 406.173 105.75 404.261 102.988C400.354 97.3392 397.368 87.0255 401.377 80.0636C403.369 76.6063 406.929 74.417 410.792 74.3609C413.731 74.3048 416.505 76.3381 418.301 76.3381C420.097 76.3381 423.468 73.8929 427.012 74.252C428.495 74.3138 432.659 74.8513 435.333 78.7653C435.118 78.8989 430.365 81.6661 430.416 87.4227V87.4227ZM424.69 70.5148C426.279 68.5914 427.349 65.914 427.057 63.25C424.767 63.342 421.997 64.7762 420.355 66.6984C418.882 68.4007 417.593 71.1252 417.941 73.7365C420.494 73.934 423.102 72.4393 424.69 70.5148" fill="#181818"/>
<path d="M430.686 268.188L434.999 260.693C435.243 260.272 435.096 259.739 434.682 259.494C434.269 259.25 433.731 259.392 433.494 259.812L429.123 267.405C425.789 265.877 422.036 265.025 418 265.025C413.964 265.025 410.211 265.877 406.877 267.405L402.506 259.812C402.263 259.392 401.731 259.25 401.312 259.494C400.893 259.739 400.752 260.272 400.995 260.693L405.309 268.188C397.87 272.231 392.832 279.784 392 288.625H444C443.168 279.784 438.13 272.231 430.686 268.188ZM406.061 281.3C404.856 281.3 403.882 280.317 403.882 279.114C403.882 277.904 404.861 276.927 406.061 276.927C407.267 276.927 408.241 277.91 408.241 279.114C408.246 280.317 407.267 281.3 406.061 281.3ZM429.933 281.3C428.727 281.3 427.754 280.317 427.754 279.114C427.754 277.904 428.733 276.927 429.933 276.927C431.139 276.927 432.112 277.91 432.112 279.114C432.118 280.317 431.139 281.3 429.933 281.3Z" fill="#181818"/>
<path fill-rule="evenodd" clip-rule="evenodd" d="M103.087 200.688C97.4117 207.018 89.1709 211 80 211C70.7105 211 62.3754 206.914 56.6938 200.441L79.9805 178.017L103.087 200.688ZM106.675 195.803L82.7948 172.373C81.2495 170.857 78.7784 170.845 77.2189 172.347L53.1572 195.517C50.5134 190.954 49 185.654 49 180C49 162.879 62.8792 149 80 149C97.1208 149 111 162.879 111 180C111 185.772 109.423 191.175 106.675 195.803ZM117 180C117 200.435 100.435 217 80 217C59.5655 217 43 200.435 43 180C43 159.565 59.5655 143 80 143C100.435 143 117 159.565 117 180Z" fill="#0085FF"/>
<circle cx="219" cy="180" r="32" fill="#FFD12D"/>
<path d="M215.694 182.207H206.829L219.141 163H230.99L220.809 175.507L219.481 177.138H221.584H231.449L208.75 198.164L216.574 183.682L217.371 182.207H215.694Z" stroke="white" stroke-width="2"/>
</svg>
