<svg width="488" height="386" viewBox="0 0 488 386" fill="none" xmlns="http://www.w3.org/2000/svg">
<rect width="488" height="360" fill="white"/>
<path d="M136 69H207C218.598 69 228 78.402 228 90V110" stroke="black" stroke-width="3" stroke-linecap="round"/>
<path d="M136 253H207C218.598 253 228 243.598 228 232V212" stroke="black" stroke-width="3" stroke-linecap="round"/>
<path d="M357 69H286C274.402 69 265 78.402 265 90V110" stroke="black" stroke-width="3" stroke-linecap="round"/>
<path d="M357 253H286C274.402 253 265 243.598 265 232V212" stroke="black" stroke-width="3" stroke-linecap="round"/>
<path d="M54.1797 120.859H50.5234V131H49.0312V120.859H45.3828V119.625H54.1797V120.859ZM59.1328 123.844C58.9141 123.807 58.6771 123.789 58.4219 123.789C57.474 123.789 56.8307 124.193 56.4922 125V131H55.0469V122.547H56.4531L56.4766 123.523C56.9505 122.768 57.6224 122.391 58.4922 122.391C58.7734 122.391 58.987 122.427 59.1328 122.5V123.844ZM62.0391 131H60.5938V122.547H62.0391V131ZM60.4766 120.305C60.4766 120.07 60.5469 119.872 60.6875 119.711C60.8333 119.549 61.0469 119.469 61.3281 119.469C61.6094 119.469 61.8229 119.549 61.9688 119.711C62.1146 119.872 62.1875 120.07 62.1875 120.305C62.1875 120.539 62.1146 120.734 61.9688 120.891C61.8229 121.047 61.6094 121.125 61.3281 121.125C61.0469 121.125 60.8333 121.047 60.6875 120.891C60.5469 120.734 60.4766 120.539 60.4766 120.305ZM69.5781 131C69.4948 130.833 69.4271 130.536 69.375 130.109C68.7031 130.807 67.901 131.156 66.9688 131.156C66.1354 131.156 65.4505 130.922 64.9141 130.453C64.3828 129.979 64.1172 129.38 64.1172 128.656C64.1172 127.776 64.4505 127.094 65.1172 126.609C65.7891 126.12 66.7318 125.875 67.9453 125.875H69.3516V125.211C69.3516 124.706 69.2005 124.305 68.8984 124.008C68.5964 123.706 68.151 123.555 67.5625 123.555C67.0469 123.555 66.6146 123.685 66.2656 123.945C65.9167 124.206 65.7422 124.521 65.7422 124.891H64.2891C64.2891 124.469 64.4375 124.062 64.7344 123.672C65.0365 123.276 65.4427 122.964 65.9531 122.734C66.4688 122.505 67.0339 122.391 67.6484 122.391C68.6224 122.391 69.3854 122.635 69.9375 123.125C70.4896 123.609 70.776 124.279 70.7969 125.133V129.023C70.7969 129.799 70.8958 130.417 71.0938 130.875V131H69.5781ZM67.1797 129.898C67.6328 129.898 68.0625 129.781 68.4688 129.547C68.875 129.312 69.1693 129.008 69.3516 128.633V126.898H68.2188C66.4479 126.898 65.5625 127.417 65.5625 128.453C65.5625 128.906 65.7135 129.26 66.0156 129.516C66.3177 129.771 66.7057 129.898 67.1797 129.898ZM74.6328 131H73.1875V119H74.6328V131ZM85.8438 128.758C85.8438 128.367 85.6953 128.065 85.3984 127.852C85.1068 127.633 84.5938 127.445 83.8594 127.289C83.1302 127.133 82.5495 126.945 82.1172 126.727C81.6901 126.508 81.3724 126.247 81.1641 125.945C80.9609 125.643 80.8594 125.284 80.8594 124.867C80.8594 124.174 81.151 123.589 81.7344 123.109C82.3229 122.63 83.0729 122.391 83.9844 122.391C84.9427 122.391 85.7188 122.638 86.3125 123.133C86.9115 123.628 87.2109 124.26 87.2109 125.031H85.7578C85.7578 124.635 85.5885 124.294 85.25 124.008C84.9167 123.721 84.4948 123.578 83.9844 123.578C83.4583 123.578 83.0469 123.693 82.75 123.922C82.4531 124.151 82.3047 124.451 82.3047 124.82C82.3047 125.169 82.4427 125.432 82.7188 125.609C82.9948 125.786 83.4922 125.956 84.2109 126.117C84.9349 126.279 85.5208 126.471 85.9688 126.695C86.4167 126.919 86.7474 127.19 86.9609 127.508C87.1797 127.82 87.2891 128.203 87.2891 128.656C87.2891 129.411 86.987 130.018 86.3828 130.477C85.7786 130.93 84.9948 131.156 84.0312 131.156C83.3542 131.156 82.7552 131.036 82.2344 130.797C81.7135 130.557 81.3047 130.224 81.0078 129.797C80.7161 129.365 80.5703 128.898 80.5703 128.398H82.0156C82.0417 128.883 82.2344 129.268 82.5938 129.555C82.9583 129.836 83.4375 129.977 84.0312 129.977C84.5781 129.977 85.0156 129.867 85.3438 129.648C85.6771 129.424 85.8438 129.128 85.8438 128.758ZM91.1328 120.5V122.547H92.7109V123.664H91.1328V128.906C91.1328 129.245 91.2031 129.5 91.3438 129.672C91.4844 129.839 91.724 129.922 92.0625 129.922C92.2292 129.922 92.4583 129.891 92.75 129.828V131C92.3698 131.104 92 131.156 91.6406 131.156C90.9948 131.156 90.5078 130.961 90.1797 130.57C89.8516 130.18 89.6875 129.625 89.6875 128.906V123.664H88.1484V122.547H89.6875V120.5H91.1328ZM99.625 131C99.5417 130.833 99.474 130.536 99.4219 130.109C98.75 130.807 97.9479 131.156 97.0156 131.156C96.1823 131.156 95.4974 130.922 94.9609 130.453C94.4297 129.979 94.1641 129.38 94.1641 128.656C94.1641 127.776 94.4974 127.094 95.1641 126.609C95.8359 126.12 96.7786 125.875 97.9922 125.875H99.3984V125.211C99.3984 124.706 99.2474 124.305 98.9453 124.008C98.6432 123.706 98.1979 123.555 97.6094 123.555C97.0938 123.555 96.6615 123.685 96.3125 123.945C95.9635 124.206 95.7891 124.521 95.7891 124.891H94.3359C94.3359 124.469 94.4844 124.062 94.7812 123.672C95.0833 123.276 95.4896 122.964 96 122.734C96.5156 122.505 97.0807 122.391 97.6953 122.391C98.6693 122.391 99.4323 122.635 99.9844 123.125C100.536 123.609 100.823 124.279 100.844 125.133V129.023C100.844 129.799 100.943 130.417 101.141 130.875V131H99.625ZM97.2266 129.898C97.6797 129.898 98.1094 129.781 98.5156 129.547C98.9219 129.312 99.2161 129.008 99.3984 128.633V126.898H98.2656C96.4948 126.898 95.6094 127.417 95.6094 128.453C95.6094 128.906 95.7604 129.26 96.0625 129.516C96.3646 129.771 96.7526 129.898 97.2266 129.898ZM107.195 123.844C106.977 123.807 106.74 123.789 106.484 123.789C105.536 123.789 104.893 124.193 104.555 125V131H103.109V122.547H104.516L104.539 123.523C105.013 122.768 105.685 122.391 106.555 122.391C106.836 122.391 107.049 122.427 107.195 122.5V123.844ZM110.883 120.5V122.547H112.461V123.664H110.883V128.906C110.883 129.245 110.953 129.5 111.094 129.672C111.234 129.839 111.474 129.922 111.812 129.922C111.979 129.922 112.208 129.891 112.5 129.828V131C112.12 131.104 111.75 131.156 111.391 131.156C110.745 131.156 110.258 130.961 109.93 130.57C109.602 130.18 109.438 129.625 109.438 128.906V123.664H107.898V122.547H109.438V120.5H110.883ZM117.664 131.156C116.518 131.156 115.586 130.781 114.867 130.031C114.148 129.276 113.789 128.268 113.789 127.008V126.742C113.789 125.904 113.948 125.156 114.266 124.5C114.589 123.839 115.036 123.323 115.609 122.953C116.188 122.578 116.812 122.391 117.484 122.391C118.583 122.391 119.438 122.753 120.047 123.477C120.656 124.201 120.961 125.237 120.961 126.586V127.188H115.234C115.255 128.021 115.497 128.695 115.961 129.211C116.43 129.721 117.023 129.977 117.742 129.977C118.253 129.977 118.685 129.872 119.039 129.664C119.393 129.456 119.703 129.18 119.969 128.836L120.852 129.523C120.143 130.612 119.081 131.156 117.664 131.156ZM117.484 123.578C116.901 123.578 116.411 123.792 116.016 124.219C115.62 124.641 115.375 125.234 115.281 126H119.516V125.891C119.474 125.156 119.276 124.589 118.922 124.188C118.568 123.781 118.089 123.578 117.484 123.578ZM122.289 126.703C122.289 125.406 122.596 124.365 123.211 123.578C123.826 122.786 124.63 122.391 125.625 122.391C126.615 122.391 127.398 122.729 127.977 123.406V119H129.422V131H128.094L128.023 130.094C127.445 130.802 126.641 131.156 125.609 131.156C124.63 131.156 123.831 130.755 123.211 129.953C122.596 129.151 122.289 128.104 122.289 126.812V126.703ZM123.734 126.867C123.734 127.826 123.932 128.576 124.328 129.117C124.724 129.659 125.271 129.93 125.969 129.93C126.885 129.93 127.555 129.518 127.977 128.695V124.812C127.544 124.016 126.88 123.617 125.984 123.617C125.276 123.617 124.724 123.891 124.328 124.438C123.932 124.984 123.734 125.794 123.734 126.867Z" fill="#181818"/>
<path d="M15.7266 309.93C14.4401 309.56 13.5026 309.107 12.9141 308.57C12.3307 308.029 12.0391 307.362 12.0391 306.57C12.0391 305.674 12.3958 304.935 13.1094 304.352C13.8281 303.763 14.7604 303.469 15.9062 303.469C16.6875 303.469 17.3828 303.62 17.9922 303.922C18.6068 304.224 19.0807 304.641 19.4141 305.172C19.7526 305.703 19.9219 306.284 19.9219 306.914H18.4141C18.4141 306.227 18.1953 305.688 17.7578 305.297C17.3203 304.901 16.7031 304.703 15.9062 304.703C15.1667 304.703 14.5885 304.867 14.1719 305.195C13.7604 305.518 13.5547 305.969 13.5547 306.547C13.5547 307.01 13.75 307.404 14.1406 307.727C14.5365 308.044 15.2057 308.336 16.1484 308.602C17.0964 308.867 17.8359 309.161 18.3672 309.484C18.9036 309.802 19.2995 310.174 19.5547 310.602C19.8151 311.029 19.9453 311.531 19.9453 312.109C19.9453 313.031 19.5859 313.771 18.8672 314.328C18.1484 314.88 17.1875 315.156 15.9844 315.156C15.2031 315.156 14.474 315.008 13.7969 314.711C13.1198 314.409 12.5964 313.997 12.2266 313.477C11.862 312.956 11.6797 312.365 11.6797 311.703H13.1875C13.1875 312.391 13.4401 312.935 13.9453 313.336C14.4557 313.732 15.1354 313.93 15.9844 313.93C16.776 313.93 17.3828 313.768 17.8047 313.445C18.2266 313.122 18.4375 312.682 18.4375 312.125C18.4375 311.568 18.2422 311.138 17.8516 310.836C17.4609 310.529 16.7526 310.227 15.7266 309.93ZM26.8672 314.164C26.3047 314.826 25.4792 315.156 24.3906 315.156C23.4896 315.156 22.8021 314.896 22.3281 314.375C21.8594 313.849 21.6224 313.073 21.6172 312.047V306.547H23.0625V312.008C23.0625 313.289 23.5833 313.93 24.625 313.93C25.7292 313.93 26.4635 313.518 26.8281 312.695V306.547H28.2734V315H26.8984L26.8672 314.164ZM37.6328 310.867C37.6328 312.159 37.3359 313.198 36.7422 313.984C36.1484 314.766 35.3516 315.156 34.3516 315.156C33.2839 315.156 32.4583 314.779 31.875 314.023L31.8047 315H30.4766V303H31.9219V307.477C32.5052 306.753 33.3099 306.391 34.3359 306.391C35.362 306.391 36.1667 306.779 36.75 307.555C37.3385 308.331 37.6328 309.393 37.6328 310.742V310.867ZM36.1875 310.703C36.1875 309.719 35.9974 308.958 35.6172 308.422C35.237 307.885 34.6901 307.617 33.9766 307.617C33.0234 307.617 32.3385 308.06 31.9219 308.945V312.602C32.3646 313.487 33.0547 313.93 33.9922 313.93C34.6849 313.93 35.224 313.661 35.6094 313.125C35.9948 312.589 36.1875 311.781 36.1875 310.703ZM44.3828 312.758C44.3828 312.367 44.2344 312.065 43.9375 311.852C43.6458 311.633 43.1328 311.445 42.3984 311.289C41.6693 311.133 41.0885 310.945 40.6562 310.727C40.2292 310.508 39.9115 310.247 39.7031 309.945C39.5 309.643 39.3984 309.284 39.3984 308.867C39.3984 308.174 39.6901 307.589 40.2734 307.109C40.862 306.63 41.612 306.391 42.5234 306.391C43.4818 306.391 44.2578 306.638 44.8516 307.133C45.4505 307.628 45.75 308.26 45.75 309.031H44.2969C44.2969 308.635 44.1276 308.294 43.7891 308.008C43.4557 307.721 43.0339 307.578 42.5234 307.578C41.9974 307.578 41.5859 307.693 41.2891 307.922C40.9922 308.151 40.8438 308.451 40.8438 308.82C40.8438 309.169 40.9818 309.432 41.2578 309.609C41.5339 309.786 42.0312 309.956 42.75 310.117C43.474 310.279 44.0599 310.471 44.5078 310.695C44.9557 310.919 45.2865 311.19 45.5 311.508C45.7188 311.82 45.8281 312.203 45.8281 312.656C45.8281 313.411 45.526 314.018 44.9219 314.477C44.3177 314.93 43.5339 315.156 42.5703 315.156C41.8932 315.156 41.2943 315.036 40.7734 314.797C40.2526 314.557 39.8438 314.224 39.5469 313.797C39.2552 313.365 39.1094 312.898 39.1094 312.398H40.5547C40.5807 312.883 40.7734 313.268 41.1328 313.555C41.4974 313.836 41.9766 313.977 42.5703 313.977C43.1172 313.977 43.5547 313.867 43.8828 313.648C44.2161 313.424 44.3828 313.128 44.3828 312.758ZM51.1016 313.977C51.6172 313.977 52.0677 313.82 52.4531 313.508C52.8385 313.195 53.0521 312.805 53.0938 312.336H54.4609C54.4349 312.82 54.2682 313.281 53.9609 313.719C53.6536 314.156 53.2422 314.505 52.7266 314.766C52.2161 315.026 51.6745 315.156 51.1016 315.156C49.9505 315.156 49.0339 314.773 48.3516 314.008C47.6745 313.237 47.3359 312.185 47.3359 310.852V310.609C47.3359 309.786 47.487 309.055 47.7891 308.414C48.0911 307.773 48.5234 307.276 49.0859 306.922C49.6536 306.568 50.3229 306.391 51.0938 306.391C52.0417 306.391 52.8281 306.674 53.4531 307.242C54.0833 307.81 54.4193 308.547 54.4609 309.453H53.0938C53.0521 308.906 52.8438 308.458 52.4688 308.109C52.099 307.755 51.6406 307.578 51.0938 307.578C50.3594 307.578 49.7891 307.844 49.3828 308.375C48.9818 308.901 48.7812 309.664 48.7812 310.664V310.938C48.7812 311.911 48.9818 312.661 49.3828 313.188C49.7839 313.714 50.3568 313.977 51.1016 313.977ZM60.1719 307.844C59.9531 307.807 59.7161 307.789 59.4609 307.789C58.513 307.789 57.8698 308.193 57.5312 309V315H56.0859V306.547H57.4922L57.5156 307.523C57.9896 306.768 58.6615 306.391 59.5312 306.391C59.8125 306.391 60.026 306.427 60.1719 306.5V307.844ZM63.0781 315H61.6328V306.547H63.0781V315ZM61.5156 304.305C61.5156 304.07 61.5859 303.872 61.7266 303.711C61.8724 303.549 62.0859 303.469 62.3672 303.469C62.6484 303.469 62.862 303.549 63.0078 303.711C63.1536 303.872 63.2266 304.07 63.2266 304.305C63.2266 304.539 63.1536 304.734 63.0078 304.891C62.862 305.047 62.6484 305.125 62.3672 305.125C62.0859 305.125 61.8724 305.047 61.7266 304.891C61.5859 304.734 61.5156 304.539 61.5156 304.305ZM72.5391 310.867C72.5391 312.154 72.2448 313.19 71.6562 313.977C71.0677 314.763 70.2708 315.156 69.2656 315.156C68.2396 315.156 67.4323 314.831 66.8438 314.18V318.25H65.3984V306.547H66.7188L66.7891 307.484C67.3776 306.755 68.1953 306.391 69.2422 306.391C70.2578 306.391 71.0599 306.773 71.6484 307.539C72.2422 308.305 72.5391 309.37 72.5391 310.734V310.867ZM71.0938 310.703C71.0938 309.75 70.8906 308.997 70.4844 308.445C70.0781 307.893 69.5208 307.617 68.8125 307.617C67.9375 307.617 67.2812 308.005 66.8438 308.781V312.82C67.276 313.591 67.9375 313.977 68.8281 313.977C69.5208 313.977 70.0703 313.703 70.4766 313.156C70.888 312.604 71.0938 311.786 71.0938 310.703ZM76.3438 304.5V306.547H77.9219V307.664H76.3438V312.906C76.3438 313.245 76.4141 313.5 76.5547 313.672C76.6953 313.839 76.9349 313.922 77.2734 313.922C77.4401 313.922 77.6693 313.891 77.9609 313.828V315C77.5807 315.104 77.2109 315.156 76.8516 315.156C76.2057 315.156 75.7188 314.961 75.3906 314.57C75.0625 314.18 74.8984 313.625 74.8984 312.906V307.664H73.3594V306.547H74.8984V304.5H76.3438ZM81.1875 315H79.7422V306.547H81.1875V315ZM79.625 304.305C79.625 304.07 79.6953 303.872 79.8359 303.711C79.9818 303.549 80.1953 303.469 80.4766 303.469C80.7578 303.469 80.9714 303.549 81.1172 303.711C81.263 303.872 81.3359 304.07 81.3359 304.305C81.3359 304.539 81.263 304.734 81.1172 304.891C80.9714 305.047 80.7578 305.125 80.4766 305.125C80.1953 305.125 79.9818 305.047 79.8359 304.891C79.6953 304.734 79.625 304.539 79.625 304.305ZM83.125 310.695C83.125 309.867 83.2865 309.122 83.6094 308.461C83.9375 307.799 84.3906 307.289 84.9688 306.93C85.5521 306.57 86.2161 306.391 86.9609 306.391C88.112 306.391 89.0417 306.789 89.75 307.586C90.4635 308.383 90.8203 309.443 90.8203 310.766V310.867C90.8203 311.69 90.6615 312.43 90.3438 313.086C90.0312 313.737 89.5807 314.245 88.9922 314.609C88.4089 314.974 87.737 315.156 86.9766 315.156C85.8307 315.156 84.901 314.758 84.1875 313.961C83.4792 313.164 83.125 312.109 83.125 310.797V310.695ZM84.5781 310.867C84.5781 311.805 84.7943 312.557 85.2266 313.125C85.6641 313.693 86.2474 313.977 86.9766 313.977C87.7109 313.977 88.2943 313.69 88.7266 313.117C89.1589 312.539 89.375 311.732 89.375 310.695C89.375 309.768 89.1536 309.018 88.7109 308.445C88.2734 307.867 87.6901 307.578 86.9609 307.578C86.2474 307.578 85.6719 307.862 85.2344 308.43C84.7969 308.997 84.5781 309.81 84.5781 310.867ZM94 306.547L94.0469 307.609C94.6927 306.797 95.5365 306.391 96.5781 306.391C98.3646 306.391 99.2656 307.398 99.2812 309.414V315H97.8359V309.406C97.8307 308.797 97.6901 308.346 97.4141 308.055C97.1432 307.763 96.7188 307.617 96.1406 307.617C95.6719 307.617 95.2604 307.742 94.9062 307.992C94.5521 308.242 94.276 308.57 94.0781 308.977V315H92.6328V306.547H94ZM109.516 307.844C109.297 307.807 109.06 307.789 108.805 307.789C107.857 307.789 107.214 308.193 106.875 309V315H105.43V306.547H106.836L106.859 307.523C107.333 306.768 108.005 306.391 108.875 306.391C109.156 306.391 109.37 306.427 109.516 306.5V307.844ZM114.203 315.156C113.057 315.156 112.125 314.781 111.406 314.031C110.688 313.276 110.328 312.268 110.328 311.008V310.742C110.328 309.904 110.487 309.156 110.805 308.5C111.128 307.839 111.576 307.323 112.148 306.953C112.727 306.578 113.352 306.391 114.023 306.391C115.122 306.391 115.977 306.753 116.586 307.477C117.195 308.201 117.5 309.237 117.5 310.586V311.188H111.773C111.794 312.021 112.036 312.695 112.5 313.211C112.969 313.721 113.562 313.977 114.281 313.977C114.792 313.977 115.224 313.872 115.578 313.664C115.932 313.456 116.242 313.18 116.508 312.836L117.391 313.523C116.682 314.612 115.62 315.156 114.203 315.156ZM114.023 307.578C113.44 307.578 112.951 307.792 112.555 308.219C112.159 308.641 111.914 309.234 111.82 310H116.055V309.891C116.013 309.156 115.815 308.589 115.461 308.188C115.107 307.781 114.628 307.578 114.023 307.578ZM120.547 306.547L120.594 307.609C121.24 306.797 122.083 306.391 123.125 306.391C124.911 306.391 125.812 307.398 125.828 309.414V315H124.383V309.406C124.378 308.797 124.237 308.346 123.961 308.055C123.69 307.763 123.266 307.617 122.688 307.617C122.219 307.617 121.807 307.742 121.453 307.992C121.099 308.242 120.823 308.57 120.625 308.977V315H119.18V306.547H120.547ZM131.516 315.156C130.37 315.156 129.438 314.781 128.719 314.031C128 313.276 127.641 312.268 127.641 311.008V310.742C127.641 309.904 127.799 309.156 128.117 308.5C128.44 307.839 128.888 307.323 129.461 306.953C130.039 306.578 130.664 306.391 131.336 306.391C132.435 306.391 133.289 306.753 133.898 307.477C134.508 308.201 134.812 309.237 134.812 310.586V311.188H129.086C129.107 312.021 129.349 312.695 129.812 313.211C130.281 313.721 130.875 313.977 131.594 313.977C132.104 313.977 132.536 313.872 132.891 313.664C133.245 313.456 133.555 313.18 133.82 312.836L134.703 313.523C133.995 314.612 132.932 315.156 131.516 315.156ZM131.336 307.578C130.753 307.578 130.263 307.792 129.867 308.219C129.471 308.641 129.227 309.234 129.133 310H133.367V309.891C133.326 309.156 133.128 308.589 132.773 308.188C132.419 307.781 131.94 307.578 131.336 307.578ZM143.977 313.008L145.602 306.547H147.047L144.586 315H143.414L141.359 308.594L139.359 315H138.188L135.734 306.547H137.172L138.836 312.875L140.805 306.547H141.969L143.977 313.008ZM152.031 315.156C150.885 315.156 149.953 314.781 149.234 314.031C148.516 313.276 148.156 312.268 148.156 311.008V310.742C148.156 309.904 148.315 309.156 148.633 308.5C148.956 307.839 149.404 307.323 149.977 306.953C150.555 306.578 151.18 306.391 151.852 306.391C152.951 306.391 153.805 306.753 154.414 307.477C155.023 308.201 155.328 309.237 155.328 310.586V311.188H149.602C149.622 312.021 149.865 312.695 150.328 313.211C150.797 313.721 151.391 313.977 152.109 313.977C152.62 313.977 153.052 313.872 153.406 313.664C153.76 313.456 154.07 313.18 154.336 312.836L155.219 313.523C154.51 314.612 153.448 315.156 152.031 315.156ZM151.852 307.578C151.268 307.578 150.779 307.792 150.383 308.219C149.987 308.641 149.742 309.234 149.648 310H153.883V309.891C153.841 309.156 153.643 308.589 153.289 308.188C152.935 307.781 152.456 307.578 151.852 307.578ZM156.656 310.703C156.656 309.406 156.964 308.365 157.578 307.578C158.193 306.786 158.997 306.391 159.992 306.391C160.982 306.391 161.766 306.729 162.344 307.406V303H163.789V315H162.461L162.391 314.094C161.812 314.802 161.008 315.156 159.977 315.156C158.997 315.156 158.198 314.755 157.578 313.953C156.964 313.151 156.656 312.104 156.656 310.812V310.703ZM158.102 310.867C158.102 311.826 158.299 312.576 158.695 313.117C159.091 313.659 159.638 313.93 160.336 313.93C161.253 313.93 161.922 313.518 162.344 312.695V308.812C161.911 308.016 161.247 307.617 160.352 307.617C159.643 307.617 159.091 307.891 158.695 308.438C158.299 308.984 158.102 309.794 158.102 310.867Z" fill="#181818"/>
<path d="M336.992 309.93C335.706 309.56 334.768 309.107 334.18 308.57C333.596 308.029 333.305 307.362 333.305 306.57C333.305 305.674 333.661 304.935 334.375 304.352C335.094 303.763 336.026 303.469 337.172 303.469C337.953 303.469 338.648 303.62 339.258 303.922C339.872 304.224 340.346 304.641 340.68 305.172C341.018 305.703 341.188 306.284 341.188 306.914H339.68C339.68 306.227 339.461 305.688 339.023 305.297C338.586 304.901 337.969 304.703 337.172 304.703C336.432 304.703 335.854 304.867 335.438 305.195C335.026 305.518 334.82 305.969 334.82 306.547C334.82 307.01 335.016 307.404 335.406 307.727C335.802 308.044 336.471 308.336 337.414 308.602C338.362 308.867 339.102 309.161 339.633 309.484C340.169 309.802 340.565 310.174 340.82 310.602C341.081 311.029 341.211 311.531 341.211 312.109C341.211 313.031 340.852 313.771 340.133 314.328C339.414 314.88 338.453 315.156 337.25 315.156C336.469 315.156 335.74 315.008 335.062 314.711C334.385 314.409 333.862 313.997 333.492 313.477C333.128 312.956 332.945 312.365 332.945 311.703H334.453C334.453 312.391 334.706 312.935 335.211 313.336C335.721 313.732 336.401 313.93 337.25 313.93C338.042 313.93 338.648 313.768 339.07 313.445C339.492 313.122 339.703 312.682 339.703 312.125C339.703 311.568 339.508 311.138 339.117 310.836C338.727 310.529 338.018 310.227 336.992 309.93ZM348.133 314.164C347.57 314.826 346.745 315.156 345.656 315.156C344.755 315.156 344.068 314.896 343.594 314.375C343.125 313.849 342.888 313.073 342.883 312.047V306.547H344.328V312.008C344.328 313.289 344.849 313.93 345.891 313.93C346.995 313.93 347.729 313.518 348.094 312.695V306.547H349.539V315H348.164L348.133 314.164ZM358.898 310.867C358.898 312.159 358.602 313.198 358.008 313.984C357.414 314.766 356.617 315.156 355.617 315.156C354.549 315.156 353.724 314.779 353.141 314.023L353.07 315H351.742V303H353.188V307.477C353.771 306.753 354.576 306.391 355.602 306.391C356.628 306.391 357.432 306.779 358.016 307.555C358.604 308.331 358.898 309.393 358.898 310.742V310.867ZM357.453 310.703C357.453 309.719 357.263 308.958 356.883 308.422C356.503 307.885 355.956 307.617 355.242 307.617C354.289 307.617 353.604 308.06 353.188 308.945V312.602C353.63 313.487 354.32 313.93 355.258 313.93C355.951 313.93 356.49 313.661 356.875 313.125C357.26 312.589 357.453 311.781 357.453 310.703ZM365.648 312.758C365.648 312.367 365.5 312.065 365.203 311.852C364.911 311.633 364.398 311.445 363.664 311.289C362.935 311.133 362.354 310.945 361.922 310.727C361.495 310.508 361.177 310.247 360.969 309.945C360.766 309.643 360.664 309.284 360.664 308.867C360.664 308.174 360.956 307.589 361.539 307.109C362.128 306.63 362.878 306.391 363.789 306.391C364.747 306.391 365.523 306.638 366.117 307.133C366.716 307.628 367.016 308.26 367.016 309.031H365.562C365.562 308.635 365.393 308.294 365.055 308.008C364.721 307.721 364.299 307.578 363.789 307.578C363.263 307.578 362.852 307.693 362.555 307.922C362.258 308.151 362.109 308.451 362.109 308.82C362.109 309.169 362.247 309.432 362.523 309.609C362.799 309.786 363.297 309.956 364.016 310.117C364.74 310.279 365.326 310.471 365.773 310.695C366.221 310.919 366.552 311.19 366.766 311.508C366.984 311.82 367.094 312.203 367.094 312.656C367.094 313.411 366.792 314.018 366.188 314.477C365.583 314.93 364.799 315.156 363.836 315.156C363.159 315.156 362.56 315.036 362.039 314.797C361.518 314.557 361.109 314.224 360.812 313.797C360.521 313.365 360.375 312.898 360.375 312.398H361.82C361.846 312.883 362.039 313.268 362.398 313.555C362.763 313.836 363.242 313.977 363.836 313.977C364.383 313.977 364.82 313.867 365.148 313.648C365.482 313.424 365.648 313.128 365.648 312.758ZM372.367 313.977C372.883 313.977 373.333 313.82 373.719 313.508C374.104 313.195 374.318 312.805 374.359 312.336H375.727C375.701 312.82 375.534 313.281 375.227 313.719C374.919 314.156 374.508 314.505 373.992 314.766C373.482 315.026 372.94 315.156 372.367 315.156C371.216 315.156 370.299 314.773 369.617 314.008C368.94 313.237 368.602 312.185 368.602 310.852V310.609C368.602 309.786 368.753 309.055 369.055 308.414C369.357 307.773 369.789 307.276 370.352 306.922C370.919 306.568 371.589 306.391 372.359 306.391C373.307 306.391 374.094 306.674 374.719 307.242C375.349 307.81 375.685 308.547 375.727 309.453H374.359C374.318 308.906 374.109 308.458 373.734 308.109C373.365 307.755 372.906 307.578 372.359 307.578C371.625 307.578 371.055 307.844 370.648 308.375C370.247 308.901 370.047 309.664 370.047 310.664V310.938C370.047 311.911 370.247 312.661 370.648 313.188C371.049 313.714 371.622 313.977 372.367 313.977ZM381.438 307.844C381.219 307.807 380.982 307.789 380.727 307.789C379.779 307.789 379.135 308.193 378.797 309V315H377.352V306.547H378.758L378.781 307.523C379.255 306.768 379.927 306.391 380.797 306.391C381.078 306.391 381.292 306.427 381.438 306.5V307.844ZM384.344 315H382.898V306.547H384.344V315ZM382.781 304.305C382.781 304.07 382.852 303.872 382.992 303.711C383.138 303.549 383.352 303.469 383.633 303.469C383.914 303.469 384.128 303.549 384.273 303.711C384.419 303.872 384.492 304.07 384.492 304.305C384.492 304.539 384.419 304.734 384.273 304.891C384.128 305.047 383.914 305.125 383.633 305.125C383.352 305.125 383.138 305.047 382.992 304.891C382.852 304.734 382.781 304.539 382.781 304.305ZM393.805 310.867C393.805 312.154 393.51 313.19 392.922 313.977C392.333 314.763 391.536 315.156 390.531 315.156C389.505 315.156 388.698 314.831 388.109 314.18V318.25H386.664V306.547H387.984L388.055 307.484C388.643 306.755 389.461 306.391 390.508 306.391C391.523 306.391 392.326 306.773 392.914 307.539C393.508 308.305 393.805 309.37 393.805 310.734V310.867ZM392.359 310.703C392.359 309.75 392.156 308.997 391.75 308.445C391.344 307.893 390.786 307.617 390.078 307.617C389.203 307.617 388.547 308.005 388.109 308.781V312.82C388.542 313.591 389.203 313.977 390.094 313.977C390.786 313.977 391.336 313.703 391.742 313.156C392.154 312.604 392.359 311.786 392.359 310.703ZM397.609 304.5V306.547H399.188V307.664H397.609V312.906C397.609 313.245 397.68 313.5 397.82 313.672C397.961 313.839 398.201 313.922 398.539 313.922C398.706 313.922 398.935 313.891 399.227 313.828V315C398.846 315.104 398.477 315.156 398.117 315.156C397.471 315.156 396.984 314.961 396.656 314.57C396.328 314.18 396.164 313.625 396.164 312.906V307.664H394.625V306.547H396.164V304.5H397.609ZM402.453 315H401.008V306.547H402.453V315ZM400.891 304.305C400.891 304.07 400.961 303.872 401.102 303.711C401.247 303.549 401.461 303.469 401.742 303.469C402.023 303.469 402.237 303.549 402.383 303.711C402.529 303.872 402.602 304.07 402.602 304.305C402.602 304.539 402.529 304.734 402.383 304.891C402.237 305.047 402.023 305.125 401.742 305.125C401.461 305.125 401.247 305.047 401.102 304.891C400.961 304.734 400.891 304.539 400.891 304.305ZM404.391 310.695C404.391 309.867 404.552 309.122 404.875 308.461C405.203 307.799 405.656 307.289 406.234 306.93C406.818 306.57 407.482 306.391 408.227 306.391C409.378 306.391 410.307 306.789 411.016 307.586C411.729 308.383 412.086 309.443 412.086 310.766V310.867C412.086 311.69 411.927 312.43 411.609 313.086C411.297 313.737 410.846 314.245 410.258 314.609C409.674 314.974 409.003 315.156 408.242 315.156C407.096 315.156 406.167 314.758 405.453 313.961C404.745 313.164 404.391 312.109 404.391 310.797V310.695ZM405.844 310.867C405.844 311.805 406.06 312.557 406.492 313.125C406.93 313.693 407.513 313.977 408.242 313.977C408.977 313.977 409.56 313.69 409.992 313.117C410.424 312.539 410.641 311.732 410.641 310.695C410.641 309.768 410.419 309.018 409.977 308.445C409.539 307.867 408.956 307.578 408.227 307.578C407.513 307.578 406.938 307.862 406.5 308.43C406.062 308.997 405.844 309.81 405.844 310.867ZM415.266 306.547L415.312 307.609C415.958 306.797 416.802 306.391 417.844 306.391C419.63 306.391 420.531 307.398 420.547 309.414V315H419.102V309.406C419.096 308.797 418.956 308.346 418.68 308.055C418.409 307.763 417.984 307.617 417.406 307.617C416.938 307.617 416.526 307.742 416.172 307.992C415.818 308.242 415.542 308.57 415.344 308.977V315H413.898V306.547H415.266ZM430.203 315.156C429.057 315.156 428.125 314.781 427.406 314.031C426.688 313.276 426.328 312.268 426.328 311.008V310.742C426.328 309.904 426.487 309.156 426.805 308.5C427.128 307.839 427.576 307.323 428.148 306.953C428.727 306.578 429.352 306.391 430.023 306.391C431.122 306.391 431.977 306.753 432.586 307.477C433.195 308.201 433.5 309.237 433.5 310.586V311.188H427.773C427.794 312.021 428.036 312.695 428.5 313.211C428.969 313.721 429.562 313.977 430.281 313.977C430.792 313.977 431.224 313.872 431.578 313.664C431.932 313.456 432.242 313.18 432.508 312.836L433.391 313.523C432.682 314.612 431.62 315.156 430.203 315.156ZM430.023 307.578C429.44 307.578 428.951 307.792 428.555 308.219C428.159 308.641 427.914 309.234 427.82 310H432.055V309.891C432.013 309.156 431.815 308.589 431.461 308.188C431.107 307.781 430.628 307.578 430.023 307.578ZM438.016 309.633L439.891 306.547H441.578L438.812 310.727L441.664 315H439.992L438.039 311.836L436.086 315H434.406L437.258 310.727L434.492 306.547H436.164L438.016 309.633ZM450.258 310.867C450.258 312.154 449.964 313.19 449.375 313.977C448.786 314.763 447.99 315.156 446.984 315.156C445.958 315.156 445.151 314.831 444.562 314.18V318.25H443.117V306.547H444.438L444.508 307.484C445.096 306.755 445.914 306.391 446.961 306.391C447.977 306.391 448.779 306.773 449.367 307.539C449.961 308.305 450.258 309.37 450.258 310.734V310.867ZM448.812 310.703C448.812 309.75 448.609 308.997 448.203 308.445C447.797 307.893 447.24 307.617 446.531 307.617C445.656 307.617 445 308.005 444.562 308.781V312.82C444.995 313.591 445.656 313.977 446.547 313.977C447.24 313.977 447.789 313.703 448.195 313.156C448.607 312.604 448.812 311.786 448.812 310.703ZM453.672 315H452.227V306.547H453.672V315ZM452.109 304.305C452.109 304.07 452.18 303.872 452.32 303.711C452.466 303.549 452.68 303.469 452.961 303.469C453.242 303.469 453.456 303.549 453.602 303.711C453.747 303.872 453.82 304.07 453.82 304.305C453.82 304.539 453.747 304.734 453.602 304.891C453.456 305.047 453.242 305.125 452.961 305.125C452.68 305.125 452.466 305.047 452.32 304.891C452.18 304.734 452.109 304.539 452.109 304.305ZM460.078 307.844C459.859 307.807 459.622 307.789 459.367 307.789C458.419 307.789 457.776 308.193 457.438 309V315H455.992V306.547H457.398L457.422 307.523C457.896 306.768 458.568 306.391 459.438 306.391C459.719 306.391 459.932 306.427 460.078 306.5V307.844ZM464.766 315.156C463.62 315.156 462.688 314.781 461.969 314.031C461.25 313.276 460.891 312.268 460.891 311.008V310.742C460.891 309.904 461.049 309.156 461.367 308.5C461.69 307.839 462.138 307.323 462.711 306.953C463.289 306.578 463.914 306.391 464.586 306.391C465.685 306.391 466.539 306.753 467.148 307.477C467.758 308.201 468.062 309.237 468.062 310.586V311.188H462.336C462.357 312.021 462.599 312.695 463.062 313.211C463.531 313.721 464.125 313.977 464.844 313.977C465.354 313.977 465.786 313.872 466.141 313.664C466.495 313.456 466.805 313.18 467.07 312.836L467.953 313.523C467.245 314.612 466.182 315.156 464.766 315.156ZM464.586 307.578C464.003 307.578 463.513 307.792 463.117 308.219C462.721 308.641 462.477 309.234 462.383 310H466.617V309.891C466.576 309.156 466.378 308.589 466.023 308.188C465.669 307.781 465.19 307.578 464.586 307.578ZM469.391 310.703C469.391 309.406 469.698 308.365 470.312 307.578C470.927 306.786 471.732 306.391 472.727 306.391C473.716 306.391 474.5 306.729 475.078 307.406V303H476.523V315H475.195L475.125 314.094C474.547 314.802 473.742 315.156 472.711 315.156C471.732 315.156 470.932 314.755 470.312 313.953C469.698 313.151 469.391 312.104 469.391 310.812V310.703ZM470.836 310.867C470.836 311.826 471.034 312.576 471.43 313.117C471.826 313.659 472.372 313.93 473.07 313.93C473.987 313.93 474.656 313.518 475.078 312.695V308.812C474.646 308.016 473.982 307.617 473.086 307.617C472.378 307.617 471.826 307.891 471.43 308.438C471.034 308.984 470.836 309.794 470.836 310.867Z" fill="#181818"/>
<path d="M361.18 120.859H357.523V131H356.031V120.859H352.383V119.625H361.18V120.859ZM366.133 123.844C365.914 123.807 365.677 123.789 365.422 123.789C364.474 123.789 363.831 124.193 363.492 125V131H362.047V122.547H363.453L363.477 123.523C363.951 122.768 364.622 122.391 365.492 122.391C365.773 122.391 365.987 122.427 366.133 122.5V123.844ZM369.039 131H367.594V122.547H369.039V131ZM367.477 120.305C367.477 120.07 367.547 119.872 367.688 119.711C367.833 119.549 368.047 119.469 368.328 119.469C368.609 119.469 368.823 119.549 368.969 119.711C369.115 119.872 369.188 120.07 369.188 120.305C369.188 120.539 369.115 120.734 368.969 120.891C368.823 121.047 368.609 121.125 368.328 121.125C368.047 121.125 367.833 121.047 367.688 120.891C367.547 120.734 367.477 120.539 367.477 120.305ZM376.578 131C376.495 130.833 376.427 130.536 376.375 130.109C375.703 130.807 374.901 131.156 373.969 131.156C373.135 131.156 372.451 130.922 371.914 130.453C371.383 129.979 371.117 129.38 371.117 128.656C371.117 127.776 371.451 127.094 372.117 126.609C372.789 126.12 373.732 125.875 374.945 125.875H376.352V125.211C376.352 124.706 376.201 124.305 375.898 124.008C375.596 123.706 375.151 123.555 374.562 123.555C374.047 123.555 373.615 123.685 373.266 123.945C372.917 124.206 372.742 124.521 372.742 124.891H371.289C371.289 124.469 371.438 124.062 371.734 123.672C372.036 123.276 372.443 122.964 372.953 122.734C373.469 122.505 374.034 122.391 374.648 122.391C375.622 122.391 376.385 122.635 376.938 123.125C377.49 123.609 377.776 124.279 377.797 125.133V129.023C377.797 129.799 377.896 130.417 378.094 130.875V131H376.578ZM374.18 129.898C374.633 129.898 375.062 129.781 375.469 129.547C375.875 129.312 376.169 129.008 376.352 128.633V126.898H375.219C373.448 126.898 372.562 127.417 372.562 128.453C372.562 128.906 372.714 129.26 373.016 129.516C373.318 129.771 373.706 129.898 374.18 129.898ZM381.633 131H380.188V119H381.633V131ZM391.312 129.977C391.828 129.977 392.279 129.82 392.664 129.508C393.049 129.195 393.263 128.805 393.305 128.336H394.672C394.646 128.82 394.479 129.281 394.172 129.719C393.865 130.156 393.453 130.505 392.938 130.766C392.427 131.026 391.885 131.156 391.312 131.156C390.161 131.156 389.245 130.773 388.562 130.008C387.885 129.237 387.547 128.185 387.547 126.852V126.609C387.547 125.786 387.698 125.055 388 124.414C388.302 123.773 388.734 123.276 389.297 122.922C389.865 122.568 390.534 122.391 391.305 122.391C392.253 122.391 393.039 122.674 393.664 123.242C394.294 123.81 394.63 124.547 394.672 125.453H393.305C393.263 124.906 393.055 124.458 392.68 124.109C392.31 123.755 391.852 123.578 391.305 123.578C390.57 123.578 390 123.844 389.594 124.375C389.193 124.901 388.992 125.664 388.992 126.664V126.938C388.992 127.911 389.193 128.661 389.594 129.188C389.995 129.714 390.568 129.977 391.312 129.977ZM395.914 126.695C395.914 125.867 396.076 125.122 396.398 124.461C396.727 123.799 397.18 123.289 397.758 122.93C398.341 122.57 399.005 122.391 399.75 122.391C400.901 122.391 401.831 122.789 402.539 123.586C403.253 124.383 403.609 125.443 403.609 126.766V126.867C403.609 127.69 403.451 128.43 403.133 129.086C402.82 129.737 402.37 130.245 401.781 130.609C401.198 130.974 400.526 131.156 399.766 131.156C398.62 131.156 397.69 130.758 396.977 129.961C396.268 129.164 395.914 128.109 395.914 126.797V126.695ZM397.367 126.867C397.367 127.805 397.583 128.557 398.016 129.125C398.453 129.693 399.036 129.977 399.766 129.977C400.5 129.977 401.083 129.69 401.516 129.117C401.948 128.539 402.164 127.732 402.164 126.695C402.164 125.768 401.943 125.018 401.5 124.445C401.062 123.867 400.479 123.578 399.75 123.578C399.036 123.578 398.461 123.862 398.023 124.43C397.586 124.997 397.367 125.81 397.367 126.867ZM406.789 122.547L406.836 123.609C407.482 122.797 408.326 122.391 409.367 122.391C411.154 122.391 412.055 123.398 412.07 125.414V131H410.625V125.406C410.62 124.797 410.479 124.346 410.203 124.055C409.932 123.763 409.508 123.617 408.93 123.617C408.461 123.617 408.049 123.742 407.695 123.992C407.341 124.242 407.065 124.57 406.867 124.977V131H405.422V122.547H406.789ZM417.039 129.039L419.133 122.547H420.609L417.578 131H416.477L413.414 122.547H414.891L417.039 129.039ZM425.398 131.156C424.253 131.156 423.32 130.781 422.602 130.031C421.883 129.276 421.523 128.268 421.523 127.008V126.742C421.523 125.904 421.682 125.156 422 124.5C422.323 123.839 422.771 123.323 423.344 122.953C423.922 122.578 424.547 122.391 425.219 122.391C426.318 122.391 427.172 122.753 427.781 123.477C428.391 124.201 428.695 125.237 428.695 126.586V127.188H422.969C422.99 128.021 423.232 128.695 423.695 129.211C424.164 129.721 424.758 129.977 425.477 129.977C425.987 129.977 426.419 129.872 426.773 129.664C427.128 129.456 427.438 129.18 427.703 128.836L428.586 129.523C427.878 130.612 426.815 131.156 425.398 131.156ZM425.219 123.578C424.635 123.578 424.146 123.792 423.75 124.219C423.354 124.641 423.109 125.234 423.016 126H427.25V125.891C427.208 125.156 427.01 124.589 426.656 124.188C426.302 123.781 425.823 123.578 425.219 123.578ZM434.461 123.844C434.242 123.807 434.005 123.789 433.75 123.789C432.802 123.789 432.159 124.193 431.82 125V131H430.375V122.547H431.781L431.805 123.523C432.279 122.768 432.951 122.391 433.82 122.391C434.102 122.391 434.315 122.427 434.461 122.5V123.844ZM438.148 120.5V122.547H439.727V123.664H438.148V128.906C438.148 129.245 438.219 129.5 438.359 129.672C438.5 129.839 438.74 129.922 439.078 129.922C439.245 129.922 439.474 129.891 439.766 129.828V131C439.385 131.104 439.016 131.156 438.656 131.156C438.01 131.156 437.523 130.961 437.195 130.57C436.867 130.18 436.703 129.625 436.703 128.906V123.664H435.164V122.547H436.703V120.5H438.148ZM444.93 131.156C443.784 131.156 442.852 130.781 442.133 130.031C441.414 129.276 441.055 128.268 441.055 127.008V126.742C441.055 125.904 441.214 125.156 441.531 124.5C441.854 123.839 442.302 123.323 442.875 122.953C443.453 122.578 444.078 122.391 444.75 122.391C445.849 122.391 446.703 122.753 447.312 123.477C447.922 124.201 448.227 125.237 448.227 126.586V127.188H442.5C442.521 128.021 442.763 128.695 443.227 129.211C443.695 129.721 444.289 129.977 445.008 129.977C445.518 129.977 445.951 129.872 446.305 129.664C446.659 129.456 446.969 129.18 447.234 128.836L448.117 129.523C447.409 130.612 446.346 131.156 444.93 131.156ZM444.75 123.578C444.167 123.578 443.677 123.792 443.281 124.219C442.885 124.641 442.641 125.234 442.547 126H446.781V125.891C446.74 125.156 446.542 124.589 446.188 124.188C445.833 123.781 445.354 123.578 444.75 123.578ZM449.555 126.703C449.555 125.406 449.862 124.365 450.477 123.578C451.091 122.786 451.896 122.391 452.891 122.391C453.88 122.391 454.664 122.729 455.242 123.406V119H456.688V131H455.359L455.289 130.094C454.711 130.802 453.906 131.156 452.875 131.156C451.896 131.156 451.096 130.755 450.477 129.953C449.862 129.151 449.555 128.104 449.555 126.812V126.703ZM451 126.867C451 127.826 451.198 128.576 451.594 129.117C451.99 129.659 452.536 129.93 453.234 129.93C454.151 129.93 454.82 129.518 455.242 128.695V124.812C454.81 124.016 454.146 123.617 453.25 123.617C452.542 123.617 451.99 123.891 451.594 124.438C451.198 124.984 451 125.794 451 126.867Z" fill="#181818"/>
<circle cx="88" cy="69" r="32" fill="#FFD12D"/>
<path fill-rule="evenodd" clip-rule="evenodd" d="M98.69 57.4623L101.015 57.0421L100.395 59.248L100.392 59.2588C99.3208 63.2417 97.074 66.8402 93.9487 69.6553L93.9361 69.6667L93.9239 69.6784C93.7565 69.8398 93.7155 69.8755 93.6494 69.918L93.6102 69.9433L88.0925 74.2648C87.9962 74.3176 87.91 74.3855 87.8368 74.4651L87.4419 74.7744L81.6587 68.6927L86.2738 63.7822C86.3748 63.7089 86.4622 63.6166 86.5304 63.5093L86.6872 63.3424L86.693 63.336C87.0403 62.9534 87.3628 62.6462 87.7152 62.3914L87.7403 62.3733L87.7642 62.3536C90.8884 59.7863 94.6278 58.1066 98.6794 57.4639L98.69 57.4623ZM85.3061 61.8892C85.6735 61.4927 86.0643 61.1204 86.5177 60.7894C89.9118 58.0072 93.9696 56.188 98.3553 55.4903L100.922 55.0264L100.932 55.0249C102.276 54.8088 103.379 56.0266 103.016 57.3147L103.015 57.3157L102.322 59.7837C101.147 64.1464 98.6925 68.0698 95.3 71.1298L95.2926 71.137C95.1916 71.2345 95.0812 71.341 94.9443 71.4484C95.2495 73.557 94.7055 76.1008 93.2743 78.4013C92.3523 79.9004 91.1315 81.1987 89.8172 82.0625L88.459 82.9552L87.7838 77.0471L87.2447 77.4693L78.9065 68.7008L79.1556 68.4357L73.5022 67.3458L74.5964 66.0429C75.6196 64.8243 77.0318 63.8159 78.6825 63.0474C80.9164 61.9962 83.2939 61.6008 85.3061 61.8892ZM83.5015 63.8117C82.2655 63.8815 80.8909 64.2183 79.5324 64.8579L79.5284 64.8597C78.7556 65.2194 78.0668 65.6279 77.4717 66.0743L80.7762 66.7114L83.5015 63.8117ZM89.6314 75.6L90.053 79.2887C90.6076 78.7314 91.1272 78.075 91.572 77.3515L91.5749 77.3468C92.5049 75.8526 92.955 74.2978 93.0182 72.9473L89.6314 75.6ZM81.5399 75.371C80.5859 74.3777 78.9964 74.3238 77.9372 75.2314C77.7446 75.3965 77.429 75.8534 77.0443 76.6192C76.6818 77.3409 76.3192 78.2088 75.9938 79.058C75.7787 79.6193 75.5827 80.1649 75.4167 80.6438C75.9375 80.5213 76.5369 80.3739 77.1562 80.209C78.0623 79.9676 78.9952 79.6926 79.7809 79.4071C80.602 79.1088 81.1243 78.8462 81.3363 78.6684C82.385 77.7252 82.4502 76.3187 81.5399 75.371ZM72.9605 81.7073C72.9605 81.7073 72.9605 81.7076 73.9167 82.0003L72.9605 81.7073ZM74.1153 82.9803L74.136 82.9761L74.1941 82.9642C74.2446 82.9537 74.3182 82.9384 74.412 82.9185C74.5997 82.8787 74.8685 82.8206 75.1952 82.747C75.8478 82.6002 76.7353 82.3908 77.671 82.1415C78.6036 81.8931 79.5997 81.6009 80.4638 81.2869C81.2837 80.989 82.1297 80.6224 82.6443 80.1815L82.652 80.1749L82.6596 80.1681C84.4912 78.5333 84.7441 75.8198 82.9823 73.9856C81.2619 72.1944 78.4651 72.1453 76.6359 73.7127C76.1064 74.1664 75.6397 74.9599 75.2571 75.7216C74.8523 76.5274 74.4628 77.4642 74.1262 78.3424C73.7884 79.2239 73.4976 80.0636 73.2915 80.6817C73.1883 80.9912 73.106 81.2462 73.0493 81.4245C73.0209 81.5136 72.9989 81.5836 72.984 81.6317L72.9668 81.6871L72.9605 81.7073L72.469 83.3131L74.1153 82.9803ZM73.9167 82.0003L74.1153 82.9803C74.1153 82.9803 74.1148 82.9804 73.9167 82.0003Z" fill="white"/>
<circle cx="405" cy="253" r="32" fill="#FC5050"/>
<circle cx="405" cy="253" r="15" stroke="white" stroke-width="2"/>
<path d="M405 244V252.303L409 256" stroke="white" stroke-width="2" stroke-miterlimit="10" stroke-linecap="round"/>
<circle cx="405" cy="69" r="32" fill="#93E6CF"/>
<path fill-rule="evenodd" clip-rule="evenodd" d="M405.494 53.7858C406.046 53.7858 406.494 54.2335 406.494 54.7858V58.2546C408.093 58.4265 409.557 59.0054 410.693 59.8807C412.064 60.9367 413 62.4667 413 64.2361C413 64.7884 412.552 65.2361 412 65.2361C411.448 65.2361 411 64.7884 411 64.2361C411 63.2169 410.464 62.2294 409.472 61.465C408.479 60.6998 407.071 60.2011 405.493 60.2011C403.915 60.2011 402.507 60.6998 401.514 61.465C400.522 62.2294 399.986 63.2169 399.986 64.2361C399.986 66.2863 401.811 68.2711 405.493 68.2711C407.793 68.2711 409.666 68.8781 410.984 69.9741C412.315 71.0813 413 72.6258 413 74.3062C413 76.0756 412.064 77.6055 410.693 78.6615C409.557 79.5369 408.093 80.1158 406.494 80.2877V83.214C406.494 83.7662 406.046 84.214 405.494 84.214C404.942 84.214 404.494 83.7662 404.494 83.214V80.288C402.894 80.1163 401.43 79.5373 400.293 78.6615C398.923 77.6055 397.986 76.0756 397.986 74.3062C397.986 73.7539 398.434 73.3062 398.986 73.3062C399.539 73.3062 399.986 73.7539 399.986 74.3062C399.986 75.3254 400.522 76.3129 401.514 77.0773C402.507 77.8424 403.915 78.3412 405.493 78.3412C407.071 78.3412 408.479 77.8424 409.472 77.0773C410.464 76.3129 411 75.3254 411 74.3062C411 73.1979 410.562 72.2249 409.705 71.5117C408.834 70.7874 407.454 70.2711 405.493 70.2711C401.12 70.2711 397.986 67.7632 397.986 64.2361C397.986 62.4667 398.923 60.9367 400.293 59.8807C401.43 59.005 402.894 58.426 404.494 58.2543V54.7858C404.494 54.2335 404.942 53.7858 405.494 53.7858Z" fill="white"/>
<circle cx="88" cy="253" r="32" fill="#0084FF"/>
<path fill-rule="evenodd" clip-rule="evenodd" d="M84.8864 238.72C85.0625 238.197 84.781 237.629 84.2575 237.453L75.7275 234.583C75.2041 234.407 74.6369 234.688 74.4608 235.212C74.2847 235.735 74.5662 236.302 75.0897 236.479L81.1733 238.526C79.5457 239.295 78.0693 240.329 76.8 241.574C73.839 244.477 72 248.524 72 253C72 261.837 79.1634 269 88 269C96.8366 269 104 261.837 104 253C104 248.605 102.226 244.622 99.3581 241.731C97.4248 239.782 94.9921 238.328 92.2661 237.575C91.7337 237.428 91.183 237.741 91.036 238.273C90.8891 238.806 91.2016 239.356 91.7339 239.503C94.1159 240.161 96.2448 241.433 97.9384 243.14C100.45 245.671 102 249.154 102 253C102 260.732 95.732 267 88 267C80.268 267 74 260.732 74 253C74 249.084 75.607 245.544 78.2 243.002C79.375 241.85 80.7513 240.904 82.2708 240.222L80.1205 246.612C79.9444 247.136 80.2259 247.703 80.7494 247.879C81.2728 248.055 81.8399 247.773 82.0161 247.25L84.8864 238.72Z" fill="white"/>
<path d="M280.382 161.249H226.618C224.091 161.249 222 158.891 222 156.041V131.959C222 129.109 224.091 126.751 226.618 126.751H280.382C282.909 126.751 285 129.109 285 131.959V156.041C285 158.891 282.996 161.249 280.382 161.249Z" fill="white" stroke="#181818" stroke-width="3" stroke-miterlimit="10" stroke-linecap="round"/>
<path d="M280.382 196H226.618C224.091 196 222 193.641 222 190.792V166.71C222 163.86 224.091 161.502 226.618 161.502H280.382C282.909 161.502 285 163.86 285 166.71V190.792C285 193.641 282.996 196 280.382 196Z" fill="white" stroke="#181818" stroke-width="3" stroke-miterlimit="10" stroke-linecap="round"/>
<path d="M270.382 161.249H216.618C214.091 161.249 212 158.891 212 156.041V131.959C212 129.109 214.091 126.751 216.618 126.751H270.382C272.909 126.751 275 129.109 275 131.959V156.041C275 158.891 272.996 161.249 270.382 161.249Z" fill="white" stroke="#181818" stroke-width="3" stroke-miterlimit="10" stroke-linecap="round"/>
<path d="M270.382 196H216.618C214.091 196 212 193.641 212 190.792V166.71C212 163.86 214.091 161.502 216.618 161.502H270.382C272.909 161.502 275 163.86 275 166.71V190.792C275 193.641 272.996 196 270.382 196Z" fill="white" stroke="#181818" stroke-width="3" stroke-miterlimit="10" stroke-linecap="round"/>
<path d="M228.6 172.423L223.7 183.643" stroke="#181818" stroke-width="3" stroke-miterlimit="10" stroke-linecap="round"/>
<path d="M228.6 137.672L223.7 148.892" stroke="#181818" stroke-width="3" stroke-miterlimit="10" stroke-linecap="round"/>
<path d="M237.6 172.423L232.7 183.643" stroke="#181818" stroke-width="3" stroke-miterlimit="10" stroke-linecap="round"/>
<path d="M237.6 137.672L232.7 148.892" stroke="#181818" stroke-width="3" stroke-miterlimit="10" stroke-linecap="round"/>
<path d="M262 145.615C263.105 145.615 264 144.726 264 143.63C264 142.533 263.105 141.644 262 141.644C260.895 141.644 260 142.533 260 143.63C260 144.726 260.895 145.615 262 145.615Z" fill="#181818"/>
<path d="M262 180.366C263.105 180.366 264 179.477 264 178.381C264 177.284 263.105 176.395 262 176.395C260.895 176.395 260 177.284 260 178.381C260 179.477 260.895 180.366 262 180.366Z" fill="#181818"/>
<path d="M27 169C27 173.418 23.4183 177 19 177C14.5817 177 11 173.418 11 169C11 164.582 14.5817 161 19 161C23.4183 161 27 164.582 27 169Z" fill="#93E6CF"/>
<path d="M261.452 386C261.297 385.76 261.162 385.619 261.104 385.459C260.369 383.416 259.654 381.373 258.938 379.33C258.725 378.729 258.513 378.108 258.319 377.487C258.145 376.946 257.875 376.485 257.333 376.285C256.405 375.945 255.497 375.604 254.568 375.243C253.505 374.843 252.461 374.422 251.417 374.022C250.779 373.781 250.141 373.581 249.503 373.32C249.309 373.24 249.174 373.04 249 372.88C249.174 372.74 249.309 372.519 249.503 372.459C250.566 372.039 251.649 371.638 252.712 371.237C253.698 370.857 254.665 370.496 255.651 370.116C256.193 369.915 256.734 369.715 257.295 369.515C257.759 369.334 258.068 369.014 258.242 368.533C258.571 367.592 258.899 366.65 259.228 365.729C259.77 364.227 260.311 362.704 260.852 361.202C260.949 360.921 260.988 360.621 261.123 360.341C261.2 360.18 261.374 360 261.51 360C261.645 360 261.819 360.2 261.877 360.361C262.612 362.404 263.327 364.447 264.062 366.49C264.275 367.111 264.487 367.752 264.7 368.373C264.874 368.934 265.164 369.334 265.725 369.535C267.117 370.035 268.509 370.556 269.901 371.097C270.887 371.478 271.873 371.878 272.879 372.259C273.13 372.359 273.42 372.399 273.652 372.519C273.807 372.599 274 372.76 274 372.9C274 373.02 273.807 373.24 273.671 373.28C271.235 374.242 268.818 375.143 266.401 376.065C266.305 376.105 266.189 376.145 266.073 376.165C265.261 376.345 264.835 376.846 264.584 377.687C264.275 378.769 263.83 379.81 263.462 380.872C263.114 381.874 262.747 382.855 262.399 383.857C262.206 384.418 262.032 384.998 261.819 385.559C261.8 385.68 261.645 385.8 261.452 386Z" fill="#FFB9F8"/>
</svg>
