<svg width="488" height="360" viewBox="0 0 488 360" fill="none" xmlns="http://www.w3.org/2000/svg">
<rect width="488" height="360" fill="white"/>
<path d="M172.452 97C172.297 96.7596 172.162 96.6194 172.104 96.4592C171.369 94.416 170.654 92.3729 169.938 90.3297C169.725 89.7288 169.513 89.1079 169.319 88.4869C169.145 87.9461 168.875 87.4854 168.333 87.2851C167.405 86.9445 166.497 86.604 165.568 86.2435C164.505 85.8428 163.461 85.4222 162.417 85.0216C161.779 84.7812 161.141 84.5809 160.503 84.3205C160.309 84.2404 160.174 84.0401 160 83.8798C160.174 83.7396 160.309 83.5193 160.503 83.4592C161.566 83.0385 162.649 82.6379 163.712 82.2373C164.698 81.8567 165.665 81.4961 166.651 81.1156C167.193 80.9153 167.734 80.7149 168.295 80.5146C168.759 80.3344 169.068 80.0139 169.242 79.5331C169.571 78.5917 169.899 77.6502 170.228 76.7288C170.77 75.2265 171.311 73.7042 171.852 72.2018C171.949 71.9214 171.988 71.621 172.123 71.3405C172.2 71.1803 172.374 71 172.51 71C172.645 71 172.819 71.2003 172.877 71.3606C173.612 73.4037 174.327 75.4468 175.062 77.49C175.275 78.1109 175.487 78.7519 175.7 79.3729C175.874 79.9337 176.164 80.3344 176.725 80.5347C178.117 81.0354 179.509 81.5562 180.901 82.0971C181.887 82.4777 182.873 82.8783 183.879 83.2589C184.13 83.359 184.42 83.3991 184.652 83.5193C184.807 83.5994 185 83.7596 185 83.8998C185 84.02 184.807 84.2404 184.671 84.2804C182.235 85.2419 179.818 86.1433 177.401 87.0647C177.305 87.1048 177.189 87.1448 177.073 87.1649C176.261 87.3451 175.835 87.8459 175.584 88.6872C175.275 89.7689 174.83 90.8105 174.462 91.8721C174.114 92.8736 173.747 93.8552 173.399 94.8567C173.206 95.4176 173.032 95.9985 172.819 96.5593C172.8 96.6795 172.645 96.7997 172.452 97Z" fill="#FFB9F8"/>
<path d="M463 22C463 26.4183 459.418 30 455 30C450.582 30 447 26.4183 447 22C447 17.5817 450.582 14 455 14C459.418 14 463 17.5817 463 22Z" fill="#FFD12D"/>
<path d="M86.3817 166.746H32.6183C30.0913 166.746 28 164.37 28 161.5V137.246C28 134.375 30.0913 132 32.6183 132H86.3817C88.9087 132 91 134.375 91 137.246V161.5C91 164.37 88.9958 166.746 86.3817 166.746Z" fill="white" stroke="#181818" stroke-width="3" stroke-miterlimit="10" stroke-linecap="round"/>
<path d="M86.3817 201.746H32.6183C30.0913 201.746 28 199.37 28 196.5V172.246C28 169.375 30.0913 167 32.6183 167H86.3817C88.9087 167 91 169.375 91 172.246V196.5C91 199.37 88.9958 201.746 86.3817 201.746Z" fill="white" stroke="#181818" stroke-width="3" stroke-miterlimit="10" stroke-linecap="round"/>
<path d="M76.3817 166.746H22.6183C20.0913 166.746 18 164.37 18 161.5V137.246C18 134.375 20.0913 132 22.6183 132H76.3817C78.9087 132 81 134.375 81 137.246V161.5C81 164.37 78.9958 166.746 76.3817 166.746Z" fill="white" stroke="#181818" stroke-width="3" stroke-miterlimit="10" stroke-linecap="round"/>
<path d="M76.3817 201.746H22.6183C20.0913 201.746 18 199.37 18 196.5V172.246C18 169.375 20.0913 167 22.6183 167H76.3817C78.9087 167 81 169.375 81 172.246V196.5C81 199.37 78.9958 201.746 76.3817 201.746Z" fill="white" stroke="#181818" stroke-width="3" stroke-miterlimit="10" stroke-linecap="round"/>
<path d="M34.5999 178L29.7 189.3" stroke="#181818" stroke-width="3" stroke-miterlimit="10" stroke-linecap="round"/>
<path d="M34.5999 143L29.7 154.3" stroke="#181818" stroke-width="3" stroke-miterlimit="10" stroke-linecap="round"/>
<path d="M43.5999 178L38.7 189.3" stroke="#181818" stroke-width="3" stroke-miterlimit="10" stroke-linecap="round"/>
<path d="M43.5999 143L38.7 154.3" stroke="#181818" stroke-width="3" stroke-miterlimit="10" stroke-linecap="round"/>
<path d="M68 151C69.1046 151 70 150.105 70 149C70 147.895 69.1046 147 68 147C66.8954 147 66 147.895 66 149C66 150.105 66.8954 151 68 151Z" fill="#181818"/>
<path d="M68 186C69.1046 186 70 185.105 70 184C70 182.895 69.1046 182 68 182C66.8954 182 66 182.895 66 184C66 185.105 66.8954 186 68 186Z" fill="#181818"/>
<path d="M86 228C98.1503 228 108 218.15 108 206C108 193.85 98.1503 184 86 184C73.8497 184 64 193.85 64 206C64 218.15 73.8497 228 86 228Z" fill="#181818"/>
<path d="M110.5 202C110.5 213.322 101.322 222.5 90 222.5C78.6782 222.5 69.5 213.322 69.5 202C69.5 190.678 78.6782 181.5 90 181.5C101.322 181.5 110.5 190.678 110.5 202Z" fill="white" stroke="#181818" stroke-width="3"/>
<path d="M95.5275 200.625C95.5534 203.652 97.9732 204.659 98 204.672C97.9795 204.743 97.6134 206.107 96.7252 207.517C95.9573 208.735 95.1604 209.949 93.9051 209.974C92.6716 209.999 92.275 209.18 90.8647 209.18C89.4549 209.18 89.0142 209.949 87.8466 209.999C86.6349 210.048 85.7122 208.681 84.938 207.467C83.356 204.984 82.147 200.451 83.7703 197.391C84.5768 195.871 86.0179 194.909 87.5822 194.884C88.7721 194.859 89.8952 195.753 90.6226 195.753C91.3495 195.753 92.7143 194.678 94.1491 194.836C94.7497 194.863 96.4358 195.099 97.5184 196.82C97.4312 196.879 95.5066 198.095 95.5275 200.625V200.625ZM93.2093 193.193C93.8526 192.348 94.2856 191.171 94.1675 190C93.2402 190.04 92.1189 190.671 91.4538 191.516C90.8577 192.264 90.3357 193.462 90.4765 194.609C91.5101 194.696 92.566 194.039 93.2093 193.193" fill="#181818"/>
<path d="M265.382 166.746H211.618C209.091 166.746 207 164.37 207 161.5V137.246C207 134.375 209.091 132 211.618 132H265.382C267.909 132 270 134.375 270 137.246V161.5C270 164.37 267.996 166.746 265.382 166.746Z" fill="white" stroke="#0084FF" stroke-width="3" stroke-miterlimit="10" stroke-linecap="round"/>
<path d="M265.382 201.746H211.618C209.091 201.746 207 199.37 207 196.5V172.246C207 169.375 209.091 167 211.618 167H265.382C267.909 167 270 169.375 270 172.246V196.5C270 199.37 267.996 201.746 265.382 201.746Z" fill="white" stroke="#0084FF" stroke-width="3" stroke-miterlimit="10" stroke-linecap="round"/>
<path d="M255.382 166.746H201.618C199.091 166.746 197 164.37 197 161.5V137.246C197 134.375 199.091 132 201.618 132H255.382C257.909 132 260 134.375 260 137.246V161.5C260 164.37 257.996 166.746 255.382 166.746Z" fill="white" stroke="#0084FF" stroke-width="3" stroke-miterlimit="10" stroke-linecap="round"/>
<path d="M255.382 201.746H201.618C199.091 201.746 197 199.37 197 196.5V172.246C197 169.375 199.091 167 201.618 167H255.382C257.909 167 260 169.375 260 172.246V196.5C260 199.37 257.996 201.746 255.382 201.746Z" fill="white" stroke="#0084FF" stroke-width="3" stroke-miterlimit="10" stroke-linecap="round"/>
<path d="M213.6 178L208.7 189.3" stroke="#0084FF" stroke-width="3" stroke-miterlimit="10" stroke-linecap="round"/>
<path d="M213.6 143L208.7 154.3" stroke="#0084FF" stroke-width="3" stroke-miterlimit="10" stroke-linecap="round"/>
<path d="M222.6 178L217.7 189.3" stroke="#0084FF" stroke-width="3" stroke-miterlimit="10" stroke-linecap="round"/>
<path d="M222.6 143L217.7 154.3" stroke="#0084FF" stroke-width="3" stroke-miterlimit="10" stroke-linecap="round"/>
<path d="M247.5 149C247.5 149.276 247.276 149.5 247 149.5C246.724 149.5 246.5 149.276 246.5 149C246.5 148.724 246.724 148.5 247 148.5C247.276 148.5 247.5 148.724 247.5 149Z" fill="#0084FF" stroke="#0084FF" stroke-width="3"/>
<path d="M247.5 184C247.5 184.276 247.276 184.5 247 184.5C246.724 184.5 246.5 184.276 246.5 184C246.5 183.724 246.724 183.5 247 183.5C247.276 183.5 247.5 183.724 247.5 184Z" fill="#0084FF" stroke="#0084FF" stroke-width="3"/>
<path d="M285.5 206C285.5 217.322 276.322 226.5 265 226.5C253.678 226.5 244.5 217.322 244.5 206C244.5 194.678 253.678 185.5 265 185.5C276.322 185.5 285.5 194.678 285.5 206Z" fill="#0084FF" stroke="#0084FF" stroke-width="3"/>
<path d="M289.5 202C289.5 213.322 280.322 222.5 269 222.5C257.678 222.5 248.5 213.322 248.5 202C248.5 190.678 257.678 181.5 269 181.5C280.322 181.5 289.5 190.678 289.5 202Z" fill="white" stroke="#0084FF" stroke-width="3"/>
<path fill-rule="evenodd" clip-rule="evenodd" d="M276.171 208.97C274.354 210.839 271.812 212 269 212C266.149 212 263.576 210.807 261.755 208.893L268.99 201.925L276.171 208.97ZM277.934 206.497L270.744 199.443C269.778 198.496 268.234 198.489 267.259 199.427L260.018 206.401C259.366 205.073 259 203.579 259 202C259 196.477 263.477 192 269 192C274.523 192 279 196.477 279 202C279 203.618 278.616 205.145 277.934 206.497ZM282 202C282 209.18 276.18 215 269 215C261.82 215 256 209.18 256 202C256 194.82 261.82 189 269 189C276.18 189 282 194.82 282 202Z" fill="#0085FF"/>
<path d="M444.382 166.746H390.618C388.091 166.746 386 164.37 386 161.5V137.246C386 134.375 388.091 132 390.618 132H444.382C446.909 132 449 134.375 449 137.246V161.5C449 164.37 446.996 166.746 444.382 166.746Z" fill="white" stroke="#181818" stroke-width="3" stroke-miterlimit="10" stroke-linecap="round"/>
<path d="M444.382 201.746H390.618C388.091 201.746 386 199.37 386 196.5V172.246C386 169.375 388.091 167 390.618 167H444.382C446.909 167 449 169.375 449 172.246V196.5C449 199.37 446.996 201.746 444.382 201.746Z" fill="white" stroke="#181818" stroke-width="3" stroke-miterlimit="10" stroke-linecap="round"/>
<path d="M434.382 166.746H380.618C378.091 166.746 376 164.37 376 161.5V137.246C376 134.375 378.091 132 380.618 132H434.382C436.909 132 439 134.375 439 137.246V161.5C439 164.37 436.996 166.746 434.382 166.746Z" fill="white" stroke="#181818" stroke-width="3" stroke-miterlimit="10" stroke-linecap="round"/>
<path d="M434.382 201.746H380.618C378.091 201.746 376 199.37 376 196.5V172.246C376 169.375 378.091 167 380.618 167H434.382C436.909 167 439 169.375 439 172.246V196.5C439 199.37 436.996 201.746 434.382 201.746Z" fill="white" stroke="#181818" stroke-width="3" stroke-miterlimit="10" stroke-linecap="round"/>
<path d="M392.6 178L387.7 189.3" stroke="#181818" stroke-width="3" stroke-miterlimit="10" stroke-linecap="round"/>
<path d="M392.6 143L387.7 154.3" stroke="#181818" stroke-width="3" stroke-miterlimit="10" stroke-linecap="round"/>
<path d="M401.6 178L396.7 189.3" stroke="#181818" stroke-width="3" stroke-miterlimit="10" stroke-linecap="round"/>
<path d="M401.6 143L396.7 154.3" stroke="#181818" stroke-width="3" stroke-miterlimit="10" stroke-linecap="round"/>
<path d="M426 151C427.105 151 428 150.105 428 149C428 147.895 427.105 147 426 147C424.895 147 424 147.895 424 149C424 150.105 424.895 151 426 151Z" fill="#181818"/>
<path d="M426 186C427.105 186 428 185.105 428 184C428 182.895 427.105 182 426 182C424.895 182 424 182.895 424 184C424 185.105 424.895 186 426 186Z" fill="#181818"/>
<path d="M444 228C456.15 228 466 218.15 466 206C466 193.85 456.15 184 444 184C431.85 184 422 193.85 422 206C422 218.15 431.85 228 444 228Z" fill="#181818"/>
<path d="M468.5 202C468.5 213.322 459.322 222.5 448 222.5C436.678 222.5 427.5 213.322 427.5 202C427.5 190.678 436.678 181.5 448 181.5C459.322 181.5 468.5 190.678 468.5 202Z" fill="white" stroke="#181818" stroke-width="3"/>
<path d="M439 202.5L446.5 209.5L457 196" stroke="black" stroke-width="3" stroke-linecap="round" stroke-linejoin="round"/>
<path d="M341.061 170.061C341.646 169.475 341.646 168.525 341.061 167.939L331.515 158.393C330.929 157.808 329.979 157.808 329.393 158.393C328.808 158.979 328.808 159.929 329.393 160.515L337.879 169L329.393 177.485C328.808 178.071 328.808 179.021 329.393 179.607C329.979 180.192 330.929 180.192 331.515 179.607L341.061 170.061ZM306 170.5H340V167.5H306V170.5Z" fill="#181818"/>
<path d="M162.061 170.061C162.646 169.475 162.646 168.525 162.061 167.939L152.515 158.393C151.929 157.808 150.979 157.808 150.393 158.393C149.808 158.979 149.808 159.929 150.393 160.515L158.879 169L150.393 177.485C149.808 178.071 149.808 179.021 150.393 179.607C150.979 180.192 151.929 180.192 152.515 179.607L162.061 170.061ZM127 170.5H161V167.5H127V170.5Z" fill="#181818"/>
<path d="M443 297C443 301.418 439.418 305 435 305C430.582 305 427 301.418 427 297C427 292.582 430.582 289 435 289C439.418 289 443 292.582 443 297Z" fill="#93E6CF"/>
</svg>
