<svg width="32" height="32" viewBox="0 0 32 32" fill="none" xmlns="http://www.w3.org/2000/svg">
<path d="M23.1247 4.63254L17.8794 9.87777L18.5865 13.4133L22.1221 14.1204L27.3673 8.87518L27.3678 8.87496C28.017 10.4075 28.1723 12.1043 27.812 13.7292C27.4517 15.3542 26.5938 16.8263 25.3576 17.9408C24.1215 19.0553 22.5686 19.7566 20.9151 19.9472C19.2617 20.1378 17.59 19.8082 16.1327 19.0042L16.1328 19.0039L9.12207 27.1204C8.55935 27.6825 7.79645 27.9981 7.0011 27.9979C6.20575 27.9977 5.44303 27.6816 4.88063 27.1192C4.31823 26.5568 4.00218 25.7941 4.00195 24.9987C4.00173 24.2034 4.31735 23.4405 4.87943 22.8778L12.9958 15.8671L12.9957 15.8672C12.1917 14.4099 11.862 12.7381 12.0526 11.0847C12.2432 9.43128 12.9446 7.8784 14.059 6.64223C15.1735 5.40606 16.6457 4.54812 18.2706 4.18782C19.8955 3.82752 21.5923 3.9828 23.1249 4.63203L23.1247 4.63254Z" stroke="#990031" stroke-width="2" stroke-linecap="round" stroke-linejoin="round"/>
</svg>
