<svg width="500" height="302" viewBox="0 0 500 302" fill="none" xmlns="http://www.w3.org/2000/svg">
<path opacity="0.1" d="M217.535 230.554C218.981 225.214 216.645 220.765 213.308 216.649C210.972 213.868 206.856 214.09 203.964 215.425C203.853 215.425 202.74 215.759 201.961 216.093C201.517 215.759 200.849 215.425 200.515 215.203C197.957 213.2 195.51 210.976 192.617 209.418C187.278 206.637 181.271 205.97 175.264 205.747C164.029 205.414 149.568 206.526 140.113 213.312C129.545 220.876 125.207 235.114 120.869 246.683C118.088 254.136 120.646 256.917 121.091 265.371C112.192 272.046 115.195 279.054 118.088 281.167C118.421 281.946 118.755 282.613 119.2 283.281C121.647 287.396 129.1 286.507 132.549 283.614C139.445 288.62 141.336 292.18 147.9 292.513C150.903 292.736 152.349 293.403 155.352 293.96C160.358 294.849 166.699 293.848 171.816 293.07C179.491 291.957 182.272 288.398 188.39 284.616C190.838 283.726 193.174 282.613 195.287 280.945C202.073 277.051 207.078 271.489 210.527 264.036C212.529 259.698 213.975 255.249 214.531 250.576C214.865 248.24 214.865 246.016 214.643 243.568C214.531 242.345 214.309 237.562 213.419 236.56C213.308 236.449 213.308 236.449 213.197 236.338C213.642 236.115 214.086 235.782 214.42 235.448C216.089 234.336 217.09 232.556 217.535 230.554Z" fill="#DFEF6F"/>
<path opacity="0.1" d="M219.315 227.661C219.426 219.652 209.748 218.095 205.632 222.878C199.069 225.325 196.622 230.887 193.507 236.783C189.836 243.902 181.938 248.685 176.377 254.247C175.375 255.36 174.263 256.361 173.262 257.362C172.706 257.696 172.149 258.03 171.593 258.252C165.809 261.144 159.468 262.813 153.239 264.815C150.569 265.705 149.012 267.485 148.344 269.487C143.895 269.487 139.445 269.932 134.885 271.267C133.438 271.712 132.326 272.491 131.436 273.492C129.768 272.713 127.988 272.046 126.208 271.378C116.753 268.041 112.748 283.058 122.092 286.284C133.438 290.289 142.671 296.296 155.13 296.184C166.365 296.073 178.713 294.961 189.058 290.289C199.625 285.505 207.968 275.605 212.529 265.149C215.199 259.142 215.978 253.469 216.089 247.017C216.089 245.793 216.2 244.57 216.422 243.346C218.425 238.563 219.203 233.335 219.315 227.661Z" fill="#DFEF6F"/>
<path opacity="0.1" d="M218.202 227.105C217.869 223.1 215.199 222.767 211.083 223.657C202.629 225.659 201.072 235.559 200.182 242.79C200.07 243.791 199.959 244.792 199.848 245.793C196.177 247.462 192.84 249.686 189.948 252.801C186.499 256.583 183.941 261.033 180.604 264.926C173.596 273.158 162.138 277.719 151.57 278.831C149.679 279.053 148.233 279.943 147.121 281.167C139.112 280.277 131.102 278.942 123.316 276.829C115.751 274.715 110.19 287.174 132.771 285.172C143.895 292.402 147.899 293.737 162.027 294.404C174.819 294.961 186.61 293.181 195.621 283.392C202.184 276.161 208.858 266.15 210.638 256.361C210.638 256.361 210.638 256.249 210.749 256.249C213.753 250.799 213.197 242.456 211.75 236.338C211.194 233.334 218.425 230.108 218.202 227.105Z" fill="#DFEF6F"/>
<path opacity="0.1" d="M201.628 257.807C195.398 263.036 192.172 269.821 184.497 273.381C177.267 276.718 169.925 278.053 162.249 279.721C159.58 280.278 156.687 281.501 153.795 282.28C153.573 282.169 153.35 282.057 153.016 281.946C150.569 280.945 148.456 281.724 147.232 283.17C145.675 283.059 144.117 282.725 142.56 281.835C136.108 278.053 130.88 276.718 123.872 280.278C116.975 283.837 121.425 288.954 128.322 285.283C131.325 283.726 135.218 286.062 137.777 287.508C140.447 288.954 143.784 292.18 146.898 292.18C149.234 292.18 155.464 295.184 157.689 294.627C174.152 294.071 179.046 291.846 189.948 284.838C199.959 278.387 206.745 270.266 211.083 259.476C213.753 253.692 205.744 254.47 201.628 257.807Z" fill="#DFEF6F"/>
<path opacity="0.15" d="M221.873 198.962C216.2 194.957 208.08 192.51 201.183 193.956C200.738 193.289 200.182 192.732 199.625 191.954C197.401 189.173 193.507 193.066 195.732 195.847C195.955 196.07 196.066 196.292 196.288 196.515C194.842 198.406 195.287 200.964 198.068 203.523C202.518 207.305 206.522 212.199 212.64 212.755C214.531 212.867 216.979 212.755 218.758 211.754C222.429 211.977 225.989 211.309 228.102 208.528C231.551 203.968 224.877 201.075 221.873 198.962Z" fill="#52AEA2"/>
<path opacity="0.15" d="M225.544 205.747C218.091 204.524 205.744 206.526 200.849 199.296C198.847 196.403 194.064 199.184 196.066 202.077C198.068 204.969 200.515 206.749 203.296 207.972C203.408 208.973 203.964 209.975 205.187 210.308C211.083 212.311 219.426 212.422 225.433 211.087C228.103 210.531 228.325 206.192 225.544 205.747Z" fill="#52AEA2"/>
<path opacity="0.15" d="M224.209 204.635C221.317 205.302 217.424 204.412 214.976 202.744C212.529 201.187 210.638 199.184 207.635 198.517C204.186 197.738 202.74 203.078 206.189 203.856C209.637 204.635 212.084 208.083 215.533 209.196C218.759 210.308 222.429 210.753 225.767 209.974C229.104 209.196 227.658 203.856 224.209 204.635Z" fill="#52AEA2"/>
<path opacity="0.15" d="M221.984 204.969C217.757 205.747 213.419 205.859 209.081 205.97C205.521 206.081 205.521 211.532 209.081 211.532C213.864 211.421 218.647 211.198 223.431 210.308C226.879 209.641 225.433 204.301 221.984 204.969Z" fill="#52AEA2"/>
<path d="M224.654 210.086C197.178 219.764 194.175 189.952 194.175 189.952C194.175 189.952 198.736 194.624 213.308 195.291C228.103 195.959 228.77 209.085 228.77 209.085L242.341 223.101C238.225 219.764 231.44 208.973 216.868 220.987M200.627 277.608C204.075 273.714 206.856 269.487 208.858 264.926L208.97 264.815C212.974 256.027 214.087 246.238 211.862 237.228C211.639 236.116 212.084 235.115 213.085 234.558C217.98 231.555 219.537 224.992 216.534 220.097C213.53 215.203 206.967 213.645 202.073 216.649C201.183 217.205 199.959 217.205 199.069 216.538C191.95 210.531 182.828 207.082 173.151 206.637L173.039 206.749C163.362 206.304 153.239 208.751 144.117 214.424C134.996 220.097 128.21 227.995 124.206 236.783L124.094 236.894C120.09 245.682 118.978 255.471 121.202 264.481C121.425 265.594 120.98 266.595 119.979 267.151C115.084 270.155 113.527 276.718 116.53 281.612C119.534 286.507 126.097 288.064 130.991 285.061C131.881 284.504 133.105 284.504 133.995 285.172C141.114 291.179 150.236 294.627 159.913 295.072L160.025 294.961C166.81 295.295 173.929 294.182 180.715 291.401M141.25 229.5C143.75 227 147.455 223.991 149.346 222.878C162.917 214.535 179.38 215.648 189.948 224.547M134.662 239.342C135.441 237.673 136.22 236.116 137.221 234.558" stroke="#66636C" stroke-width="2" stroke-miterlimit="10"/>
<path opacity="0.15" d="M312.199 259.253C311.976 257.807 318.206 259.142 318.651 257.918C319.541 255.916 318.095 250.132 319.096 247.796C319.986 245.793 325.103 244.792 324.658 242.679C324.435 241.455 323.212 241.566 323.1 240.454C322.878 237.784 325.659 230.999 327.661 228.885C331.332 224.769 330.22 219.652 324.546 220.542C319.096 221.432 314.646 224.992 310.197 227.995C307.972 229.441 305.525 230.665 303.411 232.334C302.744 232.89 302.076 233.446 301.409 234.002C300.964 233.891 300.519 233.891 300.074 233.891C295.179 233.446 292.399 237.784 292.51 241.455C288.728 243.235 284.278 244.347 282.61 248.686C280.941 253.024 282.943 254.804 286.392 257.362C286.503 258.141 288.06 260.366 288.394 261.256C290.396 266.484 294.512 268.597 299.518 267.93C304.301 273.158 307.193 274.716 312.421 267.93C314.646 265.038 312.755 262.813 312.199 259.253Z" fill="#BD86C1"/>
<path opacity="0.15" d="M313.089 265.26C313.534 264.259 313.423 262.924 312.978 261.923C315.203 259.476 317.983 257.251 319.318 254.136C320.319 251.8 319.541 248.797 320.431 246.572C321.098 245.793 321.766 244.903 322.433 244.125C323.657 242.567 323.323 240.676 322.322 239.341C322.989 237.784 323.657 236.227 324.435 234.781C325.325 233.446 326.215 232.222 327.216 230.998C330.331 227.105 324.658 222.433 321.321 226.104C319.986 227.55 318.873 229.107 317.983 230.776C314.313 236.338 311.532 242.456 308.194 248.24C306.526 249.575 304.635 250.688 302.299 251.578C300.741 252.134 299.963 253.469 299.852 254.803C299.629 254.692 299.295 254.692 299.073 254.692C298.405 254.581 297.738 254.692 297.182 254.692C294.623 251.689 288.839 254.247 290.619 258.363C290.841 258.808 291.064 259.253 291.286 259.698C291.175 260.588 291.397 261.478 291.954 262.145C294.957 265.927 298.517 267.707 302.41 268.152C303.078 270.154 305.191 271.601 307.416 270.711C310.419 269.376 311.977 268.152 313.089 265.26Z" fill="#BD86C1"/>
<path opacity="0.15" d="M309.418 265.26C309.974 264.148 309.752 263.147 309.863 261.923V261.812C309.974 261.701 309.974 261.59 310.086 261.367C311.087 259.476 308.083 258.141 307.082 260.032C306.081 261.923 304.969 265.26 302.521 265.817C301.075 266.15 300.297 268.264 301.965 268.931C303.967 269.71 305.858 269.376 307.416 267.819C308.194 267.04 308.973 266.15 309.418 265.26Z" fill="#BD86C1"/>
<path opacity="0.15" d="M307.416 259.142C308.083 258.03 306.86 256.806 305.747 256.806C304.857 256.806 304.19 257.14 303.522 257.585C302.41 258.252 301.409 258.808 300.185 259.365C299.073 259.81 298.405 260.032 297.293 259.587C296.403 259.142 295.624 258.586 294.735 258.252C293.511 257.807 292.51 258.808 292.399 259.81C291.509 260.366 291.064 261.701 292.065 262.591C293.4 263.814 294.29 265.149 296.069 265.705C297.627 266.15 299.407 266.039 300.853 265.483C303.745 264.259 305.858 261.701 307.416 259.142Z" fill="#BD86C1"/>
<path opacity="0.15" d="M315.091 250.799C314.98 250.688 314.98 250.577 314.869 250.466C314.98 250.132 314.98 249.798 315.091 249.465C315.314 247.351 311.977 246.795 311.865 248.908C311.643 251.133 309.307 252.802 308.083 254.582C306.971 256.139 307.082 258.586 309.529 258.586C312.422 258.475 316.315 253.692 315.091 250.799Z" fill="#BD86C1"/>
<path opacity="0.15" d="M309.974 251.578C309.752 251.467 309.529 251.355 309.418 251.244C310.753 250.577 311.532 248.908 311.865 247.462C312.421 245.349 309.084 244.904 308.639 246.906C308.528 247.24 308.417 247.573 308.306 247.907C308.194 248.352 308.083 248.352 307.972 248.018C307.861 248.018 307.527 247.573 307.416 247.462C306.86 246.795 306.192 246.239 305.525 245.682C304.079 244.57 302.632 244.014 300.964 244.904C300.185 245.349 299.963 246.572 300.519 247.24C301.631 248.575 303.3 249.353 304.412 250.799C305.636 252.357 306.86 253.691 308.528 254.581C310.419 255.583 311.754 252.579 309.974 251.578Z" fill="#BD86C1"/>
<path opacity="0.15" d="M321.988 239.453C321.766 239.23 321.543 239.119 321.321 239.119C320.987 237.562 318.428 237.339 318.095 239.23C317.761 240.788 316.871 241.789 315.981 243.013C315.202 244.236 315.87 245.794 317.427 245.682C318.762 245.682 320.208 244.57 321.209 243.791C322.544 242.679 323.434 241.01 321.988 239.453Z" fill="#BD86C1"/>
<path opacity="0.15" d="M323.879 232.556C323.99 231.889 323.768 231.332 323.434 230.776C322.878 230.109 322.099 229.886 321.209 229.886C320.319 229.886 319.652 230.887 319.763 231.666C319.763 232.111 319.986 232.445 320.208 232.667C319.652 233.223 319.541 234.225 319.986 234.781C320.542 235.559 321.543 235.671 322.322 235.226C323.212 234.781 323.768 233.668 323.879 232.556Z" fill="#BD86C1"/>
<path opacity="0.15" d="M327.439 227.217C327.772 226.438 328.217 225.437 328.106 224.547C327.884 223.657 327.216 222.99 326.326 223.101C325.77 223.101 325.214 223.546 324.88 224.102C324.658 224.102 324.547 224.213 324.324 224.325C323.434 224.992 322.21 225.215 321.321 225.882C319.541 227.106 321.432 229.887 323.212 228.552C323.768 229.108 324.547 229.442 325.436 229.219C326.438 228.997 326.994 228.107 327.439 227.217Z" fill="#BD86C1"/>
<path opacity="0.15" d="M317.093 239.119C317.205 237.673 315.314 236.449 314.201 237.895C313.645 238.563 312.978 239.119 312.31 239.675C312.199 239.564 312.199 239.453 312.088 239.453C311.532 238.785 310.864 238.229 309.974 238.007C309.196 237.784 308.306 237.895 307.861 238.674C307.416 239.342 307.527 240.343 308.194 240.788C308.973 241.455 309.64 242.123 310.419 242.679C310.642 242.901 310.864 243.235 311.198 243.457C312.088 244.236 313.2 244.459 314.313 244.125C316.204 243.235 317.761 241.121 317.093 239.119Z" fill="#BD86C1"/>
<path opacity="0.15" d="M288.505 254.248C288.505 254.025 288.505 253.691 288.394 253.469C289.284 252.802 289.951 251.689 290.841 251.022C291.509 250.466 291.842 249.464 291.286 248.686C290.841 248.018 289.618 247.685 288.95 248.241C288.283 248.908 287.615 249.576 287.059 250.243C287.059 250.132 286.948 250.021 286.948 249.909C286.614 248.686 284.834 248.574 284.167 249.464C282.832 251.022 283.499 253.024 285.057 253.803C285.168 254.025 285.391 254.248 285.391 254.47C285.279 256.695 288.616 256.361 288.505 254.248Z" fill="#BD86C1"/>
<path opacity="0.15" d="M301.409 238.229C299.963 237.228 298.628 237.339 297.404 238.006C296.737 237.339 295.624 237.005 294.957 238.006C294.29 238.896 294.178 239.675 294.401 240.454C294.178 240.676 293.956 241.01 293.733 241.232C292.399 242.901 294.957 245.014 296.292 243.346L296.403 243.235C296.959 243.568 297.627 243.68 298.294 243.235C299.184 242.567 299.852 241.344 300.964 241.01C302.076 240.676 302.521 238.896 301.409 238.229Z" fill="#BD86C1"/>
<path opacity="0.15" d="M297.96 242.345C297.516 241.9 296.737 241.9 296.181 242.123C295.624 242.123 295.068 242.456 294.735 243.124C294.401 243.903 294.735 244.904 295.513 245.349C296.403 245.794 297.516 245.571 298.072 244.792C298.739 243.903 298.739 242.901 297.96 242.345Z" fill="#BD86C1"/>
<path opacity="0.15" d="M307.972 231.11C307.861 231.221 307.749 231.332 307.527 231.443C307.416 231.332 307.305 231.221 307.082 231.11C306.303 230.776 305.191 231.11 304.857 231.888C304.524 233.112 304.19 234.336 303.856 235.448C303.634 236.227 303.745 237.116 304.524 237.561C305.191 237.895 306.192 237.895 306.637 237.228C307.527 235.893 308.417 234.669 309.863 233.779C311.643 232.667 309.752 229.886 307.972 231.11Z" fill="#BD86C1"/>
<path opacity="0.15" d="M316.092 229.441C315.87 228.996 315.536 228.663 315.091 228.44C314.312 227.884 313.423 227.884 312.755 228.663C312.533 228.885 312.421 229.108 312.421 229.441C312.421 229.553 312.31 229.553 312.31 229.664C311.865 230.554 312.421 231.444 313.089 231.889C313.868 232.334 314.757 232.222 315.647 231.777C316.426 231.332 316.426 230.109 316.092 229.441Z" fill="#BD86C1"/>
<path opacity="0.15" d="M313.868 231.11C313.534 230.22 312.644 229.886 311.754 230.109C311.198 230.22 310.642 230.442 310.197 230.776C309.418 231.221 309.307 232.333 309.752 233.112C310.308 233.891 311.309 234.002 312.088 233.557C312.31 233.446 312.533 233.335 312.866 233.223C313.756 233.001 314.09 231.889 313.868 231.11Z" fill="#BD86C1"/>
<path d="M284.501 258.475C281.608 256.584 280.83 252.69 282.832 249.798C284.723 246.906 288.616 246.127 291.509 248.129M309.974 260.477C312.866 262.368 313.645 266.261 311.643 269.154C309.752 272.046 305.858 272.824 302.966 270.822M291.842 243.457C290.73 241.121 291.731 238.229 294.067 237.117C296.403 236.004 299.295 237.006 300.408 239.342M314.201 258.475C316.871 258.586 319.096 256.584 319.207 254.025C319.318 251.355 317.316 249.131 314.758 249.019M298.183 245.348C300.408 242.123 304.746 241.233 307.972 243.457C311.198 245.682 312.088 250.021 309.863 253.246M301.631 235.226C300.741 233.446 301.52 231.444 303.3 230.554C305.08 229.664 307.082 230.442 307.972 232.222M318.095 246.238C319.986 246.35 321.654 244.904 321.766 243.012C321.877 241.121 320.431 239.453 318.54 239.342M320.987 235.782C322.767 235.003 323.434 232.89 322.655 231.11C321.877 229.33 319.763 228.663 317.983 229.441L317.316 228.996C317.427 227.105 315.981 225.437 313.979 225.325C311.977 225.214 310.419 226.66 310.308 228.663M306.415 236.672C307.972 234.336 311.198 233.668 313.645 235.226C315.981 236.783 316.649 240.009 315.091 242.456M317.872 223.101C319.096 221.321 321.432 220.876 323.1 222.1C324.88 223.323 325.325 225.659 324.102 227.328M302.407 251.819C306.639 254.663 307.766 260.399 304.923 264.632C302.079 268.864 296.343 269.991 292.11 267.148C287.877 264.304 286.751 258.568 289.594 254.335C292.438 250.102 298.174 248.976 302.407 251.819Z" stroke="#66636C" stroke-width="2" stroke-miterlimit="10"/>
<path opacity="0.15" d="M278.16 297.964C277.493 294.516 274.6 292.291 271.041 290.845C268.816 289.065 265.924 287.953 262.809 287.174C256.135 285.506 249.238 284.06 242.23 283.615C243.676 282.28 244.9 280.722 246.012 278.943C246.791 278.164 247.569 277.385 248.237 276.607C248.793 276.05 249.46 275.494 250.017 274.938C250.462 274.604 251.018 274.271 251.463 274.048C253.91 272.824 259.361 268.152 261.029 265.928C266.035 259.253 270.596 259.809 269.928 251.244C269.706 248.241 266.591 247.017 264.366 248.797C263.476 249.464 262.698 250.354 261.919 251.133C259.694 252.69 257.692 254.47 255.801 256.472C251.796 256.361 248.57 260.811 246.791 263.925C246.012 265.149 245.345 266.595 244.566 268.152C241.896 269.821 239.783 271.935 237.78 274.271C233.331 277.051 229.104 279.944 225.989 284.616C225.767 284.949 225.655 285.172 225.544 285.506C224.543 286.952 224.765 289.288 226.545 290.178C232.218 293.181 239.56 292.514 246.346 292.625C255.69 296.296 264.589 300.968 274.823 301.969C277.159 302.303 278.494 299.855 278.16 297.964Z" fill="#52AEA2"/>
<path opacity="0.15" d="M243.676 250.243C243.12 246.35 242.007 243.013 239.894 239.787C238.67 233.224 237.335 225.103 230.995 221.655C226.656 219.319 222.652 225.882 226.99 228.329C227.213 228.44 227.546 228.663 227.769 228.885C227.324 229.441 227.101 230.22 227.213 230.999C227.658 234.67 229.437 235.893 229.66 239.675C229.771 242.456 231.773 243.569 232.663 246.35C233.331 248.352 233.998 254.359 235.667 254.248C236.112 260.366 235.333 265.038 236.223 271.378C236.668 274.716 241.785 275.161 243.231 272.38C246.791 265.483 244.677 257.251 243.676 250.243Z" fill="#52AEA2"/>
<path opacity="0.15" d="M264.478 207.527C260.473 212.756 256.135 218.985 253.799 225.214C252.575 228.329 252.019 231.555 251.129 234.67C250.239 237.673 248.904 240.343 248.57 243.457C247.347 245.46 246.012 247.24 245.789 249.909C245.456 254.136 252.13 254.136 252.464 249.909C252.575 248.908 253.354 247.685 254.132 246.572C254.466 246.238 254.689 245.905 254.911 245.46C255.467 244.681 255.912 244.014 256.135 243.346C257.469 240.009 258.248 236.449 259.583 233.001C259.806 232.445 259.917 232 260.139 231.444C260.807 230.109 261.474 228.774 262.253 227.439C264.478 223.434 267.259 219.652 267.926 214.98C267.926 214.758 267.926 214.535 267.926 214.313C268.705 213.201 269.595 212.088 270.373 211.087C272.709 207.639 267.036 204.19 264.478 207.527Z" fill="#52AEA2"/>
<path opacity="0.15" d="M255.245 217.761C255.245 217.316 255.134 216.76 255.022 216.315C255.467 212.867 255.245 209.418 255.134 205.97C255.022 201.409 255.467 196.848 255.356 192.287C255.134 185.502 254.021 179.05 249.794 173.599C248.237 171.597 244.788 172.821 244.232 175.045C242.564 181.72 244.121 189.84 244.677 196.626C245.345 203.856 247.792 210.642 248.571 217.872C249.016 221.877 255.69 221.988 255.245 217.761Z" fill="#52AEA2"/>
<path opacity="0.15" d="M299.295 170.374C296.069 170.596 293.511 171.486 290.841 172.599C290.174 171.597 288.95 171.041 287.504 171.486C283.611 172.599 279.384 175.38 275.935 178.494C273.154 179.162 270.373 179.94 267.815 181.053C263.921 182.721 267.147 188.506 271.041 186.837C271.486 186.615 271.819 186.503 272.264 186.392C273.154 187.282 274.489 187.838 275.713 187.616C278.605 187.06 281.052 185.836 283.722 184.612C286.837 183.277 289.618 183.166 292.844 182.832C297.849 182.165 301.186 179.718 302.521 174.712C302.966 172.71 301.52 170.263 299.295 170.374Z" fill="#52AEA2"/>
<path opacity="0.15" d="M283.388 138.671C283.166 137.781 282.721 137.224 282.165 136.78C282.387 135.556 282.498 134.332 282.61 133.109C282.832 128.882 276.158 128.77 275.935 133.109C275.602 140.562 272.153 148.348 270.262 155.468C268.371 162.698 266.146 169.929 266.146 177.604C266.146 180.719 270.818 182.387 272.264 179.273C276.046 171.597 277.159 163.366 279.717 155.356C281.497 150.017 284.834 144.566 283.388 138.671Z" fill="#52AEA2"/>
<path opacity="0.15" d="M307.861 130.662C308.306 128.437 306.414 125.656 303.856 126.546C297.182 128.882 290.952 133.665 286.725 139.449C284.278 142.787 282.943 146.68 281.163 150.351C279.272 154.355 276.936 158.026 275.601 162.253C274.378 166.369 280.83 168.149 281.942 164.033C281.942 163.922 282.053 163.811 282.053 163.699C282.832 163.477 283.499 163.032 284.056 162.253C285.947 159.361 288.839 157.248 290.952 154.578C293.288 151.686 295.624 149.016 298.294 146.346C302.744 141.785 306.637 137.002 307.861 130.662Z" fill="#52AEA2"/>
<path opacity="0.15" d="M297.96 176.603C294.29 176.492 282.721 182.721 279.161 182.054C275.935 181.386 272.821 180.163 269.928 182.276C266.48 184.835 263.365 184.167 267.147 185.947C264.589 184.723 273.488 186.726 273.933 186.837C275.157 187.059 278.716 185.28 279.94 185.502C283.054 185.947 285.057 184.056 288.171 184.056C292.51 184.167 302.188 176.714 297.96 176.603Z" fill="#52AEA2"/>
<path opacity="0.15" d="M297.96 134.778C294.512 138.782 290.619 142.231 287.615 146.569C286.503 148.015 285.391 149.572 284.278 151.018C283.166 150.907 282.053 151.241 281.163 152.465C279.272 155.134 278.049 157.915 277.27 161.141C276.38 164.701 281.275 166.926 283.277 163.7C285.835 159.584 289.284 155.802 292.065 151.686C295.068 147.236 299.073 143.677 302.521 139.561C305.302 136.335 300.741 131.552 297.96 134.778Z" fill="#52AEA2"/>
<path opacity="0.15" d="M266.369 219.653C266.702 217.873 264.366 216.649 263.365 218.318C261.919 220.765 261.141 223.324 260.139 225.993C258.693 229.887 257.025 231.889 254.021 234.447C253.688 234.781 253.354 235.004 253.02 235.337C252.13 234.781 250.795 234.892 250.462 236.227C249.572 239.787 249.683 243.347 248.793 246.906C248.682 247.462 248.793 247.907 249.016 248.241C249.016 248.464 248.904 248.575 248.904 248.797C248.793 250.021 250.35 250.911 251.352 250.243C254.8 247.796 256.58 243.458 258.471 239.787C261.808 233.224 264.923 226.772 266.369 219.653Z" fill="#52AEA2"/>
<path opacity="0.15" d="M251.018 222.211C250.907 221.099 250.907 219.986 250.907 218.985C251.018 218.763 251.129 218.651 251.24 218.318C253.354 210.197 255.134 202.522 254.133 194.179C254.021 192.955 252.909 192.065 251.685 192.733C248.348 194.624 248.348 200.186 248.126 203.523C247.681 209.641 247.347 216.204 247.792 222.322C247.792 224.325 251.129 224.325 251.018 222.211Z" fill="#52AEA2"/>
<path opacity="0.15" d="M243.453 247.129C243.342 246.35 242.897 245.905 242.341 245.682C242.341 245.46 242.23 245.126 242.23 244.904C241.896 242.79 238.781 243.68 239.004 245.794C240.005 252.357 234.332 262.591 238.67 268.82C238.448 269.488 238.225 270.266 238.003 270.934C237.447 272.936 240.561 273.826 241.229 271.824C241.562 270.822 241.896 269.933 242.23 269.043C247.68 263.814 244.01 253.469 243.453 247.129Z" fill="#52AEA2"/>
<path opacity="0.15" d="M259.361 260.477C257.025 262.591 254.8 264.927 252.241 266.929C249.905 268.82 246.902 269.599 244.566 271.379C244.121 271.712 243.787 272.046 243.453 272.491C243.009 272.38 242.452 272.491 242.007 272.936C238.893 276.384 234.777 277.608 232.552 281.835C231.662 282.058 230.772 282.28 229.771 282.503C227.769 282.947 228.436 285.617 230.216 285.728C231.106 285.84 231.885 285.84 232.775 285.728C233.22 286.062 233.887 286.173 234.443 285.84C234.666 285.728 234.888 285.506 235.222 285.395C238.559 284.505 241.229 282.28 243.231 279.165C245.456 278.164 247.903 277.608 250.017 276.162C255.022 272.825 258.471 267.263 262.03 262.48C263.143 261.033 260.695 259.254 259.361 260.477Z" fill="#52AEA2"/>
<path opacity="0.15" d="M275.157 296.741C273.265 296.63 271.486 296.63 269.706 296.518C267.592 295.962 265.479 294.961 263.588 294.516C259.361 293.404 255.245 292.403 251.129 291.179C244.9 289.177 238.67 287.286 232.218 286.507C229.882 285.839 227.435 285.061 225.099 284.505C223.097 283.948 222.096 287.174 224.209 287.731C224.988 287.953 225.767 288.175 226.545 288.398C226.768 289.065 227.213 289.51 228.103 289.622C229.326 289.622 230.439 289.733 231.662 289.844C238.114 291.735 244.566 293.737 251.018 295.74C254.911 296.963 258.916 298.409 262.92 299.299C265.256 299.856 267.704 299.967 270.04 300.078C271.931 300.523 273.71 300.634 275.713 300.189C277.493 299.522 276.936 296.852 275.157 296.741Z" fill="#52AEA2"/>
<path d="M239.313 275.75L238.328 275.577L240.127 276.331L239.313 275.75ZM227.769 226.438L228.769 226.447L228.769 226.447L227.769 226.438ZM243.676 249.242L244.671 249.139L244.669 249.125L244.667 249.112L243.676 249.242ZM289.061 182.944L289.407 183.882L289.418 183.878L289.061 182.944ZM285.613 174.267L285.961 175.205L285.969 175.202L285.613 174.267ZM223.75 288.25L223.272 287.371L223.271 289.128L223.75 288.25ZM249.572 293.404L249.157 294.314L249.165 294.317L249.572 293.404ZM276.714 298.966L275.742 298.73L275.738 298.745L275.735 298.76L276.714 298.966ZM269.15 248.241L269.871 247.548L269.858 247.535L269.844 247.521L269.15 248.241ZM260.696 266.484L261.403 267.191L260.696 266.484ZM269.261 206.304L270.075 205.723L270.069 205.715L269.261 206.304ZM244.9 186.504L245.887 186.345L245.886 186.341L244.9 186.504ZM252.241 177.159L251.319 177.546L251.32 177.548L252.241 177.159ZM271.931 152.465L272.91 152.668L272.91 152.667L271.931 152.465ZM281.052 130.217L281.201 129.228L281.199 129.228L281.052 130.217ZM279.161 159.584L278.202 159.3L278.202 159.3L279.161 159.584ZM307.749 128.103L308.361 127.312L308.354 127.307L307.749 128.103ZM240.298 275.923C240.997 271.932 240.576 267.552 239.597 263.091C238.616 258.625 237.06 254.012 235.44 249.544C233.812 245.051 232.131 240.735 230.853 236.762C229.573 232.783 228.743 229.281 228.769 226.447L226.769 226.429C226.74 229.603 227.658 233.363 228.949 237.375C230.242 241.393 231.955 245.797 233.56 250.225C235.174 254.678 236.692 259.188 237.643 263.52C238.595 267.856 238.964 271.948 238.328 275.577L240.298 275.923ZM228.769 226.447C228.782 224.968 228.991 224.01 229.268 223.447C229.523 222.928 229.779 222.832 229.982 222.817C230.28 222.796 230.794 222.932 231.532 223.465C232.249 223.983 233.066 224.796 233.935 225.902C237.421 230.339 241.313 238.95 242.685 249.373L244.667 249.112C243.258 238.399 239.253 229.434 235.508 224.666C234.569 223.471 233.62 222.506 232.703 221.844C231.807 221.197 230.82 220.752 229.838 220.823C228.763 220.9 227.962 221.57 227.473 222.565C227.005 223.517 226.783 224.821 226.769 226.429L228.769 226.447ZM243.676 249.242C242.681 249.345 242.681 249.345 242.681 249.345C242.681 249.345 242.681 249.345 242.681 249.345C242.681 249.345 242.681 249.345 242.681 249.346C242.681 249.346 242.682 249.348 242.682 249.35C242.682 249.355 242.683 249.363 242.684 249.374C242.686 249.395 242.689 249.429 242.693 249.474C242.701 249.565 242.712 249.702 242.724 249.884C242.748 250.247 242.777 250.785 242.794 251.475C242.829 252.857 242.817 254.847 242.63 257.263C242.256 262.098 241.182 268.616 238.389 275.368L240.237 276.132C243.131 269.134 244.239 262.398 244.624 257.417C244.817 254.924 244.83 252.866 244.794 251.425C244.776 250.705 244.746 250.139 244.72 249.751C244.707 249.556 244.695 249.406 244.686 249.303C244.681 249.252 244.678 249.212 244.675 249.185C244.674 249.171 244.673 249.16 244.672 249.153C244.672 249.149 244.671 249.146 244.671 249.143C244.671 249.142 244.671 249.141 244.671 249.141C244.671 249.14 244.671 249.14 244.671 249.14C244.671 249.139 244.671 249.139 243.676 249.242ZM266.25 185.75C266.229 186.75 266.229 186.75 266.229 186.75C266.229 186.75 266.229 186.75 266.23 186.75C266.23 186.75 266.231 186.75 266.232 186.75C266.234 186.75 266.237 186.75 266.241 186.75C266.248 186.75 266.259 186.75 266.274 186.751C266.302 186.751 266.344 186.752 266.399 186.753C266.509 186.754 266.67 186.756 266.878 186.757C267.292 186.76 267.893 186.759 268.639 186.749C270.13 186.73 272.208 186.67 274.552 186.513C279.215 186.199 285.038 185.492 289.407 183.882L288.716 182.006C284.63 183.511 279.048 184.206 274.418 184.517C272.117 184.672 270.077 184.73 268.612 184.75C267.88 184.759 267.293 184.76 266.889 184.757C266.688 184.756 266.532 184.754 266.427 184.753C266.375 184.752 266.335 184.751 266.309 184.751C266.296 184.751 266.286 184.751 266.28 184.75C266.277 184.75 266.275 184.75 266.273 184.75C266.272 184.75 266.272 184.75 266.272 184.75C266.272 184.75 266.272 184.75 266.271 184.75C266.271 184.75 266.271 184.75 266.25 185.75ZM289.418 183.878C293.71 182.24 297.42 180.222 299.953 178.239C301.215 177.251 302.232 176.236 302.871 175.24C303.499 174.262 303.869 173.123 303.458 172.025L301.585 172.727C301.674 172.964 301.669 173.411 301.188 174.16C300.718 174.892 299.892 175.747 298.721 176.664C296.387 178.491 292.867 180.421 288.705 182.01L289.418 183.878ZM303.458 172.025C303.032 170.889 301.966 170.342 300.847 170.112C299.717 169.88 298.299 169.912 296.731 170.12C293.577 170.537 289.518 171.707 285.256 173.333L285.969 175.202C290.162 173.602 294.057 172.491 296.993 172.102C298.47 171.907 299.632 171.904 300.444 172.071C301.269 172.241 301.51 172.529 301.585 172.727L303.458 172.025ZM285.265 173.33C283.23 174.086 279.074 176.245 275.095 178.56C273.093 179.725 271.113 180.942 269.439 182.061C267.784 183.167 266.369 184.217 265.543 185.043L266.957 186.457C267.633 185.782 268.903 184.825 270.551 183.723C272.181 182.634 274.124 181.439 276.101 180.289C280.079 177.975 284.103 175.895 285.961 175.205L285.265 173.33ZM223.271 289.128C227.178 291.259 231.375 291.402 235.609 291.617C239.891 291.835 244.34 292.12 249.157 294.314L249.986 292.494C244.792 290.127 240.001 289.838 235.71 289.62C231.372 289.399 227.663 289.245 224.229 287.372L223.271 289.128ZM249.165 294.317C259.927 299.113 266.714 301.082 270.914 301.559C273.01 301.796 274.552 301.674 275.648 301.273C276.778 300.859 277.494 300.115 277.692 299.172L275.735 298.76C275.711 298.873 275.607 299.158 274.961 299.395C274.28 299.644 273.09 299.793 271.139 299.571C267.247 299.13 260.685 297.261 249.979 292.49L249.165 294.317ZM277.686 299.201C277.87 298.439 277.686 297.541 277.315 296.672C276.932 295.771 276.296 294.774 275.4 293.753C273.604 291.708 270.713 289.514 266.51 287.763C258.097 284.258 244.409 282.516 223.528 287.275L223.972 289.225C244.583 284.528 257.822 286.31 265.741 289.609C269.703 291.259 272.329 293.287 273.897 295.073C274.683 295.968 275.191 296.788 275.475 297.455C275.773 298.154 275.78 298.574 275.742 298.73L277.686 299.201ZM240.127 276.331C244.928 269.599 251.566 262.019 257.38 256.506C260.293 253.744 262.962 251.536 265.068 250.21C266.127 249.542 266.984 249.137 267.62 248.972C268.284 248.801 268.444 248.95 268.456 248.961L269.844 247.521C269.077 246.781 268.022 246.803 267.12 247.036C266.19 247.276 265.129 247.807 264.002 248.518C261.733 249.947 258.952 252.259 256.004 255.054C250.099 260.654 243.376 268.33 238.499 275.169L240.127 276.331ZM268.428 248.934C268.814 249.335 269.051 250.041 268.945 251.187C268.839 252.322 268.405 253.741 267.647 255.351C266.135 258.563 263.429 262.337 259.988 265.777L261.403 267.191C264.97 263.624 267.826 259.666 269.457 256.203C270.27 254.476 270.802 252.822 270.936 251.372C271.07 249.931 270.821 248.538 269.871 247.548L268.428 248.934ZM259.988 265.777C257.932 267.834 252.783 272.204 246.137 276.573C239.488 280.944 231.415 285.262 223.503 287.281L223.997 289.219C232.215 287.122 240.501 282.671 247.236 278.244C253.973 273.816 259.232 269.362 261.403 267.191L259.988 265.777ZM250.989 238.996C252.188 231.143 255.974 221.793 259.949 215.075C261.941 211.706 263.932 209.084 265.606 207.641C266.454 206.91 267.117 206.574 267.575 206.499C267.785 206.466 267.932 206.489 268.044 206.536C268.157 206.583 268.298 206.681 268.453 206.893L270.069 205.715C269.737 205.26 269.321 204.902 268.816 204.691C268.309 204.479 267.777 204.441 267.256 204.525C266.254 204.687 265.249 205.308 264.3 206.126C262.38 207.781 260.258 210.624 258.227 214.056C254.157 220.938 250.259 230.53 249.011 238.694L250.989 238.996ZM268.447 206.885C268.777 207.346 268.978 208.011 268.984 208.956C268.989 209.904 268.796 211.071 268.401 212.459C267.611 215.237 266.066 218.726 263.99 222.817C259.818 231.038 253.716 241.29 247.606 252.781L249.372 253.719C255.388 242.406 261.618 231.91 265.774 223.722C267.861 219.608 269.48 215.978 270.325 213.006C270.748 211.518 270.99 210.152 270.983 208.945C270.977 207.736 270.719 206.624 270.075 205.723L268.447 206.885ZM251.355 226.438C252.342 226.278 252.342 226.278 252.342 226.278C252.342 226.278 252.342 226.277 252.342 226.277C252.342 226.276 252.341 226.275 252.341 226.274C252.341 226.271 252.34 226.266 252.339 226.261C252.337 226.249 252.334 226.232 252.331 226.209C252.323 226.163 252.312 226.094 252.298 226.004C252.268 225.825 252.225 225.559 252.169 225.215C252.058 224.527 251.896 223.526 251.693 222.275C251.288 219.774 250.721 216.274 250.074 212.276C248.78 204.281 247.166 194.298 245.887 186.345L243.912 186.662C245.192 194.616 246.806 204.6 248.099 212.596C248.747 216.594 249.314 220.094 249.719 222.595C249.921 223.846 250.084 224.847 250.195 225.535C250.251 225.879 250.294 226.145 250.323 226.325C250.338 226.414 250.349 226.483 250.356 226.529C250.36 226.552 250.363 226.569 250.365 226.581C250.366 226.587 250.367 226.591 250.367 226.594C250.367 226.595 250.367 226.596 250.368 226.597C250.368 226.598 250.368 226.598 250.368 226.598C250.368 226.598 250.368 226.598 251.355 226.438ZM245.886 186.341C245.454 183.721 245.354 181.055 245.527 178.736C245.702 176.391 246.149 174.5 246.744 173.371C247.043 172.802 247.322 172.538 247.512 172.44C247.637 172.376 247.788 172.342 248.074 172.494C248.411 172.673 248.884 173.097 249.461 173.945C250.03 174.779 250.653 175.956 251.319 177.546L253.164 176.773C252.467 175.109 251.783 173.801 251.114 172.819C250.455 171.85 249.761 171.126 249.015 170.729C248.218 170.304 247.37 170.263 246.595 170.663C245.886 171.029 245.363 171.7 244.974 172.439C244.192 173.924 243.715 176.134 243.532 178.587C243.347 181.065 243.455 183.891 243.913 186.666L245.886 186.341ZM251.32 177.548C252.588 180.559 253.247 184.691 253.495 189.271C253.743 193.832 253.578 198.757 253.246 203.306C252.915 207.852 252.417 212.007 252.002 215.027C251.794 216.536 251.607 217.76 251.473 218.605C251.406 219.028 251.351 219.356 251.314 219.578C251.295 219.689 251.281 219.773 251.271 219.83C251.266 219.858 251.263 219.879 251.26 219.893C251.259 219.9 251.258 219.905 251.257 219.908C251.257 219.91 251.257 219.911 251.257 219.912C251.257 219.913 251.257 219.913 251.257 219.913C251.257 219.913 251.257 219.913 252.241 220.087C253.226 220.261 253.226 220.261 253.226 220.26C253.226 220.26 253.226 220.259 253.226 220.259C253.227 220.258 253.227 220.256 253.227 220.254C253.228 220.25 253.229 220.245 253.23 220.237C253.233 220.222 253.237 220.199 253.242 220.17C253.252 220.111 253.267 220.024 253.286 219.91C253.324 219.683 253.38 219.349 253.448 218.92C253.584 218.062 253.773 216.824 253.983 215.299C254.402 212.251 254.905 208.052 255.241 203.451C255.576 198.854 255.746 193.839 255.492 189.163C255.24 184.505 254.565 180.101 253.163 176.771L251.32 177.548ZM266.25 185.75C267.238 185.905 267.238 185.905 267.238 185.905C267.238 185.904 267.238 185.904 267.238 185.904C267.238 185.903 267.238 185.902 267.239 185.901C267.239 185.898 267.24 185.893 267.241 185.888C267.242 185.876 267.245 185.859 267.249 185.836C267.256 185.79 267.267 185.721 267.281 185.632C267.309 185.453 267.351 185.189 267.404 184.85C267.511 184.172 267.667 183.193 267.859 181.99C268.244 179.583 268.776 176.279 269.368 172.691C270.552 165.505 271.969 157.205 272.91 152.668L270.951 152.262C270.001 156.846 268.578 165.188 267.394 172.365C266.802 175.958 266.269 179.265 265.884 181.674C265.692 182.879 265.536 183.859 265.429 184.538C265.375 184.877 265.333 185.141 265.305 185.321C265.291 185.411 265.28 185.479 265.273 185.525C265.269 185.548 265.267 185.566 265.265 185.577C265.264 185.583 265.263 185.588 265.263 185.591C265.263 185.592 265.262 185.593 265.262 185.594C265.262 185.594 265.262 185.595 265.262 185.595C265.262 185.595 265.262 185.595 266.25 185.75ZM272.91 152.667C273.624 149.207 275.141 143.581 276.847 138.888C277.703 136.535 278.589 134.463 279.428 133.023C279.85 132.297 280.229 131.786 280.549 131.48C280.894 131.15 280.995 131.219 280.906 131.206L281.199 129.228C280.359 129.103 279.657 129.565 279.166 130.035C278.65 130.529 278.16 131.225 277.699 132.017C276.771 133.611 275.836 135.815 274.968 138.204C273.226 142.994 271.684 148.714 270.951 152.262L272.91 152.667ZM280.904 131.206C281.554 131.303 282.095 131.707 282.473 132.777C282.871 133.9 283.027 135.625 282.863 138.033C282.537 142.826 280.979 149.913 278.202 159.3L280.12 159.867C282.905 150.455 284.517 143.192 284.859 138.169C285.029 135.668 284.893 133.618 284.359 132.11C283.806 130.548 282.775 129.464 281.201 129.228L280.904 131.206ZM278.202 159.3C277.067 163.137 273.89 169.591 270.945 175.161C269.482 177.929 268.092 180.452 267.066 182.284C266.554 183.199 266.133 183.941 265.84 184.454C265.694 184.711 265.58 184.91 265.502 185.045C265.464 185.112 265.434 185.163 265.414 185.198C265.404 185.215 265.397 185.228 265.392 185.236C265.389 185.241 265.388 185.244 265.386 185.246C265.386 185.247 265.385 185.248 265.385 185.248C265.385 185.249 265.385 185.249 265.385 185.249C265.385 185.249 265.385 185.249 266.25 185.75C267.115 186.251 267.116 186.251 267.116 186.251C267.116 186.251 267.116 186.25 267.116 186.25C267.116 186.249 267.117 186.249 267.118 186.247C267.119 186.245 267.121 186.242 267.123 186.237C267.129 186.228 267.136 186.215 267.147 186.197C267.167 186.162 267.197 186.11 267.236 186.041C267.315 185.905 267.43 185.704 267.578 185.445C267.872 184.928 268.296 184.181 268.811 183.261C269.842 181.42 271.241 178.882 272.714 176.096C275.641 170.558 278.919 163.928 280.12 159.867L278.202 159.3ZM265.425 185.184C250.251 207.314 250.107 227.522 248.481 244.761C247.666 253.399 246.487 261.238 242.968 268.321C239.466 275.372 233.603 281.754 223.272 287.371L224.228 289.129C234.866 283.344 241.049 276.681 244.76 269.211C248.454 261.774 249.654 253.616 250.472 244.949C252.111 227.576 252.249 207.936 267.075 186.316L265.425 185.184ZM279.161 159.584C280.063 160.016 280.063 160.016 280.063 160.015C280.063 160.015 280.063 160.015 280.063 160.015C280.064 160.014 280.064 160.014 280.064 160.013C280.065 160.011 280.067 160.007 280.069 160.003C280.073 159.995 280.079 159.982 280.088 159.964C280.104 159.93 280.129 159.879 280.161 159.812C280.227 159.677 280.323 159.478 280.448 159.223C280.698 158.712 281.061 157.974 281.515 157.071C282.422 155.262 283.69 152.79 285.13 150.132C288.032 144.774 291.563 138.798 294.245 135.902L292.777 134.543C289.897 137.654 286.253 143.858 283.371 149.179C281.919 151.861 280.641 154.352 279.727 156.173C279.27 157.084 278.904 157.828 278.651 158.344C278.525 158.602 278.427 158.804 278.361 158.941C278.328 159.009 278.302 159.062 278.285 159.097C278.277 159.115 278.27 159.129 278.266 159.138C278.264 159.142 278.262 159.146 278.261 159.148C278.26 159.149 278.26 159.15 278.26 159.151C278.26 159.151 278.259 159.151 278.259 159.152C278.259 159.152 278.259 159.152 279.161 159.584ZM294.245 135.902C296.996 132.93 299.662 130.63 301.983 129.372C304.34 128.093 306.017 128.044 307.145 128.9L308.354 127.307C306.256 125.715 303.594 126.222 301.029 127.614C298.428 129.025 295.587 131.508 292.777 134.543L294.245 135.902ZM307.138 128.895C307.139 128.895 307.14 128.896 307.14 128.896C307.14 128.897 307.141 128.897 307.141 128.897C307.141 128.897 307.141 128.897 307.141 128.897C307.141 128.897 307.141 128.897 307.141 128.897C307.141 128.897 307.142 128.898 307.143 128.901C307.145 128.904 307.147 128.909 307.15 128.917C307.162 128.949 307.183 129.028 307.179 129.179C307.171 129.496 307.059 129.977 306.787 130.643C306.247 131.962 305.198 133.718 303.75 135.79C300.866 139.917 296.548 145.095 292.052 150.183C287.561 155.264 282.916 160.231 279.391 163.928C277.629 165.777 276.149 167.307 275.109 168.375C274.589 168.909 274.179 169.327 273.899 169.612C273.759 169.754 273.652 169.863 273.58 169.936C273.544 169.973 273.517 170.001 273.498 170.019C273.489 170.028 273.482 170.035 273.478 170.04C273.476 170.042 273.474 170.044 273.473 170.045C273.472 170.046 273.472 170.046 273.472 170.046C273.471 170.046 273.471 170.047 274.182 170.75C274.893 171.453 274.893 171.453 274.893 171.453C274.894 171.453 274.894 171.452 274.895 171.451C274.896 171.45 274.898 171.448 274.9 171.446C274.905 171.441 274.912 171.434 274.921 171.425C274.94 171.406 274.968 171.378 275.004 171.341C275.077 171.266 275.185 171.157 275.326 171.013C275.608 170.727 276.019 170.306 276.541 169.77C277.586 168.698 279.071 167.163 280.839 165.308C284.373 161.601 289.037 156.614 293.55 151.507C298.058 146.406 302.438 141.159 305.389 136.935C306.859 134.832 308.011 132.93 308.638 131.4C308.949 130.641 309.161 129.9 309.179 129.232C309.197 128.544 309.003 127.808 308.361 127.312L307.138 128.895Z" fill="#66636C"/>
<path d="M263.476 174.49C263.699 174.49 263.699 174.268 263.476 174.268C263.254 174.268 263.254 174.49 263.476 174.49Z" fill="#66636C"/>
<path d="M269.483 164.924C269.706 164.924 269.706 164.59 269.483 164.59C269.261 164.59 269.261 164.924 269.483 164.924Z" fill="#66636C"/>
<path opacity="0.05" d="M219.982 281.835C210.749 280.055 201.517 280.723 192.061 281.168C186.388 281.39 186.388 290.178 192.061 289.955C200.515 289.622 209.192 288.732 217.535 290.4C223.208 291.402 225.544 282.836 219.982 281.835Z" fill="#66636C"/>
<path opacity="0.05" d="M319.986 49.6802C311.977 40.6699 311.977 41.8935 301.075 42.4497C291.064 43.0059 211.639 41.2261 209.86 42.5609C204.743 41.671 179.825 42.0047 174.263 42.4497C168.145 43.0059 155.353 41.8935 155.353 41.8935L177.6 71.3717C177.6 71.3717 290.619 73.7077 295.18 72.5954C306.192 70.7043 303.078 72.7066 302.855 72.9291C295.736 78.936 287.17 91.2835 280.607 97.9578C274.6 103.965 268.26 112.53 262.253 118.537C257.247 123.543 245.011 143.566 238.337 141.897C231.662 140.228 225.655 129.994 221.095 127.436C214.198 123.431 208.191 111.751 202.184 106.301C195.176 99.8488 194.62 95.0656 187.723 88.5025C181.494 82.4956 179.38 79.6034 173.929 72.8178C169.146 66.6997 162.806 61.4715 157.689 55.6871C151.904 49.2353 146.565 41.2261 146.565 41.2261L128.21 43.4508C128.21 43.4508 137.332 52.0162 140.447 55.1309C146.009 60.6928 158.579 72.5954 167.144 82.9406C172.372 89.2812 180.159 95.6218 186.054 101.295C192.506 107.413 225.878 141.675 232.218 148.015C233.331 149.128 232.218 166.147 232.218 172.488C232.218 185.836 230.439 193.957 232.775 206.972C234.443 216.204 244.121 215.092 243.899 205.859C243.676 194.735 242.897 168.038 242.23 156.914C241.674 147.459 247.458 145.345 247.792 140.785C255.134 137.336 257.692 133.999 262.253 127.436C266.48 121.207 272.709 120.873 276.269 114.31C281.275 105.188 289.618 98.514 297.516 91.9509C305.858 85.0541 314.869 72.9291 322.767 65.5873C330.776 58.4681 328.217 59.0243 319.986 49.6802Z" fill="#66636C"/>
<path opacity="0.05" d="M325.77 56.3544C323.434 54.0184 321.766 51.0149 319.652 48.5677C316.982 45.453 313.868 42.8945 310.53 40.336C309.084 39.2237 306.303 39.6686 305.191 41.0035C303.3 43.117 299.295 42.3383 296.737 43.562C294.067 44.8968 292.51 47.1216 291.62 49.9026C289.84 55.4645 290.285 62.0276 290.619 67.812C290.952 72.1503 296.626 73.7076 298.739 70.2592C298.962 70.2592 299.295 70.3705 299.518 70.3705C301.075 70.3705 304.968 70.7042 306.637 70.9267C306.081 72.2615 302.966 73.3739 301.854 74.4863C296.069 80.1595 289.618 84.1641 285.057 91.0609C282.053 95.5104 279.384 100.182 276.603 104.743C275.157 106.412 273.599 108.08 271.819 109.638C270.04 111.195 268.482 112.752 267.259 114.532C264.589 116.201 262.03 117.981 259.917 120.65C256.357 125.1 253.91 130.551 248.793 133.332C246.679 134.444 246.235 137.114 247.124 139.005C242.564 142.898 238.003 146.013 236.779 152.576C235.556 159.25 238.114 166.036 236.334 172.599C234.888 178.049 240.228 214.869 241.674 209.419C243.565 202.299 239.894 160.696 241.674 153.799C242.675 149.684 249.794 140.896 252.798 138.226C254.911 136.335 258.026 131.329 260.028 129.327C264.366 126.657 310.753 82.273 313.979 74.82C315.425 71.2604 329.33 60.0253 325.77 56.3544Z" fill="#66636C"/>
<path opacity="0.05" d="M285.613 281.835C280.83 280.945 275.935 280.611 271.041 280.611C265.368 280.5 265.368 289.399 271.041 289.399C275.157 289.399 279.161 289.622 283.166 290.4C285.502 290.845 287.949 289.733 288.616 287.286C289.284 285.061 287.949 282.169 285.613 281.835Z" fill="#66636C"/>
<path opacity="0.05" d="M215.533 285.84C207.19 285.729 198.847 285.951 190.504 284.728C188.39 284.394 188.39 287.731 190.393 288.065C198.736 289.288 207.079 289.066 215.421 289.177C217.535 289.177 217.646 285.84 215.533 285.84Z" fill="#66636C"/>
<path opacity="0.05" d="M284.946 283.837C280.274 283.726 275.713 285.172 271.041 285.506C268.927 285.617 268.927 288.954 271.041 288.843C275.713 288.509 280.274 287.063 284.946 287.174C287.17 287.174 287.17 283.837 284.946 283.837Z" fill="#66636C"/>
<path opacity="0.15" d="M285.502 73.0402C280.607 73.8189 258.804 72.484 230.772 71.4829C225.544 71.3716 220.205 71.2604 214.976 71.4829C205.299 71.9278 195.621 72.1503 185.943 71.4829C177.823 70.8154 177.489 83.0517 185.053 84.609C187.501 90.1709 191.95 95.1767 196.177 99.2925C198.624 101.629 214.309 117.424 217.646 124.21C220.65 130.439 229.549 137.892 236.001 140.896C243.454 144.344 244.9 134.221 251.018 129.216C256.802 124.544 304.968 70.8154 304.968 70.8154C304.968 70.8154 290.285 72.2615 285.502 73.0402Z" fill="#FB6EA4"/>
<path opacity="0.15" d="M277.715 71.2606C270.485 72.7067 263.032 73.1517 255.801 71.7056C254.133 71.3718 252.353 71.7055 250.907 72.4842C247.013 70.2594 240.673 72.0393 240.561 77.9349C240.339 86.9452 243.231 95.6219 243.454 104.632C243.676 113.754 238.782 122.987 233.22 129.883C229.104 135 232.886 142.342 239.671 140.896C246.346 139.561 253.465 127.436 257.247 122.319C260.584 117.87 279.384 100.294 284.946 94.0645C290.285 88.1689 303.967 71.7056 303.967 71.7056C303.967 71.7056 284.612 69.9257 277.715 71.2606Z" fill="#FB6EA4"/>
<g opacity="0.3">
<path fill-rule="evenodd" clip-rule="evenodd" d="M276.269 91.3947C276.936 91.8397 276.603 93.5082 277.937 93.397C276.714 95.1768 278.382 95.8443 277.381 97.7353C277.159 97.6241 277.048 97.5128 276.714 97.5128C276.936 98.514 276.491 98.8477 276.491 99.7376C275.601 99.6264 275.824 100.516 274.712 100.183C273.488 98.4028 273.599 96.5117 271.819 95.2881C272.153 93.1745 273.71 91.3947 276.269 91.3947Z" fill="#FB6EA4"/>
<path fill-rule="evenodd" clip-rule="evenodd" d="M265.924 72.8179C266.591 73.2628 266.257 74.9314 267.592 74.8202C266.369 76.6 268.037 77.2674 267.036 79.1585C266.814 79.0472 266.702 78.936 266.369 78.936C266.591 79.9371 266.146 80.2709 266.146 81.1608C265.256 81.0495 265.479 81.9394 264.366 81.6057C263.143 79.8259 263.254 77.9348 261.474 76.7112C261.697 74.5977 263.254 72.8179 265.924 72.8179Z" fill="#FB6EA4"/>
<path fill-rule="evenodd" clip-rule="evenodd" d="M268.26 85.8328C268.371 86.389 268.148 86.8339 267.592 86.7227C267.481 86.5002 267.37 86.389 267.37 86.0552C267.592 85.944 267.926 85.8328 268.26 85.8328Z" fill="#FB6EA4"/>
<path fill-rule="evenodd" clip-rule="evenodd" d="M224.098 107.747C224.209 107.969 223.764 108.081 223.542 108.192C224.654 109.082 224.209 109.638 225.099 111.195C224.432 112.308 222.541 114.866 220.983 113.531C220.205 113.865 219.982 114.866 218.536 114.866C217.09 113.309 214.976 112.085 214.976 109.193C216.756 107.636 217.869 105.522 220.093 107.858C221.317 106.412 223.764 106.301 224.098 107.747Z" fill="#FB6EA4"/>
<path fill-rule="evenodd" clip-rule="evenodd" d="M262.587 95.5105C263.476 94.1757 264.478 92.8408 267.036 93.1745C267.815 94.1757 267.926 94.7319 268.927 95.6218C268.705 95.8443 268.705 96.178 268.705 96.5117C267.37 96.0667 267.815 98.1803 266.925 98.8477C267.37 99.6264 268.593 99.5151 268.371 101.072C267.926 101.517 266.814 101.295 266.591 100.85C267.036 100.183 266.257 99.4039 267.036 99.2926C265.256 99.1814 263.365 97.5128 262.587 95.5105Z" fill="#FB6EA4"/>
<path fill-rule="evenodd" clip-rule="evenodd" d="M256.58 106.523C255.801 107.413 254.355 106.412 253.91 108.303C252.686 106.078 251.351 108.303 250.017 106.189C250.239 105.967 250.35 105.744 250.573 105.3C249.572 105.3 249.349 104.521 248.459 104.41C248.904 103.186 248.014 103.186 248.793 101.629C251.018 100.294 252.686 101.072 254.8 98.8477C256.691 99.9601 257.692 102.741 256.58 106.523Z" fill="#FB6EA4"/>
<path fill-rule="evenodd" clip-rule="evenodd" d="M245.122 122.987C245.233 123.543 245.011 123.988 244.455 123.876C244.343 123.654 244.232 123.543 244.232 123.209C244.343 122.987 244.677 122.987 245.122 122.987Z" fill="#FB6EA4"/>
<path fill-rule="evenodd" clip-rule="evenodd" d="M233.776 126.546C233.776 126.769 233.442 126.769 233.108 126.88C233.998 127.992 233.331 128.437 233.998 130.217C233.108 131.107 230.661 133.22 229.437 131.552C228.548 131.663 228.103 132.664 226.768 132.331C225.655 130.551 223.987 128.771 224.654 125.99C226.768 124.989 228.325 123.098 229.994 125.879C231.44 124.544 233.776 124.989 233.776 126.546Z" fill="#FB6EA4"/>
<path fill-rule="evenodd" clip-rule="evenodd" d="M258.471 83.608C258.693 83.608 258.693 84.0529 258.693 84.2754C259.917 83.608 260.251 84.2754 262.142 83.9417C262.92 84.9429 264.589 87.7238 262.698 88.725C262.698 89.6149 263.588 90.1711 263.032 91.3947C261.029 92.1734 259.138 93.6195 256.468 92.5071C255.801 90.2823 254.244 88.3912 257.247 87.2789C256.135 85.6103 256.913 83.3855 258.471 83.608Z" fill="#FB6EA4"/>
<path fill-rule="evenodd" clip-rule="evenodd" d="M234.554 137.67C234.109 135.668 233.664 133.777 236.001 131.552C237.558 131.663 238.114 131.997 239.783 131.774C239.783 132.108 240.116 132.442 240.45 132.664C239.004 133.554 241.229 134.889 241.117 136.224C242.23 136.446 243.12 135.223 244.343 136.78C244.343 137.67 243.342 138.337 242.675 138.337C242.341 137.336 241.117 137.559 241.562 136.669C240.005 138.226 237.113 138.56 234.554 137.67Z" fill="#FB6EA4"/>
<path fill-rule="evenodd" clip-rule="evenodd" d="M253.354 117.425C254.021 117.87 253.687 119.538 255.022 119.427C253.799 121.207 255.467 121.874 254.466 123.765C254.244 123.654 254.132 123.543 253.799 123.543C254.021 124.544 253.576 124.878 253.576 125.767C252.686 125.656 252.909 126.546 251.796 126.212C250.573 124.433 250.684 122.542 248.904 121.318C249.127 119.204 250.684 117.425 253.354 117.425Z" fill="#FB6EA4"/>
<path fill-rule="evenodd" clip-rule="evenodd" d="M252.909 120.206C253.02 120.762 252.798 121.207 252.241 121.095C252.13 120.873 252.019 120.762 252.019 120.428C252.241 120.206 252.575 120.206 252.909 120.206Z" fill="#FB6EA4"/>
<path fill-rule="evenodd" clip-rule="evenodd" d="M229.549 117.536C229.771 117.536 229.771 117.981 229.771 118.203C230.995 117.536 231.329 118.203 233.22 117.87C233.998 118.871 235.667 121.652 233.776 122.653C233.776 123.543 234.666 124.099 234.109 125.323C232.107 126.101 230.216 127.547 227.546 126.435C226.879 124.21 225.322 122.319 228.325 121.207C227.324 119.538 228.103 117.202 229.549 117.536Z" fill="#FB6EA4"/>
<path fill-rule="evenodd" clip-rule="evenodd" d="M262.587 104.855C262.809 104.855 262.809 105.3 262.809 105.522C264.033 104.855 264.366 105.522 266.257 105.188C267.036 106.189 268.705 108.97 266.814 109.972C266.814 110.861 267.704 111.418 267.147 112.641C265.145 113.42 263.254 114.866 260.584 113.754C259.917 111.529 258.359 109.638 261.363 108.525C260.251 106.857 261.029 104.632 262.587 104.855Z" fill="#FB6EA4"/>
<path fill-rule="evenodd" clip-rule="evenodd" d="M238.559 126.324C239.894 124.321 241.34 122.43 245.122 122.875C246.346 124.433 246.346 125.211 247.903 126.435C247.681 126.769 247.569 127.214 247.569 127.77C245.678 127.214 246.234 130.217 245.011 131.218C245.678 132.331 247.569 132.219 247.124 134.555C246.457 135.223 244.9 134.889 244.455 134.333C245.122 133.332 243.898 132.331 245.011 131.997C242.341 131.552 239.671 129.216 238.559 126.324Z" fill="#FB6EA4"/>
<path fill-rule="evenodd" clip-rule="evenodd" d="M285.168 82.4956C285.835 82.9406 285.502 84.6091 286.837 84.4979C285.613 86.2777 287.282 86.9452 286.28 88.8362C286.058 88.725 285.947 88.6137 285.613 88.6137C285.835 89.6149 285.391 89.9486 285.391 90.8385C284.501 90.7273 284.723 91.6172 283.611 91.2835C282.387 89.5037 282.498 87.6126 280.718 86.389C281.052 84.2754 282.61 82.4956 285.168 82.4956Z" fill="#FB6EA4"/>
<path fill-rule="evenodd" clip-rule="evenodd" d="M261.363 97.9578C261.474 98.514 261.252 98.959 260.695 98.8477C260.584 98.6252 260.473 98.514 260.473 98.1803C260.584 97.9578 260.918 97.9578 261.363 97.9578Z" fill="#FB6EA4"/>
<path fill-rule="evenodd" clip-rule="evenodd" d="M263.032 110.083C263.032 110.528 262.475 110.417 262.03 110.528C263.143 112.308 262.253 112.753 262.809 115.422C261.363 116.646 257.581 119.316 256.024 116.757C254.8 116.868 254.021 118.092 252.13 117.425C250.795 114.644 248.571 111.974 249.905 108.081C253.131 106.857 255.579 104.41 257.581 108.637C259.917 106.968 263.254 107.858 263.032 110.083Z" fill="#FB6EA4"/>
<path fill-rule="evenodd" clip-rule="evenodd" d="M273.265 76.9337C273.488 76.9337 273.488 77.3786 273.488 77.6011C274.712 76.9337 275.045 77.6011 276.936 77.2674C277.715 78.2685 279.384 81.0495 277.493 82.0507C277.493 82.9406 278.382 83.4968 277.826 84.7204C275.824 85.4991 273.933 86.9452 271.263 85.8328C270.596 83.608 269.038 81.7169 272.042 80.6046C271.041 79.0472 271.819 76.7112 273.265 76.9337Z" fill="#FB6EA4"/>
<path fill-rule="evenodd" clip-rule="evenodd" d="M237.892 117.091C238.781 115.756 239.783 114.421 242.341 114.755C243.12 115.756 243.231 116.312 244.232 117.202C244.01 117.425 244.01 117.758 244.01 118.092C242.675 117.647 243.12 119.761 242.23 120.428C242.675 121.207 243.898 121.095 243.676 122.653C243.231 123.098 242.119 122.875 241.896 122.43C242.341 121.763 241.562 120.984 242.341 120.873C240.45 120.65 238.67 119.093 237.892 117.091Z" fill="#FB6EA4"/>
<path fill-rule="evenodd" clip-rule="evenodd" d="M291.175 84.3867C289.618 84.9429 288.171 85.4991 286.169 83.8305C286.058 82.4956 286.392 82.0507 285.947 80.7158C286.169 80.6046 286.392 80.3821 286.614 80.0484C287.504 81.1608 288.283 79.1585 289.395 79.1585C289.395 78.2686 288.394 77.6011 289.506 76.4887C290.174 76.3775 290.841 77.1562 290.952 77.7124C290.174 78.0461 290.507 79.0472 289.729 78.8248C290.952 79.9372 291.62 82.2732 291.175 84.3867Z" fill="#FB6EA4"/>
</g>
<path opacity="0.15" d="M287.949 71.9277C287.949 71.9277 284.834 73.2626 281.831 75.1537C278.939 77.0447 277.604 79.8257 276.491 83.0516C274.044 89.8371 271.374 96.7339 268.037 103.075C261.474 115.533 247.236 125.99 237.224 135.445C231.106 141.229 237.224 143.343 243.342 137.559C252.909 128.548 263.254 118.203 270.929 107.19C275.157 101.183 301.743 74.5975 303.967 73.0401C297.849 71.9277 287.949 71.9277 287.949 71.9277Z" fill="#FB6EA4"/>
<path opacity="0.15" d="M240.895 134.444C235.556 128.437 229.771 123.098 224.32 117.313C219.426 112.085 127.765 9.07791 123.093 3.51598C119.534 -0.933562 113.304 5.40704 116.864 9.74535C121.425 15.3073 212.752 117.758 217.424 122.875C222.986 128.993 229.104 134.444 234.554 140.673C238.337 144.9 244.566 138.671 240.895 134.444Z" fill="#BD86C1"/>
<path opacity="0.15" d="M242.119 140.896C238.781 133.665 227.101 127.992 220.983 122.541C214.531 116.868 209.526 109.526 204.297 102.518C200.07 96.7338 194.508 91.3944 189.28 86.3886C183.273 80.6042 176.822 72.2613 170.926 66.3657C164.697 60.1363 160.025 54.4631 154.796 47.4551C150.347 41.5595 145.23 35.2189 140.224 29.8794C133.438 22.6489 129.99 8.74407 119.756 5.29568C117.086 4.40577 115.974 8.63283 118.644 9.52274C124.094 11.3026 135.774 31.9929 139.668 35.4413C142.338 37.7774 145.119 39.8909 147.788 42.3381C150.792 45.2303 153.016 48.5675 155.575 51.7934C160.247 57.9115 221.651 130.217 228.325 135.89C235.444 142.008 243.342 143.454 242.119 140.896Z" fill="#BD86C1"/>
<path opacity="0.05" d="M328.885 55.4644C323.545 47.9001 317.761 44.7854 308.417 43.0056C298.072 41.0033 245.011 43.0056 245.011 43.0056L243.898 71.9277C243.898 71.9277 260.028 72.7063 262.92 72.1501C264.366 72.5951 279.384 71.9277 285.502 71.3715C289.506 71.0378 302.187 70.5928 306.303 71.3715C303.634 73.8187 287.17 90.1708 282.943 94.7316C278.271 99.8486 245.567 135.445 241.229 140.896C237.447 145.568 227.324 134.777 227.324 134.777L220.093 136.446C220.093 136.446 231.773 143.12 232.886 154.8C233.776 163.922 242.675 194.068 241.785 184.835C241.229 179.273 240.005 158.138 240.673 152.576C241.229 147.792 250.906 136.224 254.577 133.665C258.582 130.773 292.287 97.9575 295.736 93.063C302.855 83.0515 319.318 71.0378 326.882 61.36C328.551 59.024 330.776 58.2453 328.885 55.4644Z" fill="#66636C"/>
<path d="M303.75 73.25L304.484 73.9289L306.059 72.2251L303.739 72.2501L303.75 73.25ZM242.5 139.5L243.207 140.207L243.221 140.193L243.234 140.179L242.5 139.5ZM232.5 139.5L231.793 140.207L232.5 139.5ZM245.641 146.078L246.348 146.785L246.355 146.779L246.361 146.772L245.641 146.078ZM188.75 280.75V279.75H187.75V280.75H188.75ZM188.75 288.25H187.75V289.25H188.75V288.25ZM128.75 43.25V42.25H126.373L128.035 43.9494L128.75 43.25ZM229.359 146.078L228.644 146.777L228.652 146.785L229.359 146.078ZM113.75 7L113.125 6.21913L112.303 6.87666L113.002 7.66384L113.75 7ZM120 2L120.747 1.33479L120.116 0.626715L119.375 1.21913L120 2ZM286.25 288.25V289.25H287.25V288.25H286.25ZM286.25 280.75H287.25V279.75H286.25V280.75ZM223.207 128.793L215.707 121.293L214.293 122.707L221.793 130.207L223.207 128.793ZM187.511 75.4999L303.761 74.2499L303.739 72.2501L187.489 73.5001L187.511 75.4999ZM303.016 72.5711L241.766 138.821L243.234 140.179L304.484 73.9289L303.016 72.5711ZM241.793 138.793C239.514 141.072 235.486 141.072 233.207 138.793L231.793 140.207C234.853 143.267 240.147 143.267 243.207 140.207L241.793 138.793ZM233.207 138.793L225.707 131.293L224.293 132.707L231.793 140.207L233.207 138.793ZM244.75 163.203V150.75H242.75V163.203H244.75ZM244.75 150.75C244.75 149.222 245.321 147.812 246.348 146.785L244.934 145.371C243.514 146.791 242.75 148.718 242.75 150.75H244.75ZM246.361 146.772L326.935 63.1664L325.495 61.7785L244.921 145.384L246.361 146.772ZM222.5 279.75H188.75V281.75H222.5V279.75ZM187.75 280.75V288.25H189.75V280.75H187.75ZM188.75 289.25H215V287.25H188.75V289.25ZM140 42.25H128.75V44.25H140V42.25ZM128.035 43.9494L228.644 146.777L230.074 145.379L129.465 42.5506L128.035 43.9494ZM228.652 146.785C229.679 147.812 230.25 149.222 230.25 150.75H232.25C232.25 148.718 231.486 146.791 230.066 145.371L228.652 146.785ZM230.25 150.75V199.5H232.25V150.75H230.25ZM175 42.25H165V44.25H175V42.25ZM304.857 42.25H180.048V44.25H304.857V42.25ZM213.248 117.586L114.498 6.33616L113.002 7.66384L211.752 118.914L213.248 117.586ZM114.375 7.78087L120.625 2.78087L119.375 1.21913L113.125 6.21913L114.375 7.78087ZM119.253 2.66521L180.503 71.4152L181.997 70.0848L120.747 1.33479L119.253 2.66521ZM277.5 289.25H286.25V287.25H277.5V289.25ZM287.25 288.25V280.75H285.25V288.25H287.25ZM286.25 279.75H262.5V281.75H286.25V279.75Z" fill="#66636C"/>
<path opacity="0.1" d="M377.888 45.6756C375.552 38.1114 372.104 30.7697 367.209 24.5403C364.54 21.2031 361.314 18.7559 358.088 16.1974C354.751 13.5277 351.747 10.413 347.965 8.4107C339.511 4.18363 329.722 3.96115 320.489 5.18478C319.488 5.29602 318.487 5.51849 317.374 5.62973C315.483 4.29487 312.925 3.84991 310.923 5.29602C309.699 6.18592 308.809 7.18707 308.142 8.29946C307.919 8.4107 307.808 8.52193 307.585 8.52193C305.583 9.74556 302.469 14.0839 300.133 14.0839C293.681 14.3063 292.568 22.6492 296.795 25.4302C296.907 26.2089 297.129 26.8763 297.574 27.5437C299.465 30.6584 302.357 32.9944 304.36 35.9979C306.251 38.8901 307.474 41.1148 310.478 43.1171C311.924 44.1183 313.592 44.2295 315.261 43.6733C316.485 45.2307 317.708 46.788 319.043 48.2341C325.161 55.0197 332.28 61.3603 338.955 67.4784C346.519 74.3752 359.089 100.516 372.549 87.8351C376.776 83.8305 380.224 75.9325 381.337 70.2594C382.783 62.2502 380.336 53.4623 377.888 45.6756Z" fill="#DFEF6F"/>
<path opacity="0.1" d="M383.058 59.6916V59.5804C384.949 47.3441 381.056 37.1102 373.38 27.2099C370.154 23.0941 366.928 18.5333 363.258 15.8636C361.255 14.3063 358.585 14.195 356.249 13.3051C353.469 12.304 351.355 10.6354 348.908 9.18927C344.124 6.51955 339.007 5.62964 333.557 5.74088C327.884 5.85212 321.654 5.07345 316.204 6.74203C315.425 6.9645 314.869 7.29822 314.313 7.63193C308.528 8.85556 303.3 12.1927 298.072 14.8624C291.064 18.3108 297.182 28.7673 304.19 25.3189C308.528 23.2053 313.534 19.5345 318.428 19.312C323.434 19.0895 328.217 16.1973 333.112 16.7535C338.34 17.3097 346.794 18.5333 351.132 21.7592C354.47 24.0952 357.918 25.4301 360.254 28.656C362.701 31.9932 365.594 36.554 368.263 39.7799C371.378 43.4508 369.264 53.2398 370.266 57.9118C370.377 58.468 370.488 59.0242 370.599 59.6916C370.599 59.9141 369.932 63.2512 369.932 63.4737C369.042 67.9233 368.263 69.1469 366.928 73.4852C366.372 75.4875 366.15 77.2673 364.815 78.7134C363.591 80.0483 362.256 80.9382 361.144 82.4955C357.807 87.0563 363.591 92.6182 368.263 91.5058C376.05 83.4967 379.387 77.2673 383.28 64.1411C383.948 62.5838 383.28 61.1377 383.058 59.6916Z" fill="#DFEF6F"/>
<path opacity="0.1" d="M380.277 40.2248C379.276 36.3314 377.83 32.4381 375.16 29.4346C372.379 26.4312 368.82 24.7626 365.594 22.3154C362.368 19.7569 361.367 15.8635 357.584 13.8612C353.135 11.5252 348.129 9.63416 343.123 9.07797C336.004 8.41054 336.115 19.4232 343.123 20.0906C345.682 20.3131 351.355 22.3154 353.246 24.4289C355.36 26.6537 356.25 28.9897 358.919 30.992C364.147 34.8853 367.93 36.4427 369.709 43.117C371.6 50.6812 370.711 57.0218 368.931 64.4748C367.707 69.5918 367.596 77.9347 362.924 81.3831C357.251 85.4989 362.701 95.0654 368.486 90.9496C375.383 85.9438 377.385 78.2684 379.053 70.2592C380.055 65.031 381.834 60.0253 382.057 54.6858C382.279 49.9025 381.501 44.7856 380.277 40.2248Z" fill="#DFEF6F"/>
<path opacity="0.1" d="M380.944 35.4419C378.72 30.9924 372.045 34.8857 374.27 39.3353C376.05 42.7837 374.938 47.5669 374.715 51.2378C374.493 55.4649 374.27 59.5807 374.048 63.8078C373.603 71.4832 374.381 81.3835 365.371 83.497C360.477 84.6094 362.59 92.0624 367.373 90.95C378.497 88.3915 380.166 79.8261 381.167 69.5922C381.834 63.2516 382.057 56.7997 382.391 50.3479C382.836 45.1197 383.392 40.3364 380.944 35.4419Z" fill="#DFEF6F"/>
<path opacity="0.1" d="M370.377 55.5759C364.926 55.4647 359.587 54.1298 354.025 54.0186C348.685 54.0186 343.457 54.7972 338.118 54.4635C334.558 54.241 334.558 59.6917 338.118 60.0254C343.457 60.4704 348.685 59.5805 354.025 59.5805C359.475 59.5805 364.815 61.0266 370.377 61.1378C373.936 61.1378 373.936 55.5759 370.377 55.5759Z" fill="#DFEF6F"/>
<path opacity="0.1" d="M358.474 27.7663C346.238 32.2158 339.564 45.8982 329.997 54.0186C327.327 56.3546 331.221 60.248 333.89 57.9119C338.562 54.0186 342.567 49.4578 346.46 44.897C350.354 40.3362 354.025 35.2193 359.92 33.1057C363.257 31.9934 361.923 26.6539 358.474 27.7663Z" fill="#DFEF6F"/>
<path opacity="0.1" d="M334.447 39.8914C333.779 32.9947 333.779 26.2091 333.557 19.3123C333.446 15.7527 327.995 15.7527 327.995 19.3123C328.106 25.6529 327.995 31.8823 328.662 38.2229C329.219 43.5623 329.775 49.1243 328.106 54.4637C326.994 57.9121 332.333 59.3582 333.446 55.9098C335.225 50.7928 335.003 45.3421 334.447 39.8914Z" fill="#DFEF6F"/>
<path opacity="0.1" d="M341.789 22.4266C341.9 25.43 339.119 28.211 338.006 30.8807C336.672 34.2179 335.893 37.7775 334.558 41.1147C333.223 44.4518 338.563 45.8979 339.897 42.5608C341.455 38.6674 342.122 34.4403 344.125 30.8807C345.682 28.0997 347.35 25.7637 347.239 22.4266C347.128 18.8669 341.677 18.8669 341.789 22.4266Z" fill="#DFEF6F"/>
<path opacity="0.1" d="M362.59 40.3363C358.363 42.3385 355.248 45.5645 351.244 48.0117C346.906 50.6814 341.9 51.6826 337.117 53.3512C333.779 54.5748 335.225 59.9142 338.563 58.6906C343.235 57.022 348.129 55.9097 352.467 53.5736C357.028 51.1264 360.588 47.233 365.371 45.0083C368.597 43.5622 365.816 38.7789 362.59 40.3363Z" fill="#DFEF6F"/>
<path opacity="0.1" d="M327.439 44.4521C325.881 36.5542 325.103 28.6562 320.987 21.537C319.207 18.4223 314.424 21.2032 316.204 24.3179C319.986 30.881 320.542 38.5565 321.988 45.8982C322.767 49.4578 328.106 48.0117 327.439 44.4521Z" fill="#DFEF6F"/>
<path opacity="0.1" d="M363.369 68.9248C354.581 65.4764 348.24 57.801 338.896 55.5762C335.448 54.6863 334.002 60.0258 337.45 60.9157C346.683 63.1404 353.246 70.8159 361.923 74.2643C365.149 75.5992 366.595 70.2597 363.369 68.9248Z" fill="#DFEF6F"/>
<path d="M368.486 71.7051C374.381 57.1329 371.902 41.4024 360 29.4999M360 29.4999C344.204 13.704 316.935 12.454 301.25 28.2499M360 29.4999L353.75 35.7499M358.75 86.083C360.196 84.6369 363.888 79.8072 365 78.2499M350 39.4999L331.25 58.2499M331.25 58.2499H371.405M331.25 58.2499V44.4999M331.25 58.2499L362.5 89.4999C364.725 91.7247 370.498 91.9471 372.5 89.4999C389.074 68.8095 387.883 39.8829 368.75 20.7499C349.617 1.61683 318.19 -0.542803 297.5 16.0318C294.941 18.034 295.275 22.2751 297.5 24.4999L331.25 58.2499ZM331.25 39.4999V16.0317" stroke="#66636C" stroke-width="2" stroke-miterlimit="10"/>
</svg>
